<svg version="1.1" id="Слой_1" xmlns="http://www.w3.org/2000/svg" x="0" y="0" viewBox="0 0 81.4 8.1" xml:space="preserve"><style>.st0{fill:#faff93}</style><path class="st0" d="M1.7 8.1V2.6l-1.6.1V.1h6.1v2.6l-1.6-.1v5.5H1.7zM6.4 8.1v-8h2.8v2.7H11V.1h2.8v8H11V5.3H9.2v2.8H6.4zM14.8 8.1v-8h2.9v8h-2.9zM18.6 8.1v-8h2.8l1.9 3c.3.5.5.8.8 1.4h.1c-.2-.5-.4-1.3-.4-1.9V.1h2.8v8h-2.8l-2-3.2c-.2-.3-.4-.7-.6-1h-.1c.1.4.2 1.1.2 1.5v2.7h-2.7zM27.6 8.1v-8h2.8v2.5c0 .4 0 .6-.1 1h.1c.2-.5.3-.6.4-.9L32.2.1h3.1L32.8 4l2.8 4.1h-3.4l-1.5-2.6c-.1-.2-.3-.5-.4-.8h-.1c0 .3.1.5.1.8v2.6h-2.7z"/><path class="st0" d="M35.4.1h2.9v4.6c0 .2 0 .6.3.8.2.2.3.2.6.2s.5-.1.6-.2c.2-.2.2-.6.2-.8V.1h2.9V5c0 .6-.1 1.5-.8 2.3-.8.8-2 1-2.9 1-.7 0-2.1-.1-3-1.1-.6-.7-.7-1.4-.7-2V.1zM43.7.1h3.5c.7 0 1.8.1 2.4.7.2.2.6.7.6 1.6 0 .3 0 .7-.3 1.1-.2.2-.4.4-.7.5v.1c.3-.1.6.1.8.3.4.4.6.8.6 1.4 0 .6-.2 1.2-.8 1.6-.7.5-1.5.6-2.1.6h-4.1V.1zm2.7 3h.5c.2 0 .4 0 .6-.2.1-.1.2-.2.2-.4s-.1-.4-.2-.4c-.2-.1-.5-.1-.6-.1h-.5v1.1zm0 3h.6c.2 0 .4 0 .6-.1.1-.1.3-.3.3-.5s-.1-.4-.2-.5c-.2-.2-.5-.2-.6-.2h-.6v1.3zM53.7 7.1l-.2 1h-3.1l2.8-8h3.2l2.9 8h-3.1l-.3-1h-2.2zm1.2-4.4h-.1c0 .3-.1.6-.1.9l-.4 1.5h1.2L55 3.6c0-.3-.1-.6-.1-.9zM60 8.1V2.6l-1.6.1V.1h6.1v2.6l-1.6-.1v5.5H60zM72.2 7c-.7.7-1.8 1.3-3.3 1.3s-2.7-.6-3.4-1.3c-.6-.6-1.1-1.6-1.1-2.9 0-1.3.5-2.3 1.1-2.9.7-.7 1.8-1.3 3.3-1.3s2.6.6 3.3 1.3c.6.6 1.1 1.6 1.1 2.9.1 1.2-.4 2.2-1 2.9zm-4.4-4.1c-.3.3-.5.8-.5 1.2 0 .5.2.9.5 1.2.2.2.6.4 1 .4s.8-.2 1-.4c.3-.3.5-.7.5-1.2s-.2-.9-.5-1.2c-.2-.2-.6-.4-1-.4-.5 0-.8.2-1 .4zM73.9 8.1v-8h3.6c.8 0 1.7.1 2.4.8.4.4.8 1 .8 2 0 .7-.2 1.2-.4 1.4-.2.3-.6.5-1.1.6V5c.2.1.3.2.4.4l1.8 2.7H78l-1.2-2.3c0-.1-.1-.1-.1-.3v2.6h-2.8zm2.8-4.5h.3c.2 0 .4 0 .6-.2.1-.1.2-.2.2-.5 0-.2 0-.4-.2-.5-.1-.1-.3-.2-.5-.2h-.5v1.4z"/></svg>