<svg xmlns="http://www.w3.org/2000/svg" id="base" version="1.1" width="148.8" height="165.798"><defs id="defs4"><style id="style2">.cls-5{fill:#352ca2}.cls-3{fill:#fff}.cls-4{fill:#d13076}.cls-5,.cls-6{stroke:#352ca2;stroke-linecap:round;stroke-linejoin:round;stroke-width:3px}.cls-6{fill:none}</style></defs><circle cx="77.85" cy="94.848" r="70.95" id="circle6" opacity=".2" fill="#352ca2"/><circle cx="70.95" cy="87.948" r="70.95" id="circle8" fill="#352ca2"/><path class="cls-3" d="M131.21 106.148a12.23 12.23 0 01-12.26 12.23H15.11v-85.07h116.1z" id="path10" fill="#fff"/><path class="cls-4" d="M131.21 21.088a12.22 12.22 0 10-24.44 0v85.06a12.22 12.22 0 0124.44 0z" id="path12" fill="#d13076"/><path class="cls-5" d="M50.98 24.078l-16.2 60.49 8.07 13.98 2.96-11.03 16.2-60.48z" id="path14" fill="#352ca2" stroke="#352ca2" stroke-width="3" stroke-linecap="round" stroke-linejoin="round"/><path class="cls-6" d="M42.85 98.548l-1.48 5.51" id="path16" fill="none" stroke="#352ca2" stroke-width="3" stroke-linecap="round" stroke-linejoin="round"/><path class="cls-5" d="M62.01 27.038l16.21 60.48 2.95 11.03 8.08-13.98-16.21-60.49z" id="path18" fill="#352ca2" stroke="#352ca2" stroke-width="3" stroke-linecap="round" stroke-linejoin="round"/><path class="cls-6" d="M81.17 98.548l1.48 5.51" id="path20" fill="none" stroke="#352ca2" stroke-width="3" stroke-linecap="round" stroke-linejoin="round"/><path class="cls-3" d="M78.18 35.678a18.56 18.56 0 01-6.76 7.06 18.21 18.21 0 01-18.82 0 18.53 18.53 0 01-6.75-7.06l-2.21 1.18a21 21 0 0018.37 11 20.77 20.77 0 0010.7-3 21 21 0 007.67-8z" id="path22" fill="#fff"/><path d="M62.01 9.288v-7.26" id="path24" fill="none" stroke="#d13076" stroke-width="4" stroke-linecap="round" stroke-linejoin="round"/><circle class="cls-4" cx="62.01" cy="27.038" r="18.33" id="circle26" fill="#d13076"/><circle class="cls-3" cx="62.01" cy="27.038" r="5.48" id="circle28" fill="#fff"/><path d="M75.63 104.058H48.4m13.61-27.23v27.23" id="path30" fill="none" stroke="#d13076" stroke-width="3" stroke-linecap="round" stroke-linejoin="round"/></svg>