<svg xmlns="http://www.w3.org/2000/svg" id="base" version="1.1" width="151.847" height="150.75"><defs id="defs4"><style id="style2">.cls-3{fill:#d13076}.cls-4{fill:#fff}</style></defs><circle cx="77.85" cy="79.8" r="70.95" id="circle6" opacity=".2" fill="#352ca2"/><circle cx="70.95" cy="72.9" r="70.95" id="circle8" fill="#352ca2"/><rect class="cls-3" x="14.6" y="42.56" width="64.56" height="87.71" rx="4.6" id="rect10" fill="#d13076"/><rect class="cls-4" x="21.28" y="54.51" width="51.21" height="17.11" rx="1.15" id="rect12" fill="#fff"/><rect class="cls-4" x="21.28" y="79.66" width="14.45" height="10.46" rx="1.15" id="rect14" fill="#fff"/><rect class="cls-4" x="39.66" y="79.66" width="14.45" height="10.46" rx="1.15" id="rect16" fill="#fff"/><rect class="cls-4" x="58.04" y="79.66" width="14.45" height="10.46" rx="1.15" id="rect18" fill="#fff"/><rect class="cls-4" x="21.28" y="93.76" width="14.45" height="10.46" rx="1.15" id="rect20" fill="#fff"/><rect class="cls-4" x="39.66" y="93.76" width="14.45" height="10.46" rx="1.15" id="rect22" fill="#fff"/><rect class="cls-4" x="21.28" y="107.85" width="14.45" height="10.46" rx="1.15" id="rect24" fill="#fff"/><rect class="cls-4" x="39.66" y="107.85" width="14.45" height="10.46" rx="1.15" id="rect26" fill="#fff"/><rect class="cls-4" x="58.04" y="93.76" width="14.45" height="24.56" rx="1.15" id="rect28" fill="#fff"/><path class="cls-3" d="M133.2 45.9l3.35-3.36a9 9 0 0112.68 0 9 9 0 010 12.69l-3.35 3.35z" id="path30" fill="#d13076"/><path class="cls-4" d="M133.2 45.9L94.95 84.07l-6.86 16.61a2.25 2.25 0 002.94 2.94l16.6-6.86 38.23-38.23z" id="path32" fill="#fff"/><circle class="cls-3" cx="95.06" cy="20.77" r="20.77" id="circle34" fill="#d13076"/><path class="cls-4" d="M98.95 11.1a11.35 11.35 0 014.45 2.8l-3 3.32a5.59 5.59 0 00-3-2.2c-1.26-.34-2.43.06-2.67.93a1.7 1.7 0 00.22 1.25c.45.63.45.63 2.5 2 3.18 2.11 4.21 4.16 3.46 7a6.14 6.14 0 01-4 4.51 10.44 10.44 0 01-3.31.41l-.89 3.34-2.47-.66.86-3.19a11.74 11.74 0 01-5.92-4.17l3.25-3.54a7.89 7.89 0 004.26 3.53 2.29 2.29 0 003-1.27 1.47 1.47 0 00-.25-1.22c-.42-.6-.42-.6-2.41-1.84-3.32-2.09-4.36-4.08-3.61-6.88a6.73 6.73 0 014-4.57 5.56 5.56 0 013.1-.24l.86-3.22 2.47.66z" id="path36" fill="#fff"/></svg>