<svg width="40" height="40" viewBox="0 0 40 40" fill="none" xmlns="http://www.w3.org/2000/svg"><path d="M13.664 4.406c-1.586.461-2.774 2-3.25 4.188-.219 1.031-.188 2.695.078 3.687.438 1.656 1.445 3.055 2.617 3.633.57.29.625.297 1.422.297.805 0 .844-.008 1.438-.305 1.828-.898 2.96-3.289 2.836-5.984-.125-2.563-1.149-4.492-2.829-5.29-.507-.241-.687-.28-1.273-.304-.414-.016-.82.016-1.04.078Zm10.946 0c-.563.149-1.071.438-1.563.883-1.774 1.61-2.39 5.063-1.383 7.758.523 1.39 1.313 2.344 2.375 2.867.586.29.633.297 1.43.297.796 0 .851-.008 1.421-.297 1.196-.586 2.235-2.062 2.657-3.766.226-.921.242-2.57.031-3.554-.555-2.633-2.172-4.313-4.148-4.29-.258 0-.625.048-.82.102ZM4.102 12.555c-1.024.43-1.696 1.265-2.024 2.554-.578 2.227.297 5.446 1.875 6.93 1.945 1.813 4.422 1 5.149-1.688.296-1.117.21-2.921-.204-4.18-.53-1.624-1.632-3.015-2.804-3.538-.485-.219-1.563-.258-1.992-.078Zm29.984.015c-.563.211-1.016.54-1.61 1.18-1.187 1.281-1.843 3.266-1.75 5.313.07 1.476.477 2.484 1.32 3.234.548.5 1.11.695 1.907.656.54-.023.711-.062 1.219-.312.672-.336 1.398-1.047 1.852-1.813.328-.547.757-1.68.93-2.43.179-.789.171-2.57-.016-3.234-.32-1.18-1-2.117-1.805-2.508-.531-.265-1.469-.297-2.047-.086Zm-15.008 6.414a7.629 7.629 0 0 0-3.289 1.274c-.539.375-7.055 6.508-7.531 7.086-.43.515-.813 1.36-.961 2.11-.453 2.25.781 4.773 2.828 5.78 1.438.703 2.922.672 5.93-.156 2.195-.602 3.242-.734 4.883-.617 1.039.07 1.57.172 3.671.695 1.836.461 2.422.563 3.227.555 3.312-.031 5.781-3.64 4.695-6.867-.265-.79-.515-1.203-1.148-1.867-1.008-1.063-6.688-6.375-7.18-6.72-1.422-1-3.469-1.507-5.125-1.273Z" fill="#1C49C2"/></svg>