<svg width="40" height="40" viewBox="0 0 40 40" fill="none" xmlns="http://www.w3.org/2000/svg"><path fill-rule="evenodd" clip-rule="evenodd" d="M29.843 1.69a3.6 3.6 0 0 0-3.86-1.598l-5.178 1.19a3.6 3.6 0 0 1-1.613 0L14.014.091a3.6 3.6 0 0 0-3.86 1.598L7.332 6.195c-.288.46-.677.85-1.138 1.14L1.69 10.158a3.6 3.6 0 0 0-1.6 3.852l1.19 5.184a3.6 3.6 0 0 1 0 1.61L.09 25.987a3.6 3.6 0 0 0 1.599 3.856l4.504 2.823c.46.288.85.676 1.14 1.137l2.823 4.505a3.6 3.6 0 0 0 3.857 1.598l5.178-1.19a3.6 3.6 0 0 1 1.613 0l5.181 1.19a3.6 3.6 0 0 0 3.857-1.598l2.822-4.505c.288-.46.677-.85 1.138-1.137l4.507-2.823a3.6 3.6 0 0 0 1.596-3.86l-1.187-5.178a3.6 3.6 0 0 1 0-1.613l1.19-5.18a3.6 3.6 0 0 0-1.596-3.857l-4.508-2.823a3.601 3.601 0 0 1-1.137-1.137L29.843 1.69Zm-1.45 11.886a1.44 1.44 0 0 0-2.476-1.466l-7.532 12.748-4.547-4.355a1.44 1.44 0 1 0-1.99 2.08l5.858 5.613a1.44 1.44 0 0 0 2.235-.309l8.453-14.31Z" fill="#1C49C2"/></svg>