<svg width="40" height="42" viewBox="0 0 40 42" fill="none" xmlns="http://www.w3.org/2000/svg"><path d="M0 7.5A1.5 1.5 0 0 1 1.5 6C6.826 6 12.016 4.114 17.1.3a1.5 1.5 0 0 1 1.8 0C23.984 4.114 29.174 6 34.5 6A1.5 1.5 0 0 1 36 7.5V18c0 .676-.027 1.34-.08 1.992A13 13 0 0 0 19.26 39.61l-.71.286a1.5 1.5 0 0 1-1.1 0C5.916 35.352 0 28 0 18V7.5ZM40 31a11 11 0 1 0-22 0 11 11 0 0 0 22 0Zm-10 1 .002 5.006a1 1 0 0 1-2 0V32h-5.01a1 1 0 0 1 0-2H28v-5a1 1 0 0 1 2 0v5h4.994a1 1 0 0 1 0 2H30Z" fill="#1C49C2"/></svg>