<svg width="40" height="41" viewBox="0 0 40 41" fill="none" xmlns="http://www.w3.org/2000/svg"><g clip-path="url(#clip0_226_5777)"><path d="M10 18h7.5v22.5H10V18Zm2.5 20H15V20.5h-2.5V38ZM20 23h7.5v17.5H20V23Zm2.5 15H25V25.5h-2.5V38ZM0 28h7.5v12.5H0V28Zm2.5 10H5v-7.5H2.5V38ZM30 13h7.5v27.5H30V13Zm2.5 25H35V15.5h-2.5V38Zm-5.371-25.371c.247.534.371 1.074.371 1.621 0 .52-.098 1.01-.293 1.465a3.76 3.76 0 0 1-.8 1.191 3.76 3.76 0 0 1-1.192.801A3.679 3.679 0 0 1 23.75 18c-.52 0-1.01-.098-1.465-.293a3.76 3.76 0 0 1-1.191-.8 3.76 3.76 0 0 1-.801-1.192A3.679 3.679 0 0 1 20 14.25v-.234c0-.079.006-.157.02-.235l-3.672-1.836a3.507 3.507 0 0 1-1.192.782A3.753 3.753 0 0 1 13.75 13a3.822 3.822 0 0 1-1.621-.371l-5 5c.247.534.371 1.074.371 1.621 0 .52-.098 1.01-.293 1.465a3.761 3.761 0 0 1-.8 1.191 3.761 3.761 0 0 1-1.192.801A3.68 3.68 0 0 1 3.75 23a3.68 3.68 0 0 1-1.465-.293 3.761 3.761 0 0 1-1.191-.8 3.761 3.761 0 0 1-.801-1.192A3.679 3.679 0 0 1 0 19.25a3.753 3.753 0 0 1 1.093-2.656 3.761 3.761 0 0 1 1.192-.801A3.68 3.68 0 0 1 3.75 15.5c.547 0 1.087.124 1.621.371l5-5A3.822 3.822 0 0 1 10 9.25a3.753 3.753 0 0 1 1.093-2.656 3.761 3.761 0 0 1 1.192-.801A3.679 3.679 0 0 1 13.75 5.5a3.753 3.753 0 0 1 2.656 1.093c.339.34.606.736.801 1.192.195.456.293.944.293 1.465v.234c0 .079-.006.157-.02.235l3.672 1.836a3.507 3.507 0 0 1 1.192-.782 3.753 3.753 0 0 1 1.406-.273c.547 0 1.087.124 1.621.371l5-5A3.822 3.822 0 0 1 30 4.25a3.753 3.753 0 0 1 1.093-2.656 3.761 3.761 0 0 1 1.192-.801A3.679 3.679 0 0 1 33.75.5a3.753 3.753 0 0 1 2.656 1.093c.339.34.606.736.801 1.192.195.456.293.944.293 1.465 0 .52-.098 1.01-.293 1.465a3.761 3.761 0 0 1-.8 1.191 3.761 3.761 0 0 1-1.192.801A3.679 3.679 0 0 1 33.75 8a3.822 3.822 0 0 1-1.621-.371l-5 5ZM3.75 20.5c.339 0 .632-.124.879-.371.247-.248.371-.54.371-.879 0-.338-.124-.631-.371-.879A1.201 1.201 0 0 0 3.75 18c-.339 0-.632.124-.879.371-.247.248-.371.54-.371.879 0 .338.124.631.371.879.247.247.54.371.879.371Zm30-17.5c-.339 0-.632.124-.879.371s-.371.54-.371.879c0 .339.124.632.371.879s.54.371.879.371c.339 0 .632-.124.879-.371S35 4.589 35 4.25c0-.339-.124-.632-.371-.879A1.201 1.201 0 0 0 33.75 3Zm-20 7.5c.338 0 .632-.124.879-.371S15 9.589 15 9.25c0-.339-.124-.632-.371-.879A1.201 1.201 0 0 0 13.75 8c-.338 0-.632.124-.879.371s-.371.54-.371.879c0 .339.124.632.371.879s.54.371.879.371Zm10 5c.338 0 .631-.124.879-.371.247-.247.371-.54.371-.879 0-.338-.124-.632-.371-.879A1.201 1.201 0 0 0 23.75 13c-.338 0-.631.124-.879.371-.247.247-.371.54-.371.879 0 .338.124.632.371.879.248.247.54.371.879.371Z" fill="#1C49C2"/></g><defs><clipPath id="clip0_226_5777"><path fill="#fff" transform="translate(0 .5)" d="M0 0h40v40H0z"/></clipPath></defs></svg>