<svg width="40" height="40" viewBox="0 0 40 40" fill="none" xmlns="http://www.w3.org/2000/svg"><path d="M33.6 3c.902 0 1.767.41 2.404 1.139.638.73.996 1.718.996 2.75V34.11c0 1.032-.358 2.02-.996 2.75-.637.73-1.502 1.139-2.404 1.139H6.4c-.902 0-1.767-.41-2.404-1.139C3.358 36.13 3 35.142 3 34.11V6.89c0-1.032.358-2.02.996-2.75C4.633 3.409 5.498 3 6.4 3h27.2Zm-5.1 23.333h-17a1.6 1.6 0 0 0-1.202.57c-.319.364-.498.86-.498 1.375 0 .516.18 1.01.498 1.375a1.6 1.6 0 0 0 1.202.57h17a1.6 1.6 0 0 0 1.202-.57c.319-.365.498-.86.498-1.375a2.1 2.1 0 0 0-.498-1.375 1.6 1.6 0 0 0-1.202-.57ZM16.6 10.778h-3.4c-.858 0-1.684.37-2.313 1.037-.629.667-1.014 1.582-1.079 2.56l-.008.292v3.889c0 .98.324 1.926.907 2.645.583.72 1.383 1.16 2.238 1.234l.255.01h3.4c.858 0 1.684-.37 2.313-1.038.629-.667 1.014-1.581 1.078-2.56l.009-.291v-3.89c0-.98-.324-1.925-.907-2.645s-1.383-1.16-2.238-1.234l-.255-.01Zm11.9 7.778h-5.1c-.433 0-.85.19-1.165.53a2.07 2.07 0 0 0-.53 1.3c-.026.495.115.982.393 1.362.278.38.673.624 1.103.683l.199.013h5.1c.433 0 .85-.19 1.165-.53a2.07 2.07 0 0 0 .53-1.3 2.132 2.132 0 0 0-.393-1.362 1.652 1.652 0 0 0-1.103-.683l-.199-.013Zm-11.9-3.89v3.89h-3.4v-3.89h3.4Zm11.9-3.888h-5.1a1.6 1.6 0 0 0-1.202.57 2.09 2.09 0 0 0-.498 1.374c0 .516.18 1.01.498 1.375a1.6 1.6 0 0 0 1.202.57h5.1a1.6 1.6 0 0 0 1.202-.57c.319-.364.498-.86.498-1.375s-.18-1.01-.498-1.375a1.6 1.6 0 0 0-1.202-.57Z" fill="#1C49C2"/></svg>