<svg id="Layer_1" xmlns="http://www.w3.org/2000/svg" version="1.1" viewBox="0 0 100 100.1"><path d="M5273.1 2400.1v-2c0-2.8-5-4-9.7-4s-9.7 1.3-9.7 4v2c0 1.8.7 3.6 2 4.9l5 4.9c.3.3.4.6.4 1v6.4c0 .4.2.7.6.8l2.9.9c.5.1 1-.2 1-.8v-7.2c0-.4.2-.7.4-1l5.1-5c1.3-1.3 2-3.1 2-4.9Zm-9.7-.1c-4.8 0-7.4-1.3-7.5-1.8.1-.5 2.7-1.8 7.5-1.8s7.3 1.3 7.5 1.8c-.2.5-2.7 1.8-7.5 1.8Z"/><path d="M5268.4 2410.3c-.6 0-1 .4-1 1s.4 1 1 1h4.3c.6 0 1-.4 1-1s-.4-1-1-1h-4.3Zm4.3 3.4h-4.3c-.6 0-1 .4-1 1s.4 1 1 1h4.3c.6 0 1-.4 1-1s-.4-1-1-1Zm0 3.3h-4.3c-.6 0-1 .4-1 1s.4 1 1 1h4.3c.6 0 1-.4 1-1s-.4-1-1-1Z"/><path d="M95.7 72.5 61 14.4c-2.3-3.9-6.4-6.2-11-6.2s-8.7 2.3-11 6.2L4.3 72.5c-2.4 4-2.4 8.8 0 12.9 2.3 4.1 6.5 6.5 11.1 6.5h69.4c4.7 0 8.8-2.4 11.1-6.5s2.3-8.9-.1-12.9ZM50 78.3c-3 0-5.4-2.4-5.4-5.4s2.4-5.4 5.4-5.4 5.4 2.4 5.4 5.4-2.4 5.4-5.4 5.4Zm5.8-41.1-1.9 22.3c-.2 2.1-2.1 3.7-4.2 3.5-1.9-.2-3.4-1.7-3.5-3.5l-1.9-22.3c-.3-3.2 2.1-6 5.3-6.3s6 2.1 6.3 5.3v1Z" style="fill:#1c49c2"/></svg>