<svg width="1384" height="1334" fill="none" xmlns="http://www.w3.org/2000/svg"><g opacity=".3"><g opacity=".3"><mask id="a" maskUnits="userSpaceOnUse" x="216" y="14" width="60" height="61"><path d="M216.366 60.163V14.755h59.039v45.408c0 .682-.521 1.382-1.58 1.903l-24.14 12.066c-2.102 1.059-5.515 1.059-7.616 0l-24.14-12.066c-1.042-.52-1.563-1.203-1.563-1.903z" fill="url(#paint0_linear)"/></mask><g mask="url(#a)"><path d="M216.366 60.163V14.755h59.039v45.408c0 .682-.521 1.382-1.58 1.903l-24.14 12.066c-2.102 1.059-5.515 1.059-7.616 0l-24.14-12.066c-1.042-.52-1.563-1.203-1.563-1.903z" fill="url(#paint1_linear)"/><path d="M216.366 60.163V14.755h59.039v45.408c0 .682-.521 1.382-1.58 1.903l-24.14 12.066c-2.102 1.059-5.515 1.059-7.616 0l-24.14-12.066c-1.042-.52-1.563-1.203-1.563-1.903z" fill="url(#paint2_linear)"/></g></g><path d="M249.696.789c-2.104-1.052-5.516-1.052-7.621 0L217.944 12.85c-2.104 1.052-2.104 2.757 0 3.809l24.131 12.061c2.105 1.052 5.517 1.052 7.621 0l24.131-12.061c2.104-1.052 2.104-2.757 0-3.809L249.696.79z" fill="#4F3B87"/></g><g opacity=".5"><g opacity=".3"><mask id="b" maskUnits="userSpaceOnUse" x="443" y="119" width="76" height="78"><path d="M443.465 177.23v-58.044h75.468v58.044c0 .873-.665 1.768-2.02 2.433l-30.858 15.424c-2.686 1.354-7.049 1.354-9.735 0l-30.858-15.424c-1.331-.665-1.997-1.538-1.997-2.433z" fill="url(#paint3_linear)"/></mask><g mask="url(#b)"><path d="M443.465 177.23v-58.044h75.468v58.044c0 .873-.665 1.768-2.02 2.433l-30.858 15.424c-2.686 1.354-7.049 1.354-9.735 0l-30.858-15.424c-1.331-.665-1.997-1.538-1.997-2.433z" fill="url(#paint4_linear)"/><path d="M443.465 177.23v-58.044h75.468v58.044c0 .873-.665 1.768-2.02 2.433l-30.858 15.424c-2.686 1.354-7.049 1.354-9.735 0l-30.858-15.424c-1.331-.665-1.997-1.538-1.997-2.433z" fill="url(#paint5_linear)"/></g></g><path d="M486.07 101.334c-2.69-1.344-7.052-1.344-9.741 0l-30.847 15.418c-2.69 1.344-2.69 3.524 0 4.868l30.847 15.418c2.689 1.345 7.051 1.345 9.741 0l30.846-15.418c2.69-1.344 2.69-3.524 0-4.868l-30.846-15.418z" fill="#92DA86"/></g><g opacity=".4"><g opacity=".3"><mask id="c" maskUnits="userSpaceOnUse" x="232" y="246" width="50" height="51"><path d="M232.222 283.813v-37.519h48.782v37.519c0 .564-.43 1.142-1.306 1.573l-19.946 9.969c-1.737.875-4.556.875-6.293 0l-19.946-9.969c-.861-.431-1.291-.994-1.291-1.573z" fill="url(#paint6_linear)"/></mask><g mask="url(#c)"><path d="M232.222 283.813v-37.519h48.782v37.519c0 .564-.43 1.142-1.306 1.573l-19.946 9.969c-1.737.875-4.556.875-6.293 0l-19.946-9.969c-.861-.431-1.291-.994-1.291-1.573z" fill="url(#paint7_linear)"/><path d="M232.222 283.813v-37.519h48.782v37.519c0 .564-.43 1.142-1.306 1.573l-19.946 9.969c-1.737.875-4.556.875-6.293 0l-19.946-9.969c-.861-.431-1.291-.994-1.291-1.573z" fill="url(#paint8_linear)"/></g></g><path d="M259.761 234.755c-1.739-.869-4.558-.869-6.296 0l-19.939 9.965c-1.739.869-1.739 2.278 0 3.148l19.939 9.965c1.738.869 4.557.869 6.296 0l19.939-9.965c1.739-.87 1.739-2.279 0-3.148l-19.939-9.965z" fill="#825FFE"/></g><g opacity=".3"><g opacity=".3"><mask id="d" maskUnits="userSpaceOnUse" x="0" y="575" width="77" height="79"><path d="M76.704 633.969v-58.638H.464v58.638c0 .881.673 1.785 2.041 2.458l31.173 15.581c2.714 1.368 7.121 1.368 9.835 0l31.173-15.581c1.345-.673 2.018-1.554 2.018-2.458z" fill="url(#paint9_linear)"/></mask><g mask="url(#d)"><path d="M76.704 633.969v-58.638H.464v58.638c0 .881.673 1.785 2.041 2.458l31.173 15.581c2.714 1.368 7.121 1.368 9.835 0l31.173-15.581c1.345-.673 2.018-1.554 2.018-2.458z" fill="url(#paint10_linear)"/></g></g><path d="M33.664 557.296c2.717-1.358 7.123-1.358 9.84 0l31.162 15.576c2.718 1.358 2.718 3.56 0 4.918l-31.162 15.576c-2.717 1.358-7.123 1.358-9.84 0L2.502 577.79c-2.717-1.358-2.717-3.56 0-4.918l31.162-15.576z" fill="#4E388D"/></g><defs><linearGradient id="paint0_linear" x1="283.222" y1="5.247" x2="285.117" y2="64.66" gradientUnits="userSpaceOnUse"><stop stop-color="#D857BC"/><stop offset="1" stop-color="#D857BC" stop-opacity="0"/></linearGradient><linearGradient id="paint1_linear" x1="216.366" y1="6.697" x2="274.62" y2="5.778" gradientUnits="userSpaceOnUse"><stop stop-color="#D857BC" stop-opacity=".2"/><stop offset=".365" stop-color="#D857BC" stop-opacity=".5"/><stop offset=".479" stop-color="#D857BC" stop-opacity=".6"/><stop offset=".599" stop-color="#D857BC" stop-opacity=".5"/><stop offset="1" stop-color="#D857BC" stop-opacity=".2"/></linearGradient><linearGradient id="paint2_linear" x1="216.366" y1="6.697" x2="274.62" y2="5.778" gradientUnits="userSpaceOnUse"><stop stop-color="#D857BC" stop-opacity=".2"/><stop offset=".365" stop-color="#D857BC" stop-opacity=".5"/><stop offset=".479" stop-color="#D857BC" stop-opacity=".6"/><stop offset=".599" stop-color="#D857BC" stop-opacity=".5"/><stop offset="1" stop-color="#D857BC" stop-opacity=".2"/></linearGradient><linearGradient id="paint3_linear" x1="528.925" y1="107.032" x2="531.348" y2="182.979" gradientUnits="userSpaceOnUse"><stop stop-color="#D857BC"/><stop offset="1" stop-color="#D857BC" stop-opacity="0"/></linearGradient><linearGradient id="paint4_linear" x1="443.465" y1="108.886" x2="517.93" y2="107.712" gradientUnits="userSpaceOnUse"><stop stop-color="#92DA86" stop-opacity=".2"/><stop offset=".365" stop-color="#92DA86" stop-opacity=".8"/><stop offset=".479" stop-color="#92DA86"/><stop offset=".599" stop-color="#92DA86" stop-opacity=".8"/><stop offset="1" stop-color="#92DA86" stop-opacity=".2"/></linearGradient><linearGradient id="paint5_linear" x1="443.465" y1="108.886" x2="517.93" y2="107.712" gradientUnits="userSpaceOnUse"><stop stop-color="#92DA86" stop-opacity=".2"/><stop offset=".365" stop-color="#92DA86" stop-opacity=".8"/><stop offset=".479" stop-color="#92DA86"/><stop offset=".599" stop-color="#92DA86" stop-opacity=".8"/><stop offset="1" stop-color="#92DA86" stop-opacity=".2"/></linearGradient><linearGradient id="paint6_linear" x1="287.462" y1="238.438" x2="289.028" y2="287.529" gradientUnits="userSpaceOnUse"><stop stop-color="#D857BC"/><stop offset="1" stop-color="#D857BC" stop-opacity="0"/></linearGradient><linearGradient id="paint7_linear" x1="232.222" y1="239.636" x2="280.355" y2="238.877" gradientUnits="userSpaceOnUse"><stop stop-color="#D857BC" stop-opacity=".15"/><stop offset=".365" stop-color="#D857BC" stop-opacity=".4"/><stop offset=".479" stop-color="#D857BC" stop-opacity=".5"/><stop offset=".599" stop-color="#D857BC" stop-opacity=".4"/><stop offset="1" stop-color="#D857BC" stop-opacity=".15"/></linearGradient><linearGradient id="paint8_linear" x1="232.222" y1="239.636" x2="280.355" y2="238.877" gradientUnits="userSpaceOnUse"><stop stop-color="#D857BC" stop-opacity=".15"/><stop offset=".365" stop-color="#D857BC" stop-opacity=".4"/><stop offset=".479" stop-color="#D857BC" stop-opacity=".5"/><stop offset=".599" stop-color="#D857BC" stop-opacity=".4"/><stop offset="1" stop-color="#D857BC" stop-opacity=".15"/></linearGradient><linearGradient id="paint9_linear" x1="-9.63" y1="563.053" x2="-12.077" y2="639.776" gradientUnits="userSpaceOnUse"><stop stop-color="#D857BC"/><stop offset="1" stop-color="#D857BC" stop-opacity="0"/></linearGradient><linearGradient id="paint10_linear" x1="76.704" y1="564.926" x2="1.477" y2="563.74" gradientUnits="userSpaceOnUse"><stop stop-color="#D857BC" stop-opacity=".15"/><stop offset=".365" stop-color="#D857BC" stop-opacity=".4"/><stop offset=".479" stop-color="#D857BC" stop-opacity=".5"/><stop offset=".599" stop-color="#D857BC" stop-opacity=".4"/><stop offset="1" stop-color="#D857BC" stop-opacity=".15"/></linearGradient></defs></svg>