<svg xmlns="http://www.w3.org/2000/svg" viewBox="0 0 1384 1334"><linearGradient id="a" gradientUnits="userSpaceOnUse" x1="216.971" y1="1288.935" x2="275.225" y2="1289.854" gradientTransform="matrix(1 0 0 -1 0 1334)"><stop offset="0" stop-color="#38325a"/><stop offset=".3" stop-color="#3d345d"/><stop offset=".5" stop-color="#3f355e"/><stop offset=".7" stop-color="#3c345d"/><stop offset="1" stop-color="#38335a"/></linearGradient><path d="M216.4 60.2V14.8h59v45.4c0 .7-.5 1.4-1.6 1.9l-24.1 12.1c-2.1 1.1-5.5 1.1-7.6 0L218 62.1c-1.1-.6-1.6-1.2-1.6-1.9z" fill="url(#a)"/><linearGradient id="b" gradientUnits="userSpaceOnUse" x1="245.886" y1="-222.129" x2="245.886" y2="-163.946" gradientTransform="translate(0 238)"><stop offset="0" stop-color="#333257" stop-opacity="0"/><stop offset=".75" stop-color="#333257"/><stop offset="1" stop-color="#333257"/></linearGradient><path fill="url(#b)" d="M216.4 14.8h59V75h-59z"/><path d="M249.7.8c-2.1-1.1-5.5-1.1-7.6 0L218 12.9c-2.1 1.1-2.1 2.8 0 3.8l24.1 12.1c2.1 1.1 5.5 1.1 7.6 0l24.1-12.1c2.1-1.1 2.1-2.8 0-3.8L249.7.8z" fill="#3c3565"/><linearGradient id="c" gradientUnits="userSpaceOnUse" x1="444.238" y1="1176.07" x2="518.703" y2="1177.244" gradientTransform="matrix(1 0 0 -1 0 1334)"><stop offset="0" stop-color="#363758"/><stop offset=".3" stop-color="#393d5a"/><stop offset=".5" stop-color="#3a3d5a"/><stop offset=".7" stop-color="#393d5a"/><stop offset="1" stop-color="#363759"/></linearGradient><path d="M443.5 177.2v-58H519v58c0 .9-.7 1.8-2 2.4L486.1 195c-2.7 1.4-7 1.4-9.7 0l-30.9-15.4c-1.4-.6-2-1.5-2-2.4z" fill="url(#c)"/><linearGradient id="d" gradientUnits="userSpaceOnUse" x1="481.199" y1="-117.387" x2="481.199" y2="-43.013" gradientTransform="translate(0 238)"><stop offset="0" stop-color="#333257" stop-opacity="0"/><stop offset=".75" stop-color="#333257"/><stop offset="1" stop-color="#333257"/></linearGradient><path fill="url(#d)" d="M443.5 119.2H519v76.9h-75.5z"/><path d="M486.1 101.3c-2.7-1.3-7.1-1.3-9.7 0l-30.8 15.4c-2.7 1.3-2.7 3.5 0 4.9l30.8 15.4c2.7 1.3 7.1 1.3 9.7 0l30.8-15.4c2.7-1.3 2.7-3.5 0-4.9l-30.8-15.4z" fill="#63866f"/><linearGradient id="e" gradientUnits="userSpaceOnUse" x1="232.722" y1="1062.662" x2="280.855" y2="1063.421" gradientTransform="matrix(1 0 0 -1 0 1334)"><stop offset="0" stop-color="#36335e"/><stop offset=".3" stop-color="#3a3665"/><stop offset=".5" stop-color="#3d386d"/><stop offset=".7" stop-color="#3a3665"/><stop offset="1" stop-color="#36335e"/></linearGradient><path d="M232.2 283.8v-37.5H281v37.5c0 .6-.4 1.1-1.3 1.6l-19.9 10c-1.7.9-4.6.9-6.3 0l-19.9-10c-.9-.4-1.4-1-1.4-1.6z" fill="url(#e)"/><linearGradient id="f" gradientUnits="userSpaceOnUse" x1="256.613" y1="9.216" x2="256.613" y2="57.291" gradientTransform="translate(0 238)"><stop offset="0" stop-color="#333257" stop-opacity="0"/><stop offset=".75" stop-color="#333257"/><stop offset="1" stop-color="#333257"/></linearGradient><path fill="url(#f)" d="M232.2 246.3H281V296h-48.8z"/><path d="M259.8 234.8c-1.7-.9-4.6-.9-6.3 0l-19.9 10c-1.7.9-1.7 2.3 0 3.1l19.9 10c1.7.9 4.6.9 6.3 0l19.9-10c1.7-.9 1.7-2.3 0-3.1l-19.9-10z" fill="#53449a"/><linearGradient id="g" gradientUnits="userSpaceOnUse" x1="75.923" y1="719.529" x2=".696" y2="720.715" gradientTransform="matrix(1 0 0 -1 0 1334)"><stop offset="0" stop-color="#38325a"/><stop offset=".3" stop-color="#3d345d"/><stop offset=".5" stop-color="#3f355e"/><stop offset=".7" stop-color="#3c345d"/><stop offset="1" stop-color="#38335a"/></linearGradient><path d="M76.7 634v-58.6H.5V634c0 .9.7 1.8 2 2.5L33.7 652c2.7 1.4 7.1 1.4 9.8 0l31.2-15.6c1.3-.6 2-1.5 2-2.4z" fill="url(#g)"/><linearGradient id="h" gradientUnits="userSpaceOnUse" x1="38.472" y1="338.772" x2="38.472" y2="413.908" gradientTransform="translate(0 238)"><stop offset="0" stop-color="#333257" stop-opacity="0"/><stop offset=".75" stop-color="#333257"/><stop offset="1" stop-color="#333257"/></linearGradient><path fill="url(#h)" d="M.2 575.3h76.5V653H.2z"/><path d="M33.7 557.3c2.7-1.4 7.1-1.4 9.8 0l31.2 15.6c2.7 1.4 2.7 3.6 0 4.9l-31.2 15.6c-2.7 1.4-7.1 1.4-9.8 0L2.5 577.8c-2.7-1.4-2.7-3.6 0-4.9l31.2-15.6z" fill="#3b3467"/></svg>