<svg width="1384" height="1334" fill="none" xmlns="http://www.w3.org/2000/svg"><g opacity=".45"><g opacity=".3"><mask id="a" maskUnits="userSpaceOnUse" x="824" y="76" width="203" height="206"><path d="M1026.19 231.128V76.051H824.637v155.077c0 2.33 1.778 4.722 5.396 6.5l82.413 41.207c7.175 3.618 18.826 3.618 26 0l82.414-41.207c3.56-1.778 5.33-4.108 5.33-6.5z" fill="url(#paint0_linear)"/></mask><g mask="url(#a)"><path d="M1026.19 231.128V76.051H824.637v155.077c0 2.33 1.778 4.722 5.396 6.5l82.413 41.207c7.175 3.618 18.826 3.618 26 0l82.414-41.207c3.56-1.778 5.33-4.108 5.33-6.5z" fill="url(#paint1_linear)"/><path d="M1026.19 231.128V76.051H824.637v155.077c0 2.33 1.778 4.722 5.396 6.5l82.413 41.207c7.175 3.618 18.826 3.618 26 0l82.414-41.207c3.56-1.778 5.33-4.108 5.33-6.5z" fill="url(#paint2_linear)"/></g></g><path d="M912.408 28.355c7.184-3.592 18.832-3.592 26.016 0l82.386 41.192c7.18 3.592 7.18 9.416 0 13.008l-82.386 41.191c-7.184 3.592-18.832 3.592-26.016 0l-82.383-41.191c-7.184-3.592-7.184-9.416 0-13.008l82.383-41.192z" fill="#4F3B87"/></g><g opacity=".3"><mask id="b" maskUnits="userSpaceOnUse" x="596" y="182" width="216" height="220"><path d="M811.221 348.04V182.718H596.349V348.04c0 2.484 1.896 5.033 5.753 6.929l87.857 43.929c7.649 3.857 20.069 3.857 27.717 0l87.858-43.929c3.792-1.896 5.687-4.38 5.687-6.929z" fill="url(#paint3_linear)"/></mask><g mask="url(#b)"><path d="M811.221 348.04V182.718H596.349V348.04c0 2.484 1.896 5.033 5.753 6.929l87.857 43.929c7.649 3.857 20.069 3.857 27.717 0l87.858-43.929c3.792-1.896 5.687-4.38 5.687-6.929z" fill="url(#paint4_linear)"/></g></g><path d="M689.918 131.872c7.659-3.829 20.076-3.829 27.735 0l87.825 43.913c7.658 3.829 7.658 10.037 0 13.867l-87.825 43.912c-7.659 3.829-20.076 3.829-27.735 0l-87.825-43.912c-7.659-3.83-7.659-10.038 0-13.867l87.825-43.913z" fill="#4F3B87"/><g opacity=".7"><g opacity=".3"><mask id="c" maskUnits="userSpaceOnUse" x="350" y="276" width="263" height="268"><path d="M612.358 478.289V276.462H350.039v201.827c0 3.032 2.314 6.145 7.023 8.459l107.258 53.629c9.337 4.709 24.5 4.709 33.837 0l107.258-53.629c4.629-2.314 6.943-5.347 6.943-8.459z" fill="url(#paint5_linear)"/></mask><g mask="url(#c)"><path d="M612.358 478.289V276.462H350.039v201.827c0 3.032 2.314 6.145 7.023 8.459l107.258 53.629c9.337 4.709 24.5 4.709 33.837 0l107.258-53.629c4.629-2.314 6.943-5.347 6.943-8.459z" fill="url(#paint6_linear)"/><path d="M612.358 478.289V276.462H350.039v201.827c0 3.032 2.314 6.145 7.023 8.459l107.258 53.629c9.337 4.709 24.5 4.709 33.837 0l107.258-53.629c4.629-2.314 6.943-5.347 6.943-8.459z" fill="url(#paint7_linear)"/></g></g><path d="M464.27 214.388c9.349-4.675 24.508-4.675 33.858 0l107.218 53.609c9.35 4.675 9.35 12.255 0 16.929l-107.218 53.609c-9.35 4.675-24.509 4.675-33.858 0l-107.219-53.609c-9.349-4.674-9.349-12.254 0-16.929l107.219-53.609z" fill="#4F3B87"/></g><g opacity=".6"><g opacity=".3"><mask id="d" maskUnits="userSpaceOnUse" x="189" y="431" width="148" height="150"><path d="M336.571 543.973V431.025H189.77v112.948c0 1.697 1.295 3.439 3.93 4.734l60.024 30.012c5.226 2.635 13.711 2.635 18.937 0l60.024-30.012c2.591-1.295 3.886-2.992 3.886-4.734z" fill="url(#paint8_linear)"/></mask><g mask="url(#d)"><path d="M336.571 543.973V431.025H189.77v112.948c0 1.697 1.295 3.439 3.93 4.734l60.024 30.012c5.226 2.635 13.711 2.635 18.937 0l60.024-30.012c2.591-1.295 3.886-2.992 3.886-4.734z" fill="url(#paint9_linear)"/></g></g><path d="M253.696 396.287c5.233-2.617 13.716-2.617 18.948 0l60.003 30.001c5.232 2.616 5.232 6.858 0 9.474l-60.003 30.001c-5.232 2.616-13.715 2.616-18.948 0l-60.002-30.001c-5.233-2.616-5.233-6.858 0-9.474l60.002-30.001z" fill="#4E388D"/></g><defs><linearGradient id="paint0_linear" x1="797.952" y1="43.58" x2="791.477" y2="246.486" gradientUnits="userSpaceOnUse"><stop stop-color="#D857BC"/><stop offset="1" stop-color="#D857BC" stop-opacity="0"/></linearGradient><linearGradient id="paint1_linear" x1="1026.19" y1="48.532" x2="827.316" y2="45.398" gradientUnits="userSpaceOnUse"><stop stop-color="#D857BC" stop-opacity=".15"/><stop offset=".365" stop-color="#D857BC" stop-opacity=".4"/><stop offset=".479" stop-color="#D857BC" stop-opacity=".5"/><stop offset=".599" stop-color="#D857BC" stop-opacity=".4"/><stop offset="1" stop-color="#D857BC" stop-opacity=".15"/></linearGradient><linearGradient id="paint2_linear" x1="1026.19" y1="48.532" x2="827.316" y2="45.398" gradientUnits="userSpaceOnUse"><stop stop-color="#D857BC" stop-opacity=".15"/><stop offset=".365" stop-color="#D857BC" stop-opacity=".4"/><stop offset=".479" stop-color="#D857BC" stop-opacity=".5"/><stop offset=".599" stop-color="#D857BC" stop-opacity=".4"/><stop offset="1" stop-color="#D857BC" stop-opacity=".15"/></linearGradient><linearGradient id="paint3_linear" x1="567.901" y1="148.102" x2="560.999" y2="364.412" gradientUnits="userSpaceOnUse"><stop stop-color="#D857BC"/><stop offset="1" stop-color="#D857BC" stop-opacity="0"/></linearGradient><linearGradient id="paint4_linear" x1="811.221" y1="153.382" x2="599.205" y2="150.04" gradientUnits="userSpaceOnUse"><stop stop-color="#D857BC" stop-opacity=".15"/><stop offset=".365" stop-color="#D857BC" stop-opacity=".4"/><stop offset=".479" stop-color="#D857BC" stop-opacity=".5"/><stop offset=".599" stop-color="#D857BC" stop-opacity=".4"/><stop offset="1" stop-color="#D857BC" stop-opacity=".15"/></linearGradient><linearGradient id="paint5_linear" x1="315.309" y1="234.202" x2="306.883" y2="498.277" gradientUnits="userSpaceOnUse"><stop stop-color="#D857BC"/><stop offset="1" stop-color="#D857BC" stop-opacity="0"/></linearGradient><linearGradient id="paint6_linear" x1="612.358" y1="240.648" x2="353.526" y2="236.568" gradientUnits="userSpaceOnUse"><stop stop-color="#D857BC" stop-opacity=".15"/><stop offset=".365" stop-color="#D857BC" stop-opacity=".4"/><stop offset=".479" stop-color="#D857BC" stop-opacity=".5"/><stop offset=".599" stop-color="#D857BC" stop-opacity=".4"/><stop offset="1" stop-color="#D857BC" stop-opacity=".15"/></linearGradient><linearGradient id="paint7_linear" x1="612.358" y1="240.648" x2="353.526" y2="236.568" gradientUnits="userSpaceOnUse"><stop stop-color="#D857BC" stop-opacity=".15"/><stop offset=".365" stop-color="#D857BC" stop-opacity=".4"/><stop offset=".479" stop-color="#D857BC" stop-opacity=".5"/><stop offset=".599" stop-color="#D857BC" stop-opacity=".4"/><stop offset="1" stop-color="#D857BC" stop-opacity=".15"/></linearGradient><linearGradient id="paint8_linear" x1="170.334" y1="407.375" x2="165.618" y2="555.159" gradientUnits="userSpaceOnUse"><stop stop-color="#D857BC"/><stop offset="1" stop-color="#D857BC" stop-opacity="0"/></linearGradient><linearGradient id="paint9_linear" x1="336.571" y1="410.982" x2="191.721" y2="408.699" gradientUnits="userSpaceOnUse"><stop stop-color="#D857BC" stop-opacity=".15"/><stop offset=".365" stop-color="#D857BC" stop-opacity=".4"/><stop offset=".479" stop-color="#D857BC" stop-opacity=".5"/><stop offset=".599" stop-color="#D857BC" stop-opacity=".4"/><stop offset="1" stop-color="#D857BC" stop-opacity=".15"/></linearGradient></defs></svg>