<svg xmlns="http://www.w3.org/2000/svg" viewBox="0 0 1384 1334"><linearGradient id="a" gradientUnits="userSpaceOnUse" x1="1024.125" y1="1154.437" x2="825.251" y2="1157.571" gradientTransform="matrix(1 0 0 -1 0 1334)"><stop offset="0" stop-color="#38345a"/><stop offset=".3" stop-color="#3b345d"/><stop offset=".5" stop-color="#3f355e"/><stop offset=".7" stop-color="#3c345c"/><stop offset="1" stop-color="#38345a"/></linearGradient><path d="M1026.2 231.1v-155H824.6v155.1c0 2.3 1.8 4.7 5.4 6.5l82.4 41.2c7.2 3.6 18.8 3.6 26 0l82.4-41.2c3.6-1.9 5.4-4.2 5.4-6.6z" fill="url(#a)"/><linearGradient id="b" gradientUnits="userSpaceOnUse" x1="925.416" y1="-158.137" x2="925.416" y2="40.569" gradientTransform="translate(0 238)"><stop offset="0" stop-color="#333257" stop-opacity="0"/><stop offset=".75" stop-color="#333257"/><stop offset="1" stop-color="#333257"/></linearGradient><path fill="url(#b)" d="M824.6 76.1h201.6v205.5H824.6z"/><path d="M912.4 28.4c7.2-3.6 18.8-3.6 26 0l82.4 41.2c7.2 3.6 7.2 9.4 0 13l-82.4 41.2c-7.2 3.6-18.8 3.6-26 0L830 82.6c-7.2-3.6-7.2-9.4 0-13 0-.1 82.4-41.2 82.4-41.2z" fill="#40366d"/><linearGradient id="c" gradientUnits="userSpaceOnUse" x1="809.019" y1="1040.931" x2="597.003" y2="1044.273" gradientTransform="matrix(1 0 0 -1 0 1334)"><stop offset="0" stop-color="#3a345c"/><stop offset=".3" stop-color="#433661"/><stop offset=".5" stop-color="#493765"/><stop offset=".7" stop-color="#433661"/><stop offset="1" stop-color="#3a345b"/></linearGradient><path d="M811.2 348V182.7H596.3V348c0 2.5 1.9 5 5.8 6.9l87.9 43.9c7.6 3.9 20.1 3.9 27.7 0l87.9-43.9c3.7-1.8 5.6-4.3 5.6-6.9z" fill="url(#c)"/><linearGradient id="d" gradientUnits="userSpaceOnUse" x1="703.785" y1="-51.22" x2="703.785" y2="160.509" gradientTransform="translate(0 238)"><stop offset="0" stop-color="#333257" stop-opacity="0"/><stop offset=".75" stop-color="#333257"/><stop offset="1" stop-color="#333257"/></linearGradient><path fill="url(#d)" d="M596.3 182.7h214.9v219H596.3z"/><path d="M689.9 131.9c7.7-3.8 20.1-3.8 27.7 0l87.8 43.9c7.7 3.8 7.7 10 0 13.9l-87.8 43.9c-7.7 3.8-20.1 3.8-27.7 0l-87.8-43.9c-7.7-3.8-7.7-10 0-13.9l87.8-43.9z" fill="#4f3b87"/><linearGradient id="e" gradientUnits="userSpaceOnUse" x1="609.67" y1="922.821" x2="350.838" y2="926.901" gradientTransform="matrix(1 0 0 -1 0 1334)"><stop offset="0" stop-color="#38335a"/><stop offset=".3" stop-color="#42355f"/><stop offset=".5" stop-color="#463662"/><stop offset=".7" stop-color="#42365f"/><stop offset="1" stop-color="#38335a"/></linearGradient><path d="M612.4 478.3V276.5H350v201.8c0 3 2.3 6.1 7 8.5l107.3 53.6c9.3 4.7 24.5 4.7 33.8 0l107.3-53.6c4.6-2.4 7-5.4 7-8.5z" fill="url(#e)"/><linearGradient id="f" gradientUnits="userSpaceOnUse" x1="481.199" y1="43.423" x2="481.199" y2="301.995" gradientTransform="translate(0 238)"><stop offset="0" stop-color="#333257" stop-opacity="0"/><stop offset=".75" stop-color="#333257"/><stop offset="1" stop-color="#333257"/></linearGradient><path fill="url(#f)" d="M350 276.5h262.3v267.4H350z"/><path d="M464.3 214.4c9.3-4.7 24.5-4.7 33.9 0L605.3 268c9.3 4.7 9.3 12.3 0 16.9l-107.2 53.6c-9.4 4.7-24.5 4.7-33.9 0L357 284.9c-9.3-4.7-9.3-12.3 0-16.9l107.3-53.6z" fill="#463878"/><linearGradient id="g" gradientUnits="userSpaceOnUse" x1="335.067" y1="827.584" x2="190.217" y2="829.867" gradientTransform="matrix(1 0 0 -1 0 1334)"><stop offset="0" stop-color="#353359"/><stop offset=".3" stop-color="#38335a"/><stop offset=".5" stop-color="#3c345c"/><stop offset=".706" stop-color="#39335b"/><stop offset="1" stop-color="#353359"/></linearGradient><path d="M336.6 544V431H189.8v113c0 1.7 1.3 3.4 3.9 4.7l60 30c5.2 2.6 13.7 2.6 18.9 0l60-30c2.7-1.3 4-3 4-4.7z" fill="url(#g)"/><linearGradient id="h" gradientUnits="userSpaceOnUse" x1="263.171" y1="195.802" x2="263.171" y2="340.526" gradientTransform="translate(0 238)"><stop offset="0" stop-color="#333257" stop-opacity="0"/><stop offset=".75" stop-color="#333257"/><stop offset="1" stop-color="#333257"/></linearGradient><path fill="url(#h)" d="M189.8 431h146.8v149.7H189.8z"/><path d="M253.7 396.3c5.2-2.6 13.7-2.6 18.9 0l60 30c5.2 2.6 5.2 6.9 0 9.5l-60 30c-5.2 2.6-13.7 2.6-18.9 0l-60-30c-5.2-2.6-5.2-6.9 0-9.5l60-30z" fill="#433678"/></svg>