<svg version="1.1" id="Layer_1" xmlns="http://www.w3.org/2000/svg" x="0" y="0" viewBox="0 0 1384 1334" xml:space="preserve"><style>.st8{fill:#4f3b87}</style><linearGradient id="SVGID_1_" gradientUnits="userSpaceOnUse" x1="1242.648" y1="1043.141" x2="1061.458" y2="1045.997" gradientTransform="matrix(1 0 0 -1 0 1334)"><stop offset="0" stop-color="#38345a"/><stop offset=".3" stop-color="#3b345d"/><stop offset=".5" stop-color="#3f355e"/><stop offset=".7" stop-color="#3c345c"/><stop offset="1" stop-color="#38345a"/></linearGradient><path d="M1244.5 337.8V196.6h-183.6v141.3c0 2.1 1.6 4.3 4.9 5.9l75.1 37.5c6.5 3.3 17.2 3.3 23.7 0l75.1-37.5c3.2-1.7 4.8-3.8 4.8-6z" fill="url(#SVGID_1_)"/><linearGradient id="SVGID_2_" gradientUnits="userSpaceOnUse" x1="1152.716" y1="-37.932" x2="1152.716" y2="143.107" gradientTransform="translate(0 238)"><stop offset="0" stop-color="#333257" stop-opacity="0"/><stop offset=".75" stop-color="#333257"/><stop offset="1" stop-color="#333257"/></linearGradient><path fill="url(#SVGID_2_)" d="M1060.9 196.6h183.6v187.2h-183.6z"/><path d="M1140.9 153.1c6.5-3.3 17.2-3.3 23.7 0l75.1 37.5c6.6 3.3 6.6 8.6 0 11.9l-75.1 37.5c-6.6 3.3-17.2 3.3-23.7 0l-75.1-37.5c-6.5-3.3-6.5-8.6 0-11.9l75.1-37.5z" fill="#41366f"/><linearGradient id="SVGID_3_" gradientUnits="userSpaceOnUse" x1="1090.632" y1="913.045" x2="769.194" y2="918.111" gradientTransform="matrix(1 0 0 -1 0 1334)"><stop offset="0" stop-color="#393564"/><stop offset=".3" stop-color="#3f3970"/><stop offset=".5" stop-color="#433c7a"/><stop offset=".7" stop-color="#3f3971"/><stop offset="1" stop-color="#393564"/></linearGradient><path d="M1094 504.3V253.7H768.2v250.6c0 3.8 2.9 7.6 8.7 10.5l133.2 66.6c11.6 5.8 30.4 5.8 42 0l133.2-66.6c5.8-2.9 8.7-6.6 8.7-10.5z" fill="url(#SVGID_3_)"/><linearGradient id="SVGID_4_" gradientUnits="userSpaceOnUse" x1="931.088" y1="21.887" x2="931.088" y2="343.06" gradientTransform="translate(0 238)"><stop offset="0" stop-color="#333257" stop-opacity="0"/><stop offset=".75" stop-color="#333257"/><stop offset="1" stop-color="#333257"/></linearGradient><path fill="url(#SVGID_4_)" d="M768.2 253.7H1094v332.1H768.2z"/><path d="M910.1 176.6c11.6-5.8 30.4-5.8 42 0l133.1 66.6c11.6 5.8 11.6 15.2 0 21l-133.1 66.6c-11.6 5.8-30.4 5.8-42 0l-133.2-66.6c-11.6-5.8-11.6-15.2 0-21l133.2-66.6z" fill="#825ffe"/><linearGradient id="SVGID_5_" gradientUnits="userSpaceOnUse" x1="803.139" y1="818.113" x2="612.468" y2="821.119" gradientTransform="matrix(1 0 0 -1 0 1334)"><stop offset="0" stop-color="#38345a"/><stop offset=".3" stop-color="#3b345d"/><stop offset=".5" stop-color="#3f355e"/><stop offset=".7" stop-color="#3c345c"/><stop offset="1" stop-color="#38345a"/></linearGradient><path d="M805.1 565.3V416.6H611.9v148.7c0 2.2 1.7 4.5 5.2 6.2l79 39.5c6.9 3.5 18 3.5 24.9 0l79-39.5c3.4-1.6 5.1-3.9 5.1-6.2z" fill="url(#SVGID_5_)"/><linearGradient id="SVGID_6_" gradientUnits="userSpaceOnUse" x1="708.739" y1="182.345" x2="708.739" y2="372.858" gradientTransform="translate(0 238)"><stop offset="0" stop-color="#333257" stop-opacity="0"/><stop offset=".75" stop-color="#333257"/><stop offset="1" stop-color="#333257"/></linearGradient><path fill="url(#SVGID_6_)" d="M612.4 416.6h192.8v197H612.4z"/><path class="st8" d="M696 370.9c6.9-3.4 18.1-3.4 24.9 0l79 39.5c6.9 3.4 6.9 9 0 12.5l-79 39.5c-6.9 3.4-18.1 3.4-24.9 0l-79-39.5c-6.9-3.4-6.9-9 0-12.5l79-39.5z"/><linearGradient id="SVGID_7_" gradientUnits="userSpaceOnUse" x1="609.86" y1="701.49" x2="369.327" y2="705.281" gradientTransform="matrix(1 0 0 -1 0 1334)"><stop offset="0" stop-color="#38335a"/><stop offset=".3" stop-color="#42355f"/><stop offset=".5" stop-color="#463662"/><stop offset=".7" stop-color="#42365f"/><stop offset="1" stop-color="#38335a"/></linearGradient><path d="M612.4 694.9V507.3H368.6v187.6c0 2.8 2.1 5.7 6.5 7.9l99.7 49.8c8.7 4.4 22.8 4.4 31.4 0l99.7-49.8c4.3-2.2 6.5-5 6.5-7.9z" fill="url(#SVGID_7_)"/><linearGradient id="SVGID_8_" gradientUnits="userSpaceOnUse" x1="490.233" y1="273.983" x2="490.233" y2="514.317" gradientTransform="translate(0 238)"><stop offset="0" stop-color="#333257" stop-opacity="0"/><stop offset=".75" stop-color="#333257"/><stop offset="1" stop-color="#333257"/></linearGradient><path fill="url(#SVGID_8_)" d="M368.6 507.3h243.3v248.5H368.6z"/><path class="st8" d="M474.7 449.6c8.7-4.3 22.8-4.3 31.5 0l99.6 49.8c8.7 4.3 8.7 11.4 0 15.7L506.2 565c-8.7 4.3-22.8 4.3-31.5 0l-99.6-49.8c-8.7-4.3-8.7-11.4 0-15.7l99.6-49.9z"/><linearGradient id="SVGID_9_" gradientUnits="userSpaceOnUse" x1="378.914" y1="586.278" x2="151.195" y2="589.866" gradientTransform="matrix(1 0 0 -1 0 1334)"><stop offset="0" stop-color="#36335e"/><stop offset=".3" stop-color="#3a3665"/><stop offset=".5" stop-color="#3d386d"/><stop offset=".7" stop-color="#3a3665"/><stop offset="1" stop-color="#36335e"/></linearGradient><path d="M381.3 806.8V629.2H150.5v177.6c0 2.7 2 5.4 6.2 7.4l94.4 47.2c8.2 4.1 21.6 4.1 29.8 0l94.4-47.2c3.9-2 6-4.7 6-7.4z" fill="url(#SVGID_9_)"/><linearGradient id="SVGID_10_" gradientUnits="userSpaceOnUse" x1="265.886" y1="395.615" x2="265.886" y2="623.109" gradientTransform="translate(0 238)"><stop offset="0" stop-color="#333257" stop-opacity="0"/><stop offset=".75" stop-color="#333257"/><stop offset="1" stop-color="#333257"/></linearGradient><path fill="url(#SVGID_10_)" d="M150.5 629.2h230.8v235.3H150.5z"/><path d="M251 574.6c8.2-4.1 21.6-4.1 29.8 0l94.3 47.2c8.2 4.1 8.2 10.8 0 14.9l-94.3 47.2c-8.2 4.1-21.6 4.1-29.8 0l-94.3-47.2c-8.2-4.1-8.2-10.8 0-14.9l94.3-47.2z" fill="#5646a2"/></svg>