<svg width="1384" height="1334" fill="none" xmlns="http://www.w3.org/2000/svg"><g opacity=".5"><g opacity=".3"><mask id="a" maskUnits="userSpaceOnUse" x="1060" y="196" width="185" height="188"><path d="M1244.53 337.838V196.554H1060.9v141.284c0 2.122 1.62 4.301 4.92 5.921l75.08 37.542c6.54 3.296 17.15 3.296 23.69 0l75.08-37.542c3.24-1.62 4.86-3.743 4.86-5.921z" fill="url(#paint0_linear)"/></mask><g mask="url(#a)"><path d="M1244.53 337.838V196.554H1060.9v141.284c0 2.122 1.62 4.301 4.92 5.921l75.08 37.542c6.54 3.296 17.15 3.296 23.69 0l75.08-37.542c3.24-1.62 4.86-3.743 4.86-5.921z" fill="url(#paint1_linear)"/><path d="M1244.53 337.838V196.554H1060.9v141.284c0 2.122 1.62 4.301 4.92 5.921l75.08 37.542c6.54 3.296 17.15 3.296 23.69 0l75.08-37.542c3.24-1.62 4.86-3.743 4.86-5.921z" fill="url(#paint2_linear)"/></g></g><path d="M1140.87 153.101c6.54-3.273 17.15-3.273 23.7 0l75.05 37.527c6.55 3.273 6.55 8.579 0 11.851l-75.05 37.528c-6.55 3.272-17.16 3.272-23.7 0l-75.06-37.528c-6.54-3.272-6.54-8.578 0-11.851l75.06-37.527z" fill="#4F3B87"/></g><g opacity=".3"><mask id="b" maskUnits="userSpaceOnUse" x="768" y="253" width="326" height="333"><path d="M1093.97 504.298V253.652H768.201v250.646c0 3.766 2.875 7.632 8.722 10.506l133.202 66.601c11.596 5.847 30.427 5.847 42.022 0l133.203-66.601c5.75-2.874 8.62-6.641 8.62-10.506z" fill="url(#paint3_linear)"/></mask><g mask="url(#b)"><path d="M1093.97 504.298V253.652H768.201v250.646c0 3.766 2.875 7.632 8.722 10.506l133.202 66.601c11.596 5.847 30.427 5.847 42.022 0l133.203-66.601c5.75-2.874 8.62-6.641 8.62-10.506z" fill="url(#paint4_linear)"/><path d="M1093.97 504.298V253.652H768.201v250.646c0 3.766 2.875 7.632 8.722 10.506l133.202 66.601c11.596 5.847 30.427 5.847 42.022 0l133.203-66.601c5.75-2.874 8.62-6.641 8.62-10.506z" fill="url(#paint5_linear)"/></g></g><path d="M910.063 176.564c11.611-5.806 30.437-5.806 42.048 0l133.149 66.576c11.62 5.806 11.62 15.219 0 21.024l-133.149 66.577c-11.611 5.805-30.437 5.805-42.048 0L776.91 264.164c-11.611-5.805-11.611-15.218 0-21.024l133.153-66.576z" fill="#825FFE"/><g opacity=".3"><mask id="c" maskUnits="userSpaceOnUse" x="611" y="416" width="195" height="198"><path d="M805.12 565.324V416.646H611.88v148.678c0 2.234 1.705 4.527 5.174 6.232l79.012 39.506c6.879 3.469 18.049 3.469 24.927 0l79.013-39.506c3.409-1.705 5.114-3.939 5.114-6.232z" fill="url(#paint6_linear)"/></mask><g mask="url(#c)"><path d="M805.12 565.324V416.646H611.88v148.678c0 2.234 1.705 4.527 5.174 6.232l79.012 39.506c6.879 3.469 18.049 3.469 24.927 0l79.013-39.506c3.409-1.705 5.114-3.939 5.114-6.232z" fill="url(#paint7_linear)"/></g></g><path d="M696.029 370.919c6.888-3.443 18.055-3.443 24.943 0l78.983 39.492c6.887 3.444 6.887 9.027 0 12.471l-78.983 39.492c-6.888 3.443-18.055 3.443-24.943 0l-78.983-39.492c-6.888-3.444-6.888-9.027 0-12.471l78.983-39.492z" fill="#4F3B87"/><g opacity=".3"><mask id="d" maskUnits="userSpaceOnUse" x="368" y="507" width="245" height="249"><path d="M612.358 694.875V507.317H368.585v187.558c0 2.819 2.15 5.711 6.526 7.862l99.675 49.837c8.677 4.376 22.768 4.376 31.445 0l99.675-49.837c4.301-2.151 6.452-4.969 6.452-7.862z" fill="url(#paint8_linear)"/></mask><g mask="url(#d)"><path d="M612.358 694.875V507.317H368.585v187.558c0 2.819 2.15 5.711 6.526 7.862l99.675 49.837c8.677 4.376 22.768 4.376 31.445 0l99.675-49.837c4.301-2.151 6.452-4.969 6.452-7.862z" fill="url(#paint9_linear)"/><path d="M612.358 694.875V507.317H368.585v187.558c0 2.819 2.15 5.711 6.526 7.862l99.675 49.837c8.677 4.376 22.768 4.376 31.445 0l99.675-49.837c4.301-2.151 6.452-4.969 6.452-7.862z" fill="url(#paint10_linear)"/></g></g><path d="M474.739 449.632c8.689-4.344 22.776-4.344 31.465 0l99.638 49.819c8.689 4.345 8.689 11.388 0 15.733l-99.638 49.819c-8.689 4.344-22.776 4.344-31.465 0l-99.638-49.819c-8.688-4.345-8.688-11.388 0-15.733l99.638-49.819z" fill="#4F3B87"/><g opacity=".45"><g opacity=".3"><mask id="e" maskUnits="userSpaceOnUse" x="150" y="629" width="232" height="236"><path d="M381.279 806.765V629.199H150.492v177.566c0 2.668 2.036 5.407 6.179 7.443l94.365 47.182c8.214 4.143 21.555 4.143 29.77 0l94.364-47.182c4.073-2.036 6.109-4.704 6.109-7.443z" fill="url(#paint11_linear)"/></mask><g mask="url(#e)"><path d="M381.279 806.765V629.199H150.492v177.566c0 2.668 2.036 5.407 6.179 7.443l94.365 47.182c8.214 4.143 21.555 4.143 29.77 0l94.364-47.182c4.073-2.036 6.109-4.704 6.109-7.443z" fill="url(#paint12_linear)"/><path d="M381.279 806.765V629.199H150.492v177.566c0 2.668 2.036 5.407 6.179 7.443l94.365 47.182c8.214 4.143 21.555 4.143 29.77 0l94.364-47.182c4.073-2.036 6.109-4.704 6.109-7.443z" fill="url(#paint13_linear)"/></g></g><path d="M250.991 574.587c8.226-4.112 21.563-4.112 29.789 0l94.33 47.165c8.226 4.113 8.226 10.782 0 14.895l-94.33 47.164c-8.226 4.113-21.563 4.113-29.789 0l-94.329-47.164c-8.226-4.113-8.226-10.782 0-14.895l94.329-47.165z" fill="#825FFE"/></g><defs><linearGradient id="paint0_linear" x1="1036.59" y1="166.971" x2="1030.69" y2="351.83" gradientUnits="userSpaceOnUse"><stop stop-color="#D857BC"/><stop offset="1" stop-color="#D857BC" stop-opacity="0"/></linearGradient><linearGradient id="paint1_linear" x1="1244.53" y1="171.483" x2="1063.34" y2="168.627" gradientUnits="userSpaceOnUse"><stop stop-color="#D857BC" stop-opacity=".15"/><stop offset=".365" stop-color="#D857BC" stop-opacity=".4"/><stop offset=".479" stop-color="#D857BC" stop-opacity=".5"/><stop offset=".599" stop-color="#D857BC" stop-opacity=".4"/><stop offset="1" stop-color="#D857BC" stop-opacity=".15"/></linearGradient><linearGradient id="paint2_linear" x1="1244.53" y1="171.483" x2="1063.34" y2="168.627" gradientUnits="userSpaceOnUse"><stop stop-color="#D857BC" stop-opacity=".15"/><stop offset=".365" stop-color="#D857BC" stop-opacity=".4"/><stop offset=".479" stop-color="#D857BC" stop-opacity=".5"/><stop offset=".599" stop-color="#D857BC" stop-opacity=".4"/><stop offset="1" stop-color="#D857BC" stop-opacity=".15"/></linearGradient><linearGradient id="paint3_linear" x1="725.071" y1="201.171" x2="714.606" y2="529.121" gradientUnits="userSpaceOnUse"><stop stop-color="#D857BC"/><stop offset="1" stop-color="#D857BC" stop-opacity="0"/></linearGradient><linearGradient id="paint4_linear" x1="1093.97" y1="209.175" x2="772.532" y2="204.109" gradientUnits="userSpaceOnUse"><stop stop-color="#825FFE" stop-opacity=".2"/><stop offset=".365" stop-color="#825FFE" stop-opacity=".5"/><stop offset=".479" stop-color="#825FFE" stop-opacity=".7"/><stop offset=".599" stop-color="#825FFE" stop-opacity=".5"/><stop offset="1" stop-color="#825FFE" stop-opacity=".2"/></linearGradient><linearGradient id="paint5_linear" x1="1093.97" y1="209.175" x2="772.532" y2="204.109" gradientUnits="userSpaceOnUse"><stop stop-color="#825FFE" stop-opacity=".2"/><stop offset=".365" stop-color="#825FFE" stop-opacity=".5"/><stop offset=".479" stop-color="#825FFE" stop-opacity=".7"/><stop offset=".599" stop-color="#825FFE" stop-opacity=".5"/><stop offset="1" stop-color="#825FFE" stop-opacity=".2"/></linearGradient><linearGradient id="paint6_linear" x1="586.296" y1="385.515" x2="580.089" y2="580.048" gradientUnits="userSpaceOnUse"><stop stop-color="#D857BC"/><stop offset="1" stop-color="#D857BC" stop-opacity="0"/></linearGradient><linearGradient id="paint7_linear" x1="805.12" y1="390.264" x2="614.449" y2="387.258" gradientUnits="userSpaceOnUse"><stop stop-color="#D857BC" stop-opacity=".15"/><stop offset=".365" stop-color="#D857BC" stop-opacity=".4"/><stop offset=".479" stop-color="#D857BC" stop-opacity=".5"/><stop offset=".599" stop-color="#D857BC" stop-opacity=".4"/><stop offset="1" stop-color="#D857BC" stop-opacity=".15"/></linearGradient><linearGradient id="paint8_linear" x1="336.31" y1="468.046" x2="328.479" y2="713.45" gradientUnits="userSpaceOnUse"><stop stop-color="#D857BC"/><stop offset="1" stop-color="#D857BC" stop-opacity="0"/></linearGradient><linearGradient id="paint9_linear" x1="612.358" y1="474.035" x2="371.825" y2="470.244" gradientUnits="userSpaceOnUse"><stop stop-color="#D857BC" stop-opacity=".15"/><stop offset=".365" stop-color="#D857BC" stop-opacity=".4"/><stop offset=".479" stop-color="#D857BC" stop-opacity=".5"/><stop offset=".599" stop-color="#D857BC" stop-opacity=".4"/><stop offset="1" stop-color="#D857BC" stop-opacity=".15"/></linearGradient><linearGradient id="paint10_linear" x1="612.358" y1="474.035" x2="371.825" y2="470.244" gradientUnits="userSpaceOnUse"><stop stop-color="#D857BC" stop-opacity=".15"/><stop offset=".365" stop-color="#D857BC" stop-opacity=".4"/><stop offset=".479" stop-color="#D857BC" stop-opacity=".5"/><stop offset=".599" stop-color="#D857BC" stop-opacity=".4"/><stop offset="1" stop-color="#D857BC" stop-opacity=".15"/></linearGradient><linearGradient id="paint11_linear" x1="119.937" y1="592.02" x2="112.523" y2="824.351" gradientUnits="userSpaceOnUse"><stop stop-color="#D857BC"/><stop offset="1" stop-color="#D857BC" stop-opacity="0"/></linearGradient><linearGradient id="paint12_linear" x1="381.279" y1="597.69" x2="153.56" y2="594.101" gradientUnits="userSpaceOnUse"><stop stop-color="#825FFE" stop-opacity=".3"/><stop offset=".365" stop-color="#825FFE" stop-opacity=".8"/><stop offset=".479" stop-color="#825FFE"/><stop offset=".599" stop-color="#825FFE" stop-opacity=".8"/><stop offset="1" stop-color="#825FFE" stop-opacity=".3"/></linearGradient><linearGradient id="paint13_linear" x1="381.279" y1="597.69" x2="153.56" y2="594.101" gradientUnits="userSpaceOnUse"><stop stop-color="#825FFE" stop-opacity=".3"/><stop offset=".365" stop-color="#825FFE" stop-opacity=".8"/><stop offset=".479" stop-color="#825FFE"/><stop offset=".599" stop-color="#825FFE" stop-opacity=".8"/><stop offset="1" stop-color="#825FFE" stop-opacity=".3"/></linearGradient></defs></svg>