<svg width="1384" height="1334" fill="none" xmlns="http://www.w3.org/2000/svg"><g opacity=".8"><g opacity=".3"><mask id="a" maskUnits="userSpaceOnUse" x="1052" y="411" width="207" height="211"><path d="M1258.41 570.03V411.939h-205.47V570.03c0 2.375 1.81 4.813 5.5 6.626l84.01 42.008c7.32 3.688 19.19 3.688 26.51 0l84.01-42.008c3.63-1.813 5.44-4.188 5.44-6.626z" fill="url(#paint0_linear)"/></mask><g mask="url(#a)"><path d="M1258.41 570.03V411.939h-205.47V570.03c0 2.375 1.81 4.813 5.5 6.626l84.01 42.008c7.32 3.688 19.19 3.688 26.51 0l84.01-42.008c3.63-1.813 5.44-4.188 5.44-6.626z" fill="url(#paint1_linear)"/><path d="M1258.41 570.03V411.939h-205.47V570.03c0 2.375 1.81 4.813 5.5 6.626l84.01 42.008c7.32 3.688 19.19 3.688 26.51 0l84.01-42.008c3.63-1.813 5.44-4.188 5.44-6.626z" fill="url(#paint2_linear)"/></g></g><path d="M1142.41 363.316c7.33-3.661 19.2-3.661 26.52 0l83.99 41.993c7.32 3.661 7.32 9.598 0 13.26l-83.99 41.992c-7.32 3.662-19.19 3.662-26.52 0l-83.98-41.992c-7.33-3.662-7.33-9.599 0-13.26l83.98-41.993z" fill="#4F3B87"/></g><g opacity=".5"><g opacity=".3"><mask id="b" maskUnits="userSpaceOnUse" x="1250" y="321" width="120" height="123"><path d="M1369.62 413.937v-92.033H1250v92.033c0 1.383 1.06 2.802 3.2 3.858l48.91 24.454c4.26 2.148 11.17 2.148 15.43 0l48.91-24.454c2.11-1.056 3.17-2.439 3.17-3.858z" fill="url(#paint3_linear)"/></mask><g mask="url(#b)"><path d="M1369.62 413.937v-92.033H1250v92.033c0 1.383 1.06 2.802 3.2 3.858l48.91 24.454c4.26 2.148 11.17 2.148 15.43 0l48.91-24.454c2.11-1.056 3.17-2.439 3.17-3.858z" fill="url(#paint4_linear)"/><path d="M1369.62 413.937v-92.033H1250v92.033c0 1.383 1.06 2.802 3.2 3.858l48.91 24.454c4.26 2.148 11.17 2.148 15.43 0l48.91-24.454c2.11-1.056 3.17-2.439 3.17-3.858z" fill="url(#paint5_linear)"/></g></g><path d="M1302.09 293.599c4.26-2.132 11.17-2.132 15.44 0l48.89 24.445c4.26 2.132 4.26 5.588 0 7.72l-48.89 24.446c-4.27 2.132-11.18 2.132-15.44 0l-48.89-24.446c-4.27-2.132-4.27-5.588 0-7.72l48.89-24.445z" fill="#4F3B87"/></g><g opacity=".7"><g opacity=".3"><mask id="c" maskUnits="userSpaceOnUse" x="841" y="525" width="196" height="201"><path d="M1036.76 676.319V525.882H841.236v150.437c0 2.26 1.725 4.58 5.235 6.305l79.947 39.974c6.96 3.509 18.262 3.509 25.222 0l79.95-39.974c3.45-1.725 5.17-3.986 5.17-6.305z" fill="url(#paint6_linear)"/></mask><g mask="url(#c)"><path d="M1036.76 676.319V525.882H841.236v150.437c0 2.26 1.725 4.58 5.235 6.305l79.947 39.974c6.96 3.509 18.262 3.509 25.222 0l79.95-39.974c3.45-1.725 5.17-3.986 5.17-6.305z" fill="url(#paint7_linear)"/><path d="M1036.76 676.319V525.882H841.236v150.437c0 2.26 1.725 4.58 5.235 6.305l79.947 39.974c6.96 3.509 18.262 3.509 25.222 0l79.95-39.974c3.45-1.725 5.17-3.986 5.17-6.305z" fill="url(#paint8_linear)"/></g></g><path d="M926.381 479.613c6.969-3.484 18.268-3.484 25.237 0l79.922 39.959c6.97 3.485 6.97 9.134 0 12.619l-79.922 39.959c-6.969 3.484-18.268 3.484-25.237 0l-79.918-39.959c-6.969-3.485-6.969-9.134 0-12.619l79.918-39.959z" fill="#FE6486"/></g><g opacity=".3"><mask id="d" maskUnits="userSpaceOnUse" x="553" y="594" width="311" height="316"><path d="M863.238 832.163V594.054H553.761v238.109c0 3.578 2.73 7.25 8.285 9.981l126.54 63.27c11.016 5.555 28.905 5.555 39.921 0l126.54-63.27c5.461-2.731 8.191-6.309 8.191-9.981z" fill="url(#paint9_linear)"/></mask><g mask="url(#d)"><path d="M863.238 832.163V594.054H553.761v238.109c0 3.578 2.73 7.25 8.285 9.981l126.54 63.27c11.016 5.555 28.905 5.555 39.921 0l126.54-63.27c5.461-2.731 8.191-6.309 8.191-9.981z" fill="url(#paint10_linear)"/></g></g><path d="M688.527 520.821c11.031-5.515 28.915-5.515 39.945 0l126.494 63.246c11.03 5.516 11.03 14.458 0 19.973l-126.494 63.246c-11.03 5.516-28.914 5.516-39.945 0L562.034 604.04c-11.031-5.515-11.031-14.457 0-19.973l126.493-63.246z" fill="#4F3B87"/><g opacity=".3"><mask id="e" maskUnits="userSpaceOnUse" x="374" y="744" width="233" height="237"><path d="M606.123 922.685V744.722H374.82v177.963c0 2.674 2.041 5.419 6.192 7.459l94.576 47.288c8.234 4.152 21.604 4.152 29.837 0l94.576-47.288c4.081-2.04 6.122-4.714 6.122-7.459z" fill="url(#paint11_linear)"/></mask><g mask="url(#e)"><path d="M606.123 922.685V744.722H374.82v177.963c0 2.674 2.041 5.419 6.192 7.459l94.576 47.288c8.234 4.152 21.604 4.152 29.837 0l94.576-47.288c4.081-2.04 6.122-4.714 6.122-7.459z" fill="url(#paint12_linear)"/><path d="M606.123 922.685V744.722H374.82v177.963c0 2.674 2.041 5.419 6.192 7.459l94.576 47.288c8.234 4.152 21.604 4.152 29.837 0l94.576-47.288c4.081-2.04 6.122-4.714 6.122-7.459z" fill="url(#paint13_linear)"/></g></g><path d="M505.399 689.988c-8.244-4.122-21.611-4.122-29.855 0l-94.541 47.27c-8.244 4.122-8.244 10.805 0 14.928l94.541 47.27c8.244 4.122 21.611 4.122 29.855 0l94.541-47.27c8.244-4.123 8.244-10.806 0-14.928l-94.541-47.27z" fill="#4F3B87"/><defs><linearGradient id="paint0_linear" x1="1025.73" y1="378.837" x2="1019.13" y2="585.687" gradientUnits="userSpaceOnUse"><stop stop-color="#D857BC"/><stop offset="1" stop-color="#D857BC" stop-opacity="0"/></linearGradient><linearGradient id="paint1_linear" x1="1258.41" y1="383.886" x2="1055.67" y2="380.69" gradientUnits="userSpaceOnUse"><stop stop-color="#D857BC" stop-opacity=".2"/><stop offset=".365" stop-color="#D857BC" stop-opacity=".5"/><stop offset=".479" stop-color="#D857BC" stop-opacity=".8"/><stop offset=".599" stop-color="#D857BC" stop-opacity=".5"/><stop offset="1" stop-color="#D857BC" stop-opacity=".2"/></linearGradient><linearGradient id="paint2_linear" x1="1258.41" y1="383.886" x2="1055.67" y2="380.69" gradientUnits="userSpaceOnUse"><stop stop-color="#D857BC" stop-opacity=".2"/><stop offset=".365" stop-color="#D857BC" stop-opacity=".5"/><stop offset=".479" stop-color="#D857BC" stop-opacity=".8"/><stop offset=".599" stop-color="#D857BC" stop-opacity=".5"/><stop offset="1" stop-color="#D857BC" stop-opacity=".2"/></linearGradient><linearGradient id="paint3_linear" x1="1234.16" y1="302.634" x2="1230.32" y2="423.052" gradientUnits="userSpaceOnUse"><stop stop-color="#D857BC"/><stop offset="1" stop-color="#D857BC" stop-opacity="0"/></linearGradient><linearGradient id="paint4_linear" x1="1369.62" y1="305.573" x2="1251.59" y2="303.713" gradientUnits="userSpaceOnUse"><stop stop-color="#D857BC" stop-opacity=".2"/><stop offset=".365" stop-color="#D857BC" stop-opacity=".5"/><stop offset=".479" stop-color="#D857BC" stop-opacity=".8"/><stop offset=".599" stop-color="#D857BC" stop-opacity=".5"/><stop offset="1" stop-color="#D857BC" stop-opacity=".2"/></linearGradient><linearGradient id="paint5_linear" x1="1369.62" y1="305.573" x2="1251.59" y2="303.713" gradientUnits="userSpaceOnUse"><stop stop-color="#D857BC" stop-opacity=".2"/><stop offset=".365" stop-color="#D857BC" stop-opacity=".5"/><stop offset=".479" stop-color="#D857BC" stop-opacity=".8"/><stop offset=".599" stop-color="#D857BC" stop-opacity=".5"/><stop offset="1" stop-color="#D857BC" stop-opacity=".2"/></linearGradient><linearGradient id="paint6_linear" x1="815.35" y1="494.382" x2="809.068" y2="691.217" gradientUnits="userSpaceOnUse"><stop stop-color="#D857BC"/><stop offset="1" stop-color="#D857BC" stop-opacity="0"/></linearGradient><linearGradient id="paint7_linear" x1="1036.76" y1="499.187" x2="843.835" y2="496.146" gradientUnits="userSpaceOnUse"><stop stop-color="#FE6486" stop-opacity=".4"/><stop offset=".365" stop-color="#FE6486" stop-opacity=".7"/><stop offset=".479" stop-color="#FE6486"/><stop offset=".599" stop-color="#FE6486" stop-opacity=".7"/><stop offset="1" stop-color="#FE6486" stop-opacity=".4"/></linearGradient><linearGradient id="paint8_linear" x1="1036.76" y1="499.187" x2="843.835" y2="496.146" gradientUnits="userSpaceOnUse"><stop stop-color="#FE6486" stop-opacity=".4"/><stop offset=".365" stop-color="#FE6486" stop-opacity=".7"/><stop offset=".479" stop-color="#FE6486"/><stop offset=".599" stop-color="#FE6486" stop-opacity=".7"/><stop offset="1" stop-color="#FE6486" stop-opacity=".4"/></linearGradient><linearGradient id="paint9_linear" x1="512.788" y1="544.197" x2="502.846" y2="855.745" gradientUnits="userSpaceOnUse"><stop stop-color="#D857BC"/><stop offset="1" stop-color="#D857BC" stop-opacity="0"/></linearGradient><linearGradient id="paint10_linear" x1="863.238" y1="551.801" x2="557.875" y2="546.988" gradientUnits="userSpaceOnUse"><stop stop-color="#D857BC" stop-opacity=".15"/><stop offset=".365" stop-color="#D857BC" stop-opacity=".4"/><stop offset=".479" stop-color="#D857BC" stop-opacity=".5"/><stop offset=".599" stop-color="#D857BC" stop-opacity=".4"/><stop offset="1" stop-color="#D857BC" stop-opacity=".15"/></linearGradient><linearGradient id="paint11_linear" x1="344.197" y1="707.459" x2="336.766" y2="940.31" gradientUnits="userSpaceOnUse"><stop stop-color="#D857BC"/><stop offset="1" stop-color="#D857BC" stop-opacity="0"/></linearGradient><linearGradient id="paint12_linear" x1="606.123" y1="713.142" x2="377.895" y2="709.545" gradientUnits="userSpaceOnUse"><stop stop-color="#D857BC" stop-opacity=".15"/><stop offset=".365" stop-color="#D857BC" stop-opacity=".4"/><stop offset=".479" stop-color="#D857BC" stop-opacity=".5"/><stop offset=".599" stop-color="#D857BC" stop-opacity=".4"/><stop offset="1" stop-color="#D857BC" stop-opacity=".15"/></linearGradient><linearGradient id="paint13_linear" x1="606.123" y1="713.142" x2="377.895" y2="709.545" gradientUnits="userSpaceOnUse"><stop stop-color="#D857BC" stop-opacity=".15"/><stop offset=".365" stop-color="#D857BC" stop-opacity=".4"/><stop offset=".479" stop-color="#D857BC" stop-opacity=".5"/><stop offset=".599" stop-color="#D857BC" stop-opacity=".4"/><stop offset="1" stop-color="#D857BC" stop-opacity=".15"/></linearGradient></defs></svg>