<svg version="1.1" id="Layer_1" xmlns="http://www.w3.org/2000/svg" x="0" y="0" viewBox="0 0 1384 1334" xml:space="preserve"><style>.st11{fill:#4f3b87}</style><linearGradient id="SVGID_1_" gradientUnits="userSpaceOnUse" x1="1368.395" y1="950.665" x2="1250.364" y2="952.525" gradientTransform="matrix(1 0 0 -1 0 1334)"><stop offset="0" stop-color="#38345a"/><stop offset=".3" stop-color="#3b345d"/><stop offset=".5" stop-color="#3f355e"/><stop offset=".7" stop-color="#3c345c"/><stop offset="1" stop-color="#38345a"/></linearGradient><path d="M1369.6 413.9v-92H1250v92c0 1.4 1.1 2.8 3.2 3.9l48.9 24.5c4.3 2.1 11.2 2.1 15.4 0l48.9-24.5c2.2-1.1 3.2-2.4 3.2-3.9z" fill="url(#SVGID_1_)"/><linearGradient id="SVGID_2_" gradientUnits="userSpaceOnUse" x1="1309.806" y1="1247.965" x2="1309.806" y2="1129.883" gradientTransform="matrix(1 0 0 -1 0 1572)"><stop offset="0" stop-color="#333257" stop-opacity="0"/><stop offset=".75" stop-color="#333257"/><stop offset="1" stop-color="#333257"/></linearGradient><path fill="url(#SVGID_2_)" d="M1250 321.8h119.6v122.1H1250z"/><path d="M1302.1 293.6c4.3-2.1 11.2-2.1 15.4 0l48.9 24.4c4.3 2.1 4.3 5.6 0 7.7l-48.9 24.4c-4.3 2.1-11.2 2.1-15.4 0l-48.9-24.4c-4.3-2.1-4.3-5.6 0-7.7l48.9-24.4z" fill="#41366f"/><linearGradient id="SVGID_3_" gradientUnits="userSpaceOnUse" x1="1256.304" y1="816.537" x2="1053.564" y2="819.733" gradientTransform="matrix(1 0 0 -1 0 1334)"><stop offset="0" stop-color="#38345a"/><stop offset=".3" stop-color="#3b345d"/><stop offset=".5" stop-color="#3f355e"/><stop offset=".7" stop-color="#3c345c"/><stop offset="1" stop-color="#38345a"/></linearGradient><path d="M1258.4 570V411.9h-205.5V570c0 2.4 1.8 4.8 5.5 6.6l84 42c7.3 3.7 19.2 3.7 26.5 0l84-42c3.7-1.8 5.5-4.1 5.5-6.6z" fill="url(#SVGID_3_)"/><linearGradient id="SVGID_4_" gradientUnits="userSpaceOnUse" x1="1155.671" y1="1156.159" x2="1155.671" y2="953.589" gradientTransform="matrix(1 0 0 -1 0 1572)"><stop offset="0" stop-color="#333257" stop-opacity="0"/><stop offset=".75" stop-color="#333257"/><stop offset="1" stop-color="#333257"/></linearGradient><path fill="url(#SVGID_4_)" d="M1052.9 411.9h205.5v209.5h-205.5z"/><path d="M1142.4 363.3c7.3-3.7 19.2-3.7 26.5 0l84 42c7.3 3.7 7.3 9.6 0 13.3l-84 42c-7.3 3.7-19.2 3.7-26.5 0l-84-42c-7.3-3.7-7.3-9.6 0-13.3l84-42z" fill="#49397d"/><linearGradient id="SVGID_5_" gradientUnits="userSpaceOnUse" x1="1034.756" y1="707.703" x2="841.831" y2="710.744" gradientTransform="matrix(1 0 0 -1 0 1334)"><stop offset="0" stop-color="#43365a"/><stop offset=".365" stop-color="#4d395d"/><stop offset=".479" stop-color="#4f385d"/><stop offset=".599" stop-color="#4b385d"/><stop offset="1" stop-color="#43365a"/></linearGradient><path d="M1036.8 676.3V525.9H841.2v150.4c0 2.3 1.7 4.6 5.2 6.3l79.9 40c7 3.5 18.3 3.5 25.2 0l79.9-40c3.6-1.7 5.4-4 5.4-6.3z" fill="url(#SVGID_5_)"/><linearGradient id="SVGID_6_" gradientUnits="userSpaceOnUse" x1="939.002" y1="1042.405" x2="939.002" y2="849.615" gradientTransform="matrix(1 0 0 -1 0 1572)"><stop offset="0" stop-color="#333257" stop-opacity="0"/><stop offset=".75" stop-color="#333257"/><stop offset="1" stop-color="#333257"/></linearGradient><path fill="url(#SVGID_6_)" d="M841.2 525.9h195.5v199.3H841.2z"/><path d="M926.4 479.6c7-3.5 18.3-3.5 25.2 0l79.9 40c7 3.5 7 9.1 0 12.6l-79.9 40c-7 3.5-18.3 3.5-25.2 0l-79.9-40c-7-3.5-7-9.1 0-12.6l79.9-40z" fill="#c15578"/><linearGradient id="SVGID_7_" gradientUnits="userSpaceOnUse" x1="860.067" y1="581.01" x2="554.704" y2="585.823" gradientTransform="matrix(1 0 0 -1 0 1334)"><stop offset="0" stop-color="#38335a"/><stop offset=".3" stop-color="#42355f"/><stop offset=".5" stop-color="#463662"/><stop offset=".7" stop-color="#42365f"/><stop offset="1" stop-color="#38335a"/></linearGradient><path d="M863.2 832.2V594.1H553.8v238.1c0 3.6 2.7 7.3 8.3 10l126.5 63.3c11 5.6 28.9 5.6 39.9 0L855 842.1c5.5-2.7 8.2-6.3 8.2-9.9z" fill="url(#SVGID_7_)"/><linearGradient id="SVGID_8_" gradientUnits="userSpaceOnUse" x1="708.5" y1="972.073" x2="708.5" y2="667.22" gradientTransform="matrix(1 0 0 -1 0 1572)"><stop offset="0" stop-color="#333257" stop-opacity="0"/><stop offset=".75" stop-color="#333257"/><stop offset="1" stop-color="#333257"/></linearGradient><path fill="url(#SVGID_8_)" d="M553.8 594.1h309.5v315.2H553.8z"/><path class="st11" d="M688.5 520.8c11-5.5 28.9-5.5 39.9 0L855 584.1c11 5.5 11 14.5 0 20l-126.5 63.2c-11 5.5-28.9 5.5-39.9 0L562 604c-11-5.5-11-14.5 0-20l126.5-63.2z"/><linearGradient id="SVGID_9_" gradientUnits="userSpaceOnUse" x1="603.753" y1="470.49" x2="375.525" y2="474.087" gradientTransform="matrix(1 0 0 -1 0 1334)"><stop offset="0" stop-color="#38345a"/><stop offset=".3" stop-color="#3b345d"/><stop offset=".5" stop-color="#3f355e"/><stop offset=".7" stop-color="#3c345c"/><stop offset="1" stop-color="#38345a"/></linearGradient><path d="M606.1 922.7v-178H374.8v178c0 2.7 2 5.4 6.2 7.5l94.6 47.3c8.2 4.2 21.6 4.2 29.8 0l94.6-47.3c4.1-2.1 6.1-4.8 6.1-7.5z" fill="url(#SVGID_9_)"/><linearGradient id="SVGID_10_" gradientUnits="userSpaceOnUse" x1="490.471" y1="824.054" x2="490.471" y2="594.837" gradientTransform="matrix(1 0 0 -1 0 1572)"><stop offset="0" stop-color="#333257" stop-opacity="0"/><stop offset=".75" stop-color="#333257"/><stop offset="1" stop-color="#333257"/></linearGradient><path fill="url(#SVGID_10_)" d="M374.8 743.5h231.3v237H374.8z"/><path class="st11" d="M505.4 690c-8.2-4.1-21.6-4.1-29.9 0L381 737.3c-8.2 4.1-8.2 10.8 0 14.9l94.5 47.3c8.2 4.1 21.6 4.1 29.9 0l94.5-47.3c8.2-4.1 8.2-10.8 0-14.9L505.4 690z"/></svg>