<svg width="1384" height="1334" fill="none" xmlns="http://www.w3.org/2000/svg"><g opacity=".3"><mask id="a" maskUnits="userSpaceOnUse" x="998" y="601" width="327" height="333"><path d="M1324.47 852.089V601.443H998.701v250.646c0 3.766 2.879 7.631 8.719 10.505l133.21 66.601c11.59 5.848 30.42 5.848 42.02 0l133.2-66.601c5.75-2.874 8.62-6.64 8.62-10.505z" fill="url(#paint0_linear)"/></mask><g mask="url(#a)"><path d="M1324.47 852.089V601.443H998.701v250.646c0 3.766 2.879 7.631 8.719 10.505l133.21 66.601c11.59 5.848 30.42 5.848 42.02 0l133.2-66.601c5.75-2.874 8.62-6.64 8.62-10.505z" fill="url(#paint1_linear)"/><path d="M1324.47 852.089V601.443H998.701v250.646c0 3.766 2.879 7.631 8.719 10.505l133.21 66.601c11.59 5.848 30.42 5.848 42.02 0l133.2-66.601c5.75-2.874 8.62-6.64 8.62-10.505z" fill="url(#paint2_linear)"/></g></g><path d="M1140.56 524.354c11.61-5.805 30.44-5.805 42.05 0l133.15 66.577c11.62 5.805 11.62 15.218 0 21.024l-133.15 66.576c-11.61 5.806-30.44 5.806-42.05 0l-133.15-66.576c-11.611-5.806-11.611-15.219 0-21.024l133.15-66.577z" fill="#4F3B87"/><g opacity=".3"><g opacity=".3"><mask id="b" maskUnits="userSpaceOnUse" x="1235" y="523" width="149" height="153"><path d="M1384 637.889V523.25h-149v114.639c0 1.723 1.31 3.491 3.99 4.805l60.92 30.462c5.31 2.675 13.92 2.675 19.22 0l60.93-30.462c2.63-1.314 3.94-3.037 3.94-4.805z" fill="url(#paint3_linear)"/></mask><g mask="url(#b)"><path d="M1384 637.889V523.25h-149v114.639c0 1.723 1.31 3.491 3.99 4.805l60.92 30.462c5.31 2.675 13.92 2.675 19.22 0l60.93-30.462c2.63-1.314 3.94-3.037 3.94-4.805z" fill="url(#paint4_linear)"/><path d="M1384 637.889V523.25h-149v114.639c0 1.723 1.31 3.491 3.99 4.805l60.92 30.462c5.31 2.675 13.92 2.675 19.22 0l60.93-30.462c2.63-1.314 3.94-3.037 3.94-4.805z" fill="url(#paint5_linear)"/></g></g><path d="M1299.88 487.992c5.31-2.656 13.93-2.656 19.24 0l60.9 30.45c5.31 2.655 5.31 6.961 0 9.616l-60.9 30.45c-5.31 2.656-13.93 2.656-19.24 0l-60.9-30.45c-5.31-2.655-5.31-6.961 0-9.616l60.9-30.45z" fill="#4F3B87"/></g><g opacity=".3"><mask id="c" maskUnits="userSpaceOnUse" x="806" y="742" width="250" height="255"><path d="M1055.74 934.345v-191.81H806.437v191.81c0 2.882 2.199 5.84 6.674 8.04l101.935 50.967c8.874 4.475 23.284 4.475 32.158 0l101.936-50.967c4.4-2.2 6.6-5.082 6.6-8.04z" fill="url(#paint6_linear)"/></mask><g mask="url(#c)"><path d="M1055.74 934.345v-191.81H806.437v191.81c0 2.882 2.199 5.84 6.674 8.04l101.935 50.967c8.874 4.475 23.284 4.475 32.158 0l101.936-50.967c4.4-2.2 6.6-5.082 6.6-8.04z" fill="url(#paint7_linear)"/><path d="M1055.74 934.345v-191.81H806.437v191.81c0 2.882 2.199 5.84 6.674 8.04l101.935 50.967c8.874 4.475 23.284 4.475 32.158 0l101.936-50.967c4.4-2.2 6.6-5.082 6.6-8.04z" fill="url(#paint8_linear)"/></g></g><path d="M914.998 683.891c8.886-4.443 23.292-4.443 32.178 0l101.894 50.948c8.89 4.443 8.89 11.646 0 16.089l-101.894 50.949c-8.886 4.442-23.292 4.442-32.178 0l-101.897-50.949c-8.885-4.443-8.885-11.646 0-16.089l101.897-50.948z" fill="#4F3B87"/><g opacity=".3"><mask id="d" maskUnits="userSpaceOnUse" x="1071" y="825" width="102" height="104"><path d="M1172.28 903.15v-77.321h-100.5v77.321c0 1.162.89 2.354 2.69 3.241l41.1 20.546c3.57 1.804 9.38 1.804 12.96 0l41.09-20.546c1.77-.887 2.66-2.048 2.66-3.241z" fill="url(#paint9_linear)"/></mask><g mask="url(#d)"><path d="M1172.28 903.15v-77.321h-100.5v77.321c0 1.162.89 2.354 2.69 3.241l41.1 20.546c3.57 1.804 9.38 1.804 12.96 0l41.09-20.546c1.77-.887 2.66-2.048 2.66-3.241z" fill="url(#paint10_linear)"/><path d="M1172.28 903.15v-77.321h-100.5v77.321c0 1.162.89 2.354 2.69 3.241l41.1 20.546c3.57 1.804 9.38 1.804 12.96 0l41.09-20.546c1.77-.887 2.66-2.048 2.66-3.241z" fill="url(#paint11_linear)"/></g></g><path d="M1115.55 802.048c3.58-1.791 9.39-1.791 12.97 0l41.07 20.538c3.59 1.791 3.59 4.695 0 6.486l-41.07 20.538c-3.58 1.791-9.39 1.791-12.97 0l-41.08-20.538c-3.58-1.791-3.58-4.695 0-6.486l41.08-20.538z" fill="#4F3B87"/><g opacity=".3"><mask id="e" maskUnits="userSpaceOnUse" x="627" y="1020" width="132" height="135"><path d="M758.994 1121.36V1020.1H627.387v101.26c0 1.52 1.161 3.08 3.524 4.24l53.811 26.91c4.685 2.36 12.292 2.36 16.977 0l53.812-26.91c2.322-1.16 3.483-2.68 3.483-4.24z" fill="url(#paint12_linear)"/></mask><g mask="url(#e)"><path d="M758.994 1121.36V1020.1H627.387v101.26c0 1.52 1.161 3.08 3.524 4.24l53.811 26.91c4.685 2.36 12.292 2.36 16.977 0l53.812-26.91c2.322-1.16 3.483-2.68 3.483-4.24z" fill="url(#paint13_linear)"/><path d="M758.994 1121.36V1020.1H627.387v101.26c0 1.52 1.161 3.08 3.524 4.24l53.811 26.91c4.685 2.36 12.292 2.36 16.977 0l53.812-26.91c2.322-1.16 3.483-2.68 3.483-4.24z" fill="url(#paint14_linear)"/></g></g><path d="M684.697 988.957c4.691-2.345 12.296-2.345 16.987 0l53.792 26.893c4.691 2.35 4.691 6.15 0 8.5l-53.792 26.89c-4.691 2.35-12.296 2.35-16.987 0l-53.792-26.89c-4.69-2.35-4.69-6.15 0-8.5l53.792-26.893z" fill="#4F3B87"/><g opacity=".3"><mask id="f" maskUnits="userSpaceOnUse" x="863" y="1001" width="327" height="333"><path d="M1189.08 1252.09v-250.65H863.309v250.65c0 3.76 2.874 7.63 8.722 10.5l133.199 66.61c11.6 5.84 30.43 5.84 42.03 0l133.2-66.61c5.75-2.87 8.62-6.64 8.62-10.5z" fill="url(#paint15_linear)"/></mask><g mask="url(#f)"><path d="M1189.08 1252.09v-250.65H863.309v250.65c0 3.76 2.874 7.63 8.722 10.5l133.199 66.61c11.6 5.84 30.43 5.84 42.03 0l133.2-66.61c5.75-2.87 8.62-6.64 8.62-10.5z" fill="url(#paint16_linear)"/><path d="M1189.08 1252.09v-250.65H863.309v250.65c0 3.76 2.874 7.63 8.722 10.5l133.199 66.61c11.6 5.84 30.43 5.84 42.03 0l133.2-66.61c5.75-2.87 8.62-6.64 8.62-10.5z" fill="url(#paint17_linear)"/></g></g><path d="M1005.17 924.354c11.61-5.805 30.44-5.805 42.05 0l133.15 66.577c11.61 5.805 11.61 15.219 0 21.019l-133.15 66.58c-11.61 5.81-30.44 5.81-42.05 0l-133.152-66.58c-11.612-5.8-11.612-15.214 0-21.019l133.152-66.577z" fill="#4F3B87"/><defs><linearGradient id="paint0_linear" x1="955.571" y1="548.961" x2="945.106" y2="876.911" gradientUnits="userSpaceOnUse"><stop stop-color="#D857BC"/><stop offset="1" stop-color="#D857BC" stop-opacity="0"/></linearGradient><linearGradient id="paint1_linear" x1="1324.47" y1="556.966" x2="1003.03" y2="551.899" gradientUnits="userSpaceOnUse"><stop stop-color="#D857BC" stop-opacity=".15"/><stop offset=".365" stop-color="#D857BC" stop-opacity=".4"/><stop offset=".479" stop-color="#D857BC" stop-opacity=".5"/><stop offset=".599" stop-color="#D857BC" stop-opacity=".4"/><stop offset="1" stop-color="#D857BC" stop-opacity=".15"/></linearGradient><linearGradient id="paint2_linear" x1="1324.47" y1="556.966" x2="1003.03" y2="551.899" gradientUnits="userSpaceOnUse"><stop stop-color="#D857BC" stop-opacity=".15"/><stop offset=".365" stop-color="#D857BC" stop-opacity=".4"/><stop offset=".479" stop-color="#D857BC" stop-opacity=".5"/><stop offset=".599" stop-color="#D857BC" stop-opacity=".4"/><stop offset="1" stop-color="#D857BC" stop-opacity=".15"/></linearGradient><linearGradient id="paint3_linear" x1="1215.27" y1="499.246" x2="1210.49" y2="649.243" gradientUnits="userSpaceOnUse"><stop stop-color="#D857BC"/><stop offset="1" stop-color="#D857BC" stop-opacity="0"/></linearGradient><linearGradient id="paint4_linear" x1="1384" y1="502.907" x2="1236.98" y2="500.59" gradientUnits="userSpaceOnUse"><stop stop-color="#D857BC" stop-opacity=".15"/><stop offset=".365" stop-color="#D857BC" stop-opacity=".4"/><stop offset=".479" stop-color="#D857BC" stop-opacity=".5"/><stop offset=".599" stop-color="#D857BC" stop-opacity=".4"/><stop offset="1" stop-color="#D857BC" stop-opacity=".15"/></linearGradient><linearGradient id="paint5_linear" x1="1384" y1="502.907" x2="1236.98" y2="500.59" gradientUnits="userSpaceOnUse"><stop stop-color="#D857BC" stop-opacity=".15"/><stop offset=".365" stop-color="#D857BC" stop-opacity=".4"/><stop offset=".479" stop-color="#D857BC" stop-opacity=".5"/><stop offset=".599" stop-color="#D857BC" stop-opacity=".4"/><stop offset="1" stop-color="#D857BC" stop-opacity=".15"/></linearGradient><linearGradient id="paint6_linear" x1="773.431" y1="702.373" x2="765.422" y2="953.341" gradientUnits="userSpaceOnUse"><stop stop-color="#D857BC"/><stop offset="1" stop-color="#D857BC" stop-opacity="0"/></linearGradient><linearGradient id="paint7_linear" x1="1055.74" y1="708.499" x2="809.751" y2="704.622" gradientUnits="userSpaceOnUse"><stop stop-color="#D857BC" stop-opacity=".15"/><stop offset=".365" stop-color="#D857BC" stop-opacity=".4"/><stop offset=".479" stop-color="#D857BC" stop-opacity=".5"/><stop offset=".599" stop-color="#D857BC" stop-opacity=".4"/><stop offset="1" stop-color="#D857BC" stop-opacity=".15"/></linearGradient><linearGradient id="paint8_linear" x1="1055.74" y1="708.499" x2="809.751" y2="704.622" gradientUnits="userSpaceOnUse"><stop stop-color="#D857BC" stop-opacity=".15"/><stop offset=".365" stop-color="#D857BC" stop-opacity=".4"/><stop offset=".479" stop-color="#D857BC" stop-opacity=".5"/><stop offset=".599" stop-color="#D857BC" stop-opacity=".4"/><stop offset="1" stop-color="#D857BC" stop-opacity=".15"/></linearGradient><linearGradient id="paint9_linear" x1="1058.48" y1="809.639" x2="1055.25" y2="910.808" gradientUnits="userSpaceOnUse"><stop stop-color="#D857BC"/><stop offset="1" stop-color="#D857BC" stop-opacity="0"/></linearGradient><linearGradient id="paint10_linear" x1="1172.28" y1="812.108" x2="1073.12" y2="810.545" gradientUnits="userSpaceOnUse"><stop stop-color="#D857BC" stop-opacity=".15"/><stop offset=".365" stop-color="#D857BC" stop-opacity=".4"/><stop offset=".479" stop-color="#D857BC" stop-opacity=".5"/><stop offset=".599" stop-color="#D857BC" stop-opacity=".4"/><stop offset="1" stop-color="#D857BC" stop-opacity=".15"/></linearGradient><linearGradient id="paint11_linear" x1="1172.28" y1="812.108" x2="1073.12" y2="810.545" gradientUnits="userSpaceOnUse"><stop stop-color="#D857BC" stop-opacity=".15"/><stop offset=".365" stop-color="#D857BC" stop-opacity=".4"/><stop offset=".479" stop-color="#D857BC" stop-opacity=".5"/><stop offset=".599" stop-color="#D857BC" stop-opacity=".4"/><stop offset="1" stop-color="#D857BC" stop-opacity=".15"/></linearGradient><linearGradient id="paint12_linear" x1="609.963" y1="998.898" x2="605.735" y2="1131.39" gradientUnits="userSpaceOnUse"><stop stop-color="#D857BC"/><stop offset="1" stop-color="#D857BC" stop-opacity="0"/></linearGradient><linearGradient id="paint13_linear" x1="758.994" y1="1002.13" x2="629.137" y2="1000.08" gradientUnits="userSpaceOnUse"><stop stop-color="#D857BC" stop-opacity=".15"/><stop offset=".365" stop-color="#D857BC" stop-opacity=".4"/><stop offset=".479" stop-color="#D857BC" stop-opacity=".5"/><stop offset=".599" stop-color="#D857BC" stop-opacity=".4"/><stop offset="1" stop-color="#D857BC" stop-opacity=".15"/></linearGradient><linearGradient id="paint14_linear" x1="758.994" y1="1002.13" x2="629.137" y2="1000.08" gradientUnits="userSpaceOnUse"><stop stop-color="#D857BC" stop-opacity=".15"/><stop offset=".365" stop-color="#D857BC" stop-opacity=".4"/><stop offset=".479" stop-color="#D857BC" stop-opacity=".5"/><stop offset=".599" stop-color="#D857BC" stop-opacity=".4"/><stop offset="1" stop-color="#D857BC" stop-opacity=".15"/></linearGradient><linearGradient id="paint15_linear" x1="820.179" y1="948.961" x2="809.714" y2="1276.91" gradientUnits="userSpaceOnUse"><stop stop-color="#D857BC"/><stop offset="1" stop-color="#D857BC" stop-opacity="0"/></linearGradient><linearGradient id="paint16_linear" x1="1189.08" y1="956.966" x2="867.64" y2="951.899" gradientUnits="userSpaceOnUse"><stop stop-color="#D857BC" stop-opacity=".15"/><stop offset=".365" stop-color="#D857BC" stop-opacity=".4"/><stop offset=".479" stop-color="#D857BC" stop-opacity=".5"/><stop offset=".599" stop-color="#D857BC" stop-opacity=".4"/><stop offset="1" stop-color="#D857BC" stop-opacity=".15"/></linearGradient><linearGradient id="paint17_linear" x1="1189.08" y1="956.966" x2="867.64" y2="951.899" gradientUnits="userSpaceOnUse"><stop stop-color="#D857BC" stop-opacity=".15"/><stop offset=".365" stop-color="#D857BC" stop-opacity=".4"/><stop offset=".479" stop-color="#D857BC" stop-opacity=".5"/><stop offset=".599" stop-color="#D857BC" stop-opacity=".4"/><stop offset="1" stop-color="#D857BC" stop-opacity=".15"/></linearGradient></defs></svg>