<svg version="1.1" id="Layer_1" xmlns="http://www.w3.org/2000/svg" x="0" y="0" viewBox="0 0 1384 1334" xml:space="preserve"><style>.st5{fill:#4f3b87}</style><linearGradient id="SVGID_1_" gradientUnits="userSpaceOnUse" x1="1382.474" y1="734.229" x2="1235.453" y2="736.546" gradientTransform="matrix(1 0 0 -1 0 1334)"><stop offset="0" stop-color="#38345a"/><stop offset=".3" stop-color="#3b345d"/><stop offset=".5" stop-color="#3f355e"/><stop offset=".7" stop-color="#3c345c"/><stop offset="1" stop-color="#38345a"/></linearGradient><path d="M1384 637.9V523.3h-149v114.6c0 1.7 1.3 3.5 4 4.8l60.9 30.5c5.3 2.7 13.9 2.7 19.2 0l60.9-30.5c2.7-1.3 4-3 4-4.8z" fill="url(#SVGID_1_)"/><linearGradient id="SVGID_2_" gradientUnits="userSpaceOnUse" x1="1309.5" y1="1046.018" x2="1309.5" y2="907.001" gradientTransform="matrix(1 0 0 -1 0 1572)"><stop offset="0" stop-color="#333257" stop-opacity="0"/><stop offset=".75" stop-color="#333257"/><stop offset="1" stop-color="#333257"/></linearGradient><path fill="url(#SVGID_2_)" d="M1235 523.3h149v143.8h-149z"/><path d="M1299.9 488c5.3-2.7 13.9-2.7 19.2 0l60.9 30.5c5.3 2.7 5.3 7 0 9.6l-60.9 30.5c-5.3 2.7-13.9 2.7-19.2 0l-60.9-30.5c-5.3-2.7-5.3-7 0-9.6l60.9-30.5z" fill="#3c3565"/><linearGradient id="SVGID_3_" gradientUnits="userSpaceOnUse" x1="1321.132" y1="565.254" x2="999.692" y2="570.321" gradientTransform="matrix(1 0 0 -1 0 1334)"><stop offset="0" stop-color="#38335a"/><stop offset=".3" stop-color="#42355f"/><stop offset=".5" stop-color="#463662"/><stop offset=".7" stop-color="#42365f"/><stop offset="1" stop-color="#38335a"/></linearGradient><path d="M1324.5 852.1V601.4H998.7V852c0 3.8 2.9 7.6 8.7 10.5l133.2 66.6c11.6 5.8 30.4 5.8 42 0l133.2-66.6c5.8-2.8 8.7-6.5 8.7-10.4z" fill="url(#SVGID_3_)"/><linearGradient id="SVGID_4_" gradientUnits="userSpaceOnUse" x1="1161.586" y1="964.244" x2="1161.586" y2="643.042" gradientTransform="matrix(1 0 0 -1 0 1572)"><stop offset="0" stop-color="#333257" stop-opacity="0"/><stop offset=".75" stop-color="#333257"/><stop offset="1" stop-color="#333257"/></linearGradient><path fill="url(#SVGID_4_)" d="M998.7 601.4h325.8v332.1H998.7z"/><path class="st5" d="M1140.6 524.4c11.6-5.8 30.4-5.8 42.1 0l133.2 66.6c11.6 5.8 11.6 15.2 0 21l-133.2 66.6c-11.6 5.8-30.4 5.8-42.1 0L1007.4 612c-11.6-5.8-11.6-15.2 0-21l133.2-66.6z"/><linearGradient id="SVGID_5_" gradientUnits="userSpaceOnUse" x1="1053.186" y1="463.434" x2="807.197" y2="467.311" gradientTransform="matrix(1 0 0 -1 0 1334)"><stop offset="0" stop-color="#38335a"/><stop offset=".3" stop-color="#42355f"/><stop offset=".5" stop-color="#463662"/><stop offset=".7" stop-color="#42365f"/><stop offset="1" stop-color="#38335a"/></linearGradient><path d="M1055.7 934.3V742.5H806.4v191.8c0 2.9 2.2 5.8 6.7 8l101.9 51c8.9 4.5 23.3 4.5 32.2 0l101.9-51c4.4-2.1 6.6-5 6.6-8z" fill="url(#SVGID_5_)"/><linearGradient id="SVGID_6_" gradientUnits="userSpaceOnUse" x1="931.088" y1="824.253" x2="931.088" y2="576.841" gradientTransform="matrix(1 0 0 -1 0 1572)"><stop offset="0" stop-color="#333257" stop-opacity="0"/><stop offset=".75" stop-color="#333257"/><stop offset="1" stop-color="#333257"/></linearGradient><path fill="url(#SVGID_6_)" d="M806.4 742.9h249.3v255.8H806.4z"/><path class="st5" d="M915 683.9c8.9-4.4 23.3-4.4 32.2 0l101.9 50.9c8.9 4.4 8.9 11.6 0 16.1l-101.9 50.9c-8.9 4.4-23.3 4.4-32.2 0l-101.9-50.9c-8.9-4.4-8.9-11.6 0-16.1L915 683.9z"/><linearGradient id="SVGID_7_" gradientUnits="userSpaceOnUse" x1="1171.25" y1="456.56" x2="1072.09" y2="458.123" gradientTransform="matrix(1 0 0 -1 0 1334)"><stop offset="0" stop-color="#38345a"/><stop offset=".3" stop-color="#3b345d"/><stop offset=".5" stop-color="#3f355e"/><stop offset=".7" stop-color="#3c345c"/><stop offset="1" stop-color="#38345a"/></linearGradient><path d="M1172.3 903.2v-77.3h-100.5v77.3c0 1.2.9 2.4 2.7 3.2l41.1 20.5c3.6 1.8 9.4 1.8 13 0l41.1-20.5c1.7-.9 2.6-2.1 2.6-3.2z" fill="url(#SVGID_7_)"/><linearGradient id="SVGID_8_" gradientUnits="userSpaceOnUse" x1="1122.03" y1="744.223" x2="1122.03" y2="645.136" gradientTransform="matrix(1 0 0 -1 0 1572)"><stop offset="0" stop-color="#333257" stop-opacity="0"/><stop offset=".75" stop-color="#333257"/><stop offset="1" stop-color="#333257"/></linearGradient><path fill="url(#SVGID_8_)" d="M1071.8 825.8h100.5v102.5h-100.5z"/><path class="st5" d="M1115.6 802c3.6-1.8 9.4-1.8 13 0l41.1 20.5c3.6 1.8 3.6 4.7 0 6.5l-41.1 20.5c-3.6 1.8-9.4 1.8-13 0l-41.1-20.5c-3.6-1.8-3.6-4.7 0-6.5l41.1-20.5z"/><linearGradient id="SVGID_9_" gradientUnits="userSpaceOnUse" x1="757.643" y1="246.311" x2="627.786" y2="248.361" gradientTransform="matrix(1 0 0 -1 0 1334)"><stop offset="0" stop-color="#38345a"/><stop offset=".3" stop-color="#3b345d"/><stop offset=".5" stop-color="#3f355e"/><stop offset=".7" stop-color="#3c345c"/><stop offset="1" stop-color="#38345a"/></linearGradient><path d="M759 1121.4v-101.3H627.4v101.3c0 1.5 1.2 3.1 3.5 4.2l53.8 26.9c4.7 2.4 12.3 2.4 17 0l53.8-26.9c2.3-1.2 3.5-2.7 3.5-4.2z" fill="url(#SVGID_9_)"/><linearGradient id="SVGID_10_" gradientUnits="userSpaceOnUse" x1="693.191" y1="549.349" x2="693.191" y2="419.588" gradientTransform="matrix(1 0 0 -1 0 1572)"><stop offset="0" stop-color="#333257" stop-opacity="0"/><stop offset=".75" stop-color="#333257"/><stop offset="1" stop-color="#333257"/></linearGradient><path fill="url(#SVGID_10_)" d="M627.4 1020.1H759v134.2H627.4z"/><path class="st5" d="M684.7 989c4.7-2.3 12.3-2.3 17 0l53.8 26.9c4.7 2.3 4.7 6.2 0 8.5l-53.8 26.9c-4.7 2.3-12.3 2.3-17 0l-53.8-26.9c-4.7-2.3-4.7-6.2 0-8.5l53.8-26.9z"/><linearGradient id="SVGID_11_" gradientUnits="userSpaceOnUse" x1="1185.742" y1="165.256" x2="864.302" y2="170.323" gradientTransform="matrix(1 0 0 -1 0 1334)"><stop offset="0" stop-color="#38335a"/><stop offset=".3" stop-color="#42355f"/><stop offset=".5" stop-color="#463662"/><stop offset=".7" stop-color="#42365f"/><stop offset="1" stop-color="#38335a"/></linearGradient><path d="M1189.1 1252.1v-250.7H863.3v250.7c0 3.8 2.9 7.6 8.7 10.5l133.2 66.6c11.6 5.8 30.4 5.8 42 0l133.2-66.6c5.8-2.9 8.7-6.7 8.7-10.5z" fill="url(#SVGID_11_)"/><linearGradient id="SVGID_12_" gradientUnits="userSpaceOnUse" x1="1026.195" y1="564.239" x2="1026.195" y2="242.629" gradientTransform="matrix(1 0 0 -1 0 1572)"><stop offset="0" stop-color="#333257" stop-opacity="0"/><stop offset=".75" stop-color="#333257"/><stop offset="1" stop-color="#333257"/></linearGradient><path fill="url(#SVGID_12_)" d="M863.3 1001.4h325.8V1334H863.3z"/><path class="st5" d="M1005.2 924.4c11.6-5.8 30.4-5.8 42 0l133.2 66.6c11.6 5.8 11.6 15.2 0 21l-133.2 66.6c-11.6 5.8-30.4 5.8-42 0L872 1012c-11.6-5.8-11.6-15.2 0-21l133.2-66.6z"/></svg>