<svg width="122" height="133" viewBox="0 0 122 133" fill="none" xmlns="http://www.w3.org/2000/svg"><path fill-rule="evenodd" clip-rule="evenodd" d="M-4.314 99.49c0 .05 11.731-7.486 17.19-12.108 4.983-4.22 11.527-6.693 18.161-6.865a169.497 169.497 0 0 0 7.43 43.104c.664 2.142 1.416 4.351 3.01 5.975 3.723 3.791 10.217 2.853 15.24.897a54.879 54.879 0 0 0 16.57-10.121c1.65-1.47 3.244-3.066 5.257-4.029 2.014-.963 4.606-1.166 6.405.134 3.03 2.19 7.012 2.651 10.793 2.879 3.782.228 7.714.332 11.09 1.986 3.378 1.655 6.003 5.411 4.896 8.901 1.342.846 2.89-.825 3.376-2.297 1.834-5.559.229-11.787-3.1-16.66-3.328-4.874-8.209-8.57-13.29-11.746-1.983-1.24-4.313-3.337-3.223-5.359 7.443-13.804 8.528-30.65 2.912-45.234-.78-2.028-1.114-5.144 1.09-5.558C110.464 41.332 119.731 32.512 122 21.97c-3.085 4.143-9.36 4.394-14.584 3.564-5.224-.829-10.788-2.29-15.627-.222-3.905 1.67-7.576-2.535-9.975-5.94A61.458 61.458 0 0 0 68.66 5.791C63.64 1.996 57.185-1.17 51.06.565c-8.02 2.27-11.193 11.359-13.173 19.18l-5.798 22.903c-7.733.141-15.487-2.517-21.387-7.333-4.734-3.864-9.613-9.477-15.685-8.249-4.234-2.572-4.012 21.57.669 72.426Z" fill="#fff"/><path fill-rule="evenodd" clip-rule="evenodd" d="M-4.314 99.49c7.25-.464 11.731-7.486 17.19-12.108 4.983-4.22 11.527-6.693 18.161-6.865a169.497 169.497 0 0 0 7.43 43.104c.664 2.142 1.416 4.351 3.01 5.975 3.723 3.791 10.217 2.853 15.24.897a54.879 54.879 0 0 0 16.57-10.121c1.65-1.47 3.244-3.066 5.257-4.029 2.014-.963 4.606-1.166 6.405.134 3.03 2.19 7.012 2.651 10.793 2.879 3.782.228 7.714.332 11.09 1.986 3.378 1.655 6.003 5.411 4.896 8.901 1.342.846 2.89-.825 3.376-2.297 1.834-5.559.229-11.787-3.1-16.66-3.328-4.874-8.209-8.57-13.29-11.746-1.983-1.24-4.313-3.337-3.223-5.359 7.443-13.804 8.528-30.65 2.912-45.234-.78-2.028-1.114-5.144 1.09-5.558C110.464 41.332 119.731 32.512 122 21.97c-3.085 4.143-9.36 4.394-14.584 3.564-5.224-.829-10.788-2.29-15.627-.222-3.905 1.67-7.576-2.535-9.975-5.94A61.458 61.458 0 0 0 68.66 5.791C63.64 1.996 57.185-1.17 51.06.565c-8.02 2.27-11.193 11.359-13.173 19.18l-5.798 22.903c-7.733.141-15.487-2.517-21.387-7.333-4.734-3.864-9.613-9.477-15.685-8.249 6.457 2.612 11.56 7.513 17.246 11.45 5.686 3.937 12.801 7.04 19.556 5.26 1.294 3.485-1.293 7.142-3.991 9.778-2.698 2.635-5.88 5.416-6.095 9.111-.355 6.087 7.357 9.888 8.737 15.837a28.724 28.724 0 0 0-11.904 3.026c-3.9 1.963-7.252 4.783-10.564 7.575L-4.314 99.491Zm98.096-5.671c-1.87 3.701-9.171-2.032-11.707 1.281 9.599 1.704 18.571 6.533 25.106 13.517 4.244 4.534 7.588 10.552 6.409 16.55-1.431-3.507-5.216-5.642-9.011-6.56-3.794-.918-7.766-.886-11.623-1.525-6.787-1.126-13.173-4.395-17.938-9.186.03 2.182 1.422 4.296 3.46 5.252-6.27 6.716-14.056 12.113-22.66 15.707-3.393 1.419-7.44 2.526-10.66.771-2.717-1.481-3.979-4.545-4.94-7.404a126.972 126.972 0 0 1-6.326-31.782c-.44-6.447-.551-13.41-4.598-18.564-1.47-1.872-3.405-3.41-4.61-5.451-1.205-2.04-1.451-4.92.343-6.51 7.005-6.203 9.72-15.635 11.444-24.648 1.723-9.014 2.876-18.425 7.772-26.282 1.838-2.95 4.382-5.746 7.814-6.699C56.722.99 61.592 3.41 65.53 6.145c7.942 5.515 14.635 12.692 19.48 20.887a6.527 6.527 0 0 0-3.684 2.43c1.668.384 3.37-.318 4.982-.88 9.97-3.477 20.978-1.893 31.445-.266-6.391 10.667-20.766 16.209-33.034 12.737-.392 2.033 2.567 2.995 4.705 2.797 2.139-.198 4.931-.363 5.762 1.546 6.68 15.35 6.154 33.456-1.405 48.423Z" fill="#00160A"/><path fill-rule="evenodd" clip-rule="evenodd" d="M57.193 110.961c-.202 1.742-.642 3.619.223 5.161 1.78-1.825 2.126-4.546 1.999-7.046a24.997 24.997 0 0 0-3.85-12.04c-1.454.76-.74 2.86-.034 4.302a17.464 17.464 0 0 1 1.662 9.623Zm15.119-61.214c1.087.277 1.976.29 2.507-.664.772-1.39.7-5.78-.424-6.254-1.123-.474-6.291 1.33-6.291 3.862 0 1.013 3.12 2.778 4.208 3.056ZM59.507 21.896a51.314 51.314 0 0 1-3.65 15.933c-.282.698-.392 1.77.367 1.93 1.55-.889 2.244-2.672 2.75-4.34a56.196 56.196 0 0 0 2.211-11.447c.05-.56.082-1.157-.204-1.647-.287-.49-1.017-.778-1.474-.429Zm-6.347-1.099-1.2 12.93c-.074.786.471 1.963 1.144 1.51a42.474 42.474 0 0 0 2.067-13.731c-.018-1.15-.19-2.482-1.204-3.085-.617.61-.729 1.529-.807 2.376Zm14.568 63.378c-1.116.914-.796 2.766.258 3.745 1.054.978 2.567 1.313 3.998 1.606.747.154 1.595.288 2.216-.14.651-.449.698-6.702.14-7-.56-.296-1.03-.113-1.463 0-.788.206-4.341 1.128-5.15 1.79Zm-17.7 32.648a30.739 30.739 0 0 0 2.02-17.299c-.108-.621-.278-1.302-.819-1.656-.542-.353-1.51-.013-1.417.61.995 6.735.922 14.045-2.882 19.776.355.602 1.305.644 1.902.259.598-.384.923-1.05 1.196-1.69Zm-5.56-39.906c.836.28 1.86-.32 1.985-1.164a1.356 1.356 0 0 0-1.047-.576c-.645.264-1.07.955-1.002 1.625l.064.115Zm36.222 8.795c-.015-.942-.67-2.233-1.548-1.822a29.479 29.479 0 0 1-3.284 11.8c.056.54.801.798 1.322.59.52-.21.845-.706 1.115-1.184a18.591 18.591 0 0 0 2.395-9.384ZM45.181 62.87c.668-.596.557-1.798-.207-2.272-.922.465-.831 2.025.14 2.388l.067-.116Zm.445-4.149c.627-.416.085-1.594-.656-1.425a1.093 1.093 0 0 0-.626.963c.184.46.823.686 1.271.45l.011.012Zm3.406 14.082c-.627.414-.084 1.594.655 1.424a1.09 1.09 0 0 0 .627-.963c-.183-.46-.823-.686-1.272-.45l-.01-.011Zm-1.711 6.953c-.727.037-1.313-.835-.982-1.46.33-.624 1.407-.677 1.803-.09.395.59-.094 1.514-.82 1.55Zm.451-17.752c-.463-.596-.013-1.608.753-1.697.768-.088 1.453.793 1.15 1.478-.305.683-1.44.814-1.903.219Zm30.744-11.048c2.63-3.5 1.424-8.345.11-12.477-.205-.647-.822-1.456-1.408-1.083-.349.223-.338.711-.286 1.111l1.584 12.449Z" fill="#00160A"/><path fill-rule="evenodd" clip-rule="evenodd" d="M47.773 66.608c-4.064-1.26-6.7-5.786-5.696-9.784.442-1.758 1.434-3.765.3-5.207-2.198 2.528-3.052 6.086-2.23 9.287.821 3.2 3.299 5.964 6.466 7.214-3.587 2.48-6.054 6.409-6.666 10.62-.093.628-.119 1.342.318 1.817.436.477 1.478.351 1.524-.283.252-3.475 1.836-6.846 4.382-9.321 1.382-1.343 3.604-2.448 5.22-1.373a20.749 20.749 0 0 0 4.88 2.386c.64.215 1.408.382 1.947-.014.4-.294.536-.803.648-1.274.34-1.43.682-2.91.399-4.35-.283-1.441-1.366-2.845-2.873-3.058-3.183-.45-5.556 4.29-8.62 3.34Z" fill="#00160A"/></svg>