<svg width="129" height="148" viewBox="0 0 129 148" fill="none" xmlns="http://www.w3.org/2000/svg"><g opacity=".9" clip-path="url(#clip0_405_6537)" fill="#A9BFF8" fill-opacity=".6"><path d="M35.115 111.71c-.587.798-.59 1.965-.02 3.18.273.571.895 1.352 1.384 1.728.813.629 1.803.927 2.572.775.377-.071.406-.087.785-.378.384-.293.4-.311.574-.669.543-1.095.21-2.647-.834-3.885-.994-1.175-2.186-1.721-3.277-1.487-.33.07-.43.117-.718.32a2.28 2.28 0 0 0-.466.416Zm5.213-3.995c-.214.276-.35.599-.422.991-.257 1.414.709 3.283 2.173 4.199.756.471 1.48.637 2.177.499.385-.076.41-.09.79-.381.379-.29.402-.314.568-.66.355-.715.311-1.798-.11-2.763-.228-.521-.822-1.312-1.282-1.704-1.225-1.051-2.608-1.261-3.54-.528-.123.094-.281.25-.354.347Zm-6.793 11.365c-.33.579-.346 1.222-.031 1.956.537 1.271 2.128 2.485 3.422 2.616 1.588.153 2.47-1.138 1.836-2.683-.267-.641-.966-1.469-1.623-1.917-.846-.58-1.878-.84-2.627-.661-.31.072-.838.447-.977.689Zm14.285-10.935c-.19.306-.287.627-.336 1.149-.098 1.044.314 2.228 1.106 3.169.572.677 1.133 1.009 1.809 1.058.443.039.782-.074 1.147-.383.249-.208.316-.289.467-.594.197-.405.284-1.009.22-1.539-.043-.38-.252-1.076-.444-1.496-.202-.441-.856-1.287-1.188-1.535-.583-.445-1.249-.643-1.774-.535-.35.067-.808.394-1.007.706Zm-4.806 8.532a4.569 4.569 0 0 0-1.102 1.807c-.12.375-.984 5.674-1 6.123-.017.402.109.944.312 1.355.605 1.237 2.114 1.988 3.457 1.721.94-.19 1.637-.746 2.767-2.238.826-1.088 1.276-1.533 2.1-2.076.52-.346.81-.492 2.002-1.009 1.043-.451 1.359-.616 1.74-.914 1.565-1.224 1.424-3.843-.27-4.984-.415-.279-.686-.385-1.23-.47-.867-.138-5.51-.595-5.87-.579-1.043.042-2.203.548-2.906 1.264Z"/></g><g opacity=".9" clip-path="url(#clip1_405_6537)" fill="#A9BFF8" fill-opacity=".6"><path d="M103.312 124.846c-.646.752-.739 1.915-.261 3.17.228.59.789 1.416 1.248 1.828.762.689 1.727 1.061 2.506.968.381-.042.411-.056.812-.317.404-.264.421-.281.622-.625.624-1.05.41-2.623-.536-3.937-.903-1.246-2.05-1.881-3.155-1.731-.335.045-.438.084-.74.265a2.279 2.279 0 0 0-.496.379Zm5.5-3.587a2.237 2.237 0 0 0-.496.956c-.363 1.39.458 3.328 1.848 4.352.719.527 1.428.748 2.133.662.39-.046.416-.058.816-.319.401-.261.426-.283.618-.615.408-.687.446-1.769.1-2.763-.188-.538-.721-1.372-1.149-1.797-1.142-1.141-2.505-1.456-3.491-.796a2.267 2.267 0 0 0-.379.32Zm-7.636 10.817c-.373.551-.437 1.191-.179 1.947.439 1.308 1.934 2.639 3.213 2.868 1.572.273 2.55-.947 2.035-2.536-.217-.658-.852-1.537-1.473-2.034-.799-.642-1.809-.98-2.569-.859-.315.049-.87.383-1.027.614Zm15.074-9.82c-.213.29-.333.604-.422 1.12-.177 1.033.144 2.246.862 3.244.519.719 1.054 1.092 1.724 1.192.438.072.785-.014 1.173-.295.263-.188.337-.264.51-.556.227-.389.36-.985.336-1.518-.014-.382-.169-1.092-.329-1.526-.168-.455-.756-1.348-1.068-1.62-.547-.488-1.196-.736-1.729-.669-.354.041-.835.332-1.057.628Zm-5.44 8.142a4.576 4.576 0 0 0-1.235 1.718c-.148.366-1.413 5.583-1.463 6.03-.047.4.038.949.209 1.375.51 1.279 1.957 2.143 3.316 1.979.953-.118 1.689-.621 2.929-2.023.906-1.021 1.389-1.431 2.251-1.91.546-.305.846-.428 2.074-.854 1.073-.37 1.401-.511 1.803-.779 1.655-1.101 1.712-3.725.109-4.99-.392-.31-.654-.436-1.189-.562-.855-.204-5.451-1.012-5.811-1.023-1.042-.037-2.237.379-2.993 1.039Z"/></g><g opacity=".9" clip-path="url(#clip2_405_6537)" fill="#A9BFF8" fill-opacity=".6"><path d="M66.604 39.064c-.793.595-1.132 1.71-.935 3.04.096.625.467 1.552.827 2.052.597.837 1.46 1.408 2.24 1.483.38.042.413.034.86-.135.452-.17.472-.183.742-.476.836-.892.964-2.474.322-3.96-.615-1.412-1.599-2.277-2.71-2.368-.337-.028-.446-.012-.78.1a2.238 2.238 0 0 0-.566.264Zm6.142-2.324a2.229 2.229 0 0 0-.69.827c-.653 1.28-.266 3.349.871 4.647.59.67 1.234 1.037 1.942 1.105.39.038.418.032.865-.137.448-.169.477-.185.735-.468.547-.583.816-1.632.691-2.677-.068-.566-.41-1.494-.737-2.002-.87-1.36-2.134-1.959-3.238-1.526a2.26 2.26 0 0 0-.44.231Zm-9.779 8.926c-.483.459-.682 1.07-.593 1.864.148 1.372 1.323 2.993 2.523 3.49 1.477.605 2.694-.377 2.531-2.04-.07-.69-.501-1.684-1-2.302-.644-.799-1.557-1.346-2.326-1.39-.318-.02-.932.187-1.135.379Zm16.83-6.356c-.27.238-.455.518-.653 1.003-.394.972-.34 2.224.146 3.353.353.814.795 1.293 1.428 1.535.413.165.77.155 1.209-.036.297-.128.386-.186.618-.434.305-.332.562-.885.654-1.41.068-.377.069-1.104.006-1.561-.067-.481-.45-1.48-.696-1.812-.43-.594-1.01-.976-1.545-1.025-.354-.036-.887.146-1.167.387Zm-7.06 6.785a4.577 4.577 0 0 0-1.576 1.413c-.222.325-2.577 5.15-2.722 5.576-.131.38-.167.935-.091 1.387.223 1.36 1.452 2.513 2.814 2.644.956.09 1.783-.243 3.295-1.346 1.104-.804 1.663-1.1 2.609-1.383.598-.181.918-.237 2.208-.39 1.128-.13 1.479-.198 1.928-.373 1.853-.72 2.472-3.27 1.178-4.85-.317-.387-.545-.566-1.041-.805-.791-.382-5.107-2.158-5.456-2.246-1.01-.26-2.266-.11-3.146.373Z"/></g><g opacity=".9" clip-path="url(#clip3_405_6537)" fill="#A9BFF8" fill-opacity=".6"><path d="M8.8 7.727c-.814.565-1.195 1.667-1.048 3.002.073.629.409 1.57.75 2.083.565.858 1.405 1.461 2.182 1.566.38.055.412.05.866-.103.457-.154.478-.166.759-.448.868-.86 1.055-2.437.47-3.946-.562-1.433-1.513-2.335-2.62-2.467-.335-.041-.445-.029-.783.07-.238.07-.463.165-.576.243Zm6.225-2.092a2.229 2.229 0 0 0-.72.8c-.7 1.255-.392 3.337.697 4.677.563.691 1.194 1.082 1.898 1.177.389.052.417.048.87-.104.453-.153.483-.168.752-.441.568-.562.877-1.6.791-2.65-.047-.567-.353-1.508-.662-2.027-.818-1.391-2.059-2.038-3.179-1.647a2.24 2.24 0 0 0-.447.215ZM4.92 14.189c-.5.44-.723 1.044-.663 1.84.096 1.376 1.21 3.04 2.39 3.582 1.453.66 2.706-.276 2.606-1.943-.045-.692-.438-1.702-.914-2.339-.613-.822-1.505-1.403-2.272-1.477-.317-.031-.938.152-1.148.337Zm17.055-5.722c-.28.227-.474.5-.69.979-.43.955-.424 2.21.02 3.356.323.826.746 1.321 1.37 1.587.406.18.763.183 1.21.009.301-.117.391-.172.633-.411.317-.32.595-.863.706-1.385.082-.374.11-1.1.065-1.56-.049-.482-.394-1.494-.627-1.836-.408-.61-.974-1.013-1.506-1.081-.353-.05-.892.112-1.18.342Zm-7.309 6.516a4.577 4.577 0 0 0-1.628 1.353c-.235.317-2.768 5.05-2.929 5.47-.146.375-.202.928-.143 1.383.172 1.366 1.357 2.566 2.713 2.748.952.125 1.79-.177 3.343-1.223 1.134-.761 1.704-1.037 2.659-1.284.604-.158.926-.202 2.221-.306 1.133-.089 1.485-.143 1.941-.301 1.878-.651 2.593-3.176 1.358-4.803-.302-.398-.523-.586-1.01-.843-.776-.412-5.022-2.348-5.367-2.449-1-.297-2.261-.194-3.158.255Z"/></g><defs><clipPath id="clip0_405_6537"><path fill="#fff" transform="rotate(-37.464 182.47 17.489)" d="M0 0h24v24H0z"/></clipPath><clipPath id="clip1_405_6537"><path fill="#fff" transform="rotate(-33.112 261.293 -96.229)" d="M0 0h24v24H0z"/></clipPath><clipPath id="clip2_405_6537"><path fill="#fff" transform="rotate(-20.721 137.004 -138.875)" d="M0 0h24v24H0z"/></clipPath><clipPath id="clip3_405_6537"><path fill="#fff" transform="rotate(-18.574 24.041 3.344)" d="M0 0h24v24H0z"/></clipPath></defs></svg>