<svg id="Layer_1" data-name="Layer 1" xmlns="http://www.w3.org/2000/svg" viewBox="0 0 12 12"><path d="M1.720 0.022 C 1.534 0.046,1.277 0.130,1.080 0.231 C 0.518 0.521,0.109 1.098,0.022 1.727 C -0.009 1.945,-0.009 10.055,0.022 10.273 C 0.144 11.153,0.867 11.869,1.743 11.979 C 1.853 11.993,3.287 12.000,6.009 12.000 C 10.452 12.000,10.311 12.003,10.634 11.892 C 11.344 11.649,11.858 11.037,11.971 10.300 C 12.014 10.016,12.014 1.984,11.971 1.700 C 11.837 0.825,11.128 0.130,10.257 0.021 C 10.055 -0.005,1.917 -0.004,1.720 0.022 M6.675 3.661 C 7.512 3.673,8.062 3.689,8.095 3.702 C 8.178 3.733,8.278 3.840,8.300 3.920 C 8.317 3.983,8.348 5.446,8.364 6.950 L 8.370 7.470 8.317 7.560 C 8.257 7.662,8.154 7.728,8.025 7.750 C 7.916 7.767,7.823 7.736,7.745 7.655 C 7.618 7.524,7.620 7.543,7.609 6.385 C 7.603 5.805,7.594 5.246,7.587 5.142 L 7.576 4.954 5.883 6.645 C 4.506 8.020,4.176 8.340,4.113 8.360 C 3.828 8.450,3.547 8.196,3.621 7.915 C 3.641 7.839,3.820 7.653,5.344 6.127 L 7.045 4.424 6.838 4.413 C 6.723 4.406,6.159 4.397,5.583 4.391 C 4.617 4.381,4.530 4.377,4.453 4.343 C 4.340 4.292,4.279 4.221,4.249 4.103 C 4.194 3.890,4.315 3.688,4.527 3.640 C 4.562 3.632,4.752 3.629,4.950 3.633 C 5.148 3.637,5.924 3.650,6.675 3.661 " stroke="none" fill-rule="evenodd" fill="black"></path></svg>