<svg width="10" height="10" viewBox="0 0 10 10" fill="none" xmlns="http://www.w3.org/2000/svg"><path d="M2.100 0.017 C 1.866 0.047,1.709 0.125,1.531 0.300 C 1.219 0.607,1.145 1.046,1.337 1.446 C 1.411 1.599,1.616 1.807,1.767 1.881 C 1.941 1.966,2.032 1.984,2.333 1.993 C 2.636 2.002,6.021 2.050,6.342 2.050 L 6.541 2.050 3.398 5.196 C 1.670 6.926,0.233 8.372,0.205 8.408 C 0.074 8.581,0.013 8.770,0.013 9.000 C 0.013 9.244,0.084 9.445,0.231 9.622 C 0.437 9.868,0.688 9.987,1.000 9.987 C 1.230 9.987,1.419 9.926,1.592 9.795 C 1.628 9.767,3.074 8.330,4.804 6.602 L 7.950 3.459 7.950 3.667 C 7.950 4.001,7.998 7.382,8.007 7.675 C 8.016 7.967,8.035 8.061,8.119 8.233 C 8.193 8.384,8.401 8.589,8.554 8.663 C 8.766 8.765,9.010 8.793,9.232 8.741 C 9.564 8.663,9.870 8.365,9.960 8.033 C 9.996 7.901,9.997 8.067,9.941 4.050 C 9.916 2.192,9.893 0.983,9.882 0.917 C 9.834 0.625,9.607 0.330,9.331 0.201 C 9.254 0.165,9.143 0.128,9.083 0.118 C 9.017 0.107,7.800 0.084,5.908 0.059 C 4.222 0.036,2.695 0.015,2.517 0.012 C 2.338 0.008,2.150 0.011,2.100 0.017 " stroke="none" fill-rule="evenodd" fill="black"></path></svg>