<svg xmlns="http://www.w3.org/2000/svg" version="1.1" viewBox="0 0 110.0 135.0"><path d="M18.192 29.066 C 17.234 29.326,16.133 29.813,16.133 29.979 C 16.133 30.099,52.728 57.536,53.481 57.981 C 54.295 58.461,55.705 58.461,56.519 57.981 C 57.888 57.173,93.873 30.042,93.779 29.889 C 93.722 29.798,93.204 29.533,92.626 29.299 L 91.575 28.875 55.367 28.840 C 24.524 28.810,19.015 28.844,18.192 29.066 M11.751 35.167 C 11.211 36.176,11.169 38.186,11.222 60.683 L 11.275 83.508 11.702 84.700 C 11.936 85.355,12.382 86.289,12.692 86.776 C 13.232 87.624,13.268 87.646,13.570 87.326 C 13.945 86.929,37.214 54.104,37.270 53.894 C 37.304 53.764,12.222 34.833,12.016 34.833 C 11.968 34.833,11.849 34.984,11.751 35.167 M85.250 44.300 C 78.343 49.491,72.627 53.802,72.548 53.880 C 72.405 54.022,96.112 87.672,96.434 87.784 C 96.695 87.875,97.828 85.991,98.302 84.679 L 98.725 83.508 98.725 59.950 C 98.725 39.451,98.689 36.298,98.450 35.672 C 98.299 35.277,98.092 34.932,97.992 34.907 C 97.891 34.882,92.157 39.109,85.250 44.300 M42.001 58.060 C 41.793 58.343,36.474 65.835,30.180 74.708 C 22.769 85.156,18.797 90.906,18.910 91.025 C 19.120 91.245,88.516 91.382,89.995 91.166 L 90.955 91.025 79.190 74.433 C 72.719 65.308,67.406 57.821,67.385 57.796 C 67.363 57.771,65.743 58.956,63.785 60.430 C 61.827 61.903,59.664 63.381,58.978 63.715 C 56.516 64.910,53.749 64.958,51.261 63.847 C 50.415 63.469,45.394 59.917,42.593 57.714 C 42.447 57.599,42.256 57.711,42.001 58.060 " stroke="none" fill-rule="evenodd" fill="black"></path></svg>