<svg xmlns="http://www.w3.org/2000/svg" viewBox="0 0 640 640"><path d="M296.533 65.631 C 254.277 70.913,216.403 88.748,185.836 117.760 C 149.553 152.198,127.970 202.518,128.009 252.588 C 128.066 327.834,176.864 426.508,267.109 533.864 C 283.810 553.731,298.428 569.842,302.718 573.108 C 314.582 582.142,330.781 580.399,341.922 568.890 C 368.378 541.559,410.500 488.249,436.226 449.539 C 500.773 352.410,523.503 273.356,506.120 206.453 C 482.211 114.431,391.850 53.717,296.533 65.631 M333.333 193.605 C 357.233 198.623,377.377 218.767,382.395 242.667 C 386.954 264.381,380.789 284.875,364.916 300.767 C 355.601 310.093,347.496 314.790,335.364 317.893 C 320.325 321.739,303.980 319.747,289.798 312.339 C 280.196 307.323,267.984 294.704,263.070 284.721 C 250.537 259.254,255.150 231.121,275.135 211.135 C 291.037 195.234,311.596 189.041,333.333 193.605 " stroke="none" fill-rule="evenodd" fill="black"></path></svg>