<svg xmlns="http://www.w3.org/2000/svg" fill="#D32600" xml:space="preserve" height="132.24" width="124.19" xmlns:ns="&amp;#38;ns_ai;" viewBox="0 0 124.189 132.243"><path d="M62.096 8.586a9.422 9.422 0 0 0-9.424 9.426c.001 5.203 4.217 9.424 9.424 9.424 5.202 0 9.422-4.221 9.422-9.424 0-5.208-4.22-9.426-9.422-9.426zm-10.41 21.268c-6.672 0-12.131 5.407-12.131 12.07v29.23c0 2.275 1.791 4.123 4.07 4.123a4.125 4.125 0 0 0 4.127-4.123V44.799h2.102s.048 68.81.048 73.33c0 3.05 2.478 5.53 5.532 5.53a5.53 5.53 0 0 0 5.525-5.53V75.55h2.27v42.58c0 3.05 2.473 5.53 5.531 5.53 3.054 0 5.549-2.48 5.549-5.53V44.8h2.127v26.355a4.128 4.128 0 0 0 4.126 4.123c2.28 0 4.073-1.846 4.073-4.123v-29.23c0-6.663-5.463-12.07-12.129-12.07h-20.82z" ns:extraneous="self"/></svg>