<?xml version="1.0" standalone="no"?>
<!DOCTYPE svg PUBLIC "-//W3C//DTD SVG 1.1//EN" "http://www.w3.org/Graphics/SVG/1.1/DTD/svg11.dtd" >
<svg xmlns="http://www.w3.org/2000/svg">
<metadata>Generated by IcoMoon</metadata>
<defs>
<font id="icomoon" horiz-adv-x="1024">
<font-face units-per-em="1024" ascent="960" descent="-64" />
<missing-glyph horiz-adv-x="1024" />
<glyph unicode="&#x20;" horiz-adv-x="512" d="" />
<glyph unicode="&#xe900;" glyph-name="arrow-wide-down" horiz-adv-x="1152" d="M623.999 832.002c0 26.509-21.49 47.999-47.999 47.999s-47.999-21.49-47.999-47.999h95.998zM542.061 30.062c18.747-18.745 49.136-18.745 67.884 0l305.469 305.472c18.747 18.745 18.747 49.131 0 67.881-18.747 18.746-49.136 18.746-67.884 0l-271.533-271.534-271.536 271.534c-18.745 18.746-49.131 18.746-67.883 0-18.745-18.749-18.745-49.135 0-67.881l305.471-305.472zM528.001 832.002v-768.004h95.998v768.004h-95.998z" />
<glyph unicode="&#xe901;" glyph-name="arrow-wide-up" horiz-adv-x="1152" d="M528.001 63.998c0-26.509 21.49-47.999 47.999-47.999s47.999 21.49 47.999 47.999h-95.998zM609.939 865.938c-18.747 18.745-49.137 18.745-67.883 0l-305.469-305.472c-18.747-18.745-18.747-49.131 0-67.881 18.747-18.746 49.137-18.746 67.883 0l271.532 271.534 271.536-271.534c18.745-18.746 49.131-18.746 67.883 0 18.745 18.749 18.745 49.136 0 67.881l-305.471 305.472zM623.999 63.998v768.003h-95.998v-768.003h95.998z" />
<glyph unicode="&#xe902;" glyph-name="arrow-wide-left" horiz-adv-x="1152" d="M957.639 495.713c26.346 0 47.713-21.364 47.713-47.713s-21.364-47.713-47.713-47.713v95.405zM160.629 414.264c-18.634 18.636-18.634 48.836 0 67.473l303.599 303.598c18.634 18.636 48.83 18.636 67.47 0 18.635-18.636 18.635-48.836 0-67.473l-269.87-269.867 269.87-269.872c18.635-18.634 18.635-48.83 0-67.472-18.638-18.634-48.835-18.634-67.47 0l-303.599 303.599zM957.639 400.287h-763.283v95.405h763.283v-95.405z" />
<glyph unicode="&#xe903;" glyph-name="arrow-wide-right" horiz-adv-x="1152" d="M194.358 495.714c-26.346 0-47.714-21.365-47.714-47.714s21.365-47.714 47.714-47.714v95.406zM991.373 414.262c18.636 18.639 18.636 48.838 0 67.476l-303.602 303.601c-18.636 18.639-48.83 18.639-67.472 0-18.637-18.639-18.637-48.838 0-67.476l269.872-269.869-269.872-269.874c-18.637-18.636-18.637-48.83 0-67.475 18.641-18.636 48.836-18.636 67.472 0l303.602 303.601zM194.358 400.286h763.284v95.406h-763.284v-95.406z" />
<glyph unicode="&#xe904;" glyph-name="cereal" horiz-adv-x="562" d="M528.404 220.143c-85.924 0-162.942-35.13-214.486-90.34v116.287h35.619c90.591 0 164.289 66.709 164.289 148.708v62.239c0 16.384-14.514 29.676-32.537 29.973 20.427 24.784 32.537 55.504 32.537 88.735v62.238c0 16.382-14.514 29.676-32.533 29.972 20.427 24.784 32.533 55.5 32.533 88.728v133.316c0 16.568-14.838 30-33.141 30-18.306 0-33.145-13.432-33.145-30v-41.068h-35.619c-36.699 0-70.626-10.954-98.004-29.432v110.5c0 16.568-14.84 30-33.144 30s-33.144-13.432-33.144-30v-110.5c-27.379 18.478-61.303 29.432-98.004 29.432h-35.619v41.068c0 16.568-14.839 30-33.144 30s-33.144-13.432-33.144-30v-133.308c0-33.23 12.108-63.948 32.538-88.734-18.021-0.296-32.538-13.588-32.538-29.972v-62.247c0-33.23 12.108-63.944 32.534-88.728-18.021-0.301-32.534-13.589-32.534-29.973v-62.239c0-81.999 73.701-148.708 164.292-148.708h35.619v-116.287c-51.546 55.21-128.563 90.34-214.487 90.34-18.305 0-33.144-13.434-33.144-30 0-140.136 125.955-254.144 280.774-254.144s280.774 114.008 280.774 254.144c0 16.566-14.838 30-33.145 30zM447.541 575.746c0-48.914-43.966-88.708-98.003-88.708h-35.619v32.249c0 48.908 43.963 88.698 97.994 88.698h35.629v-32.239zM114.008 607.985h61.303c39.876 0 72.32-29.366 72.32-65.46v-55.488h-35.628c-54.035 0-97.995 39.794-97.995 88.702v32.246zM447.541 394.798c0-48.914-43.966-88.708-98.003-88.708h-35.619v32.239c0 48.911 43.963 88.708 97.994 88.708h35.629v-32.239zM411.922 788.932h35.619v-32.248c0-48.91-43.963-88.7-97.997-88.7h-35.626v32.242c0 48.914 43.963 88.706 98.004 88.706zM247.631 700.226v-32.242h-35.619c-54.040 0-98.004 39.794-98.004 88.708v32.24h35.619c54.040 0 98.004-39.792 98.004-88.706zM114.008 394.798v32.239h35.619c54.040 0 98.004-39.794 98.004-88.708v-32.239h-35.619c-54.040 0-98.004 39.794-98.004 88.708zM69.343 157.376c89.316-13.801 159.985-77.765 175.233-158.611-89.319 13.801-159.987 77.768-175.233 158.611zM316.974-1.235c15.245 80.846 85.914 144.81 175.233 158.614-15.248-80.846-85.917-144.813-175.233-158.614z" />
<glyph unicode="&#xe905;" glyph-name="chat" horiz-adv-x="1182" d="M280.746 147.614c-15.91 0-29.25 4.596-40.018 13.792-10.758 9.188-16.137 20.578-16.137 34.182v81.353h785.447l20.137-17.203v490.739h95.208c15.907 0 29.243-4.593 39.999-13.787 10.772-9.204 16.156-20.594 16.156-34.187v-746.81l-224.591 191.921h-676.202zM0 193.501v698.823c0 13.593 5.384 24.993 16.153 34.197 10.758 9.197 24.093 13.787 40.002 13.787h790.941c15.907 0 29.243-4.59 40.003-13.787 10.756-9.204 16.136-20.604 16.136-34.197v-458.936c0-13.584-5.38-24.978-16.136-34.182-10.76-9.192-24.096-13.785-40.003-13.785h-622.505l-224.591-191.921z" />
<glyph unicode="&#xe906;" glyph-name="arrow-down" d="M472.615 920.616c0 21.751 17.634 39.385 39.385 39.385s39.385-17.634 39.385-39.385h-78.769zM539.849-52.464c-15.381-15.38-40.318-15.38-55.698 0l-250.643 250.643c-15.38 15.38-15.38 40.314 0 55.698 15.384 15.38 40.318 15.38 55.698 0l222.796-222.796 222.793 222.796c15.381 15.38 40.318 15.38 55.699 0 15.381-15.384 15.381-40.318 0-55.698l-250.642-250.643zM551.385 920.616v-945.231h-78.769v945.231h78.769z" />
<glyph unicode="&#xe907;" glyph-name="arrow-up" d="M551.385-24.616c0-21.751-17.634-39.385-39.385-39.385s-39.385 17.634-39.385 39.385h78.769zM484.151 948.464c15.381 15.38 40.318 15.38 55.698 0l250.643-250.643c15.38-15.38 15.38-40.314 0-55.698-15.384-15.38-40.318-15.38-55.698 0l-222.796 222.796-222.793-222.796c-15.381-15.38-40.318-15.38-55.699 0-15.381 15.384-15.381 40.318 0 55.698l250.642 250.643zM472.615-24.616v945.231h78.769v-945.231h-78.769z" />
<glyph unicode="&#xe908;" glyph-name="arrow-left" d="M984.616 408.615c21.751 0 39.385 17.634 39.385 39.385s-17.634 39.385-39.385 39.385v-78.769zM11.536 475.849c-15.38-15.381-15.38-40.318 0-55.698l250.643-250.643c15.38-15.38 40.314-15.38 55.698 0 15.38 15.384 15.38 40.318 0 55.698l-222.796 222.796 222.796 222.793c15.38 15.381 15.38 40.318 0 55.699-15.384 15.381-40.318 15.381-55.698 0l-250.643-250.642zM984.616 487.385h-945.231v-78.769h945.231v78.769z" />
<glyph unicode="&#xe909;" glyph-name="arrow-right" d="M39.384 408.615c-21.751 0-39.385 17.634-39.385 39.385s17.634 39.385 39.385 39.385v-78.769zM1012.464 475.849c15.38-15.381 15.38-40.318 0-55.698l-250.643-250.643c-15.38-15.38-40.314-15.38-55.698 0-15.38 15.384-15.38 40.318 0 55.698l222.796 222.796-222.796 222.793c-15.38 15.381-15.38 40.318 0 55.699 15.384 15.381 40.318 15.381 55.698 0l250.643-250.642zM39.384 487.385h945.231v-78.769h-945.231v78.769z" />
<glyph unicode="&#xe90a;" glyph-name="profile" horiz-adv-x="983" d="M464.8 877.28c-33.259-2.019-66.294-7.848-98.4-17.36-64.211-19.024-122.972-52.436-171.6-97.6s-85.807-100.757-108.4-162.48c-22.593-61.722-29.955-127.838-21.6-192.88s32.199-127.232 69.68-181.6c39.367-57.136 92.613-103.862 154.88-136.16s131.654-49.167 202.16-49.12c70.502-0.049 139.893 16.822 202.16 49.12s115.514 79.023 154.88 136.16h-0.082c47.747 69.042 73.264 150.437 73.122 233.76-0.017 65.554-15.79 130.229-46.080 188.72s-74.25 109.166-128.24 148.080c-53.994 38.914-116.512 64.97-182.64 76.080-33.064 5.555-66.581 7.299-99.84 5.28zM467.28 836.4c30.172 1.831 60.57 0.238 90.56-4.8 59.979-10.077 116.672-33.675 165.52-68.88 48.844-35.205 88.46-81.042 115.76-133.76s41.504-110.859 41.52-169.84c0.127-74.93-22.786-148.221-65.84-210.48v-0.082c-35.509-51.538-83.533-93.792-139.92-123.040-56.386-29.246-119.407-44.521-183.36-44.478-63.958-0.043-126.973 15.232-183.36 44.48s-104.409 71.501-139.92 123.040v0.082c-33.813 49.046-55.362 104.992-62.88 163.518s-0.827 118.013 19.52 173.6c20.347 55.588 53.812 105.743 97.76 146.56s97.145 71.152 155.36 88.4c29.108 8.624 59.108 13.849 89.28 15.68zM559.78 591.985c0-17.618-7.193-34.515-19.997-46.971-12.8-12.46-30.167-19.456-48.271-19.456v-44.286c14.942 0 29.737 2.863 43.54 8.425s26.35 13.718 36.913 23.998c10.564 10.281 18.944 22.487 24.662 35.922 5.718 13.431 8.663 27.828 8.663 42.367h-45.511zM491.512 525.558c-18.104 0-35.467 6.996-48.271 19.456-12.804 12.457-19.997 29.353-19.997 46.971h-45.509c0-14.54 2.943-28.937 8.661-42.367 5.718-13.435 14.099-25.641 24.663-35.922 21.34-20.763 50.278-32.424 80.454-32.424v44.286zM423.244 591.985c0 17.618 7.193 34.515 19.997 46.972s30.167 19.457 48.271 19.457v44.286c-30.175 0-59.113-11.665-80.454-32.428-21.336-20.763-33.323-48.924-33.323-78.287h45.509zM491.512 658.414c18.104 0 35.471-6.999 48.271-19.457 12.804-12.458 19.997-29.354 19.997-46.972h45.511c0 29.363-11.989 57.524-33.325 78.287s-50.278 32.428-80.454 32.428v-44.286zM180.49 199.786l-21.846 6.291-3.504-11.559 8.055-9.167 17.295 14.434zM802.533 199.786l17.297-14.434 8.053 9.167-3.547 11.559-21.803-6.291zM354.979 304.124h273.065v44.286h-273.065v-44.286zM354.979 348.41c-44.103-0.004-87.026-13.861-122.391-39.506-35.364-25.641-61.327-61.706-73.944-102.826l43.645-12.624c9.824 31.982 29.988 60.023 57.496 79.958 27.508 19.939 60.893 30.712 95.193 30.712v44.286zM491.512 82.694c-55.828-0.057-111.007 11.674-161.726 34.382s-95.771 55.853-132.047 97.149l-34.543-28.873c40.553-46.137 90.906-83.165 147.587-108.532 56.681-25.371 118.34-38.474 180.73-38.412v44.286zM628.044 304.124c34.308-0.004 67.699-10.781 95.207-30.728s47.669-47.997 57.483-79.987l43.602 12.669c-12.62 41.12-38.535 77.185-73.9 102.826-35.365 25.645-78.287 39.502-122.393 39.506v-44.286zM785.285 214.225c-36.274-41.296-81.326-74.441-132.047-97.149-50.717-22.708-105.898-34.439-161.726-34.382v-44.286c62.39-0.061 124.051 13.042 180.732 38.412 56.68 25.367 107.033 62.394 147.587 108.532l-34.546 28.873z" />
<glyph unicode="&#xe90b;" glyph-name="download-circle" horiz-adv-x="983" d="M334 405.44c-5.655-0.001-10.774-2.294-14.48-6v0c-3.705-3.706-5.997-8.825-5.997-14.48s2.292-10.774 5.997-14.48l157.52-157.52c3.706-3.705 8.826-5.996 14.48-5.996s10.774 2.291 14.48 5.996l157.52 157.52c3.705 3.706 5.997 8.825 5.997 14.48s-2.292 10.774-5.997 14.48v0c-3.706 3.705-8.825 5.997-14.48 5.997s-10.774-2.292-14.48-5.997l-143.040-143.040-143.040 143.040c-3.706 3.706-8.825 5.999-14.48 6v0zM491.52 689.040c-11.311 0-20.48-9.169-20.48-20.48v0-441.12c0-11.311 9.169-20.48 20.48-20.48v0c11.311 0 20.48 9.169 20.48 20.48v0 441.12c0 11.311-9.169 20.48-20.48 20.48v0zM491.52 878.080c-237.284 0-430.080-192.796-430.080-430.080 0-237.286 192.796-430.080 430.080-430.080 237.286 0 430.080 192.794 430.080 430.080 0 237.284-192.794 430.080-430.080 430.080zM491.52 837.12c215.15 0 389.12-173.972 389.12-389.12 0-215.15-173.97-389.12-389.12-389.12-215.148 0-389.12 173.97-389.12 389.12 0 215.148 173.972 389.12 389.12 389.12z" />
<glyph unicode="&#xe90c;" glyph-name="chevron-down" horiz-adv-x="838" d="M209.455 599.273c-12.852-0.002-24.487-5.213-32.909-13.636v0c-8.421-8.423-13.629-20.058-13.629-32.909s5.208-24.486 13.629-32.909l209.454-209.454c8.423-8.42 20.058-13.627 32.909-13.627s24.486 5.208 32.909 13.628l209.454 209.454c8.421 8.423 13.629 20.058 13.629 32.909s-5.208 24.486-13.629 32.909v0c-8.423 8.421-20.058 13.629-32.909 13.629s-24.486-5.208-32.909-13.629l-176.545-176.545-176.545 176.545c-8.422 8.424-20.057 13.634-32.909 13.636v0z" />
<glyph unicode="&#xe90d;" glyph-name="chevron-up" horiz-adv-x="838" d="M209.455 296.727c-12.852 0.002-24.487 5.213-32.909 13.636v0c-8.421 8.423-13.629 20.058-13.629 32.909s5.208 24.486 13.629 32.909l209.454 209.454c8.423 8.42 20.058 13.627 32.909 13.627s24.486-5.208 32.909-13.628l209.454-209.454c8.421-8.423 13.629-20.058 13.629-32.909s-5.208-24.486-13.629-32.909v0c-8.423-8.421-20.058-13.629-32.909-13.629s-24.486 5.208-32.909 13.629l-176.545 176.545-176.545-176.545c-8.422-8.424-20.057-13.634-32.909-13.636v0z" />
<glyph unicode="&#xe90e;" glyph-name="chevron-left" horiz-adv-x="838" d="M570.273 657.545c-0.002 12.852-5.213 24.487-13.636 32.909v0c-8.423 8.421-20.058 13.629-32.909 13.629s-24.486-5.208-32.909-13.629l-209.454-209.454c-8.42-8.423-13.627-20.058-13.627-32.909s5.208-24.486 13.628-32.909l209.454-209.454c8.423-8.421 20.058-13.629 32.909-13.629s24.486 5.208 32.909 13.629v0c8.421 8.423 13.629 20.058 13.629 32.909s-5.208 24.486-13.629 32.909l-176.545 176.545 176.545 176.545c8.424 8.422 13.634 20.057 13.636 32.909v0z" />
<glyph unicode="&#xe90f;" glyph-name="chevron-right" horiz-adv-x="838" d="M267.727 238.455c0.002-12.852 5.213-24.487 13.636-32.909v0c8.423-8.421 20.058-13.629 32.909-13.629s24.486 5.208 32.909 13.629l209.454 209.454c8.42 8.423 13.627 20.058 13.627 32.909s-5.208 24.486-13.628 32.909l-209.454 209.454c-8.423 8.421-20.058 13.629-32.909 13.629s-24.486-5.208-32.909-13.629v0c-8.421-8.423-13.629-20.058-13.629-32.909s5.208-24.486 13.629-32.909l176.545-176.545-176.545-176.545c-8.424-8.422-13.634-20.057-13.636-32.909v0z" />
<glyph unicode="&#xe910;" glyph-name="globus" horiz-adv-x="983" d="M491.52 873.6c-237.284 0-430.080-192.796-430.080-430.080 0-237.282 192.796-430.080 430.080-430.080 237.282 0 430.080 192.798 430.080 430.080 0 237.284-192.798 430.080-430.080 430.080zM491.52 832.64c215.145 0 389.12-173.973 389.12-389.12 0-215.145-173.975-389.12-389.12-389.12-215.147 0-389.12 173.975-389.12 389.12 0 215.147 173.972 389.12 389.12 389.12zM81.92 464c-11.311 0-20.48-9.169-20.48-20.48v0c0-11.311 9.169-20.48 20.48-20.48v0h819.2c11.311 0 20.48 9.169 20.48 20.48v0c0 11.311-9.169 20.48-20.48 20.48v0zM491.52 873.6c-5.988-0.015-11.37-2.597-15.105-6.703l-0.015-0.017c-105.797-115.824-165.933-266.124-169.2-422.96-0.003-0.131-0.005-0.285-0.005-0.44s0.002-0.309 0.005-0.463v0.023c3.267-156.838 63.403-307.134 169.2-422.96 3.758-4.103 9.14-6.665 15.12-6.665s11.362 2.563 15.106 6.65l0.014 0.015c105.798 115.826 165.935 266.122 169.2 422.96 0.003 0.131 0.005 0.285 0.005 0.44s-0.002 0.309-0.005 0.463v-0.023c-3.265 156.836-63.402 307.135-169.2 422.96-3.75 4.123-9.132 6.705-15.117 6.72h-0.003zM491.52 815.2c87.222-105.113 140.314-234.57 143.28-371.68-2.949-137.143-56.038-266.624-143.28-371.76-87.242 105.136-140.329 234.616-143.28 371.76 2.968 137.11 56.059 266.567 143.28 371.68z" />
<glyph unicode="&#xe911;" glyph-name="facebook" d="M938.667 448c0 235.52-191.147 426.667-426.667 426.667s-426.667-191.147-426.667-426.667c0-206.507 146.773-378.453 341.333-418.133v290.133h-85.333v128h85.333v106.667c0 82.347 66.987 149.333 149.333 149.333h106.667v-128h-85.333c-23.467 0-42.667-19.2-42.667-42.667v-85.333h128v-128h-128v-296.533c215.467 21.333 384 203.093 384 424.533z" />
<glyph unicode="&#xe912;" glyph-name="instagram" d="M555.866 874.667c48-0.128 72.363-0.384 93.397-0.981l8.277-0.299c9.557-0.341 18.987-0.768 30.379-1.28 45.397-2.133 76.373-9.301 103.552-19.84 28.16-10.837 51.883-25.515 75.605-49.195 21.705-21.322 38.494-47.124 49.195-75.605 10.539-27.179 17.707-58.155 19.84-103.595 0.512-11.349 0.939-20.779 1.28-30.379l0.256-8.277c0.64-20.992 0.896-45.355 0.981-93.355l0.043-31.829v-55.893c0.102-31.121-0.226-62.242-0.981-93.355l-0.256-8.277c-0.341-9.6-0.768-19.029-1.28-30.379-2.133-45.44-9.387-76.373-19.883-103.595-10.701-28.48-27.49-54.285-49.195-75.605-21.325-21.705-47.125-38.494-75.605-49.195-27.179-10.539-58.155-17.707-103.552-19.84l-30.379-1.28-8.277-0.256c-21.035-0.597-45.397-0.896-93.397-0.981l-87.68-0.043c-31.138-0.111-62.272 0.218-93.398 0.981l-8.277 0.256c-10.129 0.384-20.255 0.823-30.379 1.323-45.397 2.133-76.373 9.301-103.595 19.84-28.466 10.705-54.253 27.494-75.563 49.195-21.719 21.316-38.523 47.121-49.237 75.605-10.539 27.179-17.707 58.155-19.84 103.595l-1.28 30.379-0.213 8.277c-0.786 31.113-1.142 62.234-1.067 93.355v87.723c-0.118 31.121 0.195 62.242 0.939 93.355l0.299 8.277c0.341 9.6 0.768 19.029 1.28 30.379 2.133 45.44 9.301 76.373 19.84 103.595 10.739 28.493 27.572 54.296 49.323 75.605 21.297 21.694 47.069 38.482 75.52 49.195 27.221 10.539 58.155 17.707 103.595 19.84 11.349 0.512 20.821 0.939 30.379 1.28l8.277 0.256c31.112 0.758 62.234 1.085 93.356 0.981l87.723 0.043zM512.004 661.333c-56.58 0-110.842-22.476-150.85-62.484s-62.484-94.269-62.484-150.849c0-56.58 22.476-110.844 62.484-150.848 40.008-40.009 94.27-62.485 150.85-62.485s110.839 22.477 150.848 62.485c40.009 40.004 62.485 94.268 62.485 150.848s-22.477 110.842-62.485 150.849c-40.009 40.008-94.268 62.484-150.848 62.484zM512.004 576c16.806 0.003 33.455-3.305 48.986-9.735s29.641-15.856 41.527-27.74c11.891-11.886 21.321-25.991 27.755-41.522 6.438-15.526 9.749-32.171 9.754-48.981 0-16.811-3.307-33.455-9.737-48.986s-15.855-29.641-27.738-41.532c-11.887-11.887-25.997-21.316-41.523-27.75-15.531-6.438-32.175-9.749-48.981-9.754-33.95 0-66.505 13.487-90.511 37.491s-37.49 56.563-37.49 90.509 13.486 66.505 37.49 90.51c24.006 24.005 56.561 37.49 90.511 37.49zM736.047 725.333c-14.144 0-27.712-5.619-37.713-15.621s-15.62-23.567-15.62-37.712c0-14.145 5.619-27.71 15.62-37.712s23.569-15.621 37.713-15.621c14.144 0 27.708 5.619 37.713 15.621 10.001 10.002 15.62 23.567 15.62 37.712s-5.619 27.71-15.62 37.712c-10.005 10.002-23.569 15.621-37.713 15.621z" />
<glyph unicode="&#xe913;" glyph-name="linkedin" d="M810.667 832c22.63 0 44.335-8.99 60.339-24.994s24.994-37.708 24.994-60.34v-597.333c0-22.63-8.99-44.335-24.994-60.339s-37.709-24.994-60.339-24.994h-597.333c-22.632 0-44.337 8.99-60.34 24.994s-24.994 37.709-24.994 60.339v597.333c0 22.632 8.99 44.337 24.994 60.34s37.708 24.994 60.34 24.994h597.333zM789.333 170.667v226.133c0 36.89-14.656 72.269-40.738 98.355-26.086 26.082-61.466 40.738-98.355 40.738-36.267 0-78.507-22.187-98.987-55.467v47.36h-119.040v-357.12h119.040v210.347c0 32.853 26.453 59.733 59.307 59.733 15.842 0 31.036-6.293 42.236-17.498 11.204-11.2 17.498-26.394 17.498-42.236v-210.347h119.040zM293.547 594.773c19.011 0 37.243 7.552 50.685 20.995s20.995 31.675 20.995 50.685c0 39.68-32 72.107-71.68 72.107-19.124 0-37.464-7.597-50.987-21.12s-21.12-31.863-21.12-50.987c0-39.68 32.427-71.68 72.107-71.68zM352.853 170.667v357.12h-118.187v-357.12h118.187z" />
<glyph unicode="&#xe914;" glyph-name="x" d="M806.4 912.021h157.039l-343.040-393.071 403.601-534.967h-315.977l-247.663 324.39-283.062-324.39h-157.184l366.885 420.574-386.999 507.391h324.023l223.523-296.448 258.854 296.521zM751.177 78.191h87.040l-561.737 744.523h-93.33l568.027-744.523z" />
<glyph unicode="&#xe915;" glyph-name="close" d="M218.503 801.83l663.738-663.738c16.662-16.662 16.662-43.677 0-60.34s-43.677-16.662-60.34 0l-663.738 663.738c-16.662 16.662-16.662 43.677 0 60.34s43.677 16.662 60.34 0zM167.795 128.461l663.738 663.738c16.662 16.662 43.677 16.662 60.34 0s16.662-43.677 0-60.34l-663.738-663.738c-16.662-16.662-43.677-16.662-60.34 0s-16.662 43.677 0 60.34z" />
<glyph unicode="&#xe916;" glyph-name="hamburger" d="M67.805 730.668h888.382c22.304 0 40.38-18.075 40.38-40.38s-18.075-40.38-40.38-40.38h-888.382c-22.304 0-40.38 18.075-40.38 40.38s18.075 40.38 40.38 40.38zM67.805 488.38h888.382c22.304 0 40.38-18.075 40.38-40.38s-18.075-40.38-40.38-40.38h-888.382c-22.304 0-40.38 18.075-40.38 40.38s18.075 40.38 40.38 40.38zM67.805 246.092h888.382c22.304 0 40.38-18.075 40.38-40.38s-18.075-40.38-40.38-40.38h-888.382c-22.304 0-40.38 18.075-40.38 40.38s18.075 40.38 40.38 40.38z" />
<glyph unicode="&#xe917;" glyph-name="phone" d="M650.554 272.64l71.68 71.679c9.658 9.535 21.875 16.061 35.162 18.788 13.293 2.727 27.091 1.536 39.718-3.428l87.36-34.88c12.762-5.183 23.706-14.021 31.45-25.413 7.75-11.386 11.949-24.813 12.070-38.586v-160c-0.070-9.37-2.042-18.624-5.786-27.213-3.75-8.589-9.19-16.333-16.006-22.758-6.822-6.426-14.867-11.411-23.661-14.643-8.794-3.238-18.15-4.659-27.507-4.186-612.157 38.080-735.677 556.479-759.037 754.879-1.084 9.743-0.093 19.605 2.908 28.937s7.944 17.924 14.503 25.209c6.559 7.285 14.587 13.099 23.555 17.059s18.673 5.976 28.475 5.916h154.56c13.793-0.041 27.257-4.207 38.662-11.963s20.23-18.746 25.338-31.557l34.88-87.36c5.128-12.578 6.436-26.388 3.762-39.706s-9.215-25.551-18.802-35.174l-71.68-71.68c0 0 41.28-279.359 318.397-313.919z" />
<glyph unicode="&#xe918;" glyph-name="fax" d="M213.333 832c-22.632 0-44.337-8.991-60.34-24.993s-24.993-37.708-24.993-60.34v-597.336c0-22.63 8.991-44.333 24.993-60.339 16.003-16 37.708-24.992 60.34-24.992h42.667c22.632 0 44.337 8.992 60.34 24.992 16.003 16.006 24.993 37.709 24.993 60.339v597.336c0 22.632-8.99 44.337-24.993 60.34s-37.708 24.993-60.34 24.993h-42.667zM810.669 789.333c22.63 0 44.333-8.99 60.339-24.993 16-16.003 24.992-37.708 24.992-60.34v-554.669c0-22.63-8.992-44.333-24.992-60.339-16.006-16-37.709-24.992-60.339-24.992h-426.669v725.333h426.669zM554.667 277.331c-10.451 0-20.537-3.834-28.347-10.778-7.809-6.95-12.799-16.518-14.021-26.893l-0.299-5.421c0.012-10.874 4.176-21.338 11.642-29.242 7.465-7.91 17.668-12.666 28.525-13.306 10.856-0.634 21.546 2.893 29.885 9.875s13.699 16.883 14.984 27.68l0.298 5.421c0 11.315-4.495 22.163-12.497 30.17-8.001 8-18.854 12.493-30.17 12.493zM725.331 277.331c-10.451 0-20.538-3.834-28.346-10.778-7.808-6.95-12.8-16.518-14.022-26.893l-0.294-5.421c0.013-10.874 4.173-21.338 11.642-29.242 7.462-7.91 17.664-12.666 28.525-13.306 10.854-0.634 21.542 2.893 29.882 9.875s13.702 16.883 14.982 27.68l0.301 5.421c0 11.315-4.493 22.163-12.499 30.17-8 8-18.854 12.493-30.17 12.493zM554.667 405.333c-10.451-0.001-20.537-3.838-28.347-10.782s-12.799-16.514-14.021-26.892l-0.299-5.419c0.012-10.875 4.176-21.335 11.642-29.242s17.668-12.666 28.525-13.305c10.856-0.634 21.546 2.896 29.885 9.876s13.699 16.881 14.984 27.679l0.298 5.419c0 11.316-4.495 22.168-12.497 30.17s-18.854 12.497-30.17 12.497zM725.331 405.333c-10.451-0.001-20.538-3.838-28.346-10.782s-12.8-16.514-14.022-26.892l-0.294-5.419c0.013-10.875 4.173-21.335 11.642-29.242 7.462-7.908 17.664-12.666 28.525-13.305 10.854-0.634 21.542 2.896 29.882 9.876s13.702 16.881 14.982 27.679l0.301 5.419c0 11.316-4.493 22.168-12.499 30.17-8 8.001-18.854 12.497-30.17 12.497zM746.669 661.333h-213.336c-15.91-0.001-31.249-5.927-43.026-16.623s-19.148-25.396-20.675-41.233l-0.299-6.144v-85.333c0.001-15.91 5.928-31.249 16.624-43.026s25.396-19.148 41.232-20.675l6.144-0.299h213.336c15.91 0.001 31.245 5.927 43.021 16.624 11.782 10.696 19.149 25.396 20.678 41.232l0.301 6.144v85.333c0 15.91-5.926 31.249-16.627 43.026-10.694 11.777-25.395 19.148-41.229 20.676l-6.144 0.298zM725.331 576v-42.667h-170.664v42.667h170.664z" />
<glyph unicode="&#xe919;" glyph-name="mail" d="M853.312 789.313h-682.666c-46.933 0-84.907-38.4-84.907-85.334l-0.426-511.998c0-46.938 38.4-85.338 85.333-85.338h682.666c46.931 0 85.331 38.4 85.331 85.338v511.998c0 46.934-38.4 85.334-85.331 85.334zM853.312 618.646l-341.333-213.333-341.333 213.333v85.333l341.333-213.333 341.333 213.333v-85.333z" />
<glyph unicode="&#xe91a;" glyph-name="map" d="M810.643 576.021c0 39.221-7.725 78.059-22.733 114.294s-37.011 69.161-64.742 96.895c-27.731 27.734-60.659 49.733-96.894 64.742s-75.073 22.735-114.295 22.735-78.059-7.725-114.294-22.735c-36.236-15.009-69.161-37.009-96.895-64.742s-49.733-60.659-64.742-96.895c-15.010-36.236-22.735-75.073-22.735-114.294 0-59.179 17.45-114.219 47.146-160.64h-0.341l251.861-394.024 251.861 394.024h-0.301c30.758 47.932 47.11 103.688 47.104 160.64zM511.979 448.021c-33.948 0-66.505 13.485-90.509 37.49s-37.491 56.562-37.491 90.51c0 33.948 13.486 66.505 37.491 90.509s56.562 37.491 90.509 37.491c33.948 0 66.506-13.486 90.51-37.491s37.49-56.562 37.49-90.509c0-33.948-13.485-66.506-37.49-90.51s-56.562-37.49-90.51-37.49z" />
<glyph unicode="&#xe91b;" glyph-name="plus" d="M512 693.333c-17.673 0-32-14.327-32-32v0-426.667c0-17.673 14.327-32 32-32v0c17.673 0 32 14.327 32 32v0 426.667c0 17.673-14.327 32-32 32v0zM298.667 480c-17.673 0-32-14.327-32-32v0c0-17.673 14.327-32 32-32v0h426.667c17.673 0 32 14.327 32 32v0c0 17.673-14.327 32-32 32v0z" />
</font>
</defs>
</svg>
