<svg width="135" height="151" viewBox="0 0 135 151" fill="none" xmlns="http://www.w3.org/2000/svg">
<path fill-rule="evenodd" clip-rule="evenodd" d="M102.961 85.5387C103.046 85.7814 103.209 85.9993 103.448 86.1462L103.799 86.361L107.65 88.7172L107.653 88.7194V88.7153L112.846 91.8972L116.635 94.2159C117.278 94.6093 117.996 94.8049 118.713 94.8028V67.1775H134.532L134.532 15.4605L107.948 15.1631L102.891 15.4335L102.961 85.5387Z" fill="#D4F2E4"/>
<path fill-rule="evenodd" clip-rule="evenodd" d="M102.961 85.5387C103.046 85.7814 103.209 85.9993 103.448 86.1462L103.799 86.361L107.65 88.7172L107.653 88.7194V88.7153L112.846 91.8972L116.635 94.2159C117.278 94.6093 117.996 94.8049 118.713 94.8028V67.1775H134.532L134.532 15.4605L107.948 15.1631L102.891 15.4335L102.961 85.5387Z" fill="url(#paint0_linear_600_4087)" fill-opacity="0.15"/>
<path fill-rule="evenodd" clip-rule="evenodd" d="M102.961 85.5387C103.046 85.7814 103.209 85.9993 103.448 86.1462L103.799 86.361L107.65 88.7172L107.653 88.7194V88.7153L112.846 91.8972L116.635 94.2159C117.278 94.6093 117.996 94.8049 118.713 94.8028V67.1775H134.532L134.532 15.4605L107.948 15.1631L102.891 15.4335L102.961 85.5387Z" fill="url(#paint1_linear_600_4087)" fill-opacity="0.35"/>
<path fill-rule="evenodd" clip-rule="evenodd" d="M102.961 85.5387C103.046 85.7814 103.209 85.9993 103.448 86.1462L103.799 86.361L107.65 88.7172L107.653 88.7194V88.7153L112.846 91.8972L116.635 94.2159C117.278 94.6093 117.996 94.8049 118.713 94.8028V67.1775H134.532L134.532 15.4605L107.948 15.1631L102.891 15.4335L102.961 85.5387Z" fill="url(#paint2_linear_600_4087)"/>
<path fill-rule="evenodd" clip-rule="evenodd" d="M134.465 85.5387C134.38 85.7814 134.217 85.9993 133.977 86.1462L133.626 86.361L129.776 88.7172L129.773 88.7194V88.7153L124.58 91.8972L120.791 94.2159C120.148 94.6093 119.43 94.8049 118.713 94.8028V15.2835L129.478 15.1631L134.535 15.4335L134.465 85.5387Z" fill="#D4F2E4"/>
<path fill-rule="evenodd" clip-rule="evenodd" d="M134.465 85.5387C134.38 85.7814 134.217 85.9993 133.977 86.1462L133.626 86.361L129.776 88.7172L129.773 88.7194V88.7153L124.58 91.8972L120.791 94.2159C120.148 94.6093 119.43 94.8049 118.713 94.8028V15.2835L129.478 15.1631L134.535 15.4335L134.465 85.5387Z" fill="url(#paint3_linear_600_4087)" fill-opacity="0.4"/>
<path fill-rule="evenodd" clip-rule="evenodd" d="M134.465 85.5387C134.38 85.7814 134.217 85.9993 133.977 86.1462L133.626 86.361L129.776 88.7172L129.773 88.7194V88.7153L124.58 91.8972L120.791 94.2159C120.148 94.6093 119.43 94.8049 118.713 94.8028V15.2835L129.478 15.1631L134.535 15.4335L134.465 85.5387Z" fill="url(#paint4_linear_600_4087)"/>
<path fill-rule="evenodd" clip-rule="evenodd" d="M134.465 85.5387C134.38 85.7814 134.217 85.9993 133.977 86.1462L133.626 86.361L129.776 88.7172L129.773 88.7194V88.7153L124.58 91.8972L120.791 94.2159C120.148 94.6093 119.43 94.8049 118.713 94.8028V15.2835L129.478 15.1631L134.535 15.4335L134.465 85.5387Z" fill="url(#paint5_linear_600_4087)" fill-opacity="0.5"/>
<path fill-rule="evenodd" clip-rule="evenodd" d="M134.465 85.5387C134.38 85.7814 134.217 85.9993 133.977 86.1462L133.626 86.361L129.776 88.7172L129.773 88.7194V88.7153L124.58 91.8972L120.791 94.2159C120.148 94.6093 119.43 94.8049 118.713 94.8028V15.2835L129.478 15.1631L134.535 15.4335L134.465 85.5387Z" fill="url(#paint6_linear_600_4087)"/>
<path fill-rule="evenodd" clip-rule="evenodd" d="M134.465 85.5387C134.38 85.7814 134.217 85.9993 133.977 86.1462L133.626 86.361L129.776 88.7172L129.773 88.7194V88.7153L124.58 91.8972L120.791 94.2159C120.148 94.6093 119.43 94.8049 118.713 94.8028V15.2835L129.478 15.1631L134.535 15.4335L134.465 85.5387Z" fill="black" fill-opacity="0.1"/>
<path d="M120.66 6.25101L133.816 14.1455C134.177 14.3623 134.358 14.7421 134.358 15.1218C134.358 15.5018 134.177 15.8809 133.816 16.0976L129.001 18.9869L125.069 21.3463L120.67 23.9866C119.398 24.7499 117.831 24.7499 116.559 23.9866L112.791 21.7254L107.627 18.6223V18.6263L107.624 18.624L103.794 16.3262L103.445 16.1167C103.207 15.9735 103.045 15.761 102.961 15.5242C102.914 15.3941 102.891 15.2564 102.891 15.1187C102.89 14.7303 103.075 14.3416 103.445 14.1196L116.549 6.25168C117.821 5.48794 119.388 5.48772 120.66 6.25101Z" fill="#F0FAF6"/>
<path fill-rule="evenodd" clip-rule="evenodd" d="M76.7189 99.3514C76.804 99.5941 76.9666 99.8121 77.2062 99.9589L77.5573 100.174L81.4076 102.53L81.4108 102.532V102.528L86.6038 105.71L90.3929 108.029C91.0356 108.422 91.7534 108.618 92.4707 108.616V81.1107L81.7057 80.9902L76.6484 81.2606L76.7189 99.3514Z" fill="#D4F2E4"/>
<path fill-rule="evenodd" clip-rule="evenodd" d="M76.7189 99.3514C76.804 99.5941 76.9666 99.8121 77.2062 99.9589L77.5573 100.174L81.4076 102.53L81.4108 102.532V102.528L86.6038 105.71L90.3929 108.029C91.0356 108.422 91.7534 108.618 92.4707 108.616V81.1107L81.7057 80.9902L76.6484 81.2606L76.7189 99.3514Z" fill="url(#paint7_linear_600_4087)" fill-opacity="0.15"/>
<path fill-rule="evenodd" clip-rule="evenodd" d="M76.7189 99.3514C76.804 99.5941 76.9666 99.8121 77.2062 99.9589L77.5573 100.174L81.4076 102.53L81.4108 102.532V102.528L86.6038 105.71L90.3929 108.029C91.0356 108.422 91.7534 108.618 92.4707 108.616V81.1107L81.7057 80.9902L76.6484 81.2606L76.7189 99.3514Z" fill="url(#paint8_linear_600_4087)" fill-opacity="0.65"/>
<path fill-rule="evenodd" clip-rule="evenodd" d="M108.223 99.3514C108.137 99.5941 107.975 99.8121 107.735 99.9589L107.384 100.174L103.534 102.53L103.531 102.532V102.528L98.3376 105.71L94.5485 108.029C93.9063 108.422 93.1893 108.617 92.4726 108.616V81.1107L103.236 80.9902L108.293 81.2606L108.223 99.3514ZM76.6518 81.2877V98.9723C76.6515 98.9611 76.6513 98.9499 76.6513 98.9388L76.6513 81.2877L76.6518 81.2877Z" fill="#D4F2E4"/>
<path fill-rule="evenodd" clip-rule="evenodd" d="M108.223 99.3514C108.137 99.5941 107.975 99.8121 107.735 99.9589L107.384 100.174L103.534 102.53L103.531 102.532V102.528L98.3376 105.71L94.5485 108.029C93.9063 108.422 93.1893 108.617 92.4726 108.616V81.1107L103.236 80.9902L108.293 81.2606L108.223 99.3514ZM76.6518 81.2877V98.9723C76.6515 98.9611 76.6513 98.9499 76.6513 98.9388L76.6513 81.2877L76.6518 81.2877Z" fill="url(#paint9_linear_600_4087)" fill-opacity="0.4"/>
<path fill-rule="evenodd" clip-rule="evenodd" d="M108.223 99.3514C108.137 99.5941 107.975 99.8121 107.735 99.9589L107.384 100.174L103.534 102.53L103.531 102.532V102.528L98.3376 105.71L94.5485 108.029C93.9063 108.422 93.1893 108.617 92.4726 108.616V81.1107L103.236 80.9902L108.293 81.2606L108.223 99.3514ZM76.6518 81.2877V98.9723C76.6515 98.9611 76.6513 98.9499 76.6513 98.9388L76.6513 81.2877L76.6518 81.2877Z" fill="url(#paint10_linear_600_4087)"/>
<path fill-rule="evenodd" clip-rule="evenodd" d="M108.223 99.3514C108.137 99.5941 107.975 99.8121 107.735 99.9589L107.384 100.174L103.534 102.53L103.531 102.532V102.528L98.3376 105.71L94.5485 108.029C93.9063 108.422 93.1893 108.617 92.4726 108.616V81.1107L103.236 80.9902L108.293 81.2606L108.223 99.3514ZM76.6518 81.2877V98.9723C76.6515 98.9611 76.6513 98.9499 76.6513 98.9388L76.6513 81.2877L76.6518 81.2877Z" fill="url(#paint11_linear_600_4087)"/>
<path d="M94.4179 72.2578L107.573 80.1524C107.935 80.3691 108.116 80.7489 108.116 81.1287C108.116 81.5086 107.935 81.8877 107.574 82.1045L102.759 84.9938L98.8272 87.3531L94.4273 89.9935C93.1556 90.7568 91.5887 90.7568 90.3172 89.9935L86.549 87.7322L81.3846 84.6291V84.6331L81.3814 84.6309L77.5523 82.333L77.2031 82.1236C76.9649 81.9803 76.8031 81.7678 76.7185 81.5311C76.6719 81.4009 76.6484 81.2632 76.6484 81.1255C76.648 80.7371 76.8328 80.3485 77.2027 80.1264L90.3067 72.2585C91.5787 71.4948 93.1457 71.4946 94.4179 72.2578Z" fill="#F0FAF6"/>
<path fill-rule="evenodd" clip-rule="evenodd" d="M50.1291 113.691C50.2141 113.934 50.3768 114.152 50.6163 114.299L50.9674 114.514L54.8178 116.87L54.821 116.872V116.868L60.014 120.05L63.8031 122.368C64.4458 122.762 65.1635 122.958 65.8809 122.955V95.3301H81.7003L81.7003 56.6168L55.1159 56.3193L50.0586 56.5897L50.1291 113.691Z" fill="#D4F2E4"/>
<path fill-rule="evenodd" clip-rule="evenodd" d="M50.1291 113.691C50.2141 113.934 50.3768 114.152 50.6163 114.299L50.9674 114.514L54.8178 116.87L54.821 116.872V116.868L60.014 120.05L63.8031 122.368C64.4458 122.762 65.1635 122.958 65.8809 122.955V95.3301H81.7003L81.7003 56.6168L55.1159 56.3193L50.0586 56.5897L50.1291 113.691Z" fill="url(#paint12_linear_600_4087)" fill-opacity="0.15"/>
<path fill-rule="evenodd" clip-rule="evenodd" d="M50.1291 113.691C50.2141 113.934 50.3768 114.152 50.6163 114.299L50.9674 114.514L54.8178 116.87L54.821 116.872V116.868L60.014 120.05L63.8031 122.368C64.4458 122.762 65.1635 122.958 65.8809 122.955V95.3301H81.7003L81.7003 56.6168L55.1159 56.3193L50.0586 56.5897L50.1291 113.691Z" fill="url(#paint13_linear_600_4087)" fill-opacity="0.35"/>
<path fill-rule="evenodd" clip-rule="evenodd" d="M81.6346 113.691C81.5495 113.934 81.3869 114.152 81.1473 114.299L80.7963 114.514L76.9459 116.87L76.9427 116.872V116.868L71.7497 120.05L67.9606 122.368C67.3179 122.762 66.6002 122.958 65.8828 122.955V56.4398L76.6478 56.3193L81.7051 56.5897L81.6346 113.691Z" fill="#D4F2E4"/>
<path fill-rule="evenodd" clip-rule="evenodd" d="M81.6346 113.691C81.5495 113.934 81.3869 114.152 81.1473 114.299L80.7963 114.514L76.9459 116.87L76.9427 116.872V116.868L71.7497 120.05L67.9606 122.368C67.3179 122.762 66.6002 122.958 65.8828 122.955V56.4398L76.6478 56.3193L81.7051 56.5897L81.6346 113.691Z" fill="url(#paint14_linear_600_4087)" fill-opacity="0.4"/>
<path fill-rule="evenodd" clip-rule="evenodd" d="M81.6346 113.691C81.5495 113.934 81.3869 114.152 81.1473 114.299L80.7963 114.514L76.9459 116.87L76.9427 116.872V116.868L71.7497 120.05L67.9606 122.368C67.3179 122.762 66.6002 122.958 65.8828 122.955V56.4398L76.6478 56.3193L81.7051 56.5897L81.6346 113.691Z" fill="url(#paint15_linear_600_4087)"/>
<path fill-rule="evenodd" clip-rule="evenodd" d="M81.6346 113.691C81.5495 113.934 81.3869 114.152 81.1473 114.299L80.7963 114.514L76.9459 116.87L76.9427 116.872V116.868L71.7497 120.05L67.9606 122.368C67.3179 122.762 66.6002 122.958 65.8828 122.955V56.4398L76.6478 56.3193L81.7051 56.5897L81.6346 113.691Z" fill="url(#paint16_linear_600_4087)" fill-opacity="0.5"/>
<path d="M67.9287 47.9082L81.1587 55.8028C81.5223 56.0195 81.7039 56.3993 81.7041 56.779C81.7041 57.159 81.5225 57.5381 81.159 57.7549L76.3169 60.6441L72.3629 63.0035L67.9382 65.6439C66.6592 66.4071 65.0835 66.4071 63.8048 65.6439L60.0152 63.3826L54.8216 60.2795V60.2835L54.8184 60.2813L50.9675 57.9834L50.6164 57.774C50.3768 57.6307 50.2142 57.4182 50.1291 57.1815C50.0822 57.0513 50.0586 56.9136 50.0586 56.7759C50.0582 56.3875 50.244 55.9989 50.616 55.7768L63.7942 47.9089C65.0734 47.1452 66.6493 47.1449 67.9287 47.9082Z" fill="#F0FAF6"/>
<path fill-rule="evenodd" clip-rule="evenodd" d="M24.8888 127.504C24.9739 127.747 25.1365 127.965 25.3761 128.112L25.7272 128.327L29.5775 130.683L29.5808 130.685V130.681L34.7737 133.863L38.5629 136.182C39.2056 136.575 39.9233 136.771 40.6406 136.769V109.143H56.46L56.46 96.4371L29.8756 96.1396L24.8184 96.41L24.8888 127.504Z" fill="#D4F2E4"/>
<path fill-rule="evenodd" clip-rule="evenodd" d="M24.8888 127.504C24.9739 127.747 25.1365 127.965 25.3761 128.112L25.7272 128.327L29.5775 130.683L29.5808 130.685V130.681L34.7737 133.863L38.5629 136.182C39.2056 136.575 39.9233 136.771 40.6406 136.769V109.143H56.46L56.46 96.4371L29.8756 96.1396L24.8184 96.41L24.8888 127.504Z" fill="url(#paint17_linear_600_4087)" fill-opacity="0.15"/>
<path fill-rule="evenodd" clip-rule="evenodd" d="M24.8888 127.504C24.9739 127.747 25.1365 127.965 25.3761 128.112L25.7272 128.327L29.5775 130.683L29.5808 130.685V130.681L34.7737 133.863L38.5629 136.182C39.2056 136.575 39.9233 136.771 40.6406 136.769V109.143H56.46L56.46 96.4371L29.8756 96.1396L24.8184 96.41L24.8888 127.504Z" fill="url(#paint18_linear_600_4087)" fill-opacity="0.15"/>
<path fill-rule="evenodd" clip-rule="evenodd" d="M56.3944 127.504C56.3093 127.747 56.1467 127.965 55.9071 128.112L55.556 128.327L51.7057 130.683L51.7024 130.685V130.681L46.5095 133.863L42.7203 136.182C42.0783 136.575 41.3613 136.77 40.6446 136.769V96.2601L51.4076 96.1396L56.4648 96.41L56.3944 127.504ZM24.8238 96.4371V127.131C24.8234 127.118 24.8232 127.105 24.8232 127.092L24.8232 96.4371L24.8238 96.4371Z" fill="#D4F2E4"/>
<path fill-rule="evenodd" clip-rule="evenodd" d="M56.3944 127.504C56.3093 127.747 56.1467 127.965 55.9071 128.112L55.556 128.327L51.7057 130.683L51.7024 130.685V130.681L46.5095 133.863L42.7203 136.182C42.0783 136.575 41.3613 136.77 40.6446 136.769V96.2601L51.4076 96.1396L56.4648 96.41L56.3944 127.504ZM24.8238 96.4371V127.131C24.8234 127.118 24.8232 127.105 24.8232 127.092L24.8232 96.4371L24.8238 96.4371Z" fill="url(#paint19_linear_600_4087)" fill-opacity="0.4"/>
<path fill-rule="evenodd" clip-rule="evenodd" d="M56.3944 127.504C56.3093 127.747 56.1467 127.965 55.9071 128.112L55.556 128.327L51.7057 130.683L51.7024 130.685V130.681L46.5095 133.863L42.7203 136.182C42.0783 136.575 41.3613 136.77 40.6446 136.769V96.2601L51.4076 96.1396L56.4648 96.41L56.3944 127.504ZM24.8238 96.4371V127.131C24.8234 127.118 24.8232 127.105 24.8232 127.092L24.8232 96.4371L24.8238 96.4371Z" fill="url(#paint20_linear_600_4087)"/>
<path fill-rule="evenodd" clip-rule="evenodd" d="M56.3944 127.504C56.3093 127.747 56.1467 127.965 55.9071 128.112L55.556 128.327L51.7057 130.683L51.7024 130.685V130.681L46.5095 133.863L42.7203 136.182C42.0783 136.575 41.3613 136.77 40.6446 136.769V96.2601L51.4076 96.1396L56.4648 96.41L56.3944 127.504ZM24.8238 96.4371V127.131C24.8234 127.118 24.8232 127.105 24.8232 127.092L24.8232 96.4371L24.8238 96.4371Z" fill="url(#paint21_linear_600_4087)" fill-opacity="0.2"/>
<path d="M42.6888 87.6498L55.919 95.5891C56.2826 95.8071 56.4641 96.189 56.4644 96.571C56.4644 96.9531 56.2828 97.3343 55.9192 97.5523L51.0771 100.458L47.123 102.831L42.6982 105.486C41.4192 106.254 39.8435 106.254 38.5648 105.486L34.7751 103.212L29.5814 100.091V100.095L29.5782 100.093L25.7273 97.7821L25.3762 97.5715C25.1366 97.4275 24.9739 97.2137 24.8888 96.9756C24.842 96.8448 24.8184 96.7063 24.8184 96.5678C24.8179 96.1772 25.0038 95.7864 25.3758 95.563L38.5542 87.6504C39.8334 86.8824 41.4094 86.8821 42.6888 87.6498Z" fill="#F0FAF6"/>
<path fill-rule="evenodd" clip-rule="evenodd" d="M0.570463 141.005C0.655544 141.247 0.818187 141.465 1.05775 141.612L1.40882 141.827L5.25918 144.183L5.2624 144.185V144.181L10.4554 147.363L14.2445 149.682C14.8872 150.075 15.6049 150.271 16.3223 150.269V122.764L5.55726 122.644L0.5 122.914L0.570463 141.005Z" fill="#D4F2E4"/>
<path fill-rule="evenodd" clip-rule="evenodd" d="M0.570463 141.005C0.655544 141.247 0.818187 141.465 1.05775 141.612L1.40882 141.827L5.25918 144.183L5.2624 144.185V144.181L10.4554 147.363L14.2445 149.682C14.8872 150.075 15.6049 150.271 16.3223 150.269V122.764L5.55726 122.644L0.5 122.914L0.570463 141.005Z" fill="url(#paint22_linear_600_4087)" fill-opacity="0.15"/>
<path fill-rule="evenodd" clip-rule="evenodd" d="M32.0721 141.005C31.987 141.247 31.8244 141.465 31.5848 141.612L31.2338 141.827L27.3834 144.183L27.3802 144.185V144.181L22.1872 147.363L18.3981 149.682C17.7554 150.075 17.0377 150.271 16.3203 150.269V122.764L27.0853 122.644L32.1426 122.914L32.0721 141.005Z" fill="#D4F2E4"/>
<path fill-rule="evenodd" clip-rule="evenodd" d="M32.0721 141.005C31.987 141.247 31.8244 141.465 31.5848 141.612L31.2338 141.827L27.3834 144.183L27.3802 144.185V144.181L22.1872 147.363L18.3981 149.682C17.7554 150.075 17.0377 150.271 16.3203 150.269V122.764L27.0853 122.644L32.1426 122.914L32.0721 141.005Z" fill="url(#paint23_linear_600_4087)" fill-opacity="0.4"/>
<path fill-rule="evenodd" clip-rule="evenodd" d="M32.0721 141.005C31.987 141.247 31.8244 141.465 31.5848 141.612L31.2338 141.827L27.3834 144.183L27.3802 144.185V144.181L22.1872 147.363L18.3981 149.682C17.7554 150.075 17.0377 150.271 16.3203 150.269V122.764L27.0853 122.644L32.1426 122.914L32.0721 141.005Z" fill="url(#paint24_linear_600_4087)"/>
<path d="M18.2695 113.911L31.425 121.806C31.7865 122.022 31.9671 122.402 31.9673 122.782C31.9673 123.162 31.7868 123.541 31.4252 123.758L26.6104 126.647L22.6787 129.006L18.2789 131.647C17.0071 132.41 15.4403 132.41 14.1688 131.647L10.4005 129.386L5.23617 126.282V126.286L5.23296 126.284L1.40382 123.986L1.05468 123.777C0.816443 123.634 0.654697 123.421 0.570084 123.184C0.523505 123.054 0.5 122.917 0.5 122.779C0.499573 122.39 0.684396 122.002 1.05426 121.78L14.1583 113.912C15.4303 113.148 16.9973 113.148 18.2695 113.911Z" fill="#F0FAF6"/>
<path d="M16.8917 50.2432L12.5039 52.7604L10.4023 48.9269L10.8874 28.6508L11.7418 23.1084L16.8917 25.1868V50.2432Z" fill="#D9D9D9"/>
<path d="M16.8917 50.2432L12.5039 52.7604L10.4023 48.9269L10.8874 28.6508L11.7418 23.1084L16.8917 25.1868V50.2432Z" fill="#D4F2E4"/>
<path d="M16.8917 50.2432L12.5039 52.7604L10.4023 48.9269L10.8874 28.6508L11.7418 23.1084L16.8917 25.1868V50.2432Z" fill="url(#paint25_linear_600_4087)" fill-opacity="0.15"/>
<path d="M13.4607 0L9.12109 2.46312L12.4005 17.9835L17.2943 26.7882L21.9218 24.2901L13.4607 0Z" fill="#D9D9D9"/>
<path d="M13.4607 0L9.12109 2.46312L12.4005 17.9835L17.2943 26.7882L21.9218 24.2901L13.4607 0Z" fill="#D4F2E4"/>
<path fill-rule="evenodd" clip-rule="evenodd" d="M12.5095 24.0562L17.3002 26.844L9.11652 2.41699L0.5 17.068L5.72461 20.1082V48.9636L12.5095 52.8407V24.0562Z" fill="#D9D9D9"/>
<path fill-rule="evenodd" clip-rule="evenodd" d="M12.5095 24.0562L17.3002 26.844L9.11652 2.41699L0.5 17.068L5.72461 20.1082V48.9636L12.5095 52.8407V24.0562Z" fill="#D4F2E4"/>
<path fill-rule="evenodd" clip-rule="evenodd" d="M12.5095 24.0562L17.3002 26.844L9.11652 2.41699L0.5 17.068L5.72461 20.1082V48.9636L12.5095 52.8407V24.0562Z" fill="url(#paint26_linear_600_4087)" fill-opacity="0.4"/>
<defs>
<linearGradient id="paint0_linear_600_4087" x1="134.586" y1="-10.8684" x2="134.586" y2="25.2187" gradientUnits="userSpaceOnUse">
<stop stop-color="#245795"/>
<stop offset="1" stop-color="#8AD3A8"/>
</linearGradient>
<linearGradient id="paint1_linear_600_4087" x1="112.718" y1="8.30766" x2="100.192" y2="108.449" gradientUnits="userSpaceOnUse">
<stop stop-color="#245795"/>
<stop offset="1" stop-color="#8AD3A8"/>
</linearGradient>
<linearGradient id="paint2_linear_600_4087" x1="119.548" y1="7.53525" x2="119.548" y2="107.77" gradientUnits="userSpaceOnUse">
<stop stop-color="#245795"/>
<stop offset="1" stop-color="#8AD3A8"/>
</linearGradient>
<linearGradient id="paint3_linear_600_4087" x1="102.84" y1="-10.8684" x2="102.84" y2="25.2187" gradientUnits="userSpaceOnUse">
<stop stop-color="#245795"/>
<stop offset="1" stop-color="#8AD3A8"/>
</linearGradient>
<linearGradient id="paint4_linear_600_4087" x1="121.831" y1="93.9436" x2="156.665" y2="-0.250646" gradientUnits="userSpaceOnUse">
<stop stop-color="#D4F2E4"/>
<stop offset="1" stop-color="#71D5A4"/>
</linearGradient>
<linearGradient id="paint5_linear_600_4087" x1="124.708" y1="8.30766" x2="137.234" y2="108.448" gradientUnits="userSpaceOnUse">
<stop stop-color="#245795"/>
<stop offset="1" stop-color="#8AD3A8"/>
</linearGradient>
<linearGradient id="paint6_linear_600_4087" x1="117.878" y1="7.53525" x2="117.878" y2="107.77" gradientUnits="userSpaceOnUse">
<stop stop-color="#245795"/>
<stop offset="1" stop-color="#8AD3A8"/>
</linearGradient>
<linearGradient id="paint7_linear_600_4087" x1="92.4978" y1="71.9605" x2="92.4978" y2="84.4783" gradientUnits="userSpaceOnUse">
<stop stop-color="#245795"/>
<stop offset="1" stop-color="#8AD3A8"/>
</linearGradient>
<linearGradient id="paint8_linear_600_4087" x1="81.5624" y1="78.6122" x2="78.5242" y2="113.629" gradientUnits="userSpaceOnUse">
<stop stop-color="#245795"/>
<stop offset="1" stop-color="#8AD3A8"/>
</linearGradient>
<linearGradient id="paint9_linear_600_4087" x1="76.5972" y1="71.9605" x2="76.5972" y2="84.4783" gradientUnits="userSpaceOnUse">
<stop stop-color="#245795"/>
<stop offset="1" stop-color="#8AD3A8"/>
</linearGradient>
<linearGradient id="paint10_linear_600_4087" x1="95.588" y1="108.318" x2="100.275" y2="71.7762" gradientUnits="userSpaceOnUse">
<stop stop-color="#D4F2E4"/>
<stop offset="1" stop-color="#71D5A4"/>
</linearGradient>
<linearGradient id="paint11_linear_600_4087" x1="91.6357" y1="78.3443" x2="91.6357" y2="113.114" gradientUnits="userSpaceOnUse">
<stop stop-color="#245795"/>
<stop offset="1" stop-color="#8AD3A8"/>
</linearGradient>
<linearGradient id="paint12_linear_600_4087" x1="81.7544" y1="34.5382" x2="81.7544" y2="64.7331" gradientUnits="userSpaceOnUse">
<stop stop-color="#245795"/>
<stop offset="1" stop-color="#8AD3A8"/>
</linearGradient>
<linearGradient id="paint13_linear_600_4087" x1="59.8856" y1="50.5833" x2="51.0759" y2="134.762" gradientUnits="userSpaceOnUse">
<stop stop-color="#245795"/>
<stop offset="1" stop-color="#8AD3A8"/>
</linearGradient>
<linearGradient id="paint14_linear_600_4087" x1="50.0103" y1="34.5382" x2="50.0103" y2="64.7331" gradientUnits="userSpaceOnUse">
<stop stop-color="#245795"/>
<stop offset="1" stop-color="#8AD3A8"/>
</linearGradient>
<linearGradient id="paint15_linear_600_4087" x1="69.0005" y1="122.237" x2="94.301" y2="40.4722" gradientUnits="userSpaceOnUse">
<stop stop-color="#D4F2E4"/>
<stop offset="1" stop-color="#71D5A4"/>
</linearGradient>
<linearGradient id="paint16_linear_600_4087" x1="71.8784" y1="50.5833" x2="80.6883" y2="134.762" gradientUnits="userSpaceOnUse">
<stop stop-color="#245795"/>
<stop offset="1" stop-color="#8AD3A8"/>
</linearGradient>
<linearGradient id="paint17_linear_600_4087" x1="56.5141" y1="82.8594" x2="56.5141" y2="101.27" gradientUnits="userSpaceOnUse">
<stop stop-color="#245795"/>
<stop offset="1" stop-color="#8AD3A8"/>
</linearGradient>
<linearGradient id="paint18_linear_600_4087" x1="34.6453" y1="92.6423" x2="31.3479" y2="144.319" gradientUnits="userSpaceOnUse">
<stop stop-color="#245795"/>
<stop offset="1" stop-color="#8AD3A8"/>
</linearGradient>
<linearGradient id="paint19_linear_600_4087" x1="24.7691" y1="82.8594" x2="24.7691" y2="101.27" gradientUnits="userSpaceOnUse">
<stop stop-color="#245795"/>
<stop offset="1" stop-color="#8AD3A8"/>
</linearGradient>
<linearGradient id="paint20_linear_600_4087" x1="43.7599" y1="136.33" x2="53.7114" y2="83.5816" gradientUnits="userSpaceOnUse">
<stop stop-color="#D4F2E4"/>
<stop offset="1" stop-color="#71D5A4"/>
</linearGradient>
<linearGradient id="paint21_linear_600_4087" x1="46.6379" y1="92.6423" x2="49.9353" y2="144.319" gradientUnits="userSpaceOnUse">
<stop stop-color="#245795"/>
<stop offset="1" stop-color="#8AD3A8"/>
</linearGradient>
<linearGradient id="paint22_linear_600_4087" x1="16.3493" y1="113.614" x2="16.3493" y2="126.132" gradientUnits="userSpaceOnUse">
<stop stop-color="#245795"/>
<stop offset="1" stop-color="#8AD3A8"/>
</linearGradient>
<linearGradient id="paint23_linear_600_4087" x1="16.2933" y1="113.614" x2="16.2933" y2="126.132" gradientUnits="userSpaceOnUse">
<stop stop-color="#245795"/>
<stop offset="1" stop-color="#8AD3A8"/>
</linearGradient>
<linearGradient id="paint24_linear_600_4087" x1="25.7895" y1="149.971" x2="34.7294" y2="115.122" gradientUnits="userSpaceOnUse">
<stop stop-color="#D4F2E4"/>
<stop offset="1" stop-color="#71D5A4"/>
</linearGradient>
<linearGradient id="paint25_linear_600_4087" x1="13.822" y1="22.1756" x2="13.822" y2="57.3048" gradientUnits="userSpaceOnUse">
<stop stop-color="#245795"/>
<stop offset="1" stop-color="#8AD3A8"/>
</linearGradient>
<linearGradient id="paint26_linear_600_4087" x1="9.34423" y1="-2.41255" x2="9.34423" y2="61.0506" gradientUnits="userSpaceOnUse">
<stop stop-color="#245795"/>
<stop offset="1" stop-color="#8AD3A8"/>
</linearGradient>
</defs>
</svg>
