<svg width="126" height="142" viewBox="0 0 126 142" fill="none" xmlns="http://www.w3.org/2000/svg">
<g opacity="0.25">
<path d="M30.6914 135.09L53.363 83.5677" stroke="#9FB8ED" stroke-width="2" stroke-linecap="round"/>
<path d="M53.5215 84.0312L72.5302 105.378" stroke="#9FB8ED" stroke-width="2" stroke-linecap="round"/>
<path d="M74.5723 103.358L87.2557 74.6567" stroke="#9FB8ED" stroke-width="2" stroke-linecap="round"/>
<path d="M88.8477 71.6875L105.685 69.2248" stroke="#9FB8ED" stroke-width="2" stroke-linecap="round"/>
<path d="M106.438 69.0388L120.556 17.8086" stroke="#9FB8ED" stroke-width="2" stroke-linecap="round"/>
<rect x="0.866025" y="0.5" width="8.29605" height="8.29605" rx="3" transform="matrix(0.866025 -0.5 2.20305e-08 1 49.1395 81.6244)" fill="white" stroke="#9FB8ED" stroke-width="2"/>
<rect x="0.866025" y="0.5" width="8.29605" height="8.29605" rx="3" transform="matrix(0.866025 -0.5 2.20305e-08 1 68.1863 103.237)" fill="white" stroke="#9FB8ED" stroke-width="2"/>
<rect x="0.866025" y="0.5" width="8.29605" height="8.29605" rx="3" transform="matrix(0.866025 -0.5 2.20305e-08 1 25.6805 132.084)" fill="white" stroke="#9FB8ED" stroke-width="2"/>
<rect x="0.866025" y="0.5" width="8.29605" height="8.29605" rx="3" transform="matrix(0.866025 -0.5 2.20305e-08 1 82.9109 71.6059)" fill="white" stroke="#9FB8ED" stroke-width="2"/>
<rect x="0.866025" y="0.5" width="8.29605" height="8.29605" rx="3" transform="matrix(0.866025 -0.5 2.20305e-08 1 101.731 66.7992)" fill="white" stroke="#9FB8ED" stroke-width="2"/>
<rect x="0.866025" y="0.5" width="8.29605" height="8.29605" rx="3" transform="matrix(0.866025 -0.5 2.20305e-08 1 116.216 15.6674)" fill="white" stroke="#9FB8ED" stroke-width="2"/>
</g>
<path d="M12.8008 135.089L34.0846 105.967" stroke="#E6EFF1" stroke-width="2" stroke-linecap="round"/>
<path d="M12.8008 135.089L34.0846 105.967" stroke="url(#paint0_linear_600_2378)" stroke-width="2" stroke-linecap="round"/>
<path d="M37 103.946L54.6392 105.377" stroke="#E6EFF1" stroke-width="2" stroke-linecap="round"/>
<path d="M37 103.946L54.6392 105.377" stroke="url(#paint1_linear_600_2378)" stroke-width="2" stroke-linecap="round"/>
<path d="M56.6816 103.356L69.3651 74.6548" stroke="#E6EFF1" stroke-width="2" stroke-linecap="round"/>
<path d="M56.6816 103.356L69.3651 74.6548" stroke="url(#paint2_linear_600_2378)" stroke-width="2" stroke-linecap="round"/>
<path d="M70.957 71.6869L88.0636 33.9936" stroke="#E6EFF1" stroke-width="2" stroke-linecap="round"/>
<path d="M70.957 71.6869L88.0636 33.9936" stroke="url(#paint3_linear_600_2378)" stroke-width="2" stroke-linecap="round"/>
<path d="M87.7637 33.0812L102.668 17.8071" stroke="#E6EFF1" stroke-width="2" stroke-linecap="round"/>
<path d="M87.7637 33.0812L102.668 17.8071" stroke="url(#paint4_linear_600_2378)" stroke-width="2" stroke-linecap="round"/>
<rect x="0.866025" y="0.5" width="8.29605" height="8.29605" rx="3" transform="matrix(0.866025 -0.5 2.20305e-08 1 31.2488 103.607)" fill="white"/>
<rect x="0.866025" y="0.5" width="8.29605" height="8.29605" rx="3" transform="matrix(0.866025 -0.5 2.20305e-08 1 31.2488 103.607)" stroke="black" stroke-width="2"/>
<rect x="0.866025" y="0.5" width="8.29605" height="8.29605" rx="3" transform="matrix(0.866025 -0.5 2.20305e-08 1 31.2488 103.607)" stroke="url(#paint5_linear_600_2378)" stroke-width="2"/>
<rect x="0.866025" y="0.5" width="8.29605" height="8.29605" rx="3" transform="matrix(0.866025 -0.5 2.20305e-08 1 50.2957 103.236)" fill="white"/>
<rect x="0.866025" y="0.5" width="8.29605" height="8.29605" rx="3" transform="matrix(0.866025 -0.5 2.20305e-08 1 50.2957 103.236)" stroke="black" stroke-width="2"/>
<rect x="0.866025" y="0.5" width="8.29605" height="8.29605" rx="3" transform="matrix(0.866025 -0.5 2.20305e-08 1 50.2957 103.236)" stroke="url(#paint6_linear_600_2378)" stroke-width="2"/>
<rect x="0.866025" y="0.5" width="8.29605" height="8.29605" rx="3" transform="matrix(0.866025 -0.5 2.20305e-08 1 7.78985 132.084)" fill="white"/>
<rect x="0.866025" y="0.5" width="8.29605" height="8.29605" rx="3" transform="matrix(0.866025 -0.5 2.20305e-08 1 7.78985 132.084)" stroke="black" stroke-width="2"/>
<rect x="0.866025" y="0.5" width="8.29605" height="8.29605" rx="3" transform="matrix(0.866025 -0.5 2.20305e-08 1 7.78985 132.084)" stroke="url(#paint7_linear_600_2378)" stroke-width="2"/>
<rect x="0.866025" y="0.5" width="8.29605" height="8.29605" rx="3" transform="matrix(0.866025 -0.5 2.20305e-08 1 65.0203 71.6049)" fill="white"/>
<rect x="0.866025" y="0.5" width="8.29605" height="8.29605" rx="3" transform="matrix(0.866025 -0.5 2.20305e-08 1 65.0203 71.6049)" stroke="black" stroke-width="2"/>
<rect x="0.866025" y="0.5" width="8.29605" height="8.29605" rx="3" transform="matrix(0.866025 -0.5 2.20305e-08 1 65.0203 71.6049)" stroke="url(#paint8_linear_600_2378)" stroke-width="2"/>
<rect x="0.866025" y="0.5" width="8.29605" height="8.29605" rx="3" transform="matrix(0.866025 -0.5 2.20305e-08 1 83.8406 31.1107)" fill="white"/>
<rect x="0.866025" y="0.5" width="8.29605" height="8.29605" rx="3" transform="matrix(0.866025 -0.5 2.20305e-08 1 83.8406 31.1107)" stroke="black" stroke-width="2"/>
<rect x="0.866025" y="0.5" width="8.29605" height="8.29605" rx="3" transform="matrix(0.866025 -0.5 2.20305e-08 1 83.8406 31.1107)" stroke="url(#paint9_linear_600_2378)" stroke-width="2"/>
<rect x="0.866025" y="0.5" width="8.29605" height="8.29605" rx="3" transform="matrix(0.866025 -0.5 2.20305e-08 1 98.325 15.6664)" fill="white"/>
<rect x="0.866025" y="0.5" width="8.29605" height="8.29605" rx="3" transform="matrix(0.866025 -0.5 2.20305e-08 1 98.325 15.6664)" stroke="black" stroke-width="2"/>
<rect x="0.866025" y="0.5" width="8.29605" height="8.29605" rx="3" transform="matrix(0.866025 -0.5 2.20305e-08 1 98.325 15.6664)" stroke="url(#paint10_linear_600_2378)" stroke-width="2"/>
<path d="M16.3917 50.2432L12.0039 52.7604L9.90234 48.9269L10.3874 28.6508L11.2418 23.1084L16.3917 25.1868V50.2432Z" fill="#D9D9D9"/>
<path d="M16.3917 50.2432L12.0039 52.7604L9.90234 48.9269L10.3874 28.6508L11.2418 23.1084L16.3917 25.1868V50.2432Z" fill="#D4F2E4"/>
<path d="M16.3917 50.2432L12.0039 52.7604L9.90234 48.9269L10.3874 28.6508L11.2418 23.1084L16.3917 25.1868V50.2432Z" fill="url(#paint11_linear_600_2378)" fill-opacity="0.15"/>
<path d="M12.9607 0L8.62109 2.46312L11.9005 17.9835L16.7943 26.7882L21.4218 24.2901L12.9607 0Z" fill="#D9D9D9"/>
<path d="M12.9607 0L8.62109 2.46312L11.9005 17.9835L16.7943 26.7882L21.4218 24.2901L12.9607 0Z" fill="#D4F2E4"/>
<path fill-rule="evenodd" clip-rule="evenodd" d="M12.0095 24.0562L16.8002 26.844L8.61652 2.41699L0 17.068L5.22461 20.1082V48.9636L12.0095 52.8407V24.0562Z" fill="#D9D9D9"/>
<path fill-rule="evenodd" clip-rule="evenodd" d="M12.0095 24.0562L16.8002 26.844L8.61652 2.41699L0 17.068L5.22461 20.1082V48.9636L12.0095 52.8407V24.0562Z" fill="#D4F2E4"/>
<path fill-rule="evenodd" clip-rule="evenodd" d="M12.0095 24.0562L16.8002 26.844L8.61652 2.41699L0 17.068L5.22461 20.1082V48.9636L12.0095 52.8407V24.0562Z" fill="url(#paint12_linear_600_2378)" fill-opacity="0.4"/>
<defs>
<linearGradient id="paint0_linear_600_2378" x1="51.5135" y1="87.3453" x2="68.2248" y2="130.82" gradientUnits="userSpaceOnUse">
<stop stop-color="#8AD3A8"/>
<stop offset="0.985172" stop-color="#245795"/>
</linearGradient>
<linearGradient id="paint1_linear_600_2378" x1="69.0836" y1="79.5172" x2="81.3079" y2="108.854" gradientUnits="userSpaceOnUse">
<stop stop-color="#8AD3A8"/>
<stop offset="0.985172" stop-color="#245795"/>
</linearGradient>
<linearGradient id="paint2_linear_600_2378" x1="79.7513" y1="57.7886" x2="89.9955" y2="119.458" gradientUnits="userSpaceOnUse">
<stop stop-color="#8AD3A8"/>
<stop offset="0.985172" stop-color="#245795"/>
</linearGradient>
<linearGradient id="paint3_linear_600_2378" x1="100.92" y1="34.0399" x2="114.133" y2="69.0371" gradientUnits="userSpaceOnUse">
<stop stop-color="#8AD3A8"/>
<stop offset="0.985172" stop-color="#245795"/>
</linearGradient>
<linearGradient id="paint4_linear_600_2378" x1="113.584" y1="1.15215" x2="125.441" y2="59.083" gradientUnits="userSpaceOnUse">
<stop stop-color="#8AD3A8"/>
<stop offset="0.985172" stop-color="#245795"/>
</linearGradient>
<linearGradient id="paint5_linear_600_2378" x1="18.7273" y1="-5.23485" x2="11.6995" y2="23.5704" gradientUnits="userSpaceOnUse">
<stop stop-color="#8AD3A8"/>
<stop offset="0.985172" stop-color="#245795"/>
</linearGradient>
<linearGradient id="paint6_linear_600_2378" x1="18.7273" y1="-5.23485" x2="11.6995" y2="23.5704" gradientUnits="userSpaceOnUse">
<stop stop-color="#8AD3A8"/>
<stop offset="0.985172" stop-color="#245795"/>
</linearGradient>
<linearGradient id="paint7_linear_600_2378" x1="18.7273" y1="-5.23485" x2="11.6995" y2="23.5704" gradientUnits="userSpaceOnUse">
<stop stop-color="#8AD3A8"/>
<stop offset="0.985172" stop-color="#245795"/>
</linearGradient>
<linearGradient id="paint8_linear_600_2378" x1="18.7273" y1="-5.23485" x2="11.6995" y2="23.5704" gradientUnits="userSpaceOnUse">
<stop stop-color="#8AD3A8"/>
<stop offset="0.985172" stop-color="#245795"/>
</linearGradient>
<linearGradient id="paint9_linear_600_2378" x1="18.7273" y1="-5.23485" x2="11.6995" y2="23.5704" gradientUnits="userSpaceOnUse">
<stop stop-color="#8AD3A8"/>
<stop offset="0.985172" stop-color="#245795"/>
</linearGradient>
<linearGradient id="paint10_linear_600_2378" x1="18.7273" y1="-5.23485" x2="11.6995" y2="23.5704" gradientUnits="userSpaceOnUse">
<stop stop-color="#8AD3A8"/>
<stop offset="0.985172" stop-color="#245795"/>
</linearGradient>
<linearGradient id="paint11_linear_600_2378" x1="13.322" y1="22.1756" x2="13.322" y2="57.3048" gradientUnits="userSpaceOnUse">
<stop stop-color="#245795"/>
<stop offset="1" stop-color="#8AD3A8"/>
</linearGradient>
<linearGradient id="paint12_linear_600_2378" x1="8.84423" y1="-2.41255" x2="8.84423" y2="61.0506" gradientUnits="userSpaceOnUse">
<stop stop-color="#245795"/>
<stop offset="1" stop-color="#8AD3A8"/>
</linearGradient>
</defs>
</svg>
