<svg width="136" height="156" viewBox="0 0 136 156" fill="none" xmlns="http://www.w3.org/2000/svg">
<path d="M20.0996 78.5577L134.318 144.501V92.7055L125.439 82.4803L116.221 82.2541L102.84 60.0176L89.5266 49.425L73.8835 26.0338L65.0043 28.7598L53.7386 18.3197L36.6702 26.1243L25.0651 15.8652L20.0996 17.347V78.5577Z" fill="url(#paint0_linear_600_1394)"/>
<path d="M9.85352 83.7722L124.072 149.715V108.27L115.193 98.0565L105.975 97.8303L85.4903 71.4982L74.5639 70.6838L61.2395 50.0638L51.3423 54.1358L40.0765 43.6957L26.4128 40.5286L14.8191 30.2695L9.85352 31.7513V83.7722Z" fill="#D4F2E4"/>
<path d="M9.85352 83.7722L124.072 149.715V108.27L115.193 98.0565L105.975 97.8303L85.4903 71.4982L74.5639 70.6838L61.2395 50.0638L51.3423 54.1358L40.0765 43.6957L26.4128 40.5286L14.8191 30.2695L9.85352 31.7513V83.7722Z" fill="url(#paint1_linear_600_1394)" fill-opacity="0.5"/>
<path d="M0 89.5296L114.207 155.473V134.158L100.216 122.157L86.8913 116.819L66.407 89.3214L59.2358 90.6674L51.386 78.2932L41.4775 76.4947L30.223 66.0547L16.5593 70.3302L4.95423 58.4989L0 58.0352V89.5296Z" fill="#D4F2E4"/>
<path d="M118.719 26L119.719 26.5L119.223 31.0898L114.223 28.0898L118.719 26Z" fill="#D9D9D9"/>
<path d="M118.719 26L119.719 26.5L119.223 31.0898L114.223 28.0898L118.719 26Z" fill="#D4F2E4"/>
<path d="M118.719 26L119.719 26.5L119.223 31.0898L114.223 28.0898L118.719 26Z" fill="url(#paint2_linear_600_1394)" fill-opacity="0.15"/>
<path d="M127.219 50L135.219 35.5L131.719 36.5L123.219 46L122.719 52.5L127.219 50Z" fill="#D9D9D9"/>
<path d="M127.219 50L135.219 35.5L131.719 36.5L123.219 46L122.719 52.5L127.219 50Z" fill="#D4F2E4"/>
<path d="M127.219 50L135.219 35.5L131.719 36.5L123.219 46L122.719 52.5L127.219 50Z" fill="url(#paint3_linear_600_1394)" fill-opacity="0.05"/>
<path d="M125.672 6.50969L130 3.62109L123.716 0L119.216 3L125.672 6.50969Z" fill="#D9D9D9"/>
<path d="M125.672 6.50969L130 3.62109L123.716 0L119.216 3L125.672 6.50969Z" fill="#D4F2E4"/>
<path d="M125.719 34.8604V6.5L119.219 3V31.0865L114.219 28.0865L122.719 52.5L131.219 38L125.719 34.8604Z" fill="#FDCD0B"/>
<path d="M125.719 34.8604V6.5L119.219 3V31.0865L114.219 28.0865L122.719 52.5L131.219 38L125.719 34.8604Z" fill="#D4F2E4"/>
<path d="M125.719 34.8604V6.5L119.219 3V31.0865L114.219 28.0865L122.719 52.5L131.219 38L125.719 34.8604Z" fill="url(#paint4_linear_600_1394)" fill-opacity="0.4"/>
<path d="M131.219 38.0001L135.219 35.5001L129.757 32.126L126.757 31.626L125.728 34.8697L131.219 38.0001Z" fill="#D9D9D9"/>
<path d="M131.219 38.0001L135.219 35.5001L129.757 32.126L126.757 31.626L125.728 34.8697L131.219 38.0001Z" fill="#D4F2E4"/>
<path d="M131.219 38.0001L135.219 35.5001L129.757 32.126L126.757 31.626L125.728 34.8697L131.219 38.0001Z" fill="url(#paint5_linear_600_1394)" fill-opacity="0.15"/>
<path d="M125.705 6.48116L130 3.61523V32.265L125.705 34.8755V6.48116Z" fill="#D9D9D9"/>
<path d="M125.705 6.48116L130 3.61523V32.265L125.705 34.8755V6.48116Z" fill="#D4F2E4"/>
<path d="M125.705 6.48116L130 3.61523V32.265L125.705 34.8755V6.48116Z" fill="url(#paint6_linear_600_1394)" fill-opacity="0.5"/>
<defs>
<linearGradient id="paint0_linear_600_1394" x1="140.343" y1="-4.51676" x2="140.343" y2="166.643" gradientUnits="userSpaceOnUse">
<stop stop-color="#245795"/>
<stop offset="1" stop-color="#8AD3A8"/>
</linearGradient>
<linearGradient id="paint1_linear_600_1394" x1="130.096" y1="12.6094" x2="130.096" y2="170.088" gradientUnits="userSpaceOnUse">
<stop stop-color="#245795"/>
<stop offset="1" stop-color="#8AD3A8"/>
</linearGradient>
<linearGradient id="paint2_linear_600_1394" x1="116.823" y1="25.4732" x2="116.823" y2="32.3955" gradientUnits="userSpaceOnUse">
<stop stop-color="#245795"/>
<stop offset="1" stop-color="#8AD3A8"/>
</linearGradient>
<linearGradient id="paint3_linear_600_1394" x1="128.632" y1="34.9652" x2="128.632" y2="55.1054" gradientUnits="userSpaceOnUse">
<stop stop-color="#245795"/>
<stop offset="1" stop-color="#8AD3A8"/>
</linearGradient>
<linearGradient id="paint4_linear_600_1394" x1="122.269" y1="-1.74107" x2="122.269" y2="60.5596" gradientUnits="userSpaceOnUse">
<stop stop-color="#245795"/>
<stop offset="1" stop-color="#8AD3A8"/>
</linearGradient>
<linearGradient id="paint5_linear_600_1394" x1="130.218" y1="31.4254" x2="130.218" y2="38.977" gradientUnits="userSpaceOnUse">
<stop stop-color="#245795"/>
<stop offset="1" stop-color="#8AD3A8"/>
</linearGradient>
<linearGradient id="paint6_linear_600_1394" x1="127.737" y1="2.63179" x2="127.737" y2="39.6664" gradientUnits="userSpaceOnUse">
<stop stop-color="#245795"/>
<stop offset="1" stop-color="#8AD3A8"/>
</linearGradient>
</defs>
</svg>
