<svg width="106" height="163" viewBox="0 0 106 163" fill="none" xmlns="http://www.w3.org/2000/svg">
<path d="M-0.000946045 111.03L13.0391 118.56L11.8191 0L-0.000946045 111.03Z" fill="#D4F2E4"/>
<path d="M-0.000946045 111.03L13.0391 118.56L11.8191 0L-0.000946045 111.03Z" fill="url(#paint0_linear_600_3958)"/>
<path d="M-0.000946045 111.03L13.0391 118.56L11.8191 0L-0.000946045 111.03Z" fill="black" fill-opacity="0.1"/>
<path d="M13.0303 118.56L26.0703 111.03L11.8203 0L13.0303 118.56Z" fill="#D4F2E4"/>
<path d="M13.0303 118.56L26.0703 111.03L11.8203 0L13.0303 118.56Z" fill="url(#paint1_linear_600_3958)"/>
<path d="M19.0499 121.52L32.0898 129.05V19.0098L19.0499 121.52Z" fill="#D4F2E4"/>
<path d="M19.0499 121.52L32.0898 129.05V19.0098L19.0499 121.52Z" fill="url(#paint2_linear_600_3958)"/>
<path d="M32.0889 129.05L45.1289 121.52L32.0889 19.0098V129.05Z" fill="#D4F2E4"/>
<path d="M32.0889 129.05L45.1289 121.52L32.0889 19.0098V129.05Z" fill="url(#paint3_linear_600_3958)" fill-opacity="0.65"/>
<path d="M38.3799 132.57L51.4199 140.1V44.9697L38.3799 132.57Z" fill="#D4F2E4"/>
<path d="M38.3799 132.57L51.4199 140.1V44.9697L38.3799 132.57Z" fill="url(#paint4_linear_600_3958)" fill-opacity="0.5"/>
<path d="M51.419 140.1L64.459 132.57L51.419 44.9697V140.1Z" fill="#D4F2E4"/>
<path d="M51.419 140.1L64.459 132.57L51.419 44.9697V140.1Z" fill="url(#paint5_linear_600_3958)" fill-opacity="0.35"/>
<path d="M57.2999 143.61L70.3398 151.14V73.7998L57.2999 143.61Z" fill="#D4F2E4"/>
<path d="M57.2999 143.61L70.3398 151.14V73.7998L57.2999 143.61Z" fill="url(#paint6_linear_600_3958)" fill-opacity="0.2"/>
<path d="M70.3292 151.14L83.3691 143.61L70.3292 73.7998V151.14Z" fill="#D4F2E4"/>
<path d="M70.3292 151.14L83.3691 143.61L70.3292 73.7998V151.14Z" fill="url(#paint7_linear_600_3958)" fill-opacity="0.15"/>
<path d="M75.9407 154.66L88.9707 162.19V112.04L75.9407 154.66Z" fill="#D4F2E4"/>
<path d="M75.9407 154.66L88.9707 162.19V112.04L75.9407 154.66Z" fill="url(#paint8_linear_600_3958)"/>
<path d="M88.9698 162.19L102.01 154.66L88.9698 112.04V162.19Z" fill="#D4F2E4"/>
<path d="M88.9698 162.19L102.01 154.66L88.9698 112.04V162.19Z" fill="url(#paint9_linear_600_3958)" fill-opacity="0.15"/>
<path d="M89.4902 41.0498L90.4902 41.5498L89.9941 46.1396L84.9941 43.1396L89.4902 41.0498Z" fill="#D9D9D9"/>
<path d="M89.4902 41.0498L90.4902 41.5498L89.9941 46.1396L84.9941 43.1396L89.4902 41.0498Z" fill="#D4F2E4"/>
<path d="M89.4902 41.0498L90.4902 41.5498L89.9941 46.1396L84.9941 43.1396L89.4902 41.0498Z" fill="url(#paint10_linear_600_3958)" fill-opacity="0.4"/>
<path d="M97.9902 65.0498L105.99 50.5498L102.49 51.5498L93.9902 61.0498L93.4902 67.5498L97.9902 65.0498Z" fill="#D9D9D9"/>
<path d="M97.9902 65.0498L105.99 50.5498L102.49 51.5498L93.9902 61.0498L93.4902 67.5498L97.9902 65.0498Z" fill="#D4F2E4"/>
<path d="M97.9902 65.0498L105.99 50.5498L102.49 51.5498L93.9902 61.0498L93.4902 67.5498L97.9902 65.0498Z" fill="url(#paint11_linear_600_3958)" fill-opacity="0.05"/>
<path d="M96.4434 21.5595L100.771 18.6709L94.4874 15.0498L89.9874 18.0498L96.4434 21.5595Z" fill="#D9D9D9"/>
<path d="M96.4434 21.5595L100.771 18.6709L94.4874 15.0498L89.9874 18.0498L96.4434 21.5595Z" fill="#D4F2E4"/>
<path d="M96.4902 49.9102V21.5498L89.9902 18.0498V46.1363L84.9902 43.1363L93.4902 67.5498L101.99 53.0498L96.4902 49.9102Z" fill="#FDCD0B"/>
<path d="M96.4902 49.9102V21.5498L89.9902 18.0498V46.1363L84.9902 43.1363L93.4902 67.5498L101.99 53.0498L96.4902 49.9102Z" fill="#D4F2E4"/>
<path d="M96.4902 49.9102V21.5498L89.9902 18.0498V46.1363L84.9902 43.1363L93.4902 67.5498L101.99 53.0498L96.4902 49.9102Z" fill="url(#paint12_linear_600_3958)" fill-opacity="0.4"/>
<path d="M101.99 53.0499L105.99 50.5499L100.528 47.1758L97.5281 46.6758L96.4999 49.9195L101.99 53.0499Z" fill="#D9D9D9"/>
<path d="M101.99 53.0499L105.99 50.5499L100.528 47.1758L97.5281 46.6758L96.4999 49.9195L101.99 53.0499Z" fill="#D4F2E4"/>
<path d="M101.99 53.0499L105.99 50.5499L100.528 47.1758L97.5281 46.6758L96.4999 49.9195L101.99 53.0499Z" fill="url(#paint13_linear_600_3958)" fill-opacity="0.3"/>
<path d="M96.4763 21.531L100.771 18.665V47.3148L96.4763 49.9253V21.531Z" fill="#D9D9D9"/>
<path d="M96.4763 21.531L100.771 18.665V47.3148L96.4763 49.9253V21.531Z" fill="#D4F2E4"/>
<path d="M96.4763 21.531L100.771 18.665V47.3148L96.4763 49.9253V21.531Z" fill="url(#paint14_linear_600_3958)" fill-opacity="0.5"/>
<defs>
<linearGradient id="paint0_linear_600_3958" x1="6.17434" y1="-11.3556" x2="6.17431" y2="137.864" gradientUnits="userSpaceOnUse">
<stop stop-color="#245795"/>
<stop offset="1" stop-color="#8AD3A8"/>
</linearGradient>
<linearGradient id="paint1_linear_600_3958" x1="18.5686" y1="-11.3556" x2="18.5686" y2="137.864" gradientUnits="userSpaceOnUse">
<stop stop-color="#245795"/>
<stop offset="1" stop-color="#8AD3A8"/>
</linearGradient>
<linearGradient id="paint2_linear_600_3958" x1="25.2251" y1="8.47022" x2="25.2251" y2="146.966" gradientUnits="userSpaceOnUse">
<stop stop-color="#245795"/>
<stop offset="1" stop-color="#8AD3A8"/>
</linearGradient>
<linearGradient id="paint3_linear_600_3958" x1="41.0791" y1="9.53748" x2="91.1977" y2="129.052" gradientUnits="userSpaceOnUse">
<stop stop-color="#245795"/>
<stop offset="1" stop-color="#8AD3A8"/>
</linearGradient>
<linearGradient id="paint4_linear_600_3958" x1="43.3212" y1="36.7809" x2="64.6451" y2="154.405" gradientUnits="userSpaceOnUse">
<stop stop-color="#245795"/>
<stop offset="1" stop-color="#8AD3A8"/>
</linearGradient>
<linearGradient id="paint5_linear_600_3958" x1="60.4091" y1="36.7809" x2="99.3369" y2="144.158" gradientUnits="userSpaceOnUse">
<stop stop-color="#245795"/>
<stop offset="1" stop-color="#8AD3A8"/>
</linearGradient>
<linearGradient id="paint6_linear_600_3958" x1="66.29" y1="67.1423" x2="93.0745" y2="158.019" gradientUnits="userSpaceOnUse">
<stop stop-color="#245795"/>
<stop offset="1" stop-color="#8AD3A8"/>
</linearGradient>
<linearGradient id="paint7_linear_600_3958" x1="79.3193" y1="67.1423" x2="106.104" y2="158.019" gradientUnits="userSpaceOnUse">
<stop stop-color="#245795"/>
<stop offset="1" stop-color="#8AD3A8"/>
</linearGradient>
<linearGradient id="paint8_linear_600_3958" x1="83.7388" y1="161.649" x2="112.63" y2="110.559" gradientUnits="userSpaceOnUse">
<stop stop-color="#D4F2E4"/>
<stop offset="1" stop-color="#71D5A4"/>
</linearGradient>
<linearGradient id="paint9_linear_600_3958" x1="88.9475" y1="95.6477" x2="88.9475" y2="118.372" gradientUnits="userSpaceOnUse">
<stop stop-color="#245795"/>
<stop offset="1" stop-color="#8AD3A8"/>
</linearGradient>
<linearGradient id="paint10_linear_600_3958" x1="87.5948" y1="40.523" x2="87.5948" y2="47.4453" gradientUnits="userSpaceOnUse">
<stop stop-color="#245795"/>
<stop offset="1" stop-color="#8AD3A8"/>
</linearGradient>
<linearGradient id="paint11_linear_600_3958" x1="99.4031" y1="50.015" x2="99.4031" y2="70.1552" gradientUnits="userSpaceOnUse">
<stop stop-color="#245795"/>
<stop offset="1" stop-color="#8AD3A8"/>
</linearGradient>
<linearGradient id="paint12_linear_600_3958" x1="93.0408" y1="13.3087" x2="93.0408" y2="75.6094" gradientUnits="userSpaceOnUse">
<stop stop-color="#245795"/>
<stop offset="1" stop-color="#8AD3A8"/>
</linearGradient>
<linearGradient id="paint13_linear_600_3958" x1="100.989" y1="46.4753" x2="100.989" y2="54.0268" gradientUnits="userSpaceOnUse">
<stop stop-color="#245795"/>
<stop offset="1" stop-color="#8AD3A8"/>
</linearGradient>
<linearGradient id="paint14_linear_600_3958" x1="98.508" y1="17.6816" x2="98.508" y2="54.7162" gradientUnits="userSpaceOnUse">
<stop stop-color="#245795"/>
<stop offset="1" stop-color="#8AD3A8"/>
</linearGradient>
</defs>
</svg>
