<svg width="218" height="180" viewBox="0 0 218 180" fill="none" xmlns="http://www.w3.org/2000/svg">
<path d="M174.404 129.059C190.091 115.348 218 87.3357 218 61.6294C218 47.406 212.311 33.7651 202.184 23.7077C192.057 13.6502 178.322 8 164 8C149.678 8 135.943 13.6502 125.816 23.7077C115.689 33.7651 110 47.406 110 61.6294C110 87.3357 137.9 115.348 153.596 129.059C156.459 131.597 160.162 133 164 133C167.838 133 171.541 131.597 174.404 129.059ZM146 61.6294C146 56.8883 147.896 52.3413 151.272 48.9888C154.648 45.6363 159.226 43.7529 164 43.7529C168.774 43.7529 173.352 45.6363 176.728 48.9888C180.104 52.3413 182 56.8883 182 61.6294C182 66.3705 180.104 70.9175 176.728 74.2699C173.352 77.6224 168.774 79.5058 164 79.5058C159.226 79.5058 154.648 77.6224 151.272 74.2699C147.896 70.9175 146 66.3705 146 61.6294Z" fill="url(#paint0_linear_501_35944)" fill-opacity="0.4"/>
<path d="M140.645 54.8184C139.78 58.2791 138.383 61.6251 138.237 65.2422C138.123 68.1192 137.445 70.2665 135.934 71.903C135.35 72.5388 133.714 71.903 133.099 70.9544C132.129 69.4638 133.724 66.4826 131.837 66.1074C129.481 65.6383 128.168 66.0969 127.324 69.1928C126.427 72.4033 128.564 75.1239 129.575 78.1468C129.805 78.8348 130.461 79.7834 129.075 79.971C126.99 80.2524 124.165 78.9391 123.342 76.8856C122.842 75.6243 120.757 76.1455 120.069 75.3116C119.068 74.1024 119.11 72.716 118.005 73.0496C117.119 73.3206 116.504 74.165 115.691 74.6549C114.138 75.5826 111.719 78.7306 109.853 78.4596C102.849 77.4484 99.3359 77.6882 94.7911 79.3456C93.4047 79.8459 92.3623 78.9495 91.3304 79.1475C90.0066 79.4081 89.3082 78.3657 88.3596 77.8446C88.1094 78.5221 87.5987 79.6479 88.172 80.4088C88.6411 81.0342 89.7668 80.9717 90.7571 80.9717C91.9245 80.9717 93.3422 81.5971 94.7911 82.6708C95.5103 83.2024 97.0843 82.9835 97.7931 82.8688C100.274 82.4727 101.619 81.1385 104.277 82.233C107.049 83.3692 109.103 84.9431 109.03 88.2892C108.978 90.6554 109.447 93.1467 109.124 95.3669C108.207 101.59 106.904 106.249 102.744 111.607C101.911 112.681 101.733 114.88 100.858 115.954C99.4088 117.726 96.6778 119.206 94.9996 120.811C93.5402 122.208 92.2998 124.512 90.6633 125.669C87.755 127.733 87.2234 129.223 84.6592 127.993C83.2103 127.295 80.6877 123.49 79.7183 122.146C78.3528 120.249 77.3833 118.101 76.883 115.818C76.612 114.578 76.5807 113.338 76.4556 112.076C76.195 109.377 75.2673 108.48 73.1826 107.01C71.1082 105.551 70.4828 104.248 69.0756 102.132C67.1368 99.2133 64.4578 99.2759 61.8206 97.5351C60.5906 96.7325 59.8401 95.8986 59.4961 94.4392C59.3398 93.7513 59.7359 91.0828 59.7463 90.4678C59.7776 88.8521 59.3189 87.5804 59.3606 86.0377C59.4961 81.3782 66.2924 77.1045 70.0242 75.4367C72.7448 74.2275 74.4855 75.0197 76.8517 74.905C77.9775 74.8529 79.8121 74.2796 80.8441 75.2073C81.5529 75.8432 82.5431 76.0725 83.3458 76.5937C84.482 76.8543 85.6703 77.0419 86.9315 77.0419C86.9732 77.0419 86.9837 77.0732 87.0254 77.0732C86.3061 76.6562 85.6077 76.1768 84.9197 75.6139C82.8975 73.9461 81.2506 71.9343 78.7489 70.9544C76.195 69.9537 73.6516 70.2456 70.9831 70.402C68.1687 70.5687 65.5419 70.0476 63.2591 69.4638C60.601 68.7863 59.5899 66.6181 59.2772 63.2825C59.1626 62.1046 59.9339 60.3951 60.0277 59.0817C60.1737 56.997 58.6414 55.5481 60.0903 53.2861C61.56 50.9824 63.1966 48.1367 65.6045 46.7921C67.7205 45.6142 70.2326 45.2911 72.4112 44.2591C74.5064 43.2688 76.4035 41.8929 78.2068 40.444C81.0734 38.1612 83.7314 35.5969 86.8899 33.6894C94.051 29.3635 102.713 31.5733 109.999 27.9876C113.627 26.2051 117.588 20.201 122.028 20.0551C112.095 10.2046 99.2108 3.33529 84.8155 0.948242C86.1915 2.21994 87.3276 3.63758 88.0782 5.23242C89.5271 8.31786 88.3179 9.87101 86.7231 12.3936C85.1595 14.8849 86.6397 17.6159 84.3048 19.5443C82.5744 20.9828 79.5619 21.3997 77.498 22.1502C74.8191 23.1196 72.1506 24.0995 69.4717 25.048C66.7511 25.9966 63.7073 26.9139 60.7887 26.4136C57.6303 25.882 56.9214 24.4018 55.5664 21.8896C55.2953 21.3893 55.0556 18.5019 52.7936 18.4081C49.7707 18.283 47.4983 18.1579 45.6116 19.4088C43.0682 21.0974 42.2864 24.7353 41.6923 27.7061C40.9313 31.5004 42.7764 36.1911 40.4623 39.5892C39.0863 41.601 36.6159 42.3724 34.3122 42.6434C29.7779 43.1854 25.4103 41.5072 20.9177 41.4759C17.3006 41.4551 14.6113 43.1646 13.9129 45.9999C13.4334 47.9491 14.4758 50.0339 14.5279 52.0561C14.6008 55.0998 14.3611 57.7058 13.7669 60.4368C13.5376 61.4896 12.5891 62.7405 11.7447 62.0734C9.39937 60.2284 7.57521 58.0706 6.19927 55.7253C5.70935 58.3312 5.36536 60.9893 5.17773 63.689C6.09503 64.0747 7.36673 65.0963 8.23191 65.8259C10.8483 68.0462 10.619 72.2783 12.1721 75.2386C14.5696 79.8042 19.2394 80.5235 23.0128 83.4109C25.0351 84.964 26.7133 86.9862 26.9426 89.6234C27.0677 91.0202 26.6716 92.0209 26.4527 93.3656C25.796 97.3787 26.3797 100.37 28.2873 103.977C31.6229 110.283 36.8973 116.475 43.7041 118.987C44.9132 119.435 46.6644 119.873 47.3003 120.884C47.8944 121.833 44.4754 123.157 43.6415 123.657C41.1502 125.148 38.7423 125.898 36.4178 126.086C47.1127 132.986 59.8297 137 73.4953 137C111.334 137 142 106.333 142 68.4944C142.011 63.8246 141.542 59.2485 140.645 54.8184ZM40.3685 48.2931C39.9619 49.3251 39.6596 50.0652 39.5137 51.2847C39.4199 52.0665 39.5867 52.7336 39.0029 53.3695C38.1899 54.2555 36.9703 54.0679 36.0634 53.432C34.0412 52.0248 32.7174 49.6378 30.6952 48.1367C29.8717 47.5322 28.7147 47.2924 29.0065 46.1354C29.3401 44.8637 31.1642 44.4988 32.2379 44.5093C33.6555 44.5197 35.1566 45.364 36.3136 44.4676C37.2517 43.7379 38.6277 43.3418 39.399 43.9151C40.6603 44.8637 40.8897 46.9693 40.3685 48.2931Z" fill="#C9EDDB"/>
<path d="M140.645 54.8184C139.78 58.2791 138.383 61.6251 138.237 65.2422C138.123 68.1192 137.445 70.2665 135.934 71.903C135.35 72.5388 133.714 71.903 133.099 70.9544C132.129 69.4638 133.724 66.4826 131.837 66.1074C129.481 65.6383 128.168 66.0969 127.324 69.1928C126.427 72.4033 128.564 75.1239 129.575 78.1468C129.805 78.8348 130.461 79.7834 129.075 79.971C126.99 80.2524 124.165 78.9391 123.342 76.8856C122.842 75.6243 120.757 76.1455 120.069 75.3116C119.068 74.1024 119.11 72.716 118.005 73.0496C117.119 73.3206 116.504 74.165 115.691 74.6549C114.138 75.5826 111.719 78.7306 109.853 78.4596C102.849 77.4484 99.3359 77.6882 94.7911 79.3456C93.4047 79.8459 92.3623 78.9495 91.3304 79.1475C90.0066 79.4081 89.3082 78.3657 88.3596 77.8446C88.1094 78.5221 87.5987 79.6479 88.172 80.4088C88.6411 81.0342 89.7668 80.9717 90.7571 80.9717C91.9245 80.9717 93.3422 81.5971 94.7911 82.6708C95.5103 83.2024 97.0843 82.9835 97.7931 82.8688C100.274 82.4727 101.619 81.1385 104.277 82.233C107.049 83.3692 109.103 84.9431 109.03 88.2892C108.978 90.6554 109.447 93.1467 109.124 95.3669C108.207 101.59 106.904 106.249 102.744 111.607C101.911 112.681 101.733 114.88 100.858 115.954C99.4088 117.726 96.6778 119.206 94.9996 120.811C93.5402 122.208 92.2998 124.512 90.6633 125.669C87.755 127.733 87.2234 129.223 84.6592 127.993C83.2103 127.295 80.6877 123.49 79.7183 122.146C78.3528 120.249 77.3833 118.101 76.883 115.818C76.612 114.578 76.5807 113.338 76.4556 112.076C76.195 109.377 75.2673 108.48 73.1826 107.01C71.1082 105.551 70.4828 104.248 69.0756 102.132C67.1368 99.2133 64.4578 99.2759 61.8206 97.5351C60.5906 96.7325 59.8401 95.8986 59.4961 94.4392C59.3398 93.7513 59.7359 91.0828 59.7463 90.4678C59.7776 88.8521 59.3189 87.5804 59.3606 86.0377C59.4961 81.3782 66.2924 77.1045 70.0242 75.4367C72.7448 74.2275 74.4855 75.0197 76.8517 74.905C77.9775 74.8529 79.8121 74.2796 80.8441 75.2073C81.5529 75.8432 82.5431 76.0725 83.3458 76.5937C84.482 76.8543 85.6703 77.0419 86.9315 77.0419C86.9732 77.0419 86.9837 77.0732 87.0254 77.0732C86.3061 76.6562 85.6077 76.1768 84.9197 75.6139C82.8975 73.9461 81.2506 71.9343 78.7489 70.9544C76.195 69.9537 73.6516 70.2456 70.9831 70.402C68.1687 70.5687 65.5419 70.0476 63.2591 69.4638C60.601 68.7863 59.5899 66.6181 59.2772 63.2825C59.1626 62.1046 59.9339 60.3951 60.0277 59.0817C60.1737 56.997 58.6414 55.5481 60.0903 53.2861C61.56 50.9824 63.1966 48.1367 65.6045 46.7921C67.7205 45.6142 70.2326 45.2911 72.4112 44.2591C74.5064 43.2688 76.4035 41.8929 78.2068 40.444C81.0734 38.1612 83.7314 35.5969 86.8899 33.6894C94.051 29.3635 102.713 31.5733 109.999 27.9876C113.627 26.2051 117.588 20.201 122.028 20.0551C112.095 10.2046 99.2108 3.33529 84.8155 0.948242C86.1915 2.21994 87.3276 3.63758 88.0782 5.23242C89.5271 8.31786 88.3179 9.87101 86.7231 12.3936C85.1595 14.8849 86.6397 17.6159 84.3048 19.5443C82.5744 20.9828 79.5619 21.3997 77.498 22.1502C74.8191 23.1196 72.1506 24.0995 69.4717 25.048C66.7511 25.9966 63.7073 26.9139 60.7887 26.4136C57.6303 25.882 56.9214 24.4018 55.5664 21.8896C55.2953 21.3893 55.0556 18.5019 52.7936 18.4081C49.7707 18.283 47.4983 18.1579 45.6116 19.4088C43.0682 21.0974 42.2864 24.7353 41.6923 27.7061C40.9313 31.5004 42.7764 36.1911 40.4623 39.5892C39.0863 41.601 36.6159 42.3724 34.3122 42.6434C29.7779 43.1854 25.4103 41.5072 20.9177 41.4759C17.3006 41.4551 14.6113 43.1646 13.9129 45.9999C13.4334 47.9491 14.4758 50.0339 14.5279 52.0561C14.6008 55.0998 14.3611 57.7058 13.7669 60.4368C13.5376 61.4896 12.5891 62.7405 11.7447 62.0734C9.39937 60.2284 7.57521 58.0706 6.19927 55.7253C5.70935 58.3312 5.36536 60.9893 5.17773 63.689C6.09503 64.0747 7.36673 65.0963 8.23191 65.8259C10.8483 68.0462 10.619 72.2783 12.1721 75.2386C14.5696 79.8042 19.2394 80.5235 23.0128 83.4109C25.0351 84.964 26.7133 86.9862 26.9426 89.6234C27.0677 91.0202 26.6716 92.0209 26.4527 93.3656C25.796 97.3787 26.3797 100.37 28.2873 103.977C31.6229 110.283 36.8973 116.475 43.7041 118.987C44.9132 119.435 46.6644 119.873 47.3003 120.884C47.8944 121.833 44.4754 123.157 43.6415 123.657C41.1502 125.148 38.7423 125.898 36.4178 126.086C47.1127 132.986 59.8297 137 73.4953 137C111.334 137 142 106.333 142 68.4944C142.011 63.8246 141.542 59.2485 140.645 54.8184ZM40.3685 48.2931C39.9619 49.3251 39.6596 50.0652 39.5137 51.2847C39.4199 52.0665 39.5867 52.7336 39.0029 53.3695C38.1899 54.2555 36.9703 54.0679 36.0634 53.432C34.0412 52.0248 32.7174 49.6378 30.6952 48.1367C29.8717 47.5322 28.7147 47.2924 29.0065 46.1354C29.3401 44.8637 31.1642 44.4988 32.2379 44.5093C33.6555 44.5197 35.1566 45.364 36.3136 44.4676C37.2517 43.7379 38.6277 43.3418 39.399 43.9151C40.6603 44.8637 40.8897 46.9693 40.3685 48.2931Z" fill="url(#paint1_linear_501_35944)" fill-opacity="0.15"/>
<path fill-rule="evenodd" clip-rule="evenodd" d="M11.7544 62.0841C12.5883 62.7512 13.5473 61.49 13.7767 60.4476C14.3708 57.7061 14.6001 55.1106 14.5376 52.0668C14.513 51.2684 14.3373 50.4618 14.1619 49.6574C13.8909 48.414 13.621 47.1755 13.9122 45.9794C14.6106 43.1441 17.2999 41.4346 20.917 41.4554C22.8304 41.4687 24.7212 41.7808 26.6118 42.0929L26.6118 42.0929C29.1602 42.5135 31.7084 42.9341 34.3115 42.6229C36.6152 42.3519 39.0856 41.5805 40.4616 39.5687C41.8852 37.4782 41.7347 34.9025 41.5853 32.3439V32.3439C41.4918 30.7434 41.3988 29.1497 41.6916 27.6856C42.2857 24.7148 43.0675 21.0769 45.6109 19.3883C47.4553 18.1655 49.6682 18.2576 52.5905 18.3792L52.7929 18.3876C54.6095 18.4629 55.1218 20.34 55.3935 21.3354L55.3935 21.3355C55.4601 21.5795 55.5123 21.7706 55.5656 21.8691L55.6849 22.0905C56.9651 24.4684 57.7235 25.8772 60.788 26.393C63.7066 26.8934 66.7504 25.9761 69.471 25.0275C71.3284 24.3796 73.1708 23.7068 75.0155 23.0332C75.8418 22.7315 76.6686 22.4296 77.4973 22.1297C78.1207 21.9042 78.8279 21.7087 79.5593 21.5066C81.2613 21.0363 83.0937 20.5299 84.304 19.5238C85.6092 18.4459 85.7223 17.1172 85.8413 15.7198C85.9352 14.6172 86.0328 13.4718 86.7224 12.373C86.8243 12.2108 86.9247 12.0526 87.0229 11.8977C88.4526 9.64438 89.4332 8.09891 88.0775 5.2119C87.3269 3.61706 86.1908 2.19942 84.8148 0.927718C81.1352 0.333561 77.3618 0 73.505 0C40.0446 0 12.1922 24.006 6.20898 55.7256C7.58493 58.0814 9.40909 60.2287 11.7544 62.0841ZM80.6776 38.3967C82.6477 36.7342 84.619 35.0706 86.8371 33.731C90.6424 31.4323 94.8714 30.9761 99.0848 30.5216C102.801 30.1208 106.504 29.7213 109.895 28.0604C111.287 27.376 112.731 26.0692 114.232 24.7105C116.64 22.5308 119.195 20.2178 121.924 20.1279C131.232 29.4572 137.872 41.4446 140.593 54.86C140.334 55.8939 140.027 56.9176 139.72 57.9413C139 60.3442 138.28 62.7474 138.185 65.2838C138.07 68.1608 137.393 70.3081 135.881 71.9446C135.297 72.5805 133.661 71.9446 133.046 70.996C132.638 70.3627 132.692 69.4604 132.743 68.6031C132.812 67.4426 132.876 66.3648 131.785 66.149C129.429 65.6903 128.115 66.149 127.271 69.2344C126.625 71.5478 127.554 73.6067 128.502 75.7077C128.87 76.5226 129.24 77.3437 129.523 78.1885C129.558 78.296 129.605 78.41 129.652 78.5264L129.652 78.5265C129.907 79.1546 130.192 79.8543 129.022 80.0126C126.937 80.3045 124.113 78.9807 123.289 76.9272C123.008 76.2176 122.225 76.0722 121.471 75.9322C120.885 75.8234 120.317 75.7179 120.016 75.3532C119.655 74.9129 119.431 74.4509 119.239 74.0564C118.901 73.3581 118.665 72.8714 117.952 73.0912C117.415 73.2554 116.978 73.63 116.536 74.0087L116.536 74.0088L116.536 74.0089C116.248 74.2553 115.959 74.5034 115.638 74.6965C115.125 75.0027 114.518 75.5509 113.868 76.1382C112.549 77.33 111.051 78.6827 109.801 78.5012C102.806 77.5005 99.2831 77.7298 94.7383 79.3872C93.9404 79.6752 93.2599 79.5005 92.6272 79.338C92.1606 79.2182 91.7201 79.1051 91.2776 79.1891C90.3252 79.3752 89.7021 78.8972 89.0784 78.4189C88.8284 78.2271 88.5783 78.0353 88.3069 77.8862L88.2879 77.937C88.2802 77.9576 88.2723 77.9785 88.2642 77.9997C88.2545 78.0253 88.2446 78.0513 88.2345 78.0778C87.974 78.7604 87.5972 79.748 88.1192 80.4504C88.5494 81.024 89.5321 81.019 90.4559 81.0142C90.5393 81.0137 90.6223 81.0133 90.7043 81.0133C91.8718 81.0133 93.2894 81.6387 94.7383 82.7124C95.468 83.244 97.042 83.0251 97.7404 82.9104C98.5188 82.7862 99.1854 82.5705 99.8158 82.3666C101.194 81.9206 102.4 81.5307 104.224 82.2746C106.997 83.4108 109.05 84.9848 108.977 88.3308C108.957 89.2648 109.019 90.2217 109.082 91.1749L109.082 91.1752V91.1753C109.178 92.6262 109.272 94.0687 109.071 95.4086C108.154 101.632 106.851 106.291 102.692 111.649C102.292 112.165 102.044 112.952 101.794 113.748C101.529 114.591 101.261 115.443 100.805 115.996C99.9665 117.021 98.6986 117.949 97.4539 118.86L97.4538 118.86L97.4537 118.86C96.5476 119.523 95.6538 120.177 94.9468 120.853C94.336 121.438 93.7635 122.179 93.1843 122.93L93.1842 122.93L93.1841 122.93L93.1841 122.93C92.3795 123.973 91.562 125.032 90.6105 125.711C89.9164 126.203 89.3577 126.662 88.8745 127.06C87.3328 128.327 86.5587 128.964 84.6064 128.035C83.3422 127.435 81.2606 124.462 80.1065 122.813C79.9379 122.573 79.7891 122.36 79.6655 122.187C78.3 120.29 77.3306 118.143 76.8303 115.86C76.6345 114.964 76.5638 114.068 76.4925 113.164C76.4651 112.817 76.4376 112.468 76.4029 112.118C76.1423 109.418 75.2146 108.522 73.1298 107.052C71.3875 105.826 70.6674 104.711 69.6476 103.131C69.4533 102.83 69.2481 102.512 69.0229 102.174C67.7697 100.287 66.2118 99.6418 64.5518 98.9541C63.6433 98.5777 62.7043 98.1887 61.7679 97.5767C60.5379 96.7741 59.7874 95.9402 59.4434 94.4809C59.3309 94.017 59.4791 92.6528 59.5908 91.6247L59.5908 91.6244C59.6447 91.1278 59.6902 90.7097 59.6936 90.5094C59.7092 89.7013 59.6023 88.9792 59.4967 88.2662C59.3912 87.5537 59.287 86.8504 59.3079 86.0793C59.4434 81.4198 66.2397 77.1461 69.9714 75.4783C71.8349 74.6429 73.2436 74.7563 74.7034 74.8738C75.3747 74.9279 76.0569 74.9828 76.799 74.9467C77.0571 74.9325 77.3508 74.8924 77.6626 74.8499L77.6627 74.8499C78.7233 74.7053 79.9938 74.532 80.7913 75.249C81.2163 75.6302 81.7387 75.8691 82.2642 76.1093C82.6152 76.2697 82.9675 76.4308 83.293 76.6353C84.4396 76.8959 85.6175 77.0835 86.8788 77.0835C86.9066 77.0835 86.9251 77.0928 86.9437 77.1021C86.9529 77.1067 86.9622 77.1113 86.9726 77.1148C86.2534 76.6979 85.5446 76.2184 84.867 75.6555C84.3112 75.1971 83.7838 74.7128 83.2592 74.231L83.2592 74.2309C81.8749 72.9598 80.5103 71.7066 78.6961 70.996C76.3974 70.0953 74.1071 70.2418 71.7265 70.3941C71.4623 70.411 71.197 70.428 70.9304 70.4436C68.116 70.6104 65.4996 70.0892 63.2064 69.5054C60.5379 68.8279 59.5372 66.6597 59.2245 63.3241C59.1596 62.658 59.3781 61.8219 59.5972 60.9836C59.7656 60.3395 59.9342 59.694 59.975 59.1233C60.0284 58.3606 59.8571 57.6843 59.6894 57.0221C59.3988 55.8744 59.1187 54.7687 60.0375 53.3277C60.177 53.1092 60.3179 52.8857 60.4608 52.659L60.4611 52.6585C61.825 50.4955 63.3724 48.0413 65.5517 46.8337C66.7075 46.1903 67.9814 45.802 69.2546 45.4138C70.3125 45.0914 71.3698 44.769 72.3585 44.3007C74.4537 43.3104 76.3508 41.9241 78.1541 40.4856C79.0073 39.8061 79.8421 39.1017 80.677 38.3971L80.6772 38.397L80.6776 38.3967ZM44.3669 119.231C45.4843 119.614 46.7817 120.058 47.2998 120.895C47.7636 121.636 45.7812 122.605 44.4977 123.233C44.1373 123.409 43.832 123.558 43.6514 123.668C41.1601 125.159 38.7522 125.909 36.4277 126.097C17.5294 113.901 5 92.6677 5 68.5053C5 66.8896 5.07297 65.2844 5.1772 63.7C6.0945 64.0752 7.3662 65.0968 8.23138 65.8368C9.83923 67.2013 10.3724 69.3255 10.905 71.4474C11.2391 72.7784 11.5729 74.1084 12.1716 75.2495C13.7451 78.2461 16.2975 79.5857 18.9328 80.9689L18.9329 80.969C20.3128 81.6932 21.7155 82.4295 23.0123 83.4218C25.0345 84.9749 26.7128 86.9971 26.9421 89.6344C27.0305 90.6215 26.8586 91.4107 26.6729 92.2634C26.5958 92.6173 26.5164 92.9821 26.4522 93.3765C25.7955 97.4001 26.3792 100.381 28.2868 103.988C31.6224 110.294 36.8968 116.486 43.7035 118.998C43.9108 119.075 44.1342 119.152 44.3654 119.231L44.3663 119.231L44.3669 119.231ZM33.6371 44.7122C34.6015 44.9043 35.5407 45.0913 36.3227 44.4784C37.2608 43.7487 38.6264 43.3526 39.4081 43.9363C40.6694 44.8745 40.8987 46.9801 40.3775 48.3039C40.3576 48.3552 40.3378 48.4057 40.3183 48.4555C39.9417 49.4192 39.6616 50.1359 39.5228 51.2955C39.4989 51.4944 39.4919 51.6858 39.4851 51.8712C39.4653 52.4147 39.4473 52.9062 39.012 53.3803C38.199 54.2559 36.9794 54.0683 36.0725 53.4428C35.0373 52.7225 34.1852 51.7426 33.3287 50.7578C32.512 49.8187 31.6913 48.8751 30.7043 48.1475C30.506 48.0019 30.2877 47.8769 30.0748 47.7549C29.4037 47.3705 28.7861 47.0167 29.0156 46.1462C29.3492 44.8745 31.1733 44.5096 32.247 44.5201C32.7064 44.5268 33.1747 44.6201 33.6371 44.7122Z" fill="url(#paint2_linear_501_35944)"/>
<path fill-rule="evenodd" clip-rule="evenodd" d="M11.7544 62.0841C12.5883 62.7512 13.5473 61.49 13.7767 60.4476C14.3708 57.7061 14.6001 55.1106 14.5376 52.0668C14.513 51.2684 14.3373 50.4618 14.1619 49.6574C13.8909 48.414 13.621 47.1755 13.9122 45.9794C14.6106 43.1441 17.2999 41.4346 20.917 41.4554C22.8304 41.4687 24.7212 41.7808 26.6118 42.0929L26.6118 42.0929C29.1602 42.5135 31.7084 42.9341 34.3115 42.6229C36.6152 42.3519 39.0856 41.5805 40.4616 39.5687C41.8852 37.4782 41.7347 34.9025 41.5853 32.3439V32.3439C41.4918 30.7434 41.3988 29.1497 41.6916 27.6856C42.2857 24.7148 43.0675 21.0769 45.6109 19.3883C47.4553 18.1655 49.6682 18.2576 52.5905 18.3792L52.7929 18.3876C54.6095 18.4629 55.1218 20.34 55.3935 21.3354L55.3935 21.3355C55.4601 21.5795 55.5123 21.7706 55.5656 21.8691L55.6849 22.0905C56.9651 24.4684 57.7235 25.8772 60.788 26.393C63.7066 26.8934 66.7504 25.9761 69.471 25.0275C71.3284 24.3796 73.1708 23.7068 75.0155 23.0332C75.8418 22.7315 76.6686 22.4296 77.4973 22.1297C78.1207 21.9042 78.8279 21.7087 79.5593 21.5066C81.2613 21.0363 83.0937 20.5299 84.304 19.5238C85.6092 18.4459 85.7223 17.1172 85.8413 15.7198C85.9352 14.6172 86.0328 13.4718 86.7224 12.373C86.8243 12.2108 86.9247 12.0526 87.0229 11.8977C88.4526 9.64438 89.4332 8.09891 88.0775 5.2119C87.3269 3.61706 86.1908 2.19942 84.8148 0.927718C81.1352 0.333561 77.3618 0 73.505 0C40.0446 0 12.1922 24.006 6.20898 55.7256C7.58493 58.0814 9.40909 60.2287 11.7544 62.0841ZM80.6776 38.3967C82.6477 36.7342 84.619 35.0706 86.8371 33.731C90.6424 31.4323 94.8714 30.9761 99.0848 30.5216C102.801 30.1208 106.504 29.7213 109.895 28.0604C111.287 27.376 112.731 26.0692 114.232 24.7105C116.64 22.5308 119.195 20.2178 121.924 20.1279C131.232 29.4572 137.872 41.4446 140.593 54.86C140.334 55.8939 140.027 56.9176 139.72 57.9413C139 60.3442 138.28 62.7474 138.185 65.2838C138.07 68.1608 137.393 70.3081 135.881 71.9446C135.297 72.5805 133.661 71.9446 133.046 70.996C132.638 70.3627 132.692 69.4604 132.743 68.6031C132.812 67.4426 132.876 66.3648 131.785 66.149C129.429 65.6903 128.115 66.149 127.271 69.2344C126.625 71.5478 127.554 73.6067 128.502 75.7077C128.87 76.5226 129.24 77.3437 129.523 78.1885C129.558 78.296 129.605 78.41 129.652 78.5264L129.652 78.5265C129.907 79.1546 130.192 79.8543 129.022 80.0126C126.937 80.3045 124.113 78.9807 123.289 76.9272C123.008 76.2176 122.225 76.0722 121.471 75.9322C120.885 75.8234 120.317 75.7179 120.016 75.3532C119.655 74.9129 119.431 74.4509 119.239 74.0564C118.901 73.3581 118.665 72.8714 117.952 73.0912C117.415 73.2554 116.978 73.63 116.536 74.0087L116.536 74.0088L116.536 74.0089C116.248 74.2553 115.959 74.5034 115.638 74.6965C115.125 75.0027 114.518 75.5509 113.868 76.1382C112.549 77.33 111.051 78.6827 109.801 78.5012C102.806 77.5005 99.2831 77.7298 94.7383 79.3872C93.9404 79.6752 93.2599 79.5005 92.6272 79.338C92.1606 79.2182 91.7201 79.1051 91.2776 79.1891C90.3252 79.3752 89.7021 78.8972 89.0784 78.4189C88.8284 78.2271 88.5783 78.0353 88.3069 77.8862L88.2879 77.937C88.2802 77.9576 88.2723 77.9785 88.2642 77.9997C88.2545 78.0253 88.2446 78.0513 88.2345 78.0778C87.974 78.7604 87.5972 79.748 88.1192 80.4504C88.5494 81.024 89.5321 81.019 90.4559 81.0142C90.5393 81.0137 90.6223 81.0133 90.7043 81.0133C91.8718 81.0133 93.2894 81.6387 94.7383 82.7124C95.468 83.244 97.042 83.0251 97.7404 82.9104C98.5188 82.7862 99.1854 82.5705 99.8158 82.3666C101.194 81.9206 102.4 81.5307 104.224 82.2746C106.997 83.4108 109.05 84.9848 108.977 88.3308C108.957 89.2648 109.019 90.2217 109.082 91.1749L109.082 91.1752V91.1753C109.178 92.6262 109.272 94.0687 109.071 95.4086C108.154 101.632 106.851 106.291 102.692 111.649C102.292 112.165 102.044 112.952 101.794 113.748C101.529 114.591 101.261 115.443 100.805 115.996C99.9665 117.021 98.6986 117.949 97.4539 118.86L97.4538 118.86L97.4537 118.86C96.5476 119.523 95.6538 120.177 94.9468 120.853C94.336 121.438 93.7635 122.179 93.1843 122.93L93.1842 122.93L93.1841 122.93L93.1841 122.93C92.3795 123.973 91.562 125.032 90.6105 125.711C89.9164 126.203 89.3577 126.662 88.8745 127.06C87.3328 128.327 86.5587 128.964 84.6064 128.035C83.3422 127.435 81.2606 124.462 80.1065 122.813C79.9379 122.573 79.7891 122.36 79.6655 122.187C78.3 120.29 77.3306 118.143 76.8303 115.86C76.6345 114.964 76.5638 114.068 76.4925 113.164C76.4651 112.817 76.4376 112.468 76.4029 112.118C76.1423 109.418 75.2146 108.522 73.1298 107.052C71.3875 105.826 70.6674 104.711 69.6476 103.131C69.4533 102.83 69.2481 102.512 69.0229 102.174C67.7697 100.287 66.2118 99.6418 64.5518 98.9541C63.6433 98.5777 62.7043 98.1887 61.7679 97.5767C60.5379 96.7741 59.7874 95.9402 59.4434 94.4809C59.3309 94.017 59.4791 92.6528 59.5908 91.6247L59.5908 91.6244C59.6447 91.1278 59.6902 90.7097 59.6936 90.5094C59.7092 89.7013 59.6023 88.9792 59.4967 88.2662C59.3912 87.5537 59.287 86.8504 59.3079 86.0793C59.4434 81.4198 66.2397 77.1461 69.9714 75.4783C71.8349 74.6429 73.2436 74.7563 74.7034 74.8738C75.3747 74.9279 76.0569 74.9828 76.799 74.9467C77.0571 74.9325 77.3508 74.8924 77.6626 74.8499L77.6627 74.8499C78.7233 74.7053 79.9938 74.532 80.7913 75.249C81.2163 75.6302 81.7387 75.8691 82.2642 76.1093C82.6152 76.2697 82.9675 76.4308 83.293 76.6353C84.4396 76.8959 85.6175 77.0835 86.8788 77.0835C86.9066 77.0835 86.9251 77.0928 86.9437 77.1021C86.9529 77.1067 86.9622 77.1113 86.9726 77.1148C86.2534 76.6979 85.5446 76.2184 84.867 75.6555C84.3112 75.1971 83.7838 74.7128 83.2592 74.231L83.2592 74.2309C81.8749 72.9598 80.5103 71.7066 78.6961 70.996C76.3974 70.0953 74.1071 70.2418 71.7265 70.3941C71.4623 70.411 71.197 70.428 70.9304 70.4436C68.116 70.6104 65.4996 70.0892 63.2064 69.5054C60.5379 68.8279 59.5372 66.6597 59.2245 63.3241C59.1596 62.658 59.3781 61.8219 59.5972 60.9836C59.7656 60.3395 59.9342 59.694 59.975 59.1233C60.0284 58.3606 59.8571 57.6843 59.6894 57.0221C59.3988 55.8744 59.1187 54.7687 60.0375 53.3277C60.177 53.1092 60.3179 52.8857 60.4608 52.659L60.4611 52.6585C61.825 50.4955 63.3724 48.0413 65.5517 46.8337C66.7075 46.1903 67.9814 45.802 69.2546 45.4138C70.3125 45.0914 71.3698 44.769 72.3585 44.3007C74.4537 43.3104 76.3508 41.9241 78.1541 40.4856C79.0073 39.8061 79.8421 39.1017 80.677 38.3971L80.6772 38.397L80.6776 38.3967ZM44.3669 119.231C45.4843 119.614 46.7817 120.058 47.2998 120.895C47.7636 121.636 45.7812 122.605 44.4977 123.233C44.1373 123.409 43.832 123.558 43.6514 123.668C41.1601 125.159 38.7522 125.909 36.4277 126.097C17.5294 113.901 5 92.6677 5 68.5053C5 66.8896 5.07297 65.2844 5.1772 63.7C6.0945 64.0752 7.3662 65.0968 8.23138 65.8368C9.83923 67.2013 10.3724 69.3255 10.905 71.4474C11.2391 72.7784 11.5729 74.1084 12.1716 75.2495C13.7451 78.2461 16.2975 79.5857 18.9328 80.9689L18.9329 80.969C20.3128 81.6932 21.7155 82.4295 23.0123 83.4218C25.0345 84.9749 26.7128 86.9971 26.9421 89.6344C27.0305 90.6215 26.8586 91.4107 26.6729 92.2634C26.5958 92.6173 26.5164 92.9821 26.4522 93.3765C25.7955 97.4001 26.3792 100.381 28.2868 103.988C31.6224 110.294 36.8968 116.486 43.7035 118.998C43.9108 119.075 44.1342 119.152 44.3654 119.231L44.3663 119.231L44.3669 119.231ZM33.6371 44.7122C34.6015 44.9043 35.5407 45.0913 36.3227 44.4784C37.2608 43.7487 38.6264 43.3526 39.4081 43.9363C40.6694 44.8745 40.8987 46.9801 40.3775 48.3039C40.3576 48.3552 40.3378 48.4057 40.3183 48.4555C39.9417 49.4192 39.6616 50.1359 39.5228 51.2955C39.4989 51.4944 39.4919 51.6858 39.4851 51.8712C39.4653 52.4147 39.4473 52.9062 39.012 53.3803C38.199 54.2559 36.9794 54.0683 36.0725 53.4428C35.0373 52.7225 34.1852 51.7426 33.3287 50.7578C32.512 49.8187 31.6913 48.8751 30.7043 48.1475C30.506 48.0019 30.2877 47.8769 30.0748 47.7549C29.4037 47.3705 28.7861 47.0167 29.0156 46.1462C29.3492 44.8745 31.1733 44.5096 32.247 44.5201C32.7064 44.5268 33.1747 44.6201 33.6371 44.7122Z" fill="url(#paint3_linear_501_35944)"/>
<g opacity="0.15" filter="url(#filter0_f_501_35944)">
<path d="M130.844 153.602C130.105 154.082 128.912 154.546 128.787 155.048C128.689 155.447 128.111 155.744 126.82 155.971C126.321 156.06 124.924 155.971 124.399 155.84C123.571 155.633 124.933 155.22 123.321 155.168C121.31 155.103 120.188 155.166 119.467 155.595C118.701 156.041 120.526 156.418 121.39 156.837C121.586 156.933 122.146 157.064 120.962 157.09C119.182 157.129 116.769 156.947 116.066 156.662C115.639 156.487 113.859 156.56 113.271 156.444C112.416 156.276 112.452 156.084 111.508 156.13C110.752 156.168 110.226 156.285 109.532 156.353C108.206 156.482 106.14 156.918 104.547 156.881C98.5648 156.74 95.5648 156.774 91.6835 157.004C90.4995 157.073 89.6093 156.949 88.728 156.976C87.5974 157.012 87.001 156.868 86.1909 156.795C85.9772 156.889 85.541 157.045 86.0306 157.151C86.4312 157.238 87.3927 157.229 88.2383 157.229C89.2354 157.229 90.4461 157.316 91.6835 157.465C92.2977 157.538 93.6419 157.508 94.2472 157.492C96.3659 157.437 97.5143 157.252 99.7843 157.404C102.152 157.562 103.906 157.78 103.844 158.244C103.799 158.572 104.2 158.918 103.924 159.225C103.14 160.089 102.028 160.735 98.4757 161.478C97.7636 161.627 97.6122 161.932 96.8645 162.081C95.6271 162.326 93.2947 162.532 91.8615 162.754C90.6152 162.948 89.5559 163.267 88.1582 163.428C85.6746 163.714 85.2206 163.921 83.0306 163.75C81.7933 163.653 79.639 163.126 78.8111 162.939C77.6449 162.676 76.817 162.378 76.3897 162.062C76.1582 161.89 76.1315 161.718 76.0247 161.543C75.8022 161.168 75.0099 161.044 73.2295 160.84C71.458 160.638 70.9238 160.457 69.722 160.164C68.0663 159.759 65.7784 159.768 63.5262 159.526C62.4758 159.415 61.8348 159.299 61.541 159.097C61.4075 159.001 61.7458 158.631 61.7547 158.546C61.7814 158.322 61.3897 158.146 61.4253 157.932C61.541 157.285 67.3452 156.693 70.5321 156.461C72.8556 156.294 74.3422 156.404 76.363 156.388C77.3244 156.38 78.8912 156.301 79.7725 156.43C80.3778 156.518 81.2235 156.55 81.909 156.622C82.8793 156.658 83.8941 156.684 84.9713 156.684C85.0069 156.684 85.0158 156.688 85.0514 156.688C84.4372 156.631 83.8407 156.564 83.2532 156.486C81.5262 156.255 80.1197 155.976 77.9832 155.84C75.8022 155.701 73.6301 155.741 71.3511 155.763C68.9476 155.786 66.7042 155.714 64.7547 155.633C62.4847 155.539 61.6212 155.238 61.3541 154.776C61.2562 154.612 61.9149 154.375 61.995 154.193C62.1197 153.904 60.8111 153.703 62.0485 153.389C63.3036 153.07 64.7013 152.675 66.7577 152.489C68.5648 152.325 70.7102 152.281 72.5707 152.137C74.36 152 75.9802 151.809 77.5203 151.608C79.9683 151.292 82.2384 150.936 84.9357 150.672C91.0514 150.072 98.449 150.378 104.672 149.881C107.77 149.634 111.152 148.801 114.945 148.781C106.461 147.415 95.4579 146.462 83.1642 146.131C84.3392 146.307 85.3096 146.504 85.9505 146.725C87.1879 147.153 86.1553 147.368 84.7933 147.718C83.4579 148.064 84.722 148.442 82.728 148.71C81.2502 148.909 78.6775 148.967 76.9149 149.071C74.6271 149.206 72.3482 149.342 70.0603 149.473C67.7369 149.605 65.1375 149.732 62.6449 149.663C59.9476 149.589 59.3422 149.384 58.185 149.035C57.9535 148.966 57.7488 148.565 55.817 148.552C53.2354 148.535 51.2948 148.518 49.6835 148.691C47.5114 148.925 46.8437 149.43 46.3363 149.842C45.6865 150.368 47.2621 151.019 45.2859 151.49C44.1108 151.769 42.001 151.876 40.0336 151.913C36.1612 151.989 32.4313 151.756 28.5945 151.752C25.5055 151.749 23.2087 151.986 22.6123 152.379C22.2028 152.649 23.093 152.938 23.1375 153.219C23.1998 153.641 22.9951 154.002 22.4877 154.381C22.2918 154.527 21.4817 154.701 20.7606 154.608C18.7577 154.352 17.1998 154.053 16.0247 153.728C15.6063 154.089 15.3126 154.458 15.1523 154.832C15.9357 154.886 17.0218 155.027 17.7607 155.129C19.9951 155.436 19.7992 156.023 21.1256 156.434C23.1731 157.067 27.1612 157.167 30.3838 157.567C32.1108 157.783 33.544 158.063 33.7399 158.429C33.8467 158.623 33.5084 158.761 33.3215 158.948C32.7606 159.504 33.2592 159.919 34.8882 160.42C37.7369 161.294 42.2414 162.153 48.0544 162.501C49.087 162.563 50.5826 162.624 51.1256 162.764C51.633 162.896 48.7132 163.08 48.001 163.149C45.8734 163.356 43.817 163.46 41.8319 163.486C50.9654 164.443 61.8259 164.999 73.4965 164.999C105.811 164.999 132.001 160.746 132.001 155.499C132.01 154.851 131.609 154.216 130.844 153.602ZM45.2057 152.697C44.8586 152.84 44.6004 152.943 44.4758 153.112C44.3957 153.22 44.5381 153.313 44.0396 153.401C43.3452 153.524 42.3037 153.498 41.5292 153.41C39.8022 153.214 38.6716 152.883 36.9446 152.675C36.2414 152.591 35.2532 152.558 35.5025 152.398C35.7873 152.221 37.3452 152.171 38.2621 152.172C39.4728 152.174 40.7547 152.291 41.7428 152.166C42.544 152.065 43.7191 152.01 44.3778 152.09C45.455 152.221 45.6508 152.513 45.2057 152.697Z" fill="#C9EDDB"/>
<path d="M130.844 153.602C130.105 154.082 128.912 154.546 128.787 155.048C128.689 155.447 128.111 155.744 126.82 155.971C126.321 156.06 124.924 155.971 124.399 155.84C123.571 155.633 124.933 155.22 123.321 155.168C121.31 155.103 120.188 155.166 119.467 155.595C118.701 156.041 120.526 156.418 121.39 156.837C121.586 156.933 122.146 157.064 120.962 157.09C119.182 157.129 116.769 156.947 116.066 156.662C115.639 156.487 113.859 156.56 113.271 156.444C112.416 156.276 112.452 156.084 111.508 156.13C110.752 156.168 110.226 156.285 109.532 156.353C108.206 156.482 106.14 156.918 104.547 156.881C98.5648 156.74 95.5648 156.774 91.6835 157.004C90.4995 157.073 89.6093 156.949 88.728 156.976C87.5974 157.012 87.001 156.868 86.1909 156.795C85.9772 156.889 85.541 157.045 86.0306 157.151C86.4312 157.238 87.3927 157.229 88.2383 157.229C89.2354 157.229 90.4461 157.316 91.6835 157.465C92.2977 157.538 93.6419 157.508 94.2472 157.492C96.3659 157.437 97.5143 157.252 99.7843 157.404C102.152 157.562 103.906 157.78 103.844 158.244C103.799 158.572 104.2 158.918 103.924 159.225C103.14 160.089 102.028 160.735 98.4757 161.478C97.7636 161.627 97.6122 161.932 96.8645 162.081C95.6271 162.326 93.2947 162.532 91.8615 162.754C90.6152 162.948 89.5559 163.267 88.1582 163.428C85.6746 163.714 85.2206 163.921 83.0306 163.75C81.7933 163.653 79.639 163.126 78.8111 162.939C77.6449 162.676 76.817 162.378 76.3897 162.062C76.1582 161.89 76.1315 161.718 76.0247 161.543C75.8022 161.168 75.0099 161.044 73.2295 160.84C71.458 160.638 70.9238 160.457 69.722 160.164C68.0663 159.759 65.7784 159.768 63.5262 159.526C62.4758 159.415 61.8348 159.299 61.541 159.097C61.4075 159.001 61.7458 158.631 61.7547 158.546C61.7814 158.322 61.3897 158.146 61.4253 157.932C61.541 157.285 67.3452 156.693 70.5321 156.461C72.8556 156.294 74.3422 156.404 76.363 156.388C77.3244 156.38 78.8912 156.301 79.7725 156.43C80.3778 156.518 81.2235 156.55 81.909 156.622C82.8793 156.658 83.8941 156.684 84.9713 156.684C85.0069 156.684 85.0158 156.688 85.0514 156.688C84.4372 156.631 83.8407 156.564 83.2532 156.486C81.5262 156.255 80.1197 155.976 77.9832 155.84C75.8022 155.701 73.6301 155.741 71.3511 155.763C68.9476 155.786 66.7042 155.714 64.7547 155.633C62.4847 155.539 61.6212 155.238 61.3541 154.776C61.2562 154.612 61.9149 154.375 61.995 154.193C62.1197 153.904 60.8111 153.703 62.0485 153.389C63.3036 153.07 64.7013 152.675 66.7577 152.489C68.5648 152.325 70.7102 152.281 72.5707 152.137C74.36 152 75.9802 151.809 77.5203 151.608C79.9683 151.292 82.2384 150.936 84.9357 150.672C91.0514 150.072 98.449 150.378 104.672 149.881C107.77 149.634 111.152 148.801 114.945 148.781C106.461 147.415 95.4579 146.462 83.1642 146.131C84.3392 146.307 85.3096 146.504 85.9505 146.725C87.1879 147.153 86.1553 147.368 84.7933 147.718C83.4579 148.064 84.722 148.442 82.728 148.71C81.2502 148.909 78.6775 148.967 76.9149 149.071C74.6271 149.206 72.3482 149.342 70.0603 149.473C67.7369 149.605 65.1375 149.732 62.6449 149.663C59.9476 149.589 59.3422 149.384 58.185 149.035C57.9535 148.966 57.7488 148.565 55.817 148.552C53.2354 148.535 51.2948 148.518 49.6835 148.691C47.5114 148.925 46.8437 149.43 46.3363 149.842C45.6865 150.368 47.2621 151.019 45.2859 151.49C44.1108 151.769 42.001 151.876 40.0336 151.913C36.1612 151.989 32.4313 151.756 28.5945 151.752C25.5055 151.749 23.2087 151.986 22.6123 152.379C22.2028 152.649 23.093 152.938 23.1375 153.219C23.1998 153.641 22.9951 154.002 22.4877 154.381C22.2918 154.527 21.4817 154.701 20.7606 154.608C18.7577 154.352 17.1998 154.053 16.0247 153.728C15.6063 154.089 15.3126 154.458 15.1523 154.832C15.9357 154.886 17.0218 155.027 17.7607 155.129C19.9951 155.436 19.7992 156.023 21.1256 156.434C23.1731 157.067 27.1612 157.167 30.3838 157.567C32.1108 157.783 33.544 158.063 33.7399 158.429C33.8467 158.623 33.5084 158.761 33.3215 158.948C32.7606 159.504 33.2592 159.919 34.8882 160.42C37.7369 161.294 42.2414 162.153 48.0544 162.501C49.087 162.563 50.5826 162.624 51.1256 162.764C51.633 162.896 48.7132 163.08 48.001 163.149C45.8734 163.356 43.817 163.46 41.8319 163.486C50.9654 164.443 61.8259 164.999 73.4965 164.999C105.811 164.999 132.001 160.746 132.001 155.499C132.01 154.851 131.609 154.216 130.844 153.602ZM45.2057 152.697C44.8586 152.84 44.6004 152.943 44.4758 153.112C44.3957 153.22 44.5381 153.313 44.0396 153.401C43.3452 153.524 42.3037 153.498 41.5292 153.41C39.8022 153.214 38.6716 152.883 36.9446 152.675C36.2414 152.591 35.2532 152.558 35.5025 152.398C35.7873 152.221 37.3452 152.171 38.2621 152.172C39.4728 152.174 40.7547 152.291 41.7428 152.166C42.544 152.065 43.7191 152.01 44.3778 152.09C45.455 152.221 45.6508 152.513 45.2057 152.697Z" fill="url(#paint4_linear_501_35944)" fill-opacity="0.15"/>
<path fill-rule="evenodd" clip-rule="evenodd" d="M20.7691 154.61C21.4813 154.703 22.3003 154.528 22.4961 154.383C23.0035 154.003 23.1994 153.643 23.146 153.221C23.125 153.11 22.9749 152.998 22.8251 152.887C22.5937 152.714 22.3632 152.543 22.6118 152.377C23.2083 151.984 25.505 151.746 28.594 151.749C30.2282 151.751 31.8429 151.794 33.4575 151.838C35.6339 151.896 37.8101 151.954 40.0332 151.911C42.0005 151.874 44.1103 151.767 45.2854 151.488C46.5012 151.198 46.3727 150.841 46.2451 150.486C46.1653 150.264 46.0858 150.043 46.3359 149.84C46.8433 149.428 47.5109 148.923 49.683 148.689C51.2581 148.519 53.148 148.532 55.6437 148.549L55.8166 148.55C57.3679 148.561 57.8055 148.821 58.0375 148.959C58.0944 148.993 58.1389 149.019 58.1845 149.033L58.2864 149.064C59.3796 149.393 60.0273 149.589 62.6445 149.66C65.137 149.73 67.7364 149.603 70.0599 149.471C71.6461 149.381 73.2197 149.288 74.7951 149.194L74.7967 149.194C75.5018 149.152 76.2073 149.111 76.9145 149.069C77.4469 149.038 78.0509 149.011 78.6754 148.983C80.1289 148.917 81.6939 148.847 82.7275 148.708C83.8421 148.558 83.9388 148.374 84.0404 148.18C84.1206 148.027 84.2039 147.868 84.7928 147.716C84.8794 147.694 84.9648 147.672 85.0484 147.65L85.0495 147.65C86.2705 147.338 87.1079 147.123 85.9501 146.723C85.3091 146.502 84.3388 146.305 83.1637 146.129C80.0213 146.046 76.7987 146 73.505 146C44.9293 146 21.143 149.329 16.0332 153.728C17.2083 154.055 18.7661 154.353 20.7691 154.61ZM79.63 151.326C81.3124 151.095 82.996 150.864 84.8903 150.679C88.1401 150.36 91.7517 150.296 95.3501 150.233C98.5235 150.178 101.687 150.122 104.582 149.892C105.771 149.797 107.004 149.616 108.286 149.428C110.342 149.125 112.524 148.804 114.855 148.792C122.804 150.086 128.475 151.748 130.798 153.609C130.578 153.752 130.315 153.894 130.053 154.036C129.438 154.369 128.823 154.703 128.742 155.055C128.644 155.454 128.065 155.751 126.775 155.978C126.276 156.066 124.878 155.978 124.353 155.847C124.005 155.759 124.051 155.634 124.094 155.515C124.153 155.354 124.208 155.204 123.276 155.174C121.264 155.111 120.143 155.174 119.421 155.602C118.87 155.923 119.663 156.209 120.473 156.5L120.473 156.5C120.787 156.613 121.103 156.727 121.344 156.844C121.375 156.859 121.414 156.875 121.455 156.891C121.673 156.978 121.916 157.075 120.917 157.097C119.137 157.138 116.724 156.954 116.021 156.669C115.78 156.571 115.112 156.551 114.468 156.531C113.968 156.516 113.483 156.502 113.226 156.451C112.917 156.39 112.726 156.326 112.562 156.271C112.273 156.174 112.072 156.107 111.463 156.137C111.005 156.16 110.631 156.212 110.254 156.265L110.253 156.265C110.008 156.299 109.76 156.333 109.487 156.36C109.049 156.402 108.531 156.478 107.975 156.56L107.975 156.56C106.848 156.725 105.569 156.913 104.502 156.888C98.5283 156.749 95.5194 156.781 91.6381 157.01C90.9566 157.05 90.3755 157.026 89.8351 157.004C89.4367 156.987 89.0604 156.971 88.6826 156.983C87.8692 157.009 87.3371 156.943 86.8045 156.876C86.5909 156.85 86.3773 156.823 86.1455 156.802C86.1264 156.811 86.1055 156.82 86.0837 156.829C85.8613 156.924 85.5394 157.061 85.9853 157.158C86.3527 157.237 87.1918 157.237 87.9808 157.236L88.193 157.236C89.19 157.236 90.4007 157.323 91.6381 157.472C92.2612 157.545 93.6054 157.515 94.2019 157.499C94.8666 157.482 95.4359 157.452 95.9742 157.424L95.9743 157.424C97.1517 157.362 98.1812 157.308 99.739 157.411C102.107 157.568 103.861 157.787 103.798 158.251C103.781 158.38 103.834 158.513 103.888 158.645C103.969 158.847 104.05 159.047 103.878 159.232C103.095 160.095 101.982 160.742 98.4304 161.485C98.0888 161.556 97.8774 161.665 97.6637 161.776C97.4373 161.893 97.2083 162.011 96.8191 162.088C96.103 162.23 95.0202 162.358 93.9572 162.485L93.9571 162.485L93.957 162.485C93.1832 162.577 92.4199 162.667 91.8161 162.761C91.2944 162.842 90.8055 162.945 90.3108 163.049C89.6237 163.194 88.9254 163.341 88.1129 163.435C87.5201 163.503 87.043 163.567 86.6302 163.622C85.3136 163.798 84.6525 163.886 82.9853 163.757C81.9056 163.674 80.1279 163.262 79.1423 163.033C78.9983 163 78.8712 162.97 78.7657 162.946C77.5995 162.683 76.7716 162.385 76.3443 162.069C76.1771 161.944 76.1168 161.82 76.0559 161.695L76.0559 161.695C76.0325 161.647 76.009 161.598 75.9793 161.55C75.7568 161.175 74.9645 161.051 73.1841 160.847C71.6961 160.677 71.0812 160.523 70.2103 160.303C70.0443 160.262 69.869 160.218 69.6767 160.171C68.6065 159.909 67.276 159.82 65.8583 159.724C65.0825 159.672 64.2806 159.618 63.4808 159.533C62.4304 159.422 61.7894 159.306 61.4957 159.104C61.3996 159.039 61.5262 158.85 61.6215 158.708C61.6676 158.639 61.7064 158.581 61.7093 158.553C61.7227 158.441 61.6314 158.341 61.5412 158.242C61.4511 158.143 61.3621 158.046 61.3799 157.939C61.4957 157.292 67.2998 156.7 70.4868 156.468C72.0782 156.352 73.2813 156.368 74.5279 156.385H74.5279C75.1013 156.392 75.6838 156.4 76.3176 156.395C76.538 156.393 76.7888 156.387 77.055 156.381L77.0552 156.381C77.961 156.361 79.0461 156.337 79.7271 156.437C80.0901 156.489 80.5362 156.523 80.985 156.556C81.2847 156.578 81.5856 156.6 81.8636 156.629C82.8428 156.665 83.8488 156.691 84.9259 156.691C84.9497 156.691 84.9655 156.692 84.9813 156.694C84.9892 156.694 84.9971 156.695 85.006 156.695C84.3918 156.637 83.7865 156.571 83.2078 156.493C82.7332 156.429 82.2828 156.362 81.8347 156.295C80.6526 156.119 79.4871 155.945 77.9378 155.847C75.9746 155.722 74.0187 155.742 71.9856 155.763C71.76 155.766 71.5334 155.768 71.3058 155.77C68.9022 155.793 66.6678 155.721 64.7093 155.64C62.4304 155.546 61.5758 155.245 61.3087 154.783C61.2534 154.69 61.44 154.574 61.6271 154.458C61.7708 154.369 61.9149 154.279 61.9497 154.2C61.9953 154.094 61.849 154.001 61.7058 153.909C61.4576 153.75 61.2184 153.596 62.0031 153.396C62.1222 153.366 62.2427 153.335 62.3649 153.304C63.5296 153.004 64.8511 152.663 66.7123 152.496C67.6993 152.406 68.7873 152.353 69.8746 152.299C70.778 152.254 71.681 152.209 72.5253 152.144C74.3147 152.007 75.9348 151.815 77.4749 151.615C78.2036 151.521 78.9166 151.423 79.6298 151.326L79.63 151.326ZM48.6199 162.535C49.5742 162.588 50.6822 162.65 51.1246 162.766C51.5208 162.869 49.8277 163.003 48.7316 163.09C48.4238 163.115 48.1631 163.136 48.0089 163.151C45.8813 163.357 43.8249 163.462 41.8397 163.488C25.7003 161.796 15 158.851 15 155.5C15 155.276 15.0623 155.054 15.1513 154.834C15.9347 154.886 17.0208 155.028 17.7596 155.13C19.1328 155.32 19.5881 155.614 20.0429 155.908C20.3282 156.093 20.6133 156.277 21.1246 156.436C22.4684 156.851 24.6482 157.037 26.8988 157.229C28.0773 157.329 29.2753 157.432 30.3828 157.569C32.1098 157.785 33.543 158.065 33.7389 158.431C33.8144 158.568 33.6676 158.677 33.509 158.795C33.4431 158.844 33.3753 158.895 33.3205 158.95C32.7596 159.508 33.2581 159.921 34.8872 160.421C37.7359 161.296 42.2403 162.155 48.0534 162.503C48.2305 162.514 48.4215 162.524 48.6191 162.535L48.6195 162.535L48.6199 162.535ZM39.4573 152.201C40.2808 152.228 41.0829 152.254 41.7508 152.169C42.552 152.068 43.7181 152.013 44.3858 152.094C45.463 152.224 45.6588 152.516 45.2137 152.699C45.1966 152.706 45.1798 152.714 45.1631 152.72C44.8415 152.854 44.6022 152.953 44.4837 153.114C44.4633 153.142 44.4574 153.168 44.4516 153.194C44.4346 153.269 44.4192 153.338 44.0475 153.403C43.3532 153.525 42.3116 153.499 41.5371 153.412C40.6531 153.312 39.9253 153.176 39.1938 153.04C38.4964 152.909 37.7955 152.779 36.9526 152.678C36.7832 152.658 36.5968 152.64 36.415 152.623C35.8419 152.57 35.3145 152.521 35.5104 152.4C35.7953 152.224 37.3532 152.173 38.2701 152.175C38.6625 152.176 39.0623 152.188 39.4573 152.201Z" fill="url(#paint5_linear_501_35944)"/>
<path fill-rule="evenodd" clip-rule="evenodd" d="M20.7691 154.61C21.4813 154.703 22.3003 154.528 22.4961 154.383C23.0035 154.003 23.1994 153.643 23.146 153.221C23.125 153.11 22.9749 152.998 22.8251 152.887C22.5937 152.714 22.3632 152.543 22.6118 152.377C23.2083 151.984 25.505 151.746 28.594 151.749C30.2282 151.751 31.8429 151.794 33.4575 151.838C35.6339 151.896 37.8101 151.954 40.0332 151.911C42.0005 151.874 44.1103 151.767 45.2854 151.488C46.5012 151.198 46.3727 150.841 46.2451 150.486C46.1653 150.264 46.0858 150.043 46.3359 149.84C46.8433 149.428 47.5109 148.923 49.683 148.689C51.2581 148.519 53.148 148.532 55.6437 148.549L55.8166 148.55C57.3679 148.561 57.8055 148.821 58.0375 148.959C58.0944 148.993 58.1389 149.019 58.1845 149.033L58.2864 149.064C59.3796 149.393 60.0273 149.589 62.6445 149.66C65.137 149.73 67.7364 149.603 70.0599 149.471C71.6461 149.381 73.2197 149.288 74.7951 149.194L74.7967 149.194C75.5018 149.152 76.2073 149.111 76.9145 149.069C77.4469 149.038 78.0509 149.011 78.6754 148.983C80.1289 148.917 81.6939 148.847 82.7275 148.708C83.8421 148.558 83.9388 148.374 84.0404 148.18C84.1206 148.027 84.2039 147.868 84.7928 147.716C84.8794 147.694 84.9648 147.672 85.0484 147.65L85.0495 147.65C86.2705 147.338 87.1079 147.123 85.9501 146.723C85.3091 146.502 84.3388 146.305 83.1637 146.129C80.0213 146.046 76.7987 146 73.505 146C44.9293 146 21.143 149.329 16.0332 153.728C17.2083 154.055 18.7661 154.353 20.7691 154.61ZM79.63 151.326C81.3124 151.095 82.996 150.864 84.8903 150.679C88.1401 150.36 91.7517 150.296 95.3501 150.233C98.5235 150.178 101.687 150.122 104.582 149.892C105.771 149.797 107.004 149.616 108.286 149.428C110.342 149.125 112.524 148.804 114.855 148.792C122.804 150.086 128.475 151.748 130.798 153.609C130.578 153.752 130.315 153.894 130.053 154.036C129.438 154.369 128.823 154.703 128.742 155.055C128.644 155.454 128.065 155.751 126.775 155.978C126.276 156.066 124.878 155.978 124.353 155.847C124.005 155.759 124.051 155.634 124.094 155.515C124.153 155.354 124.208 155.204 123.276 155.174C121.264 155.111 120.143 155.174 119.421 155.602C118.87 155.923 119.663 156.209 120.473 156.5L120.473 156.5C120.787 156.613 121.103 156.727 121.344 156.844C121.375 156.859 121.414 156.875 121.455 156.891C121.673 156.978 121.916 157.075 120.917 157.097C119.137 157.138 116.724 156.954 116.021 156.669C115.78 156.571 115.112 156.551 114.468 156.531C113.968 156.516 113.483 156.502 113.226 156.451C112.917 156.39 112.726 156.326 112.562 156.271C112.273 156.174 112.072 156.107 111.463 156.137C111.005 156.16 110.631 156.212 110.254 156.265L110.253 156.265C110.008 156.299 109.76 156.333 109.487 156.36C109.049 156.402 108.531 156.478 107.975 156.56L107.975 156.56C106.848 156.725 105.569 156.913 104.502 156.888C98.5283 156.749 95.5194 156.781 91.6381 157.01C90.9566 157.05 90.3755 157.026 89.8351 157.004C89.4367 156.987 89.0604 156.971 88.6826 156.983C87.8692 157.009 87.3371 156.943 86.8045 156.876C86.5909 156.85 86.3773 156.823 86.1455 156.802C86.1264 156.811 86.1055 156.82 86.0837 156.829C85.8613 156.924 85.5394 157.061 85.9853 157.158C86.3527 157.237 87.1918 157.237 87.9808 157.236L88.193 157.236C89.19 157.236 90.4007 157.323 91.6381 157.472C92.2612 157.545 93.6054 157.515 94.2019 157.499C94.8666 157.482 95.4359 157.452 95.9742 157.424L95.9743 157.424C97.1517 157.362 98.1812 157.308 99.739 157.411C102.107 157.568 103.861 157.787 103.798 158.251C103.781 158.38 103.834 158.513 103.888 158.645C103.969 158.847 104.05 159.047 103.878 159.232C103.095 160.095 101.982 160.742 98.4304 161.485C98.0888 161.556 97.8774 161.665 97.6637 161.776C97.4373 161.893 97.2083 162.011 96.8191 162.088C96.103 162.23 95.0202 162.358 93.9572 162.485L93.9571 162.485L93.957 162.485C93.1832 162.577 92.4199 162.667 91.8161 162.761C91.2944 162.842 90.8055 162.945 90.3108 163.049C89.6237 163.194 88.9254 163.341 88.1129 163.435C87.5201 163.503 87.043 163.567 86.6302 163.622C85.3136 163.798 84.6525 163.886 82.9853 163.757C81.9056 163.674 80.1279 163.262 79.1423 163.033C78.9983 163 78.8712 162.97 78.7657 162.946C77.5995 162.683 76.7716 162.385 76.3443 162.069C76.1771 161.944 76.1168 161.82 76.0559 161.695L76.0559 161.695C76.0325 161.647 76.009 161.598 75.9793 161.55C75.7568 161.175 74.9645 161.051 73.1841 160.847C71.6961 160.677 71.0812 160.523 70.2103 160.303C70.0443 160.262 69.869 160.218 69.6767 160.171C68.6065 159.909 67.276 159.82 65.8583 159.724C65.0825 159.672 64.2806 159.618 63.4808 159.533C62.4304 159.422 61.7894 159.306 61.4957 159.104C61.3996 159.039 61.5262 158.85 61.6215 158.708C61.6676 158.639 61.7064 158.581 61.7093 158.553C61.7227 158.441 61.6314 158.341 61.5412 158.242C61.4511 158.143 61.3621 158.046 61.3799 157.939C61.4957 157.292 67.2998 156.7 70.4868 156.468C72.0782 156.352 73.2813 156.368 74.5279 156.385H74.5279C75.1013 156.392 75.6838 156.4 76.3176 156.395C76.538 156.393 76.7888 156.387 77.055 156.381L77.0552 156.381C77.961 156.361 79.0461 156.337 79.7271 156.437C80.0901 156.489 80.5362 156.523 80.985 156.556C81.2847 156.578 81.5856 156.6 81.8636 156.629C82.8428 156.665 83.8488 156.691 84.9259 156.691C84.9497 156.691 84.9655 156.692 84.9813 156.694C84.9892 156.694 84.9971 156.695 85.006 156.695C84.3918 156.637 83.7865 156.571 83.2078 156.493C82.7332 156.429 82.2828 156.362 81.8347 156.295C80.6526 156.119 79.4871 155.945 77.9378 155.847C75.9746 155.722 74.0187 155.742 71.9856 155.763C71.76 155.766 71.5334 155.768 71.3058 155.77C68.9022 155.793 66.6678 155.721 64.7093 155.64C62.4304 155.546 61.5758 155.245 61.3087 154.783C61.2534 154.69 61.44 154.574 61.6271 154.458C61.7708 154.369 61.9149 154.279 61.9497 154.2C61.9953 154.094 61.849 154.001 61.7058 153.909C61.4576 153.75 61.2184 153.596 62.0031 153.396C62.1222 153.366 62.2427 153.335 62.3649 153.304C63.5296 153.004 64.8511 152.663 66.7123 152.496C67.6993 152.406 68.7873 152.353 69.8746 152.299C70.778 152.254 71.681 152.209 72.5253 152.144C74.3147 152.007 75.9348 151.815 77.4749 151.615C78.2036 151.521 78.9166 151.423 79.6298 151.326L79.63 151.326ZM48.6199 162.535C49.5742 162.588 50.6822 162.65 51.1246 162.766C51.5208 162.869 49.8277 163.003 48.7316 163.09C48.4238 163.115 48.1631 163.136 48.0089 163.151C45.8813 163.357 43.8249 163.462 41.8397 163.488C25.7003 161.796 15 158.851 15 155.5C15 155.276 15.0623 155.054 15.1513 154.834C15.9347 154.886 17.0208 155.028 17.7596 155.13C19.1328 155.32 19.5881 155.614 20.0429 155.908C20.3282 156.093 20.6133 156.277 21.1246 156.436C22.4684 156.851 24.6482 157.037 26.8988 157.229C28.0773 157.329 29.2753 157.432 30.3828 157.569C32.1098 157.785 33.543 158.065 33.7389 158.431C33.8144 158.568 33.6676 158.677 33.509 158.795C33.4431 158.844 33.3753 158.895 33.3205 158.95C32.7596 159.508 33.2581 159.921 34.8872 160.421C37.7359 161.296 42.2403 162.155 48.0534 162.503C48.2305 162.514 48.4215 162.524 48.6191 162.535L48.6195 162.535L48.6199 162.535ZM39.4573 152.201C40.2808 152.228 41.0829 152.254 41.7508 152.169C42.552 152.068 43.7181 152.013 44.3858 152.094C45.463 152.224 45.6588 152.516 45.2137 152.699C45.1966 152.706 45.1798 152.714 45.1631 152.72C44.8415 152.854 44.6022 152.953 44.4837 153.114C44.4633 153.142 44.4574 153.168 44.4516 153.194C44.4346 153.269 44.4192 153.338 44.0475 153.403C43.3532 153.525 42.3116 153.499 41.5371 153.412C40.6531 153.312 39.9253 153.176 39.1938 153.04C38.4964 152.909 37.7955 152.779 36.9526 152.678C36.7832 152.658 36.5968 152.64 36.415 152.623C35.8419 152.57 35.3145 152.521 35.5104 152.4C35.7953 152.224 37.3532 152.173 38.2701 152.175C38.6625 152.176 39.0623 152.188 39.4573 152.201Z" fill="url(#paint6_linear_501_35944)"/>
</g>
<defs>
<filter id="filter0_f_501_35944" x="0" y="131" width="147.002" height="48.999" filterUnits="userSpaceOnUse" color-interpolation-filters="sRGB">
<feFlood flood-opacity="0" result="BackgroundImageFix"/>
<feBlend mode="normal" in="SourceGraphic" in2="BackgroundImageFix" result="shape"/>
<feGaussianBlur stdDeviation="7.5" result="effect1_foregroundBlur_501_35944"/>
</filter>
<linearGradient id="paint0_linear_501_35944" x1="164" y1="8" x2="164" y2="133" gradientUnits="userSpaceOnUse">
<stop stop-color="white"/>
<stop offset="1" stop-color="#CCFFEC"/>
</linearGradient>
<linearGradient id="paint1_linear_501_35944" x1="23.7054" y1="-163.501" x2="59.8647" y2="228.103" gradientUnits="userSpaceOnUse">
<stop stop-color="#245795"/>
<stop offset="1" stop-color="#8AD3A8"/>
</linearGradient>
<linearGradient id="paint2_linear_501_35944" x1="38.9995" y1="53.4777" x2="33.0833" y2="43.2306" gradientUnits="userSpaceOnUse">
<stop stop-color="#4B42C6"/>
<stop offset="1" stop-color="#4232B2"/>
</linearGradient>
<linearGradient id="paint3_linear_501_35944" x1="-8.60919" y1="-28.5794" x2="-9.75352" y2="174.789" gradientUnits="userSpaceOnUse">
<stop stop-color="#245795"/>
<stop offset="1" stop-color="#8AD3A8"/>
</linearGradient>
<linearGradient id="paint4_linear_501_35944" x1="30.9753" y1="123.324" x2="31.7964" y2="178.085" gradientUnits="userSpaceOnUse">
<stop stop-color="#245795"/>
<stop offset="1" stop-color="#8AD3A8"/>
</linearGradient>
<linearGradient id="paint5_linear_501_35944" x1="44.0361" y1="153.417" x2="43.86" y2="151.538" gradientUnits="userSpaceOnUse">
<stop stop-color="#4B42C6"/>
<stop offset="1" stop-color="#4232B2"/>
</linearGradient>
<linearGradient id="paint6_linear_501_35944" x1="3.37753" y1="142.036" x2="3.35176" y2="170.243" gradientUnits="userSpaceOnUse">
<stop stop-color="#245795"/>
<stop offset="1" stop-color="#8AD3A8"/>
</linearGradient>
</defs>
</svg>
