<svg width="259" height="167" viewBox="0 0 259 167" fill="none" xmlns="http://www.w3.org/2000/svg">
<path d="M240 85.3759C240 82.8067 239.06 80.5834 237.18 78.7059C235.299 76.8285 233.073 75.8897 230.5 75.8897C227.927 75.8897 225.701 76.8285 223.82 78.7059C221.94 80.5834 221 82.8067 221 85.3759C221 87.9451 221.94 90.1684 223.82 92.0459C225.701 93.9234 227.927 94.8621 230.5 94.8621C233.073 94.8621 235.299 93.9234 237.18 92.0459C239.06 90.1684 240 87.9451 240 85.3759ZM183 28.4586C183 25.8895 182.06 23.6661 180.18 21.7886C178.299 19.9112 176.073 18.9724 173.5 18.9724C170.927 18.9724 168.701 19.9112 166.82 21.7886C164.94 23.6661 164 25.8895 164 28.4586C164 31.0278 164.94 33.2512 166.82 35.1286C168.701 37.0061 170.927 37.9449 173.5 37.9449C176.073 37.9449 178.299 37.0061 180.18 35.1286C182.06 33.2512 183 31.0278 183 28.4586ZM259 85.3759C259 93.2317 256.217 99.9388 250.65 105.497C245.084 111.055 238.367 113.835 230.5 113.835C222.633 113.835 215.916 111.055 210.35 105.497C204.783 99.9388 202 93.2317 202 85.3759C202 77.5202 204.783 70.8131 210.35 65.2548C215.916 59.6965 222.633 56.9173 230.5 56.9173C238.367 56.9173 245.084 59.6965 250.65 65.2548C256.217 70.8131 259 77.5202 259 85.3759ZM251.875 4.74311C251.875 5.73125 251.553 6.66999 250.91 7.55933L172.535 111.908C171.595 113.192 170.333 113.835 168.75 113.835H156.875C155.589 113.835 154.475 113.365 153.535 112.426C152.595 111.488 152.125 110.376 152.125 109.091C152.125 108.103 152.447 107.165 153.09 106.275L231.465 1.92689C232.405 0.642296 233.667 0 235.25 0H247.125C248.411 0 249.525 0.46937 250.465 1.40811C251.405 2.34685 251.875 3.45852 251.875 4.74311ZM202 28.4586C202 36.3144 199.217 43.0215 193.65 48.5798C188.084 54.1381 181.367 56.9173 173.5 56.9173C165.633 56.9173 158.916 54.1381 153.35 48.5798C147.783 43.0215 145 36.3144 145 28.4586C145 20.6029 147.783 13.8958 153.35 8.33749C158.916 2.77916 165.633 0 173.5 0C181.367 0 188.084 2.77916 193.65 8.33749C199.217 13.8958 202 20.6029 202 28.4586Z" fill="url(#paint0_linear_501_35934)" fill-opacity="0.4"/>
<g opacity="0.1" filter="url(#filter0_f_501_35934)">
<path d="M58.5059 126.808L137.241 139.826V145.009L58.5059 131.99V126.808Z" fill="#3A9E3D"/>
<path d="M58.5059 126.808L137.241 139.826V145.009L58.5059 131.99V126.808Z" fill="url(#paint1_linear_501_35934)"/>
<path d="M173.999 133.746V138.929L137.24 145.009V139.826L173.999 133.746Z" fill="#46BE49"/>
<path d="M173.999 133.746V138.929L137.24 145.009V139.826L173.999 133.746Z" fill="url(#paint2_linear_501_35934)"/>
<path d="M95.2797 120.728L173.999 133.746L137.241 139.826L58.5059 126.808L95.2797 120.728Z" fill="#61E041"/>
<path d="M95.2797 120.728L173.999 133.746L137.241 139.826L58.5059 126.808L95.2797 120.728Z" fill="#C9EDDB"/>
<path d="M95.2797 120.728L173.999 133.746L137.241 139.826L58.5059 126.808L95.2797 120.728Z" fill="url(#paint3_linear_501_35934)"/>
<path d="M69.3008 126.141L91.2631 122.509C94.8311 123.101 96.1353 123.192 99.6883 122.603L162.637 133.011C159.084 133.6 159.639 133.814 163.207 134.407L141.244 138.039C137.676 137.447 136.372 137.357 132.819 137.945L69.8854 127.537C73.4234 126.949 72.8687 126.734 69.3008 126.141Z" fill="#46BE49"/>
<path d="M69.3008 126.141L91.2631 122.509C94.8311 123.101 96.1353 123.192 99.6883 122.603L162.637 133.011C159.084 133.6 159.639 133.814 163.207 134.407L141.244 138.039C137.676 137.447 136.372 137.357 132.819 137.945L69.8854 127.537C73.4234 126.949 72.8687 126.734 69.3008 126.141Z" fill="#C9EDDB"/>
<path d="M69.3008 126.141L91.2631 122.509C94.8311 123.101 96.1353 123.192 99.6883 122.603L162.637 133.011C159.084 133.6 159.639 133.814 163.207 134.407L141.244 138.039C137.676 137.447 136.372 137.357 132.819 137.945L69.8854 127.537C73.4234 126.949 72.8687 126.734 69.3008 126.141Z" fill="url(#paint4_linear_501_35934)" fill-opacity="0.5"/>
<path d="M118.006 133.966C130.639 133.473 140.094 131.421 139.123 129.384C138.153 127.347 127.125 126.096 114.492 126.589C101.858 127.083 92.4039 129.135 93.3745 131.172C94.345 133.209 105.373 134.46 118.006 133.966Z" fill="#C9EDDB"/>
<path d="M137.57 133.802C139.879 133.42 143.656 133.42 145.98 133.806C148.304 134.192 148.319 134.815 146.01 135.197C143.701 135.579 139.923 135.579 137.6 135.193C135.276 134.806 135.261 134.184 137.57 133.802Z" fill="#C9EDDB"/>
<path d="M86.7554 125.572C89.0641 125.19 92.8419 125.19 95.1655 125.577C97.4892 125.963 97.5042 126.586 95.1955 126.968C92.8868 127.35 89.109 127.35 86.7854 126.963C84.4617 126.577 84.4467 125.954 86.7554 125.572Z" fill="#C9EDDB"/>
<path d="M89.8242 131.986L106.18 134.691V139.874L89.8242 137.169V131.986Z" fill="#F0FAF6"/>
<path d="M126.583 125.906L142.954 128.611L106.18 134.691L89.8242 131.986L126.583 125.906Z" fill="#F0FAF6"/>
<path d="M58.5059 120.729L137.241 133.748V138.931L58.5059 125.912V120.729Z" fill="#3A9E3D"/>
<path d="M58.5059 120.729L137.241 133.748V138.931L58.5059 125.912V120.729Z" fill="url(#paint5_linear_501_35934)"/>
<path d="M173.999 127.668V132.851L137.24 138.931V133.748L173.999 127.668Z" fill="#46BE49"/>
<path d="M173.999 127.668V132.851L137.24 138.931V133.748L173.999 127.668Z" fill="url(#paint6_linear_501_35934)"/>
<path d="M95.2797 114.649L173.999 127.668L137.241 133.748L58.5059 120.729L95.2797 114.649Z" fill="#61E041"/>
<path d="M95.2797 114.649L173.999 127.668L137.241 133.748L58.5059 120.729L95.2797 114.649Z" fill="#C9EDDB"/>
<path d="M69.3008 120.064L91.2631 116.432C94.8311 117.024 96.1353 117.114 99.6883 116.526L162.637 126.934C159.084 127.523 159.639 127.737 163.207 128.33L141.244 131.962C137.676 131.37 136.372 131.28 132.819 131.868L69.8854 121.46C73.4234 120.871 72.8687 120.657 69.3008 120.064Z" fill="#46BE49"/>
<path d="M69.3008 120.064L91.2631 116.432C94.8311 117.024 96.1353 117.114 99.6883 116.526L162.637 126.934C159.084 127.523 159.639 127.737 163.207 128.33L141.244 131.962C137.676 131.37 136.372 131.28 132.819 131.868L69.8854 121.46C73.4234 120.871 72.8687 120.657 69.3008 120.064Z" fill="#C9EDDB"/>
<path d="M69.3008 120.064L91.2631 116.432C94.8311 117.024 96.1353 117.114 99.6883 116.526L162.637 126.934C159.084 127.523 159.639 127.737 163.207 128.33L141.244 131.962C137.676 131.37 136.372 131.28 132.819 131.868L69.8854 121.46C73.4234 120.871 72.8687 120.657 69.3008 120.064Z" fill="url(#paint7_linear_501_35934)" fill-opacity="0.3"/>
<path d="M118.006 127.888C130.639 127.394 140.094 125.343 139.123 123.306C138.153 121.269 127.125 120.018 114.492 120.511C101.858 121.005 92.4039 123.057 93.3745 125.094C94.345 127.131 105.373 128.382 118.006 127.888Z" fill="#C9EDDB"/>
<path d="M137.57 127.724C139.879 127.341 143.656 127.341 145.98 127.728C148.304 128.114 148.319 128.737 146.01 129.119C143.701 129.501 139.923 129.501 137.6 129.115C135.276 128.728 135.261 128.106 137.57 127.724Z" fill="#C9EDDB"/>
<path d="M86.7554 119.494C89.0641 119.112 92.8419 119.112 95.1655 119.498C97.4892 119.885 97.5042 120.507 95.1955 120.89C92.8868 121.272 89.109 121.272 86.7854 120.885C84.4617 120.499 84.4467 119.876 86.7554 119.494Z" fill="#C9EDDB"/>
<path d="M89.8242 125.908L106.18 128.613V133.796L89.8242 131.091V125.908Z" fill="#F0FAF6"/>
<path d="M126.583 119.828L142.954 122.533L106.18 128.613L89.8242 125.908L126.583 119.828Z" fill="#F0FAF6"/>
<path d="M15 133.799L93.7347 146.818V152L15 138.981V133.799Z" fill="#3A9E3D"/>
<path d="M15 133.799L93.7347 146.818V152L15 138.981V133.799Z" fill="url(#paint8_linear_501_35934)"/>
<path d="M130.493 140.737V145.92L93.7344 152V146.817L130.493 140.737Z" fill="#46BE49"/>
<path d="M130.493 140.737V145.92L93.7344 152V146.817L130.493 140.737Z" fill="url(#paint9_linear_501_35934)"/>
<path d="M51.7738 127.719L130.494 140.738L93.7347 146.818L15 133.799L51.7738 127.719Z" fill="#61E041"/>
<path d="M51.7738 127.719L130.494 140.738L93.7347 146.818L15 133.799L51.7738 127.719Z" fill="#C9EDDB"/>
<path d="M51.7738 127.719L130.494 140.738L93.7347 146.818L15 133.799L51.7738 127.719Z" fill="url(#paint10_linear_501_35934)"/>
<path d="M25.793 133.134L47.7553 129.501C51.3233 130.094 52.6275 130.184 56.1805 129.595L119.129 140.004C115.576 140.592 116.131 140.807 119.699 141.399L97.7366 145.032C94.1686 144.439 92.8644 144.349 89.3114 144.937L26.3776 134.529C29.9156 133.941 29.3609 133.726 25.793 133.134Z" fill="#46BE49"/>
<path d="M25.793 133.134L47.7553 129.501C51.3233 130.094 52.6275 130.184 56.1805 129.595L119.129 140.004C115.576 140.592 116.131 140.807 119.699 141.399L97.7366 145.032C94.1686 144.439 92.8644 144.349 89.3114 144.937L26.3776 134.529C29.9156 133.941 29.3609 133.726 25.793 133.134Z" fill="#C9EDDB"/>
<path d="M25.793 133.134L47.7553 129.501C51.3233 130.094 52.6275 130.184 56.1805 129.595L119.129 140.004C115.576 140.592 116.131 140.807 119.699 141.399L97.7366 145.032C94.1686 144.439 92.8644 144.349 89.3114 144.937L26.3776 134.529C29.9156 133.941 29.3609 133.726 25.793 133.134Z" fill="url(#paint11_linear_501_35934)" fill-opacity="0.5"/>
<path d="M74.5021 140.958C87.1353 140.464 96.5897 138.412 95.6192 136.375C94.6487 134.338 83.6207 133.087 70.9876 133.581C58.3545 134.074 48.9 136.126 49.8705 138.163C50.8411 140.2 61.869 141.451 74.5021 140.958Z" fill="#C9EDDB"/>
<path d="M94.064 140.793C96.3726 140.411 100.15 140.411 102.474 140.797C104.798 141.184 104.813 141.806 102.504 142.188C100.195 142.571 96.4176 142.571 94.094 142.184C91.7703 141.798 91.7553 141.175 94.064 140.793Z" fill="#C9EDDB"/>
<path d="M43.2495 132.563C45.5582 132.181 49.336 132.181 51.6597 132.568C53.9833 132.954 53.9983 133.577 51.6897 133.959C49.381 134.341 45.6032 134.341 43.2795 133.955C40.9558 133.568 40.9408 132.946 43.2495 132.563Z" fill="#C9EDDB"/>
<path d="M83.0752 132.897L99.4458 135.603L62.672 141.683L46.3164 138.977L83.0752 132.897Z" fill="#F0FAF6"/>
<path d="M15 127.72L93.7347 140.739V145.921L15 132.902V127.72Z" fill="#3A9E3D"/>
<path d="M15 127.72L93.7347 140.739V145.921L15 132.902V127.72Z" fill="url(#paint12_linear_501_35934)"/>
<path d="M130.493 134.658V139.841L93.7344 145.921V140.738L130.493 134.658Z" fill="#46BE49"/>
<path d="M130.493 134.658V139.841L93.7344 145.921V140.738L130.493 134.658Z" fill="url(#paint13_linear_501_35934)"/>
<path d="M51.7738 121.64L130.494 134.658L93.7347 140.738L15 127.72L51.7738 121.64Z" fill="#61E041"/>
<path d="M51.7738 121.64L130.494 134.658L93.7347 140.738L15 127.72L51.7738 121.64Z" fill="#C9EDDB"/>
<path d="M51.7738 121.64L130.494 134.658L93.7347 140.738L15 127.72L51.7738 121.64Z" fill="url(#paint14_linear_501_35934)"/>
<path d="M25.793 127.053L47.7553 123.421C51.3233 124.013 52.6275 124.104 56.1805 123.515L119.129 133.924C115.576 134.512 116.131 134.726 119.699 135.319L97.7366 138.952C94.1686 138.359 92.8644 138.269 89.3114 138.857L26.3776 128.449C29.9156 127.861 29.3609 127.646 25.793 127.053Z" fill="#46BE49"/>
<path d="M25.793 127.053L47.7553 123.421C51.3233 124.013 52.6275 124.104 56.1805 123.515L119.129 133.924C115.576 134.512 116.131 134.726 119.699 135.319L97.7366 138.952C94.1686 138.359 92.8644 138.269 89.3114 138.857L26.3776 128.449C29.9156 127.861 29.3609 127.646 25.793 127.053Z" fill="#C9EDDB"/>
<path d="M25.793 127.053L47.7553 123.421C51.3233 124.013 52.6275 124.104 56.1805 123.515L119.129 133.924C115.576 134.512 116.131 134.726 119.699 135.319L97.7366 138.952C94.1686 138.359 92.8644 138.269 89.3114 138.857L26.3776 128.449C29.9156 127.861 29.3609 127.646 25.793 127.053Z" fill="url(#paint15_linear_501_35934)" fill-opacity="0.5"/>
<path d="M74.5021 134.878C87.1353 134.385 96.5897 132.333 95.6192 130.296C94.6487 128.259 83.6207 127.008 70.9876 127.502C58.3545 127.995 48.9 130.047 49.8705 132.084C50.8411 134.121 61.869 135.372 74.5021 134.878Z" fill="#C9EDDB"/>
<path d="M94.064 134.714C96.3726 134.332 100.15 134.332 102.474 134.718C104.798 135.105 104.813 135.727 102.504 136.109C100.195 136.491 96.4176 136.491 94.094 136.105C91.7703 135.719 91.7553 135.096 94.064 134.714Z" fill="#C9EDDB"/>
<path d="M43.2495 126.484C45.5582 126.102 49.336 126.102 51.6597 126.489C53.9833 126.875 53.9983 127.498 51.6897 127.88C49.381 128.262 45.6032 128.262 43.2795 127.876C40.9558 127.489 40.9408 126.866 43.2495 126.484Z" fill="#C9EDDB"/>
<path d="M46.3164 132.898L62.672 135.604V140.786L46.3164 138.081V132.898Z" fill="#F0FAF6"/>
<path d="M83.0752 126.818L99.4458 129.523L62.672 135.603L46.3164 132.898L83.0752 126.818Z" fill="#F0FAF6"/>
<path d="M15 121.642L93.7347 134.66V139.843L15 126.824V121.642Z" fill="#3A9E3D"/>
<path d="M15 121.642L93.7347 134.66V139.843L15 126.824V121.642Z" fill="url(#paint16_linear_501_35934)"/>
<path d="M130.493 128.58V133.763L93.7344 139.843V134.66L130.493 128.58Z" fill="#46BE49"/>
<path d="M130.493 128.58V133.763L93.7344 139.843V134.66L130.493 128.58Z" fill="url(#paint17_linear_501_35934)"/>
<path d="M51.7738 115.562L130.494 128.58L93.7347 134.66L15 121.642L51.7738 115.562Z" fill="#61E041"/>
<path d="M51.7738 115.562L130.494 128.58L93.7347 134.66L15 121.642L51.7738 115.562Z" fill="#C9EDDB"/>
<path d="M25.793 120.975L47.7553 117.343C51.3233 117.935 52.6275 118.025 56.1805 117.437L119.129 127.845C115.576 128.434 116.131 128.648 119.699 129.241L97.7366 132.873C94.1686 132.281 92.8644 132.191 89.3114 132.779L26.3776 122.371C29.9156 121.783 29.3609 121.568 25.793 120.975Z" fill="#46BE49"/>
<path d="M25.793 120.975L47.7553 117.343C51.3233 117.935 52.6275 118.025 56.1805 117.437L119.129 127.845C115.576 128.434 116.131 128.648 119.699 129.241L97.7366 132.873C94.1686 132.281 92.8644 132.191 89.3114 132.779L26.3776 122.371C29.9156 121.783 29.3609 121.568 25.793 120.975Z" fill="#C9EDDB"/>
<path d="M25.793 120.975L47.7553 117.343C51.3233 117.935 52.6275 118.025 56.1805 117.437L119.129 127.845C115.576 128.434 116.131 128.648 119.699 129.241L97.7366 132.873C94.1686 132.281 92.8644 132.191 89.3114 132.779L26.3776 122.371C29.9156 121.783 29.3609 121.568 25.793 120.975Z" fill="url(#paint18_linear_501_35934)" fill-opacity="0.3"/>
<path d="M74.5021 128.8C87.1353 128.307 96.5897 126.255 95.6192 124.218C94.6487 122.181 83.6207 120.93 70.9876 121.423C58.3545 121.917 48.9 123.969 49.8705 126.006C50.8411 128.043 61.869 129.294 74.5021 128.8Z" fill="#C9EDDB"/>
<path d="M94.064 128.636C96.3726 128.254 100.15 128.254 102.474 128.64C104.798 129.026 104.813 129.649 102.504 130.031C100.195 130.413 96.4176 130.413 94.094 130.027C91.7703 129.64 91.7553 129.018 94.064 128.636Z" fill="#C9EDDB"/>
<path d="M43.2495 120.406C45.5582 120.024 49.336 120.024 51.6597 120.41C53.9833 120.797 53.9983 121.42 51.6897 121.802C49.381 122.184 45.6032 122.184 43.2795 121.797C40.9558 121.411 40.9408 120.788 43.2495 120.406Z" fill="#C9EDDB"/>
<path d="M83.0752 120.74L99.4458 123.445L62.672 129.525L46.3164 126.82L83.0752 120.74Z" fill="#F0FAF6"/>
</g>
<path d="M57 46.3828L135.735 91.7707V109.839L57 64.4511V46.3828Z" fill="#3A9E3D"/>
<path d="M57 46.3828L135.735 91.7707V109.839L57 64.4511V46.3828Z" fill="url(#paint19_linear_501_35934)"/>
<path d="M172.493 70.5732V88.6416L135.734 109.839V91.7702L172.493 70.5732Z" fill="#46BE49"/>
<path d="M172.493 70.5732V88.6416L135.734 109.839V91.7702L172.493 70.5732Z" fill="url(#paint20_linear_501_35934)"/>
<path d="M93.7738 25.1855L172.494 70.5734L135.735 91.7704L57 46.3825L93.7738 25.1855Z" fill="#61E041"/>
<path d="M93.7738 25.1855L172.494 70.5734L135.735 91.7704L57 46.3825L93.7738 25.1855Z" fill="#C9EDDB"/>
<path d="M93.7738 25.1855L172.494 70.5734L135.735 91.7704L57 46.3825L93.7738 25.1855Z" fill="url(#paint21_linear_501_35934)"/>
<path d="M67.7949 44.0618L89.7573 31.3975C93.3252 33.4633 94.6295 33.7776 98.1824 31.7268L161.131 68.0132C157.578 70.064 158.133 70.8125 161.701 72.8783L139.739 85.5426C136.171 83.4768 134.866 83.1624 131.313 85.2132L68.3796 48.9269C71.9175 46.876 71.3629 46.1276 67.7949 44.0618Z" fill="#46BE49"/>
<path d="M67.7949 44.0618L89.7573 31.3975C93.3252 33.4633 94.6295 33.7776 98.1824 31.7268L161.131 68.0132C157.578 70.064 158.133 70.8125 161.701 72.8783L139.739 85.5426C136.171 83.4768 134.866 83.1624 131.313 85.2132L68.3796 48.9269C71.9175 46.876 71.3629 46.1276 67.7949 44.0618Z" fill="#C9EDDB"/>
<path d="M67.7949 44.0618L89.7573 31.3975C93.3252 33.4633 94.6295 33.7776 98.1824 31.7268L161.131 68.0132C157.578 70.064 158.133 70.8125 161.701 72.8783L139.739 85.5426C136.171 83.4768 134.866 83.1624 131.313 85.2132L68.3796 48.9269C71.9175 46.876 71.3629 46.1276 67.7949 44.0618Z" fill="url(#paint22_linear_501_35934)" fill-opacity="0.5"/>
<path d="M116.502 71.341C129.135 69.6196 138.59 62.4669 137.619 55.3649C136.649 48.263 125.621 43.9011 112.988 45.6225C100.354 47.3438 90.9 54.4965 91.8705 61.5985C92.8411 68.7005 103.869 73.0623 116.502 71.341Z" fill="#C9EDDB"/>
<path d="M136.064 70.7679C138.373 69.4356 142.15 69.4356 144.474 70.7828C146.798 72.1301 146.813 74.3007 144.504 75.633C142.195 76.9653 138.418 76.9653 136.094 75.618C133.77 74.2708 133.755 72.1002 136.064 70.7679Z" fill="#C9EDDB"/>
<path d="M85.2495 42.0765C87.5582 40.7442 91.336 40.7442 93.6597 42.0914C95.9833 43.4387 95.9983 45.6093 93.6897 46.9416C91.381 48.2739 87.6032 48.2739 85.2795 46.9266C82.9558 45.5793 82.9408 43.4088 85.2495 42.0765Z" fill="#C9EDDB"/>
<path d="M88.3164 64.4355L104.672 73.8664V91.9347L88.3164 82.5039V64.4355Z" fill="#F0FAF6"/>
<path d="M125.075 43.2393L141.446 52.6701L104.672 73.8671L88.3164 64.4362L125.075 43.2393Z" fill="#F0FAF6"/>
<path d="M57 25.1914L135.735 70.5793V88.6476L57 43.2597V25.1914Z" fill="#3A9E3D"/>
<path d="M57 25.1914L135.735 70.5793V88.6476L57 43.2597V25.1914Z" fill="url(#paint23_linear_501_35934)"/>
<path d="M172.493 49.3818V67.4502L135.734 88.6471V70.5788L172.493 49.3818Z" fill="#46BE49"/>
<path d="M172.493 49.3818V67.4502L135.734 88.6471V70.5788L172.493 49.3818Z" fill="url(#paint24_linear_501_35934)"/>
<path d="M93.7738 3.99414L172.494 49.382L135.735 70.579L57 25.1911L93.7738 3.99414Z" fill="#61E041"/>
<path d="M93.7738 3.99414L172.494 49.382L135.735 70.579L57 25.1911L93.7738 3.99414Z" fill="#C9EDDB"/>
<path d="M67.7949 22.8704L89.7573 10.2061C93.3252 12.2719 94.6295 12.5862 98.1824 10.5354L161.131 46.8217C157.578 48.8726 158.133 49.6211 161.701 51.6869L139.739 64.3512C136.171 62.2854 134.866 61.971 131.313 64.0218L68.3796 27.7355C71.9175 25.6846 71.3629 24.9362 67.7949 22.8704Z" fill="#46BE49"/>
<path d="M67.7949 22.8704L89.7573 10.2061C93.3252 12.2719 94.6295 12.5862 98.1824 10.5354L161.131 46.8217C157.578 48.8726 158.133 49.6211 161.701 51.6869L139.739 64.3512C136.171 62.2854 134.866 61.971 131.313 64.0218L68.3796 27.7355C71.9175 25.6846 71.3629 24.9362 67.7949 22.8704Z" fill="#C9EDDB"/>
<path d="M67.7949 22.8704L89.7573 10.2061C93.3252 12.2719 94.6295 12.5862 98.1824 10.5354L161.131 46.8217C157.578 48.8726 158.133 49.6211 161.701 51.6869L139.739 64.3512C136.171 62.2854 134.866 61.971 131.313 64.0218L68.3796 27.7355C71.9175 25.6846 71.3629 24.9362 67.7949 22.8704Z" fill="url(#paint25_linear_501_35934)" fill-opacity="0.3"/>
<path d="M116.502 50.1496C129.135 48.4282 138.59 41.2755 137.619 34.1735C136.649 27.0715 125.621 22.7097 112.988 24.4311C100.354 26.1524 90.9 33.3051 91.8705 40.4071C92.8411 47.5091 103.869 51.8709 116.502 50.1496Z" fill="#C9EDDB"/>
<path d="M136.064 49.5765C138.373 48.2442 142.15 48.2442 144.474 49.5914C146.798 50.9387 146.813 53.1093 144.504 54.4416C142.195 55.7739 138.418 55.7739 136.094 54.4266C133.77 53.0793 133.755 50.9088 136.064 49.5765Z" fill="#C9EDDB"/>
<path d="M85.2495 20.8851C87.5582 19.5528 91.336 19.5528 93.6597 20.9C95.9833 22.2473 95.9983 24.4179 93.6897 25.7502C91.381 27.0825 87.6032 27.0825 85.2795 25.7352C82.9558 24.3879 82.9408 22.2174 85.2495 20.8851Z" fill="#C9EDDB"/>
<path d="M88.3164 43.2451L104.672 52.676V70.7443L88.3164 61.3134V43.2451Z" fill="#F0FAF6"/>
<path d="M125.075 22.0479L141.446 31.4787L104.672 52.6757L88.3164 43.2448L125.075 22.0479Z" fill="#F0FAF6"/>
<path d="M15 70.5703L93.7347 115.958V134.027L15 88.6386V70.5703Z" fill="#3A9E3D"/>
<path d="M15 70.5703L93.7347 115.958V134.027L15 88.6386V70.5703Z" fill="url(#paint26_linear_501_35934)"/>
<path d="M130.493 94.7607V112.829L93.7344 134.026V115.958L130.493 94.7607Z" fill="#46BE49"/>
<path d="M130.493 94.7607V112.829L93.7344 134.026V115.958L130.493 94.7607Z" fill="url(#paint27_linear_501_35934)"/>
<path d="M51.7738 49.373L130.494 94.7609L93.7347 115.958L15 70.57L51.7738 49.373Z" fill="#61E041"/>
<path d="M51.7738 49.373L130.494 94.7609L93.7347 115.958L15 70.57L51.7738 49.373Z" fill="#C9EDDB"/>
<path d="M51.7738 49.373L130.494 94.7609L93.7347 115.958L15 70.57L51.7738 49.373Z" fill="url(#paint28_linear_501_35934)"/>
<path d="M25.7949 68.2502L47.7573 55.5859C51.3252 57.6517 52.6295 57.9661 56.1824 55.9153L119.131 92.2016C115.578 94.2525 116.133 95.0009 119.701 97.0668L97.7385 109.731C94.1706 107.665 92.8663 107.351 89.3134 109.402L26.3796 73.1154C29.9175 71.0645 29.3629 70.316 25.7949 68.2502Z" fill="#46BE49"/>
<path d="M25.7949 68.2502L47.7573 55.5859C51.3252 57.6517 52.6295 57.9661 56.1824 55.9153L119.131 92.2016C115.578 94.2525 116.133 95.0009 119.701 97.0668L97.7385 109.731C94.1706 107.665 92.8663 107.351 89.3134 109.402L26.3796 73.1154C29.9175 71.0645 29.3629 70.316 25.7949 68.2502Z" fill="#C9EDDB"/>
<path d="M25.7949 68.2502L47.7573 55.5859C51.3252 57.6517 52.6295 57.9661 56.1824 55.9153L119.131 92.2016C115.578 94.2525 116.133 95.0009 119.701 97.0668L97.7385 109.731C94.1706 107.665 92.8663 107.351 89.3134 109.402L26.3796 73.1154C29.9175 71.0645 29.3629 70.316 25.7949 68.2502Z" fill="url(#paint29_linear_501_35934)" fill-opacity="0.5"/>
<path d="M74.5002 95.5285C87.1333 93.8071 96.5877 86.6544 95.6172 79.5524C94.6467 72.4505 83.6188 68.0886 70.9856 69.81C58.3525 71.5313 48.8981 78.684 49.8686 85.786C50.8391 92.888 61.867 97.2498 74.5002 95.5285Z" fill="#C9EDDB"/>
<path d="M94.064 94.9554C96.3726 93.6231 100.15 93.6231 102.474 94.9703C104.798 96.3176 104.813 98.4882 102.504 99.8205C100.195 101.153 96.4176 101.153 94.094 99.8055C91.7703 98.4583 91.7553 96.2877 94.064 94.9554Z" fill="#C9EDDB"/>
<path d="M43.2495 66.264C45.5582 64.9317 49.336 64.9317 51.6597 66.2789C53.9833 67.6262 53.9983 69.7968 51.6897 71.1291C49.381 72.4614 45.6032 72.4614 43.2795 71.1141C40.9558 69.7668 40.9408 67.5963 43.2495 66.264Z" fill="#C9EDDB"/>
<path d="M46.3164 88.624L62.672 98.0549V116.123L46.3164 106.692V88.624Z" fill="#F0FAF6"/>
<path d="M83.0752 67.4268L99.4458 76.8576L62.672 98.0546L46.3164 88.6237L83.0752 67.4268Z" fill="#F0FAF6"/>
<path d="M15 49.3779L93.7347 94.7658V112.834L15 67.4463V49.3779Z" fill="#3A9E3D"/>
<path d="M15 49.3779L93.7347 94.7658V112.834L15 67.4463V49.3779Z" fill="url(#paint30_linear_501_35934)"/>
<path d="M130.493 73.5693V91.6377L93.7344 112.835V94.7663L130.493 73.5693Z" fill="#46BE49"/>
<path d="M130.493 73.5693V91.6377L93.7344 112.835V94.7663L130.493 73.5693Z" fill="url(#paint31_linear_501_35934)"/>
<path d="M51.7738 28.1816L130.494 73.5695L93.7347 94.7665L15 49.3786L51.7738 28.1816Z" fill="#61E041"/>
<path d="M51.7738 28.1816L130.494 73.5695L93.7347 94.7665L15 49.3786L51.7738 28.1816Z" fill="#C9EDDB"/>
<path d="M51.7738 28.1816L130.494 73.5695L93.7347 94.7665L15 49.3786L51.7738 28.1816Z" fill="url(#paint32_linear_501_35934)"/>
<path d="M25.7949 47.0579L47.7573 34.3936C51.3252 36.4594 52.6295 36.7737 56.1824 34.7229L119.131 71.0092C115.578 73.0601 116.133 73.8086 119.701 75.8744L97.7385 88.5387C94.1706 86.4729 92.8663 86.1585 89.3134 88.2093L26.3796 51.923C29.9175 49.8721 29.3629 49.1237 25.7949 47.0579Z" fill="#46BE49"/>
<path d="M25.7949 47.0579L47.7573 34.3936C51.3252 36.4594 52.6295 36.7737 56.1824 34.7229L119.131 71.0092C115.578 73.0601 116.133 73.8086 119.701 75.8744L97.7385 88.5387C94.1706 86.4729 92.8663 86.1585 89.3134 88.2093L26.3796 51.923C29.9175 49.8721 29.3629 49.1237 25.7949 47.0579Z" fill="#C9EDDB"/>
<path d="M25.7949 47.0579L47.7573 34.3936C51.3252 36.4594 52.6295 36.7737 56.1824 34.7229L119.131 71.0092C115.578 73.0601 116.133 73.8086 119.701 75.8744L97.7385 88.5387C94.1706 86.4729 92.8663 86.1585 89.3134 88.2093L26.3796 51.923C29.9175 49.8721 29.3629 49.1237 25.7949 47.0579Z" fill="url(#paint33_linear_501_35934)" fill-opacity="0.5"/>
<path d="M74.5002 74.3371C87.1333 72.6157 96.5877 65.463 95.6172 58.361C94.6467 51.259 83.6188 46.8972 70.9856 48.6186C58.3525 50.3399 48.8981 57.4926 49.8686 64.5946C50.8391 71.6966 61.867 76.0584 74.5002 74.3371Z" fill="#C9EDDB"/>
<path d="M94.064 73.764C96.3726 72.4317 100.15 72.4317 102.474 73.7789C104.798 75.1262 104.813 77.2968 102.504 78.6291C100.195 79.9614 96.4176 79.9614 94.094 78.6141C91.7703 77.2668 91.7553 75.0963 94.064 73.764Z" fill="#C9EDDB"/>
<path d="M43.2495 45.0726C45.5582 43.7403 49.336 43.7403 51.6597 45.0875C53.9833 46.4348 53.9983 48.6054 51.6897 49.9377C49.381 51.27 45.6032 51.27 43.2795 49.9227C40.9558 48.5754 40.9408 46.4049 43.2495 45.0726Z" fill="#C9EDDB"/>
<path d="M46.3164 67.4316L62.672 76.8625V94.9308L46.3164 85.5V67.4316Z" fill="#F0FAF6"/>
<path d="M83.0752 46.2354L99.4458 55.6662L62.672 76.8632L46.3164 67.4323L83.0752 46.2354Z" fill="#F0FAF6"/>
<path d="M15 28.1865L93.7347 73.5744V91.6427L15 46.2549V28.1865Z" fill="#3A9E3D"/>
<path d="M15 28.1865L93.7347 73.5744V91.6427L15 46.2549V28.1865Z" fill="url(#paint34_linear_501_35934)"/>
<path d="M130.493 52.3779V70.4463L93.7344 91.6432V73.5749L130.493 52.3779Z" fill="#46BE49"/>
<path d="M130.493 52.3779V70.4463L93.7344 91.6432V73.5749L130.493 52.3779Z" fill="url(#paint35_linear_501_35934)"/>
<path d="M51.7738 6.99023L130.494 52.3781L93.7347 73.5751L15 28.1872L51.7738 6.99023Z" fill="#C9EDDB"/>
<path d="M25.7949 25.8664L47.7573 13.2021C51.3252 15.268 52.6295 15.5823 56.1824 13.5315L119.131 49.8178C115.578 51.8687 116.133 52.6172 119.701 54.683L97.7385 67.3473C94.1706 65.2815 92.8663 64.9671 89.3134 67.0179L26.3796 30.7316C29.9175 28.6807 29.3629 27.9323 25.7949 25.8664Z" fill="#46BE49"/>
<path d="M25.7949 25.8664L47.7573 13.2021C51.3252 15.268 52.6295 15.5823 56.1824 13.5315L119.131 49.8178C115.578 51.8687 116.133 52.6172 119.701 54.683L97.7385 67.3473C94.1706 65.2815 92.8663 64.9671 89.3134 67.0179L26.3796 30.7316C29.9175 28.6807 29.3629 27.9323 25.7949 25.8664Z" fill="#C9EDDB"/>
<path d="M25.7949 25.8664L47.7573 13.2021C51.3252 15.268 52.6295 15.5823 56.1824 13.5315L119.131 49.8178C115.578 51.8687 116.133 52.6172 119.701 54.683L97.7385 67.3473C94.1706 65.2815 92.8663 64.9671 89.3134 67.0179L26.3796 30.7316C29.9175 28.6807 29.3629 27.9323 25.7949 25.8664Z" fill="url(#paint36_linear_501_35934)" fill-opacity="0.3"/>
<path d="M74.5002 53.1457C87.1333 51.4243 96.5877 44.2716 95.6172 37.1696C94.6467 30.0676 83.6188 25.7058 70.9856 27.4272C58.3525 29.1485 48.8981 36.3012 49.8686 43.4032C50.8391 50.5052 61.867 54.867 74.5002 53.1457Z" fill="#C9EDDB"/>
<path d="M94.064 52.5726C96.3726 51.2403 100.15 51.2403 102.474 52.5875C104.798 53.9348 104.813 56.1054 102.504 57.4377C100.195 58.77 96.4176 58.77 94.094 57.4227C91.7703 56.0754 91.7553 53.9049 94.064 52.5726Z" fill="#C9EDDB"/>
<path d="M43.2495 23.8811C45.5582 22.5489 49.336 22.5489 51.6597 23.8961C53.9833 25.2434 53.9983 27.414 51.6897 28.7463C49.381 30.0786 45.6032 30.0786 43.2795 28.7313C40.9558 27.384 40.9408 25.2134 43.2495 23.8811Z" fill="#C9EDDB"/>
<path d="M46.3164 46.2402L62.672 55.6711V73.7394L46.3164 64.3086V46.2402Z" fill="#F0FAF6"/>
<path d="M83.0752 25.0439L99.4458 34.4748L62.672 55.6718L46.3164 46.2409L83.0752 25.0439Z" fill="#F0FAF6"/>
<defs>
<filter id="filter0_f_501_35934" x="0" y="99.6494" width="189" height="67.3506" filterUnits="userSpaceOnUse" color-interpolation-filters="sRGB">
<feFlood flood-opacity="0" result="BackgroundImageFix"/>
<feBlend mode="normal" in="SourceGraphic" in2="BackgroundImageFix" result="shape"/>
<feGaussianBlur stdDeviation="7.5" result="effect1_foregroundBlur_501_35934"/>
</filter>
<linearGradient id="paint0_linear_501_35934" x1="202" y1="0" x2="202" y2="113.835" gradientUnits="userSpaceOnUse">
<stop stop-color="white"/>
<stop offset="1" stop-color="#CCFFEC"/>
</linearGradient>
<linearGradient id="paint1_linear_501_35934" x1="125.887" y1="117.081" x2="100.981" y2="174.704" gradientUnits="userSpaceOnUse">
<stop stop-color="#245795"/>
<stop offset="1" stop-color="#8AD3A8"/>
</linearGradient>
<linearGradient id="paint2_linear_501_35934" x1="131.723" y1="130.149" x2="134.748" y2="154.293" gradientUnits="userSpaceOnUse">
<stop stop-color="#245795"/>
<stop offset="1" stop-color="#8AD3A8"/>
</linearGradient>
<linearGradient id="paint3_linear_501_35934" x1="74.1453" y1="97.6423" x2="74.9964" y2="153.071" gradientUnits="userSpaceOnUse">
<stop stop-color="#245795"/>
<stop offset="1" stop-color="#8AD3A8"/>
</linearGradient>
<linearGradient id="paint4_linear_501_35934" x1="106.627" y1="119.866" x2="107.123" y2="139.427" gradientUnits="userSpaceOnUse">
<stop stop-color="#245795"/>
<stop offset="1" stop-color="#8AD3A8"/>
</linearGradient>
<linearGradient id="paint5_linear_501_35934" x1="125.887" y1="111.002" x2="100.981" y2="168.626" gradientUnits="userSpaceOnUse">
<stop stop-color="#245795"/>
<stop offset="1" stop-color="#8AD3A8"/>
</linearGradient>
<linearGradient id="paint6_linear_501_35934" x1="131.723" y1="124.071" x2="134.748" y2="148.215" gradientUnits="userSpaceOnUse">
<stop stop-color="#245795"/>
<stop offset="1" stop-color="#8AD3A8"/>
</linearGradient>
<linearGradient id="paint7_linear_501_35934" x1="82.0169" y1="97.6593" x2="82.7092" y2="142.733" gradientUnits="userSpaceOnUse">
<stop stop-color="#245795"/>
<stop offset="1" stop-color="#8AD3A8"/>
</linearGradient>
<linearGradient id="paint8_linear_501_35934" x1="82.3812" y1="124.072" x2="57.4754" y2="181.695" gradientUnits="userSpaceOnUse">
<stop stop-color="#245795"/>
<stop offset="1" stop-color="#8AD3A8"/>
</linearGradient>
<linearGradient id="paint9_linear_501_35934" x1="88.2168" y1="137.14" x2="91.2424" y2="161.284" gradientUnits="userSpaceOnUse">
<stop stop-color="#245795"/>
<stop offset="1" stop-color="#8AD3A8"/>
</linearGradient>
<linearGradient id="paint10_linear_501_35934" x1="30.6394" y1="104.633" x2="31.4906" y2="160.062" gradientUnits="userSpaceOnUse">
<stop stop-color="#245795"/>
<stop offset="1" stop-color="#8AD3A8"/>
</linearGradient>
<linearGradient id="paint11_linear_501_35934" x1="63.1195" y1="126.858" x2="63.6156" y2="146.419" gradientUnits="userSpaceOnUse">
<stop stop-color="#245795"/>
<stop offset="1" stop-color="#8AD3A8"/>
</linearGradient>
<linearGradient id="paint12_linear_501_35934" x1="82.3812" y1="117.993" x2="57.4754" y2="175.616" gradientUnits="userSpaceOnUse">
<stop stop-color="#245795"/>
<stop offset="1" stop-color="#8AD3A8"/>
</linearGradient>
<linearGradient id="paint13_linear_501_35934" x1="88.2168" y1="131.061" x2="91.2424" y2="155.205" gradientUnits="userSpaceOnUse">
<stop stop-color="#245795"/>
<stop offset="1" stop-color="#8AD3A8"/>
</linearGradient>
<linearGradient id="paint14_linear_501_35934" x1="30.6394" y1="98.5544" x2="31.4906" y2="153.983" gradientUnits="userSpaceOnUse">
<stop stop-color="#245795"/>
<stop offset="1" stop-color="#8AD3A8"/>
</linearGradient>
<linearGradient id="paint15_linear_501_35934" x1="63.1195" y1="120.778" x2="63.6156" y2="140.339" gradientUnits="userSpaceOnUse">
<stop stop-color="#245795"/>
<stop offset="1" stop-color="#8AD3A8"/>
</linearGradient>
<linearGradient id="paint16_linear_501_35934" x1="82.3812" y1="111.915" x2="57.4754" y2="169.538" gradientUnits="userSpaceOnUse">
<stop stop-color="#245795"/>
<stop offset="1" stop-color="#8AD3A8"/>
</linearGradient>
<linearGradient id="paint17_linear_501_35934" x1="88.2168" y1="124.983" x2="91.2424" y2="149.127" gradientUnits="userSpaceOnUse">
<stop stop-color="#245795"/>
<stop offset="1" stop-color="#8AD3A8"/>
</linearGradient>
<linearGradient id="paint18_linear_501_35934" x1="38.5091" y1="98.5704" x2="39.2014" y2="143.644" gradientUnits="userSpaceOnUse">
<stop stop-color="#245795"/>
<stop offset="1" stop-color="#8AD3A8"/>
</linearGradient>
<linearGradient id="paint19_linear_501_35934" x1="124.381" y1="12.4709" x2="14.5338" y2="85.369" gradientUnits="userSpaceOnUse">
<stop stop-color="#245795"/>
<stop offset="1" stop-color="#8AD3A8"/>
</linearGradient>
<linearGradient id="paint20_linear_501_35934" x1="130.217" y1="58.0324" x2="161.582" y2="129.826" gradientUnits="userSpaceOnUse">
<stop stop-color="#245795"/>
<stop offset="1" stop-color="#8AD3A8"/>
</linearGradient>
<linearGradient id="paint21_linear_501_35934" x1="72.6394" y1="-55.2973" x2="82.9578" y2="137.439" gradientUnits="userSpaceOnUse">
<stop stop-color="#245795"/>
<stop offset="1" stop-color="#8AD3A8"/>
</linearGradient>
<linearGradient id="paint22_linear_501_35934" x1="105.121" y1="22.1825" x2="111.108" y2="89.8942" gradientUnits="userSpaceOnUse">
<stop stop-color="#245795"/>
<stop offset="1" stop-color="#8AD3A8"/>
</linearGradient>
<linearGradient id="paint23_linear_501_35934" x1="124.381" y1="-8.72046" x2="14.5338" y2="64.1776" gradientUnits="userSpaceOnUse">
<stop stop-color="#245795"/>
<stop offset="1" stop-color="#8AD3A8"/>
</linearGradient>
<linearGradient id="paint24_linear_501_35934" x1="130.217" y1="36.841" x2="161.582" y2="108.634" gradientUnits="userSpaceOnUse">
<stop stop-color="#245795"/>
<stop offset="1" stop-color="#8AD3A8"/>
</linearGradient>
<linearGradient id="paint25_linear_501_35934" x1="80.5111" y1="-55.2406" x2="88.9026" y2="101.488" gradientUnits="userSpaceOnUse">
<stop stop-color="#245795"/>
<stop offset="1" stop-color="#8AD3A8"/>
</linearGradient>
<linearGradient id="paint26_linear_501_35934" x1="82.3812" y1="36.6584" x2="-27.4662" y2="109.556" gradientUnits="userSpaceOnUse">
<stop stop-color="#245795"/>
<stop offset="1" stop-color="#8AD3A8"/>
</linearGradient>
<linearGradient id="paint27_linear_501_35934" x1="88.2168" y1="82.2199" x2="119.582" y2="154.013" gradientUnits="userSpaceOnUse">
<stop stop-color="#245795"/>
<stop offset="1" stop-color="#8AD3A8"/>
</linearGradient>
<linearGradient id="paint28_linear_501_35934" x1="30.6394" y1="-31.1098" x2="40.9578" y2="161.627" gradientUnits="userSpaceOnUse">
<stop stop-color="#245795"/>
<stop offset="1" stop-color="#8AD3A8"/>
</linearGradient>
<linearGradient id="paint29_linear_501_35934" x1="63.1214" y1="46.371" x2="69.1082" y2="114.083" gradientUnits="userSpaceOnUse">
<stop stop-color="#245795"/>
<stop offset="1" stop-color="#8AD3A8"/>
</linearGradient>
<linearGradient id="paint30_linear_501_35934" x1="82.3812" y1="15.4661" x2="-27.4662" y2="88.3641" gradientUnits="userSpaceOnUse">
<stop stop-color="#245795"/>
<stop offset="1" stop-color="#8AD3A8"/>
</linearGradient>
<linearGradient id="paint31_linear_501_35934" x1="88.2168" y1="61.0285" x2="119.582" y2="132.822" gradientUnits="userSpaceOnUse">
<stop stop-color="#245795"/>
<stop offset="1" stop-color="#8AD3A8"/>
</linearGradient>
<linearGradient id="paint32_linear_501_35934" x1="30.6394" y1="-52.3013" x2="40.9578" y2="140.435" gradientUnits="userSpaceOnUse">
<stop stop-color="#245795"/>
<stop offset="1" stop-color="#8AD3A8"/>
</linearGradient>
<linearGradient id="paint33_linear_501_35934" x1="63.1214" y1="25.1786" x2="69.1082" y2="92.8903" gradientUnits="userSpaceOnUse">
<stop stop-color="#245795"/>
<stop offset="1" stop-color="#8AD3A8"/>
</linearGradient>
<linearGradient id="paint34_linear_501_35934" x1="82.3812" y1="-5.72534" x2="-27.4662" y2="67.1727" gradientUnits="userSpaceOnUse">
<stop stop-color="#245795"/>
<stop offset="1" stop-color="#8AD3A8"/>
</linearGradient>
<linearGradient id="paint35_linear_501_35934" x1="88.2168" y1="39.837" x2="119.582" y2="111.63" gradientUnits="userSpaceOnUse">
<stop stop-color="#245795"/>
<stop offset="1" stop-color="#8AD3A8"/>
</linearGradient>
<linearGradient id="paint36_linear_501_35934" x1="38.5111" y1="-52.2445" x2="46.9026" y2="104.484" gradientUnits="userSpaceOnUse">
<stop stop-color="#245795"/>
<stop offset="1" stop-color="#8AD3A8"/>
</linearGradient>
</defs>
</svg>
