<svg width="205" height="206" viewBox="0 0 205 206" fill="none" xmlns="http://www.w3.org/2000/svg">
<path fill-rule="evenodd" clip-rule="evenodd" d="M178.84 45.62H122.16C118.548 45.62 115.62 48.5481 115.62 52.16V128.46C115.62 132.072 118.548 135 122.16 135H178.84C182.452 135 185.38 132.072 185.38 128.46V52.16C185.38 48.5481 182.452 45.62 178.84 45.62ZM122.16 26C107.712 26 96 37.7122 96 52.16V128.46C96 142.908 107.712 154.62 122.16 154.62H178.84C193.288 154.62 205 142.908 205 128.46V52.16C205 37.7122 193.288 26 178.84 26L122.16 26Z" fill="url(#paint0_linear_501_35939)" fill-opacity="0.4"/>
<path fill-rule="evenodd" clip-rule="evenodd" d="M178.066 117L156.066 81L145.167 98.8349L138.066 87L120.066 117H134.066H156.066H178.066Z" fill="url(#paint1_linear_501_35939)" fill-opacity="0.4"/>
<circle cx="136" cy="75" r="6" fill="url(#paint2_linear_501_35939)" fill-opacity="0.4"/>
<g opacity="0.1" filter="url(#filter0_f_501_35939)">
<path d="M43.457 165.176L94.9566 178.214V183.404L43.457 170.366V165.176Z" fill="#3A9E3D"/>
<path d="M43.457 165.176L94.9566 178.214V183.404L43.457 170.366V165.176Z" fill="url(#paint3_linear_501_35939)"/>
<path d="M119.001 172.125V177.315L94.957 183.404V178.214L119.001 172.125Z" fill="#46BE49"/>
<path d="M119.001 172.125V177.315L94.957 183.404V178.214L119.001 172.125Z" fill="url(#paint4_linear_501_35939)"/>
<path d="M67.5104 159.087L119 172.125L94.9566 178.214L43.457 165.176L67.5104 159.087Z" fill="#61E041"/>
<path d="M67.5104 159.087L119 172.125L94.9566 178.214L43.457 165.176L67.5104 159.087Z" fill="#C9EDDB"/>
<path d="M67.5104 159.087L119 172.125L94.9566 178.214L43.457 165.176L67.5104 159.087Z" fill="url(#paint5_linear_501_35939)"/>
<path d="M50.5176 164.509L64.8829 160.871C67.2167 161.464 68.0698 161.555 70.3937 160.966L111.568 171.389C109.244 171.978 109.607 172.193 111.94 172.787L97.5751 176.424C95.2414 175.831 94.3883 175.741 92.0643 176.33L50.9 165.906C53.2141 165.317 52.8513 165.102 50.5176 164.509Z" fill="#46BE49"/>
<path d="M50.5176 164.509L64.8829 160.871C67.2167 161.464 68.0698 161.555 70.3937 160.966L111.568 171.389C109.244 171.978 109.607 172.193 111.94 172.787L97.5751 176.424C95.2414 175.831 94.3883 175.741 92.0643 176.33L50.9 165.906C53.2141 165.317 52.8513 165.102 50.5176 164.509Z" fill="#C9EDDB"/>
<path d="M50.5176 164.509L64.8829 160.871C67.2167 161.464 68.0698 161.555 70.3937 160.966L111.568 171.389C109.244 171.978 109.607 172.193 111.94 172.787L97.5751 176.424C95.2414 175.831 94.3883 175.741 92.0643 176.33L50.9 165.906C53.2141 165.317 52.8513 165.102 50.5176 164.509Z" fill="url(#paint6_linear_501_35939)" fill-opacity="0.5"/>
<path d="M82.3759 172.346C90.6391 171.851 96.8232 169.797 96.1883 167.757C95.5535 165.717 88.3403 164.464 80.0771 164.958C71.8139 165.453 65.6298 167.507 66.2646 169.547C66.8994 171.587 74.1127 172.84 82.3759 172.346Z" fill="#C9EDDB"/>
<path d="M95.1733 172.181C96.6834 171.798 99.1544 171.798 100.674 172.185C102.194 172.572 102.204 173.196 100.694 173.579C99.1839 173.961 96.7128 173.961 95.1929 173.574C93.6731 173.187 93.6633 172.564 95.1733 172.181Z" fill="#C9EDDB"/>
<path d="M61.9351 163.939C63.4451 163.556 65.9162 163.556 67.4361 163.943C68.9559 164.33 68.9657 164.954 67.4557 165.336C65.9456 165.719 63.4745 165.719 61.9547 165.332C60.4348 164.945 60.425 164.322 61.9351 163.939Z" fill="#C9EDDB"/>
<path d="M63.9414 170.361L74.6394 173.07V178.261L63.9414 175.551V170.361Z" fill="#F0FAF6"/>
<path d="M87.985 164.273L98.6928 166.982L74.6394 173.071L63.9414 170.362L87.985 164.273Z" fill="#F0FAF6"/>
<path d="M43.457 159.089L94.9566 172.127V177.317L43.457 164.279V159.089Z" fill="#3A9E3D"/>
<path d="M43.457 159.089L94.9566 172.127V177.317L43.457 164.279V159.089Z" fill="url(#paint7_linear_501_35939)"/>
<path d="M119.001 166.038V171.228L94.957 177.317V172.127L119.001 166.038Z" fill="#46BE49"/>
<path d="M119.001 166.038V171.228L94.957 177.317V172.127L119.001 166.038Z" fill="url(#paint8_linear_501_35939)"/>
<path d="M67.5104 153L119 166.038L94.9566 172.127L43.457 159.089L67.5104 153Z" fill="#61E041"/>
<path d="M67.5104 153L119 166.038L94.9566 172.127L43.457 159.089L67.5104 153Z" fill="#C9EDDB"/>
<path d="M50.5176 158.422L64.8829 154.784C67.2167 155.378 68.0698 155.468 70.3937 154.879L111.568 165.302C109.244 165.891 109.607 166.106 111.94 166.7L97.5751 170.337C95.2414 169.744 94.3883 169.654 92.0643 170.243L50.9 159.82C53.2141 159.23 52.8513 159.015 50.5176 158.422Z" fill="#46BE49"/>
<path d="M50.5176 158.422L64.8829 154.784C67.2167 155.378 68.0698 155.468 70.3937 154.879L111.568 165.302C109.244 165.891 109.607 166.106 111.94 166.7L97.5751 170.337C95.2414 169.744 94.3883 169.654 92.0643 170.243L50.9 159.82C53.2141 159.23 52.8513 159.015 50.5176 158.422Z" fill="#C9EDDB"/>
<path d="M50.5176 158.422L64.8829 154.784C67.2167 155.378 68.0698 155.468 70.3937 154.879L111.568 165.302C109.244 165.891 109.607 166.106 111.94 166.7L97.5751 170.337C95.2414 169.744 94.3883 169.654 92.0643 170.243L50.9 159.82C53.2141 159.23 52.8513 159.015 50.5176 158.422Z" fill="url(#paint9_linear_501_35939)" fill-opacity="0.3"/>
<path d="M82.3759 166.258C90.6391 165.764 96.8232 163.709 96.1883 161.669C95.5535 159.629 88.3403 158.376 80.0771 158.87C71.8139 159.365 65.6298 161.419 66.2646 163.459C66.8994 165.5 74.1127 166.752 82.3759 166.258Z" fill="#C9EDDB"/>
<path d="M95.1733 166.093C96.6834 165.71 99.1544 165.71 100.674 166.097C102.194 166.484 102.204 167.108 100.694 167.491C99.1839 167.873 96.7128 167.873 95.1929 167.486C93.6731 167.099 93.6633 166.476 95.1733 166.093Z" fill="#C9EDDB"/>
<path d="M61.9351 157.852C63.4451 157.469 65.9162 157.469 67.4361 157.856C68.9559 158.243 68.9657 158.867 67.4557 159.249C65.9456 159.632 63.4745 159.632 61.9547 159.245C60.4348 158.858 60.425 158.235 61.9351 157.852Z" fill="#C9EDDB"/>
<path d="M63.9414 164.274L74.6394 166.983V172.174L63.9414 169.465V164.274Z" fill="#F0FAF6"/>
<path d="M87.985 158.186L98.6928 160.895L74.6394 166.983L63.9414 164.274L87.985 158.186Z" fill="#F0FAF6"/>
<path d="M15 172.177L66.4995 185.214V190.405L15 177.367V172.177Z" fill="#3A9E3D"/>
<path d="M15 172.177L66.4995 185.214V190.405L15 177.367V172.177Z" fill="url(#paint10_linear_501_35939)"/>
<path d="M90.5436 179.126V184.316L66.5 190.405V185.215L90.5436 179.126Z" fill="#46BE49"/>
<path d="M90.5436 179.126V184.316L66.5 190.405V185.215L90.5436 179.126Z" fill="url(#paint11_linear_501_35939)"/>
<path d="M39.0534 166.088L90.5431 179.126L66.4995 185.214L15 172.177L39.0534 166.088Z" fill="#61E041"/>
<path d="M39.0534 166.088L90.5431 179.126L66.4995 185.214L15 172.177L39.0534 166.088Z" fill="#C9EDDB"/>
<path d="M39.0534 166.088L90.5431 179.126L66.4995 185.214L15 172.177L39.0534 166.088Z" fill="url(#paint12_linear_501_35939)"/>
<path d="M22.0605 171.51L36.4259 167.872C38.7597 168.465 39.6128 168.556 41.9367 167.967L83.1109 178.39C80.7869 178.979 81.1497 179.194 83.4835 179.787L69.1181 183.425C66.7844 182.832 65.9313 182.742 63.6073 183.331L22.443 172.907C24.7571 172.318 24.3943 172.103 22.0605 171.51Z" fill="#46BE49"/>
<path d="M22.0605 171.51L36.4259 167.872C38.7597 168.465 39.6128 168.556 41.9367 167.967L83.1109 178.39C80.7869 178.979 81.1497 179.194 83.4835 179.787L69.1181 183.425C66.7844 182.832 65.9313 182.742 63.6073 183.331L22.443 172.907C24.7571 172.318 24.3943 172.103 22.0605 171.51Z" fill="#C9EDDB"/>
<path d="M22.0605 171.51L36.4259 167.872C38.7597 168.465 39.6128 168.556 41.9367 167.967L83.1109 178.39C80.7869 178.979 81.1497 179.194 83.4835 179.787L69.1181 183.425C66.7844 182.832 65.9313 182.742 63.6073 183.331L22.443 172.907C24.7571 172.318 24.3943 172.103 22.0605 171.51Z" fill="url(#paint13_linear_501_35939)" fill-opacity="0.5"/>
<path d="M53.9189 179.346C62.1821 178.851 68.3661 176.797 67.7313 174.757C67.0965 172.717 59.8833 171.464 51.6201 171.958C43.3569 172.453 37.1728 174.507 37.8076 176.547C38.4424 178.587 45.6557 179.84 53.9189 179.346Z" fill="#C9EDDB"/>
<path d="M66.7143 179.181C68.2244 178.798 70.6955 178.798 72.2153 179.185C73.7352 179.572 73.745 180.196 72.235 180.579C70.7249 180.961 68.2538 180.961 66.734 180.574C65.2141 180.187 65.2043 179.564 66.7143 179.181Z" fill="#C9EDDB"/>
<path d="M33.478 170.94C34.9881 170.557 37.4591 170.557 38.979 170.944C40.4989 171.331 40.5087 171.955 38.9986 172.337C37.4885 172.72 35.0175 172.72 33.4976 172.333C31.9777 171.946 31.9679 171.323 33.478 170.94Z" fill="#C9EDDB"/>
<path d="M59.528 171.273L70.2358 173.982L46.1824 180.071L35.4844 177.362L59.528 171.273Z" fill="#F0FAF6"/>
<path d="M15 166.089L66.4995 179.127V184.317L15 171.279V166.089Z" fill="#3A9E3D"/>
<path d="M15 166.089L66.4995 179.127V184.317L15 171.279V166.089Z" fill="url(#paint14_linear_501_35939)"/>
<path d="M90.5436 173.037V178.227L66.5 184.316V179.126L90.5436 173.037Z" fill="#46BE49"/>
<path d="M90.5436 173.037V178.227L66.5 184.316V179.126L90.5436 173.037Z" fill="url(#paint15_linear_501_35939)"/>
<path d="M39.0534 160L90.5431 173.038L66.4995 179.127L15 166.089L39.0534 160Z" fill="#61E041"/>
<path d="M39.0534 160L90.5431 173.038L66.4995 179.127L15 166.089L39.0534 160Z" fill="#C9EDDB"/>
<path d="M39.0534 160L90.5431 173.038L66.4995 179.127L15 166.089L39.0534 160Z" fill="url(#paint16_linear_501_35939)"/>
<path d="M22.0605 165.423L36.4259 161.785C38.7597 162.379 39.6128 162.469 41.9367 161.88L83.1109 172.303C80.7869 172.892 81.1497 173.107 83.4835 173.701L69.1181 177.338C66.7844 176.745 65.9313 176.655 63.6073 177.244L22.443 166.821C24.7571 166.231 24.3943 166.016 22.0605 165.423Z" fill="#46BE49"/>
<path d="M22.0605 165.423L36.4259 161.785C38.7597 162.379 39.6128 162.469 41.9367 161.88L83.1109 172.303C80.7869 172.892 81.1497 173.107 83.4835 173.701L69.1181 177.338C66.7844 176.745 65.9313 176.655 63.6073 177.244L22.443 166.821C24.7571 166.231 24.3943 166.016 22.0605 165.423Z" fill="#C9EDDB"/>
<path d="M22.0605 165.423L36.4259 161.785C38.7597 162.379 39.6128 162.469 41.9367 161.88L83.1109 172.303C80.7869 172.892 81.1497 173.107 83.4835 173.701L69.1181 177.338C66.7844 176.745 65.9313 176.655 63.6073 177.244L22.443 166.821C24.7571 166.231 24.3943 166.016 22.0605 165.423Z" fill="url(#paint17_linear_501_35939)" fill-opacity="0.5"/>
<path d="M53.9189 173.258C62.1821 172.764 68.3661 170.709 67.7313 168.669C67.0965 166.629 59.8833 165.376 51.6201 165.87C43.3569 166.365 37.1728 168.419 37.8076 170.459C38.4424 172.5 45.6557 173.752 53.9189 173.258Z" fill="#C9EDDB"/>
<path d="M66.7143 173.093C68.2244 172.71 70.6955 172.71 72.2153 173.097C73.7352 173.484 73.745 174.108 72.235 174.491C70.7249 174.873 68.2538 174.873 66.734 174.486C65.2141 174.099 65.2043 173.476 66.7143 173.093Z" fill="#C9EDDB"/>
<path d="M33.478 164.852C34.9881 164.469 37.4591 164.469 38.979 164.856C40.4989 165.243 40.5087 165.867 38.9986 166.249C37.4885 166.632 35.0175 166.632 33.4976 166.245C31.9777 165.858 31.9679 165.235 33.478 164.852Z" fill="#C9EDDB"/>
<path d="M35.4844 171.275L46.1824 173.984V179.175L35.4844 176.466V171.275Z" fill="#F0FAF6"/>
<path d="M59.528 165.186L70.2358 167.895L46.1824 173.983L35.4844 171.274L59.528 165.186Z" fill="#F0FAF6"/>
<path d="M15 160.002L66.4995 173.04V178.23L15 165.192V160.002Z" fill="#3A9E3D"/>
<path d="M15 160.002L66.4995 173.04V178.23L15 165.192V160.002Z" fill="url(#paint18_linear_501_35939)"/>
<path d="M90.5436 166.951V172.141L66.5 178.23V173.04L90.5436 166.951Z" fill="#46BE49"/>
<path d="M90.5436 166.951V172.141L66.5 178.23V173.04L90.5436 166.951Z" fill="url(#paint19_linear_501_35939)"/>
<path d="M39.0534 153.913L90.5431 166.951L66.4995 173.04L15 160.002L39.0534 153.913Z" fill="#61E041"/>
<path d="M39.0534 153.913L90.5431 166.951L66.4995 173.04L15 160.002L39.0534 153.913Z" fill="#C9EDDB"/>
<path d="M22.0605 159.335L36.4259 155.697C38.7597 156.291 39.6128 156.381 41.9367 155.792L83.1109 166.215C80.7869 166.804 81.1497 167.019 83.4835 167.613L69.1181 171.251C66.7844 170.657 65.9313 170.567 63.6073 171.156L22.443 160.733C24.7571 160.144 24.3943 159.929 22.0605 159.335Z" fill="#46BE49"/>
<path d="M22.0605 159.335L36.4259 155.697C38.7597 156.291 39.6128 156.381 41.9367 155.792L83.1109 166.215C80.7869 166.804 81.1497 167.019 83.4835 167.613L69.1181 171.251C66.7844 170.657 65.9313 170.567 63.6073 171.156L22.443 160.733C24.7571 160.144 24.3943 159.929 22.0605 159.335Z" fill="#C9EDDB"/>
<path d="M22.0605 159.335L36.4259 155.697C38.7597 156.291 39.6128 156.381 41.9367 155.792L83.1109 166.215C80.7869 166.804 81.1497 167.019 83.4835 167.613L69.1181 171.251C66.7844 170.657 65.9313 170.567 63.6073 171.156L22.443 160.733C24.7571 160.144 24.3943 159.929 22.0605 159.335Z" fill="url(#paint20_linear_501_35939)" fill-opacity="0.3"/>
<path d="M53.9189 167.171C62.1821 166.677 68.3661 164.622 67.7313 162.582C67.0965 160.542 59.8833 159.289 51.6201 159.783C43.3569 160.278 37.1728 162.332 37.8076 164.373C38.4424 166.413 45.6557 167.666 53.9189 167.171Z" fill="#C9EDDB"/>
<path d="M66.7143 167.007C68.2244 166.624 70.6955 166.624 72.2153 167.011C73.7352 167.398 73.745 168.022 72.235 168.405C70.7249 168.787 68.2538 168.787 66.734 168.4C65.2141 168.013 65.2043 167.39 66.7143 167.007Z" fill="#C9EDDB"/>
<path d="M33.478 158.765C34.9881 158.382 37.4591 158.382 38.979 158.769C40.4989 159.156 40.5087 159.78 38.9986 160.163C37.4885 160.545 35.0175 160.545 33.4976 160.158C31.9777 159.771 31.9679 159.148 33.478 158.765Z" fill="#C9EDDB"/>
<path d="M59.528 159.099L70.2358 161.808L46.1824 167.897L35.4844 165.187L59.528 159.099Z" fill="#F0FAF6"/>
</g>
<path fill-rule="evenodd" clip-rule="evenodd" d="M106.801 156.677C106.794 159.272 105.869 161.099 104.39 161.957L96.4995 163.658C88.4484 160.222 92.9801 119.13 92.4905 107.53L94.963 46.6537C92.8846 43.0215 84.8879 39.8511 86.7535 32.4343L63.1562 21.3877C62.1091 20.6755 34.5715 4.72711 39.5154 1.73694C40.3424 1.23636 43.4995 0.658153 45.9769 0.258074C48.4995 -0.14915 50.1276 -0.154237 51.836 0.831204L98.79 27.7646C103.399 30.4198 107.014 36.8451 107 41.9839L106.801 156.677Z" fill="#C9EDDB"/>
<path fill-rule="evenodd" clip-rule="evenodd" d="M106.801 156.677C106.794 159.272 105.869 161.099 104.39 161.957L96.4995 163.658C88.4484 160.222 92.9801 119.13 92.4905 107.53L94.963 46.6537C92.8846 43.0215 84.8879 39.8511 86.7535 32.4343L63.1562 21.3877C62.1091 20.6755 34.5715 4.72711 39.5154 1.73694C40.3424 1.23636 43.4995 0.658153 45.9769 0.258074C48.4995 -0.14915 50.1276 -0.154237 51.836 0.831204L98.79 27.7646C103.399 30.4198 107.014 36.8451 107 41.9839L106.801 156.677Z" fill="url(#paint21_linear_501_35939)" fill-opacity="0.15"/>
<path fill-rule="evenodd" clip-rule="evenodd" d="M106.801 156.677C106.794 159.272 105.869 161.099 104.39 161.957L96.4995 163.658C88.4484 160.222 92.9801 119.13 92.4905 107.53L94.963 46.6537C92.8846 43.0215 84.8879 39.8511 86.7535 32.4343L63.1562 21.3877C62.1091 20.6755 34.5715 4.72711 39.5154 1.73694C40.3424 1.23636 43.4995 0.658153 45.9769 0.258074C48.4995 -0.14915 50.1276 -0.154237 51.836 0.831204L98.79 27.7646C103.399 30.4198 107.014 36.8451 107 41.9839L106.801 156.677Z" fill="url(#paint22_linear_501_35939)"/>
<path fill-rule="evenodd" clip-rule="evenodd" d="M37.1139 7.01524C37.1211 4.47123 38.0013 2.66479 39.4292 1.78454C40.9321 0.857138 43.0419 0.957496 45.3766 2.30568L92.3306 29.2378C96.8742 31.8628 100.555 38.235 100.539 43.4572L100.343 158.15C100.329 163.373 96.6252 165.484 92.0803 162.86L45.1276 135.928C40.5778 133.3 36.9035 126.931 36.918 121.708L37.1139 7.01524Z" fill="white"/>
<path fill-rule="evenodd" clip-rule="evenodd" d="M37.1139 7.01524C37.1211 4.47123 38.0013 2.66479 39.4292 1.78454C40.9321 0.857138 43.0419 0.957496 45.3766 2.30568L92.3306 29.2378C96.8743 31.8628 100.555 38.235 100.539 43.4572L100.343 158.15C100.329 163.373 96.6252 165.484 92.0803 162.86L45.1276 135.928C40.5778 133.3 36.9035 126.931 36.918 121.708L37.1139 7.01524Z" fill="url(#paint23_linear_501_35939)"/>
<path fill-rule="evenodd" clip-rule="evenodd" d="M37.1139 7.01524C37.1211 4.47123 38.0013 2.66479 39.4292 1.78454C40.9321 0.857138 43.0419 0.957496 45.3766 2.30568L92.3306 29.2378C96.8743 31.8628 100.555 38.235 100.539 43.4572L100.343 158.15C100.329 163.373 96.6252 165.484 92.0803 162.86L45.1276 135.928C40.5778 133.3 36.9035 126.931 36.918 121.708L37.1139 7.01524Z" fill="#C9EDDB"/>
<path fill-rule="evenodd" clip-rule="evenodd" d="M37.1139 7.01524C37.1211 4.47123 38.0013 2.66479 39.4292 1.78454C40.9321 0.857138 43.0419 0.957496 45.3766 2.30568L92.3306 29.2378C96.8743 31.8628 100.555 38.235 100.539 43.4572L100.343 158.15C100.329 163.373 96.6252 165.484 92.0803 162.86L45.1276 135.928C40.5778 133.3 36.9035 126.931 36.918 121.708L37.1139 7.01524Z" fill="url(#paint24_linear_501_35939)" fill-opacity="0.7"/>
<path fill-rule="evenodd" clip-rule="evenodd" d="M41.959 14.169C41.9713 9.73384 45.1122 7.93904 48.9749 10.17L88.8442 33.0383C92.7024 35.267 95.8266 40.6781 95.8144 45.1133L95.9461 149.885C95.9338 154.319 92.7883 156.111 88.9301 153.883L49.062 131.015C45.1982 128.784 42.0784 123.375 42.0918 118.941L41.959 14.169Z" fill="#F0FAF6"/>
<path fill-rule="evenodd" clip-rule="evenodd" d="M69 105.293C69.0036 103.83 70.0398 103.239 71.3141 103.974L84.4627 111.517C85.7346 112.252 86.766 114.037 86.7611 115.498L86.8276 129.971C86.824 131.434 85.7866 132.024 84.5135 131.29L71.3649 123.748C70.0906 123.012 69.0617 121.229 69.0665 119.767L69 105.293Z" fill="url(#paint25_linear_501_35939)"/>
<path fill-rule="evenodd" clip-rule="evenodd" d="M69 105.293C69.0036 103.83 70.0398 103.239 71.3141 103.974L84.4627 111.517C85.7346 112.252 86.766 114.037 86.7611 115.498L86.8276 129.971C86.824 131.434 85.7866 132.024 84.5135 131.29L71.3649 123.748C70.0906 123.012 69.0617 121.229 69.0665 119.767L69 105.293Z" fill="url(#paint26_linear_501_35939)"/>
<path fill-rule="evenodd" clip-rule="evenodd" d="M78.224 119.727C75.9896 118.436 74.0418 115.39 73.8713 112.921C73.7009 110.454 75.3718 109.499 77.6061 110.79C79.8381 112.082 81.7883 115.13 81.9588 117.597C82.128 120.066 80.4559 121.018 78.224 119.727Z" fill="#A8C7CF"/>
<path opacity="0.8" fill-rule="evenodd" clip-rule="evenodd" d="M73.9746 120.036C73.9758 119.692 74.2201 119.555 74.5199 119.734L81.3112 123.572C81.6111 123.751 81.8541 124.175 81.8529 124.52V125.203C81.8517 125.548 81.6074 125.683 81.3076 125.505L74.5163 121.667C74.2152 121.488 73.9734 121.064 73.9746 120.719V120.036Z" fill="white"/>
<path fill-rule="evenodd" clip-rule="evenodd" d="M9 10.6867C9.00484 8.9371 10.2441 8.22855 11.7688 9.1088C27.9182 18.3719 44.0338 27.9603 60.1857 37.2247C61.7079 38.1037 62.9411 40.239 62.9351 41.9887L63.0137 105.923C63.0089 107.672 61.7671 108.38 60.2449 107.499C44.0955 98.2362 27.9775 88.6466 11.8292 79.3846C10.3046 78.5044 9.07375 76.3703 9.07859 74.6207L9 10.6867Z" fill="white"/>
<path fill-rule="evenodd" clip-rule="evenodd" d="M9 10.6867C9.00484 8.9371 10.2441 8.22855 11.7688 9.1088C27.9182 18.3719 44.0338 27.9603 60.1857 37.2247C61.7079 38.1037 62.9411 40.2391 62.9351 41.9887L62.9919 88.1871L9.05803 57.2503L9 10.6867Z" fill="url(#paint27_linear_501_35939)"/>
<g opacity="0.2">
<path fill-rule="evenodd" clip-rule="evenodd" d="M12.1582 63.5415C12.1618 62.4497 12.9344 62.0084 13.8847 62.5573L23.6987 68.187C24.649 68.736 25.418 70.0672 25.4144 71.1591L25.4639 81.9614C25.4603 83.0533 24.6865 83.4946 23.7362 82.9457L13.9222 77.316C12.9707 76.767 12.2029 75.4346 12.2066 74.3439L12.1582 63.5415Z" fill="#955CF1"/>
<path fill-rule="evenodd" clip-rule="evenodd" d="M12.1582 63.5415C12.1618 62.4497 12.9344 62.0084 13.8847 62.5573L23.6987 68.187C24.649 68.736 25.418 70.0672 25.4144 71.1591L25.4639 81.9614C25.4603 83.0533 24.6865 83.4946 23.7362 82.9457L13.9222 77.316C12.9707 76.767 12.2029 75.4346 12.2066 74.3439L12.1582 63.5415Z" fill="#C9EDDB"/>
<path fill-rule="evenodd" clip-rule="evenodd" d="M12.1582 63.5415C12.1618 62.4497 12.9344 62.0084 13.8847 62.5573L23.6987 68.187C24.649 68.736 25.418 70.0672 25.4144 71.1591L25.4639 81.9614C25.4603 83.0533 24.6865 83.4946 23.7362 82.9457L13.9222 77.316C12.9707 76.767 12.2029 75.4346 12.2066 74.3439L12.1582 63.5415Z" fill="url(#paint28_linear_501_35939)"/>
</g>
<g opacity="0.2">
<path fill-rule="evenodd" clip-rule="evenodd" d="M29.3418 73.9302C29.3442 72.8384 30.118 72.397 31.0683 72.946L40.8823 78.5757C41.8326 79.1246 42.6016 80.4559 42.598 81.5477L42.6475 92.3501C42.6439 93.4419 41.8701 93.8833 40.9198 93.3343L31.1058 87.7046C30.1543 87.1557 29.3865 85.8244 29.3902 84.7326L29.3418 73.9302Z" fill="#955CF1"/>
<path fill-rule="evenodd" clip-rule="evenodd" d="M29.3418 73.9302C29.3442 72.8384 30.118 72.397 31.0683 72.946L40.8823 78.5757C41.8326 79.1246 42.6016 80.4559 42.598 81.5477L42.6475 92.3501C42.6439 93.4419 41.8701 93.8833 40.9198 93.3343L31.1058 87.7046C30.1543 87.1557 29.3865 85.8244 29.3902 84.7326L29.3418 73.9302Z" fill="#C9EDDB"/>
<path fill-rule="evenodd" clip-rule="evenodd" d="M29.3418 73.9302C29.3442 72.8384 30.118 72.397 31.0683 72.946L40.8823 78.5757C41.8326 79.1246 42.6016 80.4559 42.598 81.5477L42.6475 92.3501C42.6439 93.4419 41.8701 93.8833 40.9198 93.3343L31.1058 87.7046C30.1543 87.1557 29.3865 85.8244 29.3902 84.7326L29.3418 73.9302Z" fill="url(#paint29_linear_501_35939)"/>
</g>
<g opacity="0.2">
<path fill-rule="evenodd" clip-rule="evenodd" d="M46.5273 84.3189C46.5298 83.2271 47.3036 82.7857 48.2539 83.3347L58.0691 88.9644C59.0194 89.5133 59.7883 90.8446 59.7847 91.9364L59.8343 102.739C59.8307 103.831 59.0569 104.272 58.1065 103.723L48.2926 98.0933C47.341 97.5444 46.5733 96.2119 46.5769 95.1213L46.5273 84.3189Z" fill="#955CF1"/>
<path fill-rule="evenodd" clip-rule="evenodd" d="M46.5273 84.3189C46.5298 83.2271 47.3036 82.7857 48.2539 83.3347L58.0691 88.9644C59.0194 89.5133 59.7883 90.8446 59.7847 91.9364L59.8343 102.739C59.8307 103.831 59.0569 104.272 58.1065 103.723L48.2926 98.0933C47.341 97.5444 46.5733 96.2119 46.5769 95.1213L46.5273 84.3189Z" fill="#C9EDDB"/>
<path fill-rule="evenodd" clip-rule="evenodd" d="M46.5273 84.3189C46.5298 83.2271 47.3036 82.7857 48.2539 83.3347L58.0691 88.9644C59.0194 89.5133 59.7883 90.8446 59.7847 91.9364L59.8343 102.739C59.8307 103.831 59.0569 104.272 58.1065 103.723L48.2926 98.0933C47.341 97.5444 46.5733 96.2119 46.5769 95.1213L46.5273 84.3189Z" fill="url(#paint30_linear_501_35939)"/>
</g>
<path opacity="0.5" fill-rule="evenodd" clip-rule="evenodd" d="M36.6759 49.6258C31.7642 46.7855 27.4794 40.0873 27.1046 34.6605C26.7282 29.2354 30.4036 27.1358 35.3154 29.9762C40.2236 32.8148 44.5119 39.5164 44.8866 44.9415C45.2631 50.3683 41.5859 52.4627 36.6759 49.6258Z" fill="white"/>
<path opacity="0.8" fill-rule="evenodd" clip-rule="evenodd" d="M29.7461 52.7424C29.7473 52.1946 30.1354 51.9806 30.6118 52.2635L41.3845 58.3503C41.8609 58.6332 42.2466 59.3079 42.2454 59.8545V60.9378C42.2442 61.4856 41.8561 61.6996 41.3797 61.4167L30.6069 55.3287C30.1294 55.0458 29.7449 54.3711 29.7461 53.8245V52.7424Z" fill="white"/>
<path opacity="0.8" fill-rule="evenodd" clip-rule="evenodd" d="M24.1231 54.8199C24.1243 54.3375 24.4664 54.1489 24.886 54.398C30.9942 57.8488 41.0028 63.4834 47.111 66.9342C47.5305 67.1833 47.8703 67.7782 47.8691 68.2594V69.2134C47.8678 69.6959 47.5257 69.8845 47.1061 69.6354C40.9979 66.1846 30.9893 60.55 24.8811 57.0992C24.4604 56.8501 24.1218 56.2564 24.1231 55.774V54.8199Z" fill="white"/>
<defs>
<filter id="filter0_f_501_35939" x="0" y="138" width="134" height="67.4053" filterUnits="userSpaceOnUse" color-interpolation-filters="sRGB">
<feFlood flood-opacity="0" result="BackgroundImageFix"/>
<feBlend mode="normal" in="SourceGraphic" in2="BackgroundImageFix" result="shape"/>
<feGaussianBlur stdDeviation="7.5" result="effect1_foregroundBlur_501_35939"/>
</filter>
<linearGradient id="paint0_linear_501_35939" x1="150.5" y1="26" x2="150.5" y2="154.62" gradientUnits="userSpaceOnUse">
<stop stop-color="white"/>
<stop offset="1" stop-color="#CCFFEC"/>
</linearGradient>
<linearGradient id="paint1_linear_501_35939" x1="149.066" y1="81" x2="149.066" y2="117" gradientUnits="userSpaceOnUse">
<stop stop-color="white"/>
<stop offset="1" stop-color="#CCFFEC"/>
</linearGradient>
<linearGradient id="paint2_linear_501_35939" x1="136" y1="69" x2="136" y2="81" gradientUnits="userSpaceOnUse">
<stop stop-color="white"/>
<stop offset="1" stop-color="#CCFFEC"/>
</linearGradient>
<linearGradient id="paint3_linear_501_35939" x1="87.5304" y1="155.435" x2="56.0113" y2="203.064" gradientUnits="userSpaceOnUse">
<stop stop-color="#245795"/>
<stop offset="1" stop-color="#8AD3A8"/>
</linearGradient>
<linearGradient id="paint4_linear_501_35939" x1="91.3481" y1="168.523" x2="95.8926" y2="192.209" gradientUnits="userSpaceOnUse">
<stop stop-color="#245795"/>
<stop offset="1" stop-color="#8AD3A8"/>
</linearGradient>
<linearGradient id="paint5_linear_501_35939" x1="53.6866" y1="135.968" x2="54.9913" y2="191.46" gradientUnits="userSpaceOnUse">
<stop stop-color="#245795"/>
<stop offset="1" stop-color="#8AD3A8"/>
</linearGradient>
<linearGradient id="paint6_linear_501_35939" x1="74.9325" y1="158.224" x2="75.6925" y2="177.797" gradientUnits="userSpaceOnUse">
<stop stop-color="#245795"/>
<stop offset="1" stop-color="#8AD3A8"/>
</linearGradient>
<linearGradient id="paint7_linear_501_35939" x1="87.5304" y1="149.348" x2="56.0113" y2="196.977" gradientUnits="userSpaceOnUse">
<stop stop-color="#245795"/>
<stop offset="1" stop-color="#8AD3A8"/>
</linearGradient>
<linearGradient id="paint8_linear_501_35939" x1="91.3481" y1="162.436" x2="95.8926" y2="186.123" gradientUnits="userSpaceOnUse">
<stop stop-color="#245795"/>
<stop offset="1" stop-color="#8AD3A8"/>
</linearGradient>
<linearGradient id="paint9_linear_501_35939" x1="58.8351" y1="135.985" x2="59.8961" y2="181.109" gradientUnits="userSpaceOnUse">
<stop stop-color="#245795"/>
<stop offset="1" stop-color="#8AD3A8"/>
</linearGradient>
<linearGradient id="paint10_linear_501_35939" x1="59.0734" y1="162.436" x2="27.5543" y2="210.065" gradientUnits="userSpaceOnUse">
<stop stop-color="#245795"/>
<stop offset="1" stop-color="#8AD3A8"/>
</linearGradient>
<linearGradient id="paint11_linear_501_35939" x1="62.891" y1="175.524" x2="67.4356" y2="199.21" gradientUnits="userSpaceOnUse">
<stop stop-color="#245795"/>
<stop offset="1" stop-color="#8AD3A8"/>
</linearGradient>
<linearGradient id="paint12_linear_501_35939" x1="25.2296" y1="142.969" x2="26.5343" y2="198.461" gradientUnits="userSpaceOnUse">
<stop stop-color="#245795"/>
<stop offset="1" stop-color="#8AD3A8"/>
</linearGradient>
<linearGradient id="paint13_linear_501_35939" x1="46.4754" y1="165.225" x2="47.2354" y2="184.798" gradientUnits="userSpaceOnUse">
<stop stop-color="#245795"/>
<stop offset="1" stop-color="#8AD3A8"/>
</linearGradient>
<linearGradient id="paint14_linear_501_35939" x1="59.0734" y1="156.348" x2="27.5543" y2="203.977" gradientUnits="userSpaceOnUse">
<stop stop-color="#245795"/>
<stop offset="1" stop-color="#8AD3A8"/>
</linearGradient>
<linearGradient id="paint15_linear_501_35939" x1="62.891" y1="169.435" x2="67.4356" y2="193.122" gradientUnits="userSpaceOnUse">
<stop stop-color="#245795"/>
<stop offset="1" stop-color="#8AD3A8"/>
</linearGradient>
<linearGradient id="paint16_linear_501_35939" x1="25.2296" y1="136.881" x2="26.5343" y2="192.373" gradientUnits="userSpaceOnUse">
<stop stop-color="#245795"/>
<stop offset="1" stop-color="#8AD3A8"/>
</linearGradient>
<linearGradient id="paint17_linear_501_35939" x1="46.4754" y1="159.138" x2="47.2354" y2="178.711" gradientUnits="userSpaceOnUse">
<stop stop-color="#245795"/>
<stop offset="1" stop-color="#8AD3A8"/>
</linearGradient>
<linearGradient id="paint18_linear_501_35939" x1="59.0734" y1="150.261" x2="27.5543" y2="197.89" gradientUnits="userSpaceOnUse">
<stop stop-color="#245795"/>
<stop offset="1" stop-color="#8AD3A8"/>
</linearGradient>
<linearGradient id="paint19_linear_501_35939" x1="62.891" y1="163.349" x2="67.4356" y2="187.036" gradientUnits="userSpaceOnUse">
<stop stop-color="#245795"/>
<stop offset="1" stop-color="#8AD3A8"/>
</linearGradient>
<linearGradient id="paint20_linear_501_35939" x1="30.3781" y1="136.898" x2="31.4391" y2="182.022" gradientUnits="userSpaceOnUse">
<stop stop-color="#245795"/>
<stop offset="1" stop-color="#8AD3A8"/>
</linearGradient>
<linearGradient id="paint21_linear_501_35939" x1="71.0156" y1="-53.7916" x2="71.0156" y2="20.3695" gradientUnits="userSpaceOnUse">
<stop stop-color="#245795"/>
<stop offset="1" stop-color="#8AD3A8"/>
</linearGradient>
<linearGradient id="paint22_linear_501_35939" x1="67.3922" y1="-5.3755" x2="116.777" y2="174.064" gradientUnits="userSpaceOnUse">
<stop stop-color="#245795"/>
<stop offset="1" stop-color="#8AD3A8"/>
</linearGradient>
<linearGradient id="paint23_linear_501_35939" x1="65.1853" y1="-3.87785" x2="114.394" y2="174.579" gradientUnits="userSpaceOnUse">
<stop stop-color="#245795"/>
<stop offset="1" stop-color="#8AD3A8"/>
</linearGradient>
<linearGradient id="paint24_linear_501_35939" x1="65.1853" y1="-3.87785" x2="114.394" y2="174.579" gradientUnits="userSpaceOnUse">
<stop stop-color="#245795"/>
<stop offset="1" stop-color="#8AD3A8"/>
</linearGradient>
<linearGradient id="paint25_linear_501_35939" x1="80.9826" y1="113.822" x2="75.058" y2="121.176" gradientUnits="userSpaceOnUse">
<stop stop-color="#1C8EF4"/>
<stop offset="1" stop-color="#00CFDD"/>
</linearGradient>
<linearGradient id="paint26_linear_501_35939" x1="76.0863" y1="98.9019" x2="84.0906" y2="132.2" gradientUnits="userSpaceOnUse">
<stop stop-color="#245795"/>
<stop offset="1" stop-color="#8AD3A8"/>
</linearGradient>
<linearGradient id="paint27_linear_501_35939" x1="30.4612" y1="-4.79228" x2="51.9645" y2="90.4972" gradientUnits="userSpaceOnUse">
<stop stop-color="#245795"/>
<stop offset="1" stop-color="#8AD3A8"/>
</linearGradient>
<linearGradient id="paint28_linear_501_35939" x1="17.4471" y1="58.7711" x2="23.4223" y2="83.6257" gradientUnits="userSpaceOnUse">
<stop stop-color="#245795"/>
<stop offset="1" stop-color="#8AD3A8"/>
</linearGradient>
<linearGradient id="paint29_linear_501_35939" x1="34.6307" y1="69.1597" x2="40.6059" y2="94.0144" gradientUnits="userSpaceOnUse">
<stop stop-color="#245795"/>
<stop offset="1" stop-color="#8AD3A8"/>
</linearGradient>
<linearGradient id="paint30_linear_501_35939" x1="51.8167" y1="79.5484" x2="57.7914" y2="104.403" gradientUnits="userSpaceOnUse">
<stop stop-color="#245795"/>
<stop offset="1" stop-color="#8AD3A8"/>
</linearGradient>
</defs>
</svg>
