<?xml version="1.0" encoding="UTF-8" standalone="no"?>
<svg
   width="88.866302"
   height="105.35201"
   viewBox="0 0 88.866302 105.35201"
   fill="none"
   version="1.1"
   id="svg407"
   sodipodi:docname="2.svg"
   inkscape:version="1.2 (dc2aeda, 2022-05-15)"
   xmlns:inkscape="http://www.inkscape.org/namespaces/inkscape"
   xmlns:sodipodi="http://sodipodi.sourceforge.net/DTD/sodipodi-0.dtd"
   xmlns="http://www.w3.org/2000/svg"
   xmlns:svg="http://www.w3.org/2000/svg">
  <sodipodi:namedview
     id="namedview409"
     pagecolor="#ffffff"
     bordercolor="#000000"
     borderopacity="0.25"
     inkscape:showpageshadow="2"
     inkscape:pageopacity="0.0"
     inkscape:pagecheckerboard="0"
     inkscape:deskcolor="#d1d1d1"
     showgrid="false"
     inkscape:zoom="1.8294574"
     inkscape:cx="45.095339"
     inkscape:cy="64.5"
     inkscape:window-width="1309"
     inkscape:window-height="456"
     inkscape:window-x="0"
     inkscape:window-y="38"
     inkscape:window-maximized="0"
     inkscape:current-layer="svg407" />
  <path
     fill-rule="evenodd"
     clip-rule="evenodd"
     d="m 25.225001,77.9279 c 0.0902,0.2573 0.2625,0.4882 0.5164,0.6439 l 0.3721,0.2276 4.0806,2.4971 0.0035,0.0024 v -0.0043 l 5.5035,3.3722 4.0158,2.4573 c 0.6808,0.4168 1.4411,0.6241 2.201,0.6221 V 36.4685 h 16.7667 l 10e-5,-6.707 -28.1746,-0.3152 -5.3597,0.2865 z"
     fill="#d4f2e4"
     id="path91" />
  <path
     fill-rule="evenodd"
     clip-rule="evenodd"
     d="m 25.225001,77.9279 c 0.0902,0.2573 0.2625,0.4882 0.5164,0.6439 l 0.3721,0.2276 4.0806,2.4971 0.0035,0.0024 v -0.0043 l 5.5035,3.3722 4.0158,2.4573 c 0.6808,0.4168 1.4411,0.6241 2.201,0.6221 V 36.4685 h 16.7667 l 10e-5,-6.707 -28.1746,-0.3152 -5.3597,0.2865 z"
     fill="url(#paint38_linear_501_35999)"
     fill-opacity="0.3"
     id="path93"
     style="fill:url(#paint38_linear_501_35999)" />
  <path
     fill-rule="evenodd"
     clip-rule="evenodd"
     d="m 41.916001,29.6022 11.4078,-0.1276 5.3598,0.2866 -0.0745,48.1663 c -0.0902,0.2573 -0.2625,0.4882 -0.5164,0.6439 l -0.3721,0.2276 -4.0807,2.4971 -0.0034,0.0024 v -0.0043 l -5.5036,3.3722 -4.0157,2.4573 c -0.6809,0.4168 -1.4412,0.6242 -2.2012,0.6221 z"
     fill="#d4f2e4"
     id="path95" />
  <path
     fill-rule="evenodd"
     clip-rule="evenodd"
     d="m 41.916001,29.6022 11.4078,-0.1276 5.3598,0.2866 -0.0745,48.1663 c -0.0902,0.2573 -0.2625,0.4882 -0.5164,0.6439 l -0.3721,0.2276 -4.0807,2.4971 -0.0034,0.0024 v -0.0043 l -5.5036,3.3722 -4.0157,2.4573 c -0.6809,0.4168 -1.4412,0.6242 -2.2012,0.6221 z"
     fill="url(#paint39_linear_501_35999)"
     fill-opacity="0.4"
     id="path97"
     style="fill:url(#paint39_linear_501_35999)" />
  <path
     d="m 44.143801,20.045 14.3408,8.3667 c 0.3941,0.2298 0.5909,0.6322 0.5912,1.0347 0,0.4027 -0.1969,0.8045 -0.591,1.0342 l -5.2485,3.0621 -4.286,2.5005 -4.7962,2.7982 c -1.3863,0.809 -3.0943,0.809 -4.4804,0 l -4.1078,-2.3964 -5.6296,-3.2888 v 0.0043 l -0.0035,-0.0024 -4.1741,-2.4353 -0.3806,-0.222 c -0.2597,-0.1518 -0.436,-0.377 -0.5283,-0.6279 -0.0507,-0.1379 -0.0764,-0.2839 -0.0764,-0.4298 -4e-4,-0.4116 0.2011,-0.8235 0.6042,-1.0589 l 14.2847,-8.3385 c 1.3865,-0.8094 3.0948,-0.8096 4.4815,-7e-4 z"
     fill="#f0faf6"
     id="path99" />
  <path
     fill-rule="evenodd"
     clip-rule="evenodd"
     d="m 55.406801,95.5331 c 0.0902,0.2572 0.2626,0.4882 0.5164,0.6438 l 0.3721,0.2276 4.0807,2.4972 0.0034,0.0024 v -0.0044 l 5.5036,3.3723 4.0157,2.457 c 0.6808,0.417 1.441,0.624 2.2008,0.622 V 54.0736 h 16.7668 V 9.9099402 l -28.1745,-0.31521 -5.3598,0.28655 z"
     fill="#d4f2e4"
     id="path101" />
  <path
     fill-rule="evenodd"
     clip-rule="evenodd"
     d="m 55.406801,95.5331 c 0.0902,0.2572 0.2626,0.4882 0.5164,0.6438 l 0.3721,0.2276 4.0807,2.4972 0.0034,0.0024 v -0.0044 l 5.5036,3.3723 4.0157,2.457 c 0.6808,0.417 1.441,0.624 2.2008,0.622 V 54.0736 h 16.7668 V 9.9099402 l -28.1745,-0.31521 -5.3598,0.28655 z"
     fill="url(#paint40_linear_501_35999)"
     fill-opacity="0.65"
     id="path103"
     style="fill:url(#paint40_linear_501_35999)" />
  <path
     fill-rule="evenodd"
     clip-rule="evenodd"
     d="m 88.790801,95.5326 c -0.0902,0.2573 -0.2625,0.4882 -0.5164,0.6439 l -0.3721,0.2276 -4.0807,2.4971 -0.0034,0.0024 v -0.0043 l -5.5036,3.3717 -4.0157,2.458 c -0.6809,0.417 -1.4413,0.624 -2.2012,0.622 V 9.9096702 h -14.211 l 25.6188,-0.28662 5.3597,0.28656 z"
     fill="#d4f2e4"
     id="path105" />
  <path
     fill-rule="evenodd"
     clip-rule="evenodd"
     d="m 88.790801,95.5326 c -0.0902,0.2573 -0.2625,0.4882 -0.5164,0.6439 l -0.3721,0.2276 -4.0807,2.4971 -0.0034,0.0024 v -0.0043 l -5.5036,3.3717 -4.0157,2.458 c -0.6809,0.417 -1.4413,0.624 -2.2012,0.622 V 9.9096702 h -14.211 l 25.6188,-0.28662 5.3597,0.28656 z"
     fill="url(#paint41_linear_501_35999)"
     id="path107"
     style="fill:url(#paint41_linear_501_35999)" />
  <path
     d="m 74.268701,0.60653418 14.0197,8.36673602 c 0.3853,0.22971 0.5777,0.63219 0.5779,1.0346298 0,0.4027 -0.1924,0.8045 -0.5777,1.0342 l -5.131,3.0621 -4.19,2.5005 -4.6889,2.7983 c -1.3552,0.8089 -3.025,0.8089 -4.3801,0 l -4.0157,-2.3965 -5.5036,-3.2888 v 0.0043 l -0.0034,-0.0024 -4.0807,-2.4353 -0.372,-0.2219 c -0.2539,-0.1518 -0.4263,-0.3771 -0.5165,-0.628 -0.0496,-0.1379 -0.0747,-0.2838 -0.0747,-0.4298 -4e-4,-0.4116198 0.1965,-0.8234998 0.5907,-1.0588698 l 13.9648,-8.33848902 c 1.3555,-0.809419 3.0255,-0.809655 4.3812,-7.07e-4 z"
     fill="#f0faf6"
     id="path109" />
  <path
     fill-rule="evenodd"
     clip-rule="evenodd"
     d="m 0.07470061,95.5326 c 0.0902,0.2573 0.2625,0.4883 0.5164,0.6439 l 0.3721,0.2276 4.08059999,2.4971 0.0035,0.0025 v -0.0044 l 5.5035004,3.3727 4.0158,2.457 c 0.6808,0.417 1.4411,0.624 2.201,0.622 V 54.2009 L 5.3598006,54.0732 6.1162079e-7,54.3598 Z"
     fill="#d4f2e4"
     id="path111" />
  <path
     fill-rule="evenodd"
     clip-rule="evenodd"
     d="m 0.07470061,95.5326 c 0.0902,0.2573 0.2625,0.4883 0.5164,0.6439 l 0.3721,0.2276 4.08059999,2.4971 0.0035,0.0025 v -0.0044 l 5.5035004,3.3727 4.0158,2.457 c 0.6808,0.417 1.4411,0.624 2.201,0.622 V 54.2009 L 5.3598006,54.0732 6.1162079e-7,54.3598 Z"
     fill="url(#paint42_linear_501_35999)"
     fill-opacity="0.15"
     id="path113"
     style="fill:url(#paint42_linear_501_35999)" />
  <path
     fill-rule="evenodd"
     clip-rule="evenodd"
     d="m 16.767701,54.2018 11.4077,-0.1276 5.3598,0.2866 -0.0747,41.1728 c -0.0902,0.2573 -0.2626,0.4882 -0.5164,0.6439 l -0.3721,0.2276 -4.0807,2.4971 -0.0034,0.0024 v -0.0043 l -5.5036,3.3727 -4.0157,2.457 c -0.6808,0.417 -1.4411,0.624 -2.2009,0.622 z"
     fill="#d4f2e4"
     id="path115" />
  <path
     fill-rule="evenodd"
     clip-rule="evenodd"
     d="m 16.767701,54.2018 11.4077,-0.1276 5.3598,0.2866 -0.0747,41.1728 c -0.0902,0.2573 -0.2626,0.4882 -0.5164,0.6439 l -0.3721,0.2276 -4.0807,2.4971 -0.0034,0.0024 v -0.0043 l -5.5036,3.3727 -4.0157,2.457 c -0.6808,0.417 -1.4411,0.624 -2.2009,0.622 z"
     fill="url(#paint43_linear_501_35999)"
     fill-opacity="0.4"
     id="path117"
     style="fill:url(#paint43_linear_501_35999)" />
  <path
     fill-rule="evenodd"
     clip-rule="evenodd"
     d="m 16.767701,54.2018 11.4077,-0.1276 5.3598,0.2866 -0.0747,41.1728 c -0.0902,0.2573 -0.2626,0.4882 -0.5164,0.6439 l -0.3721,0.2276 -4.0807,2.4971 -0.0034,0.0024 v -0.0043 l -5.5036,3.3727 -4.0157,2.457 c -0.6808,0.417 -1.4411,0.624 -2.2009,0.622 z"
     fill="url(#paint44_linear_501_35999)"
     id="path119"
     style="fill:url(#paint44_linear_501_35999)" />
  <path
     d="m 18.832301,44.8194 13.9425,8.3668 c 0.3831,0.2297 0.5745,0.6321 0.5747,1.0346 0,0.4027 -0.1914,0.8045 -0.5745,1.0342 l -5.1028,3.0621 -4.1669,2.5005 -4.663,2.7983 c -1.3478,0.8089 -3.0084,0.8089 -4.356,0 l -3.9936,-2.3965 -5.4732004,-3.2888 v 0.0043 l -0.0034,-0.0024 -4.05819999,-2.4353 -0.37,-0.2219 c -0.2525,-0.1519 -0.4239,-0.3771 -0.5136,-0.628 C 0.02490061,54.5094 6.116208e-7,54.3635 6.116208e-7,54.2175 -3.9938838e-4,53.8059 0.19540061,53.394 0.58740061,53.1586 L 14.475301,44.8201 c 1.348,-0.8094 3.0088,-0.8096 4.357,-7e-4 z"
     fill="#f0faf6"
     id="path121" />
  <defs
     id="defs405">
    <filter
       id="filter0_f_501_35999"
       x="0"
       y="82.630898"
       width="108.869"
       height="45.442402"
       filterUnits="userSpaceOnUse"
       color-interpolation-filters="sRGB">
      <feFlood
         flood-opacity="0"
         result="BackgroundImageFix"
         id="feFlood123" />
      <feBlend
         mode="normal"
         in="SourceGraphic"
         in2="BackgroundImageFix"
         result="shape"
         id="feBlend125" />
      <feGaussianBlur
         stdDeviation="5"
         result="effect1_foregroundBlur_501_35999"
         id="feGaussianBlur127" />
    </filter>
    <linearGradient
       id="paint0_linear_501_35999"
       x1="92.286201"
       y1="104.836"
       x2="112.765"
       y2="104.836"
       gradientUnits="userSpaceOnUse">
      <stop
         offset="0.0354"
         stop-color="#138BBD"
         id="stop130" />
      <stop
         offset="0.2257"
         stop-color="#169AC7"
         id="stop132" />
      <stop
         offset="0.5946"
         stop-color="#1FC3DF"
         id="stop134" />
      <stop
         offset="1"
         stop-color="#2AF6FF"
         id="stop136" />
    </linearGradient>
    <linearGradient
       id="paint1_linear_501_35999"
       x1="93.884003"
       y1="99.255898"
       x2="93.884003"
       y2="110.423"
       gradientUnits="userSpaceOnUse">
      <stop
         stop-color="#D4F2E4"
         id="stop139" />
      <stop
         offset="1"
         stop-color="#A8DFF9"
         id="stop141" />
    </linearGradient>
    <linearGradient
       id="paint2_linear_501_35999"
       x1="93.884003"
       y1="99.255898"
       x2="93.884003"
       y2="110.423"
       gradientUnits="userSpaceOnUse">
      <stop
         stop-color="#D4F2E4"
         id="stop144" />
      <stop
         offset="1"
         stop-color="#71D5A4"
         id="stop146" />
    </linearGradient>
    <linearGradient
       id="paint3_linear_501_35999"
       x1="92.9021"
       y1="110.303"
       x2="90.496399"
       y2="95.683899"
       gradientUnits="userSpaceOnUse">
      <stop
         stop-color="#D4F2E4"
         id="stop149" />
      <stop
         offset="1"
         stop-color="#71D5A4"
         id="stop151" />
    </linearGradient>
    <linearGradient
       id="paint4_linear_501_35999"
       x1="93.038597"
       y1="111.244"
       x2="92.680199"
       y2="99.2173"
       gradientUnits="userSpaceOnUse">
      <stop
         stop-color="#E0F1E9"
         id="stop154" />
      <stop
         offset="1"
         stop-color="#EFFDF7"
         id="stop156" />
    </linearGradient>
    <linearGradient
       id="paint5_linear_501_35999"
       x1="18.757299"
       y1="91.997299"
       x2="39.566799"
       y2="134.354"
       gradientUnits="userSpaceOnUse">
      <stop
         offset="0.0354"
         stop-color="#138BBD"
         id="stop159" />
      <stop
         offset="0.2257"
         stop-color="#169AC7"
         id="stop161" />
      <stop
         offset="0.5946"
         stop-color="#1FC3DF"
         id="stop163" />
      <stop
         offset="1"
         stop-color="#2AF6FF"
         id="stop165" />
    </linearGradient>
    <linearGradient
       id="paint6_linear_501_35999"
       x1="54.067799"
       y1="99.406197"
       x2="54.067799"
       y2="110.982"
       gradientUnits="userSpaceOnUse">
      <stop
         stop-color="#D4F2E4"
         id="stop168" />
      <stop
         offset="1"
         stop-color="#A8DFF9"
         id="stop170" />
    </linearGradient>
    <linearGradient
       id="paint7_linear_501_35999"
       x1="54.067799"
       y1="99.406197"
       x2="54.067799"
       y2="110.982"
       gradientUnits="userSpaceOnUse">
      <stop
         stop-color="#D4F2E4"
         id="stop173" />
      <stop
         offset="1"
         stop-color="#71D5A4"
         id="stop175" />
    </linearGradient>
    <linearGradient
       id="paint8_linear_501_35999"
       x1="23.0879"
       y1="94.883797"
       x2="43.897301"
       y2="137.241"
       gradientUnits="userSpaceOnUse">
      <stop
         offset="0.0354"
         stop-color="#138BBD"
         id="stop178" />
      <stop
         offset="0.2257"
         stop-color="#169AC7"
         id="stop180" />
      <stop
         offset="0.5946"
         stop-color="#1FC3DF"
         id="stop182" />
      <stop
         offset="1"
         stop-color="#2AF6FF"
         id="stop184" />
    </linearGradient>
    <linearGradient
       id="paint9_linear_501_35999"
       x1="64.464798"
       y1="104.156"
       x2="64.464798"
       y2="115.692"
       gradientUnits="userSpaceOnUse">
      <stop
         stop-color="#D4F2E4"
         id="stop187" />
      <stop
         offset="1"
         stop-color="#A8DFF9"
         id="stop189" />
    </linearGradient>
    <linearGradient
       id="paint10_linear_501_35999"
       x1="64.464798"
       y1="104.156"
       x2="64.464798"
       y2="115.692"
       gradientUnits="userSpaceOnUse">
      <stop
         stop-color="#D4F2E4"
         id="stop192" />
      <stop
         offset="1"
         stop-color="#71D5A4"
         id="stop194" />
    </linearGradient>
    <linearGradient
       id="paint11_linear_501_35999"
       x1="63.638901"
       y1="116.54"
       x2="63.247501"
       y2="104.118"
       gradientUnits="userSpaceOnUse">
      <stop
         stop-color="#E0F1E9"
         id="stop197" />
      <stop
         offset="1"
         stop-color="#EFFDF7"
         id="stop199" />
    </linearGradient>
    <linearGradient
       id="paint12_linear_501_35999"
       x1="71.182297"
       y1="109.84"
       x2="99.919098"
       y2="109.84"
       gradientUnits="userSpaceOnUse">
      <stop
         offset="0.0101"
         stop-color="#138BBD"
         id="stop202" />
      <stop
         offset="0.0975"
         stop-color="#148FC0"
         id="stop204" />
      <stop
         offset="0.1927"
         stop-color="#179DC8"
         id="stop206" />
      <stop
         offset="0.2828"
         stop-color="#1BB0D4"
         id="stop208" />
      <stop
         offset="0.3151"
         stop-color="#1CB3D6"
         id="stop210" />
      <stop
         offset="0.3435"
         stop-color="#1EBEDD"
         id="stop212" />
      <stop
         offset="0.3535"
         stop-color="#1FC4E1"
         id="stop214" />
      <stop
         offset="0.6313"
         stop-color="#2AF6FF"
         id="stop216" />
      <stop
         offset="0.8737"
         stop-color="#1BB0D4"
         id="stop218" />
    </linearGradient>
    <linearGradient
       id="paint13_linear_501_35999"
       x1="83.706596"
       y1="103.988"
       x2="83.706596"
       y2="115.692"
       gradientUnits="userSpaceOnUse">
      <stop
         stop-color="#D4F2E4"
         id="stop221" />
      <stop
         offset="1"
         stop-color="#A8DFF9"
         id="stop223" />
    </linearGradient>
    <linearGradient
       id="paint14_linear_501_35999"
       x1="83.706596"
       y1="103.988"
       x2="83.706596"
       y2="115.692"
       gradientUnits="userSpaceOnUse">
      <stop
         stop-color="#D4F2E4"
         id="stop226" />
      <stop
         offset="1"
         stop-color="#71D5A4"
         id="stop228" />
    </linearGradient>
    <linearGradient
       id="paint15_linear_501_35999"
       x1="80.875999"
       y1="115.566"
       x2="79.937897"
       y2="99.885902"
       gradientUnits="userSpaceOnUse">
      <stop
         stop-color="#D4F2E4"
         id="stop231" />
      <stop
         offset="1"
         stop-color="#71D5A4"
         id="stop233" />
    </linearGradient>
    <linearGradient
       id="paint16_linear_501_35999"
       x1="81.269501"
       y1="116.553"
       x2="81.132797"
       y2="103.938"
       gradientUnits="userSpaceOnUse">
      <stop
         stop-color="#E0F1E9"
         id="stop236" />
      <stop
         offset="1"
         stop-color="#EFFDF7"
         id="stop238" />
    </linearGradient>
    <linearGradient
       id="paint17_linear_501_35999"
       x1="97.891502"
       y1="115.485"
       x2="70.188599"
       y2="99.0625"
       gradientUnits="userSpaceOnUse">
      <stop
         stop-color="#245795"
         id="stop241" />
      <stop
         offset="1"
         stop-color="#8AD3A8"
         id="stop243" />
    </linearGradient>
    <linearGradient
       id="paint18_linear_501_35999"
       x1="94.710999"
       y1="76.883598"
       x2="88.837601"
       y2="108.872"
       gradientUnits="userSpaceOnUse">
      <stop
         offset="0.0354"
         stop-color="#138BBD"
         id="stop246" />
      <stop
         offset="0.2257"
         stop-color="#169AC7"
         id="stop248" />
      <stop
         offset="0.5946"
         stop-color="#1FC3DF"
         id="stop250" />
      <stop
         offset="1"
         stop-color="#2AF6FF"
         id="stop252" />
    </linearGradient>
    <linearGradient
       id="paint19_linear_501_35999"
       x1="69.344498"
       y1="92.630898"
       x2="69.344498"
       y2="106.437"
       gradientUnits="userSpaceOnUse">
      <stop
         stop-color="#F0FEF8"
         id="stop255" />
      <stop
         offset="1"
         stop-color="#E0F1E9"
         id="stop257" />
    </linearGradient>
    <linearGradient
       id="paint20_linear_501_35999"
       x1="98.4636"
       y1="106.193"
       x2="61.234901"
       y2="67.783501"
       gradientUnits="userSpaceOnUse">
      <stop
         stop-color="#245795"
         id="stop260" />
      <stop
         offset="1"
         stop-color="#8AD3A8"
         id="stop262" />
    </linearGradient>
    <linearGradient
       id="paint21_linear_501_35999"
       x1="40.767899"
       y1="108.126"
       x2="116.482"
       y2="91.325699"
       gradientUnits="userSpaceOnUse">
      <stop
         offset="0.0354"
         stop-color="#9F19AB"
         id="stop265" />
      <stop
         offset="0.2438"
         stop-color="#AE25B1"
         id="stop267" />
      <stop
         offset="0.6455"
         stop-color="#D744BF"
         id="stop269" />
      <stop
         offset="1"
         stop-color="#FF63CE"
         id="stop271" />
    </linearGradient>
    <linearGradient
       id="paint22_linear_501_35999"
       x1="40.584"
       y1="107.438"
       x2="69.875397"
       y2="107.438"
       gradientUnits="userSpaceOnUse">
      <stop
         stop-color="#245795"
         id="stop274" />
      <stop
         offset="1"
         stop-color="#8AD3A8"
         id="stop276" />
    </linearGradient>
    <linearGradient
       id="paint23_linear_501_35999"
       x1="52.3452"
       y1="113.191"
       x2="51.404202"
       y2="97.3368"
       gradientUnits="userSpaceOnUse">
      <stop
         stop-color="#D4F2E4"
         id="stop279" />
      <stop
         offset="1"
         stop-color="#71D5A4"
         id="stop281" />
    </linearGradient>
    <linearGradient
       id="paint24_linear_501_35999"
       x1="40.581001"
       y1="107.477"
       x2="69.603996"
       y2="107.477"
       gradientUnits="userSpaceOnUse">
      <stop
         offset="0.0354"
         stop-color="#9F19AB"
         id="stop284" />
      <stop
         offset="0.2438"
         stop-color="#AE25B1"
         id="stop286" />
      <stop
         offset="0.6455"
         stop-color="#D744BF"
         id="stop288" />
      <stop
         offset="1"
         stop-color="#FF63CE"
         id="stop290" />
    </linearGradient>
    <linearGradient
       id="paint25_linear_501_35999"
       x1="40.584"
       y1="107.51"
       x2="57.8293"
       y2="107.51"
       gradientUnits="userSpaceOnUse">
      <stop
         stop-color="#245795"
         id="stop293" />
      <stop
         offset="1"
         stop-color="#8AD3A8"
         id="stop295" />
    </linearGradient>
    <linearGradient
       id="paint26_linear_501_35999"
       x1="47.5084"
       y1="112.929"
       x2="46.098099"
       y2="98.077103"
       gradientUnits="userSpaceOnUse">
      <stop
         stop-color="#D4F2E4"
         id="stop298" />
      <stop
         offset="1"
         stop-color="#71D5A4"
         id="stop300" />
    </linearGradient>
    <linearGradient
       id="paint27_linear_501_35999"
       x1="41.7061"
       y1="112.357"
       x2="117.42"
       y2="95.556602"
       gradientUnits="userSpaceOnUse">
      <stop
         offset="0.0354"
         stop-color="#9F19AB"
         id="stop303" />
      <stop
         offset="0.2438"
         stop-color="#AE25B1"
         id="stop305" />
      <stop
         offset="0.6455"
         stop-color="#D744BF"
         id="stop307" />
      <stop
         offset="1"
         stop-color="#FF63CE"
         id="stop309" />
    </linearGradient>
    <linearGradient
       id="paint28_linear_501_35999"
       x1="40.076199"
       y1="112.271"
       x2="49.494099"
       y2="112.271"
       gradientUnits="userSpaceOnUse">
      <stop
         stop-color="#245795"
         id="stop312" />
      <stop
         offset="1"
         stop-color="#8AD3A8"
         id="stop314" />
    </linearGradient>
    <linearGradient
       id="paint29_linear_501_35999"
       x1="43.8577"
       y1="117.947"
       x2="41.090302"
       y2="102.753"
       gradientUnits="userSpaceOnUse">
      <stop
         stop-color="#D4F2E4"
         id="stop317" />
      <stop
         offset="1"
         stop-color="#71D5A4"
         id="stop319" />
    </linearGradient>
    <linearGradient
       id="paint30_linear_501_35999"
       x1="-14.6673"
       y1="95.026001"
       x2="6.9719"
       y2="140.203"
       gradientUnits="userSpaceOnUse">
      <stop
         offset="0.0354"
         stop-color="#9F19AB"
         id="stop322" />
      <stop
         offset="0.2438"
         stop-color="#AE25B1"
         id="stop324" />
      <stop
         offset="0.6455"
         stop-color="#D744BF"
         id="stop326" />
      <stop
         offset="1"
         stop-color="#FF63CE"
         id="stop328" />
    </linearGradient>
    <linearGradient
       id="paint31_linear_501_35999"
       x1="10.0059"
       y1="109.875"
       x2="40.076"
       y2="109.875"
       gradientUnits="userSpaceOnUse">
      <stop
         stop-color="#245795"
         id="stop331" />
      <stop
         offset="1"
         stop-color="#8AD3A8"
         id="stop333" />
    </linearGradient>
    <linearGradient
       id="paint32_linear_501_35999"
       x1="22.0798"
       y1="117.895"
       x2="20.3039"
       y2="95.860703"
       gradientUnits="userSpaceOnUse">
      <stop
         stop-color="#D4F2E4"
         id="stop336" />
      <stop
         offset="1"
         stop-color="#71D5A4"
         id="stop338" />
    </linearGradient>
    <linearGradient
       id="paint33_linear_501_35999"
       x1="61.887199"
       y1="102.074"
       x2="61.8111"
       y2="96.325203"
       gradientUnits="userSpaceOnUse">
      <stop
         stop-color="#E0F1E9"
         id="stop341" />
      <stop
         offset="1"
         stop-color="#EFFDF7"
         id="stop343" />
    </linearGradient>
    <linearGradient
       id="paint34_linear_501_35999"
       x1="73.507401"
       y1="100.712"
       x2="58.174198"
       y2="96.742302"
       gradientUnits="userSpaceOnUse">
      <stop
         stop-color="#D4F2E4"
         id="stop346" />
      <stop
         offset="1"
         stop-color="#71D5A4"
         id="stop348" />
    </linearGradient>
    <linearGradient
       id="paint35_linear_501_35999"
       x1="51.838299"
       y1="73.810799"
       x2="49.3008"
       y2="106.91"
       gradientUnits="userSpaceOnUse">
      <stop
         offset="0.0354"
         stop-color="#9F19AB"
         id="stop351" />
      <stop
         offset="0.2438"
         stop-color="#AE25B1"
         id="stop353" />
      <stop
         offset="0.6455"
         stop-color="#D744BF"
         id="stop355" />
      <stop
         offset="1"
         stop-color="#FF63CE"
         id="stop357" />
    </linearGradient>
    <linearGradient
       id="paint36_linear_501_35999"
       x1="10"
       y1="101.576"
       x2="69.868797"
       y2="101.576"
       gradientUnits="userSpaceOnUse">
      <stop
         stop-color="#245795"
         id="stop360" />
      <stop
         offset="1"
         stop-color="#8AD3A8"
         id="stop362" />
    </linearGradient>
    <linearGradient
       id="paint37_linear_501_35999"
       x1="34.038898"
       y1="108.66"
       x2="33.339298"
       y2="89.095497"
       gradientUnits="userSpaceOnUse">
      <stop
         stop-color="#D4F2E4"
         id="stop365" />
      <stop
         offset="1"
         stop-color="#71D5A4"
         id="stop367" />
    </linearGradient>
    <linearGradient
       id="paint38_linear_501_35999"
       x1="51.9286"
       y1="12.2926"
       x2="39.065201"
       y2="77.562302"
       gradientUnits="userSpaceOnUse"
       gradientTransform="translate(-10.003899)">
      <stop
         stop-color="#245795"
         id="stop370" />
      <stop
         offset="1"
         stop-color="#8AD3A8"
         id="stop372" />
    </linearGradient>
    <linearGradient
       id="paint39_linear_501_35999"
       x1="54.785801"
       y1="19.915001"
       x2="60.502701"
       y2="103.289"
       gradientUnits="userSpaceOnUse"
       gradientTransform="translate(-10.003899)">
      <stop
         stop-color="#245795"
         id="stop375" />
      <stop
         offset="1"
         stop-color="#8AD3A8"
         id="stop377" />
    </linearGradient>
    <linearGradient
       id="paint40_linear_501_35999"
       x1="75.750702"
       y1="1.3519599"
       x2="58.740101"
       y2="121.228"
       gradientUnits="userSpaceOnUse"
       gradientTransform="translate(-10.003899)">
      <stop
         stop-color="#245795"
         id="stop380" />
      <stop
         offset="1"
         stop-color="#8AD3A8"
         id="stop382" />
    </linearGradient>
    <linearGradient
       id="paint41_linear_501_35999"
       x1="82.560898"
       y1="0.45430499"
       x2="82.560898"
       y2="120.937"
       gradientUnits="userSpaceOnUse"
       gradientTransform="translate(-10.003899)">
      <stop
         stop-color="#245795"
         id="stop385" />
      <stop
         offset="1"
         stop-color="#8AD3A8"
         id="stop387" />
    </linearGradient>
    <linearGradient
       id="paint42_linear_501_35999"
       x1="26.8001"
       y1="37.312302"
       x2="26.8002"
       y2="60.547798"
       gradientUnits="userSpaceOnUse"
       gradientTransform="translate(-10.003899)">
      <stop
         stop-color="#245795"
         id="stop390" />
      <stop
         offset="1"
         stop-color="#8AD3A8"
         id="stop392" />
    </linearGradient>
    <linearGradient
       id="paint43_linear_501_35999"
       x1="26.742901"
       y1="37.313301"
       x2="26.742901"
       y2="60.548801"
       gradientUnits="userSpaceOnUse"
       gradientTransform="translate(-10.003899)">
      <stop
         stop-color="#245795"
         id="stop395" />
      <stop
         offset="1"
         stop-color="#8AD3A8"
         id="stop397" />
    </linearGradient>
    <linearGradient
       id="paint44_linear_501_35999"
       x1="36.806499"
       y1="104.799"
       x2="62.580898"
       y2="47.436298"
       gradientUnits="userSpaceOnUse"
       gradientTransform="translate(-10.003899)">
      <stop
         stop-color="#D4F2E4"
         id="stop400" />
      <stop
         offset="1"
         stop-color="#71D5A4"
         id="stop402" />
    </linearGradient>
  </defs>
</svg>
