<svg width="50" height="50" viewBox="0 0 50 50" fill="none" xmlns="http://www.w3.org/2000/svg"><path fill-rule="evenodd" clip-rule="evenodd" d="M37.092 2.505A4.423 4.423 0 0 0 32.351.541l-6.362 1.462c-.652.15-1.33.15-1.982 0L17.645.54a4.423 4.423 0 0 0-4.741 1.964L9.436 8.04a4.441 4.441 0 0 1-1.398 1.4l-5.534 3.47A4.423 4.423 0 0 0 .54 17.643l1.462 6.37c.15.65.15 1.327 0 1.978L.54 32.357a4.423 4.423 0 0 0 1.964 4.738l5.534 3.468a4.442 4.442 0 0 1 1.402 1.398l3.467 5.534a4.424 4.424 0 0 0 4.738 1.964l6.362-1.461c.652-.15 1.33-.15 1.982 0l6.365 1.461a4.422 4.422 0 0 0 4.738-1.964l3.468-5.534a4.394 4.394 0 0 1 1.398-1.398l5.537-3.468a4.423 4.423 0 0 0 1.96-4.742l-1.457-6.362a4.425 4.425 0 0 1 0-1.982l1.46-6.366a4.424 4.424 0 0 0-1.96-4.738l-5.537-3.468a4.423 4.423 0 0 1-1.398-1.397l-3.47-5.535Zm-1.78 14.604a1.77 1.77 0 0 0-3.043-1.801L23.016 30.97l-5.587-5.35a1.77 1.77 0 1 0-2.445 2.554l7.197 6.897a1.77 1.77 0 0 0 2.746-.378l10.385-17.584Z" fill="#353434"/></svg>