<svg width="38" height="38" viewBox="0 0 38 38" fill="none" xmlns="http://www.w3.org/2000/svg"><g clip-path="url(#clip0_2012_225)" fill="#353434"><path d="M14.179.143H.143v14.035h14.036V.143Zm-2.34 11.696H2.482V2.482h9.357v9.357Z"/><path d="M4.821 4.821H9.5V9.5H4.821V4.82ZM.143 37.571h14.036V23.536H.143V37.57Zm2.34-11.696h9.356v9.357H2.482v-9.357Z"/><path d="M4.821 28.214H9.5v4.679H4.821v-4.679ZM23.536.143v14.035H37.57V.143H23.537Zm11.696 11.696h-9.357V2.482h9.357v9.357Z"/><path d="M28.214 4.821h4.679V9.5h-4.679V4.821ZM4.821 16.518H.143v4.678H7.16v-2.339H4.82v-2.34Zm11.697 4.678h4.678v4.679h-4.678v-4.679ZM7.16 16.518h4.678v2.34H7.161v-2.34Zm14.036 11.696h-4.68v2.34h2.34v2.339h2.34v-4.679Zm-7.018-11.696v2.34h-2.34v2.338h4.679v-4.678h-2.34ZM18.857 9.5h2.34v4.678h-2.34V9.5Zm2.34 9.357v2.34h4.678v-4.68h-7.018v2.34h2.34Zm-4.68-4.678h2.34v2.339h-2.34v-2.34Zm4.68 18.714h4.678v4.678h-4.678v-4.678Zm-4.68 0h2.34v4.678h-2.34v-4.678Zm4.68-7.018h2.339v2.34h-2.34v-2.34Zm0-18.714V2.482h-2.34V.142h-2.34V9.5h2.34V7.16h2.34Zm7.017 25.732h2.34v4.678h-2.34v-4.678Zm0-4.679h4.679v2.34h-4.679v-2.34Zm-2.339 2.34h2.34v2.339h-2.34v-2.34Zm-2.34-2.34h2.34v2.34h-2.34v-2.34Zm9.358-4.678v2.339h2.34v2.34h2.339v-4.68h-4.68Zm2.34 7.017h-2.34v7.018h4.678v-4.678h-2.339v-2.34Zm-11.697-7.017v2.339h7.018v-4.679h-4.679v2.34h-2.34Zm4.678-7.018v2.34h4.679v2.338h4.678v-4.678h-9.357Z"/></g><defs><clipPath id="clip0_2012_225"><path fill="#fff" transform="translate(.143 .143)" d="M0 0h37.429v37.429H0z"/></clipPath></defs></svg>