<svg width="50" height="36" viewBox="0 0 50 36" fill="none" xmlns="http://www.w3.org/2000/svg"><path d="M38.403.286c-3.82 0-6.143.73-7.483 1.35C29.2.795 27.233.286 25 .286s-4.2.509-5.92 1.35c-1.34-.62-3.663-1.35-7.483-1.35C4.897.286.43 18 .43 22.429c0 1.837 2.948 3.52 7.014 4.207 1.43 4.96 8.175 8.746 16.44 9.078v-9.477c-1.318-.82-3.35-2.303-3.35-3.808 0-2.215 4.467-2.215 4.467-2.215s4.468 0 4.468 2.215c0 1.505-2.033 2.989-3.351 3.808v9.477c8.265-.332 15.01-4.118 16.44-9.078 4.066-.687 7.014-2.37 7.014-4.207 0-4.43-4.467-22.143-11.168-22.143ZM7.465 22.14a16.772 16.772 0 0 1-2.569-.82C5.455 15.188 9.81 5.6 11.71 4.714c1.206 0 2.122.133 2.949.244-4.691 5.115-6.545 13.13-7.193 17.183ZM18.299 18c-.593 0-1.16-.233-1.58-.649a2.205 2.205 0 0 1-.654-1.565c0-1.196 1.005-2.215 2.234-2.215.592 0 1.16.234 1.58.649.418.415.653.978.653 1.566A2.216 2.216 0 0 1 18.3 18ZM31.7 18c-.592 0-1.16-.233-1.58-.649a2.205 2.205 0 0 1-.653-1.565c0-1.196 1.005-2.215 2.233-2.215.593 0 1.16.234 1.58.649.419.415.654.978.654 1.566A2.216 2.216 0 0 1 31.701 18Zm10.834 4.14c-.648-4.052-2.502-12.067-7.193-17.182.827-.11 1.743-.244 2.949-.244 1.899.886 6.255 10.474 6.813 16.607-.559.244-1.43.554-2.569.82Z" fill="#353434"/></svg>