<svg width="24" height="24" viewBox="0 0 24 24" fill="none" xmlns="http://www.w3.org/2000/svg"><path d="M11.693 3.822 C 11.506 3.918,5.476 9.581,5.365 9.766 C 5.163 10.101,5.279 10.549,5.622 10.761 C 5.843 10.898,6.177 10.894,6.384 10.752 C 6.470 10.693,7.593 9.656,8.880 8.447 L 11.220 6.249 11.240 12.975 C 11.260 19.610,11.261 19.702,11.340 19.836 C 11.384 19.910,11.489 20.027,11.574 20.096 C 11.712 20.208,11.755 20.220,12.000 20.220 C 12.245 20.220,12.288 20.208,12.426 20.096 C 12.511 20.027,12.616 19.910,12.660 19.836 C 12.739 19.702,12.740 19.610,12.760 12.976 L 12.780 6.251 15.120 8.449 C 16.407 9.657,17.530 10.694,17.616 10.753 C 17.938 10.972,18.422 10.853,18.638 10.503 C 18.764 10.300,18.762 9.977,18.635 9.767 C 18.550 9.627,12.738 4.140,12.407 3.888 C 12.236 3.757,11.884 3.724,11.693 3.822 " stroke="none" fill-rule="evenodd" fill="black"></path></svg>