<svg width="16" height="16" viewBox="0 0 16 16" fill="none" xmlns="http://www.w3.org/2000/svg"><path d="M3.857 3.575 C 1.883 5.527,0.241 7.168,0.208 7.222 C 0.032 7.504,-0.028 7.784,0.024 8.078 C 0.094 8.468,0.078 8.448,1.649 10.008 C 4.215 12.556,7.443 15.747,7.462 15.753 C 7.472 15.757,7.768 15.472,8.120 15.120 L 8.760 14.480 8.373 14.096 C 8.161 13.885,6.667 12.408,5.053 10.813 C 3.440 9.218,2.117 7.904,2.113 7.894 C 2.109 7.884,3.600 6.397,5.426 4.590 C 7.252 2.782,8.747 1.293,8.747 1.281 C 8.747 1.258,7.483 0.027,7.459 0.027 C 7.451 0.027,5.830 1.624,3.857 3.575 M11.095 3.786 C 9.124 5.735,7.477 7.380,7.436 7.441 C 7.294 7.652,7.243 7.829,7.243 8.107 C 7.244 8.388,7.285 8.543,7.418 8.752 C 7.461 8.821,9.107 10.470,11.098 12.441 L 14.700 16.006 15.350 15.357 L 16.000 14.707 15.740 14.450 C 15.277 13.993,9.997 8.776,9.658 8.441 L 9.330 8.116 12.666 4.815 L 16.001 1.513 15.357 0.883 C 15.003 0.537,14.705 0.251,14.696 0.247 C 14.687 0.244,13.067 1.837,11.095 3.786 " fill="#35373A" stroke="none" fill-rule="evenodd"></path></svg>