<svg width="20" height="20" viewBox="0 0 20 20" fill="none" xmlns="http://www.w3.org/2000/svg"><path d="M12.033 2.036 C 11.248 2.137,10.497 2.445,9.874 2.923 C 9.574 3.153,3.100 9.694,3.043 9.824 C 2.949 10.042,3.038 10.361,3.232 10.499 C 3.362 10.592,3.583 10.622,3.745 10.568 C 3.837 10.538,4.608 9.776,7.104 7.251 C 8.885 5.448,10.442 3.897,10.563 3.806 C 10.941 3.521,11.298 3.349,11.800 3.211 C 11.970 3.164,12.139 3.152,12.583 3.153 C 13.100 3.155,13.176 3.163,13.443 3.244 C 13.826 3.361,14.098 3.486,14.399 3.685 C 15.052 4.115,15.588 4.876,15.781 5.645 C 16.027 6.629,15.817 7.708,15.226 8.494 C 15.076 8.693,8.942 14.931,7.678 16.170 C 7.225 16.614,7.062 16.723,6.709 16.814 C 5.853 17.036,4.945 16.493,4.713 15.621 C 4.655 15.402,4.655 14.965,4.713 14.746 C 4.833 14.296,4.745 14.392,8.413 10.684 C 10.627 8.446,11.860 7.176,11.892 7.101 C 11.922 7.029,11.934 6.924,11.925 6.823 C 11.890 6.457,11.537 6.243,11.175 6.369 C 11.065 6.407,4.368 13.158,4.106 13.495 C 3.254 14.591,3.368 16.203,4.369 17.195 C 4.710 17.532,5.158 17.789,5.633 17.920 C 5.935 18.004,6.664 18.004,6.967 17.921 C 7.289 17.833,7.756 17.600,7.991 17.410 C 8.317 17.148,15.849 9.515,16.068 9.225 C 16.723 8.360,17.039 7.352,16.991 6.287 C 16.921 4.752,16.097 3.380,14.779 2.604 C 13.975 2.130,12.951 1.918,12.033 2.036 " fill="#939394" stroke="none" fill-rule="evenodd"></path></svg>