<svg width="20" height="20" viewBox="0 0 20 20" fill="none" xmlns="http://www.w3.org/2000/svg"><path d="M5.000 2.663 L 5.000 3.493 4.408 3.507 C 3.892 3.520,3.791 3.532,3.617 3.599 C 3.056 3.815,2.652 4.274,2.537 4.827 C 2.485 5.076,2.485 16.924,2.537 17.173 C 2.667 17.798,3.202 18.333,3.827 18.463 C 4.076 18.515,15.924 18.515,16.173 18.463 C 16.798 18.333,17.333 17.798,17.463 17.173 C 17.515 16.924,17.515 5.076,17.463 4.827 C 17.348 4.274,16.944 3.815,16.383 3.599 C 16.209 3.532,16.108 3.520,15.592 3.507 L 15.000 3.493 15.000 2.663 L 15.000 1.833 14.167 1.833 L 13.333 1.833 13.333 2.667 L 13.333 3.500 10.000 3.500 L 6.667 3.500 6.667 2.667 L 6.667 1.833 5.833 1.833 L 5.000 1.833 5.000 2.663 M15.833 6.000 L 15.833 6.833 10.000 6.833 L 4.167 6.833 4.167 6.000 L 4.167 5.167 10.000 5.167 L 15.833 5.167 15.833 6.000 M15.833 12.667 L 15.833 16.833 10.000 16.833 L 4.167 16.833 4.167 12.667 L 4.167 8.500 10.000 8.500 L 15.833 8.500 15.833 12.667 M10.000 13.083 L 10.000 15.167 12.083 15.167 L 14.167 15.167 14.167 13.083 L 14.167 11.000 12.083 11.000 L 10.000 11.000 10.000 13.083 " fill="#939394" stroke="none" fill-rule="evenodd"></path></svg>