<svg width="12" height="10" viewBox="0 0 12 10" fill="none" xmlns="http://www.w3.org/2000/svg"><path d="M10.252 0.282 C 10.111 0.315,9.927 0.421,9.817 0.531 C 9.758 0.590,8.468 2.119,6.950 3.928 C 5.432 5.737,4.184 7.218,4.177 7.219 C 4.170 7.219,3.732 6.741,3.205 6.155 C 2.677 5.569,2.202 5.049,2.148 4.999 C 1.973 4.836,1.766 4.761,1.490 4.761 C 1.214 4.760,0.981 4.862,0.781 5.071 C 0.489 5.374,0.421 5.815,0.608 6.188 C 0.668 6.309,0.875 6.548,2.011 7.810 C 2.744 8.624,3.402 9.350,3.475 9.424 C 3.689 9.641,3.912 9.740,4.190 9.739 C 4.472 9.739,4.675 9.663,4.857 9.491 C 4.916 9.436,6.392 7.691,8.137 5.615 C 10.481 2.827,11.329 1.805,11.383 1.704 C 11.525 1.434,11.532 1.106,11.401 0.825 C 11.289 0.587,11.032 0.370,10.766 0.290 C 10.660 0.257,10.375 0.253,10.252 0.282 " stroke="none" fill-rule="evenodd" fill="black"></path></svg>