<svg width="21" height="20" viewBox="0 0 21 20" fill="none" xmlns="http://www.w3.org/2000/svg"><path d="M4.188 2.115 C 3.796 2.277,3.579 2.483,3.401 2.862 L 3.308 3.063 3.308 9.993 L 3.308 16.923 3.415 17.150 C 3.554 17.442,3.803 17.691,4.095 17.830 L 4.323 17.938 9.853 17.938 L 15.384 17.938 15.611 17.826 C 16.024 17.622,16.307 17.242,16.378 16.800 C 16.430 16.474,16.428 8.537,16.376 8.348 C 16.297 8.064,15.942 7.836,15.668 7.894 C 15.492 7.931,15.318 8.043,15.224 8.181 L 15.138 8.307 15.120 12.475 L 15.103 16.643 9.844 16.651 L 4.585 16.660 4.585 9.994 L 4.585 3.327 8.409 3.317 C 12.161 3.308,12.235 3.306,12.351 3.238 C 12.417 3.199,12.517 3.109,12.575 3.038 C 12.785 2.778,12.723 2.364,12.441 2.149 L 12.308 2.048 8.350 2.039 L 4.393 2.031 4.188 2.115 M16.215 2.826 C 16.075 2.903,11.563 7.362,11.500 7.486 C 11.373 7.735,11.408 8.000,11.595 8.213 C 11.784 8.428,12.048 8.491,12.307 8.383 C 12.388 8.349,13.228 7.543,14.737 6.051 C 17.221 3.594,17.183 3.639,17.140 3.323 C 17.114 3.130,16.969 2.921,16.801 2.836 C 16.629 2.748,16.366 2.743,16.215 2.826 M5.937 7.191 C 5.430 7.372,5.355 8.025,5.806 8.334 L 5.927 8.418 7.630 8.418 L 9.333 8.418 9.462 8.319 C 9.711 8.129,9.789 7.912,9.713 7.619 C 9.658 7.407,9.491 7.234,9.287 7.178 C 9.072 7.118,6.110 7.130,5.937 7.191 M5.898 10.864 C 5.687 10.959,5.494 11.250,5.496 11.470 C 5.497 11.599,5.605 11.828,5.710 11.925 C 5.915 12.113,5.867 12.110,8.373 12.109 C 10.548 12.109,10.701 12.104,10.834 12.044 C 11.310 11.828,11.359 11.214,10.924 10.916 L 10.803 10.833 8.403 10.825 C 6.450 10.818,5.983 10.826,5.898 10.864 " stroke="none" fill-rule="evenodd" fill="black"></path></svg>