<svg width="20" height="20" viewBox="0 0 20 20" fill="none" xmlns="http://www.w3.org/2000/svg"><path d="M7.188 1.449 C 7.117 1.474,7.018 1.534,6.967 1.583 C 6.913 1.635,6.550 2.331,6.065 3.317 L 5.254 4.964 4.016 4.974 L 2.778 4.983 2.652 5.079 C 2.516 5.183,2.402 5.394,2.401 5.543 C 2.400 5.663,2.483 5.861,2.577 5.961 C 2.736 6.132,2.806 6.147,3.508 6.161 L 4.166 6.174 4.174 11.445 L 4.183 16.717 4.286 17.004 C 4.497 17.593,4.938 18.089,5.482 18.349 C 5.648 18.429,5.866 18.514,5.967 18.538 C 6.237 18.605,13.763 18.605,14.033 18.538 C 14.134 18.514,14.352 18.429,14.518 18.349 C 15.062 18.089,15.503 17.593,15.714 17.004 L 15.817 16.717 15.826 11.445 L 15.835 6.174 16.492 6.161 C 17.194 6.147,17.264 6.132,17.423 5.961 C 17.517 5.861,17.600 5.663,17.599 5.543 C 17.598 5.394,17.484 5.183,17.348 5.079 L 17.222 4.983 15.984 4.974 L 14.746 4.964 13.933 3.313 C 13.072 1.564,13.037 1.508,12.776 1.435 C 12.693 1.412,11.746 1.401,9.983 1.402 C 7.806 1.403,7.293 1.411,7.188 1.449 M12.827 3.758 C 13.142 4.395,13.400 4.928,13.400 4.942 C 13.400 4.974,6.600 4.974,6.599 4.942 C 6.599 4.928,6.857 4.395,7.173 3.758 L 7.747 2.600 10.000 2.600 L 12.254 2.600 12.827 3.758 M14.659 11.325 L 14.650 16.483 14.545 16.705 C 14.419 16.971,14.216 17.179,13.967 17.297 L 13.783 17.383 10.000 17.383 L 6.217 17.383 6.028 17.295 C 5.780 17.178,5.584 16.977,5.455 16.705 L 5.350 16.483 5.341 11.325 L 5.332 6.167 10.000 6.167 L 14.668 6.167 14.659 11.325 M8.122 8.540 C 7.947 8.577,7.812 8.680,7.733 8.835 C 7.668 8.960,7.667 9.040,7.667 11.766 C 7.667 14.813,7.659 14.691,7.854 14.873 C 8.151 15.151,8.627 15.050,8.787 14.676 C 8.825 14.588,8.833 14.072,8.833 11.766 C 8.833 9.040,8.832 8.960,8.767 8.835 C 8.650 8.605,8.385 8.484,8.122 8.540 M11.622 8.540 C 11.447 8.577,11.312 8.680,11.233 8.835 C 11.168 8.960,11.167 9.040,11.167 11.766 C 11.167 14.813,11.159 14.691,11.354 14.873 C 11.651 15.151,12.127 15.050,12.287 14.676 C 12.325 14.588,12.333 14.072,12.333 11.766 C 12.333 9.040,12.332 8.960,12.267 8.835 C 12.150 8.605,11.885 8.484,11.622 8.540 " stroke="none" fill-rule="evenodd" fill="black"></path></svg>