<svg width="21" height="20" viewBox="0 0 21 20" fill="none" xmlns="http://www.w3.org/2000/svg"><path d="M9.072 2.061 C 8.843 2.140,8.661 2.283,8.517 2.496 C 8.409 2.654,8.309 2.983,8.349 3.048 C 8.361 3.067,9.551 3.080,11.272 3.080 L 14.175 3.080 14.175 5.198 L 14.175 7.315 16.310 7.315 L 18.445 7.315 18.436 11.559 L 18.428 15.803 16.563 15.812 L 14.698 15.821 14.708 16.337 L 14.718 16.853 16.713 16.853 L 18.708 16.853 18.876 16.769 C 19.118 16.649,19.337 16.415,19.423 16.186 C 19.495 15.994,19.495 15.960,19.495 11.120 L 19.495 6.247 17.369 4.121 L 15.242 1.995 12.250 1.996 C 9.443 1.997,9.246 2.001,9.072 2.061 M16.643 4.900 L 18.007 6.265 16.634 6.265 L 15.260 6.265 15.260 4.900 C 15.260 4.149,15.264 3.535,15.269 3.535 C 15.274 3.535,15.892 4.149,16.643 4.900 M3.206 4.185 C 2.936 4.284,2.738 4.471,2.597 4.760 L 2.503 4.953 2.503 11.550 L 2.503 18.148 2.593 18.340 C 2.724 18.619,2.844 18.743,3.108 18.873 L 3.341 18.988 8.049 18.988 C 13.455 18.988,12.979 19.017,13.337 18.658 C 13.678 18.317,13.650 18.806,13.650 13.228 L 13.650 8.338 11.529 6.234 L 9.409 4.130 6.376 4.132 C 3.835 4.135,3.320 4.143,3.206 4.185 M8.338 7.306 L 8.348 9.433 10.474 9.442 L 12.600 9.451 12.600 13.685 L 12.600 17.920 8.085 17.920 L 3.570 17.920 3.570 11.550 L 3.570 5.180 5.950 5.180 L 8.329 5.180 8.338 7.306 M10.798 7.000 L 12.162 8.365 10.789 8.365 L 9.415 8.365 9.415 7.000 C 9.415 6.249,9.419 5.635,9.424 5.635 C 9.429 5.635,10.047 6.249,10.798 7.000 " fill="#35373A" stroke="none" fill-rule="evenodd"></path></svg>