<svg width="24" height="24" viewBox="0 0 24 24" fill="none" xmlns="http://www.w3.org/2000/svg"><path d="M11.760 4.043 C 11.643 4.092,11.492 4.226,11.426 4.340 C 11.392 4.399,11.375 5.720,11.360 9.352 L 11.340 14.283 10.188 13.164 C 9.370 12.369,8.994 12.031,8.893 11.998 C 8.566 11.890,8.212 12.036,8.076 12.336 C 7.977 12.554,7.981 12.713,8.090 12.913 C 8.196 13.108,10.600 15.461,10.902 15.664 C 11.249 15.899,11.522 15.976,12.000 15.976 C 12.478 15.976,12.751 15.899,13.098 15.664 C 13.400 15.460,15.803 13.107,15.913 12.909 C 16.209 12.375,15.641 11.775,15.067 12.014 C 14.996 12.044,14.416 12.576,13.779 13.195 L 12.620 14.322 12.600 9.364 C 12.580 4.434,12.580 4.405,12.498 4.295 C 12.452 4.235,12.369 4.150,12.312 4.108 C 12.191 4.017,11.902 3.983,11.760 4.043 " fill="#939394" stroke="none" fill-rule="evenodd"></path></svg>