<svg width="16" height="16" viewBox="0 0 16 16" fill="none" xmlns="http://www.w3.org/2000/svg"><path d="M3.660 0.696 C 3.261 0.763,2.914 0.949,2.598 1.265 C 2.274 1.590,2.097 1.926,2.028 2.349 C 1.990 2.586,1.990 13.414,2.028 13.651 C 2.145 14.374,2.667 14.983,3.381 15.230 L 3.640 15.320 8.000 15.320 L 12.360 15.320 12.612 15.232 C 12.927 15.122,13.131 14.999,13.366 14.777 C 13.609 14.548,13.786 14.273,13.897 13.953 L 13.987 13.693 13.987 9.760 L 13.987 5.827 13.924 5.707 C 13.836 5.538,9.128 0.830,8.960 0.743 L 8.840 0.680 6.320 0.676 C 4.934 0.674,3.737 0.683,3.660 0.696 M8.006 4.087 C 8.013 6.164,8.014 6.174,8.071 6.280 C 8.144 6.416,8.250 6.523,8.386 6.596 C 8.493 6.653,8.503 6.653,10.580 6.661 L 12.667 6.668 12.666 10.074 L 12.666 13.480 12.603 13.613 C 12.527 13.774,12.428 13.872,12.267 13.945 C 12.148 13.998,12.115 13.999,8.000 13.999 C 3.885 13.999,3.852 13.998,3.733 13.945 C 3.572 13.872,3.473 13.774,3.397 13.613 L 3.334 13.480 3.334 8.000 C 3.335 2.544,3.335 2.519,3.389 2.400 C 3.462 2.239,3.560 2.139,3.720 2.064 L 3.853 2.001 5.926 2.000 L 7.999 2.000 8.006 4.087 M10.533 4.147 L 11.720 5.333 10.527 5.333 L 9.333 5.333 9.333 4.147 C 9.333 3.494,9.336 2.960,9.340 2.960 C 9.344 2.960,9.881 3.494,10.533 4.147 " stroke="none" fill-rule="evenodd" fill="black"></path></svg>