<svg width="20" height="20" viewBox="0 0 20 20" fill="none" xmlns="http://www.w3.org/2000/svg"><path d="M9.417 1.921 C 7.458 2.079,5.657 2.911,4.273 4.295 C 2.832 5.736,2.049 7.524,1.914 9.679 L 1.893 10.009 1.572 9.689 C 1.222 9.341,1.091 9.267,0.833 9.267 C 0.408 9.267,0.101 9.574,0.101 10.000 C 0.101 10.110,0.127 10.237,0.164 10.317 C 0.250 10.501,2.038 12.279,2.207 12.349 C 2.376 12.418,2.653 12.413,2.817 12.336 C 3.001 12.250,4.779 10.462,4.849 10.293 C 4.877 10.225,4.900 10.090,4.899 9.993 C 4.898 9.573,4.588 9.267,4.167 9.267 C 3.908 9.267,3.778 9.341,3.425 9.692 L 3.100 10.015 3.101 9.799 C 3.102 9.681,3.123 9.411,3.148 9.200 C 3.432 6.851,4.859 4.839,6.977 3.803 C 8.691 2.964,10.671 2.875,12.467 3.556 C 14.049 4.156,15.426 5.407,16.167 6.917 C 16.500 7.596,16.693 8.196,16.822 8.950 C 16.905 9.431,16.904 10.589,16.821 11.067 C 16.650 12.049,16.294 12.977,15.796 13.737 C 14.953 15.025,13.710 16.011,12.317 16.499 C 11.499 16.786,10.929 16.881,10.033 16.882 C 8.861 16.884,7.991 16.690,6.983 16.201 C 6.394 15.915,5.600 15.370,5.283 15.033 C 5.228 14.975,5.116 14.880,5.033 14.822 C 4.731 14.612,4.329 14.715,4.171 15.042 C 4.020 15.354,4.103 15.576,4.510 15.947 C 5.783 17.106,7.307 17.811,9.033 18.039 C 9.504 18.101,10.599 18.092,11.083 18.021 C 13.297 17.698,15.171 16.587,16.509 14.806 C 17.620 13.327,18.219 11.277,18.072 9.459 C 17.909 7.433,17.118 5.689,15.734 4.298 C 14.462 3.020,12.847 2.217,11.083 1.984 C 10.685 1.931,9.734 1.895,9.417 1.921 M8.850 5.997 C 8.777 6.030,8.676 6.101,8.627 6.154 C 8.428 6.367,8.433 6.289,8.434 8.757 C 8.435 10.885,8.438 11.024,8.497 11.150 C 8.530 11.223,8.601 11.324,8.654 11.373 C 8.867 11.572,8.789 11.567,11.257 11.566 C 13.385 11.565,13.524 11.562,13.650 11.503 C 14.192 11.253,14.212 10.464,13.683 10.172 C 13.595 10.123,13.376 10.115,11.750 10.100 L 9.917 10.083 9.900 8.250 C 9.882 6.240,9.891 6.329,9.678 6.127 C 9.473 5.932,9.111 5.876,8.850 5.997 " stroke="none" fill-rule="evenodd" fill="black"></path></svg>