<svg width="20" height="20" viewBox="0 0 20 20" fill="none" xmlns="http://www.w3.org/2000/svg"><path d="M5.175 2.451 C 5.060 2.475,4.892 2.537,4.800 2.587 C 4.601 2.695,4.336 2.966,4.235 3.164 C 4.063 3.501,4.068 3.285,4.068 10.000 C 4.068 16.806,4.060 16.511,4.254 16.868 C 4.362 17.066,4.633 17.331,4.831 17.432 C 5.163 17.601,5.086 17.599,9.967 17.599 C 12.972 17.599,14.590 17.588,14.733 17.565 C 15.030 17.517,15.267 17.402,15.478 17.202 C 15.697 16.995,15.822 16.772,15.884 16.476 C 15.957 16.131,15.957 7.537,15.884 7.256 C 15.772 6.826,15.785 6.842,13.638 4.695 C 11.491 2.548,11.507 2.562,11.077 2.450 C 10.807 2.379,5.499 2.380,5.175 2.451 M12.908 5.425 L 14.900 7.416 14.900 11.833 C 14.900 16.155,14.898 16.252,14.835 16.357 C 14.697 16.582,15.047 16.567,10.000 16.567 C 4.953 16.567,5.303 16.582,5.165 16.357 C 5.101 16.252,5.100 16.140,5.100 10.007 C 5.100 3.109,5.083 3.637,5.310 3.499 C 5.414 3.436,5.498 3.434,8.167 3.433 L 10.916 3.433 12.908 5.425 M9.600 8.746 C 9.235 8.867,8.952 9.117,8.789 9.460 C 8.691 9.667,8.683 9.709,8.683 10.033 C 8.683 10.355,8.692 10.401,8.786 10.600 C 8.918 10.878,9.156 11.116,9.433 11.247 C 9.633 11.342,9.678 11.350,10.000 11.350 C 10.322 11.350,10.367 11.342,10.567 11.247 C 10.844 11.116,11.082 10.878,11.214 10.600 C 11.308 10.401,11.317 10.355,11.317 10.033 C 11.317 9.711,11.308 9.666,11.214 9.467 C 11.046 9.114,10.756 8.861,10.383 8.743 C 10.220 8.691,9.758 8.693,9.600 8.746 M9.433 12.368 C 9.018 12.419,8.671 12.498,8.250 12.639 C 7.751 12.805,7.565 12.904,7.349 13.119 C 7.108 13.360,7.026 13.550,7.007 13.908 L 6.992 14.200 9.996 14.200 L 13.000 14.200 13.000 13.968 C 13.000 13.416,12.690 13.005,12.089 12.760 C 11.744 12.619,11.229 12.472,10.883 12.414 C 10.505 12.352,9.760 12.328,9.433 12.368 " fill="#35373A" stroke="none" fill-rule="evenodd"></path></svg>