<svg width="24" height="24" viewBox="0 0 24 24" fill="none" xmlns="http://www.w3.org/2000/svg"><path d="M5.197 4.054 C 4.815 4.158,4.386 4.515,4.197 4.887 C 3.992 5.288,4.000 4.983,4.000 12.378 C 4.000 17.057,4.014 19.308,4.042 19.411 C 4.128 19.719,4.489 19.998,4.800 19.998 C 5.090 19.998,5.213 19.895,6.214 18.820 L 7.183 17.780 12.982 17.760 L 18.782 17.740 19.048 17.609 C 19.335 17.468,19.663 17.149,19.802 16.876 C 20.006 16.476,20.000 16.659,20.000 10.880 C 20.000 5.101,20.006 5.284,19.802 4.884 C 19.663 4.611,19.335 4.292,19.048 4.151 L 18.782 4.020 12.081 4.012 C 6.855 4.006,5.340 4.016,5.197 4.054 M18.400 10.880 L 18.400 16.040 12.443 16.040 C 8.961 16.040,6.481 16.055,6.473 16.076 C 6.466 16.096,6.266 16.312,6.030 16.556 L 5.600 17.000 5.600 11.360 L 5.600 5.720 12.000 5.720 L 18.400 5.720 18.400 10.880 M11.660 6.659 C 11.146 6.926,11.042 7.645,11.458 8.060 C 11.998 8.600,12.866 8.142,12.790 7.355 C 12.767 7.113,12.651 6.894,12.465 6.743 C 12.338 6.640,12.275 6.620,12.048 6.609 C 11.861 6.600,11.744 6.615,11.660 6.659 M11.660 10.099 C 11.490 10.187,11.287 10.428,11.240 10.597 C 11.185 10.797,11.187 14.412,11.243 14.614 C 11.268 14.703,11.358 14.840,11.458 14.940 C 11.663 15.145,11.895 15.213,12.185 15.151 C 12.423 15.100,12.695 14.840,12.759 14.604 C 12.789 14.493,12.799 13.822,12.791 12.510 L 12.780 10.580 12.686 10.429 C 12.524 10.169,12.347 10.064,12.044 10.049 C 11.861 10.040,11.743 10.055,11.660 10.099 " fill="#0063B4" stroke="none" fill-rule="evenodd"></path></svg>