<svg width="24" height="24" viewBox="0 0 24 24" fill="none" xmlns="http://www.w3.org/2000/svg"><path d="M11.900 3.269 C 11.506 3.354,4.680 5.435,4.586 5.499 C 4.402 5.623,4.289 5.817,4.258 6.064 C 4.243 6.185,4.240 7.412,4.252 8.792 C 4.275 11.404,4.291 11.679,4.475 12.620 C 5.054 15.595,6.988 18.226,9.747 19.794 C 10.546 20.248,11.704 20.728,12.000 20.728 C 12.296 20.728,13.454 20.248,14.253 19.794 C 17.013 18.225,18.947 15.595,19.525 12.623 C 19.710 11.673,19.725 11.410,19.748 8.743 C 19.764 6.836,19.758 6.132,19.722 5.973 C 19.670 5.743,19.535 5.551,19.363 5.461 C 19.255 5.406,12.268 3.302,12.080 3.269 C 12.025 3.259,11.944 3.259,11.900 3.269 M18.090 6.602 L 18.240 6.643 18.240 8.872 C 18.239 11.171,18.217 11.610,18.059 12.380 C 17.579 14.714,16.174 16.766,14.100 18.162 C 13.731 18.410,12.714 18.935,12.290 19.097 L 12.000 19.207 11.710 19.096 C 11.550 19.036,11.168 18.858,10.860 18.703 C 9.902 18.218,9.220 17.731,8.484 17.004 C 7.168 15.706,6.301 14.129,5.941 12.380 C 5.783 11.610,5.761 11.171,5.760 8.872 L 5.760 6.643 5.910 6.602 C 5.992 6.579,7.399 6.158,9.035 5.667 L 12.009 4.773 14.975 5.667 C 16.606 6.159,18.008 6.579,18.090 6.602 M11.670 6.883 C 11.059 6.952,10.630 7.169,10.137 7.659 C 9.840 7.954,9.743 8.083,9.607 8.360 C 9.151 9.290,9.245 10.436,9.840 11.225 L 9.996 11.432 9.835 11.539 C 9.563 11.718,9.060 12.226,8.864 12.518 C 8.472 13.103,8.215 13.826,8.173 14.464 C 8.142 14.926,8.174 15.087,8.328 15.263 C 8.488 15.445,8.649 15.527,8.856 15.530 C 9.339 15.537,9.638 15.214,9.640 14.680 C 9.645 13.761,10.331 12.801,11.220 12.471 C 11.424 12.395,11.540 12.382,12.000 12.382 C 12.460 12.382,12.576 12.395,12.780 12.471 C 13.669 12.801,14.355 13.761,14.360 14.680 C 14.362 15.214,14.661 15.537,15.144 15.530 C 15.351 15.527,15.512 15.445,15.672 15.263 C 15.826 15.087,15.858 14.926,15.827 14.464 C 15.785 13.827,15.528 13.103,15.138 12.522 C 14.943 12.230,14.498 11.780,14.192 11.563 L 14.005 11.430 14.162 11.223 C 14.754 10.438,14.846 9.298,14.393 8.361 C 14.169 7.898,13.644 7.364,13.200 7.147 C 12.713 6.909,12.207 6.822,11.670 6.883 M12.598 8.518 C 13.401 9.034,13.399 10.167,12.594 10.684 C 12.391 10.814,12.366 10.820,12.000 10.820 C 11.634 10.820,11.609 10.814,11.406 10.684 C 10.626 10.183,10.595 9.072,11.348 8.555 C 11.595 8.385,11.691 8.361,12.065 8.374 C 12.355 8.384,12.412 8.400,12.598 8.518 " stroke="none" fill-rule="evenodd" fill="black"></path></svg>