<svg width="21" height="20" viewBox="0 0 21 20" fill="none" xmlns="http://www.w3.org/2000/svg"><path d="M3.675 2.778 C 3.110 2.901,2.731 3.280,2.499 3.955 C 2.435 4.141,2.433 4.349,2.433 9.800 L 2.433 15.453 2.518 15.713 C 2.670 16.176,3.023 16.547,3.496 16.738 L 3.693 16.818 10.483 16.828 C 15.460 16.835,17.329 16.828,17.483 16.798 C 18.112 16.679,18.543 16.233,18.727 15.513 C 18.793 15.257,18.795 15.071,18.794 9.768 C 18.794 3.800,18.801 4.040,18.596 3.617 C 18.401 3.215,17.937 2.865,17.472 2.769 C 17.197 2.711,3.940 2.720,3.675 2.778 M17.428 4.041 C 17.488 4.098,17.552 4.202,17.571 4.274 C 17.594 4.358,17.603 6.309,17.597 9.840 L 17.588 15.278 17.512 15.419 C 17.470 15.497,17.394 15.580,17.344 15.603 C 17.273 15.635,15.694 15.645,10.617 15.645 C 3.149 15.645,3.799 15.670,3.670 15.379 C 3.606 15.235,3.604 15.046,3.613 9.759 L 3.623 4.288 3.699 4.145 C 3.741 4.067,3.811 3.985,3.856 3.964 C 3.916 3.935,5.741 3.926,10.629 3.931 L 17.320 3.938 17.428 4.041 M13.122 5.669 C 12.736 5.738,12.417 6.029,12.288 6.430 C 12.214 6.662,12.212 6.706,12.222 8.208 C 12.232 9.730,12.233 9.749,12.313 9.926 C 12.406 10.132,12.623 10.356,12.833 10.464 C 13.074 10.588,13.379 10.613,14.506 10.600 L 15.565 10.588 15.805 10.465 C 16.078 10.325,16.225 10.158,16.349 9.845 C 16.427 9.648,16.430 9.603,16.443 8.270 C 16.451 7.367,16.442 6.810,16.417 6.644 C 16.348 6.204,16.144 5.928,15.752 5.744 L 15.558 5.653 14.420 5.646 C 13.794 5.643,13.210 5.653,13.122 5.669 M15.252 8.111 L 15.261 9.380 14.333 9.380 L 13.405 9.380 13.405 8.102 L 13.405 6.824 14.324 6.833 L 15.243 6.843 15.252 8.111 M5.249 9.480 C 4.901 9.665,4.841 10.144,5.131 10.418 C 5.319 10.595,5.469 10.610,6.919 10.598 C 8.201 10.588,8.208 10.587,8.352 10.505 C 8.740 10.282,8.748 9.704,8.365 9.489 C 8.236 9.417,8.195 9.415,6.802 9.415 C 5.477 9.415,5.362 9.420,5.249 9.480 M5.227 12.408 C 5.066 12.504,4.934 12.727,4.936 12.900 C 4.938 13.151,5.135 13.404,5.386 13.477 C 5.471 13.502,6.455 13.510,8.403 13.503 L 11.293 13.493 11.433 13.399 C 11.781 13.169,11.781 12.668,11.434 12.411 C 11.335 12.338,11.317 12.337,8.354 12.329 L 5.373 12.320 5.227 12.408 " stroke="none" fill-rule="evenodd" fill="black"></path></svg>