<svg width="24" height="24" viewBox="0 0 24 24" fill="none" xmlns="http://www.w3.org/2000/svg"><path d="M11.060 2.978 C 8.757 3.340,7.056 4.812,6.634 6.809 C 6.609 6.925,6.578 7.630,6.565 8.374 L 6.540 9.729 6.203 9.826 C 6.018 9.880,5.703 10.007,5.503 10.110 C 5.203 10.263,5.070 10.366,4.738 10.698 C 4.420 11.016,4.306 11.162,4.190 11.400 C 3.909 11.974,3.916 11.871,3.929 15.492 L 3.940 18.740 4.045 19.010 C 4.211 19.436,4.395 19.715,4.741 20.063 C 5.233 20.557,5.794 20.858,6.500 21.004 C 6.841 21.075,7.137 21.079,12.000 21.079 C 16.863 21.079,17.159 21.075,17.500 21.004 C 18.641 20.768,19.526 20.058,19.934 19.052 L 20.060 18.740 20.071 15.492 C 20.084 11.874,20.091 11.987,19.812 11.408 C 19.692 11.159,19.586 11.023,19.262 10.698 C 18.930 10.366,18.797 10.264,18.497 10.110 C 18.297 10.007,17.982 9.880,17.797 9.826 L 17.460 9.729 17.435 8.374 C 17.422 7.630,17.391 6.925,17.366 6.809 C 16.942 4.802,15.237 3.333,12.920 2.979 C 12.462 2.909,11.505 2.908,11.060 2.978 M13.100 4.355 C 13.601 4.489,14.031 4.677,14.400 4.925 C 15.125 5.412,15.606 6.049,15.809 6.794 C 15.882 7.065,15.894 7.244,15.910 8.370 L 15.928 9.640 12.000 9.640 L 8.071 9.640 8.090 8.350 C 8.111 6.932,8.126 6.827,8.376 6.297 C 8.843 5.306,9.811 4.597,11.080 4.316 C 11.561 4.210,12.635 4.231,13.100 4.355 M17.266 11.047 C 17.763 11.201,18.276 11.609,18.451 11.988 L 18.540 12.180 18.540 15.380 L 18.540 18.580 18.430 18.789 C 18.137 19.345,17.603 19.677,16.864 19.762 C 16.439 19.811,7.561 19.811,7.136 19.762 C 6.395 19.677,5.828 19.320,5.552 18.765 L 5.460 18.580 5.449 15.434 C 5.438 12.325,5.439 12.285,5.522 12.064 C 5.716 11.544,6.331 11.102,6.997 11.002 C 7.120 10.984,9.434 10.972,12.140 10.976 C 16.521 10.982,17.083 10.990,17.266 11.047 " fill="#35373A" stroke="none" fill-rule="evenodd"></path></svg>