<svg width="20" height="20" viewBox="0 0 20 20" fill="none" xmlns="http://www.w3.org/2000/svg"><path d="M9.917 4.985 C 5.535 6.956,1.870 8.607,1.773 8.654 C 1.451 8.810,1.321 9.148,1.467 9.450 C 1.607 9.740,1.422 9.690,5.333 10.485 C 7.286 10.881,8.885 11.208,8.887 11.211 C 8.889 11.214,8.961 11.530,9.047 11.913 C 9.209 12.639,9.229 12.699,9.346 12.828 C 9.666 13.181,10.294 12.984,10.356 12.510 C 10.367 12.426,10.315 12.129,10.203 11.633 L 10.034 10.884 11.194 9.717 C 11.831 9.075,13.250 7.645,14.346 6.539 C 15.442 5.432,16.343 4.532,16.348 4.539 C 16.353 4.545,16.007 5.435,15.578 6.517 C 15.150 7.598,14.776 8.561,14.748 8.656 C 14.707 8.793,14.704 8.858,14.732 8.963 C 14.775 9.122,14.902 9.282,15.043 9.355 C 15.282 9.478,15.659 9.380,15.793 9.159 C 15.830 9.099,16.478 7.482,17.233 5.567 C 18.746 1.729,18.675 1.950,18.490 1.670 C 18.392 1.522,18.169 1.400,17.998 1.400 C 17.918 1.400,15.484 2.480,9.917 4.985 M14.364 4.825 C 13.859 5.334,12.487 6.718,11.315 7.902 L 9.183 10.054 6.609 9.530 C 5.193 9.242,4.015 8.999,3.992 8.990 C 3.969 8.981,4.003 8.951,4.067 8.923 C 4.131 8.894,6.666 7.753,9.700 6.386 C 12.734 5.020,15.231 3.901,15.249 3.901 C 15.267 3.900,14.869 4.316,14.364 4.825 M14.450 10.435 C 13.160 10.609,12.010 11.476,11.534 12.633 C 11.324 13.141,11.284 13.359,11.284 14.000 C 11.284 14.639,11.324 14.860,11.529 15.357 C 12.024 16.556,13.172 17.405,14.518 17.567 C 15.433 17.677,16.451 17.393,17.197 16.819 C 17.443 16.630,17.818 16.231,17.978 15.990 C 18.680 14.929,18.782 13.633,18.251 12.510 C 18.060 12.107,17.900 11.870,17.617 11.571 C 16.932 10.848,16.063 10.458,15.050 10.418 C 14.848 10.410,14.578 10.418,14.450 10.435 M15.460 11.652 C 16.311 11.824,17.066 12.514,17.321 13.352 C 17.407 13.631,17.407 14.369,17.321 14.648 C 17.122 15.303,16.655 15.841,16.017 16.151 C 15.611 16.348,15.266 16.415,14.784 16.391 C 14.103 16.356,13.639 16.147,13.145 15.651 C 12.885 15.390,12.818 15.298,12.690 15.031 C 12.496 14.626,12.453 14.432,12.455 13.983 C 12.459 13.304,12.653 12.847,13.149 12.347 C 13.550 11.943,13.960 11.719,14.450 11.636 C 14.725 11.589,15.187 11.597,15.460 11.652 M14.679 12.262 C 14.604 12.297,14.499 12.383,14.446 12.452 L 14.350 12.578 14.340 13.172 L 14.329 13.765 13.932 14.137 C 13.396 14.639,13.311 14.828,13.471 15.158 C 13.554 15.330,13.739 15.465,13.927 15.490 C 14.181 15.524,14.279 15.460,14.861 14.887 C 15.161 14.592,15.431 14.305,15.461 14.250 C 15.508 14.165,15.517 14.037,15.517 13.400 C 15.517 12.710,15.511 12.641,15.450 12.537 C 15.280 12.248,14.956 12.132,14.679 12.262 " stroke="none" fill-rule="evenodd" fill="black"></path></svg>