<svg width="20" height="20" viewBox="0 0 20 20" fill="none" xmlns="http://www.w3.org/2000/svg"><path d="M3.475 3.184 C 3.360 3.209,3.193 3.269,3.103 3.318 C 2.893 3.433,2.600 3.726,2.486 3.935 C 2.294 4.287,2.301 4.045,2.301 10.319 C 2.300 16.673,2.288 16.303,2.504 16.549 C 2.724 16.800,3.131 16.916,3.438 16.816 C 3.599 16.763,3.691 16.684,4.385 15.995 L 5.153 15.233 10.722 15.233 C 14.371 15.233,16.353 15.222,16.470 15.199 C 17.055 15.088,17.527 14.626,17.651 14.043 C 17.722 13.705,17.722 4.661,17.651 4.324 C 17.589 4.031,17.469 3.816,17.243 3.590 C 17.018 3.364,16.802 3.244,16.509 3.182 C 16.182 3.113,3.795 3.114,3.475 3.184 M16.353 4.480 L 16.467 4.593 16.467 9.183 L 16.467 13.773 16.353 13.887 L 16.240 14.000 10.445 14.000 L 4.651 14.000 4.092 14.558 L 3.533 15.116 3.533 9.855 L 3.533 4.593 3.647 4.480 L 3.760 4.367 10.000 4.367 L 16.240 4.367 16.353 4.480 M5.583 6.119 C 5.343 6.244,5.233 6.425,5.234 6.691 C 5.235 6.971,5.419 7.206,5.686 7.268 C 5.859 7.308,14.141 7.308,14.314 7.268 C 14.585 7.205,14.765 6.972,14.766 6.683 C 14.767 6.477,14.690 6.320,14.522 6.186 L 14.394 6.083 10.039 6.075 C 6.139 6.068,5.673 6.072,5.583 6.119 M5.583 8.630 C 5.344 8.740,5.233 8.915,5.233 9.183 C 5.233 9.451,5.344 9.627,5.583 9.737 C 5.711 9.796,5.906 9.799,10.000 9.799 C 14.084 9.799,14.290 9.796,14.418 9.737 C 14.885 9.525,14.887 8.842,14.421 8.630 C 14.289 8.571,14.112 8.568,10.000 8.568 C 5.906 8.568,5.711 8.571,5.583 8.630 M5.688 11.104 C 5.415 11.168,5.233 11.398,5.233 11.680 C 5.233 11.866,5.279 11.990,5.394 12.112 C 5.576 12.307,5.469 12.300,8.330 12.300 C 10.109 12.300,10.993 12.289,11.056 12.265 C 11.282 12.179,11.433 11.946,11.433 11.683 C 11.433 11.390,11.255 11.169,10.963 11.102 C 10.778 11.059,5.870 11.061,5.688 11.104 " fill="#35373A" stroke="none" fill-rule="evenodd"></path></svg>