<svg width="20" height="20" viewBox="0 0 20 20" fill="none" xmlns="http://www.w3.org/2000/svg"><path d="M7.166 1.542 C 6.859 1.751,6.837 1.958,7.058 2.558 C 7.071 2.591,6.844 2.600,5.994 2.600 C 4.940 2.600,4.911 2.602,4.766 2.675 C 4.684 2.716,4.583 2.801,4.542 2.863 L 4.467 2.977 4.467 10.059 L 4.467 17.141 4.537 17.267 C 4.576 17.336,4.664 17.424,4.733 17.463 L 4.859 17.533 10.500 17.533 L 16.141 17.533 16.267 17.463 C 16.336 17.424,16.424 17.335,16.463 17.266 L 16.534 17.140 16.525 10.039 L 16.517 2.938 16.448 2.844 C 16.410 2.792,16.313 2.716,16.233 2.675 C 16.089 2.602,16.060 2.600,15.006 2.600 C 14.156 2.600,13.929 2.591,13.942 2.558 C 14.163 1.958,14.141 1.751,13.834 1.542 L 13.723 1.467 10.500 1.467 L 7.277 1.467 7.166 1.542 M12.792 2.575 C 12.783 2.598,12.691 2.875,12.585 3.192 L 12.394 3.767 10.500 3.767 L 8.606 3.767 8.415 3.192 C 8.309 2.875,8.217 2.598,8.208 2.575 C 8.196 2.542,8.668 2.533,10.500 2.533 C 12.332 2.533,12.804 2.542,12.792 2.575 M7.567 4.118 C 7.711 4.550,7.799 4.694,7.979 4.793 C 8.075 4.845,8.281 4.850,10.500 4.850 C 12.719 4.850,12.925 4.845,13.021 4.793 C 13.203 4.693,13.292 4.548,13.430 4.124 L 13.562 3.717 14.515 3.708 L 15.467 3.699 15.458 10.074 L 15.450 16.450 10.500 16.450 L 5.550 16.450 5.542 10.075 L 5.533 3.700 6.480 3.700 L 7.428 3.700 7.567 4.118 M6.833 7.767 L 6.833 8.300 10.500 8.300 L 14.167 8.300 14.167 7.767 L 14.167 7.233 10.500 7.233 L 6.833 7.233 6.833 7.767 M6.833 10.650 L 6.833 11.200 10.500 11.200 L 14.167 11.200 14.167 10.650 L 14.167 10.100 10.500 10.100 L 6.833 10.100 6.833 10.650 M6.833 13.550 L 6.833 14.100 9.275 14.092 L 11.717 14.083 11.726 13.542 L 11.735 13.000 9.284 13.000 L 6.833 13.000 6.833 13.550 " stroke="none" fill-rule="evenodd" fill="black"></path></svg>