<svg width="25" height="24" viewBox="0 0 25 24" fill="none" xmlns="http://www.w3.org/2000/svg"><path d="M12.114 2.032 C 11.937 2.210,11.792 2.374,11.792 2.396 C 11.792 2.419,12.256 2.901,12.823 3.468 L 13.854 4.500 12.838 4.500 C 11.778 4.500,11.255 4.550,10.617 4.711 C 9.788 4.921,8.914 5.325,8.210 5.824 C 7.760 6.143,6.978 6.880,6.629 7.314 C 5.547 8.659,5.000 10.221,5.000 11.964 C 5.000 12.691,5.055 13.166,5.207 13.771 C 5.312 14.188,5.608 15.013,5.708 15.167 C 5.740 15.217,5.820 15.157,6.126 14.852 L 6.504 14.475 6.401 14.185 C 6.145 13.472,6.031 12.793,6.033 12.000 C 6.037 10.173,6.647 8.693,7.922 7.418 C 8.936 6.404,10.080 5.810,11.416 5.602 C 11.634 5.568,12.272 5.529,12.833 5.516 L 13.854 5.491 12.823 6.527 C 12.256 7.097,11.792 7.582,11.792 7.605 C 11.792 7.660,12.426 8.292,12.480 8.292 C 12.503 8.292,13.262 7.551,14.167 6.646 L 15.812 5.000 14.167 3.354 C 13.262 2.449,12.502 1.708,12.478 1.708 C 12.455 1.708,12.291 1.854,12.114 2.032 M18.865 9.156 L 18.502 9.521 18.643 9.958 C 18.721 10.199,18.815 10.542,18.852 10.721 C 19.032 11.602,19.002 12.777,18.776 13.646 C 18.480 14.784,17.938 15.722,17.080 16.580 C 16.082 17.578,15.002 18.149,13.683 18.376 C 13.319 18.439,12.917 18.468,12.167 18.486 L 11.146 18.509 12.177 17.473 C 12.744 16.903,13.208 16.418,13.208 16.395 C 13.208 16.340,12.574 15.708,12.520 15.708 C 12.497 15.708,11.738 16.449,10.833 17.354 L 9.188 19.000 10.840 20.652 L 12.492 22.305 12.850 21.975 C 13.047 21.794,13.208 21.627,13.208 21.604 C 13.208 21.582,12.746 21.101,12.182 20.536 L 11.155 19.509 12.359 19.489 C 13.454 19.471,13.608 19.459,14.065 19.361 C 15.057 19.147,15.987 18.743,16.792 18.177 C 17.285 17.829,18.271 16.853,18.612 16.375 C 19.153 15.615,19.528 14.827,19.748 13.983 C 19.953 13.200,19.979 12.965,19.977 11.958 C 19.974 10.949,19.926 10.596,19.684 9.832 C 19.558 9.430,19.294 8.792,19.255 8.792 C 19.240 8.792,19.064 8.956,18.865 9.156 " fill="#0DC538" stroke="none" fill-rule="evenodd"></path></svg>