<svg width="20" height="20" viewBox="0 0 20 20" fill="none" xmlns="http://www.w3.org/2000/svg"><path d="M9.700 1.717 L 9.418 2.000 10.275 2.859 C 10.747 3.331,11.133 3.728,11.133 3.742 C 11.133 3.756,10.749 3.767,10.279 3.767 C 9.363 3.767,8.982 3.804,8.400 3.949 C 6.215 4.496,4.377 6.403,3.903 8.617 C 3.786 9.161,3.756 9.536,3.777 10.212 C 3.797 10.879,3.847 11.206,4.012 11.767 C 4.105 12.082,4.328 12.633,4.362 12.633 C 4.375 12.633,4.518 12.499,4.682 12.335 L 4.979 12.037 4.874 11.727 C 4.664 11.106,4.593 10.667,4.595 9.991 C 4.598 8.442,5.144 7.169,6.271 6.083 C 6.952 5.428,7.724 4.985,8.568 4.767 C 9.069 4.637,9.463 4.600,10.325 4.600 L 11.150 4.600 10.283 5.467 L 9.417 6.333 9.709 6.625 L 10.000 6.916 11.375 5.542 L 12.750 4.167 11.383 2.800 C 10.632 2.048,10.009 1.433,9.999 1.433 C 9.990 1.433,9.855 1.561,9.700 1.717 M15.317 7.667 L 15.018 7.967 15.108 8.225 C 15.320 8.833,15.407 9.355,15.405 10.004 C 15.403 11.231,15.045 12.319,14.339 13.250 C 14.256 13.360,14.044 13.598,13.869 13.779 C 13.015 14.659,12.039 15.168,10.850 15.354 C 10.496 15.409,8.867 15.458,8.867 15.414 C 8.867 15.397,9.253 14.997,9.725 14.525 L 10.583 13.667 10.291 13.375 L 10.000 13.084 8.625 14.458 L 7.250 15.833 8.625 17.208 L 10.000 18.583 10.291 18.292 L 10.583 18.000 9.717 17.133 L 8.850 16.267 9.434 16.267 C 10.559 16.266,11.271 16.174,12.007 15.932 C 13.789 15.347,15.348 13.780,15.931 11.987 C 16.162 11.276,16.215 10.905,16.216 10.000 C 16.216 9.150,16.190 8.942,16.000 8.283 C 15.900 7.933,15.676 7.367,15.638 7.367 C 15.625 7.367,15.481 7.502,15.317 7.667 " fill="white" stroke="none" fill-rule="evenodd"></path></svg>