<svg width="20" height="20" viewBox="0 0 20 20" fill="none" xmlns="http://www.w3.org/2000/svg"><path d="M4.630 2.178 C 4.527 2.221,4.399 2.287,4.344 2.325 C 4.172 2.448,3.963 2.699,3.872 2.894 L 3.783 3.083 3.783 9.167 L 3.783 15.250 3.873 15.442 C 4.070 15.861,4.493 16.172,4.953 16.236 C 5.087 16.254,6.213 16.264,7.633 16.259 L 10.083 16.250 10.093 15.842 L 10.102 15.433 7.609 15.433 C 5.903 15.433,5.075 15.421,4.985 15.396 C 4.814 15.349,4.649 15.182,4.603 15.010 C 4.576 14.912,4.568 13.220,4.575 9.095 C 4.583 3.334,4.584 3.316,4.652 3.200 C 4.689 3.136,4.770 3.050,4.832 3.008 L 4.943 2.933 7.688 2.933 L 10.433 2.933 10.433 5.017 L 10.433 7.100 12.517 7.100 L 14.600 7.100 14.600 8.200 L 14.600 9.300 15.000 9.300 L 15.400 9.300 15.400 7.975 L 15.400 6.650 13.125 4.375 L 10.850 2.100 7.833 2.101 L 4.817 2.102 4.630 2.178 M14.600 13.308 L 14.600 15.350 13.717 14.467 L 12.833 13.584 12.542 13.875 L 12.250 14.167 13.625 15.542 L 15.000 16.917 16.375 15.542 L 17.750 14.167 17.458 13.875 L 17.167 13.584 16.283 14.467 L 15.400 15.350 15.400 13.308 L 15.400 11.267 15.000 11.267 L 14.600 11.267 14.600 13.308 M12.100 19.183 L 12.100 19.600 15.000 19.600 L 17.900 19.600 17.900 19.183 L 17.900 18.767 15.000 18.767 L 12.100 18.767 12.100 19.183 " fill="white" stroke="none" fill-rule="evenodd"></path></svg>