<svg width="20" height="20" viewBox="0 0 20 20" fill="none" xmlns="http://www.w3.org/2000/svg"><path d="M8.683 3.023 C 6.126 3.245,3.951 5.024,3.251 7.465 C 3.098 7.998,3.032 8.404,3.010 8.952 C 2.941 10.637,3.557 12.258,4.728 13.475 C 5.261 14.029,5.785 14.410,6.483 14.751 C 7.216 15.109,7.906 15.297,8.759 15.371 C 9.773 15.459,10.937 15.231,11.917 14.752 C 12.285 14.573,12.754 14.280,13.033 14.055 L 13.183 13.935 14.700 15.448 C 16.342 17.088,16.286 17.041,16.590 16.984 C 16.754 16.953,16.953 16.754,16.984 16.590 C 17.041 16.286,17.088 16.342,15.448 14.700 L 13.935 13.183 14.055 13.033 C 14.458 12.532,14.846 11.808,15.064 11.150 C 15.595 9.547,15.474 7.915,14.712 6.402 C 14.417 5.817,14.127 5.404,13.688 4.944 C 13.148 4.378,12.641 4.003,11.950 3.657 C 10.963 3.163,9.760 2.929,8.683 3.023 M9.726 4.136 C 11.963 4.382,13.729 5.975,14.207 8.177 C 14.269 8.465,14.280 8.622,14.281 9.200 C 14.282 9.784,14.271 9.932,14.208 10.220 C 14.101 10.708,13.987 11.031,13.763 11.483 C 13.497 12.021,13.199 12.428,12.753 12.859 C 11.765 13.817,10.574 14.300,9.200 14.300 C 8.490 14.300,7.925 14.190,7.270 13.924 C 6.640 13.668,6.124 13.323,5.613 12.817 C 4.061 11.280,3.663 8.888,4.637 6.950 C 5.605 5.024,7.629 3.905,9.726 4.136 " fill="#35373A" stroke="none" fill-rule="evenodd"></path></svg>