<svg width="24" height="24" viewBox="0 0 24 24" fill="none" xmlns="http://www.w3.org/2000/svg"><path d="M3.289 6.662 C 2.862 6.777,2.404 7.092,2.121 7.467 C 1.367 8.463,1.629 9.872,2.697 10.567 C 3.107 10.834,3.350 10.888,4.230 10.910 L 5.000 10.929 5.000 11.925 L 5.000 12.920 4.268 12.920 C 3.456 12.920,3.222 12.960,2.841 13.163 C 2.349 13.425,1.951 13.901,1.789 14.418 C 1.666 14.814,1.668 15.360,1.793 15.728 C 2.018 16.383,2.518 16.886,3.183 17.124 C 3.527 17.248,4.121 17.251,4.502 17.131 C 5.015 16.970,5.532 16.529,5.779 16.042 C 5.965 15.675,6.005 15.457,6.029 14.670 L 6.052 13.920 7.026 13.920 L 8.000 13.920 8.001 14.570 C 8.002 15.571,8.137 16.029,8.572 16.506 C 9.006 16.982,9.526 17.215,10.160 17.217 C 10.657 17.219,11.002 17.114,11.388 16.843 C 11.996 16.416,12.320 15.795,12.320 15.056 C 12.320 14.449,12.086 13.922,11.628 13.494 C 11.113 13.014,10.808 12.920,9.772 12.920 L 9.040 12.920 9.040 11.925 L 9.040 10.929 9.810 10.911 C 10.672 10.891,10.894 10.841,11.307 10.577 C 11.929 10.179,12.272 9.597,12.310 8.875 C 12.346 8.197,12.168 7.725,11.701 7.258 C 11.244 6.800,10.771 6.600,10.146 6.600 C 9.249 6.600,8.437 7.184,8.129 8.051 C 8.035 8.313,8.024 8.411,8.008 9.110 L 7.991 9.880 7.021 9.880 L 6.052 9.880 6.029 9.130 C 6.010 8.534,5.988 8.326,5.923 8.117 C 5.711 7.436,5.083 6.845,4.378 6.661 C 4.089 6.586,3.571 6.586,3.289 6.662 M15.080 11.920 L 15.080 17.000 15.680 17.000 L 16.280 17.000 16.280 15.563 L 16.280 14.126 16.662 13.773 C 16.872 13.579,17.056 13.416,17.072 13.411 C 17.087 13.405,17.738 14.211,18.518 15.201 L 19.937 17.000 20.668 17.000 C 21.071 17.000,21.400 16.991,21.400 16.980 C 21.400 16.968,20.626 15.983,19.681 14.790 L 17.962 12.620 19.392 11.180 C 20.178 10.388,20.901 9.655,20.999 9.550 L 21.177 9.360 20.458 9.360 L 19.740 9.361 18.082 11.050 C 17.170 11.980,16.392 12.746,16.352 12.753 C 16.283 12.765,16.280 12.634,16.280 9.803 L 16.280 6.840 15.680 6.840 L 15.080 6.840 15.080 11.920 M4.333 7.717 C 4.558 7.826,4.775 8.044,4.889 8.276 C 4.971 8.442,4.981 8.528,4.993 9.170 L 5.006 9.880 4.293 9.880 C 3.630 9.879,3.566 9.873,3.380 9.786 C 2.859 9.542,2.603 8.964,2.762 8.391 C 2.848 8.080,3.283 7.681,3.595 7.626 C 3.803 7.589,4.161 7.634,4.333 7.717 M10.653 7.717 C 11.231 7.997,11.468 8.677,11.188 9.249 C 11.126 9.375,11.002 9.540,10.913 9.617 C 10.650 9.842,10.477 9.880,9.713 9.880 L 9.040 9.880 9.040 9.210 C 9.040 8.458,9.067 8.316,9.253 8.071 C 9.391 7.890,9.737 7.657,9.915 7.626 C 10.123 7.589,10.481 7.634,10.653 7.717 M8.000 11.920 L 8.000 12.920 7.020 12.920 L 6.040 12.920 6.040 11.920 L 6.040 10.920 7.020 10.920 L 8.000 10.920 8.000 11.920 M4.993 14.650 C 4.980 15.373,4.979 15.382,4.861 15.594 C 4.637 15.999,4.291 16.200,3.823 16.200 C 3.213 16.199,2.721 15.698,2.723 15.080 C 2.724 14.657,2.881 14.346,3.201 14.134 C 3.482 13.949,3.615 13.924,4.333 13.922 L 5.006 13.920 4.993 14.650 M10.640 14.025 C 11.344 14.355,11.523 15.258,11.003 15.850 C 10.602 16.307,9.802 16.319,9.366 15.876 C 9.084 15.588,9.061 15.502,9.047 14.667 L 9.034 13.913 9.747 13.927 C 10.372 13.939,10.482 13.951,10.640 14.025 " fill="#939394" stroke="none" fill-rule="evenodd"></path></svg>