<svg width="25" height="24" viewBox="0 0 25 24" fill="none" xmlns="http://www.w3.org/2000/svg"><path d="M4.761 3.297 C 4.575 3.350,4.346 3.591,4.293 3.787 C 4.263 3.899,4.253 6.500,4.260 12.089 L 4.271 20.229 4.367 20.383 C 4.419 20.468,4.532 20.581,4.617 20.633 L 4.771 20.729 7.146 20.742 C 8.764 20.751,9.570 20.740,9.675 20.710 C 9.997 20.615,10.208 20.336,10.208 20.004 C 10.208 19.687,10.064 19.464,9.771 19.329 C 9.617 19.258,9.462 19.252,7.677 19.251 L 5.750 19.250 5.750 12.000 L 5.750 4.750 7.677 4.749 C 9.462 4.748,9.617 4.742,9.771 4.671 C 10.063 4.536,10.208 4.313,10.208 4.000 C 10.208 3.687,10.063 3.464,9.771 3.329 C 9.615 3.257,9.454 3.252,7.250 3.255 C 5.920 3.256,4.837 3.274,4.761 3.297 M16.229 6.662 C 15.847 6.838,15.685 7.253,15.849 7.637 C 15.880 7.710,16.659 8.553,17.579 9.510 L 19.252 11.249 14.571 11.260 L 9.890 11.271 9.721 11.383 C 9.529 11.510,9.375 11.784,9.375 12.000 C 9.375 12.216,9.529 12.490,9.721 12.617 L 9.890 12.729 14.571 12.740 L 19.252 12.751 17.579 14.490 C 16.659 15.447,15.880 16.290,15.849 16.363 C 15.738 16.624,15.790 16.963,15.972 17.162 C 16.085 17.285,16.359 17.415,16.510 17.416 C 16.821 17.418,16.883 17.361,19.261 14.886 C 20.527 13.568,21.600 12.432,21.645 12.361 C 21.702 12.272,21.728 12.161,21.728 12.000 C 21.728 11.839,21.702 11.728,21.645 11.639 C 21.600 11.568,20.527 10.432,19.261 9.114 C 16.883 6.639,16.821 6.582,16.510 6.584 C 16.447 6.585,16.321 6.620,16.229 6.662 " stroke="none" fill-rule="evenodd" fill="black"></path></svg>