<svg width="20" height="20" viewBox="0 0 20 20" fill="none" xmlns="http://www.w3.org/2000/svg"><path d="M10.383 2.562 C 9.829 2.814,9.908 3.603,10.500 3.730 C 10.613 3.754,11.392 3.767,12.835 3.767 L 15.000 3.767 15.000 10.017 L 15.000 16.267 12.732 16.267 C 10.540 16.267,10.460 16.269,10.335 16.332 C 10.093 16.456,9.973 16.701,10.015 16.984 C 10.044 17.180,10.247 17.415,10.429 17.466 C 10.506 17.487,11.499 17.499,13.150 17.499 C 15.618 17.499,15.757 17.495,15.887 17.436 C 16.057 17.359,16.185 17.196,16.231 16.999 C 16.278 16.792,16.278 3.208,16.231 3.001 C 16.185 2.804,16.057 2.641,15.887 2.564 C 15.757 2.505,15.618 2.501,13.133 2.501 C 10.674 2.501,10.509 2.505,10.383 2.562 M7.162 6.362 C 7.006 6.461,6.910 6.614,6.877 6.815 C 6.836 7.067,6.880 7.122,8.027 8.274 L 9.114 9.365 5.415 9.374 L 1.717 9.383 1.566 9.472 C 1.260 9.652,1.168 10.023,1.354 10.324 C 1.413 10.417,1.502 10.505,1.583 10.547 C 1.716 10.616,1.736 10.617,5.416 10.625 L 9.114 10.634 8.027 11.725 C 7.092 12.664,6.933 12.837,6.897 12.961 C 6.818 13.232,6.967 13.562,7.223 13.685 C 7.382 13.761,7.614 13.763,7.768 13.689 C 7.836 13.657,8.588 12.928,9.538 11.975 C 11.092 10.416,11.193 10.307,11.229 10.158 C 11.258 10.039,11.258 9.961,11.229 9.842 C 11.193 9.693,11.093 9.585,9.587 8.071 C 8.705 7.184,7.917 6.416,7.835 6.363 C 7.627 6.228,7.375 6.227,7.162 6.362 " fill="white" stroke="none" fill-rule="evenodd"></path></svg>