<svg width="21" height="20" viewBox="0 0 21 20" fill="none" xmlns="http://www.w3.org/2000/svg"><path d="M4.410 9.485 L 4.410 17.080 10.500 17.080 L 16.590 17.080 16.589 11.524 L 16.588 5.968 14.603 3.932 L 12.618 1.896 8.514 1.893 L 4.410 1.890 4.410 9.485 M11.830 4.918 L 11.830 6.790 13.650 6.790 L 15.470 6.790 15.470 11.375 L 15.470 15.960 10.500 15.960 L 5.530 15.960 5.530 9.503 L 5.530 3.045 8.680 3.045 L 11.830 3.045 11.830 4.918 M14.496 5.434 L 14.672 5.635 13.811 5.635 L 12.950 5.635 12.950 4.752 L 12.950 3.868 13.635 4.550 C 14.012 4.926,14.399 5.323,14.496 5.434 M10.198 7.071 C 9.236 7.200,8.412 7.938,8.178 8.878 C 8.150 8.991,8.116 9.197,8.104 9.336 L 8.081 9.590 8.639 9.590 L 9.197 9.590 9.221 9.366 C 9.269 8.914,9.568 8.489,9.968 8.301 C 10.140 8.220,10.213 8.208,10.500 8.208 C 10.785 8.208,10.860 8.221,11.025 8.298 C 11.410 8.479,11.682 8.841,11.763 9.282 C 11.855 9.779,11.716 10.049,11.006 10.760 C 10.143 11.623,9.942 12.036,9.941 12.941 L 9.940 13.335 10.500 13.335 L 11.060 13.335 11.060 12.959 C 11.060 12.752,11.076 12.525,11.096 12.454 C 11.151 12.256,11.408 11.931,11.949 11.374 C 12.598 10.706,12.809 10.344,12.881 9.777 C 12.960 9.151,12.785 8.536,12.371 7.985 C 11.873 7.323,11.013 6.961,10.198 7.071 M9.940 14.630 L 9.940 15.190 10.500 15.190 L 11.060 15.190 11.060 14.630 L 11.060 14.070 10.500 14.070 L 9.940 14.070 9.940 14.630 " fill="#35373A" stroke="none" fill-rule="evenodd"></path></svg>