<svg width="20" height="20" viewBox="0 0 20 20" fill="none" xmlns="http://www.w3.org/2000/svg"><path d="M6.369 1.436 C 5.732 1.561,5.161 2.154,5.032 2.824 C 4.958 3.207,5.001 3.484,5.412 5.256 L 5.800 6.928 5.801 7.856 C 5.801 8.860,5.819 9.060,5.950 9.517 C 6.119 10.109,6.427 10.651,6.843 11.089 C 8.237 12.556,10.430 12.556,11.823 11.089 C 12.240 10.651,12.548 10.109,12.717 9.517 C 12.847 9.060,12.865 8.860,12.866 7.856 L 12.867 6.928 13.255 5.256 C 13.665 3.484,13.709 3.207,13.635 2.824 C 13.503 2.139,12.933 1.559,12.270 1.434 C 12.048 1.392,6.583 1.394,6.369 1.436 M12.267 2.717 C 12.412 2.854,12.473 2.983,12.478 3.163 C 12.480 3.253,12.343 3.919,12.149 4.758 L 11.817 6.200 9.333 6.200 L 6.850 6.200 6.517 4.758 C 6.324 3.919,6.187 3.253,6.189 3.163 C 6.191 3.079,6.216 2.967,6.244 2.913 C 6.299 2.808,6.454 2.653,6.533 2.623 C 6.561 2.613,7.839 2.607,9.373 2.611 L 12.162 2.617 12.267 2.717 M9.072 3.070 C 8.872 3.172,8.758 3.355,8.740 3.603 L 8.725 3.800 8.604 3.801 C 8.369 3.802,8.113 3.972,8.036 4.177 C 7.959 4.380,8.005 4.644,8.144 4.796 C 8.242 4.904,8.457 4.998,8.604 4.999 L 8.725 5.000 8.740 5.197 C 8.758 5.453,8.872 5.631,9.083 5.733 C 9.483 5.927,9.933 5.621,9.933 5.156 L 9.933 5.000 10.058 4.999 C 10.398 4.997,10.667 4.733,10.667 4.400 C 10.667 4.067,10.398 3.803,10.058 3.801 L 9.933 3.800 9.933 3.644 C 9.933 3.176,9.470 2.868,9.072 3.070 M11.691 8.125 C 11.676 8.711,11.659 8.900,11.603 9.113 C 11.360 10.032,10.634 10.776,9.810 10.951 C 8.769 11.171,7.760 10.646,7.249 9.617 C 7.044 9.204,6.996 8.942,6.976 8.125 L 6.957 7.400 9.333 7.400 L 11.709 7.400 11.691 8.125 M5.600 12.635 C 4.687 12.695,4.157 12.911,3.625 13.440 C 3.370 13.694,3.150 14.017,3.018 14.330 C 2.805 14.837,2.734 15.542,2.734 17.164 C 2.733 18.063,2.737 18.120,2.804 18.258 C 3.003 18.670,3.574 18.706,3.827 18.323 L 3.917 18.188 3.937 16.803 C 3.964 14.980,4.003 14.782,4.435 14.320 C 4.809 13.921,5.076 13.839,6.100 13.813 L 6.783 13.795 7.847 15.315 C 8.546 16.314,8.946 16.856,9.015 16.899 C 9.195 17.010,9.369 17.019,9.572 16.926 C 9.748 16.845,9.761 16.828,10.817 15.320 L 11.883 13.795 12.567 13.813 C 13.591 13.839,13.858 13.921,14.232 14.320 C 14.663 14.782,14.703 14.980,14.730 16.803 L 14.750 18.188 14.839 18.323 C 15.093 18.706,15.663 18.670,15.863 18.258 C 15.930 18.120,15.933 18.063,15.933 17.164 C 15.933 15.542,15.862 14.837,15.649 14.330 C 15.379 13.689,14.811 13.113,14.206 12.867 C 13.746 12.680,13.096 12.601,12.000 12.601 C 11.397 12.601,11.283 12.635,11.095 12.871 C 11.031 12.951,10.613 13.538,10.166 14.175 C 9.719 14.812,9.344 15.333,9.333 15.333 C 9.321 15.333,8.930 14.790,8.464 14.127 C 7.998 13.463,7.580 12.876,7.535 12.822 C 7.374 12.629,7.250 12.601,6.583 12.606 C 6.253 12.608,5.811 12.621,5.600 12.635 " stroke="none" fill-rule="evenodd" fill="black"></path></svg>