<svg width="20" height="20" viewBox="0 0 20 20" fill="none" xmlns="http://www.w3.org/2000/svg"><path d="M3.250 2.046 C 2.832 2.148,2.405 2.494,2.203 2.893 C 2.005 3.286,2.001 3.336,2.000 5.342 L 2.000 7.167 2.400 7.167 L 2.800 7.167 2.800 11.576 C 2.800 16.429,2.789 16.151,3.007 16.600 C 3.134 16.863,3.447 17.189,3.692 17.313 C 4.078 17.508,3.772 17.499,10.000 17.499 C 16.228 17.499,15.922 17.508,16.308 17.313 C 16.553 17.189,16.866 16.863,16.993 16.600 C 17.211 16.151,17.200 16.429,17.200 11.576 L 17.200 7.167 17.600 7.167 L 18.000 7.167 18.000 5.342 C 17.999 3.312,17.996 3.275,17.780 2.864 C 17.568 2.461,17.137 2.129,16.707 2.038 C 16.443 1.981,3.481 1.990,3.250 2.046 M16.733 4.617 L 16.733 5.867 9.867 5.867 L 3.000 5.867 3.000 4.617 L 3.000 3.367 9.867 3.367 L 16.733 3.367 16.733 4.617 M16.000 11.667 L 16.000 16.167 10.000 16.167 L 4.000 16.167 4.000 11.667 L 4.000 7.167 10.000 7.167 L 16.000 7.167 16.000 11.667 M8.157 10.654 C 7.976 10.709,7.779 10.887,7.689 11.076 C 7.496 11.482,7.649 12.003,8.026 12.224 L 8.183 12.317 9.926 12.326 C 11.048 12.332,11.713 12.323,11.795 12.301 C 11.990 12.249,12.173 12.098,12.283 11.897 C 12.369 11.742,12.383 11.682,12.383 11.467 C 12.383 11.252,12.369 11.192,12.284 11.038 C 12.168 10.827,12.029 10.712,11.813 10.647 C 11.579 10.577,8.389 10.582,8.157 10.654 " fill="#35373A" stroke="none" fill-rule="evenodd"></path></svg>