<svg width="24" height="24" viewBox="0 0 24 24" fill="none" xmlns="http://www.w3.org/2000/svg"><path d="M11.060 2.976 C 8.731 3.361,7.056 4.811,6.634 6.809 C 6.609 6.925,6.578 7.630,6.565 8.374 L 6.540 9.729 6.203 9.826 C 6.018 9.880,5.703 10.007,5.503 10.110 C 5.203 10.263,5.070 10.366,4.738 10.698 C 4.420 11.016,4.306 11.162,4.190 11.400 C 3.909 11.974,3.916 11.871,3.929 15.492 L 3.940 18.740 4.045 19.010 C 4.211 19.436,4.395 19.715,4.741 20.063 C 5.233 20.557,5.794 20.858,6.500 21.004 C 6.841 21.075,7.137 21.079,12.000 21.079 C 16.863 21.079,17.159 21.075,17.500 21.004 C 18.641 20.768,19.526 20.058,19.934 19.052 L 20.060 18.740 20.071 15.486 C 20.084 11.844,20.096 12.021,19.795 11.400 C 19.656 11.115,19.567 10.998,19.241 10.676 C 18.894 10.333,18.805 10.269,18.396 10.069 C 17.894 9.823,17.568 9.730,17.022 9.677 C 16.823 9.658,14.728 9.642,12.366 9.641 L 8.072 9.640 8.090 8.350 C 8.110 6.950,8.126 6.832,8.358 6.333 C 8.778 5.431,9.583 4.769,10.683 4.421 C 11.128 4.281,11.467 4.234,12.020 4.236 C 13.018 4.240,13.871 4.519,14.640 5.093 C 14.827 5.233,15.041 5.368,15.116 5.394 C 15.451 5.508,15.849 5.388,16.034 5.117 C 16.112 5.003,16.124 4.942,16.111 4.749 C 16.096 4.539,16.078 4.501,15.917 4.336 C 15.391 3.796,14.284 3.245,13.300 3.034 C 12.826 2.932,11.527 2.898,11.060 2.976 M17.266 11.047 C 17.763 11.201,18.276 11.609,18.451 11.988 L 18.540 12.180 18.540 15.380 L 18.540 18.580 18.430 18.789 C 18.137 19.345,17.603 19.677,16.864 19.762 C 16.439 19.811,7.561 19.811,7.136 19.762 C 6.395 19.677,5.828 19.320,5.552 18.765 L 5.460 18.580 5.449 15.434 C 5.438 12.325,5.439 12.285,5.522 12.064 C 5.716 11.544,6.331 11.102,6.997 11.002 C 7.120 10.984,9.434 10.972,12.140 10.976 C 16.521 10.982,17.083 10.990,17.266 11.047 " fill="#35373A" stroke="none" fill-rule="evenodd"></path></svg>