<svg width="24" height="24" viewBox="0 0 24 24" fill="none" xmlns="http://www.w3.org/2000/svg"><path d="M11.580 4.044 C 11.471 4.067,11.266 4.140,11.126 4.207 C 10.842 4.342,10.674 4.494,9.093 6.042 C 8.265 6.854,8.078 7.057,8.038 7.190 C 7.877 7.729,8.410 8.204,8.931 7.986 C 9.002 7.957,9.573 7.434,10.200 6.824 L 11.340 5.716 11.360 10.655 C 11.380 15.566,11.380 15.595,11.462 15.705 C 11.615 15.909,11.749 15.980,11.980 15.980 C 12.211 15.980,12.345 15.909,12.498 15.705 C 12.580 15.595,12.580 15.566,12.600 10.636 L 12.620 5.678 13.779 6.805 C 14.416 7.424,14.996 7.956,15.067 7.986 C 15.643 8.226,16.210 7.627,15.913 7.092 C 15.803 6.893,13.397 4.538,13.098 4.336 C 12.988 4.261,12.792 4.163,12.663 4.118 C 12.388 4.021,11.867 3.986,11.580 4.044 " fill="#0DC538" stroke="none" fill-rule="evenodd"></path></svg>