<svg width="55" height="50" viewBox="0 0 55 50" fill="none" xmlns="http://www.w3.org/2000/svg">
<g opacity="0.8">
<path d="M27.4499 50C25.8717 50 24.469 49.2451 23.6507 47.8513L18.5072 39.1986H8.3372C5.76547 39.1986 3.42753 38.0952 1.84942 36.1208C0.271315 34.1463 -0.371618 31.5912 0.212867 29.1522L5.18099 6.50407C5.94082 2.72938 9.38927 0 13.3053 0H41.7697C45.6273 0 49.0758 2.72938 49.8941 6.50407L54.8037 29.1522C55.3298 31.6492 54.6868 34.1463 53.0503 36.1208C51.4722 38.0952 49.0758 39.1986 46.5625 39.1986H36.3925L31.249 47.8513C30.3723 49.2451 28.9695 50 27.4499 50ZM13.3053 2.14866C10.4413 2.14866 7.92806 4.18118 7.28513 6.96864L2.37546 29.6167C2.02477 31.475 2.43391 33.2753 3.60288 34.7271C4.77185 36.1208 6.58375 36.9919 8.39565 36.9919H19.1502C19.5593 36.9919 19.91 37.2242 20.1438 37.5145L25.6379 46.748C26.0471 47.4448 26.7485 47.7933 27.5083 47.7933C28.2681 47.7933 28.9695 47.3868 29.3786 46.748L34.8728 37.5145C35.1066 37.1661 35.4573 36.9338 35.8664 36.9338H46.6209C48.5497 36.9338 50.2448 36.1208 51.4137 34.669C52.5827 33.2753 52.9918 31.417 52.5827 29.5587L47.673 6.91057C47.0885 4.12311 44.5168 2.09059 41.6528 2.09059H13.3053V2.14866Z" fill="white"/>
<path d="M33.5285 30.8365C33.1194 30.8365 32.7103 30.7203 32.4765 30.6042L27.4499 27.9329L22.4818 30.4881C22.1895 30.6623 21.8388 30.7203 21.4882 30.7203C21.0206 30.7203 20.6114 30.5461 20.2023 30.3138C19.5009 29.8493 19.1502 29.0363 19.3256 28.2232L20.2607 22.5903L16.2278 18.6994C15.5849 18.1187 15.4095 17.3057 15.6433 16.4927C15.8771 15.6797 16.5785 15.099 17.3968 14.9828L23.0663 14.1698L25.5795 9.23371C25.9302 8.53684 26.6901 8.07227 27.5668 8.07227C28.4435 8.07227 29.1449 8.53684 29.554 9.23371L32.0673 14.286L37.6199 15.0409C38.4382 15.157 39.1396 15.6797 39.4318 16.5508C39.6656 17.3057 39.4903 18.1768 38.8473 18.7575L34.756 22.7645L35.6911 28.2813C35.808 29.1524 35.4573 29.9073 34.8144 30.3719C34.3468 30.7203 33.9377 30.8365 33.5285 30.8365ZM27.3914 25.6681C27.7421 25.6681 28.0344 25.7262 28.2097 25.8423L33.4116 28.5717L32.418 22.9387C32.3011 22.2999 32.4765 21.7192 32.8856 21.3708L37.0354 17.3638L31.3659 16.4927C30.723 16.3766 30.2554 16.0281 30.0216 15.5055L27.3914 10.279L24.8782 15.3893C24.6444 15.912 24.1183 16.3185 23.5338 16.3766L17.7475 17.1896L21.8388 21.1385C22.248 21.545 22.4233 22.1257 22.3649 22.7645L21.3713 28.5136L26.4563 25.8423C26.7485 25.7262 27.0408 25.6681 27.3914 25.6681Z" fill="white"/>
</g>
</svg>
