<svg xmlns="http://www.w3.org/2000/svg" id="Layer_1" data-name="Layer 1" viewBox="0 0 24 24" fill="#950404"><path d="M22.199 10.542A5.51 5.51 0 0 0 24 6.472V1.285c0-.516-.294-.965-.767-1.172a1.262 1.262 0 0 0-1.382.234l-1.163 1.078a5.587 5.587 0 0 0-4.376 0L15.149.347a1.262 1.262 0 0 0-1.382-.234A1.263 1.263 0 0 0 13 1.285v4.972c0 1.169.349 2.27.944 3.188C4.601 12.695 5 22.293 5.005 22.364v.453C3.012 22.361 1 21.061 1 19c0-1.708.79-2.981 1.554-4.213C3.265 13.641 4 12.454 4 11 4 8.57 2.626 7 .5 7a.5.5 0 0 0 0 1C2.756 8 3 10.098 3 11c0 1.169-.601 2.139-1.296 3.26C.906 15.548 0 17.008 0 19c0 3.411 3.913 5 6.558 5H23.5a.5.5 0 0 0 0-1H22V10.714c.067-.056.134-.113.199-.173ZM14 1.285a.27.27 0 0 1 .167-.256.288.288 0 0 1 .117-.025c.056 0 .121.017.185.076l1.411 1.308a.5.5 0 0 0 .568.078 4.525 4.525 0 0 1 4.104 0 .501.501 0 0 0 .568-.078l1.411-1.308a.268.268 0 0 1 .302-.051.27.27 0 0 1 .167.256v5.187a4.511 4.511 0 0 1-1.474 3.331 4.463 4.463 0 0 1-3.47 1.148C15.782 10.734 14 8.672 14 6.257V1.285ZM21 23h-3v-1.5c0-2.775-2.724-5.5-5.5-5.5a.5.5 0 0 0 0 1c2.229 0 4.5 2.271 4.5 4.5V23H6.558c-.18 0-.365-.008-.553-.025v-.638c-.005-.092-.382-9.163 8.597-12.058.878.924 2.052 1.542 3.36 1.667.183.018.365.026.546.026.88 0 1.727-.205 2.493-.598V23ZM19.5 5.971a1 1 0 1 1 2 0 1 1 0 0 1-2 0Zm-4 0a1 1 0 1 1 2 0 1 1 0 0 1-2 0Z"/></svg>