<svg xmlns="http://www.w3.org/2000/svg" id="Layer_1" data-name="Layer 1" viewBox="0 0 24 24" fill="#950404"><path d="M23.818 2.441A1.014 1.014 0 0 0 22.981 2h-1.45c.29-.419.469-.935.469-1.5a.5.5 0 0 0-1 0c0 .827-.577 1.5-1.286 1.5h-6.428C12.577 2 12 1.327 12 .5a.5.5 0 0 0-1 0c0 .565.179 1.081.469 1.5h-1.45c-.335 0-.647.165-.837.441a1.04 1.04 0 0 0-.111.961C9.435 4.343 10.434 5 11.501 5h.084l.368 2H6.501a4.454 4.454 0 0 0-2.862 1.057c-.038.019-3.471 3.071-3.471 3.071a.5.5 0 1 0 .666.746l1.242-1.11a4.48 4.48 0 0 0-.075.738v10c0 1.378 1.121 2.5 2.5 2.5a2.504 2.504 0 0 0 2.297-1.516c2.809-.077 4.475-1.222 5.081-3.484h1.622a.5.5 0 0 1 .5.5v2c0 1.378 1.121 2.5 2.5 2.5s2.5-1.122 2.5-2.5v-5a.5.5 0 0 0-1 0v5c0 .827-.673 1.5-1.5 1.5s-1.5-.673-1.5-1.5v-2c0-.827-.673-1.5-1.5-1.5h-6c-.827 0-1.5.673-1.5 1.5v2c0 .827-.673 1.5-1.5 1.5s-1.5-.673-1.5-1.5v-10c0-.09.02-.174.027-.263a4.487 4.487 0 0 0 2.473.763c2.31 0 4.197-1.756 4.449-4h2.186l.472 2.568c-.374.364-.608.87-.608 1.432 0 1.103.897 2 2 2h5c1.103 0 2-.897 2-2 0-.562-.234-1.068-.608-1.432l1.024-5.568h.084c1.066 0 2.065-.657 2.429-1.597.124-.32.083-.68-.11-.961ZM7.5 19h3.345c-.521 1.591-1.742 2.37-3.845 2.476V19.5a.5.5 0 0 1 .5-.5Zm-2-8a3.487 3.487 0 0 1-2.235-.828A3.501 3.501 0 0 1 6.5 8h2.449c-.245 1.692-1.691 3-3.449 3ZM19 13h-5a1.001 1.001 0 0 1 0-2h5a1.001 1.001 0 0 1 0 2Zm2.5-9H21a.5.5 0 0 0-.492.41l-1.04 5.651A2.007 2.007 0 0 0 19 10h-5c-.162 0-.317.024-.468.061l-1.04-5.651A.501.501 0 0 0 12 4h-.5c-.642 0-1.285-.412-1.481-1l12.978.042c-.211.546-.854.958-1.496.958Zm-8 2a1 1 0 1 1 2 0 1 1 0 0 1-2 0Zm4 0a1 1 0 1 1 2 0 1 1 0 0 1-2 0Z"/></svg>