<svg xmlns="http://www.w3.org/2000/svg" id="Layer_1" data-name="Layer 1" viewBox="0 0 24 24" fill="#950404"><path d="M23.52 7.296c-.936-.959-1.933-1.981-3.651-2.755a4.002 4.002 0 0 0 2.126-2.971.5.5 0 0 0-.99-.142C20.796 2.894 19.504 3.999 18 3.999c-1.654 0-3-1.346-3-3v-.5a.5.5 0 0 0-1 0v.5c0 1.194.526 2.266 1.357 3H13c-1.654 0-3-1.346-3-3v-.5a.5.5 0 0 0-1 0v.5c0 2.206 1.794 4 4 4h2.372C14.023 6.2 14 8.058 14 8.085v1.414a.5.5 0 0 1-.5.5H5.394a3.72 3.72 0 0 0-2.613 1.093c-.071.071-2.66 3.082-2.66 3.082a.5.5 0 1 0 .76.65l.849-.989c.042 1.255.409 2.103.765 2.926.177.408.359.831.506 1.312V21.5c0 1.379 1.121 2.5 2.5 2.5s2.5-1.121 2.5-2.5V19h5v2.5c0 1.379 1.121 2.5 2.5 2.5s2.5-1.121 2.5-2.5v-3.301c.493-.548 2-2.454 2-5.3v-2.016a.5.5 0 0 1 .438-.496l2.1-.263a1.672 1.672 0 0 0 .982-2.828Zm-1.106 1.835-2.1.263a1.501 1.501 0 0 0-1.313 1.488v2.016c0 2.895-1.831 4.725-1.85 4.744a.502.502 0 0 0-.15.357v3.5c0 .827-.673 1.5-1.5 1.5s-1.5-.673-1.5-1.5v-3a.5.5 0 0 0-.5-.5h-6a.5.5 0 0 0-.5.5v3c0 .827-.673 1.5-1.5 1.5s-1.5-.673-1.5-1.5c0 0-.007-3.595-.021-3.641a12.388 12.388 0 0 0-.568-1.495c-.367-.85-.685-1.583-.687-2.761 0-.67.271-1.311.763-1.804a2.718 2.718 0 0 1 1.906-.799H13.5c.827 0 1.5-.673 1.5-1.5V8.085c0-.125.038-3.04 3.289-3.086 2.359.785 3.415 1.867 4.516 2.995a.671.671 0 0 1-.392 1.137Z"/></svg>