<svg xmlns="http://www.w3.org/2000/svg" id="Layer_1" data-name="Layer 1" viewBox="0 0 24 24" fill="#950404"><path d="M22.118 5c-.51 0-.978-.3-1.19-.764C20.583 3.485 19.771 3 18.858 3H18V.941c0-.3-.144-.588-.386-.77a.921.921 0 0 0-.81-.153c-1.046.302-1.805 1.346-1.805 2.481v1.756l-.994 2.754A1.504 1.504 0 0 1 12.594 8l-5.101.003a5.49 5.49 0 0 0-4.243 2.008C2.857 9.778.995 8.513.995 5.499a.5.5 0 1 0-.998.001c0 3.41 2.044 4.94 2.691 5.339a5.472 5.472 0 0 0-.69 2.665L2 21.506c0 1.377 1.122 2.498 2.499 2.498s2.499-1.121 2.499-2.499v-3.506l7.003-.003v3.505a2.503 2.503 0 0 0 5.004 0l-.008-3.411 1.23-6.681a.5.5 0 0 1 .492-.409 3.287 3.287 0 0 0 3.283-3.283V7c0-1.467-1.125-2-1.882-2ZM23 7.717A2.285 2.285 0 0 1 20.717 10a1.5 1.5 0 0 0-1.475 1.229L18.003 18v3.501a1.502 1.502 0 0 1-3.004 0v-4.006a.498.498 0 0 0-.5-.5l-8.003.004a.5.5 0 0 0-.5.5v4.006c0 .826-.672 1.499-1.499 1.499s-1.498-.672-1.499-1.498l-.002-8.002c0-2.48 2.017-4.5 4.498-4.501L12.595 9a2.508 2.508 0 0 0 2.351-1.651l1.023-2.836a.495.495 0 0 0 .03-.17V2.5c0-.689.465-1.342 1-1.559V3.5a.5.5 0 0 0 .5.5h1.358c.515 0 .981.262 1.161.652A2.315 2.315 0 0 0 22.117 6c.147 0 .882.048.882 1v.717Z"/></svg>