<svg xmlns="http://www.w3.org/2000/svg" id="Layer_1" data-name="Layer 1" viewBox="0 0 24 24" fill="#950404"><path d="M5 19a1 1 0 1 1-2 0 1 1 0 0 1 2 0ZM23.785 6.899A1.987 1.987 0 0 1 22 7.999h-5.002c-.015 1.857-.118 3.518-.321 5h1.028c.697 0 1.32.275 1.753.774.433.499.617 1.154.519 1.844a2.787 2.787 0 0 1-2.746 2.382h-1.729a.505.505 0 0 1-.183-.035c-1.838 3.887-5.329 5.598-11.175 6.034a3.854 3.854 0 0 1-3.008-1.124 3.852 3.852 0 0 1-1.124-3.008c.237-3.184.852-5.669 1.989-7.57v-.372c0-3.875 2.858-7.205 6.595-7.883a2.86 2.86 0 0 1 2.337.642 2.99 2.99 0 0 1 1.068 2.293v.229c1.22-.125 2.55-.19 4.001-.203V2c0-.76.421-1.444 1.1-1.785A2.008 2.008 0 0 1 19.208.4c.898.668 1.463 1.545 1.72 2.673 1.128.257 2.004.822 2.673 1.72.458.616.529 1.422.185 2.106ZM3.083 10.833C4.82 8.927 7.374 7.823 11 7.325v-.348c0-.591-.26-1.148-.712-1.529a1.85 1.85 0 0 0-1.526-.421c-2.918.529-5.234 2.902-5.679 5.806Zm6.287 11.19c-.776-3.675-3.717-6.611-7.384-7.387-.515 1.467-.823 3.221-.978 5.305a2.852 2.852 0 0 0 .834 2.226 2.86 2.86 0 0 0 2.226.834c2.083-.155 3.836-.463 5.302-.979Zm6.628-14.021c-7.742.06-11.743 1.538-13.635 5.693 3.914.898 7.05 4.029 7.948 7.951 4.15-1.893 5.627-5.897 5.687-13.643ZM16.519 14a17.337 17.337 0 0 1-.795 3h1.506c.877 0 1.632-.655 1.756-1.523.057-.399-.044-.771-.284-1.047-.24-.277-.594-.429-.998-.429h-1.185Zm6.278-8.609c-.58-.78-1.336-1.224-2.378-1.398a.5.5 0 0 1-.411-.411c-.174-1.042-.618-1.798-1.398-2.378a.993.993 0 0 0-1.061-.094.978.978 0 0 0-.548.891V7H22a.978.978 0 0 0 .891-.548.998.998 0 0 0-.094-1.061Z"/></svg>