<svg xmlns="http://www.w3.org/2000/svg" id="Layer_1" data-name="Layer 1" viewBox="0 0 24 24" fill="#950404"><path d="M19 10a1 1 0 1 1-2 0 1 1 0 0 1 2 0Zm5 1.5v2c0 .827-.673 1.5-1.5 1.5h-.365A7.482 7.482 0 0 1 17 18.85V19c0 1.103-.897 2-2 2s-2-.897-2-2H9c0 1.103-.897 2-2 2s-2-.897-2-2v-.427c-3.226-1.14-5.298-4.367-4.964-7.818a7.114 7.114 0 0 1 .996-2.992C.427 6.93.085 5.843.014 4.527a.5.5 0 1 1 .999-.053c.052.966.267 1.774.639 2.412a7.916 7.916 0 0 1 6.112-2.885h5.857c.335-1.367 1.329-2.515 2.575-2.93.414-.141.862-.07 1.223.19.364.262.581.685.581 1.13v2.038a7.514 7.514 0 0 1 4.858 5.615A1.504 1.504 0 0 1 24 11.501Zm-1 0a.5.5 0 0 0-.5-.5c-.249 0-.531-.183-.566-.429a6.506 6.506 0 0 0-4.576-5.301.5.5 0 0 1-.357-.479v-2.4a.393.393 0 0 0-.165-.319.353.353 0 0 0-.322-.053c-1.023.341-1.82 1.366-1.983 2.55a.5.5 0 0 1-.495.432h-6.27c-3.458 0-6.416 2.57-6.733 5.851-.3 3.102 1.64 5.995 4.611 6.879a.5.5 0 0 1 .357.479v.791c0 .551.449 1 1 1s1-.449 1-1v-.5a.5.5 0 0 1 .5-.5h5a.5.5 0 0 1 .5.5v.5a1.001 1.001 0 0 0 2 0v-.571a.5.5 0 0 1 .43-.495 6.484 6.484 0 0 0 4.945-3.648.498.498 0 0 1 .451-.285h.674a.5.5 0 0 0 .5-.5v-2Z"/></svg>