<svg width="360" height="360" viewBox="0 0 360 360" fill="none" xmlns="http://www.w3.org/2000/svg">
<g opacity="0.6" filter="url(#filter0_f_600_22749)">
<path d="M78.1686 308.468C76.3781 307.676 75.1625 306.502 74.5266 305.194L74 296.895L111.798 295.438L310.488 297.04L310.488 302.97C310.488 305.07 309.131 307.164 306.414 308.362L270.229 324.327L240.681 337.365L207.615 351.955C198.057 356.172 186.282 356.172 176.726 351.955L148.406 339.46L109.594 322.312V322.335L109.57 322.322L80.7924 309.625L78.1686 308.468Z" fill="#D4F2E4"/>
<path d="M78.1686 308.468C76.3781 307.676 75.1625 306.502 74.5266 305.194L74 296.895L111.798 295.438L310.488 297.04L310.488 302.97C310.488 305.07 309.131 307.164 306.414 308.362L270.229 324.327L240.681 337.365L207.615 351.955C198.057 356.172 186.282 356.172 176.726 351.955L148.406 339.46L109.594 322.312V322.335L109.57 322.322L80.7924 309.625L78.1686 308.468Z" fill="url(#paint0_linear_600_22749)" fill-opacity="0.15"/>
<path d="M207.61 246.285L306.907 289.878C309.636 291.075 310.999 293.172 311.001 295.269C311.001 297.368 309.638 299.461 306.909 300.658L270.567 316.612L240.891 329.641L207.681 344.22C198.082 348.435 186.255 348.435 176.658 344.22L148.215 331.734L109.235 314.599V314.621L109.211 314.608L80.3083 301.92L77.6731 300.763C75.8748 299.972 74.654 298.799 74.0153 297.491C73.6637 296.773 73.4863 296.012 73.4863 295.252C73.4831 293.107 74.8781 290.961 77.6698 289.735L176.579 246.289C186.179 242.072 198.007 242.07 207.61 246.285Z" fill="#F0FAF6"/>
</g>
<path d="M32.5151 242.73C30.0238 241.197 28.3324 238.921 27.4476 236.386L26.7148 220.307L79.3079 217.483L355.773 220.589L355.773 232.078C355.773 236.146 353.885 240.205 350.104 242.526L299.755 273.46L258.641 298.72L212.631 326.989C199.332 335.161 182.948 335.161 169.651 326.989L130.246 302.779L76.2415 269.555V269.598L76.208 269.574L36.1661 244.972L32.5151 242.73Z" fill="#D4F2E4"/>
<path d="M32.5151 242.73C30.0238 241.197 28.3324 238.921 27.4476 236.386L26.7148 220.307L79.3079 217.483L355.773 220.589L355.773 232.078C355.773 236.146 353.885 240.205 350.104 242.526L299.755 273.46L258.641 298.72L212.631 326.989C199.332 335.161 182.948 335.161 169.651 326.989L130.246 302.779L76.2415 269.555V269.598L76.208 269.574L36.1661 244.972L32.5151 242.73Z" fill="url(#paint1_linear_600_22749)" fill-opacity="0.15"/>
<path d="M212.624 122.248L350.79 206.713C354.587 209.032 356.483 213.095 356.486 217.158C356.486 221.223 354.59 225.279 350.793 227.598L300.225 258.511L258.932 283.754L212.723 312.003C199.366 320.17 182.911 320.17 169.556 312.003L129.98 287.81L75.7416 254.609V254.652L75.708 254.628L35.4924 230.043L31.8256 227.803C29.3235 226.27 27.6247 223.996 26.7361 221.463C26.2469 220.071 26 218.598 26 217.124C25.9955 212.969 27.9366 208.811 31.8211 206.435L169.446 122.255C182.805 114.084 199.263 114.082 212.624 122.248Z" fill="#F0FAF6"/>
<path d="M272.593 100.736C269.931 99.199 266.602 101.115 266.593 104.189L266.464 149.132C266.46 150.565 267.223 151.891 268.464 152.607L340.399 194.137C343.061 195.674 346.39 193.758 346.399 190.684L346.528 145.741C346.533 144.308 345.77 142.982 344.528 142.265L272.593 100.736ZM269.383 90.2261C268.141 89.5096 267.378 88.1839 267.382 86.7508L267.444 64.1847C267.452 61.1106 270.781 59.1945 273.443 60.7313L321.822 88.6549C323.064 89.3713 323.827 90.697 323.823 92.1301L323.761 114.696C323.753 117.77 320.424 119.686 317.762 118.15L269.383 90.2261ZM210.181 113.493C211.422 114.209 212.186 115.535 212.182 116.968L212.069 157.653C212.061 160.812 208.566 162.715 205.908 161.008L168.76 137.155C167.61 136.417 166.917 135.144 166.921 133.778L167.033 95.5037C167.042 92.4299 170.37 90.5145 173.033 92.051L210.181 113.493Z" fill="url(#paint2_linear_600_22749)" fill-opacity="0.15"/>
<path d="M200.505 9.42341C200.228 9.31941 199.968 9.21542 199.69 9.14608C199.517 9.09409 199.344 9.04209 199.188 9.00742C199.032 8.97276 198.876 8.93809 198.72 8.90342C198.512 8.86876 198.304 8.83409 198.113 8.81676C197.992 8.79943 197.888 8.78209 197.766 8.78209C197.524 8.76476 197.264 8.76476 197.038 8.76476C196.986 8.76476 196.917 8.76476 196.865 8.76476C196.571 8.78209 196.293 8.81676 196.016 8.86876C195.947 8.88609 195.877 8.90342 195.808 8.92076C195.6 8.97276 195.375 9.02476 195.184 9.09409C195.115 9.11142 195.045 9.14608 194.993 9.16342C194.733 9.26742 194.473 9.38875 194.248 9.52741L201.493 5.31552C201.51 5.29818 201.528 5.29818 201.562 5.28085C201.753 5.17685 201.944 5.09019 202.134 5.00353C202.169 4.98619 202.204 4.98619 202.256 4.96886C202.325 4.95153 202.377 4.91686 202.446 4.89953C202.55 4.86486 202.637 4.8302 202.741 4.79553C202.845 4.76087 202.966 4.74353 203.07 4.7262C203.14 4.70887 203.209 4.69153 203.278 4.6742C203.313 4.6742 203.348 4.65687 203.382 4.65687C203.608 4.6222 203.833 4.58754 204.076 4.5702C204.093 4.5702 204.11 4.5702 204.128 4.5702C204.18 4.5702 204.249 4.5702 204.301 4.5702C204.474 4.5702 204.665 4.55287 204.838 4.5702C204.908 4.5702 204.96 4.58754 205.029 4.58754C205.15 4.58754 205.254 4.60487 205.376 4.6222C205.48 4.63954 205.584 4.63954 205.688 4.65687C205.774 4.6742 205.878 4.70887 205.982 4.7262C206.138 4.76087 206.294 4.79553 206.45 4.8302C206.537 4.84753 206.624 4.86486 206.71 4.8822C206.797 4.89953 206.884 4.95153 206.97 4.96886C207.23 5.05552 207.508 5.14219 207.785 5.24619C207.889 5.28085 207.976 5.29818 208.062 5.35018C208.114 5.36752 208.166 5.40218 208.236 5.43685C208.704 5.64484 209.189 5.87017 209.674 6.1475L272.783 42.5639C273.39 42.9105 273.997 43.3265 274.586 43.7772C274.69 43.8465 274.776 43.9159 274.88 44.0025C275.435 44.4358 275.972 44.9212 276.492 45.4238C276.544 45.4585 276.579 45.4931 276.631 45.5451C276.718 45.6318 276.787 45.7185 276.874 45.8051C277.134 46.0651 277.394 46.3425 277.636 46.6198C277.723 46.7064 277.81 46.7931 277.879 46.8798C277.948 46.9491 278 47.0358 278.07 47.1051C278.226 47.2784 278.364 47.4691 278.52 47.6424C278.624 47.7638 278.728 47.8851 278.815 48.0064C278.884 48.1104 278.971 48.2144 279.04 48.3184C279.144 48.4571 279.248 48.5957 279.352 48.7517C279.422 48.8557 279.508 48.9424 279.578 49.0464C279.699 49.2197 279.803 49.393 279.924 49.5664C279.994 49.6704 280.08 49.7917 280.15 49.8957C280.184 49.9477 280.219 49.9824 280.236 50.0344C280.444 50.3463 280.635 50.6757 280.826 51.005C280.843 51.0223 280.843 51.057 280.86 51.0743C280.895 51.1437 280.93 51.213 280.964 51.265C281.103 51.4903 281.224 51.733 281.363 51.9756C281.415 52.0796 281.467 52.201 281.536 52.305C281.588 52.4263 281.658 52.5303 281.71 52.6516C281.762 52.7556 281.814 52.8423 281.866 52.9463C282.004 53.2236 282.126 53.5009 282.247 53.7783C282.264 53.8303 282.282 53.8649 282.316 53.9169C282.316 53.9343 282.334 53.9343 282.334 53.9516C282.49 54.2982 282.628 54.6449 282.75 54.9742C282.767 55.0436 282.802 55.1129 282.819 55.1649C282.871 55.2862 282.906 55.4249 282.958 55.5462C283.027 55.7195 283.079 55.8929 283.148 56.0489C283.2 56.1875 283.235 56.3262 283.27 56.4649C283.322 56.6208 283.374 56.7768 283.408 56.9328C283.443 57.0368 283.478 57.1235 283.495 57.2275C283.547 57.4008 283.582 57.5915 283.634 57.7648C283.686 57.9555 283.738 58.1461 283.772 58.3541C283.79 58.4235 283.807 58.4928 283.824 58.5621C283.859 58.7008 283.876 58.8395 283.894 58.9955C283.946 59.3074 284.015 59.6021 284.05 59.9141C284.067 60.0008 284.084 60.0874 284.084 60.1741C284.102 60.2608 284.084 60.3301 284.102 60.3994C284.188 61.0754 284.24 61.7687 284.24 62.4274L283.79 220.919C283.772 224.542 282.507 227.09 280.444 228.286L273.199 232.498C275.262 231.302 276.544 228.754 276.544 225.131L276.995 66.6393C276.995 65.9806 276.943 65.3046 276.856 64.6113C276.839 64.4553 276.822 64.282 276.804 64.126C276.752 63.814 276.7 63.5193 276.648 63.2073C276.614 62.9994 276.579 62.7914 276.527 62.5834C276.492 62.3927 276.44 62.202 276.388 61.994C276.319 61.7167 276.25 61.4394 276.163 61.1621C276.111 61.0061 276.076 60.8501 276.024 60.6941C275.92 60.3821 275.816 60.0701 275.712 59.7754C275.66 59.6541 275.626 59.5328 275.574 59.3941C275.418 58.9781 275.244 58.5448 275.071 58.1288C275.054 58.0768 275.036 58.0421 275.002 57.9902C274.828 57.6088 274.655 57.2448 274.464 56.8635C274.412 56.7422 274.343 56.6382 274.291 56.5169C274.118 56.1702 273.927 55.8235 273.737 55.4942C273.702 55.4249 273.667 55.3556 273.615 55.2862C273.39 54.8876 273.147 54.4889 272.887 54.1076C272.818 54.0036 272.731 53.8823 272.662 53.7783C272.471 53.5009 272.281 53.2236 272.09 52.9636C271.986 52.825 271.882 52.6863 271.778 52.5303C271.605 52.305 271.431 52.0796 271.258 51.8543C271.119 51.681 270.963 51.4903 270.807 51.317C270.669 51.1437 270.513 50.9877 270.374 50.8143C270.131 50.537 269.871 50.2597 269.611 49.9997C269.49 49.8784 269.351 49.7397 269.23 49.6184C268.71 49.1157 268.173 48.6304 267.618 48.1971C267.514 48.1277 267.427 48.0411 267.323 47.9717C266.734 47.5211 266.145 47.1051 265.521 46.7584L202.394 10.3074C201.909 10.0301 201.424 9.7874 200.956 9.59674C200.8 9.52741 200.661 9.47541 200.505 9.42341Z" fill="#D4F2E4"/>
<path d="M200.505 9.42341C200.228 9.31941 199.968 9.21542 199.69 9.14608C199.517 9.09409 199.344 9.04209 199.188 9.00742C199.032 8.97276 198.876 8.93809 198.72 8.90342C198.512 8.86876 198.304 8.83409 198.113 8.81676C197.992 8.79943 197.888 8.78209 197.766 8.78209C197.524 8.76476 197.264 8.76476 197.038 8.76476C196.986 8.76476 196.917 8.76476 196.865 8.76476C196.571 8.78209 196.293 8.81676 196.016 8.86876C195.947 8.88609 195.877 8.90342 195.808 8.92076C195.6 8.97276 195.375 9.02476 195.184 9.09409C195.115 9.11142 195.045 9.14608 194.993 9.16342C194.733 9.26742 194.473 9.38875 194.248 9.52741L201.493 5.31552C201.51 5.29818 201.528 5.29818 201.562 5.28085C201.753 5.17685 201.944 5.09019 202.134 5.00353C202.169 4.98619 202.204 4.98619 202.256 4.96886C202.325 4.95153 202.377 4.91686 202.446 4.89953C202.55 4.86486 202.637 4.8302 202.741 4.79553C202.845 4.76087 202.966 4.74353 203.07 4.7262C203.14 4.70887 203.209 4.69153 203.278 4.6742C203.313 4.6742 203.348 4.65687 203.382 4.65687C203.608 4.6222 203.833 4.58754 204.076 4.5702C204.093 4.5702 204.11 4.5702 204.128 4.5702C204.18 4.5702 204.249 4.5702 204.301 4.5702C204.474 4.5702 204.665 4.55287 204.838 4.5702C204.908 4.5702 204.96 4.58754 205.029 4.58754C205.15 4.58754 205.254 4.60487 205.376 4.6222C205.48 4.63954 205.584 4.63954 205.688 4.65687C205.774 4.6742 205.878 4.70887 205.982 4.7262C206.138 4.76087 206.294 4.79553 206.45 4.8302C206.537 4.84753 206.624 4.86486 206.71 4.8822C206.797 4.89953 206.884 4.95153 206.97 4.96886C207.23 5.05552 207.508 5.14219 207.785 5.24619C207.889 5.28085 207.976 5.29818 208.062 5.35018C208.114 5.36752 208.166 5.40218 208.236 5.43685C208.704 5.64484 209.189 5.87017 209.674 6.1475L272.783 42.5639C273.39 42.9105 273.997 43.3265 274.586 43.7772C274.69 43.8465 274.776 43.9159 274.88 44.0025C275.435 44.4358 275.972 44.9212 276.492 45.4238C276.544 45.4585 276.579 45.4931 276.631 45.5451C276.718 45.6318 276.787 45.7185 276.874 45.8051C277.134 46.0651 277.394 46.3425 277.636 46.6198C277.723 46.7064 277.81 46.7931 277.879 46.8798C277.948 46.9491 278 47.0358 278.07 47.1051C278.226 47.2784 278.364 47.4691 278.52 47.6424C278.624 47.7638 278.728 47.8851 278.815 48.0064C278.884 48.1104 278.971 48.2144 279.04 48.3184C279.144 48.4571 279.248 48.5957 279.352 48.7517C279.422 48.8557 279.508 48.9424 279.578 49.0464C279.699 49.2197 279.803 49.393 279.924 49.5664C279.994 49.6704 280.08 49.7917 280.15 49.8957C280.184 49.9477 280.219 49.9824 280.236 50.0344C280.444 50.3463 280.635 50.6757 280.826 51.005C280.843 51.0223 280.843 51.057 280.86 51.0743C280.895 51.1437 280.93 51.213 280.964 51.265C281.103 51.4903 281.224 51.733 281.363 51.9756C281.415 52.0796 281.467 52.201 281.536 52.305C281.588 52.4263 281.658 52.5303 281.71 52.6516C281.762 52.7556 281.814 52.8423 281.866 52.9463C282.004 53.2236 282.126 53.5009 282.247 53.7783C282.264 53.8303 282.282 53.8649 282.316 53.9169C282.316 53.9343 282.334 53.9343 282.334 53.9516C282.49 54.2982 282.628 54.6449 282.75 54.9742C282.767 55.0436 282.802 55.1129 282.819 55.1649C282.871 55.2862 282.906 55.4249 282.958 55.5462C283.027 55.7195 283.079 55.8929 283.148 56.0489C283.2 56.1875 283.235 56.3262 283.27 56.4649C283.322 56.6208 283.374 56.7768 283.408 56.9328C283.443 57.0368 283.478 57.1235 283.495 57.2275C283.547 57.4008 283.582 57.5915 283.634 57.7648C283.686 57.9555 283.738 58.1461 283.772 58.3541C283.79 58.4235 283.807 58.4928 283.824 58.5621C283.859 58.7008 283.876 58.8395 283.894 58.9955C283.946 59.3074 284.015 59.6021 284.05 59.9141C284.067 60.0008 284.084 60.0874 284.084 60.1741C284.102 60.2608 284.084 60.3301 284.102 60.3994C284.188 61.0754 284.24 61.7687 284.24 62.4274L283.79 220.919C283.772 224.542 282.507 227.09 280.444 228.286L273.199 232.498C275.262 231.302 276.544 228.754 276.544 225.131L276.995 66.6393C276.995 65.9806 276.943 65.3046 276.856 64.6113C276.839 64.4553 276.822 64.282 276.804 64.126C276.752 63.814 276.7 63.5193 276.648 63.2073C276.614 62.9994 276.579 62.7914 276.527 62.5834C276.492 62.3927 276.44 62.202 276.388 61.994C276.319 61.7167 276.25 61.4394 276.163 61.1621C276.111 61.0061 276.076 60.8501 276.024 60.6941C275.92 60.3821 275.816 60.0701 275.712 59.7754C275.66 59.6541 275.626 59.5328 275.574 59.3941C275.418 58.9781 275.244 58.5448 275.071 58.1288C275.054 58.0768 275.036 58.0421 275.002 57.9902C274.828 57.6088 274.655 57.2448 274.464 56.8635C274.412 56.7422 274.343 56.6382 274.291 56.5169C274.118 56.1702 273.927 55.8235 273.737 55.4942C273.702 55.4249 273.667 55.3556 273.615 55.2862C273.39 54.8876 273.147 54.4889 272.887 54.1076C272.818 54.0036 272.731 53.8823 272.662 53.7783C272.471 53.5009 272.281 53.2236 272.09 52.9636C271.986 52.825 271.882 52.6863 271.778 52.5303C271.605 52.305 271.431 52.0796 271.258 51.8543C271.119 51.681 270.963 51.4903 270.807 51.317C270.669 51.1437 270.513 50.9877 270.374 50.8143C270.131 50.537 269.871 50.2597 269.611 49.9997C269.49 49.8784 269.351 49.7397 269.23 49.6184C268.71 49.1157 268.173 48.6304 267.618 48.1971C267.514 48.1277 267.427 48.0411 267.323 47.9717C266.734 47.5211 266.145 47.1051 265.521 46.7584L202.394 10.3074C201.909 10.0301 201.424 9.7874 200.956 9.59674C200.8 9.52741 200.661 9.47541 200.505 9.42341Z" fill="url(#paint3_linear_600_22749)" fill-opacity="0.7"/>
<path d="M202.394 10.3081C196.05 6.65091 190.885 9.58017 190.867 16.8946L190.417 175.387C190.399 182.684 195.512 191.558 201.874 195.215L265.017 231.666C271.378 235.341 276.526 232.394 276.561 225.115L277.012 66.6227C277.029 59.3082 271.916 50.4338 265.555 46.7765L202.394 10.3081Z" fill="#F9FCFF"/>
<path d="M202.394 10.3081C196.05 6.65091 190.885 9.58017 190.867 16.8946L190.417 175.387C190.399 182.684 195.512 191.558 201.874 195.215L265.017 231.666C271.378 235.341 276.526 232.394 276.561 225.115L277.012 66.6227C277.029 59.3082 271.916 50.4338 265.555 46.7765L202.394 10.3081Z" fill="url(#paint4_linear_600_22749)" fill-opacity="0.1"/>
<path d="M202.394 14.0862C197.87 11.469 194.178 13.5836 194.161 18.7835L193.71 177.275C193.693 182.475 197.368 188.836 201.891 191.454L265.035 227.905C269.576 230.522 273.268 228.425 273.286 223.225L273.736 64.7329C273.754 59.5157 270.079 53.1546 265.538 50.5373L245.258 38.8203C242.502 37.2256 239.85 37.0523 237.979 38.3176C237.233 38.8376 236.159 38.7683 235.032 38.1269L232.883 36.879C231.773 36.2377 230.699 35.059 229.936 33.6724C228.099 30.2752 225.447 27.3806 222.691 25.7859L202.394 14.0862Z" fill="url(#paint5_linear_600_22749)"/>
<path d="M202.394 14.0862C197.87 11.469 194.178 13.5836 194.161 18.7835L193.71 177.275C193.693 182.475 197.368 188.836 201.891 191.454L265.035 227.905C269.576 230.522 273.268 228.425 273.286 223.225L273.736 64.7329C273.754 59.5157 270.079 53.1546 265.538 50.5373L245.258 38.8203C242.502 37.2256 239.85 37.0523 237.979 38.3176C237.233 38.8376 236.159 38.7683 235.032 38.1269L232.883 36.879C231.773 36.2377 230.699 35.059 229.936 33.6724C228.099 30.2752 225.447 27.3806 222.691 25.7859L202.394 14.0862Z" fill="white"/>
<path d="M211.789 121.852L254.438 146.441C259.75 149.468 264 156.883 264 162.935L263.848 164.685C263.848 170.738 259.522 173.159 254.21 170.133L211.561 145.543C206.249 142.517 201.999 135.102 201.999 129.049L202.152 127.299C202.228 121.322 206.553 118.825 211.789 121.852Z" fill="#F9FCFF"/>
<path d="M211.789 121.852L254.438 146.441C259.75 149.468 264 156.883 264 162.935L263.848 164.685C263.848 170.738 259.522 173.159 254.21 170.133L211.561 145.543C206.249 142.517 201.999 135.102 201.999 129.049L202.152 127.299C202.228 121.322 206.553 118.825 211.789 121.852Z" fill="url(#paint6_linear_600_22749)" fill-opacity="0.15"/>
<path d="M211.789 150.852L254.438 175.441C259.75 178.468 264 185.883 264 191.935L263.848 193.685C263.848 199.738 259.522 202.159 254.21 199.133L211.561 174.543C206.249 171.517 201.999 164.102 201.999 158.049L202.152 156.299C202.228 150.322 206.553 147.825 211.789 150.852Z" fill="#F9FCFF"/>
<path d="M211.789 150.852L254.438 175.441C259.75 178.468 264 185.883 264 191.935L263.848 193.685C263.848 199.738 259.522 202.159 254.21 199.133L211.561 174.543C206.249 171.517 201.999 164.102 201.999 158.049L202.152 156.299C202.228 150.322 206.553 147.825 211.789 150.852Z" fill="url(#paint7_linear_600_22749)" fill-opacity="0.15"/>
<path d="M220.977 77.6111C223.941 79.327 226.35 77.9404 226.367 74.5432C226.385 71.1459 223.975 66.986 221.011 65.2874C218.048 63.5714 215.638 64.9581 215.621 68.3553C215.604 71.7526 218.013 75.8951 220.977 77.6111ZM200.403 65.7207C203.367 67.4367 205.776 66.0501 205.793 62.6528C205.811 59.2556 203.401 55.0957 200.437 53.397C197.473 51.6811 195.081 53.0677 195.064 56.465C195.064 59.8795 197.439 64.0221 200.403 65.7207ZM179.846 53.865C182.81 55.581 185.219 54.1944 185.236 50.7971C185.254 47.3999 182.844 43.24 179.881 41.5414C176.917 39.8254 174.507 41.212 174.49 44.6093C174.49 48.0065 176.882 52.1491 179.846 53.865ZM175.045 17.1193L229.713 48.6825C237.963 53.449 244.619 64.9754 244.602 74.4565L244.532 96.5386C244.498 106.02 237.807 109.85 229.557 105.101L229.522 118.153L218.204 98.5492L174.889 73.5379C166.656 68.7886 159.982 57.2276 160 47.7465L160.069 25.6644C160.086 16.1833 166.794 12.3701 175.045 17.1193Z" fill="#F9FCFF"/>
<path d="M220.977 77.6111C223.941 79.327 226.35 77.9404 226.367 74.5432C226.385 71.1459 223.975 66.986 221.011 65.2874C218.048 63.5714 215.638 64.9581 215.621 68.3553C215.604 71.7526 218.013 75.8951 220.977 77.6111ZM200.403 65.7207C203.367 67.4367 205.776 66.0501 205.793 62.6528C205.811 59.2556 203.401 55.0957 200.437 53.397C197.473 51.6811 195.081 53.0677 195.064 56.465C195.064 59.8795 197.439 64.0221 200.403 65.7207ZM179.846 53.865C182.81 55.581 185.219 54.1944 185.236 50.7971C185.254 47.3999 182.844 43.24 179.881 41.5414C176.917 39.8254 174.507 41.212 174.49 44.6093C174.49 48.0065 176.882 52.1491 179.846 53.865ZM175.045 17.1193L229.713 48.6825C237.963 53.449 244.619 64.9754 244.602 74.4565L244.532 96.5386C244.498 106.02 237.807 109.85 229.557 105.101L229.522 118.153L218.204 98.5492L174.889 73.5379C166.656 68.7886 159.982 57.2276 160 47.7465L160.069 25.6644C160.086 16.1833 166.794 12.3701 175.045 17.1193Z" fill="url(#paint8_linear_600_22749)" fill-opacity="0.15"/>
<path fill-rule="evenodd" clip-rule="evenodd" d="M138.172 150.998C138.404 151.529 138.231 154.078 138.111 155.116C137.989 156.153 138.522 156.834 138.2 157.201C137.878 157.567 136.74 157.821 136.414 155.463C136.092 153.103 135.955 151.75 135.417 150.469C134.882 149.189 133.986 146.657 134.519 145.92C135.051 145.186 136.341 145.736 136.341 145.736C136.341 145.736 137.938 150.466 138.172 150.998Z" fill="white"/>
<ellipse rx="11.0721" ry="4.2443" transform="matrix(-0.965926 0.258819 0.258819 0.965926 162.718 240.313)" fill="#BFBFBF"/>
<ellipse rx="11.0721" ry="4.2443" transform="matrix(-0.965926 0.258819 0.258819 0.965926 147.974 234.306)" fill="#BFBFBF"/>
<path fill-rule="evenodd" clip-rule="evenodd" d="M140.886 149.69C140.886 149.69 136.411 152.934 136.908 160.163C137.048 162.177 140.023 198.168 140.023 198.168C140.023 198.168 136.719 237.885 137.821 238.621C138.91 239.35 140.278 239.426 141.586 238.946C143.396 238.281 145.177 237.061 146.187 236.048C147.058 235.174 151.002 214.743 153.114 198.411C155.943 176.541 157.621 155.51 157.621 155.51L140.886 149.69Z" fill="#0F0C17"/>
<mask id="mask0_600_22749" style="mask-type:alpha" maskUnits="userSpaceOnUse" x="136" y="149" width="22" height="91">
<path fill-rule="evenodd" clip-rule="evenodd" d="M140.886 149.69C140.886 149.69 136.411 152.934 136.908 160.163C137.048 162.177 140.023 198.168 140.023 198.168C140.023 198.168 136.719 237.885 137.821 238.621C138.91 239.35 140.278 239.426 141.586 238.946C143.396 238.281 145.177 237.061 146.187 236.048C147.058 235.174 151.002 214.743 153.114 198.411C155.943 176.541 157.621 155.51 157.621 155.51L140.886 149.69Z" fill="white"/>
</mask>
<g mask="url(#mask0_600_22749)">
</g>
<path fill-rule="evenodd" clip-rule="evenodd" d="M143.83 155.697C143.83 155.697 140.32 161.22 142.495 169.23C144.668 177.237 153.784 207.943 153.784 207.943C153.784 207.943 153.34 240.148 153.34 243.991C153.34 245.152 155.938 245.694 158.676 244.837C162.103 243.762 162.049 242.863 162.235 241.348C162.395 240.021 166.126 211.644 165.791 204.244C165.354 194.504 163.419 164.955 163.419 164.955L143.83 155.697Z" fill="#0F0C17"/>
<mask id="mask1_600_22749" style="mask-type:alpha" maskUnits="userSpaceOnUse" x="141" y="155" width="25" height="91">
<path fill-rule="evenodd" clip-rule="evenodd" d="M143.83 155.697C143.83 155.697 140.32 161.22 142.495 169.23C144.668 177.237 153.784 207.943 153.784 207.943C153.784 207.943 153.34 240.148 153.34 243.991C153.34 245.152 155.938 245.694 158.676 244.837C162.103 243.762 162.049 242.863 162.235 241.348C162.395 240.021 166.126 211.644 165.791 204.244C165.354 194.504 163.419 164.955 163.419 164.955L143.83 155.697Z" fill="white"/>
</mask>
<g mask="url(#mask1_600_22749)">
</g>
<path fill-rule="evenodd" clip-rule="evenodd" d="M135.952 144.731C135.952 144.731 138.176 150.447 137.68 153.106C137.184 155.765 134.563 160.575 133.383 160.909C132.33 161.203 131.125 158.964 130.862 156.929C130.579 154.74 130.329 153.996 130.225 152.364C130.12 150.731 130.863 149.085 130.564 146.081C130.434 144.765 135.952 144.731 135.952 144.731Z" fill="#F4F4F4"/>
<path fill-rule="evenodd" clip-rule="evenodd" d="M140.811 100.711C136.43 102.253 132.693 116.702 130.405 121.23C128.12 125.762 128.765 146.983 128.765 146.983C128.765 146.983 131.578 148.157 133.63 148.374C135.683 148.589 136.525 147.493 136.525 147.493C136.525 147.493 137.891 133.233 140.029 129.267C142.169 125.302 139.743 118.314 144.115 115.199C148.912 111.782 148.81 110.546 147.794 106.235C146.74 101.773 145.19 99.1688 140.811 100.711Z" fill="#9FB8ED"/>
<path fill-rule="evenodd" clip-rule="evenodd" d="M161.616 167.536C159.953 167.653 158.385 167.706 156.912 167.706C155.193 167.706 153.601 167.634 152.12 167.512C163.923 166.63 164.059 163.628 164.059 163.628C164.059 163.628 165.624 135.528 163.142 119.334L172.975 119.787C173.012 120.046 173.046 120.322 173.081 120.59C173.324 137.085 173.822 163.628 173.822 163.628C173.822 163.628 173.324 137.043 173.081 120.55C173.025 116.668 172.718 114.244 172.093 112.543C171.822 111.804 171.491 111.2 171.094 110.672C170.593 110.002 169.987 109.454 169.266 108.9C167.913 107.861 164.901 105.826 161.815 103.932C160.263 102.981 158.692 102.067 157.307 101.333C154.48 99.8359 149.985 98.3574 146.692 98.3574C146.07 98.3574 145.495 98.4104 144.979 98.5243C141.199 99.3642 137.411 100.599 137.045 109.756C136.844 114.814 136.857 137.12 136.889 151.178C136.894 152.961 136.897 154.609 136.902 156.077C136.913 160.229 136.923 162.897 136.923 162.897C136.923 162.897 137.463 163.445 137.728 163.628C138.92 164.455 142.499 166.386 150.144 167.322C152.117 167.565 154.332 167.711 156.806 167.711C158.313 167.711 159.916 167.656 161.616 167.536ZM161.616 167.536C162.254 167.491 162.855 167.441 163.428 167.382C169.205 166.813 171.772 165.7 172.911 164.831C173.072 164.712 173.202 164.595 173.311 164.484C172.349 165.454 169.584 166.972 161.616 167.536Z" fill="#99B1E3"/>
<path fill-rule="evenodd" clip-rule="evenodd" d="M171.686 161.374C171.686 161.374 173.551 165.998 175.046 168.371C175.845 169.643 176.483 170.411 179.016 171.459C180.195 171.945 181.122 172.179 181.531 171.623C181.719 171.37 180.966 171.177 180.966 171.177C180.966 171.177 182.401 171.69 182.974 171.068C183.55 170.444 182.466 170.332 182.466 170.332C182.466 170.332 184.049 170.886 184.581 170.233C185.114 169.58 183.965 169.467 183.965 169.467C183.965 169.467 185.333 169.908 185.858 169.443C186.384 168.981 186.068 168.683 185.221 168.212C184.233 167.656 181.964 166.313 180.883 164.542C179.731 162.66 179.92 160.807 178.282 160.023C176.646 159.239 175.681 157.099 175.681 157.099L171.686 161.374Z" fill="white"/>
<path fill-rule="evenodd" clip-rule="evenodd" d="M178.023 159.96C180.082 160.828 181.646 161.473 182.953 161.84C184.347 162.231 185.702 162.781 185.45 163.476C184.963 164.834 179.145 163.027 179.145 163.027L178.023 159.96Z" fill="white"/>
<path fill-rule="evenodd" clip-rule="evenodd" d="M171.472 115.336C167.824 112.559 162.955 113.79 160.552 117.762C158.146 121.735 155.077 138.068 156.186 143.019C157.298 147.971 171.272 163.954 171.272 163.954C171.272 163.954 174.191 163.075 175.914 161.939C177.636 160.802 177.591 159.42 177.591 159.42C177.591 159.42 169.591 147.537 168.724 143.116C167.859 138.694 170.906 132.038 172.304 126.856C173.84 121.169 174.994 118.021 171.472 115.336Z" fill="#9FB8ED"/>
<path fill-rule="evenodd" clip-rule="evenodd" d="M148.962 101.595C148.716 101.987 148.822 102.496 149.02 102.912C149.404 103.712 151.388 105.606 154.347 106.11C157.324 106.616 159.009 106.123 159.846 105.765C160.281 105.58 160.604 105.214 160.749 104.761L162.042 100.803C162.042 100.803 165.17 101.523 166.312 100.49C167.456 99.4567 173.165 84.9347 169.305 80.4199C165.443 75.9051 155.436 75.3063 152.718 81.8877C149.998 88.4691 152.461 92.6845 152.461 94.3166C152.461 95.6546 149.953 100.005 148.962 101.595Z" fill="white"/>
<path fill-rule="evenodd" clip-rule="evenodd" d="M157.208 97.1018C160.048 96.7865 160.993 90.4966 163.049 89.3679C164.27 88.6949 165.033 89.8368 164.744 90.9443C164.509 91.8531 165.508 91.4925 165.834 91.6568C166.162 91.8184 167.944 87.7093 167.944 87.7093C167.944 87.7093 171.789 83.6332 173.822 80.3277C177.176 74.8758 154.835 70.6861 152.04 80.3277C149.232 90.009 150.652 94.7252 152.228 95.4882C152.228 95.4882 155.619 97.2793 157.208 97.1018Z" fill="#0F0C17"/>
<path d="M73.1189 106.359V118.664C73.1189 124.003 72.6256 128.894 71.6389 133.337C70.6522 137.748 69.2285 141.727 67.3679 145.275C65.5355 148.775 63.3507 151.843 60.8136 154.479C58.2764 157.116 55.4573 159.33 52.3563 161.12C49.8755 162.552 47.5638 163.529 45.4213 164.05C43.2788 164.538 41.3477 164.497 39.6281 163.928C37.9366 163.342 36.4707 162.219 35.2303 160.559C34.0181 158.85 33.0878 156.522 32.4394 153.576C31.791 150.63 31.4668 147.009 31.4668 142.712L31.4668 130.407C31.4668 125.069 31.9601 120.21 32.9468 115.832C33.9617 111.405 35.3853 107.442 37.2177 103.942C39.0783 100.427 41.2772 97.3669 43.8144 94.7627C46.3516 92.126 49.1707 89.9124 52.2717 88.1221C54.7525 86.6898 57.0501 85.7376 59.1644 85.2656C61.3069 84.7448 63.238 84.7529 64.9576 85.29C66.6773 85.8271 68.1432 86.9502 69.3554 88.6592C70.5676 90.3356 71.4979 92.6468 72.1463 95.5928C72.7947 98.5062 73.1189 102.095 73.1189 106.359ZM60.8981 127.575V111.511C60.8981 108.939 60.7713 106.766 60.5176 104.992C60.292 103.202 59.9396 101.778 59.4604 100.72C58.9811 99.6292 58.3891 98.8643 57.6844 98.4248C56.9796 97.9854 56.1761 97.8307 55.274 97.9609C54.3719 98.0911 53.3712 98.4736 52.2717 99.1084C50.8903 99.9059 49.664 100.923 48.5928 102.16C47.5497 103.381 46.6617 104.886 45.9287 106.677C45.1958 108.435 44.632 110.55 44.2373 113.024C43.8708 115.45 43.6876 118.257 43.6876 121.447L43.6876 137.512C43.6876 140.083 43.8003 142.281 44.0259 144.104C44.2796 145.91 44.6461 147.375 45.1253 148.498C45.6327 149.572 46.2247 150.354 46.9013 150.842C47.6061 151.281 48.4095 151.436 49.3117 151.306C50.242 151.159 51.2568 150.769 52.3563 150.134C53.7094 149.353 54.9076 148.352 55.9506 147.131C57.0219 145.861 57.924 144.331 58.6569 142.541C59.4181 140.702 59.9819 138.553 60.3484 136.096C60.7149 133.638 60.8981 130.798 60.8981 127.575Z" fill="url(#paint9_linear_600_22749)" fill-opacity="0.15"/>
<path d="M111.092 54.9922V126.232L98.9136 133.264V78.2344L84.2825 92.0527V80.9688L109.781 55.749L111.092 54.9922Z" fill="url(#paint10_linear_600_22749)" fill-opacity="0.15"/>
<defs>
<filter id="filter0_f_600_22749" x="33.4863" y="203.125" width="317.514" height="191.993" filterUnits="userSpaceOnUse" color-interpolation-filters="sRGB">
<feFlood flood-opacity="0" result="BackgroundImageFix"/>
<feBlend mode="normal" in="SourceGraphic" in2="BackgroundImageFix" result="shape"/>
<feGaussianBlur stdDeviation="20" result="effect1_foregroundBlur_600_22749"/>
</filter>
<linearGradient id="paint0_linear_600_22749" x1="192.446" y1="210.211" x2="192.446" y2="328.359" gradientUnits="userSpaceOnUse">
<stop stop-color="#245795"/>
<stop offset="1" stop-color="#8AD3A8"/>
</linearGradient>
<linearGradient id="paint1_linear_600_22749" x1="191.525" y1="52.3525" x2="191.525" y2="281.271" gradientUnits="userSpaceOnUse">
<stop stop-color="#245795"/>
<stop offset="1" stop-color="#8AD3A8"/>
</linearGradient>
<linearGradient id="paint2_linear_600_22749" x1="256.571" y1="-143.089" x2="256.571" y2="134.679" gradientUnits="userSpaceOnUse">
<stop stop-color="#245795"/>
<stop offset="1" stop-color="#8AD3A8"/>
</linearGradient>
<linearGradient id="paint3_linear_600_22749" x1="323.5" y1="424.063" x2="219" y2="-70.9375" gradientUnits="userSpaceOnUse">
<stop stop-color="#245795"/>
<stop offset="1" stop-color="#8AD3A8"/>
</linearGradient>
<linearGradient id="paint4_linear_600_22749" x1="233.64" y1="-311.882" x2="233.64" y2="132.584" gradientUnits="userSpaceOnUse">
<stop stop-color="#245795"/>
<stop offset="1" stop-color="#8AD3A8"/>
</linearGradient>
<linearGradient id="paint5_linear_600_22749" x1="131.439" y1="-47.1564" x2="259.403" y2="163.225" gradientUnits="userSpaceOnUse">
<stop stop-color="white"/>
<stop offset="0.2663" stop-color="#FCFBFF"/>
<stop offset="0.5586" stop-color="#F4EDFD"/>
<stop offset="0.8622" stop-color="#E7D7FB"/>
<stop offset="1" stop-color="#DFCBFA"/>
</linearGradient>
<linearGradient id="paint6_linear_600_22749" x1="232.947" y1="-66.5122" x2="232.947" y2="127.496" gradientUnits="userSpaceOnUse">
<stop stop-color="#245795"/>
<stop offset="1" stop-color="#8AD3A8"/>
</linearGradient>
<linearGradient id="paint7_linear_600_22749" x1="232.947" y1="-37.5122" x2="232.947" y2="156.496" gradientUnits="userSpaceOnUse">
<stop stop-color="#245795"/>
<stop offset="1" stop-color="#8AD3A8"/>
</linearGradient>
<linearGradient id="paint8_linear_600_22749" x1="202.228" y1="-132.119" x2="202.228" y2="71.9373" gradientUnits="userSpaceOnUse">
<stop stop-color="#245795"/>
<stop offset="1" stop-color="#8AD3A8"/>
</linearGradient>
<linearGradient id="paint9_linear_600_22749" x1="-99.1609" y1="88.5815" x2="46.7169" y2="333.831" gradientUnits="userSpaceOnUse">
<stop stop-color="#245795"/>
<stop offset="1" stop-color="#8AD3A8"/>
</linearGradient>
<linearGradient id="paint10_linear_600_22749" x1="-99.1609" y1="88.5815" x2="46.7169" y2="333.831" gradientUnits="userSpaceOnUse">
<stop stop-color="#245795"/>
<stop offset="1" stop-color="#8AD3A8"/>
</linearGradient>
</defs>
</svg>
