<svg width="352" height="300" viewBox="0 0 352 300" fill="none" xmlns="http://www.w3.org/2000/svg">
<path d="M101.818 72.7822V85.0869C101.818 90.4255 101.325 95.3164 100.338 99.7598C99.3514 104.171 97.9278 108.15 96.0672 111.698C94.2348 115.198 92.05 118.266 89.5128 120.902C86.9756 123.539 84.1565 125.753 81.0555 127.543C78.5747 128.975 76.263 129.952 74.1205 130.473C71.978 130.961 70.0469 130.92 68.3273 130.351C66.6358 129.765 65.1699 128.642 63.9295 126.981C62.7173 125.272 61.787 122.945 61.1386 119.999C60.4902 117.053 60.166 113.432 60.166 109.135L60.166 96.8301C60.166 91.4915 60.6594 86.6331 61.646 82.2549C62.6609 77.8278 64.0846 73.8646 65.917 70.3652C67.7776 66.8496 69.9765 63.7897 72.5136 61.1855C75.0508 58.5488 77.8699 56.3353 80.9709 54.5449C83.4517 53.1126 85.7493 52.1605 87.8636 51.6885C90.0061 51.1676 91.9372 51.1758 93.6568 51.7129C95.3765 52.25 96.8424 53.373 98.0546 55.082C99.2668 56.7585 100.197 59.0697 100.846 62.0156C101.494 64.929 101.818 68.5179 101.818 72.7822ZM89.5973 93.998V77.9336C89.5973 75.362 89.4705 73.1891 89.2168 71.415C88.9912 69.6247 88.6389 68.2005 88.1596 67.1426C87.6804 66.0521 87.0884 65.2871 86.3836 64.8477C85.6788 64.4082 84.8754 64.2536 83.9733 64.3838C83.0711 64.514 82.0704 64.8965 80.9709 65.5312C79.5896 66.3288 78.3633 67.346 77.292 68.583C76.2489 69.8037 75.3609 71.3092 74.628 73.0996C73.895 74.8574 73.3312 76.9733 72.9365 79.4473C72.57 81.8724 72.3868 84.68 72.3868 87.8701L72.3868 103.935C72.3868 106.506 72.4995 108.703 72.7251 110.526C72.9788 112.333 73.3453 113.798 73.8245 114.921C74.332 115.995 74.924 116.776 75.6006 117.265C76.3053 117.704 77.1088 117.859 78.0109 117.729C78.9412 117.582 79.9561 117.191 81.0555 116.557C82.4087 115.775 83.6068 114.774 84.6498 113.554C85.7211 112.284 86.6232 110.754 87.3562 108.964C88.1173 107.125 88.6811 104.976 89.0476 102.519C89.4141 100.061 89.5973 97.2207 89.5973 93.998Z" fill="url(#paint0_linear_801_34400)" fill-opacity="0.15"/>
<path d="M153.238 58.3291V69.3643L108.88 94.9746L108.288 86.7715L133.956 24.9307L143.639 19.3398L133.152 45.6582L120.382 77.2988L153.238 58.3291ZM146.261 17.8262V88.9199L134.083 95.9512V24.8574L146.261 17.8262Z" fill="url(#paint1_linear_801_34400)" fill-opacity="0.15"/>
<path d="M281.868 48.2156C279.206 46.6787 275.877 48.5942 275.868 51.6682L275.746 94.0291C275.742 95.4623 276.505 96.7882 277.746 97.5048L345.871 136.834C348.534 138.371 351.862 136.456 351.871 133.382L351.993 91.0209C351.997 89.5877 351.234 88.2618 349.993 87.5452L281.868 48.2156ZM213.863 32.3834C212.622 31.667 211.859 30.3413 211.863 28.9082L211.92 7.85758C211.928 4.78345 215.257 2.86739 217.92 4.40412L263.611 30.7767C264.853 31.4931 265.616 32.8188 265.612 34.252L265.554 55.3026C265.546 58.3767 262.217 60.2928 259.555 58.756L213.863 32.3834ZM222.051 60.1445C223.292 60.861 224.055 62.1867 224.051 63.6199L223.946 101.907C223.937 105.066 220.442 106.968 217.785 105.262L182.788 82.7907C181.638 82.0527 180.945 80.7791 180.949 79.4131L181.054 43.3973C181.063 40.3236 184.392 38.4081 187.054 39.9447L222.051 60.1445Z" fill="url(#paint2_linear_801_34400)" fill-opacity="0.15"/>
<path d="M6.20347 213.481C3.83093 212.02 2.22016 209.853 1.37753 207.439L0.679688 192.126L50.7655 189.438L314.051 192.395L314.05 203.336C314.05 207.211 312.252 211.076 308.652 213.286L260.703 242.745L221.549 266.801L177.733 293.722C165.068 301.505 149.464 301.505 136.802 293.722L99.2751 270.667L47.8452 239.027V239.068L47.8133 239.045L9.68036 215.616L6.20347 213.481Z" fill="#D4F2E4"/>
<path d="M6.20347 213.481C3.83093 212.02 2.22016 209.853 1.37753 207.439L0.679688 192.126L50.7655 189.438L314.051 192.395L314.05 203.336C314.05 207.211 312.252 211.076 308.652 213.286L260.703 242.745L221.549 266.801L177.733 293.722C165.068 301.505 149.464 301.505 136.802 293.722L99.2751 270.667L47.8452 239.027V239.068L47.8133 239.045L9.68036 215.616L6.20347 213.481Z" fill="url(#paint3_linear_801_34400)" fill-opacity="0.15"/>
<path d="M177.727 98.7423L309.307 179.18C312.922 181.389 314.728 185.258 314.73 189.127C314.73 192.999 312.925 196.862 309.309 199.07L261.152 228.509L221.828 252.549L177.821 279.451C165.101 287.228 149.43 287.228 136.713 279.451L99.0232 256.411L47.3703 224.793V224.834L47.3382 224.812L9.03982 201.398L5.54784 199.265C3.16501 197.805 1.54725 195.64 0.700972 193.228C0.235091 191.902 7.3947e-06 190.499 7.3947e-06 189.096C-0.00426674 185.138 1.8443 181.178 5.54356 178.915L136.608 98.7491C149.33 90.9674 165.003 90.9651 177.727 98.7423Z" fill="#F0FAF6"/>
<path fill-rule="evenodd" clip-rule="evenodd" d="M137.708 155.644C137.487 156.15 137.652 158.577 137.766 159.566C137.882 160.553 137.375 161.202 137.681 161.551C137.988 161.9 139.072 162.142 139.382 159.897C139.689 157.649 139.819 156.36 140.331 155.14C140.841 153.922 141.695 151.51 141.187 150.809C140.68 150.109 139.451 150.633 139.451 150.633C139.451 150.633 137.931 155.137 137.708 155.644Z" fill="white"/>
<ellipse cx="114.332" cy="240.7" rx="10.5443" ry="4.04196" transform="rotate(15 114.332 240.7)" fill="#BFBFBF"/>
<ellipse cx="128.373" cy="234.979" rx="10.5443" ry="4.04196" transform="rotate(15 128.373 234.979)" fill="#BFBFBF"/>
<path fill-rule="evenodd" clip-rule="evenodd" d="M135.123 154.398C135.123 154.398 139.385 157.488 138.911 164.372C138.778 166.29 135.945 200.565 135.945 200.565C135.945 200.565 139.091 238.388 138.042 239.09C137.004 239.783 135.702 239.856 134.456 239.399C132.733 238.765 131.036 237.604 130.074 236.639C129.245 235.807 125.489 216.35 123.477 200.796C120.784 179.969 119.186 159.941 119.186 159.941L135.123 154.398Z" fill="#0F0C17"/>
<mask id="mask0_801_34400" style="mask-type:alpha" maskUnits="userSpaceOnUse" x="119" y="154" width="20" height="86">
<path fill-rule="evenodd" clip-rule="evenodd" d="M135.123 154.398C135.123 154.398 139.385 157.488 138.911 164.372C138.778 166.29 135.945 200.565 135.945 200.565C135.945 200.565 139.091 238.388 138.042 239.09C137.004 239.783 135.702 239.856 134.456 239.399C132.733 238.765 131.036 237.604 130.074 236.639C129.245 235.807 125.489 216.35 123.477 200.796C120.784 179.969 119.186 159.941 119.186 159.941L135.123 154.398Z" fill="white"/>
</mask>
<g mask="url(#mask0_801_34400)">
</g>
<path fill-rule="evenodd" clip-rule="evenodd" d="M132.319 160.119C132.319 160.119 135.662 165.379 133.59 173.006C131.521 180.632 122.839 209.874 122.839 209.874C122.839 209.874 123.263 240.544 123.263 244.203C123.263 245.309 120.788 245.825 118.181 245.009C114.918 243.986 114.969 243.129 114.792 241.686C114.64 240.423 111.087 213.399 111.405 206.351C111.822 197.076 113.664 168.936 113.664 168.936L132.319 160.119Z" fill="#0F0C17"/>
<mask id="mask1_801_34400" style="mask-type:alpha" maskUnits="userSpaceOnUse" x="111" y="160" width="24" height="86">
<path fill-rule="evenodd" clip-rule="evenodd" d="M132.319 160.119C132.319 160.119 135.662 165.379 133.59 173.006C131.521 180.632 122.839 209.874 122.839 209.874C122.839 209.874 123.263 240.544 123.263 244.203C123.263 245.309 120.788 245.825 118.181 245.009C114.918 243.986 114.969 243.129 114.792 241.686C114.64 240.423 111.087 213.399 111.405 206.351C111.822 197.076 113.664 168.936 113.664 168.936L132.319 160.119Z" fill="white"/>
</mask>
<g mask="url(#mask1_801_34400)">
</g>
<path fill-rule="evenodd" clip-rule="evenodd" d="M139.821 149.676C139.821 149.676 137.702 155.12 138.175 157.651C138.647 160.183 141.143 164.765 142.267 165.082C143.269 165.362 144.418 163.231 144.667 161.292C144.938 159.207 145.175 158.499 145.275 156.945C145.374 155.39 144.667 153.823 144.952 150.962C145.075 149.708 139.821 149.676 139.821 149.676Z" fill="#F4F4F4"/>
<path fill-rule="evenodd" clip-rule="evenodd" d="M135.193 107.755C139.365 109.223 142.923 122.983 145.102 127.295C147.279 131.611 146.664 151.82 146.664 151.82C146.664 151.82 143.985 152.939 142.031 153.145C140.076 153.35 139.274 152.306 139.274 152.306C139.274 152.306 137.973 138.726 135.937 134.949C133.899 131.174 136.209 124.518 132.046 121.552C127.478 118.297 127.575 117.121 128.542 113.015C129.547 108.766 131.023 106.286 135.193 107.755Z" fill="#9FB8ED"/>
<path fill-rule="evenodd" clip-rule="evenodd" d="M115.38 171.393C116.964 171.504 118.458 171.554 119.86 171.554C121.497 171.554 123.013 171.486 124.423 171.37C113.183 170.53 113.054 167.671 113.054 167.671C113.054 167.671 111.563 140.91 113.927 125.488L104.563 125.919C104.528 126.167 104.495 126.429 104.462 126.684C104.23 142.393 103.756 167.671 103.756 167.671C103.756 167.671 104.23 142.353 104.462 126.646C104.515 122.95 104.808 120.641 105.403 119.021C105.66 118.317 105.976 117.742 106.354 117.24C106.831 116.601 107.409 116.079 108.095 115.552C109.384 114.562 112.252 112.625 115.191 110.821C116.669 109.915 118.165 109.044 119.484 108.345C122.176 106.92 126.457 105.512 129.592 105.512C130.185 105.512 130.733 105.562 131.224 105.671C134.824 106.471 138.431 107.646 138.78 116.367C138.971 121.183 138.959 142.426 138.928 155.814C138.923 157.512 138.921 159.082 138.916 160.48C138.906 164.434 138.896 166.974 138.896 166.974C138.896 166.974 138.382 167.497 138.129 167.671C136.994 168.458 133.586 170.298 126.305 171.188C124.426 171.42 122.317 171.559 119.961 171.559C118.526 171.559 116.999 171.506 115.38 171.393ZM115.379 171.393C114.772 171.35 114.199 171.302 113.654 171.246C108.152 170.704 105.708 169.644 104.623 168.816C104.469 168.703 104.346 168.592 104.242 168.486C105.158 169.409 107.791 170.855 115.379 171.393Z" fill="#99B1E3"/>
<path fill-rule="evenodd" clip-rule="evenodd" d="M105.791 165.523C105.791 165.523 104.015 169.926 102.592 172.186C101.83 173.398 101.223 174.129 98.8102 175.127C97.6876 175.591 96.8044 175.813 96.4153 175.283C96.236 175.042 96.953 174.859 96.953 174.859C96.953 174.859 95.5873 175.347 95.041 174.755C94.4924 174.161 95.5249 174.054 95.5249 174.054C95.5249 174.054 94.0178 174.582 93.5104 173.96C93.0029 173.339 94.0975 173.23 94.0975 173.23C94.0975 173.23 92.7945 173.65 92.2945 173.208C91.7935 172.768 92.0951 172.483 92.9008 172.035C93.8424 171.506 96.0027 170.227 97.0329 168.54C98.1295 166.748 97.9492 164.984 99.5099 164.236C101.067 163.49 101.987 161.452 101.987 161.452L105.791 165.523Z" fill="white"/>
<path fill-rule="evenodd" clip-rule="evenodd" d="M99.756 164.177C97.7953 165.003 96.306 165.617 95.0612 165.967C93.7334 166.339 92.4429 166.863 92.6827 167.525C93.1469 168.818 98.6875 167.098 98.6875 167.098L99.756 164.177Z" fill="white"/>
<path fill-rule="evenodd" clip-rule="evenodd" d="M105.995 121.68C109.469 119.035 114.105 120.208 116.394 123.99C118.685 127.774 121.608 143.328 120.552 148.043C119.493 152.759 106.185 167.98 106.185 167.98C106.185 167.98 103.405 167.143 101.764 166.062C100.124 164.978 100.167 163.663 100.167 163.663C100.167 163.663 107.786 152.346 108.612 148.136C109.435 143.925 106.534 137.585 105.202 132.65C103.739 127.235 102.64 124.237 105.995 121.68Z" fill="#9FB8ED"/>
<path fill-rule="evenodd" clip-rule="evenodd" d="M127.431 108.595C127.666 108.969 127.565 109.453 127.375 109.85C127.01 110.612 125.12 112.416 122.303 112.895C119.467 113.377 117.863 112.908 117.066 112.567C116.652 112.39 116.344 112.042 116.205 111.611L114.974 107.841C114.974 107.841 111.995 108.527 110.908 107.543C109.818 106.559 104.382 92.7296 108.057 88.43C111.735 84.1305 121.266 83.5602 123.854 89.8279C126.445 96.0955 124.099 100.11 124.099 101.664C124.099 102.938 126.488 107.082 127.431 108.595Z" fill="white"/>
<path fill-rule="evenodd" clip-rule="evenodd" d="M119.579 104.316C116.875 104.016 115.974 98.026 114.017 96.9511C112.854 96.3102 112.127 97.3977 112.402 98.4524C112.627 99.3179 111.675 98.9744 111.365 99.1309C111.052 99.2848 109.355 95.3716 109.355 95.3716C109.355 95.3716 105.694 91.4898 103.757 88.3419C100.564 83.15 121.839 79.16 124.501 88.3419C127.175 97.5617 125.823 102.053 124.322 102.78C124.322 102.78 121.093 104.485 119.579 104.316Z" fill="#0F0C17"/>
<path fill-rule="evenodd" clip-rule="evenodd" d="M226.012 210.933C225.953 210.818 225.904 210.698 225.865 210.575L206.877 149.992L228.409 142.801C233.263 141.18 238.586 141.795 242.942 144.481L254.831 151.81L264.191 149.992L245.218 209.374C245.169 209.527 245.106 209.676 245.027 209.816L244.251 211.218C240.246 218.451 229.79 218.288 226.012 210.933Z" fill="#FCFCFC"/>
<path fill-rule="evenodd" clip-rule="evenodd" d="M226.012 210.933C225.953 210.818 225.904 210.698 225.865 210.575L206.877 149.992L228.409 142.801C233.263 141.18 238.586 141.795 242.942 144.481L254.831 151.81L264.191 149.992L245.218 209.374C245.169 209.527 245.106 209.676 245.027 209.816L244.251 211.218C240.246 218.451 229.79 218.288 226.012 210.933Z" fill="url(#paint4_linear_801_34400)" fill-opacity="0.25"/>
<path fill-rule="evenodd" clip-rule="evenodd" d="M226.012 210.933C225.953 210.818 225.904 210.698 225.865 210.575L206.877 149.992L228.409 142.801C233.263 141.18 238.586 141.795 242.942 144.481L254.831 151.81L264.191 149.992L245.218 209.374C245.169 209.527 245.106 209.676 245.027 209.816L244.251 211.218C240.246 218.451 229.79 218.288 226.012 210.933Z" fill="url(#paint5_linear_801_34400)" fill-opacity="0.15"/>
<path fill-rule="evenodd" clip-rule="evenodd" d="M209.072 154.146C205.868 152.248 205.904 147.599 209.136 145.751L227.124 135.465C232.525 132.377 239.168 132.432 244.517 135.609L261.362 145.616C264.56 147.515 264.523 152.158 261.295 154.006L245.807 162.877C238.893 166.836 230.385 166.774 223.531 162.713L209.072 154.146Z" fill="#F6F6FC"/>
<path fill-rule="evenodd" clip-rule="evenodd" d="M209.072 154.146C205.868 152.248 205.904 147.599 209.136 145.751L227.124 135.465C232.525 132.377 239.168 132.432 244.517 135.609L261.362 145.616C264.56 147.515 264.523 152.158 261.295 154.006L245.807 162.877C238.893 166.836 230.385 166.774 223.531 162.713L209.072 154.146Z" fill="#F0FAF6"/>
<path d="M275.056 125.41V125.944V126.017C274.977 127.972 274.027 129.893 272.211 131.006L267.075 134.163L267.069 134.168L246.836 146.6C239.694 150.982 230.91 150.982 223.768 146.6L204.891 135L199.233 131.522C197.132 130.225 196.118 127.944 196.187 125.686V118.428H196.192C196.224 120.574 197.232 122.714 199.233 123.944L223.768 139.016C230.91 143.398 239.694 143.398 246.836 139.016L272.216 123.416C274.027 122.298 274.982 120.377 275.061 118.428V125.41H275.056Z" fill="url(#paint6_linear_801_34400)"/>
<path d="M275.056 125.41V125.944V126.017C274.977 127.972 274.027 129.893 272.211 131.006L267.075 134.163L267.069 134.168L246.836 146.6C239.694 150.982 230.91 150.982 223.768 146.6L204.891 135L199.233 131.522C197.132 130.225 196.118 127.944 196.187 125.686V118.428H196.192C196.224 120.574 197.232 122.714 199.233 123.944L223.768 139.016C230.91 143.398 239.694 143.398 246.836 139.016L272.216 123.416C274.027 122.298 274.982 120.377 275.061 118.428V125.41H275.056Z" fill="#BBDCD8"/>
<path d="M246.826 146.606L267.059 134.174C259.236 143.398 245.633 150.667 245.633 150.667C242.534 152.566 239.071 153.493 235.614 153.442C235.519 153.442 235.423 153.442 235.328 153.442C231.976 153.442 228.603 152.515 225.605 150.667C225.605 150.667 212.704 144.224 204.881 135.005L223.758 146.606C230.9 150.987 239.689 150.987 246.826 146.606Z" fill="#B7EAD2"/>
<path d="M246.826 146.606L267.059 134.174C259.236 143.398 245.633 150.667 245.633 150.667C242.534 152.566 239.071 153.493 235.614 153.442C235.519 153.442 235.423 153.442 235.328 153.442C231.976 153.442 228.603 152.515 225.605 150.667C225.605 150.667 212.704 144.224 204.881 135.005L223.758 146.606C230.9 150.987 239.689 150.987 246.826 146.606Z" fill="#A4D1CC"/>
<path fill-rule="evenodd" clip-rule="evenodd" d="M275.05 118.439C275.151 116.299 274.195 114.119 272.205 112.895L243.119 95.0195C238.442 92.1432 232.683 92.1432 228.006 95.0195L199.221 112.704C197.152 113.979 196.139 116.215 196.181 118.439C196.213 120.591 197.226 122.731 199.221 123.956L223.757 139.028C230.899 143.41 239.683 143.41 246.825 139.028L272.205 123.428C274.016 122.316 274.971 120.394 275.05 118.439Z" fill="#F6F6FC"/>
<g opacity="0.4">
<path d="M247.733 115.537L232.371 113.294L219.676 109.178L229.588 100.313L229.747 100.512L220.181 109.066L232.424 113.038L247.358 115.218L242.919 102.733L231.238 98.0657L240.101 89.3281L240.267 89.5198L231.697 97.968L243.11 102.53L247.733 115.537Z" fill="#6BFFE8"/>
<path d="M222.145 109.122C222.145 110.422 221.153 111.478 219.931 111.478C218.709 111.478 217.717 110.422 217.717 109.122C217.717 107.822 218.709 106.766 219.931 106.766C221.153 106.766 222.145 107.822 222.145 109.122Z" fill="url(#paint7_radial_801_34400)"/>
<path d="M222.145 109.122C222.145 110.422 221.153 111.478 219.931 111.478C218.709 111.478 217.717 110.422 217.717 109.122C217.717 107.822 218.709 106.766 219.931 106.766C221.153 106.766 222.145 107.822 222.145 109.122Z" fill="url(#paint8_radial_801_34400)"/>
<path d="M234.469 98.7873C234.469 100.55 233.127 101.978 231.471 101.978C229.815 101.978 228.473 100.55 228.473 98.7873C228.473 97.0248 229.815 95.5967 231.471 95.5967C233.123 95.5967 234.469 97.0248 234.469 98.7873Z" fill="url(#paint9_radial_801_34400)"/>
<path d="M234.469 98.7873C234.469 100.55 233.127 101.978 231.471 101.978C229.815 101.978 228.473 100.55 228.473 98.7873C228.473 97.0248 229.815 95.5967 231.471 95.5967C233.123 95.5967 234.469 97.0248 234.469 98.7873Z" fill="url(#paint10_radial_801_34400)"/>
<path d="M234.47 113.166C234.47 114.387 233.538 115.379 232.391 115.379C231.243 115.379 230.311 114.387 230.311 113.166C230.311 111.944 231.243 110.952 232.391 110.952C233.538 110.952 234.47 111.944 234.47 113.166Z" fill="url(#paint11_radial_801_34400)"/>
<path d="M234.47 113.166C234.47 114.387 233.538 115.379 232.391 115.379C231.243 115.379 230.311 114.387 230.311 113.166C230.311 111.944 231.243 110.952 232.391 110.952C233.538 110.952 234.47 111.944 234.47 113.166Z" fill="url(#paint12_radial_801_34400)"/>
<path d="M245.092 101.858C245.092 103.079 244.159 104.072 243.012 104.072C241.864 104.072 240.932 103.079 240.932 101.858C240.932 100.637 241.864 99.6445 243.012 99.6445C244.163 99.6445 245.092 100.637 245.092 101.858Z" fill="url(#paint13_radial_801_34400)"/>
<path d="M245.092 101.858C245.092 103.079 244.159 104.072 243.012 104.072C241.864 104.072 240.932 103.079 240.932 101.858C240.932 100.637 241.864 99.6445 243.012 99.6445C244.163 99.6445 245.092 100.637 245.092 101.858Z" fill="url(#paint14_radial_801_34400)"/>
<path d="M249.625 115.376C249.625 116.597 248.693 117.589 247.545 117.589C246.397 117.589 245.465 116.597 245.465 115.376C245.465 114.154 246.397 113.162 247.545 113.162C248.693 113.166 249.625 114.154 249.625 115.376Z" fill="url(#paint15_radial_801_34400)"/>
<path d="M249.625 115.376C249.625 116.597 248.693 117.589 247.545 117.589C246.397 117.589 245.465 116.597 245.465 115.376C245.465 114.154 246.397 113.162 247.545 113.162C248.693 113.166 249.625 114.154 249.625 115.376Z" fill="url(#paint16_radial_801_34400)"/>
<path d="M241.169 89.4256C241.169 90.0044 240.731 90.4704 240.187 90.4704C239.643 90.4704 239.205 90.0006 239.205 89.4256C239.205 88.8506 239.643 88.3809 240.187 88.3809C240.731 88.3809 241.169 88.8469 241.169 89.4256Z" fill="url(#paint17_radial_801_34400)"/>
<path d="M241.169 89.4256C241.169 90.0044 240.731 90.4704 240.187 90.4704C239.643 90.4704 239.205 90.0006 239.205 89.4256C239.205 88.8506 239.643 88.3809 240.187 88.3809C240.731 88.3809 241.169 88.8469 241.169 89.4256Z" fill="url(#paint18_radial_801_34400)"/>
</g>
<g filter="url(#filter0_b_801_34400)">
<path d="M235.601 106.06V130.702L227.666 125.756H227.663L218.248 119.886L210.027 114.76L209.921 99.5919L209.857 90.2305L214.18 92.8875H214.183L224.926 99.498L235.601 106.06Z" fill="url(#paint19_linear_801_34400)" fill-opacity="0.08"/>
<path d="M235.351 106.199V130.251L227.798 125.544L227.738 125.506H227.734L218.38 119.674L210.276 114.62L210.171 99.5902L210.171 99.5902L210.11 90.6795L214.049 93.1005L214.109 93.1375H214.113L224.795 99.7109L224.795 99.711L235.351 106.199Z" stroke="#64B58D" stroke-opacity="0.1" stroke-width="0.5"/>
</g>
<g filter="url(#filter1_b_801_34400)">
<path d="M235.598 106.064L209.857 90.2269L235.598 74.2812L261.38 90.1217L235.598 106.064Z" fill="url(#paint20_linear_801_34400)" fill-opacity="0.08"/>
<path d="M235.597 105.77L210.333 90.2262L235.598 74.575L260.904 90.1224L235.597 105.77Z" stroke="#64B58D" stroke-opacity="0.1" stroke-width="0.5"/>
</g>
<g filter="url(#filter2_b_801_34400)">
<path d="M261.381 90.125V114.812L253.887 119.431L244.504 125.214L235.602 130.701V106.059L247.287 98.8325H247.294L258.054 92.1769L261.381 90.125Z" fill="url(#paint21_linear_801_34400)" fill-opacity="0.08"/>
<path d="M253.756 119.218L253.887 119.431L253.756 119.218L244.373 125.002L235.852 130.254V106.199L247.358 99.0825H247.365L247.425 99.0451L258.185 92.3897L258.186 92.3895L261.131 90.5729V114.672L253.756 119.218Z" stroke="#64B58D" stroke-opacity="0.1" stroke-width="0.5"/>
</g>
<path d="M192.373 153.149C192.46 154.279 193.069 155.758 193.438 156.497C193.808 157.237 201.332 161.26 201.941 162.108C202.55 162.956 202.267 164.674 202.267 164.674C202.267 164.674 201.245 167.326 199.875 167.522C198.483 167.718 194.547 165.761 193.678 164.913C192.83 164.065 185.241 160.477 184.632 158.889C184.023 157.302 184.958 154.366 184.958 154.127C184.958 153.888 185.371 149.517 185.371 149.409C185.371 149.278 187.893 148.887 187.893 148.887L192.373 153.149Z" fill="#ADADAD"/>
<path d="M178.564 154.388C179.303 155.128 179.738 155.193 179.825 156.867C179.912 158.542 180.238 162.282 180.39 162.608C180.542 162.934 185.848 169.784 186.131 170.741C186.414 171.719 185.848 173.785 185.848 173.785C185.848 173.785 181.238 175.133 178.803 174.024C176.367 172.915 174.519 170.523 174.454 169.414C174.367 168.305 172.736 164.956 172.258 164.391C171.779 163.826 172.258 160.651 172.258 160.651C172.258 160.651 173.062 158.216 173.106 157.759C173.149 157.302 172.627 154.628 172.779 154.345C172.932 154.084 178.564 154.388 178.564 154.388Z" fill="#ADADAD"/>
<path d="M198.395 88.958C198.635 91.263 198.809 98.4171 198.395 102.657C197.982 106.898 197.417 122.771 195.547 127.164C193.677 131.556 184.392 128.469 183.413 127.164C182.435 125.859 182.282 96.8949 183.413 94.6769C184.544 92.4807 198.395 88.958 198.395 88.958Z" fill="black"/>
<path d="M191.068 98.0255C191.068 98.0255 191.96 104.027 190.416 105.68C188.872 107.311 184.958 108.528 184.958 108.528C184.958 108.528 182.522 129.142 181.696 131.665C180.891 134.187 176.086 135.079 173.389 134.513C170.693 133.948 170.128 128.729 170.128 128.403C170.128 128.077 168.997 109.333 168.671 104.94C168.084 96.9382 170.062 93.0459 170.389 92.7197C170.715 92.3935 191.068 98.0255 191.068 98.0255Z" fill="black"/>
<path d="M196.026 125.707C195.635 128.794 194.33 152.409 192.939 154.627C191.547 156.824 188.633 156.411 187.155 155.932C185.676 155.454 183.654 153.823 183.654 153.823C183.654 153.823 183.088 130.36 183.654 126.207C184.219 122.054 196.026 125.707 196.026 125.707Z" fill="black"/>
<path d="M182.021 130.23C181.782 133.927 181.543 157.216 180.803 159.26C180.064 161.304 173.301 161.782 172.258 159.26C171.192 156.737 169.17 138.341 169.17 134.666C169.17 130.991 171.127 125.62 171.214 125.294C171.279 124.99 182.021 130.23 182.021 130.23Z" fill="black"/>
<path d="M215.249 60.7764C215.575 62.6247 216.923 69.4526 217.684 70.9748C218.445 72.4969 220.837 76.7806 221.164 78.0853C221.49 79.39 221.055 81.4993 219.098 83.2389C217.141 84.9785 216.336 84.2609 215.945 84C215.575 83.739 208.225 73.1927 208.182 70.866C208.138 68.5393 215.249 60.7764 215.249 60.7764Z" fill="white"/>
<path d="M211.181 55.3613C213.051 55.9267 214.073 56.8182 215.226 59.8408C216.378 62.8633 218.618 70.6915 218.531 72.6051C218.422 74.5186 215.334 75.6494 213.138 75.3232C210.942 74.997 208.419 73.888 207.354 72.6051C206.288 71.3221 206.462 58.7101 206.549 58.4709C206.615 58.2099 211.181 55.3613 211.181 55.3613Z" fill="#EB4869"/>
<path d="M208.942 54.7097C209.269 55.1446 210.508 55.5577 211.073 59.5371C211.639 63.5164 210.617 68.5612 207.703 75.3674C206.442 78.3247 200.962 87.6533 200.201 90.8063C199.44 93.9593 198.635 96.5905 198.635 96.5905C198.635 96.5905 196.395 100.265 190.437 102.005C183.914 103.94 177.238 103.288 173.607 100.635C169.975 97.9822 169.258 94.2203 169.258 94.2203C169.258 94.2203 173.15 82.3258 174.281 78.6291C175.999 72.9537 178.043 61.9508 179.087 59.5153C180.109 57.0799 187.632 53.2093 189.916 51.7741C192.22 50.3607 197.809 48.1427 201.375 48.9256C203.724 49.4474 201.614 50.2085 201.897 50.2085C202.18 50.2085 208.942 54.7097 208.942 54.7097Z" fill="#EB4869"/>
<path d="M202.874 58.6012C202.874 58.6012 199.787 60.3842 199.178 61.2106C198.591 62.0151 195.59 61.9716 194.35 61.2106C193.111 60.4495 191.045 55.0132 191.415 53.2302C191.784 51.4471 192.393 50.8382 194.024 50.3598C195.655 49.8814 198.09 47.3808 199.83 46.7719C201.57 46.1848 206.68 46.337 207.593 49.0551C208.528 51.7515 202.874 58.6012 202.874 58.6012Z" fill="white"/>
<path d="M200.701 50.7297C200.701 50.7297 198.113 56.6443 198.157 57.5794C198.2 58.4927 201.092 62.5155 202.223 63.0591C203.354 63.6027 204.724 63.5375 205.159 63.4288C205.594 63.32 209.399 61.7979 209.399 61.7979L214.574 56.3182C214.574 56.3182 216.836 53.5566 216.77 51.0994C216.705 48.6639 212.487 46.7939 209.486 46.4677C206.507 46.1633 200.701 50.7297 200.701 50.7297Z" fill="white"/>
<path d="M206.181 54.2093C205.703 54.4267 205.203 54.5354 204.681 54.4702C203.659 54.3615 202.811 54.9269 201.897 55.2313C200.962 55.5357 200.593 54.7529 200.332 53.9918C200.245 53.7527 200.136 53.4917 200.158 53.2525C200.158 52.9916 200.31 52.7524 200.266 52.4697C200.201 51.8608 198.157 51.7521 198.157 51.7521C198.157 51.7521 198.179 53.6439 196.244 53.0785C195.591 52.8828 194.504 50.7518 194.439 50.5344C194.395 50.3169 195.417 47.8598 195.874 46.0984C196.787 42.4453 198.505 36.161 206.899 37.27C211.443 37.0308 215.423 37.9006 217.597 41.9016C219.772 45.9244 219.206 49.6646 218.728 51.2302C218.424 52.2088 218.032 52.9263 217.184 53.5135C216.401 54.0353 215.444 54.2745 214.531 54.4485C213.4 54.6877 212.226 54.8616 211.074 54.7529C210.987 54.7529 210.9 54.7311 210.791 54.7094C209.747 54.5572 208.79 54.231 207.812 53.9048C207.334 53.7526 206.638 54.0136 206.181 54.2093Z" fill="#383838"/>
<path d="M198.961 54.905C198.026 54.7746 198.004 52.687 198.157 51.4041C198.287 50.1211 198.939 49.447 199.44 49.5775C199.918 49.708 200.679 50.1212 200.592 50.9692C200.483 51.839 199.722 55.0138 198.961 54.905Z" fill="white"/>
<path d="M219.418 79.8938C219.418 79.8938 221.266 78.7848 221.701 79.024C222.136 79.2415 226.159 84.0254 227.616 86.4173C229.073 88.8093 235.118 97.5507 235.748 98.2466C236.401 98.9424 240.38 101.769 241.206 102.139C242.011 102.509 244.99 105.923 245.316 106.531C245.642 107.14 245.599 107.597 245.599 107.597L246.055 108.706C246.055 108.706 246.251 109.554 245.86 109.771C245.447 109.967 244.425 109.163 244.425 109.163C244.425 109.163 244.381 109.402 243.577 108.967C242.772 108.51 237.227 104.031 236.814 103.879C236.401 103.726 235.792 104.205 235.792 104.205L232.748 104.292C232.748 104.292 230.856 100.66 230.573 99.6817C230.29 98.7032 229.964 98.1813 229.834 98.0509C229.703 97.9204 216.765 87.2219 215.96 84.5038C215.156 81.7639 219.418 79.8938 219.418 79.8938Z" fill="white"/>
<path d="M232.836 100.703C233.531 100.79 234.097 100.616 234.51 101.834C234.923 103.052 235.314 103.813 235.358 103.987C235.401 104.161 237.924 106.64 238.25 107.727C238.576 108.836 238.12 109.031 237.511 108.857C236.902 108.705 233.966 105.835 233.51 105.4C233.053 104.943 231.64 102.03 231.4 101.508C231.161 101.008 232.836 100.703 232.836 100.703Z" fill="white"/>
<path d="M185.605 73.2177C185.605 73.2177 185.192 78.2626 184.061 83.4814C182.931 88.7001 183.083 93.2448 181.213 95.3758C179.343 97.4851 175.189 95.2889 174.689 92.7665C174.211 90.244 176.19 76.1098 176.625 74.6312C177.06 73.1308 185.605 73.2177 185.605 73.2177Z" fill="white"/>
<path d="M178.015 90.3097C178.015 90.3097 180.886 90.5489 182.103 92.2667C183.321 93.9846 191.149 110.924 191.149 110.924C191.149 110.924 192.476 111.815 193.041 112.055C193.606 112.294 196.39 112.055 196.39 112.055C196.39 112.055 199.282 115.142 199.608 116.164C199.934 117.186 200.217 120.47 199.934 121.209C199.652 121.949 198.673 121.209 198.673 121.209L198.825 122.992L197.368 123.275C197.368 123.275 197.173 123.645 196.716 123.601C196.259 123.558 195.911 123.079 195.911 123.079C195.911 123.079 194.52 123.536 193.954 122.84C193.389 122.144 190.736 118.556 190.736 118.556L188.583 117.295C188.583 117.295 186.822 115.512 186.344 113.707C185.865 111.924 173.775 96.4635 174.754 92.9408C175.71 89.4181 178.015 90.3097 178.015 90.3097Z" fill="white"/>
<path d="M180.973 59.8226C183.909 58.5831 187.78 60.9098 188.193 64.8239C188.606 68.738 185.909 79.7192 184.931 80.3716C183.952 81.0239 175.385 78.5232 175.994 76.6097C176.603 74.6744 177.994 61.0838 180.973 59.8226Z" fill="#EB4869"/>
<path d="M86.9477 171.367C88.4509 172.292 89.1726 173.938 89.0969 175.555C89.037 177.032 88.3154 178.483 86.9477 179.323L67.7767 191.107C62.3819 194.417 55.747 194.417 50.3522 191.107L31.8191 179.722C30.3119 178.797 29.5464 177.18 29.5224 175.555C29.4905 173.875 30.2561 172.186 31.8191 171.223L53.5619 157.865C57.0947 155.692 61.4449 155.692 64.9776 157.865L86.9477 171.367ZM75.8949 172.831C77.7131 171.702 77.7091 168.902 75.8829 167.781L64.0645 160.517C61.0701 158.675 57.3778 158.684 54.3833 160.534L42.4971 167.896C40.7068 169.003 40.7108 171.749 42.5011 172.852L53.6098 179.68C57.0907 181.814 61.389 181.81 64.862 179.654L75.8949 172.831Z" fill="#F6F6FC"/>
<path d="M89.1003 180.821V181.224V181.28C89.0405 182.756 88.3228 184.207 86.9512 185.048L83.0715 187.432L83.0675 187.437L67.7841 196.827C62.3893 200.137 55.7544 200.137 50.3596 196.827L36.101 188.065L31.8266 185.438C30.2396 184.458 29.4741 182.735 29.5259 181.029V175.547H29.5299C29.5538 177.168 30.3154 178.785 31.8266 179.714L50.3596 191.099C55.7544 194.408 62.3893 194.408 67.7841 191.099L86.9551 179.315C88.3228 178.471 89.0445 177.019 89.1043 175.547V180.821H89.1003Z" fill="url(#paint22_linear_801_34400)"/>
<path d="M89.1003 180.821V181.224V181.28C89.0405 182.756 88.3228 184.207 86.9512 185.048L83.0715 187.432L83.0675 187.437L67.7841 196.827C62.3893 200.137 55.7544 200.137 50.3596 196.827L36.101 188.065L31.8266 185.438C30.2396 184.458 29.4741 182.735 29.5259 181.029V175.547H29.5299C29.5538 177.168 30.3154 178.785 31.8266 179.714L50.3596 191.099C55.7544 194.408 62.3893 194.408 67.7841 191.099L86.9551 179.315C88.3228 178.471 89.0445 177.019 89.1043 175.547V180.821H89.1003Z" fill="#BBDCD8"/>
<path d="M67.7769 196.831L83.0603 187.44C77.1511 194.408 66.8758 199.899 66.8758 199.899C64.5352 201.333 61.9196 202.033 59.3079 201.995C59.2361 201.995 59.1643 201.995 59.0926 201.995C56.5606 201.995 54.0127 201.295 51.7479 199.899C51.7479 199.899 42.0029 195.032 36.0938 188.068L50.3524 196.831C55.7472 200.141 62.3861 200.141 67.7769 196.831Z" fill="#B7EAD2"/>
<path d="M67.7769 196.831L83.0603 187.44C77.1511 194.408 66.8758 199.899 66.8758 199.899C64.5352 201.333 61.9196 202.033 59.3079 201.995C59.2361 201.995 59.1643 201.995 59.0926 201.995C56.5606 201.995 54.0127 201.295 51.7479 199.899C51.7479 199.899 42.0029 195.032 36.0938 188.068L50.3524 196.831C55.7472 200.141 62.3861 200.141 67.7769 196.831Z" fill="#A4D1CC"/>
<path opacity="0.4" d="M73.4141 133.098C74.0084 133.424 74.4007 134.077 74.4504 134.753C77.1011 170.739 74.4536 134.795 77.098 170.697C77.1502 171.406 76.8249 172.14 76.2378 172.542L64.9822 180.258C61.5053 182.409 57.211 182.418 53.7301 180.284L42.0472 172.306C41.4624 171.906 41.1357 171.179 41.1827 170.472C43.5845 134.422 41.1305 171.256 43.6379 133.621L54.5036 128.054C57.4981 126.199 61.1903 126.195 64.1848 128.037L73.4141 133.098Z" fill="url(#paint23_radial_801_34400)"/>
<defs>
<filter id="filter0_b_801_34400" x="209.357" y="89.7305" width="26.7441" height="41.4707" filterUnits="userSpaceOnUse" color-interpolation-filters="sRGB">
<feFlood flood-opacity="0" result="BackgroundImageFix"/>
<feGaussianBlur in="BackgroundImage" stdDeviation="0.25"/>
<feComposite in2="SourceAlpha" operator="in" result="effect1_backgroundBlur_801_34400"/>
<feBlend mode="normal" in="SourceGraphic" in2="effect1_backgroundBlur_801_34400" result="shape"/>
</filter>
<filter id="filter1_b_801_34400" x="209.357" y="73.7812" width="52.5234" height="32.7822" filterUnits="userSpaceOnUse" color-interpolation-filters="sRGB">
<feFlood flood-opacity="0" result="BackgroundImageFix"/>
<feGaussianBlur in="BackgroundImage" stdDeviation="0.25"/>
<feComposite in2="SourceAlpha" operator="in" result="effect1_backgroundBlur_801_34400"/>
<feBlend mode="normal" in="SourceGraphic" in2="effect1_backgroundBlur_801_34400" result="shape"/>
</filter>
<filter id="filter2_b_801_34400" x="235.102" y="89.625" width="26.7793" height="41.5762" filterUnits="userSpaceOnUse" color-interpolation-filters="sRGB">
<feFlood flood-opacity="0" result="BackgroundImageFix"/>
<feGaussianBlur in="BackgroundImage" stdDeviation="0.25"/>
<feComposite in2="SourceAlpha" operator="in" result="effect1_backgroundBlur_801_34400"/>
<feBlend mode="normal" in="SourceGraphic" in2="effect1_backgroundBlur_801_34400" result="shape"/>
</filter>
<linearGradient id="paint0_linear_801_34400" x1="-62.0553" y1="54.3003" x2="76.868" y2="287.858" gradientUnits="userSpaceOnUse">
<stop stop-color="#245795"/>
<stop offset="1" stop-color="#8AD3A8"/>
</linearGradient>
<linearGradient id="paint1_linear_801_34400" x1="-62.0553" y1="54.3003" x2="76.868" y2="287.858" gradientUnits="userSpaceOnUse">
<stop stop-color="#245795"/>
<stop offset="1" stop-color="#8AD3A8"/>
</linearGradient>
<linearGradient id="paint2_linear_801_34400" x1="266.325" y1="-184.15" x2="266.325" y2="80.376" gradientUnits="userSpaceOnUse">
<stop stop-color="#245795"/>
<stop offset="1" stop-color="#8AD3A8"/>
</linearGradient>
<linearGradient id="paint3_linear_801_34400" x1="157.633" y1="32.179" x2="157.633" y2="250.185" gradientUnits="userSpaceOnUse">
<stop stop-color="#245795"/>
<stop offset="1" stop-color="#8AD3A8"/>
</linearGradient>
<linearGradient id="paint4_linear_801_34400" x1="240.461" y1="156.658" x2="235.224" y2="250.938" gradientUnits="userSpaceOnUse">
<stop stop-color="#BBDCD8"/>
<stop offset="1" stop-color="#BBDCD8" stop-opacity="0"/>
</linearGradient>
<linearGradient id="paint5_linear_801_34400" x1="235.583" y1="-12.5167" x2="235.583" y2="199.252" gradientUnits="userSpaceOnUse">
<stop stop-color="#245795"/>
<stop offset="1" stop-color="#8AD3A8"/>
</linearGradient>
<linearGradient id="paint6_linear_801_34400" x1="196.176" y1="134.164" x2="275.055" y2="134.164" gradientUnits="userSpaceOnUse">
<stop stop-color="#B7EAD2"/>
<stop offset="1" stop-color="#8AD3A8"/>
</linearGradient>
<radialGradient id="paint7_radial_801_34400" cx="0" cy="0" r="1" gradientUnits="userSpaceOnUse" gradientTransform="translate(217.854 106.295) scale(4.58436 4.87872)">
<stop stop-color="#6BFFE8"/>
<stop offset="0.0474" stop-color="#68F8E5"/>
<stop offset="0.5011" stop-color="#49B6C8"/>
<stop offset="0.8307" stop-color="#358DB6"/>
<stop offset="1" stop-color="#2E7DAF"/>
</radialGradient>
<radialGradient id="paint8_radial_801_34400" cx="0" cy="0" r="1" gradientUnits="userSpaceOnUse" gradientTransform="translate(217.854 106.295) scale(4.58436 4.87872)">
<stop stop-color="#6BFFE8"/>
<stop offset="0.0474" stop-color="#68F8E5"/>
<stop offset="0.5011" stop-color="#49B6C8"/>
<stop offset="0.8307" stop-color="#358DB6"/>
<stop offset="1" stop-color="#2E7DAF"/>
</radialGradient>
<radialGradient id="paint9_radial_801_34400" cx="0" cy="0" r="1" gradientUnits="userSpaceOnUse" gradientTransform="translate(228.656 94.9599) scale(6.2095 6.60818)">
<stop stop-color="#6BFFE8"/>
<stop offset="0.0474" stop-color="#68F8E5"/>
<stop offset="0.5011" stop-color="#49B6C8"/>
<stop offset="0.8307" stop-color="#358DB6"/>
<stop offset="1" stop-color="#2E7DAF"/>
</radialGradient>
<radialGradient id="paint10_radial_801_34400" cx="0" cy="0" r="1" gradientUnits="userSpaceOnUse" gradientTransform="translate(228.656 94.9599) scale(6.2095 6.60818)">
<stop stop-color="#6BFFE8"/>
<stop offset="0.0474" stop-color="#68F8E5"/>
<stop offset="0.5011" stop-color="#49B6C8"/>
<stop offset="0.8307" stop-color="#358DB6"/>
<stop offset="1" stop-color="#2E7DAF"/>
</radialGradient>
<radialGradient id="paint11_radial_801_34400" cx="0" cy="0" r="1" gradientUnits="userSpaceOnUse" gradientTransform="translate(230.442 110.511) scale(4.30357 4.57986)">
<stop stop-color="#6BFFE8"/>
<stop offset="0.0474" stop-color="#68F8E5"/>
<stop offset="0.5011" stop-color="#49B6C8"/>
<stop offset="0.8307" stop-color="#358DB6"/>
<stop offset="1" stop-color="#2E7DAF"/>
</radialGradient>
<radialGradient id="paint12_radial_801_34400" cx="0" cy="0" r="1" gradientUnits="userSpaceOnUse" gradientTransform="translate(230.442 110.511) scale(4.30357 4.57986)">
<stop stop-color="#6BFFE8"/>
<stop offset="0.0474" stop-color="#68F8E5"/>
<stop offset="0.5011" stop-color="#49B6C8"/>
<stop offset="0.8307" stop-color="#358DB6"/>
<stop offset="1" stop-color="#2E7DAF"/>
</radialGradient>
<radialGradient id="paint13_radial_801_34400" cx="0" cy="0" r="1" gradientUnits="userSpaceOnUse" gradientTransform="translate(241.065 99.2044) scale(4.30357 4.57991)">
<stop stop-color="#6BFFE8"/>
<stop offset="0.0474" stop-color="#68F8E5"/>
<stop offset="0.5011" stop-color="#49B6C8"/>
<stop offset="0.8307" stop-color="#358DB6"/>
<stop offset="1" stop-color="#2E7DAF"/>
</radialGradient>
<radialGradient id="paint14_radial_801_34400" cx="0" cy="0" r="1" gradientUnits="userSpaceOnUse" gradientTransform="translate(241.065 99.2044) scale(4.30357 4.57991)">
<stop stop-color="#6BFFE8"/>
<stop offset="0.0474" stop-color="#68F8E5"/>
<stop offset="0.5011" stop-color="#49B6C8"/>
<stop offset="0.8307" stop-color="#358DB6"/>
<stop offset="1" stop-color="#2E7DAF"/>
</radialGradient>
<radialGradient id="paint15_radial_801_34400" cx="0" cy="0" r="1" gradientUnits="userSpaceOnUse" gradientTransform="translate(245.596 112.723) scale(4.30359 4.57986)">
<stop stop-color="#6BFFE8"/>
<stop offset="0.0474" stop-color="#68F8E5"/>
<stop offset="0.5011" stop-color="#49B6C8"/>
<stop offset="0.8307" stop-color="#358DB6"/>
<stop offset="1" stop-color="#2E7DAF"/>
</radialGradient>
<radialGradient id="paint16_radial_801_34400" cx="0" cy="0" r="1" gradientUnits="userSpaceOnUse" gradientTransform="translate(245.596 112.723) scale(4.30359 4.57986)">
<stop stop-color="#6BFFE8"/>
<stop offset="0.0474" stop-color="#68F8E5"/>
<stop offset="0.5011" stop-color="#49B6C8"/>
<stop offset="0.8307" stop-color="#358DB6"/>
<stop offset="1" stop-color="#2E7DAF"/>
</radialGradient>
<radialGradient id="paint17_radial_801_34400" cx="0" cy="0" r="1" gradientUnits="userSpaceOnUse" gradientTransform="translate(239.264 88.1716) scale(2.03298 2.16353)">
<stop stop-color="#6BFFE8"/>
<stop offset="0.0474" stop-color="#68F8E5"/>
<stop offset="0.5011" stop-color="#49B6C8"/>
<stop offset="0.8307" stop-color="#358DB6"/>
<stop offset="1" stop-color="#2E7DAF"/>
</radialGradient>
<radialGradient id="paint18_radial_801_34400" cx="0" cy="0" r="1" gradientUnits="userSpaceOnUse" gradientTransform="translate(239.264 88.1716) scale(2.03298 2.16353)">
<stop stop-color="#6BFFE8"/>
<stop offset="0.0474" stop-color="#68F8E5"/>
<stop offset="0.5011" stop-color="#49B6C8"/>
<stop offset="0.8307" stop-color="#358DB6"/>
<stop offset="1" stop-color="#2E7DAF"/>
</radialGradient>
<linearGradient id="paint19_linear_801_34400" x1="209.857" y1="110.589" x2="235.601" y2="110.589" gradientUnits="userSpaceOnUse">
<stop stop-color="#245795"/>
<stop offset="1" stop-color="#8AD3A8"/>
</linearGradient>
<linearGradient id="paint20_linear_801_34400" x1="209.857" y1="90.2687" x2="261.38" y2="90.2687" gradientUnits="userSpaceOnUse">
<stop stop-color="#245795"/>
<stop offset="1" stop-color="#8AD3A8"/>
</linearGradient>
<linearGradient id="paint21_linear_801_34400" x1="235.602" y1="110.536" x2="261.381" y2="110.536" gradientUnits="userSpaceOnUse">
<stop stop-color="#245795"/>
<stop offset="1" stop-color="#8AD3A8"/>
</linearGradient>
<linearGradient id="paint22_linear_801_34400" x1="29.5175" y1="187.433" x2="89.0998" y2="187.433" gradientUnits="userSpaceOnUse">
<stop stop-color="#B7EAD2"/>
<stop offset="1" stop-color="#8AD3A8"/>
</linearGradient>
<radialGradient id="paint23_radial_801_34400" cx="0" cy="0" r="1" gradientUnits="userSpaceOnUse" gradientTransform="translate(59.1426 181.878) rotate(-90) scale(44.117 239.603)">
<stop stop-color="#8AD3A8"/>
<stop offset="1" stop-color="#245795" stop-opacity="0"/>
</radialGradient>
</defs>
</svg>
