<svg width="382" height="296" viewBox="0 0 382 296" fill="none" xmlns="http://www.w3.org/2000/svg">
<path d="M35.033 208.329C32.6431 206.857 31.0205 204.675 30.1717 202.243L29.4688 186.818L79.9213 184.109L345.134 187.089L345.134 198.11C345.134 202.013 343.323 205.906 339.696 208.132L291.396 237.807L251.955 262.04L207.818 289.158C195.061 296.997 179.343 296.997 166.587 289.158L128.786 265.933L76.9797 234.062V234.103L76.9475 234.08L38.5353 210.48L35.033 208.329Z" fill="#D4F2E4"/>
<path d="M35.033 208.329C32.6431 206.857 31.0205 204.675 30.1717 202.243L29.4688 186.818L79.9213 184.109L345.134 187.089L345.134 198.11C345.134 202.013 343.323 205.906 339.696 208.132L291.396 237.807L251.955 262.04L207.818 289.158C195.061 296.997 179.343 296.997 166.587 289.158L128.786 265.933L76.9797 234.062V234.103L76.9475 234.08L38.5353 210.48L35.033 208.329Z" fill="url(#paint0_linear_692_45211)" fill-opacity="0.15"/>
<path d="M207.81 92.7509L340.353 173.778C343.995 176.002 345.814 179.9 345.816 183.798C345.816 187.698 343.997 191.589 340.355 193.813L291.845 223.468L252.233 247.684L207.904 274.783C195.092 282.617 179.306 282.617 166.495 274.783L128.53 251.574L76.4984 219.725V219.766L76.4661 219.743L37.8873 196.159L34.3697 194.009C31.9694 192.539 30.3398 190.358 29.4874 187.928C29.0181 186.592 28.7813 185.179 28.7813 183.766C28.777 179.779 30.6391 175.79 34.3654 173.511L166.389 92.7577C179.204 84.919 194.993 84.9167 207.81 92.7509Z" fill="#F0FAF6"/>
<path d="M245.192 174.029C244.75 174.117 245.015 176.679 244.485 177.871C243.955 179.063 236.073 183.302 235.654 184.473C235.234 185.643 235.102 187.321 235.102 187.321C235.102 187.321 237.795 190.544 239.186 190.279C244.353 189.286 246.362 185.886 246.362 185.886C246.362 185.886 252.323 183.192 252.257 181.404C252.191 179.615 251.506 175.751 251.506 175.751L251.021 170.519L245.192 174.029Z" fill="#BFBFBF"/>
<path d="M265.946 179.637C265.946 179.836 265.372 183.965 265.483 185.047C265.571 186.129 266.984 187.895 266.984 187.895C266.984 187.895 267.293 195.733 269.06 196.44C270.826 197.146 274.756 195.932 275.264 195.336C275.75 194.74 275.993 191.847 275.993 191.847C275.993 191.847 275.131 187.122 274.535 186.57C273.939 186.018 272.659 183.943 272.659 183.943L272.592 177.584L265.946 179.637Z" fill="#BFBFBF"/>
<path d="M244.703 101.543C244.593 102.007 241.767 112.163 241.48 119.449C241.193 126.713 241.524 148.991 242.12 151.861C242.716 154.732 249.649 156.631 251.901 154.643C254.153 152.634 254.926 149.013 254.926 149.013C254.926 149.013 257.046 130.445 257.796 128.369C258.569 126.294 260.468 111.125 257.642 107.173C254.86 103.221 244.703 101.543 244.703 101.543Z" fill="black"/>
<path d="M254.219 109.801C254.285 110.066 253.005 125.897 254.33 127.729C255.677 129.54 256.78 130.092 256.78 130.092C256.78 130.092 259.165 136.451 261.483 155.483C261.903 158.993 271.485 162.327 272.854 160.671C274.223 159.016 275.415 148.793 275.415 148.793C275.415 148.793 277.093 133.315 277.27 128.061C278.065 104.944 276.321 101.963 275.459 101.345C274.62 100.726 254.219 109.801 254.219 109.801Z" fill="black"/>
<path d="M261.484 155.46C262.522 163.718 263.449 179.792 264.156 181.161C264.862 182.551 272.833 183.7 273.827 180.255C274.82 176.789 275.681 153.915 275.416 147.843C275.173 141.793 261.484 155.46 261.484 155.46Z" fill="black"/>
<path d="M243.07 105.959C243.07 105.959 242.761 108.918 242.584 110.507C242.43 112.097 250.113 116.601 260.38 116.601C270.647 116.601 277.558 114.04 277.337 110.838C277.138 107.659 277.138 107.659 277.138 107.659L243.07 105.959Z" fill="#D3405E"/>
<path d="M241.859 150.647C241.859 150.647 242.985 174.25 243.295 176.171C243.604 178.092 252.413 178.07 253.186 175.994C253.959 173.919 255.725 150.934 255.085 147.976C254.445 145.017 241.859 150.647 241.859 150.647Z" fill="black"/>
<path d="M277.164 108.543C276.104 110.552 267.648 114.592 256.299 113.157C244.95 111.722 243.118 107.836 242.985 106.29C242.853 104.745 244.023 87.9206 242.985 81.8709C241.947 75.8211 240.027 64.8036 240.225 62.9269C240.424 61.0281 244.928 59.7254 253.164 57.5837C257.602 56.4356 275.684 60.2112 276.126 60.5423C276.568 60.8735 275.861 81.9592 275.684 84.6528C275.508 87.3686 277.252 103.751 277.142 105.032C277.075 106.335 277.164 108.543 277.164 108.543Z" fill="#EB4869"/>
<path d="M256.053 70.2344C256.053 70.2344 252.255 103.265 252.277 105.362C252.322 107.46 255.722 109.889 255.722 109.889L259.343 105.981L258.283 70.5214L256.053 70.2344Z" fill="black"/>
<path d="M257.16 64.6752C257.16 64.6752 256.277 64.4959 256.012 64.8288C255.747 65.1618 254.709 66.9545 254.665 68.1839C254.621 69.4132 255.88 71.7438 255.88 71.7438C255.88 71.7438 257.999 72.0255 258.33 71.667C258.662 71.334 259.39 68.0046 259.346 67.4155C259.324 66.8521 257.16 64.6752 257.16 64.6752Z" fill="black"/>
<path d="M276.123 60.542C274.843 61.3589 274.114 68.8217 274.158 70.4997C274.202 72.1777 275.902 79.3755 275.858 80.347C275.814 81.2964 283.851 92.4244 286.28 92.0932C288.708 91.762 291.689 84.5421 290.077 81.8926C288.465 79.2431 280.208 64.163 279.126 62.5291C278.044 60.8511 276.123 60.542 276.123 60.542Z" fill="#D3405E"/>
<path d="M249.959 52.4165C250.842 54.8673 251.24 59.2169 250.953 60.917C250.666 62.595 251.549 63.8093 253.757 64.4717C255.965 65.1341 258.967 65.0679 261.043 63.3015C263.118 61.5131 263.891 59.7468 263.891 58.7532C263.891 57.7596 262.147 56.4128 261.992 55.5517C261.838 54.6906 261.529 51.4229 261.948 50.1644C262.39 48.9059 263.825 45.6161 262.456 43.077C261.087 40.5599 249.738 45.5278 249.738 45.5278L249.959 52.4165Z" fill="white"/>
<path d="M262.368 56.2585C262.368 56.2585 263.141 57.4508 263.141 58.3339C263.141 59.2171 261.419 62.5952 256.031 63.6771C256.164 64.8473 256.164 64.8473 256.164 64.8473C256.164 64.8473 259.321 67.0111 260.557 67.4747C261.794 67.9163 265.282 63.655 265.525 61.6458C265.768 59.6366 265.481 58.9963 265.172 58.356C264.863 57.7157 261.838 54.6025 261.838 54.6025C261.838 54.6025 261.551 55.3532 262.368 56.2585Z" fill="#D3405E"/>
<path d="M256.052 63.6779L256.185 64.8481C256.185 64.8481 254.352 68.0054 253.866 68.3366C253.381 68.6899 249.826 66.3274 248.987 64.0753C248.148 61.8232 248.413 59.5932 249.914 58.71C251.416 57.8269 251.151 61.6024 251.151 61.6024C251.151 61.6024 253.226 63.8324 256.052 63.6779Z" fill="#D3405E"/>
<path d="M261.641 46.5883C261.575 46.7649 260.758 54.5809 260.184 55.707C259.61 56.8109 253.847 60.9839 252.456 61.2489C251.065 61.5138 249.63 61.2709 249.232 60.719C248.857 60.167 246.958 55.155 246.671 51.4457C246.384 47.7364 246.494 43.3647 247.002 41.3334C247.51 39.3242 247.444 38.706 251.595 37.7345C255.768 36.763 258.947 35.085 260.736 37.3812C262.524 39.6775 261.641 46.5883 261.641 46.5883Z" fill="white"/>
<path d="M249.74 42.0175C250.601 42.1721 251.462 42.1941 252.345 42.1941C253.626 42.1721 254.884 42.0617 256.165 42.1058C256.297 42.1058 256.408 42.1058 256.54 42.15C256.739 42.2162 256.893 42.3487 257.048 42.5032C257.203 42.6799 257.225 42.7461 257.203 42.9669C257.136 43.3423 257.092 43.7176 257.048 44.0709C257.004 44.5787 256.893 45.4398 257.269 45.8372C257.909 46.4996 259.101 47.6698 259.101 47.6698L259.985 52.0415L261.574 51.4453C261.574 51.4453 261.442 49.0387 261.905 47.5152C262.369 46.0138 263.385 46.2125 263.716 47.3165C264.047 48.4205 261.883 49.5907 261.729 51.1583C261.574 52.7259 262.038 55.5962 262.038 55.5962C262.038 55.5962 262.126 53.7636 263.208 52.483C264.312 51.2024 266.432 47.4931 266.741 43.7618C267.05 39.9421 266.984 36.9614 263.716 35.1509C260.051 31.1545 251.042 32.5234 248.614 34.8859C247.51 35.9678 245.81 38.3965 245.832 40.6927C245.854 42.2383 245.567 47.8243 246.538 48.3321C246.472 48.288 246.56 47.4048 246.56 47.2944C246.56 46.9632 246.583 46.61 246.605 46.2788C246.627 45.6606 246.671 45.0644 246.715 44.4683C246.781 43.6293 246.847 42.7903 246.936 41.9292C246.958 41.7746 246.936 41.5097 247.024 41.3551C247.134 41.1564 247.377 41.2889 247.576 41.3551C247.907 41.4655 248.238 41.598 248.57 41.7084C248.945 41.8409 249.32 41.9513 249.74 42.0175Z" fill="black"/>
<path d="M261.067 51.1578C261.155 51.4448 261.707 51.9305 262.502 50.6279C263.297 49.3252 264.555 47.4705 263.716 46.212C262.877 44.9535 262.038 45.9029 261.663 46.764C261.287 47.603 260.89 50.5175 261.067 51.1578Z" fill="white"/>
<path d="M241.393 61.4468C240.841 61.3584 236.558 62.9923 235.697 66.3042C235.277 67.916 234.725 69.4394 233.246 82.2012C232.672 87.1911 234.019 98.6944 235.255 99.2905C236.491 99.8867 242.077 96.2657 242.806 93.5941C243.667 90.4809 243.292 84.365 243.446 77.6087C243.711 68.2692 241.393 61.4468 241.393 61.4468Z" fill="#D3405E"/>
<path d="M251.681 103.972C251.681 103.972 254.375 104.921 255.104 105.186C255.832 105.473 259.895 107.725 260.358 107.814C260.822 107.88 265.679 105.584 265.679 105.584L266.982 105.297C266.982 105.297 268.064 103.906 268.064 103.376C268.042 102.846 267.49 102.404 267.49 102.404L264.818 103.42L261.86 101.322C261.86 101.322 260.888 98.8494 260.579 98.739C260.27 98.6286 254.242 99.1585 254.242 99.1585L247.707 96.9727L251.681 103.972Z" fill="white"/>
<path d="M267.267 102.47C267.267 102.47 266.561 101.631 265.369 101.278C264.176 100.903 263.227 100.859 263.028 101.234C262.851 101.609 263.359 102.802 263.845 103.155C264.331 103.508 265.413 104.215 266.053 104.126C266.693 104.06 268.195 103.464 267.267 102.47Z" fill="#32364C"/>
<path d="M239.364 91.9167C236.958 91.8725 235.743 92.7115 235.103 94.3233C234.728 95.2507 234.595 97.9885 234.949 98.9379C235.302 99.8873 241.197 102.515 245.017 103.53C251.839 105.341 253.716 105.65 253.716 105.65C253.716 105.65 252.7 102.89 253.826 100.13C254.312 98.9379 254.467 98.7171 254.467 98.7171C254.467 98.7171 243.648 93.2415 242.875 92.7115C242.08 92.1596 239.364 91.9167 239.364 91.9167Z" fill="#D3405E"/>
<path d="M266.035 101.609C266.124 101.763 266.366 102.139 266.057 102.47C265.748 102.801 264.931 103.088 264.335 102.625C263.739 102.183 262.215 101.211 262.215 101.211L259.963 100.682C259.963 100.682 257.976 101.145 257.226 100.417C256.497 99.688 255.967 99.2022 256.607 98.9152C257.248 98.6282 261.509 98.4736 261.509 98.4736L264.556 100.019L266.035 101.609Z" fill="white"/>
<path d="M299.195 83.5259C299.195 83.5259 290.871 82.5103 290.275 82.2232C289.678 81.9141 286.234 87.5222 286.035 89.3327C285.837 91.1432 286.146 92.0926 286.146 92.0926C286.146 92.0926 288.42 92.1809 291.688 92.2913C294.955 92.4017 300.343 91.6731 301.138 90.9887C303.257 89.1119 299.195 83.5259 299.195 83.5259Z" fill="#D3405E"/>
<path d="M298.797 84.0117C298.422 84.1883 297.605 84.2104 297.229 85.0273C296.854 85.8443 296.854 87.6547 297.273 88.56C297.671 89.4652 298.377 90.238 298.952 90.3263C299.526 90.4146 300.32 90.238 300.32 90.238C300.32 90.238 303.456 90.5471 304.118 90.4809C304.78 90.4146 310.587 88.9574 311.117 88.3834C311.647 87.8093 311.404 87.0365 311.404 87.0365C311.404 87.0365 313.369 86.6612 313.568 86.2417C313.767 85.8222 313.391 85.2039 313.391 85.2039C313.391 85.2039 313.899 85.204 314.164 84.6299C314.407 84.0558 313.745 83.2168 313.745 83.2168L312.685 83.1727C312.685 83.1727 313.215 81.6934 312.685 81.5167C312.155 81.3401 307.717 81.0751 307.342 81.0531C306.966 81.031 304.273 81.1414 304.273 81.1414L304.383 80.3244C304.383 80.3244 306.105 78.7789 306.613 77.962C307.121 77.1671 307.187 75.9748 306.944 75.5995C306.701 75.2462 305.686 75.1579 305.465 75.7541C305.244 76.3502 304.758 77.123 304.758 77.123C304.758 77.123 301.91 79.1101 301.645 79.4413C301.38 79.7504 299.746 81.8037 299.415 82.3116C299.106 82.7973 298.797 84.0117 298.797 84.0117Z" fill="#F8F8F8"/>
<path d="M120.652 212.654C120.591 212.776 119.573 217.013 119.695 217.522C119.817 218.011 122.567 219.314 124.013 219.172C125.48 219.029 127.272 217.033 127.802 216.605C128.311 216.178 130.918 214.731 130.918 214.731C130.918 214.731 133.77 214.304 134.462 213.754C135.155 213.204 137.436 211.33 137.986 210.413C138.536 209.497 136.968 208.356 136.52 208.091C136.071 207.826 133.994 207.765 133.179 207.826C132.364 207.888 129.818 208.6 129.818 208.6L120.652 212.654Z" fill="#ADADAD"/>
<path d="M153.952 216.219C155.235 216.239 162.629 217.013 163.037 217.258C163.424 217.482 164.666 218.48 164.89 219.315C165.094 220.17 164.992 221.739 164.177 222.411C163.363 223.103 160.429 224.753 160.429 224.753L155.337 225.385L148.432 227.523C148.432 227.523 145.642 227.279 144.685 226.281C143.727 225.283 143.788 224.468 143.788 224.468C143.788 224.468 143.972 221.555 144.848 220.822C145.723 220.068 153.952 216.219 153.952 216.219Z" fill="#ADADAD"/>
<path fill-rule="evenodd" clip-rule="evenodd" d="M119.906 205.457V205.457V205.457C119.86 203.786 119.816 202.191 119.776 200.942C119.674 197.718 119.896 193.232 120.089 189.306L120.09 189.305C120.166 187.749 120.239 186.28 120.285 185.013C120.379 182.083 121.272 178.881 121.915 176.578L121.915 176.577L121.915 176.577C122.25 175.374 122.518 174.417 122.567 173.872C122.689 172.283 122.974 156.783 122.974 156.783C122.974 156.783 122.526 155.316 122.424 153.727C122.403 153.449 122.365 153.067 122.318 152.605C122.097 150.399 121.69 146.35 122.078 142.83L140.572 145.926L140.512 147.098L154.281 145.254L156.766 157.047C156.766 157.047 156.48 189.27 156.562 189.902C156.643 190.533 155.116 210.902 155.116 210.902L155.299 217.664C155.299 217.664 155.197 219.049 154.77 220.047C154.738 220.116 154.706 220.188 154.672 220.265C154.216 221.286 153.459 222.985 151.185 223.591C148.74 224.243 145.644 223.082 145.644 223.082C145.644 223.082 144.911 222.329 144.87 220.984C144.83 219.66 143.832 201.919 143.363 196.522C142.931 191.753 143.533 187.763 143.693 186.701L143.693 186.701L143.693 186.701C143.714 186.561 143.727 186.472 143.73 186.439C143.73 186.154 142.528 175.42 141.815 173.302C141.188 171.472 139.024 164.229 138.413 162.176L137.782 164.115L134.217 177.009L131.223 191.959L130.755 206.095C130.918 205.952 132.364 211.574 130.47 213.55C130.382 213.638 130.28 213.753 130.162 213.887L130.161 213.887C129.923 214.157 129.615 214.506 129.207 214.874C128.494 215.505 127.496 216.177 126.07 216.564C123.402 217.318 120.407 216.075 120.265 215.261C120.162 214.672 120.027 209.809 119.906 205.457Z" fill="black"/>
<path d="M110.326 113.031C110.326 113.072 110.326 113.113 110.326 113.153C110.407 114.64 111.446 116.677 113.198 117.431C115.011 118.205 122.119 117.655 122.119 117.655L122.832 104.069L114.685 102.969L111.894 102.603C111.242 105.719 110.285 111.544 110.326 113.031Z" fill="#F3F3F3"/>
<path d="M110.326 113.153C110.407 114.64 111.446 116.677 113.198 117.43C115.011 118.204 122.119 117.654 122.119 117.654L122.832 104.069L114.685 102.969C114.44 103.661 114.257 104.354 114.318 105.107C114.379 106.004 114.827 107.572 114.542 108.428C114.664 110.363 114.766 112.318 114.562 114.253C114.522 114.579 114.461 114.945 114.216 115.169C114.033 115.312 113.809 115.353 113.585 115.373C112.342 115.475 111.079 114.762 110.55 113.642C110.468 113.52 110.407 113.336 110.326 113.153Z" fill="#F3F3F3"/>
<path d="M119.754 85.3096C118.002 85.6966 115.68 88.3648 114.397 91.5423C113.114 94.7198 110.629 102.847 110.649 103.173C110.669 103.499 109.936 107.572 116.78 108.285C123.624 109.019 119.754 85.3096 119.754 85.3096Z" fill="#9FB8ED"/>
<path d="M114.806 99.323C115.132 101.523 115.661 112.787 115.661 112.787L120.163 133.277C119.531 137.616 119.511 143.38 123.422 146.252C125.703 147.922 128.575 148.533 131.365 149.002C133.28 149.328 135.195 149.613 137.109 149.878C141.876 150.509 148.516 151.344 152.732 148.371C154.85 146.884 155.258 145.417 155.258 145.417L152.61 133.583L151.429 125.313C151.429 125.313 151.754 118.103 151.999 110.811C152.243 103.682 152.427 96.4714 152.182 95.9215C151.693 94.7808 145.135 92.1329 145.135 92.1329C145.135 92.1329 141.611 89.3017 141.02 88.9147C140.429 88.5073 130.571 84.4947 128.942 84.6373C127.292 84.7799 123.137 84.3318 122.322 84.454C121.507 84.5762 118.798 85.0243 116.863 88.2222C114.887 91.42 114.48 97.1232 114.806 99.323Z" fill="#9FB8ED"/>
<path d="M156.255 129.448C156.398 130.08 156.703 130.691 157.172 131.281C158.149 131.465 159.819 130.65 160.858 129.998C160.879 129.998 160.879 129.978 160.879 129.978C161.021 129.876 161.164 129.794 161.286 129.713C162.223 129.041 166.602 124.886 167.091 124.112C167.58 123.338 171.939 117.39 172.305 117.044C172.672 116.697 177.173 115.231 177.56 115.027C177.947 114.824 180.147 113.377 180.147 113.377L181.96 112.359C181.96 112.359 183.691 110.342 183.834 109.955C183.936 109.63 183.915 109.283 183.406 109.304C183.223 109.304 182.877 109.487 182.51 109.731C181.756 110.2 180.881 110.892 180.881 110.892C180.881 110.892 181.349 109.12 181.349 109.059C181.349 109.039 181.308 108.998 181.206 108.937C180.819 108.632 179.699 107.898 179.434 108.163C179.129 108.509 179.129 109.894 179.129 109.894L179.047 110.241L178.884 110.892L177.744 111.972L177.296 111.891L177.581 110.954L178.049 109.446C178.049 109.446 177.988 108.285 177.398 108.326C176.807 108.367 176.379 109.181 176.379 109.181L176.257 110.587L175.3 112.257L174.363 111.442C174.363 111.442 173.874 108.917 173.69 108.815C173.528 108.693 172.794 108.407 172.591 109.507C172.387 110.607 172.489 111.463 172.489 111.463C172.489 111.463 172.224 111.544 171.878 111.707C171.572 111.85 171.165 112.074 170.839 112.4C170.126 113.052 169.087 114.09 168.456 114.62C167.845 115.149 164.321 118.205 164.321 118.205L160.105 120.955L160.064 120.995C160.064 120.995 159.208 121.79 158.292 123.012C157.07 124.641 155.685 127.106 156.255 129.448Z" fill="#F3F3F3"/>
<path d="M149.067 119.08C149.373 120.975 152.856 127.248 153.304 128.124C153.752 129 155.972 131.22 157.54 131.485C159.007 131.729 160.677 130.202 160.86 130.018C160.881 130.018 160.881 129.998 160.881 129.998C160.881 129.998 161.044 129.448 161.227 128.735C161.41 128.002 161.573 127.085 161.553 126.474C161.512 125.272 161.084 123.541 161.084 123.541L160.148 120.934L160.107 120.832C160.107 120.832 159.17 117.471 158.64 116.555C158.6 116.494 158.579 116.453 158.538 116.412C158.05 115.801 148.761 117.166 149.067 119.08Z" fill="#F3F3F3"/>
<path d="M182.508 109.751C181.754 110.22 180.878 110.912 180.878 110.912C180.878 110.912 181.347 109.14 181.347 109.079C181.347 109.059 181.306 109.018 181.204 108.957C181.204 108.957 181.184 108.957 181.184 108.977C180.858 109.201 180.552 109.405 180.247 109.629C179.962 109.833 179.758 110.057 179.432 110.138C179.31 110.179 179.167 110.22 179.045 110.261C178.536 110.424 178.047 110.668 177.599 110.953C177.558 110.974 177.538 110.994 177.497 111.014C176.601 111.605 175.868 112.42 175.175 113.255C175.012 113.458 174.849 113.662 174.707 113.866C174.809 113.927 174.951 113.866 175.053 113.805C176.784 112.929 178.516 112.094 180.267 111.259C180.899 110.974 181.53 110.668 182.039 110.2C182.223 110.057 182.365 109.894 182.508 109.751Z" fill="#F1F1F1"/>
<path d="M149.067 119.08C149.372 120.975 152.855 127.248 153.303 128.124C153.752 129 155.972 131.22 157.54 131.485C159.007 131.729 160.677 130.202 160.86 130.018C160.881 130.018 160.881 129.998 160.881 129.998C161.023 129.896 161.166 129.815 161.288 129.733C162.225 129.061 166.604 124.906 167.093 124.132C167.582 123.358 171.941 117.41 172.307 117.064C172.674 116.718 177.175 115.251 177.562 115.047C177.949 114.844 180.149 113.398 180.149 113.398L181.962 112.379C181.962 112.379 183.693 110.363 183.836 109.976C183.429 110.485 182.919 110.913 182.512 111.442C182.349 111.646 182.247 111.951 182.064 112.135C181.901 112.298 181.636 112.44 181.432 112.542C180.944 112.827 180.414 113.051 179.925 113.316C179.07 113.764 178.316 114.355 177.501 114.864C176.646 115.394 175.729 115.597 174.772 115.842C173.489 116.168 172.104 116.453 171.248 117.532C170.576 118.388 170.026 119.304 169.354 120.16C168.6 121.097 167.908 122.075 167.236 123.073C166.787 123.724 166.238 124.213 165.667 124.763C165.341 125.089 164.995 125.415 164.669 125.741C164.506 125.904 163.854 126.352 163.814 126.576C163.325 127.044 162.856 127.513 162.327 127.941C161.98 128.226 161.573 128.45 161.206 128.694C160.962 128.857 160.697 129.041 160.494 129.244C159.984 129.713 159.312 130.202 158.579 130.242C158.11 130.263 157.642 130.079 157.214 129.896C156.888 129.753 156.562 129.591 156.237 129.407C155.788 129.163 155.381 128.878 155.014 128.511C154.485 128.002 154.077 127.37 153.711 126.739C152.672 125.028 151.735 123.256 150.9 121.423C153.344 120.628 155.809 119.936 157.764 118.225C158.294 117.777 158.783 117.125 158.62 116.494C158.579 116.432 158.559 116.392 158.518 116.351C158.049 115.801 148.761 117.166 149.067 119.08Z" fill="#F1F1F1"/>
<path d="M127.903 86.3484C128.005 86.6743 128.331 86.8984 128.636 87.0613C130.592 88.1001 132.73 88.813 134.93 89.1593C135.949 89.3222 137.089 89.5055 138.108 89.3629C138.515 89.3018 139.411 88.8945 139.819 88.9963H139.92C140.206 88.9759 140.837 88.8945 140.837 88.8945C140.939 88.0797 141.061 83.0487 141.428 82.458C141.794 81.8673 142.792 81.4192 142.792 81.4192C142.792 81.4192 143.77 81.0322 144.585 80.4823C144.829 80.3193 145.013 80.0138 145.176 79.6675C145.542 78.8528 145.685 77.814 145.685 77.814L146.275 71.5812C146.275 71.5812 146.825 64.2485 145.99 63.4338C145.155 62.619 130.551 61.2543 129.573 66.2243C128.596 71.1738 130.164 78.8528 130.042 79.9934C129.94 80.91 129.655 81.8469 129.431 82.7432C129.308 83.1913 129.186 83.6394 129.064 84.0875C128.901 84.6578 128.636 85.0041 128.249 85.4726C128.066 85.6966 127.883 85.941 127.883 86.2262C127.883 86.2466 127.903 86.3077 127.903 86.3484Z" fill="#F1F1F1"/>
<path d="M140.062 76.9379C138.677 78.0785 137.271 80.2987 137.271 80.2987L135.866 81.2764C135.866 81.2764 132.566 81.3171 131.772 80.9097C130.977 80.5024 130.244 79.7487 130.244 79.7487L129.328 78.71C129.328 78.71 127.657 77.2638 127.189 75.9398C126.741 74.6159 124.948 70.2977 125.356 67.2628C125.763 64.2279 126.68 63.1484 127.474 62.5984C128.289 62.0485 128.004 59.6246 132.851 58.2599C137.719 56.8952 139.777 57.6692 142.649 59.3191C145.521 60.9893 146.458 61.7837 146.437 63.5965C146.417 65.4093 145.948 69.0553 145.663 69.3811C145.398 69.707 145.195 71.194 145.195 71.194L145.011 73.2308L144.237 73.7808C144.237 73.7808 143.871 72.4161 143.076 73.3123C142.302 74.2492 140.062 76.9379 140.062 76.9379Z" fill="#383838"/>
<path d="M142.67 77.5694C143.138 77.9971 143.464 77.0602 143.464 77.0602C143.464 77.0602 143.627 75.0437 143.892 74.3511C144.177 73.6586 144.483 72.2532 144.259 72.0699C144.034 71.9069 142.935 73.0068 142.527 74.0252C142.12 75.0029 142.018 76.9379 142.67 77.5694Z" fill="#F1F1F1"/>
<path d="M178.561 111.076C178.948 110.729 179.335 110.383 179.743 110.078C180.109 109.813 180.517 109.63 180.904 109.385C181.23 109.181 181.535 108.917 181.678 108.57C181.902 107.98 181.515 107.511 180.944 107.409C180.659 107.369 180.415 107.491 180.15 107.593C179.783 107.735 179.396 107.878 179.03 108.02C178.867 108.082 178.704 108.163 178.561 108.245C178.235 108.428 178.011 108.693 177.726 108.917C177.441 109.141 177.054 109.243 176.708 109.365C176.26 109.528 175.812 109.691 175.363 109.854C174.997 109.996 174.712 110.159 174.365 110.342C173.591 110.77 172.858 111.218 172.206 111.829C172.043 111.992 171.88 112.155 171.758 112.359C171.575 112.685 171.575 113.092 171.717 113.439C172.104 114.253 172.919 114.416 173.734 114.335C173.999 114.314 174.162 114.192 174.386 114.07C174.956 113.785 175.506 113.459 176.036 113.133C176.993 112.603 177.767 111.809 178.561 111.076Z" fill="#F3F3F3"/>
<path d="M158.31 122.971C158.31 123.113 158.35 123.235 158.472 123.276C159.939 121.687 161.609 120.282 163.442 119.141C164.216 118.653 165.011 118.082 165.703 117.471C166.029 117.186 166.314 116.779 166.681 116.534C167.068 116.269 167.516 116.106 167.883 115.801C168.657 115.19 169.207 114.355 169.838 113.601C170.449 112.888 171.121 112.236 171.875 111.687C171.569 111.829 171.162 112.053 170.836 112.379C170.123 113.031 169.085 114.07 168.453 114.599C167.842 115.129 164.318 118.184 164.318 118.184L160.102 120.934L160.061 120.975C160.102 120.954 159.226 121.749 158.31 122.971Z" fill="#F3F3F3"/>
<path d="M139.917 88.9753C140.202 88.9549 140.833 88.8734 140.833 88.8734C140.935 88.0587 141.057 83.0277 141.424 82.437C141.791 81.8463 142.789 81.3982 142.789 81.3982C142.789 81.3982 143.766 81.0112 144.581 80.4612C144.826 80.2983 145.009 79.9927 145.172 79.6465C145.09 79.6669 145.029 79.6872 144.948 79.7076C144.765 79.7687 144.581 79.8094 144.418 79.9113C144.296 79.9724 144.194 80.0538 144.092 80.0946C143.746 80.3186 143.379 80.4409 142.992 80.5631C142.85 80.6242 142.707 80.6649 142.565 80.6242C142.381 80.6038 142.3 80.4205 142.117 80.502C141.689 80.6649 141.567 81.0112 141.404 81.4185C141.037 82.4166 140.854 83.4554 140.67 84.4942C140.589 84.9423 140.507 85.3904 140.446 85.8385C140.385 86.2866 140.365 86.7347 140.304 87.1828C140.202 87.7939 140.1 88.405 139.917 88.9753Z" fill="#F1F1F1"/>
<path d="M152.139 95.9411C150.388 95.3504 146.681 96.1041 144.827 100.198C142.974 104.292 144.725 109.507 144.705 110.505C144.684 111.503 148.269 120.017 148.779 120.444C149.288 120.872 154.074 120.322 156.03 119.202C157.985 118.082 160.002 117.124 160.144 116.819C160.287 116.513 156.763 107.266 156.763 107.266C156.763 107.266 154.828 99.0575 154.095 98.1409C153.341 97.204 152.139 95.9411 152.139 95.9411Z" fill="#9FB8ED"/>
<rect width="34.3388" height="34.3388" rx="8" transform="matrix(0.866025 0.5 -2.20305e-08 1 165 18.2266)" fill="#F0FAF6"/>
<path d="M172.437 42.4904L175.073 47.1476C175.413 47.7487 175.976 48.0735 176.316 47.8652L187.72 40.8808" stroke="url(#paint1_linear_692_45211)" stroke-width="2" stroke-linecap="round"/>
<rect width="52.2916" height="52.2916" rx="8" transform="matrix(0.866025 0.5 -2.20305e-08 1 336.715 92.0928)" fill="#F0FAF6"/>
<path d="M348.035 129.041L352.373 136.708C352.713 137.309 353.276 137.634 353.616 137.425L371.307 126.59" stroke="url(#paint2_linear_692_45211)" stroke-width="2" stroke-linecap="round"/>
<path d="M66.1412 73.077L66.1412 85.3817C66.1412 90.7202 65.6479 95.6112 64.6612 100.055C63.6745 104.465 62.2509 108.445 60.3903 111.993C58.5579 115.492 56.3731 118.56 53.8359 121.197C51.2987 123.834 48.4796 126.047 45.3786 127.838C42.8978 129.27 40.5862 130.247 38.4436 130.767C36.3011 131.256 34.3701 131.215 32.6504 130.645C30.959 130.059 29.493 128.936 28.2526 127.276C27.0404 125.567 26.1101 123.24 25.4617 120.294C24.8133 117.348 24.4891 113.726 24.4891 109.43L24.4891 97.1249C24.4891 91.7863 24.9825 86.9279 25.9692 82.5497C26.984 78.1226 28.4077 74.1594 30.2401 70.66C32.1007 67.1444 34.2996 64.0845 36.8368 61.4803C39.3739 58.8436 42.193 56.6301 45.294 54.8397C47.7748 53.4074 50.0724 52.4553 52.1867 51.9833C54.3292 51.4624 56.2603 51.4706 57.98 52.0077C59.6996 52.5448 61.1655 53.6678 62.3777 55.3768C63.59 57.0532 64.5203 59.3644 65.1686 62.3104C65.817 65.2238 66.1412 68.8127 66.1412 73.077ZM53.9205 94.2928L53.9205 78.2284C53.9205 75.6568 53.7936 73.4839 53.5399 71.7098C53.3144 69.9195 52.962 68.4953 52.4827 67.4374C52.0035 66.3469 51.4115 65.5819 50.7067 65.1424C50.0019 64.703 49.1985 64.5484 48.2964 64.6786C47.3943 64.8088 46.3935 65.1913 45.294 65.826C43.9127 66.6236 42.6864 67.6408 41.6151 68.8778C40.5721 70.0985 39.684 71.604 38.9511 73.3944C38.2181 75.1522 37.6543 77.2681 37.2596 79.7421C36.8931 82.1672 36.7099 84.9748 36.7099 88.1649L36.7099 104.229C36.7099 106.801 36.8227 108.998 37.0482 110.821C37.3019 112.628 37.6684 114.093 38.1476 115.216C38.6551 116.29 39.2471 117.071 39.9237 117.559C40.6284 117.999 41.4319 118.154 42.334 118.023C43.2643 117.877 44.2792 117.486 45.3786 116.851C46.7318 116.07 47.9299 115.069 48.973 113.848C50.0442 112.579 50.9463 111.049 51.6793 109.259C52.4404 107.419 53.0043 105.271 53.3707 102.813C53.7372 100.356 53.9205 97.5155 53.9205 94.2928ZM85.889 71.0995L76.1631 74.0292L79.6729 35.9676L114.263 15.9969L114.263 27.3739L89.6948 41.5585L88.1724 58.2088C88.99 57.1835 90.2304 55.8814 91.8937 54.3026C93.5569 52.6913 95.4175 51.2915 97.4755 50.1034C100.464 48.3781 103.114 47.3853 105.425 47.1249C107.737 46.8644 109.696 47.2958 111.303 48.4188C112.938 49.5256 114.179 51.3159 115.024 53.7899C115.87 56.2639 116.293 59.3726 116.293 63.1161C116.293 66.2736 115.87 69.5288 115.024 72.8817C114.179 76.202 112.896 79.4816 111.176 82.7206C109.457 85.9269 107.3 88.9136 104.706 91.6805C102.113 94.4475 99.0401 96.8563 95.488 98.9071C92.838 100.437 90.2727 101.462 87.7919 101.983C85.3393 102.488 83.1263 102.415 81.1529 101.764C79.2077 101.096 77.6431 99.8348 76.4591 97.9794C75.3033 96.0751 74.6972 93.4953 74.6408 90.2401L86.7347 83.2577C86.9039 85.1782 87.3549 86.6594 88.0879 87.701C88.849 88.6939 89.8498 89.2228 91.0902 89.2879C92.3306 89.3531 93.7824 88.9055 95.4457 87.9452C96.9962 87.05 98.3212 85.9432 99.4206 84.6249C100.52 83.3065 101.408 81.8498 102.085 80.2547C102.761 78.6271 103.255 76.91 103.565 75.1034C103.903 73.2479 104.072 71.3599 104.072 69.4393C104.072 67.5187 103.875 65.8911 103.48 64.5565C103.085 63.2219 102.479 62.2209 101.662 61.5536C100.844 60.8863 99.8012 60.6096 98.5326 60.7235C97.2922 60.8212 95.8404 61.3501 94.1771 62.3104C91.9218 63.6125 90.174 65.0285 88.9336 66.5585C87.7214 68.0721 86.7065 69.5858 85.889 71.0995Z" fill="url(#paint3_linear_692_45211)" fill-opacity="0.15"/>
<rect width="42.029" height="42.029" rx="8" transform="matrix(0.866025 0.5 -2.20305e-08 1 306.27 7.00391)" fill="#F0FAF6"/>
<rect width="42.029" height="42.029" rx="8" transform="matrix(0.866025 0.5 -2.20305e-08 1 306.27 7.00391)" fill="url(#paint4_linear_692_45211)" fill-opacity="0.7"/>
<path d="M319.414 28.263C320.678 26.1031 321.942 25.391 324.469 26.8503C327.619 28.6687 329.525 32.6556 329.525 35.5421C329.525 37.8544 328.714 37.9287 326.442 38.2252C325.201 38.3872 324.469 39.5366 324.469 41.2174L324.469 41.4437M324.469 48.7404L324.469 50.1997" stroke="white" stroke-width="2" stroke-linecap="round"/>
<rect width="41.2592" height="41.2592" rx="8" transform="matrix(0.866025 0.5 -2.20305e-08 1 197.617 177.471)" fill="#F0FAF6"/>
<rect width="41.2592" height="41.2592" rx="8" transform="matrix(0.866025 0.5 -2.20305e-08 1 197.617 177.471)" fill="url(#paint5_linear_692_45211)" fill-opacity="0.7"/>
<path d="M210.52 198.341C211.76 196.221 213.001 195.521 215.482 196.954C218.574 198.739 220.445 202.653 220.445 205.487C220.445 207.744 219.658 207.829 217.455 208.116C216.214 208.278 215.482 209.426 215.482 211.107L215.482 211.28M215.482 218.443L215.482 219.876" stroke="white" stroke-width="2" stroke-linecap="round"/>
<defs>
<linearGradient id="paint0_linear_692_45211" x1="187.571" y1="25.6994" x2="187.571" y2="245.301" gradientUnits="userSpaceOnUse">
<stop stop-color="#245795"/>
<stop offset="1" stop-color="#8AD3A8"/>
</linearGradient>
<linearGradient id="paint1_linear_692_45211" x1="189.473" y1="33.249" x2="167.845" y2="48.1745" gradientUnits="userSpaceOnUse">
<stop stop-color="#245795"/>
<stop offset="1" stop-color="#86C69F"/>
</linearGradient>
<linearGradient id="paint2_linear_692_45211" x1="373.978" y1="114.968" x2="341.041" y2="137.697" gradientUnits="userSpaceOnUse">
<stop stop-color="#245795"/>
<stop offset="1" stop-color="#86C69F"/>
</linearGradient>
<linearGradient id="paint3_linear_692_45211" x1="-98.9622" y1="54.698" x2="40.9784" y2="289.966" gradientUnits="userSpaceOnUse">
<stop stop-color="#245795"/>
<stop offset="1" stop-color="#8AD3A8"/>
</linearGradient>
<linearGradient id="paint4_linear_692_45211" x1="-1.99347e-08" y1="62.4597" x2="20.0619" y2="-18.1532" gradientUnits="userSpaceOnUse">
<stop stop-color="#245795"/>
<stop offset="1" stop-color="#8AD3A8"/>
</linearGradient>
<linearGradient id="paint5_linear_692_45211" x1="-1.95695e-08" y1="61.3157" x2="19.6945" y2="-17.8207" gradientUnits="userSpaceOnUse">
<stop stop-color="#245795"/>
<stop offset="1" stop-color="#8AD3A8"/>
</linearGradient>
</defs>
</svg>
