<svg width="417" height="365" viewBox="0 0 417 365" fill="none" xmlns="http://www.w3.org/2000/svg">
<g opacity="0.06">
<path fill-rule="evenodd" clip-rule="evenodd" d="M-0.000976562 11.1494H6.19427V21.3245V70.5974V80.7724H-0.000976562L11.1485 91.9219L22.3004 80.7724H16.1052V70.8615H16.1081V70.5974V50.9799H35.927V70.5974V70.8615H35.9299V80.7724H29.7347L40.8866 91.9219L52.036 80.7724H45.8408V70.5974V21.3245V11.1494H52.036L40.8866 0L29.7347 11.1494H35.9299V21.0603H35.927V21.3245V40.9419H16.1081V21.3245V21.0603H16.1052V11.1494H22.3004L11.1485 0L-0.000976562 11.1494Z" fill="#F9F2FF"/>
<path fill-rule="evenodd" clip-rule="evenodd" d="M-0.000976562 102.132H6.19427V112.307V161.58V171.755H-0.000976562L11.1485 182.904L22.3004 171.755H16.1052V161.844H16.1081V161.58V141.962H35.927V161.58V161.844H35.9299V171.755H29.7347L40.8866 182.904L52.036 171.755H45.8408V161.58V112.307V102.132H52.036L40.8866 90.9824L29.7347 102.132H35.9299V112.043H35.927V112.307V131.924H16.1081V112.307V112.043H16.1052V102.132H22.3004L11.1485 90.9824L-0.000976562 102.132Z" fill="#F9F2FF"/>
<path fill-rule="evenodd" clip-rule="evenodd" d="M-0.000976562 193.114H6.19427V203.289V252.562V262.737H-0.000976562L11.1485 273.887L22.3004 262.737H16.1052V252.826H16.1081V252.562V232.945H35.927V252.562V252.826H35.9299V262.737H29.7347L40.8866 273.887L52.036 262.737H45.8408V252.562V203.289V193.114H52.036L40.8866 181.965L29.7347 193.114H35.9299V203.025H35.927V203.289V222.907H16.1081V203.289V203.025H16.1052V193.114H22.3004L11.1485 181.965L-0.000976562 193.114Z" fill="#F9F2FF"/>
<path fill-rule="evenodd" clip-rule="evenodd" d="M-0.000976562 284.095H6.19427V294.272V343.543V353.72H-0.000976562L11.1485 364.869L22.3004 353.72H16.1052V343.809H16.1081V343.543V323.927H35.927V343.543V343.809H35.9299V353.72H29.7347L40.8866 364.869L52.036 353.72H45.8408V343.543V294.272V284.095H52.036L40.8866 272.945L29.7347 284.095H35.9299V294.006H35.927V294.272V313.887H16.1081V294.272V294.006H16.1052V284.095H22.3004L11.1485 272.945L-0.000976562 284.095Z" fill="#F9F2FF"/>
<path fill-rule="evenodd" clip-rule="evenodd" d="M52.0361 11.1494H58.2314V21.3245V70.5974V80.7724H52.0361L63.1856 91.9219L74.3375 80.7724H68.1423V70.8615H68.1452V70.5974V50.9799H87.9641V70.5974V70.8615H87.967V80.7724H81.7718L92.9237 91.9219L104.073 80.7724H97.8779V70.5974V21.3245V11.1494H104.073L92.9237 0L81.7718 11.1494H87.967V21.0603H87.9641V21.3245V40.9419H68.1452V21.3245V21.0603H68.1423V11.1494H74.3375L63.1856 0L52.0361 11.1494Z" fill="#F9F2FF"/>
<path fill-rule="evenodd" clip-rule="evenodd" d="M52.0361 102.132H58.2314V112.307V161.58V171.755H52.0361L63.1856 182.904L74.3375 171.755H68.1423V161.844H68.1452V161.58V141.962H87.9641V161.58V161.844H87.967V171.755H81.7718L92.9237 182.904L104.073 171.755H97.8779V161.58V112.307V102.132H104.073L92.9237 90.9824L81.7718 102.132H87.967V112.043H87.9641V112.307V131.924H68.1452V112.307V112.043H68.1423V102.132H74.3375L63.1856 90.9824L52.0361 102.132Z" fill="#F9F2FF"/>
<path fill-rule="evenodd" clip-rule="evenodd" d="M52.0361 193.114H58.2314V203.289V252.562V262.737H52.0361L63.1856 273.887L74.3375 262.737H68.1423V252.826H68.1452V252.562V232.945H87.9641V252.562V252.826H87.967V262.737H81.7718L92.9237 273.887L104.073 262.737H97.8779V252.562V203.289V193.114H104.073L92.9237 181.965L81.7718 193.114H87.967V203.025H87.9641V203.289V222.907H68.1452V203.289V203.025H68.1423V193.114H74.3375L63.1856 181.965L52.0361 193.114Z" fill="#F9F2FF"/>
<path fill-rule="evenodd" clip-rule="evenodd" d="M52.0361 284.095H58.2314V294.272V343.543V353.72H52.0361L63.1856 364.869L74.3375 353.72H68.1423V343.809H68.1452V343.543V323.927H87.9641V343.543V343.809H87.967V353.72H81.7718L92.9237 364.869L104.073 353.72H97.8779V343.543V294.272V284.095H104.073L92.9237 272.945L81.7718 284.095H87.967V294.006H87.9641V294.272V313.887H68.1452V294.272V294.006H68.1423V284.095H74.3375L63.1856 272.945L52.0361 284.095Z" fill="#F9F2FF"/>
<path fill-rule="evenodd" clip-rule="evenodd" d="M104.073 11.1494H110.268V21.3245V70.5974V80.7724H104.073L115.223 91.9219L126.375 80.7724H120.179V70.8615H120.182V70.5974V50.9799H140.001V70.5974V70.8615H140.004V80.7724H133.809L144.961 91.9219L156.11 80.7724H149.915V70.5974V21.3245V11.1494H156.11L144.961 0L133.809 11.1494H140.004V21.0603H140.001V21.3245V40.9419H120.182V21.3245V21.0603H120.179V11.1494H126.375L115.223 0L104.073 11.1494Z" fill="#F9F2FF"/>
<path fill-rule="evenodd" clip-rule="evenodd" d="M104.073 102.132H110.268V112.307V161.58V171.755H104.073L115.223 182.904L126.375 171.755H120.179V161.844H120.182V161.58V141.962H140.001V161.58V161.844H140.004V171.755H133.809L144.961 182.904L156.11 171.755H149.915V161.58V112.307V102.132H156.11L144.961 90.9824L133.809 102.132H140.004V112.043H140.001V112.307V131.924H120.182V112.307V112.043H120.179V102.132H126.375L115.223 90.9824L104.073 102.132Z" fill="#F9F2FF"/>
<path fill-rule="evenodd" clip-rule="evenodd" d="M104.073 193.114H110.268V203.289V252.562V262.737H104.073L115.223 273.887L126.375 262.737H120.179V252.826H120.182V252.562V232.945H140.001V252.562V252.826H140.004V262.737H133.809L144.961 273.887L156.11 262.737H149.915V252.562V203.289V193.114H156.11L144.961 181.965L133.809 193.114H140.004V203.025H140.001V203.289V222.907H120.182V203.289V203.025H120.179V193.114H126.375L115.223 181.965L104.073 193.114Z" fill="#F9F2FF"/>
<path fill-rule="evenodd" clip-rule="evenodd" d="M104.073 284.095H110.268V294.272V343.543V353.72H104.073L115.223 364.869L126.375 353.72H120.179V343.809H120.182V343.543V323.927H140.001V343.543V343.809H140.004V353.72H133.809L144.961 364.869L156.11 353.72H149.915V343.543V294.272V284.095H156.11L144.961 272.945L133.809 284.095H140.004V294.006H140.001V294.272V313.887H120.182V294.272V294.006H120.179V284.095H126.375L115.223 272.945L104.073 284.095Z" fill="#F9F2FF"/>
<path fill-rule="evenodd" clip-rule="evenodd" d="M156.108 11.1494H162.304V21.3245V70.5974V80.7724H156.108L167.258 91.9219L178.41 80.7724H172.215V70.8615H172.217V70.5974V50.9799H192.036V70.5974V70.8615H192.039V80.7724H185.844L196.996 91.9219L208.145 80.7724H201.95V70.5974V21.3245V11.1494H208.145L196.996 0L185.844 11.1494H192.039V21.0603H192.036V21.3245V40.9419H172.217V21.3245V21.0603H172.215V11.1494H178.41L167.258 0L156.108 11.1494Z" fill="#F9F2FF"/>
<path fill-rule="evenodd" clip-rule="evenodd" d="M156.108 102.132H162.304V112.307V161.58V171.755H156.108L167.258 182.904L178.41 171.755H172.215V161.844H172.217V161.58V141.962H192.036V161.58V161.844H192.039V171.755H185.844L196.996 182.904L208.145 171.755H201.95V161.58V112.307V102.132H208.145L196.996 90.9824L185.844 102.132H192.039V112.043H192.036V112.307V131.924H172.217V112.307V112.043H172.215V102.132H178.41L167.258 90.9824L156.108 102.132Z" fill="#F9F2FF"/>
<path fill-rule="evenodd" clip-rule="evenodd" d="M156.11 193.114H162.306V203.289V252.562V262.737H156.11L167.26 273.887L178.412 262.737H172.216V252.826H172.217V252.562V232.945H192.038V252.562V252.826H192.039V262.737H185.844L196.996 273.887L208.145 262.737H201.95V252.562V203.289V193.114H208.145L196.996 181.965L185.844 193.114H192.039V203.025H192.038V203.289V222.907H172.217V203.289V203.025H172.216V193.114H178.412L167.26 181.965L156.11 193.114Z" fill="#F9F2FF"/>
<path fill-rule="evenodd" clip-rule="evenodd" d="M156.108 284.095H162.304V294.272V343.543V353.72H156.108L167.258 364.869L178.41 353.72H172.215V343.809H172.217V343.543V323.927H192.036V343.543V343.809H192.039V353.72H185.844L196.996 364.869L208.145 353.72H201.95V343.543V294.272V284.095H208.145L196.996 272.945L185.844 284.095H192.039V294.006H192.036V294.272V313.887H172.217V294.272V294.006H172.215V284.095H178.41L167.258 272.945L156.108 284.095Z" fill="#F9F2FF"/>
<path fill-rule="evenodd" clip-rule="evenodd" d="M208.146 11.1494H214.341V21.3245V70.5974V80.7724H208.146L219.295 91.9219L230.447 80.7724H224.252V70.8615H224.255V70.5974V50.9799H244.073V70.5974V70.8615H244.076V80.7724H237.881L249.033 91.9219L260.183 80.7724H253.987V70.5974V21.3245V11.1494H260.183L249.033 0L237.881 11.1494H244.076V21.0603H244.073V21.3245V40.9419H224.255V21.3245V21.0603H224.252V11.1494H230.447L219.295 0L208.146 11.1494Z" fill="#F9F2FF"/>
<path fill-rule="evenodd" clip-rule="evenodd" d="M208.146 102.132H214.341V112.307V161.58V171.755H208.146L219.295 182.904L230.447 171.755H224.252V161.844H224.255V161.58V141.962H244.073V161.58V161.844H244.076V171.755H237.881L249.033 182.904L260.183 171.755H253.987V161.58V112.307V102.132H260.183L249.033 90.9824L237.881 102.132H244.076V112.043H244.073V112.307V131.924H224.255V112.307V112.043H224.252V102.132H230.447L219.295 90.9824L208.146 102.132Z" fill="#F9F2FF"/>
<path fill-rule="evenodd" clip-rule="evenodd" d="M208.146 193.114H214.341V203.289V252.562V262.737H208.146L219.295 273.887L230.447 262.737H224.252V252.826H224.255V252.562V232.945H244.073V252.562V252.826H244.076V262.737H237.881L249.033 273.887L260.183 262.737H253.987V252.562V203.289V193.114H260.183L249.033 181.965L237.881 193.114H244.076V203.025H244.073V203.289V222.907H224.255V203.289V203.025H224.252V193.114H230.447L219.295 181.965L208.146 193.114Z" fill="#F9F2FF"/>
<path fill-rule="evenodd" clip-rule="evenodd" d="M208.146 284.095H214.341V294.272V343.543V353.72H208.146L219.295 364.869L230.447 353.72H224.252V343.809H224.255V343.543V323.927H244.073V343.543V343.809H244.076V353.72H237.881L249.033 364.869L260.183 353.72H253.987V343.543V294.272V284.095H260.183L249.033 272.945L237.881 284.095H244.076V294.006H244.073V294.272V313.887H224.255V294.272V294.006H224.252V284.095H230.447L219.295 272.945L208.146 284.095Z" fill="#F9F2FF"/>
<path fill-rule="evenodd" clip-rule="evenodd" d="M260.183 11.1494H266.378V21.3245V70.5974V80.7724H260.183L271.332 91.9219L282.484 80.7724H276.289V70.8615H276.292V70.5974V50.9799H296.111V70.5974V70.8615H296.114V80.7724H289.918L301.07 91.9219L312.22 80.7724H306.024V70.5974V21.3245V11.1494H312.22L301.07 0L289.918 11.1494H296.114V21.0603H296.111V21.3245V40.9419H276.292V21.3245V21.0603H276.289V11.1494H282.484L271.332 0L260.183 11.1494Z" fill="#F9F2FF"/>
<path fill-rule="evenodd" clip-rule="evenodd" d="M260.183 102.132H266.378V112.307V161.58V171.755H260.183L271.332 182.904L282.484 171.755H276.289V161.844H276.292V161.58V141.962H296.111V161.58V161.844H296.114V171.755H289.918L301.07 182.904L312.22 171.755H306.024V161.58V112.307V102.132H312.22L301.07 90.9824L289.918 102.132H296.114V112.043H296.111V112.307V131.924H276.292V112.307V112.043H276.289V102.132H282.484L271.332 90.9824L260.183 102.132Z" fill="#F9F2FF"/>
<path fill-rule="evenodd" clip-rule="evenodd" d="M260.183 193.114H266.378V203.289V252.562V262.737H260.183L271.332 273.887L282.484 262.737H276.289V252.826H276.292V252.562V232.945H296.111V252.562V252.826H296.114V262.737H289.918L301.07 273.887L312.22 262.737H306.024V252.562V203.289V193.114H312.22L301.07 181.965L289.918 193.114H296.114V203.025H296.111V203.289V222.907H276.292V203.289V203.025H276.289V193.114H282.484L271.332 181.965L260.183 193.114Z" fill="#F9F2FF"/>
<path fill-rule="evenodd" clip-rule="evenodd" d="M260.183 284.095H266.378V294.272V343.543V353.72H260.183L271.332 364.869L282.484 353.72H276.289V343.809H276.292V343.543V323.927H296.111V343.543V343.809H296.114V353.72H289.918L301.07 364.869L312.22 353.72H306.024V343.543V294.272V284.095H312.22L301.07 272.945L289.918 284.095H296.114V294.006H296.111V294.272V313.887H276.292V294.272V294.006H276.289V284.095H282.484L271.332 272.945L260.183 284.095Z" fill="#F9F2FF"/>
<path fill-rule="evenodd" clip-rule="evenodd" d="M312.218 11.1494H318.413V21.3245V70.5974V80.7724H312.218L323.367 91.9219L334.519 80.7724H328.324V70.8615H328.327V70.5974V50.9799H348.146V70.5974V70.8615H348.149V80.7724H341.953L353.105 91.9219L364.255 80.7724H358.06V70.5974V21.3245V11.1494H364.255L353.105 0L341.953 11.1494H348.149V21.0603H348.146V21.3245V40.9419H328.327V21.3245V21.0603H328.324V11.1494H334.519L323.367 0L312.218 11.1494Z" fill="#F9F2FF"/>
<path fill-rule="evenodd" clip-rule="evenodd" d="M312.218 102.132H318.413V112.307V161.58V171.755H312.218L323.367 182.904L334.519 171.755H328.324V161.844H328.327V161.58V141.962H348.146V161.58V161.844H348.149V171.755H341.953L353.105 182.904L364.255 171.755H358.06V161.58V112.307V102.132H364.255L353.105 90.9824L341.953 102.132H348.149V112.043H348.146V112.307V131.924H328.327V112.307V112.043H328.324V102.132H334.519L323.367 90.9824L312.218 102.132Z" fill="#F9F2FF"/>
<path fill-rule="evenodd" clip-rule="evenodd" d="M312.218 193.114H318.413V203.289V252.562V262.737H312.218L323.367 273.887L334.519 262.737H328.324V252.826H328.327V252.562V232.945H348.146V252.562V252.826H348.149V262.737H341.953L353.105 273.887L364.255 262.737H358.06V252.562V203.289V193.114H364.255L353.105 181.965L341.953 193.114H348.149V203.025H348.146V203.289V222.907H328.327V203.289V203.025H328.324V193.114H334.519L323.367 181.965L312.218 193.114Z" fill="#F9F2FF"/>
<path fill-rule="evenodd" clip-rule="evenodd" d="M312.218 284.095H318.413V294.272V343.543V353.72H312.218L323.367 364.869L334.519 353.72H328.324V343.809H328.327V343.543V323.927H348.146V343.543V343.809H348.149V353.72H341.953L353.105 364.869L364.255 353.72H358.06V343.543V294.272V284.095H364.255L353.105 272.945L341.953 284.095H348.149V294.006H348.146V294.272V313.887H328.327V294.272V294.006H328.324V284.095H334.519L323.367 272.945L312.218 284.095Z" fill="#F9F2FF"/>
<path fill-rule="evenodd" clip-rule="evenodd" d="M364.255 11.1494H370.45V21.3245V70.5974V80.7724H364.255L375.404 91.9219L386.556 80.7724H380.361V70.8615H380.364V70.5974V50.9799H400.183V70.5974V70.8615H400.186V80.7724H393.991L405.142 91.9219L416.292 80.7724H410.097V70.5974V21.3245V11.1494H416.292L405.142 0L393.991 11.1494H400.186V21.0603H400.183V21.3245V40.9419H380.364V21.3245V21.0603H380.361V11.1494H386.556L375.404 0L364.255 11.1494Z" fill="#F9F2FF"/>
<path fill-rule="evenodd" clip-rule="evenodd" d="M364.255 102.132H370.45V112.307V161.58V171.755H364.255L375.404 182.904L386.556 171.755H380.361V161.844H380.364V161.58V141.962H400.183V161.58V161.844H400.186V171.755H393.991L405.142 182.904L416.292 171.755H410.097V161.58V112.307V102.132H416.292L405.142 90.9824L393.991 102.132H400.186V112.043H400.183V112.307V131.924H380.364V112.307V112.043H380.361V102.132H386.556L375.404 90.9824L364.255 102.132Z" fill="#F9F2FF"/>
<path fill-rule="evenodd" clip-rule="evenodd" d="M364.255 193.114H370.45V203.289V252.562V262.737H364.255L375.404 273.887L386.556 262.737H380.361V252.826H380.364V252.562V232.945H400.183V252.562V252.826H400.186V262.737H393.991L405.142 273.887L416.292 262.737H410.097V252.562V203.289V193.114H416.292L405.142 181.965L393.991 193.114H400.186V203.025H400.183V203.289V222.907H380.364V203.289V203.025H380.361V193.114H386.556L375.404 181.965L364.255 193.114Z" fill="#F9F2FF"/>
<path fill-rule="evenodd" clip-rule="evenodd" d="M364.255 284.095H370.45V294.272V343.543V353.72H364.255L375.404 364.869L386.556 353.72H380.361V343.809H380.364V343.543V323.927H400.183V343.543V343.809H400.186V353.72H393.991L405.142 364.869L416.292 353.72H410.097V343.543V294.272V284.095H416.292L405.142 272.945L393.991 284.095H400.186V294.006H400.183V294.272V313.887H380.364V294.272V294.006H380.361V284.095H386.556L375.404 272.945L364.255 284.095Z" fill="#F9F2FF"/>
</g>
</svg>
