<svg width="52" height="52" viewBox="0 0 52 52" fill="none" xmlns="http://www.w3.org/2000/svg">
<g clip-path="url(#clip0_1439_10066)">
<path d="M35.9942 34.9785H32.8773L31.2582 34.2579V32.292C33.5252 31.0431 35.3036 29.0131 36.2291 26.5671H37.618C40.9256 26.5671 43.6166 23.8761 43.6166 20.5685C43.6166 18.4328 42.4937 16.5553 40.8082 15.4922V14.8082C40.8083 6.6429 34.1653 0 26 0C17.8347 0 11.1917 6.6429 11.1917 14.8083V15.4918C9.50574 16.5549 8.38256 18.4325 8.38256 20.5685C8.38256 23.8761 11.0736 26.5671 14.3811 26.5671H15.7708C16.6963 29.0131 18.4747 31.0431 20.7417 32.292V34.2498L19.1044 34.9784H16.0057C7.18016 34.9785 0 42.1588 0 50.9844C0 51.5452 0.454695 52 1.01562 52H21.4297C21.9906 52 22.4453 51.5452 22.4453 50.9844C22.4453 50.4235 21.9906 49.9688 21.4297 49.9688H2.06771C2.5741 42.95 8.2873 37.3514 15.3537 37.0252C15.3511 37.0338 15.3474 37.0419 15.345 37.0504C15.2626 37.3399 15.3129 37.6508 15.4821 37.8997L20.2865 44.9627C20.4567 45.213 20.7296 45.3743 21.0309 45.4027C21.0627 45.4057 21.0946 45.4072 21.1264 45.4072C21.3944 45.4072 21.6531 45.301 21.8445 45.1097L25.991 40.9632L30.1374 45.1097C30.3287 45.301 30.5875 45.4072 30.8554 45.4072C30.8871 45.4072 30.919 45.4057 30.9509 45.4027C31.2522 45.3743 31.5251 45.213 31.6953 44.9627L36.4998 37.8997C36.669 37.6509 36.7192 37.3398 36.6369 37.0504C36.6344 37.0416 36.6307 37.0333 36.628 37.0246C43.7029 37.342 49.4255 42.9441 49.9323 49.9689H30.5703C30.0095 49.9689 29.5547 50.4237 29.5547 50.9845C29.5547 51.5453 30.0095 52.0001 30.5703 52.0001H50.9844C51.5452 52.0001 52 51.5453 52 50.9845C52 42.1588 44.8198 34.9785 35.9942 34.9785ZM34.8803 15.8049C32.7937 15.5183 30.8356 14.687 29.1719 13.3707C28.8072 13.0821 28.2928 13.0782 27.9236 13.3615C25.7418 15.0354 23.1319 15.9202 20.3761 15.9202C19.2701 15.9202 18.1795 15.7729 17.1231 15.4866V14.9702C17.1231 10.0757 21.1051 6.09375 25.9996 6.09375C30.8941 6.09375 34.8762 10.0757 34.8762 14.9702C34.8762 14.9702 34.8782 15.7776 34.8803 15.8049ZM37.6181 24.536H36.9319V16.6012H37.6181C39.8058 16.6012 41.5855 18.3809 41.5855 20.5686C41.5855 22.7562 39.8058 24.536 37.6181 24.536ZM26 2.03125C33.0034 2.03125 38.7079 7.69529 38.7754 14.6831C38.4008 14.6096 38.014 14.57 37.618 14.57H36.8993C36.6878 8.74016 31.8802 4.0625 25.9996 4.0625C20.119 4.0625 15.3114 8.74016 15.0999 14.57H14.3812C13.9856 14.57 13.5991 14.6095 13.2246 14.683C13.2922 7.69529 18.9967 2.03125 26 2.03125ZM15.0674 24.536H14.3812C12.1936 24.536 10.4139 22.7562 10.4139 20.5685C10.4139 18.3809 12.1936 16.6011 14.3812 16.6011H15.0675L15.0674 24.536ZM17.0987 22.7099V17.5769C18.1687 17.8255 19.2661 17.9515 20.3761 17.9515C23.3232 17.9515 26.1275 17.0816 28.5335 15.4282C30.4246 16.7611 32.6002 17.5886 34.9005 17.8541V22.7645C34.8947 23.7166 34.7387 24.6336 34.4551 25.4931H29.6051C29.1854 24.3064 28.0528 23.4537 26.7243 23.4537H25.3647C23.6802 23.4537 22.3098 24.8242 22.3098 26.5087C22.3098 28.1932 23.6802 29.5637 25.3647 29.5637H26.7243C28.0529 29.5637 29.1855 28.711 29.6051 27.5244H33.4835C31.8976 29.9813 29.1356 31.6111 26 31.6111C21.0918 31.6111 17.0987 27.6181 17.0987 22.7099ZM27.7482 26.5087C27.7482 27.0733 27.289 27.5325 26.7244 27.5325H25.3648C24.8003 27.5325 24.3412 27.0733 24.3412 26.5087C24.3412 25.9441 24.8003 25.485 25.3648 25.485H26.7244C27.2889 25.485 27.7482 25.9441 27.7482 26.5087ZM26 33.6424C27.1229 33.6424 28.2065 33.472 29.2269 33.1561V34.8544L25.991 38.0904L22.773 34.8725V33.1561C23.7935 33.472 24.8771 33.6424 26 33.6424ZM21.2758 42.8057L17.8452 37.7623L21.2671 36.2394L24.5546 39.5269L21.2758 42.8057ZM30.706 42.8057L27.4273 39.5269L30.7147 36.2394L34.1367 37.7623L30.706 42.8057Z" fill="#FFDF5A"/>
<path d="M26 49.9688C25.7329 49.9688 25.4709 50.0773 25.282 50.2663C25.093 50.4552 24.9844 50.7173 24.9844 50.9844C24.9844 51.2515 25.0929 51.5135 25.282 51.7023C25.4709 51.8912 25.7329 52 26 52C26.2671 52 26.5291 51.8913 26.7179 51.7023C26.907 51.5135 27.0156 51.2515 27.0156 50.9844C27.0156 50.7173 26.907 50.4552 26.7179 50.2663C26.5291 50.0773 26.2671 49.9688 26 49.9688Z" fill="#FFDF5A"/>
</g>
<defs>
<clipPath id="clip0_1439_10066">
<rect width="52" height="52" fill="white"/>
</clipPath>
</defs>
</svg>
