<svg width="45" height="45" viewBox="0 0 45 45" fill="none" xmlns="http://www.w3.org/2000/svg">
<path d="M43.3886 19.8938L38.927 15.4322L42.7219 11.0048C42.7915 10.9237 42.8416 10.8278 42.8686 10.7244C42.8956 10.621 42.8986 10.5128 42.8775 10.4081C42.8564 10.3033 42.8117 10.2048 42.7467 10.1199C42.6818 10.035 42.5984 9.96604 42.5029 9.91822L27.0341 2.18385C26.8939 2.11355 26.7343 2.09222 26.5806 2.12327C26.4269 2.15431 26.288 2.23594 26.1861 2.35513L22.5009 6.6546L18.8156 2.35513C18.7137 2.23605 18.5748 2.15451 18.4211 2.12347C18.2674 2.09243 18.1078 2.11369 17.9676 2.18385L2.49885 9.91822C2.40329 9.96604 2.31988 10.035 2.25497 10.1199C2.19006 10.2048 2.14534 10.3033 2.12423 10.4081C2.10311 10.5128 2.10615 10.621 2.13311 10.7244C2.16008 10.8278 2.21025 10.9237 2.27983 11.0048L6.07474 15.4322L1.61313 19.8938C1.53435 19.9726 1.47543 20.069 1.44121 20.175C1.40699 20.281 1.39846 20.3937 1.41631 20.5036C1.43417 20.6136 1.4779 20.7178 1.5439 20.8075C1.6099 20.8973 1.69629 20.97 1.79594 21.0199L6.32899 23.2865V34.4534C6.32897 34.584 6.36532 34.712 6.43396 34.8231C6.5026 34.9342 6.60081 35.024 6.7176 35.0824L22.1864 42.8167C22.284 42.8656 22.3917 42.8911 22.5009 42.8911C22.61 42.8911 22.7177 42.8656 22.8154 42.8167L38.2841 35.0824C38.4009 35.024 38.4991 34.9342 38.5678 34.8231C38.6364 34.712 38.6728 34.584 38.6727 34.4534V23.2865L43.206 21.0199C43.3056 20.97 43.392 20.8972 43.458 20.8075C43.524 20.7177 43.5677 20.6135 43.5855 20.5036C43.6033 20.3936 43.5948 20.281 43.5605 20.175C43.5263 20.0689 43.4674 19.9726 43.3886 19.8938ZM22.5009 22.4172L8.60451 15.469L22.5009 8.5209L36.3972 15.469L22.5009 22.4172ZM26.8961 3.68727L41.0684 10.7734L37.7931 14.5946L23.6208 7.5084L26.8961 3.68727ZM18.1056 3.68727L21.3809 7.5084L7.2086 14.5946L3.9333 10.7734L18.1056 3.68727ZM7.17084 16.3246L21.3136 23.396L17.4403 27.2697L3.29746 20.1983L7.17084 16.3246ZM7.73524 23.9897L17.2645 28.7542C17.3969 28.8184 17.5459 28.8401 17.6911 28.8166C17.8364 28.793 17.9708 28.7252 18.0761 28.6224L21.7977 24.9008V41.05L7.73524 34.0187V23.9897ZM37.2665 34.0187L23.204 41.05V24.9008L26.9256 28.6224C27.0325 28.7225 27.1668 28.7885 27.3114 28.8119C27.4559 28.8354 27.6042 28.8153 27.7372 28.7542L37.2665 23.9897V34.0187ZM37.6551 22.2229L27.5615 27.2697L23.6881 23.396L37.8309 16.3246L41.7043 20.1983L37.6551 22.2229Z" fill="#FFD9B7"/>
</svg>
