<svg width="42" height="42" viewBox="0 0 42 42" fill="none" xmlns="http://www.w3.org/2000/svg">
<g clip-path="url(#clip0_1439_8166)">
<path d="M12.7977 30.3516C12.3449 30.3516 11.9774 30.7191 11.9774 31.1719C11.9774 31.6247 12.3449 31.9922 12.7977 31.9922C13.2505 31.9922 13.618 31.6247 13.618 31.1719C13.618 30.7191 13.2505 30.3516 12.7977 30.3516Z" fill="#FFDF5A"/>
<path d="M36.9268 15.5859L41.7608 10.7518C41.9642 10.5485 42.0461 10.2535 41.977 9.97443C41.9078 9.69527 41.6975 9.47281 41.4227 9.38798L29.6512 5.75482C28.5901 2.34388 25.4361 0 21.8212 0C18.4609 0 15.4556 2.04791 14.2118 5.13721L0.577037 9.38872C0.302971 9.4742 0.0934632 9.69683 0.024803 9.97566C-0.0438572 10.2544 0.0381741 10.5489 0.241201 10.7519L5.20237 15.7131L2.07337 20.9282C1.94532 21.1416 1.92112 21.4015 2.00742 21.6349C2.09371 21.8683 2.28132 22.0498 2.5174 22.1285L7.05562 23.6412V36.2577C7.05562 36.5996 7.26775 36.9057 7.58792 37.0258C10.3628 38.0663 20.6729 41.9331 20.7283 41.9527C20.891 42.01 21.0744 42.0178 21.2531 41.96C21.2555 41.9591 21.2579 41.9587 21.2603 41.9578L36.0259 37.036C36.3609 36.9243 36.5869 36.6108 36.5869 36.2577V23.3034L41.4266 21.7825C41.7002 21.6965 41.9091 21.4739 41.9774 21.1953C42.0456 20.9167 41.9635 20.6227 41.7607 20.4199L36.9268 15.5859ZM30.0244 8.20312C30.0244 7.99468 30.0156 7.78673 29.9999 7.57944L39.6381 10.5543L35.545 14.6473L28.8571 12.4183C29.6145 11.1525 30.0244 9.69183 30.0244 8.20312ZM15.6137 6.06802C16.5243 3.41988 19.019 1.64062 21.8212 1.64062C24.8401 1.64062 27.4584 3.68255 28.1883 6.60614C28.318 7.12564 28.3837 7.66295 28.3837 8.20312C28.3837 9.72677 27.8781 11.1549 26.9213 12.3336C25.6681 13.8792 23.8092 14.7656 21.8212 14.7656C19.6724 14.7656 17.6568 13.7109 16.4291 11.9434C15.6635 10.8437 15.2587 9.55024 15.2587 8.20312C15.2587 7.4705 15.3781 6.75216 15.6137 6.06802ZM2.36056 10.5511L13.7055 7.01359C13.6486 7.40554 13.6181 7.80257 13.6181 8.20304C13.6181 9.52383 13.931 10.8031 14.5274 11.9574L6.45687 14.6473L2.36056 10.5511ZM4.00635 20.8954L6.60018 16.5722L19.7714 20.9626L17.1776 25.2858C15.7712 24.817 5.50802 21.3959 4.00635 20.8954ZM20.1806 39.996L8.69624 35.6893V24.1881C17.732 27.184 17.2907 27.0925 17.5423 27.0925C17.8244 27.0925 18.0944 26.9466 18.2459 26.6942L20.1806 23.4695V39.996ZM21.0009 19.6431L8.82946 15.586L15.4571 13.3769C17.0083 15.2839 19.3435 16.4062 21.8212 16.4062C24.1134 16.4062 26.2676 15.463 27.8171 13.801L33.1724 15.5859L21.0009 19.6431ZM34.9462 35.6665L21.8212 40.0415V22.8461L24.7293 26.4809C24.9409 26.7453 25.2931 26.8524 25.6158 26.751L34.9462 23.819V35.6665ZM25.6596 25.0176L22.3764 20.9139L35.545 16.5245L39.6436 20.6231L25.6596 25.0176Z" fill="#FFDF5A"/>
<path d="M18.0082 32.1721L16.1838 31.488C15.7596 31.329 15.2868 31.5438 15.1276 31.968C14.9686 32.3923 15.1835 32.8651 15.6077 33.0242L17.4321 33.7083C17.8571 33.8676 18.3294 33.6517 18.4882 33.2283C18.6473 32.8041 18.4324 32.3312 18.0082 32.1721Z" fill="#FFDF5A"/>
<path d="M18.008 35.6774L13.0862 33.8317C12.662 33.6727 12.1892 33.8876 12.03 34.3118C11.8709 34.736 12.0859 35.2089 12.5101 35.3679L17.4319 37.2136C17.5268 37.2492 17.6241 37.2661 17.7199 37.2661C18.052 37.2661 18.3646 37.063 18.4881 36.7336C18.6472 36.3093 18.4323 35.8365 18.008 35.6774Z" fill="#FFDF5A"/>
<path d="M26.5029 5.16215C26.1826 4.84174 25.6632 4.84182 25.3428 5.16215L21.0009 9.50407L19.9404 8.44349C19.62 8.12315 19.1006 8.12315 18.7802 8.44349C18.4598 8.76382 18.4599 9.28324 18.7802 9.60365L20.4209 11.2442C20.7412 11.5645 21.2607 11.5645 21.5811 11.2442L26.5029 6.32232C26.8233 6.00199 26.8233 5.48257 26.5029 5.16215Z" fill="#FFDF5A"/>
</g>
<defs>
<clipPath id="clip0_1439_8166">
<rect width="42" height="42" fill="white" transform="translate(0.000976562)"/>
</clipPath>
</defs>
</svg>
