<svg width="53" height="53" viewBox="0 0 53 53" fill="none" xmlns="http://www.w3.org/2000/svg">
<g clip-path="url(#clip0_1439_8205)">
<path d="M40.0313 31.5098C36.3475 31.5098 33.3506 34.5066 33.3506 38.1905C33.3506 41.8743 36.3475 44.8711 40.0313 44.8711C43.7157 44.8711 46.712 41.8743 46.712 38.1905C46.712 34.5066 43.7151 31.5098 40.0313 31.5098ZM40.0313 41.5308C38.1891 41.5308 36.6909 40.0326 36.6909 38.1905C36.6909 36.3483 38.1891 34.8501 40.0313 34.8501C41.8734 34.8501 43.3716 36.3483 43.3716 38.1905C43.3716 40.0327 41.8734 41.5308 40.0313 41.5308Z" fill="#EE6F57"/>
<path d="M17.2012 31.5098C13.5174 31.5098 10.5205 34.5066 10.5205 38.1905C10.5205 41.8743 13.5174 44.8711 17.2012 44.8711C20.885 44.8711 23.8819 41.8743 23.8819 38.1905C23.8819 34.5066 20.885 31.5098 17.2012 31.5098ZM17.2012 41.5308C15.359 41.5308 13.8609 40.0326 13.8609 38.1905C13.8609 36.3483 15.359 34.8501 17.2012 34.8501C19.0428 34.8501 20.5415 36.3483 20.5415 38.1905C20.5415 40.0327 19.0434 41.5308 17.2012 41.5308Z" fill="#EE6F57"/>
<path d="M44.5261 12.3885C44.2422 11.8245 43.6649 11.4688 43.0335 11.4688H34.2373V14.8091H42.0036L46.5514 23.8547L49.5366 22.3537L44.5261 12.3885Z" fill="#EE6F57"/>
<path d="M35.0194 36.5762H22.3818V39.9165H35.0194V36.5762Z" fill="#EE6F57"/>
<path d="M12.1934 36.5762H6.40352C5.48099 36.5762 4.7334 37.3239 4.7334 38.2463C4.7334 39.1688 5.48109 39.9164 6.40352 39.9164H12.1935C13.116 39.9164 13.8636 39.1687 13.8636 38.2463C13.8636 37.3238 13.1159 36.5762 12.1934 36.5762Z" fill="#EE6F57"/>
<path d="M52.6505 26.3671L49.3653 22.136C49.0497 21.7285 48.5625 21.4902 48.0464 21.4902H35.9098V9.79903C35.9098 8.8765 35.1621 8.12891 34.2397 8.12891H6.40352C5.48099 8.12891 4.7334 8.8766 4.7334 9.79903C4.7334 10.7215 5.48109 11.4691 6.40352 11.4691H32.5695V23.1603C32.5695 24.0828 33.3172 24.8304 34.2396 24.8304H47.2285L49.6608 27.9636V36.5773H45.04C44.1175 36.5773 43.3699 37.325 43.3699 38.2474C43.3699 39.1699 44.1176 39.9175 45.04 39.9175H51.331C52.2535 39.9175 53.0011 39.1698 53.0012 38.2474V27.3915C53.0012 27.0207 52.8776 26.66 52.6505 26.3671Z" fill="#EE6F57"/>
<path d="M12.0844 28.1152H4.40157C3.47904 28.1152 2.73145 28.8629 2.73145 29.7854C2.73145 30.7079 3.47914 31.4555 4.40157 31.4555H12.0843C13.0068 31.4555 13.7544 30.7078 13.7544 29.7854C13.7545 28.8629 13.0068 28.1152 12.0844 28.1152Z" fill="#EE6F57"/>
<path d="M15.9232 21.5449H1.6711C0.74867 21.5449 0.000976562 22.2926 0.000976562 23.2151C0.000976562 24.1377 0.74867 24.8853 1.6711 24.8853H15.9232C16.8458 24.8853 17.5934 24.1376 17.5934 23.2151C17.5934 22.2927 16.8458 21.5449 15.9232 21.5449Z" fill="#EE6F57"/>
<path d="M18.6537 14.9766H4.40157C3.47904 14.9766 2.73145 15.7243 2.73145 16.6467C2.73145 17.5692 3.47914 18.3168 4.40157 18.3168H18.6537C19.5762 18.3168 20.3238 17.5691 20.3238 16.6467C20.3239 15.7243 19.5762 14.9766 18.6537 14.9766Z" fill="#EE6F57"/>
</g>
<defs>
<clipPath id="clip0_1439_8205">
<rect width="53" height="53" fill="white" transform="translate(0.000976562)"/>
</clipPath>
</defs>
</svg>
