<svg width="44" height="44" viewBox="0 0 44 44" fill="none" xmlns="http://www.w3.org/2000/svg">
<g clip-path="url(#clip0_1439_10138)">
<path d="M13.4062 31.7969C12.9319 31.7969 12.5469 32.1819 12.5469 32.6562C12.5469 33.1306 12.9319 33.5156 13.4062 33.5156C13.8806 33.5156 14.2656 33.1306 14.2656 32.6562C14.2656 32.1819 13.8806 31.7969 13.4062 31.7969Z" fill="#FFDF5A"/>
<path d="M38.6842 16.328L43.7484 11.2638C43.9614 11.0508 44.0473 10.7418 43.9749 10.4494C43.9024 10.157 43.6821 9.92389 43.3942 9.83503L31.0621 6.02886C29.9505 2.45549 26.6463 0 22.8593 0C19.339 0 16.1906 2.14543 14.8875 5.38184L0.603492 9.83581C0.316375 9.92535 0.0968907 10.1586 0.024961 10.4507C-0.0469687 10.7427 0.0389688 11.0512 0.251664 11.2639L5.44908 16.4613L2.17108 21.9248C2.03693 22.1483 2.01158 22.4207 2.10198 22.6652C2.19239 22.9096 2.38893 23.0998 2.63626 23.1822L7.39058 24.7669V37.9843C7.39058 38.3425 7.61281 38.6631 7.94823 38.7889C10.8552 39.879 21.6563 43.9299 21.7143 43.9504C21.8848 44.0105 22.0769 44.0187 22.2641 43.9581C22.2666 43.9572 22.2692 43.9567 22.2717 43.9558L37.7404 38.7996C38.0913 38.6826 38.3281 38.3542 38.3281 37.9843V24.413L43.3982 22.8198C43.6849 22.7297 43.9037 22.4965 43.9753 22.2046C44.0468 21.9128 43.9608 21.6048 43.7483 21.3923L38.6842 16.328ZM31.4531 8.59375C31.4531 8.37538 31.4439 8.15753 31.4275 7.94037L41.5246 11.0569L37.2366 15.3448L30.2303 13.0096C31.0236 11.6835 31.4531 10.1533 31.4531 8.59375ZM16.3562 6.35697C17.3102 3.58273 19.9236 1.71875 22.8593 1.71875C26.0219 1.71875 28.7649 3.85791 29.5296 6.92072C29.6655 7.46496 29.7343 8.02785 29.7343 8.59375C29.7343 10.19 29.2046 11.686 28.2022 12.9209C26.8894 14.5401 24.9419 15.4688 22.8593 15.4688C20.6081 15.4688 18.4965 14.3638 17.2104 12.5122C16.4083 11.3601 15.9843 10.005 15.9843 8.59375C15.9843 7.82624 16.1094 7.07369 16.3562 6.35697ZM2.47195 11.0535L14.3571 7.34757C14.2975 7.75818 14.2656 8.17412 14.2656 8.59367C14.2656 9.97734 14.5933 11.3175 15.2181 12.5268L6.76332 15.3448L2.47195 11.0535ZM4.19611 21.8904L6.91345 17.3614L20.7118 21.9608L17.9946 26.4899C16.5212 25.9988 5.76928 22.4147 4.19611 21.8904ZM21.1406 41.9005L9.10933 37.3888V25.3399C18.5753 28.4785 18.1131 28.3827 18.3767 28.3827C18.6721 28.3827 18.955 28.2298 19.1137 27.9654L21.1406 24.5871V41.9005ZM22 20.5785L9.24889 16.3282L16.1921 14.0139C17.8172 16.0117 20.2636 17.1875 22.8593 17.1875C25.2606 17.1875 27.5174 16.1993 29.1407 14.4582L34.751 16.3281L22 20.5785ZM36.6093 37.3649L22.8593 41.9482V23.934L25.9059 27.7419C26.1275 28.0189 26.4965 28.1311 26.8346 28.0249L36.6093 24.9532V37.3649ZM26.8805 26.209L23.441 21.9099L37.2366 17.3113L41.5304 21.6051L26.8805 26.209Z" fill="#FFDF5A"/>
<path d="M18.8649 33.7033L16.9536 32.9865C16.5092 32.82 16.0139 33.0451 15.8472 33.4895C15.6805 33.9339 15.9057 34.4293 16.3501 34.5959L18.2613 35.3126C18.7067 35.4795 19.2014 35.2533 19.3678 34.8097C19.5344 34.3653 19.3093 33.8699 18.8649 33.7033Z" fill="#FFDF5A"/>
<path d="M18.8645 37.3772L13.7083 35.4436C13.2639 35.277 12.7686 35.5021 12.6019 35.9465C12.4351 36.3909 12.6604 36.8863 13.1048 37.053L18.261 38.9866C18.3604 39.0239 18.4624 39.0416 18.5626 39.0416C18.9106 39.0416 19.238 38.8287 19.3675 38.4837C19.5342 38.0392 19.309 37.5438 18.8645 37.3772Z" fill="#FFDF5A"/>
<path d="M27.7641 5.40797C27.4285 5.0723 26.8844 5.07239 26.5487 5.40797L22.0001 9.95664L20.889 8.84556C20.5534 8.50997 20.0093 8.50997 19.6736 8.84556C19.3379 9.18114 19.338 9.7253 19.6736 10.061L21.3924 11.7796C21.728 12.1152 22.2722 12.1152 22.6078 11.7796L27.7641 6.62339C28.0997 6.2878 28.0997 5.74364 27.7641 5.40797Z" fill="#FFDF5A"/>
</g>
<defs>
<clipPath id="clip0_1439_10138">
<rect width="44" height="44" fill="white"/>
</clipPath>
</defs>
</svg>
