<svg width="66" height="66" viewBox="0 0 66 66" fill="none" xmlns="http://www.w3.org/2000/svg">
<path d="M33.0008 9.89355C23.2877 9.89355 15.3857 17.7955 15.3857 27.5086C15.3857 32.5334 17.5411 37.3312 21.2974 40.6738C22.7154 41.9345 23.4347 43.5368 23.4347 45.4343V47.8951C23.4347 49.0308 24.2996 49.9692 25.4043 50.0852V53.8596H24.7998C24.3731 53.8596 24.0263 54.2064 24.0263 54.633C24.0263 55.0597 24.3731 55.4065 24.7998 55.4065H25.4043V58.45H24.7998C24.3731 58.45 24.0263 58.7967 24.0263 59.2234C24.0263 59.6501 24.3731 59.9968 24.7998 59.9968H25.6841L27.8226 63.6255C28.2287 64.3152 28.9209 64.7096 29.7201 64.7096H36.9234C37.7239 64.7096 38.4148 64.3139 38.8209 63.6255L40.9595 59.9968H41.8438C42.2704 59.9968 42.6172 59.6501 42.6172 59.2234C42.6172 58.7967 42.2704 58.45 41.8438 58.45H41.2392V55.4065H41.8438C42.2704 55.4065 42.6172 55.0597 42.6172 54.633C42.6172 54.2064 42.2704 53.8596 41.8438 53.8596H41.2392V49.9151C42.0191 49.5761 42.5656 48.7987 42.5656 47.8951V45.4343C42.5656 43.5368 43.2849 41.9345 44.7029 40.6738C48.4605 37.3312 50.6145 32.5334 50.6145 27.5086C50.6158 17.7955 42.7139 9.89355 33.0008 9.89355ZM37.4893 62.8418C37.3656 63.0532 37.1696 63.1641 36.9247 63.1641H29.7214C29.4765 63.1641 29.2805 63.0519 29.1568 62.8418L27.481 59.9981H39.1664L37.4893 62.8418ZM39.6936 58.4513H26.9525V55.4078H39.6936V58.4513ZM26.9512 53.8596V50.0981H39.6923V53.8596H26.9512ZM43.6755 39.5175C41.9379 41.0631 41.02 43.1088 41.02 45.4343V47.8951C41.02 48.2573 40.7261 48.5513 40.3639 48.5513H25.6377C25.2754 48.5513 24.9815 48.2573 24.9815 47.8951V45.4343C24.9815 43.1088 24.0637 41.0631 22.3261 39.5175C18.8984 36.4689 16.9326 32.0912 16.9326 27.5086C16.9326 18.6489 24.1411 11.4404 33.0008 11.4404C41.8605 11.4404 49.0689 18.6489 49.0689 27.5086C49.0689 32.0925 47.1031 36.4689 43.6755 39.5175ZM32.2273 6.35121V2.0625C32.2273 1.63582 32.5741 1.28906 33.0008 1.28906C33.4275 1.28906 33.7742 1.63582 33.7742 2.0625V6.35121C33.7742 6.77789 33.4275 7.12465 33.0008 7.12465C32.5741 7.12465 32.2273 6.77918 32.2273 6.35121ZM42.9098 8.79914L45.0548 5.08535C45.2688 4.71539 45.7419 4.58906 46.1118 4.80176C46.4818 5.01574 46.6081 5.48883 46.3954 5.85879L44.2504 9.57258C44.1073 9.82008 43.847 9.9593 43.5801 9.9593C43.4486 9.9593 43.3159 9.92578 43.1947 9.85617C42.8234 9.64219 42.6958 9.1691 42.9098 8.79914ZM50.6532 17.3173C50.4392 16.9473 50.5668 16.4742 50.9368 16.2602L54.6506 14.1152C55.0206 13.9025 55.4936 14.0289 55.7076 14.3988C55.9216 14.7688 55.794 15.2419 55.424 15.4559L51.7102 17.6009C51.5891 17.6718 51.455 17.704 51.3248 17.704C51.0567 17.704 50.7976 17.5648 50.6532 17.3173ZM59.2203 27.5086C59.2203 27.9353 58.8736 28.282 58.4469 28.282H54.1582C53.7315 28.282 53.3847 27.9353 53.3847 27.5086C53.3847 27.0819 53.7315 26.7352 54.1582 26.7352H58.4469C58.8748 26.7352 59.2203 27.0819 59.2203 27.5086ZM55.7076 40.6184C55.5645 40.8659 55.3041 41.0051 55.0373 41.0051C54.9058 41.0051 54.7731 40.9716 54.6519 40.902L50.9381 38.757C50.5681 38.543 50.4418 38.0699 50.6545 37.6999C50.8685 37.33 51.3416 37.2036 51.7115 37.4163L55.4253 39.5613C55.7953 39.7753 55.9216 40.2484 55.7076 40.6184ZM19.6074 5.85879C19.3934 5.48883 19.5211 5.01574 19.891 4.80176C20.261 4.58777 20.7341 4.71539 20.948 5.08535L23.093 8.79914C23.307 9.1691 23.1794 9.64219 22.8095 9.85617C22.6883 9.92707 22.5542 9.9593 22.424 9.9593C22.1572 9.9593 21.8968 9.82008 21.7537 9.57258L19.6074 5.85879ZM10.2939 14.3988C10.5079 14.0289 10.981 13.9025 11.351 14.1152L15.0648 16.2602C15.4347 16.4742 15.5611 16.9473 15.3484 17.3173C15.2053 17.5648 14.9449 17.704 14.678 17.704C14.5466 17.704 14.4138 17.6705 14.2926 17.6009L10.5763 15.4559C10.2063 15.2419 10.08 14.7688 10.2939 14.3988ZM11.8434 28.282H7.55469C7.12801 28.282 6.78125 27.9353 6.78125 27.5086C6.78125 27.0819 7.12801 26.7352 7.55469 26.7352H11.8434C12.2701 26.7352 12.6168 27.0819 12.6168 27.5086C12.6168 27.9353 12.2701 28.282 11.8434 28.282ZM15.3484 37.7012C15.5623 38.0712 15.4347 38.5443 15.0648 38.7582L11.3497 40.902C11.2285 40.9729 11.0945 41.0051 10.9643 41.0051C10.6974 41.0051 10.437 40.8659 10.2939 40.6184C10.08 40.2484 10.2076 39.7753 10.5775 39.5613L14.2913 37.4163C14.6613 37.2036 15.1344 37.3312 15.3484 37.7012ZM43.7812 24.1158L42.2885 24.0462C42.1003 23.4184 41.8476 22.8087 41.5357 22.2299L42.5424 21.1252C43.04 20.5786 43.0207 19.7407 42.4986 19.2173L40.614 17.3327C40.0906 16.8094 39.2527 16.79 38.7062 17.2889L37.6014 18.2957C37.0227 17.9837 36.4129 17.7311 35.7852 17.5429L35.7155 16.0501C35.6807 15.3115 35.0749 14.7327 34.335 14.7327H31.6692C30.9293 14.7327 30.3234 15.3115 30.2886 16.0501L30.219 17.5429C29.5912 17.7311 28.9815 17.9837 28.4027 18.2957L27.298 17.2889C26.7514 16.79 25.9135 16.8107 25.3902 17.3327L23.5055 19.2173C22.9822 19.7407 22.9629 20.5786 23.4617 21.1252L24.4685 22.2299C24.1565 22.8087 23.9039 23.4184 23.7157 24.0462L22.2229 24.1158C21.4843 24.1506 20.9055 24.7564 20.9055 25.4964V28.1621C20.9055 28.9021 21.4843 29.5079 22.2229 29.5427L23.7157 29.6123C23.9039 30.2401 24.1565 30.8498 24.4685 31.4286L23.4617 32.5334C22.9641 33.0799 22.9835 33.9178 23.5055 34.4412L25.3902 36.3258C25.9135 36.8491 26.7514 36.8685 27.298 36.3696L28.4027 35.3629C28.9815 35.6748 29.5912 35.9275 30.219 36.1157L30.2886 37.6084C30.3234 38.347 30.9293 38.9258 31.6692 38.9258H34.335C35.0749 38.9258 35.6807 38.347 35.7155 37.6084L35.7852 36.1157C36.4129 35.9275 37.0227 35.6748 37.6014 35.3629L38.7062 36.3696C39.2527 36.8672 40.0906 36.8479 40.614 36.3258L42.4986 34.4412C43.022 33.9178 43.0413 33.0799 42.5424 32.5334L41.5357 31.4286C41.8476 30.8498 42.1003 30.2401 42.2885 29.6123L43.7812 29.5427C44.5198 29.5079 45.0986 28.9021 45.0986 28.1621V25.4964C45.0986 24.7564 44.5198 24.1506 43.7812 24.1158ZM43.5518 28.0049L42.099 28.0719C41.506 28.099 40.9981 28.5012 40.8344 29.0722C40.6656 29.6652 40.4271 30.2401 40.1254 30.7802C39.8367 31.2997 39.9114 31.943 40.3123 32.3825L41.292 33.4576L39.6291 35.1205L38.5528 34.1395C38.1132 33.7399 37.47 33.6652 36.9505 33.9526C36.4091 34.253 35.8354 34.4914 35.2425 34.6616C34.6714 34.8253 34.2692 35.3332 34.2422 35.9262L34.1751 37.3789H31.8239L31.7568 35.9262C31.7298 35.3332 31.3276 34.8253 30.7565 34.6616C30.1636 34.4927 29.5886 34.2543 29.0485 33.9526C28.529 33.6639 27.8858 33.7386 27.4462 34.1395L26.3711 35.1192L24.7082 33.4576L25.6892 32.3813C26.0888 31.9417 26.1636 31.2984 25.8761 30.7789C25.5758 30.2388 25.3373 29.6639 25.1672 29.0709C25.0034 28.4999 24.4956 28.0977 23.9026 28.0706L22.4498 28.0036V25.6523L23.9026 25.5853C24.4956 25.5582 25.0034 25.1561 25.1672 24.585C25.3373 23.992 25.5745 23.4171 25.8761 22.877C26.1649 22.3575 26.0901 21.7143 25.6892 21.2747L24.7095 20.1983L26.3711 18.5367L27.4475 19.5164C27.8871 19.916 28.5303 19.9921 29.0498 19.7033C29.5899 19.403 30.1648 19.1645 30.7578 18.9943C31.3289 18.8306 31.7311 18.3227 31.7581 17.7298L31.8252 16.277H34.1764L34.2434 17.7298C34.2705 18.3227 34.6727 18.8306 35.2438 18.9943C35.8367 19.1632 36.4116 19.4017 36.9518 19.7033C37.4713 19.9921 38.1145 19.9173 38.5541 19.5164L39.6291 18.5367L41.292 20.1983L40.3111 21.2747C39.9114 21.7143 39.8367 22.3575 40.1254 22.877C40.4258 23.4171 40.6643 23.992 40.8344 24.585C40.9981 25.1561 41.506 25.5582 42.099 25.5853L43.5518 25.6523V28.0049ZM33.0008 21.0233C29.8 21.0233 27.1948 23.6272 27.1948 26.8293C27.1948 30.03 29.7988 32.6352 33.0008 32.6352C36.2015 32.6352 38.8067 30.0313 38.8067 26.8293C38.8067 23.6272 36.2028 21.0233 33.0008 21.0233ZM33.0008 31.0883C30.6521 31.0883 28.7417 29.1779 28.7417 26.8293C28.7417 24.4806 30.6521 22.5702 33.0008 22.5702C35.3495 22.5702 37.2598 24.4806 37.2598 26.8293C37.2598 29.1779 35.3495 31.0883 33.0008 31.0883Z" fill="white"/>
</svg>
