<svg width="76" height="76" viewBox="0 0 76 76" fill="none" xmlns="http://www.w3.org/2000/svg">
<circle cx="37.8048" cy="38.133" r="37.0433" fill="#FF5574" stroke="white" stroke-width="1.10577"/>
<mask id="mask0_1439_10075" style="mask-type:alpha" maskUnits="userSpaceOnUse" x="1" y="2" width="73" height="73">
<circle cx="37.4904" cy="38.4904" r="36.4904" fill="#C4C4C4"/>
</mask>
<g mask="url(#mask0_1439_10075)">
</g>
<g clip-path="url(#clip0_1439_10075)">
<path d="M44.5346 43.8706H42.4967L41.4381 43.3994V42.114C42.9203 41.2974 44.0831 39.9701 44.6882 38.3708H45.5964C47.7591 38.3708 49.5186 36.6113 49.5186 34.4487C49.5186 33.0522 48.7844 31.8246 47.6823 31.1295V30.6823C47.6824 25.3434 43.3389 21 38 21C32.6611 21 28.3176 25.3434 28.3176 30.6824V31.1293C27.2153 31.8244 26.4809 33.052 26.4809 34.4487C26.4809 36.6113 28.2404 38.3708 30.4031 38.3708H31.3117C31.9168 39.9701 33.0796 41.2974 34.5619 42.114V43.3941L33.4913 43.8705H31.4653C25.6947 43.8706 21 48.5654 21 54.3359C21 54.7026 21.2973 55 21.6641 55H35.0117C35.3785 55 35.6758 54.7026 35.6758 54.3359C35.6758 53.9692 35.3785 53.6719 35.0117 53.6719H22.352C22.6831 49.0827 26.4186 45.4221 31.039 45.2088C31.0372 45.2144 31.0348 45.2197 31.0333 45.2253C30.9794 45.4145 31.0123 45.6179 31.1229 45.7806L34.2642 50.3987C34.3755 50.5623 34.554 50.6678 34.7509 50.6864C34.7718 50.6883 34.7926 50.6893 34.8134 50.6893C34.9887 50.6893 35.1578 50.6199 35.2829 50.4948L37.9941 47.7836L40.7052 50.4948C40.8303 50.6199 40.9995 50.6893 41.1747 50.6893C41.1954 50.6893 41.2163 50.6883 41.2371 50.6864C41.4341 50.6678 41.6126 50.5623 41.7239 50.3987L44.8653 45.7806C44.9759 45.6179 45.0087 45.4145 44.9549 45.2253C44.9533 45.2195 44.9509 45.2141 44.9491 45.2084C49.5749 45.4159 53.3167 49.0788 53.648 53.6719H40.9883C40.6216 53.6719 40.3242 53.9693 40.3242 54.336C40.3242 54.7027 40.6216 55.0001 40.9883 55.0001H54.3359C54.7026 55.0001 55 54.7027 55 54.336C55 48.5654 50.3053 43.8706 44.5346 43.8706ZM43.8064 31.3339C42.442 31.1466 41.1617 30.603 40.0739 29.7424C39.8355 29.5537 39.4991 29.5511 39.2577 29.7363C37.8312 30.8308 36.1247 31.4094 34.3228 31.4094C33.5997 31.4094 32.8866 31.313 32.1959 31.1258V30.7882C32.1959 27.588 34.7995 24.9844 37.9997 24.9844C41.2 24.9844 43.8036 27.588 43.8036 30.7882C43.8036 30.7882 43.805 31.3161 43.8064 31.3339ZM45.5965 37.0428H45.1478V31.8546H45.5965C47.0269 31.8546 48.1905 33.0183 48.1905 34.4487C48.1905 35.879 47.0269 37.0428 45.5965 37.0428ZM38 22.3281C42.5792 22.3281 46.309 26.0315 46.3532 30.6005C46.1082 30.5524 45.8553 30.5265 45.5964 30.5265H45.1265C44.9882 26.7147 41.8447 23.6562 37.9997 23.6562C34.1547 23.6562 31.0113 26.7147 30.873 30.5265H30.4031C30.1444 30.5265 29.8917 30.5523 29.6468 30.6004C29.6911 26.0315 33.4209 22.3281 38 22.3281ZM30.8518 37.0428H30.4031C28.9727 37.0428 27.8091 35.879 27.8091 34.4487C27.8091 33.0183 28.9727 31.8546 30.4031 31.8546H30.8518L30.8518 37.0428ZM32.1799 35.8488V32.4926C32.8795 32.6552 33.5971 32.7375 34.3228 32.7375C36.2498 32.7375 38.0833 32.1687 39.6565 31.0876C40.893 31.9592 42.3155 32.5002 43.8196 32.6738V35.8845C43.8158 36.507 43.7138 37.1066 43.5283 37.6686H40.3572C40.0828 36.8927 39.3422 36.3351 38.4736 36.3351H37.5846C36.4832 36.3351 35.5872 37.2312 35.5872 38.3326C35.5872 39.434 36.4832 40.3301 37.5846 40.3301H38.4736C39.3423 40.3301 40.0828 39.7726 40.3572 38.9967H42.8931C41.8561 40.6031 40.0502 41.6688 38 41.6688C34.7908 41.6688 32.1799 39.058 32.1799 35.8488ZM39.1431 38.3326C39.1431 38.7018 38.8428 39.002 38.4737 39.002H37.5847C37.2156 39.002 36.9154 38.7018 36.9154 38.3326C36.9154 37.9635 37.2156 37.6633 37.5847 37.6633H38.4737C38.8428 37.6633 39.1431 37.9635 39.1431 38.3326ZM38 42.9969C38.7342 42.9969 39.4427 42.8855 40.1099 42.679V43.7894L37.9941 45.9053L35.89 43.8012V42.679C36.5573 42.8855 37.2658 42.9969 38 42.9969ZM34.9111 48.9883L32.668 45.6907L34.9054 44.695L37.0549 46.8445L34.9111 48.9883ZM41.077 48.9883L38.9332 46.8445L41.0827 44.695L43.3201 45.6907L41.077 48.9883Z" fill="#FFDF5A"/>
<path d="M38 53.6719C37.8254 53.6719 37.654 53.7429 37.5305 53.8664C37.407 53.99 37.3359 54.1613 37.3359 54.3359C37.3359 54.5106 37.4069 54.6819 37.5305 54.8054C37.654 54.9289 37.8254 55 38 55C38.1746 55 38.346 54.9289 38.4694 54.8054C38.593 54.6819 38.6641 54.5106 38.6641 54.3359C38.6641 54.1613 38.593 53.99 38.4694 53.8664C38.346 53.7429 38.1746 53.6719 38 53.6719Z" fill="#FFDF5A"/>
</g>
<defs>
<clipPath id="clip0_1439_10075">
<rect width="34" height="34" fill="white" transform="translate(21 21)"/>
</clipPath>
</defs>
</svg>
