<svg version="1.1" id="base" xmlns="http://www.w3.org/2000/svg" x="0" y="0" width="80" height="80" viewBox="0 0 192 192" xml:space="preserve"><style>.st2{fill:#352ca2}.st3{fill:#fff}</style><circle cx="102.5" cy="102.2" r="88.5" opacity=".2" fill="#352ca2"/><circle cx="90.7" cy="90.4" r="88.5" fill="#fff" stroke="#352ca2" stroke-width="2.5" stroke-linecap="round" stroke-linejoin="round"/><circle class="st2" cx="90.7" cy="90.4" r="45.7"/><path class="st3" d="M90.7 47.6c23.6 0 42.8 19.1 42.8 42.8s-19.1 42.8-42.8 42.8S47.9 114 47.9 90.4 67 47.6 90.7 47.6m0-5.9C63.8 41.7 42 63.5 42 90.4S63.8 139 90.7 139s48.7-21.8 48.7-48.7-21.9-48.6-48.7-48.6z"/><path class="st3" d="M87.2 54.3H94c1.6 0 2.9 1.3 2.9 2.9v4.6H84.3v-4.6c0-1.6 1.3-2.9 2.9-2.9z"/><path class="st3" d="M90.7 120.4c-16.6 0-30.1-13.5-30.1-30.1s13.5-30.1 30.1-30.1 30.1 13.5 30.1 30.1c-.1 16.7-13.5 30.1-30.1 30.1zm0-47.6c-9.7 0-17.6 7.9-17.6 17.6S81 108 90.7 108s17.6-7.9 17.6-17.6c-.1-9.7-7.9-17.6-17.6-17.6z"/><path class="st2" d="M90.7 61.9c15.7 0 28.5 12.8 28.5 28.5s-12.8 28.5-28.5 28.5-28.5-12.8-28.5-28.5c-.1-15.8 12.7-28.5 28.5-28.5-.1 0-.1 0 0 0m0 47.6c10.6 0 19.2-8.6 19.2-19.2s-8.6-19.2-19.2-19.2-19.2 8.6-19.2 19.2 8.6 19.2 19.2 19.2m0-50.8C73.2 58.7 59 72.9 59 90.4S73.2 122 90.6 122c17.5 0 31.6-14.2 31.6-31.6.1-17.5-14.1-31.7-31.5-31.7zm0 47.7c-8.8 0-16-7.2-16-16s7.2-16 16-16 16 7.1 16 16c-.1 8.8-7.2 15.9-16 16z"/><path class="st3" d="M93.7 93.4c-1.7 1.7-4.4 1.7-6.1 0s-1.7-4.4 0-6.1c1.7-1.7 12.5-6.4 12.5-6.4s-4.7 10.8-6.4 12.5z"/><circle class="st3" cx="90.7" cy="90.4" r="4.3"/><path d="M52.5 144.7c.2-.6.5-1.2 1-1.7l9.4-8.7-1.2-.7c-.9-.6-1.8-1.4-2.7-2l-1.4-1c-.4-.4-.8-.8-1.3-1.2l-2.5-2.2-2.3-2.5c-.4-.4-.8-.8-1.2-1.3l-1-1.4c-.7-.9-1.4-1.8-2-2.7l-1.8-2.9c-.3-.5-.6-.9-.9-1.5l-.7-1.5c-.5-1-1-2-1.5-3.1-.8-2.1-1.5-4.3-2-6.5-.3-1.1-.6-2.2-.8-3.3l-.5-3.4c-.1-.6-.2-1.1-.3-1.7v-1.7l-.3-3.4.2-3.4v-1.7c.1-.6.1-1.1.3-1.7l.5-3.4c.2-1.1.6-2.2.8-3.3.6-2.2 1.3-4.3 2.1-6.4.4-1 1-2 1.5-3.1l.7-1.5c.2-.5.6-1 .9-1.5l1.8-2.9c.6-.9 1.4-1.8 2-2.7l1-1.4c.4-.4.8-.8 1.2-1.3l2.3-2.5 2.5-2.3c.4-.4.8-.8 1.3-1.2l1.4-1 .8-.6-3.2-14.1-9.1-9.8-.5.5c-1.4 1-2.8 2-4.1 3l-2 1.5c-.7.6-1.3 1.2-1.9 1.7l-3.8 3.5-3.4 3.9c-.6.6-1.2 1.3-1.7 1.9l-1.5 2c-1 1.4-2.1 2.7-3 4.1L22.9 51c-.4.8-.9 1.5-1.3 2.2l-1.1 2.3c-.7 1.5-1.5 3.1-2.2 4.7-1.3 3.2-2.4 6.4-3.2 9.8-.4 1.7-.9 3.3-1.2 5l-.8 5.1c-.1.8-.3 1.7-.4 2.6l-.1 2.6-.4 5.1.3 5.1.1 2.6c0 .9.2 1.7.4 2.6l.8 5.1c.3 1.7.8 3.3 1.2 5 .9 3.3 2 6.6 3.2 9.8.6 1.6 1.5 3.1 2.2 4.7l1.1 2.3c.4.8.9 1.5 1.3 2.2l2.7 4.4c1 1.4 2 2.8 3 4.1l1.5 2c.6.7 1.2 1.3 1.7 1.9L35 146l3.9 3.4c.6.6 1.3 1.2 1.9 1.7l2 1.5c1.4 1 2.7 2.1 4.1 3l1.9 1.1 3.7-12z" fill="#aeabda"/><path class="st2" d="M169 85.2l-.2-2.6c0-.9-.2-1.7-.4-2.6l-.8-5.1c-.3-1.7-.8-3.3-1.2-5-.9-3.3-2-6.6-3.2-9.8-.6-1.6-1.5-3.1-2.2-4.7l-1.1-2.3c-.4-.8-.9-1.5-1.3-2.2l-2.7-4.4c-1-1.4-2-2.8-3-4.1l-1.5-2c-.6-.7-1.2-1.3-1.7-1.9l-3.5-3.8-3.8-3.4c-.6-.6-1.3-1.2-1.9-1.7l-2-1.5c-1.4-1-2.7-2.1-4.1-3l-4.4-2.7c-.8-.4-1.5-.9-2.2-1.3l-2.3-1.1c-1.5-.7-3.1-1.5-4.7-2.2-3.2-1.3-6.4-2.4-9.8-3.2-1.7-.4-3.3-.9-5-1.2l-5.1-.8c-.8-.1-1.7-.3-2.6-.4l-2.6-.1-5.1-.4-5.1.3-2.5.2c-.9 0-1.7.2-2.6.4l-5.1.8c-1.7.3-3.3.8-5 1.2-3.3.9-6.6 2-9.8 3.2-1.6.6-3.1 1.5-4.7 2.2l-2 1 8.7 9.2c.4.5.8 1.1.9 1.7l2.8 12.5 1.3-.6c1-.5 2-1 3.1-1.5 2.1-.8 4.3-1.5 6.5-2 1.1-.3 2.2-.6 3.3-.8l3.4-.5c.6-.1 1.1-.2 1.7-.3h1.7l3.4-.3 3.4.2h1.7c.6.1 1.1.1 1.7.3l3.4.5c1.1.2 2.2.6 3.3.8 2.2.6 4.3 1.3 6.4 2.1 1 .4 2 1 3.1 1.5l1.5.7c.5.2 1 .6 1.5.9l2.9 1.8c.9.6 1.8 1.4 2.7 2l1.4 1c.4.4.8.8 1.3 1.2l2.6 2.3 2.3 2.5c.4.4.8.8 1.2 1.3l1 1.4c.7.9 1.4 1.8 2 2.7l1.8 2.9c.3.5.6.9.9 1.5l.7 1.5c.5 1 1 2 1.5 3.1.8 2.1 1.5 4.3 2 6.5.3 1.1.6 2.2.8 3.3l.5 3.4c0 .3.1.7.2 1l13.7 4.3 13-3.1-.1-.8z"/><path d="M156.8 96.3c-.3.1-.6.1-.8.1-.4 0-.7-.1-1.1-.2l-12.3-3.8v1.5l-.1 1.7c-.1.6-.1 1.1-.3 1.7l-.5 3.4c-.2 1.1-.6 2.2-.8 3.3-.6 2.2-1.3 4.3-2.1 6.4-.4 1-1 2-1.5 3.1l-.7 1.5c-.2.5-.6 1-.9 1.5l-1.8 2.9c-.6.9-1.4 1.8-2 2.7l-1 1.4c-.4.4-.8.8-1.2 1.3l-2.2 2.5-2.5 2.3c-.4.4-.8.8-1.3 1.2l-1.4 1c-.9.7-1.8 1.4-2.7 2l-2.9 1.8c-.5.3-.9.6-1.5.9l-1.5.7c-1 .5-2 1-3.1 1.5-2.1.8-4.3 1.6-6.4 2.1-1.1.3-2.2.6-3.3.8l-3.4.5c-.6.1-1.1.2-1.7.3l-1.7.1-3.4.2-3.4-.2-1.7-.1c-.6-.1-1.1-.1-1.7-.3l-3.4-.5c-1.1-.2-2.2-.6-3.3-.8-2.2-.6-4.3-1.3-6.4-2.1-.3-.1-.6-.3-.9-.4l-10.6 9.8-3.8 12.8.5.2c1.5.7 3.1 1.5 4.7 2.2 3.2 1.3 6.4 2.4 9.8 3.2 1.7.4 3.3.9 5 1.2l5.1.8c.8.1 1.7.3 2.6.4l2.6.1 5.1.3 5.1-.3 2.6-.1c.9 0 1.7-.2 2.6-.4l5.1-.8c1.7-.3 3.3-.8 5-1.2 3.3-.9 6.6-2 9.8-3.2 1.6-.6 3.1-1.5 4.7-2.2l2.3-1.1c.8-.4 1.5-.9 2.2-1.3l4.4-2.7c1.4-1 2.8-2 4.1-3l2-1.5c.7-.6 1.3-1.2 1.9-1.7l3.8-3.5 3.5-3.8c.6-.6 1.2-1.3 1.7-1.9l1.5-2c1-1.4 2.1-2.7 3-4.1l2.7-4.4c.4-.8.9-1.5 1.3-2.2l1.1-2.3c.7-1.5 1.5-3.1 2.2-4.7 1.3-3.2 2.4-6.4 3.2-9.8.4-1.7.9-3.3 1.2-5l.8-5.1c.1-.8.3-1.7.4-2.6l.1-2.6v-2.3l-12.4 2.8z" fill="#d13076"/></svg>