<svg version="1.1" id="base" xmlns="http://www.w3.org/2000/svg" xmlns:xlink="http://www.w3.org/1999/xlink" x="0" y="0" width="80" height="80" viewBox="0 0 192 192" xml:space="preserve"><style>.st1{fill:#fff}.st3{stroke:#9a95d0;stroke-width:2.5;stroke-linecap:round}.st3,.st4,.st5{fill:none;stroke-linejoin:round}.st4{stroke-linecap:round;stroke:#352ca2;stroke-width:2.5}.st5{stroke:#d13076;stroke-width:5}.st7{fill:#352ca2}</style><path opacity=".2" fill="#352ca2" d="M11.9 37.7h178.6v129.9H11.9z"/><path class="st1" d="M1.5 27.3h178.6v129.9H1.5z"/><circle cx="90.8" cy="92.2" r="22.3" fill="#d13076"/><path class="st3" d="M105.6 103.7l7.9 3.6 8.1-3.6"/><path class="st4" d="M180.1 27.3v129.9H1.5"/><path class="st5" d="M40.9 41.7H19.2v21.6M140.7 41.7h21.7v21.6M40.9 142.8H19.2v-21.7M140.7 142.8h21.7v-21.7"/><defs><path id="SVGID_1_" d="M30.1 48.7h123.7v87.1H30.1z"/></defs><clipPath id="SVGID_2_"><use xlink:href="#SVGID_1_" overflow="visible"/></clipPath><g clip-path="url(#SVGID_2_)"><path class="st1" d="M85.5 143.2V115c0-5-4.1-9.1-9.1-9.1h-3.8v-7.8c4.7 1.4 9.6-1.2 11-5.9 1.4-4.5-1-9.2-5.4-10.8V68.5c0-8.5-6.9-15.3-15.3-15.3H50c-4.2 0-7.7 3.4-7.7 7.7V66c0 2.2 1.3 4.1 3.2 5.1L43 87.6h7.1v18.3H48c-3.7 0-6.9 2.5-7.8 6-1.4 5.7-3.1 15.7-3.1 31.3h48.4z"/><circle class="st7" cx="53.2" cy="76.9" r="2"/><path class="st3" d="M50.2 115.2c6.1 0 11.2-5.8 11.2-5.8M72.6 115.2c-6.1 0-11.2-5.8-11.2-5.8"/><path class="st7" d="M50 53.2h12.8c8.5 0 15.3 6.9 15.3 15.3v12.8c4.6 1.7 6.8 6.8 5.1 11.4C81.6 97 77 99.3 72.6 98v-5.8c-5.9-2.3-9.8-8-9.8-14.3v-3.1c0-4.9-4-8.9-8.9-8.9h-6v5.6c-3.1 0-5.6-2.5-5.6-5.6v-5.2c.1-4.2 3.5-7.6 7.7-7.5z"/><path class="st4" d="M85.5 143.2V115c0-5-4.1-9.1-9.1-9.1h-3.8v-7.8c4.7 1.4 9.6-1.2 11-5.9 1.4-4.5-1-9.2-5.4-10.8V68.5c0-8.5-6.9-15.3-15.3-15.3H50c-4.2 0-7.7 3.4-7.7 7.7V66c0 2.2 1.3 4.1 3.2 5.1L43 87.6h7.1v18.3H48c-3.7 0-6.9 2.5-7.8 6-1.4 5.7-3.1 15.7-3.1 31.3M72.6 131v12.2"/><path class="st1" d="M92.5 143l2.5-25.1c.5-5.1 4.8-9 9.9-9V89.1h-4.2c-1.6 0-2.9-1.3-2.9-2.9 0-.2 0-.4.1-.5l3-15.8v-6.5c-5.5 0-10-4.5-10-10v-2.8H120c6.8 0 12.3 5.5 12.3 12.2V109c8.4 0 15.1 6.8 15.1 15.1V143H92.5z"/><circle class="st7" cx="107.3" cy="74.4" r="2"/><path class="st4" d="M132.3 130.8V143"/><path class="st7" d="M110.1 50.5h9.9c6.8 0 12.3 5.4 12.3 12.2V89.1c-6.8 0-12.3-5.5-12.3-12.3v-2.9h-4.5v-4.4c0-3.5-2.8-6.3-6.3-6.3h-8.4c-5.5 0-10-4.5-10-10v-2.8h19.3z"/><circle class="st1" cx="120.4" cy="78.7" r="4.8"/><path d="M115.6 86.4V73.9h4.5v22.9c0 4.1-3.3 7.3-7.3 7.3H105V89.7h7.3c1.8 0 3.3-1.5 3.3-3.3z" fill="#aeabda"/><path class="st4" d="M92.5 143l2.5-25.1c.5-5.1 4.8-9 9.9-9V89.1h-4.2c-1.6 0-2.9-1.3-2.9-2.9 0-.2 0-.4.1-.5l3-15.8v-6.5c-5.5 0-10-4.5-10-10v-2.8H120c6.8 0 12.3 5.5 12.3 12.2V109c8.4 0 15.1 6.8 15.1 15.1V143"/><path class="st3" d="M125.5 112l-6.8 3.1-6.9-3.1"/></g></svg>