<svg version="1.1" id="base" xmlns="http://www.w3.org/2000/svg" xmlns:xlink="http://www.w3.org/1999/xlink" x="0" y="0" viewBox="0 0 192 192" xml:space="preserve"><style>.st1{fill:#fff}.st2{fill:none;stroke:#352ca2;stroke-width:2.5;stroke-linecap:round;stroke-linejoin:round}.st3{fill:#352ca2}.st4{fill:none;stroke:#9a95d0;stroke-width:2.5;stroke-linecap:round;stroke-linejoin:round}.st7{fill:none;stroke:#fff;stroke-width:6;stroke-miterlimit:10}</style><path d="M29.4 174.9h123c19.6 0 35.6-15.9 35.6-35.6V53.5H29.4v121.4z" opacity=".2" fill="#352ca2"/><path class="st1" d="M9.5 165.1h139.2c16.3 0 29.4-13.2 29.4-29.4V42.4H9.5v122.7z"/><path class="st2" d="M9.5 165.1h139.2c16.3 0 29.4-13.2 29.4-29.4V42.4"/><circle class="st3" cx="59.9" cy="112.5" r="6.9"/><path class="st3" d="M69.5 83.8h10c3.3 0 6 2.7 6 6v4.1h-16V83.8z"/><path class="st1" d="M61.8 93.9h17.6v31.3H61.8zM85 109.5h-5.6V93.9h2.9z"/><path class="st3" d="M69.5 83.8v19.4c0 6.7-5.4 12-12 12V95.9c-.1-6.7 5.3-12.1 12-12.1z"/><path class="st1" d="M73.4 113.9h6v4.4h-2.9c-1.7 0-3.1-1.4-3.1-3.1v-1.3z"/><path class="st3" d="M69.5 100.9V94h7c-3.8-.1-7 3-7 6.9z"/><path class="st1" d="M79.4 141.2v-16H61.8c0 9.5 11.2 16 17.6 16z"/><path class="st4" d="M81.3 132.8c-5.3 0-9.7-5.1-9.7-5.1M61.9 132.8c5.3 0 9.7-5.1 9.7-5.1"/><path class="st3" d="M81.1 98.3v-4.4h4.4c0 2.4-1.9 4.4-4.4 4.4z"/><path class="st2" d="M51.7 152.7v-20.4c0-3.9 3.2-7.2 7.2-7.2h3V119c-.6.2-1.3.3-2 .3-3.8 0-6.9-3.1-7-6.9 0-2.9 1.8-5.5 4.5-6.5v-10c0-6.7 5.4-12 12-12h10c3.3 0 6 2.7 6 6V94c0 1.7-1 3.3-2.5 4l2 11.7h-5.6v15.7c3.3 0 6.3 2.2 7.1 5.4 1.8 7.2 2.8 14.6 2.9 22.1"/><defs><path id="SVGID_1_" d="M49.8 117.1c-10.1-12.1-8.6-30 3.5-40.2s30-8.6 40.2 3.5 8.6 30-3.5 40.2c-12.1 10.2-30.1 8.6-40.2-3.5z"/></defs><clipPath id="SVGID_2_"><use xlink:href="#SVGID_1_" overflow="visible"/></clipPath><g clip-path="url(#SVGID_2_)"><path class="st1" d="M48.4 165.4v-26.7c0-4.7 3.8-8.6 8.6-8.6h3.6v-7.4c-4.4 1.3-9.1-1.2-10.4-5.6-1.3-4.2 1-8.7 5.1-10.2v-12c0-8 6.5-14.5 14.5-14.5h12.1c4 0 7.2 3.2 7.2 7.2v4.8c0 2.1-1.2 3.9-3 4.8l2.4 15.6h-6.7v17.3h2c3.5 0 6.5 2.3 7.4 5.7 1.3 5.3 2.9 14.8 2.9 29.6H48.4z"/><circle class="st3" cx="78.9" cy="102.8" r="1.9"/><path class="st4" d="M81.7 139c-5.7 0-10.6-5.4-10.6-5.4M60.6 139c5.7 0 10.6-5.4 10.6-5.4"/><path class="st3" d="M81.9 80.4H69.8c-8 0-14.5 6.5-14.5 14.5V107c-4.3 1.6-6.5 6.4-4.9 10.7 1.2 3.3 4.3 5.4 7.8 5.4.8 0 1.6-.1 2.4-.3v-5.6c5.6-2.2 9.2-7.5 9.2-13.5v-2.9c0-4.7 3.8-8.4 8.4-8.4h5.6v5.3c2.9 0 5.3-2.4 5.3-5.3v-4.8c.1-4-3.2-7.2-7.2-7.2z"/><path class="st2" d="M48.4 165.4v-26.7c0-4.7 3.8-8.6 8.6-8.6h3.6v-7.4c-4.4 1.3-9.1-1.2-10.4-5.6-1.3-4.2 1-8.7 5.1-10.2v-12c0-8 6.5-14.5 14.5-14.5h12.1c4 0 7.2 3.2 7.2 7.2v4.8c0 2.1-1.2 3.9-3 4.8l2.4 15.6h-6.7v17.3h2c3.5 0 6.5 2.3 7.4 5.7 1.3 5.3 2.9 14.8 2.9 29.6M60.6 153.9v11.5"/></g><path class="st3" d="M14.7 157.5c-5.5 0-9.9-4.4-9.9-9.9 0-2.9 1.3-5.7 3.5-7.6l37.2-31.3 12.8 15.2-37.2 31.3c-1.8 1.4-4.1 2.3-6.4 2.3z"/><path class="st1" d="M45.3 112.2l9.6 11.4-35.3 29.7c-3.1 2.7-7.8 2.2-10.5-.9-2.7-3.2-2.3-7.9.9-10.5l35.3-29.7m.6-7l-3.8 3.2-35.4 29.7c-5.2 4.4-5.9 12.2-1.5 17.5s12.2 5.9 17.5 1.5L58 127.4l3.8-3.2-3.2-3.8-9.6-11.3-3.1-3.9z"/><path class="st3" d="M71.7 141c-23.3 0-42.3-18.9-42.3-42.2 0-23.3 18.9-42.3 42.2-42.3s42.3 18.9 42.3 42.2c0 12.5-5.5 24.4-15.1 32.4-7.6 6.4-17.2 10-27.1 9.9zm0-68.9c-6.3 0-12.4 2.2-17.2 6.2-11.3 9.5-12.7 26.3-3.3 37.6 5.1 6 12.6 9.5 20.5 9.5 14.7 0 26.7-12 26.7-26.7-.1-14.6-12-26.6-26.7-26.6z"/><path class="st1" d="M71.6 58.4c22.3 0 40.4 18.1 40.4 40.4 0 22.3-18.1 40.4-40.4 40.4-22.3 0-40.4-18.1-40.4-40.4 0-11.9 5.3-23.3 14.4-31 7.3-6.1 16.5-9.4 26-9.4m0 68.9c15.7 0 28.5-12.8 28.5-28.5S87.3 70.3 71.6 70.3 43.1 83.1 43.1 98.8c0 6.7 2.4 13.2 6.7 18.3 5.4 6.5 13.4 10.2 21.8 10.2m0-72.6c-24.3 0-44.1 19.8-44.1 44.1s19.8 44.1 44.1 44.1 44.1-19.8 44.1-44.1c0-10.4-3.7-20.4-10.3-28.3-8.4-10-20.7-15.8-33.8-15.8zm0 68.9c-13.7 0-24.9-11.1-24.9-24.8 0-13.7 11.1-24.9 24.8-24.9 13.7 0 24.9 11.1 24.9 24.8 0 7.3-3.2 14.3-8.9 19.1-4.4 3.7-10 5.8-15.9 5.8z"/><path d="M158.9 73.6c-16.9 0-30.7-13.7-30.7-30.7s13.7-30.7 30.7-30.7 30.7 13.7 30.7 30.7c-.1 17-13.8 30.7-30.7 30.7z" fill="#d13076"/><path class="st1" d="M158.9 14.6c15.6 0 28.2 12.6 28.2 28.2S174.5 71 158.9 71s-28.2-12.6-28.2-28.2 12.6-28.2 28.2-28.2m0-4.9c-18.3 0-33.1 14.8-33.1 33.1S140.6 76 158.9 76 192 61.1 192 42.8c0-18.2-14.8-33-33.1-33.1z"/><path class="st7" d="M158.9 27.8V58M143.8 42.9H174"/><path class="st1" d="M153.3 152.3l-2-19.5c-.4-4-3.7-7-7.7-7v-15.5h3.2c1.3 0 2.3-1.1 2.2-2.3v-.4l-2.3-12.3v-5c4.3 0 7.8-3.5 7.8-7.8v-2.2h-22.7c-5.3 0-9.5 4.3-9.5 9.5v36c-6.5 0-11.8 5.3-11.8 11.8v14.7h42.8z"/><path class="st2" d="M122.3 142.8v9.5"/><path class="st3" d="M139.6 80.3h-7.8c-5.3 0-9.5 4.3-9.5 9.5v20.5c5.3 0 9.5-4.3 9.5-9.5v-2.3h3.5v-3.3c0-2.7 2.2-4.9 4.9-4.9h6.5c4.3 0 7.8-3.5 7.8-7.8v-2.2h-14.9z"/><circle class="st1" cx="131.6" cy="102.2" r="3.7"/><path d="M135.3 108.2v-9.7h-3.5v17.8c0 3.2 2.6 5.7 5.7 5.7h6v-11.2H138c-1.5 0-2.6-1.1-2.7-2.6z" fill="#aeabda"/><path class="st2" d="M153.3 152.3l-2-19.5c-.4-4-3.7-7-7.7-7v-15.5h3.2c1.3 0 2.3-1.1 2.2-2.3v-.4l-2.3-12.3v-5c4.3 0 7.8-3.5 7.8-7.8v-2.2h-22.7c-5.3 0-9.5 4.3-9.5 9.5v36c-6.5 0-11.8 5.3-11.8 11.8v14.7"/><path class="st4" d="M127.6 128.2l5.3 2.3 5.4-2.3"/></svg>