<svg version="1.1" id="base" xmlns="http://www.w3.org/2000/svg" x="0" y="0" viewBox="0 0 192 192" xml:space="preserve"><style>.st2{fill:#aeabda}.st3{fill:none;stroke:#352ca2;stroke-width:2.5;stroke-linecap:round;stroke-linejoin:round}.st4{fill:#d13076}.st5{fill:#fff}</style><circle cx="102.5" cy="115.8" r="75" opacity=".2" fill="#352ca2"/><circle cx="92.5" cy="105.8" r="75" fill="#fff" stroke="#352ca2" stroke-width="2.5" stroke-linecap="round" stroke-linejoin="round"/><path class="st2" d="M152.3 111.4c-1.1.9-2.7.9-3.9 0l-4.4-3.5c-1.4 28.5-25.7 50.4-54.1 48.9-25.3-1.3-45.9-20.7-48.7-45.9l-6.6-5.2-6.1 4.8c2.7 35.3 33.4 61.7 68.7 59.1 32.5-2.5 58-29 59.2-61.6l-4.1 3.4zM151.8 81.2C138.2 48.5 100.7 33 68 46.5 45.1 56 29.7 77.9 28.5 102.7l4.2-3.4c1.1-.9 2.7-.9 3.9 0l4.4 3.5c1.4-28.4 25.7-50.3 54.1-48.9 25.2 1.3 45.8 20.7 48.6 45.8l6.6 5.2 6-4.7c-.5-6.5-2-12.9-4.5-19z"/><path class="st3" d="M119.5 87.5L65.6 124M71.1 87.5h36.7M71.1 124h48.4"/><path class="st4" d="M53.4 77.3h24.2v20.5H53.4z"/><path class="st5" d="M75.8 79.1v16.8H55.3V79.1h20.5m3.7-3.7h-28v24.3h28V75.4z"/><path class="st4" d="M53.4 113.7h24.2v20.5H53.4z"/><path class="st5" d="M75.8 115.6v16.8H55.3v-16.8h20.5m3.7-3.7h-28v24.3h28v-24.3z"/><path class="st4" d="M107.4 77.3h24.2v20.5h-24.2z"/><path class="st5" d="M129.7 79.1v16.8h-20.5V79.1h20.5m3.8-3.7h-28v24.3h28V75.4z"/><path class="st3" d="M112.2 118.9l7.3 5.1-7.3 5.1"/><path d="M92.5 66.3c-17.3 0-31.3-14-31.3-31.3s14-31.3 31.3-31.3 31.3 14 31.3 31.3c-.1 17.3-14 31.3-31.3 31.3z" fill="#352ca2"/><path class="st5" d="M92.5 6.2c15.9 0 28.8 12.9 28.8 28.8s-12.9 28.8-28.8 28.8S63.8 51 63.7 35.1c.1-16 12.9-28.8 28.8-28.9m0-4.9C73.9 1.3 58.8 16.4 58.8 35s15.1 33.8 33.8 33.8c18.6 0 33.7-15.1 33.8-33.7-.1-18.7-15.2-33.8-33.9-33.8z"/><path fill="none" stroke="#fff" stroke-width="6" stroke-miterlimit="10" d="M79.1 35l9 9 17.8-17.9"/></svg>