<svg version="1.1" id="base" xmlns="http://www.w3.org/2000/svg" xmlns:xlink="http://www.w3.org/1999/xlink" x="0" y="0" viewBox="0 0 192 192" xml:space="preserve"><style>.st1,.st2{fill:#fff;stroke:#352ca2;stroke-width:2.5;stroke-linecap:round;stroke-linejoin:round}.st2{fill:none}.st3{fill:#d13076}.st4{fill:#fff}.st6{fill:#352ca2}.st7{fill:none;stroke:#9a95d0;stroke-width:2.5;stroke-linecap:round;stroke-linejoin:round}</style><circle cx="99.6" cy="103.8" r="84.4" opacity=".2" fill="#352ca2"/><circle class="st1" cx="88.3" cy="92.5" r="84.4"/><ellipse class="st1" cx="88.3" cy="92.5" rx="51.1" ry="84.4"/><ellipse class="st2" cx="88.3" cy="92.5" rx="84.4" ry="51.1"/><path class="st3" d="M154 87c-19.4 0-35.2-15.7-35.2-35.2s15.7-35.2 35.2-35.2 35.2 15.7 35.2 35.2c-.1 19.4-15.8 35.1-35.2 35.2z"/><path class="st4" d="M154 19.4c17.9 0 32.3 14.5 32.3 32.3S171.9 84.1 154 84.1s-32.3-14.5-32.3-32.3 14.4-32.4 32.3-32.4m0-5.6c-21 0-38 17-38 38s17 38 38 38c20.9 0 37.9-17 38-37.9-.1-21-17-38-38-38.1z"/><path class="st4" d="M173.9 53c-12.7 2.3-16.4 6.1-18.7 18.7-.1.7-.7 1.1-1.4 1-.5-.1-1-.5-1-1-2.3-12.7-6.1-16.4-18.7-18.7-.7-.1-1.1-.8-1-1.4.1-.5.5-.9 1-1 12.7-2.3 16.4-6.1 18.7-18.7.1-.7.7-1.1 1.4-1 .5.1 1 .5 1 1 2.3 12.7 6.1 16.4 18.7 18.7.7.1 1.1.8 1 1.4-.1.5-.5.9-1 1z"/><defs><path id="SVGID_1_" d="M45.1 30.2h87.7v102H45.1z"/></defs><clipPath id="SVGID_2_"><use xlink:href="#SVGID_1_" overflow="visible"/></clipPath><g clip-path="url(#SVGID_2_)"><path class="st4" d="M115.6 151.1v-30.6c0-5.4-4.4-9.8-9.8-9.8h-4.1v-8.4c1.8.6 3.8.6 5.6 0 5.1-1.5 7.9-6.8 6.4-11.9-.9-2.9-3.1-5.3-6-6.3V70.2c0-9.2-7.4-16.6-16.6-16.6H77.2c-4.6 0-8.3 3.7-8.3 8.3v5.6c0 2.4 1.4 4.5 3.5 5.5l-2.8 18h7.7v19.7h-2.2c-4 0-7.4 2.7-8.4 6.5-1.5 6.1-3.3 17-3.3 33.9h52.2z"/><circle class="st6" cx="80.7" cy="79.3" r="2.2"/><path class="st7" d="M77.4 120.8c6.6 0 12.1-6.2 12.1-6.2M101.7 120.8c-6.6 0-12.1-6.2-12.1-6.2"/><path class="st6" d="M77.2 53.6h13.9c9.2 0 16.6 7.4 16.6 16.6v13.9c5 1.8 7.5 7.3 5.7 12.3-1.4 3.8-5 6.3-9 6.3-.9 0-1.8-.1-2.7-.4v-6.4c-6.4-2.5-10.6-8.6-10.6-15.5v-3.3c0-5.3-4.3-9.7-9.6-9.7H75v6.1c-3.4 0-6.1-2.7-6.1-6.1v-5.5c0-4.6 3.7-8.3 8.3-8.3z"/><path class="st2" d="M115.6 151.1v-30.6c0-5.4-4.4-9.8-9.8-9.8h-4.1v-8.4c1.8.6 3.8.6 5.6 0 5.1-1.5 7.9-6.8 6.4-11.9-.9-2.9-3.1-5.3-6-6.3V70.2c0-9.2-7.4-16.6-16.6-16.6H77.2c-4.6 0-8.3 3.7-8.3 8.3v5.6c0 2.4 1.4 4.5 3.5 5.5l-2.8 18h7.7v19.7h-2.2c-4 0-7.4 2.7-8.4 6.5-1.5 6.1-3.3 17-3.3 33.9M101.7 137.9v13.2"/></g><path class="st3" d="M44.6 59.8c-6.1 0-11-4.9-11-11s4.9-11 11-11 11 4.9 11 11-4.9 11-11 11z"/><path class="st4" d="M44.6 40c4.9 0 8.9 4 8.9 8.9s-4 8.9-8.9 8.9-8.9-4-8.9-8.9c.1-5 4-8.9 8.9-8.9m0-4.2c-7.2 0-13.1 5.9-13.1 13.1 0 7.2 5.9 13.1 13.1 13.1s13.1-5.9 13.1-13.1c0-7.3-5.9-13.1-13.1-13.1z"/><path class="st3" d="M44.6 147.2c-6.1 0-11-4.9-11-11s4.9-11 11-11 11 4.9 11 11-4.9 11-11 11z"/><path class="st4" d="M44.6 127.4c4.9 0 8.9 4 8.9 8.9s-4 8.9-8.9 8.9-8.9-4-8.9-8.9c.1-5 4-8.9 8.9-8.9m0-4.3c-7.2 0-13.1 5.9-13.1 13.1 0 7.2 5.9 13.1 13.1 13.1s13.1-5.9 13.1-13.1c0-7.2-5.9-13-13.1-13.1z"/><path class="st3" d="M132 147.2c-6.1 0-11-4.9-11-11s4.9-11 11-11 11 4.9 11 11-4.9 11-11 11z"/><path class="st4" d="M132 127.4c4.9 0 8.9 4 8.9 8.9s-4 8.9-8.9 8.9-8.9-4-8.9-8.9c.1-5 4-8.9 8.9-8.9m0-4.3c-7.2 0-13.1 5.9-13.1 13.1 0 7.2 5.9 13.1 13.1 13.1 7.2 0 13.1-5.9 13.1-13.1 0-7.2-5.9-13-13.1-13.1z"/></svg>