<svg version="1.1" id="base" xmlns="http://www.w3.org/2000/svg" xmlns:xlink="http://www.w3.org/1999/xlink" x="0" y="0" width="80" height="80" viewBox="0 0 192 192" xml:space="preserve"><style>.st1{fill:#fff;stroke:#352ca2;stroke-width:2.5;stroke-linecap:round;stroke-linejoin:round}.st3{fill:#d13076}.st4{fill:#fff}</style><circle cx="105.9" cy="114.3" r="74.3" opacity=".2" fill="#352ca2"/><circle class="st1" cx="96" cy="104.4" r="74.3"/><circle class="st1" cx="96" cy="104.4" r="74.3"/><circle cx="96" cy="104.4" r="54.7" fill="none" stroke="#aeabda" stroke-width="14" stroke-linecap="round" stroke-linejoin="round"/><circle class="st3" cx="96" cy="33.8" r="31"/><path class="st4" d="M96 5.3c15.7 0 28.5 12.8 28.5 28.5S111.7 62.3 96 62.3 67.5 49.5 67.5 33.8 80.3 5.3 96 5.3m0-5c-18.5 0-33.5 15-33.5 33.5s15 33.5 33.5 33.5 33.5-15 33.5-33.5S114.5.3 96 .3z"/><defs><circle id="SVGID_1_" cx="96" cy="33.8" r="22.3"/></defs><clipPath id="SVGID_2_"><use xlink:href="#SVGID_1_" overflow="visible"/></clipPath><g clip-path="url(#SVGID_2_)"><circle class="st4" cx="96" cy="29.2" r="10"/><path class="st4" d="M76.4 56.3c0-10.8 8.8-19.6 19.6-19.6s19.6 8.8 19.6 19.6H76.4z"/></g><circle class="st3" cx="34.8" cy="139.7" r="31"/><path class="st4" d="M34.8 111.2c15.7 0 28.5 12.8 28.5 28.5s-12.8 28.5-28.5 28.5-28.4-12.8-28.4-28.5 12.7-28.5 28.4-28.5m0-4.9c-18.5 0-33.5 15-33.5 33.5s15 33.5 33.5 33.5 33.5-15 33.5-33.5-15-33.5-33.5-33.5z"/><defs><circle id="SVGID_3_" cx="34.8" cy="139.7" r="22.3"/></defs><clipPath id="SVGID_4_"><use xlink:href="#SVGID_3_" overflow="visible"/></clipPath><g clip-path="url(#SVGID_4_)"><circle class="st4" cx="34.8" cy="135.2" r="10"/><path class="st4" d="M15.3 162.3c.3-10.8 9.3-19.4 20.1-19.1 10.4.3 18.8 8.7 19.1 19.1H15.3z"/></g><circle class="st3" cx="157.2" cy="139.7" r="31"/><path class="st4" d="M157.2 111.2c15.7 0 28.5 12.8 28.5 28.5s-12.8 28.5-28.5 28.5-28.5-12.8-28.5-28.5 12.7-28.5 28.5-28.5m0-4.9c-18.5 0-33.5 15-33.5 33.5s15 33.5 33.5 33.5 33.5-15 33.5-33.5-15.1-33.5-33.5-33.5z"/><g><defs><circle id="SVGID_5_" cx="157.2" cy="139.7" r="22.3"/></defs><clipPath id="SVGID_6_"><use xlink:href="#SVGID_5_" overflow="visible"/></clipPath><g clip-path="url(#SVGID_6_)"><circle class="st4" cx="157.2" cy="135.2" r="10"/><path class="st4" d="M137.6 162.3c.3-10.8 9.3-19.4 20.1-19.1 10.4.3 18.8 8.7 19.1 19.1h-39.2z"/></g></g><circle cx="96" cy="104.4" r="38.4" fill="#352ca2"/><path class="st4" d="M96 68.5c19.8 0 35.9 16.1 35.9 35.9s-16.1 35.9-35.9 35.9-35.9-16.1-35.9-35.9S76.2 68.5 96 68.5m0-5c-22.6 0-40.9 18.3-40.9 40.9s18.3 40.9 40.9 40.9 40.9-18.3 40.9-40.9S118.6 63.5 96 63.5z"/><path class="st4" d="M113.3 108l5.3 4.9-4 6.9-6.9-2.2-6.2 3.6-1.5 7h-8l-1.5-7-6.2-3.6-6.9 2.2-4-6.9 5.3-4.9v-7.2L73.4 96l4-6.9 6.9 2.2 6.2-3.6 1.5-7h8l1.5 7 6.2 3.6 6.9-2.2 4 6.9-5.3 4.9v7.1zm-12.5-11.9c-4.6-2.7-10.5-1.1-13.1 3.5-2.7 4.6-1.1 10.5 3.5 13.1 4.6 2.7 10.5 1.1 13.1-3.5 2.6-4.6 1.1-10.5-3.5-13.1z"/></svg>