<svg viewBox="0 0 185 62" fill="none" xmlns="http://www.w3.org/2000/svg"><path opacity=".15" d="M199.526 42.388 202 44.196V62H-80V27.312l2.474-3.873c2.473-3.872 7.42-11.617 12.368-14.483 4.947-2.866 9.895-.852 14.842 4.302 4.948 5.155 9.895 13.452 14.842 17.512 4.948 4.06 9.895 3.884 14.842-4.212 4.948-8.096 9.895-24.112 14.843-25.462C-.842-.254 4.105 13.062 9.053 17.699c4.947 4.637 9.894.594 14.842 2.476 4.947 1.882 9.894 9.687 14.842 7.512 4.947-2.175 9.895-14.33 14.842-16.055 4.947-1.725 9.895 6.98 14.842 12.734 4.947 5.755 9.895 8.559 14.842 13.69 4.947 5.132 9.895 12.592 14.842 14.994 4.948 2.403 9.895-.252 14.842-6.048 4.948-5.795 9.895-14.73 14.842-15.186 4.948-.456 9.895 7.568 14.843 9.528 4.947 1.961 9.894-2.141 14.842.875 4.947 3.016 9.894 13.15 14.842 12.858 4.947-.291 9.895-11.009 14.842-14.56 4.947-3.552 9.895.064 12.368 1.871Z" fill="#BD2E2E" stroke="#B30000"/></svg>