<svg viewBox="0 0 185 79" fill="none" xmlns="http://www.w3.org/2000/svg"><path opacity=".15" d="m-8.986 64.902-1.514-2.84V84h218V29.878l-1.514-5.443c-1.514-5.442-4.542-16.327-7.569-20.854-3.028-4.528-6.056-2.698-9.084 2.387-3.027 5.084-6.055 13.424-9.083 19.911-3.028 6.488-6.056 11.123-9.083 10.198-3.028-.925-6.056-7.41-9.084-4.603-3.027 2.807-6.055 14.906-9.083 16.977-3.028 2.07-6.056-5.888-9.083-13.089-3.028-7.2-6.056-13.641-9.084-11.225-3.027 2.416-6.055 13.69-9.083 15.252-3.028 1.563-6.056-6.587-9.083-2.715-3.028 3.873-6.056 19.769-9.084 24.193-3.027 4.425-6.055-2.62-9.083-4.038-3.028-1.417-6.056 2.793-9.083.717-3.028-2.077-6.056-10.441-9.084-15.52-2.976-4.993-5.953-6.812-8.93-8.63l-.153-.094c-3.028-1.85-6.056-3.758-9.083-4.317-3.028-.56-6.056.23-9.084 5.373C50.056 39.5 47.028 48.998 44 55.869c-3.028 6.871-6.056 11.117-9.083 8.08-3.028-3.037-6.056-13.355-9.084-13.967-3.027-.612-6.055 8.482-9.083 12.606-3.028 4.123-6.056 3.276-9.083 5.2-3.028 1.924-6.056 6.619-9.084 6.127-3.027-.493-6.055-6.173-7.57-9.013Z" fill="#427D14" stroke="#192F07"/></svg>