<svg width="98" height="98" viewBox="0 0 98 98" fill="none" xmlns="http://www.w3.org/2000/svg"><g clip-path="url(#clip0_1012_5169)"><path d="M45.236 24.028h.904c.047 0 .077.035.102.075a7.54 7.54 0 0 1-1.006.106c-.129.004-.129-.18 0-.18Z" fill="#000"/><path d="M3.613 84.377c.033-.123-.027-.168-.134-.099a.046.046 0 0 1-.01.005c-.108.067-.169.023-.133-.099.681-2.4 1.973-4.466 2.766-6.754.041-.12.012-.136-.065-.034l-.517.683c-.077.102-.153.175-.17.163-.018-.012.021-.11.086-.219l2.851-4.782c.065-.11.083-.22.04-.248-.044-.027-.14.034-.214.138-.21.288-.418.578-.628.867-.074.103-.152.181-.17.175-.017-.007-.006-.097.029-.203.034-.105.042-.21.015-.237-.025-.026-.117.026-.207.117l-1.33 1.362c-.09.091-.11.073-.048-.039l.298-.537c.063-.111.095-.234.072-.26-.022-.026-.123-.01-.229.063-.525.37-1.055.697-1.617 1.09-.106.074-.153-.036-.109-.14.045-.103-.263-.274-.142-.298.573-.113 1.066-.873 1.066-.873.807-1.281 1.829-2.467 2.616-3.76 1.076-1.768 1.867-3.68 2.23-5.734.043-.257.072-.516.085-.777.007-.127.04-.16.06-.073.02.087.073.06.115-.062l1.486-4.272c.042-.12.067-.224.056-.231-.012-.007-.067.08-.125.193l-.619 1.237c-.058.112-.122.198-.147.19-.021-.008-.017-.102.015-.207a1.05 1.05 0 0 1 .069-.187c1.265-2.485 2.52-4.975 3.815-7.444a5.22 5.22 0 0 1 1.01-1.324c1.209-1.151 2.465-2.253 3.689-3.389.434-.403.825-.854 1.243-1.278.216-.217.423-.456.675-.622 1.662-1.086 3.145-2.34 4.384-3.92 1.651-2.106 3.903-3.517 6.145-4.916.539-.335 1.071-.696 1.649-.95.767-.338 1.554-.703 2.368-.838 1.17-.195 2.38-.136 3.556-.297.848-.117 1.69-.366 2.502-.647 1.944-.672 3.862-1.415 5.803-2.095 1.273-.446 1.987-1.557 2.943-2.382a.458.458 0 0 0 .115-.21c.039-.122.046-.243.016-.273-.03-.029-.147-.007-.262.05l-.953.472c-.115.057-.146.02-.07-.083.078-.108.157-.215.237-.322.076-.103.127-.205.114-.228-.012-.023-.117 0-.232.054l-1.563.71c-.116.054-.232.077-.257.054-.026-.024.009-.131.075-.24l.215-.348c.067-.108.025-.158-.094-.111l-2.32.922c-.12.047-.22.073-.228.057-.008-.015.078-.077.192-.136l1.9-1.018c.112-.06.19-.143.17-.184-.02-.04-.132-.04-.253 0l-.78.263c-.121.04-.23.05-.242.022-.012-.029.057-.117.155-.198l.194-.159c.1-.08.171-.174.162-.21-.01-.035-.12-.05-.246-.032l-.553.074c-.126.017-.15-.035-.052-.116l.168-.139c.1-.081.088-.198-.031-.24-.73-.264-1.387.129-2.113.245-.126.02-.144-.033-.04-.106l1.968-1.38c.106-.073.186-.143.18-.158-.005-.015-.106.013-.223.061l-1.195.485c-.117.048-.227.064-.242.033-.016-.029.06-.107.167-.175l1.417-.877c.108-.066.19-.145.18-.174-.01-.03-.116-.024-.239.011l-.369.105c-.123.035-.175-.029-.103-.134.525-.746 1.464-.885 2.087-1.462.092-.087.061-.135-.06-.095l-.405.134c-.121.04-.138.009-.036-.068l.195-.15c.102-.076.08-.147-.047-.156l-.503-.035c-.127-.008-.132-.05-.012-.09l.602-.206c.12-.04.214-.099.208-.124-.006-.025-.111-.036-.237-.011a13.34 13.34 0 0 1-1.008.158c-.064.007-.13-.065-.198-.1-.102-.05-.124-.227-.051-.28.047-.035.04-.14-.002-.213.516-.092 1-.266 1.428-.663.094-.086.062-.156-.066-.149l-.352.019c-.128.007-.136-.028-.02-.08l.069-.03c.116-.05.114-.128-.006-.172l-1.453-.53c-.12-.044-.212-.103-.206-.132.007-.03.115-.059.242-.064l.111-.005c.128-.006.168-.093.091-.194l-.417-.547c-.076-.101-.081-.246-.014-.327.049-.06.09-.121.076-.168-.04-.134-.206-.275-.35-.326-.279-.098-.567-.163-.849-.3-.113-.055-.099-.116.03-.122l2.278-.108c.127-.006.235-.044.24-.086.003-.042-.041-.104-.102-.139-.061-.034-.01-.083.116-.11l.389-.078c.125-.026.227-.073.227-.106 0-.032-.102-.066-.23-.076l-.902-.066c-.127-.01-.128-.035-.003-.057l1.523-.264c.126-.022.232-.072.236-.113.005-.04-.092-.096-.216-.125l-.153-.034c-.123-.028-.136-.104-.026-.168l2.852-1.67c.11-.064.097-.106-.03-.091-.8.098-1.506.27-2.158-.044-.115-.055-.1-.131.027-.153l.742-.128c.126-.022.215-.065.198-.095-.017-.031.069-.087.19-.124l1.128-.352c.122-.037.216-.108.21-.157-.007-.049-.114-.098-.241-.11l-.859-.077c-.127-.012-.228-.04-.227-.063.001-.023.105-.058.232-.078l.992-.159c.126-.02.227-.073.225-.12-.002-.047-.106-.1-.232-.12l-.637-.098c-.127-.019-.175-.078-.107-.132.068-.053.128-.137.136-.188.007-.051-.087-.117-.21-.147L47.437 14c-.124-.032-.12-.045.006-.032 1.107.118 1.396.139 1.53.004.09-.091.017-.248-.098-.303-.258-.123-.502-.261-.443-.642.02-.126.162-.216.29-.211.209.01.446.02.682.049.886.11.963.124 1.306-.524a.22.22 0 0 0-.102-.303l-1.172-.545c-.115-.054-.199-.124-.185-.156.013-.032.12-.023.24.025.286.116.57.24.866.309.385.09.828.383 1.148-.148.02-.035.102-.033.154-.05 1.722-.573 3.444-1.142 5.163-1.722.31-.1.603-.243.87-.427.105-.073.081-.135-.046-.126l-.132.008c-.127.008-.241-.004-.254-.026-.012-.022.07-.09.183-.15l1.339-.705c.118-.06.201-.126.193-.149-.01-.023-.12-.031-.246-.016l-.105.011c-.128.014-.136-.018-.02-.07l3.155-1.426c.117-.053.204-.133.193-.179-.01-.046-.12-.078-.248-.072l-.913.045c-.127.007-.13-.011-.005-.04l.556-.123c.125-.028.134-.098.02-.158l-1.512-.782c-.114-.059-.103-.092.023-.071.616.103 1.236.203 1.856.307.126.021.239-.008.252-.054.014-.045-.037-.142-.113-.19-.076-.048-.036-.15.088-.176.334-.07.657-.214.978-.281 0 0-.84-.25.37-.421 1.13-.16 2.093-.58 3.05-1.2.777-.503 1.71-.795 2.605-1.083 1.068-.345 2.172-.58 3.256-.877.403-.11.79-.324 1.197-.368.513-.054 1.034-.028 1.499-.018A.777.777 0 0 0 75.33.8c.108-.084.211-.16.316-.162 2.245-.041 4.489.002 6.678.583.437.116.838.357 1.27.5.165.055.42.074.543-.014.447-.326.858-.702 1.276-1.065.192-.167.377-.344.563-.52.093-.087.198-.139.236-.117.037.022.067.133.066.25a.851.851 0 0 1-.022.206c-.106.41-.232.814-.352 1.22-.248.842-.243.826.596 1.1.362.117.75.256 1.03.497.376.32.756.302 1.18.285.36-.015.724.036 1.086.04 1.17.013 2.285-.222 3.331-.763a.514.514 0 0 1 .202-.046.179.179 0 0 1 .196.197c0 .07-.017.14-.05.2-.46.718-.94 1.402-1.787 1.739-.46.183-.896.448-1.313.721-.729.479-.893 1.045-.654 1.884.363 1.275.778 2.543 1.01 3.842.113.626-.134 1.318-.23 1.979-.044.3-.176.598-.172.896.04 2.651.469 5.244 1.205 7.79.125.43.213.87.292 1.242.027.125.082.281.103.357a.546.546 0 0 1 0 .288 1.15 1.15 0 0 1-.106.239c-.03.054-.077.13-.1.176a.612.612 0 0 1-.047.077 5.552 5.552 0 0 1-.42.512.295.295 0 0 0-.018.359c.063.08.128.16.195.239a.6.6 0 0 1 .109.198c.038.12.04.238.05.26.007.012.01.026.011.04 0 .137-.066.338-.171.401-.492.29-1 .553-1.54.841-.112.06-.12.169-.015.244l.14.101c.105.074.112.205.008.278-.54.376-1.117.356-1.723.26-.286-.045-.585 0-.876-.002-.13-.001-.309.027-.378-.044-.411-.42-.919-.463-1.468-.527-.76-.09-1.425-1.023-1.32-1.794.14-1.01-.155-1.775-.863-2.544-.594-.644-.895-1.552-1.36-2.324a1.236 1.236 0 0 0-.567-.477c-.347-.137-.648-.007-.746.388-.238.964-.629 1.927-.652 2.897-.034 1.453.146 2.917.325 4.364.2 1.625 1.012 3 1.92 4.334 1.021 1.502 1.606 3.126 1.287 5.007-.173 1.02-.193 2.067-.239 3.104-.008.197.13.497.293.59 2.907 1.663 5.437 3.824 7.978 5.974.424.359.914.642 1.327 1.012 1.08.963 1.217 2.209.968 3.538-.057.3-.14.618-.3.87-.754 1.19-.787 2.45-.46 3.768.508 2.05.976 4.11 1.508 6.154.154.594.083 1.117-.218 1.601a10.145 10.145 0 0 0-1.375 3.586c-.195 1.076-.78 1.947-1.401 2.812-.482.672-.905 1.384-1.37 2.066-.387.57-.772.728-1.373.407-.492-.264-1.011-.617-1.312-1.068-.844-1.267-1.068-2.703-.78-4.197.056-.29.177-.619.377-.823a37.526 37.526 0 0 1 2.332-2.215c.53-.457.713-1.152.413-1.785a3.795 3.795 0 0 1-.334-1.196c-.049-.462-.023-.934-.016-1.478.002-.127-.084-.173-.187-.098-.758.551-1.316 1.177-1.447 2.027-.235 1.542-1.19 2.223-2.578 2.66-2.416.76-4.836 1.367-7.4 1.277-1.186-.042-1.198.026-1.11-1.175.126-1.75.993-3.172 2.045-4.498a.779.779 0 0 1 .54-.268c.576.005 1.154.05 1.724.131.18.026.347.208.498.342.283.252.555.517.85.8.094.088.212.084.269-.007a1.1 1.1 0 0 0 .092-.169c.4-1.008.4-1.027 1.439-1.026a1.969 1.969 0 0 0 1.737-.979c.813-1.344 1.532-2.75 2.245-4.151.097-.193.013-.55-.108-.763a4.421 4.421 0 0 0-.807-1.044c-.187-.173-.507-.276-.772-.284-2.346-.089-4.697-.084-7.037-.238-2.127-.138-4.245-.428-6.363-.675-.268-.031-.596-.152-.761-.345-.555-.65-1.18-.633-1.87-.311-1.36.632-2.698 1.318-4.078 1.9-1.983.84-4.008 1.573-5.993 2.408-3.815 1.605-7.91 2.068-11.899 2.958-.842.188-1.712.251-2.573.345-.39.043-.669.212-.767.584-.136.516-.322 1.044-.323 1.567-.005 1.903-.563 3.628-1.493 5.263-.323.566-.639 1.145-.862 1.754-.497 1.351-.266 2.61.65 3.727 1.787 2.184 3.88 4.055 6.003 5.896.654.567 1.309 1.135 1.916 1.75.22.236.356.539.387.86.121 1.711.297 3.409.818 5.055.374 1.183-.133 2.216-.611 3.243-.409.876-.831 1.745-1.304 2.734-.055.114-.169.131-.255.038-.534-.58-1.033-1.086-1.476-1.639-.905-1.126-1.492-2.428-1.868-3.81-.113-.42-.024-.92.072-1.363.12-.556.388-1.082.494-1.64.037-.193-.178-.584-.355-.64-.718-.232-.978-.839-1.388-1.367-.788-1.013-1.696-1.932-2.58-2.867-.947-1.002-2.074-1.747-3.304-2.383-1.312-.68-2.571-1.469-3.812-2.274-.309-.2-.515-.557-.765-.9a.291.291 0 0 0-.35-.087c-.98.487-1.72 1.334-2.225 2.492-1.002 2.29-.596 4.451.453 6.554.953 1.91 2 3.772 3.014 5.65.621 1.151 1.604 1.945 2.65 2.68.292.206.596.444.791.738 1.346 2.041 2.416 4.231 3.413 6.458.265.59.219.767-.438.852-.814.109-1.648.13-2.47.093-1.407-.062-2.74-.407-3.848-1.35-.839-.712-1.321-1.588-1.224-2.724.006-.059 0-.117.014-.173.223-1.038-.038-1.74-1.17-2.08-.855-.259-1.318-1.049-1.695-1.813-1.092-2.205-2.11-4.447-3.233-6.635-.878-1.71-1.85-3.371-2.812-5.034a67.345 67.345 0 0 0-2.003-3.238c-.674-1.03-.498-1.953.131-2.94.838-1.309 1.581-2.678 2.369-4.02.7-1.189.38-2.398-.36-3.293-1.885-2.277-2.755-5.05-4.052-7.614-.101-.2-.164-.422-.27-.63-.058-.113-.107-.096-.09.03.021.143.038.284.031.425-.077 1.79-.186 3.582-.24 5.375-.024.845.147 1.704.055 2.537-.138 1.255-.424 2.494-.65 3.738a4.995 4.995 0 0 1-.21.84c-.046.12-.08.109-.068-.017.017-.157.032-.315.047-.472.014-.127-.002-.129-.03-.006-.49 2.019-.938 4.046-2.047 5.846-.065.108-.09.096-.049-.023l.057-.16c.041-.122.01-.14-.071-.04l-1.919 2.368c-.08.1-.166.079-.192-.047l-.041-.204c-.024-.125-.14-.183-.256-.131-.299.132-.585.249-.846.413-.291.184-.57.413-.854.658-.097.084-.175.08-.175-.01 0-.088-.04-.152-.089-.137a.205.205 0 0 0-.078.046c-1.411 1.145-2.634 2.446-3.611 4.007a12.244 12.244 0 0 1-2.396 2.766c-.344.296-.63.642-1.012.918-.104.075-.14.038-.076-.072l.28-.474c.064-.11.1-.212.079-.23-.02-.017-.105.047-.188.143-.247.286-.5.58-.786.908-.083.098-.13.073-.107-.052a.102.102 0 0 0 .005-.023c.024-.125-.04-.166-.144-.092l-1.822 1.31c-.103.072-.195.03-.202-.098l-.041-.608c-.008-.126-.055-.237-.102-.243-.047-.006-.15.067-.23.167l-.057.07c-.079.1-.157.175-.174.17-.018-.005.01-.105.06-.223l.252-.605c.049-.118.07-.224.046-.237-.024-.013-.106.06-.182.162l-.395.53c-.076.101-.153.177-.172.168-.02-.01-.007-.116.025-.239.116-.405.228-.81.338-1.218Z" fill="#1C1C1C"/></g><defs><clipPath id="clip0_1012_5169"><path fill="#fff" transform="matrix(-1 0 0 1 98 0)" d="M0 0h98v98H0z"/></clipPath></defs></svg>