<svg width="98" height="98" viewBox="0 0 98 98" fill="none" xmlns="http://www.w3.org/2000/svg"><g clip-path="url(#clip0_1012_5180)"><path d="M12.64 94.78c1.964.138 3.827.678 5.77-.135-.402-1.301-.749-2.573-1.194-3.806-.418-1.167-.92-2.287-.562-3.58.08-.29-.015-.656-.102-.969-.604-2.142-.346-4.312-.248-6.482.135-3.119.902-6.065 2.048-8.95.205-.525.192-1.235.034-1.787-.32-1.096-.2-2.112.006-3.201.516-2.717 1.396-5.313 2.387-7.873.528-1.362 1.234-2.658 1.919-4.113.733.768.967 1.62 1.188 2.535.638 2.674-.283 5.046-1.338 7.388-.507 1.123-1.121 2.201-1.655 3.312-.2.42-.478.896-.445 1.326.136 1.725.034 3.453.347 5.18.307 1.667.344 3.383.454 5.08.062.945-.224 1.993.092 2.827.712 1.903-.12 3.733.04 5.583.042.51.092 1.02.116 1.286.808.534 1.465.887 2.023 1.35.798.669 1.084 1.436.543 2.505-.604 1.21.117 2.499 1.427 2.579 1.514.095 3.036.006 4.552-.025.16-.003.322-.16.617-.319-.567-1.273-1.133-2.48-2.007-3.554-.887-1.093-1.826-2.18-2.49-3.408-.447-.837-.564-1.902-.631-2.879-.188-2.636-.344-5.279-.36-7.921-.006-1.062.314-2.146.618-3.183a54.8 54.8 0 0 1 1.561-4.573c.409-1.05.826-2.143 1.483-3.045 1.197-1.645 1.894-3.474 2.535-5.371.451-1.336 1.108-2.597 1.682-3.892.135-.3.307-.59.464-.88.165.116.335.233.5.346-.135.405 1.363.51 2.422.826 2.642.785 5.368 1.132 8.13 1.15 1.329.007 2.657-.012 3.985.043 1.34.056 1.516.3 1.541 1.64.066 4.026.183 8.05.201 12.077.01 1.654-.185 3.305-.27 4.956-.018.38-.063.801.076 1.13.971 2.335.378 4.674.063 7.007-.139 1.028-.396 2.041-.623 3.051-.223.998.062 1.9.575 2.71.663 1.056.717 2.038-.114 3.002-.972 1.136-.435 2.455-.42 3.695.003.19.537.537.833.543 1.887.046 3.774.052 5.66.003.824-.021 1.04-.383.695-1.105-.752-1.565-1.119-3.296-2.24-4.708-.56-.7-.786-1.59-.714-2.548.046-.601-.038-1.23-.18-1.817-.65-2.691-.27-5.377-.006-8.063.03-.315.201-.632.357-.92 1.202-2.213 1.397-4.558 1.164-7.029-.129-1.347.029-2.744.203-4.1.3-2.302.678-4.596 1.098-6.876.122-.66.51-1.273.773-1.902l.318.039c.157.77.417 1.541.45 2.317.118 2.834.169 5.673.234 8.512.01.374-.072.755-.06 1.136.05 1.552.164 3.106.177 4.662.025 3.355-.01 6.712.01 10.067.005.936.053 1.881.2 2.802.057.368.39.727.672 1.013 1.127 1.151 1.922 2.357 1.035 4.024-.349.657.075 1.191.213 1.814.416 1.829 1.697 1.577 2.953 1.572 1.042 0 2.088.012 3.129-.03.444-.023.881-.164 1.58-.305-.37-.592-.618-.96-.837-1.345-.944-1.639-1.839-3.3-3.191-4.671-.956-.968-1.28-2.182-1.53-3.558-.497-2.74-.45-5.476-.459-8.22-.004-.423-.02-.871.1-1.27.758-2.493.732-5.056.735-7.612.003-2.809.732-5.51 1.889-7.969 1.094-2.327 1.49-4.668 1.652-7.145.032-.466.267-1.043.608-1.356 2.004-1.854 2.934-4.276 3.626-6.806.154-.56.072-1.227-.062-1.806-.607-2.642-1.172-5.278-.864-8.013.03-.28 0-.579.08-.842a55.67 55.67 0 0 1 4.952-11.148c.037-.027.1-.037.295-.135 2.85 1.332 5.8 2.717 8.747 4.089.635.296 1.014.745 1.278 1.42.909 2.318 3.094 2.84 5.03 1.269 2.118-1.717 2.63-4.393 1.493-6.888-1.069-2.338-2.3-4.563-3.788-6.662-.588-.83-1-1.843-.691-2.822.552-1.757-.24-3.16-.974-4.573-.567-1.088-1.298-2.09-1.985-3.166.866-2.07 2.324-4.035 1.808-6.84a9514.555 9514.555 0 0 0-4.71 4.572l-1.513-.554c-.137-1.472-.271-2.915-.419-4.468-1.076.44-1.443 1.274-1.823 2.135-.551 1.244-1.17 2.46-1.7 3.567-.944 0-1.673-.123-2.34.029-1.196.267-2.243.76-3.058 1.853-.648.87-1.652 1.53-2.604 2.106a175.974 175.974 0 0 0-6.096 3.866c-3.267 2.165-5.615 4.99-7.57 8.272-.258.434-.592.95-1.017 1.136-1.712.744-2.852 2.174-4.21 3.337-1.974 1.684-4.076 2.388-6.765 2.024-2.961-.403-5.657-1.559-8.496-2.281-2.51-.64-5.043-.802-7.593-.453-1.965.267-3.64 1.281-5.303 2.31-.913.563-1.903 1.109-2.934 1.346-3.205.735-5.356 2.693-6.842 5.505-2.615 4.953-4.051 10.306-5.26 15.726-.062.27-.087.574-.031.841.3 1.529.656 3.048.356 4.7.169-.222.335-.44.623-.826-.095 3.48-.185 6.802-.277 10.122l.258.019.157-1.7h.203c0 .54.003 1.08 0 1.62-.015 1.685.129 3.395-.117 5.046-.128.878.82.743.743 1.305-.061.423-.408.85-.35 1.237.099.668.62.798 1.296.74.777-.064 1.464-.052 1.326-1.148.304.316.524.715.831.807.268.08.64-.196.973-.319.141.181.304.393.522.67.135-.277.212-.443.298-.609.064.037.171.067.187.123.291.985.721 1.955.816 2.96a46.32 46.32 0 0 1 .207 5.806c-.031 1.01-.384 2.031-.725 3.002-.454 1.289-.417 2.523.157 3.732.488 1.031.534 1.946-.248 2.9-.754.916-.592 2.03-.359 3.274ZM7.421 61.895c-.056 0-.117-.006-.172-.006v-5.273c.055 0 .116 0 .172.006v5.273Z" fill="#1C1C1C"/></g><defs><clipPath id="clip0_1012_5180"><path fill="#fff" transform="matrix(-1 0 0 1 98 0)" d="M0 0h98v98H0z"/></clipPath></defs></svg>