<svg width="98" height="98" viewBox="0 0 98 98" fill="none" xmlns="http://www.w3.org/2000/svg"><path d="M83.222 20.008a22.54 22.54 0 0 0-27.97-3.144l9.065 9.229a4.083 4.083 0 0 1-3.063 6.819 4.084 4.084 0 0 1-3.062-1.348L46.677 20.008a22.133 22.133 0 0 0-5.635-4.083 22.62 22.62 0 0 0-26.256 4.083 27.195 27.195 0 0 0 0 35.444c7.595 8.166 26.051 27.072 34.34 27.072 6.452 0 19.11-11.474 27.89-20.416 2.205-2.205 4.083-4.084 5.716-5.921l.613-.654a27.195 27.195 0 0 0-.123-35.525ZM57.171 55.125h-4.084v4.083a4.083 4.083 0 1 1-8.166 0v-4.083h-4.084a4.083 4.083 0 1 1 0-8.167h4.084v-4.083a4.084 4.084 0 0 1 8.166 0v4.083h4.084a4.083 4.083 0 1 1 0 8.167Z" fill="#1C1C1C"/></svg>