<svg width="354" height="364" viewBox="0 0 354 364" fill="none" xmlns="http://www.w3.org/2000/svg">
<g opacity="0.6" filter="url(#filter0_f_692_44920)">
<path d="M74.942 276.905C73.1516 276.114 71.936 274.939 71.3001 273.631L70.7734 265.332L108.571 263.875L307.262 265.478L307.262 271.408C307.262 273.507 305.905 275.602 303.188 276.8L267.003 292.765L237.455 305.802L204.388 320.392C194.83 324.61 183.055 324.61 173.499 320.392L145.179 307.897L106.367 290.75V290.772L106.343 290.76L77.5659 278.062L74.942 276.905Z" fill="#D4F2E4"/>
<path d="M74.942 276.905C73.1516 276.114 71.936 274.939 71.3001 273.631L70.7734 265.332L108.571 263.875L307.262 265.478L307.262 271.408C307.262 273.507 305.905 275.602 303.188 276.8L267.003 292.765L237.455 305.802L204.388 320.392C194.83 324.61 183.055 324.61 173.499 320.392L145.179 307.897L106.367 290.75V290.772L106.343 290.76L77.5659 278.062L74.942 276.905Z" fill="url(#paint0_linear_692_44920)" fill-opacity="0.15"/>
<path d="M204.381 214.723L303.679 258.316C306.408 259.513 307.77 261.61 307.772 263.707C307.772 265.805 306.409 267.898 303.68 269.095L267.339 285.05L237.662 298.078L204.452 312.658C194.853 316.873 183.027 316.873 173.429 312.658L144.987 300.171L106.006 283.036V283.058L105.982 283.046L77.0798 270.357L74.4445 269.201C72.6463 268.41 71.4255 267.236 70.7868 265.929C70.4352 265.21 70.2578 264.45 70.2578 263.69C70.2546 261.545 71.6496 259.399 74.4413 258.172L173.35 214.726C182.951 210.509 194.779 210.508 204.381 214.723Z" fill="#F0FAF6"/>
</g>
<path d="M29.2847 211.168C26.7934 209.634 25.102 207.359 24.2172 204.824L23.4844 188.744L76.0774 185.921L352.543 189.026L352.542 200.516C352.542 204.584 350.654 208.643 346.874 210.963L296.525 241.897L255.411 267.158L209.401 295.426C196.102 303.598 179.717 303.598 166.421 295.426L127.015 271.216L73.011 237.993V238.036L72.9775 238.012L32.9356 213.41L29.2847 211.168Z" fill="#D4F2E4"/>
<path d="M29.2847 211.168C26.7934 209.634 25.102 207.359 24.2172 204.824L23.4844 188.744L76.0774 185.921L352.543 189.026L352.542 200.516C352.542 204.584 350.654 208.643 346.874 210.963L296.525 241.897L255.411 267.158L209.401 295.426C196.102 303.598 179.717 303.598 166.421 295.426L127.015 271.216L73.011 237.993V238.036L72.9775 238.012L32.9356 213.41L29.2847 211.168Z" fill="url(#paint1_linear_692_44920)" fill-opacity="0.15"/>
<path d="M209.394 90.6856L347.56 175.15C351.357 177.469 353.253 181.532 353.255 185.595C353.255 189.661 351.359 193.717 347.562 196.036L296.995 226.948L255.702 252.192L209.492 280.441C196.136 288.607 179.68 288.607 166.326 280.441L126.75 256.248L72.5112 223.047V223.09L72.4775 223.066L32.2619 198.481L28.5951 196.24C26.093 194.707 24.3942 192.434 23.5056 189.901C23.0164 188.508 22.7695 187.035 22.7695 185.562C22.7651 181.406 24.7062 177.248 28.5906 174.872L166.216 90.6928C179.575 82.5215 196.033 82.5191 209.394 90.6856Z" fill="#F0FAF6"/>
<path d="M69.8892 74.7969L69.8892 87.1016C69.8892 92.4401 69.3958 97.3311 68.4092 101.774C67.4225 106.185 65.9988 110.165 64.1382 113.713C62.3058 117.212 60.121 120.28 57.5838 122.917C55.0467 125.554 52.2276 127.767 49.1266 129.558C46.6458 130.99 44.3341 131.966 42.1916 132.487C40.0491 132.976 38.118 132.935 36.3984 132.365C34.7069 131.779 33.241 130.656 32.0006 128.996C30.7884 127.287 29.8581 124.96 29.2097 122.014C28.5613 119.068 28.2371 115.446 28.2371 111.149L28.2371 98.8447C28.2371 93.5062 28.7304 88.6478 29.7171 84.2695C30.732 79.8424 32.1556 75.8792 33.988 72.3799C35.8486 68.8643 38.0475 65.8044 40.5847 63.2002C43.1219 60.5635 45.941 58.3499 49.042 56.5596C51.5228 55.1273 53.8204 54.1751 55.9347 53.7031C58.0772 53.1823 60.0083 53.1904 61.7279 53.7275C63.4476 54.2646 64.9135 55.3877 66.1257 57.0967C67.3379 58.7731 68.2682 61.0843 68.9166 64.0303C69.565 66.9437 69.8892 70.5326 69.8892 74.7969ZM57.6684 96.0127L57.6684 79.9482C57.6684 77.3766 57.5416 75.2038 57.2878 73.4297C57.0623 71.6393 56.7099 70.2152 56.2307 69.1572C55.7514 68.0667 55.1594 67.3018 54.4546 66.8623C53.7499 66.4229 52.9464 66.2682 52.0443 66.3984C51.1422 66.5286 50.1414 66.9111 49.042 67.5459C47.6606 68.3434 46.4343 69.3607 45.3631 70.5977C44.32 71.8184 43.432 73.3239 42.699 75.1143C41.9661 76.8721 41.4022 78.988 41.0076 81.4619C40.6411 83.887 40.4579 86.6947 40.4579 89.8848L40.4579 105.949C40.4579 108.521 40.5706 110.718 40.7961 112.541C41.0499 114.348 41.4163 115.812 41.8956 116.936C42.403 118.01 42.995 118.791 43.6716 119.279C44.3764 119.719 45.1798 119.873 46.0819 119.743C47.0122 119.597 48.0271 119.206 49.1266 118.571C50.4797 117.79 51.6778 116.789 52.7209 115.568C53.7922 114.299 54.6943 112.769 55.4272 110.979C56.1884 109.139 56.7522 106.991 57.1187 104.533C57.4852 102.076 57.6684 99.2354 57.6684 96.0127ZM90.6518 62.9561L97.1639 59.1963C99.25 57.9919 100.97 56.5921 102.323 54.9971C103.676 53.3695 104.677 51.6198 105.325 49.748C106.002 47.8275 106.34 45.8581 106.34 43.8398C106.34 42.0169 106.03 40.5846 105.41 39.543C104.818 38.4525 103.902 37.8747 102.661 37.8096C101.421 37.7119 99.8561 38.2083 97.9673 39.2988C96.4732 40.1615 95.0919 41.3008 93.8233 42.7168C92.5547 44.1328 91.5398 45.679 90.7787 47.3555C90.0175 49.0319 89.6369 50.749 89.6369 52.5068L77.4162 59.5625C77.4162 55.6562 78.3183 51.7337 80.1225 47.7949C81.9549 43.8398 84.4075 40.1615 87.4803 36.7598C90.5531 33.3581 93.936 30.5911 97.6291 28.459C101.801 26.0501 105.452 24.7236 108.581 24.4795C111.71 24.2028 114.149 25.0573 115.897 27.043C117.645 29.0286 118.519 32.235 118.519 36.6621C118.519 38.9082 118.067 41.3496 117.165 43.9863C116.263 46.5905 114.966 49.2272 113.275 51.8965C111.612 54.5169 109.582 57.0234 107.186 59.416C104.79 61.776 102.097 63.8187 99.1091 65.5439L90.6518 70.4268L90.6518 62.9561ZM90.6518 73.6494L90.6518 66.374L99.1091 61.4912C102.464 59.5544 105.41 58.293 107.947 57.707C110.484 57.1211 112.613 57.1618 114.332 57.8291C116.052 58.4639 117.349 59.652 118.223 61.3936C119.096 63.1025 119.533 65.3079 119.533 68.0098C119.533 71.3301 118.984 74.6097 117.884 77.8486C116.785 81.055 115.234 84.1312 113.233 87.0771C111.259 90.0068 108.948 92.7087 106.298 95.1826C103.648 97.624 100.758 99.748 97.6291 101.555C95.0355 103.052 92.4842 104.118 89.9752 104.753C87.4944 105.339 85.2391 105.388 83.2094 104.899C81.2078 104.362 79.601 103.174 78.3887 101.335C77.2047 99.4469 76.6127 96.7451 76.6127 93.2295L88.8335 86.1738C88.8335 87.9967 89.2282 89.3965 90.0175 90.373C90.8069 91.3496 91.8922 91.846 93.2736 91.8623C94.6831 91.8623 96.2477 91.3659 97.9674 90.373C99.9125 89.25 101.576 87.8828 102.957 86.2715C104.367 84.6113 105.438 82.821 106.171 80.9004C106.932 78.931 107.313 76.9372 107.313 74.9189C107.313 72.3148 106.904 70.4674 106.086 69.377C105.269 68.2539 104.099 67.7575 102.577 67.8877C101.054 68.0179 99.25 68.6852 97.1639 69.8896L90.6518 73.6494Z" fill="url(#paint2_linear_692_44920)" fill-opacity="0.15"/>
<path fill-rule="evenodd" clip-rule="evenodd" d="M243.119 243.735L98.7734 160.38V66.7734L243.121 150.131L299.644 117.485V211.091L243.124 243.735V243.738L243.121 243.737L243.119 243.738V243.735Z" fill="#AA989A"/>
<path fill-rule="evenodd" clip-rule="evenodd" d="M243.119 243.735L98.7734 160.38V66.7734L243.121 150.131L299.644 117.485V211.091L243.124 243.735V243.738L243.121 243.737L243.119 243.738V243.735Z" fill="#D4F2E4"/>
<path d="M98.7734 66.7739L243.124 150.133L299.649 117.485L155.298 34.1924L98.7734 66.7739Z" fill="#F8F4F5"/>
<path d="M98.7734 66.7739L243.124 150.133L299.649 117.485L155.298 34.1924L98.7734 66.7739Z" fill="#F0FAF6"/>
<path d="M155.43 41.1876L289.27 119.324L293.54 116.795L155.43 37.082V41.1876Z" fill="url(#paint3_linear_692_44920)" fill-opacity="0.5"/>
<path d="M107.083 68.6463L155.43 41.1885V37.083L103.766 66.9056L107.083 68.6463Z" fill="url(#paint4_linear_692_44920)" fill-opacity="0.5"/>
<path d="M231.277 126.28C231.874 133.241 242.329 134.491 242.329 134.491C242.329 134.491 248.636 135.712 254.773 133.07C260.909 130.4 260.625 126.28 260.625 126.28V124.149L231.277 124.774V126.28Z" fill="#848387"/>
<path d="M231.277 126.28C231.874 133.241 242.329 134.491 242.329 134.491C242.329 134.491 248.636 135.712 254.773 133.07C260.909 130.4 260.625 126.28 260.625 126.28V124.149L231.277 124.774V126.28Z" fill="#D4F2E4"/>
<path d="M245.937 133.241C254.033 133.241 260.597 129.451 260.597 124.775C260.597 120.099 254.033 116.309 245.937 116.309C237.841 116.309 231.277 120.099 231.277 124.775C231.277 129.451 237.841 133.241 245.937 133.241Z" fill="#2D2421"/>
<path d="M245.937 133.241C254.033 133.241 260.597 129.451 260.597 124.775C260.597 120.099 254.033 116.309 245.937 116.309C237.841 116.309 231.277 120.099 231.277 124.775C231.277 129.451 237.841 133.241 245.937 133.241Z" fill="#D4F2E4"/>
<path d="M245.937 133.241C254.033 133.241 260.597 129.451 260.597 124.775C260.597 120.099 254.033 116.309 245.937 116.309C237.841 116.309 231.277 120.099 231.277 124.775C231.277 129.451 237.841 133.241 245.937 133.241Z" fill="url(#paint5_linear_692_44920)" fill-opacity="0.5"/>
<path d="M234.886 55.9648L232.613 124.462C233.153 130.797 242.642 131.905 242.642 131.905C242.642 131.905 248.381 133.013 253.949 130.598C259.518 128.183 259.29 124.433 259.29 124.433L257.018 55.9648H234.886Z" fill="#848387"/>
<path d="M234.886 55.9648L232.613 124.462C233.153 130.797 242.642 131.905 242.642 131.905C242.642 131.905 248.381 133.013 253.949 130.598C259.518 128.183 259.29 124.433 259.29 124.433L257.018 55.9648H234.886Z" fill="#D4F2E4"/>
<path d="M234.886 55.9648L232.613 124.462C233.153 130.797 242.642 131.905 242.642 131.905C242.642 131.905 248.381 133.013 253.949 130.598C259.518 128.183 259.29 124.433 259.29 124.433L257.018 55.9648H234.886Z" fill="#D4F2E4"/>
<path d="M245.939 62.3578C252.059 62.3578 257.019 59.4959 257.019 55.9655C257.019 52.4352 252.059 49.5732 245.939 49.5732C239.82 49.5732 234.859 52.4352 234.859 55.9655C234.859 59.4959 239.82 62.3578 245.939 62.3578Z" fill="#F0FAF6"/>
<path d="M245.939 62.3578C252.059 62.3578 257.019 59.4959 257.019 55.9655C257.019 52.4352 252.059 49.5732 245.939 49.5732C239.82 49.5732 234.859 52.4352 234.859 55.9655C234.859 59.4959 239.82 62.3578 245.939 62.3578Z" fill="url(#paint6_linear_692_44920)" fill-opacity="0.5"/>
<path d="M245.939 62.3578C252.059 62.3578 257.019 59.4959 257.019 55.9655C257.019 52.4352 252.059 49.5732 245.939 49.5732C239.82 49.5732 234.859 52.4352 234.859 55.9655C234.859 59.4959 239.82 62.3578 245.939 62.3578Z" fill="#F0FAF6"/>
<path d="M245.935 61.1285C250.878 61.1285 254.886 58.8166 254.886 55.9646C254.886 53.1127 250.878 50.8008 245.935 50.8008C240.992 50.8008 236.984 53.1127 236.984 55.9646C236.984 58.8166 240.992 61.1285 245.935 61.1285Z" fill="#F0FAF6"/>
<path d="M245.935 61.1285C250.878 61.1285 254.886 58.8166 254.886 55.9646C254.886 53.1127 250.878 50.8008 245.935 50.8008C240.992 50.8008 236.984 53.1127 236.984 55.9646C236.984 58.8166 240.992 61.1285 245.935 61.1285Z" fill="url(#paint7_linear_692_44920)" fill-opacity="0.3"/>
<path d="M197.633 109.29C198.229 116.25 208.684 117.5 208.684 117.5C208.684 117.5 214.991 118.722 221.128 116.08C227.265 113.409 226.98 109.29 226.98 109.29V107.159L197.633 107.784V109.29Z" fill="#848387"/>
<path d="M197.633 109.29C198.229 116.25 208.684 117.5 208.684 117.5C208.684 117.5 214.991 118.722 221.128 116.08C227.265 113.409 226.98 109.29 226.98 109.29V107.159L197.633 107.784V109.29Z" fill="#D4F2E4"/>
<path d="M212.292 116.251C220.389 116.251 226.952 112.46 226.952 107.785C226.952 103.109 220.389 99.3184 212.292 99.3184C204.196 99.3184 197.633 103.109 197.633 107.785C197.633 112.46 204.196 116.251 212.292 116.251Z" fill="#2D2421"/>
<path d="M212.292 116.251C220.389 116.251 226.952 112.46 226.952 107.785C226.952 103.109 220.389 99.3184 212.292 99.3184C204.196 99.3184 197.633 103.109 197.633 107.785C197.633 112.46 204.196 116.251 212.292 116.251Z" fill="#D4F2E4"/>
<path d="M212.292 116.251C220.389 116.251 226.952 112.46 226.952 107.785C226.952 103.109 220.389 99.3184 212.292 99.3184C204.196 99.3184 197.633 103.109 197.633 107.785C197.633 112.46 204.196 116.251 212.292 116.251Z" fill="url(#paint8_linear_692_44920)" fill-opacity="0.5"/>
<path d="M201.242 38.9756L198.969 107.472C199.509 113.808 208.998 114.916 208.998 114.916C208.998 114.916 214.736 116.024 220.305 113.609C225.873 111.194 225.646 107.444 225.646 107.444L223.373 38.9756H201.242Z" fill="#848387"/>
<path d="M201.242 38.9756L198.969 107.472C199.509 113.808 208.998 114.916 208.998 114.916C208.998 114.916 214.736 116.024 220.305 113.609C225.873 111.194 225.646 107.444 225.646 107.444L223.373 38.9756H201.242Z" fill="#D4F2E4"/>
<path d="M201.242 38.9756L198.969 107.472C199.509 113.808 208.998 114.916 208.998 114.916C208.998 114.916 214.736 116.024 220.305 113.609C225.873 111.194 225.646 107.444 225.646 107.444L223.373 38.9756H201.242Z" fill="#D4F2E4"/>
<path d="M212.291 45.3676C218.41 45.3676 223.371 42.5056 223.371 38.9753C223.371 35.4449 218.41 32.583 212.291 32.583C206.172 32.583 201.211 35.4449 201.211 38.9753C201.211 42.5056 206.172 45.3676 212.291 45.3676Z" fill="#F0FAF6"/>
<path d="M212.291 45.3676C218.41 45.3676 223.371 42.5056 223.371 38.9753C223.371 35.4449 218.41 32.583 212.291 32.583C206.172 32.583 201.211 35.4449 201.211 38.9753C201.211 42.5056 206.172 45.3676 212.291 45.3676Z" fill="url(#paint9_linear_692_44920)" fill-opacity="0.5"/>
<path d="M212.291 45.3676C218.41 45.3676 223.371 42.5056 223.371 38.9753C223.371 35.4449 218.41 32.583 212.291 32.583C206.172 32.583 201.211 35.4449 201.211 38.9753C201.211 42.5056 206.172 45.3676 212.291 45.3676Z" fill="#F0FAF6"/>
<path d="M212.294 44.1392C217.238 44.1392 221.245 41.8273 221.245 38.9754C221.245 36.1235 217.238 33.8115 212.294 33.8115C207.351 33.8115 203.344 36.1235 203.344 38.9754C203.344 41.8273 207.351 44.1392 212.294 44.1392Z" fill="#F0FAF6"/>
<path d="M212.294 44.1392C217.238 44.1392 221.245 41.8273 221.245 38.9754C221.245 36.1235 217.238 33.8115 212.294 33.8115C207.351 33.8115 203.344 36.1235 203.344 38.9754C203.344 41.8273 207.351 44.1392 212.294 44.1392Z" fill="url(#paint10_linear_692_44920)" fill-opacity="0.3"/>
<path d="M164.945 90.9413C165.542 97.9018 175.997 99.1518 175.997 99.1518C175.997 99.1518 182.304 100.373 188.44 97.7313C194.577 95.0608 194.293 90.9413 194.293 90.9413V88.8105L164.945 89.4356V90.9413Z" fill="#848387"/>
<path d="M164.945 90.9413C165.542 97.9018 175.997 99.1518 175.997 99.1518C175.997 99.1518 182.304 100.373 188.44 97.7313C194.577 95.0608 194.293 90.9413 194.293 90.9413V88.8105L164.945 89.4356V90.9413Z" fill="#D4F2E4"/>
<path d="M179.605 97.9022C187.701 97.9022 194.265 94.1117 194.265 89.4359C194.265 84.7602 187.701 80.9697 179.605 80.9697C171.509 80.9697 164.945 84.7602 164.945 89.4359C164.945 94.1117 171.509 97.9022 179.605 97.9022Z" fill="#2D2421"/>
<path d="M179.605 97.9022C187.701 97.9022 194.265 94.1117 194.265 89.4359C194.265 84.7602 187.701 80.9697 179.605 80.9697C171.509 80.9697 164.945 84.7602 164.945 89.4359C164.945 94.1117 171.509 97.9022 179.605 97.9022Z" fill="#D4F2E4"/>
<path d="M179.605 97.9022C187.701 97.9022 194.265 94.1117 194.265 89.4359C194.265 84.7602 187.701 80.9697 179.605 80.9697C171.509 80.9697 164.945 84.7602 164.945 89.4359C164.945 94.1117 171.509 97.9022 179.605 97.9022Z" fill="url(#paint11_linear_692_44920)" fill-opacity="0.5"/>
<path d="M168.554 20.627L166.281 89.1238C166.821 95.4592 176.31 96.5672 176.31 96.5672C176.31 96.5672 182.049 97.6752 187.617 95.2603C193.186 92.8455 192.958 89.0953 192.958 89.0953L190.686 20.627H168.554Z" fill="#848387"/>
<path d="M168.554 20.627L166.281 89.1238C166.821 95.4592 176.31 96.5672 176.31 96.5672C176.31 96.5672 182.049 97.6752 187.617 95.2603C193.186 92.8455 192.958 89.0953 192.958 89.0953L190.686 20.627H168.554Z" fill="#D4F2E4"/>
<path d="M168.554 20.627L166.281 89.1238C166.821 95.4592 176.31 96.5672 176.31 96.5672C176.31 96.5672 182.049 97.6752 187.617 95.2603C193.186 92.8455 192.958 89.0953 192.958 89.0953L190.686 20.627H168.554Z" fill="#D4F2E4"/>
<path d="M179.603 27.0189C185.723 27.0189 190.683 24.157 190.683 20.6267C190.683 17.0963 185.723 14.2344 179.603 14.2344C173.484 14.2344 168.523 17.0963 168.523 20.6267C168.523 24.157 173.484 27.0189 179.603 27.0189Z" fill="#F0FAF6"/>
<path d="M179.603 27.0189C185.723 27.0189 190.683 24.157 190.683 20.6267C190.683 17.0963 185.723 14.2344 179.603 14.2344C173.484 14.2344 168.523 17.0963 168.523 20.6267C168.523 24.157 173.484 27.0189 179.603 27.0189Z" fill="url(#paint12_linear_692_44920)" fill-opacity="0.5"/>
<path d="M179.603 27.0189C185.723 27.0189 190.683 24.157 190.683 20.6267C190.683 17.0963 185.723 14.2344 179.603 14.2344C173.484 14.2344 168.523 17.0963 168.523 20.6267C168.523 24.157 173.484 27.0189 179.603 27.0189Z" fill="#F0FAF6"/>
<path d="M179.607 25.7906C184.55 25.7906 188.558 23.4787 188.558 20.6267C188.558 17.7748 184.55 15.4629 179.607 15.4629C174.664 15.4629 170.656 17.7748 170.656 20.6267C170.656 23.4787 174.664 25.7906 179.607 25.7906Z" fill="#F0FAF6"/>
<path d="M179.607 25.7906C184.55 25.7906 188.558 23.4787 188.558 20.6267C188.558 17.7748 184.55 15.4629 179.607 15.4629C174.664 15.4629 170.656 17.7748 170.656 20.6267C170.656 23.4787 174.664 25.7906 179.607 25.7906Z" fill="url(#paint13_linear_692_44920)" fill-opacity="0.3"/>
<path d="M274.926 154.641L289.918 145.533L289.916 175.576L274.926 184.494V154.641Z" fill="#D9D9D9"/>
<path d="M274.926 154.641L289.918 145.533L289.916 175.576L274.926 184.494V154.641Z" fill="#F0FAF6"/>
<path fill-rule="evenodd" clip-rule="evenodd" d="M273.984 185.84V153.991L290.747 144.325V176.175L273.984 185.84ZM283.155 178.84L289.249 175.319V146.929L283.155 150.45V178.84ZM281.621 179.726V151.336L275.482 154.882V183.272L281.621 179.726Z" fill="#D4F2E4"/>
<path fill-rule="evenodd" clip-rule="evenodd" d="M273.984 185.84V153.991L290.747 144.325V176.175L273.984 185.84ZM283.155 178.84L289.249 175.319V146.929L283.155 150.45V178.84ZM281.621 179.726V151.336L275.482 154.882V183.272L281.621 179.726Z" fill="url(#paint14_linear_692_44920)" fill-opacity="0.4"/>
<path fill-rule="evenodd" clip-rule="evenodd" d="M273.984 185.84V153.991L290.747 144.325V176.175L273.984 185.84ZM283.155 178.84L289.249 175.319V146.929L283.155 150.45V178.84ZM281.621 179.726V151.336L275.482 154.882V183.272L281.621 179.726Z" fill="url(#paint15_linear_692_44920)" fill-opacity="0.4"/>
<path d="M126.644 110.102L111.652 100.994L111.654 131.037L126.644 139.955V110.102Z" fill="#D9D9D9"/>
<path d="M126.644 110.102L111.652 100.994L111.654 131.037L126.644 139.955V110.102Z" fill="#F0FAF6"/>
<path fill-rule="evenodd" clip-rule="evenodd" d="M127.586 141.3V109.451L110.823 99.7852V131.635L127.586 141.3ZM118.416 134.3L112.321 130.779V102.389L118.416 105.91V134.3ZM119.949 135.186V106.796L126.088 110.342V138.732L119.949 135.186Z" fill="#D4F2E4"/>
<path fill-rule="evenodd" clip-rule="evenodd" d="M127.586 141.3V109.451L110.823 99.7852V131.635L127.586 141.3ZM118.416 134.3L112.321 130.779V102.389L118.416 105.91V134.3ZM119.949 135.186V106.796L126.088 110.342V138.732L119.949 135.186Z" fill="url(#paint16_linear_692_44920)" fill-opacity="0.4"/>
<path fill-rule="evenodd" clip-rule="evenodd" d="M127.586 141.3V109.451L110.823 99.7852V131.635L127.586 141.3ZM118.416 134.3L112.321 130.779V102.389L118.416 105.91V134.3ZM119.949 135.186V106.796L126.088 110.342V138.732L119.949 135.186Z" fill="url(#paint17_linear_692_44920)" fill-opacity="0.4"/>
<path d="M149.863 123.701L134.871 114.594L134.873 144.637L149.863 153.555V123.701Z" fill="#D9D9D9"/>
<path d="M149.863 123.701L134.871 114.594L134.873 144.637L149.863 153.555V123.701Z" fill="#F0FAF6"/>
<path fill-rule="evenodd" clip-rule="evenodd" d="M150.805 154.901V123.051L134.042 113.386V145.235L150.805 154.901ZM141.636 147.902L135.54 144.379V115.989L141.636 119.512V147.902ZM143.17 148.788V120.398L149.307 123.943V152.333L143.17 148.788Z" fill="#D4F2E4"/>
<path fill-rule="evenodd" clip-rule="evenodd" d="M150.805 154.901V123.051L134.042 113.386V145.235L150.805 154.901ZM141.636 147.902L135.54 144.379V115.989L141.636 119.512V147.902ZM143.17 148.788V120.398L149.307 123.943V152.333L143.17 148.788Z" fill="url(#paint18_linear_692_44920)" fill-opacity="0.4"/>
<path fill-rule="evenodd" clip-rule="evenodd" d="M150.805 154.901V123.051L134.042 113.386V145.235L150.805 154.901ZM141.636 147.902L135.54 144.379V115.989L141.636 119.512V147.902ZM143.17 148.788V120.398L149.307 123.943V152.333L143.17 148.788Z" fill="url(#paint19_linear_692_44920)" fill-opacity="0.4"/>
<path d="M173.078 137.146L158.086 128.038L158.087 158.081L173.078 166.999V137.146Z" fill="#D9D9D9"/>
<path d="M173.078 137.146L158.086 128.038L158.087 158.081L173.078 166.999V137.146Z" fill="#F0FAF6"/>
<path fill-rule="evenodd" clip-rule="evenodd" d="M174.023 168.345V136.496L157.26 126.83V158.68L174.023 168.345ZM164.855 161.346L158.758 157.824V129.434L164.855 132.956V161.346ZM166.389 162.232V133.842L172.525 137.387V165.777L166.389 162.232Z" fill="#D4F2E4"/>
<path fill-rule="evenodd" clip-rule="evenodd" d="M174.023 168.345V136.496L157.26 126.83V158.68L174.023 168.345ZM164.855 161.346L158.758 157.824V129.434L164.855 132.956V161.346ZM166.389 162.232V133.842L172.525 137.387V165.777L166.389 162.232Z" fill="url(#paint20_linear_692_44920)" fill-opacity="0.4"/>
<path fill-rule="evenodd" clip-rule="evenodd" d="M174.023 168.345V136.496L157.26 126.83V158.68L174.023 168.345ZM164.855 161.346L158.758 157.824V129.434L164.855 132.956V161.346ZM166.389 162.232V133.842L172.525 137.387V165.777L166.389 162.232Z" fill="url(#paint21_linear_692_44920)" fill-opacity="0.4"/>
<path d="M196.292 150.271L181.301 141.163L181.302 171.206L196.292 180.124V150.271Z" fill="#D9D9D9"/>
<path d="M196.292 150.271L181.301 141.163L181.302 171.206L196.292 180.124V150.271Z" fill="#F0FAF6"/>
<path fill-rule="evenodd" clip-rule="evenodd" d="M197.238 181.469V149.62L180.475 139.954V171.804L197.238 181.469ZM188.068 174.469L181.973 170.948V142.558L188.068 146.079V174.469ZM189.602 175.355V146.965L195.74 150.511V178.901L189.602 175.355Z" fill="#D4F2E4"/>
<path fill-rule="evenodd" clip-rule="evenodd" d="M197.238 181.469V149.62L180.475 139.954V171.804L197.238 181.469ZM188.068 174.469L181.973 170.948V142.558L188.068 146.079V174.469ZM189.602 175.355V146.965L195.74 150.511V178.901L189.602 175.355Z" fill="url(#paint22_linear_692_44920)" fill-opacity="0.4"/>
<path fill-rule="evenodd" clip-rule="evenodd" d="M197.238 181.469V149.62L180.475 139.954V171.804L197.238 181.469ZM188.068 174.469L181.973 170.948V142.558L188.068 146.079V174.469ZM189.602 175.355V146.965L195.74 150.511V178.901L189.602 175.355Z" fill="url(#paint23_linear_692_44920)" fill-opacity="0.4"/>
<path d="M219.507 162.701L204.516 153.594L204.517 183.637L219.507 192.555V162.701Z" fill="#D9D9D9"/>
<path d="M219.507 162.701L204.516 153.594L204.517 183.637L219.507 192.555V162.701Z" fill="#F0FAF6"/>
<path fill-rule="evenodd" clip-rule="evenodd" d="M220.453 193.9V162.05L203.69 152.385V184.234L220.453 193.9ZM211.283 186.899L205.188 183.378V154.988L211.283 158.509V186.899ZM212.816 187.785V159.395L218.955 162.942V191.332L212.816 187.785Z" fill="#D4F2E4"/>
<path fill-rule="evenodd" clip-rule="evenodd" d="M220.453 193.9V162.05L203.69 152.385V184.234L220.453 193.9ZM211.283 186.899L205.188 183.378V154.988L211.283 158.509V186.899ZM212.816 187.785V159.395L218.955 162.942V191.332L212.816 187.785Z" fill="url(#paint24_linear_692_44920)" fill-opacity="0.4"/>
<path fill-rule="evenodd" clip-rule="evenodd" d="M220.453 193.9V162.05L203.69 152.385V184.234L220.453 193.9ZM211.283 186.899L205.188 183.378V154.988L211.283 158.509V186.899ZM212.816 187.785V159.395L218.955 162.942V191.332L212.816 187.785Z" fill="url(#paint25_linear_692_44920)" fill-opacity="0.4"/>
<path d="M251.965 167.596L266.957 158.488L266.956 188.531L251.965 197.449V167.596Z" fill="#D9D9D9"/>
<path d="M251.965 167.596L266.957 158.488L266.956 188.531L251.965 197.449V167.596Z" fill="#F0FAF6"/>
<path fill-rule="evenodd" clip-rule="evenodd" d="M251.02 198.795V166.946L267.783 157.28V189.13L251.02 198.795ZM260.188 191.796L266.285 188.274V159.884L260.188 163.406V191.796ZM258.654 192.682V164.292L252.517 167.837V196.227L258.654 192.682Z" fill="#D4F2E4"/>
<path fill-rule="evenodd" clip-rule="evenodd" d="M251.02 198.795V166.946L267.783 157.28V189.13L251.02 198.795ZM260.188 191.796L266.285 188.274V159.884L260.188 163.406V191.796ZM258.654 192.682V164.292L252.517 167.837V196.227L258.654 192.682Z" fill="url(#paint26_linear_692_44920)" fill-opacity="0.4"/>
<path fill-rule="evenodd" clip-rule="evenodd" d="M251.02 198.795V166.946L267.783 157.28V189.13L251.02 198.795ZM260.188 191.796L266.285 188.274V159.884L260.188 163.406V191.796ZM258.654 192.682V164.292L252.517 167.837V196.227L258.654 192.682Z" fill="url(#paint27_linear_692_44920)" fill-opacity="0.4"/>
<defs>
<filter id="filter0_f_692_44920" x="30.2578" y="171.562" width="317.516" height="191.993" filterUnits="userSpaceOnUse" color-interpolation-filters="sRGB">
<feFlood flood-opacity="0" result="BackgroundImageFix"/>
<feBlend mode="normal" in="SourceGraphic" in2="BackgroundImageFix" result="shape"/>
<feGaussianBlur stdDeviation="20" result="effect1_foregroundBlur_692_44920"/>
</filter>
<linearGradient id="paint0_linear_692_44920" x1="189.22" y1="178.649" x2="189.22" y2="296.797" gradientUnits="userSpaceOnUse">
<stop stop-color="#245795"/>
<stop offset="1" stop-color="#8AD3A8"/>
</linearGradient>
<linearGradient id="paint1_linear_692_44920" x1="188.295" y1="20.79" x2="188.295" y2="249.709" gradientUnits="userSpaceOnUse">
<stop stop-color="#245795"/>
<stop offset="1" stop-color="#8AD3A8"/>
</linearGradient>
<linearGradient id="paint2_linear_692_44920" x1="-102.391" y1="57.019" x2="43.4865" y2="302.268" gradientUnits="userSpaceOnUse">
<stop stop-color="#245795"/>
<stop offset="1" stop-color="#8AD3A8"/>
</linearGradient>
<linearGradient id="paint3_linear_692_44920" x1="101.277" y1="195.128" x2="397.593" y2="-104.565" gradientUnits="userSpaceOnUse">
<stop stop-color="#245795"/>
<stop offset="1" stop-color="#8AD3A8"/>
</linearGradient>
<linearGradient id="paint4_linear_692_44920" x1="83.5084" y1="97.739" x2="197.226" y2="-14.3654" gradientUnits="userSpaceOnUse">
<stop stop-color="#245795"/>
<stop offset="1" stop-color="#8AD3A8"/>
</linearGradient>
<linearGradient id="paint5_linear_692_44920" x1="219.781" y1="148.848" x2="280.739" y2="85.2784" gradientUnits="userSpaceOnUse">
<stop stop-color="#245795"/>
<stop offset="1" stop-color="#8AD3A8"/>
</linearGradient>
<linearGradient id="paint6_linear_692_44920" x1="226.171" y1="74.1416" x2="272.193" y2="26.0969" gradientUnits="userSpaceOnUse">
<stop stop-color="#245795"/>
<stop offset="1" stop-color="#8AD3A8"/>
</linearGradient>
<linearGradient id="paint7_linear_692_44920" x1="229.965" y1="70.6478" x2="267.144" y2="31.836" gradientUnits="userSpaceOnUse">
<stop stop-color="#245795"/>
<stop offset="1" stop-color="#8AD3A8"/>
</linearGradient>
<linearGradient id="paint8_linear_692_44920" x1="186.137" y1="131.858" x2="247.094" y2="68.2882" gradientUnits="userSpaceOnUse">
<stop stop-color="#245795"/>
<stop offset="1" stop-color="#8AD3A8"/>
</linearGradient>
<linearGradient id="paint9_linear_692_44920" x1="192.522" y1="57.1514" x2="238.545" y2="9.10669" gradientUnits="userSpaceOnUse">
<stop stop-color="#245795"/>
<stop offset="1" stop-color="#8AD3A8"/>
</linearGradient>
<linearGradient id="paint10_linear_692_44920" x1="196.325" y1="53.6585" x2="233.503" y2="14.8467" gradientUnits="userSpaceOnUse">
<stop stop-color="#245795"/>
<stop offset="1" stop-color="#8AD3A8"/>
</linearGradient>
<linearGradient id="paint11_linear_692_44920" x1="153.449" y1="113.509" x2="214.407" y2="49.9396" gradientUnits="userSpaceOnUse">
<stop stop-color="#245795"/>
<stop offset="1" stop-color="#8AD3A8"/>
</linearGradient>
<linearGradient id="paint12_linear_692_44920" x1="159.835" y1="38.8027" x2="205.857" y2="-9.24194" gradientUnits="userSpaceOnUse">
<stop stop-color="#245795"/>
<stop offset="1" stop-color="#8AD3A8"/>
</linearGradient>
<linearGradient id="paint13_linear_692_44920" x1="163.637" y1="35.3099" x2="200.816" y2="-3.50192" gradientUnits="userSpaceOnUse">
<stop stop-color="#245795"/>
<stop offset="1" stop-color="#8AD3A8"/>
</linearGradient>
<linearGradient id="paint14_linear_692_44920" x1="282.38" y1="85.0398" x2="282.38" y2="167.226" gradientUnits="userSpaceOnUse">
<stop stop-color="#245795"/>
<stop offset="1" stop-color="#8AD3A8"/>
</linearGradient>
<linearGradient id="paint15_linear_692_44920" x1="267.412" y1="224.106" x2="336.104" y2="207.401" gradientUnits="userSpaceOnUse">
<stop stop-color="#245795"/>
<stop offset="1" stop-color="#8AD3A8"/>
</linearGradient>
<linearGradient id="paint16_linear_692_44920" x1="119.19" y1="40.4997" x2="119.19" y2="122.686" gradientUnits="userSpaceOnUse">
<stop stop-color="#245795"/>
<stop offset="1" stop-color="#8AD3A8"/>
</linearGradient>
<linearGradient id="paint17_linear_692_44920" x1="134.159" y1="179.566" x2="65.4664" y2="162.861" gradientUnits="userSpaceOnUse">
<stop stop-color="#245795"/>
<stop offset="1" stop-color="#8AD3A8"/>
</linearGradient>
<linearGradient id="paint18_linear_692_44920" x1="142.409" y1="54.1003" x2="142.409" y2="136.287" gradientUnits="userSpaceOnUse">
<stop stop-color="#245795"/>
<stop offset="1" stop-color="#8AD3A8"/>
</linearGradient>
<linearGradient id="paint19_linear_692_44920" x1="157.377" y1="193.166" x2="88.6852" y2="176.461" gradientUnits="userSpaceOnUse">
<stop stop-color="#245795"/>
<stop offset="1" stop-color="#8AD3A8"/>
</linearGradient>
<linearGradient id="paint20_linear_692_44920" x1="165.628" y1="67.5447" x2="165.628" y2="149.731" gradientUnits="userSpaceOnUse">
<stop stop-color="#245795"/>
<stop offset="1" stop-color="#8AD3A8"/>
</linearGradient>
<linearGradient id="paint21_linear_692_44920" x1="180.596" y1="206.611" x2="111.904" y2="189.906" gradientUnits="userSpaceOnUse">
<stop stop-color="#245795"/>
<stop offset="1" stop-color="#8AD3A8"/>
</linearGradient>
<linearGradient id="paint22_linear_692_44920" x1="188.842" y1="80.6687" x2="188.842" y2="162.855" gradientUnits="userSpaceOnUse">
<stop stop-color="#245795"/>
<stop offset="1" stop-color="#8AD3A8"/>
</linearGradient>
<linearGradient id="paint23_linear_692_44920" x1="203.811" y1="219.735" x2="135.119" y2="203.03" gradientUnits="userSpaceOnUse">
<stop stop-color="#245795"/>
<stop offset="1" stop-color="#8AD3A8"/>
</linearGradient>
<linearGradient id="paint24_linear_692_44920" x1="212.057" y1="93.0993" x2="212.057" y2="175.286" gradientUnits="userSpaceOnUse">
<stop stop-color="#245795"/>
<stop offset="1" stop-color="#8AD3A8"/>
</linearGradient>
<linearGradient id="paint25_linear_692_44920" x1="227.026" y1="232.165" x2="158.334" y2="215.46" gradientUnits="userSpaceOnUse">
<stop stop-color="#245795"/>
<stop offset="1" stop-color="#8AD3A8"/>
</linearGradient>
<linearGradient id="paint26_linear_692_44920" x1="259.415" y1="97.9949" x2="259.415" y2="180.182" gradientUnits="userSpaceOnUse">
<stop stop-color="#245795"/>
<stop offset="1" stop-color="#8AD3A8"/>
</linearGradient>
<linearGradient id="paint27_linear_692_44920" x1="244.447" y1="237.061" x2="313.139" y2="220.356" gradientUnits="userSpaceOnUse">
<stop stop-color="#245795"/>
<stop offset="1" stop-color="#8AD3A8"/>
</linearGradient>
</defs>
</svg>
