<svg width="16" height="16" viewBox="0 0 16 16" fill="none" xmlns="http://www.w3.org/2000/svg">
<path d="M12.6663 5.99967C12.6663 5.38684 12.5456 4.78 12.3111 4.21382C12.0766 3.64763 11.7328 3.13318 11.2995 2.69984C10.8662 2.2665 10.3517 1.92276 9.78553 1.68824C9.21934 1.45371 8.61251 1.33301 7.99967 1.33301C7.38684 1.33301 6.78 1.45371 6.21382 1.68824C5.64763 1.92276 5.13318 2.2665 4.69984 2.69984C4.2665 3.13318 3.92276 3.64763 3.68824 4.21382C3.45371 4.78 3.33301 5.38684 3.33301 5.99967C3.33301 6.92434 3.60567 7.78434 4.06967 8.50967H4.06434L7.99967 14.6663L11.935 8.50967H11.9303C12.4109 7.76073 12.6664 6.88955 12.6663 5.99967ZM7.99967 7.99967C7.46924 7.99967 6.96053 7.78896 6.58546 7.41389C6.21039 7.03882 5.99967 6.53011 5.99967 5.99967C5.99967 5.46924 6.21039 4.96053 6.58546 4.58546C6.96053 4.21039 7.46924 3.99967 7.99967 3.99967C8.53011 3.99967 9.03882 4.21039 9.41389 4.58546C9.78896 4.96053 9.99967 5.46924 9.99967 5.99967C9.99967 6.53011 9.78896 7.03882 9.41389 7.41389C9.03882 7.78896 8.53011 7.99967 7.99967 7.99967Z" fill="#101010"/>
</svg>
