<svg width="732" height="124" viewBox="0 0 732 124" fill="none" xmlns="http://www.w3.org/2000/svg">
<ellipse cx="366" cy="62" rx="366" ry="62" fill="white"/>
<path d="M650.395 41.8424C649.974 41.4845 649.923 40.8534 650.281 40.4327L656.112 33.5775C656.47 33.1568 657.101 33.1059 657.522 33.4637C657.942 33.8216 657.993 34.4527 657.636 34.8733L652.452 40.9669L658.546 46.1504C658.966 46.5082 659.017 47.1393 658.659 47.56C658.302 47.9807 657.67 48.0316 657.25 47.6738L650.395 41.8424ZM603.899 84.6936C603.35 84.6381 602.95 84.1476 603.005 83.5981C603.061 83.0486 603.551 82.6482 604.101 82.7037L603.899 84.6936ZM650.962 40.0839C658.944 39.4398 666.548 42.5612 671.807 47.4236C677.055 52.2751 680.097 58.9958 678.635 65.5798C677.166 72.1956 671.242 78.2753 659.423 82.0345C647.602 85.7943 629.714 87.3019 603.899 84.6936L604.101 82.7037C629.785 85.2988 647.364 83.7711 658.817 80.1286C670.271 76.4854 675.428 70.7956 676.682 65.1463C677.944 59.4653 675.353 53.4254 670.449 48.8922C665.558 44.37 658.492 41.4827 651.123 42.0774L650.962 40.0839Z" fill="#DBDBDB"/>
<path d="M582.561 71.7789L570.5 64.8156C569.803 64.4144 568.945 64.4144 568.248 64.8156L556.187 71.7789C555.491 72.1823 555.062 72.9252 555.061 73.7296V87.6562C555.062 88.4606 555.491 89.2036 556.187 89.6069L568.248 96.5703C568.945 96.9714 569.803 96.9714 570.5 96.5703L582.561 89.6069C583.257 89.2036 583.686 88.4606 583.687 87.6562L583.688 73.7295C583.686 72.9252 583.257 72.1822 582.561 71.7789ZM568.248 93.9694L557.313 87.6562V75.1711L568.248 81.3516V93.9694ZM569.378 79.4029L558.316 73.1505L569.374 66.7664L580.436 73.1526L569.378 79.4029ZM581.435 87.6562L570.5 93.9694V81.3559L581.435 75.1752L581.435 87.6562Z" fill="#DBDBDB"/>
<path d="M552.04 49.14C552.115 48.6173 552.259 48.156 552.472 47.756C552.685 47.3507 552.955 47.012 553.28 46.74C553.611 46.468 553.987 46.2627 554.408 46.124C554.835 45.98 555.293 45.908 555.784 45.908C556.269 45.908 556.717 45.9773 557.128 46.116C557.539 46.2547 557.891 46.452 558.184 46.708C558.483 46.964 558.715 47.2733 558.88 47.636C559.045 47.9987 559.128 48.4013 559.128 48.844C559.128 49.2067 559.08 49.532 558.984 49.82C558.893 50.1027 558.76 50.3507 558.584 50.564C558.413 50.7773 558.205 50.9587 557.96 51.108C557.715 51.2573 557.44 51.38 557.136 51.476C557.883 51.668 558.443 51.9987 558.816 52.468C559.195 52.932 559.384 53.5133 559.384 54.212C559.384 54.74 559.283 55.2147 559.08 55.636C558.883 56.0573 558.611 56.4173 558.264 56.716C557.917 57.0093 557.512 57.236 557.048 57.396C556.589 57.5507 556.096 57.628 555.568 57.628C554.96 57.628 554.44 57.5533 554.008 57.404C553.576 57.2493 553.211 57.0387 552.912 56.772C552.613 56.5053 552.368 56.1907 552.176 55.828C551.984 55.46 551.821 55.0627 551.688 54.636L552.304 54.38C552.464 54.3107 552.619 54.292 552.768 54.324C552.923 54.356 553.035 54.444 553.104 54.588C553.173 54.7373 553.259 54.916 553.36 55.124C553.467 55.332 553.611 55.532 553.792 55.724C553.973 55.916 554.203 56.0787 554.48 56.212C554.763 56.3453 555.12 56.412 555.552 56.412C555.952 56.412 556.301 56.348 556.6 56.22C556.904 56.0867 557.155 55.916 557.352 55.708C557.555 55.5 557.707 55.268 557.808 55.012C557.909 54.756 557.96 54.5027 557.96 54.252C557.96 53.9427 557.92 53.66 557.84 53.404C557.76 53.148 557.611 52.9267 557.392 52.74C557.173 52.5533 556.872 52.4067 556.488 52.3C556.109 52.1933 555.621 52.14 555.024 52.14V51.108C555.515 51.1027 555.931 51.0493 556.272 50.948C556.619 50.8467 556.899 50.708 557.112 50.532C557.331 50.356 557.488 50.1453 557.584 49.9C557.685 49.6547 557.736 49.3827 557.736 49.084C557.736 48.7533 557.683 48.4653 557.576 48.22C557.475 47.9747 557.333 47.772 557.152 47.612C556.971 47.452 556.755 47.332 556.504 47.252C556.259 47.172 555.992 47.132 555.704 47.132C555.416 47.132 555.147 47.1747 554.896 47.26C554.651 47.3453 554.432 47.4653 554.24 47.62C554.053 47.7693 553.896 47.948 553.768 48.156C553.64 48.364 553.549 48.5933 553.496 48.844C553.427 49.0307 553.339 49.156 553.232 49.22C553.131 49.2787 552.981 49.2947 552.784 49.268L552.04 49.14ZM564.905 56.444C565.289 56.444 565.636 56.3827 565.945 56.26C566.26 56.1373 566.527 55.9667 566.745 55.748C566.969 55.5293 567.14 55.2707 567.257 54.972C567.38 54.6733 567.441 54.348 567.441 53.996C567.441 53.6227 567.383 53.2867 567.265 52.988C567.148 52.684 566.98 52.428 566.761 52.22C566.548 52.0067 566.292 51.844 565.993 51.732C565.695 51.62 565.367 51.564 565.009 51.564C564.625 51.564 564.279 51.6307 563.969 51.764C563.66 51.892 563.396 52.068 563.177 52.292C562.964 52.5107 562.799 52.7667 562.681 53.06C562.569 53.348 562.513 53.6493 562.513 53.964C562.513 54.332 562.567 54.668 562.673 54.972C562.78 55.276 562.935 55.5373 563.137 55.756C563.345 55.9747 563.596 56.1453 563.889 56.268C564.188 56.3853 564.527 56.444 564.905 56.444ZM564.073 50.332C563.972 50.46 563.873 50.5853 563.777 50.708C563.687 50.8253 563.599 50.9427 563.513 51.06C563.785 50.8733 564.084 50.7293 564.409 50.628C564.735 50.5267 565.089 50.476 565.473 50.476C565.937 50.476 566.375 50.5533 566.785 50.708C567.196 50.8573 567.553 51.0787 567.857 51.372C568.167 51.66 568.412 52.0173 568.593 52.444C568.775 52.8653 568.865 53.348 568.865 53.892C568.865 54.42 568.769 54.9107 568.577 55.364C568.385 55.8173 568.116 56.212 567.769 56.548C567.428 56.884 567.015 57.148 566.529 57.34C566.049 57.532 565.519 57.628 564.937 57.628C564.361 57.628 563.839 57.5373 563.369 57.356C562.9 57.1693 562.5 56.908 562.169 56.572C561.844 56.2307 561.591 55.82 561.409 55.34C561.233 54.8547 561.145 54.3133 561.145 53.716C561.145 53.2147 561.255 52.6813 561.473 52.116C561.697 51.5453 562.052 50.9373 562.537 50.292L565.449 46.38C565.524 46.284 565.625 46.204 565.753 46.14C565.887 46.0707 566.039 46.036 566.209 46.036H567.473L564.073 50.332ZM578.363 51.772C578.363 52.7747 578.253 53.644 578.035 54.38C577.821 55.1107 577.528 55.716 577.155 56.196C576.781 56.676 576.339 57.0333 575.827 57.268C575.32 57.5027 574.776 57.62 574.195 57.62C573.608 57.62 573.061 57.5027 572.555 57.268C572.053 57.0333 571.616 56.676 571.243 56.196C570.869 55.716 570.576 55.1107 570.363 54.38C570.149 53.644 570.043 52.7747 570.043 51.772C570.043 50.7693 570.149 49.9 570.363 49.164C570.576 48.428 570.869 47.82 571.243 47.34C571.616 46.8547 572.053 46.4947 572.555 46.26C573.061 46.0253 573.608 45.908 574.195 45.908C574.776 45.908 575.32 46.0253 575.827 46.26C576.339 46.4947 576.781 46.8547 577.155 47.34C577.528 47.82 577.821 48.428 578.035 49.164C578.253 49.9 578.363 50.7693 578.363 51.772ZM576.883 51.772C576.883 50.8973 576.808 50.164 576.659 49.572C576.515 48.9747 576.317 48.4947 576.067 48.132C575.821 47.7693 575.536 47.5107 575.211 47.356C574.885 47.196 574.547 47.116 574.195 47.116C573.843 47.116 573.504 47.196 573.179 47.356C572.853 47.5107 572.568 47.7693 572.323 48.132C572.077 48.4947 571.88 48.9747 571.731 49.572C571.587 50.164 571.515 50.8973 571.515 51.772C571.515 52.6467 571.587 53.38 571.731 53.972C571.88 54.564 572.077 55.0413 572.323 55.404C572.568 55.7667 572.853 56.028 573.179 56.188C573.504 56.3427 573.843 56.42 574.195 56.42C574.547 56.42 574.885 56.3427 575.211 56.188C575.536 56.028 575.821 55.7667 576.067 55.404C576.317 55.0413 576.515 54.564 576.659 53.972C576.808 53.38 576.883 52.6467 576.883 51.772ZM579.556 48.476C579.556 48.1187 579.622 47.7827 579.756 47.468C579.889 47.1533 580.073 46.8813 580.308 46.652C580.542 46.4173 580.817 46.2333 581.132 46.1C581.446 45.9667 581.788 45.9 582.156 45.9C582.524 45.9 582.865 45.9667 583.18 46.1C583.5 46.2333 583.777 46.4173 584.012 46.652C584.246 46.8813 584.43 47.1533 584.564 47.468C584.702 47.7827 584.772 48.1187 584.772 48.476C584.772 48.828 584.702 49.1613 584.564 49.476C584.43 49.7853 584.246 50.0573 584.012 50.292C583.777 50.5213 583.5 50.7053 583.18 50.844C582.865 50.9773 582.524 51.044 582.156 51.044C581.788 51.044 581.446 50.9773 581.132 50.844C580.817 50.7053 580.542 50.5213 580.308 50.292C580.073 50.0573 579.889 49.7853 579.756 49.476C579.622 49.1613 579.556 48.828 579.556 48.476ZM580.564 48.484C580.564 48.708 580.604 48.9187 580.684 49.116C580.764 49.308 580.876 49.476 581.02 49.62C581.164 49.764 581.332 49.8787 581.524 49.964C581.721 50.044 581.932 50.084 582.156 50.084C582.38 50.084 582.588 50.044 582.78 49.964C582.977 49.8787 583.148 49.764 583.292 49.62C583.436 49.476 583.548 49.308 583.628 49.116C583.708 48.9187 583.748 48.708 583.748 48.484C583.748 48.26 583.708 48.0493 583.628 47.852C583.548 47.6547 583.436 47.484 583.292 47.34C583.148 47.1907 582.977 47.076 582.78 46.996C582.588 46.9107 582.38 46.868 582.156 46.868C581.932 46.868 581.721 46.9107 581.524 46.996C581.332 47.076 581.164 47.1907 581.02 47.34C580.876 47.484 580.764 47.6547 580.684 47.852C580.604 48.0493 580.564 48.26 580.564 48.484Z" fill="#DBDBDB"/>
</svg>
