<svg width="28" height="28" viewBox="0 0 28 28" fill="none" xmlns="http://www.w3.org/2000/svg"><path d="M8.793 2.397 C 8.577 2.495,8.313 2.745,8.201 2.959 C 8.113 3.125,8.098 3.245,8.082 3.885 L 8.064 4.620 7.333 4.620 C 6.456 4.620,5.881 4.705,5.315 4.918 C 3.653 5.542,2.523 7.018,2.330 8.818 C 2.299 9.107,2.288 11.392,2.299 15.330 C 2.318 22.013,2.297 21.534,2.613 22.407 C 3.011 23.508,3.999 24.554,5.071 25.010 C 5.252 25.087,5.566 25.198,5.769 25.257 L 6.137 25.363 13.837 25.363 L 21.537 25.363 21.933 25.256 C 22.436 25.121,23.175 24.763,23.567 24.465 C 24.365 23.858,24.959 22.975,25.255 21.957 L 25.363 21.583 25.377 15.213 C 25.388 10.611,25.377 8.749,25.339 8.503 C 25.057 6.699,23.686 5.214,21.877 4.755 C 21.573 4.677,21.293 4.651,20.568 4.633 L 19.647 4.609 19.646 4.090 C 19.646 3.136,19.532 2.806,19.095 2.499 C 18.931 2.384,18.839 2.356,18.576 2.341 C 18.183 2.319,17.965 2.386,17.724 2.604 C 17.388 2.908,17.343 3.052,17.322 3.885 L 17.304 4.620 13.855 4.620 L 10.407 4.620 10.407 4.039 C 10.407 3.719,10.384 3.353,10.357 3.225 C 10.295 2.939,10.098 2.658,9.839 2.486 C 9.675 2.378,9.586 2.355,9.290 2.344 C 9.064 2.337,8.885 2.356,8.793 2.397 M8.081 7.665 C 8.098 8.349,8.104 8.386,8.236 8.626 C 8.692 9.455,9.835 9.420,10.280 8.563 C 10.362 8.405,10.380 8.269,10.398 7.665 L 10.418 6.953 13.866 6.953 L 17.313 6.953 17.313 7.563 C 17.313 8.279,17.357 8.488,17.569 8.779 C 17.966 9.325,18.794 9.375,19.292 8.883 C 19.552 8.626,19.615 8.400,19.638 7.642 L 19.658 6.953 20.418 6.953 C 21.306 6.953,21.606 7.022,22.068 7.330 C 22.427 7.570,22.644 7.823,22.845 8.237 C 23.042 8.639,23.099 8.990,23.100 9.788 L 23.100 10.407 13.860 10.407 L 4.620 10.407 4.620 9.709 C 4.620 8.912,4.665 8.641,4.866 8.213 C 5.120 7.673,5.772 7.137,6.335 7.004 C 6.431 6.981,6.860 6.961,7.287 6.958 L 8.063 6.953 8.081 7.665 M23.100 16.765 C 23.099 19.329,23.081 20.949,23.051 21.140 C 22.921 21.964,22.340 22.664,21.533 22.971 L 21.257 23.077 14.047 23.090 C 8.923 23.100,6.749 23.089,6.533 23.052 C 5.679 22.906,4.924 22.214,4.706 21.377 C 4.633 21.098,4.625 20.685,4.623 16.882 L 4.620 12.693 13.860 12.693 L 23.100 12.693 23.100 16.765 M7.695 13.922 C 7.422 14.024,7.240 14.179,7.092 14.436 C 6.906 14.762,6.896 15.197,7.069 15.539 C 7.396 16.183,8.268 16.352,8.822 15.877 C 9.605 15.207,9.183 13.943,8.153 13.877 C 7.978 13.866,7.796 13.883,7.695 13.922 M13.469 13.926 C 13.001 14.100,12.714 14.520,12.720 15.025 C 12.731 15.996,13.803 16.488,14.593 15.886 C 14.838 15.699,14.980 15.370,14.980 14.991 C 14.980 14.715,14.960 14.639,14.828 14.420 C 14.622 14.076,14.340 13.903,13.944 13.877 C 13.758 13.865,13.584 13.883,13.469 13.926 M19.157 13.971 C 18.617 14.226,18.364 14.793,18.535 15.364 C 18.613 15.622,18.949 15.982,19.203 16.079 C 19.517 16.199,19.949 16.158,20.235 15.980 C 20.818 15.620,20.946 14.802,20.502 14.283 C 20.156 13.879,19.617 13.754,19.157 13.971 M7.695 18.544 C 7.425 18.641,7.241 18.797,7.092 19.056 C 6.977 19.257,6.954 19.348,6.954 19.613 C 6.953 20.288,7.424 20.768,8.084 20.766 C 8.852 20.762,9.391 20.046,9.176 19.313 C 8.990 18.677,8.310 18.325,7.695 18.544 M13.367 18.588 C 12.650 18.931,12.484 19.912,13.051 20.449 C 13.359 20.741,13.897 20.850,14.267 20.695 C 14.739 20.498,14.980 20.132,14.980 19.611 C 14.980 19.335,14.960 19.259,14.828 19.040 C 14.618 18.688,14.338 18.521,13.919 18.495 C 13.655 18.478,13.565 18.494,13.367 18.588 M19.157 18.591 C 18.441 18.930,18.259 19.790,18.778 20.379 C 19.019 20.653,19.263 20.765,19.623 20.765 C 20.419 20.765,20.936 20.050,20.716 19.254 C 20.647 19.009,20.247 18.612,19.991 18.537 C 19.698 18.450,19.417 18.468,19.157 18.591 " fill="#250025" stroke="none" fill-rule="evenodd"></path></svg>