<svg width="57" height="44" viewBox="0 0 57 44" fill="none" xmlns="http://www.w3.org/2000/svg"><path d="M15.987 0.974 C 13.356 4.349,6.213 15.105,3.733 19.428 C 1.256 23.743,0.157 26.973,0.031 30.305 C -0.110 34.060,0.998 37.196,3.270 39.468 C 7.315 43.513,14.394 44.206,19.154 41.024 C 21.837 39.230,23.577 36.585,24.142 33.440 C 24.329 32.405,24.304 29.893,24.098 28.854 C 23.149 24.064,19.395 20.421,14.582 19.617 C 14.060 19.530,13.627 19.451,13.621 19.443 C 13.615 19.434,16.273 15.088,19.529 9.785 C 22.784 4.482,25.451 0.110,25.454 0.071 C 25.457 0.032,23.499 0.000,21.103 0.000 L 16.746 0.000 15.987 0.974 M46.264 1.829 C 39.950 10.854,35.664 17.344,33.872 20.592 C 30.493 26.714,29.890 32.238,32.116 36.680 C 33.334 39.109,35.903 41.290,38.695 42.266 C 40.261 42.814,41.272 42.973,43.178 42.973 C 45.614 42.973,47.102 42.634,49.053 41.633 C 50.934 40.667,52.679 39.018,53.751 37.193 C 54.898 35.238,55.466 32.430,55.198 30.030 C 54.894 27.308,53.902 25.179,52.013 23.192 C 50.134 21.217,48.012 20.070,45.418 19.628 C 44.926 19.544,44.504 19.456,44.481 19.432 C 44.457 19.409,47.093 15.054,50.339 9.756 C 53.584 4.458,56.240 0.095,56.240 0.061 C 56.240 0.028,54.283 0.000,51.892 0.000 L 47.543 0.000 46.264 1.829 " fill="#FF4A00" stroke="none" fill-rule="evenodd"></path></svg>