<svg xmlns="http://www.w3.org/2000/svg" width="1413" height="754" viewBox="0 0 1413 754"><defs><clipPath id="mv83a"><path d="M-19 0h1440v756H-19z"/></clipPath><clipPath id="mv83b"><path d="M943.984-56.299c-35.484 6.382-66.515 16.02-94.122 27.424s-52.066 24.47-74.583 37.732c-22.516 13.261-43.47 26.64-64.234 38.803-27.124 15.446-59.17 25.429-93.602 31.823-34.387 6.392-71.643 9.28-109.554 10.598-37.967 1.318-77.016 1.134-116.045 1.744-38.921.527-77.69 2.168-115.905 7.199-22.258 2.93-44.274 7.314-65.676 13.154-21.404 5.84-42.294 13.14-62.345 21.901-40.128 17.54-74.89 40.824-100.577 69.505-10.65 11.893-19.844 24.81-27.367 38.81-64.17 119.442 39.429 257.443 213.336 301.173 102.546 25.786 225.134 18.492 317.95 61.496 95.724 44.352 144.737 121.913 242.117 165.325 69.266 30.879 151.34 47.005 234.41 43.824 216.933-8.304 386.366-135.047 385.024-279.92-.81-87.566-52.325-172.196-53.398-259.761-.283-23.19 2.981-46.314 6.927-69.54 3.948-23.227 8.441-46.53 9.205-69.948.784-23.966-4.822-47.373-17.092-69.27-12.285-21.927-31.653-42.648-58.016-61.118-26.52-18.438-60.354-34.47-100.76-46.572-40.406-12.102-86.457-19.918-135.475-21.937-8.755-.361-17.32-.536-25.71-.536-34.506 0-65.963 2.958-94.508 8.091z"/></clipPath></defs><g><g><g/><g clip-path="url(#mv83a)"><g opacity=".32"/><g clip-path="url(#mv83b)" opacity=".32"><path fill="#a7e3c0" d="M-128.221-60.093h2002.904v-2.588H-128.221z"/></g><g clip-path="url(#mv83b)" opacity=".32"><path fill="#a7e3c0" d="M-128.221-47.77h2002.904v-2.588H-128.221z"/></g><g clip-path="url(#mv83b)" opacity=".32"><path fill="#a7e3c0" d="M-128.221-35.447h2002.904v-2.588H-128.221z"/></g><g clip-path="url(#mv83b)" opacity=".32"><path fill="#a7e3c0" d="M-128.221-23.124h2002.904v-2.588H-128.221z"/></g><g clip-path="url(#mv83b)" opacity=".32"><path fill="#a7e3c0" d="M-128.221-10.801h2002.904v-2.588H-128.221z"/></g><g clip-path="url(#mv83b)" opacity=".32"><path fill="#a7e3c0" d="M-128.221 1.522h2002.904v-2.588H-128.221z"/></g><g clip-path="url(#mv83b)" opacity=".32"><path fill="#a7e3c0" d="M-128.221 13.852h2002.904v-2.587H-128.221z"/></g><g clip-path="url(#mv83b)" opacity=".32"><path fill="#a7e3c0" d="M-128.221 26.176h2002.904v-2.588H-128.221z"/></g><g clip-path="url(#mv83b)" opacity=".32"><path fill="#a7e3c0" d="M-128.221 38.498h2002.904v-2.587H-128.221z"/></g><g clip-path="url(#mv83b)" opacity=".32"><path fill="#a7e3c0" d="M-128.221 50.821h2002.904v-2.587H-128.221z"/></g><g clip-path="url(#mv83b)" opacity=".32"><path fill="#a7e3c0" d="M-128.221 63.144h2002.904v-2.587H-128.221z"/></g><g clip-path="url(#mv83b)" opacity=".32"><path fill="#a7e3c0" d="M-128.221 75.467h2002.904V72.88H-128.221z"/></g><g clip-path="url(#mv83b)" opacity=".32"><path fill="#a7e3c0" d="M-128.221 87.798h2002.904V85.21H-128.221z"/></g><g clip-path="url(#mv83b)" opacity=".32"><path fill="#a7e3c0" d="M-128.221 100.12h2002.904v-2.587H-128.221z"/></g><g clip-path="url(#mv83b)" opacity=".32"><path fill="#a7e3c0" d="M-128.221 112.444h2002.904v-2.588H-128.221z"/></g><g clip-path="url(#mv83b)" opacity=".32"><path fill="#a7e3c0" d="M-128.221 124.767h2002.904v-2.588H-128.221z"/></g><g clip-path="url(#mv83b)" opacity=".32"><path fill="#a7e3c0" d="M-128.221 137.09h2002.904v-2.588H-128.221z"/></g><g clip-path="url(#mv83b)" opacity=".32"><path fill="#a7e3c0" d="M-128.221 149.42h2002.904v-2.587H-128.221z"/></g><g clip-path="url(#mv83b)" opacity=".32"><path fill="#a7e3c0" d="M-128.221 161.744h2002.904v-2.588H-128.221z"/></g><g clip-path="url(#mv83b)" opacity=".32"><path fill="#a7e3c0" d="M-128.221 174.067h2002.904v-2.588H-128.221z"/></g><g clip-path="url(#mv83b)" opacity=".32"><path fill="#a7e3c0" d="M-128.221 186.39h2002.904v-2.588H-128.221z"/></g><g clip-path="url(#mv83b)" opacity=".32"><path fill="#a7e3c0" d="M-128.221 198.713h2002.904v-2.588H-128.221z"/></g><g clip-path="url(#mv83b)" opacity=".32"><path fill="#a7e3c0" d="M-128.221 211.036h2002.904v-2.588H-128.221z"/></g><g clip-path="url(#mv83b)" opacity=".32"><path fill="#a7e3c0" d="M-128.221 223.366h2002.904v-2.587H-128.221z"/></g><g clip-path="url(#mv83b)" opacity=".32"><path fill="#a7e3c0" d="M-128.221 235.69h2002.904v-2.588H-128.221z"/></g><g clip-path="url(#mv83b)" opacity=".32"><path fill="#a7e3c0" d="M-128.221 248.012h2002.904v-2.587H-128.221z"/></g><g clip-path="url(#mv83b)" opacity=".32"><path fill="#a7e3c0" d="M-128.221 260.335h2002.904v-2.587H-128.221z"/></g><g clip-path="url(#mv83b)" opacity=".32"><path fill="#a7e3c0" d="M-128.221 272.658h2002.904v-2.587H-128.221z"/></g><g clip-path="url(#mv83b)" opacity=".32"><path fill="#a7e3c0" d="M-128.221 284.989h2002.904V282.4H-128.221z"/></g><g clip-path="url(#mv83b)" opacity=".32"><path fill="#a7e3c0" d="M-128.221 297.312h2002.904v-2.588H-128.221z"/></g><g clip-path="url(#mv83b)" opacity=".32"><path fill="#a7e3c0" d="M-128.221 309.635h2002.904v-2.588H-128.221z"/></g><g clip-path="url(#mv83b)" opacity=".32"><path fill="#a7e3c0" d="M-128.221 321.958h2002.904v-2.588H-128.221z"/></g><g clip-path="url(#mv83b)" opacity=".32"><path fill="#a7e3c0" d="M1874.683 334.282H-128.221v-2.589h2002.904z"/></g><g clip-path="url(#mv83b)" opacity=".32"><path fill="#a7e3c0" d="M-128.221 346.604h2002.904v-2.588H-128.221z"/></g><g clip-path="url(#mv83b)" opacity=".32"><path fill="#a7e3c0" d="M-128.221 358.934h2002.904v-2.587H-128.221z"/></g><g clip-path="url(#mv83b)" opacity=".32"><path fill="#a7e3c0" d="M-128.221 371.257h2002.904v-2.587H-128.221z"/></g><g clip-path="url(#mv83b)" opacity=".32"><path fill="#a7e3c0" d="M-128.221 383.58h2002.904v-2.587H-128.221z"/></g><g clip-path="url(#mv83b)" opacity=".32"><path fill="#a7e3c0" d="M-128.221 395.903h2002.904v-2.587H-128.221z"/></g><g clip-path="url(#mv83b)" opacity=".32"><path fill="#a7e3c0" d="M-128.221 408.226h2002.904v-2.587H-128.221z"/></g><g clip-path="url(#mv83b)" opacity=".32"><path fill="#a7e3c0" d="M-128.221 420.55h2002.904v-2.588H-128.221z"/></g><g clip-path="url(#mv83b)" opacity=".32"><path fill="#a7e3c0" d="M-128.221 432.88h2002.904v-2.587H-128.221z"/></g><g clip-path="url(#mv83b)" opacity=".32"><path fill="#a7e3c0" d="M-128.221 445.203h2002.904v-2.587H-128.221z"/></g><g clip-path="url(#mv83b)" opacity=".32"><path fill="#a7e3c0" d="M-128.221 457.526h2002.904v-2.587H-128.221z"/></g><g clip-path="url(#mv83b)" opacity=".32"><path fill="#a7e3c0" d="M-128.221 469.85h2002.904v-2.588H-128.221z"/></g><g clip-path="url(#mv83b)" opacity=".32"><path fill="#a7e3c0" d="M-128.221 482.172h2002.904v-2.587H-128.221z"/></g><g clip-path="url(#mv83b)" opacity=".32"><path fill="#a7e3c0" d="M-128.221 494.503h2002.904v-2.588H-128.221z"/></g><g clip-path="url(#mv83b)" opacity=".32"><path fill="#a7e3c0" d="M-128.221 506.826h2002.904v-2.588H-128.221z"/></g><g clip-path="url(#mv83b)" opacity=".32"><path fill="#a7e3c0" d="M-128.221 519.149h2002.904v-2.588H-128.221z"/></g><g clip-path="url(#mv83b)" opacity=".32"><path fill="#a7e3c0" d="M-128.221 531.472h2002.904v-2.588H-128.221z"/></g><g clip-path="url(#mv83b)" opacity=".32"><path fill="#a7e3c0" d="M-128.221 543.795h2002.904v-2.588H-128.221z"/></g><g clip-path="url(#mv83b)" opacity=".32"><path fill="#a7e3c0" d="M-128.221 556.118h2002.904v-2.588H-128.221z"/></g><g clip-path="url(#mv83b)" opacity=".32"><path fill="#a7e3c0" d="M-128.221 568.44h2002.904v-2.587H-128.221z"/></g><g clip-path="url(#mv83b)" opacity=".32"><path fill="#a7e3c0" d="M-128.221 580.771h2002.904v-2.587H-128.221z"/></g><g clip-path="url(#mv83b)" opacity=".32"><path fill="#a7e3c0" d="M-128.221 593.094h2002.904v-2.587H-128.221z"/></g><g clip-path="url(#mv83b)" opacity=".32"><path fill="#a7e3c0" d="M-128.221 605.417h2002.904v-2.587H-128.221z"/></g><g clip-path="url(#mv83b)" opacity=".32"><path fill="#a7e3c0" d="M-128.221 617.74h2002.904v-2.587H-128.221z"/></g><g clip-path="url(#mv83b)" opacity=".32"><path fill="#a7e3c0" d="M-128.221 630.063h2002.904v-2.587H-128.221z"/></g><g clip-path="url(#mv83b)" opacity=".32"><path fill="#a7e3c0" d="M-128.221 642.394h2002.904v-2.587H-128.221z"/></g><g clip-path="url(#mv83b)" opacity=".32"><path fill="#a7e3c0" d="M-128.221 654.717h2002.904v-2.587H-128.221z"/></g><g clip-path="url(#mv83b)" opacity=".32"><path fill="#a7e3c0" d="M-128.221 667.04h2002.904v-2.587H-128.221z"/></g><g clip-path="url(#mv83b)" opacity=".32"><path fill="#a7e3c0" d="M-128.221 679.363h2002.904v-2.587H-128.221z"/></g><g clip-path="url(#mv83b)" opacity=".32"><path fill="#a7e3c0" d="M-128.221 691.686h2002.904v-2.587H-128.221z"/></g><g clip-path="url(#mv83b)" opacity=".32"><path fill="#a7e3c0" d="M-128.221 704.01h2002.904v-2.588H-128.221z"/></g><g clip-path="url(#mv83b)" opacity=".32"><path fill="#a7e3c0" d="M-128.221 716.34h2002.904v-2.588H-128.221z"/></g><g clip-path="url(#mv83b)" opacity=".32"><path fill="#a7e3c0" d="M1874.683 728.663H-128.221v-2.588h2002.904z"/></g><g clip-path="url(#mv83b)" opacity=".32"><path fill="#a7e3c0" d="M-128.221 740.986h2002.904v-2.588H-128.221z"/></g><g clip-path="url(#mv83b)" opacity=".32"><path fill="#a7e3c0" d="M-128.221 753.309h2002.904v-2.588H-128.221z"/></g><g clip-path="url(#mv83b)" opacity=".32"><path fill="#a7e3c0" d="M-128.221 765.632h2002.904v-2.588H-128.221z"/></g><g clip-path="url(#mv83b)" opacity=".32"><path fill="#a7e3c0" d="M-128.221 777.962h2002.904v-2.587H-128.221z"/></g><g clip-path="url(#mv83b)" opacity=".32"><path fill="#a7e3c0" d="M-128.221 790.285h2002.904v-2.587H-128.221z"/></g><g clip-path="url(#mv83b)" opacity=".32"><path fill="#a7e3c0" d="M-128.221 802.608h2002.904v-2.587H-128.221z"/></g><g clip-path="url(#mv83b)" opacity=".32"><path fill="#a7e3c0" d="M-128.221 814.931h2002.904v-2.587H-128.221z"/></g></g></g></g></svg>