<svg xmlns="http://www.w3.org/2000/svg" width="556" height="170" viewBox="0 0 556 170"><g><g><g><g><path fill="#fff" d="M147.62 37.017l404.485-.767-42.86 48.301 43.753 49.834H148.513s33.93 0 33.93-23.767c-.893-18.4-16.965-25.3-16.965-25.3s16.072-9.2 16.072-25.301c-.893-22.234-33.93-23-33.93-23"/></g><g><path fill="none" stroke="#fff" stroke-miterlimit="20" stroke-width="2.51" d="M147.62 37.017v0l404.485-.767v0l-42.86 48.301v0l43.753 49.834v0H148.513v0s33.93 0 33.93-23.767c-.893-18.4-16.965-25.3-16.965-25.3v0s16.072-9.2 16.072-25.301c-.893-22.234-33.93-23-33.93-23z"/></g><g><path fill="#fff" d="M143.981 84.998c0-.635-.013-1.266-.035-1.896a4.246 4.246 0 0 1 1.6-3.482l11.65-9.245a9.753 9.753 0 0 0 3.211-10.65l-.363-1.118a9.177 9.177 0 0 0-8.342-6.34l-15.247-.639a4.215 4.215 0 0 1-3.313-1.84 62.066 62.066 0 0 0-2.278-3.146 4.224 4.224 0 0 1-.719-3.717l4.068-14.586a9.38 9.38 0 0 0-3.514-10.104l-.946-.688a9.544 9.544 0 0 0-10.904-.228l-12.483 8.304a4.21 4.21 0 0 1-3.766.46 62.25 62.25 0 0 0-3.699-1.213 4.214 4.214 0 0 1-2.762-2.582l-5.27-14.19A9.348 9.348 0 0 0 82.107 2h-1.514a9.074 9.074 0 0 0-8.503 5.918l-5.337 14.37a4.214 4.214 0 0 1-2.761 2.582 62.13 62.13 0 0 0-3.7 1.212 4.21 4.21 0 0 1-3.766-.46l-12.804-8.518a8.99 8.99 0 0 0-10.27.215l-.984.716a9.868 9.868 0 0 0-3.697 10.631l3.978 14.262a4.223 4.223 0 0 1-.72 3.716 62.872 62.872 0 0 0-2.275 3.143 4.213 4.213 0 0 1-3.313 1.84l-15.011.63a9.521 9.521 0 0 0-8.656 6.578l-.3.924A9.704 9.704 0 0 0 5.67 70.354l11.682 9.269a4.25 4.25 0 0 1 1.6 3.482 53.712 53.712 0 0 0 0 3.789 4.247 4.247 0 0 1-1.6 3.482L5.977 99.402a10.267 10.267 0 0 0-3.38 11.212 10.352 10.352 0 0 0 9.41 7.152l14.432.606a4.211 4.211 0 0 1 3.313 1.84 62.81 62.81 0 0 0 2.277 3.146 4.223 4.223 0 0 1 .718 3.717l-3.955 14.182a9.982 9.982 0 0 0 3.74 10.754l.014.01a10.6 10.6 0 0 0 12.109.253l11.866-7.894a4.21 4.21 0 0 1 3.766-.458c1.219.441 2.455.847 3.707 1.214a4.217 4.217 0 0 1 2.762 2.583l4.98 13.41A10.534 10.534 0 0 0 81.61 168h.349a9.564 9.564 0 0 0 8.964-6.238l5.216-14.044a4.214 4.214 0 0 1 2.76-2.583 61.91 61.91 0 0 0 3.707-1.214 4.21 4.21 0 0 1 3.766.46l11.958 7.954a10.44 10.44 0 0 0 11.929-.25l.463-.337a9.338 9.338 0 0 0 3.5-10.06l-4.075-14.61a4.222 4.222 0 0 1 .719-3.717 63.52 63.52 0 0 0 2.28-3.15 4.213 4.213 0 0 1 3.312-1.84l14.822-.621a9.785 9.785 0 0 0 8.896-6.76l.29-.894a9.485 9.485 0 0 0-3.123-10.356l-11.797-9.36a4.248 4.248 0 0 1-1.599-3.483c.022-.63.035-1.263.035-1.9m-62.533 54.1c-37.889-.19-52.616-31.065-53.23-55.331-.002-.103.009-.206.005-.31-.833-23.345 21.388-50.177 51.702-52.498.139-.01.28-.015.419-.015 32.517-.098 55.644 26.146 55.123 53.848-.003.14.006.283 0 .424-1.106 28.343-18.07 52.923-54.019 53.882"/></g><g><path fill="none" stroke="#fff" stroke-miterlimit="20" stroke-width="2.51" d="M143.946 86.897a4.248 4.248 0 0 0 1.599 3.483l11.797 9.36a9.485 9.485 0 0 1 3.123 10.356l-.29.894a9.785 9.785 0 0 1-8.896 6.76l-14.822.62a4.213 4.213 0 0 0-3.313 1.842 63.52 63.52 0 0 1-2.28 3.15 4.222 4.222 0 0 0-.718 3.715l4.075 14.61a9.338 9.338 0 0 1-3.5 10.061l-.463.337a10.44 10.44 0 0 1-11.929.25l-11.958-7.955a4.21 4.21 0 0 0-3.766-.46 61.91 61.91 0 0 1-3.706 1.215 4.214 4.214 0 0 0-2.761 2.583l-5.216 14.044A9.564 9.564 0 0 1 81.958 168h-.35c-4.4 0-8.338-2.74-9.872-6.87l-4.98-13.411a4.217 4.217 0 0 0-2.762-2.583 61.953 61.953 0 0 1-3.707-1.214 4.21 4.21 0 0 0-3.766.458l-11.866 7.894a10.6 10.6 0 0 1-12.11-.253l-.012-.01a9.982 9.982 0 0 1-3.741-10.754l3.955-14.182a4.223 4.223 0 0 0-.718-3.717 62.81 62.81 0 0 1-2.277-3.146 4.211 4.211 0 0 0-3.313-1.84l-14.432-.606a10.352 10.352 0 0 1-9.41-7.152 10.267 10.267 0 0 1 3.38-11.212l11.374-9.026a4.247 4.247 0 0 0 1.6-3.482 53.956 53.956 0 0 1 0-3.789 4.25 4.25 0 0 0-1.6-3.482L5.67 70.353A9.704 9.704 0 0 1 2.474 59.76l.3-.924a9.521 9.521 0 0 1 8.656-6.577l15.011-.63a4.213 4.213 0 0 0 3.313-1.84 62.872 62.872 0 0 1 2.275-3.144 4.223 4.223 0 0 0 .72-3.716L28.77 28.666a9.868 9.868 0 0 1 3.697-10.63l.984-.717a8.99 8.99 0 0 1 10.27-.215l12.804 8.519a4.21 4.21 0 0 0 3.766.46 62.13 62.13 0 0 1 3.7-1.213 4.214 4.214 0 0 0 2.761-2.583l5.337-14.37A9.074 9.074 0 0 1 80.593 2h1.514c3.907 0 7.4 2.431 8.762 6.098l5.27 14.19a4.214 4.214 0 0 0 2.762 2.582 62.25 62.25 0 0 1 3.7 1.212 4.21 4.21 0 0 0 3.765-.459l12.483-8.304a9.544 9.544 0 0 1 10.904.228l.946.688a9.38 9.38 0 0 1 3.514 10.104l-4.068 14.586a4.224 4.224 0 0 0 .72 3.717 62.066 62.066 0 0 1 2.277 3.146 4.215 4.215 0 0 0 3.313 1.84l15.247.64a9.177 9.177 0 0 1 8.342 6.34l.363 1.117a9.753 9.753 0 0 1-3.212 10.65l-11.65 9.245a4.246 4.246 0 0 0-1.599 3.482c.022.63.035 1.26.035 1.896 0 .636-.013 1.269-.035 1.899zm-8.479-1.682c.006-.141-.003-.283 0-.424.521-27.702-22.606-53.946-55.123-53.848-.14 0-.28.005-.42.015-30.313 2.32-52.534 29.153-51.7 52.499.003.103-.008.206-.005.31.613 24.265 15.34 55.14 53.23 55.33 35.947-.96 52.912-25.539 54.018-53.882z"/></g></g><g><path fill="#fff" d="M129 85.5c0 26.233-21.267 47.5-47.5 47.5S34 111.733 34 85.5 55.267 38 81.5 38 129 59.267 129 85.5"/></g><g><path fill="#5452fe" d="M206 92h3.318v18.863H220V114h-14z"/></g><g><g><path fill="#5452fe" d="M230.824 113h-.061c-.293.55-.747.957-1.363 1.217-.605.27-1.443.406-2.513.406-1.757-.022-3.11-.5-4.058-1.436-1-.917-1.499-2.087-1.499-3.514 0-1.364.434-2.493 1.302-3.388.868-.917 2.14-1.385 3.816-1.406h4.376v-1.71c.02-1.434-1.055-2.13-3.227-2.088-.788 0-1.409.084-1.863.251a2.302 2.302 0 0 0-1.121 1.004l-2.485-1.954c1.2-1.616 2.972-2.402 5.313-2.36 1.978-.021 3.557.364 4.738 1.155 1.18.812 1.78 2.208 1.8 4.186v11.073h-3.155zm-.01-5.432h-3.788c-1.839.041-2.748.694-2.728 1.955 0 .552.238 1.022.713 1.407.454.427 1.206.642 2.257.642 1.323.02 2.258-.141 2.803-.485.495-.344.743-1.126.743-2.346z"/></g><g><path fill="#5452fe" d="M238.58 98.233h3.157v1.718h.06c1.04-1.28 2.401-1.921 4.087-1.921 1.301 0 2.492.474 3.572 1.42 1.07.96 1.63 2.365 1.68 4.218v10.776h-3.156v-9.664c0-1.136-.293-2.001-.88-2.596-.575-.605-1.318-.907-2.227-.907-.91 0-1.656.302-2.242.907-.597.595-.895 1.46-.895 2.596v9.664h-3.156z"/></g><g><path fill="#5452fe" d="M265.18 112.748c-1.04 1.212-2.397 1.839-4.072 1.88-.949-.021-1.761-.224-2.437-.61a5.328 5.328 0 0 1-1.771-1.5c-.434-.51-.721-1.203-.863-2.08-.171-.833-.257-2.207-.257-4.125 0-1.949.086-3.335.257-4.158.142-.833.429-1.505.863-2.016.888-1.357 2.29-2.061 4.208-2.113a4.96 4.96 0 0 1 2.24.513 9.085 9.085 0 0 1 1.831 1.398V91.67h3.157v22.77h-3.157zm-4.82-11.083a2.467 2.467 0 0 0-.954 1.16 6.152 6.152 0 0 0-.38 1.598 19.45 19.45 0 0 0-.09 1.897c0 .616.03 1.217.09 1.802.062.616.187 1.17.38 1.66.202.471.52.858.954 1.16.395.292.965.44 1.713.44.748 0 1.338-.158 1.773-.471.435-.303.732-.7.894-1.192a6.19 6.19 0 0 0 .41-1.644 51.487 51.487 0 0 0 0-3.558 6.17 6.17 0 0 0-.41-1.598 2.294 2.294 0 0 0-.894-1.191c-.435-.303-1.025-.455-1.773-.455s-1.318.13-1.713.392z"/></g><g><path fill="#5452fe" d="M272.41 91.67h3.156v18.601c0 .74.395 1.11 1.185 1.11h1.094v3.06h-1.408c-1.151 0-2.1-.296-2.846-.887-.787-.602-1.181-1.613-1.181-3.033z"/></g><g><path fill="#5452fe" d="M279.88 106.323c0-1.71.136-3.025.409-3.942.283-.897.717-1.653 1.303-2.269.434-.539 1.04-1.02 1.818-1.445.768-.404 1.752-.616 2.954-.637 1.242.02 2.247.234 3.015.64.757.428 1.343.912 1.758 1.453.624.615 1.066 1.37 1.328 2.264.252.917.378 2.229.378 3.936 0 1.708-.126 3.01-.378 3.905a5.613 5.613 0 0 1-1.333 2.327c-.202.24-.45.473-.742.703a3.43 3.43 0 0 1-1.015.67c-.767.449-1.772.682-3.014.704-1.2-.022-2.185-.255-2.953-.703-.777-.406-1.383-.864-1.817-1.374a6.277 6.277 0 0 1-1.302-2.327c-.273-.896-.409-2.197-.409-3.905m9.804.027c0-1.16-.05-2.005-.152-2.536-.1-.512-.308-.96-.622-1.347-.232-.365-.576-.652-1.031-.861-.435-.219-.94-.329-1.518-.329-.536 0-1.031.11-1.486.329-.435.209-.79.496-1.063.86-.272.387-.47.836-.591 1.348-.121.531-.182 1.367-.182 2.504 0 1.127.06 1.952.182 2.474.121.532.319 1.001.591 1.41.274.311.628.589 1.063.828.455.23.95.345 1.486.345.577 0 1.083-.116 1.518-.345.455-.24.799-.517 1.031-.829.314-.408.521-.877.622-1.409.102-.522.152-1.336.152-2.442"/></g><g><path fill="#5452fe" d="M296.68 98.233h3.156v1.718h.066c1.041-1.28 2.405-1.921 4.092-1.921 1.264.02 2.364.435 3.304 1.245l-2.305 2.816c-.668-.543-1.36-.814-2.078-.814-.808 0-1.501.271-2.078.813-.647.532-.98 1.392-1 2.58v9.774h-3.157z"/></g><g><path fill="#5452fe" d="M317.97 112.748c-1.04 1.212-2.397 1.839-4.072 1.88-.948-.021-1.761-.224-2.437-.61a5.322 5.322 0 0 1-1.77-1.5c-.435-.51-.722-1.203-.864-2.08-.17-.833-.257-2.207-.257-4.125 0-1.949.086-3.335.257-4.158.142-.833.43-1.505.863-2.016.888-1.357 2.29-2.061 4.208-2.113.807 0 1.554.172 2.24.513a9.071 9.071 0 0 1 1.832 1.398V91.67h3.156v22.77h-3.156zm-4.82-11.083a2.464 2.464 0 0 0-.956 1.16 6.123 6.123 0 0 0-.379 1.598 19.24 19.24 0 0 0-.091 1.897c0 .616.03 1.217.091 1.802.06.616.187 1.17.38 1.66.2.471.52.858.955 1.16.394.292.965.44 1.713.44.749 0 1.34-.158 1.775-.471.434-.303.733-.7.894-1.192.202-.49.339-1.039.41-1.644a51.457 51.457 0 0 0 0-3.558 6.166 6.166 0 0 0-.41-1.598 2.293 2.293 0 0 0-.894-1.191c-.435-.303-1.026-.455-1.775-.455-.748 0-1.32.13-1.713.392z"/></g><g><path fill="#5452fe" d="M344.478 109.348h-8.377l-1.696 5.093h-3.545l8.03-22.771h2.8l8.03 22.77h-3.53zm-.95-3.058l-3.2-9.962h-.061l-3.2 9.962z"/></g><g><path fill="#5452fe" d="M363.977 111.836a8.516 8.516 0 0 1-2.425 1.973c-.93.528-2.005.803-3.228.823-1.855 0-3.484-.65-4.886-1.952-1.452-1.301-2.198-3.41-2.238-6.325.04-2.947.787-5.081 2.241-6.404 1.403-1.301 3.032-1.941 4.889-1.92 1.22.02 2.296.28 3.224.779a8.075 8.075 0 0 1 2.423 2.041l-2.334 2.135c-.797-1.097-1.862-1.667-3.197-1.708-2.686-.042-4.05 1.65-4.09 5.077.04 3.405 1.404 5.083 4.09 5.03 1.334-.02 2.4-.585 3.197-1.692z"/></g><g><path fill="#5452fe" d="M378.198 111.836a8.524 8.524 0 0 1-2.426 1.973c-.93.528-2.005.803-3.228.823-1.854 0-3.484-.65-4.885-1.952-1.452-1.301-2.198-3.41-2.239-6.325.04-2.947.788-5.081 2.242-6.404 1.402-1.301 3.03-1.941 4.889-1.92 1.22.02 2.295.28 3.224.779a8.075 8.075 0 0 1 2.423 2.041l-2.334 2.135c-.798-1.097-1.863-1.667-3.197-1.708-2.686-.042-4.05 1.65-4.09 5.077.04 3.405 1.404 5.083 4.09 5.03 1.334-.02 2.4-.585 3.197-1.692z"/></g><g><path fill="#5452fe" d="M383.217 107.57c0 1.303.363 2.294 1.091 2.97.677.689 1.567 1.032 2.668 1.032 1.284 0 2.43-.526 3.441-1.578l2.289 2.015c-1.605 1.77-3.494 2.643-5.664 2.623a7.955 7.955 0 0 1-2.424-.375 5.837 5.837 0 0 1-1.15-.546 5.614 5.614 0 0 1-1.106-.735c-.667-.604-1.206-1.447-1.62-2.53-.455-1.041-.682-2.394-.682-4.06 0-1.604.197-2.936.59-3.999.394-1.082.9-1.936 1.515-2.56.626-.636 1.327-1.094 2.105-1.375a6.572 6.572 0 0 1 2.272-.422c1.797.02 3.316.63 4.558 1.828 1.262 1.218 1.903 2.895 1.923 5.03v2.683zm6.65-2.682c-.04-1.267-.37-2.224-.987-2.872-.608-.618-1.387-.927-2.338-.927-.952 0-1.73.31-2.338.927-.598.648-.927 1.605-.987 2.872z"/></g><g><path fill="#5452fe" d="M396.86 98.233h3.157v1.687c1.05-1.208 2.402-1.838 4.057-1.89 1.928.052 3.337.76 4.225 2.124.432.51.73 1.182.891 2.014.151.823.227 2.218.227 4.186 0 1.916-.076 3.29-.227 4.123-.162.833-.46 1.515-.894 2.046a4.763 4.763 0 0 1-1.71 1.5c-.696.384-1.534.587-2.513.608-.807 0-1.529-.181-2.164-.543a6.879 6.879 0 0 1-1.892-1.368v8.284h-3.157zm8.038 12.703c.434-.302.743-.689.925-1.159.202-.49.338-1.032.41-1.628.019-.584.03-1.184.03-1.8 0-.646-.011-1.279-.03-1.894a5.782 5.782 0 0 0-.41-1.629 2.298 2.298 0 0 0-.925-1.158c-.435-.26-1.026-.392-1.775-.392-.707 0-1.269.152-1.683.455-.436.303-.754.699-.956 1.19a6.1 6.1 0 0 0-.379 1.597c-.06.605-.09 1.215-.09 1.831 0 .574.03 1.148.09 1.722.06.605.187 1.153.38 1.644.201.49.52.887.955 1.19.414.313.976.47 1.683.47.749 0 1.34-.147 1.775-.439z"/></g><g><path fill="#5452fe" d="M413.674 93.29h3.157v4.935h2.303v2.497h-2.303v9.452c-.02.823.353 1.224 1.12 1.203h1.183v3.06h-1.649c-1.108 0-2.016-.354-2.721-1.062-.726-.676-1.09-1.654-1.09-2.933v-9.72h-1.584v-2.497h1.584z"/></g><g><path fill="#5452fe" d="M430.644 113h-.06c-.293.55-.748.957-1.364 1.217-.605.27-1.443.406-2.513.406-1.756-.022-3.11-.5-4.058-1.436-1-.917-1.499-2.087-1.499-3.514 0-1.364.434-2.493 1.302-3.388.868-.917 2.14-1.385 3.816-1.406h4.376v-1.71c.02-1.434-1.055-2.13-3.226-2.088-.789 0-1.41.084-1.864.251a2.3 2.3 0 0 0-1.12 1.004l-2.485-1.954c1.2-1.616 2.971-2.402 5.313-2.36 1.977-.021 3.556.364 4.737 1.155 1.18.812 1.781 2.208 1.801 4.186v11.073h-3.156zm0-5.432h-3.794c-1.841.041-2.752.694-2.731 1.955 0 .552.237 1.022.713 1.407.456.427 1.209.642 2.261.642 1.325.02 2.26-.141 2.807-.485.496-.344.744-1.126.744-2.346z"/></g><g><path fill="#5452fe" d="M438.4 98.233h3.157v1.718h.06c1.04-1.28 2.402-1.921 4.087-1.921 1.302 0 2.492.474 3.572 1.42 1.07.96 1.63 2.365 1.68 4.218v10.776H447.8v-9.664c0-1.136-.293-2.001-.88-2.596-.575-.605-1.318-.907-2.226-.907-.91 0-1.657.302-2.243.907-.597.595-.894 1.46-.894 2.596v9.664H438.4z"/></g><g><path fill="#5452fe" d="M467.177 111.836a8.522 8.522 0 0 1-2.425 1.973c-.93.528-2.005.803-3.228.823-1.855 0-3.484-.65-4.885-1.952-1.452-1.301-2.199-3.41-2.239-6.325.04-2.947.787-5.081 2.24-6.404 1.404-1.301 3.033-1.941 4.89-1.92 1.222.02 2.296.28 3.225.779a8.066 8.066 0 0 1 2.422 2.041l-2.333 2.135c-.798-1.097-1.863-1.667-3.197-1.708-2.687-.042-4.05 1.65-4.09 5.077.04 3.405 1.403 5.083 4.09 5.03 1.333-.02 2.399-.585 3.196-1.692z"/></g><g><path fill="#5452fe" d="M472.197 107.57c0 1.303.363 2.294 1.091 2.97.677.689 1.567 1.032 2.668 1.032 1.284 0 2.43-.526 3.441-1.578l2.289 2.015c-1.605 1.77-3.494 2.643-5.664 2.623a7.955 7.955 0 0 1-2.424-.375 5.837 5.837 0 0 1-1.15-.546 5.614 5.614 0 0 1-1.106-.735c-.667-.604-1.206-1.447-1.62-2.53-.455-1.041-.682-2.394-.682-4.06 0-1.604.196-2.936.59-3.999.394-1.082.9-1.936 1.515-2.56.626-.636 1.327-1.094 2.105-1.375a6.572 6.572 0 0 1 2.272-.422c1.797.02 3.316.63 4.558 1.828 1.262 1.218 1.903 2.895 1.923 5.03v2.683zm6.65-2.682c-.04-1.267-.37-2.224-.987-2.872-.608-.618-1.387-.927-2.338-.927-.952 0-1.73.31-2.338.927-.598.648-.927 1.605-.987 2.872z"/></g><g><path fill="#5452fe" d="M50 89.44h1.09l2.193 6.422 2.15-6.422h1.095v9.853h-1.157v-6.145h-.027l-1.6 4.732h-.965l-1.6-4.732h-.022v6.145H50z"/></g><g><path fill="#5452fe" d="M58.14 94.367c0-1.146.026-1.914.079-2.302.055-.389.142-.702.257-.94a3.2 3.2 0 0 1 .89-1.213c.402-.359.904-.543 1.505-.552.608.01 1.115.194 1.52.554.402.356.692.762.87 1.216.129.239.218.553.267.94.046.388.068 1.153.068 2.297 0 1.127-.022 1.888-.068 2.284-.049.397-.138.714-.267.953a3.043 3.043 0 0 1-.87 1.203c-.406.36-.912.55-1.52.568-.602-.019-1.103-.207-1.505-.568a3.098 3.098 0 0 1-.89-1.203c-.056-.148-.107-.29-.152-.426a3.409 3.409 0 0 1-.105-.527c-.053-.396-.079-1.157-.079-2.284m1.157 0c0 .971.028 1.628.085 1.971.048.343.148.62.3.833.121.203.283.368.482.494.197.15.43.224.704.224.277 0 .516-.075.72-.224.192-.126.346-.291.462-.494.15-.212.253-.49.31-.833.052-.343.079-1 .079-1.97 0-.971-.027-1.632-.079-1.985-.057-.334-.16-.607-.31-.82a1.54 1.54 0 0 0-.462-.507 1.386 1.386 0 0 0-.72-.21c-.273.01-.507.079-.704.21-.2.135-.36.304-.483.508-.15.212-.25.485-.3.82-.056.352-.084 1.013-.084 1.983"/></g><g><path fill="#5452fe" d="M65.16 89.44h1.09l3.464 7.004h.02V89.44h1.158v9.853h-1.096l-3.458-7.005h-.02v7.005H65.16z"/></g><g><path fill="#5452fe" d="M72.75 89.44h4.884v1.405h-3.727v2.82h3.181v1.323h-3.18v2.9h3.726v1.405H72.75z"/></g><g><path fill="#5452fe" d="M80.251 95.24l-2.301-5.8h1.228l1.62 4.371 1.621-4.371h1.228l-2.304 5.798v4.055h-1.092z"/></g><g><path fill="#5452fe" d="M87.12 89.44h2.964c.751.01 1.315.252 1.693.73.381.482.571 1.12.571 1.912.008.406-.067.793-.224 1.162-.081.176-.196.343-.347.501-.15.167-.335.317-.555.453v.027c.417.14.732.421.946.844.2.438.3.913.3 1.426-.007.851-.213 1.526-.62 2.02-.402.519-.904.778-1.506.778H87.12zm1.157 1.324v2.843h1.675c.423 0 .735-.143.934-.43.203-.263.304-.595.304-.995s-.101-.739-.304-1.016c-.2-.258-.511-.393-.934-.402zm0 4.156v2.968h1.787c.432-.009.747-.16.947-.454.2-.29.3-.633.3-1.03 0-.406-.1-.755-.3-1.044-.2-.285-.515-.43-.947-.44z"/></g><g><path fill="#5452fe" d="M97.794 97.089h-2.9l-.588 2.204H93.08l2.78-9.853h.969l2.779 9.853h-1.222zm-.33-1.323l-1.107-4.31h-.02l-1.107 4.31z"/></g><g><path fill="#5452fe" d="M105.597 96.541c-.168.913-.488 1.615-.96 2.105-.486.486-1.062.729-1.726.729-.6-.018-1.102-.207-1.505-.568a3.108 3.108 0 0 1-.89-1.202c-.056-.15-.107-.291-.152-.426a3.486 3.486 0 0 1-.106-.528c-.052-.396-.078-1.157-.078-2.284 0-1.144.026-1.91.078-2.297.056-.387.142-.7.257-.94.186-.454.483-.86.892-1.216.402-.36.904-.545 1.505-.554.738.01 1.34.29 1.804.843.465.559.758 1.249.881 2.072h-1.229a2.303 2.303 0 0 0-.515-1.016 1.317 1.317 0 0 0-.945-.413 1.32 1.32 0 0 0-.704.21 1.61 1.61 0 0 0-.483.508c-.15.212-.25.485-.3.82-.056.352-.084 1.013-.084 1.983 0 .971.028 1.628.085 1.971.048.343.148.62.3.833.122.203.283.368.483.495.196.148.43.223.704.223.65 0 1.138-.45 1.46-1.348z"/></g><g><path fill="#5452fe" d="M106.61 89.44h1.157v5.075h.024l3.147-5.075h1.375l-2.45 3.886 2.707 5.967h-1.375l-2.084-4.818-1.344 1.817v3h-1.157z"/></g><g><path fill="#5452fe" d="M54.669 107.165h2.717v2.004c-.014.985-.276 1.81-.786 2.477-.513.661-1.16 1-1.94 1.018-.6-.018-1.102-.207-1.504-.567a3.098 3.098 0 0 1-.89-1.203c-.056-.149-.107-.29-.152-.426a3.424 3.424 0 0 1-.105-.527c-.053-.396-.079-1.157-.079-2.284 0-1.144.026-1.91.079-2.298.055-.386.142-.7.257-.939.185-.454.481-.86.89-1.216.402-.36.903-.545 1.505-.554.737.009 1.338.29 1.803.845.464.557.758 1.25.88 2.074h-1.228a2.32 2.32 0 0 0-.514-1.019 1.317 1.317 0 0 0-.945-.415c-.273.01-.508.08-.704.21-.198.136-.36.305-.482.508-.15.213-.25.486-.3.82-.055.352-.084 1.014-.084 1.984 0 .971.029 1.627.085 1.97.048.344.149.622.3.833.121.203.283.369.482.495.197.149.431.223.704.223.452 0 .825-.198 1.119-.596.294-.38.445-.879.452-1.498v-.516h-1.56z"/></g><g><path fill="#5452fe" d="M58.81 102.73h1.157v6.358c.007.671.158 1.183.452 1.535.287.37.657.555 1.108.555.452 0 .825-.185 1.119-.555.287-.352.434-.864.44-1.535v-6.358h1.158v6.514c-.013 1.037-.275 1.859-.78 2.467-.511.626-1.157.944-1.937.953-.766-.01-1.406-.326-1.92-.952-.525-.608-.79-1.429-.797-2.464z"/></g><g><path fill="#5452fe" d="M69.574 110.379h-2.9l-.588 2.204H64.86l2.78-9.853h.969l2.779 9.853h-1.222zm-.33-1.323l-1.107-4.31h-.02l-1.107 4.31z"/></g><g><path fill="#5452fe" d="M72.42 102.73h2.988c.636 0 1.156.217 1.559.648.484.492.737 1.192.757 2.102-.013 1.339-.505 2.248-1.476 2.73l1.77 4.373h-1.375l-1.583-4.211h-1.483v4.21H72.42zm1.157 4.329h1.757c.434-.01.76-.172.977-.49.214-.295.321-.656.321-1.088-.007-.516-.135-.89-.384-1.121-.196-.204-.48-.306-.852-.306h-1.819z"/></g><g><path fill="#5452fe" d="M83.104 110.379h-2.9l-.588 2.204H78.39l2.78-9.853h.969l2.779 9.853h-1.222zm-.327-1.323l-1.11-4.31h-.02l-1.11 4.31z"/></g><g><path fill="#5452fe" d="M85.94 102.73h1.09l3.464 7.004h.02v-7.004h1.158v9.853h-1.096l-3.458-7.004h-.02v7.004H85.94z"/></g><g><path fill="#5452fe" d="M94.826 104.054H92.73v-1.324h5.35v1.324h-2.097v8.529h-1.157z"/></g><g><path fill="#5452fe" d="M99.07 102.73h4.884v1.405h-3.727v2.82h3.181v1.323h-3.18v2.9h3.726v1.405H99.07z"/></g><g><path fill="#5452fe" d="M105.24 102.73h4.884v1.405h-3.727v2.82h3.181v1.323h-3.18v2.9h3.726v1.405h-4.884z"/></g><g><path fill="#5452fe" d="M214.032 82.465c-1.953 0-3.757-.395-5.413-1.182a12.85 12.85 0 0 1-4.305-3.323c-1.214-1.427-2.167-3.128-2.858-5.106-.691-1.977-1.036-4.154-1.036-6.533v-.089c0-2.258.338-4.377 1.013-6.354.676-1.977 1.606-3.702 2.791-5.173a12.8 12.8 0 0 1 4.257-3.456c1.652-.833 3.443-1.249 5.372-1.249 2.215 0 4.127.402 5.735 1.204 1.607.802 3.078 1.918 4.412 3.345l-4.073 6.109c-.905-.951-1.828-1.68-2.769-2.185-.941-.506-2.03-.759-3.269-.759a4.96 4.96 0 0 0-2.519.67 6.606 6.606 0 0 0-2.018 1.828c-.572.774-1.025 1.68-1.358 2.72a10.89 10.89 0 0 0-.5 3.345v.089c0 1.248.167 2.408.502 3.478.334 1.07.806 1.984 1.416 2.743a6.753 6.753 0 0 0 2.15 1.784c.825.43 1.739.647 2.742.647 1.626 0 2.964-.432 4.015-1.294v-3.79h-4.93v-6.332h11.504v14.046c-1.334 1.368-2.906 2.513-4.716 3.434-1.81.921-3.858 1.383-6.145 1.383"/></g><g><path fill="#5452fe" d="M241.786 82.415c-1.787 0-3.394-.283-4.824-.847a9.113 9.113 0 0 1-3.644-2.609c-1-1.173-1.768-2.66-2.304-4.46-.536-1.797-.804-3.916-.804-6.354V50.62h7.074v17.347c0 2.26.413 3.932 1.24 5.017.827 1.085 1.938 1.627 3.333 1.627 1.394 0 2.505-.519 3.332-1.56.827-1.04 1.241-2.66 1.241-4.86V50.62h7.074v17.303c0 2.526-.28 4.704-.84 6.532-.56 1.829-1.345 3.33-2.357 4.504a9.234 9.234 0 0 1-3.68 2.61c-1.442.563-3.055.846-4.841.846"/></g><g><path fill="#5452fe" d="M268.047 50.4h6.68l10.647 31.439h-7.43l-1.823-5.574h-9.646l-1.787 5.574H257.4zm6.07 19.186l-2.783-8.885-2.819 8.885z"/></g><g><path fill="#5452fe" d="M289.59 50.62h11.825c1.93 0 3.561.298 4.895.892 1.334.595 2.417 1.427 3.251 2.497 1.477 1.784 2.216 4.207 2.216 7.27v.089c0 2.408-.465 4.4-1.394 5.975-.929 1.576-2.18 2.78-3.751 3.612l5.966 10.881h-8.003l-5.037-9.454h-3.037v9.454h-6.931zm11.504 14.984c1.19 0 2.108-.334 2.75-1.004.644-.669.965-1.567.965-2.698v-.09c0-1.247-.333-2.177-1-2.786-.667-.61-1.584-.914-2.751-.914h-4.537v7.492z"/></g><g><path fill="#5452fe" d="M325.707 50.4h6.68l10.648 31.439h-7.432l-1.822-5.574h-9.646l-1.787 5.574h-7.288zm6.07 19.186l-2.783-8.885-2.819 8.885z"/></g><g><path fill="#5452fe" d="M347.25 50.62h6.48l10.312 16.5v-16.5h6.823v31.216h-6.087l-10.705-17.124v17.124h-6.823z"/></g><g><path fill="#5452fe" d="M383.193 58.201h-7.503V50.62h21.937v7.581h-7.503v23.635h-6.931z"/></g><g><path fill="#5452fe" d="M402.45 50.62h20.08v7.358h-13.256v4.727h12.004v6.823h-12.004v4.95h13.434v7.358H402.45z"/></g><g><path fill="#5452fe" d="M428.07 50.62h20.08v7.358h-13.256v4.727h12.004v6.823h-12.004v4.95h13.434v7.358H428.07z"/></g><g><path fill="#5452fe" d="M453.68 50.62h9.647c2.238 0 4.234.379 5.984 1.137s3.227 1.822 4.43 3.189c1.203 1.368 2.12 2.995 2.751 4.883.631 1.888.947 3.962.947 6.22v.09c0 2.26-.322 4.348-.965 6.265-.643 1.918-1.571 3.576-2.786 4.973-1.216 1.398-2.71 2.49-4.484 3.277-1.775.788-3.781 1.182-6.02 1.182h-9.504zm9.765 23.546c2.08 0 3.752-.684 5.02-2.052 1.266-1.366 1.9-3.314 1.9-5.842v-.088c0-2.498-.634-4.438-1.9-5.82-1.268-1.382-2.94-2.074-5.02-2.074h-2.834v15.876z"/></g><g><path fill="#5452fe" d="M55.913 65.57l-2.69.767-.843-4.267 4.672-1.65h3.214v20.056h-4.353z"/></g><g><path fill="#5452fe" d="M70.112 80.87c-1.14 0-2.166-.27-3.077-.81-.912-.54-1.683-1.28-2.314-2.22-.63-.938-1.117-2.033-1.458-3.286a15.022 15.022 0 0 1-.513-3.982v-.057c0-1.403.174-2.735.524-3.997.35-1.26.843-2.361 1.482-3.3.638-.938 1.413-1.683 2.324-2.233.912-.55 1.938-.825 3.077-.825 1.14 0 2.162.27 3.066.811.904.54 1.675 1.28 2.313 2.219.638.939 1.128 2.034 1.47 3.286a15.08 15.08 0 0 1 .513 3.983v.056c0 1.404-.171 2.736-.513 3.997-.342 1.262-.836 2.361-1.482 3.3-.645.94-1.424 1.683-2.336 2.233-.911.55-1.937.825-3.076.825m.045-4.883c.44 0 .843-.132 1.208-.398s.673-.64.923-1.125a6.665 6.665 0 0 0 .581-1.708c.137-.655.206-1.381.206-2.179v-.057c0-.797-.073-1.527-.217-2.192-.144-.665-.346-1.239-.604-1.723-.259-.484-.57-.864-.934-1.139a1.964 1.964 0 0 0-1.208-.413c-.441 0-.84.133-1.197.399-.357.266-.665.636-.923 1.11-.259.475-.456 1.045-.593 1.71a10.886 10.886 0 0 0-.205 2.191v.057c0 .797.072 1.533.217 2.207.144.674.345 1.252.604 1.737.258.485.57.86.934 1.125.365.266.767.398 1.208.398"/></g><g><path fill="#5452fe" d="M86.742 80.87c-1.14 0-2.166-.27-3.077-.81-.912-.54-1.683-1.28-2.314-2.22-.63-.938-1.117-2.033-1.458-3.286a15.022 15.022 0 0 1-.513-3.982v-.057c0-1.403.174-2.735.524-3.997.35-1.26.843-2.361 1.482-3.3.638-.938 1.413-1.683 2.324-2.233.912-.55 1.938-.825 3.077-.825 1.14 0 2.162.27 3.066.811.904.54 1.675 1.28 2.313 2.219.638.939 1.128 2.034 1.47 3.286a15.08 15.08 0 0 1 .513 3.983v.056c0 1.404-.171 2.736-.513 3.997-.342 1.262-.836 2.361-1.482 3.3-.645.94-1.424 1.683-2.336 2.233-.911.55-1.937.825-3.076.825m.045-4.883c.44 0 .843-.132 1.208-.398s.673-.64.923-1.125a6.665 6.665 0 0 0 .581-1.708c.137-.655.206-1.381.206-2.179v-.057c0-.797-.073-1.527-.217-2.192-.144-.665-.346-1.239-.604-1.723-.259-.484-.57-.864-.934-1.139a1.964 1.964 0 0 0-1.208-.413c-.441 0-.84.133-1.197.399-.357.266-.665.636-.923 1.11-.259.475-.456 1.045-.593 1.71a10.886 10.886 0 0 0-.205 2.191v.057c0 .797.072 1.533.217 2.207.144.674.345 1.252.604 1.737.258.485.57.86.934 1.125.365.266.767.398 1.208.398"/></g><g><path fill="#5452fe" d="M98.294 70.578a3.959 3.959 0 0 1-1.287-1.138 5.56 5.56 0 0 1-.83-1.692 7.047 7.047 0 0 1-.297-2.076v-.057c0-.739.098-1.43.296-2.075a5.581 5.581 0 0 1 .831-1.692 4.07 4.07 0 0 1 1.298-1.152 3.42 3.42 0 0 1 1.697-.426c.623 0 1.185.142 1.686.426.5.285.93.668 1.286 1.152.357.483.634 1.048.832 1.692.197.645.296 1.327.296 2.048v.056c0 .74-.099 1.431-.296 2.076a5.416 5.416 0 0 1-.843 1.692 4.197 4.197 0 0 1-1.31 1.151 3.37 3.37 0 0 1-1.673.427 3.445 3.445 0 0 1-1.686-.412zm11.656-10.024h3.078l-12.314 19.924h-3.078zm-8.993 6.68c.241-.416.363-.937.363-1.562v-.057c0-.624-.125-1.15-.375-1.575-.25-.426-.572-.64-.965-.64-.395 0-.713.21-.954.626-.243.416-.364.937-.364 1.562v.056c0 .644.128 1.174.386 1.59.258.417.576.625.954.625.394 0 .712-.208.955-.625zm8.006 13.082a4.107 4.107 0 0 1-1.285-1.15 5.57 5.57 0 0 1-.83-1.69 6.94 6.94 0 0 1-.296-2.046v-.057c0-.738.098-1.43.296-2.073a5.563 5.563 0 0 1 .83-1.69 4.058 4.058 0 0 1 1.296-1.151 3.41 3.41 0 0 1 1.695-.427c.622 0 1.183.138 1.684.412.5.275.929.654 1.285 1.137.356.482.633 1.046.83 1.69.197.644.296 1.335.296 2.074v.057c0 .719-.099 1.406-.296 2.06a5.397 5.397 0 0 1-.841 1.704c-.364.483-.8.867-1.308 1.15a3.376 3.376 0 0 1-1.672.427 3.352 3.352 0 0 1-1.684-.427zm2.657-3.328c.241-.415.362-.935.362-1.558v-.056c0-.643-.125-1.171-.374-1.587-.249-.416-.57-.624-.961-.624-.408 0-.729.203-.962.61-.234.405-.35.93-.35 1.572v.057c0 .623.127 1.147.384 1.572.256.425.573.637.95.637.393 0 .71-.207.951-.623z"/></g></g></g></g></svg>