<svg xmlns="http://www.w3.org/2000/svg" width="552" height="167" viewBox="0 0 552 167"><g><g><g><path fill="#6d6cff" d="M146.36 35.904l403.75-.764-42.781 48.153L551 133H147.251s33.869 0 33.869-23.72c-.891-18.345-16.934-25.223-16.934-25.223s16.043-9.172 16.043-25.223c-.891-22.167-33.869-22.93-33.869-22.93"/></g><g><path fill="none" stroke="#6d6cff" stroke-miterlimit="20" stroke-width=".98" d="M146.36 35.904v0l403.75-.764v0l-42.781 48.153v0L551 133v0H147.251v0s33.869 0 33.869-23.72c-.891-18.345-16.934-25.223-16.934-25.223v0s16.043-9.172 16.043-25.223c-.891-22.167-33.869-22.93-33.869-22.93z"/></g><g><path fill="#6d6cff" d="M142.724 83.743c0-.633-.014-1.261-.036-1.89a4.235 4.235 0 0 1 1.597-3.471l11.628-9.217a9.716 9.716 0 0 0 3.207-10.616l-.363-1.116a9.16 9.16 0 0 0-8.327-6.32l-15.219-.637a4.21 4.21 0 0 1-3.308-1.835 63.639 63.639 0 0 0-2.272-3.137 4.2 4.2 0 0 1-.718-3.705L133 27.259c1-3.762-.375-7.779-3.534-10.075l-.944-.685c-3.225-2.343-7.522-2.434-10.886-.228l-12.46 8.28a4.181 4.181 0 0 1-3.758.449 60.867 60.867 0 0 0-3.693-1.2A4.094 4.094 0 0 1 95 21.226L89.709 7.078C88.349 3.423 84.861 1 81 1h-1.55C75.668 1 72.283 3.352 71 6.9l-5.364 14.324A4.207 4.207 0 0 1 62.88 23.8c-1.248.364-2.48.768-3.693 1.2a4.182 4.182 0 0 1-3.759-.45l-12.782-8.493c-3.125-2.057-7.214-1.99-10.25.216l-.982.727a9.802 9.802 0 0 0-3.691 10.584l3.97 14.218A4.278 4.278 0 0 1 31 45.507a50 50 0 0 0-2.295 3.134c-.705 1.101-1.977 1.779-3.308 1.835l-14.984.627a9.502 9.502 0 0 0-8.64 6.558l-.3.92a9.664 9.664 0 0 0 3.19 10.562l11.66 9.242c1.056.837 1.677 2.126 1.597 3.471a53.81 53.81 0 0 0-.035 1.887c0 .634.013 1.257.035 1.89.08 1.367-.54 2.636-1.597 3.472L5 98.103a10.195 10.195 0 0 0-3.406 11.178A10.337 10.337 0 0 0 11 116.41l14.395.589c1.33.07 2.605.747 3.306 1.85.726 1.07 1.484 2.15 2.299 3.15.788 1 1 2.412.692 3.691l-3.948 14.138a9.943 9.943 0 0 0 3.734 10.722l.013.01a10.59 10.59 0 0 0 12.087.252l11.844-7.87c1.111-.738 2.505-.943 3.759-.457 1.218.44 2.451.846 3.7 1.21a4.141 4.141 0 0 1 2.757 2.576l4.972 13.37a10.512 10.512 0 0 0 9.854 6.85h.35a9.564 9.564 0 0 0 8.947-6.219L95 146.272c.429-1.272 1.449-2.203 2.723-2.576a55.804 55.804 0 0 0 3.7-1.21c1.253-.486 2.649-.28 3.758.458l11.938 7.93c3.63 2.414 8.38 2.314 11.881-.248l.488-.336C132.634 148 134 144 133 140.26l-4.087-14.566c-.357-1.279-.094-2.694.718-3.694.79-1 1.548-2.08 2.275-3.151a4.262 4.262 0 0 1 3.307-1.849l14.787-.606a9.766 9.766 0 0 0 8.888-6.738l.289-.89a9.443 9.443 0 0 0-3.116-10.325l-11.776-9.333a4.21 4.21 0 0 1-1.597-3.471c.022-.637.036-1.26.036-1.894M80.3 137.667c-37.816-.189-52.515-30.967-53.128-55.157-.002-.102.01-.204.005-.308-.832-23.271 21.347-50.019 51.604-52.333.138-.01.278-.016.416-.016 32.456-.096 55.539 26.064 55.019 53.678-.003.142.006.283 0 .469-1.103 28.208-18.037 52.71-53.916 53.667"/></g><g><path fill="none" stroke="#6d6cff" stroke-miterlimit="20" stroke-width=".98" d="M142.688 85.637a4.21 4.21 0 0 0 1.597 3.471l11.776 9.333a9.443 9.443 0 0 1 3.116 10.324l-.29.891a9.766 9.766 0 0 1-8.887 6.738l-14.787.606a4.262 4.262 0 0 0-3.307 1.849c-.727 1.072-1.485 2.151-2.275 3.151-.812 1-1.075 2.415-.718 3.694L133 140.26c1 3.74-.366 7.74-3.512 10.03l-.488.336c-3.502 2.562-8.25 2.662-11.88.249l-11.939-7.931c-1.11-.739-2.505-.944-3.759-.458-1.216.44-2.422.846-3.699 1.21-1.274.373-2.294 1.304-2.723 2.576l-5.24 14.001a9.564 9.564 0 0 1-8.947 6.218h-.349a10.512 10.512 0 0 1-9.854-6.85l-4.972-13.37a4.141 4.141 0 0 0-2.756-2.575 62.038 62.038 0 0 1-3.701-1.21c-1.254-.486-2.648-.28-3.759.458l-11.844 7.87a10.59 10.59 0 0 1-12.087-.254l-.013-.01a9.943 9.943 0 0 1-3.733-10.72l3.947-14.139C32 124.411 31.788 123 31 122c-.815-1-1.572-2.08-2.298-3.15-.702-1.103-1.977-1.78-3.307-1.85L11 116.412a10.337 10.337 0 0 1-9.406-7.131A10.195 10.195 0 0 1 5 98.103l11.323-8.998C17.38 88.27 18 87 17.92 85.634a54.227 54.227 0 0 1-.035-1.89c0-.632.013-1.26.035-1.888.08-1.345-.54-2.634-1.597-3.471l-11.66-9.242a9.664 9.664 0 0 1-3.19-10.561l.3-.921a9.502 9.502 0 0 1 8.64-6.558l14.984-.627c1.33-.056 2.603-.734 3.308-1.835A49.997 49.997 0 0 1 31 45.507a4.278 4.278 0 0 0 .694-3.705l-3.971-14.218A9.802 9.802 0 0 1 31.413 17l.983-.727c3.036-2.207 7.125-2.273 10.25-.216l12.782 8.492a4.182 4.182 0 0 0 3.76.451 67.393 67.393 0 0 1 3.692-1.2 4.207 4.207 0 0 0 2.756-2.576L71 6.9C72.282 3.352 75.667 1 79.45 1H81c3.861 0 7.35 2.423 8.709 6.078L95 21.226a4.094 4.094 0 0 0 2.725 2.574c1.275.364 2.478.768 3.693 1.2a4.181 4.181 0 0 0 3.759-.449l12.46-8.28c3.363-2.206 7.66-2.115 10.885.228l.944.685C132.625 19.48 134 23.497 133 27.258l-4.087 14.54a4.2 4.2 0 0 0 .718 3.706 63.63 63.63 0 0 1 2.272 3.137 4.21 4.21 0 0 0 3.308 1.835l15.22.637a9.16 9.16 0 0 1 8.326 6.32l.363 1.116a9.716 9.716 0 0 1-3.207 10.616l-11.628 9.217a4.235 4.235 0 0 0-1.597 3.47c.022.63.036 1.258.036 1.891 0 .634-.014 1.257-.036 1.894zM134.215 84c.006-.186-.003-.327 0-.469.52-27.614-22.563-53.774-55.019-53.678-.138 0-.278.006-.416.016-30.257 2.314-52.436 29.062-51.604 52.333.004.104-.007.206-.005.308.613 24.19 15.312 54.968 53.128 55.157 35.879-.957 52.813-25.459 53.916-53.667z"/></g><g><path fill="#6d6cff" d="M127.81 84c0 26.135-21.185 47.32-47.32 47.32-26.134 0-47.32-21.185-47.32-47.32 0-26.134 21.186-47.32 47.32-47.32 26.135 0 47.32 21.186 47.32 47.32"/></g><g><path fill="#fff" d="M203.94 90.82h3.333v19.484H218v3.24h-14.06z"/></g><g><path fill="#fff" d="M229.64 112.109h-.061c-.291.55-.744.955-1.358 1.215-.603.27-1.438.405-2.505.405-1.716-.022-3.097-.498-4.043-1.433-.996-.915-1.493-2.084-1.493-3.508 0-1.36.432-2.487 1.296-3.38.866-.916 2.133-1.408 3.803-1.408h4.361v-1.701c.02-1.432-1.051-2.125-3.215-2.084-.786 0-1.425.083-1.858.25-.473.2-.845.535-1.115 1.002L221 99.517c1.171-1.612 2.936-2.396 5.27-2.355 1.97-.02 3.544.363 4.73 1.153 1.167.81 1.766 2.203 1.786 4.177v11.05h-3.146zm0-5.426h-3.78c-1.86.04-2.743.691-2.723 1.95 0 .55.238 1.018.71 1.367.455.462 1.206.676 2.254.676 1.322.02 2.254-.14 2.797-.483.495-.344.742-1.123.742-2.341z"/></g><g><path fill="#fff" d="M237.37 97.363h3.146v1.714h.06c1.035-1.277 2.424-1.917 4.073-1.917 1.296 0 2.483.473 3.56 1.419 1.065.955 1.622 2.359 1.673 4.208v10.754h-3.145v-9.644c0-1.135-.292-1.998-.877-2.592-.573-.603-1.313-.905-2.218-.905-.907 0-1.642.302-2.235.905-.594.594-.891 1.457-.891 2.592v9.644h-3.146z"/></g><g><path fill="#fff" d="M263.887 111.855c-1.035 1.21-2.388 1.836-4.057 1.876-.946-.022-1.755-.223-2.428-.608a5.3 5.3 0 0 1-1.765-1.497c-.433-.51-.72-1.2-.86-2.075-.17-.832-.257-2.204-.257-4.117 0-1.945.086-3.328.256-4.15.142-.831.428-1.502.861-2.011.885-1.355 2.282-2.057 4.193-2.11a4.94 4.94 0 0 1 2.233.513c.633.324 1.241.827 1.824 1.396V90.82H267v22.724h-3.113zm-4.802-11.06c-.432.282-.75.667-.95 1.205-.192.442-.318 1-.38 1.547-.06.616-.089 1.248-.089 1.894 0 .614.03 1.214.09 1.797.06.616.187 1.168.378 1.658.201.47.519.855.951 1.158.393.291.915.437 1.707.437.744 0 1.334-.157 1.766-.491.442-.28.73-.676.89-1.167.202-.49.339-1.037.41-1.642a51.447 51.447 0 0 0 0-3.55 7.06 7.06 0 0 0-.41-1.641 2.313 2.313 0 0 0-.89-1.142c-.432-.303-1.022-.454-1.766-.454-.792 0-1.314.13-1.707.391z"/></g><g><path fill="#fff" d="M271.09 90.82h3.146v18.563c0 .739.393 1.108 1.18 1.108h1.09v3.053h-1.403c-1.103 0-2.103-.295-2.836-.884-.786-.6-1.177-1.66-1.177-3.028z"/></g><g><path fill="#fff" d="M278.53 105.437c0-1.707.137-3.019.409-3.935.28-.896.713-1.65 1.298-2.265.432-.537 1.037-1.018 1.763-1.44.814-.404 1.794-.615 3-.637 1.23.022 2.231.234 3 .64.75.425 1.335.91 1.747 1.448.622.615 1.064 1.368 1.325 2.262.251.914.377 2.223.377 3.927 0 1.703-.128 3.003-.377 3.897a5.634 5.634 0 0 1-1.328 2.322c-.203.238-.45.472-.744.701-.257.26-.595.483-1 .643-.772.475-1.773.707-3 .73-1.207-.023-2.19-.255-3-.73-.728-.379-1.331-.836-1.765-1.344a6.324 6.324 0 0 1-1.298-2.322c-.272-.894-.407-2.194-.407-3.897m9.773.031c0-1.158-.05-2.002-.151-2.533-.152-.51-.308-.935-.62-1.345a2.12 2.12 0 0 0-1.03-.861c-.434-.219-.938-.329-1.502-.329-.546 0-1 .11-1.493.329a2.829 2.829 0 0 0-1.06.86c-.271.411-.447.835-.59 1.346-.121.531-.181 1.366-.181 2.502 0 1.126.06 1.95.18 2.472.144.53.32.999.592 1.406.271.313.625.59 1.059.828.493.23.947.344 1.493.344.564 0 1.068-.114 1.502-.344.498-.239.797-.515 1.03-.828.312-.407.468-.875.62-1.406.1-.522.15-1.336.15-2.44"/></g><g><path fill="#fff" d="M295.27 97.363h3.146v1.714h.066c1.036-1.277 2.395-1.917 4.076-1.917 1.259.02 2.356.435 3.292 1.243l-2.295 2.81c-.667-.54-1.357-.813-2.072-.813-.806 0-1.483.27-2.07.811-.645.531-.977 1.39-.997 2.576v9.754h-3.146z"/></g><g><path fill="#fff" d="M316.487 111.855c-1.035 1.21-2.388 1.836-4.057 1.876-.945-.022-1.755-.223-2.43-.608a5.329 5.329 0 0 1-1.763-1.497c-.432-.51-.72-1.2-.86-2.075-.17-.832-.257-2.204-.257-4.117 0-1.945.086-3.328.256-4.15.142-.831.43-1.502.861-2.011.885-1.355 2.282-2.057 4.193-2.11.804 0 1.57.172 2.233.513.633.324 1.241.827 1.824 1.396V90.82h3.146v22.724h-3.146zm-4.802-11.06c-.432.282-.75.667-.95 1.205-.192.442-.318 1-.378 1.547a19.133 19.133 0 0 0-.091 1.894c0 .614.03 1.214.091 1.797.06.616.186 1.168.377 1.658.201.47.519.855.951 1.158.393.291.962.437 1.707.437.746 0 1.334-.157 1.767-.491.433-.28.73-.676.841-1.167.252-.49.387-1.037.457-1.642a51.447 51.447 0 0 0 0-3.55A5.289 5.289 0 0 0 316 102c-.111-.444-.408-.84-.84-1.142-.434-.303-1.022-.454-1.768-.454-.745 0-1.314.13-1.707.391z"/></g><g><path fill="#fff" d="M342.9 108.46h-8.347l-1.69 5.084h-3.533l8.002-22.724h2.792l8 22.724h-3.518zm-.9-3.05l-3.235-9.942h-.061l-3.184 9.941z"/></g><g><path fill="#fff" d="M362.343 110.937a8.474 8.474 0 0 1-2.417 1.97c-.926.526-1.998.8-3.216.821-1.85 0-3.473-.649-4.869-1.949-1.447-1.298-2.19-3.402-2.231-6.312.04-2.94.786-5.07 2.233-6.39 1.399-1.299 3.022-1.937 4.873-1.917 1.216.02 2.284.28 3.212.778a7.794 7.794 0 0 1 2.415 2.062L360 102.106c-.778-1.106-1.84-1.663-3.168-1.705-2.677-.041-4.037 1.599-4.076 5.066.04 3.399 1.399 5.073 4.076 5.02 1.328-.02 2.39-.584 3.168-1.689z"/></g><g><path fill="#fff" d="M376.503 110.937a8.664 8.664 0 0 1-2.417 1.97c-.927.526-1.998.8-3.216.821-1.87 0-3.473-.649-4.87-1.949-1.446-1.298-2.19-3.402-2.23-6.312.04-2.94.786-5.07 2.23-6.39 1.402-1.299 3-1.937 4.876-1.917 1.216.02 2.286.28 3.212.778a7.95 7.95 0 0 1 2.415 2.062l-2.325 2.106c-.796-1.106-1.858-1.663-3.178-1.705-2.685-.041-4 1.599-4.084 5.066.084 3.399 1.399 5.073 4.084 5.02 1.32-.02 2.382-.584 3.178-1.689z"/></g><g><path fill="#fff" d="M381.506 106.681c0 1.319.363 2.319 1.087 2.964.675.687 1.562 1.03 2.66 1.03 1.278 0 2.42-.526 3.428-1.577l2.319 2.013c-1.637 1.765-3.52 2.637-5.682 2.617a7.912 7.912 0 0 1-2.415-.374c-.393-.136-.775-.354-1.147-.546a5.664 5.664 0 0 1-1.102-.732c-.654-.603-1.202-1.444-1.654-2.525-.414-1.039-.64-2.39-.64-4.053 0-1.6.196-2.93.59-3.99.39-1.08.895-1.933 1.508-2.508a5.194 5.194 0 0 1 2.098-1.419 6.53 6.53 0 0 1 2.264-.421c1.79.02 3.305.629 4.542 1.84 1.257 1.2 1.896 2.873 1.917 5v2.681zm6.627-2.681c-.041-1.26-.368-2.215-.984-2.863-.605-.616-1.381-.924-2.329-.924-.949 0-1.725.308-2.33.924-.596.648-.924 1.603-.984 2.863z"/></g><g><path fill="#fff" d="M395.1 97.363h3.146V99c1.047-1.16 2.393-1.788 4.043-1.84 1.922.052 3.325.759 4.21 2.12.43.509.728 1.178.888 2.01.15.822.226 2.214.226 4.178 0 1.911-.075 3.283-.226 4.114-.16.831-.457 1.512-.89 2.041a4.753 4.753 0 0 1-1.704 1.496c-.695.385-1.53.587-2.505.609-.805 0-1.523-.181-2.156-.543a6.85 6.85 0 0 1-1.886-1.365v8.267H395.1zm8.008 12.687c.434-.303.74-.688.892-1.158.232-.49.367-1.032.437-1.626a55.67 55.67 0 0 0 0-3.691c-.07-.575-.205-1.157-.437-1.627a2.093 2.093 0 0 0-.892-1.156c-.432-.261-1.021-.392-1.766-.392-.706 0-1.264.151-1.677.454-.432.302-.75.698-.95 1.146a6.855 6.855 0 0 0-.378 1.637 18.148 18.148 0 0 0-.091 1.831c0 .532.03 1.146.091 1.72.06.604.186 1.151.377 1.641.201.49.519.887.951 1.171.413.33.971.487 1.677.487.745 0 1.334-.146 1.766-.437z"/></g><g><path fill="#fff" d="M411.86 92.44H415v4.925h2.3v2.492H415v9.433c0 .82.356 1.221 1.123 1.2h1.177v3.053h-1.643c-1.104 0-2.01-.352-2.712-1.06-.724-.674-1.086-1.65-1.086-2.925v-9.7h-1.579v-2.493h1.58z"/></g><g><path fill="#fff" d="M428.77 112.109h-.06a2.52 2.52 0 0 1-1.359 1.215c-.603.27-1.438.405-2.503.405-1.75-.022-3.1-.498-4.045-1.433-.995-.915-1.493-2.084-1.493-3.508 0-1.36.432-2.487 1.298-3.38.864-.916 2.13-1.408 3.801-1.408h4.361v-1.701c.02-1.432-1.051-2.125-3.215-2.084-.786 0-1.403.083-1.858.25-.473.2-.845.535-1.115 1.002l-2.477-1.95c1.198-1.612 2.962-2.396 5.294-2.355 1.97-.02 3.545.363 4.722 1.153 1.176.81 1.775 2.203 1.795 4.177v11.05h-3.146zm0-5.426H425c-1.846.04-2.753.691-2.731 1.95 0 .55.236 1.018.731 1.367.432.462 1.183.676 2.233.676 1.32.02 2.252-.14 2.767-.483.523-.344.77-1.123.77-2.341z"/></g><g><path fill="#fff" d="M436.5 97.363h3.146v1.714h.06c1.035-1.277 2.393-1.917 4.073-1.917 1.296 0 2.483.473 3.56 1.419 1.065.955 1.661 2.359 1.661 4.208v10.754h-3.133v-9.644c0-1.135-.292-1.998-.867-2.592-.583-.603-1.323-.905-2.228-.905-.906 0-1.652.302-2.235.905-.594.594-.891 1.457-.891 2.592v9.644H436.5z"/></g><g><path fill="#fff" d="M465.173 110.937a8.476 8.476 0 0 1-2.417 1.97c-.925.526-1.998.8-3.216.821-1.85 0-3.472-.649-4.869-1.949-1.447-1.298-2.19-3.402-2.231-6.312.04-2.94.786-5.07 2.233-6.39 1.399-1.299 3.022-1.937 4.873-1.917 1.218.02 2.288.28 3.214.778a7.771 7.771 0 0 1 2.413 2.062l-2.325 2.106c-.796-1.106-1.848-1.663-3.186-1.705-2.662-.041-4.035 1.599-4.076 5.066.04 3.399 1.414 5.073 4.076 5.02 1.338-.02 2.39-.584 3.186-1.689z"/></g><g><path fill="#fff" d="M470.176 106.681c0 1.319.363 2.319 1.087 2.964.675.687 1.562 1.03 2.66 1.03 1.278 0 2.42-.526 3.428-1.577l2.282 2.013c-1.633 1.765-3.482 2.637-5.633 2.617a7.931 7.931 0 0 1-2.427-.374c-.393-.136-.775-.354-1.147-.546-.426-.198-.76-.441-1.102-.732-.664-.603-1.202-1.444-1.615-2.525-.453-1.039-.709-2.39-.709-4.053 0-1.6.226-2.93.62-3.99.38-1.08.895-1.933 1.508-2.508a5.193 5.193 0 0 1 2.098-1.419 6.568 6.568 0 0 1 2.264-.421c1.79.02 3.305.629 4.51 1.84 1.289 1.2 1.928 2.873 1.949 5v2.681zm6.627-2.681c-.041-1.26-.368-2.215-.984-2.863-.605-.616-1.381-.924-2.329-.924-.95 0-1.725.308-2.33.924-.596.648-.924 1.603-.984 2.863z"/></g><g><path fill="#fff" d="M49.45 88.59h1.087L52.722 95l2.143-6.41H56v9.832h-1.198v-6.131h-.026L53.18 97h-.962l-1.595-4.71h-.02v6.132H49.45z"/></g><g><path fill="#fff" d="M57.57 93.507c0-1.144.027-1.91.079-2.297.055-.388.141-.701.256-.94.184-.453.479-.855.888-1.21.399-.357.9-.54 1.499-.55.605.01 1.11.193 1.515.553.4.355.688.76.867 1.213.127.24.217.552.266.938.06.387.06 1.15.06 2.293 0 1.124 0 1.884-.06 2.279-.05.396-.139.713-.268.952a3.044 3.044 0 0 1-.865 1.199c-.406.36-.91.548-1.515.567-.6-.019-1.1-.207-1.5-.567a3.071 3.071 0 0 1-.887-1.199 12.22 12.22 0 0 1-.153-.426 3.52 3.52 0 0 1-.103-.526c-.052-.395-.079-1.155-.079-2.279m1.153 0c0 .968.029 1.623.084 1.966.048.343.193.62.298.831.123.203.283.368.483.494.195.149.412.202.7.202.276 0 .516-.053.712-.202.198-.126.35-.291.466-.494.15-.21.253-.488.31-.831.051-.343.078-.998.078-1.966s-.027-1.628-.079-1.98c-.056-.333-.159-.606-.31-.819a1.488 1.488 0 0 0-.465-.506 1.266 1.266 0 0 0-.711-.202c-.289 0-.506.072-.701.202-.2.136-.36.304-.483.506-.105.213-.25.486-.298.82-.055.351-.084 1.011-.084 1.98"/></g><g><path fill="#fff" d="M64.56 88.59h1.087l3.451 6.99h.02v-6.99h1.154v9.832H69.18l-3.446-6.99h-.02v6.99H64.56z"/></g><g><path fill="#fff" d="M72.12 88.59H77V90h-3.727v2.806h3.17v1.32h-3.17V97H77v1.422h-4.88z"/></g><g><path fill="#fff" d="M79.593 94.378L77.3 88.59h1.223L80.138 93l1.615-4.41H83l-2.318 5.786v4.046h-1.09z"/></g><g><path fill="#fff" d="M86.44 88.59h2.953c.75.01 1.312.251 1.687.73.38.48.57 1.116.57 1.907.007.404-.067.773-.224 1.16-.08.176-.195.342-.346.5a2.47 2.47 0 0 1-.553.45v.027c.417.14.731.421.943.844.2.437.299.91.299 1.422-.007.85-.212 1.523-.616 2.016-.403.519-.902.776-1.503.776h-3.21zm1.153 1.322v2.827h1.67c.42 0 .737-.143.93-.428.202-.311.303-.592.303-.99 0-.397-.1-.734-.303-1.01-.193-.258-.51-.39-.93-.4zm0 4.147V97h1.78c.431 0 .746-.14.944-.433.2-.288.298-.63.298-1.028 0-.406-.099-.753-.298-1.04-.198-.285-.513-.431-.943-.44z"/></g><g><path fill="#fff" d="M97.087 96.222h-2.888l-.586 2.2H92.39l2.77-9.832h.967l2.769 9.832h-1.218zm-.328-1.32l-1.104-4.3h-.02l-1.103 4.3z"/></g><g><path fill="#fff" d="M104.858 95.676c-.167.911-.486 1.612-.957 2.1-.484.485-1.058.728-1.72.728-.6-.019-1.098-.207-1.498-.567a3.303 3.303 0 0 1-.888-1.2 11.06 11.06 0 0 1-.153-.425 3.365 3.365 0 0 1-.103-.526c-.054-.396-.079-1.155-.079-2.279 0-1.142.025-1.906.079-2.293.055-.388.14-.699.256-.938.205-.454.479-.86.888-1.214.4-.359.9-.544 1.499-.552.735.008 1.334.29 1.818.84.443.557.735 1.247.858 2.069h-1.224a2.177 2.177 0 0 0-.514-1.014 1.27 1.27 0 0 0-.941-.405c-.274 0-.506.07-.703.202a1.557 1.557 0 0 0-.476.506c-.156.213-.255.484-.303.818-.055.352-.084 1.012-.084 1.981 0 .968.029 1.623.084 1.966.048.343.149.62.303.831.118.203.278.368.478.494.195.149.429.202.7.202.65 0 1.135-.427 1.456-1.324z"/></g><g><path fill="#fff" d="M105.86 88.59H107v5.065l3.174-5.065h1.368l-2.44 3.878 2.696 5.954h-1.37l-2.076-4.808L107 95.429v2.993h-1.14z"/></g><g><path fill="#fff" d="M54.1 106.275h2.707v2c-.012.984-.275 1.808-.807 2.473-.488.66-1.132.997-1.908 1.016-.599-.019-1.092-.207-1.5-.567a3.107 3.107 0 0 1-.887-1.197c-.055-.151-.107-.293-.151-.428a3.138 3.138 0 0 1-.105-.572c-.052-.35-.079-1.11-.079-2.233 0-1.142.027-1.906.079-2.293.056-.386.141-.699.256-.938.184-.454.48-.86.888-1.213.407-.323.9-.545 1.499-.553.735.008 1.334.29 1.797.842.462.558.755 1.248.877 2.07h-1.224a2.1 2.1 0 0 0-.542-1.017 1.201 1.201 0 0 0-.911-.413c-.272.01-.506.08-.701.21-.2.136-.388.304-.483.538-.149.18-.248.452-.297.787-.056.35-.085 1.01-.085 1.98 0 .968.029 1.623.085 1.966.049.343.148.62.297.831.095.203.283.368.483.494.195.149.429.223.7.223.452 0 .822-.198 1.116-.596.293-.378.443-.877.45-1.494v-.516H54.1z"/></g><g><path fill="#fff" d="M58.23 101.85h1.153v6.345c.007.67.158 1.18.45 1.533.286.367.655.553 1.105.553.449 0 .821-.186 1.114-.553.287-.352.433-.863.44-1.533v-6.345h1.153v6.501c-.014 1.034-.273 1.854-.778 2.462-.509.624-1.152.942-1.93.951-.763-.01-1.4-.327-1.937-.95-.498-.607-.764-1.426-.77-2.458z"/></g><g><path fill="#fff" d="M69 109.482h-2.931l-.586 2.2H64.26L67 101.85h1l2.766 9.832h-1.218zm-.371-1.32l-1.104-4.3h-.02l-1.103 4.3z"/></g><g><path fill="#fff" d="M71.79 101.85h2.976c.635 0 1.154.217 1.554.647.483.503.736 1.19.756 2.098-.014 1.336-.504 2.244-1.47 2.725l1.763 4.362H76l-1.58-4.202h-1.477v4.202H71.79zm1.153 4.31h1.751c.432-.009.757-.16.974-.487.212-.292.332-.673.332-1.08 0-.515-.148-.887-.395-1.117-.196-.202-.479-.304-.848-.304h-1.814z"/></g><g><path fill="#fff" d="M82.437 109.482h-2.888l-.549 2.2h-1.26l2.77-9.832h.967l2.769 9.832H83zm-.328-1.32l-1.109-4.3-1.118 4.3z"/></g><g><path fill="#fff" d="M85.27 101.85h1.087l3.451 6.99h.02v-6.99H91v9.832h-1.11l-3.446-6.99h-.02v6.99H85.27z"/></g><g><path fill="#fff" d="M94.118 103.172H92v-1.322h5.362v1.322h-2.09v8.51h-1.154z"/></g><g><path fill="#fff" d="M98.35 101.85h4.867v1.402h-3.714v2.814h3.17v1.32h-3.17v2.895h3.714v1.401H98.35z"/></g><g><path fill="#fff" d="M104.5 101.85h4.867v1.402h-3.714v2.814h3.17v1.32h-3.17v2.895h3.714v1.401H104.5z"/></g><g><path fill="#fff" d="M212.905 81.628c-1.905 0-3.745-.393-5.394-1.18a12.803 12.803 0 0 1-4.29-3.314C202 75.708 201.061 74 200.372 72c-.688-1.936-1.032-4.108-1.032-6.482v-.09c0-2.253.336-4.367 1.009-6.34.651-1.974 1.651-3.695 2.781-5.163a12.738 12.738 0 0 1 4.243-3.449c1.627-.831 3.43-1.246 5.354-1.246 2.206 0 4.112.4 5.714 1.2a16.113 16.113 0 0 1 4.397 3.338l-4.06 6.097c-.901-.949-1.778-1.675-2.778-2.18-.917-.504-2-.757-3.238-.757-.902 0-1.762.224-2.51.668-.772.404-1.441 1.053-2.011 1.825-.57.771-1.02 1.676-1.353 2.715a10.867 10.867 0 0 0-.499 3.338v.088c0 1.246.167 2.438.5 3.438.333 1.102.805 2 1.411 2.77a6.743 6.743 0 0 0 2.144 1.781c.82.449 1.731.646 2.732.646 1.619 0 2.953-.43 4.001-1.292v-3.782h-4.914v-6.32h11.466v14.018c-1.33 1.366-2.897 2.508-4.729 3.427-1.776.92-3.817 1.38-6.095 1.38"/></g><g><path fill="#fff" d="M240.576 81.59c-1.78 0-3.382-.283-4.807-.845a9.09 9.09 0 0 1-3.632-2.604c-.996-1.141-1.761-2.654-2.296-4.45-.534-1.795-.841-3.908-.841-6.341V49.86h7.09v17.31c0 2.256.411 3.925 1.236 5.007.824 1.085 1.931 1.625 3.32 1.625 1.354 0 2.498-.518 3.354-1.557.792-1.039 1.204-2.656 1.204-4.851V49.86h7.05v17.267c0 2.522-.254 4.695-.837 6.52-.558 1.824-1.342 3.353-2.35 4.494a9.207 9.207 0 0 1-3.667 2.604c-1.4.562-3.044.845-4.824.845"/></g><g><path fill="#fff" d="M266.739 49.63h6.658L284 81h-7.399l-1.815-5.558h-9.612L263.394 81h-7.264zm6.053 19.137L270 59.91l-2.798 8.857z"/></g><g><path fill="#fff" d="M288.21 49.85H300c1.916 0 3.542.297 4.872.891 1.328.594 2.407 1.424 3.24 2.492 1.47 1.767 2.206 4.2 2.206 7.254v.09c0 2.423-.462 4.423-1.387 5.963-.931 1.573-2.173 2.774-3.739 3.605L311.137 81h-7.975l-5.019-9.431h-3.027V81h-6.906zm11.464 14.954c1.186 0 2.1-.333 2.74-1.001.641-.668.962-1.565.962-2.694V61c0-1.225-.376-2.152-.996-2.76-.665-.608-1.58-.913-2.743-.913h-4.52v7.477z"/></g><g><path fill="#fff" d="M324.199 49.63h6.658L341.467 81h-7.406l-1.815-5.558h-9.612L320.854 81h-7.264zm6.053 19.137l-2.777-8.857-2.813 8.857z"/></g><g><path fill="#fff" d="M345.67 49.85h6.457l10.276 16.467V49.85h6.8V81h-6.065L352.47 63.913V81h-6.8z"/></g><g><path fill="#fff" d="M381.487 57.416H374V49.85h21.87v7.566h-7.477V81h-6.906z"/></g><g><path fill="#fff" d="M400.67 49.85h20.009v7.343h-13.21v4.718h11.964v6.809H407.47v4.939h13.386V81H400.67z"/></g><g><path fill="#fff" d="M426.2 49.85h20.009v7.343H433v4.718h12v6.809h-12v4.939h13.387V81H426.2z"/></g><g><path fill="#fff" d="M451.73 49.85h9.612c2.232 0 4.22.379 5.964 1.15 1.746.742 3.217 1.803 4.416 3.167 1.197 1.365 2.112 2.989 2.74 4.833.629 1.924.945 4 .945 6.248v.088c0 2.257-.322 4.34-.962 6.253-.641 1.914-1.567 3.569-2.777 4.963C470.457 77.947 469 79 467.2 79.823c-1.768.786-3.768 1.177-5.998 1.177h-9.471zm9.73 23.498c2.073 0 3.74-.682 5.002-2.048 1.264-1.364 1.894-3.3 1.894-5.83v-.088c0-2.492-.63-4.382-1.894-5.808-1.262-1.38-2.929-2.07-5.002-2.07h-2.824v15.844z"/></g><g><path fill="#fff" d="M55.34 64.769l-2.68.766-.84-4.258 4.656-1.647h3.203v20.015H55.34z"/></g><g><path fill="#fff" d="M69.485 80c-1.134 0-2.157-.231-3.065-.77A6.614 6.614 0 0 1 64.114 77c-.628-.923-1.114-2-1.453-3.264a15.033 15.033 0 0 1-.511-3.974v-.058c0-1.4.173-2.704.522-3.989.328-1.258.84-2.357 1.477-3.293a7.442 7.442 0 0 1 2.316-2.229c.908-.548 1.93-.823 3.066-.823s2.154.27 3.055.81c.9.538 1.669 1.277 2.305 2.213.637.939 1.109 2.03 1.465 3.28.34 1.25.51 2.574.51 3.974v.057c0 1.401-.17 2.73-.51 3.99A11.352 11.352 0 0 1 74.88 77c-.644.924-1.42 1.666-2.329 2.216-.908.548-1.93.784-3.066.784m.046-4.845c.469 0 .84-.155 1.204-.398.363-.264.67-.638.919-1.12.25-.484.443-1.051.58-1.703.137-.654.204-1.379.204-2.172v-.058c0-.795-.072-1.523-.215-2.186-.145-.662-.346-1.235-.602-1.718-.258-.482-.569-.86-.932-1.134a1.949 1.949 0 0 0-1.204-.412c-.485 0-.836.132-1.192.398-.355.264-.662.633-.92 1.106-.257.473-.454 1.042-.59 1.703-.137.663-.205 1.391-.205 2.186v.057c0 .795.073 1.529.216 2.201.144.671.344 1.248.601 1.732.258.482.605.856.932 1.12.363.243.764.398 1.204.398"/></g><g><path fill="#fff" d="M86.065 80c-1.134 0-2.157-.231-3.065-.77A6.612 6.612 0 0 1 80.694 77c-.628-.923-1.112-2-1.453-3.264a15.033 15.033 0 0 1-.511-3.974v-.058c0-1.4.173-2.704.522-3.989.349-1.258.84-2.357 1.477-3.293A7.82 7.82 0 0 1 83 60.193c1-.548 2-.823 3.111-.823 1.136 0 2.154.27 3.055.81.9.538 1.669 1.277 2.305 2.213.637.939 1.124 2.03 1.465 3.28.34 1.25.51 2.574.51 3.974v.057c0 1.401-.17 2.73-.51 3.99C92.595 75 92.103 76 91.46 77a8.169 8.169 0 0 1-2.329 2.216c-.908.548-1.93.784-3.066.784m.046-4.845a2.04 2.04 0 0 0 1.204-.398c.363-.264.685-.638.919-1.12.25-.484.443-1.051.58-1.703.186-.654.186-1.379.186-2.172v-.058c0-.795-.054-1.523-.197-2.186-.145-.662-.346-1.235-.602-1.718-.258-.482-.569-.86-.932-1.134a1.949 1.949 0 0 0-1.204-.412c-.438 0-.836.132-1.192.398A2.77 2.77 0 0 0 84 65.758c-.304.473-.5 1.042-.637 1.703-.137.663-.205 1.391-.205 2.186v.057c0 .795.073 1.529.216 2.201.144.671.344 1.248.626 1.732.233.482.544.856.907 1.12.363.243.764.398 1.204.398"/></g><g><path fill="#fff" d="M97.587 69.771a3.964 3.964 0 0 1-1.283-1.136 5.555 5.555 0 0 1-.829-1.69 7.008 7.008 0 0 1-.295-2.072v-.056c0-.739.097-1.429.295-2.073a5.573 5.573 0 0 1 .829-1.69 4.051 4.051 0 0 1 1.294-1.148 3.402 3.402 0 0 1 1.693-.426c.62 0 1.18.141 1.709.426.47.283.9.666 1.255 1.149.355.482.631 1.046.83 1.689.196.644.293 1.325.293 2.044v.057a7.06 7.06 0 0 1-.294 2.073 5.436 5.436 0 0 1-.84 1.689c-.363.482-.8.866-1.306 1.15-.508.243-1.064.424-1.67.424-.621 0-1.18-.181-1.68-.41zm11.605-10.008h3.068L100 79.637h-3.071zm-8.947 6.672c.242-.435.363-.936.363-1.562v-.056c0-.626-.124-1.15-.374-1.577-.234-.425-.572-.638-.967-.638-.393 0-.712.21-.954.624-.242.417-.313.938-.313 1.562v.057c0 .644.08 1.155.337 1.59.258.417.575.624.954.624.393 0 .709-.207.954-.624zm7.972 13.059a4.098 4.098 0 0 1-1.284-1.149 5.591 5.591 0 0 1-.828-1.69 6.971 6.971 0 0 1-.296-2.044v-.056c0-.739.098-1.43.296-2.073a5.573 5.573 0 0 1 .828-1.69 4.05 4.05 0 0 1 1.295-1.148 3.403 3.403 0 0 1 1.692-.427c.62 0 1.18.138 1.68.411.5.275.929.654 1.284 1.136.355.483.631 1.047.83 1.69.196.644.286 1.334.286 2.072v.057c0 .72-.09 1.417-.287 2.059a5.446 5.446 0 0 1-.84 1.703c-.363.482-.8.866-1.306 1.149a3.355 3.355 0 0 1-1.669.426 3.335 3.335 0 0 1-1.681-.426zm2.657-3.32c.242-.417.363-.939.363-1.563v-.056c0-.643-.124-1.174-.374-1.555-.25-.45-.572-.66-.965-.66-.41 0-.732.203-.966.66-.235.357-.352.882-.352 1.526v.057c0 .624.128 1.15.42 1.576.224.426.541.638.92.638.393 0 .712-.207.954-.624z"/></g></g></g></svg>