<svg xmlns="http://www.w3.org/2000/svg" width="500" height="184" viewBox="0 0 500 184"><defs><clipPath id="nn9qa"><path d="M30 20h450v134.022H30z"/></clipPath></defs><g><g transform="matrix(-1 0 0 1 510 0)"><g/><g clip-path="url(#nn9qa)"><path fill="#4ec77f" d="M480 153.576s-20.221-8.1-20.221-32.932V87.006c0-2.93-.198-4.048-.198-4.048-.005-.064-.02-.133-.02-.202a67.15 67.15 0 0 0-.604-5.596 64.098 64.098 0 0 0-1.163-5.907 55.086 55.086 0 0 0-.579-2.197 60.898 60.898 0 0 0-1.103-3.533 72.755 72.755 0 0 0-1.158-3.107 69.466 69.466 0 0 0-1.025-2.42 64.593 64.593 0 0 0-1.98-4.027c-.227-.43-.45-.86-.692-1.286a64.59 64.59 0 0 0-3.048-4.923c-.03-.045-.06-.094-.095-.144C435.92 31.78 415.26 20 391.712 20c-1.514 0-293.65.223-293.65.223C60.47 20.223 30 50.12 30 87.01c0 36.885 30.47 66.788 68.062 66.788h293.65c15.287 0 29.342-5.002 40.705-13.348.98.682 23.779 16.391 47.583 13.126"/></g><g clip-path="url(#nn9qa)" opacity=".68"><g opacity=".54"><path fill="#fff" d="M204 60h184v6H204z"/></g><g opacity=".54"><path fill="#fff" d="M204 84h184v6H204z"/></g><g opacity=".54"><path fill="#fff" d="M204 107h147v6H204z"/></g></g></g></g></svg>