<svg xmlns="http://www.w3.org/2000/svg" width="81" height="75" viewBox="0 0 81 75"><g><g clip-path="url(#clip-37FFC6BF-EE2A-0CF2-14B7-BF5E7513AC53)"><path fill="#fff" d="M68.812 52.468C76.67 46.682 81 38.905 81 30.572c0-8.334-4.33-16.11-12.188-21.9C61.214 3.08 51.16 0 40.5 0S19.785 3.079 12.189 8.673C4.329 14.46 0 22.238 0 30.572c0 5.544 1.97 10.967 5.698 15.684 2.822 3.572 6.602 6.68 11.061 9.11.792.432 1.355 1.479 1.241 2.373L16.22 71.734c-.341 2.682.988 3.366 2.97 1.527L31.645 61.71c.661-.612 1.92-1.003 2.816-.902 1.993.223 4.014.336 6.04.336 10.66 0 20.714-3.08 28.312-8.675"/></g><g><path fill="#5f6fff" d="M28.318 31.793c-.431.36-.935.54-1.51.54H14.94c.287 1.414.947 2.523 1.978 3.326a5.527 5.527 0 0 0 3.488 1.205c.983 0 1.75-.09 2.302-.27.551-.18.989-.371 1.313-.575.323-.204.545-.342.665-.414.431-.216.84-.323 1.223-.323.503 0 .935.18 1.294.539.36.36.54.78.54 1.259 0 .647-.336 1.235-1.007 1.762-.672.552-1.57 1.02-2.697 1.403a10.548 10.548 0 0 1-3.417.575c-2.014 0-3.77-.42-5.269-1.259-1.498-.839-2.655-1.996-3.47-3.47-.816-1.475-1.223-3.135-1.223-4.981 0-2.062.432-3.872 1.295-5.43.863-1.56 2.001-2.752 3.416-3.58a8.83 8.83 0 0 1 4.532-1.24c1.582 0 3.074.432 4.477 1.295a9.684 9.684 0 0 1 3.363 3.488 9.383 9.383 0 0 1 1.259 4.747 1.848 1.848 0 0 1-.684 1.403m-13.342-3.057h9.422v-.252c-.096-1.007-.588-1.87-1.474-2.59a4.668 4.668 0 0 0-3.021-1.078c-2.782 0-4.424 1.307-4.927 3.92"/></g><g><path fill="#5f6fff" d="M31.16 36.396c0-.623.311-1.15.935-1.582a1.902 1.902 0 0 1 1.043-.324c.504 0 .983.228 1.438.684.72.743 1.469 1.294 2.248 1.654.78.36 1.72.54 2.823.54 1.87-.072 2.806-.78 2.806-2.122 0-.695-.318-1.223-.953-1.583-.636-.36-1.625-.72-2.967-1.079-1.391-.383-2.524-.767-3.4-1.15a6.002 6.002 0 0 1-2.265-1.745c-.635-.779-.953-1.828-.953-3.147 0-1.15.33-2.151.99-3.003.658-.85 1.522-1.51 2.588-1.978a8.379 8.379 0 0 1 3.4-.701c1.222 0 2.445.228 3.668.683 1.222.456 2.181 1.128 2.877 2.014.311.384.467.816.467 1.295 0 .552-.228 1.007-.683 1.367a1.81 1.81 0 0 1-1.151.395c-.528 0-.96-.167-1.295-.503-.431-.527-.989-.947-1.672-1.259-.683-.311-1.457-.468-2.32-.468-1.822 0-2.733.66-2.733 1.978 0 .528.168.954.504 1.277.335.324.76.576 1.276.755.516.18 1.241.402 2.176.666 1.295.36 2.374.731 3.237 1.115a5.557 5.557 0 0 1 2.194 1.762c.599.791.899 1.834.899 3.129 0 1.175-.348 2.2-1.043 3.074-.696.876-1.589 1.541-2.68 1.997a8.656 8.656 0 0 1-3.362.683c-1.583 0-3.057-.264-4.424-.791a7.346 7.346 0 0 1-3.344-2.554c-.216-.287-.324-.647-.324-1.079"/></g><g><path fill="#5f6fff" d="M67.348 21.472c.407.408.611.934.611 1.582v15.213c0 .624-.204 1.145-.611 1.564-.408.42-.924.63-1.547.63-.624 0-1.133-.204-1.528-.612-.396-.407-.606-.922-.63-1.546-.599.695-1.409 1.289-2.427 1.78a7.326 7.326 0 0 1-3.219.737c-1.654 0-3.153-.425-4.495-1.277-1.343-.85-2.404-2.031-3.183-3.542-.78-1.51-1.169-3.224-1.169-5.143 0-1.918.383-3.638 1.15-5.16.768-1.523 1.817-2.71 3.148-3.561a8.013 8.013 0 0 1 4.405-1.277c1.151 0 2.23.21 3.237.63 1.007.42 1.858.953 2.553 1.6v-.036c0-.623.204-1.145.612-1.564.407-.42.922-.63 1.546-.63.623 0 1.139.204 1.547.612M62.34 35.147c.982-1.137 1.473-2.57 1.473-4.294 0-1.725-.491-3.162-1.473-4.312-.982-1.15-2.252-1.725-3.808-1.725-1.534 0-2.791.575-3.773 1.725-.982 1.15-1.473 2.587-1.473 4.312s.485 3.157 1.455 4.294c.97 1.138 2.233 1.707 3.79 1.707s2.827-.569 3.81-1.707"/></g></g></svg>