<svg xmlns="http://www.w3.org/2000/svg" width="750" height="688" viewBox="0 0 750 688"><defs><clipPath id="hbfia"><path d="M0 0h750v687.644H0z"/></clipPath></defs><g><g><g/><g clip-path="url(#hbfia)" opacity=".07"><path fill="#4ec77f" d="M637.144 485.635C709.906 432.075 750 360.092 750 283c0-77.17-40.094-149.153-112.856-202.728C566.8 28.498 473.704 0 375 0c-98.706 0-191.802 28.498-262.146 80.272C40.077 133.847 0 205.83 0 283c0 51.28 18.238 101.476 52.754 145.138 26.133 33.056 61.134 61.862 102.423 84.314 7.331 3.998 12.542 13.689 11.492 21.964L150.172 664c-3.172 24.783 9.15 31.11 27.506 14.087L293 571.16c6.124-5.665 17.779-9.277 26.074-8.35A503.657 503.657 0 0 0 375 565.925c98.704 0 191.8-28.514 262.144-80.289"/></g></g></g></svg>