<svg xmlns="http://www.w3.org/2000/svg" preserveAspectRatio="none" width="659" height="227" viewBox="0 0 659 227"><g><g><path fill="#eef1ff" d="M579.092 1H103.35C59.77 1 24.447 33.398 24.447 73.335V189.882C24.447 216.764 1 225.54 1 225.54c28.204 3.61 55.271-14.287 55.271-14.287l-.074-.15c13.16 9.026 29.448 14.437 47.153 14.437h475.742c43.579 0 78.908-32.378 78.908-72.32V73.335C658 33.398 622.671 1 579.092 1"/><path fill="none" stroke="#6d6cff" stroke-miterlimit="20" d="M579.092 1v0H103.35C59.77 1 24.447 33.398 24.447 73.335V189.882C24.447 216.764 1 225.54 1 225.54c28.204 3.61 55.271-14.287 55.271-14.287v0l-.074-.15c13.16 9.026 29.448 14.437 47.153 14.437v0h475.742c43.579 0 78.908-32.378 78.908-72.32V73.335C658 33.398 622.671 1 579.092 1"/></g></g></svg>