<svg width="240" height="210" viewBox="0 0 240 210" fill="none" xmlns="http://www.w3.org/2000/svg">
<g clip-path="url(#clip0_929_52540)">
<path d="M-8.4763 100.43C-2.1863 91.8098 3.96369 85.7298 11.3937 80.9698C13.9909 79.1737 16.9686 78.0032 20.0937 77.5498C25.8737 76.8798 29.6137 80.1298 28.6737 85.6598C27.8337 90.5798 27.2837 95.6598 25.1837 100.21C21.4077 108.526 15.7403 115.843 8.6337 121.58C5.66748 123.942 2.18696 125.572 -1.52631 126.34C-6.52631 127.43 -10.2763 124.89 -13.6163 121.56C-16.9563 118.23 -16.2863 114.61 -14.9063 110.93C-13.1863 106.39 -10.0863 102.74 -8.4763 100.43Z" fill="#E0E7F4"/>
<path d="M158.708 54.01C160.807 51.0791 163.752 48.86 167.148 47.65C170.148 46.48 173.508 47.07 177.398 50C181.288 52.93 182.668 56 182.348 59.21C181.86 63.6686 180.127 67.8998 177.348 71.42C174.758 74.86 171.238 77.62 167.828 80.42C165.729 81.9621 163.159 82.7257 160.558 82.58C155.018 82.51 150.708 78.82 150.448 73.85C150.358 72.2936 150.6 70.7359 151.158 69.28C153.078 64.34 154.908 59.36 158.708 54.01Z" fill="#E0E7F4"/>
<path d="M101.216 117.74C97.9965 120.64 95.0865 124.74 89.9565 126.74C85.8165 128.36 82.6465 127.58 78.2265 124.15C73.8065 120.72 72.2265 117.92 73.4765 113.7C75.9265 105.29 80.8465 98.7001 89.1365 94.8701C92.3365 93.3801 95.9865 93.0601 100.716 96.6601C104.946 99.8801 106.226 102.48 105.586 107.2C105.017 111.019 103.516 114.639 101.216 117.74Z" fill="#E0E7F4"/>
<path d="M165.84 148.61C162.53 153.52 158.65 157.8 152.84 160.33C147.95 162.45 143.6 162.07 140.84 159.22C136.72 154.99 137.97 151.74 139.23 148.93C141.309 144.168 144.33 139.876 148.11 136.311C151.891 132.747 156.354 129.984 161.23 128.19C162.607 127.523 164.154 127.289 165.666 127.519C167.178 127.75 168.585 128.433 169.7 129.48C172.7 131.97 172.31 134.34 172.09 136.6C171.58 141.67 168.68 145.19 165.84 148.61Z" fill="#E0E7F4"/>
<path d="M97.5417 39.3702C92.7217 46.7502 85.5417 52.0202 77.2917 56.2102C75.0617 57.3302 72.5217 59.4402 68.7017 56.1102C65.6417 53.4402 66.7017 50.7202 67.4617 48.5202C72.0217 35.4302 82.4618 27.4202 95.6418 21.7802C96.604 21.2556 97.7004 21.0287 98.7919 21.1284C99.8833 21.2281 100.92 21.6499 101.772 22.3402C104.772 24.5802 103.872 26.6101 103.662 28.6001C103.172 33.2401 99.7317 35.8902 97.5417 39.3702Z" fill="#E0E7F4"/>
<path d="M167.75 21.1798C164.908 25.468 160.76 28.7258 155.92 30.4698C153.56 31.2998 150.92 32.4198 147.56 29.7298C144.2 27.0398 144.66 24.2598 145.38 22.0398C148.46 12.4998 154.92 5.6298 163.9 0.789803C164.109 0.697507 164.327 0.627139 164.55 0.579812C166.6 -0.000187993 168.76 -0.710195 171.48 1.5098C173.82 3.4198 173.66 5.50983 173.48 7.24983C173.016 12.3641 171.019 17.2191 167.75 21.1798Z" fill="#E0E7F4"/>
<path d="M70.5915 194.64C66.4615 198.44 62.3715 202.28 58.1815 206.02C57.193 206.875 56.0487 207.53 54.8115 207.95C52.7315 208.7 50.5415 210.2 47.4615 207.39C44.7015 204.89 45.2215 202.39 46.0615 200.46C47.5515 197.01 48.8915 193.36 51.2815 190.57C55.0857 186.091 59.5786 182.247 64.5915 179.18C65.9145 178.331 67.3769 177.722 68.9115 177.38C72.4815 176.67 75.1115 178.67 75.1015 182.15C75.0106 186.696 73.4257 191.085 70.5915 194.64Z" fill="#E0E7F4"/>
<path d="M233.747 29.4901C231.027 33.2001 228.437 36.4201 224.097 38.0401C222.397 38.6701 220.497 39.3501 218.007 37.6701C217.044 37.1046 216.276 36.259 215.807 35.2459C215.337 34.2328 215.187 33.1005 215.377 32.0001C216.707 22.1301 222.197 15.3901 231.437 11.5901C232.344 11.218 233.334 11.1014 234.302 11.2531C235.27 11.4047 236.178 11.8187 236.927 12.4501C239.437 14.3501 239.357 16.3201 239.137 18.1101C238.559 22.369 236.676 26.3444 233.747 29.4901Z" fill="#E0E7F4"/>
<path d="M21.7269 178.62C18.9469 182.62 16.1269 185.91 11.4869 187.52C9.9569 188.05 8.2169 188.57 6.1069 187.15C3.5469 185.42 3.1069 183.15 3.5169 181.51C5.6469 172.94 10.1869 166.18 18.6369 162.51C19.6199 161.992 20.7421 161.799 21.8419 161.958C22.9416 162.118 23.9623 162.623 24.7569 163.4C26.7569 165.11 26.6669 166.85 26.5369 168.4C26.1453 172.256 24.4482 175.861 21.7269 178.62Z" fill="#E0E7F4"/>
<path d="M198.931 100.31C201.221 97.4098 203.211 94.2398 207.181 92.8398C208.681 92.3098 210.381 91.7898 212.521 93.6498C213.128 94.15 213.574 94.818 213.803 95.5703C214.033 96.3227 214.035 97.126 213.811 97.8798C212.571 105.26 208.501 110.57 202.101 114.11C201.176 114.709 200.071 114.967 198.977 114.841C197.882 114.715 196.866 114.213 196.101 113.42C195.38 112.828 194.842 112.044 194.549 111.16C194.255 110.275 194.217 109.325 194.441 108.42C194.901 105.02 197.311 102.93 198.931 100.31Z" fill="#E0E7F4"/>
</g>
<defs>
<clipPath id="clip0_929_52540">
<rect width="255.24" height="209.03" fill="white" transform="translate(-16)"/>
</clipPath>
</defs>
</svg>
