<svg width="249" height="278" viewBox="0 0 249 278" fill="none" xmlns="http://www.w3.org/2000/svg">
<g clip-path="url(#clip0_936_29476)">
<path d="M-37.42 116.068C-29.162 100.448 -19.737 85.5315 -6.7979 74.2282C17.4643 53.0129 51.1922 41.2486 79.727 41.0325C112.509 40.7796 138.748 62.6367 161.096 85.1198C181.05 105.194 196.98 130.524 198.172 163.259C199.544 200.658 184.492 238.381 169.836 273.15C168.896 275.38 165.967 274.198 166.916 271.958C179.127 243.085 191.239 212.89 194.332 181.807C197.775 147.342 186.345 118.921 166.679 96.441C146.904 73.8956 120.787 49.7523 91.0974 45.5172C63.1294 41.535 29.6342 52.0936 3.97272 70.0429C-12.7387 81.7319 -24.5183 98.4126 -34.502 117.256C-44.5857 136.302 -53.8684 155.862 -62.9015 175.463C-63.9119 177.651 -66.8424 176.477 -65.8275 174.273C-56.7689 154.658 -47.4929 135.121 -37.42 116.068Z" fill="#FDF3F1"/>
<path d="M-1.01229 89.3657C18.0327 64.6878 42.4621 53.8138 69.2041 53.4445C122.589 52.7547 174.919 88.8692 180.018 151.814C183.016 188.817 168.97 229.472 156.506 265.073C154.504 270.795 147.203 267.803 149.203 262.102C159.687 232.191 170.704 199.703 172.145 168.361C173.39 141.224 164.747 116.321 149.409 97.8822C117.784 59.7971 46.4616 43.4942 6.97785 92.1463C-15.2279 119.52 -28.8291 155.544 -42.2149 188.327C-44.5092 193.932 -51.8144 190.969 -49.5157 185.348C-36.1557 152.626 -22.5132 117.261 -1.01229 89.3657Z" fill="#FDF3F1"/>
<path d="M66.5026 71.5957C90.4138 69.6226 115.016 81.7063 133.909 94.8379C153.78 108.645 161.551 130.821 161.732 158.11C161.949 192.787 153.865 228.231 139.251 260.726C137.265 265.13 131.414 262.776 133.407 258.349C148.217 225.477 156.516 188.964 155.128 153.933C154.449 136.689 150.5 120.539 139.591 109.257C129.596 98.9197 116.33 92.7026 103.649 87.0798C90.063 81.0887 75.3542 76.6804 59.8087 79.8279C46.2747 82.5654 33.4146 90.2772 22.2674 100.325C-4.07917 124.062 -18.7808 159.191 -32.6587 192.263C-34.5373 196.727 -40.3807 194.363 -38.5056 189.88C-17.7271 140.371 12.6425 76.0386 66.5026 71.5957Z" fill="#FDF3F1"/>
<path d="M27.2833 109.738C50.4903 92.6467 76.9718 93.8393 100.469 100.882C111.674 104.224 122.827 109.237 130.833 118.463C139.722 128.697 142.297 143.056 143.287 157.708C145.421 189.409 139.085 222.385 125.731 252.506C123.78 256.937 117.921 254.568 119.889 250.121C131.839 223.177 138.066 193.955 137.119 165.378C136.645 151.113 135.312 135.692 127.06 125.228C119.645 115.82 108.493 111.106 97.6403 107.869C74.5952 100.967 48.4642 100.246 26.4704 118.804C3.9674 137.786 -8.27354 167.023 -19.7225 194.529C-21.5874 199.005 -27.4337 196.636 -25.5665 192.151C-12.9229 161.774 1.15856 128.982 27.2833 109.738Z" fill="#FDF3F1"/>
<path d="M32.446 130.546C50.9469 119.827 74.3561 121.321 92.5752 125.65C111.939 130.262 127.291 142.881 129.312 166.616C131.583 193.337 121.436 224.162 110.674 249.186C109.717 251.411 106.792 250.234 107.751 248.001C117.625 225.111 126.03 198.947 126.292 174.37C126.56 147.418 110.831 133.159 89.1312 128.698C72.1344 125.195 50.5477 123.764 33.5078 133.84C12.597 146.2 -0.854169 175.647 -9.37684 198.904C-10.2111 201.18 -13.1319 199.988 -12.3028 197.714C-3.45626 173.581 10.6351 143.169 32.446 130.546Z" fill="#FDF3F1"/>
<path d="M32.3793 141.795C49.8887 131.057 69.2711 133.9 85.6644 140.487C101.261 146.757 121.086 153.255 122.192 175.269C123.342 198.008 113.666 224.295 103.588 244.901C102.532 247.054 99.599 245.889 100.667 243.708C109.82 225.002 117.172 203.956 118.792 183.37C119.684 171.989 117.459 162.07 109.022 156.272C101.517 151.116 92.6156 147.349 84.2484 143.977C68.9906 137.812 50.972 134.867 34.5181 144.488C16.722 154.893 8.67781 179.124 -0.145064 197.873C-1.16627 200.054 -4.09671 198.88 -3.06311 196.685C5.98936 177.441 14.2746 152.901 32.3793 141.795Z" fill="#FDF3F1"/>
<path d="M38.4068 156.848C51.7608 145.607 65.9823 144.91 79.6442 150.953C92.9162 156.799 105.095 164.96 106.29 182.817C107.611 202.4 97.3698 221.26 92.056 240.071C91.4013 242.394 88.482 241.18 89.13 238.881C93.4924 223.461 101.222 208.351 102.865 192.421C105.046 171.193 93.6416 161.257 78.2254 154.438C64.2225 148.239 50.2605 149.746 37.276 162.304C25 174.185 18.2584 191.122 11.8393 207.097C10.9359 209.345 8.01285 208.161 8.92125 205.909C16.0784 188.105 23.8765 169.075 38.4068 156.848Z" fill="#FDF3F1"/>
<path d="M77.185 162.755C103.908 174.862 91.1876 215.944 80.8553 239.912C79.9038 242.135 76.9756 240.953 77.9344 238.72C87.4128 216.719 100.671 177.6 75.7719 166.25C51.4911 155.183 32.313 190.691 22.5405 211.7C21.5221 213.886 18.5917 212.712 19.6174 210.516C30.3067 187.544 51.1422 150.969 77.185 162.755Z" fill="#FDF3F1"/>
<path d="M68.4079 179.847C88.3355 186.588 81.0774 214.849 74.5625 233.062C73.7442 235.344 70.8283 234.148 71.6416 231.87C77.3477 215.919 84.9527 189.328 66.9919 183.337C51.1682 178.056 37.6143 195.201 32.6421 211.569C31.9375 213.887 29.0262 212.676 29.7241 210.382C35.3341 191.887 50.9938 173.952 68.4079 179.847Z" fill="#FDF3F1"/>
<path d="M66.0746 197.154C74.0064 202.359 74.2096 216.188 67.2779 224.352C67.1497 224.535 66.9847 224.69 66.7934 224.805C66.6021 224.921 66.3887 224.995 66.167 225.024C65.9452 225.052 65.7199 225.034 65.5055 224.97C65.2911 224.906 65.0922 224.798 64.9217 224.653C64.7511 224.508 64.6126 224.329 64.5151 224.128C64.4175 223.926 64.363 223.707 64.355 223.483C64.347 223.259 64.3858 223.036 64.4688 222.829C64.5518 222.621 64.6772 222.433 64.837 222.277C71.0623 214.948 70.3352 203.009 62.4855 199.776C53.9527 196.263 44.4432 203.491 39.5402 212.278C38.3694 214.383 35.9329 212.291 37.0992 210.203C43.0836 199.461 56.3463 190.776 66.0746 197.154Z" fill="#FDF3F1"/>
<path d="M58.6558 203.512C64.9836 206.087 66.0192 216.156 61.4856 222.372C60.0772 224.302 57.6239 222.24 59.0446 220.296C62.1603 216.029 61.7105 208.832 57.2399 207.003C52.7694 205.174 47.4183 209.856 46.6284 215.134C46.2759 217.509 43.0852 217.289 43.4377 214.914C44.5931 207.26 52.3202 200.935 58.6558 203.512Z" fill="#FDF3F1"/>
</g>
<path fill-rule="evenodd" clip-rule="evenodd" d="M151.116 194.051C164.138 219.889 185.12 249.988 169.541 274.457C153.72 299.307 117.09 292.33 87.611 293.796C58.2035 295.258 24.5163 304.058 4.43877 282.667C-15.9553 260.938 -12.1803 226.154 -2.27191 198.031C5.85367 174.968 27.6352 161.19 50.4309 152.126C69.4599 144.56 89.9043 146.019 108.774 153.877C127.704 161.759 141.915 175.791 151.116 194.051Z" fill="#E0E7F4"/>
<path fill-rule="evenodd" clip-rule="evenodd" d="M133.523 238.043C131.175 266.881 133.402 303.504 107.356 316.272C80.9048 329.239 53.2741 304.2 27.3487 290.092C1.48622 276.018 -31.8523 265.978 -37.8439 237.258C-43.9301 208.086 -22.5845 180.363 0.525399 161.521C19.4773 146.069 45.2472 145.658 69.4268 149.799C89.6111 153.255 106.301 165.153 118.313 181.691C130.364 198.281 135.182 217.663 133.523 238.043Z" fill="#FDF3F1"/>
<defs>
<clipPath id="clip0_936_29476">
<rect width="248" height="263" fill="white" transform="translate(-96.4062 121.24) rotate(-29.2117)"/>
</clipPath>
</defs>
</svg>
