<svg width="367" height="339" fill="none" xmlns="http://www.w3.org/2000/svg"><path fill-rule="evenodd" clip-rule="evenodd" d="M-15.796 363.37L6.7 402.333h44.99l22.495-38.963-22.495-38.962H6.7l-22.495 38.962zm146.408 0l22.495 38.963h44.99l22.495-38.963-22.495-38.962h-44.99l-22.495 38.962zm168.903 38.963L277.02 363.37l22.495-38.962h44.99L367 363.37l-22.495 38.963h-44.99zm-73.204-46.842l-22.495-38.963 22.495-38.962h44.99l22.495 38.962-22.495 38.963h-44.99zm-146.408 0l-22.495-38.963 22.495-38.962h44.99l22.495 38.962-22.495 38.963h-44.99zm-146.408-.001L-89 316.528l22.495-38.963h.026l-21.624-37.453 22.495-38.962h44.99L1.62 239.667l5.08-8.798h44.99l22.494 38.963-22.495 38.962H6.7l-22.237-38.517-5.08 8.798h-.025L.98 316.528l-22.495 38.962h-44.99zm197.117-85.658l22.495 38.962h44.99l22.495-38.962-22.495-38.963h-44.99l-22.495 38.963zm168.903 38.962l-22.495-38.963 22.495-38.962h44.99L367 269.831l-22.495 38.963h-44.99zm-73.204-46.842l-22.495-38.963 22.495-38.962h44.99l22.495 38.962-22.495 38.963h-44.99zm-146.408 0l-22.495-38.963 22.495-38.962h44.99l22.495 38.962-22.495 38.963h-44.99zM-15.796 85.805L6.7 124.767h44.99l22.495-38.962L51.69 46.842H6.7l-22.495 38.963zm146.408 0l22.495 38.962h44.99l22.495-38.962-22.495-38.963h-44.99l-22.495 38.963zm168.903 38.962L277.02 85.804l22.495-38.962h44.99L367 85.804l-22.495 38.963h-44.99zm-73.204-46.842l-22.495-38.962L226.311 0h44.99l22.495 38.963-22.495 38.962h-44.99zm-146.408 0L57.408 38.963 79.903 0h44.99l22.495 38.963-22.495 38.962h-44.99zm-146.408 0L-89 38.963-66.505 0h44.99L.98 38.962l-22.495 38.963h-44.99zM6.7 218.306l-22.495-38.962L6.7 140.381h44.99l22.495 38.963-22.495 38.962H6.7zm146.408 0l-22.495-38.962 22.495-38.963h44.99l22.495 38.963-22.495 38.962h-44.99zm123.913-38.963l22.495 38.963h44.99L367 179.343l-22.495-38.962h-44.99l-22.495 38.962zm-73.204-46.841l22.495 38.962h44.99l22.495-38.962-22.495-38.963h-44.99l-22.495 38.963zm-146.408 0l22.495 38.962h44.99l22.495-38.962-22.495-38.963h-44.99l-22.495 38.963zm-146.408 0l22.495 38.962h44.99L.98 132.502l-22.495-38.963h-44.99L-89 132.502z" fill="#fff" fill-opacity=".06"/></svg>