<svg width="154" height="153" viewBox="0 0 154 153" fill="none" xmlns="http://www.w3.org/2000/svg"><rect x="2" y="1" width="150.926" height="150" rx="75" fill="#fff"/><path d="M57.82 56.863V23.626c-.965.33-1.92.685-2.86 1.065v32.172h2.86Zm4.864 0v-34.66c-.962.234-1.915.49-2.858.772v33.888h2.858Zm4.864 0V21.24c-.961.144-1.914.31-2.859.502v35.121h2.859Zm4.865 0V20.737c-.96.058-1.912.141-2.858.248v35.877l2.858.001Zm4.865 0V20.657c-.476-.012-.95-.036-1.43-.036-.479 0-.952.024-1.428.036v36.206h2.858Zm-53.508.001v-.144c-.019.047-.034.097-.051.144h.05Zm9.727-.001V40.212a55.456 55.456 0 0 0-2.858 3.658v12.993h2.858Zm-4.865 0V46.862a55.328 55.328 0 0 0-2.859 5.16v4.842h2.859Zm19.458 0v-28.81a55.99 55.99 0 0 0-2.858 1.76v27.05h2.859Zm-4.865 0V31.207a55.473 55.473 0 0 0-2.858 2.206v23.45h2.858Zm-4.863 0V35.16a56.333 56.333 0 0 0-2.858 2.823v18.881h2.858Zm14.592 0V25.555c-.968.438-1.921.9-2.858 1.39v29.918h2.858Zm63.238 0V37.982a55.31 55.31 0 0 0-2.858-2.823v21.703l2.858.001Zm-4.863 0v-23.45a55.509 55.509 0 0 0-2.858-2.206v25.656h2.858Zm9.729 0V43.87a55.739 55.739 0 0 0-2.859-3.658v16.65l2.859.001Zm6.92.001c-.018-.047-.032-.097-.05-.144v.144h.05Zm-2.057-.001v-4.841a55.288 55.288 0 0 0-2.859-5.161v10.002h2.859Zm-34.051 0V22.975a54.54 54.54 0 0 0-2.858-.773v34.661h2.858Zm-9.729 0V20.985a55.841 55.841 0 0 0-2.858-.248v36.126h2.858Zm24.323 0v-27.05a55.324 55.324 0 0 0-2.859-1.76v28.81h2.859Zm-19.457 0v-35.12a55.883 55.883 0 0 0-2.859-.503v35.623h2.859Zm9.728 0v-32.17a55.074 55.074 0 0 0-2.858-1.067v33.238h2.858Zm4.866 0V26.946a55.762 55.762 0 0 0-2.859-1.39v31.307h2.859ZM59.826 95.592v33.889c.943.283 1.895.539 2.858.773V95.593h-2.858Zm34.051 0v33.238c.965-.33 1.919-.685 2.858-1.066V95.593h-2.858Zm4.865 0V126.9c.968-.438 1.921-.9 2.859-1.39V95.592h-2.859Zm-14.594 0v35.623a53.878 53.878 0 0 0 2.859-.502v-35.12h-2.859Zm4.864 0v34.661c.963-.234 1.915-.49 2.858-.773V95.591l-2.858.001Zm14.593 0v28.811a54.91 54.91 0 0 0 2.859-1.761v-27.05h-2.859Zm-24.322 0v36.127c.96-.058 1.912-.142 2.858-.248V95.592h-2.858Zm43.781 0v10.003a55.426 55.426 0 0 0 2.859-5.161v-4.842h-2.859Zm-14.593 0v25.657a55.574 55.574 0 0 0 2.858-2.207v-23.45h-2.858Zm19.457 0v.145c.017-.048.032-.097.05-.145h-.05Zm-9.729 0v16.652a55.598 55.598 0 0 0 2.859-3.658V95.592h-2.859Zm-4.865 0v21.704a56.367 56.367 0 0 0 2.858-2.823V95.591l-2.858.001Zm-38.916 0V131.8c.476.012.95.036 1.429.036.478 0 .952-.024 1.43-.036V95.592h-2.859Zm-29.186 0v27.05a54.932 54.932 0 0 0 2.859 1.761v-28.81h-2.859Zm-9.728 0v18.882c.922.972 1.87 1.919 2.858 2.823V95.593h-2.858Zm4.863 0v23.45a55.538 55.538 0 0 0 2.858 2.207V95.592h-2.858Zm-14.594 0v4.842a55.468 55.468 0 0 0 2.859 5.161V95.592h-2.859Zm4.866 0v12.994a55.82 55.82 0 0 0 2.858 3.658V95.592h-2.858Zm34.051 0v35.121c.944.193 1.897.358 2.858.502V95.592h-2.859Zm4.865 0v35.879c.946.106 1.899.19 2.858.248V95.592h-2.858Zm-45.836 0c.017.048.032.097.05.145v-.145h-.05Zm31.241 0v32.171c.94.382 1.895.736 2.86 1.066V95.591l-2.86.001Zm-4.864 0v29.918c.937.49 1.89.952 2.858 1.39V95.592h-2.858Z" fill="#fff"/><path d="m98.21 39.497-3.252 10.858H56.913l-3.251-10.858 12.02 3.003 10.254-11.087L86.19 42.5l12.02-3.003Zm-46.884-3.98a1.99 1.99 0 1 0 0 3.98 1.99 1.99 0 0 0 0-3.98Zm47.055 1.99a1.99 1.99 0 1 0 3.98 0 1.99 1.99 0 0 0-3.98 0ZM75.935 25.779a1.99 1.99 0 1 0 0 3.98 1.99 1.99 0 0 0 0-3.98Z" fill="#E6B43B"/><path d="m42.257 90.349-.12-22.476a3.33 3.33 0 0 1-.955.76 5.521 5.521 0 0 1-1.241.462 5.72 5.72 0 0 1-1.227.148l-.017-3.132a5.714 5.714 0 0 0 1.666-.544 5.805 5.805 0 0 0 1.552-1.156 5.63 5.63 0 0 0 1.14-1.768l3.273-.016.147 27.702-4.218.02Zm14.466.262c-1.51.007-2.73-.297-3.656-.911-.916-.615-1.587-1.504-2.013-2.667-.416-1.162-.628-2.562-.637-4.2l-.07-13.236c-.008-1.595.195-2.934.609-4.016.424-1.094 1.096-1.92 2.017-2.481.92-.56 2.12-.844 3.6-.851 1.48-.007 2.677.265 3.593.817.926.552 1.607 1.372 2.043 2.461.436 1.08.658 2.416.667 4.01l.07 13.238c.007 1.227-.103 2.325-.329 3.29-.225.967-.583 1.788-1.073 2.461a4.763 4.763 0 0 1-1.928 1.552c-.795.35-1.76.528-2.893.533Zm-.035-3.636a2.37 2.37 0 0 0 .834-.145c.25-.106.465-.302.642-.586.187-.284.327-.694.418-1.23.102-.545.151-1.26.146-2.14l-.071-13.49c-.006-1.028-.104-1.788-.296-2.28-.191-.503-.445-.832-.76-.988a2.257 2.257 0 0 0-1.025-.231 2.352 2.352 0 0 0-1.006.225c-.303.148-.553.47-.75.963-.186.494-.277 1.266-.271 2.315l.071 13.505c.005.892.05 1.61.138 2.155.097.535.235.944.415 1.226.18.283.396.47.649.564.252.093.54.139.866.137Zm15.932 3.561c-1.511.007-2.73-.297-3.657-.911-.916-.615-1.587-1.504-2.013-2.667-.415-1.162-.627-2.562-.636-4.2l-.07-13.236c-.008-1.595.195-2.934.609-4.017.424-1.093 1.096-1.92 2.017-2.48.92-.56 2.12-.844 3.6-.851 1.48-.007 2.677.265 3.593.817.926.552 1.607 1.372 2.043 2.461.436 1.08.658 2.416.667 4.01l.07 13.238c.006 1.227-.103 2.325-.329 3.29-.226.967-.583 1.788-1.073 2.461a4.763 4.763 0 0 1-1.928 1.552c-.795.35-1.76.528-2.893.533Zm-.035-3.636a2.36 2.36 0 0 0 .833-.145c.252-.106.466-.301.643-.586.187-.284.326-.694.418-1.23.102-.545.15-1.26.146-2.14l-.071-13.49c-.006-1.028-.104-1.788-.296-2.28-.191-.503-.445-.832-.76-.988a2.257 2.257 0 0 0-1.025-.231 2.352 2.352 0 0 0-1.006.225c-.303.148-.554.47-.75.963-.187.494-.277 1.266-.271 2.315l.071 13.505c.005.892.05 1.61.138 2.155.097.535.235.944.415 1.226.18.283.396.47.649.564.252.093.54.139.866.137Zm18.464 3.219 10.635-27.753 3.211-.015-10.493 27.752-3.353.016Zm-3.102-9.115c-1.238.006-2.252-.225-3.041-.694-.79-.479-1.37-1.21-1.743-2.195-.373-.985-.563-2.243-.571-3.775l-.03-5.635c-.008-1.553.158-2.813.5-3.78.351-.967.914-1.678 1.688-2.133.785-.454 1.817-.685 3.097-.69 1.29-.007 2.326.214 3.104.661.78.448 1.344 1.153 1.696 2.117.362.964.547 2.222.555 3.775l.03 5.635c.008 1.532-.169 2.792-.531 3.78s-.935 1.725-1.72 2.212c-.774.475-1.785.716-3.034.722Zm-.015-2.959c.682-.003 1.142-.22 1.381-.652.25-.442.372-1.124.367-2.048l-.04-7.743c-.006-.913-.125-1.569-.358-1.966-.233-.398-.706-.595-1.42-.592-.702.004-1.173.21-1.413.62-.228.4-.34 1.052-.335 1.954l.04 7.744c.005.923.13 1.605.373 2.044.254.43.723.642 1.405.64Zm20.102 12.324c-1.238.006-2.252-.225-3.042-.694-.789-.479-1.37-1.21-1.743-2.195-.372-.985-.563-2.243-.571-3.775l-.029-5.635c-.009-1.553.158-2.813.499-3.78.352-.967.914-1.678 1.688-2.133.785-.455 1.817-.685 3.098-.691 1.29-.006 2.325.215 3.104.662.789.448 1.36 1.153 1.711 2.117.362.964.547 2.222.555 3.775l.03 5.635c.008 1.531-.169 2.791-.531 3.78-.362.988-.935 1.725-1.72 2.211-.784.476-1.801.717-3.049.723Zm-.016-2.959c.682-.003 1.148-.22 1.397-.652.25-.442.372-1.124.367-2.048l-.041-7.744c-.005-.913-.129-1.568-.372-1.965-.233-.398-.706-.595-1.42-.592-.703.003-1.174.21-1.413.62-.229.4-.341 1.052-.336 1.954l.041 7.744c.005.923.129 1.605.373 2.044.254.43.722.642 1.404.639ZM47.568 111v-10.377h1.963l1.474 7.582 1.386-7.582h1.975V111h-1.41v-3.868l.06-3.549-1.398 7.37h-1.255l-1.457-7.37.06 3.549V111h-1.398Zm10.448.106c-.425 0-.78-.065-1.067-.194a1.662 1.662 0 0 1-.684-.572 2.64 2.64 0 0 1-.36-.914 6.47 6.47 0 0 1-.106-1.233v-3.307c0-.554.07-1.044.212-1.468.145-.429.381-.763.708-1.003.326-.243.758-.365 1.297-.365.409 0 .752.069 1.032.206.282.138.508.334.678.59.172.251.298.55.377.896.078.346.118.727.118 1.144v3.307c0 .453-.036.857-.106 1.215a2.472 2.472 0 0 1-.354.92c-.165.251-.39.444-.672.578-.283.133-.64.2-1.073.2Zm0-1.262c.177 0 .31-.053.4-.159a.941.941 0 0 0 .183-.454 4.1 4.1 0 0 0 .048-.666v-3.956c0-.268-.018-.498-.053-.69a.94.94 0 0 0-.19-.448c-.09-.106-.22-.159-.388-.159-.177 0-.313.053-.407.159a.941.941 0 0 0-.189.448 4.346 4.346 0 0 0-.047.69v3.956c0 .251.016.474.047.666a.984.984 0 0 0 .189.454c.094.106.23.159.407.159ZM61.642 111v-8.844h1.562v1.014a1.54 1.54 0 0 1 .495-.784c.252-.224.56-.336.926-.336.511 0 .894.171 1.15.513.255.338.383.829.383 1.474V111h-1.562v-6.869c0-.255-.06-.456-.177-.601a.565.565 0 0 0-.472-.218.646.646 0 0 0-.413.135.776.776 0 0 0-.247.366 1.602 1.602 0 0 0-.083.542V111h-1.562Zm8.077.106c-.444 0-.81-.071-1.096-.212a1.599 1.599 0 0 1-.667-.613 2.805 2.805 0 0 1-.33-.961 7.717 7.717 0 0 1-.094-1.262v-3.296c0-.413.041-.786.124-1.12a2.42 2.42 0 0 1 .395-.855c.18-.236.415-.417.701-.543.287-.129.633-.194 1.038-.194.413 0 .757.063 1.032.188.275.126.491.309.648.549.162.24.276.528.342.867.071.334.107.713.107 1.137v1.893h-2.813v1.739c0 .429.034.773.1 1.032.067.26.25.389.549.389.2 0 .342-.061.424-.182.087-.122.138-.289.153-.502.02-.216.03-.461.03-.737v-.778h1.545v.472a8.1 8.1 0 0 1-.089 1.267c-.055.37-.16.682-.318.938a1.48 1.48 0 0 1-.66.584c-.287.133-.66.2-1.12.2Zm-.619-5.336h1.262v-1.132a5.59 5.59 0 0 0-.041-.743c-.028-.204-.083-.357-.165-.46-.083-.102-.209-.153-.378-.153-.208 0-.361.061-.46.183a1.024 1.024 0 0 0-.182.501 6.419 6.419 0 0 0-.036.713v1.091Zm3.886 6.792v-1.079h.513c.173 0 .318-.015.436-.047.118-.027.185-.09.2-.188.028-.051.038-.142.03-.272a5.21 5.21 0 0 0-.035-.377l-1.415-8.443H74.2l.566 4.522.236 2.382h.13l.212-2.382.519-4.522h1.48l-1.533 9.221a2.65 2.65 0 0 1-.183.678.734.734 0 0 1-.342.384c-.153.082-.365.123-.637.123h-1.662Zm10.3-1.474c-.263 0-.503-.07-.72-.212-.211-.145-.38-.379-.506-.701V111h-1.563v-10.465h1.563v2.258c.09-.232.243-.413.46-.543.216-.129.432-.196.648-.2.468-.008.83.102 1.085.33.256.224.433.537.53.937.103.401.154.861.154 1.38v3.744c0 .499-.05.949-.147 1.35-.099.401-.268.718-.507.95-.24.231-.572.347-.997.347Zm-.525-1.25c.272 0 .44-.129.507-.389.067-.263.1-.648.1-1.155v-3.62a5.36 5.36 0 0 0-.04-.708c-.024-.204-.077-.364-.16-.478-.082-.117-.214-.176-.395-.176a.66.66 0 0 0-.4.117c-.107.079-.186.217-.237.413-.05.197-.076.472-.076.826v3.643c0 .488.041.865.124 1.132.086.264.279.395.577.395Zm5.041 1.25c-.605 0-1.025-.22-1.261-.66-.232-.44-.352-1.024-.36-1.751v-.566c0-.472.067-.855.2-1.15a1.84 1.84 0 0 1 .584-.719 3.98 3.98 0 0 1 .902-.484c.35-.137.74-.285 1.168-.442v-.772c0-.299-.012-.537-.036-.714-.023-.18-.076-.312-.159-.395-.082-.082-.21-.123-.383-.123-.17 0-.299.043-.39.129-.086.083-.145.213-.176.389a3.853 3.853 0 0 0-.047.667v.395h-1.545v-.266c0-.404.033-.766.1-1.084.071-.319.189-.588.354-.808.165-.224.39-.393.672-.507.287-.118.647-.177 1.08-.177.38 0 .707.055.978.165.271.106.491.267.66.483.17.213.293.48.372.802.078.323.118.698.118 1.126V111h-1.575v-.879c-.047.17-.127.329-.241.478a1.31 1.31 0 0 1-.43.354c-.17.09-.364.135-.585.135Zm.543-1.202a.582.582 0 0 0 .472-.213.953.953 0 0 0 .218-.43v-3.042a6.423 6.423 0 0 0-.596.3c-.16.091-.29.191-.389.301a.99.99 0 0 0-.212.389c-.043.15-.065.332-.065.548v.991c0 .405.041.7.124.884.086.181.236.272.448.272Zm5.872 1.22c-.452 0-.825-.069-1.12-.206a1.662 1.662 0 0 1-.696-.608 2.665 2.665 0 0 1-.347-.961 7.373 7.373 0 0 1-.1-1.279v-2.865c0-.653.06-1.213.182-1.681.122-.468.346-.827.672-1.079.33-.251.806-.377 1.427-.377.381 0 .704.059.967.177s.476.289.637.513c.161.22.277.487.348.802.074.314.112.668.112 1.061v.973h-1.51v-1.026c0-.256-.011-.474-.035-.655-.024-.184-.077-.324-.16-.418-.082-.099-.213-.148-.394-.148-.177 0-.315.049-.413.148a.83.83 0 0 0-.206.43 3.6 3.6 0 0 0-.053.666v3.986c0 .267.015.495.047.684a.894.894 0 0 0 .188.436c.095.099.232.148.413.148.177 0 .309-.051.395-.154a.858.858 0 0 0 .177-.442 4.61 4.61 0 0 0 .041-.666v-1.05h1.51v.897c0 .404-.036.774-.106 1.108a2.37 2.37 0 0 1-.348.849 1.61 1.61 0 0 1-.643.548c-.267.126-.596.189-.985.189Zm3.414-.106v-10.465h1.563v5.642l1.509-4.021h1.586l-1.704 4.351 1.804 4.493h-1.592l-1.603-4.204V111H97.63Z" fill="#2D2922"/><path d="M2.854 84.527c.11.959.237 1.911.383 2.859h31.44l-1.722-2.859H2.854Zm-.414-4.864c.046.959.114 1.91.197 2.859h29.108l-1.721-2.859H2.439Zm.197-9.729c-.084.948-.152 1.9-.198 2.858h27.424l1.559-2.858H2.637Zm26.133 4.865H2.388c-.01.476-.034.95-.034 1.43 0 .479.025.952.034 1.429h26.428l-.843-1.401.795-1.458ZM3.237 65.07c-.146.947-.272 1.9-.383 2.858h29.665l1.56-2.858H3.236Zm145.606 19.457c-.11.959-.237 1.911-.384 2.859H117.02l1.721-2.859h30.102Zm.413-4.864c-.047.959-.115 1.91-.198 2.859h-29.109l1.721-2.859h27.586Zm-.198-9.729c.083.948.152 1.9.198 2.858h-27.423l-1.56-2.858h28.785Zm-26.133 4.865h26.381c.009.476.033.95.033 1.43 0 .479-.024.952-.033 1.429h-26.429l.843-1.401-.795-1.458Zm25.534-9.729c.146.947.273 1.9.383 2.858h-29.666l-1.559-2.858h30.842Z" fill="#E6B43B"/><path d="M147.672 91.802h-32.696l-2.415 3.791h34.183c.341-1.252.653-2.515.928-3.79Zm-35.111-34.939 1.993 3.79h33.118a73.245 73.245 0 0 0-.928-3.79h-34.183ZM4.025 60.653H36.72l2.416-3.79H4.952a73.917 73.917 0 0 0-.927 3.79Zm33.117 31.149H4.025c.276 1.277.587 2.54.928 3.79h34.183l-1.994-3.79Z" fill="#2D2922"/><path d="M129.421 128.579c29.039-29.038 29.09-76.068.115-105.044C100.56-5.44 53.53-5.389 24.492 23.65c-29.04 29.039-29.09 76.069-.115 105.044 28.975 28.976 76.005 28.924 105.044-.115Z" stroke="#2D2922" stroke-width="3.596" stroke-miterlimit="10" stroke-linecap="round" stroke-linejoin="round"/><path d="m133.057 44.704-1.599-3.4-1.541 3.4-3.431.436 2.442 2.472-.523 3.401 3.053-1.569 3.081 1.57-.523-3.402 2.501-2.472-3.46-.436Zm0 61.29-1.599-3.402-1.541 3.402-3.431.436 2.442 2.471-.523 3.402 3.053-1.57 3.081 1.57-.523-3.402 2.501-2.471-3.46-.436Zm-11.119-77.22-1.6-3.402-1.54 3.402-3.431.436 2.442 2.471-.523 3.402 3.052-1.57 3.083 1.57-.524-3.402 2.501-2.471-3.46-.436Zm0 92-1.6-3.401-1.54 3.401-3.431.437 2.442 2.471-.523 3.402 3.052-1.571 3.083 1.571-.524-3.402 2.501-2.471-3.46-.437Z" fill="#E6B43B"/><path d="M24.176 57.72c7.593-21.198 27.862-36.364 51.673-36.364 23.489 0 43.53 14.758 51.357 35.507" stroke="#2D2922" stroke-width="4.012" stroke-miterlimit="10" stroke-linecap="round" stroke-linejoin="round"/><path d="m18.64 44.704 1.599-3.4 1.54 3.4 3.431.436-2.441 2.472.523 3.401-3.053-1.569-3.082 1.57.524-3.402-2.501-2.472 3.46-.436Zm0 61.29 1.599-3.402 1.54 3.402 3.431.436-2.441 2.471.523 3.402-3.053-1.57-3.082 1.57.524-3.402-2.501-2.471 3.46-.436Zm11.119-77.22 1.6-3.402 1.54 3.402 3.43.436-2.441 2.471.523 3.402-3.053-1.57-3.082 1.57.523-3.402-2.5-2.471 3.46-.436Zm0 92 1.6-3.401 1.54 3.401 3.43.437-2.441 2.471.523 3.402-3.053-1.571-3.082 1.571.523-3.402-2.5-2.471 3.46-.437Z" fill="#E6B43B"/><path d="M127.497 94.8c-7.611 21.165-27.863 36.299-51.65 36.299-24.05 0-44.486-15.472-51.898-37.005" stroke="#2D2922" stroke-width="3.596" stroke-miterlimit="10" stroke-linecap="round" stroke-linejoin="round"/></svg>