<svg width="370" height="316" viewBox="0 0 370 316" fill="none" xmlns="http://www.w3.org/2000/svg"><path d="m111.986 234.144 9.549 5.806h126.859l9.549-5.806H111.986Zm172.076-29.642h-198.2v5.806h198.2v-5.806ZM95.734 224.263l9.549 5.806h159.36l9.547-5.806H95.734Zm188.328-49.404h-198.2v5.806h198.2v-5.806Zm0-9.88h-198.2v5.806h198.2v-5.806Zm0 29.641h-198.2v5.806h198.2v-5.806Zm0-9.879h-198.2v5.806h198.2v-5.806ZM85.861 97.742v3.876h198.201v-3.876l-3.172-1.93H89.031l-3.17 1.93Zm0 116.641v3.878l3.17 1.928H280.89l3.172-1.928v-3.878h-198.2Zm107.08 59.284H176.98l7.981 4.852 7.98-4.852Zm-64.707-29.644 9.549 5.806h94.362l9.549-5.806h-113.46Zm32.496 19.764 9.549 5.806h29.365l9.546-5.806h-48.46Zm-16.25-9.882 9.549 5.806h61.864l9.548-5.806H144.48Zm-6.697-187.733-9.549 5.806h113.46l-9.549-5.806h-94.362Zm-16.248 9.88-9.549 5.805h145.957l-9.549-5.805H121.535Zm32.494-19.762-9.549 5.806h80.961l-9.548-5.806h-61.864Zm22.951-13.955h15.961l-7.98-4.852-7.981 4.852Zm107.082 112.763h-198.2v5.806h198.2v-5.806ZM170.279 46.409l-9.549 5.806h48.46l-9.546-5.806h-29.365Zm-64.996 39.524-9.549 5.806H274.19l-9.547-5.806h-159.36Zm178.779 59.283h-198.2v5.806h198.2v-5.806Zm0-9.879h-198.2v5.806h198.2v-5.806Zm0-9.882h-198.2v5.806h198.2v-5.806Zm0-19.761h-198.2v5.806h198.2v-5.806Zm0 9.882h-198.2v5.806h198.2v-5.806Z" fill="#fff"/><path d="M193.477 81.696 184.73 62.1l-8.428 19.597-18.767 2.513 13.359 14.239-2.862 19.596L184.73 109l16.858 9.045-2.863-19.596 13.679-14.24-18.927-2.512ZM139.585 98.5l-4.947-11.082-4.767 11.083-10.613 1.422 7.555 8.051-1.619 11.082 9.444-5.114 9.533 5.114-1.618-11.082 7.734-8.051-10.702-1.422Zm100.389 0-4.947-11.083-4.768 11.084-10.613 1.421 7.556 8.052-1.62 11.081 9.445-5.114 9.532 5.114-1.617-11.081 7.734-8.052-10.702-1.421Zm-46.497 119.054-8.747-19.596-8.428 19.596-18.767 2.515 13.359 14.237-2.862 19.597 16.698-9.044 16.858 9.044-2.863-19.597 13.679-14.237-18.927-2.515Zm-53.892-8.512-4.947-11.084-4.767 11.084-10.613 1.422 7.555 8.051-1.619 11.082 9.444-5.114 9.533 5.114-1.618-11.082 7.734-8.051-10.702-1.422Zm100.389 0-4.947-11.084-4.768 11.084-10.613 1.422 7.556 8.051-1.62 11.082 9.445-5.114 9.532 5.114-1.617-11.082 7.734-8.051-10.702-1.422Z" fill="#E6B43B"/><path d="M85.863 97.743V218.26l99.1 60.258 99.101-60.258V97.743l-99.101-60.26-99.1 60.26Z" stroke="#2D2922" stroke-width="3.36" stroke-miterlimit="10" stroke-linecap="round" stroke-linejoin="round"/><path d="M184.963 4 58.332 81v154l126.631 77 126.631-77V81L184.963 4Z" stroke="#E6B43B" stroke-width="6.719" stroke-miterlimit="10" stroke-linecap="round" stroke-linejoin="round"/><path d="M103.328 81.214 97.179 69.89l2.534-1.526c.439-.265.84-.415 1.203-.452a1.72 1.72 0 0 1 1.022.196c.314.17.615.432.903.788.285.352.569.788.851 1.307l.129.238c.396.73.671 1.39.825 1.98.156.583.147 1.103-.026 1.56-.174.458-.549.86-1.126 1.208l-.909.548 2.424 4.466-1.681 1.012Zm-1.516-6.9.577-.348c.247-.148.396-.323.448-.525.051-.202.015-.462-.108-.78a10.131 10.131 0 0 0-.587-1.236l-.119-.218c-.337-.611-.641-1.043-.911-1.296-.273-.257-.587-.278-.943-.064l-.59.355 2.233 4.112Zm7.438 3.334-6.15-11.325 2.779-1.674c.577-.347 1.071-.491 1.481-.43.41.06.78.287 1.11.68.335.39.676.908 1.026 1.551.361.665.578 1.229.651 1.691.076.456-.054.87-.39 1.243a.995.995 0 0 1 .616-.046c.197.046.401.168.614.364.21.193.435.47.676.831.242.355.513.807.811 1.356l.195.36.381.702.446.79c.149.264.278.488.389.671.111.184.182.29.213.316l-1.681 1.013c-.024-.014-.094-.117-.209-.31l-.435-.754-.554-.99-.57-1.049-.499-.92c-.184-.34-.348-.58-.491-.72-.142-.149-.296-.218-.463-.209-.163.007-.367.076-.612.207l-.557.292 2.904 5.348-1.681 1.012Zm-1.943-7.702.671-.404c.205-.124.334-.264.387-.421.058-.16.037-.378-.063-.654-.096-.278-.273-.655-.531-1.132l-.039-.07a6.215 6.215 0 0 0-.556-.886c-.154-.192-.314-.293-.479-.3-.162-.012-.368.058-.619.21l-.571.343 1.8 3.314Zm8.165 3.955-6.149-11.326 3.701-2.229.807 1.487-2.02 1.216 1.789 3.295 1.919-1.156.79 1.454-1.92 1.156 1.957 3.604 2.095-1.262.807 1.487-3.776 2.274Zm5.018-3.022-6.149-11.326 2.089-1.258 6.061 7.331-3.019-9.163 2.101-1.266 6.149 11.326-1.499.903-2.292-4.221-2.04-3.912 2.88 8.939-1.336.805-5.916-7.111 2.166 3.836 2.292 4.221-1.487.896Zm8.932-5.38-6.149-11.325 1.681-1.013 6.149 11.326-1.681 1.012Zm5.803-3.324c-.573.345-1.098.517-1.577.514-.481-.006-.926-.182-1.335-.527-.412-.35-.804-.868-1.177-1.555l-4.57-8.417 1.681-1.012 4.553 8.385c.172.317.336.589.491.814.16.222.328.369.505.439s.384.033.623-.11c.238-.144.375-.312.409-.503.037-.199.002-.426-.103-.681a9.039 9.039 0 0 0-.42-.866l-4.552-8.385 1.681-1.012 4.57 8.417c.372.686.597 1.305.675 1.856.079.545-.001 1.037-.24 1.476-.236.433-.641.822-1.214 1.167Zm3.932-2.539-6.149-11.325 2.089-1.258 6.061 7.33-3.019-9.162 2.101-1.266 6.149 11.326-1.499.903-2.292-4.222-2.04-3.911 2.881 8.939-1.337.804-5.916-7.11 2.166 3.836 2.292 4.221-1.487.895Zm85.04-1.738-.614-2.854 1.387.07.46 2.56-1.233.224Zm-.356-2.565c-.568-.353-.963-.765-1.186-1.236-.218-.469-.276-.999-.173-1.59.102-.59.353-1.244.754-1.96l2.883-5.14c.362-.648.756-1.15 1.179-1.507.424-.357.885-.546 1.384-.57.499-.022 1.041.149 1.626.512.439.273.771.574.994.903.224.329.354.685.39 1.07a3.1 3.1 0 0 1-.14 1.221 6.583 6.583 0 0 1-.596 1.378l-2.882 5.142c-.401.715-.821 1.264-1.258 1.646-.434.385-.897.591-1.387.62-.491.027-1.02-.136-1.588-.489Zm.83-1.481c.208.128.399.161.574.098.175-.063.352-.215.531-.454.185-.24.39-.561.615-.961l2.935-5.238c.275-.49.441-.894.497-1.215.064-.322-.052-.575-.346-.758-.303-.188-.581-.186-.834.007-.251.188-.517.533-.799 1.036l-2.94 5.244a9.27 9.27 0 0 0-.515 1.04c-.109.283-.144.52-.105.71.043.193.172.357.387.49Zm5.425 5.37c-.568-.352-.969-.748-1.204-1.187-.232-.443-.307-.938-.225-1.484.085-.55.318-1.166.7-1.847l4.683-8.354 1.667 1.036-4.666 8.322c-.176.316-.319.6-.428.854-.104.257-.142.483-.112.68.029.196.162.367.399.514.236.147.442.19.617.126.182-.065.352-.21.51-.432a8.96 8.96 0 0 0 .507-.814l4.665-8.322 1.666 1.036-4.683 8.355c-.382.68-.781 1.194-1.197 1.538-.41.342-.856.513-1.336.512-.474-.001-.995-.179-1.563-.532Zm3.392 1.938 7.862-10.27 2.201 1.368-4.641 12.273-1.555-.966.864-2.168-1.766-1.098-1.361 1.858-1.604-.997Zm3.896-2.134 1.43.89 2.432-6.103-.025-.015-3.837 5.228Zm2.521 6.124 6.301-11.241 1.667 1.036-5.485 9.785 2.107 1.31-.816 1.457-3.774-2.347Zm4.713 2.93 6.301-11.24 1.667 1.036-6.302 11.241-1.666-1.036Zm3.917 2.437 5.471-9.76-1.281-.796.831-1.482 4.172 2.595-.831 1.481-1.231-.765-5.471 9.759-1.66-1.032Zm4.95 3.077 2.517-4.49 1.95-7.891 1.592.99-1.274 4.875.025.015 3.319-3.603 1.586.986-5.532 5.665-2.517 4.49-1.666-1.037ZM96.921 252.593l6.332-11.224 2.508 1.569c.435.272.756.566.965.88.213.318.327.662.341 1.033.014.372-.055.777-.207 1.217-.151.435-.371.91-.661 1.424l-.133.236c-.408.723-.818 1.3-1.23 1.733-.405.431-.84.68-1.303.746-.463.067-.98-.078-1.551-.435l-.9-.564-2.497 4.426-1.664-1.041Zm4.956-4.794.571.357c.244.153.462.203.654.151.192-.053.389-.214.592-.484.209-.272.453-.654.731-1.147l.123-.217c.339-.611.546-1.102.622-1.475.078-.377-.059-.675-.411-.895l-.583-.365-2.299 4.075Zm.904 8.461 6.332-11.224 2.75 1.721c.571.357.932.738 1.084 1.144.152.406.147.857-.016 1.353-.158.499-.418 1.068-.777 1.706-.372.659-.731 1.136-1.077 1.431-.339.294-.745.379-1.219.256a1.1 1.1 0 0 1 .341.541c.059.204.059.451.001.743a4.74 4.74 0 0 1-.354 1.029c-.174.398-.414.869-.721 1.413l-.201.357-.393.695-.433.799c-.145.266-.266.495-.363.687-.097.193-.149.31-.156.351l-1.664-1.041c0-.029.051-.143.153-.344l.409-.771.546-.996.586-1.04.515-.912c.189-.335.307-.604.353-.805.053-.203.034-.378-.055-.527-.086-.145-.243-.298-.472-.459l-.516-.366-2.99 5.3-1.663-1.041Zm5.408-5.581.664.415c.203.127.382.176.538.147.161-.026.33-.153.509-.38.183-.225.407-.574.674-1.045l.039-.071c.223-.395.376-.711.459-.947.082-.235.087-.431.012-.587-.07-.153-.229-.308-.478-.463l-.565-.354-1.852 3.285Zm.749 9.434 6.332-11.224 3.662 2.292-.831 1.473-1.998-1.251-1.842 3.265 1.899 1.189-.813 1.441-1.899-1.188-2.015 3.571 2.073 1.297-.831 1.473-3.737-2.338Zm4.966 3.107 6.332-11.224 2.067 1.294-3.075 9.172 6.085-7.288 2.08 1.301-6.332 11.224-1.484-.928 2.36-4.184 2.228-3.8-5.968 7.051-1.322-.828 2.964-8.931-2.104 3.878-2.36 4.184-1.471-.921Zm8.839 5.531 6.332-11.224 1.663 1.041-6.332 11.224-1.663-1.041Zm5.601 3.678c-.567-.355-.967-.752-1.201-1.191-.231-.444-.304-.939-.221-1.485.087-.55.322-1.165.706-1.845l4.705-8.341 1.664 1.041-4.688 8.309a9.11 9.11 0 0 0-.43.853c-.106.256-.144.482-.115.679.029.196.162.368.398.516.236.147.441.19.617.127.181-.064.352-.208.511-.431.159-.222.329-.493.509-.812l4.688-8.309 1.663 1.041-4.706 8.341c-.384.68-.784 1.192-1.201 1.535-.411.341-.857.511-1.338.509-.474-.003-.994-.182-1.561-.537Zm4.032 2.351 6.332-11.224 2.067 1.293-3.075 9.172 6.085-7.288 2.08 1.301-6.332 11.224-1.484-.928 2.36-4.184 2.228-3.8-5.968 7.051-1.322-.827 2.964-8.931-2.104 3.878-2.36 4.183-1.471-.92Zm100.098 3.662-2.654-.864.751-1.23 2.336.857-.433 1.237Zm-2.288-.954c-.574.342-1.111.497-1.61.464-.495-.035-.96-.246-1.395-.634-.435-.388-.846-.944-1.234-1.666l-2.786-5.195c-.351-.654-.567-1.263-.648-1.827-.082-.565-.007-1.08.224-1.547.231-.467.643-.876 1.234-1.228.445-.264.859-.417 1.241-.457.382-.04.741.019 1.075.177.332.155.643.401.935.738.293.33.572.741.835 1.231l2.786 5.195c.388.722.629 1.379.724 1.969.1.588.038 1.113-.184 1.574-.223.462-.622.864-1.197 1.206Zm-.803-1.497c.21-.125.333-.283.368-.475.036-.191 0-.428-.107-.71a8.182 8.182 0 0 0-.483-1.041l-2.839-5.291c-.265-.495-.515-.848-.751-1.06-.233-.218-.499-.239-.797-.062-.306.182-.443.437-.411.764.029.323.18.739.452 1.246l2.842 5.298c.221.413.42.743.597.99.178.24.356.39.532.449.18.058.379.021.597-.108Zm7.134-2.27c-.575.342-1.102.511-1.58.506-.481-.009-.925-.187-1.333-.535-.41-.352-.8-.872-1.169-1.56l-4.527-8.44 1.686-1.004 4.51 8.408c.171.318.334.591.488.817.159.223.326.37.503.441.176.071.384.035.623-.107.239-.142.376-.309.412-.501.038-.198.004-.425-.1-.681a9.09 9.09 0 0 0-.415-.867l-4.51-8.408 1.686-1.004 4.527 8.44c.37.689.591 1.309.666 1.86.076.545-.006 1.036-.247 1.475-.239.431-.645.818-1.22 1.16Zm3.291-2.128-4.512-12.297 2.227-1.326 7.772 10.358-1.573.936-1.351-1.869-1.787 1.063.847 2.169-1.623.966Zm.195-4.62 1.448-.861-3.803-5.262-.025.015 2.38 6.108Zm6.299.755-6.092-11.356 1.687-1.004 5.302 9.886 2.134-1.269.789 1.471-3.82 2.272Zm4.77-2.838-6.092-11.356 1.687-1.004 6.092 11.357-1.687 1.003Zm3.965-2.359-5.289-9.859-1.297.771-.803-1.497 4.223-2.512.803 1.497-1.246.741 5.289 9.86-1.68.999Zm5.009-2.98-2.434-4.536-5.515-5.716 1.611-.959 3.373 3.595.025-.015-1.302-4.827 1.604-.954 1.891 7.872 2.433 4.537-1.686 1.003Z" fill="#2D2922"/><path d="M297.565 118.668V89.533l-13.499-8.208M83.855 82.548l-11.49 6.985v29.135m211.701 117.116 13.499-9.315v-28.104m-225.2 0v28.104l11.49 7.5M200.724 30.637l-15.744-9.571-15.753 9.579m0 254.72 15.743 9.571 15.754-9.579" stroke="#2D2922" stroke-width="3.36" stroke-miterlimit="10" stroke-linecap="round" stroke-linejoin="round"/><path d="M30.556 128.871h308.811v58.26H30.556v-58.26Zm20.415 63.733H31.89l19.082 10.297-.001-10.297ZM0 148.314l11.714 29.129L0 206.572h44.956L25.29 194.28v-45.966H0Zm319.029 54.587 19.083-10.297h-19.083v10.297Zm25.681-54.587v45.966l-19.666 12.292H370l-11.715-29.129L370 148.314h-25.29Z" fill="#2D2922"/><path d="m54.37 180.047-.138-29.095c-.325.382-.737.71-1.239.985-.5.26-1.036.46-1.606.599a7.454 7.454 0 0 1-1.589.192l-.019-4.055a7.392 7.392 0 0 0 2.156-.704 7.534 7.534 0 0 0 2.01-1.498c.609-.628 1.1-1.391 1.477-2.29l4.238-.022.171 35.86-5.46.028Zm18.727.33c-1.956.01-3.533-.382-4.733-1.177-1.185-.795-2.053-1.946-2.604-3.45-.537-1.505-.81-3.317-.82-5.436l-.082-17.136c-.01-2.064.253-3.797.79-5.199.55-1.416 1.421-2.487 2.613-3.213s2.746-1.094 4.66-1.104c1.916-.01 3.466.342 4.651 1.055 1.2.714 2.08 1.776 2.644 3.185.564 1.396.85 3.127.86 5.192l.082 17.135c.008 1.589-.135 3.009-.428 4.26-.293 1.252-.756 2.314-1.39 3.186-.635.873-1.467 1.543-2.497 2.01-1.03.454-2.279.684-3.746.692Zm-.043-4.706a3.052 3.052 0 0 0 1.08-.189c.325-.138.602-.391.831-.759.243-.368.424-.898.542-1.592.133-.707.197-1.631.191-2.772l-.083-17.461c-.007-1.331-.134-2.315-.381-2.952-.248-.651-.576-1.077-.984-1.279a2.92 2.92 0 0 0-1.326-.299 3.06 3.06 0 0 0-1.303.292c-.393.193-.717.609-.972 1.248-.241.64-.359 1.639-.352 2.997l.083 17.482c.006 1.155.065 2.085.177 2.791.125.692.304 1.22.537 1.586.233.366.512.609.839.729.326.121.7.18 1.121.178Zm20.622 4.598c-1.956.011-3.534-.382-4.733-1.177-1.186-.795-2.054-1.945-2.604-3.45-.537-1.505-.81-3.317-.82-5.436l-.083-17.135c-.01-2.065.254-3.798.79-5.2.55-1.416 1.422-2.487 2.614-3.213 1.191-.726 2.745-1.094 4.66-1.104 1.915-.01 3.466.342 4.65 1.055 1.2.714 2.081 1.776 2.645 3.186.563 1.396.85 3.126.86 5.191l.082 17.135c.007 1.589-.136 3.009-.428 4.261-.293 1.251-.757 2.313-1.391 3.186-.634.872-1.467 1.542-2.497 2.009-1.03.454-2.278.685-3.745.692Zm-.043-4.706a3.053 3.053 0 0 0 1.079-.189c.325-.138.602-.39.831-.758.243-.368.424-.899.543-1.592.133-.708.196-1.632.19-2.773l-.083-17.461c-.006-1.331-.133-2.315-.38-2.952-.248-.651-.576-1.077-.985-1.279a2.92 2.92 0 0 0-1.326-.298 3.03 3.03 0 0 0-1.302.292c-.393.192-.717.608-.972 1.248-.242.639-.36 1.638-.353 2.997l.084 17.481c.005 1.155.064 2.085.176 2.791.126.692.305 1.221.537 1.586.233.366.513.609.84.729.326.121.7.18 1.12.178Zm23.899 4.154 13.786-35.933 4.156-.022-13.602 35.932-4.34.023Zm-4.009-11.797c-1.603.008-2.915-.29-3.936-.896-1.022-.62-1.774-1.567-2.255-2.841-.482-1.274-.727-2.903-.737-4.886l-.035-7.295c-.009-2.01.207-3.641.649-4.893.456-1.252 1.185-2.173 2.188-2.762 1.016-.59 2.352-.889 4.009-.897 1.671-.009 3.011.276 4.018.855 1.008.579 1.74 1.492 2.194 2.739.468 1.247.706 2.876.716 4.886l.035 7.295c.009 1.983-.221 3.614-.69 4.893-.469 1.28-1.212 2.234-2.228 2.864-1.002.617-2.311.929-3.928.938Zm-.018-3.831c.883-.004 1.479-.286 1.789-.844.323-.573.482-1.456.476-2.652l-.048-10.024c-.005-1.182-.159-2.03-.46-2.545-.301-.514-.914-.769-1.837-.764-.91.005-1.52.273-1.83.804-.297.518-.442 1.361-.436 2.529l.047 10.024c.006 1.196.167 2.078.482 2.647.328.555.934.83 1.817.825Zm26.014 15.94c-1.603.009-2.915-.29-3.937-.896-1.022-.619-1.773-1.566-2.255-2.841-.481-1.274-.727-2.903-.736-4.886l-.035-7.294c-.01-2.01.207-3.642.649-4.894.456-1.252 1.185-2.172 2.187-2.762 1.016-.589 2.353-.888 4.01-.897 1.671-.009 3.01.276 4.018.855 1.022.579 1.759 1.492 2.214 2.739.467 1.248.706 2.876.716 4.887l.035 7.294c.009 1.983-.221 3.614-.69 4.894-.47 1.279-1.212 2.234-2.228 2.864-1.016.616-2.332.929-3.948.937Zm-.018-3.83c.882-.005 1.486-.286 1.809-.845.323-.572.482-1.456.476-2.651l-.048-10.025c-.005-1.181-.165-2.03-.48-2.544-.302-.515-.914-.77-1.838-.765-.91.005-1.52.273-1.83.804-.296.518-.441 1.361-.436 2.529l.048 10.025c.006 1.195.166 2.077.481 2.646.329.555.935.83 1.818.826Zm26.505 3.631c-2.16.011-3.903-.829-5.228-2.52-1.326-1.705-1.998-4.472-2.016-8.303l-.075-15.586c-.007-1.603.135-3.037.428-4.302.306-1.265.777-2.333 1.411-3.206a6.113 6.113 0 0 1 2.517-2.01c1.03-.467 2.272-.705 3.725-.712 1.576-.009 2.861.222 3.854.693.994.456 1.758 1.131 2.292 2.025.548.88.926 1.965 1.136 3.254.21 1.29.319 2.749.327 4.379l.012 2.547-5.094.027-.018-3.749c-.007-1.617-.183-2.763-.525-3.441-.33-.677-.956-1.014-1.88-1.009-1.019.006-1.723.41-2.113 1.213-.39.79-.58 2.197-.571 4.221l.074 15.546c.011 2.255.182 3.87.513 4.847.344.962 1.046 1.441 2.105 1.435 1.032-.005 1.757-.505 2.173-1.498.43-1.008.639-2.68.628-5.016l-.023-4.829-2.751.015-.018-3.974 7.518-.039.093 19.58-2.445.013-.852-3.52c-.293 1.237-.927 2.198-1.901 2.882-.962.685-2.06 1.03-3.296 1.037Zm21.292-.071c-1.861.01-3.377-.329-4.549-1.016-1.171-.7-2.032-1.755-2.582-3.165-.55-1.423-.831-3.221-.841-5.395l-.127-26.65 5.46-.028.127 26.548a25.27 25.27 0 0 0 .135 2.648c.098.76.319 1.35.66 1.769.342.419.9.627 1.674.623.774-.004 1.33-.211 1.668-.62.351-.423.565-1.015.643-1.776.078-.761.115-1.651.11-2.67l-.127-26.548 5.46-.029.128 26.651c.01 2.173-.253 3.974-.789 5.403-.523 1.416-1.367 2.48-2.532 3.192-1.151.699-2.657 1.053-4.518 1.063Zm10.878-.465 4.943-35.886 7.212-.038 5.612 35.831-5.094.027-.886-6.393-5.787.03-.744 6.402-5.256.027Zm6.509-10.812 4.686-.025-2.49-17.999-.082.001-2.114 18.023Zm14.518 10.702-.172-35.859 9.026-.048c1.875-.01 3.276.35 4.203 1.079.927.728 1.537 1.798 1.829 3.209.305 1.411.463 3.136.473 5.173.01 2.106-.2 3.764-.629 4.975-.415 1.198-1.281 2.003-2.596 2.418.625.105 1.149.361 1.572.766.423.392.766.974 1.027 1.747.262.759.45 1.743.565 2.951.128 1.195.196 2.662.204 4.4l.005 1.141.011 2.221.053 2.526c.018.842.041 1.562.071 2.16.03.597.066.95.107 1.059l-5.46.028c-.041-.067-.077-.414-.107-1.038-.017-.639-.041-1.447-.073-2.425l-.056-3.157-.015-3.322-.014-2.913c-.005-1.073-.091-1.881-.256-2.423-.152-.557-.44-.942-.862-1.157-.408-.216-1-.341-1.774-.378l-1.753-.093.081 16.932-5.46.028Zm5.379-21.198 2.18-.011c.666-.004 1.168-.156 1.506-.456.352-.301.587-.853.705-1.655.132-.802.195-1.957.187-3.464l-.001-.224c-.006-1.264-.071-2.235-.197-2.913-.125-.679-.386-1.146-.781-1.402-.381-.256-.98-.382-1.795-.378l-1.854.01.05 10.493Zm12.713 21.103 4.943-35.886 7.213-.038 5.611 35.831-5.094.027-.886-6.393-5.786.03-.744 6.402-5.257.027Zm6.51-10.812 4.686-.025-2.49-17.998h-.082l-2.114 18.023Zm14.517 10.702-.171-35.859 4.279-.023 7.702 21.476-.434-9.778-.056-11.735 4.911-.026.171 35.859-3.871.021-7.91-22.229.35 9.412.062 12.856-5.033.026Zm23.676-.124-.149-31.132-4.197.022-.023-4.727 13.672-.072.022 4.727-4.034.021.149 31.133-5.44.028Zm12.55-.065-.171-35.86 12.021-.063.023 4.707-6.561.034.05 10.432 6.235-.033.022 4.605-6.235.033.054 11.41 6.806-.036.022 4.706-12.266.065Zm16.3-.086-.171-35.859 12.021-.063.023 4.706-6.561.035.05 10.432 6.235-.033.021 4.605-6.234.032.054 11.41 6.805-.035.023 4.706-12.266.064Z" fill="#E6B43B"/></svg>