<?xml version="1.0" standalone="no"?>
<!DOCTYPE svg PUBLIC "-//W3C//DTD SVG 1.1//EN" "http://www.w3.org/Graphics/SVG/1.1/DTD/svg11.dtd" >
<svg xmlns="http://www.w3.org/2000/svg">
<metadata>Generated by IcoMoon</metadata>
<defs>
<font id="icomoon" horiz-adv-x="1024">
<font-face units-per-em="1024" ascent="960" descent="-64" />
<missing-glyph horiz-adv-x="1024" />
<glyph unicode="&#x20;" horiz-adv-x="512" d="" />
<glyph unicode="&#xe900;" glyph-name="check" d="M838.25 719.083l-454.25-454.25-198.25 198.25c-3.86 3.86-9.193 6.247-15.083 6.247s-11.223-2.387-15.083-6.247v0c-3.86-3.86-6.247-9.193-6.247-15.083s2.387-11.223 6.247-15.083l213.333-213.333c3.861-3.859 9.193-6.246 15.083-6.246s11.223 2.387 15.083 6.246l469.333 469.333c3.86 3.86 6.247 9.193 6.247 15.083s-2.387 11.223-6.247 15.083v0c-3.86 3.86-9.193 6.247-15.083 6.247s-11.223-2.387-15.083-6.247v0z" />
<glyph unicode="&#xe901;" glyph-name="close" d="M752.917 719.083l-512-512c-3.86-3.86-6.247-9.193-6.247-15.083s2.387-11.223 6.247-15.083v0c3.86-3.86 9.193-6.247 15.083-6.247s11.223 2.387 15.083 6.247l512 512c3.86 3.86 6.247 9.193 6.247 15.083s-2.387 11.223-6.247 15.083v0c-3.86 3.86-9.193 6.247-15.083 6.247s-11.223-2.387-15.083-6.247v0zM256 725.333c-5.891-0.001-11.223-2.389-15.083-6.25v0c-3.86-3.86-6.247-9.193-6.247-15.083s2.387-11.223 6.247-15.083l512-512c3.86-3.86 9.193-6.247 15.083-6.247s11.223 2.387 15.083 6.247v0c3.86 3.86 6.247 9.193 6.247 15.083s-2.387 11.223-6.247 15.083l-512 512c-3.86 3.861-9.193 6.249-15.083 6.25v0z" />
<glyph unicode="&#xe902;" glyph-name="cookie" d="M836.24 554.198c-1.517 4.547-4.547 7.584-9.094 9.856-4.547 1.517-9.094 0.755-12.886-1.517-53.824-33.357-122.803-25.018-167.53 19.709-44.726 44.723-53.066 113.708-19.709 167.531 2.272 3.791 3.030 9.095 1.517 12.886-1.517 4.548-5.309 7.583-9.856 9.095-123.565 40.938-256.982 9.1-347.951-82.628-64.438-64.434-100.067-150.094-100.067-241.064 0-90.966 35.629-176.627 100.067-241.062 64.434-64.438 150.095-100.067 241.064-100.067 90.966 0 176.627 35.629 241.062 100.067 91.728 90.966 123.565 224.387 83.389 347.19l-0.006 0.003zM731.629 228.234c-58.374-58.374-136.451-90.966-219.84-90.966s-160.707 32.592-219.837 90.966c-58.372 59.126-90.972 136.451-90.972 219.837s32.594 160.707 90.966 219.837c59.129 59.129 137.967 90.966 219.081 90.966 26.534 0 53.062-3.791 79.597-10.613-29.565-62.919-16.678-137.967 33.357-187.999 50.032-50.035 125.075-62.918 187.997-33.357 28.81-106.883-1.51-219.837-80.352-298.675l0.003 0.003zM428.403 387.424c-41.696 0-75.808-34.109-75.808-75.805s34.112-75.805 75.808-75.805c41.693 0 75.805 34.109 75.805 75.805s-34.112 75.805-75.805 75.805zM428.403 266.138c-25.018 0-45.488 20.47-45.488 45.488s20.47 45.485 45.488 45.485c25.014 0 45.485-20.467 45.485-45.485 0-25.024-20.467-45.488-45.485-45.488zM428.403 660.33c-41.696 0-75.808-34.112-75.808-75.805 0-41.696 34.112-75.808 75.808-75.808 41.693 0 75.805 34.112 75.805 75.808 0 41.693-34.112 75.805-75.805 75.805zM428.403 539.037c-25.018 0-45.488 20.47-45.488 45.488s20.47 45.485 45.488 45.485c25.014 0 45.485-20.467 45.485-45.485s-20.467-45.488-45.485-45.488zM678.563 425.328c-29.565 0-53.062-23.498-53.062-53.062s23.498-53.062 53.062-53.062c29.565 0 53.062 23.498 53.062 53.062s-23.498 53.062-53.062 53.062zM678.563 349.523c-12.886 0-22.742 9.856-22.742 22.742s9.856 22.742 22.742 22.742c12.886 0 22.742-9.856 22.742-22.742s-9.856-22.742-22.742-22.742zM610.339 463.232h-3.030c-0.755 0-1.517 0.755-3.027 0.755-0.758 0-1.52 0.755-2.275 1.517-0.755 0.758-1.517 0.758-2.275 1.52-0.755 0.755-1.517 1.517-1.517 2.272-0.755 0.755-0.755 1.517-1.517 3.030 0 0.755-0.755 1.517-0.755 3.030v6.061c0 0.755 0.755 1.517 0.755 3.027 0.755 0.758 0.755 1.52 1.517 3.030 0.758 0.758 1.517 1.52 1.517 2.275 0.758 0.755 1.52 1.517 2.275 1.517 0.755 0.755 1.517 0.755 2.275 1.517 0.755 0.758 1.517 0.758 3.027 0.758 2.275 0.755 3.792 0.755 6.067 0 0.755 0 1.517-0.758 3.030-0.758 0.755 0 1.517-0.755 2.272-1.517 0.758-0.755 1.517-0.755 2.275-1.517 3.030-3.776 4.547-7.568 4.547-11.36 0-3.789-1.517-7.581-4.547-10.611-0.758-0.755-1.517-1.517-2.275-1.517-0.755-0.758-1.517-0.758-2.272-1.52-0.758-0.755-1.52-0.755-3.030-0.755-0.762-0.755-2.278-0.755-3.037-0.755zM552.726 405.619c3.034-3.034 4.55-6.819 4.55-10.611s-1.517-7.584-4.547-10.614c-3.034-3.034-6.826-4.547-10.618-4.547s-7.584 1.517-10.611 4.547c-3.030 3.030-4.55 6.822-4.55 10.614s1.52 7.581 4.55 10.611c5.309 6.067 15.92 6.067 21.226 0zM636.115 246.426c3.030-3.027 4.547-6.819 4.547-10.611 0-2.275 0-3.792-1.517-6.064-0.758-1.52-1.52-3.792-3.030-4.547-3.030-3.030-6.822-4.55-10.614-4.55-3.789 0-7.581 1.52-10.611 4.55-3.030 3.034-4.547 6.819-4.547 10.611s1.517 7.584 4.547 10.611c0.755 0.758 1.517 1.52 2.272 1.52 0.758 0.755 1.52 0.755 2.275 1.517 0.755 0 1.517 0.755 3.030 0.755h6.064c0.755 0 1.517-0.755 3.030-0.755 0.755-0.755 1.517-0.755 2.275-1.517 0.762 0 1.52-0.758 2.278-1.52zM287.406 458.685c3.035-3.030 4.553-6.822 4.553-10.614 0-3.789-1.518-7.581-4.548-10.611-3.035-3.030-6.827-4.547-10.618-4.547s-7.583 1.517-10.612 4.547c-3.030 3.030-4.548 6.822-4.548 10.611 0 3.792 1.517 7.584 4.548 10.614 5.309 6.064 15.922 6.064 21.225 0z" />
<glyph unicode="&#xe903;" glyph-name="arrow-up-right-bold" d="M695.167 691.5l-426.667-426.667c-7.719-7.721-12.494-18.386-12.494-30.167s4.774-22.446 12.494-30.167v0c7.721-7.719 18.386-12.494 30.167-12.494s22.446 4.774 30.167 12.494l426.667 426.667c7.719 7.721 12.494 18.386 12.494 30.167s-4.774 22.446-12.494 30.167v0c-7.721 7.719-18.386 12.494-30.167 12.494s-22.446-4.774-30.167-12.494v0zM298.667 704c-23.564 0-42.667-19.103-42.667-42.667v0c0-23.564 19.103-42.667 42.667-42.667v0h384v-384c0-23.564 19.103-42.667 42.667-42.667v0c23.564 0 42.667 19.103 42.667 42.667v0 426.667c-0.002 23.563-19.103 42.664-42.666 42.667v0z" />
<glyph unicode="&#xe904;" glyph-name="whatsapp" d="M85.333 21.333l61.274 227.447c-49.416 88.602-65.116 191.991-44.219 291.198s76.989 187.577 157.984 248.893c80.995 61.316 181.457 91.465 282.957 84.914s197.222-49.361 269.606-120.575c72.384-71.215 116.574-166.056 124.459-267.123 7.885-101.065-21.065-201.57-81.532-283.081s-148.403-138.556-247.663-160.666c-99.264-22.11-203.196-7.799-292.727 40.299l-230.14-61.308zM326.57 167.753l14.233-8.414c64.849-38.306 140.592-54.161 215.425-45.086 74.833 9.071 144.555 42.564 198.298 95.249 53.739 52.689 88.486 121.617 98.816 196.041 10.334 74.423-4.326 150.163-41.69 215.417-37.367 65.253-95.343 116.354-164.894 145.34-69.547 28.986-146.765 34.228-219.614 14.909-72.852-19.319-137.244-62.113-183.144-121.713s-70.728-132.659-70.616-207.791c-0.061-62.298 17.226-123.392 49.936-176.478l8.926-14.665-34.256-126.946 128.579 34.138zM679.966 392.619c-7.834 6.054-17.007 10.317-26.816 12.463-9.813 2.142-20.006 2.112-29.803-0.090-14.72-5.862-24.23-27.998-33.745-39.066-2.005-2.654-4.954-4.514-8.286-5.231-3.337-0.721-6.831-0.247-9.83 1.327-53.892 20.224-99.063 57.318-128.179 105.254-2.487 2.991-3.661 6.788-3.281 10.594 0.38 3.802 2.287 7.317 5.316 9.805 10.611 10.061 18.398 22.528 22.647 36.241 0.943 15.126-2.671 30.193-10.419 43.404-5.986 18.521-17.378 35.013-32.836 47.527-7.972 3.436-16.811 4.588-25.45 3.317s-16.711-4.91-23.241-10.479c-11.336-9.372-20.333-21.061-26.33-34.206s-8.84-27.412-8.32-41.751c0.035-8.051 1.1-16.068 3.171-23.872 5.259-18.748 13.346-36.659 24.006-53.171 7.691-12.642 16.082-24.887 25.138-36.672 29.431-38.716 66.426-71.59 108.931-96.794 21.329-12.804 44.126-23.219 67.942-31.031 24.738-10.748 52.049-14.869 79.036-11.938 15.377 2.231 29.943 8.051 42.423 16.943s22.485 20.587 29.141 34.057c3.908 8.137 5.094 17.233 3.396 26.044-4.075 18.014-29.214 28.646-44.612 37.325z" />
<glyph unicode="&#xe905;" glyph-name="chevron-up" horiz-adv-x="1067" d="M518.25 591.083l-256-256c-3.86-3.86-6.247-9.193-6.247-15.083s2.387-11.223 6.247-15.083v0c3.86-3.86 9.193-6.247 15.083-6.247s11.223 2.387 15.083 6.247l240.917 240.917 240.917-240.917c3.86-3.86 9.193-6.247 15.083-6.247s11.223 2.387 15.083 6.247v0c3.86 3.86 6.247 9.193 6.247 15.083s-2.387 11.223-6.247 15.083l-256 256c-3.861 3.859-9.193 6.246-15.083 6.246s-11.223-2.387-15.083-6.246v0z" />
<glyph unicode="&#xe906;" glyph-name="facebook" d="M768 874.667h-128c-56.58 0-110.844-22.476-150.848-62.484-40.009-40.008-62.485-94.27-62.485-150.849v-128h-128v-170.667h128v-341.333h170.667v341.333h128l42.667 170.667h-170.667v128c0 11.316 4.497 22.168 12.497 30.17s18.854 12.497 30.17 12.497h128v170.667z" />
<glyph unicode="&#xe907;" glyph-name="instagram" d="M725.333 874.667h-426.667c-117.821 0-213.333-95.513-213.333-213.333v-426.667c0-117.82 95.513-213.333 213.333-213.333h426.667c117.82 0 213.333 95.514 213.333 213.333v426.667c0 117.821-95.514 213.333-213.333 213.333zM531.558 579.891c-27.742 4.114-56.073-0.625-80.969-13.541-24.892-12.917-45.079-33.353-57.687-58.403-12.609-25.054-16.998-53.44-12.542-81.131 4.456-27.686 17.528-53.265 37.359-73.097s45.41-32.905 73.097-37.359c27.691-4.454 56.077-0.068 81.131 12.54 25.050 12.612 45.487 32.798 58.402 57.69 12.919 24.896 17.655 53.227 13.542 80.969-4.194 28.297-17.382 54.494-37.611 74.722s-46.426 33.414-74.722 37.61zM416.201 632.625c38.834 20.15 83.033 27.542 126.31 21.125 44.143-6.546 85.013-27.116 116.57-58.672 31.552-31.556 52.126-72.424 58.671-116.567 6.417-43.277-0.977-87.475-21.124-126.31-20.151-38.831-52.032-70.323-91.11-89.993-39.083-19.669-83.366-26.517-126.562-19.567s-83.097 27.345-114.033 58.283c-30.936 30.933-51.33 70.835-58.28 114.031s-0.104 87.479 19.565 126.56c19.67 39.079 51.161 70.961 89.994 91.111zM746.667 640c23.565 0 42.667 19.103 42.667 42.667s-19.102 42.667-42.667 42.667c-23.565 0-42.667-19.103-42.667-42.667s19.102-42.667 42.667-42.667z" />
<glyph unicode="&#xe908;" glyph-name="arrow-left-bold" d="M213.333 490.667c-23.564 0-42.667-19.103-42.667-42.667v0c0-23.564 19.103-42.667 42.667-42.667v0h597.333c23.564 0 42.667 19.103 42.667 42.667v0c0 23.564-19.103 42.667-42.667 42.667v0zM512 789.333c-11.781-0.002-22.447-4.778-30.167-12.5l-298.667-298.667c-7.718-7.721-12.492-18.387-12.492-30.167s4.774-22.445 12.492-30.167l298.667-298.666c7.721-7.719 18.386-12.494 30.167-12.494s22.446 4.774 30.167 12.494v0c7.719 7.721 12.494 18.386 12.494 30.167s-4.774 22.446-12.494 30.167l-268.5 268.5 268.5 268.5c7.719 7.721 12.494 18.386 12.494 30.167s-4.774 22.446-12.494 30.167v0c-7.72 7.722-18.385 12.498-30.166 12.5v0z" />
<glyph unicode="&#xe909;" glyph-name="arrow-right-bold" d="M213.333 490.667c-23.564 0-42.667-19.103-42.667-42.667v0c0-23.564 19.103-42.667 42.667-42.667v0h597.333c23.564 0 42.667 19.103 42.667 42.667v0c0 23.564-19.103 42.667-42.667 42.667v0zM512 789.333c-11.781-0.002-22.447-4.778-30.167-12.5v0c-7.719-7.721-12.494-18.386-12.494-30.167s4.774-22.446 12.494-30.167l268.5-268.5-268.5-268.5c-7.719-7.721-12.494-18.386-12.494-30.167s4.774-22.446 12.494-30.167v0c7.721-7.719 18.386-12.494 30.167-12.494s22.446 4.774 30.167 12.494l298.667 298.667c7.718 7.721 12.492 18.387 12.492 30.167s-4.774 22.445-12.492 30.167l-298.666 298.667c-7.72 7.722-18.385 12.498-30.166 12.5v0z" />
<glyph unicode="&#xe90a;" glyph-name="shopping-cart" d="M42.667 960c-23.564 0-42.667-19.103-42.667-42.667s19.103-42.666 42.667-42.666h135.689l35.807-179.034c0.012-0.061 0.024-0.121 0.036-0.181l71.639-357.769c5.858-29.452 21.884-55.91 45.277-74.739 23.284-18.746 52.39-28.742 82.268-28.275h413.984c29.875-0.467 58.982 9.53 82.266 28.275 23.405 18.835 39.43 45.306 45.286 74.77l68.326 358.293c2.381 12.491-0.928 25.393-9.037 35.19-8.102 9.798-20.16 15.469-32.877 15.469h-690.353l-35.807 179.034c-3.988 19.943-21.5 34.299-41.838 34.299h-170.666zM384 149.331c-47.128 0-85.333-38.202-85.333-85.331s38.205-85.331 85.333-85.331c47.128 0 85.333 38.202 85.333 85.331s-38.205 85.331-85.333 85.331zM853.331 149.331c-47.123 0-85.331-38.202-85.331-85.331s38.208-85.331 85.331-85.331c47.13 0 85.338 38.202 85.338 85.331s-38.208 85.331-85.338 85.331z" />
<glyph unicode="&#xe90b;" glyph-name="minus" d="M213.333 490.667c-23.564 0-42.667-19.103-42.667-42.667v0c0-23.564 19.103-42.667 42.667-42.667v0h597.333c23.564 0 42.667 19.103 42.667 42.667v0c0 23.564-19.103 42.667-42.667 42.667v0z" />
<glyph unicode="&#xe90c;" glyph-name="arrow-up-right" horiz-adv-x="1067" d="M731.583 676.417l-426.667-426.667c-3.86-3.86-6.247-9.193-6.247-15.083s2.387-11.223 6.247-15.083v0c3.86-3.86 9.193-6.247 15.083-6.247s11.223 2.387 15.083 6.247l426.667 426.667c3.86 3.86 6.247 9.193 6.247 15.083s-2.387 11.223-6.247 15.083v0c-3.86 3.86-9.193 6.247-15.083 6.247s-11.223-2.387-15.083-6.247v0zM320 682.667c-11.782 0-21.333-9.551-21.333-21.333v0c0-11.782 9.551-21.333 21.333-21.333v0h405.333v-405.333c0-11.782 9.551-21.333 21.333-21.333v0c11.782 0 21.333 9.551 21.333 21.333v0 426.667c-0.001 11.782-9.552 21.332-21.333 21.333v0z" />
<glyph unicode="&#xe90d;" glyph-name="clock" d="M512.005 917.336c259.208 0 469.332-210.128 469.332-469.333 0-259.203-210.125-469.334-469.332-469.334s-469.333 210.131-469.333 469.334c0 259.206 210.127 469.333 469.333 469.333zM576.005 708.742c0 35.346-28.653 64-64 64s-64-28.654-64-64v-281.6c0-24.242 13.696-46.403 35.379-57.244l187.733-93.867c31.616-15.808 70.061-2.995 85.862 28.621 15.808 31.615 2.995 70.059-28.621 85.866l-152.353 76.177v242.046z" />
<glyph unicode="&#xe90e;" glyph-name="map-pin" d="M546.541 3.584c94.355 71.232 349.459 286.317 349.459 529.752 0 101.843-40.454 199.516-112.474 271.529-72.013 72.014-169.683 112.471-271.526 112.471s-199.515-40.457-271.529-112.471c-72.014-72.013-112.471-169.686-112.471-271.529 0-243.435 255.105-458.52 349.459-529.752 20.621-15.565 48.461-15.565 69.082 0zM661.331 533.336c0-82.474-66.857-149.333-149.331-149.333s-149.333 66.859-149.333 149.333c0 82.475 66.859 149.334 149.333 149.334s149.331-66.859 149.331-149.334z" />
<glyph unicode="&#xe90f;" glyph-name="phone" d="M938.65 235.782v-128.461c0.051-11.93-2.4-23.731-7.187-34.656-4.787-10.931-11.808-20.736-20.608-28.8-8.806-8.064-19.206-14.202-30.522-18.022-11.322-3.821-23.315-5.235-35.213-4.166-132.032 14.317-258.851 59.347-370.276 131.462-103.667 65.741-191.558 153.459-257.432 256.92-72.511 111.709-117.636 238.895-131.719 371.252-1.073 11.841 0.338 23.776 4.14 35.043s9.914 21.622 17.946 30.403c8.032 8.781 17.808 15.797 28.705 20.601s22.677 7.291 34.591 7.302h128.716c20.822 0.205 41.008-7.155 56.796-20.705s26.1-32.368 29.014-52.946c5.433-41.11 15.508-81.475 30.034-120.325 5.772-15.326 7.021-31.983 3.6-47.996s-11.372-30.712-22.908-42.355l-54.49-54.382c61.078-107.203 150.017-195.965 257.432-256.924l54.491 54.383c11.667 11.513 26.394 19.447 42.438 22.862s32.736 2.168 48.090-3.593c38.931-14.497 79.373-24.552 120.563-29.974 20.845-2.936 39.878-13.412 53.485-29.438s20.838-36.486 20.314-57.485z" />
<glyph unicode="&#xe910;" glyph-name="menu-grid" d="M176.762 832h243.809c26.929 0 48.762-21.831 48.762-48.762v-243.809c0-26.929-21.833-48.762-48.762-48.762h-243.809c-26.931 0-48.762 21.833-48.762 48.762v243.809c0 26.931 21.831 48.762 48.762 48.762zM603.43 832h243.806c26.931 0 48.764-21.831 48.764-48.762v-243.809c0-26.929-21.833-48.762-48.764-48.762h-243.806c-26.931 0-48.764 21.833-48.764 48.762v243.809c0 26.931 21.833 48.762 48.764 48.762zM847.236 405.333h-243.806c-26.931 0-48.764-21.833-48.764-48.764v-243.806c0-26.931 21.833-48.764 48.764-48.764h243.806c26.931 0 48.764 21.833 48.764 48.764v243.806c0 26.931-21.833 48.764-48.764 48.764zM176.762 405.333h243.809c26.929 0 48.762-21.833 48.762-48.764v-243.806c0-26.931-21.833-48.764-48.762-48.764h-243.809c-26.931 0-48.762 21.833-48.762 48.764v243.806c0 26.931 21.831 48.764 48.762 48.764z" />
<glyph unicode="&#xe911;" glyph-name="search" d="M170.667 490.667c0-164.949 133.718-298.667 298.667-298.667 80.469 0 153.506 31.825 207.215 83.575 1.118 1.455 2.347 2.859 3.682 4.194s2.739 2.564 4.194 3.682c51.75 53.709 83.575 126.746 83.575 207.215 0 164.949-133.717 298.667-298.667 298.667s-298.667-133.718-298.667-298.667zM709.022 190.639c-65.694-52.548-149.022-83.972-239.689-83.972-212.077 0-384 171.921-384 384 0 212.077 171.923 384 384 384 212.079 0 384-171.923 384-384 0-90.667-31.424-173.995-83.972-239.689l156.809-156.809c16.666-16.661 16.666-43.678 0-60.339-16.661-16.666-43.678-16.666-60.339 0l-156.809 156.809z" />
<glyph unicode="&#xe912;" glyph-name="package" d="M981.333 649.024v-414.776c-0.017-18.185-4.847-36.045-13.999-51.785-9.152-15.744-22.31-28.817-38.148-37.909l-365.039-207.39c-6.869-3.942-14.814 1.468-14.814 9.391v457.882c0 9.331 4.988 17.954 13.073 22.605l401.613 230.975c7.646 4.399 17.306-0.169 17.314-8.992zM928.678 723.827c5.837 3.357 6.345 11.541 0.508 14.893l-365.039 207.388c-15.855 9.101-33.839 13.892-52.147 13.892s-36.292-4.791-52.147-13.892l-80.886-45.953c-17.553-9.972-17.602-35.25-0.089-45.291l386.357-221.513c1.899-1.089 4.237-1.088 6.135 0.004l157.308 90.472zM276.753 827.348c-8.001 4.588-17.83 4.607-25.849 0.051l-156.090-88.679c-5.838-3.351-5.328-11.533 0.507-14.889l403.682-232.166c8.047-4.629 17.95-4.629 25.997 0l128.998 74.188c17.446 10.034 17.429 35.212-0.030 45.223l-377.216 216.272zM42.667 649.024c0.009 8.825 9.67 13.393 17.32 8.994l401.607-230.972c8.085-4.655 13.073-13.274 13.073-22.605v-457.886c0-7.923-7.945-13.333-14.814-9.391l-365.038 207.39c-15.839 9.092-28.995 22.165-38.148 37.909-9.153 15.74-13.981 33.6-14 51.785v414.776z" />
<glyph unicode="&#xe913;" glyph-name="shopping-bag" d="M221.867 900.267c8.058 10.744 20.704 17.067 34.133 17.067h512c13.431 0 26.078-6.323 34.133-17.067l128-170.667c9.698-12.929 11.255-30.226 4.028-44.681s-21.999-23.586-38.161-23.586h-768c-16.161 0-30.935 9.131-38.162 23.586s-5.668 31.752 4.029 44.681l128 170.667zM277.334 832l-64-85.333h597.333l-64 85.333h-469.333zM128 746.667h768c23.565 0 42.667-19.103 42.667-42.667v-597.333c0-33.95-13.487-66.505-37.491-90.509s-56.559-37.491-90.509-37.491h-597.333c-33.948 0-66.505 13.487-90.51 37.491s-37.49 56.563-37.49 90.509v597.333c0 23.564 19.102 42.667 42.667 42.667zM373.334 533.333c0 17.673-14.327 32-32 32s-32-14.327-32-32c0-53.751 21.352-105.301 59.36-143.309s89.555-59.358 143.307-59.358c53.751 0 105.301 21.35 143.309 59.358s59.358 89.557 59.358 143.309c0 17.673-14.327 32-32 32s-32-14.327-32-32c0-36.779-14.609-72.047-40.614-98.052s-61.274-40.614-98.052-40.614c-36.774 0-72.047 14.609-98.052 40.614s-40.614 61.274-40.614 98.052z" />
<glyph unicode="&#xe914;" glyph-name="x-square" d="M213.333 874.667h597.333c70.694 0 128-57.308 128-128v-597.333c0-70.694-57.306-128-128-128h-597.333c-70.692 0-128 57.306-128 128v597.333c0 70.692 57.308 128 128 128zM410.399 602.399c-14.58 14.58-38.218 14.58-52.797 0s-14.58-38.218 0-52.797l101.603-101.601-101.603-101.602c-14.58-14.579-14.58-38.217 0-52.796s38.218-14.579 52.797 0l101.601 101.602 101.602-101.602c14.579-14.579 38.217-14.579 52.796 0s14.579 38.217 0 52.796l-101.602 101.602 101.602 101.601c14.579 14.58 14.579 38.218 0 52.797s-38.217 14.58-52.796 0l-101.602-101.603-101.601 101.603z" />
<glyph unicode="&#xe915;" glyph-name="trash" d="M426.667 832c-11.316 0-22.168-4.495-30.17-12.497s-12.497-18.854-12.497-30.17v-42.667h256v42.667c0 11.316-4.497 22.168-12.497 30.17s-18.854 12.497-30.17 12.497h-170.667zM298.667 789.333c0 33.948 13.486 66.505 37.49 90.51s56.562 37.49 90.51 37.49h170.667c33.95 0 66.505-13.486 90.509-37.49s37.491-56.562 37.491-90.51v-42.667h170.667c23.565 0 42.667-19.103 42.667-42.667s-19.102-42.667-42.667-42.667h-42.667v-554.667c0-33.95-13.487-66.505-37.491-90.509s-56.559-37.491-90.509-37.491h-426.667c-33.948 0-66.505 13.487-90.51 37.491s-37.49 56.559-37.49 90.509v554.667h-42.667c-23.564 0-42.667 19.103-42.667 42.667s19.103 42.667 42.667 42.667h170.667v42.667zM464 490.667c0 20.617-16.717 37.333-37.333 37.333-20.619 0-37.333-16.717-37.333-37.333v-256c0-20.617 16.715-37.333 37.333-37.333s37.333 16.717 37.333 37.333v256zM634.667 490.667c0 20.617-16.717 37.333-37.333 37.333s-37.333-16.717-37.333-37.333v-256c0-20.617 16.717-37.333 37.333-37.333s37.333 16.717 37.333 37.333v256z" />
<glyph unicode="&#xe916;" glyph-name="plus" d="M512 789.333c-23.564 0-42.667-19.103-42.667-42.667v0-597.333c0-23.564 19.103-42.667 42.667-42.667v0c23.564 0 42.667 19.103 42.667 42.667v0 597.333c0 23.564-19.103 42.667-42.667 42.667v0zM213.333 490.667c-23.564 0-42.667-19.103-42.667-42.667v0c0-23.564 19.103-42.667 42.667-42.667v0h597.333c23.564 0 42.667 19.103 42.667 42.667v0c0 23.564-19.103 42.667-42.667 42.667v0z" />
<glyph unicode="&#xe917;" glyph-name="chevron-down" horiz-adv-x="1067" d="M548.75 304.917l256 256c3.86 3.86 6.247 9.193 6.247 15.083s-2.387 11.223-6.247 15.083v0c-3.86 3.86-9.193 6.247-15.083 6.247s-11.223-2.387-15.083-6.247l-240.917-240.917-240.917 240.917c-3.86 3.86-9.193 6.247-15.083 6.247s-11.223-2.387-15.083-6.247v0c-3.86-3.86-6.247-9.193-6.247-15.083s2.387-11.223 6.247-15.083l256-256c3.861-3.859 9.193-6.246 15.083-6.246s11.223 2.387 15.083 6.246v0z" />
<glyph unicode="&#xe918;" glyph-name="chevron-right-bold" d="M384 752c-0.035 0-0.076 0-0.118 0-13.226 0-25.202-5.349-33.884-14.001l0.001 0.001c-8.721-8.692-14.118-20.716-14.118-34s5.396-25.308 14.116-33.999l222.001-222.001-222-222c-8.721-8.692-14.118-20.716-14.118-34s5.396-25.308 14.116-33.999l0.001-0.001c8.692-8.721 20.716-14.118 34-14.118s25.308 5.396 33.999 14.116l256.001 256.001c8.72 8.693 14.116 20.716 14.116 34s-5.396 25.307-14.115 33.999l-256.001 256.001c-8.68 8.651-20.657 14-33.882 14-0.041 0-0.083 0-0.124 0h0.006z" />
<glyph unicode="&#xe919;" glyph-name="close-bold" d="M768 752c-0.035 0-0.076 0-0.118 0-13.226 0-25.202-5.349-33.884-14.001l-511.999-511.999c-8.721-8.692-14.118-20.716-14.118-34s5.396-25.308 14.116-33.999l0.001-0.001c8.692-8.721 20.716-14.118 34-14.118s25.308 5.396 33.999 14.116l512.001 512.001c8.721 8.692 14.118 20.716 14.118 34s-5.396 25.308-14.116 33.999l-0.001 0.001c-8.68 8.651-20.657 14-33.882 14-0.041 0-0.083 0-0.124 0h0.006zM256 752c-0.035 0-0.076 0-0.118 0-13.226 0-25.202-5.349-33.884-14.001l0.001 0.001c-8.721-8.692-14.118-20.716-14.118-34s5.396-25.308 14.116-33.999l512.001-512.001c8.692-8.721 20.716-14.118 34-14.118s25.308 5.396 33.999 14.116l0.001 0.001c8.721 8.692 14.118 20.716 14.118 34s-5.396 25.308-14.116 33.999l-512.001 512.001c-8.68 8.651-20.657 14-33.882 14-0.041 0-0.083 0-0.124 0h0.006z" />
<glyph unicode="&#xe91a;" glyph-name="chevron-left-bold" d="M640 752c0.035 0 0.076 0 0.118 0 13.226 0 25.202-5.349 33.884-14.001l-0.001 0.001c8.721-8.692 14.118-20.716 14.118-34s-5.396-25.308-14.116-33.999l-222.001-222.001 222-222c8.721-8.692 14.118-20.716 14.118-34s-5.396-25.308-14.116-33.999l-0.001-0.001c-8.692-8.721-20.716-14.118-34-14.118s-25.308 5.396-33.999 14.116l-256.001 256.001c-8.72 8.693-14.116 20.716-14.116 34s5.396 25.307 14.115 33.999l256.001 256.001c8.68 8.651 20.657 14 33.882 14 0.041 0 0.083 0 0.124 0h-0.006z" />
<glyph unicode="&#xe91b;" glyph-name="chevron-up-bold" d="M208 320c0-0.035 0-0.076 0-0.118 0-13.226 5.349-25.202 14.001-33.884l-0.001 0.001c8.692-8.721 20.716-14.118 34-14.118s25.308 5.396 33.999 14.116l222.001 222.001 222-222c8.692-8.721 20.716-14.118 34-14.118s25.308 5.396 33.999 14.116l0.001 0.001c8.721 8.692 14.118 20.716 14.118 34s-5.396 25.308-14.116 33.999l-256.001 256.001c-8.693 8.72-20.716 14.116-34 14.116s-25.307-5.396-33.999-14.115l-256.001-256.001c-8.651-8.68-14-20.657-14-33.882 0-0.041 0-0.083 0-0.124v0.006z" />
<glyph unicode="&#xe91c;" glyph-name="chevron-down-bold" d="M816 576c0 0.035 0 0.076 0 0.118 0 13.226-5.349 25.202-14.001 33.884l0.001-0.001c-8.692 8.721-20.716 14.118-34 14.118s-25.308-5.396-33.999-14.116l-222.001-222.001-222 222c-8.692 8.721-20.716 14.118-34 14.118s-25.308-5.396-33.999-14.116l-0.001-0.001c-8.721-8.692-14.118-20.716-14.118-34s5.396-25.308 14.116-33.999l256.001-256.001c8.693-8.72 20.716-14.116 34-14.116s25.307 5.396 33.999 14.115l256.001 256.001c8.651 8.68 14 20.657 14 33.882 0 0.041 0 0.083 0 0.124v-0.006z" />
<glyph unicode="&#xe91d;" glyph-name="chevron-left" horiz-adv-x="1067" d="M390.417 432.75l256-256c3.86-3.86 9.193-6.247 15.083-6.247s11.223 2.387 15.083 6.247v0c3.86 3.86 6.247 9.193 6.247 15.083s-2.387 11.223-6.247 15.083l-240.917 240.917 240.917 240.917c3.86 3.86 6.247 9.193 6.247 15.083s-2.387 11.223-6.247 15.083v0c-3.86 3.86-9.193 6.247-15.083 6.247s-11.223-2.387-15.083-6.247l-256-256c-3.859-3.861-6.246-9.193-6.246-15.083s2.387-11.223 6.246-15.083v0z" />
<glyph unicode="&#xe91e;" glyph-name="chevron-right" horiz-adv-x="1067" d="M676.583 463.25l-256 256c-3.86 3.86-9.193 6.247-15.083 6.247s-11.223-2.387-15.083-6.247v0c-3.86-3.86-6.247-9.193-6.247-15.083s2.387-11.223 6.247-15.083l240.917-240.917-240.917-240.917c-3.86-3.86-6.247-9.193-6.247-15.083s2.387-11.223 6.247-15.083v0c3.86-3.86 9.193-6.247 15.083-6.247s11.223 2.387 15.083 6.247l256 256c3.859 3.861 6.246 9.193 6.246 15.083s-2.387 11.223-6.246 15.083v0z" />
<glyph unicode="&#xe91f;" glyph-name="arrow-left" d="M810.667 469.333c11.782 0 21.333-9.551 21.333-21.333v0c0-11.782-9.551-21.333-21.333-21.333v0h-597.333c-11.782 0-21.333 9.551-21.333 21.333v0c0 11.782 9.551 21.333 21.333 21.333v0zM527.083 761.75c3.86-3.86 6.247-9.193 6.247-15.083s-2.387-11.223-6.247-15.083l-283.583-283.583 283.583-283.583c3.86-3.86 6.247-9.193 6.247-15.083s-2.387-11.223-6.247-15.083v0c-3.86-3.86-9.193-6.247-15.083-6.247s-11.223 2.387-15.083 6.247l-298.667 298.667c-3.859 3.861-6.246 9.193-6.246 15.083s2.387 11.223 6.246 15.083l298.667 298.667c3.86 3.86 9.193 6.247 15.083 6.247s11.223-2.387 15.083-6.247v0z" />
<glyph unicode="&#xe920;" glyph-name="arrow-right" d="M213.333 469.333c-11.782 0-21.333-9.551-21.333-21.333v0c0-11.782 9.551-21.333 21.333-21.333v0h597.333c11.782 0 21.333 9.551 21.333 21.333v0c0 11.782-9.551 21.333-21.333 21.333v0zM496.917 761.75c-3.86-3.86-6.247-9.193-6.247-15.083s2.387-11.223 6.247-15.083l283.583-283.583-283.583-283.583c-3.86-3.86-6.247-9.193-6.247-15.083s2.387-11.223 6.247-15.083v0c3.86-3.86 9.193-6.247 15.083-6.247s11.223 2.387 15.083 6.247l298.667 298.667c3.859 3.861 6.246 9.193 6.246 15.083s-2.387 11.223-6.246 15.083l-298.667 298.667c-3.86 3.86-9.193 6.247-15.083 6.247s-11.223-2.387-15.083-6.247v0z" />
<glyph unicode="&#xe921;" glyph-name="arrow-up" d="M490.667 149.333c0-11.782 9.551-21.333 21.333-21.333v0c11.782 0 21.333 9.551 21.333 21.333v0 597.333c0 11.782-9.551 21.333-21.333 21.333v0c-11.782 0-21.333-9.551-21.333-21.333v0zM198.25 432.917c3.86-3.86 9.193-6.247 15.083-6.247s11.223 2.387 15.083 6.247l283.583 283.583 283.583-283.583c3.86-3.86 9.193-6.247 15.083-6.247s11.223 2.387 15.083 6.247v0c3.86 3.86 6.247 9.193 6.247 15.083s-2.387 11.223-6.247 15.083l-298.667 298.667c-3.861 3.859-9.193 6.246-15.083 6.246s-11.223-2.387-15.083-6.246l-298.667-298.667c-3.86-3.86-6.247-9.193-6.247-15.083s2.387-11.223 6.247-15.083v0z" />
<glyph unicode="&#xe922;" glyph-name="arrow-down" d="M533.333 746.667c0 11.782-9.551 21.333-21.333 21.333v0c-11.782 0-21.333-9.551-21.333-21.333v0-597.333c0-11.782 9.551-21.333 21.333-21.333v0c11.782 0 21.333 9.551 21.333 21.333v0zM825.75 463.083c-3.86 3.86-9.193 6.247-15.083 6.247s-11.223-2.387-15.083-6.247l-283.583-283.583-283.583 283.583c-3.86 3.86-9.193 6.247-15.083 6.247s-11.223-2.387-15.083-6.247v0c-3.86-3.86-6.247-9.193-6.247-15.083s2.387-11.223 6.247-15.083l298.667-298.667c3.861-3.859 9.193-6.246 15.083-6.246s11.223 2.387 15.083 6.246l298.667 298.667c3.86 3.86 6.247 9.193 6.247 15.083s-2.387 11.223-6.247 15.083v0z" />
<glyph unicode="&#xe923;" glyph-name="arrow-up-bold" d="M469.333 149.333c0-23.564 19.103-42.667 42.667-42.667v0c23.564 0 42.667 19.103 42.667 42.667v0 597.333c0 23.564-19.103 42.667-42.667 42.667v0c-23.564 0-42.667-19.103-42.667-42.667v0zM170.667 448c0.002-11.781 4.778-22.447 12.5-30.167v0c7.721-7.719 18.386-12.494 30.167-12.494s22.446 4.774 30.167 12.494l268.5 268.5 268.5-268.5c7.721-7.719 18.386-12.494 30.167-12.494s22.446 4.774 30.167 12.494v0c7.719 7.721 12.494 18.386 12.494 30.167s-4.774 22.446-12.494 30.167l-298.667 298.667c-7.721 7.718-18.387 12.492-30.167 12.492s-22.445-4.774-30.167-12.492l-298.667-298.666c-7.722-7.72-12.498-18.385-12.5-30.166v0z" />
<glyph unicode="&#xe924;" glyph-name="arrow-down-bold" d="M554.667 746.667c0 23.564-19.103 42.667-42.667 42.667v0c-23.564 0-42.667-19.103-42.667-42.667v0-597.333c0-23.564 19.103-42.667 42.667-42.667v0c23.564 0 42.667 19.103 42.667 42.667v0zM853.333 448c-0.002 11.781-4.778 22.447-12.5 30.167v0c-7.721 7.719-18.386 12.494-30.167 12.494s-22.446-4.774-30.167-12.494l-268.5-268.5-268.5 268.5c-7.721 7.719-18.386 12.494-30.167 12.494s-22.446-4.774-30.167-12.494v0c-7.719-7.721-12.494-18.386-12.494-30.167s4.774-22.446 12.494-30.167l298.667-298.667c7.721-7.718 18.387-12.492 30.167-12.492s22.445 4.774 30.167 12.492l298.667 298.666c7.722 7.72 12.498 18.385 12.5 30.166v0z" />
<glyph unicode="&#xe925;" glyph-name="search-bold" horiz-adv-x="964" d="M180.706 488.157c0-144.159 116.862-261.022 261.019-261.022 69.851 0 133.292 27.437 180.138 72.126 1.289 1.584 2.68 3.12 4.156 4.602 1.482 1.476 3.018 2.867 4.602 4.156 44.689 46.845 72.126 110.287 72.126 180.138 0 144.157-116.864 261.019-261.022 261.019s-261.019-116.862-261.019-261.019zM665.522 179.176c-62.862-45.616-140.189-72.511-223.796-72.511-210.691 0-381.49 170.803-381.49 381.492 0 210.691 170.799 381.49 381.49 381.49 210.689 0 381.492-170.799 381.492-381.49 0-83.608-26.895-160.935-72.511-223.796l135.18-135.18c23.522-23.522 23.522-61.663 0-85.185s-61.663-23.522-85.185 0l-135.18 135.18z" />
<glyph unicode="&#xe926;" glyph-name="filter" d="M46.651 849.963c6.991 15.068 22.093 24.709 38.704 24.709h853.333c16.614 0 31.712-9.641 38.701-24.709 6.995-15.069 4.602-32.825-6.125-45.508l-331.245-391.698v-348.75c0-14.79-7.654-28.518-20.233-36.294s-28.287-8.48-41.512-1.869l-170.667 85.331c-14.455 7.232-23.586 22.003-23.586 38.163v263.419l-331.245 391.698c-10.726 12.684-13.116 30.44-6.125 45.508z" />
<glyph unicode="&#xe927;" glyph-name="alert" d="M511.949 879.052c-21.999 0-43.627-5.67-62.797-16.463s-35.235-26.343-46.644-45.152l-361.855-604.099c-11.176-19.354-17.090-41.297-17.153-63.65-0.063-22.349 5.728-44.326 16.796-63.744s27.027-35.597 46.29-46.933c19.263-11.332 41.158-17.429 63.507-17.677l723.712 0.004c22.349 0.247 44.245 6.34 63.505 17.673 19.264 11.337 35.221 27.516 46.293 46.933 11.068 19.418 16.858 41.395 16.794 63.744-0.064 22.353-5.978 44.297-17.152 63.65l-0.346 0.589-361.51 603.51c-11.409 18.809-27.473 34.36-46.643 45.153s-40.798 16.463-62.797 16.463zM511.949 613.335c20.617 0 37.333-16.715 37.333-37.333v-170.668c0-20.617-16.717-37.333-37.333-37.333-20.621 0-37.333 16.717-37.333 37.333v170.668c0 20.619 16.713 37.333 37.333 37.333zM469.282 234.667c0 23.565 19.102 42.667 42.667 42.667h0.427c23.565 0 42.667-19.102 42.667-42.667s-19.102-42.667-42.667-42.667h-0.427c-23.565 0-42.667 19.102-42.667 42.667z" />
<glyph unicode="&#xe928;" glyph-name="pocket" horiz-adv-x="1067" d="M199 874.667h682.668c33.946 0 66.505-13.486 90.509-37.49s37.491-56.562 37.491-90.51v-256c0-124.476-49.451-243.853-137.468-331.87s-207.394-137.463-331.866-137.463c-61.636 0-122.665 12.139-179.608 35.725s-108.681 58.159-152.262 101.739c-88.017 88.017-137.465 207.394-137.465 331.87v256c0 33.948 13.486 66.505 37.49 90.51s56.562 37.49 90.51 37.49zM396.065 559.732c-14.58 14.58-38.218 14.58-52.797 0s-14.579-38.217 0-52.797l170.665-170.667c14.583-14.579 38.221-14.579 52.8 0l170.667 170.667c14.579 14.579 14.579 38.217 0 52.797s-38.217 14.58-52.8 0l-144.265-144.27-144.27 144.27z" />
<glyph unicode="&#xe929;" glyph-name="rotate" d="M512 917.333c259.204 0 469.333-210.128 469.333-469.333 0-259.204-210.129-469.333-469.333-469.333-259.206 0-469.333 210.129-469.333 469.333 0 259.206 210.128 469.333 469.333 469.333zM391.405 619.407c37.25 20.591 80.181 28.519 122.327 22.59s81.225-25.396 111.343-55.466c0.243-0.243 0.491-0.483 0.742-0.719l56.009-52.628h-67.456c-18.854 0-34.133-15.283-34.133-34.133s15.279-34.133 34.133-34.133h153.63c18.85 0 34.133 15.283 34.133 34.133v153.629c0 18.851-15.283 34.133-34.133 34.133-18.854 0-34.133-15.282-34.133-34.133v-74.717l-60.937 57.259c-40.546 40.312-93.060 66.41-149.687 74.377-56.802 7.992-114.664-2.693-164.865-30.445s-90.025-71.068-113.468-123.421c-23.443-52.351-29.237-110.906-16.509-166.838s43.289-106.21 87.078-143.266c43.789-37.052 98.434-58.871 155.703-62.165 57.267-3.298 114.052 12.109 161.805 43.891 47.748 31.787 83.878 78.229 102.938 132.331 6.263 17.779-3.072 37.269-20.851 43.537-17.779 6.263-37.274-3.072-43.537-20.851-14.14-40.145-40.947-74.603-76.378-98.189-35.43-23.582-77.564-35.012-120.055-32.567-42.492 2.449-83.037 18.637-115.527 46.127-32.49 27.494-55.166 64.802-64.61 106.3-9.444 41.502-5.145 84.945 12.25 123.793 17.394 38.843 46.942 70.982 84.191 91.574z" />
<glyph unicode="&#xe92a;" glyph-name="plus-square" d="M455.111 960h113.778v-1024h-113.778v1024zM0 391.111v113.778h1024v-113.778h-1024z" />
<glyph unicode="&#xe92b;" glyph-name="whatsapp-filled" d="M85.504 21.333l57.685 211.968c-36.365 61.308-57.857 135.145-57.857 214.001 0 0.245 0 0.49 0.001 0.736v-0.038c0 235.648 191.019 426.667 426.667 426.667s426.667-191.019 426.667-426.667-191.019-426.667-426.667-426.667c-0.203 0-0.444-0.001-0.685-0.001-78.826 0-152.637 21.475-215.901 58.894l1.973-1.080-211.883-57.813zM358.016 648.192c-5.831-0.372-11.224-1.907-16.062-4.374l0.232 0.108c-4.799-2.746-8.925-5.975-12.528-9.711l-0.016-0.017c-5.12-4.821-8.021-9.003-11.136-13.056-15.040-19.419-24.108-44.122-24.108-70.944 0-0.229 0.001-0.457 0.002-0.686v0.035c0.085-20.907 5.547-41.259 14.080-60.288 17.451-38.485 46.165-79.232 84.096-116.992 9.131-9.088 18.048-18.219 27.648-26.709 45.326-40.058 100.336-70.259 161.018-86.647l2.822-0.649 24.277-3.712c7.893-0.427 15.787 0.171 23.723 0.555 13.113 0.696 25.249 4.263 35.99 10.078l-0.449-0.222c7.083 3.755 10.411 5.632 16.341 9.387 0 0 1.835 1.195 5.333 3.84 5.76 4.267 9.301 7.296 14.080 12.288 3.541 3.669 6.613 7.979 8.96 12.885 3.328 6.955 6.656 20.224 8.021 31.275 1.024 8.448 0.725 13.056 0.597 15.915-0.171 4.565-3.968 9.301-8.107 11.307l-24.832 11.136s-37.12 16.171-59.776 26.496c-2.217 0.993-4.795 1.624-7.506 1.748l-0.046 0.002c-0.63 0.069-1.361 0.108-2.101 0.108-5.427 0-10.364-2.102-14.039-5.537l0.012 0.011v0.085c-0.213 0-3.072-2.432-33.92-39.808-2.752-3.669-7.092-6.018-11.98-6.018-1.322 0-2.605 0.172-3.826 0.495l0.104-0.023c-3.215 0.865-5.925 1.827-8.539 2.967l0.389-0.151c-5.291 2.219-7.125 3.072-10.752 4.651l-0.213 0.085c-25.689 11.365-47.792 25.677-67.258 42.902l0.271-0.236c-5.376 4.693-10.368 9.813-15.488 14.763-16.472 15.793-30.864 33.55-42.856 52.948l-0.664 1.153-2.517 4.053c-1.696 2.518-3.166 5.407-4.266 8.472l-0.086 0.275c-1.621 6.272 2.603 11.307 2.603 11.307s10.368 11.349 15.189 17.493c3.647 4.594 7.343 9.783 10.771 15.16l0.45 0.755c5.035 8.107 6.613 16.427 3.968 22.869-11.947 29.184-24.32 58.24-37.035 87.083-2.517 5.717-9.984 9.813-16.768 10.624-2.304 0.256-4.608 0.512-6.912 0.683-2.14 0.113-4.646 0.178-7.166 0.178-3.529 0-7.028-0.127-10.493-0.375l0.465 0.027z" />
<glyph unicode="&#xe92c;" glyph-name="mail" d="M59.631 767.563l452.369-316.657 452.369 316.656c-22.123 38.452-63.642 64.439-111.036 64.439h-682.667c-47.392 0-88.91-25.986-111.035-64.437zM981.333 688.294l-447.923-313.544c-12.855-8.998-29.965-8.998-42.816 0l-447.927 313.546v-496.296c0-70.498 57.503-128 128-128h682.667c70.498 0 128 57.502 128 128v496.294z" />
<glyph unicode="&#xe92d;" glyph-name="refresh" d="M512 917.333c259.204 0 469.333-210.128 469.333-469.333 0-259.204-210.129-469.333-469.333-469.333-259.206 0-469.333 210.129-469.333 469.333 0 259.206 210.128 469.333 469.333 469.333zM470.438 635.284c30.933 7.13 63.13 6.162 93.602-2.817s58.257-25.69 80.747-48.612l0.474-0.47 74.569-71.385h-79.829c-11.78 0-21.333-9.553-21.333-21.333s9.553-21.333 21.333-21.333h128c11.78 0 21.333 9.553 21.333 21.333v128c0 11.782-9.553 21.333-21.333 21.333s-21.333-9.551-21.333-21.333v-73.292l-71.663 68.605c-27.494 27.943-61.508 48.394-98.906 59.414-37.504 11.052-77.154 12.247-115.243 3.467-38.085-8.779-73.327-27.236-102.451-53.608-29.121-26.37-51.175-59.791-64.142-97.122-3.866-11.132 2.023-23.287 13.152-27.153s23.286 2.022 27.152 13.15c10.639 30.632 28.706 57.974 52.476 79.498 23.767 21.521 52.462 36.528 83.395 43.658zM256 426.667c-11.782 0-21.333-9.553-21.333-21.333v-128c0-11.78 9.551-21.333 21.333-21.333s21.333 9.553 21.333 21.333v73.293l71.664-68.608c27.494-27.942 61.507-48.393 98.904-59.413 37.504-11.051 77.154-12.245 115.243-3.465 38.084 8.777 73.327 27.234 102.451 53.606 29.12 26.368 51.174 59.793 64.141 97.122 3.866 11.132-2.022 23.287-13.15 27.153-11.132 3.866-23.287-2.022-27.153-13.15-10.641-30.63-28.706-57.975-52.476-79.497s-52.463-36.527-83.396-43.661c-30.933-7.13-63.13-6.161-93.602 2.82-30.473 8.977-58.257 25.69-80.745 48.61l-0.476 0.469-74.569 71.386h79.831c11.782 0 21.333 9.553 21.333 21.333s-9.551 21.333-21.333 21.333h-128z" />
<glyph unicode="&#xe92e;" glyph-name="check-round" horiz-adv-x="1025" d="M1022.211 495.343c-10.268 105.911-52.611 205.939-121.833 286.703-68.762 80.298-162.906 138.217-265.585 163.252-99.219 24.227-205.823 18.575-301.471-17.421-101.757-38.303-189.325-108.103-249.32-198.901-56.763-85.838-86.184-189.441-83.876-292.23 2.308-103.489 36.227-206.171 97.49-289.699 15.921-21.689 33.343-42.341 52.379-61.378 74.53-74.3 171.674-125.295 275.627-142.6 103.143-17.075 208.823-3.115 303.77 40.841 96.798 44.765 178.941 121.833 230.628 214.932 49.841 89.644 72.108 194.401 62.186 296.513zM741.52 559.375c-11.191-11.191-22.497-22.497-33.689-33.689l-238.244-238.244c-13.614-13.614-35.303-12.806-48.919 0-5.653 5.307-11.307 10.614-16.96 15.921-40.149 37.611-80.414 75.338-120.563 112.949-14.075 13.268-12.345 35.535 0 48.919 12.922 14.075 35.765 12.345 48.919 0 5.653-5.307 11.307-10.614 16.96-15.921 31.843-29.765 63.57-59.3 95.414-89.182 3.346 3.23 6.576 6.576 9.922 9.922 48.803 48.803 97.606 97.606 146.406 146.406 30.573 30.573 61.262 61.146 91.836 91.836 13.729 13.614 35.189 12.691 48.919 0s12.806-36.111 0-48.919z" />
<glyph unicode="&#xe92f;" glyph-name="shopping-bag-outline" d="M256 896c-0.012 0-0.026 0-0.041 0-6.941 0-13.108-3.315-17.004-8.447l-0.038-0.053-128-170.667c-2.654-3.517-4.25-7.961-4.25-12.779 0-0.019 0-0.039 0-0.058v0.003-597.333c0-28.28 11.252-55.418 31.25-75.417s47.136-31.25 75.417-31.25h597.333c28.28 0 55.418 11.251 75.417 31.25s31.25 47.137 31.25 75.417v597.333c0 0.016 0 0.036 0 0.055 0 4.817-1.596 9.262-4.289 12.833l0.039-0.054-128 170.667c-3.935 5.185-10.102 8.5-17.043 8.5-0.014 0-0.029 0-0.043 0h0.002zM266.667 853.333h490.667l117.333-156.417v-590.25c0-16.981-6.741-33.241-18.75-45.25s-28.269-18.75-45.25-18.75h-597.333c-16.982 0-33.242 6.741-45.25 18.75-12.009 12.010-18.75 28.27-18.75 45.25v590.25zM128 725.333c-11.782 0-21.333-9.551-21.333-21.333v0c0-11.782 9.551-21.333 21.333-21.333v0h768c11.782 0 21.333 9.551 21.333 21.333v0c0 11.782-9.551 21.333-21.333 21.333v0zM341.333 554.667c-11.782 0-21.333-9.551-21.333-21.333v0c0-50.915 20.249-99.751 56.25-135.75 36.001-36.004 84.836-56.25 135.75-56.25s99.75 20.246 135.75 56.25c36.004 36 56.25 84.836 56.25 135.75 0 11.782-9.551 21.333-21.333 21.333v0c-11.782 0-21.333-9.551-21.333-21.333v0c0-39.616-15.737-77.574-43.75-105.583-28.009-28.013-65.967-43.75-105.583-43.75s-77.572 15.737-105.583 43.75c-28.011 28.009-43.75 65.968-43.75 105.583 0 11.782-9.551 21.333-21.333 21.333v0z" />
</font>
</defs>
</svg>
