<svg width="57" height="75" viewBox="0 0 57 75" fill="none" xmlns="http://www.w3.org/2000/svg">
<path d="M49.5767 3.29199L50.748 46.6431C50.4699 49.9062 45.5799 50.4768 45.5799 50.4768C45.5799 50.4768 42.6224 51.0475 39.7528 49.8037C36.8833 48.56 37.0004 46.6285 37.0004 46.6285L38.1716 3.29199H49.5767Z" fill="#848387"/>
<path d="M49.5767 3.29199L50.748 46.6431C50.4699 49.9062 45.5799 50.4768 45.5799 50.4768C45.5799 50.4768 42.6224 51.0475 39.7528 49.8037C36.8833 48.56 37.0004 46.6285 37.0004 46.6285L38.1716 3.29199H49.5767Z" fill="#D4F2E4"/>
<path d="M49.5767 3.29199L50.748 46.6431C50.4699 49.9062 45.5799 50.4768 45.5799 50.4768C45.5799 50.4768 42.6224 51.0475 39.7528 49.8037C36.8833 48.56 37.0004 46.6285 37.0004 46.6285L38.1716 3.29199H49.5767Z" fill="#D4F2E4"/>
<path d="M49.5767 3.29199L50.748 46.6431C50.4699 49.9062 45.5799 50.4768 45.5799 50.4768C45.5799 50.4768 42.6224 51.0475 39.7528 49.8037C36.8833 48.56 37.0004 46.6285 37.0004 46.6285L38.1716 3.29199H49.5767Z" fill="url(#paint0_linear_501_36579)"/>
<path d="M49.5767 3.29199L50.748 46.6431C50.4699 49.9062 45.5799 50.4768 45.5799 50.4768C45.5799 50.4768 42.6224 51.0475 39.7528 49.8037C36.8833 48.56 37.0004 46.6285 37.0004 46.6285L38.1716 3.29199H49.5767Z" fill="url(#paint1_linear_501_36579)" fill-opacity="0.1"/>
<path d="M43.8839 6.58468C40.7304 6.58468 38.174 5.11065 38.174 3.29234C38.174 1.47403 40.7304 0 43.8839 0C47.0373 0 49.5938 1.47403 49.5938 3.29234C49.5938 5.11065 47.0373 6.58468 43.8839 6.58468Z" fill="#F0FAF6"/>
<path d="M43.8839 6.58468C40.7304 6.58468 38.174 5.11065 38.174 3.29234C38.174 1.47403 40.7304 0 43.8839 0C47.0373 0 49.5938 1.47403 49.5938 3.29234C49.5938 5.11065 47.0373 6.58468 43.8839 6.58468Z" fill="url(#paint2_linear_501_36579)" fill-opacity="0.5"/>
<path d="M43.8839 6.58468C40.7304 6.58468 38.174 5.11065 38.174 3.29234C38.174 1.47403 40.7304 0 43.8839 0C47.0373 0 49.5938 1.47403 49.5938 3.29234C49.5938 5.11065 47.0373 6.58468 43.8839 6.58468Z" fill="#F0FAF6"/>
<path d="M43.8835 5.9521C41.336 5.9521 39.2709 4.76133 39.2709 3.29245C39.2709 1.82357 41.336 0.632812 43.8835 0.632812C46.431 0.632812 48.4961 1.82357 48.4961 3.29245C48.4961 4.76133 46.431 5.9521 43.8835 5.9521Z" fill="#F0FAF6"/>
<path d="M43.8835 5.9521C41.336 5.9521 39.2709 4.76133 39.2709 3.29245C39.2709 1.82357 41.336 0.632812 43.8835 0.632812C46.431 0.632812 48.4961 1.82357 48.4961 3.29245C48.4961 4.76133 46.431 5.9521 43.8835 5.9521Z" fill="url(#paint3_linear_501_36579)" fill-opacity="0.3"/>
<path d="M0.00236511 20.4443H51.375V56.9244C50.3521 69.043 32.0346 71.2115 32.0346 71.2115C32.0346 71.2115 21.0023 73.3384 10.2727 68.7214C-0.456875 64.0939 0.00236511 56.9244 0.00236511 56.9244V20.4443Z" fill="url(#paint4_linear_501_36579)"/>
<path d="M0.00236511 20.4443H51.375V56.9244C50.3521 69.043 32.0346 71.2115 32.0346 71.2115C32.0346 71.2115 21.0023 73.3384 10.2727 68.7214C-0.456875 64.0939 0.00236511 56.9244 0.00236511 56.9244V20.4443Z" fill="url(#paint5_linear_501_36579)" fill-opacity="0.1"/>
<path d="M0.00236511 20.4443H51.375V56.9244C50.3521 69.043 32.0346 71.2115 32.0346 71.2115C32.0346 71.2115 21.0023 73.3384 10.2727 68.7214C-0.456875 64.0939 0.00236511 56.9244 0.00236511 56.9244V20.4443Z" fill="url(#paint6_linear_501_36579)"/>
<path d="M7.52639 10.018C17.5567 4.25962 33.8181 4.25962 43.8484 10.018C53.8787 15.7764 53.8787 25.1039 43.8484 30.8623C33.8181 36.6207 17.5567 36.6207 7.52639 30.8623C-2.5039 25.1039 -2.5039 15.7764 7.52639 10.018Z" fill="#F0FAF6"/>
<path d="M7.52639 10.018C17.5567 4.25962 33.8181 4.25962 43.8484 10.018C53.8787 15.7764 53.8787 25.1039 43.8484 30.8623C33.8181 36.6207 17.5567 36.6207 7.52639 30.8623C-2.5039 25.1039 -2.5039 15.7764 7.52639 10.018Z" fill="url(#paint7_linear_501_36579)" fill-opacity="0.15"/>
<path d="M10.209 11.5575C18.757 6.6501 32.6152 6.6501 41.1632 11.5575C49.7112 16.4649 49.7112 24.414 41.1632 29.3214C32.6152 34.2288 18.757 34.2288 10.209 29.3214C1.66099 24.414 1.66099 16.4649 10.209 11.5575Z" fill="#F0FAF6"/>
<path d="M10.209 11.5575C18.757 6.6501 32.6152 6.6501 41.1632 11.5575C49.7112 16.4649 49.7112 24.414 41.1632 29.3214C32.6152 34.2288 18.757 34.2288 10.209 29.3214C1.66099 24.414 1.66099 16.4649 10.209 11.5575Z" fill="url(#paint8_linear_501_36579)" fill-opacity="0.05"/>
<path d="M49.9746 51.7676L35.4354 60.1095V56.5196L49.9746 48.1777V51.7676Z" fill="#EFEFEF"/>
<path d="M49.9746 62.341L47.574 63.7105V52.1108L49.9746 50.7412V62.341Z" fill="#EFEFEF"/>
<path d="M37.8359 69.3009L35.4458 70.6809L35.4353 59.0811L37.8359 57.7012V69.3009Z" fill="#EFEFEF"/>
<path d="M41.8867 74.471L35.4469 70.684L35.4364 56.5215L41.8867 60.3085V74.471Z" fill="#AA989A"/>
<path d="M41.8867 74.471L35.4469 70.684L35.4364 56.5215L41.8867 60.3085V74.471Z" fill="#D4F2E4"/>
<path d="M41.8867 74.471L35.4469 70.684L35.4364 56.5215L41.8867 60.3085V74.471Z" fill="url(#paint9_linear_501_36579)" fill-opacity="0.4"/>
<path d="M54.0254 67.4978L47.5751 63.7107V60.6292L54.0254 56.9355V67.4978Z" fill="#D4F2E4"/>
<path d="M54.0254 67.4978L47.5751 63.7107V60.6292L54.0254 56.9355V67.4978Z" fill="url(#paint10_linear_501_36579)" fill-opacity="0.15"/>
<path d="M54.0254 67.4978L47.5751 63.7107V60.6292L54.0254 56.9355V67.4978Z" fill="url(#paint11_linear_501_36579)" fill-opacity="0.4"/>
<path d="M56.4258 51.9648L41.8866 60.3066L35.4363 56.5196L49.9755 48.1777L56.4258 51.9648Z" fill="#EFEFEF"/>
<path d="M56.4258 51.9648L41.8866 60.3066L35.4363 56.5196L49.9755 48.1777L56.4258 51.9648Z" fill="#F0FAF6"/>
<path d="M56.4258 51.9648L41.8866 60.3066L35.4363 56.5196L49.9755 48.1777L56.4258 51.9648Z" fill="url(#paint12_linear_501_36579)" fill-opacity="0.2"/>
<path d="M47.5742 63.7114L44.2865 65.496V62.5182L47.5742 60.6299V63.7114Z" fill="#D4F2E4"/>
<path d="M47.5742 63.7114L44.2865 65.496V62.5182L47.5742 60.6299V63.7114Z" fill="url(#paint13_linear_501_36579)" fill-opacity="0.6"/>
<path d="M54.0254 67.498L44.2873 73.0903V65.4955L47.5751 63.7109L54.0254 67.498Z" fill="#D4F2E4"/>
<path d="M54.0254 67.498L44.2873 73.0903V65.4955L47.5751 63.7109L54.0254 67.498Z" fill="url(#paint14_linear_501_36579)" fill-opacity="0.3"/>
<path fill-rule="evenodd" clip-rule="evenodd" d="M41.887 63.8973L41.8866 63.8976V60.3077L56.4258 51.9658V54.5176V55.5557V66.1277L54.0252 67.4973V56.9331L44.2876 62.52V73.09L41.887 74.4699V63.8973Z" fill="#D0C5C5"/>
<path fill-rule="evenodd" clip-rule="evenodd" d="M41.887 63.8973L41.8866 63.8976V60.3077L56.4258 51.9658V54.5176V55.5557V66.1277L54.0252 67.4973V56.9331L44.2876 62.52V73.09L41.887 74.4699V63.8973Z" fill="#D4F2E4"/>
<path fill-rule="evenodd" clip-rule="evenodd" d="M41.887 63.8973L41.8866 63.8976V60.3077L56.4258 51.9658V54.5176V55.5557V66.1277L54.0252 67.4973V56.9331L44.2876 62.52V73.09L41.887 74.4699V63.8973Z" fill="url(#paint15_linear_501_36579)" fill-opacity="0.2"/>
<defs>
<linearGradient id="paint0_linear_501_36579" x1="50.7479" y1="22.9241" x2="37.0001" y2="22.9241" gradientUnits="userSpaceOnUse">
<stop stop-color="#F0FAF6"/>
<stop offset="1" stop-color="#91C7B8"/>
</linearGradient>
<linearGradient id="paint1_linear_501_36579" x1="30.2192" y1="74.8545" x2="68.8276" y2="69.0665" gradientUnits="userSpaceOnUse">
<stop stop-color="#245795"/>
<stop offset="1" stop-color="#8AD3A8"/>
</linearGradient>
<linearGradient id="paint2_linear_501_36579" x1="54.0714" y1="12.6539" x2="30.3679" y2="-12.1046" gradientUnits="userSpaceOnUse">
<stop stop-color="#245795"/>
<stop offset="1" stop-color="#8AD3A8"/>
</linearGradient>
<linearGradient id="paint3_linear_501_36579" x1="34.7211" y1="8.67798" x2="49.4315" y2="-4.48498" gradientUnits="userSpaceOnUse">
<stop stop-color="#245795"/>
<stop offset="1" stop-color="#8AD3A8"/>
</linearGradient>
<linearGradient id="paint4_linear_501_36579" x1="51.3744" y1="46.0859" x2="0.00099346" y2="46.0859" gradientUnits="userSpaceOnUse">
<stop stop-color="#F0FAF6"/>
<stop offset="1" stop-color="#91C7B8"/>
</linearGradient>
<linearGradient id="paint5_linear_501_36579" x1="-25.3383" y1="97.967" x2="91.0508" y2="37.7766" gradientUnits="userSpaceOnUse">
<stop stop-color="#245795"/>
<stop offset="1" stop-color="#8AD3A8"/>
</linearGradient>
<linearGradient id="paint6_linear_501_36579" x1="-25.3383" y1="97.967" x2="91.0508" y2="37.7766" gradientUnits="userSpaceOnUse">
<stop stop-color="#245795"/>
<stop offset="1" stop-color="#8AD3A8"/>
</linearGradient>
<linearGradient id="paint7_linear_501_36579" x1="-25.3302" y1="50.2892" x2="56.2426" y2="-23.041" gradientUnits="userSpaceOnUse">
<stop stop-color="#245795"/>
<stop offset="1" stop-color="#8AD3A8"/>
</linearGradient>
<linearGradient id="paint8_linear_501_36579" x1="151.999" y1="12.5" x2="-27.9542" y2="3.75339" gradientUnits="userSpaceOnUse">
<stop stop-color="#245795"/>
<stop offset="1" stop-color="#8AD3A8"/>
</linearGradient>
<linearGradient id="paint9_linear_501_36579" x1="32.2552" y1="83.6693" x2="50.1606" y2="80.3495" gradientUnits="userSpaceOnUse">
<stop stop-color="#245795"/>
<stop offset="1" stop-color="#8AD3A8"/>
</linearGradient>
<linearGradient id="paint10_linear_501_36579" x1="50.7947" y1="44.8943" x2="50.7947" y2="61.5869" gradientUnits="userSpaceOnUse">
<stop stop-color="#245795"/>
<stop offset="1" stop-color="#8AD3A8"/>
</linearGradient>
<linearGradient id="paint11_linear_501_36579" x1="44.3939" y1="72.9104" x2="61.2422" y2="67.6018" gradientUnits="userSpaceOnUse">
<stop stop-color="#245795"/>
<stop offset="1" stop-color="#8AD3A8"/>
</linearGradient>
<linearGradient id="paint12_linear_501_36579" x1="25.0845" y1="66.5221" x2="58.6188" y2="36.5806" gradientUnits="userSpaceOnUse">
<stop stop-color="#245795"/>
<stop offset="1" stop-color="#8AD3A8"/>
</linearGradient>
<linearGradient id="paint13_linear_501_36579" x1="48.8633" y1="69.9812" x2="36.621" y2="64.9995" gradientUnits="userSpaceOnUse">
<stop stop-color="#245795"/>
<stop offset="1" stop-color="#8AD3A8"/>
</linearGradient>
<linearGradient id="paint14_linear_501_36579" x1="49.148" y1="53.0181" x2="49.148" y2="67.8414" gradientUnits="userSpaceOnUse">
<stop stop-color="#245795"/>
<stop offset="1" stop-color="#8AD3A8"/>
</linearGradient>
<linearGradient id="paint15_linear_501_36579" x1="-0.000373845" y1="103.5" x2="32.9255" y2="121.293" gradientUnits="userSpaceOnUse">
<stop stop-color="#245795"/>
<stop offset="1" stop-color="#8AD3A8"/>
</linearGradient>
</defs>
</svg>
