<svg width="73" height="113" viewBox="0 0 73 113" fill="none" xmlns="http://www.w3.org/2000/svg">
<path d="M57.6711 27.1904L15.3301 62.2199L51.1571 87.5489L57.6711 27.1904Z" stroke="url(#paint0_linear_501_36657)"/>
<circle r="18.7323" transform="matrix(0.866025 -0.5 2.20305e-08 1 16.2383 61.5956)" fill="#F0FAF6"/>
<circle r="18.7323" transform="matrix(0.866025 -0.5 2.20305e-08 1 56.7773 28.2636)" fill="#F0FAF6"/>
<circle r="18.7323" transform="matrix(0.866025 -0.5 2.20305e-08 1 49.5703 84.1181)" fill="#F0FAF6"/>
<path d="M64.0211 16.5844C64.7212 16.3343 65.4295 16.027 66.1414 15.6647L66.0179 15.5587L66.0179 15.5386L66.0002 15.522L65.9826 15.5054L65.9355 15.4723L65.9355 15.4556L65.9208 15.444L65.8414 15.3861C65.2974 15.7437 64.7121 16.1485 64.0975 16.6038L64.0211 16.5844ZM56.6779 23.5981C57.401 23.9039 58.1955 24.0707 59.0452 24.0953C60.9638 22.0277 62.9996 20.2306 65.0827 18.7657L64.7415 18.9124C63.1286 19.633 61.5496 20.0771 60.051 20.2318L59.8128 20.2488C58.7346 21.292 57.6865 22.4117 56.6779 23.5981ZM53.7841 27.3436C53.3077 28.0224 52.846 28.7151 52.399 29.4216C52.8176 30.0061 53.2977 30.5126 53.8341 30.9355C54.2772 30.2201 54.7546 29.4983 55.2663 28.7701C55.731 28.1092 56.1985 27.4778 56.6691 26.876C56.1057 26.7857 55.5691 26.6347 55.0634 26.4243C54.8987 26.3554 54.7428 26.2747 54.5958 26.2057C54.3253 26.5727 54.0547 26.9464 53.7841 27.3436ZM48.1966 37.4631C48.4654 38.1687 48.8196 38.7871 49.2524 39.3065L49.2524 39.3266L49.273 39.3549L49.273 39.3716L49.273 39.3883L49.2906 39.4116L49.2906 39.4283L49.3083 39.4449L49.3259 39.4682C49.3271 39.473 49.3271 39.4787 49.3259 39.4849L49.3524 39.5098L49.3524 39.5299L49.4171 39.5996C49.9834 38.072 50.6407 36.5504 51.3815 35.0521C51.6756 34.4707 51.9697 33.886 52.299 33.2842C52.1138 33.1569 51.9285 33.0196 51.7491 32.8688C51.3936 32.5772 51.0618 32.2504 50.7551 31.89C49.7604 33.7087 48.8731 35.5713 48.1055 37.4522" fill="#134E92"/>
<path d="M64.0211 16.5844C64.7212 16.3343 65.4295 16.027 66.1414 15.6647L66.0179 15.5587L66.0179 15.5386L66.0002 15.522L65.9826 15.5054L65.9355 15.4723L65.9355 15.4556L65.9208 15.444L65.8414 15.3861C65.2974 15.7437 64.7121 16.1485 64.0975 16.6038L64.0211 16.5844ZM56.6779 23.5981C57.401 23.9039 58.1955 24.0707 59.0452 24.0953C60.9638 22.0277 62.9996 20.2306 65.0827 18.7657L64.7415 18.9124C63.1286 19.633 61.5496 20.0771 60.051 20.2318L59.8128 20.2488C58.7346 21.292 57.6865 22.4117 56.6779 23.5981ZM53.7841 27.3436C53.3077 28.0224 52.846 28.7151 52.399 29.4216C52.8176 30.0061 53.2977 30.5126 53.8341 30.9355C54.2772 30.2201 54.7546 29.4983 55.2663 28.7701C55.731 28.1092 56.1985 27.4778 56.6691 26.876C56.1057 26.7857 55.5691 26.6347 55.0634 26.4243C54.8987 26.3554 54.7428 26.2747 54.5958 26.2057C54.3253 26.5727 54.0547 26.9464 53.7841 27.3436ZM48.1966 37.4631C48.4654 38.1687 48.8196 38.7871 49.2524 39.3065L49.2524 39.3266L49.273 39.3549L49.273 39.3716L49.273 39.3883L49.2906 39.4116L49.2906 39.4283L49.3083 39.4449L49.3259 39.4682C49.3271 39.473 49.3271 39.4787 49.3259 39.4849L49.3524 39.5098L49.3524 39.5299L49.4171 39.5996C49.9834 38.072 50.6407 36.5504 51.3815 35.0521C51.6756 34.4707 51.9697 33.886 52.299 33.2842C52.1138 33.1569 51.9285 33.0196 51.7491 32.8688C51.3936 32.5772 51.0618 32.2504 50.7551 31.89C49.7604 33.7087 48.8731 35.5713 48.1055 37.4522" fill="url(#paint1_linear_501_36657)"/>
<path d="M64.4968 22.9475C65.7677 22.4452 67.0533 21.8149 68.3404 21.063C68.3404 20.9659 68.3404 20.8656 68.3198 20.7804L68.3198 20.7469C68.3187 20.7421 68.3187 20.7364 68.3198 20.7302C68.3198 20.6131 68.3022 20.5095 68.2904 20.4125C67.0183 21.1747 65.7487 22.0194 64.488 22.9425L64.4968 22.9475ZM55.6215 31.4482L55.3039 31.839C56.0003 32.1325 56.7547 32.3134 57.5565 32.379C59.4954 30.1173 61.5652 28.0944 63.7057 26.3691C64.2703 25.916 64.8144 25.5003 65.3379 25.1223C64.433 25.5286 63.5353 25.867 62.65 26.1353C61.7209 26.4281 60.8048 26.6531 59.9062 26.8092C58.4196 28.2294 56.9846 29.783 55.6215 31.4482ZM49.834 39.9698C50.2616 40.3238 50.7393 40.6005 51.2603 40.7961L51.2867 40.8076L51.372 40.842L51.3955 40.8519L51.4191 40.8617L51.4485 40.8715L51.4691 40.8763L51.4867 40.8829L51.5014 40.8911L51.5249 40.8976L51.5426 40.8874L51.5573 40.879C51.9063 40.2558 52.268 39.6398 52.6424 39.031C53.6191 37.49 54.669 36.006 55.7803 34.5958C55.0277 34.496 54.3146 34.3045 53.6482 34.023C52.2732 35.9189 50.9984 37.9105 49.8428 39.9681" fill="#134E92"/>
<path d="M64.4968 22.9475C65.7677 22.4452 67.0533 21.8149 68.3404 21.063C68.3404 20.9659 68.3404 20.8656 68.3198 20.7804L68.3198 20.7469C68.3187 20.7421 68.3187 20.7364 68.3198 20.7302C68.3198 20.6131 68.3022 20.5095 68.2904 20.4125C67.0183 21.1747 65.7487 22.0194 64.488 22.9425L64.4968 22.9475ZM55.6215 31.4482L55.3039 31.839C56.0003 32.1325 56.7547 32.3134 57.5565 32.379C59.4954 30.1173 61.5652 28.0944 63.7057 26.3691C64.2703 25.916 64.8144 25.5003 65.3379 25.1223C64.433 25.5286 63.5353 25.867 62.65 26.1353C61.7209 26.4281 60.8048 26.6531 59.9062 26.8092C58.4196 28.2294 56.9846 29.783 55.6215 31.4482ZM49.834 39.9698C50.2616 40.3238 50.7393 40.6005 51.2603 40.7961L51.2867 40.8076L51.372 40.842L51.3955 40.8519L51.4191 40.8617L51.4485 40.8715L51.4691 40.8763L51.4867 40.8829L51.5014 40.8911L51.5249 40.8976L51.5426 40.8874L51.5573 40.879C51.9063 40.2558 52.268 39.6398 52.6424 39.031C53.6191 37.49 54.669 36.006 55.7803 34.5958C55.0277 34.496 54.3146 34.3045 53.6482 34.023C52.2732 35.9189 50.9984 37.9105 49.8428 39.9681" fill="url(#paint2_linear_501_36657)"/>
<path d="M60.8735 32.0877C62.4907 31.6921 64.1672 30.9968 65.8522 30.023C66.0934 29.8838 66.3139 29.7564 66.511 29.6427L66.4404 29.7972C66.6139 29.4193 66.7756 29.0381 66.9285 28.6553L66.9285 28.6353L67.0521 28.3163C66.3433 28.6452 65.5611 29.0433 64.7259 29.5255C63.4255 30.2757 62.1276 31.1538 60.847 32.1498L60.8735 32.0877ZM57.5151 35.054C55.6435 36.8699 53.8678 38.9149 52.2363 41.1335C52.5304 41.1746 52.8245 41.2022 53.1186 41.2131C53.6991 41.2215 54.3066 41.152 54.933 41.0055C57.4038 37.9623 60.1505 35.3815 62.9879 33.437C61.2185 34.1682 59.4921 34.6021 57.8562 34.7265L57.5092 35.0607L57.5151 35.054ZM66.3904 29.8897L66.408 29.8527L66.3904 29.8897ZM66.2286 30.234L66.3904 29.8897L66.2286 30.234ZM66.2139 30.2659C66.2171 30.2551 66.2221 30.2441 66.2286 30.234C66.2221 30.2441 66.2171 30.2551 66.2139 30.2659ZM66.1933 30.3046L66.2139 30.2659L66.1933 30.3046ZM66.1757 30.3784L66.1757 30.3951L66.1757 30.3784ZM66.161 30.427L66.161 30.4103L66.1463 30.4422L66.161 30.427ZM66.1198 30.4976L66.1434 30.4472C66.1346 30.4638 66.1267 30.4806 66.1198 30.4976ZM66.0963 30.5447C66.1025 30.5286 66.1104 30.5127 66.1198 30.4976C66.1104 30.5127 66.1025 30.5286 66.0963 30.5447ZM66.0816 30.5866L66.0816 30.5699L66.0816 30.5866ZM65.7875 31.1647C65.8875 30.9731 65.9875 30.7815 66.0816 30.59C65.9845 30.7832 65.8846 30.9748 65.7875 31.1647ZM65.7611 31.2134L65.7493 31.1834L65.7258 31.2271L65.7611 31.2134ZM65.7022 31.2708L65.7228 31.2322L65.7022 31.2708ZM65.6728 31.3246L65.6964 31.2842L65.6728 31.3246Z" fill="#134E92"/>
<path d="M60.8735 32.0877C62.4907 31.6921 64.1672 30.9968 65.8522 30.023C66.0934 29.8838 66.3139 29.7564 66.511 29.6427L66.4404 29.7972C66.6139 29.4193 66.7756 29.0381 66.9285 28.6553L66.9285 28.6353L67.0521 28.3163C66.3433 28.6452 65.5611 29.0433 64.7259 29.5255C63.4255 30.2757 62.1276 31.1538 60.847 32.1498L60.8735 32.0877ZM57.5151 35.054C55.6435 36.8699 53.8678 38.9149 52.2363 41.1335C52.5304 41.1746 52.8245 41.2022 53.1186 41.2131C53.6991 41.2215 54.3066 41.152 54.933 41.0055C57.4038 37.9623 60.1505 35.3815 62.9879 33.437C61.2185 34.1682 59.4921 34.6021 57.8562 34.7265L57.5092 35.0607L57.5151 35.054ZM66.3904 29.8897L66.408 29.8527L66.3904 29.8897ZM66.2286 30.234L66.3904 29.8897L66.2286 30.234ZM66.2139 30.2659C66.2171 30.2551 66.2221 30.2441 66.2286 30.234C66.2221 30.2441 66.2171 30.2551 66.2139 30.2659ZM66.1933 30.3046L66.2139 30.2659L66.1933 30.3046ZM66.1757 30.3784L66.1757 30.3951L66.1757 30.3784ZM66.161 30.427L66.161 30.4103L66.1463 30.4422L66.161 30.427ZM66.1198 30.4976L66.1434 30.4472C66.1346 30.4638 66.1267 30.4806 66.1198 30.4976ZM66.0963 30.5447C66.1025 30.5286 66.1104 30.5127 66.1198 30.4976C66.1104 30.5127 66.1025 30.5286 66.0963 30.5447ZM66.0816 30.5866L66.0816 30.5699L66.0816 30.5866ZM65.7875 31.1647C65.8875 30.9731 65.9875 30.7815 66.0816 30.59C65.9845 30.7832 65.8846 30.9748 65.7875 31.1647ZM65.7611 31.2134L65.7493 31.1834L65.7258 31.2271L65.7611 31.2134ZM65.7022 31.2708L65.7228 31.2322L65.7022 31.2708ZM65.6728 31.3246L65.6964 31.2842L65.6728 31.3246Z" fill="url(#paint3_linear_501_36657)"/>
<path d="M48.627 27.7813C49.4341 30.2209 50.8165 32.0789 52.6677 33.2121C56.8789 35.7435 62.2311 33.6305 65.3131 31.9549C66.0576 30.6701 66.6842 29.3302 67.1717 27.9805C65.5719 29.0681 59.155 33.0306 54.4527 30.1971C52.4222 28.932 51.0529 26.6701 50.5091 23.6829C49.7452 25.0108 49.1063 26.3956 48.6152 27.7881" fill="#86C69F"/>
<path d="M48.627 27.7813C49.4341 30.2209 50.8165 32.0789 52.6677 33.2121C56.8789 35.7435 62.2311 33.6305 65.3131 31.9549C66.0576 30.6701 66.6842 29.3302 67.1717 27.9805C65.5719 29.0681 59.155 33.0306 54.4527 30.1971C52.4222 28.932 51.0529 26.6701 50.5091 23.6829C49.7452 25.0108 49.1063 26.3956 48.6152 27.7881" fill="url(#paint4_linear_501_36657)"/>
<path d="M51.4199 22.2268C51.5491 22.6085 51.7023 22.9671 51.8787 23.3005C54.2049 27.7736 60.307 27.8278 67.8443 23.4762C67.9384 23.4218 68.0325 23.3675 68.2942 23.2398C68.3439 22.7302 68.3685 22.2322 68.3677 21.7484C68.3675 21.2823 68.3449 20.8295 68.3001 20.392C61.5157 24.3424 56.0517 24.4518 54.1402 20.8002C53.9208 20.3774 53.7466 19.9067 53.6196 19.3941C52.8329 20.2606 52.0941 21.2087 51.4199 22.2168" fill="#86C69F"/>
<path d="M51.4199 22.2268C51.5491 22.6085 51.7023 22.9671 51.8787 23.3005C54.2049 27.7736 60.307 27.8278 67.8443 23.4762C67.9384 23.4218 68.0325 23.3675 68.2942 23.2398C68.3439 22.7302 68.3685 22.2322 68.3677 21.7484C68.3675 21.2823 68.3449 20.8295 68.3001 20.392C61.5157 24.3424 56.0517 24.4518 54.1402 20.8002C53.9208 20.3774 53.7466 19.9067 53.6196 19.3941C52.8329 20.2606 52.0941 21.2087 51.4199 22.2168" fill="url(#paint5_linear_501_36657)"/>
<path d="M54.5215 18.4674C57.1241 20.8835 61.8 20.446 67.2375 17.3067L67.3698 17.2303C66.937 16.435 66.3734 15.7921 65.6965 15.3218C62.2617 17.0372 59.2856 17.3265 57.327 16.2152C56.3704 16.8303 55.4262 17.5895 54.5215 18.4708" fill="#86C69F"/>
<path d="M54.5215 18.4674C57.1241 20.8835 61.8 20.446 67.2375 17.3067L67.3698 17.2303C66.937 16.435 66.3734 15.7921 65.6965 15.3218C62.2617 17.0372 59.2856 17.3265 57.327 16.2152C56.3704 16.8303 55.4262 17.5895 54.5215 18.4708" fill="url(#paint6_linear_501_36657)"/>
<path fill-rule="evenodd" clip-rule="evenodd" d="M16.12 52.4637C14.0989 53.6306 12.4604 56.4684 12.4604 58.8022C12.4604 61.136 14.0989 62.0819 16.12 60.915C18.1411 59.7482 19.7795 56.9103 19.7795 54.5765C19.7795 52.2428 18.1411 51.2968 16.12 52.4637ZM12.4603 64.2352C10.4392 65.4021 8.80078 68.2399 8.80078 70.5737C8.80078 72.9075 10.4392 73.8534 12.4603 72.6865L19.7794 68.4609C21.8005 67.294 23.4389 64.4561 23.4389 62.1224C23.4389 59.7886 21.8005 58.8426 19.7794 60.0095L12.4603 64.2352Z" fill="#D9D9D9"/>
<path fill-rule="evenodd" clip-rule="evenodd" d="M16.12 52.4637C14.0989 53.6306 12.4604 56.4684 12.4604 58.8022C12.4604 61.136 14.0989 62.0819 16.12 60.915C18.1411 59.7482 19.7795 56.9103 19.7795 54.5765C19.7795 52.2428 18.1411 51.2968 16.12 52.4637ZM12.4603 64.2352C10.4392 65.4021 8.80078 68.2399 8.80078 70.5737C8.80078 72.9075 10.4392 73.8534 12.4603 72.6865L19.7794 68.4609C21.8005 67.294 23.4389 64.4561 23.4389 62.1224C23.4389 59.7886 21.8005 58.8426 19.7794 60.0095L12.4603 64.2352Z" fill="url(#paint7_linear_501_36657)"/>
<path fill-rule="evenodd" clip-rule="evenodd" d="M49.6747 74.658C47.6536 75.8249 46.0151 78.6628 46.0151 80.9965C46.0151 83.3303 47.6536 84.2763 49.6747 83.1094C51.6958 81.9425 53.3342 79.1047 53.3342 76.7709C53.3342 74.4371 51.6958 73.4912 49.6747 74.658ZM46.015 86.4295C43.9939 87.5964 42.3555 90.4343 42.3555 92.768C42.3555 95.1018 43.9939 96.0478 46.015 94.8809L53.3341 90.6552C55.3552 89.4883 56.9936 86.6505 56.9936 84.3167C56.9936 81.9829 55.3552 81.037 53.3341 82.2039L46.015 86.4295Z" fill="#D9D9D9"/>
<path fill-rule="evenodd" clip-rule="evenodd" d="M49.6747 74.658C47.6536 75.8249 46.0151 78.6628 46.0151 80.9965C46.0151 83.3303 47.6536 84.2763 49.6747 83.1094C51.6958 81.9425 53.3342 79.1047 53.3342 76.7709C53.3342 74.4371 51.6958 73.4912 49.6747 74.658ZM46.015 86.4295C43.9939 87.5964 42.3555 90.4343 42.3555 92.768C42.3555 95.1018 43.9939 96.0478 46.015 94.8809L53.3341 90.6552C55.3552 89.4883 56.9936 86.6505 56.9936 84.3167C56.9936 81.9829 55.3552 81.037 53.3341 82.2039L46.015 86.4295Z" fill="url(#paint8_linear_501_36657)"/>
<defs>
<linearGradient id="paint0_linear_501_36657" x1="36.5006" y1="27.1904" x2="40.246" y2="92.9412" gradientUnits="userSpaceOnUse">
<stop stop-color="#8AD3A8"/>
<stop offset="1" stop-color="#245795"/>
</linearGradient>
<linearGradient id="paint1_linear_501_36657" x1="48.1055" y1="33.0361" x2="74.296" y2="24.562" gradientUnits="userSpaceOnUse">
<stop stop-color="#245795"/>
<stop offset="1" stop-color="#8AD3A8"/>
</linearGradient>
<linearGradient id="paint2_linear_501_36657" x1="49.834" y1="36.5039" x2="93.8684" y2="24.287" gradientUnits="userSpaceOnUse">
<stop stop-color="#245795"/>
<stop offset="1" stop-color="#8AD3A8"/>
</linearGradient>
<linearGradient id="paint3_linear_501_36657" x1="53.2376" y1="40.3279" x2="79.1023" y2="31.965" gradientUnits="userSpaceOnUse">
<stop stop-color="#245795"/>
<stop offset="1" stop-color="#8AD3A8"/>
</linearGradient>
<linearGradient id="paint4_linear_501_36657" x1="66.207" y1="30.3311" x2="49.8831" y2="24.1521" gradientUnits="userSpaceOnUse">
<stop stop-color="#245795"/>
<stop offset="1" stop-color="#8AD3A8"/>
</linearGradient>
<linearGradient id="paint5_linear_501_36657" x1="67.4221" y1="22.2676" x2="53.7883" y2="17.6736" gradientUnits="userSpaceOnUse">
<stop stop-color="#245795"/>
<stop offset="1" stop-color="#8AD3A8"/>
</linearGradient>
<linearGradient id="paint6_linear_501_36657" x1="67.2859" y1="17.1583" x2="55.5581" y2="12.9309" gradientUnits="userSpaceOnUse">
<stop stop-color="#245795"/>
<stop offset="1" stop-color="#8AD3A8"/>
</linearGradient>
<linearGradient id="paint7_linear_501_36657" x1="30.6583" y1="71.4603" x2="0.221934" y2="61.2303" gradientUnits="userSpaceOnUse">
<stop stop-color="#245795"/>
<stop offset="1" stop-color="#8AD3A8"/>
</linearGradient>
<linearGradient id="paint8_linear_501_36657" x1="64.213" y1="93.6546" x2="33.7766" y2="83.4246" gradientUnits="userSpaceOnUse">
<stop stop-color="#245795"/>
<stop offset="1" stop-color="#8AD3A8"/>
</linearGradient>
</defs>
</svg>
