<svg width="92" height="116" viewBox="0 0 92 116" fill="none" xmlns="http://www.w3.org/2000/svg">
<rect width="47" height="89.2831" rx="23.5" transform="matrix(0.866025 -0.5 2.20305e-08 1 26 24.4854)" fill="#F0FAF6"/>
<path fill-rule="evenodd" clip-rule="evenodd" d="M46.3334 25.3887C43.7561 26.8767 41.6668 30.4955 41.6668 33.4715C41.6668 36.4475 43.7561 37.6538 46.3334 36.1658C48.9107 34.6778 51 31.059 51 28.083C51 25.1069 48.9107 23.9007 46.3334 25.3887ZM41.6666 40.3995C39.0893 41.8875 37 45.5063 37 48.4823C37 51.4583 39.0893 52.6646 41.6666 51.1766L50.9998 45.788C53.5771 44.3 55.6664 40.6812 55.6664 37.7052C55.6664 34.7292 53.5771 33.5229 50.9998 35.0109L41.6666 40.3995Z" fill="#D9D9D9"/>
<path fill-rule="evenodd" clip-rule="evenodd" d="M46.3334 25.3887C43.7561 26.8767 41.6668 30.4955 41.6668 33.4715C41.6668 36.4475 43.7561 37.6538 46.3334 36.1658C48.9107 34.6778 51 31.059 51 28.083C51 25.1069 48.9107 23.9007 46.3334 25.3887ZM41.6666 40.3995C39.0893 41.8875 37 45.5063 37 48.4823C37 51.4583 39.0893 52.6646 41.6666 51.1766L50.9998 45.788C53.5771 44.3 55.6664 40.6812 55.6664 37.7052C55.6664 34.7292 53.5771 33.5229 50.9998 35.0109L41.6666 40.3995Z" fill="url(#paint0_linear_501_36605)"/>
<path fill-rule="evenodd" clip-rule="evenodd" d="M40.877 76.1866C42.1336 74.0101 43.8379 72.211 45.615 71.185C47.3921 70.159 49.0965 69.9901 50.3531 70.7156C51.6097 71.4411 52.3156 73.0015 52.3156 75.0536L52.3156 75.2429C52.0162 75.2936 51.694 75.4131 51.3584 75.6069L50.4011 76.1595C48.8152 77.0752 47.5295 79.3021 47.5295 81.1334L47.5295 84.4494C47.5295 86.2807 48.8152 87.023 50.4011 86.1073L51.3584 85.5547C52.9444 84.639 54.2301 82.4121 54.2301 80.5808L54.2301 77.2707C54.2301 77.2685 54.2301 77.2664 54.2301 77.2642L54.2301 73.9482C54.2301 71.3099 53.3224 69.3037 51.7068 68.3709C50.0912 67.4381 47.8999 67.6552 45.615 68.9743C43.3302 70.2935 41.1389 72.6067 39.5233 75.4051C37.9077 78.2034 37 81.2577 37 83.896L37 87.212C37 87.2151 37 87.2183 37 87.2214L37 90.5282C37 92.3595 38.2857 93.1018 39.8717 92.1861L40.8289 91.6335C42.4149 90.7178 43.7006 88.4909 43.7006 86.6596L43.7006 83.3436C43.7006 81.5123 42.4149 80.77 40.8289 81.6857L39.8717 82.2383C39.5361 82.4321 39.2139 82.6846 38.9145 82.9797L38.9145 82.7907C38.9145 80.7387 39.6204 78.3631 40.877 76.1866Z" fill="black"/>
<path fill-rule="evenodd" clip-rule="evenodd" d="M40.877 76.1866C42.1336 74.0101 43.8379 72.211 45.615 71.185C47.3921 70.159 49.0965 69.9901 50.3531 70.7156C51.6097 71.4411 52.3156 73.0015 52.3156 75.0536L52.3156 75.2429C52.0162 75.2936 51.694 75.4131 51.3584 75.6069L50.4011 76.1595C48.8152 77.0752 47.5295 79.3021 47.5295 81.1334L47.5295 84.4494C47.5295 86.2807 48.8152 87.023 50.4011 86.1073L51.3584 85.5547C52.9444 84.639 54.2301 82.4121 54.2301 80.5808L54.2301 77.2707C54.2301 77.2685 54.2301 77.2664 54.2301 77.2642L54.2301 73.9482C54.2301 71.3099 53.3224 69.3037 51.7068 68.3709C50.0912 67.4381 47.8999 67.6552 45.615 68.9743C43.3302 70.2935 41.1389 72.6067 39.5233 75.4051C37.9077 78.2034 37 81.2577 37 83.896L37 87.212C37 87.2151 37 87.2183 37 87.2214L37 90.5282C37 92.3595 38.2857 93.1018 39.8717 92.1861L40.8289 91.6335C42.4149 90.7178 43.7006 88.4909 43.7006 86.6596L43.7006 83.3436C43.7006 81.5123 42.4149 80.77 40.8289 81.6857L39.8717 82.2383C39.5361 82.4321 39.2139 82.6846 38.9145 82.9797L38.9145 82.7907C38.9145 80.7387 39.6204 78.3631 40.877 76.1866Z" fill="url(#paint1_linear_501_36605)"/>
<path d="M67.3448 38.8277L67.3448 36.9139C67.3448 36.023 66.4119 36.1154 65.8664 37.0604L63.2684 41.5602L60.6706 46.0598C60.3105 46.6835 60.3373 47.3511 60.7285 47.5017L63.3264 48.5017L65.9243 49.5019C66.4884 49.719 67.3448 48.7614 67.3448 47.9136L67.3448 45.8137C74.3994 41.1267 76.871 44.4137 76.871 44.4137C76.871 41.4767 76.6615 38.5497 74.6618 37.3962C72.3374 36.0532 68.9712 37.8067 67.3448 38.8277Z" fill="black"/>
<path d="M67.3448 38.8277L67.3448 36.9139C67.3448 36.023 66.4119 36.1154 65.8664 37.0604L63.2684 41.5602L60.6706 46.0598C60.3105 46.6835 60.3373 47.3511 60.7285 47.5017L63.3264 48.5017L65.9243 49.5019C66.4884 49.719 67.3448 48.7614 67.3448 47.9136L67.3448 45.8137C74.3994 41.1267 76.871 44.4137 76.871 44.4137C76.871 41.4767 76.6615 38.5497 74.6618 37.3962C72.3374 36.0532 68.9712 37.8067 67.3448 38.8277Z" fill="url(#paint2_linear_501_36605)"/>
<path d="M67.3448 38.8277L67.3448 36.9139C67.3448 36.023 66.4119 36.1154 65.8664 37.0604L63.2684 41.5602L60.6706 46.0598C60.3105 46.6835 60.3373 47.3511 60.7285 47.5017L63.3264 48.5017L65.9243 49.5019C66.4884 49.719 67.3448 48.7614 67.3448 47.9136L67.3448 45.8137C74.3994 41.1267 76.871 44.4137 76.871 44.4137C76.871 41.4767 76.6615 38.5497 74.6618 37.3962C72.3374 36.0532 68.9712 37.8067 67.3448 38.8277Z" fill="url(#paint3_linear_501_36605)"/>
<path d="M19.3859 78.4711L25.1243 70.5221C25.3647 70.189 25.6962 70 26.0406 70H30.7002C31.4151 70 32 70.8102 32 71.8005V78.2551C32 78.7322 31.8635 79.1913 31.6166 79.5244L25.8781 87.4734C25.3712 88.1755 24.5459 88.1755 24.039 87.4734L19.3794 81.0188C18.8725 80.3166 18.8725 79.1823 19.3859 78.4711ZM29.0755 75.4014C29.6149 75.4014 30.0504 74.7982 30.0504 74.051C30.0504 73.3038 29.6149 72.7007 29.0755 72.7007C28.5362 72.7007 28.1007 73.3038 28.1007 74.051C28.1007 74.7982 28.5362 75.4014 29.0755 75.4014Z" fill="url(#paint4_linear_501_36605)"/>
<defs>
<linearGradient id="paint0_linear_501_36605" x1="64.8725" y1="49.6129" x2="26.0603" y2="36.5677" gradientUnits="userSpaceOnUse">
<stop stop-color="#245795"/>
<stop offset="1" stop-color="#8AD3A8"/>
</linearGradient>
<linearGradient id="paint1_linear_501_36605" x1="45.615" y1="117.057" x2="20.6359" y2="81.0443" gradientUnits="userSpaceOnUse">
<stop stop-color="#8AD3A8"/>
<stop offset="1" stop-color="#245795"/>
</linearGradient>
<linearGradient id="paint2_linear_501_36605" x1="71.5454" y1="21.3941" x2="83.2874" y2="40.0478" gradientUnits="userSpaceOnUse">
<stop stop-color="#8AD3A8"/>
<stop offset="1" stop-color="#245795"/>
</linearGradient>
<linearGradient id="paint3_linear_501_36605" x1="73.5" y1="63.5" x2="9.3164" y2="-12.8009" gradientUnits="userSpaceOnUse">
<stop stop-color="#D4F2E4"/>
<stop offset="1" stop-color="#71D5A4"/>
</linearGradient>
<linearGradient id="paint4_linear_501_36605" x1="21.5976" y1="107.686" x2="73.2652" y2="-22.6641" gradientUnits="userSpaceOnUse">
<stop stop-color="#D4F2E4"/>
<stop offset="1" stop-color="#71D5A4"/>
</linearGradient>
</defs>
</svg>
