<svg width="92" height="95" viewBox="0 0 92 95" fill="none" xmlns="http://www.w3.org/2000/svg">
<g opacity="0.2" filter="url(#filter0_f_501_36679)">
<path d="M79.4184 69.4521L72.7604 71.0675C72.1255 71.2227 72.5155 71.4968 73.4135 71.5121C73.4316 71.5121 73.4498 71.514 73.4634 71.514L72.7559 71.6865C72.1209 71.8417 72.511 72.1157 73.409 72.131C73.5677 72.133 73.7264 77.2838 73.8852 77.2895L79.4184 75.9501L79.4138 75.9482H79.441V69.4521H79.4184Z" fill="url(#paint0_linear_501_36679)"/>
<path d="M79.4184 69.4521L72.7604 71.0675C72.1255 71.2227 72.5155 71.4968 73.4135 71.5121C73.4316 71.5121 73.4498 71.514 73.4634 71.514L72.7559 71.6865C72.1209 71.8417 72.511 72.1157 73.409 72.131C73.5677 72.133 73.7264 77.2838 73.8852 77.2895L79.4184 75.9501L79.4138 75.9482H79.441V69.4521H79.4184Z" fill="url(#paint1_linear_501_36679)"/>
<path d="M79.4184 69.4521L72.7604 71.0675C72.1255 71.2227 72.5155 71.4968 73.4135 71.5121C73.4316 71.5121 73.4498 71.514 73.4634 71.514L72.7559 71.6865C72.1209 71.8417 72.511 72.1157 73.409 72.131C73.5677 72.133 73.7264 77.2838 73.8852 77.2895L79.4184 75.9501L79.4138 75.9482H79.441V69.4521H79.4184Z" fill="url(#paint2_linear_501_36679)"/>
<path d="M79.4184 69.4521L72.7604 71.0675C72.1255 71.2227 72.5155 71.4968 73.4135 71.5121C73.4316 71.5121 73.4498 71.514 73.4634 71.514L72.7559 71.6865C72.1209 71.8417 72.511 72.1157 73.409 72.131C73.5677 72.133 73.7264 77.2838 73.8852 77.2895L79.4184 75.9501L79.4138 75.9482H79.441V69.4521H79.4184Z" fill="url(#paint3_linear_501_36679)"/>
<path d="M79.4184 69.4521L72.7604 71.0675C72.1255 71.2227 72.5155 71.4968 73.4135 71.5121C73.4316 71.5121 73.4498 71.514 73.4634 71.514L72.7559 71.6865C72.1209 71.8417 72.511 72.1157 73.409 72.131C73.5677 72.133 73.7264 77.2838 73.8852 77.2895L79.4184 75.9501L79.4138 75.9482H79.441V69.4521H79.4184Z" fill="url(#paint4_linear_501_36679)"/>
<path d="M56.5407 76.663C57.1757 76.8374 57.5975 77.0558 57.8152 77.2896C58.0238 77.0692 58.0374 71.6904 57.8651 71.4662C58.2188 71.0082 57.7744 70.5023 56.5407 70.1651C54.1914 69.5231 50.1594 69.5001 47.7149 70.0961C46.6853 70.3471 46.1048 70.6671 45.9778 70.9967C45.9098 71.1673 45.0753 71.2439 44.5764 71.1232L38.0137 69.5576V76.0536L44.5764 77.6211C45.0753 77.7438 45.9143 77.6671 45.9778 77.4946C46.1048 77.1651 46.6808 76.845 47.7149 76.594C50.1594 75.9981 54.1914 76.023 56.5407 76.663Z" fill="url(#paint5_linear_501_36679)"/>
<path d="M56.5407 76.663C57.1757 76.8374 57.5975 77.0558 57.8152 77.2896C58.0238 77.0692 58.0374 71.6904 57.8651 71.4662C58.2188 71.0082 57.7744 70.5023 56.5407 70.1651C54.1914 69.5231 50.1594 69.5001 47.7149 70.0961C46.6853 70.3471 46.1048 70.6671 45.9778 70.9967C45.9098 71.1673 45.0753 71.2439 44.5764 71.1232L38.0137 69.5576V76.0536L44.5764 77.6211C45.0753 77.7438 45.9143 77.6671 45.9778 77.4946C46.1048 77.1651 46.6808 76.845 47.7149 76.594C50.1594 75.9981 54.1914 76.023 56.5407 76.663Z" fill="url(#paint6_linear_501_36679)"/>
<path d="M56.5407 76.663C57.1757 76.8374 57.5975 77.0558 57.8152 77.2896C58.0238 77.0692 58.0374 71.6904 57.8651 71.4662C58.2188 71.0082 57.7744 70.5023 56.5407 70.1651C54.1914 69.5231 50.1594 69.5001 47.7149 70.0961C46.6853 70.3471 46.1048 70.6671 45.9778 70.9967C45.9098 71.1673 45.0753 71.2439 44.5764 71.1232L38.0137 69.5576V76.0536L44.5764 77.6211C45.0753 77.7438 45.9143 77.6671 45.9778 77.4946C46.1048 77.1651 46.6808 76.845 47.7149 76.594C50.1594 75.9981 54.1914 76.023 56.5407 76.663Z" fill="url(#paint7_linear_501_36679)"/>
<path d="M58.714 74.4917L52.1195 72.9644C52.0288 72.9414 51.9744 72.9165 51.9336 72.8916V79.2477C51.8247 79.3167 51.8655 79.3991 52.1195 79.4604L58.714 80.9877V74.4917Z" fill="url(#paint8_linear_501_36679)"/>
<path d="M58.714 74.4917L52.1195 72.9644C52.0288 72.9414 51.9744 72.9165 51.9336 72.8916V79.2477C51.8247 79.3167 51.8655 79.3991 52.1195 79.4604L58.714 80.9877V74.4917Z" fill="url(#paint9_linear_501_36679)"/>
<path d="M58.714 74.4917L52.1195 72.9644C52.0288 72.9414 51.9744 72.9165 51.9336 72.8916V79.2477C51.8247 79.3167 51.8655 79.3991 52.1195 79.4604L58.714 80.9877V74.4917Z" fill="url(#paint10_linear_501_36679)"/>
<path d="M58.714 74.4917L52.1195 72.9644C52.0288 72.9414 51.9744 72.9165 51.9336 72.8916V79.2477C51.8247 79.3167 51.8655 79.3991 52.1195 79.4604L58.714 80.9877V74.4917Z" fill="url(#paint11_linear_501_36679)"/>
<path d="M29.7403 74.5643C32.1848 73.97 36.2123 73.9929 38.5661 74.6331C40.4665 75.149 40.5073 76.07 38.6115 76.5917C37.5502 76.884 36.1306 77.0464 34.6702 77.0808C33.9627 77.098 33.6407 77.3006 34.1441 77.4229L40.7386 78.9458L47.4736 77.3082C48.1086 77.1534 49.2198 77.2509 49.2833 77.4706C49.3785 77.8184 49.9998 78.1585 51.1428 78.4165C53.3424 78.9133 56.8483 78.9171 59.0389 78.4241C61.4653 77.8776 61.5061 76.9547 59.1749 76.3872C58.1318 76.1331 56.7984 75.9955 55.4423 75.9745C54.5443 75.9592 54.1497 75.6859 54.7892 75.5311L61.4517 73.9203L42.9246 69.5292C41.5776 69.2025 39.9177 69.2025 38.5707 69.5292L20.0391 74.0254L26.6018 75.5885C27.1007 75.7108 27.9397 75.6343 28.0032 75.4624C28.1347 75.1356 28.7107 74.8146 29.7403 74.5643Z" fill="url(#paint12_linear_501_36679)"/>
<path d="M29.7403 74.5643C32.1848 73.97 36.2123 73.9929 38.5661 74.6331C40.4665 75.149 40.5073 76.07 38.6115 76.5917C37.5502 76.884 36.1306 77.0464 34.6702 77.0808C33.9627 77.098 33.6407 77.3006 34.1441 77.4229L40.7386 78.9458L47.4736 77.3082C48.1086 77.1534 49.2198 77.2509 49.2833 77.4706C49.3785 77.8184 49.9998 78.1585 51.1428 78.4165C53.3424 78.9133 56.8483 78.9171 59.0389 78.4241C61.4653 77.8776 61.5061 76.9547 59.1749 76.3872C58.1318 76.1331 56.7984 75.9955 55.4423 75.9745C54.5443 75.9592 54.1497 75.6859 54.7892 75.5311L61.4517 73.9203L42.9246 69.5292C41.5776 69.2025 39.9177 69.2025 38.5707 69.5292L20.0391 74.0254L26.6018 75.5885C27.1007 75.7108 27.9397 75.6343 28.0032 75.4624C28.1347 75.1356 28.7107 74.8146 29.7403 74.5643Z" fill="url(#paint13_linear_501_36679)"/>
<path d="M29.7403 74.5643C32.1848 73.97 36.2123 73.9929 38.5661 74.6331C40.4665 75.149 40.5073 76.07 38.6115 76.5917C37.5502 76.884 36.1306 77.0464 34.6702 77.0808C33.9627 77.098 33.6407 77.3006 34.1441 77.4229L40.7386 78.9458L47.4736 77.3082C48.1086 77.1534 49.2198 77.2509 49.2833 77.4706C49.3785 77.8184 49.9998 78.1585 51.1428 78.4165C53.3424 78.9133 56.8483 78.9171 59.0389 78.4241C61.4653 77.8776 61.5061 76.9547 59.1749 76.3872C58.1318 76.1331 56.7984 75.9955 55.4423 75.9745C54.5443 75.9592 54.1497 75.6859 54.7892 75.5311L61.4517 73.9203L42.9246 69.5292C41.5776 69.2025 39.9177 69.2025 38.5707 69.5292L20.0391 74.0254L26.6018 75.5885C27.1007 75.7108 27.9397 75.6343 28.0032 75.4624C28.1347 75.1356 28.7107 74.8146 29.7403 74.5643Z" fill="url(#paint14_linear_501_36679)" fill-opacity="0.5"/>
<path d="M52.0438 72.7662C51.5449 72.8888 50.7059 72.8083 50.6333 72.6359C50.4837 72.2794 49.8034 71.9326 48.5969 71.6701C46.4154 71.1987 42.8052 71.191 40.6147 71.6547C38.8731 72.0227 38.229 72.5707 38.669 73.0766C38.474 73.3008 38.4921 78.6777 38.7234 78.9C39.0137 78.6202 39.6441 78.3577 40.6192 78.1527C42.8098 77.689 46.4154 77.6966 48.6015 78.168C49.8124 78.4286 50.4882 78.7755 50.6379 79.1338C50.7104 79.3062 51.5449 79.3867 52.0484 79.2641L59.0918 77.5146V71.7525V71.6375V71.0186L52.0438 72.7662Z" fill="url(#paint15_linear_501_36679)"/>
<path d="M52.0438 72.7662C51.5449 72.8888 50.7059 72.8083 50.6333 72.6359C50.4837 72.2794 49.8034 71.9326 48.5969 71.6701C46.4154 71.1987 42.8052 71.191 40.6147 71.6547C38.8731 72.0227 38.229 72.5707 38.669 73.0766C38.474 73.3008 38.4921 78.6777 38.7234 78.9C39.0137 78.6202 39.6441 78.3577 40.6192 78.1527C42.8098 77.689 46.4154 77.6966 48.6015 78.168C49.8124 78.4286 50.4882 78.7755 50.6379 79.1338C50.7104 79.3062 51.5449 79.3867 52.0484 79.2641L59.0918 77.5146V71.7525V71.6375V71.0186L52.0438 72.7662Z" fill="url(#paint16_linear_501_36679)"/>
<path d="M52.0438 72.7662C51.5449 72.8888 50.7059 72.8083 50.6333 72.6359C50.4837 72.2794 49.8034 71.9326 48.5969 71.6701C46.4154 71.1987 42.8052 71.191 40.6147 71.6547C38.8731 72.0227 38.229 72.5707 38.669 73.0766C38.474 73.3008 38.4921 78.6777 38.7234 78.9C39.0137 78.6202 39.6441 78.3577 40.6192 78.1527C42.8098 77.689 46.4154 77.6966 48.6015 78.168C49.8124 78.4286 50.4882 78.7755 50.6379 79.1338C50.7104 79.3062 51.5449 79.3867 52.0484 79.2641L59.0918 77.5146V71.7525V71.6375V71.0186L52.0438 72.7662Z" fill="url(#paint17_linear_501_36679)"/>
<path d="M50.6333 72.6337C50.4837 72.2773 49.8034 71.9305 48.5969 71.668C46.4154 71.1966 42.8052 71.1889 40.6147 71.6526C38.8731 72.0205 38.229 72.5686 38.669 73.0745C38.474 73.2987 38.4921 78.6756 38.7234 78.8979C39.0137 78.6181 39.6441 78.3556 40.6192 78.1506C42.8098 77.6868 46.4154 77.6945 48.6015 78.1659C49.8124 78.4265 50.4882 78.7733 50.6379 79.1317V72.6337H50.6333Z" fill="url(#paint18_linear_501_36679)"/>
<path d="M50.6333 72.6337C50.4837 72.2773 49.8034 71.9305 48.5969 71.668C46.4154 71.1966 42.8052 71.1889 40.6147 71.6526C38.8731 72.0205 38.229 72.5686 38.669 73.0745C38.474 73.2987 38.4921 78.6756 38.7234 78.8979C39.0137 78.6181 39.6441 78.3556 40.6192 78.1506C42.8098 77.6868 46.4154 77.6945 48.6015 78.1659C49.8124 78.4265 50.4882 78.7733 50.6379 79.1317V72.6337H50.6333Z" fill="url(#paint19_linear_501_36679)"/>
<path d="M50.6333 72.6337C50.4837 72.2773 49.8034 71.9305 48.5969 71.668C46.4154 71.1966 42.8052 71.1889 40.6147 71.6526C38.8731 72.0205 38.229 72.5686 38.669 73.0745C38.474 73.2987 38.4921 78.6756 38.7234 78.8979C39.0137 78.6181 39.6441 78.3556 40.6192 78.1506C42.8098 77.6868 46.4154 77.6945 48.6015 78.1659C49.8124 78.4265 50.4882 78.7733 50.6379 79.1317V72.6337H50.6333Z" fill="url(#paint20_linear_501_36679)"/>
<path d="M38.1797 82.6586L44.5519 81.0912C44.7469 81.0433 44.8104 80.9839 44.7832 80.9283V74.4648C44.7741 74.5108 44.7061 74.5568 44.5519 74.5951L38.1842 76.1626H38.1797V76.1645V82.6586Z" fill="url(#paint21_linear_501_36679)"/>
<path d="M38.1797 82.6586L44.5519 81.0912C44.7469 81.0433 44.8104 80.9839 44.7832 80.9283V74.4648C44.7741 74.5108 44.7061 74.5568 44.5519 74.5951L38.1842 76.1626H38.1797V76.1645V82.6586Z" fill="url(#paint22_linear_501_36679)"/>
<path d="M38.1797 82.6586L44.5519 81.0912C44.7469 81.0433 44.8104 80.9839 44.7832 80.9283V74.4648C44.7741 74.5108 44.7061 74.5568 44.5519 74.5951L38.1842 76.1626H38.1797V76.1645V82.6586Z" fill="url(#paint23_linear_501_36679)"/>
<path d="M38.1793 76.161V82.659L17.0762 77.579V71.083L38.1793 76.161Z" fill="url(#paint24_linear_501_36679)"/>
<path d="M38.1793 76.161V82.659L17.0762 77.579V71.083L38.1793 76.161Z" fill="url(#paint25_linear_501_36679)"/>
<path d="M38.1793 76.161V82.659L17.0762 77.579V71.083L38.1793 76.161Z" fill="url(#paint26_linear_501_36679)"/>
<path d="M57.8829 71.1555V67.4121L50.9022 68.5465L50.3652 69.2271L57.8829 71.1555Z" fill="#D9D9D9"/>
<path d="M57.8829 71.1555V67.4121L50.9022 68.5465L50.3652 69.2271L57.8829 71.1555Z" fill="url(#paint27_linear_501_36679)"/>
<path d="M57.8829 71.1555V67.4121L50.9022 68.5465L50.3652 69.2271L57.8829 71.1555Z" fill="url(#paint28_linear_501_36679)"/>
<path d="M38.18 76.1625L44.5522 74.595C45.0511 74.4743 44.7291 74.2693 44.0261 74.252C42.6745 74.2194 41.3593 74.0757 40.3207 73.8228C37.8398 73.2173 37.9351 72.2227 40.6155 71.6555C42.8061 71.1918 46.4117 71.1995 48.5978 71.6709C49.8087 71.9315 50.4845 72.2783 50.6341 72.6366C50.7067 72.8091 51.5412 72.8896 52.0447 72.7669L59.0881 71.0174L51.8179 69.2871C51.1784 69.1299 51.573 68.8598 52.4755 68.8463C53.8996 68.8253 55.2965 68.6758 56.3533 68.3979C58.3851 67.8633 58.3761 67.0106 56.3351 66.4721C54.072 65.8781 50.2713 65.8628 47.9583 66.4261C46.9242 66.6791 46.3663 67.0029 46.2802 67.3344C46.2257 67.5529 45.101 67.6468 44.4615 67.4916L37.9804 65.9375H37.9759L17.0768 71.0826H17.0723L38.18 76.1625Z" fill="url(#paint29_linear_501_36679)"/>
<path d="M38.18 76.1625L44.5522 74.595C45.0511 74.4743 44.7291 74.2693 44.0261 74.252C42.6745 74.2194 41.3593 74.0757 40.3207 73.8228C37.8398 73.2173 37.9351 72.2227 40.6155 71.6555C42.8061 71.1918 46.4117 71.1995 48.5978 71.6709C49.8087 71.9315 50.4845 72.2783 50.6341 72.6366C50.7067 72.8091 51.5412 72.8896 52.0447 72.7669L59.0881 71.0174L51.8179 69.2871C51.1784 69.1299 51.573 68.8598 52.4755 68.8463C53.8996 68.8253 55.2965 68.6758 56.3533 68.3979C58.3851 67.8633 58.3761 67.0106 56.3351 66.4721C54.072 65.8781 50.2713 65.8628 47.9583 66.4261C46.9242 66.6791 46.3663 67.0029 46.2802 67.3344C46.2257 67.5529 45.101 67.6468 44.4615 67.4916L37.9804 65.9375H37.9759L17.0768 71.0826H17.0723L38.18 76.1625Z" fill="url(#paint30_linear_501_36679)"/>
<path d="M38.18 76.1625L44.5522 74.595C45.0511 74.4743 44.7291 74.2693 44.0261 74.252C42.6745 74.2194 41.3593 74.0757 40.3207 73.8228C37.8398 73.2173 37.9351 72.2227 40.6155 71.6555C42.8061 71.1918 46.4117 71.1995 48.5978 71.6709C49.8087 71.9315 50.4845 72.2783 50.6341 72.6366C50.7067 72.8091 51.5412 72.8896 52.0447 72.7669L59.0881 71.0174L51.8179 69.2871C51.1784 69.1299 51.573 68.8598 52.4755 68.8463C53.8996 68.8253 55.2965 68.6758 56.3533 68.3979C58.3851 67.8633 58.3761 67.0106 56.3351 66.4721C54.072 65.8781 50.2713 65.8628 47.9583 66.4261C46.9242 66.6791 46.3663 67.0029 46.2802 67.3344C46.2257 67.5529 45.101 67.6468 44.4615 67.4916L37.9804 65.9375H37.9759L17.0768 71.0826H17.0723L38.18 76.1625Z" fill="url(#paint31_linear_501_36679)"/>
</g>
<path fill-rule="evenodd" clip-rule="evenodd" d="M76.1482 44.7687V44.7682L39.8755 65.7116L39.8755 65.7128C37.7459 66.9421 34.9765 67.5727 32.1939 67.6045V67.5964C29.2655 67.631 26.3198 67.0072 24.0903 65.7077L24.0903 65.7128C24.0903 65.7127 24.0902 65.7127 24.0901 65.7127L24.1017 69.8829C28.4452 72.407 35.5149 72.407 39.8872 69.8829L39.8872 69.8817L76.1591 48.9388V48.9393C78.3598 47.6686 79.4572 45.9993 79.4514 44.3359L79.4399 40.1709C79.4433 41.8325 78.3403 43.4994 76.1482 44.7687ZM11.6717 59.9999L11.6602 55.8297C11.6659 57.4759 12.746 59.1162 14.9004 60.3696L14.9004 60.3711L24.0894 65.7135L24.1009 69.8837L14.9172 64.5409L14.9015 60.7604L14.912 64.5398C12.7576 63.2864 11.6775 61.6461 11.6717 59.9999Z" fill="#C9EDDB"/>
<path fill-rule="evenodd" clip-rule="evenodd" d="M76.1482 44.7687V44.7682L39.8755 65.7116L39.8755 65.7128C37.7459 66.9421 34.9765 67.5727 32.1939 67.6045V67.5964C29.2655 67.631 26.3198 67.0072 24.0903 65.7077L24.0903 65.7128C24.0903 65.7127 24.0902 65.7127 24.0901 65.7127L24.1017 69.8829C28.4452 72.407 35.5149 72.407 39.8872 69.8829L39.8872 69.8817L76.1591 48.9388V48.9393C78.3598 47.6686 79.4572 45.9993 79.4514 44.3359L79.4399 40.1709C79.4433 41.8325 78.3403 43.4994 76.1482 44.7687ZM11.6717 59.9999L11.6602 55.8297C11.6659 57.4759 12.746 59.1162 14.9004 60.3696L14.9004 60.3711L24.0894 65.7135L24.1009 69.8837L14.9172 64.5409L14.9015 60.7604L14.912 64.5398C12.7576 63.2864 11.6775 61.6461 11.6717 59.9999Z" fill="url(#paint32_linear_501_36679)"/>
<path d="M14.9507 51.2281C10.5784 53.7522 10.5553 57.8473 14.8988 60.3713L24.0882 65.7083C28.4317 68.2324 35.5014 68.2324 39.8738 65.7083L76.1465 44.7648C80.5188 42.2408 80.5419 38.1457 76.1984 35.6216L67.009 30.2847C62.6655 27.7606 55.5958 27.7606 51.2234 30.2847L14.9507 51.2281Z" fill="#F0FAF6"/>
<path d="M71.1777 17.0447L71.2644 43.4388C73.1127 42.3703 74.031 40.9725 74.031 39.5748L73.9444 13.1807C73.9444 14.5784 73.026 15.9762 71.1777 17.0447Z" fill="#76B1CF"/>
<path d="M71.1777 17.0447L71.2644 43.4388C73.1127 42.3703 74.031 40.9725 74.031 39.5748L73.9444 13.1807C73.9444 14.5784 73.026 15.9762 71.1777 17.0447Z" fill="url(#paint33_linear_501_36679)"/>
<path d="M40.7461 34.6152L40.8385 61.0073L71.2718 43.437L71.1793 17.0449L40.7461 34.6152Z" fill="#76B1CF"/>
<path d="M40.7461 34.6152L40.8385 61.0073L71.2718 43.437L71.1793 17.0449L40.7461 34.6152Z" fill="url(#paint34_linear_501_36679)"/>
<path fill-rule="evenodd" clip-rule="evenodd" d="M17.1627 52.7231L17.0762 26.3477C17.0852 27.7211 17.992 29.0873 19.7966 30.1333L19.8832 56.5294C18.0753 55.4782 17.1685 54.1035 17.1627 52.7231ZM19.8833 56.5328L19.7966 30.1328L27.5017 34.6149L27.5017 34.6163C29.3291 35.6774 31.7269 36.2073 34.1261 36.206V36.2046C35.1054 36.2046 36.0846 36.1159 37.0253 35.9389C38.3844 35.6826 39.6633 35.2417 40.7456 34.6162L40.7456 34.6194C40.7474 34.6183 40.7492 34.6173 40.751 34.6163L40.8377 60.9993C40.8359 61.0004 40.834 61.0014 40.8322 61.0025L40.8322 61.0048C37.1665 63.1234 31.2392 63.1246 27.5941 61.0083L27.5941 61.0149L19.8833 56.5328Z" fill="#76B1CF"/>
<path fill-rule="evenodd" clip-rule="evenodd" d="M17.1627 52.7231L17.0762 26.3477C17.0852 27.7211 17.992 29.0873 19.7966 30.1333L19.8832 56.5294C18.0753 55.4782 17.1685 54.1035 17.1627 52.7231ZM19.8833 56.5328L19.7966 30.1328L27.5017 34.6149L27.5017 34.6163C29.3291 35.6774 31.7269 36.2073 34.1261 36.206V36.2046C35.1054 36.2046 36.0846 36.1159 37.0253 35.9389C38.3844 35.6826 39.6633 35.2417 40.7456 34.6162L40.7456 34.6194C40.7474 34.6183 40.7492 34.6173 40.751 34.6163L40.8377 60.9993C40.8359 61.0004 40.834 61.0014 40.8322 61.0025L40.8322 61.0048C37.1665 63.1234 31.2392 63.1246 27.5941 61.0083L27.5941 61.0149L19.8833 56.5328Z" fill="url(#paint35_linear_501_36679)"/>
<path d="M19.8368 22.4619C16.1691 24.5816 16.146 28.0125 19.7964 30.1323L27.5014 34.6144C31.146 36.7341 37.0779 36.7341 40.7456 34.6144L71.1788 17.0441C74.8465 14.9243 74.8696 11.4934 71.2193 9.37368L63.5142 4.89158C59.8696 2.77182 53.9377 2.77182 50.2701 4.89158L19.8368 22.4619Z" fill="#F2F4F5"/>
<path fill-rule="evenodd" clip-rule="evenodd" d="M74.3432 14.1787L74.3428 14.179L36.1745 36.2169C33.9335 37.5105 31.0192 38.1741 28.091 38.2075V38.1984C25.0095 38.2349 21.9098 37.5785 19.5637 36.2109L19.5637 36.2169C19.5637 36.2169 19.5637 36.2169 19.5636 36.2169L19.5638 36.2631L14.9946 33.5633L14.9947 33.5982C12.7647 32.2835 11.6467 30.5715 11.6406 28.8535L11.6528 33.2417C11.6589 34.9739 12.7954 36.7001 15.0625 38.019L15.0624 37.9809L19.9942 40.8985L19.994 40.8366C24.5893 43.2587 31.7231 43.1816 36.1863 40.6053L36.1866 40.6051L74.3549 18.5672L74.3554 18.5669L74.3432 14.1787Z" fill="#C9EDDB"/>
<path fill-rule="evenodd" clip-rule="evenodd" d="M74.3432 14.1787L74.3428 14.179L36.1745 36.2169C33.9335 37.5105 31.0192 38.1741 28.091 38.2075V38.1984C25.0095 38.2349 21.9098 37.5785 19.5637 36.2109L19.5637 36.2169C19.5637 36.2169 19.5637 36.2169 19.5636 36.2169L19.5638 36.2631L14.9946 33.5633L14.9947 33.5982C12.7647 32.2835 11.6467 30.5715 11.6406 28.8535L11.6528 33.2417C11.6589 34.9739 12.7954 36.7001 15.0625 38.019L15.0624 37.9809L19.9942 40.8985L19.994 40.8366C24.5893 43.2587 31.7231 43.1816 36.1863 40.6053L36.1866 40.6051L74.3549 18.5672L74.3554 18.5669L74.3432 14.1787Z" fill="url(#paint36_linear_501_36679)"/>
<path fill-rule="evenodd" clip-rule="evenodd" d="M74.3432 14.1787L74.3428 14.179L36.1745 36.2169C33.9335 37.5105 31.0192 38.1741 28.091 38.2075V38.1984C25.0095 38.2349 21.9098 37.5785 19.5637 36.2109L19.5637 36.2169C19.5637 36.2169 19.5637 36.2169 19.5636 36.2169L19.5638 36.2631L14.9946 33.5633L14.9947 33.5982C12.7647 32.2835 11.6467 30.5715 11.6406 28.8535L11.6528 33.2417C11.6589 34.9739 12.7954 36.7001 15.0625 38.019L15.0624 37.9809L19.9942 40.8985L19.994 40.8366C24.5893 43.2587 31.7231 43.1816 36.1863 40.6053L36.1866 40.6051L74.3549 18.5672L74.3554 18.5669L74.3432 14.1787Z" fill="url(#paint37_linear_501_36679)"/>
<path d="M15.1074 24.0304C10.5064 26.6864 10.4821 30.9957 15.0527 33.6517L19.5634 36.2105C24.134 38.8665 31.5733 38.8665 36.1742 36.2105L74.3433 14.1721C78.9443 11.5161 78.9686 7.20685 74.398 4.55082L69.8873 1.99202C65.3167 -0.664008 57.8774 -0.664008 53.2764 1.99202L15.1074 24.0304Z" fill="#F0FAF6"/>
<path d="M15.1074 24.0304C10.5064 26.6864 10.4821 30.9957 15.0527 33.6517L19.5634 36.2105C24.134 38.8665 31.5733 38.8665 36.1742 36.2105L74.3433 14.1721C78.9443 11.5161 78.9686 7.20685 74.398 4.55082L69.8873 1.99202C65.3167 -0.664008 57.8774 -0.664008 53.2764 1.99202L15.1074 24.0304Z" fill="#F0FAF6"/>
<defs>
<filter id="filter0_f_501_36679" x="-2.92773" y="45.9375" width="102.369" height="56.7217" filterUnits="userSpaceOnUse" color-interpolation-filters="sRGB">
<feFlood flood-opacity="0" result="BackgroundImageFix"/>
<feBlend mode="normal" in="SourceGraphic" in2="BackgroundImageFix" result="shape"/>
<feGaussianBlur stdDeviation="10" result="effect1_foregroundBlur_501_36679"/>
</filter>
<linearGradient id="paint0_linear_501_36679" x1="74.8209" y1="73.3685" x2="89.1929" y2="73.3685" gradientUnits="userSpaceOnUse">
<stop offset="0.0354" stop-color="#138BBD"/>
<stop offset="0.2257" stop-color="#169AC7"/>
<stop offset="0.5946" stop-color="#1FC3DF"/>
<stop offset="1" stop-color="#2AF6FF"/>
</linearGradient>
<linearGradient id="paint1_linear_501_36679" x1="75.9422" y1="69.4521" x2="75.9422" y2="77.2895" gradientUnits="userSpaceOnUse">
<stop stop-color="#D4F2E4"/>
<stop offset="1" stop-color="#A8DFF9"/>
</linearGradient>
<linearGradient id="paint2_linear_501_36679" x1="75.9422" y1="69.4521" x2="75.9422" y2="77.2895" gradientUnits="userSpaceOnUse">
<stop stop-color="#D4F2E4"/>
<stop offset="1" stop-color="#71D5A4"/>
</linearGradient>
<linearGradient id="paint3_linear_501_36679" x1="75.2531" y1="77.205" x2="73.5648" y2="66.9453" gradientUnits="userSpaceOnUse">
<stop stop-color="#D4F2E4"/>
<stop offset="1" stop-color="#71D5A4"/>
</linearGradient>
<linearGradient id="paint4_linear_501_36679" x1="75.3489" y1="77.8656" x2="75.0974" y2="69.4251" gradientUnits="userSpaceOnUse">
<stop stop-color="#E0F1E9"/>
<stop offset="1" stop-color="#EFFDF7"/>
</linearGradient>
<linearGradient id="paint5_linear_501_36679" x1="23.218" y1="64.3581" x2="37.8221" y2="94.0841" gradientUnits="userSpaceOnUse">
<stop offset="0.0354" stop-color="#138BBD"/>
<stop offset="0.2257" stop-color="#169AC7"/>
<stop offset="0.5946" stop-color="#1FC3DF"/>
<stop offset="1" stop-color="#2AF6FF"/>
</linearGradient>
<linearGradient id="paint6_linear_501_36679" x1="47.9988" y1="69.5576" x2="47.9988" y2="77.6812" gradientUnits="userSpaceOnUse">
<stop stop-color="#D4F2E4"/>
<stop offset="1" stop-color="#A8DFF9"/>
</linearGradient>
<linearGradient id="paint7_linear_501_36679" x1="47.9988" y1="69.5576" x2="47.9988" y2="77.6812" gradientUnits="userSpaceOnUse">
<stop stop-color="#D4F2E4"/>
<stop offset="1" stop-color="#71D5A4"/>
</linearGradient>
<linearGradient id="paint8_linear_501_36679" x1="26.2572" y1="66.3842" x2="40.8612" y2="96.1102" gradientUnits="userSpaceOnUse">
<stop offset="0.0354" stop-color="#138BBD"/>
<stop offset="0.2257" stop-color="#169AC7"/>
<stop offset="0.5946" stop-color="#1FC3DF"/>
<stop offset="1" stop-color="#2AF6FF"/>
</linearGradient>
<linearGradient id="paint9_linear_501_36679" x1="55.2955" y1="72.8916" x2="55.2955" y2="80.9877" gradientUnits="userSpaceOnUse">
<stop stop-color="#D4F2E4"/>
<stop offset="1" stop-color="#A8DFF9"/>
</linearGradient>
<linearGradient id="paint10_linear_501_36679" x1="55.2955" y1="72.8916" x2="55.2955" y2="80.9877" gradientUnits="userSpaceOnUse">
<stop stop-color="#D4F2E4"/>
<stop offset="1" stop-color="#71D5A4"/>
</linearGradient>
<linearGradient id="paint11_linear_501_36679" x1="54.7158" y1="81.5828" x2="54.4411" y2="72.8646" gradientUnits="userSpaceOnUse">
<stop stop-color="#E0F1E9"/>
<stop offset="1" stop-color="#EFFDF7"/>
</linearGradient>
<linearGradient id="paint12_linear_501_36679" x1="58.5476" y1="58.264" x2="54.4481" y2="80.6538" gradientUnits="userSpaceOnUse">
<stop offset="0.0354" stop-color="#138BBD"/>
<stop offset="0.2257" stop-color="#169AC7"/>
<stop offset="0.5946" stop-color="#1FC3DF"/>
<stop offset="1" stop-color="#2AF6FF"/>
</linearGradient>
<linearGradient id="paint13_linear_501_36679" x1="40.7454" y1="69.2842" x2="40.7454" y2="78.9458" gradientUnits="userSpaceOnUse">
<stop stop-color="#F0FEF8"/>
<stop offset="1" stop-color="#E0F1E9"/>
</linearGradient>
<linearGradient id="paint14_linear_501_36679" x1="61.1811" y1="78.7749" x2="35.1301" y2="51.822" gradientUnits="userSpaceOnUse">
<stop stop-color="#245795"/>
<stop offset="1" stop-color="#8AD3A8"/>
</linearGradient>
<linearGradient id="paint15_linear_501_36679" x1="38.6642" y1="75.6789" x2="91.8002" y2="63.8885" gradientUnits="userSpaceOnUse">
<stop offset="0.0354" stop-color="#9F19AB"/>
<stop offset="0.2438" stop-color="#AE25B1"/>
<stop offset="0.6455" stop-color="#D744BF"/>
<stop offset="1" stop-color="#FF63CE"/>
</linearGradient>
<linearGradient id="paint16_linear_501_36679" x1="38.5352" y1="75.196" x2="59.0918" y2="75.196" gradientUnits="userSpaceOnUse">
<stop stop-color="#245795"/>
<stop offset="1" stop-color="#8AD3A8"/>
</linearGradient>
<linearGradient id="paint17_linear_501_36679" x1="46.7892" y1="79.2335" x2="46.1288" y2="68.1071" gradientUnits="userSpaceOnUse">
<stop stop-color="#D4F2E4"/>
<stop offset="1" stop-color="#71D5A4"/>
</linearGradient>
<linearGradient id="paint18_linear_501_36679" x1="38.5331" y1="75.221" x2="58.9013" y2="75.221" gradientUnits="userSpaceOnUse">
<stop offset="0.0354" stop-color="#9F19AB"/>
<stop offset="0.2438" stop-color="#AE25B1"/>
<stop offset="0.6455" stop-color="#D744BF"/>
<stop offset="1" stop-color="#FF63CE"/>
</linearGradient>
<linearGradient id="paint19_linear_501_36679" x1="38.5352" y1="75.2443" x2="50.6379" y2="75.2443" gradientUnits="userSpaceOnUse">
<stop stop-color="#245795"/>
<stop offset="1" stop-color="#8AD3A8"/>
</linearGradient>
<linearGradient id="paint20_linear_501_36679" x1="43.3947" y1="79.0473" x2="42.4049" y2="68.6244" gradientUnits="userSpaceOnUse">
<stop stop-color="#D4F2E4"/>
<stop offset="1" stop-color="#71D5A4"/>
</linearGradient>
<linearGradient id="paint21_linear_501_36679" x1="39.3236" y1="78.6471" x2="92.4595" y2="66.8568" gradientUnits="userSpaceOnUse">
<stop offset="0.0354" stop-color="#9F19AB"/>
<stop offset="0.2438" stop-color="#AE25B1"/>
<stop offset="0.6455" stop-color="#D744BF"/>
<stop offset="1" stop-color="#FF63CE"/>
</linearGradient>
<linearGradient id="paint22_linear_501_36679" x1="38.1797" y1="78.5866" x2="44.7892" y2="78.5866" gradientUnits="userSpaceOnUse">
<stop stop-color="#245795"/>
<stop offset="1" stop-color="#8AD3A8"/>
</linearGradient>
<linearGradient id="paint23_linear_501_36679" x1="40.8336" y1="82.5702" x2="38.8914" y2="71.9073" gradientUnits="userSpaceOnUse">
<stop stop-color="#D4F2E4"/>
<stop offset="1" stop-color="#71D5A4"/>
</linearGradient>
<linearGradient id="paint24_linear_501_36679" x1="-0.239401" y1="66.4847" x2="14.9469" y2="98.1895" gradientUnits="userSpaceOnUse">
<stop offset="0.0354" stop-color="#9F19AB"/>
<stop offset="0.2438" stop-color="#AE25B1"/>
<stop offset="0.6455" stop-color="#D744BF"/>
<stop offset="1" stop-color="#FF63CE"/>
</linearGradient>
<linearGradient id="paint25_linear_501_36679" x1="17.0762" y1="76.9061" x2="38.1793" y2="76.9061" gradientUnits="userSpaceOnUse">
<stop stop-color="#245795"/>
<stop offset="1" stop-color="#8AD3A8"/>
</linearGradient>
<linearGradient id="paint26_linear_501_36679" x1="25.5496" y1="82.5341" x2="24.3033" y2="67.0705" gradientUnits="userSpaceOnUse">
<stop stop-color="#D4F2E4"/>
<stop offset="1" stop-color="#71D5A4"/>
</linearGradient>
<linearGradient id="paint27_linear_501_36679" x1="53.4867" y1="71.4307" x2="53.4332" y2="67.3963" gradientUnits="userSpaceOnUse">
<stop stop-color="#E0F1E9"/>
<stop offset="1" stop-color="#EFFDF7"/>
</linearGradient>
<linearGradient id="paint28_linear_501_36679" x1="61.6417" y1="70.4749" x2="50.8809" y2="67.689" gradientUnits="userSpaceOnUse">
<stop stop-color="#D4F2E4"/>
<stop offset="1" stop-color="#71D5A4"/>
</linearGradient>
<linearGradient id="paint29_linear_501_36679" x1="46.4343" y1="51.5954" x2="44.6535" y2="74.8243" gradientUnits="userSpaceOnUse">
<stop offset="0.0354" stop-color="#9F19AB"/>
<stop offset="0.2438" stop-color="#AE25B1"/>
<stop offset="0.6455" stop-color="#D744BF"/>
<stop offset="1" stop-color="#FF63CE"/>
</linearGradient>
<linearGradient id="paint30_linear_501_36679" x1="17.0723" y1="71.081" x2="59.0881" y2="71.081" gradientUnits="userSpaceOnUse">
<stop stop-color="#245795"/>
<stop offset="1" stop-color="#8AD3A8"/>
</linearGradient>
<linearGradient id="paint31_linear_501_36679" x1="33.9427" y1="76.0522" x2="33.4518" y2="62.3221" gradientUnits="userSpaceOnUse">
<stop stop-color="#D4F2E4"/>
<stop offset="1" stop-color="#71D5A4"/>
</linearGradient>
<linearGradient id="paint32_linear_501_36679" x1="38.8801" y1="71.435" x2="35.9829" y2="29.14" gradientUnits="userSpaceOnUse">
<stop stop-color="#D4F2E4"/>
<stop offset="1" stop-color="#71D5A4"/>
</linearGradient>
<linearGradient id="paint33_linear_501_36679" x1="72.6798" y1="9.80165" x2="98.5822" y2="58.3078" gradientUnits="userSpaceOnUse">
<stop stop-color="#245795"/>
<stop offset="1" stop-color="#8AD3A8"/>
</linearGradient>
<linearGradient id="paint34_linear_501_36679" x1="56.0089" y1="14.6014" x2="62.4193" y2="74.4261" gradientUnits="userSpaceOnUse">
<stop stop-color="#245795"/>
<stop offset="1" stop-color="#8AD3A8"/>
</linearGradient>
<linearGradient id="paint35_linear_501_36679" x1="30.045" y1="24.4952" x2="35.9493" y2="67.5469" gradientUnits="userSpaceOnUse">
<stop stop-color="#245795"/>
<stop offset="0.971765" stop-color="#8AD3A8"/>
</linearGradient>
<linearGradient id="paint36_linear_501_36679" x1="22.3931" y1="42.5301" x2="21.6744" y2="35.2752" gradientUnits="userSpaceOnUse">
<stop stop-color="#D4F2E4"/>
<stop offset="1" stop-color="#71D5A4"/>
</linearGradient>
<linearGradient id="paint37_linear_501_36679" x1="36.8222" y1="42.2905" x2="34.2896" y2="4.25025" gradientUnits="userSpaceOnUse">
<stop stop-color="#D4F2E4"/>
<stop offset="1" stop-color="#71D5A4"/>
</linearGradient>
</defs>
</svg>
