<svg width="128" height="83" viewBox="0 0 128 83" fill="none" xmlns="http://www.w3.org/2000/svg">
<path d="M101.552 14.3711L92.8574 19.3641C92.0282 19.8439 92.5376 20.6908 93.7103 20.7382C93.734 20.7382 93.7577 20.7442 93.7755 20.7442L92.8515 21.2772C92.0223 21.757 92.5316 22.6039 93.7044 22.6513C93.9117 22.6573 94.119 38.5781 94.3263 38.5958L101.552 34.4557L101.546 34.4498H101.582V14.3711H101.552Z" fill="url(#paint0_linear_501_36624)"/>
<path d="M101.552 14.3711L92.8574 19.3641C92.0282 19.8439 92.5376 20.6908 93.7103 20.7382C93.734 20.7382 93.7577 20.7442 93.7755 20.7442L92.8515 21.2772C92.0223 21.757 92.5316 22.6039 93.7044 22.6513C93.9117 22.6573 94.119 38.5781 94.3263 38.5958L101.552 34.4557L101.546 34.4498H101.582V14.3711H101.552Z" fill="url(#paint1_linear_501_36624)"/>
<path d="M101.552 14.3711L92.8574 19.3641C92.0282 19.8439 92.5376 20.6908 93.7103 20.7382C93.734 20.7382 93.7577 20.7442 93.7755 20.7442L92.8515 21.2772C92.0223 21.757 92.5316 22.6039 93.7044 22.6513C93.9117 22.6573 94.119 38.5781 94.3263 38.5958L101.552 34.4557L101.546 34.4498H101.582V14.3711H101.552Z" fill="url(#paint2_linear_501_36624)"/>
<path d="M101.552 14.3711L92.8574 19.3641C92.0282 19.8439 92.5376 20.6908 93.7103 20.7382C93.734 20.7382 93.7577 20.7442 93.7755 20.7442L92.8515 21.2772C92.0223 21.757 92.5316 22.6039 93.7044 22.6513C93.9117 22.6573 94.119 38.5781 94.3263 38.5958L101.552 34.4557L101.546 34.4498H101.582V14.3711H101.552Z" fill="url(#paint3_linear_501_36624)"/>
<path d="M101.552 14.3711L92.8574 19.3641C92.0282 19.8439 92.5376 20.6908 93.7103 20.7382C93.734 20.7382 93.7577 20.7442 93.7755 20.7442L92.8515 21.2772C92.0223 21.757 92.5316 22.6039 93.7044 22.6513C93.9117 22.6573 94.119 38.5781 94.3263 38.5958L101.552 34.4557L101.546 34.4498H101.582V14.3711H101.552Z" fill="url(#paint4_linear_501_36624)"/>
<path d="M101.552 14.3711L92.8574 19.3641C92.0282 19.8439 92.5376 20.6908 93.7103 20.7382C93.734 20.7382 93.7577 20.7442 93.7755 20.7442L92.8515 21.2772C92.0223 21.757 92.5316 22.6039 93.7044 22.6513C93.9117 22.6573 94.119 38.5781 94.3263 38.5958L101.552 34.4557L101.546 34.4498H101.582V14.3711H101.552Z" fill="url(#paint5_linear_501_36624)"/>
<path d="M71.6775 36.6595C72.5068 37.1984 73.0576 37.8736 73.3419 38.5962C73.6143 37.9151 73.6321 21.2895 73.407 20.5965C73.869 19.1809 73.2886 17.6173 71.6775 16.5748C68.6095 14.5907 63.344 14.5196 60.1515 16.3616C58.807 17.1375 58.0489 18.1266 57.8831 19.1454C57.7942 19.6725 56.7044 19.9094 56.0529 19.5363L47.4824 14.6973V34.776L56.0529 39.6209C56.7044 40 57.8001 39.7631 57.8831 39.23C58.0489 38.2113 58.8011 37.2221 60.1515 36.4462C63.344 34.6042 68.6095 34.6812 71.6775 36.6595Z" fill="url(#paint6_linear_501_36624)"/>
<path d="M71.6775 36.6595C72.5068 37.1984 73.0576 37.8736 73.3419 38.5962C73.6143 37.9151 73.6321 21.2895 73.407 20.5965C73.869 19.1809 73.2886 17.6173 71.6775 16.5748C68.6095 14.5907 63.344 14.5196 60.1515 16.3616C58.807 17.1375 58.0489 18.1266 57.8831 19.1454C57.7942 19.6725 56.7044 19.9094 56.0529 19.5363L47.4824 14.6973V34.776L56.0529 39.6209C56.7044 40 57.8001 39.7631 57.8831 39.23C58.0489 38.2113 58.8011 37.2221 60.1515 36.4462C63.344 34.6042 68.6095 34.6812 71.6775 36.6595Z" fill="url(#paint7_linear_501_36624)"/>
<path d="M71.6775 36.6595C72.5068 37.1984 73.0576 37.8736 73.3419 38.5962C73.6143 37.9151 73.6321 21.2895 73.407 20.5965C73.869 19.1809 73.2886 17.6173 71.6775 16.5748C68.6095 14.5907 63.344 14.5196 60.1515 16.3616C58.807 17.1375 58.0489 18.1266 57.8831 19.1454C57.7942 19.6725 56.7044 19.9094 56.0529 19.5363L47.4824 14.6973V34.776L56.0529 39.6209C56.7044 40 57.8001 39.7631 57.8831 39.23C58.0489 38.2113 58.8011 37.2221 60.1515 36.4462C63.344 34.6042 68.6095 34.6812 71.6775 36.6595Z" fill="url(#paint8_linear_501_36624)"/>
<path d="M74.5147 29.9476L65.9027 25.227C65.7843 25.1559 65.7132 25.079 65.6599 25.002V44.6483C65.5177 44.8615 65.571 45.1162 65.9027 45.3057L74.5147 50.0263V29.9476Z" fill="url(#paint9_linear_501_36624)"/>
<path d="M74.5147 29.9476L65.9027 25.227C65.7843 25.1559 65.7132 25.079 65.6599 25.002V44.6483C65.5177 44.8615 65.571 45.1162 65.9027 45.3057L74.5147 50.0263V29.9476Z" fill="url(#paint10_linear_501_36624)"/>
<path d="M74.5147 29.9476L65.9027 25.227C65.7843 25.1559 65.7132 25.079 65.6599 25.002V44.6483C65.5177 44.8615 65.571 45.1162 65.9027 45.3057L74.5147 50.0263V29.9476Z" fill="url(#paint11_linear_501_36624)"/>
<path d="M74.5147 29.9476L65.9027 25.227C65.7843 25.1559 65.7132 25.079 65.6599 25.002V44.6483C65.5177 44.8615 65.571 45.1162 65.9027 45.3057L74.5147 50.0263V29.9476Z" fill="url(#paint12_linear_501_36624)"/>
<path d="M74.5147 29.9476L65.9027 25.227C65.7843 25.1559 65.7132 25.079 65.6599 25.002V44.6483C65.5177 44.8615 65.571 45.1162 65.9027 45.3057L74.5147 50.0263V29.9476Z" fill="url(#paint13_linear_501_36624)"/>
<path d="M74.5137 50.0264L83.3092 44.9505C84.1384 44.4707 85.5895 44.7728 85.6725 45.4539C85.7968 46.5319 86.6083 47.5862 88.1008 48.3858C90.9735 49.9257 95.5519 49.9376 98.4126 48.4095C99.9585 47.5862 100.752 46.4786 100.823 45.3651H100.859V25.2864L100.823 25.2923C100.752 26.4058 99.9526 27.5075 98.4126 28.3308C95.5519 29.8589 90.9794 29.8529 88.1008 28.3071C86.6083 27.5075 85.7968 26.4532 85.6725 25.3752C85.5955 24.6941 84.1443 24.392 83.3092 24.8718L74.5137 29.9477V50.0264Z" fill="url(#paint14_linear_501_36624)"/>
<path d="M74.5137 50.0264L83.3092 44.9505C84.1384 44.4707 85.5895 44.7728 85.6725 45.4539C85.7968 46.5319 86.6083 47.5862 88.1008 48.3858C90.9735 49.9257 95.5519 49.9376 98.4126 48.4095C99.9585 47.5862 100.752 46.4786 100.823 45.3651H100.859V25.2864L100.823 25.2923C100.752 26.4058 99.9526 27.5075 98.4126 28.3308C95.5519 29.8589 90.9794 29.8529 88.1008 28.3071C86.6083 27.5075 85.7968 26.4532 85.6725 25.3752C85.5955 24.6941 84.1443 24.392 83.3092 24.8718L74.5137 29.9477V50.0264Z" fill="url(#paint15_linear_501_36624)"/>
<path d="M74.5137 50.0264L83.3092 44.9505C84.1384 44.4707 85.5895 44.7728 85.6725 45.4539C85.7968 46.5319 86.6083 47.5862 88.1008 48.3858C90.9735 49.9257 95.5519 49.9376 98.4126 48.4095C99.9585 47.5862 100.752 46.4786 100.823 45.3651H100.859V25.2864L100.823 25.2923C100.752 26.4058 99.9526 27.5075 98.4126 28.3308C95.5519 29.8589 90.9794 29.8529 88.1008 28.3071C86.6083 27.5075 85.7968 26.4532 85.6725 25.3752C85.5955 24.6941 84.1443 24.392 83.3092 24.8718L74.5137 29.9477V50.0264Z" fill="url(#paint16_linear_501_36624)"/>
<path d="M74.5137 50.0264L83.3092 44.9505C84.1384 44.4707 85.5895 44.7728 85.6725 45.4539C85.7968 46.5319 86.6083 47.5862 88.1008 48.3858C90.9735 49.9257 95.5519 49.9376 98.4126 48.4095C99.9585 47.5862 100.752 46.4786 100.823 45.3651H100.859V25.2864L100.823 25.2923C100.752 26.4058 99.9526 27.5075 98.4126 28.3308C95.5519 29.8589 90.9794 29.8529 88.1008 28.3071C86.6083 27.5075 85.7968 26.4532 85.6725 25.3752C85.5955 24.6941 84.1443 24.392 83.3092 24.8718L74.5137 29.9477V50.0264Z" fill="url(#paint17_linear_501_36624)"/>
<path d="M74.5137 50.0264L83.3092 44.9505C84.1384 44.4707 85.5895 44.7728 85.6725 45.4539C85.7968 46.5319 86.6083 47.5862 88.1008 48.3858C90.9735 49.9257 95.5519 49.9376 98.4126 48.4095C99.9585 47.5862 100.752 46.4786 100.823 45.3651H100.859V25.2864L100.823 25.2923C100.752 26.4058 99.9526 27.5075 98.4126 28.3308C95.5519 29.8589 90.9794 29.8529 88.1008 28.3071C86.6083 27.5075 85.7968 26.4532 85.6725 25.3752C85.5955 24.6941 84.1443 24.392 83.3092 24.8718L74.5137 29.9477V50.0264Z" fill="url(#paint18_linear_501_36624)"/>
<path d="M74.5137 50.0264L83.3092 44.9505C84.1384 44.4707 85.5895 44.7728 85.6725 45.4539C85.7968 46.5319 86.6083 47.5862 88.1008 48.3858C90.9735 49.9257 95.5519 49.9376 98.4126 48.4095C99.9585 47.5862 100.752 46.4786 100.823 45.3651H100.859V25.2864L100.823 25.2923C100.752 26.4058 99.9526 27.5075 98.4126 28.3308C95.5519 29.8589 90.9794 29.8529 88.1008 28.3071C86.6083 27.5075 85.7968 26.4532 85.6725 25.3752C85.5955 24.6941 84.1443 24.392 83.3092 24.8718L74.5137 29.9477V50.0264Z" fill="url(#paint19_linear_501_36624)"/>
<path d="M60.1515 16.3665C63.344 14.5245 68.6035 14.5956 71.6775 16.5797C74.1592 18.1789 74.2126 21.0338 71.7368 22.6507C70.3508 23.5569 68.4969 24.0604 66.5898 24.167C65.6658 24.2203 65.2453 24.8481 65.9027 25.2272L74.5146 29.9478L83.3102 24.8718C84.1394 24.3921 85.5905 24.6941 85.6734 25.3753C85.7978 26.4532 86.6092 27.5075 88.1018 28.3071C90.9744 29.8471 95.5528 29.8589 98.4136 28.3308C101.582 26.6368 101.636 23.7761 98.5913 22.017C97.229 21.2292 95.4877 20.8028 93.7167 20.7376C92.544 20.6902 92.0287 19.8433 92.8638 19.3635L101.565 14.3705L77.3695 0.759614C75.6104 -0.253205 73.4426 -0.253205 71.6835 0.759614L47.4824 14.6962L56.0529 19.5412C56.7044 19.9203 57.8001 19.6833 57.8831 19.1503C58.0548 18.1375 58.807 17.1424 60.1515 16.3665Z" fill="url(#paint20_linear_501_36624)"/>
<path d="M60.1515 16.3665C63.344 14.5245 68.6035 14.5956 71.6775 16.5797C74.1592 18.1789 74.2126 21.0338 71.7368 22.6507C70.3508 23.5569 68.4969 24.0604 66.5898 24.167C65.6658 24.2203 65.2453 24.8481 65.9027 25.2272L74.5146 29.9478L83.3102 24.8718C84.1394 24.3921 85.5905 24.6941 85.6734 25.3753C85.7978 26.4532 86.6092 27.5075 88.1018 28.3071C90.9744 29.8471 95.5528 29.8589 98.4136 28.3308C101.582 26.6368 101.636 23.7761 98.5913 22.017C97.229 21.2292 95.4877 20.8028 93.7167 20.7376C92.544 20.6902 92.0287 19.8433 92.8638 19.3635L101.565 14.3705L77.3695 0.759614C75.6104 -0.253205 73.4426 -0.253205 71.6835 0.759614L47.4824 14.6962L56.0529 19.5412C56.7044 19.9203 57.8001 19.6833 57.8831 19.1503C58.0548 18.1375 58.807 17.1424 60.1515 16.3665Z" fill="url(#paint21_linear_501_36624)"/>
<path d="M60.1515 16.3665C63.344 14.5245 68.6035 14.5956 71.6775 16.5797C74.1592 18.1789 74.2126 21.0338 71.7368 22.6507C70.3508 23.5569 68.4969 24.0604 66.5898 24.167C65.6658 24.2203 65.2453 24.8481 65.9027 25.2272L74.5146 29.9478L83.3102 24.8718C84.1394 24.3921 85.5905 24.6941 85.6734 25.3753C85.7978 26.4532 86.6092 27.5075 88.1018 28.3071C90.9744 29.8471 95.5528 29.8589 98.4136 28.3308C101.582 26.6368 101.636 23.7761 98.5913 22.017C97.229 21.2292 95.4877 20.8028 93.7167 20.7376C92.544 20.6902 92.0287 19.8433 92.8638 19.3635L101.565 14.3705L77.3695 0.759614C75.6104 -0.253205 73.4426 -0.253205 71.6835 0.759614L47.4824 14.6962L56.0529 19.5412C56.7044 19.9203 57.8001 19.6833 57.8831 19.1503C58.0548 18.1375 58.807 17.1424 60.1515 16.3665Z" fill="url(#paint22_linear_501_36624)"/>
<path d="M64.9383 24.6087C64.2868 24.9878 63.1911 24.739 63.0963 24.206C62.9008 23.1043 62.0124 22.0323 60.4369 21.2208C57.588 19.7638 52.8733 19.7401 50.0126 21.1734C47.7382 22.3106 46.8971 24.0046 47.4716 25.5682C47.2169 26.2612 47.2406 42.8809 47.5427 43.568C47.9218 42.7032 48.7451 41.8918 50.0185 41.2581C52.8793 39.8247 57.588 39.8484 60.4428 41.3054C62.0242 42.111 62.9068 43.183 63.1022 44.2906C63.197 44.8237 64.2868 45.0724 64.9442 44.6933L74.1425 39.2857V21.4755V21.1201V19.207L64.9383 24.6087Z" fill="url(#paint23_linear_501_36624)"/>
<path d="M64.9383 24.6087C64.2868 24.9878 63.1911 24.739 63.0963 24.206C62.9008 23.1043 62.0124 22.0323 60.4369 21.2208C57.588 19.7638 52.8733 19.7401 50.0126 21.1734C47.7382 22.3106 46.8971 24.0046 47.4716 25.5682C47.2169 26.2612 47.2406 42.8809 47.5427 43.568C47.9218 42.7032 48.7451 41.8918 50.0185 41.2581C52.8793 39.8247 57.588 39.8484 60.4428 41.3054C62.0242 42.111 62.9068 43.183 63.1022 44.2906C63.197 44.8237 64.2868 45.0724 64.9442 44.6933L74.1425 39.2857V21.4755V21.1201V19.207L64.9383 24.6087Z" fill="url(#paint24_linear_501_36624)"/>
<path d="M64.9383 24.6087C64.2868 24.9878 63.1911 24.739 63.0963 24.206C62.9008 23.1043 62.0124 22.0323 60.4369 21.2208C57.588 19.7638 52.8733 19.7401 50.0126 21.1734C47.7382 22.3106 46.8971 24.0046 47.4716 25.5682C47.2169 26.2612 47.2406 42.8809 47.5427 43.568C47.9218 42.7032 48.7451 41.8918 50.0185 41.2581C52.8793 39.8247 57.588 39.8484 60.4428 41.3054C62.0242 42.111 62.9068 43.183 63.1022 44.2906C63.197 44.8237 64.2868 45.0724 64.9442 44.6933L74.1425 39.2857V21.4755V21.1201V19.207L64.9383 24.6087Z" fill="url(#paint25_linear_501_36624)"/>
<path d="M64.9383 24.6087C64.2868 24.9878 63.1911 24.739 63.0963 24.206C62.9008 23.1043 62.0124 22.0323 60.4369 21.2208C57.588 19.7638 52.8733 19.7401 50.0126 21.1734C47.7382 22.3106 46.8971 24.0046 47.4716 25.5682C47.2169 26.2612 47.2406 42.8809 47.5427 43.568C47.9218 42.7032 48.7451 41.8918 50.0185 41.2581C52.8793 39.8247 57.588 39.8484 60.4428 41.3054C62.0242 42.111 62.9068 43.183 63.1022 44.2906C63.197 44.8237 64.2868 45.0724 64.9442 44.6933L74.1425 39.2857V21.4755V21.1201V19.207L64.9383 24.6087Z" fill="#F0FAF6" fill-opacity="0.4"/>
<path d="M63.0963 24.2062C62.9008 23.1045 62.0124 22.0325 60.4369 21.221C57.588 19.764 52.8733 19.7403 50.0126 21.1736C47.7382 22.3108 46.8971 24.0048 47.4716 25.5685C47.2169 26.2614 47.2406 42.8811 47.5427 43.5682C47.9218 42.7035 48.7451 41.892 50.0185 41.2583C52.8793 39.8249 57.588 39.8486 60.4428 41.3056C62.0242 42.1112 62.9068 43.1832 63.1022 44.2908V24.2062H63.0963Z" fill="url(#paint26_linear_501_36624)"/>
<path d="M63.0963 24.2062C62.9008 23.1045 62.0124 22.0325 60.4369 21.221C57.588 19.764 52.8733 19.7403 50.0126 21.1736C47.7382 22.3108 46.8971 24.0048 47.4716 25.5685C47.2169 26.2614 47.2406 42.8811 47.5427 43.5682C47.9218 42.7035 48.7451 41.892 50.0185 41.2583C52.8793 39.8249 57.588 39.8486 60.4428 41.3056C62.0242 42.1112 62.9068 43.1832 63.1022 44.2908V24.2062H63.0963Z" fill="url(#paint27_linear_501_36624)"/>
<path d="M63.0963 24.2062C62.9008 23.1045 62.0124 22.0325 60.4369 21.221C57.588 19.764 52.8733 19.7403 50.0126 21.1736C47.7382 22.3108 46.8971 24.0048 47.4716 25.5685C47.2169 26.2614 47.2406 42.8811 47.5427 43.5682C47.9218 42.7035 48.7451 41.892 50.0185 41.2583C52.8793 39.8249 57.588 39.8486 60.4428 41.3056C62.0242 42.1112 62.9068 43.1832 63.1022 44.2908V24.2062H63.0963Z" fill="url(#paint28_linear_501_36624)"/>
<path d="M63.0963 24.2062C62.9008 23.1045 62.0124 22.0325 60.4369 21.221C57.588 19.764 52.8733 19.7403 50.0126 21.1736C47.7382 22.3108 46.8971 24.0048 47.4716 25.5685C47.2169 26.2614 47.2406 42.8811 47.5427 43.5682C47.9218 42.7035 48.7451 41.892 50.0185 41.2583C52.8793 39.8249 57.588 39.8486 60.4428 41.3056C62.0242 42.1112 62.9068 43.1832 63.1022 44.2908V24.2062H63.0963Z" fill="#F0FAF6" fill-opacity="0.6"/>
<path d="M46.8301 55.1877L55.1518 50.3428C55.4065 50.1947 55.4894 50.0111 55.4538 49.8393V29.8613C55.442 30.0035 55.3532 30.1456 55.1518 30.2641L46.836 35.109H46.8301V35.115V55.1877Z" fill="url(#paint29_linear_501_36624)"/>
<path d="M46.8301 55.1877L55.1518 50.3428C55.4065 50.1947 55.4894 50.0111 55.4538 49.8393V29.8613C55.442 30.0035 55.3532 30.1456 55.1518 30.2641L46.836 35.109H46.8301V35.115V55.1877Z" fill="url(#paint30_linear_501_36624)"/>
<path d="M46.8301 55.1877L55.1518 50.3428C55.4065 50.1947 55.4894 50.0111 55.4538 49.8393V29.8613C55.442 30.0035 55.3532 30.1456 55.1518 30.2641L46.836 35.109H46.8301V35.115V55.1877Z" fill="url(#paint31_linear_501_36624)"/>
<path d="M46.8301 55.1877L55.1518 50.3428C55.4065 50.1947 55.4894 50.0111 55.4538 49.8393V29.8613C55.442 30.0035 55.3532 30.1456 55.1518 30.2641L46.836 35.109H46.8301V35.115V55.1877Z" fill="#F0FAF6" fill-opacity="0.6"/>
<path d="M46.8308 35.103V55.1876L19.2715 39.4859V19.4072L46.8308 35.103Z" fill="url(#paint32_linear_501_36624)"/>
<path d="M46.8308 35.103V55.1876L19.2715 39.4859V19.4072L46.8308 35.103Z" fill="url(#paint33_linear_501_36624)"/>
<path d="M46.8308 35.103V55.1876L19.2715 39.4859V19.4072L46.8308 35.103Z" fill="url(#paint34_linear_501_36624)"/>
<path d="M46.8308 35.103V55.1876L19.2715 39.4859V19.4072L46.8308 35.103Z" fill="#F0FAF6" fill-opacity="0.8"/>
<path d="M72.5597 19.6341V8.06348L63.4434 11.5697L62.7422 13.6735L72.5597 19.6341Z" fill="#D9D9D9"/>
<path d="M72.5597 19.6341V8.06348L63.4434 11.5697L62.7422 13.6735L72.5597 19.6341Z" fill="url(#paint35_linear_501_36624)"/>
<path d="M72.5597 19.6341V8.06348L63.4434 11.5697L62.7422 13.6735L72.5597 19.6341Z" fill="url(#paint36_linear_501_36624)"/>
<path d="M72.5597 19.6341V8.06348L63.4434 11.5697L62.7422 13.6735L72.5597 19.6341Z" fill="#F0FAF6" fill-opacity="0.5"/>
<path d="M46.8309 35.1096L55.1526 30.2646C55.8041 29.8915 55.3836 29.2577 54.4655 29.2044C52.7005 29.1037 50.9829 28.6595 49.6265 27.8777C46.3867 26.0061 46.5111 22.9321 50.0115 21.1789C52.8723 19.7455 57.581 19.7692 60.4358 21.2263C62.0173 22.0318 62.8998 23.1038 63.0952 24.2114C63.19 24.7445 64.2798 24.9932 64.9373 24.6142L74.1355 19.2065L64.6411 13.8581C63.806 13.3725 64.3213 12.5373 65.4999 12.4959C67.3597 12.4307 69.184 11.9687 70.564 11.1099C73.2175 9.45742 73.2056 6.82172 70.5403 5.15738C67.5848 3.32127 62.6214 3.27389 59.6007 5.01523C58.2503 5.79705 57.5218 6.79803 57.4092 7.82269C57.3382 8.4979 55.8693 8.78813 55.0341 8.30837L46.5703 3.50488H46.5644L19.2715 19.4079H19.2656L46.8309 35.1096Z" fill="#F0FAF6"/>
<g opacity="0.2" filter="url(#filter0_f_501_36624)">
<path d="M107.702 47.6113L98.3385 49.4356C97.4455 49.6109 97.994 49.9204 99.257 49.9377C99.2825 49.9377 99.308 49.9399 99.3271 49.9399L98.3321 50.1346C97.4391 50.3099 97.9877 50.6194 99.2506 50.6367C99.4738 50.6389 99.6971 56.4559 99.9203 56.4624L107.702 54.9497L107.696 54.9475H107.734V47.6113H107.702Z" fill="url(#paint37_linear_501_36624)"/>
<path d="M107.702 47.6113L98.3385 49.4356C97.4455 49.6109 97.994 49.9204 99.257 49.9377C99.2825 49.9377 99.308 49.9399 99.3271 49.9399L98.3321 50.1346C97.4391 50.3099 97.9877 50.6194 99.2506 50.6367C99.4738 50.6389 99.6971 56.4559 99.9203 56.4624L107.702 54.9497L107.696 54.9475H107.734V47.6113H107.702Z" fill="url(#paint38_linear_501_36624)"/>
<path d="M107.702 47.6113L98.3385 49.4356C97.4455 49.6109 97.994 49.9204 99.257 49.9377C99.2825 49.9377 99.308 49.9399 99.3271 49.9399L98.3321 50.1346C97.4391 50.3099 97.9877 50.6194 99.2506 50.6367C99.4738 50.6389 99.6971 56.4559 99.9203 56.4624L107.702 54.9497L107.696 54.9475H107.734V47.6113H107.702Z" fill="url(#paint39_linear_501_36624)"/>
<path d="M107.702 47.6113L98.3385 49.4356C97.4455 49.6109 97.994 49.9204 99.257 49.9377C99.2825 49.9377 99.308 49.9399 99.3271 49.9399L98.3321 50.1346C97.4391 50.3099 97.9877 50.6194 99.2506 50.6367C99.4738 50.6389 99.6971 56.4559 99.9203 56.4624L107.702 54.9497L107.696 54.9475H107.734V47.6113H107.702Z" fill="url(#paint40_linear_501_36624)"/>
<path d="M107.702 47.6113L98.3385 49.4356C97.4455 49.6109 97.994 49.9204 99.257 49.9377C99.2825 49.9377 99.308 49.9399 99.3271 49.9399L98.3321 50.1346C97.4391 50.3099 97.9877 50.6194 99.2506 50.6367C99.4738 50.6389 99.6971 56.4559 99.9203 56.4624L107.702 54.9497L107.696 54.9475H107.734V47.6113H107.702Z" fill="url(#paint41_linear_501_36624)"/>
<path d="M75.5288 55.7549C76.4218 55.9518 77.015 56.1985 77.3212 56.4625C77.6146 56.2136 77.6338 50.1391 77.3914 49.8859C77.8889 49.3687 77.2638 48.7974 75.5288 48.4165C72.2248 47.6915 66.5543 47.6655 63.1163 48.3386C61.6684 48.6221 60.8519 48.9835 60.6733 49.3557C60.5776 49.5483 59.404 49.6349 58.7024 49.4985L49.4727 47.7305V55.0667L58.7024 56.8369C59.404 56.9754 60.584 56.8888 60.6733 56.6941C60.8519 56.3218 61.662 55.9604 63.1163 55.6769C66.5543 55.0039 72.2248 55.0321 75.5288 55.7549Z" fill="url(#paint42_linear_501_36624)"/>
<path d="M75.5288 55.7549C76.4218 55.9518 77.015 56.1985 77.3212 56.4625C77.6146 56.2136 77.6338 50.1391 77.3914 49.8859C77.8889 49.3687 77.2638 48.7974 75.5288 48.4165C72.2248 47.6915 66.5543 47.6655 63.1163 48.3386C61.6684 48.6221 60.8519 48.9835 60.6733 49.3557C60.5776 49.5483 59.404 49.6349 58.7024 49.4985L49.4727 47.7305V55.0667L58.7024 56.8369C59.404 56.9754 60.584 56.8888 60.6733 56.6941C60.8519 56.3218 61.662 55.9604 63.1163 55.6769C66.5543 55.0039 72.2248 55.0321 75.5288 55.7549Z" fill="url(#paint43_linear_501_36624)"/>
<path d="M75.5288 55.7549C76.4218 55.9518 77.015 56.1985 77.3212 56.4625C77.6146 56.2136 77.6338 50.1391 77.3914 49.8859C77.8889 49.3687 77.2638 48.7974 75.5288 48.4165C72.2248 47.6915 66.5543 47.6655 63.1163 48.3386C61.6684 48.6221 60.8519 48.9835 60.6733 49.3557C60.5776 49.5483 59.404 49.6349 58.7024 49.4985L49.4727 47.7305V55.0667L58.7024 56.8369C59.404 56.9754 60.584 56.8888 60.6733 56.6941C60.8519 56.3218 61.662 55.9604 63.1163 55.6769C66.5543 55.0039 72.2248 55.0321 75.5288 55.7549Z" fill="url(#paint44_linear_501_36624)"/>
<path d="M78.5843 53.3021L69.3099 51.5774C69.1823 51.5514 69.1058 51.5233 69.0484 51.4951V58.6733C68.8953 58.7513 68.9527 58.8443 69.3099 58.9136L78.5843 60.6383V53.3021Z" fill="url(#paint45_linear_501_36624)"/>
<path d="M78.5843 53.3021L69.3099 51.5774C69.1823 51.5514 69.1058 51.5233 69.0484 51.4951V58.6733C68.8953 58.7513 68.9527 58.8443 69.3099 58.9136L78.5843 60.6383V53.3021Z" fill="url(#paint46_linear_501_36624)"/>
<path d="M78.5843 53.3021L69.3099 51.5774C69.1823 51.5514 69.1058 51.5233 69.0484 51.4951V58.6733C68.8953 58.7513 68.9527 58.8443 69.3099 58.9136L78.5843 60.6383V53.3021Z" fill="url(#paint47_linear_501_36624)"/>
<path d="M78.5843 53.3021L69.3099 51.5774C69.1823 51.5514 69.1058 51.5233 69.0484 51.4951V58.6733C68.8953 58.7513 68.9527 58.8443 69.3099 58.9136L78.5843 60.6383V53.3021Z" fill="url(#paint48_linear_501_36624)"/>
<g opacity="0.5">
<path d="M78.584 60.6387L88.0561 58.784C88.9491 58.6087 90.5118 58.7191 90.6011 58.968C90.735 59.3618 91.6089 59.7471 93.2163 60.0392C96.3099 60.6019 101.24 60.6062 104.321 60.0479C105.986 59.7471 106.841 59.3424 106.917 58.9355H106.956V51.5993L106.917 51.6015C106.841 52.0083 105.98 52.4108 104.321 52.7116C101.24 53.27 96.3162 53.2678 93.2163 52.703C91.6089 52.4108 90.735 52.0256 90.6011 51.6318C90.5182 51.3829 88.9554 51.2725 88.0561 51.4478L78.584 53.3024V60.6387Z" fill="url(#paint49_linear_501_36624)"/>
<path d="M78.584 60.6387L88.0561 58.784C88.9491 58.6087 90.5118 58.7191 90.6011 58.968C90.735 59.3618 91.6089 59.7471 93.2163 60.0392C96.3099 60.6019 101.24 60.6062 104.321 60.0479C105.986 59.7471 106.841 59.3424 106.917 58.9355H106.956V51.5993L106.917 51.6015C106.841 52.0083 105.98 52.4108 104.321 52.7116C101.24 53.27 96.3162 53.2678 93.2163 52.703C91.6089 52.4108 90.735 52.0256 90.6011 51.6318C90.5182 51.3829 88.9554 51.2725 88.0561 51.4478L78.584 53.3024V60.6387Z" fill="url(#paint50_linear_501_36624)"/>
<path d="M78.584 60.6387L88.0561 58.784C88.9491 58.6087 90.5118 58.7191 90.6011 58.968C90.735 59.3618 91.6089 59.7471 93.2163 60.0392C96.3099 60.6019 101.24 60.6062 104.321 60.0479C105.986 59.7471 106.841 59.3424 106.917 58.9355H106.956V51.5993L106.917 51.6015C106.841 52.0083 105.98 52.4108 104.321 52.7116C101.24 53.27 96.3162 53.2678 93.2163 52.703C91.6089 52.4108 90.735 52.0256 90.6011 51.6318C90.5182 51.3829 88.9554 51.2725 88.0561 51.4478L78.584 53.3024V60.6387Z" fill="url(#paint51_linear_501_36624)"/>
<path d="M78.584 60.6387L88.0561 58.784C88.9491 58.6087 90.5118 58.7191 90.6011 58.968C90.735 59.3618 91.6089 59.7471 93.2163 60.0392C96.3099 60.6019 101.24 60.6062 104.321 60.0479C105.986 59.7471 106.841 59.3424 106.917 58.9355H106.956V51.5993L106.917 51.6015C106.841 52.0083 105.98 52.4108 104.321 52.7116C101.24 53.27 96.3162 53.2678 93.2163 52.703C91.6089 52.4108 90.735 52.0256 90.6011 51.6318C90.5182 51.3829 88.9554 51.2725 88.0561 51.4478L78.584 53.3024V60.6387Z" fill="url(#paint52_linear_501_36624)"/>
<path d="M78.584 60.6387L88.0561 58.784C88.9491 58.6087 90.5118 58.7191 90.6011 58.968C90.735 59.3618 91.6089 59.7471 93.2163 60.0392C96.3099 60.6019 101.24 60.6062 104.321 60.0479C105.986 59.7471 106.841 59.3424 106.917 58.9355H106.956V51.5993L106.917 51.6015C106.841 52.0083 105.98 52.4108 104.321 52.7116C101.24 53.27 96.3162 53.2678 93.2163 52.703C91.6089 52.4108 90.735 52.0256 90.6011 51.6318C90.5182 51.3829 88.9554 51.2725 88.0561 51.4478L78.584 53.3024V60.6387Z" fill="url(#paint53_linear_501_36624)"/>
<path d="M78.584 60.6387L88.0561 58.784C88.9491 58.6087 90.5118 58.7191 90.6011 58.968C90.735 59.3618 91.6089 59.7471 93.2163 60.0392C96.3099 60.6019 101.24 60.6062 104.321 60.0479C105.986 59.7471 106.841 59.3424 106.917 58.9355H106.956V51.5993L106.917 51.6015C106.841 52.0083 105.98 52.4108 104.321 52.7116C101.24 53.27 96.3162 53.2678 93.2163 52.703C91.6089 52.4108 90.735 52.0256 90.6011 51.6318C90.5182 51.3829 88.9554 51.2725 88.0561 51.4478L78.584 53.3024V60.6387Z" fill="url(#paint54_linear_501_36624)"/>
</g>
<path d="M63.1163 48.3402C66.5543 47.6672 72.2184 47.6932 75.5288 48.4181C78.2014 49.0024 78.2588 50.0455 75.5926 50.6363C74.1001 50.9674 72.1036 51.1514 70.0497 51.1903C69.0547 51.2098 68.6018 51.4392 69.3098 51.5777L78.5842 53.3024L88.0562 51.4478C88.9492 51.2725 90.512 51.3829 90.6013 51.6318C90.7352 52.0256 91.6091 52.4108 93.2164 52.703C96.31 53.2657 101.241 53.27 104.321 52.7117C107.734 52.0927 107.791 51.0475 104.513 50.4048C103.046 50.1169 101.17 49.9611 99.2633 49.9373C98.0003 49.92 97.4454 49.6105 98.3448 49.4352L107.715 47.6109L81.6586 42.6379C79.7642 42.2678 77.4296 42.2678 75.5352 42.6379L49.4727 47.73L58.7024 49.5002C59.404 49.6387 60.584 49.5521 60.6733 49.3573C60.8583 48.9873 61.6684 48.6237 63.1163 48.3402Z" fill="url(#paint55_linear_501_36624)"/>
<path d="M63.1163 48.3402C66.5543 47.6672 72.2184 47.6932 75.5288 48.4181C78.2014 49.0024 78.2588 50.0455 75.5926 50.6363C74.1001 50.9674 72.1036 51.1514 70.0497 51.1903C69.0547 51.2098 68.6018 51.4392 69.3098 51.5777L78.5842 53.3024L88.0562 51.4478C88.9492 51.2725 90.512 51.3829 90.6013 51.6318C90.7352 52.0256 91.6091 52.4108 93.2164 52.703C96.31 53.2657 101.241 53.27 104.321 52.7117C107.734 52.0927 107.791 51.0475 104.513 50.4048C103.046 50.1169 101.17 49.9611 99.2633 49.9373C98.0003 49.92 97.4454 49.6105 98.3448 49.4352L107.715 47.6109L81.6586 42.6379C79.7642 42.2678 77.4296 42.2678 75.5352 42.6379L49.4727 47.73L58.7024 49.5002C59.404 49.6387 60.584 49.5521 60.6733 49.3573C60.8583 48.9873 61.6684 48.6237 63.1163 48.3402Z" fill="url(#paint56_linear_501_36624)"/>
<path d="M63.1163 48.3402C66.5543 47.6672 72.2184 47.6932 75.5288 48.4181C78.2014 49.0024 78.2588 50.0455 75.5926 50.6363C74.1001 50.9674 72.1036 51.1514 70.0497 51.1903C69.0547 51.2098 68.6018 51.4392 69.3098 51.5777L78.5842 53.3024L88.0562 51.4478C88.9492 51.2725 90.512 51.3829 90.6013 51.6318C90.7352 52.0256 91.6091 52.4108 93.2164 52.703C96.31 53.2657 101.241 53.27 104.321 52.7117C107.734 52.0927 107.791 51.0475 104.513 50.4048C103.046 50.1169 101.17 49.9611 99.2633 49.9373C98.0003 49.92 97.4454 49.6105 98.3448 49.4352L107.715 47.6109L81.6586 42.6379C79.7642 42.2678 77.4296 42.2678 75.5352 42.6379L49.4727 47.73L58.7024 49.5002C59.404 49.6387 60.584 49.5521 60.6733 49.3573C60.8583 48.9873 61.6684 48.6237 63.1163 48.3402Z" fill="url(#paint57_linear_501_36624)"/>
<path d="M69.2035 51.3525C68.5019 51.491 67.3218 51.4002 67.2198 51.2054C67.0093 50.8029 66.0525 50.4112 64.3558 50.1147C61.2878 49.5823 56.2105 49.5737 53.1297 50.0974C50.6803 50.5129 49.7746 51.1318 50.3933 51.7031C50.119 51.9563 50.1445 58.0287 50.4698 58.2797C50.878 57.9638 51.7647 57.6673 53.136 57.4358C56.2169 56.912 61.2878 56.9207 64.3622 57.4531C66.0653 57.7474 67.0157 58.1391 67.2262 58.5438C67.3282 58.7385 68.5019 58.8294 69.2099 58.6909L79.1157 56.7151V50.2077V50.0779V49.3789L69.2035 51.3525Z" fill="url(#paint58_linear_501_36624)"/>
<path d="M69.2035 51.3525C68.5019 51.491 67.3218 51.4002 67.2198 51.2054C67.0093 50.8029 66.0525 50.4112 64.3558 50.1147C61.2878 49.5823 56.2105 49.5737 53.1297 50.0974C50.6803 50.5129 49.7746 51.1318 50.3933 51.7031C50.119 51.9563 50.1445 58.0287 50.4698 58.2797C50.878 57.9638 51.7647 57.6673 53.136 57.4358C56.2169 56.912 61.2878 56.9207 64.3622 57.4531C66.0653 57.7474 67.0157 58.1391 67.2262 58.5438C67.3282 58.7385 68.5019 58.8294 69.2099 58.6909L79.1157 56.7151V50.2077V50.0779V49.3789L69.2035 51.3525Z" fill="url(#paint59_linear_501_36624)"/>
<path d="M69.2035 51.3525C68.5019 51.491 67.3218 51.4002 67.2198 51.2054C67.0093 50.8029 66.0525 50.4112 64.3558 50.1147C61.2878 49.5823 56.2105 49.5737 53.1297 50.0974C50.6803 50.5129 49.7746 51.1318 50.3933 51.7031C50.119 51.9563 50.1445 58.0287 50.4698 58.2797C50.878 57.9638 51.7647 57.6673 53.136 57.4358C56.2169 56.912 61.2878 56.9207 64.3622 57.4531C66.0653 57.7474 67.0157 58.1391 67.2262 58.5438C67.3282 58.7385 68.5019 58.8294 69.2099 58.6909L79.1157 56.7151V50.2077V50.0779V49.3789L69.2035 51.3525Z" fill="url(#paint60_linear_501_36624)"/>
<path d="M67.2198 51.2054C67.0093 50.8029 66.0525 50.4112 64.3558 50.1147C61.2878 49.5823 56.2105 49.5737 53.1297 50.0974C50.6803 50.5129 49.7746 51.1318 50.3933 51.7031C50.119 51.9563 50.1445 58.0287 50.4698 58.2798C50.878 57.9638 51.7647 57.6673 53.136 57.4358C56.2169 56.9121 61.2878 56.9207 64.3622 57.4531C66.0653 57.7474 67.0157 58.1391 67.2262 58.5438V51.2054H67.2198Z" fill="url(#paint61_linear_501_36624)"/>
<path d="M67.2198 51.2054C67.0093 50.8029 66.0525 50.4112 64.3558 50.1147C61.2878 49.5823 56.2105 49.5737 53.1297 50.0974C50.6803 50.5129 49.7746 51.1318 50.3933 51.7031C50.119 51.9563 50.1445 58.0287 50.4698 58.2798C50.878 57.9638 51.7647 57.6673 53.136 57.4358C56.2169 56.9121 61.2878 56.9207 64.3622 57.4531C66.0653 57.7474 67.0157 58.1391 67.2262 58.5438V51.2054H67.2198Z" fill="url(#paint62_linear_501_36624)"/>
<path d="M67.2198 51.2054C67.0093 50.8029 66.0525 50.4112 64.3558 50.1147C61.2878 49.5823 56.2105 49.5737 53.1297 50.0974C50.6803 50.5129 49.7746 51.1318 50.3933 51.7031C50.119 51.9563 50.1445 58.0287 50.4698 58.2798C50.878 57.9638 51.7647 57.6673 53.136 57.4358C56.2169 56.9121 61.2878 56.9207 64.3622 57.4531C66.0653 57.7474 67.0157 58.1391 67.2262 58.5438V51.2054H67.2198Z" fill="url(#paint63_linear_501_36624)"/>
<path d="M49.7051 62.5241L58.6669 60.7539C58.9412 60.6998 59.0305 60.6327 58.9922 60.5699V53.2705C58.9794 53.3224 58.8837 53.3744 58.6669 53.4177L49.7115 55.1879H49.7051V55.19V62.5241Z" fill="url(#paint64_linear_501_36624)"/>
<path d="M49.7051 62.5241L58.6669 60.7539C58.9412 60.6998 59.0305 60.6327 58.9922 60.5699V53.2705C58.9794 53.3224 58.8837 53.3744 58.6669 53.4177L49.7115 55.1879H49.7051V55.19V62.5241Z" fill="url(#paint65_linear_501_36624)"/>
<path d="M49.7051 62.5241L58.6669 60.7539C58.9412 60.6998 59.0305 60.6327 58.9922 60.5699V53.2705C58.9794 53.3224 58.8837 53.3744 58.6669 53.4177L49.7115 55.1879H49.7051V55.19V62.5241Z" fill="url(#paint66_linear_501_36624)"/>
<path d="M49.7046 55.1879V62.5263L20.0254 56.7893V49.4531L49.7046 55.1879Z" fill="url(#paint67_linear_501_36624)"/>
<path d="M49.7046 55.1879V62.5263L20.0254 56.7893V49.4531L49.7046 55.1879Z" fill="url(#paint68_linear_501_36624)"/>
<path d="M49.7046 55.1879V62.5263L20.0254 56.7893V49.4531L49.7046 55.1879Z" fill="url(#paint69_linear_501_36624)"/>
<path d="M77.4145 49.5352V45.3076L67.597 46.5887L66.8418 47.3574L77.4145 49.5352Z" fill="#D9D9D9"/>
<path d="M77.4145 49.5352V45.3076L67.597 46.5887L66.8418 47.3574L77.4145 49.5352Z" fill="url(#paint70_linear_501_36624)"/>
<path d="M77.4145 49.5352V45.3076L67.597 46.5887L66.8418 47.3574L77.4145 49.5352Z" fill="url(#paint71_linear_501_36624)"/>
<path d="M49.7051 55.1891L58.6669 53.4189C59.3685 53.2825 58.9157 53.051 57.927 53.0315C56.0262 52.9947 54.1764 52.8324 52.7158 52.5468C49.2267 51.8629 49.3607 50.7398 53.1304 50.0992C56.2112 49.5755 61.2821 49.5841 64.3565 50.1165C66.0596 50.4108 67.01 50.8025 67.2205 51.2072C67.3225 51.402 68.4962 51.4929 69.2042 51.3544L79.11 49.3786L68.8853 47.4244C67.9859 47.2469 68.5408 46.9418 69.8101 46.9267C71.813 46.9029 73.7776 46.7341 75.2638 46.4203C78.1213 45.8165 78.1086 44.8535 75.2383 44.2454C72.0554 43.5745 66.7102 43.5572 63.4572 44.1934C62.0029 44.4791 61.2183 44.8448 61.0971 45.2192C61.0206 45.4659 59.4387 45.572 58.5393 45.3967L49.4244 43.6416H49.4181L20.0259 49.4521H20.0195L49.7051 55.1891Z" fill="url(#paint72_linear_501_36624)"/>
<path d="M49.7051 55.1891L58.6669 53.4189C59.3685 53.2825 58.9157 53.051 57.927 53.0315C56.0262 52.9947 54.1764 52.8324 52.7158 52.5468C49.2267 51.8629 49.3607 50.7398 53.1304 50.0992C56.2112 49.5755 61.2821 49.5841 64.3565 50.1165C66.0596 50.4108 67.01 50.8025 67.2205 51.2072C67.3225 51.402 68.4962 51.4929 69.2042 51.3544L79.11 49.3786L68.8853 47.4244C67.9859 47.2469 68.5408 46.9418 69.8101 46.9267C71.813 46.9029 73.7776 46.7341 75.2638 46.4203C78.1213 45.8165 78.1086 44.8535 75.2383 44.2454C72.0554 43.5745 66.7102 43.5572 63.4572 44.1934C62.0029 44.4791 61.2183 44.8448 61.0971 45.2192C61.0206 45.4659 59.4387 45.572 58.5393 45.3967L49.4244 43.6416H49.4181L20.0259 49.4521H20.0195L49.7051 55.1891Z" fill="url(#paint73_linear_501_36624)"/>
<path d="M49.7051 55.1891L58.6669 53.4189C59.3685 53.2825 58.9157 53.051 57.927 53.0315C56.0262 52.9947 54.1764 52.8324 52.7158 52.5468C49.2267 51.8629 49.3607 50.7398 53.1304 50.0992C56.2112 49.5755 61.2821 49.5841 64.3565 50.1165C66.0596 50.4108 67.01 50.8025 67.2205 51.2072C67.3225 51.402 68.4962 51.4929 69.2042 51.3544L79.11 49.3786L68.8853 47.4244C67.9859 47.2469 68.5408 46.9418 69.8101 46.9267C71.813 46.9029 73.7776 46.7341 75.2638 46.4203C78.1213 45.8165 78.1086 44.8535 75.2383 44.2454C72.0554 43.5745 66.7102 43.5572 63.4572 44.1934C62.0029 44.4791 61.2183 44.8448 61.0971 45.2192C61.0206 45.4659 59.4387 45.572 58.5393 45.3967L49.4244 43.6416H49.4181L20.0259 49.4521H20.0195L49.7051 55.1891Z" fill="url(#paint74_linear_501_36624)"/>
</g>
<defs>
<filter id="filter0_f_501_36624" x="0.0195312" y="22.3604" width="127.715" height="60.166" filterUnits="userSpaceOnUse" color-interpolation-filters="sRGB">
<feFlood flood-opacity="0" result="BackgroundImageFix"/>
<feBlend mode="normal" in="SourceGraphic" in2="BackgroundImageFix" result="shape"/>
<feGaussianBlur stdDeviation="10" result="effect1_foregroundBlur_501_36624"/>
</filter>
<linearGradient id="paint0_linear_501_36624" x1="95.5482" y1="26.4762" x2="114.317" y2="26.4762" gradientUnits="userSpaceOnUse">
<stop offset="0.0354" stop-color="#138BBD"/>
<stop offset="0.2257" stop-color="#169AC7"/>
<stop offset="0.5946" stop-color="#1FC3DF"/>
<stop offset="1" stop-color="#2AF6FF"/>
</linearGradient>
<linearGradient id="paint1_linear_501_36624" x1="97.0126" y1="14.3711" x2="97.0126" y2="38.5958" gradientUnits="userSpaceOnUse">
<stop stop-color="#D4F2E4"/>
<stop offset="1" stop-color="#A8DFF9"/>
</linearGradient>
<linearGradient id="paint2_linear_501_36624" x1="97.0126" y1="14.3711" x2="97.0126" y2="38.5958" gradientUnits="userSpaceOnUse">
<stop stop-color="#D4F2E4"/>
<stop offset="1" stop-color="#71D5A4"/>
</linearGradient>
<linearGradient id="paint3_linear_501_36624" x1="96.1127" y1="38.3345" x2="85.098" y2="10.054" gradientUnits="userSpaceOnUse">
<stop stop-color="#D4F2E4"/>
<stop offset="1" stop-color="#71D5A4"/>
</linearGradient>
<linearGradient id="paint4_linear_501_36624" x1="96.2378" y1="40.3765" x2="94.4052" y2="14.3936" gradientUnits="userSpaceOnUse">
<stop stop-color="#E0F1E9"/>
<stop offset="1" stop-color="#EFFDF7"/>
</linearGradient>
<linearGradient id="paint5_linear_501_36624" x1="99.694" y1="14.4923" x2="103.968" y2="13.6608" gradientUnits="userSpaceOnUse">
<stop stop-color="#245795"/>
<stop offset="1" stop-color="#8AD3A8"/>
</linearGradient>
<linearGradient id="paint6_linear_501_36624" x1="28.1603" y1="-1.37416" x2="84.5466" y2="47.118" gradientUnits="userSpaceOnUse">
<stop offset="0.0354" stop-color="#138BBD"/>
<stop offset="0.2257" stop-color="#169AC7"/>
<stop offset="0.5946" stop-color="#1FC3DF"/>
<stop offset="1" stop-color="#2AF6FF"/>
</linearGradient>
<linearGradient id="paint7_linear_501_36624" x1="60.5224" y1="14.6973" x2="60.5224" y2="39.8065" gradientUnits="userSpaceOnUse">
<stop stop-color="#D4F2E4"/>
<stop offset="1" stop-color="#A8DFF9"/>
</linearGradient>
<linearGradient id="paint8_linear_501_36624" x1="60.5224" y1="14.6973" x2="60.5224" y2="39.8065" gradientUnits="userSpaceOnUse">
<stop stop-color="#D4F2E4"/>
<stop offset="1" stop-color="#71D5A4"/>
</linearGradient>
<linearGradient id="paint9_linear_501_36624" x1="32.1282" y1="4.88814" x2="88.5144" y2="53.3802" gradientUnits="userSpaceOnUse">
<stop offset="0.0354" stop-color="#138BBD"/>
<stop offset="0.2257" stop-color="#169AC7"/>
<stop offset="0.5946" stop-color="#1FC3DF"/>
<stop offset="1" stop-color="#2AF6FF"/>
</linearGradient>
<linearGradient id="paint10_linear_501_36624" x1="70.0503" y1="25.002" x2="70.0503" y2="50.0263" gradientUnits="userSpaceOnUse">
<stop stop-color="#D4F2E4"/>
<stop offset="1" stop-color="#A8DFF9"/>
</linearGradient>
<linearGradient id="paint11_linear_501_36624" x1="70.0503" y1="25.002" x2="70.0503" y2="50.0263" gradientUnits="userSpaceOnUse">
<stop stop-color="#D4F2E4"/>
<stop offset="1" stop-color="#71D5A4"/>
</linearGradient>
<linearGradient id="paint12_linear_501_36624" x1="69.2933" y1="51.8657" x2="67.2929" y2="25.0408" gradientUnits="userSpaceOnUse">
<stop stop-color="#E0F1E9"/>
<stop offset="1" stop-color="#EFFDF7"/>
</linearGradient>
<linearGradient id="paint13_linear_501_36624" x1="70.6197" y1="26.1969" x2="80.6842" y2="28.4957" gradientUnits="userSpaceOnUse">
<stop stop-color="#245795"/>
<stop offset="1" stop-color="#8AD3A8"/>
</linearGradient>
<linearGradient id="paint14_linear_501_36624" x1="76.2076" y1="37.3321" x2="102.545" y2="37.3321" gradientUnits="userSpaceOnUse">
<stop offset="0.0101" stop-color="#138BBD"/>
<stop offset="0.0975" stop-color="#148FC0"/>
<stop offset="0.1927" stop-color="#179DC8"/>
<stop offset="0.2828" stop-color="#1BB0D4"/>
<stop offset="0.3151" stop-color="#1CB3D6"/>
<stop offset="0.3435" stop-color="#1EBEDD"/>
<stop offset="0.3535" stop-color="#1FC4E1"/>
<stop offset="0.6313" stop-color="#2AF6FF"/>
<stop offset="0.8737" stop-color="#1BB0D4"/>
</linearGradient>
<linearGradient id="paint15_linear_501_36624" x1="87.6862" y1="24.6377" x2="87.6862" y2="50.0264" gradientUnits="userSpaceOnUse">
<stop stop-color="#D4F2E4"/>
<stop offset="1" stop-color="#A8DFF9"/>
</linearGradient>
<linearGradient id="paint16_linear_501_36624" x1="87.6862" y1="24.6377" x2="87.6862" y2="50.0264" gradientUnits="userSpaceOnUse">
<stop stop-color="#D4F2E4"/>
<stop offset="1" stop-color="#71D5A4"/>
</linearGradient>
<linearGradient id="paint17_linear_501_36624" x1="85.0919" y1="49.7525" x2="80.3536" y2="16.288" gradientUnits="userSpaceOnUse">
<stop stop-color="#D4F2E4"/>
<stop offset="1" stop-color="#71D5A4"/>
</linearGradient>
<linearGradient id="paint18_linear_501_36624" x1="85.4526" y1="51.8926" x2="84.7513" y2="24.5438" gradientUnits="userSpaceOnUse">
<stop stop-color="#E0F1E9"/>
<stop offset="1" stop-color="#EFFDF7"/>
</linearGradient>
<linearGradient id="paint19_linear_501_36624" x1="84.9676" y1="14.4916" x2="116.942" y2="55.8548" gradientUnits="userSpaceOnUse">
<stop stop-color="#245795"/>
<stop offset="0.827877" stop-color="#8AD3A8"/>
</linearGradient>
<linearGradient id="paint20_linear_501_36624" x1="97.772" y1="-34.159" x2="71.5524" y2="26.1742" gradientUnits="userSpaceOnUse">
<stop offset="0.0354" stop-color="#138BBD"/>
<stop offset="0.2257" stop-color="#169AC7"/>
<stop offset="0.5946" stop-color="#1FC3DF"/>
<stop offset="1" stop-color="#2AF6FF"/>
</linearGradient>
<linearGradient id="paint21_linear_501_36624" x1="74.5235" y1="0" x2="74.5235" y2="29.9478" gradientUnits="userSpaceOnUse">
<stop stop-color="#F0FEF8"/>
<stop offset="1" stop-color="#E0F1E9"/>
</linearGradient>
<linearGradient id="paint22_linear_501_36624" x1="57.7815" y1="-25.5336" x2="115.525" y2="16.7403" gradientUnits="userSpaceOnUse">
<stop stop-color="#245795"/>
<stop offset="1" stop-color="#8AD3A8"/>
</linearGradient>
<linearGradient id="paint23_linear_501_36624" x1="47.4654" y1="33.6117" x2="119.64" y2="26.8454" gradientUnits="userSpaceOnUse">
<stop offset="0.0354" stop-color="#9F19AB"/>
<stop offset="0.2438" stop-color="#AE25B1"/>
<stop offset="0.6455" stop-color="#D744BF"/>
<stop offset="1" stop-color="#FF63CE"/>
</linearGradient>
<linearGradient id="paint24_linear_501_36624" x1="47.2969" y1="32.1192" x2="74.1425" y2="32.1192" gradientUnits="userSpaceOnUse">
<stop stop-color="#245795"/>
<stop offset="1" stop-color="#8AD3A8"/>
</linearGradient>
<linearGradient id="paint25_linear_501_36624" x1="58.0761" y1="44.5989" x2="53.3215" y2="10.7548" gradientUnits="userSpaceOnUse">
<stop stop-color="#D4F2E4"/>
<stop offset="1" stop-color="#71D5A4"/>
</linearGradient>
<linearGradient id="paint26_linear_501_36624" x1="47.2942" y1="32.2031" x2="73.8938" y2="32.2031" gradientUnits="userSpaceOnUse">
<stop offset="0.0354" stop-color="#9F19AB"/>
<stop offset="0.2438" stop-color="#AE25B1"/>
<stop offset="0.6455" stop-color="#D744BF"/>
<stop offset="1" stop-color="#FF63CE"/>
</linearGradient>
<linearGradient id="paint27_linear_501_36624" x1="47.2969" y1="32.2753" x2="63.1022" y2="32.2753" gradientUnits="userSpaceOnUse">
<stop stop-color="#245795"/>
<stop offset="1" stop-color="#8AD3A8"/>
</linearGradient>
<linearGradient id="paint28_linear_501_36624" x1="53.6431" y1="44.0299" x2="46.6884" y2="13.0861" gradientUnits="userSpaceOnUse">
<stop stop-color="#D4F2E4"/>
<stop offset="1" stop-color="#71D5A4"/>
</linearGradient>
<linearGradient id="paint29_linear_501_36624" x1="48.324" y1="42.7884" x2="120.498" y2="36.0221" gradientUnits="userSpaceOnUse">
<stop offset="0.0354" stop-color="#9F19AB"/>
<stop offset="0.2438" stop-color="#AE25B1"/>
<stop offset="0.6455" stop-color="#D744BF"/>
<stop offset="1" stop-color="#FF63CE"/>
</linearGradient>
<linearGradient id="paint30_linear_501_36624" x1="46.8301" y1="42.6013" x2="55.4617" y2="42.6013" gradientUnits="userSpaceOnUse">
<stop stop-color="#245795"/>
<stop offset="1" stop-color="#8AD3A8"/>
</linearGradient>
<linearGradient id="paint31_linear_501_36624" x1="50.2959" y1="54.9145" x2="37.9167" y2="26.1996" gradientUnits="userSpaceOnUse">
<stop stop-color="#D4F2E4"/>
<stop offset="1" stop-color="#71D5A4"/>
</linearGradient>
<linearGradient id="paint32_linear_501_36624" x1="-3.34151" y1="5.19429" x2="56.4278" y2="57.9153" gradientUnits="userSpaceOnUse">
<stop offset="0.0354" stop-color="#9F19AB"/>
<stop offset="0.2438" stop-color="#AE25B1"/>
<stop offset="0.6455" stop-color="#D744BF"/>
<stop offset="1" stop-color="#FF63CE"/>
</linearGradient>
<linearGradient id="paint33_linear_501_36624" x1="19.2715" y1="37.4058" x2="46.8308" y2="37.4058" gradientUnits="userSpaceOnUse">
<stop stop-color="#245795"/>
<stop offset="1" stop-color="#8AD3A8"/>
</linearGradient>
<linearGradient id="paint34_linear_501_36624" x1="30.3373" y1="54.8015" x2="21.4828" y2="8.38349" gradientUnits="userSpaceOnUse">
<stop stop-color="#D4F2E4"/>
<stop offset="1" stop-color="#71D5A4"/>
</linearGradient>
<linearGradient id="paint35_linear_501_36624" x1="66.8186" y1="20.4847" x2="66.4279" y2="8.02474" gradientUnits="userSpaceOnUse">
<stop stop-color="#E0F1E9"/>
<stop offset="1" stop-color="#EFFDF7"/>
</linearGradient>
<linearGradient id="paint36_linear_501_36624" x1="77.4685" y1="17.5304" x2="62.651" y2="15.9096" gradientUnits="userSpaceOnUse">
<stop stop-color="#D4F2E4"/>
<stop offset="1" stop-color="#71D5A4"/>
</linearGradient>
<linearGradient id="paint37_linear_501_36624" x1="101.236" y1="52.0342" x2="121.449" y2="52.0342" gradientUnits="userSpaceOnUse">
<stop offset="0.0354" stop-color="#138BBD"/>
<stop offset="0.2257" stop-color="#169AC7"/>
<stop offset="0.5946" stop-color="#1FC3DF"/>
<stop offset="1" stop-color="#2AF6FF"/>
</linearGradient>
<linearGradient id="paint38_linear_501_36624" x1="102.813" y1="47.6113" x2="102.813" y2="56.4624" gradientUnits="userSpaceOnUse">
<stop stop-color="#D4F2E4"/>
<stop offset="1" stop-color="#A8DFF9"/>
</linearGradient>
<linearGradient id="paint39_linear_501_36624" x1="102.813" y1="47.6113" x2="102.813" y2="56.4624" gradientUnits="userSpaceOnUse">
<stop stop-color="#D4F2E4"/>
<stop offset="1" stop-color="#71D5A4"/>
</linearGradient>
<linearGradient id="paint40_linear_501_36624" x1="101.844" y1="56.3669" x2="100.299" y2="44.6708" gradientUnits="userSpaceOnUse">
<stop stop-color="#D4F2E4"/>
<stop offset="1" stop-color="#71D5A4"/>
</linearGradient>
<linearGradient id="paint41_linear_501_36624" x1="101.979" y1="57.113" x2="101.751" y2="47.5778" gradientUnits="userSpaceOnUse">
<stop stop-color="#E0F1E9"/>
<stop offset="1" stop-color="#EFFDF7"/>
</linearGradient>
<linearGradient id="paint42_linear_501_36624" x1="28.6643" y1="41.8584" x2="42.8907" y2="77.9196" gradientUnits="userSpaceOnUse">
<stop offset="0.0354" stop-color="#138BBD"/>
<stop offset="0.2257" stop-color="#169AC7"/>
<stop offset="0.5946" stop-color="#1FC3DF"/>
<stop offset="1" stop-color="#2AF6FF"/>
</linearGradient>
<linearGradient id="paint43_linear_501_36624" x1="63.5156" y1="47.7305" x2="63.5156" y2="56.9047" gradientUnits="userSpaceOnUse">
<stop stop-color="#D4F2E4"/>
<stop offset="1" stop-color="#A8DFF9"/>
</linearGradient>
<linearGradient id="paint44_linear_501_36624" x1="63.5156" y1="47.7305" x2="63.5156" y2="56.9047" gradientUnits="userSpaceOnUse">
<stop stop-color="#D4F2E4"/>
<stop offset="1" stop-color="#71D5A4"/>
</linearGradient>
<linearGradient id="paint45_linear_501_36624" x1="32.9375" y1="44.1461" x2="47.1639" y2="80.2072" gradientUnits="userSpaceOnUse">
<stop offset="0.0354" stop-color="#138BBD"/>
<stop offset="0.2257" stop-color="#169AC7"/>
<stop offset="0.5946" stop-color="#1FC3DF"/>
<stop offset="1" stop-color="#2AF6FF"/>
</linearGradient>
<linearGradient id="paint46_linear_501_36624" x1="73.7765" y1="51.4951" x2="73.7765" y2="60.6383" gradientUnits="userSpaceOnUse">
<stop stop-color="#D4F2E4"/>
<stop offset="1" stop-color="#A8DFF9"/>
</linearGradient>
<linearGradient id="paint47_linear_501_36624" x1="73.7765" y1="51.4951" x2="73.7765" y2="60.6383" gradientUnits="userSpaceOnUse">
<stop stop-color="#D4F2E4"/>
<stop offset="1" stop-color="#71D5A4"/>
</linearGradient>
<linearGradient id="paint48_linear_501_36624" x1="72.9613" y1="61.3104" x2="72.7121" y2="51.4611" gradientUnits="userSpaceOnUse">
<stop stop-color="#E0F1E9"/>
<stop offset="1" stop-color="#EFFDF7"/>
</linearGradient>
<linearGradient id="paint49_linear_501_36624" x1="80.4082" y1="56.0005" x2="108.771" y2="56.0005" gradientUnits="userSpaceOnUse">
<stop offset="0.0101" stop-color="#138BBD"/>
<stop offset="0.0975" stop-color="#148FC0"/>
<stop offset="0.1927" stop-color="#179DC8"/>
<stop offset="0.2828" stop-color="#1BB0D4"/>
<stop offset="0.3151" stop-color="#1CB3D6"/>
<stop offset="0.3435" stop-color="#1EBEDD"/>
<stop offset="0.3535" stop-color="#1FC4E1"/>
<stop offset="0.6313" stop-color="#2AF6FF"/>
<stop offset="0.8737" stop-color="#1BB0D4"/>
</linearGradient>
<linearGradient id="paint50_linear_501_36624" x1="92.7698" y1="51.3623" x2="92.7698" y2="60.6387" gradientUnits="userSpaceOnUse">
<stop stop-color="#D4F2E4"/>
<stop offset="1" stop-color="#A8DFF9"/>
</linearGradient>
<linearGradient id="paint51_linear_501_36624" x1="92.7698" y1="51.3623" x2="92.7698" y2="60.6387" gradientUnits="userSpaceOnUse">
<stop stop-color="#D4F2E4"/>
<stop offset="1" stop-color="#71D5A4"/>
</linearGradient>
<linearGradient id="paint52_linear_501_36624" x1="89.9759" y1="60.5386" x2="89.3781" y2="48.0951" gradientUnits="userSpaceOnUse">
<stop stop-color="#D4F2E4"/>
<stop offset="1" stop-color="#71D5A4"/>
</linearGradient>
<linearGradient id="paint53_linear_501_36624" x1="90.3643" y1="61.3205" x2="90.2773" y2="51.3222" gradientUnits="userSpaceOnUse">
<stop stop-color="#E0F1E9"/>
<stop offset="1" stop-color="#EFFDF7"/>
</linearGradient>
<linearGradient id="paint54_linear_501_36624" x1="106.77" y1="60.4746" x2="82.8533" y2="42.8179" gradientUnits="userSpaceOnUse">
<stop stop-color="#245795"/>
<stop offset="1" stop-color="#8AD3A8"/>
</linearGradient>
<linearGradient id="paint55_linear_501_36624" x1="103.63" y1="29.8796" x2="99.8486" y2="55.5293" gradientUnits="userSpaceOnUse">
<stop offset="0.0354" stop-color="#138BBD"/>
<stop offset="0.2257" stop-color="#169AC7"/>
<stop offset="0.5946" stop-color="#1FC3DF"/>
<stop offset="1" stop-color="#2AF6FF"/>
</linearGradient>
<linearGradient id="paint56_linear_501_36624" x1="78.5937" y1="42.3604" x2="78.5937" y2="53.3024" gradientUnits="userSpaceOnUse">
<stop stop-color="#F0FEF8"/>
<stop offset="1" stop-color="#E0F1E9"/>
</linearGradient>
<linearGradient id="paint57_linear_501_36624" x1="107.334" y1="53.109" x2="78.7169" y2="16.3414" gradientUnits="userSpaceOnUse">
<stop stop-color="#245795"/>
<stop offset="1" stop-color="#8AD3A8"/>
</linearGradient>
<linearGradient id="paint58_linear_501_36624" x1="50.3866" y1="54.642" x2="123.233" y2="34.5127" gradientUnits="userSpaceOnUse">
<stop offset="0.0354" stop-color="#9F19AB"/>
<stop offset="0.2438" stop-color="#AE25B1"/>
<stop offset="0.6455" stop-color="#D744BF"/>
<stop offset="1" stop-color="#FF63CE"/>
</linearGradient>
<linearGradient id="paint59_linear_501_36624" x1="50.2051" y1="54.0967" x2="79.1157" y2="54.0967" gradientUnits="userSpaceOnUse">
<stop stop-color="#245795"/>
<stop offset="1" stop-color="#8AD3A8"/>
</linearGradient>
<linearGradient id="paint60_linear_501_36624" x1="61.8134" y1="58.6564" x2="61.2138" y2="46.0752" gradientUnits="userSpaceOnUse">
<stop stop-color="#D4F2E4"/>
<stop offset="1" stop-color="#71D5A4"/>
</linearGradient>
<linearGradient id="paint61_linear_501_36624" x1="50.2022" y1="54.1272" x2="78.8478" y2="54.1272" gradientUnits="userSpaceOnUse">
<stop offset="0.0354" stop-color="#9F19AB"/>
<stop offset="0.2438" stop-color="#AE25B1"/>
<stop offset="0.6455" stop-color="#D744BF"/>
<stop offset="1" stop-color="#FF63CE"/>
</linearGradient>
<linearGradient id="paint62_linear_501_36624" x1="50.2051" y1="54.1536" x2="67.2262" y2="54.1536" gradientUnits="userSpaceOnUse">
<stop stop-color="#245795"/>
<stop offset="1" stop-color="#8AD3A8"/>
</linearGradient>
<linearGradient id="paint63_linear_501_36624" x1="57.0395" y1="58.4485" x2="56.139" y2="46.64" gradientUnits="userSpaceOnUse">
<stop stop-color="#D4F2E4"/>
<stop offset="1" stop-color="#71D5A4"/>
</linearGradient>
<linearGradient id="paint64_linear_501_36624" x1="51.3139" y1="57.9937" x2="124.161" y2="37.8644" gradientUnits="userSpaceOnUse">
<stop offset="0.0354" stop-color="#9F19AB"/>
<stop offset="0.2438" stop-color="#AE25B1"/>
<stop offset="0.6455" stop-color="#D744BF"/>
<stop offset="1" stop-color="#FF63CE"/>
</linearGradient>
<linearGradient id="paint65_linear_501_36624" x1="49.7051" y1="57.9253" x2="59.0006" y2="57.9253" gradientUnits="userSpaceOnUse">
<stop stop-color="#245795"/>
<stop offset="1" stop-color="#8AD3A8"/>
</linearGradient>
<linearGradient id="paint66_linear_501_36624" x1="53.4375" y1="62.4242" x2="51.6558" y2="50.2433" gradientUnits="userSpaceOnUse">
<stop stop-color="#D4F2E4"/>
<stop offset="1" stop-color="#71D5A4"/>
</linearGradient>
<linearGradient id="paint67_linear_501_36624" x1="-4.32698" y1="44.2601" x2="10.4227" y2="82.6073" gradientUnits="userSpaceOnUse">
<stop offset="0.0354" stop-color="#9F19AB"/>
<stop offset="0.2438" stop-color="#AE25B1"/>
<stop offset="0.6455" stop-color="#D744BF"/>
<stop offset="1" stop-color="#FF63CE"/>
</linearGradient>
<linearGradient id="paint68_linear_501_36624" x1="20.0254" y1="56.0293" x2="49.7046" y2="56.0293" gradientUnits="userSpaceOnUse">
<stop stop-color="#245795"/>
<stop offset="1" stop-color="#8AD3A8"/>
</linearGradient>
<linearGradient id="paint69_linear_501_36624" x1="31.9423" y1="62.3852" x2="30.8095" y2="44.8815" gradientUnits="userSpaceOnUse">
<stop stop-color="#D4F2E4"/>
<stop offset="1" stop-color="#71D5A4"/>
</linearGradient>
<linearGradient id="paint70_linear_501_36624" x1="71.2317" y1="49.846" x2="71.1833" y2="45.2895" gradientUnits="userSpaceOnUse">
<stop stop-color="#E0F1E9"/>
<stop offset="1" stop-color="#EFFDF7"/>
</linearGradient>
<linearGradient id="paint71_linear_501_36624" x1="82.7008" y1="48.7666" x2="68.0731" y2="44.0506" gradientUnits="userSpaceOnUse">
<stop stop-color="#D4F2E4"/>
<stop offset="1" stop-color="#71D5A4"/>
</linearGradient>
<linearGradient id="paint72_linear_501_36624" x1="61.3139" y1="27.4445" x2="59.6956" y2="53.7324" gradientUnits="userSpaceOnUse">
<stop offset="0.0354" stop-color="#9F19AB"/>
<stop offset="0.2438" stop-color="#AE25B1"/>
<stop offset="0.6455" stop-color="#D744BF"/>
<stop offset="1" stop-color="#FF63CE"/>
</linearGradient>
<linearGradient id="paint73_linear_501_36624" x1="20.0195" y1="49.4503" x2="79.11" y2="49.4503" gradientUnits="userSpaceOnUse">
<stop stop-color="#245795"/>
<stop offset="1" stop-color="#8AD3A8"/>
</linearGradient>
<linearGradient id="paint74_linear_501_36624" x1="43.7459" y1="55.0645" x2="43.3005" y2="39.5516" gradientUnits="userSpaceOnUse">
<stop stop-color="#D4F2E4"/>
<stop offset="1" stop-color="#71D5A4"/>
</linearGradient>
</defs>
</svg>
