<svg width="98" height="98" viewBox="0 0 98 98" fill="none" xmlns="http://www.w3.org/2000/svg">
<g opacity="0.2" filter="url(#filter0_f_501_36753)">
<path d="M77.9786 65.1211L71.787 66.6233C71.1965 66.7677 71.5593 67.0225 72.3944 67.0367C72.4112 67.0367 72.4281 67.0385 72.4408 67.0385L71.7828 67.1989C71.1923 67.3432 71.5551 67.5981 72.3902 67.6123C72.5378 67.6141 72.6854 72.4041 72.833 72.4095L77.9786 71.1638L77.9744 71.1621H77.9997V65.1211H77.9786Z" fill="url(#paint0_linear_501_36753)"/>
<path d="M77.9786 65.1211L71.787 66.6233C71.1965 66.7677 71.5593 67.0225 72.3944 67.0367C72.4112 67.0367 72.4281 67.0385 72.4408 67.0385L71.7828 67.1989C71.1923 67.3432 71.5551 67.5981 72.3902 67.6123C72.5378 67.6141 72.6854 72.4041 72.833 72.4095L77.9786 71.1638L77.9744 71.1621H77.9997V65.1211H77.9786Z" fill="url(#paint1_linear_501_36753)"/>
<path d="M77.9786 65.1211L71.787 66.6233C71.1965 66.7677 71.5593 67.0225 72.3944 67.0367C72.4112 67.0367 72.4281 67.0385 72.4408 67.0385L71.7828 67.1989C71.1923 67.3432 71.5551 67.5981 72.3902 67.6123C72.5378 67.6141 72.6854 72.4041 72.833 72.4095L77.9786 71.1638L77.9744 71.1621H77.9997V65.1211H77.9786Z" fill="url(#paint2_linear_501_36753)"/>
<path d="M77.9786 65.1211L71.787 66.6233C71.1965 66.7677 71.5593 67.0225 72.3944 67.0367C72.4112 67.0367 72.4281 67.0385 72.4408 67.0385L71.7828 67.1989C71.1923 67.3432 71.5551 67.5981 72.3902 67.6123C72.5378 67.6141 72.6854 72.4041 72.833 72.4095L77.9786 71.1638L77.9744 71.1621H77.9997V65.1211H77.9786Z" fill="url(#paint3_linear_501_36753)"/>
<path d="M77.9786 65.1211L71.787 66.6233C71.1965 66.7677 71.5593 67.0225 72.3944 67.0367C72.4112 67.0367 72.4281 67.0385 72.4408 67.0385L71.7828 67.1989C71.1923 67.3432 71.5551 67.5981 72.3902 67.6123C72.5378 67.6141 72.6854 72.4041 72.833 72.4095L77.9786 71.1638L77.9744 71.1621H77.9997V65.1211H77.9786Z" fill="url(#paint4_linear_501_36753)"/>
<path d="M56.7038 71.8274C57.2943 71.9895 57.6866 72.1927 57.889 72.4101C58.083 72.2052 58.0957 67.2031 57.9354 66.9946C58.2644 66.5687 57.8511 66.0983 56.7038 65.7846C54.5191 65.1877 50.7696 65.1663 48.4962 65.7205C47.5388 65.9539 46.999 66.2515 46.8809 66.558C46.8176 66.7166 46.0415 66.7879 45.5776 66.6756L39.4746 65.2197V71.2607L45.5776 72.7184C46.0415 72.8324 46.8218 72.7611 46.8809 72.6008C46.999 72.2943 47.5346 71.9967 48.4962 71.7632C50.7696 71.209 54.5191 71.2322 56.7038 71.8274Z" fill="url(#paint5_linear_501_36753)"/>
<path d="M56.7038 71.8274C57.2943 71.9895 57.6866 72.1927 57.889 72.4101C58.083 72.2052 58.0957 67.2031 57.9354 66.9946C58.2644 66.5687 57.8511 66.0983 56.7038 65.7846C54.5191 65.1877 50.7696 65.1663 48.4962 65.7205C47.5388 65.9539 46.999 66.2515 46.8809 66.558C46.8176 66.7166 46.0415 66.7879 45.5776 66.6756L39.4746 65.2197V71.2607L45.5776 72.7184C46.0415 72.8324 46.8218 72.7611 46.8809 72.6008C46.999 72.2943 47.5346 71.9967 48.4962 71.7632C50.7696 71.209 54.5191 71.2322 56.7038 71.8274Z" fill="url(#paint6_linear_501_36753)"/>
<path d="M56.7038 71.8274C57.2943 71.9895 57.6866 72.1927 57.889 72.4101C58.083 72.2052 58.0957 67.2031 57.9354 66.9946C58.2644 66.5687 57.8511 66.0983 56.7038 65.7846C54.5191 65.1877 50.7696 65.1663 48.4962 65.7205C47.5388 65.9539 46.999 66.2515 46.8809 66.558C46.8176 66.7166 46.0415 66.7879 45.5776 66.6756L39.4746 65.2197V71.2607L45.5776 72.7184C46.0415 72.8324 46.8218 72.7611 46.8809 72.6008C46.999 72.2943 47.5346 71.9967 48.4962 71.7632C50.7696 71.209 54.5191 71.2322 56.7038 71.8274Z" fill="url(#paint7_linear_501_36753)"/>
<path d="M58.7253 69.8083L52.5928 68.388C52.5084 68.3666 52.4578 68.3435 52.4198 68.3203V74.2312C52.3186 74.2953 52.3566 74.372 52.5928 74.429L58.7253 75.8493V69.8083Z" fill="url(#paint8_linear_501_36753)"/>
<path d="M58.7253 69.8083L52.5928 68.388C52.5084 68.3666 52.4578 68.3435 52.4198 68.3203V74.2312C52.3186 74.2953 52.3566 74.372 52.5928 74.429L58.7253 75.8493V69.8083Z" fill="url(#paint9_linear_501_36753)"/>
<path d="M58.7253 69.8083L52.5928 68.388C52.5084 68.3666 52.4578 68.3435 52.4198 68.3203V74.2312C52.3186 74.2953 52.3566 74.372 52.5928 74.429L58.7253 75.8493V69.8083Z" fill="url(#paint10_linear_501_36753)"/>
<path d="M58.7253 69.8083L52.5928 68.388C52.5084 68.3666 52.4578 68.3435 52.4198 68.3203V74.2312C52.3186 74.2953 52.3566 74.372 52.5928 74.429L58.7253 75.8493V69.8083Z" fill="url(#paint11_linear_501_36753)"/>
<g opacity="0.5">
<path d="M58.7227 75.8485L64.9859 74.3214C65.5764 74.177 66.6097 74.2679 66.6688 74.4728C66.7573 74.7972 67.3352 75.1143 68.398 75.3549C70.4436 75.8182 73.7039 75.8218 75.741 75.362C76.8418 75.1143 77.407 74.7811 77.4576 74.4461H77.4829V68.4051L77.4576 68.4069C77.407 68.7419 76.8376 69.0734 75.741 69.3211C73.7039 69.7808 70.4478 69.779 68.398 69.3139C67.3352 69.0734 66.7573 68.7562 66.6688 68.4319C66.6139 68.2269 65.5806 68.136 64.9859 68.2804L58.7227 69.8076V75.8485Z" fill="url(#paint12_linear_501_36753)"/>
<path d="M58.7227 75.8485L64.9859 74.3214C65.5764 74.177 66.6097 74.2679 66.6688 74.4728C66.7573 74.7972 67.3352 75.1143 68.398 75.3549C70.4436 75.8182 73.7039 75.8218 75.741 75.362C76.8418 75.1143 77.407 74.7811 77.4576 74.4461H77.4829V68.4051L77.4576 68.4069C77.407 68.7419 76.8376 69.0734 75.741 69.3211C73.7039 69.7808 70.4478 69.779 68.398 69.3139C67.3352 69.0734 66.7573 68.7562 66.6688 68.4319C66.6139 68.2269 65.5806 68.136 64.9859 68.2804L58.7227 69.8076V75.8485Z" fill="url(#paint13_linear_501_36753)"/>
<path d="M58.7227 75.8485L64.9859 74.3214C65.5764 74.177 66.6097 74.2679 66.6688 74.4728C66.7573 74.7972 67.3352 75.1143 68.398 75.3549C70.4436 75.8182 73.7039 75.8218 75.741 75.362C76.8418 75.1143 77.407 74.7811 77.4576 74.4461H77.4829V68.4051L77.4576 68.4069C77.407 68.7419 76.8376 69.0734 75.741 69.3211C73.7039 69.7808 70.4478 69.779 68.398 69.3139C67.3352 69.0734 66.7573 68.7562 66.6688 68.4319C66.6139 68.2269 65.5806 68.136 64.9859 68.2804L58.7227 69.8076V75.8485Z" fill="url(#paint14_linear_501_36753)"/>
<path d="M58.7227 75.8485L64.9859 74.3214C65.5764 74.177 66.6097 74.2679 66.6688 74.4728C66.7573 74.7972 67.3352 75.1143 68.398 75.3549C70.4436 75.8182 73.7039 75.8218 75.741 75.362C76.8418 75.1143 77.407 74.7811 77.4576 74.4461H77.4829V68.4051L77.4576 68.4069C77.407 68.7419 76.8376 69.0734 75.741 69.3211C73.7039 69.7808 70.4478 69.779 68.398 69.3139C67.3352 69.0734 66.7573 68.7562 66.6688 68.4319C66.6139 68.2269 65.5806 68.136 64.9859 68.2804L58.7227 69.8076V75.8485Z" fill="url(#paint15_linear_501_36753)"/>
<path d="M58.7227 75.8485L64.9859 74.3214C65.5764 74.177 66.6097 74.2679 66.6688 74.4728C66.7573 74.7972 67.3352 75.1143 68.398 75.3549C70.4436 75.8182 73.7039 75.8218 75.741 75.362C76.8418 75.1143 77.407 74.7811 77.4576 74.4461H77.4829V68.4051L77.4576 68.4069C77.407 68.7419 76.8376 69.0734 75.741 69.3211C73.7039 69.7808 70.4478 69.779 68.398 69.3139C67.3352 69.0734 66.7573 68.7562 66.6688 68.4319C66.6139 68.2269 65.5806 68.136 64.9859 68.2804L58.7227 69.8076V75.8485Z" fill="url(#paint16_linear_501_36753)"/>
<path d="M58.7227 75.8485L64.9859 74.3214C65.5764 74.177 66.6097 74.2679 66.6688 74.4728C66.7573 74.7972 67.3352 75.1143 68.398 75.3549C70.4436 75.8182 73.7039 75.8218 75.741 75.362C76.8418 75.1143 77.407 74.7811 77.4576 74.4461H77.4829V68.4051L77.4576 68.4069C77.407 68.7419 76.8376 69.0734 75.741 69.3211C73.7039 69.7808 70.4478 69.779 68.398 69.3139C67.3352 69.0734 66.7573 68.7562 66.6688 68.4319C66.6139 68.2269 65.5806 68.136 64.9859 68.2804L58.7227 69.8076V75.8485Z" fill="url(#paint17_linear_501_36753)"/>
</g>
<path d="M48.4962 65.722C50.7696 65.1678 54.5149 65.1891 56.7038 65.7861C58.4711 66.2672 58.509 67.1262 56.746 67.6127C55.7591 67.8853 54.4389 68.0368 53.0809 68.0688C52.4229 68.0849 52.1234 68.2738 52.5916 68.3878L58.7241 69.8081L64.9874 68.2809C65.5778 68.1366 66.6112 68.2274 66.6702 68.4324C66.7588 68.7567 67.3366 69.0739 68.3995 69.3145C70.4451 69.7778 73.7053 69.7813 75.7425 69.3216C77.9989 68.8119 78.0369 67.9512 75.869 67.422C74.8989 67.185 73.6589 67.0567 72.3978 67.0371C71.5627 67.0228 71.1958 66.768 71.7905 66.6236L77.9863 65.1214L60.757 61.0264C59.5044 60.7217 57.9607 60.7217 56.7081 61.0264L39.4746 65.2194L45.5776 66.6771C46.0415 66.7912 46.8218 66.7199 46.8809 66.5595C47.0032 66.2548 47.5388 65.9554 48.4962 65.722Z" fill="url(#paint18_linear_501_36753)"/>
<path d="M48.4962 65.722C50.7696 65.1678 54.5149 65.1891 56.7038 65.7861C58.4711 66.2672 58.509 67.1262 56.746 67.6127C55.7591 67.8853 54.4389 68.0368 53.0809 68.0688C52.4229 68.0849 52.1234 68.2738 52.5916 68.3878L58.7241 69.8081L64.9874 68.2809C65.5778 68.1366 66.6112 68.2274 66.6702 68.4324C66.7588 68.7567 67.3366 69.0739 68.3995 69.3145C70.4451 69.7778 73.7053 69.7813 75.7425 69.3216C77.9989 68.8119 78.0369 67.9512 75.869 67.422C74.8989 67.185 73.6589 67.0567 72.3978 67.0371C71.5627 67.0228 71.1958 66.768 71.7905 66.6236L77.9863 65.1214L60.757 61.0264C59.5044 60.7217 57.9607 60.7217 56.7081 61.0264L39.4746 65.2194L45.5776 66.6771C46.0415 66.7912 46.8218 66.7199 46.8809 66.5595C47.0032 66.2548 47.5388 65.9554 48.4962 65.722Z" fill="url(#paint19_linear_501_36753)"/>
<path d="M48.4962 65.722C50.7696 65.1678 54.5149 65.1891 56.7038 65.7861C58.4711 66.2672 58.509 67.1262 56.746 67.6127C55.7591 67.8853 54.4389 68.0368 53.0809 68.0688C52.4229 68.0849 52.1234 68.2738 52.5916 68.3878L58.7241 69.8081L64.9874 68.2809C65.5778 68.1366 66.6112 68.2274 66.6702 68.4324C66.7588 68.7567 67.3366 69.0739 68.3995 69.3145C70.4451 69.7778 73.7053 69.7813 75.7425 69.3216C77.9989 68.8119 78.0369 67.9512 75.869 67.422C74.8989 67.185 73.6589 67.0567 72.3978 67.0371C71.5627 67.0228 71.1958 66.768 71.7905 66.6236L77.9863 65.1214L60.757 61.0264C59.5044 60.7217 57.9607 60.7217 56.7081 61.0264L39.4746 65.2194L45.5776 66.6771C46.0415 66.7912 46.8218 66.7199 46.8809 66.5595C47.0032 66.2548 47.5388 65.9554 48.4962 65.722Z" fill="url(#paint20_linear_501_36753)"/>
<path d="M52.5233 68.2004C52.0594 68.3144 51.2791 68.2396 51.2116 68.0792C51.0724 67.7477 50.4398 67.4252 49.3179 67.1811C47.2892 66.7427 43.9319 66.7356 41.8948 67.1668C40.2752 67.509 39.6763 68.0186 40.0854 68.4891C39.904 68.6976 39.9209 73.6978 40.136 73.9046C40.4059 73.6444 40.9922 73.4002 41.899 73.2096C43.9361 72.7783 47.2892 72.7855 49.3221 73.2238C50.4482 73.4662 51.0767 73.7887 51.2158 74.122C51.2833 74.2823 52.0594 74.3572 52.5275 74.2431L59.0776 72.6162V67.2577V67.1508V66.5752L52.5233 68.2004Z" fill="url(#paint21_linear_501_36753)"/>
<path d="M52.5233 68.2004C52.0594 68.3144 51.2791 68.2396 51.2116 68.0792C51.0724 67.7477 50.4398 67.4252 49.3179 67.1811C47.2892 66.7427 43.9319 66.7356 41.8948 67.1668C40.2752 67.509 39.6763 68.0186 40.0854 68.4891C39.904 68.6976 39.9209 73.6978 40.136 73.9046C40.4059 73.6444 40.9922 73.4002 41.899 73.2096C43.9361 72.7783 47.2892 72.7855 49.3221 73.2238C50.4482 73.4662 51.0767 73.7887 51.2158 74.122C51.2833 74.2823 52.0594 74.3572 52.5275 74.2431L59.0776 72.6162V67.2577V67.1508V66.5752L52.5233 68.2004Z" fill="url(#paint22_linear_501_36753)"/>
<path d="M52.5233 68.2004C52.0594 68.3144 51.2791 68.2396 51.2116 68.0792C51.0724 67.7477 50.4398 67.4252 49.3179 67.1811C47.2892 66.7427 43.9319 66.7356 41.8948 67.1668C40.2752 67.509 39.6763 68.0186 40.0854 68.4891C39.904 68.6976 39.9209 73.6978 40.136 73.9046C40.4059 73.6444 40.9922 73.4002 41.899 73.2096C43.9361 72.7783 47.2892 72.7855 49.3221 73.2238C50.4482 73.4662 51.0767 73.7887 51.2158 74.122C51.2833 74.2823 52.0594 74.3572 52.5275 74.2431L59.0776 72.6162V67.2577V67.1508V66.5752L52.5233 68.2004Z" fill="url(#paint23_linear_501_36753)"/>
<path d="M51.2116 68.08C51.0724 67.7486 50.4398 67.426 49.3179 67.1819C47.2892 66.7435 43.9319 66.7364 41.8948 67.1677C40.2752 67.5098 39.6763 68.0195 40.0854 68.4899C39.904 68.6984 39.9209 73.6987 40.136 73.9054C40.4059 73.6452 40.9922 73.4011 41.899 73.2104C43.9361 72.7792 47.2892 72.7863 49.3221 73.2247C50.4482 73.467 51.0767 73.7896 51.2158 74.1228V68.08H51.2116Z" fill="url(#paint24_linear_501_36753)"/>
<path d="M51.2116 68.08C51.0724 67.7486 50.4398 67.426 49.3179 67.1819C47.2892 66.7435 43.9319 66.7364 41.8948 67.1677C40.2752 67.5098 39.6763 68.0195 40.0854 68.4899C39.904 68.6984 39.9209 73.6987 40.136 73.9054C40.4059 73.6452 40.9922 73.4011 41.899 73.2104C43.9361 72.7792 47.2892 72.7863 49.3221 73.2247C50.4482 73.467 51.0767 73.7896 51.2158 74.1228V68.08H51.2116Z" fill="url(#paint25_linear_501_36753)"/>
<path d="M51.2116 68.08C51.0724 67.7486 50.4398 67.426 49.3179 67.1819C47.2892 66.7435 43.9319 66.7364 41.8948 67.1677C40.2752 67.5098 39.6763 68.0195 40.0854 68.4899C39.904 68.6984 39.9209 73.6987 40.136 73.9054C40.4059 73.6452 40.9922 73.4011 41.899 73.2104C43.9361 72.7792 47.2892 72.7863 49.3221 73.2247C50.4482 73.467 51.0767 73.7896 51.2158 74.1228V68.08H51.2116Z" fill="url(#paint26_linear_501_36753)"/>
<path d="M39.6289 77.4011L45.5548 75.9434C45.7361 75.8988 45.7952 75.8436 45.7699 75.7919V69.7812C45.7614 69.824 45.6982 69.8668 45.5548 69.9024L39.6331 71.3601H39.6289V71.3619V77.4011Z" fill="url(#paint27_linear_501_36753)"/>
<path d="M39.6289 77.4011L45.5548 75.9434C45.7361 75.8988 45.7952 75.8436 45.7699 75.7919V69.7812C45.7614 69.824 45.6982 69.8668 45.5548 69.9024L39.6331 71.3601H39.6289V71.3619V77.4011Z" fill="url(#paint28_linear_501_36753)"/>
<path d="M39.6289 77.4011L45.5548 75.9434C45.7361 75.8988 45.7952 75.8436 45.7699 75.7919V69.7812C45.7614 69.824 45.6982 69.8668 45.5548 69.9024L39.6331 71.3601H39.6289V71.3619V77.4011Z" fill="url(#paint29_linear_501_36753)"/>
<path d="M39.6288 71.358V77.4008L20.0039 72.6767V66.6357L39.6288 71.358Z" fill="url(#paint30_linear_501_36753)"/>
<path d="M39.6288 71.358V77.4008L20.0039 72.6767V66.6357L39.6288 71.358Z" fill="url(#paint31_linear_501_36753)"/>
<path d="M39.6288 71.358V77.4008L20.0039 72.6767V66.6357L39.6288 71.358Z" fill="url(#paint32_linear_501_36753)"/>
<path d="M57.952 66.7048V63.2236L51.4603 64.2785L50.9609 64.9115L57.952 66.7048Z" fill="#D9D9D9"/>
<path d="M57.952 66.7048V63.2236L51.4603 64.2785L50.9609 64.9115L57.952 66.7048Z" fill="url(#paint33_linear_501_36753)"/>
<path d="M57.952 66.7048V63.2236L51.4603 64.2785L50.9609 64.9115L57.952 66.7048Z" fill="url(#paint34_linear_501_36753)"/>
<path d="M39.6291 71.3603L45.5549 69.9026C46.0189 69.7904 45.7194 69.5997 45.0657 69.5836C43.8088 69.5534 42.5857 69.4197 41.6198 69.1845C39.3128 68.6214 39.4013 67.6965 41.894 67.169C43.9311 66.7378 47.2842 66.7449 49.3171 67.1833C50.4432 67.4257 51.0717 67.7482 51.2109 68.0814C51.2783 68.2418 52.0544 68.3166 52.5226 68.2026L59.0726 66.5756L52.3117 64.9665C51.717 64.8204 52.0839 64.5691 52.9232 64.5566C54.2476 64.537 55.5466 64.398 56.5294 64.1396C58.4189 63.6425 58.4104 62.8495 56.5125 62.3487C54.4079 61.7963 50.8734 61.7821 48.7224 62.306C47.7608 62.5412 47.242 62.8424 47.1619 63.1506C47.1113 63.3538 46.0653 63.4411 45.4706 63.2968L39.4435 61.8516H39.4393L20.0042 66.6362H20L39.6291 71.3603Z" fill="url(#paint35_linear_501_36753)"/>
<path d="M39.6291 71.3603L45.5549 69.9026C46.0189 69.7904 45.7194 69.5997 45.0657 69.5836C43.8088 69.5534 42.5857 69.4197 41.6198 69.1845C39.3128 68.6214 39.4013 67.6965 41.894 67.169C43.9311 66.7378 47.2842 66.7449 49.3171 67.1833C50.4432 67.4257 51.0717 67.7482 51.2109 68.0814C51.2783 68.2418 52.0544 68.3166 52.5226 68.2026L59.0726 66.5756L52.3117 64.9665C51.717 64.8204 52.0839 64.5691 52.9232 64.5566C54.2476 64.537 55.5466 64.398 56.5294 64.1396C58.4189 63.6425 58.4104 62.8495 56.5125 62.3487C54.4079 61.7963 50.8734 61.7821 48.7224 62.306C47.7608 62.5412 47.242 62.8424 47.1619 63.1506C47.1113 63.3538 46.0653 63.4411 45.4706 63.2968L39.4435 61.8516H39.4393L20.0042 66.6362H20L39.6291 71.3603Z" fill="url(#paint36_linear_501_36753)"/>
<path d="M39.6291 71.3603L45.5549 69.9026C46.0189 69.7904 45.7194 69.5997 45.0657 69.5836C43.8088 69.5534 42.5857 69.4197 41.6198 69.1845C39.3128 68.6214 39.4013 67.6965 41.894 67.169C43.9311 66.7378 47.2842 66.7449 49.3171 67.1833C50.4432 67.4257 51.0717 67.7482 51.2109 68.0814C51.2783 68.2418 52.0544 68.3166 52.5226 68.2026L59.0726 66.5756L52.3117 64.9665C51.717 64.8204 52.0839 64.5691 52.9232 64.5566C54.2476 64.537 55.5466 64.398 56.5294 64.1396C58.4189 63.6425 58.4104 62.8495 56.5125 62.3487C54.4079 61.7963 50.8734 61.7821 48.7224 62.306C47.7608 62.5412 47.242 62.8424 47.1619 63.1506C47.1113 63.3538 46.0653 63.4411 45.4706 63.2968L39.4435 61.8516H39.4393L20.0042 66.6362H20L39.6291 71.3603Z" fill="url(#paint37_linear_501_36753)"/>
</g>
<path fill-rule="evenodd" clip-rule="evenodd" d="M36.4647 51.2014C36.5235 51.3693 36.636 51.5201 36.8017 51.6217L37.0446 51.7702L39.7078 53.3999L39.71 53.4015V53.3986L43.3018 55.5995L45.9227 57.2032C46.367 57.4752 46.8631 57.6105 47.359 57.6092V24.1434H58.3017L58.3017 19.7663L39.914 19.5605L36.416 19.7476L36.4647 51.2014Z" fill="#D4F2E4"/>
<path fill-rule="evenodd" clip-rule="evenodd" d="M36.4647 51.2014C36.5235 51.3693 36.636 51.5201 36.8017 51.6217L37.0446 51.7702L39.7078 53.3999L39.71 53.4015V53.3986L43.3018 55.5995L45.9227 57.2032C46.367 57.4752 46.8631 57.6105 47.359 57.6092V24.1434H58.3017L58.3017 19.7663L39.914 19.5605L36.416 19.7476L36.4647 51.2014Z" fill="url(#paint38_linear_501_36753)" fill-opacity="0.3"/>
<path fill-rule="evenodd" clip-rule="evenodd" d="M47.3576 19.6624L54.8028 19.5791L58.3008 19.7661L58.2522 51.2013C58.1933 51.3692 58.0808 51.5199 57.9151 51.6215L57.6723 51.77L55.0091 53.3997L55.0069 53.4013V53.3985L51.415 55.5993L48.7942 57.2031C48.3498 57.4751 47.8536 57.6104 47.3576 57.6091V19.6624Z" fill="#D4F2E4"/>
<path fill-rule="evenodd" clip-rule="evenodd" d="M47.3576 19.6624L54.8028 19.5791L58.3008 19.7661L58.2522 51.2013C58.1933 51.3692 58.0808 51.5199 57.9151 51.6215L57.6723 51.77L55.0091 53.3997L55.0069 53.4013V53.3985L51.415 55.5993L48.7942 57.2031C48.3498 57.4751 47.8536 57.6104 47.3576 57.6091V19.6624Z" fill="url(#paint39_linear_501_36753)" fill-opacity="0.4"/>
<path d="M48.8118 13.4251L58.1711 18.8856C58.4283 19.0355 58.5567 19.2982 58.5569 19.5608C58.5569 19.8237 58.4284 20.0859 58.1712 20.2358L54.7458 22.2342L51.9487 23.8662L48.8184 25.6924C47.9137 26.2203 46.799 26.2203 45.8944 25.6924L43.2135 24.1284L39.5394 21.982V21.9848L39.5371 21.9832L36.8129 20.3939L36.5645 20.249C36.3951 20.1499 36.28 20.0029 36.2198 19.8392C36.1866 19.7492 36.1699 19.6539 36.1699 19.5587C36.1696 19.29 36.3011 19.0212 36.5642 18.8676L45.8869 13.4256C46.7918 12.8973 47.9067 12.8972 48.8118 13.4251Z" fill="#F0FAF6"/>
<path fill-rule="evenodd" clip-rule="evenodd" d="M56.1621 62.691C56.2209 62.8589 56.3334 63.0097 56.4991 63.1112L56.7419 63.2598L59.4051 64.8895L59.4074 64.8911V64.8882L62.9992 67.0891L65.62 68.6928C66.0643 68.9648 66.5604 69.1001 67.0563 69.0988V35.6328H77.999L77.999 6.81021L59.6113 6.60449L56.1133 6.79151L56.1621 62.691Z" fill="#D4F2E4"/>
<path fill-rule="evenodd" clip-rule="evenodd" d="M56.1621 62.691C56.2209 62.8589 56.3334 63.0097 56.4991 63.1112L56.7419 63.2598L59.4051 64.8895L59.4074 64.8911V64.8882L62.9992 67.0891L65.62 68.6928C66.0643 68.9648 66.5604 69.1001 67.0563 69.0988V35.6328H77.999L77.999 6.81021L59.6113 6.60449L56.1133 6.79151L56.1621 62.691Z" fill="url(#paint40_linear_501_36753)" fill-opacity="0.65"/>
<path fill-rule="evenodd" clip-rule="evenodd" d="M77.9514 62.6908C77.8926 62.8587 77.7801 63.0094 77.6144 63.111L77.3716 63.2595L74.7084 64.8893L74.7061 64.8908V64.888L71.1143 67.0888L68.4935 68.6926C68.0491 68.9646 67.5528 69.0999 67.0568 69.0986V6.80975H57.814L74.502 6.62305L78 6.81007L77.9514 62.6908Z" fill="#D4F2E4"/>
<path fill-rule="evenodd" clip-rule="evenodd" d="M77.9514 62.6908C77.8926 62.8587 77.7801 63.0094 77.6144 63.111L77.3716 63.2595L74.7084 64.8893L74.7061 64.8908V64.888L71.1143 67.0888L68.4935 68.6926C68.0491 68.9646 67.5528 69.0999 67.0568 69.0986V6.80975H57.814L74.502 6.62305L78 6.81007L77.9514 62.6908Z" fill="url(#paint41_linear_501_36753)"/>
<path d="M68.474 0.73862L77.6238 6.19906C77.8752 6.34898 78.0008 6.61165 78.0009 6.87432C78.0009 7.13714 77.8754 7.39935 77.6239 7.54927L74.2752 9.5477L71.5407 11.1796L68.4806 13.0059C67.596 13.5338 66.5063 13.5338 65.6219 13.0059L63.0011 11.4418L59.4093 9.29548V9.29824L59.407 9.29671L56.7438 7.70733L56.501 7.56248C56.3353 7.4634 56.2228 7.3164 56.164 7.15266C56.1316 7.06264 56.1152 6.9674 56.1152 6.87217C56.1149 6.60351 56.2435 6.33469 56.5007 6.18109L65.6147 0.739081C66.4993 0.210825 67.5892 0.210671 68.474 0.73862Z" fill="#F0FAF6"/>
<path fill-rule="evenodd" clip-rule="evenodd" d="M20.0507 62.6907C20.1095 62.8586 20.222 63.0094 20.3877 63.111L20.6306 63.2595L23.2937 64.8892L23.296 64.8908V64.888L26.8878 67.0888L29.5087 68.6925C29.953 68.9645 30.4492 69.0998 30.9451 69.0985V35.7161L23.4999 35.6328L20.002 35.8198L20.0507 62.6907Z" fill="#D4F2E4"/>
<path fill-rule="evenodd" clip-rule="evenodd" d="M20.0507 62.6907C20.1095 62.8586 20.222 63.0094 20.3877 63.111L20.6306 63.2595L23.2937 64.8892L23.296 64.8908V64.888L26.8878 67.0888L29.5087 68.6925C29.953 68.9645 30.4492 69.0998 30.9451 69.0985V35.7161L23.4999 35.6328L20.002 35.8198L20.0507 62.6907Z" fill="url(#paint42_linear_501_36753)" fill-opacity="0.15"/>
<path fill-rule="evenodd" clip-rule="evenodd" d="M20.0507 62.6907C20.1095 62.8586 20.222 63.0094 20.3877 63.111L20.6306 63.2595L23.2937 64.8892L23.296 64.8908V64.888L26.8878 67.0888L29.5087 68.6925C29.953 68.9645 30.4492 69.0998 30.9451 69.0985V35.7161L23.4999 35.6328L20.002 35.8198L20.0507 62.6907Z" fill="#F0FAF6" fill-opacity="0.3"/>
<path fill-rule="evenodd" clip-rule="evenodd" d="M41.8399 62.6907C41.7811 62.8586 41.6686 63.0094 41.5029 63.111L41.2601 63.2595L38.5969 64.8892L38.5946 64.8908V64.888L35.0028 67.0888L32.382 68.6925C31.9377 68.9645 31.4415 69.0998 30.9456 69.0985V35.7161L38.3907 35.6328L41.8887 35.8198L41.8399 62.6907Z" fill="#D4F2E4"/>
<path fill-rule="evenodd" clip-rule="evenodd" d="M41.8399 62.6907C41.7811 62.8586 41.6686 63.0094 41.5029 63.111L41.2601 63.2595L38.5969 64.8892L38.5946 64.8908V64.888L35.0028 67.0888L32.382 68.6925C31.9377 68.9645 31.4415 69.0998 30.9456 69.0985V35.7161L38.3907 35.6328L41.8887 35.8198L41.8399 62.6907Z" fill="url(#paint43_linear_501_36753)" fill-opacity="0.4"/>
<path fill-rule="evenodd" clip-rule="evenodd" d="M41.8399 62.6907C41.7811 62.8586 41.6686 63.0094 41.5029 63.111L41.2601 63.2595L38.5969 64.8892L38.5946 64.8908V64.888L35.0028 67.0888L32.382 68.6925C31.9377 68.9645 31.4415 69.0998 30.9456 69.0985V35.7161L38.3907 35.6328L41.8887 35.8198L41.8399 62.6907Z" fill="url(#paint44_linear_501_36753)"/>
<path fill-rule="evenodd" clip-rule="evenodd" d="M41.8399 62.6907C41.7811 62.8586 41.6686 63.0094 41.5029 63.111L41.2601 63.2595L38.5969 64.8892L38.5946 64.8908V64.888L35.0028 67.0888L32.382 68.6925C31.9377 68.9645 31.4415 69.0998 30.9456 69.0985V35.7161L38.3907 35.6328L41.8887 35.8198L41.8399 62.6907Z" fill="#F0FAF6" fill-opacity="0.3"/>
<path d="M32.2926 29.5941L41.392 35.0545C41.642 35.2044 41.7669 35.4671 41.767 35.7298C41.767 35.9926 41.6422 36.2548 41.3921 36.4047L38.0618 38.4032L35.3424 40.0351L32.2991 41.8613C31.4195 42.3893 30.3358 42.3893 29.4563 41.8613L26.8499 40.2973L23.2778 38.1509V38.1537L23.2756 38.1522L20.6271 36.5628L20.3856 36.4179C20.2208 36.3189 20.109 36.1719 20.0504 36.0081C20.0182 35.9181 20.002 35.8229 20.002 35.7276C20.0017 35.459 20.1295 35.1902 20.3853 35.0366L29.449 29.5945C30.3288 29.0663 31.4127 29.0661 32.2926 29.5941Z" fill="#F0FAF6"/>
<defs>
<filter id="filter0_f_501_36753" x="0" y="40.7979" width="98" height="56.6035" filterUnits="userSpaceOnUse" color-interpolation-filters="sRGB">
<feFlood flood-opacity="0" result="BackgroundImageFix"/>
<feBlend mode="normal" in="SourceGraphic" in2="BackgroundImageFix" result="shape"/>
<feGaussianBlur stdDeviation="10" result="effect1_foregroundBlur_501_36753"/>
</filter>
<linearGradient id="paint0_linear_501_36753" x1="73.7032" y1="68.7631" x2="87.0684" y2="68.7631" gradientUnits="userSpaceOnUse">
<stop offset="0.0354" stop-color="#138BBD"/>
<stop offset="0.2257" stop-color="#169AC7"/>
<stop offset="0.5946" stop-color="#1FC3DF"/>
<stop offset="1" stop-color="#2AF6FF"/>
</linearGradient>
<linearGradient id="paint1_linear_501_36753" x1="74.7459" y1="65.1211" x2="74.7459" y2="72.4095" gradientUnits="userSpaceOnUse">
<stop stop-color="#D4F2E4"/>
<stop offset="1" stop-color="#A8DFF9"/>
</linearGradient>
<linearGradient id="paint2_linear_501_36753" x1="74.7459" y1="65.1211" x2="74.7459" y2="72.4095" gradientUnits="userSpaceOnUse">
<stop stop-color="#D4F2E4"/>
<stop offset="1" stop-color="#71D5A4"/>
</linearGradient>
<linearGradient id="paint3_linear_501_36753" x1="74.1051" y1="72.3308" x2="72.5351" y2="62.7899" gradientUnits="userSpaceOnUse">
<stop stop-color="#D4F2E4"/>
<stop offset="1" stop-color="#71D5A4"/>
</linearGradient>
<linearGradient id="paint4_linear_501_36753" x1="74.1942" y1="72.9452" x2="73.9603" y2="65.0959" gradientUnits="userSpaceOnUse">
<stop stop-color="#E0F1E9"/>
<stop offset="1" stop-color="#EFFDF7"/>
</linearGradient>
<linearGradient id="paint5_linear_501_36753" x1="25.7154" y1="60.3844" x2="39.2964" y2="88.0282" gradientUnits="userSpaceOnUse">
<stop offset="0.0354" stop-color="#138BBD"/>
<stop offset="0.2257" stop-color="#169AC7"/>
<stop offset="0.5946" stop-color="#1FC3DF"/>
<stop offset="1" stop-color="#2AF6FF"/>
</linearGradient>
<linearGradient id="paint6_linear_501_36753" x1="48.7603" y1="65.2197" x2="48.7603" y2="72.7742" gradientUnits="userSpaceOnUse">
<stop stop-color="#D4F2E4"/>
<stop offset="1" stop-color="#A8DFF9"/>
</linearGradient>
<linearGradient id="paint7_linear_501_36753" x1="48.7603" y1="65.2197" x2="48.7603" y2="72.7742" gradientUnits="userSpaceOnUse">
<stop stop-color="#D4F2E4"/>
<stop offset="1" stop-color="#71D5A4"/>
</linearGradient>
<linearGradient id="paint8_linear_501_36753" x1="28.5421" y1="62.2688" x2="42.1231" y2="89.9125" gradientUnits="userSpaceOnUse">
<stop offset="0.0354" stop-color="#138BBD"/>
<stop offset="0.2257" stop-color="#169AC7"/>
<stop offset="0.5946" stop-color="#1FC3DF"/>
<stop offset="1" stop-color="#2AF6FF"/>
</linearGradient>
<linearGradient id="paint9_linear_501_36753" x1="55.5462" y1="68.3203" x2="55.5462" y2="75.8493" gradientUnits="userSpaceOnUse">
<stop stop-color="#D4F2E4"/>
<stop offset="1" stop-color="#A8DFF9"/>
</linearGradient>
<linearGradient id="paint10_linear_501_36753" x1="55.5462" y1="68.3203" x2="55.5462" y2="75.8493" gradientUnits="userSpaceOnUse">
<stop stop-color="#D4F2E4"/>
<stop offset="1" stop-color="#71D5A4"/>
</linearGradient>
<linearGradient id="paint11_linear_501_36753" x1="55.0072" y1="76.4027" x2="54.7517" y2="68.2952" gradientUnits="userSpaceOnUse">
<stop stop-color="#E0F1E9"/>
<stop offset="1" stop-color="#EFFDF7"/>
</linearGradient>
<linearGradient id="paint12_linear_501_36753" x1="59.9289" y1="72.0292" x2="78.6836" y2="72.0292" gradientUnits="userSpaceOnUse">
<stop offset="0.0101" stop-color="#138BBD"/>
<stop offset="0.0975" stop-color="#148FC0"/>
<stop offset="0.1927" stop-color="#179DC8"/>
<stop offset="0.2828" stop-color="#1BB0D4"/>
<stop offset="0.3151" stop-color="#1CB3D6"/>
<stop offset="0.3435" stop-color="#1EBEDD"/>
<stop offset="0.3535" stop-color="#1FC4E1"/>
<stop offset="0.6313" stop-color="#2AF6FF"/>
<stop offset="0.8737" stop-color="#1BB0D4"/>
</linearGradient>
<linearGradient id="paint13_linear_501_36753" x1="68.1028" y1="68.21" x2="68.1028" y2="75.8485" gradientUnits="userSpaceOnUse">
<stop stop-color="#D4F2E4"/>
<stop offset="1" stop-color="#A8DFF9"/>
</linearGradient>
<linearGradient id="paint14_linear_501_36753" x1="68.1028" y1="68.21" x2="68.1028" y2="75.8485" gradientUnits="userSpaceOnUse">
<stop stop-color="#D4F2E4"/>
<stop offset="1" stop-color="#71D5A4"/>
</linearGradient>
<linearGradient id="paint15_linear_501_36753" x1="66.2554" y1="75.7661" x2="65.6432" y2="65.5326" gradientUnits="userSpaceOnUse">
<stop stop-color="#D4F2E4"/>
<stop offset="1" stop-color="#71D5A4"/>
</linearGradient>
<linearGradient id="paint16_linear_501_36753" x1="66.5122" y1="76.41" x2="66.423" y2="68.1773" gradientUnits="userSpaceOnUse">
<stop stop-color="#E0F1E9"/>
<stop offset="1" stop-color="#EFFDF7"/>
</linearGradient>
<linearGradient id="paint17_linear_501_36753" x1="77.3603" y1="75.7135" x2="59.2804" y2="64.9952" gradientUnits="userSpaceOnUse">
<stop stop-color="#245795"/>
<stop offset="1" stop-color="#8AD3A8"/>
</linearGradient>
<linearGradient id="paint18_linear_501_36753" x1="75.2856" y1="50.5206" x2="71.4524" y2="71.3971" gradientUnits="userSpaceOnUse">
<stop offset="0.0354" stop-color="#138BBD"/>
<stop offset="0.2257" stop-color="#169AC7"/>
<stop offset="0.5946" stop-color="#1FC3DF"/>
<stop offset="1" stop-color="#2AF6FF"/>
</linearGradient>
<linearGradient id="paint19_linear_501_36753" x1="58.7304" y1="60.7979" x2="58.7304" y2="69.8081" gradientUnits="userSpaceOnUse">
<stop stop-color="#F0FEF8"/>
<stop offset="1" stop-color="#E0F1E9"/>
</linearGradient>
<linearGradient id="paint20_linear_501_36753" x1="77.7346" y1="69.6488" x2="53.4378" y2="44.5816" gradientUnits="userSpaceOnUse">
<stop stop-color="#245795"/>
<stop offset="1" stop-color="#8AD3A8"/>
</linearGradient>
<linearGradient id="paint21_linear_501_36753" x1="40.081" y1="70.9091" x2="89.4947" y2="59.9446" gradientUnits="userSpaceOnUse">
<stop offset="0.0354" stop-color="#9F19AB"/>
<stop offset="0.2438" stop-color="#AE25B1"/>
<stop offset="0.6455" stop-color="#D744BF"/>
<stop offset="1" stop-color="#FF63CE"/>
</linearGradient>
<linearGradient id="paint22_linear_501_36753" x1="39.9609" y1="70.46" x2="59.0776" y2="70.46" gradientUnits="userSpaceOnUse">
<stop stop-color="#245795"/>
<stop offset="1" stop-color="#8AD3A8"/>
</linearGradient>
<linearGradient id="paint23_linear_501_36753" x1="47.6368" y1="74.2147" x2="47.0226" y2="63.8677" gradientUnits="userSpaceOnUse">
<stop stop-color="#D4F2E4"/>
<stop offset="1" stop-color="#71D5A4"/>
</linearGradient>
<linearGradient id="paint24_linear_501_36753" x1="39.959" y1="70.486" x2="58.9005" y2="70.486" gradientUnits="userSpaceOnUse">
<stop offset="0.0354" stop-color="#9F19AB"/>
<stop offset="0.2438" stop-color="#AE25B1"/>
<stop offset="0.6455" stop-color="#D744BF"/>
<stop offset="1" stop-color="#FF63CE"/>
</linearGradient>
<linearGradient id="paint25_linear_501_36753" x1="39.9609" y1="70.5078" x2="51.2158" y2="70.5078" gradientUnits="userSpaceOnUse">
<stop stop-color="#245795"/>
<stop offset="1" stop-color="#8AD3A8"/>
</linearGradient>
<linearGradient id="paint26_linear_501_36753" x1="44.4801" y1="74.0443" x2="43.5596" y2="64.3515" gradientUnits="userSpaceOnUse">
<stop stop-color="#D4F2E4"/>
<stop offset="1" stop-color="#71D5A4"/>
</linearGradient>
<linearGradient id="paint27_linear_501_36753" x1="40.6927" y1="73.6705" x2="90.1064" y2="62.7061" gradientUnits="userSpaceOnUse">
<stop offset="0.0354" stop-color="#9F19AB"/>
<stop offset="0.2438" stop-color="#AE25B1"/>
<stop offset="0.6455" stop-color="#D744BF"/>
<stop offset="1" stop-color="#FF63CE"/>
</linearGradient>
<linearGradient id="paint28_linear_501_36753" x1="39.6289" y1="73.6143" x2="45.7754" y2="73.6143" gradientUnits="userSpaceOnUse">
<stop stop-color="#245795"/>
<stop offset="1" stop-color="#8AD3A8"/>
</linearGradient>
<linearGradient id="paint29_linear_501_36753" x1="42.0969" y1="77.3189" x2="40.2908" y2="67.4029" gradientUnits="userSpaceOnUse">
<stop stop-color="#D4F2E4"/>
<stop offset="1" stop-color="#71D5A4"/>
</linearGradient>
<linearGradient id="paint30_linear_501_36753" x1="3.9013" y1="62.3596" x2="18.0238" y2="91.8435" gradientUnits="userSpaceOnUse">
<stop offset="0.0354" stop-color="#9F19AB"/>
<stop offset="0.2438" stop-color="#AE25B1"/>
<stop offset="0.6455" stop-color="#D744BF"/>
<stop offset="1" stop-color="#FF63CE"/>
</linearGradient>
<linearGradient id="paint31_linear_501_36753" x1="20.0039" y1="72.0509" x2="39.6288" y2="72.0509" gradientUnits="userSpaceOnUse">
<stop stop-color="#245795"/>
<stop offset="1" stop-color="#8AD3A8"/>
</linearGradient>
<linearGradient id="paint32_linear_501_36753" x1="27.8838" y1="77.2846" x2="26.7248" y2="62.9043" gradientUnits="userSpaceOnUse">
<stop stop-color="#D4F2E4"/>
<stop offset="1" stop-color="#71D5A4"/>
</linearGradient>
<linearGradient id="paint33_linear_501_36753" x1="53.8637" y1="66.9607" x2="53.814" y2="63.2089" gradientUnits="userSpaceOnUse">
<stop stop-color="#E0F1E9"/>
<stop offset="1" stop-color="#EFFDF7"/>
</linearGradient>
<linearGradient id="paint34_linear_501_36753" x1="61.4475" y1="66.0719" x2="51.4405" y2="63.4812" gradientUnits="userSpaceOnUse">
<stop stop-color="#D4F2E4"/>
<stop offset="1" stop-color="#71D5A4"/>
</linearGradient>
<linearGradient id="paint35_linear_501_36753" x1="47.3052" y1="48.5141" x2="45.6492" y2="70.1159" gradientUnits="userSpaceOnUse">
<stop offset="0.0354" stop-color="#9F19AB"/>
<stop offset="0.2438" stop-color="#AE25B1"/>
<stop offset="0.6455" stop-color="#D744BF"/>
<stop offset="1" stop-color="#FF63CE"/>
</linearGradient>
<linearGradient id="paint36_linear_501_36753" x1="20" y1="66.6347" x2="59.0726" y2="66.6347" gradientUnits="userSpaceOnUse">
<stop stop-color="#245795"/>
<stop offset="1" stop-color="#8AD3A8"/>
</linearGradient>
<linearGradient id="paint37_linear_501_36753" x1="35.6887" y1="71.2577" x2="35.2321" y2="58.4894" gradientUnits="userSpaceOnUse">
<stop stop-color="#D4F2E4"/>
<stop offset="1" stop-color="#71D5A4"/>
</linearGradient>
<linearGradient id="paint38_linear_501_36753" x1="47.3635" y1="8.3654" x2="38.9684" y2="50.9628" gradientUnits="userSpaceOnUse">
<stop stop-color="#245795"/>
<stop offset="1" stop-color="#8AD3A8"/>
</linearGradient>
<linearGradient id="paint39_linear_501_36753" x1="49.228" y1="13.3402" x2="52.9591" y2="67.7529" gradientUnits="userSpaceOnUse">
<stop stop-color="#245795"/>
<stop offset="1" stop-color="#8AD3A8"/>
</linearGradient>
<linearGradient id="paint40_linear_501_36753" x1="62.9104" y1="1.22496" x2="51.8086" y2="79.4608" gradientUnits="userSpaceOnUse">
<stop stop-color="#245795"/>
<stop offset="1" stop-color="#8AD3A8"/>
</linearGradient>
<linearGradient id="paint41_linear_501_36753" x1="67.3734" y1="0.639187" x2="67.3734" y2="79.2708" gradientUnits="userSpaceOnUse">
<stop stop-color="#245795"/>
<stop offset="1" stop-color="#8AD3A8"/>
</linearGradient>
<linearGradient id="paint42_linear_501_36753" x1="30.9638" y1="24.694" x2="30.9638" y2="39.8583" gradientUnits="userSpaceOnUse">
<stop stop-color="#245795"/>
<stop offset="1" stop-color="#8AD3A8"/>
</linearGradient>
<linearGradient id="paint43_linear_501_36753" x1="30.9269" y1="24.694" x2="30.9269" y2="39.8583" gradientUnits="userSpaceOnUse">
<stop stop-color="#245795"/>
<stop offset="1" stop-color="#8AD3A8"/>
</linearGradient>
<linearGradient id="paint44_linear_501_36753" x1="37.4947" y1="68.7375" x2="54.316" y2="31.3007" gradientUnits="userSpaceOnUse">
<stop stop-color="#D4F2E4"/>
<stop offset="1" stop-color="#71D5A4"/>
</linearGradient>
</defs>
</svg>
