<svg width="360" height="360" viewBox="0 0 360 360" fill="none" xmlns="http://www.w3.org/2000/svg">
<path d="M12.5151 243.168C10.0238 241.634 8.33243 239.359 7.44762 236.824L6.71484 220.744L59.3079 217.921L335.773 221.026L335.773 232.516C335.773 236.584 333.885 240.643 330.104 242.963L279.755 273.897L238.641 299.158L192.631 327.426C179.332 335.598 162.948 335.598 149.651 327.426L110.246 303.216L56.2415 269.993V270.036L56.208 270.012L16.1661 245.41L12.5151 243.168Z" fill="#D4F2E4"/>
<path d="M12.5151 243.168C10.0238 241.634 8.33243 239.359 7.44762 236.824L6.71484 220.744L59.3079 217.921L335.773 221.026L335.773 232.516C335.773 236.584 333.885 240.643 330.104 242.963L279.755 273.897L238.641 299.158L192.631 327.426C179.332 335.598 162.948 335.598 149.651 327.426L110.246 303.216L56.2415 269.993V270.036L56.208 270.012L16.1661 245.41L12.5151 243.168Z" fill="url(#paint0_linear_600_22804)" fill-opacity="0.15"/>
<path d="M192.624 122.686L330.79 207.15C334.587 209.469 336.483 213.532 336.486 217.595C336.486 221.661 334.59 225.717 330.793 228.036L280.225 258.948L238.932 284.192L192.723 312.441C179.366 320.607 162.911 320.607 149.556 312.441L109.98 288.248L55.7416 255.047V255.09L55.708 255.066L15.4924 230.481L11.8256 228.24C9.32345 226.707 7.62471 224.434 6.73606 221.901C6.24686 220.508 6.00001 219.035 6.00001 217.562C5.99552 213.406 7.93662 209.248 11.8211 206.872L149.446 122.693C162.805 114.521 179.263 114.519 192.624 122.686Z" fill="#F0FAF6"/>
<path d="M185.735 48.0966C185.292 49.6636 184.168 51.2603 182.867 51.9994C181.566 52.7386 180.443 52.4725 179.999 51.4081L108.654 92.595C108.033 92.9498 107.531 92.6541 107.531 91.9445C107.531 91.2349 108.033 90.3479 108.654 89.9931L179.97 48.8358C180.413 47.2687 181.537 45.6721 182.838 44.9329C184.139 44.1642 185.262 44.4599 185.735 45.5243L196.35 39.4039C196.971 39.0491 197.474 39.3448 197.474 40.0544C197.474 40.764 196.971 41.651 196.35 42.0058L185.735 48.0966ZM106.939 102.973L198.065 50.3437C201.938 48.0966 205.072 42.6858 205.072 38.2212L205.043 32.9878C205.043 28.5232 201.879 26.7196 197.976 28.9667L106.851 81.5665C102.977 83.8136 99.8432 89.2539 99.8432 93.7185V98.9519C99.9023 103.446 103.066 105.22 106.939 102.973Z" fill="url(#paint1_linear_600_22804)" fill-opacity="0.15"/>
<path d="M182.864 52.0001C184.165 51.2314 185.289 49.6644 185.732 48.0973C185.88 47.6242 185.939 47.1512 185.939 46.6781C185.939 46.2346 185.851 45.8206 185.732 45.4954C185.289 44.431 184.165 44.1649 182.835 44.9041C181.534 45.6728 180.41 47.2399 179.967 48.8069C179.819 49.28 179.76 49.7531 179.76 50.2261C179.76 50.6696 179.849 51.0836 179.967 51.4088C180.44 52.4732 181.564 52.7689 182.864 52.0001Z" fill="#F9FCFF"/>
<path d="M171.985 89.0763L172.162 152.882L63.5625 215.564L63.3851 151.758L171.985 89.0763ZM59.1866 244.983L176.686 177.156C179.14 175.737 181.121 172.278 181.121 169.469L180.855 78.8165C180.855 76.0076 178.844 74.8545 176.39 76.2737L75.1824 134.698L67.4654 126.272L67.4949 139.133L58.9205 144.101C56.4664 145.52 54.4855 148.95 54.4855 151.788L54.7516 242.44C54.7516 245.279 56.7326 246.402 59.1866 244.983Z" fill="url(#paint2_linear_600_22804)" fill-opacity="0.15"/>
<path d="M63.6008 225.829C63.6107 228.658 66.6739 230.42 69.1238 229.006L170.368 170.569C171.515 169.907 172.22 168.681 172.215 167.357C172.205 164.519 169.132 162.751 166.674 164.17L65.4417 222.628C64.2985 223.288 63.5962 224.509 63.6008 225.829Z" fill="url(#paint3_linear_600_22804)" fill-opacity="0.4"/>
<path d="M63.5939 215.564L172.164 152.882L171.987 89.0767L63.3869 151.759L63.5939 215.564Z" fill="url(#paint4_linear_600_22804)" fill-opacity="0.4"/>
<path d="M112.486 151.864L112.486 168.33C112.486 169.199 113.38 169.138 113.936 168.231L121.745 155.49C122.121 154.876 122.121 154.192 121.745 154.013L113.936 150.288C113.38 150.023 112.486 150.995 112.486 151.864Z" fill="white"/>
<path d="M205.611 198.77L256.023 169.676C258.891 168.02 261.168 164.029 261.168 160.747L261.079 125.414C261.079 122.132 258.743 120.802 255.905 122.458L205.493 151.552C202.625 153.207 200.319 157.199 200.349 160.481L200.437 195.813C200.437 199.095 202.773 200.426 205.611 198.77Z" fill="url(#paint5_linear_600_22804)" fill-opacity="0.15"/>
<path d="M225.496 154.865L225.496 171.33C225.496 172.2 226.39 172.139 226.946 171.232L234.755 158.491C235.131 157.877 235.131 157.193 234.755 157.014L226.946 153.289C226.39 153.024 225.496 153.996 225.496 154.865Z" fill="white"/>
<path d="M195.4 237.675C195.464 237.802 196.526 242.219 196.398 242.75C196.271 243.259 193.405 244.618 191.897 244.469C190.368 244.321 188.5 242.24 187.948 241.794C187.417 241.348 184.699 239.841 184.699 239.841C184.699 239.841 181.727 239.395 181.005 238.822C180.283 238.248 177.905 236.295 177.331 235.339C176.758 234.384 178.393 233.195 178.86 232.919C179.327 232.643 181.493 232.579 182.342 232.643C183.192 232.707 185.846 233.45 185.846 233.45L195.4 237.675Z" fill="#ADADAD"/>
<path d="M160.686 241.391C159.348 241.412 151.64 242.219 151.216 242.473C150.812 242.707 149.517 243.747 149.284 244.618C149.071 245.51 149.177 247.145 150.027 247.845C150.876 248.567 153.934 250.287 153.934 250.287L159.242 250.945L166.44 253.175C166.44 253.175 169.349 252.92 170.346 251.88C171.344 250.839 171.281 249.99 171.281 249.99C171.281 249.99 171.09 246.954 170.177 246.189C169.264 245.404 160.686 241.391 160.686 241.391Z" fill="#ADADAD"/>
<path fill-rule="evenodd" clip-rule="evenodd" d="M196.179 230.174C196.228 228.432 196.274 226.769 196.315 225.467C196.422 222.107 196.191 217.43 195.988 213.337L195.988 213.336C195.908 211.714 195.833 210.183 195.784 208.863C195.687 205.808 194.755 202.47 194.086 200.069L194.086 200.069L194.086 200.069L194.086 200.069L194.086 200.069C193.736 198.815 193.457 197.817 193.406 197.248C193.279 195.592 192.982 179.434 192.982 179.434C192.982 179.434 193.449 177.905 193.555 176.249C193.577 175.959 193.617 175.561 193.665 175.08V175.08C193.896 172.78 194.32 168.559 193.916 164.89L174.637 168.117L174.7 169.339L160.346 167.416L157.756 179.71C157.756 179.71 158.053 213.3 157.968 213.959C157.883 214.617 159.476 235.85 159.476 235.85L159.285 242.899C159.285 242.899 159.391 244.343 159.837 245.383C159.869 245.454 159.903 245.53 159.939 245.609L159.939 245.61C160.413 246.674 161.203 248.445 163.574 249.078C166.122 249.757 169.349 248.547 169.349 248.547C169.349 248.547 170.113 247.761 170.156 246.36C170.198 244.98 171.239 226.486 171.727 220.859C172.177 215.888 171.55 211.729 171.383 210.622C171.361 210.476 171.347 210.384 171.345 210.349C171.345 210.052 172.598 198.862 173.341 196.654C173.995 194.746 176.25 187.195 176.887 185.055L177.545 187.078L181.261 200.518L184.382 216.103L184.871 230.839C184.701 230.69 183.193 236.55 185.168 238.61C185.26 238.701 185.365 238.821 185.489 238.961L185.489 238.961C185.738 239.243 186.059 239.607 186.484 239.99C187.228 240.648 188.268 241.349 189.754 241.752C192.536 242.538 195.657 241.243 195.806 240.393C195.913 239.78 196.054 234.71 196.179 230.174Z" fill="black"/>
<path d="M206.166 133.826C206.166 133.869 206.166 133.911 206.166 133.954C206.081 135.504 204.998 137.627 203.172 138.413C201.282 139.219 193.872 138.646 193.872 138.646L193.129 124.484L201.622 123.337L204.531 122.955C205.21 126.204 206.208 132.276 206.166 133.826Z" fill="#F3F3F3"/>
<path d="M206.166 133.953C206.081 135.503 204.998 137.627 203.172 138.412C201.282 139.219 193.872 138.646 193.872 138.646L193.129 124.483L201.622 123.337C201.877 124.059 202.068 124.781 202.004 125.566C201.94 126.501 201.473 128.135 201.771 129.027C201.643 131.044 201.537 133.083 201.749 135.1C201.792 135.44 201.856 135.822 202.11 136.055C202.301 136.204 202.535 136.246 202.769 136.268C204.064 136.374 205.38 135.631 205.932 134.463C206.017 134.335 206.081 134.144 206.166 133.953Z" fill="#F3F3F3"/>
<path d="M196.336 104.928C198.162 105.331 200.582 108.113 201.92 111.425C203.257 114.737 205.848 123.209 205.827 123.549C205.805 123.889 206.57 128.135 199.436 128.878C192.301 129.643 196.336 104.928 196.336 104.928Z" fill="#EB4869"/>
<path d="M201.496 119.536C201.157 121.829 200.605 133.571 200.605 133.571L195.912 154.931C196.57 159.453 196.592 165.462 192.515 168.456C190.137 170.197 187.143 170.834 184.234 171.322C182.238 171.662 180.242 171.959 178.247 172.236C173.278 172.894 166.356 173.764 161.961 170.664C159.753 169.114 159.328 167.586 159.328 167.586L162.088 155.249L163.32 146.629C163.32 146.629 162.98 139.112 162.725 131.511C162.471 124.08 162.279 116.563 162.534 115.99C163.044 114.801 169.881 112.041 169.881 112.041C169.881 112.041 173.554 109.089 174.17 108.686C174.786 108.261 185.062 104.078 186.761 104.227C188.481 104.376 192.812 103.909 193.661 104.036C194.511 104.163 197.335 104.63 199.352 107.964C201.411 111.298 201.836 117.243 201.496 119.536Z" fill="#EB4869"/>
<path d="M158.286 150.94C158.138 151.598 157.819 152.235 157.331 152.851C156.312 153.042 154.571 152.192 153.488 151.513C153.467 151.513 153.467 151.492 153.467 151.492C153.318 151.386 153.169 151.301 153.042 151.216C152.065 150.515 147.5 146.183 146.991 145.377C146.481 144.57 141.937 138.37 141.555 138.009C141.173 137.648 136.48 136.119 136.077 135.907C135.673 135.695 133.38 134.187 133.38 134.187L131.491 133.125C131.491 133.125 129.686 131.023 129.537 130.62C129.431 130.28 129.452 129.919 129.983 129.94C130.174 129.94 130.535 130.132 130.917 130.386C131.703 130.875 132.616 131.597 132.616 131.597C132.616 131.597 132.128 129.749 132.128 129.686C132.128 129.664 132.17 129.622 132.276 129.558C132.68 129.24 133.847 128.475 134.123 128.751C134.442 129.112 134.442 130.556 134.442 130.556L134.527 130.917L134.697 131.597L135.886 132.722L136.353 132.637L136.056 131.66L135.567 130.089C135.567 130.089 135.631 128.879 136.247 128.921C136.863 128.964 137.308 129.813 137.308 129.813L137.436 131.278L138.434 133.019L139.41 132.17C139.41 132.17 139.92 129.537 140.111 129.431C140.281 129.303 141.045 129.006 141.258 130.153C141.47 131.299 141.364 132.191 141.364 132.191C141.364 132.191 141.64 132.276 142.001 132.446C142.319 132.595 142.744 132.828 143.084 133.168C143.827 133.847 144.91 134.93 145.568 135.482C146.205 136.034 149.878 139.219 149.878 139.219L154.273 142.086L154.316 142.128C154.316 142.128 155.208 142.956 156.163 144.23C157.437 145.929 158.881 148.498 158.286 150.94Z" fill="#F3F3F3"/>
<path d="M165.781 140.133C165.463 142.107 161.832 148.647 161.365 149.56C160.898 150.473 158.583 152.787 156.948 153.063C155.42 153.318 153.678 151.726 153.487 151.535C153.466 151.535 153.466 151.513 153.466 151.513C153.466 151.513 153.296 150.94 153.105 150.197C152.914 149.432 152.744 148.477 152.765 147.84C152.808 146.587 153.254 144.782 153.254 144.782L154.231 142.065L154.273 141.959C154.273 141.959 155.25 138.455 155.802 137.5C155.844 137.436 155.865 137.394 155.908 137.351C156.418 136.714 166.1 138.137 165.781 140.133Z" fill="#F3F3F3"/>
<path d="M130.918 130.407C131.704 130.896 132.617 131.617 132.617 131.617C132.617 131.617 132.128 129.77 132.128 129.707C132.128 129.685 132.171 129.643 132.277 129.579C132.277 129.579 132.298 129.579 132.298 129.6C132.638 129.834 132.956 130.046 133.275 130.28C133.572 130.492 133.784 130.726 134.124 130.811C134.251 130.853 134.4 130.896 134.528 130.938C135.058 131.108 135.568 131.363 136.035 131.66C136.078 131.681 136.099 131.702 136.141 131.724C137.075 132.339 137.84 133.189 138.562 134.059C138.732 134.272 138.901 134.484 139.05 134.696C138.944 134.76 138.795 134.696 138.689 134.633C136.884 133.719 135.08 132.849 133.254 131.978C132.595 131.681 131.937 131.363 131.406 130.874C131.215 130.726 131.067 130.556 130.918 130.407Z" fill="#F3F3F3"/>
<path d="M165.781 140.132C165.463 142.106 161.832 148.646 161.365 149.559C160.898 150.472 158.583 152.786 156.949 153.062C155.42 153.317 153.679 151.725 153.488 151.534C153.466 151.534 153.466 151.512 153.466 151.512C153.318 151.406 153.169 151.321 153.042 151.236C152.065 150.536 147.5 146.204 146.99 145.397C146.481 144.591 141.937 138.391 141.555 138.03C141.173 137.669 136.48 136.14 136.077 135.928C135.673 135.715 133.38 134.208 133.38 134.208L131.491 133.146C131.491 133.146 129.686 131.044 129.537 130.641C129.962 131.171 130.493 131.617 130.917 132.169C131.087 132.382 131.193 132.7 131.384 132.891C131.554 133.061 131.83 133.21 132.043 133.316C132.552 133.613 133.104 133.847 133.614 134.123C134.506 134.59 135.291 135.206 136.14 135.737C137.032 136.289 137.988 136.501 138.986 136.756C140.323 137.095 141.767 137.393 142.659 138.518C143.36 139.41 143.933 140.365 144.634 141.257C145.419 142.234 146.141 143.253 146.842 144.293C147.309 144.973 147.882 145.482 148.477 146.056C148.816 146.395 149.177 146.735 149.517 147.075C149.687 147.245 150.366 147.712 150.409 147.945C150.918 148.434 151.407 148.922 151.959 149.368C152.32 149.665 152.744 149.899 153.127 150.154C153.381 150.323 153.658 150.514 153.87 150.727C154.401 151.215 155.101 151.725 155.866 151.767C156.354 151.788 156.842 151.597 157.288 151.406C157.628 151.258 157.968 151.088 158.307 150.897C158.775 150.642 159.199 150.345 159.581 149.962C160.133 149.432 160.558 148.773 160.94 148.115C162.023 146.332 163 144.484 163.87 142.573C161.323 141.745 158.753 141.023 156.715 139.24C156.163 138.773 155.653 138.093 155.823 137.435C155.866 137.371 155.887 137.329 155.929 137.286C156.418 136.713 166.1 138.136 165.781 140.132Z" fill="#F3F3F3"/>
<path d="M187.843 106.011C187.737 106.351 187.397 106.584 187.079 106.754C185.04 107.837 182.811 108.58 180.518 108.941C179.456 109.111 178.267 109.302 177.205 109.154C176.781 109.09 175.847 108.665 175.422 108.771H175.316C175.018 108.75 174.36 108.665 174.36 108.665C174.254 107.816 174.127 102.571 173.744 101.956C173.362 101.34 172.322 100.873 172.322 100.873C172.322 100.873 171.303 100.469 170.453 99.8961C170.199 99.7263 170.008 99.4078 169.838 99.0468C169.455 98.1975 169.307 97.1146 169.307 97.1146L168.691 90.6174C168.691 90.6174 168.118 82.9736 168.988 82.1243C169.859 81.275 185.083 79.8524 186.102 85.0332C187.121 90.1928 185.486 98.1975 185.614 99.3866C185.72 100.342 186.017 101.319 186.251 102.253C186.378 102.72 186.505 103.187 186.633 103.654C186.803 104.249 187.079 104.61 187.482 105.098C187.673 105.332 187.864 105.587 187.864 105.884C187.864 105.905 187.843 105.969 187.843 106.011Z" fill="#F1F1F1"/>
<path d="M175.166 96.2015C176.61 97.3905 178.075 99.7049 178.075 99.7049L179.54 100.724C179.54 100.724 182.979 100.767 183.807 100.342C184.636 99.9172 185.4 99.1316 185.4 99.1316L186.355 98.0487C186.355 98.0487 188.096 96.5412 188.585 95.1611C189.052 93.781 190.92 89.2796 190.496 86.1159C190.071 82.9523 189.116 81.8269 188.288 81.2536C187.438 80.6804 187.735 78.1537 182.682 76.7311C177.607 75.3085 175.463 76.1153 172.469 77.8352C169.475 79.5763 168.499 80.4043 168.52 82.294C168.541 84.1838 169.029 87.9844 169.327 88.3242C169.603 88.6639 169.815 90.2139 169.815 90.2139L170.006 92.3371L170.813 92.9104C170.813 92.9104 171.195 91.4878 172.023 92.4221C172.83 93.3988 175.166 96.2015 175.166 96.2015Z" fill="#383838"/>
<path d="M172.448 96.859C171.959 97.3049 171.62 96.3282 171.62 96.3282C171.62 96.3282 171.45 94.2262 171.174 93.5043C170.877 92.7824 170.558 91.3173 170.792 91.1262C171.025 90.9563 172.172 92.1029 172.596 93.1646C173.021 94.1837 173.127 96.2008 172.448 96.859Z" fill="#F3F3F3"/>
<path d="M135.037 131.787C134.633 131.426 134.23 131.065 133.805 130.747C133.423 130.471 132.998 130.28 132.595 130.025C132.255 129.813 131.937 129.537 131.788 129.176C131.554 128.56 131.958 128.072 132.552 127.965C132.85 127.923 133.104 128.05 133.38 128.157C133.763 128.305 134.166 128.454 134.548 128.602C134.718 128.666 134.888 128.751 135.037 128.836C135.376 129.027 135.61 129.303 135.907 129.537C136.204 129.77 136.608 129.876 136.969 130.004C137.436 130.174 137.903 130.343 138.37 130.513C138.752 130.662 139.05 130.832 139.411 131.023C140.217 131.469 140.982 131.936 141.661 132.573C141.831 132.743 142.001 132.913 142.128 133.125C142.319 133.465 142.319 133.889 142.171 134.25C141.767 135.1 140.918 135.269 140.069 135.185C139.793 135.163 139.623 135.036 139.389 134.909C138.795 134.611 138.221 134.272 137.669 133.932C136.672 133.38 135.865 132.552 135.037 131.787Z" fill="#F3F3F3"/>
<path d="M156.143 144.188C156.143 144.336 156.1 144.464 155.973 144.506C154.444 142.85 152.703 141.385 150.792 140.196C149.985 139.686 149.157 139.092 148.435 138.455C148.096 138.158 147.798 137.733 147.416 137.478C147.013 137.202 146.546 137.032 146.164 136.714C145.357 136.077 144.783 135.206 144.125 134.421C143.488 133.678 142.788 132.998 142.002 132.425C142.32 132.573 142.745 132.807 143.085 133.147C143.828 133.826 144.911 134.909 145.569 135.461C146.206 136.013 149.879 139.198 149.879 139.198L154.274 142.064L154.317 142.107C154.274 142.086 155.187 142.914 156.143 144.188Z" fill="#F3F3F3"/>
<path d="M175.316 108.75C175.019 108.729 174.36 108.644 174.36 108.644C174.254 107.795 174.127 102.55 173.745 101.934C173.363 101.319 172.322 100.851 172.322 100.851C172.322 100.851 171.303 100.448 170.454 99.8747C170.199 99.7048 170.008 99.3863 169.838 99.0254C169.923 99.0466 169.987 99.0679 170.071 99.0891C170.263 99.1528 170.454 99.1952 170.623 99.3014C170.751 99.3651 170.857 99.45 170.963 99.4925C171.324 99.7261 171.706 99.8535 172.11 99.9809C172.258 100.045 172.407 100.087 172.556 100.045C172.747 100.023 172.832 99.8322 173.023 99.9172C173.469 100.087 173.596 100.448 173.766 100.873C174.148 101.913 174.339 102.996 174.53 104.079C174.615 104.546 174.7 105.013 174.764 105.48C174.828 105.947 174.849 106.414 174.913 106.881C175.019 107.518 175.125 108.155 175.316 108.75Z" fill="#F3F3F3"/>
<path d="M162.575 116.012C164.401 115.396 168.266 116.182 170.198 120.45C172.13 124.718 170.304 130.153 170.325 131.194C170.347 132.234 166.61 141.109 166.079 141.555C165.548 142.001 160.558 141.428 158.52 140.26C156.482 139.092 154.38 138.094 154.231 137.776C154.082 137.457 157.756 127.818 157.756 127.818C157.756 127.818 159.773 119.261 160.537 118.305C161.323 117.329 162.575 116.012 162.575 116.012Z" fill="#EB4869"/>
<g opacity="0.15">
<path d="M276.233 98.0856V111.074C276.233 116.185 275.712 120.327 274.669 123.501C273.654 126.691 272.188 128.969 270.271 130.337C268.382 131.72 266.127 132.257 263.505 131.948C260.883 131.639 257.994 130.573 254.836 128.75C252.299 127.285 249.931 125.543 247.732 123.525C245.533 121.474 243.546 119.155 241.77 116.567C240.022 113.963 238.514 111.106 237.245 107.998C235.977 104.889 235.004 101.528 234.327 97.9147C233.651 94.2688 233.312 90.3951 233.312 86.2936L233.313 73.3053C233.313 68.1621 233.82 64.0117 234.835 60.8541C235.878 57.6803 237.358 55.4098 239.275 54.0426C241.192 52.6754 243.461 52.1464 246.083 52.4557C248.705 52.7649 251.594 53.831 254.752 55.6539C257.289 57.1188 259.643 58.8684 261.814 60.903C264.012 62.9212 266 65.2405 267.776 67.861C269.552 70.4488 271.06 73.289 272.301 76.3815C273.569 79.4902 274.542 82.8675 275.218 86.5133C275.895 90.1266 276.233 93.984 276.233 98.0856ZM261.983 104.848L261.983 87.7584C261.983 85.4798 261.87 83.429 261.644 81.6061C261.447 79.7994 261.137 78.1881 260.714 76.7721C260.319 75.3724 259.826 74.1435 259.234 73.0856C258.642 71.9951 257.965 71.0673 257.204 70.3024C256.471 69.5211 255.654 68.8701 254.752 68.3492C253.624 67.6982 252.609 67.389 251.707 67.4215C250.833 67.4378 250.086 67.8528 249.466 68.6666C248.846 69.4804 248.366 70.7662 248.028 72.524C247.718 74.2981 247.563 76.6012 247.563 79.4332L247.563 96.5231C247.563 98.8343 247.662 100.909 247.859 102.749C248.085 104.572 248.395 106.199 248.789 107.631C249.212 109.047 249.72 110.301 250.312 111.391C250.904 112.449 251.58 113.361 252.341 114.126C253.103 114.891 253.934 115.533 254.836 116.054C255.936 116.689 256.922 116.998 257.796 116.982C258.67 116.966 259.417 116.551 260.038 115.737C260.686 114.907 261.165 113.605 261.475 111.831C261.814 110.04 261.983 107.713 261.983 104.848Z" fill="url(#paint6_linear_600_22804)"/>
<path d="M326.681 156.557V169.253L283.718 144.448V133.706L303.508 121.108C305.256 119.806 306.665 118.553 307.737 117.348C308.808 116.111 309.583 114.882 310.062 113.662C310.57 112.457 310.823 111.253 310.823 110.048C310.823 107.998 310.556 106.134 310.02 104.458C309.513 102.765 308.751 101.268 307.737 99.9655C306.75 98.6796 305.524 97.6136 304.058 96.7672C302.592 95.9209 301.309 95.6686 300.21 96.0104C299.11 96.3522 298.25 97.1904 297.63 98.525C297.038 99.8759 296.742 101.609 296.742 103.725L282.449 95.4733C282.449 91.1113 283.366 87.6526 285.198 85.0973C287.059 82.5582 289.638 81.1666 292.936 80.9225C296.235 80.6458 300.055 81.7607 304.396 84.2672C308.935 86.8876 312.74 89.8987 315.813 93.3004C318.886 96.7021 321.198 100.397 322.748 104.384C324.327 108.356 325.116 112.506 325.116 116.836C325.116 119.31 324.778 121.491 324.101 123.379C323.425 125.267 322.452 126.967 321.184 128.481C319.915 129.962 318.365 131.346 316.532 132.631C314.728 133.934 312.67 135.236 310.358 136.538L302.408 142.544L326.681 156.557Z" fill="url(#paint7_linear_600_22804)"/>
</g>
<defs>
<linearGradient id="paint0_linear_600_22804" x1="171.525" y1="52.79" x2="171.525" y2="281.709" gradientUnits="userSpaceOnUse">
<stop stop-color="#245795"/>
<stop offset="1" stop-color="#8AD3A8"/>
</linearGradient>
<linearGradient id="paint1_linear_600_22804" x1="152.368" y1="212.399" x2="152.368" y2="62.0511" gradientUnits="userSpaceOnUse">
<stop stop-color="#245795"/>
<stop offset="1" stop-color="#8AD3A8"/>
</linearGradient>
<linearGradient id="paint2_linear_600_22804" x1="117.695" y1="488.266" x2="117.695" y2="151.857" gradientUnits="userSpaceOnUse">
<stop stop-color="#245795"/>
<stop offset="1" stop-color="#8AD3A8"/>
</linearGradient>
<linearGradient id="paint3_linear_600_22804" x1="117.815" y1="333.854" x2="117.815" y2="192.906" gradientUnits="userSpaceOnUse">
<stop stop-color="#245795"/>
<stop offset="1" stop-color="#8AD3A8"/>
</linearGradient>
<linearGradient id="paint4_linear_600_22804" x1="117.683" y1="396.195" x2="117.682" y2="145.789" gradientUnits="userSpaceOnUse">
<stop stop-color="#245795"/>
<stop offset="1" stop-color="#8AD3A8"/>
</linearGradient>
<linearGradient id="paint5_linear_600_22804" x1="230.706" y1="310.495" x2="230.706" y2="156.6" gradientUnits="userSpaceOnUse">
<stop stop-color="#245795"/>
<stop offset="1" stop-color="#8AD3A8"/>
</linearGradient>
<linearGradient id="paint6_linear_600_22804" x1="99.3976" y1="-121.01" x2="-42.1838" y2="131.683" gradientUnits="userSpaceOnUse">
<stop stop-color="#245795"/>
<stop offset="1" stop-color="#8AD3A8"/>
</linearGradient>
<linearGradient id="paint7_linear_600_22804" x1="99.3976" y1="-121.01" x2="-42.1838" y2="131.683" gradientUnits="userSpaceOnUse">
<stop stop-color="#245795"/>
<stop offset="1" stop-color="#8AD3A8"/>
</linearGradient>
</defs>
</svg>
