<?xml version="1.0" encoding="UTF-8" standalone="no"?>
<svg
   width="280.70023"
   height="280.69986"
   viewBox="0 0 280.70023 280.69986"
   fill="none"
   version="1.1"
   id="svg136"
   sodipodi:docname="1.svg"
   inkscape:version="1.2 (dc2aeda, 2022-05-15)"
   xmlns:inkscape="http://www.inkscape.org/namespaces/inkscape"
   xmlns:sodipodi="http://sodipodi.sourceforge.net/DTD/sodipodi-0.dtd"
   xmlns="http://www.w3.org/2000/svg"
   xmlns:svg="http://www.w3.org/2000/svg">
  <defs
     id="defs140" />
  <sodipodi:namedview
     id="namedview138"
     pagecolor="#ffffff"
     bordercolor="#000000"
     borderopacity="0.25"
     inkscape:showpageshadow="2"
     inkscape:pageopacity="0.0"
     inkscape:pagecheckerboard="0"
     inkscape:deskcolor="#d1d1d1"
     showgrid="false"
     inkscape:zoom="0.72392638"
     inkscape:cx="140.89831"
     inkscape:cy="140.89831"
     inkscape:window-width="1309"
     inkscape:window-height="456"
     inkscape:window-x="0"
     inkscape:window-y="38"
     inkscape:window-maximized="0"
     inkscape:current-layer="svg136" />
  <path
     d="m 120.88154,33.737742 c -0.835,-4.7395 2.329,-9.2935 7.118,-9.7718 22.631,-2.2603 45.501,2.1682 65.732,12.8352 22.809,12.0257 40.97,31.2971 51.621,54.7793 10.652,23.481998 13.19,49.839998 7.215,74.922998 -5.976,25.082 -20.126,47.465 -40.221,63.622 -20.095,16.157 -44.994,25.17 -70.775,25.62 -25.781,0.45 -50.979003,-7.689 -71.625603,-23.134 -20.6467,-15.446 -35.5689,-37.321 -42.4162,-62.18 -6.0737,-22.051 -5.4881,-45.337 1.5792,-66.956 1.4955,-4.573998 6.6228,-6.686998 11.0723,-4.852998 4.4495,1.833998 6.5299,6.919998 5.0951,11.513998 -5.6288,18.022 -5.9907,37.346 -0.9445,55.667 5.8203,21.13 18.5041,39.724 36.0537,52.852 17.55,13.129 38.968003,20.047 60.882003,19.665 21.914,-0.383 43.078,-8.044 60.159,-21.777 17.081,-13.734 29.108,-32.759 34.187,-54.079 5.079,-21.321 2.922,-43.725 -6.132,-63.684998 -9.054,-19.959 -24.49,-36.34 -43.878,-46.5619 -16.809,-8.8625 -35.76,-12.6587 -54.571,-11.0312 -4.795,0.4148 -9.315,-2.7091 -10.151,-7.4486 z"
     fill="#ffdf5a"
     id="path132" />
  <path
     d="m 117.80654,12.498742 c -1.01,-5.7251002 2.813,-11.2264002 8.598,-11.80410024 27.338,-2.73039996 54.963,2.61920004 79.403,15.50460024 27.552,14.5268 49.49,37.8062 62.357,66.1722 12.867,28.364998 15.933,60.204998 8.715,90.503998 -7.219,30.3 -24.311,57.338 -48.586,76.855 -24.274,19.517 -54.351,30.405 -85.494,30.948 -31.143,0.544 -61.582003,-9.288 -86.522403,-27.946 -24.9408,-18.658 -42.9664,-45.082 -51.2379004,-75.111 -7.3368,-26.637 -6.6294,-54.767 1.9077,-80.880998 1.8065,-5.525 8.0002004,-8.078 13.3751004,-5.862 5.3748,2.215 7.8879,8.359 6.1547,13.907998 -6.7995,21.77 -7.2366,45.114 -1.1409,67.244 7.0308,25.525 22.3525,47.986 43.5522,63.845 21.1995,15.859 47.072503,24.216 73.544503,23.754 26.471,-0.462 52.036,-9.717 72.67,-26.306 20.633,-16.59 35.162,-39.572 41.297,-65.326 6.136,-25.755 3.53,-52.819 -7.407,-76.929998 -10.937,-24.1103 -29.584,-43.8978 -53.004,-56.2456 -20.305,-10.7056 -43.198,-15.2914 -65.92,-13.3254 -5.792,0.5011 -11.253,-3.2725 -12.262,-8.9977 z"
     fill="#ffffff"
     fill-opacity="0.8"
     id="path134" />
</svg>
