<?xml version="1.0" encoding="UTF-8" standalone="no"?>
<svg
   width="280.74771"
   height="280.74753"
   viewBox="0 0 280.74771 280.74753"
   fill="none"
   version="1.1"
   id="svg136"
   sodipodi:docname="2.svg"
   inkscape:version="1.2 (dc2aeda, 2022-05-15)"
   xmlns:inkscape="http://www.inkscape.org/namespaces/inkscape"
   xmlns:sodipodi="http://sodipodi.sourceforge.net/DTD/sodipodi-0.dtd"
   xmlns="http://www.w3.org/2000/svg"
   xmlns:svg="http://www.w3.org/2000/svg">
  <defs
     id="defs140" />
  <sodipodi:namedview
     id="namedview138"
     pagecolor="#ffffff"
     bordercolor="#000000"
     borderopacity="0.25"
     inkscape:showpageshadow="2"
     inkscape:pageopacity="0.0"
     inkscape:pagecheckerboard="0"
     inkscape:deskcolor="#d1d1d1"
     showgrid="false"
     inkscape:zoom="0.72392638"
     inkscape:cx="139.51695"
     inkscape:cy="140.89831"
     inkscape:window-width="1309"
     inkscape:window-height="484"
     inkscape:window-x="0"
     inkscape:window-y="38"
     inkscape:window-maximized="0"
     inkscape:current-layer="svg136" />
  <path
     d="m 119.35702,25.179616 c 63.193,-11.1426 123.455,31.0526 134.597,94.246204 11.143,63.193 -31.052,123.454 -94.246,134.597 -63.193005,11.142 -123.453905,-31.053 -134.596505,-94.246 -11.1427,-63.193004 31.0526,-123.454504 94.245505,-134.597204 z m 37.325,211.679204 c 53.714,-9.471 89.58,-60.693 80.109,-114.407 -9.471,-53.714204 -60.693,-89.580204 -114.407,-80.109004 -53.714605,9.4713 -89.580605,60.693004 -80.109305,114.407004 9.4712,53.715 60.693305,89.581 114.407305,80.109 z"
     fill="#b063ff"
     id="path132" />
  <path
     d="m 116.00202,2.1557155 c 76.336,-13.4600995 149.13,37.5108005 162.59,113.8461045 13.46,76.336 -37.511,149.13 -113.846,162.59 -76.336005,13.46 -149.130305,-37.51 -162.5903047,-113.846 C -11.304385,88.409816 39.666515,15.615716 116.00202,2.1557155 Z m 45.088,255.7041045 c 64.885,-11.441 108.21,-73.316 96.769,-138.202 -11.441,-64.885204 -73.316,-108.210504 -138.201,-96.769404 -64.885405,11.4411 -108.210705,73.3164 -96.769605,138.201404 11.441,64.885 73.3156,108.211 138.201605,96.77 z"
     fill="#ffffff"
     fill-opacity="0.8"
     id="path134" />
</svg>
