<?xml version="1.0" encoding="UTF-8" standalone="no"?>
<svg
   width="280.70096"
   height="280.70126"
   viewBox="0 0 280.70096 280.70126"
   fill="none"
   version="1.1"
   id="svg136"
   sodipodi:docname="3.svg"
   inkscape:version="1.2 (dc2aeda, 2022-05-15)"
   xmlns:inkscape="http://www.inkscape.org/namespaces/inkscape"
   xmlns:sodipodi="http://sodipodi.sourceforge.net/DTD/sodipodi-0.dtd"
   xmlns="http://www.w3.org/2000/svg"
   xmlns:svg="http://www.w3.org/2000/svg">
  <defs
     id="defs140" />
  <sodipodi:namedview
     id="namedview138"
     pagecolor="#ffffff"
     bordercolor="#000000"
     borderopacity="0.25"
     inkscape:showpageshadow="2"
     inkscape:pageopacity="0.0"
     inkscape:pagecheckerboard="0"
     inkscape:deskcolor="#d1d1d1"
     showgrid="false"
     inkscape:zoom="0.72392638"
     inkscape:cx="140.89831"
     inkscape:cy="140.89831"
     inkscape:window-width="1309"
     inkscape:window-height="484"
     inkscape:window-x="0"
     inkscape:window-y="38"
     inkscape:window-maximized="0"
     inkscape:current-layer="svg136" />
  <path
     d="m 120.84672,33.737939 c -0.835,-4.7395 2.329,-9.2936 7.118,-9.7718 22.324,-2.2296 44.886,2.0485 64.924,12.4128 22.625,11.7027 40.777,30.5163 51.663,53.5456 10.886,23.029001 13.902,48.998001 8.584,73.909001 -5.318,24.911 -18.675,47.384 -38.015,63.961 -19.341,16.577 -43.593,26.339 -69.024,27.783 -25.432,1.444 -50.633004,-5.51 -71.726004,-19.79 -21.0928,-14.281 -36.9079,-35.098 -45.0115,-59.247 -7.1768,-21.387 -7.9529,-44.338 -2.3343,-66.059 1.2052,-4.659 6.1899,-7.089 10.7457,-5.539 4.5558,1.551 6.9515,6.496 5.808,11.171 -4.4239,18.086 -3.6578,37.119 2.3031,54.882 6.8881,20.527 20.3309,38.221 38.26,50.36 17.929004,12.139 39.350004,18.049 60.967004,16.822 21.616,-1.228 42.231,-9.525 58.67,-23.615 16.44,-14.091 27.793,-33.193 32.313,-54.367 4.52,-21.175 1.957,-43.248 -7.296,-62.823001 -9.253,-19.575 -24.683,-35.5665 -43.914,-45.5138 -16.643,-8.6083 -35.334,-12.2771 -53.884,-10.6722 -4.795,0.4148 -9.315,-2.7091 -10.151,-7.4486 z"
     fill="#8b00ff"
     id="path132" />
  <path
     d="m 117.80672,12.498739 c -1.01,-5.7252002 2.813,-11.2264002 8.598,-11.80410024 26.967,-2.69329996 54.221,2.47460004 78.426,14.99440024 27.331,14.1365 49.258,36.863 62.408,64.6815 13.15,27.819001 16.793,59.188001 10.37,89.280001 -6.424,30.093 -22.559,57.24 -45.922,77.264 -23.363,20.025 -52.659,31.816 -83.379,33.561 -30.721,1.744 -61.164004,-6.655 -86.643204,-23.906 -25.4796,-17.251 -44.5839,-42.397 -54.3727996,-71.569 -8.6694,-25.835 -9.6069,-53.56 -2.8198,-79.797 1.4559,-5.628001 7.4771996,-8.564001 12.9805996,-6.691001 5.5033,1.874001 8.3972,7.847001 7.0159,13.494001 -5.3439,21.847 -4.4185,44.839 2.7821,66.297 8.3206,24.795 24.5593,46.17 46.2169,60.833 21.6573,14.663 47.534304,21.803 73.646304,20.32 26.113,-1.483 51.014,-11.506 70.873,-28.526 19.858,-17.021 33.573,-40.096 39.033,-65.675 5.46,-25.578 2.363,-52.242 -8.814,-75.888001 -11.177,-23.6457 -29.816,-42.9632 -53.047,-54.9793 -20.104,-10.3986 -42.683,-14.8304 -65.09,-12.8917 -5.792,0.5011 -11.252,-3.2726 -12.262,-8.9978 z"
     fill="#b063ff"
     id="path134" />
</svg>
