<svg width="255" height="190" viewBox="0 0 255 190" fill="none" xmlns="http://www.w3.org/2000/svg">
<path d="M202.26 86.7009C197.347 81.79 190.685 79.0312 183.738 79.0312C176.791 79.0312 170.129 81.79 165.216 86.7009L146.689 105.223C141.776 110.136 139.016 116.799 139.016 123.747C139.016 130.695 141.776 137.359 146.689 142.272C151.602 147.185 158.265 149.945 165.213 149.945C172.161 149.945 178.825 147.185 183.738 142.272L192.999 133.011" stroke="#E6EFF1" stroke-width="16" stroke-linecap="round" stroke-linejoin="round"/>
<path d="M183.742 105.223C188.655 110.133 195.317 112.892 202.264 112.892C209.21 112.892 215.872 110.133 220.785 105.223L239.313 86.7009C244.226 81.7879 246.986 75.1244 246.986 68.1763C246.986 61.2282 244.226 54.5647 239.313 49.6517C234.4 44.7386 227.736 41.9785 220.788 41.9785C213.84 41.9785 207.177 44.7386 202.264 49.6517L193.003 58.9125" stroke="#E6EFF1" stroke-width="16" stroke-linecap="round" stroke-linejoin="round"/>
<path fill-rule="evenodd" clip-rule="evenodd" d="M82.4571 58.7268C82.5587 59.0165 82.7528 59.2766 83.0386 59.4518L83.4576 59.7081L88.0524 62.5199L88.0563 62.5226V62.5177L94.2533 66.3148L98.7751 69.0818C99.5419 69.5511 100.398 69.7846 101.254 69.7823V36.9591L88.4082 36.8154L82.373 37.1381L82.4571 58.7268Z" fill="#D4F2E4"/>
<path fill-rule="evenodd" clip-rule="evenodd" d="M82.4571 58.7268C82.5587 59.0165 82.7528 59.2766 83.0386 59.4518L83.4576 59.7081L88.0524 62.5199L88.0563 62.5226V62.5177L94.2533 66.3148L98.7751 69.0818C99.5419 69.5511 100.398 69.7846 101.254 69.7823V36.9591L88.4082 36.8154L82.373 37.1381L82.4571 58.7268Z" fill="url(#paint0_linear_600_415)" fill-opacity="0.15"/>
<path fill-rule="evenodd" clip-rule="evenodd" d="M82.4571 58.7268C82.5587 59.0165 82.7528 59.2766 83.0386 59.4518L83.4576 59.7081L88.0524 62.5199L88.0563 62.5226V62.5177L94.2533 66.3148L98.7751 69.0818C99.5419 69.5511 100.398 69.7846 101.254 69.7823V36.9591L88.4082 36.8154L82.373 37.1381L82.4571 58.7268Z" fill="url(#paint1_linear_600_415)" fill-opacity="0.35"/>
<path fill-rule="evenodd" clip-rule="evenodd" d="M82.4571 58.7268C82.5587 59.0165 82.7528 59.2766 83.0386 59.4518L83.4576 59.7081L88.0524 62.5199L88.0563 62.5226V62.5177L94.2533 66.3148L98.7751 69.0818C99.5419 69.5511 100.398 69.7846 101.254 69.7823V36.9591L88.4082 36.8154L82.373 37.1381L82.4571 58.7268Z" fill="url(#paint2_linear_600_415)"/>
<path fill-rule="evenodd" clip-rule="evenodd" d="M120.051 58.7268C119.949 59.0165 119.755 59.2766 119.469 59.4518L119.05 59.7081L114.455 62.5199L114.452 62.5226V62.5177L108.254 66.3148L103.733 69.0818C102.966 69.5511 102.11 69.7846 101.254 69.7823V36.9591L114.1 36.8154L120.135 37.1381L120.051 58.7268Z" fill="#D4F2E4"/>
<path fill-rule="evenodd" clip-rule="evenodd" d="M120.051 58.7268C119.949 59.0165 119.755 59.2766 119.469 59.4518L119.05 59.7081L114.455 62.5199L114.452 62.5226V62.5177L108.254 66.3148L103.733 69.0818C102.966 69.5511 102.11 69.7846 101.254 69.7823V36.9591L114.1 36.8154L120.135 37.1381L120.051 58.7268Z" fill="url(#paint3_linear_600_415)" fill-opacity="0.4"/>
<path fill-rule="evenodd" clip-rule="evenodd" d="M120.051 58.7268C119.949 59.0165 119.755 59.2766 119.469 59.4518L119.05 59.7081L114.455 62.5199L114.452 62.5226V62.5177L108.254 66.3148L103.733 69.0818C102.966 69.5511 102.11 69.7846 101.254 69.7823V36.9591L114.1 36.8154L120.135 37.1381L120.051 58.7268Z" fill="url(#paint4_linear_600_415)"/>
<path fill-rule="evenodd" clip-rule="evenodd" d="M120.051 58.7268C119.949 59.0165 119.755 59.2766 119.469 59.4518L119.05 59.7081L114.455 62.5199L114.452 62.5226V62.5177L108.254 66.3148L103.733 69.0818C102.966 69.5511 102.11 69.7846 101.254 69.7823V36.9591L114.1 36.8154L120.135 37.1381L120.051 58.7268Z" fill="url(#paint5_linear_600_415)" fill-opacity="0.5"/>
<path fill-rule="evenodd" clip-rule="evenodd" d="M120.051 58.7268C119.949 59.0165 119.755 59.2766 119.469 59.4518L119.05 59.7081L114.455 62.5199L114.452 62.5226V62.5177L108.254 66.3148L103.733 69.0818C102.966 69.5511 102.11 69.7846 101.254 69.7823V36.9591L114.1 36.8154L120.135 37.1381L120.051 58.7268Z" fill="url(#paint6_linear_600_415)"/>
<path fill-rule="evenodd" clip-rule="evenodd" d="M120.051 58.7268C119.949 59.0165 119.755 59.2766 119.469 59.4518L119.05 59.7081L114.455 62.5199L114.452 62.5226V62.5177L108.254 66.3148L103.733 69.0818C102.966 69.5511 102.11 69.7846 101.254 69.7823V36.9591L114.1 36.8154L120.135 37.1381L120.051 58.7268Z" fill="black" fill-opacity="0.1"/>
<path d="M103.578 26.3949L119.278 35.8159C119.709 36.0745 119.924 36.5277 119.925 36.9809C119.925 37.4343 119.709 37.8867 119.278 38.1454L113.532 41.5933L108.84 44.4089L103.59 47.5598C102.072 48.4706 100.202 48.4706 98.6847 47.5598L94.1879 44.8613L88.025 41.1582V41.1629L88.0212 41.1603L83.4516 38.4181L83.035 38.1682C82.7507 37.9973 82.5577 37.7436 82.4567 37.4611C82.4011 37.3058 82.373 37.1415 82.373 36.9772C82.3725 36.5137 82.5931 36.0499 83.0345 35.7849L98.6723 26.3957C100.19 25.4843 102.06 25.484 103.578 26.3949Z" fill="#F0FAF6"/>
<path fill-rule="evenodd" clip-rule="evenodd" d="M53.3614 80.2668C53.463 80.5565 53.6571 80.8166 53.9429 80.9919L54.3619 81.2481L58.9567 84.0599L58.9606 84.0626V84.0577L65.1576 87.8549L69.6794 90.6218C70.4462 91.0912 71.3024 91.3247 72.1582 91.3223V58.4992L59.3125 58.3555L53.2773 58.6781L53.3614 80.2668Z" fill="#D4F2E4"/>
<path fill-rule="evenodd" clip-rule="evenodd" d="M53.3614 80.2668C53.463 80.5565 53.6571 80.8166 53.9429 80.9919L54.3619 81.2481L58.9567 84.0599L58.9606 84.0626V84.0577L65.1576 87.8549L69.6794 90.6218C70.4462 91.0912 71.3024 91.3247 72.1582 91.3223V58.4992L59.3125 58.3555L53.2773 58.6781L53.3614 80.2668Z" fill="url(#paint7_linear_600_415)" fill-opacity="0.15"/>
<path fill-rule="evenodd" clip-rule="evenodd" d="M53.3614 80.2668C53.463 80.5565 53.6571 80.8166 53.9429 80.9919L54.3619 81.2481L58.9567 84.0599L58.9606 84.0626V84.0577L65.1576 87.8549L69.6794 90.6218C70.4462 91.0912 71.3024 91.3247 72.1582 91.3223V58.4992L59.3125 58.3555L53.2773 58.6781L53.3614 80.2668Z" fill="url(#paint8_linear_600_415)" fill-opacity="0.65"/>
<path fill-rule="evenodd" clip-rule="evenodd" d="M90.955 80.2668C90.8534 80.5565 90.6594 80.8166 90.3735 80.9919L89.9545 81.2481L85.3597 84.0599L85.3558 84.0626V84.0577L79.1588 87.8549L74.637 90.6218C73.8702 91.0912 73.014 91.3247 72.1582 91.3223V58.4992L85.004 58.3555L91.0391 58.6781L90.955 80.2668Z" fill="#D4F2E4"/>
<path fill-rule="evenodd" clip-rule="evenodd" d="M90.955 80.2668C90.8534 80.5565 90.6594 80.8166 90.3735 80.9919L89.9545 81.2481L85.3597 84.0599L85.3558 84.0626V84.0577L79.1588 87.8549L74.637 90.6218C73.8702 91.0912 73.014 91.3247 72.1582 91.3223V58.4992L85.004 58.3555L91.0391 58.6781L90.955 80.2668Z" fill="url(#paint9_linear_600_415)" fill-opacity="0.4"/>
<path fill-rule="evenodd" clip-rule="evenodd" d="M90.955 80.2668C90.8534 80.5565 90.6594 80.8166 90.3735 80.9919L89.9545 81.2481L85.3597 84.0599L85.3558 84.0626V84.0577L79.1588 87.8549L74.637 90.6218C73.8702 91.0912 73.014 91.3247 72.1582 91.3223V58.4992L85.004 58.3555L91.0391 58.6781L90.955 80.2668Z" fill="url(#paint10_linear_600_415)"/>
<path fill-rule="evenodd" clip-rule="evenodd" d="M90.955 80.2668C90.8534 80.5565 90.6594 80.8166 90.3735 80.9919L89.9545 81.2481L85.3597 84.0599L85.3558 84.0626V84.0577L79.1588 87.8549L74.637 90.6218C73.8702 91.0912 73.014 91.3247 72.1582 91.3223V58.4992L85.004 58.3555L91.0391 58.6781L90.955 80.2668Z" fill="url(#paint11_linear_600_415)"/>
<path d="M74.4827 47.9339L90.1819 57.3549C90.6133 57.6136 90.8288 58.0668 90.829 58.52C90.829 58.9734 90.6136 59.4258 90.1821 59.6845L84.4364 63.1324L79.7445 65.948L74.4939 69.0988C72.9762 70.0097 71.1064 70.0097 69.589 69.0988L65.0922 66.4004L58.9293 62.6972V62.702L58.9254 62.6993L54.3559 59.9572L53.9393 59.7073C53.655 59.5363 53.462 59.2827 53.361 59.0002C53.3054 58.8449 53.2773 58.6806 53.2773 58.5162C53.2768 58.0527 53.4974 57.5889 53.9388 57.3239L69.5765 47.9347C71.0945 47.0233 72.9645 47.0231 74.4827 47.9339Z" fill="#F0FAF6"/>
<path fill-rule="evenodd" clip-rule="evenodd" d="M110.777 80.2668C110.879 80.5565 111.073 80.8166 111.359 80.9919L111.778 81.2481L116.373 84.0599L116.377 84.0626V84.0577L122.574 87.8549L127.095 90.6218C127.862 91.0912 128.718 91.3247 129.574 91.3223V58.4992L116.728 58.3555L110.693 58.6781L110.777 80.2668Z" fill="#D4F2E4"/>
<path fill-rule="evenodd" clip-rule="evenodd" d="M110.777 80.2668C110.879 80.5565 111.073 80.8166 111.359 80.9919L111.778 81.2481L116.373 84.0599L116.377 84.0626V84.0577L122.574 87.8549L127.095 90.6218C127.862 91.0912 128.718 91.3247 129.574 91.3223V58.4992L116.728 58.3555L110.693 58.6781L110.777 80.2668Z" fill="url(#paint12_linear_600_415)" fill-opacity="0.15"/>
<path fill-rule="evenodd" clip-rule="evenodd" d="M110.777 80.2668C110.879 80.5565 111.073 80.8166 111.359 80.9919L111.778 81.2481L116.373 84.0599L116.377 84.0626V84.0577L122.574 87.8549L127.095 90.6218C127.862 91.0912 128.718 91.3247 129.574 91.3223V58.4992L116.728 58.3555L110.693 58.6781L110.777 80.2668Z" fill="url(#paint13_linear_600_415)" fill-opacity="0.65"/>
<path fill-rule="evenodd" clip-rule="evenodd" d="M148.371 80.2668C148.269 80.5565 148.075 80.8166 147.789 80.9919L147.371 81.2481L142.776 84.0599L142.772 84.0626V84.0577L136.575 87.8549L132.053 90.6218C131.286 91.0912 130.43 91.3247 129.574 91.3223V58.4992L142.42 58.3555L148.455 58.6781L148.371 80.2668Z" fill="#D4F2E4"/>
<path fill-rule="evenodd" clip-rule="evenodd" d="M148.371 80.2668C148.269 80.5565 148.075 80.8166 147.789 80.9919L147.371 81.2481L142.776 84.0599L142.772 84.0626V84.0577L136.575 87.8549L132.053 90.6218C131.286 91.0912 130.43 91.3247 129.574 91.3223V58.4992L142.42 58.3555L148.455 58.6781L148.371 80.2668Z" fill="url(#paint14_linear_600_415)" fill-opacity="0.4"/>
<path fill-rule="evenodd" clip-rule="evenodd" d="M148.371 80.2668C148.269 80.5565 148.075 80.8166 147.789 80.9919L147.371 81.2481L142.776 84.0599L142.772 84.0626V84.0577L136.575 87.8549L132.053 90.6218C131.286 91.0912 130.43 91.3247 129.574 91.3223V58.4992L142.42 58.3555L148.455 58.6781L148.371 80.2668Z" fill="url(#paint15_linear_600_415)"/>
<path fill-rule="evenodd" clip-rule="evenodd" d="M148.371 80.2668C148.269 80.5565 148.075 80.8166 147.789 80.9919L147.371 81.2481L142.776 84.0599L142.772 84.0626V84.0577L136.575 87.8549L132.053 90.6218C131.286 91.0912 130.43 91.3247 129.574 91.3223V58.4992L142.42 58.3555L148.455 58.6781L148.371 80.2668Z" fill="url(#paint16_linear_600_415)"/>
<path d="M131.899 47.9339L147.598 57.3549C148.029 57.6136 148.245 58.0668 148.245 58.52C148.245 58.9734 148.03 59.4258 147.598 59.6845L141.852 63.1324L137.16 65.948L131.91 69.0988C130.392 70.0097 128.522 70.0097 127.005 69.0988L122.508 66.4004L116.345 62.6972V62.702L116.341 62.6993L111.772 59.9572L111.355 59.7073C111.071 59.5363 110.878 59.2827 110.777 59.0002C110.721 58.8449 110.693 58.6806 110.693 58.5162C110.693 58.0527 110.913 57.5889 111.355 57.3239L126.993 47.9347C128.51 47.0233 130.381 47.0231 131.899 47.9339Z" fill="#F0FAF6"/>
<path fill-rule="evenodd" clip-rule="evenodd" d="M101.254 80.0382L88.4082 79.8945L82.373 80.2172L82.4571 101.806C82.5587 102.096 82.7528 102.356 83.0386 102.531L83.4576 102.787L88.0524 105.599L88.0563 105.602V105.597L94.2533 109.394L98.7751 112.161C99.5419 112.63 100.398 112.864 101.254 112.861V80.0382Z" fill="#D4F2E4"/>
<path fill-rule="evenodd" clip-rule="evenodd" d="M101.254 80.0382L88.4082 79.8945L82.373 80.2172L82.4571 101.806C82.5587 102.096 82.7528 102.356 83.0386 102.531L83.4576 102.787L88.0524 105.599L88.0563 105.602V105.597L94.2533 109.394L98.7751 112.161C99.5419 112.63 100.398 112.864 101.254 112.861V80.0382Z" fill="url(#paint17_linear_600_415)" fill-opacity="0.15"/>
<path fill-rule="evenodd" clip-rule="evenodd" d="M101.254 80.0382L88.4082 79.8945L82.373 80.2172L82.4571 101.806C82.5587 102.096 82.7528 102.356 83.0386 102.531L83.4576 102.787L88.0524 105.599L88.0563 105.602V105.597L94.2533 109.394L98.7751 112.161C99.5419 112.63 100.398 112.864 101.254 112.861V80.0382Z" fill="url(#paint18_linear_600_415)" fill-opacity="0.35"/>
<path fill-rule="evenodd" clip-rule="evenodd" d="M120.051 101.806C119.949 102.096 119.755 102.356 119.469 102.531L119.05 102.787L114.455 105.599L114.452 105.602V105.597L108.254 109.394L103.733 112.161C102.966 112.63 102.11 112.864 101.254 112.861V80.0382L114.1 79.8945L120.135 80.2172L120.051 101.806Z" fill="#D4F2E4"/>
<path fill-rule="evenodd" clip-rule="evenodd" d="M120.051 101.806C119.949 102.096 119.755 102.356 119.469 102.531L119.05 102.787L114.455 105.599L114.452 105.602V105.597L108.254 109.394L103.733 112.161C102.966 112.63 102.11 112.864 101.254 112.861V80.0382L114.1 79.8945L120.135 80.2172L120.051 101.806Z" fill="url(#paint19_linear_600_415)" fill-opacity="0.4"/>
<path fill-rule="evenodd" clip-rule="evenodd" d="M120.051 101.806C119.949 102.096 119.755 102.356 119.469 102.531L119.05 102.787L114.455 105.599L114.452 105.602V105.597L108.254 109.394L103.733 112.161C102.966 112.63 102.11 112.864 101.254 112.861V80.0382L114.1 79.8945L120.135 80.2172L120.051 101.806Z" fill="url(#paint20_linear_600_415)"/>
<path fill-rule="evenodd" clip-rule="evenodd" d="M120.051 101.806C119.949 102.096 119.755 102.356 119.469 102.531L119.05 102.787L114.455 105.599L114.452 105.602V105.597L108.254 109.394L103.733 112.161C102.966 112.63 102.11 112.864 101.254 112.861V80.0382L114.1 79.8945L120.135 80.2172L120.051 101.806Z" fill="url(#paint21_linear_600_415)" fill-opacity="0.5"/>
<path d="M103.578 69.474L119.278 78.895C119.709 79.1536 119.924 79.6068 119.925 80.06C119.925 80.5134 119.709 80.9658 119.278 81.2245L113.532 84.6724L108.84 87.488L103.59 90.6389C102.072 91.5497 100.202 91.5497 98.6847 90.6389L94.1879 87.9404L88.025 84.2373V84.242L88.0212 84.2394L83.4516 81.4972L83.035 81.2473C82.7507 81.0764 82.5577 80.8227 82.4567 80.5402C82.4011 80.3849 82.373 80.2206 82.373 80.0563C82.3725 79.5928 82.5931 79.129 83.0345 78.864L98.6723 69.4748C100.19 68.5634 102.06 68.5631 103.578 69.474Z" fill="#F0FAF6"/>
<path fill-rule="evenodd" clip-rule="evenodd" d="M19.4708 101.806C19.5723 102.096 19.7664 102.356 20.0523 102.531L20.4713 102.787L25.0661 105.599L25.07 105.602V105.597L31.267 109.394L35.7888 112.161C36.5555 112.63 37.4118 112.864 38.2676 112.861V80.0382L25.4218 79.8945L19.3867 80.2172L19.4708 101.806Z" fill="#D4F2E4"/>
<path fill-rule="evenodd" clip-rule="evenodd" d="M19.4708 101.806C19.5723 102.096 19.7664 102.356 20.0523 102.531L20.4713 102.787L25.0661 105.599L25.07 105.602V105.597L31.267 109.394L35.7888 112.161C36.5555 112.63 37.4118 112.864 38.2676 112.861V80.0382L25.4218 79.8945L19.3867 80.2172L19.4708 101.806Z" fill="url(#paint22_linear_600_415)" fill-opacity="0.15"/>
<path fill-rule="evenodd" clip-rule="evenodd" d="M19.4708 101.806C19.5723 102.096 19.7664 102.356 20.0523 102.531L20.4713 102.787L25.0661 105.599L25.07 105.602V105.597L31.267 109.394L35.7888 112.161C36.5555 112.63 37.4118 112.864 38.2676 112.861V80.0382L25.4218 79.8945L19.3867 80.2172L19.4708 101.806Z" fill="url(#paint23_linear_600_415)" fill-opacity="0.35"/>
<path fill-rule="evenodd" clip-rule="evenodd" d="M57.0624 101.806C56.9609 102.096 56.7668 102.356 56.4809 102.531L56.0619 102.787L51.4671 105.599L51.4632 105.602V105.597L45.2662 109.394L40.7444 112.161C39.9777 112.63 39.1214 112.864 38.2656 112.861V80.0382L51.1114 79.8945L57.1465 80.2172L57.0624 101.806Z" fill="#D4F2E4"/>
<path fill-rule="evenodd" clip-rule="evenodd" d="M57.0624 101.806C56.9609 102.096 56.7668 102.356 56.4809 102.531L56.0619 102.787L51.4671 105.599L51.4632 105.602V105.597L45.2662 109.394L40.7444 112.161C39.9777 112.63 39.1214 112.864 38.2656 112.861V80.0382L51.1114 79.8945L57.1465 80.2172L57.0624 101.806Z" fill="url(#paint24_linear_600_415)" fill-opacity="0.4"/>
<path fill-rule="evenodd" clip-rule="evenodd" d="M57.0624 101.806C56.9609 102.096 56.7668 102.356 56.4809 102.531L56.0619 102.787L51.4671 105.599L51.4632 105.602V105.597L45.2662 109.394L40.7444 112.161C39.9777 112.63 39.1214 112.864 38.2656 112.861V80.0382L51.1114 79.8945L57.1465 80.2172L57.0624 101.806Z" fill="url(#paint25_linear_600_415)"/>
<path fill-rule="evenodd" clip-rule="evenodd" d="M57.0624 101.806C56.9609 102.096 56.7668 102.356 56.4809 102.531L56.0619 102.787L51.4671 105.599L51.4632 105.602V105.597L45.2662 109.394L40.7444 112.161C39.9777 112.63 39.1214 112.864 38.2656 112.861V80.0382L51.1114 79.8945L57.1465 80.2172L57.0624 101.806Z" fill="url(#paint26_linear_600_415)" fill-opacity="0.5"/>
<path d="M40.592 69.474L56.2913 78.895C56.7227 79.1536 56.9381 79.6068 56.9384 80.06C56.9384 80.5134 56.7229 80.9658 56.2915 81.2245L50.5458 84.6724L45.8538 87.488L40.6032 90.6389C39.0856 91.5497 37.2158 91.5497 35.6984 90.6389L31.2016 87.9404L25.0386 84.2373V84.242L25.0348 84.2394L20.4653 81.4972L20.0487 81.2473C19.7643 81.0764 19.5713 80.8227 19.4704 80.5402C19.4148 80.3849 19.3867 80.2206 19.3867 80.0563C19.3862 79.5928 19.6068 79.129 20.0481 78.864L35.6859 69.4748C37.2038 68.5634 39.0739 68.5631 40.592 69.474Z" fill="#F0FAF6"/>
<path fill-rule="evenodd" clip-rule="evenodd" d="M144.317 101.806C144.418 102.096 144.612 102.356 144.898 102.531L145.317 102.787L149.912 105.599L149.916 105.602V105.597L156.113 109.394L160.634 112.161C161.401 112.63 162.257 112.864 163.113 112.861V80.0382L150.268 79.8945L144.232 80.2172L144.317 101.806Z" fill="#D4F2E4"/>
<path fill-rule="evenodd" clip-rule="evenodd" d="M144.317 101.806C144.418 102.096 144.612 102.356 144.898 102.531L145.317 102.787L149.912 105.599L149.916 105.602V105.597L156.113 109.394L160.634 112.161C161.401 112.63 162.257 112.864 163.113 112.861V80.0382L150.268 79.8945L144.232 80.2172L144.317 101.806Z" fill="url(#paint27_linear_600_415)" fill-opacity="0.15"/>
<path fill-rule="evenodd" clip-rule="evenodd" d="M144.317 101.806C144.418 102.096 144.612 102.356 144.898 102.531L145.317 102.787L149.912 105.599L149.916 105.602V105.597L156.113 109.394L160.634 112.161C161.401 112.63 162.257 112.864 163.113 112.861V80.0382L150.268 79.8945L144.232 80.2172L144.317 101.806Z" fill="url(#paint28_linear_600_415)" fill-opacity="0.35"/>
<path fill-rule="evenodd" clip-rule="evenodd" d="M181.908 101.806C181.807 102.096 181.612 102.356 181.327 102.531L180.908 102.787L176.313 105.599L176.309 105.602V105.597L170.112 109.394L165.59 112.161C164.823 112.63 163.967 112.864 163.111 112.861V80.0382L175.957 79.8945L181.992 80.2172L181.908 101.806Z" fill="#D4F2E4"/>
<path fill-rule="evenodd" clip-rule="evenodd" d="M181.908 101.806C181.807 102.096 181.612 102.356 181.327 102.531L180.908 102.787L176.313 105.599L176.309 105.602V105.597L170.112 109.394L165.59 112.161C164.823 112.63 163.967 112.864 163.111 112.861V80.0382L175.957 79.8945L181.992 80.2172L181.908 101.806Z" fill="url(#paint29_linear_600_415)" fill-opacity="0.4"/>
<path fill-rule="evenodd" clip-rule="evenodd" d="M181.908 101.806C181.807 102.096 181.612 102.356 181.327 102.531L180.908 102.787L176.313 105.599L176.309 105.602V105.597L170.112 109.394L165.59 112.161C164.823 112.63 163.967 112.864 163.111 112.861V80.0382L175.957 79.8945L181.992 80.2172L181.908 101.806Z" fill="url(#paint30_linear_600_415)"/>
<path fill-rule="evenodd" clip-rule="evenodd" d="M181.908 101.806C181.807 102.096 181.612 102.356 181.327 102.531L180.908 102.787L176.313 105.599L176.309 105.602V105.597L170.112 109.394L165.59 112.161C164.823 112.63 163.967 112.864 163.111 112.861V80.0382L175.957 79.8945L181.992 80.2172L181.908 101.806Z" fill="url(#paint31_linear_600_415)" fill-opacity="0.5"/>
<path d="M165.438 69.474L181.137 78.895C181.568 79.1536 181.784 79.6068 181.784 80.06C181.784 80.5134 181.569 80.9658 181.137 81.2245L175.391 84.6724L170.7 87.488L165.449 90.6389C163.931 91.5497 162.062 91.5497 160.544 90.6389L156.047 87.9404L149.884 84.2373V84.242L149.881 84.2394L145.311 81.4972L144.894 81.2473C144.61 81.0764 144.417 80.8227 144.316 80.5402C144.26 80.3849 144.232 80.2206 144.232 80.0563C144.232 79.5928 144.452 79.129 144.894 78.864L160.532 69.4748C162.05 68.5634 163.92 68.5631 165.438 69.474Z" fill="#F0FAF6"/>
<path fill-rule="evenodd" clip-rule="evenodd" d="M53.3614 124.276C53.463 124.565 53.6571 124.825 53.9429 125.001L54.3619 125.257L58.9567 128.069L58.9606 128.071V128.067L65.1576 131.864L69.6794 134.631C70.4462 135.1 71.3024 135.333 72.1582 135.331V102.508L59.3125 102.364L53.2773 102.687L53.3614 124.276Z" fill="#D4F2E4"/>
<path fill-rule="evenodd" clip-rule="evenodd" d="M53.3614 124.276C53.463 124.565 53.6571 124.825 53.9429 125.001L54.3619 125.257L58.9567 128.069L58.9606 128.071V128.067L65.1576 131.864L69.6794 134.631C70.4462 135.1 71.3024 135.333 72.1582 135.331V102.508L59.3125 102.364L53.2773 102.687L53.3614 124.276Z" fill="url(#paint32_linear_600_415)" fill-opacity="0.15"/>
<path fill-rule="evenodd" clip-rule="evenodd" d="M53.3614 124.276C53.463 124.565 53.6571 124.825 53.9429 125.001L54.3619 125.257L58.9567 128.069L58.9606 128.071V128.067L65.1576 131.864L69.6794 134.631C70.4462 135.1 71.3024 135.333 72.1582 135.331V102.508L59.3125 102.364L53.2773 102.687L53.3614 124.276Z" fill="url(#paint33_linear_600_415)" fill-opacity="0.15"/>
<path fill-rule="evenodd" clip-rule="evenodd" d="M90.955 124.276C90.8534 124.565 90.6594 124.825 90.3735 125.001L89.9545 125.257L85.3597 128.069L85.3558 128.071V128.067L79.1588 131.864L74.637 134.631C73.8702 135.1 73.014 135.333 72.1582 135.331V102.508L85.004 102.364L91.0391 102.687L90.955 124.276Z" fill="#D4F2E4"/>
<path fill-rule="evenodd" clip-rule="evenodd" d="M90.955 124.276C90.8534 124.565 90.6594 124.825 90.3735 125.001L89.9545 125.257L85.3597 128.069L85.3558 128.071V128.067L79.1588 131.864L74.637 134.631C73.8702 135.1 73.014 135.333 72.1582 135.331V102.508L85.004 102.364L91.0391 102.687L90.955 124.276Z" fill="url(#paint34_linear_600_415)" fill-opacity="0.4"/>
<path fill-rule="evenodd" clip-rule="evenodd" d="M90.955 124.276C90.8534 124.565 90.6594 124.825 90.3735 125.001L89.9545 125.257L85.3597 128.069L85.3558 128.071V128.067L79.1588 131.864L74.637 134.631C73.8702 135.1 73.014 135.333 72.1582 135.331V102.508L85.004 102.364L91.0391 102.687L90.955 124.276Z" fill="url(#paint35_linear_600_415)"/>
<path fill-rule="evenodd" clip-rule="evenodd" d="M90.955 124.276C90.8534 124.565 90.6594 124.825 90.3735 125.001L89.9545 125.257L85.3597 128.069L85.3558 128.071V128.067L79.1588 131.864L74.637 134.631C73.8702 135.1 73.014 135.333 72.1582 135.331V102.508L85.004 102.364L91.0391 102.687L90.955 124.276Z" fill="url(#paint36_linear_600_415)" fill-opacity="0.2"/>
<path d="M74.4827 91.9427L90.1819 101.364C90.6133 101.622 90.8288 102.076 90.829 102.529C90.829 102.982 90.6136 103.435 90.1821 103.693L84.4364 107.141L79.7445 109.957L74.4939 113.108C72.9762 114.018 71.1064 114.018 69.589 113.108L65.0922 110.409L58.9293 106.706V106.711L58.9254 106.708L54.3559 103.966L53.9393 103.716C53.655 103.545 53.462 103.291 53.361 103.009C53.3054 102.854 53.2773 102.689 53.2773 102.525C53.2768 102.062 53.4974 101.598 53.9388 101.333L69.5765 91.9435C71.0945 91.0321 72.9645 91.0318 74.4827 91.9427Z" fill="#F0FAF6"/>
<path fill-rule="evenodd" clip-rule="evenodd" d="M110.777 124.276C110.879 124.565 111.073 124.825 111.359 125.001L111.778 125.257L116.373 128.069L116.377 128.071V128.067L122.574 131.864L127.095 134.631C127.862 135.1 128.718 135.333 129.574 135.331V102.508L116.728 102.364L110.693 102.687L110.777 124.276Z" fill="#D4F2E4"/>
<path fill-rule="evenodd" clip-rule="evenodd" d="M110.777 124.276C110.879 124.565 111.073 124.825 111.359 125.001L111.778 125.257L116.373 128.069L116.377 128.071V128.067L122.574 131.864L127.095 134.631C127.862 135.1 128.718 135.333 129.574 135.331V102.508L116.728 102.364L110.693 102.687L110.777 124.276Z" fill="url(#paint37_linear_600_415)" fill-opacity="0.15"/>
<path fill-rule="evenodd" clip-rule="evenodd" d="M110.777 124.276C110.879 124.565 111.073 124.825 111.359 125.001L111.778 125.257L116.373 128.069L116.377 128.071V128.067L122.574 131.864L127.095 134.631C127.862 135.1 128.718 135.333 129.574 135.331V102.508L116.728 102.364L110.693 102.687L110.777 124.276Z" fill="url(#paint38_linear_600_415)" fill-opacity="0.15"/>
<path fill-rule="evenodd" clip-rule="evenodd" d="M148.371 124.276C148.269 124.565 148.075 124.825 147.789 125.001L147.371 125.257L142.776 128.069L142.772 128.071V128.067L136.575 131.864L132.053 134.631C131.286 135.1 130.43 135.333 129.574 135.331V102.508L142.42 102.364L148.455 102.687L148.371 124.276Z" fill="#D4F2E4"/>
<path fill-rule="evenodd" clip-rule="evenodd" d="M148.371 124.276C148.269 124.565 148.075 124.825 147.789 125.001L147.371 125.257L142.776 128.069L142.772 128.071V128.067L136.575 131.864L132.053 134.631C131.286 135.1 130.43 135.333 129.574 135.331V102.508L142.42 102.364L148.455 102.687L148.371 124.276Z" fill="url(#paint39_linear_600_415)" fill-opacity="0.4"/>
<path fill-rule="evenodd" clip-rule="evenodd" d="M148.371 124.276C148.269 124.565 148.075 124.825 147.789 125.001L147.371 125.257L142.776 128.069L142.772 128.071V128.067L136.575 131.864L132.053 134.631C131.286 135.1 130.43 135.333 129.574 135.331V102.508L142.42 102.364L148.455 102.687L148.371 124.276Z" fill="url(#paint40_linear_600_415)"/>
<path fill-rule="evenodd" clip-rule="evenodd" d="M148.371 124.276C148.269 124.565 148.075 124.825 147.789 125.001L147.371 125.257L142.776 128.069L142.772 128.071V128.067L136.575 131.864L132.053 134.631C131.286 135.1 130.43 135.333 129.574 135.331V102.508L142.42 102.364L148.455 102.687L148.371 124.276Z" fill="url(#paint41_linear_600_415)" fill-opacity="0.2"/>
<path d="M131.899 91.9427L147.598 101.364C148.029 101.622 148.245 102.076 148.245 102.529C148.245 102.982 148.03 103.435 147.598 103.693L141.852 107.141L137.16 109.957L131.91 113.108C130.392 114.018 128.522 114.018 127.005 113.108L122.508 110.409L116.345 106.706V106.711L116.341 106.708L111.772 103.966L111.355 103.716C111.071 103.545 110.878 103.291 110.777 103.009C110.721 102.854 110.693 102.689 110.693 102.525C110.693 102.062 110.913 101.598 111.355 101.333L126.993 91.9435C128.51 91.0321 130.381 91.0318 131.899 91.9427Z" fill="#F0FAF6"/>
<path fill-rule="evenodd" clip-rule="evenodd" d="M101.254 124.06L88.4082 123.916L82.373 124.239L82.4571 145.827C82.5587 146.117 82.7528 146.377 83.0386 146.552L83.4576 146.809L88.0524 149.62L88.0563 149.623V149.618L94.2533 153.415L98.7751 156.182C99.5419 156.652 100.398 156.885 101.254 156.883V124.06Z" fill="#D4F2E4"/>
<path fill-rule="evenodd" clip-rule="evenodd" d="M101.254 124.06L88.4082 123.916L82.373 124.239L82.4571 145.827C82.5587 146.117 82.7528 146.377 83.0386 146.552L83.4576 146.809L88.0524 149.62L88.0563 149.623V149.618L94.2533 153.415L98.7751 156.182C99.5419 156.652 100.398 156.885 101.254 156.883V124.06Z" fill="url(#paint42_linear_600_415)" fill-opacity="0.15"/>
<path fill-rule="evenodd" clip-rule="evenodd" d="M120.051 145.827C119.949 146.117 119.755 146.377 119.469 146.552L119.05 146.809L114.455 149.62L114.452 149.623V149.618L108.254 153.415L103.733 156.182C102.966 156.652 102.11 156.885 101.254 156.883V124.06L114.1 123.916L120.135 124.239L120.051 145.827Z" fill="#D4F2E4"/>
<path fill-rule="evenodd" clip-rule="evenodd" d="M120.051 145.827C119.949 146.117 119.755 146.377 119.469 146.552L119.05 146.809L114.455 149.62L114.452 149.623V149.618L108.254 153.415L103.733 156.182C102.966 156.652 102.11 156.885 101.254 156.883V124.06L114.1 123.916L120.135 124.239L120.051 145.827Z" fill="url(#paint43_linear_600_415)" fill-opacity="0.4"/>
<path fill-rule="evenodd" clip-rule="evenodd" d="M120.051 145.827C119.949 146.117 119.755 146.377 119.469 146.552L119.05 146.809L114.455 149.62L114.452 149.623V149.618L108.254 153.415L103.733 156.182C102.966 156.652 102.11 156.885 101.254 156.883V124.06L114.1 123.916L120.135 124.239L120.051 145.827Z" fill="url(#paint44_linear_600_415)"/>
<path d="M103.578 113.495L119.278 122.916C119.709 123.175 119.924 123.628 119.925 124.081C119.925 124.535 119.709 124.987 119.278 125.246L113.532 128.694L108.84 131.51L103.59 134.66C102.072 135.571 100.202 135.571 98.6847 134.66L94.1879 131.962L88.025 128.259V128.264L88.0212 128.261L83.4516 125.519L83.035 125.269C82.7507 125.098 82.5577 124.844 82.4567 124.562C82.4011 124.406 82.373 124.242 82.373 124.078C82.3725 123.614 82.5931 123.15 83.0345 122.885L98.6723 113.496C100.19 112.585 102.06 112.585 103.578 113.495Z" fill="#F0FAF6"/>
<path d="M186.899 43.8665C188.401 46.4679 187.71 50.3468 184.813 55.3066C181.938 60.2279 176.986 66.0435 170.326 72.3791C157.011 85.0448 136.952 99.7108 113.305 113.364C89.6569 127.017 66.9263 137.055 49.3 142.254C40.483 144.854 32.9706 146.235 27.2713 146.263C21.5274 146.293 17.8229 144.951 16.321 142.35C14.8191 139.748 15.5096 135.869 18.4068 130.91C21.2815 125.988 26.2335 120.173 32.8939 113.837C46.2088 101.171 66.2677 86.5055 89.9154 72.8525C113.563 59.1996 136.294 49.161 153.92 43.9628C162.737 41.3626 170.249 39.9818 175.949 39.9529C181.693 39.9237 185.397 41.2652 186.899 43.8665Z" stroke="url(#paint45_linear_600_415)"/>
<path d="M193.94 127.373C192.895 130.189 189.467 132.132 183.799 133.065C178.176 133.991 170.538 133.888 161.41 132.8C143.162 130.627 119.072 124.536 93.472 115.035C67.8722 105.535 45.6407 94.4345 30.393 84.1771C22.7658 79.0461 16.91 74.1418 13.2519 69.7713C9.56512 65.3667 8.23484 61.6582 9.27996 58.842C10.3251 56.0259 13.7527 54.0831 19.4203 53.1501C25.0441 52.2243 32.6816 52.3277 41.8095 53.4149C60.0574 55.5883 84.1479 61.6792 109.748 71.1798C135.348 80.6805 157.579 91.7807 172.827 102.038C180.454 107.169 186.31 112.073 189.968 116.444C193.655 120.849 194.985 124.557 193.94 127.373Z" stroke="url(#paint46_linear_600_415)" stroke-opacity="0.25"/>
<path d="M161.495 14.9232C163.879 16.7497 164.729 20.5969 163.956 26.2885C163.188 31.9359 160.845 39.2059 157.123 47.6114C149.684 64.4149 136.783 85.6521 120.179 107.33C103.575 129.008 86.4322 146.996 72.1471 158.556C65.0013 164.339 58.5928 168.495 53.3403 170.707C48.0468 172.937 44.1111 173.119 41.7264 171.292C39.3417 169.466 38.4919 165.619 39.2655 159.927C40.0332 154.28 42.3763 147.01 46.0978 138.604C53.5374 121.801 66.4384 100.563 83.0422 78.8856C99.646 57.2078 116.789 39.2197 131.074 27.6593C138.22 21.8766 144.628 17.7205 149.881 15.5081C155.174 13.2785 159.11 13.0967 161.495 14.9232Z" stroke="url(#paint47_linear_600_415)" stroke-opacity="0.25"/>
<g opacity="0.5" filter="url(#filter0_f_600_415)">
<g opacity="0.25">
<path d="M56.334 168.127L84.2674 163.907" stroke="#9FB8ED" stroke-width="2" stroke-linecap="round"/>
<path d="M84.4629 163.945L107.883 165.694" stroke="#9FB8ED" stroke-width="2" stroke-linecap="round"/>
<path d="M110.398 165.528L126.026 163.178" stroke="#9FB8ED" stroke-width="2" stroke-linecap="round"/>
<path d="M127.99 162.935L148.735 162.733" stroke="#9FB8ED" stroke-width="2" stroke-linecap="round"/>
<path d="M149.66 162.718L167.055 158.522" stroke="#9FB8ED" stroke-width="2" stroke-linecap="round"/>
<rect x="0.210674" y="0.202743" width="10.5725" height="0.421658" rx="0.210829" transform="matrix(0.999264 -0.0383529 3.31395e-07 1 78.9201 163.721)" fill="white" stroke="#9FB8ED" stroke-width="0.421658"/>
<rect x="0.210674" y="0.202743" width="10.5725" height="0.421658" rx="0.210829" transform="matrix(0.999264 -0.0383529 3.31395e-07 1 102.391 165.491)" fill="white" stroke="#9FB8ED" stroke-width="0.421658"/>
<rect x="0.210674" y="0.202743" width="10.5725" height="0.421658" rx="0.210829" transform="matrix(0.999264 -0.0383529 3.31395e-07 1 50.0177 167.854)" fill="white" stroke="#9FB8ED" stroke-width="0.421658"/>
<rect x="0.210674" y="0.202743" width="10.5725" height="0.421658" rx="0.210829" transform="matrix(0.999264 -0.0383529 3.31395e-07 1 120.531 162.901)" fill="white" stroke="#9FB8ED" stroke-width="0.421658"/>
<rect x="0.210674" y="0.202743" width="10.5725" height="0.421658" rx="0.210829" transform="matrix(0.999264 -0.0383529 3.31395e-07 1 143.717 162.506)" fill="white" stroke="#9FB8ED" stroke-width="0.421658"/>
<rect x="0.210674" y="0.202743" width="10.5725" height="0.421658" rx="0.210829" transform="matrix(0.999264 -0.0383529 3.31395e-07 1 161.565 158.319)" fill="white" stroke="#9FB8ED" stroke-width="0.421658"/>
</g>
<path d="M34.291 168.128L60.5145 165.743" stroke="#E6EFF1" stroke-width="2" stroke-linecap="round"/>
<path d="M34.291 168.128L60.5145 165.743" stroke="url(#paint48_linear_600_415)" stroke-width="2" stroke-linecap="round"/>
<path d="M64.1055 165.577L85.8385 165.694" stroke="#E6EFF1" stroke-width="2" stroke-linecap="round"/>
<path d="M64.1055 165.577L85.8385 165.694" stroke="url(#paint49_linear_600_415)" stroke-width="2" stroke-linecap="round"/>
<path d="M88.3555 165.528L103.983 163.178" stroke="#E6EFF1" stroke-width="2" stroke-linecap="round"/>
<path d="M88.3555 165.528L103.983 163.178" stroke="url(#paint50_linear_600_415)" stroke-width="2" stroke-linecap="round"/>
<path d="M105.947 162.935L127.024 159.847" stroke="#E6EFF1" stroke-width="2" stroke-linecap="round"/>
<path d="M105.947 162.935L127.024 159.847" stroke="url(#paint51_linear_600_415)" stroke-width="2" stroke-linecap="round"/>
<path d="M126.65 159.773L145.014 158.522" stroke="#E6EFF1" stroke-width="2" stroke-linecap="round"/>
<path d="M126.65 159.773L145.014 158.522" stroke="url(#paint52_linear_600_415)" stroke-width="2" stroke-linecap="round"/>
<rect x="0.210674" y="0.202743" width="10.5725" height="0.421658" rx="0.210829" transform="matrix(0.999264 -0.0383529 3.31395e-07 1 56.8771 165.522)" fill="white"/>
<rect x="0.210674" y="0.202743" width="10.5725" height="0.421658" rx="0.210829" transform="matrix(0.999264 -0.0383529 3.31395e-07 1 56.8771 165.522)" stroke="black" stroke-width="0.421658"/>
<rect x="0.210674" y="0.202743" width="10.5725" height="0.421658" rx="0.210829" transform="matrix(0.999264 -0.0383529 3.31395e-07 1 56.8771 165.522)" stroke="url(#paint53_linear_600_415)" stroke-width="0.421658"/>
<rect x="0.210674" y="0.202743" width="10.5725" height="0.421658" rx="0.210829" transform="matrix(0.999264 -0.0383529 3.31395e-07 1 80.3478 165.491)" fill="white"/>
<rect x="0.210674" y="0.202743" width="10.5725" height="0.421658" rx="0.210829" transform="matrix(0.999264 -0.0383529 3.31395e-07 1 80.3478 165.491)" stroke="black" stroke-width="0.421658"/>
<rect x="0.210674" y="0.202743" width="10.5725" height="0.421658" rx="0.210829" transform="matrix(0.999264 -0.0383529 3.31395e-07 1 80.3478 165.491)" stroke="url(#paint54_linear_600_415)" stroke-width="0.421658"/>
<rect x="0.210674" y="0.202743" width="10.5725" height="0.421658" rx="0.210829" transform="matrix(0.999264 -0.0383529 3.31395e-07 1 27.9748 167.854)" fill="white"/>
<rect x="0.210674" y="0.202743" width="10.5725" height="0.421658" rx="0.210829" transform="matrix(0.999264 -0.0383529 3.31395e-07 1 27.9748 167.854)" stroke="black" stroke-width="0.421658"/>
<rect x="0.210674" y="0.202743" width="10.5725" height="0.421658" rx="0.210829" transform="matrix(0.999264 -0.0383529 3.31395e-07 1 27.9748 167.854)" stroke="url(#paint55_linear_600_415)" stroke-width="0.421658"/>
<rect x="0.210674" y="0.202743" width="10.5725" height="0.421658" rx="0.210829" transform="matrix(0.999264 -0.0383529 3.31395e-07 1 98.4884 162.901)" fill="white"/>
<rect x="0.210674" y="0.202743" width="10.5725" height="0.421658" rx="0.210829" transform="matrix(0.999264 -0.0383529 3.31395e-07 1 98.4884 162.901)" stroke="black" stroke-width="0.421658"/>
<rect x="0.210674" y="0.202743" width="10.5725" height="0.421658" rx="0.210829" transform="matrix(0.999264 -0.0383529 3.31395e-07 1 98.4884 162.901)" stroke="url(#paint56_linear_600_415)" stroke-width="0.421658"/>
<rect x="0.210674" y="0.202743" width="10.5725" height="0.421658" rx="0.210829" transform="matrix(0.999264 -0.0383529 3.31395e-07 1 121.674 159.583)" fill="white"/>
<rect x="0.210674" y="0.202743" width="10.5725" height="0.421658" rx="0.210829" transform="matrix(0.999264 -0.0383529 3.31395e-07 1 121.674 159.583)" stroke="black" stroke-width="0.421658"/>
<rect x="0.210674" y="0.202743" width="10.5725" height="0.421658" rx="0.210829" transform="matrix(0.999264 -0.0383529 3.31395e-07 1 121.674 159.583)" stroke="url(#paint57_linear_600_415)" stroke-width="0.421658"/>
<rect x="0.210674" y="0.202743" width="10.5725" height="0.421658" rx="0.210829" transform="matrix(0.999264 -0.0383529 3.31395e-07 1 139.522 158.319)" fill="white"/>
<rect x="0.210674" y="0.202743" width="10.5725" height="0.421658" rx="0.210829" transform="matrix(0.999264 -0.0383529 3.31395e-07 1 139.522 158.319)" stroke="black" stroke-width="0.421658"/>
<rect x="0.210674" y="0.202743" width="10.5725" height="0.421658" rx="0.210829" transform="matrix(0.999264 -0.0383529 3.31395e-07 1 139.522 158.319)" stroke="url(#paint58_linear_600_415)" stroke-width="0.421658"/>
</g>
<defs>
<filter id="filter0_f_600_415" x="7.97461" y="137.521" width="184.576" height="51.6084" filterUnits="userSpaceOnUse" color-interpolation-filters="sRGB">
<feFlood flood-opacity="0" result="BackgroundImageFix"/>
<feBlend mode="normal" in="SourceGraphic" in2="BackgroundImageFix" result="shape"/>
<feGaussianBlur stdDeviation="10" result="effect1_foregroundBlur_600_415"/>
</filter>
<linearGradient id="paint0_linear_600_415" x1="101.286" y1="26.0397" x2="101.286" y2="40.978" gradientUnits="userSpaceOnUse">
<stop stop-color="#245795"/>
<stop offset="1" stop-color="#8AD3A8"/>
</linearGradient>
<linearGradient id="paint1_linear_600_415" x1="88.2369" y1="33.9776" x2="84.6111" y2="75.7648" gradientUnits="userSpaceOnUse">
<stop stop-color="#245795"/>
<stop offset="1" stop-color="#8AD3A8"/>
</linearGradient>
<linearGradient id="paint2_linear_600_415" x1="92.3126" y1="33.6579" x2="92.3126" y2="75.1499" gradientUnits="userSpaceOnUse">
<stop stop-color="#245795"/>
<stop offset="1" stop-color="#8AD3A8"/>
</linearGradient>
<linearGradient id="paint3_linear_600_415" x1="101.222" y1="26.0397" x2="101.222" y2="40.978" gradientUnits="userSpaceOnUse">
<stop stop-color="#245795"/>
<stop offset="1" stop-color="#8AD3A8"/>
</linearGradient>
<linearGradient id="paint4_linear_600_415" x1="112.554" y1="69.4266" x2="123.222" y2="27.8393" gradientUnits="userSpaceOnUse">
<stop stop-color="#D4F2E4"/>
<stop offset="1" stop-color="#71D5A4"/>
</linearGradient>
<linearGradient id="paint5_linear_600_415" x1="114.271" y1="33.9776" x2="117.897" y2="75.7648" gradientUnits="userSpaceOnUse">
<stop stop-color="#245795"/>
<stop offset="1" stop-color="#8AD3A8"/>
</linearGradient>
<linearGradient id="paint6_linear_600_415" x1="110.195" y1="33.6579" x2="110.195" y2="75.1499" gradientUnits="userSpaceOnUse">
<stop stop-color="#245795"/>
<stop offset="1" stop-color="#8AD3A8"/>
</linearGradient>
<linearGradient id="paint7_linear_600_415" x1="72.1905" y1="47.5797" x2="72.1905" y2="62.518" gradientUnits="userSpaceOnUse">
<stop stop-color="#245795"/>
<stop offset="1" stop-color="#8AD3A8"/>
</linearGradient>
<linearGradient id="paint8_linear_600_415" x1="59.1412" y1="55.5177" x2="55.5154" y2="97.3049" gradientUnits="userSpaceOnUse">
<stop stop-color="#245795"/>
<stop offset="1" stop-color="#8AD3A8"/>
</linearGradient>
<linearGradient id="paint9_linear_600_415" x1="72.1259" y1="47.5797" x2="72.1259" y2="62.518" gradientUnits="userSpaceOnUse">
<stop stop-color="#245795"/>
<stop offset="1" stop-color="#8AD3A8"/>
</linearGradient>
<linearGradient id="paint10_linear_600_415" x1="83.4579" y1="90.9666" x2="94.1268" y2="49.3793" gradientUnits="userSpaceOnUse">
<stop stop-color="#D4F2E4"/>
<stop offset="1" stop-color="#71D5A4"/>
</linearGradient>
<linearGradient id="paint11_linear_600_415" x1="81.0995" y1="55.1979" x2="81.0995" y2="96.69" gradientUnits="userSpaceOnUse">
<stop stop-color="#245795"/>
<stop offset="1" stop-color="#8AD3A8"/>
</linearGradient>
<linearGradient id="paint12_linear_600_415" x1="129.606" y1="47.5797" x2="129.606" y2="62.518" gradientUnits="userSpaceOnUse">
<stop stop-color="#245795"/>
<stop offset="1" stop-color="#8AD3A8"/>
</linearGradient>
<linearGradient id="paint13_linear_600_415" x1="116.557" y1="55.5177" x2="112.931" y2="97.3049" gradientUnits="userSpaceOnUse">
<stop stop-color="#245795"/>
<stop offset="1" stop-color="#8AD3A8"/>
</linearGradient>
<linearGradient id="paint14_linear_600_415" x1="129.542" y1="47.5797" x2="129.542" y2="62.518" gradientUnits="userSpaceOnUse">
<stop stop-color="#245795"/>
<stop offset="1" stop-color="#8AD3A8"/>
</linearGradient>
<linearGradient id="paint15_linear_600_415" x1="140.874" y1="90.9666" x2="151.543" y2="49.3793" gradientUnits="userSpaceOnUse">
<stop stop-color="#D4F2E4"/>
<stop offset="1" stop-color="#71D5A4"/>
</linearGradient>
<linearGradient id="paint16_linear_600_415" x1="138.516" y1="55.1979" x2="138.516" y2="96.69" gradientUnits="userSpaceOnUse">
<stop stop-color="#245795"/>
<stop offset="1" stop-color="#8AD3A8"/>
</linearGradient>
<linearGradient id="paint17_linear_600_415" x1="101.286" y1="69.1188" x2="101.286" y2="84.0571" gradientUnits="userSpaceOnUse">
<stop stop-color="#245795"/>
<stop offset="1" stop-color="#8AD3A8"/>
</linearGradient>
<linearGradient id="paint18_linear_600_415" x1="88.2369" y1="77.0567" x2="84.6111" y2="118.844" gradientUnits="userSpaceOnUse">
<stop stop-color="#245795"/>
<stop offset="1" stop-color="#8AD3A8"/>
</linearGradient>
<linearGradient id="paint19_linear_600_415" x1="101.222" y1="69.1188" x2="101.222" y2="84.0571" gradientUnits="userSpaceOnUse">
<stop stop-color="#245795"/>
<stop offset="1" stop-color="#8AD3A8"/>
</linearGradient>
<linearGradient id="paint20_linear_600_415" x1="112.554" y1="112.506" x2="123.222" y2="70.9184" gradientUnits="userSpaceOnUse">
<stop stop-color="#D4F2E4"/>
<stop offset="1" stop-color="#71D5A4"/>
</linearGradient>
<linearGradient id="paint21_linear_600_415" x1="114.271" y1="77.0567" x2="117.897" y2="118.844" gradientUnits="userSpaceOnUse">
<stop stop-color="#245795"/>
<stop offset="1" stop-color="#8AD3A8"/>
</linearGradient>
<linearGradient id="paint22_linear_600_415" x1="38.2999" y1="69.1188" x2="38.2999" y2="84.0571" gradientUnits="userSpaceOnUse">
<stop stop-color="#245795"/>
<stop offset="1" stop-color="#8AD3A8"/>
</linearGradient>
<linearGradient id="paint23_linear_600_415" x1="25.2506" y1="77.0567" x2="21.6247" y2="118.844" gradientUnits="userSpaceOnUse">
<stop stop-color="#245795"/>
<stop offset="1" stop-color="#8AD3A8"/>
</linearGradient>
<linearGradient id="paint24_linear_600_415" x1="38.2333" y1="69.1188" x2="38.2333" y2="84.0571" gradientUnits="userSpaceOnUse">
<stop stop-color="#245795"/>
<stop offset="1" stop-color="#8AD3A8"/>
</linearGradient>
<linearGradient id="paint25_linear_600_415" x1="49.5653" y1="112.506" x2="60.2342" y2="70.9184" gradientUnits="userSpaceOnUse">
<stop stop-color="#D4F2E4"/>
<stop offset="1" stop-color="#71D5A4"/>
</linearGradient>
<linearGradient id="paint26_linear_600_415" x1="51.2826" y1="77.0567" x2="54.9085" y2="118.844" gradientUnits="userSpaceOnUse">
<stop stop-color="#245795"/>
<stop offset="1" stop-color="#8AD3A8"/>
</linearGradient>
<linearGradient id="paint27_linear_600_415" x1="163.146" y1="69.1188" x2="163.146" y2="84.0571" gradientUnits="userSpaceOnUse">
<stop stop-color="#245795"/>
<stop offset="1" stop-color="#8AD3A8"/>
</linearGradient>
<linearGradient id="paint28_linear_600_415" x1="150.096" y1="77.0567" x2="146.47" y2="118.844" gradientUnits="userSpaceOnUse">
<stop stop-color="#245795"/>
<stop offset="1" stop-color="#8AD3A8"/>
</linearGradient>
<linearGradient id="paint29_linear_600_415" x1="163.079" y1="69.1188" x2="163.079" y2="84.0571" gradientUnits="userSpaceOnUse">
<stop stop-color="#245795"/>
<stop offset="1" stop-color="#8AD3A8"/>
</linearGradient>
<linearGradient id="paint30_linear_600_415" x1="174.411" y1="112.506" x2="185.08" y2="70.9184" gradientUnits="userSpaceOnUse">
<stop stop-color="#D4F2E4"/>
<stop offset="1" stop-color="#71D5A4"/>
</linearGradient>
<linearGradient id="paint31_linear_600_415" x1="176.128" y1="77.0567" x2="179.754" y2="118.844" gradientUnits="userSpaceOnUse">
<stop stop-color="#245795"/>
<stop offset="1" stop-color="#8AD3A8"/>
</linearGradient>
<linearGradient id="paint32_linear_600_415" x1="72.1905" y1="91.5885" x2="72.1905" y2="106.527" gradientUnits="userSpaceOnUse">
<stop stop-color="#245795"/>
<stop offset="1" stop-color="#8AD3A8"/>
</linearGradient>
<linearGradient id="paint33_linear_600_415" x1="59.1412" y1="99.5265" x2="55.5154" y2="141.314" gradientUnits="userSpaceOnUse">
<stop stop-color="#245795"/>
<stop offset="1" stop-color="#8AD3A8"/>
</linearGradient>
<linearGradient id="paint34_linear_600_415" x1="72.1259" y1="91.5885" x2="72.1259" y2="106.527" gradientUnits="userSpaceOnUse">
<stop stop-color="#245795"/>
<stop offset="1" stop-color="#8AD3A8"/>
</linearGradient>
<linearGradient id="paint35_linear_600_415" x1="83.4579" y1="134.975" x2="94.1268" y2="93.3881" gradientUnits="userSpaceOnUse">
<stop stop-color="#D4F2E4"/>
<stop offset="1" stop-color="#71D5A4"/>
</linearGradient>
<linearGradient id="paint36_linear_600_415" x1="85.1752" y1="99.5265" x2="88.801" y2="141.314" gradientUnits="userSpaceOnUse">
<stop stop-color="#245795"/>
<stop offset="1" stop-color="#8AD3A8"/>
</linearGradient>
<linearGradient id="paint37_linear_600_415" x1="129.606" y1="91.5885" x2="129.606" y2="106.527" gradientUnits="userSpaceOnUse">
<stop stop-color="#245795"/>
<stop offset="1" stop-color="#8AD3A8"/>
</linearGradient>
<linearGradient id="paint38_linear_600_415" x1="116.557" y1="99.5265" x2="112.931" y2="141.314" gradientUnits="userSpaceOnUse">
<stop stop-color="#245795"/>
<stop offset="1" stop-color="#8AD3A8"/>
</linearGradient>
<linearGradient id="paint39_linear_600_415" x1="129.542" y1="91.5885" x2="129.542" y2="106.527" gradientUnits="userSpaceOnUse">
<stop stop-color="#245795"/>
<stop offset="1" stop-color="#8AD3A8"/>
</linearGradient>
<linearGradient id="paint40_linear_600_415" x1="140.874" y1="134.975" x2="151.543" y2="93.3881" gradientUnits="userSpaceOnUse">
<stop stop-color="#D4F2E4"/>
<stop offset="1" stop-color="#71D5A4"/>
</linearGradient>
<linearGradient id="paint41_linear_600_415" x1="142.591" y1="99.5265" x2="146.217" y2="141.314" gradientUnits="userSpaceOnUse">
<stop stop-color="#245795"/>
<stop offset="1" stop-color="#8AD3A8"/>
</linearGradient>
<linearGradient id="paint42_linear_600_415" x1="101.286" y1="113.14" x2="101.286" y2="128.079" gradientUnits="userSpaceOnUse">
<stop stop-color="#245795"/>
<stop offset="1" stop-color="#8AD3A8"/>
</linearGradient>
<linearGradient id="paint43_linear_600_415" x1="101.222" y1="113.14" x2="101.222" y2="128.079" gradientUnits="userSpaceOnUse">
<stop stop-color="#245795"/>
<stop offset="1" stop-color="#8AD3A8"/>
</linearGradient>
<linearGradient id="paint44_linear_600_415" x1="112.554" y1="156.527" x2="123.222" y2="114.94" gradientUnits="userSpaceOnUse">
<stop stop-color="#D4F2E4"/>
<stop offset="1" stop-color="#71D5A4"/>
</linearGradient>
<linearGradient id="paint45_linear_600_415" x1="211.388" y1="2.14269" x2="242.974" y2="63.4928" gradientUnits="userSpaceOnUse">
<stop stop-color="#8AD3A8" stop-opacity="0"/>
<stop offset="0.985172" stop-color="#245795"/>
</linearGradient>
<linearGradient id="paint46_linear_600_415" x1="241.693" y1="119.614" x2="214.599" y2="183.076" gradientUnits="userSpaceOnUse">
<stop stop-color="#8AD3A8" stop-opacity="0"/>
<stop offset="0.985172" stop-color="#245795"/>
</linearGradient>
<linearGradient id="paint47_linear_600_415" x1="168.111" y1="-33.0022" x2="220.809" y2="11.5445" gradientUnits="userSpaceOnUse">
<stop stop-color="#8AD3A8" stop-opacity="0"/>
<stop offset="0.985172" stop-color="#245795"/>
</linearGradient>
<linearGradient id="paint48_linear_600_415" x1="81.9884" y1="164.217" x2="82.0928" y2="168.302" gradientUnits="userSpaceOnUse">
<stop stop-color="#8AD3A8"/>
<stop offset="0.985172" stop-color="#245795"/>
</linearGradient>
<linearGradient id="paint49_linear_600_415" x1="103.635" y1="163.576" x2="103.713" y2="166.394" gradientUnits="userSpaceOnUse">
<stop stop-color="#8AD3A8"/>
<stop offset="0.985172" stop-color="#245795"/>
</linearGradient>
<linearGradient id="paint50_linear_600_415" x1="116.779" y1="161.796" x2="116.837" y2="166.986" gradientUnits="userSpaceOnUse">
<stop stop-color="#8AD3A8"/>
<stop offset="0.985172" stop-color="#245795"/>
</linearGradient>
<linearGradient id="paint51_linear_600_415" x1="142.864" y1="159.851" x2="142.946" y2="163.124" gradientUnits="userSpaceOnUse">
<stop stop-color="#8AD3A8"/>
<stop offset="0.985172" stop-color="#245795"/>
</linearGradient>
<linearGradient id="paint52_linear_600_415" x1="158.463" y1="157.158" x2="158.53" y2="162.1" gradientUnits="userSpaceOnUse">
<stop stop-color="#8AD3A8"/>
<stop offset="0.985172" stop-color="#245795"/>
</linearGradient>
<linearGradient id="paint53_linear_600_415" x1="19.997" y1="-0.428769" x2="19.9502" y2="2.07013" gradientUnits="userSpaceOnUse">
<stop stop-color="#8AD3A8"/>
<stop offset="0.985172" stop-color="#245795"/>
</linearGradient>
<linearGradient id="paint54_linear_600_415" x1="19.997" y1="-0.428769" x2="19.9502" y2="2.07013" gradientUnits="userSpaceOnUse">
<stop stop-color="#8AD3A8"/>
<stop offset="0.985172" stop-color="#245795"/>
</linearGradient>
<linearGradient id="paint55_linear_600_415" x1="19.997" y1="-0.428769" x2="19.9502" y2="2.07013" gradientUnits="userSpaceOnUse">
<stop stop-color="#8AD3A8"/>
<stop offset="0.985172" stop-color="#245795"/>
</linearGradient>
<linearGradient id="paint56_linear_600_415" x1="19.997" y1="-0.428769" x2="19.9502" y2="2.07013" gradientUnits="userSpaceOnUse">
<stop stop-color="#8AD3A8"/>
<stop offset="0.985172" stop-color="#245795"/>
</linearGradient>
<linearGradient id="paint57_linear_600_415" x1="19.997" y1="-0.428769" x2="19.9502" y2="2.07013" gradientUnits="userSpaceOnUse">
<stop stop-color="#8AD3A8"/>
<stop offset="0.985172" stop-color="#245795"/>
</linearGradient>
<linearGradient id="paint58_linear_600_415" x1="19.997" y1="-0.428769" x2="19.9502" y2="2.07013" gradientUnits="userSpaceOnUse">
<stop stop-color="#8AD3A8"/>
<stop offset="0.985172" stop-color="#245795"/>
</linearGradient>
</defs>
</svg>
