<svg width="219" height="191" viewBox="0 0 219 191" fill="none" xmlns="http://www.w3.org/2000/svg">
<path d="M178.869 55.4424V162.679M205.678 65.1912H169.12C163.303 65.1912 157.724 67.5022 153.61 71.6158C149.497 75.7294 147.186 81.3086 147.186 87.1261C147.186 92.9435 149.497 98.5227 153.61 102.636C157.724 106.75 163.303 109.061 169.12 109.061M152.06 152.931H188.618C191.499 152.931 194.351 152.363 197.012 151.261C199.673 150.159 202.091 148.543 204.128 146.506C206.165 144.469 207.781 142.051 208.883 139.39C209.986 136.729 210.553 133.876 210.553 130.996C210.553 128.115 209.986 125.263 208.883 122.602C207.781 119.94 206.165 117.522 204.128 115.485C202.091 113.449 199.673 111.833 197.012 110.731C194.351 109.628 191.499 109.061 188.618 109.061H169.12" stroke="#E6EFF1" stroke-width="15" stroke-linecap="round" stroke-linejoin="round"/>
<path opacity="0.9" d="M107.346 123.61C98.6536 118.594 84.5181 118.62 75.7655 123.67C71.4403 126.169 69.2479 129.428 69.1882 132.687V87.2433C69.1541 83.8993 71.338 80.5467 75.7655 77.9874C84.5095 72.9372 98.6536 72.9116 107.346 77.9277C111.637 80.4016 113.787 83.6433 113.83 86.9021H113.855V132.721H113.838C113.864 129.42 111.697 126.118 107.346 123.61Z" fill="url(#paint0_linear_600_11319)"/>
<path d="M113.855 87.0214L152.371 86.9531V132.695H113.855V87.0214Z" fill="url(#paint1_linear_600_11319)"/>
<path d="M113.855 87.0214L152.371 86.9531V132.695H113.855V87.0214Z" fill="url(#paint2_linear_600_11319)"/>
<path d="M48.3223 111.991V157.733C36.473 150.891 30.5782 142.616 30.6294 132.917V87.1748C30.5697 96.8743 36.473 105.149 48.3223 111.991Z" fill="url(#paint3_linear_600_11319)"/>
<path d="M48.3223 111.991V157.733C36.473 150.891 30.5782 142.616 30.6294 132.917V87.1748C30.5697 96.8743 36.473 105.149 48.3223 111.991Z" fill="url(#paint4_linear_600_11319)"/>
<path d="M48.3223 111.991V157.733C36.473 150.891 30.5782 142.616 30.6294 132.917V87.1748C30.5697 96.8743 36.473 105.149 48.3223 111.991Z" fill="url(#paint5_linear_600_11319)"/>
<path d="M91.6913 51.9172C125.311 51.8574 152.473 67.5456 152.371 86.9531L113.837 87.0214C113.854 83.7285 111.687 80.4356 107.345 77.9276C98.6524 72.9115 84.5168 72.937 75.7643 77.9873C71.3639 80.5287 69.165 83.8566 69.173 87.175C69.1809 90.4507 71.3393 93.7172 75.6534 96.2091L48.3121 111.991C36.4629 105.149 30.5681 96.8745 30.6193 87.175C30.7302 67.7589 58.0714 51.9769 91.6913 51.9172Z" fill="#D4F2E4"/>
<path d="M91.6913 51.9172C125.311 51.8574 152.473 67.5456 152.371 86.9531L113.837 87.0214C113.854 83.7285 111.687 80.4356 107.345 77.9276C98.6524 72.9115 84.5168 72.937 75.7643 77.9873C71.3639 80.5287 69.165 83.8566 69.173 87.175C69.1809 90.4507 71.3393 93.7172 75.6534 96.2091L48.3121 111.991C36.4629 105.149 30.5681 96.8745 30.6193 87.175C30.7302 67.7589 58.0714 51.9769 91.6913 51.9172Z" fill="url(#paint6_linear_600_11319)" fill-opacity="0.15"/>
<path d="M113.934 77.5527V77.7327C113.934 77.6813 113.925 77.6127 113.934 77.5527Z" fill="url(#paint7_linear_600_11319)"/>
<path d="M68.4114 77.7405V77.5605H68.4199C68.4199 77.612 68.4114 77.6805 68.4114 77.7405Z" fill="url(#paint8_linear_600_11319)"/>
<path opacity="0.4" d="M68.7363 0V102.569C68.7363 114.817 78.6653 124.746 90.9133 124.746C103.161 124.746 113.09 114.817 113.09 102.569V0H68.7363Z" fill="url(#paint9_linear_600_11319)"/>
<path d="M75.791 96.1318L75.6716 96.2171V141.874L48.3218 157.733V111.991L75.791 96.1318Z" fill="url(#paint10_linear_600_11319)"/>
<path d="M75.791 96.1318L75.6716 96.2171V141.874L48.3218 157.733V111.991L75.791 96.1318Z" fill="url(#paint11_linear_600_11319)"/>
<path d="M75.791 96.1318L75.6716 96.2171V141.874L48.3218 157.733V111.991L75.791 96.1318Z" fill="url(#paint12_linear_600_11319)"/>
<path d="M91.3096 144.069L91.4291 129.445C91.412 129.445 91.4035 129.445 91.3864 129.445L91.5059 129.309L91.3182 167.953C74.5125 167.987 60.1808 164.575 48.3315 157.733L48.3315 133.849C60.1722 140.691 74.4954 144.095 91.3096 144.069Z" fill="url(#paint13_linear_600_11319)"/>
<path d="M91.3096 144.069L91.4291 129.445C91.412 129.445 91.4035 129.445 91.3864 129.445L91.5059 129.309L91.3182 167.953C74.5125 167.987 60.1808 164.575 48.3315 157.733L48.3315 133.849C60.1722 140.691 74.4954 144.095 91.3096 144.069Z" fill="url(#paint14_linear_600_11319)"/>
<path d="M75.3204 118.246C75.4398 118.314 75.5422 118.391 75.6616 118.468C80.0038 120.976 85.7109 122.221 91.418 122.213L91.2985 144.615C74.4929 144.649 60.1611 140.682 48.3118 133.84L75.3204 118.246Z" fill="#D4F2E4"/>
<path d="M75.3204 118.246C75.4398 118.314 75.5422 118.391 75.6616 118.468C80.0038 120.976 85.7109 122.221 91.418 122.213L91.2985 144.615C74.4929 144.649 60.1611 140.682 48.3118 133.84L75.3204 118.246Z" fill="url(#paint15_linear_600_11319)" fill-opacity="0.35"/>
<path d="M152.371 122.475L152.371 132.686C152.269 152.094 124.928 167.884 91.3076 167.944V138.487C124.928 138.428 152.269 141.891 152.371 122.475Z" fill="url(#paint16_linear_600_11319)"/>
<path d="M107.252 132.07C111.722 129.493 113.906 126.098 113.829 122.728L152.371 122.66C152.269 142.068 124.928 157.858 91.3076 157.918L91.4271 135.874C97.1427 135.866 102.867 134.603 107.252 132.07Z" fill="#F0FAF6"/>
<path d="M48.315 111.991L75.6562 96.2089C71.3422 93.7171 69.1838 90.4505 69.1759 87.1748H30.6222C30.571 96.8743 36.4658 105.149 48.315 111.991Z" fill="#D4F2E4"/>
<path d="M48.315 111.991L75.6562 96.2089C71.3422 93.7171 69.1838 90.4505 69.1759 87.1748H30.6222C30.571 96.8743 36.4658 105.149 48.315 111.991Z" fill="url(#paint17_linear_600_11319)" fill-opacity="0.15"/>
<path d="M112.452 67.9471L69.2051 77.3633L70.5339 83.4662L70.542 83.4644C70.5543 83.5212 70.5586 83.5797 70.5709 83.6364C72.085 90.5903 82.9903 94.1242 94.9368 91.5231C106.883 88.922 115.332 81.1741 113.818 74.2202C113.806 74.1635 113.785 74.1085 113.773 74.0518L113.781 74.05L112.452 67.9471Z" fill="#CCB4A7"/>
<path d="M112.452 67.9471L69.2051 77.3633L70.5339 83.4662L70.542 83.4644C70.5543 83.5212 70.5586 83.5797 70.5709 83.6364C72.085 90.5903 82.9903 94.1242 94.9368 91.5231C106.883 88.922 115.332 81.1741 113.818 74.2202C113.806 74.1635 113.785 74.1085 113.773 74.0518L113.781 74.05L112.452 67.9471Z" fill="url(#paint18_linear_600_11319)"/>
<path d="M93.5905 85.34C105.533 82.7398 113.986 74.993 112.472 68.037C110.957 61.0811 100.048 57.5501 88.106 60.1503C76.1636 62.7505 67.7102 70.4973 69.2247 77.4532C70.7392 84.4092 81.6482 87.9402 93.5905 85.34Z" fill="#F0FAF6"/>
<path d="M93.5905 85.34C105.533 82.7398 113.986 74.993 112.472 68.037C110.957 61.0811 100.048 57.5501 88.106 60.1503C76.1636 62.7505 67.7102 70.4973 69.2247 77.4532C70.7392 84.4092 81.6482 87.9402 93.5905 85.34Z" fill="url(#paint19_linear_600_11319)" fill-opacity="0.5"/>
<path d="M93.5188 84.9996C81.8317 87.5442 71.1559 84.2065 69.2905 77.5498C69.3142 77.6974 69.3135 77.8504 69.3453 77.9963C70.8594 84.9502 81.7647 88.4841 93.7111 85.883C105.649 83.2837 114.107 75.534 112.592 68.5801C112.561 68.4342 112.497 68.2953 112.457 68.1512C113.528 74.9809 105.206 82.4549 93.5188 84.9996Z" fill="#C1A595"/>
<path d="M93.5188 84.9996C81.8317 87.5442 71.1559 84.2065 69.2905 77.5498C69.3142 77.6974 69.3135 77.8504 69.3453 77.9963C70.8594 84.9502 81.7647 88.4841 93.7111 85.883C105.649 83.2837 114.107 75.534 112.592 68.5801C112.561 68.4342 112.497 68.2953 112.457 68.1512C113.528 74.9809 105.206 82.4549 93.5188 84.9996Z" fill="url(#paint20_linear_600_11319)"/>
<path d="M89.0184 64.3398C97.65 62.4604 105.544 64.8757 107.078 69.737C107.057 69.5633 107.046 69.3959 107.009 69.2257C105.878 64.0306 97.723 61.3919 88.7996 63.3348C79.8762 65.2777 73.5563 71.068 74.6874 76.2632C74.7245 76.4334 74.7859 76.5983 74.8374 76.7568C74.2113 71.6979 80.3868 66.2191 89.0184 64.3398Z" fill="#D3BAAD"/>
<path d="M89.0184 64.3398C97.65 62.4604 105.544 64.8757 107.078 69.737C107.057 69.5633 107.046 69.3959 107.009 69.2257C105.878 64.0306 97.723 61.3919 88.7996 63.3348C79.8762 65.2777 73.5563 71.068 74.6874 76.2632C74.7245 76.4334 74.7859 76.5983 74.8374 76.7568C74.2113 71.6979 80.3868 66.2191 89.0184 64.3398Z" fill="url(#paint21_linear_600_11319)"/>
<path d="M91.4545 69.5148C91.0733 69.6742 90.673 69.8632 90.2681 70.0702C89.9147 70.2405 89.5441 70.4485 89.1526 70.6781C88.7612 70.9076 88.3894 71.1499 88.0375 71.4048L89.4984 71.8762C89.6174 71.7993 89.7429 71.7126 89.8863 71.6304C90.0297 71.5483 90.1794 71.4562 90.3292 71.3642C91.0102 70.9443 91.6596 70.5737 92.2692 70.2542C92.8787 69.9347 93.47 69.6871 94.0313 69.497C94.5944 69.315 95.1392 69.2049 95.6791 69.1892C96.2172 69.1654 96.7603 69.2424 97.2984 69.4138C97.9364 69.6145 98.3706 69.8935 98.6058 70.2328C98.8409 70.5721 98.9239 70.953 98.8528 71.3674C98.7818 71.7819 98.5973 72.221 98.2894 72.6786C97.9815 73.1361 97.5972 73.5933 97.1445 74.0484L99.1059 74.674L97.8369 75.8247L95.8396 75.1899C95.0451 75.8298 94.177 76.4433 93.2253 77.024C92.2818 77.6029 91.3466 78.1037 90.4245 78.5082L88.9832 76.4111C89.4564 76.2062 89.9342 75.9833 90.4247 75.7407C90.8394 75.5401 91.302 75.2865 91.7999 74.9999C92.2977 74.7132 92.7642 74.3994 93.2029 74.0747L91.7716 73.6223C91.3548 73.8913 90.9281 74.154 90.4771 74.422C89.8087 74.8222 89.1928 75.1515 88.6294 75.41C88.0678 75.6766 87.5487 75.866 87.0596 75.998C86.5705 76.13 86.1096 76.1964 85.6751 76.1891C85.2406 76.1818 84.8099 76.1143 84.3912 75.9848C83.8072 75.7978 83.3881 75.5495 83.124 75.2335C82.8681 74.9157 82.7383 74.5535 82.7364 74.1549C82.7426 73.7546 82.8605 73.3214 83.1081 72.86C83.3557 72.3987 83.696 71.9341 84.1371 71.4645L82.4947 70.9393L83.7637 69.7886L85.424 70.3184C85.8158 70.0124 86.221 69.7289 86.6378 69.4599C87.0546 69.1909 87.4651 68.9318 87.8808 68.6969C88.2966 68.4621 88.6979 68.2389 89.0866 68.0354C89.4752 67.8319 89.8349 67.6518 90.164 67.4867L91.4545 69.5148ZM87.0801 72.895C87.2436 72.9443 87.429 72.9379 87.6362 72.8758C87.8434 72.8137 88.0985 72.6988 88.3934 72.5327L87.1616 72.1388C86.791 72.542 86.7612 72.7947 87.0801 72.895ZM94.2702 72.5435C94.1147 72.4924 93.923 72.5087 93.6852 72.586C93.4473 72.6632 93.1778 72.7898 92.873 72.9496L94.0769 73.3326C94.3056 73.0961 94.4359 72.9149 94.4517 72.7926C94.4757 72.6685 94.4157 72.5882 94.2702 72.5435Z" fill="#C1A595"/>
<path d="M91.4545 69.5148C91.0733 69.6742 90.673 69.8632 90.2681 70.0702C89.9147 70.2405 89.5441 70.4485 89.1526 70.6781C88.7612 70.9076 88.3894 71.1499 88.0375 71.4048L89.4984 71.8762C89.6174 71.7993 89.7429 71.7126 89.8863 71.6304C90.0297 71.5483 90.1794 71.4562 90.3292 71.3642C91.0102 70.9443 91.6596 70.5737 92.2692 70.2542C92.8787 69.9347 93.47 69.6871 94.0313 69.497C94.5944 69.315 95.1392 69.2049 95.6791 69.1892C96.2172 69.1654 96.7603 69.2424 97.2984 69.4138C97.9364 69.6145 98.3706 69.8935 98.6058 70.2328C98.8409 70.5721 98.9239 70.953 98.8528 71.3674C98.7818 71.7819 98.5973 72.221 98.2894 72.6786C97.9815 73.1361 97.5972 73.5933 97.1445 74.0484L99.1059 74.674L97.8369 75.8247L95.8396 75.1899C95.0451 75.8298 94.177 76.4433 93.2253 77.024C92.2818 77.6029 91.3466 78.1037 90.4245 78.5082L88.9832 76.4111C89.4564 76.2062 89.9342 75.9833 90.4247 75.7407C90.8394 75.5401 91.302 75.2865 91.7999 74.9999C92.2977 74.7132 92.7642 74.3994 93.2029 74.0747L91.7716 73.6223C91.3548 73.8913 90.9281 74.154 90.4771 74.422C89.8087 74.8222 89.1928 75.1515 88.6294 75.41C88.0678 75.6766 87.5487 75.866 87.0596 75.998C86.5705 76.13 86.1096 76.1964 85.6751 76.1891C85.2406 76.1818 84.8099 76.1143 84.3912 75.9848C83.8072 75.7978 83.3881 75.5495 83.124 75.2335C82.8681 74.9157 82.7383 74.5535 82.7364 74.1549C82.7426 73.7546 82.8605 73.3214 83.1081 72.86C83.3557 72.3987 83.696 71.9341 84.1371 71.4645L82.4947 70.9393L83.7637 69.7886L85.424 70.3184C85.8158 70.0124 86.221 69.7289 86.6378 69.4599C87.0546 69.1909 87.4651 68.9318 87.8808 68.6969C88.2966 68.4621 88.6979 68.2389 89.0866 68.0354C89.4752 67.8319 89.8349 67.6518 90.164 67.4867L91.4545 69.5148ZM87.0801 72.895C87.2436 72.9443 87.429 72.9379 87.6362 72.8758C87.8434 72.8137 88.0985 72.6988 88.3934 72.5327L87.1616 72.1388C86.791 72.542 86.7612 72.7947 87.0801 72.895ZM94.2702 72.5435C94.1147 72.4924 93.923 72.5087 93.6852 72.586C93.4473 72.6632 93.1778 72.7898 92.873 72.9496L94.0769 73.3326C94.3056 73.0961 94.4359 72.9149 94.4517 72.7926C94.4757 72.6685 94.4157 72.5882 94.2702 72.5435Z" fill="url(#paint22_linear_600_11319)"/>
<path d="M91.3354 68.9806C90.9541 69.14 90.5538 69.329 90.149 69.536C89.7956 69.7063 89.4249 69.9144 89.0335 70.1439C88.642 70.3735 88.2703 70.6157 87.9183 70.8706L89.3792 71.342C89.4983 71.2651 89.6237 71.1784 89.7671 71.0962C89.9105 71.0141 90.0603 70.922 90.21 70.83C90.8911 70.4101 91.5405 70.0395 92.15 69.72C92.7596 69.4005 93.3508 69.153 93.9122 68.9628C94.4752 68.7808 95.02 68.6707 95.5599 68.655C96.098 68.6312 96.6411 68.7082 97.1793 68.8797C97.8172 69.0803 98.2515 69.3593 98.4866 69.6986C98.7218 70.0379 98.8047 70.4188 98.7337 70.8333C98.6626 71.2477 98.4781 71.6869 98.1703 72.1444C97.8624 72.6019 97.4781 73.0591 97.0254 73.5142L98.9867 74.1398L97.7177 75.2905L95.7204 74.6557C94.926 75.2956 94.0578 75.9091 93.1062 76.4898C92.1626 77.0688 91.2275 77.5695 90.3054 77.974L88.864 75.8769C89.3373 75.672 89.8151 75.4491 90.3055 75.2065C90.7202 75.0059 91.1829 74.7523 91.6807 74.4657C92.1786 74.179 92.6451 73.8652 93.0837 73.5405L91.6524 73.0881C91.2356 73.3572 90.809 73.6198 90.358 73.8878C89.6896 74.288 89.0737 74.6173 88.5103 74.8758C87.9486 75.1424 87.4296 75.3319 86.9405 75.4638C86.4514 75.5958 85.9905 75.6622 85.5559 75.6549C85.1214 75.6477 84.6907 75.5801 84.272 75.4506C83.688 75.2636 83.269 75.0153 83.0049 74.6993C82.749 74.3815 82.6191 74.0193 82.6173 73.6207C82.6235 73.2204 82.7414 72.7872 82.989 72.3259C83.2366 71.8645 83.5769 71.3999 84.0179 70.9303L82.3755 70.4051L83.6445 69.2544L85.3049 69.7842C85.6967 69.4782 86.1018 69.1948 86.5186 68.9257C86.9355 68.6567 87.3459 68.3976 87.7617 68.1627C88.1775 67.9279 88.5788 67.7047 88.9674 67.5012C89.3561 67.2978 89.7158 67.1176 90.0449 66.9525L91.3354 68.9806ZM86.961 72.3609C87.1245 72.4101 87.3099 72.4037 87.5171 72.3417C87.7243 72.2796 87.9794 72.1646 88.2743 71.9985L87.0425 71.6046C86.6719 72.0078 86.642 72.2605 86.961 72.3609ZM94.151 72.0093C93.9956 71.9583 93.8039 71.9745 93.566 72.0518C93.3282 72.129 93.0586 72.2556 92.7539 72.4154L93.9578 72.7984C94.1864 72.5619 94.3168 72.3807 94.3326 72.2584C94.3565 72.1343 94.2948 72.0459 94.151 72.0093Z" fill="url(#paint23_linear_600_11319)"/>
<path d="M91.3354 68.9806C90.9541 69.14 90.5538 69.329 90.149 69.536C89.7956 69.7063 89.4249 69.9144 89.0335 70.1439C88.642 70.3735 88.2703 70.6157 87.9183 70.8706L89.3792 71.342C89.4983 71.2651 89.6237 71.1784 89.7671 71.0962C89.9105 71.0141 90.0603 70.922 90.21 70.83C90.8911 70.4101 91.5405 70.0395 92.15 69.72C92.7596 69.4005 93.3508 69.153 93.9122 68.9628C94.4752 68.7808 95.02 68.6707 95.5599 68.655C96.098 68.6312 96.6411 68.7082 97.1793 68.8797C97.8172 69.0803 98.2515 69.3593 98.4866 69.6986C98.7218 70.0379 98.8047 70.4188 98.7337 70.8333C98.6626 71.2477 98.4781 71.6869 98.1703 72.1444C97.8624 72.6019 97.4781 73.0591 97.0254 73.5142L98.9867 74.1398L97.7177 75.2905L95.7204 74.6557C94.926 75.2956 94.0578 75.9091 93.1062 76.4898C92.1626 77.0688 91.2275 77.5695 90.3054 77.974L88.864 75.8769C89.3373 75.672 89.8151 75.4491 90.3055 75.2065C90.7202 75.0059 91.1829 74.7523 91.6807 74.4657C92.1786 74.179 92.6451 73.8652 93.0837 73.5405L91.6524 73.0881C91.2356 73.3572 90.809 73.6198 90.358 73.8878C89.6896 74.288 89.0737 74.6173 88.5103 74.8758C87.9486 75.1424 87.4296 75.3319 86.9405 75.4638C86.4514 75.5958 85.9905 75.6622 85.5559 75.6549C85.1214 75.6477 84.6907 75.5801 84.272 75.4506C83.688 75.2636 83.269 75.0153 83.0049 74.6993C82.749 74.3815 82.6191 74.0193 82.6173 73.6207C82.6235 73.2204 82.7414 72.7872 82.989 72.3259C83.2366 71.8645 83.5769 71.3999 84.0179 70.9303L82.3755 70.4051L83.6445 69.2544L85.3049 69.7842C85.6967 69.4782 86.1018 69.1948 86.5186 68.9257C86.9355 68.6567 87.3459 68.3976 87.7617 68.1627C88.1775 67.9279 88.5788 67.7047 88.9674 67.5012C89.3561 67.2978 89.7158 67.1176 90.0449 66.9525L91.3354 68.9806ZM86.961 72.3609C87.1245 72.4101 87.3099 72.4037 87.5171 72.3417C87.7243 72.2796 87.9794 72.1646 88.2743 71.9985L87.0425 71.6046C86.6719 72.0078 86.642 72.2605 86.961 72.3609ZM94.151 72.0093C93.9956 71.9583 93.8039 71.9745 93.566 72.0518C93.3282 72.129 93.0586 72.2556 92.7539 72.4154L93.9578 72.7984C94.1864 72.5619 94.3168 72.3807 94.3326 72.2584C94.3565 72.1343 94.2948 72.0459 94.151 72.0093Z" fill="#F0FAF6"/>
<path d="M91.3354 68.9806C90.9541 69.14 90.5538 69.329 90.149 69.536C89.7956 69.7063 89.4249 69.9144 89.0335 70.1439C88.642 70.3735 88.2703 70.6157 87.9183 70.8706L89.3792 71.342C89.4983 71.2651 89.6237 71.1784 89.7671 71.0962C89.9105 71.0141 90.0603 70.922 90.21 70.83C90.8911 70.4101 91.5405 70.0395 92.15 69.72C92.7596 69.4005 93.3508 69.153 93.9122 68.9628C94.4752 68.7808 95.02 68.6707 95.5599 68.655C96.098 68.6312 96.6411 68.7082 97.1793 68.8797C97.8172 69.0803 98.2515 69.3593 98.4866 69.6986C98.7218 70.0379 98.8047 70.4188 98.7337 70.8333C98.6626 71.2477 98.4781 71.6869 98.1703 72.1444C97.8624 72.6019 97.4781 73.0591 97.0254 73.5142L98.9867 74.1398L97.7177 75.2905L95.7204 74.6557C94.926 75.2956 94.0578 75.9091 93.1062 76.4898C92.1626 77.0688 91.2275 77.5695 90.3054 77.974L88.864 75.8769C89.3373 75.672 89.8151 75.4491 90.3055 75.2065C90.7202 75.0059 91.1829 74.7523 91.6807 74.4657C92.1786 74.179 92.6451 73.8652 93.0837 73.5405L91.6524 73.0881C91.2356 73.3572 90.809 73.6198 90.358 73.8878C89.6896 74.288 89.0737 74.6173 88.5103 74.8758C87.9486 75.1424 87.4296 75.3319 86.9405 75.4638C86.4514 75.5958 85.9905 75.6622 85.5559 75.6549C85.1214 75.6477 84.6907 75.5801 84.272 75.4506C83.688 75.2636 83.269 75.0153 83.0049 74.6993C82.749 74.3815 82.6191 74.0193 82.6173 73.6207C82.6235 73.2204 82.7414 72.7872 82.989 72.3259C83.2366 71.8645 83.5769 71.3999 84.0179 70.9303L82.3755 70.4051L83.6445 69.2544L85.3049 69.7842C85.6967 69.4782 86.1018 69.1948 86.5186 68.9257C86.9355 68.6567 87.3459 68.3976 87.7617 68.1627C88.1775 67.9279 88.5788 67.7047 88.9674 67.5012C89.3561 67.2978 89.7158 67.1176 90.0449 66.9525L91.3354 68.9806ZM86.961 72.3609C87.1245 72.4101 87.3099 72.4037 87.5171 72.3417C87.7243 72.2796 87.9794 72.1646 88.2743 71.9985L87.0425 71.6046C86.6719 72.0078 86.642 72.2605 86.961 72.3609ZM94.151 72.0093C93.9956 71.9583 93.8039 71.9745 93.566 72.0518C93.3282 72.129 93.0586 72.2556 92.7539 72.4154L93.9578 72.7984C94.1864 72.5619 94.3168 72.3807 94.3326 72.2584C94.3565 72.1343 94.2948 72.0459 94.151 72.0093Z" fill="url(#paint24_linear_600_11319)" fill-opacity="0.5"/>
<g opacity="0.4">
<path d="M113.739 31.2103L70.9863 19.7549L69.3698 25.7879L69.3778 25.7901C69.3628 25.8462 69.3397 25.9001 69.3247 25.9562C67.4827 32.8305 75.5549 40.9702 87.3647 44.1346C99.1744 47.299 110.235 44.286 112.077 37.4116C112.092 37.3555 112.099 37.2973 112.114 37.2412L112.122 37.2434L113.739 31.2103Z" fill="#CCB4A7"/>
<path d="M113.739 31.2103L70.9863 19.7549L69.3698 25.7879L69.3778 25.7901C69.3628 25.8462 69.3397 25.9001 69.3247 25.9562C67.4827 32.8305 75.5549 40.9702 87.3647 44.1346C99.1744 47.299 110.235 44.286 112.077 37.4116C112.092 37.3555 112.099 37.2973 112.114 37.2412L112.122 37.2434L113.739 31.2103Z" fill="url(#paint25_linear_600_11319)"/>
<path d="M89.0026 38.0217C100.808 41.185 111.872 38.1751 113.715 31.2987C115.557 24.4224 107.481 16.2836 95.6749 13.1203C83.8692 9.95696 72.8052 12.967 70.9627 19.8433C69.1202 26.7196 77.1969 34.8584 89.0026 38.0217Z" fill="#F0FAF6"/>
<path d="M89.0026 38.0217C100.808 41.185 111.872 38.1751 113.715 31.2987C115.557 24.4224 107.481 16.2836 95.6749 13.1203C83.8692 9.95696 72.8052 12.967 70.9627 19.8433C69.1202 26.7196 77.1969 34.8584 89.0026 38.0217Z" fill="url(#paint26_linear_600_11319)" fill-opacity="0.5"/>
<path d="M89.0955 37.685C77.5422 34.5893 69.584 26.7292 70.9776 19.958C70.9309 20.1001 70.8602 20.2357 70.8216 20.3799C68.9796 27.2542 77.0518 35.3939 88.8615 38.5583C100.663 41.7206 111.732 38.7097 113.574 31.8353C113.612 31.6911 113.619 31.5383 113.65 31.392C111.471 37.9528 100.649 40.7807 89.0955 37.685Z" fill="#C1A595"/>
<path d="M89.0955 37.685C77.5422 34.5893 69.584 26.7292 70.9776 19.958C70.9309 20.1001 70.8602 20.2357 70.8216 20.3799C68.9796 27.2542 77.0518 35.3939 88.8615 38.5583C100.663 41.7206 111.732 38.7097 113.574 31.8353C113.612 31.6911 113.619 31.5383 113.65 31.392C111.471 37.9528 100.649 40.7807 89.0955 37.685Z" fill="url(#paint27_linear_600_11319)"/>
<path d="M94.5653 17.2625C103.098 19.5489 109.007 25.3142 108.142 30.3378C108.203 30.1738 108.27 30.02 108.315 29.8518C109.691 24.7161 103.653 18.6327 94.8315 16.269C86.0102 13.9054 77.7391 16.1545 76.363 21.2903C76.3179 21.4585 76.2969 21.6332 76.27 21.7977C78.0325 17.0146 86.0324 14.9762 94.5653 17.2625Z" fill="#D3BAAD"/>
<path d="M94.5653 17.2625C103.098 19.5489 109.007 25.3142 108.142 30.3378C108.203 30.1738 108.27 30.02 108.315 29.8518C109.691 24.7161 103.653 18.6327 94.8315 16.269C86.0102 13.9054 77.7391 16.1545 76.363 21.2903C76.3179 21.4585 76.2969 21.6332 76.27 21.7977C78.0325 17.0146 86.0324 14.9762 94.5653 17.2625Z" fill="url(#paint28_linear_600_11319)"/>
<path d="M94.3561 22.9777C93.9442 22.9446 93.5018 22.9291 93.0471 22.9275C92.655 22.9169 92.2302 22.9319 91.777 22.9565C91.3239 22.981 90.8825 23.0259 90.4529 23.0911L91.5351 24.1797C91.6762 24.166 91.8275 24.1464 91.9926 24.1391C92.1577 24.1319 92.3329 24.1187 92.5082 24.1056C93.306 24.0445 94.053 24.0128 94.7412 24.0083C95.4294 24.0038 96.0684 24.0548 96.6544 24.1431C97.2383 24.2395 97.7729 24.3913 98.2599 24.6248C98.7491 24.8504 99.1965 25.1678 99.5962 25.5668C100.071 26.0376 100.329 26.4846 100.383 26.8939C100.436 27.3033 100.335 27.6798 100.082 28.0156C99.829 28.3514 99.4637 28.6571 98.9804 28.9226C98.497 29.1881 97.9459 29.4183 97.335 29.6152L98.7913 31.0703L97.1361 31.5113L95.6519 30.0316C94.6525 30.2361 93.5998 30.3834 92.4878 30.4633C91.3838 30.5453 90.3232 30.5617 89.3182 30.4985L88.9985 27.974C89.513 28.0088 90.0398 28.0298 90.5869 28.039C91.0475 28.0507 91.5749 28.0375 92.1488 28.0109C92.7226 27.9844 93.2811 27.9193 93.8197 27.8318L92.7551 26.7737C92.2613 26.8217 91.7617 26.8596 91.238 26.891C90.4606 26.9403 89.7622 26.9507 89.143 26.9221C88.5216 26.9016 87.9735 26.8321 87.4783 26.7251C86.9831 26.6182 86.543 26.4659 86.1602 26.2603C85.7773 26.0547 85.4255 25.7973 85.1128 25.4902C84.6795 25.0563 84.4208 24.6436 84.331 24.2416C84.2492 23.8419 84.2999 23.4604 84.4809 23.1053C84.6699 22.7524 84.9733 22.4215 85.4048 22.1249C85.8364 21.8284 86.3517 21.5715 86.959 21.3563L85.7401 20.1366L87.3954 19.6957L88.6281 20.9277C89.1166 20.8353 89.6066 20.7691 90.1004 20.7211C90.5942 20.673 91.0777 20.6309 91.5549 20.6127C92.0321 20.5946 92.4911 20.5802 92.9297 20.5775C93.3684 20.5748 93.7707 20.5796 94.1389 20.5838L94.3561 22.9777ZM88.9189 23.9768C89.0416 24.0955 89.2093 24.1748 89.4219 24.2146C89.6345 24.2544 89.914 24.2692 90.2522 24.2567L89.338 23.342C88.8238 23.5305 88.6814 23.7414 88.9189 23.9768ZM95.4702 26.9602C95.3555 26.8436 95.1776 26.7702 94.9308 26.7298C94.684 26.6894 94.3864 26.6784 94.0423 26.6806L94.9368 27.5729C95.2484 27.4675 95.4473 27.3662 95.5174 27.2648C95.5955 27.1655 95.5791 27.0666 95.4702 26.9602Z" fill="#C1A595"/>
<path d="M94.3561 22.9777C93.9442 22.9446 93.5018 22.9291 93.0471 22.9275C92.655 22.9169 92.2302 22.9319 91.777 22.9565C91.3239 22.981 90.8825 23.0259 90.4529 23.0911L91.5351 24.1797C91.6762 24.166 91.8275 24.1464 91.9926 24.1391C92.1577 24.1319 92.3329 24.1187 92.5082 24.1056C93.306 24.0445 94.053 24.0128 94.7412 24.0083C95.4294 24.0038 96.0684 24.0548 96.6544 24.1431C97.2383 24.2395 97.7729 24.3913 98.2599 24.6248C98.7491 24.8504 99.1965 25.1678 99.5962 25.5668C100.071 26.0376 100.329 26.4846 100.383 26.8939C100.436 27.3033 100.335 27.6798 100.082 28.0156C99.829 28.3514 99.4637 28.6571 98.9804 28.9226C98.497 29.1881 97.9459 29.4183 97.335 29.6152L98.7913 31.0703L97.1361 31.5113L95.6519 30.0316C94.6525 30.2361 93.5998 30.3834 92.4878 30.4633C91.3838 30.5453 90.3232 30.5617 89.3182 30.4985L88.9985 27.974C89.513 28.0088 90.0398 28.0298 90.5869 28.039C91.0475 28.0507 91.5749 28.0375 92.1488 28.0109C92.7226 27.9844 93.2811 27.9193 93.8197 27.8318L92.7551 26.7737C92.2613 26.8217 91.7617 26.8596 91.238 26.891C90.4606 26.9403 89.7622 26.9507 89.143 26.9221C88.5216 26.9016 87.9735 26.8321 87.4783 26.7251C86.9831 26.6182 86.543 26.4659 86.1602 26.2603C85.7773 26.0547 85.4255 25.7973 85.1128 25.4902C84.6795 25.0563 84.4208 24.6436 84.331 24.2416C84.2492 23.8419 84.2999 23.4604 84.4809 23.1053C84.6699 22.7524 84.9733 22.4215 85.4048 22.1249C85.8364 21.8284 86.3517 21.5715 86.959 21.3563L85.7401 20.1366L87.3954 19.6957L88.6281 20.9277C89.1166 20.8353 89.6066 20.7691 90.1004 20.7211C90.5942 20.673 91.0777 20.6309 91.5549 20.6127C92.0321 20.5946 92.4911 20.5802 92.9297 20.5775C93.3684 20.5748 93.7707 20.5796 94.1389 20.5838L94.3561 22.9777ZM88.9189 23.9768C89.0416 24.0955 89.2093 24.1748 89.4219 24.2146C89.6345 24.2544 89.914 24.2692 90.2522 24.2567L89.338 23.342C88.8238 23.5305 88.6814 23.7414 88.9189 23.9768ZM95.4702 26.9602C95.3555 26.8436 95.1776 26.7702 94.9308 26.7298C94.684 26.6894 94.3864 26.6784 94.0423 26.6806L94.9368 27.5729C95.2484 27.4675 95.4473 27.3662 95.5174 27.2648C95.5955 27.1655 95.5791 27.0666 95.4702 26.9602Z" fill="url(#paint29_linear_600_11319)"/>
<path d="M94.4967 22.4484C94.0848 22.4153 93.6424 22.3998 93.1878 22.3982C92.7956 22.3876 92.3708 22.4026 91.9177 22.4272C91.4645 22.4517 91.0232 22.4966 90.5935 22.5618L91.6758 23.6504C91.8168 23.6367 91.9681 23.6171 92.1332 23.6098C92.2983 23.6026 92.4736 23.5894 92.6488 23.5763C93.4466 23.5152 94.1936 23.4835 94.8818 23.479C95.57 23.4745 96.209 23.5255 96.795 23.6138C97.3789 23.7102 97.9136 23.862 98.4006 24.0956C98.8897 24.3211 99.3371 24.6385 99.7368 25.0375C100.212 25.5083 100.47 25.9553 100.523 26.3646C100.577 26.774 100.476 27.1505 100.223 27.4863C99.9696 27.8221 99.6043 28.1278 99.121 28.3933C98.6377 28.6588 98.0865 28.889 97.4756 29.0859L98.932 30.541L97.2767 30.982L95.7925 29.5023C94.7931 29.7068 93.7404 29.8541 92.6284 29.934C91.5244 30.016 90.4638 30.0324 89.4588 29.9692L89.1391 27.4447C89.6536 27.4795 90.1804 27.5005 90.7276 27.5097C91.1881 27.5214 91.7155 27.5082 92.2894 27.4816C92.8633 27.4551 93.4217 27.39 93.9604 27.3025L92.8957 26.2444C92.4019 26.2924 91.9023 26.3303 91.3787 26.3617C90.6012 26.411 89.9028 26.4214 89.2836 26.3928C88.6622 26.3723 88.1141 26.3028 87.6189 26.1958C87.1238 26.0889 86.6837 25.9366 86.3008 25.731C85.918 25.5254 85.5662 25.268 85.2534 24.9609C84.8201 24.527 84.5614 24.1143 84.4716 23.7123C84.3898 23.3126 84.4405 22.9312 84.6215 22.5761C84.8106 22.2231 85.1139 21.8922 85.5455 21.5956C85.977 21.2991 86.4924 21.0422 87.0996 20.827L85.8807 19.6073L87.536 19.1664L88.7688 20.3984C89.2572 20.306 89.7473 20.2398 90.241 20.1918C90.7348 20.1437 91.2184 20.1016 91.6955 20.0834C92.1727 20.0653 92.6317 20.0509 93.0704 20.0482C93.509 20.0455 93.9113 20.0503 94.2795 20.0545L94.4967 22.4484ZM89.0595 23.4475C89.1823 23.5662 89.3499 23.6455 89.5625 23.6853C89.7751 23.7251 90.0546 23.7399 90.3928 23.7274L89.4786 22.8127C88.9644 23.0012 88.822 23.2121 89.0595 23.4475ZM95.6108 26.4309C95.4961 26.3143 95.3183 26.2408 95.0714 26.2005C94.8246 26.1601 94.527 26.1491 94.183 26.1513L95.0774 27.0436C95.389 26.9382 95.5879 26.8369 95.658 26.7355C95.7361 26.6362 95.7218 26.5293 95.6108 26.4309Z" fill="url(#paint30_linear_600_11319)"/>
<path d="M94.4967 22.4484C94.0848 22.4153 93.6424 22.3998 93.1878 22.3982C92.7956 22.3876 92.3708 22.4026 91.9177 22.4272C91.4645 22.4517 91.0232 22.4966 90.5935 22.5618L91.6758 23.6504C91.8168 23.6367 91.9681 23.6171 92.1332 23.6098C92.2983 23.6026 92.4736 23.5894 92.6488 23.5763C93.4466 23.5152 94.1936 23.4835 94.8818 23.479C95.57 23.4745 96.209 23.5255 96.795 23.6138C97.3789 23.7102 97.9136 23.862 98.4006 24.0956C98.8897 24.3211 99.3371 24.6385 99.7368 25.0375C100.212 25.5083 100.47 25.9553 100.523 26.3646C100.577 26.774 100.476 27.1505 100.223 27.4863C99.9696 27.8221 99.6043 28.1278 99.121 28.3933C98.6377 28.6588 98.0865 28.889 97.4756 29.0859L98.932 30.541L97.2767 30.982L95.7925 29.5023C94.7931 29.7068 93.7404 29.8541 92.6284 29.934C91.5244 30.016 90.4638 30.0324 89.4588 29.9692L89.1391 27.4447C89.6536 27.4795 90.1804 27.5005 90.7276 27.5097C91.1881 27.5214 91.7155 27.5082 92.2894 27.4816C92.8633 27.4551 93.4217 27.39 93.9604 27.3025L92.8957 26.2444C92.4019 26.2924 91.9023 26.3303 91.3787 26.3617C90.6012 26.411 89.9028 26.4214 89.2836 26.3928C88.6622 26.3723 88.1141 26.3028 87.6189 26.1958C87.1238 26.0889 86.6837 25.9366 86.3008 25.731C85.918 25.5254 85.5662 25.268 85.2534 24.9609C84.8201 24.527 84.5614 24.1143 84.4716 23.7123C84.3898 23.3126 84.4405 22.9312 84.6215 22.5761C84.8106 22.2231 85.1139 21.8922 85.5455 21.5956C85.977 21.2991 86.4924 21.0422 87.0996 20.827L85.8807 19.6073L87.536 19.1664L88.7688 20.3984C89.2572 20.306 89.7473 20.2398 90.241 20.1918C90.7348 20.1437 91.2184 20.1016 91.6955 20.0834C92.1727 20.0653 92.6317 20.0509 93.0704 20.0482C93.509 20.0455 93.9113 20.0503 94.2795 20.0545L94.4967 22.4484ZM89.0595 23.4475C89.1823 23.5662 89.3499 23.6455 89.5625 23.6853C89.7751 23.7251 90.0546 23.7399 90.3928 23.7274L89.4786 22.8127C88.9644 23.0012 88.822 23.2121 89.0595 23.4475ZM95.6108 26.4309C95.4961 26.3143 95.3183 26.2408 95.0714 26.2005C94.8246 26.1601 94.527 26.1491 94.183 26.1513L95.0774 27.0436C95.389 26.9382 95.5879 26.8369 95.658 26.7355C95.7361 26.6362 95.7218 26.5293 95.6108 26.4309Z" fill="#F0FAF6"/>
<path d="M94.4967 22.4484C94.0848 22.4153 93.6424 22.3998 93.1878 22.3982C92.7956 22.3876 92.3708 22.4026 91.9177 22.4272C91.4645 22.4517 91.0232 22.4966 90.5935 22.5618L91.6758 23.6504C91.8168 23.6367 91.9681 23.6171 92.1332 23.6098C92.2983 23.6026 92.4736 23.5894 92.6488 23.5763C93.4466 23.5152 94.1936 23.4835 94.8818 23.479C95.57 23.4745 96.209 23.5255 96.795 23.6138C97.3789 23.7102 97.9136 23.862 98.4006 24.0956C98.8897 24.3211 99.3371 24.6385 99.7368 25.0375C100.212 25.5083 100.47 25.9553 100.523 26.3646C100.577 26.774 100.476 27.1505 100.223 27.4863C99.9696 27.8221 99.6043 28.1278 99.121 28.3933C98.6377 28.6588 98.0865 28.889 97.4756 29.0859L98.932 30.541L97.2767 30.982L95.7925 29.5023C94.7931 29.7068 93.7404 29.8541 92.6284 29.934C91.5244 30.016 90.4638 30.0324 89.4588 29.9692L89.1391 27.4447C89.6536 27.4795 90.1804 27.5005 90.7276 27.5097C91.1881 27.5214 91.7155 27.5082 92.2894 27.4816C92.8633 27.4551 93.4217 27.39 93.9604 27.3025L92.8957 26.2444C92.4019 26.2924 91.9023 26.3303 91.3787 26.3617C90.6012 26.411 89.9028 26.4214 89.2836 26.3928C88.6622 26.3723 88.1141 26.3028 87.6189 26.1958C87.1238 26.0889 86.6837 25.9366 86.3008 25.731C85.918 25.5254 85.5662 25.268 85.2534 24.9609C84.8201 24.527 84.5614 24.1143 84.4716 23.7123C84.3898 23.3126 84.4405 22.9312 84.6215 22.5761C84.8106 22.2231 85.1139 21.8922 85.5455 21.5956C85.977 21.2991 86.4924 21.0422 87.0996 20.827L85.8807 19.6073L87.536 19.1664L88.7688 20.3984C89.2572 20.306 89.7473 20.2398 90.241 20.1918C90.7348 20.1437 91.2184 20.1016 91.6955 20.0834C92.1727 20.0653 92.6317 20.0509 93.0704 20.0482C93.509 20.0455 93.9113 20.0503 94.2795 20.0545L94.4967 22.4484ZM89.0595 23.4475C89.1823 23.5662 89.3499 23.6455 89.5625 23.6853C89.7751 23.7251 90.0546 23.7399 90.3928 23.7274L89.4786 22.8127C88.9644 23.0012 88.822 23.2121 89.0595 23.4475ZM95.6108 26.4309C95.4961 26.3143 95.3183 26.2408 95.0714 26.2005C94.8246 26.1601 94.527 26.1491 94.183 26.1513L95.0774 27.0436C95.389 26.9382 95.5879 26.8369 95.658 26.7355C95.7361 26.6362 95.7218 26.5293 95.6108 26.4309Z" fill="url(#paint31_linear_600_11319)" fill-opacity="0.5"/>
</g>
<g opacity="0.5" filter="url(#filter0_f_600_11319)">
<g opacity="0.25">
<path d="M48.3594 180.71L76.2928 176.49" stroke="#9FB8ED" stroke-width="2" stroke-linecap="round"/>
<path d="M76.4883 176.528L99.9086 178.277" stroke="#9FB8ED" stroke-width="2" stroke-linecap="round"/>
<path d="M102.424 178.111L118.051 175.761" stroke="#9FB8ED" stroke-width="2" stroke-linecap="round"/>
<path d="M120.016 175.518L140.761 175.316" stroke="#9FB8ED" stroke-width="2" stroke-linecap="round"/>
<path d="M141.686 175.301L159.081 171.105" stroke="#9FB8ED" stroke-width="2" stroke-linecap="round"/>
<rect x="0.210674" y="0.202743" width="10.5725" height="0.421658" rx="0.210829" transform="matrix(0.999264 -0.0383529 3.31395e-07 1 70.9455 176.304)" fill="white" stroke="#9FB8ED" stroke-width="0.421658"/>
<rect x="0.210674" y="0.202743" width="10.5725" height="0.421658" rx="0.210829" transform="matrix(0.999264 -0.0383529 3.31395e-07 1 94.4162 178.074)" fill="white" stroke="#9FB8ED" stroke-width="0.421658"/>
<rect x="0.210674" y="0.202743" width="10.5725" height="0.421658" rx="0.210829" transform="matrix(0.999264 -0.0383529 3.31395e-07 1 42.0431 180.437)" fill="white" stroke="#9FB8ED" stroke-width="0.421658"/>
<rect x="0.210674" y="0.202743" width="10.5725" height="0.421658" rx="0.210829" transform="matrix(0.999264 -0.0383529 3.31395e-07 1 112.557 175.484)" fill="white" stroke="#9FB8ED" stroke-width="0.421658"/>
<rect x="0.210674" y="0.202743" width="10.5725" height="0.421658" rx="0.210829" transform="matrix(0.999264 -0.0383529 3.31395e-07 1 135.742 175.089)" fill="white" stroke="#9FB8ED" stroke-width="0.421658"/>
<rect x="0.210674" y="0.202743" width="10.5725" height="0.421658" rx="0.210829" transform="matrix(0.999264 -0.0383529 3.31395e-07 1 153.59 170.902)" fill="white" stroke="#9FB8ED" stroke-width="0.421658"/>
</g>
<path d="M26.3164 180.711L52.5399 178.326" stroke="#E6EFF1" stroke-width="2" stroke-linecap="round"/>
<path d="M26.3164 180.711L52.5399 178.326" stroke="url(#paint32_linear_600_11319)" stroke-width="2" stroke-linecap="round"/>
<path d="M56.1309 178.16L77.8639 178.277" stroke="#E6EFF1" stroke-width="2" stroke-linecap="round"/>
<path d="M56.1309 178.16L77.8639 178.277" stroke="url(#paint33_linear_600_11319)" stroke-width="2" stroke-linecap="round"/>
<path d="M80.3809 178.111L96.0079 175.761" stroke="#E6EFF1" stroke-width="2" stroke-linecap="round"/>
<path d="M80.3809 178.111L96.0079 175.761" stroke="url(#paint34_linear_600_11319)" stroke-width="2" stroke-linecap="round"/>
<path d="M97.9727 175.518L119.049 172.43" stroke="#E6EFF1" stroke-width="2" stroke-linecap="round"/>
<path d="M97.9727 175.518L119.049 172.43" stroke="url(#paint35_linear_600_11319)" stroke-width="2" stroke-linecap="round"/>
<path d="M118.676 172.356L137.039 171.105" stroke="#E6EFF1" stroke-width="2" stroke-linecap="round"/>
<path d="M118.676 172.356L137.039 171.105" stroke="url(#paint36_linear_600_11319)" stroke-width="2" stroke-linecap="round"/>
<rect x="0.210674" y="0.202743" width="10.5725" height="0.421658" rx="0.210829" transform="matrix(0.999264 -0.0383529 3.31395e-07 1 48.9025 178.105)" fill="white"/>
<rect x="0.210674" y="0.202743" width="10.5725" height="0.421658" rx="0.210829" transform="matrix(0.999264 -0.0383529 3.31395e-07 1 48.9025 178.105)" stroke="black" stroke-width="0.421658"/>
<rect x="0.210674" y="0.202743" width="10.5725" height="0.421658" rx="0.210829" transform="matrix(0.999264 -0.0383529 3.31395e-07 1 48.9025 178.105)" stroke="url(#paint37_linear_600_11319)" stroke-width="0.421658"/>
<rect x="0.210674" y="0.202743" width="10.5725" height="0.421658" rx="0.210829" transform="matrix(0.999264 -0.0383529 3.31395e-07 1 72.3732 178.074)" fill="white"/>
<rect x="0.210674" y="0.202743" width="10.5725" height="0.421658" rx="0.210829" transform="matrix(0.999264 -0.0383529 3.31395e-07 1 72.3732 178.074)" stroke="black" stroke-width="0.421658"/>
<rect x="0.210674" y="0.202743" width="10.5725" height="0.421658" rx="0.210829" transform="matrix(0.999264 -0.0383529 3.31395e-07 1 72.3732 178.074)" stroke="url(#paint38_linear_600_11319)" stroke-width="0.421658"/>
<rect x="0.210674" y="0.202743" width="10.5725" height="0.421658" rx="0.210829" transform="matrix(0.999264 -0.0383529 3.31395e-07 1 20.0002 180.437)" fill="white"/>
<rect x="0.210674" y="0.202743" width="10.5725" height="0.421658" rx="0.210829" transform="matrix(0.999264 -0.0383529 3.31395e-07 1 20.0002 180.437)" stroke="black" stroke-width="0.421658"/>
<rect x="0.210674" y="0.202743" width="10.5725" height="0.421658" rx="0.210829" transform="matrix(0.999264 -0.0383529 3.31395e-07 1 20.0002 180.437)" stroke="url(#paint39_linear_600_11319)" stroke-width="0.421658"/>
<rect x="0.210674" y="0.202743" width="10.5725" height="0.421658" rx="0.210829" transform="matrix(0.999264 -0.0383529 3.31395e-07 1 90.5138 175.484)" fill="white"/>
<rect x="0.210674" y="0.202743" width="10.5725" height="0.421658" rx="0.210829" transform="matrix(0.999264 -0.0383529 3.31395e-07 1 90.5138 175.484)" stroke="black" stroke-width="0.421658"/>
<rect x="0.210674" y="0.202743" width="10.5725" height="0.421658" rx="0.210829" transform="matrix(0.999264 -0.0383529 3.31395e-07 1 90.5138 175.484)" stroke="url(#paint40_linear_600_11319)" stroke-width="0.421658"/>
<rect x="0.210674" y="0.202743" width="10.5725" height="0.421658" rx="0.210829" transform="matrix(0.999264 -0.0383529 3.31395e-07 1 113.699 172.166)" fill="white"/>
<rect x="0.210674" y="0.202743" width="10.5725" height="0.421658" rx="0.210829" transform="matrix(0.999264 -0.0383529 3.31395e-07 1 113.699 172.166)" stroke="black" stroke-width="0.421658"/>
<rect x="0.210674" y="0.202743" width="10.5725" height="0.421658" rx="0.210829" transform="matrix(0.999264 -0.0383529 3.31395e-07 1 113.699 172.166)" stroke="url(#paint41_linear_600_11319)" stroke-width="0.421658"/>
<rect x="0.210674" y="0.202743" width="10.5725" height="0.421658" rx="0.210829" transform="matrix(0.999264 -0.0383529 3.31395e-07 1 131.547 170.902)" fill="white"/>
<rect x="0.210674" y="0.202743" width="10.5725" height="0.421658" rx="0.210829" transform="matrix(0.999264 -0.0383529 3.31395e-07 1 131.547 170.902)" stroke="black" stroke-width="0.421658"/>
<rect x="0.210674" y="0.202743" width="10.5725" height="0.421658" rx="0.210829" transform="matrix(0.999264 -0.0383529 3.31395e-07 1 131.547 170.902)" stroke="url(#paint42_linear_600_11319)" stroke-width="0.421658"/>
</g>
<defs>
<filter id="filter0_f_600_11319" x="0" y="150.104" width="184.576" height="51.6084" filterUnits="userSpaceOnUse" color-interpolation-filters="sRGB">
<feFlood flood-opacity="0" result="BackgroundImageFix"/>
<feBlend mode="normal" in="SourceGraphic" in2="BackgroundImageFix" result="shape"/>
<feGaussianBlur stdDeviation="10" result="effect1_foregroundBlur_600_11319"/>
</filter>
<linearGradient id="paint0_linear_600_11319" x1="97.1699" y1="64.7876" x2="63.7719" y2="149.418" gradientUnits="userSpaceOnUse">
<stop stop-color="#245795"/>
<stop offset="1" stop-color="#8AD3A8"/>
</linearGradient>
<linearGradient id="paint1_linear_600_11319" x1="152.371" y1="76.1131" x2="174.082" y2="133.105" gradientUnits="userSpaceOnUse">
<stop stop-color="#245795"/>
<stop offset="1" stop-color="#8AD3A8"/>
</linearGradient>
<linearGradient id="paint2_linear_600_11319" x1="158.152" y1="72.3436" x2="119.01" y2="152.93" gradientUnits="userSpaceOnUse">
<stop stop-color="#245795"/>
<stop offset="1" stop-color="#8AD3A8"/>
</linearGradient>
<linearGradient id="paint3_linear_600_11319" x1="145.001" y1="122.453" x2="31.6169" y2="122.453" gradientUnits="userSpaceOnUse">
<stop offset="0.096" stop-color="#45108A"/>
<stop offset="1" stop-color="#7C1DC9"/>
</linearGradient>
<linearGradient id="paint4_linear_600_11319" x1="48.3223" y1="70.4539" x2="126.824" y2="125.487" gradientUnits="userSpaceOnUse">
<stop stop-color="#245795"/>
<stop offset="1" stop-color="#8AD3A8"/>
</linearGradient>
<linearGradient id="paint5_linear_600_11319" x1="50.9781" y1="64.6393" x2="-17.4822" y2="106.614" gradientUnits="userSpaceOnUse">
<stop stop-color="#245795"/>
<stop offset="1" stop-color="#8AD3A8"/>
</linearGradient>
<linearGradient id="paint6_linear_600_11319" x1="170.646" y1="32.73" x2="160.683" y2="206.039" gradientUnits="userSpaceOnUse">
<stop stop-color="#245795"/>
<stop offset="1" stop-color="#8AD3A8"/>
</linearGradient>
<linearGradient id="paint7_linear_600_11319" x1="113.931" y1="77.647" x2="113.923" y2="77.647" gradientUnits="userSpaceOnUse">
<stop stop-color="#FFBB96"/>
<stop offset="0.2273" stop-color="#FFFBC9"/>
<stop offset="0.5404" stop-color="#F9B673"/>
<stop offset="0.6391" stop-color="#F9B876"/>
<stop offset="0.7249" stop-color="#FABE81"/>
<stop offset="0.8057" stop-color="#FCC993"/>
<stop offset="0.8586" stop-color="#FED2A3"/>
<stop offset="0.9697" stop-color="#FFC28C"/>
</linearGradient>
<linearGradient id="paint8_linear_600_11319" x1="68.4214" y1="77.6463" x2="68.4137" y2="77.6463" gradientUnits="userSpaceOnUse">
<stop stop-color="#FFBB96"/>
<stop offset="0.2273" stop-color="#FFFBC9"/>
<stop offset="0.5404" stop-color="#F9B673"/>
<stop offset="0.6391" stop-color="#F9B876"/>
<stop offset="0.7249" stop-color="#FABE81"/>
<stop offset="0.8057" stop-color="#FCC993"/>
<stop offset="0.8586" stop-color="#FED2A3"/>
<stop offset="0.9697" stop-color="#FFC28C"/>
</linearGradient>
<linearGradient id="paint9_linear_600_11319" x1="90.9134" y1="124.746" x2="93.1248" y2="10.6359" gradientUnits="userSpaceOnUse">
<stop stop-color="white"/>
<stop offset="1" stop-color="white" stop-opacity="0"/>
</linearGradient>
<linearGradient id="paint10_linear_600_11319" x1="79.3777" y1="111.135" x2="32.1324" y2="154.068" gradientUnits="userSpaceOnUse">
<stop offset="0.096" stop-color="#45108A"/>
<stop offset="1" stop-color="#7C1DC9"/>
</linearGradient>
<linearGradient id="paint11_linear_600_11319" x1="75.791" y1="81.5336" x2="117.454" y2="139.452" gradientUnits="userSpaceOnUse">
<stop stop-color="#245795"/>
<stop offset="1" stop-color="#8AD3A8"/>
</linearGradient>
<linearGradient id="paint12_linear_600_11319" x1="79.9142" y1="76.4572" x2="13.0994" y2="149.305" gradientUnits="userSpaceOnUse">
<stop stop-color="#245795"/>
<stop offset="1" stop-color="#8AD3A8"/>
</linearGradient>
<linearGradient id="paint13_linear_600_11319" x1="77.8327" y1="120.923" x2="90.3743" y2="200.915" gradientUnits="userSpaceOnUse">
<stop stop-color="#245795"/>
<stop offset="1" stop-color="#8AD3A8"/>
</linearGradient>
<linearGradient id="paint14_linear_600_11319" x1="97.9864" y1="116.966" x2="70.8229" y2="191.167" gradientUnits="userSpaceOnUse">
<stop stop-color="#245795"/>
<stop offset="1" stop-color="#8AD3A8"/>
</linearGradient>
<linearGradient id="paint15_linear_600_11319" x1="97.8882" y1="109.824" x2="84.3698" y2="163.857" gradientUnits="userSpaceOnUse">
<stop stop-color="#245795"/>
<stop offset="1" stop-color="#8AD3A8"/>
</linearGradient>
<linearGradient id="paint16_linear_600_11319" x1="121.839" y1="103.23" x2="121.839" y2="167.944" gradientUnits="userSpaceOnUse">
<stop stop-color="#D4F2E4"/>
<stop offset="1" stop-color="#A9D4CC"/>
</linearGradient>
<linearGradient id="paint17_linear_600_11319" x1="82.416" y1="79.2488" x2="70.8267" y2="130.671" gradientUnits="userSpaceOnUse">
<stop stop-color="#245795"/>
<stop offset="1" stop-color="#8AD3A8"/>
</linearGradient>
<linearGradient id="paint18_linear_600_11319" x1="15.4643" y1="-14.7909" x2="-31.158" y2="56.7334" gradientUnits="userSpaceOnUse">
<stop stop-color="#245795"/>
<stop offset="1" stop-color="#8AD3A8"/>
</linearGradient>
<linearGradient id="paint19_linear_600_11319" x1="110.97" y1="16.156" x2="51.615" y2="21.2776" gradientUnits="userSpaceOnUse">
<stop stop-color="#245795"/>
<stop offset="1" stop-color="#8AD3A8"/>
</linearGradient>
<linearGradient id="paint20_linear_600_11319" x1="61.8523" y1="74.8095" x2="71.3834" y2="102.012" gradientUnits="userSpaceOnUse">
<stop stop-color="#245795"/>
<stop offset="1" stop-color="#8AD3A8"/>
</linearGradient>
<linearGradient id="paint21_linear_600_11319" x1="67.0978" y1="64.744" x2="74.3893" y2="85.4121" gradientUnits="userSpaceOnUse">
<stop stop-color="#245795"/>
<stop offset="1" stop-color="#8AD3A8"/>
</linearGradient>
<linearGradient id="paint22_linear_600_11319" x1="57.5621" y1="16.3673" x2="31.3868" y2="43.0538" gradientUnits="userSpaceOnUse">
<stop stop-color="#245795"/>
<stop offset="1" stop-color="#8AD3A8"/>
</linearGradient>
<linearGradient id="paint23_linear_600_11319" x1="104.634" y1="60.1781" x2="92.5287" y2="70.667" gradientUnits="userSpaceOnUse">
<stop offset="0.0354" stop-color="#FFBA78"/>
<stop offset="0.395" stop-color="#FFC987"/>
<stop offset="1" stop-color="#FEECA8"/>
</linearGradient>
<linearGradient id="paint24_linear_600_11319" x1="70.4842" y1="56.574" x2="73.7377" y2="82.8544" gradientUnits="userSpaceOnUse">
<stop stop-color="#245795"/>
<stop offset="1" stop-color="#8AD3A8"/>
</linearGradient>
<linearGradient id="paint25_linear_600_11319" x1="65.4668" y1="-86.7815" x2="-8.7549" y2="-44.5854" gradientUnits="userSpaceOnUse">
<stop stop-color="#245795"/>
<stop offset="1" stop-color="#8AD3A8"/>
</linearGradient>
<linearGradient id="paint26_linear_600_11319" x1="136.162" y1="-15.4989" x2="81.0624" y2="-38.1549" gradientUnits="userSpaceOnUse">
<stop stop-color="#245795"/>
<stop offset="1" stop-color="#8AD3A8"/>
</linearGradient>
<linearGradient id="paint27_linear_600_11319" x1="65.6229" y1="14.113" x2="61.6245" y2="42.6579" gradientUnits="userSpaceOnUse">
<stop stop-color="#245795"/>
<stop offset="1" stop-color="#8AD3A8"/>
</linearGradient>
<linearGradient id="paint28_linear_600_11319" x1="74.898" y1="7.57359" x2="71.9043" y2="29.2847" gradientUnits="userSpaceOnUse">
<stop stop-color="#245795"/>
<stop offset="1" stop-color="#8AD3A8"/>
</linearGradient>
<linearGradient id="paint29_linear_600_11319" x1="88.5965" y1="-39.793" x2="53.1003" y2="-28.074" gradientUnits="userSpaceOnUse">
<stop stop-color="#245795"/>
<stop offset="1" stop-color="#8AD3A8"/>
</linearGradient>
<linearGradient id="paint30_linear_600_11319" x1="110.351" y1="20.7214" x2="94.7843" y2="24.4943" gradientUnits="userSpaceOnUse">
<stop offset="0.0354" stop-color="#FFBA78"/>
<stop offset="0.395" stop-color="#FFC987"/>
<stop offset="1" stop-color="#FEECA8"/>
</linearGradient>
<linearGradient id="paint31_linear_600_11319" x1="81.6524" y1="1.86406" x2="72.4972" y2="26.7122" gradientUnits="userSpaceOnUse">
<stop stop-color="#245795"/>
<stop offset="1" stop-color="#8AD3A8"/>
</linearGradient>
<linearGradient id="paint32_linear_600_11319" x1="74.0138" y1="176.8" x2="74.1182" y2="180.885" gradientUnits="userSpaceOnUse">
<stop stop-color="#8AD3A8"/>
<stop offset="0.985172" stop-color="#245795"/>
</linearGradient>
<linearGradient id="paint33_linear_600_11319" x1="95.6606" y1="176.159" x2="95.7387" y2="178.977" gradientUnits="userSpaceOnUse">
<stop stop-color="#8AD3A8"/>
<stop offset="0.985172" stop-color="#245795"/>
</linearGradient>
<linearGradient id="paint34_linear_600_11319" x1="108.805" y1="174.379" x2="108.862" y2="179.569" gradientUnits="userSpaceOnUse">
<stop stop-color="#8AD3A8"/>
<stop offset="0.985172" stop-color="#245795"/>
</linearGradient>
<linearGradient id="paint35_linear_600_11319" x1="134.889" y1="172.434" x2="134.971" y2="175.707" gradientUnits="userSpaceOnUse">
<stop stop-color="#8AD3A8"/>
<stop offset="0.985172" stop-color="#245795"/>
</linearGradient>
<linearGradient id="paint36_linear_600_11319" x1="150.489" y1="169.741" x2="150.556" y2="174.683" gradientUnits="userSpaceOnUse">
<stop stop-color="#8AD3A8"/>
<stop offset="0.985172" stop-color="#245795"/>
</linearGradient>
<linearGradient id="paint37_linear_600_11319" x1="19.997" y1="-0.428769" x2="19.9502" y2="2.07013" gradientUnits="userSpaceOnUse">
<stop stop-color="#8AD3A8"/>
<stop offset="0.985172" stop-color="#245795"/>
</linearGradient>
<linearGradient id="paint38_linear_600_11319" x1="19.997" y1="-0.428769" x2="19.9502" y2="2.07013" gradientUnits="userSpaceOnUse">
<stop stop-color="#8AD3A8"/>
<stop offset="0.985172" stop-color="#245795"/>
</linearGradient>
<linearGradient id="paint39_linear_600_11319" x1="19.997" y1="-0.428769" x2="19.9502" y2="2.07013" gradientUnits="userSpaceOnUse">
<stop stop-color="#8AD3A8"/>
<stop offset="0.985172" stop-color="#245795"/>
</linearGradient>
<linearGradient id="paint40_linear_600_11319" x1="19.997" y1="-0.428769" x2="19.9502" y2="2.07013" gradientUnits="userSpaceOnUse">
<stop stop-color="#8AD3A8"/>
<stop offset="0.985172" stop-color="#245795"/>
</linearGradient>
<linearGradient id="paint41_linear_600_11319" x1="19.997" y1="-0.428769" x2="19.9502" y2="2.07013" gradientUnits="userSpaceOnUse">
<stop stop-color="#8AD3A8"/>
<stop offset="0.985172" stop-color="#245795"/>
</linearGradient>
<linearGradient id="paint42_linear_600_11319" x1="19.997" y1="-0.428769" x2="19.9502" y2="2.07013" gradientUnits="userSpaceOnUse">
<stop stop-color="#8AD3A8"/>
<stop offset="0.985172" stop-color="#245795"/>
</linearGradient>
</defs>
</svg>
