<svg width="209" height="178" viewBox="0 0 209 178" fill="none" xmlns="http://www.w3.org/2000/svg">
<rect x="132.412" y="56.3459" width="58.4165" height="107.085" rx="16.5" transform="rotate(0.375654 132.412 56.3459)" stroke="#E6EFF1" stroke-width="15"/>
<path d="M161.459 81.0879L161.079 139.071" stroke="#E6EFF1" stroke-width="15" stroke-linecap="round"/>
<path d="M65.5665 171.122L0 132.493L31.953 113.883L97.597 152.486L65.5665 171.122Z" fill="#F0FAF6"/>
<path d="M65.5665 171.122L0 132.493L31.953 113.883L97.597 152.486L65.5665 171.122Z" fill="url(#paint0_linear_600_11380)" fill-opacity="0.25"/>
<path d="M161.26 115.307L95.6934 76.6782L114.739 65.6309L180.383 104.234L161.26 115.307Z" fill="#F0FAF6"/>
<path d="M161.26 115.307L95.6934 76.6782L114.739 65.6309L180.383 104.234L161.26 115.307Z" fill="url(#paint1_linear_600_11380)" fill-opacity="0.25"/>
<path d="M161.26 115.307L95.6934 76.6782L114.739 65.6309L180.383 104.234L161.26 115.307Z" fill="url(#paint2_linear_600_11380)" fill-opacity="0.25"/>
<path d="M97.4844 152.538L31.918 113.909L63.7729 77.7355L129.417 116.339L97.4844 152.538Z" fill="#F0FAF6"/>
<path d="M129.34 116.387L63.7734 77.7581L95.6261 76.7021L161.27 115.305L129.34 116.387Z" fill="#F0FAF6"/>
<path d="M129.34 116.387L63.7734 77.7581L95.6261 76.7021L161.27 115.305L129.34 116.387Z" fill="url(#paint3_linear_600_11380)"/>
<path d="M45.3398 17.7787L50.5521 14.7363L48.625 23.0992L45.3398 17.7787Z" fill="#6C9B8E"/>
<path fill-rule="evenodd" clip-rule="evenodd" d="M71.163 102.13C80.1273 107.306 100.937 87.2344 100.937 68.4296C100.937 49.6247 87.6069 26.6841 71.163 17.1902C54.7191 7.69632 41.3887 15.2443 41.3887 34.0492C41.3887 52.854 60.2777 95.8454 71.163 102.13ZM71.7476 53.9297C76.2616 56.5359 79.9209 54.4232 79.9209 49.2108C79.9209 43.9985 76.2616 37.6604 71.7476 35.0542C67.2335 32.448 63.5742 34.5607 63.5742 39.7731C63.5742 44.9854 67.2335 51.3236 71.7476 53.9297Z" fill="url(#paint4_linear_600_11380)"/>
<path fill-rule="evenodd" clip-rule="evenodd" d="M71.163 102.13C80.1273 107.306 100.937 87.2344 100.937 68.4296C100.937 49.6247 87.6069 26.6841 71.163 17.1902C54.7191 7.69632 41.3887 15.2443 41.3887 34.0492C41.3887 52.854 60.2777 95.8454 71.163 102.13ZM71.7476 53.9297C76.2616 56.5359 79.9209 54.4232 79.9209 49.2108C79.9209 43.9985 76.2616 37.6604 71.7476 35.0542C67.2335 32.448 63.5742 34.5607 63.5742 39.7731C63.5742 44.9854 67.2335 51.3236 71.7476 53.9297Z" fill="black" fill-opacity="0.2"/>
<path fill-rule="evenodd" clip-rule="evenodd" d="M66.6141 104.748C75.5785 109.924 96.3885 89.8526 96.3885 71.0477C96.3885 52.2429 83.058 29.3023 66.6142 19.8084C50.1703 10.3145 36.8398 17.8625 36.8398 36.6673C36.8398 55.4722 55.7289 98.4636 66.6141 104.748ZM67.1987 56.5479C71.7127 59.154 75.3721 57.0413 75.3721 51.829C75.3721 46.6167 71.7127 40.2785 67.1987 37.6724C62.6847 35.0662 59.0254 37.1789 59.0254 42.3912C59.0254 47.6036 62.6847 53.9417 67.1987 56.5479Z" fill="url(#paint5_linear_600_11380)"/>
<g opacity="0.1" filter="url(#filter0_f_600_11380)">
<path d="M52.1035 110.543L55.8186 110.286L54.445 110.991L52.1035 110.543Z" fill="#6C9B8E"/>
<path fill-rule="evenodd" clip-rule="evenodd" d="M70.509 117.651C76.8984 118.088 91.7309 116.396 91.7309 114.811C91.7309 113.226 82.2295 111.293 70.509 110.493C58.7885 109.693 49.2871 110.329 49.2871 111.914C49.2871 113.498 62.7505 117.122 70.509 117.651ZM70.9272 113.589C74.1446 113.809 76.7528 113.631 76.7528 113.191C76.7528 112.752 74.1446 112.218 70.9272 111.998C67.7098 111.779 65.1016 111.957 65.1016 112.396C65.1016 112.835 67.7098 113.369 70.9272 113.589Z" fill="url(#paint6_linear_600_11380)"/>
<path fill-rule="evenodd" clip-rule="evenodd" d="M70.509 117.651C76.8984 118.088 91.7309 116.396 91.7309 114.811C91.7309 113.226 82.2295 111.293 70.509 110.493C58.7885 109.693 49.2871 110.329 49.2871 111.914C49.2871 113.498 62.7505 117.122 70.509 117.651ZM70.9272 113.589C74.1446 113.809 76.7528 113.631 76.7528 113.191C76.7528 112.752 74.1446 112.218 70.9272 111.998C67.7098 111.779 65.1016 111.957 65.1016 112.396C65.1016 112.835 67.7098 113.369 70.9272 113.589Z" fill="black" fill-opacity="0.2"/>
<path fill-rule="evenodd" clip-rule="evenodd" d="M67.2649 117.872C73.6543 118.308 88.4868 116.617 88.4868 115.032C88.4868 113.447 78.9854 111.514 67.2649 110.713C55.5443 109.913 46.043 110.549 46.043 112.134C46.043 113.719 59.5063 117.342 67.2649 117.872ZM67.6811 113.81C70.8985 114.029 73.5067 113.851 73.5067 113.412C73.5067 112.973 70.8985 112.438 67.6811 112.219C64.4637 111.999 61.8555 112.177 61.8555 112.616C61.8555 113.056 64.4637 113.59 67.6811 113.81Z" fill="url(#paint7_linear_600_11380)"/>
</g>
<defs>
<filter id="filter0_f_600_11380" x="42.043" y="106.147" width="53.6875" height="15.7939" filterUnits="userSpaceOnUse" color-interpolation-filters="sRGB">
<feFlood flood-opacity="0" result="BackgroundImageFix"/>
<feBlend mode="normal" in="SourceGraphic" in2="BackgroundImageFix" result="shape"/>
<feGaussianBlur stdDeviation="2" result="effect1_foregroundBlur_600_11380"/>
</filter>
<linearGradient id="paint0_linear_600_11380" x1="48.7985" y1="89.6561" x2="48.7985" y2="171.122" gradientUnits="userSpaceOnUse">
<stop stop-color="#D4F2E4"/>
<stop offset="1" stop-color="#A9D4CC"/>
</linearGradient>
<linearGradient id="paint1_linear_600_11380" x1="131.596" y1="41.4041" x2="131.596" y2="122.87" gradientUnits="userSpaceOnUse">
<stop stop-color="#D4F2E4"/>
<stop offset="1" stop-color="#A9D4CC"/>
</linearGradient>
<linearGradient id="paint2_linear_600_11380" x1="138.038" y1="44.6052" x2="138.038" y2="115.307" gradientUnits="userSpaceOnUse">
<stop stop-color="#D4F2E4"/>
<stop offset="1" stop-color="#A9D4CC"/>
</linearGradient>
<linearGradient id="paint3_linear_600_11380" x1="112.522" y1="59.9053" x2="112.522" y2="116.387" gradientUnits="userSpaceOnUse">
<stop stop-color="#D4F2E4"/>
<stop offset="1" stop-color="#A9D4CC"/>
</linearGradient>
<linearGradient id="paint4_linear_600_11380" x1="71.1637" y1="17.1906" x2="34.3838" y2="80.8951" gradientUnits="userSpaceOnUse">
<stop stop-color="#8DCAB3"/>
<stop offset="1" stop-color="#4A78A6"/>
</linearGradient>
<linearGradient id="paint5_linear_600_11380" x1="66.6148" y1="19.8088" x2="29.835" y2="83.5133" gradientUnits="userSpaceOnUse">
<stop stop-color="#8DCAB3"/>
<stop offset="1" stop-color="#4A78A6"/>
</linearGradient>
<linearGradient id="paint6_linear_600_11380" x1="70.5095" y1="110.493" x2="70.0231" y2="117.618" gradientUnits="userSpaceOnUse">
<stop stop-color="#8DCAB3"/>
<stop offset="1" stop-color="#4A78A6"/>
</linearGradient>
<linearGradient id="paint7_linear_600_11380" x1="67.2654" y1="110.713" x2="66.7789" y2="117.839" gradientUnits="userSpaceOnUse">
<stop stop-color="#8DCAB3"/>
<stop offset="1" stop-color="#4A78A6"/>
</linearGradient>
</defs>
</svg>
