<svg width="13" height="16" viewBox="0 0 13 16" fill="none" xmlns="http://www.w3.org/2000/svg" opacity="0.5">
	<path fill-rule="evenodd" clip-rule="evenodd" d="M5.63511 2.09091C3.33468 2.09091 1.46982 3.95577 1.46982 6.2562C1.46982 8.55662 3.33468 10.4215 5.63511 10.4215C7.93553 10.4215 9.80039 8.55662 9.80039 6.2562C9.80039 3.95577 7.93553 2.09091 5.63511 2.09091ZM0.378906 6.2562C0.378906 3.35328 2.73219 1 5.63511 1C8.53802 1 10.8913 3.35328 10.8913 6.2562C10.8913 7.51151 10.4512 8.66404 9.71698 9.56795C9.72475 9.57487 9.73236 9.58206 9.73981 9.58951L12.2191 12.0689C12.4322 12.2819 12.4322 12.6272 12.2191 12.8402C12.0061 13.0533 11.6608 13.0533 11.4478 12.8402L8.96842 10.3609C8.96097 10.3535 8.95378 10.3458 8.94685 10.3381C8.04295 11.0723 6.89042 11.5124 5.63511 11.5124C2.73219 11.5124 0.378906 9.15912 0.378906 6.2562Z" fill="#232323" stroke="#232323" stroke-width="0.5" stroke-linecap="round" stroke-linejoin="round"/>
</svg>