<svg xmlns="http://www.w3.org/2000/svg" version="1.1" xmlns:xlink="http://www.w3.org/1999/xlink" xmlns:svgjs="http://svgjs.dev/svgjs" width="16" height="16"><svg version="1.1" id="SvgjsSvg1016" xmlns="http://www.w3.org/2000/svg" xmlns:xlink="http://www.w3.org/1999/xlink" x="0px" y="0px" viewBox="0 0 16 16" style="enable-background:new 0 0 16 16;" xml:space="preserve">
<style type="text/css">
	.st0{fill:#04298C;}
	.st1{fill-rule:evenodd;clip-rule:evenodd;fill:#FFFFFF;}
</style>
<g>
	<rect class="st0" width="16" height="16"></rect>
</g>
<g>
	<path class="st1" d="M7.8,3.3C6,4.9,4.4,6.3,2.5,7.9C2.4,8,2.3,8,2.2,7.9L1.7,7.3C1.6,7.2,1.6,7.1,1.7,7c2-1.7,3.8-3.3,5.7-5
		c0.2-0.1,0.5-0.1,0.6,0C9,2.7,9.9,3.5,10.8,4.3V3.4c0-0.2,0.1-0.3,0.3-0.3h0.7c0.1,0,0.3,0.1,0.3,0.3v2C12.7,6,13.2,6.4,13.9,7
		c0.1,0.1,0.1,0.3,0,0.4L13.5,8c-0.1,0.1-0.3,0.1-0.4,0C11.3,6.4,9.6,4.9,7.8,3.3L7.8,3.3z"></path>
	<path class="st1" d="M3.4,10.5V7.9c1.5-1.3,2.9-2.6,4.4-3.8l4.4,3.8c-2.3,0.6-4.8,2-6.4,3.6l-1.7-2L3.4,10.5L3.4,10.5z M7.1,6.1
		h0.6v0.6H7.1V6.1z M7.9,6.1h0.6v0.6H7.9V6.1z M8.5,6.9v0.6H7.9V6.9H8.5z M7.7,7.5H7.1V6.9h0.6V7.5z"></path>
	<path class="st1" d="M5.6,13.8H3.8c-0.2,0-0.4-0.2-0.4-0.4v-2L5.6,13.8z"></path>
	<path class="st1" d="M5.9,13.8c1.4-2.4,3.3-4.3,6.3-5.9v5.4c0,0.2-0.2,0.4-0.4,0.4H5.9z"></path>
</g>
</svg><style>@media (prefers-color-scheme: light) { :root { filter: none; } }
@media (prefers-color-scheme: dark) { :root { filter: none; } }
</style></svg>