<svg xmlns="http://www.w3.org/2000/svg" width="201.398" height="34.821" viewBox="0 0 201.398 34.821">
  <g id="Logo_HeyTranslator" data-name="Logo HeyTranslator" transform="translate(-40.577 -32.676)">
    <path id="Pfad_394" data-name="Pfad 394" d="M1.75,0V-18.8l3.725-.6v6.3a7.721,7.721,0,0,1,.963-.237,6.045,6.045,0,0,1,1.137-.113,7.031,7.031,0,0,1,2.663.438,4.134,4.134,0,0,1,1.7,1.237,4.784,4.784,0,0,1,.9,1.9,10.569,10.569,0,0,1,.263,2.45V0H9.375V-6.975a5.137,5.137,0,0,0-.463-2.55,1.849,1.849,0,0,0-1.713-.75,4.778,4.778,0,0,0-.937.087q-.438.088-.788.188V0Zm14.1-6.475a8.042,8.042,0,0,1,.538-3.063A6.566,6.566,0,0,1,17.8-11.725a5.876,5.876,0,0,1,2.012-1.325,6.3,6.3,0,0,1,2.338-.45,5.809,5.809,0,0,1,4.425,1.713A7.056,7.056,0,0,1,28.2-6.75q0,.325-.025.713t-.05.687h-8.45A2.475,2.475,0,0,0,20.75-3.525a4.321,4.321,0,0,0,2.55.675,10.765,10.765,0,0,0,2.012-.187A7.6,7.6,0,0,0,26.925-3.5l.5,3.025a5.144,5.144,0,0,1-.8.3,10.468,10.468,0,0,1-1.112.263Q24.9.2,24.2.275A13.132,13.132,0,0,1,22.8.35a8.287,8.287,0,0,1-3.087-.525,6.014,6.014,0,0,1-2.175-1.438,5.705,5.705,0,0,1-1.275-2.163A8.566,8.566,0,0,1,15.85-6.475ZM24.6-7.9a3.845,3.845,0,0,0-.163-.925,2.31,2.31,0,0,0-.425-.8,2.263,2.263,0,0,0-.725-.575,2.362,2.362,0,0,0-1.088-.225,2.5,2.5,0,0,0-1.075.212,2.221,2.221,0,0,0-.75.563,2.517,2.517,0,0,0-.462.813,5.332,5.332,0,0,0-.237.938Zm18.175-5.25q-1.128,3.8-2.356,7.125T37.737.425a14.6,14.6,0,0,1-1.052,1.913,5.883,5.883,0,0,1-1.152,1.3,4.056,4.056,0,0,1-1.414.75,6.4,6.4,0,0,1-1.84.237,7.518,7.518,0,0,1-1.615-.162A7.177,7.177,0,0,1,29.45,4.1l.65-2.975a6.361,6.361,0,0,0,1.026.275,5.782,5.782,0,0,0,.951.075A2.082,2.082,0,0,0,33.614.938,4.321,4.321,0,0,0,34.527-.55q-1.276-2.5-2.551-5.613a69.923,69.923,0,0,1-2.4-6.988h3.95q.251.975.59,2.113t.716,2.3q.377,1.163.766,2.263t.741,2q.326-.9.678-2t.69-2.263q.339-1.162.653-2.3t.565-2.113Zm4.4.15H52.1v1.95H47.175v6a7.211,7.211,0,0,0,.15,1.613,2.422,2.422,0,0,0,.45,1,1.619,1.619,0,0,0,.75.512,3.324,3.324,0,0,0,1.05.15,4.939,4.939,0,0,0,1.688-.238q.637-.237.888-.337L52.6-.425a8.632,8.632,0,0,1-1.225.438,6.966,6.966,0,0,1-2,.263,6.063,6.063,0,0,1-2.187-.338A3.186,3.186,0,0,1,45.8-1.075a4.055,4.055,0,0,1-.737-1.663,10.959,10.959,0,0,1-.213-2.287v-11.6l2.325-.4Zm12.675-.275q.3,0,.688.038t.763.1q.375.063.688.125a4.2,4.2,0,0,1,.463.112l-.4,2.025a7.793,7.793,0,0,0-.912-.238A8,8,0,0,0,59.5-11.25a6.09,6.09,0,0,0-1.287.137q-.638.138-.838.188V0H55.05V-12.45a15.8,15.8,0,0,1,2.05-.562A13.17,13.17,0,0,1,59.85-13.275Zm9.25,11.6q.825,0,1.463-.038a6.384,6.384,0,0,0,1.063-.137V-5.725a2.98,2.98,0,0,0-.812-.213,9.037,9.037,0,0,0-1.362-.087,8.8,8.8,0,0,0-1.113.075,3.428,3.428,0,0,0-1.075.313,2.3,2.3,0,0,0-.812.65A1.707,1.707,0,0,0,66.125-3.9a1.867,1.867,0,0,0,.8,1.737A4.164,4.164,0,0,0,69.1-1.675Zm-.2-11.65a6.738,6.738,0,0,1,2.363.363,3.829,3.829,0,0,1,1.55,1.025,3.881,3.881,0,0,1,.838,1.575A7.605,7.605,0,0,1,73.9-8.35V-.225l-.838.138Q72.525,0,71.85.075T70.387.213Q69.6.275,68.825.275A8.562,8.562,0,0,1,66.8.05a4.529,4.529,0,0,1-1.6-.713A3.263,3.263,0,0,1,64.15-1.95a4.506,4.506,0,0,1-.375-1.925,3.7,3.7,0,0,1,.437-1.85A3.485,3.485,0,0,1,65.4-6.975a5.5,5.5,0,0,1,1.75-.7,9.542,9.542,0,0,1,2.1-.225q.35,0,.725.038t.713.1q.337.062.588.113t.35.075v-.65A5.228,5.228,0,0,0,71.5-9.363a2.6,2.6,0,0,0-.45-1,2.279,2.279,0,0,0-.888-.7,3.48,3.48,0,0,0-1.463-.262,10.984,10.984,0,0,0-2.012.162,7.037,7.037,0,0,0-1.287.337l-.275-1.925a7.164,7.164,0,0,1,1.5-.387A12.956,12.956,0,0,1,68.9-13.325Zm8.85.7q.8-.2,2.125-.425a18.385,18.385,0,0,1,3.05-.225,6.587,6.587,0,0,1,2.575.438,4.028,4.028,0,0,1,1.637,1.225A4.738,4.738,0,0,1,88-9.725,10.951,10.951,0,0,1,88.25-7.3V0H85.925V-6.8a11.1,11.1,0,0,0-.163-2.05,3.466,3.466,0,0,0-.537-1.375,2.127,2.127,0,0,0-1-.763,4.393,4.393,0,0,0-1.55-.237q-.375,0-.775.025t-.763.063q-.362.037-.65.087t-.413.075V0H77.75ZM95.125-1.675a4.576,4.576,0,0,0,2.112-.375,1.268,1.268,0,0,0,.688-1.2A1.593,1.593,0,0,0,97.25-4.6a10.7,10.7,0,0,0-2.225-1.125q-.75-.3-1.437-.613A5.041,5.041,0,0,1,92.4-7.075,3.219,3.219,0,0,1,91.6-8.1a3.276,3.276,0,0,1-.3-1.475,3.312,3.312,0,0,1,1.275-2.738,5.441,5.441,0,0,1,3.475-1.013,9.735,9.735,0,0,1,1.1.063q.55.063,1.025.15t.837.188q.363.1.563.175l-.425,2a5.869,5.869,0,0,0-1.175-.413,7.582,7.582,0,0,0-1.925-.212,3.555,3.555,0,0,0-1.7.387,1.284,1.284,0,0,0-.725,1.213,1.656,1.656,0,0,0,.162.75,1.731,1.731,0,0,0,.5.588,4.111,4.111,0,0,0,.838.487q.5.225,1.2.475.925.35,1.65.688A5.165,5.165,0,0,1,99.213-6,3.019,3.019,0,0,1,100-4.912a3.944,3.944,0,0,1,.275,1.562A3.1,3.1,0,0,1,98.938-.625,6.659,6.659,0,0,1,95.125.3a9.964,9.964,0,0,1-2.7-.288Q91.45-.275,91.1-.425l.425-2q.4.15,1.275.45A7.357,7.357,0,0,0,95.125-1.675ZM107.15.25a4.459,4.459,0,0,1-3.05-.925,3.653,3.653,0,0,1-.9-2.725V-19l2.325-.4V-3.775a3.768,3.768,0,0,0,.1.95,1.3,1.3,0,0,0,.325.6,1.4,1.4,0,0,0,.6.338,6.19,6.19,0,0,0,.925.188Zm7.325-1.925q.825,0,1.463-.038A6.384,6.384,0,0,0,117-1.85V-5.725a2.98,2.98,0,0,0-.812-.213,9.037,9.037,0,0,0-1.363-.087,8.8,8.8,0,0,0-1.113.075,3.428,3.428,0,0,0-1.075.313,2.3,2.3,0,0,0-.812.65A1.707,1.707,0,0,0,111.5-3.9a1.867,1.867,0,0,0,.8,1.737A4.164,4.164,0,0,0,114.475-1.675Zm-.2-11.65a6.738,6.738,0,0,1,2.363.363,3.829,3.829,0,0,1,1.55,1.025,3.881,3.881,0,0,1,.837,1.575,7.605,7.605,0,0,1,.25,2.013V-.225l-.837.138Q117.9,0,117.225.075t-1.463.138q-.788.063-1.562.063A8.563,8.563,0,0,1,112.175.05a4.529,4.529,0,0,1-1.6-.713,3.262,3.262,0,0,1-1.05-1.288,4.506,4.506,0,0,1-.375-1.925,3.7,3.7,0,0,1,.438-1.85,3.485,3.485,0,0,1,1.188-1.25,5.5,5.5,0,0,1,1.75-.7,9.542,9.542,0,0,1,2.1-.225q.35,0,.725.038t.713.1q.337.062.587.113t.35.075v-.65a5.228,5.228,0,0,0-.125-1.137,2.6,2.6,0,0,0-.45-1,2.279,2.279,0,0,0-.887-.7,3.48,3.48,0,0,0-1.463-.262,10.984,10.984,0,0,0-2.012.162,7.037,7.037,0,0,0-1.288.337L110.5-12.75a7.164,7.164,0,0,1,1.5-.387A12.956,12.956,0,0,1,114.275-13.325ZM125.3-13h4.925v1.95H125.3v6a7.212,7.212,0,0,0,.15,1.613,2.422,2.422,0,0,0,.45,1,1.619,1.619,0,0,0,.75.512,3.324,3.324,0,0,0,1.05.15,4.939,4.939,0,0,0,1.687-.238q.638-.237.887-.337l.45,1.925A8.633,8.633,0,0,1,129.5.013a6.966,6.966,0,0,1-2,.263,6.063,6.063,0,0,1-2.187-.338,3.186,3.186,0,0,1-1.387-1.013,4.055,4.055,0,0,1-.738-1.663,10.959,10.959,0,0,1-.213-2.287v-11.6l2.325-.4Zm19,6.5a8.224,8.224,0,0,1-.45,2.8,6.4,6.4,0,0,1-1.262,2.15A5.554,5.554,0,0,1,140.65-.163a6.1,6.1,0,0,1-2.45.488,6.1,6.1,0,0,1-2.45-.488,5.554,5.554,0,0,1-1.937-1.388A6.4,6.4,0,0,1,132.55-3.7a8.224,8.224,0,0,1-.45-2.8,8.253,8.253,0,0,1,.45-2.787,6.381,6.381,0,0,1,1.262-2.163,5.554,5.554,0,0,1,1.938-1.387,6.1,6.1,0,0,1,2.45-.488,6.1,6.1,0,0,1,2.45.488,5.554,5.554,0,0,1,1.938,1.387,6.381,6.381,0,0,1,1.262,2.163A8.253,8.253,0,0,1,144.3-6.5Zm-2.425,0a5.593,5.593,0,0,0-.988-3.487,3.206,3.206,0,0,0-2.687-1.288,3.206,3.206,0,0,0-2.687,1.288,5.593,5.593,0,0,0-.988,3.487,5.593,5.593,0,0,0,.988,3.488A3.206,3.206,0,0,0,138.2-1.725a3.206,3.206,0,0,0,2.688-1.287A5.593,5.593,0,0,0,141.875-6.5Zm10.5-6.775q.3,0,.688.038t.762.1q.375.063.688.125a4.2,4.2,0,0,1,.462.112l-.4,2.025a7.793,7.793,0,0,0-.913-.238,8,8,0,0,0-1.637-.137,6.09,6.09,0,0,0-1.287.137q-.638.138-.838.188V0h-2.325V-12.45a15.8,15.8,0,0,1,2.05-.562A13.17,13.17,0,0,1,152.375-13.275Z" transform="translate(87 57)" fill="#153b51"/>
    <g id="Gruppe_172" data-name="Gruppe 172" transform="translate(-101.881 -411.623)">
      <path id="Pfad_377" data-name="Pfad 377" d="M183.083,466.1c.007.037.013.075.02.113C183.09,466.134,183.083,466.1,183.083,466.1Z" transform="translate(-28.01 -15.028)" fill="#ffb319"/>
      <g id="Gruppe_170" data-name="Gruppe 170" transform="translate(142.458 444.299)">
        <path id="Pfad_378" data-name="Pfad 378" d="M234.813,462.274a53.781,53.781,0,0,0-3.078-17.975l-3.8,1.319A50.031,50.031,0,0,1,229.3,474.38l3.858,1.167A53.934,53.934,0,0,0,234.813,462.274Z" transform="translate(-201.39 -444.299)" fill="#ffb319"/>
        <path id="Pfad_379" data-name="Pfad 379" d="M204.464,469.4a44.028,44.028,0,0,0-2.538-14.766l-3.8,1.319a40.236,40.236,0,0,1,1.236,22.714l3.858,1.166A44.166,44.166,0,0,0,204.464,469.4Z" transform="translate(-180.837 -451.425)" fill="#ffb319"/>
        <path id="Pfad_380" data-name="Pfad 380" d="M147.877,482.705a24.591,24.591,0,0,0-1.614-8.773l-3.805,1.319a20.617,20.617,0,0,1,1.008,11.425l3.87,1.17A24.718,24.718,0,0,0,147.877,482.705Z" transform="translate(-142.458 -464.73)" fill="#ffb319"/>
      </g>
      <g id="Gruppe_171" data-name="Gruppe 171" transform="translate(148.857 450.482)">
        <path id="Pfad_381" data-name="Pfad 381" d="M170.385,483.816a33.966,33.966,0,0,0-1.2-19.606l-3.8,1.319a29.823,29.823,0,0,1-2.309,25.747l3.74,1.573A33.719,33.719,0,0,0,170.385,483.816Z" transform="translate(-163.066 -464.209)" fill="#ffb319"/>
      </g>
    </g>
  </g>
</svg>
