<svg xmlns="http://www.w3.org/2000/svg" width="856" height="581.594" viewBox="0 0 856 581.594">
  <g id="Gruppe_62" data-name="Gruppe 62" transform="translate(-307.405 -546.089)">
    <path id="Pfad_1" data-name="Pfad 1" d="M427.325,637.76s-7.032-12.837,10.885-17.089C442.879,639.666,427.325,637.76,427.325,637.76Z" transform="translate(139.141 87.529)" fill="#ddd4fc"/>
    <path id="Pfad_2" data-name="Pfad 2" d="M429.688,644.828s-7.032-12.839,10.885-17.091C445.242,646.732,429.688,644.828,429.688,644.828Z" transform="translate(141.915 95.821)" fill="#ddd4fc"/>
    <path id="Pfad_3" data-name="Pfad 3" d="M436.6,639.154s-6.519,13.107-20.245.832C429.28,625.3,436.6,639.154,436.6,639.154Z" transform="translate(127.869 102.276)" fill="#ddd4fc"/>
    <path id="Pfad_4" data-name="Pfad 4" d="M423.372,628.1s-4.308-13.989,14.1-14.554C438.225,633.1,423.372,628.1,423.372,628.1Z" transform="translate(135.584 79.17)" fill="#ddd4fc"/>
    <g id="Gruppe_1" data-name="Gruppe 1" transform="translate(471.292 599.847)">
      <path id="Pfad_5" data-name="Pfad 5" d="M408.057,593.956s-23.342,7.988-25.253-22.988C415.69,568.673,408.057,593.956,408.057,593.956Z" transform="translate(-382.804 -570.821)" fill="#ccdce6"/>
      <path id="Pfad_6" data-name="Pfad 6" d="M402.495,597.371s-13.165-10.214,3.612-22.781C419.6,592.3,402.495,597.371,402.495,597.371Z" transform="translate(-365.459 -566.398)" fill="#ccdce6"/>
      <path id="Pfad_7" data-name="Pfad 7" d="M407.019,598.914s-10.566-10.131,5.245-19.571C422.425,596.056,407.019,598.914,407.019,598.914Z" transform="translate(-358.443 -560.82)" fill="#ccdce6"/>
      <path id="Pfad_8" data-name="Pfad 8" d="M409.749,603.039s-6.666-13.031,11.361-16.776C425.242,605.382,409.749,603.039,409.749,603.039Z" transform="translate(-352.596 -552.699)" fill="#ccdce6"/>
      <path id="Pfad_9" data-name="Pfad 9" d="M408.131,586.685s-4.149,14.037-19.795,4.328C398.517,574.311,408.131,586.685,408.131,586.685Z" transform="translate(-376.312 -557.381)" fill="#ccdce6"/>
      <path id="Pfad_10" data-name="Pfad 10" d="M413.657,592.881s-4.147,14.037-19.795,4.328C404.043,580.506,413.657,592.881,413.657,592.881Z" transform="translate(-369.826 -550.109)" fill="#ccdce6"/>
      <path id="Pfad_11" data-name="Pfad 11" d="M419.218,617.9s-9.151-11.424,7.758-18.717C434.866,617.082,419.218,617.9,419.218,617.9Z" transform="translate(-342.971 -537.534)" fill="#ccdce6"/>
      <path id="Pfad_12" data-name="Pfad 12" d="M425.4,611.1s-4.149,14.037-19.795,4.33C415.789,598.726,425.4,611.1,425.4,611.1Z" transform="translate(-356.041 -528.726)" fill="#ccdce6"/>
      <path id="Pfad_13" data-name="Pfad 13" d="M422.77,624.452s-9.151-11.424,7.758-18.717C438.418,623.632,422.77,624.452,422.77,624.452Z" transform="translate(-338.802 -529.847)" fill="#ccdce6"/>
      <path id="Pfad_14" data-name="Pfad 14" d="M428.955,617.651s-4.149,14.037-19.795,4.33C419.339,605.276,428.955,617.651,428.955,617.651Z" transform="translate(-351.873 -521.039)" fill="#ccdce6"/>
      <path id="Pfad_15" data-name="Pfad 15" d="M416.544,596.52s-.113,14.637-17.832,9.625C403.887,587.28,416.544,596.52,416.544,596.52Z" transform="translate(-364.135 -543.317)" fill="#ccdce6"/>
      <path id="Pfad_16" data-name="Pfad 16" d="M413.694,609.29s-6.666-13.031,11.361-16.776C429.187,611.633,413.694,609.29,413.694,609.29Z" transform="translate(-347.966 -545.363)" fill="#ccdce6"/>
      <path id="Pfad_17" data-name="Pfad 17" d="M420.488,602.771s-.113,14.637-17.83,9.625C407.833,593.531,420.488,602.771,420.488,602.771Z" transform="translate(-359.504 -535.981)" fill="#ccdce6"/>
      <path id="Pfad_18" data-name="Pfad 18" d="M434.242,632.088s-6.519,13.1-20.245.832C426.917,618.236,434.242,632.088,434.242,632.088Z" transform="translate(-346.196 -505.864)" fill="#ccdce6"/>
      <path id="Pfad_19" data-name="Pfad 19" d="M431.14,623.083s-2.647,14.4-19.228,6.386C420.278,611.789,431.14,623.083,431.14,623.083Z" transform="translate(-348.643 -513.658)" fill="#ccdce6"/>
    </g>
    <g id="Gruppe_2" data-name="Gruppe 2" transform="translate(496.263 620.309)">
      <path id="Pfad_20" data-name="Pfad 20" d="M460.134,872.5a.7.7,0,0,1-.161-.019.673.673,0,0,1-.491-.813c25.792-104.923,6.764-178.243-13.739-221.276-22.214-46.621-50.9-68.727-51.184-68.946a.671.671,0,0,1,.811-1.069c.291.217,29.191,22.477,51.551,69.364,20.619,43.239,39.761,116.9,13.865,222.249A.668.668,0,0,1,460.134,872.5Z" transform="translate(-394.293 -580.235)" fill="#123b51"/>
    </g>
    <path id="Pfad_21" data-name="Pfad 21" d="M673.7,951.853s132.43-105.747,100.32-297.438C621.505,745.462,635.236,955.659,635.236,955.659Z" transform="translate(384.363 127.13)" fill="#ccdce6"/>
    <g id="Gruppe_3" data-name="Gruppe 3" transform="translate(1098.078 878.138)">
      <line id="Linie_1" data-name="Linie 1" x1="62.506" y2="49.327" transform="translate(0.621 0.621)" fill="#fff"/>
      <path id="Pfad_22" data-name="Pfad 22" d="M671.789,749.422a.62.62,0,0,1-.383-1.109l62.5-49.328a.621.621,0,1,1,.769.976l-62.506,49.33A.615.615,0,0,1,671.789,749.422Z" transform="translate(-671.169 -698.854)" fill="#123b51"/>
    </g>
    <g id="Gruppe_4" data-name="Gruppe 4" transform="translate(1059.381 888.416)">
      <line id="Linie_2" data-name="Linie 2" x1="22.643" y1="78.462" transform="translate(0.621 0.62)" fill="#fff"/>
      <path id="Pfad_23" data-name="Pfad 23" d="M676.63,783.284a.622.622,0,0,1-.6-.448L653.39,704.374a.621.621,0,0,1,1.193-.344l22.642,78.462a.62.62,0,0,1-.424.767A.6.6,0,0,1,676.63,783.284Z" transform="translate(-653.366 -703.583)" fill="#123b51"/>
    </g>
    <line id="Linie_3" data-name="Linie 3" x2="23.573" y2="79.1" transform="translate(1046.967 918.119)" fill="#fff" stroke="#6031da" stroke-linecap="round" stroke-linejoin="round" stroke-width="0.571"/>
    <g id="Gruppe_5" data-name="Gruppe 5" transform="translate(1035.17 780.922)">
      <line id="Linie_4" data-name="Linie 4" x1="122.594" y2="300.989" transform="translate(0.621 0.624)" fill="#fff"/>
      <path id="Pfad_24" data-name="Pfad 24" d="M642.849,956.363a.606.606,0,0,1-.235-.048.621.621,0,0,1-.341-.809L764.867,654.519a.614.614,0,0,1,.808-.343.623.623,0,0,1,.341.808L643.425,955.974A.625.625,0,0,1,642.849,956.363Z" transform="translate(-642.227 -654.128)" fill="#123b51"/>
    </g>
    <path id="Pfad_25" data-name="Pfad 25" d="M560.675,574.947c-19.034,9.838-48.258,12.368-47.828,43.031.3,21.151,16.55,38.853-4.525,55.324-8.355,6.529-18.165,9.251-22.421,19.852-3.7,9.214-1.352,19.823.756,29.113,1.813,7.986,6.749,17.556,6.61,25.837-.224,13.52-10.927,17.023-19.877,24.955-8.516,7.544-15.4,17.5-15.717,29.374-.428,15.7,12.094,25.233,15.559,39.1,0,0,23.592,51.584,70.624,13.524,11.113-8.994,23.5-15.839,28.9-30.589,4.086-11.153,1.374-22.944-3.754-33.1-5.388-10.677-14.039-17.886-9.253-30.532,2.93-7.747,11.053-14.818,15.687-21.569,5.391-7.853,11.494-16.845,11.459-26.772-.039-11.424-8.149-17.576-13.5-26.731-13.5-23.092,8.14-33.539,16.23-53.083,11.729-28.333-14.493-41.481-28.546-57.654Z" transform="translate(176.34 33.868)" fill="#ccdce6"/>
    <g id="Gruppe_6" data-name="Gruppe 6" transform="translate(677.594 658.471)">
      <line id="Linie_5" data-name="Linie 5" x1="49.322" y2="257.575" transform="translate(0.672 0.674)" fill="#ddd4fc"/>
      <path id="Pfad_26" data-name="Pfad 26" d="M478.39,856.716a.656.656,0,0,1-.128-.013.673.673,0,0,1-.533-.787L527.05,598.339a.656.656,0,0,1,.789-.533.673.673,0,0,1,.533.787L479.049,856.17A.671.671,0,0,1,478.39,856.716Z" transform="translate(-477.717 -597.792)" fill="#123b51"/>
    </g>
    <g id="Gruppe_7" data-name="Gruppe 7" transform="translate(687.388 728.355)">
      <line id="Linie_6" data-name="Linie 6" x2="19.041" y2="37.115" transform="translate(0.672 0.67)" fill="#ddd4fc"/>
      <path id="Pfad_27" data-name="Pfad 27" d="M501.935,668.4a.671.671,0,0,1-.6-.367L482.3,630.92a.673.673,0,0,1,1.2-.613l19.041,37.118a.675.675,0,0,1-.293.9A.7.7,0,0,1,501.935,668.4Z" transform="translate(-482.223 -629.944)" fill="#123b51"/>
    </g>
    <g id="Gruppe_8" data-name="Gruppe 8" transform="translate(688.817 840.687)">
      <path id="Pfad_28" data-name="Pfad 28" d="M483.553,699.721a.672.672,0,0,1-.3-1.274l33.541-16.754a.671.671,0,1,1,.6,1.2L483.851,699.65A.66.66,0,0,1,483.553,699.721Z" transform="translate(-482.881 -681.624)" fill="#123b51"/>
    </g>
    <g id="Gruppe_9" data-name="Gruppe 9" transform="translate(712.612 713.648)">
      <line id="Linie_7" data-name="Linie 7" y1="19.534" x2="23.613" transform="translate(0.671 0.673)" fill="#ddd4fc"/>
      <path id="Pfad_29" data-name="Pfad 29" d="M494.5,644.058a.673.673,0,0,1-.428-1.191l23.612-19.534a.672.672,0,0,1,.856,1.037L494.928,643.9A.666.666,0,0,1,494.5,644.058Z" transform="translate(-493.828 -623.178)" fill="#123b51"/>
    </g>
    <path id="Pfad_30" data-name="Pfad 30" d="M325.053,732.68h158.9V638.391l-158.9,23.744Z" transform="translate(20.711 108.325)" fill="#ffb319"/>
    <path id="Pfad_31" data-name="Pfad 31" d="M399.176,581.06s-18.284-24.338-25-26.576c-7.988,4.032-21.5,17.469-21.5,17.469l6.719,7.166-8.666-3.928-9.205,9.5,31.165,30.211Z" transform="translate(40.04 9.852)" fill="#123b51"/>
    <g id="Gruppe_10" data-name="Gruppe 10" transform="translate(566.914 648.091)">
      <path id="Pfad_32" data-name="Pfad 32" d="M427.134,628.374s-.9-19.484,7.727-25.642c4.065-2.9,20.493-9.407,20.493-9.407l3.358,6.384-11.085,5.71,23.851,1.009,12.431-11.112,4.7,3.721-14.444,22.505-18.478,6.832Z" transform="translate(-426.432 -592.655)" fill="#fff"/>
      <path id="Pfad_33" data-name="Pfad 33" d="M456.054,629.407H427.5a.672.672,0,0,1-.672-.641c-.039-.811-.811-19.923,8.007-26.22,4.08-2.917,19.96-9.218,20.634-9.483a.672.672,0,0,1,.841.311l3.358,6.384a.678.678,0,0,1,.048.513.665.665,0,0,1-.335.4l-8.829,4.549,21.045.891,12.226-10.931a.668.668,0,0,1,.863-.024l4.7,3.719a.672.672,0,0,1,.148.891l-14.446,22.505a.663.663,0,0,1-.33.267l-18.475,6.832A.729.729,0,0,1,456.054,629.407Zm-27.9-1.345h27.781l18.152-6.71,14-21.805-3.786-2.993L472.29,607.289a.7.7,0,0,1-.476.172l-23.849-1.008a.671.671,0,0,1-.28-1.267l10.481-5.4-2.76-5.247c-2.908,1.165-16.256,6.584-19.788,9.107C428.253,608.9,428.1,624.68,428.153,628.062Z" transform="translate(-426.797 -593.017)" fill="#123b51"/>
    </g>
    <path id="Pfad_34" data-name="Pfad 34" d="M323.995,809.3l24.8-25.517h20.953V809.3Z" transform="translate(19.47 278.959)" fill="#123b51"/>
    <path id="Pfad_35" data-name="Pfad 35" d="M406.748,809.3,390.7,783.786H369.742V809.3Z" transform="translate(73.158 278.959)" fill="#123b51"/>
    <path id="Pfad_36" data-name="Pfad 36" d="M472.7,681.554v228.97h-64.27V727.872h-8.371L388.278,910.524H323.995l11.784-182.652,3-46.318Z" transform="translate(19.47 158.98)" fill="#4a6171"/>
    <path id="Pfad_37" data-name="Pfad 37" d="M522.8,671.526c0-52.938-40.544-76.549-93.466-77.812q-1.624-.036-3.282-.037c-79.614,0-104.732,57.87-108.505,67.857-8.4,22.234-32.03,91.958,44.113,124.208,22.914,9.7,39.272-13.831,51.51-20.125,21.325-10.972,29.009-13.718,29.009-13.718Z" transform="translate(0 55.849)" fill="#ffb319"/>
    <g id="Gruppe_11" data-name="Gruppe 11" transform="translate(407.006 601.522)">
      <path id="Pfad_38" data-name="Pfad 38" d="M368.043,633.573h0a14.512,14.512,0,0,0,14.513-14.513V571.895H353.532V619.06A14.511,14.511,0,0,0,368.043,633.573Z" transform="translate(-352.871 -571.236)" fill="#fff"/>
      <path id="Pfad_39" data-name="Pfad 39" d="M368.4,634.587a15.189,15.189,0,0,1-15.172-15.169V572.253a.659.659,0,0,1,.659-.661h29.026a.661.661,0,0,1,.661.661v47.165A15.19,15.19,0,0,1,368.4,634.587Zm-13.852-61.676v46.506a13.852,13.852,0,0,0,27.7,0V572.911Z" transform="translate(-353.228 -571.592)" fill="#123b51"/>
    </g>
    <g id="Gruppe_12" data-name="Gruppe 12" transform="translate(395.08 586.135)">
      <path id="Pfad_40" data-name="Pfad 40" d="M348.683,595a8.064,8.064,0,0,0,10.566,4.284,7.59,7.59,0,0,0,1.741-1.017,21.513,21.513,0,1,0-3.486-14.339,7.918,7.918,0,0,0-4.536.506A8.063,8.063,0,0,0,348.683,595Z" transform="translate(-347.386 -564.162)" fill="#fff"/>
      <path id="Pfad_41" data-name="Pfad 41" d="M379.214,608.832a22.153,22.153,0,0,1-12.061-3.571,21.869,21.869,0,0,1-5.971-5.716,8.578,8.578,0,0,1-1.319.7,8.721,8.721,0,1,1-2.576-16.711,22.149,22.149,0,1,1,21.927,25.3Zm-17.869-10.874a.6.6,0,0,1,.107.009.67.67,0,0,1,.443.287,20.579,20.579,0,0,0,5.975,5.9,20.847,20.847,0,1,0-9.357-19.8.642.642,0,0,1-.261.456.671.671,0,0,1-.513.12,7.224,7.224,0,0,0-4.16.465,7.4,7.4,0,0,0,5.769,13.637,7.092,7.092,0,0,0,1.591-.93A.659.659,0,0,1,361.345,597.958Z" transform="translate(-347.741 -564.513)" fill="#123b51"/>
    </g>
    <g id="Gruppe_13" data-name="Gruppe 13" transform="translate(402.905 612.177)">
      <path id="Pfad_42" data-name="Pfad 42" d="M357.309,580.054a.676.676,0,0,1-.6-.37,3.778,3.778,0,0,0-1.989-1.756,2.975,2.975,0,0,0-2.363.448.672.672,0,0,1-.689-1.154,4.239,4.239,0,0,1,3.436-.578,5.08,5.08,0,0,1,2.8,2.441.668.668,0,0,1-.3.9A.679.679,0,0,1,357.309,580.054Z" transform="translate(-351.342 -576.494)" fill="#123b51"/>
    </g>
    <path id="Pfad_43" data-name="Pfad 43" d="M391.232,688.08s8.5,38.72,55.981,30.358,59.124-101.524,59.124-101.524H469.607l-26.874,53.749s-19.484-50.5-43.885-67.805C383.964,592.3,391.232,688.08,391.232,688.08Z" transform="translate(96.296 65.67)" fill="#ffb319"/>
    <g id="Gruppe_14" data-name="Gruppe 14" transform="translate(503.419 737.9)">
      <path id="Pfad_44" data-name="Pfad 44" d="M398.259,675.866a.673.673,0,0,1-.674-.672V635.009a.673.673,0,1,1,1.346,0v40.185A.671.671,0,0,1,398.259,675.866Z" transform="translate(-397.585 -634.335)" fill="#fff"/>
    </g>
    <path id="Pfad_45" data-name="Pfad 45" d="M371.029,565.929c-9.3,4.623-12.709,16.045-6.406,22.092l-6.575-4.682-10.468-6.634S367.29,562.195,371.029,565.929Z" transform="translate(47.149 22.563)" fill="#123b51"/>
    <rect id="Rechteck_2" data-name="Rechteck 2" width="119.527" height="119.527" rx="8.429" transform="matrix(0.706, 0.708, -0.708, 0.706, 443.014, 834.098)" fill="#ccdce6"/>
    <g id="Gruppe_16" data-name="Gruppe 16" transform="translate(386.104 862.288)">
      <g id="Gruppe_15" data-name="Gruppe 15">
        <path id="Pfad_46" data-name="Pfad 46" d="M377.124,765.433a24.386,24.386,0,0,0-1.769,2.187c-26.874-14.791-29.554-16.065-31.743-16.422a22.931,22.931,0,0,0,.924-3.317c1.128.285,3.6.641,6.284-2.039l54.429-54.281,2.045,2.05L384.6,716.241l20.3,20.358-2.05,2.045-20.3-20.358-32.165,32.076Zm17.954,35.532c3.947,3.958,7.127,1.773,18.365-8.586a7.348,7.348,0,0,0,.985,2.965c-11.45,10.433-15.478,13.178-21.329,7.312l-13.959-14c-5.638-5.656-5.988-8.266-.546-13.7l55.066-54.916,2.045,2.05-22.692,22.629,20.866,20.925-2.05,2.043-20.866-20.923L380.5,777.156c-3.745,3.736-3.747,5.432.272,9.46Z" transform="translate(-343.612 -691.562)" fill="#123b51"/>
      </g>
    </g>
    <g id="Gruppe_22" data-name="Gruppe 22" transform="translate(365.681 832.291)">
      <g id="Gruppe_17" data-name="Gruppe 17">
        <path id="Pfad_47" data-name="Pfad 47" d="M362.241,678.066l13.364,13.444,10.763,12.727-4.526,4.531L385.82,714,363.51,731.332,334.52,696.5Z" transform="translate(-333.86 -677.404)" fill="#fff"/>
        <path id="Pfad_48" data-name="Pfad 48" d="M363.868,732.35a.661.661,0,0,1-.509-.237l-28.991-34.838a.673.673,0,0,1-.146-.517.659.659,0,0,1,.289-.454l27.722-18.43a.649.649,0,0,1,.83.087L376.429,691.4l10.8,12.766a.662.662,0,0,1-.037.893l-4.117,4.123,3.628,4.775a.659.659,0,0,1-.12.919l-22.31,17.33A.675.675,0,0,1,363.868,732.35Zm-28.015-35.355,28.115,33.782,21.286-16.537-3.58-4.715a.657.657,0,0,1,.056-.865l4.1-4.1L375.46,692.295l-12.946-13.022Z" transform="translate(-334.216 -677.762)" fill="#123b51"/>
      </g>
      <g id="Gruppe_18" data-name="Gruppe 18" transform="translate(37.058 28.342)">
        <path id="Pfad_49" data-name="Pfad 49" d="M361.528,703.076a.68.68,0,0,1-.507-.228l-9.59-10.933a.672.672,0,0,1,1.011-.887l9.59,10.933a.672.672,0,0,1-.5,1.115Z" transform="translate(-351.265 -690.801)" fill="#123b51"/>
      </g>
      <g id="Gruppe_19" data-name="Gruppe 19" transform="translate(30.771 32.645)">
        <path id="Pfad_50" data-name="Pfad 50" d="M358.635,705.058a.666.666,0,0,1-.5-.231L348.538,693.9a.672.672,0,1,1,1.011-.887l9.59,10.931a.673.673,0,0,1-.5,1.117Z" transform="translate(-348.373 -692.78)" fill="#123b51"/>
      </g>
      <g id="Gruppe_20" data-name="Gruppe 20" transform="translate(24.861 37.376)">
        <path id="Pfad_51" data-name="Pfad 51" d="M355.918,707.231a.672.672,0,0,1-.5-.228l-9.592-10.931a.672.672,0,1,1,1.011-.887l9.592,10.931a.673.673,0,0,1-.063.948A.664.664,0,0,1,355.918,707.231Z" transform="translate(-345.654 -694.957)" fill="#123b51"/>
      </g>
      <g id="Gruppe_21" data-name="Gruppe 21" transform="translate(40.361 22.749)">
        <path id="Pfad_52" data-name="Pfad 52" d="M360.534,697.742a.674.674,0,0,1-.509-.233l-7.075-8.173a.67.67,0,1,1,1.013-.878l7.077,8.173a.672.672,0,0,1-.506,1.111Z" transform="translate(-352.785 -688.228)" fill="#123b51"/>
      </g>
    </g>
    <path id="Pfad_53" data-name="Pfad 53" d="M357.554,635.572c-20.156,43,41.613,90.365,41.613,90.365l-40.69,29.739s-47.888-50.388-50.438-78.825" transform="translate(0.745 105.017)" fill="#ffb319"/>
    <g id="Gruppe_23" data-name="Gruppe 23" transform="translate(353.443 739.731)">
      <path id="Pfad_54" data-name="Pfad 54" d="M333,635.572c-20.156,43,41.613,90.365,41.613,90.365" transform="translate(-328.146 -634.715)" fill="#ffb319"/>
      <path id="Pfad_55" data-name="Pfad 55" d="M375.056,727.258a.853.853,0,0,1-.522-.176c-.622-.48-62.084-48.286-41.87-91.41a.858.858,0,0,1,1.554.726c-19.636,41.892,40.746,88.852,41.359,89.321a.863.863,0,0,1,.161,1.2A.872.872,0,0,1,375.056,727.258Z" transform="translate(-328.585 -635.178)" fill="#fff"/>
    </g>
    <g id="Gruppe_24" data-name="Gruppe 24" transform="translate(780.3 1086.713)">
      <line id="Linie_8" data-name="Linie 8" x2="376.375" transform="translate(0.674 0.674)" fill="#ddd4fc"/>
      <path id="Pfad_56" data-name="Pfad 56" d="M902.019,796.161H525.643a.674.674,0,1,1,0-1.348H902.019a.674.674,0,0,1,0,1.348Z" transform="translate(-524.969 -794.813)" fill="#123b51"/>
    </g>
    <g id="Gruppe_25" data-name="Gruppe 25" transform="translate(311.616 1086.713)">
      <line id="Linie_9" data-name="Linie 9" x2="214.95" transform="translate(0.674 0.674)" fill="#ddd4fc"/>
      <path id="Pfad_57" data-name="Pfad 57" d="M524.966,796.161H310.016a.674.674,0,1,1,0-1.348h214.95a.674.674,0,1,1,0,1.348Z" transform="translate(-309.342 -794.813)" fill="#123b51"/>
    </g>
    <path id="Pfad_58" data-name="Pfad 58" d="M628.247,770.061c0-52.938-41.887-97.012-94.81-98.274q-1.624-.039-3.282-.039c-79.614,0-104.732,57.872-108.505,67.859-8.4,22.234-20.49,85.326,47.7,88.013s76.928,2.352,76.928,2.352l81.966,85.3Z" transform="translate(126.343 147.471)" fill="#123b51"/>
    <rect id="Rechteck_3" data-name="Rechteck 3" width="139.299" height="38.185" transform="translate(590.433 1005.196)" fill="#ffd175"/>
    <path id="Pfad_59" data-name="Pfad 59" d="M573.452,825.835H440.313a28.442,28.442,0,0,1-28.441-28.441h0a28.441,28.441,0,0,1,28.441-28.439l133.139,13.437Z" transform="translate(122.602 261.552)" fill="#ffd175"/>
    <path id="Pfad_60" data-name="Pfad 60" d="M437.718,819.317l25.517-18.049V780.314H437.718Z" transform="translate(152.934 274.884)" fill="#123b51"/>
    <path id="Pfad_61" data-name="Pfad 61" d="M449.041,825.835H582.182a28.44,28.44,0,0,0,28.439-28.441h0a28.439,28.439,0,0,0-28.439-28.439L449.041,782.391Z" transform="translate(166.223 261.552)" fill="#ffd175"/>
    <path id="Pfad_62" data-name="Pfad 62" d="M460.941,674.451s-11.763-19.821,0-27.211S507.1,632.123,507.1,632.123l-4.041,35.4Z" transform="translate(174.052 100.969)" fill="#ffb319"/>
    <rect id="Rechteck_4" data-name="Rechteck 4" width="158.895" height="78.608" transform="translate(735.107 1018.762) rotate(180)" fill="#123b51"/>
    <g id="Gruppe_26" data-name="Gruppe 26" transform="translate(637.452 771.214)">
      <path id="Pfad_63" data-name="Pfad 63" d="M474.066,711.644h0a14.515,14.515,0,0,0,14.513-14.513V649.966H459.553v47.165A14.515,14.515,0,0,0,474.066,711.644Z" transform="translate(-458.892 -649.305)" fill="#fff"/>
      <path id="Pfad_64" data-name="Pfad 64" d="M474.423,712.661a15.192,15.192,0,0,1-15.174-15.174V650.323a.661.661,0,0,1,.661-.661h29.024a.66.66,0,0,1,.661.661v47.165A15.191,15.191,0,0,1,474.423,712.661Zm-13.852-61.678v46.5a13.852,13.852,0,0,0,27.7,0v-46.5Z" transform="translate(-459.249 -649.662)" fill="#123b51"/>
    </g>
    <g id="Gruppe_27" data-name="Gruppe 27" transform="translate(626.409 757.172)">
      <path id="Pfad_65" data-name="Pfad 65" d="M454.587,666.526a8.067,8.067,0,0,0,9.3,6.6,7.679,7.679,0,0,0,1.928-.591,21.51,21.51,0,1,0-.1-14.756,7.929,7.929,0,0,0-4.532-.55A8.067,8.067,0,0,0,454.587,666.526Z" transform="translate(-453.812 -642.844)" fill="#fff"/>
      <path id="Pfad_66" data-name="Pfad 66" d="M486.3,687.528a22.146,22.146,0,0,1-16-6.84,21.858,21.858,0,0,1-4.5-6.934,8.422,8.422,0,0,1-1.445.376,8.725,8.725,0,0,1-10.059-7.138h0a8.713,8.713,0,0,1,7.134-10.057,8.561,8.561,0,0,1,4.258.339,22.139,22.139,0,1,1,20.61,30.254Zm-20.125-15.3a.626.626,0,0,1,.25.05.653.653,0,0,1,.367.38,20.583,20.583,0,0,0,4.462,7.114,20.85,20.85,0,1,0-4.558-21.423.662.662,0,0,1-.361.385.68.68,0,0,1-.526,0,7.4,7.4,0,0,0-10.214,8.036h0a7.411,7.411,0,0,0,8.54,6.058,7.067,7.067,0,0,0,1.761-.539A.652.652,0,0,1,466.172,672.231Z" transform="translate(-454.169 -643.201)" fill="#123b51"/>
    </g>
    <g id="Gruppe_28" data-name="Gruppe 28" transform="translate(634.322 778.206)">
      <path id="Pfad_67" data-name="Pfad 67" d="M463.271,657.211a.675.675,0,0,1-.652-.513,3.787,3.787,0,0,0-1.535-2.167,2.97,2.97,0,0,0-2.4-.109.672.672,0,1,1-.4-1.282,4.233,4.233,0,0,1,3.473.226,5.108,5.108,0,0,1,2.171,3.019.674.674,0,0,1-.654.826Z" transform="translate(-457.809 -652.879)" fill="#123b51"/>
    </g>
    <line id="Linie_10" data-name="Linie 10" y2="22.666" transform="translate(727.715 901.278)" fill="#6031da"/>
    <rect id="Rechteck_5" data-name="Rechteck 5" width="119.528" height="119.527" rx="8.429" transform="translate(689.016 893.072)" fill="#ffb319"/>
    <g id="Gruppe_29" data-name="Gruppe 29" transform="translate(716.979 916.771)">
      <path id="Pfad_68" data-name="Pfad 68" d="M526.387,716.628h3l30.45,70.883h-3.7l-10.481-24.459H510.113L499.63,787.511h-3.793Zm18.169,43.428-16.671-39.035-16.774,39.035Z" transform="translate(-495.837 -716.628)" fill="#123b51"/>
    </g>
    <g id="Gruppe_34" data-name="Gruppe 34" transform="translate(655.135 936.545)">
      <g id="Gruppe_30" data-name="Gruppe 30">
        <path id="Pfad_69" data-name="Pfad 69" d="M470.942,731.256l29.979-5.227.217,7.228,12.361.568-.492,30.131-45.32.428Z" transform="translate(-467.028 -725.369)" fill="#fff"/>
        <path id="Pfad_70" data-name="Pfad 70" d="M468.044,765.4a.67.67,0,0,1-.487-.215.652.652,0,0,1-.169-.509l3.254-33.13a.657.657,0,0,1,.543-.585l29.98-5.229a.686.686,0,0,1,.528.139.655.655,0,0,1,.243.493l.2,6.616,11.753.539a.661.661,0,0,1,.63.67l-.493,30.132a.663.663,0,0,1-.654.65l-45.319.428Zm3.86-33.225-3.132,31.9,43.941-.413.472-28.85-11.72-.537a.661.661,0,0,1-.63-.641l-.193-6.466Z" transform="translate(-467.384 -725.725)" fill="#123b51"/>
      </g>
      <g id="Gruppe_31" data-name="Gruppe 31" transform="translate(31.481 15.62)">
        <path id="Pfad_71" data-name="Pfad 71" d="M496.709,734.827l-.028,0-14.17-.572a.672.672,0,0,1-.643-.7.639.639,0,0,1,.7-.643l14.167.572a.672.672,0,0,1-.026,1.343Z" transform="translate(-481.868 -732.912)" fill="#123b51"/>
      </g>
      <g id="Gruppe_32" data-name="Gruppe 32" transform="translate(30.84 23.213)">
        <path id="Pfad_72" data-name="Pfad 72" d="M496.415,738.32l-.028,0-14.17-.572a.671.671,0,0,1-.643-.7.657.657,0,0,1,.7-.643l14.168.572a.672.672,0,0,1-.026,1.343Z" transform="translate(-481.573 -736.405)" fill="#123b51"/>
      </g>
      <g id="Gruppe_33" data-name="Gruppe 33" transform="translate(30.768 30.779)">
        <path id="Pfad_73" data-name="Pfad 73" d="M496.377,741.8l-.026,0-14.167-.572a.672.672,0,0,1,.028-1.343l.028,0,14.165.57a.673.673,0,0,1-.028,1.345Z" transform="translate(-481.54 -739.886)" fill="#123b51"/>
      </g>
    </g>
    <g id="Gruppe_35" data-name="Gruppe 35" transform="translate(595.065 974.583)">
      <path id="Pfad_74" data-name="Pfad 74" d="M488.836,747.287c-12.05,0-29.091-.611-48.306-2.35a.857.857,0,1,1,.152-1.706c24.635,2.228,45.669,2.6,57.141,2.2a.832.832,0,0,1,.887.828.859.859,0,0,1-.828.887C495.32,747.234,492.281,747.287,488.836,747.287Z" transform="translate(-439.749 -743.226)" fill="#fff"/>
    </g>
    <g id="Gruppe_36" data-name="Gruppe 36" transform="translate(589.814 906.909)">
      <path id="Pfad_75" data-name="Pfad 75" d="M508.336,744.154c-.024,0-.05,0-.076,0-.537-.048-53.759-4.815-62.354-5.719-9.377-.991-8.581-24.514-8.542-25.516a.886.886,0,0,1,.889-.824.86.86,0,0,1,.826.889c-.243,6.375.539,23.062,7.005,23.744,8.581.9,61.791,5.669,62.328,5.719a.857.857,0,0,1-.076,1.711Z" transform="translate(-437.332 -712.091)" fill="#fff"/>
    </g>
    <g id="Gruppe_37" data-name="Gruppe 37" transform="translate(614.407 1029.649)">
      <path id="Pfad_76" data-name="Pfad 76" d="M449.5,827.156a.857.857,0,0,1-.856-.859V782.854a.86.86,0,0,1,.77-.854l133.139-13.437a.858.858,0,1,1,.174,1.706L450.362,783.628V826.3A.859.859,0,0,1,449.5,827.156Z" transform="translate(-448.647 -768.56)" fill="#123b51"/>
    </g>
    <g id="Gruppe_38" data-name="Gruppe 38" transform="translate(533.617 1029.647)">
      <path id="Pfad_77" data-name="Pfad 77" d="M412.334,798.715a.857.857,0,0,1-.856-.858,29.331,29.331,0,0,1,29.3-29.3l48,4.838a.858.858,0,1,1-.174,1.706l-47.91-4.834a27.6,27.6,0,0,0-27.5,27.587A.859.859,0,0,1,412.334,798.715Z" transform="translate(-411.478 -768.559)" fill="#123b51"/>
    </g>
    <g id="Gruppe_44" data-name="Gruppe 44" transform="translate(806.015 810.383)">
      <g id="Gruppe_39" data-name="Gruppe 39">
        <path id="Pfad_78" data-name="Pfad 78" d="M571.251,667.986l-17.062,8.261-10.209,4.793,3.335,6.785L537.1,694.089l15.314,23.738,38.89-23.273Z" transform="translate(-536.443 -667.325)" fill="#fff"/>
        <path id="Pfad_79" data-name="Pfad 79" d="M552.774,718.846a.656.656,0,0,1-.554-.3L536.906,694.8a.639.639,0,0,1-.089-.5.65.65,0,0,1,.3-.417l9.7-5.949-3.069-6.245a.648.648,0,0,1-.028-.508.638.638,0,0,1,.341-.378l10.207-4.793,17.056-8.26a.656.656,0,0,1,.813.2l20.056,26.566a.657.657,0,0,1,.122.524.667.667,0,0,1-.309.441l-38.89,23.275A.666.666,0,0,1,552.774,718.846Zm-14.391-24.19,14.6,22.636,37.714-22.57-19.286-25.548L554.832,677.2l-9.605,4.51,3.036,6.18a.659.659,0,0,1-.245.854Z" transform="translate(-536.8 -667.682)" fill="#123b51"/>
      </g>
      <g id="Gruppe_40" data-name="Gruppe 40" transform="translate(3.259 23.647)">
        <path id="Pfad_80" data-name="Pfad 80" d="M538.973,687.044a.672.672,0,0,1-.331-1.258l12.67-7.138a.672.672,0,0,1,.659,1.172l-12.67,7.138A.694.694,0,0,1,538.973,687.044Z" transform="translate(-538.299 -678.562)" fill="#123b51"/>
      </g>
      <g id="Gruppe_41" data-name="Gruppe 41" transform="translate(7.764 29.79)">
        <path id="Pfad_81" data-name="Pfad 81" d="M541.046,689.872a.673.673,0,0,1-.33-1.259l12.672-7.14a.671.671,0,0,1,.656,1.172l-12.67,7.14A.687.687,0,0,1,541.046,689.872Z" transform="translate(-540.372 -681.388)" fill="#123b51"/>
      </g>
      <g id="Gruppe_42" data-name="Gruppe 42" transform="translate(11.775 36.209)">
        <path id="Pfad_82" data-name="Pfad 82" d="M542.891,692.825a.673.673,0,0,1-.33-1.259l12.67-7.14a.672.672,0,0,1,.659,1.172l-12.67,7.14A.694.694,0,0,1,542.891,692.825Z" transform="translate(-542.217 -684.341)" fill="#123b51"/>
      </g>
      <g id="Gruppe_43" data-name="Gruppe 43" transform="translate(5.28 17.276)">
        <path id="Pfad_83" data-name="Pfad 83" d="M539.9,682.341a.672.672,0,0,1-.333-1.256l9.381-5.369a.68.68,0,0,1,.917.25.672.672,0,0,1-.25.917l-9.381,5.369A.684.684,0,0,1,539.9,682.341Z" transform="translate(-539.229 -675.63)" fill="#123b51"/>
      </g>
    </g>
    <path id="Pfad_84" data-name="Pfad 84" d="M623.969,641.264c-11.75,35.147-73.43,51.807-73.43,51.807l4.945,6.275L576.3,731.3s52-11.2,77.471-43.341Z" transform="translate(285.339 111.696)" fill="#ffb319"/>
    <path id="Pfad_85" data-name="Pfad 85" d="M638.211,657.674c-6.923,1.013-14.746,3.117-18.228-4.186-2.68-5.615.743-9.636,1.971-14.88,2.158-9.212,4.173-17.834-4.5-24.448-2.784-2.124-6.112-2.778-8.451-5.593-5.606-6.747-6.345-15.517-1.13-22.779,10.555-14.7,30.263-15.161,46.315-11.04,7.092,1.819,13.961,5.419,18.378,11.257,4.086,5.4,5.7,12.218,5.919,18.884.213,6.371-.561,12.935,2.891,18.669,4.764,7.91,12.3,15.7,11.811,25.879-.322,6.725-6.864,13.742-12.676,16.3-6.014,2.652-12.451,2.317-18.521.033s-11.024-7.56-17.619-8.4A23.4,23.4,0,0,0,638.211,657.674Z" transform="translate(348.493 31.009)" fill="#123b51"/>
    <path id="Pfad_86" data-name="Pfad 86" d="M632.767,827.44l24.8-25.518h20.953V827.44Z" transform="translate(381.841 300.243)" fill="#123b51"/>
    <path id="Pfad_87" data-name="Pfad 87" d="M599.885,827.44,624,801.922h20.953V827.44Z" transform="translate(343.252 300.243)" fill="#123b51"/>
    <path id="Pfad_88" data-name="Pfad 88" d="M597.95,699.69V928.66h64.27V746.008h8.371L672.97,928.66h64.284l-2.378-182.652-.309-46.318Z" transform="translate(340.981 180.264)" fill="#4a6171"/>
    <path id="Pfad_89" data-name="Pfad 89" d="M747.988,750.816H594.859V656.527l153.129,23.744Z" transform="translate(337.353 129.609)" fill="#ffb319"/>
    <path id="Pfad_90" data-name="Pfad 90" d="M583.861,689.663c0-52.938,40.544-76.549,93.464-77.812q1.624-.039,3.282-.039c41.135,0,84.324,21.1,92.664,64.466,4.177,21.723,5.795,46.593-3.036,67.451-9.67,22.844-30.578,37.751-52.8,47.16-22.912,9.705-11.709-.841-23.944-7.136-21.325-10.972-29.009-13.717-29.009-13.717Z" transform="translate(324.446 77.132)" fill="#ffb319"/>
    <g id="Gruppe_45" data-name="Gruppe 45" transform="translate(977.631 640.943)">
      <path id="Pfad_91" data-name="Pfad 91" d="M630.571,651.709h0A14.515,14.515,0,0,1,616.058,637.2V590.031h29.026V637.2A14.515,14.515,0,0,1,630.571,651.709Z" transform="translate(-615.399 -589.372)" fill="#fff"/>
      <path id="Pfad_92" data-name="Pfad 92" d="M630.927,652.725a15.19,15.19,0,0,1-15.172-15.174V590.387a.658.658,0,0,1,.661-.659h29.022a.659.659,0,0,1,.661.659v47.165A15.192,15.192,0,0,1,630.927,652.725Zm-13.85-61.678v46.5a13.851,13.851,0,1,0,27.7,0v-46.5Z" transform="translate(-615.755 -589.728)" fill="#123b51"/>
    </g>
    <g id="Gruppe_46" data-name="Gruppe 46" transform="translate(964.714 627.425)">
      <path id="Pfad_93" data-name="Pfad 93" d="M662.735,601.133a8.063,8.063,0,0,1-7.953,8.168,7.706,7.706,0,0,1-2-.23,21.514,21.514,0,1,1-2.571-14.533,7.92,7.92,0,0,1,4.358-1.361A8.065,8.065,0,0,1,662.735,601.133Z" transform="translate(-609.456 -583.153)" fill="#fff"/>
      <path id="Pfad_94" data-name="Pfad 94" d="M631.961,627.826a22.159,22.159,0,0,1-.287-44.315l.3,0a22.137,22.137,0,0,1,18.815,10.472,8.626,8.626,0,0,1,4.128-1.109h.115a8.733,8.733,0,0,1,8.723,8.605h0a8.734,8.734,0,0,1-8.605,8.84,9.211,9.211,0,0,1-1.489-.109,21.894,21.894,0,0,1-3.169,7.634,22.139,22.139,0,0,1-18.221,9.981Zm.011-43c-.093,0-.187,0-.28,0a20.845,20.845,0,1,0,20.795,24.481.658.658,0,0,1,.289-.439.641.641,0,0,1,.524-.085,7.87,7.87,0,0,0,1.828.209,7.4,7.4,0,0,0-.1-14.8l-.1,0a7.307,7.307,0,0,0-4,1.245.672.672,0,0,1-.52.1.653.653,0,0,1-.422-.315A20.811,20.811,0,0,0,631.972,584.828Z" transform="translate(-609.812 -583.509)" fill="#123b51"/>
    </g>
    <g id="Gruppe_47" data-name="Gruppe 47" transform="translate(1005.111 644.386)">
      <path id="Pfad_95" data-name="Pfad 95" d="M629.068,596.276l-.035,0a.671.671,0,0,1-.635-.7,5.1,5.1,0,0,1,1.589-3.358,4.223,4.223,0,0,1,3.38-.852.671.671,0,0,1-.165,1.332,2.989,2.989,0,0,0-2.345.541,3.783,3.783,0,0,0-1.117,2.408A.675.675,0,0,1,629.068,596.276Z" transform="translate(-628.397 -591.312)" fill="#123b51"/>
    </g>
    <rect id="Rechteck_6" data-name="Rechteck 6" width="119.528" height="119.527" rx="8.429" transform="matrix(0.898, -0.441, 0.441, 0.898, 828.951, 891.316)" fill="#ccdce6"/>
    <g id="Gruppe_48" data-name="Gruppe 48" transform="translate(856.232 873.636)">
      <path id="Pfad_96" data-name="Pfad 96" d="M579.63,728.819c-4.536-2.443-12.955-5.317-19.728-7.107l1.043-2.626a105.317,105.317,0,0,1,19.508,6.658ZM608.8,770.774c.62.585,1.641,1.307,2.174,1.711-9.451,16.989-10.672,19.034-10.955,20.951a25.372,25.372,0,0,0-3.115-1.363c.95-1.465,2.765-5.695.828-9.638l-17.956-36.56-14.607,7.173-1.274-2.6L581.1,742l20.332,41.4Zm29.667-59.393a71.543,71.543,0,0,0-7.247-4.115c-34.432,19.8-37.347,21.566-38.877,23.205a16.837,16.837,0,0,0-2.48-2.563c1.478-.837,2.7-3.1,3.836-6a130,130,0,0,0,7.458-25.129l3.349.024a133.539,133.539,0,0,1-8.948,27.528L628.1,705.682a109.806,109.806,0,0,0-14.113-5.636l1.491-2.4c8.642,2.876,18.921,7.5,24.342,11.068Zm-8.41,39.722c10.338,9.27,24.644,12.587,39.9,8.992a13.2,13.2,0,0,0-.739,3.254c-14.8,2.928-28.53.107-39.272-8.631.958,9.651-2.519,21.369-16.867,36.31a8.8,8.8,0,0,0-2.806-1.18c15.293-15.739,18.013-27.642,16.385-37.073l-25.807,12.674-1.278-2.6L626,749.868a43.149,43.149,0,0,0-3.376-8.686l-3.345-6.812-16.13,7.921a80.8,80.8,0,0,1-1.217,14.5c-.715-.1-2.278-.107-3.171-.113,2.069-8.244,1.963-18.649.472-28.481l2.817-.606a82.413,82.413,0,0,1,1.08,11.481l36.023-17.689,1.276,2.6-18.549,9.11,3.345,6.81a49.335,49.335,0,0,1,3.465,8.642l25.448-12.5,1.278,2.6Z" transform="translate(-559.903 -696.783)" fill="#123b51"/>
    </g>
    <g id="Gruppe_54" data-name="Gruppe 54" transform="translate(943.488 857.258)">
      <g id="Gruppe_49" data-name="Gruppe 49">
        <path id="Pfad_97" data-name="Pfad 97" d="M634.5,689.552l-17.062,8.261-10.209,4.793,3.335,6.784-10.212,6.264,15.314,23.738,38.89-23.273Z" transform="translate(-599.69 -688.891)" fill="#fff"/>
        <path id="Pfad_98" data-name="Pfad 98" d="M616.023,740.41a.658.658,0,0,1-.554-.3l-15.315-23.736a.661.661,0,0,1,.209-.922l9.7-5.953-3.069-6.245a.662.662,0,0,1,.313-.887l10.207-4.793,17.056-8.26a.659.659,0,0,1,.813.2l20.056,26.57a.65.65,0,0,1,.122.521.663.663,0,0,1-.306.441l-38.89,23.272A.665.665,0,0,1,616.023,740.41ZM601.63,716.222l14.6,22.634,37.712-22.568-19.286-25.548-16.576,8.025-9.605,4.51,3.037,6.182a.66.66,0,0,1-.246.854Z" transform="translate(-600.047 -689.248)" fill="#123b51"/>
      </g>
      <g id="Gruppe_50" data-name="Gruppe 50" transform="translate(3.259 23.646)">
        <path id="Pfad_99" data-name="Pfad 99" d="M602.22,708.611a.673.673,0,0,1-.331-1.259l12.67-7.14a.672.672,0,0,1,.659,1.172l-12.67,7.14A.668.668,0,0,1,602.22,708.611Z" transform="translate(-601.546 -700.127)" fill="#123b51"/>
      </g>
      <g id="Gruppe_51" data-name="Gruppe 51" transform="translate(7.765 29.789)">
        <path id="Pfad_100" data-name="Pfad 100" d="M604.293,711.437a.672.672,0,0,1-.328-1.259l12.67-7.14a.671.671,0,1,1,.656,1.172l-12.67,7.14A.662.662,0,0,1,604.293,711.437Z" transform="translate(-603.619 -702.953)" fill="#123b51"/>
      </g>
      <g id="Gruppe_52" data-name="Gruppe 52" transform="translate(11.775 36.206)">
        <path id="Pfad_101" data-name="Pfad 101" d="M606.138,714.393a.674.674,0,0,1-.33-1.261l12.67-7.14a.672.672,0,0,1,.659,1.172l-12.67,7.142A.7.7,0,0,1,606.138,714.393Z" transform="translate(-605.464 -705.905)" fill="#123b51"/>
      </g>
      <g id="Gruppe_53" data-name="Gruppe 53" transform="translate(5.28 17.274)">
        <path id="Pfad_102" data-name="Pfad 102" d="M603.147,703.909a.673.673,0,0,1-.332-1.256l9.381-5.371a.677.677,0,0,1,.917.252.668.668,0,0,1-.25.915l-9.381,5.371A.66.66,0,0,1,603.147,703.909Z" transform="translate(-602.476 -697.195)" fill="#123b51"/>
      </g>
    </g>
    <path id="Pfad_103" data-name="Pfad 103" d="M687.132,656.527c4.784,47.247-73.346,65.508-73.346,65.508l4.945,6.275,20.812,31.954s52-11.2,77.471-43.341" transform="translate(359.565 129.609)" fill="#ffb319"/>
    <circle id="Ellipse_1" data-name="Ellipse 1" cx="46.128" cy="46.128" r="46.128" transform="translate(559.056 546.089)" fill="#123b51"/>
    <g id="Gruppe_55" data-name="Gruppe 55" transform="translate(562.343 547.681)">
      <path id="Pfad_104" data-name="Pfad 104" d="M458.917,560.147a14.63,14.63,0,0,0,1.5,1.619,5.069,5.069,0,0,1,.9,5.123,4.715,4.715,0,0,0-.522,1.6c-.024,1.419,1.691,2.169,3.11,2.324s3.1.213,3.893,1.391c.9,1.328-.093,3.258-1.561,3.928a8.549,8.549,0,0,1-4.764.215c-4.406-.646-9.853-.861-12.274,2.849-1.741,2.669-1.015,6.195.017,9.205a3.522,3.522,0,0,0,.8,1.471,5.1,5.1,0,0,0,2.017.874c4.536,1.491,6.1,7.277,5.243,11.944s-3.356,8.92-4.156,13.6c6.769-1.58,12.068-6.673,16.839-11.694,2.45-2.576,5.006-5.547,5.012-9.09,0-2.543-1.335-4.9-1.7-7.418s.926-5.719,3.491-5.79c.956-.026,2,.389,2.819-.109a2.7,2.7,0,0,0,1-1.834,26.369,26.369,0,0,0-5.83-22.292c-2.078-2.469-5.923-6.608-9.479-6.379C462.057,551.887,456.728,556.754,458.917,560.147Z" transform="translate(-397.165 -541.128)" fill="#fff"/>
      <path id="Pfad_105" data-name="Pfad 105" d="M458.975,580.764l-.85,3.043c-.211.757-.3,1.789.417,2.111.57.254,1.206-.172,1.637-.619a8.177,8.177,0,0,0,2.139-6.873,1.694,1.694,0,0,0-2.6-.57,2.843,2.843,0,0,0-.756,2.854" transform="translate(-385.638 -510.833)" fill="#fff"/>
      <path id="Pfad_106" data-name="Pfad 106" d="M439.72,612.442c-1.791-4.369-1.039-9.286-.769-13.994s-.2-9.968-3.66-13.194c-2.734-2.547-6.925-3.384-9.129-6.4-1.789-2.443-1.8-5.825-.785-8.67a27.224,27.224,0,0,1,4.832-7.631c2.38-2.954,4.836-5.932,8-8.044s7.179-3.276,10.842-2.226c-1.474,2.558-5.21,2.869-7.129,5.117a5.108,5.108,0,0,0,2.406,7.836,4.176,4.176,0,0,0,2.182.052,9.468,9.468,0,0,0,3.33-2.206,8.348,8.348,0,0,1,6.062-2.169c2.191.263,4.249,2.2,4.03,4.384a6.517,6.517,0,0,1-1.615,3.2,60.548,60.548,0,0,1-7.242,7.742,41.661,41.661,0,0,0-5.812,5.682,9.547,9.547,0,0,0-2.087,7.584,11.2,11.2,0,0,1,18.808,2.63c.6,1.367,1.276,3.132,2.776,3.2,1.25,1.422.587,3.786-.859,5.01s-3.4,1.617-5.26,2.015-3.812.909-5.123,2.276c-1.437,1.5-1.782,3.7-2.063,5.749-.361,2.658-.706,5.454.278,7.951a15.339,15.339,0,0,1,1.011,2.574c.963,4.9-4.306.919-5.653-.128C444.1,618.45,441.194,616.037,439.72,612.442Z" transform="translate(-424.694 -540.869)" fill="#fff"/>
      <path id="Pfad_107" data-name="Pfad 107" d="M443.088,554.383a6.4,6.4,0,0,1,2.184.167c1.635.515,2.576,2.241,2.915,3.908s.248,3.406.665,5.056a3.379,3.379,0,0,0,2.211,2.685,3,3,0,0,0,3.113-2.043,16.594,16.594,0,0,0,.687-3.956,12.331,12.331,0,0,1,9.188-9.929,5.512,5.512,0,0,0-3.636-2.78c-4.291-1.178-8.94-.654-13.189.441a41.973,41.973,0,0,0-6.369,2.206c-1.2.524-4.362,1.554-4.841,2.874C435.178,555.326,441.682,554.437,443.088,554.383Z" transform="translate(-411.495 -546.821)" fill="#fff"/>
      <path id="Pfad_108" data-name="Pfad 108" d="M449.484,553.7c-.635-.578-1.785.1-1.835.952a2.187,2.187,0,0,0,1.439,1.943,16.657,16.657,0,0,0,2.5.659,1.958,1.958,0,0,0,1.08.115c.6-.189.8-.956.728-1.58a5.108,5.108,0,0,1-.13-1.867,4.882,4.882,0,0,0-2.68-.661" transform="translate(-397.757 -539.264)" fill="#fff"/>
    </g>
    <g id="Gruppe_56" data-name="Gruppe 56" transform="translate(748.109 766.843)">
      <path id="Pfad_109" data-name="Pfad 109" d="M510.831,712.493a.773.773,0,0,1-.141-.015.674.674,0,0,1-.515-.8,73.107,73.107,0,0,1,4.5-12.848.671.671,0,1,1,1.226.543,73.822,73.822,0,0,0-4.415,12.589A.673.673,0,0,1,510.831,712.493Zm7.408-18.765a.653.653,0,0,1-.315-.081.67.67,0,0,1-.276-.909,91.173,91.173,0,0,1,7.229-11.448.672.672,0,1,1,1.078.8,90.051,90.051,0,0,0-7.123,11.279A.673.673,0,0,1,518.238,693.729Zm11.385-16.6a.673.673,0,0,1-.507-1.115,82.047,82.047,0,0,1,9.7-9.44.672.672,0,1,1,.854,1.037,80.523,80.523,0,0,0-9.535,9.286A.673.673,0,0,1,529.624,677.129Zm14.98-13.4a.674.674,0,0,1-.38-1.228,79.433,79.433,0,0,1,11.757-6.684.671.671,0,1,1,.561,1.219,78.425,78.425,0,0,0-11.557,6.573A.68.68,0,0,1,544.6,663.725Zm17.856-9.186a.672.672,0,0,1-.23-1.3,88.248,88.248,0,0,1,13.013-3.626.655.655,0,0,1,.789.526.668.668,0,0,1-.526.789,87.333,87.333,0,0,0-12.818,3.571A.7.7,0,0,1,562.46,654.539Zm53-4.078a.694.694,0,0,1-.1-.009c-4.523-.652-9-1.091-13.307-1.3a.67.67,0,0,1-.637-.7.677.677,0,0,1,.7-.637c4.347.213,8.866.656,13.431,1.317a.672.672,0,0,1-.1,1.337Zm-33.467-.6a.672.672,0,0,1-.085-1.339,110.631,110.631,0,0,1,13.463-.871h0a.674.674,0,0,1,0,1.347,108.554,108.554,0,0,0-13.3.856A.537.537,0,0,1,581.994,649.862Z" transform="translate(-510.159 -647.651)" fill="#ffb319"/>
    </g>
    <g id="Gruppe_57" data-name="Gruppe 57" transform="translate(808.627 996.577)">
      <path id="Pfad_110" data-name="Pfad 110" d="M571.7,806.055l-.015,0a109.971,109.971,0,0,1-13.461-1.145.67.67,0,0,1-.567-.761.678.678,0,0,1,.763-.567,109.008,109.008,0,0,0,13.3,1.132.672.672,0,0,1-.015,1.343Zm6.716-.087a.672.672,0,0,1-.033-1.343A87.84,87.84,0,0,0,591.588,803a.662.662,0,0,1,.793.524.671.671,0,0,1-.524.791,88.887,88.887,0,0,1-13.411,1.654Zm-26.716-2.2a.56.56,0,0,1-.133-.015c-4.26-.854-8.662-1.965-13.085-3.3a.672.672,0,0,1,.387-1.287c4.382,1.319,8.744,2.419,12.961,3.269a.671.671,0,0,1-.13,1.33Zm46.537-1.046a.673.673,0,0,1-.187-1.319,77.968,77.968,0,0,0,12.4-4.784.672.672,0,0,1,.591,1.206,79.2,79.2,0,0,1-12.62,4.869A.621.621,0,0,1,598.235,802.723Zm18.417-8.029a.672.672,0,0,1-.346-1.25,80.776,80.776,0,0,0,10.807-7.766.672.672,0,0,1,.872,1.022A81.922,81.922,0,0,1,617,794.6.667.667,0,0,1,616.652,794.694Zm15.839-12.387a.673.673,0,0,1-.474-1.148,90.5,90.5,0,0,0,8.716-10.094.672.672,0,0,1,1.078.8,91.469,91.469,0,0,1-8.846,10.242A.661.661,0,0,1,632.491,782.307ZM645.084,766.6a.672.672,0,0,1-.567-1.033,73.333,73.333,0,0,0,6.234-11.787.672.672,0,1,1,1.256.478,73.111,73.111,0,0,1-6.356,12.031A.672.672,0,0,1,645.084,766.6Z" transform="translate(-538.002 -753.344)" fill="#ffb319"/>
    </g>
    <g id="Gruppe_58" data-name="Gruppe 58" transform="translate(844.929 758.695)">
      <path id="Pfad_111" data-name="Pfad 111" d="M555.375,660.888a.672.672,0,0,1-.02-1.343l17.071-.48-8.877-14.133a.671.671,0,1,1,1.137-.713l9.5,15.128a.67.67,0,0,1-.55,1.026l-18.245.513Z" transform="translate(-554.703 -643.902)" fill="#ffb319"/>
    </g>
    <g id="Gruppe_59" data-name="Gruppe 59" transform="translate(799.955 1034.996)">
      <path id="Pfad_112" data-name="Pfad 112" d="M541.481,788.885a.674.674,0,0,1-.622-.417l-6.8-16.524a.668.668,0,0,1,.091-.665.694.694,0,0,1,.626-.254l18.069,2.6a.67.67,0,0,1,.57.759.657.657,0,0,1-.761.57l-16.9-2.428,6.349,15.437a.674.674,0,0,1-.367.876A.7.7,0,0,1,541.481,788.885Z" transform="translate(-534.012 -771.02)" fill="#ffb319"/>
    </g>
    <g id="Gruppe_60" data-name="Gruppe 60" transform="translate(998.25 845.677)">
      <path id="Pfad_113" data-name="Pfad 113" d="M626.1,728.972a.857.857,0,0,1-.181-1.7c.517-.111,52-11.511,76.978-43.035a.859.859,0,0,1,1.345,1.067c-25.368,32.008-77.441,43.533-77.962,43.646A.853.853,0,0,1,626.1,728.972Z" transform="translate(-625.241 -683.92)" fill="#fff"/>
    </g>
    <g id="Gruppe_61" data-name="Gruppe 61" transform="translate(987.968 785.279)">
      <path id="Pfad_114" data-name="Pfad 114" d="M621.368,718.6a.858.858,0,0,1-.289-1.665c22.836-8.214,60.643-26.913,57.309-59.856a.858.858,0,0,1,1.706-.174c3.452,34.1-35.129,53.259-58.435,61.645A.911.911,0,0,1,621.368,718.6Z" transform="translate(-620.51 -656.133)" fill="#fff"/>
    </g>
  </g>
</svg>
