<?xml version="1.0" encoding="UTF-8" standalone="no"?>
<svg
   width="191.38452"
   height="144.44902"
   viewBox="0 0 191.38452 144.44902"
   fill="none"
   version="1.1"
   id="svg253"
   sodipodi:docname="1.svg"
   inkscape:version="1.2 (dc2aeda, 2022-05-15)"
   xmlns:inkscape="http://www.inkscape.org/namespaces/inkscape"
   xmlns:sodipodi="http://sodipodi.sourceforge.net/DTD/sodipodi-0.dtd"
   xmlns="http://www.w3.org/2000/svg"
   xmlns:svg="http://www.w3.org/2000/svg">
  <sodipodi:namedview
     id="namedview255"
     pagecolor="#ffffff"
     bordercolor="#000000"
     borderopacity="0.25"
     inkscape:showpageshadow="2"
     inkscape:pageopacity="0.0"
     inkscape:pagecheckerboard="0"
     inkscape:deskcolor="#d1d1d1"
     showgrid="false"
     inkscape:zoom="3.1994018"
     inkscape:cx="60.480056"
     inkscape:cy="94.548925"
     inkscape:window-width="1728"
     inkscape:window-height="991"
     inkscape:window-x="0"
     inkscape:window-y="38"
     inkscape:window-maximized="0"
     inkscape:current-layer="g137" />
  <g
     clip-path="url(#clip0_529_39646)"
     id="g137"
     transform="translate(-56.616622,-40.597471)">
    <g
       opacity="0.3"
       id="g27"
       style="display:inline">
      <path
         d="m 246.814,109.016 c -0.758,3.032 -1.982,5.963 -2.11,9.131 -0.1,2.52 -0.693,4.401 -2.017,5.834 -0.512,0.557 -1.945,0 -2.484,-0.831 -0.849,-1.305 0.548,-3.917 -1.105,-4.245 -2.063,-0.411 -3.213,-0.01 -3.953,2.702 -0.785,2.812 1.087,5.195 1.972,7.843 0.201,0.603 0.776,1.434 -0.438,1.598 -1.826,0.246 -4.301,-0.904 -5.022,-2.703 -0.438,-1.104 -2.264,-0.648 -2.867,-1.378 -0.876,-1.059 -0.84,-2.274 -1.808,-1.982 -0.776,0.238 -1.314,0.977 -2.026,1.406 -1.361,0.813 -3.479,3.57 -5.113,3.333 -6.136,-0.886 -9.213,-0.676 -13.194,0.776 -1.214,0.438 -2.127,-0.347 -3.031,-0.173 -1.16,0.228 -1.771,-0.685 -2.602,-1.142 -0.219,0.594 -0.667,1.58 -0.165,2.246 0.411,0.548 1.397,0.493 2.265,0.493 1.022,0 2.264,0.548 3.533,1.489 0.63,0.465 2.009,0.274 2.63,0.173 2.173,-0.347 3.351,-1.515 5.679,-0.557 2.428,0.995 4.227,2.374 4.163,5.305 -0.045,2.073 0.365,4.255 0.082,6.199 -0.803,5.451 -1.944,9.533 -5.587,14.226 -0.731,0.94 -0.886,2.866 -1.653,3.807 -1.269,1.552 -3.661,2.849 -5.131,4.255 -1.278,1.223 -2.365,3.241 -3.798,4.254 -2.548,1.808 -3.013,3.114 -5.26,2.036 -1.269,-0.611 -3.478,-3.944 -4.327,-5.122 -1.196,-1.661 -2.045,-3.542 -2.484,-5.542 -0.237,-1.086 -0.265,-2.173 -0.374,-3.278 -0.228,-2.364 -1.041,-3.15 -2.867,-4.437 -1.817,-1.278 -2.365,-2.42 -3.597,-4.273 -1.699,-2.556 -4.045,-2.502 -6.355,-4.026 -1.077,-0.703 -1.735,-1.434 -2.036,-2.712 -0.137,-0.603 0.21,-2.94 0.219,-3.479 0.027,-1.415 -0.374,-2.529 -0.338,-3.88 0.119,-4.081 6.072,-7.825 9.34,-9.286 2.384,-1.059 3.908,-0.365 5.981,-0.465 0.986,-0.046 2.593,-0.548 3.497,0.264 0.621,0.557 1.488,0.758 2.191,1.215 0.995,0.228 2.036,0.392 3.141,0.392 0.036,0 0.046,0.028 0.082,0.028 -0.63,-0.366 -1.242,-0.786 -1.844,-1.279 -1.772,-1.46 -3.214,-3.223 -5.405,-4.081 -2.237,-0.876 -4.465,-0.621 -6.803,-0.484 -2.465,0.146 -4.766,-0.31 -6.765,-0.821 -2.328,-0.594 -3.214,-2.493 -3.488,-5.415 -0.1,-1.031 0.575,-2.529 0.658,-3.679 0.127,-1.826 -1.215,-3.095 0.054,-5.077 1.288,-2.018 2.721,-4.51 4.83,-5.688 1.854,-1.032 4.054,-1.315 5.962,-2.2186 1.836,-0.8674 3.497,-2.0726 5.077,-3.3417 2.511,-1.9996 4.839,-4.2456 7.605,-5.9165 6.273,-3.7891 13.86,-1.8534 20.242,-4.9943 3.178,-1.5613 6.647,-6.8203 10.537,-6.9482 -8.701,-8.6281 -19.987,-14.645 -32.596,-16.7359 1.206,1.1139 2.201,2.3556 2.858,3.7526 1.269,2.7026 0.21,4.063 -1.187,6.2725 -1.369,2.1822 -0.073,4.5743 -2.118,6.2634 -1.516,1.26 -4.154,1.6252 -5.962,2.2826 -2.347,0.8491 -4.684,1.7074 -7.03,2.5383 -2.383,0.8308 -5.049,1.6343 -7.606,1.196 -2.766,-0.4656 -3.387,-1.7621 -4.574,-3.9625 -0.238,-0.4383 -0.448,-2.9674 -2.429,-3.0496 -2.648,-0.1095 -4.638,-0.2191 -6.291,0.8765 -2.228,1.4792 -2.912,4.6656 -3.433,7.2678 -0.666,3.3234 0.95,7.4321 -1.077,10.4086 -1.205,1.7621 -3.369,2.4378 -5.387,2.6752 -3.972,0.4748 -7.797,-0.9952 -11.733,-1.0226 -3.168,-0.0183 -5.523,1.4791 -6.135,3.9624 -0.42,1.708 0.493,3.534 0.539,5.305 0.063,2.666 -0.147,4.949 -0.667,7.341 -0.201,0.922 -1.032,2.017 -1.771,1.433 -2.055,-1.616 -3.652,-3.506 -4.858,-5.56 -0.429,2.282 -0.73,4.611 -0.894,6.975 0.803,0.338 1.917,1.233 2.675,1.872 2.292,1.945 2.091,5.652 3.451,8.245 2.1,3.999 6.19,4.629 9.496,7.158 1.771,1.36 3.241,3.132 3.442,5.442 0.109,1.223 -0.238,2.1 -0.429,3.277 -0.576,3.516 -0.064,6.136 1.607,9.295 2.921,5.524 7.541,10.947 13.503,13.148 1.06,0.392 2.593,0.776 3.15,1.662 0.521,0.83 -2.474,1.99 -3.204,2.428 -2.183,1.306 -4.292,1.963 -6.328,2.128 9.368,6.044 20.507,9.559 32.477,9.559 33.143,0 60.005,-26.861 60.005,-60.005 0.009,-4.09 -0.402,-8.098 -1.187,-11.979 z m -87.834,-5.715 c -0.356,0.904 -0.621,1.552 -0.749,2.62 -0.082,0.685 0.064,1.269 -0.447,1.826 -0.713,0.776 -1.781,0.612 -2.575,0.055 -1.771,-1.233 -2.931,-3.323 -4.702,-4.638 -0.722,-0.53 -1.735,-0.74 -1.479,-1.753 0.292,-1.114 1.89,-1.4336 2.83,-1.4245 1.242,0.0091 2.557,0.7485 3.57,-0.0365 0.822,-0.6391 2.027,-0.9861 2.703,-0.4839 1.104,0.8309 1.305,2.6749 0.849,3.8349 z"
         fill="#e6eff1"
         id="path9" />
      <path
         d="m 246.814,109.016 c -0.758,3.032 -1.982,5.963 -2.11,9.131 -0.1,2.52 -0.693,4.401 -2.017,5.834 -0.512,0.557 -1.945,0 -2.484,-0.831 -0.849,-1.305 0.548,-3.917 -1.105,-4.245 -2.063,-0.411 -3.213,-0.01 -3.953,2.702 -0.785,2.812 1.087,5.195 1.972,7.843 0.201,0.603 0.776,1.434 -0.438,1.598 -1.826,0.246 -4.301,-0.904 -5.022,-2.703 -0.438,-1.104 -2.264,-0.648 -2.867,-1.378 -0.876,-1.059 -0.84,-2.274 -1.808,-1.982 -0.776,0.238 -1.314,0.977 -2.026,1.406 -1.361,0.813 -3.479,3.57 -5.113,3.333 -6.136,-0.886 -9.213,-0.676 -13.194,0.776 -1.214,0.438 -2.127,-0.347 -3.031,-0.173 -1.16,0.228 -1.771,-0.685 -2.602,-1.142 -0.219,0.594 -0.667,1.58 -0.165,2.246 0.411,0.548 1.397,0.493 2.265,0.493 1.022,0 2.264,0.548 3.533,1.489 0.63,0.465 2.009,0.274 2.63,0.173 2.173,-0.347 3.351,-1.515 5.679,-0.557 2.428,0.995 4.227,2.374 4.163,5.305 -0.045,2.073 0.365,4.255 0.082,6.199 -0.803,5.451 -1.944,9.533 -5.587,14.226 -0.731,0.94 -0.886,2.866 -1.653,3.807 -1.269,1.552 -3.661,2.849 -5.131,4.255 -1.278,1.223 -2.365,3.241 -3.798,4.254 -2.548,1.808 -3.013,3.114 -5.26,2.036 -1.269,-0.611 -3.478,-3.944 -4.327,-5.122 -1.196,-1.661 -2.045,-3.542 -2.484,-5.542 -0.237,-1.086 -0.265,-2.173 -0.374,-3.278 -0.228,-2.364 -1.041,-3.15 -2.867,-4.437 -1.817,-1.278 -2.365,-2.42 -3.597,-4.273 -1.699,-2.556 -4.045,-2.502 -6.355,-4.026 -1.077,-0.703 -1.735,-1.434 -2.036,-2.712 -0.137,-0.603 0.21,-2.94 0.219,-3.479 0.027,-1.415 -0.374,-2.529 -0.338,-3.88 0.119,-4.081 6.072,-7.825 9.34,-9.286 2.384,-1.059 3.908,-0.365 5.981,-0.465 0.986,-0.046 2.593,-0.548 3.497,0.264 0.621,0.557 1.488,0.758 2.191,1.215 0.995,0.228 2.036,0.392 3.141,0.392 0.036,0 0.046,0.028 0.082,0.028 -0.63,-0.366 -1.242,-0.786 -1.844,-1.279 -1.772,-1.46 -3.214,-3.223 -5.405,-4.081 -2.237,-0.876 -4.465,-0.621 -6.803,-0.484 -2.465,0.146 -4.766,-0.31 -6.765,-0.821 -2.328,-0.594 -3.214,-2.493 -3.488,-5.415 -0.1,-1.031 0.575,-2.529 0.658,-3.679 0.127,-1.826 -1.215,-3.095 0.054,-5.077 1.288,-2.018 2.721,-4.51 4.83,-5.688 1.854,-1.032 4.054,-1.315 5.962,-2.2186 1.836,-0.8674 3.497,-2.0726 5.077,-3.3417 2.511,-1.9996 4.839,-4.2456 7.605,-5.9165 6.273,-3.7891 13.86,-1.8534 20.242,-4.9943 3.178,-1.5613 6.647,-6.8203 10.537,-6.9482 -8.701,-8.6281 -19.987,-14.645 -32.596,-16.7359 1.206,1.1139 2.201,2.3556 2.858,3.7526 1.269,2.7026 0.21,4.063 -1.187,6.2725 -1.369,2.1822 -0.073,4.5743 -2.118,6.2634 -1.516,1.26 -4.154,1.6252 -5.962,2.2826 -2.347,0.8491 -4.684,1.7074 -7.03,2.5383 -2.383,0.8308 -5.049,1.6343 -7.606,1.196 -2.766,-0.4656 -3.387,-1.7621 -4.574,-3.9625 -0.238,-0.4383 -0.448,-2.9674 -2.429,-3.0496 -2.648,-0.1095 -4.638,-0.2191 -6.291,0.8765 -2.228,1.4792 -2.912,4.6656 -3.433,7.2678 -0.666,3.3234 0.95,7.4321 -1.077,10.4086 -1.205,1.7621 -3.369,2.4378 -5.387,2.6752 -3.972,0.4748 -7.797,-0.9952 -11.733,-1.0226 -3.168,-0.0183 -5.523,1.4791 -6.135,3.9624 -0.42,1.708 0.493,3.534 0.539,5.305 0.063,2.666 -0.147,4.949 -0.667,7.341 -0.201,0.922 -1.032,2.017 -1.771,1.433 -2.055,-1.616 -3.652,-3.506 -4.858,-5.56 -0.429,2.282 -0.73,4.611 -0.894,6.975 0.803,0.338 1.917,1.233 2.675,1.872 2.292,1.945 2.091,5.652 3.451,8.245 2.1,3.999 6.19,4.629 9.496,7.158 1.771,1.36 3.241,3.132 3.442,5.442 0.109,1.223 -0.238,2.1 -0.429,3.277 -0.576,3.516 -0.064,6.136 1.607,9.295 2.921,5.524 7.541,10.947 13.503,13.148 1.06,0.392 2.593,0.776 3.15,1.662 0.521,0.83 -2.474,1.99 -3.204,2.428 -2.183,1.306 -4.292,1.963 -6.328,2.128 9.368,6.044 20.507,9.559 32.477,9.559 33.143,0 60.005,-26.861 60.005,-60.005 0.009,-4.09 -0.402,-8.098 -1.187,-11.979 z m -87.834,-5.715 c -0.356,0.904 -0.621,1.552 -0.749,2.62 -0.082,0.685 0.064,1.269 -0.447,1.826 -0.713,0.776 -1.781,0.612 -2.575,0.055 -1.771,-1.233 -2.931,-3.323 -4.702,-4.638 -0.722,-0.53 -1.735,-0.74 -1.479,-1.753 0.292,-1.114 1.89,-1.4336 2.83,-1.4245 1.242,0.0091 2.557,0.7485 3.57,-0.0365 0.822,-0.6391 2.027,-0.9861 2.703,-0.4839 1.104,0.8309 1.305,2.6749 0.849,3.8349 z"
         fill="url(#paint0_linear_529_39646)"
         fill-opacity="0.15"
         id="path11"
         style="fill:url(#paint0_linear_529_39646)" />
      <path
         fill-rule="evenodd"
         clip-rule="evenodd"
         d="m 133.916,115.38 c 0.731,0.585 1.571,-0.52 1.772,-1.433 0.52,-2.401 0.721,-4.675 0.666,-7.341 -0.021,-0.699 -0.175,-1.406 -0.329,-2.11 -0.237,-1.09 -0.474,-2.174 -0.219,-3.222 0.612,-2.4835 2.968,-3.9809 6.136,-3.9626 1.676,0.0116 3.332,0.285 4.988,0.5583 2.232,0.3684 4.464,0.7368 6.744,0.4643 2.018,-0.2374 4.182,-0.9131 5.387,-2.6752 1.247,-1.8311 1.115,-4.0872 0.985,-6.3283 -0.082,-1.4019 -0.164,-2.7979 0.093,-4.0803 0.52,-2.6022 1.205,-5.7887 3.433,-7.2678 1.615,-1.071 3.553,-0.9904 6.113,-0.8838 l 0.177,0.0073 c 1.592,0.066 2.04,1.7101 2.278,2.5821 0.059,0.2138 0.104,0.3812 0.151,0.4675 l 0.105,0.1939 c 1.121,2.0828 1.785,3.3168 4.469,3.7686 2.557,0.4383 5.223,-0.3652 7.606,-1.1961 1.627,-0.5674 3.241,-1.1567 4.856,-1.7467 v 0 0 c 0.724,-0.2643 1.448,-0.5288 2.174,-0.7915 0.546,-0.1976 1.166,-0.3687 1.807,-0.5457 1.49,-0.412 3.095,-0.8556 4.156,-1.7369 1.143,-0.9441 1.242,-2.1079 1.346,-3.3319 0.082,-0.9658 0.168,-1.9691 0.772,-2.9315 0.089,-0.1416 0.176,-0.2797 0.262,-0.4148 l 0.001,-0.0015 c 1.252,-1.9738 2.111,-3.3275 0.924,-5.8562 -0.658,-1.397 -1.653,-2.6387 -2.858,-3.7526 C 194.688,61.2922 191.383,61 188.004,61 c -29.308,0 -53.704,21.0272 -58.945,48.811 1.205,2.063 2.803,3.944 4.857,5.569 z m 61.06,-20.8598 v -1e-4 h 0.001 c 1.725,-1.4562 3.452,-2.9133 5.395,-4.0867 3.333,-2.0134 7.037,-2.413 10.728,-2.8111 3.254,-0.3511 6.499,-0.701 9.468,-2.1558 1.22,-0.5995 2.484,-1.7442 3.799,-2.9342 2.109,-1.9093 4.347,-3.9353 6.737,-4.014 8.154,8.1717 13.97,18.6716 16.353,30.4227 -0.227,0.905 -0.495,1.802 -0.764,2.699 -0.631,2.104 -1.262,4.209 -1.345,6.431 -0.101,2.52 -0.694,4.401 -2.018,5.834 -0.511,0.557 -1.945,0 -2.484,-0.831 -0.356,-0.554 -0.31,-1.345 -0.265,-2.096 0.06,-1.016 0.116,-1.96 -0.839,-2.149 -2.064,-0.402 -3.214,0 -3.954,2.702 -0.566,2.027 0.248,3.83 1.078,5.67 v 0.001 c 0.322,0.713 0.647,1.432 0.894,2.172 0.032,0.095 0.072,0.194 0.114,0.296 0.223,0.551 0.473,1.163 -0.552,1.302 -1.826,0.256 -4.3,-0.904 -5.022,-2.702 -0.246,-0.622 -0.932,-0.749 -1.592,-0.872 -0.513,-0.095 -1.011,-0.188 -1.274,-0.507 -0.317,-0.386 -0.513,-0.79 -0.681,-1.136 -0.296,-0.612 -0.503,-1.038 -1.127,-0.845 -0.47,0.143 -0.853,0.472 -1.241,0.803 -0.252,0.216 -0.505,0.433 -0.786,0.603 -0.449,0.268 -0.981,0.748 -1.55,1.262 h -0.001 c -1.155,1.044 -2.467,2.229 -3.562,2.07 -6.127,-0.876 -9.213,-0.675 -13.194,0.776 -0.698,0.253 -1.295,0.099 -1.849,-0.043 -0.408,-0.105 -0.794,-0.204 -1.182,-0.13 -0.834,0.163 -1.38,-0.256 -1.926,-0.675 -0.219,-0.168 -0.438,-0.336 -0.676,-0.466 -0.02,0.053 -0.041,0.109 -0.063,0.167 -0.228,0.598 -0.559,1.463 -0.101,2.079 0.377,0.502 1.237,0.498 2.046,0.493 0.073,0 0.146,0 0.218,0 1.023,0 2.264,0.547 3.533,1.488 0.64,0.466 2.018,0.274 2.63,0.173 0.682,-0.109 1.266,-0.297 1.818,-0.476 1.207,-0.391 2.263,-0.732 3.861,-0.081 2.429,0.996 4.227,2.374 4.164,5.305 -0.019,0.818 0.037,1.657 0.091,2.492 v 0 0 c 0.084,1.271 0.167,2.534 -0.009,3.708 -0.804,5.45 -1.945,9.532 -5.588,14.225 -0.35,0.452 -0.567,1.141 -0.786,1.838 -0.233,0.739 -0.468,1.485 -0.867,1.969 -0.734,0.898 -1.845,1.711 -2.935,2.509 -0.794,0.581 -1.577,1.153 -2.196,1.746 -0.535,0.512 -1.037,1.162 -1.544,1.819 -0.705,0.913 -1.421,1.841 -2.254,2.436 -0.608,0.431 -1.097,0.833 -1.52,1.181 h -0.001 v 0 c -1.35,1.111 -2.028,1.668 -3.738,0.855 -1.108,-0.526 -2.931,-3.13 -3.942,-4.574 v 0 -10e-4 c -0.148,-0.21 -0.278,-0.396 -0.386,-0.548 -1.196,-1.661 -2.045,-3.542 -2.483,-5.542 -0.172,-0.784 -0.234,-1.569 -0.296,-2.361 -0.024,-0.304 -0.048,-0.61 -0.079,-0.916 -0.228,-2.365 -1.041,-3.15 -2.867,-4.438 -1.526,-1.073 -2.157,-2.05 -3.05,-3.434 -0.17,-0.264 -0.35,-0.542 -0.547,-0.839 -1.098,-1.652 -2.462,-2.217 -3.916,-2.82 -0.796,-0.329 -1.619,-0.67 -2.439,-1.206 -1.077,-0.703 -1.735,-1.434 -2.036,-2.712 -0.098,-0.406 0.031,-1.601 0.129,-2.502 v 0 c 0.047,-0.435 0.087,-0.801 0.09,-0.977 0.014,-0.707 -0.08,-1.34 -0.172,-1.964 -0.093,-0.625 -0.184,-1.241 -0.166,-1.916 0.119,-4.081 6.072,-7.825 9.341,-9.286 1.632,-0.731 2.866,-0.632 4.145,-0.529 0.588,0.047 1.185,0.095 1.835,0.064 0.226,-0.013 0.484,-0.048 0.757,-0.085 0.929,-0.127 2.042,-0.278 2.74,0.35 0.372,0.333 0.83,0.543 1.29,0.753 v 0 c 0.308,0.141 0.616,0.282 0.901,0.461 1.005,0.228 2.036,0.392 3.141,0.392 0.025,0 0.041,0.009 0.057,0.017 0.008,0.004 0.016,0.008 0.025,0.011 -0.63,-0.365 -1.251,-0.785 -1.844,-1.278 -0.487,-0.402 -0.949,-0.826 -1.408,-1.248 -1.213,-1.114 -2.408,-2.211 -3.997,-2.834 -2.014,-0.789 -4.02,-0.66 -6.105,-0.527 h -0.001 c -0.231,0.015 -0.463,0.03 -0.696,0.043 -2.465,0.147 -4.757,-0.31 -6.766,-0.821 -2.337,-0.594 -3.214,-2.493 -3.488,-5.415 -0.056,-0.583 0.135,-1.315 0.327,-2.05 0.147,-0.564 0.295,-1.129 0.331,-1.629 0.047,-0.668 -0.103,-1.261 -0.25,-1.841 -0.255,-1.005 -0.5,-1.973 0.305,-3.236 0.122,-0.191 0.245,-0.387 0.371,-0.586 1.194,-1.894 2.55,-4.044 4.458,-5.102 1.013,-0.563 2.129,-0.903 3.244,-1.243 0.926,-0.283 1.853,-0.565 2.719,-0.9754 1.835,-0.8674 3.497,-2.0818 5.076,-3.3417 0.748,-0.5953 1.479,-1.2124 2.21,-1.8297 z m -32.494,70.9158 c 0.979,0.335 2.115,0.724 2.569,1.458 0.406,0.649 -1.33,1.498 -2.454,2.047 l -0.001,0.001 h -0.001 c -0.315,0.154 -0.582,0.285 -0.74,0.38 -2.182,1.306 -4.291,1.964 -6.327,2.128 C 138.975,160.767 128,142.169 128,121.005 c 0,-1.415 0.064,-2.822 0.155,-4.209 0.804,0.328 1.918,1.223 2.675,1.871 1.409,1.195 1.876,3.056 2.342,4.915 0.293,1.166 0.585,2.331 1.11,3.33 1.378,2.625 3.614,3.798 5.922,5.01 1.209,0.634 2.437,1.279 3.573,2.148 1.772,1.361 3.241,3.132 3.442,5.442 0.078,0.865 -0.073,1.556 -0.235,2.303 -0.068,0.31 -0.138,0.629 -0.194,0.975 -0.575,3.524 -0.064,6.135 1.607,9.294 2.922,5.524 7.542,10.948 13.504,13.148 0.181,0.067 0.377,0.134 0.579,0.204 h 0.001 z m -9.398,-65.272 c 0.844,0.168 1.667,0.332 2.352,-0.205 0.822,-0.6391 2.018,-0.9861 2.703,-0.4748 1.104,0.8218 1.305,2.6658 0.849,3.8258 -0.018,0.045 -0.035,0.089 -0.052,0.133 -0.33,0.844 -0.575,1.472 -0.697,2.487 -0.021,0.174 -0.027,0.342 -0.033,0.504 -0.017,0.477 -0.033,0.907 -0.414,1.322 -0.713,0.767 -1.781,0.603 -2.575,0.055 -0.907,-0.631 -1.653,-1.489 -2.404,-2.352 -0.715,-0.822 -1.434,-1.649 -2.298,-2.286 -0.174,-0.128 -0.365,-0.237 -0.552,-0.344 -0.587,-0.337 -1.128,-0.647 -0.927,-1.409 0.292,-1.114 1.89,-1.4336 2.83,-1.4245 0.402,0.0055 0.813,0.0875 1.218,0.1685 z"
         fill="url(#paint1_linear_529_39646)"
         id="path13"
         style="fill:url(#paint1_linear_529_39646)" />
      <path
         fill-rule="evenodd"
         clip-rule="evenodd"
         d="m 133.916,115.38 c 0.731,0.585 1.571,-0.52 1.772,-1.433 0.52,-2.401 0.721,-4.675 0.666,-7.341 -0.021,-0.699 -0.175,-1.406 -0.329,-2.11 -0.237,-1.09 -0.474,-2.174 -0.219,-3.222 0.612,-2.4835 2.968,-3.9809 6.136,-3.9626 1.676,0.0116 3.332,0.285 4.988,0.5583 2.232,0.3684 4.464,0.7368 6.744,0.4643 2.018,-0.2374 4.182,-0.9131 5.387,-2.6752 1.247,-1.8311 1.115,-4.0872 0.985,-6.3283 -0.082,-1.4019 -0.164,-2.7979 0.093,-4.0803 0.52,-2.6022 1.205,-5.7887 3.433,-7.2678 1.615,-1.071 3.553,-0.9904 6.113,-0.8838 l 0.177,0.0073 c 1.592,0.066 2.04,1.7101 2.278,2.5821 0.059,0.2138 0.104,0.3812 0.151,0.4675 l 0.105,0.1939 c 1.121,2.0828 1.785,3.3168 4.469,3.7686 2.557,0.4383 5.223,-0.3652 7.606,-1.1961 1.627,-0.5674 3.241,-1.1567 4.856,-1.7467 v 0 0 c 0.724,-0.2643 1.448,-0.5288 2.174,-0.7915 0.546,-0.1976 1.166,-0.3687 1.807,-0.5457 1.49,-0.412 3.095,-0.8556 4.156,-1.7369 1.143,-0.9441 1.242,-2.1079 1.346,-3.3319 0.082,-0.9658 0.168,-1.9691 0.772,-2.9315 0.089,-0.1416 0.176,-0.2797 0.262,-0.4148 l 0.001,-0.0015 c 1.252,-1.9738 2.111,-3.3275 0.924,-5.8562 -0.658,-1.397 -1.653,-2.6387 -2.858,-3.7526 C 194.688,61.2922 191.383,61 188.004,61 c -29.308,0 -53.704,21.0272 -58.945,48.811 1.205,2.063 2.803,3.944 4.857,5.569 z m 61.06,-20.8598 v -1e-4 h 0.001 c 1.725,-1.4562 3.452,-2.9133 5.395,-4.0867 3.333,-2.0134 7.037,-2.413 10.728,-2.8111 3.254,-0.3511 6.499,-0.701 9.468,-2.1558 1.22,-0.5995 2.484,-1.7442 3.799,-2.9342 2.109,-1.9093 4.347,-3.9353 6.737,-4.014 8.154,8.1717 13.97,18.6716 16.353,30.4227 -0.227,0.905 -0.495,1.802 -0.764,2.699 -0.631,2.104 -1.262,4.209 -1.345,6.431 -0.101,2.52 -0.694,4.401 -2.018,5.834 -0.511,0.557 -1.945,0 -2.484,-0.831 -0.356,-0.554 -0.31,-1.345 -0.265,-2.096 0.06,-1.016 0.116,-1.96 -0.839,-2.149 -2.064,-0.402 -3.214,0 -3.954,2.702 -0.566,2.027 0.248,3.83 1.078,5.67 v 0.001 c 0.322,0.713 0.647,1.432 0.894,2.172 0.032,0.095 0.072,0.194 0.114,0.296 0.223,0.551 0.473,1.163 -0.552,1.302 -1.826,0.256 -4.3,-0.904 -5.022,-2.702 -0.246,-0.622 -0.932,-0.749 -1.592,-0.872 -0.513,-0.095 -1.011,-0.188 -1.274,-0.507 -0.317,-0.386 -0.513,-0.79 -0.681,-1.136 -0.296,-0.612 -0.503,-1.038 -1.127,-0.845 -0.47,0.143 -0.853,0.472 -1.241,0.803 -0.252,0.216 -0.505,0.433 -0.786,0.603 -0.449,0.268 -0.981,0.748 -1.55,1.262 h -0.001 c -1.155,1.044 -2.467,2.229 -3.562,2.07 -6.127,-0.876 -9.213,-0.675 -13.194,0.776 -0.698,0.253 -1.295,0.099 -1.849,-0.043 -0.408,-0.105 -0.794,-0.204 -1.182,-0.13 -0.834,0.163 -1.38,-0.256 -1.926,-0.675 -0.219,-0.168 -0.438,-0.336 -0.676,-0.466 -0.02,0.053 -0.041,0.109 -0.063,0.167 -0.228,0.598 -0.559,1.463 -0.101,2.079 0.377,0.502 1.237,0.498 2.046,0.493 0.073,0 0.146,0 0.218,0 1.023,0 2.264,0.547 3.533,1.488 0.64,0.466 2.018,0.274 2.63,0.173 0.682,-0.109 1.266,-0.297 1.818,-0.476 1.207,-0.391 2.263,-0.732 3.861,-0.081 2.429,0.996 4.227,2.374 4.164,5.305 -0.019,0.818 0.037,1.657 0.091,2.492 v 0 0 c 0.084,1.271 0.167,2.534 -0.009,3.708 -0.804,5.45 -1.945,9.532 -5.588,14.225 -0.35,0.452 -0.567,1.141 -0.786,1.838 -0.233,0.739 -0.468,1.485 -0.867,1.969 -0.734,0.898 -1.845,1.711 -2.935,2.509 -0.794,0.581 -1.577,1.153 -2.196,1.746 -0.535,0.512 -1.037,1.162 -1.544,1.819 -0.705,0.913 -1.421,1.841 -2.254,2.436 -0.608,0.431 -1.097,0.833 -1.52,1.181 h -0.001 v 0 c -1.35,1.111 -2.028,1.668 -3.738,0.855 -1.108,-0.526 -2.931,-3.13 -3.942,-4.574 v 0 -10e-4 c -0.148,-0.21 -0.278,-0.396 -0.386,-0.548 -1.196,-1.661 -2.045,-3.542 -2.483,-5.542 -0.172,-0.784 -0.234,-1.569 -0.296,-2.361 -0.024,-0.304 -0.048,-0.61 -0.079,-0.916 -0.228,-2.365 -1.041,-3.15 -2.867,-4.438 -1.526,-1.073 -2.157,-2.05 -3.05,-3.434 -0.17,-0.264 -0.35,-0.542 -0.547,-0.839 -1.098,-1.652 -2.462,-2.217 -3.916,-2.82 -0.796,-0.329 -1.619,-0.67 -2.439,-1.206 -1.077,-0.703 -1.735,-1.434 -2.036,-2.712 -0.098,-0.406 0.031,-1.601 0.129,-2.502 v 0 c 0.047,-0.435 0.087,-0.801 0.09,-0.977 0.014,-0.707 -0.08,-1.34 -0.172,-1.964 -0.093,-0.625 -0.184,-1.241 -0.166,-1.916 0.119,-4.081 6.072,-7.825 9.341,-9.286 1.632,-0.731 2.866,-0.632 4.145,-0.529 0.588,0.047 1.185,0.095 1.835,0.064 0.226,-0.013 0.484,-0.048 0.757,-0.085 0.929,-0.127 2.042,-0.278 2.74,0.35 0.372,0.333 0.83,0.543 1.29,0.753 v 0 c 0.308,0.141 0.616,0.282 0.901,0.461 1.005,0.228 2.036,0.392 3.141,0.392 0.025,0 0.041,0.009 0.057,0.017 0.008,0.004 0.016,0.008 0.025,0.011 -0.63,-0.365 -1.251,-0.785 -1.844,-1.278 -0.487,-0.402 -0.949,-0.826 -1.408,-1.248 -1.213,-1.114 -2.408,-2.211 -3.997,-2.834 -2.014,-0.789 -4.02,-0.66 -6.105,-0.527 h -0.001 c -0.231,0.015 -0.463,0.03 -0.696,0.043 -2.465,0.147 -4.757,-0.31 -6.766,-0.821 -2.337,-0.594 -3.214,-2.493 -3.488,-5.415 -0.056,-0.583 0.135,-1.315 0.327,-2.05 0.147,-0.564 0.295,-1.129 0.331,-1.629 0.047,-0.668 -0.103,-1.261 -0.25,-1.841 -0.255,-1.005 -0.5,-1.973 0.305,-3.236 0.122,-0.191 0.245,-0.387 0.371,-0.586 1.194,-1.894 2.55,-4.044 4.458,-5.102 1.013,-0.563 2.129,-0.903 3.244,-1.243 0.926,-0.283 1.853,-0.565 2.719,-0.9754 1.835,-0.8674 3.497,-2.0818 5.076,-3.3417 0.748,-0.5953 1.479,-1.2124 2.21,-1.8297 z m -32.494,70.9158 c 0.979,0.335 2.115,0.724 2.569,1.458 0.406,0.649 -1.33,1.498 -2.454,2.047 l -0.001,0.001 h -0.001 c -0.315,0.154 -0.582,0.285 -0.74,0.38 -2.182,1.306 -4.291,1.964 -6.327,2.128 C 138.975,160.767 128,142.169 128,121.005 c 0,-1.415 0.064,-2.822 0.155,-4.209 0.804,0.328 1.918,1.223 2.675,1.871 1.409,1.195 1.876,3.056 2.342,4.915 0.293,1.166 0.585,2.331 1.11,3.33 1.378,2.625 3.614,3.798 5.922,5.01 1.209,0.634 2.437,1.279 3.573,2.148 1.772,1.361 3.241,3.132 3.442,5.442 0.078,0.865 -0.073,1.556 -0.235,2.303 -0.068,0.31 -0.138,0.629 -0.194,0.975 -0.575,3.524 -0.064,6.135 1.607,9.294 2.922,5.524 7.542,10.948 13.504,13.148 0.181,0.067 0.377,0.134 0.579,0.204 h 0.001 z m -9.398,-65.272 c 0.844,0.168 1.667,0.332 2.352,-0.205 0.822,-0.6391 2.018,-0.9861 2.703,-0.4748 1.104,0.8218 1.305,2.6658 0.849,3.8258 -0.018,0.045 -0.035,0.089 -0.052,0.133 -0.33,0.844 -0.575,1.472 -0.697,2.487 -0.021,0.174 -0.027,0.342 -0.033,0.504 -0.017,0.477 -0.033,0.907 -0.414,1.322 -0.713,0.767 -1.781,0.603 -2.575,0.055 -0.907,-0.631 -1.653,-1.489 -2.404,-2.352 -0.715,-0.822 -1.434,-1.649 -2.298,-2.286 -0.174,-0.128 -0.365,-0.237 -0.552,-0.344 -0.587,-0.337 -1.128,-0.647 -0.927,-1.409 0.292,-1.114 1.89,-1.4336 2.83,-1.4245 0.402,0.0055 0.813,0.0875 1.218,0.1685 z"
         fill="#79acb7"
         id="path15" />
    </g>
    <path
       d="m 173.429,142.276 c 0,-34.603 -24.448,-76.7721 -54.601,-94.1832 -14.539,-8.3951 -27.759,-9.4947 -37.5382,-4.5145 l -0.0258,-0.0518 -8.4598,4.7215 3.9324,6.7523 c -1.8239,5.2 -2.82,11.3314 -2.82,18.3036 0,34.6021 24.448,76.7721 54.6004,94.1831 6.196,3.57 12.147,5.821 17.696,6.856 l 4.01,6.881 5.666,-3.04 c 10.775,-5.238 17.54,-17.708 17.54,-35.908 z"
       fill="#f0faf6"
       id="path111" />
    <path
       d="m 173.429,142.276 c 0,-34.603 -24.448,-76.7721 -54.601,-94.1832 -14.539,-8.3951 -27.759,-9.4947 -37.5382,-4.5145 l -0.0258,-0.0518 -8.4598,4.7215 3.9324,6.7523 c -1.8239,5.2 -2.82,11.3314 -2.82,18.3036 0,34.6021 24.448,76.7721 54.6004,94.1831 6.196,3.57 12.147,5.821 17.696,6.856 l 4.01,6.881 5.666,-3.04 c 10.775,-5.238 17.54,-17.708 17.54,-35.908 z"
       fill="url(#paint16_linear_529_39646)"
       fill-opacity="0.16"
       id="path113"
       style="fill:url(#paint16_linear_529_39646)" />
    <path
       d="M 150.073,181.344 C 171.264,168.955 171.049,129.158 149.592,92.4558 128.135,55.7533 93.5617,36.0431 72.3704,48.432 51.179,60.8208 51.3943,100.617 72.8512,137.32 c 21.4569,36.702 56.0298,56.412 77.2218,44.024 z"
       fill="#f0faf6"
       id="path115" />
    <path
       d="M 150.073,181.344 C 171.264,168.955 171.049,129.158 149.592,92.4558 128.135,55.7533 93.5617,36.0431 72.3704,48.432 51.179,60.8208 51.3943,100.617 72.8512,137.32 c 21.4569,36.702 56.0298,56.412 77.2218,44.024 z"
       fill="url(#paint17_linear_529_39646)"
       fill-opacity="0.9"
       id="path117"
       style="fill:url(#paint17_linear_529_39646)" />
    <path
       d="m 144.377,171.594 c 18.083,-10.571 17.9,-44.53 -0.41,-75.8481 C 125.658,64.4276 96.1565,47.609 78.0735,58.1807 59.9906,68.7523 60.174,102.711 78.4832,134.029 c 18.3093,31.318 47.8108,48.137 65.8938,37.565 z"
       fill="#f0faf6"
       id="path119" />
    <path
       d="m 144.377,171.594 c 18.083,-10.571 17.9,-44.53 -0.41,-75.8481 C 125.658,64.4276 96.1565,47.609 78.0735,58.1807 59.9906,68.7523 60.174,102.711 78.4832,134.029 c 18.3093,31.318 47.8108,48.137 65.8938,37.565 z"
       fill="url(#paint18_linear_529_39646)"
       fill-opacity="0.2"
       id="path121"
       style="fill:url(#paint18_linear_529_39646)" />
    <path
       d="m 143.536,95.9983 c 9.118,15.5967 13.71,31.8317 13.783,45.4547 0.074,13.638 -4.372,24.552 -13.194,29.71 -8.822,5.157 -20.514,3.678 -32.362,-3.077 C 99.9273,161.339 88.0333,149.374 78.9149,133.777 69.7965,118.18 65.2049,101.946 65.1313,88.3222 65.0576,74.6836 69.5039,63.7698 78.3259,58.6123 c 8.822,-5.1575 20.5135,-3.6781 32.3621,3.0766 11.835,6.7472 23.729,18.7121 32.848,34.3094 z"
       stroke="#71b5a3"
       stroke-opacity="0.4"
       id="path123" />
    <path
       d="m 113.77,116.366 c 0,1.617 -1.139,2.264 -2.549,1.449 -1.41,-0.815 -2.548,-2.781 -2.548,-4.398 0,-1.617 1.138,-2.264 2.548,-1.449 1.397,0.815 2.549,2.782 2.549,4.398 z"
       fill="#a9d7c5"
       id="path125" />
    <path
       fill-rule="evenodd"
       clip-rule="evenodd"
       d="m 92.1288,64.1198 c -0.3363,0.0258 -0.7632,-0.3493 -0.9701,-0.8538 l -1.1513,-2.9492 c -0.194,-0.5045 -0.0776,-0.9314 0.2587,-0.9573 0.3363,-0.0258 0.7632,0.3493 0.9702,0.8538 l 1.1512,2.9493 c 0.1941,0.5044 0.0776,0.9313 -0.2587,0.9572 z m 19.0922,3.9968 c 0,0.5174 0.323,1.1254 0.712,1.3453 0.388,0.2199 0.698,-0.0129 0.711,-0.5304 v -2.3671 c 0,-0.5175 -0.323,-1.1254 -0.711,-1.3453 -0.401,-0.2329 -0.712,0.0129 -0.712,0.5303 z m 0,95.1144 c 0,0.517 0.323,1.125 0.712,1.345 0.388,0.22 0.698,-0.013 0.711,-0.53 v -2.367 c 0,-0.518 -0.323,-1.126 -0.711,-1.346 -0.401,-0.233 -0.712,0.013 -0.712,0.531 z M 72.3381,92.0339 c 0,0.4527 -0.2716,0.6597 -0.6079,0.4656 l -2.4966,-1.4358 c -0.3363,-0.194 -0.6079,-0.7114 -0.6079,-1.1642 0,-0.4527 0.2716,-0.6468 0.6079,-0.4657 l 2.4966,1.4359 c 0.3363,0.194 0.6079,0.7114 0.6079,1.1642 z m 82.2809,48.3141 c 0.337,0.181 0.608,-0.013 0.608,-0.465 0,-0.44 -0.271,-0.958 -0.608,-1.165 l -2.496,-1.435 c -0.336,-0.182 -0.608,0.012 -0.608,0.465 0,0.453 0.272,0.97 0.608,1.164 z m -22.015,29.208 c 0.207,0.505 0.634,0.88 0.971,0.854 0.336,-0.026 0.452,-0.453 0.258,-0.957 l -1.151,-2.95 c -0.207,-0.504 -0.634,-0.879 -0.97,-0.853 -0.336,0.026 -0.453,0.452 -0.259,0.957 z M 77.6428,117.815 c 0.194,0.504 0.0776,0.931 -0.2587,0.957 l -1.9921,0.168 c -0.3363,0.026 -0.7761,-0.349 -0.9702,-0.854 -0.194,-0.504 -0.0776,-0.931 0.2588,-0.957 l 1.992,-0.168 c 0.3493,-0.039 0.7761,0.349 0.9702,0.854 z m 71.5182,-5.162 c 0.337,-0.025 0.453,-0.452 0.259,-0.957 -0.194,-0.504 -0.621,-0.879 -0.97,-0.854 l -1.992,0.169 c -0.337,0.025 -0.453,0.452 -0.259,0.957 0.207,0.504 0.634,0.879 0.97,0.854 z M 77.6428,72.3854 c -0.1941,0.2717 -0.6209,0.1553 -0.9702,-0.2587 l -1.992,-2.4706 c -0.3364,-0.414 -0.4528,-0.9831 -0.2588,-1.2548 0.1941,-0.2716 0.6209,-0.1552 0.9702,0.2587 l 1.9921,2.4707 c 0.3363,0.4139 0.4527,0.9702 0.2587,1.2547 z M 148.45,161.123 c 0.349,0.414 0.776,0.53 0.97,0.258 0.194,-0.271 0.078,-0.84 -0.259,-1.254 l -1.992,-2.471 c -0.349,-0.414 -0.776,-0.53 -0.97,-0.259 -0.194,0.272 -0.078,0.841 0.259,1.255 z M 92.1288,142.806 c 0.3363,0.414 0.4528,0.983 0.2587,1.255 l -1.1512,1.617 c -0.1941,0.272 -0.6209,0.155 -0.9702,-0.259 -0.3363,-0.414 -0.4527,-0.983 -0.2587,-1.254 l 1.1513,-1.617 c 0.2069,-0.272 0.6338,-0.156 0.9701,0.258 z M 133.833,85.6182 c 0.194,-0.2717 0.078,-0.8408 -0.258,-1.2548 -0.337,-0.4139 -0.764,-0.5433 -0.971,-0.2587 l -1.151,1.6169 c -0.194,0.2717 -0.077,0.8409 0.259,1.2548 0.349,0.4139 0.776,0.5303 0.97,0.2587 z"
       fill="#d9dedc"
       id="path127" />
    <path
       d="m 112.454,115.315 c 0,0.951 -1.028,1.545 -1.852,1.071 v 0 c -0.383,-0.221 -0.619,-0.629 -0.619,-1.071 V 78.7005 c 0,-0.9504 1.028,-1.5448 1.852,-1.0705 v 0 c 0.383,0.2205 0.619,0.6287 0.619,1.0705 z"
       fill="#a9d7c5"
       id="path129" />
    <path
       d="m 112.176,115.013 c -0.263,-0.326 -0.766,-0.309 -1.006,0.035 v 0 c -0.16,0.229 -0.149,0.537 0.026,0.755 l 32.48,40.265 c 0.261,0.323 0.758,0.307 0.997,-0.031 v 0 c 0.162,-0.228 0.152,-0.536 -0.024,-0.754 z"
       fill="#a9d7c5"
       id="path131" />
    <path
       d="m 112.49,115.629 c 0,0.802 -0.569,1.138 -1.268,0.724 -0.698,-0.401 -1.267,-1.384 -1.267,-2.199 0,-0.815 0.569,-1.138 1.267,-0.724 0.699,0.401 1.268,1.384 1.268,2.199 z"
       fill="#a9d7c5"
       id="path133" />
    <path
       d="m 119.841,111.587 c 0.646,-0.367 0.868,-1.191 0.495,-1.833 v 0 c -0.369,-0.636 -1.183,-0.854 -1.82,-0.489 l -3.968,2.273 c -0.165,0.094 -0.221,0.305 -0.125,0.468 v 0 c 0.096,0.164 0.04,0.375 -0.125,0.469 L 81.5013,131.18 c -0.3088,0.176 -0.414,0.571 -0.2337,0.877 v 0 c 0.1769,0.301 0.5626,0.404 0.8657,0.231 l 32.7937,-18.711 c 0.168,-0.096 0.383,-0.037 0.479,0.131 v 0 c 0.097,0.168 0.311,0.226 0.48,0.13 z"
       fill="#a9d7c5"
       id="path135" />
  </g>
  <defs
     id="defs251">
    <filter
       id="filter0_f_529_39646"
       x="30.0949"
       y="184.314"
       width="114.811"
       height="38.270199"
       filterUnits="userSpaceOnUse"
       color-interpolation-filters="sRGB">
      <feFlood
         flood-opacity="0"
         result="BackgroundImageFix"
         id="feFlood139" />
      <feBlend
         mode="normal"
         in="SourceGraphic"
         in2="BackgroundImageFix"
         result="shape"
         id="feBlend141" />
      <feGaussianBlur
         stdDeviation="5.85767"
         result="effect1_foregroundBlur_529_39646"
         id="feGaussianBlur143" />
    </filter>
    <filter
       id="filter1_f_529_39646"
       x="10.9746"
       y="144.521"
       width="184.576"
       height="51.6077"
       filterUnits="userSpaceOnUse"
       color-interpolation-filters="sRGB">
      <feFlood
         flood-opacity="0"
         result="BackgroundImageFix"
         id="feFlood146" />
      <feBlend
         mode="normal"
         in="SourceGraphic"
         in2="BackgroundImageFix"
         result="shape"
         id="feBlend148" />
      <feGaussianBlur
         stdDeviation="10"
         result="effect1_foregroundBlur_529_39646"
         id="feGaussianBlur150" />
    </filter>
    <linearGradient
       id="paint0_linear_529_39646"
       x1="144.384"
       y1="-82.212196"
       x2="176.05701"
       y2="260.79901"
       gradientUnits="userSpaceOnUse">
      <stop
         stop-color="#245795"
         id="stop153" />
      <stop
         offset="1"
         stop-color="#8AD3A8"
         id="stop155" />
    </linearGradient>
    <linearGradient
       id="paint1_linear_529_39646"
       x1="157.78101"
       y1="107.842"
       x2="152.599"
       y2="98.866402"
       gradientUnits="userSpaceOnUse">
      <stop
         stop-color="#4B42C6"
         id="stop158" />
      <stop
         offset="1"
         stop-color="#4232B2"
         id="stop160" />
    </linearGradient>
    <linearGradient
       id="paint2_linear_529_39646"
       x1="54.2873"
       y1="178.319"
       x2="54.9286"
       y2="221.089"
       gradientUnits="userSpaceOnUse">
      <stop
         stop-color="#245795"
         id="stop163" />
      <stop
         offset="1"
         stop-color="#8AD3A8"
         id="stop165" />
    </linearGradient>
    <linearGradient
       id="paint3_linear_529_39646"
       x1="64.488098"
       y1="201.82201"
       x2="64.350601"
       y2="200.355"
       gradientUnits="userSpaceOnUse">
      <stop
         stop-color="#4B42C6"
         id="stop168" />
      <stop
         offset="1"
         stop-color="#4232B2"
         id="stop170" />
    </linearGradient>
    <linearGradient
       id="paint4_linear_529_39646"
       x1="32.7328"
       y1="192.93401"
       x2="32.7127"
       y2="214.963"
       gradientUnits="userSpaceOnUse">
      <stop
         stop-color="#245795"
         id="stop173" />
      <stop
         offset="1"
         stop-color="#8AD3A8"
         id="stop175" />
    </linearGradient>
    <linearGradient
       id="paint5_linear_529_39646"
       x1="84.988403"
       y1="171.217"
       x2="85.092796"
       y2="175.302"
       gradientUnits="userSpaceOnUse">
      <stop
         stop-color="#8AD3A8"
         id="stop178" />
      <stop
         offset="0.985172"
         stop-color="#245795"
         id="stop180" />
    </linearGradient>
    <linearGradient
       id="paint6_linear_529_39646"
       x1="106.635"
       y1="170.576"
       x2="106.713"
       y2="173.394"
       gradientUnits="userSpaceOnUse">
      <stop
         stop-color="#8AD3A8"
         id="stop183" />
      <stop
         offset="0.985172"
         stop-color="#245795"
         id="stop185" />
    </linearGradient>
    <linearGradient
       id="paint7_linear_529_39646"
       x1="119.779"
       y1="168.79601"
       x2="119.837"
       y2="173.98599"
       gradientUnits="userSpaceOnUse">
      <stop
         stop-color="#8AD3A8"
         id="stop188" />
      <stop
         offset="0.985172"
         stop-color="#245795"
         id="stop190" />
    </linearGradient>
    <linearGradient
       id="paint8_linear_529_39646"
       x1="145.864"
       y1="166.851"
       x2="145.946"
       y2="170.12399"
       gradientUnits="userSpaceOnUse">
      <stop
         stop-color="#8AD3A8"
         id="stop193" />
      <stop
         offset="0.985172"
         stop-color="#245795"
         id="stop195" />
    </linearGradient>
    <linearGradient
       id="paint9_linear_529_39646"
       x1="161.463"
       y1="164.157"
       x2="161.53"
       y2="169.10001"
       gradientUnits="userSpaceOnUse">
      <stop
         stop-color="#8AD3A8"
         id="stop198" />
      <stop
         offset="0.985172"
         stop-color="#245795"
         id="stop200" />
    </linearGradient>
    <linearGradient
       id="paint10_linear_529_39646"
       x1="19.997"
       y1="-0.42876899"
       x2="19.950199"
       y2="2.0701301"
       gradientUnits="userSpaceOnUse">
      <stop
         stop-color="#8AD3A8"
         id="stop203" />
      <stop
         offset="0.985172"
         stop-color="#245795"
         id="stop205" />
    </linearGradient>
    <linearGradient
       id="paint11_linear_529_39646"
       x1="19.997"
       y1="-0.42876899"
       x2="19.950199"
       y2="2.0701301"
       gradientUnits="userSpaceOnUse">
      <stop
         stop-color="#8AD3A8"
         id="stop208" />
      <stop
         offset="0.985172"
         stop-color="#245795"
         id="stop210" />
    </linearGradient>
    <linearGradient
       id="paint12_linear_529_39646"
       x1="19.997"
       y1="-0.42876899"
       x2="19.950199"
       y2="2.0701301"
       gradientUnits="userSpaceOnUse">
      <stop
         stop-color="#8AD3A8"
         id="stop213" />
      <stop
         offset="0.985172"
         stop-color="#245795"
         id="stop215" />
    </linearGradient>
    <linearGradient
       id="paint13_linear_529_39646"
       x1="19.997"
       y1="-0.42876899"
       x2="19.950199"
       y2="2.0701301"
       gradientUnits="userSpaceOnUse">
      <stop
         stop-color="#8AD3A8"
         id="stop218" />
      <stop
         offset="0.985172"
         stop-color="#245795"
         id="stop220" />
    </linearGradient>
    <linearGradient
       id="paint14_linear_529_39646"
       x1="19.997"
       y1="-0.42876899"
       x2="19.950199"
       y2="2.0701301"
       gradientUnits="userSpaceOnUse">
      <stop
         stop-color="#8AD3A8"
         id="stop223" />
      <stop
         offset="0.985172"
         stop-color="#245795"
         id="stop225" />
    </linearGradient>
    <linearGradient
       id="paint15_linear_529_39646"
       x1="19.997"
       y1="-0.42876899"
       x2="19.950199"
       y2="2.0701301"
       gradientUnits="userSpaceOnUse">
      <stop
         stop-color="#8AD3A8"
         id="stop228" />
      <stop
         offset="0.985172"
         stop-color="#245795"
         id="stop230" />
    </linearGradient>
    <linearGradient
       id="paint16_linear_529_39646"
       x1="57.700298"
       y1="-4.31709"
       x2="189.619"
       y2="226.48"
       gradientUnits="userSpaceOnUse">
      <stop
         stop-color="#245795"
         id="stop233" />
      <stop
         offset="1"
         stop-color="#8AD3A8"
         id="stop235" />
    </linearGradient>
    <linearGradient
       id="paint17_linear_529_39646"
       x1="-2.3361001"
       y1="35.147701"
       x2="246.828"
       y2="148.052"
       gradientUnits="userSpaceOnUse">
      <stop
         stop-color="#245795"
         id="stop238" />
      <stop
         offset="1"
         stop-color="#8AD3A8"
         id="stop240" />
    </linearGradient>
    <linearGradient
       id="paint18_linear_529_39646"
       x1="78.073502"
       y1="58.180698"
       x2="144.377"
       y2="171.59399"
       gradientUnits="userSpaceOnUse">
      <stop
         stop-color="#4F8B9D"
         id="stop243" />
      <stop
         offset="0.666667"
         stop-color="#C0E3D9"
         id="stop245" />
    </linearGradient>
    <clipPath
       id="clip0_529_39646">
      <rect
         width="260"
         height="200"
         fill="#ffffff"
         transform="translate(0.5)"
         id="rect248"
         x="0"
         y="0" />
    </clipPath>
  </defs>
</svg>
