<svg width="188" height="171" viewBox="0 0 188 171" fill="none" xmlns="http://www.w3.org/2000/svg">
<path d="M148.369 55.4424V162.679M175.178 65.1912H138.62C132.803 65.1912 127.224 67.5022 123.11 71.6158C118.997 75.7294 116.686 81.3086 116.686 87.1261C116.686 92.9435 118.997 98.5227 123.11 102.636C127.224 106.75 132.803 109.061 138.62 109.061M121.56 152.931H158.118C160.999 152.931 163.851 152.363 166.512 151.261C169.173 150.159 171.591 148.543 173.628 146.506C175.665 144.469 177.281 142.051 178.383 139.39C179.486 136.729 180.053 133.876 180.053 130.996C180.053 128.115 179.486 125.263 178.383 122.602C177.281 119.94 175.665 117.522 173.628 115.485C171.591 113.449 169.173 111.833 166.512 110.731C163.851 109.628 160.999 109.061 158.118 109.061H138.62" stroke="#E6EFF1" stroke-width="15" stroke-linecap="round" stroke-linejoin="round"/>
<path opacity="0.9" d="M76.8465 123.61C68.1536 118.594 54.0181 118.62 45.2655 123.67C40.9403 126.169 38.7479 129.428 38.6882 132.687V87.2433C38.6541 83.8993 40.838 80.5467 45.2655 77.9874C54.0095 72.9372 68.1536 72.9116 76.8465 77.9277C81.1375 80.4016 83.2872 83.6433 83.3299 86.9021H83.3555V132.721H83.3384C83.364 129.42 81.1972 126.118 76.8465 123.61Z" fill="url(#paint0_linear_537_7183)"/>
<path d="M83.3548 87.0213L121.871 86.9531V132.695H83.3548V87.0213Z" fill="url(#paint1_linear_537_7183)"/>
<path d="M83.3548 87.0213L121.871 86.9531V132.695H83.3548V87.0213Z" fill="url(#paint2_linear_537_7183)"/>
<path d="M17.8223 111.991V157.733C5.97299 150.891 0.0782032 142.616 0.129387 132.917V87.1746C0.0696716 96.8741 5.97299 105.149 17.8223 111.991Z" fill="url(#paint3_linear_537_7183)"/>
<path d="M17.8223 111.991V157.733C5.97299 150.891 0.0782032 142.616 0.129387 132.917V87.1746C0.0696716 96.8741 5.97299 105.149 17.8223 111.991Z" fill="url(#paint4_linear_537_7183)"/>
<path d="M17.8223 111.991V157.733C5.97299 150.891 0.0782032 142.616 0.129387 132.917V87.1746C0.0696716 96.8741 5.97299 105.149 17.8223 111.991Z" fill="url(#paint5_linear_537_7183)"/>
<path d="M61.1915 51.917C94.8114 51.8573 121.973 67.5455 121.871 86.953L83.3374 87.0213C83.3545 83.7284 81.1877 80.4355 76.8455 77.9274C68.1526 72.9113 54.0171 72.9369 45.2645 77.9872C40.8642 80.5286 38.6653 83.8564 38.6733 87.1748C38.6811 90.4506 40.8395 93.7171 45.1536 96.2089L17.8124 111.991C5.96311 105.149 0.0683365 96.8743 0.119522 87.1748C0.230423 67.7587 27.5716 51.9768 61.1915 51.917Z" fill="#D4F2E4"/>
<path d="M61.1915 51.917C94.8114 51.8573 121.973 67.5455 121.871 86.953L83.3374 87.0213C83.3545 83.7284 81.1877 80.4355 76.8455 77.9274C68.1526 72.9113 54.0171 72.9369 45.2645 77.9872C40.8642 80.5286 38.6653 83.8564 38.6733 87.1748C38.6811 90.4506 40.8395 93.7171 45.1536 96.2089L17.8124 111.991C5.96311 105.149 0.0683365 96.8743 0.119522 87.1748C0.230423 67.7587 27.5716 51.9768 61.1915 51.917Z" fill="url(#paint6_linear_537_7183)" fill-opacity="0.15"/>
<path d="M83.4336 77.5527V77.7327C83.4336 77.6813 83.425 77.6127 83.4336 77.5527Z" fill="url(#paint7_linear_537_7183)"/>
<path d="M37.9114 77.7406V77.5606H37.9199C37.9199 77.612 37.9114 77.6806 37.9114 77.7406Z" fill="url(#paint8_linear_537_7183)"/>
<path opacity="0.4" d="M38.2365 0V102.569C38.2365 114.817 48.1654 124.746 60.4135 124.746C72.6615 124.746 82.5905 114.817 82.5905 102.569V0H38.2365Z" fill="url(#paint9_linear_537_7183)"/>
<path d="M45.291 96.1318L45.1716 96.2171V141.874L17.8218 157.733V111.991L45.291 96.1318Z" fill="url(#paint10_linear_537_7183)"/>
<path d="M45.291 96.1318L45.1716 96.2171V141.874L17.8218 157.733V111.991L45.291 96.1318Z" fill="url(#paint11_linear_537_7183)"/>
<path d="M45.291 96.1318L45.1716 96.2171V141.874L17.8218 157.733V111.991L45.291 96.1318Z" fill="url(#paint12_linear_537_7183)"/>
<path d="M60.8096 144.069L60.9291 129.445C60.912 129.445 60.9035 129.445 60.8864 129.445L61.0059 129.309L60.8182 167.953C44.0125 167.987 29.6808 164.575 17.8315 157.733L17.8315 133.849C29.6722 140.691 43.9954 144.095 60.8096 144.069Z" fill="url(#paint13_linear_537_7183)"/>
<path d="M60.8096 144.069L60.9291 129.445C60.912 129.445 60.9035 129.445 60.8864 129.445L61.0059 129.309L60.8182 167.953C44.0125 167.987 29.6808 164.575 17.8315 157.733L17.8315 133.849C29.6722 140.691 43.9954 144.095 60.8096 144.069Z" fill="url(#paint14_linear_537_7183)"/>
<path d="M44.8204 118.246C44.9398 118.314 45.0422 118.391 45.1616 118.468C49.5038 120.976 55.2109 122.222 60.918 122.213L60.7985 144.615C43.9929 144.649 29.6611 140.682 17.8118 133.841L44.8204 118.246Z" fill="#D4F2E4"/>
<path d="M44.8204 118.246C44.9398 118.314 45.0422 118.391 45.1616 118.468C49.5038 120.976 55.2109 122.222 60.918 122.213L60.7985 144.615C43.9929 144.649 29.6611 140.682 17.8118 133.841L44.8204 118.246Z" fill="url(#paint15_linear_537_7183)" fill-opacity="0.35"/>
<path d="M121.871 122.475L121.871 132.686C121.769 152.094 94.4278 167.884 60.8079 167.944V138.487C94.4278 138.428 121.769 141.891 121.871 122.475Z" fill="url(#paint16_linear_537_7183)"/>
<path d="M76.7517 132.07C81.2218 129.493 83.4057 126.098 83.329 122.728L121.871 122.66C121.769 142.068 94.4275 157.858 60.8076 157.918L60.9271 135.874C66.6427 135.866 72.3669 134.603 76.7517 132.07Z" fill="#F0FAF6"/>
<path d="M17.815 111.991L45.1562 96.2087C40.8422 93.7169 38.6838 90.4504 38.6759 87.1746H0.122173C0.0709877 96.8741 5.96577 105.149 17.815 111.991Z" fill="#D4F2E4"/>
<path d="M17.815 111.991L45.1562 96.2087C40.8422 93.7169 38.6838 90.4504 38.6759 87.1746H0.122173C0.0709877 96.8741 5.96577 105.149 17.815 111.991Z" fill="url(#paint17_linear_537_7183)" fill-opacity="0.15"/>
<path d="M81.9522 67.9471L38.7051 77.3633L40.0339 83.4662L40.042 83.4644C40.0543 83.5212 40.0586 83.5797 40.0709 83.6364C41.585 90.5903 52.4903 94.1242 64.4368 91.5231C76.3832 88.922 84.8322 81.1741 83.3181 74.2202C83.3057 74.1635 83.2853 74.1085 83.2729 74.0518L83.281 74.05L81.9522 67.9471Z" fill="#CCB4A7"/>
<path d="M81.9522 67.9471L38.7051 77.3633L40.0339 83.4662L40.042 83.4644C40.0543 83.5212 40.0586 83.5797 40.0709 83.6364C41.585 90.5903 52.4903 94.1242 64.4368 91.5231C76.3832 88.922 84.8322 81.1741 83.3181 74.2202C83.3057 74.1635 83.2853 74.1085 83.2729 74.0518L83.281 74.05L81.9522 67.9471Z" fill="url(#paint18_linear_537_7183)"/>
<path d="M63.0905 85.34C75.0329 82.7398 83.4864 74.993 81.9719 68.037C80.4573 61.0811 69.5484 57.5501 57.606 60.1503C45.6636 62.7505 37.2102 70.4973 38.7247 77.4532C40.2392 84.4092 51.1482 87.9402 63.0905 85.34Z" fill="#F0FAF6"/>
<path d="M63.0905 85.34C75.0329 82.7398 83.4864 74.993 81.9719 68.037C80.4573 61.0811 69.5484 57.5501 57.606 60.1503C45.6636 62.7505 37.2102 70.4973 38.7247 77.4532C40.2392 84.4092 51.1482 87.9402 63.0905 85.34Z" fill="url(#paint19_linear_537_7183)" fill-opacity="0.5"/>
<path d="M63.0188 84.9998C51.3317 87.5444 40.6559 84.2067 38.7905 77.55C38.8142 77.6976 38.8135 77.8506 38.8453 77.9964C40.3594 84.9503 51.2647 88.4843 63.2111 85.8832C75.1495 83.2838 83.6065 75.5341 82.0924 68.5802C82.0607 68.4343 81.9965 68.2955 81.9566 68.1514C83.0277 74.9811 74.7059 82.4551 63.0188 84.9998Z" fill="#C1A595"/>
<path d="M63.0188 84.9998C51.3317 87.5444 40.6559 84.2067 38.7905 77.55C38.8142 77.6976 38.8135 77.8506 38.8453 77.9964C40.3594 84.9503 51.2647 88.4843 63.2111 85.8832C75.1495 83.2838 83.6065 75.5341 82.0924 68.5802C82.0607 68.4343 81.9965 68.2955 81.9566 68.1514C83.0277 74.9811 74.7059 82.4551 63.0188 84.9998Z" fill="url(#paint20_linear_537_7183)"/>
<path d="M58.5182 64.3401C67.1498 62.4607 75.0441 64.876 76.578 69.7374C76.5571 69.5636 76.5462 69.3962 76.5091 69.226C75.378 64.0309 67.2228 61.3922 58.2994 63.3351C49.376 65.278 43.056 71.0683 44.1872 76.2635C44.2243 76.4337 44.2856 76.5986 44.3371 76.7572C43.711 71.6982 49.8866 66.2194 58.5182 64.3401Z" fill="#D3BAAD"/>
<path d="M58.5182 64.3401C67.1498 62.4607 75.0441 64.876 76.578 69.7374C76.5571 69.5636 76.5462 69.3962 76.5091 69.226C75.378 64.0309 67.2228 61.3922 58.2994 63.3351C49.376 65.278 43.056 71.0683 44.1872 76.2635C44.2243 76.4337 44.2856 76.5986 44.3371 76.7572C43.711 71.6982 49.8866 66.2194 58.5182 64.3401Z" fill="url(#paint21_linear_537_7183)"/>
<path d="M60.9545 69.5149C60.5733 69.6744 60.173 69.8634 59.7681 70.0704C59.4147 70.2407 59.0441 70.4487 58.6526 70.6783C58.2612 70.9078 57.8894 71.15 57.5375 71.4049L58.9984 71.8763C59.1174 71.7995 59.2429 71.7127 59.3863 71.6306C59.5297 71.5484 59.6794 71.4564 59.8292 71.3644C60.5102 70.9444 61.1596 70.5739 61.7692 70.2544C62.3787 69.9349 62.97 69.6873 63.5313 69.4972C64.0944 69.3152 64.6392 69.205 65.1791 69.1894C65.7172 69.1656 66.2603 69.2426 66.7984 69.414C67.4364 69.6147 67.8706 69.8937 68.1058 70.2329C68.3409 70.5722 68.4239 70.9532 68.3528 71.3676C68.2818 71.7821 68.0973 72.2212 67.7894 72.6788C67.4815 73.1363 67.0972 73.5935 66.6445 74.0486L68.6059 74.6742L67.3369 75.8248L65.3396 75.1901C64.5451 75.83 63.677 76.4434 62.7253 77.0242C61.7818 77.6031 60.8466 78.1038 59.9245 78.5083L58.4832 76.4113C58.9564 76.2064 59.4342 75.9835 59.9247 75.7409C60.3394 75.5402 60.802 75.2867 61.2999 75C61.7977 74.7134 62.2642 74.3996 62.7029 74.0749L61.2716 73.6225C60.8548 73.8915 60.4281 74.1542 59.9771 74.4222C59.3087 74.8224 58.6928 75.1517 58.1294 75.4102C57.5678 75.6768 57.0487 75.8662 56.5596 75.9982C56.0705 76.1301 55.6096 76.1965 55.1751 76.1893C54.7406 76.182 54.3099 76.1145 53.8912 75.9849C53.3072 75.798 52.8881 75.5497 52.624 75.2337C52.3681 74.9159 52.2383 74.5537 52.2364 74.1551C52.2426 73.7547 52.3605 73.3216 52.6081 72.8602C52.8557 72.3988 53.196 71.9343 53.6371 71.4647L51.9947 70.9394L53.2637 69.7888L54.924 70.3186C55.3158 70.0126 55.721 69.7291 56.1378 69.4601C56.5546 69.1911 56.9651 68.9319 57.3808 68.6971C57.7966 68.4623 58.1979 68.2391 58.5866 68.0356C58.9752 67.8321 59.3349 67.6519 59.664 67.4869L60.9545 69.5149ZM56.5801 72.8952C56.7436 72.9445 56.929 72.9381 57.1362 72.876C57.3434 72.8139 57.5985 72.699 57.8934 72.5329L56.6616 72.1389C56.291 72.5422 56.2612 72.7949 56.5801 72.8952ZM63.7702 72.5437C63.6147 72.4926 63.423 72.5089 63.1852 72.5862C62.9473 72.6634 62.6778 72.79 62.373 72.9497L63.5769 73.3328C63.8056 73.0962 63.9359 72.9151 63.9517 72.7928C63.9757 72.6687 63.9157 72.5884 63.7702 72.5437Z" fill="#C1A595"/>
<path d="M60.9545 69.5149C60.5733 69.6744 60.173 69.8634 59.7681 70.0704C59.4147 70.2407 59.0441 70.4487 58.6526 70.6783C58.2612 70.9078 57.8894 71.15 57.5375 71.4049L58.9984 71.8763C59.1174 71.7995 59.2429 71.7127 59.3863 71.6306C59.5297 71.5484 59.6794 71.4564 59.8292 71.3644C60.5102 70.9444 61.1596 70.5739 61.7692 70.2544C62.3787 69.9349 62.97 69.6873 63.5313 69.4972C64.0944 69.3152 64.6392 69.205 65.1791 69.1894C65.7172 69.1656 66.2603 69.2426 66.7984 69.414C67.4364 69.6147 67.8706 69.8937 68.1058 70.2329C68.3409 70.5722 68.4239 70.9532 68.3528 71.3676C68.2818 71.7821 68.0973 72.2212 67.7894 72.6788C67.4815 73.1363 67.0972 73.5935 66.6445 74.0486L68.6059 74.6742L67.3369 75.8248L65.3396 75.1901C64.5451 75.83 63.677 76.4434 62.7253 77.0242C61.7818 77.6031 60.8466 78.1038 59.9245 78.5083L58.4832 76.4113C58.9564 76.2064 59.4342 75.9835 59.9247 75.7409C60.3394 75.5402 60.802 75.2867 61.2999 75C61.7977 74.7134 62.2642 74.3996 62.7029 74.0749L61.2716 73.6225C60.8548 73.8915 60.4281 74.1542 59.9771 74.4222C59.3087 74.8224 58.6928 75.1517 58.1294 75.4102C57.5678 75.6768 57.0487 75.8662 56.5596 75.9982C56.0705 76.1301 55.6096 76.1965 55.1751 76.1893C54.7406 76.182 54.3099 76.1145 53.8912 75.9849C53.3072 75.798 52.8881 75.5497 52.624 75.2337C52.3681 74.9159 52.2383 74.5537 52.2364 74.1551C52.2426 73.7547 52.3605 73.3216 52.6081 72.8602C52.8557 72.3988 53.196 71.9343 53.6371 71.4647L51.9947 70.9394L53.2637 69.7888L54.924 70.3186C55.3158 70.0126 55.721 69.7291 56.1378 69.4601C56.5546 69.1911 56.9651 68.9319 57.3808 68.6971C57.7966 68.4623 58.1979 68.2391 58.5866 68.0356C58.9752 67.8321 59.3349 67.6519 59.664 67.4869L60.9545 69.5149ZM56.5801 72.8952C56.7436 72.9445 56.929 72.9381 57.1362 72.876C57.3434 72.8139 57.5985 72.699 57.8934 72.5329L56.6616 72.1389C56.291 72.5422 56.2612 72.7949 56.5801 72.8952ZM63.7702 72.5437C63.6147 72.4926 63.423 72.5089 63.1852 72.5862C62.9473 72.6634 62.6778 72.79 62.373 72.9497L63.5769 73.3328C63.8056 73.0962 63.9359 72.9151 63.9517 72.7928C63.9757 72.6687 63.9157 72.5884 63.7702 72.5437Z" fill="url(#paint22_linear_537_7183)"/>
<path d="M60.8354 68.9805C60.4541 69.1399 60.0538 69.3289 59.649 69.5359C59.2956 69.7063 58.9249 69.9143 58.5335 70.1439C58.142 70.3734 57.7703 70.6156 57.4183 70.8705L58.8792 71.3419C58.9983 71.2651 59.1237 71.1783 59.2671 71.0962C59.4105 71.014 59.5603 70.922 59.71 70.83C60.3911 70.41 61.0405 70.0394 61.65 69.7199C62.2596 69.4005 62.8508 69.1529 63.4122 68.9628C63.9752 68.7807 64.52 68.6706 65.0599 68.6549C65.598 68.6311 66.1411 68.7081 66.6793 68.8796C67.3172 69.0803 67.7515 69.3592 67.9866 69.6985C68.2218 70.0378 68.3047 70.4187 68.2337 70.8332C68.1626 71.2476 67.9781 71.6868 67.6703 72.1443C67.3624 72.6019 66.9781 73.059 66.5254 73.5142L68.4867 74.1397L67.2177 75.2904L65.2204 74.6557C64.426 75.2955 63.5578 75.909 62.6062 76.4897C61.6626 77.0687 60.7275 77.5694 59.8054 77.9739L58.364 75.8769C58.8373 75.672 59.3151 75.4491 59.8055 75.2065C60.2202 75.0058 60.6829 74.7523 61.1807 74.4656C61.6786 74.1789 62.1451 73.8652 62.5837 73.5404L61.1524 73.0881C60.7356 73.3571 60.309 73.6198 59.858 73.8877C59.1896 74.2879 58.5737 74.6173 58.0103 74.8758C57.4486 75.1424 56.9296 75.3318 56.4405 75.4638C55.9514 75.5957 55.4905 75.6621 55.0559 75.6549C54.6214 75.6476 54.1907 75.5801 53.772 75.4505C53.188 75.2636 52.769 75.0153 52.5049 74.6992C52.249 74.3815 52.1191 74.0192 52.1173 73.6207C52.1235 73.2203 52.2414 72.7872 52.489 72.3258C52.7366 71.8644 53.0769 71.3998 53.5179 70.9303L51.8755 70.405L53.1445 69.2544L54.8049 69.7842C55.1967 69.4782 55.6018 69.1947 56.0186 68.9257C56.4355 68.6567 56.8459 68.3975 57.2617 68.1627C57.6775 67.9278 58.0788 67.7046 58.4674 67.5012C58.8561 67.2977 59.2158 67.1175 59.5449 66.9525L60.8354 68.9805ZM56.461 72.3608C56.6245 72.4101 56.8099 72.4037 57.0171 72.3416C57.2243 72.2795 57.4794 72.1645 57.7743 71.9985L56.5425 71.6045C56.1719 72.0078 56.142 72.2605 56.461 72.3608ZM63.651 72.0092C63.4956 71.9582 63.3039 71.9745 63.066 72.0517C62.8282 72.129 62.5586 72.2556 62.2539 72.4153L63.4578 72.7983C63.6864 72.5618 63.8168 72.3806 63.8326 72.2583C63.8565 72.1343 63.7948 72.0458 63.651 72.0092Z" fill="url(#paint23_linear_537_7183)"/>
<path d="M60.8354 68.9805C60.4541 69.1399 60.0538 69.3289 59.649 69.5359C59.2956 69.7063 58.9249 69.9143 58.5335 70.1439C58.142 70.3734 57.7703 70.6156 57.4183 70.8705L58.8792 71.3419C58.9983 71.2651 59.1237 71.1783 59.2671 71.0962C59.4105 71.014 59.5603 70.922 59.71 70.83C60.3911 70.41 61.0405 70.0394 61.65 69.7199C62.2596 69.4005 62.8508 69.1529 63.4122 68.9628C63.9752 68.7807 64.52 68.6706 65.0599 68.6549C65.598 68.6311 66.1411 68.7081 66.6793 68.8796C67.3172 69.0803 67.7515 69.3592 67.9866 69.6985C68.2218 70.0378 68.3047 70.4187 68.2337 70.8332C68.1626 71.2476 67.9781 71.6868 67.6703 72.1443C67.3624 72.6019 66.9781 73.059 66.5254 73.5142L68.4867 74.1397L67.2177 75.2904L65.2204 74.6557C64.426 75.2955 63.5578 75.909 62.6062 76.4897C61.6626 77.0687 60.7275 77.5694 59.8054 77.9739L58.364 75.8769C58.8373 75.672 59.3151 75.4491 59.8055 75.2065C60.2202 75.0058 60.6829 74.7523 61.1807 74.4656C61.6786 74.1789 62.1451 73.8652 62.5837 73.5404L61.1524 73.0881C60.7356 73.3571 60.309 73.6198 59.858 73.8877C59.1896 74.2879 58.5737 74.6173 58.0103 74.8758C57.4486 75.1424 56.9296 75.3318 56.4405 75.4638C55.9514 75.5957 55.4905 75.6621 55.0559 75.6549C54.6214 75.6476 54.1907 75.5801 53.772 75.4505C53.188 75.2636 52.769 75.0153 52.5049 74.6992C52.249 74.3815 52.1191 74.0192 52.1173 73.6207C52.1235 73.2203 52.2414 72.7872 52.489 72.3258C52.7366 71.8644 53.0769 71.3998 53.5179 70.9303L51.8755 70.405L53.1445 69.2544L54.8049 69.7842C55.1967 69.4782 55.6018 69.1947 56.0186 68.9257C56.4355 68.6567 56.8459 68.3975 57.2617 68.1627C57.6775 67.9278 58.0788 67.7046 58.4674 67.5012C58.8561 67.2977 59.2158 67.1175 59.5449 66.9525L60.8354 68.9805ZM56.461 72.3608C56.6245 72.4101 56.8099 72.4037 57.0171 72.3416C57.2243 72.2795 57.4794 72.1645 57.7743 71.9985L56.5425 71.6045C56.1719 72.0078 56.142 72.2605 56.461 72.3608ZM63.651 72.0092C63.4956 71.9582 63.3039 71.9745 63.066 72.0517C62.8282 72.129 62.5586 72.2556 62.2539 72.4153L63.4578 72.7983C63.6864 72.5618 63.8168 72.3806 63.8326 72.2583C63.8565 72.1343 63.7948 72.0458 63.651 72.0092Z" fill="#F0FAF6"/>
<path d="M60.8354 68.9805C60.4541 69.1399 60.0538 69.3289 59.649 69.5359C59.2956 69.7063 58.9249 69.9143 58.5335 70.1439C58.142 70.3734 57.7703 70.6156 57.4183 70.8705L58.8792 71.3419C58.9983 71.2651 59.1237 71.1783 59.2671 71.0962C59.4105 71.014 59.5603 70.922 59.71 70.83C60.3911 70.41 61.0405 70.0394 61.65 69.7199C62.2596 69.4005 62.8508 69.1529 63.4122 68.9628C63.9752 68.7807 64.52 68.6706 65.0599 68.6549C65.598 68.6311 66.1411 68.7081 66.6793 68.8796C67.3172 69.0803 67.7515 69.3592 67.9866 69.6985C68.2218 70.0378 68.3047 70.4187 68.2337 70.8332C68.1626 71.2476 67.9781 71.6868 67.6703 72.1443C67.3624 72.6019 66.9781 73.059 66.5254 73.5142L68.4867 74.1397L67.2177 75.2904L65.2204 74.6557C64.426 75.2955 63.5578 75.909 62.6062 76.4897C61.6626 77.0687 60.7275 77.5694 59.8054 77.9739L58.364 75.8769C58.8373 75.672 59.3151 75.4491 59.8055 75.2065C60.2202 75.0058 60.6829 74.7523 61.1807 74.4656C61.6786 74.1789 62.1451 73.8652 62.5837 73.5404L61.1524 73.0881C60.7356 73.3571 60.309 73.6198 59.858 73.8877C59.1896 74.2879 58.5737 74.6173 58.0103 74.8758C57.4486 75.1424 56.9296 75.3318 56.4405 75.4638C55.9514 75.5957 55.4905 75.6621 55.0559 75.6549C54.6214 75.6476 54.1907 75.5801 53.772 75.4505C53.188 75.2636 52.769 75.0153 52.5049 74.6992C52.249 74.3815 52.1191 74.0192 52.1173 73.6207C52.1235 73.2203 52.2414 72.7872 52.489 72.3258C52.7366 71.8644 53.0769 71.3998 53.5179 70.9303L51.8755 70.405L53.1445 69.2544L54.8049 69.7842C55.1967 69.4782 55.6018 69.1947 56.0186 68.9257C56.4355 68.6567 56.8459 68.3975 57.2617 68.1627C57.6775 67.9278 58.0788 67.7046 58.4674 67.5012C58.8561 67.2977 59.2158 67.1175 59.5449 66.9525L60.8354 68.9805ZM56.461 72.3608C56.6245 72.4101 56.8099 72.4037 57.0171 72.3416C57.2243 72.2795 57.4794 72.1645 57.7743 71.9985L56.5425 71.6045C56.1719 72.0078 56.142 72.2605 56.461 72.3608ZM63.651 72.0092C63.4956 71.9582 63.3039 71.9745 63.066 72.0517C62.8282 72.129 62.5586 72.2556 62.2539 72.4153L63.4578 72.7983C63.6864 72.5618 63.8168 72.3806 63.8326 72.2583C63.8565 72.1343 63.7948 72.0458 63.651 72.0092Z" fill="url(#paint24_linear_537_7183)" fill-opacity="0.5"/>
<g opacity="0.4">
<path d="M83.2386 31.21L40.4863 19.7546L38.8698 25.7876L38.8778 25.7898C38.8628 25.8459 38.8397 25.8998 38.8247 25.9559C36.9827 32.8302 45.0549 40.9699 56.8647 44.1343C68.6744 47.2987 79.735 44.2857 81.5769 37.4113C81.592 37.3552 81.599 37.297 81.614 37.2409L81.622 37.2431L83.2386 31.21Z" fill="#CCB4A7"/>
<path d="M83.2386 31.21L40.4863 19.7546L38.8698 25.7876L38.8778 25.7898C38.8628 25.8459 38.8397 25.8998 38.8247 25.9559C36.9827 32.8302 45.0549 40.9699 56.8647 44.1343C68.6744 47.2987 79.735 44.2857 81.5769 37.4113C81.592 37.3552 81.599 37.297 81.614 37.2409L81.622 37.2431L83.2386 31.21Z" fill="url(#paint25_linear_537_7183)"/>
<path d="M58.5026 38.0215C70.3083 41.1848 81.3724 38.1748 83.2149 31.2985C85.0574 24.4221 76.9807 16.2834 65.1749 13.12C53.3692 9.95672 42.3052 12.9667 40.4627 19.843C38.6202 26.7194 46.6969 34.8581 58.5026 38.0215Z" fill="#F0FAF6"/>
<path d="M58.5026 38.0215C70.3083 41.1848 81.3724 38.1748 83.2149 31.2985C85.0574 24.4221 76.9807 16.2834 65.1749 13.12C53.3692 9.95672 42.3052 12.9667 40.4627 19.843C38.6202 26.7194 46.6969 34.8581 58.5026 38.0215Z" fill="url(#paint26_linear_537_7183)" fill-opacity="0.5"/>
<path d="M58.5955 37.6852C47.0422 34.5895 39.084 26.7294 40.4776 19.9582C40.4309 20.1003 40.3602 20.2359 40.3216 20.3801C38.4796 27.2544 46.5518 35.3941 58.3615 38.5585C70.1633 41.7208 81.2318 38.7099 83.0738 31.8355C83.1125 31.6913 83.1191 31.5385 83.1497 31.3921C80.9709 37.953 70.1489 40.7809 58.5955 37.6852Z" fill="#C1A595"/>
<path d="M58.5955 37.6852C47.0422 34.5895 39.084 26.7294 40.4776 19.9582C40.4309 20.1003 40.3602 20.2359 40.3216 20.3801C38.4796 27.2544 46.5518 35.3941 58.3615 38.5585C70.1633 41.7208 81.2318 38.7099 83.0738 31.8355C83.1125 31.6913 83.1191 31.5385 83.1497 31.3921C80.9709 37.953 70.1489 40.7809 58.5955 37.6852Z" fill="url(#paint27_linear_537_7183)"/>
<path d="M64.0653 17.2624C72.5981 19.5488 78.507 25.3141 77.6419 30.3377C77.703 30.1737 77.7699 30.0199 77.815 29.8517C79.1911 24.7159 73.1527 18.6326 64.3315 16.2689C55.5102 13.9053 47.2391 16.1544 45.863 21.2901C45.8179 21.4584 45.7969 21.6331 45.77 21.7976C47.5325 17.0145 55.5324 14.976 64.0653 17.2624Z" fill="#D3BAAD"/>
<path d="M64.0653 17.2624C72.5981 19.5488 78.507 25.3141 77.6419 30.3377C77.703 30.1737 77.7699 30.0199 77.815 29.8517C79.1911 24.7159 73.1527 18.6326 64.3315 16.2689C55.5102 13.9053 47.2391 16.1544 45.863 21.2901C45.8179 21.4584 45.7969 21.6331 45.77 21.7976C47.5325 17.0145 55.5324 14.976 64.0653 17.2624Z" fill="url(#paint28_linear_537_7183)"/>
<path d="M63.8561 22.9772C63.4442 22.9441 63.0018 22.9287 62.5471 22.927C62.155 22.9164 61.7302 22.9314 61.277 22.956C60.8239 22.9805 60.3825 23.0254 59.9529 23.0906L61.0351 24.1793C61.1762 24.1655 61.3275 24.1459 61.4926 24.1387C61.6577 24.1314 61.8329 24.1182 62.0082 24.1051C62.806 24.0441 63.553 24.0124 64.2412 24.0078C64.9294 24.0033 65.5684 24.0543 66.1544 24.1426C66.7383 24.239 67.2729 24.3908 67.7599 24.6244C68.2491 24.8499 68.6965 25.1673 69.0962 25.5663C69.5712 26.0371 69.8292 26.4841 69.8827 26.8934C69.9362 27.3028 69.8353 27.6793 69.5821 28.0151C69.329 28.3509 68.9637 28.6566 68.4804 28.9221C67.997 29.1876 67.4459 29.4178 66.835 29.6148L68.2913 31.0698L66.6361 31.5108L65.1519 30.0311C64.1525 30.2356 63.0998 30.3829 61.9878 30.4628C60.8838 30.5448 59.8232 30.5612 58.8182 30.498L58.4985 27.9735C59.013 28.0083 59.5398 28.0293 60.0869 28.0385C60.5475 28.0503 61.0749 28.037 61.6488 28.0104C62.2226 27.9839 62.7811 27.9188 63.3197 27.8313L62.2551 26.7732C61.7613 26.8212 61.2617 26.8591 60.738 26.8905C59.9606 26.9398 59.2622 26.9502 58.643 26.9217C58.0216 26.9011 57.4735 26.8316 56.9783 26.7246C56.4831 26.6177 56.043 26.4655 55.6602 26.2598C55.2773 26.0542 54.9255 25.7968 54.6128 25.4897C54.1795 25.0559 53.9208 24.6431 53.831 24.2412C53.7492 23.8414 53.7999 23.46 53.9809 23.1049C54.1699 22.7519 54.4733 22.421 54.9048 22.1245C55.3364 21.8279 55.8517 21.571 56.459 21.3558L55.2401 20.1362L56.8954 19.6952L58.1281 20.9272C58.6166 20.8348 59.1066 20.7686 59.6004 20.7206C60.0942 20.6725 60.5777 20.6304 61.0549 20.6122C61.5321 20.5941 61.9911 20.5797 62.4297 20.577C62.8684 20.5743 63.2707 20.5791 63.6389 20.5833L63.8561 22.9772ZM58.4189 23.9763C58.5416 24.0951 58.7093 24.1743 58.9219 24.2141C59.1345 24.2539 59.414 24.2687 59.7522 24.2563L58.838 23.3415C58.3238 23.53 58.1814 23.7409 58.4189 23.9763ZM64.9702 26.9597C64.8555 26.8431 64.6776 26.7697 64.4308 26.7293C64.184 26.6889 63.8864 26.6779 63.5423 26.6801L64.4368 27.5724C64.7484 27.467 64.9473 27.3657 65.0174 27.2643C65.0955 27.165 65.0791 27.0661 64.9702 26.9597Z" fill="#C1A595"/>
<path d="M63.8561 22.9772C63.4442 22.9441 63.0018 22.9287 62.5471 22.927C62.155 22.9164 61.7302 22.9314 61.277 22.956C60.8239 22.9805 60.3825 23.0254 59.9529 23.0906L61.0351 24.1793C61.1762 24.1655 61.3275 24.1459 61.4926 24.1387C61.6577 24.1314 61.8329 24.1182 62.0082 24.1051C62.806 24.0441 63.553 24.0124 64.2412 24.0078C64.9294 24.0033 65.5684 24.0543 66.1544 24.1426C66.7383 24.239 67.2729 24.3908 67.7599 24.6244C68.2491 24.8499 68.6965 25.1673 69.0962 25.5663C69.5712 26.0371 69.8292 26.4841 69.8827 26.8934C69.9362 27.3028 69.8353 27.6793 69.5821 28.0151C69.329 28.3509 68.9637 28.6566 68.4804 28.9221C67.997 29.1876 67.4459 29.4178 66.835 29.6148L68.2913 31.0698L66.6361 31.5108L65.1519 30.0311C64.1525 30.2356 63.0998 30.3829 61.9878 30.4628C60.8838 30.5448 59.8232 30.5612 58.8182 30.498L58.4985 27.9735C59.013 28.0083 59.5398 28.0293 60.0869 28.0385C60.5475 28.0503 61.0749 28.037 61.6488 28.0104C62.2226 27.9839 62.7811 27.9188 63.3197 27.8313L62.2551 26.7732C61.7613 26.8212 61.2617 26.8591 60.738 26.8905C59.9606 26.9398 59.2622 26.9502 58.643 26.9217C58.0216 26.9011 57.4735 26.8316 56.9783 26.7246C56.4831 26.6177 56.043 26.4655 55.6602 26.2598C55.2773 26.0542 54.9255 25.7968 54.6128 25.4897C54.1795 25.0559 53.9208 24.6431 53.831 24.2412C53.7492 23.8414 53.7999 23.46 53.9809 23.1049C54.1699 22.7519 54.4733 22.421 54.9048 22.1245C55.3364 21.8279 55.8517 21.571 56.459 21.3558L55.2401 20.1362L56.8954 19.6952L58.1281 20.9272C58.6166 20.8348 59.1066 20.7686 59.6004 20.7206C60.0942 20.6725 60.5777 20.6304 61.0549 20.6122C61.5321 20.5941 61.9911 20.5797 62.4297 20.577C62.8684 20.5743 63.2707 20.5791 63.6389 20.5833L63.8561 22.9772ZM58.4189 23.9763C58.5416 24.0951 58.7093 24.1743 58.9219 24.2141C59.1345 24.2539 59.414 24.2687 59.7522 24.2563L58.838 23.3415C58.3238 23.53 58.1814 23.7409 58.4189 23.9763ZM64.9702 26.9597C64.8555 26.8431 64.6776 26.7697 64.4308 26.7293C64.184 26.6889 63.8864 26.6779 63.5423 26.6801L64.4368 27.5724C64.7484 27.467 64.9473 27.3657 65.0174 27.2643C65.0955 27.165 65.0791 27.0661 64.9702 26.9597Z" fill="url(#paint29_linear_537_7183)"/>
<path d="M63.9967 22.4482C63.5848 22.4151 63.1424 22.3997 62.6878 22.398C62.2956 22.3874 61.8708 22.4024 61.4177 22.427C60.9645 22.4516 60.5232 22.4964 60.0935 22.5616L61.1758 23.6503C61.3168 23.6365 61.4681 23.6169 61.6332 23.6097C61.7983 23.6024 61.9736 23.5892 62.1488 23.5761C62.9466 23.5151 63.6936 23.4834 64.3818 23.4788C65.07 23.4743 65.709 23.5253 66.295 23.6136C66.8789 23.71 67.4136 23.8618 67.9006 24.0954C68.3897 24.3209 68.8371 24.6383 69.2368 25.0374C69.7118 25.5081 69.9698 25.9551 70.0233 26.3644C70.0768 26.7738 69.9759 27.1504 69.7228 27.4861C69.4696 27.8219 69.1043 28.1276 68.621 28.3931C68.1377 28.6586 67.5865 28.8888 66.9756 29.0858L68.432 30.5408L66.7767 30.9818L65.2925 29.5021C64.2931 29.7066 63.2404 29.8539 62.1284 29.9338C61.0244 30.0158 59.9638 30.0322 58.9588 29.969L58.6391 27.4445C59.1536 27.4794 59.6804 27.5003 60.2276 27.5095C60.6881 27.5213 61.2155 27.508 61.7894 27.4814C62.3633 27.4549 62.9217 27.3898 63.4604 27.3023L62.3957 26.2442C61.9019 26.2922 61.4023 26.3301 60.8787 26.3615C60.1012 26.4108 59.4028 26.4212 58.7836 26.3927C58.1622 26.3722 57.6141 26.3026 57.1189 26.1956C56.6238 26.0887 56.1837 25.9365 55.8008 25.7308C55.418 25.5252 55.0662 25.2678 54.7534 24.9607C54.3201 24.5269 54.0614 24.1141 53.9716 23.7122C53.8898 23.3124 53.9405 22.931 54.1215 22.5759C54.3106 22.2229 54.6139 21.892 55.0455 21.5955C55.477 21.2989 55.9924 21.042 56.5996 20.8268L55.3807 19.6072L57.036 19.1662L58.2688 20.3982C58.7572 20.3058 59.2473 20.2396 59.741 20.1916C60.2348 20.1435 60.7184 20.1014 61.1955 20.0832C61.6727 20.0651 62.1317 20.0507 62.5704 20.048C63.009 20.0453 63.4113 20.0501 63.7795 20.0543L63.9967 22.4482ZM58.5595 23.4473C58.6823 23.5661 58.8499 23.6453 59.0625 23.6851C59.2751 23.7249 59.5546 23.7397 59.8928 23.7273L58.9786 22.8125C58.4644 23.001 58.322 23.2119 58.5595 23.4473ZM65.1108 26.4307C64.9961 26.3141 64.8183 26.2407 64.5714 26.2003C64.3246 26.1599 64.027 26.1489 63.683 26.1511L64.5774 27.0434C64.889 26.938 65.0879 26.8367 65.158 26.7353C65.2361 26.636 65.2218 26.5291 65.1108 26.4307Z" fill="url(#paint30_linear_537_7183)"/>
<path d="M63.9967 22.4482C63.5848 22.4151 63.1424 22.3997 62.6878 22.398C62.2956 22.3874 61.8708 22.4024 61.4177 22.427C60.9645 22.4516 60.5232 22.4964 60.0935 22.5616L61.1758 23.6503C61.3168 23.6365 61.4681 23.6169 61.6332 23.6097C61.7983 23.6024 61.9736 23.5892 62.1488 23.5761C62.9466 23.5151 63.6936 23.4834 64.3818 23.4788C65.07 23.4743 65.709 23.5253 66.295 23.6136C66.8789 23.71 67.4136 23.8618 67.9006 24.0954C68.3897 24.3209 68.8371 24.6383 69.2368 25.0374C69.7118 25.5081 69.9698 25.9551 70.0233 26.3644C70.0768 26.7738 69.9759 27.1504 69.7228 27.4861C69.4696 27.8219 69.1043 28.1276 68.621 28.3931C68.1377 28.6586 67.5865 28.8888 66.9756 29.0858L68.432 30.5408L66.7767 30.9818L65.2925 29.5021C64.2931 29.7066 63.2404 29.8539 62.1284 29.9338C61.0244 30.0158 59.9638 30.0322 58.9588 29.969L58.6391 27.4445C59.1536 27.4794 59.6804 27.5003 60.2276 27.5095C60.6881 27.5213 61.2155 27.508 61.7894 27.4814C62.3633 27.4549 62.9217 27.3898 63.4604 27.3023L62.3957 26.2442C61.9019 26.2922 61.4023 26.3301 60.8787 26.3615C60.1012 26.4108 59.4028 26.4212 58.7836 26.3927C58.1622 26.3722 57.6141 26.3026 57.1189 26.1956C56.6238 26.0887 56.1837 25.9365 55.8008 25.7308C55.418 25.5252 55.0662 25.2678 54.7534 24.9607C54.3201 24.5269 54.0614 24.1141 53.9716 23.7122C53.8898 23.3124 53.9405 22.931 54.1215 22.5759C54.3106 22.2229 54.6139 21.892 55.0455 21.5955C55.477 21.2989 55.9924 21.042 56.5996 20.8268L55.3807 19.6072L57.036 19.1662L58.2688 20.3982C58.7572 20.3058 59.2473 20.2396 59.741 20.1916C60.2348 20.1435 60.7184 20.1014 61.1955 20.0832C61.6727 20.0651 62.1317 20.0507 62.5704 20.048C63.009 20.0453 63.4113 20.0501 63.7795 20.0543L63.9967 22.4482ZM58.5595 23.4473C58.6823 23.5661 58.8499 23.6453 59.0625 23.6851C59.2751 23.7249 59.5546 23.7397 59.8928 23.7273L58.9786 22.8125C58.4644 23.001 58.322 23.2119 58.5595 23.4473ZM65.1108 26.4307C64.9961 26.3141 64.8183 26.2407 64.5714 26.2003C64.3246 26.1599 64.027 26.1489 63.683 26.1511L64.5774 27.0434C64.889 26.938 65.0879 26.8367 65.158 26.7353C65.2361 26.636 65.2218 26.5291 65.1108 26.4307Z" fill="#F0FAF6"/>
<path d="M63.9967 22.4482C63.5848 22.4151 63.1424 22.3997 62.6878 22.398C62.2956 22.3874 61.8708 22.4024 61.4177 22.427C60.9645 22.4516 60.5232 22.4964 60.0935 22.5616L61.1758 23.6503C61.3168 23.6365 61.4681 23.6169 61.6332 23.6097C61.7983 23.6024 61.9736 23.5892 62.1488 23.5761C62.9466 23.5151 63.6936 23.4834 64.3818 23.4788C65.07 23.4743 65.709 23.5253 66.295 23.6136C66.8789 23.71 67.4136 23.8618 67.9006 24.0954C68.3897 24.3209 68.8371 24.6383 69.2368 25.0374C69.7118 25.5081 69.9698 25.9551 70.0233 26.3644C70.0768 26.7738 69.9759 27.1504 69.7228 27.4861C69.4696 27.8219 69.1043 28.1276 68.621 28.3931C68.1377 28.6586 67.5865 28.8888 66.9756 29.0858L68.432 30.5408L66.7767 30.9818L65.2925 29.5021C64.2931 29.7066 63.2404 29.8539 62.1284 29.9338C61.0244 30.0158 59.9638 30.0322 58.9588 29.969L58.6391 27.4445C59.1536 27.4794 59.6804 27.5003 60.2276 27.5095C60.6881 27.5213 61.2155 27.508 61.7894 27.4814C62.3633 27.4549 62.9217 27.3898 63.4604 27.3023L62.3957 26.2442C61.9019 26.2922 61.4023 26.3301 60.8787 26.3615C60.1012 26.4108 59.4028 26.4212 58.7836 26.3927C58.1622 26.3722 57.6141 26.3026 57.1189 26.1956C56.6238 26.0887 56.1837 25.9365 55.8008 25.7308C55.418 25.5252 55.0662 25.2678 54.7534 24.9607C54.3201 24.5269 54.0614 24.1141 53.9716 23.7122C53.8898 23.3124 53.9405 22.931 54.1215 22.5759C54.3106 22.2229 54.6139 21.892 55.0455 21.5955C55.477 21.2989 55.9924 21.042 56.5996 20.8268L55.3807 19.6072L57.036 19.1662L58.2688 20.3982C58.7572 20.3058 59.2473 20.2396 59.741 20.1916C60.2348 20.1435 60.7184 20.1014 61.1955 20.0832C61.6727 20.0651 62.1317 20.0507 62.5704 20.048C63.009 20.0453 63.4113 20.0501 63.7795 20.0543L63.9967 22.4482ZM58.5595 23.4473C58.6823 23.5661 58.8499 23.6453 59.0625 23.6851C59.2751 23.7249 59.5546 23.7397 59.8928 23.7273L58.9786 22.8125C58.4644 23.001 58.322 23.2119 58.5595 23.4473ZM65.1108 26.4307C64.9961 26.3141 64.8183 26.2407 64.5714 26.2003C64.3246 26.1599 64.027 26.1489 63.683 26.1511L64.5774 27.0434C64.889 26.938 65.0879 26.8367 65.158 26.7353C65.2361 26.636 65.2218 26.5291 65.1108 26.4307Z" fill="url(#paint31_linear_537_7183)" fill-opacity="0.5"/>
</g>
<defs>
<linearGradient id="paint0_linear_537_7183" x1="66.6699" y1="64.7876" x2="33.2719" y2="149.418" gradientUnits="userSpaceOnUse">
<stop stop-color="#245795"/>
<stop offset="1" stop-color="#8AD3A8"/>
</linearGradient>
<linearGradient id="paint1_linear_537_7183" x1="121.871" y1="76.113" x2="143.582" y2="133.105" gradientUnits="userSpaceOnUse">
<stop stop-color="#245795"/>
<stop offset="1" stop-color="#8AD3A8"/>
</linearGradient>
<linearGradient id="paint2_linear_537_7183" x1="127.653" y1="72.3436" x2="88.5105" y2="152.93" gradientUnits="userSpaceOnUse">
<stop stop-color="#245795"/>
<stop offset="1" stop-color="#8AD3A8"/>
</linearGradient>
<linearGradient id="paint3_linear_537_7183" x1="114.501" y1="122.452" x2="1.11691" y2="122.452" gradientUnits="userSpaceOnUse">
<stop offset="0.096" stop-color="#45108A"/>
<stop offset="1" stop-color="#7C1DC9"/>
</linearGradient>
<linearGradient id="paint4_linear_537_7183" x1="17.8223" y1="70.4537" x2="96.3235" y2="125.487" gradientUnits="userSpaceOnUse">
<stop stop-color="#245795"/>
<stop offset="1" stop-color="#8AD3A8"/>
</linearGradient>
<linearGradient id="paint5_linear_537_7183" x1="20.4781" y1="64.6392" x2="-47.9822" y2="106.614" gradientUnits="userSpaceOnUse">
<stop stop-color="#245795"/>
<stop offset="1" stop-color="#8AD3A8"/>
</linearGradient>
<linearGradient id="paint6_linear_537_7183" x1="140.146" y1="32.7299" x2="130.183" y2="206.039" gradientUnits="userSpaceOnUse">
<stop stop-color="#245795"/>
<stop offset="1" stop-color="#8AD3A8"/>
</linearGradient>
<linearGradient id="paint7_linear_537_7183" x1="83.4315" y1="77.647" x2="83.4235" y2="77.647" gradientUnits="userSpaceOnUse">
<stop stop-color="#FFBB96"/>
<stop offset="0.2273" stop-color="#FFFBC9"/>
<stop offset="0.5404" stop-color="#F9B673"/>
<stop offset="0.6391" stop-color="#F9B876"/>
<stop offset="0.7249" stop-color="#FABE81"/>
<stop offset="0.8057" stop-color="#FCC993"/>
<stop offset="0.8586" stop-color="#FED2A3"/>
<stop offset="0.9697" stop-color="#FFC28C"/>
</linearGradient>
<linearGradient id="paint8_linear_537_7183" x1="37.9214" y1="77.6463" x2="37.9137" y2="77.6463" gradientUnits="userSpaceOnUse">
<stop stop-color="#FFBB96"/>
<stop offset="0.2273" stop-color="#FFFBC9"/>
<stop offset="0.5404" stop-color="#F9B673"/>
<stop offset="0.6391" stop-color="#F9B876"/>
<stop offset="0.7249" stop-color="#FABE81"/>
<stop offset="0.8057" stop-color="#FCC993"/>
<stop offset="0.8586" stop-color="#FED2A3"/>
<stop offset="0.9697" stop-color="#FFC28C"/>
</linearGradient>
<linearGradient id="paint9_linear_537_7183" x1="60.4135" y1="124.746" x2="62.6249" y2="10.6359" gradientUnits="userSpaceOnUse">
<stop stop-color="white"/>
<stop offset="1" stop-color="white" stop-opacity="0"/>
</linearGradient>
<linearGradient id="paint10_linear_537_7183" x1="48.8777" y1="111.135" x2="1.63237" y2="154.068" gradientUnits="userSpaceOnUse">
<stop offset="0.096" stop-color="#45108A"/>
<stop offset="1" stop-color="#7C1DC9"/>
</linearGradient>
<linearGradient id="paint11_linear_537_7183" x1="45.291" y1="81.5336" x2="86.954" y2="139.452" gradientUnits="userSpaceOnUse">
<stop stop-color="#245795"/>
<stop offset="1" stop-color="#8AD3A8"/>
</linearGradient>
<linearGradient id="paint12_linear_537_7183" x1="49.4142" y1="76.4572" x2="-17.4006" y2="149.305" gradientUnits="userSpaceOnUse">
<stop stop-color="#245795"/>
<stop offset="1" stop-color="#8AD3A8"/>
</linearGradient>
<linearGradient id="paint13_linear_537_7183" x1="47.3327" y1="120.923" x2="59.8743" y2="200.915" gradientUnits="userSpaceOnUse">
<stop stop-color="#245795"/>
<stop offset="1" stop-color="#8AD3A8"/>
</linearGradient>
<linearGradient id="paint14_linear_537_7183" x1="67.4864" y1="116.966" x2="40.3229" y2="191.167" gradientUnits="userSpaceOnUse">
<stop stop-color="#245795"/>
<stop offset="1" stop-color="#8AD3A8"/>
</linearGradient>
<linearGradient id="paint15_linear_537_7183" x1="67.3882" y1="109.824" x2="53.8698" y2="163.858" gradientUnits="userSpaceOnUse">
<stop stop-color="#245795"/>
<stop offset="1" stop-color="#8AD3A8"/>
</linearGradient>
<linearGradient id="paint16_linear_537_7183" x1="91.3396" y1="103.229" x2="91.3396" y2="167.944" gradientUnits="userSpaceOnUse">
<stop stop-color="#D4F2E4"/>
<stop offset="1" stop-color="#A9D4CC"/>
</linearGradient>
<linearGradient id="paint17_linear_537_7183" x1="51.916" y1="79.2487" x2="40.3267" y2="130.671" gradientUnits="userSpaceOnUse">
<stop stop-color="#245795"/>
<stop offset="1" stop-color="#8AD3A8"/>
</linearGradient>
<linearGradient id="paint18_linear_537_7183" x1="-15.0357" y1="-14.7909" x2="-61.658" y2="56.7334" gradientUnits="userSpaceOnUse">
<stop stop-color="#245795"/>
<stop offset="1" stop-color="#8AD3A8"/>
</linearGradient>
<linearGradient id="paint19_linear_537_7183" x1="80.4704" y1="16.156" x2="21.115" y2="21.2776" gradientUnits="userSpaceOnUse">
<stop stop-color="#245795"/>
<stop offset="1" stop-color="#8AD3A8"/>
</linearGradient>
<linearGradient id="paint20_linear_537_7183" x1="31.3523" y1="74.8097" x2="40.8834" y2="102.012" gradientUnits="userSpaceOnUse">
<stop stop-color="#245795"/>
<stop offset="1" stop-color="#8AD3A8"/>
</linearGradient>
<linearGradient id="paint21_linear_537_7183" x1="36.5976" y1="64.7443" x2="43.8891" y2="85.4124" gradientUnits="userSpaceOnUse">
<stop stop-color="#245795"/>
<stop offset="1" stop-color="#8AD3A8"/>
</linearGradient>
<linearGradient id="paint22_linear_537_7183" x1="27.0621" y1="16.3675" x2="0.886766" y2="43.054" gradientUnits="userSpaceOnUse">
<stop stop-color="#245795"/>
<stop offset="1" stop-color="#8AD3A8"/>
</linearGradient>
<linearGradient id="paint23_linear_537_7183" x1="74.1345" y1="60.178" x2="62.0287" y2="70.667" gradientUnits="userSpaceOnUse">
<stop offset="0.0354" stop-color="#FFBA78"/>
<stop offset="0.395" stop-color="#FFC987"/>
<stop offset="1" stop-color="#FEECA8"/>
</linearGradient>
<linearGradient id="paint24_linear_537_7183" x1="39.9842" y1="56.5739" x2="43.2377" y2="82.8543" gradientUnits="userSpaceOnUse">
<stop stop-color="#245795"/>
<stop offset="1" stop-color="#8AD3A8"/>
</linearGradient>
<linearGradient id="paint25_linear_537_7183" x1="34.9668" y1="-86.7818" x2="-39.2549" y2="-44.5857" gradientUnits="userSpaceOnUse">
<stop stop-color="#245795"/>
<stop offset="1" stop-color="#8AD3A8"/>
</linearGradient>
<linearGradient id="paint26_linear_537_7183" x1="105.662" y1="-15.4991" x2="50.5624" y2="-38.1552" gradientUnits="userSpaceOnUse">
<stop stop-color="#245795"/>
<stop offset="1" stop-color="#8AD3A8"/>
</linearGradient>
<linearGradient id="paint27_linear_537_7183" x1="35.1229" y1="14.1132" x2="31.1245" y2="42.6581" gradientUnits="userSpaceOnUse">
<stop stop-color="#245795"/>
<stop offset="1" stop-color="#8AD3A8"/>
</linearGradient>
<linearGradient id="paint28_linear_537_7183" x1="44.398" y1="7.57347" x2="41.4043" y2="29.2846" gradientUnits="userSpaceOnUse">
<stop stop-color="#245795"/>
<stop offset="1" stop-color="#8AD3A8"/>
</linearGradient>
<linearGradient id="paint29_linear_537_7183" x1="58.0965" y1="-39.7935" x2="22.6003" y2="-28.0744" gradientUnits="userSpaceOnUse">
<stop stop-color="#245795"/>
<stop offset="1" stop-color="#8AD3A8"/>
</linearGradient>
<linearGradient id="paint30_linear_537_7183" x1="79.8513" y1="20.7212" x2="64.2843" y2="24.4941" gradientUnits="userSpaceOnUse">
<stop offset="0.0354" stop-color="#FFBA78"/>
<stop offset="0.395" stop-color="#FFC987"/>
<stop offset="1" stop-color="#FEECA8"/>
</linearGradient>
<linearGradient id="paint31_linear_537_7183" x1="51.1524" y1="1.86388" x2="41.9972" y2="26.712" gradientUnits="userSpaceOnUse">
<stop stop-color="#245795"/>
<stop offset="1" stop-color="#8AD3A8"/>
</linearGradient>
</defs>
</svg>
