<?xml version="1.0" encoding="UTF-8" standalone="no"?>
<svg
   width="198.21942"
   height="141.27951"
   viewBox="0 0 198.21942 141.27951"
   fill="none"
   version="1.1"
   id="svg100"
   sodipodi:docname="3.svg"
   inkscape:version="1.2 (dc2aeda, 2022-05-15)"
   xmlns:inkscape="http://www.inkscape.org/namespaces/inkscape"
   xmlns:sodipodi="http://sodipodi.sourceforge.net/DTD/sodipodi-0.dtd"
   xmlns="http://www.w3.org/2000/svg"
   xmlns:svg="http://www.w3.org/2000/svg">
  <sodipodi:namedview
     id="namedview102"
     pagecolor="#ffffff"
     bordercolor="#000000"
     borderopacity="0.25"
     inkscape:showpageshadow="2"
     inkscape:pageopacity="0.0"
     inkscape:pagecheckerboard="0"
     inkscape:deskcolor="#d1d1d1"
     showgrid="false"
     inkscape:zoom="1.8438977"
     inkscape:cx="71.045156"
     inkscape:cy="78.908933"
     inkscape:window-width="1728"
     inkscape:window-height="991"
     inkscape:window-x="0"
     inkscape:window-y="38"
     inkscape:window-maximized="0"
     inkscape:current-layer="svg100" />
  <rect
     x="132.56674"
     y="23.166252"
     width="58.4165"
     height="107.085"
     rx="16.5"
     transform="rotate(0.375654)"
     stroke="#e6eff1"
     stroke-width="15"
     id="rect9" />
  <path
     d="m 161.459,48.77641 -0.38,57.9831"
     stroke="#e6eff1"
     stroke-width="15"
     stroke-linecap="round"
     id="path11" />
  <path
     d="m 135.263,59.32951 c -0.863,3.451 -2.256,6.787 -2.402,10.394 -0.114,2.869 -0.79,5.01 -2.297,6.642 -0.582,0.634 -2.214,0 -2.827,-0.946 -0.967,-1.486 0.624,-4.459 -1.258,-4.833 -2.349,-0.468 -3.659,-0.01 -4.501,3.077 -0.893,3.201 1.237,5.914 2.246,8.929 0.228,0.686 0.883,1.632 -0.499,1.819 -2.079,0.28 -4.896,-1.029 -5.717,-3.077 -0.499,-1.258 -2.578,-0.738 -3.264,-1.57 -0.998,-1.205 -0.956,-2.588 -2.058,-2.255 -0.884,0.27 -1.497,1.112 -2.308,1.601 -1.548,0.925 -3.96,4.064 -5.821,3.793 -6.985,-1.008 -10.488,-0.769 -15.02,0.884 -1.382,0.499 -2.421,-0.395 -3.45,-0.197 -1.321,0.259 -2.017,-0.78 -2.963,-1.3 -0.249,0.676 -0.759,1.798 -0.187,2.557 0.468,0.624 1.59,0.562 2.578,0.562 1.164,0 2.578,0.623 4.022,1.694 0.718,0.53 2.287,0.312 2.994,0.197 2.474,-0.395 3.815,-1.725 6.465,-0.634 2.765,1.133 4.813,2.703 4.74,6.039 -0.052,2.36 0.416,4.844 0.094,7.058 -0.915,6.206 -2.214,10.852 -6.362,16.195 -0.831,1.07 -1.008,3.264 -1.881,4.334 -1.445,1.767 -4.168,3.243 -5.842,4.844 -1.455,1.393 -2.692,3.69 -4.324,4.844 -2.9,2.058 -3.43,3.544 -5.987,2.318 -1.445,-0.697 -3.96,-4.491 -4.927,-5.832 -1.3615,-1.891 -2.3282,-4.033 -2.8271,-6.309 -0.2703,-1.237 -0.3015,-2.474 -0.4262,-3.732 -0.2599,-2.692 -1.185,-3.586 -3.2638,-5.051 -2.0685,-1.455 -2.6922,-2.755 -4.0954,-4.865 -1.9334,-2.91 -4.6048,-2.848 -7.2346,-4.584 -1.2265,-0.8 -1.9749,-1.632 -2.3179,-3.087 -0.1559,-0.686 0.2391,-3.347 0.2494,-3.96 0.0312,-1.611 -0.4261,-2.879 -0.3845,-4.418 0.1351,-4.646 6.9122,-8.908 10.6334,-10.571 2.713,-1.206 4.4489,-0.416 6.8084,-0.53 1.1226,-0.052 2.9523,-0.624 3.9813,0.301 0.707,0.634 1.694,0.863 2.494,1.383 1.133,0.26 2.318,0.447 3.576,0.447 0.042,0 0.052,0.031 0.094,0.031 -0.718,-0.416 -1.414,-0.894 -2.1,-1.455 -2.017,-1.663 -3.659,-3.669 -6.1535,-4.647 -2.5466,-0.997 -5.0829,-0.706 -7.7439,-0.55 -2.8065,0.166 -5.4259,-0.354 -7.7022,-0.936 -2.6506,-0.676 -3.6589,-2.838 -3.9707,-6.164 -0.1143,-1.174 0.6548,-2.879 0.7484,-4.189 0.1455,-2.079 -1.3825,-3.523 0.0624,-5.779 1.4656,-2.2972 3.0975,-5.1349 5.4986,-6.4758 2.1101,-1.1746 4.6151,-1.4968 6.7876,-2.5258 2.0892,-0.9875 3.981,-2.3596 5.7793,-3.8044 2.858,-2.2764 5.509,-4.8334 8.659,-6.7356 7.14,-4.3137 15.778,-2.11 23.044,-5.6857 3.617,-1.7775 7.567,-7.7647 11.995,-7.9102 C 106.792,14.84131 93.945,7.9914103 79.59,5.6110103 c 1.372,1.2682 2.505,2.6818 3.253,4.2722 1.445,3.0766997 0.24,4.6254997 -1.351,7.1408997 -1.559,2.4843 -0.083,5.2076 -2.411,7.1306 -1.726,1.4344 -4.7298,1.8502 -6.7878,2.5986 -2.6714,0.9667 -5.3324,1.9438 -8.0038,2.8897 -2.7129,0.9458 -5.7481,1.8606 -8.6585,1.3616 -3.1495,-0.5301 -3.8563,-2.0061 -5.2076,-4.5112 -0.2703,-0.4989 -0.5093,-3.3781 -2.7649,-3.4717 -3.0144,-0.1247 -5.2804,-0.2495 -7.1618,0.9979 -2.5362,1.6839 -3.3158,5.3115 -3.9083,8.2739 -0.7588,3.7836 1.081,8.4611 -1.2265,11.8497 -1.3721,2.0061 -3.8356,2.7753 -6.1328,3.0455 -4.5215,0.5405 -8.8768,-1.133 -13.3568,-1.1641 -3.6068,-0.0208 -6.2886,1.6839 -6.985,4.5111 -0.4782,1.9438 0.5613,4.0227 0.6132,6.0392 0.0728,3.0356 -0.1663,5.6336 -0.7588,8.3576 -0.2286,1.049 -1.1745,2.297 -2.0165,1.631 -2.3387,-1.839 -4.1577,-3.991 -5.5298,-6.33 -0.4885,2.599 -0.8316,5.249 -1.0187,7.942 0.9147,0.384 2.1829,1.403 3.0456,2.13 2.609,2.214 2.3803,6.435 3.9291,9.387 2.3907,4.552 7.0474,5.27 10.8102,8.149 2.0165,1.549 3.69,3.565 3.9187,6.195 0.1247,1.393 -0.2703,2.391 -0.4885,3.731 -0.6549,4.002 -0.0728,6.986 1.8294,10.582 3.3262,6.289 8.5858,12.463 15.3733,14.968 1.2058,0.447 2.952,0.884 3.5861,1.892 0.5925,0.946 -2.8169,2.266 -3.6484,2.765 -2.4843,1.486 -4.8854,2.234 -7.2034,2.422 10.6647,6.881 23.3459,10.883 36.973,10.883 37.7313,0 68.3123,-30.581 68.3123,-68.313 0.01,-4.656 -0.458,-9.219 -1.351,-13.637 z m -99.9948,-6.507 c -0.4054,1.0291 -0.7068,1.7671 -0.8523,2.9832 -0.0936,0.7796 0.0727,1.4448 -0.5094,2.0788 -0.8107,0.884 -2.0269,0.697 -2.9312,0.062 -2.0165,-1.4028 -3.3366,-3.7831 -5.3531,-5.2799 -0.8212,-0.6029 -1.975,-0.842 -1.6839,-1.9957 0.3326,-1.2682 2.1516,-1.632 3.2223,-1.6216 1.4136,0.0104 2.9104,0.8524 4.0642,-0.0415 0.9355,-0.7276 2.3075,-1.1226 3.0767,-0.5509 1.2578,0.9458 1.4864,3.0455 0.9667,4.3656 z"
     fill="#c9eddb"
     id="path13" />
  <path
     d="m 135.263,59.32951 c -0.863,3.451 -2.256,6.787 -2.402,10.394 -0.114,2.869 -0.79,5.01 -2.297,6.642 -0.582,0.634 -2.214,0 -2.827,-0.946 -0.967,-1.486 0.624,-4.459 -1.258,-4.833 -2.349,-0.468 -3.659,-0.01 -4.501,3.077 -0.893,3.201 1.237,5.914 2.246,8.929 0.228,0.686 0.883,1.632 -0.499,1.819 -2.079,0.28 -4.896,-1.029 -5.717,-3.077 -0.499,-1.258 -2.578,-0.738 -3.264,-1.57 -0.998,-1.205 -0.956,-2.588 -2.058,-2.255 -0.884,0.27 -1.497,1.112 -2.308,1.601 -1.548,0.925 -3.96,4.064 -5.821,3.793 -6.985,-1.008 -10.488,-0.769 -15.02,0.884 -1.382,0.499 -2.421,-0.395 -3.45,-0.197 -1.321,0.259 -2.017,-0.78 -2.963,-1.3 -0.249,0.676 -0.759,1.798 -0.187,2.557 0.468,0.624 1.59,0.562 2.578,0.562 1.164,0 2.578,0.623 4.022,1.694 0.718,0.53 2.287,0.312 2.994,0.197 2.474,-0.395 3.815,-1.725 6.465,-0.634 2.765,1.133 4.813,2.703 4.74,6.039 -0.052,2.36 0.416,4.844 0.094,7.058 -0.915,6.206 -2.214,10.852 -6.362,16.195 -0.831,1.07 -1.008,3.264 -1.881,4.334 -1.445,1.767 -4.168,3.243 -5.842,4.844 -1.455,1.393 -2.692,3.69 -4.324,4.844 -2.9,2.058 -3.43,3.544 -5.987,2.318 -1.445,-0.697 -3.96,-4.491 -4.927,-5.832 -1.3615,-1.891 -2.3282,-4.033 -2.8271,-6.309 -0.2703,-1.237 -0.3015,-2.474 -0.4262,-3.732 -0.2599,-2.692 -1.185,-3.586 -3.2638,-5.051 -2.0685,-1.455 -2.6922,-2.755 -4.0954,-4.865 -1.9334,-2.91 -4.6048,-2.848 -7.2346,-4.584 -1.2265,-0.8 -1.9749,-1.632 -2.3179,-3.087 -0.1559,-0.686 0.2391,-3.347 0.2494,-3.96 0.0312,-1.611 -0.4261,-2.879 -0.3845,-4.418 0.1351,-4.646 6.9122,-8.908 10.6334,-10.571 2.713,-1.206 4.4489,-0.416 6.8084,-0.53 1.1226,-0.052 2.9523,-0.624 3.9813,0.301 0.707,0.634 1.694,0.863 2.494,1.383 1.133,0.26 2.318,0.447 3.576,0.447 0.042,0 0.052,0.031 0.094,0.031 -0.718,-0.416 -1.414,-0.894 -2.1,-1.455 -2.017,-1.663 -3.659,-3.669 -6.1535,-4.647 -2.5466,-0.997 -5.0829,-0.706 -7.7439,-0.55 -2.8065,0.166 -5.4259,-0.354 -7.7022,-0.936 -2.6506,-0.676 -3.6589,-2.838 -3.9707,-6.164 -0.1143,-1.174 0.6548,-2.879 0.7484,-4.189 0.1455,-2.079 -1.3825,-3.523 0.0624,-5.779 1.4656,-2.2972 3.0975,-5.1349 5.4986,-6.4758 2.1101,-1.1746 4.6151,-1.4968 6.7876,-2.5258 2.0892,-0.9875 3.981,-2.3596 5.7793,-3.8044 2.858,-2.2764 5.509,-4.8334 8.659,-6.7356 7.14,-4.3137 15.778,-2.11 23.044,-5.6857 3.617,-1.7775 7.567,-7.7647 11.995,-7.9102 C 106.792,14.84131 93.945,7.9914103 79.59,5.6110103 c 1.372,1.2682 2.505,2.6818 3.253,4.2722 1.445,3.0766997 0.24,4.6254997 -1.351,7.1408997 -1.559,2.4843 -0.083,5.2076 -2.411,7.1306 -1.726,1.4344 -4.7298,1.8502 -6.7878,2.5986 -2.6714,0.9667 -5.3324,1.9438 -8.0038,2.8897 -2.7129,0.9458 -5.7481,1.8606 -8.6585,1.3616 -3.1495,-0.5301 -3.8563,-2.0061 -5.2076,-4.5112 -0.2703,-0.4989 -0.5093,-3.3781 -2.7649,-3.4717 -3.0144,-0.1247 -5.2804,-0.2495 -7.1618,0.9979 -2.5362,1.6839 -3.3158,5.3115 -3.9083,8.2739 -0.7588,3.7836 1.081,8.4611 -1.2265,11.8497 -1.3721,2.0061 -3.8356,2.7753 -6.1328,3.0455 -4.5215,0.5405 -8.8768,-1.133 -13.3568,-1.1641 -3.6068,-0.0208 -6.2886,1.6839 -6.985,4.5111 -0.4782,1.9438 0.5613,4.0227 0.6132,6.0392 0.0728,3.0356 -0.1663,5.6336 -0.7588,8.3576 -0.2286,1.049 -1.1745,2.297 -2.0165,1.631 -2.3387,-1.839 -4.1577,-3.991 -5.5298,-6.33 -0.4885,2.599 -0.8316,5.249 -1.0187,7.942 0.9147,0.384 2.1829,1.403 3.0456,2.13 2.609,2.214 2.3803,6.435 3.9291,9.387 2.3907,4.552 7.0474,5.27 10.8102,8.149 2.0165,1.549 3.69,3.565 3.9187,6.195 0.1247,1.393 -0.2703,2.391 -0.4885,3.731 -0.6549,4.002 -0.0728,6.986 1.8294,10.582 3.3262,6.289 8.5858,12.463 15.3733,14.968 1.2058,0.447 2.952,0.884 3.5861,1.892 0.5925,0.946 -2.8169,2.266 -3.6484,2.765 -2.4843,1.486 -4.8854,2.234 -7.2034,2.422 10.6647,6.881 23.3459,10.883 36.973,10.883 37.7313,0 68.3123,-30.581 68.3123,-68.313 0.01,-4.656 -0.458,-9.219 -1.351,-13.637 z m -99.9948,-6.507 c -0.4054,1.0291 -0.7068,1.7671 -0.8523,2.9832 -0.0936,0.7796 0.0727,1.4448 -0.5094,2.0788 -0.8107,0.884 -2.0269,0.697 -2.9312,0.062 -2.0165,-1.4028 -3.3366,-3.7831 -5.3531,-5.2799 -0.8212,-0.6029 -1.975,-0.842 -1.6839,-1.9957 0.3326,-1.2682 2.1516,-1.632 3.2223,-1.6216 1.4136,0.0104 2.9104,0.8524 4.0642,-0.0415 0.9355,-0.7276 2.3075,-1.1226 3.0767,-0.5509 1.2578,0.9458 1.4864,3.0455 0.9667,4.3656 z"
     fill="url(#paint0_linear_317_37978)"
     fill-opacity="0.15"
     id="path15"
     style="fill:url(#paint0_linear_317_37978)" />
  <path
     d="m 135.263,59.32951 c -0.863,3.451 -2.256,6.787 -2.402,10.394 -0.114,2.869 -0.79,5.01 -2.297,6.642 -0.582,0.634 -2.214,0 -2.827,-0.946 -0.967,-1.486 0.624,-4.459 -1.258,-4.833 -2.349,-0.468 -3.659,-0.01 -4.501,3.077 -0.893,3.201 1.237,5.914 2.246,8.929 0.228,0.686 0.883,1.632 -0.499,1.819 -2.079,0.28 -4.896,-1.029 -5.717,-3.077 -0.499,-1.258 -2.578,-0.738 -3.264,-1.57 -0.998,-1.205 -0.956,-2.588 -2.058,-2.255 -0.884,0.27 -1.497,1.112 -2.308,1.601 -1.548,0.925 -3.96,4.064 -5.821,3.793 -6.985,-1.008 -10.488,-0.769 -15.02,0.884 -1.382,0.499 -2.421,-0.395 -3.45,-0.197 -1.321,0.259 -2.017,-0.78 -2.963,-1.3 -0.249,0.676 -0.759,1.798 -0.187,2.557 0.468,0.624 1.59,0.562 2.578,0.562 1.164,0 2.578,0.623 4.022,1.694 0.718,0.53 2.287,0.312 2.994,0.197 2.474,-0.395 3.815,-1.725 6.465,-0.634 2.765,1.133 4.813,2.703 4.74,6.039 -0.052,2.36 0.416,4.844 0.094,7.058 -0.915,6.206 -2.214,10.852 -6.362,16.195 -0.831,1.07 -1.008,3.264 -1.881,4.334 -1.445,1.767 -4.168,3.243 -5.842,4.844 -1.455,1.393 -2.692,3.69 -4.324,4.844 -2.9,2.058 -3.43,3.544 -5.987,2.318 -1.445,-0.697 -3.96,-4.491 -4.927,-5.832 -1.3615,-1.891 -2.3282,-4.033 -2.8271,-6.309 -0.2703,-1.237 -0.3015,-2.474 -0.4262,-3.732 -0.2599,-2.692 -1.185,-3.586 -3.2638,-5.051 -2.0685,-1.455 -2.6922,-2.755 -4.0954,-4.865 -1.9334,-2.91 -4.6048,-2.848 -7.2346,-4.584 -1.2265,-0.8 -1.9749,-1.632 -2.3179,-3.087 -0.1559,-0.686 0.2391,-3.347 0.2494,-3.96 0.0312,-1.611 -0.4261,-2.879 -0.3845,-4.418 0.1351,-4.646 6.9122,-8.908 10.6334,-10.571 2.713,-1.206 4.4489,-0.416 6.8084,-0.53 1.1226,-0.052 2.9523,-0.624 3.9813,0.301 0.707,0.634 1.694,0.863 2.494,1.383 1.133,0.26 2.318,0.447 3.576,0.447 0.042,0 0.052,0.031 0.094,0.031 -0.718,-0.416 -1.414,-0.894 -2.1,-1.455 -2.017,-1.663 -3.659,-3.669 -6.1535,-4.647 -2.5466,-0.997 -5.0829,-0.706 -7.7439,-0.55 -2.8065,0.166 -5.4259,-0.354 -7.7022,-0.936 -2.6506,-0.676 -3.6589,-2.838 -3.9707,-6.164 -0.1143,-1.174 0.6548,-2.879 0.7484,-4.189 0.1455,-2.079 -1.3825,-3.523 0.0624,-5.779 1.4656,-2.2972 3.0975,-5.1349 5.4986,-6.4758 2.1101,-1.1746 4.6151,-1.4968 6.7876,-2.5258 2.0892,-0.9875 3.981,-2.3596 5.7793,-3.8044 2.858,-2.2764 5.509,-4.8334 8.659,-6.7356 7.14,-4.3137 15.778,-2.11 23.044,-5.6857 3.617,-1.7775 7.567,-7.7647 11.995,-7.9102 C 106.792,14.84131 93.945,7.9914103 79.59,5.6110103 c 1.372,1.2682 2.505,2.6818 3.253,4.2722 1.445,3.0766997 0.24,4.6254997 -1.351,7.1408997 -1.559,2.4843 -0.083,5.2076 -2.411,7.1306 -1.726,1.4344 -4.7298,1.8502 -6.7878,2.5986 -2.6714,0.9667 -5.3324,1.9438 -8.0038,2.8897 -2.7129,0.9458 -5.7481,1.8606 -8.6585,1.3616 -3.1495,-0.5301 -3.8563,-2.0061 -5.2076,-4.5112 -0.2703,-0.4989 -0.5093,-3.3781 -2.7649,-3.4717 -3.0144,-0.1247 -5.2804,-0.2495 -7.1618,0.9979 -2.5362,1.6839 -3.3158,5.3115 -3.9083,8.2739 -0.7588,3.7836 1.081,8.4611 -1.2265,11.8497 -1.3721,2.0061 -3.8356,2.7753 -6.1328,3.0455 -4.5215,0.5405 -8.8768,-1.133 -13.3568,-1.1641 -3.6068,-0.0208 -6.2886,1.6839 -6.985,4.5111 -0.4782,1.9438 0.5613,4.0227 0.6132,6.0392 0.0728,3.0356 -0.1663,5.6336 -0.7588,8.3576 -0.2286,1.049 -1.1745,2.297 -2.0165,1.631 -2.3387,-1.839 -4.1577,-3.991 -5.5298,-6.33 -0.4885,2.599 -0.8316,5.249 -1.0187,7.942 0.9147,0.384 2.1829,1.403 3.0456,2.13 2.609,2.214 2.3803,6.435 3.9291,9.387 2.3907,4.552 7.0474,5.27 10.8102,8.149 2.0165,1.549 3.69,3.565 3.9187,6.195 0.1247,1.393 -0.2703,2.391 -0.4885,3.731 -0.6549,4.002 -0.0728,6.986 1.8294,10.582 3.3262,6.289 8.5858,12.463 15.3733,14.968 1.2058,0.447 2.952,0.884 3.5861,1.892 0.5925,0.946 -2.8169,2.266 -3.6484,2.765 -2.4843,1.486 -4.8854,2.234 -7.2034,2.422 10.6647,6.881 23.3459,10.883 36.973,10.883 37.7313,0 68.3123,-30.581 68.3123,-68.313 0.01,-4.656 -0.458,-9.219 -1.351,-13.637 z m -99.9948,-6.507 c -0.4054,1.0291 -0.7068,1.7671 -0.8523,2.9832 -0.0936,0.7796 0.0727,1.4448 -0.5094,2.0788 -0.8107,0.884 -2.0269,0.697 -2.9312,0.062 -2.0165,-1.4028 -3.3366,-3.7831 -5.3531,-5.2799 -0.8212,-0.6029 -1.975,-0.842 -1.6839,-1.9957 0.3326,-1.2682 2.1516,-1.632 3.2223,-1.6216 1.4136,0.0104 2.9104,0.8524 4.0642,-0.0415 0.9355,-0.7276 2.3075,-1.1226 3.0767,-0.5509 1.2578,0.9458 1.4864,3.0455 0.9667,4.3656 z"
     fill="#f0faf6"
     fill-opacity="0.6"
     id="path17" />
  <path
     fill-rule="evenodd"
     clip-rule="evenodd"
     d="m 6.737,66.57451 c 0.8315,0.666 1.7878,-0.592 2.0165,-1.632 0.5925,-2.733 0.8212,-5.322 0.7588,-8.3567 -0.0245,-0.7963 -0.1998,-1.6005 -0.3746,-2.4027 -0.2702,-1.2399 -0.5394,-2.4749 -0.2491,-3.6677 0.6965,-2.8273 3.3782,-4.532 6.9851,-4.5112 1.9081,0.0133 3.7935,0.3245 5.6788,0.6357 2.5412,0.4194 5.0822,0.8388 7.678,0.5285 2.2972,-0.2702 4.7607,-1.0394 6.1327,-3.0456 1.4196,-2.0846 1.2696,-4.653 1.1206,-7.2044 -0.0932,-1.5959 -0.186,-3.1852 0.106,-4.6452 0.5925,-2.9624 1.372,-6.5901 3.9083,-8.274 1.8391,-1.2193 4.0458,-1.1275 6.9599,-1.0062 l 0.2018,0.0084 c 1.8115,0.0751 2.3224,1.9469 2.5933,2.9395 0.0664,0.2434 0.1184,0.434 0.1717,0.5322 l 0.1189,0.2208 c 1.2765,2.3712 2.0328,3.776 5.0887,4.2904 2.9104,0.4989 5.9456,-0.4158 8.6585,-1.3617 1.8521,-0.6461 3.6894,-1.3169 5.5289,-1.9887 0.824,-0.3008 1.6484,-0.6019 2.4748,-0.9009 0.6217,-0.225 1.3269,-0.4198 2.0562,-0.6214 1.6972,-0.469 3.5242,-0.9739 4.7312,-1.9772 1.302,-1.0749 1.414,-2.3998 1.533,-3.7933 0.094,-1.0995 0.191,-2.2417 0.879,-3.3373 0.101,-0.1618 0.201,-0.3196 0.299,-0.474 1.426,-2.247 2.404,-3.7881 1.052,-6.6669997 -0.748,-1.5903 -1.881,-3.004 -3.253,-4.2721 -3.67,-0.5925 -7.4325,-0.9251 -11.2784,-0.9251 -33.3661,0 -61.1401,23.9383997 -67.1065,55.5688997 1.3721,2.349 3.1911,4.49 5.5299,6.34 z m 68.755,-23.7479 c 1.965,-1.6578 3.93,-3.3167 6.142,-4.6526 3.795,-2.2922 8.012,-2.7471 12.214,-3.2003 3.705,-0.3997 7.398,-0.7981 10.779,-2.4542 1.389,-0.6825 2.828,-1.9856 4.325,-3.3404 v 0 -10e-5 c 2.401,-2.1736 4.949,-4.4801 7.67,-4.5697 9.282,9.303 15.903,21.2566 18.616,34.6342 -0.257,1.031 -0.563,2.052 -0.869,3.073 h -0.001 c -0.718,2.396 -1.436,4.792 -1.531,7.321 -0.114,2.869 -0.79,5.011 -2.297,6.642 -0.582,0.635 -2.214,0 -2.827,-0.945 -0.407,-0.632 -0.353,-1.532 -0.302,-2.387 0.068,-1.157 0.132,-2.232 -0.956,-2.447 -2.349,-0.457 -3.659,0 -4.501,3.077 -0.644,2.307 0.282,4.36 1.228,6.455 0.366,0.813 0.736,1.631 1.017,2.474 0.036,0.107 0.082,0.221 0.13,0.337 0.254,0.626 0.538,1.324 -0.628,1.482 -2.079,0.291 -4.896,-1.029 -5.717,-3.077 -0.281,-0.708 -1.062,-0.853 -1.813,-0.992 -0.585,-0.109 -1.151,-0.214 -1.451,-0.578 -0.36,-0.439 -0.584,-0.899 -0.775,-1.293 -0.337,-0.696 -0.573,-1.181 -1.283,-0.962 -0.536,0.164 -0.972,0.537 -1.413,0.915 -0.286,0.246 -0.575,0.493 -0.895,0.686 -0.511,0.305 -1.116,0.852 -1.765,1.437 v 0 c -1.316,1.189 -2.809,2.538 -4.056,2.357 -6.974,-0.998 -10.488,-0.77 -15.02,0.883 -0.795,0.287 -1.474,0.113 -2.105,-0.049 -0.465,-0.119 -0.904,-0.232 -1.346,-0.148 -0.949,0.185 -1.571,-0.291 -2.193,-0.768 -0.249,-0.192 -0.498,-0.383 -0.769,-0.532 -0.01,0.027 -0.02,0.054 -0.03,0.081 l -0.042,0.11 c -0.26,0.681 -0.636,1.666 -0.115,2.366 0.429,0.572 1.409,0.567 2.33,0.562 0.083,0 0.166,0 0.248,0 1.164,0 2.577,0.623 4.022,1.694 0.728,0.53 2.297,0.312 2.994,0.197 0.776,-0.124 1.441,-0.339 2.069,-0.542 1.375,-0.445 2.577,-0.833 4.396,-0.092 2.765,1.133 4.813,2.703 4.74,6.04 -0.021,0.931 0.042,1.885 0.105,2.835 v 10e-4 0 c 0.095,1.447 0.189,2.885 -0.011,4.221 -0.915,6.206 -2.214,10.852 -6.362,16.195 -0.399,0.515 -0.645,1.3 -0.895,2.093 -0.264,0.84 -0.532,1.691 -0.986,2.241 -0.836,1.023 -2.101,1.948 -3.342,2.856 -0.903,0.662 -1.795,1.314 -2.5,1.988 -0.609,0.583 -1.18,1.323 -1.758,2.071 -0.802,1.04 -1.617,2.096 -2.566,2.773 -0.692,0.491 -1.249,0.949 -1.731,1.345 v 0 c -1.537,1.264 -2.309,1.899 -4.256,0.973 -1.261,-0.599 -3.337,-3.563 -4.487,-5.207 -0.168,-0.24 -0.317,-0.452 -0.4401,-0.624 -1.3616,-1.892 -2.3283,-4.033 -2.8272,-6.31 -0.1953,-0.893 -0.2657,-1.787 -0.3368,-2.688 -0.0274,-0.347 -0.0548,-0.694 -0.0894,-1.043 -0.2599,-2.693 -1.185,-3.586 -3.2639,-5.052 -1.7374,-1.222 -2.4555,-2.335 -3.4723,-3.91 h -2e-4 c -0.1937,-0.3 -0.3983,-0.617 -0.6229,-0.955 -1.2495,-1.881 -2.803,-2.524 -4.4584,-3.21 -0.9059,-0.375 -1.8423,-0.763 -2.7761,-1.374 -1.2265,-0.8 -1.9749,-1.632 -2.3179,-3.087 -0.1122,-0.462 0.0356,-1.823 0.1469,-2.848 0.0538,-0.495 0.0991,-0.912 0.1025,-1.112 0.0156,-0.806 -0.091,-1.526 -0.1963,-2.237 -0.1052,-0.71 -0.2091,-1.412 -0.1883,-2.181 0.1352,-4.646 6.9123,-8.908 10.6335,-10.571 1.8583,-0.833 3.263,-0.72 4.7186,-0.603 h 1e-4 10e-5 c 0.6694,0.054 1.3496,0.109 2.0896,0.073 0.2574,-0.014 0.5501,-0.054 0.861,-0.096 h 3e-4 c 1.0575,-0.145 2.3242,-0.317 3.1202,0.398 0.423,0.38 0.944,0.618 1.468,0.857 v 0 c 0.35,0.16 0.702,0.321 1.026,0.525 1.144,0.26 2.318,0.447 3.576,0.447 0.028,0 0.046,0.009 0.065,0.018 0.009,0.005 0.018,0.01 0.028,0.013 -0.717,-0.416 -1.424,-0.894 -2.099,-1.455 -0.554,-0.457 -1.08,-0.94 -1.604,-1.421 -1.38,-1.267 -2.741,-2.517 -4.5497,-3.225 -2.2923,-0.899 -4.5761,-0.753 -6.9501,-0.601 -0.2634,0.017 -0.528,0.034 -0.7938,0.05 -2.8065,0.166 -5.4155,-0.354 -7.7023,-0.936 -2.6609,-0.675 -3.6588,-2.837 -3.9706,-6.164 -0.0647,-0.664 0.1532,-1.498 0.3717,-2.334 v 0 c 0.1678,-0.642 0.336,-1.286 0.3767,-1.855 0.0532,-0.76 -0.1176,-1.435 -0.2848,-2.095 -0.2898,-1.144 -0.5691,-2.247 0.3471,-3.684 0.1391,-0.218 0.2796,-0.441 0.4222,-0.667 h 2e-4 c 1.36,-2.1572 2.9031,-4.6045 5.0763,-5.8087 1.1525,-0.6415 2.4228,-1.0288 3.6924,-1.4158 1.0549,-0.3216 2.1093,-0.643 3.0951,-1.11 2.0893,-0.9875 3.9811,-2.37 5.7793,-3.8044 0.8509,-0.6776 1.6833,-1.3801 2.5163,-2.0828 v -1e-4 z m -36.236,80.7339 c 1.1143,0.382 2.408,0.825 2.9246,1.66 0.4626,0.738 -1.5143,1.705 -2.7942,2.331 -0.3594,0.176 -0.6638,0.324 -0.8439,0.434 -2.4842,1.486 -4.8854,2.235 -7.2033,2.422 C 12.4941,118.24551 0,97.07251 0,72.97851 c 0,-1.612 0.0728,-3.212 0.1767,-4.792 0.9147,0.374 2.1828,1.393 3.0456,2.131 1.6033,1.36 2.135,3.478 2.6661,5.594 0.3331,1.328 0.666,2.654 1.263,3.792 1.569,2.988 4.1142,4.324 6.7421,5.703 h 10e-5 c 1.3761,0.722 2.7748,1.456 4.068,2.446 2.0165,1.549 3.69,3.565 3.9187,6.195 0.0881,0.984 -0.0833,1.771 -0.2685,2.622 -0.0768,0.353 -0.1561,0.716 -0.2201,1.11 -0.6548,4.012 -0.0727,6.985 1.8294,10.581 3.3263,6.289 8.5858,12.463 15.3734,14.968 0.2068,0.077 0.4297,0.153 0.6604,0.232 h 5e-4 z M 28.5553,49.25141 c 0.9617,0.1915 1.8982,0.378 2.6781,-0.2332 0.9355,-0.7276 2.2971,-1.1226 3.0767,-0.5405 1.2577,0.9355 1.4864,3.0352 0.9667,4.3553 -0.0199,0.0511 -0.0396,0.1014 -0.059,0.1511 -0.3756,0.961 -0.655,1.6757 -0.7933,2.8321 -0.0238,0.1983 -0.0308,0.3891 -0.0376,0.574 -0.0198,0.5423 -0.0377,1.0323 -0.4718,1.5053 -0.8107,0.873 -2.0269,0.686 -2.9312,0.062 -1.0323,-0.718 -1.882,-1.6955 -2.7361,-2.6776 -0.8144,-0.9364 -1.6328,-1.8773 -2.617,-2.6029 -0.1978,-0.1451 -0.4154,-0.2698 -0.6277,-0.3915 -0.6692,-0.3833 -1.2851,-0.7362 -1.0562,-1.6042 0.3326,-1.2681 2.1516,-1.6319 3.2222,-1.6215 0.4582,0.0067 0.9251,0.0997 1.3862,0.1916 z"
     fill="url(#paint1_linear_317_37978)"
     id="path19"
     style="fill:url(#paint1_linear_317_37978)" />
  <path
     fill-rule="evenodd"
     clip-rule="evenodd"
     d="m 6.737,66.57451 c 0.8315,0.666 1.7878,-0.592 2.0165,-1.632 0.5925,-2.733 0.8212,-5.322 0.7588,-8.3567 -0.0245,-0.7963 -0.1998,-1.6005 -0.3746,-2.4027 -0.2702,-1.2399 -0.5394,-2.4749 -0.2491,-3.6677 0.6965,-2.8273 3.3782,-4.532 6.9851,-4.5112 1.9081,0.0133 3.7935,0.3245 5.6788,0.6357 2.5412,0.4194 5.0822,0.8388 7.678,0.5285 2.2972,-0.2702 4.7607,-1.0394 6.1327,-3.0456 1.4196,-2.0846 1.2696,-4.653 1.1206,-7.2044 -0.0932,-1.5959 -0.186,-3.1852 0.106,-4.6452 0.5925,-2.9624 1.372,-6.5901 3.9083,-8.274 1.8391,-1.2193 4.0458,-1.1275 6.9599,-1.0062 l 0.2018,0.0084 c 1.8115,0.0751 2.3224,1.9469 2.5933,2.9395 0.0664,0.2434 0.1184,0.434 0.1717,0.5322 l 0.1189,0.2208 c 1.2765,2.3712 2.0328,3.776 5.0887,4.2904 2.9104,0.4989 5.9456,-0.4158 8.6585,-1.3617 1.8521,-0.6461 3.6894,-1.3169 5.5289,-1.9887 0.824,-0.3008 1.6484,-0.6019 2.4748,-0.9009 0.6217,-0.225 1.3269,-0.4198 2.0562,-0.6214 1.6972,-0.469 3.5242,-0.9739 4.7312,-1.9772 1.302,-1.0749 1.414,-2.3998 1.533,-3.7933 0.094,-1.0995 0.191,-2.2417 0.879,-3.3373 0.101,-0.1618 0.201,-0.3196 0.299,-0.474 1.426,-2.247 2.404,-3.7881 1.052,-6.6669997 -0.748,-1.5903 -1.881,-3.004 -3.253,-4.2721 -3.67,-0.5925 -7.4325,-0.9251 -11.2784,-0.9251 -33.3661,0 -61.1401,23.9383997 -67.1065,55.5688997 1.3721,2.349 3.1911,4.49 5.5299,6.34 z m 68.755,-23.7479 c 1.965,-1.6578 3.93,-3.3167 6.142,-4.6526 3.795,-2.2922 8.012,-2.7471 12.214,-3.2003 3.705,-0.3997 7.398,-0.7981 10.779,-2.4542 1.389,-0.6825 2.828,-1.9856 4.325,-3.3404 v 0 -10e-5 c 2.401,-2.1736 4.949,-4.4801 7.67,-4.5697 9.282,9.303 15.903,21.2566 18.616,34.6342 -0.257,1.031 -0.563,2.052 -0.869,3.073 h -0.001 c -0.718,2.396 -1.436,4.792 -1.531,7.321 -0.114,2.869 -0.79,5.011 -2.297,6.642 -0.582,0.635 -2.214,0 -2.827,-0.945 -0.407,-0.632 -0.353,-1.532 -0.302,-2.387 0.068,-1.157 0.132,-2.232 -0.956,-2.447 -2.349,-0.457 -3.659,0 -4.501,3.077 -0.644,2.307 0.282,4.36 1.228,6.455 0.366,0.813 0.736,1.631 1.017,2.474 0.036,0.107 0.082,0.221 0.13,0.337 0.254,0.626 0.538,1.324 -0.628,1.482 -2.079,0.291 -4.896,-1.029 -5.717,-3.077 -0.281,-0.708 -1.062,-0.853 -1.813,-0.992 -0.585,-0.109 -1.151,-0.214 -1.451,-0.578 -0.36,-0.439 -0.584,-0.899 -0.775,-1.293 -0.337,-0.696 -0.573,-1.181 -1.283,-0.962 -0.536,0.164 -0.972,0.537 -1.413,0.915 -0.286,0.246 -0.575,0.493 -0.895,0.686 -0.511,0.305 -1.116,0.852 -1.765,1.437 v 0 c -1.316,1.189 -2.809,2.538 -4.056,2.357 -6.974,-0.998 -10.488,-0.77 -15.02,0.883 -0.795,0.287 -1.474,0.113 -2.105,-0.049 -0.465,-0.119 -0.904,-0.232 -1.346,-0.148 -0.949,0.185 -1.571,-0.291 -2.193,-0.768 -0.249,-0.192 -0.498,-0.383 -0.769,-0.532 -0.01,0.027 -0.02,0.054 -0.03,0.081 l -0.042,0.11 c -0.26,0.681 -0.636,1.666 -0.115,2.366 0.429,0.572 1.409,0.567 2.33,0.562 0.083,0 0.166,0 0.248,0 1.164,0 2.577,0.623 4.022,1.694 0.728,0.53 2.297,0.312 2.994,0.197 0.776,-0.124 1.441,-0.339 2.069,-0.542 1.375,-0.445 2.577,-0.833 4.396,-0.092 2.765,1.133 4.813,2.703 4.74,6.04 -0.021,0.931 0.042,1.885 0.105,2.835 v 10e-4 0 c 0.095,1.447 0.189,2.885 -0.011,4.221 -0.915,6.206 -2.214,10.852 -6.362,16.195 -0.399,0.515 -0.645,1.3 -0.895,2.093 -0.264,0.84 -0.532,1.691 -0.986,2.241 -0.836,1.023 -2.101,1.948 -3.342,2.856 -0.903,0.662 -1.795,1.314 -2.5,1.988 -0.609,0.583 -1.18,1.323 -1.758,2.071 -0.802,1.04 -1.617,2.096 -2.566,2.773 -0.692,0.491 -1.249,0.949 -1.731,1.345 v 0 c -1.537,1.264 -2.309,1.899 -4.256,0.973 -1.261,-0.599 -3.337,-3.563 -4.487,-5.207 -0.168,-0.24 -0.317,-0.452 -0.4401,-0.624 -1.3616,-1.892 -2.3283,-4.033 -2.8272,-6.31 -0.1953,-0.893 -0.2657,-1.787 -0.3368,-2.688 -0.0274,-0.347 -0.0548,-0.694 -0.0894,-1.043 -0.2599,-2.693 -1.185,-3.586 -3.2639,-5.052 -1.7374,-1.222 -2.4555,-2.335 -3.4723,-3.91 h -2e-4 c -0.1937,-0.3 -0.3983,-0.617 -0.6229,-0.955 -1.2495,-1.881 -2.803,-2.524 -4.4584,-3.21 -0.9059,-0.375 -1.8423,-0.763 -2.7761,-1.374 -1.2265,-0.8 -1.9749,-1.632 -2.3179,-3.087 -0.1122,-0.462 0.0356,-1.823 0.1469,-2.848 0.0538,-0.495 0.0991,-0.912 0.1025,-1.112 0.0156,-0.806 -0.091,-1.526 -0.1963,-2.237 -0.1052,-0.71 -0.2091,-1.412 -0.1883,-2.181 0.1352,-4.646 6.9123,-8.908 10.6335,-10.571 1.8583,-0.833 3.263,-0.72 4.7186,-0.603 h 1e-4 10e-5 c 0.6694,0.054 1.3496,0.109 2.0896,0.073 0.2574,-0.014 0.5501,-0.054 0.861,-0.096 h 3e-4 c 1.0575,-0.145 2.3242,-0.317 3.1202,0.398 0.423,0.38 0.944,0.618 1.468,0.857 v 0 c 0.35,0.16 0.702,0.321 1.026,0.525 1.144,0.26 2.318,0.447 3.576,0.447 0.028,0 0.046,0.009 0.065,0.018 0.009,0.005 0.018,0.01 0.028,0.013 -0.717,-0.416 -1.424,-0.894 -2.099,-1.455 -0.554,-0.457 -1.08,-0.94 -1.604,-1.421 -1.38,-1.267 -2.741,-2.517 -4.5497,-3.225 -2.2923,-0.899 -4.5761,-0.753 -6.9501,-0.601 -0.2634,0.017 -0.528,0.034 -0.7938,0.05 -2.8065,0.166 -5.4155,-0.354 -7.7023,-0.936 -2.6609,-0.675 -3.6588,-2.837 -3.9706,-6.164 -0.0647,-0.664 0.1532,-1.498 0.3717,-2.334 v 0 c 0.1678,-0.642 0.336,-1.286 0.3767,-1.855 0.0532,-0.76 -0.1176,-1.435 -0.2848,-2.095 -0.2898,-1.144 -0.5691,-2.247 0.3471,-3.684 0.1391,-0.218 0.2796,-0.441 0.4222,-0.667 h 2e-4 c 1.36,-2.1572 2.9031,-4.6045 5.0763,-5.8087 1.1525,-0.6415 2.4228,-1.0288 3.6924,-1.4158 1.0549,-0.3216 2.1093,-0.643 3.0951,-1.11 2.0893,-0.9875 3.9811,-2.37 5.7793,-3.8044 0.8509,-0.6776 1.6833,-1.3801 2.5163,-2.0828 v -1e-4 z m -36.236,80.7339 c 1.1143,0.382 2.408,0.825 2.9246,1.66 0.4626,0.738 -1.5143,1.705 -2.7942,2.331 -0.3594,0.176 -0.6638,0.324 -0.8439,0.434 -2.4842,1.486 -4.8854,2.235 -7.2033,2.422 C 12.4941,118.24551 0,97.07251 0,72.97851 c 0,-1.612 0.0728,-3.212 0.1767,-4.792 0.9147,0.374 2.1828,1.393 3.0456,2.131 1.6033,1.36 2.135,3.478 2.6661,5.594 0.3331,1.328 0.666,2.654 1.263,3.792 1.569,2.988 4.1142,4.324 6.7421,5.703 h 10e-5 c 1.3761,0.722 2.7748,1.456 4.068,2.446 2.0165,1.549 3.69,3.565 3.9187,6.195 0.0881,0.984 -0.0833,1.771 -0.2685,2.622 -0.0768,0.353 -0.1561,0.716 -0.2201,1.11 -0.6548,4.012 -0.0727,6.985 1.8294,10.581 3.3263,6.289 8.5858,12.463 15.3734,14.968 0.2068,0.077 0.4297,0.153 0.6604,0.232 h 5e-4 z M 28.5553,49.25141 c 0.9617,0.1915 1.8982,0.378 2.6781,-0.2332 0.9355,-0.7276 2.2971,-1.1226 3.0767,-0.5405 1.2577,0.9355 1.4864,3.0352 0.9667,4.3553 -0.0199,0.0511 -0.0396,0.1014 -0.059,0.1511 -0.3756,0.961 -0.655,1.6757 -0.7933,2.8321 -0.0238,0.1983 -0.0308,0.3891 -0.0376,0.574 -0.0198,0.5423 -0.0377,1.0323 -0.4718,1.5053 -0.8107,0.873 -2.0269,0.686 -2.9312,0.062 -1.0323,-0.718 -1.882,-1.6955 -2.7361,-2.6776 -0.8144,-0.9364 -1.6328,-1.8773 -2.617,-2.6029 -0.1978,-0.1451 -0.4154,-0.2698 -0.6277,-0.3915 -0.6692,-0.3833 -1.2851,-0.7362 -1.0562,-1.6042 0.3326,-1.2681 2.1516,-1.6319 3.2222,-1.6215 0.4582,0.0067 0.9251,0.0997 1.3862,0.1916 z"
     fill="url(#paint2_linear_317_37978)"
     id="path21"
     style="fill:url(#paint2_linear_317_37978)" />
  <path
     fill-rule="evenodd"
     clip-rule="evenodd"
     d="m 108.402,65.40651 c 2.268,1.309 7.533,-3.769 7.533,-8.527 0,-4.7576 -3.372,-10.5617 -7.533,-12.9637 -4.16,-2.402 -7.533,-0.4924 -7.533,4.2654 0,4.7577 4.779,15.6343 7.533,17.2253 z m 0.148,-12.1951 c 1.142,0.6594 2.068,0.1248 2.068,-1.1939 0,-1.3188 -0.926,-2.9224 -2.068,-3.5817 -1.142,-0.6594 -2.068,-0.1249 -2.068,1.1939 0,1.3187 0.926,2.9223 2.068,3.5817 z"
     fill="#ffffff"
     id="path23" />
  <path
     fill-rule="evenodd"
     clip-rule="evenodd"
     d="m 108.402,65.40651 c 2.268,1.309 7.533,-3.769 7.533,-8.527 0,-4.7576 -3.372,-10.5617 -7.533,-12.9637 -4.16,-2.402 -7.533,-0.4924 -7.533,4.2654 0,4.7577 4.779,15.6343 7.533,17.2253 z m 0.148,-12.1951 c 1.142,0.6594 2.068,0.1248 2.068,-1.1939 0,-1.3188 -0.926,-2.9224 -2.068,-3.5817 -1.142,-0.6594 -2.068,-0.1249 -2.068,1.1939 0,1.3187 0.926,2.9223 2.068,3.5817 z"
     fill="url(#paint3_linear_317_37978)"
     fill-opacity="0.4"
     id="path25"
     style="fill:url(#paint3_linear_317_37978)" />
  <path
     fill-rule="evenodd"
     clip-rule="evenodd"
     d="m 107.251,66.06951 c 2.268,1.309 7.533,-3.769 7.533,-8.527 0,-4.7574 -3.373,-10.5615 -7.533,-12.9635 -4.161,-2.402 -7.533,-0.4923 -7.533,4.2654 0,4.7577 4.779,15.6351 7.533,17.2251 z m 0.147,-12.1949 c 1.142,0.6594 2.068,0.1248 2.068,-1.1939 0,-1.3188 -0.926,-2.9223 -2.068,-3.5817 -1.142,-0.6594 -2.068,-0.1249 -2.068,1.1939 0,1.3187 0.926,2.9223 2.068,3.5817 z"
     fill="#ffffff"
     id="path27" />
  <path
     fill-rule="evenodd"
     clip-rule="evenodd"
     d="m 107.251,66.06951 c 2.268,1.309 7.533,-3.769 7.533,-8.527 0,-4.7574 -3.373,-10.5615 -7.533,-12.9635 -4.161,-2.402 -7.533,-0.4923 -7.533,4.2654 0,4.7577 4.779,15.6351 7.533,17.2251 z m 0.147,-12.1949 c 1.142,0.6594 2.068,0.1248 2.068,-1.1939 0,-1.3188 -0.926,-2.9223 -2.068,-3.5817 -1.142,-0.6594 -2.068,-0.1249 -2.068,1.1939 0,1.3187 0.926,2.9223 2.068,3.5817 z"
     fill="url(#paint4_linear_317_37978)"
     fill-opacity="0.16"
     id="path29"
     style="fill:url(#paint4_linear_317_37978)" />
  <path
     fill-rule="evenodd"
     clip-rule="evenodd"
     d="m 63.5298,96.31851 c 2.268,1.31 7.533,-3.768 7.533,-8.526 0,-4.758 -3.3726,-10.562 -7.533,-12.964 -4.1604,-2.402 -7.5331,-0.492 -7.5331,4.266 0,4.757 4.779,15.634 7.5331,17.224 z m 0.1474,-12.195 c 1.142,0.659 2.0679,0.125 2.0679,-1.194 0,-1.319 -0.9259,-2.922 -2.0679,-3.582 -1.1421,-0.659 -2.0679,-0.125 -2.0679,1.194 0,1.319 0.9258,2.923 2.0679,3.582 z"
     fill="#ffffff"
     id="path31" />
  <path
     fill-rule="evenodd"
     clip-rule="evenodd"
     d="m 63.5298,96.31851 c 2.268,1.31 7.533,-3.768 7.533,-8.526 0,-4.758 -3.3726,-10.562 -7.533,-12.964 -4.1604,-2.402 -7.5331,-0.492 -7.5331,4.266 0,4.757 4.779,15.634 7.5331,17.224 z m 0.1474,-12.195 c 1.142,0.659 2.0679,0.125 2.0679,-1.194 0,-1.319 -0.9259,-2.922 -2.0679,-3.582 -1.1421,-0.659 -2.0679,-0.125 -2.0679,1.194 0,1.319 0.9258,2.923 2.0679,3.582 z"
     fill="url(#paint5_linear_317_37978)"
     fill-opacity="0.4"
     id="path33"
     style="fill:url(#paint5_linear_317_37978)" />
  <path
     fill-rule="evenodd"
     clip-rule="evenodd"
     d="m 62.3783,96.98051 c 2.268,1.309 7.533,-3.769 7.533,-8.526 0,-4.758 -3.3726,-10.562 -7.533,-12.964 -4.1604,-2.402 -7.5331,-0.493 -7.5331,4.265 0,4.758 4.7791,15.635 7.5331,17.225 z m 0.1473,-12.194 c 1.1421,0.659 2.0679,0.125 2.0679,-1.194 0,-1.319 -0.9258,-2.922 -2.0679,-3.582 -1.1421,-0.659 -2.0679,-0.125 -2.0679,1.194 0,1.319 0.9258,2.922 2.0679,3.582 z"
     fill="#ffffff"
     id="path35" />
  <path
     fill-rule="evenodd"
     clip-rule="evenodd"
     d="m 62.3783,96.98051 c 2.268,1.309 7.533,-3.769 7.533,-8.526 0,-4.758 -3.3726,-10.562 -7.533,-12.964 -4.1604,-2.402 -7.5331,-0.493 -7.5331,4.265 0,4.758 4.7791,15.635 7.5331,17.225 z m 0.1473,-12.194 c 1.1421,0.659 2.0679,0.125 2.0679,-1.194 0,-1.319 -0.9258,-2.922 -2.0679,-3.582 -1.1421,-0.659 -2.0679,-0.125 -2.0679,1.194 0,1.319 0.9258,2.922 2.0679,3.582 z"
     fill="url(#paint6_linear_317_37978)"
     fill-opacity="0.16"
     id="path37"
     style="fill:url(#paint6_linear_317_37978)" />
  <path
     fill-rule="evenodd"
     clip-rule="evenodd"
     d="m 60.5377,22.52801 c 2.268,1.3094 7.5331,-3.7687 7.5331,-8.5265 0,-4.7576997 -3.3727,-10.5617997 -7.5331,-12.9637997 -4.1604,-2.402 -7.5331,-0.49229995 -7.5331,4.2654 0,4.7576997 4.7791,15.6347997 7.5331,17.2248997 z m 0.1475,-12.1947 c 1.1421,0.6594 2.0679,0.1249 2.0679,-1.1938997 0,-1.3187 -0.9258,-2.9223 -2.0679,-3.5817 -1.1421,-0.6594 -2.0679,-0.1248 -2.0679,1.1939 0,1.3188 0.9258,2.9224 2.0679,3.5816997 z"
     fill="#ffffff"
     id="path39" />
  <path
     fill-rule="evenodd"
     clip-rule="evenodd"
     d="m 60.5377,22.52801 c 2.268,1.3094 7.5331,-3.7687 7.5331,-8.5265 0,-4.7576997 -3.3727,-10.5617997 -7.5331,-12.9637997 -4.1604,-2.402 -7.5331,-0.49229995 -7.5331,4.2654 0,4.7576997 4.7791,15.6347997 7.5331,17.2248997 z m 0.1475,-12.1947 c 1.1421,0.6594 2.0679,0.1249 2.0679,-1.1938997 0,-1.3187 -0.9258,-2.9223 -2.0679,-3.5817 -1.1421,-0.6594 -2.0679,-0.1248 -2.0679,1.1939 0,1.3188 0.9258,2.9224 2.0679,3.5816997 z"
     fill="url(#paint7_linear_317_37978)"
     fill-opacity="0.4"
     id="path41"
     style="fill:url(#paint7_linear_317_37978)" />
  <path
     fill-rule="evenodd"
     clip-rule="evenodd"
     d="m 59.3863,23.19021 c 2.268,1.3095 7.5331,-3.7686 7.5331,-8.5264 0,-4.7576997 -3.3727,-10.5617997 -7.5331,-12.9637997 -4.1604,-2.40199995 -7.533,-0.4923 -7.533,4.2654 0,4.7576997 4.779,15.6347997 7.533,17.2247997 z m 0.1474,-12.1941 c 1.142,0.6594 2.0679,0.1248 2.0679,-1.1938997 0,-1.3188 -0.9259,-2.9224 -2.0679,-3.5817 -1.1421,-0.6594 -2.0679,-0.1249 -2.0679,1.1939 0,1.3187 0.9258,2.9222997 2.0679,3.5816997 z"
     fill="#ffffff"
     id="path43" />
  <path
     fill-rule="evenodd"
     clip-rule="evenodd"
     d="m 59.3863,23.19021 c 2.268,1.3095 7.5331,-3.7686 7.5331,-8.5264 0,-4.7576997 -3.3727,-10.5617997 -7.5331,-12.9637997 -4.1604,-2.40199995 -7.533,-0.4923 -7.533,4.2654 0,4.7576997 4.779,15.6347997 7.533,17.2247997 z m 0.1474,-12.1941 c 1.142,0.6594 2.0679,0.1248 2.0679,-1.1938997 0,-1.3188 -0.9259,-2.9224 -2.0679,-3.5817 -1.1421,-0.6594 -2.0679,-0.1249 -2.0679,1.1939 0,1.3187 0.9258,2.9222997 2.0679,3.5816997 z"
     fill="url(#paint8_linear_317_37978)"
     fill-opacity="0.16"
     id="path45"
     style="fill:url(#paint8_linear_317_37978)" />
  <path
     d="m 59.3342,26.60401 c -1.4952,19.4451 12.9637,39.3885 46.3698,41.8815"
     stroke="#ffffff"
     stroke-linecap="round"
     stroke-dasharray="3, 3"
     id="path47" />
  <path
     d="m 65.708,99.28351 c 14.596,5.139 32.851,-1.847 41.622,-26.939"
     stroke="#ffffff"
     stroke-linecap="round"
     stroke-dasharray="3, 3"
     id="path49" />
  <path
     d="m 98.721,131.23851 c -17.13,0.994 -34.6995,-8.623 -36.8957,-30.843"
     stroke="#ffffff"
     stroke-linecap="round"
     stroke-dasharray="3, 3"
     id="path51" />
  <defs
     id="defs98">
    <linearGradient
       id="paint0_linear_317_37978"
       x1="44.1521"
       y1="-115.063"
       x2="80.209503"
       y2="275.43701"
       gradientUnits="userSpaceOnUse"
       gradientTransform="translate(-25.5,-43.31149)">
      <stop
         stop-color="#245795"
         id="stop53" />
      <stop
         offset="1"
         stop-color="#8AD3A8"
         id="stop55" />
    </linearGradient>
    <linearGradient
       id="paint1_linear_317_37978"
       x1="59.403198"
       y1="101.304"
       x2="53.503601"
       y2="91.086098"
       gradientUnits="userSpaceOnUse"
       gradientTransform="translate(-25.5,-43.31149)">
      <stop
         stop-color="#4B42C6"
         id="stop58" />
      <stop
         offset="1"
         stop-color="#4232B2"
         id="stop60" />
    </linearGradient>
    <linearGradient
       id="paint2_linear_317_37978"
       x1="11.9294"
       y1="19.4781"
       x2="10.7882"
       y2="222.27499"
       gradientUnits="userSpaceOnUse"
       gradientTransform="translate(-25.5,-43.31149)">
      <stop
         stop-color="#245795"
         id="stop63" />
      <stop
         offset="1"
         stop-color="#8AD3A8"
         id="stop65" />
    </linearGradient>
    <linearGradient
       id="paint3_linear_317_37978"
       x1="126.237"
       y1="76.583099"
       x2="119.527"
       y2="112.116"
       gradientUnits="userSpaceOnUse"
       gradientTransform="translate(-25.5,-43.31149)">
      <stop
         stop-color="#245795"
         id="stop68" />
      <stop
         offset="1"
         stop-color="#CAD8E7"
         id="stop70" />
    </linearGradient>
    <linearGradient
       id="paint4_linear_317_37978"
       x1="143.54201"
       y1="62.341099"
       x2="122.515"
       y2="61.198502"
       gradientUnits="userSpaceOnUse"
       gradientTransform="translate(-25.5,-43.31149)">
      <stop
         stop-color="#245795"
         id="stop73" />
      <stop
         offset="1"
         stop-color="#8AD3A8"
         id="stop75" />
    </linearGradient>
    <linearGradient
       id="paint5_linear_317_37978"
       x1="81.363998"
       y1="107.496"
       x2="74.654099"
       y2="143.02901"
       gradientUnits="userSpaceOnUse"
       gradientTransform="translate(-25.5,-43.31149)">
      <stop
         stop-color="#245795"
         id="stop78" />
      <stop
         offset="1"
         stop-color="#CAD8E7"
         id="stop80" />
    </linearGradient>
    <linearGradient
       id="paint6_linear_317_37978"
       x1="98.669098"
       y1="93.252296"
       x2="77.642097"
       y2="92.109703"
       gradientUnits="userSpaceOnUse"
       gradientTransform="translate(-25.5,-43.31149)">
      <stop
         stop-color="#245795"
         id="stop83" />
      <stop
         offset="1"
         stop-color="#8AD3A8"
         id="stop85" />
    </linearGradient>
    <linearGradient
       id="paint7_linear_317_37978"
       x1="78.371902"
       y1="33.705002"
       x2="71.662003"
       y2="69.2379"
       gradientUnits="userSpaceOnUse"
       gradientTransform="translate(-25.5,-43.31149)">
      <stop
         stop-color="#245795"
         id="stop88" />
      <stop
         offset="1"
         stop-color="#CAD8E7"
         id="stop90" />
    </linearGradient>
    <linearGradient
       id="paint8_linear_317_37978"
       x1="95.677101"
       y1="19.462099"
       x2="74.6502"
       y2="18.319599"
       gradientUnits="userSpaceOnUse"
       gradientTransform="translate(-25.5,-43.31149)">
      <stop
         stop-color="#245795"
         id="stop93" />
      <stop
         offset="1"
         stop-color="#8AD3A8"
         id="stop95" />
    </linearGradient>
  </defs>
</svg>
