<svg xmlns="http://www.w3.org/2000/svg" viewBox="0 0 48 48" width="48" height="48" fill="#0868ab"><path d="M40.279 42H7.721a3.691 3.691 0 0 1-2.715-1.205 3.868 3.868 0 0 1-.99-2.95l2.091-23.546C6.274 12.418 7.792 11 9.637 11h28.727c1.846 0 3.364 1.419 3.53 3.3l2.091 23.545a3.872 3.872 0 0 1-.99 2.95A3.695 3.695 0 0 1 40.279 42z" fill="#cfd8dc"/><path d="M36.631 38H11.369C9.511 38 8 36.378 8 34.385V30h32v4.385C40 36.378 38.489 38 36.631 38z" fill="#263238"/><path d="M36.666 34H11.334c-.915 0-1.769-.392-2.403-1.103a3.774 3.774 0 0 1-.92-2.786l1.583-20.81C9.735 7.45 11.194 6 12.916 6h22.167c1.722 0 3.181 1.45 3.323 3.301l1.583 20.808a3.773 3.773 0 0 1-.92 2.787c-.634.712-1.487 1.104-2.403 1.104z" fill="#546e7a"/><path d="M8.856 19l-.845 11.11a3.772 3.772 0 0 0 .92 2.786c.634.712 1.488 1.104 2.403 1.104h25.332c.915 0 1.769-.392 2.403-1.103a3.775 3.775 0 0 0 .92-2.787L39.144 19H8.856z" fill="#455a64"/><path d="M29.189 20c-1.937-2.264-6.708-1.879-6.708-3.389 0-.734.529-1.274 1.644-1.274 1.116 0 1.963.742 3.114.742.646 0 1.471-.27 1.471-1.191 0-1.483-3.018-1.888-4.604-1.888-2.115 0-5.106.832-5.106 4 0 1.647 1.141 2.463 2.634 3h-.001c2.011.723 4.367 1.02 4.367 2.438 0 .929-1.017 1.55-2.192 1.55-1.655 0-2.963-.989-3.88-.989C19.204 23 18 23.247 18 24.583 18 26.688 22.828 27 24.596 27 25.653 27 30 26.37 30 22.307c0-.994-.318-1.732-.811-2.307z" fill="#ffc107"/><path d="M27.892 19h-8.037c.464.431 1.08.748 1.779 1h-.001c2.011.723 4.367 1.02 4.367 2.438 0 .929-1.017 1.55-2.192 1.55-1.655 0-2.963-.989-3.88-.989C19.204 23 18 23.247 18 24.583 18 26.688 22.828 27 24.596 27 25.653 27 30 26.37 30 22.307c0-.994-.318-1.732-.811-2.307-.353-.413-.802-.736-1.297-1z" fill="#ffb300"/></svg>