<?xml version="1.0" encoding="utf-8"?>
<!-- Generator: Adobe Illustrator 22.0.1, SVG Export Plug-In . SVG Version: 6.00 Build 0)  -->
<svg version="1.1" id="Слой_1" xmlns="http://www.w3.org/2000/svg" xmlns:xlink="http://www.w3.org/1999/xlink" x="0px" y="0px"
	 viewBox="0 0 316.3 315.3" style="enable-background:new 0 0 316.3 315.3;" xml:space="preserve">
<style type="text/css">
	.st0{fill:url(#SVGID_1_);}
	.st1{fill:url(#SVGID_2_);}
	.st2{fill:url(#SVGID_3_);}
</style>
<linearGradient id="SVGID_1_" gradientUnits="userSpaceOnUse" x1="158.9" y1="290.6531" x2="158.9" y2="1.7641" gradientTransform="matrix(1 0 0 -1 0 304.1937)">
	<stop  offset="0" style="stop-color:#EA8928"/>
	<stop  offset="1" style="stop-color:#CF2B8F"/>
</linearGradient>
<path class="st0" d="M229.5,0.5H88.4c-47.9,0-86.9,39-86.9,86.9v141c0,47.9,39,86.9,86.9,86.9h141c47.9,0,86.9-39,86.9-86.9v-141
	C316.3,39.5,277.4,0.5,229.5,0.5z M288.4,228.5c0,32.5-26.4,58.9-58.9,58.9H88.4c-32.5,0-58.9-26.4-58.9-58.9V87.4
	c0-32.5,26.4-58.9,58.9-58.9h141c32.5,0,58.9,26.4,58.9,58.9L288.4,228.5L288.4,228.5z"/>
<linearGradient id="SVGID_2_" gradientUnits="userSpaceOnUse" x1="158.9" y1="290.6531" x2="158.9" y2="1.7641" gradientTransform="matrix(1 0 0 -1 0 304.1937)">
	<stop  offset="0" style="stop-color:#EA8928"/>
	<stop  offset="1" style="stop-color:#CF2B8F"/>
</linearGradient>
<path class="st1" d="M158.9,76.8c-44.7,0-81.1,36.4-81.1,81.1s36.4,81.1,81.1,81.1s81.1-36.4,81.1-81.1S203.7,76.8,158.9,76.8z
	 M158.9,211.1c-29.3,0-53.2-23.9-53.2-53.2s23.9-53.2,53.2-53.2s53.2,23.9,53.2,53.2C212.1,187.3,188.3,211.1,158.9,211.1z"/>
<linearGradient id="SVGID_3_" gradientUnits="userSpaceOnUse" x1="243.4" y1="290.6531" x2="243.4" y2="1.7641" gradientTransform="matrix(1 0 0 -1 0 304.1937)">
	<stop  offset="0" style="stop-color:#EA8928"/>
	<stop  offset="1" style="stop-color:#CF2B8F"/>
</linearGradient>
<path class="st2" d="M243.4,53.1c-5.4,0-10.7,2.2-14.5,6s-6,9.1-6,14.5s2.2,10.7,6,14.5s9.1,6,14.5,6s10.7-2.2,14.5-6s6-9.1,6-14.5
	s-2.2-10.7-6-14.5S248.8,53.1,243.4,53.1z"/>
</svg>
