<svg width="296" height="228" viewBox="0 0 296 228" fill="none" xmlns="http://www.w3.org/2000/svg"><g clip-path="url(#clip0_102_4297)"><path d="M30.898 140.09c4.04 5.702-2.21-13.931-2.21-13.931l6.875 11.3v-19.992c0-11.3 13.367-31.726 13.367-31.726s.765 13.472 1.146 23.468c.382 9.996-3.437 28.684-3.437 28.684s1.146-10.865 9.93-20.861c8.784-9.996 12.604-13.473 12.604-13.473s.764 13.473-3.055 21.296c-3.82 7.823-11.076 24.337-11.076 24.337l10.311-9.126-5.347 12.168 12.986-12.603 4.583 9.996 1.146-9.127 2.673 7.389s1.528-10.431 0-14.777c-1.528-4.345-3.055-9.561-3.055-9.561s8.02 5.649 9.93 10.43c1.91 4.781 3.055 13.038 3.055 13.038s.764-12.168 7.257-20.426c6.493-8.258 20.242-16.08 20.242-16.08s-.764 14.776-3.819 20.426c-3.056 5.65-8.403 17.384-8.403 17.384l12.222-8.257-4.965 9.126s.763-1.738 4.201-3.042c3.437-1.303 9.548-1.303 9.548-1.303l-1.146 6.953 4.966-8.692 4.965 7.389-.382-9.996 3.437 6.519s2.674-5.649 3.82-8.692c1.146-3.042 6.11-5.65 6.11-5.65s-1.909 9.996-1.909 12.169v5.214l4.201-7.388 2.674 6.519.382-5.649 3.819 5.649.382-7.388 24.062 11.734 2.292-10.865 7.256 10.865 5.729-8.692.764 7.388 5.729-6.954 1.528 6.954 4.965-7.388 1.528 5.215 5.728-4.781s4.143-49.765-10.208-122.26c0 0-24.929 11.438-45.171 4.05-20.243-7.389-82.497-20.427-117.636 8.692-14.618 12.114-21.96 31.4-23.768 51.435-1.578 17.501-1.029 38.495 9.174 52.893Z" fill="#FDD000"/><path d="M30.898 140.09c4.04 5.702-2.21-13.931-2.21-13.931l6.875 11.3v-19.992c0-11.3 13.367-31.726 13.367-31.726s.765 13.472 1.146 23.468c.382 9.996-3.437 28.684-3.437 28.684s1.146-10.865 9.93-20.861c8.784-9.996 12.604-13.473 12.604-13.473s.764 13.473-3.055 21.296c-3.82 7.823-11.076 24.337-11.076 24.337l10.311-9.126-5.347 12.168 12.986-12.603 4.583 9.996 1.146-9.127 2.673 7.389s1.528-10.431 0-14.777c-1.528-4.345-3.055-9.561-3.055-9.561s8.02 5.649 9.93 10.43c1.91 4.781 3.055 13.038 3.055 13.038s.764-12.168 7.257-20.426c6.493-8.258 20.242-16.08 20.242-16.08s-.764 14.776-3.819 20.426c-3.056 5.65-8.403 17.384-8.403 17.384l12.222-8.257-4.965 9.126s.763-1.738 4.201-3.042c3.437-1.303 9.548-1.303 9.548-1.303l-1.146 6.953 4.966-8.692 4.965 7.389-.382-9.996 3.437 6.519s2.674-5.649 3.82-8.692c1.146-3.042 6.11-5.65 6.11-5.65s-1.909 9.996-1.909 12.169v5.214l4.201-7.388 2.674 6.519.382-5.649 3.819 5.649.382-7.388 24.062 11.734 2.292-10.865 7.256 10.865 5.729-8.692.764 7.388 5.729-6.954 1.528 6.954 4.965-7.388 1.528 5.215 5.728-4.781s4.143-49.765-10.208-122.26c0 0-24.929 11.438-45.171 4.05-20.243-7.389-82.497-20.427-117.636 8.692-14.618 12.114-21.96 31.4-23.768 51.435-1.578 17.501-1.029 38.495 9.174 52.893Z" fill="#C5C5C5"/><path d="m212.972 192.783-6.847-5.479-2.739 3.562-2.465-3.562-4.656 5.205-1.37-5.478-.821 5.205s-2.345-3.657-6.574-4.931c-4.229-1.274-9.586-.548-9.586-.548l7.943 4.658-7.669-2.466-.274 3.561-4.109-2.739-1.095 3.013s-1.096-3.835-1.096-5.205c0-1.369.274-5.205.274-5.205s-3.013 3.014-3.013 5.479v6.3s-.274-3.561-4.656-4.657-7.943-1.096-7.943-1.096l3.286 3.836h-4.656l-4.108 4.931-2.191-4.931-3.013 3.561-4.93-2.739-1.096 2.739-6.299-4.109-1.369-3.561v3.835s-1.096-.822-3.287-.822c-2.192 0-13.148.275-13.148.275l5.479 2.466-3.013 2.739s-3.835-1.096-5.478-2.466c-1.643-1.37-8.49-3.014-8.49-3.014l3.834 6.028-3.013-1.096-2.191 5.205-1.643-6.027-.274 4.658-3.561-3.288-.548 3.013-.547-5.205s-.822 1.644-1.37 3.562c-.547 1.917-2.19 5.205-2.19 5.205l1.094-6.575v-4.931l-1.369 4.657-2.739 4.931-4.93-2.739 1.917 3.561h-5.752l1.37 3.014-8.217.274s-6.3 1.096-7.943 1.37c-1.644.274-5.752 1.644-5.752 1.644l12.6-.548-5.205 3.013 13.97 2.466-6.574 3.014 10.408-.274-.822-1.644 4.108 3.288 2.74-4.11.821 3.836 1.644-2.739 1.095 4.109 6.299-7.123-2.191 7.945 4.93-2.466 1.369 4.109 2.739-3.561 6.3 4.383v-7.123l4.93 3.288.274-3.014s5.204 0 6.299 1.918a81.808 81.808 0 0 1 1.917 3.561l1.714-4.5.477-1.253 4.93-5.479s-1.917 2.74-2.191 6.575a177.844 177.844 0 0 1-.548 6.301l4.93-7.67.548 4.931 4.382-2.74 5.479 4.658.274-4.658 3.835 3.288 1.369-2.192 2.191 2.192 5.478-1.917.548 2.739 2.465-2.192 1.096 3.562s.274-3.562.274-6.027v-3.288l4.656 11.506 4.657-6.848 1.369 3.835 1.917-5.205v4.383l3.013-4.931.274 3.562 6.026-4.383-.547 4.109 6.299-2.466-.822 3.835 5.204-3.561v3.288h5.752l10.682 1.095-7.396-3.561 16.266.141s6.194 1.503 7.016 1.503c.821 0-15.612-5.753-15.612-5.753l-7.669-1.37 9.038-.548-6.573-2.465c-.001-.005 2.464-10.141 4.381-16.442Z" fill="#FDD000"/><path d="m212.972 192.783-6.847-5.479-2.739 3.562-2.465-3.562-4.656 5.205-1.37-5.478-.821 5.205s-2.345-3.657-6.574-4.931c-4.229-1.274-9.586-.548-9.586-.548l7.943 4.658-7.669-2.466-.274 3.561-4.109-2.739-1.095 3.013s-1.096-3.835-1.096-5.205c0-1.369.274-5.205.274-5.205s-3.013 3.014-3.013 5.479v6.3s-.274-3.561-4.656-4.657-7.943-1.096-7.943-1.096l3.286 3.836h-4.656l-4.108 4.931-2.191-4.931-3.013 3.561-4.93-2.739-1.096 2.739-6.299-4.109-1.369-3.561v3.835s-1.096-.822-3.287-.822c-2.192 0-13.148.275-13.148.275l5.479 2.466-3.013 2.739s-3.835-1.096-5.478-2.466c-1.643-1.37-8.49-3.014-8.49-3.014l3.834 6.028-3.013-1.096-2.191 5.205-1.643-6.027-.274 4.658-3.561-3.288-.548 3.013-.547-5.205s-.822 1.644-1.37 3.562c-.547 1.917-2.19 5.205-2.19 5.205l1.094-6.575v-4.931l-1.369 4.657-2.739 4.931-4.93-2.739 1.917 3.561h-5.752l1.37 3.014-8.217.274s-6.3 1.096-7.943 1.37c-1.644.274-5.752 1.644-5.752 1.644l12.6-.548-5.205 3.013 13.97 2.466-6.574 3.014 10.408-.274-.822-1.644 4.108 3.288 2.74-4.11.821 3.836 1.644-2.739 1.095 4.109 6.299-7.123-2.191 7.945 4.93-2.466 1.369 4.109 2.739-3.561 6.3 4.383v-7.123l4.93 3.288.274-3.014s5.204 0 6.299 1.918a81.808 81.808 0 0 1 1.917 3.561l1.714-4.5.477-1.253 4.93-5.479s-1.917 2.74-2.191 6.575a177.844 177.844 0 0 1-.548 6.301l4.93-7.67.548 4.931 4.382-2.74 5.479 4.658.274-4.658 3.835 3.288 1.369-2.192 2.191 2.192 5.478-1.917.548 2.739 2.465-2.192 1.096 3.562s.274-3.562.274-6.027v-3.288l4.656 11.506 4.657-6.848 1.369 3.835 1.917-5.205v4.383l3.013-4.931.274 3.562 6.026-4.383-.547 4.109 6.299-2.466-.822 3.835 5.204-3.561v3.288h5.752l10.682 1.095-7.396-3.561 16.266.141s6.194 1.503 7.016 1.503c.821 0-15.612-5.753-15.612-5.753l-7.669-1.37 9.038-.548-6.573-2.465c-.001-.005 2.464-10.141 4.381-16.442Z" fill="#969696"/><path d="M218.74 124.731s-8.867 4.435-15.126 9.652c-6.259 5.217-14.083 4.695-14.083 4.695s2.869 3.13 2.608 5.478c-.261 2.348-1.304 6.782-1.304 6.782s-6.78 22.172-7.563 24.259c-.783 2.086-.522 6.26 0 10.434.521 4.173-1.305 9.39-2.869 11.738-1.564 2.348.782 9.912.782 14.346 0 4.435-3.39 9.391-7.041 10.173-3.651.783-6.78-1.043-6.78-1.043s-.261.782-3.912.261-3.912-2.348-3.912-2.348-3.651-1.304-3.651-3.651c0-2.348 2.087-6.261 6.52-7.565 4.434-1.305 6.781-5.739 7.303-10.173.521-4.435 3.911-23.737 4.433-30.519.522-6.782-1.565-15.651-1.825-14.868-.261.782-9.65 17.476-13.562 24.519-3.911 7.043-4.172 6.521-4.172 9.13 0 2.608-2.869 6.26-5.737 7.303-2.869 1.044-3.391 5.217-4.955 8.086-1.566 2.87-5.999 4.956-10.171 6.261-4.173 1.304-6.52 0-6.52 0s-2.087 0-3.651-1.305c-1.565-1.304-2.087-2.869-2.087-2.869s-3.39-2.869-.26-6.521c3.129-3.652 10.953-3.391 14.082-3.913 3.13-.521 1.826-.521 5.998-4.695 4.173-4.173 15.126-32.866 15.126-37.301 0-4.435-20.081-32.084-21.907-36.519-1.825-4.434 2.087-13.564.782-17.738-1.304-4.173-12.257-16.433-12.257-16.433l26.601-7.304s5.998 8.609 11.996 10.173c5.999 1.566 14.605 4.696 23.733.522 9.127-4.174 20.08-11.739 30.512-13.042" fill="#fff"/><mask id="mask0_102_4297" style="mask-type:luminance" maskUnits="userSpaceOnUse" x="119" y="70" width="100" height="153"><path d="M218.74 124.731s-8.867 4.435-15.126 9.652c-6.259 5.217-14.083 4.695-14.083 4.695s2.869 3.13 2.608 5.478c-.261 2.348-1.304 6.782-1.304 6.782s-6.78 22.172-7.563 24.259c-.783 2.086-.522 6.26 0 10.434.521 4.173-1.305 9.39-2.869 11.738-1.564 2.348.782 9.912.782 14.346 0 4.435-3.39 9.391-7.041 10.173-3.651.783-6.78-1.043-6.78-1.043s-.261.782-3.912.261-3.912-2.348-3.912-2.348-3.651-1.304-3.651-3.651c0-2.348 2.087-6.261 6.52-7.565 4.434-1.305 6.781-5.739 7.303-10.173.521-4.435 3.911-23.737 4.433-30.519.522-6.782-1.565-15.651-1.825-14.868-.261.782-9.65 17.476-13.562 24.519-3.911 7.043-4.172 6.521-4.172 9.13 0 2.608-2.869 6.26-5.737 7.303-2.869 1.044-3.391 5.217-4.955 8.086-1.566 2.87-5.999 4.956-10.171 6.261-4.173 1.304-6.52 0-6.52 0s-2.087 0-3.651-1.305c-1.565-1.304-2.087-2.869-2.087-2.869s-3.39-2.869-.26-6.521c3.129-3.652 10.953-3.391 14.082-3.913 3.13-.521 1.826-.521 5.998-4.695 4.173-4.173 15.126-32.866 15.126-37.301 0-4.435-20.081-32.084-21.907-36.519-1.825-4.434 2.087-13.564.782-17.738-1.304-4.173-12.257-16.433-12.257-16.433l26.601-7.304s5.998 8.609 11.996 10.173c5.999 1.566 14.605 4.696 23.733.522 9.127-4.174 20.08-11.739 30.512-13.042" fill="#fff"/></mask><g mask="url(#mask0_102_4297)"><path d="M158.757 176.901c3.911-7.043 13.3-23.737 13.561-24.52.06-.182.22.162.422.873-.307-3.847-5.812-5.514-8.948-6.635-3.852-1.375-8.805-6.054-12.932-11.834-4.128-5.78-8.256-14.036-9.081-19.816-.825-5.78-.825-18.165 5.228-23.669 6.054-5.504 6.604-11.56 6.604-11.56s-2.677-3.195-5.999-6.102l-24.583 6.75s10.953 12.26 12.257 16.433c1.304 4.174-2.608 13.303-.782 17.738 1.825 4.434 21.907 32.084 21.907 36.519 0 4.434-10.953 33.127-15.126 37.301-4.173 4.173-2.869 4.173-5.998 4.695-1.503.25-4.089.324-6.717.734a1.99 1.99 0 0 0 1.102.701c6.329 1.652 9.081 2.752 10.182 5.78.511 1.406-.107 3.462-.831 5.263 2.166-1.124 3.981-2.501 4.869-4.131 1.566-2.869 2.087-7.043 4.955-8.086 2.869-1.044 5.738-4.695 5.738-7.304-.001-2.609.26-2.087 4.172-9.13Z" fill="#fff"/></g><mask id="mask1_102_4297" style="mask-type:luminance" maskUnits="userSpaceOnUse" x="119" y="70" width="100" height="153"><path d="M218.74 124.731s-8.867 4.435-15.126 9.652c-6.259 5.217-14.083 4.695-14.083 4.695s2.869 3.13 2.608 5.478c-.261 2.348-1.304 6.782-1.304 6.782s-6.78 22.172-7.563 24.259c-.783 2.086-.522 6.26 0 10.434.521 4.173-1.305 9.39-2.869 11.738-1.564 2.348.782 9.912.782 14.346 0 4.435-3.39 9.391-7.041 10.173-3.651.783-6.78-1.043-6.78-1.043s-.261.782-3.912.261-3.912-2.348-3.912-2.348-3.651-1.304-3.651-3.651c0-2.348 2.087-6.261 6.52-7.565 4.434-1.305 6.781-5.739 7.303-10.173.521-4.435 3.911-23.737 4.433-30.519.522-6.782-1.565-15.651-1.825-14.868-.261.782-9.65 17.476-13.562 24.519-3.911 7.043-4.172 6.521-4.172 9.13 0 2.608-2.869 6.26-5.737 7.303-2.869 1.044-3.391 5.217-4.955 8.086-1.566 2.87-5.999 4.956-10.171 6.261-4.173 1.304-6.52 0-6.52 0s-2.087 0-3.651-1.305c-1.565-1.304-2.087-2.869-2.087-2.869s-3.39-2.869-.26-6.521c3.129-3.652 10.953-3.391 14.082-3.913 3.13-.521 1.826-.521 5.998-4.695 4.173-4.173 15.126-32.866 15.126-37.301 0-4.435-20.081-32.084-21.907-36.519-1.825-4.434 2.087-13.564.782-17.738-1.304-4.173-12.257-16.433-12.257-16.433l26.601-7.304s5.998 8.609 11.996 10.173c5.999 1.566 14.605 4.696 23.733.522 9.127-4.174 20.08-11.739 30.512-13.042" fill="#fff"/></mask><g mask="url(#mask1_102_4297)"><path opacity=".5" d="M158.757 176.901c3.911-7.043 13.3-23.737 13.561-24.52.06-.182.22.162.422.873-.307-3.847-5.812-5.514-8.948-6.635-3.852-1.375-8.805-6.054-12.932-11.834-4.128-5.78-8.256-14.036-9.081-19.816-.825-5.78-.825-18.165 5.228-23.669 6.054-5.504 6.604-11.56 6.604-11.56s-2.677-3.195-5.999-6.102l-24.583 6.75s10.953 12.26 12.257 16.433c1.304 4.174-2.608 13.303-.782 17.738 1.825 4.434 21.907 32.084 21.907 36.519 0 4.434-10.953 33.127-15.126 37.301-4.173 4.173-2.869 4.173-5.998 4.695-1.503.25-4.089.324-6.717.734a1.99 1.99 0 0 0 1.102.701c6.329 1.652 9.081 2.752 10.182 5.78.511 1.406-.107 3.462-.831 5.263 2.166-1.124 3.981-2.501 4.869-4.131 1.566-2.869 2.087-7.043 4.955-8.086 2.869-1.044 5.738-4.695 5.738-7.304-.001-2.609.26-2.087 4.172-9.13Z" fill="#fff"/></g><mask id="mask2_102_4297" style="mask-type:luminance" maskUnits="userSpaceOnUse" x="119" y="70" width="100" height="153"><path d="M218.74 124.731s-8.867 4.435-15.126 9.652c-6.259 5.217-14.083 4.695-14.083 4.695s2.869 3.13 2.608 5.478c-.261 2.348-1.304 6.782-1.304 6.782s-6.78 22.172-7.563 24.259c-.783 2.086-.522 6.26 0 10.434.521 4.173-1.305 9.39-2.869 11.738-1.564 2.348.782 9.912.782 14.346 0 4.435-3.39 9.391-7.041 10.173-3.651.783-6.78-1.043-6.78-1.043s-.261.782-3.912.261-3.912-2.348-3.912-2.348-3.651-1.304-3.651-3.651c0-2.348 2.087-6.261 6.52-7.565 4.434-1.305 6.781-5.739 7.303-10.173.521-4.435 3.911-23.737 4.433-30.519.522-6.782-1.565-15.651-1.825-14.868-.261.782-9.65 17.476-13.562 24.519-3.911 7.043-4.172 6.521-4.172 9.13 0 2.608-2.869 6.26-5.737 7.303-2.869 1.044-3.391 5.217-4.955 8.086-1.566 2.87-5.999 4.956-10.171 6.261-4.173 1.304-6.52 0-6.52 0s-2.087 0-3.651-1.305c-1.565-1.304-2.087-2.869-2.087-2.869s-3.39-2.869-.26-6.521c3.129-3.652 10.953-3.391 14.082-3.913 3.13-.521 1.826-.521 5.998-4.695 4.173-4.173 15.126-32.866 15.126-37.301 0-4.435-20.081-32.084-21.907-36.519-1.825-4.434 2.087-13.564.782-17.738-1.304-4.173-12.257-16.433-12.257-16.433l26.601-7.304s5.998 8.609 11.996 10.173c5.999 1.566 14.605 4.696 23.733.522 9.127-4.174 20.08-11.739 30.512-13.042" fill="#fff"/></mask><g mask="url(#mask2_102_4297)"><path d="M213.133 129.467c4.056-2.995 8.169-5.415 8.169-5.415s3.027 0 1.651-13.211c-1.375-13.211-3.301-40.733-3.301-40.733-8.953-.203-16.246 3.504-19.441 5.45 4.25 6.555 16.06 27.539 12.922 53.909Z" fill="#fff"/></g><mask id="mask3_102_4297" style="mask-type:luminance" maskUnits="userSpaceOnUse" x="119" y="70" width="100" height="153"><path d="M218.74 124.731s-8.867 4.435-15.126 9.652c-6.259 5.217-14.083 4.695-14.083 4.695s2.869 3.13 2.608 5.478c-.261 2.348-1.304 6.782-1.304 6.782s-6.78 22.172-7.563 24.259c-.783 2.086-.522 6.26 0 10.434.521 4.173-1.305 9.39-2.869 11.738-1.564 2.348.782 9.912.782 14.346 0 4.435-3.39 9.391-7.041 10.173-3.651.783-6.78-1.043-6.78-1.043s-.261.782-3.912.261-3.912-2.348-3.912-2.348-3.651-1.304-3.651-3.651c0-2.348 2.087-6.261 6.52-7.565 4.434-1.305 6.781-5.739 7.303-10.173.521-4.435 3.911-23.737 4.433-30.519.522-6.782-1.565-15.651-1.825-14.868-.261.782-9.65 17.476-13.562 24.519-3.911 7.043-4.172 6.521-4.172 9.13 0 2.608-2.869 6.26-5.737 7.303-2.869 1.044-3.391 5.217-4.955 8.086-1.566 2.87-5.999 4.956-10.171 6.261-4.173 1.304-6.52 0-6.52 0s-2.087 0-3.651-1.305c-1.565-1.304-2.087-2.869-2.087-2.869s-3.39-2.869-.26-6.521c3.129-3.652 10.953-3.391 14.082-3.913 3.13-.521 1.826-.521 5.998-4.695 4.173-4.173 15.126-32.866 15.126-37.301 0-4.435-20.081-32.084-21.907-36.519-1.825-4.434 2.087-13.564.782-17.738-1.304-4.173-12.257-16.433-12.257-16.433l26.601-7.304s5.998 8.609 11.996 10.173c5.999 1.566 14.605 4.696 23.733.522 9.127-4.174 20.08-11.739 30.512-13.042" fill="#fff"/></mask><g mask="url(#mask3_102_4297)"><path opacity=".5" d="M213.133 129.467c4.056-2.995 8.169-5.415 8.169-5.415s3.027 0 1.651-13.211c-1.375-13.211-3.301-40.733-3.301-40.733-8.953-.203-16.246 3.504-19.441 5.45 4.25 6.555 16.06 27.539 12.922 53.909Z" fill="#fff"/></g><path d="M218.74 124.731s-8.867 4.435-15.126 9.652c-6.259 5.217-14.083 4.695-14.083 4.695s2.869 3.13 2.608 5.478c-.261 2.348-1.304 6.782-1.304 6.782s-6.78 22.172-7.563 24.259c-.783 2.086-.522 6.26 0 10.434.521 4.173-1.305 9.39-2.869 11.738-1.564 2.348.782 9.912.782 14.346 0 4.435-3.39 9.391-7.041 10.173-3.651.783-6.78-1.043-6.78-1.043s-.261.782-3.912.261-3.912-2.348-3.912-2.348-3.651-1.304-3.651-3.651c0-2.348 2.087-6.261 6.52-7.565 4.434-1.305 6.781-5.739 7.303-10.173.521-4.435 3.911-23.737 4.433-30.519.522-6.782-1.565-15.651-1.825-14.868-.261.782-9.65 17.476-13.562 24.519-3.911 7.043-4.172 6.521-4.172 9.13 0 2.608-2.869 6.26-5.737 7.303-2.869 1.044-3.391 5.217-4.955 8.086-1.566 2.87-5.999 4.956-10.171 6.261-4.173 1.304-6.52 0-6.52 0s-2.087 0-3.651-1.305c-1.565-1.304-2.087-2.869-2.087-2.869s-3.39-2.869-.26-6.521c3.129-3.652 10.953-3.391 14.082-3.913 3.13-.521 1.826-.521 5.998-4.695 4.173-4.173 15.126-32.866 15.126-37.301 0-4.435-20.081-32.084-21.907-36.519-1.825-4.434 2.087-13.564.782-17.738-1.304-4.173-12.257-16.433-12.257-16.433l26.601-7.304s5.998 8.609 11.996 10.173c5.999 1.566 14.605 4.696 23.733.522 9.127-4.174 20.08-11.739 30.512-13.042" stroke="#263238" stroke-width=".694" stroke-miterlimit="10" stroke-linecap="round" stroke-linejoin="round"/><path d="M146.239 120.558s-1.826 4.173 1.043 9.129c2.868 4.956 8.606 12.782 13.561 15.651 4.955 2.869 10.953 4.174 11.475 7.043" stroke="#263238" stroke-width=".694" stroke-miterlimit="10" stroke-linecap="round" stroke-linejoin="round"/><path d="M196.616 77.982c-3.934 2.068-7.733 4.184-11.258 5.796-6.857 3.136-13.42 2.149-18.804.8 1.862 1.719 3.921 4.955 4.199 10.939.522 11.216-3.39 16.172 0 21.389 3.391 5.217 7.564 6.782 10.432 11.999 2.869 5.217 5.216 8.347 9.389 8.347 4.173 0 15.909-12.521 17.995-25.824 2.04-13.01-7.389-30.25-11.953-33.446Z" fill="#263238" stroke="#263238" stroke-width=".694" stroke-miterlimit="10" stroke-linecap="round" stroke-linejoin="round"/><path d="M127.201 207.681s1.304-8.086 6.52-8.347m-12.258 4.173s3.912-6.781 8.345-6.26m29.731 21.91s-.261-5.478 5.477-9.651m2.347 11.738s-.261-6.781 3.651-9.911" stroke="#263238" stroke-width=".694" stroke-miterlimit="10" stroke-linecap="round" stroke-linejoin="round"/><path d="M203.284-.31s30.85 123.862 6.952 206.001M228.11 81.45c.198 2.897.329 5.655.375 8.203m-8.69-67.798s5.726 30.143 7.892 54.28m5.578-21.25s6.082 38.679 4.779 73.013m-7.386-16.95s.374 34.676-3.042 54.325m20.701-26.566c-.2 2.11-.436 4.163-.714 6.14m-.434-70.84s3.161 31.306 1.663 57.773" stroke="#263238" stroke-width="1.388" stroke-miterlimit="10" stroke-linecap="round" stroke-linejoin="round"/><path d="M158.42 45.684S131.518 34.2 129.222 34.2c-2.297 0-2.953 7.218-6.89 13.125-3.937 5.906-10.826 6.89-12.138 11.813-1.313 4.922 2.296 18.704 5.905 22.641 3.608 3.938 9.514-1.64 12.794 1.313 3.281 2.953 4.593 7.547 9.842 6.235 5.249-1.313 17.716-6.891 19.356-10.829 1.641-3.937-.984-11.812-.984-18.375 0-6.563 2.624-11.158 1.313-14.438Z" fill="#263238" stroke="#263238" stroke-width=".694" stroke-miterlimit="10" stroke-linecap="round" stroke-linejoin="round"/><path d="M132.368 56.288c-4.87 0-8.683-3.57-8.842-3.721a.782.782 0 0 1 1.077-1.136c.035.033 3.531 3.292 7.765 3.292a.783.783 0 0 1 0 1.565Zm17.343 2.03a.782.782 0 0 1-.738-1.043c.036-.104.871-2.654-1.412-4.48-2.256-1.806-5.197.298-5.321.389a.782.782 0 0 1-.927-1.261c.163-.12 4.028-2.91 7.226-.35 2.532 2.026 2.357 4.956 1.91 6.222a.783.783 0 0 1-.738.523Zm-3.875 5.862a1.475 1.475 0 1 1-2.95 0 1.475 1.475 0 0 1 2.95 0Zm-18.082-6.83a1.476 1.476 0 1 1-2.952.001 1.476 1.476 0 0 1 2.952 0Z" fill="#fff"/><path d="M122.049 82.278s4.108 3.717 8.215 4.304c4.108.588 2.738-2.934.978-4.304s-10.366-4.695-9.193 0Z" fill="#fff" stroke="#263238" stroke-width=".694" stroke-miterlimit="10" stroke-linecap="round" stroke-linejoin="round"/><path d="M140.855 69.531s.369-4.429-1.107-7.382c-1.477-2.952-4.244-3.875-7.012-1.66-2.768 2.214-2.583 2.214-9.779 4.982-5.524 2.125-9.516 4.04-11.077 7.4 1.156 3.789 2.686 7.237 4.219 8.909 3.609 3.937 9.514-1.64 12.795 1.312 3.281 2.954 4.592 7.548 9.842 6.235 1.371-.343 3.235-.978 5.27-1.798 1.668-2.646 1.936-6.111 1.092-8.401-1.291-3.507-3.505-6.09-4.243-9.597Z" fill="#fff" stroke="#263238" stroke-width=".694" stroke-miterlimit="10" stroke-linecap="round" stroke-linejoin="round"/><path d="M134.765 72.115s-7.012-3.506-9.41-2.03c-2.398 1.477.738 9.043 4.244 10.335 3.506 1.292 9.41-.37 10.148-2.4.738-2.03-2.952-4.798-4.982-5.905Z" fill="#263238" stroke="#263238" stroke-width=".694" stroke-miterlimit="10" stroke-linecap="round" stroke-linejoin="round"/><path d="M134.765 73.96s-4.612-2.768-4.797-1.292c-.185 1.477 4.797 3.875 5.72 2.952.923-.922-.923-1.66-.923-1.66Z" fill="#fff" stroke="#263238" stroke-width=".694" stroke-miterlimit="10" stroke-linecap="round" stroke-linejoin="round"/><path d="M112.809 26.901s-.922 7.751 1.292 12.918c2.214 5.167 3.136 8.858 6.088 8.673 2.952-.184 13.285-7.566 15.314-11.995 2.03-4.429 1.476-7.935-1.292-9.227-2.767-1.292-7.564-1.107-11.992-1.846-4.428-.737-8.303-1.844-9.41 1.477Z" fill="#263238" stroke="#263238" stroke-width=".694" stroke-miterlimit="10" stroke-linecap="round" stroke-linejoin="round"/><path d="M135.504 36.498s-4.02 9.769-12.292 12.133" stroke="#fff" stroke-width=".694" stroke-miterlimit="10" stroke-linecap="round" stroke-linejoin="round"/><path d="M166.316 46.094s-4.428-4.614-7.749-5.721c-3.321-1.107-6.273 3.322-6.458 7.382-.184 4.06.738 14.579 4.059 16.608 3.321 2.03 9.041-2.03 14.576-4.982 5.536-2.952 6.273-5.72 3.875-8.489-2.398-2.768-8.303-4.798-8.303-4.798Z" fill="#263238" stroke="#263238" stroke-width=".694" stroke-miterlimit="10" stroke-linecap="round" stroke-linejoin="round"/><path d="M152.756 43.509s-3.418 11.766 3.412 20.855" stroke="#fff" stroke-width=".694" stroke-miterlimit="10" stroke-linecap="round" stroke-linejoin="round"/><path d="M244.922 175.429s2.123-5.097 3.821-5.097c1.699 0 6.37 5.097 6.37 5.097s-1.699-5.946 1.273-9.768c2.973-3.822 15.287 5.946 15.711 7.645.425 1.698-6.369-.85-9.766 3.397-3.397 4.247-4.671 8.919-4.671 8.919s4.671-5.946 9.766 0c5.096 5.946 6.795 16.989 6.795 16.989s-8.918-7.221-12.315-7.221h-8.492s4.246 4.248 4.246 8.92.425 8.069.425 8.069l-5.52-8.069-1.274 9.343s-6.369-5.521-8.068-7.22c-1.698-1.698-5.944-6.795-5.944-6.795s-1.274 2.123-.425 7.219c.85 5.097-3.822 15.29-3.822 15.29s-.849-4.672-2.548-10.618c-1.698-5.945-2.123-11.891-2.123-11.891s-.849 6.795-4.671 13.166c-3.821 6.371-9.766 14.44-9.766 14.44l2.973-16.139s-2.973 2.124-5.945 3.823c-2.973 1.698-10.191 3.822-10.191 3.822l11.041-16.564s-9.343-.425-11.465 1.699c-2.123 2.123-9.766 8.069-9.766 8.069s3.821-14.015 8.068-18.687c4.246-4.672 16.135-7.22 16.135-7.22l-12.739-1.699s8.918-8.069 13.588-8.494c4.671-.425 12.314.85 12.314.85l16.985-1.275Z" fill="#263238"/><path d="M223.691 176.278s-8.068-10.193-16.56-10.193c-8.493 0-11.465 25.058-11.465 25.058s18.683-14.865 28.025-14.865Z" fill="#FDD000"/><path d="M223.69 176.278s8.918-7.644 16.985-7.219c8.068.424 11.041 15.29 8.068 21.66-2.972 6.371-5.944 11.043-5.944 11.043s-8.493-21.661-19.109-25.484Zm5.52 8.071s-6.369-7.221-11.464-7.221c-5.095 0-8.068 6.371-8.493 14.865-.425 8.495-.425 17.838-.425 17.838s19.109-19.537 21.232-20.386c2.123-.85-.85-5.096-.85-5.096Zm27.177-18.688s1.698-4.672 5.095-4.672 12.739.425 13.163 8.494c.425 8.07.425 16.564.425 16.564s-9.342-21.236-18.683-20.386Z" fill="#FDD000"/></g><defs><clipPath id="clip0_102_4297"><path fill="#fff" d="M0 0h296v228H0z"/></clipPath></defs></svg>