<svg width="120" height="40" viewBox="0 0 120 40" fill="none" xmlns="http://www.w3.org/2000/svg"><path d="M17.892 38.307c9.881 0 17.892-8.339 17.892-18.625 0-10.285-8.01-18.624-17.892-18.624C8.011 1.058 0 9.397 0 19.682c0 10.286 8.01 18.625 17.892 18.625Z" fill="#FDD000"/><path d="M26.431 0H9.963C8.336 0 7.116 1.27 7.116 2.963v34.074C7.116 38.73 8.336 40 9.963 40H26.43c1.627 0 2.847-1.27 2.847-2.963V2.963C29.278 1.27 28.058 0 26.43 0ZM15.86 1.481h6.099-6.099c-.204 0-.204 0 0 0Zm-1.22-.211s.203 0 .203.211c0 .212 0 .212-.203.212s-.203 0-.203-.212c0-.211 0-.211.203-.211Zm4.88 36.825h-2.644c-.406 0-.813-.423-.813-.846 0-.424.407-.847.813-.847h2.644c.406 0 .813.423.813.847 0 .423-.407.846-.813.846Zm7.522-3.174H9.15V3.81h17.892v31.11Z" fill="#313131"/><path d="M15.859 12.698h-.61v.635h.61v-.635Zm2.236 0h-.61v.635h.61v-.635Zm1.83 0h-.61v.635h.61v-.635Zm.61 0h-.61v.635h.61v-.635Zm-4.066.635h-.61v.635h.61v-.635Zm.61 0h-.61v.635h.61v-.635Zm1.016 0h-.61v.635h.61v-.635Zm.61 0h-.61v.635h.61v-.635Zm.61 0h-.61v.635h.61v-.635Zm-2.846.635h-.61v.635h.61v-.635Zm2.846 0h-.61v.635h.61v-.635Zm-3.456.635h-.61v.635h.61v-.635Zm1.22 0h-.61v.635h.61v-.635Z" fill="#313131"/><path d="M17.485 14.603h-.61v.635h.61v-.635Zm1.22 0h-.61v.635h.61v-.635Zm1.22 0h-.61v.635h.61v-.635Zm.61 0h-.61v.635h.61v-.635Zm-4.676.424h-.61v.634h.61v-.634Z" fill="#313131"/><path d="M17.079 15.027h-.61v.634h.61v-.634Zm2.236 0h-.61v.634h.61v-.634Zm.61 0h-.61v.634h.61v-.634Zm.61 0h-.61v.634h.61v-.634Zm-4.676.634h-.61v.635h.61v-.635Zm.61 0h-.61v.635h.61v-.635Zm.61 0h-.61v.635h.61v-.635Zm3.456 0h-.61v.635h.61v-.635Zm-4.676.635h-.61v.635h.61v-.635Zm1.22 0h-.61v.635h.61v-.635Zm1.016 0h-.61v.635h.61v-.635Zm1.22 0h-.61v.635h.61v-.635Zm1.22 0h-.61v.635h.61v-.635Zm-4.676.635h-.61v.635h.61v-.635Zm1.22 0h-.61v.635h.61v-.635Z" fill="#313131"/><path d="M17.485 16.931h-.61v.635h.61v-.635Zm.61 0h-.61v.635h.61v-.635Zm1.83 0h-.61v.635h.61v-.635Zm.61 0h-.61v.635h.61v-.635Zm-9.353.635h-.61v.635h.61v-.635Zm2.44 0h-.61v.635h.61v-.635Zm1.017 0h-.61v.635h.61v-.635Zm.61 0h-.61v.635h.61v-.635Zm.61 0h-.61v.635h.61v-.635Zm.61 0h-.61v.635h.61v-.635Z" fill="#313131"/><path d="M17.079 17.566h-.61v.635h.61v-.635Zm2.846 0h-.61v.635h.61v-.635Zm1.017 0h-.61v.635h.61v-.635Zm.61 0h-.61v.635h.61v-.635Zm.61 0h-.61v.635h.61v-.635Zm.61 0h-.61v.635h.61v-.635Zm.61 0h-.61v.635h.61v-.635Zm1.626 0h-.61v.635h.61v-.635Zm-13.215.635h-.61v.635h.61v-.635Z" fill="#313131"/><path d="M12.402 18.201h-.61v.635h.61v-.635Zm1.22 0h-.61v.635h.61v-.635Zm2.237 0h-.61v.635h.61v-.635Zm1.22 0h-.61v.635h.61v-.635Zm1.016 0h-.61v.635h.61v-.635Zm.61 0h-.61v.635h.61v-.635Zm.61 0h-.61v.635h.61v-.635Zm.61 0h-.61v.635h.61v-.635Zm.61 0h-.61v.635h.61v-.635Z" fill="#313131"/><path d="M20.942 18.201h-.61v.635h.61v-.635Zm1.83 0h-.61v.635h.61v-.635Zm.61 0h-.61v.635h.61v-.635Zm1.016 0h-.61v.635h.61v-.635Zm-11.386.423h-.61v.635h.61v-.635Zm.61 0h-.61v.635h.61v-.635Zm1.017 0h-.61v.635h.61v-.635Zm.61 0h-.61v.635h.61v-.635Zm1.22 0h-.61v.635h.61v-.635Zm1.626 0h-.61v.635h.61v-.635Zm1.22 0h-.61v.635h.61v-.635Zm.61 0h-.61v.635h.61v-.635Z" fill="#313131"/><path d="M20.535 18.624h-.61v.635h.61v-.635Zm1.627 0h-.61v.635h.61v-.635Zm.61 0h-.61v.635h.61v-.635Zm.61 0h-.61v.635h.61v-.635Zm.61 0h-.61v.635h.61v-.635Zm-12.199.636h-.61v.634h.61v-.635Z" fill="#313131"/><path d="M12.402 19.26h-.61v.634h.61v-.635Zm2.847 0h-.61v.634h.61v-.635Zm.61 0h-.61v.634h.61v-.635Zm.61 0h-.61v.634h.61v-.635Zm.61 0h-.61v.634h.61v-.635Zm3.456 0h-.61v.634h.61v-.635Zm1.017 0h-.61v.634h.61v-.635Zm.61 0h-.61v.634h.61v-.635Zm1.83 0h-.61v.634h.61v-.635Z" fill="#313131"/><path d="M24.398 19.26h-.61v.634h.61v-.635Zm-13.216.634h-.61v.635h.61v-.635Zm3.457 0h-.61v.635h.61v-.635Zm.61 0h-.61v.635h.61v-.635Zm1.22 0h-.61v.635h.61v-.635Zm.61 0h-.61v.635h.61v-.635Z" fill="#313131"/><path d="M17.485 19.894h-.61v.635h.61v-.635Zm3.05 0h-.61v.635h.61v-.635Z" fill="#313131"/><path d="M20.942 19.894h-.61v.635h.61v-.635Zm.61 0h-.61v.635h.61v-.635Zm1.83 0h-.61v.635h.61v-.635Zm.61 0h-.61v.635h.61v-.635Z" fill="#313131"/><path d="M24.398 19.894h-.61v.635h.61v-.635Zm.61 0h-.61v.635h.61v-.635Zm-13.826.636h-.61v.634h.61v-.635Zm1.83 0h-.61v.634h.61v-.635Zm4.067 0h-.61v.634h.61v-.635Zm1.016 0h-.61v.634h.61v-.635Zm1.22 0h-.61v.634h.61v-.635Zm.61 0h-.61v.634h.61v-.635Zm.61 0h-.61v.634h.61v-.635Z" fill="#313131"/><path d="M20.942 20.53h-.61v.634h.61v-.635Zm1.83 0h-.61v.634h.61v-.635Zm1.626 0h-.61v.634h.61v-.635Zm-11.996.634h-.61v.635h.61v-.635Zm2.237 0h-.61v.635h.61v-.635Zm2.44 0h-.61v.635h.61v-.635Z" fill="#313131"/><path d="M17.485 21.164h-.61v.635h.61v-.635Zm.61 0h-.61v.635h.61v-.635Zm.61 0h-.61v.635h.61v-.635Zm.61 0h-.61v.635h.61v-.635Zm.61 0h-.61v.635h.61v-.635Zm2.237 0h-.61v.635h.61v-.635Zm.61 0h-.61v.635h.61v-.635Zm.61 0h-.61v.635h.61v-.635Zm.61 0h-.61v.635h.61v-.635Zm-10.98.635h-.61v.635h.61v-.635Zm1.017 0h-.61v.635h.61v-.635Zm1.22 0h-.61v.635h.61v-.635Zm1.22 0h-.61v.635h.61v-.635Z" fill="#313131"/><path d="M17.079 21.799h-.61v.635h.61v-.635Z" fill="#313131"/><path d="M17.485 21.799h-.61v.635h.61v-.635Zm1.83 0h-.61v.635h.61v-.635Zm.61 0h-.61v.635h.61v-.635Zm1.627 0h-.61v.635h.61v-.635Zm.61 0h-.61v.635h.61v-.635Zm.61 0h-.61v.635h.61v-.635Zm1.22 0h-.61v.635h.61v-.635Z" fill="#313131"/><path d="M24.398 21.799h-.61v.635h.61v-.635Zm-13.216.423h-.61v.635h.61v-.635Zm.611 0h-.61v.635h.61v-.635Zm2.236 0h-.61v.635h.61v-.635Zm.61 0h-.61v.635h.61v-.635Zm3.456 0h-.61v.635h.61v-.635Zm2.44 0h-.61v.635h.61v-.635Z" fill="#313131"/><path d="M20.942 22.222h-.61v.635h.61v-.635Zm.61 0h-.61v.635h.61v-.635Zm.61 0h-.61v.635h.61v-.635Zm.61 0h-.61v.635h.61v-.635Zm.61 0h-.61v.635h.61v-.635Zm.61 0h-.61v.635h.61v-.635Zm-8.133.635h-.61v.635h.61v-.635Zm2.846 0h-.61v.635h.61v-.635Zm.61 0h-.61v.635h.61v-.635Z" fill="#313131"/><path d="M20.535 22.857h-.61v.635h.61v-.635Zm2.237 0h-.61v.635h.61v-.635Zm-6.913.635h-.61v.635h.61v-.635Zm2.846 0h-.61v.635h.61v-.635Zm.61 0h-.61v.635h.61v-.635Zm1.22 0h-.61v.635h.61v-.635Zm1.017 0h-.61v.635h.61v-.635Zm1.22 0h-.61v.635h.61v-.635Zm-6.303.635h-.61v.635h.61v-.635Zm.61 0h-.61v.635h.61v-.635Zm1.016 0h-.61v.635h.61v-.635Z" fill="#313131"/><path d="M19.315 24.127h-.61v.635h.61v-.635Zm1.22 0h-.61v.635h.61v-.635Zm2.237 0h-.61v.635h.61v-.635Zm.61 0h-.61v.635h.61v-.635Zm.61 0h-.61v.635h.61v-.635Z" fill="#313131"/><path d="M24.398 24.127h-.61v.635h.61v-.635Zm.61 0h-.61v.635h.61v-.635Zm-9.149.635h-.61v.635h.61v-.635Zm1.22 0h-.61v.635h.61v-.635Z" fill="#313131"/><path d="M17.485 24.762h-.61v.635h.61v-.635Zm1.22 0h-.61v.635h.61v-.635Zm.61 0h-.61v.635h.61v-.635Zm1.22 0h-.61v.635h.61v-.635Z" fill="#313131"/><path d="M20.942 24.762h-.61v.635h.61v-.635Zm.61 0h-.61v.635h.61v-.635Zm.61 0h-.61v.635h.61v-.635Zm.61 0h-.61v.635h.61v-.635Zm.61 0h-.61v.635h.61v-.635Zm.61 0h-.61v.635h.61v-.635Z" fill="#313131"/><path d="M24.398 24.762h-.61v.635h.61v-.635Zm.61 0h-.61v.635h.61v-.635Zm-8.539.635h-.61v.635h.61v-.635Zm.61 0h-.61v.635h.61v-.635Zm1.016 0h-.61v.635h.61v-.635Zm1.22 0h-.61v.635h.61v-.635Zm1.22 0h-.61v.635h.61v-.635Zm1.017 0h-.61v.635h.61v-.635Zm.61 0h-.61v.635h.61v-.635Z" fill="#313131"/><path d="M23.992 25.397h-.61v.635h.61v-.635Z" fill="#313131"/><path d="M24.398 25.397h-.61v.635h.61v-.635Zm.61 0h-.61v.635h.61v-.635Zm-7.929.423h-.61v.635h.61v-.635Z" fill="#313131"/><path d="M17.485 25.82h-.61v.635h.61v-.635Zm.61 0h-.61v.635h.61v-.635Zm.61 0h-.61v.635h.61v-.635Zm.61 0h-.61v.635h.61v-.635Zm1.22 0h-.61v.635h.61v-.635Z" fill="#313131"/><path d="M20.942 25.82h-.61v.635h.61v-.635Zm.61 0h-.61v.635h.61v-.635Zm1.83 0h-.61v.635h.61v-.635Zm1.016 0h-.61v.635h.61v-.635Zm-7.929.635h-.61v.635h.61v-.635Zm1.016 0h-.61v.635h.61v-.635Zm1.22 0h-.61v.635h.61v-.635Z" fill="#313131"/><path d="M21.552 26.455h-.61v.635h.61v-.635Zm.61 0h-.61v.635h.61v-.635Zm.61 0h-.61v.635h.61v-.635Zm.61 0h-.61v.635h.61v-.635Zm.61 0h-.61v.635h.61v-.635Z" fill="#313131"/><path d="M24.398 26.455h-.61v.635h.61v-.635Zm-8.539.635h-.61v.635h.61v-.635Zm1.22 0h-.61v.635h.61v-.635Zm1.016 0h-.61v.635h.61v-.635Zm.61 0h-.61v.635h.61v-.635Zm1.22 0h-.61v.635h.61v-.635Zm4.067 0h-.61v.635h.61v-.635Z" fill="#313131"/><path d="M24.398 27.09h-.61v.635h.61v-.635Zm.61 0h-.61v.635h.61v-.635ZM14.029 12.698h-3.456v4.233h4.066v-4.233h-.61Zm0 3.598h-2.847v-2.963h2.847v2.963Zm10.369-3.598h-3.456v4.233h4.066v-4.233h-.61Zm0 3.598h-2.846v-2.963h2.846v2.963Zm-10.369 7.196h-3.456v4.233h4.066v-4.233h-.61Zm0 3.598h-2.847v-2.963h2.847v2.963Z" fill="#313131"/><path d="M13.622 13.968h-1.83v1.905h1.83v-1.905Zm10.37 0h-1.83v1.905h1.83v-1.905Zm-10.37 10.794h-1.83v1.905h1.83v-1.905Zm27.974-6.796c.203 0 .39.054.56.16a.89.89 0 0 1 .384.448l2.352 5.376-.352.16 2.4-5.52c.181-.426.464-.629.848-.608.267 0 .48.086.64.256a.8.8 0 0 1 .256.608.686.686 0 0 1-.048.24 1.593 1.593 0 0 1-.08.24l-2.992 6.592c-.17.384-.443.587-.816.608a.901.901 0 0 1-.592-.112 1.017 1.017 0 0 1-.416-.496l-2.976-6.592a10.49 10.49 0 0 1-.08-.208 1.263 1.263 0 0 1-.032-.304c0-.192.085-.378.256-.56.17-.192.4-.288.688-.288Zm12.554 8.72c-.907 0-1.696-.186-2.368-.56a4.05 4.05 0 0 1-1.536-1.552c-.352-.65-.528-1.386-.528-2.208 0-.96.192-1.776.576-2.448.395-.682.907-1.205 1.536-1.568a3.944 3.944 0 0 1 2-.544c.544 0 1.056.112 1.536.336.49.224.923.534 1.296.928.373.384.667.832.88 1.344.224.512.336 1.056.336 1.632a.821.821 0 0 1-.304.624c-.192.16-.416.24-.672.24H50.79l-.48-1.6h5.872l-.352.32v-.432a1.432 1.432 0 0 0-.336-.832 1.97 1.97 0 0 0-.736-.576 1.986 1.986 0 0 0-.928-.224c-.32 0-.618.043-.896.128-.277.086-.517.23-.72.432-.203.203-.362.475-.48.816-.117.342-.176.774-.176 1.296 0 .576.117 1.067.352 1.472.246.395.555.699.928.912.384.203.79.304 1.216.304.395 0 .71-.032.944-.096.235-.064.422-.138.56-.224a6.9 6.9 0 0 1 .4-.24 1.22 1.22 0 0 1 .544-.144c.235 0 .427.08.576.24.16.16.24.347.24.56 0 .288-.15.55-.448.784-.277.235-.666.443-1.168.624a4.785 4.785 0 0 1-1.552.256Zm6.366-.16a.933.933 0 0 1-.688-.272.987.987 0 0 1-.272-.704v-6.608c0-.277.09-.506.272-.688a.906.906 0 0 1 .688-.288c.277 0 .506.096.688.288a.935.935 0 0 1 .272.688v1.504l-.112-1.072c.117-.256.266-.48.448-.672.192-.202.405-.368.64-.496.234-.138.485-.24.752-.304.266-.064.533-.096.8-.096.32 0 .586.091.8.272.224.182.336.395.336.64 0 .352-.091.608-.272.768a.912.912 0 0 1-.592.224c-.203 0-.39-.037-.56-.112a1.378 1.378 0 0 0-1.152.032 1.614 1.614 0 0 0-.544.416c-.16.192-.294.432-.4.72a3.042 3.042 0 0 0-.144.992v3.792a.987.987 0 0 1-.272.704.932.932 0 0 1-.688.272Zm7.785-.976c0 .278-.09.512-.272.704a.932.932 0 0 1-.688.272.933.933 0 0 1-.688-.272.987.987 0 0 1-.272-.704v-6.608c0-.277.09-.506.272-.688a.906.906 0 0 1 .688-.288c.278 0 .507.096.688.288a.935.935 0 0 1 .272.688v6.608Zm-.976-8.624c-.362 0-.618-.058-.768-.176-.15-.117-.224-.325-.224-.624v-.304c0-.309.08-.517.24-.624.17-.117.427-.176.768-.176.374 0 .635.059.784.176.15.118.224.326.224.624v.304c0 .31-.08.523-.24.64-.16.107-.421.16-.784.16Zm7.35-2.24c.234 0 .463.032.687.096.224.064.411.171.56.32.15.139.224.326.224.56 0 .267-.08.48-.24.64a.723.723 0 0 1-.528.224c-.096 0-.24-.021-.432-.064a2.086 2.086 0 0 0-.56-.08c-.266 0-.474.059-.624.176a.92.92 0 0 0-.288.416 1.22 1.22 0 0 0-.08.4v8.176c0 .278-.09.512-.272.704a.933.933 0 0 1-.688.272.932.932 0 0 1-.688-.272.987.987 0 0 1-.272-.704v-8.16c0-.757.267-1.397.8-1.92.534-.522 1.334-.784 2.4-.784Zm.175 3.44a.87.87 0 0 1 .64.256c.171.16.256.368.256.624s-.085.47-.256.64a.9.9 0 0 1-.64.24h-4.24a.9.9 0 0 1-.64-.24.868.868 0 0 1-.256-.64c0-.256.086-.464.256-.624a.868.868 0 0 1 .64-.256h4.24Zm8.76-.16c.278 0 .507.096.689.288a.935.935 0 0 1 .272.688v6.8c0 .982-.187 1.76-.56 2.336a3.083 3.083 0 0 1-1.472 1.264c-.619.256-1.312.384-2.08.384a7.93 7.93 0 0 1-1.088-.08 3.673 3.673 0 0 1-.944-.24c-.32-.138-.544-.314-.672-.528a.782.782 0 0 1-.064-.656c.096-.309.25-.522.464-.64a.818.818 0 0 1 .672-.032c.17.054.394.134.672.24.277.118.597.176.96.176.49 0 .896-.069 1.216-.208a1.34 1.34 0 0 0 .736-.672c.17-.309.256-.736.256-1.28v-1.072l.336.384a2.84 2.84 0 0 1-.688.88 2.76 2.76 0 0 1-.96.512 4.27 4.27 0 0 1-1.28.176c-.566 0-1.062-.128-1.488-.384a2.755 2.755 0 0 1-.976-1.088c-.235-.469-.352-1.002-.352-1.6v-4.672c0-.277.09-.506.272-.688a.906.906 0 0 1 .688-.288c.277 0 .506.096.688.288a.935.935 0 0 1 .272.688v4.096c0 .694.15 1.184.448 1.472.31.278.736.416 1.28.416.373 0 .688-.069.944-.208.256-.149.453-.362.592-.64.138-.288.208-.634.208-1.04v-4.096c0-.277.09-.506.272-.688a.906.906 0 0 1 .688-.288Zm3.887 8.544c-.309 0-.549-.08-.72-.24-.16-.17-.24-.41-.24-.72v-.272c0-.309.08-.544.24-.704.171-.17.411-.256.72-.256h.208c.31 0 .544.086.704.256.171.16.256.395.256.704v.272c0 .31-.085.55-.256.72-.16.16-.394.24-.704.24h-.208Zm10.145-11.824c.277 0 .506.091.688.272a.955.955 0 0 1 .272.704v9.888c0 .278-.09.512-.272.704a.933.933 0 0 1-.688.272.932.932 0 0 1-.688-.272.987.987 0 0 1-.272-.704v-.784l.352.144c0 .139-.075.31-.224.512-.15.192-.352.384-.608.576-.256.192-.56.358-.912.496a3.166 3.166 0 0 1-1.12.192 3.697 3.697 0 0 1-2-.56 4.131 4.131 0 0 1-1.424-1.568c-.342-.672-.512-1.44-.512-2.304 0-.874.17-1.642.512-2.304.352-.672.821-1.194 1.408-1.568a3.489 3.489 0 0 1 1.952-.576 3.696 3.696 0 0 1 2.256.736c.288.214.506.432.656.656.16.214.24.395.24.544l-.576.208v-4.288c0-.277.09-.506.272-.688a.906.906 0 0 1 .688-.288Zm-3.232 10.24c.47 0 .88-.117 1.232-.352a2.32 2.32 0 0 0 .816-.96 3 3 0 0 0 .304-1.36c0-.512-.102-.97-.304-1.376a2.319 2.319 0 0 0-.816-.96 2.169 2.169 0 0 0-1.232-.352 2.14 2.14 0 0 0-1.216.352c-.352.235-.63.555-.832.96a3.176 3.176 0 0 0-.288 1.376c0 .502.096.955.288 1.36.202.406.48.726.832.96.352.235.757.352 1.216.352Zm14.575-2.672c0 .875-.198 1.648-.592 2.32a4.136 4.136 0 0 1-1.568 1.552c-.651.374-1.382.56-2.192.56a4.411 4.411 0 0 1-2.208-.56 4.282 4.282 0 0 1-1.568-1.552c-.384-.672-.576-1.445-.576-2.32 0-.874.192-1.642.576-2.304a4.245 4.245 0 0 1 1.568-1.568 4.315 4.315 0 0 1 2.208-.576c.81 0 1.541.192 2.192.576a4.103 4.103 0 0 1 1.568 1.568c.394.662.592 1.43.592 2.304Zm-1.92 0c0-.544-.112-1.013-.336-1.408a2.358 2.358 0 0 0-.88-.944 2.268 2.268 0 0 0-1.216-.336c-.448 0-.859.112-1.232.336a2.505 2.505 0 0 0-.88.944c-.214.395-.32.864-.32 1.408 0 .534.106 1.003.32 1.408.224.395.517.704.88.928.373.224.784.336 1.232.336.448 0 .853-.112 1.216-.336.373-.224.666-.533.88-.928.224-.405.336-.874.336-1.408Zm7.152-4.448a3.511 3.511 0 0 1 2.192.736c.277.214.491.432.64.656.16.214.24.395.24.544l-.416.208v-1.168c0-.277.091-.506.272-.688a.906.906 0 0 1 .688-.288c.277 0 .507.091.688.272a.954.954 0 0 1 .272.704v7.12c0 .928-.203 1.67-.608 2.224a3.28 3.28 0 0 1-1.568 1.216 5.673 5.673 0 0 1-2.096.384 5.54 5.54 0 0 1-.832-.08 12.225 12.225 0 0 1-.976-.192 5.502 5.502 0 0 1-.704-.208c-.32-.138-.544-.314-.672-.528a.782.782 0 0 1-.064-.656c.096-.309.251-.522.464-.64a.818.818 0 0 1 .672-.032c.107.032.283.096.528.192.245.096.512.182.8.256.299.086.56.128.784.128.8 0 1.392-.16 1.776-.48.384-.32.576-.762.576-1.328v-1.392l.192.144c0 .139-.075.31-.224.512a2.787 2.787 0 0 1-.592.576 3.646 3.646 0 0 1-.88.496 3.072 3.072 0 0 1-1.088.192 3.83 3.83 0 0 1-2.048-.56 4.087 4.087 0 0 1-1.44-1.568c-.352-.672-.528-1.44-.528-2.304 0-.874.176-1.642.528-2.304a3.988 3.988 0 0 1 1.424-1.568 3.62 3.62 0 0 1 2-.576Zm.304 1.76c-.48 0-.901.118-1.264.352a2.39 2.39 0 0 0-.848.96 3.03 3.03 0 0 0-.304 1.376c0 .502.101.955.304 1.36.203.406.485.726.848.96.363.235.784.352 1.264.352.491 0 .917-.117 1.28-.352.363-.234.645-.554.848-.96.203-.405.304-.858.304-1.36 0-.512-.101-.97-.304-1.376a2.39 2.39 0 0 0-.848-.96c-.363-.234-.789-.352-1.28-.352Z" fill="#313131"/></svg>