<svg width="300" height="199" viewBox="0 0 300 199" fill="none" xmlns="http://www.w3.org/2000/svg"><path d="m259.923 102.61-48.682-16.6a2.369 2.369 0 0 1-1.477-3.005L232.7 15.737a2.368 2.368 0 0 1 3.006-1.477l48.682 16.599a2.368 2.368 0 0 1 1.477 3.006l-22.936 67.267a2.369 2.369 0 0 1-3.006 1.478Z" fill="#FDD000"/><path d="M281.208 34.204 236.179 18.85l-21.757 63.811 45.029 15.354 21.757-63.811Z" fill="#fff"/><path d="m255.785 71.082-27.337-9.321-.883 2.59 27.337 9.32.883-2.59Zm1.996 7.765-31.497-10.74-.883 2.59 31.497 10.74.883-2.59Zm-18.952.621-14.708-5.015-.883 2.59 14.708 5.015.883-2.59Z" fill="#C8CBD5"/><path d="m262.387 46.078-5.525-1.884 1.883-5.525-7.51-2.56-1.884 5.524-5.525-1.883-2.56 7.51 5.524 1.884-1.884 5.525 7.511 2.56 1.884-5.524 5.525 1.884 2.561-7.51Z" fill="#969696"/><path d="m270.675 30.657-23.99-8.18 2.016-5.91a1.708 1.708 0 0 1 2.168-1.066l20.756 7.077a1.709 1.709 0 0 1 1.066 2.168l-2.016 5.911Z" fill="#313131"/><path d="M18.745 198.92H263.88v-.221l21.895.221c17.083-15.01 21.188-65.606-1.182-90.84-13.228-17.263-21.264-20.558-28.625-24.404-3.383-1.765-6.838-3.785-10.312-7.233-12.743-12.967 2.61-60.27-40.865-74.102-44.111-12.402-89.779 28.49-108.906 29.109-10.017 1.03-18.988-4.763-25.287-6.151-28.648-6.197-76.18 41.026-56.056 121.434 1.207 4.807 2.027 7.685 2.072 10.502.225 13.211-17.728 23.758 2.13 41.685Z" fill="#F2F2F2"/><path d="M247.923 132.755c-4.362-4.053-9.472-4.506-13.423-3.232-2.823.91-4.809 4.383-4.523 7.905a7.643 7.643 0 0 0 1.108 3.42c.34.55.752 1.061 1.234 1.523 1.48 1.418 3.54 2.323 6.127 2.69 1.28.181 2.46-.739 2.636-2.055.176-1.316-.718-2.53-1.998-2.711-.082-.012-.166-.024-.249-.039-1.875-.304-4.024-1.117-4.195-3.23-.117-1.435.748-2.748 1.261-2.913 1.723-.556 7.686-1.727 12.101 6.533 3.944 7.378-2.434 16.275-2.523 16.396-.778 1.058-.575 2.564.453 3.366.423.33.919.489 1.413.489.706 0 1.404-.327 1.864-.952.256-.348 4.804-6.626 4.777-14.023-.01-2.466-.528-5.057-1.884-7.593-1.251-2.34-2.67-4.172-4.179-5.574Z" fill="#F5BC6C"/><path d="m242.58 176.742-13.748-.335s3.511 16.335 10.744 14.779l-2.856 4.496s-3.756-.173-4.765 2.478l7.848-.288 4.07-5.744a5.906 5.906 0 0 0 .952-4.611l-2.245-10.775Zm-54.113-3.659c-2.178 2.375-.66 10.52-.66 10.52s4.027 0 4.29-5.091l12.278-1.221-5.677-8.077s-8.053 1.493-10.231 3.869Z" fill="#B3664C"/><path d="M254.254 173.379a8.511 8.511 0 0 0-3.212.653s1.131-5.719-.251-11.498c-.807-3.378-2.472-6.776-5.722-9.067a34.86 34.86 0 0 0-3.045-1.923c-2.289-1.281-4.575-2.195-6.853-2.787-5.044-1.311-10.314-1.033-15.183.669a27.045 27.045 0 0 0-4.59 2.098l-.726.416-.047-5.186a8.114 8.114 0 0 0-.026-1.967c-.186-1.386-.721-2.686-1.529-3.839.07-1.264-.017-3.552-.993-6.531 0 0-2.095.54-3.8 2.717-1.708-.752-3.66-1.178-5.734-1.178l-.127.001c-1.451.012-2.84.233-4.126.627-1.904-3.495-5.004-4.293-5.004-4.293-1.535 4.683-1.04 7.788-.942 8.217l.001.001c-1.021 1.294-1.683 2.796-1.874 4.411l-.057-.005s-1.089 8.043.495 12.421c1.585 4.378 10.693 18.835 11.634 25.248l.025.173c.895 6.324-.177 10.825-.569 11.027-.397.204-3.862-.102-4.357 4.377h7.03s2.327-3.081 4.788-7.313c2.082-3.576 4.26-7.975 5.212-12.031 0 0 14.653 1.935 21.387 0 0 0 5.253 6.703 10.698 5.072 1.043-.312 2.092-.929 3.112-1.956a2.154 2.154 0 0 1 2.378-.469s-5.693 10.012.643 10.894c0 0 2.838-7.194 3.499-10.384.373-1.809.451-4.205.448-5.942-.003-1.466-1.157-2.663-2.583-2.653Z" fill="#F5BC6C"/><path d="M232.297 185.715c-1.629-2.958-2.475-6.074-2.484-6.105l-.214.061c.008.031.861 3.171 2.502 6.153 1.998 3.633 4.333 5.527 6.792 5.527.232 0 .465-.016.699-.05l-.031-.227c-3.303.478-5.774-2.65-7.264-5.359Zm-39.116-53.463c-1.907 5.485-.982 8.183-.941 8.295l.209-.079c-.01-.026-.934-2.743.942-8.139l-.21-.077Zm10.224 17.909a2.11 2.11 0 0 1-2.998-.058l-.092.095a2.252 2.252 0 0 0 1.62.694c.562 0 1.124-.213 1.568-.642l.032-.031v-2.46h-.13v2.402Z" fill="#1D1D1B"/><path d="M203.535 150.161v-2.402h-.13v2.46l.032.032a2.255 2.255 0 0 0 1.568.641c.586 0 1.171-.232 1.62-.694l-.092-.095a2.108 2.108 0 0 1-2.998.058Zm6.212-5.489c-.75.747-1.486 1.087-2.187 1.01-.965-.105-1.545-.979-1.551-.988a.128.128 0 0 0-.181-.037.136.136 0 0 0-.036.185c.026.041.651.986 1.738 1.106.075.009.15.013.225.013.712 0 1.442-.368 2.173-1.096a.136.136 0 0 0 .003-.19.128.128 0 0 0-.184-.003Zm-8.437.022c-.006.009-.587.883-1.552.988-.701.076-1.436-.263-2.187-1.01a.128.128 0 0 0-.184.003.137.137 0 0 0 .003.19c.732.728 1.462 1.096 2.173 1.096.076 0 .151-.004.226-.013 1.087-.119 1.711-1.065 1.737-1.105a.136.136 0 0 0-.036-.186.127.127 0 0 0-.18.037Z" fill="#1D1D1B"/><path d="M204.639 146.883h-2.337c-.297 0-.453.363-.253.589l.758.854a.881.881 0 0 0 1.326 0l.758-.854c.201-.226.045-.589-.252-.589Z" fill="#1D1D1B"/><path d="M212.077 134.417s-2.095.54-3.801 2.716c-1.707-.751-3.659-1.177-5.733-1.177l-.127.001a10.752 10.752 0 0 0 1.335 2.06c.272.331.579.655.974.805.396.149.839.106 1.239.244.512.176.892.629 1.166 1.107.273.48.469 1.006.768 1.47.871 1.355 2.461 1.99 3.968 2.475.895.287 1.801.553 2.733.669-.186-1.386-.721-2.686-1.53-3.84.07-1.263-.016-3.551-.992-6.53Zm7.91 15.01c.028.54.121 1.075.267 1.594a7.914 7.914 0 0 0 1.764 3.164c.818.895 1.847 1.592 2.992 1.952.14.044.283.083.427.118 2.333.55 5.065-.062 6.93 1.483 1.2.994 1.763 2.711 3.12 3.462 1.285.713 2.966.289 4.049-.72 1.082-1.008 1.647-2.484 1.925-3.96.277-1.474.301-2.985.495-4.473.023-.166.046-.334.067-.501-2.289-1.281-4.574-2.195-6.852-2.788-5.044-1.31-10.315-1.033-15.184.669Zm27.935-16.674a4.05 4.05 0 0 0-.144.216c-.542.862-.778 1.996-.352 2.922.264.574.747 1.008 1.079 1.542.374.601.545 1.307.757 1.986.478 1.523 1.186 2.958 1.89 4.386.257.519.523 1.054.953 1.435.519.46 1.185.63 1.88.68-.01-2.466-.528-5.057-1.883-7.592-1.251-2.341-2.67-4.173-4.18-5.575Zm-8.838 7.54a5.62 5.62 0 0 1-.25-.039 2.794 2.794 0 0 1-.7.055c-.595-.026-1.174-.198-1.763-.285-1.352-.2-2.723.046-4.067.292-.418.077-.928.189-1.219.53.34.55.752 1.061 1.234 1.524 1.48 1.418 3.54 2.322 6.127 2.689 1.28.181 2.46-.739 2.636-2.055.176-1.316-.718-2.53-1.998-2.711Zm15.17 33.086a8.492 8.492 0 0 0-3.212.653s1.131-5.719-.251-11.499l-.23.113-1.953.944c-.752.363-1.55.768-1.961 1.511-.229.416-.314.9-.352 1.377-.21 2.598.802 5.29.025 7.771-.396 1.26-1.238 2.392-1.311 3.714-.104 1.834 1.29 3.395 1.654 5.195.049.243.079.485.095.731 1.042-.312 2.091-.929 3.112-1.957a2.153 2.153 0 0 1 2.377-.468s-5.693 10.011.643 10.893c0 0 2.839-7.194 3.499-10.384.373-1.808.451-4.204.448-5.942-.004-1.466-1.158-2.663-2.583-2.652Z" fill="#B3664C"/><path d="M254.253 173.266a8.603 8.603 0 0 0-3.065.586c.14-.824.619-4.037.282-7.783-.359-4.007-1.751-9.462-6.339-12.695-3.201-2.256-6.543-3.846-9.933-4.727-6.666-1.731-13.717-.745-19.857 2.779l-2.605 1.559.112.198 2.604-1.558c6.088-3.494 13.081-4.473 19.691-2.756 3.365.874 6.683 2.453 9.862 4.694 4.515 3.182 5.887 8.565 6.243 12.522.387 4.299-.308 7.89-.316 7.926l-.041.209.192-.08a8.38 8.38 0 0 1 3.171-.645c.653 0 1.27.255 1.737.73a2.57 2.57 0 0 1 .734 1.808c.003 1.702-.072 4.11-.446 5.918-.612 2.96-3.143 9.471-3.46 10.282-1.205-.187-2.032-.738-2.458-1.638-1.428-3.012 1.947-9.011 1.981-9.072l.065-.113-.118-.05a2.256 2.256 0 0 0-2.498.492c-1.543 1.553-3.287 2.283-5.179 2.168-4.497-.272-8.428-5.223-8.468-5.273l-.046-.059-.07.02c-6.634 1.907-21.196.016-21.342-.003l-.099-.013-.024.1c-1.981 8.441-9.386 18.502-9.947 19.256h-6.849c.45-3.581 2.839-3.925 3.866-4.073.203-.029.338-.048.415-.088.293-.151.652-1.595.834-3.361.177-1.709.281-4.477-.229-7.958-.609-4.153-4.601-11.614-7.809-17.609-1.755-3.281-3.27-6.113-3.831-7.662-1.458-4.029-.622-11.293-.502-12.258l.058.004.012-.109c.595-5.052 5.737-8.862 11.962-8.862 6.626 0 12.017 4.401 12.017 9.811h.223c0-5.536-5.491-10.04-12.24-10.04-3.058 0-5.986.929-8.243 2.617-2.216 1.657-3.607 3.904-3.926 6.338l-.056-.004-.014.107c-.011.08-1.075 8.122.501 12.476.566 1.564 2.085 4.404 3.844 7.692 3.199 5.979 7.18 13.42 7.784 17.534.936 6.383-.173 10.87-.485 11.079-.044.023-.191.044-.345.066-.997.144-3.644.524-4.072 4.401l-.014.128h7.209l.033-.044c.08-.105 7.9-10.529 9.997-19.288 1.296.163 14.846 1.807 21.262.004.463.565 4.254 5.038 8.58 5.3 1.958.118 3.759-.633 5.348-2.233a2.04 2.04 0 0 1 2.138-.491c-.486.886-3.308 6.251-1.924 9.17.472.995 1.385 1.593 2.715 1.778l.085.012.033-.083c.028-.072 2.849-7.24 3.504-10.404.378-1.827.454-4.253.45-5.966a2.799 2.799 0 0 0-.8-1.97 2.615 2.615 0 0 0-1.894-.796Z" fill="#1D1D1B"/><path d="M207.513 190.161c-.428.027-.993.094-1.159-.314-.059-.146-.039-.311-.022-.467.154-1.433-.034-2.931-.713-4.191-.644-1.194-1.76-2.146-3.051-2.431.895 6.324-.177 10.825-.569 11.027-.397.203-3.862-.102-4.357 4.377h7.03s2.327-3.081 4.788-7.313c-.561-.458-1.23-.733-1.947-.688Z" fill="#B3664C"/><path d="M190.11 149.939c-.329 4.261 1.006 8.209 1.006 8.209 11.3 9.149 20.402-2.785 20.402-2.785-16.969 7.549-21.408-5.424-21.408-5.424Z" fill="#B58748" opacity=".3"/><path d="M119.164 70.594c-5.393-5.354-12.595.819-16.204 1.208-3.609.39-9.493-1.675-14.317 3.4-6.783 7.136-5.925 14.365-8.91 16.782-13.242 10.726-4.293 28.802 9.777 26.09 6.634-3.742 24.76 4.363 35.684-6.011-.811-12.726-8.375-20.606-4.785-27.688 0 0 4.714-7.866-1.245-13.781Z" fill="#49263E"/><path d="M113.994 105.441c1.59-6.14.985-18.12.985-18.12l-19.672-3.409-3.316 35.407 14.812 1.467 1.01-10.793c7.284-.022 5.153-4.476 5.046-7.587l.853-.115c.003.022.166 1.323.282 3.15Z" fill="#FE9F73"/><path d="M110.6 98.612c.102.543-1.863 1.461-1.726 1.772 1.208-.12 2.054-1.767 2.081-1.868-2.484-1.494-2.61-3.98-1.126-5.856.033-1.212-3.224 3.468.771 5.952Zm-2.787 11.38s-7.097-1.138-11.21-4.409c0 0 5.393 6.464 10.803 8.75l.407-4.341Z" fill="#F07162"/><path d="M107.708 91.84c-.333-3.727-8.195-.133-6.418.407.761-.248 3.182-3.046 6.418-.406Zm6.794.246c.98-2.234-5.387-.136-3.776.493.538-.101 2.107-1.723 3.776-.493Zm-.89 2.944c-.001-1.088-1.418-1.034-1.503-.15.001 1.09 1.417 1.035 1.503.15Zm-6.656-.659c-.001-1.088-1.418-1.033-1.504-.149.002 1.089 1.418 1.034 1.504.15Z" fill="#49263E"/><path d="M97.085 96.739c.38-5.516-7.532-6.772-8.429-.834-.38 5.516 7.532 6.772 8.429.834Z" fill="#FE9F73"/><path d="M92.308 98.965c-2.817-1.826-.365-5.115 1.929-2.325.062-3.23-4.006-2.673-2.97-2.274.56-.243 2.396.201 2.54 1.4-2.239-1.905-4.856 2.154-1.499 3.2Z" fill="#F07162"/><path d="M114.979 87.324c-1.182-8.93-16.683-12.358-19.673-3.409 13.386 4.535 10.507 2.621 19.673 3.409Z" fill="#FE9F73"/><path d="M102.713 84.647c6.89 1.925 12.796-2.975 12.796-2.975l-.961-4.723c-10.402-.104-7.827-1.775-21.158 2.534-5.047 14.937 4.145 17.454 9.323 5.164Z" fill="#49263E"/><path d="M107.021 96.519c-.215-.022-.247.322-.032.343.216.022.248-.322.032-.343Zm-1.073.511c-.215-.022-.247.322-.032.344.215.02.247-.323.032-.344Zm-1.727-1.408c-.215-.02-.247.323-.032.344.215.022.247-.322.032-.344Zm-1.697 1.084c-.216-.022-.248.322-.032.343.215.022.247-.322.032-.343Zm-1.499-1.839c-.215-.021-.247.323-.032.344.216.022.247-.322.032-.344Zm-.834 2.415c-.215-.021-.247.323-.032.344.216.021.247-.323.032-.344Zm10.273-1.438c-.215-.022-.247.322-.032.344.216.02.247-.323.032-.344Zm1.111 1.516c-.215-.022-.247.322-.032.343.216.022.248-.322.032-.344Zm1.564-.462c-.216-.021-.248.323-.033.344.216.021.248-.322.033-.344Zm-.115 2.437c-.215-.021-.247.323-.032.344.216.022.247-.322.032-.344Zm1.263-1.314c-.216-.021-.248.323-.033.344.216.021.248-.323.033-.344Zm-.064-2.161c-.216-.021-.248.323-.032.344.215.021.247-.322.032-.344Zm-9.579 2.15c-.216-.02-.247.323-.032.345.215.021.247-.323.032-.344Z" fill="#EA5942"/><path d="M110.026 102.434c-.073-.037-4.943-1.558-4.943-1.558.243 3.469 3.545 3.623 4.943 1.558Z" fill="#FBFDFC"/><path d="m184.517 182.997.03.003c-.044.046-.052.041-.03-.003l-11.332-1.12 1.693 16.099c6.085-.659 20.271 2.263 27.141-6.192.853-1.389-.414-1.442-.413-1.458 3.422-3.693-.267-3.501-.267-3.501 3.348-3.033-.16-3.544-.16-3.544 4.127-5.885-3.839-2.024-6.631-.782-5.932 3.424-5.072-.675-3.537-4.707-.146-3.691-6.193 4.602-6.494 5.205Z" fill="#FE9F73"/><path d="m184.547 182.999-.03-.003c-.022.044-.014.049.03.003Z" fill="#FE9F73"/><path d="M197.185 185.379c-.595.189-.299.545-.106.558 4.511-2.096 6.988-4.772.106-.558Zm.649 2.942c-.963.179-.853.589-.522.66 4.321-1.407 6.861-3.949.522-.66Zm.481 3.533c-.785.174-.387.555-.218.572 3.833-1.41 6.113-3.862.218-.572Z" fill="#F07162"/><path d="M191.721 136.446c-1.695-1.321-3.258-4.314-3.258-4.314-.231-.011-4.003 5.285-4.522 6.32-.519 1.034 2.207 1.662 2.207 1.662s7.269-2.348 5.573-3.668Zm-4.475 5.502-.91.727s1.067 1.203 1.136 1.258l-.226-1.985Z" fill="#ED7163"/><path d="M188.928 144.254c.904-1.114-.613-3.458-.613-3.458-2.116.748-2.16 3.768.613 3.458Zm-.212-3.432s1.209 1.051 1.284 1.097l-.473-1.939-.811.842Z" fill="#ED7163"/><path d="M191.484 142.05c.757-1.224-1.041-3.348-1.041-3.348-2.004 1.022-1.67 4.023 1.041 3.348Z" fill="#ED7163"/><path d="M176.189 139.198c-.03.241-8.805 7.792-9.278 8.227l7.855 6.526 8.313-8.822-6.89-5.931Zm15.489-7.832.013.013c.599-.785.091-.145-.013-.013Z" fill="#FE9F73"/><path d="M189.572 133.051c2.467-2.946 3.749.768 6.249 1.64 3.379.863-1.205-3.96-3.153-5.948-.631-.493-.393-1.047-2.077-.267-8.653 5.252-4.687-6.108-17.367 14.604l4.923 6.037c3.098-3.076 13.012-9.101 16.61-12.89-1.448-3.648-7.766 1.995-7.818 1.861-.109-2.146 1.028-3.793 2.633-5.037Z" fill="#FE9F73"/><path d="m189.275 136.438-2.366 1.617.041.064 2.367-1.617-.042-.064Z" fill="#000"/><path d="M187.19 136.859c-.484.707-.206 1.684-.194 1.725l.072-.022c-.002-.01-.28-.983.183-1.659l-.061-.044Z" fill="#000"/><path d="M146.989 172.834c10.314-1.709 37.475-25.217 37.475-25.217-2.406-8.975-5.844-15.386-5.844-15.386l-33.35 17.096c-14.44-4.701-40.36-31.88-40.36-31.88l-4.679 31.88s36.444 25.217 46.758 23.507Z" fill="#fff"/><path d="M117.251 182.807c7.992-20.946 3.216-35.286-5.143-56.649-5.666-12.843-15.06-13.829-23.36-9.501-21.152 10.784-27.052 53.863-28.611 82.345h51.328c1.609-5.355 3.672-10.887 5.786-16.195Zm-6.41-59.244h.004-.004Z" fill="#fff"/><path d="M112.656 198.317c.972.301.868.449.916.358 2.026.013 68.837.32 68.85.324l-.077-1.288-1.018-16.869c-.116-.069-45.201-1.809-51.265-3.731-1.863-1.05-14.47-40.504-18.812-53.599-.291.037-.401.049-.409.05l-24.487 3.001c2.036 15.106 10.688 62.645 26.302 71.754Z" fill="#fff"/><path d="M110.356 117.692c1.738 4.469 1.765 8.084 1.765 8.084l-.883-1.444c-.191-2.364-1.398-6.64-1.398-6.64h.516Z" fill="#2D699C"/><path d="m127.351 181.122 2.718-4.065c-4.324-8.858-8.483-26.585-12.774-38.86-3.76-10.628-9.389-28.889-26.653-22.628l.175.38c24.677-8.996 26.304 32.219 38.777 61.076l-2.58 3.858.337.239Zm-13.507 17.42.191-.372c-10.2-.27-21.617-42.563-24.476-54.181l-.402.083c2.202 8.879 13.885 54.037 24.687 54.47Z" fill="#000"/><path d="M151.325 179.044c-11.071-.653-21.361-2.195-21.464-2.211l-.059.417c.102.016 10.41 1.561 21.499 2.214l.024-.42Zm-63.327-31.045-.26.325 3.282 2.786.26-.324-3.282-2.787Zm-10.945-20.678c-8.61 12.4-14.756 39.535-16.15 58.543l.428.032c.874-11.262 4.951-41.383 16.078-58.329l-.356-.246Z" fill="#000"/><path d="m113.712 102.294-.852.115c.004.028.014 2.645.092 5.433.475-.714.831-1.58 1.042-2.398a56.24 56.24 0 0 0-.282-3.15Z" fill="#FE9F73"/><path d="m92.83 95.218-.693-.52c-.297.353-2.14 3.63-.123 6.987 3.539 6.905 22.154 28.039 22.091 7.923a52.703 52.703 0 0 0-.111-4.164c-1.388 2.526-.064 9.508-2.578 11.34-4.395 3.252-23.585-15.71-18.585-21.565v-.001Z" fill="#2D699C"/><path d="M93.227 95.216c-.075-1.283-1.864-1.228-1.894 0 .075 1.283 1.864 1.228 1.894 0Z" fill="#49263E"/><path d="m116.24 191.84-.317.277 3.863 4.675.317-.277-3.863-4.675Zm.017-3.813-.316.276 3.864 4.675.316-.276-3.864-4.675Z" fill="#000"/><path d="m191.678 131.37.013.013c.202-.264.277-.367.286-.382-.014.01-.234.288-.299.369Z" fill="#FE9F73"/><path d="m191.678 131.37.013.013c.202-.264.277-.367.286-.382-.014.01-.234.288-.299.369Zm-2.186 4.945.948 3.515c1.559-1.157 2.978-2.234 4.063-3.128.889-.78-1.125-3.017-5.011-.387Z" fill="#FE9F73"/><path d="m191.678 131.369.013.013c.202-.264.277-.366.285-.382-.013.01-.234.288-.298.369Z" fill="#FE9F73"/><path d="M294.444 197.714H6.721v1.288h287.723v-1.288Z" fill="#4C222E"/><path d="m162.998 164.623-.237-.344c-17.072 11.369-17.786 10.578-37.369.409l-.198.369c.6.324 14.136 8.006 20.029 8.076 5.992 0 17.29-8.158 17.775-8.51Z" fill="#000"/><path d="m10.87 170.254 6.183 3.208s.173-16.397-.405-16.932c-.578-.535-4.91-18.477-10.226-21.21-5.315-2.732-6.297 11.348-6.297 11.348 9.101-15.607 10.746 23.586 10.746 23.586Z" fill="#969696"/><path d="M6.083 117.508c6.678 14.558 8.14 54.064 8.14 54.064 14.642-9.895 6.198-40.147-8.14-54.064Z" fill="#C5C5C5"/><path d="M28.174 174.108s1.994-39.997 12.046-57.338c0 .003-15.59 9.563-22.326 34.32-2.728 10.65-2.557 14.821-1.783 21.651.84 15.455 11.871 1.594 12.063 1.367Z" fill="#969696"/><path d="M39.41 150.112c2.32-1.079 7.49 14.506 7.941 15.883-.277-2.227-1.048-38.566-11.4-26.907-5.155 5.839-7.162 11.331-8.118 18.041l-2.172 18.113 9.07-.772s2.253-23.23 4.68-24.358Z" fill="#C5C5C5"/><path d="M47.383 166.093s-.01-.034-.032-.098c.012.09.022.125.032.098Z" fill="#7FC6A6"/><path d="m40.3 116.904-.161-.252c-14.379 10.818-25.86 31.08-24.677 56.068l.293-.014c-1.202-26.251 11.505-46.102 24.545-55.802Zm-34.085.54-.266.129c5.182 10.434 7.799 42.809 8.127 54.006l.293-.012c-.237-6.949-2.213-41.426-8.154-54.123Zm4.51 52.81.293-.014c-.142-2.675-1.92-38.823-11.018-23.658l.25.157c8.454-14.571 10.349 20.589 10.475 23.515Zm36.512-4.157.294-.013c-.638-13.386-3.528-48.882-18.288-15.839-1.724 4.084-2.988 20.059-3.727 24.976l.291.037c.73-4.705 1.907-20.034 3.552-24.428 15.171-35.142 17.43 6.43 17.878 15.267Z" fill="#21111D"/><path d="m35.23 152.927-1.906 3.798.26.139 1.907-3.799-.26-.138Zm.003 2.548-1.906 3.557.257.146 1.906-3.557-.257-.146Zm-21.121-25.206-.267.125 1.63 3.678.267-.126-1.63-3.677Zm.24 2.876-.257.146 1.387 2.573.257-.146-1.387-2.573Zm-9.33 3.527-.133.269 2.774 1.453.133-.269-2.774-1.453Zm1.136 1.678-.153.258 1.641 1.026.153-.258-1.64-1.026Z" fill="#21111D"/><path d="M22.502 197.794c2.45-.144 7.653.51 8.558-.782 5.469-4.614 5.864-27.765 5.869-27.773-7.207-1.12-22-1.12-29.207 0 .003.002.418 23.678 6.056 27.922.935 1.119 6.242.476 8.724.633Z" fill="#FDD000"/><path d="m33.883 172.966-8.322 9.037.213.207 8.322-9.037-.213-.207Zm-2.462 5.823-4.581 5.418.221.198 4.582-5.418-.222-.198Z" fill="#21111D"/><path d="M146.498 42.905v6.82h-6.632v8.4h6.632v6.82h8.169v-6.82h6.633v-8.4h-6.633v-6.82h-8.169Zm13.705 7.947v6.146h-6.632v6.82h-5.977v-6.82h-6.632v-6.145h6.632v-6.82h5.977v6.82h6.632Zm69.316 25.28v5.437h-5.287v6.696h5.287v5.436h6.512v-5.436h5.287V81.57h-5.287v-5.437h-6.512Zm10.925 6.335v4.9h-5.287v5.436h-4.764v-5.437h-5.287v-4.899h5.287v-5.436h4.764v5.436h5.287ZM62.94 53.927v4.629h-4.5v5.702h4.5v4.629h5.546v-4.63h4.502v-5.701h-4.502v-4.63h-5.545Zm9.304 5.394v4.171h-4.502v4.63h-4.057v-4.63h-4.502v-4.171h4.502v-4.63h4.057v4.63h4.502Zm205.908 94.182v5.575h-5.422v6.867h5.422v5.575h6.678v-5.575h5.422v-6.867h-5.422v-5.575h-6.678Zm11.204 6.496v5.024h-5.422v5.575h-4.886v-5.575h-5.422v-5.024h5.422v-5.575h4.886v5.575h5.422ZM33.59 88.523v5.575h-5.422v6.867h5.422v5.575h6.678v-5.575h5.422v-6.867h-5.422v-5.575H33.59Zm11.204 6.497v5.024h-5.422v5.575h-4.886v-5.575h-5.422V95.02h5.422v-5.575h4.886v5.575h5.422Zm209.553 20.523v3.245h-3.155v3.996h3.155v3.245h3.887v-3.245h3.155v-3.996h-3.155v-3.245h-3.887Zm6.521 3.781v2.924h-3.156v3.244h-2.843v-3.244h-3.156v-2.924h3.156v-3.245h2.843v3.245h3.156ZM162.324 97.11v3.245h-3.155v3.997h3.155v3.244h3.887v-3.244h3.156v-3.997h-3.156v-3.244h-3.887Zm6.521 3.782v2.924h-3.156v3.244h-2.843v-3.244h-3.156v-2.924h3.156v-3.245h2.843v3.245h3.156Zm33.014-76.112v3.245h-3.155v3.997h3.155v3.245h3.887v-3.245h3.156v-3.997h-3.156v-3.244h-3.887Zm6.521 3.781v2.924h-3.155v3.245h-2.844v-3.245h-3.155v-2.924h3.155v-3.244h2.844v3.244h3.155Z" fill="#313131" opacity=".5"/></svg>