<svg width="348" height="270" viewBox="0 0 348 270" fill="none" xmlns="http://www.w3.org/2000/svg"><g clip-path="url(#clip0_426_9225)"><path d="M333.409 173.147c-35.255 58.532-128.311 83.673-201.224 79.386-19.909-1.17-59.965-3.525-91.24-24.533-60.064-40.347-50.813-124.68 6.684-174.334 7.405-6.392 58.657-49.232 138.526-48.66 58.473.42 99.518 23.884 104.508 26.806 6.305 3.693 20.21 12.467 32.74 26.39 29.449 32.708 32.036 78.369 10.006 114.945Z" fill="#F2F2F2"/><path d="M173.516 69.26a.98.98 0 0 1-.482-.127c-.689-.391-1.4-.767-2.111-1.115a.979.979 0 1 1 .862-1.757c.746.366 1.491.76 2.213 1.17a.98.98 0 0 1-.482 1.829Zm-61.586 33.679-.054-.001a.98.98 0 0 1-.924-1.031 42.466 42.466 0 0 1 .604-5.174c.071-.473.493-.805.96-.805a.98.98 0 0 1 .967 1.153 40.432 40.432 0 0 0-.577 4.935.98.98 0 0 1-.976.923Zm1.79-10a.983.983 0 0 1-.936-1.268 42.357 42.357 0 0 1 1.844-4.87.982.982 0 0 1 1.294-.49.979.979 0 0 1 .49 1.294 40.259 40.259 0 0 0-1.758 4.645.979.979 0 0 1-.934.69Zm4.175-9.256a.981.981 0 0 1-.835-1.489c.9-1.476 1.904-2.91 2.981-4.266a.975.975 0 0 1 1.375-.157.979.979 0 0 1 .157 1.374 39.947 39.947 0 0 0-2.842 4.068.976.976 0 0 1-.836.47Zm6.318-7.946a.977.977 0 0 1-.686-1.677 42.61 42.61 0 0 1 3.932-3.412.978.978 0 1 1 1.19 1.554 40.834 40.834 0 0 0-3.752 3.254.972.972 0 0 1-.684.28Zm8.065-6.173a.979.979 0 0 1-.497-1.822 41.958 41.958 0 0 1 4.647-2.356.981.981 0 0 1 1.34 1.12.978.978 0 0 1-.566.677 40.24 40.24 0 0 0-4.429 2.246.971.971 0 0 1-.495.135Zm34.378-3.398a.993.993 0 0 1-.32-.053 39.867 39.867 0 0 0-4.787-1.329.978.978 0 0 1-.753-1.16c.111-.437.515-.774.97-.774.062 0 .127.006.19.02a42.598 42.598 0 0 1 5.019 1.392.978.978 0 0 1 .634 1.148c-.006.032-.017.064-.027.097a.982.982 0 0 1-.926.66Zm-25.054-.629a.979.979 0 0 1-.273-1.918 42.279 42.279 0 0 1 5.083-1.148.98.98 0 0 1 .312 1.932 40.25 40.25 0 0 0-4.846 1.094.975.975 0 0 1-.276.04Zm15.121-1.486c-.03 0-.059 0-.087-.003a40.795 40.795 0 0 0-4.967-.13h-.035a.98.98 0 0 1-.033-1.956c.144-.005.287-.01.432-.013l3.303.046c.491.027.981.06 1.471.103a.982.982 0 0 1 .865 1.2.975.975 0 0 1-.949.754Z" fill="#E3E4EA"/><path d="M175.787 81.917a.496.496 0 0 0-.551-.168l-5.717 1.918a26.247 26.247 0 0 0-7.373-4.247l-1.212-5.902a.494.494 0 0 0-.421-.392l-7.173-.935a.497.497 0 0 0-.507.27l-2.684 5.395a26.301 26.301 0 0 0-8.216 2.218l-5.033-3.32a.493.493 0 0 0-.574.022l-5.733 4.41a.495.495 0 0 0-.168.55l1.919 5.717a26.25 26.25 0 0 0-4.248 7.374l-5.902 1.212a.495.495 0 0 0-.392.42l-.934 7.173a.493.493 0 0 0 .27.507l5.395 2.684a26.269 26.269 0 0 0 2.217 8.216l-3.319 5.034a.496.496 0 0 0 .021.575l4.41 5.731c.129.168.35.235.55.168l5.716-1.918a26.25 26.25 0 0 0 7.375 4.247l1.211 5.903a.495.495 0 0 0 .422.391l7.171.935a.497.497 0 0 0 .509-.27l2.684-5.395a26.285 26.285 0 0 0 8.214-2.218l5.035 3.32a.493.493 0 0 0 .574-.022l5.733-4.41a.497.497 0 0 0 .167-.551l-1.918-5.716a26.23 26.23 0 0 0 4.247-7.374l5.904-1.212a.495.495 0 0 0 .391-.42l.934-7.172a.495.495 0 0 0-.271-.508l-5.395-2.683a26.237 26.237 0 0 0-2.216-8.217l3.318-5.034a.492.492 0 0 0-.02-.575l-4.41-5.73Z" fill="#C6C9D3"/><path d="M221.962 44.909s6.174 2.083 7.657 5.193c1.192 2.497 7.661 2.011 8.951 7.054.666 2.604 2.894 4.471 5.581 4.539 6.693.166 17.243 2.282 20.317 13.47 2.348 8.54-1.663 12.405-6.171 14.14-3.311 1.277-5.157 4.892-4.025 8.253 1.088 3.226.588 7.179-4.759 10.936-11.982 8.425-27.734-12.777-27.734-12.777l-7.732-39.546 7.915-11.262Z" fill="#333435"/><mask id="mask0_426_9225" style="mask-type:luminance" maskUnits="userSpaceOnUse" x="204" y="59" width="16" height="27"><path d="m215.035 60.665 4.592 21.777c-1.329 4.193-12.161 2.728-13.456-.08a2.58 2.58 0 0 1-.205-.916l-1.057-16.657a2.973 2.973 0 0 1 1.964-2.986l4.533-1.622c1.745-.625 3.328-1.345 3.629.484Z" fill="#fff"/></mask><g mask="url(#mask0_426_9225)"><path d="m219.005 61.502 4.59 21.776c-1.328 4.192-12.16 2.73-13.455-.08-.131-.286-.184-.601-.205-.915l-1.057-16.658a2.975 2.975 0 0 1 1.964-2.986l4.534-1.622c1.744-.623 3.328-1.344 3.629.485Z" fill="url(#paint0_linear_426_9225)"/></g><mask id="mask1_426_9225" style="mask-type:luminance" maskUnits="userSpaceOnUse" x="197" y="40" width="22" height="30"><path d="M199.48 43.39s-3.504 5.857-1.588 15.712c1.917 9.856 6.971 11.355 10.547 9.451 3.575-1.903 8.363-5.516 10.014-13.998 1.652-8.482-14.237-18.53-18.973-11.164Z" fill="#fff"/></mask><g mask="url(#mask1_426_9225)"><path d="M202.449 44.227s-3.505 5.854-1.587 15.71c2.051 10.898 6.134 12.356 10.545 9.452 3.576-1.905 8.364-5.517 10.014-14 1.653-8.481-14.236-18.53-18.972-11.162Z" fill="url(#paint1_linear_426_9225)"/></g><path d="M215.879 55.88s-4.024-13.527-13.624-6.695l-1.093 3.202s-7.843-3.392-4.194-10.422c3.648-7.03 12.066-9.592 20.152-3.661 8.083 5.932 12.281 10.79 10.929 17.45-1.354 6.658-6.089 3.697-6.089 3.697s-.319-5.069-2.571-6.258c-2.248-1.189-2.691 2.557-2.691 2.557l-.819.13Z" fill="#333435"/><mask id="mask2_426_9225" style="mask-type:luminance" maskUnits="userSpaceOnUse" x="214" y="48" width="6" height="10"><path d="M214.85 55.459s-2.109-6.942 2.083-6.632c4.193.31 1.637 6.64.494 8.921l-2.577-2.29Z" fill="#fff"/></mask><g mask="url(#mask2_426_9225)"><path d="M217.82 56.293s-2.109-6.942 2.082-6.63c4.193.31 1.638 6.638.493 8.919l-2.575-2.289Z" fill="url(#paint2_linear_426_9225)"/></g><path d="M87 20.151v26.16a7.153 7.153 0 0 0 6.794 7.144l37.663 1.891a7.15 7.15 0 0 0 7.513-7.141V21.993a7.152 7.152 0 0 0-6.804-7.143l-37.665-1.842A7.153 7.153 0 0 0 87 20.15Z" fill="#C5C5C5"/><path d="M116.313 28.952c-1.506-5.19-6.855-8.199-11.951-6.721-5.097 1.477-8.008 6.88-6.504 12.07 1.503 5.19 6.855 8.2 11.951 6.722 5.096-1.476 8.007-6.88 6.504-12.07Zm-20.044 5.81c-1.763-6.083 1.65-12.418 7.622-14.15 5.976-1.73 12.246 1.796 14.009 7.88 1.764 6.083-1.649 12.42-7.623 14.15-5.973 1.73-12.244-1.797-14.008-7.88Z" fill="#fff"/><path d="m115.914 37.116 13.693 8.59c.574.36.732 1.204.345 1.832l-.066.104c-.343.555-1.015.71-1.496.342l-13.02-9.931.544-.937Z" fill="#fff"/><path d="M252 6.028v27.09a6.028 6.028 0 0 0 5.745 6.02l33.877 1.592a6.026 6.026 0 0 0 6.31-6.021V6.028a6.029 6.029 0 0 0-6.029-6.029h-33.876A6.028 6.028 0 0 0 252 6.028Z" fill="#C5C5C5"/><path d="m277.601 27.356-3.157 1.759a69.021 69.021 0 0 1-6.322 3.046c7.692-.464 20.703-2.637 22.29-11.946.805-4.723-.18-8.331-2.927-10.72-4.259-3.71-11.809-3.576-17.402-1.803-6.337 2.013-10.998 7.906-10.183 12.871.742 4.508 5.875 7.03 14.089 6.859l3.612-.066Zm-13.329 6.728c-.438 0-.808-.004-1.101-.01a1 1 0 0 1-.976-.875 1.006 1.006 0 0 1 .73-1.102c2.6-.73 5.437-1.969 7.528-2.972-9.963-.812-11.952-5.927-12.336-8.268-.969-5.903 4.152-12.581 11.42-14.888 7.412-2.35 14.924-1.503 19.136 2.161 2.236 1.949 4.665 5.677 3.52 12.39-2.141 12.558-21.724 13.564-27.921 13.564Z" fill="#fff"/><path d="m29.064 261.109 286.857-.014" stroke="#000" stroke-width=".229" stroke-miterlimit="10" stroke-linecap="round"/><path d="M40.026 183.828a1.582 1.582 0 0 1-1.547-1.281 63.655 63.655 0 0 1-.82-5.361 1.587 1.587 0 0 1 1.312-1.743c.375 2.816.829 5.6 1.364 8.354-.104.02-.207.031-.309.031Z" fill="#EEEFF2"/><path d="M40.334 183.799a142.414 142.414 0 0 1-1.364-8.354 1.206 1.206 0 0 1 .26-.022c.795 0 1.479.602 1.568 1.415a60.09 60.09 0 0 0 .779 5.092 1.586 1.586 0 0 1-1.242 1.869Z" fill="#E3E4EA"/><path d="M38.34 169.924a1.59 1.59 0 0 1-1.03-1.539 64.42 64.42 0 0 1 .389-5.408 1.57 1.57 0 0 1 .113-.438c.118 2.474.294 4.942.528 7.385Z" fill="#EEEFF2"/><path d="M38.89 170.021h-.05a1.518 1.518 0 0 1-.5-.098c-.234-2.442-.41-4.911-.529-7.384a1.58 1.58 0 0 1 1.637-.961c.866.1 1.488.889 1.389 1.762a61.298 61.298 0 0 0-.37 5.14 1.58 1.58 0 0 1-1.578 1.541Zm1.931-13.718a1.592 1.592 0 0 1-1.539-1.953l.009-.033c.445-1.746.97-3.491 1.56-5.188a1.582 1.582 0 0 1 1.49-1.066c.174 0 .35.029.523.09a1.593 1.593 0 0 1 .969 2.027 60.944 60.944 0 0 0-1.484 4.928 1.581 1.581 0 0 1-1.528 1.195Zm4.89-12.944c-.243 0-.49-.057-.722-.178a1.597 1.597 0 0 1-.679-2.142c.82-1.6 1.72-3.182 2.673-4.706a1.577 1.577 0 0 1 2.178-.497 1.597 1.597 0 0 1 .494 2.194 59.983 59.983 0 0 0-2.538 4.468 1.577 1.577 0 0 1-1.405.861Zm7.642-11.509c-.36 0-.722-.123-1.019-.376a1.598 1.598 0 0 1-.186-2.241 64.2 64.2 0 0 1 3.647-3.988 1.574 1.574 0 0 1 2.233.003 1.597 1.597 0 0 1-.003 2.249 60.799 60.799 0 0 0-3.465 3.79 1.574 1.574 0 0 1-1.207.563Zm9.997-9.516c-.479 0-.952-.219-1.263-.633a1.595 1.595 0 0 1 .312-2.226 63.845 63.845 0 0 1 4.433-3.077 1.576 1.576 0 0 1 2.177.501 1.593 1.593 0 0 1-.497 2.192 60.636 60.636 0 0 0-4.213 2.923c-.285.216-.618.32-.949.32Zm11.84-7.054a1.58 1.58 0 0 1-1.441-.939 1.596 1.596 0 0 1 .792-2.102 63.67 63.67 0 0 1 5.002-2.012 1.58 1.58 0 0 1 2.012.975 1.594 1.594 0 0 1-.967 2.027 59.868 59.868 0 0 0-4.751 1.91 1.57 1.57 0 0 1-.647.141Zm45.459-1.966c-.172 0-.347-.027-.519-.089-1.6-.56-3.249-1.06-4.899-1.483a1.59 1.59 0 0 1-1.148-1.903l.007-.03a1.583 1.583 0 0 1 1.529-1.199c.13 0 .261.017.392.051a62.43 62.43 0 0 1 5.157 1.562 1.59 1.59 0 0 1 .973 2.024 1.58 1.58 0 0 1-1.492 1.067Zm-32.358-2.267a1.582 1.582 0 0 1-1.547-1.278 1.592 1.592 0 0 1 1.239-1.872 62.936 62.936 0 0 1 5.32-.835 1.585 1.585 0 0 1 1.745 1.404 1.592 1.592 0 0 1-1.393 1.757c-1.687.19-3.387.457-5.052.793a1.51 1.51 0 0 1-.312.031Zm18.944-.801c-.059 0-.119-.003-.179-.011a60.26 60.26 0 0 0-5.102-.362 1.587 1.587 0 0 1-1.535-1.634 1.585 1.585 0 0 1 1.578-1.545h.045c1.783.049 3.589.178 5.369.381a1.588 1.588 0 0 1 1.359 1.945 1.581 1.581 0 0 1-1.535 1.226Z" fill="#E3E4EA"/><path d="M42.876 194.514a1.58 1.58 0 0 1-1.181-.978 63.583 63.583 0 0 1-.904-2.444 1.593 1.593 0 0 1 .704-1.904 128.59 128.59 0 0 0 1.38 5.326Z" fill="#EEEFF2"/><path d="M43.163 194.541c-.097 0-.193-.009-.287-.028a128.866 128.866 0 0 1-1.381-5.325c.083-.048.171-.089.265-.121.172-.062.348-.091.521-.091a1.58 1.58 0 0 1 1.49 1.066c.272.778.56 1.561.86 2.322.124.314.14.643.07.948a1.586 1.586 0 0 1-1.538 1.229Zm33.802 34.525c-.2 0-.403-.038-.599-.119a64.194 64.194 0 0 1-2.376-1.041 1.593 1.593 0 0 1 .66-3.036c.22 0 .445.048.658.146.744.345 1.504.677 2.257.988a1.594 1.594 0 0 1 .862 2.074 1.58 1.58 0 0 1-1.462.988Zm23.473 4.651c-.724 0-1.447-.012-2.166-.037a1.587 1.587 0 0 1-1.524-1.645 1.587 1.587 0 0 1 1.632-1.534 61.144 61.144 0 0 0 5.112-.041c.835 0 1.533.661 1.575 1.511a1.586 1.586 0 0 1-1.499 1.668 62.599 62.599 0 0 1-3.13.078Zm-10.455-.899a1.45 1.45 0 0 1-.269-.023 63.317 63.317 0 0 1-5.179-1.116 1.574 1.574 0 0 1-1.135-1.938 1.582 1.582 0 0 1 1.924-1.143 61.066 61.066 0 0 0 4.924 1.062 1.59 1.59 0 0 1 1.27 1.933 1.581 1.581 0 0 1-1.535 1.225Zm21.842-.178a1.581 1.581 0 0 1-1.549-1.295 1.59 1.59 0 0 1 1.257-1.858 59.166 59.166 0 0 0 4.901-1.156 1.581 1.581 0 0 1 1.945 1.105c.074.267.076.537.017.789a1.585 1.585 0 0 1-1.113 1.17 61.953 61.953 0 0 1-5.162 1.216c-.099.02-.198.029-.296.029Zm12.944-4.009a1.58 1.58 0 0 1-1.45-.958 1.593 1.593 0 0 1 .821-2.091 61.115 61.115 0 0 0 4.532-2.209c.237-.129.493-.191.745-.191a1.58 1.58 0 0 1 1.393.84 1.594 1.594 0 0 1-.645 2.152 62.98 62.98 0 0 1-4.768 2.325c-.205.09-.418.132-.628.132Zm11.758-6.76a1.57 1.57 0 0 1-1.279-.656 1.594 1.594 0 0 1 .349-2.221 60.345 60.345 0 0 0 3.943-3.149 1.57 1.57 0 0 1 2.228.166 1.595 1.595 0 0 1-.163 2.242 64.38 64.38 0 0 1-4.152 3.314c-.28.205-.605.304-.926.304Zm10.007-9.172c-.372 0-.744-.131-1.044-.398a1.596 1.596 0 0 1-.14-2.244 60.765 60.765 0 0 0 3.166-3.937 1.57 1.57 0 0 1 2.209-.33 1.598 1.598 0 0 1 .326 2.225 62.59 62.59 0 0 1-3.332 4.145 1.573 1.573 0 0 1-1.185.539Zm7.772-11.148c-.258 0-.517-.063-.757-.195a1.597 1.597 0 0 1-.627-2.159 60.04 60.04 0 0 0 2.23-4.543 1.575 1.575 0 0 1 2.082-.81 1.593 1.593 0 0 1 .805 2.097 62.994 62.994 0 0 1-2.347 4.784 1.577 1.577 0 0 1-1.386.826Zm5.151-12.605c-.144 0-.291-.02-.437-.061a1.593 1.593 0 0 1-1.082-1.967c.459-1.608.855-3.26 1.187-4.93a1.581 1.581 0 0 1 1.857-1.247 1.592 1.592 0 0 1 1.241 1.87 68.003 68.003 0 0 1-.465 2.155 63.617 63.617 0 0 1-.783 3.028 1.583 1.583 0 0 1-1.518 1.152Zm2.298-13.435c-.034 0-.066-.002-.099-.003a1.585 1.585 0 0 1-1.478-1.685c.1-1.683.134-3.389.096-5.069a1.586 1.586 0 0 1 1.543-1.627h.037c.855 0 1.559.689 1.577 1.555a63.721 63.721 0 0 1-.102 5.334 1.585 1.585 0 0 1-1.574 1.495Zm-.671-13.619c-.76 0-1.43-.555-1.557-1.336a59.67 59.67 0 0 0-1.011-4.963 1.59 1.59 0 0 1 1.534-1.976 1.58 1.58 0 0 1 1.53 1.204 64.43 64.43 0 0 1 1.066 5.227 1.593 1.593 0 0 1-1.307 1.825 1.693 1.693 0 0 1-.255.019Zm-3.638-13.171a1.58 1.58 0 0 1-1.466-.998 63.072 63.072 0 0 0-.964-2.278 1.594 1.594 0 0 1 .791-2.103c.211-.096.431-.142.649-.142.601 0 1.176.35 1.439.938.355.793.697 1.6 1.017 2.399a1.598 1.598 0 0 1-.878 2.069 1.566 1.566 0 0 1-.588.115Z" fill="#E3E4EA"/><path d="M134.093 136.77a.736.736 0 0 0-.82-.251l-8.516 2.878a39.088 39.088 0 0 0-10.986-6.373l-1.806-8.855a.738.738 0 0 0-.627-.587l-10.685-1.403a.738.738 0 0 0-.757.407l-3.998 8.093a38.985 38.985 0 0 0-12.24 3.325l-7.5-4.979a.732.732 0 0 0-.856.033l-8.54 6.615a.747.747 0 0 0-.25.826l2.859 8.576a39.48 39.48 0 0 0-6.329 11.063l-8.793 1.818a.74.74 0 0 0-.584.632l-1.392 10.76c-.04.314.121.62.403.761l8.038 4.027a39.6 39.6 0 0 0 3.302 12.325l-4.945 7.553a.748.748 0 0 0 .032.863l6.57 8.599c.193.25.522.352.82.25l8.517-2.876a39.14 39.14 0 0 0 10.986 6.372l1.805 8.854a.739.739 0 0 0 .628.588l10.684 1.402a.734.734 0 0 0 .757-.407l3.998-8.093a38.906 38.906 0 0 0 12.241-3.325l7.499 4.979a.733.733 0 0 0 .857-.031l8.539-6.617a.746.746 0 0 0 .25-.826l-2.858-8.576a39.498 39.498 0 0 0 6.329-11.062l8.792-1.819a.74.74 0 0 0 .584-.632l1.392-10.76a.746.746 0 0 0-.403-.761l-8.037-4.026a39.68 39.68 0 0 0-3.302-12.326l4.944-7.552a.747.747 0 0 0-.032-.863l-6.57-8.599Z" fill="#C6C9D3"/><path d="M92.262 173.444a8.274 8.274 0 0 0 4.566 4.454c4.257 1.697 9.092-.411 10.777-4.698 1.687-4.288-.409-9.157-4.666-10.853-4.258-1.697-9.093.411-10.778 4.698a8.352 8.352 0 0 0 .1 6.399Zm17.692.692c-2.198 5.592-8.503 8.34-14.057 6.128a10.796 10.796 0 0 1-5.954-5.809 10.9 10.9 0 0 1-.13-8.346c2.197-5.591 8.502-8.341 14.056-6.128 5.052 2.014 7.767 7.45 6.561 12.627-.12.512-.278 1.023-.476 1.528Z" fill="#E8E8EF"/><path d="M125.609 176.425a27.297 27.297 0 0 0 .65-8.098l-.024-.321a.635.635 0 0 0-.682-.581.634.634 0 0 0-.577.686 25.851 25.851 0 0 1-.13 5.439 25.525 25.525 0 0 1-14.436 19.844 25.048 25.048 0 0 1-13.997 2.186 25.68 25.68 0 0 1-2.569-.469c-5.666-1.341-10.661-4.575-14.258-9.282-4.133-5.409-5.927-12.114-5.051-18.88 1.81-13.974 14.563-23.852 28.433-22.032a25.209 25.209 0 0 1 12.453 5.284.63.63 0 0 0 .887-.103.64.64 0 0 0-.103-.894 26.485 26.485 0 0 0-13.073-5.548c-14.563-1.91-27.953 8.469-29.85 23.128-.92 7.103.964 14.143 5.302 19.819 3.777 4.944 9.02 8.339 14.97 9.746a27.35 27.35 0 0 0 2.696.494c7.054.925 14.044-.971 19.681-5.339a26.637 26.637 0 0 0 9.678-15.079Z" fill="#E8E8EF"/><path d="M163.326 145.953a.98.98 0 0 1-.948-.753.985.985 0 0 1 .722-1.185c1.572-.379 3.14-.86 4.659-1.431a.976.976 0 0 1 1.256.577c.07.188.077.385.035.566a.98.98 0 0 1-.608.698 42.073 42.073 0 0 1-4.888 1.501.986.986 0 0 1-.228.027Zm9.338-3.504a.975.975 0 0 1-.866-.529.986.986 0 0 1 .418-1.325 40.945 40.945 0 0 0 4.182-2.517.974.974 0 0 1 1.356.259.983.983 0 0 1-.256 1.364 42.461 42.461 0 0 1-4.386 2.637.95.95 0 0 1-.448.111Zm8.227-5.654a.985.985 0 0 1-.643-1.721 40.277 40.277 0 0 0 3.464-3.45.968.968 0 0 1 1.377-.075.987.987 0 0 1 .076 1.387 42.566 42.566 0 0 1-3.631 3.615.966.966 0 0 1-.643.244Zm6.642-7.467a.986.986 0 0 1-.8-1.545 40.953 40.953 0 0 0 2.54-4.187.975.975 0 0 1 1.318-.407.985.985 0 0 1 .405 1.327 42.76 42.76 0 0 1-2.662 4.39.973.973 0 0 1-.801.422Zm4.661-8.865a.945.945 0 0 1-.348-.065.992.992 0 0 1-.564-1.269 40.623 40.623 0 0 0 1.459-4.678.973.973 0 0 1 1.18-.716c.52.129.837.655.715 1.177l-.003.013a42.585 42.585 0 0 1-1.527 4.905.977.977 0 0 1-.912.633Zm2.404-9.735a.982.982 0 0 1-.969-1.104c.199-1.62.303-3.268.309-4.897a.98.98 0 0 1 .975-.979h.005a.98.98 0 0 1 .972.985 43.356 43.356 0 0 1-.325 5.132.98.98 0 0 1-.967.863Zm.024-10.033a.978.978 0 0 1-.966-.865 40.658 40.658 0 0 0-.874-4.827.985.985 0 0 1 .947-1.219c.439 0 .837.301.947.75a42.33 42.33 0 0 1 .917 5.06.977.977 0 0 1-.971 1.1Zm-2.395-9.787a.975.975 0 0 1-.911-.632 40.778 40.778 0 0 0-.913-2.212.988.988 0 0 1 .489-1.3.97.97 0 0 1 1.289.493c.338.753.66 1.534.957 2.32.072.19.082.388.038.572a.978.978 0 0 1-.949.76Z" fill="#E3E4EA"/><path d="M151.438 109.693a5.362 5.362 0 0 0 4.155-.066 5.413 5.413 0 0 0 2.889-3.005 5.47 5.47 0 0 0-.066-4.182 5.411 5.411 0 0 0-2.983-2.91c-2.782-1.11-5.94.268-7.044 3.07a5.394 5.394 0 0 0-.237.765c-.605 2.595.755 5.32 3.286 6.328Zm8.859-2.349a7.355 7.355 0 0 1-3.93 4.085 7.27 7.27 0 0 1-5.645.089c-3.783-1.506-5.639-5.824-4.146-9.641 1.498-3.81 5.793-5.681 9.575-4.173a7.345 7.345 0 0 1 4.056 3.955 7.417 7.417 0 0 1 .09 5.685Z" fill="#E8E8EF"/><path d="M171.192 108.935a18.842 18.842 0 0 0 .428-5.789.98.98 0 0 0-.748-.874c-.098-.023-.201-.031-.305-.023a.98.98 0 0 0-.891 1.06 16.7 16.7 0 0 1-.084 3.519v.002l-.026.192a16.44 16.44 0 0 1-6.126 10.686l-.029.023a16.236 16.236 0 0 1-12.226 3.362 16.657 16.657 0 0 1-1.662-.304c-3.669-.869-6.902-2.963-9.232-6.01a16.517 16.517 0 0 1-3.268-12.222c.568-4.377 2.793-8.276 6.27-10.97a16.232 16.232 0 0 1 12.137-3.293 16.308 16.308 0 0 1 8.06 3.421.971.971 0 0 0 1.37-.161.989.989 0 0 0-.16-1.38 18.29 18.29 0 0 0-9.019-3.828c-4.866-.639-9.688.67-13.578 3.683-3.89 3.015-6.384 7.371-7.015 12.275-.634 4.9.664 9.756 3.658 13.672 2.606 3.41 6.223 5.753 10.327 6.723.61.144 1.231.259 1.861.342 9.422 1.235 18.132-4.985 20.258-14.106Z" fill="#E8E8EF"/><path d="M287.871 93.813s21.177 11.815 22.929 31.809c1.752 19.993.146 102.982-42.32 123.408-42.469 20.426-98.681 15.717-120.198 13.485-21.517-2.232-33.447-16.958-36.112-27.097-2.665-10.14-6.97-47.908 15.666-60.091 22.634-12.182 46.409-30.847 70.166-49.022 23.754-18.173 64.466-47.841 89.869-32.492Z" fill="#969696"/><mask id="mask3_426_9225" style="mask-type:luminance" maskUnits="userSpaceOnUse" x="107" y="197" width="36" height="46"><path d="m110.383 237.796-2.428 4.511c9.849-2.293 18.575-7.25 26.137-14.967l-4.606-4.856a2.681 2.681 0 0 1 .209-3.887c3.004-2.548 7.506-6.25 12.475-10.651-3.049-3.277-5.932-6.738-8.706-10.373-12.118 20.978-23.039 40.206-23.081 40.223Z" fill="#fff"/></mask><g mask="url(#mask3_426_9225)"><path d="m110.383 237.796-2.428 4.511c9.849-2.293 18.575-7.25 26.137-14.967l-4.606-4.856a2.681 2.681 0 0 1 .209-3.887c3.004-2.548 7.506-6.25 12.475-10.651-3.049-3.277-5.932-6.738-8.706-10.373-12.118 20.978-23.039 40.206-23.081 40.223Z" fill="url(#paint3_linear_426_9225)"/></g><path d="M131.426 224.718s2.94.956 3.935 3.592c.477 1.263-.037 2.691-1.126 3.477-4.841 3.492-20.808 14.767-28.176 16.975-.604.181-1.179-.37-1.043-.99.378-1.723 1.601-5.164 5.542-10.204l-.354.721c-.447.911.538 1.859 1.417 1.359 4.929-2.801 14.967-8.932 19.805-14.93Z" fill="#333435"/><path d="m223.152 154.544-58.551-6.821a5.166 5.166 0 0 0-4.883 2.246c-6.863 10.172-18.599 32.139-30.053 53.419l9.375 7.755c17.694-15.799 33.548-30.856 37.498-41.133l46.614-15.466Z" fill="#434343"/><mask id="mask4_426_9225" style="mask-type:luminance" maskUnits="userSpaceOnUse" x="127" y="204" width="35" height="60"><path d="M161.5 212.548c-5.485-2.66-10.959-5.37-16.571-7.805-3.355 11.068-6.422 23.363-8.524 36.248-.08.052-7.272 17.501-7.353 17.553l-1.471 4.913c9.185-4.251 16.734-10.884 22.588-19.984l-5.487-3.817a2.68 2.68 0 0 1-.576-3.848c3.889-4.973 10.937-13.622 17.394-23.26Z" fill="#fff"/></mask><g mask="url(#mask4_426_9225)"><path d="M161.5 212.548c-5.485-2.66-10.959-5.37-16.571-7.805-3.355 11.068-6.422 23.363-8.524 36.248-.08.052-7.272 17.501-7.353 17.553l-1.471 4.913c9.185-4.251 16.734-10.884 22.588-19.984l-5.487-3.817a2.68 2.68 0 0 1-.576-3.848c3.889-4.973 10.937-13.622 17.394-23.26Z" fill="url(#paint4_linear_426_9225)"/></g><path d="M147.035 241.448s3.072.338 4.576 2.717c.719 1.137.504 2.643-.404 3.634-4.039 4.406-17.41 18.701-24.183 22.366-.555.3-1.228-.122-1.219-.756.023-1.766.529-5.385 3.376-11.124l-.202.778c-.255.984.901 1.713 1.661 1.044 4.264-3.749 12.862-11.799 16.395-18.659Z" fill="#333435"/><path d="m223.413 150.79-58.257 2.697c-9.397 18.435-17.333 38.836-23.436 61.7 4.746-1.441 9.809-.516 15.401 4.383 10.106-14.253 17.806-28.114 22.431-41.47 21.982 5.277 41.853 7.417 67.3-.337 11.718-2.698 12.766-7.325 3.012-24.276l-26.451-2.697Z" fill="#313131"/><path d="M214.07 145.361s-12.042-15.482-17.638-25.388c-3.025-5.352-3.275-11.85-.701-17.439 4.697-10.205 11.892-20.43 12.652-22.076 1.167-2.52 16.843-.096 16.843-.096s27.94 24.735 35.098 60.71l-14.247 2.258s-6.079-14.808-12.787-24.643c0 0 11.117 20.369 10.51 27.948l-29.73-1.274Z" fill="#FDD000"/><mask id="mask5_426_9225" style="mask-type:luminance" maskUnits="userSpaceOnUse" x="186" y="136" width="77" height="22"><path d="m186.635 146.72 12.192-9.97 11.665 5.085s13.836 4.297 22.261 3.285l8.424-1.015 19.148-3.037 1.685 8.608a4.996 4.996 0 0 1-2.612 5.398c-1.75.899-3.787 1.872-5.047 2.219-2.566.705-55.599-7.86-55.599-7.86l-12.117-2.713Z" fill="#fff"/></mask><g mask="url(#mask5_426_9225)"><path d="m186.634 146.72 12.193-9.971 11.664 5.086s13.836 4.298 22.261 3.284l8.425-1.013 19.148-3.038 1.684 8.609a4.993 4.993 0 0 1-2.612 5.397c-1.751.899-3.787 1.872-5.046 2.219-2.567.705-55.599-7.86-55.599-7.86l-12.118-2.713Z" fill="url(#paint5_linear_426_9225)"/></g><path d="m220.779 156.417-.112-.013-48.357-7.19a2.2 2.2 0 0 1-1.845-2.501c.175-1.204 1.294-2.056 2.483-1.858l48.359 7.188a2.202 2.202 0 0 1 1.845 2.503 2.192 2.192 0 0 1-2.373 1.871Z" fill="#333435"/><path d="m135.258 98.629 40.279 5.944a7.776 7.776 0 0 1 6.299 5.457l12.835 42.509-50.055-7.386a4.73 4.73 0 0 1-3.909-3.612l-9.086-38.923c-.524-2.249 1.367-4.323 3.637-3.989Z" fill="#333435"/><path d="M160.668 123.201c.476 2.858-.554 5.416-2.302 5.711-1.746.294-3.548-1.785-4.024-4.645-.475-2.86.555-5.416 2.302-5.71 1.748-.296 3.549 1.784 4.024 4.644Z" fill="#74767B"/><path d="M303.636 214.353c-.49-4.845-1.483-9.599-3.083-14.094-1.299-3.65-2.763-7.314-1.547-11.255.405-1.32 4.343-7.158 2.566-7.959-.234-.104-.5-.115-.757-.118-7.102-.097-17.052 5.025-18.433 12.623-.208 1.149.248 3.59 1.002 4.523a13.04 13.04 0 0 1-2.52-5.086c-2.387 4.244-1.753 9.589-.101 14.176 1.968 5.475 4.998 10.399 6.303 16.115.995 4.355.428 8.715.748 13.081.301 4.138.003 7.988-.642 12.124-.197 1.267-.279 2.427-.466 3.608-.106.687-.252 1.38-.476 2.103.596-1.444 1.828-2.524 2.98-3.499-.077.056-1.469 13.91.76 13.807 3.769-.175 10.786-13.102 13.065-21.759 2.301-8.735 1.539-19.102.601-28.39Zm-50.065 17.508c1.568 11.757 2.407 22.878 1.817 31.642-2.925.269-5.14 1.265-5.098 2.365.046 1.21 2.811 2.089 6.173 1.961 3.364-.127 5.876-1.219 6.006-2.423a1.668 1.668 0 0 0-.102-.836l3.516-31.846c.036-9.044-11.863-9.566-12.312-.863Z" fill="#ECC538"/><path d="M257.07 206.539c-7.748 20.432-2.435 38.522 8.451 57.245 14.539 6.871 25.999 7.088 31.333-5.934 6.567-20.372-21.109-36.897-21.045-52.29l-18.739.979Z" fill="#ECC538"/><path d="M260.803 230.735c1.596 12.664 1.993 24.408-.308 34.082-3.167.057-5.626.951-5.668 2.138-.045 1.306 2.858 2.469 6.485 2.6 3.626.131 6.415-.843 6.647-2.128.065-.35.045-.648-.044-.905 2.412-8.012 4.37-20.753 6.282-33.966.75-9.72-12.229-11.144-13.394-1.821Zm9.505-42.754c2.025-3.043 4.846-4.754 8.514-5.048-.97 4.982-.307 9.29-1.967 10.895l-6.547-5.847Z" fill="#F5D560"/><path d="M271.476 188.14c1.454-2.187 3.483-3.416 6.119-3.628-.696 3.58-.221 6.676-1.414 7.83l-4.705-4.202Z" fill="#ECC538"/><path d="M260.674 187.339c-1.963-3.085-4.749-4.859-8.413-5.229.871 5 .125 9.292 1.752 10.934l6.661-5.705Z" fill="#F5D560"/><path d="M259.443 187.849c-1.367-2.148-3.306-3.382-5.856-3.64.606 3.481.086 6.47 1.22 7.612l4.636-3.972Z" fill="#ECC538"/><path d="M278.051 199.163c-.246 7.06-6.13 12.578-13.14 12.327-7.012-.252-12.495-6.18-12.249-13.24.244-7.059 6.128-12.578 13.141-12.326 7.008.252 12.494 6.179 12.248 13.239Z" fill="#ECC538"/><path d="M261.562 196.64a1.092 1.092 0 0 1-1.127 1.054 1.09 1.09 0 0 1-1.047-1.133 1.09 1.09 0 0 1 1.124-1.055c.6.023 1.07.53 1.05 1.134Zm9.993.099a1.093 1.093 0 0 1-1.126 1.055 1.09 1.09 0 0 1-1.047-1.133 1.088 1.088 0 0 1 1.124-1.055c.601.021 1.069.53 1.049 1.133Z" fill="#333435"/><path d="M272.171 204.844c-.059 1.689-1.667 3.003-3.595 2.933-1.927-.068-3.44-1.494-3.381-3.183.059-1.69 1.669-3.004 3.594-2.934 1.928.069 3.441 1.495 3.382 3.184Z" fill="#F7F0CD"/><path d="M265.207 204.374c-.058 1.689-1.667 3.003-3.594 2.933-1.926-.069-3.439-1.495-3.381-3.184.059-1.689 1.668-3.002 3.595-2.933 1.926.068 3.439 1.494 3.38 3.184Z" fill="#F7F0CD"/><path d="M266.778 202.286c-.01.291-1.553 1.657-1.553 1.657s-1.445-1.473-1.434-1.764c.009-.292.687-.503 1.512-.474.823.029 1.486.29 1.475.581Z" fill="#333435"/><path d="M290.783 265.844c-14.333-1.327-21.081-3.328-21.946-1.307-1.92 2.57-.853 3.917 3.144 4.836 12.775.469 16.223 1.018 18.802-3.529Z" fill="#F5D560"/><path d="M297.064 251.792c-.315 9.086-5.742 16.265-12.124 16.036-6.378-.229-11.292-7.78-10.975-16.866.315-9.086 5.743-16.267 12.122-16.038 6.38.231 11.294 7.782 10.977 16.868Z" fill="#F5D560"/></g><defs><linearGradient id="paint0_linear_426_9225" x1="221.212" y1="97.139" x2="227.353" y2="68.274" gradientUnits="userSpaceOnUse"><stop offset="1" stop-color="#FE9F73"/></linearGradient><linearGradient id="paint1_linear_426_9225" x1="240.075" y1="51.02" x2="230.614" y2="-27.495" gradientUnits="userSpaceOnUse"><stop offset="1" stop-color="#FE9F73"/></linearGradient><linearGradient id="paint2_linear_426_9225" x1="244.402" y1="57.689" x2="235.148" y2="-19.1" gradientUnits="userSpaceOnUse"><stop stop-color="#FE9F73"/></linearGradient><linearGradient id="paint3_linear_426_9225" x1="180.635" y1="186.773" x2="106.512" y2="228.788" gradientUnits="userSpaceOnUse"><stop offset="1" stop-color="#FE9F73"/></linearGradient><linearGradient id="paint4_linear_426_9225" x1="201.483" y1="193.241" x2="504.296" y2="4.992" gradientUnits="userSpaceOnUse"><stop offset="1" stop-color="#FE9F73"/></linearGradient><linearGradient id="paint5_linear_426_9225" x1="265.075" y1="124.421" x2="348.767" y2="136.601" gradientUnits="userSpaceOnUse"><stop offset="1" stop-color="#FE9F73"/></linearGradient><clipPath id="clip0_426_9225"><path fill="#fff" d="M0 0h348v270H0z"/></clipPath></defs></svg>