<svg id="Layer_1" xmlns="http://www.w3.org/2000/svg" version="1.1" viewBox="0 0 95.6 95.6"><path d="M46.5 5.2C51.9.5 60.3 2.1 63.6 8.5c1.9 3.7 5.8 6 10 6 7.2 0 12.6 6.5 11 13.5-.9 4.1.6 8.4 3.8 11 5.5 4.6 5.4 13.1-.3 17.5-3.3 2.6-4.9 6.8-4.2 10.9 1.3 7.1-4.3 13.5-11.4 13.2-4.2-.2-8.1 2-10.2 5.7-3.5 6.2-11.9 7.6-17.2 2.8-3.1-2.8-7.5-3.7-11.4-2.2-6.7 2.5-14-1.9-15-9-.6-4.2-3.4-7.7-7.4-9-6.8-2.4-9.6-10.4-5.7-16.5 2.2-3.5 2.3-8 .2-11.7-3.7-6.2-.6-14.1 6.2-16.3 4-1.3 6.9-4.7 7.6-8.8 1.2-7.1 8.6-11.2 15.3-8.5 3.9 1.6 8.3.9 11.5-1.8Z" style="fill:#fdd000"/></svg>