<svg width="334" height="336" viewBox="0 0 334 336" fill="none" xmlns="http://www.w3.org/2000/svg"><path d="M11.293 279.58c0-6.58 5.59-11.916 12.482-11.916h15.133c-3.534-2.104-5.894-5.839-5.894-10.107 0-6.582 5.59-11.916 12.482-11.916H298.26c6.895 0 12.482 5.334 12.482 11.916 0 4.268-2.36 8.003-5.893 10.107h16.668c6.895 0 12.482 5.336 12.482 11.916 0 6.582-5.589 11.916-12.482 11.916h-29.124c3.889 2.02 6.527 5.952 6.527 10.476 0 4.331-2.426 8.109-6.046 10.196h16.278c6.545 0 11.85 5.065 11.85 11.312v1.208c0 6.247-5.305 11.312-11.85 11.312h-267.1c-6.545 0-11.85-5.065-11.85-11.312v-1.208c0-4.065 2.265-7.601 5.64-9.594-6.867-.03-12.424-5.352-12.424-11.914 0-4.524 2.64-8.456 6.528-10.476h-6.174c-6.89 0-12.48-5.336-12.48-11.916Z" fill="#F2F2F2"/><path d="M95.026 296.03h67.608c4.33 0 5.195-6.118 1.051-7.37-7.832-2.369-17.847-3.017-17.847-3.017 16.638-11.742 13.94-42.453 13.94-42.453s-63.853 16.259-64.752 52.84Z" fill="#8C6239"/><path d="m109.865 272.546.473-4.885c19.149-16.755 49.44-24.471 49.44-24.471s.464 5.346-.194 12.422l-29.484 35.45-20.235-18.516Z" fill="#7F532F"/><path d="M79.737 283.836S5.412 280.916.004 182.909c-.135-2.457 3.223-3.262 4.167-.993 9.996 24.002 38.012 75.379 69.72 79.228l5.846 22.692Z" fill="#A67C52"/><path d="M66.351 281.392a84.424 84.424 0 0 1-7.862-2.617c-2.903-4.885-5.486-10.68-6.182-16.62-.507-4.327-.214-7.694.448-10.339 2.837 2.112 5.74 3.939 8.695 5.411l4.901 24.165Z" fill="#936841"/><path d="m180.913 166.415 12.211 117.988c.471 4.555 4.293 8.014 8.851 8.014h15.253c3.745 0 4.862-5.111 1.459-6.682a81.366 81.366 0 0 0-2.251-.996c-11.691-4.967-1.349-144.518-1.349-144.518" fill="#8C6239"/><path d="M218.686 285.737c-1.135-1.037-2.55-1.736-4.031-2.182-1.485-.459-3.075-.591-4.644-.456-1.563.163-3.121.582-4.477 1.368-1.39.712-2.556 1.787-3.487 2.982 1.41-.616 2.685-1.279 4.048-1.69a16.767 16.767 0 0 1 4.083-.864c2.77-.291 5.574.11 8.508.842Z" fill="#603813"/><path d="m189.007 173.641 25.181-21.226c.016.051.032.177.047.341-.711 11.045-1.722 28.192-2.45 46.525l-22.778 20.426v-46.066Z" fill="#7F532F"/><path d="M182.368 24.749s26.413-19.884 35.919-20.543c6.904-.479 17.541 19.584 22.849 30.605 1.127 2.341-1.333 4.785-3.662 3.647l-12.839-6.279s-10.089 21.571-18.876 28.985L182.368 24.75Z" fill="#8C6239"/><path d="m200.398 30.929 6.734-7.315 19.381 9.475-.002.011-1.876-.918s-3.238 6.923-7.643 14.272l-16.594-15.525Z" fill="#7F532F"/><path d="M226.513 33.088c-2.92-2.22-6.08-3.943-9.298-5.55-3.241-1.555-6.542-2.99-10.083-3.925 2.917 2.224 6.078 3.946 9.297 5.55 3.243 1.552 6.544 2.988 10.084 3.925Z" fill="#603813"/><path d="M129.201 109.511c.899-13.097-.599-47.612 0-55.496.599-7.883-8.094-28.506-8.094-28.506l-14.037 2.643c-2.545.479-4.274-2.531-2.57-4.491 8.02-9.219 23.564-25.74 30.097-23.445 5.462 1.92 15.067 12.335 21.771 20.219 4.542-1.066 9.814-1.702 16.001-1.702h2.698c44.517 0 43.168 32.065 43.168 32.065v58.711s8.452 80.222-68.891 145.857c0 0 2.34 22.146-14.297 33.888 0 0 10.015.648 17.846 3.017 4.146 1.253 3.279 7.37-1.05 7.37H84.234c-6.295 0-2.698-7.226-2.698-7.226s-27.43-7.677-22.933-41.097 69.699-128.71 70.598-141.807Z" fill="#A67C52"/><path d="m128.508 112.32 3.839-.551 75.945 60.419c-1.023 2.847-5.013 13.41-6.247 16.356-12.644-6.785-65.88-45.789-75.067-72.463.645-1.429 1.16-2.688 1.53-3.761Zm31.788 133.111 2.18-52.973 3.938 47.375c-1.612 1.667-4.407 3.942-6.118 5.598Z" fill="#936841"/><path d="M119.056 25.884c2.47.28 4.842.018 7.193-.372 2.34-.446 4.657-1.024 6.876-2.15-2.469-.285-4.843-.021-7.192.372-2.34.45-4.657 1.028-6.877 2.15Zm37.319-5.527c.457 1.61 1.319 2.846 2.281 3.998 1.004 1.115 2.106 2.14 3.633 2.811-.444-1.6-1.313-2.843-2.28-3.998-1.009-1.118-2.117-2.15-3.634-2.81Zm-7.013 240.788c.194-2.155.407-4.332.326-6.534-.058-2.202-.481-4.38-.997-6.539-1.176-4.289-3.534-8.277-6.687-11.43a35.405 35.405 0 0 0-11.026-7.218c-2.006-.882-4.134-1.433-6.182-2.15-2.137-.434-4.259-.889-6.389-1.247 2.04.757 4.099 1.379 6.121 2.09 1.958.877 3.995 1.561 5.871 2.567.93.521 1.859 1.03 2.8 1.518.971.441 1.768 1.158 2.657 1.723 1.806 1.104 3.327 2.575 4.869 3.987 2.998 2.943 5.221 6.599 6.649 10.57 1.418 4.007 1.763 8.315 1.988 12.663Zm-91.209-5.46c-.639 2.158-.833 4.434-.78 6.689.034 2.262.392 4.518.969 6.711.277 1.102.687 2.164 1.068 3.232.49 1.026.887 2.092 1.502 3.051 1.076 1.993 2.533 3.759 4.137 5.306-1.014-2.011-2.08-3.904-2.88-5.931a42.97 42.97 0 0 1-2.091-6.126c-1.148-4.167-1.71-8.472-1.925-12.932Z" fill="#603813"/><path d="M208.592 171.365c-3.268 8.043-6.897 15.91-11.029 23.497-4.133 7.584-8.657 14.954-13.733 21.933-4.955 7.065-10.448 13.738-16.224 20.155-1.412 1.634-2.896 3.203-4.394 4.76-1.484 1.57-2.973 3.136-4.533 4.632-3 3.119-6.211 6.015-9.333 9.025 3.387-2.697 6.723-5.472 9.941-8.384 1.632-1.431 3.18-2.954 4.733-4.471 1.564-1.507 3.117-3.026 4.599-4.616 6.025-6.263 11.558-13.006 16.673-20.052 4.997-7.128 9.589-14.556 13.492-22.341 3.903-7.775 7.236-15.841 9.808-24.138Z" fill="#603813"/><path d="m184.359 96.414 27.281-.903 6.595-2.1v10.446c-5.079-.488-30.372-3.113-33.876-7.443Zm-34.779-83.63a229.955 229.955 0 0 1 6.788 7.654c1.556-.365 3.232-.657 4.966-.914l1.141 7.793-13.94-14.451 1.045-.082Zm-30.522 13.114-.002-.011 1.268-.229-1.266.24Zm2.051-.381 12.016-2.155-7.423 14.409c-2.178-6.513-4.563-12.18-4.593-12.254Z" fill="#936841"/><path d="m194.676 57.326-6.719-13-7.699 13h14.418Z" fill="#fff"/><path d="M169.82 48.543a3.906 3.906 0 0 0 3.898 3.914 3.906 3.906 0 0 0 3.898-3.914 3.906 3.906 0 0 0-3.898-3.915 3.906 3.906 0 0 0-3.898 3.915Zm27.73 1.504a3.906 3.906 0 0 0 3.898 3.915 3.906 3.906 0 0 0 3.898-3.915 3.906 3.906 0 0 0-3.898-3.914 3.906 3.906 0 0 0-3.898 3.914Z" fill="#603813"/><path d="M183.76 96.316h25.975c10.119 0 18.325-8.24 18.325-18.405V75.76c0-10.165-8.204-18.405-18.325-18.405h-29.273" fill="#A67C52"/><path d="M183.76 96.315c4.79.186 9.578.273 14.368.406l7.184.13c2.39-.001 4.773.201 7.268-.122 4.93-.625 9.56-3.38 12.524-7.427a19.144 19.144 0 0 0 3.207-6.754c.641-2.454.646-4.992.59-7.396-.075-5.051-2.352-9.999-6.036-13.408-3.642-3.463-8.72-5.313-13.666-5.17-9.578.137-19.158.336-28.736.78 9.578.445 19.158.644 28.736.78 4.637-.073 9.187 1.665 12.497 4.858 3.327 3.155 5.308 7.637 5.464 12.214.077 2.39.09 4.719-.468 6.939a17.53 17.53 0 0 1-2.868 6.207c-2.702 3.714-6.879 6.33-11.436 7.09-2.251.374-4.684.262-7.075.335l-7.183.13c-4.792.135-9.58.222-14.37.408Z" fill="#754C24"/><path d="M209.735 57.355c7.168 0 13.357 4.143 16.368 10.166a12.218 12.218 0 0 1-4.572.892c-6.355 0-11.582-4.845-12.224-11.056l.428-.002Zm-16.972 32.872c1.888 1.673 3.996 3.013 6.228 3.882 2.258.836 6.783 2.253 9.087 2.09l-.327.114h-10.839a23.809 23.809 0 0 1-5.569-4.692c-1.782-2.059-3.199-4.355-4.41-6.716-1.189-2.374-2.189-4.83-2.88-7.367 1.004 2.424 2.296 4.711 3.736 6.861 1.459 2.135 3.09 4.144 4.974 5.828Z" fill="#603813"/><path d="M126.953 106.35s-4.047-19.42-12.591-22.13c0 0-1.799 14.001 8.094 24.84 0 0-11.691 6.774-11.691 13.097 0 0 11.691 5.419 16.188-15.807Zm2.248 3.162c81.84 27.549 86.935-3.012 89.633 1.355.669 1.082 3.297 6.624.599 9.634.932 13.386.946 39.173-2.548 69.399-1.09 9.432-84.536-55.098-87.684-80.388Z" fill="#FDD000"/><path d="M219.919 132.659c-51.145 16.633-69.434-5.836-69.434-5.836 40.47 15.956 68.948-6.323 68.948-6.323.232 3.326.407 7.423.486 12.159Z" fill="#FFE779"/><path d="M219.433 120.5c-5.099 3.199-10.607 5.62-16.276 7.426-5.68 1.755-11.513 3.064-17.44 3.458-1.471.215-2.959.172-4.441.233-1.484.033-2.968.13-4.448 0l-4.452-.213c-1.478-.136-2.948-.376-4.428-.537-2.98-.24-5.858-1.06-8.792-1.64-2.926-.63-5.743-1.664-8.671-2.404 1.385.58 2.78 1.145 4.187 1.692 1.416.512 2.783 1.205 4.25 1.567 2.92.762 5.803 1.743 8.81 2.158 5.945 1.265 12.086 1.334 18.138.943 6.067-.449 12.051-1.842 17.739-3.949 2.845-1.053 5.604-2.321 8.29-3.716 2.62-1.508 5.225-3.072 7.534-5.018Z" fill="#232D34"/><path d="M128.302 114.93c-3.229 0-5.846-2.629-5.846-5.871 0-3.243 2.617-5.871 5.846-5.871 3.228 0 5.845 2.628 5.845 5.871 0 3.242-2.617 5.871-5.845 5.871Z" fill="#FFE779"/><path d="m161.554 175.185 7.237 118.4c.279 4.571 3.952 8.189 8.506 8.382l15.239.647c3.741.159 5.072-4.899 1.739-6.614a86.982 86.982 0 0 0-2.207-1.091c-11.472-5.459.685-110.282.685-110.282" fill="#A67C52"/><path d="M194.275 295.999c-1.09-1.084-2.475-1.842-3.935-2.35-1.466-.52-3.049-.719-4.621-.652-1.569.097-3.142.448-4.529 1.176-1.419.652-2.628 1.676-3.61 2.832 1.435-.554 2.736-1.163 4.115-1.517a16.776 16.776 0 0 1 4.116-.688c2.779-.175 5.565.345 8.464 1.199Z" fill="#603813"/><path d="M192.536 302.617c.64.025 1.293-.07 1.885-.361a3.554 3.554 0 0 0 1.408-1.355c.696-1.14.705-2.69-.038-3.855-.348-.604-.942-1.017-1.514-1.35l-1.711-.897c-1.142-.47-1.75-1.556-2.232-2.699-.921-2.318-1.336-4.863-1.654-7.387-.308-2.535-.473-5.092-.578-7.652-.374-10.248-.088-20.538.448-30.806.423-10.277 1.153-20.544 1.878-30.812l2.326-30.809c-1.528 10.194-2.691 20.435-3.709 30.692-1.002 10.259-1.736 20.543-2.285 30.846-.381 10.304-.712 20.637-.016 30.968.187 2.582.437 5.161.835 7.73.421 2.558.885 5.145 1.985 7.578.54 1.164 1.398 2.472 2.725 2.939 1.137.586 2.45.918 3.13 1.919.696.976.775 2.379.189 3.477a3.399 3.399 0 0 1-1.246 1.366c-.551.309-1.184.45-1.826.468Zm-30.06-110.912c.224 9.603.644 19.196 1.094 28.785.446 9.588 1.054 19.168 1.572 28.753.664 9.577 1.25 19.158 1.988 28.729l1.14 14.356c.099 1.171.196 2.459.639 3.627a9.018 9.018 0 0 0 1.915 3.151c1.668 1.814 4.076 2.867 6.472 2.863a8.984 8.984 0 0 1-6.116-3.179 8.415 8.415 0 0 1-1.627-3.048c-.348-1.111-.367-2.249-.403-3.468l-.641-14.387c-.451-9.589-1.052-19.17-1.575-28.754-.67-9.576-1.249-19.158-1.992-28.728-.735-9.573-1.501-19.144-2.466-28.7Z" fill="#603813"/></svg>