<svg width="300" height="199" viewBox="0 0 300 199" fill="none" xmlns="http://www.w3.org/2000/svg"><g clip-path="url(#clip0_316_18388)"><path d="M260.657 111.559c.002-29.63-23.559-48.019-52.896-55.943-23.835-6.438-30.081-13.778-54.584-18.818-38.646-7.948-70.97 7.5-89.779 29.773-27.915 33.054-25.159 91.948 9.895 110.79 9.757 5.245 29.667 10.869 51.285 6.695 17.776-3.432 22.768-11.774 35.697-12.661 12.538-.86 24.878 5.198 37.445 5.456 41.24.845 62.936-37.712 62.937-65.292Z" fill="#F2F2F2"/><path d="m238.581 101.165-8.772 8.991v31.842h-7.736V80.335h-25.056v36.11h-6.633v-6.289h-15.938v28.525h-9.522" stroke="#969696" stroke-width=".368" stroke-miterlimit="10" stroke-linecap="round" stroke-linejoin="round"/><path d="M197.017 84.806h13.893v1.99h-13.893m0 3.476h13.893v1.99h-13.893m0 3.475h13.893v1.99h-13.893m0 3.476h13.893v1.989h-13.893m0 3.477h13.893v1.99h-13.893m-20.666 1.496 1.802-2.113h8.581l1.746 2.063" stroke="#969696" stroke-width=".368" stroke-miterlimit="10" stroke-linecap="round" stroke-linejoin="round"/><path d="M180.958 108.043v-4.336h2.914v4.336m-65.402 16.989h-7.989v-12.779H86.115V77.096H63.303v18.64l-8.945 9.167" stroke="#969696" stroke-width=".368" stroke-miterlimit="10" stroke-linecap="round" stroke-linejoin="round"/><path d="M86.115 81.448h-18.29v2.425h18.29v-2.425Zm0 9.157h-18.29v2.424h18.29v-2.424Zm0 9.153h-18.29v2.425h18.29v-2.425Zm0 9.156h-18.29v2.425h18.29v-2.425Z" stroke="#969696" stroke-width=".368" stroke-miterlimit="10" stroke-linecap="round" stroke-linejoin="round"/><path d="M260.657 196.127s1.957-21.7 8.554-22.175c3.696-.265 3.276 8.054-.546 14.604 0 0 8.446-12.918 12.618-9.684 4.854 3.762-8.25 12.446-8.25 12.446s11.559-6.98 12.877-3.322c1.41 3.917-9.011 5.739-9.011 5.739s8.01-1.356 9.497 2.392h-25.739Zm-163.959-.003s-18.776-46.719-29.307-44.913c-10.68 1.832 7.674 33.038 7.674 33.038s-26.628-33.789-32.67-27.261c-5.264 5.689 14.323 23 14.323 23s-24.115-11.397-26.754-4.795c-3.032 7.585 26.911 15.245 26.911 15.245s-18.686-3.272-24.631-1.554c-5.946 1.718-5.314 7.24-5.314 7.24h69.768Z" fill="#C5C5C5"/><path d="M104.921 125.031h-39.07v65.905h39.07v-65.905Z" fill="#000"/><path d="m100.129 125.031-10.617 15.233 2.002 50.672H57.298l-2.003-50.672 10.617-15.233h34.217Z" fill="#A3A19A"/><path d="M68.703 190.919h-5.185v5.205h5.185v-5.205Zm31.426 0h-5.185v5.205h5.185v-5.205ZM76.182 86.731h-1.82v38.3h1.82v-38.3Z" fill="#000"/><path d="M77.16 123.74h-3.776v1.291h3.776v-1.291Zm16.487-37.009h-1.82v38.3h1.82v-38.3Z" fill="#000"/><path d="M94.625 123.74h-3.777v1.291h3.777v-1.291Zm1.513-38.148H71.87v3.377h24.267v-3.377Z" fill="#000"/><path opacity=".5" d="M55.295 140.263h34.217l2.002 50.672H57.298l-2.003-50.672Z" fill="#FFF9E2"/><path d="M64.962 187.527 63.23 143.67h-3.676l1.733 43.857h3.676Zm7.432 0L70.66 143.67h-3.676l1.732 43.857h3.677Zm7.431 0-1.733-43.857h-3.676l1.733 43.857h3.676Zm7.432 0-1.733-43.857h-3.676l1.732 43.857h3.677Z" stroke="#000" stroke-width=".184" stroke-miterlimit="10"/><path d="M91.827 109.238s-8.57.886-11.488 8.86c-1.563 4.269-1.317 10.552 2.32 14.885 2.728 3.248 9.168 6.201 11.71 3.606 1.921-1.963 1.22-4.999-1.927-8.792-2.99-3.605-.615-6.347-.615-6.347v-12.212Z" fill="#FDD000"/><path d="M93.647 109.161s4.938-.447 9.882 3.683c4.838 4.041 5.976 11.541 3.155 13.181-3.297 1.917-6.024-2.665-8.676-4.601-2.29-1.67-4.361-.761-4.361-.761v-11.502Z" fill="#FDD000"/><path d="M88.586 136.126s3.843 1.515 5.433-.776c1.456-2.098-1.18-5.659-2.505-7.279-.97-1.187-3.864-5.483-1.666-8.947 2.427-3.824 7.007-2.611 9.798.093 1.779 1.724 3.61 4.85 5.885 4.788 2.274-.063 2.001-2.674 1.911-3.14" stroke="#000" stroke-width=".184" stroke-miterlimit="10" stroke-linecap="round"/><path d="M18.65 12.411a10.379 10.379 0 0 1 5.985.828C31.001 16.168 48.49 24.28 49.19 24.431c.9.195 71.783-21.684 78.798-21.684 4.968 0 9.244 2.64 11.476 4.875 9.133.572 12.375 6.718 11.356 10.346-1.119 3.983-5.505 6.515-19.104 10.675-13.598 4.16-82.376 20.036-91.42 20.959-9.045.923-17.455-.945-18.063-2.474-.451-1.133-.234-3.438-.091-4.557.067-.523.374-.98.83-1.224.965-.517 9.17-1.888 8.41-4.557-1.52-5.304-18.485-21.693-18.52-22.551-.02-.547 3.054-1.39 5.788-1.829Z" fill="#FDD000"/><path d="M49.19 24.433s-4.492 1.44-5.767 1.578c-1.274.143-21.748-11.611-23.93-12.03-2.186-.42-6.13.976-6.13.976-.32-.38-.498-.629-.502-.715-.019-.548 3.055-1.392 5.79-1.83a10.4 10.4 0 0 1 5.986.825C31 16.168 48.49 24.28 49.191 24.433Zm76.577 1.489c.474-.119.407-.83-.081-.848-5.553-.207-17.625-1.3-33.37-6.454-7.753-2.538-17.963-10.475-21.781-14.097C66.479.676 60.73-.663 55.465 1.058l-2.816.92c-.732.239-1.041 1.125-.621 1.785 2.229 3.5 8.752 13.284 16.438 20.566 4.624 4.38 9.196 6.968 12.677 8.47 3.33 1.436 8.242 2.204 11.765 1.388l32.859-8.264Zm13.697-18.298s-2.193-.326-10.843 2.508c-1.888.618-3.861.44-5.347-.903l-2.229-2.015c-.332-.302-.153-.739.23-.967 2.659-1.588 10.146-2.973 11.642-2.649h.002c2.795.96 5.098 2.577 6.545 4.026Z" fill="#000"/><path d="M70.525 18.634s-6.92 1.959-7.852 2.34c-1.023.417-2.46 1.39-1.966 4.03.393 2.093 2.182 2.638 3.3 2.768 1.901.222 8.142-1.546 10.83-2.404M58.682 5.82s-4.772 1.35-5.417 1.613c-.706.288-1.698.96-1.356 2.78.27 1.444 1.505 1.82 2.277 1.91 1.311.153 5.617-1.067 7.472-1.659" fill="#000"/><path d="M105.341 12.704c.179 1.982.726 6.28 2.254 9.436.262.54.868.806 1.438.652l4.283-1.163c.672-.181 1.07-.885.89-1.573-.505-1.93-1.438-5.751-1.784-8.876-.087-.783-.829-1.303-1.571-1.098l-4.586 1.263c-.591.163-.98.735-.924 1.359Zm-8.834 3.101c.126.754.325 1.675.63 2.544a1.757 1.757 0 0 0 2.16 1.102l.049-.014c.943-.28 1.485-1.274 1.233-2.236a37.005 37.005 0 0 1-.482-2.077c-.21-1.054-1.247-1.703-2.253-1.4l-.068.02a1.828 1.828 0 0 0-1.27 2.061Zm-6.223 1.803c.126.754.325 1.675.63 2.544a1.756 1.756 0 0 0 2.16 1.102l.05-.015c.942-.28 1.484-1.273 1.233-2.236a36.803 36.803 0 0 1-.483-2.076c-.21-1.054-1.247-1.704-2.253-1.4l-.068.02a1.83 1.83 0 0 0-1.269 2.061Zm-6.224 1.803c.127.754.326 1.675.63 2.544a1.757 1.757 0 0 0 2.16 1.103l.05-.015c.943-.28 1.485-1.273 1.233-2.236a36.887 36.887 0 0 1-.482-2.077c-.21-1.053-1.247-1.703-2.253-1.4l-.068.021a1.828 1.828 0 0 0-1.27 2.06Zm-6.222 1.803c.126.753.325 1.674.629 2.544a1.756 1.756 0 0 0 2.16 1.102l.05-.015c.943-.28 1.484-1.273 1.233-2.236a36.891 36.891 0 0 1-.483-2.077c-.21-1.053-1.246-1.703-2.253-1.4l-.067.02a1.83 1.83 0 0 0-1.27 2.062Zm-6.223 1.804c.126.753.325 1.674.63 2.544a1.757 1.757 0 0 0 2.16 1.102l.049-.014c.943-.28 1.485-1.274 1.233-2.236a36.717 36.717 0 0 1-.482-2.077c-.21-1.054-1.247-1.703-2.254-1.4l-.067.02a1.828 1.828 0 0 0-1.27 2.06Zm-6.224 1.088c.127.754.325 2.39.63 3.26a1.756 1.756 0 0 0 2.16 1.101l.05-.015c.943-.28 1.484-1.273 1.233-2.236a36.713 36.713 0 0 1-.483-2.076c-.21-1.054-1.246-1.704-2.253-1.4l-.067.02c-.881.266-1.423.433-1.27 1.346Zm-6.222 2.519c.126.754.325 1.675.629 2.544a1.757 1.757 0 0 0 2.16 1.103l.05-.015c.943-.28 1.484-1.273 1.233-2.236a36.891 36.891 0 0 1-.483-2.077c-.21-1.053-1.246-1.703-2.253-1.4l-.067.021a1.828 1.828 0 0 0-1.27 2.06Zm-6.223 1.802c.126.754.325 1.675.629 2.544a1.756 1.756 0 0 0 2.16 1.103l.05-.015c.943-.28 1.484-1.273 1.233-2.236a36.693 36.693 0 0 1-.483-2.077c-.21-1.053-1.246-1.703-2.253-1.4l-.067.02a1.83 1.83 0 0 0-1.27 2.061ZM25.674 44.786s8.767 1.586 14.227.933c5.46-.653 96.825-22.67 101.83-24.392 5.005-1.72 7.371-4.06 7.553-5.875" stroke="#000" stroke-width=".184" stroke-miterlimit="10"/><path d="M249.33 158.581c-1.898 2.727-5.372 5.663-5.144 11.426.562 14.167 0 23.727-9.079 25.878h-5.298v-3.027s6.963-.514 8.646-5.691c2.345-7.207-3.823-15.759.879-31.46.917-3.065 1.866-2.402 1.67-.929.056-.305.563-2.765 2.27-4.076 1.823-1.397 1.065.81 1.065.81s2.121-1.93 4.154-1.835c.879.038 1.13.258 1.13.486 0 .306-.428.639-.428.639.777.177 1.414.572 1.819 1.206.827 1.306.679 3.17-1.684 6.573Z" fill="url(#paint0_linear_316_18388)"/><path d="M189.797 167.899s-2.001 8.769-2.729 10.214c-.455.902-1.867 6.311-2.864 10.248-.516 2.039-1.381 3.984-2.674 5.621-.393.495-.735 1.116-.863 1.85h7.349s1.402-1.525.174-2.97l8.827-16.103-7.22-8.86Z" fill="#7C5730"/><path d="M205.142 177.194s-2.498 5.487-2.725 8.844c-.228 3.358 1.569 4.865 1.569 4.865s-2.843.404-4.573 2.409c-1.044 1.211-1.304 2.571-1.304 2.571h16.138l2.047-15.814" fill="#7A5533"/><path d="M231.663 192.226c.167-.246.33-.492.481-.731 2.549-4.043 5.339-13.428-1.721-23.128-6.349-8.728-8.596-5.52-15.075-12.079-6.479-6.554-6.558-14.686-6.558-14.686s2.996-5.644 2.833-6.969c-.146-1.187-4.548-5.681-6.585-9.229-.419-.729-1.149-1.206-1.973-1.25-1.707-.091-4.994-.455-9.661-1.804-7.107-2.055-7.832-3.051-8.744-2.803-.912.253-1.591 1.625-1.702 2.307 0 0-.689 3.151.283 6.306.972 3.151 6.164 7.842 8.21 9.897-.697 1.051-4.287 3.719-6.052 5.689-1.346 1.502-1.436 2.64.488 2.093-2.717 3.563-5.174 11.858-2.199 9.124-.612 6.238 1.218 12.003 4.898 16.016a54.97 54.97 0 0 0 5.427 5.144l-2.257 13.03c-.25 1.445-.749 2.846-1.558 4.058a5.89 5.89 0 0 0-.952 2.674h7.558s.502-.873.577-1.607c.074-.753-.326-1.411-.326-1.411l4.977-13.184.005.005c.06.047.623.514 1.655 1.22a44.084 44.084 0 0 0 2.61 1.649c.325.186.67.381 1.032.582-.069 3.551 1.72 7.072 3.288 7.983-2.169.715-5.232 1.955-5.232 4.763l26.026-.001s1.463-1.591.247-3.658Z" fill="url(#paint1_linear_316_18388)"/><path d="M204.646 176.808c-.367 1.016-.716 2.755-.954 4.1-1.032-.706-1.595-1.173-1.655-1.221l-.005-.004 1.414-3.108s.851-2.055.609-3.175c-.242-1.115-.79-7.336-.73-10.072 0 0 .493 6.349 1.367 9.171.591 1.916.624 2.474-.046 4.309Z" fill="url(#paint2_linear_316_18388)"/><path d="M223.065 176.661c-.252-.077-5.484-1.697-10.456-.739-5.098.977-5.275 7.217-5.275 7.217a91.517 91.517 0 0 1-1.032-.582c.097-1.768.828-6.082 5.6-7.455 4.99-1.43 10.87 1.416 11.163 1.559Z" fill="url(#paint3_linear_316_18388)"/><path d="M185.004 123.391s-1.678-.837-1.86-2.155c-.181-1.317 2.123-3.272 2.87-2.204 1.205 1.724 1.446 5.198-1.01 4.359Z" fill="#000"/><path d="M194.562 172.118c-.032 1.015-.549 4.004-.549 4.004s-.325-.262-.865-.725c.261-.877.521-1.825.623-2.431.242-1.396.242-5.067.242-5.067s.577 3.204.549 4.219Z" fill="url(#paint4_linear_316_18388)"/><path d="M211.426 190.905s3.821-1.508 8.28-1.369" stroke="#000" stroke-width=".184" stroke-miterlimit="10" stroke-linecap="round"/><path d="M200.26 143.675c-3.03.653-8.34-.21-11.693-2.898l1.563-2.097s3.187 2.174 9.325 2.445c.019.062.033.129.051.195.224.835.475 1.631.754 2.355Z" fill="#000"/><path d="M208.925 143.141v.005c-.498.968-1.205 2.374-1.67 3.461-1.004 2.335-2.13 2.783-2.962 1.849 0 0-.191 1.468-1.559.744-1.362-.72-1.809-2.536-1.809-2.536s-.125.786-.874.414c-.749-.371-4.819-10.224 1.358-16.659-.172.234-3.502 4.905-1.902 10.901 1.637 6.154 4.92 10.077 9.283.282 0 0 .005.572.135 1.539Z" fill="url(#paint5_linear_316_18388)"/><path d="M193.703 145.882c.095-.204.134-.441.097-.694a1.172 1.172 0 0 0-.834-.952 1.127 1.127 0 0 0-1.131.317c-.332.353-.776.572-1.255.542l-.386-.024c-.478-.03-.892-.304-1.18-.696a1.134 1.134 0 0 0-1.085-.457c-.441.062-.82.4-.941.84-.067.246-.056.487.013.701.11.337.087.716-.062 1.037a1.211 1.211 0 0 0-.097.693c.067.452.403.835.833.952.438.119.857-.025 1.131-.317.333-.352.777-.572 1.255-.542l.386.025c.479.03.893.303 1.181.696.238.324.635.52 1.085.456.441-.062.82-.4.94-.84a1.213 1.213 0 0 0-.012-.7 1.435 1.435 0 0 1 .062-1.037Z" fill="#000"/><path d="M191.269 141.996s-1.115 1.329-.842 3.474" stroke="#000" stroke-width=".368" stroke-miterlimit="10"/><path d="M195.152 125.876s.848 1.124 2.233 1.441c1.394.319 2.072-.644 2.072-.644" stroke="#000" stroke-width=".368" stroke-miterlimit="10" stroke-linecap="round" stroke-linejoin="round"/><path d="M178.924 42.049s1.696 4.446 2.31 6.275c.382 1.136-.533 6.703-.533 6.703l-3.865-5.61 2.088-7.368Z" fill="url(#paint6_linear_316_18388)"/><path d="m176.835 49.417 3.379 4.9.072-2.452s-.177-1.206-.399-2.252c-.223-1.047-.007-2.4-.141-3.536-.148-1.259-1.244-1.555-1.244-1.555s-.06-.112-.241-.14l-1.426 5.035Z" fill="#000"/><path d="M96.996 38.78s-3.226 5.401-3.665 6.032c-.222.318-1.136 5.895-.887 6.76.257.89 5.397-1.73 5.397-1.73l1.465-1.365-2.31-9.698Z" fill="url(#paint7_linear_316_18388)"/><path d="M94.046 51.493c1.594-.526 3.796-1.652 3.796-1.652l1.462-1.364-1.775-7.483c-.393.205-.816.55-1.045 1.383-.199.726-.376 5.825-.376 5.825l-.6 1.57s-1.108 1.032-1.462 1.721Z" fill="#000"/><path d="m150.986 22.588 31.713 7.891-17.305 61.781-16.74-5.119 2.332-64.553Z" fill="#fff" stroke="#000" stroke-width=".184" stroke-miterlimit="10"/><path d="m150.986 22.588-33.774 6.557 9.329 58.321 22.113-.325 2.332-64.553Z" fill="#fff" stroke="#000" stroke-width=".184" stroke-miterlimit="10"/><path d="M117.212 29.145 94.42 30.387l16.06 61.873 16.061-4.794-9.329-58.321Z" fill="#fff" stroke="#000" stroke-width=".184" stroke-miterlimit="10"/><path opacity=".25" d="m126.066 84.216 23.03-.338 14.129 4.32 15.505-55.354-27.827-6.924-33.309 6.467-19.095 1.04 14.217 54.774 13.35-3.985Z" fill="#FDD000"/><path d="M146.702 137.291s2.315 7.481 2.755 8.722c.44 1.241 16.814 36.437 16.814 36.437l8.175-2.747s-7.102-32.026-12.504-36.73l-1.414-6.76c-4.78-1.849-9.444-1.909-13.826 1.078Z" fill="url(#paint8_linear_316_18388)"/><path d="m125.075 186.962 9.288.184s2.115-24.841 1.786-30.929c-.334-6.093-1.084-10.006-1.084-10.006l1.742-9.399c-4.792-2.985-9.685-3.738-13.914-2.07-.448 3.23-.971 7.308-1.161 10.032-.227 3.242 3.343 42.188 3.343 42.188Z" fill="url(#paint9_linear_316_18388)"/><path d="M154.839 103.147s2.873 5.772 2.873 9.474.606 7.671.606 7.671l3.523 19.482s-7.167 3.009-16.842 2.91l-3.01-18.103-.56.171-1.053 18.158s-13.323 1.36-18.644-2.111c0 0 1.395-12.308 1.941-16.887 1.624-13.604 4.139-23.409 4.139-23.409l27.027 2.644Z" fill="#313131"/><path d="M144.412 123.392s-.598.609-1.263.875c-.484.193-1.16.314-1.16.314l.801 4.817 1.622-6.006Z" fill="#000"/><path d="m141.428 124.753 1.47-.349s2.236-.661 3.147-4" stroke="#000" stroke-width=".184" stroke-miterlimit="10" stroke-linecap="round"/><path d="M165.39 75.001c3.391-7.588 8.393-15.455 8.393-15.455.205-.99.446-3.029.936-5.304.325-1.511 1.392-2.914 1.392-2.914s-.415-3.308.562-5.038c1.036-1.832 2.856-1.197 2.637.752-.268 2.39.502 3.77.502 3.77s1.402 2.35 1.304 3.703c-.178 2.429-2.494 6.724-2.494 6.724s-3.4 23.863-7.916 26.64c-3.489 2.145-8.997-2.579-8.997-2.579s2.567-7.806 3.681-10.299Z" fill="url(#paint10_linear_316_18388)"/><path d="m119.765 71.25-3.626 1.309-13.746-17.118-5.412 2.669s6.871 15.86 13.739 23.72c2.676 3.062 11.659.842 11.659.842l-2.614-11.421Z" fill="url(#paint11_linear_316_18388)"/><path d="M140.926 43.577c-1.505 2.083-2.739 5.136-3.963 9.54-1.238 4.456.403 6.61 4.954 7.67 0 1.879-.219 5.894-.219 5.894l-1.405.96s.902 1.009 4.566 1.372c3.664.363 7.594-2.778 7.594-2.778l-1.862-.371-1.151-5.654s4.894-4.322 5.603-10.378c.709-6.057-9.592-12.52-14.117-6.255Z" fill="url(#paint12_linear_316_18388)"/><path d="M147.508 67.438c-3.931.553-5.81-.756-5.81-.756s-1.58.277-3.441.198c-2.37-.1-3.501-.61-5.407-.508-2.366.127-14.544 5.225-14.544 5.225-1.515 5.52 3.481 14.4 3.481 14.4l9.675-2.069c-1.938 6.238-3.414 12-5.251 21.947 0 0 2.827 4.153 14.644 5.086 10.742.848 17.408-2.803 17.408-2.803s-4.004-13.405-3.101-16.115c.903-2.71 2.195-6.56 2.195-6.56l4.154 3.394c6.579-2.71 7.906-10.055 7.906-10.055s-8.117-10.75-10.493-12.598c-1.796-1.396-4.978-.775-5.944-.55-1.135.265-2.388.19-2.388.19s-.719 1.241-3.084 1.574Z" fill="#FDD000"/><path d="M148.562 34.323c2.119.623 3.835 2.796 3.57 5.038.696-.98 1.935-1.107 2.554-.81.682.326.577 1.325-.192 1.894 1.127-.31 3.116-.78 4.43.77.812.96.55 2.85-1.055 3.45 1.715.767 3.696 3.46 4.137 5.462.256 1.167.385 5.105-5.181 4.36 1.199 1.945.762 5.047-.749 5.645-1.043.413-2.24-.02-2.814-.508-.048.84-.855 1.586-1.799 1.593-.746.005-1.415-.224-1.873-.828-.612.962-1.909 1.453-3.028 1.403-2.601-.116-3.172-1.977-3.218-2.68-2.348-.848-2.635-2.895-2.775-4.176-.153-1.409.74-3.236 1.555-3.511-1.101.254-2.438-.599-2.682-1.438-.317-1.086.048-2.137.577-2.674-1.015-.113-3.439-.795-3.687-3.432-.272-2.896 1.431-4.245 2.466-4.404-.352-.372-.382-1.168-.251-1.669.496-1.909 2.876-1.98 4.555-1.612.975-1.904 3.534-2.44 5.46-1.873Z" fill="#000"/><path d="M136.592 187.315s-.324-2.525-1.868-3.057c-1.461-.503-4.55-.539-6.346.176-1.317.524-1.6 2.246-1.6 2.246l-1.723.058-.26-2.85s-2.038-.504-2.588.296c-.28.408.502 2.207.749 2.736-.798.042-4.052-.028-5.907 2.054-1.515 1.701-1.606 3.855-1.42 5.352-.605.73-.254 1.799-.254 1.799h22.865s.188-1.154-.291-1.799c.434-1.865.654-4.808-1.357-7.011Z" fill="url(#paint13_linear_316_18388)"/><path d="M180.842 186.954s.241-1.268-.73-3.223c-1.365-2.752-4.568-3.989-4.568-3.989s-.261-1.975-1.871-1.89c-1.61.085-4.554 1.255-5.338 1.89-.785.634-.402 2.149-.402 2.149l-1.662.558-1.438-3.093s-1.699.301-2.153 1.317c-.454 1.015 2.476 2.75 2.476 2.75l-.674 3.073s-3.453-.366-5.434 1.199c-1.583 1.251-2.007 4.116-1.65 6.631-.387.251-.308 1.243-.125 1.8h14.034l9.535-9.172Z" fill="url(#paint14_linear_316_18388)"/><path d="M137.453 194.325h-21.354" stroke="#000" stroke-width=".184" stroke-miterlimit="10" stroke-linecap="round" stroke-linejoin="round"/><path d="M178.901 196.124s.457-1.786.915-3.755c.509-2.186 1.025-4.619 1.025-5.542 0-.979-.805-1.925-2.415-2.221-1.811-.333-4.277.434-5.139 2.214-1.836 3.793-3.611 9.304-3.611 9.304h9.225Z" fill="#000"/><path d="M180.037 184.12s-1.022-1.155-3.158-1.099c-2.433.063-3.853.754-4.692 2.376-.793 1.532-3.791 8.919-3.791 8.919h-10.574" stroke="#000" stroke-width=".184" stroke-miterlimit="10" stroke-linecap="round" stroke-linejoin="round"/><path d="M102.393 55.44s-.045-1.911-.526-4.188c-.207-.979-.874-2.003-1.584-3.87-.311-2.792-.337-3.786-.918-4.825-.519-.926-1.866-1.123-2.355-.152-.342.681-.149 6.268-.149 6.268l-4.417 2.898c.298 1.275 2.044 3.468 4.536 6.538l5.413-2.668Z" fill="url(#paint15_linear_316_18388)"/><path d="M147.66 77.838s-.962-7.382-6.642-11.45c0 0-3.163.169-4.454.338 0 0 2.321 3.692 2.854 11.84l8.242-.728Zm4.507 2.368s5.543-5.01 8.041-5.01c0 0 4.244 2.015 4.709 2.916 3.776 7.315 1.014 29.334-2.817 32.975-3.832 3.643-6.778 4.4-6.778 4.4l-3.155-35.28Z" fill="#000"/><path d="M160.208 82.392s.133-2.367-.267-4.143" stroke="#fff" stroke-width=".184" stroke-miterlimit="10" stroke-linecap="round" stroke-linejoin="round"/><path d="M164.206 82.984s-15.047-8.165-22.42-9.014c0 0-4.832.022-7.687 5.341 0 0-5.007 28.529-4.834 30.836.047.626 4.112 7.8 6.156 8.392 8.776 2.326 24.497-1.108 26.679-1.108 2.994 0 6.005-30.32 2.106-34.447Z" fill="url(#paint16_linear_316_18388)"/><path opacity=".6" d="M136.807 110.469c.086 1.005 8.608 5.748 26.251 5.975 2.602-5.245 4.623-29.779 1.149-33.46 0 0-14.744-8.004-22.196-8.981.204 2.164.386 6.236-.227 11.895-.945 8.74-5.099 23.194-4.977 24.571Z" fill="url(#paint17_linear_316_18388)"/><path d="M168.216 97.494c-.032-.504-.348-1.077-.812-1.248-2.692-.993-13.01-4.402-16.658-4.431-1.422-.012-5.898 1.942-7.028 2.792-1.131.85-3.545 12.049-3.1 18.741.011.173 2.215 3.456 6.084 4.052 6.95 1.07 16.823 1.078 17.563.88 1.411-.379 4.286-15.535 3.951-20.786Zm-38.602-7.186s.032 5.877 3.378 12.129l-1.184 3.582s-2.947-5.545-3.88-11.412c.266-1.973 1.686-4.3 1.686-4.3Z" fill="#000"/><path d="m132.652 100.624-1.392 6.161.696 1.002 2.073-5.236-1.377-1.927Z" fill="#000"/><path d="M149.835 93.59s-3.983 8.742-3.783 22.855" stroke="#fff" stroke-width=".184" stroke-miterlimit="10" stroke-linecap="round" stroke-linejoin="round"/><path d="M167.76 98.416s-2.903 6.328-4.709 7.128c-.487.216-9.932-1.988-10.365-2.257-.978-.607-2.044-9.56-2.044-9.56s-.096-.933-.829-.888c-.733.046-5.064 1.812-5.664 2.283" stroke="#fff" stroke-width=".184" stroke-miterlimit="10" stroke-linecap="round" stroke-linejoin="round"/><path d="M159.445 103.037s-.244 3.642 1.051 6.419l-4.309.698s-.969-3.22.674-7.727l2.584.61Z" fill="#FDD000"/><path d="M137.931 75.196s.569 7.908-1.77 15.112" stroke="#000" stroke-width=".368" stroke-miterlimit="10" stroke-linecap="round"/><path d="m136.972 89.128.033.025a.708.708 0 0 1 .27.423l.959 4.546a.705.705 0 0 1-.528.84c-.473.103-1.13.201-1.742.142-.379-.037-.649-.396-.605-.784l.525-4.7a.708.708 0 0 1 .317-.517.676.676 0 0 1 .771.025Z" fill="#000"/><path d="M.404 196.125h299.192m-145.533 3.053h97.408m-138.041 0h30.302m-86.652 0h47.841" stroke="#000" stroke-width=".368" stroke-miterlimit="10" stroke-linecap="round"/><path d="m228.88 41.4-.254-4.69.898-.052 2.95 3.22-.436.024-.182-3.377 1.071-.06.254 4.69-.891.05-2.956-3.219.435-.025.183 3.377-1.072.061Zm7.129-.352a2.344 2.344 0 0 1-1.099-.18 1.793 1.793 0 0 1-.752-.616 1.813 1.813 0 0 1-.306-.943 1.83 1.83 0 0 1 .196-.973c.154-.29.372-.523.654-.695.282-.178.606-.277.972-.298.353-.02.674.038.964.174.293.131.53.333.711.605.18.267.281.596.302.984a2.132 2.132 0 0 1-.005.283l-2.928.166-.033-.61 2.379-.135-.393.204a.993.993 0 0 0-.14-.483.803.803 0 0 0-.332-.303.895.895 0 0 0-.476-.094.935.935 0 0 0-.469.147.8.8 0 0 0-.297.346 1.03 1.03 0 0 0-.087.503l.009.16c.01.197.062.369.155.516.098.142.227.25.387.32.165.068.355.095.569.083a1.23 1.23 0 0 0 .886-.4l.589.571a1.667 1.667 0 0 1-.6.471c-.245.113-.53.178-.856.197Zm3.193-.236-1.495-3.53.985-.056 1.247 3.04-.469.027.957-3.166.885-.05 1.259 3.04-.468.026.944-3.165.924-.053-1.111 3.68-1.012.057-1.102-2.606.308-.017-.847 2.716-1.005.057Zm8.587-.488-.104-1.916.283.642-2.249-3.313 1.153-.065 1.723 2.543-.663.038 1.445-2.724 1.065-.06-1.877 3.547.205-.67.104 1.916-1.085.062Zm4.607-.208a2.132 2.132 0 0 1-1.039-.183 1.872 1.872 0 0 1-.738-.617 1.815 1.815 0 0 1-.307-.943c-.02-.362.048-.686.203-.973.159-.291.381-.523.668-.697.29-.177.627-.277 1.012-.299.379-.022.723.04 1.031.183.308.14.554.343.739.61.184.267.287.584.306.95.02.358-.048.682-.202.973a1.83 1.83 0 0 1-.668.697 2.125 2.125 0 0 1-1.005.299Zm-.047-.858a.925.925 0 0 0 .463-.147.865.865 0 0 0 .309-.36 1.14 1.14 0 0 0 .092-.543 1.105 1.105 0 0 0-.15-.53.859.859 0 0 0-.347-.322.913.913 0 0 0-.475-.094.918.918 0 0 0-.462.147.912.912 0 0 0-.317.36 1.107 1.107 0 0 0-.091.544c.011.205.061.381.149.529a.91.91 0 0 0 .354.322.914.914 0 0 0 .475.094Zm2.718.652-.195-3.604.999-.057.055 1.018-.157-.287c.093-.26.255-.462.485-.605.229-.148.514-.231.853-.25l.052.965a1.246 1.246 0 0 0-.121 0 .92.92 0 0 0-.114 0c-.286.016-.514.111-.683.287-.166.17-.239.428-.221.772l.093 1.702-1.046.06Zm3.69-.949-.042-1.274 1.595-1.69 1.246-.072-1.525 1.734-.519.473-.755.83Zm-.824.786-.269-4.971 1.045-.06.269 4.972-1.045.06Zm2.686-.152-1.301-1.445.613-.849 1.955 2.222-1.267.072Zm-23.91 25.922.243-3.4-1.34-.103.057-.79 3.649.282-.057.79-1.34-.103-.243 3.399-.969-.075Zm3.965.355a1.917 1.917 0 0 1-.9-.286 1.696 1.696 0 0 1-.586-.635 1.64 1.64 0 0 1-.166-.874c.023-.323.12-.602.289-.838.173-.24.397-.419.67-.538.277-.123.588-.171.931-.145.339.027.637.122.893.286.258.16.453.37.587.63.134.258.189.552.166.879a1.63 1.63 0 0 1-.289.838 1.611 1.611 0 0 1-.67.538 1.89 1.89 0 0 1-.925.145Zm.055-.766a.816.816 0 0 0 .426-.075.765.765 0 0 0 .315-.283 1 1 0 0 0 .142-.47.99.99 0 0 0-.073-.487.78.78 0 0 0-.271-.328.828.828 0 0 0-.411-.14.82.82 0 0 0-.427.075.821.821 0 0 0-.321.282.995.995 0 0 0-.142.47c-.013.184.012.346.074.487a.817.817 0 0 0 .277.329.821.821 0 0 0 .411.14Zm3.156.304.105-1.135 1.604-1.308 1.112.086-1.546 1.355-.513.357-.762.645Zm-.819.599.318-4.44.933.072-.318 4.44-.933-.072Zm2.399.186-.992-1.437.638-.679 1.484 2.203-1.13-.087Zm1.677 1.345a1.647 1.647 0 0 1-.491-.116 1.112 1.112 0 0 1-.385-.247l.389-.638a.82.82 0 0 0 .511.245.466.466 0 0 0 .318-.072.765.765 0 0 0 .238-.288l.195-.383.079-.096 1.354-2.687.897.07-1.698 3.304a1.998 1.998 0 0 1-.403.583 1.08 1.08 0 0 1-.465.276 1.505 1.505 0 0 1-.539.049Zm.628-1.04-1.196-3.457.963.075.92 2.779-.687.602Zm4.068.236a1.918 1.918 0 0 1-.9-.286 1.688 1.688 0 0 1-.586-.635 1.63 1.63 0 0 1-.166-.874c.023-.323.119-.602.288-.838.174-.24.397-.418.671-.538.277-.123.587-.17.93-.144.339.026.637.121.894.285.257.16.453.37.586.63.134.259.189.552.166.879-.023.32-.119.599-.289.838a1.605 1.605 0 0 1-.67.538 1.885 1.885 0 0 1-.924.145Zm.054-.766a.82.82 0 0 0 .427-.075.765.765 0 0 0 .315-.283c.081-.13.129-.287.142-.47a1.003 1.003 0 0 0-.073-.487.783.783 0 0 0-.272-.328.821.821 0 0 0-.411-.14.818.818 0 0 0-.426.075.807.807 0 0 0-.321.282.984.984 0 0 0-.142.47c-.013.184.011.346.073.488a.831.831 0 0 0 .277.328.828.828 0 0 0 .411.14Z" fill="#fff"/></g><defs><linearGradient id="paint0_linear_316_18388" x1="236.181" y1="191.811" x2="246.486" y2="151.462" gradientUnits="userSpaceOnUse"><stop stop-color="#69401D"/><stop offset="1" stop-color="#9D744A"/></linearGradient><linearGradient id="paint1_linear_316_18388" x1="182.331" y1="157.697" x2="234.898" y2="157.697" gradientUnits="userSpaceOnUse"><stop stop-color="#A67C52"/><stop offset="1" stop-color="#825730"/></linearGradient><linearGradient id="paint2_linear_316_18388" x1="202.032" y1="172.118" x2="205.142" y2="172.118" gradientUnits="userSpaceOnUse"><stop stop-color="#825A38"/><stop offset="1" stop-color="#654821"/></linearGradient><linearGradient id="paint3_linear_316_18388" x1="206.302" y1="178.92" x2="223.064" y2="178.92" gradientUnits="userSpaceOnUse"><stop offset=".01" stop-color="#704826"/><stop offset="1" stop-color="#462E18"/></linearGradient><linearGradient id="paint4_linear_316_18388" x1="193.148" y1="172.011" x2="194.563" y2="172.011" gradientUnits="userSpaceOnUse"><stop stop-color="#7C4B21"/><stop offset="1" stop-color="#77501C"/></linearGradient><linearGradient id="paint5_linear_316_18388" x1="198.043" y1="139.91" x2="208.925" y2="139.91" gradientUnits="userSpaceOnUse"><stop stop-color="#785334"/><stop offset="1" stop-color="#845E2B"/></linearGradient><linearGradient id="paint6_linear_316_18388" x1="168.526" y1="84.812" x2="181.281" y2="45.781" gradientUnits="userSpaceOnUse"><stop stop-color="#914713"/><stop offset="1" stop-color="#AF6145"/></linearGradient><linearGradient id="paint7_linear_316_18388" x1="117.363" y1="79.714" x2="91.761" y2="42.541" gradientUnits="userSpaceOnUse"><stop stop-color="#914713"/><stop offset="1" stop-color="#AF6145"/></linearGradient><linearGradient id="paint8_linear_316_18388" x1="134.23" y1="142.797" x2="178.947" y2="166.931" gradientUnits="userSpaceOnUse"><stop stop-color="#914713"/><stop offset="1" stop-color="#AF6145"/></linearGradient><linearGradient id="paint9_linear_316_18388" x1="107.853" y1="148.787" x2="142.961" y2="167.735" gradientUnits="userSpaceOnUse"><stop stop-color="#914713"/><stop offset="1" stop-color="#AF6145"/></linearGradient><linearGradient id="paint10_linear_316_18388" x1="167.618" y1="84.515" x2="180.373" y2="45.484" gradientUnits="userSpaceOnUse"><stop stop-color="#914713"/><stop offset="1" stop-color="#AF6145"/></linearGradient><linearGradient id="paint11_linear_316_18388" x1="117.046" y1="79.648" x2="90.306" y2="40.824" gradientUnits="userSpaceOnUse"><stop stop-color="#914713"/><stop offset="1" stop-color="#AF6145"/></linearGradient><linearGradient id="paint12_linear_316_18388" x1="148.715" y1="68.903" x2="144.444" y2="45.814" gradientUnits="userSpaceOnUse"><stop stop-color="#914713"/><stop offset="1" stop-color="#AF6145"/></linearGradient><linearGradient id="paint13_linear_316_18388" x1="138.277" y1="189.928" x2="115.274" y2="189.928" gradientUnits="userSpaceOnUse"><stop stop-color="#FDD000"/><stop offset="1" stop-color="#5E411C"/></linearGradient><linearGradient id="paint14_linear_316_18388" x1="165.468" y1="197.492" x2="172.928" y2="180.411" gradientUnits="userSpaceOnUse"><stop stop-color="#FDD000"/><stop offset="1" stop-color="#775222"/></linearGradient><linearGradient id="paint15_linear_316_18388" x1="116.161" y1="78.168" x2="91.739" y2="42.707" gradientUnits="userSpaceOnUse"><stop stop-color="#914713"/><stop offset="1" stop-color="#AF6145"/></linearGradient><linearGradient id="paint16_linear_316_18388" x1="152.434" y1="71.412" x2="145.729" y2="116.391" gradientUnits="userSpaceOnUse"><stop stop-color="#B0B0B0"/><stop offset="1" stop-color="#483635"/></linearGradient><linearGradient id="paint17_linear_316_18388" x1="156.133" y1="72.468" x2="150.237" y2="112.019" gradientUnits="userSpaceOnUse"><stop stop-color="#B5B6B1"/><stop offset="1"/></linearGradient><clipPath id="clip0_316_18388"><path fill="#fff" d="M0 0h300v199H0z"/></clipPath></defs></svg>