<svg width="36" height="42" viewBox="0 0 36 42" fill="none" xmlns="http://www.w3.org/2000/svg"><g clip-path="url(#clip0_141_7900)"><path d="M19.753.23H4.851a4.412 4.412 0 0 0-3.1 1.268 4.299 4.299 0 0 0-1.283 3.06v32.884a4.3 4.3 0 0 0 1.284 3.06 4.412 4.412 0 0 0 3.099 1.267H31.15c.575 0 1.145-.112 1.677-.33a4.386 4.386 0 0 0 1.422-.937c.407-.402.73-.879.95-1.404a4.28 4.28 0 0 0 .334-1.656V15.808L23.26 12.346 19.753.231Z" fill="url(#paint0_linear_141_7900)"/><path d="M19.753.23H4.851a4.412 4.412 0 0 0-3.1 1.268 4.299 4.299 0 0 0-1.283 3.06v32.884a4.3 4.3 0 0 0 1.284 3.06 4.412 4.412 0 0 0 3.099 1.267H31.15c.575 0 1.145-.112 1.677-.33a4.386 4.386 0 0 0 1.422-.937c.407-.402.73-.879.95-1.404a4.28 4.28 0 0 0 .334-1.656V15.808L23.26 12.346 19.753.231Z" fill="url(#paint1_radial_141_7900)" fill-opacity=".5"/><path d="M19.286 0H4.383a4.412 4.412 0 0 0-3.1 1.267A4.299 4.299 0 0 0 0 4.327v32.885c0 1.147.462 2.248 1.284 3.06a4.412 4.412 0 0 0 3.1 1.267h26.298c.575 0 1.145-.113 1.677-.33a4.389 4.389 0 0 0 1.422-.938c.407-.402.73-.879.95-1.404.22-.525.334-1.087.334-1.655V15.576l-12.273-3.462L19.286 0Z" fill="url(#paint2_radial_141_7900)" fill-opacity=".3"/><path d="M19.753 13.211V.231l15.78 15.577h-13.15a2.647 2.647 0 0 1-1.86-.76 2.58 2.58 0 0 1-.77-1.837Z" fill="url(#paint3_linear_141_7900)"/><path d="M19.753 13.211V.231l15.78 15.577h-13.15a2.647 2.647 0 0 1-1.86-.76 2.58 2.58 0 0 1-.77-1.837Z" fill="url(#paint4_linear_141_7900)"/></g><defs><linearGradient id="paint0_linear_141_7900" x1="25.013" y1=".231" x2="27.385" y2="32.424" gradientUnits="userSpaceOnUse"><stop stop-color="#C1C1C1"/><stop offset="1" stop-color="#4A4A4A"/></linearGradient><linearGradient id="paint3_linear_141_7900" x1="27.643" y1=".231" x2="27.643" y2="15.808" gradientUnits="userSpaceOnUse"><stop stop-color="#D9D9D9"/><stop offset="1" stop-color="#737373"/></linearGradient><linearGradient id="paint4_linear_141_7900" x1="27.617" y1="6.721" x2="23.746" y2="13.255" gradientUnits="userSpaceOnUse"><stop stop-color="#B1B1B1"/><stop offset="1" stop-color="#F7FCFF"/></linearGradient><radialGradient id="paint1_radial_141_7900" cx="0" cy="0" r="1" gradientUnits="userSpaceOnUse" gradientTransform="rotate(134.335 18.176 8.552) scale(28.4323 16.8126)"><stop stop-color="#E2D115"/><stop offset="1" stop-color="#282736" stop-opacity="0"/></radialGradient><radialGradient id="paint2_radial_141_7900" cx="0" cy="0" r="1" gradientUnits="userSpaceOnUse" gradientTransform="rotate(134.335 17.99 8.338) scale(28.4323 16.8126)"><stop stop-color="#151412"/><stop offset=".362"/><stop offset="1" stop-color="#EDE7CF"/></radialGradient><clipPath id="clip0_141_7900"><path fill="#fff" d="M0 0h36v42H0z"/></clipPath></defs></svg>