<svg width="100" height="100" viewBox="0 0 100 100" fill="none" xmlns="http://www.w3.org/2000/svg"><g opacity=".61" fill="#fff"><path d="m42.753 92.234-1.112 2.57h-.587l-1.109-2.57h.642l.782 1.835.793-1.835h.59Zm1.948 1.714h-1.493c.055.246.264.397.565.397a.67.67 0 0 0 .495-.191l.305.33c-.184.21-.46.32-.815.32-.683 0-1.127-.43-1.127-1.017 0-.59.452-1.017 1.053-1.017.58 0 1.028.39 1.028 1.024 0 .044-.007.107-.01.154Zm-1.5-.334h.972a.47.47 0 0 0-.485-.41.467.467 0 0 0-.488.41Zm1.746.173c0-.595.459-1.017 1.1-1.017.416 0 .742.18.886.503l-.444.239a.492.492 0 0 0-.445-.272c-.29 0-.517.202-.517.547 0 .345.227.547.517.547.18 0 .338-.081.445-.272l.444.242c-.144.316-.47.5-.885.5-.642 0-1.101-.422-1.101-1.017Zm3.618.892a.818.818 0 0 1-.466.124c-.466 0-.737-.238-.737-.708v-.811h-.305v-.44h.305v-.481h.572v.48h.492v.441h-.492v.804c0 .169.092.26.246.26a.385.385 0 0 0 .231-.073l.154.404Zm3.93-1.879v.528c-.048-.004-.085-.008-.129-.008-.315 0-.524.173-.524.551v.932h-.573V92.83h.547v.26c.14-.19.374-.29.679-.29Zm.165 1.706.202-.448c.216.158.539.268.847.268.353 0 .496-.117.496-.275 0-.481-1.494-.15-1.494-1.105 0-.437.352-.8 1.083-.8.323 0 .653.077.891.228l-.183.451a1.45 1.45 0 0 0-.712-.202c-.352 0-.488.132-.488.294 0 .473 1.493.147 1.493 1.09 0 .43-.356.796-1.09.796-.407 0-.818-.12-1.045-.297Zm4.426-.558h-1.494c.055.246.264.396.565.396a.67.67 0 0 0 .495-.19l.305.33c-.184.209-.459.32-.815.32-.683 0-1.127-.43-1.127-1.017 0-.591.452-1.017 1.054-1.017.58 0 1.027.389 1.027 1.024 0 .044-.007.106-.01.154Zm-1.502-.334h.973a.47.47 0 0 0-.484-.411.468.468 0 0 0-.489.411Zm3.817.334h-1.494c.056.246.265.396.566.396a.67.67 0 0 0 .495-.19l.305.33c-.184.209-.46.32-.815.32-.683 0-1.127-.43-1.127-1.017 0-.591.451-1.017 1.053-1.017.58 0 1.028.389 1.028 1.024 0 .044-.007.106-.01.154Zm-1.5-.334h.972a.47.47 0 0 0-.485-.411.468.468 0 0 0-.488.411Zm2.741.415-.276.272v.502h-.572V92.08h.572v1.541l.837-.792h.683l-.823.837.896 1.137h-.694l-.623-.774Zm-9.322 1.043-.572-.572c-.087.101-.19.188-.307.257a1.025 1.025 0 0 1-.056.04l.605.605a.233.233 0 1 0 .33-.33Zm-1.323-2.423a.258.258 0 0 1 .184-.055.259.259 0 0 0-.35.041l-.03.002a.113.113 0 0 0-.056-.155.156.156 0 0 1 .012.157 1.083 1.083 0 1 0 .24.01Zm-.4.282c.086 0 .168.022.24.062a.472.472 0 0 1 .616.084.494.494 0 0 0-.618-.027.492.492 0 0 0-.464-.065.494.494 0 0 1 .225-.054Zm.757.888a.553.553 0 0 1-.52.752.555.555 0 0 1-.518-.752.433.433 0 1 1 .519-.688.432.432 0 0 1 .726.32.433.433 0 0 1-.207.368Z"/><path d="M50.333 93.412a.18.18 0 1 1-.123-.17.099.099 0 0 0 .119.135.162.162 0 0 1 .004.035Zm-.683 0a.136.136 0 1 1-.092-.13.075.075 0 0 0 .09.102.131.131 0 0 1 .003.028Zm-.945.154h-.124v.123h.124v-.123Zm2.383 0h-.123v.123h.123v-.123Z"/><path d="M51.04 93.616h-.027a1.18 1.18 0 0 0-1.178-1.178 1.18 1.18 0 0 0-1.178 1.178h-.028c0-.322.125-.625.353-.852.228-.228.53-.354.853-.354a1.2 1.2 0 0 1 .853.354c.227.227.353.53.353.852Z"/><path d="M49.897 92.363h-.124v.123h.124v-.123Z"/><path d="M50.68 92.41h-1.69v.028h1.69v-.028Z"/><path d="M49.035 92.43a.04.04 0 1 1-.079 0 .04.04 0 0 1 .079 0Zm1.684 0a.04.04 0 1 1-.079 0 .04.04 0 0 1 .079 0Zm12.152 2.252c0 .311-.473.311-.473 0 0-.312.473-.312.473 0ZM32.348 93.31l.354 1.217.371-1.217h.443l-.564 1.628h-.466l-.168-.48-.144-.541-.145.541-.167.48h-.466l-.568-1.628h.446l.371 1.217.352-1.217h.35Zm2.995 0 .354 1.217.37-1.217h.444l-.565 1.628h-.466l-.167-.48-.145-.541-.144.541-.167.48h-.466l-.568-1.628h.446l.371 1.217.351-1.217h.352Zm2.994 0 .355 1.217.37-1.217h.444l-.565 1.628h-.466l-.167-.48-.145-.541-.144.541-.167.48h-.466l-.568-1.628h.446l.37 1.217.352-1.217h.351Zm1.844 1.394c0 .312-.472.312-.472 0s.472-.312.472 0Zm24.361-.022a.832.832 0 0 1-.623.256c-.47 0-.86-.283-.86-.857 0-.574.39-.857.86-.857.23 0 .407.066.584.24l-.253.266a.49.49 0 0 0-.325-.128c-.269 0-.466.197-.466.48 0 .308.21.472.46.472a.486.486 0 0 0 .354-.135l.269.263Zm1.819-.588c0 .466-.318.844-.843.844-.526 0-.84-.378-.84-.844 0-.463.321-.843.836-.843.516 0 .847.38.847.843Zm-1.283 0c0 .246.148.476.44.476.292 0 .44-.23.44-.476 0-.243-.171-.48-.44-.48-.29.001-.44.237-.44.48Zm2.636.844v-.867c0-.213-.111-.407-.331-.407-.217 0-.345.194-.345.407v.867h-.4v-1.622h.37l.03.197c.086-.164.273-.223.427-.223.194 0 .387.079.48.302a.586.586 0 0 1 .54-.296c.46 0 .687.283.687.768v.873h-.4v-.873c0-.213-.09-.394-.306-.394s-.351.187-.351.401v.866h-.4Z"/></g><g opacity=".61" fill="#fff"><path d="M69.198 86.26a.428.428 0 0 0-.438-.428c-.185-.003-.167.024-.167-.174 0-.219-.002-.438 0-.658a.278.278 0 0 0-.072-.195l-1.404-1.602c-.024-.028-.055-.05-.083-.074h-3.728c-.158.059-.228.174-.227.342.002.75 0 1.5 0 2.249 0 .111 0 .118-.11.11-.299-.02-.503.197-.499.498.009.696.003 1.391.003 2.086 0 .316.173.489.49.49.116 0 .116 0 .116.12v1.331c0 .239.117.355.354.355h4.808c.234 0 .351-.117.352-.35v-1.353c0-.102 0-.102.104-.103.054 0 .108.002.162-.012a.423.423 0 0 0 .338-.413c.004-.74.004-1.48 0-2.22Zm-5.69-2.828h3.201c.11 0 .111.002.111.113v1.346c0 .162.05.211.212.211h1.147c.091 0 .095.005.096.097v.533c0 .095-.005.1-.101.1h-4.667c-.11 0-.11 0-.11-.113v-2.174c0-.112.001-.113.11-.113Zm4.656 6.884h-4.652c-.115 0-.115 0-.115-.116v-1.198c0-.093.005-.097.096-.098h4.682c.095 0 .1.004.1.101v1.198c0 .112-.001.113-.11.113Z"/><path d="M65.835 83.41h-.351v.211h.35v-.21Zm-.351.211h-.352v.211h.352v-.21Zm.351.211h-.351v.211h.35v-.21Zm-.351.211h-.352v.21h.352v-.21Zm.351.211h-.351v.21h.35v-.21Zm-.351.211h-.352v.21h.352v-.21Zm.351.21h-.351v.211h.35v-.21Zm-.351.211h-.352v.211h.352v-.21Zm.351.211h-.351v.211h.35v-.21Zm-.351.211h-.352v.21h.352v-.21Zm.351.211h-.351v.21h.35v-.21Zm-.351.211h-.352v.21h.352v-.21Zm-27.957.53a.428.428 0 0 0-.437-.428c-.185-.003-.167.024-.167-.174 0-.219-.002-.438 0-.658a.278.278 0 0 0-.072-.195l-1.404-1.602c-.024-.028-.055-.05-.083-.074h-3.728c-.159.059-.228.174-.227.342.002.75 0 1.5 0 2.249 0 .111 0 .118-.11.11-.299-.02-.503.197-.499.498.009.696.003 1.391.003 2.086 0 .316.173.489.49.49.116 0 .116 0 .116.12v1.331c0 .239.116.355.354.355h4.808c.234 0 .351-.117.351-.35v-1.353c0-.102.001-.102.105-.103.054 0 .108.002.161-.012a.426.426 0 0 0 .34-.413c.002-.74.003-1.48 0-2.22Zm-5.69-2.828h3.202c.11 0 .111.002.111.113v1.346c0 .162.05.211.212.211h1.147c.091 0 .095.005.096.097v.533c0 .095-.005.1-.101.1h-4.667c-.11 0-.11 0-.11-.113v-2.174c0-.112.001-.113.11-.113Zm4.657 6.884h-4.652c-.115 0-.115 0-.115-.116v-1.198c0-.093.005-.097.096-.098h4.682c.095 0 .1.004.1.101v1.198c0 .112-.001.113-.11.113Z"/><path d="M31.956 88.134v-1.58h.556c.075 0 .145.013.21.037a.48.48 0 0 1 .328.462.483.483 0 0 1-.328.464.602.602 0 0 1-.21.037h-.258v.58h-.298Zm.56-.863c.078 0 .137-.022.176-.066a.22.22 0 0 0 .06-.152.237.237 0 0 0-.014-.082.186.186 0 0 0-.045-.07.218.218 0 0 0-.074-.047.277.277 0 0 0-.103-.017h-.263v.434h.263Zm.746-.717h.346l.635 1.059h.018l-.018-.304v-.755h.296v1.58h-.313l-.671-1.119h-.018l.018.305v.814h-.293v-1.58Zm2.322.713h.775a.538.538 0 0 1 .015.139.878.878 0 0 1-.046.287c-.03.09-.08.17-.146.24a.73.73 0 0 1-.253.174.869.869 0 0 1-.338.062.854.854 0 0 1-.589-.234.825.825 0 0 1-.245-.591.812.812 0 0 1 .51-.763.854.854 0 0 1 .324-.062.85.85 0 0 1 .343.066.775.775 0 0 1 .26.183l-.206.201a.546.546 0 0 0-.172-.125.548.548 0 0 0-.227-.043.552.552 0 0 0-.375.148.52.52 0 0 0-.116.171.565.565 0 0 0-.043.224.56.56 0 0 0 .043.224.51.51 0 0 0 .288.28.554.554 0 0 0 .207.039.5.5 0 0 0 .362-.13.352.352 0 0 0 .076-.1.575.575 0 0 0 .05-.136h-.497v-.254Zm9.22-1.007a.428.428 0 0 0-.438-.428c-.185-.003-.166.024-.167-.174V85a.278.278 0 0 0-.072-.195c-.468-.534-.935-1.069-1.404-1.602-.023-.028-.054-.05-.082-.074h-3.728c-.16.059-.228.174-.228.342.002.75 0 1.5 0 2.249 0 .111 0 .118-.11.11-.299-.02-.503.197-.499.498.01.696.003 1.391.003 2.086 0 .316.173.489.49.49.116 0 .116 0 .116.12v1.331c0 .239.117.355.354.355h4.808c.234 0 .351-.117.352-.35v-1.353c0-.102 0-.102.104-.103.054 0 .108.002.162-.012a.422.422 0 0 0 .338-.413c.004-.74.004-1.48 0-2.22Zm-5.69-2.828h3.202c.11 0 .11.002.11.113v1.346c0 .162.05.211.212.211h1.147c.091 0 .096.005.096.097v.533c0 .095-.005.1-.1.1h-4.668c-.11 0-.11 0-.11-.113v-2.174c0-.112.001-.113.11-.113Zm4.657 6.884h-4.653c-.114 0-.115 0-.115-.116v-1.198c0-.093.005-.097.096-.098h4.682c.096 0 .1.004.1.101v1.198c0 .112 0 .113-.11.113Z"/><path d="M41.022 86.554h.34l.593 1.58h-.328l-.13-.378h-.61l-.13.378h-.328l.593-1.58Zm.377.929-.14-.395-.058-.192h-.018l-.057.192-.141.395h.414Zm.867-.576a.183.183 0 0 1-.131-.054.185.185 0 0 1 .131-.316c.052 0 .096.018.133.054a.18.18 0 0 1 .055.13.177.177 0 0 1-.055.132.182.182 0 0 1-.133.054Zm-.143 1.227v-1.081h.289v1.08h-.289Zm10.086-1.874a.428.428 0 0 0-.438-.428c-.185-.003-.166.024-.167-.174V85a.278.278 0 0 0-.072-.195l-1.403-1.602c-.024-.028-.055-.05-.083-.074h-3.728c-.16.059-.228.174-.228.342.002.75 0 1.5 0 2.249 0 .111 0 .118-.11.11-.299-.02-.502.197-.499.498.01.696.003 1.391.003 2.086 0 .316.174.489.49.49.117 0 .117 0 .117.12v1.331c0 .239.116.355.353.355h4.808c.234 0 .351-.117.352-.35v-1.353c0-.102 0-.102.104-.103.054 0 .108.002.162-.012a.425.425 0 0 0 .339-.413c.003-.74.003-1.48 0-2.22Zm-5.69-2.828h3.202c.11 0 .11.002.11.113v1.346c0 .162.05.211.213.211h1.146c.091 0 .096.005.096.097v.533c0 .095-.005.1-.1.1h-4.667c-.11 0-.11 0-.11-.113v-2.174c0-.112 0-.113.11-.113Zm4.657 6.884h-4.653c-.114 0-.115 0-.115-.116v-1.198c0-.093.005-.097.096-.098h4.682c.096 0 .1.004.1.101v1.198c0 .112 0 .113-.11.113Z"/><path d="M47.272 88.169a.657.657 0 0 1-.194-.029.557.557 0 0 1-.304-.226.677.677 0 0 1-.09-.193l.28-.11a.42.42 0 0 0 .107.197c.052.053.12.079.203.079a.337.337 0 0 0 .09-.012.264.264 0 0 0 .077-.035.164.164 0 0 0 .074-.14.198.198 0 0 0-.016-.08.188.188 0 0 0-.051-.066.462.462 0 0 0-.095-.06 1.459 1.459 0 0 0-.145-.06l-.097-.034a.734.734 0 0 1-.129-.06.57.57 0 0 1-.118-.09.443.443 0 0 1-.087-.125.414.414 0 0 1 .106-.476.485.485 0 0 1 .16-.095.605.605 0 0 1 .21-.035.6.6 0 0 1 .205.032.509.509 0 0 1 .148.082.529.529 0 0 1 .153.222l-.262.11a.282.282 0 0 0-.08-.12.23.23 0 0 0-.16-.052.271.271 0 0 0-.161.045.139.139 0 0 0-.064.118c0 .047.02.087.062.12a.678.678 0 0 0 .196.096l.1.033c.063.023.12.048.173.076a.54.54 0 0 1 .134.103.42.42 0 0 1 .116.311.432.432 0 0 1-.176.36.55.55 0 0 1-.175.086.689.689 0 0 1-.19.028Zm.631-1.615h.322l.327.951.057.203h.018l.062-.203.34-.95h.321l-.575 1.579h-.314l-.558-1.58Zm2.317.713h.774a.538.538 0 0 1 .015.139.878.878 0 0 1-.046.287c-.03.09-.08.17-.146.24a.727.727 0 0 1-.253.174.869.869 0 0 1-.338.062.853.853 0 0 1-.589-.234.825.825 0 0 1-.245-.591.812.812 0 0 1 .51-.763.853.853 0 0 1 .324-.062.85.85 0 0 1 .343.066.77.77 0 0 1 .26.183l-.206.201a.544.544 0 0 0-.172-.125.548.548 0 0 0-.227-.043.554.554 0 0 0-.375.148.517.517 0 0 0-.116.171.565.565 0 0 0-.043.224.56.56 0 0 0 .043.224.508.508 0 0 0 .288.28.555.555 0 0 0 .207.039.5.5 0 0 0 .362-.13.355.355 0 0 0 .076-.1.566.566 0 0 0 .05-.136h-.497v-.254Zm9.24-1.007a.428.428 0 0 0-.438-.428c-.185-.003-.166.024-.167-.174 0-.219-.001-.438.001-.658a.278.278 0 0 0-.072-.195l-1.404-1.602c-.024-.028-.055-.05-.083-.074h-3.728c-.159.059-.228.174-.228.342.002.75.001 1.5.001 2.249 0 .111 0 .118-.11.11-.3-.02-.503.197-.5.498.01.696.003 1.391.003 2.086 0 .316.174.489.49.49.117 0 .117 0 .117.12v1.331c0 .239.116.355.354.355h4.808c.233 0 .35-.117.351-.35v-1.353c0-.102 0-.102.104-.103.054 0 .108.002.162-.012a.424.424 0 0 0 .339-.413c.003-.74.004-1.48 0-2.22Zm-5.69-2.828h3.202c.11 0 .11.002.11.113l.001 1.346c0 .162.05.211.212.211h1.146c.092 0 .096.005.096.097v.533c0 .095-.004.1-.1.1H53.77c-.11 0-.11 0-.11-.113v-2.174c0-.112 0-.113.11-.113Zm4.657 6.884h-4.653c-.114 0-.114 0-.114-.116v-1.198c0-.093.004-.097.095-.098h4.682c.096 0 .1.004.1.101v1.198c0 .112 0 .113-.11.113Z"/><path d="M54.593 86.837v.366h.633v.282h-.633v.366h.704v.283h-1.002v-1.58h1.002v.283h-.704Zm.977 1.297v-1.58h.556c.075 0 .145.013.21.037a.481.481 0 0 1 .328.462.486.486 0 0 1-.156.362.519.519 0 0 1-.171.102.602.602 0 0 1-.21.037h-.259v.58h-.298Zm.56-.863c.078 0 .137-.022.177-.066a.22.22 0 0 0 .06-.152.237.237 0 0 0-.015-.082.186.186 0 0 0-.044-.07.216.216 0 0 0-.074-.047.277.277 0 0 0-.104-.017h-.262v.434h.263Zm1.23.898a.657.657 0 0 1-.195-.029.557.557 0 0 1-.304-.226.677.677 0 0 1-.09-.193l.28-.11c.02.08.056.145.108.197a.272.272 0 0 0 .203.079c.03 0 .06-.004.09-.012a.264.264 0 0 0 .076-.035.164.164 0 0 0 .074-.14.198.198 0 0 0-.015-.08.188.188 0 0 0-.052-.066.46.46 0 0 0-.095-.06 1.464 1.464 0 0 0-.144-.06l-.097-.034a.74.74 0 0 1-.13-.06.565.565 0 0 1-.117-.09.447.447 0 0 1-.087-.125.417.417 0 0 1 .106-.476.487.487 0 0 1 .16-.095.604.604 0 0 1 .209-.035c.08 0 .148.011.206.032a.46.46 0 0 1 .246.19.586.586 0 0 1 .055.114l-.262.11a.28.28 0 0 0-.08-.12.23.23 0 0 0-.16-.052.271.271 0 0 0-.162.045.139.139 0 0 0-.064.118.15.15 0 0 0 .062.12.678.678 0 0 0 .197.096l.099.033c.063.023.12.048.173.076a.54.54 0 0 1 .135.103.42.42 0 0 1 .115.311.432.432 0 0 1-.176.36.55.55 0 0 1-.174.086.693.693 0 0 1-.19.028Zm6.919-.335.8-.997h-.765v-.283h1.112v.3l-.792.997h.8v.283H64.28v-.3Zm1.403-1.28h.298v1.58h-.298v-1.58Zm.615 1.58v-1.58h.556c.075 0 .145.013.21.037a.481.481 0 0 1 .328.462.486.486 0 0 1-.156.362.519.519 0 0 1-.171.102.602.602 0 0 1-.211.037h-.258v.58h-.298Zm.56-.863c.078 0 .137-.022.177-.066a.22.22 0 0 0 .06-.152.237.237 0 0 0-.015-.082.186.186 0 0 0-.044-.07.216.216 0 0 0-.074-.047.277.277 0 0 0-.104-.017h-.262v.434h.263Z"/></g><path d="M60.027 86.654h1.813v.449h-1.813v-.449Zm0 .773h1.813v.449h-1.813v-.449Zm-28.676 8.349h.322c.252 0 .422.162.422.394 0 .233-.17.395-.422.395h-.322v-.79Zm.317.717c.21 0 .345-.133.345-.323 0-.189-.135-.322-.345-.322h-.233v.645h.233Zm1.36-.323c0-.23.176-.401.415-.401.237 0 .414.17.414.401a.397.397 0 0 1-.414.402c-.24 0-.415-.172-.415-.402Zm.745 0a.32.32 0 0 0-.33-.327.32.32 0 0 0-.333.327c0 .188.142.327.333.327a.32.32 0 0 0 .33-.327Zm2.147-.394-.267.789h-.088l-.231-.673-.233.673h-.086l-.267-.79h.086l.228.68.236-.68h.078l.232.683.23-.682h.081Zm1.626 0v.789h-.069l-.507-.64v.64h-.083v-.79h.068l.509.641v-.64h.082Zm1.073 0h.083v.717h.442v.072h-.525v-.79Zm1.393.394c0-.23.176-.401.415-.401.237 0 .414.17.414.401a.397.397 0 0 1-.414.402.398.398 0 0 1-.415-.402Zm.746 0a.32.32 0 0 0-.33-.327.32.32 0 0 0-.333.327.32.32 0 0 0 .332.327.32.32 0 0 0 .33-.327Zm1.569.184h-.44l-.094.21h-.087l.36-.789h.083l.36.79h-.087l-.095-.211Zm-.03-.068-.19-.424-.189.424h.379Zm1.159-.51h.322c.252 0 .422.162.422.394 0 .233-.17.395-.422.395h-.322v-.79Zm.317.717c.21 0 .345-.133.345-.323 0-.189-.136-.322-.345-.322h-.234v.645h.234Zm3.035-.139h-.44l-.094.21h-.087l.36-.789h.083l.36.79h-.087l-.095-.211Zm-.03-.068-.19-.424-.189.424h.379Zm1.159-.51h.083v.717h.442v.072h-.525v-.79Zm1.479 0h.084v.717h.442v.072h-.526v-.79Zm2.674.072v.31h.408v.072h-.408v.335h-.084v-.79h.541v.073h-.457Zm1.446-.072h.083v.789h-.083v-.79Zm1.155 0h.084v.717h.442v.072h-.526v-.79Zm2.038.717v.072h-.558v-.79h.54v.073h-.457v.28h.408v.072h-.408v.293h.475Zm2.205-.645v.31h.409v.072h-.409v.335h-.083v-.79h.541v.073h-.458Zm1.366.322c0-.23.176-.401.415-.401.237 0 .414.17.414.401a.397.397 0 0 1-.414.402c-.24 0-.415-.172-.415-.402Zm.745 0a.32.32 0 0 0-.33-.327.32.32 0 0 0-.333.327.32.32 0 0 0 .333.327.32.32 0 0 0 .33-.327Zm1.625.395-.18-.254a.577.577 0 0 1-.063.004h-.212v.25h-.084v-.79h.296c.2 0 .322.102.322.271a.244.244 0 0 1-.18.248l.193.27h-.092v.001Zm-.004-.519c0-.126-.084-.198-.242-.198h-.21v.396h.21c.158 0 .242-.074.242-.198Zm1.915-.27v.789h-.08v-.632l-.31.532h-.04l-.31-.528v.628h-.08v-.79h.07l.342.586.34-.586h.068Zm1.568.578h-.44l-.095.21h-.086l.36-.789h.083l.36.79h-.088l-.094-.211Zm-.03-.068-.19-.424-.19.424h.38Zm1.272-.438h-.277v-.072h.638v.072h-.277v.717h-.083v-.717Zm1.221.622.033-.065a.388.388 0 0 0 .26.096c.148 0 .213-.062.213-.14 0-.217-.486-.083-.486-.375 0-.117.09-.217.29-.217a.45.45 0 0 1 .246.07l-.029.067a.406.406 0 0 0-.216-.066c-.145 0-.209.064-.209.143 0 .217.486.086.486.374 0 .116-.092.215-.294.215a.43.43 0 0 1-.294-.103Z" fill="#fff" opacity=".61"/><mask id="mask0_26_2009" style="mask-type:luminance" maskUnits="userSpaceOnUse" x="4" y="16" width="91" height="68"><path d="M94.983 65.303v2.07c0 .572-.017 1.16-.034 1.732-.033 1.263-.117 2.541-.336 3.786-.236 1.262-.606 2.44-1.195 3.6a12.21 12.21 0 0 1-2.254 3.063 12.257 12.257 0 0 1-3.096 2.221c-1.161.589-2.356.96-3.635 1.178-1.262.219-2.557.303-3.836.337-.589.016-1.178.016-1.766.016H21.152c-.588 0-1.177-.016-1.766-.016-1.279-.034-2.575-.102-3.836-.337-1.28-.236-2.474-.606-3.635-1.178a12.259 12.259 0 0 1-3.096-2.221 12.212 12.212 0 0 1-2.254-3.062 12.265 12.265 0 0 1-1.195-3.6c-.219-1.246-.303-2.524-.337-3.787-.016-.572-.016-1.16-.033-1.733V26.856c0-.37 0-.74.017-1.11.016-.808.067-1.615.218-2.406.152-.808.387-1.565.774-2.288.37-.724.859-1.38 1.43-1.952a7.232 7.232 0 0 1 1.986-1.413 7.998 7.998 0 0 1 2.322-.758c.808-.134 1.632-.185 2.44-.218.37-.017.757-.017 1.127-.017h67.673-4.745 6.444c.37 0 .757 0 1.127.017.808.016 1.632.067 2.44.218a8.539 8.539 0 0 1 2.322.758c.724.37 1.397.84 1.986 1.413a7.78 7.78 0 0 1 1.43 1.952c.387.74.622 1.48.774 2.288.151.79.185 1.598.219 2.406.016.37.016.74.016 1.11v30.539l-.017 7.908Z" fill="#fff"/></mask><g mask="url(#mask0_26_2009)"><path d="M94.983 25.342v57.964H5V25.275c0-4.913 3.803-8.497 8.497-8.497h72.99c4.694 0 8.496 3.533 8.496 8.497v.067Z" fill="#C5C5C5"/></g><mask id="mask1_26_2009" style="mask-type:luminance" maskUnits="userSpaceOnUse" x="4" y="16" width="91" height="68"><path d="M94.983 65.303v2.07c0 .572-.017 1.16-.034 1.732-.033 1.263-.117 2.541-.336 3.786-.236 1.262-.606 2.44-1.195 3.6a12.21 12.21 0 0 1-2.254 3.063 12.257 12.257 0 0 1-3.096 2.221c-1.161.589-2.356.96-3.635 1.178-1.262.219-2.557.303-3.836.337-.589.016-1.178.016-1.766.016H21.152c-.588 0-1.177-.016-1.766-.016-1.279-.034-2.575-.102-3.836-.337-1.28-.236-2.474-.606-3.635-1.178a12.259 12.259 0 0 1-3.096-2.221 12.212 12.212 0 0 1-2.254-3.062 12.265 12.265 0 0 1-1.195-3.6c-.219-1.246-.303-2.524-.337-3.787-.016-.572-.016-1.16-.033-1.733V26.856c0-.37 0-.74.017-1.11.016-.808.067-1.615.218-2.406.152-.808.387-1.565.774-2.288.37-.724.859-1.38 1.43-1.952a7.232 7.232 0 0 1 1.986-1.413 7.998 7.998 0 0 1 2.322-.758c.808-.134 1.632-.185 2.44-.218.37-.017.757-.017 1.127-.017h67.673-4.745 6.444c.37 0 .757 0 1.127.017.808.016 1.632.067 2.44.218a8.539 8.539 0 0 1 2.322.758c.724.37 1.397.84 1.986 1.413a7.78 7.78 0 0 1 1.43 1.952c.387.74.622 1.48.774 2.288.151.79.185 1.598.219 2.406.016.37.016.74.016 1.11v30.539l-.017 7.908Z" fill="#fff"/></mask><g mask="url(#mask1_26_2009)"><path d="M94.983 47.922H5.017v6.713h89.966v-6.713Z" fill="url(#paint0_linear_26_2009)"/></g><mask id="mask2_26_2009" style="mask-type:luminance" maskUnits="userSpaceOnUse" x="4" y="16" width="91" height="68"><path d="M94.983 65.303v2.07c0 .572-.017 1.16-.034 1.732-.033 1.263-.117 2.541-.336 3.786-.236 1.262-.606 2.44-1.195 3.6a12.21 12.21 0 0 1-2.254 3.063 12.257 12.257 0 0 1-3.096 2.221c-1.161.589-2.356.96-3.635 1.178-1.262.219-2.557.303-3.836.337-.589.016-1.178.016-1.766.016H21.152c-.588 0-1.177-.016-1.766-.016-1.279-.034-2.575-.102-3.836-.337-1.28-.236-2.474-.606-3.635-1.178a12.259 12.259 0 0 1-3.096-2.221 12.212 12.212 0 0 1-2.254-3.062 12.265 12.265 0 0 1-1.195-3.6c-.219-1.246-.303-2.524-.337-3.787-.016-.572-.016-1.16-.033-1.733V26.856c0-.37 0-.74.017-1.11.016-.808.067-1.615.218-2.406.152-.808.387-1.565.774-2.288.37-.724.859-1.38 1.43-1.952a7.232 7.232 0 0 1 1.986-1.413 7.998 7.998 0 0 1 2.322-.758c.808-.134 1.632-.185 2.44-.218.37-.017.757-.017 1.127-.017h67.673-4.745 6.444c.37 0 .757 0 1.127.017.808.016 1.632.067 2.44.218a8.539 8.539 0 0 1 2.322.758c.724.37 1.397.84 1.986 1.413a7.78 7.78 0 0 1 1.43 1.952c.387.74.622 1.48.774 2.288.151.79.185 1.598.219 2.406.016.37.016.74.016 1.11v30.539l-.017 7.908Z" fill="#fff"/></mask><g mask="url(#mask2_26_2009)"><mask id="mask3_26_2009" style="mask-type:luminance" maskUnits="userSpaceOnUse" x="8" y="20" width="84" height="43"><path d="M8.752 62.981V27.058c0-.235 0-.47.017-.706.017-.522.05-1.043.135-1.548.1-.522.252-1.01.488-1.464a4.822 4.822 0 0 1 2.17-2.17 5.668 5.668 0 0 1 1.48-.489c.506-.1 1.027-.117 1.549-.134.235 0 .471-.017.706-.017H83.61h-2.995 4.072c.236 0 .471 0 .707.017.521.017 1.043.05 1.548.134.521.101 1.01.253 1.48.488a4.822 4.822 0 0 1 2.17 2.171c.236.471.388.959.489 1.464.1.505.118 1.026.134 1.548 0 .235.017.471.017.706v35.923H8.752Z" fill="#fff"/></mask><g mask="url(#mask3_26_2009)"><path d="M8.752 62.981V27.058c0-.235 0-.47.017-.706.017-.522.05-1.043.135-1.548.1-.522.252-1.01.488-1.464a4.822 4.822 0 0 1 2.17-2.17 5.668 5.668 0 0 1 1.48-.489c.506-.1 1.027-.117 1.549-.134.235 0 .471-.017.706-.017H83.61h-2.995 4.072c.236 0 .471 0 .707.017.521.017 1.043.05 1.548.134.521.101 1.01.253 1.48.488a4.822 4.822 0 0 1 2.17 2.171c.236.471.388.959.489 1.464.1.505.118 1.026.134 1.548 0 .235.017.471.017.706v35.923H8.752Z" fill="#52AED6"/></g><mask id="mask4_26_2009" style="mask-type:luminance" maskUnits="userSpaceOnUse" x="8" y="20" width="84" height="43"><path d="M8.752 62.981V27.058c0-.235 0-.47.017-.706.017-.522.05-1.043.135-1.548.1-.522.252-1.01.488-1.464a4.822 4.822 0 0 1 2.17-2.17 5.668 5.668 0 0 1 1.48-.489c.506-.1 1.027-.117 1.549-.134.235 0 .471-.017.706-.017H83.61h-2.995 4.072c.236 0 .471 0 .707.017.521.017 1.043.05 1.548.134.521.101 1.01.253 1.48.488a4.822 4.822 0 0 1 2.17 2.171c.236.471.388.959.489 1.464.1.505.118 1.026.134 1.548 0 .235.017.471.017.706v35.923H8.752Z" fill="#fff"/></mask><g mask="url(#mask4_26_2009)"><path d="M8.752 70.468V34.563c0-.236 0-.472.017-.707.017-.522.05-1.043.135-1.548.1-.522.252-1.01.488-1.464a4.822 4.822 0 0 1 2.17-2.17 5.668 5.668 0 0 1 1.48-.488c.506-.101 1.027-.118 1.549-.135.235 0 .471-.017.706-.017H83.61h-2.995 4.072c.236 0 .471 0 .707.017.521.017 1.043.05 1.548.135.521.1 1.01.252 1.48.488a4.826 4.826 0 0 1 2.17 2.17c.236.471.388.96.489 1.464.1.505.118 1.026.134 1.548 0 .236.017.471.017.707v35.905H8.752Z" fill="#fff"/></g><mask id="mask5_26_2009" style="mask-type:luminance" maskUnits="userSpaceOnUse" x="8" y="20" width="84" height="43"><path d="M8.752 62.981V27.058c0-.235 0-.47.017-.706.017-.522.05-1.043.135-1.548.1-.522.252-1.01.488-1.464a4.822 4.822 0 0 1 2.17-2.17 5.668 5.668 0 0 1 1.48-.489c.506-.1 1.027-.117 1.549-.134.235 0 .471-.017.706-.017H83.61h-2.995 4.072c.236 0 .471 0 .707.017.521.017 1.043.05 1.548.134.521.101 1.01.253 1.48.488a4.822 4.822 0 0 1 2.17 2.171c.236.471.388.959.489 1.464.1.505.118 1.026.134 1.548 0 .235.017.471.017.706v35.923H8.752Z" fill="#fff"/></mask><g mask="url(#mask5_26_2009)"><path d="M8.752 70.468V34.563c0-.236 0-.472.017-.707.017-.522.05-1.043.135-1.548.1-.522.252-1.01.488-1.464a4.822 4.822 0 0 1 2.17-2.17 5.668 5.668 0 0 1 1.48-.488c.506-.101 1.027-.118 1.549-.135.235 0 .471-.017.706-.017H83.61h-2.995 4.072c.236 0 .471 0 .707.017.521.017 1.043.05 1.548.135.521.1 1.01.252 1.48.488a4.826 4.826 0 0 1 2.17 2.17c.236.471.388.96.489 1.464.1.505.118 1.026.134 1.548 0 .236.017.471.017.707v35.905H8.752Z" fill="#FFC950"/></g><mask id="mask6_26_2009" style="mask-type:luminance" maskUnits="userSpaceOnUse" x="8" y="20" width="84" height="43"><path d="M8.752 62.981V27.058c0-.235 0-.47.017-.706.017-.522.05-1.043.135-1.548.1-.522.252-1.01.488-1.464a4.822 4.822 0 0 1 2.17-2.17 5.668 5.668 0 0 1 1.48-.489c.506-.1 1.027-.117 1.549-.134.235 0 .471-.017.706-.017H83.61h-2.995 4.072c.236 0 .471 0 .707.017.521.017 1.043.05 1.548.134.521.101 1.01.253 1.48.488a4.822 4.822 0 0 1 2.17 2.171c.236.471.388.959.489 1.464.1.505.118 1.026.134 1.548 0 .235.017.471.017.706v35.923H8.752Z" fill="#fff"/></mask><g mask="url(#mask6_26_2009)"><path d="M8.752 77.956V42.05c0-.236 0-.471.017-.707.017-.521.05-1.043.135-1.548.1-.521.252-1.01.488-1.464a4.822 4.822 0 0 1 2.17-2.17 5.668 5.668 0 0 1 1.48-.488c.506-.101 1.027-.118 1.549-.135.235 0 .471-.016.706-.016H83.61h-2.995 4.072c.236 0 .471 0 .707.016.521.017 1.043.05 1.548.135.521.1 1.01.252 1.48.488a4.826 4.826 0 0 1 2.17 2.17c.236.472.388.96.489 1.464.1.505.118 1.027.134 1.548 0 .236.017.471.017.707v35.906H8.752Z" fill="#fff"/></g><mask id="mask7_26_2009" style="mask-type:luminance" maskUnits="userSpaceOnUse" x="8" y="20" width="84" height="43"><path d="M8.752 62.981V27.058c0-.235 0-.47.017-.706.017-.522.05-1.043.135-1.548.1-.522.252-1.01.488-1.464a4.822 4.822 0 0 1 2.17-2.17 5.668 5.668 0 0 1 1.48-.489c.506-.1 1.027-.117 1.549-.134.235 0 .471-.017.706-.017H83.61h-2.995 4.072c.236 0 .471 0 .707.017.521.017 1.043.05 1.548.134.521.101 1.01.253 1.48.488a4.822 4.822 0 0 1 2.17 2.171c.236.471.388.959.489 1.464.1.505.118 1.026.134 1.548 0 .235.017.471.017.706v35.923H8.752Z" fill="#fff"/></mask><g mask="url(#mask7_26_2009)"><path d="M8.752 77.956V42.05c0-.236 0-.471.017-.707.017-.521.05-1.043.135-1.548.1-.521.252-1.01.488-1.464a4.822 4.822 0 0 1 2.17-2.17 5.668 5.668 0 0 1 1.48-.488c.506-.101 1.027-.118 1.549-.135.235 0 .471-.016.706-.016H83.61h-2.995 4.072c.236 0 .471 0 .707.016.521.017 1.043.05 1.548.135.521.1 1.01.252 1.48.488a4.826 4.826 0 0 1 2.17 2.17c.236.472.388.96.489 1.464.1.505.118 1.027.134 1.548 0 .236.017.471.017.707v35.906H8.752Z" fill="#85CD61"/></g><mask id="mask8_26_2009" style="mask-type:luminance" maskUnits="userSpaceOnUse" x="8" y="20" width="84" height="43"><path d="M8.752 62.981V27.058c0-.235 0-.47.017-.706.017-.522.05-1.043.135-1.548.1-.522.252-1.01.488-1.464a4.822 4.822 0 0 1 2.17-2.17 5.668 5.668 0 0 1 1.48-.489c.506-.1 1.027-.117 1.549-.134.235 0 .471-.017.706-.017H83.61h-2.995 4.072c.236 0 .471 0 .707.017.521.017 1.043.05 1.548.134.521.101 1.01.253 1.48.488a4.822 4.822 0 0 1 2.17 2.171c.236.471.388.959.489 1.464.1.505.118 1.026.134 1.548 0 .235.017.471.017.706v35.923H8.752Z" fill="#fff"/></mask><g mask="url(#mask8_26_2009)"><path d="M8.752 77.956V49.537c0-.235 0-.471.017-.706.017-.522.05-1.044.135-1.548.1-.522.252-1.01.488-1.464a4.822 4.822 0 0 1 2.17-2.17 5.668 5.668 0 0 1 1.48-.489c.506-.1 1.027-.118 1.549-.134.235 0 .471-.017.706-.017H83.61h-2.995 4.072c.236 0 .471 0 .707.017.521.016 1.043.05 1.548.134.521.101 1.01.253 1.48.488a4.826 4.826 0 0 1 2.17 2.17c.236.472.388.96.489 1.465.1.504.118 1.026.134 1.548 0 .235.017.47.017.706v28.419H8.752Z" fill="#fff"/></g><mask id="mask9_26_2009" style="mask-type:luminance" maskUnits="userSpaceOnUse" x="8" y="20" width="84" height="43"><path d="M8.752 62.981V27.058c0-.235 0-.47.017-.706.017-.522.05-1.043.135-1.548.1-.522.252-1.01.488-1.464a4.822 4.822 0 0 1 2.17-2.17 5.668 5.668 0 0 1 1.48-.489c.506-.1 1.027-.117 1.549-.134.235 0 .471-.017.706-.017H83.61h-2.995 4.072c.236 0 .471 0 .707.017.521.017 1.043.05 1.548.134.521.101 1.01.253 1.48.488a4.822 4.822 0 0 1 2.17 2.171c.236.471.388.959.489 1.464.1.505.118 1.026.134 1.548 0 .235.017.471.017.706v35.923H8.752Z" fill="#fff"/></mask><g mask="url(#mask9_26_2009)"><path d="M8.752 77.956V49.537c0-.235 0-.471.017-.706.017-.522.05-1.044.135-1.548.1-.522.252-1.01.488-1.464a4.822 4.822 0 0 1 2.17-2.17 5.668 5.668 0 0 1 1.48-.489c.506-.1 1.027-.118 1.549-.134.235 0 .471-.017.706-.017H83.61h-2.995 4.072c.236 0 .471 0 .707.017.521.016 1.043.05 1.548.134.521.101 1.01.253 1.48.488a4.826 4.826 0 0 1 2.17 2.17c.236.472.388.96.489 1.465.1.504.118 1.026.134 1.548 0 .235.017.47.017.706v28.419H8.752Z" fill="#FC8376"/></g></g><mask id="mask10_26_2009" style="mask-type:luminance" maskUnits="userSpaceOnUse" x="4" y="16" width="91" height="68"><path d="M94.983 65.303v2.07c0 .572-.017 1.16-.034 1.732-.033 1.263-.117 2.541-.336 3.786-.236 1.262-.606 2.44-1.195 3.6a12.21 12.21 0 0 1-2.254 3.063 12.257 12.257 0 0 1-3.096 2.221c-1.161.589-2.356.96-3.635 1.178-1.262.219-2.557.303-3.836.337-.589.016-1.178.016-1.766.016H21.152c-.588 0-1.177-.016-1.766-.016-1.279-.034-2.575-.102-3.836-.337-1.28-.236-2.474-.606-3.635-1.178a12.259 12.259 0 0 1-3.096-2.221 12.212 12.212 0 0 1-2.254-3.062 12.265 12.265 0 0 1-1.195-3.6c-.219-1.246-.303-2.524-.337-3.787-.016-.572-.016-1.16-.033-1.733V26.856c0-.37 0-.74.017-1.11.016-.808.067-1.615.218-2.406.152-.808.387-1.565.774-2.288.37-.724.859-1.38 1.43-1.952a7.232 7.232 0 0 1 1.986-1.413 7.998 7.998 0 0 1 2.322-.758c.808-.134 1.632-.185 2.44-.218.37-.017.757-.017 1.127-.017h67.673-4.745 6.444c.37 0 .757 0 1.127.017.808.016 1.632.067 2.44.218a8.539 8.539 0 0 1 2.322.758c.724.37 1.397.84 1.986 1.413a7.78 7.78 0 0 1 1.43 1.952c.387.74.622 1.48.774 2.288.151.79.185 1.598.219 2.406.016.37.016.74.016 1.11v30.539l-.017 7.908Z" fill="#fff"/></mask><g mask="url(#mask10_26_2009)"><path d="M94.983 84.198H5V50.48h23.472c.454 0 .908 0 1.346.016.992.034 1.968.085 2.944.253a9.845 9.845 0 0 1 2.81.925c-.185-.1 2.473.993 4.812 4.627 1.683 2.625 4.964 5.401 9.54 5.401 4.577 0 7.858-2.776 9.54-5.4 2.238-3.433 4.695-4.544 4.813-4.611.891-.454 1.817-.74 2.81-.925a19.326 19.326 0 0 1 2.944-.253c.454-.017.908-.017 1.346-.017h23.589l.017 33.702Z" fill="#fff"/></g><mask id="mask11_26_2009" style="mask-type:luminance" maskUnits="userSpaceOnUse" x="4" y="16" width="91" height="68"><path d="M94.983 65.303v2.07c0 .572-.017 1.16-.034 1.732-.033 1.263-.117 2.541-.336 3.786-.236 1.262-.606 2.44-1.195 3.6a12.21 12.21 0 0 1-2.254 3.063 12.257 12.257 0 0 1-3.096 2.221c-1.161.589-2.356.96-3.635 1.178-1.262.219-2.557.303-3.836.337-.589.016-1.178.016-1.766.016H21.152c-.588 0-1.177-.016-1.766-.016-1.279-.034-2.575-.102-3.836-.337-1.28-.236-2.474-.606-3.635-1.178a12.259 12.259 0 0 1-3.096-2.221 12.212 12.212 0 0 1-2.254-3.062 12.265 12.265 0 0 1-1.195-3.6c-.219-1.246-.303-2.524-.337-3.787-.016-.572-.016-1.16-.033-1.733V26.856c0-.37 0-.74.017-1.11.016-.808.067-1.615.218-2.406.152-.808.387-1.565.774-2.288.37-.724.859-1.38 1.43-1.952a7.232 7.232 0 0 1 1.986-1.413 7.998 7.998 0 0 1 2.322-.758c.808-.134 1.632-.185 2.44-.218.37-.017.757-.017 1.127-.017h67.673-4.745 6.444c.37 0 .757 0 1.127.017.808.016 1.632.067 2.44.218a8.539 8.539 0 0 1 2.322.758c.724.37 1.397.84 1.986 1.413a7.78 7.78 0 0 1 1.43 1.952c.387.74.622 1.48.774 2.288.151.79.185 1.598.219 2.406.016.37.016.74.016 1.11v30.539l-.017 7.908Z" fill="#fff"/></mask><g mask="url(#mask11_26_2009)"><path d="M94.983 84.198H5V50.48h23.472c.454 0 .908 0 1.346.016.992.034 1.968.085 2.944.253a9.845 9.845 0 0 1 2.81.925c-.185-.1 2.473.993 4.812 4.627 1.683 2.625 4.964 5.401 9.54 5.401 4.577 0 7.858-2.776 9.54-5.4 2.238-3.433 4.695-4.544 4.813-4.611.891-.454 1.817-.74 2.81-.925a19.326 19.326 0 0 1 2.944-.253c.454-.017.908-.017 1.346-.017h23.589l.017 33.702Z" fill="#C5C5C5"/></g><defs><linearGradient id="paint0_linear_26_2009" x1="50" y1="47.922" x2="50" y2="54.628" gradientUnits="userSpaceOnUse"><stop offset=".004" stop-color="#D3D1C8"/><stop offset=".232" stop-color="#C4C3BB"/><stop offset=".689" stop-color="#A5A59F"/><stop offset="1" stop-color="#8C8D88"/></linearGradient></defs></svg>