<svg width="100" height="100" viewBox="0 0 100 100" fill="none" xmlns="http://www.w3.org/2000/svg"><path d="m32.617 45.724 23.935-24.75a1.355 1.355 0 0 1 2.32 1.268L53.01 42.986l13.218 8.193c.102.057.192.125.283.215.543.52.555 1.38.034 1.913l-23.936 24.75a1.355 1.355 0 0 1-2.32-1.268l5.863-20.744-13.219-8.193a1.248 1.248 0 0 1-.282-.215 1.346 1.346 0 0 1-.035-1.913Z" fill="url(#paint0_linear_185_632)"/><defs><linearGradient id="paint0_linear_185_632" x1="31.462" y1="40.077" x2="62.233" y2="56.091" gradientUnits="userSpaceOnUse"><stop stop-color="#F8F5EF"/><stop offset=".03" stop-color="#F8F5EF"/><stop offset=".45" stop-color="#8C3EF6"/><stop offset="1" stop-color="#8C3EF6"/></linearGradient></defs></svg>