<svg width="100" height="100" viewBox="0 0 100 100" fill="none" xmlns="http://www.w3.org/2000/svg"><path d="M54.23 73.4c10.53-2.38 18.53-12.16 18.3-23.03H56.62c-.35.59-.22 1.42-.44 2.18-1.29 4.44-6.57 6.55-10.63 4.53-6.76-3.36-4.77-13.89 2.76-14.28l.24-.2V26.48c-.11-.15-.13-.16-.3-.16h-.02c-4.04 0-9.16 1.95-12.46 4.24-21.63 15.03-6.92 48.57 18.44 42.84h.02Z" fill="url(#paint0_linear_185_639)"/><path d="M56.65 50.18c0 4.26-3.46 7.72-7.72 7.72s-7.72-3.46-7.72-7.72 3.46-7.72 7.72-7.72 7.72 3.46 7.72 7.72Z" fill="url(#paint1_linear_185_639)"/><path d="M68.39 30.714 47.676 49.195l2.07 2.32 20.714-18.48-2.07-2.32Z" fill="#8B3EF5"/><path d="M65.35 31.686c0-1.15.51-2.18 1.3-2.89l-2.62-2.89a7.773 7.773 0 0 0-2.57 5.78c0 1.89.67 3.61 1.78 4.96l2.92-2.61c-.5-.66-.81-1.47-.81-2.35Z" fill="url(#paint2_linear_185_639)"/><path d="M71.892 34.563c-.7.63-1.61 1.03-2.63 1.03-.87 0-1.66-.29-2.31-.77l-2.94 2.63a7.781 7.781 0 0 0 5.25 2.04c2.03 0 3.86-.78 5.25-2.04l-2.62-2.89Z" fill="url(#paint3_linear_185_639)"/><defs><linearGradient id="paint0_linear_185_639" x1="25.321" y1="50.18" x2="72.541" y2="50.18" gradientUnits="userSpaceOnUse"><stop stop-color="#8C3EF6"/><stop offset=".59" stop-color="#8C3EF6"/><stop offset="1" stop-color="#F8F5EF"/></linearGradient><linearGradient id="paint1_linear_185_639" x1="41.211" y1="50.181" x2="56.651" y2="50.181" gradientUnits="userSpaceOnUse"><stop stop-color="#F8F5EF"/><stop offset=".15" stop-color="#F5F0EF"/><stop offset=".29" stop-color="#EEE4EF"/><stop offset=".44" stop-color="#E2D0F0"/><stop offset=".59" stop-color="#D1B3F1"/><stop offset=".74" stop-color="#BB8FF2"/><stop offset=".89" stop-color="#A163F4"/><stop offset="1" stop-color="#8C3EF6"/></linearGradient><linearGradient id="paint2_linear_185_639" x1="61.011" y1="34.786" x2="66.631" y2="28.086" gradientUnits="userSpaceOnUse"><stop stop-color="#F8F5EF"/><stop offset=".15" stop-color="#F5F0EF"/><stop offset=".29" stop-color="#EEE4EF"/><stop offset=".44" stop-color="#E2D0F0"/><stop offset=".59" stop-color="#D1B3F1"/><stop offset=".74" stop-color="#BB8FF2"/><stop offset=".89" stop-color="#A163F4"/><stop offset="1" stop-color="#8C3EF6"/></linearGradient><linearGradient id="paint3_linear_185_639" x1="67.092" y1="40.053" x2="71.772" y2="34.472" gradientUnits="userSpaceOnUse"><stop stop-color="#F8F5EF"/><stop offset=".15" stop-color="#F5F0EF"/><stop offset=".29" stop-color="#EEE4EF"/><stop offset=".44" stop-color="#E2D0F0"/><stop offset=".59" stop-color="#D1B3F1"/><stop offset=".74" stop-color="#BB8FF2"/><stop offset=".89" stop-color="#A163F4"/><stop offset="1" stop-color="#8C3EF6"/></linearGradient></defs></svg>