<svg width="100" height="100" viewBox="0 0 100 100" fill="none" xmlns="http://www.w3.org/2000/svg"><path d="M27.39 30.133v7.77h43.27v-7.77H27.39Z" fill="url(#paint0_linear_185_652)"/><path d="M35.84 25.922h-.37a1.38 1.38 0 0 0-1.38 1.38v6.19c0 .762.618 1.38 1.38 1.38h.37a1.38 1.38 0 0 0 1.38-1.38v-6.19a1.38 1.38 0 0 0-1.38-1.38Zm26.75 0h-.37a1.38 1.38 0 0 0-1.38 1.38v6.19c0 .762.618 1.38 1.38 1.38h.37a1.38 1.38 0 0 0 1.38-1.38v-6.19a1.38 1.38 0 0 0-1.38-1.38Z" fill="#8B3EF5"/><path d="M27.39 40.86v31.56h43.27V40.86H27.39Zm14.53 25.31h-7.83v-7.83c4.32 0 7.83 3.51 7.83 7.83Zm0-11.02h-7.83v-7.83c4.32 0 7.83 3.51 7.83 7.83Zm11.02 11.02h-7.83v-7.83c4.32 0 7.83 3.51 7.83 7.83Zm0-11.02h-7.83v-7.83c4.32 0 7.83 3.51 7.83 7.83Zm11.02 11.02h-7.83v-7.83c4.32 0 7.83 3.51 7.83 7.83Zm0-11.02h-7.83v-7.83c4.32 0 7.83 3.51 7.83 7.83Z" fill="url(#paint1_linear_185_652)"/><path d="M70.662 80.253a7.74 7.74 0 1 0 0-15.48 7.74 7.74 0 0 0 0 15.48Z" fill="#8B3EF5"/><path d="m69.318 75.48-2.49-2.49.75-.76 1.74 1.74 4.42-4.43.76.76-5.18 5.18Z" fill="#F7F4EE"/><defs><linearGradient id="paint0_linear_185_652" x1="27.391" y1="34.013" x2="70.661" y2="34.013" gradientUnits="userSpaceOnUse"><stop stop-color="#8C3EF6"/><stop offset=".14" stop-color="#8C3EF6"/><stop offset=".29" stop-color="#8D41F5"/><stop offset=".42" stop-color="#944BF5"/><stop offset=".54" stop-color="#9E5DF4"/><stop offset=".65" stop-color="#AD76F3"/><stop offset=".77" stop-color="#C096F2"/><stop offset=".87" stop-color="#D7BDF1"/><stop offset=".98" stop-color="#F2EBEF"/><stop offset="1" stop-color="#F8F5EF"/></linearGradient><linearGradient id="paint1_linear_185_652" x1="27.391" y1="56.639" x2="70.661" y2="56.639" gradientUnits="userSpaceOnUse"><stop stop-color="#8C3EF6"/><stop offset=".14" stop-color="#8C3EF6"/><stop offset=".29" stop-color="#8D41F5"/><stop offset=".42" stop-color="#944BF5"/><stop offset=".54" stop-color="#9E5DF4"/><stop offset=".65" stop-color="#AD76F3"/><stop offset=".77" stop-color="#C096F2"/><stop offset=".87" stop-color="#D7BDF1"/><stop offset=".98" stop-color="#F2EBEF"/><stop offset="1" stop-color="#F8F5EF"/></linearGradient></defs></svg>