<svg width="100" height="100" viewBox="0 0 100 100" fill="none" xmlns="http://www.w3.org/2000/svg"><path fill-rule="evenodd" clip-rule="evenodd" d="M47.011 57.201c-2.99 0-5.43-2.43-5.43-5.43v-12.49h-16.61c-2.5 0-4.53 2.03-4.53 4.53v16.04c0 2.5 2.03 4.53 4.53 4.53h2.92c.22 0 .43.08.58.24.15.15.24.36.24.58v6.32c0 .15.07.21.2.27.32.14.89.12 1.16-.12l8.1-7.09c.15-.13.34-.2.54-.2h10.73c2.5 0 4.53-2.03 4.53-4.53v-2.65h-6.96Z" fill="url(#paint0_linear_185_665)"/><path fill-rule="evenodd" clip-rule="evenodd" d="M46.031 32.647c0-2.5 2.03-4.53 4.53-4.53h24.47c2.5 0 4.53 2.03 4.53 4.53v16.04c0 2.5-2.03 4.53-4.53 4.53h-2.92c-.22 0-.43.08-.58.24-.15.15-.24.36-.24.58v6.32c0 .15-.07.21-.2.27-.32.14-.89.12-1.16-.12l-8.1-7.09a.82.82 0 0 0-.54-.2h-10.73c-2.5 0-4.53-2.03-4.53-4.53v-16.04Z" fill="url(#paint1_linear_185_665)"/><path d="M57.42 44.417a2.69 2.69 0 0 1-2.69 2.69c-1.48 0-2.69-1.21-2.69-2.69s1.21-2.69 2.69-2.69 2.69 1.21 2.69 2.69Zm5.37-2.69a2.69 2.69 0 0 0-2.69 2.69c0 1.48 1.21 2.69 2.69 2.69s2.69-1.21 2.69-2.69-1.21-2.69-2.69-2.69Zm8.06 0a2.69 2.69 0 0 0-2.69 2.69c0 1.48 1.21 2.69 2.69 2.69s2.69-1.21 2.69-2.69-1.21-2.69-2.69-2.69Z" fill="url(#paint2_linear_185_665)"/><defs><linearGradient id="paint0_linear_185_665" x1="20.451" y1="55.581" x2="53.971" y2="55.581" gradientUnits="userSpaceOnUse"><stop stop-color="#8C3EF6"/><stop offset=".14" stop-color="#8C3EF6"/><stop offset=".29" stop-color="#8D41F5"/><stop offset=".42" stop-color="#944BF5"/><stop offset=".54" stop-color="#9E5DF4"/><stop offset=".65" stop-color="#AD76F3"/><stop offset=".77" stop-color="#C096F2"/><stop offset=".87" stop-color="#D7BDF1"/><stop offset=".98" stop-color="#F2EBEF"/><stop offset="1" stop-color="#F8F5EF"/></linearGradient><linearGradient id="paint1_linear_185_665" x1="77.921" y1="44.417" x2="44.401" y2="44.417" gradientUnits="userSpaceOnUse"><stop stop-color="#8C3EF6"/><stop offset=".14" stop-color="#8C3EF6"/><stop offset=".29" stop-color="#8D41F5"/><stop offset=".42" stop-color="#944BF5"/><stop offset=".54" stop-color="#9E5DF4"/><stop offset=".65" stop-color="#AD76F3"/><stop offset=".77" stop-color="#C096F2"/><stop offset=".87" stop-color="#D7BDF1"/><stop offset=".98" stop-color="#F2EBEF"/><stop offset="1" stop-color="#F8F5EF"/></linearGradient><linearGradient id="paint2_linear_185_665" x1="52.029" y1="44.417" x2="81.499" y2="44.417" gradientUnits="userSpaceOnUse"><stop stop-color="#F8F5EF"/><stop offset=".15" stop-color="#F5F0EF"/><stop offset=".29" stop-color="#EEE4EF"/><stop offset=".44" stop-color="#E2D0F0"/><stop offset=".59" stop-color="#D1B3F1"/><stop offset=".74" stop-color="#BB8FF2"/><stop offset=".89" stop-color="#A163F4"/><stop offset="1" stop-color="#8C3EF6"/></linearGradient></defs></svg>