<svg width="170" height="170" viewBox="0 0 170 170" fill="none" xmlns="http://www.w3.org/2000/svg">
<path d="M62.2973 159.86L69.4267 161.6L70.6702 156.505L64.225 154.932L64.3392 154.464L70.7845 156.037L72.1335 150.51L73.2317 150.778L70.4238 162.282L62.1962 160.274L62.2973 159.86Z" fill="#19191F"/>
<path d="M51.3934 155.931L51.962 143.148L53.4397 143.838L53.0897 148.399L58.0769 150.728L61.3488 147.531L62.2724 147.962L52.8543 156.613L51.3934 155.931ZM57.7052 151.086L53.0538 148.914L52.4939 156.159L57.7052 151.086Z" fill="#19191F"/>
<path d="M41.8662 143.319C40.2822 141.188 40.6054 138.872 42.4282 136.394L42.4392 136.379L43.529 137.18L43.496 137.225C40.092 141.853 42.4963 143.714 44.6759 145.317L48.1568 140.585L49.1421 141.309L42.1473 150.819L41.4457 150.303C41.4457 150.303 40.9232 149.918 39.1168 148.59C37.3404 147.283 35.9386 145.217 37.1245 143.604C38.0249 142.38 40.1025 142.183 41.8662 143.319ZM43.2809 144.774L42.3105 144.06C41.986 143.844 41.5988 143.652 41.1864 143.555C39.6078 143.199 38.0844 143.988 37.7636 145.363C37.5351 146.299 38.0219 147.232 38.821 147.866L41.4036 149.766L44.4453 145.63L43.2809 144.774Z" fill="#19191F"/>
<path d="M23.7923 133.968L31.4004 124.718L32.54 126.011L24.5622 134.253L35.2847 129.125L36.0444 129.987L29.6595 140.036L38.7891 133.102L39.8674 134.325L29.7351 140.711L28.8864 139.804L34.7502 130.313L24.5733 134.91L23.7923 133.968Z" fill="#19191F"/>
<path d="M16.2457 122.138L24.3199 112.211L25.0954 113.646L22.0963 117.1L24.7138 121.942L29.2464 121.324L29.7311 122.221L17.0124 123.556L16.2457 122.138ZM24.2018 122.008L21.7606 117.492L16.9939 122.976L24.2018 122.008Z" fill="#19191F"/>
<path d="M10.8636 104.926C10.8585 104.909 10.8763 104.903 10.8711 104.886C10.8763 104.903 10.8763 104.903 10.8636 104.926ZM17.1602 102.084C16.875 102.031 16.5541 101.989 16.2384 101.964L15.7807 100.515C18.5292 100.28 21.0161 101.876 21.7263 104.333C21.9476 105.098 21.9858 105.897 21.8304 106.695C21.8257 106.812 21.7853 106.939 21.7628 107.061C21.73 107.148 21.715 107.23 21.6695 107.339C21.6418 107.444 21.609 107.53 21.5382 107.686C20.8841 109.36 19.4066 110.655 17.5729 111.186C14.4395 112.091 11.2195 110.495 10.3858 107.611C10.1233 106.703 10.1152 105.741 10.3873 104.813L10.3948 104.773C10.3896 104.755 10.4074 104.75 10.4023 104.732L10.4149 104.709C10.8887 103.144 12.0504 101.825 13.6163 101.102L13.9021 102.158C12.3481 102.587 11.1953 103.538 10.8122 104.748L10.7869 104.794L10.7615 104.84L10.7592 104.899C10.7592 104.899 10.7465 104.922 10.7517 104.939L10.6738 105.271C10.6165 105.673 10.6458 106.108 10.7694 106.535C10.9083 107.016 11.1541 107.466 11.5296 107.898C12.3116 108.868 13.5331 109.556 14.9697 109.855C17.7895 110.467 20.6419 109.257 21.2999 107.195L21.3506 107.103C21.3806 106.94 21.4158 106.795 21.4383 106.673C21.4905 106.253 21.4611 105.818 21.3428 105.408C21.2038 104.927 20.9529 104.46 20.5825 104.046C19.8235 103.089 18.602 102.4 17.1602 102.084Z" fill="#19191F"/>
<path d="M19.5938 93.9097L19.743 95.049L8.00122 96.5865L7.85204 95.4472L19.5938 93.9097Z" fill="#19191F"/>
<path d="M7.2836 83.7973L19.1876 79.1041L19.1602 80.7347L14.8528 82.2749L14.7603 87.7781L19.0136 89.4621L18.9964 90.4812L7.25652 85.4094L7.2836 83.7973ZM14.2817 87.5847L14.3679 82.4521L7.52465 84.8949L14.2817 87.5847Z" fill="#19191F"/>
<path d="M18.3329 59.0287C19.9846 56.9493 22.3056 56.6653 25.1695 57.7887L25.1868 57.7954L24.6928 59.0548L24.641 59.0345C19.2928 56.9368 18.114 59.7391 17.126 62.2579L22.595 64.4031L22.1484 65.5417L11.1586 61.2311L11.4767 60.4203C11.4767 60.4203 11.7135 59.8165 12.5323 57.7289C13.3376 55.6759 14.9734 53.7893 16.8366 54.5202C18.2513 55.0751 18.9768 57.0318 18.3329 59.0287ZM17.2915 60.7701L17.7314 59.6487C17.8562 59.2797 17.9429 58.8558 17.9297 58.4326C17.8672 56.8156 16.7127 55.5466 15.302 55.5904C14.3386 55.6107 13.5622 56.3214 13.1555 57.2567L11.9848 60.2414L16.7637 62.1158L17.2915 60.7701Z" fill="#19191F"/>
<path d="M21.9244 41.8313C23.7082 41.0224 25.8798 41.216 27.6367 42.3556C30.3576 44.1204 31.2498 47.6148 29.606 50.1491C29.1623 50.8332 28.5833 51.3854 27.879 51.7901C27.7874 51.8632 27.6904 51.9107 27.5576 51.9792C27.4706 52.0111 27.3992 52.0531 27.2865 52.0905C27.205 52.1481 27.1025 52.17 26.9386 52.2183C25.2448 52.8205 23.2883 52.5676 21.6868 51.5289C18.9504 49.754 18.0582 46.2596 19.702 43.7253C20.2163 42.9323 20.9483 42.2806 21.8273 41.8788L21.853 41.8733L21.8631 41.8578C21.8731 41.8422 21.8887 41.8523 21.8887 41.8523L21.8988 41.8368L21.9244 41.8313ZM28.2285 45.2575C26.8346 42.7409 24.1864 41.443 22.2232 42.2902L22.1261 42.3377L22.1005 42.3431L22.0904 42.3587C22.0749 42.3486 22.0391 42.3696 22.0391 42.3696L21.7534 42.5377C21.4118 42.7579 21.1122 43.0495 20.8802 43.4071C20.608 43.8269 20.429 44.3072 20.3433 44.848C20.1424 46.0431 20.4009 47.3815 21.0951 48.6269C22.4525 51.0977 25.1473 52.4259 27.0848 51.5842L27.1874 51.5623C27.3201 51.4938 27.4529 51.4253 27.5601 51.3623C27.9118 51.1266 28.1958 50.8248 28.4278 50.4672C28.69 50.063 28.869 49.5827 28.9547 49.0419C29.1711 47.8569 28.9126 46.5185 28.2285 45.2575Z" fill="#19191F"/>
<path d="M33.5604 35.0367C35.4271 34.1693 37.3329 33.2884 38.6407 34.5223C39.0236 34.8729 40.743 36.7455 38.3143 39.3475L38.1583 39.5061C36.1443 41.5542 33.9288 41.4549 32.4674 40.6416L33.4549 39.6373C34.2178 39.9717 36.2426 40.7671 37.9057 39.0758L37.9837 38.9965C39.1267 37.7813 39.2489 36.7319 38.3376 35.8877C37.4261 35.0174 36.3648 35.0394 33.9751 36.0423C33.9229 36.069 33.8707 36.0956 33.8183 36.0961C33.7531 36.1359 33.6747 36.1628 33.5965 36.2159C31.612 37.0974 29.992 37.6877 28.8032 36.5706C28.5918 36.3627 27.8646 35.5957 27.8419 34.4558C27.8346 33.5909 28.2335 32.7096 29.0651 31.8639C31.8457 29.0361 34.3466 30.3518 35.045 30.8046L34.1224 31.7428C33.2798 31.2781 31.2418 30.4696 29.3967 32.346C28.5002 33.2577 28.3277 34.5696 29.0281 35.2583C29.8737 36.0899 30.9877 36.0936 32.9598 35.3039L32.9858 35.2775C33.1818 35.2103 33.3644 35.1039 33.5604 35.0367Z" fill="#19191F"/>
<path d="M43.7747 26.4601C45.769 25.9504 47.8043 25.4347 48.863 26.8879C49.175 27.3029 50.521 29.4596 47.6555 31.571L47.4731 31.6982C45.1171 33.3414 42.9575 32.8367 41.6704 31.7687L42.8256 30.963C43.5141 31.4318 45.3583 32.5858 47.3039 31.2288L47.3951 31.1652C48.7419 30.1807 49.0549 29.1716 48.3142 28.1744C47.5781 27.1514 46.5309 26.978 43.9976 27.5248C43.9414 27.5414 43.8852 27.558 43.8336 27.5488C43.7622 27.576 43.6801 27.588 43.5935 27.6258C41.4809 28.1277 39.78 28.4102 38.8167 27.0938C38.647 26.8505 38.0732 25.9629 38.2603 24.8383C38.4121 23.9868 38.9661 23.1937 39.9389 22.5153C43.1918 20.2466 45.4084 21.9994 46.0117 22.5728L44.9324 23.3255C44.1896 22.7139 42.3348 21.5447 40.1764 23.0501C39.1275 23.7816 38.717 25.0394 39.2788 25.8451C39.9573 26.8179 41.0516 27.0263 43.1353 26.6123L43.1657 26.5911C43.3707 26.5611 43.5697 26.4901 43.7747 26.4601Z" fill="#19191F"/>
<path d="M55.3048 27.065L54.2828 27.59L48.8713 17.0569L49.8933 16.5318L55.3048 27.065Z" fill="#19191F"/>
<path d="M77.118 16.6862L67.9775 18.3156L67.8279 17.4763L76.9684 15.847L77.118 16.6862Z" fill="#19191F"/>
<path d="M102.573 10.5088L95.3425 9.25127L94.4439 14.4183L100.98 15.5551L100.898 16.0298L94.3613 14.893L93.3864 20.4982L92.2727 20.3045L94.3018 8.63764L102.646 10.0888L102.573 10.5088Z" fill="#19191F"/>
<path d="M113.716 13.6966L114.007 26.489L112.486 25.8998L112.529 21.3256L107.397 19.3373L104.347 22.7467L103.396 22.3785L112.212 13.1141L113.716 13.6966ZM107.744 18.955L112.53 20.8093L112.602 13.5435L107.744 18.955Z" fill="#19191F"/>
<path d="M124.068 25.6408C125.791 27.661 125.624 29.9934 123.972 32.5883L123.962 32.604L122.821 31.8773L122.851 31.8304C125.937 26.9845 123.413 25.2896 121.13 23.8363L117.975 28.7917L116.943 28.1348L123.284 18.1771L124.019 18.645C124.019 18.645 124.566 18.9933 126.457 20.1977C128.317 21.3822 129.855 23.3498 128.78 25.038C127.964 26.3199 125.904 26.6562 124.068 25.6408ZM122.559 24.2845L123.575 24.9314C123.913 25.1248 124.312 25.2912 124.73 25.3596C126.329 25.6088 127.796 24.7194 128.024 23.3265C128.189 22.3771 127.641 21.4787 126.801 20.9L124.097 19.178L121.339 23.5081L122.559 24.2845Z" fill="#19191F"/>
<path d="M142.729 33.7583L135.759 43.4978L134.535 42.2842L141.942 33.5257L131.588 39.3612L130.772 38.5522L136.468 28.0973L127.824 35.6292L126.666 34.4809L136.347 27.4295L137.255 28.2775L132.041 38.1406L141.887 32.8707L142.729 33.7583Z" fill="#19191F"/>
<path d="M151.053 45.0543L143.663 55.5007L142.793 54.1214L145.554 50.4737L142.617 45.8185L138.136 46.739L137.592 45.877L150.193 43.6907L151.053 45.0543ZM143.123 45.7182L145.862 50.0598L150.25 44.268L143.123 45.7182Z" fill="#19191F"/>
<path d="M157.579 61.8654C157.585 61.8828 157.568 61.8891 157.574 61.9066C157.568 61.8891 157.568 61.8891 157.579 61.8654ZM151.487 65.1243C151.775 65.1576 152.098 65.1783 152.415 65.1815L152.969 66.5971C150.242 67.0162 147.654 65.5907 146.78 63.1871C146.508 62.4382 146.416 61.6434 146.518 60.8375C146.515 60.7203 146.546 60.5905 146.561 60.467C146.588 60.3783 146.597 60.296 146.635 60.1836C146.656 60.0775 146.683 59.9889 146.743 59.829C147.283 58.1143 148.67 56.7229 150.464 56.0709C153.53 54.9567 156.85 56.3332 157.875 59.1548C158.198 60.0431 158.271 61.0026 158.062 61.9462L158.057 61.9874C158.063 62.0048 158.046 62.0111 158.052 62.0285L158.041 62.0523C157.673 63.645 156.603 65.0397 155.089 65.8659L154.733 64.832C156.255 64.2987 157.341 63.2729 157.642 62.0396L157.664 61.9921L157.686 61.9446L157.685 61.886C157.685 61.886 157.696 61.8622 157.69 61.8448L157.745 61.5092C157.775 61.1039 157.717 60.6716 157.565 60.2536C157.394 59.7833 157.118 59.351 156.715 58.9456C155.869 58.0303 154.604 57.4253 153.151 57.224C150.296 56.8023 147.532 58.2015 147.014 60.3024L146.969 60.3974C146.95 60.5621 146.925 60.7093 146.911 60.8328C146.887 61.2555 146.945 61.6878 147.091 62.0884C147.262 62.5587 147.544 63.0084 147.941 63.3963C148.762 64.3005 150.027 64.9056 151.487 65.1243Z" fill="#19191F"/>
<path d="M149.608 73.4436L149.382 72.3169L160.994 69.9945L161.22 71.1212L149.608 73.4436Z" fill="#19191F"/>
<path d="M162.569 82.7064L151.007 88.1882L150.925 86.5595L155.119 84.7336L154.842 79.2366L150.485 77.842L150.434 76.824L162.488 81.0961L162.569 82.7064ZM155.333 79.3974L155.591 84.5242L162.255 81.6275L155.333 79.3974Z" fill="#19191F"/>
<path d="M153.208 108.161C151.7 110.347 149.403 110.786 146.47 109.858L146.452 109.852L146.861 108.562L146.914 108.579C152.391 110.313 153.379 107.438 154.195 104.858L148.595 103.085L148.964 101.919L160.218 105.482L159.955 106.313C159.955 106.313 159.759 106.931 159.083 109.069C158.417 111.171 156.912 113.163 155.003 112.559C153.555 112.101 152.699 110.197 153.208 108.161ZM154.13 106.354L153.766 107.502C153.667 107.879 153.609 108.308 153.65 108.729C153.821 110.338 155.058 111.527 156.463 111.388C157.423 111.303 158.15 110.542 158.493 109.582L159.46 106.525L154.566 104.976L154.13 106.354Z" fill="#19191F"/>
<path d="M150.779 125.561C149.054 126.488 146.874 126.44 145.045 125.421C142.211 123.843 141.087 120.417 142.556 117.778C142.953 117.065 143.494 116.476 144.169 116.025C144.256 115.945 144.35 115.892 144.477 115.814C144.562 115.777 144.631 115.73 144.74 115.685C144.818 115.622 144.919 115.593 145.079 115.534C146.729 114.82 148.698 114.941 150.365 115.869C153.215 117.457 154.339 120.883 152.869 123.522C152.41 124.348 151.723 125.047 150.873 125.507L150.848 125.514L150.839 125.53C150.83 125.547 150.813 125.538 150.813 125.538L150.804 125.554L150.779 125.561ZM144.259 122.566C145.819 124.983 148.548 126.1 150.45 125.123L150.544 125.069L150.569 125.062L150.578 125.046C150.594 125.055 150.629 125.032 150.629 125.032L150.902 124.845C151.228 124.602 151.508 124.291 151.715 123.919C151.959 123.481 152.105 122.99 152.154 122.445C152.274 121.239 151.927 119.921 151.15 118.725C149.63 116.351 146.852 115.207 144.976 116.177L144.875 116.205C144.747 116.283 144.619 116.36 144.516 116.43C144.181 116.689 143.918 117.009 143.711 117.381C143.476 117.802 143.33 118.293 143.281 118.839C143.144 120.036 143.492 121.354 144.259 122.566Z" fill="#19191F"/>
<path d="M139.625 133.122C137.821 134.112 135.979 135.119 134.591 133.976C134.185 133.652 132.344 131.899 134.593 129.14L134.738 128.971C136.609 126.792 138.827 126.743 140.339 127.456L139.422 128.524C138.638 128.242 136.564 127.584 135.018 129.383L134.946 129.468C133.887 130.757 133.836 131.812 134.802 132.593C135.77 133.4 136.827 133.307 139.144 132.146C139.194 132.116 139.245 132.086 139.297 132.082C139.359 132.038 139.436 132.006 139.51 131.948C141.431 130.935 143.008 130.237 144.269 131.272C144.494 131.465 145.271 132.181 145.37 133.317C145.435 134.18 145.096 135.086 144.323 135.985C141.739 138.993 139.155 137.849 138.428 137.444L139.286 136.446C140.158 136.853 142.245 137.523 143.96 135.527C144.793 134.557 144.877 133.236 144.132 132.596C143.233 131.823 142.121 131.894 140.206 132.815L140.182 132.843C139.991 132.923 139.816 133.041 139.625 133.122Z" fill="#19191F"/>
<path d="M130.01 142.365C128.055 143.007 126.059 143.658 124.905 142.279C124.566 141.886 123.078 139.825 125.795 137.526L125.968 137.387C128.209 135.589 130.397 135.947 131.753 136.927L130.655 137.808C129.936 137.387 128.019 136.359 126.169 137.844L126.082 137.913C124.804 138.986 124.56 140.014 125.366 140.959C126.169 141.93 127.226 142.033 129.716 141.317C129.771 141.297 129.826 141.277 129.878 141.282C129.948 141.25 130.029 141.233 130.113 141.189C132.187 140.547 133.865 140.151 134.915 141.399C135.1 141.631 135.732 142.478 135.621 143.612C135.527 144.472 135.027 145.301 134.102 146.043C131.009 148.525 128.68 146.925 128.039 146.393L129.066 145.57C129.848 146.13 131.777 147.172 133.829 145.525C134.827 144.725 135.152 143.442 134.537 142.676C133.795 141.751 132.689 141.617 130.638 142.17L130.609 142.193C130.407 142.237 130.213 142.321 130.01 142.365Z" fill="#19191F"/>
<path d="M118.465 142.535L119.45 141.942L125.556 152.088L124.572 152.681L118.465 142.535Z" fill="#19191F"/>
<path d="M97.3979 154.355L106.408 152.116L106.614 152.943L97.6035 155.182L97.3979 154.355Z" fill="#19191F"/>
</svg>
