<svg width="160" height="176" viewBox="0 0 160 176" fill="none" xmlns="http://www.w3.org/2000/svg">
<path fill-rule="evenodd" clip-rule="evenodd" d="M25.6 3.2C27.1109 1.18555 29.482 0 32 0H128C130.518 0 132.889 1.18555 134.4 3.2L158.4 35.2C160.218 37.6241 160.511 40.8674 159.155 43.5777C157.8 46.288 155.03 48 152 48H8.00004C4.96987 48 2.19976 46.288 0.844628 43.5777C-0.510507 40.8674 -0.21806 37.6241 1.60005 35.2L25.6 3.2ZM36 16L24 32H136L124 16H36Z" fill="white"/>
<path fill-rule="evenodd" clip-rule="evenodd" d="M8.00004 32C3.58177 32 4.57665e-05 35.5817 4.57665e-05 40V152C4.57665e-05 158.365 2.52861 164.47 7.02948 168.971C11.5303 173.471 17.6348 176 24 176H136C142.365 176 148.47 173.471 152.971 168.971C157.471 164.47 160 158.365 160 152V40C160 35.5817 156.418 32 152 32H8.00004ZM54 72C54 68.6863 51.3137 66 48 66C44.6863 66 42 68.6863 42 72C42 82.0782 46.0036 91.7437 53.13 98.8701C60.2563 105.996 69.9218 110 80 110C90.0782 110 99.7437 105.996 106.87 98.8701C113.996 91.7437 118 82.0782 118 72C118 68.6863 115.314 66 112 66C108.686 66 106 68.6863 106 72C106 78.8956 103.261 85.5088 98.3848 90.3848C93.5088 95.2607 86.8956 98 80 98C73.1044 98 66.4912 95.2607 61.6152 90.3848C56.7393 85.5088 54 78.8956 54 72Z" fill="white"/>
</svg>
