<?xml version="1.0" encoding="utf-8"?>
<!-- Generator: Adobe Illustrator 22.0.0, SVG Export Plug-In . SVG Version: 6.00 Build 0)  -->
<svg version="1.1" id="Capa_1" xmlns="http://www.w3.org/2000/svg" xmlns:xlink="http://www.w3.org/1999/xlink" x="0px" y="0px"
	 viewBox="0 0 31.5 41.4" style="enable-background:new 0 0 31.5 41.4;" xml:space="preserve">
<style type="text/css">
	.st0{fill:#1E201D;}
</style>
<path class="st0" d="M21.2,19.6c-0.4-0.4-1.1-0.4-1.6,0c-0.4,0.4-0.4,1.1,0,1.6l8,8H1.1c-0.6,0-1.1,0.5-1.1,1.1
	c0,0.6,0.5,1.1,1.1,1.1h26.6l-8,8c-0.4,0.4-0.4,1.2,0,1.6c0.4,0.4,1.2,0.4,1.6,0l10-10c0.4-0.4,0.4-1.1,0-1.6L21.2,19.6z"/>
<path class="st0" d="M10.3,21.8c0.4,0.4,1.1,0.4,1.6,0c0.4-0.4,0.4-1.1,0-1.6l-8-8h26.6c0.6,0,1.1-0.5,1.1-1.1S31,9.9,30.4,9.9H3.8
	l8-8c0.4-0.4,0.4-1.2,0-1.6c-0.4-0.4-1.2-0.4-1.6,0l-10,10c-0.4,0.4-0.4,1.1,0,1.6L10.3,21.8z"/>
</svg>
