<svg xmlns="http://www.w3.org/2000/svg" version="1.1" xmlns:xlink="http://www.w3.org/1999/xlink" width="501" height="501"><svg id="Layer_1" data-name="Layer 1" viewBox="0 0 501 501">
  <defs>
    <style>
      .cls-1 {
        fill: #fff;
        fill-rule: evenodd;
      }

      .cls-2 {
        fill: #0e1222;
        stroke: #231f20;
        stroke-miterlimit: 10;
      }
    </style>
  </defs>
  <rect class="cls-2" x=".5" y=".5" width="500" height="500"></rect>
  <path class="cls-1" d="M463.45,341.19h-92.53l-.77-.76v-7.45l.77-.97h94.26l1.63-.51,1.94-.2,4.69-1.94,3.47-2.35,2.6-2.7,1.12-1.63.71-1.33.92-3.37v-146.59l-.1-1.22-.71-2.04-1.74-3.16-3.21-3.21-2.55-1.74-3.57-1.63-4.08-1.02-4.69-.31H39.28l-5.71.51-2.55.71-3.57,1.63-3.26,2.24-2.8,3.01-1.74,3.06-.2,1.73-.51,1.12v146.9l1.33,4.08,1.43,2.24,1.79,1.99,4.28,3.06,5,1.94,4.28.82h78.04l.56.56v7.85l-.77.66H37.45l-2.86-.2-4.28-.82-2.75-.92-.82-.51-1.53-.41-4.28-2.35-3.06-2.35-3.01-3.01-2.55-3.88-.82-1.73-1.43-4.49-.31-4.59.1-146.29,1.63-5.71,2.55-4.39,2.24-2.55,3.83-3.32,3.06-1.94,5.51-2.35,3.77-.92,5.61-.71h424.47l7.45.92,5,1.63,3.16,1.53,3.16,1.94,2.65,2.14,2.4,2.6,2.24,3.26,1.63,3.26,1.02,4.59v149.65l-.2,1.84-.61,1.43-.1,1.12-1.73,3.67-2.24,3.16-3.62,3.62-3.67,2.55-5.2,2.45-3.37,1.12-3.88.71-3.16.2Z"></path>
  <path class="cls-1" d="M304.62,214.49l-96.3-.1-.66-.66v-5.51l.51-4.18.92-2.96,2.35-4.59,2.45-3.06,2.6-2.5,3.47-2.35,6.22-2.45,3.37-.31h75.59l.66.66v26.83l-.31.61-.87.56Z"></path>
  <path class="cls-1" d="M451.82,302.63h-58.35l-9.39-.82-9.69-2.55-2.75-1.33-1.33-.31-4.69-2.35-3.98-2.45-3.67-2.65-5.46-4.85-4.08-4.59-3.98-5.51-3.16-5.61-1.12-3.06-.61-1.02-2.35-7.14-.92-4.9-.61-7.14v-4.59l.51-6.43.92-5.1,2.45-7.55,1.43-2.86.31-1.12,2.45-4.49,2.45-3.77,3.16-4.08,3.72-3.93,3.67-3.37,5.3-3.88,4.28-2.55,4.69-2.35,4.08-1.22,2.65-1.12,8.67-1.84,2.55-.2,62.94-.1.56.36.2.41v27.14l-.46.56-.61.2-58.76-.1-3.77.31-3.47.82-3.88,1.53-4.49,2.55-3.16,2.45-2.7,2.81-3.26,4.59-1.73,3.67-1.43,4.08-.71,5v3.98l.61,4.39.92,3.16,2.35,5.1,2.45,3.67,1.22,1.33,3.72,3.62,3.67,2.45,4.79,2.35,6.43,1.63,3.67.2h28.77l.51-.2.56-.76v-9.49l-.77-.77h-33.26l-.56-.46-.1-27.24.2-.51.56-.46h61.92l.51.31.26.46v66.92l-.87.76Z"></path>
  <path class="cls-1" d="M148.03,302.74l-62.43-.1-1.94-.51-3.37-.41-3.16-.92-3.88-1.53-3.26-1.74-3.26-2.14-3.26-2.65-2.81-2.81-2.55-3.16-1.74-2.65-2.35-4.39-2.55-7.55-.71-5.51-.1-80.08.46-.56,27.65-.1.56.66-.1,78.45.82,2.55.92,1.73,3.21,3.11,1.63.92,2.55.71h59.68l.66.77v27.24l-.66.66Z"></path>
  <path class="cls-1" d="M216.78,258.46h-8.57l-.66-.56-.1-27.85.46-.66.51-.2h7.55l2.24.31,42.44-.1.46.46.1,27.54-.46.56h-42.54l-1.43.51Z"></path>
  <path class="cls-1" d="M237.19,302.43l-8.26-.1-.92-.2-19.99-.1-.56-.66.1-27.44.66-.46,28.46-.2,1.12.31.26.36v27.75l-.87.76Z"></path>
  <path class="cls-1" d="M179.45,353.54l-.97-.46-2.5-3.72-.41-.2h-4.08l-3.06-1.12-1.68-1.68-.92-1.94-.51-2.04-.41-3.57.2-3.98.41-2.04,1.22-3.16,1.28-1.48,1.43-.82,2.45-.71,2.04-.1,1.84.1,2.14.51,2.14,1.12.87.87.92,1.63.92,3.98v6.63l-.92,3.77-.71,1.22-1.43,1.53v.82l1.33,1.73.82,1.63-.46.56-1.94.92ZM173.89,346.24l2.7-.36,1.17-.97.92-1.33.51-1.53.2-1.43v-5.1l-.2-1.53-.51-1.63-.82-1.22-1.17-1.07-.82-.41-1.43-.2-2.75.31-.71.41-1.27,1.48-.82,1.63-.41,4.39.1,3.06.31,1.84.82,1.84.66.77,1.12.71,1.84.41.56-.05Z"></path>
  <path class="cls-1" d="M348.48,349.25l-5.3-.2-1.43-.51h-.92l-.87-.56v-1.33l.66-.77,4.49.31h2.55l1.43-.31,1.07-.97.71-1.63-.2-1.73-1.07-1.27-1.94-.82-4.28-1.12-2.14-1.43-1.17-1.58-.51-1.53v-2.45l.71-1.94,1.07-1.38,1.12-.71,1.84-.61,2.14-.2,3.77.2,2.75.41.77.66v1.33l-.77.77-4.59-.41-3.26.2-1.58,1.07-.61,1.22.1,1.22.97,1.38,3.26,1.53,1.63.2,2.75,1.02,1.48,1.07,1.02,1.94v4.59l-.71,1.43-1.07,1.28-1.02.71-2.86.92Z"></path>
  <path class="cls-1" d="M147.93,348.95h-12.04l-.97-.66v-20.71l.36-.46.51-.2h12.14l.66.56.1,1.63-.56.66h-9.08l-.41.2-.46.66-.1,2.35v2.24l.87,1.07h7.34l.56.66v1.43l-.56.87-7.55.1-.66.97v4.18l.2.92.76.56h9.18l.46.66v1.43l-.77.87Z"></path>
  <path class="cls-1" d="M209.95,349.25l-3.98-.1-2.35-.82-1.89-1.48-.82-1.53-.41-2.04-.1-15.51.77-.87h2.04l.66.66v15.4l.31,1.02.87,1.17,1.22.82.92.2,3.57-.2,1.02-.71,1.07-1.27.31-1.73-.1-14.69.66-.66h2.04l.76.56.1,14.59-.41,2.96-1.22,2.14-1.28.97-2.14.82-1.63.31Z"></path>
  <path class="cls-1" d="M237.7,348.95h-2.04l-.66-.66v-20.71l.56-.66h2.24l.66.77v20.4l-.77.87Z"></path>
  <path class="cls-1" d="M263.91,348.95h-1.94l-.77-.76.1-17.24-.2-.61-.56-.46h-4.79l-.41-.2-.36-.56v-1.43l.76-.77h14.69l.56.66v1.63l-.56.66-4.69-.1-.51.2-.46.66v17.55l-.87.76Z"></path>
  <path class="cls-1" d="M290.03,348.95h-1.73l-.61-.31-.25-.46v-20.61l.56-.56,1.43-.1.92.1.46.56v20.61l-.76.76Z"></path>
  <path class="cls-1" d="M322.57,348.95h-12.24l-.66-.36-.2-.41v-20.61l.36-.46.51-.2h12.34l.36.26.2.41v1.73l-.66.56-8.98-.1-.77.56-.2,1.12v3.67l.56.97.41.2h7.24l.56.56v1.73l-.66.66-7.45.1-.66,1.07.2,5,.77.56,8.98-.1.66.56v1.73l-.66.76Z"></path>
</svg></svg>