<svg width="16" height="16" viewBox="0 0 16 16" fill="none" xmlns="http://www.w3.org/2000/svg"><path d="M2.011 5.060 C 1.610 5.204,1.351 5.572,1.351 6.000 C 1.351 6.256,1.427 6.457,1.600 6.662 C 1.670 6.745,3.004 8.088,4.564 9.645 C 7.641 12.718,7.478 12.569,7.849 12.644 C 8.030 12.680,8.225 12.648,8.451 12.545 C 8.582 12.486,8.950 12.128,11.475 9.605 C 13.056 8.026,14.392 6.677,14.442 6.609 C 14.734 6.216,14.696 5.654,14.354 5.313 C 14.290 5.249,14.157 5.158,14.059 5.111 C 13.898 5.036,13.855 5.027,13.640 5.028 C 13.201 5.030,13.438 4.824,10.553 7.704 L 8.000 10.253 5.460 7.716 C 3.371 5.628,2.894 5.165,2.773 5.104 C 2.579 5.006,2.220 4.986,2.011 5.060 " fill="#353434" stroke="none" fill-rule="evenodd"></path></svg>