<svg width="24" height="24" viewBox="0 0 24 24" fill="none" xmlns="http://www.w3.org/2000/svg"><path d="M11.240 0.027 C 6.362 0.368,2.201 3.557,0.643 8.148 C -0.628 11.893,0.030 16.012,2.407 19.191 C 3.043 20.040,3.959 20.957,4.807 21.591 C 7.880 23.889,11.779 24.578,15.479 23.478 C 16.786 23.090,18.241 22.333,19.400 21.440 C 19.889 21.062,21.062 19.889,21.440 19.400 C 22.127 18.508,22.753 17.412,23.160 16.385 C 24.263 13.599,24.268 10.423,23.172 7.641 C 22.546 6.051,21.710 4.784,20.463 3.537 C 19.216 2.290,17.949 1.454,16.359 0.828 C 14.784 0.207,12.891 -0.089,11.240 0.027 M13.320 1.585 C 14.427 1.713,15.548 2.051,16.620 2.577 C 18.666 3.583,20.273 5.152,21.315 7.160 C 22.118 8.707,22.489 10.239,22.489 12.000 C 22.489 13.761,22.118 15.293,21.315 16.840 C 19.698 19.957,16.676 22.028,13.140 22.443 C 12.564 22.510,11.319 22.500,10.700 22.422 C 8.798 22.184,6.916 21.387,5.400 20.175 C 4.964 19.827,4.173 19.036,3.825 18.600 C 2.843 17.371,2.078 15.782,1.745 14.280 C 1.429 12.858,1.429 11.142,1.745 9.720 C 2.078 8.218,2.843 6.629,3.825 5.400 C 4.173 4.964,4.964 4.173,5.400 3.825 C 5.960 3.378,6.662 2.931,7.323 2.603 C 9.208 1.666,11.164 1.334,13.320 1.585 M13.940 6.536 C 13.563 6.702,13.386 7.135,13.541 7.511 C 13.584 7.613,14.165 8.222,15.391 9.450 L 17.180 11.240 11.090 11.240 L 5.000 11.240 5.000 12.000 L 5.000 12.760 11.089 12.760 L 17.179 12.760 15.374 14.570 C 13.435 16.515,13.449 16.497,13.490 16.865 C 13.543 17.335,14.045 17.636,14.490 17.466 C 14.626 17.414,15.158 16.902,17.167 14.890 C 19.754 12.300,19.760 12.293,19.760 12.000 C 19.760 11.707,19.752 11.699,17.187 9.126 C 15.497 7.431,14.649 6.608,14.540 6.557 C 14.354 6.469,14.110 6.461,13.940 6.536 " fill="#353434" stroke="none" fill-rule="evenodd"></path></svg>