<svg width="16" height="16" viewBox="0 0 16 16" fill="none" xmlns="http://www.w3.org/2000/svg"><path d="M15.373 0.909 C 15.051 0.949,14.631 1.146,14.294 1.416 C 13.609 1.965,11.736 3.754,10.920 4.640 C 9.978 5.662,9.253 6.567,8.401 7.782 C 7.558 8.985,7.159 9.655,6.480 11.000 C 5.955 12.042,5.782 12.438,5.643 12.924 L 5.557 13.222 5.092 12.780 C 3.437 11.207,2.511 10.402,2.199 10.263 C 1.927 10.143,1.458 10.176,1.014 10.348 C 0.447 10.567,0.001 10.986,0.000 11.301 C -0.000 11.470,0.086 11.577,0.460 11.874 C 1.089 12.371,1.370 12.623,2.774 13.948 C 4.170 15.267,4.793 15.821,4.998 15.926 C 5.394 16.128,6.132 15.859,6.880 15.239 C 7.292 14.898,7.529 14.582,7.850 13.952 C 8.171 13.321,8.345 12.846,8.773 11.440 C 9.213 9.997,9.347 9.635,9.725 8.877 C 10.757 6.807,12.443 4.771,15.000 2.510 C 15.235 2.303,15.514 2.034,15.621 1.913 C 15.835 1.671,16.000 1.376,16.000 1.235 C 16.000 0.980,15.770 0.860,15.373 0.909 " fill="#353434" stroke="none" fill-rule="evenodd"></path></svg>