<svg width="22" height="23" viewBox="0 0 22 23" fill="none" xmlns="http://www.w3.org/2000/svg"><path d="M7.150 1.012 C 6.773 1.081,6.347 1.316,6.086 1.599 C 5.994 1.697,5.549 2.370,5.096 3.093 C 4.547 3.969,4.209 4.471,4.083 4.596 C 3.956 4.724,3.475 5.047,2.601 5.592 C 1.119 6.516,0.920 6.675,0.701 7.114 C 0.538 7.439,0.456 7.831,0.490 8.121 C 0.502 8.224,0.664 8.960,0.849 9.755 C 1.296 11.675,1.296 11.464,0.843 13.383 C 0.547 14.634,0.500 14.877,0.499 15.162 C 0.496 15.701,0.722 16.217,1.112 16.560 C 1.207 16.644,1.874 17.080,2.595 17.531 C 3.443 18.061,3.971 18.414,4.091 18.534 C 4.217 18.659,4.543 19.143,5.100 20.033 C 5.552 20.756,5.984 21.419,6.060 21.506 C 6.399 21.895,6.922 22.126,7.462 22.126 C 7.750 22.125,7.976 22.082,9.258 21.779 C 11.176 21.327,10.948 21.327,12.870 21.775 C 13.667 21.961,14.417 22.122,14.538 22.133 C 14.949 22.171,15.436 22.022,15.806 21.746 C 16.081 21.542,16.150 21.444,17.065 19.983 C 17.676 19.008,17.906 18.672,18.069 18.517 C 18.207 18.384,18.734 18.032,19.599 17.492 C 21.014 16.609,21.194 16.468,21.401 16.077 C 21.566 15.764,21.633 15.502,21.633 15.167 C 21.633 14.928,21.572 14.611,21.296 13.423 C 20.841 11.469,20.841 11.659,21.298 9.699 C 21.572 8.522,21.639 8.179,21.638 7.958 C 21.636 7.431,21.469 7.026,21.102 6.655 C 20.932 6.484,20.577 6.243,19.562 5.609 C 18.609 5.015,18.185 4.729,18.040 4.583 C 17.898 4.440,17.594 3.989,17.015 3.061 C 16.424 2.114,16.134 1.685,15.988 1.539 C 15.610 1.163,15.082 0.965,14.557 1.002 C 14.405 1.013,13.630 1.174,12.833 1.359 C 11.615 1.644,11.336 1.698,11.073 1.698 C 10.808 1.699,10.545 1.649,9.295 1.357 C 7.866 1.024,7.452 0.958,7.150 1.012 M15.175 7.136 C 15.438 7.267,15.557 7.451,15.577 7.753 C 15.588 7.933,15.575 8.013,15.513 8.134 C 15.296 8.560,11.012 15.766,10.913 15.872 C 10.850 15.940,10.745 16.018,10.680 16.046 C 10.511 16.119,10.216 16.110,10.053 16.027 C 9.860 15.928,6.678 12.875,6.586 12.699 C 6.476 12.490,6.487 12.192,6.613 11.977 C 6.817 11.629,7.287 11.500,7.620 11.700 C 7.701 11.748,8.315 12.314,8.985 12.956 C 9.654 13.598,10.214 14.109,10.230 14.092 C 10.245 14.075,11.145 12.560,12.228 10.725 C 13.311 8.890,14.251 7.334,14.316 7.267 C 14.545 7.032,14.867 6.983,15.175 7.136 " fill="#222222" stroke="none" fill-rule="evenodd"></path></svg>