<svg width="24" height="24" viewBox="0 0 24 24" fill="none" xmlns="http://www.w3.org/2000/svg"><path d="m20.826 9.923-7.5-7.5a1.875 1.875 0 0 0-2.652 0l-7.5 7.5a1.862 1.862 0 0 0-.549 1.327v9a1.125 1.125 0 0 0 1.125 1.125h6a1.125 1.125 0 0 0 1.125-1.125v-4.875h2.25v4.875a1.125 1.125 0 0 0 1.125 1.125h6a1.125 1.125 0 0 0 1.125-1.125v-9a1.862 1.862 0 0 0-.55-1.327Zm-1.701 9.202h-3.75V14.25a1.125 1.125 0 0 0-1.125-1.125h-4.5a1.125 1.125 0 0 0-1.125 1.125v4.875h-3.75v-7.72L12 4.28l7.125 7.125v7.72Z" fill="#353434"/></svg>