<svg width="24" height="24" viewBox="0 0 24 24" fill="none" xmlns="http://www.w3.org/2000/svg"><path d="M2 15.75S3.795 15 7 15c5 0 9 3 15 3M2 21h20M14.5 9.5l2 7.5M12.286 3 12 2m.594 1.228c-2.846.816-4.695 3.624-4.59 6.647.022.628.033.942.301 1.08.269.14.547-.057 1.104-.45l1.242-.878a.98.98 0 0 1 .63-.181l2.917.187 2.438-1.723a.98.98 0 0 1 .63-.18l1.522.097c.653.042.98.063 1.141-.188.161-.251.03-.523-.233-1.067-1.31-2.702-4.24-4.165-7.102-3.344Z" stroke="#353434" stroke-width="1.5" stroke-linecap="round" stroke-linejoin="round"/></svg>