<svg width="25" height="24" viewBox="0 0 25 24" fill="none" xmlns="http://www.w3.org/2000/svg"><path d="M10.5 9.5 5.775 4.476c-.418-.452-.351-.781.142-1.066.928-.537 1.65-.551 2.627-.015l4.905 2.692c.35.19.692.386 1.051.492M13 13.663l2.11 6.807c.173.556.476.656.946.387.884-.507 1.24-1.092 1.264-2.146l.12-5.291c.015-.707.013-1.4.56-1.92" stroke="#353434" stroke-width="1.5" stroke-linecap="round" stroke-linejoin="round"/><path d="m8.828 10.984 1.887-1.378 4.423-3.225.004-.003.007-.005c.105-.076 1.66-1.21 2.543-1.597 1.084-.475 2.095-.254 3.182.05.562.156.843.235 1.046.38.322.234.531.59.574.982.027.247-.044.527-.187 1.086-.278 1.08-.589 2.054-1.548 2.744-.78.56-2.555 1.323-2.673 1.374l-.009.004h-.004l-5.041 2.168-2.154.924c-.78.334-1.171.502-1.437.812-.622.727-.71 2.044-.942 2.95-.128.5-.832 1.367-1.458 1.237-.387-.08-.395-.565-.443-.874l-.464-2.974c-.11-.711-.12-.726-.688-1.176l-2.378-1.884c-.247-.195-.669-.444-.546-.815.2-.6 1.312-.768 1.815-.628.911.255 2.11.838 3.06.67.405-.072.747-.322 1.431-.822Z" stroke="#353434" stroke-width="1.5" stroke-linecap="round" stroke-linejoin="round"/></svg>