<svg width="24" height="24" viewBox="0 0 24 24" fill="none" xmlns="http://www.w3.org/2000/svg"><path d="M17.778 23v-8.362c.59 0 1.154-.236 1.571-.655a2.24 2.24 0 0 0 .651-1.58v-.319h-3.365a1.591 1.591 0 0 1-1.587-1.596v2.487a4.32 4.32 0 0 1-.506 2.029 4.29 4.29 0 0 1-1.399 1.549 4.29 4.29 0 0 0-1.399 1.549 4.318 4.318 0 0 0-.506 2.03v2.421h-.35c-.412 0-.807-.165-1.1-.458a1.568 1.568 0 0 1-.455-1.106v-1.564m4 0h1.334v.261c0 .782 0 1.303.4 2.085 0 .002.4.782.933.782M5.778 23v-5.809c0-.474-.188-.929-.52-1.264A1.773 1.773 0 0 0 4 15.404v-7.15s1.333-.894 3.556-.894c2.222 0 3.555.894 3.555.894v6.703M7.422 5.573S6 4.679 6 3.563a1.57 1.57 0 0 1 .455-1.105 1.553 1.553 0 0 1 1.693-.34 1.553 1.553 0 0 1 .841.846c.078.19.119.393.119.598 0 1.117-1.42 2.011-1.42 2.011h-.266Z" stroke="#353434" stroke-width="2"/></svg>