<svg width="57" height="72" viewBox="0 0 57 72" fill="none" xmlns="http://www.w3.org/2000/svg"><path fill-rule="evenodd" clip-rule="evenodd" d="M36.774.923a.925.925 0 0 0-.92-.923h-25.74C7.43 0 4.859 1.07 2.962 2.974A10.175 10.175 0 0 0 0 10.154v51.692c0 2.693 1.065 5.276 2.962 7.18A10.092 10.092 0 0 0 10.112 72h36.775c2.682 0 5.255-1.07 7.151-2.974A10.175 10.175 0 0 0 57 61.846v-36.38a.925.925 0 0 0-.92-.923H39.533a2.753 2.753 0 0 1-1.95-.811 2.775 2.775 0 0 1-.808-1.959V.923Zm2.758 36c.732 0 1.433.292 1.95.811a2.775 2.775 0 0 1 0 3.916 2.752 2.752 0 0 1-1.95.812H17.468a2.752 2.752 0 0 1-1.95-.812 2.775 2.775 0 0 1 0-3.916 2.752 2.752 0 0 1 1.95-.81h22.064Zm0 14.77a2.75 2.75 0 0 1 1.95.81 2.775 2.775 0 0 1 0 3.917 2.753 2.753 0 0 1-1.95.81H17.468a2.753 2.753 0 0 1-1.95-.81 2.775 2.775 0 0 1 0-3.917 2.753 2.753 0 0 1 1.95-.81h22.064Z" fill="#333"/><path d="M42.291 2.12c0-.68.71-1.112 1.236-.688.445.362.845.783 1.187 1.263l11.08 15.497c.25.354-.022.812-.455.812H43.21a.917.917 0 0 1-.919-.923V2.119Z" fill="#333"/></svg>