<svg width="61" height="71" viewBox="0 0 61 71" fill="none" xmlns="http://www.w3.org/2000/svg"><path d="M10.5 0A2.5 2.5 0 0 1 13 2.5V5h10V2.5a2.5 2.5 0 0 1 5 0V5h10V2.5a2.5 2.5 0 0 1 5 0V5a7.5 7.5 0 0 1 7.5 7.5v12.68a12.75 12.75 0 0 0-5 2.03V12.5A2.5 2.5 0 0 0 43 10H8a2.5 2.5 0 0 0-2.5 2.5v50A2.5 2.5 0 0 0 8 65h7.735v.01a8 8 0 0 0 .34 4.99H8a7.5 7.5 0 0 1-7.5-7.5v-50A7.5 7.5 0 0 1 8 5V2.5A2.5 2.5 0 0 1 10.5 0Zm25 35c.535 0 1.03.17 1.44.455L32.39 40H15.5a2.5 2.5 0 0 1 0-5h20ZM20.48 52.175A2.5 2.5 0 0 0 18 50h-2.5a2.5 2.5 0 0 0 0 5H18c.267 0 .532-.042.785-.125a18.618 18.618 0 0 1 1.695-2.7ZM15.5 20a2.5 2.5 0 0 0 0 5h20a2.5 2.5 0 0 0 0-5h-20Zm31.69 12.275A7.803 7.803 0 0 1 58.225 43.31L36.78 64.75a14 14 0 0 1-6.45 3.655l-6.055 1.515a3.05 3.05 0 0 1-3.7-3.7l1.52-6.05a13.832 13.832 0 0 1 3.65-6.45L47.19 32.275Z" fill="#010101"/></svg>