<svg width="756" height="626" fill="none" xmlns="http://www.w3.org/2000/svg"><g opacity=".5"><mask id="a" maskUnits="userSpaceOnUse" x="0" y="39" width="159" height="71"><path d="M159 69.524V39.75H0v29.774c0 1.839 1.403 3.725 4.257 5.128l65.012 32.506c5.66 2.854 14.85 2.854 20.51 0l65.012-32.506c2.806-1.403 4.209-3.241 4.209-5.128z" fill="url(#paint0_linear)"/></mask><g mask="url(#a)"><path d="M159 69.524V39.75H0v29.774c0 1.839 1.403 3.725 4.257 5.128l65.012 32.506c5.66 2.854 14.85 2.854 20.51 0l65.012-32.506c2.806-1.403 4.209-3.241 4.209-5.128z" fill="url(#paint1_linear)"/></g></g><path d="M69.239 2.125c5.667-2.833 14.855-2.833 20.522 0L154.75 34.62c5.668 2.834 5.668 7.428 0 10.261L89.761 77.375c-5.667 2.833-14.855 2.833-20.522 0L4.25 44.88c-5.667-2.833-5.667-7.427 0-10.26L69.24 2.124z" fill="#F6F5F8"/><defs><linearGradient id="paint0_linear" x1="-21.051" y1="14.135" x2="-25.192" y2="81.315" gradientUnits="userSpaceOnUse"><stop stop-color="#D857BC"/><stop offset="1" stop-color="#D857BC" stop-opacity="0"/></linearGradient><linearGradient id="paint1_linear" x1="159" y1="18.042" x2="2.502" y2="15.114" gradientUnits="userSpaceOnUse"><stop stop-color="#F6F5F8"/><stop offset=".365" stop-color="#F6F5F8"/><stop offset=".479" stop-color="#F6F5F8"/><stop offset=".599" stop-color="#F6F5F8"/><stop offset="1" stop-color="#F6F5F8"/></linearGradient></defs></svg>