<svg width="756" height="626" fill="none" xmlns="http://www.w3.org/2000/svg"><g opacity=".5"><mask id="a" maskUnits="userSpaceOnUse" x="41" y="394" width="487" height="214"><path d="M527.999 485.946V394.75H41v91.196c0 5.63 4.297 11.409 13.038 15.705l199.126 99.563c17.334 8.742 45.485 8.742 62.819 0l199.126-99.563c8.593-4.296 12.89-9.926 12.89-15.705z" fill="url(#paint0_linear)"/></mask><g mask="url(#a)"><path d="M527.999 485.946V394.75H41v91.196c0 5.63 4.297 11.409 13.038 15.705l199.126 99.563c17.334 8.742 45.485 8.742 62.819 0l199.126-99.563c8.593-4.296 12.89-9.926 12.89-15.705z" fill="url(#paint1_linear)"/></g></g><path d="M253.071 279.509c17.357-8.679 45.5-8.679 62.858 0l199.052 99.526c17.358 8.679 17.358 22.75 0 31.429L315.929 509.99c-17.358 8.679-45.501 8.679-62.858 0L54.018 410.464c-17.358-8.679-17.358-22.75 0-31.429l199.053-99.526z" fill="#F6F5F8"/><defs><linearGradient id="paint0_linear" x1="-23.476" y1="316.294" x2="-36.16" y2="522.061" gradientUnits="userSpaceOnUse"><stop stop-color="#D857BC"/><stop offset="1" stop-color="#D857BC" stop-opacity="0"/></linearGradient><linearGradient id="paint1_linear" x1="527.999" y1="328.26" x2="48.663" y2="319.294" gradientUnits="userSpaceOnUse"><stop stop-color="#F6F5F8"/><stop offset=".365" stop-color="#F6F5F8"/><stop offset=".479" stop-color="#F6F5F8"/><stop offset=".599" stop-color="#F6F5F8"/><stop offset="1" stop-color="#F6F5F8"/></linearGradient></defs></svg>