<svg width="756" height="626" fill="none" xmlns="http://www.w3.org/2000/svg"><g opacity=".5"><mask id="a" maskUnits="userSpaceOnUse" x="597" y="555" width="159" height="71"><path d="M756 585.524V555.75H597v29.774c0 1.839 1.403 3.725 4.257 5.128l65.012 32.506c5.66 2.854 14.85 2.854 20.51 0l65.012-32.506c2.806-1.403 4.209-3.241 4.209-5.128z" fill="url(#paint0_linear)"/></mask><g mask="url(#a)"><path d="M756 585.524V555.75H597v29.774c0 1.839 1.403 3.725 4.257 5.128l65.012 32.506c5.66 2.854 14.85 2.854 20.51 0l65.012-32.506c2.806-1.403 4.209-3.241 4.209-5.128z" fill="url(#paint1_linear)"/></g></g><path d="M666.239 518.125c5.667-2.833 14.855-2.833 20.522 0l64.988 32.494c5.668 2.834 5.668 7.428 0 10.262l-64.988 32.494c-5.667 2.833-14.855 2.833-20.522 0l-64.989-32.494c-5.667-2.834-5.667-7.428 0-10.262l64.989-32.494z" fill="#F6F5F8"/><defs><linearGradient id="paint0_linear" x1="575.949" y1="530.135" x2="571.808" y2="597.315" gradientUnits="userSpaceOnUse"><stop stop-color="#D857BC"/><stop offset="1" stop-color="#D857BC" stop-opacity="0"/></linearGradient><linearGradient id="paint1_linear" x1="756" y1="534.042" x2="599.502" y2="531.114" gradientUnits="userSpaceOnUse"><stop stop-color="#F6F5F8"/><stop offset=".365" stop-color="#F6F5F8"/><stop offset=".479" stop-color="#F6F5F8"/><stop offset=".599" stop-color="#F6F5F8"/><stop offset="1" stop-color="#F6F5F8"/></linearGradient></defs></svg>