<svg width="64" height="82" viewBox="0 0 64 82" fill="none" xmlns="http://www.w3.org/2000/svg">
<path d="M33.1218 2.17524L62.6645 19.4536C62.9712 19.633 63.1597 19.9616 63.1597 20.3168V79.5746C63.1597 80.3469 62.3215 80.8277 61.6548 80.4378L33.1218 63.7499V2.17524Z" fill="#F0FAF6"/>
<path d="M32.2383 1.37821L2.20044 17.4777V80.5201L32.2383 62.9521V1.37821Z" fill="#EAEAEA"/>
<path d="M32.9708 1.76105L2.93298 17.8605V80.9029L32.9708 63.3349V1.76105Z" fill="white"/>
<path d="M32.9708 1.76105L2.93298 17.8605V80.9029L32.9708 63.3349V1.76105Z" fill="url(#paint0_linear_522_67738)" fill-opacity="0.16"/>
<path d="M32.9708 1.76105L2.93298 17.8605V80.9029L32.9708 63.3349V1.76105Z" fill="#F0FAF6"/>
<path d="M32.9708 1.76105L2.93298 17.8605V80.9029L32.9708 63.3349V1.76105Z" fill="url(#paint1_linear_522_67738)"/>
<path d="M28.2251 12.0228C28.2251 11.2666 27.4183 10.7841 26.7521 11.1417L9.26917 20.528C8.94466 20.7022 8.74219 21.0407 8.74219 21.409V33.7493C8.74219 34.5116 9.56101 34.9936 10.2275 34.6236L27.7105 24.9185C28.0281 24.7421 28.2251 24.4074 28.2251 24.0441V12.0228Z" fill="white"/>
<path d="M28.2251 12.0228C28.2251 11.2666 27.4183 10.7841 26.7521 11.1417L9.26917 20.528C8.94466 20.7022 8.74219 21.0407 8.74219 21.409V33.7493C8.74219 34.5116 9.56101 34.9936 10.2275 34.6236L27.7105 24.9185C28.0281 24.7421 28.2251 24.4074 28.2251 24.0441V12.0228Z" fill="white"/>
<path d="M28.2251 12.0228C28.2251 11.2666 27.4183 10.7841 26.7521 11.1417L9.26917 20.528C8.94466 20.7022 8.74219 21.0407 8.74219 21.409V33.7493C8.74219 34.5116 9.56101 34.9936 10.2275 34.6236L27.7105 24.9185C28.0281 24.7421 28.2251 24.4074 28.2251 24.0441V12.0228Z" fill="url(#paint2_linear_522_67738)" fill-opacity="0.6"/>
<path d="M28.2251 30.4552C28.2251 29.6991 27.4183 29.2165 26.7521 29.5742L9.26917 38.9604C8.94466 39.1347 8.74219 39.4732 8.74219 39.8415V52.1817C8.74219 52.9441 9.56101 53.4261 10.2275 53.0561L27.7105 43.3509C28.0281 43.1746 28.2251 42.8399 28.2251 42.4766V30.4552Z" fill="white"/>
<path d="M28.2251 30.4552C28.2251 29.6991 27.4183 29.2165 26.7521 29.5742L9.26917 38.9604C8.94466 39.1347 8.74219 39.4732 8.74219 39.8415V52.1817C8.74219 52.9441 9.56101 53.4261 10.2275 53.0561L27.7105 43.3509C28.0281 43.1746 28.2251 42.8399 28.2251 42.4766V30.4552Z" fill="white"/>
<path d="M28.2251 30.4552C28.2251 29.6991 27.4183 29.2165 26.7521 29.5742L9.26917 38.9604C8.94466 39.1347 8.74219 39.4732 8.74219 39.8415V52.1817C8.74219 52.9441 9.56101 53.4261 10.2275 53.0561L27.7105 43.3509C28.0281 43.1746 28.2251 42.8399 28.2251 42.4766V30.4552Z" fill="url(#paint3_linear_522_67738)" fill-opacity="0.6"/>
<path d="M28.2251 48.5724C28.2251 47.8082 27.4026 47.3264 26.736 47.7002L9.25308 57.5039C8.93756 57.6808 8.74219 58.0143 8.74219 58.3761V70.6761C8.74219 71.4502 9.58391 71.9307 10.2505 71.5372L27.7335 61.2169C28.0382 61.037 28.2251 60.7095 28.2251 60.3557V48.5724Z" fill="white"/>
<path d="M28.2251 48.5724C28.2251 47.8082 27.4026 47.3264 26.736 47.7002L9.25308 57.5039C8.93756 57.6808 8.74219 58.0143 8.74219 58.3761V70.6761C8.74219 71.4502 9.58391 71.9307 10.2505 71.5372L27.7335 61.2169C28.0382 61.037 28.2251 60.7095 28.2251 60.3557V48.5724Z" fill="white"/>
<path d="M28.2251 48.5724C28.2251 47.8082 27.4026 47.3264 26.736 47.7002L9.25308 57.5039C8.93756 57.6808 8.74219 58.0143 8.74219 58.3761V70.6761C8.74219 71.4502 9.58391 71.9307 10.2505 71.5372L27.7335 61.2169C28.0382 61.037 28.2251 60.7095 28.2251 60.3557V48.5724Z" fill="url(#paint4_linear_522_67738)" fill-opacity="0.6"/>
<path d="M0.842407 16.7818L2.9331 17.8605L32.9709 1.74457L31.3456 0.91872C31.054 0.770578 30.7084 0.774362 30.4202 0.928854L0.842407 16.7818Z" fill="#F0FAF6"/>
<path d="M0.842407 16.7818L2.9331 17.8605L32.9709 1.74457L31.3456 0.91872C31.054 0.770578 30.7084 0.774362 30.4202 0.928854L0.842407 16.7818Z" fill="url(#paint5_linear_522_67738)" fill-opacity="0.16"/>
<path d="M0.840332 79.2124C0.840332 79.5863 1.04894 79.929 1.38111 80.1007L2.93293 80.9029V17.8605L0.840332 16.7787V79.2124Z" fill="#F0FAF6"/>
<path d="M0.840332 79.2124C0.840332 79.5863 1.04894 79.929 1.38111 80.1007L2.93293 80.9029V17.8605L0.840332 16.7787V79.2124Z" fill="url(#paint6_linear_522_67738)" fill-opacity="0.16"/>
<path d="M5.83793 49.9826C6.68378 49.9826 7.36947 49.1422 7.36947 48.1054C7.36947 47.0686 6.68378 46.2282 5.83793 46.2282C4.99209 46.2282 4.3064 47.0686 4.3064 48.1054C4.3064 49.1422 4.99209 49.9826 5.83793 49.9826Z" fill="#9B5925"/>
<path d="M5.83793 49.9826C6.68378 49.9826 7.36947 49.1422 7.36947 48.1054C7.36947 47.0686 6.68378 46.2282 5.83793 46.2282C4.99209 46.2282 4.3064 47.0686 4.3064 48.1054C4.3064 49.1422 4.99209 49.9826 5.83793 49.9826Z" fill="url(#paint7_linear_522_67738)"/>
<path d="M5.83793 49.9826C6.68378 49.9826 7.36947 49.1422 7.36947 48.1054C7.36947 47.0686 6.68378 46.2282 5.83793 46.2282C4.99209 46.2282 4.3064 47.0686 4.3064 48.1054C4.3064 49.1422 4.99209 49.9826 5.83793 49.9826Z" fill="#F0FAF6"/>
<defs>
<linearGradient id="paint0_linear_522_67738" x1="47.7852" y1="121.459" x2="-35.2784" y2="105.194" gradientUnits="userSpaceOnUse">
<stop stop-color="#245795"/>
<stop offset="1" stop-color="#8AD3A8"/>
</linearGradient>
<linearGradient id="paint1_linear_522_67738" x1="47.1587" y1="119.816" x2="-32.404" y2="104.264" gradientUnits="userSpaceOnUse">
<stop stop-color="#245795"/>
<stop offset="1" stop-color="#8AD3A8"/>
</linearGradient>
<linearGradient id="paint2_linear_522_67738" x1="37.8339" y1="48.3093" x2="-10.3745" y2="29.0005" gradientUnits="userSpaceOnUse">
<stop stop-color="#245795"/>
<stop offset="1" stop-color="#8AD3A8"/>
</linearGradient>
<linearGradient id="paint3_linear_522_67738" x1="37.8339" y1="66.7418" x2="-10.3745" y2="47.433" gradientUnits="userSpaceOnUse">
<stop stop-color="#245795"/>
<stop offset="1" stop-color="#8AD3A8"/>
</linearGradient>
<linearGradient id="paint4_linear_522_67738" x1="37.8339" y1="85.5272" x2="-10.616" y2="66.4747" gradientUnits="userSpaceOnUse">
<stop stop-color="#245795"/>
<stop offset="1" stop-color="#8AD3A8"/>
</linearGradient>
<linearGradient id="paint5_linear_522_67738" x1="48.1464" y1="26.3069" x2="2.31504" y2="-17.838" gradientUnits="userSpaceOnUse">
<stop stop-color="#245795"/>
<stop offset="1" stop-color="#8AD3A8"/>
</linearGradient>
<linearGradient id="paint6_linear_522_67738" x1="3.92134" y1="112.432" x2="-1.83159" y2="112.335" gradientUnits="userSpaceOnUse">
<stop stop-color="#245795"/>
<stop offset="1" stop-color="#8AD3A8"/>
</linearGradient>
<linearGradient id="paint7_linear_522_67738" x1="8.88015" y1="51.9066" x2="1.40885" y2="48.7616" gradientUnits="userSpaceOnUse">
<stop stop-color="#245795"/>
<stop offset="1" stop-color="#8AD3A8"/>
</linearGradient>
</defs>
</svg>
