<svg width="86" height="107" viewBox="0 0 86 107" fill="none" xmlns="http://www.w3.org/2000/svg">
<path d="M65.6079 23.9999L32.6079 55.9196L60.531 78.9999L65.6079 23.9999Z" stroke="url(#paint0_linear_519_67645)"/>
<circle cx="20.0001" cy="55.3039" r="19.3922" fill="#D9D9D9"/>
<circle cx="20.0001" cy="55.3039" r="19.3922" fill="#F0FAF6"/>
<circle cx="66.0001" cy="86.8726" r="19.3922" fill="#D9D9D9"/>
<circle cx="66.0001" cy="86.8726" r="19.3922" fill="#F0FAF6"/>
<circle cx="66.0001" cy="20.1274" r="19.3922" fill="#D9D9D9"/>
<circle cx="66.0001" cy="20.1274" r="19.3922" fill="#F0FAF6"/>
<path fill-rule="evenodd" clip-rule="evenodd" d="M20.0951 44.9314C17.6175 44.9314 15.609 46.9398 15.609 49.4174C15.609 51.895 17.6175 53.9035 20.0951 53.9035C22.5727 53.9035 24.5811 51.895 24.5811 49.4174C24.5811 46.9398 22.5727 44.9314 20.0951 44.9314ZM13.6152 55.8973C11.4129 55.8973 9.62756 57.6826 9.62756 59.8849C9.62756 62.0872 11.4129 63.8725 13.6152 63.8725H26.5749C28.7772 63.8725 30.5625 62.0872 30.5625 59.8849C30.5625 57.6826 28.7772 55.8973 26.5749 55.8973H13.6152Z" fill="#D9D9D9"/>
<path fill-rule="evenodd" clip-rule="evenodd" d="M20.0951 44.9314C17.6175 44.9314 15.609 46.9398 15.609 49.4174C15.609 51.895 17.6175 53.9035 20.0951 53.9035C22.5727 53.9035 24.5811 51.895 24.5811 49.4174C24.5811 46.9398 22.5727 44.9314 20.0951 44.9314ZM13.6152 55.8973C11.4129 55.8973 9.62756 57.6826 9.62756 59.8849C9.62756 62.0872 11.4129 63.8725 13.6152 63.8725H26.5749C28.7772 63.8725 30.5625 62.0872 30.5625 59.8849C30.5625 57.6826 28.7772 55.8973 26.5749 55.8973H13.6152Z" fill="url(#paint1_linear_519_67645)"/>
<path fill-rule="evenodd" clip-rule="evenodd" d="M66.0951 76.5C63.6175 76.5 61.609 78.5085 61.609 80.9861C61.609 83.4637 63.6175 85.4721 66.0951 85.4721C68.5727 85.4721 70.5811 83.4637 70.5811 80.9861C70.5811 78.5085 68.5727 76.5 66.0951 76.5ZM59.6152 87.4659C57.4129 87.4659 55.6276 89.2513 55.6276 91.4536C55.6276 93.6559 57.4129 95.4412 59.6152 95.4412H72.5749C74.7772 95.4412 76.5625 93.6559 76.5625 91.4536C76.5625 89.2513 74.7772 87.4659 72.5749 87.4659H59.6152Z" fill="#D9D9D9"/>
<path fill-rule="evenodd" clip-rule="evenodd" d="M66.0951 76.5C63.6175 76.5 61.609 78.5085 61.609 80.9861C61.609 83.4637 63.6175 85.4721 66.0951 85.4721C68.5727 85.4721 70.5811 83.4637 70.5811 80.9861C70.5811 78.5085 68.5727 76.5 66.0951 76.5ZM59.6152 87.4659C57.4129 87.4659 55.6276 89.2513 55.6276 91.4536C55.6276 93.6559 57.4129 95.4412 59.6152 95.4412H72.5749C74.7772 95.4412 76.5625 93.6559 76.5625 91.4536C76.5625 89.2513 74.7772 87.4659 72.5749 87.4659H59.6152Z" fill="url(#paint2_linear_519_67645)"/>
<path d="M73.0493 11.8231C73.8753 11.9806 74.7108 12.0845 75.5505 12.1342L75.4048 11.953V11.9325L75.384 11.9051L75.3632 11.8778L75.3077 11.8162V11.7992L75.2903 11.7786L75.1967 11.6727C74.5549 11.7171 73.8646 11.7855 73.1395 11.888L73.0493 11.8231ZM64.387 14.6572C65.24 15.3962 66.1772 16.0352 67.1796 16.5614C69.4428 15.5808 71.8444 14.9456 74.3017 14.6777L73.8992 14.6264C71.9965 14.4112 70.1339 13.9336 68.366 13.2077L68.085 13.0846C66.8132 13.5143 65.5768 14.0401 64.387 14.6572ZM60.9734 16.7768C60.4114 17.1893 59.8667 17.6246 59.3394 18.0827C59.8332 18.9267 60.3996 19.7274 61.0323 20.4758C61.555 20.0063 62.1182 19.5505 62.7218 19.1084C63.2699 18.7072 63.8215 18.338 64.3766 18.0007C63.712 17.5762 63.079 17.1055 62.4824 16.5922C62.2882 16.4247 62.1043 16.2503 61.9308 16.0931C61.6117 16.3084 61.2925 16.5306 60.9734 16.7768ZM54.3821 23.8193C54.6991 24.6986 55.1169 25.5394 55.6275 26.3252V26.3457L55.6518 26.3868V26.4039V26.421L55.6726 26.4551V26.4722L55.6934 26.4996L55.7142 26.5338C55.7157 26.5394 55.7157 26.5453 55.7142 26.5509L55.7454 26.5919V26.6124L55.8218 26.7218C56.4898 25.4952 57.2652 24.3284 58.1391 23.2347C58.486 22.8142 58.8329 22.3903 59.2215 21.9698C59.0029 21.7305 58.7844 21.4809 58.5728 21.2211C58.1533 20.7134 57.7619 20.1839 57.4002 19.6348C56.2268 20.9061 55.1801 22.2857 54.2745 23.7544" fill="#134E92"/>
<path d="M73.0493 11.8231C73.8753 11.9806 74.7108 12.0845 75.5505 12.1342L75.4048 11.953V11.9325L75.384 11.9051L75.3632 11.8778L75.3077 11.8162V11.7992L75.2903 11.7786L75.1967 11.6727C74.5549 11.7171 73.8646 11.7855 73.1395 11.888L73.0493 11.8231ZM64.387 14.6572C65.24 15.3962 66.1772 16.0352 67.1796 16.5614C69.4428 15.5808 71.8444 14.9456 74.3017 14.6777L73.8992 14.6264C71.9965 14.4112 70.1339 13.9336 68.366 13.2077L68.085 13.0846C66.8132 13.5143 65.5768 14.0401 64.387 14.6572ZM60.9734 16.7768C60.4114 17.1893 59.8667 17.6246 59.3394 18.0827C59.8332 18.9267 60.3996 19.7274 61.0323 20.4758C61.555 20.0063 62.1182 19.5505 62.7218 19.1084C63.2699 18.7072 63.8215 18.338 64.3766 18.0007C63.712 17.5762 63.079 17.1055 62.4824 16.5922C62.2882 16.4247 62.1043 16.2503 61.9308 16.0931C61.6117 16.3084 61.2925 16.5306 60.9734 16.7768ZM54.3821 23.8193C54.6991 24.6986 55.1169 25.5394 55.6275 26.3252V26.3457L55.6518 26.3868V26.4039V26.421L55.6726 26.4551V26.4722L55.6934 26.4996L55.7142 26.5338C55.7157 26.5394 55.7157 26.5453 55.7142 26.5509L55.7454 26.5919V26.6124L55.8218 26.7218C56.4898 25.4952 57.2652 24.3284 58.1391 23.2347C58.486 22.8142 58.8329 22.3903 59.2215 21.9698C59.0029 21.7305 58.7844 21.4809 58.5728 21.2211C58.1533 20.7134 57.7619 20.1839 57.4002 19.6348C56.2268 20.9061 55.1801 22.2857 54.2745 23.7544" fill="url(#paint3_linear_519_67645)"/>
<path d="M73.611 18.6058C75.1103 18.8423 76.6268 18.9567 78.1451 18.9477C78.1451 18.8485 78.1451 18.746 78.1208 18.6468V18.6126C78.1195 18.607 78.1195 18.6012 78.1208 18.5956C78.1208 18.4759 78.1 18.3597 78.0862 18.2537C76.5855 18.282 75.0878 18.3961 73.6006 18.5956L73.611 18.6058ZM63.1413 22.0553L62.7666 22.2672C63.5881 22.9778 64.4781 23.6076 65.4239 24.1475C67.7112 22.9806 70.1528 22.1349 72.6778 21.6348C73.3439 21.5049 73.9857 21.4012 74.6032 21.3237C73.5357 21.2051 72.4768 21.0213 71.4324 20.7733C70.3364 20.5243 69.2558 20.2139 68.1958 19.8434C66.4421 20.4174 64.7493 21.1582 63.1413 22.0553ZM56.3141 27.3474C56.8185 27.9613 57.382 28.5258 57.9966 29.0329L58.0278 29.0602L58.1284 29.1457L58.1562 29.1696L58.1839 29.1935L58.2186 29.2209L58.2429 29.238L58.2637 29.2551L58.2811 29.2722L58.3088 29.2927H58.3296H58.347C58.7586 28.8619 59.1853 28.446 59.6271 28.0449C60.7791 27.0466 62.0177 26.1498 63.3286 25.3646C62.4408 24.8188 61.5997 24.2025 60.8135 23.5219C59.1915 24.6477 57.6877 25.9304 56.3245 27.3509" fill="#134E92"/>
<path d="M73.611 18.6058C75.1103 18.8423 76.6268 18.9567 78.1451 18.9477C78.1451 18.8485 78.1451 18.746 78.1208 18.6468V18.6126C78.1195 18.607 78.1195 18.6012 78.1208 18.5956C78.1208 18.4759 78.1 18.3597 78.0862 18.2537C76.5855 18.282 75.0878 18.3961 73.6006 18.5956L73.611 18.6058ZM63.1413 22.0553L62.7666 22.2672C63.5881 22.9778 64.4781 23.6076 65.4239 24.1475C67.7112 22.9806 70.1528 22.1349 72.6778 21.6348C73.3439 21.5049 73.9857 21.4012 74.6032 21.3237C73.5357 21.2051 72.4768 21.0213 71.4324 20.7733C70.3364 20.5243 69.2558 20.2139 68.1958 19.8434C66.4421 20.4174 64.7493 21.1582 63.1413 22.0553ZM56.3141 27.3474C56.8185 27.9613 57.382 28.5258 57.9966 29.0329L58.0278 29.0602L58.1284 29.1457L58.1562 29.1696L58.1839 29.1935L58.2186 29.2209L58.2429 29.238L58.2637 29.2551L58.2811 29.2722L58.3088 29.2927H58.3296H58.347C58.7586 28.8619 59.1853 28.446 59.6271 28.0449C60.7791 27.0466 62.0177 26.1498 63.3286 25.3646C62.4408 24.8188 61.5997 24.2025 60.8135 23.5219C59.1915 24.6477 57.6877 25.9304 56.3245 27.3509" fill="url(#paint4_linear_519_67645)"/>
<path d="M69.3372 25.8056C71.245 26.3554 73.2227 26.634 75.2104 26.633C75.4948 26.633 75.755 26.633 75.9875 26.633L75.9042 26.7492C76.1089 26.4654 76.2997 26.1714 76.4801 25.8706V25.8501L76.6258 25.5971C75.7897 25.515 74.8669 25.4603 73.8817 25.4603C72.3477 25.4597 70.8167 25.5913 69.306 25.8535L69.3372 25.8056ZM65.3755 26.8552C63.1677 27.6064 61.073 28.6483 59.1484 29.9525C59.4953 30.1679 59.8423 30.3696 60.1892 30.5542C60.874 30.9052 61.5906 31.1925 62.3296 31.4123C65.2443 29.7608 68.4844 28.7442 71.8315 28.4312C69.7443 28.1347 67.7077 27.5596 65.7779 26.7218L65.3685 26.8586L65.3755 26.8552ZM75.8452 26.8141L75.866 26.7868L75.8452 26.8141ZM75.6544 27.0706L75.8452 26.8141L75.6544 27.0706ZM75.6371 27.0945C75.6408 27.0852 75.6468 27.077 75.6544 27.0706C75.6468 27.077 75.6408 27.0852 75.6371 27.0945ZM75.6128 27.1218L75.6371 27.0945L75.6128 27.1218ZM75.592 27.1868V27.2039V27.1868ZM75.5746 27.2278V27.2107L75.5573 27.2347L75.5746 27.2278ZM75.5261 27.2757L75.5538 27.2381C75.5434 27.2498 75.5342 27.2623 75.5261 27.2757ZM75.4983 27.3099C75.5056 27.297 75.515 27.2855 75.5261 27.2757C75.515 27.2855 75.5056 27.297 75.4983 27.3099ZM75.481 27.3441V27.327V27.3441ZM75.1341 27.7611C75.252 27.6244 75.37 27.4876 75.481 27.3475C75.3665 27.4876 75.2485 27.6244 75.1341 27.7611ZM75.1028 27.7953L75.089 27.7577L75.0612 27.7885L75.1028 27.7953ZM75.0335 27.8192L75.0577 27.7919L75.0335 27.8192ZM74.9988 27.8569L75.0265 27.8295L74.9988 27.8569Z" fill="#134E92"/>
<path d="M69.3372 25.8056C71.245 26.3554 73.2227 26.634 75.2104 26.633C75.4948 26.633 75.755 26.633 75.9875 26.633L75.9042 26.7492C76.1089 26.4654 76.2997 26.1714 76.4801 25.8706V25.8501L76.6258 25.5971C75.7897 25.515 74.8669 25.4603 73.8817 25.4603C72.3477 25.4597 70.8167 25.5913 69.306 25.8535L69.3372 25.8056ZM65.3755 26.8552C63.1677 27.6064 61.073 28.6483 59.1484 29.9525C59.4953 30.1679 59.8423 30.3696 60.1892 30.5542C60.874 30.9052 61.5906 31.1925 62.3296 31.4123C65.2443 29.7608 68.4844 28.7442 71.8315 28.4312C69.7443 28.1347 67.7077 27.5596 65.7779 26.7218L65.3685 26.8586L65.3755 26.8552ZM75.8452 26.8141L75.866 26.7868L75.8452 26.8141ZM75.6544 27.0706L75.8452 26.8141L75.6544 27.0706ZM75.6371 27.0945C75.6408 27.0852 75.6468 27.077 75.6544 27.0706C75.6468 27.077 75.6408 27.0852 75.6371 27.0945ZM75.6128 27.1218L75.6371 27.0945L75.6128 27.1218ZM75.592 27.1868V27.2039V27.1868ZM75.5746 27.2278V27.2107L75.5573 27.2347L75.5746 27.2278ZM75.5261 27.2757L75.5538 27.2381C75.5434 27.2498 75.5342 27.2623 75.5261 27.2757ZM75.4983 27.3099C75.5056 27.297 75.515 27.2855 75.5261 27.2757C75.515 27.2855 75.5056 27.297 75.4983 27.3099ZM75.481 27.3441V27.327V27.3441ZM75.1341 27.7611C75.252 27.6244 75.37 27.4876 75.481 27.3475C75.3665 27.4876 75.2485 27.6244 75.1341 27.7611ZM75.1028 27.7953L75.089 27.7577L75.0612 27.7885L75.1028 27.7953ZM75.0335 27.8192L75.0577 27.7919L75.0335 27.8192ZM74.9988 27.8569L75.0265 27.8295L74.9988 27.8569Z" fill="url(#paint5_linear_519_67645)"/>
<path d="M54.8886 14.182C55.8408 17.1504 57.4715 19.8638 59.6552 22.1134C64.6229 27.1834 70.9367 28.1816 74.5723 28.2876C75.4506 27.4142 76.1897 26.4149 76.7648 25.3236C74.8776 25.4911 67.308 25.7544 61.7609 20.0861C59.3656 17.596 57.7503 14.4776 57.1089 11.1052C56.2077 12.0112 55.4541 13.0491 54.8748 14.182" fill="#86C69F"/>
<path d="M54.8886 14.182C55.8408 17.1504 57.4715 19.8638 59.6552 22.1134C64.6229 27.1834 70.9367 28.1816 74.5723 28.2876C75.4506 27.4142 76.1897 26.4149 76.7648 25.3236C74.8776 25.4911 67.308 25.7544 61.7609 20.0861C59.3656 17.596 57.7503 14.4776 57.1089 11.1052C56.2077 12.0112 55.4541 13.0491 54.8748 14.182" fill="url(#paint6_linear_519_67645)"/>
<path d="M58.184 10.1548C58.3364 10.6209 58.5171 11.0775 58.7251 11.5223C61.4692 17.464 68.6676 21.1186 77.5589 21.1186C77.6699 21.1186 77.7809 21.1186 78.0897 21.1425C78.1483 20.6512 78.1773 20.1569 78.1764 19.6622C78.1761 19.1859 78.1495 18.71 78.0966 18.2366C70.0934 18.2708 63.6478 15.1598 61.3929 10.3018C61.1341 9.74049 60.9286 9.15682 60.7789 8.55824C59.8508 8.97952 58.9792 9.51233 58.184 10.1445" fill="#86C69F"/>
<path d="M58.184 10.1548C58.3364 10.6209 58.5171 11.0775 58.7251 11.5223C61.4692 17.464 68.6676 21.1186 77.5589 21.1186C77.6699 21.1186 77.7809 21.1186 78.0897 21.1425C78.1483 20.6512 78.1773 20.1569 78.1764 19.6622C78.1761 19.1859 78.1495 18.71 78.0966 18.2366C70.0934 18.2708 63.6478 15.1598 61.3929 10.3018C61.1341 9.74049 60.9286 9.15682 60.7789 8.55824C59.8508 8.97952 58.9792 9.51233 58.184 10.1445" fill="url(#paint7_linear_519_67645)"/>
<path d="M61.8442 8.1446C64.9144 12.1479 70.4303 14.4589 76.8446 14.4589H77.0007C76.4902 13.3912 75.8253 12.402 75.0268 11.5223C70.9749 11.2488 67.4642 9.78899 65.1538 7.49846C64.0254 7.56269 62.9115 7.78131 61.8442 8.14802" fill="#86C69F"/>
<path d="M61.8442 8.1446C64.9144 12.1479 70.4303 14.4589 76.8446 14.4589H77.0007C76.4902 13.3912 75.8253 12.402 75.0268 11.5223C70.9749 11.2488 67.4642 9.78899 65.1538 7.49846C64.0254 7.56269 62.9115 7.78131 61.8442 8.14802" fill="url(#paint8_linear_519_67645)"/>
<defs>
<linearGradient id="paint0_linear_519_67645" x1="49.1079" y1="23.9999" x2="53.0933" y2="83.8425" gradientUnits="userSpaceOnUse">
<stop stop-color="#8AD3A8"/>
<stop offset="1" stop-color="#245795"/>
</linearGradient>
<linearGradient id="paint1_linear_519_67645" x1="29.0061" y1="58.5013" x2="8.66015" y2="48.0039" gradientUnits="userSpaceOnUse">
<stop stop-color="#245795"/>
<stop offset="1" stop-color="#8AD3A8"/>
</linearGradient>
<linearGradient id="paint2_linear_519_67645" x1="75.0061" y1="90.0699" x2="54.6601" y2="79.5725" gradientUnits="userSpaceOnUse">
<stop stop-color="#245795"/>
<stop offset="1" stop-color="#8AD3A8"/>
</linearGradient>
<linearGradient id="paint3_linear_519_67645" x1="54.2745" y1="19.2428" x2="80.4395" y2="11.0061" gradientUnits="userSpaceOnUse">
<stop stop-color="#245795"/>
<stop offset="1" stop-color="#8AD3A8"/>
</linearGradient>
<linearGradient id="paint4_linear_519_67645" x1="56.3141" y1="23.8066" x2="101.118" y2="11.4351" gradientUnits="userSpaceOnUse">
<stop stop-color="#245795"/>
<stop offset="1" stop-color="#8AD3A8"/>
</linearGradient>
<linearGradient id="paint5_linear_519_67645" x1="60.3295" y1="29.72" x2="86.1711" y2="21.5898" gradientUnits="userSpaceOnUse">
<stop stop-color="#245795"/>
<stop offset="1" stop-color="#8AD3A8"/>
</linearGradient>
<linearGradient id="paint6_linear_519_67645" x1="75.6268" y1="27.156" x2="54.1677" y2="15.1534" gradientUnits="userSpaceOnUse">
<stop stop-color="#245795"/>
<stop offset="1" stop-color="#8AD3A8"/>
</linearGradient>
<linearGradient id="paint7_linear_519_67645" x1="77.0609" y1="19.6349" x2="59.0329" y2="10.9264" gradientUnits="userSpaceOnUse">
<stop stop-color="#245795"/>
<stop offset="1" stop-color="#8AD3A8"/>
</linearGradient>
<linearGradient id="paint8_linear_519_67645" x1="76.9017" y1="14.3359" x2="61.4344" y2="6.20619" gradientUnits="userSpaceOnUse">
<stop stop-color="#245795"/>
<stop offset="1" stop-color="#8AD3A8"/>
</linearGradient>
</defs>
</svg>
