<svg width="62" height="102" viewBox="0 0 62 102" fill="none" xmlns="http://www.w3.org/2000/svg">
<rect x="6.53223" y="0.5" width="47" height="101" rx="23.5" fill="#F0FAF6"/>
<path fill-rule="evenodd" clip-rule="evenodd" d="M30.9998 15.5C28.2606 15.5 26.04 17.7206 26.04 20.4598C26.04 23.1989 28.2606 25.4195 30.9998 25.4195C33.739 25.4195 35.9595 23.1989 35.9595 20.4598C35.9595 17.7206 33.739 15.5 30.9998 15.5ZM23.8357 27.6238C21.4008 27.6238 19.427 29.5977 19.427 32.0325C19.427 34.4673 21.4008 36.4412 23.8357 36.4412H38.1638C40.5987 36.4412 42.5725 34.4673 42.5725 32.0325C42.5725 29.5977 40.5987 27.6238 38.1638 27.6238H23.8357Z" fill="#D9D9D9"/>
<path fill-rule="evenodd" clip-rule="evenodd" d="M30.9998 15.5C28.2606 15.5 26.04 17.7206 26.04 20.4598C26.04 23.1989 28.2606 25.4195 30.9998 25.4195C33.739 25.4195 35.9595 23.1989 35.9595 20.4598C35.9595 17.7206 33.739 15.5 30.9998 15.5ZM23.8357 27.6238C21.4008 27.6238 19.427 29.5977 19.427 32.0325C19.427 34.4673 21.4008 36.4412 23.8357 36.4412H38.1638C40.5987 36.4412 42.5725 34.4673 42.5725 32.0325C42.5725 29.5977 40.5987 27.6238 38.1638 27.6238H23.8357Z" fill="url(#paint0_linear_520_67692)"/>
<mask id="path-3-inside-1_520_67692" fill="white">
<path fill-rule="evenodd" clip-rule="evenodd" d="M19.4768 72.3105C19.4768 65.9172 24.6596 60.7344 31.0529 60.7344C37.4462 60.7344 42.629 65.9172 42.629 72.3105V73.9804H42.7424V80.2558C42.7424 82.3236 41.0662 83.9999 38.9984 83.9999C36.9306 83.9999 35.2543 82.3236 35.2543 80.2558V77.3202C35.2543 75.4757 36.7496 73.9804 38.5941 73.9804H40.629V72.3105C40.629 67.0218 36.3416 62.7344 31.0529 62.7344C25.7642 62.7344 21.4768 67.0217 21.4768 72.3105V73.9804H24.5677C25.9511 73.9804 27.0726 75.1019 27.0726 76.4853V80.1771C27.0726 82.2884 25.3611 83.9999 23.2498 83.9999C21.1385 83.9999 19.427 82.2884 19.427 80.1771V73.9804H19.4768V72.3105Z"/>
</mask>
<path fill-rule="evenodd" clip-rule="evenodd" d="M19.4768 72.3105C19.4768 65.9172 24.6596 60.7344 31.0529 60.7344C37.4462 60.7344 42.629 65.9172 42.629 72.3105V73.9804H42.7424V80.2558C42.7424 82.3236 41.0662 83.9999 38.9984 83.9999C36.9306 83.9999 35.2543 82.3236 35.2543 80.2558V77.3202C35.2543 75.4757 36.7496 73.9804 38.5941 73.9804H40.629V72.3105C40.629 67.0218 36.3416 62.7344 31.0529 62.7344C25.7642 62.7344 21.4768 67.0217 21.4768 72.3105V73.9804H24.5677C25.9511 73.9804 27.0726 75.1019 27.0726 76.4853V80.1771C27.0726 82.2884 25.3611 83.9999 23.2498 83.9999C21.1385 83.9999 19.427 82.2884 19.427 80.1771V73.9804H19.4768V72.3105Z" fill="#47819B"/>
<path d="M42.629 73.9804H41.629V74.9804H42.629V73.9804ZM42.7424 73.9804H43.7424V72.9804H42.7424V73.9804ZM40.629 73.9804V74.9804H41.629V73.9804H40.629ZM21.4768 73.9804H20.4768V74.9804H21.4768V73.9804ZM19.427 73.9804V72.9804H18.427V73.9804H19.427ZM19.4768 73.9804V74.9804H20.4768V73.9804H19.4768ZM31.0529 59.7344C24.1073 59.7344 18.4768 65.3649 18.4768 72.3105H20.4768C20.4768 66.4695 25.2119 61.7344 31.0529 61.7344V59.7344ZM43.629 72.3105C43.629 65.3649 37.9985 59.7344 31.0529 59.7344V61.7344C36.8939 61.7344 41.629 66.4695 41.629 72.3105H43.629ZM43.629 73.9804V72.3105H41.629V73.9804H43.629ZM42.629 74.9804H42.7424V72.9804H42.629V74.9804ZM41.7424 73.9804V80.2558H43.7424V73.9804H41.7424ZM41.7424 80.2558C41.7424 81.7713 40.5139 82.9999 38.9984 82.9999V84.9999C41.6184 84.9999 43.7424 82.8759 43.7424 80.2558H41.7424ZM38.9984 82.9999C37.4828 82.9999 36.2543 81.7713 36.2543 80.2558H34.2543C34.2543 82.8759 36.3783 84.9999 38.9984 84.9999V82.9999ZM36.2543 80.2558V77.3202H34.2543V80.2558H36.2543ZM36.2543 77.3202C36.2543 76.028 37.3018 74.9804 38.5941 74.9804V72.9804C36.1973 72.9804 34.2543 74.9234 34.2543 77.3202H36.2543ZM38.5941 74.9804H40.629V72.9804H38.5941V74.9804ZM39.629 72.3105V73.9804H41.629V72.3105H39.629ZM31.0529 63.7344C35.7894 63.7344 39.629 67.574 39.629 72.3105H41.629C41.629 66.4695 36.8939 61.7344 31.0529 61.7344V63.7344ZM22.4768 72.3105C22.4768 67.574 26.3164 63.7344 31.0529 63.7344V61.7344C25.2119 61.7344 20.4768 66.4695 20.4768 72.3105H22.4768ZM22.4768 73.9804V72.3105H20.4768V73.9804H22.4768ZM24.5677 72.9804H21.4768V74.9804H24.5677V72.9804ZM28.0726 76.4853C28.0726 74.5496 26.5034 72.9804 24.5677 72.9804V74.9804C25.3988 74.9804 26.0726 75.6542 26.0726 76.4853H28.0726ZM28.0726 80.1771V76.4853H26.0726V80.1771H28.0726ZM23.2498 84.9999C25.9133 84.9999 28.0726 82.8407 28.0726 80.1771H26.0726C26.0726 81.7361 24.8088 82.9999 23.2498 82.9999V84.9999ZM18.427 80.1771C18.427 82.8407 20.5862 84.9999 23.2498 84.9999V82.9999C21.6908 82.9999 20.427 81.7361 20.427 80.1771H18.427ZM18.427 73.9804V80.1771H20.427V73.9804H18.427ZM19.4768 72.9804H19.427V74.9804H19.4768V72.9804ZM18.4768 72.3105V73.9804H20.4768V72.3105H18.4768Z" fill="#47819B" mask="url(#path-3-inside-1_520_67692)"/>
<path d="M52.4414 36.5287L52.4414 34.6149C52.4414 33.724 51.5086 33.8164 50.963 34.7613L48.3651 39.2612L45.7672 43.7607C45.4071 44.3844 45.434 45.052 45.8252 45.2026L48.4231 46.2027L51.021 47.2028C51.585 47.42 52.4414 46.4624 52.4414 45.6145L52.4414 43.5147C59.4961 38.8277 61.9677 42.1147 61.9677 42.1147C61.9677 39.1777 61.7581 36.2507 59.7585 35.0972C57.4341 33.7542 54.0678 35.5077 52.4414 36.5287Z" fill="black"/>
<path d="M52.4414 36.5287L52.4414 34.6149C52.4414 33.724 51.5086 33.8164 50.963 34.7613L48.3651 39.2612L45.7672 43.7607C45.4071 44.3844 45.434 45.052 45.8252 45.2026L48.4231 46.2027L51.021 47.2028C51.585 47.42 52.4414 46.4624 52.4414 45.6145L52.4414 43.5147C59.4961 38.8277 61.9677 42.1147 61.9677 42.1147C61.9677 39.1777 61.7581 36.2507 59.7585 35.0972C57.4341 33.7542 54.0678 35.5077 52.4414 36.5287Z" fill="url(#paint1_linear_520_67692)"/>
<path d="M52.4414 36.5287L52.4414 34.6149C52.4414 33.724 51.5086 33.8164 50.963 34.7613L48.3651 39.2612L45.7672 43.7607C45.4071 44.3844 45.434 45.052 45.8252 45.2026L48.4231 46.2027L51.021 47.2028C51.585 47.42 52.4414 46.4624 52.4414 45.6145L52.4414 43.5147C59.4961 38.8277 61.9677 42.1147 61.9677 42.1147C61.9677 39.1777 61.7581 36.2507 59.7585 35.0972C57.4341 33.7542 54.0678 35.5077 52.4414 36.5287Z" fill="url(#paint2_linear_520_67692)"/>
<path d="M0.418096 69.2055L6.15652 61.2565C6.39697 60.9234 6.72841 60.7344 7.07285 60.7344H11.7325C12.4473 60.7344 13.0322 61.5446 13.0322 62.5348V68.9894C13.0322 69.4666 12.8958 69.9257 12.6488 70.2588L6.91038 78.2077C6.40347 78.9099 5.57813 78.9099 5.07122 78.2077L0.411596 71.7531C-0.0953083 71.051 -0.0953083 69.9167 0.418096 69.2055ZM10.1078 66.1357C10.6472 66.1357 11.0826 65.5326 11.0826 64.7854C11.0826 64.0382 10.6472 63.4351 10.1078 63.4351C9.56838 63.4351 9.13296 64.0382 9.13296 64.7854C9.13296 65.5326 9.56838 66.1357 10.1078 66.1357Z" fill="url(#paint3_linear_520_67692)"/>
<defs>
<linearGradient id="paint0_linear_520_67692" x1="40.8517" y1="30.5028" x2="18.3574" y2="18.8969" gradientUnits="userSpaceOnUse">
<stop stop-color="#245795"/>
<stop offset="1" stop-color="#8AD3A8"/>
</linearGradient>
<linearGradient id="paint1_linear_520_67692" x1="56.6421" y1="19.0951" x2="68.384" y2="37.7488" gradientUnits="userSpaceOnUse">
<stop stop-color="#8AD3A8"/>
<stop offset="1" stop-color="#245795"/>
</linearGradient>
<linearGradient id="paint2_linear_520_67692" x1="58.5967" y1="61.2009" x2="-5.58692" y2="-15.1" gradientUnits="userSpaceOnUse">
<stop stop-color="#D4F2E4"/>
<stop offset="1" stop-color="#71D5A4"/>
</linearGradient>
<linearGradient id="paint3_linear_520_67692" x1="2.62979" y1="98.4199" x2="54.2975" y2="-31.9297" gradientUnits="userSpaceOnUse">
<stop stop-color="#D4F2E4"/>
<stop offset="1" stop-color="#71D5A4"/>
</linearGradient>
</defs>
</svg>
