<svg width="92" height="95" viewBox="0 0 92 95" fill="none" xmlns="http://www.w3.org/2000/svg">
<g opacity="0.2" filter="url(#filter0_f_319_42224)">
<path d="M79.4184 69.4525L72.7604 71.0679C72.1255 71.2231 72.5155 71.4971 73.4135 71.5125C73.4316 71.5125 73.4498 71.5144 73.4634 71.5144L72.7559 71.6869C72.1209 71.8421 72.511 72.1161 73.409 72.1314C73.5677 72.1333 73.7264 77.2842 73.8852 77.2899L79.4184 75.9505L79.4138 75.9485H79.441V69.4525H79.4184Z" fill="url(#paint0_linear_319_42224)"/>
<path d="M79.4184 69.4525L72.7604 71.0679C72.1255 71.2231 72.5155 71.4971 73.4135 71.5125C73.4316 71.5125 73.4498 71.5144 73.4634 71.5144L72.7559 71.6869C72.1209 71.8421 72.511 72.1161 73.409 72.1314C73.5677 72.1333 73.7264 77.2842 73.8852 77.2899L79.4184 75.9505L79.4138 75.9485H79.441V69.4525H79.4184Z" fill="url(#paint1_linear_319_42224)"/>
<path d="M79.4184 69.4525L72.7604 71.0679C72.1255 71.2231 72.5155 71.4971 73.4135 71.5125C73.4316 71.5125 73.4498 71.5144 73.4634 71.5144L72.7559 71.6869C72.1209 71.8421 72.511 72.1161 73.409 72.1314C73.5677 72.1333 73.7264 77.2842 73.8852 77.2899L79.4184 75.9505L79.4138 75.9485H79.441V69.4525H79.4184Z" fill="url(#paint2_linear_319_42224)"/>
<path d="M79.4184 69.4525L72.7604 71.0679C72.1255 71.2231 72.5155 71.4971 73.4135 71.5125C73.4316 71.5125 73.4498 71.5144 73.4634 71.5144L72.7559 71.6869C72.1209 71.8421 72.511 72.1161 73.409 72.1314C73.5677 72.1333 73.7264 77.2842 73.8852 77.2899L79.4184 75.9505L79.4138 75.9485H79.441V69.4525H79.4184Z" fill="url(#paint3_linear_319_42224)"/>
<path d="M79.4184 69.4525L72.7604 71.0679C72.1255 71.2231 72.5155 71.4971 73.4135 71.5125C73.4316 71.5125 73.4498 71.5144 73.4634 71.5144L72.7559 71.6869C72.1209 71.8421 72.511 72.1161 73.409 72.1314C73.5677 72.1333 73.7264 77.2842 73.8852 77.2899L79.4184 75.9505L79.4138 75.9485H79.441V69.4525H79.4184Z" fill="url(#paint4_linear_319_42224)"/>
<path d="M56.5415 76.6632C57.1764 76.8376 57.5982 77.056 57.8159 77.2898C58.0245 77.0695 58.0381 71.6906 57.8658 71.4664C58.2196 71.0084 57.7751 70.5025 56.5415 70.1653C54.1921 69.5233 50.1602 69.5003 47.7156 70.0963C46.6861 70.3473 46.1055 70.6673 45.9785 70.9969C45.9105 71.1675 45.076 71.2441 44.5771 71.1234L38.0144 69.5578V76.0539L44.5771 77.6213C45.076 77.744 45.9151 77.6673 45.9785 77.4949C46.1055 77.1653 46.6815 76.8453 47.7156 76.5942C50.1602 75.9983 54.1921 76.0232 56.5415 76.6632Z" fill="url(#paint5_linear_319_42224)"/>
<path d="M56.5415 76.6632C57.1764 76.8376 57.5982 77.056 57.8159 77.2898C58.0245 77.0695 58.0381 71.6906 57.8658 71.4664C58.2196 71.0084 57.7751 70.5025 56.5415 70.1653C54.1921 69.5233 50.1602 69.5003 47.7156 70.0963C46.6861 70.3473 46.1055 70.6673 45.9785 70.9969C45.9105 71.1675 45.076 71.2441 44.5771 71.1234L38.0144 69.5578V76.0539L44.5771 77.6213C45.076 77.744 45.9151 77.6673 45.9785 77.4949C46.1055 77.1653 46.6815 76.8453 47.7156 76.5942C50.1602 75.9983 54.1921 76.0232 56.5415 76.6632Z" fill="url(#paint6_linear_319_42224)"/>
<path d="M56.5415 76.6632C57.1764 76.8376 57.5982 77.056 57.8159 77.2898C58.0245 77.0695 58.0381 71.6906 57.8658 71.4664C58.2196 71.0084 57.7751 70.5025 56.5415 70.1653C54.1921 69.5233 50.1602 69.5003 47.7156 70.0963C46.6861 70.3473 46.1055 70.6673 45.9785 70.9969C45.9105 71.1675 45.076 71.2441 44.5771 71.1234L38.0144 69.5578V76.0539L44.5771 77.6213C45.076 77.744 45.9151 77.6673 45.9785 77.4949C46.1055 77.1653 46.6815 76.8453 47.7156 76.5942C50.1602 75.9983 54.1921 76.0232 56.5415 76.6632Z" fill="url(#paint7_linear_319_42224)"/>
<path d="M58.7136 74.4917L52.1192 72.9644C52.0285 72.9414 51.974 72.9165 51.9332 72.8916V79.2478C51.8244 79.3167 51.8652 79.3991 52.1192 79.4605L58.7136 80.9877V74.4917Z" fill="url(#paint8_linear_319_42224)"/>
<path d="M58.7136 74.4917L52.1192 72.9644C52.0285 72.9414 51.974 72.9165 51.9332 72.8916V79.2478C51.8244 79.3167 51.8652 79.3991 52.1192 79.4605L58.7136 80.9877V74.4917Z" fill="url(#paint9_linear_319_42224)"/>
<path d="M58.7136 74.4917L52.1192 72.9644C52.0285 72.9414 51.974 72.9165 51.9332 72.8916V79.2478C51.8244 79.3167 51.8652 79.3991 52.1192 79.4605L58.7136 80.9877V74.4917Z" fill="url(#paint10_linear_319_42224)"/>
<path d="M58.7136 74.4917L52.1192 72.9644C52.0285 72.9414 51.974 72.9165 51.9332 72.8916V79.2478C51.8244 79.3167 51.8652 79.3991 52.1192 79.4605L58.7136 80.9877V74.4917Z" fill="url(#paint11_linear_319_42224)"/>
<path d="M29.7407 74.5643C32.1853 73.97 36.2127 73.9929 38.5666 74.6331C40.4669 75.149 40.5078 76.07 38.612 76.5917C37.5507 76.884 36.1311 77.0464 34.6707 77.0808C33.9632 77.098 33.6412 77.3006 34.1446 77.4229L40.7391 78.9458L47.4741 77.3082C48.1091 77.1534 49.2202 77.2509 49.2837 77.4706C49.379 77.8184 50.0003 78.1585 51.1432 78.4165C53.3429 78.9133 56.8488 78.9171 59.0394 78.4241C61.4658 77.8776 61.5066 76.9547 59.1754 76.3872C58.1323 76.1331 56.7989 75.9955 55.4428 75.9745C54.5448 75.9592 54.1502 75.6859 54.7897 75.5311L61.4522 73.9203L42.9251 69.5292C41.5781 69.2025 39.9182 69.2025 38.5711 69.5292L20.0396 74.0254L26.6023 75.5885C27.1012 75.7108 27.9402 75.6343 28.0037 75.4624C28.1352 75.1356 28.7112 74.8146 29.7407 74.5643Z" fill="url(#paint12_linear_319_42224)"/>
<path d="M29.7407 74.5643C32.1853 73.97 36.2127 73.9929 38.5666 74.6331C40.4669 75.149 40.5078 76.07 38.612 76.5917C37.5507 76.884 36.1311 77.0464 34.6707 77.0808C33.9632 77.098 33.6412 77.3006 34.1446 77.4229L40.7391 78.9458L47.4741 77.3082C48.1091 77.1534 49.2202 77.2509 49.2837 77.4706C49.379 77.8184 50.0003 78.1585 51.1432 78.4165C53.3429 78.9133 56.8488 78.9171 59.0394 78.4241C61.4658 77.8776 61.5066 76.9547 59.1754 76.3872C58.1323 76.1331 56.7989 75.9955 55.4428 75.9745C54.5448 75.9592 54.1502 75.6859 54.7897 75.5311L61.4522 73.9203L42.9251 69.5292C41.5781 69.2025 39.9182 69.2025 38.5711 69.5292L20.0396 74.0254L26.6023 75.5885C27.1012 75.7108 27.9402 75.6343 28.0037 75.4624C28.1352 75.1356 28.7112 74.8146 29.7407 74.5643Z" fill="url(#paint13_linear_319_42224)"/>
<path d="M29.7407 74.5643C32.1853 73.97 36.2127 73.9929 38.5666 74.6331C40.4669 75.149 40.5078 76.07 38.612 76.5917C37.5507 76.884 36.1311 77.0464 34.6707 77.0808C33.9632 77.098 33.6412 77.3006 34.1446 77.4229L40.7391 78.9458L47.4741 77.3082C48.1091 77.1534 49.2202 77.2509 49.2837 77.4706C49.379 77.8184 50.0003 78.1585 51.1432 78.4165C53.3429 78.9133 56.8488 78.9171 59.0394 78.4241C61.4658 77.8776 61.5066 76.9547 59.1754 76.3872C58.1323 76.1331 56.7989 75.9955 55.4428 75.9745C54.5448 75.9592 54.1502 75.6859 54.7897 75.5311L61.4522 73.9203L42.9251 69.5292C41.5781 69.2025 39.9182 69.2025 38.5711 69.5292L20.0396 74.0254L26.6023 75.5885C27.1012 75.7108 27.9402 75.6343 28.0037 75.4624C28.1352 75.1356 28.7112 74.8146 29.7407 74.5643Z" fill="url(#paint14_linear_319_42224)" fill-opacity="0.5"/>
<path d="M52.0454 72.7661C51.5465 72.8887 50.7075 72.8082 50.6349 72.6358C50.4852 72.2793 49.8049 71.9325 48.5985 71.67C46.417 71.1986 42.8068 71.1909 40.6162 71.6547C38.8747 72.0226 38.2306 72.5706 38.6706 73.0765C38.4755 73.3007 38.4937 78.6776 38.725 78.8999C39.0153 78.6201 39.6457 78.3576 40.6208 78.1526C42.8114 77.6889 46.417 77.6965 48.6031 78.1679C49.814 78.4285 50.4898 78.7754 50.6395 79.1337C50.712 79.3062 51.5465 79.3866 52.05 79.264L59.0934 77.5145V71.7524V71.6374V71.0185L52.0454 72.7661Z" fill="url(#paint15_linear_319_42224)"/>
<path d="M52.0454 72.7661C51.5465 72.8887 50.7075 72.8082 50.6349 72.6358C50.4852 72.2793 49.8049 71.9325 48.5985 71.67C46.417 71.1986 42.8068 71.1909 40.6162 71.6547C38.8747 72.0226 38.2306 72.5706 38.6706 73.0765C38.4755 73.3007 38.4937 78.6776 38.725 78.8999C39.0153 78.6201 39.6457 78.3576 40.6208 78.1526C42.8114 77.6889 46.417 77.6965 48.6031 78.1679C49.814 78.4285 50.4898 78.7754 50.6395 79.1337C50.712 79.3062 51.5465 79.3866 52.05 79.264L59.0934 77.5145V71.7524V71.6374V71.0185L52.0454 72.7661Z" fill="url(#paint16_linear_319_42224)"/>
<path d="M52.0454 72.7661C51.5465 72.8887 50.7075 72.8082 50.6349 72.6358C50.4852 72.2793 49.8049 71.9325 48.5985 71.67C46.417 71.1986 42.8068 71.1909 40.6162 71.6547C38.8747 72.0226 38.2306 72.5706 38.6706 73.0765C38.4755 73.3007 38.4937 78.6776 38.725 78.8999C39.0153 78.6201 39.6457 78.3576 40.6208 78.1526C42.8114 77.6889 46.417 77.6965 48.6031 78.1679C49.814 78.4285 50.4898 78.7754 50.6395 79.1337C50.712 79.3062 51.5465 79.3866 52.05 79.264L59.0934 77.5145V71.7524V71.6374V71.0185L52.0454 72.7661Z" fill="url(#paint17_linear_319_42224)"/>
<path d="M50.6349 72.6343C50.4852 72.2779 49.8049 71.931 48.5985 71.6685C46.417 71.1971 42.8068 71.1895 40.6162 71.6532C38.8747 72.0211 38.2306 72.5692 38.6706 73.075C38.4755 73.2992 38.4937 78.6762 38.725 78.8985C39.0153 78.6187 39.6457 78.3562 40.6208 78.1511C42.8114 77.6874 46.417 77.6951 48.6031 78.1665C49.814 78.4271 50.4898 78.7739 50.6395 79.1322V72.6343H50.6349Z" fill="url(#paint18_linear_319_42224)"/>
<path d="M50.6349 72.6343C50.4852 72.2779 49.8049 71.931 48.5985 71.6685C46.417 71.1971 42.8068 71.1895 40.6162 71.6532C38.8747 72.0211 38.2306 72.5692 38.6706 73.075C38.4755 73.2992 38.4937 78.6762 38.725 78.8985C39.0153 78.6187 39.6457 78.3562 40.6208 78.1511C42.8114 77.6874 46.417 77.6951 48.6031 78.1665C49.814 78.4271 50.4898 78.7739 50.6395 79.1322V72.6343H50.6349Z" fill="url(#paint19_linear_319_42224)"/>
<path d="M50.6349 72.6343C50.4852 72.2779 49.8049 71.931 48.5985 71.6685C46.417 71.1971 42.8068 71.1895 40.6162 71.6532C38.8747 72.0211 38.2306 72.5692 38.6706 73.075C38.4755 73.2992 38.4937 78.6762 38.725 78.8985C39.0153 78.6187 39.6457 78.3562 40.6208 78.1511C42.8114 77.6874 46.417 77.6951 48.6031 78.1665C49.814 78.4271 50.4898 78.7739 50.6395 79.1322V72.6343H50.6349Z" fill="url(#paint20_linear_319_42224)"/>
<path d="M38.1808 82.6587L44.553 81.0912C44.748 81.0433 44.8115 80.9839 44.7843 80.9284V74.4649C44.7752 74.5109 44.7072 74.5569 44.553 74.5952L38.1853 76.1627H38.1808V76.1646V82.6587Z" fill="url(#paint21_linear_319_42224)"/>
<path d="M38.1808 82.6587L44.553 81.0912C44.748 81.0433 44.8115 80.9839 44.7843 80.9284V74.4649C44.7752 74.5109 44.7072 74.5569 44.553 74.5952L38.1853 76.1627H38.1808V76.1646V82.6587Z" fill="url(#paint22_linear_319_42224)"/>
<path d="M38.1808 82.6587L44.553 81.0912C44.748 81.0433 44.8115 80.9839 44.7843 80.9284V74.4649C44.7752 74.5109 44.7072 74.5569 44.553 74.5952L38.1853 76.1627H38.1808V76.1646V82.6587Z" fill="url(#paint23_linear_319_42224)"/>
<path d="M38.1804 76.1607V82.6586L17.0773 77.5787V71.0827L38.1804 76.1607Z" fill="url(#paint24_linear_319_42224)"/>
<path d="M38.1804 76.1607V82.6586L17.0773 77.5787V71.0827L38.1804 76.1607Z" fill="url(#paint25_linear_319_42224)"/>
<path d="M38.1804 76.1607V82.6586L17.0773 77.5787V71.0827L38.1804 76.1607Z" fill="url(#paint26_linear_319_42224)"/>
<path d="M57.8834 71.1554V67.4119L50.9027 68.5463L50.3657 69.2269L57.8834 71.1554Z" fill="#D9D9D9"/>
<path d="M57.8834 71.1554V67.4119L50.9027 68.5463L50.3657 69.2269L57.8834 71.1554Z" fill="url(#paint27_linear_319_42224)"/>
<path d="M57.8834 71.1554V67.4119L50.9027 68.5463L50.3657 69.2269L57.8834 71.1554Z" fill="url(#paint28_linear_319_42224)"/>
<path d="M38.1807 76.1626L44.5529 74.5951C45.0518 74.4744 44.7298 74.2694 44.0268 74.2521C42.6753 74.2196 41.36 74.0759 40.3214 73.8229C37.8405 73.2174 37.9358 72.2229 40.6162 71.6557C42.8068 71.1919 46.4124 71.1996 48.5985 71.671C49.8094 71.9316 50.4852 72.2784 50.6349 72.6368C50.7074 72.8092 51.542 72.8897 52.0454 72.7671L59.0888 71.0175L51.8186 69.2872C51.1791 69.1301 51.5737 68.8599 52.4762 68.8465C53.9004 68.8254 55.2973 68.6759 56.354 68.3981C58.3859 67.8634 58.3768 67.0107 56.3359 66.4723C54.0727 65.8782 50.272 65.8629 47.959 66.4263C46.9249 66.6792 46.3671 67.003 46.2809 67.3346C46.2265 67.553 45.1017 67.6469 44.4622 67.4917L37.9811 65.9376H37.9766L17.0775 71.0827H17.073L38.1807 76.1626Z" fill="url(#paint29_linear_319_42224)"/>
<path d="M38.1807 76.1626L44.5529 74.5951C45.0518 74.4744 44.7298 74.2694 44.0268 74.2521C42.6753 74.2196 41.36 74.0759 40.3214 73.8229C37.8405 73.2174 37.9358 72.2229 40.6162 71.6557C42.8068 71.1919 46.4124 71.1996 48.5985 71.671C49.8094 71.9316 50.4852 72.2784 50.6349 72.6368C50.7074 72.8092 51.542 72.8897 52.0454 72.7671L59.0888 71.0175L51.8186 69.2872C51.1791 69.1301 51.5737 68.8599 52.4762 68.8465C53.9004 68.8254 55.2973 68.6759 56.354 68.3981C58.3859 67.8634 58.3768 67.0107 56.3359 66.4723C54.0727 65.8782 50.272 65.8629 47.959 66.4263C46.9249 66.6792 46.3671 67.003 46.2809 67.3346C46.2265 67.553 45.1017 67.6469 44.4622 67.4917L37.9811 65.9376H37.9766L17.0775 71.0827H17.073L38.1807 76.1626Z" fill="url(#paint30_linear_319_42224)"/>
<path d="M38.1807 76.1626L44.5529 74.5951C45.0518 74.4744 44.7298 74.2694 44.0268 74.2521C42.6753 74.2196 41.36 74.0759 40.3214 73.8229C37.8405 73.2174 37.9358 72.2229 40.6162 71.6557C42.8068 71.1919 46.4124 71.1996 48.5985 71.671C49.8094 71.9316 50.4852 72.2784 50.6349 72.6368C50.7074 72.8092 51.542 72.8897 52.0454 72.7671L59.0888 71.0175L51.8186 69.2872C51.1791 69.1301 51.5737 68.8599 52.4762 68.8465C53.9004 68.8254 55.2973 68.6759 56.354 68.3981C58.3859 67.8634 58.3768 67.0107 56.3359 66.4723C54.0727 65.8782 50.272 65.8629 47.959 66.4263C46.9249 66.6792 46.3671 67.003 46.2809 67.3346C46.2265 67.553 45.1017 67.6469 44.4622 67.4917L37.9811 65.9376H37.9766L17.0775 71.0827H17.073L38.1807 76.1626Z" fill="url(#paint31_linear_319_42224)"/>
</g>
<path fill-rule="evenodd" clip-rule="evenodd" d="M76.1465 44.7698V44.7695C78.339 43.5001 79.4422 41.8331 79.4388 40.1714L79.4503 44.3363C79.4561 45.9996 78.3589 47.6687 76.1587 48.9393V48.9396L39.8862 69.8829L39.8862 69.8838C35.5138 72.4079 28.4441 72.4079 24.1006 69.8838L24.0891 65.7136C24.0891 65.7136 24.0892 65.7136 24.0892 65.7137L24.0892 65.7086C26.3187 67.0081 29.2644 67.6319 32.1928 67.5973V67.6054C34.9755 67.5735 37.7449 66.943 39.8745 65.7137L39.8745 65.7128L76.1465 44.7698ZM11.6706 60.0006L11.6591 55.8304C11.6648 57.4765 12.7449 59.1169 14.8993 60.3702L14.8993 60.3715L24.0884 65.7139L24.0999 69.8841L14.9162 64.5414L14.9002 60.6908L14.9109 64.5405C12.7565 63.2871 11.6764 61.6467 11.6706 60.0006Z" fill="#C9EDDB"/>
<path fill-rule="evenodd" clip-rule="evenodd" d="M76.1465 44.7698V44.7695C78.339 43.5001 79.4422 41.8331 79.4388 40.1714L79.4503 44.3363C79.4561 45.9996 78.3589 47.6687 76.1587 48.9393V48.9396L39.8862 69.8829L39.8862 69.8838C35.5138 72.4079 28.4441 72.4079 24.1006 69.8838L24.0891 65.7136C24.0891 65.7136 24.0892 65.7136 24.0892 65.7137L24.0892 65.7086C26.3187 67.0081 29.2644 67.6319 32.1928 67.5973V67.6054C34.9755 67.5735 37.7449 66.943 39.8745 65.7137L39.8745 65.7128L76.1465 44.7698ZM11.6706 60.0006L11.6591 55.8304C11.6648 57.4765 12.7449 59.1169 14.8993 60.3702L14.8993 60.3715L24.0884 65.7139L24.0999 69.8841L14.9162 64.5414L14.9002 60.6908L14.9109 64.5405C12.7565 63.2871 11.6764 61.6467 11.6706 60.0006Z" fill="url(#paint32_linear_319_42224)"/>
<path d="M14.9506 51.2282C10.5783 53.7523 10.5552 57.8474 14.8986 60.3715L24.0881 65.7084C28.4316 68.2325 35.5013 68.2325 39.8737 65.7084L76.1463 44.765C80.5187 42.2409 80.5418 38.1458 76.1983 35.6218L67.0089 30.2848C62.6654 27.7607 55.5957 27.7607 51.2233 30.2848L14.9506 51.2282Z" fill="#F0FAF6"/>
<path d="M71.1793 17.0446L71.266 43.4387C73.1142 42.3701 74.0326 40.9724 74.0326 39.5746L73.946 13.1805C73.946 14.5783 73.0276 15.976 71.1793 17.0446Z" fill="#76B1CF"/>
<path d="M71.1793 17.0446L71.266 43.4387C73.1142 42.3701 74.0326 40.9724 74.0326 39.5746L73.946 13.1805C73.946 14.5783 73.0276 15.976 71.1793 17.0446Z" fill="url(#paint33_linear_319_42224)"/>
<path d="M40.7463 34.6153L40.8388 61.0074L71.272 43.4371L71.1796 17.045L40.7463 34.6153Z" fill="#76B1CF"/>
<path d="M40.7463 34.6153L40.8388 61.0074L71.272 43.4371L71.1796 17.045L40.7463 34.6153Z" fill="url(#paint34_linear_319_42224)"/>
<path fill-rule="evenodd" clip-rule="evenodd" d="M17.1638 52.7229L17.0773 26.3475C17.0863 27.721 17.9931 29.0871 19.7976 30.1331L19.7976 30.1323L27.5027 34.6144L27.5027 34.6161C29.3302 35.6772 31.7279 36.2071 34.1272 36.2058V36.2044C35.1064 36.2044 36.0857 36.1158 37.0264 35.9388C38.3855 35.6824 39.6644 35.2415 40.7467 34.616L40.7467 34.6192C40.7485 34.6182 40.7503 34.6171 40.7521 34.6161L40.8388 60.9991C40.837 61.0002 40.8351 61.0012 40.8333 61.0023L40.8333 61.0047C37.1676 63.1233 31.2402 63.1244 27.5951 61.0081L27.5951 61.0145L19.8843 56.5324L19.8842 56.5292C18.0764 55.478 17.1696 54.1033 17.1638 52.7229Z" fill="#76B1CF"/>
<path fill-rule="evenodd" clip-rule="evenodd" d="M17.1638 52.7229L17.0773 26.3475C17.0863 27.721 17.9931 29.0871 19.7976 30.1331L19.7976 30.1323L27.5027 34.6144L27.5027 34.6161C29.3302 35.6772 31.7279 36.2071 34.1272 36.2058V36.2044C35.1064 36.2044 36.0857 36.1158 37.0264 35.9388C38.3855 35.6824 39.6644 35.2415 40.7467 34.616L40.7467 34.6192C40.7485 34.6182 40.7503 34.6171 40.7521 34.6161L40.8388 60.9991C40.837 61.0002 40.8351 61.0012 40.8333 61.0023L40.8333 61.0047C37.1676 63.1233 31.2402 63.1244 27.5951 61.0081L27.5951 61.0145L19.8843 56.5324L19.8842 56.5292C18.0764 55.478 17.1696 54.1033 17.1638 52.7229Z" fill="url(#paint35_linear_319_42224)"/>
<path d="M19.8378 22.462C16.1701 24.5817 16.147 28.0126 19.7974 30.1324L27.5024 34.6145C31.147 36.7343 37.0789 36.7343 40.7466 34.6145L71.1798 17.0442C74.8475 14.9244 74.8706 11.4935 71.2202 9.37379L63.5152 4.89169C59.8706 2.77193 53.9387 2.77193 50.271 4.89169L19.8378 22.462Z" fill="#F2F4F5"/>
<path fill-rule="evenodd" clip-rule="evenodd" d="M74.3432 14.1789L74.3428 14.1791L36.1745 36.217C33.9335 37.5107 31.0191 38.1743 28.0909 38.2077V38.1982C25.0094 38.2346 21.9097 37.5782 19.5636 36.2107V36.217L19.5638 36.2633L14.9946 33.5635L14.9947 33.5981C12.7647 32.2834 11.6467 30.5714 11.6406 28.8534L11.6528 33.2416C11.6589 34.9738 12.7954 36.7 15.0625 38.0189L15.0624 37.981L19.9942 40.8986L19.994 40.8368C24.5893 43.2588 31.7231 43.1818 36.1863 40.6055L36.1866 40.6053L74.3549 18.5674L74.3554 18.5671L74.3432 14.1789Z" fill="#C9EDDB"/>
<path fill-rule="evenodd" clip-rule="evenodd" d="M74.3432 14.1789L74.3428 14.1791L36.1745 36.217C33.9335 37.5107 31.0191 38.1743 28.0909 38.2077V38.1982C25.0094 38.2346 21.9097 37.5782 19.5636 36.2107V36.217L19.5638 36.2633L14.9946 33.5635L14.9947 33.5981C12.7647 32.2834 11.6467 30.5714 11.6406 28.8534L11.6528 33.2416C11.6589 34.9738 12.7954 36.7 15.0625 38.0189L15.0624 37.981L19.9942 40.8986L19.994 40.8368C24.5893 43.2588 31.7231 43.1818 36.1863 40.6055L36.1866 40.6053L74.3549 18.5674L74.3554 18.5671L74.3432 14.1789Z" fill="url(#paint36_linear_319_42224)"/>
<path fill-rule="evenodd" clip-rule="evenodd" d="M74.3432 14.1789L74.3428 14.1791L36.1745 36.217C33.9335 37.5107 31.0191 38.1743 28.0909 38.2077V38.1982C25.0094 38.2346 21.9097 37.5782 19.5636 36.2107V36.217L19.5638 36.2633L14.9946 33.5635L14.9947 33.5981C12.7647 32.2834 11.6467 30.5714 11.6406 28.8534L11.6528 33.2416C11.6589 34.9738 12.7954 36.7 15.0625 38.0189L15.0624 37.981L19.9942 40.8986L19.994 40.8368C24.5893 43.2588 31.7231 43.1818 36.1863 40.6055L36.1866 40.6053L74.3549 18.5674L74.3554 18.5671L74.3432 14.1789Z" fill="url(#paint37_linear_319_42224)"/>
<path d="M15.1077 24.0304C10.5068 26.6864 10.4825 30.9957 15.053 33.6517L19.5638 36.2105C24.1343 38.8665 31.5736 38.8665 36.1746 36.2105L74.3437 14.1721C78.9446 11.5161 78.9689 7.20685 74.3984 4.55082L69.8876 1.99202C65.3171 -0.664008 57.8778 -0.664008 53.2768 1.99202L15.1077 24.0304Z" fill="#F0FAF6"/>
<path d="M15.1077 24.0304C10.5068 26.6864 10.4825 30.9957 15.053 33.6517L19.5638 36.2105C24.1343 38.8665 31.5736 38.8665 36.1746 36.2105L74.3437 14.1721C78.9446 11.5161 78.9689 7.20685 74.3984 4.55082L69.8876 1.99202C65.3171 -0.664008 57.8778 -0.664008 53.2768 1.99202L15.1077 24.0304Z" fill="#F0FAF6"/>
<defs>
<filter id="filter0_f_319_42224" x="-2.927" y="45.9376" width="102.368" height="56.7211" filterUnits="userSpaceOnUse" color-interpolation-filters="sRGB">
<feFlood flood-opacity="0" result="BackgroundImageFix"/>
<feBlend mode="normal" in="SourceGraphic" in2="BackgroundImageFix" result="shape"/>
<feGaussianBlur stdDeviation="10" result="effect1_foregroundBlur_319_42224"/>
</filter>
<linearGradient id="paint0_linear_319_42224" x1="74.8209" y1="73.3689" x2="89.1929" y2="73.3689" gradientUnits="userSpaceOnUse">
<stop offset="0.0354" stop-color="#138BBD"/>
<stop offset="0.2257" stop-color="#169AC7"/>
<stop offset="0.5946" stop-color="#1FC3DF"/>
<stop offset="1" stop-color="#2AF6FF"/>
</linearGradient>
<linearGradient id="paint1_linear_319_42224" x1="75.9422" y1="69.4525" x2="75.9422" y2="77.2899" gradientUnits="userSpaceOnUse">
<stop stop-color="#D4F2E4"/>
<stop offset="1" stop-color="#A8DFF9"/>
</linearGradient>
<linearGradient id="paint2_linear_319_42224" x1="75.9422" y1="69.4525" x2="75.9422" y2="77.2899" gradientUnits="userSpaceOnUse">
<stop stop-color="#D4F2E4"/>
<stop offset="1" stop-color="#71D5A4"/>
</linearGradient>
<linearGradient id="paint3_linear_319_42224" x1="75.2531" y1="77.2053" x2="73.5648" y2="66.9457" gradientUnits="userSpaceOnUse">
<stop stop-color="#D4F2E4"/>
<stop offset="1" stop-color="#71D5A4"/>
</linearGradient>
<linearGradient id="paint4_linear_319_42224" x1="75.3489" y1="77.866" x2="75.0974" y2="69.4255" gradientUnits="userSpaceOnUse">
<stop stop-color="#E0F1E9"/>
<stop offset="1" stop-color="#EFFDF7"/>
</linearGradient>
<linearGradient id="paint5_linear_319_42224" x1="23.2187" y1="64.3583" x2="37.8228" y2="94.0844" gradientUnits="userSpaceOnUse">
<stop offset="0.0354" stop-color="#138BBD"/>
<stop offset="0.2257" stop-color="#169AC7"/>
<stop offset="0.5946" stop-color="#1FC3DF"/>
<stop offset="1" stop-color="#2AF6FF"/>
</linearGradient>
<linearGradient id="paint6_linear_319_42224" x1="47.9996" y1="69.5578" x2="47.9996" y2="77.6814" gradientUnits="userSpaceOnUse">
<stop stop-color="#D4F2E4"/>
<stop offset="1" stop-color="#A8DFF9"/>
</linearGradient>
<linearGradient id="paint7_linear_319_42224" x1="47.9996" y1="69.5578" x2="47.9996" y2="77.6814" gradientUnits="userSpaceOnUse">
<stop stop-color="#D4F2E4"/>
<stop offset="1" stop-color="#71D5A4"/>
</linearGradient>
<linearGradient id="paint8_linear_319_42224" x1="26.2568" y1="66.3842" x2="40.8608" y2="96.1103" gradientUnits="userSpaceOnUse">
<stop offset="0.0354" stop-color="#138BBD"/>
<stop offset="0.2257" stop-color="#169AC7"/>
<stop offset="0.5946" stop-color="#1FC3DF"/>
<stop offset="1" stop-color="#2AF6FF"/>
</linearGradient>
<linearGradient id="paint9_linear_319_42224" x1="55.2951" y1="72.8916" x2="55.2951" y2="80.9877" gradientUnits="userSpaceOnUse">
<stop stop-color="#D4F2E4"/>
<stop offset="1" stop-color="#A8DFF9"/>
</linearGradient>
<linearGradient id="paint10_linear_319_42224" x1="55.2951" y1="72.8916" x2="55.2951" y2="80.9877" gradientUnits="userSpaceOnUse">
<stop stop-color="#D4F2E4"/>
<stop offset="1" stop-color="#71D5A4"/>
</linearGradient>
<linearGradient id="paint11_linear_319_42224" x1="54.7154" y1="81.5828" x2="54.4407" y2="72.8646" gradientUnits="userSpaceOnUse">
<stop stop-color="#E0F1E9"/>
<stop offset="1" stop-color="#EFFDF7"/>
</linearGradient>
<linearGradient id="paint12_linear_319_42224" x1="58.548" y1="58.264" x2="54.4486" y2="80.6538" gradientUnits="userSpaceOnUse">
<stop offset="0.0354" stop-color="#138BBD"/>
<stop offset="0.2257" stop-color="#169AC7"/>
<stop offset="0.5946" stop-color="#1FC3DF"/>
<stop offset="1" stop-color="#2AF6FF"/>
</linearGradient>
<linearGradient id="paint13_linear_319_42224" x1="40.7459" y1="69.2842" x2="40.7459" y2="78.9458" gradientUnits="userSpaceOnUse">
<stop stop-color="#F0FEF8"/>
<stop offset="1" stop-color="#E0F1E9"/>
</linearGradient>
<linearGradient id="paint14_linear_319_42224" x1="61.1816" y1="78.7749" x2="35.1306" y2="51.822" gradientUnits="userSpaceOnUse">
<stop stop-color="#245795"/>
<stop offset="1" stop-color="#8AD3A8"/>
</linearGradient>
<linearGradient id="paint15_linear_319_42224" x1="38.6658" y1="75.6788" x2="91.8018" y2="63.8884" gradientUnits="userSpaceOnUse">
<stop offset="0.0354" stop-color="#9F19AB"/>
<stop offset="0.2438" stop-color="#AE25B1"/>
<stop offset="0.6455" stop-color="#D744BF"/>
<stop offset="1" stop-color="#FF63CE"/>
</linearGradient>
<linearGradient id="paint16_linear_319_42224" x1="38.5367" y1="75.1959" x2="59.0934" y2="75.1959" gradientUnits="userSpaceOnUse">
<stop stop-color="#245795"/>
<stop offset="1" stop-color="#8AD3A8"/>
</linearGradient>
<linearGradient id="paint17_linear_319_42224" x1="46.7908" y1="79.2334" x2="46.1304" y2="68.107" gradientUnits="userSpaceOnUse">
<stop stop-color="#D4F2E4"/>
<stop offset="1" stop-color="#71D5A4"/>
</linearGradient>
<linearGradient id="paint18_linear_319_42224" x1="38.5347" y1="75.2215" x2="58.9029" y2="75.2215" gradientUnits="userSpaceOnUse">
<stop offset="0.0354" stop-color="#9F19AB"/>
<stop offset="0.2438" stop-color="#AE25B1"/>
<stop offset="0.6455" stop-color="#D744BF"/>
<stop offset="1" stop-color="#FF63CE"/>
</linearGradient>
<linearGradient id="paint19_linear_319_42224" x1="38.5367" y1="75.2449" x2="50.6395" y2="75.2449" gradientUnits="userSpaceOnUse">
<stop stop-color="#245795"/>
<stop offset="1" stop-color="#8AD3A8"/>
</linearGradient>
<linearGradient id="paint20_linear_319_42224" x1="43.3963" y1="79.0478" x2="42.4065" y2="68.6249" gradientUnits="userSpaceOnUse">
<stop stop-color="#D4F2E4"/>
<stop offset="1" stop-color="#71D5A4"/>
</linearGradient>
<linearGradient id="paint21_linear_319_42224" x1="39.3247" y1="78.6472" x2="92.4606" y2="66.8568" gradientUnits="userSpaceOnUse">
<stop offset="0.0354" stop-color="#9F19AB"/>
<stop offset="0.2438" stop-color="#AE25B1"/>
<stop offset="0.6455" stop-color="#D744BF"/>
<stop offset="1" stop-color="#FF63CE"/>
</linearGradient>
<linearGradient id="paint22_linear_319_42224" x1="38.1808" y1="78.5866" x2="44.7903" y2="78.5866" gradientUnits="userSpaceOnUse">
<stop stop-color="#245795"/>
<stop offset="1" stop-color="#8AD3A8"/>
</linearGradient>
<linearGradient id="paint23_linear_319_42224" x1="40.8347" y1="82.5703" x2="38.8925" y2="71.9074" gradientUnits="userSpaceOnUse">
<stop stop-color="#D4F2E4"/>
<stop offset="1" stop-color="#71D5A4"/>
</linearGradient>
<linearGradient id="paint24_linear_319_42224" x1="-0.238302" y1="66.4844" x2="14.948" y2="98.1892" gradientUnits="userSpaceOnUse">
<stop offset="0.0354" stop-color="#9F19AB"/>
<stop offset="0.2438" stop-color="#AE25B1"/>
<stop offset="0.6455" stop-color="#D744BF"/>
<stop offset="1" stop-color="#FF63CE"/>
</linearGradient>
<linearGradient id="paint25_linear_319_42224" x1="17.0773" y1="76.9057" x2="38.1804" y2="76.9057" gradientUnits="userSpaceOnUse">
<stop stop-color="#245795"/>
<stop offset="1" stop-color="#8AD3A8"/>
</linearGradient>
<linearGradient id="paint26_linear_319_42224" x1="25.5507" y1="82.5337" x2="24.3044" y2="67.0702" gradientUnits="userSpaceOnUse">
<stop stop-color="#D4F2E4"/>
<stop offset="1" stop-color="#71D5A4"/>
</linearGradient>
<linearGradient id="paint27_linear_319_42224" x1="53.4872" y1="71.4305" x2="53.4337" y2="67.3962" gradientUnits="userSpaceOnUse">
<stop stop-color="#E0F1E9"/>
<stop offset="1" stop-color="#EFFDF7"/>
</linearGradient>
<linearGradient id="paint28_linear_319_42224" x1="61.6422" y1="70.4748" x2="50.8814" y2="67.6889" gradientUnits="userSpaceOnUse">
<stop stop-color="#D4F2E4"/>
<stop offset="1" stop-color="#71D5A4"/>
</linearGradient>
<linearGradient id="paint29_linear_319_42224" x1="46.4351" y1="51.5955" x2="44.6542" y2="74.8244" gradientUnits="userSpaceOnUse">
<stop offset="0.0354" stop-color="#9F19AB"/>
<stop offset="0.2438" stop-color="#AE25B1"/>
<stop offset="0.6455" stop-color="#D744BF"/>
<stop offset="1" stop-color="#FF63CE"/>
</linearGradient>
<linearGradient id="paint30_linear_319_42224" x1="17.073" y1="71.0811" x2="59.0888" y2="71.0811" gradientUnits="userSpaceOnUse">
<stop stop-color="#245795"/>
<stop offset="1" stop-color="#8AD3A8"/>
</linearGradient>
<linearGradient id="paint31_linear_319_42224" x1="33.9434" y1="76.0523" x2="33.4525" y2="62.3222" gradientUnits="userSpaceOnUse">
<stop stop-color="#D4F2E4"/>
<stop offset="1" stop-color="#71D5A4"/>
</linearGradient>
<linearGradient id="paint32_linear_319_42224" x1="38.879" y1="71.4358" x2="35.9818" y2="29.1404" gradientUnits="userSpaceOnUse">
<stop stop-color="#D4F2E4"/>
<stop offset="1" stop-color="#71D5A4"/>
</linearGradient>
<linearGradient id="paint33_linear_319_42224" x1="72.6814" y1="9.80148" x2="98.5838" y2="58.3076" gradientUnits="userSpaceOnUse">
<stop stop-color="#245795"/>
<stop offset="1" stop-color="#8AD3A8"/>
</linearGradient>
<linearGradient id="paint34_linear_319_42224" x1="56.0091" y1="14.6014" x2="62.4195" y2="74.4261" gradientUnits="userSpaceOnUse">
<stop stop-color="#245795"/>
<stop offset="1" stop-color="#8AD3A8"/>
</linearGradient>
<linearGradient id="paint35_linear_319_42224" x1="30.0461" y1="24.495" x2="35.9504" y2="67.5467" gradientUnits="userSpaceOnUse">
<stop stop-color="#245795"/>
<stop offset="0.971765" stop-color="#8AD3A8"/>
</linearGradient>
<linearGradient id="paint36_linear_319_42224" x1="22.3931" y1="42.5303" x2="21.6744" y2="35.2754" gradientUnits="userSpaceOnUse">
<stop stop-color="#D4F2E4"/>
<stop offset="1" stop-color="#71D5A4"/>
</linearGradient>
<linearGradient id="paint37_linear_319_42224" x1="36.8222" y1="42.2907" x2="34.2896" y2="4.25042" gradientUnits="userSpaceOnUse">
<stop stop-color="#D4F2E4"/>
<stop offset="1" stop-color="#71D5A4"/>
</linearGradient>
</defs>
</svg>
