<svg width="92" height="86" viewBox="0 0 92 86" fill="none" xmlns="http://www.w3.org/2000/svg">
<path fill-rule="evenodd" clip-rule="evenodd" d="M34.5714 22.486C34.632 22.6588 34.7478 22.814 34.9184 22.9186L35.1684 23.0715L37.91 24.7492L37.9123 24.7508V24.7479L41.6099 27.0136L44.308 28.6646C44.7654 28.9445 45.2761 29.0839 45.7866 29.0825V9.49771L38.1223 9.41196L34.5212 9.60448L34.5714 22.486Z" fill="#D4F2E4"/>
<path fill-rule="evenodd" clip-rule="evenodd" d="M34.5714 22.486C34.632 22.6588 34.7478 22.814 34.9184 22.9186L35.1684 23.0715L37.91 24.7492L37.9123 24.7508V24.7479L41.6099 27.0136L44.308 28.6646C44.7654 28.9445 45.2761 29.0839 45.7866 29.0825V9.49771L38.1223 9.41196L34.5212 9.60448L34.5714 22.486Z" fill="url(#paint0_linear_523_67766)" fill-opacity="0.15"/>
<path fill-rule="evenodd" clip-rule="evenodd" d="M34.5714 22.486C34.632 22.6588 34.7478 22.814 34.9184 22.9186L35.1684 23.0715L37.91 24.7492L37.9123 24.7508V24.7479L41.6099 27.0136L44.308 28.6646C44.7654 28.9445 45.2761 29.0839 45.7866 29.0825V9.49771L38.1223 9.41196L34.5212 9.60448L34.5714 22.486Z" fill="url(#paint1_linear_523_67766)" fill-opacity="0.35"/>
<path fill-rule="evenodd" clip-rule="evenodd" d="M34.5714 22.486C34.632 22.6588 34.7478 22.814 34.9184 22.9186L35.1684 23.0715L37.91 24.7492L37.9123 24.7508V24.7479L41.6099 27.0136L44.308 28.6646C44.7654 28.9445 45.2761 29.0839 45.7866 29.0825V9.49771L38.1223 9.41196L34.5212 9.60448L34.5714 22.486Z" fill="url(#paint2_linear_523_67766)"/>
<path fill-rule="evenodd" clip-rule="evenodd" d="M57.0026 22.486C56.942 22.6588 56.8262 22.814 56.6556 22.9186L56.4056 23.0715L53.664 24.7492L53.6617 24.7509V24.7479L49.964 27.0136L47.266 28.6646C46.8086 28.9446 46.2978 29.0839 45.7873 29.0825V9.49772L53.4517 9.41197L57.0527 9.6045L57.0026 22.486Z" fill="#D4F2E4"/>
<path fill-rule="evenodd" clip-rule="evenodd" d="M57.0026 22.486C56.942 22.6588 56.8262 22.814 56.6556 22.9186L56.4056 23.0715L53.664 24.7492L53.6617 24.7509V24.7479L49.964 27.0136L47.266 28.6646C46.8086 28.9446 46.2978 29.0839 45.7873 29.0825V9.49772L53.4517 9.41197L57.0527 9.6045L57.0026 22.486Z" fill="url(#paint3_linear_523_67766)" fill-opacity="0.4"/>
<path fill-rule="evenodd" clip-rule="evenodd" d="M57.0026 22.486C56.942 22.6588 56.8262 22.814 56.6556 22.9186L56.4056 23.0715L53.664 24.7492L53.6617 24.7509V24.7479L49.964 27.0136L47.266 28.6646C46.8086 28.9446 46.2978 29.0839 45.7873 29.0825V9.49772L53.4517 9.41197L57.0527 9.6045L57.0026 22.486Z" fill="url(#paint4_linear_523_67766)"/>
<path fill-rule="evenodd" clip-rule="evenodd" d="M57.0026 22.486C56.942 22.6588 56.8262 22.814 56.6556 22.9186L56.4056 23.0715L53.664 24.7492L53.6617 24.7509V24.7479L49.964 27.0136L47.266 28.6646C46.8086 28.9446 46.2978 29.0839 45.7873 29.0825V9.49772L53.4517 9.41197L57.0527 9.6045L57.0026 22.486Z" fill="url(#paint5_linear_523_67766)" fill-opacity="0.5"/>
<path fill-rule="evenodd" clip-rule="evenodd" d="M57.0026 22.486C56.942 22.6588 56.8262 22.814 56.6556 22.9186L56.4056 23.0715L53.664 24.7492L53.6617 24.7509V24.7479L49.964 27.0136L47.266 28.6646C46.8086 28.9446 46.2978 29.0839 45.7873 29.0825V9.49772L53.4517 9.41197L57.0527 9.6045L57.0026 22.486Z" fill="url(#paint6_linear_523_67766)"/>
<path fill-rule="evenodd" clip-rule="evenodd" d="M57.0026 22.486C56.942 22.6588 56.8262 22.814 56.6556 22.9186L56.4056 23.0715L53.664 24.7492L53.6617 24.7509V24.7479L49.964 27.0136L47.266 28.6646C46.8086 28.9446 46.2978 29.0839 45.7873 29.0825V9.49772L53.4517 9.41197L57.0527 9.6045L57.0026 22.486Z" fill="black" fill-opacity="0.1"/>
<path d="M47.174 3.19402L56.5413 8.81531C56.7988 8.96965 56.9273 9.24006 56.9275 9.51046C56.9275 9.78103 56.7989 10.051 56.5415 10.2053L53.1131 12.2626L50.3136 13.9426L47.1807 15.8226C46.2751 16.3661 45.1595 16.3661 44.2541 15.8226L41.5709 14.2125L37.8936 12.0029V12.0058L37.8913 12.0042L35.1648 10.368L34.9162 10.2189C34.7466 10.1169 34.6314 9.96557 34.5711 9.797C34.538 9.70433 34.5212 9.60629 34.5212 9.50825C34.5209 9.23167 34.6525 8.95494 34.9159 8.79681L44.2466 3.1945C45.1523 2.65068 46.2681 2.65052 47.174 3.19402Z" fill="#F0FAF6"/>
<path fill-rule="evenodd" clip-rule="evenodd" d="M28.4259 22.3499L20.7613 22.2641L17.1603 22.4566L17.2105 35.3381C17.271 35.511 17.3868 35.6661 17.5574 35.7707L17.8074 35.9236L20.549 37.6014L20.5513 37.603V37.6001L24.249 39.8657L26.947 41.5167C27.4045 41.7967 27.9153 41.936 28.4259 41.9347V22.3499Z" fill="#D4F2E4"/>
<path fill-rule="evenodd" clip-rule="evenodd" d="M28.4259 22.3499L20.7613 22.2641L17.1603 22.4566L17.2105 35.3381C17.271 35.511 17.3868 35.6661 17.5574 35.7707L17.8074 35.9236L20.549 37.6014L20.5513 37.603V37.6001L24.249 39.8657L26.947 41.5167C27.4045 41.7967 27.9153 41.936 28.4259 41.9347V22.3499Z" fill="url(#paint7_linear_523_67766)" fill-opacity="0.15"/>
<path fill-rule="evenodd" clip-rule="evenodd" d="M28.4259 22.3499L20.7613 22.2641L17.1603 22.4566L17.2105 35.3381C17.271 35.511 17.3868 35.6661 17.5574 35.7707L17.8074 35.9236L20.549 37.6014L20.5513 37.603V37.6001L24.249 39.8657L26.947 41.5167C27.4045 41.7967 27.9153 41.936 28.4259 41.9347V22.3499Z" fill="url(#paint8_linear_523_67766)" fill-opacity="0.65"/>
<path fill-rule="evenodd" clip-rule="evenodd" d="M28.4264 22.3499L36.091 22.2641L39.692 22.4566L39.6418 35.3381C39.5813 35.511 39.4655 35.6661 39.2949 35.7707L39.0449 35.9236L36.3033 37.6014L36.301 37.603V37.6001L32.6033 39.8657L29.9053 41.5167C29.4478 41.7967 28.937 41.936 28.4264 41.9347V22.3499Z" fill="#D4F2E4"/>
<path fill-rule="evenodd" clip-rule="evenodd" d="M28.4264 22.3499L36.091 22.2641L39.692 22.4566L39.6418 35.3381C39.5813 35.511 39.4655 35.6661 39.2949 35.7707L39.0449 35.9236L36.3033 37.6014L36.301 37.603V37.6001L32.6033 39.8657L29.9053 41.5167C29.4478 41.7967 28.937 41.936 28.4264 41.9347V22.3499Z" fill="url(#paint9_linear_523_67766)" fill-opacity="0.4"/>
<path fill-rule="evenodd" clip-rule="evenodd" d="M28.4264 22.3499L36.091 22.2641L39.692 22.4566L39.6418 35.3381C39.5813 35.511 39.4655 35.6661 39.2949 35.7707L39.0449 35.9236L36.3033 37.6014L36.301 37.603V37.6001L32.6033 39.8657L29.9053 41.5167C29.4478 41.7967 28.937 41.936 28.4264 41.9347V22.3499Z" fill="url(#paint10_linear_523_67766)"/>
<path fill-rule="evenodd" clip-rule="evenodd" d="M28.4264 22.3499L36.091 22.2641L39.692 22.4566L39.6418 35.3381C39.5813 35.511 39.4655 35.6661 39.2949 35.7707L39.0449 35.9236L36.3033 37.6014L36.301 37.603V37.6001L32.6033 39.8657L29.9053 41.5167C29.4478 41.7967 28.937 41.936 28.4264 41.9347V22.3499Z" fill="url(#paint11_linear_523_67766)"/>
<path d="M29.8133 16.0462L39.1806 21.6675C39.4381 21.8218 39.5666 22.0922 39.5668 22.3626C39.5668 22.6332 39.4382 22.9031 39.1808 23.0574L35.7524 25.1147L32.9529 26.7947L29.8199 28.6748C28.9144 29.2183 27.7987 29.2183 26.8933 28.6748L24.2102 27.0647L20.5329 24.8551V24.8579L20.5306 24.8564L17.8041 23.2202L17.5555 23.071C17.3858 22.969 17.2707 22.8177 17.2104 22.6491C17.1773 22.5565 17.1605 22.4584 17.1605 22.3604C17.1602 22.0838 17.2918 21.8071 17.5552 21.649L26.8859 16.0466C27.7916 15.5028 28.9074 15.5027 29.8133 16.0462Z" fill="#F0FAF6"/>
<path fill-rule="evenodd" clip-rule="evenodd" d="M62.6853 22.3498L55.0207 22.2641L51.4197 22.4566L51.4699 35.3381C51.5304 35.511 51.6462 35.6661 51.8168 35.7707L52.0668 35.9236L54.8084 37.6014L54.8107 37.603V37.6001L58.5084 39.8657L61.2064 41.5167C61.6639 41.7967 62.1747 41.936 62.6853 41.9347V22.3498Z" fill="#D4F2E4"/>
<path fill-rule="evenodd" clip-rule="evenodd" d="M62.6853 22.3498L55.0207 22.2641L51.4197 22.4566L51.4699 35.3381C51.5304 35.511 51.6462 35.6661 51.8168 35.7707L52.0668 35.9236L54.8084 37.6014L54.8107 37.603V37.6001L58.5084 39.8657L61.2064 41.5167C61.6639 41.7967 62.1747 41.936 62.6853 41.9347V22.3498Z" fill="url(#paint12_linear_523_67766)" fill-opacity="0.15"/>
<path fill-rule="evenodd" clip-rule="evenodd" d="M62.6853 22.3498L55.0207 22.2641L51.4197 22.4566L51.4699 35.3381C51.5304 35.511 51.6462 35.6661 51.8168 35.7707L52.0668 35.9236L54.8084 37.6014L54.8107 37.603V37.6001L58.5084 39.8657L61.2064 41.5167C61.6639 41.7967 62.1747 41.936 62.6853 41.9347V22.3498Z" fill="url(#paint13_linear_523_67766)" fill-opacity="0.65"/>
<path fill-rule="evenodd" clip-rule="evenodd" d="M62.6859 22.3498L70.3504 22.2641L73.9514 22.4566L73.9012 35.3381C73.8407 35.511 73.7249 35.6661 73.5543 35.7707L73.3043 35.9236L70.5627 37.6014L70.5604 37.603V37.6001L66.8627 39.8657L64.1647 41.5167C63.7072 41.7967 63.1964 41.936 62.6859 41.9347V22.3498Z" fill="#D4F2E4"/>
<path fill-rule="evenodd" clip-rule="evenodd" d="M62.6859 22.3498L70.3504 22.2641L73.9514 22.4566L73.9012 35.3381C73.8407 35.511 73.7249 35.6661 73.5543 35.7707L73.3043 35.9236L70.5627 37.6014L70.5604 37.603V37.6001L66.8627 39.8657L64.1647 41.5167C63.7072 41.7967 63.1964 41.936 62.6859 41.9347V22.3498Z" fill="url(#paint14_linear_523_67766)" fill-opacity="0.4"/>
<path fill-rule="evenodd" clip-rule="evenodd" d="M62.6859 22.3498L70.3504 22.2641L73.9514 22.4566L73.9012 35.3381C73.8407 35.511 73.7249 35.6661 73.5543 35.7707L73.3043 35.9236L70.5627 37.6014L70.5604 37.603V37.6001L66.8627 39.8657L64.1647 41.5167C63.7072 41.7967 63.1964 41.936 62.6859 41.9347V22.3498Z" fill="url(#paint15_linear_523_67766)"/>
<path fill-rule="evenodd" clip-rule="evenodd" d="M62.6859 22.3498L70.3504 22.2641L73.9514 22.4566L73.9012 35.3381C73.8407 35.511 73.7249 35.6661 73.5543 35.7707L73.3043 35.9236L70.5627 37.6014L70.5604 37.603V37.6001L66.8627 39.8657L64.1647 41.5167C63.7072 41.7967 63.1964 41.936 62.6859 41.9347V22.3498Z" fill="url(#paint16_linear_523_67766)"/>
<path d="M64.0729 16.0462L73.4403 21.6675C73.6977 21.8218 73.8263 22.0922 73.8264 22.3626C73.8264 22.6332 73.6978 22.9031 73.4404 23.0574L70.0121 25.1147L67.2125 26.7947L64.0796 28.6748C63.174 29.2183 62.0584 29.2183 61.153 28.6748L58.4698 27.0647L54.7925 24.8551V24.8579L54.7903 24.8564L52.0637 23.2202L51.8151 23.071C51.6455 22.969 51.5303 22.8177 51.4701 22.6491C51.4369 22.5565 51.4202 22.4584 51.4202 22.3604C51.4199 22.0838 51.5515 21.8071 51.8148 21.649L61.1455 16.0466C62.0512 15.5028 63.167 15.5027 64.0729 16.0462Z" fill="#F0FAF6"/>
<path fill-rule="evenodd" clip-rule="evenodd" d="M34.5713 48.1903C34.6319 48.3631 34.7477 48.5183 34.9183 48.6229L35.1682 48.7758L37.9099 50.4535L37.9122 50.4552V50.4522L41.6098 52.7179L44.3079 54.3689C44.7652 54.6488 45.276 54.7882 45.7865 54.7868V35.202L38.1221 35.1163L34.5211 35.3088L34.5713 48.1903Z" fill="#D4F2E4"/>
<path fill-rule="evenodd" clip-rule="evenodd" d="M34.5713 48.1903C34.6319 48.3631 34.7477 48.5183 34.9183 48.6229L35.1682 48.7758L37.9099 50.4535L37.9122 50.4552V50.4522L41.6098 52.7179L44.3079 54.3689C44.7652 54.6488 45.276 54.7882 45.7865 54.7868V35.202L38.1221 35.1163L34.5211 35.3088L34.5713 48.1903Z" fill="url(#paint17_linear_523_67766)" fill-opacity="0.15"/>
<path fill-rule="evenodd" clip-rule="evenodd" d="M34.5713 48.1903C34.6319 48.3631 34.7477 48.5183 34.9183 48.6229L35.1682 48.7758L37.9099 50.4535L37.9122 50.4552V50.4522L41.6098 52.7179L44.3079 54.3689C44.7652 54.6488 45.276 54.7882 45.7865 54.7868V35.202L38.1221 35.1163L34.5211 35.3088L34.5713 48.1903Z" fill="url(#paint18_linear_523_67766)" fill-opacity="0.35"/>
<path fill-rule="evenodd" clip-rule="evenodd" d="M57.0024 48.1903C56.9419 48.3631 56.826 48.5183 56.6555 48.6229L56.4055 48.7758L53.6638 50.4535L53.6616 50.4551V50.4522L49.9639 52.7179L47.2659 54.3688C46.8085 54.6488 46.2977 54.7882 45.7871 54.7868V35.202L53.4516 35.1162L57.0526 35.3088L57.0024 48.1903Z" fill="#D4F2E4"/>
<path fill-rule="evenodd" clip-rule="evenodd" d="M57.0024 48.1903C56.9419 48.3631 56.826 48.5183 56.6555 48.6229L56.4055 48.7758L53.6638 50.4535L53.6616 50.4551V50.4522L49.9639 52.7179L47.2659 54.3688C46.8085 54.6488 46.2977 54.7882 45.7871 54.7868V35.202L53.4516 35.1162L57.0526 35.3088L57.0024 48.1903Z" fill="url(#paint19_linear_523_67766)" fill-opacity="0.4"/>
<path fill-rule="evenodd" clip-rule="evenodd" d="M57.0024 48.1903C56.9419 48.3631 56.826 48.5183 56.6555 48.6229L56.4055 48.7758L53.6638 50.4535L53.6616 50.4551V50.4522L49.9639 52.7179L47.2659 54.3688C46.8085 54.6488 46.2977 54.7882 45.7871 54.7868V35.202L53.4516 35.1162L57.0526 35.3088L57.0024 48.1903Z" fill="url(#paint20_linear_523_67766)"/>
<path fill-rule="evenodd" clip-rule="evenodd" d="M57.0024 48.1903C56.9419 48.3631 56.826 48.5183 56.6555 48.6229L56.4055 48.7758L53.6638 50.4535L53.6616 50.4551V50.4522L49.9639 52.7179L47.2659 54.3688C46.8085 54.6488 46.2977 54.7882 45.7871 54.7868V35.202L53.4516 35.1162L57.0526 35.3088L57.0024 48.1903Z" fill="url(#paint21_linear_523_67766)" fill-opacity="0.5"/>
<path d="M47.174 28.8983L56.5413 34.5196C56.7988 34.6739 56.9273 34.9443 56.9275 35.2147C56.9275 35.4853 56.7989 35.7552 56.5415 35.9096L53.1131 37.9669L50.3136 39.6469L47.1807 41.5269C46.2751 42.0704 45.1595 42.0704 44.2541 41.5269L41.5709 39.9168L37.8936 37.7072V37.7101L37.8913 37.7085L35.1648 36.0723L34.9162 35.9232C34.7466 35.8212 34.6314 35.6698 34.5711 35.5013C34.538 35.4086 34.5212 35.3106 34.5212 35.2125C34.5209 34.9359 34.6525 34.6592 34.9159 34.5011L44.2466 28.8988C45.1523 28.3549 46.2681 28.3548 47.174 28.8983Z" fill="#F0FAF6"/>
<path fill-rule="evenodd" clip-rule="evenodd" d="M17.2105 61.597C17.271 61.7698 17.3868 61.925 17.5574 62.0296L17.8074 62.1825L20.549 63.8602L20.5513 63.8618V63.8589L24.249 66.1246L26.947 67.7755C27.4045 68.0556 27.9153 68.1949 28.4259 68.1935V48.6087L20.7613 48.5229L17.1603 48.7155L17.2105 61.597Z" fill="#D4F2E4"/>
<path fill-rule="evenodd" clip-rule="evenodd" d="M17.2105 61.597C17.271 61.7698 17.3868 61.925 17.5574 62.0296L17.8074 62.1825L20.549 63.8602L20.5513 63.8618V63.8589L24.249 66.1246L26.947 67.7755C27.4045 68.0556 27.9153 68.1949 28.4259 68.1935V48.6087L20.7613 48.5229L17.1603 48.7155L17.2105 61.597Z" fill="url(#paint22_linear_523_67766)" fill-opacity="0.15"/>
<path fill-rule="evenodd" clip-rule="evenodd" d="M17.2105 61.597C17.271 61.7698 17.3868 61.925 17.5574 62.0296L17.8074 62.1825L20.549 63.8602L20.5513 63.8618V63.8589L24.249 66.1246L26.947 67.7755C27.4045 68.0556 27.9153 68.1949 28.4259 68.1935V48.6087L20.7613 48.5229L17.1603 48.7155L17.2105 61.597Z" fill="url(#paint23_linear_523_67766)" fill-opacity="0.15"/>
<path fill-rule="evenodd" clip-rule="evenodd" d="M39.6418 61.597C39.5813 61.7698 39.4655 61.925 39.2949 62.0296L39.0449 62.1825L36.3033 63.8602L36.301 63.8618V63.8589L32.6033 66.1246L29.9053 67.7755C29.4478 68.0556 28.937 68.1949 28.4264 68.1935V48.6087L36.091 48.5229L39.692 48.7155L39.6418 61.597Z" fill="#D4F2E4"/>
<path fill-rule="evenodd" clip-rule="evenodd" d="M39.6418 61.597C39.5813 61.7698 39.4655 61.925 39.2949 62.0296L39.0449 62.1825L36.3033 63.8602L36.301 63.8618V63.8589L32.6033 66.1246L29.9053 67.7755C29.4478 68.0556 28.937 68.1949 28.4264 68.1935V48.6087L36.091 48.5229L39.692 48.7155L39.6418 61.597Z" fill="url(#paint24_linear_523_67766)" fill-opacity="0.4"/>
<path fill-rule="evenodd" clip-rule="evenodd" d="M39.6418 61.597C39.5813 61.7698 39.4655 61.925 39.2949 62.0296L39.0449 62.1825L36.3033 63.8602L36.301 63.8618V63.8589L32.6033 66.1246L29.9053 67.7755C29.4478 68.0556 28.937 68.1949 28.4264 68.1935V48.6087L36.091 48.5229L39.692 48.7155L39.6418 61.597Z" fill="url(#paint25_linear_523_67766)"/>
<path fill-rule="evenodd" clip-rule="evenodd" d="M39.6418 61.597C39.5813 61.7698 39.4655 61.925 39.2949 62.0296L39.0449 62.1825L36.3033 63.8602L36.301 63.8618V63.8589L32.6033 66.1246L29.9053 67.7755C29.4478 68.0556 28.937 68.1949 28.4264 68.1935V48.6087L36.091 48.5229L39.692 48.7155L39.6418 61.597Z" fill="url(#paint26_linear_523_67766)" fill-opacity="0.2"/>
<path d="M29.8133 42.305L39.1806 47.9263C39.4381 48.0807 39.5666 48.3511 39.5668 48.6215C39.5668 48.892 39.4382 49.162 39.1808 49.3163L35.7524 51.3736L32.9529 53.0536L29.8199 54.9336C28.9144 55.4771 27.7987 55.4771 26.8933 54.9336L24.2102 53.3235L20.5329 51.114V51.1168L20.5306 51.1152L17.8041 49.479L17.5555 49.3299C17.3858 49.2279 17.2707 49.0766 17.2104 48.908C17.1773 48.8153 17.1605 48.7173 17.1605 48.6193C17.1602 48.3427 17.2918 48.066 17.5552 47.9078L26.8859 42.3055C27.7916 41.7617 28.9074 41.7615 29.8133 42.305Z" fill="#F0FAF6"/>
<path fill-rule="evenodd" clip-rule="evenodd" d="M51.4699 61.597C51.5304 61.7698 51.6462 61.925 51.8168 62.0296L52.0668 62.1825L54.8084 63.8602L54.8107 63.8618V63.8589L58.5084 66.1246L61.2064 67.7755C61.6639 68.0556 62.1747 68.1949 62.6853 68.1935V48.6087L55.0207 48.5229L51.4197 48.7155L51.4699 61.597Z" fill="#D4F2E4"/>
<path fill-rule="evenodd" clip-rule="evenodd" d="M51.4699 61.597C51.5304 61.7698 51.6462 61.925 51.8168 62.0296L52.0668 62.1825L54.8084 63.8602L54.8107 63.8618V63.8589L58.5084 66.1246L61.2064 67.7755C61.6639 68.0556 62.1747 68.1949 62.6853 68.1935V48.6087L55.0207 48.5229L51.4197 48.7155L51.4699 61.597Z" fill="url(#paint27_linear_523_67766)" fill-opacity="0.15"/>
<path fill-rule="evenodd" clip-rule="evenodd" d="M51.4699 61.597C51.5304 61.7698 51.6462 61.925 51.8168 62.0296L52.0668 62.1825L54.8084 63.8602L54.8107 63.8618V63.8589L58.5084 66.1246L61.2064 67.7755C61.6639 68.0556 62.1747 68.1949 62.6853 68.1935V48.6087L55.0207 48.5229L51.4197 48.7155L51.4699 61.597Z" fill="url(#paint28_linear_523_67766)" fill-opacity="0.15"/>
<path fill-rule="evenodd" clip-rule="evenodd" d="M73.9012 61.597C73.8407 61.7698 73.7249 61.925 73.5543 62.0296L73.3043 62.1825L70.5627 63.8602L70.5604 63.8618V63.8589L66.8627 66.1246L64.1647 67.7755C63.7072 68.0556 63.1964 68.1949 62.6859 68.1935V48.6087L70.3504 48.5229L73.9514 48.7155L73.9012 61.597Z" fill="#D4F2E4"/>
<path fill-rule="evenodd" clip-rule="evenodd" d="M73.9012 61.597C73.8407 61.7698 73.7249 61.925 73.5543 62.0296L73.3043 62.1825L70.5627 63.8602L70.5604 63.8618V63.8589L66.8627 66.1246L64.1647 67.7755C63.7072 68.0556 63.1964 68.1949 62.6859 68.1935V48.6087L70.3504 48.5229L73.9514 48.7155L73.9012 61.597Z" fill="url(#paint29_linear_523_67766)" fill-opacity="0.4"/>
<path fill-rule="evenodd" clip-rule="evenodd" d="M73.9012 61.597C73.8407 61.7698 73.7249 61.925 73.5543 62.0296L73.3043 62.1825L70.5627 63.8602L70.5604 63.8618V63.8589L66.8627 66.1246L64.1647 67.7755C63.7072 68.0556 63.1964 68.1949 62.6859 68.1935V48.6087L70.3504 48.5229L73.9514 48.7155L73.9012 61.597Z" fill="url(#paint30_linear_523_67766)"/>
<path fill-rule="evenodd" clip-rule="evenodd" d="M73.9012 61.597C73.8407 61.7698 73.7249 61.925 73.5543 62.0296L73.3043 62.1825L70.5627 63.8602L70.5604 63.8618V63.8589L66.8627 66.1246L64.1647 67.7755C63.7072 68.0556 63.1964 68.1949 62.6859 68.1935V48.6087L70.3504 48.5229L73.9514 48.7155L73.9012 61.597Z" fill="url(#paint31_linear_523_67766)" fill-opacity="0.2"/>
<path d="M64.0729 42.305L73.4403 47.9263C73.6977 48.0807 73.8263 48.3511 73.8264 48.6215C73.8264 48.892 73.6978 49.162 73.4404 49.3163L70.0121 51.3736L67.2125 53.0536L64.0796 54.9336C63.174 55.4771 62.0584 55.4771 61.153 54.9336L58.4698 53.3235L54.7925 51.114V51.1168L54.7903 51.1152L52.0637 49.479L51.8151 49.3299C51.6455 49.2279 51.5303 49.0766 51.4701 48.908C51.4369 48.8153 51.4202 48.7173 51.4202 48.6193C51.4199 48.3427 51.5515 48.066 51.8148 47.9078L61.1455 42.3055C62.0512 41.7617 63.167 41.7615 64.0729 42.305Z" fill="#F0FAF6"/>
<path fill-rule="evenodd" clip-rule="evenodd" d="M45.7865 61.4689L38.1221 61.3832L34.5211 61.5757L34.5713 74.4572C34.6319 74.63 34.7477 74.7852 34.9183 74.8898L35.1682 75.0427L37.9099 76.7204L37.9122 76.7221V76.7191L41.6098 78.9848L44.3079 80.6358C44.7652 80.9158 45.276 81.0551 45.7865 81.0537V61.4689Z" fill="#D4F2E4"/>
<path fill-rule="evenodd" clip-rule="evenodd" d="M45.7865 61.4689L38.1221 61.3832L34.5211 61.5757L34.5713 74.4572C34.6319 74.63 34.7477 74.7852 34.9183 74.8898L35.1682 75.0427L37.9099 76.7204L37.9122 76.7221V76.7191L41.6098 78.9848L44.3079 80.6358C44.7652 80.9158 45.276 81.0551 45.7865 81.0537V61.4689Z" fill="url(#paint32_linear_523_67766)" fill-opacity="0.15"/>
<path fill-rule="evenodd" clip-rule="evenodd" d="M57.0024 74.4572C56.9419 74.63 56.826 74.7852 56.6555 74.8898L56.4055 75.0427L53.6638 76.7204L53.6616 76.7221V76.7191L49.9639 78.9848L47.2659 80.6358C46.8085 80.9158 46.2977 81.0551 45.7871 81.0537V61.4689L53.4516 61.3832L57.0526 61.5757L57.0024 74.4572Z" fill="#D4F2E4"/>
<path fill-rule="evenodd" clip-rule="evenodd" d="M57.0024 74.4572C56.9419 74.63 56.826 74.7852 56.6555 74.8898L56.4055 75.0427L53.6638 76.7204L53.6616 76.7221V76.7191L49.9639 78.9848L47.2659 80.6358C46.8085 80.9158 46.2977 81.0551 45.7871 81.0537V61.4689L53.4516 61.3832L57.0526 61.5757L57.0024 74.4572Z" fill="url(#paint33_linear_523_67766)" fill-opacity="0.4"/>
<path fill-rule="evenodd" clip-rule="evenodd" d="M57.0024 74.4572C56.9419 74.63 56.826 74.7852 56.6555 74.8898L56.4055 75.0427L53.6638 76.7204L53.6616 76.7221V76.7191L49.9639 78.9848L47.2659 80.6358C46.8085 80.9158 46.2977 81.0551 45.7871 81.0537V61.4689L53.4516 61.3832L57.0526 61.5757L57.0024 74.4572Z" fill="url(#paint34_linear_523_67766)"/>
<path d="M47.174 55.1652L56.5413 60.7865C56.7988 60.9409 56.9273 61.2113 56.9275 61.4817C56.9275 61.7522 56.7989 62.0222 56.5415 62.1765L53.1131 64.2338L50.3136 65.9138L47.1807 67.7938C46.2751 68.3373 45.1595 68.3373 44.2541 67.7938L41.5709 66.1837L37.8936 63.9742V63.977L37.8913 63.9754L35.1648 62.3392L34.9162 62.1901C34.7466 62.0881 34.6314 61.9368 34.5711 61.7682C34.538 61.6755 34.5212 61.5775 34.5212 61.4795C34.5209 61.2029 34.6525 60.9261 34.9159 60.768L44.2466 55.1657C45.1523 54.6219 46.2681 54.6217 47.174 55.1652Z" fill="#F0FAF6"/>
<path d="M84.5655 20.734C85.1685 21.7785 84.929 23.4193 83.6172 25.6649C82.3279 27.8721 80.0957 30.4975 77.0739 33.372C71.036 39.1155 61.9291 45.7754 51.1837 51.9793C40.4383 58.1831 30.1172 62.74 22.1243 65.0972C18.124 66.2769 14.7342 66.8974 12.1781 66.9104C9.57744 66.9235 8.03669 66.3105 7.43369 65.2661C6.83069 64.2217 7.07018 62.5808 8.38193 60.3352C9.67122 58.128 11.9034 55.5027 14.9253 52.6281C20.9631 46.8847 30.07 40.2247 40.8154 34.0209C51.5608 27.817 61.882 23.2602 69.8749 20.903C73.8752 19.7232 77.265 19.1028 79.8211 19.0898C82.4217 19.0766 83.9625 19.6896 84.5655 20.734Z" stroke="url(#paint35_linear_523_67766)"/>
<path d="M87.7496 58.4943C87.33 59.6249 85.9137 60.4872 83.3475 60.9097C80.8253 61.3249 77.3795 61.2808 73.2381 60.7875C64.9634 59.8019 54.025 57.0376 42.3925 52.7205C30.76 48.4035 20.6665 43.3624 13.7522 38.711C10.2917 36.3831 7.65145 34.1685 6.01078 32.2084C4.34154 30.2141 3.8307 28.6365 4.2503 27.5059C4.66991 26.3752 6.08626 25.5129 8.6524 25.0904C11.1746 24.6752 14.6204 24.7193 18.7618 25.2126C27.0365 26.1982 37.975 28.9625 49.6074 33.2796C61.2399 37.5967 71.3334 42.6377 78.2477 47.2891C81.7082 49.6171 84.3485 51.8316 85.9891 53.7918C87.6584 55.786 88.1692 57.3636 87.7496 58.4943Z" stroke="url(#paint36_linear_523_67766)" stroke-opacity="0.25"/>
<path d="M73.0785 7.64646C74.0359 8.37978 74.444 9.987 74.0937 12.564C73.7495 15.0969 72.6947 18.3775 71.0063 22.1911C67.6327 29.811 61.7761 39.4542 54.2314 49.3045C46.6867 59.1548 38.9022 67.3213 32.4244 72.5636C29.1823 75.1872 26.2897 77.0602 23.934 78.0524C21.5372 79.0619 19.8792 79.0866 18.9217 78.3533C17.9643 77.62 17.5562 76.0128 17.9065 73.4358C18.2508 70.9029 19.3055 67.6222 20.994 63.8086C24.3676 56.1888 30.2242 46.5456 37.7689 36.6953C45.3136 26.845 53.0981 18.6784 59.5759 13.4362C62.8179 10.8126 65.7106 8.93961 68.0663 7.94737C70.4631 6.93785 72.1211 6.91314 73.0785 7.64646Z" stroke="url(#paint37_linear_523_67766)" stroke-opacity="0.25"/>
<defs>
<linearGradient id="paint0_linear_523_67766" x1="45.8059" y1="2.98232" x2="45.8059" y2="11.8956" gradientUnits="userSpaceOnUse">
<stop stop-color="#245795"/>
<stop offset="1" stop-color="#8AD3A8"/>
</linearGradient>
<linearGradient id="paint1_linear_523_67766" x1="38.0199" y1="7.71871" x2="35.8564" y2="32.6522" gradientUnits="userSpaceOnUse">
<stop stop-color="#245795"/>
<stop offset="1" stop-color="#8AD3A8"/>
</linearGradient>
<linearGradient id="paint2_linear_523_67766" x1="40.4517" y1="7.52792" x2="40.4517" y2="32.2853" gradientUnits="userSpaceOnUse">
<stop stop-color="#245795"/>
<stop offset="1" stop-color="#8AD3A8"/>
</linearGradient>
<linearGradient id="paint3_linear_523_67766" x1="45.768" y1="2.98233" x2="45.768" y2="11.8957" gradientUnits="userSpaceOnUse">
<stop stop-color="#245795"/>
<stop offset="1" stop-color="#8AD3A8"/>
</linearGradient>
<linearGradient id="paint4_linear_523_67766" x1="52.5294" y1="28.8703" x2="58.8954" y2="4.0562" gradientUnits="userSpaceOnUse">
<stop stop-color="#D4F2E4"/>
<stop offset="1" stop-color="#71D5A4"/>
</linearGradient>
<linearGradient id="paint5_linear_523_67766" x1="53.554" y1="7.71872" x2="55.7175" y2="32.6522" gradientUnits="userSpaceOnUse">
<stop stop-color="#245795"/>
<stop offset="1" stop-color="#8AD3A8"/>
</linearGradient>
<linearGradient id="paint6_linear_523_67766" x1="51.1222" y1="7.52794" x2="51.1222" y2="32.2853" gradientUnits="userSpaceOnUse">
<stop stop-color="#245795"/>
<stop offset="1" stop-color="#8AD3A8"/>
</linearGradient>
<linearGradient id="paint7_linear_523_67766" x1="28.445" y1="15.8345" x2="28.445" y2="24.7478" gradientUnits="userSpaceOnUse">
<stop stop-color="#245795"/>
<stop offset="1" stop-color="#8AD3A8"/>
</linearGradient>
<linearGradient id="paint8_linear_523_67766" x1="20.659" y1="20.5708" x2="18.4955" y2="45.5043" gradientUnits="userSpaceOnUse">
<stop stop-color="#245795"/>
<stop offset="1" stop-color="#8AD3A8"/>
</linearGradient>
<linearGradient id="paint9_linear_523_67766" x1="28.4073" y1="15.8345" x2="28.4073" y2="24.7478" gradientUnits="userSpaceOnUse">
<stop stop-color="#245795"/>
<stop offset="1" stop-color="#8AD3A8"/>
</linearGradient>
<linearGradient id="paint10_linear_523_67766" x1="35.1686" y1="41.7224" x2="41.5347" y2="16.9083" gradientUnits="userSpaceOnUse">
<stop stop-color="#D4F2E4"/>
<stop offset="1" stop-color="#71D5A4"/>
</linearGradient>
<linearGradient id="paint11_linear_523_67766" x1="33.7615" y1="20.3801" x2="33.7615" y2="45.1374" gradientUnits="userSpaceOnUse">
<stop stop-color="#245795"/>
<stop offset="1" stop-color="#8AD3A8"/>
</linearGradient>
<linearGradient id="paint12_linear_523_67766" x1="62.7044" y1="15.8345" x2="62.7044" y2="24.7478" gradientUnits="userSpaceOnUse">
<stop stop-color="#245795"/>
<stop offset="1" stop-color="#8AD3A8"/>
</linearGradient>
<linearGradient id="paint13_linear_523_67766" x1="54.9184" y1="20.5708" x2="52.7549" y2="45.5043" gradientUnits="userSpaceOnUse">
<stop stop-color="#245795"/>
<stop offset="1" stop-color="#8AD3A8"/>
</linearGradient>
<linearGradient id="paint14_linear_523_67766" x1="62.6667" y1="15.8345" x2="62.6667" y2="24.7478" gradientUnits="userSpaceOnUse">
<stop stop-color="#245795"/>
<stop offset="1" stop-color="#8AD3A8"/>
</linearGradient>
<linearGradient id="paint15_linear_523_67766" x1="69.428" y1="41.7224" x2="75.7941" y2="16.9083" gradientUnits="userSpaceOnUse">
<stop stop-color="#D4F2E4"/>
<stop offset="1" stop-color="#71D5A4"/>
</linearGradient>
<linearGradient id="paint16_linear_523_67766" x1="68.0209" y1="20.3801" x2="68.0209" y2="45.1374" gradientUnits="userSpaceOnUse">
<stop stop-color="#245795"/>
<stop offset="1" stop-color="#8AD3A8"/>
</linearGradient>
<linearGradient id="paint17_linear_523_67766" x1="45.8058" y1="28.6866" x2="45.8058" y2="37.6" gradientUnits="userSpaceOnUse">
<stop stop-color="#245795"/>
<stop offset="1" stop-color="#8AD3A8"/>
</linearGradient>
<linearGradient id="paint18_linear_523_67766" x1="38.0198" y1="33.423" x2="35.8563" y2="58.3565" gradientUnits="userSpaceOnUse">
<stop stop-color="#245795"/>
<stop offset="1" stop-color="#8AD3A8"/>
</linearGradient>
<linearGradient id="paint19_linear_523_67766" x1="45.7679" y1="28.6866" x2="45.7679" y2="37.5999" gradientUnits="userSpaceOnUse">
<stop stop-color="#245795"/>
<stop offset="1" stop-color="#8AD3A8"/>
</linearGradient>
<linearGradient id="paint20_linear_523_67766" x1="52.5292" y1="54.5746" x2="58.8953" y2="29.7605" gradientUnits="userSpaceOnUse">
<stop stop-color="#D4F2E4"/>
<stop offset="1" stop-color="#71D5A4"/>
</linearGradient>
<linearGradient id="paint21_linear_523_67766" x1="53.5539" y1="33.423" x2="55.7174" y2="58.3565" gradientUnits="userSpaceOnUse">
<stop stop-color="#245795"/>
<stop offset="1" stop-color="#8AD3A8"/>
</linearGradient>
<linearGradient id="paint22_linear_523_67766" x1="28.445" y1="42.0933" x2="28.445" y2="51.0066" gradientUnits="userSpaceOnUse">
<stop stop-color="#245795"/>
<stop offset="1" stop-color="#8AD3A8"/>
</linearGradient>
<linearGradient id="paint23_linear_523_67766" x1="20.659" y1="46.8297" x2="18.4955" y2="71.7632" gradientUnits="userSpaceOnUse">
<stop stop-color="#245795"/>
<stop offset="1" stop-color="#8AD3A8"/>
</linearGradient>
<linearGradient id="paint24_linear_523_67766" x1="28.4073" y1="42.0933" x2="28.4073" y2="51.0066" gradientUnits="userSpaceOnUse">
<stop stop-color="#245795"/>
<stop offset="1" stop-color="#8AD3A8"/>
</linearGradient>
<linearGradient id="paint25_linear_523_67766" x1="35.1686" y1="67.9813" x2="41.5347" y2="43.1672" gradientUnits="userSpaceOnUse">
<stop stop-color="#D4F2E4"/>
<stop offset="1" stop-color="#71D5A4"/>
</linearGradient>
<linearGradient id="paint26_linear_523_67766" x1="36.1933" y1="46.8297" x2="38.3568" y2="71.7632" gradientUnits="userSpaceOnUse">
<stop stop-color="#245795"/>
<stop offset="1" stop-color="#8AD3A8"/>
</linearGradient>
<linearGradient id="paint27_linear_523_67766" x1="62.7044" y1="42.0933" x2="62.7044" y2="51.0066" gradientUnits="userSpaceOnUse">
<stop stop-color="#245795"/>
<stop offset="1" stop-color="#8AD3A8"/>
</linearGradient>
<linearGradient id="paint28_linear_523_67766" x1="54.9184" y1="46.8297" x2="52.7549" y2="71.7632" gradientUnits="userSpaceOnUse">
<stop stop-color="#245795"/>
<stop offset="1" stop-color="#8AD3A8"/>
</linearGradient>
<linearGradient id="paint29_linear_523_67766" x1="62.6667" y1="42.0933" x2="62.6667" y2="51.0066" gradientUnits="userSpaceOnUse">
<stop stop-color="#245795"/>
<stop offset="1" stop-color="#8AD3A8"/>
</linearGradient>
<linearGradient id="paint30_linear_523_67766" x1="69.428" y1="67.9813" x2="75.7941" y2="43.1672" gradientUnits="userSpaceOnUse">
<stop stop-color="#D4F2E4"/>
<stop offset="1" stop-color="#71D5A4"/>
</linearGradient>
<linearGradient id="paint31_linear_523_67766" x1="70.4527" y1="46.8297" x2="72.6162" y2="71.7632" gradientUnits="userSpaceOnUse">
<stop stop-color="#245795"/>
<stop offset="1" stop-color="#8AD3A8"/>
</linearGradient>
<linearGradient id="paint32_linear_523_67766" x1="45.8058" y1="54.9535" x2="45.8058" y2="63.8669" gradientUnits="userSpaceOnUse">
<stop stop-color="#245795"/>
<stop offset="1" stop-color="#8AD3A8"/>
</linearGradient>
<linearGradient id="paint33_linear_523_67766" x1="45.7679" y1="54.9535" x2="45.7679" y2="63.8669" gradientUnits="userSpaceOnUse">
<stop stop-color="#245795"/>
<stop offset="1" stop-color="#8AD3A8"/>
</linearGradient>
<linearGradient id="paint34_linear_523_67766" x1="52.5292" y1="80.8415" x2="58.8953" y2="56.0274" gradientUnits="userSpaceOnUse">
<stop stop-color="#D4F2E4"/>
<stop offset="1" stop-color="#71D5A4"/>
</linearGradient>
<linearGradient id="paint35_linear_523_67766" x1="95.9429" y1="1.61566" x2="110.313" y2="29.5267" gradientUnits="userSpaceOnUse">
<stop stop-color="#8AD3A8" stop-opacity="0"/>
<stop offset="0.985172" stop-color="#245795"/>
</linearGradient>
<linearGradient id="paint36_linear_523_67766" x1="109.73" y1="55.0592" x2="97.4039" y2="83.9308" gradientUnits="userSpaceOnUse">
<stop stop-color="#8AD3A8" stop-opacity="0"/>
<stop offset="0.985172" stop-color="#245795"/>
</linearGradient>
<linearGradient id="paint37_linear_523_67766" x1="76.2543" y1="-14.3734" x2="100.229" y2="5.89297" gradientUnits="userSpaceOnUse">
<stop stop-color="#8AD3A8" stop-opacity="0"/>
<stop offset="0.985172" stop-color="#245795"/>
</linearGradient>
</defs>
</svg>
