<svg viewBox="0 0 28 33" fill="none" xmlns="http://www.w3.org/2000/svg"><path d="M23.153 17.451a7.423 7.423 0 013.535-6.228 7.598 7.598 0 00-5.986-3.237c-2.52-.264-4.961 1.508-6.245 1.508-1.308 0-3.285-1.481-5.413-1.438a7.973 7.973 0 00-6.709 4.092c-2.9 5.023-.737 12.404 2.042 16.464 1.39 1.988 3.015 4.209 5.141 4.13 2.08-.086 2.858-1.326 5.37-1.326 2.487 0 3.217 1.326 5.386 1.276 2.232-.036 3.64-1.997 4.98-4.004a16.443 16.443 0 002.278-4.638 7.173 7.173 0 01-4.379-6.599zM19.056 5.316A7.309 7.309 0 0020.728.081a7.436 7.436 0 00-4.812 2.489 6.955 6.955 0 00-1.715 5.042 6.149 6.149 0 004.855-2.296z" fill="#fff"/></svg>