<svg width="8" height="8" fill="none" xmlns="http://www.w3.org/2000/svg"><path d="M6.885 4.528c-.148 1.319-.222 1.978-.623 2.316-.127.107-.274.19-.432.242-.498.165-1.099-.117-2.3-.68l-.907-.425C1.008 5.224.2 4.845.043 4.247a1.32 1.32 0 01-.021-.574C.133 3.065.91 2.63 2.464 1.76l1.018-.57C5.036.32 5.812-.114 6.39.11c.18.07.343.178.477.318.429.447.33 1.333.13 3.106l-.112.995z" fill="url(#paint0_linear)"/><defs><linearGradient id="paint0_linear" x1="6.493" y1="8.552" x2="3.982" y2="1.462" gradientUnits="userSpaceOnUse"><stop stop-color="#E75AA3"/><stop offset="1" stop-color="#B848C2"/></linearGradient></defs></svg>