<svg width="17" height="16" fill="none" xmlns="http://www.w3.org/2000/svg"><path d="M12.04 4.64l3.615.52c1.025.148 1.435 1.404.695 2.126l-2.613 2.547c-.294.287-.428.7-.358 1.104l.622 3.59c.176 1.019-.894 1.797-1.812 1.317l-3.235-1.692c-.364-.19-.799-.19-1.163.002l-3.23 1.7c-.917.481-1.99-.294-1.815-1.313l.613-3.592a1.245 1.245 0 00-.361-1.104L.38 7.305c-.743-.72-.335-1.978.69-2.127l3.614-.529c.407-.06.758-.315.94-.683L7.236.696C7.694-.23 9.018-.233 9.477.694l1.62 3.266c.183.367.535.622.942.68z" fill="url(#paint0_linear)"/><defs><linearGradient id="paint0_linear" x1="16.727" y1="0" x2="-1.342" y2="1.695" gradientUnits="userSpaceOnUse"><stop stop-color="#E75AA3"/><stop offset="1" stop-color="#B848C2"/></linearGradient></defs></svg>