<svg width="17" height="16" fill="none" xmlns="http://www.w3.org/2000/svg"><path opacity=".2" d="M16.158 7.71c.437-.437.655-1.165.437-1.746-.218-.655-.728-1.091-1.382-1.164l-3.346-.51a.491.491 0 01-.436-.29L9.904.945C9.613.364 8.958 0 8.304 0c-.655 0-1.237.364-1.527.945L5.322 4c-.146.145-.291.29-.51.364L1.468 4.8C.813 4.945.304 5.382.086 5.964c-.219.654 0 1.309.436 1.745l2.4 2.327c.145.146.218.364.145.51l-.581 3.345c-.146.655.145 1.309.654 1.673.436.29.8.436 1.091.436.291 0 .582-.073.8-.218l2.982-1.6c.145-.073.364-.073.582 0l2.981 1.6c.582.29 1.31.29 1.819-.146.509-.363.8-1.018.654-1.672l-.582-3.346c0-.218 0-.364.146-.509l2.545-2.4zm-3.2 1.6c-.436.363-.582.944-.509 1.526l.582 3.346c.073.218-.073.436-.218.582-.218.145-.437.145-.655.072l-2.981-1.6c-.51-.29-1.091-.29-1.6 0l-2.982 1.6c-.218.073-.437.073-.655-.072-.218-.146-.29-.364-.29-.582l.581-3.346c.073-.582-.073-1.163-.509-1.527l-2.4-2.327c-.145-.218-.218-.437-.145-.655.072-.218.218-.363.509-.436l3.345-.51c.582-.072 1.018-.436 1.31-.945l1.454-2.981a.547.547 0 01.509-.364c.218 0 .436.145.509.364l1.527 3.054c.218.51.727.873 1.31.946l3.345.509c.218 0 .436.218.509.436a.566.566 0 01-.146.582l-2.4 2.327z" fill="#302F61"/><path opacity=".04" d="M8.304 1.09a.547.547 0 00-.51.364L6.268 4.51c-.218.51-.727.873-1.309.945l-3.345.51c-.218 0-.437.218-.51.436 0 .145.073.364.219.582l2.4 2.327c.436.364.582.946.509 1.527l-.582 3.346c-.073.218.073.436.218.582.219.145.437.145.655.072l2.982-1.6c.509-.29 1.09-.29 1.6 0l2.982 1.6c.218.073.436.073.654-.072.218-.146.291-.364.218-.582l-.582-3.346c-.072-.582.073-1.163.51-1.527l2.4-2.4c.145-.145.218-.364.145-.582-.073-.218-.218-.363-.51-.436l-3.272-.437c-.582-.072-1.018-.436-1.309-.945L8.886 1.454c-.146-.218-.291-.363-.582-.363z" fill="#302F61"/></svg>