<svg width="310" height="124" fill="none" xmlns="http://www.w3.org/2000/svg"><g filter="url(#filter0_dd)"><path d="M88.82 83.108H78.8l.24-30.084h-.18L67.82 83.108h-7.2L49.88 53.024h-.18l.24 30.084h-9.66V40.595h14.58l9.66 27.26h.24L74 40.596h14.82v42.513z" fill="url(#paint0_linear)"/><path d="M88.82 83.108H78.8l.24-30.084h-.18L67.82 83.108h-7.2L49.88 53.024h-.18l.24 30.084h-9.66V40.595h14.58l9.66 27.26h.24L74 40.596h14.82v42.513z" fill="#fff"/><path d="M137.784 83.108h-11.4l-3.3-8.347h-16.44l-3.12 8.347h-11.16l17.82-42.513h9.96l17.64 42.513zm-17.52-16.573l-5.28-14.591-5.4 14.59h10.68z" fill="url(#paint1_linear)"/><path d="M137.784 83.108h-11.4l-3.3-8.347h-16.44l-3.12 8.347h-11.16l17.82-42.513h9.96l17.64 42.513zm-17.52-16.573l-5.28-14.591-5.4 14.59h10.68z" fill="#fff"/><path d="M167.901 49.361h-12v33.747h-10.26V49.36h-12v-8.766h34.26v8.766z" fill="url(#paint2_linear)"/><path d="M167.901 49.361h-12v33.747h-10.26V49.36h-12v-8.766h34.26v8.766z" fill="#fff"/><path d="M207.324 83.108h-12l-9.18-16.873h-3.48v16.873h-10.08V40.595h16.2c2.16 0 4.16.22 6 .66 1.84.44 3.56 1.141 5.16 2.102 1.6.96 2.84 2.302 3.72 4.023.92 1.721 1.38 3.743 1.38 6.065 0 2.802-.78 5.204-2.34 7.205-1.56 2.002-3.72 3.423-6.48 4.264l11.1 18.194zm-12.42-29.483c0-3.163-2.28-4.744-6.84-4.744h-5.46v9.908h4.86c4.96 0 7.44-1.721 7.44-5.164z" fill="url(#paint3_linear)"/><path d="M207.324 83.108h-12l-9.18-16.873h-3.48v16.873h-10.08V40.595h16.2c2.16 0 4.16.22 6 .66 1.84.44 3.56 1.141 5.16 2.102 1.6.96 2.84 2.302 3.72 4.023.92 1.721 1.38 3.743 1.38 6.065 0 2.802-.78 5.204-2.34 7.205-1.56 2.002-3.72 3.423-6.48 4.264l11.1 18.194zm-12.42-29.483c0-3.163-2.28-4.744-6.84-4.744h-5.46v9.908h4.86c4.96 0 7.44-1.721 7.44-5.164z" fill="#fff"/><path d="M222.69 83.108h-10.32V40.595h10.32v42.513z" fill="url(#paint4_linear)"/><path d="M222.69 83.108h-10.32V40.595h10.32v42.513z" fill="#fff"/><path d="M269.751 83.108h-12.66l-9.3-15.012-8.94 15.012h-12.24l14.88-22.458-13.68-20.055h12.36l7.92 13.21 7.8-13.21h11.94l-13.44 20.055 15.36 22.458z" fill="url(#paint5_linear)"/><path d="M269.751 83.108h-12.66l-9.3-15.012-8.94 15.012h-12.24l14.88-22.458-13.68-20.055h12.36l7.92 13.21 7.8-13.21h11.94l-13.44 20.055 15.36 22.458z" fill="#fff"/></g><defs><linearGradient id="paint0_linear" x1="152.9" y1="40.305" x2="152.89" y2="83.11" gradientUnits="userSpaceOnUse"><stop stop-color="#E75AA3"/><stop offset="1" stop-color="#D857BC" stop-opacity=".65"/></linearGradient><linearGradient id="paint1_linear" x1="152.9" y1="40.305" x2="152.89" y2="83.11" gradientUnits="userSpaceOnUse"><stop stop-color="#E75AA3"/><stop offset="1" stop-color="#D857BC" stop-opacity=".65"/></linearGradient><linearGradient id="paint2_linear" x1="152.9" y1="40.305" x2="152.89" y2="83.11" gradientUnits="userSpaceOnUse"><stop stop-color="#E75AA3"/><stop offset="1" stop-color="#D857BC" stop-opacity=".65"/></linearGradient><linearGradient id="paint3_linear" x1="152.9" y1="40.305" x2="152.89" y2="83.11" gradientUnits="userSpaceOnUse"><stop stop-color="#E75AA3"/><stop offset="1" stop-color="#D857BC" stop-opacity=".65"/></linearGradient><linearGradient id="paint4_linear" x1="152.9" y1="40.305" x2="152.89" y2="83.11" gradientUnits="userSpaceOnUse"><stop stop-color="#E75AA3"/><stop offset="1" stop-color="#D857BC" stop-opacity=".65"/></linearGradient><linearGradient id="paint5_linear" x1="152.9" y1="40.305" x2="152.89" y2="83.11" gradientUnits="userSpaceOnUse"><stop stop-color="#E75AA3"/><stop offset="1" stop-color="#D857BC" stop-opacity=".65"/></linearGradient><filter id="filter0_dd" x=".28" y=".595" width="309.471" height="122.513" filterUnits="userSpaceOnUse" color-interpolation-filters="sRGB"><feFlood flood-opacity="0" result="BackgroundImageFix"/><feColorMatrix in="SourceAlpha" values="0 0 0 0 0 0 0 0 0 0 0 0 0 0 0 0 0 0 127 0"/><feOffset/><feGaussianBlur stdDeviation="20"/><feColorMatrix values="0 0 0 0 0.47451 0 0 0 0 0.380392 0 0 0 0 1 0 0 0 0.17 0"/><feBlend in2="BackgroundImageFix" result="effect1_dropShadow"/><feColorMatrix in="SourceAlpha" values="0 0 0 0 0 0 0 0 0 0 0 0 0 0 0 0 0 0 127 0"/><feOffset dy="2"/><feGaussianBlur stdDeviation="5"/><feColorMatrix values="0 0 0 0 0.300193 0 0 0 0 0.0909027 0 0 0 0 0.641667 0 0 0 0.13 0"/><feBlend in2="effect1_dropShadow" result="effect2_dropShadow"/><feBlend in="SourceGraphic" in2="effect2_dropShadow" result="shape"/></filter></defs></svg>