<svg viewBox="0 0 40 35" fill="none" xmlns="http://www.w3.org/2000/svg"><path d="M39.188 34.9h-8.177l.2-24.73-8.974 24.73h-5.784L7.678 10.171l.2 24.73H0V0h11.766l7.978 22.336L27.222 0h11.966v34.9z" fill="url(#paint0_linear)"/><path d="M7.684 0v10.17l7.777 21.938 3.886-10.888L11.772 0H7.684z" fill="url(#paint1_linear)"/><path d="M22.235 34.9l-2.493-12.564 5.551-16.578 5.697 4.997L22.235 34.9z" fill="url(#paint2_linear)"/><path d="M35.798 0L31.21 10.17l-.1 18.249h8.077V0h-3.39z" fill="url(#paint3_linear)"/><defs><linearGradient id="paint0_linear" x1="19.761" y1="-.248" x2="19.754" y2="34.892" gradientUnits="userSpaceOnUse"><stop stop-color="#E75AA3"/><stop offset="1" stop-color="#B848C2"/></linearGradient><linearGradient id="paint1_linear" x1="4.694" y1="3.171" x2="20.128" y2="25.446" gradientUnits="userSpaceOnUse"><stop offset=".077" stop-opacity=".2"/><stop offset=".949" stop-opacity="0"/></linearGradient><linearGradient id="paint2_linear" x1="20.359" y1="25.75" x2="28.241" y2="13.126" gradientUnits="userSpaceOnUse"><stop offset=".077" stop-opacity=".2"/><stop offset=".949" stop-opacity="0"/></linearGradient><linearGradient id="paint3_linear" x1="30.513" y1="1.061" x2="39.53" y2="26.553" gradientUnits="userSpaceOnUse"><stop offset=".187" stop-opacity=".2"/><stop offset=".949" stop-opacity="0"/></linearGradient></defs></svg>