<svg xmlns="http://www.w3.org/2000/svg" viewBox="0 0 86.7 16.3"><g opacity=".5"><linearGradient id="a" gradientUnits="userSpaceOnUse" x1="9.29" y1="17.704" x2="9.287" y2="1.595" gradientTransform="matrix(1 0 0 -1 0 17.712)"><stop offset="0" stop-color="#e75aa3"/><stop offset="1" stop-color="#b848c2"/></linearGradient><path d="M18.4 16.1h-3.8l.1-11.3h-.1l-4.2 11.3H7.8l-4-11.3h-.1l.1 11.3H.1V.1h5.5l3.6 10.3h.1L12.8.1h5.6v16z" fill="url(#a)"/><linearGradient id="b" gradientUnits="userSpaceOnUse" x1="28.322" y1="17.7" x2="28.318" y2="1.59" gradientTransform="matrix(1 0 0 -1 0 17.712)"><stop offset="0" stop-color="#e75aa3"/><stop offset="1" stop-color="#b848c2"/></linearGradient><path d="M36.9 16.1h-4.3L31.3 13h-6.2L24 16.1h-4.2l6.7-16h3.8l6.6 16zm-6.6-6.2l-2-5.5-2 5.5h4z" fill="url(#b)"/><linearGradient id="c" gradientUnits="userSpaceOnUse" x1="41.764" y1="17.697" x2="41.76" y2="1.587" gradientTransform="matrix(1 0 0 -1 0 17.712)"><stop offset="0" stop-color="#e75aa3"/><stop offset="1" stop-color="#b848c2"/></linearGradient><path d="M48.2 3.4h-4.5v12.7h-3.9V3.4h-4.5V.1h12.9v3.3z" fill="url(#c)"/><linearGradient id="d" gradientUnits="userSpaceOnUse" x1="56.523" y1="17.694" x2="56.52" y2="1.584" gradientTransform="matrix(1 0 0 -1 0 17.712)"><stop offset="0" stop-color="#e75aa3"/><stop offset="1" stop-color="#b848c2"/></linearGradient><path d="M63.1 16.1h-4.5l-3.5-6.4h-1.3v6.4H50V.1h6.1c.8 0 1.6.1 2.3.2.7.2 1.3.4 1.9.8.6.4 1.1.9 1.4 1.5.3.7.5 1.5.5 2.4 0 1.1-.3 2-.9 2.7-.6.8-1.4 1.3-2.4 1.6l4.2 6.8zM58.4 5c0-1.2-.9-1.8-2.6-1.8h-2.1V7h1.8c2 0 2.9-.7 2.9-2z" fill="url(#d)"/><linearGradient id="e" gradientUnits="userSpaceOnUse" x1="66.909" y1="17.692" x2="66.906" y2="1.582" gradientTransform="matrix(1 0 0 -1 0 17.712)"><stop offset="0" stop-color="#e75aa3"/><stop offset="1" stop-color="#b848c2"/></linearGradient><path d="M68.9 16.1H65V.1h3.9v16z" fill="url(#e)"/><linearGradient id="f" gradientUnits="userSpaceOnUse" x1="78.456" y1="17.689" x2="78.453" y2="1.579" gradientTransform="matrix(1 0 0 -1 0 17.712)"><stop offset="0" stop-color="#e75aa3"/><stop offset="1" stop-color="#b848c2"/></linearGradient><path d="M86.6 16.1h-4.8l-3.5-5.6-3.4 5.6h-4.6l5.6-8.5L70.7.1h4.7l3 5 2.9-5h4.5l-5.1 7.5 5.9 8.5z" fill="url(#f)"/></g></svg>