<svg width="24" height="24" viewBox="0 0 24 24" fill="none" version="1.1" id="svg134" sodipodi:docname="chevron-down.svg" inkscape:version="1.2 (dc2aeda, 2022-05-15)" xmlns:inkscape="http://www.inkscape.org/namespaces/inkscape" xmlns:sodipodi="http://sodipodi.sourceforge.net/DTD/sodipodi-0.dtd" xmlns="http://www.w3.org/2000/svg" xmlns:svg="http://www.w3.org/2000/svg"><path d="M5.780 8.036 C 5.498 8.109,5.240 8.322,5.097 8.600 C 4.994 8.802,5.000 9.212,5.110 9.420 C 5.161 9.516,6.449 10.832,8.347 12.727 C 11.493 15.867,11.501 15.875,11.733 15.941 C 11.990 16.014,12.159 15.999,12.420 15.881 C 12.532 15.830,13.515 14.872,15.727 12.654 C 18.858 9.516,18.875 9.499,18.940 9.269 C 19.074 8.802,18.868 8.344,18.420 8.109 C 18.212 8.001,17.801 7.994,17.600 8.096 C 17.523 8.136,16.232 9.394,14.730 10.894 L 12.000 13.620 9.270 10.894 C 7.768 9.394,6.484 8.140,6.416 8.106 C 6.263 8.030,5.940 7.994,5.780 8.036 " stroke="none" fill-rule="evenodd" fill="#007bff"></path></svg>