<svg width="24" height="24" viewBox="0 0 24 24" fill="none" xmlns="http://www.w3.org/2000/svg"><path d="M5.600 4.044 C 4.678 4.133,3.742 4.598,3.100 5.285 C 2.488 5.940,2.128 6.751,2.041 7.672 C 1.986 8.243,1.986 15.757,2.041 16.328 C 2.227 18.292,3.708 19.773,5.672 19.959 C 6.252 20.014,17.748 20.014,18.328 19.959 C 20.292 19.773,21.773 18.292,21.959 16.328 C 22.014 15.757,22.014 8.243,21.959 7.672 C 21.773 5.708,20.292 4.227,18.328 4.041 C 17.811 3.992,6.108 3.995,5.600 4.044 M18.609 6.079 C 19.233 6.272,19.728 6.768,19.921 7.394 C 19.986 7.604,20.000 7.765,20.000 8.324 L 20.000 9.000 12.000 9.000 L 4.000 9.000 4.000 8.324 C 4.000 7.763,4.013 7.605,4.079 7.391 C 4.272 6.769,4.761 6.279,5.392 6.077 C 5.609 6.008,5.939 6.004,11.986 6.002 C 18.226 6.000,18.357 6.002,18.609 6.079 M20.000 13.676 C 20.000 16.232,19.996 16.363,19.921 16.609 C 19.728 17.233,19.232 17.728,18.606 17.921 C 18.358 17.998,18.200 18.000,12.000 18.000 C 5.800 18.000,5.642 17.998,5.394 17.921 C 4.768 17.728,4.272 17.233,4.079 16.609 C 4.004 16.363,4.000 16.232,4.000 13.676 L 4.000 11.000 12.000 11.000 L 20.000 11.000 20.000 13.676 M6.803 14.045 C 6.498 14.102,6.195 14.359,6.079 14.660 C 6.054 14.726,6.033 14.883,6.033 15.009 C 6.031 15.550,6.453 15.968,7.000 15.968 C 7.559 15.968,7.977 15.554,7.977 15.000 C 7.977 14.375,7.428 13.928,6.803 14.045 M10.800 14.042 C 10.701 14.063,10.549 14.129,10.461 14.191 C 9.728 14.706,9.972 15.801,10.857 15.963 C 11.002 15.990,11.505 16.001,12.157 15.993 C 13.174 15.981,13.228 15.976,13.408 15.887 C 13.763 15.712,13.968 15.388,13.968 15.000 C 13.968 14.612,13.763 14.288,13.408 14.113 C 13.226 14.023,13.183 14.020,12.100 14.013 C 11.484 14.009,10.899 14.022,10.800 14.042 " stroke="none" fill-rule="evenodd" fill="black"></path></svg>