<svg width="40" height="40" viewBox="0 0 40 40" fill="none" xmlns="http://www.w3.org/2000/svg"><path d="M12.133 3.376 C 8.142 3.792,4.851 6.488,3.740 10.252 C 3.322 11.668,3.326 11.549,3.350 20.333 C 3.372 28.284,3.372 28.301,3.520 28.947 C 3.950 30.825,4.746 32.318,6.032 33.655 C 7.455 35.136,9.061 36.034,11.087 36.483 L 11.767 36.633 20.000 36.633 L 28.233 36.633 28.913 36.483 C 30.848 36.054,32.439 35.194,33.804 33.838 C 35.171 32.481,36.051 30.861,36.483 28.913 L 36.633 28.233 36.633 20.000 L 36.633 11.767 36.483 11.087 C 36.173 9.688,35.563 8.326,34.770 7.264 C 34.244 6.560,33.123 5.474,32.476 5.042 C 31.347 4.290,30.212 3.808,28.873 3.515 C 28.245 3.378,28.093 3.375,20.300 3.364 C 15.937 3.357,12.262 3.363,12.133 3.376 M28.833 6.852 C 30.990 7.459,32.580 9.061,33.149 11.200 L 33.300 11.767 33.300 20.000 C 33.300 27.631,33.291 28.267,33.183 28.689 C 32.627 30.854,31.113 32.442,28.967 33.113 L 28.367 33.300 20.000 33.300 L 11.633 33.300 11.037 33.113 C 8.931 32.453,7.394 30.870,6.849 28.800 L 6.700 28.233 6.700 20.000 C 6.700 10.866,6.672 11.486,7.141 10.359 C 7.937 8.447,9.735 7.041,11.769 6.740 C 11.988 6.707,15.797 6.686,20.233 6.691 L 28.300 6.702 28.833 6.852 M28.047 9.296 C 26.610 9.809,26.211 11.619,27.296 12.704 C 28.123 13.532,29.397 13.537,30.218 12.715 C 31.228 11.705,30.930 10.003,29.636 9.391 C 29.309 9.236,29.145 9.201,28.767 9.203 C 28.510 9.205,28.186 9.247,28.047 9.296 M18.940 11.741 C 17.302 11.931,15.530 12.773,14.289 13.952 C 13.067 15.113,12.308 16.427,11.885 18.115 C 11.723 18.759,11.704 18.954,11.704 20.000 C 11.704 21.046,11.723 21.241,11.885 21.885 C 12.281 23.466,12.932 24.651,14.027 25.788 C 15.145 26.949,16.467 27.702,18.115 28.115 C 18.759 28.277,18.954 28.296,20.000 28.296 C 21.046 28.296,21.241 28.277,21.885 28.115 C 23.533 27.702,24.855 26.949,25.973 25.788 C 27.068 24.651,27.719 23.466,28.115 21.885 C 28.277 21.241,28.296 21.046,28.296 20.000 C 28.296 18.954,28.277 18.759,28.115 18.115 C 27.055 13.892,23.241 11.242,18.940 11.741 M21.261 15.161 C 21.459 15.216,21.864 15.377,22.161 15.520 C 24.001 16.404,25.122 18.322,24.975 20.333 C 24.725 23.756,21.249 25.912,18.085 24.608 C 16.927 24.130,16.050 23.280,15.496 22.100 C 15.114 21.285,15.033 20.911,15.035 19.967 C 15.037 19.037,15.169 18.511,15.620 17.633 C 16.129 16.644,17.236 15.694,18.346 15.293 C 19.176 14.994,20.440 14.937,21.261 15.161 " fill="#007BFF" stroke="none" fill-rule="evenodd"></path></svg>