<svg width="24" height="24" viewBox="0 0 24 24" fill="none" xmlns="http://www.w3.org/2000/svg"><path d="M9.989 2.282 C 9.762 2.338,9.629 2.418,9.469 2.595 C 9.213 2.879,9.219 2.770,9.272 6.133 C 9.298 7.806,9.311 9.183,9.300 9.193 C 9.264 9.230,8.120 8.906,8.067 8.844 C 8.037 8.809,7.753 8.330,7.437 7.780 C 6.863 6.782,6.681 6.524,6.479 6.420 C 6.421 6.389,5.656 6.173,4.779 5.938 C 3.468 5.587,3.153 5.516,3.009 5.535 C 2.506 5.604,2.144 6.010,2.149 6.500 C 2.152 6.824,3.492 13.348,3.598 13.557 C 3.700 13.755,3.928 13.943,4.159 14.018 C 4.371 14.087,18.077 17.760,18.640 17.899 C 19.138 18.022,19.511 18.052,19.880 18.001 C 20.690 17.887,21.375 17.493,21.860 16.860 C 22.245 16.359,22.428 15.858,22.468 15.199 C 22.522 14.297,22.198 13.505,21.510 12.858 C 20.945 12.326,20.896 12.310,16.343 11.108 C 16.084 11.040,15.976 10.992,15.954 10.937 C 15.936 10.895,15.497 9.240,14.977 7.260 C 14.457 5.280,14.007 3.612,13.977 3.554 C 13.907 3.418,13.701 3.213,13.565 3.143 C 13.434 3.075,10.522 2.292,10.300 2.264 C 10.212 2.253,10.072 2.261,9.989 2.282 M11.838 4.693 L 12.297 4.820 13.261 8.480 C 13.792 10.493,14.239 12.179,14.255 12.227 C 14.296 12.353,14.585 12.638,14.733 12.700 C 14.803 12.729,15.913 13.034,17.200 13.378 C 19.928 14.108,19.890 14.096,20.106 14.249 C 20.490 14.523,20.613 15.068,20.388 15.508 C 20.215 15.844,19.892 16.040,19.511 16.040 C 19.357 16.040,17.417 15.536,12.499 14.219 C 8.760 13.218,5.610 12.372,5.500 12.341 L 5.300 12.283 4.853 10.091 C 4.608 8.886,4.410 7.897,4.414 7.893 C 4.418 7.889,4.633 7.941,4.891 8.009 L 5.360 8.133 5.967 9.186 C 6.631 10.338,6.734 10.485,6.957 10.599 C 7.207 10.726,10.113 11.489,10.343 11.488 C 10.785 11.485,11.156 11.192,11.284 10.746 C 11.313 10.645,11.281 7.694,11.225 5.290 C 11.205 4.432,11.137 4.498,11.838 4.693 M2.813 20.042 C 2.579 20.088,2.436 20.170,2.272 20.352 C 1.918 20.744,1.946 21.353,2.335 21.712 C 2.651 22.002,1.848 21.980,12.000 21.980 C 22.105 21.980,21.346 22.000,21.652 21.725 C 21.861 21.537,21.968 21.293,21.968 21.003 C 21.968 20.603,21.761 20.275,21.400 20.105 L 21.220 20.020 12.100 20.014 C 7.084 20.011,2.905 20.023,2.813 20.042 " stroke="none" fill-rule="evenodd" fill="black"></path></svg>