<svg width="24" height="24" viewBox="0 0 24 24" fill="none" xmlns="http://www.w3.org/2000/svg"><path d="M6.632 2.041 C 5.403 2.188,4.375 3.109,4.091 4.318 C 4.024 4.602,4.020 5.115,4.020 12.900 C 4.020 22.006,4.001 21.348,4.272 21.648 C 4.437 21.831,4.561 21.902,4.815 21.959 C 5.182 22.041,5.297 21.986,6.646 21.089 L 7.883 20.266 8.692 21.068 C 9.555 21.925,9.619 21.969,10.000 21.969 C 10.377 21.969,10.449 21.921,11.250 21.126 L 12.000 20.383 12.750 21.126 C 13.551 21.921,13.623 21.969,14.000 21.969 C 14.381 21.969,14.445 21.925,15.308 21.068 L 16.117 20.266 17.338 21.078 C 18.669 21.965,18.800 22.028,19.163 21.959 C 19.425 21.910,19.557 21.837,19.728 21.648 C 19.999 21.348,19.980 22.006,19.980 12.900 C 19.980 5.115,19.976 4.602,19.909 4.318 C 19.661 3.262,18.836 2.411,17.766 2.108 L 17.460 2.021 12.180 2.015 C 9.276 2.012,6.780 2.023,6.632 2.041 M17.420 4.075 C 17.605 4.159,17.863 4.429,17.944 4.623 C 17.991 4.737,18.000 5.867,18.000 11.939 C 18.000 15.888,17.991 19.120,17.981 19.120 C 17.970 19.120,17.612 18.888,17.185 18.604 C 16.328 18.035,16.156 17.965,15.814 18.041 C 15.713 18.064,15.592 18.102,15.545 18.126 C 15.498 18.149,15.132 18.495,14.730 18.893 L 14.001 19.618 13.250 18.874 C 12.449 18.079,12.377 18.031,12.000 18.031 C 11.623 18.031,11.551 18.079,10.750 18.874 L 9.999 19.618 9.270 18.893 C 8.868 18.495,8.502 18.149,8.455 18.126 C 8.408 18.102,8.287 18.064,8.186 18.041 C 7.844 17.965,7.672 18.035,6.815 18.604 C 6.388 18.888,6.030 19.120,6.019 19.120 C 6.009 19.120,6.000 15.888,6.000 11.939 C 6.000 3.960,5.977 4.614,6.272 4.305 C 6.353 4.220,6.492 4.117,6.580 4.076 C 6.733 4.005,6.957 4.002,12.000 4.002 C 17.003 4.002,17.268 4.005,17.420 4.075 M9.249 7.044 C 8.643 7.146,8.144 7.653,8.046 8.266 C 7.888 9.255,8.745 10.112,9.734 9.954 C 10.915 9.766,11.387 8.305,10.541 7.459 C 10.276 7.194,10.025 7.082,9.560 7.022 C 9.505 7.014,9.365 7.025,9.249 7.044 M14.813 7.043 C 14.721 7.061,14.595 7.102,14.533 7.135 C 14.471 7.168,13.004 8.613,11.274 10.347 C 7.878 13.751,8.028 13.582,8.031 14.020 C 8.036 14.561,8.452 14.968,9.000 14.968 C 9.145 14.968,9.295 14.938,9.405 14.888 C 9.537 14.828,10.360 14.027,12.726 11.654 C 16.125 8.246,15.972 8.419,15.969 7.977 C 15.963 7.374,15.414 6.930,14.813 7.043 M9.761 8.061 C 10.078 8.224,10.078 8.776,9.761 8.939 C 9.611 9.017,9.389 9.017,9.239 8.939 C 8.927 8.778,8.922 8.230,9.231 8.063 C 9.373 7.985,9.614 7.984,9.761 8.061 M14.249 12.044 C 13.643 12.146,13.144 12.653,13.046 13.266 C 12.888 14.255,13.745 15.112,14.734 14.954 C 15.915 14.766,16.387 13.305,15.541 12.459 C 15.276 12.194,15.025 12.082,14.560 12.022 C 14.505 12.014,14.365 12.025,14.249 12.044 M14.761 13.061 C 14.826 13.094,14.906 13.174,14.939 13.239 C 15.068 13.488,14.982 13.825,14.761 13.939 C 14.512 14.068,14.175 13.982,14.061 13.761 C 13.934 13.517,14.017 13.179,14.231 13.063 C 14.373 12.985,14.614 12.984,14.761 13.061 " stroke="none" fill-rule="evenodd" fill="black"></path></svg>