<svg width="24" height="24" viewBox="0 0 24 24" fill="none" xmlns="http://www.w3.org/2000/svg"><path d="M5.140 2.046 C 4.165 2.170,3.122 2.666,2.391 3.353 C 1.660 4.040,1.196 4.833,0.933 5.848 L 0.826 6.260 0.810 8.125 L 0.794 9.990 1.018 10.018 C 1.321 10.056,1.751 10.278,1.959 10.503 C 2.051 10.604,2.184 10.806,2.253 10.953 L 2.380 11.220 2.380 12.402 L 2.380 13.584 2.229 13.889 C 1.984 14.385,1.589 14.681,1.047 14.774 L 0.793 14.817 0.810 16.279 C 0.827 17.703,0.830 17.751,0.933 18.152 C 1.420 20.038,2.749 21.368,4.648 21.869 L 5.060 21.978 9.610 21.990 L 14.160 22.003 14.160 18.732 L 14.160 15.462 13.050 16.566 C 11.843 17.768,11.810 17.791,11.429 17.746 C 10.960 17.691,10.668 17.259,10.769 16.769 C 10.806 16.588,10.896 16.492,12.894 14.490 L 14.979 12.400 16.991 14.410 C 19.214 16.632,19.233 16.654,19.186 17.051 C 19.124 17.577,18.575 17.901,18.089 17.698 C 17.991 17.657,17.566 17.263,16.850 16.549 L 15.760 15.462 15.760 18.734 L 15.760 22.006 17.350 21.989 C 18.636 21.974,18.992 21.958,19.213 21.905 C 20.264 21.654,21.108 21.180,21.805 20.450 C 22.336 19.895,22.701 19.295,22.937 18.593 C 23.159 17.931,23.169 17.840,23.188 16.275 L 23.207 14.810 22.983 14.782 C 22.679 14.744,22.250 14.523,22.041 14.297 C 21.949 14.196,21.816 13.994,21.747 13.847 L 21.620 13.580 21.620 12.400 L 21.620 11.220 21.747 10.953 C 21.816 10.806,21.949 10.604,22.041 10.503 C 22.249 10.278,22.679 10.056,22.982 10.018 L 23.206 9.990 23.189 8.125 C 23.170 6.120,23.169 6.101,22.938 5.407 C 22.342 3.612,20.697 2.274,18.801 2.042 C 18.587 2.015,16.938 2.000,14.311 2.000 L 10.160 2.000 10.160 5.628 L 10.160 9.257 11.230 8.193 C 11.818 7.608,12.363 7.097,12.440 7.057 C 12.658 6.943,12.980 6.957,13.208 7.091 C 13.465 7.242,13.622 7.552,13.587 7.844 C 13.574 7.955,13.527 8.103,13.483 8.173 C 13.439 8.243,12.494 9.209,11.382 10.320 L 9.360 12.340 7.379 10.360 C 6.290 9.271,5.351 8.313,5.294 8.230 C 4.817 7.546,5.553 6.696,6.299 7.067 C 6.365 7.101,6.901 7.607,7.490 8.194 L 8.560 9.259 8.560 5.630 L 8.560 2.000 6.990 2.005 C 6.127 2.008,5.294 2.026,5.140 2.046 " fill="#A613CB" stroke="none" fill-rule="evenodd"></path></svg>