<svg width="24" height="24" viewBox="0 0 24 24" fill="none" xmlns="http://www.w3.org/2000/svg"><path d="M4.485 4.045 C 4.182 4.095,3.753 4.251,3.487 4.407 C 3.195 4.578,2.578 5.195,2.407 5.487 C 2.238 5.775,2.096 6.185,2.040 6.542 C 2.012 6.720,2.001 7.444,2.008 8.541 C 2.021 10.456,2.014 10.400,2.307 10.693 C 2.499 10.885,2.667 10.958,3.011 10.997 C 3.171 11.014,3.373 11.066,3.461 11.111 C 4.176 11.478,4.176 12.522,3.461 12.889 C 3.373 12.934,3.171 12.986,3.011 13.003 C 2.667 13.042,2.499 13.115,2.307 13.307 C 2.014 13.600,2.021 13.544,2.008 15.459 C 1.996 17.282,2.013 17.535,2.179 18.012 C 2.325 18.433,2.506 18.706,2.900 19.100 C 3.412 19.611,3.866 19.852,4.520 19.957 C 4.881 20.016,19.119 20.016,19.480 19.957 C 20.134 19.852,20.588 19.611,21.100 19.100 C 21.494 18.706,21.675 18.433,21.821 18.012 C 21.987 17.535,22.004 17.282,21.992 15.459 C 21.979 13.544,21.986 13.600,21.693 13.307 C 21.501 13.115,21.333 13.042,20.989 13.003 C 20.829 12.986,20.627 12.934,20.539 12.889 C 19.824 12.522,19.824 11.478,20.539 11.111 C 20.627 11.066,20.829 11.014,20.989 10.997 C 21.333 10.958,21.501 10.885,21.693 10.693 C 21.986 10.400,21.979 10.456,21.992 8.541 C 22.004 6.718,21.987 6.465,21.821 5.988 C 21.675 5.567,21.494 5.294,21.100 4.900 C 20.588 4.389,20.134 4.148,19.480 4.043 C 19.154 3.990,4.802 3.992,4.485 4.045 M14.007 6.630 C 14.022 7.332,14.052 7.439,14.307 7.693 C 14.516 7.903,14.698 7.978,15.000 7.978 C 15.397 7.978,15.696 7.792,15.893 7.422 C 15.968 7.280,15.981 7.182,15.993 6.630 L 16.007 6.000 17.614 6.000 C 19.219 6.001,19.220 6.001,19.420 6.095 C 19.660 6.209,19.807 6.358,19.917 6.600 C 19.993 6.768,19.998 6.859,19.999 7.971 L 20.000 9.161 19.775 9.260 C 19.290 9.475,18.697 10.009,18.407 10.492 C 18.222 10.801,18.081 11.229,18.029 11.646 C 17.950 12.270,18.096 12.990,18.407 13.508 C 18.697 13.991,19.290 14.525,19.775 14.740 L 20.000 14.839 19.999 16.029 C 19.998 17.141,19.993 17.232,19.917 17.400 C 19.807 17.642,19.660 17.791,19.420 17.905 C 19.220 17.999,19.219 17.999,17.614 18.000 L 16.007 18.000 15.993 17.370 C 15.978 16.668,15.948 16.561,15.693 16.307 C 15.484 16.097,15.302 16.022,15.000 16.022 C 14.698 16.022,14.516 16.097,14.307 16.307 C 14.052 16.561,14.022 16.668,14.007 17.370 L 13.993 18.000 9.386 17.999 C 4.839 17.998,4.778 17.997,4.600 17.917 C 4.358 17.807,4.209 17.660,4.095 17.420 C 4.003 17.224,4.001 17.198,4.000 16.029 L 4.000 14.839 4.225 14.740 C 4.710 14.525,5.303 13.991,5.593 13.508 C 5.904 12.990,6.050 12.270,5.971 11.646 C 5.919 11.229,5.778 10.801,5.593 10.492 C 5.303 10.009,4.710 9.475,4.225 9.260 L 4.000 9.161 4.001 7.971 C 4.002 6.859,4.007 6.768,4.083 6.600 C 4.193 6.358,4.340 6.209,4.580 6.095 L 4.780 6.001 9.386 6.000 L 13.993 6.000 14.007 6.630 M14.722 10.045 C 14.409 10.140,14.120 10.444,14.040 10.764 C 14.011 10.880,14.000 11.340,14.008 12.100 C 14.021 13.391,14.025 13.412,14.307 13.693 C 14.516 13.903,14.698 13.978,15.000 13.978 C 15.397 13.978,15.695 13.792,15.893 13.422 C 15.977 13.266,15.980 13.216,15.980 12.000 C 15.980 10.863,15.973 10.726,15.907 10.594 C 15.815 10.407,15.591 10.184,15.413 10.099 C 15.238 10.016,14.902 9.990,14.722 10.045 " stroke="none" fill-rule="evenodd" fill="black"></path></svg>