<svg width="40" height="40" viewBox="0 0 40 40" fill="none" xmlns="http://www.w3.org/2000/svg"><path d="M20.380 3.028 C 20.011 3.162,19.636 3.441,19.434 3.732 C 19.047 4.290,19.067 3.679,19.067 15.432 C 19.067 27.345,19.093 26.592,18.657 27.278 C 18.071 28.201,16.927 28.734,15.930 28.549 C 14.267 28.239,13.281 26.718,13.701 25.108 C 13.833 24.601,14.064 24.216,14.459 23.847 C 14.858 23.474,15.173 23.310,15.835 23.133 C 16.118 23.057,16.438 22.949,16.545 22.894 C 16.848 22.737,17.265 22.286,17.423 21.943 C 17.563 21.642,17.567 21.558,17.567 18.833 C 17.567 16.120,17.562 16.024,17.425 15.727 C 17.245 15.337,16.863 14.955,16.473 14.775 C 15.650 14.394,13.323 14.825,11.493 15.697 C 8.146 17.292,5.899 20.285,5.227 24.047 C 5.086 24.838,5.066 26.644,5.191 27.433 C 5.861 31.688,8.678 35.077,12.698 36.463 C 14.004 36.914,14.751 37.032,16.300 37.033 C 17.865 37.033,18.498 36.938,19.833 36.502 C 23.418 35.329,26.090 32.551,27.145 28.900 C 27.556 27.479,27.557 27.472,27.583 22.250 C 27.596 19.619,27.632 17.467,27.662 17.467 C 27.692 17.467,27.878 17.538,28.075 17.625 C 29.254 18.145,31.246 18.620,32.606 18.704 C 33.219 18.743,33.344 18.731,33.678 18.604 C 34.132 18.432,34.558 18.039,34.757 17.610 C 34.895 17.312,34.901 17.200,34.920 14.644 C 34.941 11.681,34.925 11.537,34.510 10.993 C 34.185 10.568,33.734 10.347,32.882 10.197 C 31.063 9.875,29.783 9.123,28.803 7.800 C 28.186 6.967,27.814 6.046,27.635 4.912 C 27.485 3.963,27.214 3.510,26.588 3.163 L 26.233 2.967 23.433 2.952 C 21.193 2.939,20.583 2.955,20.380 3.028 M25.259 5.850 C 25.549 7.435,26.526 9.218,27.723 10.348 C 29.014 11.565,30.265 12.200,32.217 12.629 L 32.400 12.669 32.400 14.430 L 32.400 16.192 32.150 16.156 C 30.814 15.963,29.607 15.599,28.373 15.015 C 27.613 14.655,27.538 14.633,27.067 14.635 C 26.265 14.637,25.594 15.039,25.256 15.719 L 25.100 16.033 25.062 21.567 C 25.029 26.414,25.010 27.158,24.913 27.567 C 24.711 28.411,24.525 28.958,24.232 29.567 C 23.012 32.097,20.814 33.819,18.049 34.410 C 17.084 34.617,15.581 34.616,14.613 34.410 C 10.335 33.495,7.432 29.776,7.617 25.445 C 7.756 22.178,9.645 19.345,12.627 17.929 C 13.301 17.609,14.202 17.315,14.766 17.230 L 15.067 17.185 15.067 18.948 L 15.067 20.710 14.507 20.923 C 11.006 22.253,9.952 26.667,12.488 29.379 C 13.525 30.488,14.838 31.063,16.333 31.065 C 18.472 31.067,20.405 29.762,21.200 27.778 C 21.613 26.746,21.600 27.133,21.600 15.758 L 21.600 5.400 23.388 5.400 L 25.177 5.400 25.259 5.850 " fill="#007BFF" stroke="none" fill-rule="evenodd"></path></svg>