<svg width="24" height="24" viewBox="0 0 24 24" fill="none" version="1.1" id="svg134" sodipodi:docname="user.svg" inkscape:version="1.2 (dc2aeda, 2022-05-15)" xmlns:inkscape="http://www.inkscape.org/namespaces/inkscape" xmlns:sodipodi="http://sodipodi.sourceforge.net/DTD/sodipodi-0.dtd" xmlns="http://www.w3.org/2000/svg" xmlns:svg="http://www.w3.org/2000/svg"><path d="M11.380 2.046 C 9.367 2.302,7.709 3.756,7.180 5.727 C 6.686 7.566,7.308 9.554,8.764 10.794 C 9.784 11.662,11.166 12.102,12.450 11.968 C 14.583 11.744,16.271 10.316,16.820 8.273 C 17.391 6.148,16.475 3.883,14.581 2.734 C 13.628 2.156,12.470 1.907,11.380 2.046 M12.860 4.119 C 13.827 4.422,14.584 5.184,14.887 6.160 C 15.021 6.592,15.021 7.405,14.886 7.840 C 14.583 8.822,13.825 9.581,12.840 9.887 C 12.588 9.965,12.453 9.980,12.000 9.980 C 11.547 9.980,11.412 9.965,11.160 9.887 C 10.176 9.581,9.419 8.824,9.113 7.840 C 8.978 7.406,8.978 6.594,9.113 6.160 C 9.445 5.090,10.281 4.315,11.380 4.057 C 11.734 3.974,12.500 4.006,12.860 4.119 M9.380 14.045 C 7.359 14.311,5.707 15.758,5.182 17.721 C 5.027 18.299,4.994 18.750,5.007 20.060 L 5.020 21.260 5.144 21.480 C 5.283 21.728,5.573 21.935,5.843 21.981 C 6.232 22.046,6.656 21.837,6.856 21.480 L 6.980 21.260 7.003 19.840 C 7.024 18.507,7.031 18.403,7.116 18.140 C 7.433 17.162,8.186 16.416,9.160 16.113 L 9.460 16.020 12.000 16.020 L 14.540 16.020 14.840 16.113 C 15.814 16.416,16.567 17.162,16.884 18.140 C 16.969 18.403,16.976 18.507,16.997 19.840 L 17.020 21.260 17.144 21.480 C 17.283 21.728,17.573 21.935,17.843 21.981 C 18.232 22.046,18.656 21.837,18.856 21.480 L 18.980 21.260 18.980 19.860 C 18.980 18.378,18.967 18.228,18.776 17.571 C 18.338 16.057,17.108 14.780,15.609 14.282 C 14.827 14.022,14.899 14.027,12.160 14.017 C 10.785 14.012,9.534 14.024,9.380 14.045 " stroke="none" fill-rule="evenodd" fill="#4e4b54"></path></svg>