<svg width="40" height="40" viewBox="0 0 40 40" fill="none" xmlns="http://www.w3.org/2000/svg"><path d="M14.333 7.406 C 9.985 7.543,7.525 7.804,6.422 8.245 C 4.982 8.822,3.816 10.078,3.307 11.603 C 2.815 13.077,2.517 16.249,2.518 20.000 C 2.519 23.826,2.819 26.968,3.325 28.440 C 3.804 29.834,4.755 30.931,6.033 31.564 C 7.190 32.137,8.443 32.327,12.533 32.548 C 14.691 32.665,25.329 32.665,27.467 32.548 C 30.733 32.369,32.307 32.184,33.238 31.872 C 34.823 31.340,36.033 30.168,36.629 28.586 C 37.796 25.485,37.772 14.384,36.593 11.325 C 36.069 9.968,34.906 8.786,33.553 8.236 C 32.439 7.783,30.174 7.553,25.333 7.400 C 22.957 7.325,16.790 7.328,14.333 7.406 M24.767 10.200 C 28.410 10.307,30.891 10.479,31.942 10.697 C 33.144 10.948,33.890 11.734,34.159 13.033 C 34.487 14.619,34.629 16.717,34.630 20.000 C 34.631 23.276,34.489 25.372,34.159 26.967 C 33.870 28.361,33.080 29.115,31.649 29.363 C 29.993 29.649,26.870 29.799,21.567 29.846 C 15.396 29.901,10.425 29.718,8.333 29.359 C 6.922 29.117,6.128 28.355,5.841 26.967 C 5.512 25.376,5.370 23.278,5.370 20.000 C 5.370 16.722,5.512 14.624,5.841 13.033 C 6.110 11.733,6.856 10.948,8.058 10.698 C 10.156 10.261,18.451 10.014,24.767 10.200 M16.533 20.000 C 16.533 22.860,16.546 25.200,16.561 25.200 C 16.652 25.200,25.497 20.004,25.485 19.957 C 25.473 19.910,16.626 14.800,16.556 14.800 C 16.543 14.800,16.533 17.140,16.533 20.000 " fill="#007BFF" stroke="none" fill-rule="evenodd"></path></svg>