<svg width="302" height="79" viewBox="0 0 302 79" fill="none" xmlns="http://www.w3.org/2000/svg"><path d="M39.338 35.934c0-1.422-.046-2.769-.046-3.947 0-7.5-3.598-11.25-6.617-13.075a20.179 20.179 0 0 0-10.093-2.533c-7.484 0-12.999 2.107-16.406 6.252a15.798 15.798 0 0 0-3.408 8.58 1.3 1.3 0 0 0 0 .243 4 4 0 0 0 4.04 3.628 3.727 3.727 0 0 0 4.06-3.141c.868-4.031 2.792-7.766 11.014-7.766 4.358 0 7.203.898 8.694 2.746a5.324 5.324 0 0 1 1.392 4.138c0 1.369-.518 3.042-4.564 3.932-2.624.57-5.385.89-8.055 1.194l-1.277.152C2.936 38.124.654 46.111.654 50.705c0 8.336 10.025 13.051 17.265 13.28h1.34c2.738.06 5.461-.418 8.016-1.407l.22-.092a18.604 18.604 0 0 0 10.877-11.074c1.179-3.172 1.072-9.713.966-15.478Zm-7.697 8.48c0 9.554-9.173 11.645-12.71 11.645-4.822 0-10.017-2.563-10.017-6.716 0-4.472 4.024-5.88 12.481-7.172 2.198-.335 5.78-.966 8.154-1.422.718-.15 1.42-.375 2.092-.67v4.336Zm15.014-23.357c0-1.864.928-2.8 2.799-2.8h1.955c1.863 0 2.799.936 2.799 2.381v2.54a15.859 15.859 0 0 1-.168 2.283h.168s3.65-8.238 14.45-8.238c11.547 0 18.848 9.166 18.848 22.499 0 13.69-8.237 22.49-19.44 22.49a14.695 14.695 0 0 1-13.326-7.606h-.167c.175 1.237.259 2.486.25 3.735v17.052c0 1.871-.935 2.807-2.715 2.807h-2.654c-1.871 0-2.8-.936-2.8-2.807V21.057ZM66.772 55.1c6.793 0 12.39-5.522 12.39-15.28 0-9.34-5.004-15.364-12.169-15.364-6.42-.023-12.337 4.495-12.337 15.447 0 7.644 4.222 15.197 12.116 15.197Zm28.195-34.043c0-1.864.928-2.8 2.8-2.8h1.954c1.864 0 2.799.936 2.799 2.381v2.54c0 .764-.056 1.527-.167 2.283h.167s3.651-8.238 14.451-8.238c11.546 0 18.848 9.166 18.848 22.499 0 13.69-8.23 22.49-19.441 22.49a14.693 14.693 0 0 1-13.326-7.606h-.167c.175 1.237.259 2.486.251 3.735v17.052c0 1.871-.935 2.807-2.715 2.807h-2.632c-1.87 0-2.799-.936-2.799-2.807l-.023-54.336ZM115.085 55.1c6.792 0 12.39-5.522 12.39-15.28 0-9.34-5.005-15.364-12.169-15.364-6.45 0-12.39 4.495-12.39 15.447.038 7.644 4.282 15.197 12.177 15.197h-.008Zm29.739-29.708h-2.7a2.546 2.546 0 0 1-2.806-2.806v-1.103a2.53 2.53 0 0 1 .133-1.118 2.54 2.54 0 0 1 2.673-1.68h2.716v-2.04C144.824 3.061 155.944.855 160.378.855h1.02c1.848 0 2.783 1.02 2.783 2.8v1.612c0 1.87-1.011 2.632-2.966 2.806-3.141.168-8.153.928-8.153 8.915v1.696h7.385a2.545 2.545 0 0 1 2.674 1.68c.127.359.172.74.132 1.119v1.103a2.54 2.54 0 0 1-.731 2.075 2.541 2.541 0 0 1-2.075.731h-7.385V58.41c0 1.872-.928 2.807-2.799 2.807h-2.632c-1.78 0-2.799-.935-2.799-2.807l-.008-33.017Zm42.799-8.153c12.824 0 23.175 9.423 23.175 22.414 0 12.991-10.351 22.575-23.175 22.575-12.823 0-23.084-9.508-23.084-22.582 0-13.075 10.291-22.407 23.084-22.407Zm0 37.862c8.154 0 14.771-6.45 14.771-15.448 0-8.998-6.617-15.28-14.771-15.28-8.153 0-14.77 6.366-14.77 15.273 0 8.906 6.708 15.455 14.77 15.455ZM217.947 4.08c0-1.86.936-2.793 2.807-2.799h2.631c1.78 0 2.799.936 2.799 2.8v44.395c0 4.845 2.123 5.522 3.902 5.69a2.28 2.28 0 0 1 2.101 1.55c.099.294.138.605.113.914v2.03c0 1.78-.761 2.883-2.891 2.883-4.563 0-11.462-1.27-11.462-12.055V4.08ZM239.7 21.057c0-1.864 1.019-2.8 2.799-2.8h2.632c1.871 0 2.799.936 2.799 2.8v37.352c0 1.872-.928 2.807-2.799 2.807h-2.609c-1.78 0-2.799-.935-2.799-2.807l-.023-37.352Zm38.471-3.818c12.823 0 23.175 9.423 23.175 22.414 0 12.991-10.352 22.575-23.175 22.575-12.824 0-23.092-9.508-23.092-22.582 0-13.075 10.261-22.407 23.092-22.407Zm0 37.862c8.153 0 14.77-6.45 14.77-15.448 0-8.998-6.617-15.28-14.77-15.28-8.154 0-14.771 6.366-14.771 15.273 0 8.906 6.708 15.455 14.771 15.455Z" fill="#1E2431"/></svg>