<svg xmlns="http://www.w3.org/2000/svg" viewBox="0 0 106 20" fill="#e42127"><path d="M14.033 16.822c-1.451 1.732-3.838 2.696-6.16 2.696C3.379 19.518 0 16.419 0 11.711c0-4.185 2.846-7.836 7.311-7.836 4.147 0 7.096 3.501 7.096 7.686 0 .402-.028.805-.093 1.142H3.904c.215 2.106 1.919 3.567 4.053 3.567 1.704 0 3.061-.965 3.782-1.732l2.294 2.293v-.01Zm-3.745-7.059c-.121-1.329-1.33-2.63-2.977-2.63-1.647 0-3.033 1.273-3.22 2.63h6.197ZM16.57 19.2V4.184h3.876v1.208c1.151-.927 2.574-1.517 4.24-1.517a6.77 6.77 0 0 1 5.206 2.415c.992 1.18 1.544 2.696 1.544 5.27v7.65h-4.025v-7.958c0-1.489-.337-2.266-.899-2.818-.524-.524-1.33-.833-2.265-.833-1.704 0-3.1 1.086-3.651 1.853v9.755H16.57v-.01Zm53.913 0h-3.876v-1.207c-1.236 1.048-2.658 1.516-4.175 1.516-2.228 0-4.334-.992-5.664-2.537-1.18-1.367-1.919-3.22-1.919-5.27 0-4.428 3.286-7.836 7.377-7.836 1.704 0 3.22.553 4.4 1.517V4.175H70.5V19.2h-.018Zm-4.026-9.754a4.618 4.618 0 0 0-3.716-1.854c-2.36 0-3.876 1.947-3.876 4.12 0 2.358 1.704 4.09 3.96 4.09 1.517 0 2.846-.74 3.623-1.863V9.446h.01Zm32.84 9.754h-3.875v-1.207c-1.236 1.048-2.66 1.516-4.176 1.516-2.228 0-4.334-.992-5.663-2.537-1.18-1.367-1.92-3.22-1.92-5.27 0-4.428 3.286-7.836 7.377-7.836 1.704 0 3.22.553 4.4 1.517V4.175h3.876V19.2h-.019Zm-4.025-9.754a4.618 4.618 0 0 0-3.717-1.854c-2.359 0-3.875 1.947-3.875 4.12 0 2.358 1.703 4.09 3.96 4.09 1.516 0 2.845-.74 3.622-1.863V9.446h.01ZM54.69 3.997c-.43-.066-.777-.122-1.367-.122-1.825 0-3.473.711-4.362 1.825V4.184h-3.876v15.025h4.026V9.763c.496-.898 1.89-2.171 3.65-2.171.59 0 1.17.084 1.46.159l.469.093V3.996ZM41.949 15.09h-4.035v4.12h4.035v-4.12Zm-8.069 0h4.025V7.593h4.961V4.185h-4.961V0h-4.026v15.09Zm47.658 0h-4.035v4.12h4.035v-4.12Zm-8.069 0h4.035V7.593h4.952V4.185h-4.952V0h-4.035v15.09Zm27.457-12.553A2.521 2.521 0 0 1 103.463 0 2.521 2.521 0 0 1 106 2.537a2.521 2.521 0 0 1-2.537 2.537 2.521 2.521 0 0 1-2.537-2.537Zm2.537 1.994c1.095 0 1.966-.899 1.966-1.994s-.871-1.994-1.966-1.994-1.966.899-1.966 1.994.871 1.994 1.966 1.994Zm-.346-1.797v1.095h-.59V1.236h.992c.328 0 .506.075.646.206a.77.77 0 0 1 .262.58.693.693 0 0 1-.327.6.495.495 0 0 1-.16.074l.777 1.133h-.645l-.721-1.095h-.234Zm.421-.478c.131 0 .206-.028.253-.084a.23.23 0 0 0 .046-.14.239.239 0 0 0-.046-.15c-.047-.057-.113-.094-.253-.094h-.421v.477h.421v-.009Z"/></svg>