<svg xmlns="http://www.w3.org/2000/svg" id="svg3226" version="1.1" width="429.712" height="232.714" viewBox="0 0 478.25 259"><g id="g3238" transform="scale(.25)"><path style="fill:#fdfdfd" d="M0 518V0h1913v1036H0V518z" id="path3254"/><path style="fill:#c7db5f" d="M572.5 1034.594c-12.779-3.158-21.8-11.989-24.473-23.956-1.397-6.258-.335-7.643 5.845-7.623 5.843.02 6.678.606 7.54 5.295.935 5.081 6.534 11.122 12.378 13.354 7.188 2.745 17.353 2.375 24.434-.89 6.616-3.05 9.767-7.266 9.772-13.074.01-8.751-4.21-12.022-25.515-19.779-16.06-5.847-20.173-7.834-25.012-12.082-5.4-4.742-7.469-9.584-7.469-17.483 0-11.636 5.991-19.84 17.92-24.537 7.769-3.06 24.134-3.222 31.995-.319 9.569 3.534 19.085 14.445 19.085 21.882 0 2.781-1.629 3.618-7.042 3.618-4.255 0-5.069-.63-8.283-6.412-2.766-4.974-7.964-7.682-15.964-8.318-7.952-.631-13.966 1.02-18.353 5.04-6.177 5.661-5.642 15.497 1.068 19.644 1.755 1.085 9.914 4.28 18.132 7.1 21.38 7.338 27.931 11.506 32.075 20.405 2.808 6.03 3.177 15.66.818 21.323-3.326 7.984-12.66 14.847-23.25 17.094-6.791 1.44-19.285 1.304-25.701-.282zm532.975-.462c-3.314-.95-8.1-3.154-10.635-4.898-7.548-5.193-13.467-15.984-12.65-23.06.298-2.567.55-2.674 6.31-2.674h6l1.5 4.589c2.321 7.102 4.693 9.881 10.827 12.69 6.952 3.182 18.258 3.559 24.673.822 11.825-5.046 14.713-17.158 5.835-24.476-2.169-1.788-10.187-5.434-20.215-9.192-19.758-7.406-25.922-11.033-29.698-17.476-5.296-9.036-3.892-21.577 3.236-28.917 11.361-11.698 35.266-13.945 50.342-4.732 7.302 4.463 14.68 17.463 11.848 20.876-.633.762-3.165 1.316-6.017 1.316-4.528 0-5.061-.26-6.628-3.223-4.327-8.19-10.572-11.76-20.587-11.771-14.615-.017-23.873 9.67-18.922 19.8 2.29 4.684 6.212 6.82 23.156 12.614 7.343 2.51 15.527 5.75 18.188 7.197 12.379 6.738 17.611 17.122 14.99 29.749-2.183 10.516-11.596 19.066-23.657 21.488-8.1 1.627-20.846 1.297-27.896-.722zm107.81.373c-13.684-3.343-24.48-14.903-28.957-31.005-2.312-8.319-2.8-24.826-1.01-34.236 4.88-25.66 21.778-39.538 46.278-38.01 19.683 1.228 35.087 15.157 39.307 35.545 1.844 8.908 1.38 27.778-.904 36.705-4.368 17.08-14.792 27.717-30.499 31.124-7.42 1.61-17.329 1.56-24.216-.123zm22.92-13.06c9.583-3.264 15.565-11.147 18.317-24.133 4.015-18.948-.174-37.318-10.658-46.744-12.977-11.667-34.115-7.565-42.237 8.196-3.304 6.412-4.713 13.827-4.702 24.736.022 20.738 4.971 31.192 17.575 37.126 5.988 2.82 14.853 3.154 21.705.82zM0 983.436V932.87l23.75.316 23.75.315 6.673 3.264c11.258 5.508 16.235 13.559 16.218 26.236-.02 14.675-7.851 24.811-22.745 29.44-1.02.318-1.634 1.15-1.365 1.85.268.7 6.165 9.476 13.104 19.504C66.323 1023.82 72 1032.47 72 1033.013c0 .57-3.49.987-8.256.987h-8.256l-12.53-19.75-12.532-19.75H13.5l-.271 19.75-.271 19.75H0v-50.565zm46.698-2.7c1.76-.953 4.46-3.386 6-5.406 2.5-3.277 2.802-4.491 2.802-11.251 0-8.944-2.055-12.742-8.834-16.325-3.58-1.891-6.12-2.254-18.046-2.576-10.873-.294-14.065-.082-14.735.974-1.051 1.66-1.177 35.223-.135 36.268.412.414 7.275.594 15.25.4 11.364-.276 15.192-.726 17.698-2.084zm60.543 3.015.259-50.25h62v11l-24 .5-24 .5-.275 15.75-.276 15.75 21.776.015c11.976.008 22.365.39 23.086.847.868.55 1.206 2.49 1 5.735l-.311 4.903-22.5.5-22.5.5-.275 16.25-.275 16.25h22.943c12.62 0 23.655.273 24.525.607 1.172.45 1.582 2.005 1.582 6V1034h-63.019l.26-50.25zM195 1032.923c0-1.861 33.102-97.291 34.227-98.673.649-.796 3.713-1.25 8.446-1.25h7.43l1.345 3.25c1.97 4.753 32.552 95.79 32.552 96.898 0 .526-3.148.81-7.147.646l-7.148-.294-4.102-12-4.103-12h-39l-4.103 12-4.102 12-7.148.294c-4.94.203-7.147-.066-7.147-.87zm56.413-35.783c.604-.977-12.909-42.036-14.289-43.416-.815-.816-15.124 39.89-15.124 43.027 0 .941 3.558 1.249 14.441 1.249 7.943 0 14.68-.387 14.972-.86zm57.051 35.625c-.266-.696-.367-23.315-.224-50.265l.26-49h13l.26 44.25.26 44.25h21.368c24.072 0 23.942-.04 23.423 7.176l-.311 4.324-28.775.265c-22.481.208-28.882-.012-29.26-1zm144.777-49 .259-50.265h62v11l-24.25.268-24.25.268V977h21.309c24.616 0 25.002.11 24.509 7.036l-.318 4.464-22.5.5-22.5.5-.275 16.25-.275 16.25h23.403c26.323 0 25.981-.096 25.458 7.176l-.311 4.324-31.26.264-31.259.265.26-50.265zm220.228 48.985c-.257-.688-.58-20.6-.718-44.25l-.251-43-15.458-.277c-10.83-.194-15.69-.643-16.234-1.5-1.016-1.6-1-7.872.024-9.485.627-.988 9.251-1.205 39.734-1l38.934.262v11l-16 .5-16 .5-.26 44.25-.26 44.25h-6.522c-4.3 0-6.68-.426-6.989-1.25zm57.582-.5c.029-.963 7.566-23.575 16.75-50.25l16.699-48.5h16.722l16.389 48.462c9.014 26.655 16.389 49.288 16.389 50.296 0 1.626-.764 1.8-6.75 1.538l-6.75-.296-3.752-10.9c-2.064-5.996-4.257-11.508-4.873-12.25-1.557-1.876-37.141-1.968-38.619-.1-.543.687-2.66 6.312-4.705 12.5l-3.716 11.25h-6.918c-5.94 0-6.91-.247-6.866-1.75zM787 996.221c0-2.008-12.212-38.994-13.823-41.863-1.253-2.233-.24-4.669-9.08 21.823-3.796 11.375-6.646 20.937-6.333 21.25.313.313 7.02.569 14.903.569 13.072 0 14.333-.156 14.333-1.779zm67.985-5.425c-.008-23.813-.365-43.846-.793-44.519-.544-.857-5.404-1.306-16.234-1.5L822.5 944.5v-11l39.3-.262 39.3-.261-.3 5.761-.3 5.762-15.74.275-15.74.276-.26 44.224-.26 44.225-6.75.296-6.75.295-.015-43.295zm72.256-7.032.259-50.264h62v11l-24.25.268-24.25.268V977h21.878c24.636 0 24.453-.055 23.933 7.176l-.311 4.324-22.5.5-22.5.5-.275 16.25-.275 16.25h23.403c26.323 0 25.981-.096 25.458 7.176l-.311 4.324-31.26.264-31.259.265.26-50.265zm373 .032.259-50.296h61v11l-23.75.268-23.75.268V977h43.962l.593 2.362c.326 1.298.447 3.886.269 5.75l-.324 3.388-22 .5-22 .5-.5 22-.5 22-6.76.296-6.758.296.259-50.296zm113.52 6-.261-44.296-16-.5-16-.5v-11l38.934-.262c30.483-.205 39.107.012 39.734 1 1.28 2.016.956 8.415-.487 9.612-.789.654-7.32 1.206-16.25 1.372l-14.931.278-.5 44-.5 44-6.74.295-6.74.296-.26-44.296zm89.872 33.454c-12.32-37.492-27.696-87.643-27.238-88.837.66-1.718 13.114-2.017 14.15-.339.366.59 5.68 18.276 11.81 39.3 6.13 21.025 11.532 38.43 12.005 38.677.473.247 5.966-14.556 12.206-32.896 6.241-18.34 11.872-33.977 12.513-34.75 1.797-2.166 7.668-1.782 9.155.597.687 1.102 6.204 16.74 12.258 34.75 6.054 18.012 11.42 32.748 11.923 32.748.503 0 6.668-17.25 13.698-38.335 7.031-21.085 13.312-38.972 13.958-39.75.787-.95 3.273-1.415 7.551-1.415 5.398 0 6.382.269 6.403 1.75.014.962-7.706 23.705-17.155 50.54l-17.18 48.789-7.494-.29-7.494-.289-10.101-29.738c-5.556-16.356-10.493-29.613-10.973-29.46-.48.154-2.54 4.986-4.58 10.739-2.04 5.752-6.767 19.122-10.505 29.709l-6.798 19.25h-14.58l-3.532-10.75zm121.995 9.957c-.518-.838 31.987-96.34 33.681-98.957.526-.812 3.37-1.25 8.128-1.25 4.66 0 7.677.454 8.306 1.25.933 1.18 33.257 97.403 33.257 99 0 .413-3.098.75-6.885.75h-6.886l-4.38-12.25-4.379-12.25h-38.705l-4.24 12-4.242 12-6.555.294c-3.606.161-6.8-.103-7.1-.587zm55.805-36.1c.611-.988-13.584-44.103-14.522-44.106-.672-.002-14.948 41.842-14.926 43.749.017 1.49 28.535 1.836 29.448.358zm57.025 35.643c-.263-.687-.362-23.3-.218-50.25l.26-49h23.5c17.794 0 24.35.34 27 1.398 11.287 4.51 18.279 12.4 19.813 22.358 2.37 15.396-4.781 28.608-18.195 33.612-2.768 1.032-5.173 2.295-5.343 2.806-.17.511 5.548 9.422 12.708 19.801 7.16 10.38 13.017 19.244 13.017 19.699 0 .454-3.775.826-8.39.826h-8.388l-12.673-20-12.672-20H1752v40h-6.531c-4.303 0-6.695-.426-7.01-1.25zm43.643-50.903c11.211-3.803 16.022-15.374 10.994-26.446-3.757-8.271-10.29-10.645-28.095-10.208l-12.5.307-.275 17.465c-.15 9.606-.053 18.043.22 18.75.643 1.677 24.782 1.785 29.656.132zm57.566 51.486c-.833-.833-.891-96.585-.06-98.751.535-1.395 4.256-1.582 31.55-1.582h30.942l-.3 5.75-.3 5.75-24 .5-24 .5v31l22.289.5c24.122.541 24.164.552 24.196 6.168.034 6.012.742 5.83-22.841 5.847-11.904.008-22.218.38-22.92.826-.966.613-1.21 4.565-1 16.235l.277 15.424 24 .5 24 .5.3 5.75.3 5.75h-30.884c-16.986 0-31.183-.3-31.55-.667zm38.537-182.849c-36.918-19.669-66.063-49.08-92.204-93.044-20.27-34.09-34.24-71.746-41.903-112.94-5.793-31.145-5.452-17.217-5.817-237.77-.293-177.203-.151-202.842 1.127-203.333 1.746-.67 9.373 4.367 27.593 18.219 18.298 13.911 30.004 24.038 45.885 39.69 45.253 44.606 70.482 87.329 77.725 131.617 1.175 7.182 1.4 45.292 1.387 234.27-.01 124.132-.285 226.394-.614 227.25-.895 2.333-1.985 2.005-13.18-3.959zM527.2 848.8c-.925-.925-1.2-43.942-1.2-187.54 0-123.842-.354-189.596-1.055-196.05-4.59-42.263-19.936-79.497-45.355-110.038-16.003-19.226-38.088-35.369-62.97-46.025-39.797-17.044-91.64-19.588-134.418-6.596-34.377 10.44-62.966 29.91-85.828 58.449-3.305 4.125-7.56 9.108-9.458 11.074-1.897 1.965-6.208 8.94-9.579 15.5-11.808 22.975-18.293 44.453-22.474 74.426-.861 6.177-1.346 60.01-1.774 197l-.589 188.5-70 .26c-64.92.24-70.09.136-71.25-1.441-.994-1.353-1.25-65.92-1.25-314.928 0-172.275.273-313.94.607-314.81.334-.87 1.094-1.581 1.688-1.581.595 0 5.384 3.25 10.643 7.224 11.793 8.909 32.44 29.38 45.414 45.026 5.689 6.86 10.452 11.725 11.446 11.69.936-.032 4.852-3.89 8.702-8.571 15.096-18.359 42.703-43.158 63.5-57.042 27.428-18.312 57.889-32.297 91.274-41.906C294.27 156.743 355.775 154.39 407 165.157c31 6.515 69.715 21.383 86 33.027 3.025 2.162 10.675 7.34 17 11.508 32.004 21.082 61.79 51.97 82.026 85.058 2.439 3.987 4.893 7.237 5.454 7.222.561-.016 2.551-2.603 4.423-5.75 10.343-17.392 26.286-37.538 42.539-53.756 55.835-55.714 133.561-84.737 220.024-82.155 77.04 2.3 143.396 25.96 200.034 71.328 35.272 28.252 67.948 70.563 87.43 113.207 17.205 37.661 27.264 76.277 31.04 119.154.639 7.25 1.016 80.468 1.021 198.143.01 169.277-.138 186.7-1.573 187.25-2.343.9-138.712.707-140.136-.197-.948-.603-1.288-42.709-1.535-190.235-.316-188.877-.324-189.502-2.486-202.708-4.168-25.462-10.57-45.827-20.436-65.01-22.586-43.916-57.905-74.025-103.42-88.166-43.642-13.558-95.608-11.24-136.026 6.07-24.924 10.675-46.17 26.158-62.81 45.774-25.018 29.49-40.926 68.039-45.514 110.29-.701 6.452-1.055 71.987-1.055 195.315 0 126.03-.332 186.226-1.035 187.54-1.008 1.884-2.844 1.934-70.3 1.934-52.54 0-69.555-.29-70.465-1.2zm693.467-.467c-.367-.366-.667-142.341-.667-315.5 0-263.35.22-314.833 1.348-314.833 1.82 0 16.896 11.406 29.152 22.055 10.957 9.52 25.193 24.046 33 33.674 2.75 3.391 5.675 6.188 6.5 6.215.825.027 3.72-2.698 6.433-6.055 2.713-3.357 9.409-10.791 14.88-16.522 44.865-46.99 108.077-80.02 174.687-91.277 23.72-4.01 31.923-4.59 64-4.538 34.571.057 46.95 1.323 72.516 7.42 23.117 5.512 51.483 15.972 69.984 25.807l7 3.721.256 84.25c.211 69.758.026 84.25-1.08 84.25-.736 0-2.863-2.137-4.73-4.75-4.604-6.447-19.835-22.117-27.874-28.678-20.861-17.022-47.231-29.46-75.072-35.409-13.557-2.896-26.767-4.163-43.41-4.163-64.75 0-119.083 28.046-152.277 78.604-15.337 23.36-24.849 47.912-30.564 78.896l-2.214 12-.256 190.5c-.14 104.775-.494 191.512-.786 192.75l-.531 2.25h-69.814c-38.398 0-70.115-.3-70.481-.667zM1818 172.28c-23.53-2.686-45.804-15.273-59.675-33.724-5.866-7.803-11.72-19.488-14.4-28.741-2.877-9.935-3.705-30.533-1.622-40.332 6.58-30.95 28.622-55.532 58.625-65.381 3.5-1.15 11.135-2.619 16.967-3.266 19.234-2.134 37.166 1.894 54.9 12.333 8.674 5.107 23.109 19.91 28.556 29.287C1909.14 55.863 1913 70.316 1913 86.073c0 32.412-16.808 60.857-45.07 76.275-14.549 7.937-33.824 11.771-49.93 9.932z" id="path3252"/><path style="fill:#9ba0a2" d="M572.5 1034.594c-12.779-3.158-21.8-11.989-24.473-23.956-1.397-6.258-.335-7.643 5.845-7.623 5.843.02 6.678.606 7.54 5.295.935 5.081 6.534 11.122 12.378 13.354 7.188 2.745 17.353 2.375 24.434-.89 6.616-3.05 9.767-7.266 9.772-13.074.01-8.751-4.21-12.022-25.515-19.779-16.06-5.847-20.173-7.834-25.012-12.082-5.4-4.742-7.469-9.584-7.469-17.483 0-11.636 5.991-19.84 17.92-24.537 7.769-3.06 24.134-3.222 31.995-.319 9.569 3.534 19.085 14.445 19.085 21.882 0 2.781-1.629 3.618-7.042 3.618-4.255 0-5.069-.63-8.283-6.412-2.766-4.974-7.964-7.682-15.964-8.318-7.952-.631-13.966 1.02-18.353 5.04-6.177 5.661-5.642 15.497 1.068 19.644 1.755 1.085 9.914 4.28 18.132 7.1 21.38 7.338 27.931 11.506 32.075 20.405 2.808 6.03 3.177 15.66.818 21.323-3.326 7.984-12.66 14.847-23.25 17.094-6.791 1.44-19.285 1.304-25.701-.282zm532.975-.462c-3.314-.95-8.1-3.154-10.635-4.898-7.548-5.193-13.467-15.984-12.65-23.06.298-2.567.55-2.674 6.31-2.674h6l1.5 4.589c2.321 7.102 4.693 9.881 10.827 12.69 6.952 3.182 18.258 3.559 24.673.822 11.825-5.046 14.713-17.158 5.835-24.476-2.169-1.788-10.187-5.434-20.215-9.192-19.758-7.406-25.922-11.033-29.698-17.476-5.296-9.036-3.892-21.577 3.236-28.917 11.361-11.698 35.266-13.945 50.342-4.732 7.302 4.463 14.68 17.463 11.848 20.876-.633.762-3.165 1.316-6.017 1.316-4.528 0-5.061-.26-6.628-3.223-4.327-8.19-10.572-11.76-20.587-11.771-14.615-.017-23.873 9.67-18.922 19.8 2.29 4.684 6.212 6.82 23.156 12.614 7.343 2.51 15.527 5.75 18.188 7.197 12.379 6.738 17.611 17.122 14.99 29.749-2.183 10.516-11.596 19.066-23.657 21.488-8.1 1.627-20.846 1.297-27.896-.722zm107.81.373c-13.684-3.343-24.48-14.903-28.957-31.005-2.312-8.319-2.8-24.826-1.01-34.236 4.88-25.66 21.778-39.538 46.278-38.01 19.683 1.228 35.087 15.157 39.307 35.545 1.844 8.908 1.38 27.778-.904 36.705-4.368 17.08-14.792 27.717-30.499 31.124-7.42 1.61-17.329 1.56-24.216-.123zm22.92-13.06c9.583-3.264 15.565-11.147 18.317-24.133 4.015-18.948-.174-37.318-10.658-46.744-12.977-11.667-34.115-7.565-42.237 8.196-3.304 6.412-4.713 13.827-4.702 24.736.022 20.738 4.971 31.192 17.575 37.126 5.988 2.82 14.853 3.154 21.705.82zM0 983.436V932.87l23.75.316 23.75.315 6.673 3.264c11.258 5.508 16.235 13.559 16.218 26.236-.02 14.675-7.851 24.811-22.745 29.44-1.02.318-1.634 1.15-1.365 1.85.268.7 6.165 9.476 13.104 19.504C66.323 1023.82 72 1032.47 72 1033.013c0 .57-3.49.987-8.256.987h-8.256l-12.53-19.75-12.532-19.75H13.5l-.271 19.75-.271 19.75H0v-50.565zm46.698-2.7c1.76-.953 4.46-3.386 6-5.406 2.5-3.277 2.802-4.491 2.802-11.251 0-8.944-2.055-12.742-8.834-16.325-3.58-1.891-6.12-2.254-18.046-2.576-10.873-.294-14.065-.082-14.735.974-1.051 1.66-1.177 35.223-.135 36.268.412.414 7.275.594 15.25.4 11.364-.276 15.192-.726 17.698-2.084zm60.543 3.015.259-50.25h62v11l-24 .5-24 .5-.275 15.75-.276 15.75 21.776.015c11.976.008 22.365.39 23.086.847.868.55 1.206 2.49 1 5.735l-.311 4.903-22.5.5-22.5.5-.275 16.25-.275 16.25h22.943c12.62 0 23.655.273 24.525.607 1.172.45 1.582 2.005 1.582 6V1034h-63.019l.26-50.25zM195 1032.923c0-1.861 33.102-97.291 34.227-98.673.649-.796 3.713-1.25 8.446-1.25h7.43l1.345 3.25c1.97 4.753 32.552 95.79 32.552 96.898 0 .526-3.148.81-7.147.646l-7.148-.294-4.102-12-4.103-12h-39l-4.103 12-4.102 12-7.148.294c-4.94.203-7.147-.066-7.147-.87zm56.413-35.783c.604-.977-12.909-42.036-14.289-43.416-.815-.816-15.124 39.89-15.124 43.027 0 .941 3.558 1.249 14.441 1.249 7.943 0 14.68-.387 14.972-.86zm57.051 35.625c-.266-.696-.367-23.315-.224-50.265l.26-49h13l.26 44.25.26 44.25h21.368c24.072 0 23.942-.04 23.423 7.176l-.311 4.324-28.775.265c-22.481.208-28.882-.012-29.26-1zm144.777-49 .259-50.265h62v11l-24.25.268-24.25.268V977h21.309c24.616 0 25.002.11 24.509 7.036l-.318 4.464-22.5.5-22.5.5-.275 16.25-.275 16.25h23.403c26.323 0 25.981-.096 25.458 7.176l-.311 4.324-31.26.264-31.259.265.26-50.265zm220.228 48.985c-.257-.688-.58-20.6-.718-44.25l-.251-43-15.458-.277c-10.83-.194-15.69-.643-16.234-1.5-1.016-1.6-1-7.872.024-9.485.627-.988 9.251-1.205 39.734-1l38.934.262v11l-16 .5-16 .5-.26 44.25-.26 44.25h-6.522c-4.3 0-6.68-.426-6.989-1.25zm57.582-.5c.029-.963 7.566-23.575 16.75-50.25l16.699-48.5h16.722l16.389 48.462c9.014 26.655 16.389 49.288 16.389 50.296 0 1.626-.764 1.8-6.75 1.538l-6.75-.296-3.752-10.9c-2.064-5.996-4.257-11.508-4.873-12.25-1.557-1.876-37.141-1.968-38.619-.1-.543.687-2.66 6.312-4.705 12.5l-3.716 11.25h-6.918c-5.94 0-6.91-.247-6.866-1.75zM787 996.221c0-2.008-12.212-38.994-13.823-41.863-1.253-2.233-.24-4.669-9.08 21.823-3.796 11.375-6.646 20.937-6.333 21.25.313.313 7.02.569 14.903.569 13.072 0 14.333-.156 14.333-1.779zm67.985-5.425c-.008-23.813-.365-43.846-.793-44.519-.544-.857-5.404-1.306-16.234-1.5L822.5 944.5v-11l39.3-.262 39.3-.261-.3 5.761-.3 5.762-15.74.275-15.74.276-.26 44.224-.26 44.225-6.75.296-6.75.295-.015-43.295zm72.256-7.032.259-50.264h62v11l-24.25.268-24.25.268V977h21.878c24.636 0 24.453-.055 23.933 7.176l-.311 4.324-22.5.5-22.5.5-.275 16.25-.275 16.25h23.403c26.323 0 25.981-.096 25.458 7.176l-.311 4.324-31.26.264-31.259.265.26-50.265zm373 .032.259-50.296h61v11l-23.75.268-23.75.268V977h43.962l.593 2.362c.326 1.298.447 3.886.269 5.75l-.324 3.388-22 .5-22 .5-.5 22-.5 22-6.76.296-6.758.296.259-50.296zm113.52 6-.261-44.296-16-.5-16-.5v-11l38.934-.262c30.483-.205 39.107.012 39.734 1 1.28 2.016.956 8.415-.487 9.612-.789.654-7.32 1.206-16.25 1.372l-14.931.278-.5 44-.5 44-6.74.295-6.74.296-.26-44.296zm89.872 33.454c-12.32-37.492-27.696-87.643-27.238-88.837.66-1.718 13.114-2.017 14.15-.339.366.59 5.68 18.276 11.81 39.3 6.13 21.025 11.532 38.43 12.005 38.677.473.247 5.966-14.556 12.206-32.896 6.241-18.34 11.872-33.977 12.513-34.75 1.797-2.166 7.668-1.782 9.155.597.687 1.102 6.204 16.74 12.258 34.75 6.054 18.012 11.42 32.748 11.923 32.748.503 0 6.668-17.25 13.698-38.335 7.031-21.085 13.312-38.972 13.958-39.75.787-.95 3.273-1.415 7.551-1.415 5.398 0 6.382.269 6.403 1.75.014.962-7.706 23.705-17.155 50.54l-17.18 48.789-7.494-.29-7.494-.289-10.101-29.738c-5.556-16.356-10.493-29.613-10.973-29.46-.48.154-2.54 4.986-4.58 10.739-2.04 5.752-6.767 19.122-10.505 29.709l-6.798 19.25h-14.58l-3.532-10.75zm121.995 9.957c-.518-.838 31.987-96.34 33.681-98.957.526-.812 3.37-1.25 8.128-1.25 4.66 0 7.677.454 8.306 1.25.933 1.18 33.257 97.403 33.257 99 0 .413-3.098.75-6.885.75h-6.886l-4.38-12.25-4.379-12.25h-38.705l-4.24 12-4.242 12-6.555.294c-3.606.161-6.8-.103-7.1-.587zm55.805-36.1c.611-.988-13.584-44.103-14.522-44.106-.672-.002-14.948 41.842-14.926 43.749.017 1.49 28.535 1.836 29.448.358zm57.025 35.643c-.263-.687-.362-23.3-.218-50.25l.26-49h23.5c17.794 0 24.35.34 27 1.398 11.287 4.51 18.279 12.4 19.813 22.358 2.37 15.396-4.781 28.608-18.195 33.612-2.768 1.032-5.173 2.295-5.343 2.806-.17.511 5.548 9.422 12.708 19.801 7.16 10.38 13.017 19.244 13.017 19.699 0 .454-3.775.826-8.39.826h-8.388l-12.673-20-12.672-20H1752v40h-6.531c-4.303 0-6.695-.426-7.01-1.25zm43.643-50.903c11.211-3.803 16.022-15.374 10.994-26.446-3.757-8.271-10.29-10.645-28.095-10.208l-12.5.307-.275 17.465c-.15 9.606-.053 18.043.22 18.75.643 1.677 24.782 1.785 29.656.132zm57.566 51.486c-.833-.833-.891-96.585-.06-98.751.535-1.395 4.256-1.582 31.55-1.582h30.942l-.3 5.75-.3 5.75-24 .5-24 .5v31l22.289.5c24.122.541 24.164.552 24.196 6.168.034 6.012.742 5.83-22.841 5.847-11.904.008-22.218.38-22.92.826-.966.613-1.21 4.565-1 16.235l.277 15.424 24 .5 24 .5.3 5.75.3 5.75h-30.884c-16.986 0-31.183-.3-31.55-.667zm38.537-182.849c-36.918-19.669-66.063-49.08-92.204-93.044-20.27-34.09-34.24-71.746-41.903-112.94-5.793-31.145-5.452-17.217-5.817-237.77-.293-177.203-.151-202.842 1.127-203.333 1.746-.67 9.373 4.367 27.593 18.219 18.298 13.911 30.004 24.038 45.885 39.69 45.253 44.606 70.482 87.329 77.725 131.617 1.175 7.182 1.4 45.292 1.387 234.27-.01 124.132-.285 226.394-.614 227.25-.895 2.333-1.985 2.005-13.18-3.959zM527.2 848.8c-.925-.925-1.2-43.942-1.2-187.54 0-123.842-.354-189.596-1.055-196.05-4.59-42.263-19.936-79.497-45.355-110.038-16.003-19.226-38.088-35.369-62.97-46.025-39.797-17.044-91.64-19.588-134.418-6.596-34.377 10.44-62.966 29.91-85.828 58.449-3.305 4.125-7.56 9.108-9.458 11.074-1.897 1.965-6.208 8.94-9.579 15.5-11.808 22.975-18.293 44.453-22.474 74.426-.861 6.177-1.346 60.01-1.774 197l-.589 188.5-70 .26c-64.92.24-70.09.136-71.25-1.441-.994-1.353-1.25-65.92-1.25-314.928 0-172.275.273-313.94.607-314.81.334-.87 1.094-1.581 1.688-1.581.595 0 5.384 3.25 10.643 7.224 11.793 8.909 32.44 29.38 45.414 45.026 5.689 6.86 10.452 11.725 11.446 11.69.936-.032 4.852-3.89 8.702-8.571 15.096-18.359 42.703-43.158 63.5-57.042 27.428-18.312 57.889-32.297 91.274-41.906C294.27 156.743 355.775 154.39 407 165.157c31 6.515 69.715 21.383 86 33.027 3.025 2.162 10.675 7.34 17 11.508 32.004 21.082 61.79 51.97 82.026 85.058 2.439 3.987 4.893 7.237 5.454 7.222.561-.016 2.551-2.603 4.423-5.75 10.343-17.392 26.286-37.538 42.539-53.756 55.835-55.714 133.561-84.737 220.024-82.155 77.04 2.3 143.396 25.96 200.034 71.328 35.272 28.252 67.948 70.563 87.43 113.207 17.205 37.661 27.264 76.277 31.04 119.154.639 7.25 1.016 80.468 1.021 198.143.01 169.277-.138 186.7-1.573 187.25-2.343.9-138.712.707-140.136-.197-.948-.603-1.288-42.709-1.535-190.235-.316-188.877-.324-189.502-2.486-202.708-4.168-25.462-10.57-45.827-20.436-65.01-22.586-43.916-57.905-74.025-103.42-88.166-43.642-13.558-95.608-11.24-136.026 6.07-24.924 10.675-46.17 26.158-62.81 45.774-25.018 29.49-40.926 68.039-45.514 110.29-.701 6.452-1.055 71.987-1.055 195.315 0 126.03-.332 186.226-1.035 187.54-1.008 1.884-2.844 1.934-70.3 1.934-52.54 0-69.555-.29-70.465-1.2zM1222 533.46V219.922l7.75 5.702c16.327 12.012 36.572 31.11 53.758 50.71 4.123 4.702 6.46 6.632 7.492 6.186.825-.356 3.975-3.79 7-7.633 7.02-8.914 31.944-33.38 43-42.206 45.871-36.622 99.267-58.82 162-67.345 19.41-2.638 74.29-2.63 91 .014 36.006 5.696 72.958 17.487 98.5 31.43l5 2.729.256 81.746c.14 44.96-.084 81.736-.5 81.725-.416-.012-2.003-1.785-3.528-3.94-7.829-11.069-24.637-26.519-40.484-37.212-45.081-30.42-112.276-38.483-168.23-20.185-68.008 22.24-114.352 82.7-123.53 161.157-1.261 10.784-1.484 40.568-1.484 198.445V847h-138V533.46zm589.834-364.027c-32.728-5.922-59.378-31.447-66.924-64.098-2.859-12.375-2.365-31.98 1.08-42.835 7.39-23.29 22.365-41.002 43.51-51.461 9.824-4.86 19.692-8.039 24.953-8.039 1.522 0 2.4-.429 2.047-1-.398-.644 3.343-1 10.5-1s10.898.356 10.5 1c-.353.571.525 1 2.047 1 9.401 0 29.372 8.797 40.623 17.893 14.921 12.065 25.334 28.795 29.243 46.981.783 3.644 1.52 5.951 1.637 5.126.116-.825.587 1.2 1.044 4.5.954 6.875.064 22.716-1.23 21.916-.475-.294-.864.57-.864 1.92 0 3.646-3.814 15.334-7.233 22.164-17.045 34.055-53.845 52.644-90.933 45.933z" id="path3250"/><path style="fill:#bad336" d="M577.5 1035.396c-1.1-.275-2.9-.897-4-1.383s-4.048-1.748-6.55-2.804c-9.205-3.884-16.367-12.678-17.59-21.597l-.648-4.726 5.289.307 5.288.307 1.29 4.385c3.527 11.988 19.639 18.21 35.196 13.59 14.654-4.353 18.543-20.36 6.888-28.354-2.29-1.57-11.138-5.426-19.663-8.57-17.638-6.504-22.44-9.01-26.82-14-8.164-9.298-6.063-25.095 4.397-33.063 6.644-5.06 13.773-6.773 26.223-6.298 8.677.331 11.55.845 15.2 2.717 8.024 4.116 14.21 11.508 15.146 18.099.333 2.347.055 2.511-4.723 2.79l-5.078.297-1.88-4.17c-2.946-6.533-7.854-9.197-17.916-9.725-9.63-.506-14.218.694-19.12 5-7.352 6.454-6.412 17.41 1.907 22.232 2.29 1.327 10.914 4.73 19.164 7.563 23.55 8.084 30.402 13.714 32.141 26.408 1.588 11.58-4.774 21.48-17.616 27.414-6.357 2.937-8.789 3.51-16.01 3.771-4.683.17-9.415.084-10.515-.19zm534.5-.064c-4.132-.861-16.288-6.82-19.544-9.581-3.723-3.158-8.31-12.01-8.682-16.751l-.274-3.5 5.03-.295 5.031-.295 1.27 4.748c3.786 14.154 27.313 20.458 41.263 11.058 10.443-7.038 10.524-19.308.173-26.158-2.097-1.388-10.395-4.938-18.442-7.89-18.915-6.937-24.46-10.064-28.575-16.115-2.921-4.296-3.25-5.506-3.25-11.96 0-6.322.39-7.834 3.254-12.627 2.748-4.598 4.32-5.988 10.107-8.935 6.25-3.182 7.757-3.522 17.117-3.869 11.95-.442 18.878 1.14 25.269 5.77 4.481 3.246 8.86 9.852 9.867 14.886l.636 3.182h-5.105c-4.892 0-5.184-.156-7.018-3.75-3.848-7.54-9.385-10.25-20.938-10.25-9.241 0-15.256 2.532-18.939 7.972-4.051 5.984-2.454 14.617 3.485 18.834 1.52 1.08 10.145 4.57 19.166 7.755 20.042 7.079 26.815 11.22 30.527 18.67 2.866 5.75 3.4 13.276 1.411 19.91-1.689 5.638-6.791 11.024-13.48 14.23-3.222 1.543-6.74 3.279-7.815 3.855-2.143 1.148-17.546 1.939-21.544 1.106zm108.5-.391c-17.318-2.097-30.74-14.92-35.045-33.478-2.015-8.69-2.05-26.837-.067-35.325 5.443-23.297 24.09-36.47 47.028-33.221 24.533 3.474 38.08 24.261 36.225 55.583-1.497 25.275-9.426 36.876-31.141 45.561-2.88 1.152-11.196 1.583-17 .88zm18.98-13.387c6.605-3.232 11.734-8.968 14.732-16.475 1.961-4.913 2.23-7.431 2.258-21.08.027-13.905-.207-16.085-2.274-21.2-2.897-7.17-9.819-14.95-15.968-17.946-6.953-3.387-17.846-3.217-24.818.387-12.822 6.628-19.309 21.839-18.155 42.57.858 15.414 5.107 25.201 13.597 31.323 9.062 6.534 20.39 7.429 30.628 2.42zM0 984.025v-50.189l22.75.368c20.414.33 23.295.588 28.06 2.508 11.76 4.741 17.213 11.921 17.958 23.644.751 11.827-2.25 18.978-10.657 25.39-2.401 1.831-6.39 3.871-8.862 4.532-2.473.662-4.699 1.73-4.946 2.375-.247.645 5.433 9.702 12.624 20.127 7.19 10.426 13.073 19.24 13.073 19.588 0 .348-3.044.632-6.765.632H56.47l-11.433-18.117C29.356 990.035 31.29 992 22.509 992c-4.04 0-8.057.273-8.927.607-1.37.525-1.582 3.283-1.582 20.5V1033H7.582c-2.43 0-5.13.273-6 .607-1.43.549-1.582-4.227-1.582-49.582zm46.18-1.711c8.833-4.038 13.595-14.438 10.836-23.664-1.875-6.268-4.787-9.656-10.577-12.306-4.875-2.232-6.245-2.38-19.59-2.122L12.5 944.5l-.273 18.87c-.198 13.734.06 19.271.949 20.342.993 1.197 3.743 1.403 14.772 1.106 11.205-.301 14.363-.735 18.233-2.504zm62.284 49.45c-.267-.695-.368-22.864-.224-49.264l.26-48 29.805-.265 29.806-.265-.306 4.765-.305 4.765-23.453.269c-17.231.198-23.66.595-24.234 1.5-.43.677-.79 8.038-.798 16.359-.011 11.373.315 15.4 1.313 16.23.856.71 9.135 1.198 23.25 1.372l21.922.27v8l-21.922.27c-14.115.174-22.394.663-23.25 1.372-1.834 1.523-1.903 30.702-.078 33.157 1.1 1.48 4.085 1.713 24.75 1.942l23.5.259v8l-29.776.265c-23.281.207-29.881-.011-30.26-1zm88.524-.014c-.016-1.823 32.16-95.013 33.335-96.542.678-.883 3.078-1.2 7.584-1l6.593.292 16.174 48c8.896 26.4 16.208 48.563 16.25 49.25.052.856-1.634 1.25-5.342 1.25h-5.418l-2.736-8.25c-1.505-4.537-3.555-10.172-4.556-12.52l-1.819-4.272-20.274.271-20.274.271-4.396 12.25-4.395 12.25h-5.357c-3.613 0-5.36-.407-5.369-1.25zm56.023-35c.012-2.485-13.778-43.512-15.29-45.49-.521-.68-1.31-1.014-1.754-.74-1.32.816-16.172 46.339-15.483 47.454.39.632 6.763 1.026 16.575 1.026 15.861 0 15.941-.011 15.952-2.25zm56.656 35.583c-.833-.833-.891-94.585-.06-96.751.439-1.144 1.96-1.582 5.5-1.582 2.691 0 4.994.112 5.117.25.123.137.46 20.275.75 44.75l.526 44.5 21.75.27 21.75.269v8.96h-27.333c-15.034 0-27.634-.3-28-.666zm144.791-.583c-.263-.688-.362-22.85-.218-49.25l.26-48h59v9l-24 .5-24 .5-.276 15.866c-.189 10.851.087 16.304.872 17.25.914 1.101 5.606 1.384 22.96 1.384 21.184 0 21.828.06 22.467 2.072.362 1.14.383 3.165.048 4.5l-.61 2.428h-22.373c-19.48 0-22.453.205-22.981 1.582-1.187 3.093-.672 31.953.593 33.218.865.865 7.711 1.2 24.5 1.2H514v9h-29.531c-22.703 0-29.643-.289-30.01-1.25zm220.254.628c-.392-.391-.712-20.425-.712-44.52v-43.807l-15.75-.276-15.75-.275v-9h75v9l-15.74.275-15.74.276-.26 44.224-.26 44.225-5.038.295c-2.772.162-5.359-.025-5.75-.417zm57.694-1.076c.315-.99 7.934-23.177 16.931-49.302l16.358-47.5 6.495-.292c4.588-.206 6.83.112 7.637 1.084.888 1.07 33.173 95.903 33.173 97.44 0 .203-2.587.233-5.75.068l-5.75-.3-4.105-12-4.105-12-20.555-.27-20.554-.27-1.586 4.27c-.872 2.348-2.825 7.87-4.34 12.27l-2.755 8-5.834.302c-5.236.272-5.775.118-5.26-1.5zM789 997.725c0-1.93-14.848-45.973-15.83-46.955-.473-.473-1.312-.278-1.878.438-1.32 1.667-15.292 43.734-15.292 46.043 0 1.595 1.454 1.749 16.5 1.749 12.706 0 16.5-.293 16.5-1.275zm66.76-8.975-.26-44.25-14-.243c-18.781-.327-18.686-.298-18.306-5.54l.306-4.217h76v9l-16 .5-16 .5-.26 44.25-.26 44.25h-10.96l-.26-44.25zm72.698 43c-.263-.688-.362-22.85-.218-49.25l.26-48h59v9l-23.453.269c-17.231.198-23.66.595-24.234 1.5-.43.677-.79 8.038-.798 16.359-.011 11.373.315 15.4 1.313 16.23.856.71 9.132 1.198 23.237 1.372 20.312.25 21.934.403 22.26 2.1.194 1.005.079 2.918-.256 4.25l-.607 2.42h-22.374c-19.48 0-22.453.205-22.981 1.582-1.187 3.093-.672 31.953.593 33.218.865.865 7.711 1.2 24.5 1.2H988v9h-29.531c-22.703 0-29.643-.289-30.01-1.25zm372.783-48 .259-49.25 28.931-.266c22.48-.206 29.11.017 29.735 1 1.258 1.983.97 6.408-.495 7.624-.862.715-9.395 1.198-24.25 1.373l-22.921.269v33l22 .5 22 .5.305 4.75.305 4.75h-21.948c-19.091 0-22.027.206-22.555 1.582-.334.87-.607 10.995-.607 22.5V1033h-11.019l.26-49.25zm114.228 48c-.257-.688-.58-20.6-.718-44.25l-.251-43-15.149-.276c-17.054-.31-18.046-.704-16.917-6.725l.661-3.523 37.703.262 37.702.262v9l-15.458.277c-10.83.194-15.69.643-16.234 1.5-.428.673-.784 20.686-.793 44.473L1426 1033h-5.031c-3.11 0-5.21-.478-5.5-1.25zm88.497-12a44309.53 44309.53 0 0 0-15.068-47.683c-5.994-18.938-10.898-35.272-10.898-36.3 0-1.64.696-1.83 5.749-1.567l5.748.3 11.649 39.847c6.407 21.916 12.094 40.293 12.638 40.837.653.654 1.282.535 1.85-.347.472-.735 6.035-16.637 12.362-35.337l11.504-34h7.772l12.008 35.285c7.117 20.916 12.458 35.143 13.114 34.934.608-.193 7.181-18.096 14.606-39.785 7.425-21.689 13.864-39.996 14.309-40.684.912-1.41 10.27-1.74 11.102-.393.459.741-28.555 84.373-32.77 94.461-1.53 3.66-1.574 3.682-7.518 3.682h-5.98l-1.925-5.25c-1.06-2.888-5.608-16.275-10.108-29.75-4.5-13.475-8.625-25.175-9.165-26-.864-1.318-1.137-1.3-2.254.155-.7.91-5.93 14.972-11.624 31.25L1520.715 1033h-12.579l-4.17-13.25zM1627 1032.211c0-1.085 30.405-89.851 32.467-94.786l1.47-3.518 6.781.297 6.782.296 16.195 47.5c8.907 26.125 16.22 48.288 16.25 49.25.046 1.458-.849 1.75-5.362 1.75h-5.418l-3.716-11.25c-2.044-6.188-4.17-11.822-4.722-12.52-.766-.969-5.787-1.206-21.116-1l-20.111.27-4.102 12-4.101 12-5.649.3c-3.106.165-5.648-.1-5.648-.589zm56.411-34.067c.929-1.503-14.965-47.644-16.411-47.644-1.446 0-17.34 46.141-16.411 47.644.291.47 7.676.856 16.411.856 8.735 0 16.12-.385 16.411-.856zm56.83-14.341.259-49.303h44.112l7.492 3.705c8.234 4.072 12.77 9.075 14.775 16.298 2.599 9.36.331 20.555-5.556 27.433-3.233 3.776-12.445 9.064-15.792 9.064-3.934 0-2.171 3.728 10.375 21.939 7.202 10.453 13.094 19.243 13.094 19.533 0 .29-3.09.528-6.866.528h-6.866l-11.884-18.748c-6.536-10.312-12.672-19.537-13.634-20.5-1.349-1.35-3.411-1.748-9-1.737-3.987.008-7.803.367-8.478.796-.885.562-1.303 6.203-1.5 20.234l-.272 19.455-5.26.303-5.259.302.26-49.302zm41.633-.358c10.742-3.19 16.83-13.61 14.16-24.234-2.781-11.065-9.238-14.974-26.24-15.885-6.296-.337-13.101-.303-15.121.076l-3.673.689v19.871c0 14.961.309 19.996 1.25 20.376 3.086 1.245 24.608.597 29.624-.893zm59.367.305.259-49.25h59v9l-24 .5-24 .5v34l22.807.269 22.806.269-.306 4.23-.307 4.232-22.5.5-22.5.5-.275 16.925c-.21 12.872.031 17.12 1 17.735.701.445 11.738.816 24.525.825l23.25.015v9h-60.019l.26-49.25zm36.855-134.323c-27.836-14.83-50.738-35.014-72.116-63.557-37.72-50.362-60.113-110.95-65.925-178.37-1.498-17.378-1.448-403.5.052-403.5 2.448 0 29.532 20.017 47.882 35.389 12.004 10.055 34.708 32.324 44.972 44.111 26.631 30.581 44.565 61.636 52.577 91.044 5.905 21.676 5.559 5.725 5.474 252.355-.043 124.52-.315 226.782-.604 227.25-.822 1.33-1.28 1.155-12.312-4.722zm-1350.62-1.677c-.253-.688-.606-87.425-.784-192.75-.319-188.75-.353-191.658-2.394-202.5-4.677-24.855-9.71-40.622-18.923-59.29-25.176-51.014-68.498-84.522-123.725-95.698-25.5-5.16-54.938-5.331-80.145-.467-43.23 8.343-78.234 29.205-105.154 62.673-4.078 5.07-8.018 9.57-8.755 10-2.213 1.291-8.624 12.05-14.308 24.007-9.804 20.624-16.59 45.14-19.233 69.486-.701 6.452-1.055 71.943-1.055 195.168 0 102.001-.273 186.17-.607 187.04-.545 1.42-7.68 1.581-70.393 1.581s-69.848-.16-70.393-1.582c-1.144-2.981-.693-628.247.454-628.956 1.77-1.094 19.705 13.296 32.445 26.034 6.603 6.602 16.747 17.629 22.543 24.504 5.836 6.923 11.419 12.629 12.513 12.79 1.411.206 3.682-1.789 7.956-6.99 26.165-31.837 60.92-59.389 98.732-78.267 42.764-21.352 83.587-31.774 135.714-34.648 50.915-2.808 96.533 4.985 141.806 24.223 12.524 5.322 24.57 11.374 26.519 13.324.842.842 5.854 4.227 11.136 7.521 19.111 11.92 35.52 25.187 52.205 42.211 13.32 13.591 22.542 25.124 34.045 42.576 5.188 7.871 9.836 14.062 10.329 13.758.493-.305 3.173-4.324 5.957-8.933 2.783-4.608 9.043-13.708 13.91-20.222 26.919-36.026 60.06-63.583 99.629-82.84 35.112-17.088 67.386-25.731 110.456-29.58 14.964-1.337 51.75-.759 66.544 1.046 78.828 9.617 142.513 39.85 194.189 92.186 24.617 24.933 43.032 50.66 58.225 81.345 22.408 45.257 33.488 89.809 36.062 145 1.545 33.121 1.34 363.687-.226 365.819-1.16 1.577-6.3 1.682-70.75 1.44l-69.5-.259-.573-189c-.588-194.304-.531-191.628-4.548-213.376-11.866-64.245-52.949-116.753-108.73-138.971-23.448-9.34-46.009-13.424-74.149-13.424-33.439 0-60.003 5.936-87 19.441-45.48 22.752-79.161 66.32-92.533 119.694-6.83 27.262-6.361 11.67-6.668 221.636-.153 104.5-.516 191.012-.808 192.25l-.53 2.25H597.45c-54.698 0-69.61-.266-69.973-1.25zM1222 533.46V219.922l7.75 5.702c16.327 12.012 36.572 31.11 53.758 50.71 4.123 4.702 6.46 6.632 7.492 6.186.825-.356 3.975-3.79 7-7.633 7.02-8.914 31.944-33.38 43-42.206 45.871-36.622 99.267-58.82 162-67.345 19.41-2.638 74.29-2.63 91 .014 36.006 5.696 72.958 17.487 98.5 31.43l5 2.729.256 81.746c.14 44.96-.084 81.736-.5 81.725-.416-.012-2.003-1.785-3.528-3.94-7.829-11.069-24.637-26.519-40.484-37.212-45.081-30.42-112.276-38.483-168.23-20.185-68.008 22.24-114.352 82.7-123.53 161.157-1.261 10.784-1.484 40.568-1.484 198.445V847h-138V533.46zm589.834-364.027c-32.728-5.922-59.378-31.447-66.924-64.098-2.859-12.375-2.365-31.98 1.08-42.835 7.39-23.29 22.365-41.002 43.51-51.461 9.824-4.86 19.692-8.039 24.953-8.039 1.522 0 2.4-.429 2.047-1-.398-.644 3.343-1 10.5-1s10.898.356 10.5 1c-.353.571.525 1 2.047 1 9.401 0 29.372 8.797 40.623 17.893 14.921 12.065 25.334 28.795 29.243 46.981.783 3.644 1.52 5.951 1.637 5.126.116-.825.587 1.2 1.044 4.5.954 6.875.064 22.716-1.23 21.916-.475-.294-.864.57-.864 1.92 0 3.646-3.814 15.334-7.233 22.164-17.045 34.055-53.845 52.644-90.933 45.933z" id="path3248"/><path style="fill:#6b93a1" d="M577.5 1035.396c-1.1-.275-2.9-.897-4-1.383s-4.048-1.748-6.55-2.804c-9.205-3.884-16.367-12.678-17.59-21.597l-.648-4.726 5.289.307 5.288.307 1.29 4.385c3.527 11.988 19.639 18.21 35.196 13.59 14.654-4.353 18.543-20.36 6.888-28.354-2.29-1.57-11.138-5.426-19.663-8.57-17.638-6.504-22.44-9.01-26.82-14-8.164-9.298-6.063-25.095 4.397-33.063 6.644-5.06 13.773-6.773 26.223-6.298 8.677.331 11.55.845 15.2 2.717 8.024 4.116 14.21 11.508 15.146 18.099.333 2.347.055 2.511-4.723 2.79l-5.078.297-1.88-4.17c-2.946-6.533-7.854-9.197-17.916-9.725-9.63-.506-14.218.694-19.12 5-7.352 6.454-6.412 17.41 1.907 22.232 2.29 1.327 10.914 4.73 19.164 7.563 23.55 8.084 30.402 13.714 32.141 26.408 1.588 11.58-4.774 21.48-17.616 27.414-6.357 2.937-8.789 3.51-16.01 3.771-4.683.17-9.415.084-10.515-.19zm534.5-.064c-4.132-.861-16.288-6.82-19.544-9.581-3.723-3.158-8.31-12.01-8.682-16.751l-.274-3.5 5.03-.295 5.031-.295 1.27 4.748c3.786 14.154 27.313 20.458 41.263 11.058 10.443-7.038 10.524-19.308.173-26.158-2.097-1.388-10.395-4.938-18.442-7.89-18.915-6.937-24.46-10.064-28.575-16.115-2.921-4.296-3.25-5.506-3.25-11.96 0-6.322.39-7.834 3.254-12.627 2.748-4.598 4.32-5.988 10.107-8.935 6.25-3.182 7.757-3.522 17.117-3.869 11.95-.442 18.878 1.14 25.269 5.77 4.481 3.246 8.86 9.852 9.867 14.886l.636 3.182h-5.105c-4.892 0-5.184-.156-7.018-3.75-3.848-7.54-9.385-10.25-20.938-10.25-9.241 0-15.256 2.532-18.939 7.972-4.051 5.984-2.454 14.617 3.485 18.834 1.52 1.08 10.145 4.57 19.166 7.755 20.042 7.079 26.815 11.22 30.527 18.67 2.866 5.75 3.4 13.276 1.411 19.91-1.689 5.638-6.791 11.024-13.48 14.23-3.222 1.543-6.74 3.279-7.815 3.855-2.143 1.148-17.546 1.939-21.544 1.106zm108.5-.391c-17.318-2.097-30.74-14.92-35.045-33.478-2.015-8.69-2.05-26.837-.067-35.325 5.443-23.297 24.09-36.47 47.028-33.221 24.533 3.474 38.08 24.261 36.225 55.583-1.497 25.275-9.426 36.876-31.141 45.561-2.88 1.152-11.196 1.583-17 .88zm18.98-13.387c6.605-3.232 11.734-8.968 14.732-16.475 1.961-4.913 2.23-7.431 2.258-21.08.027-13.905-.207-16.085-2.274-21.2-2.897-7.17-9.819-14.95-15.968-17.946-6.953-3.387-17.846-3.217-24.818.387-12.822 6.628-19.309 21.839-18.155 42.57.858 15.414 5.107 25.201 13.597 31.323 9.062 6.534 20.39 7.429 30.628 2.42zM0 984.025v-50.189l22.75.368c20.414.33 23.295.588 28.06 2.508 11.76 4.741 17.213 11.921 17.958 23.644.751 11.827-2.25 18.978-10.657 25.39-2.401 1.831-6.39 3.871-8.862 4.532-2.473.662-4.699 1.73-4.946 2.375-.247.645 5.433 9.702 12.624 20.127 7.19 10.426 13.073 19.24 13.073 19.588 0 .348-3.044.632-6.765.632H56.47l-11.433-18.117C29.356 990.035 31.29 992 22.509 992c-4.04 0-8.057.273-8.927.607-1.37.525-1.582 3.283-1.582 20.5V1033H7.582c-2.43 0-5.13.273-6 .607-1.43.549-1.582-4.227-1.582-49.582zm46.18-1.711c8.833-4.038 13.595-14.438 10.836-23.664-1.875-6.268-4.787-9.656-10.577-12.306-4.875-2.232-6.245-2.38-19.59-2.122L12.5 944.5l-.273 18.87c-.198 13.734.06 19.271.949 20.342.993 1.197 3.743 1.403 14.772 1.106 11.205-.301 14.363-.735 18.233-2.504zm62.284 49.45c-.267-.695-.368-22.864-.224-49.264l.26-48 29.805-.265 29.806-.265-.306 4.765-.305 4.765-23.453.269c-17.231.198-23.66.595-24.234 1.5-.43.677-.79 8.038-.798 16.359-.011 11.373.315 15.4 1.313 16.23.856.71 9.135 1.198 23.25 1.372l21.922.27v8l-21.922.27c-14.115.174-22.394.663-23.25 1.372-1.834 1.523-1.903 30.702-.078 33.157 1.1 1.48 4.085 1.713 24.75 1.942l23.5.259v8l-29.776.265c-23.281.207-29.881-.011-30.26-1zm88.524-.014c-.016-1.823 32.16-95.013 33.335-96.542.678-.883 3.078-1.2 7.584-1l6.593.292 16.174 48c8.896 26.4 16.208 48.563 16.25 49.25.052.856-1.634 1.25-5.342 1.25h-5.418l-2.736-8.25c-1.505-4.537-3.555-10.172-4.556-12.52l-1.819-4.272-20.274.271-20.274.271-4.396 12.25-4.395 12.25h-5.357c-3.613 0-5.36-.407-5.369-1.25zm56.023-35c.012-2.485-13.778-43.512-15.29-45.49-.521-.68-1.31-1.014-1.754-.74-1.32.816-16.172 46.339-15.483 47.454.39.632 6.763 1.026 16.575 1.026 15.861 0 15.941-.011 15.952-2.25zm56.656 35.583c-.833-.833-.891-94.585-.06-96.751.439-1.144 1.96-1.582 5.5-1.582 2.691 0 4.994.112 5.117.25.123.137.46 20.275.75 44.75l.526 44.5 21.75.27 21.75.269v8.96h-27.333c-15.034 0-27.634-.3-28-.666zm144.791-.583c-.263-.688-.362-22.85-.218-49.25l.26-48h59v9l-24 .5-24 .5-.276 15.866c-.189 10.851.087 16.304.872 17.25.914 1.101 5.606 1.384 22.96 1.384 21.184 0 21.828.06 22.467 2.072.362 1.14.383 3.165.048 4.5l-.61 2.428h-22.373c-19.48 0-22.453.205-22.981 1.582-1.187 3.093-.672 31.953.593 33.218.865.865 7.711 1.2 24.5 1.2H514v9h-29.531c-22.703 0-29.643-.289-30.01-1.25zm220.254.628c-.392-.391-.712-20.425-.712-44.52v-43.807l-15.75-.276-15.75-.275v-9h75v9l-15.74.275-15.74.276-.26 44.224-.26 44.225-5.038.295c-2.772.162-5.359-.025-5.75-.417zm57.694-1.076c.315-.99 7.934-23.177 16.931-49.302l16.358-47.5 6.495-.292c4.588-.206 6.83.112 7.637 1.084.888 1.07 33.173 95.903 33.173 97.44 0 .203-2.587.233-5.75.068l-5.75-.3-4.105-12-4.105-12-20.555-.27-20.554-.27-1.586 4.27c-.872 2.348-2.825 7.87-4.34 12.27l-2.755 8-5.834.302c-5.236.272-5.775.118-5.26-1.5zM789 997.725c0-1.93-14.848-45.973-15.83-46.955-.473-.473-1.312-.278-1.878.438-1.32 1.667-15.292 43.734-15.292 46.043 0 1.595 1.454 1.749 16.5 1.749 12.706 0 16.5-.293 16.5-1.275zm66.76-8.975-.26-44.25-14-.243c-18.781-.327-18.686-.298-18.306-5.54l.306-4.217h76v9l-16 .5-16 .5-.26 44.25-.26 44.25h-10.96l-.26-44.25zm72.698 43c-.263-.688-.362-22.85-.218-49.25l.26-48h59v9l-23.453.269c-17.231.198-23.66.595-24.234 1.5-.43.677-.79 8.038-.798 16.359-.011 11.373.315 15.4 1.313 16.23.856.71 9.132 1.198 23.237 1.372 20.312.25 21.934.403 22.26 2.1.194 1.005.079 2.918-.256 4.25l-.607 2.42h-22.374c-19.48 0-22.453.205-22.981 1.582-1.187 3.093-.672 31.953.593 33.218.865.865 7.711 1.2 24.5 1.2H988v9h-29.531c-22.703 0-29.643-.289-30.01-1.25zm372.783-48 .259-49.25 28.931-.266c22.48-.206 29.11.017 29.735 1 1.258 1.983.97 6.408-.495 7.624-.862.715-9.395 1.198-24.25 1.373l-22.921.269v33l22 .5 22 .5.305 4.75.305 4.75h-21.948c-19.091 0-22.027.206-22.555 1.582-.334.87-.607 10.995-.607 22.5V1033h-11.019l.26-49.25zm114.228 48c-.257-.688-.58-20.6-.718-44.25l-.251-43-15.149-.276c-17.054-.31-18.046-.704-16.917-6.725l.661-3.523 37.703.262 37.702.262v9l-15.458.277c-10.83.194-15.69.643-16.234 1.5-.428.673-.784 20.686-.793 44.473L1426 1033h-5.031c-3.11 0-5.21-.478-5.5-1.25zm88.497-12a44309.53 44309.53 0 0 0-15.068-47.683c-5.994-18.938-10.898-35.272-10.898-36.3 0-1.64.696-1.83 5.749-1.567l5.748.3 11.649 39.847c6.407 21.916 12.094 40.293 12.638 40.837.653.654 1.282.535 1.85-.347.472-.735 6.035-16.637 12.362-35.337l11.504-34h7.772l12.008 35.285c7.117 20.916 12.458 35.143 13.114 34.934.608-.193 7.181-18.096 14.606-39.785 7.425-21.689 13.864-39.996 14.309-40.684.912-1.41 10.27-1.74 11.102-.393.459.741-28.555 84.373-32.77 94.461-1.53 3.66-1.574 3.682-7.518 3.682h-5.98l-1.925-5.25c-1.06-2.888-5.608-16.275-10.108-29.75-4.5-13.475-8.625-25.175-9.165-26-.864-1.318-1.137-1.3-2.254.155-.7.91-5.93 14.972-11.624 31.25L1520.715 1033h-12.579l-4.17-13.25zM1627 1032.211c0-1.085 30.405-89.851 32.467-94.786l1.47-3.518 6.781.297 6.782.296 16.195 47.5c8.907 26.125 16.22 48.288 16.25 49.25.046 1.458-.849 1.75-5.362 1.75h-5.418l-3.716-11.25c-2.044-6.188-4.17-11.822-4.722-12.52-.766-.969-5.787-1.206-21.116-1l-20.111.27-4.102 12-4.101 12-5.649.3c-3.106.165-5.648-.1-5.648-.589zm56.411-34.067c.929-1.503-14.965-47.644-16.411-47.644-1.446 0-17.34 46.141-16.411 47.644.291.47 7.676.856 16.411.856 8.735 0 16.12-.385 16.411-.856zm56.83-14.341.259-49.303h44.112l7.492 3.705c8.234 4.072 12.77 9.075 14.775 16.298 2.599 9.36.331 20.555-5.556 27.433-3.233 3.776-12.445 9.064-15.792 9.064-3.934 0-2.171 3.728 10.375 21.939 7.202 10.453 13.094 19.243 13.094 19.533 0 .29-3.09.528-6.866.528h-6.866l-11.884-18.748c-6.536-10.312-12.672-19.537-13.634-20.5-1.349-1.35-3.411-1.748-9-1.737-3.987.008-7.803.367-8.478.796-.885.562-1.303 6.203-1.5 20.234l-.272 19.455-5.26.303-5.259.302.26-49.302zm41.633-.358c10.742-3.19 16.83-13.61 14.16-24.234-2.781-11.065-9.238-14.974-26.24-15.885-6.296-.337-13.101-.303-15.121.076l-3.673.689v19.871c0 14.961.309 19.996 1.25 20.376 3.086 1.245 24.608.597 29.624-.893zm59.367.305.259-49.25h59v9l-24 .5-24 .5v34l22.807.269 22.806.269-.306 4.23-.307 4.232-22.5.5-22.5.5-.275 16.925c-.21 12.872.031 17.12 1 17.735.701.445 11.738.816 24.525.825l23.25.015v9h-60.019l.26-49.25zm36.855-134.323c-27.836-14.83-50.738-35.014-72.116-63.557-37.72-50.362-60.113-110.95-65.925-178.37-1.498-17.378-1.448-403.5.052-403.5 2.448 0 29.532 20.017 47.882 35.389 12.004 10.055 34.708 32.324 44.972 44.111 26.631 30.581 44.565 61.636 52.577 91.044 5.905 21.676 5.559 5.725 5.474 252.355-.043 124.52-.315 226.782-.604 227.25-.822 1.33-1.28 1.155-12.312-4.722zm-1350.62-1.677c-.253-.688-.606-87.425-.784-192.75-.319-188.75-.353-191.658-2.394-202.5-4.677-24.855-9.71-40.622-18.923-59.29-25.176-51.014-68.498-84.522-123.725-95.698-25.5-5.16-54.938-5.331-80.145-.467-43.23 8.343-78.234 29.205-105.154 62.673-4.078 5.07-8.018 9.57-8.755 10-2.213 1.291-8.624 12.05-14.308 24.007-9.804 20.624-16.59 45.14-19.233 69.486-.701 6.452-1.055 71.943-1.055 195.168 0 102.001-.273 186.17-.607 187.04-.545 1.42-7.68 1.581-70.393 1.581s-69.848-.16-70.393-1.582c-1.144-2.981-.693-628.247.454-628.956 1.77-1.094 19.705 13.296 32.445 26.034 6.603 6.602 16.747 17.629 22.543 24.504 5.836 6.923 11.419 12.629 12.513 12.79 1.411.206 3.682-1.789 7.956-6.99 26.165-31.837 60.92-59.389 98.732-78.267 42.764-21.352 83.587-31.774 135.714-34.648 50.915-2.808 96.533 4.985 141.806 24.223 12.524 5.322 24.57 11.374 26.519 13.324.842.842 5.854 4.227 11.136 7.521 19.111 11.92 35.52 25.187 52.205 42.211 13.32 13.591 22.542 25.124 34.045 42.576 5.188 7.871 9.836 14.062 10.329 13.758.493-.305 3.173-4.324 5.957-8.933 2.783-4.608 9.043-13.708 13.91-20.222 26.919-36.026 60.06-63.583 99.629-82.84 35.112-17.088 67.386-25.731 110.456-29.58 14.964-1.337 51.75-.759 66.544 1.046 78.828 9.617 142.513 39.85 194.189 92.186 24.617 24.933 43.032 50.66 58.225 81.345 22.408 45.257 33.488 89.809 36.062 145 1.545 33.121 1.34 363.687-.226 365.819-1.16 1.577-6.3 1.682-70.75 1.44l-69.5-.259-.573-189c-.588-194.304-.531-191.628-4.548-213.376-11.866-64.245-52.949-116.753-108.73-138.971-23.448-9.34-46.009-13.424-74.149-13.424-33.439 0-60.003 5.936-87 19.441-45.48 22.752-79.161 66.32-92.533 119.694-6.83 27.262-6.361 11.67-6.668 221.636-.153 104.5-.516 191.012-.808 192.25l-.53 2.25H597.45c-54.698 0-69.61-.266-69.973-1.25z" id="path3246"/><path style="fill:#3b7386" d="M579 1035.385c-1.375-.257-3.4-.864-4.5-1.347l-7.5-3.298c-3.025-1.331-6.87-3.58-8.546-4.997-3.855-3.262-8.038-10.98-8.937-16.493l-.693-4.25h9.916l1.31 4.68c2.752 9.828 12.05 15.328 25.878 15.31 15.488-.02 25.803-8.95 23.642-20.467-1.4-7.466-6.595-11.032-27.004-18.538-7.664-2.818-15.314-5.835-17-6.703-9.72-5.005-13.818-11.156-13.813-20.737.006-10.586 4.333-16.993 15.005-22.22 5.343-2.616 6.577-2.809 17.742-2.775 13.349.04 17.976 1.417 24.748 7.363 3.694 3.243 7.752 10.612 7.752 14.076 0 1.715-.659 2.011-4.48 2.011-4.17 0-4.612-.26-6.393-3.75-3.973-7.784-9.67-10.67-21.127-10.705-7.24-.022-9.154.343-12.911 2.464-5.686 3.21-8.186 6.676-8.81 12.211-.605 5.368 1.336 9.658 5.813 12.846 1.718 1.223 10.578 4.838 19.69 8.033 19.292 6.765 25.642 10.589 29.57 17.806 2.127 3.909 2.648 6.202 2.648 11.665 0 10.855-4.914 18.418-14.961 23.025a328.824 328.824 0 0 0-6.539 3.097c-3.035 1.492-15.903 2.554-20.5 1.693zm533.75-.056c-2.063-.247-3.75-.872-3.75-1.39 0-.516-.638-.939-1.417-.939-2.942 0-10.579-4-14.66-7.68-4.795-4.323-8.899-12.207-8.913-17.125l-.01-3.304 4.645.304c4.545.299 4.672.399 5.934 4.69 1.64 5.578 6.296 10.385 12.746 13.16 4.285 1.843 6.457 2.116 14.167 1.779 7.74-.339 9.822-.818 13.87-3.19 6.058-3.55 8.63-7.7 8.634-13.933.01-9.77-4.737-13.71-25.496-21.176-21.353-7.68-26.967-11.169-30.604-19.025-2.05-4.427-2.41-11.107-.895-16.565 1.546-5.565 7.098-11.247 14.185-14.52 5.831-2.692 7.193-2.913 17.814-2.89 14.007.032 19.648 2.065 26.325 9.492 4.041 4.495 7.197 11.329 6.073 13.148-.284.46-2.402.829-4.707.82-3.974-.013-4.33-.265-6.873-4.877-1.994-3.618-3.84-5.424-7.205-7.053-5.843-2.829-13.998-3.642-20.612-2.055-6.58 1.579-13.917 8.095-14.16 12.579-.645 11.89 1.98 14.252 24.69 22.23 21.904 7.693 27.047 10.942 31.102 19.65 6.173 13.257-.822 28.753-15.411 34.142-2.597.959-5.301 2.185-6.008 2.724-1.42 1.082-13.58 1.71-19.464 1.004zm102.25-1.327c-.825-.485-4.096-2.013-7.27-3.395-15.085-6.573-23.757-23.733-23.713-46.922.044-23.334 8.1-39.187 23.857-46.943 6.27-3.087 7.134-3.242 18.105-3.242 10.505 0 12.044.245 17.451 2.777 11.828 5.54 18.944 14.13 22.787 27.51 2.346 8.167 2.812 27.7.876 36.713-3.036 14.134-11.083 24.772-22.777 30.114-3.199 1.461-6.597 3.046-7.552 3.521-2.253 1.122-19.81 1.015-21.764-.133zm21.572-10.678c6.563-2.231 15.262-10.966 17.707-17.78 2.89-8.056 4.296-22.316 3.051-30.957-1.194-8.289-5.941-19.493-10.14-23.93-1.48-1.564-4.94-4.032-7.69-5.486-4.262-2.252-6.255-2.645-13.5-2.657-7.588-.012-9.082.308-13.92 2.986-10.707 5.926-16.077 16.854-16.84 34.268-1.025 23.418 4.645 36.08 19.195 42.854 6.165 2.871 14.94 3.15 22.137.702zM-.001 984.127-.002 934.5l9.751.242c5.363.133 16.051.358 23.751.5 13.01.24 14.4.454 19.66 3.038 7.49 3.678 12.334 9.17 14.422 16.354 4.52 15.548-4.242 31.734-19.221 35.505-2.956.745-4.361 1.633-4.361 2.759 0 .913 5.885 10.197 13.079 20.631l13.079 18.971-5.717.304c-3.144.167-6.252.099-6.906-.152-.654-.251-6.93-9.517-13.947-20.59l-12.757-20.135-9.165.287-9.166.286-.271 19.79c-.2 14.577-.595 19.89-1.5 20.17-.676.21-3.366.588-5.979.838l-4.75.456-.001-49.627zm47.14-1.912c14.756-7.27 14.454-28.663-.515-36.447-3.406-1.772-6.338-2.22-16.84-2.574-6.992-.235-13.855-.142-15.25.208l-2.534.636v19.814c0 10.898.33 20.145.735 20.55.404.404 7.267.592 15.25.416 12.71-.278 15.092-.602 19.153-2.603zM109 984v-49h59v8h-23.378c-18.68 0-23.608.278-24.525 1.383-.787.948-1.061 6.529-.872 17.75l.275 16.367 22.807.269 22.806.269-.306 4.23-.307 4.232-22.5.5-22.5.5v35l24.25.268 24.25.268V1033h-59v-49zm88 48.27c0-.459 7.425-22.344 16.5-48.634s16.5-48.008 16.5-48.262c0-.254 3.263-.33 7.25-.168l7.25.294 16.174 48c8.896 26.4 16.208 48.361 16.25 48.802.042.442-2.286.667-5.174.5l-5.25-.302-4.136-11.87c-2.275-6.53-4.75-12.26-5.5-12.735-2.268-1.437-38.582-1.114-39.942.355-.637.688-3.02 6.425-5.296 12.75l-4.139 11.5-5.243.302c-2.884.167-5.244-.073-5.244-.532zm56-33.268c1.28-.826.313-4.46-6.58-24.735-5.559-16.35-8.57-23.862-9.649-24.07-1.222-.238-3.249 4.736-9.17 22.5-4.18 12.542-7.601 23.554-7.601 24.47 0 .917.563 1.893 1.25 2.17 2.32.937 30.236.641 31.75-.335zM310 984v-49h10v43.3c0 32.344.304 43.604 1.2 44.5.858.858 7.267 1.2 22.5 1.2H365v9h-55v-49zm145 .015V935h59v8h-23.378c-18.68 0-23.608.278-24.525 1.383-.787.948-1.061 6.529-.872 17.75l.275 16.367 22.5.5 22.5.5v8l-22.5.5-22.5.5v35l24.307.268 24.306.268-.306 4.232-.307 4.232-29.25.265-29.25.265v-49.015zm220 5.185c0-32.733-.303-44.103-1.2-45-.829-.829-5.933-1.2-16.5-1.2H642v-8h76v8h-15.3c-10.567 0-15.671.371-16.5 1.2-.897.897-1.2 12.267-1.2 45v43.8h-10v-43.8zm58.005 42.602c.002-.716 7.364-22.677 16.36-48.802l16.357-47.5 7.037-.292 7.036-.291 3.497 10.291C799.418 992.666 812 1030.56 812 1031.667c0 .93-1.484 1.333-4.905 1.333h-4.906l-2.96-8.25c-1.627-4.537-3.506-9.941-4.174-12.008-.668-2.066-2.05-4.204-3.07-4.75-2.826-1.512-37.205-1.287-39.291.258-.929.688-3.415 6.425-5.525 12.75l-3.837 11.5-5.166.302c-3.733.219-5.165-.059-5.162-1zm55.701-33.48c.367-.954-2.702-11.745-7.125-25.055-6.064-18.248-8.113-23.31-9.34-23.072-2.29.445-17.629 46.633-16.098 48.477.829.999 4.923 1.328 16.51 1.328 13.5 0 15.49-.208 16.053-1.677zm68.007 34.057c-.392-.392-.713-20.39-.713-44.439 0-38.95-.173-43.792-1.582-44.333-.87-.334-8.07-.607-16-.607H824v-8.024l37.75.262 37.75.262v7l-15.149.276c-11.014.2-15.446.634-16.239 1.589-.741.893-1.174 15.216-1.351 44.725l-.261 43.41-4.537.296c-2.496.163-4.858-.025-5.25-.417zM929 984v-49h59v8h-23.378c-18.68 0-23.608.278-24.525 1.383-.787.948-1.061 6.529-.872 17.75l.275 16.367 22.5.5 22.5.5v8l-22.5.5-22.5.5v35l24.25.268 24.25.268V1033h-59v-49zm372.48 47.805c-.276-.718-.384-22.68-.24-48.805l.26-47.5 29.25-.265 29.25-.265V943h-22.8c-16.4 0-23.137.337-24 1.2-.835.835-1.2 6.132-1.2 17.393 0 13.843.23 16.281 1.582 16.8.87.334 11.02.607 22.557.607h20.976l-.308 4.25-.307 4.25-22 .5-22 .5-.5 22-.5 22-4.76.305c-3.226.207-4.922-.115-5.26-1zm114.52-41.87c0-27.775-.368-43.753-1.035-45-.955-1.785-2.234-1.935-16.5-1.935H1383v-8h76v8h-15.3c-10.567 0-15.671.371-16.5 1.2-.897.897-1.2 12.267-1.2 45v43.8h-10v-43.066zm92.553 42.15c-.748-1.21-30.553-95.236-30.553-96.385 0-.44 2.572-.665 5.716-.5l5.716.3 9.771 33.5c13.913 47.699 13.687 47 15.243 47 1.71 0 2.15-1.168 14.901-39.5l10.312-31 3.52-.301 3.52-.302 11.9 35.166c10.519 31.082 13.193 37.479 14.937 35.734.247-.247 6.588-18.528 14.091-40.623L1601.268 935h5.366c3.635 0 5.36.403 5.35 1.25-.01.688-7.585 22.625-16.835 48.75l-16.817 47.5-5.68.3-5.68.3-1.831-4.3c-1.007-2.365-5.774-16.145-10.593-30.623-7.923-23.799-10.211-28.847-12.184-26.874-.303.302-5.354 14.195-11.226 30.873l-10.677 30.324-5.642.297c-3.103.164-5.923-.157-6.266-.712zm119.12.165c-.244-.412 7.028-22.462 16.16-49l16.604-48.25 7.032.013 7.031.013 16.25 48.245c8.938 26.535 16.25 48.602 16.25 49.04 0 .436-2.362.658-5.25.491l-5.25-.302-4.042-11.813c-2.224-6.497-4.699-12.227-5.5-12.734-1.58-1-36.817-1.328-39.322-.367-.877.337-3.1 5.343-5.216 11.75-2.028 6.14-4.133 11.727-4.676 12.414-1.06 1.34-9.33 1.75-10.07.5zM1683 999.018c1.278-.811.318-4.465-6.5-24.735-5.69-16.918-8.433-23.783-9.5-23.783-1.067 0-3.81 6.865-9.5 23.783-6.818 20.27-7.778 23.924-6.5 24.735.825.523 8.025.951 16 .951s15.175-.428 16-.951zM1740 984v-49h21.525c18.82 0 22.226.247 27.105 1.961 10.72 3.768 16.661 10.447 18.48 20.775 2.649 15.036-5.413 28.168-19.86 32.35-2.958.857-4.25 1.774-4.25 3.02 0 .984 5.625 9.919 12.5 19.855 6.875 9.935 12.5 18.53 12.5 19.1 0 .634-2.418.92-6.25.737l-6.25-.298-5-7.78c-2.75-4.28-8.6-13.28-13-20l-8-12.22-8.347-.292c-5.294-.185-8.86.134-9.75.872-1.116.926-1.403 5.133-1.403 20.542V1033h-10v-49zm42.078-.141c15.073-4.517 19.734-23.183 8.649-34.636-4.604-4.757-10.7-6.223-25.873-6.223-11.615 0-12.878.177-13.819 1.934-1.52 2.84-1.374 37.327.165 38.866 1.576 1.576 25.66 1.622 30.878.059zm59.604 48.49c-.375-.376-.682-22.439-.682-49.03V934.97l29.75.265 29.75.265v7l-23.5.26c-20.665.227-23.65.462-24.75 1.94-1.825 2.455-1.756 31.635.078 33.158.855.71 9.135 1.198 23.25 1.372l21.922.27v8l-22.453.27c-16.432.197-22.663.6-23.235 1.5-.43.676-.788 8.262-.797 16.858-.012 11.796.31 15.898 1.315 16.73.864.718 9.524 1.198 24.75 1.373l23.42.269v8l-29.069.265c-15.987.145-29.375-.042-29.75-.417zm34.795-184.447c-35.127-19.514-63.511-48.182-87.847-88.727-29.007-48.326-45.024-102.05-48.65-163.175-.774-13.037-.888-73.518-.387-204.799.643-168.903.857-186.242 2.284-185.695 2.314.888 22.839 15.757 32.905 23.838 29.497 23.678 56.033 50.503 74.38 75.191 23.572 31.717 36.679 62.388 40.785 95.439 2.002 16.112.666 454.026-1.385 454.026-.61 0-6.048-2.744-12.085-6.098zM527.731 658.25c-.36-210.992.077-197.307-7.19-225.66-12.125-47.308-38.102-84.977-76.041-110.266-45.304-30.2-112.019-38.023-167.5-19.644-32.959 10.918-64.232 33.264-83.337 59.547-2.29 3.15-4.91 5.98-5.821 6.289-2.637.892-12.638 18.425-18.815 32.984-4.867 11.472-8.156 22.008-11.418 36.582-5.665 25.312-5.589 22.291-5.6 223.061-.008 167.442-.156 184.7-1.59 185.25-.87.334-31.659.607-68.419.607s-67.548-.273-68.418-.607c-1.438-.552-1.582-29.237-1.582-315C12 345.288 12.368 217 12.902 217c.496 0 5.108 3.223 10.25 7.162 11.42 8.75 30.907 28.223 44.368 44.34 5.664 6.782 10.89 12.124 12.02 12.287 1.473.214 4.04-2.189 9.732-9.106 8.635-10.495 29.578-31.213 40.245-39.813 47.835-38.564 102.092-61.16 166.983-69.54 21.718-2.804 69.809-2.532 89.5.508 25.76 3.976 52.61 11.378 74 20.4 13.338 5.625 28.23 13.21 33.428 17.026 2.425 1.78 9.058 6.254 14.74 9.943 28.91 18.769 56.912 46.607 76.237 75.793 4.553 6.875 9.034 13.738 9.96 15.25.924 1.512 2.3 2.75 3.055 2.75.755 0 3.532-3.487 6.171-7.75 30.635-49.478 74.939-88.039 126.509-110.107 38.735-16.576 78.085-24.21 124.8-24.21 54.852 0 101.179 10.132 147.1 32.17 64.251 30.837 113.329 79.699 145.033 144.397 17.013 34.718 26.879 67.337 32.364 107 3.47 25.094 3.708 40.582 3.403 222.5l-.3 179.5h-140l-.542-191.5c-.6-211.862-.13-196.89-7.03-223.74C1017.382 363.978 968.99 314.58 904 298.614c-28.75-7.064-66.902-7.48-94.702-1.032-31.51 7.308-61.33 23.009-83.146 43.778-23.992 22.842-43.658 57.864-52.169 92.906-6.794 27.975-6.356 13.412-6.716 223.483L666.94 848H528.055l-.324-189.75z" id="path3244"/><path style="fill:#5f6062" d="M579 1035.385c-1.375-.257-3.4-.864-4.5-1.347l-7.5-3.298c-3.025-1.331-6.87-3.58-8.546-4.997-3.855-3.262-8.038-10.98-8.937-16.493l-.693-4.25h9.916l1.31 4.68c2.752 9.828 12.05 15.328 25.878 15.31 15.488-.02 25.803-8.95 23.642-20.467-1.4-7.466-6.595-11.032-27.004-18.538-7.664-2.818-15.314-5.835-17-6.703-9.72-5.005-13.818-11.156-13.813-20.737.006-10.586 4.333-16.993 15.005-22.22 5.343-2.616 6.577-2.809 17.742-2.775 13.349.04 17.976 1.417 24.748 7.363 3.694 3.243 7.752 10.612 7.752 14.076 0 1.715-.659 2.011-4.48 2.011-4.17 0-4.612-.26-6.393-3.75-3.973-7.784-9.67-10.67-21.127-10.705-7.24-.022-9.154.343-12.911 2.464-5.686 3.21-8.186 6.676-8.81 12.211-.605 5.368 1.336 9.658 5.813 12.846 1.718 1.223 10.578 4.838 19.69 8.033 19.292 6.765 25.642 10.589 29.57 17.806 2.127 3.909 2.648 6.202 2.648 11.665 0 10.855-4.914 18.418-14.961 23.025a328.824 328.824 0 0 0-6.539 3.097c-3.035 1.492-15.903 2.554-20.5 1.693zm533.75-.056c-2.063-.247-3.75-.872-3.75-1.39 0-.516-.638-.939-1.417-.939-2.942 0-10.579-4-14.66-7.68-4.795-4.323-8.899-12.207-8.913-17.125l-.01-3.304 4.645.304c4.545.299 4.672.399 5.934 4.69 1.64 5.578 6.296 10.385 12.746 13.16 4.285 1.843 6.457 2.116 14.167 1.779 7.74-.339 9.822-.818 13.87-3.19 6.058-3.55 8.63-7.7 8.634-13.933.01-9.77-4.737-13.71-25.496-21.176-21.353-7.68-26.967-11.169-30.604-19.025-2.05-4.427-2.41-11.107-.895-16.565 1.546-5.565 7.098-11.247 14.185-14.52 5.831-2.692 7.193-2.913 17.814-2.89 14.007.032 19.648 2.065 26.325 9.492 4.041 4.495 7.197 11.329 6.073 13.148-.284.46-2.402.829-4.707.82-3.974-.013-4.33-.265-6.873-4.877-1.994-3.618-3.84-5.424-7.205-7.053-5.843-2.829-13.998-3.642-20.612-2.055-6.58 1.579-13.917 8.095-14.16 12.579-.645 11.89 1.98 14.252 24.69 22.23 21.904 7.693 27.047 10.942 31.102 19.65 6.173 13.257-.822 28.753-15.411 34.142-2.597.959-5.301 2.185-6.008 2.724-1.42 1.082-13.58 1.71-19.464 1.004zm102.25-1.327c-.825-.485-4.096-2.013-7.27-3.395-15.085-6.573-23.757-23.733-23.713-46.922.044-23.334 8.1-39.187 23.857-46.943 6.27-3.087 7.134-3.242 18.105-3.242 10.505 0 12.044.245 17.451 2.777 11.828 5.54 18.944 14.13 22.787 27.51 2.346 8.167 2.812 27.7.876 36.713-3.036 14.134-11.083 24.772-22.777 30.114-3.199 1.461-6.597 3.046-7.552 3.521-2.253 1.122-19.81 1.015-21.764-.133zm21.572-10.678c6.563-2.231 15.262-10.966 17.707-17.78 2.89-8.056 4.296-22.316 3.051-30.957-1.194-8.289-5.941-19.493-10.14-23.93-1.48-1.564-4.94-4.032-7.69-5.486-4.262-2.252-6.255-2.645-13.5-2.657-7.588-.012-9.082.308-13.92 2.986-10.707 5.926-16.077 16.854-16.84 34.268-1.025 23.418 4.645 36.08 19.195 42.854 6.165 2.871 14.94 3.15 22.137.702zM-.001 984.127-.002 934.5l9.751.242c5.363.133 16.051.358 23.751.5 13.01.24 14.4.454 19.66 3.038 7.49 3.678 12.334 9.17 14.422 16.354 4.52 15.548-4.242 31.734-19.221 35.505-2.956.745-4.361 1.633-4.361 2.759 0 .913 5.885 10.197 13.079 20.631l13.079 18.971-5.717.304c-3.144.167-6.252.099-6.906-.152-.654-.251-6.93-9.517-13.947-20.59l-12.757-20.135-9.165.287-9.166.286-.271 19.79c-.2 14.577-.595 19.89-1.5 20.17-.676.21-3.366.588-5.979.838l-4.75.456-.001-49.627zm47.14-1.912c14.756-7.27 14.454-28.663-.515-36.447-3.406-1.772-6.338-2.22-16.84-2.574-6.992-.235-13.855-.142-15.25.208l-2.534.636v19.814c0 10.898.33 20.145.735 20.55.404.404 7.267.592 15.25.416 12.71-.278 15.092-.602 19.153-2.603zM109 984v-49h59v8h-23.378c-18.68 0-23.608.278-24.525 1.383-.787.948-1.061 6.529-.872 17.75l.275 16.367 22.807.269 22.806.269-.306 4.23-.307 4.232-22.5.5-22.5.5v35l24.25.268 24.25.268V1033h-59v-49zm88 48.27c0-.459 7.425-22.344 16.5-48.634s16.5-48.008 16.5-48.262c0-.254 3.263-.33 7.25-.168l7.25.294 16.174 48c8.896 26.4 16.208 48.361 16.25 48.802.042.442-2.286.667-5.174.5l-5.25-.302-4.136-11.87c-2.275-6.53-4.75-12.26-5.5-12.735-2.268-1.437-38.582-1.114-39.942.355-.637.688-3.02 6.425-5.296 12.75l-4.139 11.5-5.243.302c-2.884.167-5.244-.073-5.244-.532zm56-33.268c1.28-.826.313-4.46-6.58-24.735-5.559-16.35-8.57-23.862-9.649-24.07-1.222-.238-3.249 4.736-9.17 22.5-4.18 12.542-7.601 23.554-7.601 24.47 0 .917.563 1.893 1.25 2.17 2.32.937 30.236.641 31.75-.335zM310 984v-49h10v43.3c0 32.344.304 43.604 1.2 44.5.858.858 7.267 1.2 22.5 1.2H365v9h-55v-49zm145 .015V935h59v8h-23.378c-18.68 0-23.608.278-24.525 1.383-.787.948-1.061 6.529-.872 17.75l.275 16.367 22.5.5 22.5.5v8l-22.5.5-22.5.5v35l24.307.268 24.306.268-.306 4.232-.307 4.232-29.25.265-29.25.265v-49.015zm220 5.185c0-32.733-.303-44.103-1.2-45-.829-.829-5.933-1.2-16.5-1.2H642v-8h76v8h-15.3c-10.567 0-15.671.371-16.5 1.2-.897.897-1.2 12.267-1.2 45v43.8h-10v-43.8zm58.005 42.602c.002-.716 7.364-22.677 16.36-48.802l16.357-47.5 7.037-.292 7.036-.291 3.497 10.291C799.418 992.666 812 1030.56 812 1031.667c0 .93-1.484 1.333-4.905 1.333h-4.906l-2.96-8.25c-1.627-4.537-3.506-9.941-4.174-12.008-.668-2.066-2.05-4.204-3.07-4.75-2.826-1.512-37.205-1.287-39.291.258-.929.688-3.415 6.425-5.525 12.75l-3.837 11.5-5.166.302c-3.733.219-5.165-.059-5.162-1zm55.701-33.48c.367-.954-2.702-11.745-7.125-25.055-6.064-18.248-8.113-23.31-9.34-23.072-2.29.445-17.629 46.633-16.098 48.477.829.999 4.923 1.328 16.51 1.328 13.5 0 15.49-.208 16.053-1.677zm68.007 34.057c-.392-.392-.713-20.39-.713-44.439 0-38.95-.173-43.792-1.582-44.333-.87-.334-8.07-.607-16-.607H824v-8.024l37.75.262 37.75.262v7l-15.149.276c-11.014.2-15.446.634-16.239 1.589-.741.893-1.174 15.216-1.351 44.725l-.261 43.41-4.537.296c-2.496.163-4.858-.025-5.25-.417zM929 984v-49h59v8h-23.378c-18.68 0-23.608.278-24.525 1.383-.787.948-1.061 6.529-.872 17.75l.275 16.367 22.5.5 22.5.5v8l-22.5.5-22.5.5v35l24.25.268 24.25.268V1033h-59v-49zm372.48 47.805c-.276-.718-.384-22.68-.24-48.805l.26-47.5 29.25-.265 29.25-.265V943h-22.8c-16.4 0-23.137.337-24 1.2-.835.835-1.2 6.132-1.2 17.393 0 13.843.23 16.281 1.582 16.8.87.334 11.02.607 22.557.607h20.976l-.308 4.25-.307 4.25-22 .5-22 .5-.5 22-.5 22-4.76.305c-3.226.207-4.922-.115-5.26-1zm114.52-41.87c0-27.775-.368-43.753-1.035-45-.955-1.785-2.234-1.935-16.5-1.935H1383v-8h76v8h-15.3c-10.567 0-15.671.371-16.5 1.2-.897.897-1.2 12.267-1.2 45v43.8h-10v-43.066zm92.553 42.15c-.748-1.21-30.553-95.236-30.553-96.385 0-.44 2.572-.665 5.716-.5l5.716.3 9.771 33.5c13.913 47.699 13.687 47 15.243 47 1.71 0 2.15-1.168 14.901-39.5l10.312-31 3.52-.301 3.52-.302 11.9 35.166c10.519 31.082 13.193 37.479 14.937 35.734.247-.247 6.588-18.528 14.091-40.623L1601.268 935h5.366c3.635 0 5.36.403 5.35 1.25-.01.688-7.585 22.625-16.835 48.75l-16.817 47.5-5.68.3-5.68.3-1.831-4.3c-1.007-2.365-5.774-16.145-10.593-30.623-7.923-23.799-10.211-28.847-12.184-26.874-.303.302-5.354 14.195-11.226 30.873l-10.677 30.324-5.642.297c-3.103.164-5.923-.157-6.266-.712zm119.12.165c-.244-.412 7.028-22.462 16.16-49l16.604-48.25 7.032.013 7.031.013 16.25 48.245c8.938 26.535 16.25 48.602 16.25 49.04 0 .436-2.362.658-5.25.491l-5.25-.302-4.042-11.813c-2.224-6.497-4.699-12.227-5.5-12.734-1.58-1-36.817-1.328-39.322-.367-.877.337-3.1 5.343-5.216 11.75-2.028 6.14-4.133 11.727-4.676 12.414-1.06 1.34-9.33 1.75-10.07.5zM1683 999.018c1.278-.811.318-4.465-6.5-24.735-5.69-16.918-8.433-23.783-9.5-23.783-1.067 0-3.81 6.865-9.5 23.783-6.818 20.27-7.778 23.924-6.5 24.735.825.523 8.025.951 16 .951s15.175-.428 16-.951zM1740 984v-49h21.525c18.82 0 22.226.247 27.105 1.961 10.72 3.768 16.661 10.447 18.48 20.775 2.649 15.036-5.413 28.168-19.86 32.35-2.958.857-4.25 1.774-4.25 3.02 0 .984 5.625 9.919 12.5 19.855 6.875 9.935 12.5 18.53 12.5 19.1 0 .634-2.418.92-6.25.737l-6.25-.298-5-7.78c-2.75-4.28-8.6-13.28-13-20l-8-12.22-8.347-.292c-5.294-.185-8.86.134-9.75.872-1.116.926-1.403 5.133-1.403 20.542V1033h-10v-49zm42.078-.141c15.073-4.517 19.734-23.183 8.649-34.636-4.604-4.757-10.7-6.223-25.873-6.223-11.615 0-12.878.177-13.819 1.934-1.52 2.84-1.374 37.327.165 38.866 1.576 1.576 25.66 1.622 30.878.059zm59.604 48.49c-.375-.376-.682-22.439-.682-49.03V934.97l29.75.265 29.75.265v7l-23.5.26c-20.665.227-23.65.462-24.75 1.94-1.825 2.455-1.756 31.635.078 33.158.855.71 9.135 1.198 23.25 1.372l21.922.27v8l-22.453.27c-16.432.197-22.663.6-23.235 1.5-.43.676-.788 8.262-.797 16.858-.012 11.796.31 15.898 1.315 16.73.864.718 9.524 1.198 24.75 1.373l23.42.269v8l-29.069.265c-15.987.145-29.375-.042-29.75-.417zM1878 847.73c-18.12-10.05-30.243-19.05-45.398-33.697-33.362-32.244-61.328-80.165-77.053-132.033-7.333-24.188-12.476-52.994-14.497-81.187-1.303-18.193-1.471-393.436-.176-394.236 1.87-1.156 33.666 22.95 54.045 40.973 50.984 45.089 81.396 90.906 92.231 138.95 2.246 9.96 2.257 10.411 2.631 113 .422 115.646-.692 353.5-1.656 353.5-.345 0-4.902-2.371-10.127-5.27zM528.73 658.25c-.363-205.939-.039-194.176-6.079-220.75-8.561-37.668-27.882-72.495-53.83-97.033-25.246-23.873-55.568-38.8-92.822-45.696-15.568-2.88-54.36-3.139-69-.458-30.606 5.603-55.292 15.638-77.2 31.381-10.298 7.4-25.194 21.47-33.055 31.22-3.364 4.172-7.945 9.411-10.18 11.642-2.236 2.232-6.627 8.85-9.757 14.706-10.934 20.455-18.717 43.483-22.218 65.738-.822 5.225-1.81 11.075-2.195 13-.386 1.925-.97 89-1.298 193.5l-.597 190h-137l-.252-313.82-.251-313.818 3.251 2.265c14.452 10.066 33.174 28.133 49.265 47.54C76.36 280.754 77.627 282 80.05 282c.918 0 6.218-5.33 11.777-11.846 50.53-59.224 120.237-95.778 203.672-106.804 19.928-2.633 70.64-2.63 88 .007 23.95 3.638 43.555 8.5 64 15.874 12.028 4.339 40.135 17.512 43.126 20.213 1.03.93 8.185 5.824 15.9 10.874 16.851 11.032 26.395 18.665 40.834 32.657 16.874 16.352 36.034 40.605 45.606 57.728 2.43 4.347 4.014 5.588 5.684 4.454.533-.361 3.178-4.257 5.877-8.657 36.26-59.11 92.426-101.992 158.973-121.374 58.085-16.918 126.199-16.757 187.298.442 42.832 12.057 83.868 33.839 117.702 62.476 10.656 9.019 32.432 31.394 40.833 41.956 41.516 52.194 66.227 117.384 71.641 189 .642 8.478 1.022 81.295 1.024 195.75V847h-138.951l-.315-190.75c-.35-211.073.144-194.954-6.836-223.25-11.651-47.228-39.422-87.18-78.14-112.417-30.79-20.07-68.618-29.739-110.702-28.297-63.599 2.18-116 30.936-148.516 81.501-11.285 17.55-21.867 43.386-26.506 64.713-5.706 26.234-5.41 14.951-5.766 219.75L665.938 847H529.062l-.333-188.75z" id="path3242"/><path style="fill:#004c65" d="M1878 847.73c-18.12-10.05-30.243-19.05-45.398-33.697-33.362-32.244-61.328-80.165-77.053-132.033-7.333-24.188-12.476-52.994-14.497-81.187-1.303-18.193-1.471-393.436-.176-394.236 1.87-1.156 33.666 22.95 54.045 40.973 50.984 45.089 81.396 90.906 92.231 138.95 2.246 9.96 2.257 10.411 2.631 113 .422 115.646-.692 353.5-1.656 353.5-.345 0-4.902-2.371-10.127-5.27zM528.73 658.25c-.363-205.939-.039-194.176-6.079-220.75-8.561-37.668-27.882-72.495-53.83-97.033-25.246-23.873-55.568-38.8-92.822-45.696-15.568-2.88-54.36-3.139-69-.458-30.606 5.603-55.292 15.638-77.2 31.381-10.298 7.4-25.194 21.47-33.055 31.22-3.364 4.172-7.945 9.411-10.18 11.642-2.236 2.232-6.627 8.85-9.757 14.706-10.934 20.455-18.717 43.483-22.218 65.738-.822 5.225-1.81 11.075-2.195 13-.386 1.925-.97 89-1.298 193.5l-.597 190h-137l-.252-313.82-.251-313.818 3.251 2.265c14.452 10.066 33.174 28.133 49.265 47.54C76.36 280.754 77.627 282 80.05 282c.918 0 6.218-5.33 11.777-11.846 50.53-59.224 120.237-95.778 203.672-106.804 19.928-2.633 70.64-2.63 88 .007 23.95 3.638 43.555 8.5 64 15.874 12.028 4.339 40.135 17.512 43.126 20.213 1.03.93 8.185 5.824 15.9 10.874 16.851 11.032 26.395 18.665 40.834 32.657 16.874 16.352 36.034 40.605 45.606 57.728 2.43 4.347 4.014 5.588 5.684 4.454.533-.361 3.178-4.257 5.877-8.657 36.26-59.11 92.426-101.992 158.973-121.374 58.085-16.918 126.199-16.757 187.298.442 42.832 12.057 83.868 33.839 117.702 62.476 10.656 9.019 32.432 31.394 40.833 41.956 41.516 52.194 66.227 117.384 71.641 189 .642 8.478 1.022 81.295 1.024 195.75V847h-138.951l-.315-190.75c-.35-211.073.144-194.954-6.836-223.25-11.651-47.228-39.422-87.18-78.14-112.417-30.79-20.07-68.618-29.739-110.702-28.297-63.599 2.18-116 30.936-148.516 81.501-11.285 17.55-21.867 43.386-26.506 64.713-5.706 26.234-5.41 14.951-5.766 219.75L665.938 847H529.062l-.333-188.75z" id="path3240"/></g></svg>