<svg id="ResMan_by_Inhabit_IQ" xmlns="http://www.w3.org/2000/svg" xmlns:xlink="http://www.w3.org/1999/xlink" viewBox="0 0 716.33 201.68"><defs><style>.cls-1{fill:#f89621}.cls-2{fill:#04a6e1}</style></defs><path class="cls-1" d="M564.17 170.59c-.2-.2-.3-.44-.3-.72v-3.09c0-.31.1-.56.3-.76.2-.2.44-.3.72-.3h3.89a1.025 1.025 0 0 1 1.06 1.06v3.09c0 .28-.11.52-.32.72-.21.2-.46.3-.74.3h-3.89c-.28 0-.52-.1-.72-.3Zm108.05 0c-.2-.2-.3-.44-.3-.72v-3.09c0-.31.1-.56.3-.76.2-.2.44-.3.72-.3h3.89a1.025 1.025 0 0 1 1.06 1.06v3.09c0 .28-.11.52-.32.72-.21.2-.46.3-.74.3h-3.89c-.28 0-.52-.1-.72-.3Zm-98.41 24.88c-.2-.2-.3-.44-.3-.72v-19.97c0-.31.1-.56.3-.74.2-.18.44-.28.72-.28h3.51c.31 0 .56.09.74.28.18.18.27.43.27.74v1.73c1.72-2.12 4.08-3.17 7.07-3.17 2.59 0 4.65.85 6.18 2.54s2.28 4.02 2.28 6.98v11.89c0 .28-.09.52-.28.72-.18.2-.43.3-.74.3h-3.81c-.28 0-.52-.1-.72-.3-.2-.2-.3-.44-.3-.72v-11.63c0-1.64-.4-2.91-1.21-3.83-.8-.92-1.95-1.37-3.45-1.37s-2.6.47-3.47 1.4c-.87.93-1.31 2.2-1.31 3.81v11.63c0 .28-.09.52-.27.72-.18.2-.43.3-.74.3h-3.76c-.28 0-.52-.1-.72-.3Zm24.89 0c-.2-.2-.3-.44-.3-.72v-28.01c0-.31.1-.56.3-.74.2-.18.44-.27.72-.27h3.85c.31 0 .56.09.74.27.18.18.27.43.27.74v9.65c1.69-2.03 3.96-3.05 6.81-3.05 2.59 0 4.67.85 6.22 2.56 1.55 1.71 2.33 4.03 2.33 6.96v11.89c0 .28-.09.52-.27.72-.18.2-.43.3-.74.3h-3.85c-.31 0-.56-.1-.76-.3-.2-.2-.3-.44-.3-.72v-11.63c0-1.64-.4-2.91-1.21-3.83-.8-.92-1.95-1.37-3.45-1.37s-2.6.47-3.47 1.4c-.88.93-1.31 2.2-1.31 3.81v11.63c0 .28-.09.52-.27.72-.18.2-.43.3-.74.3h-3.85c-.28 0-.52-.1-.72-.3Zm28.23-.15c-1.2-.58-2.14-1.36-2.83-2.35s-1.04-2.07-1.04-3.26c0-1.92.78-3.47 2.33-4.65 1.55-1.18 3.68-1.99 6.39-2.41l5.8-.85v-.89c0-1.21-.31-2.13-.93-2.75-.62-.62-1.61-.93-2.96-.93-.93 0-1.68.17-2.24.51s-1.02.68-1.37 1.04l-.7.7c-.11.34-.32.51-.63.51h-3.3c-.25 0-.47-.08-.66-.25-.18-.17-.27-.39-.27-.68.03-.7.37-1.5 1.04-2.39.66-.89 1.69-1.66 3.07-2.33 1.38-.66 3.09-.99 5.12-.99 3.33 0 5.75.75 7.28 2.24 1.52 1.5 2.28 3.45 2.28 5.88v13.28c0 .28-.09.52-.27.72-.18.2-.43.3-.74.3h-3.51c-.28 0-.52-.1-.72-.3-.2-.2-.3-.44-.3-.72v-1.65c-.62.9-1.5 1.64-2.62 2.22-1.13.58-2.54.87-4.23.87-1.44 0-2.76-.29-3.96-.87Zm9.2-4.72c.99-1.02 1.48-2.48 1.48-4.4v-.85l-4.23.68c-3.24.51-4.87 1.59-4.87 3.26 0 .9.37 1.6 1.12 2.09.75.49 1.64.74 2.69.74 1.55 0 2.82-.51 3.81-1.52Zm16.41 2.59v1.57c0 .28-.1.52-.3.72-.2.2-.45.3-.76.3h-3.38c-.28 0-.52-.1-.72-.3-.2-.2-.3-.44-.3-.72v-28.01c0-.31.1-.56.3-.74.2-.18.44-.27.72-.27h3.68c.31 0 .56.09.74.27.18.18.27.43.27.74v9.39c1.58-1.86 3.74-2.79 6.47-2.79s5.04.92 6.58 2.77 2.35 4.27 2.43 7.26c.03.34.04.8.04 1.4s-.01 1.03-.04 1.4c-.11 3.05-.93 5.48-2.45 7.3-1.52 1.82-3.71 2.73-6.56 2.73s-5.18-1-6.73-3Zm9.94-7.15c.03-.28.04-.7.04-1.27s-.01-.99-.04-1.27c-.2-3.72-1.8-5.58-4.82-5.58-1.55 0-2.74.49-3.55 1.48-.82.99-1.26 2.19-1.31 3.6-.03.34-.04.89-.04 1.65s.01 1.27.04 1.61c.06 1.5.48 2.76 1.27 3.81.79 1.04 1.99 1.57 3.6 1.57 3.02 0 4.62-1.86 4.82-5.58Zm21.03 7.72c-1.3-1.34-1.95-3.31-1.95-5.9v-21.11c0-.31.1-.56.3-.74.2-.18.44-.27.72-.27h3.51c.31 0 .56.09.74.27.18.18.27.43.27.74v7.02h5.29c.28 0 .52.1.72.3s.3.44.3.72v2.5c0 .28-.1.52-.3.72-.2.2-.44.3-.72.3h-5.29v9.1c0 1.21.21 2.13.63 2.75.42.62 1.11.93 2.07.93h2.96c.31 0 .56.09.74.27.18.18.28.43.28.74v2.67c0 .28-.09.52-.28.72-.18.2-.43.3-.74.3h-3.47c-2.57 0-4.5-.67-5.8-2.01Zm-119.14 1.71c-.2-.2-.3-.44-.3-.72v-19.97c0-.31.1-.56.3-.74.2-.18.44-.28.72-.28h3.6c.28 0 .52.1.72.3.2.2.3.44.3.72v19.97c0 .28-.1.52-.3.72-.2.2-.44.3-.72.3h-3.6c-.28 0-.52-.1-.72-.3Z"/><path class="cls-1" d="M564.2 170.6c-.2-.2-.3-.44-.3-.72v-3.09c0-.31.1-.56.3-.76.2-.2.44-.3.72-.3h3.89a1.025 1.025 0 0 1 1.06 1.06v3.09c0 .28-.11.52-.32.72-.21.2-.46.3-.74.3h-3.89c-.28 0-.52-.1-.72-.3Zm108.22 24.87c-.2-.2-.3-.44-.3-.72v-19.97c0-.31.1-.56.3-.74.2-.18.44-.28.72-.28h3.6c.28 0 .52.1.72.3.2.2.3.44.3.72v19.97c0 .28-.1.52-.3.72-.2.2-.44.3-.72.3h-3.6c-.28 0-.52-.1-.72-.3Zm-.17-24.87c-.2-.2-.3-.44-.3-.72v-3.09c0-.31.1-.56.3-.76.2-.2.44-.3.72-.3h3.89a1.025 1.025 0 0 1 1.06 1.06v3.09c0 .28-.11.52-.32.72-.21.2-.46.3-.74.3h-3.89c-.28 0-.52-.1-.72-.3Zm-127.74-13.15c-5.5 0-9.96 4.46-9.96 9.96v18.46c0 5.5 4.46 9.96 9.96 9.96s9.96-4.46 9.96-9.96v-18.46c0-5.5-4.46-9.96-9.96-9.96Zm0 17.3c-3.82 0-6.92-3.1-6.92-6.92s3.1-6.92 6.92-6.92 6.92 3.1 6.92 6.92-3.1 6.92-6.92 6.92Zm-34.55 12.04c0 2.55-.59 4.59-1.76 6.14-1.17 1.55-2.74 2.32-4.71 2.32-2.11 0-3.73-.75-4.88-2.23l-.14 1.93h-2.62v-23.67h2.85v8.83c1.15-1.43 2.74-2.14 4.76-2.14s3.61.77 4.77 2.3c1.16 1.53 1.73 3.63 1.73 6.29v.25Zm-2.85-.32c0-1.94-.37-3.44-1.13-4.5-.75-1.06-1.83-1.59-3.23-1.59-1.88 0-3.23.87-4.05 2.62v7.21c.87 1.75 2.23 2.62 4.08 2.62 1.37 0 2.43-.53 3.19-1.59.76-1.06 1.14-2.65 1.14-4.78Zm11.73 4.3 3.88-12.49h3.05l-6.7 19.24c-1.04 2.77-2.69 4.16-4.95 4.16l-.54-.05-1.06-.2v-2.31l.77.06c.96 0 1.72-.19 2.26-.58.54-.39.98-1.1 1.33-2.14l.63-1.69-5.95-16.49h3.11l4.16 12.49Z"/><path id="fullLogo" class="cls-2" d="M74.26 143.38 48.13 97.92h-6.38v44.02H0V0h54.31c36.62 0 57.6 16.25 57.6 46.7 0 19.13-8.64 32.71-24.69 40.94l31.47 48.96-44.43 6.79ZM49.78 30.65h-8.43v38.06h8.64c13.58 0 20.98-6.99 20.98-19.54s-7.61-18.52-21.19-18.52Z"/><path id="fullLogo-2" class="cls-2" d="M171.91 144c-32.3 0-54.52-16.46-54.52-52.25 0-33.53 20.78-53.69 49.17-53.69 32.09 0 45.87 23.45 45.87 53.49 0 3.91-.21 7.82-.62 9.87h-58.22c2.26 12.75 11.31 17.07 23.25 17.07 9.87 0 20.98-3.5 32.3-9.26l3.29 24.28C201.32 139.89 187.54 144 171.9 144Zm-18.72-61.3h24.89c-.41-14.81-5.14-22.22-12.55-22.22s-12.14 7.41-12.34 22.22Z"/><path id="fullLogo-3" class="cls-2" d="m440.94 141.94-5.14-86.61-19.13 86.61h-40.94l-19.34-86.61-4.94 86.61h-36.21L325.33 0h54.52l20.57 89.69L420.99 0h53.07l10.08 141.94h-43.2Z"/><path id="fullLogo-4" class="cls-2" d="m553.93 141.94-2.06-12.34c-8.64 8.85-17.9 14.4-30.45 14.4-15.43 0-26.95-9.26-26.95-28.18 0-23.24 17.07-34.97 55.75-38.26v-.82c0-7.4-3.91-11.11-13.78-11.11-10.9 0-21.19 2.67-31.89 7.2l-4.11-26.74c11.31-4.53 25.1-7.61 42.17-7.61 29.42 0 44.23 9.05 44.23 36.41v67.06h-32.91Zm-3.5-48.96c-14.81 3.29-19.96 9.05-19.96 17.28 0 5.76 3.29 8.64 7.82 8.64 3.91 0 7.61-1.65 12.14-5.14V92.98Z"/><path id="fullLogo-5" class="cls-2" d="M656.84 141.94V80.43c0-5.97-2.47-10.29-8.43-10.29-4.32 0-8.02 2.26-12.14 6.17v65.62h-36.62V40.11h32.91l2.26 13.58c9.05-9.26 17.9-15.63 30.03-15.63 18.72 0 28.59 11.73 28.59 32.09v71.79h-36.62Z"/><a xlink:href="lse"><path id="fullLogo-6" class="cls-2" d="M271.01 76.11c-13.58-3.7-15.43-5.55-15.43-8.64 0-2.67 2.26-4.73 8.02-4.73 9.46 0 22.63 3.5 34.56 9.87l2.47-27.22c-10.65-4.5-23.94-7.13-37.44-7.13-26.13 0-40.53 13.37-40.53 33.33s11.31 26.54 37.44 33.33c12.75 3.29 14.61 5.35 14.61 8.64s-2.67 5.55-9.87 5.55c-10.49 0-26.33-4.32-39.5-12.14l-4.12 26.54c11.31 5.76 26.74 10.29 44.02 10.29 27.36 0 42.58-11.72 42.58-34.35 0-18.72-8.85-25.71-36.82-33.33Z"/></a><path id="fullLogo-7" class="cls-2" d="M706.3 54.75c-5.95 0-10.01-4.18-10.01-10.36s4.12-10.41 10.04-10.41 10.01 4.18 10.01 10.36-4.12 10.41-10.04 10.41Zm.03-19.72c-4.99 0-8.76 3.34-8.76 9.34s3.83 9.34 8.76 9.34 8.73-3.34 8.73-9.34-3.83-9.34-8.73-9.34Zm-.41 10.47h-1.19v4.38h-1.94V38.45h3.34c2.47 0 4.09 1.31 4.09 3.51 0 1.62-.9 2.7-2.23 3.22l3.31 4.38-2.09.46-3.28-4.52Zm-1.19-1.65h1.28c1.39 0 2.23-.64 2.23-1.83s-.75-1.86-2.18-1.86h-1.33v3.68Z"/></svg>