<svg id="Layer_1" data-name="Layer 1" xmlns="http://www.w3.org/2000/svg" viewBox="0 0 284.73 69.87"><path id="Yardi_Blue" data-name="Yardi | Blue" d="M0 69.87V41L50.22 0v29.69Zm9.08-36.94L0 27.85V0l9.08 5.34Zm69.09.52L66.29 1.57h13.8l6.12 21.31 14.32-21.31h16.07l-25.24 32-4.08 19.27H74.07Zm50.39-31.88h13.54l8.39 51.27h-13.44l-1.22-9.17h-18.07l-5.17 9.17H98.52Zm-5.67 32.14h11.79l-2-18.43h-.09Zm41.39-32.14h25.16q8 0 11.79 2.54 4.71 3.14 4.72 10.74 0 12.66-11.71 14.32v.09q5.25 1.3 5.24 8.56c0 1.34 0 3-.13 5.11s-.13 3.56-.13 4.5c0 2.67.26 4.48.79 5.41h-13.45a15 15 0 0 1-.44-2.88c0-.82.06-2.2.17-4.15s.18-3.54.18-4.76q0-6.9-6.65-6.9h-8.92L167 52.84h-13.37ZM173 24.28h10.64q9 0 9-7.07 0-5.34-7.22-5.33h-9.84Zm44-22.71h19.2q22.87 0 22.88 21.66 0 12.75-7.33 20.79-8.13 8.82-22.7 8.82h-23Zm5 39.83h8.82q7.77 0 11.79-6a19.32 19.32 0 0 0 3.14-11q-.07-11.4-10.2-11.4h-7.68Zm49.34-39.83h13.39l-10.66 51.27H260.6Z" style="fill:#0072ce"/></svg>