<svg width="384" height="232" viewBox="0 0 384 232" fill="none" xmlns="http://www.w3.org/2000/svg"><rect x="23.763" y="34.564" width="345.637" height="197.301" rx="15.842" fill="url(#paint0_linear_1_553)" fill-opacity=".2"/><rect x="24.483" y="35.284" width="344.197" height="195.861" rx="15.122" stroke="url(#paint1_linear_1_553)" stroke-opacity=".6" stroke-width="1.44"/><path d="M353.558 231.865H197.301v-82.088l83.529-79.209 17.282-8.64 28.083 18.001L369.4 44.645v171.379c0 8.749-7.093 15.841-15.842 15.841Z" fill="#417CFF" fill-opacity=".25"/><path d="m197.301 229.705-.72-200.901" stroke="#FCFCFC" stroke-opacity=".7" stroke-width="1.44" stroke-dasharray="5.76 5.76"/><path d="m5.04 210.263 36.127-38.965a12.96 12.96 0 0 1 17.039-1.734l8.309 5.935a12.961 12.961 0 0 0 17.25-1.967l51.375-58.179c4.764-5.396 13.012-5.876 18.37-1.069l34.631 31.066c5.154 4.623 13.03 4.38 17.888-.552l79.096-80.278c4.995-5.07 13.144-5.164 18.254-.21l12.229 11.855c4.966 4.814 12.838 4.88 17.885.15l44.548-41.75" stroke="url(#paint2_linear_1_553)" stroke-width="10.081" stroke-linecap="round"/><circle cx="196.581" cy="145.456" r="15.482" fill="url(#paint3_linear_1_553)" stroke="url(#paint4_linear_1_553)" stroke-width=".72"/><g class="pulse-animation"><circle cx="197.419" cy="28.201" r="28.201" fill="#417CFF"/><path d="M196.263 44.813V10.964h2.168v33.849h-2.168Zm5.751-22.676c-.105-1.067-.559-1.895-1.362-2.486-.802-.59-1.89-.886-3.265-.886-.935 0-1.724.133-2.367.397-.644.256-1.137.613-1.481 1.071a2.577 2.577 0 0 0-.502 1.56c-.018.485.083.908.304 1.27.229.36.542.674.938.938.397.256.855.48 1.376.675.52.185 1.075.343 1.666.476l2.432.581a17.16 17.16 0 0 1 3.253 1.058 9.88 9.88 0 0 1 2.565 1.626 6.748 6.748 0 0 1 1.679 2.275c.406.872.613 1.873.622 3.001-.009 1.657-.432 3.094-1.27 4.31-.828 1.208-2.027 2.147-3.596 2.817-1.56.66-3.442.991-5.646.991-2.186 0-4.09-.335-5.712-1.005-1.613-.67-2.873-1.661-3.781-2.974-.899-1.323-1.371-2.958-1.415-4.906h5.54c.062.908.322 1.666.78 2.274.467.6 1.089 1.054 1.864 1.362.785.3 1.671.45 2.658.45.97 0 1.812-.141 2.526-.423.722-.282 1.282-.675 1.679-1.177a2.72 2.72 0 0 0 .595-1.732c0-.608-.181-1.12-.542-1.534-.353-.414-.873-.767-1.561-1.058-.678-.29-1.511-.555-2.499-.793l-2.948-.74c-2.283-.556-4.086-1.424-5.408-2.605s-1.979-2.772-1.97-4.773c-.009-1.64.428-3.072 1.309-4.297.89-1.226 2.111-2.182 3.663-2.87 1.551-.687 3.314-1.031 5.288-1.031 2.01 0 3.764.344 5.263 1.031 1.507.688 2.679 1.644 3.517 2.87.837 1.225 1.269 2.644 1.296 4.257h-5.488Z" fill="#fff"/></g><defs><linearGradient id="paint0_linear_1_553" x1="295.335" y1="53.286" x2="274.976" y2="292.936" gradientUnits="userSpaceOnUse"><stop stop-color="#B6CDFF"/><stop offset="1" stop-color="#fff"/></linearGradient><linearGradient id="paint1_linear_1_553" x1="196.581" y1="34.564" x2="196.581" y2="231.865" gradientUnits="userSpaceOnUse"><stop stop-color="#fff" stop-opacity="0"/><stop offset="1" stop-color="#fff"/></linearGradient><linearGradient id="paint2_linear_1_553" x1="343.477" y1="34.564" x2="82.089" y2="222.504" gradientUnits="userSpaceOnUse"><stop stop-color="#417CFF"/><stop offset=".992" stop-color="#fff"/></linearGradient><linearGradient id="paint3_linear_1_553" x1="196.581" y1="129.614" x2="196.581" y2="161.298" gradientUnits="userSpaceOnUse"><stop stop-color="#417CFF"/><stop offset="1" stop-color="#0F59FF"/></linearGradient><linearGradient id="paint4_linear_1_553" x1="196.581" y1="129.614" x2="196.581" y2="161.298" gradientUnits="userSpaceOnUse"><stop stop-color="#FCFCFC" stop-opacity="0"/><stop offset="1" stop-color="#FCFCFC"/></linearGradient></defs></svg>