<svg width="346" height="255" viewBox="0 0 346 255" fill="none" xmlns="http://www.w3.org/2000/svg"><path d="M144.015 45.365H64.087c-7.159 0-12.962 5.803-12.962 12.961v110.892M200.181 46.085h83.529c7.159 0 12.962 5.803 12.962 12.961v53.286M171.378 59.046v134.655" stroke="#FCFCFC" stroke-opacity=".6" stroke-width="1.44" stroke-dasharray="5.76 5.76"/><path d="M197.37 0h-52.805c-7.462 0-13.511 6.05-13.511 13.511v52.806c0 7.462 6.049 13.51 13.511 13.51h52.805c7.463 0 13.512-6.048 13.512-13.51V13.51c0-7.46-6.049-13.51-13.512-13.51Z" fill="#fff" fill-opacity=".1"/><path d="M146.896 31.006c0-2.714 2.2-4.914 4.913-4.914h39.308c2.714 0 4.913 2.2 4.913 4.914v24.567a4.913 4.913 0 0 1-4.913 4.913h-39.308a4.914 4.914 0 0 1-4.913-4.913V31.006Z" fill="#fff"/><path d="M162.864 27.32h-3.685l.001-6.141a2.456 2.456 0 0 1 2.456-2.457h19.654c1.357 0 2.457 1.1 2.457 2.457v6.142h-3.685v-4.3c0-.678-.55-1.228-1.229-1.228h-14.74c-.679 0-1.229.55-1.229 1.228v4.3Z" fill="#fff"/><rect x="245.546" y="113.052" width="99.371" height="141.135" rx="2.16" fill="url(#paint0_linear_1_532)" fill-opacity=".2" stroke="url(#paint1_linear_1_532)" stroke-width="1.44"/><rect x="121.693" y="195.141" width="99.371" height="59.046" rx="2.16" fill="url(#paint2_linear_1_532)" fill-opacity=".2" stroke="url(#paint3_linear_1_532)" stroke-width="1.44"/><rect x=".72" y="170.658" width="99.371" height="83.529" rx="2.16" fill="url(#paint4_linear_1_532)" fill-opacity=".2" stroke="url(#paint5_linear_1_532)" stroke-width="1.44"/><g class="pulse-animation" style="animation-delay:.5s"><circle cx="50.066" cy="110.552" r="18.382" fill="#417CFF"/><path d="M49.312 121.381V99.317h1.414v22.064h-1.414Zm3.75-14.781c-.07-.695-.366-1.235-.888-1.62-.523-.385-1.233-.578-2.13-.578-.608 0-1.122.086-1.542.259-.42.166-.741.399-.965.698a1.681 1.681 0 0 0-.328 1.017 1.45 1.45 0 0 0 .198.827c.15.236.354.44.612.612.259.167.558.313.897.44.339.12.7.224 1.086.31l1.585.379c.77.172 1.477.402 2.12.69a6.43 6.43 0 0 1 1.673 1.06 4.4 4.4 0 0 1 1.094 1.482c.265.569.4 1.221.405 1.956-.005 1.081-.281 2.017-.827 2.81-.54.787-1.322 1.399-2.344 1.836-1.017.431-2.244.646-3.68.646-1.425 0-2.666-.218-3.724-.655-1.051-.436-1.873-1.083-2.465-1.939-.586-.862-.893-1.928-.922-3.197h3.611c.04.591.21 1.086.509 1.482.304.391.71.687 1.215.888.511.195 1.089.293 1.732.293.633 0 1.181-.092 1.647-.276.47-.184.836-.44 1.094-.767a1.77 1.77 0 0 0 .388-1.129c0-.397-.118-.73-.353-1-.23-.27-.57-.5-1.017-.689a10.29 10.29 0 0 0-1.63-.517l-1.921-.483c-1.488-.362-2.663-.928-3.525-1.698-.862-.77-1.29-1.807-1.284-3.111-.006-1.069.278-2.003.853-2.801.58-.799 1.376-1.422 2.387-1.871 1.012-.448 2.16-.672 3.448-.672 1.31 0 2.453.224 3.43.672.982.449 1.747 1.072 2.292 1.871.546.798.828 1.723.845 2.775h-3.577Z" fill="#fff"/></g><g class="pulse-animation"><circle cx="171.039" cy="140.796" r="18.382" fill="#417CFF"/><path d="M170.285 151.624v-22.063h1.414v22.063h-1.414Zm3.749-14.781c-.069-.695-.365-1.235-.887-1.62-.523-.385-1.233-.577-2.129-.577-.609 0-1.124.086-1.543.258-.419.167-.741.399-.965.698a1.677 1.677 0 0 0-.328 1.017c-.011.316.055.592.198.828.15.235.354.439.612.611.259.167.558.314.897.44a9.19 9.19 0 0 0 1.086.31l1.585.379c.77.173 1.477.403 2.121.69.643.287 1.2.641 1.672 1.06.471.42.836.914 1.094 1.482.264.569.4 1.221.405 1.957-.005 1.08-.281 2.017-.827 2.81-.54.787-1.322 1.399-2.344 1.835-1.017.431-2.244.647-3.681.647-1.424 0-2.666-.219-3.723-.655-1.051-.437-1.873-1.083-2.465-1.94-.586-.861-.893-1.927-.922-3.197h3.611c.041.592.21 1.086.509 1.482.304.391.709.687 1.215.888.511.195 1.089.293 1.732.293.632 0 1.181-.092 1.647-.276.471-.184.836-.439 1.094-.767.259-.327.388-.704.388-1.129 0-.396-.118-.729-.353-.999-.23-.271-.569-.5-1.017-.69-.443-.19-.986-.362-1.629-.517l-1.922-.483c-1.488-.362-2.663-.928-3.525-1.698-.862-.77-1.29-1.807-1.284-3.111-.006-1.069.278-2.002.853-2.801.58-.799 1.376-1.422 2.387-1.87 1.011-.448 2.161-.672 3.448-.672 1.31 0 2.453.224 3.43.672.982.448 1.746 1.071 2.292 1.87.546.799.828 1.724.845 2.775h-3.577Z" fill="#fff"/></g><g class="pulse-animation" style="animation-delay:1.5s"><circle cx="296.332" cy="78.869" r="18.382" fill="#417CFF"/><path d="M295.579 89.698V67.634h1.413v22.064h-1.413Zm3.749-14.781c-.069-.695-.365-1.236-.888-1.62-.523-.385-1.233-.578-2.129-.578-.609 0-1.123.086-1.543.259-.419.166-.741.399-.965.698a1.682 1.682 0 0 0-.327 1.017c-.012.316.054.591.198.827.149.236.353.44.612.612.258.167.557.313.896.44.339.12.701.224 1.086.31l1.586.379c.77.172 1.477.402 2.12.69.644.287 1.201.64 1.672 1.06.471.419.836.913 1.095 1.482.264.569.399 1.22.405 1.956-.006 1.08-.282 2.017-.828 2.81-.54.787-1.321 1.4-2.344 1.836-1.017.43-2.244.646-3.68.646-1.425 0-2.666-.218-3.723-.655-1.052-.436-1.873-1.083-2.465-1.939-.586-.862-.894-1.928-.922-3.198h3.611c.04.592.209 1.086.508 1.483.305.39.71.686 1.215.888.512.195 1.089.293 1.733.293.632 0 1.181-.092 1.646-.276.471-.184.836-.44 1.095-.767.258-.328.387-.704.387-1.13 0-.396-.117-.729-.353-.999-.23-.27-.569-.5-1.017-.69a10.31 10.31 0 0 0-1.629-.517l-1.922-.482c-1.488-.362-2.663-.928-3.525-1.698-.862-.77-1.29-1.807-1.284-3.111-.006-1.07.279-2.003.853-2.801.581-.8 1.376-1.422 2.388-1.87 1.011-.449 2.16-.673 3.447-.673 1.31 0 2.453.224 3.43.672.983.448 1.747 1.072 2.293 1.87.546.8.827 1.724.844 2.776h-3.576Z" fill="#fff"/></g><defs><linearGradient id="paint0_linear_1_532" x1="324.035" y1="125.861" x2="288.88" y2="292.89" gradientUnits="userSpaceOnUse"><stop stop-color="#B6CDFF"/><stop offset="1" stop-color="#fff"/></linearGradient><linearGradient id="paint1_linear_1_532" x1="295.232" y1="112.332" x2="295.232" y2="254.907" gradientUnits="userSpaceOnUse"><stop stop-color="#fff" stop-opacity="0"/><stop offset="1" stop-color="#fff"/></linearGradient><linearGradient id="paint2_linear_1_532" x1="200.181" y1="200.16" x2="193.626" y2="273.575" gradientUnits="userSpaceOnUse"><stop stop-color="#B6CDFF"/><stop offset="1" stop-color="#fff"/></linearGradient><linearGradient id="paint3_linear_1_532" x1="171.378" y1="194.421" x2="171.378" y2="254.907" gradientUnits="userSpaceOnUse"><stop stop-color="#fff" stop-opacity="0"/><stop offset="1" stop-color="#fff"/></linearGradient><linearGradient id="paint4_linear_1_532" x1="79.209" y1="178.001" x2="66.371" y2="280.343" gradientUnits="userSpaceOnUse"><stop stop-color="#B6CDFF"/><stop offset="1" stop-color="#fff"/></linearGradient><linearGradient id="paint5_linear_1_532" x1="50.405" y1="169.938" x2="50.405" y2="254.907" gradientUnits="userSpaceOnUse"><stop stop-color="#fff" stop-opacity="0"/><stop offset="1" stop-color="#fff"/></linearGradient></defs></svg>