<svg width="77" height="77" viewBox="0 0 77 77" fill="none" xmlns="http://www.w3.org/2000/svg">
<path d="M38.1594 75.8356C58.8112 75.8356 75.5533 59.1034 75.5533 38.4626C75.5533 17.8218 58.8112 1.08969 38.1594 1.08969C17.5076 1.08969 0.765475 17.8218 0.765475 38.4626C0.765475 59.1034 17.5076 75.8356 38.1594 75.8356Z" fill="#FFDF5A" stroke="white" stroke-width="1.10577"/>
<mask id="mask0_1439_10099" style="mask-type:alpha" maskUnits="userSpaceOnUse" x="1" y="2" width="74" height="74">
<ellipse cx="37.841" cy="38.822" rx="36.841" ry="36.82" fill="#FFDF5A"/>
</mask>
<g mask="url(#mask0_1439_10099)">
</g>
<g clip-path="url(#clip0_1439_10099)">
<path d="M30.5548 47.1445C30.1521 47.1445 29.8252 47.4712 29.8252 47.8737C29.8252 48.2762 30.1521 48.6029 30.5548 48.6029C30.9575 48.6029 31.2844 48.2762 31.2844 47.8737C31.2844 47.4712 30.9575 47.1445 30.5548 47.1445Z" fill="#8B00FF"/>
<path d="M52.0153 34.0185L56.3148 29.7215C56.4956 29.5407 56.5685 29.2785 56.507 29.0304C56.4455 28.7823 56.2585 28.5845 56.014 28.5091L45.5443 25.2796C44.6005 22.2476 41.7953 20.1641 38.5802 20.1641C35.5914 20.1641 32.9185 21.9845 31.8122 24.7306L19.6852 28.5098C19.4415 28.5858 19.2551 28.7837 19.194 29.0315C19.133 29.2793 19.2059 29.5411 19.3865 29.7216L23.7991 34.1316L21.0161 38.7674C20.9022 38.957 20.8807 39.1881 20.9574 39.3956C21.0342 39.603 21.201 39.7644 21.411 39.8343L25.4474 41.1789V52.394C25.4474 52.6979 25.636 52.9699 25.9208 53.0767C28.3888 54.0016 37.5588 57.4388 37.6081 57.4562C37.7528 57.5072 37.9159 57.5141 38.0749 57.4627C38.077 57.462 38.0792 57.4616 38.0813 57.4608L51.2141 53.0857C51.512 52.9865 51.713 52.7078 51.713 52.394V40.8787L56.0175 39.5268C56.2609 39.4503 56.4466 39.2524 56.5074 39.0048C56.5681 38.7572 56.4951 38.4958 56.3147 38.3155L52.0153 34.0185ZM45.8762 27.4559C45.8762 27.2706 45.8684 27.0858 45.8544 26.9015L54.4268 29.5459L50.7863 33.1842L44.838 31.2028C45.5116 30.0776 45.8762 28.7792 45.8762 27.4559ZM33.0591 25.558C33.869 23.204 36.0878 21.6224 38.5802 21.6224C41.2652 21.6224 43.5939 23.4375 44.2432 26.0363C44.3585 26.4981 44.417 26.9757 44.417 27.4559C44.417 28.8103 43.9672 30.0797 43.1162 31.1275C42.0016 32.5014 40.3483 33.2894 38.5802 33.2894C36.6689 33.2894 34.8762 32.3518 33.7843 30.7807C33.1034 29.8032 32.7434 28.6534 32.7434 27.4559C32.7434 26.8047 32.8495 26.1661 33.0591 25.558ZM21.2715 29.5431L31.3619 26.3985C31.3112 26.7469 31.2842 27.0998 31.2842 27.4558C31.2842 28.6299 31.5624 29.7671 32.0929 30.7931L24.9148 33.1842L21.2715 29.5431ZM22.7353 38.7382L25.0423 34.8953L36.757 38.7979L34.4501 42.6409C33.1992 42.2242 24.0709 39.1831 22.7353 38.7382ZM37.121 55.7169L26.9066 51.8887V41.6651C34.9431 44.3282 34.5507 44.2469 34.7744 44.2469C35.0253 44.2469 35.2655 44.1172 35.4002 43.8928L37.121 41.0263V55.7169ZM37.8506 37.625L27.0251 34.0186L32.9198 32.055C34.2995 33.7501 36.3764 34.7478 38.5802 34.7478C40.6188 34.7478 42.5348 33.9093 43.913 32.4319L48.6761 34.0186L37.8506 37.625ZM50.2538 51.8684L38.5802 55.7574V40.4722L41.1667 43.7032C41.3548 43.9383 41.6681 44.0335 41.9552 43.9434L50.2538 41.337V51.8684ZM41.9941 42.4025L39.074 38.7547L50.7863 34.8528L54.4317 38.4961L41.9941 42.4025Z" fill="#8B00FF"/>
<path d="M35.1887 48.7622L33.5661 48.154C33.1888 48.0127 32.7683 48.2037 32.6267 48.5807C32.4853 48.9579 32.6764 49.3782 33.0537 49.5196L34.6763 50.1277C35.0544 50.2693 35.4744 50.0774 35.6157 49.701C35.7571 49.3239 35.566 48.9035 35.1887 48.7622Z" fill="#8B00FF"/>
<path d="M35.1886 51.8787L30.811 50.238C30.4337 50.0966 30.0132 50.2877 29.8716 50.6647C29.7301 51.0418 29.9213 51.4622 30.2986 51.6036L34.6762 53.2442C34.7606 53.2759 34.8471 53.2909 34.9323 53.2909C35.2277 53.2909 35.5057 53.1103 35.6155 52.8175C35.7571 52.4404 35.5659 52.0201 35.1886 51.8787Z" fill="#8B00FF"/>
<path d="M42.7446 24.7526C42.4597 24.4678 41.9977 24.4679 41.7127 24.7526L37.851 28.6122L36.9077 27.6695C36.6228 27.3847 36.1608 27.3847 35.8758 27.6695C35.5908 27.9542 35.5909 28.4159 35.8758 28.7007L37.3351 30.159C37.62 30.4438 38.082 30.4438 38.367 30.159L42.7446 25.7839C43.0295 25.4992 43.0295 25.0375 42.7446 24.7526Z" fill="#8B00FF"/>
</g>
<defs>
<clipPath id="clip0_1439_10099">
<rect width="37.3555" height="37.3343" fill="white" transform="translate(19.1729 20.1641)"/>
</clipPath>
</defs>
</svg>
