<svg width="71" height="71" viewBox="0 0 71 71" fill="none" xmlns="http://www.w3.org/2000/svg">
<circle cx="35.3846" cy="35.3846" r="35.3846" fill="url(#paint0_linear_1439_10086)"/>
<path d="M29.6807 43.4096L33.5982 46.4426C34.1037 46.9481 35.2411 47.2008 35.9993 47.2008H40.8015C42.318 47.2008 43.9609 46.0635 44.34 44.547L47.373 35.3217C48.0048 33.5525 46.8675 32.036 44.9719 32.036H39.9169C39.1587 32.036 38.5268 31.4041 38.6532 30.5195L39.2851 26.4756C39.5378 25.3382 38.7796 24.0745 37.6422 23.6953C36.6312 23.3162 35.3675 23.8217 34.862 24.5799L29.6807 32.2887" fill="white"/>
<path d="M23.2324 43.4127V31.0281C23.2324 29.2588 23.9907 28.627 25.7599 28.627H27.0236C28.7929 28.627 29.5511 29.2588 29.5511 31.0281V43.4127C29.5511 45.1819 28.7929 45.8138 27.0236 45.8138H25.7599C23.9907 45.8138 23.2324 45.1819 23.2324 43.4127Z" fill="white"/>
<defs>
<linearGradient id="paint0_linear_1439_10086" x1="13.6095" y1="6.80473" x2="55.1183" y2="66.0059" gradientUnits="userSpaceOnUse">
<stop stop-color="#8DB1FC"/>
<stop offset="1" stop-color="#236DEC"/>
</linearGradient>
</defs>
</svg>
