<svg width="77" height="77" viewBox="0 0 77 77" fill="none" xmlns="http://www.w3.org/2000/svg">
<circle cx="38.4904" cy="38.4904" r="37.0433" fill="#8B00FF" stroke="white" stroke-width="1.10577"/>
<path d="M39.0008 21.8955C32.2311 21.8955 26.7236 27.4029 26.7236 34.1727C26.7236 37.6748 28.2258 41.0188 30.8439 43.3484C31.8322 44.2271 32.3335 45.3438 32.3335 46.6663V48.3814C32.3335 49.173 32.9363 49.827 33.7063 49.9079V52.5385H33.2849C32.9875 52.5385 32.7459 52.7802 32.7459 53.0776C32.7459 53.375 32.9875 53.6166 33.2849 53.6166H33.7063V55.7379H33.2849C32.9875 55.7379 32.7459 55.9795 32.7459 56.2769C32.7459 56.5743 32.9875 56.816 33.2849 56.816H33.9013L35.3918 59.3451C35.6748 59.8257 36.1572 60.1007 36.7143 60.1007H41.7347C42.2927 60.1007 42.7742 59.8248 43.0572 59.3451L44.5477 56.816H45.1641C45.4614 56.816 45.7031 56.5743 45.7031 56.2769C45.7031 55.9795 45.4614 55.7379 45.1641 55.7379H44.7427V53.6166H45.1641C45.4614 53.6166 45.7031 53.375 45.7031 53.0776C45.7031 52.7802 45.4614 52.5385 45.1641 52.5385H44.7427V49.7893C45.2863 49.553 45.6672 49.0113 45.6672 48.3814V46.6663C45.6672 45.3438 46.1685 44.2271 47.1568 43.3484C49.7757 41.0188 51.277 37.6748 51.277 34.1727C51.2779 27.4029 45.7705 21.8955 39.0008 21.8955ZM42.1291 58.7988C42.0429 58.9462 41.9063 59.0234 41.7356 59.0234H36.7152C36.5445 59.0234 36.4079 58.9453 36.3216 58.7988L35.1537 56.8169H43.298L42.1291 58.7988ZM43.6655 55.7388H34.7853V53.6175H43.6655V55.7388ZM34.7844 52.5385V49.9169H43.6646V52.5385H34.7844ZM46.4407 42.5425C45.2297 43.6197 44.59 45.0455 44.59 46.6663V48.3814C44.59 48.6339 44.3851 48.8388 44.1327 48.8388H33.8689C33.6164 48.8388 33.4116 48.6339 33.4116 48.3814V46.6663C33.4116 45.0455 32.7719 43.6197 31.5608 42.5425C29.1719 40.4177 27.8018 37.3666 27.8018 34.1727C27.8018 27.9977 32.8258 22.9736 39.0008 22.9736C45.1757 22.9736 50.1998 27.9977 50.1998 34.1727C50.1998 37.3675 48.8297 40.4177 46.4407 42.5425ZM38.4617 19.4266V16.4375C38.4617 16.1401 38.7034 15.8984 39.0008 15.8984C39.2982 15.8984 39.5398 16.1401 39.5398 16.4375V19.4266C39.5398 19.724 39.2982 19.9657 39.0008 19.9657C38.7034 19.9657 38.4617 19.7249 38.4617 19.4266ZM45.9071 21.1327L47.4021 18.5443C47.5512 18.2865 47.8809 18.1984 48.1388 18.3467C48.3966 18.4958 48.4847 18.8255 48.3364 19.0834L46.8414 21.6718C46.7417 21.8443 46.5602 21.9413 46.3743 21.9413C46.2826 21.9413 46.1901 21.918 46.1056 21.8695C45.8469 21.7203 45.7579 21.3906 45.9071 21.1327ZM51.304 27.0696C51.1548 26.8118 51.2438 26.482 51.5016 26.3329L54.09 24.8379C54.3479 24.6896 54.6776 24.7777 54.8268 25.0355C54.9759 25.2934 54.887 25.6231 54.6291 25.7723L52.0407 27.2673C51.9563 27.3167 51.8628 27.3391 51.7721 27.3391C51.5852 27.3391 51.4046 27.2421 51.304 27.0696ZM57.275 34.1727C57.275 34.47 57.0333 34.7117 56.7359 34.7117H53.7468C53.4495 34.7117 53.2078 34.47 53.2078 34.1727C53.2078 33.8753 53.4495 33.6336 53.7468 33.6336H56.7359C57.0342 33.6336 57.275 33.8753 57.275 34.1727ZM54.8268 43.3098C54.727 43.4823 54.5456 43.5793 54.3596 43.5793C54.2679 43.5793 54.1754 43.5559 54.0909 43.5074L51.5025 42.0124C51.2447 41.8633 51.1566 41.5336 51.3049 41.2757C51.454 41.0179 51.7838 40.9298 52.0416 41.0781L54.63 42.573C54.8879 42.7222 54.9759 43.0519 54.8268 43.3098ZM29.666 19.0834C29.5169 18.8255 29.6058 18.4958 29.8637 18.3467C30.1215 18.1975 30.4513 18.2865 30.6004 18.5443L32.0954 21.1327C32.2445 21.3906 32.1556 21.7203 31.8977 21.8695C31.8133 21.9189 31.7198 21.9413 31.6291 21.9413C31.4431 21.9413 31.2616 21.8443 31.1619 21.6718L29.666 19.0834ZM23.1748 25.0355C23.3239 24.7777 23.6537 24.6896 23.9115 24.8379L26.4999 26.3329C26.7578 26.482 26.8458 26.8118 26.6976 27.0696C26.5979 27.2421 26.4164 27.3391 26.2304 27.3391C26.1388 27.3391 26.0462 27.3158 25.9618 27.2673L23.3716 25.7723C23.1137 25.6231 23.0257 25.2934 23.1748 25.0355ZM24.2547 34.7117H21.2656C20.9682 34.7117 20.7266 34.47 20.7266 34.1727C20.7266 33.8753 20.9682 33.6336 21.2656 33.6336H24.2547C24.5521 33.6336 24.7938 33.8753 24.7938 34.1727C24.7938 34.47 24.5521 34.7117 24.2547 34.7117ZM26.6976 41.2766C26.8467 41.5345 26.7578 41.8642 26.4999 42.0133L23.9106 43.5074C23.8262 43.5568 23.7327 43.5793 23.642 43.5793C23.456 43.5793 23.2745 43.4823 23.1748 43.3098C23.0257 43.0519 23.1146 42.7222 23.3725 42.573L25.9609 41.0781C26.2187 40.9298 26.5484 41.0188 26.6976 41.2766ZM46.5144 31.808L45.474 31.7595C45.3429 31.3219 45.1668 30.897 44.9493 30.4936L45.651 29.7236C45.9978 29.3427 45.9843 28.7587 45.6205 28.3939L44.307 27.0804C43.9422 26.7156 43.3582 26.7021 42.9773 27.0498L42.2073 27.7515C41.8039 27.5341 41.3789 27.358 40.9414 27.2268L40.8929 26.1864C40.8686 25.6716 40.4464 25.2682 39.9307 25.2682H38.0727C37.557 25.2682 37.1347 25.6716 37.1105 26.1864L37.062 27.2268C36.6244 27.358 36.1995 27.5341 35.7961 27.7515L35.0261 27.0498C34.6452 26.7021 34.0612 26.7165 33.6964 27.0804L32.3829 28.3939C32.0181 28.7587 32.0046 29.3427 32.3523 29.7236L33.054 30.4936C32.8366 30.897 32.6605 31.3219 32.5293 31.7595L31.4889 31.808C30.9741 31.8322 30.5707 32.2545 30.5707 32.7702V34.6282C30.5707 35.1439 30.9741 35.5661 31.4889 35.5904L32.5293 35.6389C32.6605 36.0764 32.8366 36.5014 33.054 36.9048L32.3523 37.6748C32.0055 38.0557 32.019 38.6397 32.3829 39.0045L33.6964 40.318C34.0612 40.6827 34.6452 40.6962 35.0261 40.3485L35.7961 39.6468C36.1995 39.8643 36.6244 40.0404 37.062 40.1715L37.1105 41.2119C37.1347 41.7267 37.557 42.1301 38.0727 42.1301H39.9307C40.4464 42.1301 40.8686 41.7267 40.8929 41.2119L40.9414 40.1715C41.3789 40.0404 41.8039 39.8643 42.2073 39.6468L42.9773 40.3485C43.3582 40.6953 43.9422 40.6818 44.307 40.318L45.6205 39.0045C45.9852 38.6397 45.9987 38.0557 45.651 37.6748L44.9493 36.9048C45.1668 36.5014 45.3429 36.0764 45.474 35.6389L46.5144 35.5904C47.0292 35.5661 47.4326 35.1439 47.4326 34.6282V32.7702C47.4326 32.2545 47.0292 31.8322 46.5144 31.808ZM46.3545 34.5186L45.342 34.5653C44.9287 34.5841 44.5747 34.8645 44.4606 35.2625C44.3429 35.6757 44.1767 36.0764 43.9664 36.4529C43.7652 36.815 43.8173 37.2633 44.0967 37.5697L44.7795 38.3189L43.6206 39.4779L42.8704 38.7942C42.564 38.5157 42.1157 38.4636 41.7536 38.6639C41.3763 38.8733 40.9764 39.0395 40.5632 39.1581C40.1652 39.2722 39.8848 39.6262 39.866 40.0395L39.8193 41.052H38.1805L38.1338 40.0395C38.1149 39.6262 37.8346 39.2722 37.4366 39.1581C37.0233 39.0404 36.6226 38.8742 36.2462 38.6639C35.8841 38.4627 35.4358 38.5148 35.1294 38.7942L34.3801 39.477L33.2211 38.3189L33.9048 37.5688C34.1834 37.2624 34.2355 36.8141 34.0351 36.452C33.8258 36.0755 33.6596 35.6748 33.541 35.2616C33.4269 34.8636 33.0729 34.5832 32.6596 34.5644L31.6471 34.5177V32.8789L32.6596 32.8322C33.0729 32.8133 33.4269 32.533 33.541 32.135C33.6596 31.7217 33.8249 31.321 34.0351 30.9446C34.2364 30.5825 34.1843 30.1342 33.9048 29.8278L33.222 29.0776L34.3801 27.9195L35.1303 28.6023C35.4367 28.8809 35.885 28.9339 36.2471 28.7326C36.6235 28.5233 37.0242 28.3571 37.4375 28.2385C37.8355 28.1244 38.1158 27.7704 38.1347 27.3571L38.1814 26.3446H39.8202L39.8669 27.3571C39.8857 27.7704 40.1661 28.1244 40.5641 28.2385C40.9773 28.3562 41.378 28.5224 41.7545 28.7326C42.1166 28.9339 42.5649 28.8818 42.8713 28.6023L43.6206 27.9195L44.7795 29.0776L44.0958 29.8278C43.8173 30.1342 43.7652 30.5825 43.9664 30.9446C44.1758 31.321 44.342 31.7217 44.4606 32.135C44.5747 32.533 44.9287 32.8133 45.342 32.8322L46.3545 32.8789V34.5186ZM39.0008 29.6526C36.77 29.6526 34.9542 31.4675 34.9542 33.6992C34.9542 35.93 36.7691 37.7457 39.0008 37.7457C41.2316 37.7457 43.0473 35.9309 43.0473 33.6992C43.0473 31.4675 41.2325 29.6526 39.0008 29.6526ZM39.0008 36.6676C37.3638 36.6676 36.0323 35.3361 36.0323 33.6992C36.0323 32.0622 37.3638 30.7307 39.0008 30.7307C40.6377 30.7307 41.9692 32.0622 41.9692 33.6992C41.9692 35.3361 40.6377 36.6676 39.0008 36.6676Z" fill="#FFDF5A"/>
</svg>
