<svg width="71" height="71" viewBox="0 0 71 71" fill="none" xmlns="http://www.w3.org/2000/svg">
<circle cx="35.3846" cy="35.3846" r="35.3846" fill="url(#paint0_linear_1439_10135)"/>
<path d="M37.571 24.6546L39.7952 29.103C40.0985 29.7222 40.9073 30.3162 41.5897 30.4299L45.6211 31.0997C48.1991 31.5294 48.8057 33.3997 46.948 35.2448L43.8139 38.3789C43.2831 38.9097 42.9925 39.9333 43.1567 40.6663L44.054 44.546C44.7617 47.6169 43.1315 48.8048 40.4144 47.1999L36.6358 44.963C35.9534 44.5586 34.8286 44.5586 34.1336 44.963L30.355 47.1999C27.6505 48.8048 26.0077 47.6043 26.7154 44.546L27.6126 40.6663C27.7769 39.9333 27.4862 38.9097 26.9555 38.3789L23.8214 35.2448C21.9763 33.3997 22.5703 31.5294 25.1483 31.0997L29.1797 30.4299C29.8495 30.3162 30.6583 29.7222 30.9616 29.103L33.1858 24.6546C34.399 22.2408 36.3704 22.2408 37.571 24.6546Z" fill="white"/>
<defs>
<linearGradient id="paint0_linear_1439_10135" x1="13.6095" y1="6.80473" x2="55.1183" y2="66.0059" gradientUnits="userSpaceOnUse">
<stop stop-color="#8FFC8D"/>
<stop offset="1" stop-color="#1BE916"/>
</linearGradient>
</defs>
</svg>
