<svg width="50" height="50" viewBox="0 0 50 50" fill="none" xmlns="http://www.w3.org/2000/svg">
<path d="M20.8356 0C9.34493 0 0 9.34487 0 20.8356C0 32.3263 9.34493 41.6713 20.8356 41.6713C26.0803 41.6713 30.8646 39.7148 34.5308 36.5058L47.6399 49.5932C48.1822 50.1356 49.0507 50.1356 49.5932 49.5932C50.1357 49.0507 50.1357 48.1823 49.5932 47.6398L36.5058 34.5307C39.7148 30.8647 41.6713 26.0803 41.6713 20.8356C41.6713 9.34487 32.3263 0 20.8356 0ZM20.8356 2.77809C30.8249 2.77809 38.8932 10.8463 38.8932 20.8356C38.8932 30.8249 30.8249 38.8932 20.8356 38.8932C10.8463 38.8932 2.77809 30.8249 2.77809 20.8356C2.77809 10.8463 10.8463 2.77809 20.8356 2.77809Z" fill="#222831"/>
</svg>
