<svg width="50" height="44" viewBox="0 0 50 44" fill="none" xmlns="http://www.w3.org/2000/svg">
<path d="M42.2446 7.47286H34.8438V6.64746C34.835 4.88714 34.1319 3.2014 32.8871 1.95665C31.6424 0.711897 29.9566 0.00873626 28.1963 0H21.8314C20.0711 0.00873626 18.3853 0.711897 17.1406 1.95665C15.8958 3.2014 15.1926 4.88714 15.1839 6.64746V7.47286H7.75537C5.69852 7.47286 3.72591 8.28994 2.2715 9.74435C0.817082 11.1988 0 13.1714 0 15.2282V35.5695C0 37.6263 0.817082 39.5989 2.2715 41.0533C3.72591 42.5078 5.69852 43.3248 7.75537 43.3248H42.2446C44.3015 43.3248 46.2741 42.5078 47.7285 41.0533C49.1829 39.5989 50 37.6263 50 35.5695V15.2282C50 13.1714 49.1829 11.1988 47.7285 9.74435C46.2741 8.28994 44.3015 7.47286 42.2446 7.47286ZM17.372 6.64746C17.3807 5.47481 17.8504 4.35265 18.6796 3.52343C19.5089 2.69422 20.631 2.22452 21.8037 2.21582H28.1742C29.3473 2.22308 30.4703 2.69232 31.2998 3.52185C32.1293 4.35137 32.5985 5.47436 32.6058 6.64746V7.47286H17.372V6.64746ZM47.7786 35.5639C47.7786 37.0331 47.195 38.4421 46.1561 39.481C45.1173 40.5199 43.7083 41.1035 42.2391 41.1035H7.75537C6.28619 41.1035 4.87719 40.5199 3.83832 39.481C2.79945 38.4421 2.21582 37.0331 2.21582 35.5639V15.2282C2.21582 13.759 2.79945 12.35 3.83832 11.3112C4.87719 10.2723 6.28619 9.68868 7.75537 9.68868H42.2446C43.7138 9.68868 45.1228 10.2723 46.1617 11.3112C47.2005 12.35 47.7842 13.759 47.7842 15.2282V35.5695L47.7786 35.5639ZM10.1817 15.3113V35.4975C10.1817 35.7913 10.065 36.0731 9.8572 36.2809C9.64942 36.4886 9.36762 36.6054 9.07379 36.6054C8.77995 36.6054 8.49815 36.4886 8.29038 36.2809C8.0826 36.0731 7.96588 35.7913 7.96588 35.4975V15.3113C7.96588 15.0175 8.0826 14.7357 8.29038 14.5279C8.49815 14.3201 8.77995 14.2034 9.07379 14.2034C9.36762 14.2034 9.64942 14.3201 9.8572 14.5279C10.065 14.7357 10.1817 15.0175 10.1817 15.3113ZM41.8181 15.3113V35.4975C41.8181 35.7913 41.7014 36.0731 41.4936 36.2809C41.2858 36.4886 41.004 36.6054 40.7102 36.6054C40.4163 36.6054 40.1345 36.4886 39.9268 36.2809C39.719 36.0731 39.6023 35.7913 39.6023 35.4975V15.3113C39.6023 15.0175 39.719 14.7357 39.9268 14.5279C40.1345 14.3201 40.4163 14.2034 40.7102 14.2034C41.004 14.2034 41.2858 14.3201 41.4936 14.5279C41.7014 14.7357 41.8181 15.0175 41.8181 15.3113Z" fill="#222831"/>
</svg>
