<svg viewBox="0 0 25 14" xmlns="http://www.w3.org/2000/svg">
<g>
<path d="M23.7133 11.3402C22.9767 10.4567 22.1099 9.70277 21.2898 8.90213C20.5499 8.18045 20.5033 7.7618 21.0981 6.92886C21.7472 6.01978 22.4453 5.14557 23.1003 4.24059C23.7117 3.39483 24.3368 2.55138 24.6585 1.53872C24.8626 0.894468 24.6821 0.6099 24.0214 0.497098C23.9076 0.477357 23.7899 0.476332 23.674 0.476332L19.7544 0.471718C19.2717 0.464539 19.0048 0.675017 18.8341 1.1029C18.6036 1.68126 18.3659 2.25912 18.0914 2.81723C17.4684 4.08266 16.7726 5.3058 15.7971 6.34152C15.582 6.56995 15.3441 6.85862 14.9847 6.73966C14.535 6.57559 14.4025 5.83468 14.4099 5.58421L14.4061 1.06008C14.3189 0.413778 14.1756 0.12562 13.5339 0L9.46227 0.000769171C8.91877 0.000769171 8.64625 0.210734 8.35604 0.550679C8.18863 0.747057 8.13813 0.874472 8.48217 0.939589C9.15796 1.06777 9.53867 1.50514 9.63968 2.18272C9.8017 3.26536 9.79042 4.35236 9.6971 5.43936C9.66967 5.75675 9.61506 6.07336 9.48919 6.36972C9.2923 6.83555 8.9744 6.9304 8.55678 6.64378C8.17863 6.38434 7.91304 6.01824 7.65308 5.65061C6.67657 4.27084 5.89747 2.78288 5.26219 1.21929C5.07863 0.767567 4.76201 0.493765 4.28338 0.48633C3.10741 0.467615 1.9312 0.464539 0.755236 0.487356C0.0476597 0.500687 -0.163331 0.84422 0.124827 1.48565C1.40564 4.33467 2.83131 7.10448 4.69228 9.62765C5.64777 10.9226 6.74477 12.0657 8.16197 12.8758C9.76812 13.7941 11.4971 14.0705 13.318 13.9854C14.1707 13.9454 14.4268 13.7236 14.4663 12.8738C14.493 12.2923 14.5589 11.7142 14.8457 11.1918C15.1272 10.679 15.5536 10.5813 16.045 10.9003C16.2909 11.06 16.498 11.2633 16.6936 11.4776C17.1736 12.0026 17.6363 12.5436 18.1344 13.0509C18.7592 13.6867 19.4993 14.0623 20.43 13.9857L24.0324 13.9864C24.6129 13.9485 24.9138 13.2368 24.5806 12.589C24.3465 12.1352 24.0394 11.7312 23.7133 11.3402Z" />
</g>
</svg>
