<svg width="30" height="30" viewBox="0 0 30 30" fill="none" xmlns="http://www.w3.org/2000/svg">
<path opacity="0.4" d="M11.2398 5.63999C12.8243 5.63999 14.219 6.65226 14.7103 8.15899L15.4022 10.2867C16.0638 10.0447 16.7738 9.99831 17.4616 10.1508C17.7386 6.52599 14.8636 3.51685 11.3281 3.51685C7.93572 3.51685 5.17578 6.27755 5.17578 9.67095C5.17578 12.3943 6.94391 14.6802 9.34473 15.4976L9.40215 15.4383L7.76855 10.4219C7.00672 8.08616 8.73348 5.63999 11.2398 5.63999Z" fill="#8B00FF"/>
<path d="M27.4498 23.2032C28.3832 21.6282 28.5932 19.73 28.0256 17.9894L26.0833 12.0333C25.7592 11.0395 24.691 10.4967 23.6972 10.8207C22.7034 11.1448 22.1606 12.213 22.4848 13.2074L22.2892 12.6074C21.9651 11.6136 20.8873 11.0733 19.8935 11.3974C18.9022 11.7207 18.3563 12.788 18.6811 13.7841L18.4658 13.1239C18.1428 12.1333 17.0715 11.5939 16.0804 11.9115C15.0738 12.235 14.535 13.309 14.8583 14.3004L13.0382 8.70363C12.7142 7.70982 11.6454 7.16718 10.6516 7.49126C9.65784 7.81534 9.11497 8.88363 9.43906 9.87738L13.1412 21.2458C13.2917 21.7073 13.0396 22.2034 12.5782 22.3539C12.1167 22.5043 11.6206 22.2523 11.4701 21.7908L10.0155 17.3303C9.07202 18.3044 8.68982 19.7457 9.14404 21.1386L9.80075 23.1203C10.6168 25.5906 12.7381 27.4029 15.3061 27.8221C15.8459 29.4775 17.626 30.3838 19.2829 29.8435L25.6228 27.776C27.279 27.236 28.1843 25.4554 27.644 23.7987L27.4498 23.2032Z" fill="#8B00FF"/>
<path opacity="0.4" d="M3.41797 9.6709C3.41797 5.30824 6.96646 1.75898 11.3281 1.75898C15.6999 1.75898 19.2889 5.33707 19.237 9.76606C19.8071 9.55986 20.3946 9.49852 20.995 9.58201C20.9471 4.29029 16.6294 0 11.3281 0C5.99721 0 1.66016 4.33834 1.66016 9.6709C1.66016 13.4803 3.90488 16.9399 7.39092 18.5016C7.54414 17.9374 7.7873 17.3975 8.11508 16.9028C5.38572 15.6872 3.41797 12.9313 3.41797 9.6709Z" fill="#8B00FF"/>
</svg>
