<svg width="30" height="30" viewBox="0 0 30 30" fill="none" xmlns="http://www.w3.org/2000/svg">
<g clip-path="url(#clip0_1810_9438)">
<path d="M11.2139 10.1728L9.389 8.44812C9.60155 8.06195 9.73304 7.62471 9.73304 7.15301C9.73304 5.65812 8.52219 4.44727 7.02666 4.44727C5.53113 4.44727 4.31836 5.65748 4.31836 7.15301C4.31836 8.64854 5.53113 9.86003 7.02666 9.86003C7.55389 9.86003 8.04155 9.70301 8.45772 9.44258L10.2801 11.1654C10.5558 10.8009 10.8667 10.4671 11.2139 10.1728Z" fill="#8B00FF"/>
<path opacity="0.4" d="M18.9324 9.95701L21.3573 5.87637C21.596 5.94467 21.8437 5.99382 22.1035 5.99382C23.6015 5.99382 24.8124 4.78233 24.8124 3.2868C24.8124 1.79191 23.6015 0.581055 22.1035 0.581055C20.6079 0.581055 19.3977 1.79127 19.3977 3.2868C19.3977 4.02914 19.6971 4.69999 20.1809 5.18956L17.7637 9.25871C18.1792 9.44701 18.5711 9.68191 18.9324 9.95701Z" fill="#8B00FF"/>
<path d="M27.2956 13.373C26.1313 13.373 25.1451 14.1128 24.7628 15.1443L21.3938 14.8118C21.3938 14.8373 21.3977 14.8616 21.3977 14.8865C21.3977 15.3256 21.3492 15.7545 21.2617 16.1688L24.6294 16.5013C24.833 17.7933 25.9456 18.7839 27.2956 18.7839C28.7904 18.7839 30.0007 17.5737 30.0007 16.0788C30.0007 14.5845 28.7904 13.373 27.2956 13.373Z" fill="#8B00FF"/>
<path d="M17.9983 24.0147L17.2452 20.7236C16.82 20.8717 16.3777 20.9777 15.9162 21.0307L16.6707 24.3224C15.8058 24.7749 15.209 25.6692 15.209 26.7134C15.209 28.2083 16.4192 29.4179 17.9173 29.4179C19.4122 29.4179 20.6224 28.2077 20.6224 26.7134C20.6243 25.246 19.4549 24.0581 17.9983 24.0147Z" fill="#8B00FF"/>
<path opacity="0.4" d="M9.16404 16.1931L4.97043 17.598C4.4866 16.8589 3.65362 16.3686 2.70574 16.3686C1.21021 16.3686 0 17.5795 0 19.0744C0 20.5712 1.21021 21.7821 2.70574 21.7821C4.2 21.7821 5.4134 20.5712 5.4134 19.0744C5.4134 19.0118 5.4 18.9544 5.39489 18.8931L9.60192 17.4844C9.41234 17.0752 9.2617 16.6444 9.16404 16.1931Z" fill="#8B00FF"/>
<path d="M15.2114 19.5272C17.7746 19.5272 19.8524 17.4494 19.8524 14.8862C19.8524 12.323 17.7746 10.2451 15.2114 10.2451C12.6482 10.2451 10.5703 12.323 10.5703 14.8862C10.5703 17.4494 12.6482 19.5272 15.2114 19.5272Z" fill="#8B00FF"/>
</g>
<defs>
<clipPath id="clip0_1810_9438">
<rect width="30" height="30" fill="white"/>
</clipPath>
</defs>
</svg>
