<svg width="30" height="30" viewBox="0 0 30 30" fill="none" xmlns="http://www.w3.org/2000/svg">
<g clip-path="url(#clip0_1810_9452)">
<path opacity="0.4" d="M26.0742 7.88086L27.3575 6.22852L23.7715 2.64252L22.1191 3.92578C20.8008 3.08197 19.3243 2.4668 17.795 2.13281L17.5312 0H12.4688L12.205 2.13281C10.6757 2.4668 9.19922 3.08197 7.88086 3.92578L6.22852 2.64252L2.64252 6.22852L3.92578 7.88086C3.08197 9.19922 2.4668 10.6757 2.13281 12.205L0 12.4688V17.5312L2.13281 17.7949C2.4668 19.3242 3.08197 20.8008 3.92578 22.1191L2.64252 23.7715L6.22852 27.3574L7.88086 26.0742C9.19922 26.9179 10.6757 27.5333 12.205 27.8672L12.4688 30H17.5312L17.795 27.8672C19.3243 27.5332 20.8008 26.9179 22.1191 26.0742L23.7715 27.3574L27.3575 23.7715L26.0742 22.1191C26.918 20.8008 27.5333 19.3242 27.8672 17.7949L30 17.5312V12.4688L27.8672 12.205C27.5332 10.6757 26.918 9.19922 26.0742 7.88086ZM15 24.668C9.67377 24.668 5.33203 20.3261 5.33203 15C5.33203 9.67377 9.67377 5.33203 15 5.33203C20.3262 5.33203 24.668 9.67377 24.668 15C24.668 20.3261 20.3262 24.668 15 24.668Z" fill="#8B00FF"/>
<path d="M15 7.08984C10.6407 7.08984 7.08984 10.6406 7.08984 15C7.08984 19.3593 10.6407 22.9102 15 22.9102C19.3593 22.9102 22.9102 19.3593 22.9102 15C22.9102 10.6406 19.3593 7.08984 15 7.08984ZM14.1211 18.0058L10.8692 14.7363L12.0996 13.5058L14.1212 15.5097L17.9005 11.748L19.1309 12.9785L14.1211 18.0058Z" fill="#8B00FF"/>
</g>
<defs>
<clipPath id="clip0_1810_9452">
<rect width="30" height="30" fill="white"/>
</clipPath>
</defs>
</svg>
