<?xml version="1.0" encoding="UTF-8" standalone="no"?>
<svg
   width="213"
   height="137"
   viewBox="0 0 213 137"
   fill="none"
   version="1.1"
   id="svg73"
   sodipodi:docname="1.svg"
   inkscape:version="1.2 (dc2aeda, 2022-05-15)"
   xmlns:inkscape="http://www.inkscape.org/namespaces/inkscape"
   xmlns:sodipodi="http://sodipodi.sourceforge.net/DTD/sodipodi-0.dtd"
   xmlns="http://www.w3.org/2000/svg"
   xmlns:svg="http://www.w3.org/2000/svg">
  <sodipodi:namedview
     id="namedview75"
     pagecolor="#ffffff"
     bordercolor="#000000"
     borderopacity="0.25"
     inkscape:showpageshadow="2"
     inkscape:pageopacity="0.0"
     inkscape:pagecheckerboard="0"
     inkscape:deskcolor="#d1d1d1"
     showgrid="false"
     inkscape:zoom="1.3111111"
     inkscape:cx="104.11017"
     inkscape:cy="90"
     inkscape:window-width="1309"
     inkscape:window-height="456"
     inkscape:window-x="0"
     inkscape:window-y="38"
     inkscape:window-maximized="0"
     inkscape:current-layer="svg73" />
  <path
     d="M 169.404,129.059 C 185.091,115.348 213,87.3357 213,61.6294 213,47.406 207.311,33.7651 197.184,23.7077 187.057,13.6502 173.322,8 159,8 144.678,8 130.943,13.6502 120.816,23.7077 110.689,33.7651 105,47.406 105,61.6294 c 0,25.7063 27.9,53.7186 43.596,67.4296 2.863,2.538 6.566,3.941 10.404,3.941 3.838,0 7.541,-1.403 10.404,-3.941 z M 141,61.6294 c 0,-4.7411 1.896,-9.2881 5.272,-12.6406 3.376,-3.3525 7.954,-5.2359 12.728,-5.2359 4.774,0 9.352,1.8834 12.728,5.2359 3.376,3.3525 5.272,7.8995 5.272,12.6406 0,4.7411 -1.896,9.2881 -5.272,12.6405 -3.376,3.3525 -7.954,5.2359 -12.728,5.2359 -4.774,0 -9.352,-1.8834 -12.728,-5.2359 C 142.896,70.9175 141,66.3705 141,61.6294 Z"
     fill="url(#paint0_linear_501_35944)"
     fill-opacity="0.4"
     id="path9"
     style="fill:url(#paint0_linear_501_35944)" />
  <path
     d="m 135.645,54.8184 c -0.865,3.4607 -2.262,6.8067 -2.408,10.4238 -0.114,2.877 -0.792,5.0243 -2.303,6.6608 -0.584,0.6358 -2.22,0 -2.835,-0.9486 -0.97,-1.4906 0.625,-4.4718 -1.262,-4.847 -2.356,-0.4691 -3.669,-0.0105 -4.513,3.0854 -0.897,3.2105 1.24,5.9311 2.251,8.954 0.23,0.688 0.886,1.6366 -0.5,1.8242 -2.085,0.2814 -4.91,-1.0319 -5.733,-3.0854 -0.5,-1.2613 -2.585,-0.7401 -3.273,-1.574 -1.001,-1.2092 -0.959,-2.5956 -2.064,-2.262 -0.886,0.271 -1.501,1.1154 -2.314,1.6053 -1.553,0.9277 -3.972,4.0757 -5.838,3.8047 -7.004,-1.0112 -10.5171,-0.7714 -15.0619,0.886 -1.3864,0.5003 -2.4288,-0.3961 -3.4607,-0.1981 -1.3238,0.2606 -2.0222,-0.7818 -2.9708,-1.3029 -0.2502,0.6775 -0.7609,1.8033 -0.1876,2.5642 0.4691,0.6254 1.5948,0.5629 2.5851,0.5629 1.1674,0 2.5851,0.6254 4.034,1.6991 0.7192,0.5316 2.2932,0.3127 3.002,0.198 2.4809,-0.3961 3.8259,-1.7303 6.4839,-0.6358 2.772,1.1362 4.826,2.7101 4.753,6.0562 -0.052,2.3662 0.417,4.8575 0.094,7.0777 -0.917,6.2231 -2.22,10.8821 -6.38,16.2401 -0.833,1.074 -1.011,3.273 -1.886,4.347 -1.4492,1.772 -4.1802,3.252 -5.8584,4.857 -1.4594,1.397 -2.6998,3.701 -4.3363,4.858 -2.9083,2.064 -3.4399,3.554 -6.0041,2.324 -1.4489,-0.698 -3.9715,-4.503 -4.9409,-5.847 -1.3655,-1.897 -2.335,-4.045 -2.8353,-6.328 -0.271,-1.24 -0.3023,-2.48 -0.4274,-3.742 -0.2606,-2.699 -1.1883,-3.596 -3.273,-5.066 -2.0744,-1.459 -2.6998,-2.762 -4.107,-4.878 -1.9388,-2.9187 -4.6178,-2.8561 -7.255,-4.5969 -1.23,-0.8026 -1.9805,-1.6365 -2.3245,-3.0959 -0.1563,-0.6879 0.2398,-3.3564 0.2502,-3.9714 0.0313,-1.6157 -0.4274,-2.8874 -0.3857,-4.4301 0.1355,-4.6595 6.9318,-8.9332 10.6636,-10.601 2.7206,-1.2092 4.4613,-0.417 6.8275,-0.5317 1.1258,-0.0521 2.9604,-0.6254 3.9924,0.3023 0.7088,0.6359 1.699,0.8652 2.5017,1.3864 1.1362,0.2606 2.3245,0.4482 3.5857,0.4482 0.0417,0 0.0522,0.0313 0.0939,0.0313 -0.7193,-0.417 -1.4177,-0.8964 -2.1057,-1.4593 -2.0222,-1.6678 -3.6691,-3.6796 -6.1708,-4.6595 -2.5539,-1.0007 -5.0973,-0.7088 -7.7658,-0.5524 -2.8144,0.1667 -5.4412,-0.3544 -7.724,-0.9382 -2.6581,-0.6775 -3.6692,-2.8457 -3.9819,-6.1813 -0.1146,-1.1779 0.6567,-2.8874 0.7505,-4.2008 0.146,-2.0847 -1.3863,-3.5336 0.0626,-5.7956 1.4697,-2.3037 3.1063,-5.1494 5.5142,-6.494 2.116,-1.1779 4.6281,-1.501 6.8067,-2.533 2.0952,-0.9903 3.9923,-2.3662 5.7956,-3.8151 2.8666,-2.2828 5.5246,-4.8471 8.6831,-6.7546 7.1611,-4.3259 15.8231,-2.1161 23.1091,-5.7018 3.628,-1.7825 7.589,-7.7866 12.029,-7.9325 C 107.095,10.2046 94.2108,3.33529 79.8155,0.948242 c 1.376,1.271698 2.5121,2.689338 3.2627,4.284178 1.4489,3.08544 0.2397,4.63859 -1.3551,7.16118 -1.5636,2.4913 -0.0834,5.2223 -2.4183,7.1507 -1.7304,1.4385 -4.7429,1.8554 -6.8068,2.6059 -2.6789,0.9694 -5.3474,1.9493 -8.0263,2.8978 -2.7206,0.9486 -5.7644,1.8659 -8.683,1.3656 -3.1584,-0.5316 -3.8673,-2.0118 -5.2223,-4.524 -0.2711,-0.5003 -0.5108,-3.3877 -2.7728,-3.4815 -3.0229,-0.1251 -5.2953,-0.2502 -7.182,1.0007 -2.5434,1.6886 -3.3252,5.3265 -3.9193,8.2973 -0.761,3.7943 1.0841,8.485 -1.23,11.8831 -1.376,2.0118 -3.8464,2.7832 -6.1501,3.0542 -4.5343,0.542 -8.9019,-1.1362 -13.3945,-1.1675 -3.6171,-0.0208 -6.3064,1.6887 -7.0048,4.524 -0.4795,1.9492 0.5629,4.034 0.615,6.0562 0.0729,3.0437 -0.1668,5.6497 -0.761,8.3807 -0.2293,1.0528 -1.1778,2.3037 -2.0222,1.6366 -2.34533,-1.845 -4.16949,-4.0028 -5.54543,-6.3481 -0.48992,2.6059 -0.83391,5.264 -1.02154,7.9637 0.9173,0.3857 2.189,1.4073 3.05418,2.1369 2.61639,2.2203 2.38709,6.4524 3.94019,9.4127 2.3975,4.5656 7.0673,5.2849 10.8407,8.1723 2.0223,1.5531 3.7005,3.5753 3.9298,6.2125 0.1251,1.3968 -0.271,2.3975 -0.4899,3.7422 -0.6567,4.0131 -0.073,7.0044 1.8346,10.6114 3.3356,6.306 8.61,12.498 15.4168,15.01 1.2091,0.448 2.9603,0.886 3.5962,1.897 0.5941,0.949 -2.8249,2.273 -3.6588,2.773 -2.4913,1.491 -4.8992,2.241 -7.2237,2.429 C 42.1127,132.986 54.8297,137 68.4953,137 106.334,137 137,106.333 137,68.4944 c 0.011,-4.6698 -0.458,-9.2459 -1.355,-13.676 z M 35.3685,48.2931 c -0.4066,1.032 -0.7089,1.7721 -0.8548,2.9916 -0.0938,0.7818 0.073,1.4489 -0.5108,2.0848 -0.813,0.886 -2.0326,0.6984 -2.9395,0.0625 -2.0222,-1.4072 -3.346,-3.7942 -5.3682,-5.2953 -0.8235,-0.6045 -1.9805,-0.8443 -1.6887,-2.0013 0.3336,-1.2717 2.1577,-1.6366 3.2314,-1.6261 1.4176,0.0104 2.9187,0.8547 4.0757,-0.0417 0.9381,-0.7297 2.3141,-1.1258 3.0854,-0.5525 1.2613,0.9486 1.4907,3.0542 0.9695,4.378 z"
     fill="#c9eddb"
     id="path11" />
  <path
     d="m 135.645,54.8184 c -0.865,3.4607 -2.262,6.8067 -2.408,10.4238 -0.114,2.877 -0.792,5.0243 -2.303,6.6608 -0.584,0.6358 -2.22,0 -2.835,-0.9486 -0.97,-1.4906 0.625,-4.4718 -1.262,-4.847 -2.356,-0.4691 -3.669,-0.0105 -4.513,3.0854 -0.897,3.2105 1.24,5.9311 2.251,8.954 0.23,0.688 0.886,1.6366 -0.5,1.8242 -2.085,0.2814 -4.91,-1.0319 -5.733,-3.0854 -0.5,-1.2613 -2.585,-0.7401 -3.273,-1.574 -1.001,-1.2092 -0.959,-2.5956 -2.064,-2.262 -0.886,0.271 -1.501,1.1154 -2.314,1.6053 -1.553,0.9277 -3.972,4.0757 -5.838,3.8047 -7.004,-1.0112 -10.5171,-0.7714 -15.0619,0.886 -1.3864,0.5003 -2.4288,-0.3961 -3.4607,-0.1981 -1.3238,0.2606 -2.0222,-0.7818 -2.9708,-1.3029 -0.2502,0.6775 -0.7609,1.8033 -0.1876,2.5642 0.4691,0.6254 1.5948,0.5629 2.5851,0.5629 1.1674,0 2.5851,0.6254 4.034,1.6991 0.7192,0.5316 2.2932,0.3127 3.002,0.198 2.4809,-0.3961 3.8259,-1.7303 6.4839,-0.6358 2.772,1.1362 4.826,2.7101 4.753,6.0562 -0.052,2.3662 0.417,4.8575 0.094,7.0777 -0.917,6.2231 -2.22,10.8821 -6.38,16.2401 -0.833,1.074 -1.011,3.273 -1.886,4.347 -1.4492,1.772 -4.1802,3.252 -5.8584,4.857 -1.4594,1.397 -2.6998,3.701 -4.3363,4.858 -2.9083,2.064 -3.4399,3.554 -6.0041,2.324 -1.4489,-0.698 -3.9715,-4.503 -4.9409,-5.847 -1.3655,-1.897 -2.335,-4.045 -2.8353,-6.328 -0.271,-1.24 -0.3023,-2.48 -0.4274,-3.742 -0.2606,-2.699 -1.1883,-3.596 -3.273,-5.066 -2.0744,-1.459 -2.6998,-2.762 -4.107,-4.878 -1.9388,-2.9187 -4.6178,-2.8561 -7.255,-4.5969 -1.23,-0.8026 -1.9805,-1.6365 -2.3245,-3.0959 -0.1563,-0.6879 0.2398,-3.3564 0.2502,-3.9714 0.0313,-1.6157 -0.4274,-2.8874 -0.3857,-4.4301 0.1355,-4.6595 6.9318,-8.9332 10.6636,-10.601 2.7206,-1.2092 4.4613,-0.417 6.8275,-0.5317 1.1258,-0.0521 2.9604,-0.6254 3.9924,0.3023 0.7088,0.6359 1.699,0.8652 2.5017,1.3864 1.1362,0.2606 2.3245,0.4482 3.5857,0.4482 0.0417,0 0.0522,0.0313 0.0939,0.0313 -0.7193,-0.417 -1.4177,-0.8964 -2.1057,-1.4593 -2.0222,-1.6678 -3.6691,-3.6796 -6.1708,-4.6595 -2.5539,-1.0007 -5.0973,-0.7088 -7.7658,-0.5524 -2.8144,0.1667 -5.4412,-0.3544 -7.724,-0.9382 -2.6581,-0.6775 -3.6692,-2.8457 -3.9819,-6.1813 -0.1146,-1.1779 0.6567,-2.8874 0.7505,-4.2008 0.146,-2.0847 -1.3863,-3.5336 0.0626,-5.7956 1.4697,-2.3037 3.1063,-5.1494 5.5142,-6.494 2.116,-1.1779 4.6281,-1.501 6.8067,-2.533 2.0952,-0.9903 3.9923,-2.3662 5.7956,-3.8151 2.8666,-2.2828 5.5246,-4.8471 8.6831,-6.7546 7.1611,-4.3259 15.8231,-2.1161 23.1091,-5.7018 3.628,-1.7825 7.589,-7.7866 12.029,-7.9325 C 107.095,10.2046 94.2108,3.33529 79.8155,0.948242 c 1.376,1.271698 2.5121,2.689338 3.2627,4.284178 1.4489,3.08544 0.2397,4.63859 -1.3551,7.16118 -1.5636,2.4913 -0.0834,5.2223 -2.4183,7.1507 -1.7304,1.4385 -4.7429,1.8554 -6.8068,2.6059 -2.6789,0.9694 -5.3474,1.9493 -8.0263,2.8978 -2.7206,0.9486 -5.7644,1.8659 -8.683,1.3656 -3.1584,-0.5316 -3.8673,-2.0118 -5.2223,-4.524 -0.2711,-0.5003 -0.5108,-3.3877 -2.7728,-3.4815 -3.0229,-0.1251 -5.2953,-0.2502 -7.182,1.0007 -2.5434,1.6886 -3.3252,5.3265 -3.9193,8.2973 -0.761,3.7943 1.0841,8.485 -1.23,11.8831 -1.376,2.0118 -3.8464,2.7832 -6.1501,3.0542 -4.5343,0.542 -8.9019,-1.1362 -13.3945,-1.1675 -3.6171,-0.0208 -6.3064,1.6887 -7.0048,4.524 -0.4795,1.9492 0.5629,4.034 0.615,6.0562 0.0729,3.0437 -0.1668,5.6497 -0.761,8.3807 -0.2293,1.0528 -1.1778,2.3037 -2.0222,1.6366 -2.34533,-1.845 -4.16949,-4.0028 -5.54543,-6.3481 -0.48992,2.6059 -0.83391,5.264 -1.02154,7.9637 0.9173,0.3857 2.189,1.4073 3.05418,2.1369 2.61639,2.2203 2.38709,6.4524 3.94019,9.4127 2.3975,4.5656 7.0673,5.2849 10.8407,8.1723 2.0223,1.5531 3.7005,3.5753 3.9298,6.2125 0.1251,1.3968 -0.271,2.3975 -0.4899,3.7422 -0.6567,4.0131 -0.073,7.0044 1.8346,10.6114 3.3356,6.306 8.61,12.498 15.4168,15.01 1.2091,0.448 2.9603,0.886 3.5962,1.897 0.5941,0.949 -2.8249,2.273 -3.6588,2.773 -2.4913,1.491 -4.8992,2.241 -7.2237,2.429 C 42.1127,132.986 54.8297,137 68.4953,137 106.334,137 137,106.333 137,68.4944 c 0.011,-4.6698 -0.458,-9.2459 -1.355,-13.676 z M 35.3685,48.2931 c -0.4066,1.032 -0.7089,1.7721 -0.8548,2.9916 -0.0938,0.7818 0.073,1.4489 -0.5108,2.0848 -0.813,0.886 -2.0326,0.6984 -2.9395,0.0625 -2.0222,-1.4072 -3.346,-3.7942 -5.3682,-5.2953 -0.8235,-0.6045 -1.9805,-0.8443 -1.6887,-2.0013 0.3336,-1.2717 2.1577,-1.6366 3.2314,-1.6261 1.4176,0.0104 2.9187,0.8547 4.0757,-0.0417 0.9381,-0.7297 2.3141,-1.1258 3.0854,-0.5525 1.2613,0.9486 1.4907,3.0542 0.9695,4.378 z"
     fill="url(#paint1_linear_501_35944)"
     fill-opacity="0.15"
     id="path13"
     style="fill:url(#paint1_linear_501_35944)" />
  <path
     fill-rule="evenodd"
     clip-rule="evenodd"
     d="M 6.7544,62.0841 C 7.5883,62.7512 8.5473,61.49 8.7767,60.4476 9.3708,57.7061 9.6001,55.1106 9.5376,52.0668 9.513,51.2684 9.3373,50.4618 9.1619,49.6574 8.8909,48.414 8.621,47.1755 8.9122,45.9794 c 0.6984,-2.8353 3.3877,-4.5448 7.0048,-4.524 1.9134,0.0133 3.8042,0.3254 5.6948,0.6375 v 0 c 2.5484,0.4206 5.0966,0.8412 7.6997,0.53 2.3037,-0.271 4.7741,-1.0424 6.1501,-3.0542 1.4236,-2.0905 1.2731,-4.6662 1.1237,-7.2248 v 0 c -0.0935,-1.6005 -0.1865,-3.1942 0.1063,-4.6583 0.5941,-2.9708 1.3759,-6.6087 3.9193,-8.2973 1.8444,-1.2228 4.0573,-1.1307 6.9796,-1.0091 l 0.2024,0.0084 c 1.8166,0.0753 2.3289,1.9524 2.6006,2.9478 v 10e-5 c 0.0666,0.244 0.1188,0.4351 0.1721,0.5336 l 0.1193,0.2214 c 1.2802,2.3779 2.0386,3.7867 5.1031,4.3025 2.9186,0.5004 5.9624,-0.4169 8.683,-1.3655 1.8574,-0.6479 3.6998,-1.3207 5.5445,-1.9943 0.8263,-0.3017 1.6531,-0.6036 2.4818,-0.9035 0.6234,-0.2255 1.3306,-0.421 2.062,-0.6231 1.702,-0.4703 3.5344,-0.9767 4.7447,-1.9828 1.3052,-1.0779 1.4183,-2.4066 1.5373,-3.804 0.0939,-1.1026 0.1915,-2.248 0.8811,-3.3468 0.1019,-0.1622 0.2023,-0.3204 0.3005,-0.4753 C 83.4526,9.64438 84.4332,8.09891 83.0775,5.2119 82.3269,3.61706 81.1908,2.19942 79.8148,0.927718 76.1352,0.333561 72.3618,0 68.505,0 35.0446,0 7.1922,24.006 1.20898,55.7256 2.58493,58.0814 4.40909,60.2287 6.7544,62.0841 Z M 75.6776,38.3967 c 1.9701,-1.6625 3.9414,-3.3261 6.1595,-4.6657 3.8053,-2.2987 8.0343,-2.7549 12.2477,-3.2094 3.7162,-0.4008 7.4192,-0.8003 10.8102,-2.4612 1.392,-0.6844 2.836,-1.9912 4.337,-3.3499 2.408,-2.1797 4.963,-4.4927 7.692,-4.5826 9.308,9.3293 15.948,21.3167 18.669,34.7321 -0.259,1.0339 -0.566,2.0576 -0.873,3.0813 -0.72,2.4029 -1.44,4.8061 -1.535,7.3425 -0.115,2.877 -0.792,5.0243 -2.304,6.6608 -0.584,0.6359 -2.22,0 -2.835,-0.9486 -0.408,-0.6333 -0.354,-1.5356 -0.303,-2.3929 0.069,-1.1605 0.133,-2.2383 -0.958,-2.4541 -2.356,-0.4587 -3.67,0 -4.514,3.0854 -0.646,2.3134 0.283,4.3723 1.231,6.4733 0.368,0.8149 0.738,1.636 1.021,2.4808 0.035,0.1075 0.082,0.2215 0.129,0.3379 v 1e-4 c 0.255,0.6281 0.54,1.3278 -0.63,1.4861 -2.085,0.2919 -4.909,-1.0319 -5.733,-3.0854 -0.281,-0.7096 -1.064,-0.855 -1.818,-0.995 -0.586,-0.1088 -1.154,-0.2143 -1.455,-0.579 -0.361,-0.4403 -0.585,-0.9023 -0.777,-1.2968 -0.338,-0.6983 -0.574,-1.185 -1.287,-0.9652 -0.537,0.1642 -0.974,0.5388 -1.416,0.9175 v 10e-5 1e-4 c -0.288,0.2464 -0.577,0.4945 -0.898,0.6876 -0.513,0.3062 -1.12,0.8544 -1.77,1.4417 -1.319,1.1918 -2.817,2.5445 -4.067,2.363 -6.995,-1.0007 -10.5179,-0.7714 -15.0627,0.886 -0.7979,0.288 -1.4784,0.1133 -2.1111,-0.0492 -0.4666,-0.1198 -0.9071,-0.2329 -1.3496,-0.1489 -0.9524,0.1861 -1.5755,-0.2919 -2.1992,-0.7702 -0.25,-0.1918 -0.5001,-0.3836 -0.7715,-0.5327 l -0.019,0.0508 c -0.0077,0.0206 -0.0156,0.0415 -0.0237,0.0627 -0.0097,0.0256 -0.0196,0.0516 -0.0297,0.0781 -0.2605,0.6826 -0.6373,1.6702 -0.1153,2.3726 0.4302,0.5736 1.4129,0.5686 2.3367,0.5638 0.0834,-5e-4 0.1664,-9e-4 0.2484,-9e-4 1.1675,0 2.5851,0.6254 4.034,1.6991 0.7297,0.5316 2.3037,0.3127 3.0021,0.198 0.7784,-0.1242 1.445,-0.3399 2.0754,-0.5438 1.3782,-0.446 2.5842,-0.8359 4.4082,-0.092 2.773,1.1362 4.826,2.7102 4.753,6.0562 -0.02,0.934 0.042,1.8909 0.105,2.8441 v 3e-4 10e-5 c 0.096,1.4509 0.19,2.8934 -0.011,4.2333 -0.917,6.2234 -2.22,10.8824 -6.379,16.2404 -0.4,0.516 -0.648,1.303 -0.898,2.099 -0.265,0.843 -0.533,1.695 -0.989,2.248 -0.8385,1.025 -2.1064,1.953 -3.3511,2.864 h -1e-4 -1e-4 c -0.9061,0.663 -1.7999,1.317 -2.5069,1.993 -0.6108,0.585 -1.1833,1.326 -1.7625,2.077 h -10e-5 -1e-4 v 0 c -0.8046,1.043 -1.6221,2.102 -2.5736,2.781 -0.6941,0.492 -1.2528,0.951 -1.736,1.349 -1.5417,1.267 -2.3158,1.904 -4.2681,0.975 -1.2642,-0.6 -3.3458,-3.573 -4.4999,-5.222 -0.1686,-0.24 -0.3174,-0.453 -0.441,-0.626 -1.3655,-1.897 -2.3349,-4.044 -2.8352,-6.327 -0.1958,-0.896 -0.2665,-1.792 -0.3378,-2.696 -0.0274,-0.347 -0.0549,-0.696 -0.0896,-1.046 -0.2606,-2.7 -1.1883,-3.596 -3.2731,-5.066 -1.7423,-1.226 -2.4624,-2.341 -3.4822,-3.921 -0.1943,-0.301 -0.3995,-0.619 -0.6247,-0.957 -1.2532,-1.887 -2.8111,-2.5322 -4.4711,-3.2199 -0.9085,-0.3764 -1.8475,-0.7654 -2.7839,-1.3774 -1.23,-0.8026 -1.9805,-1.6365 -2.3245,-3.0958 -0.1125,-0.4639 0.0357,-1.8281 0.1474,-2.8562 v -3e-4 c 0.0539,-0.4966 0.0994,-0.9147 0.1028,-1.115 0.0156,-0.8081 -0.0913,-1.5302 -0.1969,-2.2432 -0.1055,-0.7125 -0.2097,-1.4158 -0.1888,-2.1869 0.1355,-4.6595 6.9318,-8.9332 10.6635,-10.601 1.8635,-0.8354 3.2722,-0.722 4.732,-0.6045 0.6713,0.0541 1.3535,0.109 2.0956,0.0729 0.2581,-0.0142 0.5518,-0.0543 0.8636,-0.0968 h 1e-4 c 1.0606,-0.1446 2.3311,-0.3179 3.1286,0.3991 0.425,0.3812 0.9474,0.6201 1.4729,0.8603 0.351,0.1604 0.7033,0.3215 1.0288,0.526 1.1466,0.2606 2.3245,0.4482 3.5858,0.4482 0.0278,0 0.0463,0.0093 0.0649,0.0186 0.0092,0.0046 0.0185,0.0092 0.0289,0.0127 -0.7192,-0.4169 -1.428,-0.8964 -2.1056,-1.4593 -0.5558,-0.4584 -1.0832,-0.9427 -1.6078,-1.4245 v -10e-5 c -1.3843,-1.2711 -2.7489,-2.5243 -4.5631,-3.2349 -2.2987,-0.9007 -4.589,-0.7542 -6.9696,-0.6019 -0.2642,0.0169 -0.5295,0.0339 -0.7961,0.0495 -2.8144,0.1668 -5.4308,-0.3544 -7.724,-0.9382 -2.6685,-0.6775 -3.6692,-2.8457 -3.9819,-6.1813 -0.0649,-0.6661 0.1536,-1.5022 0.3727,-2.3405 0.1684,-0.6441 0.337,-1.2896 0.3778,-1.8603 0.0534,-0.7627 -0.1179,-1.439 -0.2856,-2.1012 -0.2906,-1.1477 -0.5707,-2.2534 0.3481,-3.6944 0.1395,-0.2185 0.2804,-0.442 0.4233,-0.6687 l 3e-4,-5e-4 c 1.3639,-2.163 2.9113,-4.6172 5.0906,-5.8248 1.1558,-0.6434 2.4297,-1.0317 3.7029,-1.4199 1.0579,-0.3224 2.1152,-0.6448 3.1039,-1.1131 2.0952,-0.9903 3.9923,-2.3766 5.7956,-3.8151 0.8532,-0.6795 1.688,-1.3839 2.5229,-2.0885 l 2e-4,-1e-4 z M 39.3669,119.231 c 1.1174,0.383 2.4148,0.827 2.9329,1.664 0.4638,0.741 -1.5186,1.71 -2.8021,2.338 -0.3604,0.176 -0.6657,0.325 -0.8463,0.435 -2.4913,1.491 -4.8992,2.241 -7.2237,2.429 C 12.5294,113.901 0,92.6677 0,68.5053 0,66.8896 0.07297,65.2844 0.1772,63.7 c 0.9173,0.3752 2.189,1.3968 3.05418,2.1368 1.60785,1.3645 2.14102,3.4887 2.67362,5.6106 0.3341,1.331 0.6679,2.661 1.2666,3.8021 1.5735,2.9966 4.1259,4.3362 6.7612,5.7194 l 10e-5,10e-5 c 1.3799,0.7242 2.7826,1.4605 4.0794,2.4528 2.0222,1.5531 3.7005,3.5753 3.9298,6.2126 0.0884,0.9871 -0.0835,1.7763 -0.2692,2.629 -0.0771,0.3539 -0.1565,0.7187 -0.2207,1.1131 -0.6567,4.0236 -0.073,7.0045 1.8346,10.6115 3.3356,6.306 8.61,12.498 15.4167,15.01 0.2073,0.077 0.4307,0.154 0.6619,0.233 h 9e-4 z M 28.6371,44.7122 c 0.9644,0.1921 1.9036,0.3791 2.6856,-0.2338 0.9381,-0.7297 2.3037,-1.1258 3.0854,-0.5421 1.2613,0.9382 1.4906,3.0438 0.9694,4.3676 -0.0199,0.0513 -0.0397,0.1018 -0.0592,0.1516 -0.3766,0.9637 -0.6567,1.6804 -0.7955,2.84 -0.0239,0.1989 -0.0309,0.3903 -0.0377,0.5757 -0.0198,0.5435 -0.0378,1.035 -0.4731,1.5091 -0.813,0.8756 -2.0326,0.688 -2.9395,0.0625 -1.0352,-0.7203 -1.8873,-1.7002 -2.7438,-2.685 -0.8167,-0.9391 -1.6374,-1.8827 -2.6244,-2.6103 -0.1983,-0.1456 -0.4166,-0.2706 -0.6295,-0.3926 -0.6711,-0.3844 -1.2887,-0.7382 -1.0592,-1.6087 0.3336,-1.2717 2.1577,-1.6366 3.2314,-1.6261 0.4594,0.0067 0.9277,0.1 1.3901,0.1921 z"
     fill="url(#paint2_linear_501_35944)"
     id="path15"
     style="fill:url(#paint2_linear_501_35944)" />
  <path
     fill-rule="evenodd"
     clip-rule="evenodd"
     d="M 6.7544,62.0841 C 7.5883,62.7512 8.5473,61.49 8.7767,60.4476 9.3708,57.7061 9.6001,55.1106 9.5376,52.0668 9.513,51.2684 9.3373,50.4618 9.1619,49.6574 8.8909,48.414 8.621,47.1755 8.9122,45.9794 c 0.6984,-2.8353 3.3877,-4.5448 7.0048,-4.524 1.9134,0.0133 3.8042,0.3254 5.6948,0.6375 v 0 c 2.5484,0.4206 5.0966,0.8412 7.6997,0.53 2.3037,-0.271 4.7741,-1.0424 6.1501,-3.0542 1.4236,-2.0905 1.2731,-4.6662 1.1237,-7.2248 v 0 c -0.0935,-1.6005 -0.1865,-3.1942 0.1063,-4.6583 0.5941,-2.9708 1.3759,-6.6087 3.9193,-8.2973 1.8444,-1.2228 4.0573,-1.1307 6.9796,-1.0091 l 0.2024,0.0084 c 1.8166,0.0753 2.3289,1.9524 2.6006,2.9478 v 10e-5 c 0.0666,0.244 0.1188,0.4351 0.1721,0.5336 l 0.1193,0.2214 c 1.2802,2.3779 2.0386,3.7867 5.1031,4.3025 2.9186,0.5004 5.9624,-0.4169 8.683,-1.3655 1.8574,-0.6479 3.6998,-1.3207 5.5445,-1.9943 0.8263,-0.3017 1.6531,-0.6036 2.4818,-0.9035 0.6234,-0.2255 1.3306,-0.421 2.062,-0.6231 1.702,-0.4703 3.5344,-0.9767 4.7447,-1.9828 1.3052,-1.0779 1.4183,-2.4066 1.5373,-3.804 0.0939,-1.1026 0.1915,-2.248 0.8811,-3.3468 0.1019,-0.1622 0.2023,-0.3204 0.3005,-0.4753 C 83.4526,9.64438 84.4332,8.09891 83.0775,5.2119 82.3269,3.61706 81.1908,2.19942 79.8148,0.927718 76.1352,0.333561 72.3618,0 68.505,0 35.0446,0 7.1922,24.006 1.20898,55.7256 2.58493,58.0814 4.40909,60.2287 6.7544,62.0841 Z M 75.6776,38.3967 c 1.9701,-1.6625 3.9414,-3.3261 6.1595,-4.6657 3.8053,-2.2987 8.0343,-2.7549 12.2477,-3.2094 3.7162,-0.4008 7.4192,-0.8003 10.8102,-2.4612 1.392,-0.6844 2.836,-1.9912 4.337,-3.3499 2.408,-2.1797 4.963,-4.4927 7.692,-4.5826 9.308,9.3293 15.948,21.3167 18.669,34.7321 -0.259,1.0339 -0.566,2.0576 -0.873,3.0813 -0.72,2.4029 -1.44,4.8061 -1.535,7.3425 -0.115,2.877 -0.792,5.0243 -2.304,6.6608 -0.584,0.6359 -2.22,0 -2.835,-0.9486 -0.408,-0.6333 -0.354,-1.5356 -0.303,-2.3929 0.069,-1.1605 0.133,-2.2383 -0.958,-2.4541 -2.356,-0.4587 -3.67,0 -4.514,3.0854 -0.646,2.3134 0.283,4.3723 1.231,6.4733 0.368,0.8149 0.738,1.636 1.021,2.4808 0.035,0.1075 0.082,0.2215 0.129,0.3379 v 1e-4 c 0.255,0.6281 0.54,1.3278 -0.63,1.4861 -2.085,0.2919 -4.909,-1.0319 -5.733,-3.0854 -0.281,-0.7096 -1.064,-0.855 -1.818,-0.995 -0.586,-0.1088 -1.154,-0.2143 -1.455,-0.579 -0.361,-0.4403 -0.585,-0.9023 -0.777,-1.2968 -0.338,-0.6983 -0.574,-1.185 -1.287,-0.9652 -0.537,0.1642 -0.974,0.5388 -1.416,0.9175 v 10e-5 1e-4 c -0.288,0.2464 -0.577,0.4945 -0.898,0.6876 -0.513,0.3062 -1.12,0.8544 -1.77,1.4417 -1.319,1.1918 -2.817,2.5445 -4.067,2.363 -6.995,-1.0007 -10.5179,-0.7714 -15.0627,0.886 -0.7979,0.288 -1.4784,0.1133 -2.1111,-0.0492 -0.4666,-0.1198 -0.9071,-0.2329 -1.3496,-0.1489 -0.9524,0.1861 -1.5755,-0.2919 -2.1992,-0.7702 -0.25,-0.1918 -0.5001,-0.3836 -0.7715,-0.5327 l -0.019,0.0508 c -0.0077,0.0206 -0.0156,0.0415 -0.0237,0.0627 -0.0097,0.0256 -0.0196,0.0516 -0.0297,0.0781 -0.2605,0.6826 -0.6373,1.6702 -0.1153,2.3726 0.4302,0.5736 1.4129,0.5686 2.3367,0.5638 0.0834,-5e-4 0.1664,-9e-4 0.2484,-9e-4 1.1675,0 2.5851,0.6254 4.034,1.6991 0.7297,0.5316 2.3037,0.3127 3.0021,0.198 0.7784,-0.1242 1.445,-0.3399 2.0754,-0.5438 1.3782,-0.446 2.5842,-0.8359 4.4082,-0.092 2.773,1.1362 4.826,2.7102 4.753,6.0562 -0.02,0.934 0.042,1.8909 0.105,2.8441 v 3e-4 10e-5 c 0.096,1.4509 0.19,2.8934 -0.011,4.2333 -0.917,6.2234 -2.22,10.8824 -6.379,16.2404 -0.4,0.516 -0.648,1.303 -0.898,2.099 -0.265,0.843 -0.533,1.695 -0.989,2.248 -0.8385,1.025 -2.1064,1.953 -3.3511,2.864 h -1e-4 -1e-4 c -0.9061,0.663 -1.7999,1.317 -2.5069,1.993 -0.6108,0.585 -1.1833,1.326 -1.7625,2.077 h -10e-5 -1e-4 v 0 c -0.8046,1.043 -1.6221,2.102 -2.5736,2.781 -0.6941,0.492 -1.2528,0.951 -1.736,1.349 -1.5417,1.267 -2.3158,1.904 -4.2681,0.975 -1.2642,-0.6 -3.3458,-3.573 -4.4999,-5.222 -0.1686,-0.24 -0.3174,-0.453 -0.441,-0.626 -1.3655,-1.897 -2.3349,-4.044 -2.8352,-6.327 -0.1958,-0.896 -0.2665,-1.792 -0.3378,-2.696 -0.0274,-0.347 -0.0549,-0.696 -0.0896,-1.046 -0.2606,-2.7 -1.1883,-3.596 -3.2731,-5.066 -1.7423,-1.226 -2.4624,-2.341 -3.4822,-3.921 -0.1943,-0.301 -0.3995,-0.619 -0.6247,-0.957 -1.2532,-1.887 -2.8111,-2.5322 -4.4711,-3.2199 -0.9085,-0.3764 -1.8475,-0.7654 -2.7839,-1.3774 -1.23,-0.8026 -1.9805,-1.6365 -2.3245,-3.0958 -0.1125,-0.4639 0.0357,-1.8281 0.1474,-2.8562 v -3e-4 c 0.0539,-0.4966 0.0994,-0.9147 0.1028,-1.115 0.0156,-0.8081 -0.0913,-1.5302 -0.1969,-2.2432 -0.1055,-0.7125 -0.2097,-1.4158 -0.1888,-2.1869 0.1355,-4.6595 6.9318,-8.9332 10.6635,-10.601 1.8635,-0.8354 3.2722,-0.722 4.732,-0.6045 0.6713,0.0541 1.3535,0.109 2.0956,0.0729 0.2581,-0.0142 0.5518,-0.0543 0.8636,-0.0968 h 1e-4 c 1.0606,-0.1446 2.3311,-0.3179 3.1286,0.3991 0.425,0.3812 0.9474,0.6201 1.4729,0.8603 0.351,0.1604 0.7033,0.3215 1.0288,0.526 1.1466,0.2606 2.3245,0.4482 3.5858,0.4482 0.0278,0 0.0463,0.0093 0.0649,0.0186 0.0092,0.0046 0.0185,0.0092 0.0289,0.0127 -0.7192,-0.4169 -1.428,-0.8964 -2.1056,-1.4593 -0.5558,-0.4584 -1.0832,-0.9427 -1.6078,-1.4245 v -10e-5 c -1.3843,-1.2711 -2.7489,-2.5243 -4.5631,-3.2349 -2.2987,-0.9007 -4.589,-0.7542 -6.9696,-0.6019 -0.2642,0.0169 -0.5295,0.0339 -0.7961,0.0495 -2.8144,0.1668 -5.4308,-0.3544 -7.724,-0.9382 -2.6685,-0.6775 -3.6692,-2.8457 -3.9819,-6.1813 -0.0649,-0.6661 0.1536,-1.5022 0.3727,-2.3405 0.1684,-0.6441 0.337,-1.2896 0.3778,-1.8603 0.0534,-0.7627 -0.1179,-1.439 -0.2856,-2.1012 -0.2906,-1.1477 -0.5707,-2.2534 0.3481,-3.6944 0.1395,-0.2185 0.2804,-0.442 0.4233,-0.6687 l 3e-4,-5e-4 c 1.3639,-2.163 2.9113,-4.6172 5.0906,-5.8248 1.1558,-0.6434 2.4297,-1.0317 3.7029,-1.4199 1.0579,-0.3224 2.1152,-0.6448 3.1039,-1.1131 2.0952,-0.9903 3.9923,-2.3766 5.7956,-3.8151 0.8532,-0.6795 1.688,-1.3839 2.5229,-2.0885 l 2e-4,-1e-4 z M 39.3669,119.231 c 1.1174,0.383 2.4148,0.827 2.9329,1.664 0.4638,0.741 -1.5186,1.71 -2.8021,2.338 -0.3604,0.176 -0.6657,0.325 -0.8463,0.435 -2.4913,1.491 -4.8992,2.241 -7.2237,2.429 C 12.5294,113.901 0,92.6677 0,68.5053 0,66.8896 0.07297,65.2844 0.1772,63.7 c 0.9173,0.3752 2.189,1.3968 3.05418,2.1368 1.60785,1.3645 2.14102,3.4887 2.67362,5.6106 0.3341,1.331 0.6679,2.661 1.2666,3.8021 1.5735,2.9966 4.1259,4.3362 6.7612,5.7194 l 10e-5,10e-5 c 1.3799,0.7242 2.7826,1.4605 4.0794,2.4528 2.0222,1.5531 3.7005,3.5753 3.9298,6.2126 0.0884,0.9871 -0.0835,1.7763 -0.2692,2.629 -0.0771,0.3539 -0.1565,0.7187 -0.2207,1.1131 -0.6567,4.0236 -0.073,7.0045 1.8346,10.6115 3.3356,6.306 8.61,12.498 15.4167,15.01 0.2073,0.077 0.4307,0.154 0.6619,0.233 h 9e-4 z M 28.6371,44.7122 c 0.9644,0.1921 1.9036,0.3791 2.6856,-0.2338 0.9381,-0.7297 2.3037,-1.1258 3.0854,-0.5421 1.2613,0.9382 1.4906,3.0438 0.9694,4.3676 -0.0199,0.0513 -0.0397,0.1018 -0.0592,0.1516 -0.3766,0.9637 -0.6567,1.6804 -0.7955,2.84 -0.0239,0.1989 -0.0309,0.3903 -0.0377,0.5757 -0.0198,0.5435 -0.0378,1.035 -0.4731,1.5091 -0.813,0.8756 -2.0326,0.688 -2.9395,0.0625 -1.0352,-0.7203 -1.8873,-1.7002 -2.7438,-2.685 -0.8167,-0.9391 -1.6374,-1.8827 -2.6244,-2.6103 -0.1983,-0.1456 -0.4166,-0.2706 -0.6295,-0.3926 -0.6711,-0.3844 -1.2887,-0.7382 -1.0592,-1.6087 0.3336,-1.2717 2.1577,-1.6366 3.2314,-1.6261 0.4594,0.0067 0.9277,0.1 1.3901,0.1921 z"
     fill="url(#paint3_linear_501_35944)"
     id="path17"
     style="fill:url(#paint3_linear_501_35944)" />
  <defs
     id="defs71">
    <filter
       id="filter0_f_501_35944"
       x="0"
       y="131"
       width="147.002"
       height="48.999001"
       filterUnits="userSpaceOnUse"
       color-interpolation-filters="sRGB">
      <feFlood
         flood-opacity="0"
         result="BackgroundImageFix"
         id="feFlood29" />
      <feBlend
         mode="normal"
         in="SourceGraphic"
         in2="BackgroundImageFix"
         result="shape"
         id="feBlend31" />
      <feGaussianBlur
         stdDeviation="7.5"
         result="effect1_foregroundBlur_501_35944"
         id="feGaussianBlur33" />
    </filter>
    <linearGradient
       id="paint0_linear_501_35944"
       x1="164"
       y1="8"
       x2="164"
       y2="133"
       gradientUnits="userSpaceOnUse"
       gradientTransform="translate(-5)">
      <stop
         stop-color="white"
         id="stop36" />
      <stop
         offset="1"
         stop-color="#CCFFEC"
         id="stop38" />
    </linearGradient>
    <linearGradient
       id="paint1_linear_501_35944"
       x1="23.7054"
       y1="-163.50101"
       x2="59.8647"
       y2="228.103"
       gradientUnits="userSpaceOnUse"
       gradientTransform="translate(-5)">
      <stop
         stop-color="#245795"
         id="stop41" />
      <stop
         offset="1"
         stop-color="#8AD3A8"
         id="stop43" />
    </linearGradient>
    <linearGradient
       id="paint2_linear_501_35944"
       x1="38.9995"
       y1="53.477699"
       x2="33.083302"
       y2="43.230598"
       gradientUnits="userSpaceOnUse"
       gradientTransform="translate(-5)">
      <stop
         stop-color="#4B42C6"
         id="stop46" />
      <stop
         offset="1"
         stop-color="#4232B2"
         id="stop48" />
    </linearGradient>
    <linearGradient
       id="paint3_linear_501_35944"
       x1="-8.60919"
       y1="-28.579399"
       x2="-9.75352"
       y2="174.789"
       gradientUnits="userSpaceOnUse"
       gradientTransform="translate(-5)">
      <stop
         stop-color="#245795"
         id="stop51" />
      <stop
         offset="1"
         stop-color="#8AD3A8"
         id="stop53" />
    </linearGradient>
    <linearGradient
       id="paint4_linear_501_35944"
       x1="30.9753"
       y1="123.324"
       x2="31.7964"
       y2="178.08501"
       gradientUnits="userSpaceOnUse">
      <stop
         stop-color="#245795"
         id="stop56" />
      <stop
         offset="1"
         stop-color="#8AD3A8"
         id="stop58" />
    </linearGradient>
    <linearGradient
       id="paint5_linear_501_35944"
       x1="44.036098"
       y1="153.41701"
       x2="43.860001"
       y2="151.53799"
       gradientUnits="userSpaceOnUse">
      <stop
         stop-color="#4B42C6"
         id="stop61" />
      <stop
         offset="1"
         stop-color="#4232B2"
         id="stop63" />
    </linearGradient>
    <linearGradient
       id="paint6_linear_501_35944"
       x1="3.3775301"
       y1="142.036"
       x2="3.3517599"
       y2="170.243"
       gradientUnits="userSpaceOnUse">
      <stop
         stop-color="#245795"
         id="stop66" />
      <stop
         offset="1"
         stop-color="#8AD3A8"
         id="stop68" />
    </linearGradient>
  </defs>
</svg>
