<?xml version="1.0" encoding="UTF-8" standalone="no"?>
<svg
   width="244"
   height="134.02699"
   viewBox="0 0 244 134.02699"
   fill="none"
   version="1.1"
   id="svg493"
   sodipodi:docname="2.svg"
   inkscape:version="1.2 (dc2aeda, 2022-05-15)"
   xmlns:inkscape="http://www.inkscape.org/namespaces/inkscape"
   xmlns:sodipodi="http://sodipodi.sourceforge.net/DTD/sodipodi-0.dtd"
   xmlns="http://www.w3.org/2000/svg"
   xmlns:svg="http://www.w3.org/2000/svg">
  <sodipodi:namedview
     id="namedview495"
     pagecolor="#ffffff"
     bordercolor="#000000"
     borderopacity="0.25"
     inkscape:showpageshadow="2"
     inkscape:pageopacity="0.0"
     inkscape:pagecheckerboard="0"
     inkscape:deskcolor="#d1d1d1"
     showgrid="false"
     inkscape:zoom="1.4131737"
     inkscape:cx="114.98941"
     inkscape:cy="83.5"
     inkscape:window-width="1309"
     inkscape:window-height="456"
     inkscape:window-x="0"
     inkscape:window-y="38"
     inkscape:window-maximized="0"
     inkscape:current-layer="svg493" />
  <path
     d="m 225,85.3759 c 0,-2.5692 -0.94,-4.7925 -2.82,-6.67 -1.881,-1.8774 -4.107,-2.8162 -6.68,-2.8162 -2.573,0 -4.799,0.9388 -6.68,2.8162 -1.88,1.8775 -2.82,4.1008 -2.82,6.67 0,2.5692 0.94,4.7925 2.82,6.67 1.881,1.8775 4.107,2.8162 6.68,2.8162 2.573,0 4.799,-0.9387 6.68,-2.8162 1.88,-1.8775 2.82,-4.1008 2.82,-6.67 z M 168,28.4586 c 0,-2.5691 -0.94,-4.7925 -2.82,-6.67 -1.881,-1.8774 -4.107,-2.8162 -6.68,-2.8162 -2.573,0 -4.799,0.9388 -6.68,2.8162 -1.88,1.8775 -2.82,4.1009 -2.82,6.67 0,2.5692 0.94,4.7926 2.82,6.67 1.881,1.8775 4.107,2.8163 6.68,2.8163 2.573,0 4.799,-0.9388 6.68,-2.8163 1.88,-1.8774 2.82,-4.1008 2.82,-6.67 z m 76,56.9173 c 0,7.8558 -2.783,14.5629 -8.35,20.1211 -5.566,5.558 -12.283,8.338 -20.15,8.338 -7.867,0 -14.584,-2.78 -20.15,-8.338 C 189.783,99.9388 187,93.2317 187,85.3759 c 0,-7.8557 2.783,-14.5628 8.35,-20.1211 5.566,-5.5583 12.283,-8.3375 20.15,-8.3375 7.867,0 14.584,2.7792 20.15,8.3375 5.567,5.5583 8.35,12.2654 8.35,20.1211 z M 236.875,4.74311 c 0,0.98814 -0.322,1.92688 -0.965,2.81622 L 157.535,111.908 c -0.94,1.284 -2.202,1.927 -3.785,1.927 h -11.875 c -1.286,0 -2.4,-0.47 -3.34,-1.409 -0.94,-0.938 -1.41,-2.05 -1.41,-3.335 0,-0.988 0.322,-1.926 0.965,-2.816 L 216.465,1.92689 C 217.405,0.642296 218.667,0 220.25,0 h 11.875 c 1.286,0 2.4,0.46937 3.34,1.40811 0.94,0.93874 1.41,2.05041 1.41,3.335 z M 187,28.4586 c 0,7.8558 -2.783,14.5629 -8.35,20.1212 -5.566,5.5583 -12.283,8.3375 -20.15,8.3375 -7.867,0 -14.584,-2.7792 -20.15,-8.3375 C 132.783,43.0215 130,36.3144 130,28.4586 130,20.6029 132.783,13.8958 138.35,8.33749 143.916,2.77916 150.633,0 158.5,0 c 7.867,0 14.584,2.77916 20.15,8.33749 5.567,5.55831 8.35,12.26541 8.35,20.12111 z"
     fill="url(#paint0_linear_501_35934)"
     fill-opacity="0.4"
     id="path9"
     style="fill:url(#paint0_linear_501_35934)" />
  <path
     d="m 42,46.3828 78.735,45.3879 V 109.839 L 42,64.4511 Z"
     fill="#3a9e3d"
     id="path155" />
  <path
     d="m 42,46.3828 78.735,45.3879 V 109.839 L 42,64.4511 Z"
     fill="url(#paint19_linear_501_35934)"
     id="path157"
     style="fill:url(#paint19_linear_501_35934)" />
  <path
     d="M 157.493,70.5732 V 88.6416 L 120.734,109.839 V 91.7702 Z"
     fill="#46be49"
     id="path159" />
  <path
     d="M 157.493,70.5732 V 88.6416 L 120.734,109.839 V 91.7702 Z"
     fill="url(#paint20_linear_501_35934)"
     id="path161"
     style="fill:url(#paint20_linear_501_35934)" />
  <path
     d="M 78.7738,25.1855 157.494,70.5734 120.735,91.7704 42,46.3825 Z"
     fill="#61e041"
     id="path163" />
  <path
     d="M 78.7738,25.1855 157.494,70.5734 120.735,91.7704 42,46.3825 Z"
     fill="#c9eddb"
     id="path165" />
  <path
     d="M 78.7738,25.1855 157.494,70.5734 120.735,91.7704 42,46.3825 Z"
     fill="url(#paint21_linear_501_35934)"
     id="path167"
     style="fill:url(#paint21_linear_501_35934)" />
  <path
     d="M 52.7949,44.0618 74.7573,31.3975 c 3.5679,2.0658 4.8722,2.3801 8.4251,0.3293 l 62.9486,36.2864 c -3.553,2.0508 -2.998,2.7993 0.57,4.8651 l -21.962,12.6643 c -3.568,-2.0658 -4.873,-2.3802 -8.426,-0.3294 L 53.3796,48.9269 c 3.5379,-2.0509 2.9833,-2.7993 -0.5847,-4.8651 z"
     fill="#46be49"
     id="path169" />
  <path
     d="M 52.7949,44.0618 74.7573,31.3975 c 3.5679,2.0658 4.8722,2.3801 8.4251,0.3293 l 62.9486,36.2864 c -3.553,2.0508 -2.998,2.7993 0.57,4.8651 l -21.962,12.6643 c -3.568,-2.0658 -4.873,-2.3802 -8.426,-0.3294 L 53.3796,48.9269 c 3.5379,-2.0509 2.9833,-2.7993 -0.5847,-4.8651 z"
     fill="#c9eddb"
     id="path171" />
  <path
     d="M 52.7949,44.0618 74.7573,31.3975 c 3.5679,2.0658 4.8722,2.3801 8.4251,0.3293 l 62.9486,36.2864 c -3.553,2.0508 -2.998,2.7993 0.57,4.8651 l -21.962,12.6643 c -3.568,-2.0658 -4.873,-2.3802 -8.426,-0.3294 L 53.3796,48.9269 c 3.5379,-2.0509 2.9833,-2.7993 -0.5847,-4.8651 z"
     fill="url(#paint22_linear_501_35934)"
     fill-opacity="0.5"
     id="path173"
     style="fill:url(#paint22_linear_501_35934)" />
  <path
     d="m 101.502,71.341 c 12.633,-1.7214 22.088,-8.8741 21.117,-15.9761 -0.97,-7.1019 -11.998,-11.4638 -24.631,-9.7424 -12.634,1.7213 -22.088,8.874 -21.1175,15.976 0.9706,7.102 11.9985,11.4638 24.6315,9.7425 z"
     fill="#c9eddb"
     id="path175" />
  <path
     d="m 121.064,70.7679 c 2.309,-1.3323 6.086,-1.3323 8.41,0.0149 2.324,1.3473 2.339,3.5179 0.03,4.8502 -2.309,1.3323 -6.086,1.3323 -8.41,-0.015 -2.324,-1.3472 -2.339,-3.5178 -0.03,-4.8501 z"
     fill="#c9eddb"
     id="path177" />
  <path
     d="m 70.2495,42.0765 c 2.3087,-1.3323 6.0865,-1.3323 8.4102,0.0149 2.3236,1.3473 2.3386,3.5179 0.03,4.8502 -2.3087,1.3323 -6.0865,1.3323 -8.4102,-0.015 -2.3237,-1.3473 -2.3387,-3.5178 -0.03,-4.8501 z"
     fill="#c9eddb"
     id="path179" />
  <path
     d="M 73.3164,64.4355 89.672,73.8664 V 91.9347 L 73.3164,82.5039 Z"
     fill="#f0faf6"
     id="path181" />
  <path
     d="m 110.075,43.2393 16.371,9.4308 -36.774,21.197 -16.3556,-9.4309 z"
     fill="#f0faf6"
     id="path183" />
  <path
     d="m 42,25.1914 78.735,45.3879 V 88.6476 L 42,43.2597 Z"
     fill="#3a9e3d"
     id="path185" />
  <path
     d="m 42,25.1914 78.735,45.3879 V 88.6476 L 42,43.2597 Z"
     fill="url(#paint23_linear_501_35934)"
     id="path187"
     style="fill:url(#paint23_linear_501_35934)" />
  <path
     d="M 157.493,49.3818 V 67.4502 L 120.734,88.6471 V 70.5788 Z"
     fill="#46be49"
     id="path189" />
  <path
     d="M 157.493,49.3818 V 67.4502 L 120.734,88.6471 V 70.5788 Z"
     fill="url(#paint24_linear_501_35934)"
     id="path191"
     style="fill:url(#paint24_linear_501_35934)" />
  <path
     d="M 78.7738,3.99414 157.494,49.382 120.735,70.579 42,25.1911 Z"
     fill="#61e041"
     id="path193" />
  <path
     d="M 78.7738,3.99414 157.494,49.382 120.735,70.579 42,25.1911 Z"
     fill="#c9eddb"
     id="path195" />
  <path
     d="M 52.7949,22.8704 74.7573,10.2061 c 3.5679,2.0658 4.8722,2.3801 8.4251,0.3293 l 62.9486,36.2863 c -3.553,2.0509 -2.998,2.7994 0.57,4.8652 l -21.962,12.6643 c -3.568,-2.0658 -4.873,-2.3802 -8.426,-0.3294 L 53.3796,27.7355 c 3.5379,-2.0509 2.9833,-2.7993 -0.5847,-4.8651 z"
     fill="#46be49"
     id="path197" />
  <path
     d="M 52.7949,22.8704 74.7573,10.2061 c 3.5679,2.0658 4.8722,2.3801 8.4251,0.3293 l 62.9486,36.2863 c -3.553,2.0509 -2.998,2.7994 0.57,4.8652 l -21.962,12.6643 c -3.568,-2.0658 -4.873,-2.3802 -8.426,-0.3294 L 53.3796,27.7355 c 3.5379,-2.0509 2.9833,-2.7993 -0.5847,-4.8651 z"
     fill="#c9eddb"
     id="path199" />
  <path
     d="M 52.7949,22.8704 74.7573,10.2061 c 3.5679,2.0658 4.8722,2.3801 8.4251,0.3293 l 62.9486,36.2863 c -3.553,2.0509 -2.998,2.7994 0.57,4.8652 l -21.962,12.6643 c -3.568,-2.0658 -4.873,-2.3802 -8.426,-0.3294 L 53.3796,27.7355 c 3.5379,-2.0509 2.9833,-2.7993 -0.5847,-4.8651 z"
     fill="url(#paint25_linear_501_35934)"
     fill-opacity="0.3"
     id="path201"
     style="fill:url(#paint25_linear_501_35934)" />
  <path
     d="m 101.502,50.1496 c 12.633,-1.7214 22.088,-8.8741 21.117,-15.9761 -0.97,-7.102 -11.998,-11.4638 -24.631,-9.7424 -12.634,1.7213 -22.088,8.874 -21.1175,15.976 0.9706,7.102 11.9985,11.4638 24.6315,9.7425 z"
     fill="#c9eddb"
     id="path203" />
  <path
     d="m 121.064,49.5765 c 2.309,-1.3323 6.086,-1.3323 8.41,0.0149 2.324,1.3473 2.339,3.5179 0.03,4.8502 -2.309,1.3323 -6.086,1.3323 -8.41,-0.015 -2.324,-1.3473 -2.339,-3.5178 -0.03,-4.8501 z"
     fill="#c9eddb"
     id="path205" />
  <path
     d="m 70.2495,20.8851 c 2.3087,-1.3323 6.0865,-1.3323 8.4102,0.0149 2.3236,1.3473 2.3386,3.5179 0.03,4.8502 -2.3087,1.3323 -6.0865,1.3323 -8.4102,-0.015 -2.3237,-1.3473 -2.3387,-3.5178 -0.03,-4.8501 z"
     fill="#c9eddb"
     id="path207" />
  <path
     d="M 73.3164,43.2451 89.672,52.676 V 70.7443 L 73.3164,61.3134 Z"
     fill="#f0faf6"
     id="path209" />
  <path
     d="m 110.075,22.0479 16.371,9.4308 -36.774,21.197 -16.3556,-9.4309 z"
     fill="#f0faf6"
     id="path211" />
  <path
     d="m 0,70.5703 78.7347,45.3877 v 18.069 L 0,88.6386 Z"
     fill="#3a9e3d"
     id="path213" />
  <path
     d="m 0,70.5703 78.7347,45.3877 v 18.069 L 0,88.6386 Z"
     fill="url(#paint26_linear_501_35934)"
     id="path215"
     style="fill:url(#paint26_linear_501_35934)" />
  <path
     d="M 115.493,94.7607 V 112.829 L 78.7344,134.026 V 115.958 Z"
     fill="#46be49"
     id="path217" />
  <path
     d="M 115.493,94.7607 V 112.829 L 78.7344,134.026 V 115.958 Z"
     fill="url(#paint27_linear_501_35934)"
     id="path219"
     style="fill:url(#paint27_linear_501_35934)" />
  <path
     d="M 36.7738,49.373 115.494,94.7609 78.7347,115.958 0,70.57 Z"
     fill="#61e041"
     id="path221" />
  <path
     d="M 36.7738,49.373 115.494,94.7609 78.7347,115.958 0,70.57 Z"
     fill="#c9eddb"
     id="path223" />
  <path
     d="M 36.7738,49.373 115.494,94.7609 78.7347,115.958 0,70.57 Z"
     fill="url(#paint28_linear_501_35934)"
     id="path225"
     style="fill:url(#paint28_linear_501_35934)" />
  <path
     d="M 10.7949,68.2502 32.7573,55.5859 c 3.5679,2.0658 4.8722,2.3802 8.4251,0.3294 l 62.9486,36.2863 c -3.553,2.0509 -2.998,2.7993 0.57,4.8652 L 82.7385,109.731 c -3.5679,-2.066 -4.8722,-2.38 -8.4251,-0.329 L 11.3796,73.1154 c 3.5379,-2.0509 2.9833,-2.7994 -0.5847,-4.8652 z"
     fill="#46be49"
     id="path227" />
  <path
     d="M 10.7949,68.2502 32.7573,55.5859 c 3.5679,2.0658 4.8722,2.3802 8.4251,0.3294 l 62.9486,36.2863 c -3.553,2.0509 -2.998,2.7993 0.57,4.8652 L 82.7385,109.731 c -3.5679,-2.066 -4.8722,-2.38 -8.4251,-0.329 L 11.3796,73.1154 c 3.5379,-2.0509 2.9833,-2.7994 -0.5847,-4.8652 z"
     fill="#c9eddb"
     id="path229" />
  <path
     d="M 10.7949,68.2502 32.7573,55.5859 c 3.5679,2.0658 4.8722,2.3802 8.4251,0.3294 l 62.9486,36.2863 c -3.553,2.0509 -2.998,2.7993 0.57,4.8652 L 82.7385,109.731 c -3.5679,-2.066 -4.8722,-2.38 -8.4251,-0.329 L 11.3796,73.1154 c 3.5379,-2.0509 2.9833,-2.7994 -0.5847,-4.8652 z"
     fill="url(#paint29_linear_501_35934)"
     fill-opacity="0.5"
     id="path231"
     style="fill:url(#paint29_linear_501_35934)" />
  <path
     d="M 59.5002,95.5285 C 72.1333,93.8071 81.5877,86.6544 80.6172,79.5524 79.6467,72.4505 68.6188,68.0886 55.9856,69.81 c -12.6331,1.7213 -22.0875,8.874 -21.117,15.976 0.9705,7.102 11.9984,11.4638 24.6316,9.7425 z"
     fill="#c9eddb"
     id="path233" />
  <path
     d="m 79.064,94.9554 c 2.3086,-1.3323 6.086,-1.3323 8.41,0.0149 2.324,1.3473 2.339,3.5179 0.03,4.8502 -2.309,1.3325 -6.0864,1.3325 -8.41,-0.015 -2.3237,-1.3472 -2.3387,-3.5178 -0.03,-4.8501 z"
     fill="#c9eddb"
     id="path235" />
  <path
     d="m 28.2495,66.264 c 2.3087,-1.3323 6.0865,-1.3323 8.4102,0.0149 2.3236,1.3473 2.3386,3.5179 0.03,4.8502 -2.3087,1.3323 -6.0865,1.3323 -8.4102,-0.015 -2.3237,-1.3473 -2.3387,-3.5178 -0.03,-4.8501 z"
     fill="#c9eddb"
     id="path237" />
  <path
     d="M 31.3164,88.624 47.672,98.0549 V 116.123 L 31.3164,106.692 Z"
     fill="#f0faf6"
     id="path239" />
  <path
     d="M 68.0752,67.4268 84.4458,76.8576 47.672,98.0546 31.3164,88.6237 Z"
     fill="#f0faf6"
     id="path241" />
  <path
     d="M 0,49.3779 78.7347,94.7658 V 112.834 L 0,67.4463 Z"
     fill="#3a9e3d"
     id="path243" />
  <path
     d="M 0,49.3779 78.7347,94.7658 V 112.834 L 0,67.4463 Z"
     fill="url(#paint30_linear_501_35934)"
     id="path245"
     style="fill:url(#paint30_linear_501_35934)" />
  <path
     d="M 115.493,73.5693 V 91.6377 L 78.7344,112.835 V 94.7663 Z"
     fill="#46be49"
     id="path247" />
  <path
     d="M 115.493,73.5693 V 91.6377 L 78.7344,112.835 V 94.7663 Z"
     fill="url(#paint31_linear_501_35934)"
     id="path249"
     style="fill:url(#paint31_linear_501_35934)" />
  <path
     d="M 36.7738,28.1816 115.494,73.5695 78.7347,94.7665 0,49.3786 Z"
     fill="#61e041"
     id="path251" />
  <path
     d="M 36.7738,28.1816 115.494,73.5695 78.7347,94.7665 0,49.3786 Z"
     fill="#c9eddb"
     id="path253" />
  <path
     d="M 36.7738,28.1816 115.494,73.5695 78.7347,94.7665 0,49.3786 Z"
     fill="url(#paint32_linear_501_35934)"
     id="path255"
     style="fill:url(#paint32_linear_501_35934)" />
  <path
     d="M 10.7949,47.0579 32.7573,34.3936 c 3.5679,2.0658 4.8722,2.3801 8.4251,0.3293 l 62.9486,36.2863 c -3.553,2.0509 -2.998,2.7994 0.57,4.8652 L 82.7385,88.5387 C 79.1706,86.4729 77.8663,86.1585 74.3134,88.2093 L 11.3796,51.923 c 3.5379,-2.0509 2.9833,-2.7993 -0.5847,-4.8651 z"
     fill="#46be49"
     id="path257" />
  <path
     d="M 10.7949,47.0579 32.7573,34.3936 c 3.5679,2.0658 4.8722,2.3801 8.4251,0.3293 l 62.9486,36.2863 c -3.553,2.0509 -2.998,2.7994 0.57,4.8652 L 82.7385,88.5387 C 79.1706,86.4729 77.8663,86.1585 74.3134,88.2093 L 11.3796,51.923 c 3.5379,-2.0509 2.9833,-2.7993 -0.5847,-4.8651 z"
     fill="#c9eddb"
     id="path259" />
  <path
     d="M 10.7949,47.0579 32.7573,34.3936 c 3.5679,2.0658 4.8722,2.3801 8.4251,0.3293 l 62.9486,36.2863 c -3.553,2.0509 -2.998,2.7994 0.57,4.8652 L 82.7385,88.5387 C 79.1706,86.4729 77.8663,86.1585 74.3134,88.2093 L 11.3796,51.923 c 3.5379,-2.0509 2.9833,-2.7993 -0.5847,-4.8651 z"
     fill="url(#paint33_linear_501_35934)"
     fill-opacity="0.5"
     id="path261"
     style="fill:url(#paint33_linear_501_35934)" />
  <path
     d="M 59.5002,74.3371 C 72.1333,72.6157 81.5877,65.463 80.6172,58.361 79.6467,51.259 68.6188,46.8972 55.9856,48.6186 c -12.6331,1.7213 -22.0875,8.874 -21.117,15.976 0.9705,7.102 11.9984,11.4638 24.6316,9.7425 z"
     fill="#c9eddb"
     id="path263" />
  <path
     d="m 79.064,73.764 c 2.3086,-1.3323 6.086,-1.3323 8.41,0.0149 2.324,1.3473 2.339,3.5179 0.03,4.8502 -2.309,1.3323 -6.0864,1.3323 -8.41,-0.015 -2.3237,-1.3473 -2.3387,-3.5178 -0.03,-4.8501 z"
     fill="#c9eddb"
     id="path265" />
  <path
     d="m 28.2495,45.0726 c 2.3087,-1.3323 6.0865,-1.3323 8.4102,0.0149 2.3236,1.3473 2.3386,3.5179 0.03,4.8502 -2.3087,1.3323 -6.0865,1.3323 -8.4102,-0.015 -2.3237,-1.3473 -2.3387,-3.5178 -0.03,-4.8501 z"
     fill="#c9eddb"
     id="path267" />
  <path
     d="M 31.3164,67.4316 47.672,76.8625 V 94.9308 L 31.3164,85.5 Z"
     fill="#f0faf6"
     id="path269" />
  <path
     d="M 68.0752,46.2354 84.4458,55.6662 47.672,76.8632 31.3164,67.4323 Z"
     fill="#f0faf6"
     id="path271" />
  <path
     d="M 0,28.1865 78.7347,73.5744 V 91.6427 L 0,46.2549 Z"
     fill="#3a9e3d"
     id="path273" />
  <path
     d="M 0,28.1865 78.7347,73.5744 V 91.6427 L 0,46.2549 Z"
     fill="url(#paint34_linear_501_35934)"
     id="path275"
     style="fill:url(#paint34_linear_501_35934)" />
  <path
     d="M 115.493,52.3779 V 70.4463 L 78.7344,91.6432 V 73.5749 Z"
     fill="#46be49"
     id="path277" />
  <path
     d="M 115.493,52.3779 V 70.4463 L 78.7344,91.6432 V 73.5749 Z"
     fill="url(#paint35_linear_501_35934)"
     id="path279"
     style="fill:url(#paint35_linear_501_35934)" />
  <path
     d="M 36.7738,6.99023 115.494,52.3781 78.7347,73.5751 0,28.1872 Z"
     fill="#c9eddb"
     id="path281" />
  <path
     d="M 10.7949,25.8664 32.7573,13.2021 c 3.5679,2.0659 4.8722,2.3802 8.4251,0.3294 l 62.9486,36.2863 c -3.553,2.0509 -2.998,2.7994 0.57,4.8652 L 82.7385,67.3473 C 79.1706,65.2815 77.8663,64.9671 74.3134,67.0179 L 11.3796,30.7316 c 3.5379,-2.0509 2.9833,-2.7993 -0.5847,-4.8652 z"
     fill="#46be49"
     id="path283" />
  <path
     d="M 10.7949,25.8664 32.7573,13.2021 c 3.5679,2.0659 4.8722,2.3802 8.4251,0.3294 l 62.9486,36.2863 c -3.553,2.0509 -2.998,2.7994 0.57,4.8652 L 82.7385,67.3473 C 79.1706,65.2815 77.8663,64.9671 74.3134,67.0179 L 11.3796,30.7316 c 3.5379,-2.0509 2.9833,-2.7993 -0.5847,-4.8652 z"
     fill="#c9eddb"
     id="path285" />
  <path
     d="M 10.7949,25.8664 32.7573,13.2021 c 3.5679,2.0659 4.8722,2.3802 8.4251,0.3294 l 62.9486,36.2863 c -3.553,2.0509 -2.998,2.7994 0.57,4.8652 L 82.7385,67.3473 C 79.1706,65.2815 77.8663,64.9671 74.3134,67.0179 L 11.3796,30.7316 c 3.5379,-2.0509 2.9833,-2.7993 -0.5847,-4.8652 z"
     fill="url(#paint36_linear_501_35934)"
     fill-opacity="0.3"
     id="path287"
     style="fill:url(#paint36_linear_501_35934)" />
  <path
     d="m 59.5002,53.1457 c 12.6331,-1.7214 22.0875,-8.8741 21.117,-15.9761 -0.9705,-7.102 -11.9984,-11.4638 -24.6316,-9.7424 -12.6331,1.7213 -22.0875,8.874 -21.117,15.976 0.9705,7.102 11.9984,11.4638 24.6316,9.7425 z"
     fill="#c9eddb"
     id="path289" />
  <path
     d="m 79.064,52.5726 c 2.3086,-1.3323 6.086,-1.3323 8.41,0.0149 2.324,1.3473 2.339,3.5179 0.03,4.8502 -2.309,1.3323 -6.0864,1.3323 -8.41,-0.015 -2.3237,-1.3473 -2.3387,-3.5178 -0.03,-4.8501 z"
     fill="#c9eddb"
     id="path291" />
  <path
     d="m 28.2495,23.8811 c 2.3087,-1.3322 6.0865,-1.3322 8.4102,0.015 2.3236,1.3473 2.3386,3.5179 0.03,4.8502 -2.3087,1.3323 -6.0865,1.3323 -8.4102,-0.015 -2.3237,-1.3473 -2.3387,-3.5179 -0.03,-4.8502 z"
     fill="#c9eddb"
     id="path293" />
  <path
     d="M 31.3164,46.2402 47.672,55.6711 V 73.7394 L 31.3164,64.3086 Z"
     fill="#f0faf6"
     id="path295" />
  <path
     d="M 68.0752,25.0439 84.4458,34.4748 47.672,55.6718 31.3164,46.2409 Z"
     fill="#f0faf6"
     id="path297" />
  <defs
     id="defs491">
    <filter
       id="filter0_f_501_35934"
       x="0"
       y="99.649399"
       width="189"
       height="67.350601"
       filterUnits="userSpaceOnUse"
       color-interpolation-filters="sRGB">
      <feFlood
         flood-opacity="0"
         result="BackgroundImageFix"
         id="feFlood299" />
      <feBlend
         mode="normal"
         in="SourceGraphic"
         in2="BackgroundImageFix"
         result="shape"
         id="feBlend301" />
      <feGaussianBlur
         stdDeviation="7.5"
         result="effect1_foregroundBlur_501_35934"
         id="feGaussianBlur303" />
    </filter>
    <linearGradient
       id="paint0_linear_501_35934"
       x1="202"
       y1="0"
       x2="202"
       y2="113.835"
       gradientUnits="userSpaceOnUse"
       gradientTransform="translate(-15)">
      <stop
         stop-color="white"
         id="stop306" />
      <stop
         offset="1"
         stop-color="#CCFFEC"
         id="stop308" />
    </linearGradient>
    <linearGradient
       id="paint1_linear_501_35934"
       x1="125.887"
       y1="117.081"
       x2="100.981"
       y2="174.70399"
       gradientUnits="userSpaceOnUse">
      <stop
         stop-color="#245795"
         id="stop311" />
      <stop
         offset="1"
         stop-color="#8AD3A8"
         id="stop313" />
    </linearGradient>
    <linearGradient
       id="paint2_linear_501_35934"
       x1="131.72301"
       y1="130.149"
       x2="134.748"
       y2="154.293"
       gradientUnits="userSpaceOnUse">
      <stop
         stop-color="#245795"
         id="stop316" />
      <stop
         offset="1"
         stop-color="#8AD3A8"
         id="stop318" />
    </linearGradient>
    <linearGradient
       id="paint3_linear_501_35934"
       x1="74.145302"
       y1="97.642303"
       x2="74.996399"
       y2="153.071"
       gradientUnits="userSpaceOnUse">
      <stop
         stop-color="#245795"
         id="stop321" />
      <stop
         offset="1"
         stop-color="#8AD3A8"
         id="stop323" />
    </linearGradient>
    <linearGradient
       id="paint4_linear_501_35934"
       x1="106.627"
       y1="119.866"
       x2="107.123"
       y2="139.427"
       gradientUnits="userSpaceOnUse">
      <stop
         stop-color="#245795"
         id="stop326" />
      <stop
         offset="1"
         stop-color="#8AD3A8"
         id="stop328" />
    </linearGradient>
    <linearGradient
       id="paint5_linear_501_35934"
       x1="125.887"
       y1="111.002"
       x2="100.981"
       y2="168.62601"
       gradientUnits="userSpaceOnUse">
      <stop
         stop-color="#245795"
         id="stop331" />
      <stop
         offset="1"
         stop-color="#8AD3A8"
         id="stop333" />
    </linearGradient>
    <linearGradient
       id="paint6_linear_501_35934"
       x1="131.72301"
       y1="124.071"
       x2="134.748"
       y2="148.215"
       gradientUnits="userSpaceOnUse">
      <stop
         stop-color="#245795"
         id="stop336" />
      <stop
         offset="1"
         stop-color="#8AD3A8"
         id="stop338" />
    </linearGradient>
    <linearGradient
       id="paint7_linear_501_35934"
       x1="82.016899"
       y1="97.659302"
       x2="82.709198"
       y2="142.733"
       gradientUnits="userSpaceOnUse">
      <stop
         stop-color="#245795"
         id="stop341" />
      <stop
         offset="1"
         stop-color="#8AD3A8"
         id="stop343" />
    </linearGradient>
    <linearGradient
       id="paint8_linear_501_35934"
       x1="82.381203"
       y1="124.072"
       x2="57.475399"
       y2="181.69501"
       gradientUnits="userSpaceOnUse">
      <stop
         stop-color="#245795"
         id="stop346" />
      <stop
         offset="1"
         stop-color="#8AD3A8"
         id="stop348" />
    </linearGradient>
    <linearGradient
       id="paint9_linear_501_35934"
       x1="88.216797"
       y1="137.14"
       x2="91.242401"
       y2="161.284"
       gradientUnits="userSpaceOnUse">
      <stop
         stop-color="#245795"
         id="stop351" />
      <stop
         offset="1"
         stop-color="#8AD3A8"
         id="stop353" />
    </linearGradient>
    <linearGradient
       id="paint10_linear_501_35934"
       x1="30.6394"
       y1="104.633"
       x2="31.490601"
       y2="160.062"
       gradientUnits="userSpaceOnUse">
      <stop
         stop-color="#245795"
         id="stop356" />
      <stop
         offset="1"
         stop-color="#8AD3A8"
         id="stop358" />
    </linearGradient>
    <linearGradient
       id="paint11_linear_501_35934"
       x1="63.119499"
       y1="126.858"
       x2="63.615601"
       y2="146.41901"
       gradientUnits="userSpaceOnUse">
      <stop
         stop-color="#245795"
         id="stop361" />
      <stop
         offset="1"
         stop-color="#8AD3A8"
         id="stop363" />
    </linearGradient>
    <linearGradient
       id="paint12_linear_501_35934"
       x1="82.381203"
       y1="117.993"
       x2="57.475399"
       y2="175.616"
       gradientUnits="userSpaceOnUse">
      <stop
         stop-color="#245795"
         id="stop366" />
      <stop
         offset="1"
         stop-color="#8AD3A8"
         id="stop368" />
    </linearGradient>
    <linearGradient
       id="paint13_linear_501_35934"
       x1="88.216797"
       y1="131.061"
       x2="91.242401"
       y2="155.205"
       gradientUnits="userSpaceOnUse">
      <stop
         stop-color="#245795"
         id="stop371" />
      <stop
         offset="1"
         stop-color="#8AD3A8"
         id="stop373" />
    </linearGradient>
    <linearGradient
       id="paint14_linear_501_35934"
       x1="30.6394"
       y1="98.554398"
       x2="31.490601"
       y2="153.983"
       gradientUnits="userSpaceOnUse">
      <stop
         stop-color="#245795"
         id="stop376" />
      <stop
         offset="1"
         stop-color="#8AD3A8"
         id="stop378" />
    </linearGradient>
    <linearGradient
       id="paint15_linear_501_35934"
       x1="63.119499"
       y1="120.778"
       x2="63.615601"
       y2="140.339"
       gradientUnits="userSpaceOnUse">
      <stop
         stop-color="#245795"
         id="stop381" />
      <stop
         offset="1"
         stop-color="#8AD3A8"
         id="stop383" />
    </linearGradient>
    <linearGradient
       id="paint16_linear_501_35934"
       x1="82.381203"
       y1="111.915"
       x2="57.475399"
       y2="169.53799"
       gradientUnits="userSpaceOnUse">
      <stop
         stop-color="#245795"
         id="stop386" />
      <stop
         offset="1"
         stop-color="#8AD3A8"
         id="stop388" />
    </linearGradient>
    <linearGradient
       id="paint17_linear_501_35934"
       x1="88.216797"
       y1="124.983"
       x2="91.242401"
       y2="149.127"
       gradientUnits="userSpaceOnUse">
      <stop
         stop-color="#245795"
         id="stop391" />
      <stop
         offset="1"
         stop-color="#8AD3A8"
         id="stop393" />
    </linearGradient>
    <linearGradient
       id="paint18_linear_501_35934"
       x1="38.509102"
       y1="98.570396"
       x2="39.201401"
       y2="143.644"
       gradientUnits="userSpaceOnUse">
      <stop
         stop-color="#245795"
         id="stop396" />
      <stop
         offset="1"
         stop-color="#8AD3A8"
         id="stop398" />
    </linearGradient>
    <linearGradient
       id="paint19_linear_501_35934"
       x1="124.381"
       y1="12.4709"
       x2="14.5338"
       y2="85.369003"
       gradientUnits="userSpaceOnUse"
       gradientTransform="translate(-15)">
      <stop
         stop-color="#245795"
         id="stop401" />
      <stop
         offset="1"
         stop-color="#8AD3A8"
         id="stop403" />
    </linearGradient>
    <linearGradient
       id="paint20_linear_501_35934"
       x1="130.217"
       y1="58.032398"
       x2="161.582"
       y2="129.826"
       gradientUnits="userSpaceOnUse"
       gradientTransform="translate(-15)">
      <stop
         stop-color="#245795"
         id="stop406" />
      <stop
         offset="1"
         stop-color="#8AD3A8"
         id="stop408" />
    </linearGradient>
    <linearGradient
       id="paint21_linear_501_35934"
       x1="72.639397"
       y1="-55.297298"
       x2="82.957802"
       y2="137.439"
       gradientUnits="userSpaceOnUse"
       gradientTransform="translate(-15)">
      <stop
         stop-color="#245795"
         id="stop411" />
      <stop
         offset="1"
         stop-color="#8AD3A8"
         id="stop413" />
    </linearGradient>
    <linearGradient
       id="paint22_linear_501_35934"
       x1="105.121"
       y1="22.182501"
       x2="111.108"
       y2="89.894203"
       gradientUnits="userSpaceOnUse"
       gradientTransform="translate(-15)">
      <stop
         stop-color="#245795"
         id="stop416" />
      <stop
         offset="1"
         stop-color="#8AD3A8"
         id="stop418" />
    </linearGradient>
    <linearGradient
       id="paint23_linear_501_35934"
       x1="124.381"
       y1="-8.7204599"
       x2="14.5338"
       y2="64.177597"
       gradientUnits="userSpaceOnUse"
       gradientTransform="translate(-15)">
      <stop
         stop-color="#245795"
         id="stop421" />
      <stop
         offset="1"
         stop-color="#8AD3A8"
         id="stop423" />
    </linearGradient>
    <linearGradient
       id="paint24_linear_501_35934"
       x1="130.217"
       y1="36.841"
       x2="161.582"
       y2="108.634"
       gradientUnits="userSpaceOnUse"
       gradientTransform="translate(-15)">
      <stop
         stop-color="#245795"
         id="stop426" />
      <stop
         offset="1"
         stop-color="#8AD3A8"
         id="stop428" />
    </linearGradient>
    <linearGradient
       id="paint25_linear_501_35934"
       x1="80.511101"
       y1="-55.240601"
       x2="88.902603"
       y2="101.488"
       gradientUnits="userSpaceOnUse"
       gradientTransform="translate(-15)">
      <stop
         stop-color="#245795"
         id="stop431" />
      <stop
         offset="1"
         stop-color="#8AD3A8"
         id="stop433" />
    </linearGradient>
    <linearGradient
       id="paint26_linear_501_35934"
       x1="82.381203"
       y1="36.658401"
       x2="-27.4662"
       y2="109.556"
       gradientUnits="userSpaceOnUse"
       gradientTransform="translate(-15)">
      <stop
         stop-color="#245795"
         id="stop436" />
      <stop
         offset="1"
         stop-color="#8AD3A8"
         id="stop438" />
    </linearGradient>
    <linearGradient
       id="paint27_linear_501_35934"
       x1="88.216797"
       y1="82.219902"
       x2="119.582"
       y2="154.013"
       gradientUnits="userSpaceOnUse"
       gradientTransform="translate(-15)">
      <stop
         stop-color="#245795"
         id="stop441" />
      <stop
         offset="1"
         stop-color="#8AD3A8"
         id="stop443" />
    </linearGradient>
    <linearGradient
       id="paint28_linear_501_35934"
       x1="30.6394"
       y1="-31.1098"
       x2="40.957802"
       y2="161.627"
       gradientUnits="userSpaceOnUse"
       gradientTransform="translate(-15)">
      <stop
         stop-color="#245795"
         id="stop446" />
      <stop
         offset="1"
         stop-color="#8AD3A8"
         id="stop448" />
    </linearGradient>
    <linearGradient
       id="paint29_linear_501_35934"
       x1="63.121399"
       y1="46.370998"
       x2="69.1082"
       y2="114.083"
       gradientUnits="userSpaceOnUse"
       gradientTransform="translate(-15)">
      <stop
         stop-color="#245795"
         id="stop451" />
      <stop
         offset="1"
         stop-color="#8AD3A8"
         id="stop453" />
    </linearGradient>
    <linearGradient
       id="paint30_linear_501_35934"
       x1="82.381203"
       y1="15.4661"
       x2="-27.4662"
       y2="88.364098"
       gradientUnits="userSpaceOnUse"
       gradientTransform="translate(-15)">
      <stop
         stop-color="#245795"
         id="stop456" />
      <stop
         offset="1"
         stop-color="#8AD3A8"
         id="stop458" />
    </linearGradient>
    <linearGradient
       id="paint31_linear_501_35934"
       x1="88.216797"
       y1="61.0285"
       x2="119.582"
       y2="132.82201"
       gradientUnits="userSpaceOnUse"
       gradientTransform="translate(-15)">
      <stop
         stop-color="#245795"
         id="stop461" />
      <stop
         offset="1"
         stop-color="#8AD3A8"
         id="stop463" />
    </linearGradient>
    <linearGradient
       id="paint32_linear_501_35934"
       x1="30.6394"
       y1="-52.3013"
       x2="40.957802"
       y2="140.435"
       gradientUnits="userSpaceOnUse"
       gradientTransform="translate(-15)">
      <stop
         stop-color="#245795"
         id="stop466" />
      <stop
         offset="1"
         stop-color="#8AD3A8"
         id="stop468" />
    </linearGradient>
    <linearGradient
       id="paint33_linear_501_35934"
       x1="63.121399"
       y1="25.1786"
       x2="69.1082"
       y2="92.890297"
       gradientUnits="userSpaceOnUse"
       gradientTransform="translate(-15)">
      <stop
         stop-color="#245795"
         id="stop471" />
      <stop
         offset="1"
         stop-color="#8AD3A8"
         id="stop473" />
    </linearGradient>
    <linearGradient
       id="paint34_linear_501_35934"
       x1="82.381203"
       y1="-5.7253399"
       x2="-27.4662"
       y2="67.172699"
       gradientUnits="userSpaceOnUse"
       gradientTransform="translate(-15)">
      <stop
         stop-color="#245795"
         id="stop476" />
      <stop
         offset="1"
         stop-color="#8AD3A8"
         id="stop478" />
    </linearGradient>
    <linearGradient
       id="paint35_linear_501_35934"
       x1="88.216797"
       y1="39.837002"
       x2="119.582"
       y2="111.63"
       gradientUnits="userSpaceOnUse"
       gradientTransform="translate(-15)">
      <stop
         stop-color="#245795"
         id="stop481" />
      <stop
         offset="1"
         stop-color="#8AD3A8"
         id="stop483" />
    </linearGradient>
    <linearGradient
       id="paint36_linear_501_35934"
       x1="38.511101"
       y1="-52.244499"
       x2="46.902599"
       y2="104.484"
       gradientUnits="userSpaceOnUse"
       gradientTransform="translate(-15)">
      <stop
         stop-color="#245795"
         id="stop486" />
      <stop
         offset="1"
         stop-color="#8AD3A8"
         id="stop488" />
    </linearGradient>
  </defs>
</svg>
