<?xml version="1.0" encoding="UTF-8" standalone="no"?>
<svg
   width="196"
   height="163.98785"
   viewBox="0 0 196 163.98785"
   fill="none"
   version="1.1"
   id="svg381"
   sodipodi:docname="3.svg"
   inkscape:version="1.2 (dc2aeda, 2022-05-15)"
   xmlns:inkscape="http://www.inkscape.org/namespaces/inkscape"
   xmlns:sodipodi="http://sodipodi.sourceforge.net/DTD/sodipodi-0.dtd"
   xmlns="http://www.w3.org/2000/svg"
   xmlns:svg="http://www.w3.org/2000/svg">
  <sodipodi:namedview
     id="namedview383"
     pagecolor="#ffffff"
     bordercolor="#000000"
     borderopacity="0.25"
     inkscape:showpageshadow="2"
     inkscape:pageopacity="0.0"
     inkscape:pagecheckerboard="0"
     inkscape:deskcolor="#d1d1d1"
     showgrid="false"
     inkscape:zoom="1.1456311"
     inkscape:cx="93.834746"
     inkscape:cy="103"
     inkscape:window-width="1309"
     inkscape:window-height="456"
     inkscape:window-x="0"
     inkscape:window-y="38"
     inkscape:window-maximized="0"
     inkscape:current-layer="svg381" />
  <path
     fill-rule="evenodd"
     clip-rule="evenodd"
     d="m 169.84,45.62 h -56.68 c -3.612,0 -6.54,2.9281 -6.54,6.54 v 76.3 c 0,3.612 2.928,6.54 6.54,6.54 h 56.68 c 3.612,0 6.54,-2.928 6.54,-6.54 v -76.3 c 0,-3.6119 -2.928,-6.54 -6.54,-6.54 z M 113.16,26 C 98.712,26 87,37.7122 87,52.16 v 76.3 c 0,14.448 11.712,26.16 26.16,26.16 h 56.68 c 14.448,0 26.16,-11.712 26.16,-26.16 V 52.16 C 196,37.7122 184.288,26 169.84,26 Z"
     fill="url(#paint0_linear_501_35939)"
     fill-opacity="0.4"
     id="path9"
     style="fill:url(#paint0_linear_501_35939)" />
  <path
     fill-rule="evenodd"
     clip-rule="evenodd"
     d="m 169.066,117 -22,-36 L 136.167,98.8349 129.066,87 l -18,30 h 14 22 z"
     fill="url(#paint1_linear_501_35939)"
     fill-opacity="0.4"
     id="path11"
     style="fill:url(#paint1_linear_501_35939)" />
  <circle
     cx="127"
     cy="75"
     r="6"
     fill="url(#paint2_linear_501_35939)"
     fill-opacity="0.4"
     id="circle13"
     style="fill:url(#paint2_linear_501_35939)" />
  <path
     fill-rule="evenodd"
     clip-rule="evenodd"
     d="m 97.801,156.677 c -0.007,2.595 -0.932,4.422 -2.411,5.28 l -7.8905,1.701 C 79.4484,160.222 83.9801,119.13 83.4905,107.53 L 85.963,46.6537 C 83.8846,43.0215 75.8879,39.8511 77.7535,32.4343 L 54.1562,21.3877 C 53.1091,20.6755 25.5715,4.7271098 30.5154,1.7369398 c 0.827,-0.50058 3.9841,-1.07878702 6.4615,-1.47886602 2.5226,-0.407224 4.1507,-0.412311 5.8591,0.57313 L 89.79,27.7646 c 4.609,2.6552 8.224,9.0805 8.21,14.2193 z"
     fill="#c9eddb"
     id="path159" />
  <path
     fill-rule="evenodd"
     clip-rule="evenodd"
     d="m 97.801,156.677 c -0.007,2.595 -0.932,4.422 -2.411,5.28 l -7.8905,1.701 C 79.4484,160.222 83.9801,119.13 83.4905,107.53 L 85.963,46.6537 C 83.8846,43.0215 75.8879,39.8511 77.7535,32.4343 L 54.1562,21.3877 C 53.1091,20.6755 25.5715,4.7271098 30.5154,1.7369398 c 0.827,-0.50058 3.9841,-1.07878702 6.4615,-1.47886602 2.5226,-0.407224 4.1507,-0.412311 5.8591,0.57313 L 89.79,27.7646 c 4.609,2.6552 8.224,9.0805 8.21,14.2193 z"
     fill="url(#paint21_linear_501_35939)"
     fill-opacity="0.15"
     id="path161"
     style="fill:url(#paint21_linear_501_35939)" />
  <path
     fill-rule="evenodd"
     clip-rule="evenodd"
     d="m 97.801,156.677 c -0.007,2.595 -0.932,4.422 -2.411,5.28 l -7.8905,1.701 C 79.4484,160.222 83.9801,119.13 83.4905,107.53 L 85.963,46.6537 C 83.8846,43.0215 75.8879,39.8511 77.7535,32.4343 L 54.1562,21.3877 C 53.1091,20.6755 25.5715,4.7271098 30.5154,1.7369398 c 0.827,-0.50058 3.9841,-1.07878702 6.4615,-1.47886602 2.5226,-0.407224 4.1507,-0.412311 5.8591,0.57313 L 89.79,27.7646 c 4.609,2.6552 8.224,9.0805 8.21,14.2193 z"
     fill="url(#paint22_linear_501_35939)"
     id="path163"
     style="fill:url(#paint22_linear_501_35939)" />
  <path
     fill-rule="evenodd"
     clip-rule="evenodd"
     d="m 28.1139,7.0152398 c 0.0072,-2.54401 0.8874,-4.35045 2.3153,-5.2307 1.5029,-0.92740202 3.6127,-0.82704402 5.9474,0.52114 L 83.3306,29.2378 c 4.5436,2.625 8.2244,8.9972 8.2084,14.2194 L 91.343,158.15 c -0.014,5.223 -3.7178,7.334 -8.2627,4.71 L 36.1276,135.928 c -4.5498,-2.628 -8.2241,-8.997 -8.2096,-14.22 z"
     fill="#ffffff"
     id="path165" />
  <path
     fill-rule="evenodd"
     clip-rule="evenodd"
     d="m 28.1139,7.0152398 c 0.0072,-2.54401 0.8874,-4.35045 2.3153,-5.2307 1.5029,-0.92740202 3.6127,-0.82704402 5.9474,0.52114 L 83.3306,29.2378 c 4.5437,2.625 8.2244,8.9972 8.2084,14.2194 L 91.343,158.15 c -0.014,5.223 -3.7178,7.334 -8.2627,4.71 L 36.1276,135.928 c -4.5498,-2.628 -8.2241,-8.997 -8.2096,-14.22 z"
     fill="url(#paint23_linear_501_35939)"
     id="path167"
     style="fill:url(#paint23_linear_501_35939)" />
  <path
     fill-rule="evenodd"
     clip-rule="evenodd"
     d="m 28.1139,7.0152398 c 0.0072,-2.54401 0.8874,-4.35045 2.3153,-5.2307 1.5029,-0.92740202 3.6127,-0.82704402 5.9474,0.52114 L 83.3306,29.2378 c 4.5437,2.625 8.2244,8.9972 8.2084,14.2194 L 91.343,158.15 c -0.014,5.223 -3.7178,7.334 -8.2627,4.71 L 36.1276,135.928 c -4.5498,-2.628 -8.2241,-8.997 -8.2096,-14.22 z"
     fill="#c9eddb"
     id="path169" />
  <path
     fill-rule="evenodd"
     clip-rule="evenodd"
     d="m 28.1139,7.0152398 c 0.0072,-2.54401 0.8874,-4.35045 2.3153,-5.2307 1.5029,-0.92740202 3.6127,-0.82704402 5.9474,0.52114 L 83.3306,29.2378 c 4.5437,2.625 8.2244,8.9972 8.2084,14.2194 L 91.343,158.15 c -0.014,5.223 -3.7178,7.334 -8.2627,4.71 L 36.1276,135.928 c -4.5498,-2.628 -8.2241,-8.997 -8.2096,-14.22 z"
     fill="url(#paint24_linear_501_35939)"
     fill-opacity="0.7"
     id="path171"
     style="fill:url(#paint24_linear_501_35939)" />
  <path
     fill-rule="evenodd"
     clip-rule="evenodd"
     d="m 32.959,14.169 c 0.0123,-4.4351602 3.1532,-6.2299602 7.0159,-3.999 l 39.8693,22.8683 c 3.8582,2.2287 6.9824,7.6398 6.9702,12.075 l 0.1317,104.7717 c -0.0123,4.434 -3.1578,6.226 -7.016,3.998 L 40.062,131.015 c -3.8638,-2.231 -6.9836,-7.64 -6.9702,-12.074 z"
     fill="#f0faf6"
     id="path173" />
  <path
     fill-rule="evenodd"
     clip-rule="evenodd"
     d="m 60,105.293 c 0.0036,-1.463 1.0398,-2.054 2.3141,-1.319 l 13.1486,7.543 c 1.2719,0.735 2.3033,2.52 2.2984,3.981 l 0.0665,14.473 c -0.0036,1.463 -1.041,2.053 -2.3141,1.319 l -13.1486,-7.542 c -1.2743,-0.736 -2.3032,-2.519 -2.2984,-3.981 z"
     fill="url(#paint25_linear_501_35939)"
     id="path175"
     style="fill:url(#paint25_linear_501_35939)" />
  <path
     fill-rule="evenodd"
     clip-rule="evenodd"
     d="m 60,105.293 c 0.0036,-1.463 1.0398,-2.054 2.3141,-1.319 l 13.1486,7.543 c 1.2719,0.735 2.3033,2.52 2.2984,3.981 l 0.0665,14.473 c -0.0036,1.463 -1.041,2.053 -2.3141,1.319 l -13.1486,-7.542 c -1.2743,-0.736 -2.3032,-2.519 -2.2984,-3.981 z"
     fill="url(#paint26_linear_501_35939)"
     id="path177"
     style="fill:url(#paint26_linear_501_35939)" />
  <path
     fill-rule="evenodd"
     clip-rule="evenodd"
     d="m 69.224,119.727 c -2.2344,-1.291 -4.1822,-4.337 -4.3527,-6.806 -0.1704,-2.467 1.5005,-3.422 3.7348,-2.131 2.232,1.292 4.1822,4.34 4.3527,6.807 0.1692,2.469 -1.5029,3.421 -3.7348,2.13 z"
     fill="#a8c7cf"
     id="path179" />
  <path
     opacity="0.8"
     fill-rule="evenodd"
     clip-rule="evenodd"
     d="m 64.9746,120.036 c 0.0012,-0.344 0.2455,-0.481 0.5453,-0.302 l 6.7913,3.838 c 0.2999,0.179 0.5429,0.603 0.5417,0.948 v 0.683 c -0.0012,0.345 -0.2455,0.48 -0.5453,0.302 l -6.7913,-3.838 c -0.3011,-0.179 -0.5429,-0.603 -0.5417,-0.948 z"
     fill="#ffffff"
     id="path181" />
  <path
     fill-rule="evenodd"
     clip-rule="evenodd"
     d="M 0,10.6867 C 0.00484,8.9370998 1.2441,8.2285498 2.7688,9.1087998 18.9182,18.3719 35.0338,27.9603 51.1857,37.2247 c 1.5222,0.879 2.7554,3.0143 2.7494,4.764 l 0.0786,63.9343 c -0.0048,1.749 -1.2466,2.457 -2.7688,1.576 C 35.0955,98.2362 18.9775,88.6466 2.8292,79.3846 1.3046,78.5044 0.07375,76.3703 0.07859,74.6207 Z"
     fill="#ffffff"
     id="path183" />
  <path
     fill-rule="evenodd"
     clip-rule="evenodd"
     d="M 0,10.6867 C 0.00484,8.9370998 1.2441,8.2285498 2.7688,9.1087998 18.9182,18.3719 35.0338,27.9603 51.1857,37.2247 c 1.5222,0.879 2.7554,3.0144 2.7494,4.764 L 53.9919,88.1871 0.05803,57.2503 Z"
     fill="url(#paint27_linear_501_35939)"
     id="path185"
     style="fill:url(#paint27_linear_501_35939)" />
  <g
     opacity="0.2"
     id="g193"
     transform="translate(-9)">
    <path
       fill-rule="evenodd"
       clip-rule="evenodd"
       d="m 12.1582,63.5415 c 0.0036,-1.0918 0.7762,-1.5331 1.7265,-0.9842 l 9.814,5.6297 c 0.9503,0.549 1.7193,1.8802 1.7157,2.9721 l 0.0495,10.8023 c -0.0036,1.0919 -0.7774,1.5332 -1.7277,0.9843 l -9.814,-5.6297 c -0.9515,-0.549 -1.7193,-1.8814 -1.7156,-2.9721 z"
       fill="#955cf1"
       id="path187" />
    <path
       fill-rule="evenodd"
       clip-rule="evenodd"
       d="m 12.1582,63.5415 c 0.0036,-1.0918 0.7762,-1.5331 1.7265,-0.9842 l 9.814,5.6297 c 0.9503,0.549 1.7193,1.8802 1.7157,2.9721 l 0.0495,10.8023 c -0.0036,1.0919 -0.7774,1.5332 -1.7277,0.9843 l -9.814,-5.6297 c -0.9515,-0.549 -1.7193,-1.8814 -1.7156,-2.9721 z"
       fill="#c9eddb"
       id="path189" />
    <path
       fill-rule="evenodd"
       clip-rule="evenodd"
       d="m 12.1582,63.5415 c 0.0036,-1.0918 0.7762,-1.5331 1.7265,-0.9842 l 9.814,5.6297 c 0.9503,0.549 1.7193,1.8802 1.7157,2.9721 l 0.0495,10.8023 c -0.0036,1.0919 -0.7774,1.5332 -1.7277,0.9843 l -9.814,-5.6297 c -0.9515,-0.549 -1.7193,-1.8814 -1.7156,-2.9721 z"
       fill="url(#paint28_linear_501_35939)"
       id="path191"
       style="fill:url(#paint28_linear_501_35939)" />
  </g>
  <g
     opacity="0.2"
     id="g201"
     transform="translate(-9)">
    <path
       fill-rule="evenodd"
       clip-rule="evenodd"
       d="m 29.3418,73.9302 c 0.0024,-1.0918 0.7762,-1.5332 1.7265,-0.9842 l 9.814,5.6297 c 0.9503,0.5489 1.7193,1.8802 1.7157,2.972 l 0.0495,10.8024 c -0.0036,1.0918 -0.7774,1.5332 -1.7277,0.9842 l -9.814,-5.6297 c -0.9515,-0.5489 -1.7193,-1.8802 -1.7156,-2.972 z"
       fill="#955cf1"
       id="path195" />
    <path
       fill-rule="evenodd"
       clip-rule="evenodd"
       d="m 29.3418,73.9302 c 0.0024,-1.0918 0.7762,-1.5332 1.7265,-0.9842 l 9.814,5.6297 c 0.9503,0.5489 1.7193,1.8802 1.7157,2.972 l 0.0495,10.8024 c -0.0036,1.0918 -0.7774,1.5332 -1.7277,0.9842 l -9.814,-5.6297 c -0.9515,-0.5489 -1.7193,-1.8802 -1.7156,-2.972 z"
       fill="#c9eddb"
       id="path197" />
    <path
       fill-rule="evenodd"
       clip-rule="evenodd"
       d="m 29.3418,73.9302 c 0.0024,-1.0918 0.7762,-1.5332 1.7265,-0.9842 l 9.814,5.6297 c 0.9503,0.5489 1.7193,1.8802 1.7157,2.972 l 0.0495,10.8024 c -0.0036,1.0918 -0.7774,1.5332 -1.7277,0.9842 l -9.814,-5.6297 c -0.9515,-0.5489 -1.7193,-1.8802 -1.7156,-2.972 z"
       fill="url(#paint29_linear_501_35939)"
       id="path199"
       style="fill:url(#paint29_linear_501_35939)" />
  </g>
  <g
     opacity="0.2"
     id="g209"
     transform="translate(-9)">
    <path
       fill-rule="evenodd"
       clip-rule="evenodd"
       d="m 46.5273,84.3189 c 0.0025,-1.0918 0.7763,-1.5332 1.7266,-0.9842 l 9.8152,5.6297 c 0.9503,0.5489 1.7192,1.8802 1.7156,2.972 l 0.0496,10.8026 c -0.0036,1.092 -0.7774,1.533 -1.7278,0.984 l -9.8139,-5.6297 c -0.9516,-0.5489 -1.7193,-1.8814 -1.7157,-2.972 z"
       fill="#955cf1"
       id="path203" />
    <path
       fill-rule="evenodd"
       clip-rule="evenodd"
       d="m 46.5273,84.3189 c 0.0025,-1.0918 0.7763,-1.5332 1.7266,-0.9842 l 9.8152,5.6297 c 0.9503,0.5489 1.7192,1.8802 1.7156,2.972 l 0.0496,10.8026 c -0.0036,1.092 -0.7774,1.533 -1.7278,0.984 l -9.8139,-5.6297 c -0.9516,-0.5489 -1.7193,-1.8814 -1.7157,-2.972 z"
       fill="#c9eddb"
       id="path205" />
    <path
       fill-rule="evenodd"
       clip-rule="evenodd"
       d="m 46.5273,84.3189 c 0.0025,-1.0918 0.7763,-1.5332 1.7266,-0.9842 l 9.8152,5.6297 c 0.9503,0.5489 1.7192,1.8802 1.7156,2.972 l 0.0496,10.8026 c -0.0036,1.092 -0.7774,1.533 -1.7278,0.984 l -9.8139,-5.6297 c -0.9516,-0.5489 -1.7193,-1.8814 -1.7157,-2.972 z"
       fill="url(#paint30_linear_501_35939)"
       id="path207"
       style="fill:url(#paint30_linear_501_35939)" />
  </g>
  <path
     opacity="0.5"
     fill-rule="evenodd"
     clip-rule="evenodd"
     d="m 27.6759,49.6258 c -4.9117,-2.8403 -9.1965,-9.5385 -9.5713,-14.9653 -0.3764,-5.4251 3.299,-7.5247 8.2108,-4.6843 4.9082,2.8386 9.1965,9.5402 9.5712,14.9653 0.3765,5.4268 -3.3007,7.5212 -8.2107,4.6843 z"
     fill="#ffffff"
     id="path211" />
  <path
     opacity="0.8"
     fill-rule="evenodd"
     clip-rule="evenodd"
     d="m 20.7461,52.7424 c 0.0012,-0.5478 0.3893,-0.7618 0.8657,-0.4789 l 10.7727,6.0868 c 0.4764,0.2829 0.8621,0.9576 0.8609,1.5042 v 1.0833 c -0.0012,0.5478 -0.3893,0.7618 -0.8657,0.4789 l -10.7728,-6.088 c -0.4775,-0.2829 -0.862,-0.9576 -0.8608,-1.5042 z"
     fill="#ffffff"
     id="path213" />
  <path
     opacity="0.8"
     fill-rule="evenodd"
     clip-rule="evenodd"
     d="m 15.1231,54.8199 c 0.0012,-0.4824 0.3433,-0.671 0.7629,-0.4219 6.1082,3.4508 16.1168,9.0854 22.225,12.5362 0.4195,0.2491 0.7593,0.844 0.7581,1.3252 v 0.954 c -0.0013,0.4825 -0.3434,0.6711 -0.763,0.422 C 31.9979,66.1846 21.9893,60.55 15.8811,57.0992 15.4604,56.8501 15.1218,56.2564 15.1231,55.774 Z"
     fill="#ffffff"
     id="path215" />
  <defs
     id="defs379">
    <filter
       id="filter0_f_501_35939"
       x="0"
       y="138"
       width="134"
       height="67.405296"
       filterUnits="userSpaceOnUse"
       color-interpolation-filters="sRGB">
      <feFlood
         flood-opacity="0"
         result="BackgroundImageFix"
         id="feFlood217" />
      <feBlend
         mode="normal"
         in="SourceGraphic"
         in2="BackgroundImageFix"
         result="shape"
         id="feBlend219" />
      <feGaussianBlur
         stdDeviation="7.5"
         result="effect1_foregroundBlur_501_35939"
         id="feGaussianBlur221" />
    </filter>
    <linearGradient
       id="paint0_linear_501_35939"
       x1="150.5"
       y1="26"
       x2="150.5"
       y2="154.62"
       gradientUnits="userSpaceOnUse"
       gradientTransform="translate(-9)">
      <stop
         stop-color="white"
         id="stop224" />
      <stop
         offset="1"
         stop-color="#CCFFEC"
         id="stop226" />
    </linearGradient>
    <linearGradient
       id="paint1_linear_501_35939"
       x1="149.06599"
       y1="81"
       x2="149.06599"
       y2="117"
       gradientUnits="userSpaceOnUse"
       gradientTransform="translate(-9)">
      <stop
         stop-color="white"
         id="stop229" />
      <stop
         offset="1"
         stop-color="#CCFFEC"
         id="stop231" />
    </linearGradient>
    <linearGradient
       id="paint2_linear_501_35939"
       x1="136"
       y1="69"
       x2="136"
       y2="81"
       gradientUnits="userSpaceOnUse"
       gradientTransform="translate(-9)">
      <stop
         stop-color="white"
         id="stop234" />
      <stop
         offset="1"
         stop-color="#CCFFEC"
         id="stop236" />
    </linearGradient>
    <linearGradient
       id="paint3_linear_501_35939"
       x1="87.530403"
       y1="155.435"
       x2="56.011299"
       y2="203.064"
       gradientUnits="userSpaceOnUse">
      <stop
         stop-color="#245795"
         id="stop239" />
      <stop
         offset="1"
         stop-color="#8AD3A8"
         id="stop241" />
    </linearGradient>
    <linearGradient
       id="paint4_linear_501_35939"
       x1="91.348099"
       y1="168.52299"
       x2="95.892601"
       y2="192.209"
       gradientUnits="userSpaceOnUse">
      <stop
         stop-color="#245795"
         id="stop244" />
      <stop
         offset="1"
         stop-color="#8AD3A8"
         id="stop246" />
    </linearGradient>
    <linearGradient
       id="paint5_linear_501_35939"
       x1="53.6866"
       y1="135.968"
       x2="54.991299"
       y2="191.46001"
       gradientUnits="userSpaceOnUse">
      <stop
         stop-color="#245795"
         id="stop249" />
      <stop
         offset="1"
         stop-color="#8AD3A8"
         id="stop251" />
    </linearGradient>
    <linearGradient
       id="paint6_linear_501_35939"
       x1="74.932503"
       y1="158.224"
       x2="75.692497"
       y2="177.797"
       gradientUnits="userSpaceOnUse">
      <stop
         stop-color="#245795"
         id="stop254" />
      <stop
         offset="1"
         stop-color="#8AD3A8"
         id="stop256" />
    </linearGradient>
    <linearGradient
       id="paint7_linear_501_35939"
       x1="87.530403"
       y1="149.34801"
       x2="56.011299"
       y2="196.97701"
       gradientUnits="userSpaceOnUse">
      <stop
         stop-color="#245795"
         id="stop259" />
      <stop
         offset="1"
         stop-color="#8AD3A8"
         id="stop261" />
    </linearGradient>
    <linearGradient
       id="paint8_linear_501_35939"
       x1="91.348099"
       y1="162.436"
       x2="95.892601"
       y2="186.123"
       gradientUnits="userSpaceOnUse">
      <stop
         stop-color="#245795"
         id="stop264" />
      <stop
         offset="1"
         stop-color="#8AD3A8"
         id="stop266" />
    </linearGradient>
    <linearGradient
       id="paint9_linear_501_35939"
       x1="58.835098"
       y1="135.985"
       x2="59.896099"
       y2="181.10899"
       gradientUnits="userSpaceOnUse">
      <stop
         stop-color="#245795"
         id="stop269" />
      <stop
         offset="1"
         stop-color="#8AD3A8"
         id="stop271" />
    </linearGradient>
    <linearGradient
       id="paint10_linear_501_35939"
       x1="59.073399"
       y1="162.436"
       x2="27.5543"
       y2="210.065"
       gradientUnits="userSpaceOnUse">
      <stop
         stop-color="#245795"
         id="stop274" />
      <stop
         offset="1"
         stop-color="#8AD3A8"
         id="stop276" />
    </linearGradient>
    <linearGradient
       id="paint11_linear_501_35939"
       x1="62.890999"
       y1="175.524"
       x2="67.4356"
       y2="199.21001"
       gradientUnits="userSpaceOnUse">
      <stop
         stop-color="#245795"
         id="stop279" />
      <stop
         offset="1"
         stop-color="#8AD3A8"
         id="stop281" />
    </linearGradient>
    <linearGradient
       id="paint12_linear_501_35939"
       x1="25.229601"
       y1="142.96899"
       x2="26.5343"
       y2="198.461"
       gradientUnits="userSpaceOnUse">
      <stop
         stop-color="#245795"
         id="stop284" />
      <stop
         offset="1"
         stop-color="#8AD3A8"
         id="stop286" />
    </linearGradient>
    <linearGradient
       id="paint13_linear_501_35939"
       x1="46.475399"
       y1="165.22501"
       x2="47.235401"
       y2="184.798"
       gradientUnits="userSpaceOnUse">
      <stop
         stop-color="#245795"
         id="stop289" />
      <stop
         offset="1"
         stop-color="#8AD3A8"
         id="stop291" />
    </linearGradient>
    <linearGradient
       id="paint14_linear_501_35939"
       x1="59.073399"
       y1="156.34801"
       x2="27.5543"
       y2="203.97701"
       gradientUnits="userSpaceOnUse">
      <stop
         stop-color="#245795"
         id="stop294" />
      <stop
         offset="1"
         stop-color="#8AD3A8"
         id="stop296" />
    </linearGradient>
    <linearGradient
       id="paint15_linear_501_35939"
       x1="62.890999"
       y1="169.435"
       x2="67.4356"
       y2="193.12199"
       gradientUnits="userSpaceOnUse">
      <stop
         stop-color="#245795"
         id="stop299" />
      <stop
         offset="1"
         stop-color="#8AD3A8"
         id="stop301" />
    </linearGradient>
    <linearGradient
       id="paint16_linear_501_35939"
       x1="25.229601"
       y1="136.881"
       x2="26.5343"
       y2="192.373"
       gradientUnits="userSpaceOnUse">
      <stop
         stop-color="#245795"
         id="stop304" />
      <stop
         offset="1"
         stop-color="#8AD3A8"
         id="stop306" />
    </linearGradient>
    <linearGradient
       id="paint17_linear_501_35939"
       x1="46.475399"
       y1="159.138"
       x2="47.235401"
       y2="178.711"
       gradientUnits="userSpaceOnUse">
      <stop
         stop-color="#245795"
         id="stop309" />
      <stop
         offset="1"
         stop-color="#8AD3A8"
         id="stop311" />
    </linearGradient>
    <linearGradient
       id="paint18_linear_501_35939"
       x1="59.073399"
       y1="150.261"
       x2="27.5543"
       y2="197.89"
       gradientUnits="userSpaceOnUse">
      <stop
         stop-color="#245795"
         id="stop314" />
      <stop
         offset="1"
         stop-color="#8AD3A8"
         id="stop316" />
    </linearGradient>
    <linearGradient
       id="paint19_linear_501_35939"
       x1="62.890999"
       y1="163.349"
       x2="67.4356"
       y2="187.036"
       gradientUnits="userSpaceOnUse">
      <stop
         stop-color="#245795"
         id="stop319" />
      <stop
         offset="1"
         stop-color="#8AD3A8"
         id="stop321" />
    </linearGradient>
    <linearGradient
       id="paint20_linear_501_35939"
       x1="30.378099"
       y1="136.89799"
       x2="31.4391"
       y2="182.022"
       gradientUnits="userSpaceOnUse">
      <stop
         stop-color="#245795"
         id="stop324" />
      <stop
         offset="1"
         stop-color="#8AD3A8"
         id="stop326" />
    </linearGradient>
    <linearGradient
       id="paint21_linear_501_35939"
       x1="71.015602"
       y1="-53.791599"
       x2="71.015602"
       y2="20.369499"
       gradientUnits="userSpaceOnUse"
       gradientTransform="translate(-9)">
      <stop
         stop-color="#245795"
         id="stop329" />
      <stop
         offset="1"
         stop-color="#8AD3A8"
         id="stop331" />
    </linearGradient>
    <linearGradient
       id="paint22_linear_501_35939"
       x1="67.392197"
       y1="-5.3755002"
       x2="116.777"
       y2="174.064"
       gradientUnits="userSpaceOnUse"
       gradientTransform="translate(-9)">
      <stop
         stop-color="#245795"
         id="stop334" />
      <stop
         offset="1"
         stop-color="#8AD3A8"
         id="stop336" />
    </linearGradient>
    <linearGradient
       id="paint23_linear_501_35939"
       x1="65.185303"
       y1="-3.8778501"
       x2="114.394"
       y2="174.57899"
       gradientUnits="userSpaceOnUse"
       gradientTransform="translate(-9)">
      <stop
         stop-color="#245795"
         id="stop339" />
      <stop
         offset="1"
         stop-color="#8AD3A8"
         id="stop341" />
    </linearGradient>
    <linearGradient
       id="paint24_linear_501_35939"
       x1="65.185303"
       y1="-3.8778501"
       x2="114.394"
       y2="174.57899"
       gradientUnits="userSpaceOnUse"
       gradientTransform="translate(-9)">
      <stop
         stop-color="#245795"
         id="stop344" />
      <stop
         offset="1"
         stop-color="#8AD3A8"
         id="stop346" />
    </linearGradient>
    <linearGradient
       id="paint25_linear_501_35939"
       x1="80.982597"
       y1="113.822"
       x2="75.057999"
       y2="121.176"
       gradientUnits="userSpaceOnUse"
       gradientTransform="translate(-9)">
      <stop
         stop-color="#1C8EF4"
         id="stop349" />
      <stop
         offset="1"
         stop-color="#00CFDD"
         id="stop351" />
    </linearGradient>
    <linearGradient
       id="paint26_linear_501_35939"
       x1="76.086304"
       y1="98.901901"
       x2="84.090599"
       y2="132.2"
       gradientUnits="userSpaceOnUse"
       gradientTransform="translate(-9)">
      <stop
         stop-color="#245795"
         id="stop354" />
      <stop
         offset="1"
         stop-color="#8AD3A8"
         id="stop356" />
    </linearGradient>
    <linearGradient
       id="paint27_linear_501_35939"
       x1="30.461201"
       y1="-4.7922802"
       x2="51.9645"
       y2="90.4972"
       gradientUnits="userSpaceOnUse"
       gradientTransform="translate(-9)">
      <stop
         stop-color="#245795"
         id="stop359" />
      <stop
         offset="1"
         stop-color="#8AD3A8"
         id="stop361" />
    </linearGradient>
    <linearGradient
       id="paint28_linear_501_35939"
       x1="17.4471"
       y1="58.771099"
       x2="23.4223"
       y2="83.625702"
       gradientUnits="userSpaceOnUse">
      <stop
         stop-color="#245795"
         id="stop364" />
      <stop
         offset="1"
         stop-color="#8AD3A8"
         id="stop366" />
    </linearGradient>
    <linearGradient
       id="paint29_linear_501_35939"
       x1="34.630699"
       y1="69.159698"
       x2="40.6059"
       y2="94.014397"
       gradientUnits="userSpaceOnUse">
      <stop
         stop-color="#245795"
         id="stop369" />
      <stop
         offset="1"
         stop-color="#8AD3A8"
         id="stop371" />
    </linearGradient>
    <linearGradient
       id="paint30_linear_501_35939"
       x1="51.8167"
       y1="79.548401"
       x2="57.791401"
       y2="104.403"
       gradientUnits="userSpaceOnUse">
      <stop
         stop-color="#245795"
         id="stop374" />
      <stop
         offset="1"
         stop-color="#8AD3A8"
         id="stop376" />
    </linearGradient>
  </defs>
</svg>
