<svg width="73" height="44" viewBox="0 0 73 44" fill="none" xmlns="http://www.w3.org/2000/svg"><g clip-path="url(#clip0_86_27)" fill="#0F67AD"><path d="M71.564 34.683v1.253h1.205v1.353h-1.205v2.106c0 .43.176.64.689.64.23 0 .526-.077.526-.077l.15 1.253s-.386.157-1.096.157c-1.323 0-2.026-.652-2.026-1.873v-2.206h-.783v-1.353h.783v-1.253h1.757Zm-5.713 1.057c-1.644 0-2.828 1.061-2.828 2.823 0 1.722 1.196 2.82 3.148 2.82.962 0 1.914-.43 1.914-.43l-.386-1.247s-.65.332-1.387.332c-.927 0-1.359-.52-1.475-.993h3.816c.054-1.798-.691-3.305-2.802-3.305Zm.075 1.265c.61 0 1.049.427 1.127.987H64.81c.063-.602.618-.986 1.117-.986ZM56.804 41.2v-5.263h1.737v.69s.578-.89 1.854-.89c1.442 0 1.932.912 1.932 2.055V41.2H60.59v-2.807c0-.887-.343-1.252-.915-1.252-.654 0-1.134.565-1.134 1.453V41.2h-1.737Zm-13.272-5.46c1.643 0 2.664 1.325 2.664 2.783 0 1.68-1.218 2.867-2.693 2.867-1.087 0-1.76-.79-1.76-.79v2.706h-1.726v-7.368h1.726v.652s.587-.85 1.789-.85Zm-.509 1.454c-.78 0-1.33.773-1.33 1.357 0 .8.624 1.344 1.33 1.344.673 0 1.368-.454 1.368-1.335 0-.697-.575-1.366-1.368-1.366Zm3.869 4.006v-7.37h1.757v7.37h-1.757Zm5.16-5.46c-1.644 0-2.665 1.325-2.665 2.783 0 1.68 1.218 2.867 2.692 2.867 1.087 0 1.76-.79 1.76-.79v.602h1.727v-5.264H53.84v.652s-.587-.85-1.789-.85Zm.508 1.454c.78 0 1.33.773 1.33 1.357 0 .8-.624 1.344-1.33 1.344-.673 0-1.369-.454-1.369-1.335 0-.697.576-1.366 1.368-1.366ZM34.776 41.2v-7.37h1.758v7.37h-1.758Zm-4.747-5.46c-1.643 0-2.664 1.325-2.664 2.783 0 1.68 1.218 2.867 2.692 2.867 1.087 0 1.76-.79 1.76-.79v.602h1.726v-5.264h-1.726v.652s-.586-.85-1.788-.85Zm.508 1.454c.78 0 1.33.773 1.33 1.357 0 .8-.623 1.344-1.33 1.344-.672 0-1.368-.454-1.368-1.335 0-.697.576-1.366 1.368-1.366Zm-7.67 1.5V41.2h-1.738v-2.807c0-.887-.343-1.252-.914-1.252-.655 0-1.134.565-1.134 1.453V41.2h-1.737v-5.263h1.737v.69s.577-.89 1.853-.89c.884 0 1.41.343 1.686.872 0 0 .567-.878 2.025-.878 1.368 0 2.037.83 2.037 1.96v3.51h-1.737v-2.808c0-.684-.27-1.269-.916-1.269-.66 0-1.163.594-1.163 1.57Zm-6.591-4.71a1.02 1.02 0 0 1-1.022 1.02 1.022 1.022 0 0 1-1.021-1.02 1.02 1.02 0 0 1 1.021-1.02 1.023 1.023 0 0 1 1.022 1.02ZM14.362 41.2v-5.263h1.757V41.2h-1.757Zm-6.658 0v-5.263h1.738v.69s.577-.89 1.853-.89c1.442 0 1.932.912 1.932 2.055V41.2H11.49v-2.807c0-.887-.343-1.252-.915-1.252-.654 0-1.133.565-1.133 1.453V41.2H7.704Zm-4.75-5.46C1.31 35.74.29 37.065.29 38.523c0 1.68 1.217 2.867 2.692 2.867 1.087 0 1.76-.79 1.76-.79v.602h1.726v-5.264H4.742v.652s-.586-.85-1.788-.85Zm.508 1.454c.78 0 1.33.773 1.33 1.357 0 .8-.623 1.344-1.33 1.344-.672 0-1.368-.454-1.368-1.335 0-.697.576-1.366 1.368-1.366ZM40.958.697v8.352s1.3 1.061 1.917 1.914c-3.182-2.073-6.563-2.944-10.674-2.944-6.768 0-12.93 3.13-15.972 8.313l.393.736s1.323-1.589 4.382-3.147c-3.34 3.29-4.74 5.915-6.794 11.968l3.258 3.24c4.263-4.763 10.536-7.91 17.616-7.91 6.7 0 12.87 2.994 16.726 6.974l3.51-3.515c-1.967-3.362-4.522-6.463-6.553-8.616 2.101 1.198 5.455 1.884 8.66 1.884 5.606 0 9.725-3.014 9.725-7.117 0-5.055-4.34-8.131-11.42-9.301l-1.145 1.918c3.563.634 9.105 2.705 9.105 6.403 0 2.03-1.572 3.731-3.836 3.731-2.8 0-5.124-3.117-6.537-5.869l-2.162-.052C48.676 4.593 44.664 1.601 40.958.697Z"/></g><defs><clipPath id="clip0_86_27"><path fill="#fff" d="M0 0h73v44H0z"/></clipPath></defs></svg>