<svg width="91" height="32" viewBox="0 0 91 32" fill="none" xmlns="http://www.w3.org/2000/svg"><path d="M12.224 31.588c-4.33-1.392-7.972-4.504-9.874-8.435-1.124-2.324-1.199-2.753-1.199-6.873 0-4.182.06-4.515 1.256-6.899 1.534-3.058 4.66-6.077 7.776-7.51 1.984-.914 2.695-1.03 6.323-1.03 3.842 0 4.244.076 6.702 1.263 1.438.695 2.614 1.399 2.614 1.564 0 .226-1.597 2.605-2.527 3.763-.046.058-1.016-.353-2.153-.914-8.638-4.259-18.203 4.617-14.747 13.684.93 2.442 3.398 5.038 5.829 6.134 2.544 1.147 6.214 1.102 8.742-.108 1.068-.512 2.06-.94 2.206-.954.495-.044 2.707 3.287 2.512 3.784-.107.273-1.212.978-2.456 1.566-1.938.915-2.819 1.083-6.147 1.172-2.137.057-4.323-.036-4.857-.208Zm25.365-.196c-4.044-1.291-7.91-4.676-9.754-8.537-.94-1.97-1.041-2.606-1.041-6.575 0-4.182.06-4.515 1.256-6.899 1.534-3.058 4.66-6.077 7.776-7.51C37.848.94 38.487.841 42.537.841c4.26 0 4.6.06 7.028 1.233 3.115 1.506 6.191 4.574 7.652 7.633.947 1.984 1.047 2.614 1.047 6.58s-.1 4.596-1.047 6.58c-1.458 3.053-4.537 6.128-7.637 7.626-2.277 1.1-2.94 1.236-6.446 1.324-2.514.062-4.492-.09-5.545-.426Zm10.06-5.452c2.183-1.167 3.805-2.83 5.056-5.181.657-1.236.858-2.276.865-4.47.007-2.453-.153-3.151-1.124-4.89-1.271-2.274-2.933-3.855-5.363-5.1-2.314-1.186-6.794-1.186-9.108 0-2.43 1.245-4.092 2.826-5.363 5.1-.97 1.739-1.132 2.438-1.124 4.89.01 3.07.667 4.819 2.71 7.202 1.177 1.373 3.928 3.057 5.74 3.514 2.128.536 5.615.054 7.71-1.065Zm-2.745-3.24c-.19-.485-1.063-2.408-1.942-4.272-.88-1.865-1.599-3.538-1.599-3.719 0-.18.591-.328 1.314-.328 1.26 0 1.358.107 2.428 2.669.613 1.467 1.202 2.668 1.31 2.668.106 0 .695-1.2 1.308-2.668 1.07-2.562 1.168-2.669 2.429-2.669.722 0 1.313.14 1.313.31 0 .17-.87 2.186-1.933 4.48-1.79 3.866-2.02 4.181-3.108 4.292-.931.095-1.248-.064-1.52-.763Zm-7.426-6.03v-3.814h-1.554c-1.468 0-1.554-.064-1.554-1.145v-1.144h8.547v1.144c0 1.081-.086 1.145-1.554 1.145H39.81v7.627h-2.331V16.67Zm21.085 14.015c.103-.262 3.444-5.691 7.424-12.065 3.98-6.374 7.235-11.651 7.235-11.728 0-.076-3.234-.139-7.187-.139h-7.188V2.177H70.35c9.044 0 11.463.102 11.315.477-.103.262-3.444 5.691-7.423 12.065-3.98 6.374-7.236 11.651-7.236 11.728 0 .076 3.234.138 7.188.138h7.187v4.577H69.878c-9.043 0-11.463-.102-11.315-.477ZM84.878 16.67V2.177h4.663v28.985h-4.662V16.67Z" fill="#0F67AD"/></svg>