<svg width="39" height="38" viewBox="0 0 39 38" fill="none" xmlns="http://www.w3.org/2000/svg"><path d="M21.63 37.402V24.9h4.338l.652-4.925h-4.99v-3.14c0-1.438.425-2.4 2.495-2.4h2.67v-4.406c-1.292-.135-2.59-.2-3.889-.196a5.995 5.995 0 0 0-4.74 1.75 6.04 6.04 0 0 0-1.74 4.76v3.63h-4.352v4.925h4.352v12.39a18.389 18.389 0 0 1-11.567-6.942A18.514 18.514 0 0 1 7.186 5.283 18.361 18.361 0 0 1 19.832.606a18.367 18.367 0 0 1 12.43 5.228 18.496 18.496 0 0 1 5.544 12.328 18.51 18.51 0 0 1-4.314 12.814 18.382 18.382 0 0 1-11.859 6.426h-.003Z" fill="#0F67AD"/></svg>