<svg width="91" height="34" viewBox="0 0 91 34" fill="none" xmlns="http://www.w3.org/2000/svg"><g clip-path="url(#clip0_86_21)" fill-rule="evenodd" clip-rule="evenodd" fill="#0F67AD"><path d="M8.004 8.697c1.813-.034 4.612-.307 5.729.431 1.235 3.273-2.88 2.687-5.729 2.59v14.929c0 2.06.318 4.947-.52 6.214-.942.366-2.272.54-2.865-.346-.717-1.072-.26-4.198-.26-5.782V11.717c-2.446.119-4.534.113-3.819-2.416.911-.65 2.18-.636 3.819-.604C4.25 4.317 6.295 1.825 9.567.843c2.828-.849 7.438.066 7.464 2.848-.263.57-.529.97-1.128 1.208-1.42.337-1.824-.74-2.865-1.035-3.456-.978-5.076 1.774-5.034 4.833Zm44.96-.604c2.248-.04 5.45-.335 6.77.604 1.122 3.35-3.721 2.632-6.77 2.502-.027 4.636-.916 16.568 1.562 18.296 2.133 1.487 5.805-1.395 6.857.69l.173 1.122c-1.494 3.09-7.758 2.223-9.894.345-3.333-2.996-2.3-14.04-2.257-20.453-1.9.066-4.262.357-4.774-1.035-1.054-2.442 2.855-2.158 4.774-2.071-.075-2.477-.9-8.081 2.17-7.422 2.082.447 1.463 4.929 1.389 7.422Zm34.023-.346c1.485-.007 2.372.39 2.344 1.813l-9.288 18.468c-.888 1.775-1.602 5.427-4.166 5.437-1.824-.931-2.541-3.656-3.471-5.524l-6.944-13.548c-.745-1.452-3.497-5.158-1.302-6.387 2.476-1.386 3.458 2.668 4.08 3.884l8.071 15.793h.087c2.401-4.704 4.803-9.494 7.204-14.24.948-1.848 1.724-4.537 3.385-5.696Zm-57.962.112c5-.074 7.922 1.919 10.068 4.697.621.806 2.16 2.128 1.28 3.588-.786 1.302-2.97 2.093-4.267 2.904a1741.912 1741.912 0 0 1-12.797 8.2l.938 1.024c.975.438 1.77 1.194 2.901 1.538 4.321 1.3 8.344-1.177 10.153-3.502 1.042-1.34 1.337-4.073 3.498-4.27 2.834 1.007.318 4.858-.683 6.149-2.964 3.896-10.444 7.31-16.295 3.844-5.237-3.102-9.602-11.704-4.778-18.535 1.656-2.345 4.193-4.11 7.166-5.125.939-.17 1.886-.341 2.816-.512Zm-.426 3.416c-.845.228-1.707.456-2.56.684-5.174 2.23-6.589 6.715-4.522 12.811 5.119-3.216 10.28-6.434 15.357-9.651a137.44 137.44 0 0 1-.17-.171c-1.159-2.477-4.373-3.703-8.105-3.673Z"/></g><defs><clipPath id="clip0_86_21"><path fill="#fff" transform="translate(.143)" d="M0 0h90v34H0z"/></clipPath></defs></svg>