<svg width="39" height="38" viewBox="0 0 39 38" fill="none" xmlns="http://www.w3.org/2000/svg"><g clip-path="url(#clip0_86_15)"><path d="M19.857 14.438a4.563 4.563 0 1 0 0 9.127 4.563 4.563 0 0 0 0-9.127ZM38.128 9.93a12.017 12.017 0 0 0-.773-4.158 7.36 7.36 0 0 0-4.268-4.269A12.016 12.016 0 0 0 28.928.73c-2.373-.128-3.073-.128-9.07-.128-6 0-6.699 0-9.072.128-1.421.01-2.829.272-4.158.773a7.36 7.36 0 0 0-4.27 4.269 12.015 12.015 0 0 0-.772 4.158c-.129 2.374-.129 3.073-.129 9.072 0 5.998 0 6.697.129 9.07.02 1.427.281 2.839.773 4.178a7.25 7.25 0 0 0 1.674 2.576A7.16 7.16 0 0 0 6.628 36.5c1.33.501 2.737.763 4.158.773 2.373.129 3.073.129 9.071.129 5.998 0 6.698 0 9.071-.13 1.421-.009 2.83-.27 4.159-.772a7.16 7.16 0 0 0 2.594-1.674 7.25 7.25 0 0 0 1.675-2.576c.5-1.337.762-2.75.772-4.177.13-2.374.13-3.073.13-9.071 0-5.999 0-6.698-.13-9.072Zm-4.673 14.72a10.546 10.546 0 0 1-.718 3.312 7.103 7.103 0 0 1-3.92 3.92c-1.067.393-2.192.61-3.33.644h-11.26a10.544 10.544 0 0 1-3.33-.644 6.46 6.46 0 0 1-2.411-1.583 6.459 6.459 0 0 1-1.509-2.337 10.102 10.102 0 0 1-.625-3.33v-11.26a10.1 10.1 0 0 1 .625-3.331 6.45 6.45 0 0 1 1.583-2.41 6.605 6.605 0 0 1 2.336-1.51 10.544 10.544 0 0 1 3.33-.643h11.261c1.138.033 2.263.25 3.33.644a6.46 6.46 0 0 1 2.411 1.582 6.46 6.46 0 0 1 1.51 2.337c.392 1.068.61 2.192.643 3.33v5.63c0 3.791.129 4.177.074 5.631v.018ZM30.51 10.96a4.38 4.38 0 0 0-2.595-2.594 7.36 7.36 0 0 0-2.539-.404h-11.04a7.36 7.36 0 0 0-2.54.478 4.379 4.379 0 0 0-2.593 2.502 7.856 7.856 0 0 0-.387 2.54v11.04c.018.867.18 1.725.479 2.539a4.38 4.38 0 0 0 2.594 2.594c.785.289 1.611.45 2.447.479h11.04a7.362 7.362 0 0 0 2.54-.479 4.38 4.38 0 0 0 2.594-2.594 7.35 7.35 0 0 0 .478-2.54v-11.04c0-.868-.162-1.73-.478-2.539v.019ZM19.857 26.03a7.011 7.011 0 0 1-7.01-7.028 7.029 7.029 0 1 1 7.01 7.028Zm7.36-12.677a1.657 1.657 0 0 1 0-3.294 1.656 1.656 0 0 1 0 3.294Z" fill="#0F67AD"/></g><defs><clipPath id="clip0_86_15"><path fill="#fff" transform="translate(.857)" d="M0 0h38v38H0z"/></clipPath></defs></svg>