<svg width="41" height="44" viewBox="0 0 41 44" fill="none" xmlns="http://www.w3.org/2000/svg"><g clip-path="url(#clip0_86_19)"><path d="m9.787 39.355.605-.158.714 2.747-.6.158-.719-2.747Zm1.129-.416 2.264 1.19-.405-1.565.596-.158.743 2.855-2.265-1.174.406 1.557-.596.159-.743-2.864Zm2.767-.616.642-.175 1.18 1.415.347-1.815.641-.166-.654 3.255-2.156-2.514Zm3.124-.833 1.864-.49.142.557-1.263.325.136.524 1.179-.316.144.54-1.18.317.152.591 1.29-.341.142.55-1.892.499-.714-2.756Zm2.755 1.324c.262.125.588.2 1.005.083.31-.075.448-.241.406-.4-.051-.182-.245-.216-.722-.257-.456-.042-.834-.184-.947-.625-.132-.5.242-.89.774-1.032a1.47 1.47 0 0 1 .827 0l.157.6c-.229-.109-.483-.142-.82-.05-.257.066-.369.19-.333.316.055.208.41.2.73.241.568.067.83.233.94.65.117.466-.129.915-.843 1.098a1.809 1.809 0 0 1-1.009.009l-.165-.633Zm2.43-2.106-.74.2-.144-.558 2.071-.541.145.55-.729.19.576 2.198-.604.159-.574-2.198Zm1.522-.99.604-.167.718 2.755-.604.167-.718-2.756Zm2.484-.708a1.54 1.54 0 0 1 .892.017l.152.59a1.368 1.368 0 0 0-.9-.058.894.894 0 0 0-.64 1.107.878.878 0 0 0 1.092.633.893.893 0 0 0 .541-.375l-.097-.366-.718.183-.14-.532 1.281-.342.291 1.116c-.165.408-.528.74-1.015.866-.811.216-1.622-.209-1.837-1.033-.216-.816.287-1.59 1.098-1.806Zm2.713-.841 2.182 2.53-.644.175-.326-.383-1.135.3-.097.5-.64.166.66-3.288Zm.857 1.865-.537-.633-.154.816.69-.183Zm1.246-1.657-.747.192-.144-.55 2.076-.55.144.55-.73.192.573 2.206-.602.158-.57-2.198Zm1.515-.999.606-.158.718 2.755-.606.158-.718-2.755Zm2.472-.699c.809-.217 1.622.241 1.832 1.04.207.8-.276 1.599-1.09 1.807-.808.216-1.617-.233-1.828-1.04-.21-.791.277-1.599 1.086-1.807Zm.602 2.297a.89.89 0 0 0 .624-1.098.882.882 0 0 0-1.082-.65.888.888 0 0 0-.623 1.1.877.877 0 0 0 1.081.648Zm1.247-2.855 2.261 1.182-.404-1.565.594-.158.743 2.864-2.261-1.182.404 1.556-.594.159-.743-2.856ZM18.7 41.245l1.035-.267c.952-.258 1.602.2 1.808.99.212.817-.134 1.507-1.09 1.757L19.418 44l-.718-2.755Zm1.572 1.94c.689-.184.782-.6.664-1.05-.123-.466-.402-.782-1.096-.599l-.392.108.425 1.648.399-.108Zm1.335-2.706.6-.158.718 2.755-.6.15-.718-2.747Zm1.535 1.64c.266.133.59.2 1.01.091.309-.091.447-.25.406-.408-.052-.191-.246-.216-.725-.258-.456-.033-.831-.183-.949-.624-.128-.491.24-.89.772-1.032.31-.084.584-.075.834 0l.157.607c-.23-.116-.483-.15-.822-.058-.258.067-.367.192-.332.317.05.208.404.2.73.24.566.067.828.226.94.65.117.466-.128.916-.843 1.107-.383.1-.718.084-1.015 0l-.163-.632Zm3.203-2.947a1.34 1.34 0 0 1 .92.067l.165.632c-.287-.166-.613-.233-.941-.142a.882.882 0 0 0-.64 1.1c.132.499.605.757 1.092.632.328-.083.582-.3.751-.59l.165.64c-.19.25-.452.416-.774.508-.806.208-1.621-.217-1.836-1.032-.213-.825.287-1.599 1.098-1.815Zm2.641-.7c.813-.208 1.618.242 1.828 1.041.207.8-.272 1.599-1.085 1.815-.807.216-1.622-.242-1.828-1.04-.209-.8.278-1.599 1.085-1.815Zm.598 2.306a.901.901 0 0 0 .628-1.107c-.128-.474-.603-.774-1.082-.64a.888.888 0 0 0-.627 1.098.88.88 0 0 0 1.081.65Zm.842-2.638.644-.167 1.18 1.407.339-1.815.644-.166-.652 3.255-2.155-2.514Zm3.12-.833 1.866-.49.148.548-1.267.342.136.516 1.18-.308.141.54-1.18.309.157.59 1.287-.34.14.55-1.89.498-.718-2.755Zm2.34-.616 1.143-.3a.933.933 0 0 1 1.164.658c.095.367-.024.708-.28.916l.94.882-.68.183-.805-.766h-.008l-.396.109.239.916-.599.158-.718-2.756Zm1.416 1.016c.23-.067.35-.258.293-.483-.054-.216-.243-.325-.433-.275l-.529.142.19.74.479-.124Zm2.187-.125-1.453-1.465.657-.175.953.982.347-1.315.656-.175-.553 1.99.268 1.024-.607.158-.268-1.024Zm-3.475-17.695c-.446 3.344-2.567 5.783-6.05 6.715 0 0-8.175 2.19-8.817 2.364a1.75 1.75 0 0 1-.39.05h-.075a.245.245 0 0 1-.111-.025h-.004c-.033-.008-.062-.025-.097-.041-.033-.017-.058-.042-.08-.058l-.009-.009c-.02-.025-.045-.05-.066-.083h-.006a.308.308 0 0 1-.029-.05c-.008-.017-.02-.033-.029-.05-.004 0-.004-.008-.004-.008-.008-.017-.018-.042-.027-.059-.008-.025-.016-.041-.025-.066-.004 0-.004-.009-.004-.009-.008-.024-.016-.041-.024-.066-.009-.025-.013-.05-.021-.075-.004 0-.004-.008-.004-.017-.01-.025-.019-.041-.023-.066-.037-.15-.299-1.14-.683-2.59-.386-1.447-.893-3.345-1.407-5.3-.006-.004-.006-.012-.01-.016-1.15-4.333-2.365-8.928-2.49-9.386-.18-.7-.059-.903.647-1.09.706-.188 8.673-2.323 8.673-2.323 3.528-.94 6.675.25 8.772 3.113L30.814 0 1.356 7.862l7.983 30.061 29.308-7.95-2.633-10.086ZM17.521 29.49c0 .008-.004.017-.004.025v.016c-.004.009-.004.017-.004.025 0 .009 0 .017-.004.017 0 .008-.004.017-.004.025s0 .008-.004.008l-.015.034c0 .008 0 .008-.004.008 0 .008-.008.017-.008.025-.004.008-.008.008-.008.008 0 .009-.009.017-.009.025-.004 0-.008 0-.008.008-.008.009-.008.017-.016.026 0 0-.005.008-.009.008-.004.008-.008.016-.018.016 0 .009-.005.009-.009.009a2.911 2.911 0 0 1-.024.025v.008c-.122.1-.318.183-.613.258-.947.258-2.097.574-2.784.758-.124.033-.233.05-.334.066h-.082c-.047.009-.092 0-.132 0h-.004c-.02-.008-.041-.008-.053-.008-.005 0-.01 0-.01-.009-.038 0-.071-.016-.102-.024 0 0-.004-.009-.008-.009-.013 0-.025-.008-.041-.016 0-.009 0-.009-.005-.009-.03-.025-.055-.041-.08-.066v-.009c-.012-.008-.025-.024-.035-.033 0 0-.004 0-.004-.008a.108.108 0 0 1-.03-.042h-.003a11.563 11.563 0 0 0-.025-.05l-.004-.008c-.008-.017-.019-.034-.027-.059a.4.4 0 0 0-.025-.058c0-.008 0-.008-.004-.008-.004-.025-.012-.042-.016-.067l-.008-.016c-.005-.017-.009-.042-.017-.067-.004-.008-.008-.033-.023-.075a.52.52 0 0 0-.02-.075c-.005-.025-.013-.058-.02-.1-.018-.058-.036-.116-.057-.2 0-.008-.004-.016-.008-.033-.29-1.132-1.057-4.054-1.867-7.175-.005-.009-.005-.017-.009-.025-1.166-4.485-2.435-9.35-2.56-9.833-.19-.729-.052-.862.65-1.05.486-.124 1.995-.54 2.785-.744.025-.008.05-.017.077-.02.008-.005.016-.005.02-.005.02-.008.037-.008.054-.017.01 0 .014 0 .023-.004.016-.004.033-.004.049-.008.004-.004.012-.004.023-.004.012-.005.029-.005.045-.009.004 0 .008-.004.017-.004a.161.161 0 0 0 .047-.008h.012c.021 0 .038-.004.06-.008.037 0 .07-.005.105-.005h.045c.005 0 .01.005.01.005.014 0 .026 0 .038.004h.005c.016 0 .024.004.04.008.234.054.327.258.432.666a5255.685 5255.685 0 0 1 2.54 9.74c.508 1.945.997 3.826 1.37 5.258.368 1.424.626 2.39.654 2.523a.229.229 0 0 1 .017.05v.016c.004.017.008.025.008.042.004 0 .004.008.01.016 0 .009 0 .017.005.034 0 0 .004.008.004.016s0 .017.004.034v.016c0 .009.004.017.004.042v.008a.118.118 0 0 1 .004.042v.05Zm13.145-13.492a10.337 10.337 0 0 0-.52-1.403c-1.104-2.33-2.926-3.362-5.145-2.767l-3.41.915c-.322.084-.469.238-.469.47.004.055.012.105.025.163.045.175.722 2.722 1.382 5.199a3738.99 3738.99 0 0 1 1.153 4.339c.021.083.042.15.059.216.03.133.055.216.064.258.088.325.31.516.705.416.262-.066 2.96-.79 2.96-.79 3.146-.85 4.244-3.087 3.274-6.72-.016-.071-.037-.138-.053-.204a3.124 3.124 0 0 0-.025-.092Z" fill="#0F67AD"/></g><defs><clipPath id="clip0_86_19"><path fill="#fff" transform="translate(.714)" d="M0 0h40v44H0z"/></clipPath></defs></svg>