<svg width="121" height="34" viewBox="0 0 121 34" fill="none" xmlns="http://www.w3.org/2000/svg"><g clip-path="url(#clip0_86_24)" fill="#0F67AD"><path d="M1.132.482v33.03h24.414V.482H1.132Zm20.883 29.705H4.65V3.81h17.364v26.377ZM40.095 12h-.035c-1.947-2.956-3.913-5.567-5.896-8.195H32.65v11.497h1.67V7.056h.016c1.967 2.974 3.932 5.602 5.916 8.245h1.513V3.806h-1.671V12Zm12.055 3.302L48.27 3.805h-1.738l-4.21 11.497h1.808l1.062-3.138h3.67l.957 3.138h2.33Zm-6.42-4.55c.488-1.512.976-2.906 1.41-4.682h.035c.488 1.776.922 3.17 1.375 4.681h-2.82Zm8.385 4.55h2.087V5.349h3.202V3.805h-8.49V5.35h3.201v9.953ZM62.15 3.805h-2.07v11.497h2.07V3.805Zm6.438 11.692c3.183 0 5.166-2.676 5.166-6.109 0-3.218-2.192-5.781-5.166-5.781-2.975 0-5.168 2.563-5.168 5.781 0 3.434 1.983 6.11 5.168 6.11Zm0-10.247c2.07 0 2.939 2.02 2.939 4.139 0 2.2-.765 4.467-2.94 4.467-2.174 0-2.94-2.266-2.94-4.467 0-2.12.87-4.139 2.94-4.139Zm8.104 1.806h.02c1.965 2.974 3.93 5.602 5.913 8.245h1.513V3.806h-1.67V12h-.034c-1.948-2.956-3.914-5.567-5.897-8.195h-1.513v11.497h1.668V7.056Zm10.871 5.108h3.672l.957 3.138h2.33L90.645 3.805h-1.74l-4.21 11.497h1.81l1.06-3.138Zm1.951-6.094h.034c.486 1.776.921 3.17 1.375 4.681h-2.82c.489-1.51.974-2.905 1.411-4.68Zm11.809 7.687h-4.121V3.805h-2.071v11.497h6.193l-.001-1.545ZM38.393 28.45c-.436.214-.904.28-1.46.28-1.792 0-3.532-1.61-3.532-4.336 0-2.61 1.513-4.27 3.74-4.27.8 0 1.67.279 2.227.607l.677-1.362c-.695-.494-1.826-.888-2.957-.888-3.652 0-5.914 2.743-5.914 5.88 0 3.383 2.262 6.011 5.844 6.011 1.183 0 2.35-.294 3.463-.706v-4.748h-2.088v3.532Zm6.07-3.53h3.41v-1.544h-3.41v-3.153h3.48v-1.544h-5.566v11.497h6.192V28.63h-4.106v-3.71Zm9.916-6.438c-2.975 0-5.166 2.562-5.166 5.781 0 3.432 1.983 6.11 5.166 6.11 3.183 0 5.166-2.678 5.166-6.11 0-3.22-2.192-5.781-5.166-5.781Zm0 10.248c-2.175 0-2.94-2.267-2.94-4.467 0-2.12.87-4.14 2.94-4.14s2.94 2.02 2.94 4.14c0 2.2-.765 4.467-2.94 4.467Zm13.099-.28c-.435.214-.905.28-1.462.28-1.792 0-3.532-1.61-3.532-4.336 0-2.61 1.514-4.27 3.742-4.27.8 0 1.67.279 2.224.607l.68-1.362c-.696-.494-1.827-.888-2.959-.888-3.651 0-5.912 2.743-5.912 5.88 0 3.383 2.26 6.011 5.845 6.011 1.181 0 2.346-.294 3.461-.706v-4.748h-2.087v3.532Zm11.028-6.453c0-2.235-1.444-3.318-3.774-3.318h-3.254v11.497h2.087V25.84h.94l1.965 4.336h2.383l-2.451-4.764a3.836 3.836 0 0 0 2.104-3.415Zm-4.07 2.364c-.21.017-.698.034-.871.05v-4.188h.924c1.233 0 1.928.672 1.928 1.855 0 1.544-.99 2.234-1.981 2.283Zm8.662-5.682-4.21 11.497h1.808l1.062-3.138h3.67l.96 3.138h2.328l-3.88-11.497H83.1Zm-.8 6.948c.487-1.512.974-2.908 1.41-4.681h.035c.486 1.773.92 3.169 1.374 4.681h-2.818Zm21.692-2.53h-4.331v-4.418h-2.072v11.497h2.072V24.64h4.331v5.536h2.087V18.71h-2.087v4.386Zm4.086 7.077h2.07V18.68h-2.07v11.495Zm9.376-1.444c-2.017 0-3.723-1.61-3.723-4.336 0-2.61 1.55-4.27 3.671-4.27.8 0 1.636.344 2.141.64l.66-1.395c-.714-.46-1.721-.887-2.8-.887-3.636 0-5.88 2.743-5.88 5.88 0 3.383 2.262 6.01 5.846 6.01 1.009 0 2.121-.377 2.748-.787l-.573-1.43a4.121 4.121 0 0 1-2.09.575ZM92.63 18.68h-3.251v11.496h2.087V25.84h.938c2.49 0 4.001-1.907 4.001-3.843 0-2.235-1.443-3.318-3.775-3.318Zm-.295 5.681c-.209.015-.712.03-.87.046v-4.184h.939c1.218 0 1.914.672 1.914 1.855 0 1.544-.992 2.234-1.983 2.283Z"/></g><defs><clipPath id="clip0_86_24"><path fill="#fff" transform="translate(.571)" d="M0 0h120v34H0z"/></clipPath></defs></svg>