<svg width="38" height="38" viewBox="0 0 38 38" fill="none" xmlns="http://www.w3.org/2000/svg"><g clip-path="url(#clip0_86_3)"><path fill-rule="evenodd" clip-rule="evenodd" d="M4.28.602h29.44a3.68 3.68 0 0 1 3.68 3.68v29.44a3.68 3.68 0 0 1-3.68 3.68H4.28a3.68 3.68 0 0 1-3.68-3.68V4.282A3.68 3.68 0 0 1 4.28.602Z" fill="#0F67AD"/><path fill-rule="evenodd" clip-rule="evenodd" d="M23.707 34.46c1.12 0 2.028-.9 2.028-2.011a2.02 2.02 0 0 0-2.028-2.011h-.305c1.12 0 2.027.9 2.027 2.01a2.02 2.02 0 0 1-2.027 2.012h.305Z" fill="#B4B7B9"/><path fill-rule="evenodd" clip-rule="evenodd" d="M23.374 30.438h-.305c-1.12 0-2.028.9-2.028 2.01a2.02 2.02 0 0 0 2.028 2.012h.305a2.02 2.02 0 0 1-2.027-2.011 2.02 2.02 0 0 1 2.027-2.011Z" fill="#D5D7D9"/><path d="M23.388 33.424a.982.982 0 0 0 .986-.977.982.982 0 0 0-.986-.978.982.982 0 0 0-.986.978c0 .54.442.977.986.977Z" fill="#0F67AD"/><path fill-rule="evenodd" clip-rule="evenodd" d="M7.96 29.523v1.02h1.194v3.884h1.195V30.57h.971l.334-1.047H7.96Zm9.776 0v1.02h1.194v3.884h1.195V30.57h.972l.333-1.047h-3.694Zm-5.86.579c0-.32.26-.579.583-.579a.58.58 0 0 1 .583.579.58.58 0 0 1-.583.578.58.58 0 0 1-.583-.578Zm0 .992h1.166v3.333h-1.166v-3.333Zm1.666-1.57v4.903h1.167V33.16l.361-.33 1.139 1.625h1.25l-1.64-2.37 1.473-1.432h-1.417L14.71 31.81v-2.287h-1.167Zm12.582 0v4.903h1.166V33.16l.361-.33 1.14 1.625h1.249l-1.639-2.37 1.472-1.432h-1.416L27.29 31.81v-2.287h-1.166Z" fill="#F2F6FB"/><path fill-rule="evenodd" clip-rule="evenodd" d="M24.324 12.555a9.8 9.8 0 0 0 5.716 1.829v-4.1c-.404 0-.806-.042-1.2-.126v3.228a9.801 9.801 0 0 1-5.717-1.829v8.366a7.58 7.58 0 0 1-7.581 7.578 7.548 7.548 0 0 1-4.22-1.282 7.56 7.56 0 0 0 5.42 2.28 7.58 7.58 0 0 0 7.582-7.578v-8.366Zm1.48-4.136a5.713 5.713 0 0 1-1.48-3.345v-.527h-1.138a5.74 5.74 0 0 0 2.619 3.872ZM13.97 23.008a3.467 3.467 0 0 1 3.813-5.402v-4.192a7.643 7.643 0 0 0-1.2-.069v3.263a3.467 3.467 0 0 0-2.613 6.4Z" fill="#B4B7B9"/><path fill-rule="evenodd" clip-rule="evenodd" d="M23.123 11.557a9.801 9.801 0 0 0 5.716 1.829v-3.228a5.738 5.738 0 0 1-3.034-1.739 5.74 5.74 0 0 1-2.619-3.872h-2.988V20.92a3.468 3.468 0 0 1-6.229 2.087 3.466 3.466 0 0 1 1.56-6.563c.368 0 .721.058 1.053.163v-3.263a7.58 7.58 0 0 0-5.26 12.875 7.548 7.548 0 0 0 4.22 1.281 7.58 7.58 0 0 0 7.581-7.578v-8.366Z" fill="#F2F6FB"/><path fill-rule="evenodd" clip-rule="evenodd" d="M28.84 10.156v-.872a5.717 5.717 0 0 1-3.035-.867 5.732 5.732 0 0 0 3.034 1.74Zm-5.654-5.611a5.824 5.824 0 0 1-.063-.47v-.528h-4.125V19.92a3.467 3.467 0 0 1-5.029 3.085 3.468 3.468 0 0 0 6.229-2.087V4.545h2.988Zm-6.604 8.799v-.93a7.58 7.58 0 0 0-8.622 7.507 7.569 7.569 0 0 0 3.361 6.296 7.58 7.58 0 0 1 5.26-12.874Z" fill="#D5D7D9"/><path fill-rule="evenodd" clip-rule="evenodd" d="M23.402 34.46c1.12 0 2.027-.9 2.027-2.011a2.02 2.02 0 0 0-2.027-2.011h-.028c-1.12 0-2.027.9-2.027 2.01a2.02 2.02 0 0 0 2.027 2.012h.028Zm-1-2.011c0-.54.442-.978.986-.978s.986.438.986.978-.442.978-.986.978a.982.982 0 0 1-.986-.978Z" fill="#F2F6FB"/></g><defs><clipPath id="clip0_86_3"><path fill="#fff" d="M0 0h38v38H0z"/></clipPath></defs></svg>