<svg version="1.1" id="Layer_1" xmlns="http://www.w3.org/2000/svg" xmlns:xlink="http://www.w3.org/1999/xlink" x="0" y="0" viewBox="0 0 610 500" style="enable-background:new 0 0 610 500" xml:space="preserve"><style>.st0{fill:#f9f9f9}.st4{fill:#fff}.st15,.st16{fill:#e7edfb}.st16,.st23{fill-rule:evenodd;clip-rule:evenodd}.st23{fill:#00160a}.st25{fill:#ffdcca}.st28{fill:#fff1e9}.st30{fill:#1e2144}.st31{fill:#f98}.st32{fill:#ed7966}.st33{fill:#ffbd5c}.st34{fill:#f29e3b}.st36{fill:#e2675a}.st38{fill:#ffe2cf}.st39{fill:#ffd3bb}</style><path class="st0" d="m532.1 88.2-320.7 56.5c-10.9 1.9-17.9 12.2-15.6 23l41.9 200.5c2.3 10.8 12.9 18 23.8 16.1l320.7-56.5c10.9-1.9 17.9-12.2 15.6-23l-41.9-200.5c-2.3-10.8-12.9-18-23.8-16.1z"/><path d="m302.3 166.7-2.9-13.7 4.8-1c.9-.2 1.8-.2 2.6 0s1.5.6 2 1.2.9 1.3 1.1 2.2c.2.9.2 1.7-.1 2.4-.2.8-.6 1.4-1.2 1.9s-1.3.9-2.2 1.1l-2.9.6 1 4.7-2.2.6zm.8-7.3 2.8-.6c.7-.1 1.1-.5 1.5-1 .3-.5.4-1.2.3-1.9-.2-.7-.5-1.2-1.1-1.6-.6-.3-1.2-.4-2-.3l-2.5.5 1 4.9zm14.8 4.3c-1 .2-1.8.2-2.7-.1-.8-.3-1.5-.8-2.1-1.4-.6-.7-1-1.5-1.2-2.5-.2-1-.2-1.9.1-2.8.3-.9.7-1.6 1.4-2.2.7-.6 1.5-1 2.4-1.2.9-.2 1.7-.1 2.5.2.8.3 1.5.8 2.1 1.6.6.8 1 1.7 1.3 2.9l-7.7 1.6.2-.3c.1.6.4 1.1.7 1.5.4.4.8.6 1.2.8.5.1 1 .2 1.5 0 .6-.1 1.1-.4 1.4-.7.3-.4.6-.8.7-1.3l2.1.4c-.2.6-.4 1.1-.8 1.6-.3.5-.8.9-1.3 1.2-.4.3-1 .5-1.8.7zm-3.8-5.5-.4-.2 5.5-1.2-.2.3c-.1-.5-.3-.9-.6-1.2-.3-.3-.7-.5-1.1-.6-.4-.1-.8-.1-1.2 0-.4.1-.8.3-1.1.5-.4.3-.6.6-.8 1-.2.4-.2.9-.1 1.4zm14.3 3.2c-1 .2-1.9.1-2.5-.3-.6-.4-1.1-1.1-1.3-2.1l-2.1-10.1 2.2-.5 2.1 9.7c.1.5.3.8.5 1 .3.2.6.2 1 .1.1 0 .3-.1.4-.2.1-.1.3-.2.5-.4l1.2 1.5c-.3.3-.6.6-.9.7-.4.4-.7.6-1.1.6zm-6.5-7.1-.4-1.9 6.4-1.4.4 1.9-6.4 1.4zm15.8 4.9-2.9-13.7 4.3-.9c1.3-.3 2.6-.2 3.7.1 1.2.4 2.2 1 3 1.9.8.9 1.4 2 1.7 3.4.3 1.3.2 2.6-.1 3.7-.4 1.2-1 2.1-1.9 2.9-.9.8-2 1.4-3.4 1.6l-4.4 1zm1.8-2.6 2-.4c.6-.1 1.2-.4 1.7-.7.5-.4.9-.8 1.3-1.3.3-.5.5-1.1.7-1.7.1-.6.1-1.3 0-1.9-.1-.7-.4-1.3-.7-1.8-.4-.5-.8-1-1.3-1.3-.5-.3-1.1-.6-1.7-.7-.6-.1-1.2-.1-1.9 0l-2 .4 1.9 9.4zm17.5-1.5-.5-1.8-.7-3.2c-.1-.7-.3-1.2-.6-1.6-.2-.4-.5-.7-.9-.9-.4-.2-.8-.2-1.3-.1s-.9.3-1.2.6c-.3.3-.5.6-.7 1.1l-2.1-.3c.1-.5.3-.9.6-1.4.3-.5.6-.8 1.1-1.2.5-.3 1.1-.6 1.8-.7 1-.2 1.8-.2 2.5.1.7.2 1.3.7 1.7 1.3.5.6.8 1.4 1 2.4l1.1 5.4-1.8.3zm-2.7.8c-1.2.2-2.1.2-2.9-.2-.8-.4-1.2-1.1-1.4-2-.2-1 0-1.9.5-2.5.6-.7 1.5-1.2 2.7-1.4l2.6-.6.4 1.7-1.9.4c-.9.2-1.5.4-1.8.8-.3.3-.4.7-.3 1.1.1.4.3.6.6.8.4.1.8.2 1.4 0 .5-.1.9-.3 1.2-.6.3-.3.5-.7.7-1.1.1-.4.1-.8.1-1.3l.6-.1c.3 1.3.2 2.4-.1 3.3-.5.9-1.3 1.5-2.4 1.7zm10.8-2.3c-.7.1-1.3.2-1.9.1-.6-.1-1.1-.3-1.6-.5-.5-.3-.9-.6-1.2-1.1l1.7-1.2c.3.3.6.6 1.1.7.4.2.9.2 1.4.1.5-.1.9-.3 1.2-.5.3-.2.4-.5.3-.8-.1-.3-.2-.5-.5-.6-.3-.1-.6-.2-1.1-.2l-1-.1c-1 0-1.8-.3-2.4-.7-.6-.4-1-.9-1.2-1.6-.2-1-.1-1.8.5-2.5.5-.7 1.4-1.1 2.6-1.4.6-.1 1.2-.2 1.7-.1s1 .2 1.5.5c.4.2.8.6 1 1l-1.6 1.2c-.2-.3-.5-.5-.9-.6-.4-.1-.8-.1-1.3 0-.4.1-.8.3-1 .5-.2.2-.3.5-.2.9 0 .2.2.4.4.5.3.1.6.2 1 .2h1.2c.7 0 1.2.2 1.7.4s.9.5 1.1.9c.3.4.5.8.6 1.2.1.6.1 1.1-.2 1.7-.2.5-.6 1-1.1 1.3-.4.3-1 .6-1.8.7zm5.7-1.4-2.9-13.7 2.2-.5 2.9 13.7-2.2.5zm6.7-1.4-1.1-5 2.2-.5 1.1 5-2.2.5zm-1.1-5.1c-.2-.8-.4-1.4-.7-1.7-.3-.4-.6-.6-1-.7-.3-.1-.7-.1-1.1 0-.7.1-1.3.5-1.6 1.1-.3.6-.3 1.3-.1 2.3l-.8.2c-.2-1-.3-1.9-.1-2.7.2-.8.5-1.5 1-2s1.1-.8 1.9-1c.8-.2 1.5-.1 2.1 0 .6.2 1.2.6 1.6 1.2.4.6.8 1.4 1 2.5l.1.5-2.3.3zm5.7 4.1-2.9-13.7 2.2-.5 2.5 11.9.3 1.8-2.1.5zm5.3-.9c-.8.2-1.6.1-2.3-.2-.7-.3-1.3-.8-1.7-1.5-.5-.7-.8-1.6-1-2.6-.2-1-.3-2-.1-2.8.1-.8.5-1.5 1-2.1.5-.6 1.2-.9 2-1.1.9-.2 1.7-.1 2.4.2.8.3 1.4.8 1.9 1.5s.9 1.5 1.1 2.6c.2 1 .2 2 0 2.8-.2.8-.6 1.6-1.2 2.1-.5.5-1.2.9-2.1 1.1zm-1-1.9c.5-.1 1-.3 1.3-.7.3-.4.6-.8.7-1.3.1-.5.2-1.1 0-1.7-.1-.6-.4-1.1-.7-1.5-.3-.4-.7-.7-1.2-.9-.5-.2-1-.2-1.5-.1s-.9.3-1.2.7c-.3.3-.6.8-.7 1.3-.1.5-.1 1.1 0 1.7.1.6.4 1.1.7 1.6.3.4.7.7 1.1.9.6.1 1 .1 1.5 0zm12-.5c-1 .2-1.9.2-2.8-.1-.9-.3-1.6-.8-2.2-1.4-.6-.7-1-1.5-1.2-2.5-.2-1-.2-1.9.1-2.8.3-.9.7-1.6 1.4-2.2.7-.6 1.5-1 2.5-1.2 1-.2 1.9-.2 2.7.1.8.3 1.6.7 2.1 1.4.6.7 1 1.5 1.2 2.5.2 1 .2 1.9-.1 2.8-.3.9-.7 1.6-1.4 2.2-.5.6-1.3 1-2.3 1.2zm-.4-2c.5-.1 1-.3 1.3-.7.4-.4.6-.8.7-1.3.1-.5.1-1.1 0-1.7-.1-.6-.4-1.1-.7-1.5-.3-.4-.7-.7-1.2-.9-.5-.2-1-.2-1.5-.1s-1 .3-1.4.7c-.4.3-.6.8-.7 1.3-.1.5-.1 1.1 0 1.7.1.6.4 1.1.7 1.5.3.4.8.7 1.2.9.5.2 1 .3 1.6.1zm13.4-1-.5-1.8-.7-3.2c-.1-.7-.3-1.2-.6-1.6-.2-.4-.5-.7-.9-.9-.4-.2-.8-.2-1.3-.1s-.9.3-1.2.6c-.3.3-.5.6-.7 1.1l-2.1-.3c.1-.5.3-.9.6-1.4.3-.5.6-.8 1.1-1.2.5-.3 1.1-.6 1.8-.7 1-.2 1.8-.2 2.5.1.7.2 1.3.7 1.7 1.3.5.6.8 1.4 1 2.4l1.1 5.4-1.8.3zm-2.8.9c-1.2.2-2.1.2-2.9-.2-.8-.4-1.2-1.1-1.4-2-.2-1 0-1.9.5-2.5.6-.7 1.5-1.2 2.7-1.4l2.6-.6.4 1.7-1.9.4c-.9.2-1.5.4-1.8.8-.3.3-.4.7-.3 1.1.1.4.3.6.6.8.4.1.8.2 1.4 0 .5-.1.9-.3 1.2-.6.3-.3.5-.7.7-1.1.1-.4.1-.8.1-1.3l.6-.1c.3 1.3.2 2.4-.1 3.3-.4.9-1.2 1.4-2.4 1.7zm7.6-7.3c-.2-1.1-.2-2 .1-2.7.3-.8.7-1.4 1.2-1.8.6-.5 1.2-.8 1.9-.9l.4 2.1c-.6.1-1.1.3-1.6.6s-.9.6-1.1 1.1c-.2.4-.3 1-.2 1.6h-.7zm-.3 5.5-2.1-9.8 2.2-.5 2.1 9.8-2.2.5zm14.3-3.1-.5-1.8-2.5-11.9 2.2-.5 2.9 13.7-2.1.5zm-3.1 1c-.9.2-1.7.1-2.5-.1-.7-.3-1.4-.8-1.9-1.5s-.9-1.6-1.1-2.6c-.2-1-.2-2 0-2.8.2-.8.6-1.6 1.2-2.1.6-.6 1.3-1 2.2-1.1.8-.2 1.6-.1 2.2.2.7.3 1.3.8 1.7 1.5.5.7.8 1.6 1 2.6.2 1 .3 2 .1 2.8-.1.8-.5 1.5-1 2.1-.4.4-1.1.8-1.9 1zm.1-2.2c.5-.1.9-.3 1.2-.7.3-.4.6-.8.7-1.3.1-.5.1-1.1 0-1.7-.1-.6-.4-1.1-.7-1.6-.3-.4-.7-.7-1.1-.9-.4-.2-.9-.2-1.4-.1-.5.1-1 .3-1.3.7-.3.3-.6.8-.7 1.3-.1.5-.1 1.1 0 1.7.1.6.4 1.1.7 1.5.3.4.7.7 1.2.9.4.3.9.3 1.4.2z" style="fill:#04298c"/><path d="M498.4 195.7c5.3 21.3-7.6 42.8-28.9 48.1-21.3 5.3-42.8-7.6-48.1-28.9-5.3-21.3 7.6-42.8 28.9-48.1 21.3-5.3 42.8 7.7 48.1 28.9zm-46.2 11.5c1.1 4.3 5.4 6.8 9.6 5.8s6.8-5.4 5.8-9.6c-1.1-4.3-5.4-6.8-9.6-5.8-4.3 1.1-6.9 5.4-5.8 9.6z" style="fill:#f67000;fill-opacity:.2"/><path d="M450.6 167.8c-.1-.6.2-1.1.8-1.2 8.9-2 18.2-.8 26.4 3.3s11.6 7.4 10.1 8.9c-1.3 1.3-28 32-1.5 1.5l-18.1 21.6c-.5.2-1.1 0-1.4-.5-.8-1.3-1.9-2.4-3.3-3.1-1.4-.7-2.9-1-4.5-.8-.6.1-1.1-.3-1.3-.8l-7.2-28.9z" style="fill:#f67000"/><circle transform="rotate(-13.999 459.921 205.32)" class="st4" cx="459.9" cy="205.3" r="21.3"/><path d="M448.5 203.1c.1-.1.1-.1.2-.1l1.5-.4h.1l.1.1 2.6 10.5v.2l-.1.1-1.4.4h-.2l-.1-.1-2.2-8.8h-.1l-1.4.9h-.2s0-.1-.1-.1l-.3-1c0-.1 0-.2.1-.2l1.5-1.5zm11.9 3.4c.3.4.4.9.6 1.4.1.5.2 1 .1 1.4-.1.7-.3 1.3-.8 1.9-.5.5-1.1.9-1.9 1.1-.8.2-1.5.2-2.1-.1-.7-.2-1.2-.7-1.6-1.2-.1-.2-.3-.4-.4-.7 0-.1 0-.2.1-.2l1.5-.4c.1 0 .2 0 .2.1s.1.1.1.3c.2.3.4.5.7.7.3.1.6.1 1 .1.4-.1.6-.3.9-.5.2-.3.3-.6.3-1 0-.3 0-.6-.1-.9l-.3-.9c-.2-.3-.4-.5-.7-.7-.3-.1-.6-.1-1 0s-.7.2-.9.5c-.2.2-.4.5-.4.8 0 .1-.1.2-.2.2l-1.5.4h-.2l-.1-.1-1.5-6.1v-.1c0-.1.1-.1.1-.1l6-1.5h.1l.1.1.3 1.2v.2l-.1.1-4.3 1.1c-.1 0-.1 0-.1.1l.7 2.8s0 .1.1.1h.1c.4-.5.9-.8 1.6-1 .7-.2 1.4-.1 2 .1.7-.2 1.2.2 1.6.8zm3.9-2.5c-.4.1-.9.1-1.3 0s-.8-.3-1.1-.7c-.3-.3-.5-.7-.6-1.1-.1-.4-.1-.8 0-1.3.1-.4.3-.8.7-1.1.3-.3.7-.5 1.1-.6.4-.1.8-.1 1.3 0 .4.1.8.3 1.1.6.3.3.5.7.6 1.1.1.4.1.9 0 1.3s-.3.8-.6 1.1c-.3.4-.7.6-1.2.7zm1.1 6.4h-.2v-.2l3.2-12c0-.1.1-.2.2-.2l.9-.2h.2v.2l-3.2 12c0 .1-.1.2-.2.2l-.9.2zm-1.3-7.5c.4-.1.6-.3.8-.6.2-.3.2-.6.1-1s-.3-.6-.6-.8c-.3-.2-.6-.2-1-.2-.4.1-.6.3-.8.6-.2.3-.2.6-.1 1s.3.6.6.8c.3.2.6.3 1 .2zm7.8 6c-.4.1-.9.1-1.3 0s-.8-.3-1.1-.7c-.3-.3-.5-.7-.6-1.1-.1-.4-.1-.8 0-1.3.1-.4.3-.8.7-1.1.3-.3.7-.5 1.1-.6.4-.1.8-.1 1.3 0 .4.1.8.3 1.1.6.3.3.5.7.6 1.1.1.4.1.9 0 1.3s-.3.8-.6 1.1c-.4.4-.7.6-1.2.7zm-.3-1.1c.4-.1.6-.3.8-.6.2-.3.2-.6.1-1s-.3-.6-.6-.8c-.3-.2-.6-.2-1-.1s-.6.3-.8.6c-.2.3-.2.6-.1 1s.3.6.6.8c.4.2.7.2 1 .1zm-27.7 65.5-3.5-10.7 1.5-.5 8.7 6.2-2.7-8.2 1.5-.5 3.5 10.7-1.5.5-8.7-6.3 2.7 8.2-1.5.6zm14.8-4.7c-.7.2-1.4.3-2.1.1-.7-.2-1.3-.5-1.8-1s-.9-1.1-1.2-1.9c-.3-.8-.3-1.5-.2-2.2.1-.7.4-1.3.9-1.8s1.1-.9 1.8-1.2c.7-.2 1.4-.2 2-.1.6.2 1.2.5 1.7 1.1.5.5.9 1.2 1.2 2.1l-6.1 2 .2-.3c.2.5.4 1 .8 1.3.3.3.7.5 1.2.6.4.1.9 0 1.3-.1.5-.2.9-.4 1.1-.8.3-.4.4-.7.5-1.2l1.4.2c-.1.5-.2.9-.5 1.3-.2.4-.5.8-.9 1.1-.3.4-.7.7-1.3.8zm-3.7-3.8-.4-.1 4.8-1.6-.2.3c-.1-.4-.4-.8-.6-1.1-.3-.3-.6-.4-1-.5-.4-.1-.7 0-1.1.1-.4.1-.7.3-1 .6-.3.3-.5.6-.6 1-.1.4-.1.8.1 1.3zm12.8 4.2c-.5.2-1 .3-1.4.3-.4 0-.8.1-1.2 0-.3 0-.6-.1-.7-.1l.2-1.4c.2 0 .4.1.7.1h.9c.4 0 .7-.1 1.1-.2.5-.2.9-.4 1.2-.7.3-.3.5-.7.6-1.1.1-.5 0-1-.2-1.6l-2.2-6.9 1.4-.5 2.2 6.8c.3.9.4 1.7.2 2.4-.1.7-.4 1.3-.9 1.8s-1.1.9-1.9 1.1zm-1.2-3.3c-.7.2-1.3.3-2 .1-.6-.2-1.2-.5-1.6-.9-.5-.5-.8-1.1-1.1-1.9-.3-.8-.3-1.5-.2-2.2.1-.7.4-1.3.8-1.7.4-.5 1-.9 1.7-1.1.6-.2 1.2-.2 1.8 0 .6.2 1.1.5 1.5 1 .5.5.8 1.1 1.1 1.9.2.8.3 1.5.3 2.1-.1.6-.3 1.2-.7 1.7-.5.5-1 .8-1.6 1zm0-1.3c.4-.1.8-.4 1-.7.2-.3.4-.7.4-1.2.1-.5 0-.9-.2-1.4-.2-.5-.4-.9-.7-1.2-.3-.3-.7-.5-1.1-.7-.4-.1-.8-.1-1.2 0-.4.1-.8.4-1.1.7-.3.3-.4.7-.5 1.2-.1.4 0 .9.1 1.4.2.5.4.9.7 1.3.3.3.7.5 1.1.7.6.1 1 .1 1.5-.1zm10.7-2-.5-1.3-.9-2.6c-.2-.6-.4-1-.7-1.3-.2-.3-.5-.6-.9-.7-.3-.1-.7-.1-1.1 0-.4.1-.7.3-1 .6-.2.3-.4.6-.5 1l-1.4-.1c.1-.4.2-.8.4-1.1.2-.4.4-.7.8-1 .3-.3.8-.5 1.3-.7.7-.2 1.4-.3 1.9-.2.6.1 1.1.4 1.5.9.4.5.8 1.1 1 1.9l1.3 4.1-1.2.5zm-2.2.9c-.9.3-1.7.3-2.3.1-.6-.3-1.1-.7-1.3-1.5-.3-.8-.2-1.5.2-2 .4-.6 1.1-1 2-1.3l2.1-.7.4 1.1-1.7.6c-.7.2-1.2.5-1.4.8-.2.3-.3.7-.1 1 .1.4.3.6.7.7.3.1.7.1 1.2-.1.4-.1.7-.3 1-.6.2-.3.4-.6.5-1 .1-.4 0-.8-.1-1.2l.5-.2c.3 1 .4 1.9.1 2.7-.3.8-.9 1.3-1.8 1.6zm8.4-2.7c-.8.2-1.4.2-2 0-.5-.3-.9-.8-1.2-1.5l-2.6-7.9 1.4-.5 2.5 7.7c.1.4.3.6.6.8.3.1.6.1.9 0 .1 0 .2-.1.3-.2l.4-.4.9.9c-.2.3-.4.5-.6.6-.2.3-.4.4-.6.5zm-5.8-5.4-.4-1.2 4.9-1.6.4 1.2-4.9 1.6zm8.7 4.2-2.5-7.6 1.4-.5 2.5 7.6-1.4.5zm-2.3-9.4c-.2.1-.5.1-.7-.1-.2-.1-.4-.3-.5-.5-.1-.2-.1-.5.1-.7.1-.2.3-.4.5-.5.2-.1.5-.1.7.1.2.1.4.3.5.5.1.2.1.5-.1.7 0 .2-.2.4-.5.5zm8.3 7.5.6-8.6 1.5-.5-.7 8.6-1.4.5zm-.1 0-5.6-6.6 1.5-.5 5.5 6.6-1.4.5zm9-2.7c-.7.2-1.5.3-2.1.1-.7-.2-1.3-.5-1.8-1s-.9-1.1-1.2-1.9c-.3-.8-.3-1.5-.2-2.2.1-.7.4-1.3.9-1.8s1.1-.9 1.8-1.2c.7-.2 1.4-.2 2-.1.6.2 1.2.5 1.7 1.1.5.5.9 1.2 1.2 2.1l-6.1 2 .2-.3c.2.5.4 1 .8 1.3.3.3.7.5 1.2.6.4.1.9.1 1.3-.1.5-.2.9-.4 1.1-.8.3-.4.4-.7.5-1.2l1.4.2c-.1.5-.2.9-.5 1.3-.2.4-.5.8-.9 1.1-.3.4-.8.6-1.3.8zm-3.8-3.9-.4-.1 4.8-1.6-.2.3c-.1-.4-.4-.8-.6-1.1-.3-.3-.6-.4-1-.5-.4-.1-.7 0-1.1.1-.4.1-.7.3-1 .6-.3.3-.5.6-.6 1 0 .5 0 .9.1 1.3zm15.2 1.7c-.7-.5-1.3-1-1.9-1.6-.6-.6-1.2-1.3-1.7-2s-.9-1.5-1.2-2.4c-.3-.9-.4-1.8-.5-2.6 0-.9 0-1.7.2-2.6.1-.9.4-1.7.6-2.4l1.5-.5c-.3.8-.5 1.6-.6 2.5-.1.9-.2 1.7-.2 2.6 0 .9.2 1.7.5 2.6.3.8.6 1.6 1.1 2.3.5.7 1 1.4 1.7 2 .6.6 1.3 1.2 2 1.7l-1.5.4zm6.2-3.5c-.4.1-.9.2-1.4.2-.5 0-1-.1-1.5-.2-.5-.2-.9-.4-1.3-.8l1.1-1c.5.3.9.5 1.4.6.4.1.9 0 1.3-.1.7-.2 1.1-.6 1.4-1.1.3-.5.3-1.1.1-1.8-.2-.6-.6-1.1-1.1-1.4-.5-.3-1.1-.3-1.8-.1-.4.1-.7.3-1 .6-.3.3-.5.5-.6.8l-1.5.2-1.3-5.9 5.8-1.9.4 1.4-4.5 1.4.7 3.3c.2-.3.5-.5.8-.7.3-.2.6-.4 1-.5.6-.2 1.3-.2 1.8-.1.6.1 1.1.4 1.6.8s.8.9 1 1.6c.2.7.3 1.4.1 2s-.4 1.2-.9 1.7c-.3.4-.9.8-1.6 1zm6.9-.8-1.5.5c.3-.8.5-1.6.6-2.5.1-.9.2-1.7.2-2.6 0-.9-.2-1.7-.5-2.6-.3-.8-.7-1.6-1.1-2.3-.5-.7-1-1.4-1.7-2-.6-.6-1.3-1.2-2-1.7l1.5-.5c.7.5 1.3 1 1.9 1.6.6.6 1.2 1.3 1.7 2s.9 1.5 1.2 2.4c.3.9.4 1.8.5 2.6 0 .9 0 1.8-.2 2.6-.1.9-.4 1.8-.6 2.5z" style="fill:#f57001"/><path d="m311.8 334.4-3.9-13.5 4.7-1.4c.9-.3 1.8-.3 2.6-.1.8.2 1.5.5 2.1 1.1.6.5 1 1.2 1.3 2.1.2.8.3 1.7.1 2.4-.2.8-.5 1.4-1.1 2-.5.6-1.3 1-2.1 1.2l-2.8.8 1.3 4.7-2.2.7zm.3-7.4 2.8-.8c.6-.2 1.1-.6 1.4-1.1.3-.6.3-1.2.1-1.9-.2-.7-.6-1.2-1.2-1.5-.6-.3-1.2-.4-2-.1l-2.5.7 1.4 4.7zm15 3.2c-1 .3-1.9.3-2.8.1-.9-.2-1.6-.7-2.3-1.3-.6-.6-1.1-1.4-1.4-2.4s-.3-1.9-.1-2.8c.2-.9.6-1.6 1.2-2.3.6-.6 1.4-1.1 2.4-1.4 1-.3 1.9-.3 2.7-.1.9.2 1.6.6 2.2 1.3.6.6 1.1 1.4 1.4 2.4.3 1 .3 1.9.1 2.8-.2.9-.6 1.6-1.2 2.3-.5.7-1.3 1.2-2.2 1.4zm-.6-1.9c.5-.1 1-.4 1.3-.8.3-.4.6-.8.7-1.4.1-.5.1-1.1-.1-1.7-.2-.6-.4-1.1-.8-1.5-.4-.4-.8-.7-1.3-.8-.5-.2-1-.1-1.5 0-.5.2-1 .4-1.3.8-.3.4-.6.8-.7 1.4-.1.5-.1 1.1.1 1.7.2.6.4 1.1.8 1.5.4.4.8.6 1.3.8.5.1 1 .1 1.5 0zm10.8-1c-.6.2-1.3.3-1.9.2-.6 0-1.1-.2-1.6-.4s-.9-.6-1.2-1l1.6-1.4c.3.3.7.5 1.1.7.5.1.9.1 1.4 0 .5-.1.9-.3 1.1-.6.3-.3.3-.6.3-.9-.1-.3-.3-.5-.5-.6-.3-.1-.6-.1-1.1-.1h-1c-1 0-1.8-.1-2.4-.5-.7-.4-1.1-.9-1.3-1.5-.3-1-.2-1.8.3-2.5s1.3-1.2 2.5-1.6c.6-.2 1.2-.2 1.7-.2s1 .1 1.5.4c.4.2.8.5 1.1.9l-1.6 1.3c-.2-.3-.5-.5-.9-.5-.4-.1-.8-.1-1.3.1-.4.1-.7.3-.9.6-.2.2-.2.5-.1.9.1.2.2.3.5.4.3.1.6.1 1.1.1l1.2-.1c.7 0 1.3.1 1.7.3.5.2.9.5 1.2.8.3.3.5.7.6 1.1.2.6.1 1.1-.1 1.7-.2.5-.5 1-1 1.4-.6.5-1.3.8-2 1zm5.6-1.8-2.8-9.6 2.1-.6 2.8 9.6-2.1.6zm-2.3-11.8c-.3.1-.7.1-1-.1-.3-.2-.5-.5-.6-.8s-.1-.7.1-1c.2-.3.5-.5.8-.6.3-.1.7-.1 1 .1.3.2.5.4.6.8.1.3.1.7-.1 1-.1.3-.4.5-.8.6zm10.8 9.6c-1 .3-1.9.3-2.5-.1-.7-.4-1.1-1-1.4-2l-2.8-9.9 2.1-.6 2.7 9.5c.1.4.3.8.6.9.3.2.6.2 1 .1.1 0 .3-.1.4-.2.1-.1.3-.2.4-.4l1.3 1.4c-.3.3-.6.6-.9.8-.2.2-.6.4-.9.5zm-7-6.7-.5-1.8 6.3-1.8.5 1.8-6.3 1.8zm10.8 5.3-2.8-9.6 2.1-.6 2.8 9.6-2.1.6zm-2.2-11.7c-.3.1-.7.1-1-.1-.3-.2-.5-.5-.6-.8-.1-.3-.1-.7.1-1 .2-.3.5-.5.8-.6.3-.1.7-.1 1 .1.3.2.5.4.6.8s.1.7-.1 1c-.2.3-.5.5-.8.6zm10 9.5 1-10.7 2.2-.6-1.2 10.7-2 .6zm-.2 0-6.7-8.5 2.2-.6 6.5 8.5-2 .6zm11.6-3c-.9.3-1.8.3-2.7.1-.8-.2-1.6-.7-2.2-1.3-.6-.6-1.1-1.5-1.4-2.4-.3-1-.3-1.9-.1-2.8.2-.9.6-1.6 1.2-2.3.6-.6 1.4-1.1 2.4-1.4.9-.2 1.7-.2 2.5 0s1.5.7 2.2 1.4c.6.7 1.1 1.6 1.5 2.8l-7.6 2.2.2-.4c.2.6.4 1.1.8 1.4.4.4.8.6 1.3.7.5.1 1 .1 1.5-.1.6-.2 1-.4 1.4-.8.3-.4.5-.8.6-1.3l2.1.3c-.1.6-.3 1.1-.7 1.6-.3.5-.7.9-1.2 1.3-.5.5-1.1.8-1.8 1zm-4.2-5.2-.4-.2 5.4-1.6-.2.4c-.2-.5-.4-.9-.7-1.2-.3-.3-.7-.5-1.1-.5-.4-.1-.8-.1-1.2 0-.4.1-.7.3-1.1.6-.3.3-.6.6-.7 1-.1.5-.1 1 0 1.5zm18.6 2.9c-.8-.6-1.6-1.3-2.3-2.1-.8-.8-1.4-1.6-2-2.6-.6-.9-1-2-1.3-3.1-.3-1.1-.5-2.2-.5-3.3 0-1.1.1-2.2.3-3.2.2-1.1.5-2.1.9-3l2.2-.6c-.4 1-.6 2-.9 3.1-.2 1.1-.3 2.2-.3 3.3 0 1.1.2 2.2.5 3.2.3 1.1.7 2 1.3 3 .6.9 1.2 1.8 2 2.6s1.5 1.5 2.4 2.2l-2.3.5zm3.4-3.1-.5-1.7c-.1-.4-.1-.8 0-1.3s.2-1 .5-1.6c.3-.5.6-1.1 1-1.6l1.9-2.4.6-.9c.2-.3.3-.7.4-1 .1-.4.1-.7 0-1-.1-.4-.3-.7-.6-.9-.3-.3-.6-.4-1-.5-.4-.1-.8-.1-1.3.1-.4.1-.8.3-1.1.6-.3.3-.5.6-.6.9-.1.3-.2.7-.2 1.1l-2.4.2c0-.7.1-1.3.3-1.9.3-.7.7-1.2 1.2-1.8.6-.5 1.3-.9 2.1-1.1.9-.3 1.8-.3 2.6-.2.8.1 1.5.5 2 1 .6.5.9 1.1 1.2 1.9.2.8.2 1.6 0 2.3-.2.7-.7 1.5-1.3 2.3l-1.7 2.2c-.3.4-.6.9-.8 1.3-.2.4-.2.8-.2 1.3l6.4-1.8.6 2-9.1 2.5zm16.2-4.4c-1.1.3-2.1.3-3.1-.1s-1.9-1-2.6-1.9c-.8-.9-1.3-2.1-1.7-3.4-.4-1.4-.5-2.6-.3-3.8.2-1.2.6-2.2 1.2-3 .6-.8 1.5-1.4 2.6-1.7s2.1-.3 3.1.1 1.9 1 2.6 1.9c.8.9 1.4 2 1.7 3.4.4 1.4.5 2.6.3 3.8-.2 1.2-.6 2.2-1.2 3-.6.8-1.5 1.4-2.6 1.7zm-.5-2c.6-.2 1.1-.6 1.5-1.1.4-.6.6-1.3.7-2.1.1-.8 0-1.7-.3-2.7-.3-1-.7-1.8-1.2-2.4-.5-.7-1-1.2-1.7-1.4-.6-.3-1.2-.3-1.9-.2-.6.2-1.1.6-1.5 1.1-.4.6-.6 1.3-.7 2.1-.1.8.1 1.7.3 2.7.3 1 .7 1.8 1.1 2.4.5.7 1 1.1 1.7 1.4.7.3 1.3.4 2 .2zm10.2 1.1-2.2.6c.4-1 .6-2 .9-3.1.2-1.1.3-2.2.3-3.3 0-1.1-.2-2.2-.5-3.2-.3-1.1-.7-2.1-1.3-3-.6-.9-1.2-1.8-2-2.6-.7-.8-1.5-1.5-2.4-2.2l2.2-.6c.8.6 1.6 1.3 2.3 2.1.7.8 1.4 1.6 2 2.6.6.9 1 2 1.3 3.1.3 1.1.5 2.2.5 3.3 0 1.1-.1 2.2-.3 3.3-.2 1-.5 2-.8 3z" style="fill:#00c865"/><path d="m412.5 276.8-9.3-9.2-61.1-7-47.5-43.4-20.7-4.6-11.4-19.1" style="fill:none;stroke:#c9eedb;stroke-width:2;stroke-linecap:round;stroke-linejoin:round;stroke-miterlimit:10"/><path d="m261.9 188.2-4.2-1.8-.2 4.5-.2 4.2 4.3-2.7 4.2-2.6-3.9-1.6z" style="fill:#cbf0dd;stroke:#c9eedb"/><path d="M389.2 231.9c6.2 29.1-12.4 57.8-41.6 64-29.1 6.2-57.8-12.4-64-41.6-6.2-29.2 12.4-57.8 41.6-64 29.2-6.2 57.8 12.4 64 41.6zm-63.3 13.4c1.2 5.8 7 9.6 12.8 8.3 5.8-1.2 9.6-7 8.3-12.8-1.2-5.8-7-9.6-12.8-8.3-5.8 1.3-9.5 7-8.3 12.8z" style="fill:#cbf0dd"/><path d="M325.9 191.4c-.2-.8.3-1.5 1.1-1.7 10.9-2 22.2-.6 32.3 4 10.5 4.8 19.2 12.9 24.8 23s7.8 21.8 6.2 33.3c-1.6 11.5-6.8 22.1-14.9 30.4-8.1 8.3-18.6 13.8-30.1 15.6-11.4 1.8-23.2-.1-33.4-5.4-10.3-5.3-18.6-13.9-23.6-24.3-4.9-10-6.5-21.2-4.8-32.2.1-.8 2.3-13.6 8.9-22.1l32.4 28.4c.8.1 1.3.9 1.2 1.7-.1 1.8.3 3.7 1.1 5.3 1 2.1 2.7 3.8 4.7 4.9 2.1 1.1 4.4 1.4 6.7 1.1 2.3-.4 4.4-1.5 6-3.1 1.6-1.7 2.7-3.8 3-6.1.3-2.3-.1-4.6-1.2-6.7-1.1-2-2.9-3.6-5-4.6-1.7-.8-3.5-1.1-5.3-.9-.8.1-1.5-.4-1.7-1.2l-8.4-39.4z" style="fill:#1bd679"/><circle transform="rotate(-12 336.442 243.066)" class="st0" cx="336.4" cy="243.1" r="29"/><path d="M330.6 247.6c.4.5.8 1.1 1 1.8.2.8.3 1.5.1 2.2-.2.7-.5 1.3-1.1 1.8-.5.5-1.2.9-2.1 1.2-.9.2-1.7.3-2.4.2-.8-.2-1.4-.5-1.9-1.1-.5-.5-.9-1.1-1.1-1.9-.2-.7-.2-1.4-.1-2.1.1-.6.4-1.1.8-1.5.1-.1 0-.1 0-.1-.4-.1-.8-.4-1.1-.7-.5-.4-.8-1-1-1.6-.2-.8-.2-1.6.1-2.4.2-.6.6-1.1 1.1-1.6.5-.5 1.1-.8 1.9-1 .8-.2 1.5-.3 2.1-.1.7.1 1.2.4 1.7.8.6.5 1.1 1.2 1.3 2 .2.7.2 1.4 0 2-.1.4-.3.8-.6 1.1v.1c.4.1.9.4 1.3.9zm-6.9-3.4c-.1.4-.1.7 0 1 .1.4.3.8.7 1.1.5.4 1 .6 1.8.3.7-.2 1.1-.6 1.3-1.3.1-.3.1-.8 0-1.3-.1-.3-.2-.6-.5-.8-.3-.2-.5-.4-.9-.5-.3-.1-.7-.1-1.1 0-.4.1-.7.3-.9.5-.2.4-.3.7-.4 1zm5.6 7.3c.2-.4.2-1 0-1.6-.2-.6-.4-1-.7-1.3-.5-.5-1.1-.6-1.9-.4-.8.2-1.2.7-1.4 1.3-.1.4-.1.9.1 1.5s.4 1 .8 1.3c.5.5 1.1.6 1.9.4.6-.1 1-.6 1.2-1.2zm11.7-7.1c.3.5.6 1.1.8 1.7.2.6.3 1.2.2 1.8 0 .9-.3 1.7-.9 2.4-.6.7-1.4 1.2-2.3 1.4-.9.3-1.8.3-2.7 0-.8-.3-1.5-.8-2-1.5-.2-.3-.4-.5-.5-.9 0-.1 0-.2.2-.3l1.8-.5c.1 0 .2 0 .3.1 0 .1.1.2.2.3.3.4.6.6 1 .8.4.1.8.2 1.2 0 .4-.1.8-.4 1-.7.2-.3.4-.8.4-1.2 0-.3 0-.7-.1-1.1-.1-.4-.3-.7-.5-1.1-.2-.4-.5-.7-.9-.8-.4-.1-.8-.1-1.3 0-.4.1-.8.3-1.1.6-.3.3-.4.6-.5 1 0 .1-.1.2-.2.3l-1.9.5h-.2c-.1 0-.1-.1-.1-.2l-2.2-7.6v-.2c0-.1.1-.1.2-.1l7.5-2.1h.2c.1 0 .1.1.1.1l.4 1.5v.2l-.1.1-5.4 1.5c-.1 0-.1.1-.1.1l1 3.5c0 .1 0 .1.1.1l.1-.1c.5-.6 1.1-1.1 2-1.3.9-.3 1.7-.2 2.5 0 .7.5 1.4 1 1.8 1.7zm4.9-3.3c-.5.2-1.1.2-1.6 0-.5-.1-1-.4-1.4-.8-.4-.4-.7-.8-.8-1.4-.2-.5-.2-1.1 0-1.6.1-.5.4-1 .8-1.4.4-.4.8-.7 1.4-.8.5-.1 1.1-.2 1.6 0 .5.1 1 .4 1.4.7.4.4.7.8.8 1.3.2.5.2 1.1 0 1.6-.1.5-.4 1-.7 1.4-.5.6-1 .9-1.5 1zm1.6 8h-.2s-.1-.1 0-.2l3.5-15.1c0-.1.1-.2.2-.2l1.1-.3h.2s.1.1 0 .2l-3.5 15.1c0 .1-.1.2-.2.2l-1.1.3zm-2-9.3c.4-.1.8-.4 1-.8.2-.4.3-.8.1-1.3-.1-.4-.4-.8-.8-1-.4-.2-.8-.3-1.2-.1-.4.1-.8.4-1 .8-.2.4-.3.8-.1 1.2.1.4.4.8.8 1 .3.3.8.3 1.2.2zm10.1 7.1c-.5.2-1.1.2-1.6 0-.5-.1-1-.4-1.4-.8-.4-.4-.7-.8-.8-1.4-.2-.5-.2-1 0-1.6.1-.5.4-1 .8-1.4.4-.4.8-.7 1.4-.8.5-.2 1.1-.2 1.6 0 .5.1 1 .4 1.4.7.4.4.7.8.8 1.3.2.5.2 1.1 0 1.6-.1.5-.4 1-.7 1.4-.5.6-1 .9-1.5 1zm-.4-1.3c.4-.1.8-.4 1-.8.2-.4.3-.8.1-1.3-.1-.4-.4-.8-.8-1-.4-.2-.8-.3-1.2-.1-.4.1-.8.4-1 .8-.2.4-.3.8-.1 1.2.1.4.4.8.8 1 .3.3.7.3 1.2.2z" style="opacity:.8;fill:#02a454;enable-background:new"/><defs><path id="SVGID_1_" transform="rotate(-71.01 541.042 193.467)" d="M529.1 181.5h24v24h-24z"/></defs><clipPath id="SVGID_00000000923608017330439130000011096235948288009144_"><use xlink:href="#SVGID_1_" style="overflow:visible"/></clipPath><g style="clip-path:url(#SVGID_00000000923608017330439130000011096235948288009144_)"><path d="m548.9 187.7-13.1-4.5c-.9-.3-1.9.3-2.3 1.3l-3.9 11.3c-.4 1 .1 2.1 1 2.5l13.1 4.5c.9.3 1.9-.3 2.3-1.3l3.9-11.3c.3-1.1-.1-2.2-1-2.5zm-12.7-.1h0m3.2 1.1h0m3.3 1.1h0" style="fill:none;stroke:#e7edfb;stroke-width:2;stroke-linecap:round;stroke-linejoin:round"/></g><defs><path id="SVGID_00000086686381314024051600000009997734683548194460_" transform="rotate(-74.003 415.525 331.963)" d="M406.1 322.5h19v19h-19z"/></defs><clipPath id="SVGID_00000127748533400595880120000005531167164622140818_"><use xlink:href="#SVGID_00000086686381314024051600000009997734683548194460_" style="overflow:visible"/></clipPath><path class="st15" d="M419 338.2c.8-.5 1.5-1.1 2.1-1.8.6-.7 1-1.6 1.3-2.5.3-.9.3-1.8.2-2.8-.1-.9-.4-1.8-.8-2.6l1.4-.8c2.3 4.2.8 9.5-3.4 11.8l-.8-1.3zm-6.9-12.5c-.8.5-1.5 1.1-2.1 1.8-.6.7-1 1.6-1.3 2.5-.3.9-.3 1.8-.2 2.8.1.9.4 1.8.8 2.6l-1.4.8c-2.3-4.2-.8-9.5 3.4-11.8l.8 1.3zm5.4 9.7c.5-.3.9-.6 1.2-1 .3-.4.6-.9.7-1.4.1-.5.2-1 .1-1.5s-.2-1-.5-1.5l1.4-.8c.4.6.6 1.3.7 2.1.1.7 0 1.5-.2 2.2-.2.7-.5 1.4-1 1.9-.5.6-1 1-1.6 1.4l-.8-1.4zm-3.9-6.9c-.5.3-.9.6-1.2 1-.3.4-.6.9-.7 1.4-.1.5-.2 1-.1 1.5s.2 1 .5 1.5l-1.4.8c-.4-.6-.6-1.3-.7-2.1-.1-.7 0-1.5.2-2.2.2-.7.5-1.4 1-1.9.5-.6 1-1 1.6-1.4l.8 1.4zm1.5 5c.4.1.8.1 1.2-.1.4-.2.6-.5.8-.9.1-.4.1-.8-.1-1.2-.2-.4-.5-.6-.9-.8-.4-.1-.8-.1-1.2.1-.4.2-.6.5-.8.9-.1.4-.1.8.1 1.2.2.4.5.7.9.8z" style="clip-path:url(#SVGID_00000127748533400595880120000005531167164622140818_)"/><path class="st16" d="M497.6 271.1c.3 0 .5.1.8.2.2.1.5.2.6.4l.1.1 2.9 3.7c.7.9.1 2.2-1 2.3h-1v7.7c0 .2-.1.5-.3.7-.2.2-.4.3-.6.3-.2 0-.5-.1-.7-.2-.2-.2-.3-.4-.3-.6v-7.8h-1.9v6.7c0 .5-.2.9-.5 1.3s-.8.6-1.3.6h-7.8c-.5 0-.9-.2-1.3-.5s-.6-.8-.6-1.3v-6.8h-.9c-1.2 0-1.8-1.3-1.2-2.2l.1-.1 2.9-3.7c.2-.2.4-.4.6-.5.2-.1.5-.2.7-.2h10.7zm-10.1 6.7h-1v6.7h7.7v-6.7h-1v3.8c0 .3-.1.5-.3.7-.2.2-.4.3-.7.3h-3.8c-.3 0-.5-.1-.7-.3-.2-.2-.3-.4-.3-.7v-3.8zm3.8 0h-1.9v2.9h1.9v-2.9zm6.3-4.8H487l-2.3 2.9h15.2l-2.3-2.9z"/><defs><path id="SVGID_00000093875754613779157660000011150922344328673410_" transform="rotate(-12 565.072 272.47)" d="M553 260.5h24v24h-24z"/></defs><clipPath id="SVGID_00000006698221628695230380000008237081010497467062_"><use xlink:href="#SVGID_00000093875754613779157660000011150922344328673410_" style="overflow:visible"/></clipPath><path class="st15" d="m555.6 266.3 3.9-.8.4 2-3.9.8-.4-2zm14.8 12.2 3.9-.8.4 2-3.9.8-.4-2zm-15.8-6.9 4.9-1 .4 2-4.9 1-.4-2zm6.9-1.5 2.9-.6.4 2-2.9.6-.4-2zm4.9-1 5.9-1.2.4 2-5.9 1.2-.4-2zm-8.8 7 5.9-1.2.4 2-5.9 1.1-.4-1.9zm7.9-1.7 2.9-.6.4 2-2.9.6-.4-2zm4.8-1 4.9-1 .4 2-4.9 1-.4-2zm-8.9-8.4 11.7-2.5.4 2-11.7 2.5-.4-2zm-4.7 16.4 11.7-2.5.4 2-11.7 2.5-.4-2z" style="clip-path:url(#SVGID_00000006698221628695230380000008237081010497467062_)"/><defs><path id="SVGID_00000183224855208180132390000013992042067616238499_" transform="rotate(-65.669 227.03 170.45)" d="M215 158.5h24v24h-24z"/></defs><clipPath id="SVGID_00000042010246055003843530000017984628145951683765_"><use xlink:href="#SVGID_00000183224855208180132390000013992042067616238499_" style="overflow:visible"/></clipPath><path class="st15" d="m223 159.9 3.6 1.6-.8 1.8-3.6-1.6.8-1.8zm4.8 18.6 3.6 1.6-.8 1.8-3.6-1.6.8-1.8zm-8.6-14.9 4.6 2.1-.8 1.8-4.6-2.1.8-1.8zm6.3 2.9 2.7 1.2-.8 1.8-2.7-1.2.8-1.8zm4.6 2 5.5 2.5-.8 1.8-5.5-2.5.8-1.8zm-11.2.5 5.5 2.5-.8 1.8-5.5-2.5.8-1.8zm7.3 3.3 2.7 1.2-.8 1.8-2.7-1.2.8-1.8zm4.6 2 4.6 2.1-.8 1.8-4.6-2.1.8-1.8zm-2.3-12 10.9 4.9-.8 1.8-10.9-4.9.8-1.8zM215 172.7l10.9 4.9-.8 1.8-10.9-4.9.8-1.8z" style="clip-path:url(#SVGID_00000042010246055003843530000017984628145951683765_)"/><defs><path id="SVGID_00000141430760383309179120000000476706996210770088_" transform="rotate(-70.027 396.164 186.59)" d="M384.2 174.6h24v24h-24z"/></defs><clipPath id="SVGID_00000069386878071350055280000007975258304887545754_"><use xlink:href="#SVGID_00000141430760383309179120000000476706996210770088_" style="overflow:visible"/></clipPath><path class="st16" d="M402.4 178.2c.3.1.6.3.8.6.2.3.4.6.4.9l1.2.4c.5.2.9.6 1.1 1 .2.5.2 1 .1 1.5l-4 11.4c-.5 1.2-1.4 2.3-2.6 2.8-1.2.6-2.6.6-3.8.2l-8.5-3.1c-.5-.2-.9-.6-1.1-1-.2-.5-.2-1-.1-1.5l5.1-14.1c.2-.5.6-.9 1-1.1.5-.2 1-.2 1.5-.1l1.2.4c.3-.2.6-.4.9-.4.3-.1.7 0 1 .1l5.8 2zm-8.5.1-.9-.3-5.1 14.1 8.5 3.1c.7.3 1.6.2 2.3-.1.7-.3 1.3-.9 1.6-1.7l4.1-11.3-.9-.3c-.2.5-.6.9-1 1.1-.5.2-1 .2-1.5.1l-5.6-2c-.5-.2-.9-.6-1.1-1-.6-.6-.6-1.2-.4-1.7zm7.2 7.3c.1.2.1.5 0 .8-.1.2-.3.5-.5.6l-6.3 3c-.2.1-.5.1-.8 0-.2-.1-.5-.3-.6-.5l-1.3-2.7c-.1-.2-.1-.5 0-.8.1-.2.3-.4.5-.5.2-.1.5-.1.7 0 .2.1.4.3.6.5l.8 1.8 5.4-2.5c.2-.1.5-.1.8 0 .3-.1.6 0 .7.3zm.6-5.5-5.6-2-.3.9 5.6 2 .3-.9z" style="clip-path:url(#SVGID_00000069386878071350055280000007975258304887545754_)"/><defs><path id="SVGID_00000070837109125695905680000002482146730360023223_" d="M335.8 340.2h24v18h-24z"/></defs><clipPath id="SVGID_00000123441363182891425360000009397322286298745774_"><use xlink:href="#SVGID_00000070837109125695905680000002482146730360023223_" style="overflow:visible"/></clipPath><path class="st15" d="M354.8 344.1c.4.3.8.4 1.3.5l-3.5 6.2c-.4-.2-.9-.4-1.4-.5l3.6-6.2zm-5.3 6.5c-.5.2-.9.4-1.2.7L346 349c.5-.2.9-.4 1.2-.7l2.3 2.3zm-5.3-1.4L341 354c-.1.1-.2.2-.4.3h-.6c-.2-.1-.3-.2-.4-.3-.1-.1 0-.3 0-.4l3.2-4.8c.4.1.9.3 1.4.4zm-6.9 7.9h20.2c.2 0 .4.1.5.2.1.1.2.2.2.4 0 .1-.1.3-.2.4-.1.1-.3.2-.5.2h-21c-.2 0-.4-.1-.5-.2-.1-.1-.2-.2-.2-.4v-15.8c0-.1.1-.3.2-.4.1-.1.3-.2.5-.2s.4.1.5.2c.1.1.2.2.2.4v15.2zm7.5-9c-.4 0-.8-.1-1.1-.3-.3-.2-.4-.5-.4-.8s.2-.6.4-.8c.3-.2.7-.3 1.1-.3s.8.1 1.1.3c.3.2.4.5.4.8s-.2.6-.4.8c-.3.2-.7.3-1.1.3zm6 5.6c-.4 0-.8-.1-1.1-.3-.3-.2-.4-.5-.4-.8s.2-.6.4-.8c.3-.2.7-.3 1.1-.3s.8.1 1.1.3c.3.2.4.5.4.8s-.2.6-.4.8c-.3.2-.7.3-1.1.3zm6-10.1c-.4 0-.8-.1-1.1-.3-.3-.2-.4-.5-.4-.8s.2-.6.4-.8c.3-.2.7-.3 1.1-.3s.8.1 1.1.3c.3.2.4.5.4.8s-.2.6-.4.8c-.3.2-.7.3-1.1.3z" style="clip-path:url(#SVGID_00000123441363182891425360000009397322286298745774_)"/><path d="M582.7 371.6c-10.7 21.6-57 40.1-102.9 20.2-26.4-11.5-36.4-39.1-37-51.9-.4-10 7.1-20.8 11.6-25.4 9.6-9.8 60.9-22 72.6-21.3 16.5-.5 26.9 13.9 39.9 14.6 9.3.5 37 21.1 15.8 63.8z" style="fill-rule:evenodd;clip-rule:evenodd;fill:#a9bff8"/><path d="M479.3 318.7c2.8-1.4 6.2-1.6 9.2-.7.8-1.4 1.9-2.7 3.2-3.6.3-.2.6-.3.9-.1-.1 1.5-.2 3-.1 4.5.1 1.2.2 2.3.3 3.5 0 3.4-1.3 6.6-3.1 9.4 4.3 2.9 7.5 7.3 9 12.3-.6.3-16.5.9-25.1.2-.2.1-.4-.2-.4-.4-.2-2.4-.4-4.9.1-7.3.5-2.4 1.7-4.7 3.7-6.1-1.8-4-1.1-8.9-3.4-12.7-.1-.2-.2-.6 0-.7h.3c1.6.3 3.1 1 4.3 2 .3.1.8-.1 1.1-.3zm61 25s1.6-2.5 2.6-3.6c.9-1 1.5-2.4 1.5-3.8-3.2-.1-6.4-.7-9.4-1.6-.5-.1-.9-.3-1.3-.6-.8-.8-.6-2.1-.2-3.2.5-1.3 1.3-2.5 2.2-3.5.3-.3.7-.7.9-1.1.2-.4.3-1 0-1.3-.5-.6-.6-1.5-.6-2.3 0-.8-.1-1.6-.4-2.3-.4-.7-1.2-1.3-1.9-1-.2-.3.2-.6.5-.7 1.2-.4 2.6 0 3.6.7 1.1.7 1.9 1.7 2.6 2.8.3.4.7.9 1.2.7 3-1.6 6.7-1.8 9.9-.6.4.2 1.1.2 1.2-.2.4-2.3 2.4-4.3 4.7-4.7-.9.6-1 2-.8 3.1.2 1.1.5 2.3 0 3.3-.4.8.6 1.6 1.3 2.1 1.1.8 2.1 1.7 3 2.8.8 1.1 1.5 2.4 1.1 3.7-.5 1.7-2.5 2.4-4.2 2.8-1.7.4-3.3.8-5 1.2 0 1.6.5 3.3 1.6 4.5.8 1 2.1 2 1.8 3.3.5.5-4.8.5-15.9-.5zm4 22c.6.4 1.2.8 1.9.6 1.5-.4 3.1-.3 4.6.3.6.2 1.2-.4 1.6-.9 1.1-1.5 2.6-2.8 4.3-3.7 1.2 1.9 0 4.5 1 6.5 1.6 3.1 1.1 7-1 9.7 2.3 2.2 3.8 5.1 4.3 8.3-.3.1-14 1.8-21.6-.3-.1-2.2.7-4.4 2.2-6.1-2.2-2.5-3.2-6-2.8-9.3 0-.3.1-.7-.1-1-.8-1.6-1.4-3.4-1.6-5.2v-.3c.1-.1.2-.2.4-.2 2.3-.3 4.8.3 6.8 1.6zm-65.5 20.9c.3-1.6.6-3.3.8-4.9.1-.4.1-1-.4-1.1-1.3-.4-2.4-1.4-2.9-2.7-.2-.4-.7-.5-1.1-.4-.4.1-.7.4-1 .7.2-.7.8-1.2 1.5-1.3.2-.4-.1-1-.6-1.1-.5-.1-.9.1-1.3.4 0-.4.5-.7.9-.8.4-.2.8-.7.5-1-.1-.1-.4-.1-.6-.1-.6.1-1.1.2-1.7.2.1-.4.6-.6 1.1-.6.4 0 1-.3 1-.7-.2-1.7.2-3.5.9-5 .6-1.3-1.1-2.6-1-4 0-.1 0-.2.1-.3.1-.1.3 0 .4 0 .9.3 1.7.7 2.3 1.4.3.3.8.1 1.2-.1 1.5-.7 3.2-.7 4.8-.2 1.4.5 2.6-1.9 4-1.4-.4 1.2-.7 2.3-1.1 3.5-.1.3-.2.7 0 1 .6 1 1 2 1 3.2.1.8.2 1.9 1 1.9-.3.2-.7.3-.8.7-.1.4.3.8.6.6.3-.2.7 0 .8.3-.5 0-.9 0-1.3.3s-.5.9-.2 1.2c.7-.3 1.4-.2 2.1.1-.4.3-.9.2-1.4.2-.5 0-1 .1-1.2.5-.6 1.5-1.9 2.6-3.4 2.9-.8.1-.9 1.2-.8 1.9.1 1.6.3 3.2.4 4.8-.2.1-3.3.5-4.6-.1z" style="fill:#fff;fill-rule:evenodd;clip-rule:evenodd"/><path class="st23" d="M537.4 364c2.4-.2 4.9.4 7 1.7.6.4 1.2.8 1.9.6 1.5-.4 3.1-.3 4.6.3.6.2 1.2-.4 1.6-.9 1.1-1.5 2.6-2.8 4.3-3.7 1.2 1.9 0 4.5 1 6.5 1.6 3.1 1.1 7-1 9.7 2.3 2.2 3.8 5.1 4.3 8.3-.3.1-.4-.3-.5-.5-.6-2.4-1.7-4.7-3.3-6.7-.4-.5-1-.9-1.5-.6-3.9 2.5-8.9 3.2-13.4 2-.7-.2-1.3.7-1.5 1.4-.4 1.4-.9 2.7-1.3 4.1-.1-2.2.7-4.4 2.2-6.1-2.2-2.5-3.2-6-2.8-9.3 0-.3.1-.7-.1-1-.8-1.6-1.4-3.4-1.6-5.2v-.3c-.3-.3-.1-.3.1-.3zm9.8 4.4c-.9.8-1.6 1.7-2.1 2.8-.3-1-.1-2.1.4-3-.8.3-1.5.7-2.1 1.3 0-.8.4-1.7 1.1-2.1h-.9c.3-.4.7-.7 1.2-.8-2.2-1.5-4.9-2.3-7.5-2.1.5 2.8 1.6 5.4 3.2 7.7-.7-.3-1.3-.9-1.6-1.6-.3 2.9.4 5.8 2 8.2.3.4.6.9 1.1 1.2.7.5 1.6.7 2.5.8 3.5.3 7.1-.4 10.3-2.1.6-.3 1.2-.7 1.7-1.2.6-.6 1-1.5 1.3-2.3.7-2.3.4-4.8-.8-6.9-.2.6-.4 1.3-.6 1.9-.1.3-.5.5-.6.3 1-2.5 1.3-5.3.6-7.9-2.4 1.6-4.4 3.8-5.8 6.3-.1-.6.1-1.2.4-1.7-1.5 1.2-2.8 2.6-3.9 4.2-.1-1.2-.1-2.1.1-3zm-6.9-24.7c.1-1.5 1.6-2.5 2.6-3.6.9-1 1.5-2.4 1.5-3.8-3.2-.1-6.4-.7-9.4-1.6-.5-.1-.9-.3-1.3-.6-.8-.8-.6-2.1-.2-3.2.5-1.3 1.3-2.5 2.2-3.5.3-.3.7-.7.9-1.1.2-.4.3-1 0-1.3-.5-.6-.6-1.5-.6-2.3 0-.8-.1-1.6-.4-2.3-.4-.7-1.2-1.3-1.9-1-.2-.3.2-.6.5-.7 1.2-.4 2.6 0 3.6.7 1.1.7 1.9 1.7 2.6 2.8.3.4.7.9 1.2.7 3-1.6 6.7-1.8 9.9-.6.4.2 1.1.2 1.2-.2.4-2.3 2.4-4.3 4.7-4.7-.9.6-1 2-.8 3.1.2 1.1.5 2.3 0 3.3-.4.8.6 1.6 1.3 2.1 1.1.8 2.1 1.7 3 2.8.8 1.1 1.5 2.4 1.1 3.7-.5 1.7-2.5 2.4-4.2 2.8-1.7.4-3.3.8-5 1.2 0 1.6.5 3.3 1.6 4.5.8 1 2.1 2 1.8 3.3-.6-1.4-1.6-2.4-2.5-3.6-.9-1.2-1.5-2.7-1.1-4.1-.8-.3-1.6.3-2.1.8-.6.6-1.2 1.2-2 1.3-1.3.1-2.2-1.5-3.5-1.8 0 .9-.3 1.7-.7 2.5-.4.8-1 1.5-1.7 2.2-.8.5-1.5 1.3-2.3 2.2zm1.3-20.6c-.8.4.4 1.9-.3 2.5-.4-2-1.4-3.9-3-5.3-1-.9-2.3-1.6-3.6-1.3.8.3 1.2 1.1 1.4 1.9.2.8.2 1.6.3 2.4.2 1.4 1 2.8 2 3.8-.5 0-.9-.3-1.1-.7-1.5 1.3-2.6 3-3.4 4.8-.3.7-.6 1.6-.2 2.2.3.6 1 .8 1.6 1 2.2.7 4.6 1.2 6.9 1.3 1.4.1 2.9.1 4.1 1 .4.3.7.7 1.2 1 .4.3 1.1.3 1.4-.1 1.4-1.5 3.4-2 5.4-2.4 2-.4 4-.6 5.7-1.6.6-.4 1.3-.9 1.5-1.6.3-1-.2-2-.8-2.8-1.2-1.7-2.8-3.1-4.6-4.1-.1.3-.3.6-.5.8-.1-.4.1-.7.2-1 .8-2.1.4-4.4.1-6.6-2.3 1.3-3.5 4.4-2.8 6.9-.4.1-.7-.5-.6-1 0-.5.1-1-.3-1.2-3.4-1.6-7.4-1.5-10.6.1zM479.9 371c.2.4.3.9.1 1.3-.1.2-.4.2-.6 0-.2-.2-.2-.4-.3-.7 0-.2-.1-.4 0-.7.1-.2.3-.4.5-.3.1.2.2.3.3.4z"/><path class="st23" d="M483.5 386.6c-.7-1.9-1-4-.7-6-.7.8-2 .9-2.8.3.2 2-.2 4-1.2 5.7.3-1.6.6-3.3.8-4.9.1-.4.1-1-.4-1.1-1.3-.4-2.4-1.4-2.9-2.7-.2-.4-.7-.5-1.1-.4-.4.1-.7.4-1 .7.2-.7.8-1.2 1.5-1.3.2-.4-.1-1-.6-1.1-.5-.1-.9.1-1.3.4 0-.4.5-.7.9-.8.4-.2.8-.7.5-1-.1-.1-.4-.1-.6-.1-.6.1-1.1.2-1.7.2.1-.4.6-.6 1.1-.6.4 0 1-.3 1-.7-.2-1.7.2-3.5.9-5 .6-1.3-1.1-2.6-1-4 0-.1 0-.2.1-.3.1-.1.3 0 .4 0 .9.3 1.7.7 2.3 1.4.3.3.8.1 1.2-.1 1.5-.7 3.2-.7 4.8-.2 1.4.5 2.6-1.9 4-1.4-.4 1.2-.7 2.3-1.1 3.5-.1.3-.2.7 0 1 .6 1 1 2 1 3.2.1.8.2 1.9 1 1.9-.3.2-.7.3-.8.7-.1.4.3.8.6.6.3-.2.7 0 .8.3-.5 0-.9 0-1.3.3s-.5.9-.2 1.2c.7-.3 1.4-.2 2.1.1-.4.3-.9.2-1.4.2-.5 0-1 .1-1.2.5-.6 1.5-1.9 2.6-3.4 2.9-.8.1-.9 1.2-.8 1.9.2 1.5.4 3.1.5 4.7zm.6-11.6c-.2.2-.7.5-.8.2 1-1.1 2.5-1.9 4-2.1.3 0 .4-.5.4-.8-.1-1.5-.5-3-1.3-4.4-.1.3-.5.4-.7.4.9-1.3 1.4-2.8 1.6-4.3-1.4.6-2.6 1.5-3.5 2.7-.1-.5.1-1 .5-1.2-1.8-.7-3.9-.6-5.6.3 0 .3.1.6.1.8-.9-1-2-1.9-3.2-2.4.4 1.5 1 3 1.7 4.3-.3.1-.7-.2-.7-.5-.7 1.5-1.1 3.1-1.1 4.8 0 .5.2 1.1.6 1.1 1.3-.1 2.6.3 3.5 1.2-.9-.3-1.7-.5-2.6-.8-.4-.1-.8-.2-1.1 0-.3.2-.3.9.1.9 1-.3 2.2-.1 3 .5-1-.2-2.1-.2-3.1 0-.3.6.6 1.1 1.3 1.1.7 0 1.5-.1 1.8.5-.8 0-1.6-.1-2.4-.1.2 1.4 1.5 2.7 2.9 2.9.3 0 .5.3.7.5.8.8 2.4.2 2.6-.8 1.9-.1 3.7-1.3 4.4-3.1-1 .1-1.9.3-2.9.4.2-.4.8-.6 1.2-.6.5 0 1 0 1.4-.3.4-.2.7-.8.4-1.2-1.2.4-2.4.8-3.6 1.3.4-.6 1-1 1.7-1.2.5-.1 1-.1 1.5-.3.5-.2.9-.7.7-1.1-1.2-.1-2.5.4-3.5 1.3z"/><path class="st23" d="M482.9 370.1c-.2 0-.4 0-.4-.2.4-.4 1.2-.3 1.5.2h-1.1zm-.6 8.3c.1.2.1.4 0 .5-.1.2-.3.2-.5.3-.3.1-.6.1-.8-.1-.3-.3-.2-.9.2-1 .4-.2.8-.1 1.1.3zm-1.1 0c-.1.2.1.4.3.4.2 0 .4-.1.5-.3-.2-.1-.5-.2-.8-.1zm2.1-6.1c-.2.1-.6-.1-.7-.3-.1-.3 0-.5 0-.8 0-.2.1-.3.2-.4.2-.1.4 0 .5.2.1.2.1.4.1.6.2.2.2.6-.1.7z"/><path class="st23" d="M478.9 378.4c.7.1 1.5-.3 1.9-.9.4-.6.4-1.5 0-2.1-.2-.3-.5-.8-.3-1.1.1-.2.3-.2.5-.2s.5 0 .6.1c.2.1.3.4.2.6-.4.7-.4 1.8.2 2.4s1.5 1 2.3.7c.2 0 .4 0 .4.1 0 0 0 .1-.1.1-.5.5-1.3.4-1.9.1-.6-.3-1-.7-1.4-1.2-.3.5-.6 1-1.1 1.4-.5.4-1.1.6-1.6.4-.1-.1-.3-.2-.2-.4.3-.1.4 0 .5 0zm1.3-8.5c0 .1-.1.2-.2.2-.2 0-.5.1-.7.1-.2 0-.4 0-.4-.2.3-.4.8-.5 1.3-.1 0-.1 0-.1 0 0zm62.4 12.9c0-.4 0-1 .3-1.2.3-.2.7-.2 1.1-.1l1.8.3c.5.1 1 .2 1.4 0 .4-.2.8 0 1.1 0 .3 0 .6-.1.9-.2.9-.3 1.8-.6 2.7-1 .2-.1.4-.1.5-.1.2.1.3.4.3.7 0 .3 0 .6.1.9 0 .4.1.8-.1 1.1s-.5.6-.9.5c-.9-.2-1.9-.4-2.8-.5-.2 0-.4 0-.5.2-.1.4-.7.4-1.2.3-1-.2-2.1.1-2.9.7-.2.2-.4.4-.7.5-.3.1-.6.1-.8-.1-.1-.1-.2-.3-.2-.5 0-.5 0-1-.1-1.5zm4.6-.3c-1.2-.2-2.5-.4-3.7-.6-.2 0-.4.1-.4.3-.1.2 0 .4 0 .6.1.4.1.9.2 1.3 0 .1.1.3.2.4.1.1.3.1.4.1.7-.5 1.5-.9 2.3-1.1.3-.1.5-.1.7-.2.1-.3.3-.6.3-.8zm3.4-1c-.7.2-1.3.4-1.8.9-.1.2-.2.5 0 .5 1 0 2.1.1 3 .5.2.1.4-.1.5-.3.1-.2.1-.4.1-.6v-1.2c0-.1 0-.1-.1-.2h-.1c-.4.1-1 .3-1.6.4zm-3.1 1.6c0 .1.1.2.1.3.2.2.5 0 .6-.2s.1-.5.1-.7c0-.3-.5-.4-.7-.2s-.2.5-.1.8zm7.2-7.9c-.5-.1-1.1 0-1.6.2-.1.1-.3-.1-.2-.3.1-.1.2-.2.3-.2.8-.3 1.7-.4 2.3.2-.2.2-.5.1-.8.1zm-5.9 2.9c0 .4-.4.8-.8.8-.4.1-.8 0-1.2-.2-.3-.1-.5-.6-.3-.9.2-.3.6-.5.9-.5.3 0 .6 0 .9.1.3.1.5.4.5.7zm-1.9.1c0 .1.2.2.3.2.2.1.5.1.7.1.2 0 .5-.2.5-.4-.4-.4-1-.4-1.4-.1 0 0-.1.1-.1.2zm-4.3-2.3h-2.2c-.2 0-.4-.1-.3-.2.8-.3 1.6-.4 2.4-.1.1.1.3.2.1.3zm8-2.7c0-.3.1-.6.4-.7.2-.1.5 0 .6.3.1.2.2.5.2.7-.3 0-.7.1-1 .1-.2 0-.3-.2-.2-.4zm2.8 3.1c-.1 0-.2 0-.3-.1-.1 0-.1-.1-.1-.2.7-.3 1.7 0 2.1.6-.6-.1-1.1-.2-1.7-.3zm-1.5-4.5c.2-.3.7-.2.9.1.3.2.5.5.7.7 0 .2-.3.1-.4 0-.4-.3-.8-.5-1.2-.8zm-10.2 4.9.9-.3c.1 0 .2-.1.4-.1.1 0 .2.2.2.3l-1.8.6c-.1-.1-.1-.2 0-.3 0-.1.1-.1.3-.2zm2.4-3.7c.1.1.2.2.2.3.1.2.1.4.1.5 0 .2-.2.3-.4.3-.2-.1-.4.2-.6.1-.1 0-.1-.2-.1-.3 0-.3 0-.5.1-.8.2-.1.5-.3.7-.1zm-2.2-.2c.3-.7 1.1-1.1 1.8-1 .1 0 .2.1.2.2l-.1.1c-.7.3-1.3.5-1.9.7zm3.6 3.5c-.2 0-.4 0-.4-.1.1-.1.2-.2.4-.1.1-.1.1.1 0 .2zm3.1-.3c.2 0 .2-.3.1-.4-.1-.1-.3-.1-.4.1 0 .2.1.4.3.3z"/><path class="st23" d="M545 377.1c-.2 0-.5-.2-.4-.4.2-.1.6 0 .8 0 .3 0 .7-.1.6-.4 0 .1.1.2.1.4.3-.1.6-.2.8-.4.1-.1.2-.3.1-.4-.3-.3 0-.9.4-.8.4 0 .6.6.3.9-.1.1 0 .2.1.3.6.4 1.3.6 2 .4.3-.1.7-.2.9 0-1 .7-2.5.6-3.3-.3-.4.7-1.5.9-2.4.7z"/><path class="st23" d="M549.6 375.8c.1 0 .1.2 0 .3-.1.1-.2 0-.2-.1s.1-.2.2-.2zm-3.6.1c.1.2.4 0 .3-.2-.1-.1-.4.1-.3.2zm-8.2-45.1c-.4 0-.8.1-1.1 0 .4-.4 1-.4 1.5-.4.9 0 1.8.3 2.6.8-.2.3-.6.2-.9 0-.6-.4-1.4-.5-2.1-.4zm13.4-3.2c-.1-.2-.1-.4.1-.5.3-.2 1.3-.1 1.4.1.1.2-.3 1.3-.8 1.3-.3 0-.7-.7-.7-.9zm6.1 2.7c-1.2.1-2.4.3-3.5.8-.2.1-.4.1-.4-.1.2-.3.6-.5.9-.6.8-.2 1.7-.4 2.5-.5h.4c.1 0 .1.3.1.4zm.2 1.3c-.9.1-1.9.2-2.8.3-.2 0-.4-.1-.3-.2 1-.3 2-.4 3-.4.3 0 .5 0 .7.3h-.6zm-13.8-3c-.2.2-.6.2-.8-.1-.2-.2-.3-.5-.3-.8 0-.2-.1-.3 0-.5.1-.1 1.5-.1 1.5 0 .1.1 0 .2 0 .3-.1.1-.3.9-.4 1.1zm-7.2 3.7c1.2-.5 2.5-.6 3.8-.4.1 0 .3.1.4.2.1.1 0 .3-.1.3-1.5-.2-3.1-.2-4.3.6-.1-.1-.1-.3-.1-.4.1-.2.2-.3.3-.3zm8.7 1.1c-.1-.2.1-.4.3-.4.1 0 .1.1.1.2 0 .2-.2.3-.4.2zm-1.9-7.6c.2 0 .5.1.4.3-.9.1-1.8.3-2.6.7-.1 0-.2-.2-.1-.3 0-.1.2-.2.3-.2.6-.3 1.3-.5 2-.5zm5 7.5c.1-.1.4-.1.5 0-.1.2-.4.2-.5 0zm.9-.1c.1-.1.3 0 .3.1s-.1.1-.2.1-.1-.1-.1-.2zm-3.1-.7c-.1.1-.3 0-.3-.1s.1-.1.2-.1.2.1.1.2zm-1.5.3c0 .2.2.3.3.2.1-.1.1-.3 0-.4-.1 0-.3.1-.3.2zm3.9-.1c.1.1.4 0 .4-.2s-.2-.3-.3-.2c-.2.1-.2.4-.1.4zm2.4-6.4c.8-.6 1.8-.3 2.7 0 .1 0 .3.2.2.3 0 .1-.2.1-.2.1-.9-.2-1.8-.3-2.7-.4z"/><path class="st23" d="M547.5 332.7c.3.9 1.3 1.4 2.1 1.2.4-.1.8-.3 1.1-.1-.6.5-1.3.6-2 .5-.7-.2-1.3-.7-1.6-1.4-.5.8-1.4 1.3-2.3 1.4-.1 0-.3 0-.4-.1-.1-.1-.1-.3.1-.3.8-.1 1.5-.4 2-.9.3-.3.5-.8.3-1.1-.2-.3-.4-.7-.5-1 0-.1-.1-.3 0-.4.1-.1.2-.1.3-.1.3-.1.6-.1.9-.1.3.1.6.3.7.6.1.7-.9 1.2-.7 1.8zm-62.3-2.3c.1-.2.4-.1.4.1s-.4.1-.4-.1zm-3.3.9c0-.2-.4-.1-.4.1.1.2.5.2.4-.1zm.6.4c.1-.1.3-.2.4-.1 0 .1.1.1 0 .2-.1 0-.2.1-.3.1 0 0-.1-.1-.1-.2zm.1-.5c-.1-.1-.1-.1-.1-.2.1-.2.4-.2.4 0-.1.1-.2.2-.3.2zm-2.6.5c-.1.1-.4 0-.3-.2 0-.2.2-.3.3-.4.3-.2.5-.5.9-.7.3-.2.8-.3 1.1 0-.8.2-1.5.7-2 1.3zm-.9-1.9c.4-.4 1-.7 1.6-.9.1 0 .3-.1.4 0 .1.1.2.2.1.3-.7.1-1.5.5-2 1-.1.1-.3 0-.3-.2s.1-.1.2-.2zm5.6.8c0-.1.2 0 .2 0-.1.1-.1.2-.2.3-.2 0-.2-.3 0-.3zm4.3-.6c-.6-.2-1.3-.4-1.9-.6-.1 0-.3-.1-.4-.2.9-.2 1.9 0 2.5.6l.1.1c.1.1-.2.2-.3.1zm-4.2 1.2c.1-.1.2-.1.3 0 .1.1 0 .2-.1.3-.1-.1-.3-.2-.2-.3zm3.8.2c-.7-.2-1.3-.5-2-.7-.1 0-.1 0-.1-.1-.1-.1 0-.3.1-.3h.4c.4.1.7.2 1.1.4.2.2.6.4.5.7z"/><path class="st23" d="M575.3 302.6c2.4 1 4 3.3 4.8 5.8.8 2.5.8 5.1.8 7.7v57.7c0 2.8 0 5.7-1.2 8.3-1.1 2.3-3.2 4.1-5.7 4.9-1.8.5-3.7.6-5.6.6H462.1c-1.8 0-3.7 0-5.1-1-2.3-1.6-2.6-4.9-2.6-7.7V313c0-1.6 0-3.3.6-4.8 1-2.6 3.5-4.5 6.2-5.3 2.7-.8 5.6-.8 8.4-.8h19.1c27.2 0 54.4.1 81.7.1 1.6-.2 3.4-.2 4.9.4zM516 387.1v-41.9h-60.3c-.2 0-.4 0-.5.1-.1.1-.1.3-.1.5V381c0 .6 0 1.2.1 1.8.4 2 2.2 3.4 4.2 4s4 .5 6 .4c7.8-.3 15.7-.3 23.5-.2 9 0 18.1.1 27.1.1zm.6-41.9V387h52.9c1.3 0 2.7 0 4-.3 3-.7 5.5-3.2 6.4-6.2.5-1.8.5-3.6.5-5.5 0-10 0-19.9-.1-29.9-21.2.1-42.5.1-63.7.1zm0-42.6c0 14 0 28 .1 41.9h63.2c.2 0 .4 0 .5-.2.1-.1.1-.2.1-.4v-30.6c0-1.5 0-3-.4-4.5-1-4-5.1-6.9-9.2-6.6-3 .2-6.1.2-9.1.2-15.2.2-30.2.2-45.2.2zm-.6 41.9c0-14 0-28-.1-41.9h-52.1c-4.1 0-8 3.2-8.7 7.2-.2 1.1-.2 2.1-.2 3.2 0 10.5 0 21 .1 31.5 20.4.1 40.7.1 61 0z"/><path class="st23" d="M484.2 330.6c-.1.3 0 .7.3.9.4.4.9.5 1.4.3.3-.1.8-.3 1-.1-.8.8-2.2.7-2.9-.2-.2.5-.7.9-1.2 1.1-.5.1-1.1 0-1.6-.3.3-.3.8-.1 1.2-.1.4 0 .9-.3 1.1-.7.2-.4.1-.9-.1-1.3-.3-.4-.5-.8-.6-1.2 0-.1-.1-.2 0-.3.1-.2.3-.3.5-.3h1.3c.2 0 .5 0 .6.2.1.1 0 .3 0 .4-.1.3-.3.7-.6.9-.2.4-.4.5-.4.7zm3.7-8.6c-.7-.1-1.3 0-1.9.2-.1 0-.2.1-.3 0-.1-.1-.1-.2 0-.3.1-.1.2-.1.3-.2 1.1-.4 2.3-.3 3.4.2-.5.3-1 .2-1.5.1zm-.3 3.3c-.1.1-.1.2-.2.3-.2.1-.4 0-.5-.1-.1-.1-.1-.3-.1-.5 0-.4.3-.8.7-.7.3.1.3.6.1 1zm-6.3-.7c0 .3-.1.7-.4.8-.3.1-.7 0-.7-.4 0-.1 0-.2.1-.3.1-.3.3-.7.6-.6.2 0 .4.3.4.5zm-2.8-2.2c0-.2.1-.3.3-.3 1-.3 2-.3 3-.1.1 0 .3.1.4.2.1.1 0 .3-.2.3-1-.3-2-.3-3 0-.2.1-.4.1-.5-.1z"/><path class="st23" d="M492.6 314.3c-.1 1.5-.2 3-.1 4.5.1 1.2.2 2.3.3 3.5 0 3.4-1.3 6.6-3.1 9.4 4.3 2.9 7.5 7.3 9 12.3-.6-.4-.9-1.1-1.1-1.8-1.4-3.8-4-7.1-7.2-9.5-.5-.3-1.3-.6-1.5-.1-.6 1.2-1.4 2.2-2.5 3-.4.3-.8.6-1.1.9v.1c0 .6-.5 1.1-1.1 1.1-.4 0-.8-.2-1-.6-2.7-1.2-5-3.5-6-6.3-2 1.4-3.1 3.7-3.6 6.1-.4 2.4-.3 4.8-.1 7.3-.2.1-.4-.2-.4-.4-.2-2.4-.4-4.9.1-7.3.5-2.4 1.7-4.7 3.7-6.1-1.8-4-1.1-8.9-3.4-12.7-.1-.2-.2-.6 0-.7h.3c1.6.3 3.1 1 4.3 2 .3.3.8.1 1.2-.1 2.8-1.4 6.2-1.6 9.2-.7.8-1.4 1.9-2.7 3.2-3.6.3-.4.7-.6.9-.3zm-9.7 19.5c1 .1 2 .2 2.9 0 2.2-.5 3.7-2.4 4.7-4.4 1.1-2.3 1.8-4.8 1.9-7.3-.7.6-1.4 1.1-2.1 1.7-.4.3-.9.7-.9 1.3 0 .8-.5 1.5-1.1 1.8-.7.3-1.6.2-2.1-.3-.6-.6-1-1.6-1.9-1.7-1-.1-1.5 1.2-2.3 1.8-1 .8-2.7.2-3.2-1-.1-.2-.1-.6-.3-.8-.7-.4-1.5-.5-2.4-.4.2 2 .7 4 1.5 5.9.4.8.8 1.7 1.5 2.2 1 1 2.4 1.1 3.8 1.2zm5.8-15.3c-.3.6-.8 1.3-1.5 1.1.4-.3.8-.8 1-1.2-3.1-.9-6.6-.5-9.5 1 .2.3.6.6.9.7-.4.3-.9-.1-1.3-.4-1.2-1.2-2.8-2.1-4.4-2.3.7 1.1 1.3 3.3 1.9 6.6.9.2 1.6.3 1.9.3.4 0 .8 0 1-.4.4-.9 1.5-1.4 2.5-1.2 1 .2 1.7 1.2 1.7 2.2.6-.4 1.5-.5 2.1-.2.1-.8.7-1.6 1.5-1.8.8-.2 1.8.1 2.2.8.2.3.7.1 1-.2l1.8-1.5c.3-.3.7-.6.6-1.1-.3-2.1-.4-4.3-.1-6.4-1.2 1.1-2.4 2.4-3.3 4zm-1.4 15.1c-1.4 1-3.3.8-4.9.6-.9-.1-1.9-.2-2.7-.7-.2-.1-.4-.2-.5-.1.9 1.2 2.2 2.1 3.5 2.8.2.1.5.1.6-.1.2-.5.9-.6 1.3-.3.3.2.8 0 1.1-.2.8-.6 1.4-1.2 2.1-1.9-.1-.3-.4-.2-.5-.1zm-8-7.9c.4.7 1.4 1.1 2.2.8s1.3-1.2 1.1-2c-.2-.8-1-1.5-1.8-1.4-.8 0-1.6.7-1.7 1.5-.1.4 0 .8.2 1.1zm6.4-1.2c-.1.6.1 1.2.5 1.6.3.3.7.5 1.2.5.8 0 1.4-.8 1.6-1.5.1-.2.1-.4.1-.6-.1-.3-.2-.5-.4-.7-.5-.4-1.2-.8-1.8-.6-.6.2-1.1.7-1.2 1.3z"/><defs><path id="SVGID_00000156554403080796503790000001792428438890190780_" transform="rotate(-39.457 507.314 136.756)" d="M491.8 121.3h31v31h-31z"/></defs><clipPath id="SVGID_00000138567982471419115310000004086887638684500912_"><use xlink:href="#SVGID_00000156554403080796503790000001792428438890190780_" style="overflow:visible"/></clipPath><path class="st15" d="m504.6 150.7-2.7-.3 1.3-13.6 7.3.7.1-3.3-9.8-.6-1.1 11-2.7-.3 1.3-13.6 12.4.7.3-7.8 2.5.2-.3 7.7 6.9.4-.3 2.7-6.8-.4-.2 6.1-7.3-.7-.9 11.1z" style="clip-path:url(#SVGID_00000138567982471419115310000004086887638684500912_)"/><path class="st25" d="M56 247.2c-.2-.4-.6-.6-1-.3-2.7 2.1-4.7 4.7-6.1 7.8-.2.5-.4 1-.6 1.6-.2-3-.6-6-1.2-8.9 5.5-4.5 5.7-12.7 4-19-.1-.5-.8-.6-1.1-.1-1.9 3.5-4.2 7.8-4.6 12 0-.1-.1-.2-.1-.4-.9-3.2-2.1-6.2-3.4-9.2.1 0 .3-.1.4-.3 3.3-6.1 3.9-13.4 2.1-20.1-.2-.6-.9-.5-1.1 0-1.3 3.4-2.7 6.8-3.2 10.5-.2 1.6-.4 3.6-.1 5.4-1.9-4.1-3.9-8.1-5.5-12.3 3.3-4.4 4.6-10 3.5-15.4-.1-.4-.7-.4-.9-.1-1.3 2.4-2.7 4.8-3.3 7.4-.4 1.6-.6 3.1-.6 4.7-.5-1.7-1-3.4-1.4-5.1 1.9-2.5 2.1-6 2.3-9.1.3-3.7 0-7.4-.7-11.1-.1-.4-.6-.4-.8-.1-2.1 3.4-4.2 6.9-4.6 11-.3 3.4.5 7.3 3.2 9.6.3 1.6.7 3.1 1.2 4.6-.7-.9-1.6-1.7-2.5-2.5-1.7-1.5-3.7-2.7-6-2.8-.3 0-.5.4-.4.6 2.2 3.5 5.3 8.3 10 8.2 0 .1.1.1.1.1 1.1 2.8 2.3 5.5 3.6 8.2.4.9.8 1.7 1.2 2.6-2.9-3.6-7-6.3-11.3-7.9-.4-.2-.9.3-.7.7 1.9 5.8 7.5 11.6 14 11.6 1.1 2.4 2.1 4.9 2.9 7.4.6 1.7 1.1 3.5 1.5 5.3-1-1.6-2.3-3.1-3.6-4.5-1.2-1.3-2.5-2.5-3.9-3.6-1.4-1-2.9-2.4-4.7-2.4-.4 0-.7.5-.5.9 2.1 3.6 3.3 7.8 6.1 11.1 1.7 2 4.9 4.6 7.9 4.2l.6 3.9c.2 1.5.3 3.1.4 4.6-.7-.9-1.6-1.8-2.6-2.5-2.6-1.9-5.9-3.6-9.2-3.6-.4 0-.8.5-.5.9 1.8 2.7 2.7 5.6 5.4 7.6 2.1 1.5 4.6 2.3 7.1 2.6 0 2.5-.1 5.1-.2 7.6 0 .5.9.7 1 .1.4-2.4.6-4.8.6-7.3.1 0 .2 0 .3-.1 2.7-.8 4.6-3 5.7-5.5.7-1.5 1.1-3.1 1.4-4.7.2-1.2.5-2.6-.1-3.9z"/><path class="st25" d="M48.9 239.4c.2-.6.7-.7 1.2-.3 3.1 2.6 5.5 6.1 7 10.1.3.7.5 1.4.7 2 .2-3.9.7-7.7 1.4-11.5-6.3-5.8-6.6-16.3-4.6-24.5.2-.6 1-.8 1.2-.2 2.1 4.5 4.8 10.1 5.3 15.5 0-.2.1-.3.1-.5 1.1-4.1 2.4-8 3.9-11.8-.2 0-.3-.1-.4-.4-3.9-7.8-4.5-17.3-2.4-25.9.2-.8 1.1-.6 1.3 0 1.6 4.4 3.1 8.8 3.7 13.5.3 2.1.4 4.6.2 7 2.2-5.2 4.5-10.4 6.4-15.8v-.1c-3.8-5.7-5.3-12.9-4.1-19.8.1-.5.8-.6 1-.1 1.5 3.1 3.1 6.2 3.9 9.6.5 2 .7 4 .7 6.1.6-2.1 1.2-4.3 1.6-6.5-2.2-3.2-2.4-7.8-2.6-11.7-.3-4.8 0-9.6.8-14.3.1-.5.7-.5 1-.1 2.4 4.4 4.9 8.9 5.3 14.2.4 4.4-.6 9.4-3.7 12.3-.3 2-.8 4-1.4 5.9.9-1.2 1.8-2.2 2.8-3.2 2-1.9 4.3-3.4 6.9-3.6.4 0 .6.5.4.8-2.5 4.5-6.2 10.7-11.6 10.6 0 .1-.1.1-.1.1-1.2 3.6-2.7 7.1-4.1 10.6-.5 1.1-.9 2.2-1.4 3.4 3.4-4.6 8.1-8.1 13-10.2.5-.2 1 .4.8.9-2.1 7.5-8.6 15-16.1 15-1.2 3.1-2.4 6.3-3.4 9.6-.7 2.2-1.3 4.5-1.8 6.8 1.2-2.1 2.6-4 4.1-5.8 1.4-1.7 2.9-3.2 4.6-4.6 1.6-1.3 3.4-3.1 5.4-3.1.5 0 .8.6.6 1.1-2.4 4.7-3.9 10.1-7 14.3-2 2.6-5.7 5.9-9.1 5.4-.3 1.7-.5 3.3-.7 5-.2 2-.4 3.9-.4 5.9.8-1.2 1.9-2.3 3-3.3 3-2.5 6.8-4.7 10.6-4.7.5 0 .9.7.6 1.2-2.1 3.4-3.1 7.3-6.2 9.8-2.4 1.9-5.3 2.9-8.2 3.3 0 3.3.1 6.5.2 9.8 0 .7-1 .9-1.1.2-.5-3.1-.7-6.3-.7-9.4-.1 0-.3-.1-.4-.1-3.1-1.1-5.3-3.9-6.6-7.1-.8-1.9-1.3-4-1.7-6.1-.2-1.8-.6-3.6.1-5.3z"/><path d="M77 271.8c0 1.3 0 2.8-.1 4.4-.1 2.6-.2 5.6-.4 8.9-.1 1.5-.2 3.1-.4 4.7-.4 4.3-1 8.9-1.8 13.7l-.9 4.8c-.6 3-1.3 6-2.1 9.1-.3 1.1-.6 2.1-.9 3.2-1.1 3.7-2.4 7.5-3.8 11.1-.3.8-1.2 1.4-2.3 1.5-2.8.4-9.2 1-21.2.2-1.3-.1-2.4-.8-2.7-1.7-.5-1.6-1.3-4.5-2.2-8.5-.3-1.4-.7-2.9-1-4.6-.6-3.1-1.3-6.7-1.9-10.7-.2-1.2-.4-2.5-.5-3.8-.4-2.7-.7-5.6-1-8.6-.1-1.6-.3-3.2-.4-4.9-.2-3.5-.4-7.1-.5-10.9 0-1.3 0-2.7-.1-4.1 0-3 0-6.1.1-9.3 0-1.1 1.2-2 2.8-2.1 5.8-.3 20.5-.8 38.4 0 1.5.1 2.8 1 2.8 2.1.1 1.5.1 3.3.1 5.5z" style="fill:#ffefe6"/><path d="M77 271.8c0 1.3 0 2.8-.1 4.4-9 1.5-18.1 2.6-27.3 3.1-5.5.3-11.1.6-16.6.5h-.1c0-1.3 0-2.7-.1-4.1h1.3c5-.2 10-.3 14.9-.7 9.5-.6 18.8-1.8 28-3.2zm-.5 13.3c-.1 1.5-.2 3.1-.4 4.7-1.2.3-2.4.6-3.6.8-5.6 1.3-11.3 2.4-17 3.2-7.1 1-14.4 1.7-21.7 1.9-.2-1.6-.3-3.2-.4-4.9 7-.2 14-.7 21-1.6 5.6-.7 11.1-1.7 16.6-2.8 1.9-.4 3.7-.9 5.5-1.3zm-2.2 18.4-.9 4.8c-1.7.2-3.4.3-5.1.4-6.3.4-12.7.5-19.1.3-4.6-.1-9.3-.3-13.9-.9-.2-1.2-.4-2.5-.5-3.8 5.3.6 10.9.5 16.1.4 5.8 0 11.6-.2 17.4-.6 2-.1 4-.4 6-.6zm-3 13.9c-.3 1.1-.6 2.1-.9 3.2-7.1 1.1-14.2 2-21.5 2.4-3.5.2-7.1.4-10.7.3-.3-1.4-.7-2.9-1-4.6 4.3.1 8.6.1 12.8 0 7.1-.2 14.2-.6 21.3-1.3z" style="fill:#fffaf5"/><path class="st28" d="M188.3 319.8c-1.8 0-3.7.5-5.1 1.7-.2.2.1.5.3.4 1.6-.7 3-1.3 4.8-1.2.6-.1.6-.9 0-.9zm.7 3c-1.6-.4-3.7-.7-5.3-.2-.2.1-.2.4.1.4.8.1 1.6 0 2.4.1.9.1 1.8.2 2.6.5.5.1.7-.7.2-.8zm-16.6 0c-1.4-.7-3.3-.5-4.8 0-.4.1-.2.8.2.6 1.6-.6 2.9-.5 4.6-.4.1 0 .1-.1 0-.2zm-.1 1c-1.5-.4-3.4.6-4.7 1.4-.4.3 0 .9.4.7.7-.5 1.5-.9 2.3-1.2.7-.2 1.4-.3 2-.6.1-.1.1-.3 0-.3z"/><path d="M98.5 327.8c-28.2 2.2-57.9 5-81.1 21.3-5.3 3.7-10.5 9.2-9.5 15.6 1 5.8 7.1 9.5 13 10.4 5.8.9 11.8-.1 17.7.6 5.9.7 12.2 3.7 13.8 9.4.8 2.7.4 5.6.7 8.3.8 7 6.1 12.9 12.4 16.1 6.3 3.2 13.5 3.9 20.6 4.1 44 1 85.7-20.1 129.6-23.7 27.6-2.2 56.6 2.3 82-8.4 4.7-2 9.5-4.7 12.3-9 2.8-4.3 3.2-10.6-.4-14.3-3.9-4.1-12.1-5.2-12.3-10.9-.2-4.8 6.1-8.9 4.2-13.3-.5-1.2-1.6-2.1-2.8-2.8-4.3-2.6-9.5-3-14.4-3.3-43.4-2.9-86.9-3.7-130.3-2.4-23.7.7-47.6 2.1-70.3 8.9" style="fill:#a9bff8"/><path class="st30" d="M197.5 225c-1.2 3.8-1.6 7.8-1.6 11.8 0 4 .8 8.1-1.1 11.9-1.8 3.8-5.9 5.6-9.5 7.5-3.6 1.9-7.4 4.9-7.6 9.1-.3 5.5 5.8 10.3 4.2 15.6-.8 2.7-3.4 4.3-5.7 5.8-3 2-6 4.2-7.8 7.4-1.8 3.2-2.2 7.5-.2 10.5 2 2.9 5.6 4 9 4.8 26.1 5.9 53.6 4.6 79.3-2.8 5.6-1.6 11.3-3.6 15.3-7.9 4-4.3 5.7-11.5 2.4-16.4-2.2-3.1-5.8-4.7-8.9-6.9-3.1-2.2-5.8-6-4.6-9.7.6-1.7 1.8-2.9 2.7-4.4 1.9-3.5 1.2-8.3-1.7-11-2.7-2.6-6.9-3.2-9.3-6.1-2.6-3.4-1.9-8.2-2.2-12.6-1.3-15.4-18.3-27.3-32.5-25-9 1.5-16.7 8.2-19.8 17-.1.5-.3 1-.4 1.4z"/><path class="st31" d="M232.6 274.5H214c2-2.6 2.9-7.5 3.4-11.9.5-5.4.4-10.2.4-10.2H230c-.1 4.1.2 8 .6 11.3.7 6.4 2 10.8 2 10.8z"/><path class="st32" d="M230.5 263.7c-4.4.9-9 .5-13.2-1.1.5-5.4.4-10.2.4-10.2h12.2c-.1 4.1.2 8 .6 11.3zm8.8-23.7c.9-.6 2.2-1 3.2-.6 1.1.5 1.7 1.7 1.9 2.9.4 2.6-.9 5.2-2.7 7.1-.7.7-1.4 1.3-2.3 1.6-.9.3-2 .2-2.6-.5-.6-.6-.7-1.4-.8-2.2-.2-3 .8-6.6 3.3-8.3zm-32.1 0c-.9-.6-2.2-1-3.2-.6-1.1.5-1.7 1.7-1.9 2.9-.4 2.6.9 5.2 2.7 7.1.7.7 1.4 1.3 2.3 1.6.9.3 2 .2 2.6-.5.6-.6.7-1.4.8-2.2.3-3-.7-6.6-3.3-8.3z"/><path class="st31" d="M206.8 244.7c.6 3.1 1.4 6.3 3 9 2.7 4.4 7.5 7.4 12.6 7.7 5.1.3 10.3-2.2 13.3-6.3 2.8-3.8 3.9-8.6 4.6-13.2 1.1-6.9 1.7-14.7-2.4-20.4-1.3-1.8-3.1-3.3-4.9-4.5-4.7-2.9-10.6-4-15.9-2.3-5.3 1.6-9.3 6-11.4 11.2-2.1 5.3.1 13.5 1.1 18.8z"/><path class="st32" d="M224.9 246.2c-.7 0-2.1.4-2.7-.2-.5-.5 0-2 .2-2.6.2-.8.4-1.7.7-2.5.3-.8.6-1.7.7-2.6 0-.2-.3-.4-.5-.2-.8.9-1.2 2.3-1.6 3.4-.4 1.2-.8 2.4-1 3.7-.1.9.2 1.7 1 2.1 1 .4 2.4.4 3.4-.2.5-.1.3-.8-.2-.9z"/><path class="st4" d="M228.7 250.7c-1.9-.8-4.1-.9-6.2-.8-.6 0-5.1.4-4.6 1.5.9 2.2 3.5 3.4 5.7 3.4 2.2-.1 4.4-1.4 5.4-3.5 0-.2-.1-.5-.3-.6z"/><path class="st30" d="M217.7 236.9c-.4-1.6-1.9-2.8-3.6-2.7-1.7.1-2.9 1.4-3.4 2.9-.1.2.3.4.4.2.8-1 1.5-2.1 2.9-2.2 1.4-.1 2.4.9 2.9 2.1.2.6.9.2.8-.3zm10.3 0c.4-1.6 1.9-2.8 3.6-2.7 1.7.1 2.9 1.4 3.4 2.9.1.2-.3.4-.4.2-.8-1-1.5-2.1-2.9-2.2-1.4-.1-2.4.9-2.9 2.1-.2.6-.9.2-.8-.3zm-10.1 4c-2.3-.4-4.7-.4-6.9.3-.3.1-.5.4-.4.6-.1.1-.2.2-.3.2-.3.2 0 .5.3.6 1.2.1 2.4-.3 3.6-.4 1.2-.1 2.4-.1 3.7 0 .6.1.8-1.2 0-1.3zm17.1 0c-2.4-.6-4.9-.7-7.2.3-.6.3-.1 1 .4.9h.3c.1.1.3.2.5.1.9-.1 1.8-.3 2.7-.3 1 0 1.9.1 2.9.3 1 .3 1.3-1 .4-1.3z"/><path class="st30" d="M224.5 221.1c3.8 3.7 7.9 7.1 12.2 10.3 1.5 1.1 3.2 2.3 5.1 2.4.1-4.3.1-8.9-2.2-12.6-1.1-1.8-2.7-3.2-4.2-4.7-1.7-1.5-3.4-3.1-5.4-4-1.9-.9-4-1.2-6-1.2-5.6-.1-11.3 1.9-15.5 5.5-2.4 2-4.3 4.6-5.6 7.4-.8 1.8-3.1 6.8-1.9 8.7 2.3 3.4 13.6-3.3 15.9-4.9.6-.6 8.1-6.5 7.6-6.9z"/><path class="st32" d="M244 225.8c-2-6.7-7.4-12.3-14.1-14.4-1.5-.5-2.9-.8-4.4-.9 1.7-.8 3.5-1.9 4.7-3.3 1.1-1.3 2.5-4 .6-5.3-1.9-1.3-4.2.6-5.3 2-.9 1.1-1.7 2.3-2.3 3.6-.5-1.6-1.1-3.2-2.1-4.5-1.3-1.7-3.7-2.1-4.9-.1-1.2 2 .2 4.6 1.7 6.1.7.7 1.5 1.3 2.3 1.8-3.9.7-7.5 2.5-10.7 5.2-3.3 2.8-5.9 6.4-8 10.1-.4.8.7 1.4 1.2.7 3.5-6 8.3-11.6 15.1-13.8 6.6-2.2 13.9-.3 18.9 4.4 2.7 2.5 4.5 5.6 5.8 9 .4.8 1.8.4 1.5-.6zm-18-19.6c.5-.7 1-1.3 1.6-1.9.5-.4 1.5-1.4 2.2-1 1.3.7-1.2 3.3-1.8 3.8-1.1.9-2.3 1.5-3.6 2.2.4-1.1.9-2.2 1.6-3.1zm-8.4-2c.2-.8 1-1.4 1.7-.8.6.4 1 1.4 1.3 2.1.7 1.6 1.2 3.3 1.6 5.1-.9-.5-1.8-1-2.5-1.8-1.1-1.1-2.5-3-2.1-4.6z"/><path class="st33" d="M175.1 288.1c-4.4 2.5-8.7 5-13.1 7.5-1 .6-10.1 4.6-10 5.4.4 6.4 1.9 12.7 4.2 18.6 1.7-.7 3.5-1.3 5.2-2 14.2-5.6 26.9-15.2 41.3-20.4.7-5.8 1.3-11.6 2-17.4.2-1.6.4-3.2 1.3-4.6.6-1 2.3-2.3.1-2.5-.4 0-.9.1-1.5.3-2.4.9-4.8 1.8-7.1 2.7-5.7 2.2-11 5.8-16.3 8.8-2 1.2-4 2.4-6.1 3.6z"/><path class="st33" d="M261.8 328.8c-.5 2.5-1.1 5-2.6 7-1.8 2.4-4.7 3.7-7.5 4.7-17.7 6.3-37.4 4.2-55.6-.6-4.6-1.2-9.2-2.6-13.3-5-.7-.4-1.3-.8-1.7-1.5-.3-.6-.3-1.3-.3-2 .6-14.2 4-28.4 9.9-41.3 2.2-4.9 4.9-9.7 8.8-13.4 1.6-1.6 3.3-2.7 5.1-3.6 4.6-2.2 9.6-2.6 15-3.3 8.4-1.1 17.1.2 24.8 3.6 1.4.6 2.8 1.3 4 2.1 1.5.9 2.8 2 4 3.3 2 2.2 3.4 4.9 4.5 7.7 5.8 13.1 7.5 28.1 4.9 42.3z"/><path class="st31" d="M248.6 275.4c-3.9 1.9-7.9 3.5-12.1 4.5-6 1.5-12.4 1.9-18.4.5-3.8-.9-7.5-2.6-10.6-5-.9-.7-1.9-1.5-2.7-2.4 4.6-2.2 9.6-2.6 15-3.3 8.4-1.1 17.1.2 24.8 3.6 1.4.6 2.7 1.3 4 2.1z"/><path class="st34" d="M201.4 294.4c-2.1 1.5-4.4 2.7-6.6 4-2.3 1.3-4.6 2.5-7 3.7-4.7 2.3-9.5 4.2-14.4 5.9-1.7.6-1 3.2.7 2.7 5-1.7 9.9-3.9 14.5-6.5 2.3-1.3 4.6-2.6 6.7-4.1 2.2-1.5 4.3-3.2 6.5-4.8.5-.5.1-1.3-.4-.9z"/><path class="st32" d="M171.7 361.4c-1.7 2.7-4.5 4.5-6.9 6.6-3.7 3.4-6.4 7.8-10.5 10.6s-10.6 3.3-13.4-.8c-2.4-3.4-1-8.1.5-11.9.7-1.8 2.8-4.2 5.3-6.3 2.6-2.2 5.6-4.2 7.8-4.7.1 0 .2 0 .2-.1h-.1c-7.3-.3-19.6-.1-26.7-.7-7.2-.6-14.4.1-21.3 1.8-6.5 1.6-12.9 4-18.8 7-7.4 3.8-14.6 8.5-22.7 10.2-2.7.6-5.6.8-8.1-.2-2.6-1-4.7-3.4-4.6-6.2.1-3.2 3-5.6 6-6.7 3-1.1 6.2-1.3 9.1-2.5 6.3-2.5 10.3-9.2 15.6-13.1 1-.8 2.1-1.4 3.2-1.9 1-.4 2-.8 3.1-1-.6 0-1.2 0-1.8.1-5.2.2-10.8 0-16 .3-3.2.1-6.4.3-9.5-.6-2.8-.8-5.4-2.5-8.3-3-2.6-.4-5.1 0-7.6.9-1.8.6-3.6 1.5-5.4 2.3-2.6 1.3-5.3 2.5-7.7 4.2-1.8 1.3-3.8 2.8-5.9 2.3-1.4-.4-2.4-1.6-3.2-2.9-1.2-1.9-2-4.3-1.1-6.4 1.1-2.5 4.1-3.3 6.7-3.9 9.7-2.3 19.1-6 28.4-9.8 6.2-2.5 12.9-8.7 18.1-12.9 6.7-5.4 11.1-9.8 19.2-12.8 5.1-1.9 10.8-1.3 16.2-.8 2.6.3 5.2.5 7.7.8-.5-.6-.6-1.3-1-1.9-.9-1.1-1.8-2.1-2.9-2.9-2.3-1.6-5.6-2.1-7-4.6-.4-.6-.5-1.4-.7-2.1-.9-4.4-1-9.1.7-13.3.2-.6.5-1.2 1-1.6.5-.4 1.1-.6 1.8-.8 3.2-.9 5.8-2 9.1-2.9 1.5-4.4 3.5-9.5 8-10.7 2.5-.7 5.1 0 7.7.1 2.6.1 5.3-.3 7.8.1 5.8.9 10.2 5.6 14 10 2.5 2.9 5 5.9 6.3 9.6 1.4 4.2 1 8.7.9 13.2-.3 18.4 5.6 36.4 8.5 54.6.6 5.4 1.1 11-1.7 15.3z"/><path class="st30" d="M116 273.6c-1.2-.7-2.7-1.2-4.2-1.4-1-.1-2.3-.3-3.2.3-.5.2-.7.7-.8 1.3-.1.6-.1 1.4.1 2.1.1.7.2 1.7.7 2.4 0 0 0 .1.1.1.2.2.3.4.6.5.6.3 1.4.1 2 .1.8-.1 1.6-.2 2.3-.5 1.2-.4 2.8-1 3.5-2 .7-1.1-.1-2.3-1.1-2.9z"/><path class="st30" d="M128 290.9c-4.9-.2-10-.8-14.3-3.5-2.1-1.3-3.8-3.1-3.9-5.6-.1-1.3.2-2.7.4-4 .2-.9.6-2.3.1-3.2-.1-.1-.2-.1-.3 0-.4.5-.4 1.1-.5 1.6-.2.7-.4 1.5-.5 2.2-.3 1.3-.5 2.6-.3 3.9.3 2.5 1.9 4.4 3.9 5.7 4.4 3 10.2 4 15.5 3.9.7.2.7-1-.1-1z"/><path class="st30" d="M109.9 284.8c-.6.6-1.3 1-2.1 1.1-.6 0-1.2-.3-1.8-.2-.1 0-.2.2-.2.3.3.9 1.6 1.1 2.4 1 1.1-.1 2-.6 2.6-1.5.3-.5-.5-1.1-.9-.7zm22.5-15.8c-.2-1.3-.8-2.6-2-2.9-.9-.2-2.8-.1-3.1 1 0 .1.1.1.1.1.6-.1 1.1-.4 1.7-.4-.5.4-.8.9-1 1.4-.6 1.3-.5 3 .3 4.3.9 1.5 2.9.9 3.6-.5.3-.7.5-1.9.4-3z"/><path d="M144.1 282.7c.1 5-1.2 10-3.6 14.4-2.5 4.6-6.3 8.5-8.5 13.2-2.2 4.8-2.2 11.2 1.9 14.5.4.3.8.6 1.1 1 .7 1.1.1 2.6-.4 3.8-1.2 3.7.1 8.1 3.2 10.3 3.1 2.3 7.8 2.1 10.7-.4 1.6-1.5 2.7-3.5 4.4-4.8 1.7-1.2 3.8-1.6 5.6-2.8 3.1-2.1 4.1-6.4 4.1-10.2 0-3.8-.7-7.7.1-11.4 1-4.3 4-8.4 2.8-12.6-.4-1.3-1.1-2.5-1.6-3.8-1.1-3.5.5-7.3.8-10.9.5-5.4-1.8-10.7-4.6-15.4-2.4-4-8.2-9-12.9-5.2-5.8 4.8-3.2 14-3.1 20.3z" style="fill:#db5b52"/><path class="st30" d="M143.3 370.1c-1.5.4-2.3 2.6-2.7 3.9-.5 1.6-.8 3.6.1 5.1.4.6 1.3.3 1.3-.4.1-1.5-.1-2.9.2-4.3.2-.7.4-1.4.7-2 .3-.6.8-1.2.9-1.9 0-.2-.2-.5-.5-.4zm6.5 2.6c-1.6.2-2.7 2.3-3.1 3.7-.5 1.8-.4 3.8.8 5.3.6.8 1.8-.1 1.6-.9-.3-1.3-.6-2.5-.4-3.9.1-.6.3-1.2.6-1.8.3-.6.8-1.1.9-1.8.1-.3-.1-.7-.4-.6zm-91.4-9.2c-1.9-.3-3.6.1-5.1 1.4-1.3 1.2-2.5 3.4-1.8 5.2.3.8 1.4.9 1.7 0 .4-1.4.4-2.6 1.3-3.8.9-1.1 2.4-1.7 3.7-1.9.6 0 .8-.8.2-.9zM61 367c-1.5-.1-3 1.5-3.5 2.8-.8 1.7-.7 3.7.5 5.2.7.8 1.9-.1 1.6-1-.3-1.2-.6-2.5-.1-3.6.4-1 1.4-1.6 2-2.4.3-.5-.1-.9-.5-1zm-33-28c-1.8 1.4-3.9 2-6.1 2.2-1.2.1-1.1 1.7 0 1.8 2.7.3 5.3-1.2 6.8-3.4.3-.5-.3-.9-.7-.6zm2.1 4.8c-.1-.3-.4-.5-.7-.4-.5.2-.8.7-1.3 1-.4.3-.8.6-1.3.9-1 .5-2.1.5-3.2.7-.8.1-.8 1.3-.2 1.7 1.4.8 3.1.5 4.4-.3 1.1-.7 2.8-2.3 2.3-3.6z"/><path class="st31" d="M89 338c-.9.3-1.9.4-2.8.7-.9.3-1.7.7-2.6 1-.9.4-.1 1.8.8 1.3 1.5-.9 3.1-1.9 4.8-2.5.4-.1.3-.7-.2-.5z"/><path class="st36" d="M83 344.6c1-.8 2.1-1.4 3.2-1.9-1 .7-2.1 1.4-3.2 1.9zm21.1-10.8c-5.8 2.2-11.6 4.4-16.7 7.9-5.2.2-10.8 0-16 .3-3.2.1-6.4.3-9.5-.6-2.8-.8-5.4-2.5-8.3-3-2.6-.4-5.1 0-7.6.9 3.3-1.8 8.5-3.2 10.3-3.4 4.3-.5 8.8-.4 13-1.6 3.2-.9 6.1-2.6 9.3-3.3 3.5-.7 7.2-.1 10.7.5 5 .7 9.9 1.5 14.8 2.3z"/><path class="st31" d="M108.1 328.4c-3.4 5-9.4 7.7-14.8 9.9-3 1.2-6.1 2.5-8.8 4.3-2.7 1.8-5.2 4-7.4 6.4-1.2 1.3-2.3 2.7-3.5 4-1.1 1.3-2.3 2.7-4 3.1-.8.2-.5 1.4.3 1.3 3.1-.4 5.2-3.3 7.2-5.4 2.3-2.5 4.7-4.9 7.4-6.9 5.5-3.9 12.3-5.3 17.9-9 2.8-1.9 5-4.2 6.3-7.4.2-.4-.4-.6-.6-.3z"/><path class="st36" d="M160.7 350.5c-1.9 1.4-3.8 2.7-5.7 4.1-.1.1-.3.2-.4.3-7.3-.3-19.6-.1-26.7-.7-7.2-.6-14.4.1-21.3 1.8.8-.5 1.5-1 2.3-1.5 4.3-3.2 8-7.8 13.3-8.5 5.3-.7 10.3 2.9 15.6 3.4 3.2.3 6.4-.4 9.6-.7 4.4-.4 9 .2 13.3 1.8z"/><path class="st31" d="M163.2 348.9c-.7.1-1.2.4-1.7.8-.6.4-1.2.7-1.8 1-1.2.7-2.4 1.3-3.7 1.9-2.7 1.4-5.4 3-7.9 4.7-4.2 2.8-9.6 7-8.7 12.8.1.6 1 .5 1.1 0 .6-2.5 1.7-4.8 3.5-6.7 1.9-2 4.2-3.5 6.5-5 2.4-1.6 4.9-3 7.3-4.4 1.1-.7 2.3-1.3 3.3-2.1.9-.7 2.2-1.5 2.4-2.7 0-.1-.1-.3-.3-.3z"/><path class="st36" d="M148.7 283.9c-.2-2.5-.7-5-1-7.5-.3-2.6-.1-5.1.4-7.7.1-.4-.4-.6-.6-.3-2.2 4.4-.7 9.9-.2 14.5.6 5.1-.1 10.2-2 15-.2.5.6.8.8.3 2.3-4.4 3-9.4 2.6-14.3zm3 7.1c0-.8-.3-1.6-.3-2.4 0-.3-.6-.3-.5 0 .1.7-.1 1.5-.1 2.3 0 .7-.1 1.3-.2 2-.2 1.5-.5 3-.9 4.4-.8 2.8-2.1 5.4-3.6 7.9-.5.8.6 1.3 1.1.7 1.9-2.4 3.1-5.3 3.8-8.2.3-1.4.6-2.9.7-4.4.1-.8.1-1.6 0-2.3zm-9 11.1c.2-.3-.3-.7-.5-.4-3 2.8-4.6 6.6-6 10.4-1.3 3.7-1.9 8.2.9 11.3.5.5 1.3-.1 1-.8-1.9-3.4-1.1-7.2 0-10.7 1.1-3.3 2.6-6.8 4.6-9.8zm-1.1 12.2c.4-1.7.9-3.5 1.8-4.9.2-.3-.3-.6-.5-.3-.9 1.5-1.8 2.8-2.4 4.5-.6 1.7-.9 3.4-1.1 5.2-.4 3.9 0 7.9.9 11.7.2.7 1.3.6 1.2-.2-.3-3.7-.9-7.3-.7-11.1.2-1.7.4-3.3.8-4.9zm2.3 12.3c-.1-.2-.4-.2-.4 0-.3 1.8-.3 3.7-.5 5.5-.2 1.9-.5 3.8-.7 5.7-.1.7 1 .8 1.2.2.6-1.9.8-3.8.9-5.7.1-2 0-3.9-.5-5.7zm18-47.5c-.3-1.5-.8-3-1.4-4.5-.5-1.1-1.1-3-2.4-3.4-.1 0-.1 0-.2.1 0 .6.3 1.2.6 1.8.3.8.6 1.5.9 2.3.4 1.4.8 2.8 1 4.3.5 3.4.5 6.8.3 10.3 0 1 1.5 1 1.5 0 .4-3.7.4-7.4-.3-10.9zm-3.5 11.7c0-.3-.5-.3-.5 0-.2 2.2-.5 4.5-.9 6.7s-.8 4.3-1.3 6.5c-.2.9 1.2 1.3 1.4.4.6-2.2 1-4.4 1.2-6.7.1-1.1.2-2.2.2-3.4.1-1.2 0-2.3-.1-3.5zm-.8 22.5c-.1-2-.1-4.2-1-6.1-.1-.2-.4-.1-.5.1-.2 1.9.1 3.9 0 5.8 0 2-.2 4-.6 6-.6 3.5-1.8 6.9-3.8 9.8-.5.7.6 1.6 1.2.9 2.5-3 3.6-6.7 4.2-10.5.4-1.9.5-3.9.5-6zm-6.7 1.6c-1 3.7-1.6 7.5-2.5 11.2-.2.8 1 1.1 1.2.3.7-3.8 1.6-7.7 1.7-11.5 0-.1-.3-.2-.4 0z"/><path class="st31" d="M120.9 277.8c-.1-.2-.2-.3-.3-.4-.2-.1-.4-.2-.6-.2-.3 0-.6.2-.8.5-.2.4-.1.8.1 1.1.3.4 1 .4 1.3 0 .1-.1.2-.3.2-.4.2-.2.2-.4.1-.6zm-3.1 2.3c0-.1-.1-.3-.2-.4-.1 0-.1-.1-.2-.1s-.1-.1-.2-.1c-.2-.1-.4 0-.6 0-.3.1-.5.4-.5.8 0 .3.2.6.4.7.2.1.4.1.6.1.2 0 .4-.1.5-.2.1-.2.2-.3.2-.6v-.2zm2.1.7c-.3 0-.7.3-.6.6 0 .4.3.6.6.6s.7-.3.6-.6c.1-.3-.2-.6-.6-.6zm3-1.6c-.2-.1-.4-.1-.6 0-.1.1-.2.1-.2.2-.1.1-.1.2-.1.3 0 .1 0 .2.1.3 0 .1.1.2.2.2.2.1.4.1.6 0 .4-.2.4-.8 0-1zm1.7 3.1c0-.1-.1-.2-.1-.2-.1-.2-.3-.4-.6-.4s-.5.2-.6.4c0 .1-.1.1-.1.2-.2.5.2.9.7.9.5 0 .9-.5.7-.9zm-7.1 21c-.1-.1-.2-.1-.3-.1-.6.3-.9 1.2-1.2 1.8-.4.7-.9 1.4-1.4 2.1-1.1 1.3-2.5 2.3-3.9 3.2-.6.4-.2 1.6.5 1.2 1.8-.7 3.2-2 4.4-3.5.6-.7 1.1-1.5 1.5-2.4.3-.6.8-1.7.4-2.3zm-2.4 7.1c-.1-.1-.3-.1-.4 0-.9.8-1.8 1.6-2.9 2.1-1.1.6-2.3 1-3.4 1.6-.9.5-.3 1.9.7 1.6 1.5-.4 3-1.2 4.3-2.2.8-.5 2.6-2 1.7-3.1zm-3.1 6c-1.1.5-2.4.7-3.5 1.2-.9.4-1.7.9-2.5 1.5-1.5 1.2-2.8 3-3.2 4.9-.2.9 1.2 1.7 1.6.7.7-1.6 1.5-3.2 2.9-4.4 1.5-1.4 3.4-2.1 5-3.1.5-.4.1-1-.3-.8zm-2.1 4.8c-1.5.2-2.7 1.5-3.6 2.7-1 1.4-1.4 3-1.3 4.7.1 1.3 2 1.3 2.1 0 .1-1.3.4-2.5 1-3.7.6-1.2 1.5-2 2.2-3 .2-.3-.1-.7-.4-.7zm4.7 15.2c-1.1-1.6-2.5-3.1-3.3-4.8-.9-2-.9-3.9 0-5.9.3-.7-.6-1.3-1-.6-1.2 2.1-1.9 4.2-1.2 6.6.7 2.3 2.4 4.2 4.2 5.7.7.6 1.9-.2 1.3-1zm8.3 6.1c-1.7-1.5-3.3-3-4.6-4.9-1.2-1.9-2.3-4.1-2.2-6.4 0-.7-.9-.6-1 0-.3 2.5 0 4.9 1.3 7.2 1.3 2.2 3 4 4.9 5.7 1.1.8 2.6-.7 1.6-1.6zm3.5 2c-.2-.5-.3-1-.6-1.5s-.8-1-1.2-1.5c-.2-.3-.7-.1-.5.3.2.5.3 1 .4 1.6.1.5.3 1 .4 1.5.2 1 .3 2 .2 3.1 0 1.2 1.9 1.2 1.9 0s-.2-2.4-.6-3.5zm3.6 5.3c-.9-2.1-1.4-4.3-1.4-6.6 0-.6-.9-.6-.9 0-.1 2.4.1 4.9.8 7.2.3 1.2 2 .5 1.5-.6zm7-4.6c-.6 1-1.3 1.9-2.1 2.8-.8.9-1.8 1.5-2.6 2.5-.3.3 0 .9.4.8 1.4-.3 2.6-1.2 3.6-2.1 1.1-.9 1.8-2.1 2-3.6.2-.8-1-1-1.3-.4zm5.3.8c-.8.6-1.6 1.3-2.4 2-.8.6-1.7 1.2-2.6 1.6-.3.2-.1.7.3.6 2.1-.5 4.4-1.5 5.6-3.3.2-.5-.4-1.2-.9-.9zm13.7-11.2c-.9.9-1.5 2.2-2 3.3-.6 1.2-1.1 2.4-1.4 3.7-.3 1 1.2 1.7 1.7.7.6-1.1 1.1-2.3 1.6-3.5.5-1.1 1.1-2.3 1.2-3.6.2-.6-.6-1.2-1.1-.6zm-3.6 3.4c-.5.1-.8.6-1.1 1-.4.6-.9 1.2-1.3 1.8-.8 1.3-1.4 2.5-1.9 3.9-.4 1 1.2 1.7 1.8.7 1.3-2.1 2.5-4.4 3.2-6.8.1-.4-.3-.7-.7-.6zm-76.8-10.5c-1.4 2.7-4.2 4.1-6.7 5.6-.9.5-.1 1.8.8 1.3 3-1.4 5.7-3.4 7-6.5.2-.6-.8-1-1.1-.4zm4.5-.3c-.4.9-1.5 1.7-2.2 2.4-.8.7-1.7 1.3-2.6 1.7-1 .5-.1 1.9.9 1.5 1.2-.5 2.2-1.2 3-2.1.4-.4.7-.9 1-1.4.3-.6.4-1.2.6-1.8.2-.4-.5-.7-.7-.3zm6-2c-1.1 1.4-2.2 2.8-2.4 4.7-.2 1.6.4 3.4 1.9 4.2.5.3 1.4-.2 1.1-.9-.5-1.1-.9-2.2-.9-3.4 0-1.4.5-2.9 1.3-4 .4-.7-.6-1.2-1-.6zm4.1 7.7c-.3-.6-.6-1.2-.7-1.8-.2-.7 0-1.3 0-1.9 0-.1-.1-.2-.2-.1-.6.4-1 1.4-1 2.1-.1 1 .2 1.9 1 2.6.5.3 1.2-.2.9-.9zm6.5-2.3c-.8.9-1.9 1.3-2.9 1.9-.5.3-.3 1.2.3 1.1 1.5-.2 2.5-1.5 3.1-2.8.1-.2-.3-.4-.5-.2zm62.7 34.5c-.3-.3-.8-.1-.9.2-.3.7-.2 1.6-.3 2.3-.2.8-.5 1.5-.7 2.2-.2.7.7 1.2 1.2.7.8-.8 1.2-1.6 1.3-2.7 0-.8.1-2-.6-2.7zm2.9-1.6c-.1-.6-.9-.6-1.2-.2-.6.9-.7 2.3-.8 3.4-.1.9 1.3 1 1.5.2.4-1 .8-2.3.5-3.4zm3.1-3.2c-.7 1.4-1.3 2.6-.6 4.2.3.7 1.2.1 1.1-.5-.2-1.1-.5-2.4 0-3.4.1-.3-.4-.6-.5-.3zm-42.8-50.8c-3.4 3.2-5 8.5-4.6 13 .1 1.2 1.9 1.2 1.9 0 .1-2.1.4-4.3 1-6.4.6-2.1 1.6-4 2.6-5.9.3-.6-.4-1.2-.9-.7zm3.8 23.3c-.7-1.2-1.2-2.5-1.6-3.8-.4-1.3-.5-2.7-.7-4.1-.1-.4-.7-.6-.8-.1-.8 3 .1 6.4 1.8 8.9.6.7 1.8 0 1.3-.9z"/><path class="st4" d="M131.7 380.4c-.4.8-.8 1.6-1.3 2.4-1.2 1.8-2.7 3.4-4.3 4.6-1.2.8-2.5 1.4-3.9 1.9-.7.2-1.4.4-2.2.5-4.8.9-10-.3-13.5-3.5-.5-.5-.9-1-1.3-1.5-.2-.2-.3-.5-.5-.7-2.8-4.2-2.7-9.5-.8-14.1.2-.5.4-1 .7-1.4 1.8-3.4 4.6-6.4 8-7.9.7-.3 1.5-.6 2.2-.8.9-.2 1.9-.4 2.8-.4 4.1-.2 8 1.5 10.9 4.3.4.4.8.8 1.2 1.3 1.1 1.3 2 2.8 2.6 4.4 0 .1.1.2.1.4 1.3 3.2.8 7.1-.7 10.5z"/><path class="st33" d="M131.7 380.4c-.4.8-.8 1.6-1.3 2.4-2.3-.3-4.7-.8-7.1-1.4-.4 1.9-.7 3.8-.9 5.7-.1.7-.2 1.5-.3 2.2-.7.2-1.4.4-2.2.5.1-.9.2-1.7.3-2.5.3-2.2.6-4.3 1-6.4-3-.9-6-2-8.7-3.5-1.6 3.3-3.7 6.3-6.2 8.9-.5-.5-.9-1-1.3-1.5-.2-.2-.3-.5-.5-.7 2.3-2.4 4.2-5.1 5.7-8.1-2.5-1.6-4.6-3.6-6.4-6 .2-.5.4-1 .7-1.4 2 2.1 4.2 3.8 6.6 5.3.9-2.5 1.5-5.2 1.7-7.8.1-1.4 0-2.8-.1-4.2 0-.4-.1-.8-.2-1.3.7-.3 1.5-.6 2.2-.8.6 1.9.7 4.1.7 5.9 0 3.1-.6 6.1-1.6 9-.1.2-.2.4-.2.6.8.4 1.5.8 2.3 1.1 1.9.9 3.9 1.5 6 2.1.1-.6.3-1.2.5-1.8.9-3.2 2.1-6.3 3.7-9.2.7-1.3 1.5-2.5 2.4-3.7.4.4.8.8 1.2 1.3-.7 1.1-1.3 2.2-1.9 3.4-1.4 2.7-2.5 5.7-3.3 8.6-.2.7-.4 1.3-.5 2 2.5.5 5.1.9 7.7 1.3z"/><path d="M131.1 371.6c0-.2-.1-.3-.2-.5s-.4-.4-.7-.4c-.3 0-.6.1-.7.4-.1.2-.1.3-.2.5-.2.5.3 1.1.8 1.1.7 0 1.1-.6 1-1.1zm-1.9 2.9c0-.2-.1-.4-.3-.6-.1-.2-.5-.3-.7-.3-.3 0-.5.1-.7.3-.1.1-.2.3-.3.5-.1.2 0 .5.1.7.1.2.2.3.3.4.2.1.4.2.6.2.4 0 .7-.2.9-.5.1-.2.1-.5.1-.7zm2.4.9-.2-.5c-.1-.3-.4-.6-.8-.5-.4 0-.6.3-.6.7v.5c0 .5.5.9.9.8.5 0 .9-.5.7-1zm-1.9 1.8c-1.2 0-1.2 1.8 0 1.8s1.2-1.8 0-1.8zm-19 7.5c-.2-.1-.4-.1-.6-.1-.1 0-.2 0-.2.1-.1 0-.2.1-.3.2-.1 0-.1.1-.2.2-.2.3-.2.6 0 .9 0 .1.1.2.2.2.1.1.2.2.4.2.2.1.4 0 .6 0 .3-.1.6-.5.6-.8-.1-.4-.2-.7-.5-.9zm1.8-1.6c0-.1-.1-.1-.1-.2-.1-.1-.2-.2-.4-.2h-.4c-.3.1-.5.3-.6.6v.4c0 .3.2.6.5.8.3.1.5.2.8 0 .3-.1.5-.3.5-.6 0-.2-.1-.5-.3-.8zm.4 3c-.2 0-.5.1-.7.3-.2.2-.3.4-.3.7 0 .5.4 1 1 1 .2 0 .5-.1.7-.3.2-.2.3-.4.3-.7-.1-.5-.5-1-1-1zm2.5.9c-1 0-1 1.5 0 1.5 1 .1 1-1.5 0-1.5z" style="fill:#f9d1bb"/><path class="st38" d="M190.7 310.9c6.7 0 13.1-2.7 19.5-4.3 11.6-2.8 26-1.1 34.6 7.8 2.2 2.3 4.4 5 5.6 8 2.1 5.3 1.4 11.5-.4 16.9-.7 2.3-1.6 4.6-3 6.5-2.1 2.9-5.3 4.9-8.7 5.9-3.4 1-6.9 1.2-10.4 1.2-9.5 0-18.9-1.5-28-4.5-3.1-1-6.3-2.3-8.8-4.5-4.8-4.2-6.6-11.4-6.3-18 .3-7 2.7-14 6.7-19.6"/><path class="st39" d="M196.6 325.4c1.6 2.8 4.3 4.9 6.9 6.9 5.2 4 10.5 8.1 16.8 9.9-8.8-1.7-17.6-3.4-26.3-5.1-2.8-.5-5.9-1.3-7.4-3.7 3.1-1.9 4.9-5.4 5.5-9 .4-2.1-.7-8.5.8-9.8 2.1 2.4 1.9 7.8 3.7 10.8z"/><path class="st38" d="M195.3 325.2c-.9 5-4.8 7.9-9.3 9.5-5.5 1.9-11.5 3.2-16.8.3-6.8-3.7-9.2-12.5-7.2-19.6v-.2c-.3-1-2.8-4.3-2.5-9.6v-.4c2.5.3 5.6.9 7.5 2.5 5.8-2.4 12.4-3 18.5-1.7 1.5-2.2 4.4-4.3 8.2-4.6 0 .3.1.6.1.9.1 1.5-.2 3.1-.2 3.1s-.9 4-1.7 5.9c0 .3 1.6 2.5 1.8 2.8 1.5 3.2 2.3 7.4 1.6 11.1z"/><path class="st31" d="M193.6 305.2s-.9 4-1.7 5.9c-1.9-.8-3.5-2.2-4.5-3.9 1-1.1 2.1-2.1 3.3-3 1-.8 2-1.5 3.1-2.1.1 1.5-.2 3.1-.2 3.1zm-28.5 5.9c0 .1-.1.3-.1.4-.8 1.4-1.9 2.6-3 3.7-.3-1-2.8-4.3-2.5-9.6.9.2 2.1 1.4 2.6 1.9 1.1.9 2.1 2 2.9 3.2 0 .1.1.2.1.4z"/><path class="st28" d="M173.8 320.4c-.4 2.2-1.1 4.5-1 6.7 0 .9.2 1.8.8 2.5.3.3.7.5 1.1.7.9.4 1.8.8 2.8.9 1.6.1 3.3-.6 4.3-1.9 1-1.3 1.4-3.1.9-4.6-.5-1.8-1.9-3.1-2.6-4.8-.5-1.2-.5-2.6-.6-3.9-.2-1.9-.7-3.8-1.5-5.6-.4-1.1-1.1-2.2-2.2-2.6-.8-.3-1.7-.1-2 .8-.3.9 0 2 .1 2.9.2 1.4.3 2.9.3 4.3-.1 1.5-.2 3.1-.4 4.6z"/><path class="st30" d="M178.6 320.2c.2 0 .5 0 .6.2.1.1 0 .3-.1.4-.3.5-.6 1.1-1 1.5l-.3.3c-.4.2-.8 0-1.2-.2-.3-.2-.5-.3-.8-.5-.2-.2-.4-.4-.5-.7 0-1 2.7-1 3.3-1z"/><path class="st30" d="M178.3 324.6c-.2-1.1-.3-2.4-.8-3.5-.1-.2-.4-.1-.3.1-.1 1.2.2 2.5.4 3.7.2 1.2.3 2.6.7 3.7.1.3.5.2.5-.1.1-1.3-.3-2.6-.5-3.9zm-5.2-5c-2.2-1-5.1-.9-6.8.9-.2.2.1.6.3.4 1.9-.9 3.9-1.2 5.8-.2.8.4 1.5-.8.7-1.1zm8-1.1c1.7-1.7 4.4-2.7 6.7-1.7.3.1.2.5-.2.5-2.1-.1-4.1.3-5.5 1.9-.5.8-1.6-.1-1-.7z"/><path class="st31" d="M174.9 324.1c0-.2-.1-.3-.3-.3-.2 0-.3.1-.3.3v.1c0 .2.1.3.3.3.1 0 .3-.2.3-.4zm1-.3c-.2 0-.3.1-.3.3 0 .2.1.3.3.3.2 0 .3-.1.3-.3 0-.1-.1-.3-.3-.3zm-.7 1.1c-.2 0-.4.2-.4.4s.2.4.4.4.4-.2.4-.4-.2-.4-.4-.4zm4.7-2.2c-.5 0-.5.7 0 .7.4.1.4-.7 0-.7zm-1 .6h-.2c-.1.1-.2.2-.2.3 0 .1.1.1.1.2.2.1.4.1.5-.1.1-.1 0-.4-.2-.4zm.7.7c-.2 0-.3.2-.3.3 0 .2.1.3.3.3.2 0 .3-.2.3-.3 0-.2-.1-.3-.3-.3z"/><path class="st39" d="M200.5 311.9c-.9.4-1.8.7-2.8 1-.4.1-.2.6.2.6 1-.1 1.9-.4 2.8-.7.6-.2.3-1.1-.2-.9zm-.2 2.8c-.2.1-.5.1-.7.2-.2.1-.4.1-.6.2-.1.1 0 .3.1.3.2.1.4 0 .6 0h.7c.5.1.4-.8-.1-.7zm1.1 2.2c-.3.1-.6.2-1 .3-.3 0-.6 0-.8.2-.1.1-.1.2 0 .3.2.3.6.3.9.3.4 0 .8 0 1.2-.1.7-.1.3-1.2-.3-1zm10.7 6.1c-1-.1-2-.4-2.9-.7-.4-.1-.5.4-.2.6.9.6 2 .9 3 1.1.7.1.9-.9.1-1zm.7-2.6c-.8.1-1.7 0-2.5.2-.2 0-.2.3 0 .4.8.4 1.9.4 2.7.4.6 0 .5-1.1-.2-1zm-.1-3.3c-.8.3-1.6.3-2.5.3-.3 0-.4.4-.1.6.9.5 2 .4 2.9.2.7-.2.4-1.3-.3-1.1zm-.8-7.3c-.8.2-1.7.4-2.4 1-.2.2-.1.6.2.5.8-.3 1.5-.5 2.3-.6.6 0 .5-1-.1-.9zm.2 2c-.3 0-.6 0-.9.1-.2 0-.5 0-.6.2-.1 0-.1.2-.1.3 0 .3.4.3.6.3.4 0 .7 0 1.1.1.5-.1.5-1-.1-1zm12.3 12.4c-1.1.1-2.2-.1-3.3-.4-.4-.1-.7.5-.3.7 1.1.6 2.3.8 3.6.8.7 0 .7-1.1 0-1.1zm.7-2.8c-.5.1-.9.1-1.4 0-.4 0-1-.1-1.3-.4-.3-.3-.6 0-.6.3.2 1.2 2.5 1.2 3.3 1.2.8.1.7-1.2 0-1.1zm-.2-3.4c-1-.3-1.9-.5-2.9-.8-.4-.1-.6.5-.2.6.9.3 1.8.6 2.7 1 .6.3 1-.6.4-.8zm.7-5.1c-1.1-.2-2.2-.3-3.3-.1-.4.1-.3.6.1.7 1 .1 2 .2 2.9.4.7.2 1-.9.3-1zm.3-2.9c-1.1-.3-2.3-.4-3.4-.1-.3.1-.2.6.1.6 1.1.1 2.1.2 3.1.5.6.2.9-.8.2-1zm7.8 11c-.8 0-1.6-.1-2.3 0-.3 0-.3.5-.1.7.7.4 1.6.4 2.4.4.7 0 .7-1.1 0-1.1zm.7-2.7c-.7-.1-1.5-.3-2.2-.4-.3-.1-.6.4-.2.6.7.3 1.4.6 2.2.8.6.1.8-.9.2-1zm.9-2.5c-1.1-.3-2.2-.8-3.2-1.2-.4-.1-.6.4-.3.6 1 .6 2.1 1.1 3.2 1.6.6.2.9-.8.3-1zm2.1-2.6-2.7-1.8c-.3-.2-.7.3-.4.5.8.7 1.6 1.4 2.5 2.1.6.5 1.3-.3.6-.8zm5.4 7.1c-.6 0-1.2 0-1.7-.1s-.7.6-.2.8c.6.2 1.3.3 1.9.3.6.1.6-1 0-1zm1.6-2.2c-.8-.1-1.5-.2-2.3-.4-.4-.1-.6.5-.2.6.8.2 1.5.5 2.3.6.7.2.9-.7.2-.8z"/><path class="st31" d="M173.4 355.3c-1 .1-2 .3-2.9.8-1.6 1.1-1.9 3.4-2 5.3-.1 2.8.1 6.1 2.3 7.9 1.1.8 2.5 1.2 3.8 1.4 9.9 1.7 20.4.2 29.4-4.2.5-.3 1.1-.6 1.4-1.1.3-.5.4-1.2.3-1.8-.2-2.8-1.3-5.5-3.2-7.5-2.4-2.8-4.8-1.6-8.2-1.4-6.8.6-13.9-.2-20.9.6z"/><path d="M218.3 367.6c5.9-1.5 11.7-3 17.6-4.5 4.5-1.1 9-1.7 13.5-2.8 2.3-.6 4.6-1.3 6.9-2 1.7-.6 4.4-2.2 6.2-2.2 4.6-1.4 9.2-2.9 13.4-5.1 2-1.1 3.9-2.3 5.3-4.1 1.8-2.4 2.4-5.6 2-8.5-.4-3-1.9-5.7-3.8-8.1-1.5-1.9-3.4-3.6-5.7-4.6-3.4-1.5-7.2-1.2-10.9-.5-8.7 1.6-16.8 5.4-24.8 9-7.6 3.4-15.3 6.7-23 9.8-7.1 2.9-14.7 5.1-21.3 9.1-.8.5-1.6 1-2.1 1.8-1.4 2.1.4 7.8 1.1 10.1 2.1 6.4 6.9 7.5 13 5.9 4.3-1.1 8.4-2.2 12.6-3.3z" style="fill:#20264c"/><path class="st31" d="M266.9 356.5c1 .1 2 .3 2.9.8 1.6 1.1 1.9 3.4 2 5.3.1 2.8-.1 6.1-2.3 7.9-1.1.8-2.5 1.2-3.8 1.4-9.9 1.7-20.4.2-29.4-4.2-.5-.3-1.1-.6-1.4-1.1-.3-.5-.4-1.2-.3-1.8.2-2.8 1.3-5.5 3.2-7.5 2.4-2.8 4.8-1.6 8.2-1.4 6.8.5 13.8-.2 20.9.6z"/><path class="st30" d="M226 369.6c-5.9-1.5-11.7-3-17.6-4.5-4.5-1.1-9-1.7-13.5-2.8-2.3-.6-4.6-1.3-6.9-2-1.7-.6-4.4-2.2-6.2-2.2-4.6-1.4-9.2-2.9-13.4-5.1-2-1.1-3.9-2.3-5.3-4.1-1.8-2.4-2.4-5.6-2-8.5.4-3 1.9-5.7 3.8-8.1 1.5-1.9 3.4-3.6 5.7-4.6 3.4-1.5 7.2-1.2 10.9-.5 8.7 1.6 16.8 5.4 24.8 9 7.6 3.4 15.3 6.7 23 9.8 7.1 2.9 14.7 5.1 21.3 9.1.8.5 1.6 1 2.1 1.8 1.4 2.1-.4 7.8-1.1 10.1-2.1 6.4-6.9 7.5-13 5.9-4.2-1.2-8.4-2.2-12.6-3.3z"/><path class="st28" d="M255.7 348.7c-3.1 3.8-7.5 6.2-11.8 8.1-2.3 1-4.6 1.9-6.8 3-1.1.5-2.1 1.1-3.1 1.8-1.1.7-1.7 1.1-2.4 1.7-1.7 1.5-2.7 2.7-3.6 4.8 0 0-.3.7-.3.8-.1.2-.1.4-.2.6-.1.3-.1.6-.2.9v.1c0 .6-.1 1.1 0 1.7v.4c0 .2.1.5.2.7.4 1.7-.5 3.3-2.2 3.8-1.6.5-3.4-.6-3.8-2.2-1.5-5.5.8-11.2 4.7-15.1 3.4-3.3 7.6-5.4 11.9-7.2 2.2-1 4.5-1.9 6.6-3 1-.5 2.1-1.1 3.1-1.7l1.2-.9c.2-.2.4-.3.8-.7 1.7-1.5 2.6-2.6 3.6-4.6.2-.5.6-1.6.7-2.4V338c1-.4 1.9-.9 2.9-1.3.6-.3 1.3-.7 1.9-1v.2c1.4 4.6-.2 9.1-3.2 12.8z"/><path class="st39" d="M165.3 327.7c-1 1-1.6 2.4-1.3 3.8.1.4.3.8.7 1.1.3.2.6.2.9.3 2.8.4 5.8-1 7.3-3.4.2-.4.5-.8.4-1.3 0-.6-.5-1.2-1-1.5-2.1-1.3-5.2-.7-7 1z"/><path class="st30" d="M168.1 333.1c-1.4-1.2-1.4-2.8-1.9-4.4-.1-.3-.5-.2-.5.1-.1 1.8.3 3.8 1.7 5.1.5.3 1.2-.4.7-.8zm3.5-1.9c-.6-.6-.9-1.3-1.1-2-.2-.6-.2-1.3-.6-1.8-.1-.1-.2-.1-.2 0-.2.7 0 1.6.2 2.3.2.8.6 1.5 1.1 2.2.3.5 1.1-.2.6-.7z"/><path class="st39" d="M190.9 327.5c1 1 1.6 2.4 1.3 3.8-.1.4-.3.8-.7 1.1-.3.2-.6.2-.9.3-2.8.4-5.8-1-7.4-3.4-.2-.4-.5-.8-.4-1.3 0-.6.5-1.2 1-1.5 2.3-1.3 5.3-.7 7.1 1z"/><path class="st30" d="M188.2 332.9c1.4-1.2 1.4-2.8 1.9-4.4.1-.3.5-.2.5.1.1 1.8-.3 3.8-1.7 5-.5.5-1.2-.3-.7-.7zm-3.5-1.9c.6-.6.9-1.3 1.1-2 .2-.6.2-1.3.6-1.8.1-.1.2-.1.2 0 .2.7 0 1.6-.2 2.3-.2.8-.6 1.5-1.1 2.2-.3.6-1.1-.2-.6-.7z"/><path class="st31" d="M214.5 326.7c-.3 0-.6 0-.7.3-.2.4.2.8.6 1l5.4 2.7c-2.6-.2-5.2-.2-7.8-.2-2.2 0-4.5.1-6.5.8-.1.4.5.7.9.8 2.4.6 4.9 1.2 7.3 1.9h-6.2c-1 0-2.2.1-2.8.9 2.6 1.3 5.5 2.1 8.3 2.5-1.3.2-2.7-.1-4 0-1.3.1-2.8.7-3.3 2 2.9.2 5.7.3 8.6.4-2 .5-4.3 1.2-5.3 3-.1.2-.2.5-.2.8.1.6.9.7 1.5.6 3.6-.3 7.1-.7 10.7-1 4.7-.4 9.4-.9 13.9-2.4.3-.1.6-.2.7-.4.2-.3.3-.7.3-1.1.1-2.2 0-4.4-.7-6.4s-2.1-3.9-4.1-4.8c.2.1-.1.8-.2.9-5.5-1.2-10.6-2.5-16.4-2.3z"/><path class="st33" d="M269 316.9v.9c-.1 1.7-.2 3.5-.6 5.2-.6 3-1.7 5.8-3.6 8.1-1.6 1.9-3.6 3.3-5.7 4.5-.6.4-1.3.7-1.9 1-1 .5-1.9.9-2.9 1.3-7.2 3.1-14.9 4.7-22.7 4.8-.1-.3-.2-.7-.3-1-1.1-4.3-1.9-8.7-2.2-13.1 0-.7-.1-1.3-.1-2 4.6-.7 9.1-2 13.4-3.6 1.9-.7 3.8-1.6 5.3-3 2.9-2.8 3.5-7.1 3.7-11.1.4-8.4 0-16.7-.5-25.1-.1-2.6-1.2-5.1-1.6-7.6 2.1 1.3 3.1 2.1 4.3 3.4 9.4 10 15.5 23.5 15.4 37.3z"/><path class="st34" d="M250.6 302.8c-1.7-5.7-4.3-11.5-8.1-16.2-.3-.3-.7.1-.5.4 2.7 5.1 5.2 10.1 6.5 15.8 1.2 4.9 2.2 10.9-.7 15.5-.9 1.4 1.3 2.6 2.2 1.3 3.4-5 2.2-11.4.6-16.8z"/></svg>