<svg width="307" height="268" viewBox="0 0 307 268" fill="none" xmlns="http://www.w3.org/2000/svg"><g opacity=".9" clip-path="url(#clip0_86_1472)" fill="#E7EDFB"><path d="M232.774 140.559c1.454.785 3.38.522 5.254-.702.88-.581 2.026-1.788 2.533-2.681.85-1.487 1.114-3.191.685-4.425-.203-.606-.237-.65-.805-1.209-.573-.565-.606-.587-1.237-.792-1.933-.643-4.418.265-6.221 2.272-1.709 1.914-2.334 4.006-1.697 5.753.192.529.292.683.693 1.111.284.301.596.564.795.673Zm-7.796-7.681c.504.289 1.069.439 1.732.467 2.393.098 5.256-1.928 6.43-4.556.603-1.358.71-2.59.32-3.709-.214-.617-.242-.655-.81-1.215-.568-.559-.612-.592-1.221-.786-1.263-.422-3.039-.099-4.535.818-.808.498-1.976 1.661-2.517 2.51-1.453 2.265-1.479 4.597-.055 5.967.184.181.478.405.656.504Zm20.327 8.588c1.031.412 2.096.288 3.234-.4 1.975-1.18 3.611-4.087 3.528-6.252-.114-2.657-2.448-3.816-4.852-2.411-.995.587-2.201 1.933-2.788 3.12-.762 1.53-.954 3.294-.486 4.489.191.496.932 1.28 1.364 1.454Zm-21.349-21.055c.549.245 1.102.329 1.975.289 1.745-.079 3.605-1.032 4.975-2.556.986-1.101 1.404-2.104 1.329-3.231-.038-.74-.302-1.274-.897-1.805-.401-.362-.55-.454-1.088-.633-.714-.232-1.731-.235-2.591-.008-.617.159-1.718.665-2.367 1.078-.682.436-1.926 1.711-2.259 2.315-.6 1.065-.773 2.21-.474 3.053.192.562.838 1.243 1.397 1.498Zm15.193 5.964a7.639 7.639 0 0 0 3.237 1.401c.647.111 9.592.315 10.338.238.668-.066 1.533-.398 2.165-.829 1.902-1.284 2.793-3.948 2.042-6.103-.53-1.509-1.609-2.529-4.333-4.05-1.986-1.112-2.825-1.752-3.912-2.987-.691-.779-.998-1.225-2.127-3.072-.985-1.617-1.331-2.101-1.91-2.66-2.381-2.303-6.673-1.464-8.164 1.597-.364.748-.477 1.219-.492 2.136-.028 1.464.29 9.234.399 9.825.311 1.71 1.413 3.508 2.757 4.504Z"/></g><g opacity=".9" clip-path="url(#clip1_86_1472)" fill="#E7EDFB"><path d="M261.765 49.556c1.452.786 3.379.524 5.254-.7.88-.58 2.026-1.787 2.534-2.68.851-1.486 1.115-3.19.687-4.424-.203-.606-.237-.65-.804-1.21-.573-.565-.606-.587-1.237-.792-1.933-.644-4.418.263-6.222 2.27-1.71 1.912-2.336 4.004-1.7 5.751.192.529.292.683.693 1.111.284.302.595.565.795.674Zm-7.794-7.686c.505.29 1.069.44 1.733.47 2.392.099 5.256-1.927 6.431-4.553.604-1.358.712-2.59.323-3.71-.214-.617-.242-.655-.81-1.215-.567-.56-.612-.592-1.221-.787-1.262-.422-3.039-.1-4.535.816-.809.498-1.977 1.66-2.518 2.51-1.454 2.263-1.482 4.595-.058 5.966.183.181.478.406.655.504Zm20.324 8.6c1.03.412 2.096.288 3.234-.399 1.975-1.18 3.612-4.086 3.531-6.25-.112-2.657-2.446-3.817-4.85-2.414-.996.587-2.202 1.932-2.791 3.118-.763 1.53-.955 3.294-.488 4.49.191.495.932 1.28 1.364 1.454Zm-21.338-21.066c.548.244 1.101.329 1.974.29 1.745-.079 3.606-1.03 4.976-2.554.987-1.1 1.405-2.104 1.331-3.23-.038-.74-.301-1.274-.896-1.806-.4-.362-.55-.454-1.087-.633-.715-.233-1.731-.237-2.591-.01-.618.16-1.719.664-2.368 1.077-.682.436-1.927 1.71-2.26 2.314-.601 1.065-.775 2.21-.476 3.053.191.562.837 1.243 1.397 1.498Zm15.189 5.971a7.63 7.63 0 0 0 3.236 1.403c.647.111 9.593.32 10.338.243.668-.066 1.533-.398 2.165-.827 1.903-1.284 2.796-3.948 2.046-6.102-.53-1.51-1.608-2.53-4.331-4.053-1.986-1.113-2.825-1.754-3.91-2.989-.691-.78-.998-1.225-2.127-3.073-.983-1.618-1.329-2.101-1.907-2.66-2.381-2.305-6.673-1.468-8.165 1.592-.365.748-.478 1.218-.494 2.136-.028 1.464.285 9.234.394 9.825.311 1.71 1.411 3.509 2.755 4.505Z"/></g><g opacity=".9" clip-path="url(#clip2_86_1472)" fill="#E7EDFB"><path d="M111.775 162.559c1.453.785 3.379.522 5.254-.702.88-.581 2.025-1.788 2.532-2.682.851-1.487 1.114-3.19.685-4.424-.203-.607-.236-.65-.804-1.21-.573-.564-.607-.586-1.238-.792-1.933-.643-4.418.265-6.22 2.273-1.709 1.913-2.335 4.006-1.697 5.753.191.529.292.683.693 1.11.284.302.595.565.795.674Zm-7.797-7.682c.505.289 1.07.44 1.733.468 2.393.098 5.256-1.929 6.429-4.556.603-1.358.71-2.591.321-3.709-.215-.617-.243-.656-.81-1.215-.568-.559-.612-.592-1.222-.786-1.262-.422-3.039-.099-4.535.818-.808.498-1.976 1.661-2.517 2.51-1.452 2.265-1.479 4.596-.055 5.967a3.7 3.7 0 0 0 .656.503Zm20.328 8.589c1.03.412 2.095.288 3.234-.4 1.974-1.181 3.61-4.088 3.528-6.253-.114-2.656-2.449-3.815-4.852-2.411-.996.588-2.201 1.934-2.789 3.12-.762 1.531-.953 3.294-.486 4.49.192.495.932 1.28 1.365 1.454Zm-21.349-21.055c.549.244 1.102.329 1.974.289 1.745-.079 3.606-1.032 4.975-2.556.986-1.101 1.404-2.104 1.33-3.231-.039-.74-.303-1.274-.898-1.805-.4-.362-.55-.455-1.087-.633-.715-.232-1.731-.236-2.591-.008-.618.159-1.719.664-2.368 1.078-.681.436-1.926 1.71-2.258 2.315-.6 1.065-.774 2.21-.475 3.053.192.562.838 1.242 1.398 1.498Zm15.193 5.963a7.624 7.624 0 0 0 3.236 1.402c.647.111 9.593.315 10.338.237.668-.065 1.533-.398 2.165-.828 1.902-1.285 2.794-3.948 2.043-6.103-.531-1.51-1.61-2.529-4.334-4.05-1.986-1.112-2.825-1.752-3.911-2.987-.691-.78-.998-1.225-2.128-3.073-.984-1.617-1.33-2.1-1.909-2.659-2.382-2.303-6.674-1.464-8.164 1.596-.365.749-.477 1.219-.493 2.136-.028 1.465.29 9.235.399 9.825.311 1.711 1.413 3.509 2.758 4.504Z"/></g><g opacity=".9" clip-path="url(#clip3_86_1472)" fill="#E7EDFB"><path d="M67.775 248.559c1.453.785 3.38.522 5.254-.702.88-.581 2.025-1.788 2.532-2.681.851-1.487 1.114-3.191.685-4.425-.203-.606-.236-.65-.804-1.209-.573-.565-.607-.587-1.238-.792-1.933-.643-4.417.265-6.22 2.272-1.71 1.914-2.335 4.006-1.697 5.753.191.529.292.683.693 1.111.284.301.595.564.795.673Zm-7.797-7.681c.505.289 1.07.439 1.733.467 2.392.098 5.256-1.928 6.43-4.556.602-1.358.71-2.59.32-3.709-.215-.617-.243-.655-.81-1.215-.568-.559-.612-.592-1.222-.786-1.262-.422-3.039-.099-4.535.818-.808.498-1.976 1.661-2.517 2.51-1.452 2.265-1.479 4.597-.055 5.967.184.181.479.405.656.504Zm20.328 8.588c1.03.412 2.096.288 3.234-.4 1.974-1.18 3.61-4.087 3.528-6.252-.114-2.657-2.448-3.816-4.852-2.411-.996.587-2.201 1.933-2.789 3.12-.762 1.53-.953 3.294-.486 4.489.192.496.932 1.28 1.365 1.454Zm-21.349-21.055c.549.245 1.102.329 1.974.289 1.745-.079 3.606-1.032 4.975-2.556.986-1.101 1.404-2.104 1.33-3.231-.039-.74-.303-1.274-.898-1.805-.4-.362-.55-.454-1.087-.633-.715-.232-1.731-.235-2.591-.008-.618.159-1.719.665-2.368 1.078-.681.436-1.926 1.711-2.259 2.315-.6 1.065-.773 2.21-.474 3.053.192.562.838 1.243 1.398 1.498Zm15.193 5.964a7.638 7.638 0 0 0 3.236 1.401c.647.111 9.593.315 10.338.238.668-.066 1.533-.398 2.165-.829 1.902-1.284 2.794-3.948 2.043-6.103-.53-1.509-1.61-2.529-4.334-4.05-1.986-1.112-2.825-1.752-3.911-2.987-.691-.779-.998-1.225-2.128-3.072-.984-1.617-1.33-2.101-1.91-2.66-2.38-2.303-6.672-1.464-8.163 1.597-.365.748-.478 1.219-.493 2.136-.027 1.464.29 9.234.4 9.825.31 1.71 1.412 3.508 2.757 4.504Z"/></g><defs><clipPath id="clip0_86_1472"><path fill="#fff" transform="rotate(-135.427 151.12 27.581)" d="M0 0h40v40H0z"/></clipPath><clipPath id="clip1_86_1472"><path fill="#fff" transform="rotate(-135.398 146.973 -23.898)" d="M0 0h40v40H0z"/></clipPath><clipPath id="clip2_86_1472"><path fill="#fff" transform="rotate(-135.427 95.13 63.377)" d="M0 0h40v40H0z"/></clipPath><clipPath id="clip3_86_1472"><path fill="#fff" transform="rotate(-135.427 90.753 115.394)" d="M0 0h40v40H0z"/></clipPath></defs></svg>