<svg width="230" height="199" viewBox="0 0 230 199" fill="none" xmlns="http://www.w3.org/2000/svg"><g opacity=".9" clip-path="url(#clip0_79_2648)" fill="#E7EDFB"><path d="M61.928 141.346c-1.453.785-3.379.522-5.254-.702-.88-.581-2.025-1.789-2.532-2.682-.85-1.487-1.114-3.19-.685-4.424.203-.607.237-.651.804-1.21.574-.565.607-.586 1.238-.792 1.933-.643 4.418.265 6.22 2.273 1.71 1.913 2.335 4.006 1.698 5.753-.192.528-.293.682-.694 1.11-.283.302-.595.565-.794.674Zm7.797-7.682c-.505.289-1.07.44-1.732.468-2.393.098-5.256-1.929-6.43-4.556-.603-1.358-.71-2.591-.32-3.709.214-.617.242-.656.81-1.215.567-.559.612-.592 1.221-.787 1.263-.421 3.04-.098 4.535.819.808.497 1.976 1.661 2.517 2.51 1.453 2.265 1.48 4.596.055 5.967a3.665 3.665 0 0 1-.656.503Zm-20.327 8.588c-1.03.413-2.096.289-3.235-.399-1.974-1.181-3.61-4.088-3.527-6.253.113-2.656 2.448-3.815 4.852-2.411.995.588 2.2 1.934 2.788 3.12.762 1.531.954 3.294.486 4.49-.191.495-.932 1.28-1.364 1.453Zm21.348-21.054c-.548.244-1.101.328-1.974.289-1.745-.079-3.605-1.032-4.975-2.556-.986-1.102-1.404-2.105-1.33-3.231.04-.74.303-1.274.898-1.805.4-.362.55-.455 1.087-.633.715-.232 1.731-.236 2.592-.008.617.159 1.718.664 2.367 1.078.682.436 1.926 1.71 2.259 2.315.6 1.065.773 2.21.474 3.053-.192.562-.838 1.242-1.398 1.498Zm-15.192 5.963a7.613 7.613 0 0 1-3.237 1.401c-.647.112-9.592.316-10.338.238-.668-.065-1.532-.398-2.164-.828-1.902-1.285-2.794-3.949-2.043-6.103.53-1.51 1.61-2.529 4.333-4.05 1.987-1.112 2.825-1.753 3.912-2.987.69-.78.998-1.225 2.128-3.073.984-1.617 1.33-2.1 1.909-2.659 2.381-2.303 6.673-1.464 8.164 1.596.365.749.477 1.219.492 2.136.028 1.465-.29 9.235-.399 9.825-.31 1.711-1.413 3.509-2.757 4.504Z"/></g><g opacity=".9" clip-path="url(#clip1_79_2648)" fill="#E7EDFB"><path d="M32.938 50.343c-1.453.785-3.38.523-5.255-.7-.88-.58-2.026-1.787-2.533-2.68-.852-1.487-1.116-3.19-.688-4.425.203-.606.237-.65.804-1.21.573-.565.606-.586 1.238-.792 1.932-.644 4.417.263 6.22 2.27 1.711 1.912 2.337 4.005 1.701 5.751-.191.53-.292.683-.693 1.111-.284.302-.595.565-.794.675Zm7.792-7.686c-.504.29-1.069.44-1.732.469-2.392.099-5.257-1.926-6.432-4.553-.603-1.358-.71-2.59-.322-3.71.214-.616.242-.655.81-1.214.567-.56.611-.593 1.22-.787 1.263-.422 3.04-.1 4.536.816.808.497 1.977 1.66 2.518 2.509 1.454 2.264 1.482 4.595.058 5.966a3.676 3.676 0 0 1-.655.504Zm-20.322 8.598c-1.03.413-2.096.29-3.235-.398-1.975-1.179-3.612-4.085-3.53-6.25.112-2.657 2.445-3.817 4.85-2.414.996.587 2.202 1.933 2.79 3.119.763 1.53.955 3.293.488 4.489-.191.496-.931 1.28-1.363 1.454ZM41.746 30.19c-.549.245-1.102.33-1.975.29-1.745-.078-3.605-1.03-4.976-2.554-.987-1.1-1.405-2.103-1.331-3.23.038-.74.302-1.274.897-1.805.4-.362.55-.455 1.087-.634.714-.232 1.73-.236 2.59-.01.618.16 1.72.665 2.369 1.078.682.436 1.927 1.71 2.26 2.314.6 1.064.774 2.21.476 3.052-.192.563-.838 1.243-1.397 1.499Zm-15.19 5.971a7.63 7.63 0 0 1-3.236 1.403c-.647.112-9.593.32-10.338.243-.668-.065-1.533-.397-2.165-.827-1.903-1.284-2.796-3.947-2.046-6.102.53-1.51 1.609-2.53 4.332-4.052 1.985-1.114 2.824-1.754 3.91-2.99.69-.78.997-1.225 2.126-3.073.983-1.617 1.33-2.101 1.908-2.66 2.38-2.304 6.672-1.468 8.165 1.592.365.748.477 1.219.493 2.136.029 1.464-.285 9.235-.394 9.825-.31 1.71-1.411 3.51-2.755 4.505Z"/></g><g opacity=".9" clip-path="url(#clip2_79_2648)" fill="#E7EDFB"><path d="M182.928 163.346c-1.453.784-3.379.521-5.254-.702-.879-.582-2.025-1.789-2.532-2.682-.851-1.487-1.114-3.19-.685-4.425.203-.606.237-.65.804-1.209.574-.565.607-.587 1.238-.792 1.933-.643 4.418.265 6.22 2.273 1.71 1.913 2.335 4.006 1.698 5.752-.192.529-.293.683-.694 1.111-.284.302-.595.565-.795.674Zm7.797-7.682c-.505.289-1.069.439-1.732.468-2.393.098-5.256-1.929-6.43-4.556-.603-1.358-.71-2.591-.32-3.709.214-.618.242-.656.81-1.215.567-.56.612-.592 1.221-.787 1.263-.421 3.039-.099 4.535.818.808.498 1.976 1.662 2.517 2.511 1.453 2.265 1.479 4.596.055 5.967a3.71 3.71 0 0 1-.656.503Zm-20.327 8.588c-1.031.412-2.096.288-3.235-.4-1.974-1.18-3.61-4.087-3.527-6.252.113-2.656 2.448-3.816 4.852-2.411.995.587 2.201 1.933 2.788 3.12.762 1.53.954 3.294.486 4.489-.191.496-.932 1.281-1.364 1.454Zm21.348-21.055c-.548.245-1.101.329-1.974.29-1.745-.08-3.605-1.033-4.975-2.557-.986-1.101-1.404-2.104-1.329-3.23.038-.74.302-1.274.897-1.806.401-.361.55-.454 1.088-.632.714-.233 1.73-.236 2.591-.009.617.16 1.718.665 2.367 1.079.682.436 1.926 1.71 2.259 2.315.6 1.065.773 2.21.474 3.053-.192.562-.838 1.242-1.398 1.497Zm-15.192 5.964a7.626 7.626 0 0 1-3.237 1.401c-.647.111-9.592.315-10.338.238-.668-.066-1.532-.398-2.165-.828-1.901-1.285-2.793-3.949-2.042-6.103.53-1.51 1.61-2.53 4.333-4.051 1.986-1.112 2.825-1.752 3.912-2.987.691-.779.998-1.224 2.128-3.072.984-1.617 1.33-2.1 1.909-2.66 2.381-2.302 6.673-1.464 8.164 1.597.365.749.477 1.219.492 2.136.028 1.464-.289 9.235-.399 9.825-.311 1.71-1.413 3.509-2.757 4.504Z"/></g><defs><clipPath id="clip0_79_2648"><path fill="#fff" transform="scale(1 -1) rotate(44.573 215.605 -9.59)" d="M0 0h40v40H0z"/></clipPath><clipPath id="clip1_79_2648"><path fill="#fff" transform="scale(1 -1) rotate(44.602 90.044 .528)" d="M0 0h40v40H0z"/></clipPath><clipPath id="clip2_79_2648"><path fill="#fff" transform="scale(1 -1) rotate(44.573 302.944 127.023)" d="M0 0h40v40H0z"/></clipPath></defs></svg>