<svg width="154" height="151" viewBox="0 0 154 151" fill="none" xmlns="http://www.w3.org/2000/svg"><path d="M32.638 46.586H55.42c1.865 0 3.709.775 5.281 2.26l4.591 4.336c1.742 1.645 3.949 2.556 6.24 2.556h77.392c2.442 0 4.523 2.263 4.523 5.187v84.388c0 2.925-2.081 5.187-4.523 5.187H35.354c-3.235 0-5.96-2.99-5.96-6.812V50.324c0-2.124 1.509-3.737 3.244-3.738Z" fill="#005498" stroke="#35373A"/><path d="M3.243 68.006h21.68c1.866 0 3.71.775 5.282 2.26l3.168 2.992c1.153 1.089 2.79 2.059 4.491 2.757 1.7.697 3.511 1.142 5.024 1.142h78.497c1.03 0 2.01.68 2.474 1.813l.004.009 21.12 48.703v.001c.393.957 2.526 5.548 4.55 9.877 1.015 2.169 2.006 4.28 2.742 5.848l.887 1.885.246.525.041.087.051 3.495c-.003.622-.518 1.099-.97 1.099H35.249c-3.606 0-6.904-2.463-8.313-6.318L.72 72.403a3.554 3.554 0 0 1 .261-3.014c.497-.84 1.316-1.383 2.263-1.383Z" fill="#DAEFFF" stroke="#35373A"/><path d="m122.02 81.29 30.996 68.204m-43.769-56.451h-26.7c-.728 0-1.405-.415-1.796-1.1-.903-1.58.116-3.648 1.796-3.648h26.7c.728 0 1.406.415 1.797 1.1.902 1.58-.116 3.648-1.797 3.648Z" stroke="#35373A" stroke-miterlimit="10" stroke-linejoin="round"/><path d="m66.302 112.485 20.788 14.019m-3.792-14.695-13.063 14.78m20.045-3.27c1.738-7.116-3.597-14.997-11.918-17.602-8.32-2.605-16.475 1.051-18.214 8.167-1.738 7.116 3.597 14.996 11.917 17.602 8.32 2.605 16.475-1.052 18.214-8.167Z" stroke="#35373A" stroke-width="2" stroke-miterlimit="10" stroke-linecap="round" stroke-linejoin="round"/><path d="M39.297.506c7.359.227 13.54 6.923 13.97 15.385.254 4.968-1.447 9.477-4.294 12.649-.539.6-.78 1.441-.658 2.26l.938 6.281-5.852-3.86a2.148 2.148 0 0 0-1.667-.318 12.78 12.78 0 0 1-5.032.133c-6.441-1.104-11.536-7.167-12.14-14.624C23.758 8.453 30.776.243 39.297.506Z" fill="#DAEFFF" stroke="#35373A"/><path d="M38.512 24.74c.222 0 .427.066.571.227l.059.074v.001c.12.183.168.413.168.663 0 .232-.056.447-.176.635h-.001a.704.704 0 0 1-.621.33c-.249 0-.468-.091-.614-.294l-.002-.001c-.131-.184-.182-.417-.182-.67 0-.247.06-.473.195-.66l.058-.07a.716.716 0 0 1 .545-.236Zm0-15.745c.87 0 1.645.21 2.315.636a4.38 4.38 0 0 1 1.553 1.706c.371.715.555 1.515.555 2.393 0 .662-.1 1.285-.298 1.87a5.637 5.637 0 0 1-2.148 2.856 5.696 5.696 0 0 1-1.561.756l-.04 3.49-.001.247h-.918l-.002-.247-.042-4.031-.002-.194.185-.05c.504-.139.96-.32 1.37-.54l.3-.172c.288-.178.547-.374.776-.589v-.001c.305-.285.56-.604.766-.957a4.56 4.56 0 0 0 .47-1.142l.07-.31c.06-.314.09-.643.09-.986 0-.646-.14-1.253-.418-1.823a3.474 3.474 0 0 0-1.18-1.37c-.5-.341-1.103-.517-1.819-.517-.758 0-1.463.235-2.118.714l.001.001c-.635.465-1.143 1.274-1.499 2.47l-.104.345-.287-.217-.379-.286-.135-.103.045-.164c.333-1.198.898-2.138 1.705-2.798l.152-.119a4.213 4.213 0 0 1 2.598-.868Z" fill="#35373A" stroke="#35373A" stroke-width=".5"/></svg>