<svg width="60" height="75" viewBox="0 0 60 75" fill="none" xmlns="http://www.w3.org/2000/svg"><path d="M30 75c6.627 0 12-.896 12-2 0-1.105-5.373-2-12-2s-12 .895-12 2c0 1.104 5.373 2 12 2Z" fill="#CFCFCF"/><path d="M58.987 7.82a2.15 2.15 0 0 0-2.053-.045c-5.437 2.815-9.69 3.148-14.101 1.764C35.997 7.395 31.91 1.208 31.88 1.146A2.088 2.088 0 0 0 30 0c-.804 0-1.536.446-1.88 1.146-.033.066-4.257 5.181-11.12 7.354-4.42 1.4-8.482 2.098-13.934-.726a2.15 2.15 0 0 0-2.053.045A1.99 1.99 0 0 0 0 9.54v18.506c0 8.06 1.539 15.174 4.574 21.147 2.456 4.833 5.883 8.921 10.187 12.152 7.328 5.502 14.628 6.59 14.935 6.634a2.147 2.147 0 0 0 .608 0c.307-.043 7.607-1.132 14.935-6.634 4.304-3.23 7.731-7.32 10.187-12.152C58.46 43.219 60 36.104 60 28.045V9.54a1.99 1.99 0 0 0-1.013-1.72Zm-3.148 20.225c0 7.391-1.378 13.875-4.094 19.272-2.15 4.273-5.149 7.89-8.912 10.752-5.68 4.317-11.461 5.629-12.833 5.891-1.379-.264-7.157-1.576-12.833-5.892-3.763-2.86-6.762-6.478-8.913-10.751-2.716-5.397-4.093-11.88-4.093-19.272v-15.33c5.356 2.147 10.674 1.476 15.339 0 5.282-1.672 8.544-4.292 10.5-6.9 1.956 2.608 6.218 6.013 11.5 7.685 4.666 1.477 8.983 1.362 14.339-.786v15.331Z" fill="#35373A"/><path d="m18 22 24 24m-24 0 24-24" stroke="#0063B4" stroke-width="6" stroke-linecap="round" stroke-linejoin="round"/></svg>