<svg width="60" height="69" viewBox="0 0 60 69" fill="none" xmlns="http://www.w3.org/2000/svg"><path d="M55.594 22.939v6.078c0 7.575-1.363 14.146-4.05 19.527-2.12 4.246-5.074 7.78-8.781 10.502-3.325 2.442-6.664 3.778-8.88 4.468-1.923.598-3.36.83-3.883.902-.524-.071-1.96-.304-3.883-.902-2.216-.69-5.555-2.026-8.88-4.468-3.708-2.722-6.662-6.256-8.782-10.502-2.687-5.381-4.049-11.952-4.049-19.527V18.425a62.418 62.418 0 0 0 10.61-3.28 59.463 59.463 0 0 0 9.045-4.644C26.754 8.808 28.743 7.239 30 6.157c1.256 1.082 3.245 2.651 5.939 4.345a59.085 59.085 0 0 0 7.421 3.95l2.592-3.639a54.946 54.946 0 0 1-7.516-3.91c-4.453-2.782-6.82-5.208-6.84-5.23L30.01 0l-1.603 1.67c-.023.025-2.39 2.45-6.843 5.232a55.1 55.1 0 0 1-8.334 4.253A58.105 58.105 0 0 1 1.8 14.493l-1.8.332v14.192c0 8.317 1.54 15.586 4.576 21.603 2.464 4.883 5.905 8.945 10.226 12.071 7.353 5.321 14.68 6.068 14.989 6.097l.209.02.209-.02c.308-.03 7.635-.776 14.988-6.097 4.322-3.127 7.762-7.188 10.226-12.071C58.46 44.603 60 37.334 60 29.017V16.75l-4.405 6.188Z" fill="#35373A"/><path d="M35.94 10.502c-2.688-1.69-4.673-3.255-5.93-4.337V0l1.587 1.674c.02.021 2.386 2.447 6.84 5.228a54.946 54.946 0 0 0 7.516 3.911l-2.592 3.64a59.08 59.08 0 0 1-7.422-3.951ZM60 16.752v12.265c0 8.317-1.54 15.586-4.576 21.603-2.464 4.883-5.905 8.945-10.226 12.071-7.353 5.321-14.68 6.068-14.988 6.097l-.2.019v-4.392c.53-.073 1.962-.306 3.873-.901 2.216-.69 5.555-2.026 8.88-4.468 3.708-2.722 6.663-6.256 8.783-10.502 2.686-5.381 4.048-11.952 4.048-19.527v-6.078L60 16.751Z" fill="#152435"/><path d="M28.181 52.173 15.276 41.595a2.446 2.446 0 0 1-.33-3.466l2.89-3.461a2.5 2.5 0 0 1 3.497-.328l7.066 5.791 22.47-31.557a2.5 2.5 0 0 1 3.462-.592l3.705 2.59a2.447 2.447 0 0 1 .598 3.43l-26.84 37.694a2.5 2.5 0 0 1-3.613.477Z" fill="#0063B4"/></svg>