<svg width="360" height="360" viewBox="0 0 360 360" fill="none" xmlns="http://www.w3.org/2000/svg">
<g opacity="0.6" filter="url(#filter0_f_600_22860)">
<path d="M79.4147 294.905C77.6242 294.114 76.4086 292.939 75.7727 291.631L75.2461 283.332L113.044 281.875L311.734 283.478L311.734 289.408C311.734 291.507 310.377 293.602 307.66 294.8L271.475 310.765L241.927 323.802L208.861 338.392C199.303 342.61 187.528 342.61 177.972 338.392L149.652 325.897L110.84 308.75V308.772L110.816 308.76L82.0385 296.062L79.4147 294.905Z" fill="#D4F2E4"/>
<path d="M79.4147 294.905C77.6242 294.114 76.4086 292.939 75.7727 291.631L75.2461 283.332L113.044 281.875L311.734 283.478L311.734 289.408C311.734 291.507 310.377 293.602 307.66 294.8L271.475 310.765L241.927 323.802L208.861 338.392C199.303 342.61 187.528 342.61 177.972 338.392L149.652 325.897L110.84 308.75V308.772L110.816 308.76L82.0385 296.062L79.4147 294.905Z" fill="url(#paint0_linear_600_22860)" fill-opacity="0.15"/>
<path d="M208.856 232.723L308.154 276.316C310.882 277.513 312.245 279.61 312.247 281.707C312.247 283.805 310.884 285.898 308.155 287.095L271.813 303.05L242.137 316.078L208.927 330.658C199.328 334.873 187.501 334.873 177.904 330.658L149.461 318.171L110.481 301.036V301.058L110.457 301.046L81.5544 288.357L78.9192 287.201C77.1209 286.41 75.9001 285.236 75.2614 283.929C74.9098 283.21 74.7324 282.45 74.7324 281.69C74.7292 279.545 76.1242 277.399 78.9159 276.172L177.825 232.726C187.426 228.509 199.254 228.508 208.856 232.723Z" fill="#F0FAF6"/>
</g>
<path d="M34.7612 229.168C32.2699 227.634 30.5785 225.359 29.6937 222.824L28.9609 206.744L81.554 203.921L358.019 207.026L358.019 218.516C358.019 222.584 356.131 226.643 352.35 228.963L302.001 259.897L260.887 285.158L214.877 313.426C201.578 321.598 185.194 321.598 171.897 313.426L132.492 289.216L78.4876 255.993V256.036L78.4541 256.012L38.4122 231.41L34.7612 229.168Z" fill="#D4F2E4"/>
<path d="M34.7612 229.168C32.2699 227.634 30.5785 225.359 29.6937 222.824L28.9609 206.744L81.554 203.921L358.019 207.026L358.019 218.516C358.019 222.584 356.131 226.643 352.35 228.963L302.001 259.897L260.887 285.158L214.877 313.426C201.578 321.598 185.194 321.598 171.897 313.426L132.492 289.216L78.4876 255.993V256.036L78.4541 256.012L38.4122 231.41L34.7612 229.168Z" fill="url(#paint1_linear_600_22860)" fill-opacity="0.15"/>
<path d="M214.87 108.686L353.036 193.15C356.833 195.469 358.73 199.532 358.732 203.595C358.732 207.661 356.836 211.717 353.039 214.036L302.471 244.948L261.179 270.192L214.969 298.441C201.612 306.607 185.157 306.607 171.802 298.441L132.226 274.248L77.9877 241.047V241.09L77.9541 241.066L37.7384 216.481L34.0717 214.24C31.5695 212.707 29.8708 210.434 28.9822 207.901C28.493 206.508 28.2461 205.035 28.2461 203.562C28.2416 199.406 30.1827 195.248 34.0672 192.872L171.693 108.693C185.051 100.521 201.509 100.519 214.87 108.686Z" fill="#F0FAF6"/>
<path d="M214.87 108.686L353.036 193.15C356.833 195.469 358.73 199.532 358.732 203.595C358.732 207.661 356.836 211.717 353.039 214.036L302.471 244.948L261.179 270.192L214.969 298.441C201.612 306.607 185.157 306.607 171.802 298.441L132.226 274.248L77.9877 241.047V241.09L77.9541 241.066L37.7384 216.481L34.0717 214.24C31.5695 212.707 29.8708 210.434 28.9822 207.901C28.493 206.508 28.2461 205.035 28.2461 203.562C28.2416 199.406 30.1827 195.248 34.0672 192.872L171.693 108.693C185.051 100.521 201.509 100.519 214.87 108.686Z" fill="#F0FAF6"/>
<path d="M71.1189 92.7969V105.102C71.1189 110.44 70.6256 115.331 69.6389 119.774C68.6522 124.185 67.2285 128.165 65.3679 131.713C63.5355 135.212 61.3507 138.28 58.8136 140.917C56.2764 143.554 53.4573 145.767 50.3563 147.558C47.8755 148.99 45.5638 149.966 43.4213 150.487C41.2788 150.976 39.3477 150.935 37.6281 150.365C35.9366 149.779 34.4707 148.656 33.2303 146.996C32.0181 145.287 31.0878 142.96 30.4394 140.014C29.791 137.068 29.4668 133.446 29.4668 129.149L29.4668 116.845C29.4668 111.506 29.9601 106.648 30.9468 102.27C31.9617 97.8424 33.3853 93.8792 35.2177 90.3799C37.0783 86.8642 39.2772 83.8043 41.8144 81.2002C44.3516 78.5635 47.1707 76.3499 50.2717 74.5595C52.7525 73.1273 55.0501 72.1751 57.1644 71.7031C59.3069 71.1823 61.238 71.1904 62.9576 71.7275C64.6773 72.2646 66.1432 73.3877 67.3554 75.0967C68.5676 76.7731 69.4979 79.0843 70.1463 82.0303C70.7947 84.9437 71.1189 88.5325 71.1189 92.7969ZM58.8981 114.013V97.9482C58.8981 95.3766 58.7713 93.2038 58.5176 91.4297C58.292 89.6393 57.9396 88.2151 57.4604 87.1572C56.9811 86.0667 56.3891 85.3017 55.6844 84.8623C54.9796 84.4228 54.1761 84.2682 53.274 84.3984C52.3719 84.5286 51.3712 84.9111 50.2717 85.5459C48.8903 86.3434 47.664 87.3607 46.5928 88.5976C45.5497 89.8183 44.6617 91.3239 43.9287 93.1142C43.1958 94.872 42.632 96.9879 42.2373 99.4619C41.8708 101.887 41.6876 104.695 41.6876 107.885L41.6876 123.949C41.6876 126.521 41.8003 128.718 42.0259 130.541C42.2796 132.348 42.6461 133.812 43.1253 134.936C43.6327 136.01 44.2247 136.791 44.9013 137.279C45.6061 137.719 46.4095 137.873 47.3117 137.743C48.242 137.597 49.2568 137.206 50.3563 136.571C51.7094 135.79 52.9076 134.789 53.9506 133.568C55.0219 132.299 55.924 130.769 56.6569 128.978C57.4181 127.139 57.9819 124.991 58.3484 122.533C58.7149 120.076 58.8981 117.235 58.8981 114.013Z" fill="url(#paint2_linear_600_22860)" fill-opacity="0.15"/>
<path d="M91.8815 80.956L98.3936 77.1963C100.48 75.9918 102.199 74.5921 103.553 72.997C104.906 71.3694 105.907 69.6198 106.555 67.748C107.231 65.8275 107.57 63.8581 107.57 61.8398C107.57 60.0169 107.26 58.5846 106.639 57.5429C106.047 56.4525 105.131 55.8747 103.891 55.8095C102.65 55.7119 101.086 56.2083 99.1971 57.2988C97.7029 58.1614 96.3216 59.3008 95.053 60.7168C93.7844 62.1328 92.7695 63.679 92.0084 65.3554C91.2472 67.0319 90.8666 68.749 90.8666 70.5068L78.6459 77.5625C78.6459 73.6562 79.548 69.7337 81.3522 65.7949C83.1846 61.8398 85.6372 58.1614 88.71 54.7597C91.7828 51.3581 95.1658 48.5911 98.8588 46.459C103.031 44.0501 106.682 42.7236 109.811 42.4795C112.94 42.2028 115.379 43.0573 117.126 45.0429C118.874 47.0286 119.748 50.235 119.748 54.6621C119.748 56.9082 119.297 59.3496 118.395 61.9863C117.493 64.5905 116.196 67.2272 114.505 69.8965C112.841 72.5169 110.812 75.0234 108.415 77.416C106.019 79.776 103.327 81.8187 100.339 83.5439L91.8815 88.4267V80.956ZM91.8815 91.6494L91.8815 84.374L100.339 79.4912C103.694 77.5543 106.639 76.2929 109.177 75.707C111.714 75.1211 113.842 75.1618 115.562 75.8291C117.282 76.4638 118.578 77.652 119.452 79.3935C120.326 81.1025 120.763 83.3079 120.763 86.0097C120.763 89.3301 120.213 92.6097 119.114 95.8486C118.015 99.055 116.464 102.131 114.462 105.077C112.489 108.007 110.177 110.709 107.527 113.183C104.878 115.624 101.988 117.748 98.8588 119.555C96.2652 121.052 93.7139 122.118 91.2049 122.753C88.7241 123.339 86.4689 123.388 84.4391 122.899C82.4376 122.362 80.8307 121.174 79.6185 119.335C78.4344 117.447 77.8424 114.745 77.8424 111.229L90.0632 104.174C90.0632 105.997 90.4579 107.396 91.2472 108.373C92.0366 109.35 93.1219 109.846 94.5033 109.862C95.9128 109.862 97.4774 109.366 99.1971 108.373C101.142 107.25 102.806 105.883 104.187 104.271C105.596 102.611 106.668 100.821 107.401 98.9004C108.162 96.931 108.542 94.9372 108.542 92.9189C108.542 90.3148 108.134 88.4674 107.316 87.3769C106.499 86.2539 105.329 85.7575 103.806 85.8877C102.284 86.0179 100.48 86.6852 98.3936 87.8896L91.8815 91.6494Z" fill="url(#paint3_linear_600_22860)" fill-opacity="0.15"/>
<path d="M236.168 123.219C235.683 121.711 234.713 119.987 233.529 118.479C232.397 117.079 231.105 115.84 229.866 115.086L172.989 80.9383C172.397 80.6151 171.804 80.3458 171.265 80.2381C170.458 80.0765 169.757 80.1303 169.219 80.4535L175.682 76.791C176.221 76.4678 176.975 76.414 177.783 76.5755C178.321 76.6833 178.914 76.9526 179.506 77.2757L236.329 111.423C237.568 112.177 238.861 113.416 239.992 114.817C241.231 116.325 242.2 118.048 242.685 119.556L244.678 126.074L282.596 148.695C283.619 149.288 284.535 150.149 285.289 151.119C286.635 152.789 287.497 154.781 287.497 156.505L284.642 204.441C284.642 205.572 284.211 206.326 283.511 206.757L277.048 210.42C277.748 210.042 278.179 209.235 278.179 208.104L281.034 160.167C281.034 158.498 280.172 156.451 278.825 154.781C278.071 153.812 277.102 152.95 276.132 152.358L238.214 129.736L236.168 123.219Z" fill="#D4F2E4"/>
<path d="M236.168 123.219C235.683 121.711 234.713 119.987 233.529 118.479C232.397 117.079 231.105 115.84 229.866 115.086L172.989 80.9383C172.397 80.6151 171.804 80.3458 171.265 80.2381C170.458 80.0765 169.757 80.1303 169.219 80.4535L175.682 76.791C176.221 76.4678 176.975 76.414 177.783 76.5755C178.321 76.6833 178.914 76.9526 179.506 77.2757L236.329 111.423C237.568 112.177 238.861 113.416 239.992 114.817C241.231 116.325 242.2 118.048 242.685 119.556L244.678 126.074L282.596 148.695C283.619 149.288 284.535 150.149 285.289 151.119C286.635 152.789 287.497 154.781 287.497 156.505L284.642 204.441C284.642 205.572 284.211 206.326 283.511 206.757L277.048 210.42C277.748 210.042 278.179 209.235 278.179 208.104L281.034 160.167C281.034 158.498 280.172 156.451 278.825 154.781C278.071 153.812 277.102 152.95 276.132 152.358L238.214 129.736L236.168 123.219Z" fill="url(#paint4_linear_600_22860)" fill-opacity="0.25"/>
<path d="M172.986 80.9388C170.293 79.3229 168.03 80.2386 167.977 82.8777L169.269 143.363C169.215 145.895 171.316 149.288 173.955 150.796L273.328 209.881C275.914 211.443 278.068 210.582 278.122 208.05L280.976 160.114C281.03 157.421 278.768 153.92 276.075 152.304L238.157 129.683L236.164 123.166C235.303 120.257 232.394 116.595 229.809 115.086L172.986 80.9388Z" fill="#D4F2E4"/>
<path d="M95.8915 142.077L103.368 137.754C99.187 140.163 96.6002 145.337 96.6002 152.637C96.5648 167.378 106.912 185.308 119.739 192.714L112.262 197.037C99.435 189.666 89.0525 171.736 89.088 156.995C89.1234 149.66 91.7102 144.522 95.8915 142.077Z" fill="#D4F2E4"/>
<path d="M95.8889 142.077L103.366 137.754C99.5387 139.951 97.0583 144.416 96.633 150.723L89.1562 155.082C89.5815 148.774 92.0974 144.309 95.8889 142.077Z" fill="#D4F2E4"/>
<path d="M89.1588 155.081L96.6355 150.723C96.6001 151.36 96.5647 151.998 96.5647 152.636C96.5647 155.117 96.8482 157.668 97.3797 160.29L89.9029 164.613C89.3714 162.026 89.0879 159.44 89.0879 156.959C89.0879 156.321 89.1233 155.684 89.1588 155.081Z" fill="#D4F2E4"/>
<path d="M89.9395 164.614L97.4162 160.291C99.9321 172.374 108.047 184.989 117.862 191.58L110.385 195.903C100.535 189.348 92.4553 176.697 89.9395 164.614Z" fill="#D4F2E4"/>
<path d="M110.383 195.902L117.86 191.579C118.462 192.004 119.1 192.394 119.738 192.748L112.261 197.072C111.623 196.717 110.985 196.327 110.383 195.902Z" fill="#D4F2E4"/>
<path d="M136.251 194.379L128.774 198.702C124.558 201.147 118.711 200.793 112.262 197.072L119.738 192.749C126.152 196.47 131.999 196.824 136.251 194.379Z" fill="#B4C5E2"/>
<path d="M136.251 194.379L128.774 198.702C124.558 201.147 118.711 200.793 112.262 197.072L119.738 192.749C126.152 196.47 131.999 196.824 136.251 194.379Z" fill="#D4F2E4"/>
<path d="M112.262 197.072L119.738 192.749C121.829 193.954 123.884 194.804 125.798 195.336L118.321 199.659C116.372 199.163 114.352 198.277 112.262 197.072Z" fill="#B4C5E2"/>
<path d="M112.262 197.072L119.738 192.749C121.829 193.954 123.884 194.804 125.798 195.336L118.321 199.659C116.372 199.163 114.352 198.277 112.262 197.072Z" fill="#D4F2E4"/>
<path d="M118.326 199.659L125.803 195.336C129.807 196.399 133.421 196.044 136.256 194.379L128.779 198.702C125.945 200.367 122.33 200.722 118.326 199.659Z" fill="#B4C5E2"/>
<path d="M118.326 199.659L125.803 195.336C129.807 196.399 133.421 196.044 136.256 194.379L128.779 198.702C125.945 200.367 122.33 200.722 118.326 199.659Z" fill="#D4F2E4"/>
<path d="M88.9102 130.1L96.3869 125.777C102.411 122.269 110.703 122.765 119.916 128.08L112.439 132.403C103.261 127.123 94.9341 126.627 88.9102 130.1Z" fill="#D9E1EE"/>
<path d="M143.195 206.356L135.719 210.679C141.636 207.242 145.321 199.907 145.357 189.489C145.428 168.511 130.651 142.962 112.402 132.438L119.879 128.115C138.128 138.639 152.905 164.223 152.834 185.166C152.798 195.548 149.148 202.883 143.195 206.356Z" fill="#D9E1EE"/>
<path d="M143.195 206.356L135.719 210.679C141.636 207.242 145.321 199.907 145.357 189.489C145.428 168.511 130.651 142.962 112.402 132.438L119.879 128.115C138.128 138.639 152.905 164.223 152.834 185.166C152.798 195.548 149.148 202.883 143.195 206.356Z" fill="#D4F2E4"/>
<path d="M143.195 206.356L135.719 210.679C141.636 207.242 145.321 199.907 145.357 189.489C145.428 168.511 130.651 142.962 112.402 132.438L119.879 128.115C138.128 138.639 152.905 164.223 152.834 185.166C152.798 195.548 149.148 202.883 143.195 206.356Z" fill="url(#paint5_linear_600_22860)" fill-opacity="0.25"/>
<path fill-rule="evenodd" clip-rule="evenodd" d="M96.3869 125.776L88.9102 130.1C92.9849 127.761 98.0872 127.229 103.792 128.753L103.791 128.753C106.555 129.462 109.461 130.702 112.437 132.403L112.604 132.307L112.438 132.404L112.438 132.404L112.438 132.404C113.323 132.935 114.209 133.467 115.095 134.069L115.096 134.069C129.093 143.424 140.609 161.424 144.223 178.61L151.7 174.287C148.086 157.101 136.569 139.1 122.572 129.746L122.572 129.746C121.686 129.144 120.8 128.612 119.914 128.081L119.884 128.098C116.883 126.371 114.023 125.172 111.268 124.43L103.97 128.65L111.27 124.395C105.565 122.871 100.427 123.402 96.3869 125.776ZM144.225 178.611L151.701 174.288C152.481 177.973 152.871 181.623 152.871 185.166C152.871 186.087 152.835 187.009 152.764 187.895L152.763 187.896C152.16 196.86 148.616 203.238 143.231 206.356L135.754 210.679C141.14 207.56 144.684 201.182 145.286 192.217L145.288 192.216C145.359 191.331 145.394 190.41 145.394 189.489C145.394 185.946 144.969 182.296 144.225 178.611Z" fill="#D9E1EE"/>
<path fill-rule="evenodd" clip-rule="evenodd" d="M96.3869 125.776L88.9102 130.1C92.9849 127.761 98.0872 127.229 103.792 128.753L103.791 128.753C106.555 129.462 109.461 130.702 112.437 132.403L112.604 132.307L112.438 132.404L112.438 132.404L112.438 132.404C113.323 132.935 114.209 133.467 115.095 134.069L115.096 134.069C129.093 143.424 140.609 161.424 144.223 178.61L151.7 174.287C148.086 157.101 136.569 139.1 122.572 129.746L122.572 129.746C121.686 129.144 120.8 128.612 119.914 128.081L119.884 128.098C116.883 126.371 114.023 125.172 111.268 124.43L103.97 128.65L111.27 124.395C105.565 122.871 100.427 123.402 96.3869 125.776ZM144.225 178.611L151.701 174.288C152.481 177.973 152.871 181.623 152.871 185.166C152.871 186.087 152.835 187.009 152.764 187.895L152.763 187.896C152.16 196.86 148.616 203.238 143.231 206.356L135.754 210.679C141.14 207.56 144.684 201.182 145.286 192.217L145.288 192.216C145.359 191.331 145.394 190.41 145.394 189.489C145.394 185.946 144.969 182.296 144.225 178.611Z" fill="#D4F2E4"/>
<path fill-rule="evenodd" clip-rule="evenodd" d="M96.3869 125.776L88.9102 130.1C92.9849 127.761 98.0872 127.229 103.792 128.753L103.791 128.753C106.555 129.462 109.461 130.702 112.437 132.403L112.604 132.307L112.438 132.404L112.438 132.404L112.438 132.404C113.323 132.935 114.209 133.467 115.095 134.069L115.096 134.069C129.093 143.424 140.609 161.424 144.223 178.61L151.7 174.287C148.086 157.101 136.569 139.1 122.572 129.746L122.572 129.746C121.686 129.144 120.8 128.612 119.914 128.081L119.884 128.098C116.883 126.371 114.023 125.172 111.268 124.43L103.97 128.65L111.27 124.395C105.565 122.871 100.427 123.402 96.3869 125.776ZM144.225 178.611L151.701 174.288C152.481 177.973 152.871 181.623 152.871 185.166C152.871 186.087 152.835 187.009 152.764 187.895L152.763 187.896C152.16 196.86 148.616 203.238 143.231 206.356L135.754 210.679C141.14 207.56 144.684 201.182 145.286 192.217L145.288 192.216C145.359 191.331 145.394 190.41 145.394 189.489C145.394 185.946 144.969 182.296 144.225 178.611Z" fill="url(#paint6_linear_600_22860)" fill-opacity="0.25"/>
<path d="M112.441 132.403C130.69 142.927 145.466 168.511 145.395 189.454C145.324 210.431 130.477 218.9 112.228 208.34C93.9792 197.852 79.2028 172.303 79.2737 151.325C79.3446 130.348 94.1918 121.879 112.441 132.403ZM112.264 197.072C125.091 204.478 135.509 198.525 135.58 183.784C135.615 169.043 125.268 151.113 112.441 143.707C99.5779 136.301 89.1601 142.254 89.0892 156.995C89.0537 171.736 99.4362 189.666 112.264 197.072Z" fill="#F1F5FA"/>
<path d="M112.441 132.403C130.69 142.927 145.466 168.511 145.395 189.454C145.324 210.431 130.477 218.9 112.228 208.34C93.9792 197.852 79.2028 172.303 79.2737 151.325C79.3446 130.348 94.1918 121.879 112.441 132.403ZM112.264 197.072C125.091 204.478 135.509 198.525 135.58 183.784C135.615 169.043 125.268 151.113 112.441 143.707C99.5779 136.301 89.1601 142.254 89.0892 156.995C89.0537 171.736 99.4362 189.666 112.264 197.072Z" fill="#F9FFFC"/>
<path d="M160.898 205.305L149.573 198.728C148.806 198.286 148.363 197.372 148.334 196.044C148.334 193.39 150.192 190.146 152.522 188.789L163.847 195.366C161.517 196.693 159.659 199.937 159.659 202.621C159.659 203.948 160.131 204.863 160.898 205.305Z" fill="#D4F2E4"/>
<path d="M160.898 205.305L149.573 198.728C148.806 198.286 148.363 197.372 148.334 196.044C148.334 193.39 150.192 190.146 152.522 188.789L163.847 195.366C161.517 196.693 159.659 199.937 159.659 202.621C159.659 203.948 160.131 204.863 160.898 205.305Z" fill="url(#paint7_linear_600_22860)" fill-opacity="0.25"/>
<path d="M163.848 195.366C166.178 194.039 168.066 195.101 168.066 197.755C168.066 200.41 166.208 203.654 163.878 205.011C161.548 206.338 159.66 205.276 159.66 202.622C159.66 199.967 161.518 196.723 163.848 195.366Z" fill="#D4F2E4"/>
<path d="M163.848 195.366C166.178 194.039 168.066 195.101 168.066 197.755C168.066 200.41 166.208 203.654 163.878 205.011C161.548 206.338 159.66 205.276 159.66 202.622C159.66 199.967 161.518 196.723 163.848 195.366Z" fill="url(#paint8_linear_600_22860)" fill-opacity="0.25"/>
<path fill-rule="evenodd" clip-rule="evenodd" d="M222.188 220.964L170.791 191.149C169.287 190.264 167.193 190.382 164.863 191.709L165.425 192.036L164.858 191.709C160.257 194.363 156.541 200.793 156.57 206.072C156.57 208.697 157.485 210.555 158.989 211.41L210.778 241.259C209.303 240.403 208.359 238.545 208.359 235.92C208.33 230.641 212.046 224.212 216.647 221.557L216.492 221.468C218.724 220.227 220.728 220.129 222.188 220.964Z" fill="#D4F2E4"/>
<path fill-rule="evenodd" clip-rule="evenodd" d="M222.188 220.964L170.791 191.149C169.287 190.264 167.193 190.382 164.863 191.709L165.425 192.036L164.858 191.709C160.257 194.363 156.541 200.793 156.57 206.072C156.57 208.697 157.485 210.555 158.989 211.41L210.778 241.259C209.303 240.403 208.359 238.545 208.359 235.92C208.33 230.641 212.046 224.212 216.647 221.557L216.492 221.468C218.724 220.227 220.728 220.129 222.188 220.964Z" fill="url(#paint9_linear_600_22860)" fill-opacity="0.7"/>
<path d="M216.125 221.437C220.726 218.783 224.442 220.907 224.472 226.186C224.501 231.465 220.785 237.895 216.184 240.549C211.583 243.203 207.867 241.08 207.838 235.801C207.838 230.492 211.525 224.092 216.125 221.437Z" fill="#2744AC"/>
<path d="M216.125 221.437C220.726 218.783 224.442 220.907 224.472 226.186C224.501 231.465 220.785 237.895 216.184 240.549C211.583 243.203 207.867 241.08 207.838 235.801C207.838 230.492 211.525 224.092 216.125 221.437Z" fill="url(#paint10_linear_600_22860)" fill-opacity="0.7"/>
<path opacity="0.5" d="M114.459 196.116C127.287 203.522 137.705 197.569 137.776 182.828C137.811 168.087 127.464 150.157 114.637 142.751C101.809 135.345 91.3558 141.298 91.3204 156.039C91.285 170.78 101.667 188.71 114.459 196.116Z" fill="#D4F2E4"/>
<path d="M254.468 106.083C253.984 104.575 253.014 102.852 251.829 101.343C250.698 99.9431 249.406 98.7043 248.167 97.9502L191.29 63.8025C190.697 63.4794 190.105 63.21 189.566 63.1023C188.799 62.9488 188.128 62.9898 187.601 63.2714L187.52 63.3178C187.546 63.3016 187.574 63.2862 187.601 63.2714L193.983 59.6552C194.521 59.3321 195.275 59.2782 196.083 59.4398C196.622 59.5475 197.214 59.8168 197.807 60.14L254.63 94.2877C255.869 95.0418 257.162 96.2806 258.293 97.6809C259.531 99.189 260.501 100.913 260.986 102.421L262.978 108.938V174.648L256.515 168.831V112.6L254.468 106.083Z" fill="#F0FAF6"/>
<path d="M254.468 106.083C253.984 104.575 253.014 102.852 251.829 101.343C250.698 99.9431 249.406 98.7043 248.167 97.9502L191.29 63.8025C190.697 63.4794 190.105 63.21 189.566 63.1023C188.799 62.9488 188.128 62.9898 187.601 63.2714L187.52 63.3178C187.546 63.3016 187.574 63.2862 187.601 63.2714L193.983 59.6552C194.521 59.3321 195.275 59.2782 196.083 59.4398C196.622 59.5475 197.214 59.8168 197.807 60.14L254.63 94.2877C255.869 95.0418 257.162 96.2806 258.293 97.6809C259.531 99.189 260.501 100.913 260.986 102.421L262.978 108.938V174.648L256.515 168.831V112.6L254.468 106.083Z" fill="url(#paint11_linear_600_22860)" fill-opacity="0.1"/>
<path d="M186.277 65.742C186.331 63.1028 188.593 62.1872 191.286 63.803L248.109 97.9507C250.695 99.4588 253.603 103.121 254.465 106.03L256.458 112.547V166.556L192.256 133.66C189.617 132.152 187.516 128.759 187.57 126.228L186.277 65.742Z" fill="#F9F9F9"/>
<path d="M186.277 65.742C186.331 63.1028 188.593 62.1872 191.286 63.803L248.109 97.9507C250.695 99.4588 253.603 103.121 254.465 106.03L256.458 112.547V166.556L192.256 133.66C189.617 132.152 187.516 128.759 187.57 126.228L186.277 65.742Z" fill="#F0FAF6"/>
<path d="M236.168 142.117C235.683 140.609 234.713 138.886 233.529 137.378C232.397 135.977 231.105 134.738 229.866 133.984L172.989 99.8367C172.397 99.5135 171.804 99.2442 171.265 99.1365C170.458 98.9749 169.757 99.0288 169.219 99.3519L175.682 95.6894C176.221 95.3663 176.975 95.3124 177.783 95.474C178.321 95.5817 178.914 95.851 179.506 96.1742L236.329 130.322C237.568 131.076 238.861 132.315 239.992 133.715C241.231 135.223 242.2 136.947 242.685 138.455L244.678 144.972L282.596 167.594C283.619 168.186 284.535 169.048 285.289 170.017C286.635 171.687 287.497 173.68 287.497 175.403L284.642 223.339C284.642 224.47 284.211 225.225 283.511 225.655L277.048 229.318C277.748 228.941 278.179 228.133 278.179 227.002L281.034 179.066C281.034 177.396 280.172 175.349 278.825 173.68C278.071 172.71 277.102 171.849 276.132 171.256L238.214 148.635L236.168 142.117Z" fill="#D4F2E4"/>
<path d="M236.168 142.117C235.683 140.609 234.713 138.886 233.529 137.378C232.397 135.977 231.105 134.738 229.866 133.984L172.989 99.8367C172.397 99.5135 171.804 99.2442 171.265 99.1365C170.458 98.9749 169.757 99.0288 169.219 99.3519L175.682 95.6894C176.221 95.3663 176.975 95.3124 177.783 95.474C178.321 95.5817 178.914 95.851 179.506 96.1742L236.329 130.322C237.568 131.076 238.861 132.315 239.992 133.715C241.231 135.223 242.2 136.947 242.685 138.455L244.678 144.972L282.596 167.594C283.619 168.186 284.535 169.048 285.289 170.017C286.635 171.687 287.497 173.68 287.497 175.403L284.642 223.339C284.642 224.47 284.211 225.225 283.511 225.655L277.048 229.318C277.748 228.941 278.179 228.133 278.179 227.002L281.034 179.066C281.034 177.396 280.172 175.349 278.825 173.68C278.071 172.71 277.102 171.849 276.132 171.256L238.214 148.635L236.168 142.117Z" fill="url(#paint12_linear_600_22860)" fill-opacity="0.25"/>
<path d="M172.986 99.8372C170.293 98.2214 168.03 99.137 167.977 101.776L169.269 162.262C169.215 164.793 171.316 168.186 173.955 169.695L273.328 228.78C275.914 230.342 278.068 229.48 278.122 226.949L280.976 179.013C281.03 176.319 278.768 172.819 276.075 171.203L238.157 148.581L236.164 142.064C235.303 139.156 232.394 135.493 229.809 133.985L172.986 99.8372Z" fill="#D4F2E4"/>
<defs>
<filter id="filter0_f_600_22860" x="34.7324" y="189.562" width="317.514" height="191.993" filterUnits="userSpaceOnUse" color-interpolation-filters="sRGB">
<feFlood flood-opacity="0" result="BackgroundImageFix"/>
<feBlend mode="normal" in="SourceGraphic" in2="BackgroundImageFix" result="shape"/>
<feGaussianBlur stdDeviation="20" result="effect1_foregroundBlur_600_22860"/>
</filter>
<linearGradient id="paint0_linear_600_22860" x1="193.692" y1="196.649" x2="193.692" y2="314.797" gradientUnits="userSpaceOnUse">
<stop stop-color="#245795"/>
<stop offset="1" stop-color="#8AD3A8"/>
</linearGradient>
<linearGradient id="paint1_linear_600_22860" x1="193.771" y1="38.79" x2="193.771" y2="267.709" gradientUnits="userSpaceOnUse">
<stop stop-color="#245795"/>
<stop offset="1" stop-color="#8AD3A8"/>
</linearGradient>
<linearGradient id="paint2_linear_600_22860" x1="-101.161" y1="75.019" x2="44.7169" y2="320.268" gradientUnits="userSpaceOnUse">
<stop stop-color="#245795"/>
<stop offset="1" stop-color="#8AD3A8"/>
</linearGradient>
<linearGradient id="paint3_linear_600_22860" x1="-101.161" y1="75.019" x2="44.7169" y2="320.268" gradientUnits="userSpaceOnUse">
<stop stop-color="#245795"/>
<stop offset="1" stop-color="#8AD3A8"/>
</linearGradient>
<linearGradient id="paint4_linear_600_22860" x1="215.291" y1="186.983" x2="241.626" y2="112.455" gradientUnits="userSpaceOnUse">
<stop stop-color="#245795"/>
<stop offset="1" stop-color="#8AD3A8"/>
</linearGradient>
<linearGradient id="paint5_linear_600_22860" x1="128.151" y1="196.231" x2="151.573" y2="159.477" gradientUnits="userSpaceOnUse">
<stop stop-color="#245795"/>
<stop offset="1" stop-color="#8AD3A8"/>
</linearGradient>
<linearGradient id="paint6_linear_600_22860" x1="113.824" y1="195.43" x2="133.465" y2="149.234" gradientUnits="userSpaceOnUse">
<stop stop-color="#245795"/>
<stop offset="1" stop-color="#8AD3A8"/>
</linearGradient>
<linearGradient id="paint7_linear_600_22860" x1="154.377" y1="202.415" x2="157.47" y2="193.105" gradientUnits="userSpaceOnUse">
<stop stop-color="#245795"/>
<stop offset="1" stop-color="#8AD3A8"/>
</linearGradient>
<linearGradient id="paint8_linear_600_22860" x1="162.934" y1="203.694" x2="165.265" y2="197.876" gradientUnits="userSpaceOnUse">
<stop stop-color="#245795"/>
<stop offset="1" stop-color="#8AD3A8"/>
</linearGradient>
<linearGradient id="paint9_linear_600_22860" x1="182.13" y1="232.391" x2="189.356" y2="202.41" gradientUnits="userSpaceOnUse">
<stop stop-color="#245795"/>
<stop offset="1" stop-color="#8AD3A8"/>
</linearGradient>
<linearGradient id="paint10_linear_600_22860" x1="200.581" y1="259.676" x2="205.727" y2="211.687" gradientUnits="userSpaceOnUse">
<stop stop-color="#245795"/>
<stop offset="1" stop-color="#8AD3A8"/>
</linearGradient>
<linearGradient id="paint11_linear_600_22860" x1="216.913" y1="154.473" x2="244.949" y2="95.672" gradientUnits="userSpaceOnUse">
<stop stop-color="#245795"/>
<stop offset="1" stop-color="#8AD3A8"/>
</linearGradient>
<linearGradient id="paint12_linear_600_22860" x1="215.291" y1="205.881" x2="241.626" y2="131.354" gradientUnits="userSpaceOnUse">
<stop stop-color="#245795"/>
<stop offset="1" stop-color="#8AD3A8"/>
</linearGradient>
</defs>
</svg>
