<svg width="360" height="360" viewBox="0 0 360 360" fill="none" xmlns="http://www.w3.org/2000/svg">
<path d="M105.818 102.782V115.087C105.818 120.425 105.325 125.316 104.338 129.76C103.351 134.171 101.928 138.15 100.067 141.698C98.2348 145.198 96.05 148.266 93.5128 150.902C90.9756 153.539 88.1565 155.753 85.0555 157.543C82.5747 158.975 80.263 159.952 78.1205 160.473C75.978 160.961 74.0469 160.92 72.3273 160.351C70.6358 159.765 69.1699 158.642 67.9295 156.981C66.7173 155.272 65.787 152.945 65.1386 149.999C64.4902 147.053 64.166 143.432 64.166 139.135L64.166 126.83C64.166 121.492 64.6594 116.633 65.646 112.255C66.6609 107.828 68.0846 103.865 69.917 100.365C71.7776 96.8496 73.9765 93.7897 76.5136 91.1855C79.0508 88.5488 81.8699 86.3353 84.9709 84.5449C87.4517 83.1126 89.7493 82.1605 91.8636 81.6885C94.0061 81.1676 95.9372 81.1758 97.6568 81.7129C99.3765 82.25 100.842 83.373 102.055 85.082C103.267 86.7585 104.197 89.0697 104.846 92.0156C105.494 94.929 105.818 98.5179 105.818 102.782ZM93.5973 123.998V107.934C93.5973 105.362 93.4705 103.189 93.2168 101.415C92.9912 99.6247 92.6389 98.2005 92.1596 97.1426C91.6804 96.0521 91.0884 95.2871 90.3836 94.8477C89.6788 94.4082 88.8754 94.2536 87.9733 94.3838C87.0711 94.514 86.0704 94.8965 84.9709 95.5312C83.5896 96.3288 82.3633 97.346 81.292 98.583C80.2489 99.8037 79.3609 101.309 78.628 103.1C77.895 104.857 77.3312 106.973 76.9365 109.447C76.57 111.872 76.3868 114.68 76.3868 117.87L76.3868 133.935C76.3868 136.506 76.4995 138.703 76.7251 140.526C76.9788 142.333 77.3453 143.798 77.8245 144.921C78.332 145.995 78.924 146.776 79.6006 147.265C80.3053 147.704 81.1088 147.859 82.0109 147.729C82.9412 147.582 83.9561 147.191 85.0555 146.557C86.4087 145.775 87.6068 144.774 88.6498 143.554C89.7211 142.284 90.6232 140.754 91.3562 138.964C92.1173 137.125 92.6811 134.976 93.0476 132.519C93.4141 130.061 93.5973 127.221 93.5973 123.998Z" fill="url(#paint0_linear_600_22923)" fill-opacity="0.15"/>
<path d="M157.238 88.3291V99.3643L112.88 124.975L112.288 116.771L137.956 54.9307L147.639 49.3398L137.152 75.6582L124.382 107.299L157.238 88.3291ZM150.261 47.8262V118.92L138.083 125.951V54.8574L150.261 47.8262Z" fill="url(#paint1_linear_600_22923)" fill-opacity="0.15"/>
<path d="M285.868 78.2156C283.206 76.6787 279.877 78.5942 279.868 81.6682L279.746 124.029C279.742 125.462 280.505 126.788 281.746 127.505L349.871 166.834C352.534 168.371 355.862 166.456 355.871 163.382L355.993 121.021C355.997 119.588 355.234 118.262 353.993 117.545L285.868 78.2156ZM217.863 62.3834C216.622 61.667 215.859 60.3413 215.863 58.9082L215.92 37.8576C215.928 34.7835 219.257 32.8674 221.92 34.4041L267.611 60.7767C268.853 61.4931 269.616 62.8188 269.612 64.252L269.554 85.3026C269.546 88.3767 266.217 90.2928 263.555 88.756L217.863 62.3834ZM226.051 90.1445C227.292 90.861 228.055 92.1867 228.051 93.6199L227.946 131.907C227.937 135.066 224.442 136.968 221.785 135.262L186.788 112.791C185.638 112.053 184.945 110.779 184.949 109.413L185.054 73.3973C185.063 70.3236 188.392 68.4081 191.054 69.9447L226.051 90.1445Z" fill="url(#paint2_linear_600_22923)" fill-opacity="0.15"/>
<path d="M10.2035 243.481C7.83093 242.02 6.22016 239.853 5.37753 237.439L4.67969 222.126L54.7655 219.438L318.051 222.395L318.05 233.336C318.05 237.211 316.252 241.076 312.652 243.286L264.703 272.745L225.549 296.801L181.733 323.722C169.068 331.505 153.464 331.505 140.802 323.722L103.275 300.667L51.8452 269.027V269.068L51.8133 269.045L13.6804 245.616L10.2035 243.481Z" fill="#D4F2E4"/>
<path d="M10.2035 243.481C7.83093 242.02 6.22016 239.853 5.37753 237.439L4.67969 222.126L54.7655 219.438L318.051 222.395L318.05 233.336C318.05 237.211 316.252 241.076 312.652 243.286L264.703 272.745L225.549 296.801L181.733 323.722C169.068 331.505 153.464 331.505 140.802 323.722L103.275 300.667L51.8452 269.027V269.068L51.8133 269.045L13.6804 245.616L10.2035 243.481Z" fill="url(#paint3_linear_600_22923)" fill-opacity="0.15"/>
<path d="M181.727 128.742L313.307 209.18C316.922 211.389 318.728 215.258 318.73 219.127C318.73 222.999 316.925 226.862 313.309 229.07L265.152 258.509L225.828 282.549L181.821 309.451C169.101 317.228 153.43 317.228 140.713 309.451L103.023 286.411L51.3703 254.793V254.834L51.3382 254.812L13.0398 231.398L9.54784 229.265C7.16501 227.805 5.54725 225.64 4.70097 223.228C4.23509 221.902 4.00001 220.499 4.00001 219.096C3.99573 215.138 5.8443 211.178 9.54356 208.915L140.608 128.749C153.33 120.967 169.003 120.965 181.727 128.742Z" fill="#F0FAF6"/>
<path fill-rule="evenodd" clip-rule="evenodd" d="M141.708 185.644C141.487 186.15 141.652 188.577 141.766 189.566C141.882 190.553 141.375 191.202 141.681 191.551C141.988 191.9 143.072 192.142 143.382 189.897C143.689 187.649 143.819 186.36 144.331 185.14C144.841 183.922 145.695 181.51 145.187 180.809C144.68 180.109 143.451 180.633 143.451 180.633C143.451 180.633 141.931 185.137 141.708 185.644Z" fill="white"/>
<ellipse cx="118.332" cy="270.7" rx="10.5443" ry="4.04196" transform="rotate(15 118.332 270.7)" fill="#BFBFBF"/>
<ellipse cx="132.373" cy="264.979" rx="10.5443" ry="4.04196" transform="rotate(15 132.373 264.979)" fill="#BFBFBF"/>
<path fill-rule="evenodd" clip-rule="evenodd" d="M139.123 184.398C139.123 184.398 143.385 187.488 142.911 194.372C142.778 196.29 139.945 230.565 139.945 230.565C139.945 230.565 143.091 268.388 142.042 269.09C141.004 269.783 139.702 269.856 138.456 269.399C136.733 268.765 135.036 267.604 134.074 266.639C133.245 265.807 129.489 246.35 127.477 230.796C124.784 209.969 123.186 189.941 123.186 189.941L139.123 184.398Z" fill="#0F0C17"/>
<mask id="mask0_600_22923" style="mask-type:alpha" maskUnits="userSpaceOnUse" x="123" y="184" width="20" height="86">
<path fill-rule="evenodd" clip-rule="evenodd" d="M139.123 184.398C139.123 184.398 143.385 187.488 142.911 194.372C142.778 196.29 139.945 230.565 139.945 230.565C139.945 230.565 143.091 268.388 142.042 269.09C141.004 269.783 139.702 269.856 138.456 269.399C136.733 268.765 135.036 267.604 134.074 266.639C133.245 265.807 129.489 246.35 127.477 230.796C124.784 209.969 123.186 189.941 123.186 189.941L139.123 184.398Z" fill="white"/>
</mask>
<g mask="url(#mask0_600_22923)">
</g>
<path fill-rule="evenodd" clip-rule="evenodd" d="M136.319 190.119C136.319 190.119 139.662 195.379 137.59 203.006C135.521 210.632 126.839 239.874 126.839 239.874C126.839 239.874 127.263 270.544 127.263 274.203C127.263 275.309 124.788 275.825 122.181 275.009C118.918 273.986 118.969 273.129 118.792 271.686C118.64 270.423 115.087 243.399 115.405 236.351C115.822 227.076 117.664 198.936 117.664 198.936L136.319 190.119Z" fill="#0F0C17"/>
<mask id="mask1_600_22923" style="mask-type:alpha" maskUnits="userSpaceOnUse" x="115" y="190" width="24" height="86">
<path fill-rule="evenodd" clip-rule="evenodd" d="M136.319 190.119C136.319 190.119 139.662 195.379 137.59 203.006C135.521 210.632 126.839 239.874 126.839 239.874C126.839 239.874 127.263 270.544 127.263 274.203C127.263 275.309 124.788 275.825 122.181 275.009C118.918 273.986 118.969 273.129 118.792 271.686C118.64 270.423 115.087 243.399 115.405 236.351C115.822 227.076 117.664 198.936 117.664 198.936L136.319 190.119Z" fill="white"/>
</mask>
<g mask="url(#mask1_600_22923)">
</g>
<path fill-rule="evenodd" clip-rule="evenodd" d="M143.821 179.676C143.821 179.676 141.702 185.12 142.175 187.651C142.647 190.183 145.143 194.765 146.267 195.082C147.269 195.362 148.418 193.231 148.667 191.292C148.938 189.207 149.175 188.499 149.275 186.945C149.374 185.39 148.667 183.823 148.952 180.962C149.075 179.708 143.821 179.676 143.821 179.676Z" fill="#F4F4F4"/>
<path fill-rule="evenodd" clip-rule="evenodd" d="M139.193 137.755C143.365 139.223 146.923 152.983 149.102 157.295C151.279 161.611 150.664 181.82 150.664 181.82C150.664 181.82 147.985 182.939 146.031 183.145C144.076 183.35 143.274 182.306 143.274 182.306C143.274 182.306 141.973 168.726 139.937 164.949C137.899 161.174 140.209 154.518 136.046 151.552C131.478 148.297 131.575 147.121 132.542 143.015C133.547 138.766 135.023 136.286 139.193 137.755Z" fill="#9FB8ED"/>
<path fill-rule="evenodd" clip-rule="evenodd" d="M119.38 201.393C120.964 201.504 122.458 201.554 123.86 201.554C125.497 201.554 127.013 201.486 128.423 201.37C117.183 200.53 117.054 197.671 117.054 197.671C117.054 197.671 115.563 170.91 117.927 155.488L108.563 155.919C108.528 156.167 108.495 156.429 108.462 156.684C108.23 172.393 107.756 197.671 107.756 197.671C107.756 197.671 108.23 172.353 108.462 156.646C108.515 152.95 108.808 150.641 109.403 149.021C109.66 148.317 109.976 147.742 110.354 147.24C110.831 146.601 111.409 146.079 112.095 145.552C113.384 144.562 116.252 142.625 119.191 140.821C120.669 139.915 122.165 139.044 123.484 138.345C126.176 136.92 130.457 135.512 133.592 135.512C134.185 135.512 134.733 135.562 135.224 135.671C138.824 136.471 142.431 137.646 142.78 146.367C142.971 151.183 142.959 172.426 142.928 185.814C142.923 187.512 142.921 189.082 142.916 190.48C142.906 194.434 142.896 196.974 142.896 196.974C142.896 196.974 142.382 197.497 142.129 197.671C140.994 198.458 137.586 200.298 130.305 201.188C128.426 201.42 126.317 201.559 123.961 201.559C122.526 201.559 120.999 201.506 119.38 201.393ZM119.379 201.393C118.772 201.35 118.199 201.302 117.654 201.246C112.152 200.704 109.708 199.644 108.623 198.816C108.469 198.703 108.346 198.592 108.242 198.486C109.158 199.409 111.791 200.855 119.379 201.393Z" fill="#99B1E3"/>
<path fill-rule="evenodd" clip-rule="evenodd" d="M109.791 195.523C109.791 195.523 108.015 199.926 106.592 202.186C105.83 203.398 105.223 204.129 102.81 205.127C101.688 205.591 100.804 205.813 100.415 205.283C100.236 205.042 100.953 204.859 100.953 204.859C100.953 204.859 99.5873 205.347 99.041 204.755C98.4924 204.161 99.5249 204.054 99.5249 204.054C99.5249 204.054 98.0178 204.582 97.5104 203.96C97.0029 203.339 98.0975 203.23 98.0975 203.23C98.0975 203.23 96.7945 203.65 96.2945 203.208C95.7935 202.768 96.0951 202.483 96.9008 202.035C97.8424 201.506 100.003 200.227 101.033 198.54C102.13 196.748 101.949 194.984 103.51 194.236C105.067 193.49 105.987 191.452 105.987 191.452L109.791 195.523Z" fill="white"/>
<path fill-rule="evenodd" clip-rule="evenodd" d="M103.756 194.177C101.795 195.003 100.306 195.617 99.0612 195.967C97.7334 196.339 96.4429 196.863 96.6827 197.525C97.1469 198.818 102.688 197.098 102.688 197.098L103.756 194.177Z" fill="white"/>
<path fill-rule="evenodd" clip-rule="evenodd" d="M109.995 151.68C113.469 149.035 118.105 150.208 120.394 153.99C122.685 157.774 125.608 173.328 124.552 178.043C123.493 182.759 110.185 197.98 110.185 197.98C110.185 197.98 107.405 197.143 105.764 196.062C104.124 194.978 104.167 193.663 104.167 193.663C104.167 193.663 111.786 182.346 112.612 178.136C113.435 173.925 110.534 167.585 109.202 162.65C107.739 157.235 106.64 154.237 109.995 151.68Z" fill="#9FB8ED"/>
<path fill-rule="evenodd" clip-rule="evenodd" d="M131.431 138.595C131.666 138.969 131.565 139.453 131.375 139.85C131.01 140.612 129.12 142.416 126.303 142.895C123.467 143.377 121.863 142.908 121.066 142.567C120.652 142.39 120.344 142.042 120.205 141.611L118.974 137.841C118.974 137.841 115.995 138.527 114.908 137.543C113.818 136.559 108.382 122.73 112.057 118.43C115.735 114.13 125.266 113.56 127.854 119.828C130.445 126.096 128.099 130.11 128.099 131.664C128.099 132.938 130.488 137.082 131.431 138.595Z" fill="white"/>
<path fill-rule="evenodd" clip-rule="evenodd" d="M123.579 134.316C120.875 134.016 119.974 128.026 118.017 126.951C116.854 126.31 116.127 127.398 116.402 128.452C116.627 129.318 115.675 128.974 115.365 129.131C115.052 129.285 113.355 125.372 113.355 125.372C113.355 125.372 109.694 121.49 107.757 118.342C104.564 113.15 125.839 109.16 128.501 118.342C131.175 127.562 129.823 132.053 128.322 132.78C128.322 132.78 125.093 134.485 123.579 134.316Z" fill="#0F0C17"/>
<path d="M196.373 183.149C196.46 184.279 197.069 185.758 197.438 186.497C197.808 187.237 205.332 191.26 205.941 192.108C206.55 192.956 206.267 194.674 206.267 194.674C206.267 194.674 205.245 197.326 203.875 197.522C202.483 197.718 198.547 195.761 197.678 194.913C196.83 194.065 189.241 190.477 188.632 188.889C188.023 187.302 188.958 184.366 188.958 184.127C188.958 183.888 189.371 179.517 189.371 179.409C189.371 179.278 191.893 178.887 191.893 178.887L196.373 183.149Z" fill="#ADADAD"/>
<path d="M182.564 184.388C183.303 185.128 183.738 185.193 183.825 186.867C183.912 188.542 184.238 192.282 184.39 192.608C184.542 192.934 189.848 199.784 190.131 200.741C190.414 201.719 189.848 203.785 189.848 203.785C189.848 203.785 185.238 205.133 182.803 204.024C180.367 202.915 178.519 200.523 178.454 199.414C178.367 198.305 176.736 194.956 176.258 194.391C175.779 193.826 176.258 190.651 176.258 190.651C176.258 190.651 177.062 188.216 177.106 187.759C177.149 187.302 176.627 184.628 176.779 184.345C176.932 184.084 182.564 184.388 182.564 184.388Z" fill="#ADADAD"/>
<path d="M202.395 118.958C202.635 121.263 202.809 128.417 202.395 132.657C201.982 136.898 201.417 152.771 199.547 157.164C197.677 161.556 188.392 158.469 187.413 157.164C186.435 155.859 186.282 126.895 187.413 124.677C188.544 122.481 202.395 118.958 202.395 118.958Z" fill="black"/>
<path d="M195.068 128.025C195.068 128.025 195.96 134.027 194.416 135.68C192.872 137.311 188.958 138.528 188.958 138.528C188.958 138.528 186.522 159.142 185.696 161.665C184.891 164.187 180.086 165.079 177.389 164.513C174.693 163.948 174.128 158.729 174.128 158.403C174.128 158.077 172.997 139.333 172.671 134.94C172.084 126.938 174.062 123.046 174.389 122.72C174.715 122.394 195.068 128.025 195.068 128.025Z" fill="black"/>
<path d="M200.026 155.707C199.635 158.794 198.33 182.409 196.939 184.627C195.547 186.824 192.633 186.411 191.155 185.932C189.676 185.454 187.654 183.823 187.654 183.823C187.654 183.823 187.088 160.36 187.654 156.207C188.219 152.054 200.026 155.707 200.026 155.707Z" fill="black"/>
<path d="M186.021 160.23C185.782 163.927 185.543 187.216 184.803 189.26C184.064 191.304 177.301 191.782 176.258 189.26C175.192 186.737 173.17 168.341 173.17 164.666C173.17 160.991 175.127 155.62 175.214 155.294C175.279 154.99 186.021 160.23 186.021 160.23Z" fill="black"/>
<path d="M212.942 84.7097C213.269 85.1446 214.508 85.5577 215.073 89.5371C215.639 93.5164 214.617 98.5612 211.703 105.367C210.442 108.325 204.962 117.653 204.201 120.806C203.44 123.959 202.635 126.59 202.635 126.59C202.635 126.59 200.395 130.265 194.437 132.005C187.914 133.94 181.238 133.288 177.607 130.635C173.975 127.982 173.258 124.22 173.258 124.22C173.258 124.22 177.15 112.326 178.281 108.629C179.999 102.954 182.043 91.9508 183.087 89.5153C184.109 87.0799 191.632 83.2093 193.916 81.7741C196.22 80.3607 201.809 78.1427 205.375 78.9256C207.724 79.4474 205.614 80.2085 205.897 80.2085C206.18 80.2085 212.942 84.7097 212.942 84.7097Z" fill="#EB4869"/>
<path d="M189.605 103.218C189.605 103.218 189.192 108.263 188.061 113.481C186.931 118.7 187.083 123.245 185.213 125.376C183.343 127.485 179.189 125.289 178.689 122.766C178.211 120.244 180.19 106.11 180.625 104.631C181.06 103.131 189.605 103.218 189.605 103.218Z" fill="white"/>
<path d="M182.015 120.31C182.015 120.31 184.886 120.549 186.103 122.267C187.321 123.985 195.149 140.924 195.149 140.924C195.149 140.924 196.476 141.815 197.041 142.055C197.606 142.294 200.39 142.055 200.39 142.055C200.39 142.055 203.282 145.142 203.608 146.164C203.934 147.186 204.217 150.47 203.934 151.209C203.652 151.949 202.673 151.209 202.673 151.209L202.825 152.992L201.368 153.275C201.368 153.275 201.173 153.645 200.716 153.601C200.259 153.558 199.911 153.079 199.911 153.079C199.911 153.079 198.52 153.536 197.954 152.84C197.389 152.144 194.736 148.556 194.736 148.556L192.583 147.295C192.583 147.295 190.822 145.512 190.344 143.707C189.865 141.924 177.775 126.464 178.754 122.941C179.71 119.418 182.015 120.31 182.015 120.31Z" fill="white"/>
<path d="M184.973 89.8226C187.909 88.5831 191.78 90.9098 192.193 94.8239C192.606 98.738 189.909 109.719 188.931 110.372C187.952 111.024 179.385 108.523 179.994 106.61C180.603 104.674 181.994 91.0838 184.973 89.8226Z" fill="#EB4869"/>
<path d="M90.9477 201.367C92.4509 202.292 93.1726 203.938 93.0969 205.555C93.037 207.032 92.3154 208.483 90.9477 209.323L71.7767 221.107C66.3819 224.417 59.747 224.417 54.3522 221.107L35.8191 209.722C34.3119 208.797 33.5464 207.18 33.5224 205.555C33.4905 203.875 34.2561 202.186 35.8191 201.223L57.5619 187.865C61.0947 185.692 65.4449 185.692 68.9776 187.865L90.9477 201.367ZM79.8949 202.831C81.7131 201.702 81.7091 198.902 79.8829 197.781L68.0645 190.517C65.0701 188.675 61.3778 188.684 58.3833 190.534L46.4971 197.896C44.7068 199.003 44.7108 201.749 46.5011 202.852L57.6098 209.68C61.0907 211.814 65.389 211.81 68.862 209.654L79.8949 202.831Z" fill="#F6F6FC"/>
<path d="M93.1003 210.821V211.224V211.28C93.0405 212.756 92.3228 214.207 90.9512 215.048L87.0715 217.432L87.0675 217.437L71.7841 226.827C66.3893 230.137 59.7544 230.137 54.3596 226.827L40.101 218.065L35.8266 215.438C34.2396 214.458 33.4741 212.735 33.5259 211.029V205.547H33.5299C33.5538 207.168 34.3154 208.785 35.8266 209.714L54.3596 221.099C59.7544 224.408 66.3893 224.408 71.7841 221.099L90.9551 209.315C92.3228 208.471 93.0445 207.019 93.1043 205.547V210.821H93.1003Z" fill="url(#paint4_linear_600_22923)"/>
<path d="M93.1003 210.821V211.224V211.28C93.0405 212.756 92.3228 214.207 90.9512 215.048L87.0715 217.432L87.0675 217.437L71.7841 226.827C66.3893 230.137 59.7544 230.137 54.3596 226.827L40.101 218.065L35.8266 215.438C34.2396 214.458 33.4741 212.735 33.5259 211.029V205.547H33.5299C33.5538 207.168 34.3154 208.785 35.8266 209.714L54.3596 221.099C59.7544 224.408 66.3893 224.408 71.7841 221.099L90.9551 209.315C92.3228 208.471 93.0445 207.019 93.1043 205.547V210.821H93.1003Z" fill="#BBDCD8"/>
<path d="M71.7769 226.831L87.0603 217.44C81.1511 224.408 70.8758 229.899 70.8758 229.899C68.5352 231.333 65.9196 232.033 63.3079 231.995C63.2361 231.995 63.1643 231.995 63.0926 231.995C60.5606 231.995 58.0127 231.295 55.7479 229.899C55.7479 229.899 46.0029 225.032 40.0938 218.068L54.3524 226.831C59.7472 230.141 66.3861 230.141 71.7769 226.831Z" fill="#B7EAD2"/>
<path d="M71.7769 226.831L87.0603 217.44C81.1511 224.408 70.8758 229.899 70.8758 229.899C68.5352 231.333 65.9196 232.033 63.3079 231.995C63.2361 231.995 63.1643 231.995 63.0926 231.995C60.5606 231.995 58.0127 231.295 55.7479 229.899C55.7479 229.899 46.0029 225.032 40.0938 218.068L54.3524 226.831C59.7472 230.141 66.3861 230.141 71.7769 226.831Z" fill="#A4D1CC"/>
<path opacity="0.4" d="M77.4141 163.098C78.0084 163.424 78.4007 164.077 78.4504 164.753C81.1011 200.739 78.4536 164.795 81.098 200.697C81.1502 201.406 80.8249 202.14 80.2378 202.542L68.9822 210.258C65.5053 212.409 61.211 212.418 57.7301 210.284L46.0472 202.306C45.4624 201.906 45.1357 201.179 45.1827 200.472C47.5845 164.422 45.1305 201.256 47.6379 163.621L58.5036 158.054C61.4981 156.199 65.1903 156.195 68.1848 158.037L77.4141 163.098Z" fill="url(#paint5_radial_600_22923)"/>
<defs>
<linearGradient id="paint0_linear_600_22923" x1="-58.0553" y1="84.3003" x2="80.868" y2="317.858" gradientUnits="userSpaceOnUse">
<stop stop-color="#245795"/>
<stop offset="1" stop-color="#8AD3A8"/>
</linearGradient>
<linearGradient id="paint1_linear_600_22923" x1="-58.0553" y1="84.3003" x2="80.868" y2="317.858" gradientUnits="userSpaceOnUse">
<stop stop-color="#245795"/>
<stop offset="1" stop-color="#8AD3A8"/>
</linearGradient>
<linearGradient id="paint2_linear_600_22923" x1="270.325" y1="-154.15" x2="270.325" y2="110.376" gradientUnits="userSpaceOnUse">
<stop stop-color="#245795"/>
<stop offset="1" stop-color="#8AD3A8"/>
</linearGradient>
<linearGradient id="paint3_linear_600_22923" x1="161.633" y1="62.179" x2="161.633" y2="280.185" gradientUnits="userSpaceOnUse">
<stop stop-color="#245795"/>
<stop offset="1" stop-color="#8AD3A8"/>
</linearGradient>
<linearGradient id="paint4_linear_600_22923" x1="33.5175" y1="217.433" x2="93.0998" y2="217.433" gradientUnits="userSpaceOnUse">
<stop stop-color="#B7EAD2"/>
<stop offset="1" stop-color="#8AD3A8"/>
</linearGradient>
<radialGradient id="paint5_radial_600_22923" cx="0" cy="0" r="1" gradientUnits="userSpaceOnUse" gradientTransform="translate(63.1426 211.878) rotate(-90) scale(44.117 239.603)">
<stop stop-color="#8AD3A8"/>
<stop offset="1" stop-color="#245795" stop-opacity="0"/>
</radialGradient>
</defs>
</svg>
