<svg width="38" height="25" viewBox="0 0 38 25" fill="none" xmlns="http://www.w3.org/2000/svg"><g clip-path="url(#clip0_2310_1502)"><path d="M34.387.5H3.228l-.324.006a4.64 4.64 0 0 0-.705.062 2.38 2.38 0 0 0-.67.22 2.25 2.25 0 0 0-.985.986 2.37 2.37 0 0 0-.22.67 4.66 4.66 0 0 0-.063.705 15.91 15.91 0 0 0-.005.324v18.054c0 .108.002.216.005.324.006.235.02.472.062.705.04.233.114.459.22.67a2.24 2.24 0 0 0 .986.985c.215.11.434.18.67.222.233.041.47.055.705.061a19.433 19.433 0 0 0 .709.006h30.774l.385-.001c.107 0 .215-.002.324-.005a4.77 4.77 0 0 0 .705-.061c.233-.04.459-.115.67-.222.424-.216.769-.56.985-.985.11-.214.179-.434.22-.67.043-.233.056-.47.063-.705.003-.108.004-.216.005-.324V3.473c0-.108-.003-.216-.005-.324a4.67 4.67 0 0 0-.063-.705 2.354 2.354 0 0 0-.22-.67 2.252 2.252 0 0 0-.985-.985 2.384 2.384 0 0 0-.67-.221 4.697 4.697 0 0 0-.705-.062A16.16 16.16 0 0 0 34.772.5h-.385Z" fill="#000"/><path d="M34.387 1.3h.379c.102.001.205.002.308.005.18.005.39.015.585.05.17.03.312.077.45.147.273.139.495.361.634.635.07.136.116.278.146.45.035.193.045.403.05.584.003.102.004.204.004.308l.001.378v17.666c0 .102-.002.204-.005.306a4 4 0 0 1-.05.587 1.555 1.555 0 0 1-.146.447 1.45 1.45 0 0 1-.636.636c-.136.07-.278.116-.447.146-.2.035-.418.045-.582.05l-.313.004H3.232c-.102 0-.204-.002-.306-.004a4.078 4.078 0 0 1-.585-.05 1.572 1.572 0 0 1-.45-.147 1.438 1.438 0 0 1-.634-.635 1.57 1.57 0 0 1-.146-.45 3.911 3.911 0 0 1-.05-.584 14.956 14.956 0 0 1-.005-.306V3.478c0-.103.002-.205.005-.307.005-.18.014-.39.05-.586.026-.156.075-.308.146-.449a1.44 1.44 0 0 1 .635-.635c.141-.07.293-.12.449-.146.196-.035.406-.045.585-.05.103-.003.205-.004.307-.005h31.154Z" fill="#fff"/><path d="M10.11 8.602c.318-.398.533-.932.476-1.477-.465.023-1.032.307-1.361.705-.295.34-.556.897-.488 1.419.522.045 1.044-.26 1.373-.647Zm.47.748c-.758-.045-1.403.431-1.765.431-.362 0-.917-.408-1.517-.397a2.236 2.236 0 0 0-1.901 1.155c-.815 1.405-.215 3.489.577 4.632.385.567.849 1.19 1.46 1.167.578-.023.804-.374 1.505-.374.702 0 .906.374 1.517.363.634-.012 1.03-.567 1.415-1.133.442-.645.622-1.268.633-1.302-.01-.011-1.222-.476-1.233-1.869-.011-1.166.95-1.721.996-1.755-.543-.804-1.392-.895-1.687-.917m7.562-1.579c1.649 0 2.797 1.137 2.797 2.791 0 1.66-1.172 2.802-2.838 2.802h-1.825v2.903h-1.319V7.772h3.185Zm-1.866 4.486h1.513c1.148 0 1.801-.617 1.801-1.69 0-1.07-.653-1.683-1.795-1.683h-1.52v3.373Zm4.99 2.25c0-1.09.83-1.714 2.36-1.808l1.643-.1v-.471c0-.689-.453-1.066-1.26-1.066-.665 0-1.148.342-1.248.866h-1.19c.036-1.101 1.072-1.902 2.473-1.902 1.508 0 2.49.79 2.49 2.014v4.227h-1.218v-1.019h-.03c-.347.665-1.112 1.083-1.942 1.083-1.225 0-2.078-.73-2.078-1.825Zm4.003-.548v-.477l-1.466.094c-.824.053-1.254.36-1.254.895 0 .518.448.854 1.148.854.895 0 1.572-.571 1.572-1.366Zm2.386 4.58v-1.018c.083.011.283.023.389.023.582 0 .912-.247 1.112-.883l.118-.377-2.231-6.181h1.377l1.555 5.015h.03l1.553-5.015h1.343l-2.314 6.493c-.53 1.49-1.136 1.978-2.42 1.978-.1 0-.424-.011-.512-.035Z" fill="#000"/></g><defs><clipPath id="clip0_2310_1502"><path fill="#fff" transform="translate(0 .5)" d="M0 0h38v24H0z"/></clipPath></defs></svg>