<svg width="38" height="25" viewBox="0 0 38 25" fill="none" xmlns="http://www.w3.org/2000/svg"><g clip-path="url(#clip0_2310_1493)"><path opacity=".07" d="M35 .5H3c-1.7 0-3 1.3-3 3v18c0 1.7 1.4 3 3 3h32c1.7 0 3-1.3 3-3v-18c0-1.7-1.4-3-3-3Z" fill="#000"/><path d="M35 1.5c1.1 0 2 .9 2 2v18c0 1.1-.9 2-2 2H3c-1.1 0-2-.9-2-2v-18c0-1.1.9-2 2-2h32Z" fill="#006FCF"/><path d="M22.012 20.436v-8.421L37 12.028v2.326l-1.732 1.852L37 18.073v2.375h-2.766l-1.47-1.622-1.46 1.628-9.292-.02v.002Z" fill="#fff"/><path d="M23.013 19.512v-6.57h5.572v1.513h-3.768v1.028h3.678v1.488h-3.678v1.01h3.768v1.531h-5.572Z" fill="#006FCF"/><path d="m28.557 19.512 3.083-3.289-3.083-3.282h2.386l1.884 2.083 1.89-2.082H37v.051l-3.017 3.23L37 19.42v.093h-2.307l-1.917-2.103-1.898 2.104h-2.321v-.002Z" fill="#006FCF"/><path d="M22.71 4.54h3.614l1.269 2.881V4.54h4.46l.77 2.159.771-2.159H37v8.421H19l3.71-8.421Z" fill="#fff"/><path d="m23.395 5.455-2.916 6.566h2l.55-1.315h2.98l.55 1.315h2.05l-2.904-6.566h-2.31Zm.25 3.777.875-2.09.873 2.09h-1.748Z" fill="#006FCF"/><path d="M28.581 12.02V5.453l2.811.01L32.84 9.5l1.456-4.046H37v6.565l-1.74.016v-4.51l-1.644 4.494h-1.59L30.35 7.51v4.51h-1.769Z" fill="#006FCF"/></g><defs><clipPath id="clip0_2310_1493"><path fill="#fff" transform="translate(0 .5)" d="M0 0h38v24H0z"/></clipPath></defs></svg>