<svg width="38" height="25" viewBox="0 0 38 25" fill="none" xmlns="http://www.w3.org/2000/svg"><g clip-path="url(#clip0_2310_1534)"><path opacity=".07" d="M35 .5H3c-1.7 0-3 1.3-3 3v18c0 1.7 1.4 3 3 3h32c1.7 0 3-1.3 3-3v-18c0-1.7-1.4-3-3-3Z" fill="#000"/><path d="M35 1.5c1.1 0 2 .9 2 2v18c0 1.1-.9 2-2 2H3c-1.1 0-2-.9-2-2v-18c0-1.1.9-2 2-2h32Z" fill="#fff"/><path d="M15 19.5a7 7 0 1 0 0-14 7 7 0 0 0 0 14Z" fill="#EB001B"/><path d="M23 19.5a7 7 0 1 0 0-14 7 7 0 0 0 0 14Z" fill="#F79E1B"/><path d="M22 12.5c0-2.4-1.2-4.5-3-5.7-1.8 1.3-3 3.4-3 5.7 0 2.3 1.2 4.5 3 5.7 1.8-1.2 3-3.3 3-5.7Z" fill="#FF5F00"/></g><defs><clipPath id="clip0_2310_1534"><path fill="#fff" transform="translate(0 .5)" d="M0 0h38v24H0z"/></clipPath></defs></svg>