<svg width="37" height="36" viewBox="0 0 37 36" fill="none" xmlns="http://www.w3.org/2000/svg">
<g clip-path="url(#clip0_506_1127)">
<path d="M19.0866 5.82891C13.7921 11.1234 13.2577 11.6789 13.2577 11.8828C13.2577 12.0797 13.3983 12.2555 14.446 13.2961C15.339 14.182 15.6835 14.4844 15.8101 14.4844C15.9366 14.4844 16.1968 14.2664 16.7593 13.7109L17.5327 12.9375L18.1304 13.5422L18.728 14.1398L16.5483 16.2984C14.3476 18.4711 13.4827 19.2445 12.3296 20.0742C11.6194 20.5805 10.5999 21.1359 9.87568 21.4031C8.72256 21.8391 7.26709 21.9727 6.07881 21.7617C5.60771 21.6773 5.49521 21.6773 5.34053 21.7617C5.24209 21.8109 4.1874 22.8305 2.99912 24.0258C1.33975 25.6922 0.833496 26.2336 0.833496 26.3672C0.833496 26.6203 10.2132 36 10.4663 36C10.5999 36 11.1413 35.4938 12.8077 33.8344C14.003 32.6461 15.0155 31.5984 15.0647 31.5C15.1421 31.3523 15.1421 31.2328 15.0647 30.7969C14.9522 30.157 14.9382 29.032 15.0437 28.4062C15.1491 27.7312 15.564 26.557 15.9296 25.875C16.7663 24.3141 17.7437 23.1398 20.6476 20.2289L22.7358 18.1406L23.2913 18.7031L23.8538 19.2586L23.1015 20.032C22.5179 20.6297 22.3491 20.8477 22.3491 20.9953C22.3491 21.15 22.5741 21.4172 23.4952 22.3453C24.6343 23.4914 24.8663 23.6813 25.0702 23.5688C25.2882 23.4422 36.7702 11.9109 36.8054 11.7773C36.8265 11.7 36.728 11.3133 36.5944 10.9195C34.8437 5.89922 31.7429 2.48203 27.3413 0.71719C26.5397 0.400784 25.2812 0 25.0562 0C24.9647 0 22.9257 1.98985 19.0866 5.82891ZM25.8366 1.06172C29.9147 2.32031 33.0155 5.04141 34.8999 9.01406C35.1038 9.45 35.4202 10.2164 35.6101 10.7086L35.9476 11.6086L35.2163 12.3398L34.478 13.0781L29.1202 7.72031L23.7554 2.35547L24.4726 1.63828C24.8733 1.2375 25.2319 0.914062 25.2741 0.914062C25.3233 0.914062 25.5765 0.984375 25.8366 1.06172ZM28.5155 8.31094C31.4265 11.2219 33.8101 13.6406 33.8101 13.6758C33.8101 13.718 33.5288 14.0063 33.1913 14.3227L32.5655 14.8922L27.2288 9.55547L21.8921 4.21875L22.4897 3.62109C22.8132 3.29063 23.1155 3.02344 23.1577 3.02344C23.1929 3.02344 25.6116 5.40703 28.5155 8.31094ZM26.6593 10.1813L31.9819 15.5039L28.4452 19.0406L24.9155 22.5703L24.1421 21.7969L23.3757 21.0234L24.128 20.2641C24.7397 19.6453 24.8804 19.4555 24.8804 19.2938C24.8804 19.118 24.3952 18.5977 21.3296 15.5391C19.3749 13.5844 17.7226 11.9672 17.6593 11.9461C17.4624 11.8758 17.3007 11.9883 16.5272 12.7477L15.8101 13.4648L15.0155 12.6703L14.228 11.8828L17.7437 8.36719C19.6772 6.43359 21.2733 4.85156 21.2944 4.85156C21.3155 4.85156 23.7272 7.24922 26.6593 10.1813ZM20.746 16.1508L22.1312 17.5359L19.8671 19.8281C17.0476 22.6688 16.1968 23.6742 15.3249 25.2C14.5374 26.5852 14.1929 27.7312 14.1437 29.1797C14.1226 29.7422 14.1366 30.3398 14.1858 30.6562L14.2702 31.1766L12.3647 33.082L10.4663 34.9805L6.16318 30.6703L1.85303 26.3672L3.7585 24.4617L5.65693 22.5633L6.11396 22.6336C7.26006 22.8234 8.80693 22.6688 9.98818 22.2469C12.196 21.4594 14.0874 19.9969 18.0249 16.0383C18.721 15.3352 19.3046 14.7656 19.3257 14.7656C19.3468 14.7656 19.9866 15.3914 20.746 16.1508Z" fill="white"/>
<path d="M23.0737 10.322C22.3213 10.5892 21.787 11.1236 21.4987 11.8689C21.2737 12.4666 21.3299 13.2541 21.6393 13.8798C21.9135 14.4353 22.4268 14.9134 22.9823 15.1244C23.5518 15.3423 24.487 15.2931 25.0073 15.0189C25.5065 14.7658 25.9354 14.3228 26.1885 13.8095C26.3713 13.4439 26.3924 13.3244 26.3924 12.7267C26.3924 12.1501 26.3643 12.0025 26.2026 11.658C25.9635 11.1447 25.4713 10.6525 24.9651 10.4205C24.4307 10.1744 23.601 10.1322 23.0737 10.322ZM24.6487 11.208C25.9002 11.7916 25.858 13.7744 24.5854 14.3017C24.2268 14.4564 23.5096 14.4423 23.151 14.2806C22.3213 13.9009 21.9698 12.7619 22.4127 11.89C22.8065 11.1236 23.812 10.8212 24.6487 11.208Z" fill="white"/>
<path d="M8.20928 25.0523C7.49209 25.3547 6.99287 25.8258 6.67646 26.5008C6.51475 26.8453 6.49365 26.9789 6.49365 27.6328C6.49365 28.2797 6.51475 28.4203 6.67646 28.7578C6.94365 29.3344 7.44287 29.8406 7.99131 30.1078C8.42725 30.3258 8.50459 30.3398 9.20068 30.3398C9.89678 30.3398 9.96709 30.3258 10.4101 30.1078C10.9585 29.8406 11.4226 29.3625 11.7108 28.7719C11.8937 28.4062 11.9077 28.3008 11.9077 27.5977C11.9077 26.8664 11.8937 26.8031 11.6897 26.4023C11.4155 25.882 10.8741 25.3617 10.3397 25.1156C10.0163 24.968 9.8124 24.9258 9.271 24.9117C8.69443 24.8906 8.54678 24.9117 8.20928 25.0523ZM9.97412 25.882C11.2468 26.4516 11.4999 28.1742 10.4522 29.0672C9.74209 29.6789 8.65928 29.6789 7.94912 29.0672C6.91553 28.1883 7.15459 26.4727 8.39209 25.9031C8.85615 25.6852 9.52412 25.6781 9.97412 25.882Z" fill="white"/>
</g>
<defs>
<clipPath id="clip0_506_1127">
<rect width="36" height="36" fill="white" transform="translate(0.833496)"/>
</clipPath>
</defs>
</svg>
