<svg width="37" height="36" viewBox="0 0 37 36" fill="none" xmlns="http://www.w3.org/2000/svg">
<g clip-path="url(#clip0_506_1014)">
<path d="M22.1984 0.421875L21.2211 0.83672L21.0172 0.667969C20.8695 0.541407 20.7219 0.492188 20.525 0.492188C20.2508 0.492188 20.1875 0.534376 19.4281 1.27969C18.3875 2.30625 18.268 2.58047 18.6828 3.02344L18.8516 3.20625L18.4297 4.21172C18.1977 4.76016 18.0078 5.26641 18.0078 5.32969C18.0078 5.39297 18.1625 5.60391 18.3594 5.80078L18.7109 6.15234L16.8266 8.03672L14.9422 9.92109L14.4781 9.84375C13.543 9.69609 12.4672 10.0055 11.6375 10.6734C11.2578 10.9758 10.7234 11.7141 10.5266 12.2203C10.3438 12.6984 10.2734 13.4016 10.3508 13.957L10.4211 14.4422L8.53672 16.3266L6.65234 18.2109L6.30078 17.8594C6.10391 17.6625 5.89297 17.5078 5.82969 17.5078C5.76641 17.5078 5.26016 17.6977 4.71172 17.9297L3.72031 18.3516L3.50937 18.1758C3.36172 18.0492 3.22109 18 3.01719 18C2.74297 18 2.68672 18.0422 1.92734 18.7875C1.48438 19.2234 1.09062 19.6383 1.04844 19.7156C0.914844 19.9617 0.964063 20.3203 1.16094 20.5242L1.34375 20.7141L0.921875 21.7125C0.689844 22.2609 0.5 22.7531 0.5 22.8164C0.5 22.8797 0.654688 23.0977 0.851562 23.3016L1.20312 23.6742L1.02031 23.843C0.598437 24.2367 0.44375 24.7922 0.598437 25.3406C0.802344 26.0367 1.45625 26.6836 2.13828 26.8664C2.56016 26.9789 3.0875 26.8453 3.46016 26.5359C3.61484 26.4023 3.7625 26.2969 3.78359 26.2969C3.80469 26.2969 3.98047 26.4375 4.16328 26.6133C4.34609 26.7891 4.53594 26.9297 4.57812 26.9297C4.61328 26.9297 5.08437 26.7539 5.61172 26.543C6.14609 26.332 6.63125 26.1562 6.69453 26.1562C6.75781 26.1562 6.86328 26.2195 6.92656 26.2898C7.08828 26.4727 7.38359 26.5359 7.62969 26.4375C7.89687 26.3391 9.25391 25.0031 9.39453 24.7078C9.52812 24.4195 9.48594 24.1172 9.28203 23.9344C9.21172 23.8711 9.14844 23.7727 9.14844 23.7164C9.14844 23.6672 9.32422 23.2102 9.53516 22.7039C9.74609 22.1977 9.92188 21.7195 9.92188 21.6281C9.92188 21.5367 9.79531 21.3469 9.60547 21.1641C9.42969 20.9953 9.28906 20.8195 9.28906 20.7773C9.28906 20.7352 10.1258 19.8773 11.1383 18.8578L12.9945 17.0086L13.3039 17.0789C14.4078 17.3391 15.7578 16.8891 16.6016 15.982C17.4453 15.082 17.825 13.8516 17.5789 12.8039L17.5086 12.4945L19.3578 10.6383C20.3773 9.62578 21.2352 8.78906 21.2773 8.78906C21.3195 8.78906 21.4953 8.92969 21.6641 9.10547C21.8328 9.28125 22.0297 9.42188 22.1 9.42188C22.1703 9.42188 22.6555 9.24609 23.1758 9.03516C23.6891 8.82422 24.1602 8.64844 24.2164 8.64844C24.2727 8.64844 24.3711 8.71172 24.4344 8.78203C24.6172 8.98594 24.9195 9.02813 25.2008 8.89453C25.4961 8.75391 26.832 7.41094 26.9305 7.15078C27.0219 6.91172 26.9586 6.58125 26.7898 6.42656C26.7125 6.36328 26.6562 6.26484 26.6562 6.20859C26.6562 6.15937 26.832 5.70234 27.043 5.19609C27.2539 4.68984 27.4297 4.21875 27.4297 4.14141C27.4297 4.06406 27.2891 3.84609 27.1133 3.66328C26.9375 3.48047 26.7969 3.30469 26.7969 3.28359C26.7969 3.2625 26.9094 3.11484 27.043 2.95312C27.4648 2.44687 27.5211 1.86328 27.2117 1.25859C26.8531 0.548439 26.15 0.0703125 25.482 0.0703125C25.0461 0.0703125 24.7508 0.182814 24.4062 0.478127L24.1602 0.689064L23.7945 0.344532C23.5977 0.154688 23.3727 0 23.3023 0C23.232 0.00703049 22.7398 0.189844 22.1984 0.421875ZM25.6719 0.914062C25.7 0.914062 25.8828 1.04063 26.0727 1.18828C26.6352 1.63125 26.7125 2.00391 26.3258 2.46094L26.143 2.68594L25.4539 1.99688C24.8141 1.36406 24.7719 1.30078 24.8703 1.18828C25.018 1.01953 25.4047 0.83672 25.5172 0.878906C25.5734 0.9 25.6367 0.914062 25.6719 0.914062ZM26.2625 4.88672C26.1148 5.23828 25.9883 5.53359 25.9742 5.55469C25.9602 5.56875 25.032 4.66875 23.9141 3.55078C22.7961 2.43281 21.8961 1.50469 21.9102 1.48359C21.9312 1.46953 22.2266 1.33594 22.5641 1.18828L23.1758 0.928125L24.8492 2.59453L26.5227 4.26094L26.2625 4.88672ZM23.2953 4.12031C24.7789 5.61094 25.9953 6.85547 26.0094 6.87656C26.0164 6.90469 25.7703 7.17891 25.4609 7.48828L24.8984 8.04375L23.4078 6.57422C22.5852 5.76562 21.3336 4.53516 20.6305 3.83203L19.3508 2.56641L19.9273 1.98281C20.2437 1.66641 20.525 1.40625 20.5531 1.40625C20.5813 1.40625 21.8117 2.62969 23.2953 4.12031ZM23.5625 7.94531C23.5625 7.96641 23.2742 8.1 22.9156 8.24766L22.2758 8.52188L20.6023 6.84844L18.9359 5.18203L19.1469 4.68281C19.2594 4.40859 19.3859 4.10625 19.4211 4.01484C19.4914 3.84609 19.5898 3.9375 21.5234 5.87109C22.6484 6.99609 23.5625 7.92422 23.5625 7.94531ZM19.9977 7.43906L20.6797 8.12109L19.4633 9.3375L18.2539 10.5469L17.593 9.83672L16.932 9.12656L18.1203 7.93828C18.7742 7.28438 19.3086 6.75 19.3086 6.75C19.3086 6.75 19.618 7.05937 19.9977 7.43906ZM17.0234 10.4414L17.6914 11.1094L17.2203 11.5805C16.5945 12.2273 16.5805 12.2625 16.7141 12.8461C16.8477 13.4156 16.8125 13.943 16.5945 14.5266C16.3766 15.1102 15.6102 15.8766 15.0266 16.0945C14.443 16.3125 13.9156 16.3477 13.3461 16.2141C12.7625 16.0805 12.7273 16.0945 12.0805 16.7203L11.6094 17.1914L10.9273 16.5094L10.2453 15.8273L10.7937 15.2578C11.2789 14.7656 11.3422 14.6742 11.3 14.4984C11.1242 13.725 11.1031 13.4789 11.1805 13.0641C11.3844 11.8898 12.2211 11.0039 13.3953 10.7156C13.8664 10.5961 14.1969 10.6102 15.0055 10.8C15.1742 10.8422 15.2586 10.7859 15.7437 10.3078C16.0391 10.0195 16.2992 9.77344 16.3203 9.77344C16.3414 9.77344 16.6578 10.0758 17.0234 10.4414ZM9.8375 18.9633L8.62109 20.1797L7.93906 19.4977L7.25 18.8086L8.45937 17.5992L9.67578 16.3828L10.3578 17.0648L11.0469 17.7539L9.8375 18.9633ZM8.75469 22.3945C8.60703 22.7461 8.48047 23.0414 8.46641 23.0625C8.45234 23.0766 7.52422 22.1766 6.40625 21.0586C5.28828 19.9406 4.38828 19.0055 4.40937 18.9914C4.43047 18.9703 4.71875 18.8367 5.05625 18.6961L5.66797 18.4359L7.34141 20.1023L9.01484 21.7688L8.75469 22.3945ZM6.17422 21.9938L8.53672 24.4055L7.98125 24.968C7.67891 25.2703 7.40469 25.5164 7.37656 25.5094C7.29922 25.4742 1.90625 20.1023 1.90625 20.0531C1.90625 20.025 2.16641 19.7508 2.47578 19.4344L3.05234 18.8578L3.425 19.2164C3.63594 19.4203 4.87344 20.6648 6.17422 21.9938ZM6.05469 25.4531C6.05469 25.4742 5.75938 25.6078 5.40781 25.7555L4.76094 26.0227L3.09453 24.3563L1.42812 22.6898L1.63203 22.2047C1.75156 21.9375 1.87109 21.6352 1.91328 21.5367C1.98359 21.3539 2.02578 21.3891 4.01562 23.3789C5.14062 24.5039 6.05469 25.432 6.05469 25.4531ZM2.98203 25.8188C2.62344 26.1984 1.95547 26.0227 1.57578 25.4602C1.35078 25.1297 1.36484 24.75 1.60391 24.4688L1.78672 24.2438L2.47578 24.9328L3.17188 25.6219L2.98203 25.8188Z" fill="white"/>
<path d="M13.3388 11.6435C12.8607 11.7911 12.3052 12.3536 12.1365 12.8599C11.8412 13.7599 12.2912 14.8216 13.149 15.2294C13.4794 15.3911 14.1333 15.4404 14.513 15.3349C15.5748 15.0325 16.1935 13.7458 15.7576 12.7404C15.5466 12.2482 15.0404 11.7841 14.5552 11.6435C14.1052 11.5099 13.7888 11.5099 13.3388 11.6435ZM14.4216 12.4872C15.1037 12.7615 15.2865 13.6193 14.7873 14.1536C14.5201 14.4349 14.2669 14.5544 13.9224 14.5544C13.0083 14.5544 12.5443 13.4224 13.1771 12.7333C13.5005 12.3818 13.9435 12.2974 14.4216 12.4872Z" fill="white"/>
<path d="M31.2687 9.46406C30.7695 9.675 30.3266 9.84375 30.2773 9.84375C30.2352 9.84375 30.1367 9.78047 30.0734 9.71016C29.9047 9.52734 29.6094 9.47109 29.3633 9.5625C29.2508 9.60469 28.8781 9.91406 28.5336 10.2516C27.4719 11.2852 27.3242 11.5875 27.6758 12.0094C27.7742 12.1289 27.8516 12.2484 27.8516 12.2906C27.8516 12.3258 27.6758 12.7758 27.4648 13.2891C27.2539 13.8023 27.0781 14.2875 27.0781 14.3719C27.0781 14.4633 27.2117 14.6602 27.3945 14.8359C27.5703 15.0047 27.7109 15.1805 27.7109 15.2227C27.7109 15.2648 26.8742 16.1227 25.8617 17.1422L24.0055 18.9914L23.6961 18.9211C23.0211 18.7594 22.1492 18.8859 21.3969 19.2445C20.8625 19.5047 20.0047 20.3625 19.7445 20.8969C19.3859 21.6492 19.2594 22.5211 19.4211 23.1961L19.4914 23.5055L17.6422 25.3617C16.6227 26.3742 15.7648 27.2109 15.7227 27.2109C15.6805 27.2109 15.5047 27.0703 15.3359 26.8945C15.1602 26.7117 14.9633 26.5781 14.8719 26.5781C14.7875 26.5781 14.3023 26.7539 13.7891 26.9648C13.2758 27.1758 12.8187 27.3516 12.7695 27.3516C12.7273 27.3516 12.6289 27.2883 12.5656 27.218C12.3828 27.0141 12.0805 26.9719 11.7992 27.1055C11.4969 27.2461 10.168 28.5961 10.0625 28.8633C9.97109 29.1094 10.0273 29.4047 10.2102 29.5734C10.2805 29.6367 10.3438 29.7352 10.3438 29.7773C10.3438 29.8266 10.168 30.2836 9.95703 30.7969C9.74609 31.3102 9.57031 31.7953 9.57031 31.8797C9.57031 31.9711 9.70391 32.168 9.88672 32.3437C10.0625 32.5125 10.2031 32.6742 10.2031 32.7023C10.2031 32.7305 10.0906 32.8852 9.95703 33.0469C9.40156 33.7078 9.47891 34.5305 10.175 35.2969C10.8641 36.0563 12.0383 36.1406 12.6641 35.4727L12.8258 35.2969L13.1984 35.6484C13.4023 35.8453 13.5992 36 13.6273 36C13.6625 36 14.1617 35.8102 14.7312 35.5781L15.7789 35.1562L15.9828 35.332C16.1305 35.4586 16.2781 35.5078 16.475 35.5078C16.7492 35.5078 16.8055 35.4656 17.6281 34.643C18.4648 33.8203 18.5 33.7711 18.5 33.4898C18.5 33.2789 18.4508 33.1383 18.3242 32.9906L18.1484 32.7797L18.5703 31.7812C18.8023 31.2258 18.9922 30.7336 18.9922 30.6773C18.9922 30.6211 18.8375 30.4102 18.6406 30.2062L18.2961 29.8406L20.1734 27.9633L22.0578 26.0789L22.5219 26.1492C24.0687 26.3672 25.5945 25.5375 26.3047 24.0961C26.6422 23.4141 26.7477 22.7461 26.6492 22.0219L26.5789 21.5578L28.4633 19.6734L30.3477 17.7891L30.6992 18.1406C30.8961 18.3375 31.0859 18.4922 31.1281 18.4922C31.1703 18.4922 31.6695 18.3023 32.2391 18.0703L33.2867 17.6484L33.4906 17.8242C33.6383 17.9508 33.7859 18 33.9828 18C34.257 18 34.3133 17.9578 35.1359 17.1352C35.9727 16.3125 36.0078 16.2633 36.0078 15.982C36.0078 15.7711 35.9586 15.6305 35.832 15.4828L35.6562 15.2719L36.0781 14.2734C36.3102 13.718 36.5 13.2258 36.5 13.1695C36.5 13.1133 36.3453 12.9023 36.1484 12.6984L35.7969 12.3258L35.9727 12.1641C36.3945 11.7633 36.5562 10.9828 36.3242 10.4273C36.0641 9.81562 35.3328 9.20391 34.7352 9.10547C34.3766 9.04219 33.9266 9.18281 33.5187 9.47109L33.1742 9.71719L32.8508 9.39375C32.6328 9.17578 32.4641 9.07031 32.3516 9.07734C32.2531 9.07734 31.768 9.25312 31.2687 9.46406ZM34.9602 10.0758C35.0938 10.1602 35.3047 10.3922 35.4312 10.582C35.6984 10.9758 35.6914 11.1375 35.3961 11.5242L35.2133 11.7562L34.5242 11.0672C34.1375 10.6875 33.8281 10.35 33.8281 10.3219C33.8281 10.2375 34.4187 9.91406 34.5734 9.91406C34.6578 9.91406 34.8266 9.98437 34.9602 10.0758ZM33.9055 11.6437L35.5719 13.3102L35.3117 13.9289C35.1641 14.2734 35.0305 14.5687 35.0164 14.5898C34.9953 14.6039 34.0672 13.7039 32.9492 12.5859C31.8312 11.468 30.9312 10.5398 30.9453 10.5258C30.9875 10.4977 32.1547 9.99844 32.2109 9.99141C32.232 9.98437 32.9914 10.7297 33.9055 11.6437ZM32.3305 13.1555C33.8281 14.6672 35.0656 15.9187 35.0797 15.9469C35.0867 15.975 34.8406 16.2492 34.5383 16.5516L33.9758 17.107L31.4586 14.632C30.0734 13.275 28.8148 12.0375 28.6672 11.8758L28.393 11.5945L28.9836 10.9969C29.307 10.6734 29.5742 10.4062 29.5883 10.4062C29.5953 10.4062 30.8258 11.6437 32.3305 13.1555ZM30.6289 14.9766C32.5625 16.9102 32.6539 17.0086 32.4852 17.0789C32.3937 17.1141 32.0914 17.2406 31.8172 17.3531L31.318 17.5641L29.6516 15.8977L27.9781 14.2242L28.2523 13.5844C28.4 13.2258 28.5336 12.9375 28.5547 12.9375C28.5758 12.9375 29.5039 13.8516 30.6289 14.9766ZM29.0609 16.5023L29.75 17.1914L28.5758 18.3656C27.9289 19.0195 27.3664 19.5469 27.3242 19.5469C27.2891 19.5469 26.9727 19.2445 26.6281 18.8719L26.0023 18.1969L26.4875 17.6977C27.6266 16.5094 28.3086 15.8203 28.3438 15.8203C28.3578 15.8203 28.6883 16.1297 29.0609 16.5023ZM26.6562 20.0883C26.7406 20.1656 26.6773 20.257 26.1992 20.7422L25.6508 21.2977L25.7352 21.8109C25.7844 22.0922 25.8406 22.3594 25.8547 22.4086C25.9039 22.5984 25.7281 23.4 25.5523 23.7656C25.3133 24.2578 24.7578 24.8133 24.2656 25.0523C23.9 25.2281 23.0984 25.4039 22.9086 25.3547C22.8594 25.3406 22.5922 25.2844 22.3109 25.2352L21.7977 25.1508L21.2422 25.6992C20.757 26.1773 20.6656 26.2406 20.5883 26.1562C20.5391 26.1 20.2297 25.7766 19.9062 25.4391L19.3156 24.8203L19.857 24.2648C20.1523 23.9625 20.3984 23.7023 20.3984 23.6883C20.3984 23.6742 20.3492 23.4844 20.293 23.2734C19.7305 21.1852 21.6781 19.2375 23.7664 19.793C24.2375 19.9125 24.343 19.8703 24.9336 19.2727L25.3484 18.8438L25.9531 19.4203C26.2836 19.7367 26.6 20.0391 26.6562 20.0883ZM20.0469 26.8242C20.0469 26.8664 19.5195 27.4289 18.8656 28.0758L17.6914 29.25L16.9883 28.5469L16.2852 27.8438L17.4734 26.6555L18.6617 25.4672L19.3578 26.107C19.7375 26.4586 20.0469 26.782 20.0469 26.8242ZM16.3977 29.1516L18.0641 30.818L17.818 31.4227C17.6773 31.7531 17.5437 32.0484 17.5227 32.0766C17.4945 32.1047 16.5594 31.2117 15.4414 30.0938C14.3234 28.9758 13.4234 28.0477 13.4375 28.0336C13.4867 27.9984 14.6609 27.4992 14.7031 27.4922C14.7242 27.4922 15.4836 28.2375 16.3977 29.1516ZM12.3898 28.1742C12.5375 28.3219 13.775 29.5734 15.1391 30.9586L17.607 33.4758L17.0516 34.0383C16.7492 34.3406 16.475 34.5867 16.4469 34.5797C16.4187 34.5656 15.1602 33.3281 13.6484 31.8234L10.8992 29.0883L11.4828 28.4977C11.7992 28.1812 12.0734 27.9141 12.0875 27.9141C12.1016 27.9141 12.2422 28.0336 12.3898 28.1742ZM13.1211 32.4844C15.0547 34.418 15.1461 34.5164 14.9773 34.5867C14.8859 34.6219 14.5836 34.7484 14.3094 34.8609L13.8102 35.0719L12.1437 33.4055L10.4773 31.7391L10.7445 31.0922C10.8922 30.7406 11.0258 30.4453 11.0469 30.4453C11.068 30.4453 11.9961 31.3594 13.1211 32.4844ZM12.0172 34.8891C11.532 35.3039 10.7727 34.9945 10.5266 34.2773C10.4141 33.9539 10.4562 33.7359 10.6742 33.4969L10.85 33.307L11.5461 34.0031L12.2492 34.6992L12.0172 34.8891Z" fill="white"/>
<path d="M22.3884 20.6927C21.9947 20.8403 21.5447 21.213 21.3408 21.5505C21.0595 22.0427 21.0173 22.7669 21.2564 23.2802C21.9525 24.7989 23.9775 24.8622 24.7369 23.3856C24.99 22.9005 25.0111 22.113 24.779 21.6911C24.5751 21.3114 24.1603 20.9247 23.7736 20.7489C23.415 20.5872 22.754 20.5591 22.3884 20.6927ZM23.6822 21.6419C24.3361 22.1059 24.2306 23.1114 23.4923 23.4841C23.1408 23.6599 22.8595 23.6599 22.515 23.4841C21.7908 23.1184 21.7486 22.0778 22.4447 21.5997C22.754 21.3817 23.3517 21.4028 23.6822 21.6419Z" fill="white"/>
</g>
<defs>
<clipPath id="clip0_506_1014">
<rect width="36" height="36" fill="white" transform="translate(0.5)"/>
</clipPath>
</defs>
</svg>
