<svg width="37" height="36" viewBox="0 0 37 36" fill="none" xmlns="http://www.w3.org/2000/svg">
<g clip-path="url(#clip0_506_3548)">
<path d="M6.55781 2.89687C6.50156 2.98827 6.43828 3.30468 6.41016 3.59999C6.31875 4.55624 6.31875 4.55624 5.86172 4.74609L5.44688 4.91483L4.82812 4.42265C4.39219 4.07812 4.16016 3.93749 4.0125 3.93749C3.84375 3.93749 3.63984 4.09921 2.87344 4.87265C2.2125 5.53359 1.94531 5.84999 1.94531 5.96952C1.94531 6.06796 2.14219 6.38437 2.44453 6.75702L2.94375 7.3828L2.775 7.80468C2.59219 8.2828 2.64844 8.25468 1.66406 8.37421C1.25625 8.42343 0.946875 8.49374 0.876562 8.56405C0.764062 8.65546 0.75 8.81718 0.75 9.96327C0.75 10.6734 0.778125 11.3133 0.820312 11.3836C0.911719 11.5594 0.982031 11.5805 1.83984 11.6789L2.59219 11.7633L2.76094 12.15C2.85234 12.3609 2.92969 12.5648 2.92969 12.6C2.92969 12.6351 2.70469 12.9445 2.4375 13.282C2.15625 13.6406 1.94531 13.9781 1.94531 14.0695C1.94531 14.175 2.23359 14.5195 2.87344 15.1664C3.61172 15.9117 3.84375 16.1016 3.99141 16.1016C4.125 16.1016 4.36406 15.9609 4.73672 15.6726C5.03906 15.4336 5.32031 15.2086 5.3625 15.1734C5.43281 15.1242 6.10078 15.3422 6.24844 15.4617C6.27656 15.4898 6.33984 15.8414 6.38203 16.2422C6.50156 17.3672 6.39609 17.2969 8.02734 17.2969C9.17344 17.2969 9.40547 17.2758 9.49687 17.1844C9.6375 17.0508 9.60234 17.1562 9.70078 16.4531L9.78516 15.8555L10.0945 16.2562L10.3969 16.657L10.1086 17.325C9.95391 17.6976 9.80625 18.0773 9.77812 18.1828C9.75 18.2812 9.69375 18.3797 9.65156 18.3937C9.60938 18.4078 8.95547 18.4992 8.21016 18.5836C6.97969 18.7312 6.83203 18.7594 6.71953 18.907C6.59297 19.0547 6.58594 19.2234 6.58594 21.0937C6.58594 22.2258 6.61406 23.2031 6.65625 23.3016C6.74062 23.5266 6.79688 23.5406 8.39297 23.7234L9.69375 23.8711L9.88359 24.3984C9.99609 24.6867 10.1508 25.0594 10.2281 25.2211C10.3125 25.3828 10.3828 25.5516 10.3828 25.5867C10.3828 25.6289 9.98906 26.1633 9.50391 26.768C9.01875 27.3797 8.625 27.9422 8.625 28.0195C8.625 28.1109 9.16641 28.7086 10.1578 29.693C11.4375 30.9726 11.7188 31.2187 11.8875 31.2187C12.0422 31.2187 12.3445 31.0148 13.118 30.3961C13.6805 29.9461 14.1797 29.5523 14.2148 29.5242C14.257 29.4961 14.475 29.5594 14.707 29.6719C14.9391 29.7844 15.3258 29.9461 15.5648 30.0234C16.0711 30.1992 16.0148 30.0516 16.1836 31.6055C16.2469 32.1469 16.3102 32.6883 16.3312 32.8148C16.4016 33.2648 16.3594 33.2578 18.743 33.2578C20.7961 33.2578 20.9156 33.2508 21.0281 33.1242C21.1266 33.0187 21.1898 32.6953 21.2883 31.8023C21.4922 30.0375 21.4359 30.1922 21.8648 30.0516C22.0688 29.9883 22.4484 29.8266 22.7227 29.7C22.9969 29.5664 23.243 29.4891 23.2852 29.5242C23.3203 29.5523 23.8195 29.9531 24.3891 30.4031C25.1555 31.0148 25.4719 31.2187 25.6195 31.2187C25.7883 31.2187 26.0695 30.9656 27.3492 29.6859C28.1859 28.8422 28.875 28.1109 28.875 28.0617C28.875 27.9 28.7203 27.682 27.9117 26.6555C27.3844 26.0016 27.1172 25.6078 27.1453 25.5305C27.1594 25.4672 27.3211 25.0734 27.4969 24.6445L27.8133 23.8711L29.1352 23.7164C29.8594 23.632 30.5203 23.5476 30.6047 23.5266C30.8859 23.4562 30.9141 23.2312 30.9141 21.0867C30.9141 19.0687 30.9141 19.0476 30.7523 18.893C30.6187 18.7523 30.4359 18.7101 29.1914 18.5695C28.418 18.4851 27.7852 18.4078 27.7781 18.4008C27.7711 18.3937 27.7008 18.1828 27.6164 17.9297C27.532 17.6766 27.3703 17.2969 27.2648 17.0859L27.0609 16.6992L27.3914 16.2773L27.7148 15.8555L27.7992 16.4883C27.8555 16.9383 27.9187 17.1422 28.0031 17.2055C28.0945 17.2758 28.4812 17.2969 29.4516 17.2969C31.0547 17.2969 31.0125 17.318 31.0898 16.4742C31.1742 15.4828 31.1742 15.4758 31.6453 15.2859C31.8773 15.1945 32.0953 15.1453 32.1375 15.1734C32.1797 15.2086 32.4609 15.4266 32.7562 15.6656C33.5297 16.2914 33.5016 16.2984 34.6266 15.1664C35.2172 14.5687 35.5547 14.175 35.5547 14.0836C35.5547 13.9992 35.3578 13.6758 35.1187 13.3594C34.8727 13.043 34.6477 12.7476 34.6125 12.6984C34.5773 12.6422 34.6125 12.4523 34.718 12.1851L34.8867 11.7562L35.4141 11.707C36.2297 11.6297 36.5602 11.5523 36.6586 11.4187C36.7289 11.3273 36.75 10.9476 36.75 9.98437C36.75 8.3953 36.7922 8.46562 35.8289 8.36015C34.8375 8.25468 34.8867 8.2828 34.7109 7.80468L34.5562 7.3828L34.7953 7.08749C35.3438 6.41249 35.5547 6.09609 35.5547 5.96249C35.5547 5.86405 35.2242 5.47733 34.6266 4.87265C33.4875 3.71952 33.5227 3.73359 32.6648 4.42265L32.0531 4.91483L31.6453 4.74609C31.1812 4.55624 31.1812 4.55624 31.0898 3.59999C31.0125 2.70702 31.0828 2.74218 29.4375 2.74218C27.7852 2.74218 27.8625 2.69999 27.7852 3.64218C27.7078 4.53515 27.7008 4.55624 27.2367 4.74609L26.8289 4.9078L26.2172 4.42265C25.3453 3.73359 25.3875 3.72655 24.2484 4.87265C23.6578 5.4703 23.3203 5.86405 23.3203 5.95546C23.3203 6.03983 23.5312 6.3703 23.7844 6.69374C24.0375 7.01015 24.2625 7.31952 24.2836 7.36171C24.3047 7.41093 24.2484 7.6289 24.157 7.83984C23.9812 8.27577 24.0234 8.25468 23.0812 8.36718C22.4062 8.45156 22.2375 8.5078 22.1672 8.69062C22.1461 8.74687 22.125 9.36562 22.125 10.0617C22.125 11.2289 22.132 11.3273 22.2656 11.4609C22.343 11.5383 22.4414 11.6016 22.4836 11.6016C22.5258 11.6016 22.8633 11.6367 23.2359 11.6789C23.8969 11.7562 24.0938 11.8406 24.0938 12.0516C24.0938 12.0937 23.9039 12.2836 23.6648 12.4664L23.243 12.8109L22.5961 12.5226C22.2375 12.368 21.8648 12.2203 21.7523 12.1992C21.6469 12.1711 21.5414 12.1148 21.5133 12.0726C21.4922 12.0375 21.4008 11.3906 21.3094 10.6312C21.1898 9.60468 21.1195 9.23202 21.0281 9.13358C20.9156 9.00702 20.775 8.99999 18.75 8.99999C16.725 8.99999 16.5844 9.00702 16.4719 9.13358C16.3805 9.23202 16.3102 9.60468 16.1906 10.6312C16.0992 11.3906 16.0078 12.0375 15.9867 12.0726C15.9586 12.1148 15.8531 12.1711 15.7477 12.1992C15.6352 12.2203 15.2625 12.368 14.9039 12.5226L14.257 12.8109L13.8352 12.4664C13.1602 11.932 13.2375 11.7914 14.2711 11.6789C15.1711 11.5805 15.1922 11.5734 15.2977 11.3484C15.3891 11.1375 15.4031 8.94374 15.3117 8.69765C15.2273 8.48671 15.1641 8.45859 14.4117 8.36718C13.4695 8.24765 13.5117 8.26874 13.3359 7.83984C13.2516 7.6289 13.1953 7.41796 13.2164 7.36874C13.2375 7.31952 13.4625 7.01015 13.7156 6.69374C13.9688 6.3703 14.1797 6.03983 14.1797 5.95546C14.1797 5.86405 13.8422 5.4703 13.2516 4.87265C12.1055 3.71952 12.1406 3.72655 11.2688 4.42265L10.6641 4.9078L10.2773 4.74609C10.0594 4.66171 9.86953 4.57734 9.85547 4.55624C9.83437 4.54218 9.77109 4.16249 9.70781 3.72655C9.65156 3.28359 9.56719 2.8828 9.525 2.83359C9.46875 2.76327 9.09609 2.74218 8.05547 2.74218C6.68437 2.74218 6.65625 2.74218 6.55781 2.89687ZM8.87109 3.74062C8.88516 3.83202 8.93437 4.16249 8.96953 4.48593C9.00469 4.80234 9.06797 5.11171 9.11719 5.16796C9.16641 5.22421 9.33516 5.30859 9.48984 5.35077C9.65156 5.39296 9.96094 5.51952 10.1859 5.63202C10.4109 5.74452 10.643 5.83593 10.7063 5.83593C10.7766 5.83593 11.0648 5.65312 11.3602 5.42812C11.6484 5.21015 11.9367 4.99921 11.9859 4.96405C12.0562 4.92187 12.232 5.04843 12.6047 5.42109C12.893 5.70234 13.125 5.96249 13.125 5.99765C13.125 6.02577 12.9211 6.32108 12.668 6.65155C12.4148 6.98202 12.2109 7.28437 12.2109 7.31952C12.2109 7.36171 12.3164 7.62187 12.45 7.89609C12.5836 8.17734 12.7102 8.5078 12.7383 8.63437C12.7664 8.76093 12.8508 8.90859 12.9352 8.96484C13.0617 9.04218 14.0883 9.21093 14.4469 9.21093C14.5172 9.21093 14.5312 9.39374 14.5172 9.99843L14.4961 10.793L13.7578 10.8984C13.35 10.9547 12.9773 11.032 12.9281 11.0601C12.8789 11.0953 12.8016 11.2148 12.7523 11.3273L12.668 11.5312L12.3586 11.2851C12.1898 11.1516 11.9719 11.0391 11.8734 11.0391C11.7328 11.0391 11.3602 11.3695 10.193 12.5297C9.36328 13.3523 8.67422 14.0976 8.64609 14.1891C8.61797 14.3016 8.66719 14.4422 8.81484 14.6461C9.03984 14.9625 9.03984 15.0398 8.86406 16.2281L8.82891 16.4601L8.04141 16.4391L7.25391 16.418L7.16953 15.6937C7.12031 15.293 7.05 14.9203 7.00781 14.8711C6.96562 14.8148 6.76172 14.7164 6.56484 14.6531C6.36094 14.5898 6.05156 14.4633 5.86875 14.3719C5.68594 14.2805 5.46094 14.2031 5.37656 14.2031C5.28516 14.2031 4.96172 14.407 4.63125 14.6742L4.04062 15.1383L3.48516 14.5828L2.92266 14.0203L3.38672 13.4367C3.74531 12.9797 3.84375 12.8039 3.84375 12.6211C3.84375 12.4875 3.81562 12.368 3.77344 12.3398C3.73828 12.3187 3.60469 12.0305 3.47812 11.7C3.35859 11.3695 3.19687 11.0672 3.13359 11.032C3.06328 10.9969 2.69062 10.9336 2.30391 10.8844L1.59375 10.8V10.0055C1.59375 9.41484 1.61484 9.21093 1.68516 9.21093C1.88906 9.2039 3.13359 9.01406 3.19687 8.97187C3.23906 8.95077 3.32344 8.76093 3.39375 8.55702C3.45703 8.36015 3.60469 8.00858 3.71719 7.78359C3.94922 7.31249 3.94922 7.29843 3.32344 6.5039L2.93672 6.01171L3.48516 5.45624L4.04062 4.90077L4.64531 5.37187C4.98281 5.62499 5.30625 5.83593 5.3625 5.83593C5.41875 5.83593 5.66484 5.74452 5.90391 5.63202C6.14297 5.51952 6.48047 5.38593 6.64922 5.33671C7.02891 5.22421 7.11328 5.04843 7.18359 4.2539C7.21172 3.94452 7.24687 3.67031 7.26797 3.63515C7.28203 3.60702 7.64062 3.58593 8.0625 3.58593C8.80781 3.58593 8.83594 3.59296 8.87109 3.74062ZM30.3375 4.35937C30.3867 4.76718 30.4641 5.1328 30.5133 5.17499C30.5625 5.21718 30.8016 5.32265 31.0547 5.41405C31.3078 5.49843 31.6102 5.63202 31.7297 5.70234C31.8492 5.77968 32.0109 5.83593 32.0883 5.83593C32.1656 5.83593 32.5031 5.62499 32.8406 5.36484L33.4523 4.89374L34.0078 5.44921L34.5562 5.99765L34.0711 6.62343C33.8039 6.97499 33.5859 7.28437 33.5859 7.31952C33.5859 7.35468 33.6773 7.56562 33.7898 7.79062C33.8953 8.00858 34.043 8.36015 34.1063 8.56405C34.2469 8.99296 34.3172 9.03515 34.8867 9.09843C35.1187 9.12655 35.4422 9.16171 35.6109 9.18984L35.9062 9.22499V10.0195V10.807L35.1539 10.8914C34.732 10.9406 34.3523 11.018 34.3031 11.0672C34.2539 11.1094 34.1414 11.3555 34.05 11.6086C33.9586 11.8547 33.818 12.1992 33.7336 12.3609C33.5508 12.7125 33.5578 12.7336 34.1555 13.507L34.5633 14.0414L34.0078 14.5898L33.4523 15.1453L32.8406 14.6742C32.5031 14.4141 32.1727 14.2031 32.0953 14.2031C32.025 14.2031 31.8141 14.2805 31.6312 14.3719C31.4484 14.4633 31.1391 14.5898 30.9352 14.6531C30.7383 14.7164 30.5344 14.8148 30.4922 14.8711C30.45 14.9203 30.3727 15.293 30.3305 15.6937L30.2461 16.418L29.4586 16.4391L28.6711 16.4601L28.6359 16.2281C28.4461 14.8992 28.4461 14.9766 28.6781 14.6531C28.8258 14.4422 28.882 14.3016 28.8539 14.1891C28.8258 14.0976 28.1367 13.3523 27.307 12.5297C26.1398 11.3695 25.7672 11.0391 25.6266 11.0391C25.5281 11.0391 25.3102 11.1516 25.1414 11.2851L24.832 11.5312L24.7477 11.3344C24.6211 11.018 24.5086 10.9687 23.7141 10.8844L22.9688 10.8V10.0125V9.23202L23.2359 9.18984C23.3766 9.16874 23.7 9.12655 23.9531 9.09843C24.2062 9.07734 24.4734 9.01406 24.5508 8.96484C24.6352 8.91562 24.7547 8.69765 24.825 8.46562C24.8953 8.23359 25.0289 7.90312 25.1203 7.7203C25.2117 7.53749 25.2891 7.35468 25.2891 7.31952C25.2891 7.28437 25.0711 6.97499 24.7969 6.63046L24.3117 6.01171L24.8531 5.46327C25.1484 5.16796 25.4086 4.92187 25.4367 4.92187C25.4578 4.92187 25.7391 5.12577 26.0625 5.3789C26.3859 5.63202 26.7094 5.83593 26.7797 5.83593C26.85 5.83593 27.0891 5.74452 27.3141 5.63202C27.5391 5.51952 27.8484 5.39296 28.0102 5.35077C28.1648 5.30859 28.3336 5.22421 28.3828 5.16796C28.432 5.11171 28.5094 4.73905 28.5656 4.33827C28.6148 3.94452 28.657 3.61405 28.657 3.59999C28.6641 3.59296 29.0227 3.59296 29.4516 3.59999L30.2461 3.62109L30.3375 4.35937ZM20.3672 9.92812C20.3883 10.4414 20.7188 12.607 20.7891 12.6844C20.8383 12.7476 21.0914 12.8601 21.3586 12.9375C21.6187 13.0148 22.118 13.2258 22.4625 13.3945C22.8141 13.5703 23.1727 13.7109 23.2641 13.7109C23.468 13.7109 23.693 13.5562 24.7969 12.6562L25.5914 12.0164L26.7094 13.1273C27.3211 13.7391 27.8203 14.2664 27.8203 14.2945C27.8203 14.3297 27.4406 14.8359 26.9766 15.4195C26.5125 16.0101 26.1328 16.5375 26.1328 16.5937C26.1328 16.65 26.2312 16.8891 26.3578 17.1211C26.4773 17.3531 26.6953 17.8734 26.8359 18.2812C27.1523 19.2023 27.1664 19.2164 28.6289 19.3711C29.2125 19.4273 29.768 19.4976 29.8805 19.5187L30.0703 19.5609V21.1289C30.0703 21.9937 30.0492 22.718 30.0141 22.732C29.9859 22.7531 29.3812 22.8375 28.6641 22.9219C27.9469 23.0062 27.3 23.1117 27.2227 23.168C27.1312 23.2242 27.0117 23.4633 26.9062 23.8078C26.8148 24.1172 26.5969 24.6445 26.4281 24.982C26.0484 25.7555 26.0273 25.6992 27.0609 26.9789C27.4758 27.4922 27.8203 27.9422 27.8203 27.9703C27.8203 27.9984 27.3141 28.5258 26.7023 29.1375L25.5844 30.2555L24.4875 29.4047C23.8828 28.9336 23.3414 28.5469 23.2922 28.5469C23.2359 28.5469 22.9266 28.6734 22.6031 28.8281C22.2797 28.9898 21.7594 29.1937 21.4359 29.2922C20.9648 29.4398 20.8383 29.5031 20.7609 29.6648C20.6836 29.8055 20.3672 31.9992 20.3672 32.3719C20.3672 32.4351 17.1328 32.4281 17.1328 32.3578C17.1328 32.3297 17.0555 31.7109 16.9641 30.9797C16.8586 30.143 16.7602 29.6226 16.7039 29.5664C16.6477 29.5242 16.3031 29.3766 15.9375 29.257C15.5719 29.1305 15.0727 28.9195 14.8336 28.7859C14.5945 28.6523 14.3414 28.5469 14.2711 28.5469C14.0812 28.5469 13.7508 28.7719 12.7945 29.5453L11.9227 30.2555L10.8539 29.2148C10.2703 28.6383 9.74297 28.132 9.69375 28.0828C9.61641 28.0195 9.75703 27.8016 10.4391 26.9367C10.9102 26.3531 11.3039 25.8117 11.332 25.7414C11.3602 25.65 11.2617 25.3758 11.0648 24.982C10.8891 24.6445 10.6852 24.1523 10.6008 23.8851C10.5234 23.625 10.425 23.3508 10.3898 23.2805C10.2914 23.1117 9.93281 23.0273 8.66016 22.8867C8.08359 22.8234 7.56328 22.7601 7.52109 22.7461C7.45078 22.725 7.42969 22.3383 7.42969 21.1359V19.5469L7.59141 19.5187C7.67578 19.4976 8.29453 19.4203 8.96953 19.3359C9.64453 19.2586 10.2352 19.1601 10.2844 19.118C10.3336 19.0758 10.4461 18.8297 10.5234 18.5766C10.6078 18.3164 10.8328 17.7891 11.0227 17.3953C11.3109 16.8047 11.3602 16.657 11.3039 16.5094C11.2547 16.3687 10.1719 14.9555 9.70781 14.4141C9.62344 14.3156 9.76406 14.1469 10.7555 13.1625L11.9016 12.0234L12.9773 12.8672C13.6664 13.4086 14.1234 13.7109 14.2289 13.7109C14.3203 13.7109 14.6367 13.5914 14.9391 13.4367C15.2344 13.2891 15.7406 13.0851 16.0641 12.9726C16.4437 12.8531 16.6828 12.7266 16.7461 12.6281C16.8234 12.5156 17.1328 10.2937 17.1328 9.87187C17.1328 9.85781 17.8641 9.84374 18.75 9.84374C19.9945 9.84374 20.3672 9.86484 20.3672 9.92812Z" fill="white"/>
<path d="M7.32419 6.98888C5.77028 7.3756 4.72966 8.91544 4.96872 10.4764C5.22887 12.1568 6.87419 13.3662 8.50544 13.092C9.18747 12.9725 9.67262 12.7334 10.1437 12.2904C10.7976 11.6717 11.1562 10.8701 11.1562 10.0334C11.1492 8.00841 9.26481 6.51076 7.32419 6.98888ZM8.99762 7.96622C9.46872 8.18419 9.87653 8.57091 10.1015 9.03498C10.2492 9.33029 10.2773 9.49201 10.2773 10.0193C10.2773 10.5678 10.2492 10.6943 10.0875 11.0037C9.65856 11.8123 8.94137 12.2623 8.06247 12.2623C7.1484 12.2693 6.41716 11.8193 6.01637 10.9967C5.8195 10.6029 5.79137 10.4623 5.79137 10.0193C5.79137 9.57638 5.8195 9.43576 6.01637 9.04201C6.32575 8.41622 6.86012 7.97326 7.53512 7.79747C7.90778 7.69904 8.58278 7.77638 8.99762 7.96622Z" fill="white"/>
<path d="M28.6852 6.99592C27.7641 7.24905 27.0188 7.85373 26.618 8.69748C26.4141 9.11233 26.379 9.26702 26.3579 9.85764C26.3157 10.8701 26.5759 11.5522 27.279 12.2412C28.7977 13.7389 31.3079 13.2748 32.243 11.3201C32.461 10.8631 32.4962 10.7155 32.5173 10.16C32.5454 9.40061 32.4048 8.87327 32.004 8.26858C31.2938 7.1928 29.9157 6.66545 28.6852 6.99592ZM30.4641 8.01545C31.2938 8.42327 31.7298 9.18264 31.6735 10.1459C31.5751 12.1287 29.1844 13.0006 27.7923 11.5662C26.9555 10.7084 26.9907 9.13342 27.8696 8.35998C28.629 7.69905 29.5641 7.57248 30.4641 8.01545Z" fill="white"/>
<path d="M17.7168 15.1451C14.7285 15.7146 12.6895 18.1404 12.6895 21.1287C12.6895 25.4529 16.9434 28.3498 21.0004 26.7818C22.027 26.388 23.1238 25.5091 23.7566 24.581C24.8816 22.9357 25.1277 20.749 24.4035 18.8998C23.7145 17.1349 22.1184 15.7287 20.2621 15.2576C19.5309 15.0677 18.3777 15.0185 17.7168 15.1451ZM20.1426 16.1013C21.9777 16.6146 23.384 18.0701 23.848 19.9263C24.0027 20.5451 24.0027 21.6701 23.848 22.324C23.7918 22.5912 23.5949 23.1115 23.4191 23.4771C23.1449 24.0396 22.9973 24.2435 22.4488 24.7849C21.7387 25.5021 21.1902 25.8537 20.3113 26.1419C19.8402 26.3037 19.6504 26.3248 18.7855 26.3248C17.9418 26.3318 17.7238 26.3107 17.2738 26.1701C15.8535 25.7201 14.7777 24.8341 14.1098 23.5404C13.709 22.781 13.5402 22.0708 13.5402 21.1638C13.5332 20.2216 13.6738 19.624 14.0887 18.7732C14.3699 18.2107 14.5176 18.0068 15.052 17.4724C15.6918 16.8396 16.2473 16.474 17.0066 16.1998C17.9137 15.8693 19.1793 15.8271 20.1426 16.1013Z" fill="white"/>
</g>
<defs>
<clipPath id="clip0_506_3548">
<rect width="36" height="36" fill="white" transform="translate(0.75)"/>
</clipPath>
</defs>
</svg>
