<svg width="37" height="36" viewBox="0 0 37 36" fill="none" xmlns="http://www.w3.org/2000/svg">
<g clip-path="url(#clip0_18_4456)">
<path d="M3.68237 0.112698C2.77534 0.30254 1.73472 0.963478 1.16519 1.70176C0.532373 2.52441 0.237061 3.38223 0.237061 4.40879C0.237061 5.27363 0.328467 5.67442 0.708154 6.46191C1.27065 7.64317 2.31831 8.50801 3.5769 8.82442C3.8019 8.88066 4.09722 8.92988 4.22378 8.92988C4.35034 8.92988 4.45581 8.95801 4.45581 8.98613C4.45581 9.01426 4.25894 9.2252 4.0269 9.45723C3.78784 9.68926 3.53472 10.0057 3.4644 10.1604C3.30269 10.5119 3.28862 11.1588 3.43628 11.5174C3.5769 11.8479 7.11362 15.4197 7.5144 15.6236C7.873 15.8135 8.53394 15.8275 8.8855 15.6518C9.01909 15.5814 9.25815 15.3986 9.41284 15.251L9.69409 14.9768L11.0441 16.3338L12.3941 17.6838L11.7753 18.7385C11.4378 19.3221 11.1214 19.9057 11.0792 20.0322C10.8261 20.7494 11.1566 21.5158 11.8667 21.8814C12.0847 21.9939 12.2394 22.015 12.6121 21.9939C13.3292 21.9588 13.5472 21.776 14.166 20.7354L14.6652 19.8846L14.9816 20.1939C15.1574 20.3557 15.4246 20.6439 15.5792 20.8268L15.8605 21.1643L15.2277 22.2682C14.8761 22.8799 14.5597 23.5127 14.5175 23.6674C14.3488 24.3072 14.7425 25.1018 15.3824 25.39C15.9308 25.6361 16.641 25.5236 17.0628 25.1158C17.1753 25.0104 17.4566 24.5885 17.6957 24.1666C17.9277 23.7518 18.1457 23.4143 18.1738 23.4143C18.2019 23.4143 18.4832 23.6885 18.7925 24.0189L19.3621 24.6307L19.2285 24.8486C18.7152 25.6924 18.1105 26.7963 18.0402 26.9932C17.7589 27.7947 18.2371 28.7018 19.0667 28.9408C19.4886 29.0674 19.805 29.0322 20.2128 28.8283C20.5503 28.6525 20.7332 28.4275 21.2253 27.5627L21.6402 26.8385L22.1957 27.4221L22.7441 28.0057L21.6613 29.1025C21.0636 29.7072 20.5503 30.2697 20.5222 30.3611C20.4308 30.6705 20.6207 30.9729 21.3941 31.7322C22.1253 32.4564 22.1675 32.4846 22.4558 32.4846C22.7582 32.4846 22.7792 32.4635 23.8972 31.3596C24.516 30.7408 25.0503 30.2346 25.0855 30.2346C25.1136 30.2346 25.2894 30.3822 25.4722 30.558C25.9996 31.0783 26.4847 31.2541 26.9207 31.0854C27.0261 31.0432 27.1386 31.0924 27.3847 31.3033C27.7082 31.5775 27.7082 31.5775 27.7503 32.1189C27.8277 33.0893 28.2003 33.926 28.8824 34.6432C29.3816 35.1775 29.8878 35.508 30.598 35.7752C31.0058 35.9299 31.1816 35.958 31.9128 35.958C32.6511 35.958 32.8199 35.9369 33.2699 35.7682C34.6128 35.283 35.6464 34.1721 35.991 32.8572C36.1246 32.3369 36.1246 31.3666 35.991 30.8322C35.6886 29.6369 34.8027 28.526 33.7761 28.0338C33.1855 27.7596 32.6792 27.633 32.1378 27.633C31.8003 27.633 31.7511 27.6119 31.4488 27.3096L31.1253 26.9932L31.2238 26.7119C31.3644 26.283 31.2519 25.9596 30.7457 25.4041L30.3238 24.94L31.3714 23.9346C31.955 23.3721 32.4753 22.8166 32.5457 22.676C32.7566 22.226 32.6652 22.0502 31.7792 21.1783C31.0128 20.4189 30.9777 20.3908 30.6824 20.3908C30.38 20.3908 30.3589 20.4119 29.2761 21.4807C28.6714 22.0783 28.1511 22.5705 28.116 22.5705C28.0738 22.5705 27.4832 22.008 26.8011 21.3189L25.5496 20.0744L26.3933 18.6049C27.223 17.1635 27.2722 17.0299 27.2371 16.4885C27.2019 16.0174 26.78 15.4971 26.2527 15.2721C25.7253 15.0541 24.973 15.1947 24.6214 15.5814C24.5582 15.6588 24.2488 16.158 23.9324 16.6994C23.616 17.2408 23.3417 17.6979 23.3277 17.7119C23.2996 17.7471 22.1042 16.6502 22.1042 16.5869C22.1042 16.5588 22.4699 15.8979 22.9199 15.1244C23.5949 13.9432 23.7355 13.6549 23.7707 13.3455C23.8972 12.1221 22.3855 11.2221 21.38 11.9252C21.148 12.0869 20.9511 12.3611 20.473 13.1838C20.1355 13.7674 19.8332 14.2455 19.805 14.2525C19.7699 14.2666 19.4816 14.0064 19.1582 13.683L18.5746 13.0994L19.4042 11.665C20.1707 10.3361 20.2339 10.2025 20.2621 9.80879C20.2832 9.46426 20.255 9.33067 20.1214 9.07051C19.6644 8.22676 18.5464 7.93848 17.8363 8.47988C17.7097 8.57832 17.4285 8.96504 17.2105 9.3377C16.9925 9.71035 16.6972 10.2025 16.5636 10.4275L16.3175 10.8424L15.7339 10.2588C15.4105 9.93535 15.1433 9.64004 15.1433 9.60488C15.1433 9.56973 15.2839 9.39395 15.4527 9.21113C15.9308 8.70488 16.0433 8.06504 15.7691 7.45332C15.5652 6.98926 12.148 3.56504 11.6628 3.33301C10.9597 2.99551 10.3972 3.13614 9.68003 3.81816L9.17378 4.29629L9.13159 4.0291C8.998 3.2416 8.92065 2.96738 8.65347 2.44004C7.76753 0.668163 5.66519 -0.316212 3.68237 0.112698ZM5.50347 0.949413C6.69175 1.23066 7.71831 2.14473 8.11909 3.29082C8.28081 3.72676 8.33003 4.64082 8.23159 5.21035C8.1894 5.47754 8.20347 5.56191 8.30894 5.69551C8.56909 6.01895 8.7519 5.92754 9.71519 4.97129C10.6222 4.07832 10.8191 3.95176 11.1847 4.04317C11.3113 4.07129 12.0214 4.7252 13.1886 5.89238C15.0941 7.78379 15.1574 7.8752 15.0378 8.34629C14.9886 8.55723 9.10347 14.5127 8.70269 14.7658C8.56909 14.8502 8.35815 14.9064 8.17534 14.9064H7.86597L6.02378 13.0572L4.17456 11.215V10.8705V10.526L5.12378 9.5627C6.12925 8.54317 6.22065 8.38145 5.93237 8.12129C5.81284 8.01582 5.7355 8.00879 5.20815 8.06504C4.17456 8.1916 3.33081 7.98067 2.5644 7.41817C1.04565 6.3002 0.602686 4.11348 1.58003 2.59473C2.473 1.2166 3.97065 0.59082 5.50347 0.949413ZM19.2425 9.28848C19.3691 9.42207 19.4324 9.56973 19.4324 9.72441C19.4324 9.9002 18.8136 11.0252 16.8941 14.3439C15.5019 16.7627 14.0675 19.2377 13.716 19.8494C13.3644 20.4682 13.0058 21.0166 12.9144 21.0729C12.3941 21.4174 11.6769 20.883 11.8878 20.3135C11.9371 20.1939 13.3855 17.6486 15.1222 14.6463C17.8011 10.0057 18.3003 9.17598 18.4832 9.09863C18.7644 8.97207 19.0035 9.02832 19.2425 9.28848ZM15.2347 10.8846L15.9167 11.5666L14.3839 14.2174L12.8582 16.8682L11.5925 15.6096L10.3269 14.3439L12.4011 12.2697C13.5402 11.1307 14.4894 10.1955 14.5105 10.1955C14.5316 10.1955 14.855 10.5049 15.2347 10.8846ZM22.73 12.7619C23.0675 13.0924 23.0042 13.2963 21.9847 15.0471C21.4785 15.9189 20.0652 18.3658 18.8347 20.4963C17.6113 22.6197 16.5285 24.4408 16.43 24.5322C16.0503 24.8697 15.3261 24.5393 15.3261 24.026C15.3261 23.7166 21.6261 12.7689 21.8933 12.6143C22.1324 12.4807 22.5121 12.5439 22.73 12.7619ZM18.7785 14.4283C19.1019 14.7518 19.3621 15.033 19.3621 15.0611C19.3621 15.1033 16.6902 19.758 16.43 20.1729L16.3246 20.3346L15.7339 19.751C15.4105 19.4275 15.1433 19.1393 15.1433 19.1041C15.1433 19.0268 18.1175 13.8588 18.1667 13.8518C18.1808 13.8518 18.4621 14.1119 18.7785 14.4283ZM26.1964 16.2424C26.3722 16.4182 26.4003 16.5025 26.3792 16.7205C26.3652 16.9104 25.5003 18.4643 23.2714 22.3244C21.5769 25.2635 20.1355 27.7455 20.0722 27.8439C19.8753 28.1252 19.6152 28.2236 19.3269 28.1252C18.9753 28.0127 18.7785 27.7314 18.8207 27.4221C18.8558 27.1549 24.98 16.4885 25.2613 16.2002C25.5074 15.9471 25.9222 15.9682 26.1964 16.2424ZM22.2941 17.9439L22.8707 18.5275L21.3941 21.0939C20.5785 22.5072 19.8894 23.7025 19.8613 23.7447C19.8332 23.808 19.6082 23.6252 19.2074 23.2174L18.5957 22.6057L20.1074 19.983C20.9441 18.5486 21.6472 17.3674 21.6753 17.3674C21.6964 17.3674 21.9777 17.6275 22.2941 17.9439ZM25.4652 25.2916L23.3699 27.3869L22.7371 26.7541C22.3925 26.4096 22.1042 26.1072 22.1042 26.0791C22.1042 26.0439 24.7761 21.3752 25.0363 20.9604C25.1417 20.7916 25.1417 20.7986 26.3511 22.001L27.5535 23.2033L25.4652 25.2916ZM31.2308 21.8182L31.7371 22.3244L27.0964 26.965L22.4558 31.6057L21.9285 31.0783L21.4011 30.551L26.0207 25.9314C28.566 23.3861 30.6613 21.3049 30.6824 21.3049C30.7035 21.3049 30.9496 21.5369 31.2308 21.8182ZM30.0636 25.9244C30.2464 26.1072 30.4011 26.3182 30.4011 26.4025C30.4011 26.4939 29.7472 27.1971 28.5027 28.4416L26.6042 30.34L26.3652 30.2064C26.2316 30.1361 26.0207 29.9674 25.8941 29.8408L25.6621 29.6018L27.6589 27.5979C28.7628 26.4939 29.6769 25.5939 29.698 25.5939C29.7121 25.5939 29.8808 25.7416 30.0636 25.9244ZM30.8933 27.9564C31.266 28.3361 31.5613 28.5049 31.7582 28.4486C31.8425 28.4275 32.1308 28.4416 32.405 28.4768C33.4949 28.6314 34.4441 29.3486 34.9574 30.4244C35.2105 30.9658 35.2175 30.9869 35.2175 31.8236C35.2175 32.6604 35.2175 32.6744 34.9433 33.2158C34.0574 35.0158 32.0183 35.6627 30.2957 34.6994C29.2199 34.1018 28.573 32.9557 28.573 31.6549C28.573 31.2893 28.5589 31.2611 28.1511 30.8463L27.7363 30.4104L29.1214 29.0182C29.8808 28.2588 30.5207 27.633 30.5417 27.633C30.5628 27.633 30.7246 27.7807 30.8933 27.9564Z" fill="white"/>
<path d="M3.82261 2.33498C3.2812 2.54592 2.69058 3.14358 2.52183 3.65686C2.35308 4.14904 2.35308 4.78186 2.52183 5.27404C2.70464 5.81545 3.35854 6.46936 3.89292 6.64514C5.51714 7.18654 7.09214 5.9842 6.97261 4.2967C6.90933 3.48108 6.36792 2.71467 5.61558 2.3842C5.10229 2.15217 4.32886 2.13108 3.82261 2.33498ZM5.50308 3.25608C5.99526 3.58654 6.24136 4.2967 6.07261 4.92248C5.95308 5.37248 5.51011 5.79436 5.05308 5.89279C4.51167 6.00529 3.89995 5.84358 3.59761 5.50608C3.28823 5.16858 3.16167 4.35295 3.33745 3.88889C3.63276 3.10842 4.77183 2.77092 5.50308 3.25608Z" fill="white"/>
<path d="M31.4346 29.8129C31.055 29.9113 30.83 30.0449 30.5206 30.3402C30.1479 30.7059 29.9651 31.1066 29.93 31.641C29.8667 32.4637 30.2604 33.1879 30.9636 33.5676C32.2995 34.2918 33.9167 33.3496 33.9167 31.8449C33.9167 31.2332 33.755 30.7902 33.3964 30.4246C32.8831 29.8973 32.0956 29.6512 31.4346 29.8129ZM32.4401 30.741C33.2487 31.1559 33.3471 32.1402 32.637 32.7168C32.3065 32.984 31.744 33.0543 31.3995 32.8785C30.7034 32.5199 30.5487 31.5918 31.0831 31.0012C31.4698 30.5723 31.9268 30.4879 32.4401 30.741Z" fill="white"/>
</g>
<defs>
<clipPath id="clip0_18_4456">
<rect width="36" height="36" fill="white" transform="translate(0.166748)"/>
</clipPath>
</defs>
</svg>
