<svg width="37" height="36" viewBox="0 0 37 36" fill="none" xmlns="http://www.w3.org/2000/svg">
<g clip-path="url(#clip0_506_1908)">
<path d="M8.60285 2.39062C8.08254 2.54531 7.77317 3.00937 7.77317 3.62812C7.77317 4.275 8.18098 4.73906 8.84895 4.82343L9.17942 4.87265V5.28047V5.68828L7.30207 5.70937L5.4177 5.73046L5.02395 5.92031L4.6302 6.11718H3.02004C1.20598 6.11718 1.03723 6.15937 0.622385 6.63047C0.298947 7.00312 0.235666 7.2914 0.263791 8.29687C0.284885 9.28828 0.383322 9.58359 0.784104 9.89297C1.22707 10.2234 1.43801 10.2586 3.11848 10.2656C4.67942 10.2656 4.69348 10.2656 5.10832 10.4555L5.52317 10.6523V19.6945V28.7367L5.23489 28.8281C4.84817 28.9547 4.30676 29.4539 4.10285 29.8687C3.9552 30.1641 3.94113 30.2977 3.94113 31.1836C3.94113 32.1117 3.94817 32.1891 4.13098 32.5266C4.36301 32.9695 4.77082 33.3422 5.21379 33.5109C5.54426 33.6375 6.00832 33.6445 20.1482 33.6445H34.738L35.0966 33.4547C35.5888 33.1945 36.0107 32.6953 36.1513 32.2172C36.313 31.6547 36.2638 30.3187 36.0599 29.8687C35.87 29.4539 35.413 29.0109 35.0122 28.8562L34.7029 28.7367V19.6805V10.6242L35.0544 10.4695C35.5255 10.2656 36.0036 9.73125 36.1443 9.26015C36.2075 9.04218 36.2497 8.62031 36.2497 8.14922C36.2497 6.96797 35.9614 6.37031 35.188 5.9414L34.8083 5.73046L25.1263 5.70937L15.4372 5.69531V5.27343V4.85156H15.7044C16.0208 4.84453 16.4497 4.69687 16.6466 4.52109C16.8505 4.34531 17.0544 3.88125 17.0544 3.58593C17.0544 3.28359 16.8505 2.82656 16.6255 2.62265C16.5341 2.54531 16.3302 2.43984 16.1755 2.39765C15.845 2.30625 8.89817 2.29922 8.60285 2.39062ZM16.056 3.27656C16.2669 3.41718 16.2669 3.75468 16.056 3.89531C15.9154 3.99375 15.4513 4.00781 12.3786 4.00781C8.49739 4.00781 8.59582 4.01484 8.59582 3.58593C8.59582 3.15703 8.49739 3.16406 12.3786 3.16406C15.4513 3.16406 15.9154 3.17812 16.056 3.27656ZM14.5864 5.2875V5.73046L13.6583 6.96093C12.6739 8.26171 12.4771 8.44453 12.1747 8.28281C12.0763 8.23359 11.556 7.6289 11.0146 6.93984L10.0232 5.68828V5.2664V4.85156H12.3083H14.5935L14.5864 5.2875ZM10.431 7.57265C11.3802 8.76093 11.6614 9.02812 12.0622 9.14765C12.4068 9.25312 12.8146 9.15469 13.1802 8.88047C13.3068 8.78203 13.7779 8.2125 14.2138 7.62187L15.0154 6.53906H24.7396H34.4638L34.7732 6.69375C35.0052 6.81328 35.1318 6.93984 35.2513 7.17187C35.3989 7.45312 35.413 7.56562 35.3919 8.27578C35.3708 9.14062 35.3005 9.30234 34.8435 9.61172L34.6114 9.77344H20.0779H5.54426L5.3052 9.61172C4.91145 9.35156 4.74973 8.94375 4.74973 8.18437C4.74973 7.46015 4.81301 7.22812 5.08723 6.93281C5.43879 6.56015 5.53723 6.54609 7.6466 6.53906H9.59426L10.431 7.57265ZM3.99035 7.18593C3.92707 7.48828 3.92707 8.89453 3.99035 9.18984L4.0466 9.42187H2.84426C1.13567 9.42187 1.09348 9.38672 1.09348 8.17734C1.09348 7.36172 1.16379 7.15781 1.47317 7.03125C1.55051 6.99609 2.16926 6.96797 2.8302 6.96797L4.0466 6.96093L3.99035 7.18593ZM7.61848 19.6664L7.63254 28.6875H6.99973H6.36692V19.6523V10.6102L6.98567 10.6312L7.59739 10.6523L7.61848 19.6664ZM9.79817 19.6664L9.81223 28.6875H9.14426H8.47629V19.6523V10.6102L9.1302 10.6312L9.77707 10.6523L9.79817 19.6664ZM11.9919 19.6523V28.6875H11.3239H10.656V19.6523V10.6172H11.3239H11.9919V19.6523ZM14.1716 19.6523V28.6875H13.5036H12.8357V19.7016C12.8357 14.7586 12.8568 10.6875 12.8849 10.6664C12.906 10.6383 13.2083 10.6172 13.5529 10.6172H14.1716V19.6523ZM16.3513 19.6523V28.6875H15.6833H15.0154V19.7016C15.0154 14.7586 15.0364 10.6875 15.0646 10.6664C15.0857 10.6383 15.388 10.6172 15.7325 10.6172H16.3513V19.6523ZM18.5872 19.6664L18.6013 28.6875H17.8982H17.195V19.7016C17.195 14.7586 17.2161 10.6875 17.2443 10.6594C17.2724 10.6312 17.5818 10.6242 17.9333 10.6312L18.5661 10.6523L18.5872 19.6664ZM20.7669 19.6664L20.781 28.6875H20.113H19.445V19.6523V10.6102L20.0989 10.6312L20.7458 10.6523L20.7669 19.6664ZM22.9466 19.6664L22.9607 28.6875H22.2927H21.6247V19.6523V10.6102L22.2786 10.6312L22.9255 10.6523L22.9466 19.6664ZM25.1263 19.6664L25.1404 28.6875H24.4724H23.8044V19.6523V10.6102L24.4583 10.6312L25.1052 10.6523L25.1263 19.6664ZM27.32 19.6523V28.6875H26.6521H25.9841V19.6523V10.6172H26.6521H27.32V19.6523ZM29.4997 19.6523V28.6875H28.8318H28.1638V19.7016C28.1638 14.7586 28.1849 10.6875 28.213 10.6664C28.2341 10.6383 28.5364 10.6172 28.881 10.6172H29.4997V19.6523ZM31.7357 19.6664L31.7497 28.6875H31.0466H30.3435V19.7016C30.3435 14.7586 30.3646 10.6875 30.3927 10.6594C30.4208 10.6312 30.7302 10.6242 31.0818 10.6312L31.7146 10.6523L31.7357 19.6664ZM33.845 19.6664L33.8591 28.6875H33.2263H32.5935V19.6523V10.6102L33.2122 10.6312L33.8239 10.6523L33.845 19.6664ZM34.8575 29.7281C35.2654 29.9812 35.406 30.3539 35.406 31.1695C35.406 31.5352 35.3708 31.9289 35.3286 32.0414C35.2232 32.3367 34.8505 32.6883 34.5622 32.7656C34.4075 32.8078 29.1974 32.8359 20.0568 32.8359C7.32317 32.8359 5.76926 32.8219 5.53723 32.7234C5.17863 32.5758 4.90442 32.2945 4.82004 31.9992C4.72863 31.6758 4.72863 30.6914 4.82004 30.375C4.90442 30.0797 5.27707 29.693 5.56535 29.6016C5.67785 29.5664 12.1185 29.5453 20.1833 29.5523L34.5974 29.5664L34.8575 29.7281Z" fill="white"/>
<path d="M2.21875 7.40393C1.94453 7.49533 1.65625 7.87502 1.65625 8.13518C1.65625 8.42346 1.84609 8.77502 2.07109 8.88752C2.85859 9.30237 3.66016 8.5008 3.20312 7.75549C2.99219 7.40393 2.62656 7.27033 2.21875 7.40393Z" fill="white"/>
</g>
<defs>
<clipPath id="clip0_506_1908">
<rect width="36" height="36" fill="white" transform="translate(0.25)"/>
</clipPath>
</defs>
</svg>
