<svg width="39" height="39" viewBox="0 0 39 39" fill="none" xmlns="http://www.w3.org/2000/svg"><path d="M8.942 0.069 C 7.884 0.246,6.772 0.880,6.049 1.717 C 5.679 2.146,5.478 2.473,5.257 3.008 C 4.851 3.994,4.875 2.959,4.875 19.500 C 4.875 36.061,4.850 35.004,5.263 36.004 C 5.512 36.608,5.821 37.065,6.315 37.560 C 7.021 38.265,7.825 38.697,8.810 38.901 C 9.521 39.048,29.496 39.049,30.193 38.902 C 31.861 38.550,33.163 37.456,33.789 35.880 C 34.136 35.005,34.123 35.543,34.124 22.799 L 34.125 10.985 32.890 10.985 L 31.655 10.985 31.653 22.799 C 31.651 33.965,31.644 34.631,31.535 34.948 C 31.317 35.578,30.760 36.143,30.082 36.421 L 29.738 36.563 19.500 36.563 L 9.263 36.563 8.918 36.421 C 8.467 36.236,8.066 35.923,7.774 35.529 C 7.309 34.902,7.342 36.187,7.361 19.368 L 7.378 4.192 7.554 3.833 C 7.780 3.374,8.249 2.905,8.708 2.679 L 9.068 2.502 16.104 2.485 L 23.140 2.468 23.140 1.234 L 23.140 0.000 16.201 0.008 C 12.385 0.012,9.118 0.039,8.942 0.069 " fill="#A6A6A6" stroke="none" fill-rule="evenodd"></path></svg>