<svg width="38" height="38" viewBox="0 0 38 38" fill="none" xmlns="http://www.w3.org/2000/svg"><path d="M8.713 0.066 C 7.678 0.242,6.598 0.858,5.894 1.673 C 5.533 2.091,5.338 2.410,5.123 2.931 C 4.727 3.892,4.750 2.883,4.750 19.000 C 4.750 35.137,4.726 34.106,5.128 35.081 C 5.370 35.669,5.672 36.115,6.153 36.597 C 6.841 37.284,7.624 37.705,8.584 37.903 C 9.277 38.047,28.740 38.047,29.418 37.904 C 31.036 37.563,32.284 36.523,32.907 34.995 C 33.269 34.109,33.255 34.676,33.236 22.135 L 33.218 10.608 33.009 10.165 C 32.811 9.745,32.557 9.479,28.164 5.086 C 23.771 0.693,23.505 0.439,23.085 0.241 L 22.642 0.032 15.833 0.023 C 12.089 0.018,8.885 0.037,8.713 0.066 M26.141 7.109 C 28.065 9.034,29.640 10.630,29.640 10.656 C 29.640 10.682,28.534 10.703,27.183 10.703 C 24.470 10.703,24.239 10.678,23.673 10.315 C 23.271 10.057,23.011 9.748,22.775 9.250 L 22.578 8.835 22.558 6.223 C 22.547 4.786,22.561 3.610,22.590 3.610 C 22.619 3.610,24.217 5.185,26.141 7.109 M25.447 16.746 C 25.642 16.848,25.917 17.129,26.022 17.333 C 26.126 17.535,26.109 18.088,25.992 18.322 C 25.937 18.434,24.220 20.200,22.176 22.248 C 18.658 25.774,18.444 25.976,18.135 26.066 C 17.767 26.174,17.565 26.146,17.195 25.932 C 16.867 25.744,13.350 22.204,13.204 21.915 C 13.065 21.642,13.058 21.120,13.190 20.867 C 13.492 20.289,14.143 20.051,14.739 20.300 C 14.885 20.361,15.501 20.924,16.401 21.819 L 17.832 23.241 20.997 20.071 C 22.737 18.328,24.261 16.848,24.383 16.782 C 24.651 16.638,25.204 16.619,25.447 16.746 " fill="#D9D9D9" stroke="none" fill-rule="evenodd"></path></svg>