<svg width="22" height="22" viewBox="0 0 22 22" fill="none" xmlns="http://www.w3.org/2000/svg"><path d="M10.392 1.222 C 10.165 1.330,9.989 1.535,9.917 1.776 C 9.834 2.057,9.838 5.584,9.922 5.869 C 10.051 6.301,10.509 6.581,10.942 6.491 C 11.158 6.446,11.387 6.301,11.504 6.136 C 11.659 5.918,11.664 5.831,11.653 3.737 L 11.642 1.736 11.531 1.556 C 11.294 1.174,10.799 1.029,10.392 1.222 M4.070 3.835 C 3.903 3.907,3.717 4.088,3.619 4.272 C 3.511 4.475,3.511 4.839,3.620 5.042 C 3.664 5.124,4.311 5.799,5.103 6.588 C 6.443 7.922,6.518 7.990,6.707 8.045 C 6.954 8.117,6.980 8.117,7.226 8.045 C 7.724 7.898,7.989 7.302,7.770 6.820 C 7.663 6.582,5.081 3.996,4.824 3.867 C 4.610 3.761,4.275 3.746,4.070 3.835 M16.738 3.852 C 16.551 3.945,13.883 6.601,13.782 6.795 C 13.562 7.217,13.722 7.738,14.140 7.963 C 14.392 8.099,14.583 8.122,14.839 8.048 C 15.047 7.989,15.085 7.954,16.440 6.606 C 17.957 5.096,18.003 5.040,18.003 4.657 C 18.003 4.284,17.797 3.980,17.443 3.833 C 17.254 3.754,16.918 3.763,16.738 3.852 M1.403 10.197 C 1.097 10.349,0.906 10.656,0.906 11.000 C 0.906 11.351,1.098 11.654,1.422 11.813 L 1.595 11.898 3.593 11.898 L 5.592 11.898 5.764 11.813 C 6.090 11.653,6.277 11.356,6.277 11.000 C 6.277 10.647,6.107 10.371,5.790 10.210 L 5.612 10.120 3.585 10.120 C 1.602 10.120,1.555 10.122,1.403 10.197 M15.777 10.196 C 15.561 10.304,15.378 10.520,15.310 10.748 C 15.240 10.986,15.240 11.014,15.311 11.253 C 15.384 11.500,15.604 11.744,15.834 11.832 C 15.991 11.893,16.165 11.898,17.985 11.898 L 19.965 11.898 20.139 11.812 C 20.769 11.499,20.817 10.616,20.224 10.249 L 20.044 10.138 17.988 10.129 C 15.964 10.119,15.929 10.120,15.777 10.196 M6.600 13.991 C 6.438 14.061,3.726 16.757,3.628 16.946 C 3.409 17.368,3.570 17.897,3.986 18.121 C 4.236 18.255,4.427 18.278,4.683 18.205 C 4.890 18.145,4.928 18.111,6.283 16.763 C 7.783 15.271,7.846 15.194,7.846 14.836 C 7.847 14.460,7.685 14.184,7.368 14.024 C 7.157 13.917,6.807 13.902,6.600 13.991 M14.207 14.002 C 14.125 14.039,13.991 14.147,13.908 14.241 C 13.663 14.520,13.616 14.886,13.785 15.211 C 13.823 15.285,14.487 15.975,15.260 16.745 C 16.644 18.124,16.668 18.145,16.882 18.207 C 17.150 18.283,17.407 18.239,17.629 18.078 C 17.981 17.823,18.104 17.367,17.927 16.977 C 17.819 16.739,15.238 14.152,14.980 14.024 C 14.755 13.911,14.427 13.902,14.207 14.002 M10.387 15.586 C 10.302 15.629,10.175 15.727,10.105 15.804 C 9.868 16.067,9.863 16.114,9.863 18.187 C 9.863 20.252,9.867 20.286,10.101 20.559 C 10.295 20.786,10.507 20.875,10.813 20.857 C 11.134 20.839,11.370 20.703,11.531 20.444 L 11.642 20.264 11.652 18.263 C 11.660 16.828,11.651 16.218,11.621 16.107 C 11.566 15.908,11.372 15.684,11.172 15.587 C 10.956 15.482,10.598 15.482,10.387 15.586 " fill="#375EF9" stroke="none" fill-rule="evenodd"></path></svg>