<?xml version="1.0" standalone="no"?>
<!DOCTYPE svg PUBLIC "-//W3C//DTD SVG 20010904//EN"
 "http://www.w3.org/TR/2001/REC-SVG-20010904/DTD/svg10.dtd">
<svg version="1.0" xmlns="http://www.w3.org/2000/svg"
 width="400.000000pt" height="400.000000pt" viewBox="0 0 400.000000 400.000000"
 preserveAspectRatio="xMidYMid meet">
<metadata>
Created by potrace 1.14, written by Peter Selinger 2001-2017
</metadata>
<g transform="translate(0.000000,400.000000) scale(0.100000,-0.100000)"
fill="#000000" stroke="none">
<path d="M2366 3440 c-235 -83 -345 -344 -240 -567 23 -49 125 -163 146 -163
16 0 151 -105 185 -143 76 -87 106 -206 78 -314 -4 -15 -9 -35 -11 -43 -2 -8
-10 -40 -19 -70 -19 -67 -21 -179 -5 -240 31 -116 89 -187 220 -272 216 -139
264 -260 198 -504 -24 -91 -28 -122 -25 -189 11 -181 119 -324 285 -375 298
-92 583 164 523 470 -23 118 -80 190 -253 323 -149 116 -189 176 -196 297 -3
61 2 100 26 200 32 129 36 216 12 259 -6 12 -8 21 -5 21 12 0 -48 103 -81 140
-20 22 -79 72 -132 112 -53 40 -113 91 -134 113 -92 95 -113 208 -71 376 45
179 40 282 -19 386 -34 61 -116 133 -187 166 -88 42 -206 48 -295 17z"/>
<path d="M1490 2393 c-214 -62 -339 -265 -295 -478 26 -120 81 -193 217 -283
136 -91 205 -176 226 -277 13 -63 8 -104 -30 -249 -35 -138 -28 -243 24 -345
81 -158 273 -249 446 -212 215 46 357 252 320 465 -12 70 -11 65 -38 119 -29
58 -107 137 -208 214 -84 63 -116 93 -153 143 -60 79 -70 193 -31 334 18 65
25 118 26 186 1 88 -1 100 -31 161 -72 146 -199 229 -358 233 -38 1 -90 -4
-115 -11z"/>
<path d="M577 1340 c-294 -94 -382 -460 -165 -679 99 -99 255 -141 393 -106
183 47 318 240 301 429 -16 175 -134 317 -301 361 -78 20 -156 18 -228 -5z"/>
</g>
</svg>
