<svg width="40" height="40" viewBox="0 0 40 40" fill="none" xmlns="http://www.w3.org/2000/svg">
<path opacity="0.4" d="M35 29.9993V11.666H5V29.9993C5 33.6812 7.98477 36.666 11.6667 36.666H28.3333C32.0152 36.666 35 33.6812 35 29.9993Z" fill="#8B00FF"/>
<path d="M11.666 29.9993C11.666 28.1584 13.1584 26.666 14.9993 26.666C16.8403 26.666 18.3327 28.1584 18.3327 29.9993V36.666H11.666V29.9993Z" fill="#8B00FF"/>
<path d="M36.6663 13.7494V9.99943C36.6663 6.31753 33.6816 3.33276 29.9997 3.33276H9.99967C6.31778 3.33276 3.33301 6.31753 3.33301 9.99943V13.7494C3.33301 17.2012 5.82031 19.9994 8.88856 19.9994C11.9568 19.9994 14.4441 17.2012 14.4441 13.7494C14.4441 17.2012 16.9314 19.9994 19.9997 19.9994C23.0679 19.9994 25.5552 17.2012 25.5552 13.7494C25.5552 17.2012 28.0425 19.9994 31.1108 19.9994C34.179 19.9994 36.6663 17.2012 36.6663 13.7494Z" fill="#8B00FF"/>
<path d="M23.333 24.9994C23.333 24.079 24.0792 23.3328 24.9997 23.3328H28.333C29.2535 23.3328 29.9997 24.079 29.9997 24.9994V26.6661C29.9997 27.5866 29.2535 28.3328 28.333 28.3328H24.9997C24.0792 28.3328 23.333 27.5866 23.333 26.6661V24.9994Z" fill="#8B00FF"/>
</svg>
