<svg width="40" height="40" viewBox="0 0 40 40" fill="none" xmlns="http://www.w3.org/2000/svg">
<path opacity="0.4" fill-rule="evenodd" clip-rule="evenodd" d="M16.2511 26.8242C9.78094 27.3791 5 29.3369 5 31.6668C5 34.4282 11.7157 36.6668 20 36.6668C28.2843 36.6668 35 34.4282 35 31.6668C35 29.337 30.2196 27.3794 23.75 26.8243V30.0001C23.75 32.0712 22.0711 33.7501 20 33.7501C17.9289 33.7501 16.25 32.0712 16.25 30.0001L16.2511 26.8242Z" fill="#8B00FF"/>
<path d="M21.25 29.9999C21.25 30.6903 20.6904 31.2499 20 31.2499C19.3096 31.2499 18.75 30.6903 18.75 29.9999L18.7581 6.66659C18.7581 4.82564 20.2504 3.33325 22.0914 3.33325H31.0613C32.3003 3.33325 33.1061 4.63711 32.552 5.74527L30.7974 9.25456C30.5628 9.72378 30.5628 10.2761 30.7974 10.7453L32.552 14.2546C33.1061 15.3627 32.3003 16.6666 31.0613 16.6666H21.25V29.9999Z" fill="#8B00FF"/>
</svg>
