<svg width="40" height="40" viewBox="0 0 40 40" fill="none" xmlns="http://www.w3.org/2000/svg">
<path opacity="0.4" d="M17.2934 4.53577L8.96365 8.23786C6.55428 9.30869 4.9643 11.7068 5.11761 14.3389C5.717 24.6293 8.73041 29.1595 16.5606 34.4607C18.6349 35.865 21.3692 35.8684 23.442 34.4618C31.2963 29.1318 34.2019 24.5375 34.8539 14.3746C35.0239 11.725 33.4314 9.30148 31.0052 8.22318L22.7085 4.53577C20.9848 3.76965 19.0171 3.76965 17.2934 4.53577Z" fill="#8B00FF"/>
<path fill-rule="evenodd" clip-rule="evenodd" d="M25.8232 15.7256C26.3427 16.1802 26.3954 16.9699 25.9408 17.4894L21.1576 22.9559C20.1298 24.1305 18.3594 24.2878 17.1405 23.3128L14.2192 20.9757C13.6801 20.5444 13.5927 19.7578 14.024 19.2187C14.4552 18.6797 15.2418 18.5923 15.7809 19.0235L18.7023 21.3606C18.8764 21.4999 19.1293 21.4774 19.2761 21.3096L24.0593 15.8431C24.5139 15.3236 25.3036 15.271 25.8232 15.7256Z" fill="#8B00FF"/>
</svg>
