<svg width="40" height="40" viewBox="0 0 40 40" fill="none" xmlns="http://www.w3.org/2000/svg">
<path d="M10 20H13.3334C17.0153 20 20 22.9848 20 26.6667V30C20 33.6819 17.0153 36.6667 13.3334 36.6667H10C6.31814 36.6667 3.33337 33.6819 3.33337 30V26.6667C3.33337 22.9848 6.31814 20 10 20Z" fill="#8B00FF"/>
<path opacity="0.4" d="M16.6667 3.33325H30C33.6819 3.33325 36.6667 6.31802 36.6667 9.99992V23.3333C36.6667 27.0151 33.6819 29.9999 30 29.9999H16.6667C12.9848 29.9999 10 27.0151 10 23.3333V9.99992C10 6.31802 12.9848 3.33325 16.6667 3.33325Z" fill="#8B00FF"/>
<path fill-rule="evenodd" clip-rule="evenodd" d="M18.75 11.6667C18.75 10.9764 19.3096 10.4167 20 10.4167H28.3333C29.0236 10.4167 29.5833 10.9764 29.5833 11.6667V20.0001C29.5833 20.6904 29.0236 21.2501 28.3333 21.2501C27.6429 21.2501 27.0833 20.6904 27.0833 20.0001V14.6845L17.5505 24.2173C17.0624 24.7055 16.2709 24.7055 15.7827 24.2173C15.2946 23.7291 15.2946 22.9377 15.7827 22.4495L25.3155 12.9167H20C19.3096 12.9167 18.75 12.3571 18.75 11.6667Z" fill="#8B00FF"/>
</svg>
