<svg width="40" height="40" viewBox="0 0 40 40" fill="none" xmlns="http://www.w3.org/2000/svg">
<path opacity="0.4" d="M33.3332 27.9398V13.3333L19.9998 16.6666L6.6665 13.3333V27.9398C6.6665 29.2024 7.37984 30.3566 8.50912 30.9212L18.5091 35.9212C19.4475 36.3904 20.5521 36.3904 21.4905 35.9212L31.4905 30.9212C32.6198 30.3566 33.3332 29.2024 33.3332 27.9398Z" fill="#8B00FF"/>
<path opacity="0.4" d="M33.3332 10L21.4905 4.07872C20.5521 3.6095 19.4476 3.6095 18.5091 4.07872L6.6665 10L19.9998 16.6667L33.3332 10Z" fill="#8B00FF"/>
<path d="M33.3333 10L20 16.6667L23.3333 21.6667L36.6667 15L33.3333 10Z" fill="#8B00FF"/>
<path d="M6.66667 10L20 16.6667L16.6667 21.6667L3.33333 15L6.66667 10Z" fill="#8B00FF"/>
<path fill-rule="evenodd" clip-rule="evenodd" d="M18.7499 5.66066L17.5505 6.86011C17.0623 7.34827 16.2709 7.34827 15.7827 6.86011C15.2945 6.37196 15.2945 5.5805 15.7827 5.09235L17.9375 2.93752C19.0766 1.7985 20.9233 1.79849 22.0623 2.93752L24.2171 5.09235C24.7053 5.5805 24.7053 6.37196 24.2171 6.86011C23.729 7.34827 22.9375 7.34827 22.4494 6.86011L21.2499 5.66066V11.6666C21.2499 12.3569 20.6903 12.9166 19.9999 12.9166C19.3096 12.9166 18.7499 12.3569 18.7499 11.6666V5.66066Z" fill="#8B00FF"/>
</svg>
