<svg width="40" height="40" viewBox="0 0 40 40" fill="none" xmlns="http://www.w3.org/2000/svg">
<path opacity="0.4" d="M36.6666 19.9999C36.6666 29.2047 29.2047 36.6666 19.9999 36.6666C10.7952 36.6666 3.33325 29.2047 3.33325 19.9999C3.33325 10.7952 10.7952 3.33325 19.9999 3.33325C29.2047 3.33325 36.6666 10.7952 36.6666 19.9999Z" fill="#8B00FF"/>
<path d="M23.3332 19.9998C23.3332 21.8408 21.8408 23.3332 19.9998 23.3332C18.1589 23.3332 16.6665 21.8408 16.6665 19.9998C16.6665 18.1589 18.1589 16.6665 19.9998 16.6665C21.8408 16.6665 23.3332 18.1589 23.3332 19.9998Z" fill="#8B00FF"/>
<path fill-rule="evenodd" clip-rule="evenodd" d="M20 8.75C19.3096 8.75 18.75 9.30964 18.75 10V17.5C18.75 18.1904 19.3096 18.75 20 18.75C20.6904 18.75 21.25 18.1904 21.25 17.5V10C21.25 9.30964 20.6904 8.75 20 8.75ZM21.6161 21.6161C21.128 22.1043 21.128 22.8957 21.6161 23.3839L24.1161 25.8839C24.6043 26.372 25.3957 26.372 25.8839 25.8839C26.372 25.3957 26.372 24.6043 25.8839 24.1161L23.3839 21.6161C22.8957 21.128 22.1043 21.128 21.6161 21.6161Z" fill="#8B00FF"/>
<path fill-rule="evenodd" clip-rule="evenodd" d="M2.08325 30C2.08325 29.3096 2.6429 28.75 3.33325 28.75H13.3333C14.0236 28.75 14.5833 29.3096 14.5833 30C14.5833 30.6904 14.0236 31.25 13.3333 31.25H3.33325C2.6429 31.25 2.08325 30.6904 2.08325 30Z" fill="#8B00FF"/>
<path fill-rule="evenodd" clip-rule="evenodd" d="M2.08325 35C2.08325 34.3096 2.6429 33.75 3.33325 33.75H16.6666C17.3569 33.75 17.9166 34.3096 17.9166 35C17.9166 35.6904 17.3569 36.25 16.6666 36.25H3.33325C2.6429 36.25 2.08325 35.6904 2.08325 35Z" fill="#8B00FF"/>
<path fill-rule="evenodd" clip-rule="evenodd" d="M2.08325 25C2.08325 24.3096 2.6429 23.75 3.33325 23.75H9.99992C10.6903 23.75 11.2499 24.3096 11.2499 25C11.2499 25.6904 10.6903 26.25 9.99992 26.25H3.33325C2.6429 26.25 2.08325 25.6904 2.08325 25Z" fill="#8B00FF"/>
</svg>
