<svg width="40" height="40" viewBox="0 0 40 40" fill="none" xmlns="http://www.w3.org/2000/svg">
<path opacity="0.4" d="M29.9999 33.3334H9.99992C6.31802 33.3334 3.33325 30.3486 3.33325 26.6667V23.3334C3.33325 14.1287 10.7952 6.66675 19.9999 6.66675C29.2047 6.66675 36.6666 14.1287 36.6666 23.3334V26.6667C36.6666 30.3486 33.6818 33.3334 29.9999 33.3334Z" fill="#8B00FF"/>
<path fill-rule="evenodd" clip-rule="evenodd" d="M19.9998 12.9167C15.9331 12.9167 13.5702 14.9119 11.9951 17.3459C11.6201 17.9254 10.8462 18.0912 10.2666 17.7162C9.68701 17.3411 9.52121 16.5672 9.89627 15.9876C11.8079 13.0336 14.8794 10.4167 19.9998 10.4167C25.1203 10.4167 28.1918 13.0336 30.1034 15.9876C30.4784 16.5672 30.3126 17.3411 29.733 17.7162C29.1535 18.0912 28.3796 17.9254 28.0045 17.3459C26.4294 14.9119 24.0666 12.9167 19.9998 12.9167Z" fill="#8B00FF"/>
<path fill-rule="evenodd" clip-rule="evenodd" d="M26.118 20.559C26.4267 19.9416 26.1765 19.1907 25.559 18.882C24.9415 18.5733 24.1907 18.8235 23.8819 19.441L19.419 28.3669C16.9313 28.6548 15 30.7686 15 33.3335H25C25 31.2904 23.7746 29.5335 22.0187 28.7577L26.118 20.559Z" fill="#8B00FF"/>
</svg>
