<svg width="40" height="40" viewBox="0 0 40 40" fill="none" xmlns="http://www.w3.org/2000/svg">
<circle opacity="0.4" cx="19.9999" cy="20" r="16.6667" fill="#8B00FF"/>
<path d="M28.3333 16.6667C28.3333 17.5871 27.5871 18.3333 26.6667 18.3333C25.7462 18.3333 25 17.5871 25 16.6667C25 15.7462 25.7462 15 26.6667 15C27.5871 15 28.3333 15.7462 28.3333 16.6667Z" fill="#8B00FF"/>
<path d="M14.9998 16.6667C14.9998 17.5871 14.2536 18.3333 13.3332 18.3333C12.4127 18.3333 11.6665 17.5871 11.6665 16.6667C11.6665 15.7462 12.4127 15 13.3332 15C14.2536 15 14.9998 15.7462 14.9998 16.6667Z" fill="#8B00FF"/>
<path fill-rule="evenodd" clip-rule="evenodd" d="M15.8243 24.0603C15.3082 23.6075 14.5226 23.6556 14.0658 24.1696C13.6071 24.6855 13.6536 25.4756 14.1696 25.9343L15 25C14.1696 25.9343 14.1692 25.9339 14.1696 25.9343L14.1712 25.9357L14.1729 25.9373L14.177 25.9409L14.1874 25.9499L14.2167 25.9749C14.24 25.9945 14.2709 26.02 14.3092 26.0504C14.3858 26.1113 14.4925 26.1923 14.628 26.2866C14.8985 26.4748 15.2867 26.7176 15.7828 26.9581C16.775 27.4392 18.2113 27.9167 20 27.9167C21.7888 27.9167 23.225 27.4392 24.2172 26.9581C24.7133 26.7176 25.1015 26.4748 25.372 26.2866C25.5075 26.1923 25.6142 26.1113 25.6908 26.0504C25.7292 26.02 25.7601 25.9945 25.7834 25.9749L25.8126 25.9499L25.823 25.9409L25.8271 25.9373L25.8289 25.9357C25.8293 25.9353 25.8305 25.9343 25 25L25.8305 25.9343C26.3464 25.4756 26.3929 24.6855 25.9343 24.1696C25.4775 23.6556 24.6918 23.6075 24.1758 24.0603L24.1743 24.0616C24.1686 24.0664 24.1549 24.0777 24.1359 24.0928C24.0978 24.1231 24.0335 24.1723 23.9444 24.2343C23.7657 24.3586 23.4898 24.5324 23.1265 24.7086C22.4 25.0608 21.3363 25.4167 20 25.4167C18.6638 25.4167 17.6 25.0608 16.8735 24.7086C16.5102 24.5324 16.2343 24.3586 16.0556 24.2343C15.9665 24.1723 15.9023 24.1231 15.8642 24.0928C15.8451 24.0777 15.8327 24.0674 15.827 24.0626C15.8258 24.0616 15.8248 24.0608 15.8243 24.0603C15.8243 24.0603 15.8242 24.0603 15.8243 24.0603ZM24.1758 24.0603L24.1743 24.0616L24.1723 24.0634L24.171 24.0645C24.1728 24.0629 24.1739 24.0619 24.1758 24.0603Z" fill="#8B00FF"/>
</svg>
