<svg width="40" height="40" viewBox="0 0 40 40" fill="none" xmlns="http://www.w3.org/2000/svg">
<path d="M9.99992 13.3334H6.66659C4.82564 13.3334 3.33325 14.8258 3.33325 16.6667V31.6667C3.33325 33.5077 4.82564 35 6.66659 35H9.99992C11.8409 35 13.3333 33.5077 13.3333 31.6667V16.6667C13.3333 14.8258 11.8409 13.3334 9.99992 13.3334Z" fill="#8B00FF"/>
<path opacity="0.4" d="M26.4614 35H20.3518C19.0356 35 17.7489 34.6104 16.6538 33.8803L14.0754 32.1614C13.6118 31.8523 13.3333 31.3319 13.3333 30.7747V17.1093C13.3333 16.8192 13.4089 16.5342 13.5528 16.2824L19.5201 5.83977C19.8168 5.32048 20.369 5 20.9671 5H22.2144C25.5423 5 27.5273 8.70894 25.6813 11.4779L23.3333 15H32.3973C34.5659 15 36.1571 17.038 35.6311 19.1418L32.929 29.9502C32.1871 32.918 29.5205 35 26.4614 35Z" fill="#8B00FF"/>
</svg>
