<svg width="40" height="40" viewBox="0 0 40 40" fill="none" xmlns="http://www.w3.org/2000/svg">
<path d="M27.2748 7.84381L30.3651 11.7066C31.0323 12.5406 32.3007 12.5406 32.968 11.7066L36.0582 7.84381C36.452 7.35155 36.6665 6.73994 36.6665 6.10955V5.98502C36.6665 4.52056 35.4793 3.33337 34.0149 3.33337C33.3116 3.33337 32.6371 3.61274 32.1399 4.11003L31.6665 4.58337L31.1932 4.11002C30.6959 3.61274 30.0214 3.33337 29.3182 3.33337C27.8537 3.33337 26.6665 4.52056 26.6665 5.98502V6.10955C26.6665 6.73993 26.881 7.35155 27.2748 7.84381Z" fill="#8B00FF"/>
<path opacity="0.4" d="M3.33325 16.6667C3.33325 13.9053 5.57183 11.6667 8.33325 11.6667H24.9999C27.7613 11.6667 29.9999 13.9053 29.9999 16.6667V30.0001C29.9999 32.7615 27.7613 35.0001 24.9999 35.0001H8.33325C5.57183 35.0001 3.33325 32.7615 3.33325 30.0001V16.6667Z" fill="#8B00FF"/>
<path fill-rule="evenodd" clip-rule="evenodd" d="M9.00007 19.2501C9.41429 18.6978 10.1978 18.5859 10.7501 19.0001L14.4167 21.7501C15.7501 22.7501 17.5834 22.7501 18.9167 21.7501L22.5834 19.0001C23.1357 18.5859 23.9192 18.6978 24.3334 19.2501C24.7476 19.8024 24.6357 20.5859 24.0834 21.0001L20.4167 23.7501C18.1945 25.4167 15.139 25.4167 12.9167 23.7501L9.25007 21.0001C8.69779 20.5859 8.58586 19.8024 9.00007 19.2501Z" fill="#8B00FF"/>
</svg>
