<svg width="40" height="40" viewBox="0 0 40 40" fill="none" xmlns="http://www.w3.org/2000/svg">
<g opacity="0.4">
<path d="M28.3327 33.3328V28.3328L11.666 28.3328L11.666 33.3328C11.666 35.1737 13.1584 36.6661 14.9993 36.6661H24.9993C26.8403 36.6661 28.3327 35.1737 28.3327 33.3328Z" fill="#8B00FF"/>
<path d="M28.3327 6.6661V11.6661L11.666 11.6661L11.666 6.6661C11.666 4.82515 13.1584 3.33276 14.9993 3.33276L24.9993 3.33276C26.8403 3.33276 28.3327 4.82515 28.3327 6.6661Z" fill="#8B00FF"/>
</g>
<path fill-rule="evenodd" clip-rule="evenodd" d="M14.9987 8.33203C11.3168 8.33203 8.33203 11.3168 8.33203 14.9987V24.9987C8.33203 28.6806 11.3168 31.6654 14.9987 31.6654H24.9987C28.6806 31.6654 31.6654 28.6806 31.6654 24.9987V14.9987C31.6654 11.3168 28.6806 8.33203 24.9987 8.33203H14.9987ZM21.249 14.9987C21.249 14.3083 20.6893 13.7487 19.999 13.7487C19.3086 13.7487 18.749 14.3083 18.749 14.9987V19.2262L16.1066 20.5473C15.4891 20.8561 15.2389 21.6069 15.5476 22.2244C15.8563 22.8419 16.6072 23.0921 17.2247 22.7834L20.558 21.1167C20.9815 20.905 21.249 20.4722 21.249 19.9987V14.9987Z" fill="#8B00FF"/>
</svg>
