<svg width="40" height="40" viewBox="0 0 40 40" fill="none" xmlns="http://www.w3.org/2000/svg">
<path opacity="0.4" d="M34.1666 22.5C34.1666 30.324 27.824 36.6667 19.9999 36.6667C12.1759 36.6667 5.83325 30.324 5.83325 22.5C5.83325 14.676 12.1759 8.33333 19.9999 8.33333C27.824 8.33333 34.1666 14.676 34.1666 22.5Z" fill="#8B00FF"/>
<path fill-rule="evenodd" clip-rule="evenodd" d="M19.9998 4.58333C18.3826 4.58333 16.8199 4.8077 15.34 5.22625C14.6757 5.41414 13.9849 5.02793 13.797 4.36364C13.6091 3.69934 13.9953 3.00851 14.6596 2.82062C16.3587 2.34007 18.1503 2.08333 19.9998 2.08333C21.8494 2.08333 23.641 2.34007 25.34 2.82062C26.0043 3.00851 26.3905 3.69934 26.2026 4.36364C26.0148 5.02793 25.3239 5.41414 24.6596 5.22625C23.1798 4.8077 21.6171 4.58333 19.9998 4.58333Z" fill="#8B00FF"/>
<path d="M23.3332 23.3333C23.3332 25.1743 21.8408 26.6667 19.9998 26.6667C18.1589 26.6667 16.6665 25.1743 16.6665 23.3333C16.6665 21.4924 18.1589 20 19.9998 20C21.8408 20 23.3332 21.4924 23.3332 23.3333Z" fill="#8B00FF"/>
<path fill-rule="evenodd" clip-rule="evenodd" d="M19.9998 13.75C20.6902 13.75 21.2498 14.3096 21.2498 15V21.6667C21.2498 22.357 20.6902 22.9167 19.9998 22.9167C19.3095 22.9167 18.7498 22.357 18.7498 21.6667V15C18.7498 14.3096 19.3095 13.75 19.9998 13.75Z" fill="#8B00FF"/>
</svg>
