<svg width="40" height="40" viewBox="0 0 40 40" fill="none" xmlns="http://www.w3.org/2000/svg">
<path opacity="0.4" d="M33.3331 13.3333C35.174 13.3333 36.6664 14.8257 36.6664 16.6667L36.6664 33.3333C36.6664 35.1743 35.174 36.6667 33.3331 36.6667C31.4921 36.6667 29.9998 35.1743 29.9998 33.3333L29.9998 16.6667C29.9998 14.8257 31.4921 13.3333 33.3331 13.3333Z" fill="#8B00FF"/>
<path opacity="0.4" d="M6.66659 26.6667C8.50753 26.6667 9.99992 28.159 9.99992 30V33.3333C9.99992 35.1743 8.50753 36.6667 6.66658 36.6667C4.82564 36.6667 3.33325 35.1743 3.33325 33.3333L3.33325 30C3.33325 28.159 4.82564 26.6667 6.66659 26.6667Z" fill="#8B00FF"/>
<path opacity="0.4" d="M19.9998 20C21.8408 20 23.3332 21.4924 23.3332 23.3333L23.3332 33.3333C23.3332 35.1743 21.8408 36.6667 19.9998 36.6667C18.1589 36.6667 16.6665 35.1743 16.6665 33.3333L16.6665 23.3333C16.6665 21.4924 18.1589 20 19.9998 20Z" fill="#8B00FF"/>
<path fill-rule="evenodd" clip-rule="evenodd" d="M30.4165 3.33333C30.4165 2.64297 30.9761 2.08333 31.6665 2.08333H34.9998C36.6106 2.08333 37.9165 3.38916 37.9165 4.99999V8.33333C37.9165 9.02368 37.3568 9.58333 36.6665 9.58333C35.9761 9.58333 35.4165 9.02368 35.4165 8.33333V6.26852C28.9448 11.4527 23.9267 14.8205 19.0678 17.0741C14.0984 19.379 9.35562 20.4906 3.49158 21.2399C2.80679 21.3274 2.18073 20.8432 2.09323 20.1584C2.00572 19.4736 2.48992 18.8476 3.17471 18.7601C8.88087 18.0309 13.3535 16.9687 18.0159 14.8062C22.5311 12.712 27.2799 9.56026 33.5207 4.58333H31.6665C30.9761 4.58333 30.4165 4.02368 30.4165 3.33333Z" fill="#8B00FF"/>
</svg>
