<svg width="40" height="40" viewBox="0 0 40 40" fill="none" xmlns="http://www.w3.org/2000/svg">
<path opacity="0.4" fill-rule="evenodd" clip-rule="evenodd" d="M13.3314 4.58301C12.1808 4.58301 11.248 5.51575 11.248 6.66634V11.6663C11.248 12.3567 10.6884 12.9163 9.99805 12.9163C9.30769 12.9163 8.74805 12.3567 8.74805 11.6663V6.66634C8.74805 4.13504 10.8001 2.08301 13.3314 2.08301H26.6647C29.196 2.08301 31.248 4.13504 31.248 6.66634V11.6663C31.248 12.3567 30.6884 12.9163 29.998 12.9163C29.3077 12.9163 28.748 12.3567 28.748 11.6663V6.66634C28.748 5.51575 27.8153 4.58301 26.6647 4.58301H13.3314Z" fill="#8B00FF"/>
<path opacity="0.4" d="M33.802 31.3466C33.1689 34.4443 30.4663 36.6667 27.3324 36.6667H12.665C9.53106 36.6667 6.82848 34.4443 6.19543 31.3467L3.47057 18.0133C2.62526 13.8771 5.75542 10 9.94013 10L30.0573 10C34.242 10 37.3721 13.8771 36.5268 18.0133L33.802 31.3466Z" fill="#8B00FF"/>
<path d="M30.0573 10H9.94013C6.21432 10 3.32447 13.0734 3.33205 16.6667H36.6654C36.6729 13.0734 33.7831 10 30.0573 10Z" fill="#8B00FF"/>
<path fill-rule="evenodd" clip-rule="evenodd" d="M14.998 22.083C15.6884 22.083 16.248 22.6427 16.248 23.333L16.248 29.9997C16.248 30.69 15.6884 31.2497 14.998 31.2497C14.3077 31.2497 13.748 30.69 13.748 29.9997L13.748 23.333C13.748 22.6427 14.3077 22.083 14.998 22.083Z" fill="#8B00FF"/>
<path fill-rule="evenodd" clip-rule="evenodd" d="M24.998 22.083C25.6884 22.083 26.248 22.6427 26.248 23.333L26.248 29.9997C26.248 30.69 25.6884 31.2497 24.998 31.2497C24.3077 31.2497 23.748 30.69 23.748 29.9997L23.748 23.333C23.748 22.6427 24.3077 22.083 24.998 22.083Z" fill="#8B00FF"/>
</svg>
