<svg width="40" height="41" viewBox="0 0 40 41" fill="none" xmlns="http://www.w3.org/2000/svg">
<path fill-rule="evenodd" clip-rule="evenodd" d="M2.08203 3.66714C2.08203 2.97679 2.64168 2.41714 3.33203 2.41714H4.9987C7.53 2.41714 9.58203 4.46917 9.58203 7.00048V32.0005C9.58203 32.6908 9.02239 33.2505 8.33203 33.2505C7.64167 33.2505 7.08203 32.6908 7.08203 32.0005V7.00048C7.08203 5.84989 6.14929 4.91714 4.9987 4.91714H3.33203C2.64168 4.91714 2.08203 4.3575 2.08203 3.66714Z" fill="#8B00FF"/>
<path fill-rule="evenodd" clip-rule="evenodd" d="M8.74805 33.6671C8.74805 32.9768 9.30769 32.4171 9.99805 32.4171L36.6647 32.4171C37.3551 32.4171 37.9147 32.9768 37.9147 33.6671C37.9147 34.3575 37.3551 34.9171 36.6647 34.9171L9.99805 34.9171C9.30769 34.9171 8.74805 34.3575 8.74805 33.6671Z" fill="#8B00FF"/>
<path opacity="0.4" d="M13.332 12.0005C13.332 10.1595 14.8244 8.66714 16.6654 8.66714H29.9987C31.8396 8.66714 33.332 10.1595 33.332 12.0005V25.3338C33.332 27.1748 31.8396 28.6671 29.9987 28.6671H16.6654C14.8244 28.6671 13.332 27.1748 13.332 25.3338V12.0005Z" fill="#8B00FF"/>
<circle cx="8.33138" cy="33.6675" r="3.33333" fill="#8B00FF"/>
<path fill-rule="evenodd" clip-rule="evenodd" d="M20.416 13.6671C20.416 12.9768 20.9757 12.4171 21.666 12.4171H24.9993C25.6897 12.4171 26.2493 12.9768 26.2493 13.6671C26.2493 14.3575 25.6897 14.9171 24.9993 14.9171H21.666C20.9757 14.9171 20.416 14.3575 20.416 13.6671Z" fill="#8B00FF"/>
</svg>
