<svg width="40" height="41" viewBox="0 0 40 41" fill="none" xmlns="http://www.w3.org/2000/svg">
<path opacity="0.4" d="M36.6654 20.6667C36.6654 29.8714 29.2034 37.3333 19.9987 37.3333C10.794 37.3333 3.33203 29.8714 3.33203 20.6667C3.33203 11.4619 10.794 4 19.9987 4C29.2034 4 36.6654 11.4619 36.6654 20.6667Z" fill="#8B00FF"/>
<path d="M23.3327 20.6663C23.3327 22.5073 21.8403 23.9997 19.9993 23.9997C18.1584 23.9997 16.666 22.5073 16.666 20.6663C16.666 18.8254 18.1584 17.333 19.9993 17.333C21.8403 17.333 23.3327 18.8254 23.3327 20.6663Z" fill="#8B00FF"/>
<path fill-rule="evenodd" clip-rule="evenodd" d="M19.998 9.41699C19.3077 9.41699 18.748 9.97664 18.748 10.667V18.167C18.748 18.8573 19.3077 19.417 19.998 19.417C20.6884 19.417 21.248 18.8573 21.248 18.167V10.667C21.248 9.97664 20.6884 9.41699 19.998 9.41699ZM21.6142 22.2831C21.126 22.7713 21.126 23.5627 21.6142 24.0509L24.1142 26.5509C24.6023 27.039 25.3938 27.039 25.8819 26.5509C26.3701 26.0627 26.3701 25.2713 25.8819 24.7831L23.3819 22.2831C22.8938 21.795 22.1023 21.795 21.6142 22.2831Z" fill="#8B00FF"/>
<path fill-rule="evenodd" clip-rule="evenodd" d="M2.08203 30.667C2.08203 29.9766 2.64168 29.417 3.33203 29.417H13.332C14.0224 29.417 14.582 29.9766 14.582 30.667C14.582 31.3573 14.0224 31.917 13.332 31.917H3.33203C2.64168 31.917 2.08203 31.3573 2.08203 30.667Z" fill="#8B00FF"/>
<path fill-rule="evenodd" clip-rule="evenodd" d="M2.08203 35.667C2.08203 34.9766 2.64168 34.417 3.33203 34.417H16.6654C17.3557 34.417 17.9154 34.9766 17.9154 35.667C17.9154 36.3573 17.3557 36.917 16.6654 36.917H3.33203C2.64168 36.917 2.08203 36.3573 2.08203 35.667Z" fill="#8B00FF"/>
<path fill-rule="evenodd" clip-rule="evenodd" d="M2.08203 25.667C2.08203 24.9766 2.64168 24.417 3.33203 24.417H9.9987C10.6891 24.417 11.2487 24.9766 11.2487 25.667C11.2487 26.3573 10.6891 26.917 9.9987 26.917H3.33203C2.64168 26.917 2.08203 26.3573 2.08203 25.667Z" fill="#8B00FF"/>
</svg>
