<svg width="40" height="40" viewBox="0 0 40 40" fill="none" xmlns="http://www.w3.org/2000/svg">
<path opacity="0.4" d="M33.3327 28.3337V13.3337L24.9993 6.66699H14.9993L6.66602 13.3337V28.3337C6.66602 31.0951 8.90459 33.3337 11.666 33.3337H28.3327C31.0941 33.3337 33.3327 31.0951 33.3327 28.3337Z" fill="#8B00FF"/>
<path d="M19.998 6.66699H32.1028C32.6748 6.66699 33.2049 6.97416 33.4991 7.47617L36.4301 12.4762C37.0813 13.587 36.2996 15.0003 35.0339 15.0003H26.727C25.583 15.0003 24.523 14.386 23.9344 13.382L19.998 6.66699Z" fill="#8B00FF"/>
<path d="M19.9987 6.66699H7.89391C7.32193 6.66699 6.79189 6.97416 6.49761 7.47617L3.5666 12.4762C2.9154 13.587 3.69719 15.0003 4.96289 15.0003H13.2698C14.4137 15.0003 15.4738 14.386 16.0623 13.382L19.9987 6.66699Z" fill="#8B00FF"/>
</svg>
