<svg width="40" height="40" viewBox="0 0 40 40" fill="none" xmlns="http://www.w3.org/2000/svg">
<path d="M29.4395 32.0958C28.1852 33.1709 26.9497 34.2272 25.7236 35.2741C25.6104 35.3684 25.4973 35.4627 25.3841 35.557C24.7051 36.1323 23.9977 36.1323 23.3281 35.557C22.0832 34.5007 20.8477 33.435 19.6028 32.3693C19.4991 32.2844 19.3953 32.1995 19.2727 32.0864C18.5654 32.69 17.858 33.2936 17.1507 33.8971C16.4999 34.4536 15.8586 35.0006 15.2079 35.557C14.7175 35.9814 14.1705 36.1135 13.5669 35.8305C12.9727 35.5476 12.7181 35.0477 12.7181 34.397C12.7181 26.239 12.7181 18.0716 12.7181 9.91365C12.7181 7.45211 11.3977 5.42441 9.14365 4.47186C9.0682 4.44357 9.00218 4.40584 8.89844 4.36812C9.2191 4.08518 9.57748 4.0003 9.96416 4.0003C12.2842 4.0003 14.5949 4.0003 16.9149 4.0003C21.3193 4.0003 25.7236 3.98144 30.128 4.00973C32.4858 4.02859 34.24 5.12261 35.3623 7.19747C35.7867 7.98969 35.9941 8.84793 35.9941 9.74389C35.9941 17.9773 35.9941 26.2013 35.9941 34.4347C35.9941 35.0666 35.7301 35.5665 35.1453 35.84C34.5512 36.1229 33.9947 35.9909 33.5043 35.5759C32.1651 34.4253 30.8164 33.2747 29.4395 32.0958ZM24.3561 18.5432C25.7236 18.5432 27.1006 18.5432 28.4681 18.5432C28.7039 18.5432 28.9491 18.5243 29.1754 18.4583C29.8545 18.2414 30.2506 17.5718 30.1374 16.855C30.0337 16.176 29.4301 15.6572 28.7039 15.6478C27.9588 15.6384 27.2043 15.6478 26.4592 15.6478C24.3372 15.6478 22.2152 15.6478 20.1027 15.6478C19.1973 15.6478 18.5559 16.2608 18.5559 17.1002C18.5559 17.949 19.1784 18.5338 20.1027 18.5432C21.5173 18.5432 22.932 18.5432 24.3561 18.5432ZM24.3372 24.3622C25.7519 24.3622 27.1666 24.3622 28.5907 24.3622C28.9868 24.3622 29.3546 24.2679 29.6564 24.0038C30.1091 23.6172 30.2694 22.9947 30.0714 22.4288C29.8639 21.8441 29.364 21.4763 28.685 21.4668C27.657 21.448 26.6196 21.4668 25.5916 21.4668C23.7808 21.4668 21.9606 21.4668 20.1498 21.4668C19.65 21.4668 19.2067 21.5895 18.8766 21.995C18.5088 22.4571 18.4333 22.9853 18.6785 23.5228C18.9426 24.0981 19.4236 24.3622 20.0366 24.3717C21.4607 24.3717 22.8943 24.3717 24.3184 24.3717L24.3372 24.3622ZM24.3372 12.7241C25.7708 12.7241 27.1949 12.7241 28.6284 12.7241C29.5149 12.7241 30.1468 12.1205 30.1468 11.2812C30.1468 10.4418 29.5149 9.84763 28.6284 9.8382C25.7708 9.8382 22.9037 9.8382 20.0461 9.8382C19.914 9.8382 19.7726 9.8382 19.6405 9.87593C18.9049 10.0645 18.4522 10.7436 18.5559 11.4981C18.6408 12.1771 19.2538 12.7147 19.98 12.7147C21.4324 12.7147 22.8848 12.7147 24.3372 12.7147V12.7241Z" fill="#8B00FF"/>
<path opacity="0.4" d="M9.82131 21.4572C9.68927 21.4572 9.5761 21.4572 9.47236 21.4572C8.19915 21.4572 6.93538 21.4572 5.66217 21.4572C4.58702 21.4572 4.01172 20.8724 4.01172 19.7878C4.01172 16.3549 4.01172 12.9125 4.01172 9.47956C4.01172 7.92341 5.34151 6.62191 6.91651 6.61248C8.47266 6.60305 9.84017 7.88569 9.8496 9.42297C9.86847 13.3746 9.8496 17.3169 9.8496 21.2685C9.8496 21.3157 9.8496 21.3534 9.83074 21.4666L9.82131 21.4572Z" fill="#8B00FF"/>
</svg>
