<svg width="40" height="40" viewBox="0 0 40 40" fill="none" xmlns="http://www.w3.org/2000/svg">
<path d="M29.5381 36H10.4089C10.3397 35.974 10.2791 35.9481 10.2098 35.9308C8.47002 35.6019 7.09375 34.0092 7.09375 32.2781C7.09375 25.0766 7.09375 17.8837 7.09375 10.6822C7.09375 8.84719 8.65179 7.14202 10.4868 7.00353C11.3091 6.94294 12.1314 6.96891 12.9537 6.9516C13.1788 6.9516 13.4038 6.9516 13.6548 6.9516C13.6548 7.60943 13.6462 8.21532 13.6548 8.82987C13.6808 10.4398 14.9532 11.7728 16.5632 11.7988C18.8483 11.8334 21.1247 11.8334 23.4099 11.7988C25.0025 11.7728 26.249 10.4918 26.3009 8.89046C26.3182 8.3365 26.3182 7.78254 26.3009 7.23723C26.3009 7.02084 26.3615 6.94294 26.5779 6.9516C27.4002 6.96025 28.2225 6.94294 29.0448 6.9516C31.2001 6.99487 32.8793 8.67407 32.8879 10.8293C32.9052 17.927 32.8966 25.016 32.8879 32.1136C32.8879 33.4206 32.3253 34.4853 31.278 35.2729C30.7586 35.6624 30.1527 35.8442 29.5381 36ZM23.003 16.1785C21.3671 16.1785 19.7312 16.1785 18.0952 16.1785C17.6365 16.1785 17.2816 16.4209 17.1517 16.8104C16.944 17.4509 17.3941 18.0308 18.1212 18.0308C19.1945 18.0308 20.2678 18.0308 21.3411 18.0308C23.4964 18.0308 25.6517 18.0308 27.807 18.0308C28.1359 18.0308 28.4302 17.9703 28.6553 17.7106C28.9063 17.4163 28.9669 17.0787 28.8024 16.7238C28.6379 16.3603 28.3437 16.1699 27.9368 16.1699C26.2922 16.1699 24.6476 16.1699 23.003 16.1699V16.1785ZM22.9857 24.6957C24.6044 24.6957 26.2143 24.6957 27.833 24.6957C28.4562 24.6957 28.863 24.3322 28.863 23.7782C28.863 23.2242 28.4648 22.8347 27.8503 22.8347C24.613 22.8347 21.3671 22.8347 18.1298 22.8347C17.498 22.8347 17.0825 23.2416 17.0912 23.7955C17.1085 24.3408 17.5153 24.6957 18.1472 24.7044C19.7658 24.7044 21.3758 24.7044 22.9944 24.7044L22.9857 24.6957ZM23.1156 29.4304C21.471 29.4304 19.8264 29.4304 18.1818 29.4304C17.4893 29.4304 17.0392 30.0882 17.3076 30.7027C17.4893 31.1269 17.8356 31.2827 18.2857 31.2827C19.9043 31.2827 21.5143 31.2827 23.1329 31.2827C24.7342 31.2827 26.3442 31.2827 27.9455 31.2827C28.2744 31.2827 28.5687 31.2221 28.7851 30.9624C29.0361 30.6681 29.088 30.3305 28.9236 29.9757C28.7591 29.6121 28.4562 29.4304 28.0494 29.4304C26.4048 29.4304 24.7602 29.4304 23.1156 29.4304ZM12.9624 30.2007C12.8498 30.0709 12.7892 29.9757 12.7027 29.8978C12.3045 29.5169 11.7159 29.5169 11.361 29.8891C10.9975 30.2613 11.0062 30.8153 11.387 31.2048C11.6726 31.5077 11.9669 31.802 12.2699 32.0877C12.6854 32.4858 13.2567 32.5031 13.6721 32.105C14.4165 31.3779 15.1523 30.6422 15.8794 29.8978C16.1044 29.6727 16.1996 29.3871 16.1304 29.0668C15.9659 28.3224 15.109 28.0628 14.5464 28.5994C14.0184 29.1014 13.5163 29.6294 12.9537 30.2007H12.9624ZM12.8066 23.6138C12.7113 23.4926 12.6508 23.3887 12.5642 23.3108C12.1574 22.9213 11.5947 22.9126 11.2225 23.2848C10.8504 23.657 10.859 24.2196 11.2485 24.6265C11.5082 24.8948 11.7765 25.1545 12.0448 25.4228C12.5642 25.9335 13.1095 25.9421 13.6289 25.4228C14.304 24.7476 14.9878 24.0725 15.663 23.3887C16.1044 22.9386 16.139 22.3673 15.7322 21.9778C15.3513 21.6056 14.7714 21.6403 14.3473 22.0644C13.8539 22.5578 13.3605 23.0511 12.8152 23.6051L12.8066 23.6138ZM12.8239 16.9835C12.7287 16.845 12.6767 16.7412 12.5988 16.6546C12.2007 16.2737 11.6207 16.2651 11.2572 16.6286C10.885 17.0008 10.8936 17.5721 11.2918 17.9703C11.5774 18.2646 11.8631 18.5502 12.1574 18.8358C12.5815 19.2426 13.1614 19.26 13.5856 18.8445C14.3213 18.1261 15.0484 17.3903 15.7755 16.6546C16.0178 16.4122 16.1131 16.1093 16.0178 15.7631C15.8188 15.0533 14.9965 14.8196 14.4598 15.3476C13.9318 15.8496 13.4298 16.3776 12.8412 16.9835H12.8239Z" fill="#8B00FF"/>
<path opacity="0.4" d="M19.9661 9.93779C18.7802 9.93779 17.5944 9.93779 16.4085 9.93779C15.8026 9.93779 15.543 9.66946 15.543 9.05491C15.543 8.13741 15.543 7.21991 15.543 6.30241C15.543 5.76576 15.8113 5.48877 16.3393 5.48012C16.7548 5.47146 17.1703 5.47146 17.5857 5.48012C17.7848 5.48012 17.8973 5.41087 18.0012 5.2291C18.4167 4.44144 19.0745 4 19.9834 4C20.8836 4 21.5501 4.42413 21.9742 5.22045C22.0781 5.41087 22.1993 5.48877 22.4156 5.48012C22.7965 5.47146 23.186 5.48012 23.5755 5.48012C24.1728 5.48012 24.4584 5.76576 24.4671 6.35434C24.4671 7.26319 24.4671 8.16338 24.4671 9.07222C24.4671 9.65215 24.1728 9.92913 23.6015 9.92913C22.3897 9.92913 21.1865 9.92913 19.9747 9.92913L19.9661 9.93779Z" fill="#8B00FF"/>
</svg>
