<svg width="40" height="40" viewBox="0 0 40 40" fill="none" xmlns="http://www.w3.org/2000/svg">
<path opacity="0.4" d="M36.0008 28.5527C35.8449 28.9337 35.5505 29.1849 35.23 29.4187C33.2988 30.8477 31.3675 32.2853 29.4363 33.7143C29.3063 33.8096 29.1158 33.8702 28.9599 33.8702C25.4352 33.8702 21.9191 33.8702 18.3943 33.8702C18.2298 33.8702 18.0479 33.8096 17.9007 33.723C14.9821 31.887 12.0722 30.0423 9.17103 28.1976C9.04978 28.1196 8.91988 27.9551 8.91122 27.8338C8.8939 25.9199 8.90256 23.9972 8.90256 22.0833C8.90256 22.0399 8.91122 22.0053 8.91988 21.936C9.00648 21.936 9.10174 21.9187 9.18835 21.9187C12.2628 21.9187 15.3372 21.9187 18.4116 21.9187C18.5502 21.9187 18.7234 21.988 18.8187 22.0833C20.6027 23.85 22.3781 25.6254 24.1448 27.4095C24.8549 28.1196 24.6124 29.2368 23.6944 29.5226C23.1921 29.6785 22.7591 29.5313 22.3867 29.1589C21.5467 28.3102 20.6893 27.4614 19.8492 26.6127C19.1911 25.9458 18.5242 25.2876 17.8833 24.6381C17.4417 25.0798 17.0173 25.5128 16.567 25.9545C16.6189 26.0065 16.6796 26.0844 16.7488 26.1537C18.1778 27.5827 19.6068 29.0117 21.0357 30.4407C21.7112 31.1162 22.508 31.4539 23.4693 31.4453C25.1061 31.428 26.7429 31.4453 28.3797 31.4366C28.5529 31.4366 28.7521 31.3673 28.8906 31.2634C30.5881 30.0163 32.2942 28.7865 33.9483 27.4874C34.6411 26.9418 35.6457 26.9764 36.0095 27.9897V28.5527H36.0008Z" fill="#8B00FF"/>
<path d="M14.0536 20.0481V6.11328H20.3843V13.2236H28.2999V6.11328H34.6479V25.2357C33.2709 25.3483 32.3962 26.3876 31.3483 27.115C30.2831 27.8598 29.2525 28.6653 28.2133 29.4361C28.1353 29.4967 28.0314 29.566 27.9448 29.5746C27.3732 29.5833 26.8016 29.5746 26.308 29.5746C26.334 28.9944 26.4119 28.4401 26.3773 27.8945C26.3426 27.219 26.0308 26.6387 25.5459 26.1537C23.5626 24.1618 21.5708 22.1699 19.5702 20.1866C19.475 20.0914 19.3018 20.0394 19.1545 20.0394C17.5697 20.0307 15.9848 20.0394 14.4 20.0394C14.2874 20.0394 14.1748 20.0394 14.0449 20.0394L14.0536 20.0481Z" fill="#8B00FF"/>
<path d="M7.0138 30.086H4V19.8232H7.0138V30.086Z" fill="#8B00FF"/>
<path d="M26.4139 11.3789H22.2656V6.11328H26.4139V11.3789Z" fill="#8B00FF"/>
</svg>
