<svg width="40" height="40" viewBox="0 0 40 40" fill="none" xmlns="http://www.w3.org/2000/svg">
<path d="M24.1663 9.16667C24.1663 11.4679 22.3009 13.3333 19.9997 13.3333C17.6985 13.3333 15.833 11.4679 15.833 9.16667C15.833 6.86548 17.6985 5 19.9997 5C22.3009 5 24.1663 6.86548 24.1663 9.16667Z" fill="#8B00FF"/>
<path opacity="0.4" d="M9.75248 25.4108L15.9507 33.075C18.0265 35.6417 21.9729 35.6417 24.0486 33.075L30.2469 25.4108C31.1657 24.2746 31.6663 22.8629 31.6663 21.4078V21.1204C31.6663 17.7402 28.8962 15 25.4792 15C23.8382 15 22.2645 15.6448 21.1042 16.7926L19.9997 17.8852L18.8952 16.7926C17.7349 15.6448 16.1611 15 14.5202 15C11.1031 15 8.33301 17.7402 8.33301 21.1204V21.4078C8.33301 22.8629 8.83361 24.2746 9.75248 25.4108Z" fill="#8B00FF"/>
</svg>
