<svg width="40" height="40" viewBox="0 0 40 40" fill="none" xmlns="http://www.w3.org/2000/svg">
<path d="M20.899 11.6724C20.899 12.4134 20.899 13.1273 20.899 13.8412C20.899 14.3112 21.2334 14.5913 21.6852 14.5371C22.0376 14.4919 22.2726 14.2027 22.2816 13.7599C22.2816 13.4075 22.2816 13.0641 22.2816 12.7116C22.2816 12.3773 22.2816 12.0339 22.2816 11.6724C22.3901 11.6724 22.4804 11.6543 22.5708 11.6543C23.7998 11.6543 25.0288 11.6543 26.2579 11.6543C26.8362 11.6543 27.1796 11.9616 27.2338 12.5309C27.4507 14.8444 27.6586 17.1578 27.8664 19.4803C27.8664 19.4984 27.8574 19.5255 27.8484 19.5707C24.5137 19.3629 21.7304 20.4834 19.7152 23.1765C17.709 25.8605 17.4288 28.8427 18.5765 32.0237C18.441 32.0237 18.3235 32.0237 18.206 32.0237C14.6274 32.0237 11.0488 31.9966 7.4702 32.0418C6.3677 32.0508 5.49112 31.1471 5.61764 30.0355C5.87971 27.695 6.06045 25.3453 6.27733 22.9957C6.45807 20.9805 6.63881 18.9743 6.81954 16.959C6.9551 15.5131 7.08161 14.0581 7.21717 12.6122C7.28042 11.9525 7.59671 11.6814 8.26544 11.6814C9.44927 11.6814 10.6331 11.6814 11.826 11.6814H12.1784C12.1784 12.2778 12.1784 12.8381 12.1784 13.3984C12.1784 13.5611 12.1784 13.7238 12.1784 13.8864C12.2146 14.3112 12.4766 14.5642 12.8652 14.5642C13.2538 14.5642 13.5339 14.3112 13.552 13.8864C13.5701 13.29 13.5611 12.6936 13.5611 12.0881C13.5611 11.9616 13.5611 11.835 13.5611 11.6904H20.8809L20.899 11.6724Z" fill="#8B00FF"/>
<path opacity="0.4" d="M34.3926 28.5539C34.3926 32.6748 31.0489 36.0094 26.9191 36.0094C22.7802 36.0094 19.4636 32.6838 19.4727 28.5449C19.4727 24.424 22.7982 21.1165 26.9191 21.1074C31.0489 21.1074 34.3835 24.433 34.3926 28.5629V28.5539ZM26.0334 29.4034C25.4822 28.8973 24.9581 28.4184 24.4249 27.9304C24.199 27.7225 23.9459 27.5869 23.6296 27.6683C23.3495 27.7406 23.1416 27.9213 23.0694 28.2105C22.988 28.5268 23.0694 28.8069 23.3224 29.0329C24.0182 29.6655 24.705 30.298 25.3918 30.9306C25.8617 31.3644 26.2232 31.3554 26.6931 30.9126C27.4793 30.1625 28.2656 29.4124 29.0518 28.6624C29.5578 28.1834 30.0639 27.7044 30.5519 27.2164C30.832 26.9453 30.8682 26.6019 30.7055 26.2947C30.5519 25.9964 30.2175 25.8157 29.8832 25.9061C29.6934 25.9603 29.5126 26.0778 29.3681 26.2133C28.2565 27.2707 27.145 28.328 26.0154 29.4124L26.0334 29.4034Z" fill="#8B00FF"/>
<path opacity="0.4" d="M22.2197 11.519H20.8822C20.8822 11.4016 20.8641 11.2841 20.8641 11.1666C20.8641 10.3985 20.8732 9.62127 20.8461 8.85312C20.7738 6.98247 19.2917 5.53655 17.3397 5.41003C15.6137 5.30159 13.9509 6.6481 13.6527 8.40127C13.5985 8.71757 13.5894 9.05194 13.5894 9.37727C13.5894 10.0822 13.5894 10.787 13.5894 11.519H12.2158C12.2158 11.519 12.1797 11.4739 12.1797 11.4558C12.2158 10.3081 12.1345 9.14231 12.3152 8.01268C12.6948 5.72632 14.9088 3.87374 17.5566 4.00026C19.843 4.11774 21.9395 5.96129 22.2016 8.3109C22.3191 9.3592 22.2197 10.4346 22.2197 11.51V11.519Z" fill="#8B00FF"/>
</svg>
