<svg width="40" height="40" viewBox="0 0 40 40" fill="none" xmlns="http://www.w3.org/2000/svg">
<path d="M22.0668 36.0001C20.5726 34.9668 19.0784 33.9494 17.616 32.9002C17.0755 32.5028 16.8212 31.8987 16.7576 31.2311C16.6622 30.3091 16.6145 29.387 16.4079 28.4809C16.1217 27.1615 15.3587 26.0805 14.4845 25.0632C12.418 22.6469 10.3674 20.2147 8.31684 17.7984C7.7128 17.083 7.6969 16.1292 8.26915 15.4139C8.58707 15.0165 9.00037 14.778 9.52493 14.7462C9.6362 14.7462 9.74748 14.7462 9.87464 14.7462C16.6304 14.7462 23.3703 14.7462 30.1261 14.7462C31.1593 14.7462 31.8587 15.2549 32.0813 16.1769C32.2084 16.7333 32.1131 17.2579 31.7475 17.703C31.6044 17.8779 31.4295 18.0368 31.3183 18.2276C31.1752 18.466 30.9685 18.4978 30.7142 18.4978C28.0755 18.4978 25.4368 18.4978 22.8139 18.4978C20.5567 18.4978 18.2995 18.4978 16.0264 18.4978C15.8992 18.4978 15.7561 18.4978 15.629 18.5296C15.1203 18.6409 14.8183 19.0542 14.866 19.547C14.9137 20.008 15.3111 20.3577 15.8038 20.3736C16.1535 20.3736 16.5191 20.3736 16.8689 20.3736C20.9382 20.3736 25.0235 20.3736 29.0928 20.3736C29.2041 20.3736 29.3154 20.3736 29.4902 20.3736C28.9657 20.9936 28.4888 21.5659 28.0119 22.1382C27.0423 23.2827 26.0567 24.4114 25.103 25.5718C23.8472 27.082 23.2749 28.8307 23.2749 30.786C23.2749 32.1372 23.259 33.4725 23.2749 34.8237C23.2749 35.396 23.0842 35.7934 22.5596 36.0001H22.0668Z" fill="#8B00FF"/>
<path opacity="0.4" d="M11.8761 9.62742C10.3183 9.62742 9.0625 8.37158 9.0625 6.81371C9.0625 5.23994 10.3183 4 11.892 4C13.4339 4 14.6897 5.25584 14.6897 6.79781C14.6897 8.37158 13.4498 9.61153 11.8761 9.62742Z" fill="#8B00FF"/>
<path opacity="0.4" d="M30.9356 6.81371C30.9356 8.37158 29.6799 9.62742 28.1221 9.62742C26.5643 9.62742 25.3085 8.37158 25.3244 6.79781C25.3244 5.23994 26.5643 4 28.1221 4C29.6958 4 30.9356 5.23994 30.9356 6.81371Z" fill="#8B00FF"/>
<path opacity="0.4" d="M17.1836 10.0568C17.1836 8.48298 18.4394 7.24304 19.9972 7.24304C21.5709 7.24304 22.8108 8.49888 22.8108 10.0568C22.8108 11.5987 21.555 12.8546 20.0131 12.8705C18.4553 12.8705 17.1836 11.6146 17.1836 10.0568Z" fill="#8B00FF"/>
</svg>
