<svg width="40" height="40" viewBox="0 0 40 40" fill="none" xmlns="http://www.w3.org/2000/svg">
<path d="M36.0019 9.44065V9.94738C35.8826 10.1411 35.7634 10.3349 35.6441 10.5286C34.6306 12.019 33.632 13.5094 32.6036 14.9849C32.4248 15.2383 32.4248 15.4023 32.6036 15.6556C33.7513 17.3249 34.8691 19.009 36.0019 20.6932V21.1999C35.8379 21.5874 35.5249 21.7961 35.1374 21.9302C31.5007 23.1225 27.8789 24.3298 24.2571 25.5221C23.5864 25.7456 23.2436 25.6264 22.8561 25.0303C21.9767 23.7187 21.0973 22.3922 20.218 21.0807C20.1584 20.9913 20.0838 20.9018 20.0093 20.7826C19.9199 20.9018 19.8603 20.9913 19.8006 21.0807C18.9213 22.4071 18.0419 23.7336 17.1476 25.0452C16.775 25.6115 16.4322 25.7158 15.7913 25.5072C12.1397 24.3 8.50302 23.0927 4.85141 21.8855C3.98695 21.6023 3.77829 20.9764 4.29995 20.2163C5.35817 18.6513 6.41639 17.1013 7.47461 15.5513C7.59384 15.3724 7.60875 15.2532 7.47461 15.0595C6.38658 13.5094 5.32836 11.9445 4.27014 10.3796C3.77829 9.6493 3.98695 9.02333 4.8216 8.75506C8.4434 7.54784 12.0801 6.34061 15.7168 5.13339C16.4471 4.89492 16.7601 4.99925 17.1774 5.62522C18.0568 6.93677 18.9362 8.26323 19.8155 9.57478C19.8752 9.66421 19.9348 9.75363 20.0242 9.85796C20.9781 8.42717 21.9171 7.0262 22.8412 5.64012C23.2585 4.99925 23.5715 4.89492 24.2869 5.13339C27.9087 6.32571 31.5156 7.53293 35.1374 8.72525C35.5398 8.85939 35.8379 9.06805 36.0168 9.45555L36.0019 9.44065ZM28.2217 15.3277C28.0876 15.2681 28.013 15.2383 27.9385 15.2085C25.36 14.3441 22.7815 13.4945 20.2031 12.6301C20.0689 12.5854 19.8901 12.6003 19.7559 12.6301C17.2073 13.4796 14.6586 14.3292 12.1099 15.1787C12.0205 15.2085 11.9311 15.2532 11.7969 15.3128C11.9162 15.3575 11.9758 15.3874 12.0354 15.4023C14.6288 16.2667 17.2371 17.1311 19.8305 17.9956C19.9646 18.0403 20.1434 18.0254 20.2776 17.9806C22.707 17.1758 25.1365 16.371 27.5808 15.5513C27.7746 15.4917 27.9832 15.4172 28.2366 15.3128L28.2217 15.3277Z" fill="#8B00FF"/>
<path opacity="0.4" d="M7.81764 24.8357C8.80134 25.1636 9.72542 25.4766 10.6644 25.7896C12.1847 26.2963 13.69 26.803 15.2103 27.3098C16.6262 27.7718 17.8484 27.3545 18.683 26.1175C19.1153 25.4766 19.5326 24.8357 19.9797 24.165C20.0393 24.2396 20.099 24.2992 20.1437 24.3588C20.5312 24.94 20.9336 25.5362 21.3211 26.1175C22.1558 27.3545 23.378 27.7867 24.7939 27.3098C27.1339 26.5348 29.459 25.7449 31.7841 24.9699C31.9033 24.9251 32.0226 24.8953 32.1567 24.8655C32.1567 26.7434 32.1716 28.6064 32.1567 30.4694C32.1567 30.9017 31.799 31.1401 31.3817 31.2743C29.5335 31.8853 27.6854 32.5113 25.8223 33.1224C24.0338 33.7185 22.2303 34.3147 20.4418 34.9108C20.1139 35.0152 19.8158 35.0152 19.5028 34.9108C15.8959 33.7036 12.289 32.5113 8.69701 31.3041C7.96668 31.0656 7.80273 30.8122 7.80273 30.0521C7.80273 28.3382 7.80273 26.6242 7.80273 24.8506L7.81764 24.8357Z" fill="#8B00FF"/>
</svg>
