<svg width="40" height="40" viewBox="0 0 40 40" fill="none" xmlns="http://www.w3.org/2000/svg">
<path opacity="0.4" d="M26.4989 35.9955C26.0143 35.8917 25.521 35.8311 25.0451 35.684C21.5665 34.611 19.4291 32.2833 18.7801 28.7008C17.9753 24.2617 20.9434 19.9092 25.3912 18.8794C30.2371 17.7545 35.057 20.9822 35.8791 25.8972C35.9137 26.0962 35.957 26.3039 36.0002 26.5029V28.1297C35.9829 28.2076 35.9483 28.2855 35.9397 28.372C35.3945 31.9458 33.4215 34.3514 30.0294 35.5715C29.4237 35.7878 28.766 35.8657 28.1257 36.0128H26.4989V35.9955ZM25.9451 28.5364C25.4086 27.9913 24.9067 27.4807 24.3961 26.9788C23.9808 26.5721 23.3577 26.5635 22.9683 26.9529C22.5789 27.3423 22.5789 27.9653 22.9943 28.3807C23.7471 29.1422 24.5086 29.9036 25.2701 30.6565C25.7374 31.1151 26.3518 31.1064 26.7844 30.6132C28.2209 28.9691 29.6487 27.3077 31.0765 25.6549C31.4659 25.2049 31.4053 24.5992 30.9813 24.2358C30.5573 23.8723 29.9602 23.9243 29.5622 24.3742C29.1381 24.8502 28.7314 25.3347 28.3161 25.8107C27.5373 26.7106 26.7585 27.6019 25.9537 28.5364H25.9451Z" fill="#8B00FF"/>
<path d="M16.3829 30.3102C15.9849 30.1112 15.6647 29.9468 15.3445 29.7824C11.7966 27.9565 8.24878 26.1307 4.69227 24.3135C4.21633 24.0626 4 23.7078 4 23.1627C4.00865 19.4331 4 15.7036 4 11.9741C4 11.8702 4 11.7664 4 11.6279C4.10384 11.6712 4.19037 11.7058 4.27691 11.7404C5.76528 12.4586 7.245 13.1855 8.73337 13.8951C8.9497 13.9989 9.00162 14.1201 9.00162 14.345C8.99297 15.643 9.00162 16.9497 9.00162 18.2476C9.00162 18.6976 9.2093 19.0264 9.61601 19.2168C9.97945 19.3812 10.3342 19.312 10.6371 19.0524C10.9054 18.8274 11.0005 18.5332 11.0005 18.1957C11.0005 17.1573 11.0005 16.1189 11.0005 15.0286C11.2774 15.1584 11.5111 15.2709 11.7534 15.3834C13.1985 16.0843 14.6436 16.7939 16.0973 17.4862C16.305 17.59 16.3743 17.7025 16.3743 17.9361C16.3656 20.0302 16.3743 22.1243 16.3483 24.2184C16.3483 24.7375 16.1925 25.2654 16.1147 25.7846C15.8983 27.1777 15.9935 28.5623 16.3137 29.9381C16.331 30.0247 16.3483 30.1198 16.3829 30.3016V30.3102Z" fill="#8B00FF"/>
<path d="M29.6734 9.89775C28.5398 10.4516 27.4582 10.9794 26.3765 11.5072C23.469 12.9264 20.5528 14.3455 17.6453 15.7733C17.4376 15.8771 17.2818 15.8858 17.0742 15.7733C15.5166 15.0031 13.959 14.2503 12.4014 13.4888C12.3062 13.4456 12.2196 13.3936 12.0898 13.3244C12.3062 13.2119 12.4965 13.1081 12.6869 13.0129C16.4338 11.1265 20.1807 9.24011 23.9276 7.34505C24.1266 7.24987 24.2737 7.24122 24.4728 7.34505C26.0996 8.1498 27.7351 8.93725 29.3705 9.73334C29.4571 9.77661 29.535 9.81987 29.6821 9.8891L29.6734 9.89775Z" fill="#8B00FF"/>
<path d="M21.9041 6.13353C20.658 6.76521 19.4552 7.37093 18.2524 7.98531C15.5439 9.35252 12.8354 10.7111 10.1269 12.0869C9.91061 12.1994 9.7462 12.2081 9.52121 12.0869C8.0415 11.3514 6.55312 10.6418 5.02148 9.89767C5.12532 9.8371 5.19455 9.78518 5.27243 9.75057C9.12316 7.88147 12.9739 6.01238 16.8246 4.13463C17.1448 3.97888 17.4563 3.95292 17.7851 4.10867C19.1178 4.75767 20.459 5.40666 21.7916 6.05565C21.8176 6.0643 21.8435 6.09026 21.9041 6.13353Z" fill="#8B00FF"/>
<path d="M30.6597 16.4658C25.7705 15.237 21.6948 16.535 18.3806 20.351C18.3806 20.2818 18.3633 20.2212 18.3633 20.1607C18.3633 19.3905 18.3633 18.6204 18.3633 17.8503C18.3633 17.7464 18.4498 17.582 18.5363 17.5388C22.5342 15.5831 26.532 13.6362 30.5299 11.6978C30.5558 11.6892 30.5904 11.6892 30.651 11.6719V16.4658H30.6597Z" fill="#8B00FF"/>
</svg>
