<svg width="40" height="40" viewBox="0 0 40 40" fill="none" xmlns="http://www.w3.org/2000/svg">
<path d="M20.0096 35.9637C17.3052 35.9637 14.6009 36.0363 11.9147 35.9637C8.66589 35.8548 5.81636 33.477 5.03592 30.3006C4.87257 29.6472 4.79997 28.9393 4.78182 28.2496C4.76367 24.4016 4.76367 20.5718 4.76367 16.7238C4.76367 16.0703 5.05407 15.7073 5.58042 15.7618C5.76191 15.7799 5.96156 15.8888 6.10676 16.0159C6.59681 16.4878 7.08685 16.9416 7.5406 17.4498C7.70395 17.6495 7.81285 17.958 7.81285 18.2121C7.84915 19.2104 7.84915 20.2087 7.81285 21.207C7.77655 22.8043 8.57514 23.8934 9.93638 24.6013C11.3158 25.3273 12.7133 25.2365 14.0564 24.4379C14.492 24.1838 14.9276 23.8934 15.345 23.603C16.6155 22.7317 17.2508 21.5156 17.2871 19.9909C17.3234 18.7022 17.2871 17.3954 17.2871 16.1066C17.2871 15.7799 17.396 15.5077 17.6501 15.2899C18.848 14.2371 20.0277 13.1662 21.2256 12.1134C22.5324 10.9518 23.2039 9.49972 23.2039 7.73909C23.2039 7.24901 23.2039 6.75894 23.2039 6.26887C23.2039 5.79694 23.4762 5.50653 23.9299 5.50653C25.5634 5.50653 27.215 5.43393 28.8485 5.61543C31.9885 5.9603 34.7109 8.75554 35.1284 11.8956C35.1828 12.3494 35.2373 12.8032 35.2373 13.2388C35.2373 18.2303 35.2373 23.2036 35.2373 28.1951C35.2373 31.6801 33.1319 34.5842 29.9375 35.6007C29.1208 35.8548 28.2677 35.9637 27.4147 35.9637C24.9463 35.9637 22.4961 35.9637 20.0277 35.9637C20.0277 35.9637 20.0277 35.9637 20.0277 35.9456L20.0096 35.9637ZM23.8029 27.2513C22.0786 27.2513 20.3544 27.2513 18.6302 27.2513C18.4668 27.2513 18.2853 27.2513 18.1401 27.3057C17.5956 27.4691 17.2689 28.0136 17.3597 28.5763C17.4504 29.139 17.9405 29.502 18.612 29.502C22.0786 29.502 25.5271 29.502 28.9937 29.502C29.1752 29.502 29.3749 29.4838 29.5564 29.4112C30.0464 29.2297 30.355 28.6852 30.2642 28.2133C30.1735 27.6506 29.7197 27.2513 29.1571 27.2331C27.3784 27.2331 25.5816 27.2331 23.8029 27.2331V27.2513ZM25.3456 23.4214C26.5617 23.4214 27.7777 23.4214 28.9937 23.4214C29.1571 23.4214 29.3386 23.4214 29.4838 23.367C29.992 23.2036 30.3368 22.6773 30.2642 22.1872C30.1916 21.6245 29.756 21.1707 29.1571 21.1707C26.598 21.1707 24.0388 21.1707 21.4797 21.1707C21.2619 21.1707 21.0259 21.2615 20.8626 21.3885C20.4452 21.6608 20.3 22.1872 20.4452 22.6591C20.5904 23.0947 21.0078 23.4214 21.4978 23.4214C22.7865 23.4214 24.0751 23.4214 25.3456 23.4214Z" fill="#8B00FF"/>
<path opacity="0.4" d="M12.8595 4C14.856 4 16.8525 4 18.849 4C20.1195 4 20.9181 4.79864 20.9181 6.0692C20.9181 6.83154 20.9362 7.59387 20.8636 8.35621C20.7729 9.15485 20.3736 9.82643 19.7746 10.371C18.5041 11.5145 17.2336 12.658 15.9632 13.8015C15.2916 14.4005 15.0375 15.1991 15.0194 16.0703C15.0194 17.359 15.0194 18.6296 15.0194 19.9183C15.0194 20.717 14.6927 21.3341 14.0211 21.7697C13.64 22.0238 13.277 22.2779 12.8958 22.5139C12.2606 22.9132 11.589 22.9314 10.9356 22.5683C10.2822 22.2053 9.95555 21.6245 9.95555 20.8622C9.95555 19.283 9.95555 17.7039 9.95555 16.1248C9.95555 15.1628 9.62885 14.346 8.97546 13.6381C7.94092 12.5309 6.90637 11.4056 5.85368 10.3165C5.10954 9.57232 4.71024 8.70108 4.76469 7.63018C4.80099 7.0312 4.76469 6.41407 4.80099 5.81509C4.87359 4.72604 5.67218 4 6.74302 4C8.77581 4 10.8086 4 12.8414 4H12.8595Z" fill="#8B00FF"/>
</svg>
