<svg width="40" height="40" viewBox="0 0 40 40" fill="none" xmlns="http://www.w3.org/2000/svg">
<path opacity="0.4" d="M26.2286 35.9886C25.9341 35.8782 25.6213 35.8229 25.3637 35.6757C24.278 35.1236 23.6523 34.2403 23.6155 33.0073C23.5787 31.5535 23.5787 30.1181 23.6155 28.6643C23.6339 27.3945 24.2964 26.5111 25.4189 25.9591C25.6213 25.867 25.6765 25.7566 25.6765 25.5358C25.6949 23.4563 27.0382 21.8 29.0993 21.4504C31.8411 21.0087 33.8837 22.9594 33.9205 25.3886C33.9205 25.683 33.9942 25.8486 34.2886 25.9959C35.3927 26.5664 35.9816 27.5049 36 28.7563C36 30.0997 36 31.4431 36 32.7865C36 34.3691 35.0247 35.5653 33.4789 35.915C33.4421 35.915 33.4053 35.9518 33.3685 35.9702H26.247L26.2286 35.9886ZM31.8043 25.6646C31.9147 24.9653 31.5099 24.1556 30.8842 23.7691C30.2034 23.3643 29.2097 23.4011 28.584 23.8611C27.9951 24.3028 27.7007 24.8917 27.7191 25.6646H31.8043ZM29.7433 32.3816C29.9273 32.3816 30.1114 32.3816 30.3138 32.3816C30.3138 32.3816 30.3322 32.3816 30.3506 32.3816C30.6082 32.3632 30.7554 32.216 30.7186 31.9584C30.7186 31.8295 30.6634 31.7007 30.6266 31.5719C30.5714 31.3879 30.5714 31.2407 30.6818 31.075C30.8842 30.7806 30.9026 30.4493 30.8106 30.1181C30.7002 29.6948 30.4242 29.4004 29.9825 29.3084C29.5409 29.2164 29.1729 29.3636 28.9152 29.7316C28.6208 30.1365 28.6024 30.5966 28.8416 31.0198C28.952 31.2223 28.9888 31.3879 28.8968 31.5903C28.86 31.6823 28.8416 31.7743 28.8232 31.8664C28.768 32.1976 28.8968 32.3632 29.2281 32.3632C29.3937 32.3632 29.5593 32.3632 29.7249 32.3632L29.7433 32.3816Z" fill="#8B00FF"/>
<path d="M4 16.3699C4.09201 15.8546 4.14722 15.321 4.25763 14.8057C4.36804 14.272 4.51525 13.7567 4.64407 13.2783H10.4407C10.1094 16.0387 10.1094 18.7807 10.4407 21.5595H4.64407C4.51525 21.081 4.36804 20.5474 4.25763 19.9953C4.14722 19.48 4.09201 18.9463 4 18.431C4 17.7501 4 17.0508 4 16.3699Z" fill="#8B00FF"/>
<path d="M22.3118 21.5422H12.522C12.1724 18.8002 12.1724 16.0766 12.522 13.3162C12.6324 13.3162 12.7428 13.2978 12.8532 13.2978C15.9079 13.2978 18.9442 13.2978 21.999 13.2978C22.275 13.2978 22.3486 13.3898 22.367 13.6474C22.6062 15.727 22.6246 17.8249 22.4774 19.9044C22.4406 20.4565 22.367 20.9901 22.3118 21.5422Z" fill="#8B00FF"/>
<path d="M12.7949 11.236C13.1446 10.1318 13.439 9.08288 13.8254 8.03392C14.2119 6.96656 14.7271 5.95441 15.5 5.10788C15.8128 4.77663 16.1809 4.46379 16.5857 4.24295C17.2298 3.8749 17.8922 3.96691 18.4995 4.37177C19.2908 4.88705 19.806 5.64156 20.2661 6.43288C21.0758 7.8867 21.5726 9.45094 21.9223 11.0704C21.9223 11.1256 21.9223 11.1624 21.9223 11.236H12.7949Z" fill="#8B00FF"/>
<path d="M12.8701 23.6212H21.9422C21.887 23.8605 21.8502 24.0813 21.795 24.2837C21.3534 26.032 20.8013 27.725 19.7524 29.1973C19.4212 29.6389 19.0347 30.0622 18.5931 30.3934C17.8202 31.0007 17.0105 30.9639 16.2009 30.3934C15.4832 29.8782 15.0047 29.1789 14.5815 28.4427C13.735 26.9521 13.2382 25.3143 12.8701 23.6212Z" fill="#8B00FF"/>
<path d="M24.3711 21.5422C24.6839 18.8002 24.7023 16.0766 24.3711 13.2978H30.1677C30.8118 15.2485 30.9958 17.2912 30.6645 19.4075C30.0389 19.4075 29.45 19.3523 28.8612 19.4075C27.4626 19.5731 26.2849 20.2172 25.3464 21.2478C25.052 21.5606 24.7575 21.5606 24.3895 21.5238L24.3711 21.5422Z" fill="#8B00FF"/>
<path d="M29.2658 11.2365H24.1317C23.8005 10.0955 23.5245 8.97296 23.1564 7.8688C22.8068 6.76463 22.2915 5.73407 21.6475 4.75873C23.8557 4.94276 28.3089 8.71532 29.2658 11.2365Z" fill="#8B00FF"/>
<path d="M13.1258 4.77728C13.1258 4.77728 13.1074 4.85089 13.089 4.8877C11.9113 6.76478 11.2488 8.82589 10.8072 10.979C10.7704 11.163 10.7152 11.2551 10.5128 11.2367C8.91179 11.2367 7.31083 11.2367 5.70987 11.2367C5.67306 11.2367 5.63626 11.2367 5.58105 11.2367C5.89389 9.26756 10.936 4.94291 13.1258 4.77728Z" fill="#8B00FF"/>
<path d="M13.2009 30.1546C9.77818 28.94 7.25712 26.7869 5.52734 23.6216C5.67456 23.6216 5.76657 23.6032 5.85858 23.6032C7.40434 23.6032 8.93169 23.6032 10.4774 23.6032C10.6431 23.6032 10.7719 23.6032 10.8087 23.8057C11.4712 26.7869 11.7656 27.5414 13.2009 30.1362V30.1546Z" fill="#8B00FF"/>
</svg>
