<svg width="40" height="40" viewBox="0 0 40 40" fill="none" xmlns="http://www.w3.org/2000/svg">
<path opacity="0.4" d="M35.9815 17.2582C35.7423 17.8102 35.3374 18.031 34.7302 18.0126C33.8286 17.9758 32.927 18.0126 32.007 18.0126C31.9702 18.9695 31.6022 19.7607 30.8662 20.3679C30.259 20.8463 29.5782 21.0671 28.8053 21.0119C27.6277 20.9567 26.1005 20.0367 25.9717 18.0126C25.8429 18.0126 25.7141 18.0126 25.5853 18.0126C24.7389 18.0126 23.8741 18.0126 23.0276 18.0126C22.4204 18.0126 22.0156 17.5894 22.0156 17.0006C22.0156 15.6022 22.0156 14.2037 22.0156 12.8237C22.0156 12.0141 22.7516 11.5725 23.5061 11.8669C23.7269 11.9589 24.0213 12.0141 24.2421 11.9589C24.8125 11.8485 25.1253 11.2597 24.9597 10.7077C24.7757 10.1556 24.1685 9.89804 23.6165 10.1004C23.414 10.174 23.2116 10.266 22.9908 10.266C22.4572 10.266 22.0156 9.84284 22.0156 9.29082C22.0156 7.85559 22.0156 6.43875 22.0156 5.00351C22.0156 4.4331 22.4388 4.00989 22.9908 4.00989C26.3765 4.00989 29.7806 4.00989 33.1662 4.00989C34.4542 4.00989 35.6135 5.02191 35.9263 6.32835C35.9447 6.40195 35.9815 6.49395 35.9999 6.56755V17.2582H35.9815Z" fill="#8B00FF"/>
<path d="M18.004 35.9905C18.004 34.2793 18.004 32.5681 18.004 30.8752C18.004 29.9736 17.2864 29.5136 16.4768 29.8816C16.0168 30.084 15.52 29.9736 15.2256 29.5872C14.9496 29.2376 14.9496 28.7592 15.2256 28.4096C15.52 28.0231 16.0352 27.8575 16.4768 28.1151C17.1392 28.5016 18.0592 28.0415 18.0408 27.1031C18.004 26.0911 18.0408 25.0607 18.0408 24.0118H20.028C20.0832 24.9871 20.4696 25.8151 21.2793 26.4039C21.8497 26.8271 22.4753 27.0111 23.1745 26.9743C24.4809 26.9007 25.8977 25.9807 26.0449 24.0118H30.0194C30.0194 24.1406 30.0194 24.2694 30.0194 24.3799C30.0194 27.1951 30.0194 30.0104 30.0194 32.8073C30.0194 34.4449 29.1362 35.5489 27.5354 35.9353C27.4986 35.9353 27.4802 35.9721 27.4618 35.9721H18.004V35.9905Z" fill="#8B00FF"/>
<path d="M6.57522 35.9904C5.98641 35.8432 5.4344 35.6224 4.97439 35.1991C4.36718 34.6287 4.01758 33.9295 4.01758 33.1015C4.01758 30.139 4.01758 27.1581 4.01758 24.1957C4.01758 24.1405 4.01758 24.0853 4.01758 23.9933C4.12798 23.9933 4.23838 23.9933 4.34878 23.9933C5.93121 23.9933 7.51364 23.9933 9.09606 23.9933C10.0529 23.9933 10.4945 23.3124 10.1081 22.4292C9.90568 21.9876 10.0345 21.4908 10.4025 21.1964C10.7521 20.9204 11.2305 20.9204 11.5801 21.1964C11.9665 21.4908 12.0953 21.9876 11.8929 22.4292C11.5065 23.3492 11.9297 23.9933 12.9417 24.0117C13.9353 24.0117 14.9474 24.0117 15.9594 24.0117V25.9989C14.9658 26.0541 14.1377 26.4589 13.5305 27.2869C13.1257 27.8574 12.9417 28.483 12.9969 29.1638C13.0705 30.4702 14.0273 31.8687 15.9778 32.0159V35.9904H6.57522Z" fill="#8B00FF"/>
<path d="M15.997 10.0088V10.3768C15.997 11.9408 16.0154 13.5232 15.997 15.0873C15.9786 16.0625 16.917 16.5041 17.561 16.0993C17.9658 15.8601 18.4994 16.0073 18.7938 16.3937C19.0882 16.7617 19.0882 17.2401 18.7938 17.6082C18.4994 17.9762 17.9842 18.1234 17.561 17.8842C16.8986 17.4977 15.9602 17.9578 15.997 18.9146C16.0338 19.8346 15.997 20.7546 15.997 21.6563V21.9691H14.0098C13.9362 20.9754 13.5682 20.1474 12.7401 19.5586C12.1881 19.1538 11.5809 18.9698 10.9001 18.9882C9.31769 19.0434 8.34247 20.037 7.97447 21.9691H4C4 21.8587 4 21.7483 4 21.6379C4 18.7858 4 15.9337 4 13.0816C4 11.2784 5.28802 9.99036 7.07285 9.99036C9.9249 9.99036 12.7769 9.99036 15.629 9.99036C15.7394 9.99036 15.8314 9.99036 15.9786 9.99036L15.997 10.0088Z" fill="#8B00FF"/>
</svg>
