<svg width="40" height="40" viewBox="0 0 40 40" fill="none" xmlns="http://www.w3.org/2000/svg">
<path d="M25.6988 4.02166C25.8643 4.02166 25.9677 4.02166 26.0918 4.02166C28.574 4.02166 31.0562 4.02166 33.5385 4.02166C35.0071 4.02166 36 4.99383 36 6.44175C36 11.3233 36 16.2049 36 21.0864C36 21.1485 36 21.2312 36 21.376C35.8552 21.2519 35.7725 21.1485 35.669 21.0657C34.0556 19.5558 32.1319 18.7904 29.9186 18.8938C26.4021 19.08 23.3407 21.7069 22.5339 25.1199C22.0375 27.2297 22.4098 29.2361 23.2579 31.1598C24.0026 32.8766 25.1196 34.3452 26.4228 35.669C26.5055 35.7518 26.6089 35.7931 26.7123 35.8759C26.7123 35.9172 26.671 35.9379 26.6503 35.9793C26.5469 35.9793 26.4641 36 26.3607 36C19.7207 36 13.0601 36 6.42017 36C4.99289 36 4 35.0278 4 33.6006C4 24.5407 4 15.4809 4 6.42107C4 4.99383 4.9722 4.02166 6.39948 4.02166C8.92308 4.02166 11.426 4.02166 13.9496 4.02166C14.053 4.02166 14.1564 4.02166 14.3012 4.04235C14.3012 4.18714 14.3012 4.33193 14.3012 4.47672C14.3012 7.3105 14.3012 10.165 14.3012 12.9988C14.3012 15.1499 15.7285 16.5772 17.9005 16.5772C19.3484 16.5772 20.7964 16.5772 22.2443 16.5772C24.1888 16.5772 25.6781 15.0879 25.6781 13.1229C25.6781 10.2477 25.6781 7.37256 25.6781 4.47672C25.6781 4.33193 25.6781 4.20782 25.6781 4.00098L25.6988 4.02166ZM12.0052 26.8574C12.7292 26.8574 13.4531 26.8574 14.1771 26.8574C14.8597 26.8574 15.3562 26.3817 15.3355 25.7404C15.3355 25.0992 14.839 24.6028 14.1564 24.6028C12.7292 24.6028 11.3019 24.6028 9.8746 24.6028C9.19198 24.6028 8.67485 25.0992 8.69554 25.7611C8.69554 26.4023 9.19198 26.8574 9.8746 26.8781C10.5779 26.8781 11.2812 26.8781 11.9845 26.8781L12.0052 26.8574ZM10.2883 31.4287C10.4538 31.4287 10.6193 31.4287 10.7847 31.4287C11.426 31.4287 11.9224 30.9322 11.9431 30.3117C11.9431 29.6912 11.4467 29.1947 10.8054 29.1741C10.4745 29.1741 10.1435 29.1741 9.83323 29.1741C9.19198 29.1947 8.71622 29.7119 8.73691 30.3324C8.73691 30.9529 9.23335 31.408 9.85391 31.4287C9.99871 31.4287 10.1642 31.4287 10.309 31.4287H10.2883ZM14.2805 31.4287C14.9011 31.4287 15.4389 30.9529 15.4596 30.3324C15.4596 29.7119 14.9425 29.1741 14.3219 29.1534C13.7014 29.1534 13.1842 29.6498 13.1842 30.2703C13.1842 30.9116 13.66 31.408 14.3012 31.408L14.2805 31.4287Z" fill="#8B00FF"/>
<path opacity="0.4" d="M30.0651 21.1484C33.1265 21.1484 35.7121 23.5478 35.9604 26.3403C36.1465 28.4914 35.4432 30.3737 34.2642 32.1112C33.2713 33.6005 32.0095 34.8209 30.5408 35.8345C30.396 35.9379 30.2926 36.0206 30.1064 35.8965C27.9345 34.3038 26.1142 32.4215 25.142 29.8566C24.4801 28.1398 24.2732 26.3816 25.0799 24.6441C26.1142 22.4309 27.8931 21.3139 30.0651 21.1484ZM31.4096 26.8781C31.4096 26.2368 30.9132 25.699 30.2719 25.699C29.6514 25.699 29.1342 26.2162 29.1342 26.8367C29.1342 27.4779 29.6514 27.995 30.2926 27.995C30.9132 27.995 31.3889 27.4986 31.4096 26.8781Z" fill="#8B00FF"/>
<path opacity="0.4" d="M16.598 4.04199H23.4241C23.4241 4.1661 23.4241 4.29021 23.4241 4.41431C23.4241 7.26878 23.4241 10.1232 23.4241 12.9777C23.4241 13.8672 22.9691 14.3222 22.1003 14.3222C20.6523 14.3222 19.225 14.3222 17.7771 14.3222C17.0531 14.3222 16.5566 13.8465 16.5566 13.1225C16.5566 10.1853 16.5566 7.22741 16.5566 4.29021C16.5566 4.22815 16.5566 4.14541 16.5566 4.04199H16.598Z" fill="#8B00FF"/>
</svg>
