<svg width="40" height="40" viewBox="0 0 40 40" fill="none" xmlns="http://www.w3.org/2000/svg">
<path d="M16.1236 36C16.1236 36 15.9763 35.9448 15.8842 35.9264C14.6322 35.5397 14.0246 34.1772 14.5953 32.9989C14.6138 32.962 14.6322 32.9068 14.6874 32.8332C14.5585 32.8332 14.448 32.8332 14.3376 32.8332C13.2144 32.8332 12.0913 32.8332 10.9681 32.8332C9.845 32.8332 9.01645 32.2808 8.6482 31.2866C8.27996 30.2923 8.55614 29.3533 9.38469 28.6169C10.8393 27.3648 12.2754 26.0944 13.73 24.8608C13.9141 24.7135 13.9509 24.5847 13.8957 24.3637C12.5516 18.7481 11.2075 13.1325 9.86341 7.51688C9.80817 7.31435 9.73452 7.11182 9.71611 6.90929C9.6977 6.68835 9.56881 6.65152 9.38469 6.65152C8.48249 6.65152 7.59871 6.65152 6.69651 6.65152C6.58604 6.65152 6.47557 6.65152 6.34668 6.65152V4.68146C6.5308 4.68146 6.6781 4.68146 6.84381 4.68146C8.00378 4.68146 9.16374 4.68146 10.3053 4.68146C10.9129 4.68146 11.2259 4.92081 11.3732 5.50999C11.8703 7.42482 12.3675 9.35807 12.8646 11.2729C12.9198 11.457 12.9751 11.5491 13.1776 11.5675C13.8036 11.6411 14.4296 11.77 15.0556 11.8437C15.2398 11.8621 15.3318 11.9541 15.4055 12.1198C16.3629 14.6239 18.1305 16.2809 20.745 16.8701C23.8383 17.5697 26.3976 16.5939 28.4229 14.1636C28.5886 13.961 28.7175 13.869 28.9753 13.9242C30.0248 14.0899 31.0742 14.2372 32.1237 14.4029C32.5104 14.4581 32.5656 14.5502 32.5656 14.9369C32.492 18.3799 32.4368 21.8045 32.3631 25.2475C32.3631 25.6157 32.2158 25.7262 31.7923 25.7262C26.7658 25.7262 21.7577 25.7262 16.7312 25.7262C15.9763 25.7262 15.4239 25.9103 14.8715 26.4074C13.5274 27.641 12.1097 28.801 10.7288 29.9793C10.6367 30.053 10.5447 30.1266 10.4894 30.2187C10.3053 30.4949 10.4342 30.7526 10.7472 30.7895C10.8577 30.7895 10.9681 30.7895 11.097 30.7895C18.4803 30.7895 25.8452 30.7895 33.2285 30.7895H33.652V32.7779H30.08C30.1352 33.2566 30.2641 33.7169 30.2273 34.1772C30.1536 35.0058 29.6565 35.5581 28.8832 35.8711C28.7727 35.9264 28.6623 35.9632 28.5334 36H27.7232C27.7232 36 27.5575 35.9264 27.4655 35.8895C26.5449 35.5765 25.9741 34.7848 26.0293 33.8274C26.0293 33.4776 26.1582 33.1462 26.2318 32.8148H18.3146C18.3146 32.8148 18.3698 32.9252 18.3883 32.9805C18.9406 34.1772 18.3883 35.4845 17.1362 35.9079C17.0626 35.9264 16.9889 35.9632 16.9153 36H16.1051H16.1236Z" fill="#8B00FF"/>
<path opacity="0.4" d="M28.0562 9.57879C28.0562 12.6536 25.5521 15.1576 22.4773 15.176C19.4025 15.176 16.8616 12.6352 16.88 9.56038C16.88 6.4856 19.4025 4 22.4957 4C25.5889 4 28.0746 6.4856 28.0746 9.57879H28.0562ZM25.8099 8.32678C25.3128 7.86649 24.8709 7.44301 24.3922 7.00113C23.3979 8.05061 22.4405 9.08167 21.4646 10.1127C21.1332 9.70767 20.8018 9.33943 20.4888 8.95279C19.9916 9.37626 19.5129 9.78132 19.0158 10.2048C19.5866 10.886 20.1389 11.5673 20.7097 12.2117C21.078 12.6352 21.7224 12.6536 22.109 12.2669C23.3427 10.9781 24.5763 9.67085 25.8283 8.32678H25.8099Z" fill="#8B00FF"/>
</svg>
