<svg width="40" height="40" viewBox="0 0 40 40" fill="none" xmlns="http://www.w3.org/2000/svg">
<path d="M4.00781 29.9828C4.00781 29.8172 4.00781 29.6515 4.00781 29.4859C4.02621 29.4491 4.06302 29.3939 4.08142 29.3571C4.70708 27.6826 5.31435 25.9897 5.95841 24.3152C6.03202 24.1128 5.99522 23.9472 5.8848 23.7632C5.09352 22.4567 4.54147 21.0582 4.24704 19.5493C4.15503 19.0524 4.08142 18.5556 4.00781 18.0588C4.00781 17.3963 4.00781 16.7339 4.00781 16.0531C4.11822 15.4274 4.19183 14.8018 4.32064 14.1761C5.8664 7.20207 12.8591 2.74897 19.8334 4.31307C26.8262 5.87718 31.261 12.7408 29.8073 19.6965C28.6663 25.088 24.2683 29.1731 18.7661 29.9276C16.1163 30.2956 13.5952 29.854 11.203 28.6579C11.0005 28.5659 10.8533 28.5475 10.6509 28.6395C8.95792 29.2835 7.24654 29.9092 5.53517 30.5348C4.76229 30.8108 4.39425 30.682 4.00781 29.9828ZM13.1167 13.3113C13.0615 13.1089 13.0063 12.9248 12.9511 12.7408C12.8959 12.5568 12.8591 12.3728 12.8039 12.2072C12.6567 11.7472 12.3439 11.4895 11.8654 11.4895C11.2766 11.4895 10.7061 11.4895 10.1172 11.4895C9.62039 11.4895 9.23395 11.8944 9.23395 12.3912C9.23395 12.888 9.58358 13.2929 10.0988 13.3297C10.3565 13.3297 10.6141 13.3481 10.8717 13.3297C11.0925 13.3297 11.203 13.3849 11.2582 13.6241C11.7918 15.6482 12.3255 17.654 12.8775 19.6597C13.1904 20.8374 14.1473 21.5918 15.3618 21.6102C16.6315 21.6286 17.9012 21.6286 19.171 21.6102C20.3855 21.5918 21.3056 20.8558 21.6368 19.6781C22.0049 18.3532 22.3729 17.0467 22.7225 15.7218C23.0906 14.3601 22.2993 13.3113 20.8823 13.3113C18.6557 13.3113 16.4291 13.3113 14.2025 13.3113H13.1167ZM14.7545 22.3095C14.2577 22.3095 13.816 22.7695 13.8344 23.2663C13.8344 23.7632 14.2945 24.2048 14.7913 24.1864C15.2882 24.1864 15.7298 23.7264 15.7114 23.2295C15.7114 22.7327 15.2514 22.2911 14.7545 22.3095ZM20.4591 23.2295C20.4591 22.7327 19.9991 22.2911 19.5206 22.3095C19.0238 22.3095 18.5821 22.7695 18.6005 23.2479C18.6005 23.7448 19.0606 24.1864 19.539 24.168C20.0359 24.168 20.4775 23.708 20.4591 23.2295Z" fill="#8B00FF"/>
<path opacity="0.4" d="M34.3164 35.982C33.5067 35.6691 32.7154 35.3563 31.9057 35.0619C31.004 34.7307 30.1208 34.3995 29.2191 34.0682C29.0902 34.013 28.9062 34.013 28.7774 34.0498C25.3179 35.0067 22.2079 34.3443 19.3925 32.1177C19.282 32.0257 19.1716 31.9337 19.0244 31.7865C22.8704 31.1976 26.0355 29.4679 28.483 26.5237C30.9488 23.5795 32.0345 20.1385 31.9241 16.2559C32.0714 16.3663 32.1634 16.4215 32.2738 16.5135C34.39 18.2984 35.6597 20.5617 35.9357 23.3403C36.1934 25.8981 35.5493 28.2166 34.0588 30.3144C33.9483 30.48 33.9299 30.6088 34.0035 30.7928C34.4636 32.0257 34.9236 33.2586 35.3837 34.4915C35.6597 35.2459 35.5309 35.6139 34.8132 36.0004H34.3164V35.982Z" fill="#8B00FF"/>
<path d="M20.939 15.207C20.571 16.5686 20.1846 17.9119 19.8165 19.2368C19.7245 19.5496 19.5037 19.7337 19.1725 19.7337C17.9027 19.7337 16.633 19.7337 15.3633 19.7337C15.032 19.7337 14.7928 19.5496 14.7008 19.2552C14.3328 17.9119 13.9647 16.5686 13.5967 15.207H20.9206H20.939Z" fill="#8B00FF"/>
</svg>
