<svg width="40" height="40" viewBox="0 0 40 40" fill="none" xmlns="http://www.w3.org/2000/svg">
<path opacity="0.4" fill-rule="evenodd" clip-rule="evenodd" d="M10.0003 6.66797H30.0003C31.7944 6.66797 33.2574 8.0853 33.3308 9.86133H24.8343C22.9934 9.86133 21.501 11.3537 21.501 13.1947V28.3346H6.66699V10.0013C6.66699 8.16035 8.15938 6.66797 10.0003 6.66797Z" fill="#8B00FF"/>
<path d="M23.333 15.0007C23.333 13.1597 24.8254 11.6674 26.6663 11.6674H33.333C35.174 11.6674 36.6663 13.1597 36.6663 15.0007V30.0007C36.6663 31.8416 35.174 33.334 33.333 33.334H26.6663C24.8254 33.334 23.333 31.8416 23.333 30.0007V15.0007Z" fill="#8B00FF"/>
<path d="M21.6663 28.334H5.83301C4.4523 28.334 3.33301 29.4533 3.33301 30.834C3.33301 32.2147 4.4523 33.334 5.83301 33.334H21.6663V28.334Z" fill="#8B00FF"/>
</svg>
