<svg width="40" height="40" viewBox="0 0 40 40" fill="none" xmlns="http://www.w3.org/2000/svg">
<path opacity="0.4" d="M33.352 35.9585C32.9106 35.8297 32.4509 35.7562 32.0647 35.5539C31.5498 35.2965 31.0717 35.0023 30.6304 34.6345C30.1523 34.2484 29.7293 34.1748 29.1777 34.4322C23.7529 36.8963 17.427 35.0207 14.2457 30.0007C14.1722 29.872 14.0986 29.7616 13.9883 29.5777C18.6591 30.0375 22.7047 28.7319 25.9228 25.3484C29.1593 21.9466 30.2442 17.846 29.5454 13.157C29.9868 13.4145 30.3913 13.6351 30.7775 13.8926C33.5543 15.7682 35.246 18.3609 35.8529 21.6524C35.9081 21.965 35.9448 22.2776 36 22.6086V24.4842C36 24.4842 35.9448 24.5761 35.9448 24.6313C35.8345 25.9553 35.5035 27.224 35.0805 28.4745C34.4185 30.4052 34.3634 32.3544 34.9518 34.3219C35.0989 34.8 35.2828 35.2781 35.4667 35.7746C35.1909 35.8481 34.915 35.9217 34.6392 35.9952H33.3888L33.352 35.9585Z" fill="#8B00FF"/>
<path d="M4.5714 27.7391C4.97596 26.8381 5.27019 25.9187 5.39891 24.9625C5.63797 23.2708 5.43569 21.6342 4.81046 20.0345C2.34632 13.8376 5.71152 6.68459 12.0558 4.60672C18.639 2.4553 25.5717 6.26166 27.2451 12.9734C28.8634 19.4828 24.7442 26.1394 17.9219 27.353C15.4945 27.7759 13.1591 27.5185 10.9156 26.4887C10.3088 26.2129 9.83068 26.2865 9.33417 26.7278C8.02855 27.8862 6.09769 28.2908 4.55301 27.7391H4.5714ZM22.0962 17.5153C23.034 17.5153 23.8064 16.7246 23.788 15.8052C23.788 14.8674 22.9789 14.0951 22.0594 14.1134C21.1216 14.1318 20.386 14.8857 20.386 15.8235C20.386 16.7613 21.1583 17.5337 22.0962 17.5153ZM11.1915 15.8235C11.1915 14.8857 10.4375 14.1134 9.49967 14.1134C8.58022 14.1134 7.80788 14.8857 7.80788 15.8052C7.80788 16.7613 8.54344 17.5153 9.49967 17.5153C10.4375 17.5153 11.2099 16.7613 11.2099 15.8235H11.1915ZM17.4805 15.8235C17.4805 14.8857 16.7082 14.1134 15.7703 14.1134C14.8325 14.1134 14.0786 14.8857 14.0969 15.8419C14.0969 16.7797 14.8509 17.5153 15.7887 17.5153C16.7266 17.5153 17.4989 16.7613 17.4989 15.8235H17.4805Z" fill="#8B00FF"/>
</svg>
