<svg width="40" height="40" viewBox="0 0 40 40" fill="none" xmlns="http://www.w3.org/2000/svg">
<path opacity="0.4" d="M14.7617 22.0656C11.6013 22.0656 8.42034 22.0656 5.26 22.0656C4.35115 22.0656 4 21.6938 4 20.785C4 16.8398 4 12.8947 4 8.92891C4 8.06139 4.3718 7.66895 5.26 7.66895C11.6013 7.66895 17.9427 7.66895 24.3046 7.66895C25.1722 7.66895 25.5646 8.06139 25.5646 8.90826C25.5646 12.874 25.5646 16.8605 25.5646 20.8263C25.5646 21.6938 25.1928 22.0449 24.3253 22.0449C21.1443 22.0449 17.9633 22.0449 14.7823 22.0449L14.7617 22.0656Z" fill="#8B00FF"/>
<path d="M16.2521 28.2005C15.6737 26.0317 14.3105 24.6685 12.1416 24.1108C12.2862 24.1108 12.4308 24.1108 12.5754 24.1108C16.5206 24.1108 20.4452 24.1108 24.3905 24.1108C26.0016 24.1108 27.1997 23.1607 27.5302 21.6528C27.5921 21.3843 27.5921 21.0951 27.5921 20.806C27.5921 18.286 27.5921 15.7661 27.5921 13.2255C27.5921 12.895 27.6954 12.8124 28.0052 12.8124C28.501 12.8331 28.9967 12.8331 29.4718 12.8124C30.298 12.7711 31.0416 12.9983 31.7439 13.4114C33.1692 14.2376 34.3879 15.3324 35.3587 16.6749C35.7925 17.2739 36.0197 17.9142 35.999 18.6991C35.9577 21.4669 35.999 24.2141 35.999 26.9819C35.999 27.8494 35.6272 28.2212 34.7597 28.2212C34.4292 28.2212 34.078 28.2212 33.7062 28.2212C33.6649 28.0766 33.6236 27.932 33.5823 27.8081C32.9213 25.5567 30.8557 24.0488 28.4803 24.0901C26.2702 24.1108 24.2252 25.7426 23.6469 27.932C23.6056 28.1179 23.5436 28.2418 23.3164 28.2418C21.0029 28.2418 18.6895 28.2418 16.376 28.2418C16.3347 28.2418 16.3141 28.2418 16.2521 28.2418V28.2005ZM34.2846 20.4961C34.3466 17.5011 32.4669 15.0432 29.3272 15.415V20.4961H34.2846Z" fill="#8B00FF"/>
<path d="M11.2101 26.1144C12.9038 26.1144 14.3084 27.5396 14.3084 29.2333C14.3084 30.927 12.8832 32.3316 11.1894 32.3316C9.47498 32.3316 8.07039 30.9064 8.09105 29.192C8.09105 27.4983 9.51629 26.1144 11.2307 26.1144H11.2101Z" fill="#8B00FF"/>
<path d="M31.7202 29.2332C31.7202 30.9476 30.3156 32.3315 28.6218 32.3315C26.9074 32.3315 25.5234 30.9269 25.5234 29.1919C25.5234 27.4775 26.928 26.1143 28.6425 26.1143C30.3569 26.1143 31.7202 27.5188 31.7202 29.2332Z" fill="#8B00FF"/>
<path d="M4 24.0078C4.51639 24.0491 4.99148 24.0904 5.46656 24.0904C7.05706 24.0904 8.64755 24.0904 10.238 24.1111C8.06919 24.6688 6.68525 26.0114 6.12755 28.2008C5.71443 28.2008 5.28066 28.2215 4.84689 28.2008C4.41312 28.1595 4.02066 27.7464 4 27.292C4 26.1766 4 25.0819 4 24.0078Z" fill="#8B00FF"/>
</svg>
