<svg width="40" height="40" viewBox="0 0 40 40" fill="none" xmlns="http://www.w3.org/2000/svg">
<path opacity="0.4" d="M4 28.6144C4.13646 28.6144 4.27292 28.6144 4.40938 28.6144C10.1237 28.6144 15.838 28.6144 21.5523 28.6144H21.9958C21.9958 28.7508 21.9958 28.8702 21.9958 29.0067C21.9958 29.979 21.9958 30.9342 22.047 31.9065C22.1152 32.8617 22.5075 33.6805 23.1216 34.4139C23.1557 34.4481 23.1728 34.4992 23.224 34.5675C23.1216 34.5675 23.0363 34.6016 22.9681 34.6016C17.6802 34.6016 12.3753 34.6016 7.08743 34.6016C5.67165 34.6016 4.35821 33.4758 4.06823 32.0429C4.06823 31.9577 4.03412 31.8894 4 31.8041C4 30.7466 4 29.689 4 28.6144Z" fill="#8B00FF"/>
<path d="M8.91406 27.0956C8.91406 26.9592 8.91406 26.8909 8.91406 26.8057C8.96524 20.4091 8.99935 14.0296 9.05052 7.63298C9.05052 6.8995 9.25522 6.26837 9.86929 5.80782C10.2616 5.50078 10.7051 5.39844 11.1827 5.39844C17.6646 5.39844 24.1465 5.39844 30.6284 5.39844C30.6626 5.39844 30.7137 5.39844 30.782 5.39844C30.7478 5.46667 30.7308 5.5349 30.6967 5.60313C30.2361 6.28543 30.0655 7.03596 30.0655 7.83767C30.0655 15.6159 30.0655 23.3942 30.0655 31.1553C30.0655 32.247 29.6732 33.1511 28.8374 33.8675C27.541 34.9762 25.3917 34.7545 24.3342 33.424C23.7883 32.7417 23.5495 31.9741 23.5495 31.1212C23.5495 30.0978 23.5495 29.0573 23.5495 28.0338C23.5495 27.3856 23.2595 27.1127 22.6113 27.1127C18.1934 27.1127 13.7584 27.1127 9.3405 27.1127H8.94818L8.91406 27.0956ZM19.0804 17.6799C21.2638 17.6799 23.4472 17.6799 25.6306 17.6799C25.7329 17.6799 25.8352 17.6799 25.9376 17.6799C26.2446 17.6458 26.4664 17.4752 26.6028 17.1852C26.7222 16.9123 26.637 16.6564 26.4664 16.4347C26.2617 16.1788 25.9717 16.1618 25.6647 16.1618C21.2979 16.1618 16.9312 16.1618 12.5473 16.1618C12.4279 16.1618 12.3256 16.1618 12.2062 16.1618C11.865 16.2129 11.6774 16.4176 11.5751 16.7417C11.4898 17.0487 11.5921 17.3217 11.848 17.4752C12.0186 17.5946 12.2744 17.6628 12.4791 17.6628C14.6795 17.6628 16.8629 17.6628 19.0634 17.6628L19.0804 17.6799ZM19.1145 21.6372C16.9482 21.6372 14.7819 21.6372 12.6156 21.6372C12.4962 21.6372 12.3597 21.6372 12.2403 21.6372C11.6433 21.7055 11.3704 22.3536 11.7286 22.8313C11.9333 23.1042 12.2062 23.1553 12.5303 23.1553C16.9141 23.1553 21.315 23.1553 25.6988 23.1553C25.8352 23.1553 25.9717 23.1553 26.0911 23.1042C26.3981 23.0189 26.6199 22.7289 26.654 22.4219C26.6711 22.149 26.5005 21.8078 26.2105 21.7055C26.0399 21.6372 25.8523 21.6202 25.6647 21.6202C23.4813 21.6202 21.2979 21.6202 19.1145 21.6202V21.6372ZM15.9589 12.1703C17.1529 12.1703 18.3299 12.1703 19.5239 12.1703C20.0186 12.1703 20.3768 11.8462 20.3768 11.4027C20.3768 10.9763 20.0356 10.6522 19.558 10.6522C17.17 10.6522 14.7819 10.6522 12.3768 10.6522C12.2403 10.6522 12.1038 10.6863 11.9844 10.7375C11.6774 10.891 11.5068 11.2321 11.5751 11.5392C11.6603 11.9144 11.9674 12.1532 12.3597 12.1703C13.5537 12.1703 14.7478 12.1703 15.9418 12.1703H15.9589Z" fill="#8B00FF"/>
<path opacity="0.4" d="M35.9829 18.2773H31.582C31.582 18.1579 31.582 18.0556 31.582 17.9362C31.582 14.5588 31.582 11.1984 31.582 7.82104C31.582 6.67819 32.179 5.84237 33.2025 5.55239C34.5501 5.16007 35.9317 6.1494 36 7.56518C36 7.65047 36 7.75281 36 7.8381C36 11.1814 36 14.5417 36 17.885V18.2603L35.9829 18.2773Z" fill="#8B00FF"/>
</svg>
