<svg width="40" height="40" viewBox="0 0 40 40" fill="none" xmlns="http://www.w3.org/2000/svg">
<path d="M4 21.9893C9.25279 21.9893 14.4884 21.9893 19.7411 21.9893C19.8961 21.9893 20.0511 21.9721 20.1717 22.1443C21.5667 24.2283 23.4784 25.7439 25.5795 27.0356C26.01 27.294 26.4234 27.5695 26.8884 27.759C27.7495 28.1034 28.6278 28.0345 29.4373 27.5695C31.3145 26.4845 33.0884 25.2616 34.5523 23.6427C34.9828 23.1777 35.3445 22.6438 35.7234 22.1615C35.7578 22.1098 35.8095 22.0582 35.8956 21.9548C35.8956 22.1098 35.9128 22.2132 35.9128 22.2993C35.9128 25.4855 35.9128 28.6546 35.9128 31.8408C35.9128 33.1325 35.069 33.9592 33.7945 33.9592C24.5978 33.9592 15.4011 33.9592 6.22167 33.9592C5.11945 33.9592 4.25833 33.3048 4.06889 32.4092C4.06889 32.3747 4.03444 32.3575 4.01722 32.3403C4.01722 28.8957 4.01722 25.4339 4.01722 21.9893H4ZM10.975 27.9829C11.6467 27.9829 12.3011 27.9829 12.9728 27.9829C13.5584 27.9829 13.9717 27.5351 13.9889 27.0012C13.9889 26.45 13.5584 26.0022 12.9728 26.0022C11.6467 26.0022 10.3378 26.0022 9.01168 26.0022C8.54668 26.0022 8.20223 26.2778 8.06445 26.6739C7.84056 27.3456 8.30556 27.9657 9.04612 27.9829C9.68334 27.9829 10.3378 27.9829 10.975 27.9829Z" fill="#8B00FF"/>
<path d="M4 13.6354C4.17222 13.1704 4.34445 12.6882 4.80945 12.4298C5.13667 12.2404 5.53278 12.0509 5.89445 12.0337C9.89001 11.9992 13.8856 12.0337 17.8811 12.0337C17.8811 12.0337 17.8984 12.0337 17.9672 12.0509C17.9672 14.0315 17.9328 16.0122 18.3978 18.0101H4V13.6526V13.6354Z" fill="#8B00FF"/>
<path opacity="0.4" d="M35.9832 12.5338C35.8971 13.8944 35.8626 15.2723 35.7076 16.6329C35.4493 18.803 34.5537 20.6975 33.0726 22.3165C31.7465 23.7632 30.1621 24.8483 28.4915 25.83C28.1471 26.0366 27.7854 26.0539 27.4237 25.8472C25.822 24.9172 24.3065 23.8838 22.9976 22.5404C21.5165 20.9903 20.5693 19.1647 20.2076 17.0463C20.0698 16.1851 19.9837 15.2895 19.9665 14.4111C19.932 12.9816 19.9665 11.5693 19.9665 10.1398C19.9665 9.60593 20.1904 9.26147 20.6726 9.05479C22.9459 8.09031 25.202 7.1086 27.4754 6.14411C27.8026 6.00633 28.1126 6.00633 28.4398 6.14411C30.6959 7.1086 32.9521 8.07308 35.2082 9.03757C35.7076 9.24425 35.9487 9.60593 35.9315 10.1571C35.9315 10.9493 35.9315 11.7416 35.9315 12.5338C35.9487 12.5338 35.9832 12.5338 36.0004 12.5338H35.9832ZM27.0104 16.3229C26.9243 16.2196 26.8726 16.1334 26.8209 16.0473C26.4765 15.5306 26.132 14.9967 25.7704 14.48C25.4259 13.9978 24.8748 13.8944 24.4098 14.2045C23.962 14.4973 23.8243 15.0828 24.1343 15.5651C24.7887 16.564 25.4432 17.5629 26.1148 18.5447C26.5282 19.1475 27.2687 19.1647 27.7337 18.6135C29.0598 16.9601 30.3859 15.324 31.6948 13.6533C31.8498 13.4639 31.9187 13.1366 31.9015 12.8783C31.8671 12.4649 31.5915 12.1894 31.1782 12.086C30.7304 11.9827 30.3859 12.1377 30.1104 12.4822C29.0943 13.7567 28.0782 15.0312 27.0276 16.3401L27.0104 16.3229Z" fill="#8B00FF"/>
</svg>
