<svg width="40" height="40" viewBox="0 0 40 40" fill="none" xmlns="http://www.w3.org/2000/svg">
<path d="M32.6138 35.9902C32.4666 35.9534 32.301 35.8982 32.1538 35.8614C31.6569 35.7142 31.2153 35.4566 30.8473 35.0886C29.8905 34.1317 28.9336 33.1749 27.9768 32.2181C27.94 32.1813 27.9216 32.1629 27.8848 32.1077C29.7801 31.1692 31.1785 29.7708 32.1354 27.8203C32.301 28.0043 32.4298 28.1515 32.5586 28.2803C33.3314 29.0716 34.1043 29.8444 34.8955 30.6172C35.4659 31.1692 35.8707 31.7949 35.9444 32.6045C35.9444 32.6597 35.9812 32.7149 35.9996 32.7701V33.1381C35.9996 33.1381 35.9444 33.2669 35.9444 33.3405C35.8155 34.2053 35.4291 34.9046 34.7115 35.3646C34.2883 35.6222 33.7914 35.751 33.3314 35.935H32.6506L32.6138 35.9902Z" fill="#8B00FF"/>
<path opacity="0.4" d="M13.9917 4.00977C13.9917 4.78259 13.9917 5.50022 13.9917 6.21784C13.9917 7.7635 13.9917 9.32756 13.9917 10.8732C13.9917 11.3148 14.1205 11.6644 14.5253 11.8852C14.9117 12.1061 15.2797 12.0141 15.6294 11.7748C16.3286 11.2964 17.0462 10.8364 17.7455 10.358C17.9295 10.2292 18.0399 10.2476 18.2055 10.358C18.9047 10.8364 19.604 11.2964 20.3032 11.7564C20.6712 11.9957 21.0392 12.0877 21.444 11.8668C21.8489 11.646 21.9777 11.278 21.9777 10.8364C21.9777 8.68353 21.9777 6.53066 21.9777 4.37778C21.9777 4.26737 21.9777 4.15697 21.9777 4.00977C22.1065 4.00977 22.1985 4.00977 22.3089 4.00977C24.8298 4.00977 27.3691 4.00977 29.89 4.00977C31.1229 4.00977 31.9693 4.8562 31.9693 6.08904C31.9693 10.5604 31.9693 15.0318 31.9693 19.5215C31.9693 19.6135 31.9693 19.7055 31.9693 19.7791C29.5404 15.9702 26.1731 14.2405 21.7385 15.3262C18.0583 16.2278 15.7766 18.7487 15.1509 22.484C14.4701 26.6426 16.2182 29.7707 19.7512 31.9788C19.6776 31.9788 19.6039 31.9788 19.5119 31.9788C15.0221 31.9788 10.5323 31.9788 6.0609 31.9788C4.84644 31.9788 4 31.1323 4 29.9179C4 21.9688 4 14.0197 4 6.07064C4 4.8746 4.86484 4.02817 6.0793 4.00977C8.60022 4.00977 11.1395 4.00977 13.6605 4.00977C13.7709 4.00977 13.8629 4.00977 14.0101 4.00977H13.9917ZM9.02344 24.0113C8.39781 24.0113 7.77218 24.0113 7.14655 24.0113C6.46572 24.0113 6.0057 24.4345 6.0057 25.0233C6.0057 25.6121 6.46572 26.017 7.12815 26.017C8.37941 26.017 9.61227 26.017 10.8635 26.017C11.526 26.017 11.986 25.6121 11.986 25.0233C11.986 24.4529 11.526 24.0113 10.8819 24.0113C10.2563 24.0113 9.63067 24.0113 9.00504 24.0113H9.02344ZM8.02979 28.0042C7.69858 28.0042 7.36736 28.0042 7.03615 28.0042C6.44732 28.0042 6.0057 28.4642 6.0241 29.0163C6.0241 29.5499 6.46572 29.9915 7.01774 30.0099C7.68018 30.0099 8.34261 30.0099 9.00504 30.0099C9.57547 30.0099 9.99869 29.5499 9.99869 29.0163C9.99869 28.4642 9.55707 28.0226 8.98664 28.0042C8.67382 28.0042 8.34261 28.0042 8.02979 28.0042Z" fill="#8B00FF"/>
<path d="M30.9944 24.0116C30.9944 27.8389 27.8663 31.0038 24.0757 31.0038C20.1379 31.0038 17.0098 27.9125 17.0098 24.0116C17.0098 20.1291 20.1195 17.0193 24.0021 17.0193C27.8847 17.0193 30.9944 20.1291 30.9944 24.03V24.0116ZM23.2293 24.1036C22.9901 23.846 22.806 23.6436 22.6036 23.4412C22.1252 22.9812 21.5364 22.9444 21.1132 23.3676C20.7083 23.7724 20.7451 24.3796 21.2052 24.8396C21.61 25.2444 22.0332 25.6677 22.438 26.0725C22.9717 26.6061 23.4869 26.6061 24.0205 26.0725C24.6461 25.4469 25.2718 24.8212 25.8974 24.1956C26.4126 23.6804 26.9278 23.1652 27.4431 22.6499C27.7743 22.3187 27.8295 21.8587 27.6087 21.4723C27.4063 21.0859 26.9646 20.8835 26.523 20.9939C26.3022 21.0491 26.0998 21.1963 25.9342 21.3619C25.0326 22.2451 24.1677 23.1468 23.2293 24.0852V24.1036Z" fill="#8B00FF"/>
<path opacity="0.4" d="M16.0176 9.14288V4.0459H19.9922V9.14288C19.5689 8.86687 19.1825 8.60926 18.7777 8.33325C18.1337 7.91004 17.8945 7.91004 17.2504 8.33325C16.8456 8.59086 16.4592 8.84847 16.0176 9.14288Z" fill="#8B00FF"/>
</svg>
