<svg width="40" height="40" viewBox="0 0 40 40" fill="none" xmlns="http://www.w3.org/2000/svg">
<path d="M10.1136 4C10.1844 4.8141 10.2552 5.6105 10.326 6.4246C10.3791 6.93783 10.4499 7.45107 10.4676 7.982C10.4676 8.26517 10.5738 8.31826 10.8393 8.31826C14.3258 8.31826 17.8123 8.31826 21.2988 8.31826H21.6882C21.051 11.5039 21.7767 14.247 24.2013 16.4238C26.6082 18.583 29.4399 19.0077 32.5194 18.0343C32.2008 21.1492 31.8999 24.2463 31.5814 27.3788C31.4221 27.3788 31.2805 27.3788 31.1389 27.3788C24.6437 27.3788 18.1663 27.3788 11.6711 27.3788C11.441 27.3788 11.2109 27.3788 10.9985 27.4496C10.4499 27.6089 10.1136 28.1929 10.1844 28.7415C10.2552 29.3078 10.7331 29.7503 11.2994 29.7857C11.4056 29.7857 11.5295 29.7857 11.6357 29.7857C18.1309 29.7857 24.626 29.7857 31.1389 29.7857H31.5637V31.6439H29.316C29.8116 33.2898 29.4576 34.6349 27.9887 35.5375C26.8737 36.21 25.7056 36.1392 24.6437 35.3605C23.3872 34.4402 23.104 33.166 23.5642 31.6793H18.5556C19.0158 33.2368 18.7149 34.5464 17.3344 35.4667C16.2372 36.1923 15.0514 36.1746 13.9718 35.4313C12.6445 34.511 12.3259 33.2191 12.8214 31.6616C12.3082 31.6616 11.8127 31.6616 11.3171 31.6616C9.91896 31.6263 8.6978 30.6352 8.39693 29.2901C8.07836 27.892 8.73319 26.4762 10.0075 25.8391C10.1313 25.786 10.2552 25.7152 10.3791 25.6621C9.72428 19.0785 9.06946 12.5126 8.39693 5.91136H4.00781V4H10.1136ZM17.653 23.0251V21.2023H15.8301V23.0251H17.653ZM21.9713 21.2199H20.1484V23.0251H21.9713V21.2199ZM26.272 21.2199H24.4491V23.0251H26.272V21.2199Z" fill="#8B00FF"/>
<path opacity="0.4" d="M35.9557 10.9905C35.8673 11.3445 35.8142 11.6984 35.708 12.0524C34.8939 14.9548 32.1507 16.8485 29.1597 16.6184C26.1687 16.3883 23.7618 14.1053 23.3724 11.1498C22.9123 7.71642 25.3369 4.54851 28.8057 4.07067C28.8588 4.07067 28.9296 4.03528 28.9827 4.01758C29.4429 4.01758 29.903 4.01758 30.3632 4.01758C30.4163 4.03528 30.4516 4.07067 30.5047 4.07067C33.1594 4.46002 35.1947 6.30059 35.8319 8.90217C35.8849 9.14994 35.938 9.38001 35.9911 9.62778V11.0082L35.9557 10.9905ZM32.0799 7.34476C30.9472 8.49512 29.7791 9.66317 28.5757 10.8666C28.0093 10.3003 27.4607 9.75166 26.9651 9.23843C26.5227 9.66317 26.0979 10.0879 25.6909 10.495C26.6466 11.4683 27.6377 12.4417 28.5757 13.3974C30.1685 11.8046 31.779 10.1941 33.3541 8.619C32.9471 8.21195 32.5223 7.78721 32.0622 7.32706L32.0799 7.34476Z" fill="#8B00FF"/>
</svg>
