<svg width="40" height="40" viewBox="0 0 40 40" fill="none" xmlns="http://www.w3.org/2000/svg">
<path d="M4.0531 20.4401C4.14159 20.1569 4.21238 19.8383 4.35397 19.5729C5.00881 18.1392 6.1415 17.3959 7.71666 17.3428C8.58388 17.3074 9.4688 17.3428 10.336 17.3428C10.4422 17.3428 10.5661 17.3428 10.7077 17.3428C10.7077 17.2012 10.7077 17.0773 10.7077 16.9534C10.7077 14.8472 10.7077 12.7232 10.7077 10.617C10.7077 9.71438 11.0617 9.36039 11.9643 9.36039C13.274 9.36039 14.5836 9.36039 15.8933 9.36039C17.6809 9.36039 18.9905 10.2985 19.5746 11.9799C20.548 14.7587 21.5391 17.5374 22.5125 20.3162C22.601 20.5994 22.7249 20.7233 23.0258 20.6879C23.3443 20.6525 23.6629 20.6879 24.0169 20.6879C24.0169 20.5286 24.0169 20.4047 24.0169 20.2808C24.0169 16.5463 24.0169 12.8117 24.0169 9.0772C24.0169 8.31614 24.7425 7.82056 25.415 8.12144C25.8044 8.29844 26.0168 8.61702 26.0168 9.0595C26.0168 10.0507 26.0168 11.0418 26.0168 12.0153C26.0168 16.9711 26.0168 21.9446 26.0168 26.9003C26.0168 27.0242 26.0168 27.1481 26.0168 27.3251C26.1584 27.3251 26.2646 27.3251 26.3885 27.3251C29.2202 27.3251 32.0696 27.3251 34.9014 27.3251C35.6978 27.3251 36.1934 27.9977 35.9279 28.6703C35.7863 29.042 35.5208 29.272 35.1138 29.3074C34.9722 29.3074 34.8306 29.3074 34.6713 29.3074C30.7777 29.3074 26.8663 29.3074 22.9727 29.3074C22.7072 29.3074 22.5833 29.3782 22.4948 29.6437C22.0524 31.0951 20.7604 31.98 19.2029 31.9623C17.8047 31.9446 16.5482 30.9535 16.1234 29.5552C16.1057 29.4844 16.0703 29.3959 16.0349 29.3251H13.274C13.097 30.0685 12.743 30.7057 12.1413 31.1836C10.3006 32.7234 7.52198 31.8915 6.81404 29.6083C6.74325 29.3959 6.67246 29.3074 6.42468 29.2897C5.20349 29.2897 4.42476 28.6703 4.0531 27.4667C4.0531 27.4313 4.0177 27.4136 4 27.3959C4 25.0596 4 22.741 4 20.4047L4.0531 20.4401ZM12.743 11.3958C12.743 11.3958 12.743 11.5374 12.743 11.5905C12.743 14.0684 12.743 16.564 12.743 19.0419C12.743 19.1481 12.743 19.272 12.7784 19.3782C12.9731 20.1923 13.6102 20.6702 14.5305 20.6702C16.442 20.6702 18.3534 20.6702 20.2648 20.6702C20.3356 20.6702 20.4241 20.6702 20.5303 20.6525C20.4949 20.5463 20.4772 20.4578 20.4418 20.3693C20.194 19.6437 19.9285 18.918 19.6808 18.1923C19.0082 16.2985 18.3534 14.4224 17.6809 12.5286C17.4508 11.9091 17.0437 11.4312 16.3712 11.3958C15.1854 11.3427 13.9819 11.3958 12.7607 11.3958H12.743ZM11.3625 28.6703C11.3625 27.9269 10.7785 27.3428 10.0351 27.3428C9.30952 27.3428 8.72547 27.9269 8.72547 28.6526C8.72547 29.3959 9.30952 29.9977 10.0351 29.9977C10.7608 29.9977 11.3625 29.3959 11.3625 28.6703ZM19.3445 27.3428C18.6189 27.3428 18.0171 27.9623 18.0348 28.688C18.0348 29.3959 18.6543 29.9977 19.3622 29.9977C20.0878 29.9977 20.6896 29.3959 20.6896 28.6703C20.6896 27.9269 20.0878 27.3428 19.3622 27.3605L19.3445 27.3428Z" fill="#8B00FF"/>
<path opacity="0.4" d="M31.0047 10.7052C31.0047 11.0238 31.0047 11.3247 31.0047 11.6079C31.0047 12.2273 31.4295 12.6698 31.9958 12.6698C32.5799 12.6698 33.0046 12.2273 33.0046 11.6079C33.0046 11.3247 33.0046 11.0238 33.0046 10.6875C33.2347 10.6875 33.4471 10.6875 33.6595 10.6875C34.1727 10.6875 34.7037 10.6875 35.2169 10.6875C35.7656 10.6875 35.9956 10.9353 35.9956 11.4663C35.9956 13.1654 35.9956 14.8468 35.9956 16.546C35.9956 17.0946 35.7656 17.3424 35.2346 17.3424C33.0754 17.3424 30.9339 17.3424 28.7747 17.3424C28.2438 17.3424 28.0137 17.0946 28.0137 16.5814C28.0137 14.8645 28.0137 13.1477 28.0137 11.4309C28.0137 11.0061 28.2084 10.7229 28.58 10.7052C29.3764 10.6875 30.1729 10.7052 31.0047 10.7052Z" fill="#8B00FF"/>
<path opacity="0.4" d="M31.0047 18.6699C31.0047 19.0062 31.0047 19.3071 31.0047 19.608C31.0047 20.2275 31.4295 20.6522 31.9958 20.6699C32.5622 20.6699 32.9869 20.2275 33.0046 19.6257C33.0046 19.3248 33.0046 19.0239 33.0046 18.723C33.0577 18.723 33.1108 18.6876 33.1462 18.6876C33.8541 18.6876 34.5621 18.6876 35.27 18.6876C35.7125 18.6876 35.9956 18.9354 35.9956 19.3248C35.9956 21.1301 35.9956 22.9177 35.9956 24.7231C35.9956 25.0416 35.7656 25.2894 35.4293 25.3248C35.3231 25.3248 35.1992 25.3425 35.093 25.3425C33.04 25.3425 30.9693 25.3425 28.9163 25.3425C28.2084 25.3425 28.0137 25.1301 28.0137 24.4399C28.0137 22.7938 28.0137 21.1301 28.0137 19.4841C28.0137 18.9354 28.2438 18.6876 28.7747 18.6876C29.5003 18.6876 30.226 18.6876 31.0047 18.6876V18.6699Z" fill="#8B00FF"/>
</svg>
