<svg width="40" height="40" viewBox="0 0 40 40" fill="none" xmlns="http://www.w3.org/2000/svg">
<path d="M36.0005 28.9242C35.7346 29.1014 35.5928 29.0305 35.3978 28.7646C33.8023 26.6018 30.6291 26.3359 28.679 28.1796C28.6081 28.2505 28.5372 28.3037 28.4308 28.4101C27.4558 25.5559 26.4808 22.7195 25.5058 19.8653C25.0803 20.0248 24.6903 20.1667 24.3003 20.3085C23.8216 20.468 23.4316 20.2021 23.4316 19.7235C23.8926 19.7412 24.3535 19.7944 24.8321 19.7766C25.7717 19.7766 26.1085 19.5107 26.4276 18.5712C26.4985 18.7307 26.5694 18.8548 26.6049 18.9966C26.8885 19.7944 27.1367 20.5921 27.4381 21.3721C27.4735 21.4962 27.5976 21.6203 27.704 21.6735C29.3527 22.4535 30.505 23.659 31.0722 25.4141C31.1432 25.6445 31.2495 25.7509 31.5154 25.7686C32.9159 25.8218 34.1746 26.2827 35.1319 27.3464C35.4687 27.7187 35.7169 28.1441 36.0005 28.5519V28.9242Z" fill="#8B00FF"/>
<path opacity="0.4" d="M4 19.0322C4 17.7204 4 16.4085 4 15.0967C4 14.5471 4.24819 14.2812 4.79774 14.2812C7.47461 14.2812 10.1515 14.2812 12.8284 14.2812C13.3602 14.2812 13.6261 14.5648 13.6261 15.1144C13.6261 17.7204 13.6261 20.3441 13.6261 22.9501C13.6261 23.4996 13.3425 23.7833 12.8106 23.7833C10.1515 23.7833 7.47461 23.7833 4.81547 23.7833C4.28364 23.7833 4.01773 23.4996 4.01773 22.9678C4.01773 21.6559 4.01773 20.3441 4.01773 19.0322H4Z" fill="#8B00FF"/>
<path d="M20.0621 14.9369C19.8139 14.5291 19.5302 14.1214 19.2998 13.7136C18.9984 13.1995 18.4843 12.9159 17.9525 13.0223C17.0484 13.1818 16.5875 14.0682 16.9952 14.9014C17.5625 16.0537 18.3602 17.011 19.3352 17.8442C19.4948 17.9683 19.548 18.0924 19.5302 18.3051C19.4416 19.0674 19.3884 19.8297 19.3352 20.6097C19.3352 20.7161 19.3352 20.8225 19.3352 20.9288C20.7003 21.1416 22.0476 21.3543 23.3949 21.567C24.0331 21.6734 24.4585 22.0102 24.7067 22.5953C25.4513 24.4389 26.1781 26.2826 26.8872 28.1263C27.224 28.9772 26.7986 29.9168 25.9654 30.2359C25.1322 30.555 24.1926 30.165 23.8558 29.3141C23.2708 27.8427 22.6858 26.3535 22.1007 24.8821C22.0298 24.7049 21.9589 24.6339 21.7462 24.5985C20.1507 24.368 18.5375 24.1021 16.942 23.8539C15.6833 23.6589 14.8679 22.7903 14.7261 21.4252C14.5842 20.0956 14.5133 18.7661 14.7261 17.4365C14.9033 16.2664 15.187 15.1141 15.6479 14.015C16.0734 12.9868 16.8356 12.2777 17.9702 12.1004C19.0693 11.9231 19.7784 12.4018 20.1153 13.4832C20.2571 13.9441 20.2571 14.4228 20.2039 14.8837C20.1684 14.8837 20.133 14.9191 20.0975 14.9191L20.0621 14.9369Z" fill="#8B00FF"/>
<path d="M27.2961 30.8034V32.3457H16.9786C17.4573 29.137 14.9932 27.0097 12.6177 26.9565C9.79896 26.9033 7.49437 29.4916 8.06165 32.3457H5.8457C5.8457 31.4062 6.05843 30.502 6.32435 29.5979C6.59026 28.7115 6.90936 27.8429 7.22846 26.9565C6.76754 26.8856 6.66117 26.5665 6.6789 26.141C6.69663 25.7687 6.6789 25.4142 6.6789 25.0419C6.6789 24.6519 6.8739 24.4746 7.24618 24.4392C7.33482 24.4392 7.44119 24.4392 7.52983 24.4392C10.8449 24.4392 14.1777 24.4392 17.4927 24.4392C18.2018 24.4392 18.3437 24.581 18.3437 25.2724C18.3437 25.5737 18.3437 25.8751 18.3437 26.1765C18.3437 26.4424 18.3082 26.6906 18.06 26.8679C18.0068 26.9033 17.9714 27.0451 17.9891 27.1515C18.1309 28.3393 18.4146 29.4916 18.911 30.5907C18.9996 30.8034 19.1414 30.7857 19.3187 30.7857C21.8537 30.7857 24.3888 30.7857 26.9061 30.7857H27.2961V30.8034Z" fill="#8B00FF"/>
<path opacity="0.4" d="M16.392 31.6363C16.2679 33.8523 14.4774 35.4655 12.2792 35.3591C10.2051 35.2527 8.48551 33.3559 8.62733 31.2995C8.78688 29.0303 10.6837 27.4348 12.8997 27.6121C14.8497 27.7716 16.4984 29.633 16.392 31.6363ZM12.5097 33.0013C13.3606 33.0013 14.052 32.3277 14.052 31.4945C14.052 30.6613 13.3606 29.9699 12.5097 29.9699C11.6765 29.9699 11.0028 30.6435 10.9851 31.4767C10.9851 32.3277 11.6588 33.019 12.4919 33.019L12.5097 33.0013Z" fill="#8B00FF"/>
<path opacity="0.4" d="M27.916 31.4769C27.916 29.3319 29.6533 27.5945 31.8161 27.5945C33.9434 27.5945 35.6984 29.3319 35.6984 31.4415C35.6984 33.5865 33.9611 35.3593 31.8693 35.3593C29.6888 35.3593 27.9337 33.6397 27.9337 31.4769H27.916ZM31.8161 32.9838C32.667 32.9838 33.3407 32.2924 33.3229 31.4415C33.3229 30.6083 32.6316 29.9346 31.7984 29.9346C30.9652 29.9346 30.2561 30.626 30.2561 31.4592C30.2561 32.3101 30.9474 32.9838 31.7984 32.966L31.8161 32.9838Z" fill="#8B00FF"/>
<path d="M23.7306 7.50867C23.3228 7.57958 22.9151 7.63276 22.5251 7.73913C22.2769 7.79231 22.0287 7.89868 21.7982 8.02277C21.4614 8.20005 21.3019 8.48369 21.3373 8.8737C21.3905 9.28144 21.4437 9.68918 21.4791 10.1146C21.5323 10.7174 21.426 10.8592 20.841 10.9479C19.9723 11.0542 19.1214 10.9479 18.3059 10.5933C17.4727 10.221 17.1891 9.45872 17.0472 8.64324C16.675 6.46273 18.3059 4.58359 20.5041 4.63677C22.0287 4.67223 23.4469 5.87771 23.6951 7.38457C23.6951 7.43776 23.6951 7.49094 23.6951 7.5264L23.7306 7.50867Z" fill="#8B00FF"/>
<path d="M24.6344 19.5284C21.2307 19.4043 18.8198 17.7201 17.2243 14.795C16.9407 14.2632 17.1357 13.6427 17.6498 13.3768C18.1816 13.0932 18.7666 13.2882 19.0857 13.8555C19.9721 15.451 21.1953 16.6565 22.9858 17.206C23.6772 17.4188 24.3863 17.4542 25.1131 17.4365C25.5917 17.4365 26.0172 17.7733 26.1236 18.2165C26.2299 18.6774 26.0349 19.1738 25.6095 19.3865C25.4499 19.4752 25.2549 19.5106 25.0776 19.5284C24.9358 19.5461 24.794 19.5284 24.6344 19.5284Z" fill="#8B00FF"/>
<path opacity="0.4" d="M30.664 19.3691C30.5577 19.8832 30.5045 20.3441 30.3804 20.7873C30.2209 21.3369 29.9727 21.4432 29.4231 21.3546C28.4658 21.2128 27.7744 20.3264 27.8099 19.3159C27.8454 18.3409 28.6254 17.5077 29.5472 17.419C29.9727 17.3836 30.1854 17.4722 30.3272 17.8799C30.4868 18.3586 30.5754 18.8727 30.6818 19.3513L30.664 19.3691Z" fill="#8B00FF"/>
<path opacity="0.4" d="M18.5898 11.0009C19.1039 11.0718 19.5826 11.1604 20.079 11.1959C20.4512 11.2136 20.8235 11.1959 21.1958 11.1073C21.6213 11.0186 21.7631 10.8591 21.7454 10.4159C21.7454 9.93723 21.6567 9.44086 21.6213 8.96221C21.5858 8.51901 21.6567 8.32401 22.0999 8.16446C22.4899 8.02264 22.8977 7.934 23.3054 7.86309C23.3763 7.86309 23.5004 7.95173 23.5358 8.02264C24.4045 9.93723 22.809 12.2064 20.6994 12.0646C19.813 12.0114 19.033 11.6214 18.6076 11.0009H18.5898Z" fill="#8B00FF"/>
</svg>
