<svg width="40" height="40" viewBox="0 0 40 40" fill="none" xmlns="http://www.w3.org/2000/svg">
<path d="M21.7365 4.02335H29.8516C30.3655 4.25369 30.5427 4.64349 30.5427 5.21048C30.5427 8.45293 30.5427 11.7131 30.5427 14.9555V15.2922C25.7941 13.6798 21.4707 14.3708 17.9269 17.9322C14.3655 21.4936 13.6744 25.8169 15.2868 30.5654H14.9502C11.6722 30.5654 8.39425 30.5654 5.11628 30.5654C4.33666 30.5654 4 30.2287 4 29.4314C4 21.3518 4 13.2723 4 5.19276C4 4.62577 4.17719 4.23597 4.69103 4.00563H12.8062C12.8062 6.32673 12.8239 8.64783 12.8062 10.9689C12.8062 11.784 13.5327 12.3332 14.3123 11.908C15.216 11.3942 16.1551 10.9512 17.0941 10.4905C17.2005 10.4374 17.3777 10.4374 17.484 10.4905C18.4231 10.9512 19.3444 11.4296 20.2658 11.8903C21.0809 12.2978 21.7542 11.8903 21.7542 10.9689C21.7542 8.64783 21.7542 6.32673 21.7542 4.00563L21.7365 4.02335Z" fill="#8B00FF"/>
<path opacity="0.4" d="M35.9819 25.3203V27.0035C35.911 27.4288 35.8579 27.8363 35.7693 28.2615C34.5644 33.5416 29.6386 36.784 24.3053 35.8272C18.7593 34.8173 15.1801 29.0943 16.6685 23.6548C18.0505 18.6759 22.7992 15.593 27.9022 16.532C31.8357 17.2585 34.3695 19.6504 35.6098 23.4422C35.8047 24.0446 35.8756 24.7002 35.9996 25.3203H35.9819ZM25.0317 22.9992C25.0317 22.9992 24.9963 22.9283 24.9786 22.9106C25.1558 22.7511 25.333 22.6271 25.4924 22.4499C25.8645 22.0601 25.8468 21.4931 25.4924 21.1388C25.1203 20.7844 24.571 20.7844 24.1812 21.1565C23.4725 21.8652 22.7637 22.5562 22.055 23.2827C21.6652 23.6902 21.6652 24.2218 22.055 24.6293C22.746 25.338 23.4548 26.0467 24.1812 26.7555C24.571 27.1276 25.138 27.1276 25.4924 26.7732C25.8645 26.4188 25.8645 25.8341 25.4924 25.4266C25.333 25.2671 25.1735 25.1254 24.9431 24.9128C25.9885 24.9128 26.9276 24.9128 27.8667 24.9128C27.9022 24.9128 27.9199 24.9128 27.9553 24.9305C28.8767 25.1608 29.426 25.9582 29.3197 26.9327C29.2134 27.8009 28.4692 28.4564 27.5478 28.4564C26.1303 28.4564 24.6951 28.4564 23.2776 28.4564C22.7106 28.4564 22.2676 28.8817 22.2853 29.3955C22.2853 29.9093 22.7106 30.3169 23.2599 30.3346C24.7305 30.3346 26.2189 30.37 27.6895 30.3346C30.3119 30.2637 31.9952 27.4819 30.8435 25.1254C30.1879 23.7788 29.0716 23.0878 27.5832 23.0524C26.7505 23.0169 25.9 23.0524 25.0672 23.0524L25.0317 22.9992Z" fill="#8B00FF"/>
<path opacity="0.4" d="M19.8614 4.02321C19.8614 5.8482 19.8614 7.6909 19.8614 9.51588C19.8614 9.5336 19.8614 9.55132 19.8259 9.60447C19.383 9.37414 18.94 9.16152 18.497 8.93118C18.249 8.80715 18.0186 8.68312 17.7706 8.55909C17.4339 8.38191 17.0972 8.38191 16.7606 8.55909C16.1759 8.86031 15.5734 9.16152 14.9887 9.46273C14.9001 9.51588 14.8115 9.55132 14.6875 9.60447V4.02321H19.8791H19.8614Z" fill="#8B00FF"/>
</svg>
