<svg width="40" height="40" viewBox="0 0 40 40" fill="none" xmlns="http://www.w3.org/2000/svg">
<path d="M33.75 2.5H16.25C15.2564 2.50297 14.3042 2.89901 13.6016 3.60163C12.899 4.30425 12.503 5.25635 12.5 6.25V8.75C12.4989 9.67632 12.847 10.569 13.475 11.25H13.75C15.7302 11.2487 17.6873 11.6751 19.4875 12.5H33.75C34.7437 12.497 35.6958 12.101 36.3984 11.3984C37.101 10.6958 37.497 9.74365 37.5 8.75V6.25C37.497 5.25635 37.101 4.30425 36.3984 3.60163C35.6958 2.89901 34.7437 2.50297 33.75 2.5Z" fill="#8B00FF"/>
<path d="M33.75 15H23.1875C24.5494 16.2853 25.6344 17.8353 26.376 19.5549C27.1175 21.2744 27.5 23.1273 27.5 25H33.75C34.7437 24.997 35.6958 24.601 36.3984 23.8984C37.101 23.1958 37.497 22.2436 37.5 21.25V18.75C37.497 17.7564 37.101 16.8042 36.3984 16.1016C35.6958 15.399 34.7437 15.003 33.75 15Z" fill="#8B00FF"/>
<path d="M33.7508 27.5H27.2758C26.8695 29.6672 25.9506 31.7057 24.5959 33.4453C23.2411 35.1849 21.4899 36.5752 19.4883 37.5H33.7508C34.7444 37.497 35.6965 37.101 36.3992 36.3984C37.1018 35.6958 37.4978 34.7436 37.5008 33.75V31.25C37.4978 30.2564 37.1018 29.3042 36.3992 28.6016C35.6965 27.899 34.7444 27.503 33.7508 27.5Z" fill="#8B00FF"/>
<path d="M25 25C25 22.775 24.3402 20.5999 23.104 18.7498C21.8679 16.8998 20.1109 15.4578 18.0552 14.6064C15.9995 13.7549 13.7375 13.5321 11.5552 13.9662C9.37295 14.4003 7.36839 15.4717 5.79505 17.0451C4.22171 18.6184 3.15025 20.623 2.71617 22.8052C2.28209 24.9875 2.50487 27.2495 3.35636 29.3052C4.20785 31.3609 5.64979 33.1179 7.49984 34.354C9.34989 35.5902 11.525 36.25 13.75 36.25C16.7327 36.2467 19.5922 35.0604 21.7013 32.9513C23.8104 30.8422 24.9967 27.9827 25 25ZM13.125 23.75H14.375C15.1489 23.7507 15.895 24.0386 16.4688 24.5579C17.0427 25.0772 17.4034 25.7909 17.4812 26.5609C17.559 27.3309 17.3483 28.1023 16.8899 28.7259C16.4316 29.3494 15.7581 29.7807 15 29.9363V30C15 30.3315 14.8683 30.6495 14.6339 30.8839C14.3995 31.1183 14.0815 31.25 13.75 31.25C13.4185 31.25 13.1005 31.1183 12.8661 30.8839C12.6317 30.6495 12.5 30.3315 12.5 30H11.25C10.9185 30 10.6005 29.8683 10.3661 29.6339C10.1317 29.3995 10 29.0815 10 28.75C10 28.4185 10.1317 28.1005 10.3661 27.8661C10.6005 27.6317 10.9185 27.5 11.25 27.5H14.375C14.5408 27.5 14.6997 27.4342 14.8169 27.3169C14.9342 27.1997 15 27.0408 15 26.875C15 26.7092 14.9342 26.5503 14.8169 26.4331C14.6997 26.3159 14.5408 26.25 14.375 26.25H13.125C12.3511 26.2493 11.605 25.9614 11.0312 25.4421C10.4573 24.9228 10.0966 24.2091 10.0188 23.4391C9.94103 22.6691 10.1517 21.8977 10.6101 21.2741C11.0684 20.6506 11.7419 20.2193 12.5 20.0638V20C12.5 19.6685 12.6317 19.3505 12.8661 19.1161C13.1005 18.8817 13.4185 18.75 13.75 18.75C14.0815 18.75 14.3995 18.8817 14.6339 19.1161C14.8683 19.3505 15 19.6685 15 20H16.25C16.5815 20 16.8995 20.1317 17.1339 20.3661C17.3683 20.6005 17.5 20.9185 17.5 21.25C17.5 21.5815 17.3683 21.8995 17.1339 22.1339C16.8995 22.3683 16.5815 22.5 16.25 22.5H13.125C12.9592 22.5 12.8003 22.5659 12.6831 22.6831C12.5659 22.8003 12.5 22.9592 12.5 23.125C12.5 23.2908 12.5659 23.4497 12.6831 23.5669C12.8003 23.6842 12.9592 23.75 13.125 23.75Z" fill="#8B00FF"/>
</svg>
