<svg width="40" height="40" viewBox="0 0 40 40" fill="none" xmlns="http://www.w3.org/2000/svg">
<g clip-path="url(#clip0_1439_7859)">
<path d="M13.1031 37.9995C12.8194 37.7327 12.5029 37.4923 12.2596 37.1936C11.7496 36.5671 11.2706 35.9162 10.7962 35.2625C10.6507 35.0624 10.5022 34.9769 10.2477 34.9826C9.33381 35.0023 8.41991 35.0014 7.50601 34.9948C6.46813 34.9873 5.96562 34.1729 6.4268 33.2431C7.51634 31.0433 8.61152 28.8473 9.70482 26.6504C9.74051 26.5781 9.7809 26.5076 9.83538 26.4043C10.4863 26.7424 11.2029 26.9265 11.6312 27.6122C11.9149 28.0659 12.2944 28.4594 12.6297 28.8811C13.1059 29.4794 13.7258 29.7753 14.4894 29.7762C15.0398 29.7762 15.5949 29.8195 16.1406 29.7659C16.8225 29.6983 17.3551 30.0129 17.9393 30.3163C17.8792 30.4431 17.8257 30.5568 17.7702 30.6695C16.7192 32.7838 15.6616 34.8952 14.6228 37.0151C14.4161 37.4369 14.1729 37.7985 13.7371 38.0004H13.104L13.1031 37.9995Z" fill="#8B00FF"/>
<path opacity="0.4" d="M26.2561 37.9997C25.8184 37.7987 25.577 37.4371 25.3704 37.0154C24.3315 34.8954 23.2739 32.7849 22.2238 30.6716C22.1675 30.5579 22.1139 30.4433 22.0566 30.3231C22.6521 29.9906 23.2176 29.7135 23.9192 29.7624C24.6039 29.8103 25.2999 29.7746 25.9865 29.7173C26.5472 29.6703 26.9868 29.3453 27.3381 28.9105C27.6913 28.4728 28.0576 28.0454 28.3863 27.5899C28.669 27.1982 29.009 26.9061 29.4618 26.7351C29.69 26.6487 29.9042 26.5257 30.1456 26.4102C30.1963 26.4947 30.2479 26.568 30.2874 26.6478C31.3816 28.8457 32.4721 31.0445 33.5701 33.2405C33.7598 33.6199 33.8181 33.9975 33.6199 34.3826C33.3916 34.8241 33.0084 35.0016 32.5219 34.9978C31.5967 34.9903 30.6706 34.9988 29.7454 34.9828C29.5106 34.9781 29.3575 35.041 29.2176 35.2345C28.7357 35.8976 28.2511 36.5598 27.7345 37.1957C27.4912 37.4953 27.1737 37.7348 26.8901 38.0016H26.257L26.2561 37.9997Z" fill="#8B00FF"/>
<path d="M15.6592 3.26378C16.6463 3.43097 17.5274 3.14919 18.368 2.65326C18.6892 2.46353 19.0452 2.33485 19.3768 2.16109C19.7947 1.94224 20.1996 1.95069 20.6185 2.15921C21.2882 2.49171 21.9626 2.81763 22.6426 3.12947C22.8163 3.20836 23.0192 3.25533 23.2099 3.25908C23.9482 3.27411 24.6864 3.27787 25.4247 3.26002C25.8999 3.24875 26.2559 3.42815 26.5433 3.79728C27.0036 4.38902 27.4704 4.97605 27.9485 5.55276C28.0631 5.69083 28.2171 5.81293 28.3777 5.89371C29.0559 6.2356 29.7415 6.56528 30.43 6.88745C30.8461 7.08188 31.0809 7.39653 31.1758 7.8408C31.3345 8.58375 31.5017 9.32389 31.6801 10.0622C31.7168 10.2153 31.7947 10.3702 31.8905 10.4942C32.3639 11.1057 32.8458 11.7106 33.3342 12.3098C33.6235 12.6648 33.6996 13.0471 33.5897 13.4914C33.4121 14.2052 33.2496 14.9238 33.1003 15.6442C33.059 15.8424 33.0552 16.064 33.0965 16.2622C33.2478 16.9948 33.4159 17.7237 33.5934 18.4498C33.6986 18.8799 33.6244 19.2566 33.3455 19.6003C32.9172 20.1282 32.5067 20.6702 32.0671 21.1877C31.8239 21.4742 31.6783 21.786 31.6041 22.1504C31.4716 22.8032 31.3129 23.4504 31.172 24.1013C31.079 24.5305 30.8489 24.8414 30.445 25.0302C29.8946 25.2876 29.3592 25.5806 28.7994 25.8145C28.3063 26.0202 27.9306 26.332 27.6207 26.7622C27.2853 27.2271 26.9003 27.6554 26.5546 28.1138C26.2616 28.5027 25.8924 28.6727 25.4059 28.6605C24.6676 28.6417 23.9294 28.6473 23.1911 28.6614C23.0117 28.6652 22.8201 28.7102 22.6567 28.7854C21.9776 29.0991 21.3041 29.426 20.6335 29.7585C20.2033 29.9717 19.7891 29.9717 19.3561 29.7556C18.6132 29.3856 17.8918 28.8972 17.1019 28.7149C16.311 28.5318 15.4479 28.6454 14.6175 28.6623C14.1038 28.6727 13.7196 28.497 13.4125 28.0847C13.0349 27.5784 12.6132 27.1032 12.2365 26.596C11.9989 26.2747 11.7124 26.0493 11.347 25.8887C10.7478 25.6248 10.1664 25.3233 9.57278 25.0462C9.1595 24.8536 8.91342 24.5446 8.81761 24.0985C8.65794 23.3565 8.49263 22.6154 8.31323 21.8771C8.27378 21.7137 8.19113 21.5474 8.08781 21.4141C7.62945 20.8204 7.16358 20.2334 6.68643 19.6548C6.37929 19.2819 6.28255 18.8865 6.40653 18.4141C6.56621 17.8045 6.67986 17.1818 6.83578 16.5712C6.94003 16.1655 6.94661 15.7757 6.83953 15.368C6.67328 14.7359 6.54554 14.0935 6.39244 13.4566C6.29288 13.0405 6.36521 12.6733 6.63759 12.3389C7.05932 11.8214 7.4585 11.2851 7.89244 10.7779C8.15074 10.4745 8.31511 10.1476 8.39213 9.75783C8.52081 9.10504 8.68048 8.45789 8.82325 7.80699C8.91812 7.3768 9.16044 7.07624 9.56339 6.88933C10.2312 6.57843 10.8981 6.26378 11.5537 5.92846C11.7537 5.82608 11.9435 5.67205 12.0881 5.50016C12.5549 4.94412 13.0048 4.37399 13.4491 3.79916C13.7365 3.42815 14.0925 3.24124 14.5678 3.26378C14.9303 3.28069 15.2938 3.26754 15.6573 3.26754L15.6592 3.26378ZM20.0033 25.7929C25.4331 25.7835 29.843 21.3784 29.8439 15.9626C29.8439 10.5327 25.4087 6.11538 19.9723 6.13134C14.5452 6.14731 10.1373 10.5656 10.1495 15.9767C10.1617 21.3915 14.5894 25.8023 20.0033 25.7929Z" fill="#8B00FF"/>
<path d="M11.2764 15.9677C11.2764 11.1474 15.2119 7.21095 20.0087 7.23349C24.828 7.25604 28.7156 11.1502 28.7166 15.9564C28.7175 20.7767 24.7923 24.7056 19.9852 24.6962C15.1874 24.6859 11.2773 20.7673 11.2773 15.9677H11.2764ZM17.3243 14.6292C16.8471 15.2266 16.3916 15.7967 15.9276 16.3763C16.8405 17.1061 17.7169 17.8077 18.5941 18.5084C19.2394 19.024 19.7692 18.9949 20.3581 18.4079C21.5519 17.2169 22.7429 16.024 23.9348 14.8321C24.0052 14.7617 24.071 14.6856 24.0945 14.6593C23.5619 14.1183 23.0491 13.597 22.4986 13.0372C21.4551 14.0826 20.3975 15.1411 19.3193 16.2194C18.673 15.7047 18.0156 15.1815 17.3233 14.6292H17.3243Z" fill="#8B00FF"/>
</g>
<defs>
<clipPath id="clip0_1439_7859">
<rect width="27.4874" height="36" fill="white" transform="translate(6.25586 2)"/>
</clipPath>
</defs>
</svg>
