<svg width="40" height="40" viewBox="0 0 40 40" fill="none" xmlns="http://www.w3.org/2000/svg">
<path opacity="0.4" fill-rule="evenodd" clip-rule="evenodd" d="M20.4559 5.39249C17.6132 5.29782 14.7412 6.07338 12.2617 7.72849C9.4768 9.58938 7.53058 12.3374 6.63414 15.4094C6.38658 15.3792 6.09014 15.3925 5.73814 15.492C4.42391 15.8649 3.43547 16.9418 2.99102 17.8903C2.41458 19.1263 2.17147 20.7609 2.42791 22.4485C2.68258 24.1307 3.39325 25.5174 4.28214 26.3783C5.17369 27.2396 6.18036 27.5196 7.18036 27.3094C8.66925 26.9916 9.40747 26.7538 9.19902 25.3667L8.18969 18.6427C8.39325 15.0036 10.2772 11.5778 13.4284 9.47115C17.6461 6.65382 23.1759 6.83427 27.199 9.92271C29.9977 12.0685 31.6226 15.2836 31.8101 18.6587L31.1044 23.3623C29.5301 27.6703 25.6275 30.6543 21.1115 31.0778H18.1044C17.3284 31.0778 16.7035 31.7027 16.7035 32.4778V33.2165C16.7035 33.992 17.3284 34.6169 18.1044 34.6169H21.8959C22.6715 34.6169 23.2937 33.992 23.2937 33.2165V32.8303C26.699 31.9992 29.6715 29.9063 31.607 26.9876L32.8217 27.3098C33.8101 27.5663 34.8288 27.2396 35.7199 26.3787C36.6088 25.5174 37.319 24.1312 37.5741 22.4489C37.8315 20.7614 37.5812 19.1294 37.0115 17.8907C36.4395 16.652 35.5875 15.8654 34.6039 15.5832C34.1919 15.4645 33.7448 15.4209 33.3612 15.4094C32.5506 12.6316 30.8817 10.1054 28.4764 8.26093C26.1115 6.44627 23.2986 5.48582 20.4559 5.39249Z" fill="#8B00FF"/>
<path fill-rule="evenodd" clip-rule="evenodd" d="M24.8934 17.4889C25.8956 17.4889 26.7081 18.3014 26.7103 19.3063C26.7081 20.3085 25.8956 21.1231 24.8934 21.1231C23.8885 21.1231 23.0738 20.3085 23.0738 19.3063C23.0738 18.3018 23.889 17.4889 24.8934 17.4889ZM20.0001 17.4889C21.0045 17.4889 21.817 18.3014 21.817 19.3063C21.817 20.3085 21.0045 21.1231 20.0001 21.1231C18.9947 21.1231 18.1823 20.3085 18.1823 19.3063C18.1823 18.3018 18.9947 17.4889 20.0001 17.4889ZM15.1085 17.4889C16.1107 17.4889 16.9254 18.3014 16.9254 19.3063C16.9254 20.3085 16.1107 21.1231 15.1085 21.1231C14.1041 21.1231 13.2912 20.3085 13.2912 19.3063C13.2912 18.3018 14.1041 17.4889 15.1085 17.4889ZM20.0001 9.68359C14.6712 9.68359 10.377 13.8365 10.377 19.3063C10.377 21.9334 11.3703 24.2551 12.9885 25.9587L12.4143 28.5329C12.225 29.38 12.8125 29.9498 13.5738 29.5258L16.0876 28.1236C17.2823 28.6423 18.6036 28.9289 20.0001 28.9289C25.3307 28.9289 29.6223 24.7787 29.6223 19.3063C29.6223 13.8365 25.3307 9.68359 20.0001 9.68359Z" fill="#8B00FF"/>
</svg>
