<svg width="40" height="40" viewBox="0 0 40 40" fill="none" xmlns="http://www.w3.org/2000/svg">
<path opacity="0.4" d="M3.05859 13.3203H1.17578C0.528594 13.3203 0.00390625 13.845 0.00390625 14.4922C0.00390625 15.1394 0.528594 15.6641 1.17578 15.6641H3.05859C4.61086 15.6069 4.61141 13.3777 3.05859 13.3203Z" fill="#8B00FF"/>
<path opacity="0.4" d="M38.832 13.3203H36.9492C36.302 13.3203 35.7773 13.845 35.7773 14.4922C35.7773 15.1394 36.302 15.6641 36.9492 15.6641H38.832C40.3844 15.6069 40.3848 13.3777 38.832 13.3203Z" fill="#8B00FF"/>
<path opacity="0.4" d="M7.19395 3.33748C8.33191 4.39467 9.90879 2.81889 8.85121 1.68021L7.52004 0.349043C7.06246 -0.108535 6.32043 -0.108535 5.86277 0.349043C5.40512 0.806621 5.40512 1.54865 5.86277 2.00631L7.19395 3.33748Z" fill="#8B00FF"/>
<path opacity="0.4" d="M32.8149 25.6458C31.6769 24.5887 30.1001 26.1645 31.1576 27.3031L32.4888 28.6343C32.9463 29.0918 33.6883 29.0921 34.1461 28.6343C34.6037 28.1767 34.6037 27.4347 34.1461 26.977L32.8149 25.6458Z" fill="#8B00FF"/>
<path opacity="0.4" d="M7.19395 25.6459L5.86277 26.9771C5.40512 27.4346 5.40512 28.1767 5.86277 28.6343C6.32027 29.0918 7.06223 29.0921 7.52004 28.6343L8.85121 27.3031C9.90848 26.1651 8.33246 24.5885 7.19395 25.6459Z" fill="#8B00FF"/>
<path opacity="0.4" d="M32.4889 0.348975L31.1577 1.68015C30.7 2.13773 30.7 2.87976 31.1577 3.33741C31.6152 3.79491 32.3571 3.79523 32.815 3.33741L34.1461 2.00624C35.2034 0.868194 33.6275 -0.708369 32.4889 0.348975Z" fill="#8B00FF"/>
<path d="M25.511 15.6628L23.3008 17.873C24.533 20.2562 22.6997 23.2302 20.0045 23.1942C17.9741 23.1942 16.3222 21.5424 16.3222 19.5119C16.2864 16.8169 19.2603 14.9833 21.6435 16.2157L24.1969 13.6623C24.4166 13.4425 24.7147 13.319 25.0255 13.319H33.0481C31.232 -2.47669 8.77128 -2.46513 6.96094 13.319H14.4983L16.7084 11.1089C15.4762 8.7257 17.3095 5.75158 20.0047 5.7876C22.0351 5.7876 23.687 7.4395 23.687 9.46993C23.7228 12.1649 20.7489 13.9985 18.3657 12.7661L15.8123 15.3195C15.5927 15.5393 15.2945 15.6628 14.9837 15.6628H6.9618C7.25719 18.9365 8.78042 21.9904 11.2448 24.1789C12.5868 25.4195 13.4574 27.0865 13.7243 28.8759C13.7272 28.8755 26.2806 28.8755 26.2849 28.8759C26.5517 27.0869 27.4223 25.4197 28.7645 24.1789C31.2289 21.9905 32.7522 18.9365 33.0475 15.6628H25.511V15.6628Z" fill="#8B00FF"/>
<path opacity="0.4" d="M13.8105 32.5593C13.8105 35.5734 15.9754 38.09 18.8315 38.6394C18.715 40.4552 21.2922 40.4541 21.1753 38.6394C24.0314 38.09 26.1962 35.5734 26.1962 32.5593V31.2207H13.8105V32.5593Z" fill="#8B00FF"/>
<path d="M21.3423 9.46945C21.3423 8.73141 20.7417 8.13086 20.0037 8.13086C18.2303 8.1982 18.2308 10.7409 20.0037 10.808C20.7417 10.808 21.3423 10.2075 21.3423 9.46945Z" fill="#8B00FF"/>
<path d="M18.666 19.5123C18.666 20.2504 19.2666 20.8509 20.0046 20.8509C21.778 20.7836 21.7775 18.2409 20.0046 18.1738C19.2666 18.1738 18.666 18.7743 18.666 19.5123Z" fill="#8B00FF"/>
</svg>
