<svg width="32" height="32" viewBox="0 0 32 32" fill="none" xmlns="http://www.w3.org/2000/svg">
<path d="M30.988 0H4.70215C4.14282 0 3.68945 0.453368 3.68945 1.01269V18.6296H11.9387C20.1413 10.4267 18.3894 12.1787 20.7385 9.8303H16.1242C15.5786 9.8303 15.1094 9.41063 15.0842 8.86571C15.0576 8.28416 15.5202 7.80492 16.0959 7.80492H23.1831C23.7807 7.80492 24.1958 8.29857 24.1958 8.81761V15.8762C24.1958 16.4214 23.7773 16.8903 23.2329 16.9165C22.6513 16.9441 22.1706 16.4809 22.1706 15.905V11.2622C19.822 13.6113 21.5744 11.8589 13.3713 20.062V28.3112H30.988C31.5473 28.3112 32.0007 27.8579 32.0007 27.2985V1.01269C32.0007 0.453368 31.5473 0 30.988 0Z" fill="#8B00FF"/>
<path opacity="0.4" d="M4.61767 27.3818C4.22265 26.9863 4.22265 26.3447 4.61767 25.9492L9.91258 20.6543C9.71458 20.6543 1.1499 20.6543 1.01269 20.6543C0.453368 20.6543 0 21.1079 0 21.667V30.9868C0 31.5461 0.453368 31.9995 1.01269 31.9995H10.3325C10.8918 31.9995 11.3452 31.5461 11.3452 30.9868C11.3452 30.7776 11.3452 22.3689 11.3452 22.0869L6.05028 27.3818C5.65526 27.7768 5.01317 27.7773 4.61767 27.3818Z" fill="#8B00FF"/>
</svg>
