<svg width="40" height="40" viewBox="0 0 40 40" fill="none" xmlns="http://www.w3.org/2000/svg">
<path opacity="0.4" d="M3.33203 11.6667C3.33203 7.98477 6.3168 5 9.9987 5H29.9987C33.6806 5 36.6654 7.98477 36.6654 11.6667V28.3333C36.6654 32.0152 33.6806 35 29.9987 35H9.9987C6.3168 35 3.33203 32.0152 3.33203 28.3333V11.6667Z" fill="#8B00FF"/>
<path d="M3.33203 11.6665H36.6654V18.3332H3.33203V11.6665Z" fill="#8B00FF"/>
<path fill-rule="evenodd" clip-rule="evenodd" d="M8.75 28.3335C8.75 27.6431 9.30964 27.0835 10 27.0835H13.3333C14.0237 27.0835 14.5833 27.6431 14.5833 28.3335C14.5833 29.0239 14.0237 29.5835 13.3333 29.5835H10C9.30964 29.5835 8.75 29.0239 8.75 28.3335Z" fill="#8B00FF"/>
</svg>
