<svg width="41" height="40" viewBox="0 0 41 40" fill="none" xmlns="http://www.w3.org/2000/svg">
<path d="M7.16663 20C7.16663 16.3181 10.1514 13.3334 13.8333 13.3334H27.1666C30.8485 13.3334 33.8333 16.3181 33.8333 20V30C33.8333 33.6819 30.8485 36.6667 27.1666 36.6667H13.8333C10.1514 36.6667 7.16663 33.6819 7.16663 30V20Z" fill="#8B00FF"/>
<path fill-rule="evenodd" clip-rule="evenodd" d="M20.5 22.0834C21.1904 22.0834 21.75 22.643 21.75 23.3334V26.6667C21.75 27.3571 21.1904 27.9167 20.5 27.9167C19.8096 27.9167 19.25 27.3571 19.25 26.6667V23.3334C19.25 22.643 19.8096 22.0834 20.5 22.0834Z" fill="white"/>
<path opacity="0.4" fill-rule="evenodd" clip-rule="evenodd" d="M15.0836 10C15.0836 7.0085 17.5087 4.58337 20.5003 4.58337C23.4918 4.58337 25.917 7.0085 25.917 10V13.3334H27.167C27.5942 13.3334 28.0121 13.3736 28.417 13.4504V10C28.417 5.62779 24.8725 2.08337 20.5003 2.08337C16.128 2.08337 12.5836 5.62779 12.5836 10V13.4504C12.9885 13.3736 13.4064 13.3334 13.8336 13.3334H15.0836V10Z" fill="#8B00FF"/>
</svg>
