<svg width="40" height="40" viewBox="0 0 40 40" fill="none" xmlns="http://www.w3.org/2000/svg">
<g clip-path="url(#clip0_1439_7880)">
<path d="M2.00003 30.1455C2.09678 30.0649 2.20057 29.9914 2.29026 29.9037C4.59097 27.6483 6.85741 25.3567 9.20043 23.1457C10.9761 21.4708 13.1559 20.9397 15.5422 21.3378C16.2466 21.4557 16.939 21.7147 17.6031 21.9898C18.375 22.3093 19.1601 22.4826 19.9884 22.4846C21.1131 22.4866 22.2377 22.4806 23.3624 22.4886C24.1918 22.4947 24.9647 22.6932 25.6047 23.2515C26.8301 24.3197 26.6799 26.176 25.3134 27.0659C24.6715 27.4841 23.9681 27.6403 23.2153 27.6383C21.8679 27.6342 20.5205 27.6383 19.1732 27.6383C19.0583 27.6383 18.9424 27.6383 18.7126 27.6383C19.1712 28.0938 19.5561 28.4878 19.9582 28.8637C20.0197 28.9211 20.1588 28.905 20.2625 28.905C21.7974 28.906 23.3322 28.9121 24.867 28.8939C25.0574 28.8919 25.2721 28.7941 25.4313 28.6783C28.1764 26.6809 30.9085 24.6634 33.6596 22.6731C34.5848 22.0039 35.6197 21.6804 36.7686 22.0089C37.0336 22.0855 37.2936 22.2145 37.5264 22.3647C38.0464 22.6993 38.1542 23.441 37.7733 23.9448C37.6826 24.0648 37.5677 24.1696 37.4548 24.2703C34.3913 26.9953 31.3126 29.7041 28.2681 32.4503C27.0276 33.5689 25.6228 34.0919 23.957 34.0798C20.185 34.0516 16.4119 34.0738 12.6389 34.0647C12.3759 34.0647 12.2187 34.1362 12.0715 34.363C11.3651 35.4534 10.6375 36.5297 9.91695 37.611C9.85346 37.7057 9.78392 37.7954 9.68718 37.9284C7.10834 35.3415 4.55368 32.7788 1.99902 30.2161C1.99902 30.1929 1.99902 30.1687 1.99902 30.1455H2.00003Z" fill="#8B00FF"/>
<path d="M32.8142 14.8396C32.1773 15.7647 31.5687 16.6928 30.9146 17.5887C29.3597 19.7201 26.8564 19.439 25.5816 18.0735C25.5665 18.0573 25.5413 18.0503 25.501 18.0281C24.9024 18.5199 24.4348 19.1225 24.077 19.8159C23.9591 20.0446 23.8553 20.2845 23.7072 20.4911C23.3827 20.9425 22.8113 21.1118 22.3024 20.9365C21.7481 20.746 21.4095 20.2663 21.4216 19.6385C21.4377 18.8656 21.4548 18.0916 21.5113 17.3207C21.6272 15.7456 21.7118 14.1644 21.9154 12.5993C22.1703 10.6403 22.5422 8.6943 23.3313 6.86725C23.6215 6.19608 24.0377 5.57934 24.4378 4.86383C24.1627 5.01701 23.9218 5.1319 23.7011 5.27601C22.2016 6.25856 21.3883 7.65027 21.2472 9.43601C21.2412 9.51764 21.217 9.59826 21.213 9.67888C21.1958 9.98725 21.084 10.2331 20.7595 10.3077C20.3997 10.3914 20.1982 10.1848 20.0309 9.89655C19.1854 8.44438 18.9969 6.9519 19.788 5.42112C20.3906 4.25616 21.3772 3.50135 22.6188 3.16879C23.6517 2.89166 24.726 2.76771 25.7841 2.59135C26.2215 2.51779 26.672 2.51275 27.1063 2.42406C27.4782 2.34848 27.8349 2.19934 28.239 2.06934C28.3186 2.61453 28.4194 3.196 28.4859 3.78252C28.6502 5.2357 28.6522 6.68384 28.1463 8.08159C27.581 9.64159 26.6821 10.9315 25.1059 11.6238C24.8318 11.7438 24.5194 11.773 24.2372 11.8778C24.1214 11.9211 23.9601 12.0461 23.951 12.1459C23.7888 13.9054 23.6457 15.6659 23.5006 17.4265C23.4986 17.4487 23.5107 17.4718 23.5308 17.5565C25.0152 15.8806 26.8594 14.9696 29.0664 14.7902C27.9599 14.5977 26.8705 14.6169 25.7922 14.9071C25.6572 14.9434 25.5221 14.9867 25.3851 15.0119C24.9538 15.0905 24.7532 14.8809 24.8923 14.4576C25.2238 13.4519 25.9454 12.808 26.9148 12.4583C27.9982 12.0673 29.0583 12.2376 30.0066 12.8452C30.968 13.461 31.874 14.1644 32.8132 14.8366L32.8142 14.8396Z" fill="#8B00FF"/>
<path opacity="0.4" d="M12.2989 14.7914C13.359 14.0819 14.3769 13.2788 15.5025 12.6792C16.9507 11.9082 18.6105 12.2388 19.5829 13.3543C19.854 13.6657 20.0354 14.0578 20.241 14.4216C20.3599 14.6332 20.4174 14.865 20.2108 15.0675C20.0203 15.254 19.8097 15.1935 19.59 15.1149C18.7919 14.8287 17.9705 14.6513 17.119 14.6614C16.6302 14.6674 16.1425 14.7047 15.6537 14.7874C16.1707 14.8831 16.7048 14.9244 17.1986 15.0877C17.8818 15.3134 18.5601 15.5835 19.1939 15.9221C20.11 16.4119 20.2168 17.2533 19.5305 18.0535C18.4139 19.3565 16.212 19.5289 14.9201 18.3266C14.3033 17.7532 13.8266 17.0246 13.3177 16.3423C12.962 15.8657 12.6607 15.3487 12.2969 14.7904L12.2989 14.7914Z" fill="#8B00FF"/>
</g>
<defs>
<clipPath id="clip0_1439_7880">
<rect width="36" height="35.8569" fill="white" transform="translate(2 2.07227)"/>
</clipPath>
</defs>
</svg>
