<svg width="40" height="40" viewBox="0 0 40 40" fill="none" xmlns="http://www.w3.org/2000/svg">
<path opacity="0.4" d="M29.9999 3.33325H9.99992C6.31802 3.33325 3.33325 6.31802 3.33325 9.99992V29.9999C3.33325 33.6818 6.31802 36.6666 9.99992 36.6666H29.9999C33.6818 36.6666 36.6666 33.6818 36.6666 29.9999V9.99992C36.6666 6.31802 33.6818 3.33325 29.9999 3.33325Z" fill="#8B00FF"/>
<path fill-rule="evenodd" clip-rule="evenodd" d="M20.4167 11.6667C20.4167 10.9764 20.9764 10.4167 21.6667 10.4167C22.3571 10.4167 22.9167 10.9764 22.9167 11.6667V15.3156L27.4495 10.7829C27.9377 10.2947 28.7291 10.2947 29.2173 10.7829C29.7055 11.271 29.7055 12.0625 29.2173 12.5506L24.6845 17.0834H28.3334C29.0238 17.0834 29.5834 17.6431 29.5834 18.3334C29.5834 19.0238 29.0238 19.5834 28.3334 19.5834H21.6667C20.9764 19.5834 20.4167 19.0238 20.4167 18.3334V11.6667ZM11.6667 22.9167C10.9764 22.9167 10.4167 22.3571 10.4167 21.6667C10.4167 20.9764 10.9764 20.4167 11.6667 20.4167H18.3334C19.0238 20.4167 19.5834 20.9764 19.5834 21.6667V28.3334C19.5834 29.0238 19.0238 29.5834 18.3334 29.5834C17.6431 29.5834 17.0834 29.0238 17.0834 28.3334V24.6845L12.5506 29.2173C12.0625 29.7055 11.271 29.7055 10.7829 29.2173C10.2947 28.7291 10.2947 27.9377 10.7829 27.4495L15.3156 22.9167H11.6667Z" fill="#8B00FF"/>
</svg>
