<svg width="40" height="40" viewBox="0 0 40 40" fill="none" xmlns="http://www.w3.org/2000/svg">
<path opacity="0.4" d="M8.33362 8.33374C8.33362 5.57232 10.5722 3.33374 13.3336 3.33374H26.667C29.4284 3.33374 31.667 5.57232 31.667 8.33374V31.6671C31.667 34.4285 29.4284 36.6671 26.667 36.6671H13.3336C10.5722 36.6671 8.33362 34.4285 8.33362 31.6671V8.33374Z" fill="#8B00FF"/>
<path fill-rule="evenodd" clip-rule="evenodd" d="M17.0836 31.667C17.0836 30.9766 17.6433 30.417 18.3336 30.417H21.667C22.3573 30.417 22.917 30.9766 22.917 31.667C22.917 32.3573 22.3573 32.917 21.667 32.917H18.3336C17.6433 32.917 17.0836 32.3573 17.0836 31.667Z" fill="#8B00FF"/>
</svg>
