<svg width="455" height="575" fill="none" xmlns="http://www.w3.org/2000/svg"><g opacity=".3"><mask id="a" maskUnits="userSpaceOnUse" x="0" y="0" width="455" height="575"><path d="M454.169 460.539V111.104L227.999.5 0 111.104v349.435c0 5.25 4.007 10.639 12.16 14.646l185.701 92.851c16.166 8.152 42.419 8.152 58.585 0l185.702-92.851c8.014-4.007 12.021-9.258 12.021-14.646z" fill="url(#paint0_linear)"/></mask><g mask="url(#a)"><path d="M454.169 460.539V111.104L228.499 220 0 111.104v349.435c0 5.25 4.007 10.639 12.16 14.646l185.701 92.851c16.166 8.152 42.419 8.152 58.585 0l185.702-92.851c8.014-4.007 12.021-9.258 12.021-14.646z" fill="url(#paint1_linear)"/><path d="M454.169 460.539V111.104L228.499-2 0 111.104v349.435c0 5.25 4.007 10.639 12.16 14.646l185.701 92.851c16.166 8.152 42.419 8.152 58.585 0l185.702-92.851c8.014-4.007 12.021-9.258 12.021-14.646z" fill="url(#paint2_linear)"/></g></g><defs><linearGradient id="paint0_linear" x1="-60.129" y1="37.937" x2="-74.719" y2="495.145" gradientUnits="userSpaceOnUse"><stop stop-color="#D857BC"/><stop offset="1" stop-color="#D857BC" stop-opacity="0"/></linearGradient><linearGradient id="paint1_linear" x1="454.169" y1="49.098" x2="6.037" y2="42.035" gradientUnits="userSpaceOnUse"><stop stop-color="#FE6486" stop-opacity=".2"/><stop offset=".365" stop-color="#FE6486" stop-opacity=".5"/><stop offset=".479" stop-color="#FE6486" stop-opacity=".7"/><stop offset=".599" stop-color="#FE6486" stop-opacity=".5"/><stop offset="1" stop-color="#FE6486" stop-opacity=".2"/></linearGradient><linearGradient id="paint2_linear" x1="454.169" y1="49.098" x2="6.037" y2="42.035" gradientUnits="userSpaceOnUse"><stop stop-color="#FE6486" stop-opacity=".2"/><stop offset=".365" stop-color="#FE6486" stop-opacity=".5"/><stop offset=".479" stop-color="#FE6486" stop-opacity=".7"/><stop offset=".599" stop-color="#FE6486" stop-opacity=".5"/><stop offset="1" stop-color="#FE6486" stop-opacity=".2"/></linearGradient></defs></svg>