<svg width="326" height="416" fill="none" xmlns="http://www.w3.org/2000/svg"><g opacity=".3"><mask id="a" maskUnits="userSpaceOnUse" x="0" y="0" width="326" height="416"><path d="M325.77 333.811V83.165L165.499 0 0 83.165v250.646c0 3.766 2.874 7.632 8.722 10.506l133.202 66.601c11.595 5.847 30.426 5.847 42.022 0l133.202-66.601c5.748-2.874 8.622-6.64 8.622-10.506z" fill="url(#paint0_linear)"/></mask><g mask="url(#a)"><path d="M325.77 333.811V83.165L162.999 163.5 0 83.165v250.646c0 3.766 2.874 7.632 8.722 10.506l133.202 66.601c11.595 5.847 30.426 5.847 42.022 0l133.202-66.601c5.748-2.874 8.622-6.64 8.622-10.506z" fill="url(#paint1_linear)"/><path d="M325.77 333.811V83.165L163.999 3 0 83.165v250.646c0 3.766 2.874 7.632 8.722 10.506l133.202 66.601c11.595 5.847 30.426 5.847 42.022 0l133.202-66.601c5.748-2.874 8.622-6.64 8.622-10.506z" fill="url(#paint2_linear)"/></g></g><defs><linearGradient id="paint0_linear" x1="-43.13" y1="30.684" x2="-53.595" y2="358.634" gradientUnits="userSpaceOnUse"><stop stop-color="#D857BC"/><stop offset="1" stop-color="#D857BC" stop-opacity="0"/></linearGradient><linearGradient id="paint1_linear" x1="325.77" y1="38.688" x2="4.331" y2="33.622" gradientUnits="userSpaceOnUse"><stop stop-color="#825FFE" stop-opacity=".4"/><stop offset=".365" stop-color="#825FFE" stop-opacity=".7"/><stop offset=".479" stop-color="#825FFE"/><stop offset=".599" stop-color="#825FFE" stop-opacity=".7"/><stop offset="1" stop-color="#825FFE" stop-opacity=".4"/></linearGradient><linearGradient id="paint2_linear" x1="325.771" y1="38.688" x2="4.331" y2="33.622" gradientUnits="userSpaceOnUse"><stop stop-color="#825FFE" stop-opacity=".4"/><stop offset=".365" stop-color="#825FFE" stop-opacity=".7"/><stop offset=".479" stop-color="#825FFE"/><stop offset=".599" stop-color="#825FFE" stop-opacity=".7"/><stop offset="1" stop-color="#825FFE" stop-opacity=".4"/></linearGradient></defs></svg>