<svg width="412" height="524" fill="none" xmlns="http://www.w3.org/2000/svg"><g opacity=".3"><mask id="a" maskUnits="userSpaceOnUse" x="0" y="0" width="412" height="524"><path d="M411.532 420.51V104.1L207.689.383.287 104.1v316.41c0 4.754 3.629 9.633 11.01 13.262l168.151 84.075c14.639 7.382 38.41 7.382 53.048 0l168.151-84.075c7.257-3.629 10.885-8.383 10.885-13.262z" fill="url(#paint0_linear)"/></mask><g mask="url(#a)"><path d="M411.532 420.51V104.1L206.435 1.636.287 104.1v316.41c0 4.754 3.629 9.633 11.01 13.262l168.151 84.075c14.639 7.382 38.41 7.382 53.048 0l168.151-84.075c7.257-3.629 10.885-8.383 10.885-13.262z" fill="url(#paint1_linear)"/><path d="M411.532 420.51V104.1l-208.105 99.608L.287 104.1v316.41c0 4.754 3.629 9.633 11.01 13.262l168.151 84.075c14.639 7.382 38.41 7.382 53.048 0l168.151-84.075c7.257-3.629 10.885-8.383 10.885-13.262z" fill="url(#paint2_linear)"/></g></g><defs><linearGradient id="paint0_linear" x1="-54.16" y1="37.848" x2="-67.371" y2="451.845" gradientUnits="userSpaceOnUse"><stop stop-color="#D857BC"/><stop offset="1" stop-color="#D857BC" stop-opacity="0"/></linearGradient><linearGradient id="paint1_linear" x1="411.532" y1="47.952" x2="5.754" y2="41.557" gradientUnits="userSpaceOnUse"><stop stop-color="#92DA86" stop-opacity=".2"/><stop offset=".365" stop-color="#92DA86" stop-opacity=".5"/><stop offset=".479" stop-color="#92DA86" stop-opacity=".7"/><stop offset=".599" stop-color="#92DA86" stop-opacity=".51"/><stop offset="1" stop-color="#92DA86" stop-opacity=".2"/></linearGradient><linearGradient id="paint2_linear" x1="411.532" y1="47.953" x2="5.754" y2="41.557" gradientUnits="userSpaceOnUse"><stop stop-color="#92DA86" stop-opacity=".2"/><stop offset=".365" stop-color="#92DA86" stop-opacity=".5"/><stop offset=".479" stop-color="#92DA86" stop-opacity=".7"/><stop offset=".599" stop-color="#92DA86" stop-opacity=".51"/><stop offset="1" stop-color="#92DA86" stop-opacity=".2"/></linearGradient></defs></svg>