<svg xmlns="http://www.w3.org/2000/svg" viewBox="0 0 412 524" enable-background="new 0 0 412 524"><g opacity=".3"><defs><filter id="b" filterUnits="userSpaceOnUse" x=".5" y="1.6" width="411.2" height="521.7"><feColorMatrix values="1 0 0 0 0 0 1 0 0 0 0 0 1 0 0 0 0 0 1 0"/></filter></defs><mask maskUnits="userSpaceOnUse" x=".5" y="1.6" width="411.2" height="521.7" id="c"><linearGradient id="a" gradientUnits="userSpaceOnUse" x1="-55.956" y1="612.017" x2="-55.956" y2="89.017" gradientTransform="matrix(1 0 0 -1 262.1 612.4)"><stop offset="0" stop-color="#d857bc"/><stop offset="1" stop-color="#d857bc" stop-opacity="0"/></linearGradient><path d="M411.8 420.5V104.1L207.9.4.5 104.1v316.4c0 4.8 3.6 9.6 11 13.3l168.2 84.1c14.6 7.4 38.4 7.4 53 0l168.2-84.1c7.2-3.7 10.9-8.4 10.9-13.3z" fill="url(#a)" filter="url(#b)"/></mask><g mask="url(#c)"><linearGradient id="d" gradientUnits="userSpaceOnUse" x1="417.036" y1="255.186" x2="4.236" y2="269.586"><stop offset=".006" stop-color="#92da86" stop-opacity=".4"/><stop offset=".316" stop-color="#92da86" stop-opacity=".7"/><stop offset=".506" stop-color="#92da86"/><stop offset=".684" stop-color="#92da86" stop-opacity=".7"/><stop offset="1" stop-color="#92da86" stop-opacity=".4"/></linearGradient><path d="M411.8 420.5V104.1L206.7 1.6.5 104.1v316.4c0 4.8 3.6 9.6 11 13.3l168.2 84.1c14.6 7.4 38.4 7.4 53 0l168.2-84.1c7.2-3.7 10.9-8.4 10.9-13.3z" fill="url(#d)"/></g></g></svg>