<svg width="42" height="41" fill="none" xmlns="http://www.w3.org/2000/svg"><path d="M11.87 5.935c0 3.264-2.67 5.935-5.935 5.935C2.671 11.87 0 9.2 0 5.935 0 2.671 2.67 0 5.935 0 9.2 0 11.87 2.67 11.87 5.935zM35.315.099c-3.265 0-5.936 2.67-5.936 5.935 0 3.264 2.671 5.935 5.936 5.935 3.264 0 5.935-2.67 5.935-5.935C41.25 2.671 38.579.1 35.315.1zM39.27 33.039c1.583-1.484 1.583-3.858.199-5.44-1.484-1.583-3.858-1.583-5.44-.198-3.66 3.462-8.409 5.341-13.355 5.341s-9.694-1.88-13.354-5.341c-1.583-1.484-3.957-1.385-5.44.198-1.484 1.582-1.385 3.956.197 5.44 5.045 4.748 11.673 7.419 18.597 7.419 6.924 0 13.552-2.67 18.597-7.419z" fill="#fff"/></svg>