<svg width="41" height="41" fill="none" xmlns="http://www.w3.org/2000/svg"><path d="M6.924 0C3.116 0 0 3.116 0 6.924c0 3.809 3.116 6.925 6.924 6.925 3.809 0 6.925-3.116 6.925-6.925C13.849 3.001 10.733 0 6.924 0zM33.633 0c-3.809 0-6.925 3.116-6.925 6.924 0 3.809 3.116 6.925 6.925 6.925 3.808 0 6.924-3.116 6.924-6.925C40.557 3.001 37.44 0 33.633 0zM6.924 26.708C3.116 26.708 0 29.824 0 33.633c0 3.808 3.116 6.924 6.924 6.924 3.809 0 6.925-3.116 6.925-6.925 0-3.923-3.116-6.924-6.925-6.924zM33.633 26.708c-3.809 0-6.925 3.116-6.925 6.925 0 3.808 3.116 6.924 6.925 6.924 3.808 0 6.924-3.116 6.924-6.925 0-3.923-3.116-6.924-6.924-6.924z" fill="#fff"/></svg>