<svg width="232" height="358" viewBox="0 0 232 358" fill="none" xmlns="http://www.w3.org/2000/svg">
<rect width="232" height="358" rx="20" fill="#8B00FF"/>
<g clip-path="url(#clip0_982_10819)">
<path d="M92.5625 205.719C91.2687 205.719 90.2188 206.769 90.2188 208.062C90.2188 209.356 91.2687 210.406 92.5625 210.406C93.8563 210.406 94.9062 209.356 94.9062 208.062C94.9062 206.769 93.8563 205.719 92.5625 205.719Z" fill="#FFDF5A"/>
<path d="M161.502 163.531L175.314 149.72C175.895 149.139 176.129 148.296 175.931 147.498C175.734 146.701 175.133 146.065 174.348 145.823L140.715 135.442C137.683 125.697 128.672 119 118.344 119C108.743 119 100.156 124.851 96.6023 133.678L57.6459 145.825C56.8628 146.069 56.2642 146.705 56.0681 147.502C55.8719 148.298 56.1063 149.14 56.6864 149.72L70.8611 163.895L61.9211 178.795C61.5553 179.405 61.4861 180.147 61.7327 180.814C61.9792 181.481 62.5153 182 63.1898 182.224L76.1561 186.546V222.594C76.1561 223.57 76.7622 224.445 77.677 224.788C85.6052 227.761 115.063 238.809 115.221 238.865C115.686 239.029 116.21 239.051 116.72 238.886C116.727 238.883 116.734 238.882 116.741 238.88L158.928 224.817C159.885 224.498 160.531 223.602 160.531 222.594V185.581L174.359 181.236C175.141 180.99 175.737 180.354 175.933 179.558C176.128 178.762 175.893 177.922 175.314 177.342L161.502 163.531ZM141.781 142.437C141.781 141.842 141.756 141.248 141.711 140.656L169.249 149.155L157.554 160.85L138.446 154.481C140.61 150.864 141.781 146.691 141.781 142.437ZM100.608 136.337C103.21 128.771 110.337 123.687 118.344 123.687C126.969 123.687 134.45 129.522 136.535 137.875C136.906 139.359 137.094 140.894 137.094 142.437C137.094 146.791 135.649 150.871 132.915 154.239C129.335 158.655 124.023 161.187 118.344 161.187C112.204 161.187 106.445 158.174 102.937 153.124C100.75 149.982 99.5936 146.286 99.5936 142.437C99.5936 140.344 99.9346 138.292 100.608 136.337ZM62.7417 149.146L95.1557 139.039C94.9931 140.159 94.9061 141.293 94.9061 142.437C94.9061 146.211 95.8 149.866 97.5039 153.164L74.4454 160.85L62.7417 149.146ZM67.4439 178.701L74.8549 166.349L112.487 178.893L105.076 191.245C101.058 189.906 71.7344 180.131 67.4439 178.701ZM113.656 233.274L80.8436 220.97V188.109C106.66 196.669 105.399 196.407 106.118 196.407C106.924 196.407 107.696 195.99 108.128 195.269L113.656 186.056V233.274ZM116 175.123L81.2242 163.531L100.16 157.22C104.592 162.668 111.264 165.875 118.344 165.875C124.893 165.875 131.047 163.18 135.475 158.431L150.776 163.531L116 175.123ZM155.844 220.904L118.344 233.404V184.275L126.652 194.66C127.257 195.415 128.263 195.721 129.185 195.432L155.844 187.054V220.904ZM129.311 190.479L119.93 178.754L157.554 166.213L169.265 177.923L129.311 190.479Z" fill="#FFDF5A"/>
<path d="M107.45 210.919L102.238 208.964C101.026 208.51 99.6748 209.124 99.2202 210.336C98.7657 211.548 99.3798 212.899 100.592 213.353L105.804 215.308C107.019 215.763 108.368 215.146 108.822 213.936C109.276 212.725 108.662 211.373 107.45 210.919Z" fill="#FFDF5A"/>
<path d="M107.449 220.937L93.3863 215.664C92.1743 215.209 90.8234 215.823 90.3687 217.035C89.914 218.247 90.5283 219.598 91.7402 220.053L105.803 225.326C106.074 225.428 106.352 225.476 106.625 225.476C107.574 225.476 108.467 224.896 108.82 223.955C109.275 222.742 108.661 221.391 107.449 220.937Z" fill="#FFDF5A"/>
<path d="M131.72 133.749C130.805 132.834 129.321 132.834 128.406 133.749L116 146.154L112.97 143.124C112.055 142.209 110.571 142.209 109.655 143.124C108.74 144.039 108.74 145.524 109.655 146.439L114.343 151.126C115.258 152.042 116.742 152.042 117.658 151.126L131.72 137.064C132.636 136.149 132.636 134.664 131.72 133.749Z" fill="#FFDF5A"/>
</g>
<defs>
<clipPath id="clip0_982_10819">
<rect width="120" height="120" fill="white" transform="translate(56 119)"/>
</clipPath>
</defs>
</svg>
