<?xml version="1.0" encoding="utf-8"?>
<!-- Generator: Adobe Illustrator 26.3.1, SVG Export Plug-In . SVG Version: 6.00 Build 0)  -->
<svg version="1.1" id="Layer_1" xmlns="http://www.w3.org/2000/svg" xmlns:xlink="http://www.w3.org/1999/xlink" x="0px" y="0px"
	 viewBox="0 0 208 336" style="enable-background:new 0 0 208 336;" xml:space="preserve">
<style type="text/css">
	.st0{fill:#FFDF5A;}
	.st1{fill:#8B00FF;}
	.st2{fill:#FFFFFF;}
	.st3{fill:#FF5574;}
	.st4{fill:none;stroke:#FFFFFF;stroke-width:0.5288;}
	.st5{fill:#C4C4C4;filter:url(#Adobe_OpacityMaskFilter);}
	.st6{mask:url(#mask0_0_1_00000081638388199378774970000004409897951773999006_);}
	.st7{fill:none;}
	.st8{fill:url(#SVGID_1_);}
</style>
<path class="st0" d="M20,0h168c11,0,20,9,20,20v296c0,11-9,20-20,20H20c-11,0-20-9-20-20V20C0,9,9,0,20,0z"/>
<path class="st1" d="M104,94.6c-21.2,0-38.4,17.2-38.4,38.4c0,11,4.7,21.4,12.9,28.7c3.1,2.8,4.7,6.2,4.7,10.4v5.4
	c0,2.5,1.9,4.5,4.3,4.8v8.2h-1.3c-0.9,0-1.7,0.8-1.7,1.7s0.8,1.7,1.7,1.7h1.3v6.6h-1.3c-0.9,0-1.7,0.8-1.7,1.7s0.8,1.7,1.7,1.7H88
	l4.7,7.9c0.9,1.5,2.4,2.4,4.1,2.4h15.7c1.7,0,3.3-0.9,4.1-2.4l4.7-7.9h1.9c0.9,0,1.7-0.8,1.7-1.7s-0.8-1.7-1.7-1.7H122v-6.6h1.3
	c0.9,0,1.7-0.8,1.7-1.7s-0.8-1.7-1.7-1.7H122v-8.6c1.7-0.7,2.9-2.4,2.9-4.4v-5.4c0-4.1,1.6-7.6,4.7-10.4
	c8.2-7.3,12.9-17.8,12.9-28.7C142.4,111.8,125.2,94.6,104,94.6z M113.8,210.1c-0.3,0.5-0.7,0.7-1.2,0.7H96.8c-0.5,0-1-0.2-1.2-0.7
	l-3.7-6.2h25.5L113.8,210.1z M118.6,200.5H90.8v-6.6h27.8V200.5z M90.8,190.5v-8.2h27.8v8.2H90.8z M127.3,159.2
	c-3.8,3.4-5.8,7.8-5.8,12.9v5.4c0,0.8-0.6,1.4-1.4,1.4H87.9c-0.8,0-1.4-0.6-1.4-1.4v-5.4c0-5.1-2-9.5-5.8-12.9
	c-7.5-6.7-11.8-16.2-11.8-26.2C68.9,113.7,84.7,98,104,98s35.1,15.7,35.1,35.1C139.1,143,134.8,152.6,127.3,159.2z M102.3,86.9v-9.4
	c0-0.9,0.8-1.7,1.7-1.7s1.7,0.8,1.7,1.7v9.4c0,0.9-0.8,1.7-1.7,1.7S102.3,87.8,102.3,86.9z M125.6,92.2l4.7-8.1
	c0.5-0.8,1.5-1.1,2.3-0.6c0.8,0.5,1.1,1.5,0.6,2.3l-4.7,8.1c-0.3,0.5-0.9,0.8-1.5,0.8c-0.3,0-0.6-0.1-0.8-0.2
	C125.4,94,125.2,93,125.6,92.2z M142.5,110.8c-0.5-0.8-0.2-1.8,0.6-2.3l8.1-4.7c0.8-0.5,1.8-0.2,2.3,0.6c0.5,0.8,0.2,1.8-0.6,2.3
	l-8.1,4.7c-0.3,0.2-0.6,0.2-0.8,0.2C143.4,111.6,142.8,111.3,142.5,110.8z M161.2,133c0,0.9-0.8,1.7-1.7,1.7h-9.4
	c-0.9,0-1.7-0.8-1.7-1.7s0.8-1.7,1.7-1.7h9.4C160.5,131.3,161.2,132.1,161.2,133z M153.5,161.6c-0.3,0.5-0.9,0.8-1.5,0.8
	c-0.3,0-0.6-0.1-0.8-0.2l-8.1-4.7c-0.8-0.5-1.1-1.5-0.6-2.3c0.5-0.8,1.5-1.1,2.3-0.6l8.1,4.7C153.7,159.8,154,160.8,153.5,161.6z
	 M74.8,85.8c-0.5-0.8-0.2-1.8,0.6-2.3c0.8-0.5,1.8-0.2,2.3,0.6l4.7,8.1c0.5,0.8,0.2,1.8-0.6,2.3c-0.3,0.2-0.6,0.2-0.8,0.2
	c-0.6,0-1.2-0.3-1.5-0.8L74.8,85.8z M54.5,104.4c0.5-0.8,1.5-1.1,2.3-0.6l8.1,4.7c0.8,0.5,1.1,1.5,0.6,2.3c-0.3,0.5-0.9,0.8-1.5,0.8
	c-0.3,0-0.6-0.1-0.8-0.2l-8.1-4.7C54.3,106.3,54,105.2,54.5,104.4z M57.8,134.7h-9.4c-0.9,0-1.7-0.8-1.7-1.7s0.8-1.7,1.7-1.7h9.4
	c0.9,0,1.7,0.8,1.7,1.7S58.8,134.7,57.8,134.7z M65.5,155.3c0.5,0.8,0.2,1.8-0.6,2.3l-8.1,4.7c-0.3,0.2-0.6,0.2-0.8,0.2
	c-0.6,0-1.2-0.3-1.5-0.8c-0.5-0.8-0.2-1.8,0.6-2.3l8.1-4.7C64,154.2,65,154.4,65.5,155.3z M127.5,125.6l-3.3-0.2
	c-0.4-1.4-1-2.7-1.6-4l2.2-2.4c1.1-1.2,1-3-0.1-4.2l-4.1-4.1c-1.1-1.1-3-1.2-4.2-0.1l-2.4,2.2c-1.3-0.7-2.6-1.2-4-1.6l-0.2-3.3
	c-0.1-1.6-1.4-2.9-3-2.9h-5.8c-1.6,0-2.9,1.3-3,2.9l-0.2,3.3c-1.4,0.4-2.7,1-4,1.6l-2.4-2.2c-1.2-1.1-3-1-4.2,0.1l-4.1,4.1
	c-1.1,1.1-1.2,3-0.1,4.2l2.2,2.4c-0.7,1.3-1.2,2.6-1.6,4l-3.3,0.2c-1.6,0.1-2.9,1.4-2.9,3v5.8c0,1.6,1.3,2.9,2.9,3l3.3,0.2
	c0.4,1.4,1,2.7,1.6,4l-2.2,2.4c-1.1,1.2-1,3,0.1,4.2l4.1,4.1c1.1,1.1,3,1.2,4.2,0.1l2.4-2.2c1.3,0.7,2.6,1.2,4,1.6l0.2,3.3
	c0.1,1.6,1.4,2.9,3,2.9h5.8c1.6,0,2.9-1.3,3-2.9l0.2-3.3c1.4-0.4,2.7-1,4-1.6l2.4,2.2c1.2,1.1,3,1,4.2-0.1l4.1-4.1
	c1.1-1.1,1.2-3,0.1-4.2l-2.2-2.4c0.7-1.3,1.2-2.6,1.6-4l3.3-0.2c1.6-0.1,2.9-1.4,2.9-3v-5.8C130.4,127,129.1,125.7,127.5,125.6z
	 M127,134.1l-3.2,0.1c-1.3,0.1-2.4,0.9-2.8,2.2c-0.4,1.3-0.9,2.5-1.5,3.7c-0.6,1.1-0.5,2.5,0.4,3.5l2.1,2.3l-3.6,3.6l-2.3-2.1
	c-1-0.9-2.4-1-3.5-0.4c-1.2,0.7-2.4,1.2-3.7,1.5c-1.2,0.4-2.1,1.5-2.2,2.8l-0.1,3.2h-5.1l-0.1-3.2c-0.1-1.3-0.9-2.4-2.2-2.8
	c-1.3-0.4-2.5-0.9-3.7-1.5c-1.1-0.6-2.5-0.5-3.5,0.4l-2.3,2.1l-3.6-3.6l2.1-2.3c0.9-1,1-2.4,0.4-3.5c-0.7-1.2-1.2-2.4-1.5-3.7
	c-0.4-1.2-1.5-2.1-2.8-2.2l-3.2-0.1V129l3.2-0.1c1.3-0.1,2.4-0.9,2.8-2.2c0.4-1.3,0.9-2.5,1.5-3.7c0.6-1.1,0.5-2.5-0.4-3.5l-2.1-2.3
	l3.6-3.6l2.3,2.1c1,0.9,2.4,1,3.5,0.4c1.2-0.7,2.4-1.2,3.7-1.5c1.2-0.4,2.1-1.5,2.2-2.8l0.1-3.2h5.1l0.1,3.2
	c0.1,1.3,0.9,2.4,2.2,2.8c1.3,0.4,2.5,0.9,3.7,1.5c1.1,0.6,2.5,0.5,3.5-0.4l2.3-2.1l3.6,3.6l-2.1,2.3c-0.9,1-1,2.4-0.4,3.5
	c0.7,1.2,1.2,2.4,1.5,3.7c0.4,1.2,1.5,2.1,2.8,2.2l3.2,0.1V134.1z M104,118.9c-7,0-12.7,5.7-12.7,12.7c0,7,5.7,12.7,12.7,12.7
	c7,0,12.7-5.7,12.7-12.7C116.7,124.6,111,118.9,104,118.9z M104,140.8c-5.1,0-9.3-4.2-9.3-9.3c0-5.1,4.2-9.3,9.3-9.3
	c5.1,0,9.3,4.2,9.3,9.3C113.3,136.7,109.1,140.8,104,140.8z"/>
<g>
	<path class="st2" d="M33.1,282.9h141.2c13.3,0,24.1,10.8,24.1,24.1l0,0c0,13.3-10.8,24.1-24.1,24.1H33.1C19.8,331,9,320.2,9,306.9
		l0,0C9,293.6,19.8,282.9,33.1,282.9z"/>
</g>
<g>
	<circle class="st3" cx="34.4" cy="306.7" r="17.5"/>
	
		<ellipse transform="matrix(7.088905e-02 -0.9975 0.9975 7.088905e-02 -273.9549 319.2307)" class="st4" cx="34.4" cy="306.7" rx="17.7" ry="17.7"/>
</g>
<defs>
	<filter id="Adobe_OpacityMaskFilter" filterUnits="userSpaceOnUse" x="-10" y="285" width="89.4" height="64">
		<feColorMatrix  type="matrix" values="1 0 0 0 0  0 1 0 0 0  0 0 1 0 0  0 0 0 1 0"/>
	</filter>
</defs>
<mask maskUnits="userSpaceOnUse" x="-10" y="285" width="89.4" height="64" id="mask0_0_1_00000081638388199378774970000004409897951773999006_">
	<circle class="st5" cx="34.4" cy="306.7" r="17.5"/>
</mask>
<g class="st6">
	<rect x="-10" y="289.8" class="st7" width="89.4" height="59.2"/>
	<path class="st1" d="M22.4,285h24.2c3.2,0,5.7,2.6,5.7,5.7v28.6c0,3.2-2.6,5.7-5.7,5.7H22.4c-3.2,0-5.7-2.6-5.7-5.7v-28.6
		C16.7,287.6,19.3,285,22.4,285z"/>
	<path class="st0" d="M42.1,296.9H40v20h-3.3v-6.6H30v6.6h-3.3v-16.7H30v6.7h6.7v-10h-2.1l3.8-3.8L42.1,296.9z"/>
</g>
<path d="M66.8,295.7v1.3H65v5.4h-1.6V297h-1.8v-1.3H66.8z M70.8,297c0.6,0,1.1,0.2,1.5,0.6c0.4,0.4,0.6,1,0.6,1.7v3.1h-1.6v-2.9
	c0-0.4-0.1-0.6-0.3-0.8c-0.2-0.2-0.4-0.3-0.7-0.3c-0.3,0-0.6,0.1-0.7,0.3c-0.2,0.2-0.3,0.5-0.3,0.8v2.9h-1.6v-7h1.6v2.4
	c0.2-0.2,0.4-0.4,0.7-0.6C70.2,297.1,70.5,297,70.8,297z M79,299.7c0,0.2,0,0.3,0,0.5h-3.7c0,0.3,0.1,0.6,0.3,0.8
	c0.2,0.2,0.4,0.3,0.7,0.3c0.4,0,0.7-0.2,0.8-0.5h1.7c-0.1,0.4-0.3,0.7-0.5,0.9c-0.2,0.3-0.5,0.5-0.9,0.7c-0.3,0.2-0.7,0.2-1.2,0.2
	c-0.5,0-1-0.1-1.4-0.3c-0.4-0.2-0.7-0.5-1-1c-0.2-0.4-0.3-0.9-0.3-1.4c0-0.6,0.1-1,0.3-1.4c0.2-0.4,0.5-0.7,1-1
	c0.4-0.2,0.9-0.3,1.4-0.3c0.5,0,1,0.1,1.4,0.3c0.4,0.2,0.7,0.5,0.9,0.9C78.9,298.7,79,299.1,79,299.7z M77.3,299.2
	c0-0.3-0.1-0.5-0.3-0.7c-0.2-0.2-0.4-0.2-0.7-0.2c-0.3,0-0.5,0.1-0.7,0.2c-0.2,0.2-0.3,0.4-0.3,0.7H77.3z M83.5,298
	c0.2-0.3,0.4-0.5,0.7-0.7c0.3-0.2,0.6-0.3,1-0.3v1.7h-0.4c-0.4,0-0.7,0.1-0.9,0.3c-0.2,0.2-0.3,0.5-0.3,0.9v2.5h-1.6v-5.3h1.6V298z
	 M86.8,296.5c-0.3,0-0.5-0.1-0.7-0.2c-0.2-0.2-0.3-0.4-0.3-0.6c0-0.3,0.1-0.5,0.3-0.6c0.2-0.2,0.4-0.3,0.7-0.3
	c0.3,0,0.5,0.1,0.7,0.3c0.2,0.2,0.3,0.4,0.3,0.6c0,0.2-0.1,0.5-0.3,0.6C87.3,296.4,87,296.5,86.8,296.5z M87.6,297.1v5.3h-1.6v-5.3
	H87.6z M90.9,302.5c-0.5,0-0.9-0.1-1.2-0.2c-0.4-0.2-0.6-0.4-0.9-0.6c-0.2-0.3-0.3-0.6-0.4-0.9h1.6c0,0.2,0.1,0.3,0.3,0.4
	c0.2,0.1,0.3,0.2,0.6,0.2c0.2,0,0.4,0,0.5-0.1c0.1-0.1,0.2-0.2,0.2-0.3c0-0.2-0.1-0.3-0.2-0.3c-0.2-0.1-0.4-0.2-0.8-0.2
	c-0.4-0.1-0.7-0.2-1-0.3c-0.3-0.1-0.5-0.3-0.7-0.5c-0.2-0.2-0.3-0.5-0.3-0.9c0-0.3,0.1-0.6,0.2-0.8c0.2-0.3,0.4-0.5,0.7-0.6
	c0.3-0.1,0.7-0.2,1.2-0.2c0.7,0,1.2,0.2,1.6,0.5c0.4,0.3,0.6,0.8,0.7,1.3h-1.5c0-0.2-0.1-0.3-0.2-0.4c-0.1-0.1-0.3-0.2-0.5-0.2
	c-0.2,0-0.3,0-0.4,0.1c-0.1,0.1-0.2,0.2-0.2,0.3c0,0.2,0.1,0.3,0.2,0.3c0.2,0.1,0.4,0.2,0.8,0.2c0.4,0.1,0.7,0.2,1,0.3
	c0.2,0.1,0.5,0.3,0.6,0.5c0.2,0.2,0.3,0.5,0.3,0.9c0,0.3-0.1,0.6-0.3,0.8c-0.2,0.2-0.4,0.4-0.8,0.6
	C91.7,302.4,91.3,302.5,90.9,302.5z M99.1,299.7c0,0.2,0,0.3,0,0.5h-3.7c0,0.3,0.1,0.6,0.3,0.8c0.2,0.2,0.4,0.3,0.7,0.3
	c0.4,0,0.7-0.2,0.8-0.5h1.7c-0.1,0.4-0.3,0.7-0.5,0.9c-0.2,0.3-0.5,0.5-0.9,0.7c-0.3,0.2-0.7,0.2-1.2,0.2c-0.5,0-1-0.1-1.4-0.3
	c-0.4-0.2-0.7-0.5-1-1c-0.2-0.4-0.3-0.9-0.3-1.4c0-0.6,0.1-1,0.3-1.4c0.2-0.4,0.5-0.7,1-1c0.4-0.2,0.9-0.3,1.4-0.3
	c0.5,0,1,0.1,1.4,0.3c0.4,0.2,0.7,0.5,0.9,0.9C98.9,298.7,99.1,299.1,99.1,299.7z M97.4,299.2c0-0.3-0.1-0.5-0.3-0.7
	c-0.2-0.2-0.4-0.2-0.7-0.2c-0.3,0-0.5,0.1-0.7,0.2c-0.2,0.2-0.3,0.4-0.3,0.7H97.4z M104.4,302.5c-0.5,0-0.9-0.1-1.3-0.3
	c-0.4-0.2-0.7-0.5-0.9-0.9c-0.2-0.4-0.3-0.9-0.3-1.4c0-0.5,0.1-1,0.3-1.4c0.2-0.4,0.6-0.7,1-0.9c0.4-0.2,0.8-0.3,1.3-0.3
	c0.5,0,0.9,0.1,1.3,0.3c0.4,0.2,0.7,0.5,0.9,0.9c0.2,0.4,0.4,0.9,0.4,1.4c0,0.5-0.1,1-0.4,1.4c-0.2,0.4-0.6,0.7-1,0.9
	C105.3,302.4,104.9,302.5,104.4,302.5z M104.4,301.7c0.3,0,0.6-0.1,0.9-0.2c0.3-0.1,0.5-0.4,0.7-0.7c0.2-0.3,0.3-0.6,0.3-1.1
	s-0.1-0.8-0.2-1.1c-0.2-0.3-0.4-0.5-0.6-0.6c-0.3-0.1-0.6-0.2-0.9-0.2c-0.3,0-0.6,0.1-0.9,0.2c-0.3,0.1-0.5,0.4-0.6,0.6
	c-0.2,0.3-0.2,0.6-0.2,1.1c0,0.4,0.1,0.8,0.2,1.1c0.2,0.3,0.4,0.5,0.6,0.7C103.8,301.6,104,301.7,104.4,301.7z M110.3,297.9h-1.1
	v4.5h-0.9v-4.5h-0.7v-0.7h0.7v-0.4c0-0.6,0.1-1,0.4-1.3c0.3-0.3,0.8-0.4,1.5-0.4v0.7c-0.4,0-0.6,0.1-0.8,0.2
	c-0.2,0.1-0.2,0.4-0.2,0.7v0.4h1.1V297.9z M118.3,297.2l-3.1,7.7h-0.9l1-2.5l-2.1-5.2h1l1.6,4.2l1.6-4.2H118.3z M121.5,302.5
	c-0.5,0-0.9-0.1-1.3-0.3c-0.4-0.2-0.7-0.5-0.9-0.9c-0.2-0.4-0.3-0.9-0.3-1.4c0-0.5,0.1-1,0.3-1.4c0.2-0.4,0.6-0.7,1-0.9
	c0.4-0.2,0.8-0.3,1.3-0.3s0.9,0.1,1.3,0.3c0.4,0.2,0.7,0.5,0.9,0.9c0.2,0.4,0.4,0.9,0.4,1.4c0,0.5-0.1,1-0.4,1.4
	c-0.2,0.4-0.6,0.7-1,0.9C122.4,302.4,122,302.5,121.5,302.5z M121.5,301.7c0.3,0,0.6-0.1,0.9-0.2c0.3-0.1,0.5-0.4,0.7-0.7
	c0.2-0.3,0.3-0.6,0.3-1.1s-0.1-0.8-0.2-1.1c-0.2-0.3-0.4-0.5-0.6-0.6c-0.3-0.1-0.6-0.2-0.9-0.2c-0.3,0-0.6,0.1-0.9,0.2
	c-0.3,0.1-0.5,0.4-0.6,0.6c-0.2,0.3-0.2,0.6-0.2,1.1c0,0.4,0.1,0.8,0.2,1.1c0.2,0.3,0.4,0.5,0.6,0.7
	C120.9,301.6,121.2,301.7,121.5,301.7z M129.9,297.2v5.2h-0.9v-0.8c-0.2,0.3-0.4,0.5-0.7,0.6c-0.3,0.1-0.6,0.2-1,0.2
	c-0.4,0-0.8-0.1-1.1-0.2c-0.3-0.2-0.6-0.4-0.8-0.8c-0.2-0.3-0.3-0.7-0.3-1.2v-3.1h0.9v2.9c0,0.5,0.1,0.9,0.4,1.2
	c0.3,0.3,0.6,0.4,1.1,0.4c0.5,0,0.8-0.1,1.1-0.4c0.3-0.3,0.4-0.7,0.4-1.2v-2.9H129.9z M132.2,298c0.2-0.3,0.4-0.5,0.6-0.7
	c0.3-0.2,0.6-0.2,1-0.2v0.9h-0.2c-1,0-1.5,0.5-1.5,1.6v2.8h-0.9v-5.2h0.9V298z M66.8,313.6c0,0.2,0,0.3,0,0.5h-4.2
	c0,0.5,0.2,0.9,0.5,1.2c0.3,0.3,0.7,0.4,1.2,0.4c0.4,0,0.7-0.1,0.9-0.3c0.3-0.2,0.4-0.4,0.5-0.7h0.9c-0.1,0.5-0.4,0.9-0.8,1.2
	c-0.4,0.3-0.9,0.5-1.6,0.5c-0.5,0-0.9-0.1-1.3-0.3c-0.4-0.2-0.7-0.5-0.9-0.9c-0.2-0.4-0.3-0.9-0.3-1.4c0-0.5,0.1-1,0.3-1.4
	c0.2-0.4,0.5-0.7,0.9-0.9c0.4-0.2,0.8-0.3,1.4-0.3c0.5,0,0.9,0.1,1.3,0.3c0.4,0.2,0.7,0.5,0.9,0.9C66.7,312.7,66.8,313.1,66.8,313.6
	z M66,313.4c0-0.3-0.1-0.6-0.2-0.8c-0.1-0.2-0.3-0.4-0.6-0.5c-0.2-0.1-0.5-0.2-0.8-0.2c-0.4,0-0.8,0.1-1.1,0.4
	c-0.3,0.3-0.5,0.7-0.5,1.2H66z M71.6,312.5v0.7h-3.8v-0.7H71.6z M72.9,313.8c0-0.5,0.1-1,0.3-1.4c0.2-0.4,0.5-0.7,0.9-0.9
	c0.4-0.2,0.8-0.3,1.3-0.3c0.6,0,1.2,0.2,1.6,0.5c0.4,0.3,0.7,0.7,0.8,1.3h-0.9c-0.1-0.3-0.3-0.6-0.5-0.8c-0.3-0.2-0.6-0.3-1-0.3
	c-0.5,0-0.9,0.2-1.2,0.5c-0.3,0.3-0.5,0.8-0.5,1.4c0,0.6,0.2,1.1,0.5,1.5c0.3,0.3,0.7,0.5,1.2,0.5c0.4,0,0.7-0.1,1-0.3
	c0.3-0.2,0.4-0.4,0.5-0.8h0.9c-0.1,0.5-0.4,1-0.8,1.3c-0.4,0.3-0.9,0.5-1.6,0.5c-0.5,0-0.9-0.1-1.3-0.3c-0.4-0.2-0.7-0.5-0.9-0.9
	C73,314.8,72.9,314.3,72.9,313.8z M81.3,316.5c-0.5,0-0.9-0.1-1.3-0.3c-0.4-0.2-0.7-0.5-0.9-0.9c-0.2-0.4-0.3-0.9-0.3-1.4
	c0-0.5,0.1-1,0.3-1.4c0.2-0.4,0.6-0.7,1-0.9c0.4-0.2,0.8-0.3,1.3-0.3s0.9,0.1,1.3,0.3c0.4,0.2,0.7,0.5,0.9,0.9
	c0.2,0.4,0.4,0.9,0.4,1.4c0,0.5-0.1,1-0.4,1.4c-0.2,0.4-0.6,0.7-1,0.9C82.2,316.4,81.8,316.5,81.3,316.5z M81.3,315.7
	c0.3,0,0.6-0.1,0.9-0.2c0.3-0.1,0.5-0.4,0.7-0.7c0.2-0.3,0.3-0.6,0.3-1.1s-0.1-0.8-0.2-1.1s-0.4-0.5-0.6-0.6
	c-0.3-0.1-0.6-0.2-0.9-0.2c-0.3,0-0.6,0.1-0.9,0.2c-0.3,0.1-0.5,0.4-0.6,0.6c-0.2,0.3-0.2,0.6-0.2,1.1c0,0.4,0.1,0.8,0.2,1.1
	c0.2,0.3,0.4,0.5,0.6,0.7C80.7,315.6,81,315.7,81.3,315.7z M91.4,311.1c0.4,0,0.8,0.1,1.1,0.3c0.3,0.2,0.6,0.4,0.8,0.8
	c0.2,0.3,0.3,0.7,0.3,1.2v3.1h-0.9v-3c0-0.5-0.1-0.9-0.4-1.2c-0.3-0.3-0.6-0.4-1-0.4c-0.4,0-0.8,0.1-1.1,0.4
	c-0.3,0.3-0.4,0.7-0.4,1.2v2.9h-0.9v-3c0-0.5-0.1-0.9-0.4-1.2c-0.3-0.3-0.6-0.4-1-0.4c-0.5,0-0.8,0.1-1.1,0.4
	c-0.3,0.3-0.4,0.7-0.4,1.2v2.9h-0.9v-5.2H86v0.8c0.2-0.3,0.4-0.5,0.7-0.6c0.3-0.1,0.6-0.2,1-0.2c0.4,0,0.8,0.1,1.2,0.3
	c0.3,0.2,0.6,0.5,0.8,0.9c0.1-0.4,0.4-0.7,0.7-0.9C90.6,311.2,91,311.1,91.4,311.1z M101.2,311.1c0.4,0,0.8,0.1,1.1,0.3
	c0.3,0.2,0.6,0.4,0.8,0.8c0.2,0.3,0.3,0.7,0.3,1.2v3.1h-0.9v-3c0-0.5-0.1-0.9-0.4-1.2c-0.3-0.3-0.6-0.4-1-0.4
	c-0.5,0-0.8,0.1-1.1,0.4c-0.3,0.3-0.4,0.7-0.4,1.2v2.9h-0.9v-3c0-0.5-0.1-0.9-0.4-1.2c-0.3-0.3-0.6-0.4-1-0.4
	c-0.5,0-0.8,0.1-1.1,0.4c-0.3,0.3-0.4,0.7-0.4,1.2v2.9h-0.9v-5.2h0.9v0.8c0.2-0.3,0.4-0.5,0.7-0.6c0.3-0.1,0.6-0.2,1-0.2
	c0.4,0,0.8,0.1,1.2,0.3c0.3,0.2,0.6,0.5,0.8,0.9c0.1-0.4,0.4-0.7,0.7-0.9S100.8,311.1,101.2,311.1z M109.5,313.6c0,0.2,0,0.3,0,0.5
	h-4.2c0,0.5,0.2,0.9,0.5,1.2c0.3,0.3,0.7,0.4,1.2,0.4c0.4,0,0.7-0.1,0.9-0.3c0.3-0.2,0.4-0.4,0.5-0.7h0.9c-0.1,0.5-0.4,0.9-0.8,1.2
	c-0.4,0.3-0.9,0.5-1.6,0.5c-0.5,0-0.9-0.1-1.3-0.3c-0.4-0.2-0.7-0.5-0.9-0.9c-0.2-0.4-0.3-0.9-0.3-1.4c0-0.5,0.1-1,0.3-1.4
	c0.2-0.4,0.5-0.7,0.9-0.9c0.4-0.2,0.8-0.3,1.4-0.3c0.5,0,0.9,0.1,1.3,0.3c0.4,0.2,0.7,0.5,0.9,0.9
	C109.4,312.7,109.5,313.1,109.5,313.6z M108.6,313.4c0-0.3-0.1-0.6-0.2-0.8c-0.1-0.2-0.3-0.4-0.6-0.5c-0.2-0.1-0.5-0.2-0.8-0.2
	c-0.4,0-0.8,0.1-1.1,0.4c-0.3,0.3-0.5,0.7-0.5,1.2H108.6z M111.5,312c0.2-0.3,0.4-0.5,0.6-0.7c0.3-0.2,0.6-0.2,1-0.2v0.9h-0.2
	c-1,0-1.5,0.5-1.5,1.6v2.8h-0.9v-5.2h0.9V312z M113.9,313.8c0-0.5,0.1-1,0.3-1.4c0.2-0.4,0.5-0.7,0.9-0.9c0.4-0.2,0.8-0.3,1.3-0.3
	c0.6,0,1.2,0.2,1.6,0.5c0.4,0.3,0.7,0.7,0.8,1.3h-0.9c-0.1-0.3-0.3-0.6-0.5-0.8c-0.3-0.2-0.6-0.3-1-0.3c-0.5,0-0.9,0.2-1.2,0.5
	c-0.3,0.3-0.5,0.8-0.5,1.4c0,0.6,0.2,1.1,0.5,1.5c0.3,0.3,0.7,0.5,1.2,0.5c0.4,0,0.7-0.1,1-0.3c0.3-0.2,0.4-0.4,0.5-0.8h0.9
	c-0.1,0.5-0.4,1-0.8,1.3c-0.4,0.3-0.9,0.5-1.6,0.5c-0.5,0-0.9-0.1-1.3-0.3c-0.4-0.2-0.7-0.5-0.9-0.9
	C114,314.8,113.9,314.3,113.9,313.8z M124.7,313.6c0,0.2,0,0.3,0,0.5h-4.2c0,0.5,0.2,0.9,0.5,1.2c0.3,0.3,0.7,0.4,1.2,0.4
	c0.4,0,0.7-0.1,0.9-0.3c0.3-0.2,0.4-0.4,0.5-0.7h0.9c-0.1,0.5-0.4,0.9-0.8,1.2c-0.4,0.3-0.9,0.5-1.6,0.5c-0.5,0-0.9-0.1-1.3-0.3
	c-0.4-0.2-0.7-0.5-0.9-0.9c-0.2-0.4-0.3-0.9-0.3-1.4c0-0.5,0.1-1,0.3-1.4c0.2-0.4,0.5-0.7,0.9-0.9c0.4-0.2,0.8-0.3,1.4-0.3
	c0.5,0,0.9,0.1,1.3,0.3c0.4,0.2,0.7,0.5,0.9,0.9C124.6,312.7,124.7,313.1,124.7,313.6z M123.8,313.4c0-0.3-0.1-0.6-0.2-0.8
	c-0.1-0.2-0.3-0.4-0.6-0.5c-0.2-0.1-0.5-0.2-0.8-0.2c-0.4,0-0.8,0.1-1.1,0.4c-0.3,0.3-0.5,0.7-0.5,1.2H123.8z M129.9,316.5
	c-0.5,0-0.9-0.1-1.2-0.2c-0.4-0.2-0.6-0.4-0.9-0.6c-0.2-0.3-0.3-0.6-0.4-0.9h1.6c0,0.2,0.1,0.3,0.3,0.4c0.2,0.1,0.3,0.2,0.6,0.2
	c0.2,0,0.4,0,0.5-0.1c0.1-0.1,0.2-0.2,0.2-0.3c0-0.2-0.1-0.3-0.2-0.3c-0.2-0.1-0.4-0.2-0.8-0.2c-0.4-0.1-0.7-0.2-1-0.3
	c-0.3-0.1-0.5-0.3-0.7-0.5c-0.2-0.2-0.3-0.5-0.3-0.9c0-0.3,0.1-0.6,0.2-0.8c0.2-0.3,0.4-0.5,0.7-0.6c0.3-0.1,0.7-0.2,1.2-0.2
	c0.7,0,1.2,0.2,1.6,0.5c0.4,0.3,0.6,0.8,0.7,1.3h-1.5c0-0.2-0.1-0.3-0.2-0.4c-0.1-0.1-0.3-0.2-0.5-0.2c-0.2,0-0.3,0-0.4,0.1
	c-0.1,0.1-0.2,0.2-0.2,0.3c0,0.2,0.1,0.3,0.2,0.3c0.2,0.1,0.4,0.2,0.8,0.2c0.4,0.1,0.7,0.2,1,0.3c0.2,0.1,0.5,0.3,0.6,0.5
	c0.2,0.2,0.3,0.5,0.3,0.9c0,0.3-0.1,0.6-0.3,0.8c-0.2,0.2-0.4,0.4-0.8,0.6C130.7,316.4,130.3,316.5,129.9,316.5z M136,315v1.4h-0.8
	c-0.6,0-1.1-0.1-1.4-0.4c-0.3-0.3-0.5-0.8-0.5-1.4v-2.1h-0.6v-1.4h0.6v-1.3h1.6v1.3h1.1v1.4h-1.1v2.1c0,0.2,0,0.3,0.1,0.3
	c0.1,0.1,0.2,0.1,0.4,0.1H136z M136.6,313.7c0-0.5,0.1-1,0.3-1.4c0.2-0.4,0.5-0.7,0.8-1c0.4-0.2,0.8-0.3,1.2-0.3
	c0.4,0,0.7,0.1,1,0.2c0.3,0.2,0.5,0.4,0.7,0.6v-0.8h1.6v5.3h-1.6v-0.8c-0.2,0.2-0.4,0.4-0.7,0.6c-0.3,0.2-0.6,0.2-1,0.2
	c-0.4,0-0.8-0.1-1.2-0.3c-0.4-0.2-0.6-0.5-0.8-1C136.7,314.8,136.6,314.3,136.6,313.7z M140.6,313.7c0-0.4-0.1-0.7-0.3-1
	c-0.2-0.2-0.5-0.4-0.8-0.4c-0.3,0-0.6,0.1-0.8,0.4c-0.2,0.2-0.3,0.5-0.3,1s0.1,0.7,0.3,1c0.2,0.2,0.5,0.4,0.8,0.4
	c0.3,0,0.6-0.1,0.8-0.4C140.5,314.5,140.6,314.1,140.6,313.7z M145,312c0.2-0.3,0.4-0.5,0.7-0.7c0.3-0.2,0.6-0.3,1-0.3v1.7h-0.4
	c-0.4,0-0.7,0.1-0.9,0.3c-0.2,0.2-0.3,0.5-0.3,0.9v2.5h-1.6v-5.3h1.6V312z M150.4,315v1.4h-0.8c-0.6,0-1.1-0.1-1.4-0.4
	c-0.3-0.3-0.5-0.8-0.5-1.4v-2.1h-0.6v-1.4h0.6v-1.3h1.6v1.3h1.1v1.4h-1.1v2.1c0,0.2,0,0.3,0.1,0.3c0.1,0.1,0.2,0.1,0.4,0.1H150.4z
	 M153.5,316.5c-0.5,0-0.9-0.1-1.2-0.2c-0.4-0.2-0.6-0.4-0.9-0.6c-0.2-0.3-0.3-0.6-0.4-0.9h1.6c0,0.2,0.1,0.3,0.3,0.4
	c0.2,0.1,0.3,0.2,0.6,0.2c0.2,0,0.4,0,0.5-0.1c0.1-0.1,0.2-0.2,0.2-0.3c0-0.2-0.1-0.3-0.2-0.3c-0.2-0.1-0.4-0.2-0.8-0.2
	c-0.4-0.1-0.7-0.2-1-0.3c-0.3-0.1-0.5-0.3-0.7-0.5c-0.2-0.2-0.3-0.5-0.3-0.9c0-0.3,0.1-0.6,0.2-0.8c0.2-0.3,0.4-0.5,0.7-0.6
	c0.3-0.1,0.7-0.2,1.2-0.2c0.7,0,1.2,0.2,1.6,0.5c0.4,0.3,0.6,0.8,0.7,1.3h-1.5c0-0.2-0.1-0.3-0.2-0.4c-0.1-0.1-0.3-0.2-0.5-0.2
	c-0.2,0-0.3,0-0.4,0.1c-0.1,0.1-0.2,0.2-0.2,0.3c0,0.2,0.1,0.3,0.2,0.3c0.2,0.1,0.4,0.2,0.8,0.2c0.4,0.1,0.7,0.2,1,0.3
	c0.2,0.1,0.5,0.3,0.6,0.5c0.2,0.2,0.3,0.5,0.3,0.9c0,0.3-0.1,0.6-0.3,0.8c-0.2,0.2-0.4,0.4-0.8,0.6
	C154.3,316.4,153.9,316.5,153.5,316.5z M161.9,311c0.6,0,1.1,0.2,1.5,0.6c0.4,0.4,0.6,1,0.6,1.7v3.1h-1.6v-2.9
	c0-0.4-0.1-0.6-0.3-0.8c-0.2-0.2-0.4-0.3-0.7-0.3c-0.3,0-0.6,0.1-0.7,0.3c-0.2,0.2-0.3,0.5-0.3,0.8v2.9h-1.6v-7h1.6v2.4
	c0.2-0.2,0.4-0.4,0.7-0.6C161.2,311.1,161.5,311,161.9,311z M170.1,313.7c0,0.2,0,0.3,0,0.5h-3.7c0,0.3,0.1,0.6,0.3,0.8
	c0.2,0.2,0.4,0.3,0.7,0.3c0.4,0,0.7-0.2,0.8-0.5h1.7c-0.1,0.4-0.2,0.7-0.5,0.9c-0.2,0.3-0.5,0.5-0.9,0.7c-0.3,0.2-0.7,0.2-1.2,0.2
	c-0.5,0-1-0.1-1.4-0.3c-0.4-0.2-0.7-0.5-1-1c-0.2-0.4-0.3-0.9-0.3-1.4c0-0.6,0.1-1,0.3-1.4c0.2-0.4,0.5-0.7,1-1
	c0.4-0.2,0.9-0.3,1.4-0.3c0.5,0,1,0.1,1.4,0.3c0.4,0.2,0.7,0.5,0.9,0.9C169.9,312.7,170.1,313.1,170.1,313.7z M168.4,313.2
	c0-0.3-0.1-0.5-0.3-0.7c-0.2-0.2-0.4-0.2-0.7-0.2c-0.3,0-0.5,0.1-0.7,0.2c-0.2,0.2-0.3,0.4-0.3,0.7H168.4z M172.5,312
	c0.2-0.3,0.4-0.5,0.7-0.7c0.3-0.2,0.6-0.3,1-0.3v1.7h-0.4c-0.4,0-0.7,0.1-0.9,0.3c-0.2,0.2-0.3,0.5-0.3,0.9v2.5h-1.6v-5.3h1.6V312z
	 M180,313.7c0,0.2,0,0.3,0,0.5h-3.7c0,0.3,0.1,0.6,0.3,0.8c0.2,0.2,0.4,0.3,0.7,0.3c0.4,0,0.7-0.2,0.8-0.5h1.7
	c-0.1,0.4-0.3,0.7-0.5,0.9c-0.2,0.3-0.5,0.5-0.9,0.7c-0.3,0.2-0.7,0.2-1.2,0.2c-0.5,0-1-0.1-1.4-0.3c-0.4-0.2-0.7-0.5-1-1
	c-0.2-0.4-0.3-0.9-0.3-1.4c0-0.6,0.1-1,0.3-1.4c0.2-0.4,0.5-0.7,1-1c0.4-0.2,0.9-0.3,1.4-0.3c0.5,0,1,0.1,1.4,0.3
	c0.4,0.2,0.7,0.5,0.9,0.9C179.9,312.7,180,313.1,180,313.7z M178.3,313.2c0-0.3-0.1-0.5-0.3-0.7c-0.2-0.2-0.4-0.2-0.7-0.2
	c-0.3,0-0.5,0.1-0.7,0.2c-0.2,0.2-0.3,0.4-0.3,0.7H178.3z M181.6,316.5c-0.3,0-0.5-0.1-0.7-0.2c-0.2-0.2-0.3-0.4-0.3-0.6
	c0-0.3,0.1-0.5,0.3-0.6c0.2-0.2,0.4-0.3,0.7-0.3c0.3,0,0.5,0.1,0.7,0.3c0.2,0.2,0.3,0.4,0.3,0.6c0,0.2-0.1,0.5-0.3,0.6
	C182.1,316.4,181.9,316.5,181.6,316.5z"/>
<linearGradient id="SVGID_1_" gradientUnits="userSpaceOnUse" x1="164.0656" y1="169.1362" x2="183.9175" y2="140.8222" gradientTransform="matrix(1 0 0 -1 0 442)">
	<stop  offset="0" style="stop-color:#8DB1FC"/>
	<stop  offset="1" style="stop-color:#236DEC"/>
</linearGradient>
<circle class="st8" cx="173.9" cy="286.9" r="16.9"/>
<path class="st2" d="M171.2,290.8l1.9,1.5c0.2,0.2,0.8,0.4,1.1,0.4h2.3c0.7,0,1.5-0.5,1.7-1.3l1.5-4.4c0.3-0.8-0.2-1.6-1.1-1.6h-2.4
	c-0.4,0-0.7-0.3-0.6-0.7l0.3-1.9c0.1-0.5-0.2-1.1-0.8-1.3c-0.5-0.2-1.1,0.1-1.3,0.4l-2.5,3.7"/>
<path class="st2" d="M168.1,290.8v-5.9c0-0.8,0.4-1.1,1.2-1.1h0.6c0.8,0,1.2,0.3,1.2,1.1v5.9c0,0.8-0.4,1.1-1.2,1.1h-0.6
	C168.5,291.9,168.1,291.6,168.1,290.8z"/>
</svg>
