<svg width="156" height="156" viewBox="0 0 156 156" fill="none" xmlns="http://www.w3.org/2000/svg">
<circle cx="78" cy="78" r="75" fill="#EE6F57" stroke="white" stroke-width="6"/>
<g clip-path="url(#clip0_982_10839)">
<path d="M91.8381 90.4318H87.5224L85.2806 89.4341V86.712C88.4195 84.9827 90.882 82.1719 92.1633 78.7853H94.0865C98.6663 78.7853 102.392 75.0592 102.392 70.4795C102.392 67.5223 100.837 64.9227 98.5037 63.4508V62.5037C98.5038 51.1979 89.3058 42 78 42C66.6942 42 57.4962 51.1979 57.4962 62.5038V63.4502C55.1618 64.9222 53.6066 67.5219 53.6066 70.4795C53.6066 75.0592 57.3326 78.7853 61.9124 78.7853H63.8365C65.1179 82.1719 67.5804 84.9827 70.7193 86.712V89.4228L68.4523 90.4317H64.1618C51.9418 90.4318 42 100.374 42 112.594C42 113.37 42.6296 114 43.4062 114H71.6719C72.4485 114 73.0781 113.37 73.0781 112.594C73.0781 111.817 72.4485 111.187 71.6719 111.187H44.863C45.5641 101.469 53.4747 93.7174 63.259 93.2657C63.2553 93.2775 63.2503 93.2887 63.2469 93.3006C63.1328 93.7013 63.2025 94.1319 63.4367 94.4765L70.089 104.256C70.3247 104.603 70.7025 104.826 71.1196 104.865C71.1638 104.869 71.208 104.871 71.252 104.871C71.6231 104.871 71.9813 104.725 72.2462 104.46L77.9875 98.7183L83.7286 104.46C83.9936 104.725 84.3519 104.871 84.7229 104.871C84.7667 104.871 84.8109 104.869 84.855 104.865C85.2723 104.826 85.6501 104.603 85.8858 104.256L92.5382 94.4765C92.7725 94.1321 92.842 93.7012 92.7281 93.3006C92.7246 93.2883 92.7195 93.2769 92.7157 93.2648C102.512 93.7043 110.435 101.461 111.137 111.188H84.3281C83.5516 111.188 82.9219 111.817 82.9219 112.594C82.9219 113.37 83.5516 114 84.3281 114H112.594C113.37 114 114 113.37 114 112.594C114 100.374 104.058 90.4318 91.8381 90.4318ZM90.2958 63.8836C87.4067 63.4869 84.6954 62.3358 82.3919 60.5133C81.8869 60.1136 81.1746 60.1083 80.6634 60.5005C77.6425 62.8183 74.0288 64.0434 70.213 64.0434C68.6816 64.0434 67.1716 63.8393 65.709 63.4429V62.728C65.709 55.951 71.2224 50.4375 77.9994 50.4375C84.7764 50.4375 90.2901 55.951 90.2901 62.728C90.2901 62.728 90.2929 63.846 90.2958 63.8836ZM94.0867 75.9729H93.1365V64.9863H94.0867C97.1157 64.9863 99.5799 67.4505 99.5799 70.4797C99.5799 73.5086 97.1157 75.9729 94.0867 75.9729ZM78 44.8125C87.6971 44.8125 95.5956 52.655 95.6891 62.3304C95.1703 62.2286 94.6348 62.1738 94.0865 62.1738H93.0913C92.7985 54.1018 86.1418 47.625 77.9994 47.625C69.8571 47.625 63.2003 54.1018 62.9076 62.1738H61.9125C61.3646 62.1738 60.8295 62.2285 60.3109 62.3303C60.4046 52.655 68.3031 44.8125 78 44.8125ZM62.8626 75.9729H61.9125C58.8834 75.9729 56.4193 73.5086 56.4193 70.4795C56.4193 67.4505 58.8834 64.9861 61.9125 64.9861H62.8627L62.8626 75.9729ZM65.6751 73.4445V66.3373C67.1567 66.6815 68.6761 66.8559 70.213 66.8559C74.2937 66.8559 78.1765 65.6514 81.5079 63.3621C84.1263 65.2076 87.1388 66.3534 90.3238 66.721V73.5201C90.3158 74.8383 90.0998 76.108 89.707 77.2981H82.9916C82.4106 75.6551 80.8423 74.4744 79.0029 74.4744H77.1204C74.788 74.4744 72.8905 76.372 72.8905 78.7044C72.8905 81.0368 74.788 82.9344 77.1204 82.9344H79.0029C80.8425 82.9344 82.4107 81.7537 82.9916 80.1106H88.3618C86.166 83.5125 82.3417 85.7692 78 85.7692C71.204 85.7692 65.6751 80.2404 65.6751 73.4445ZM80.4206 78.7044C80.4206 79.4861 79.7848 80.1219 79.0031 80.1219H77.1205C76.3389 80.1219 75.7032 79.4861 75.7032 78.7044C75.7032 77.9227 76.3389 77.2869 77.1205 77.2869H79.0031C79.7847 77.2869 80.4206 77.9227 80.4206 78.7044ZM78 88.5817C79.5548 88.5817 81.0552 88.3458 82.4681 87.9084V90.26L77.9875 94.7406L73.5318 90.285V87.9084C74.9448 88.3458 76.4453 88.5817 78 88.5817ZM71.4588 101.269L66.7088 94.2862L71.4467 92.1777L75.9986 96.7296L71.4588 101.269ZM84.516 101.269L79.9762 96.7296L84.5281 92.1777L89.2662 94.2862L84.516 101.269Z" fill="#FFDF5A"/>
<path d="M78 111.188C77.6302 111.188 77.2673 111.338 77.0058 111.6C76.7442 111.861 76.5938 112.224 76.5938 112.594C76.5938 112.964 76.7441 113.326 77.0058 113.588C77.2673 113.849 77.6302 114 78 114C78.3698 114 78.7327 113.85 78.9941 113.588C79.2558 113.326 79.4062 112.964 79.4062 112.594C79.4062 112.224 79.2558 111.861 78.9941 111.6C78.7327 111.338 78.3698 111.188 78 111.188Z" fill="#FFDF5A"/>
</g>
<defs>
<clipPath id="clip0_982_10839">
<rect width="72" height="72" fill="white" transform="translate(42 42)"/>
</clipPath>
</defs>
</svg>
