<svg version="1.1" xmlns="http://www.w3.org/2000/svg" width="32" height="32" viewBox="0 0 32 32"><path d="M15.600 0.102 C 15.455 0.170,14.357 1.235,12.179 3.421 C 8.750 6.863,8.807 6.797,8.869 7.263 C 8.951 7.874,9.645 8.274,10.202 8.032 C 10.298 7.990,11.376 6.952,12.666 5.659 C 13.928 4.394,14.978 3.360,15.000 3.360 C 15.022 3.360,15.040 9.804,15.040 17.680 L 15.040 32.000 16.000 32.000 L 16.960 32.000 16.960 17.680 C 16.960 9.804,16.978 3.360,17.000 3.360 C 17.022 3.360,18.072 4.394,19.334 5.659 C 20.624 6.952,21.702 7.990,21.798 8.032 C 22.355 8.274,23.049 7.874,23.131 7.263 C 23.193 6.797,23.250 6.863,19.821 3.421 C 17.643 1.235,16.545 0.170,16.400 0.102 C 16.129 -0.025,15.871 -0.025,15.600 0.102 " stroke="none" fill-rule="evenodd" fill="black"></path></svg>