<svg version="1.1" xmlns="http://www.w3.org/2000/svg" width="32" height="32" viewBox="0 0 32 32"><path d="M24.576 8.906 C 24.051 9.064,23.751 9.703,23.968 10.202 C 24.010 10.298,25.048 11.376,26.341 12.666 C 27.606 13.928,28.640 14.978,28.640 15.000 C 28.640 15.022,22.196 15.040,14.320 15.040 L 0.000 15.040 0.000 16.000 L 0.000 16.960 14.320 16.960 C 22.196 16.960,28.640 16.978,28.640 17.000 C 28.640 17.022,27.606 18.072,26.341 19.334 C 25.048 20.624,24.010 21.702,23.968 21.798 C 23.726 22.355,24.126 23.049,24.737 23.131 C 25.203 23.193,25.137 23.250,28.579 19.821 C 30.765 17.643,31.830 16.545,31.898 16.400 C 32.025 16.129,32.025 15.871,31.898 15.600 C 31.830 15.455,30.763 14.355,28.579 12.178 C 25.821 9.428,25.329 8.961,25.147 8.911 C 24.903 8.846,24.780 8.844,24.576 8.906 " stroke="none" fill-rule="evenodd" fill="black"></path></svg>