<svg version="1.1" xmlns="http://www.w3.org/2000/svg" width="32" height="32" viewBox="0 0 32 32"><path d="M6.803 8.930 C 6.524 9.033,0.256 15.272,0.102 15.600 C -0.025 15.871,-0.025 16.129,0.102 16.400 C 0.170 16.545,1.235 17.643,3.421 19.821 C 6.863 23.250,6.797 23.193,7.263 23.131 C 7.874 23.049,8.274 22.355,8.032 21.798 C 7.990 21.702,6.952 20.624,5.659 19.334 C 4.394 18.072,3.360 17.022,3.360 17.000 C 3.360 16.978,9.804 16.960,17.680 16.960 L 32.000 16.960 32.000 16.000 L 32.000 15.040 17.680 15.040 C 9.804 15.040,3.360 15.022,3.360 15.000 C 3.360 14.978,4.394 13.928,5.659 12.666 C 6.952 11.376,7.990 10.298,8.032 10.202 C 8.138 9.958,8.124 9.670,7.994 9.400 C 7.786 8.971,7.257 8.762,6.803 8.930 " stroke="none" fill-rule="evenodd" fill="black"></path></svg>