<svg version="1.1" xmlns="http://www.w3.org/2000/svg" width="32" height="32" viewBox="0 0 32 32"><path d="M15.040 14.320 C 15.040 22.196,15.022 28.640,15.000 28.640 C 14.978 28.640,13.940 27.618,12.693 26.370 C 11.447 25.121,10.338 24.053,10.229 23.996 C 9.509 23.622,8.657 24.367,8.906 25.154 C 8.959 25.320,9.596 25.987,12.179 28.579 C 14.357 30.765,15.455 31.830,15.600 31.898 C 15.871 32.025,16.129 32.025,16.400 31.898 C 16.545 31.830,17.643 30.765,19.821 28.579 C 22.404 25.987,23.041 25.320,23.094 25.154 C 23.343 24.367,22.491 23.622,21.771 23.996 C 21.662 24.053,20.553 25.121,19.307 26.370 C 18.060 27.618,17.022 28.640,17.000 28.640 C 16.978 28.640,16.960 22.196,16.960 14.320 L 16.960 0.000 16.000 0.000 L 15.040 0.000 15.040 14.320 " stroke="none" fill-rule="evenodd" fill="black"></path></svg>