<svg version="1.1" xmlns="http://www.w3.org/2000/svg" width="32" height="32" viewBox="0 0 32 32"><path d="M14.827 2.719 C 12.421 2.960,10.275 3.743,8.373 5.075 C 3.650 8.381,1.570 14.345,3.230 19.820 C 3.890 21.999,4.971 23.800,6.585 25.415 C 7.601 26.430,8.591 27.166,9.778 27.788 C 14.483 30.251,20.024 29.744,24.267 26.461 C 24.849 26.010,26.010 24.849,26.461 24.267 C 29.455 20.397,30.158 15.418,28.339 10.960 C 26.744 7.050,23.307 4.070,19.240 3.071 C 17.928 2.749,16.037 2.598,14.827 2.719 M16.454 9.422 C 16.609 9.475,16.804 9.601,16.940 9.737 C 17.333 10.131,17.333 10.131,17.333 13.333 C 17.333 16.536,17.333 16.536,16.940 16.930 C 16.413 17.457,15.589 17.459,15.065 16.935 C 14.662 16.532,14.667 16.570,14.667 13.333 C 14.667 10.096,14.662 10.135,15.066 9.731 C 15.437 9.361,15.943 9.248,16.454 9.422 M16.877 19.542 C 17.914 20.051,18.297 21.273,17.746 22.310 C 17.354 23.048,16.464 23.477,15.667 23.313 C 14.999 23.175,14.495 22.794,14.209 22.210 C 14.067 21.921,14.053 21.844,14.053 21.333 C 14.054 20.668,14.143 20.423,14.537 20.001 C 15.006 19.500,15.361 19.356,16.080 19.374 C 16.488 19.385,16.608 19.410,16.877 19.542 " stroke="none" fill-rule="evenodd" fill="black"></path></svg>