<svg version="1.1" xmlns="http://www.w3.org/2000/svg" width="32" height="32" viewBox="0 0 32 32"><path d="M27.613 4.072 C 27.006 4.243,27.317 3.864,19.777 13.613 C 15.903 18.622,12.716 22.720,12.695 22.720 C 12.674 22.720,10.949 20.827,8.862 18.514 C 4.501 13.681,4.789 13.947,3.920 13.947 C 3.502 13.947,3.400 13.966,3.137 14.096 C 2.044 14.632,1.659 16.217,2.367 17.259 C 2.563 17.547,11.550 27.497,11.758 27.655 C 12.446 28.180,13.458 28.082,14.086 27.429 C 14.515 26.983,29.620 7.402,29.772 7.094 C 30.427 5.770,29.590 4.112,28.221 4.023 C 28.014 4.010,27.761 4.030,27.613 4.072 " stroke="none" fill-rule="evenodd" fill="black"></path></svg>