<svg version="1.1" xmlns="http://www.w3.org/2000/svg" width="32" height="32" viewBox="0 0 32 32"><path d="M8.667 8.181 C 8.278 8.353,8.070 8.735,8.132 9.164 C 8.168 9.410,8.218 9.463,11.456 12.707 L 14.745 16.000 11.456 19.293 C 8.218 22.537,8.168 22.590,8.132 22.836 C 8.111 22.984,8.121 23.162,8.158 23.272 C 8.239 23.518,8.582 23.824,8.829 23.871 C 9.298 23.959,9.208 24.036,12.733 20.516 L 16.000 17.255 19.267 20.516 C 22.792 24.036,22.702 23.959,23.171 23.871 C 23.418 23.824,23.761 23.518,23.842 23.272 C 23.879 23.162,23.889 22.984,23.868 22.836 C 23.832 22.590,23.782 22.537,20.543 19.293 L 17.255 16.000 20.516 12.733 C 24.046 9.199,23.959 9.300,23.869 8.820 C 23.817 8.544,23.456 8.183,23.180 8.131 C 22.700 8.041,22.801 7.954,19.266 11.484 L 16.000 14.746 12.760 11.508 C 10.506 9.256,9.460 8.245,9.322 8.189 C 9.082 8.089,8.880 8.087,8.667 8.181 " stroke="none" fill-rule="evenodd" fill="black"></path></svg>