<svg version="1.1" xmlns="http://www.w3.org/2000/svg" width="32" height="32" viewBox="0 0 32 32"><path d="M15.655 7.042 C 15.216 7.118,15.034 7.231,13.718 8.248 L 12.453 9.225 11.344 9.226 C 9.716 9.227,9.761 9.187,9.758 10.639 L 9.755 11.653 7.943 13.276 C 6.187 14.849,6.128 14.908,6.050 15.175 C 5.981 15.413,5.972 16.056,5.985 19.792 L 6.000 24.133 6.143 24.377 C 6.306 24.653,6.593 24.871,6.907 24.955 C 7.207 25.036,24.793 25.036,25.093 24.955 C 25.407 24.871,25.694 24.653,25.857 24.377 L 26.000 24.133 26.000 19.680 C 26.000 15.452,25.995 15.217,25.901 15.028 C 25.836 14.897,25.193 14.277,24.021 13.215 L 22.240 11.601 22.240 10.613 C 22.240 9.202,22.268 9.227,20.675 9.227 L 19.640 9.227 18.420 8.287 C 17.749 7.771,17.056 7.280,16.880 7.198 C 16.519 7.029,16.061 6.971,15.655 7.042 M16.284 8.167 C 16.348 8.200,16.695 8.446,17.056 8.714 L 17.711 9.200 16.882 9.215 C 16.426 9.223,15.676 9.223,15.216 9.215 L 14.378 9.200 15.016 8.716 C 15.366 8.449,15.701 8.204,15.760 8.170 C 15.898 8.092,16.136 8.091,16.284 8.167 M21.013 14.257 L 21.013 18.167 20.542 18.544 C 20.283 18.751,20.024 18.951,19.965 18.987 C 19.870 19.047,19.729 18.947,18.503 17.945 C 17.709 17.296,17.025 16.779,16.853 16.698 C 16.591 16.574,16.496 16.560,15.947 16.560 C 15.398 16.560,15.303 16.574,15.040 16.698 C 14.790 16.816,14.033 17.417,12.447 18.757 L 12.175 18.987 11.583 18.520 L 10.992 18.053 10.989 14.200 L 10.987 10.347 16.000 10.347 L 21.013 10.347 21.013 14.257 M23.773 14.554 L 24.585 15.306 23.453 16.213 C 22.830 16.712,22.302 17.120,22.280 17.120 C 22.258 17.120,22.240 16.230,22.240 15.141 L 22.240 13.162 22.600 13.482 C 22.798 13.657,23.326 14.140,23.773 14.554 M9.760 15.151 C 9.760 16.303,9.741 17.015,9.710 17.004 C 9.615 16.971,7.520 15.291,7.520 15.249 C 7.520 15.225,7.656 15.091,7.822 14.950 C 7.988 14.809,8.474 14.377,8.902 13.989 C 9.330 13.602,9.698 13.284,9.720 13.283 C 9.742 13.281,9.760 14.122,9.760 15.151 M9.534 18.389 C 10.480 19.140,11.236 19.769,11.214 19.788 C 11.192 19.807,10.291 20.559,9.213 21.458 L 7.253 23.093 7.253 19.835 L 7.253 16.578 7.533 16.801 C 7.687 16.924,8.588 17.639,9.534 18.389 M24.747 19.866 L 24.747 23.038 22.813 21.460 C 21.750 20.592,20.880 19.858,20.880 19.829 C 20.880 19.789,24.672 16.705,24.733 16.695 C 24.741 16.694,24.747 18.121,24.747 19.866 M16.380 17.753 C 16.456 17.801,18.181 19.196,20.212 20.853 L 23.905 23.867 19.983 23.880 C 17.826 23.888,14.284 23.888,12.112 23.880 L 8.161 23.867 10.361 22.043 C 11.570 21.039,12.620 20.162,12.693 20.093 C 12.808 19.985,15.220 17.972,15.481 17.767 C 15.697 17.597,16.117 17.590,16.380 17.753 " stroke="none" fill-rule="evenodd" fill="black"></path></svg>