<svg version="1.1" xmlns="http://www.w3.org/2000/svg" width="32" height="32" viewBox="0 0 32 32"><path d="M9.969 7.410 C 9.045 7.440,9.027 7.442,8.810 7.593 C 8.554 7.771,8.357 8.015,8.212 8.333 C 8.112 8.554,8.109 8.762,8.108 16.000 L 8.108 23.440 8.232 23.707 C 8.387 24.037,8.727 24.381,9.056 24.542 L 9.307 24.664 12.187 24.665 C 15.398 24.667,15.308 24.677,15.486 24.301 C 15.593 24.076,15.596 23.943,15.498 23.709 C 15.360 23.380,15.429 23.388,12.507 23.373 C 11.040 23.365,9.762 23.346,9.667 23.331 L 9.493 23.302 9.493 15.998 L 9.493 8.693 13.600 8.693 L 17.707 8.693 17.708 10.147 C 17.710 11.876,17.750 12.281,17.936 12.467 C 18.121 12.652,18.534 12.688,20.463 12.691 L 22.073 12.693 22.090 14.253 C 22.106 15.776,22.110 15.817,22.228 15.983 C 22.462 16.312,22.895 16.338,23.231 16.043 L 23.413 15.882 23.412 13.794 L 23.410 11.707 21.399 9.665 C 20.292 8.542,19.304 7.564,19.203 7.491 L 19.019 7.360 14.963 7.370 C 12.732 7.376,10.485 7.394,9.969 7.410 M20.098 10.241 C 20.631 10.799,21.067 11.279,21.067 11.308 C 21.067 11.340,20.688 11.360,20.080 11.360 L 19.093 11.360 19.093 10.293 C 19.093 9.707,19.101 9.227,19.111 9.227 C 19.121 9.227,19.565 9.683,20.098 10.241 M19.528 17.094 C 17.999 17.507,16.697 18.178,16.495 18.658 C 16.269 19.197,16.679 21.011,17.234 21.929 C 17.749 22.778,18.746 23.864,19.451 24.341 C 20.136 24.806,20.377 24.752,21.389 23.904 C 22.520 22.957,23.296 21.764,23.650 20.426 C 23.812 19.812,23.895 19.033,23.826 18.773 C 23.699 18.300,22.830 17.776,21.360 17.287 C 20.324 16.942,20.158 16.924,19.528 17.094 M21.031 18.581 C 21.505 18.740,22.034 18.932,22.206 19.008 L 22.519 19.146 22.483 19.453 C 22.393 20.226,22.034 21.137,21.582 21.738 C 21.322 22.083,20.249 23.200,20.178 23.199 C 20.153 23.199,19.950 23.044,19.725 22.855 C 18.709 21.997,17.978 20.692,17.790 19.399 L 17.753 19.144 18.010 19.030 C 18.287 18.907,20.048 18.293,20.123 18.293 C 20.148 18.293,20.557 18.423,21.031 18.581 " stroke="none" fill-rule="evenodd" fill="black"></path></svg>