<svg version="1.1" xmlns="http://www.w3.org/2000/svg" width="33" height="32" viewBox="0 0 33 32"><path d="M8.590 8.198 C 8.183 8.402,7.860 8.753,7.688 9.177 L 7.563 9.488 7.563 15.043 C 7.563 20.292,7.568 20.613,7.664 20.887 C 7.847 21.413,8.277 21.850,8.794 22.034 C 8.965 22.095,8.767 22.106,7.384 22.108 L 5.775 22.110 5.775 22.242 C 5.775 22.314,5.827 22.542,5.890 22.747 C 5.988 23.063,6.059 23.174,6.344 23.459 C 6.950 24.064,5.906 24.008,16.445 24.008 C 26.984 24.008,25.940 24.064,26.546 23.459 C 26.831 23.174,26.902 23.063,27.000 22.747 C 27.063 22.542,27.115 22.314,27.115 22.242 L 27.115 22.110 25.506 22.107 L 23.898 22.104 24.188 21.993 C 24.537 21.858,24.957 21.459,25.125 21.101 C 25.349 20.625,25.359 20.328,25.343 14.795 L 25.328 9.488 25.202 9.177 C 25.030 8.753,24.707 8.402,24.300 8.198 L 23.962 8.030 16.445 8.030 L 8.928 8.030 8.590 8.198 M23.815 15.015 L 23.815 20.405 16.335 20.405 L 8.855 20.405 8.855 15.015 L 8.855 9.625 16.335 9.625 L 23.815 9.625 23.815 15.015 M16.922 21.347 C 17.479 21.689,17.424 22.656,16.830 22.963 C 16.311 23.231,15.647 22.858,15.580 22.260 C 15.489 21.455,16.253 20.935,16.922 21.347 " stroke="none" fill-rule="evenodd" fill="black"></path></svg>