<svg version="1.1" xmlns="http://www.w3.org/2000/svg" width="32" height="32" viewBox="0 0 32 32"><path d="M14.782 2.459 C 14.080 2.521,13.364 2.649,12.560 2.854 C 10.201 3.455,7.869 4.827,6.156 6.620 C 4.557 8.294,3.378 10.444,2.811 12.720 C 2.501 13.964,2.429 14.580,2.429 16.000 C 2.429 17.420,2.501 18.036,2.811 19.280 C 4.028 24.161,7.839 27.972,12.720 29.189 C 13.959 29.498,14.579 29.570,16.000 29.570 C 17.421 29.570,18.041 29.498,19.280 29.189 C 21.746 28.574,24.043 27.250,25.776 25.443 C 27.769 23.366,29.035 20.780,29.473 17.893 C 29.593 17.103,29.611 15.058,29.504 14.320 C 29.047 11.160,27.779 8.576,25.629 6.424 C 24.471 5.265,23.433 4.518,22.000 3.814 C 21.032 3.338,20.376 3.092,19.448 2.855 C 17.858 2.450,16.335 2.321,14.782 2.459 M19.520 9.840 L 19.520 12.480 22.160 12.480 L 24.800 12.480 24.800 16.000 L 24.800 19.520 22.160 19.520 L 19.520 19.520 19.520 22.160 L 19.520 24.800 16.000 24.800 L 12.480 24.800 12.480 22.160 L 12.480 19.520 9.867 19.520 L 7.253 19.520 7.253 16.000 L 7.253 12.480 9.867 12.480 L 12.480 12.480 12.480 9.840 L 12.480 7.200 16.000 7.200 L 19.520 7.200 19.520 9.840 M12.800 10.160 L 12.800 12.800 10.160 12.800 L 7.520 12.800 7.520 16.000 L 7.520 19.200 10.160 19.200 L 12.800 19.200 12.800 21.840 L 12.800 24.480 16.027 24.480 L 19.253 24.480 19.253 21.840 L 19.253 19.200 21.893 19.200 L 24.533 19.200 24.533 16.000 L 24.533 12.800 21.893 12.800 L 19.253 12.800 19.253 10.160 L 19.253 7.520 16.027 7.520 L 12.800 7.520 12.800 10.160 M18.880 10.480 L 18.880 13.120 21.520 13.120 L 24.160 13.120 24.160 16.000 L 24.160 18.880 21.520 18.880 L 18.880 18.880 18.880 21.520 L 18.880 24.160 16.000 24.160 L 13.120 24.160 13.120 21.520 L 13.120 18.880 10.480 18.880 L 7.840 18.880 7.840 16.000 L 7.840 13.120 10.480 13.120 L 13.120 13.120 13.120 10.480 L 13.120 7.840 16.000 7.840 L 18.880 7.840 18.880 10.480 " stroke="none" fill-rule="evenodd" fill="black"></path></svg>