<svg width="18" height="13" viewBox="0 0 18 13" fill="none" xmlns="http://www.w3.org/2000/svg"><path d="M15.031 0.843 C 13.287 1.068,11.689 2.099,10.282 3.906 C 8.966 5.597,8.284 7.200,8.127 8.976 C 8.046 9.896,8.162 10.649,8.464 11.147 C 8.800 11.704,9.582 12.115,10.494 12.216 C 11.075 12.280,11.988 12.160,12.628 11.934 C 13.361 11.675,14.130 11.160,14.617 10.601 C 14.985 10.178,15.206 9.796,15.375 9.290 C 15.522 8.851,15.572 8.520,15.572 7.995 C 15.572 6.939,15.282 6.177,14.651 5.578 C 14.554 5.486,14.418 5.373,14.349 5.327 L 14.223 5.244 14.283 5.090 C 14.378 4.846,14.609 4.482,14.790 4.293 C 14.983 4.091,15.356 3.835,15.891 3.536 C 16.384 3.260,16.603 3.123,16.927 2.887 C 17.393 2.547,17.530 2.315,17.532 1.860 C 17.533 1.572,17.481 1.438,17.305 1.269 C 17.136 1.107,16.625 0.916,16.160 0.840 C 15.944 0.805,15.310 0.807,15.031 0.843 M6.675 1.233 C 5.064 1.401,3.514 2.351,2.233 3.957 C 1.066 5.419,0.403 6.780,0.147 8.240 C 0.048 8.799,0.047 9.649,0.144 10.034 C 0.378 10.963,0.986 11.496,2.085 11.735 C 2.481 11.822,3.423 11.845,3.810 11.777 C 4.673 11.627,5.523 11.162,6.227 10.455 C 6.990 9.690,7.262 8.849,7.096 7.770 C 6.955 6.852,6.599 6.246,5.882 5.699 L 5.782 5.623 5.887 5.395 C 5.999 5.154,6.172 4.887,6.336 4.704 C 6.527 4.491,6.923 4.229,7.800 3.736 C 8.122 3.554,8.549 3.259,8.751 3.077 C 9.100 2.763,9.206 2.172,8.978 1.804 C 8.872 1.630,8.675 1.509,8.300 1.385 C 7.790 1.216,7.290 1.169,6.675 1.233 " fill="#0F67AD" stroke="none" fill-rule="evenodd"></path></svg>