<svg version="1.1" xmlns="http://www.w3.org/2000/svg" width="33" height="32" viewBox="0 0 33 32"><path d="M17.087 7.572 L 16.885 7.773 16.885 9.167 L 16.885 10.560 12.853 10.560 L 8.822 10.560 8.637 10.750 C 8.482 10.910,8.453 10.980,8.456 11.185 C 8.464 11.692,8.768 11.880,9.585 11.881 C 9.864 11.881,10.147 11.896,10.214 11.914 C 10.332 11.946,10.333 11.955,10.256 12.140 C 10.211 12.246,9.445 13.996,8.553 16.028 L 6.930 19.723 6.930 20.220 C 6.930 21.833,7.934 23.411,9.462 24.198 C 10.710 24.841,12.299 24.792,13.585 24.073 C 14.108 23.781,14.917 22.993,15.205 22.496 C 15.611 21.794,15.833 21.086,15.878 20.349 L 15.910 19.826 14.190 15.906 C 13.244 13.750,12.487 11.970,12.506 11.950 C 12.561 11.896,19.586 11.860,21.189 11.907 C 22.062 11.932,22.605 11.968,22.605 12.002 C 22.605 12.032,21.835 13.813,20.893 15.960 L 19.181 19.864 19.219 20.332 C 19.294 21.265,19.711 22.330,20.259 22.995 C 21.510 24.511,23.524 25.054,25.300 24.353 C 26.947 23.704,28.045 22.170,28.188 20.319 L 28.226 19.828 26.715 16.390 C 24.644 11.678,24.773 11.989,24.865 11.931 C 24.908 11.904,25.190 11.880,25.492 11.878 C 26.156 11.873,26.382 11.804,26.549 11.556 C 26.737 11.277,26.715 11.044,26.476 10.780 L 26.277 10.560 22.241 10.560 L 18.205 10.560 18.205 9.140 C 18.205 7.737,18.203 7.718,18.081 7.606 C 17.891 7.433,17.737 7.370,17.503 7.370 C 17.329 7.370,17.250 7.408,17.087 7.572 M12.811 16.111 C 13.569 17.847,14.183 19.276,14.174 19.284 C 14.141 19.317,8.698 19.331,8.666 19.299 C 8.634 19.267,9.503 17.206,10.670 14.547 C 10.949 13.912,11.224 13.284,11.282 13.151 C 11.340 13.018,11.398 12.919,11.410 12.931 C 11.422 12.943,12.052 14.374,12.811 16.111 M24.765 15.290 C 26.089 18.325,26.476 19.248,26.439 19.284 C 26.375 19.348,24.726 19.365,22.818 19.321 L 20.913 19.277 21.404 18.150 C 22.406 15.853,23.208 14.037,23.457 13.502 L 23.714 12.953 23.813 13.145 C 23.868 13.251,24.296 14.216,24.765 15.290 M14.341 20.715 C 14.501 20.757,14.498 20.875,14.330 21.289 C 14.045 21.991,13.418 22.682,12.787 22.991 C 11.319 23.710,9.689 23.240,8.774 21.835 C 8.550 21.492,8.305 20.930,8.305 20.760 C 8.305 20.691,8.703 20.680,11.261 20.681 C 12.887 20.681,14.273 20.696,14.341 20.715 M26.749 20.969 C 26.435 22.039,25.430 23.028,24.418 23.261 C 23.805 23.402,22.968 23.303,22.336 23.014 C 21.879 22.806,21.135 22.032,20.881 21.500 C 20.771 21.270,20.666 21.006,20.647 20.913 C 20.618 20.767,20.630 20.741,20.743 20.720 C 20.814 20.706,22.214 20.692,23.853 20.687 L 26.834 20.680 26.749 20.969 " stroke="none" fill-rule="evenodd" fill="black"></path></svg>