<svg xmlns="http://www.w3.org/2000/svg" id="Layer_1" data-name="Layer 1" viewBox="0 0 363.77 363.77" width="363.77" height="363.77"><metadata><rdf:RDF xmlns:rdf="http://www.w3.org/1999/02/22-rdf-syntax-ns#" xmlns:dc="http://purl.org/dc/elements/1.1/"><rdf:Description><dc:creator>RealFaviconGenerator</dc:creator><dc:source>https://realfavicongenerator.net</dc:source></rdf:Description></rdf:RDF></metadata><rect width="363.77" height="363.77" style="fill: #082656;"></rect><g>
    <path d="M42.26,262.24v-69.53l2.5-2.01c2.3-1.81,11.75-8.91,36.57-27.38,4.97-3.71,14.34-10.72,20.83-15.57,6.46-4.86,12.01-8.85,12.3-8.85.46,0,.49,4.51.49,90.79,0,49.93-.09,90.79-.2,90.79-1.52,0-20.51,2.5-31.98,4.19-12.15,1.78-35.83,5.89-39.85,6.92l-.66.14v-69.5h0Z" style="fill: #fff;"></path>
    <path d="M312.03,329.93c-11.64-2.21-25.45-4.51-37.78-6.29-9.37-1.32-23.76-3.16-24.94-3.16-.46,0-.49-3.59-.43-72.89.09-68.43.11-72.92.57-73,.26-.06,1.64.66,3.02,1.55,5.17,3.36,60.99,39.47,64.76,41.89l3.91,2.47.2,2.21c.09,1.21.17,26.2.17,55.59,0,42.52-.09,53.38-.34,53.35-.2-.03-4.31-.78-9.14-1.72h0Z" style="fill: #fff;"></path>
    <path d="M143.1,203.63l.03-114.57,1.78-1.29c.98-.72,5.86-4.34,10.89-8.04,5-3.71,10.29-7.64,11.78-8.73,9.65-7.13,38.7-28.61,45.02-33.3,4.19-3.13,7.84-5.66,8.13-5.66.49,0,.52,4.6.52,143.07s-.03,143.07-.52,143.07c-.29,0-4.19-.23-8.71-.49-11.64-.69-47.69-.69-59.59,0-4.57.26-8.56.49-8.82.49-.49,0-.52-5.63-.52-114.55h0Z" style="fill: #fff;"></path>
  </g></svg>