<svg version="1.1" id="Layer_1" xmlns="http://www.w3.org/2000/svg" x="0" y="0" width="100%" height="100%" viewBox="0 0 64 64" xml:space="preserve"><style>.st0{fill:none;stroke:#006cff;stroke-width:2;stroke-miterlimit:10}</style><path class="st0" d="M32 .9C49.2.9 63.1 14.8 63.1 32c0 17.2-13.9 31.1-31.1 31.1C14.8 63.1.9 49.2.9 32 .9 14.8 14.8.9 32 .9z" stroke-dasharray="196,198"/><path class="st0" d="M10 32c0-5.6 2.1-11.3 6.4-15.6 8.6-8.6 22.5-8.6 31.1 0 4.4 4.3 6.5 10 6.5 15.6" stroke-dasharray="70,72"/><path class="st0" d="M24 26l6.3 7.3" stroke-dasharray="10,12"/><path class="st0" d="M32 33c1.1 0 2 .9 2 2s-.9 2-2 2-2-.9-2-2 .9-2 2-2z" stroke-dasharray="13,15"/></svg>