<svg xmlns="http://www.w3.org/2000/svg" viewBox="0 0 512 512"><path d="M474.977 450.207H37.032C16.578 450.207 0 433.629 0 413.184V98.816c0-20.445 16.578-37.023 37.032-37.023h437.945c20.454 0 37.023 16.578 37.023 37.023v314.368c0 20.445-16.569 37.023-37.023 37.023" fill="#d7d7d7"/><path d="M288.413 269.965L500.734 72.289c-6.665-6.471-15.731-10.496-25.759-10.496H37.03c-10.028 0-19.085 4.025-25.759 10.496l212.321 197.676c18.264 17.002 46.557 17.002 64.821 0" fill="#cbcbcb"/><path d="M295.441 263.422l-7.027 6.541c-18.264 17.002-46.557 17.002-64.821 0l-7.027-6.541L11.731 440.088c6.63 6.232 15.484 10.116 25.3 10.116h437.945c9.816 0 18.67-3.884 25.3-10.116L295.441 263.422z" fill="#e7e7e7"/></svg>