<svg width="67" height="67" viewBox="0 0 67 67" fill="none" xmlns="http://www.w3.org/2000/svg"><path d="M22.122 42.935a19.287 19.287 0 0 1 5.273-2.843A18.06 18.06 0 0 1 33.5 39.05a17.94 17.94 0 0 1 6.105 1.042 19.42 19.42 0 0 1 5.273 2.843 14.314 14.314 0 0 0 2.521-4.301c.602-1.604.902-3.315.901-5.134 0-4.1-1.441-7.593-4.323-10.477C41.093 20.14 37.602 18.7 33.5 18.7c-4.102.001-7.594 1.443-10.477 4.325C20.141 25.908 18.7 29.4 18.7 33.5c0 1.82.3 3.53.903 5.134a14.337 14.337 0 0 0 2.52 4.301ZM33.5 35.35c-1.82 0-3.353-.624-4.603-1.872-1.25-1.248-1.873-2.783-1.872-4.603.001-1.82.626-3.355 1.874-4.603 1.248-1.248 2.782-1.872 4.601-1.872 1.82 0 3.353.625 4.603 1.874 1.25 1.25 1.873 2.783 1.872 4.601-.001 1.818-.625 3.352-1.872 4.603-1.247 1.25-2.781 1.874-4.603 1.872Zm0 16.65c-2.56 0-4.964-.486-7.215-1.458-2.25-.972-4.209-2.29-5.874-3.953-1.665-1.664-2.983-3.622-3.953-5.874C15.488 38.463 15 36.058 15 33.5c-.001-2.558.485-4.963 1.458-7.215s2.29-4.21 3.953-5.874c1.663-1.664 3.62-2.981 5.874-3.953C28.538 15.486 30.943 15 33.5 15c2.557 0 4.962.486 7.215 1.458s4.211 2.29 5.874 3.953c1.662 1.664 2.98 3.622 3.955 5.874.974 2.252 1.46 4.657 1.456 7.215-.004 2.558-.49 4.963-1.458 7.215s-2.286 4.21-3.953 5.874c-1.668 1.663-3.626 2.982-5.874 3.955-2.248.973-4.653 1.459-7.215 1.456Z" fill="#1C49C2"/></svg>