<svg width="28" height="28" viewBox="0 0 28 28" fill="none" xmlns="http://www.w3.org/2000/svg"><path d="M5.39 21.14c1.19-.91 2.52-1.627 3.99-2.152 1.47-.524 3.01-.787 4.62-.788 1.61 0 3.15.262 4.62.788 1.47.527 2.8 1.244 3.99 2.152a10.834 10.834 0 0 0 1.908-3.255c.456-1.213.683-2.508.682-3.885 0-3.103-1.09-5.746-3.272-7.928C19.747 3.89 17.104 2.799 14 2.8c-3.104 0-5.747 1.092-7.928 3.273S2.8 10.897 2.8 14c0 1.377.228 2.672.683 3.885A10.85 10.85 0 0 0 5.39 21.14ZM14 15.4c-1.377 0-2.538-.472-3.483-1.417C9.57 13.04 9.099 11.878 9.1 10.5c0-1.378.474-2.539 1.418-3.483C11.463 6.072 12.623 5.6 14 5.6c1.377 0 2.538.473 3.483 1.418.946.946 1.418 2.106 1.417 3.482 0 1.376-.473 2.537-1.417 3.483-.943.947-2.104 1.419-3.483 1.417ZM14 28c-1.937 0-3.757-.368-5.46-1.103a14.16 14.16 0 0 1-4.445-2.992 14.107 14.107 0 0 1-2.992-4.445C.37 17.756.001 15.936 0 14c0-1.936.367-3.756 1.103-5.46.737-1.704 1.734-3.186 2.992-4.445 1.258-1.26 2.74-2.256 4.445-2.992C10.245.368 12.065 0 14 0s3.755.368 5.46 1.103c1.705.736 3.187 1.733 4.445 2.992a14.188 14.188 0 0 1 2.993 4.445c.738 1.704 1.105 3.524 1.102 5.46-.003 1.936-.37 3.756-1.103 5.46a14.045 14.045 0 0 1-2.992 4.445 14.222 14.222 0 0 1-4.445 2.993c-1.701.737-3.522 1.104-5.46 1.102Z" fill="#333"/></svg>