<svg viewBox="0 0 190 48" fill="none" xmlns="http://www.w3.org/2000/svg"><path fill-rule="evenodd" clip-rule="evenodd" d="M23.398 5.472C16.416 11.33 10.282 16.486 3.308 22.32a.983.983 0 0 1-1.397-.126L.232 20.152a.995.995 0 0 1 .126-1.403C7.944 12.409 14.65 6.765 22.238.402c.611-.536 1.717-.536 2.321 0 3.42 2.878 6.833 5.74 10.262 8.618V5.558a1 1 0 0 1 .996-1h2.628c.541 0 .988.449.988 1v7.333c2.62 2.207 4.59 3.855 7.218 6.047.423.347.478.978.133 1.404l-1.679 2.042c-.345.417-.98.473-1.404.126A17900.842 17900.842 0 0 1 23.398 5.48v-.008Z" fill="#fff"/><path fill-rule="evenodd" clip-rule="evenodd" d="M6.665 31.766v-9.548c5.586-4.675 11.163-9.367 16.741-14.042l16.733 14.05c-8.825 2.38-18.247 7.458-24.342 13.056L9.45 28.068l-2.777 3.698h-.008Zm14.05-16.344h2.158v2.168h-2.158v-2.168Zm3.201 0h2.165v2.168h-2.165v-2.168Zm2.173 3.224v2.169h-2.165v-2.169h2.165Zm-3.216 2.169h-2.158v-2.169h2.158v2.169Zm-8.01 22.982H8.281a1.626 1.626 0 0 1-1.624-1.632v-7.332l8.206 8.964Z" fill="#fff"/><path fill-rule="evenodd" clip-rule="evenodd" d="M16.275 43.797c5.28-8.94 12.395-15.784 23.856-21.563v19.931a1.62 1.62 0 0 1-1.623 1.632H16.274Z" fill="#fff"/><path d="M54.472 42.788V27.855h5.303c1.083 0 2.048.197 2.887.584.84.394 1.49.938 1.961 1.632.47.693.706 1.498.706 2.412 0 .915-.212 1.695-.627 2.39a4.442 4.442 0 0 1-1.726 1.64c-.73.393-1.577.598-2.526.598h-4.393v5.677h-1.585Zm1.585-6.938h4.393c.972 0 1.765-.316 2.392-.939.628-.622.934-1.434.934-2.428 0-.993-.377-1.829-1.122-2.452-.745-.623-1.702-.938-2.871-.938h-3.726v6.765-.008Zm16.325 7.19c-1.185 0-2.236-.236-3.146-.717a5.476 5.476 0 0 1-2.15-1.971c-.517-.836-.776-1.806-.776-2.902s.25-2.058.76-2.901a5.369 5.369 0 0 1 2.111-1.971c.894-.473 1.922-.718 3.067-.718 1.146 0 2.158.245 2.974.734a4.773 4.773 0 0 1 1.859 2.026c.423.86.643 1.853.643 2.972H67.196l.565-.402c0 .978.189 1.821.565 2.515.377.694.918 1.23 1.616 1.6.698.371 1.506.553 2.432.553.926 0 1.765-.205 2.432-.607a4.541 4.541 0 0 0 1.569-1.57l1.231.663a5.152 5.152 0 0 1-1.223 1.395 5.582 5.582 0 0 1-1.765.947c-.675.228-1.42.339-2.244.339v.015h.008Zm-4.488-6.228-.62-.387h9.493l-.62.403c0-.757-.157-1.412-.478-1.987a3.364 3.364 0 0 0-1.342-1.333c-.572-.323-1.263-.48-2.07-.48-.809 0-1.515.157-2.182.48-.666.323-1.192.757-1.592 1.325-.392.56-.589 1.222-.589 1.97v.009Zm10.576-3.517V32.12h7.593v1.175H78.47Zm5.82 9.745c-1.137 0-2.024-.26-2.667-.78-.643-.52-.965-1.254-.965-2.208V28.793h1.483v11.26c0 .567.188 1.016.565 1.332.376.323.902.48 1.576.48.197 0 .393-.023.58-.07.19-.048.464-.182.825-.395l.62 1.112c-.448.229-.817.37-1.107.434a4.408 4.408 0 0 1-.91.094Zm10.018 0c-.973 0-1.82-.087-2.55-.268-.73-.181-1.357-.426-1.882-.733-.526-.316-.957-.662-1.295-1.049a4.541 4.541 0 0 1-.776-1.214l1.482-.489c.283.67.832 1.254 1.656 1.758.823.505 1.828.757 3.012.757 1.514 0 2.69-.252 3.53-.757.84-.504 1.255-1.166 1.255-1.994 0-.828-.384-1.435-1.16-1.908-.777-.473-1.773-.852-3.013-1.12l-1.75-.386a9.954 9.954 0 0 1-2.11-.733c-.65-.324-1.169-.726-1.569-1.23-.392-.497-.588-1.112-.588-1.837 0-1.333.494-2.381 1.483-3.123.988-.749 2.424-1.12 4.314-1.12 1.138 0 2.11.166 2.934.505.824.332 1.483.75 1.985 1.238.502.49.832.986.996 1.483l-1.451.488c-.36-.78-.95-1.387-1.765-1.82-.816-.435-1.797-.655-2.95-.655-1.216 0-2.18.252-2.895.765-.713.512-1.074 1.198-1.074 2.065 0 .78.282 1.372.84 1.758.556.395 1.286.686 2.196.883l1.75.363c1.74.355 3.074.922 4.008 1.695.926.773 1.396 1.6 1.396 2.484a3.51 3.51 0 0 1-.667 2.081c-.447.63-1.114 1.143-2 1.522-.887.386-2 .575-3.326.575l-.016.016Zm13.909 0c-1.184 0-2.236-.236-3.146-.717a5.424 5.424 0 0 1-2.149-1.971c-.518-.836-.777-1.806-.777-2.902s.251-2.058.761-2.901a5.331 5.331 0 0 1 2.134-1.971c.91-.473 1.953-.718 3.122-.718 1.169 0 2.205.221 3.107.67.902.45 1.6 1.073 2.094 1.87l-1.278.598c-.377-.615-.91-1.088-1.593-1.442-.682-.347-1.459-.52-2.33-.52-.87 0-1.671.188-2.353.567a4.165 4.165 0 0 0-1.601 1.553c-.384.654-.58 1.427-.58 2.294 0 .868.196 1.632.588 2.295a4.124 4.124 0 0 0 1.624 1.553c.691.378 1.483.567 2.369.567.887 0 1.679-.197 2.37-.583a3.94 3.94 0 0 0 1.576-1.632l1.31.6a5.245 5.245 0 0 1-2.11 2.05c-.91.496-1.961.748-3.146.748l.008-.008Zm7.351-.252V32.12h1.483v10.668h-1.483Zm.612-5.85c0-1.151.251-2.082.753-2.791a4.512 4.512 0 0 1 1.945-1.57 6.544 6.544 0 0 1 2.526-.504v1.175a6.61 6.61 0 0 0-2.086.331 3.476 3.476 0 0 0-1.64 1.112c-.431.52-.643 1.23-.643 2.12l-.863.127h.008Zm12.034 6.102c-1.185 0-2.236-.236-3.146-.717a5.427 5.427 0 0 1-2.15-1.971c-.517-.836-.776-1.806-.776-2.902s.251-2.058.761-2.901a5.37 5.37 0 0 1 2.11-1.971c.894-.473 1.922-.718 3.067-.718 1.146 0 2.158.245 2.974.734a4.78 4.78 0 0 1 1.859 2.026c.423.86.643 1.853.643 2.972h-10.528l.565-.402c0 .978.188 1.821.565 2.515a3.87 3.87 0 0 0 1.616 1.6c.698.371 1.506.553 2.432.553.926 0 1.765-.205 2.432-.607a4.545 4.545 0 0 0 1.569-1.57l1.231.663a5.137 5.137 0 0 1-1.223 1.395 5.587 5.587 0 0 1-1.765.947c-.675.228-1.42.339-2.244.339v.015h.008Zm-4.487-6.228-.62-.387h9.492l-.62.403c0-.757-.157-1.412-.478-1.987a3.416 3.416 0 0 0-1.342-1.333c-.572-.323-1.263-.48-2.071-.48-.808 0-1.514.157-2.181.48-.666.323-1.192.757-1.592 1.325-.4.567-.588 1.222-.588 1.97v.009Zm17.266 6.228c-1.185 0-2.236-.236-3.146-.717a5.424 5.424 0 0 1-2.149-1.971c-.518-.836-.777-1.806-.777-2.902s.251-2.058.761-2.901a5.37 5.37 0 0 1 2.11-1.971c.895-.473 1.922-.718 3.068-.718 1.145 0 2.157.245 2.973.734a4.768 4.768 0 0 1 1.859 2.026c.424.86.643 1.853.643 2.972h-10.527l.564-.402c0 .978.189 1.821.565 2.515a3.87 3.87 0 0 0 1.616 1.6c.699.371 1.507.553 2.432.553.926 0 1.765-.205 2.432-.607a4.536 4.536 0 0 0 1.569-1.57l1.232.663a5.158 5.158 0 0 1-1.224 1.395 5.577 5.577 0 0 1-1.765.947c-.675.228-1.42.339-2.244.339v.015h.008Zm-4.487-6.228-.62-.387h9.492l-.619.403c0-.757-.157-1.412-.479-1.987a3.42 3.42 0 0 0-1.341-1.333c-.573-.323-1.263-.48-2.071-.48-.808 0-1.515.157-2.181.48-.667.323-1.193.757-1.593 1.325-.4.567-.588 1.222-.588 1.97v.009Zm11.932 5.976V32.121h1.381l.102 1.963v8.704h-1.483Zm8.857-5.464c0-1.182-.157-2.073-.479-2.688-.321-.615-.753-1.025-1.31-1.246-.549-.22-1.169-.331-1.859-.331-1.169 0-2.079.37-2.738 1.12-.659.748-.988 1.79-.988 3.121h-.91c0-1.135.188-2.112.564-2.925.377-.812.934-1.434 1.663-1.868.73-.434 1.624-.647 2.676-.647.957 0 1.796.166 2.526.505.729.331 1.31.867 1.726 1.593.415.725.619 1.687.604 2.877v.49h-1.483.008Zm0 5.464v-5.464h1.482v5.464h-1.482Zm5.052-13.443c-.267 0-.494-.086-.691-.252-.196-.173-.298-.37-.298-.6 0-.244.102-.44.298-.606.197-.166.432-.245.691-.245.282 0 .51.08.706.245a.771.771 0 0 1 .282.607c0 .229-.094.426-.282.599-.189.174-.424.252-.706.252Zm-.761 13.443V32.121h1.482v10.667h-1.482Zm4.707 0V32.121h1.381l.102 1.963v8.704h-1.483Zm8.857-5.464c0-1.182-.157-2.073-.479-2.688-.321-.615-.753-1.025-1.31-1.246-.549-.22-1.169-.331-1.859-.331-1.169 0-2.079.37-2.738 1.12-.659.748-.988 1.79-.988 3.121h-.91c0-1.135.188-2.112.564-2.925.377-.812.934-1.434 1.663-1.868.73-.434 1.624-.647 2.676-.647.957 0 1.796.166 2.526.505.729.331 1.31.867 1.726 1.593.415.725.619 1.687.604 2.877v.49h-1.483.008Zm0 5.464v-5.464h1.482v5.464h-1.482Zm9.029 0c-1.082 0-2.047-.236-2.887-.702a5.012 5.012 0 0 1-1.969-1.955c-.478-.828-.714-1.782-.714-2.846 0-1.065.236-2.003.714-2.815a5.164 5.164 0 0 1 1.969-1.908c.84-.465 1.797-.694 2.887-.694 1.091 0 1.977.229 2.777.694.8.465 1.42 1.096 1.875 1.908.455.812.675 1.75.675 2.815 0 1.064-.228 2.018-.675 2.846a5.038 5.038 0 0 1-1.875 1.955c-.8.473-1.726.702-2.777.702Zm-.125 4.518c-.738 0-1.42-.071-2.048-.213a11.25 11.25 0 0 1-1.577-.457 26.312 26.312 0 0 1-.886-.355l.541-1.065c.196.103.494.221.902.371.4.15.871.276 1.404.386.534.11 1.091.158 1.664.158.855 0 1.616-.15 2.29-.45a3.459 3.459 0 0 0 1.593-1.41c.384-.64.58-1.467.58-2.476v-9.682H190v9.682c0 1.237-.267 2.262-.8 3.082a4.825 4.825 0 0 1-2.158 1.822c-.902.394-1.898.599-2.981.599l-.007.008Zm.415-5.653c.793 0 1.491-.19 2.095-.568a3.92 3.92 0 0 0 1.428-1.545c.345-.655.517-1.412.517-2.263 0-.852-.172-1.585-.517-2.231a3.86 3.86 0 0 0-1.428-1.522c-.612-.37-1.318-.552-2.118-.552-.855 0-1.608.181-2.267.552a3.974 3.974 0 0 0-1.538 1.522c-.369.646-.557 1.387-.557 2.23 0 .844.188 1.61.565 2.264a4.122 4.122 0 0 0 1.553 1.545c.659.379 1.412.568 2.267.568ZM54.197 22.313V7.38h11.077v2.664h-7.696v3.58h6.41v2.665h-6.41v6.016h-3.38v.008Zm13.564 0V11.645h3.256v10.668H67.76Zm2.29-5.614c0-1.151.26-2.105.778-2.854a4.773 4.773 0 0 1 2-1.688 6.085 6.085 0 0 1 2.55-.551v2.728c-.754 0-1.468.078-2.134.236-.667.158-1.208.41-1.616.765-.408.355-.62.812-.62 1.364h-.965.008Zm13.251 5.866c-1.216 0-2.29-.237-3.232-.718a5.527 5.527 0 0 1-2.205-1.97c-.533-.837-.8-1.806-.8-2.902s.275-2.058.824-2.902c.55-.835 1.31-1.498 2.267-1.97.965-.474 2.071-.718 3.319-.718 1.082 0 2.086.244 2.996.733.91.489 1.648 1.206 2.197 2.152.549.947.823 2.098.823 3.446h-9.35l.297-.252c0 .528.15.985.456 1.371.305.395.698.694 1.184.9a3.98 3.98 0 0 0 1.57.307c.674 0 1.223-.126 1.654-.37.424-.253.753-.576.989-.97l2.91.977a5.366 5.366 0 0 1-1.341 1.545c-.55.434-1.208.765-1.961.994-.754.228-1.617.339-2.59.339h-.007v.008Zm-2.69-6.678-.299-.253h5.946l-.274.253c0-.513-.141-.923-.416-1.23a2.484 2.484 0 0 0-1.02-.67 3.498 3.498 0 0 0-1.169-.213 3.83 3.83 0 0 0-1.208.213 2.708 2.708 0 0 0-1.098.67c-.306.307-.455.717-.455 1.23h-.008Zm16.968 6.678c-1.217 0-2.291-.237-3.233-.718a5.527 5.527 0 0 1-2.204-1.97c-.534-.837-.8-1.806-.8-2.902s.274-2.058.823-2.902c.55-.835 1.31-1.498 2.268-1.97.965-.474 2.07-.718 3.318-.718 1.083 0 2.087.244 2.997.733.91.489 1.647 1.206 2.196 2.152.549.947.824 2.098.824 3.446h-9.351l.298-.252c0 .528.15.985.455 1.371.306.395.698.694 1.185.9a3.98 3.98 0 0 0 1.569.307c.674 0 1.223-.126 1.655-.37.423-.253.753-.576.988-.97l2.911.977a5.367 5.367 0 0 1-1.342 1.545c-.549.434-1.208.765-1.961.994-.753.228-1.616.339-2.589.339h-.008v.008Zm-2.691-6.678-.298-.253h5.946l-.275.253c0-.513-.141-.923-.415-1.23a2.485 2.485 0 0 0-1.02-.67 3.498 3.498 0 0 0-1.17-.213 3.83 3.83 0 0 0-1.207.213 2.71 2.71 0 0 0-1.099.67c-.305.307-.455.717-.455 1.23h-.007Z" fill="#fff"/></svg>