<?xml version="1.0" encoding="utf-8"?>
<!-- Generator: Adobe Illustrator 22.0.1, SVG Export Plug-In . SVG Version: 6.00 Build 0)  -->
<svg version="1.1" xmlns="http://www.w3.org/2000/svg" xmlns:xlink="http://www.w3.org/1999/xlink" x="0px" y="0px" viewBox="0 0 30.5 31.1" style="enable-background:new 0 0 30.5 31.1;" xml:space="preserve">
	<path class="st0" d="M15.4,9.4c2.1-0.3,4.1-2,4.1-4.1c0-2.4-1.9-4.3-4.3-4.3S11,2.9,11,5.3C11,7.5,12.6,9.3,15.4,9.4v20.2 M15.8,28.7 M25.9,21.2 M22.7,22.4 M29.2,23.9L29.2,23.9L27,19.5l-4.7,1.9 M28.2,24.4 M3.3,19.5c1,5.2,6,10.2,12,10.3 c6.1,0.1,10.4-5.4,11.7-10.3 M2.1,24.4 M8,21.5l-4.7-1.9l-2.2,4.4 M7.6,22.4 M4.7,21.3"/>
</svg>