<?xml version="1.0" encoding="utf-8"?>
<!-- Generator: Adobe Illustrator 22.0.1, SVG Export Plug-In . SVG Version: 6.00 Build 0)  -->
<svg version="1.1" id="Слой_1" xmlns="http://www.w3.org/2000/svg" xmlns:xlink="http://www.w3.org/1999/xlink" x="0px" y="0px" viewBox="0 0 29.8 32" style="enable-background:new 0 0 29.8 32;" xml:space="preserve">
	<g>
		<path class="st0" d="M26.6,4.6 M21.8,30c3.3-2.9,5.9-7.7,5.9-12.1c0.1-4-1.5-7.6-4.1-10.3l-0.4-0.4 M21.8,28.5 M12.5,18.6L22.9,29 M9.2,21.5H5.6l-3.7,3.7h3.4v3.4L9,24.9v-3.6 M1.5,7.5l11.3,11.4 M1.9,8.6 M22.8,6.9c-2.7-2.6-6.3-4.1-10.3-4.1 c-4.4,0-9.1,2.5-12,5.8 M25.8,3.9 M21.4,3.8 M28.3,6.3V2H24 M26.6,7.1 M8.6,21.8C8.6,21.8,28,2.4,28,2.4 M22.8,27.4 M26.6,17.9"/>
	</g>
</svg>