<svg version="1.1" xmlns="http://www.w3.org/2000/svg" xmlns:xlink="http://www.w3.org/1999/xlink" x="0px" y="0px" viewBox="0 0 32 32" enable-background="new 0 0 32 32" xml:space="preserve">
	<path stroke-miterlimit="10" d="M23.4,30.4c-2.4,0-8.3-3.1-13.3-9.8C5.5,14.4,3.2,9.9,3.2,6.8 c0-2.4,1.7-3.5,2.5-4.1L6,2.5c1-0.7,2.5-0.9,3.1-0.9c1,0,1.5,0.6,1.7,1.1C11,3.2,12.8,7.1,13,7.6c0.3,0.8,0.2,1.9-0.7,2.5l-0.2,0.1 c-0.4,0.3-1.3,0.9-1.4,1.6c-0.1,0.3,0.1,0.7,0.3,1.1c1.4,1.9,6,7.5,6.8,8.3c0.6,0.6,1.5,0.7,2,0.2c0.6-0.5,0.8-0.8,0.8-0.8l0.1-0.1 c0,0,0.5-0.4,1.2-0.4c0.5,0,1.1,0.2,1.6,0.5c1.4,0.9,4.5,3,4.5,3l0,0c0.4,0.3,1,1.3,0.3,2.6C27.8,27.7,25.6,30.4,23.4,30.4 L23.4,30.4z"/>
</svg>