<?xml version="1.0" encoding="utf-8"?>
<!-- Generator: Adobe Illustrator 22.0.1, SVG Export Plug-In . SVG Version: 6.00 Build 0)  -->
<svg version="1.1" xmlns="http://www.w3.org/2000/svg" xmlns:xlink="http://www.w3.org/1999/xlink" x="0px" y="0px" viewBox="0 0 32 32" style="enable-background:new 0 0 32 32;" xml:space="preserve">
	<path class="st0" d="M24,19.7h4.3v-8.5H3.7v8c0,5.6,4.5,10.1,10.1,10.1C19.3,29.3,23.7,25.1,24,19.7L24,19.7z M24,19.7v-8.5v1.1"/>
	<path class="st0" d="M24,29.3H3.7"/>
	<path class="st0" d="M10.1,3.2"/>
	<path class="st0" d="M9.7,8.5c0,0-0.1-5.6-0.1-5.6"/>
	<path class="st0" d="M13.8,8.5c0,0,0-7.1,0-7.1"/>
	<path class="st0" d="M18.1,8.5c0,0-0.1-5.6-0.1-5.6"/>
	<path class="st0" d="M19.5,9"/>
	<path class="st0" d="M9.2,9"/>
	<path class="st0" d="M10.1,8"/>
</svg>