<?xml version="1.0" encoding="utf-8"?>
<!-- Generator: Adobe Illustrator 22.0.1, SVG Export Plug-In . SVG Version: 6.00 Build 0)  -->
<svg version="1.1" xmlns="http://www.w3.org/2000/svg" xmlns:xlink="http://www.w3.org/1999/xlink" x="0px" y="0px" viewBox="0 0 32 32" style="enable-background:new 0 0 32 32;" xml:space="preserve">
	<path class="st0" d="M16,20.8c2.6,0,4.8-2.2,4.8-4.8s-2.2-4.8-4.8-4.8s-4.8,2.2-4.8,4.8S13.4,20.8,16,20.8z M19.2,2.7l-5.8,0v2.8 c-1,0.3-2,0.7-2.9,1.2l-2-2L4.7,8.5l2.1,2.1c-0.5,0.9-0.9,1.8-1.1,2.8h-3v5.3h3.1c0.3,1,0.7,1.9,1.2,2.7l-2.2,2.2l3.8,3.8l2.2-2.2 c0.8,0.5,1.7,0.8,2.6,1.1v3.2h5.3v-3.2c0.9-0.2,1.8-0.6,2.6-1.1l2.2,2.2l3.8-3.8l-2.2-2.2c0.5-0.8,0.9-1.7,1.2-2.7h3.1v-5.3h-3 c-0.2-1-0.6-1.9-1.1-2.8l2.1-2.1l-3.8-3.8l-2,2c-0.9-0.5-1.8-0.9-2.9-1.2V2.7l0,0L19.2,2.7z"/>
</svg>