<?xml version="1.0" encoding="utf-8"?>
<!-- Generator: Adobe Illustrator 22.0.1, SVG Export Plug-In . SVG Version: 6.00 Build 0)  -->
<svg version="1.1" xmlns="http://www.w3.org/2000/svg" xmlns:xlink="http://www.w3.org/1999/xlink" x="0px" y="0px" viewBox="0 0 29.4 31.4" style="enable-background:new 0 0 29.4 31.4;" xml:space="preserve">
	<g>
		<path class="st0" d="M12.9,4.8c0-1.8-1.4-3.5-3.2-3.5S6.5,2.7,6.5,4.4v6.7l-4.4,4.4c-1.2,1.2-1.2,3.2,0,4.4l6,6 c0.6,0.6,1.4,0.9,2.2,0.9s1.6-0.3,2.2-0.9l7.6-7.7h6.6L23.5,15l0,0l0,0L12.9,4.4"/>
		<path class="st0" d="M26,30c-1.3,0-2.4-1.1-2.4-2.4c0-0.1,0-0.2,0-0.3l0,0l0,0c0.2-1.6,1.4-3.7,2.3-5.1c1,1.4,2.2,3.5,2.4,5.1 c0,0.1,0,0.2,0,0.3C28.4,29,27.3,30,26,30z"/>
	</g>
	<line class="st0" x1="6.5" y1="11.1" x2="13.1" y2="4.5"/>
	<line class="st0" x1="12.7" y1="3.8" x2="13.1" y2="13.1"/>
</svg>