<svg width="32" height="28" viewBox="0 0 32 28" fill="none" xmlns="http://www.w3.org/2000/svg"><path d="M19.2 8.417 24 12.84v14.74h-3.2v-8.844H9.6l-3.2 4.422v4.423H3.2v-8.845l1.6-1.474V12.84L0 8.417l1.6-1.474 3.2 2.948H8v4.423c0 .39.169.766.469 1.042.3.277.707.432 1.131.432H16a1.67 1.67 0 0 0 1.131-.432c.3-.276.469-.651.469-1.042V9.89l1.6-1.474Zm8-4.422V1.047l-6.4 5.896 4.8 4.423 1.6-1.475 1.6 1.475L32 8.417l-4.8-4.422Zm-12 6.633L4 .31c-.432-.413-1.136-.413-1.6 0-.448.398-.448 1.046 0 1.474l11.2 10.318c.432.413 1.136.413 1.6 0 .448-.398.448-1.046 0-1.474Z" fill="#fff"/></svg>