<svg width="32" height="32" viewBox="0 0 32 32" fill="none" xmlns="http://www.w3.org/2000/svg"><path d="M18 21.333a2 2 0 1 1-4 0 2 2 0 0 1 4 0Z" fill="#fff"/><path d="m19.13.88 4.24 5.941 2.795-.953 2.552 7.465H30v16H2v-16h.68v-.013l.864.008L19.129.88Zm-6.6 12.453H25.9L24.517 9.29l-2.029.65-9.959 3.394Zm-2.078-2.11L20.733 7.72l-2.138-3-8.143 6.503ZM7.333 16H4.667v2.667A2.667 2.667 0 0 0 7.333 16Zm13.334 5.333a4.665 4.665 0 0 0-7.967-3.3 4.665 4.665 0 0 0 0 6.6 4.667 4.667 0 0 0 7.967-3.3Zm6.666 5.334V24a2.667 2.667 0 0 0-2.666 2.667h2.666ZM24.667 16a2.667 2.667 0 0 0 2.666 2.667V16h-2.666Zm-20 10.667h2.666A2.666 2.666 0 0 0 4.667 24v2.667Z" fill="#fff"/></svg>