<svg width="32" height="32" viewBox="0 0 32 32" fill="none" xmlns="http://www.w3.org/2000/svg"><path d="m25.472 24.747 1.664 4.053 1.664-4.053V9.813h-3.328v14.934Zm0-20.182H28.8V8.32h-3.328V4.565Zm-10.794 9.387-2.944-2.39-2.944 2.39h5.888Zm-7.254 1.536v5.333h3.584V18.22H12.5v2.602h3.542v-5.333h-8.62Z" fill="#fff"/><path d="M16.683 6.57H6.742V3.2H3.2v25.6h17.067V3.2h-3.541v3.37h-.043Zm.939 19.158H5.802v-1.493h11.82v1.493Zm-.086-3.456H5.931v-7.936l5.802-4.693 5.803 4.693v7.936Z" fill="#fff"/><path d="M8.277 3.2h6.955v1.877H8.277V3.2Z" fill="#fff"/></svg>