<svg width="42" height="42" viewBox="0 0 42 42" fill="none" xmlns="http://www.w3.org/2000/svg"><path d="M2 1.417 40 39.75M12.825 28.917s-4.474 0-7.258 4.955c-.882 1.57-1.089 3.411-1.089 5.213v1.498-8.325c0-3.005 1.078-5.908 3.035-8.173a12.301 12.301 0 0 1 7.612-4.15l.919-.128m-3.219 9.11 6.042 1.118a32.77 32.77 0 0 0 5.966.548h1.537l.413.417v3.403c0 1.459 0 2.43.743 3.889 0 0 .744 1.458 1.735 1.458M12.825 28.917s-2.092 2.04-3.106 6.08c-.226.9-.284 1.831-.284 2.76v2.826M2 13.917v5.833c0 1.326.522 2.598 1.452 3.536a4.935 4.935 0 0 0 3.505 1.464h.021m16.514-8.295a14.323 14.323 0 0 0 3.649-4.89 14.44 14.44 0 0 0 1.294-5.982c0 1.105.435 2.165 1.21 2.947a4.112 4.112 0 0 0 2.92 1.22H40v1.667a5.022 5.022 0 0 1-1.452 3.535 4.935 4.935 0 0 1-3.505 1.465h-1.652v7.5L32.5 33.5m-9.009-17.045-.013-.038m.013.038a14.187 14.187 0 0 1-4.03 2.462m4.145-2.117-.116-.345" stroke="#fff" stroke-width="3"/></svg>