<svg width="36" height="43" viewBox="0 0 36 43" fill="none" xmlns="http://www.w3.org/2000/svg"><path d="M29.556 42V26.072a4.542 4.542 0 0 0 3.142-1.247A4.166 4.166 0 0 0 34 21.816v-.608h-6.73c-1.754 0-3.174-1.361-3.174-3.04v4.736a7.913 7.913 0 0 1-1.012 3.866 8.327 8.327 0 0 1-2.798 2.95 8.328 8.328 0 0 0-2.798 2.95 7.912 7.912 0 0 0-1.012 3.866v4.613h-.698a3.182 3.182 0 0 1-2.2-.873 2.916 2.916 0 0 1-.911-2.106v-2.98m8 0h2.666v.498c0 1.49 0 2.482.8 3.971.002.004.8 1.49 1.867 1.49M5.556 42V30.935a3.33 3.33 0 0 0-1.042-2.407A3.637 3.637 0 0 0 2 27.53V13.913s2.667-1.703 7.111-1.703c4.445 0 7.111 1.702 7.111 1.702V26.68M8.844 8.806S6 7.103 6 4.976c0-.391.08-.778.237-1.14a2.97 2.97 0 0 1 .673-.964 3.12 3.12 0 0 1 1.008-.645 3.228 3.228 0 0 1 2.379 0c.377.149.72.368 1.008.645.289.276.517.604.674.965.156.36.236.748.236 1.139 0 2.127-2.837 3.83-2.837 3.83h-.534Z" stroke="#fff" stroke-width="3"/></svg>