<svg width="42" height="41" viewBox="0 0 42 41" fill="none" xmlns="http://www.w3.org/2000/svg"><path d="M20.174 30.297a8.777 8.777 0 0 0-1.995-5.56 9.115 9.115 0 0 0-5.107-3.119 9.265 9.265 0 0 0-5.979.69 8.989 8.989 0 0 0-4.226 4.197 8.723 8.723 0 0 0-.618 5.862A8.878 8.878 0 0 0 5.51 37.32a9.216 9.216 0 0 0 5.709 1.871 9.207 9.207 0 0 0 5.65-2.032m3.305-14.948V11.7h-1.936c-1.1 0-2.17.358-3.039 1.018a4.845 4.845 0 0 0-1.763 2.628l-1.596 6.087M35.87 40V24.868a4.176 4.176 0 0 0 2.92-1.184A4 4 0 0 0 40 20.825v-.577h-6.255c-1.63 0-2.95-1.294-2.95-2.888v4.499a7.647 7.647 0 0 1-.94 3.672 7.84 7.84 0 0 1-2.6 2.803 7.842 7.842 0 0 0-2.6 2.803 7.649 7.649 0 0 0-.94 3.672v4.382h-.65a2.923 2.923 0 0 1-2.044-.829 2.8 2.8 0 0 1-.847-2v-2.83m7.435 0h2.478v.472c0 1.415 0 2.357.743 3.772.002.004.744 1.415 1.735 1.415M19.926 8.465s-2.643-1.617-2.643-3.638c0-.75.304-1.469.845-1.999A2.92 2.92 0 0 1 20.171 2c.766 0 1.5.298 2.042.828a2.8 2.8 0 0 1 .846 1.999c0 2.021-2.637 3.638-2.637 3.638h-.496Z" stroke="#fff" stroke-width="3"/></svg>