<svg width="34" height="25" viewBox="0 0 34 25" fill="none" xmlns="http://www.w3.org/2000/svg"><path d="M23.712 8.9a1.232 1.232 0 0 1-.747 1.135 1.193 1.193 0 0 1-1.318-.267 1.233 1.233 0 0 1-.262-1.337c.091-.225.246-.416.445-.551a1.197 1.197 0 0 1 1.528.152c.227.23.354.543.354.868Zm4.234-1.227c-.239 0-.473.072-.672.207a1.224 1.224 0 0 0-.445.55 1.244 1.244 0 0 0 .262 1.338 1.204 1.204 0 0 0 1.318.267c.221-.093.41-.25.543-.453a1.24 1.24 0 0 0-.15-1.55 1.201 1.201 0 0 0-.856-.36Zm5.16 2.008a1.461 1.461 0 0 1-.925.112v2.79a3.405 3.405 0 0 1-.976 2.386 3.306 3.306 0 0 1-2.351.99h-7.259a3.306 3.306 0 0 1-2.351-.99 3.405 3.405 0 0 1-.976-2.386v-2.79c-.095.02-.193.03-.29.03-.22 0-.436-.05-.635-.142a1.499 1.499 0 0 1-.722-.686 1.532 1.532 0 0 1-.14-.994l1.242-6.751a1.547 1.547 0 0 1 .67-1.008 1.499 1.499 0 0 1 1.183-.196l.035.01 3.932 1.171h3.367L30.842.056l.036-.01a1.49 1.49 0 0 1 1.183.197 1.524 1.524 0 0 1 .67 1.009l1.241 6.752a1.53 1.53 0 0 1-.142.993 1.5 1.5 0 0 1-.724.684Zm-4.537-7.03 3.384 4.44-.95-5.165-2.434.725Zm-10.074 4.44 3.385-4.44-2.435-.725-.95 5.165Zm11.87 5.492V8.017l-3.77-4.947h-2.739l-3.772 4.947v4.566c0 .407.16.797.443 1.085.284.288.668.45 1.07.45h2.721v-.537l-.943-.959a.929.929 0 0 1 0-1.304.902.902 0 0 1 1.285 0l.565.575.568-.577a.902.902 0 0 1 1.286 0 .93.93 0 0 1 0 1.304l-.946.96v.538h2.722a1.5 1.5 0 0 0 1.069-.45c.283-.288.443-.678.443-1.085ZM15.398 8.224a1.492 1.492 0 0 0-1.691.38l-1.134 1.327A8.624 8.624 0 0 0 8.169 8.72a8.624 8.624 0 0 0-4.404 1.21L2.63 8.604a1.506 1.506 0 0 0-.818-.472c-.294-.06-.6-.03-.877.086a1.517 1.517 0 0 0-.681.567A1.55 1.55 0 0 0 0 9.641v6.752c0 4.23 3.663 7.672 8.166 7.672 4.502 0 8.165-3.442 8.165-7.672V9.64c0-.303-.089-.6-.255-.852a1.517 1.517 0 0 0-.678-.565Zm-.881 8.169c0 2.932-2.37 5.365-5.444 5.77v-1.09l.944-.958a.929.929 0 0 0 0-1.305.902.902 0 0 0-1.285 0l-.566.575-.568-.577a.902.902 0 0 0-1.286 0 .93.93 0 0 0 0 1.304l.946.961v1.093c-3.073-.406-5.443-2.84-5.443-5.77v-5.93l1.099 1.283a.898.898 0 0 0 1.226.135 6.473 6.473 0 0 1 1.606-.882v1.708c0 .244.096.479.266.651a.9.9 0 0 0 1.283 0 .927.927 0 0 0 .266-.65v-2.122a6.837 6.837 0 0 1 1.21 0v2.121c0 .244.095.479.265.651a.9.9 0 0 0 1.283 0 .927.927 0 0 0 .266-.65v-1.709a6.49 6.49 0 0 1 1.607.882.898.898 0 0 0 1.225-.135l1.1-1.284v5.928Zm-8.468.307c0 .243-.071.48-.204.682a1.214 1.214 0 0 1-.543.452 1.194 1.194 0 0 1-1.319-.266 1.233 1.233 0 0 1-.262-1.338c.092-.224.247-.416.446-.55a1.197 1.197 0 0 1 1.527.152c.227.23.355.542.355.868Zm6.653 0a1.232 1.232 0 0 1-.747 1.134 1.194 1.194 0 0 1-1.318-.266 1.244 1.244 0 0 1-.262-1.338c.091-.224.246-.416.445-.55a1.197 1.197 0 0 1 1.528.152c.227.23.354.542.354.868Z" fill="#fff"/></svg>