<svg version="1.1" id="Layer_1" xmlns="http://www.w3.org/2000/svg" x="0" y="0" viewBox="0 0 32 32" style="enable-background:new 0 0 32 32" xml:space="preserve"><path d="M15.9 16.4c-1.7 0-3.1-.6-4.3-1.9-1.2-1.3-1.8-2.8-1.8-4.6s.6-3.3 1.8-4.6c1.2-1.3 2.6-1.9 4.3-1.9 1.7 0 3.1.6 4.3 1.9C21.4 6.7 22 8.2 22 10s-.6 3.3-1.8 4.6c-1.2 1.2-2.6 1.8-4.3 1.8zm-12.1 13v-4.5c0-.9.2-1.8.7-2.5.4-.8 1-1.4 1.8-1.8 1.6-.8 3.1-1.5 4.8-1.9 1.6-.4 3.3-.6 4.9-.6 1.7 0 3.3.2 4.9.6 1.6.4 3.2 1 4.8 1.9.7.4 1.3 1 1.8 1.8.4.8.7 1.6.7 2.5v4.5H3.8zm3-3.3H25v-1.3c0-.3-.1-.6-.2-.8-.1-.2-.3-.4-.5-.6-1.4-.7-2.7-1.3-4.1-1.6-1.4-.4-2.8-.5-4.2-.5-1.4 0-2.8.2-4.2.5-1.4.4-2.8.9-4.1 1.6-.3.2-.5.4-.7.6-.1.2-.2.5-.2.8v1.3zm9.1-12.9c.8 0 1.5-.3 2.1-.9.6-.6.9-1.4.9-2.3 0-.9-.3-1.7-.9-2.3-.6-.6-1.3-.9-2.1-1-.8 0-1.5.3-2.1 1-.6.6-.9 1.4-.9 2.3 0 .9.3 1.6.9 2.3.6.6 1.3.9 2.1.9z" style="fill:#fff"/></svg>