<svg width="32" height="28" viewBox="0 0 32 28" fill="none" xmlns="http://www.w3.org/2000/svg"><path d="M7.55 15.652h1.842v1.736H7.55v-1.736Zm7.127 0h1.843v1.736h-1.843v-1.736ZM7.55 8.722h1.842v1.736H7.55V8.722Zm7.127 0h1.843v1.736h-1.843V8.722ZM10.382.924h10.51v2.361h-10.51V.925Zm11.667 17.089h1.736v3.366h-1.736v-3.366Zm0-9.291h1.736v7.585h-1.736V8.722Z" fill="#fff"/><path d="M3.513 21.378h16.8V6.986h5.193v14.392h2.254V4.153h1.736v-1.72h-6.884v2.573H8.662V2.432h-6.87v1.721H3.53v17.225h-.016Zm9.443-14.392h5.285v5.194h-5.285V6.986Zm0 6.93h5.285v5.193h-5.285v-5.193Zm-7.128-6.93h5.285v5.194H5.828V6.986Zm0 6.93h5.285v5.193H5.828v-5.193ZM.924 23.115h29.44v3.32H.924v-3.32Z" fill="#fff"/></svg>