<svg width="28" height="24" viewBox="0 0 28 24" fill="none" xmlns="http://www.w3.org/2000/svg"><g clip-path="url(#clip0_79_2442)" fill="#fff"><path d="M18.992 16.366c.072-.157 0-.345-.142-.44l-8.046-5.622c-.498-.346-1.246-.346-1.78 0L.942 15.927c-.142.094-.178.282-.107.44a.5.5 0 0 0 .428.282h17.302a.496.496 0 0 0 .427-.283Zm-1.139.692H1.94s-.036 0-.036.031v6.88s0 .031.036.031h6.373s.035 0 .035-.031v-3.267c0-.315.285-.566.641-.566h1.816c.356 0 .64.252.64.566v3.267s0 .031.036.031h6.337s.036 0 .036-.031v-6.88s0-.031-.036-.031h.036Z"/><path d="M27.501 1.382c-2.456-1.759-5.945-1.822-8.509-.157-1.673-.314-3.453-.126-4.984.534-1.566.691-2.813 1.822-3.525 3.204 1.71-1.162 3.81-1.79 5.91-1.79-.783.91-1.281 2.01-1.353 3.173-.106 1.193.214 2.356.89 3.392.107-2.293 1.318-4.398 3.311-5.843 4.166 4.524 4.593 10.9 1.069 15.864-.606-.125-1.318-.188-2.03-.22v4.367s0 .031.036.031h8.758a10.858 10.858 0 0 0-3.56-3.047c1.495-2.827 1.994-5.969 1.46-9.047-.535-3.047-2.03-5.874-4.38-8.168 2.457.597 4.664 1.948 6.16 3.739-.107-1.194-.606-2.325-1.425-3.267-.783-.911-1.85-1.634-3.061-2.105a10.615 10.615 0 0 1 4.948-.628l.285-.032Z"/><path d="M19.135 5.717c-.392 0-.748.283-.748.66 0 .377.32.66.748.66.427 0 .747-.283.747-.66 0-.377-.32-.66-.747-.66Zm.285 1.885c0 .346.32.66.748.66.427 0 .747-.283.747-.66 0-.377-.32-.66-.747-.66-.428 0-.748.283-.748.66Zm-1.745.158c0 .345.32.659.748.659.427 0 .748-.283.748-.66 0-.377-.32-.66-.748-.66-.427 0-.748.283-.748.66Z"/></g><defs><clipPath id="clip0_79_2442"><path fill="#fff" transform="translate(.8)" d="M0 0h26.702v24H0z"/></clipPath></defs></svg>