<svg width="32" height="32" viewBox="0 0 32 32" fill="none" xmlns="http://www.w3.org/2000/svg"><path d="M17.5 2.464v2.679h1.97c.608 0 1.206.171 1.734.495l2.58 1.577c.077.047.16.07.248.07H28.5c.398 0 .78.17 1.06.471.282.302.44.71.44 1.137 0 .426-.158.835-.44 1.136-.28.302-.662.471-1.06.471h-.854l4.222 10.054c.125.298.162.629.107.95-.055.32-.2.615-.415.846l-1.06-1.136 1.058 1.138-.002.004-.004.005-.012.013-.012.01-.02.022-.09.085c-.423.379-.88.7-1.372.965-.934.501-2.286.973-4.046.973a8.505 8.505 0 0 1-4.046-.973 6.976 6.976 0 0 1-1.372-.965l-.09-.085-.032-.032-.012-.013-.008-.009v-.002a1.647 1.647 0 0 1-.415-.846 1.712 1.712 0 0 1 .107-.95L24.356 10.5h-.324c-.61 0-1.208-.17-1.736-.495l-2.58-1.577a.474.474 0 0 0-.248-.07H17.5v20.356h5c.398 0 .78.17 1.06.471.282.301.44.71.44 1.136 0 .427-.158.835-.44 1.137-.28.301-.662.47-1.06.47h-13c-.398 0-.78-.169-1.06-.47A1.667 1.667 0 0 1 8 30.32c0-.426.158-.835.44-1.136.28-.301.662-.47 1.06-.47h5V8.356h-1.968a.474.474 0 0 0-.248.07l-2.578 1.58a3.347 3.347 0 0 1-1.738.493h-.324l4.224 10.054c.125.298.162.629.107.95-.055.32-.2.615-.415.846l-1.06-1.136 1.058 1.138-.002.004-.004.005-.012.013-.032.032-.09.085c-.423.379-.88.7-1.372.965-.934.501-2.286.973-4.046.973a8.505 8.505 0 0 1-4.046-.973 6.974 6.974 0 0 1-1.372-.965l-.09-.085-.032-.032-.012-.013-.008-.009v-.002a1.647 1.647 0 0 1-.415-.846 1.712 1.712 0 0 1 .107-.95L4.356 10.5H3.5c-.398 0-.78-.17-1.06-.47A1.667 1.667 0 0 1 2 8.892c0-.426.158-.835.44-1.137.28-.301.662-.47 1.06-.47h4.468a.474.474 0 0 0 .25-.071l2.576-1.58a3.348 3.348 0 0 1 1.738-.492H14.5V2.464c0-.426.158-.835.44-1.136.28-.302.662-.47 1.06-.47s.78.168 1.06.47c.282.301.44.71.44 1.136Zm5.89 18.165c.57.29 1.436.585 2.61.585s2.04-.295 2.61-.585L26 14.415l-2.61 6.214Zm-20 0c.57.29 1.436.585 2.61.585s2.04-.295 2.61-.585L6 14.415l-2.61 6.214Z" fill="#fff"/></svg>