<svg width="32" height="28" viewBox="0 0 32 28" fill="none" xmlns="http://www.w3.org/2000/svg"><path fill-rule="evenodd" clip-rule="evenodd" d="M28.8 0a3.27 3.27 0 0 1 2.263.9c.6.577.937 1.36.937 2.175v21.524c0 .815-.337 1.597-.937 2.174-.6.577-1.414.9-2.263.9H3.2a3.267 3.267 0 0 1-2.263-.9A3.015 3.015 0 0 1 0 24.6V3.075C0 2.259.337 1.477.937.9A3.27 3.27 0 0 1 3.2 0h25.6Zm0 3.075H3.2v21.524h25.6V3.075ZM24 18.449c.408 0 .8.15 1.097.42.296.269.475.636.498 1.027a1.5 1.5 0 0 1-.37 1.077 1.62 1.62 0 0 1-1.038.54l-.187.011H8c-.408 0-.8-.15-1.097-.42a1.513 1.513 0 0 1-.498-1.027A1.499 1.499 0 0 1 6.775 19a1.62 1.62 0 0 1 1.038-.54L8 18.45h16ZM12.8 6.15a3.27 3.27 0 0 1 2.263.901c.6.577.937 1.36.937 2.175V12.3c0 .816-.337 1.598-.937 2.175-.6.576-1.414.9-2.263.9H9.6a3.267 3.267 0 0 1-2.263-.9A3.015 3.015 0 0 1 6.4 12.3V9.225c0-.816.337-1.598.937-2.175a3.27 3.27 0 0 1 2.263-.9h3.2ZM24 12.3c.424 0 .831.162 1.131.45.3.289.469.68.469 1.088 0 .408-.169.799-.469 1.087-.3.288-.707.45-1.131.45h-4.8c-.424 0-.831-.162-1.131-.45-.3-.288-.469-.68-.469-1.087 0-.408.169-.799.469-1.087.3-.289.707-.45 1.131-.45H24ZM12.8 9.225H9.6v3.074h3.2V9.225ZM24 6.15c.408 0 .8.15 1.097.42.296.268.475.636.498 1.027a1.5 1.5 0 0 1-.37 1.077 1.62 1.62 0 0 1-1.038.54l-.187.01h-4.8c-.408 0-.8-.15-1.097-.419a1.513 1.513 0 0 1-.498-1.028 1.5 1.5 0 0 1 .37-1.077 1.62 1.62 0 0 1 1.038-.54l.187-.01H24Z" fill="#fff"/></svg>