<svg width="60" height="60" viewBox="0 0 60 60" fill="none" xmlns="http://www.w3.org/2000/svg"><path d="M44 42s2 0 2-2-2-8-10-8-10 6-10 8 2 2 2 2h16Zm-15.956-2L28 39.992c.002-.528.334-2.06 1.52-3.44C30.624 35.258 32.564 34 36 34c3.434 0 5.374 1.26 6.48 2.552 1.186 1.38 1.516 2.914 1.52 3.44l-.016.004-.028.004H28.044ZM36 28a4 4 0 1 0 0-8 4 4 0 0 0 0 8Zm6-4a6 6 0 1 1-12.002 0A6 6 0 0 1 42 24Zm-14.128 8.56c-.8-.25-1.625-.416-2.46-.494-.47-.046-.94-.068-1.412-.066-8 0-10 6-10 8 0 1.333.667 2 2 2h8.432A4.48 4.48 0 0 1 24 40c0-2.02.754-4.084 2.18-5.808a10.583 10.583 0 0 1 1.692-1.632ZM23.84 34A11 11 0 0 0 22 40h-6c0-.52.328-2.06 1.52-3.448 1.09-1.272 2.984-2.512 6.32-2.55V34ZM17 25a6 6 0 1 1 12 0 6 6 0 0 1-12 0Zm6-4a4 4 0 1 0 0 8 4 4 0 0 0 0-8Z" fill="#fff"/></svg>