<svg width="40" height="40" viewBox="0 0 40 40" fill="none" xmlns="http://www.w3.org/2000/svg"><path d="m13.795 22.306-1.772-1.775-1.773 1.775m15.955-4.58 1.772 1.777 1.773-1.776" stroke="#fff" stroke-width="1.5" stroke-linecap="round" stroke-linejoin="round"/><path d="M27.977 19.503a7.996 7.996 0 0 0-4.924-7.382A7.968 7.968 0 0 0 20 11.513a7.9 7.9 0 0 0-2.97.577 7.98 7.98 0 0 0-4.555 4.75m-.452 3.69a8 8 0 0 0 1.827 5.082 7.97 7.97 0 0 0 13.551-2.107" stroke="#fff" stroke-width="1.5" stroke-linecap="round" stroke-linejoin="round"/><path d="M17.58 21.978A2.28 2.28 0 0 0 20 24.054c1.952 0 2.42-1.123 2.42-2.076 0-.953-.807-1.963-2.42-1.963s-2.42-.638-2.42-1.938a2.22 2.22 0 0 1 2.42-2.1 2.33 2.33 0 0 1 2.42 2.1M20 25.264v-1.051m0-9.45v1.21" stroke="#fff" stroke-width="1.5" stroke-linecap="round" stroke-linejoin="round"/></svg>