<svg width="40" height="40" viewBox="0 0 40 40" fill="none" xmlns="http://www.w3.org/2000/svg"><path d="m25.92 25.967 1.04 2.534L28 25.966v-9.333h-2.08v9.333Zm0-12.613H28V15.7h-2.08v-2.346Zm-6.747 5.866-1.84-1.493-1.84 1.493h3.68Zm-4.533.96v3.333h2.24v-1.627h.933v1.627h2.214V20.18H14.64Z" fill="#fff"/><path d="M20.427 14.607h-6.214V12.5H12v16h10.667v-16h-2.214v2.107h-.026Zm.586 11.973h-7.386v-.933h7.386v.933Zm-.053-2.16h-7.253v-4.96l3.626-2.933 3.627 2.933v4.96Z" fill="#fff"/><path d="M15.173 12.5h4.347v1.173h-4.347V12.5Z" fill="#fff"/></svg>