<svg width="60" height="60" viewBox="0 0 60 60" fill="none" xmlns="http://www.w3.org/2000/svg"><path d="M38.707 28.843a.847.847 0 0 0 .28-.63.85.85 0 0 0-.292-.624 1.062 1.062 0 0 0-.699-.262 1.066 1.066 0 0 0-.703.251L30 34.103l-3.293-2.946a1.066 1.066 0 0 0-.704-.251 1.062 1.062 0 0 0-.698.262.85.85 0 0 0-.293.625.848.848 0 0 0 .28.63L30 36.632l8.707-7.79Z" fill="#fff"/><path fill-rule="evenodd" clip-rule="evenodd" d="M44 21.947v18.79c0 .712-.316 1.395-.879 1.898A3.188 3.188 0 0 1 41 43.42H23a3.188 3.188 0 0 1-2.121-.786c-.563-.503-.879-1.186-.879-1.898V15.684c0-.712.316-1.394.879-1.898A3.188 3.188 0 0 1 23 13h11l10 8.947Zm-10 .895a1.06 1.06 0 0 1-.707-.262.85.85 0 0 1-.293-.633V14.79H23c-.265 0-.52.094-.707.262a.85.85 0 0 0-.293.632v25.053a.85.85 0 0 0 .293.633c.187.167.442.262.707.262h18c.265 0 .52-.095.707-.262a.85.85 0 0 0 .293-.633V22.842h-8Zm1-6.417 5.172 4.628H35v-4.628Z" fill="#fff"/><path d="M18 18.369v24.158c0 .712.316 1.394.879 1.898A3.188 3.188 0 0 0 21 45.21h19V47H21c-1.326 0-2.598-.472-3.535-1.311C16.527 44.85 16 43.713 16 42.527V18.369h2Z" fill="#fff"/></svg>