<svg width="60" height="60" viewBox="0 0 60 60" fill="none" xmlns="http://www.w3.org/2000/svg"><g clip-path="url(#clip0_476_315)" fill="#fff"><path d="M30.005 35.067c-.365 0-.685-.06-.961-.18a1.541 1.541 0 0 1-.648-.501 1.235 1.235 0 0 1-.234-.748c0-.24.051-.455.154-.642.106-.187.253-.334.44-.44.192-.107.412-.16.662-.16l.106.14c-.262 0-.485-.043-.668-.127a.971.971 0 0 1-.42-.381 1.157 1.157 0 0 1-.14-.581c0-.267.069-.499.207-.695.142-.2.34-.354.594-.46a2.22 2.22 0 0 1 .901-.167c.348 0 .648.055.902.167.254.106.45.26.588.46.142.196.213.428.213.695 0 .223-.048.416-.146.581a.93.93 0 0 1-.415.38 1.6 1.6 0 0 1-.674.128l.113-.14c.25 0 .468.053.655.16.191.107.338.253.44.44.108.187.161.403.161.648 0 .285-.078.535-.234.748-.151.214-.365.38-.64.501a2.42 2.42 0 0 1-.956.174ZM30 34.279c.236 0 .418-.063.547-.187.134-.125.2-.3.2-.528 0-.222-.069-.396-.206-.52a.776.776 0 0 0-.541-.188c-.228 0-.41.063-.548.187-.134.125-.2.299-.2.521 0 .232.066.41.2.534.133.12.316.18.547.18Zm0-2.144a.634.634 0 0 0 .447-.16.6.6 0 0 0 .174-.455c0-.191-.058-.34-.174-.447a.643.643 0 0 0-.454-.16.619.619 0 0 0-.448.167.582.582 0 0 0-.167.44.6.6 0 0 0 .174.455c.12.106.27.16.448.16Zm-7.97 10.913.942-2.084.174-.287.881-2.404h1.069l-2.064 4.775H22.03Zm.722-1.436-1.31-3.34h1.083l1.075 3.046-.848.294Zm4.23.133c-.379 0-.708-.073-.989-.22a1.646 1.646 0 0 1-.654-.628 1.836 1.836 0 0 1-.227-.921c0-.352.075-.66.227-.922.155-.267.371-.474.648-.621a1.97 1.97 0 0 1 .961-.227c.352 0 .657.071.915.214.258.142.459.34.601.594.143.254.214.552.214.895a1.923 1.923 0 0 1-.027.367H25.7v-.661h2.144l-.174.12c0-.276-.066-.478-.2-.608-.129-.133-.307-.2-.534-.2-.263 0-.468.09-.615.267-.142.178-.213.445-.213.802 0 .347.07.605.213.774.147.17.366.254.655.254.16 0 .298-.026.414-.08a.53.53 0 0 0 .26-.26h.942c-.111.33-.303.59-.574.781-.267.187-.612.28-1.035.28Zm4.304-.066a2.173 2.173 0 0 1-.06-.314 4.923 4.923 0 0 1-.014-.388h-.026v-1.61a.389.389 0 0 0-.14-.32c-.09-.08-.223-.12-.401-.12a.826.826 0 0 0-.408.087.413.413 0 0 0-.193.254h-.956c.045-.307.203-.561.475-.762.271-.2.643-.3 1.115-.3.49 0 .864.109 1.122.327.258.218.387.532.387.942v1.502c0 .112.007.225.02.341.018.111.045.232.08.36h-1.001Zm-1.189.066c-.338 0-.608-.084-.808-.253a.865.865 0 0 1-.3-.688c0-.316.117-.57.353-.762.24-.195.575-.322 1.002-.38l.995-.14v.58l-.828.128c-.178.026-.31.075-.394.146a.364.364 0 0 0-.127.294c0 .112.04.196.12.254.08.058.187.087.32.087a.86.86 0 0 0 .535-.167c.147-.116.22-.25.22-.4l.094.533a1.15 1.15 0 0 1-.447.575 1.33 1.33 0 0 1-.735.194Zm2.86-.066v-3.406h.982v.801h.02v2.605h-1.002Zm1.002-1.777-.087-.808c.08-.29.212-.51.394-.661.183-.151.41-.227.682-.227.084 0 .146.009.187.027v.935a.26.26 0 0 0-.094-.014 1.376 1.376 0 0 0-.147-.007c-.32 0-.556.058-.708.174-.151.111-.227.305-.227.581Zm2.996 1.843c-.499 0-.895-.1-1.189-.3a1.053 1.053 0 0 1-.48-.828h.894a.47.47 0 0 0 .227.347c.134.076.317.114.548.114.21 0 .36-.03.454-.087a.293.293 0 0 0 .147-.26.23.23 0 0 0-.087-.194c-.053-.05-.153-.09-.3-.12l-.548-.114c-.405-.085-.703-.212-.895-.38a.861.861 0 0 1-.287-.669c0-.33.127-.585.38-.768.254-.187.608-.28 1.063-.28.45 0 .808.091 1.075.274a.952.952 0 0 1 .44.748h-.894a.343.343 0 0 0-.187-.26c-.107-.063-.259-.094-.455-.094-.178 0-.311.026-.4.08a.233.233 0 0 0-.127.214c0 .08.035.144.107.193.071.045.189.085.354.12l.614.127c.343.072.601.205.775.401a.966.966 0 0 1 .267.681.905.905 0 0 1-.394.782c-.258.182-.626.273-1.102.273Z"/><path d="M22 13c.303 0 .594.12.808.332.214.212.335.5.335.801v3.4h13.714v-3.4c0-.3.12-.588.335-.801a1.148 1.148 0 0 1 1.616 0c.214.212.335.5.335.801v3.4h4.19c1.472 0 2.667 1.185 2.667 2.645v24.178c0 .7-.281 1.373-.781 1.87a2.68 2.68 0 0 1-1.886.774H16.667a2.678 2.678 0 0 1-1.886-.775 2.634 2.634 0 0 1-.781-1.87V20.179c0-1.46 1.195-2.645 2.667-2.645h4.19v-3.4c0-.3.12-.588.335-.801.214-.213.505-.332.808-.332Zm21.714 14.356H16.286v17c0 .208.17.377.38.377h26.667a.383.383 0 0 0 .381-.377v-17ZM16.667 19.8a.383.383 0 0 0-.381.378v4.91h27.428v-4.91a.376.376 0 0 0-.38-.378H16.666Z"/></g><defs><clipPath id="clip0_476_315"><path fill="#fff" d="M0 0h60v60H0z"/></clipPath></defs></svg>