<svg width="40" height="41" viewBox="0 0 40 41" fill="none" xmlns="http://www.w3.org/2000/svg"><path d="m26.963 15.155-.892-.838v-.572c0-.358.015-.563.06-.704.042-.132.113-.214.252-.321a.874.874 0 0 1 .936-.072h.002c.08.04.202.145.263.228l.001.001.11.146.013 1.518.008 1.32-.753-.706ZM20.005 30.54c-3.032 0-4.742-.002-5.712-.012a27.812 27.812 0 0 1-.97-.02 2.778 2.778 0 0 1-.202-.016.343.343 0 0 1-.071-.014h-.001a.88.88 0 0 1-.468-.42c-.029-.057-.053-.125-.064-.724a248.84 248.84 0 0 1-.013-3.744l.004-4.298 3.762-3.589 3.726-3.557.356.333v.002c.23.214 1.937 1.842 3.793 3.618l3.341 3.19v4.306c0 1.295-.004 2.394-.011 3.177a71.35 71.35 0 0 1-.022 1.172.83.83 0 0 1-.004.068v.008a.926.926 0 0 1-.194.247c-.095.09-.2.165-.283.199h-.002c-.028.013-.069.027-.222.038-.154.01-.412.019-.871.024-.916.011-2.623.012-5.872.012Zm8.596-4.58.007-4.117.162.017h.003c.185.018.407.01.625-.036h-.002c.575-.111.961-.338 1.3-.762h.001a1.91 1.91 0 0 0 .198-2.035l-.07-.129a1.299 1.299 0 0 0-.132-.16 9.504 9.504 0 0 0-.242-.256c-.192-.196-.442-.44-.701-.683l-.906-.857-.013-2.015-.014-2.059v-.024l-.01-.02-.149-.289c-.58-1.14-2.121-1.392-3.077-.549l-.09.085c-.326.322-.475.63-.533 1.094v.001l-.01.082-1.727-1.639a85.639 85.639 0 0 0-1.476-1.374 16.414 16.414 0 0 0-.428-.376 1.98 1.98 0 0 0-.239-.18v-.001a2.286 2.286 0 0 0-1.592-.22 2.018 2.018 0 0 0-.359.117 1.943 1.943 0 0 0-.39.247c-.303.237-.755.66-1.611 1.465h-.001c-.453.428-.87.83-1.18 1.132a25.76 25.76 0 0 0-.482.486 1.123 1.123 0 0 0-.034.04c-.007.008-.02.022-.028.037v.004a.458.458 0 0 0 .058.478c.1.13.267.213.459.214l.198.004h.041l.03-.028 1.62-1.525c.445-.419.868-.807 1.19-1.096a24.712 24.712 0 0 1 .518-.451.918.918 0 0 1 .046-.035l.085-.033c.098-.029.226-.044.362-.041.18.003.35.036.452.09l.036.028.098.082c.08.07.191.17.328.294.273.248.649.595 1.092 1.008a534.05 534.05 0 0 1 3.195 3.007 534.586 534.586 0 0 1 3.172 3.03c.435.42.8.775 1.062 1.034a22.033 22.033 0 0 1 .396.403c.023.026.03.035.03.033a.815.815 0 0 1-.025.876 1 1 0 0 1-.716.434l-.139.009a.974.974 0 0 1-.245-.023.651.651 0 0 1-.1-.034l-.119-.06a.926.926 0 0 1-.096-.074 8.792 8.792 0 0 1-.22-.19 51.088 51.088 0 0 1-.785-.72 379.499 379.499 0 0 1-3.045-2.886 1999.804 1999.804 0 0 0-3.685-3.51l-.249-.233-.07-.065a.621.621 0 0 0-.037-.03v-.001a.537.537 0 0 0-.269-.094.711.711 0 0 0-.29.026l-.006.002a.104.104 0 0 0-.024.014c-.003.002-.008.005-.01.008l-.022.018a188.165 188.165 0 0 0-1.207 1.126c-.742.7-1.754 1.661-2.857 2.714a371.881 371.881 0 0 1-3.127 2.963c-.339.316-.593.548-.771.706a6.774 6.774 0 0 1-.273.229c-.007.005-.014.01-.02.012a.05.05 0 0 0-.006.005h-.002a1.04 1.04 0 0 1-.444.1.988.988 0 0 1-.436-.087c-.493-.235-.683-.773-.459-1.22 0 0 .002-.005.009-.014l.026-.033c.023-.027.056-.062.096-.105.08-.086.192-.201.332-.341.28-.28.67-.657 1.133-1.095.422-.397.812-.77 1.099-1.049a27.445 27.445 0 0 0 .447-.445l.031-.035c.006-.007.018-.02.025-.034a.426.426 0 0 0 .058-.308.557.557 0 0 0-.179-.281.59.59 0 0 0-.322-.17.492.492 0 0 0-.333.089v-.001a.64.64 0 0 0-.068.053c-.03.025-.068.06-.114.101-.094.083-.22.2-.372.339-.302.279-.703.653-1.13 1.055-.85.8-1.303 1.233-1.555 1.539a1.64 1.64 0 0 0-.26.41 1.9 1.9 0 0 0-.11.404v.001c-.147.804.307 1.666 1.072 2.058h.001c.33.167.857.266 1.219.225l.16-.017.01 4.096.014 4.207v.021l.008.018.107.25c.069.16.206.344.36.507.156.164.338.316.5.405.109.06.188.115.354.153.16.037.403.059.855.073.907.03 2.687.027 6.407.027 3.013 0 4.73-.002 5.725-.012a32.43 32.43 0 0 0 1.022-.02 2.1 2.1 0 0 0 .384-.04h-.001a1.936 1.936 0 0 0 1.303-1.005l.147-.289.01-.02.002-.024.014-4.23Z" fill="#fff" stroke="#fff" stroke-width=".2"/><mask id="path-2-inside-1_476_286" fill="#fff"><path d="M18.154 19.212c-.701.108-1.338.731-1.578 1.548-.056.189-.083.425-.079.747v.473h-.374c-.327 0-.406.017-.618.13-.43.218-.688.554-.817 1.06-.083.34-.088.581-.004.946.166.718.65 1.281 1.273 1.474l.217.07-.092.244c-.116.305-.157.95-.083 1.311.189.907.964 1.676 1.966 1.947.53.142 1.25.09 1.8-.133l.226-.09.337.12c1.504.546 3.128-.18 3.613-1.62a2.471 2.471 0 0 0-.01-1.475l-.115-.309.12-.03c.24-.052.577-.24.785-.439.844-.808.863-2.217.041-2.905-.281-.236-.586-.335-.978-.314l-.3.013.028-.344c.064-.842-.314-1.68-.95-2.127-.472-.331-1.104-.408-1.602-.198a1.972 1.972 0 0 0-.813.615l-.142.202-.074-.108c-.416-.593-1.113-.91-1.777-.808Zm.678.972c.365.215.586.705.586 1.28 0 .58-.221 1.062-.595 1.29-.581.36-1.227-.103-1.394-.997-.133-.705.231-1.492.771-1.668.222-.069.402-.043.632.095Zm3.083-.047c.194.09.438.378.554.644.152.361.152 1.006-.005 1.371-.13.314-.452.636-.701.7-.337.087-.67-.064-.905-.408-.563-.825-.235-2.204.563-2.376a.753.753 0 0 1 .494.069ZM16.446 22.9c.333.19.531.585.536 1.062.004.962-.882 1.134-1.31.253-.135-.28-.144-.825-.02-1.053.18-.33.495-.434.794-.262Zm7.716.026c.273.21.36.735.199 1.169-.157.425-.392.657-.716.688-.622.064-.853-.95-.369-1.634.236-.33.623-.43.886-.223Zm-3.544.619c.59.21 1.006.653 1.154 1.242.032.137.092.25.157.292.05.034.226.142.383.236.877.53 1.084 1.616.452 2.412-.53.67-1.638.86-2.386.4-.295-.181-.373-.181-.794.017-.498.236-.82.288-1.269.202-.567-.112-.992-.413-1.264-.907-.138-.241-.148-.288-.148-.71 0-.403.014-.477.13-.713.147-.296.502-.649.807-.79.24-.117.36-.25.402-.46.12-.602.733-1.17 1.407-1.303.268-.052.697-.013.97.082Z"/></mask><path d="M18.154 19.212c-.701.108-1.338.731-1.578 1.548-.056.189-.083.425-.079.747v.473h-.374c-.327 0-.406.017-.618.13-.43.218-.688.554-.817 1.06-.083.34-.088.581-.004.946.166.718.65 1.281 1.273 1.474l.217.07-.092.244c-.116.305-.157.95-.083 1.311.189.907.964 1.676 1.966 1.947.53.142 1.25.09 1.8-.133l.226-.09.337.12c1.504.546 3.128-.18 3.613-1.62a2.471 2.471 0 0 0-.01-1.475l-.115-.309.12-.03c.24-.052.577-.24.785-.439.844-.808.863-2.217.041-2.905-.281-.236-.586-.335-.978-.314l-.3.013.028-.344c.064-.842-.314-1.68-.95-2.127-.472-.331-1.104-.408-1.602-.198a1.972 1.972 0 0 0-.813.615l-.142.202-.074-.108c-.416-.593-1.113-.91-1.777-.808Zm.678.972c.365.215.586.705.586 1.28 0 .58-.221 1.062-.595 1.29-.581.36-1.227-.103-1.394-.997-.133-.705.231-1.492.771-1.668.222-.069.402-.043.632.095Zm3.083-.047c.194.09.438.378.554.644.152.361.152 1.006-.005 1.371-.13.314-.452.636-.701.7-.337.087-.67-.064-.905-.408-.563-.825-.235-2.204.563-2.376a.753.753 0 0 1 .494.069ZM16.446 22.9c.333.19.531.585.536 1.062.004.962-.882 1.134-1.31.253-.135-.28-.144-.825-.02-1.053.18-.33.495-.434.794-.262Zm7.716.026c.273.21.36.735.199 1.169-.157.425-.392.657-.716.688-.622.064-.853-.95-.369-1.634.236-.33.623-.43.886-.223Zm-3.544.619c.59.21 1.006.653 1.154 1.242.032.137.092.25.157.292.05.034.226.142.383.236.877.53 1.084 1.616.452 2.412-.53.67-1.638.86-2.386.4-.295-.181-.373-.181-.794.017-.498.236-.82.288-1.269.202-.567-.112-.992-.413-1.264-.907-.138-.241-.148-.288-.148-.71 0-.403.014-.477.13-.713.147-.296.502-.649.807-.79.24-.117.36-.25.402-.46.12-.602.733-1.17 1.407-1.303.268-.052.697-.013.97.082Z" fill="#fff"/><path d="m18.154 19.212.307 1.977h-.004l-.303-1.977Zm-1.578 1.548-1.92-.562v-.002l1.92.564Zm-.079.747 2-.028v.029h-2Zm0 .473h2v2h-2v-2Zm-.992.13.932 1.769-.011.006-.011.005-.91-1.78Zm-.817 1.06-1.943-.475.003-.009.002-.009 1.938.494Zm-.004.946-1.949.451-.002-.007 1.95-.444Zm1.273 1.474.593-1.91.012.004-.605 1.906Zm.217.07.605-1.907 2.01.637-.743 1.974-1.872-.705Zm-.092.244 1.871.705v.003l-1.871-.708Zm-.083 1.311-1.958.409-.002-.008 1.96-.4Zm1.966 1.947-.517 1.932-.005-.001.522-1.93Zm1.8-.133-.754-1.853.012-.005.742 1.858Zm.226-.09-.742-1.858.702-.28.712.254-.672 1.884Zm.337.12L21 27.175l.01.004-.683 1.88Zm3.613-1.62-1.896-.638 1.896.638Zm-.01-1.475 1.875-.698.004.012.005.013-1.883.673Zm-.115-.309-1.874.699-.78-2.095 2.168-.544.486 1.94Zm.12-.03-.486-1.94.033-.008.033-.007.42 1.955Zm.785-.439 1.382 1.446-.003.003-1.38-1.449Zm.041-2.905-1.284 1.534-.002-.002 1.286-1.532Zm-.978-.314.11 1.997-.012.001h-.012l-.086-1.998Zm-.3.013.086 1.998-2.261.098.181-2.256 1.994.16Zm.028-.344 1.994.153v.008l-1.994-.16Zm-.95-2.127-1.15 1.637h-.001l1.15-1.637Zm-1.602-.198.778 1.843h-.002l-.776-1.843Zm-.813.615-1.632-1.156.015-.02.015-.02 1.602 1.196Zm-.142.202 1.632 1.156-1.657 2.34-1.624-2.363 1.648-1.133Zm-.074-.108 1.638-1.147.005.007.005.008-1.648 1.132Zm-1.099.164-1.015 1.723-.009-.005 1.024-1.718Zm-.009 2.57-1.055-1.7.007-.004.007-.004 1.041 1.708Zm-1.394-.997 1.965-.373.002.007-1.967.366Zm.771-1.668-.62-1.901.013-.005.014-.004.593 1.91Zm3.715.048.844-1.814-.844 1.814Zm.554.644 1.835-.794.004.008.003.009-1.842.777Zm-.005 1.371-1.85-.761.007-.014.006-.014 1.837.79Zm-.701.7.5 1.937-.006.002-.494-1.938Zm-.905-.408-1.65 1.13-.002-.002 1.652-1.128Zm.563-2.376-.42-1.956h.004l.416 1.956ZM16.446 22.9l-.989 1.738-.005-.003.994-1.735Zm.536 1.062 2-.02v.01l-2 .01Zm-1.31.253-1.799.876-.006-.012 1.804-.864Zm-.02-1.053 1.758.956-.003.004-1.754-.96Zm8.51-.236-1.223 1.582-.01-.008 1.233-1.574Zm.199 1.169-1.877-.692.002-.006 1.875.698Zm-.716.688-.205-1.99h.01l.01-.002.185 1.991Zm-.369-1.634-1.631-1.157.002-.002 1.63 1.16Zm-2.658.396.656-1.89.008.003.008.003-.672 1.884Zm1.154 1.242 1.94-.487.003.015.004.014-1.947.458Zm.157.292 1.108-1.665.007.005.006.004-1.121 1.656Zm.383.236 1.032-1.713-1.032 1.713Zm.452 2.412-1.568-1.242.003-.003 1.565 1.245Zm-2.386.4 1.043-1.707.005.003-1.048 1.703Zm-.794.017-.857-1.808.006-.002.851 1.81Zm-1.269.202-.377 1.964-.009-.002.386-1.962Zm-1.264-.907 1.734-.998.009.016.009.017-1.752.965Zm-.018-1.423-1.798-.877.004-.007.003-.008 1.79.892Zm.807-.79.87 1.8-.012.006-.014.006-.844-1.813Zm.402-.46-1.963-.388.001-.004 1.962.391Zm1.407-1.303-.388-1.962.01-.002.378 1.964Zm-1.495-4.25.303 1.976a.41.41 0 0 0 .128-.039c.019-.01.019-.013.006-.001a.328.328 0 0 0-.049.064.484.484 0 0 0-.048.11l-1.918-.563-1.92-.564c.407-1.382 1.557-2.71 3.195-2.96l.303 1.976Zm-1.578 1.547 1.919.562c.01-.036.01-.048.007-.024a1.555 1.555 0 0 0-.005.18l-2 .03-2 .028a4.5 4.5 0 0 1 .16-1.338l1.919.562Zm-.079.747h2v.473h-4v-.473h2Zm0 .473v2h-.374v-4h.374v2Zm-.374 0v2l-.087.001a1.302 1.302 0 0 0 .366-.088c.047-.019.068-.031.035-.014l-.932-1.77-.932-1.77a2.99 2.99 0 0 1 .787-.294c.314-.065.606-.065.763-.065v2Zm-.618.13.91 1.78a.598.598 0 0 0 .154-.138c.062-.081.069-.132.057-.087l-1.938-.494-1.938-.494c.258-1.012.858-1.845 1.845-2.349l.91 1.781Zm-.817 1.06 1.943.476c-.01.037-.01.05-.01.046a.208.208 0 0 0 .003-.043.387.387 0 0 0-.002-.036s.002.018.012.06l-1.95.443-1.95.444a3.808 3.808 0 0 1 .011-1.864l1.943.475Zm-.004.946 1.948-.45c.013.056.033.08.031.077a.257.257 0 0 0-.113-.063l-.593 1.91-.593 1.91c-1.406-.436-2.329-1.635-2.629-2.933l1.949-.45Zm1.273 1.474.605-1.906.217.069-.605 1.906-.604 1.907-.217-.069.604-1.907Zm.217.07 1.872.704-.093.245-1.871-.705-1.872-.705.093-.245 1.871.705Zm-.092.244 1.87.708a.825.825 0 0 0 .029-.088 1.345 1.345 0 0 0-.018.296c0 .02.002.03.002.033l-.007-.039-1.96.401-1.959.4a4.718 4.718 0 0 1-.066-1.203c.02-.32.077-.788.238-1.215l1.87.707Zm-.083 1.311 1.958-.408c.014.069.15.322.53.424l-.522 1.931-.522 1.93c-1.624-.438-3.038-1.724-3.402-3.468l1.958-.409Zm1.966 1.947.516-1.932a1.112 1.112 0 0 0 .23.008c.137-.01.245-.04.3-.062l.754 1.853.753 1.852c-.924.377-2.09.475-3.07.213l.517-1.932Zm1.8-.133-.742-1.858.226-.09.742 1.858.741 1.857-.226.09-.741-1.857Zm.226-.09.672-1.884.337.12-.672 1.884-.673 1.883-.337-.12.673-1.883Zm.337.12.682-1.88c.55.2.942-.102 1.035-.378l1.896.638 1.895.638c-.876 2.603-3.732 3.754-6.19 2.862l.681-1.88Zm3.613-1.62-1.895-.639c-.008.023-.006.024-.003 0a.635.635 0 0 0 0-.176c-.004-.021-.005-.015.006.014l1.883-.674 1.883-.673c.306.856.31 1.929.021 2.786l-1.895-.638Zm-.01-1.475-1.873.7-.116-.31 1.874-.699 1.874-.699.116.31-1.874.698Zm-.115-.309-.486-1.94.12-.03.486 1.94.487 1.94-.12.03-.487-1.94Zm.12-.03-.42-1.955a1 1 0 0 0-.143.041l-.009.004a.214.214 0 0 0 .014-.008.299.299 0 0 0-.036.031l1.379 1.448 1.379 1.45c-.425.403-1.081.802-1.744.944l-.42-1.955Zm.785-.439-1.383-1.445a.08.08 0 0 0 .017-.026.151.151 0 0 0 .011-.054c0-.016-.003-.009.009.02a.367.367 0 0 0 .104.134l1.283-1.534 1.284-1.533c1.877 1.57 1.624 4.384.057 5.884l-1.382-1.446Zm.041-2.905-1.286 1.532a.73.73 0 0 0 .226.119.71.71 0 0 0 .137.03c.035.003.055.002.054.002l-.109-1.997-.11-1.997c.87-.047 1.68.197 2.375.78l-1.287 1.531Zm-.978-.314.086 1.998-.3.013-.086-1.998-.086-1.998.3-.013.086 1.998Zm-.3.013-1.994-.16.028-.344 1.994.16 1.993.161-.027.344-1.994-.16Zm.028-.344-1.994-.152a.51.51 0 0 0-.044-.242c-.035-.078-.07-.101-.062-.096l1.15-1.637 1.148-1.637c1.264.887 1.91 2.433 1.796 3.917l-1.994-.153Zm-.95-2.127-1.151 1.636a.247.247 0 0 0 .115.047c.03.004.105.007.212-.038l-.778-1.843-.779-1.842c1.178-.498 2.536-.295 3.53.404l-1.15 1.636Zm-1.602-.198.776 1.843a.187.187 0 0 0-.026.014l-.002.001.002-.001a.234.234 0 0 0 .04-.046l-1.602-1.196-1.603-1.196a3.966 3.966 0 0 1 1.639-1.262l.776 1.843Zm-.813.615 1.633 1.156-.143.202-1.633-1.156-1.632-1.156.143-.202 1.633 1.156Zm-.142.202-1.649 1.133-.074-.108 1.649-1.133 1.648-1.132.074.107-1.648 1.133Zm-.074-.108-1.639 1.148c-.003-.005-.002 0 .015.008.018.008.07.026.154.013l-.307-1.977-.307-1.976c1.492-.232 2.914.483 3.722 1.637L19.93 20.02Zm-1.099.164 1.016-1.723c1.196.705 1.57 2.022 1.57 3.004h-4c0-.04-.008-.018.024.054a.922.922 0 0 0 .375.388l1.015-1.723Zm.586 1.28h2c0 1.018-.392 2.29-1.554 2.998l-1.04-1.708-1.042-1.708a.86.86 0 0 0-.337.358c-.035.076-.027.103-.027.06h2Zm-.595 1.29 1.055 1.699a2.733 2.733 0 0 1-3.072-.101c-.784-.561-1.193-1.423-1.343-2.23l1.966-.365 1.967-.366c.016.088.013-.095-.26-.29a1.234 1.234 0 0 0-.66-.223 1.242 1.242 0 0 0-.708.177l1.055 1.699Zm-1.394-.997-1.964.373a3.732 3.732 0 0 1 .282-2.245c.289-.624.866-1.382 1.832-1.697l.621 1.901.62 1.902c.221-.072.363-.186.437-.262a.599.599 0 0 0 .12-.165.27.27 0 0 0 .017-.18l-1.965.373Zm.771-1.668-.593-1.91a2.685 2.685 0 0 1 1.199-.098c.437.064.79.23 1.05.385l-1.024 1.718-1.024 1.718a1.316 1.316 0 0 0 .985.097l-.593-1.91Zm3.715.048.844-1.814c.468.218.798.555.982.77.209.244.414.55.563.893l-1.835.795-1.836.795c.034.077.06.106.069.117.009.01.032.037.075.074.036.03.134.108.294.183l.844-1.813Zm.554.644 1.842-.777c.217.513.272 1.057.271 1.466 0 .409-.058.955-.28 1.471l-1.838-.789-1.837-.79a.847.847 0 0 0-.04.109l-.007.033s.002-.016.002-.044c0-.027-.002-.044-.002-.044a.867.867 0 0 0 .046.142l1.843-.777Zm-.005 1.371 1.85.762c-.184.446-.465.82-.742 1.097-.246.246-.692.619-1.308.778l-.501-1.936-.501-1.937a1.358 1.358 0 0 0-.4.172.598.598 0 0 0-.247.303l1.85.761Zm-.701.7.494 1.939c-1.343.342-2.462-.36-3.05-1.217l1.651-1.13 1.65-1.13a.993.993 0 0 0-.412-.327 1.269 1.269 0 0 0-.828-.072l.495 1.938Zm-.905-.408-1.652 1.128c-.66-.967-.737-2.12-.523-3.022.196-.828.837-2.119 2.317-2.438l.421 1.956.421 1.955c.334-.072.54-.257.632-.372a.634.634 0 0 0 .083-.13.261.261 0 0 0 .018-.049c.002-.005.002-.004 0-.01a.37.37 0 0 0-.065-.145l-1.652 1.127Zm.563-2.376-.416-1.957a2.75 2.75 0 0 1 1.754.212l-.844 1.814-.844 1.813c.059.027.168.069.317.09.155.021.31.014.45-.016l-.417-1.956ZM16.446 22.9l.99-1.738c1.115.634 1.536 1.802 1.546 2.78l-2 .02-2 .019c0 .024.025.4.475.657l.99-1.738Zm.536 1.062 2-.01c.005 1.026-.537 2.486-2.113 2.791-1.502.291-2.56-.757-2.996-1.652l1.798-.876 1.798-.876c-.007-.013-.407-.707-1.36-.523-1.027.2-1.128 1.092-1.127 1.155l2-.01Zm-1.31.253-1.805.864c-.239-.499-.296-1.025-.302-1.375-.005-.305.017-.924.333-1.502l1.755.96 1.754.96c.065-.118.1-.216.118-.275a1.07 1.07 0 0 0 .032-.135c.009-.051.008-.076.008-.077 0-.003 0-.014-.005-.041a1.017 1.017 0 0 0-.085-.243l-1.804.864Zm-.02-1.053-1.756-.955a2.636 2.636 0 0 1 1.482-1.264 2.534 2.534 0 0 1 2.063.222l-.995 1.735-.994 1.735c.28.161.714.26 1.18.107.441-.146.679-.442.778-.624l-1.757-.956Zm8.51-.236 1.224-1.582c.669.517.924 1.24 1.01 1.75a3.322 3.322 0 0 1-.16 1.698l-1.875-.697-1.875-.698a.68.68 0 0 0-.034.363.991.991 0 0 0 .1.29c.063.122.18.297.387.458l1.223-1.582Zm.199 1.169 1.876.692c-.288.782-.992 1.855-2.406 1.987l-.186-1.992-.185-1.99a1.323 1.323 0 0 0-.785.358c-.165.16-.204.289-.19.253l1.876.692Zm-.716.688.206 1.989a2.475 2.475 0 0 1-1.973-.672 2.79 2.79 0 0 1-.783-1.412 3.412 3.412 0 0 1 .55-2.695l1.631 1.156 1.632 1.157a.592.592 0 0 0 .088-.502 1.218 1.218 0 0 0-.36-.602 1.526 1.526 0 0 0-1.196-.409l.205 1.99Zm-.369-1.634-1.63-1.159c.653-.917 2.29-1.784 3.75-.638l-1.234 1.574-1.234 1.574c.405.317.894.37 1.272.275.355-.09.583-.294.706-.467l-1.63-1.159Zm-2.658.396.672-1.884c1.183.422 2.102 1.365 2.422 2.64l-1.94.486-1.94.486a.279.279 0 0 0 .066.114c.037.04.063.047.049.042l.671-1.884Zm1.154 1.242 1.947-.457a1.253 1.253 0 0 0-.119-.308 1.59 1.59 0 0 0-.168-.25 1.784 1.784 0 0 0-.395-.358l-1.108 1.665-1.108 1.665a2.296 2.296 0 0 1-.745-.83 2.754 2.754 0 0 1-.251-.67l1.947-.457Zm.157.292 1.121-1.656.003.002.076.047c.063.038.14.086.215.13l-1.032 1.713-1.032 1.713a14.47 14.47 0 0 1-.473-.293l1.122-1.656Zm.383.236 1.032-1.712c1.882 1.134 2.39 3.603.986 5.368l-1.566-1.244-1.565-1.245a.402.402 0 0 0-.06.31.36.36 0 0 0 .14.236l1.033-1.712Zm.452 2.412 1.568 1.24c-.624.79-1.51 1.215-2.347 1.356-.839.14-1.808.028-2.655-.493l1.048-1.704 1.048-1.703a.303.303 0 0 0-.103-.043c-.011-.002-.01 0-.003-.002.008-.001.004-.002-.013.007a.387.387 0 0 0-.111.1l1.568 1.242Zm-2.386.4-1.043 1.706c-.06-.037-.001.004.108.048.145.058.363.117.624.112.236-.005.4-.06.44-.074.033-.012.028-.013-.07.034l-.853-1.81-.851-1.809c.13-.061.646-.328 1.256-.34.75-.015 1.294.341 1.432.426l-1.043 1.706Zm-.794.017.858 1.807c-.343.162-.74.317-1.197.39a3.75 3.75 0 0 1-1.307-.031l.377-1.964.378-1.965c.031.006.031.004.01.004a.414.414 0 0 0-.087.005c-.029.005-.04.01-.024.005.017-.006.06-.022.135-.059l.857 1.808Zm-1.269.202-.386 1.962c-1.118-.22-2.058-.866-2.63-1.904l1.752-.965 1.752-.965c.003.005 0-.002-.014-.017a.315.315 0 0 0-.103-.077c-.009-.004-.005-.001.016.003l-.387 1.963Zm-1.264-.907-1.734.997c-.075-.13-.26-.443-.35-.878-.07-.337-.064-.678-.064-.828h4c0 .107.001.148.002.164 0 .012-.001-.051-.021-.148a1.398 1.398 0 0 0-.093-.286l-.024-.05.018.031-1.734.998Zm-.148-.71h-2c0-.175-.001-.473.054-.777.068-.376.2-.654.278-.813l1.797.877 1.798.877-.012.025.017-.041a1.173 1.173 0 0 0 .057-.21c.013-.068.014-.109.013-.094l-.001.049v.108h-2Zm.13-.713-1.79-.891c.2-.403.48-.74.732-.989.252-.247.6-.528 1.02-.724l.845 1.813.844 1.813a.629.629 0 0 0 .106-.06c.005-.003 0 0-.01.01l-.013.014s.024-.03.056-.095l-1.79-.891Zm.807-.79-.87-1.801c-.022.01-.185.09-.357.285a1.454 1.454 0 0 0-.334.668l1.963.387 1.962.387c-.081.41-.262.83-.587 1.2a2.834 2.834 0 0 1-.906.674l-.87-1.8Zm.402-.46-1.962-.392c.16-.806.613-1.454 1.1-1.904a3.916 3.916 0 0 1 1.881-.969l.388 1.962.388 1.962a.222.222 0 0 0 .058-.018h.001l.008-.01a.646.646 0 0 0 .099-.241l-1.961-.39Zm1.407-1.303-.378-1.964c.65-.125 1.436-.04 2.003.156l-.656 1.89-.656 1.889a.518.518 0 0 0 .042.013.461.461 0 0 0-.044-.005l-.033-.002.024-.002a.81.81 0 0 0 .076-.011l-.378-1.964Z" fill="#fff" mask="url(#path-2-inside-1_476_286)"/><path d="M14.204 14.252c-.259.095-.383.383-.259.606.092.164.203.224.42.224.23 0 .439-.19.439-.404 0-.266-.351-.516-.6-.426Z" fill="#fff"/></svg>