<svg width="40" height="41" viewBox="0 0 40 41" fill="none" xmlns="http://www.w3.org/2000/svg"><path d="M15.46 18.415c.571.408 1.211.552 1.871.425 1.355-.264 2.444-1.464 2.705-2.962l.028-.212c.023-.237.034-.546.034-.865 0-.426-.022-.877-.066-1.209-.163-1.263-.482-2.135-1.005-2.693l-.001-.001a1.556 1.556 0 0 0-.74-.452c-.275-.07-.574-.056-.902.032-.615.164-1.254.586-1.865 1.218-1.063 1.1-1.579 2.431-1.454 3.777.123 1.353.596 2.371 1.394 2.942Zm2.53-.81c-.488.327-.967.448-1.362.366-1-.208-1.675-1.31-1.679-2.9 0-.55.066-.877.276-1.387.246-.589.71-1.19 1.222-1.643.255-.227.52-.415.772-.547.254-.133.49-.206.686-.208h.003a.711.711 0 0 1 .263.067c.202.103.41.376.588.797.176.416.314.96.39 1.572.038.307.06.719.06 1.104.001.386-.018.736-.055.922v.002c-.138.717-.461 1.293-.946 1.694l-.218.161Zm5.408 1.235c1.332.264 2.556-.63 3.032-2.155.235-.746.306-1.633.192-2.335l-.06-.288c-.33-1.27-1.281-2.542-2.375-3.208l-.22-.125c-.486-.253-1.018-.375-1.428-.313l-.168.039c-.574.18-1.02.74-1.315 1.53-.296.793-.446 1.838-.416 3.024.012.55.04.905.088 1.092.368 1.44 1.378 2.486 2.67 2.738v.001Zm.696-.869c-.344.07-.754-.017-1.145-.232a2.704 2.704 0 0 1-.997-.957l-.001-.001a3.367 3.367 0 0 1-.396-1.13v-.001c-.032-.194-.04-.63-.029-1.086.012-.455.043-.915.086-1.156l.082-.399c.09-.38.199-.709.322-.973.166-.356.352-.585.534-.685.147-.08.417-.08.747.046l.15.063c.355.169.747.473 1.103.842.406.421.756.918.947 1.377.213.515.28.842.28 1.392l-.009.293c-.076 1.336-.648 2.28-1.49 2.558l-.184.05Zm-11.919 5.684c.274.07.61.084.94.05a2.91 2.91 0 0 0 .927-.246h-.001c.737-.351 1.236-1.225 1.236-2.128 0-.599-.142-1.354-.366-2.077-.196-.633-.457-1.248-.746-1.718l-.125-.192c-.581-.843-1.35-1.23-2.127-1.012-.92.259-1.554 1.205-1.861 2.658l-.058.298a7.501 7.501 0 0 0-.089.944c-.01.319-.004.621.029.812.212 1.273 1.108 2.322 2.24 2.612Zm.388-.848a1.044 1.044 0 0 1-.164-.014c-.084-.016-.15-.048-.31-.126a2.354 2.354 0 0 1-1.18-1.368v-.001a1.51 1.51 0 0 1-.089-.345 4.998 4.998 0 0 1-.015-.534c.004-.907.18-1.735.512-2.411.186-.377.427-.631.678-.754a.771.771 0 0 1 .758.026c.183.108.376.312.564.59.188.277.367.62.52 1 .31.757.52 1.644.527 2.4a3.13 3.13 0 0 1-.012.457.586.586 0 0 1-.034.122l-.07.156c-.161.342-.423.6-.71.71l-.003.002c-.18.073-.282.09-.687.09h-.285Z" fill="#fff" stroke="#fff" stroke-width=".2"/><path d="M27.99 22.819a.248.248 0 0 1-.06-.041 30.91 30.91 0 0 0-.983-.878v-.001l-.608-.53.019-.295.03-.297a8.22 8.22 0 0 1 .649-2.248 4.33 4.33 0 0 1 .528-.876c.178-.22.353-.357.515-.422a.814.814 0 0 1 .266-.067.92.92 0 0 1 .285.05c.287.085.561.353.778.794.332.677.509 1.5.512 2.411v.331a2.112 2.112 0 0 1-.014.209 1.592 1.592 0 0 1-.1.358l-.002.002a2.836 2.836 0 0 1-.263.55l-.001.002a2.437 2.437 0 0 1-.645.643c-.252.172-.514.283-.732.305-.12.012-.147.01-.173 0Zm-11.05 6.226c-.837 0-1.505-.197-2.037-.598l-.22-.185a2.263 2.263 0 0 1-.585-.84l-.057-.15a1.67 1.67 0 0 1-.099-.355 4.176 4.176 0 0 1-.02-.502l.002-.274a1.89 1.89 0 0 1 .035-.342l.034-.12v-.002c.087-.26.155-.417.304-.615.154-.203.394-.45.83-.886.79-.786 1.089-1.128 1.483-1.73l.177-.277.358-.547c.818-1.186 1.517-1.736 2.367-1.931l.229-.05.135-.031.005-.001.08-.009c.04-.002.09-.004.15-.004a8.578 8.578 0 0 1 .814.042c.126.013.22.026.263.038l.297.097c.677.251 1.248.698 1.773 1.388.074.096.11.152.128.184-.088.078-.436.386-.827.729-.817.732-1.012.95-1.155 1.358v.001c-.043.125-.064.22-.075.576-.011.355-.012.98-.012 2.167v2.345a3.155 3.155 0 0 0-1.117-.13c-.294.02-.605.085-.972.193l-.387.122c-.785.261-1.208.335-1.901.34Zm7.92 1.403c-1.31 0-1.971-.002-2.314-.025-.173-.011-.25-.028-.286-.045a.049.049 0 0 1-.02-.014.114.114 0 0 1-.012-.024v-.005l-.002-.053a82.002 82.002 0 0 1-.013-.925c-.004-.604-.007-1.43-.007-2.326 0-1.568 0-2.386.011-2.831.008-.338.023-.452.04-.51l.02-.046a.913.913 0 0 1 .078-.142 1.34 1.34 0 0 1 .162-.181c.085-.084.206-.196.384-.356l.726-.644.633-.558c.16-.139.275-.235.36-.302.086-.066.137-.1.172-.116a.14.14 0 0 1 .069-.015.14.14 0 0 1 .07.015.985.985 0 0 1 .17.114c.168.132.45.381.978.85.608.542.944.845 1.136 1.043.189.194.23.276.26.372l.003.022.005.069c.003.058.007.137.01.234.006.196.01.464.014.78.008.63.01 1.451.01 2.267a173 173 0 0 1-.014 2.241 37.44 37.44 0 0 1-.027.957.358.358 0 0 1-.006.05.095.095 0 0 1-.017.02.118.118 0 0 1-.038.021 1.15 1.15 0 0 1-.3.041c-.338.02-.98.022-2.254.022Zm3.536-3.417-.012-3.333.02-.005h.003c1.012-.223 1.861-.998 2.224-2.02v-.002c.163-.463.22-.926.192-1.496-.078-1.392-.478-2.614-1.089-3.26-.51-.54-1.13-.752-1.767-.584l-.002.002c-.335.093-.56.219-.828.477v.001c-.739.702-1.364 2.14-1.605 3.645-.011.066-.022.12-.031.16-.02-.013-.037-.027-.056-.037a1.377 1.377 0 0 0-.58-.147c-.24 0-.456.066-.653.193l-.084.06-.075.054a3.48 3.48 0 0 1-.125-.16v-.001c-.994-1.316-2.224-1.93-3.77-1.868h-.001c-.681.03-1.063.122-1.64.404-.805.393-1.377.937-2.129 2.037l-.334.507c-.284.444-.451.696-.651.94-.2.243-.434.48-.854.889-.703.685-.966.987-1.173 1.379l-.087.174c-.353.748-.373 1.793-.052 2.642.579 1.536 2.332 2.441 4.241 2.24a7.113 7.113 0 0 0 1.68-.378c.458-.163.801-.248 1.119-.265.316-.017.613.033.98.152l.06.02v.465c0 .244.002.39.018.499a.85.85 0 0 0 .098.29c.133.27.356.467.636.565h.002c.03.01.076.016.125.02.053.006.122.01.204.014.164.009.383.016.638.022.51.011 1.167.017 1.824.017s1.314-.005 1.823-.016c.255-.006.473-.013.636-.022.081-.004.15-.008.203-.014a.593.593 0 0 0 .126-.022h-.001c.24-.086.455-.255.59-.473l.055-.095V30.7l.101-.215.01-.02v-.023l-.009-3.411Z" fill="#fff" stroke="#fff" stroke-width=".2"/><path d="M24.617 23.397c-.077.08-.101.162-.114.365l-.016.263-.186.08a1.37 1.37 0 0 0-.66.617c-.13.239-.138.28-.138.64s.008.4.138.64c.218.401.607.668 1.045.721.4.045.462.065.608.19.364.32.324.863-.086 1.102-.311.183-.757.09-.907-.19-.182-.328-.324-.425-.535-.352-.178.064-.263.243-.198.433.109.336.372.616.733.778l.186.08.017.264c.02.324.125.466.356.466.235 0 .324-.125.324-.45v-.263l.223-.093a1.42 1.42 0 0 0 .7-.685c.094-.194.11-.287.11-.575s-.016-.38-.105-.567c-.219-.462-.636-.746-1.187-.806-.373-.045-.555-.146-.669-.385-.17-.353-.056-.726.276-.904.36-.19.733-.073.944.296.174.316.36.385.571.219.154-.122.17-.255.053-.507a1.415 1.415 0 0 0-.693-.672l-.223-.093v-.272c0-.247-.012-.283-.105-.356-.15-.118-.345-.11-.462.016Z" fill="#fff"/></svg>