<svg width="40" height="41" viewBox="0 0 40 41" fill="none" xmlns="http://www.w3.org/2000/svg"><mask id="path-1-outside-1_476_296" maskUnits="userSpaceOnUse" x="7" y="7.5" width="26" height="26" fill="#000"><path fill="#fff" d="M7 7.5h26v26H7z"/><path d="M10.602 8.604c-.073.073-.578 1.324-1.363 3.405L8 15.298l.067.451c.208 1.453 1.374 2.557 2.726 2.57.975.012 1.968-.635 2.428-1.569.202-.409.347-.964.347-1.306 0-.165-.33-1.104-1.093-3.136-.6-1.593-1.094-2.923-1.094-2.96 0-.037 1.554-.049 4.139-.043l4.133.019v6.706l-.505.293c-1.11.634-2.652 1.208-4.093 1.52-.46.097-.864.207-.892.237-.101.11-.14.72-.14 2.423l-.006 1.727h-1.935c-1.861 0-1.94.006-2.046.122-.202.22-.157.336.386 1.037.169.22.343.44.382.495.062.079.005.177-.376.67-.499.642-.56.782-.426 1.002l.09.152h3.925v.91c0 1.055-.034.982.735 1.543.353.257.493.403.678.72.415.702.802 1.044 2.686 2.374 1.11.787 1.811 1.245 1.901 1.245.09 0 .797-.458 1.907-1.245 1.89-1.33 2.254-1.66 2.686-2.38.129-.22.292-.433.359-.463a7.5 7.5 0 0 0 .583-.434l.46-.378.017-.928.017-.933 1.99-.012c1.952-.019 1.991-.019 2.092-.147a.541.541 0 0 0 .095-.244c0-.061-.196-.372-.437-.683a22.099 22.099 0 0 1-.477-.629c-.017-.037.146-.3.365-.58.218-.28.431-.573.476-.64.096-.165.045-.434-.095-.513-.062-.037-.903-.061-2.07-.061h-1.968l-.005-1.697c-.006-1.702-.04-2.343-.14-2.453-.028-.03-.438-.14-.914-.244-1.464-.323-2.967-.878-4.071-1.513l-.505-.293V9.324l4.138-.019c2.58-.006 4.133.006 4.133.043s-.493 1.367-1.093 2.96c-.763 2.032-1.094 2.971-1.094 3.136 0 .629.348 1.477.819 1.99 1.637 1.781 4.419.707 4.705-1.813.039-.33.028-.36-1.2-3.619-.78-2.08-1.284-3.325-1.357-3.398-.113-.098-.645-.104-9.416-.104-8.77 0-9.303.006-9.415.104Zm1.138 3.838.92 2.435-1.828.018c-1.004.006-1.834 0-1.85-.018-.017-.013.386-1.123.891-2.466.505-1.336.925-2.428.936-2.422.006.012.427 1.11.931 2.453Zm18.483.134c.471 1.251.847 2.288.83 2.3-.017.019-.847.025-1.856.019l-1.822-.018.128-.336.926-2.46c.757-2.007.807-2.117.869-1.952.034.092.454 1.196.925 2.447Zm-17.44 3.228c0 .214-.33.848-.566 1.099-.135.14-.398.335-.583.427-.292.146-.404.17-.841.17-.46 0-.544-.018-.88-.2a2.166 2.166 0 0 1-.999-1.16 2.699 2.699 0 0 1-.112-.379c0-.036.751-.06 1.99-.06 1.857 0 1.991.006 1.991.103Zm18.45-.043c0 .031-.05.202-.113.379-.162.47-.544.921-.998 1.16-.336.182-.42.2-.88.2-.438 0-.55-.024-.847-.17-.544-.275-1.02-.885-1.121-1.434l-.034-.196h1.996c1.24 0 1.997.025 1.997.062Zm-10.7 1.251c1.195.69 2.636 1.227 4.391 1.636l.336.08v1.976c0 1.093-.022 2.3-.05 2.691l-.045.708-.622.488c-.348.269-.712.52-.82.556-.134.055-1.194.073-3.728.073-4.077 0-3.611.067-4.548-.69l-.56-.445-.046-.427c-.028-.232-.05-1.434-.056-2.68l-.01-2.25.223-.056c1.817-.415 3.455-1.025 4.543-1.684.218-.134.42-.244.454-.244.04-.006.28.116.538.268Zm-6.516 6.957v.946h-2.922l.309-.403c.19-.238.314-.457.314-.543 0-.085-.123-.305-.314-.543l-.309-.403h2.922v.946Zm14.72-.55c-.19.245-.308.459-.308.55 0 .085.112.293.28.513.157.201.28.384.28.402 0 .019-.644.03-1.43.03h-1.43v-1.891h2.922l-.314.397Zm-13.441 1.972c.807.647.386.592 4.75.592h3.813l.291-.165c.163-.091.488-.317.718-.507l.42-.335v2.252l-.42.305c-.27.195-.522.323-.718.372-.207.043-1.53.061-4.307.049-4.491-.018-4.026.03-4.744-.495l-.353-.256v-1.116c0-.88.017-1.111.073-1.075.034.031.252.196.477.379Zm8.344 3.551c-.079.104-.213.25-.297.33-.208.19-3.264 2.355-3.32 2.355-.062 0-3.124-2.172-3.354-2.373a2.265 2.265 0 0 1-.297-.33l-.117-.165h7.53l-.146.183Z"/></mask><path d="M10.602 8.604c-.073.073-.578 1.324-1.363 3.405L8 15.298l.067.451c.208 1.453 1.374 2.557 2.726 2.57.975.012 1.968-.635 2.428-1.569.202-.409.347-.964.347-1.306 0-.165-.33-1.104-1.093-3.136-.6-1.593-1.094-2.923-1.094-2.96 0-.037 1.554-.049 4.139-.043l4.133.019v6.706l-.505.293c-1.11.634-2.652 1.208-4.093 1.52-.46.097-.864.207-.892.237-.101.11-.14.72-.14 2.423l-.006 1.727h-1.935c-1.861 0-1.94.006-2.046.122-.202.22-.157.336.386 1.037.169.22.343.44.382.495.062.079.005.177-.376.67-.499.642-.56.782-.426 1.002l.09.152h3.925v.91c0 1.055-.034.982.735 1.543.353.257.493.403.678.72.415.702.802 1.044 2.686 2.374 1.11.787 1.811 1.245 1.901 1.245.09 0 .797-.458 1.907-1.245 1.89-1.33 2.254-1.66 2.686-2.38.129-.22.292-.433.359-.463a7.5 7.5 0 0 0 .583-.434l.46-.378.017-.928.017-.933 1.99-.012c1.952-.019 1.991-.019 2.092-.147a.541.541 0 0 0 .095-.244c0-.061-.196-.372-.437-.683a22.099 22.099 0 0 1-.477-.629c-.017-.037.146-.3.365-.58.218-.28.431-.573.476-.64.096-.165.045-.434-.095-.513-.062-.037-.903-.061-2.07-.061h-1.968l-.005-1.697c-.006-1.702-.04-2.343-.14-2.453-.028-.03-.438-.14-.914-.244-1.464-.323-2.967-.878-4.071-1.513l-.505-.293V9.324l4.138-.019c2.58-.006 4.133.006 4.133.043s-.493 1.367-1.093 2.96c-.763 2.032-1.094 2.971-1.094 3.136 0 .629.348 1.477.819 1.99 1.637 1.781 4.419.707 4.705-1.813.039-.33.028-.36-1.2-3.619-.78-2.08-1.284-3.325-1.357-3.398-.113-.098-.645-.104-9.416-.104-8.77 0-9.303.006-9.415.104Zm1.138 3.838.92 2.435-1.828.018c-1.004.006-1.834 0-1.85-.018-.017-.013.386-1.123.891-2.466.505-1.336.925-2.428.936-2.422.006.012.427 1.11.931 2.453Zm18.483.134c.471 1.251.847 2.288.83 2.3-.017.019-.847.025-1.856.019l-1.822-.018.128-.336.926-2.46c.757-2.007.807-2.117.869-1.952.034.092.454 1.196.925 2.447Zm-17.44 3.228c0 .214-.33.848-.566 1.099-.135.14-.398.335-.583.427-.292.146-.404.17-.841.17-.46 0-.544-.018-.88-.2a2.166 2.166 0 0 1-.999-1.16 2.699 2.699 0 0 1-.112-.379c0-.036.751-.06 1.99-.06 1.857 0 1.991.006 1.991.103Zm18.45-.043c0 .031-.05.202-.113.379-.162.47-.544.921-.998 1.16-.336.182-.42.2-.88.2-.438 0-.55-.024-.847-.17-.544-.275-1.02-.885-1.121-1.434l-.034-.196h1.996c1.24 0 1.997.025 1.997.062Zm-10.7 1.251c1.195.69 2.636 1.227 4.391 1.636l.336.08v1.976c0 1.093-.022 2.3-.05 2.691l-.045.708-.622.488c-.348.269-.712.52-.82.556-.134.055-1.194.073-3.728.073-4.077 0-3.611.067-4.548-.69l-.56-.445-.046-.427c-.028-.232-.05-1.434-.056-2.68l-.01-2.25.223-.056c1.817-.415 3.455-1.025 4.543-1.684.218-.134.42-.244.454-.244.04-.006.28.116.538.268Zm-6.516 6.957v.946h-2.922l.309-.403c.19-.238.314-.457.314-.543 0-.085-.123-.305-.314-.543l-.309-.403h2.922v.946Zm14.72-.55c-.19.245-.308.459-.308.55 0 .085.112.293.28.513.157.201.28.384.28.402 0 .019-.644.03-1.43.03h-1.43v-1.891h2.922l-.314.397Zm-13.441 1.972c.807.647.386.592 4.75.592h3.813l.291-.165c.163-.091.488-.317.718-.507l.42-.335v2.252l-.42.305c-.27.195-.522.323-.718.372-.207.043-1.53.061-4.307.049-4.491-.018-4.026.03-4.744-.495l-.353-.256v-1.116c0-.88.017-1.111.073-1.075.034.031.252.196.477.379Zm8.344 3.551c-.079.104-.213.25-.297.33-.208.19-3.264 2.355-3.32 2.355-.062 0-3.124-2.172-3.354-2.373a2.265 2.265 0 0 1-.297-.33l-.117-.165h7.53l-.146.183Z" fill="#fff"/><path d="M10.602 8.604c-.073.073-.578 1.324-1.363 3.405L8 15.298l.067.451c.208 1.453 1.374 2.557 2.726 2.57.975.012 1.968-.635 2.428-1.569.202-.409.347-.964.347-1.306 0-.165-.33-1.104-1.093-3.136-.6-1.593-1.094-2.923-1.094-2.96 0-.037 1.554-.049 4.139-.043l4.133.019v6.706l-.505.293c-1.11.634-2.652 1.208-4.093 1.52-.46.097-.864.207-.892.237-.101.11-.14.72-.14 2.423l-.006 1.727h-1.935c-1.861 0-1.94.006-2.046.122-.202.22-.157.336.386 1.037.169.22.343.44.382.495.062.079.005.177-.376.67-.499.642-.56.782-.426 1.002l.09.152h3.925v.91c0 1.055-.034.982.735 1.543.353.257.493.403.678.72.415.702.802 1.044 2.686 2.374 1.11.787 1.811 1.245 1.901 1.245.09 0 .797-.458 1.907-1.245 1.89-1.33 2.254-1.66 2.686-2.38.129-.22.292-.433.359-.463a7.5 7.5 0 0 0 .583-.434l.46-.378.017-.928.017-.933 1.99-.012c1.952-.019 1.991-.019 2.092-.147a.541.541 0 0 0 .095-.244c0-.061-.196-.372-.437-.683a22.099 22.099 0 0 1-.477-.629c-.017-.037.146-.3.365-.58.218-.28.431-.573.476-.64.096-.165.045-.434-.095-.513-.062-.037-.903-.061-2.07-.061h-1.968l-.005-1.697c-.006-1.702-.04-2.343-.14-2.453-.028-.03-.438-.14-.914-.244-1.464-.323-2.967-.878-4.071-1.513l-.505-.293V9.324l4.138-.019c2.58-.006 4.133.006 4.133.043s-.493 1.367-1.093 2.96c-.763 2.032-1.094 2.971-1.094 3.136 0 .629.348 1.477.819 1.99 1.637 1.781 4.419.707 4.705-1.813.039-.33.028-.36-1.2-3.619-.78-2.08-1.284-3.325-1.357-3.398-.113-.098-.645-.104-9.416-.104-8.77 0-9.303.006-9.415.104Zm1.138 3.838.92 2.435-1.828.018c-1.004.006-1.834 0-1.85-.018-.017-.013.386-1.123.891-2.466.505-1.336.925-2.428.936-2.422.006.012.427 1.11.931 2.453Zm18.483.134c.471 1.251.847 2.288.83 2.3-.017.019-.847.025-1.856.019l-1.822-.018.128-.336.926-2.46c.757-2.007.807-2.117.869-1.952.034.092.454 1.196.925 2.447Zm-17.44 3.228c0 .214-.33.848-.566 1.099-.135.14-.398.335-.583.427-.292.146-.404.17-.841.17-.46 0-.544-.018-.88-.2a2.166 2.166 0 0 1-.999-1.16 2.699 2.699 0 0 1-.112-.379c0-.036.751-.06 1.99-.06 1.857 0 1.991.006 1.991.103Zm18.45-.043c0 .031-.05.202-.113.379-.162.47-.544.921-.998 1.16-.336.182-.42.2-.88.2-.438 0-.55-.024-.847-.17-.544-.275-1.02-.885-1.121-1.434l-.034-.196h1.996c1.24 0 1.997.025 1.997.062Zm-10.7 1.251c1.195.69 2.636 1.227 4.391 1.636l.336.08v1.976c0 1.093-.022 2.3-.05 2.691l-.045.708-.622.488c-.348.269-.712.52-.82.556-.134.055-1.194.073-3.728.073-4.077 0-3.611.067-4.548-.69l-.56-.445-.046-.427c-.028-.232-.05-1.434-.056-2.68l-.01-2.25.223-.056c1.817-.415 3.455-1.025 4.543-1.684.218-.134.42-.244.454-.244.04-.006.28.116.538.268Zm-6.516 6.957v.946h-2.922l.309-.403c.19-.238.314-.457.314-.543 0-.085-.123-.305-.314-.543l-.309-.403h2.922v.946Zm14.72-.55c-.19.245-.308.459-.308.55 0 .085.112.293.28.513.157.201.28.384.28.402 0 .019-.644.03-1.43.03h-1.43v-1.891h2.922l-.314.397Zm-13.441 1.972c.807.647.386.592 4.75.592h3.813l.291-.165c.163-.091.488-.317.718-.507l.42-.335v2.252l-.42.305c-.27.195-.522.323-.718.372-.207.043-1.53.061-4.307.049-4.491-.018-4.026.03-4.744-.495l-.353-.256v-1.116c0-.88.017-1.111.073-1.075.034.031.252.196.477.379Zm8.344 3.551c-.079.104-.213.25-.297.33-.208.19-3.264 2.355-3.32 2.355-.062 0-3.124-2.172-3.354-2.373a2.265 2.265 0 0 1-.297-.33l-.117-.165h7.53l-.146.183Z" stroke="#fff" stroke-width=".4" mask="url(#path-1-outside-1_476_296)"/></svg>