<svg width="40" height="41" viewBox="0 0 40 41" fill="none" xmlns="http://www.w3.org/2000/svg"><path d="M15.157 30.561c.077 0 .185.003.267-.074.077-.072.113-.195.135-.369.045-.356.046-1.055.046-2.414 0-1.161-.002-1.786-.016-2.13a2.125 2.125 0 0 0-.034-.356.293.293 0 0 0-.09-.164v-.001a.509.509 0 0 0-.313-.128.394.394 0 0 0-.306.1.152.152 0 0 0-.03.048.303.303 0 0 0-.014.044.915.915 0 0 0-.018.11 5.52 5.52 0 0 0-.022.385c-.012.34-.017.865-.017 1.628v1.828l-.422-.426a7.289 7.289 0 0 0-.463-.449c-.122-.101-.239-.17-.369-.17s-.246.069-.368.17c-.123.103-.27.255-.459.45l-.416.428v-2.709c0-.81.004-1.546.01-2.08.004-.268.008-.484.013-.634 0-.02 0-.04.002-.058l.076.055.003.003c.114.085.39.25.623.357 1.138.533 2.436.494 3.578-.107v-.002l.351-.186v1.75c0 .525-.006 1.002-.015 1.347-.004.152-.01.279-.014.372a2.967 2.967 0 0 1-.157-.156h-.001c-.192-.201-.399-.32-.576-.312a.303.303 0 0 0-.237.123.483.483 0 0 0-.08.289c0 .1.062.204.162.33.053.066.12.143.206.236l.315.327c.178.183.352.35.49.472.069.06.13.112.179.148a.68.68 0 0 0 .067.045l.034.015c.01.004.028.01.05.011.054 0 .11-.025.153-.05a.627.627 0 0 0 .135-.104.382.382 0 0 0 .088-.131.767.767 0 0 0 .043-.213c.016-.179.018-.48.018-1.024v-1.076h1.446c.422 0 .746 0 .992-.007a3.63 3.63 0 0 0 .545-.041c.122-.024.218-.062.274-.142.055-.077.058-.17.058-.25a.42.42 0 0 0-.058-.25c-.056-.079-.152-.117-.274-.14a3.644 3.644 0 0 0-.545-.043c-.246-.006-.57-.006-.992-.006h-1.446v-2.294l.185-.263c.54-.76.791-1.571.791-2.537v-.001a4.217 4.217 0 0 0-.742-2.417 4.65 4.65 0 0 0-.528-.61c-.208-.208-.43-.402-.576-.49h-.001l-.149-.089V10.28h11.8l.175.18.175.182v5.511c0 2.17.005 3.569.017 4.44.006.435.014.74.024.944a3.917 3.917 0 0 0 .029.313.37.37 0 0 0 .018.06l.001.002a.454.454 0 0 0 .319.224c.105.02.234.012.326-.064l.037-.036.005-.006a.137.137 0 0 0 .018-.04.866.866 0 0 0 .016-.1c.005-.057.01-.137.015-.244a37.8 37.8 0 0 0 .018-.988c.01-.909.011-2.353.005-4.53l-.017-5.75-.001-.03-.016-.025-.18-.272-.002-.002a1.59 1.59 0 0 0-.537-.469l-.003-.002-.33-.167-.021-.01h-.024l-9.263.005c-3.486 0-5.816.005-7.292.017-.739.006-1.265.013-1.616.022a11.652 11.652 0 0 0-.516.027.362.362 0 0 0-.077.014l-.001.001c-.312.12-.636.417-.802.727l-.001.002-.132.26-.01.02v14.518l.01.021.132.26.073.125c.188.284.491.523.776.617l.003.001c.075.022.217.04.378.052.165.012.361.02.55.02h.565v2.02c0 .989.002 1.526.016 1.826.007.149.018.247.036.317.019.075.047.12.088.158.06.056.129.108.214.124a.39.39 0 0 0 .268-.063 1.89 1.89 0 0 0 .321-.256c.128-.119.285-.276.482-.477l.689-.698.672.698c.293.305.491.501.634.622.137.116.243.18.35.18Zm-1.682-14.564a29.864 29.864 0 0 1-.016-.65c-.008-.548-.013-1.306-.013-2.137v-2.93h2.439v2.93c0 .831-.005 1.589-.012 2.138-.004.274-.009.496-.014.65l-.005.12a7.913 7.913 0 0 1-.294-.068 3.861 3.861 0 0 0-.894-.091c-.323 0-.652.03-.893.09a11.09 11.09 0 0 1-.264.063l-.029.007a5.981 5.981 0 0 1-.005-.122Zm-2.653 9.233c-.527 0-.678-.028-.789-.092-.109-.067-.137-.066-.17-.142-.042-.093-.075-.284-.096-.728-.042-.88-.038-2.687-.038-6.513 0-3.157.004-4.903.017-5.884.007-.49.016-.788.028-.973.013-.185.03-.249.042-.28l.057-.111a.364.364 0 0 1 .058-.074.39.39 0 0 1 .193-.092c.21-.05.577-.058 1.293-.06h1.17v6.25l-.143.087c-.187.11-.448.348-.688.604a5.622 5.622 0 0 0-.487.587l-.114.174a4.33 4.33 0 0 0-.551 2.716l.039.235c.106.551.32 1.126.57 1.507l.175.267v2.522h-.566Zm5.36-2.128c-2.055 1.114-4.535-.267-4.75-2.666-.14-1.548.91-3.093 2.397-3.512h.001c.181-.052.493-.08.816-.081.32-.001.635.026.82.075 1.098.306 1.99 1.206 2.317 2.349.131.449.14 1.128.03 1.648l-.053.212c-.245.823-.852 1.58-1.577 1.976Z" fill="#fff" stroke="#fff" stroke-width=".2"/><path d="M14.666 22.616c.285 0 .46-.004.604-.03.149-.028.263-.079.429-.16h.002c.967-.495 1.535-1.608 1.348-2.667-.15-.84-.649-1.517-1.381-1.866l-.001.001c-.218-.107-.544-.172-.862-.193-.318-.021-.649 0-.874.077a2.43 2.43 0 0 0-.96.598l-.108.118a2.536 2.536 0 0 0 .792 3.938l.207.097c.065.025.13.044.204.057.144.026.32.03.6.03Zm1.17-1.402c-.631.739-1.68.745-2.33.017-.836-.931-.328-2.427.897-2.66l.108-.018c.251-.03.485.011.787.14l.119.066c.131.083.29.211.397.33h.001c.553.612.565 1.49.021 2.125Zm3.914-6.441c-.7-.383-.62-1.404.148-1.685l.002-.001.023-.005.065-.009c.054-.006.127-.01.216-.016.179-.011.42-.02.703-.029A95.916 95.916 0 0 1 22.941 13c.735-.003 1.472.001 2.048.013.288.005.535.013.721.022.093.005.17.01.229.016a.795.795 0 0 1 .108.014h.002c.119.032.256.113.376.218.12.106.215.228.258.335.043.109.056.277.036.452a1.03 1.03 0 0 1-.137.435l-.065.075a1.247 1.247 0 0 1-.266.211l-.075.034a.608.608 0 0 1-.097.026 3.047 3.047 0 0 1-.42.035c-.425.016-1.187.017-2.648.017h-3.026l-.235-.13Zm7.816-.79c0-.596-.158-1.014-.537-1.353v-.001c-.113-.104-.205-.195-.328-.262-.127-.068-.282-.109-.526-.135-.482-.05-1.355-.047-3.145-.043-1.26 0-2.082.005-2.612.017-.264.006-.458.014-.596.024-.135.01-.228.025-.286.045-.84.311-1.304 1.308-1.046 2.23v.002c.044.144.091.26.16.373.07.112.16.219.285.347.126.13.228.24.363.323.139.084.306.136.559.17.5.066 1.379.063 3.142.063 1.71 0 2.577.001 3.076-.054.25-.029.418-.072.555-.141.068-.034.128-.075.185-.12l.173-.15.148-.144c.136-.143.236-.283.304-.442.09-.21.123-.445.126-.748ZM23 18.194c1.428 0 2.167-.001 2.562-.018a2.14 2.14 0 0 0 .395-.04.322.322 0 0 0 .17-.096c.076-.077.137-.159.143-.26.006-.099-.043-.19-.106-.284l-.09-.137-.03-.045h-3.021c-1.44 0-2.185.001-2.583.017-.198.009-.319.02-.399.04a.332.332 0 0 0-.172.097.663.663 0 0 0-.1.137.334.334 0 0 0-.047.15c0 .05.024.107.047.149a.66.66 0 0 0 .1.137.332.332 0 0 0 .172.095c.08.02.2.032.396.04.395.017 1.134.018 2.563.018Zm0 2.411c1.428 0 2.167 0 2.562-.017.196-.008.316-.02.395-.04a.322.322 0 0 0 .17-.096c.076-.077.137-.16.143-.26.006-.1-.043-.19-.106-.285l-.09-.137-.03-.044h-3.021c-1.44 0-2.185 0-2.583.017a2.18 2.18 0 0 0-.399.04.332.332 0 0 0-.172.097.663.663 0 0 0-.1.137.334.334 0 0 0-.047.149c0 .051.024.107.047.15a.66.66 0 0 0 .1.136.329.329 0 0 0 .172.096c.08.02.2.032.396.04.395.016 1.134.017 2.563.017Zm1.886 10.758c2.465.81 5.1-.521 5.948-3.046 1.027-3.076-1.038-6.29-4.201-6.506h.001a5.705 5.705 0 0 0-.883.018h-.002v.001a4.736 4.736 0 0 0-3.516 2.413l-.14.27c-.195.414-.317.724-.389 1.057-.07.333-.09.685-.088 1.182l.006.475c.005.13.013.236.027.335.028.201.08.371.17.643.262.792.599 1.375 1.132 1.925.543.56 1.022.889 1.697 1.148l.238.085Zm4.363-1.975c-1.187 1.35-3.057 1.72-4.646.918v-.001c-.395-.204-.59-.352-.998-.773-.856-.883-1.212-1.832-1.148-3.047.053-1.07.39-1.845 1.153-2.631l.002-.002a3.846 3.846 0 0 1 1.921-1.097l.33-.066.125-.012a5.98 5.98 0 0 1 1.177.088l.156.034c1.348.355 2.455 1.507 2.818 2.927.057.23.09.58.095.936a4.43 4.43 0 0 1-.072.934 4.36 4.36 0 0 1-.365.948 4.134 4.134 0 0 1-.547.843Z" fill="#fff" stroke="#fff" stroke-width=".2"/><path d="M24.338 29.105a.246.246 0 0 0 .174-.014.834.834 0 0 0 .196-.133c.154-.13.39-.366.785-.77l.838-.858.763.796.339.343c.108.107.21.206.3.29a6.813 6.813 0 0 0 .31.276.31.31 0 0 0 .07.042.415.415 0 0 0 .562-.39.359.359 0 0 0-.053-.171 1.569 1.569 0 0 0-.152-.213c-.137-.169-.36-.409-.704-.767l-.815-.846.814-.845h.001c.244-.252.465-.493.626-.68.08-.093.147-.173.193-.235a1.05 1.05 0 0 0 .058-.082.33.33 0 0 0 .02-.037.142.142 0 0 0 .012-.056.498.498 0 0 0-.103-.32.363.363 0 0 0-.284-.133.336.336 0 0 0-.169.054 1.43 1.43 0 0 0-.203.154c-.16.14-.393.37-.744.731l-.816.842-.815-.842c-.24-.245-.43-.437-.584-.58a2.284 2.284 0 0 0-.375-.3c-.1-.06-.2-.087-.298-.051-.091.033-.154.112-.206.192l-.002.003.087.052-.087-.051a.606.606 0 0 0-.066.164.36.36 0 0 0-.004.175l.019.039.02.031.062.08c.05.06.119.138.201.23.165.183.388.42.628.669l.802.822-.832.863c-.25.26-.476.506-.64.692a5.752 5.752 0 0 0-.195.234 1.2 1.2 0 0 0-.078.111c-.003.007-.014.03-.014.059a.41.41 0 0 0 .11.264.561.561 0 0 0 .247.166h.002Z" fill="#fff" stroke="#fff" stroke-width=".2"/></svg>