<svg width="40" height="41" viewBox="0 0 40 41" fill="none" xmlns="http://www.w3.org/2000/svg"><path d="M25.835 19.252c.373 0 .75-.02.96-.064a4.985 4.985 0 0 0 2.427-1.225l.3-.29c.475-.495.714-.833.997-1.41l.133-.292c.285-.67.398-1.289.398-2.136l-.01-.347c-.037-.781-.198-1.368-.566-2.112v-.002a4.933 4.933 0 0 0-1.039-1.424 5.143 5.143 0 0 0-2.543-1.397 7.06 7.06 0 0 0-.841-.086 9.368 9.368 0 0 0-.465-.017c-.066 0-.125 0-.173.003a.624.624 0 0 0-.113.011 7.67 7.67 0 0 1-.402.07c-.583.1-1.227.355-1.795.706l-.238.156c-.185.13-.461.386-.72.655-.26.27-.507.557-.634.751a5.49 5.49 0 0 0-.902 3.246c.041 1.054.306 1.927.85 2.779h.002a5.32 5.32 0 0 0 3.412 2.361c.211.043.589.064.962.064Zm3.108-2.131c-1.751 1.807-4.533 1.771-6.304-.09-1.388-1.454-1.634-3.79-.601-5.537l.104-.168.117-.172c.613-.848 1.577-1.522 2.503-1.743l.248-.058c.075-.018.13-.032.154-.036h.003a1.77 1.77 0 0 1 .321-.02 11.465 11.465 0 0 1 1.083.054c.164.017.294.036.36.055 1.824.51 3.182 2.171 3.312 4.058.092 1.337-.288 2.509-1.126 3.468l-.174.189Z" fill="#fff" stroke="#fff" stroke-width=".1"/><path d="M25.564 10.58c.159.153.4.156.548-.007a.453.453 0 0 0 .088-.19 1.26 1.26 0 0 0 .03-.252 1.204 1.204 0 0 0-.017-.25.447.447 0 0 0-.077-.194.406.406 0 0 0-.466-.117v-.001a.31.31 0 0 0-.18.19 1.16 1.16 0 0 0-.045.386c0 .124.004.208.021.274.018.068.05.114.098.16Zm-2.177 1.148a.39.39 0 0 0 .282-.108c.07-.07.108-.17.108-.285a.363.363 0 0 0-.051-.192 1.135 1.135 0 0 0-.18-.218c-.129-.13-.246-.212-.357-.233-.118-.023-.218.025-.306.123-.088.097-.13.2-.11.316.02.113.095.23.215.36.085.09.148.15.208.186.063.039.12.051.191.051Zm4.914.009c.114-.025.234-.108.36-.239l.09-.098a.63.63 0 0 0 .146-.272c.023-.121-.022-.226-.12-.318l.002-.001c-.096-.094-.199-.139-.316-.114-.11.024-.223.109-.35.242-.126.13-.207.254-.23.37a.342.342 0 0 0 .105.323c.089.094.194.133.313.107Zm-1.669 2.523c.456 0 .693 0 .827-.013a.426.426 0 0 0 .153-.037c.037-.02.06-.047.085-.073a.407.407 0 0 0 .045-.501l-.051-.06a.338.338 0 0 0-.088-.068.412.412 0 0 0-.133-.035 6.018 6.018 0 0 0-.607-.015h-.64v-2.174l-.018-.014-.118-.093.001-.001a.555.555 0 0 0-.128-.077.339.339 0 0 0-.126-.033.339.339 0 0 0-.126.033.555.555 0 0 0-.128.077l-.117.094-.018.014v2.747l.015.015.105.099a.3.3 0 0 0 .091.066c.04.017.09.028.159.035.138.014.375.015.817.015Zm-4.409 0c.132 0 .22-.003.286-.02a.294.294 0 0 0 .159-.103.402.402 0 0 0-.007-.562.341.341 0 0 0-.166-.096 1.234 1.234 0 0 0-.282-.021c-.13 0-.216.003-.282.021a.34.34 0 0 0-.167.112.46.46 0 0 0-.089.128.346.346 0 0 0-.037.14c0 .044.015.095.037.141a.458.458 0 0 0 .09.128c.05.055.095.091.167.111.067.019.157.022.291.022Zm7.223 0c.188 0 .33-.02.423-.085.099-.069.134-.176.134-.316 0-.139-.035-.247-.134-.315-.094-.065-.237-.086-.428-.086-.13 0-.217.002-.282.02a.297.297 0 0 0-.159.105v-.001a.403.403 0 0 0 .007.562l.074.058a.334.334 0 0 0 .091.037c.067.017.152.022.274.022Zm-6.253 2.766c.114-.024.233-.108.357-.24.123-.13.2-.25.224-.367a.345.345 0 0 0-.102-.32c-.09-.095-.197-.135-.317-.109-.114.025-.233.108-.357.24-.123.129-.201.251-.224.368a.346.346 0 0 0 .101.32c.092.094.198.134.318.108Zm5.032-.102c.19.137.416.139.56-.021l.058-.075a.331.331 0 0 0 .05-.247c-.022-.112-.1-.228-.227-.356-.122-.124-.235-.204-.346-.23-.114-.026-.219.008-.316.09v.001c-.119.1-.142.253-.099.405.044.152.155.31.319.432v.001Zm-2.391 1.247c.136 0 .242-.036.308-.14.062-.096.082-.242.082-.44 0-.134-.003-.224-.02-.29a.305.305 0 0 0-.1-.162c-.16-.154-.4-.157-.547.007a.358.358 0 0 0-.092.169c-.016.068-.02.155-.02.281 0 .195.02.34.083.436.066.102.17.14.306.14Zm-13.908-.255a.446.446 0 0 0 .206-.035c.155-.059.376-.192.72-.421a28.823 28.823 0 0 0 .696-.476l.1-.079.05-.06a.432.432 0 0 0 .065-.222.404.404 0 0 0-.105-.29.342.342 0 0 0-.141-.09.365.365 0 0 0-.174-.01c-.123.02-.27.092-.45.21a6.31 6.31 0 0 1-.225.141l-.012.007.012-.046a5.19 5.19 0 0 1 .121-.332c.106-.268.256-.61.408-.926.41-.858.8-1.44 1.39-2.05l.337-.327a6.74 6.74 0 0 1 2.771-1.535h.002c.76-.219 1.123-.265 2.066-.284.429-.007.66-.012.793-.027a.46.46 0 0 0 .15-.038.236.236 0 0 0 .083-.072h.001c.132-.173.114-.439-.049-.575v-.001a.405.405 0 0 0-.238-.093 6.19 6.19 0 0 0-.624-.012c-.39.005-.905.033-1.144.066-2.333.33-4.28 1.51-5.576 3.379-.176.256-.414.685-.632 1.123a9.956 9.956 0 0 0-.612 1.473l-.028.072-.02-.028a2.925 2.925 0 0 1-.144-.248h-.001c-.109-.202-.2-.337-.296-.41a.307.307 0 0 0-.155-.067.338.338 0 0 0-.162.027.412.412 0 0 0-.2.145.39.39 0 0 0-.069.23c0 .017.005.038.01.057l.027.074c.022.057.055.13.093.213a15.287 15.287 0 0 0 .715 1.358c.017.026.032.049.046.067a.236.236 0 0 0 .039.043l.072.046c.026.011.053.02.084.023Z" fill="#fff" stroke="#fff" stroke-width=".1"/><mask id="path-12-outside-1_476_405" maskUnits="userSpaceOnUse" x="8" y="17.5" width="15" height="16" fill="#000"><path fill="#fff" d="M8 17.5h15v16H8z"/><path d="M14.81 18.276c-.127.052-.19.291-.19.713v.422l-.191.052c-.44.117-.793.258-1.246.497l-.485.253-.326-.328c-.48-.483-.463-.488-1.296.36-.658.671-.807.864-.807 1.028 0 .042.145.23.326.422l.322.347-.254.53c-.24.492-.362.825-.48 1.285l-.05.192-.48.019c-.684.018-.653-.042-.653 1.285 0 1.031 0 1.045.109 1.177.1.122.131.126.562.145l.453.019.145.478c.082.258.258.703.394.98l.254.511-.276.286c-.281.305-.372.441-.372.577 0 .103 1.437 1.609 1.572 1.642.136.037.268-.047.594-.371.263-.272.29-.286.38-.225.304.197.939.488 1.365.624l.484.154v.479c0 .694-.045.67 1.247.67 1.277 0 1.219.033 1.237-.675l.018-.497.186-.047c.385-.103.747-.248 1.241-.502l.512-.262.335.333c.186.187.367.337.408.337.159 0 .345-.154.993-.834.82-.863.815-.845.349-1.342l-.318-.337.263-.54c.145-.295.322-.74.394-.994l.132-.455h.371c.408 0 .63-.06.698-.187.027-.052.046-.544.046-1.14 0-1.331.031-1.27-.644-1.29l-.471-.018-.132-.45a7.348 7.348 0 0 0-.394-.994l-.258-.535.29-.314c.322-.347.38-.483.28-.68-.035-.075-.375-.445-.747-.83-.834-.844-.806-.84-1.291-.361l-.336.328-.516-.272a7.044 7.044 0 0 0-.956-.408l-.444-.136v-.417c0-.432-.064-.652-.204-.708-.09-.033-2.057-.033-2.144.004Zm1.622 1.07c0 .59.05.66.566.773.553.122 1.45.52 1.83.816.264.202.386.17.74-.192l.307-.319.395.408.394.408-.304.328c-.353.38-.376.479-.163.802.35.535.712 1.44.789 1.97.054.384.18.469.72.469h.39v1.125h-.43c-.4 0-.445.01-.544.117-.064.061-.114.155-.114.202 0 .164-.176.797-.317 1.154a7.4 7.4 0 0 1-.39.778c-.135.23-.244.474-.244.544 0 .09.086.216.303.445l.304.329-.38.394-.381.394-.304-.3c-.376-.376-.476-.39-.875-.118-.561.375-1.06.577-2.03.816-.185.047-.262.24-.262.685v.375h-1.088v-.417c0-.549-.027-.587-.593-.727a5.183 5.183 0 0 1-1.75-.788c-.308-.216-.44-.188-.784.174l-.294.304-.394-.408-.399-.412.294-.305c.377-.394.381-.46.055-.994a5.812 5.812 0 0 1-.648-1.632c-.136-.582-.172-.61-.702-.61h-.404v-1.116l.43-.019c.313-.01.45-.032.5-.089.04-.037.117-.272.176-.516.15-.619.353-1.14.639-1.631.335-.568.33-.629-.05-1.023l-.3-.305.39-.408.39-.403.308.319c.367.38.463.394.825.145.544-.365 1.02-.572 1.7-.745.588-.15.611-.178.611-.755v-.441h1.088v.399Z"/></mask><path d="M14.81 18.276c-.127.052-.19.291-.19.713v.422l-.191.052c-.44.117-.793.258-1.246.497l-.485.253-.326-.328c-.48-.483-.463-.488-1.296.36-.658.671-.807.864-.807 1.028 0 .042.145.23.326.422l.322.347-.254.53c-.24.492-.362.825-.48 1.285l-.05.192-.48.019c-.684.018-.653-.042-.653 1.285 0 1.031 0 1.045.109 1.177.1.122.131.126.562.145l.453.019.145.478c.082.258.258.703.394.98l.254.511-.276.286c-.281.305-.372.441-.372.577 0 .103 1.437 1.609 1.572 1.642.136.037.268-.047.594-.371.263-.272.29-.286.38-.225.304.197.939.488 1.365.624l.484.154v.479c0 .694-.045.67 1.247.67 1.277 0 1.219.033 1.237-.675l.018-.497.186-.047c.385-.103.747-.248 1.241-.502l.512-.262.335.333c.186.187.367.337.408.337.159 0 .345-.154.993-.834.82-.863.815-.845.349-1.342l-.318-.337.263-.54c.145-.295.322-.74.394-.994l.132-.455h.371c.408 0 .63-.06.698-.187.027-.052.046-.544.046-1.14 0-1.331.031-1.27-.644-1.29l-.471-.018-.132-.45a7.348 7.348 0 0 0-.394-.994l-.258-.535.29-.314c.322-.347.38-.483.28-.68-.035-.075-.375-.445-.747-.83-.834-.844-.806-.84-1.291-.361l-.336.328-.516-.272a7.044 7.044 0 0 0-.956-.408l-.444-.136v-.417c0-.432-.064-.652-.204-.708-.09-.033-2.057-.033-2.144.004Zm1.622 1.07c0 .59.05.66.566.773.553.122 1.45.52 1.83.816.264.202.386.17.74-.192l.307-.319.395.408.394.408-.304.328c-.353.38-.376.479-.163.802.35.535.712 1.44.789 1.97.054.384.18.469.72.469h.39v1.125h-.43c-.4 0-.445.01-.544.117-.064.061-.114.155-.114.202 0 .164-.176.797-.317 1.154a7.4 7.4 0 0 1-.39.778c-.135.23-.244.474-.244.544 0 .09.086.216.303.445l.304.329-.38.394-.381.394-.304-.3c-.376-.376-.476-.39-.875-.118-.561.375-1.06.577-2.03.816-.185.047-.262.24-.262.685v.375h-1.088v-.417c0-.549-.027-.587-.593-.727a5.183 5.183 0 0 1-1.75-.788c-.308-.216-.44-.188-.784.174l-.294.304-.394-.408-.399-.412.294-.305c.377-.394.381-.46.055-.994a5.812 5.812 0 0 1-.648-1.632c-.136-.582-.172-.61-.702-.61h-.404v-1.116l.43-.019c.313-.01.45-.032.5-.089.04-.037.117-.272.176-.516.15-.619.353-1.14.639-1.631.335-.568.33-.629-.05-1.023l-.3-.305.39-.408.39-.403.308.319c.367.38.463.394.825.145.544-.365 1.02-.572 1.7-.745.588-.15.611-.178.611-.755v-.441h1.088v.399Z" fill="#fff"/><path d="M14.81 18.276c-.127.052-.19.291-.19.713v.422l-.191.052c-.44.117-.793.258-1.246.497l-.485.253-.326-.328c-.48-.483-.463-.488-1.296.36-.658.671-.807.864-.807 1.028 0 .042.145.23.326.422l.322.347-.254.53c-.24.492-.362.825-.48 1.285l-.05.192-.48.019c-.684.018-.653-.042-.653 1.285 0 1.031 0 1.045.109 1.177.1.122.131.126.562.145l.453.019.145.478c.082.258.258.703.394.98l.254.511-.276.286c-.281.305-.372.441-.372.577 0 .103 1.437 1.609 1.572 1.642.136.037.268-.047.594-.371.263-.272.29-.286.38-.225.304.197.939.488 1.365.624l.484.154v.479c0 .694-.045.67 1.247.67 1.277 0 1.219.033 1.237-.675l.018-.497.186-.047c.385-.103.747-.248 1.241-.502l.512-.262.335.333c.186.187.367.337.408.337.159 0 .345-.154.993-.834.82-.863.815-.845.349-1.342l-.318-.337.263-.54c.145-.295.322-.74.394-.994l.132-.455h.371c.408 0 .63-.06.698-.187.027-.052.046-.544.046-1.14 0-1.331.031-1.27-.644-1.29l-.471-.018-.132-.45a7.348 7.348 0 0 0-.394-.994l-.258-.535.29-.314c.322-.347.38-.483.28-.68-.035-.075-.375-.445-.747-.83-.834-.844-.806-.84-1.291-.361l-.336.328-.516-.272a7.044 7.044 0 0 0-.956-.408l-.444-.136v-.417c0-.432-.064-.652-.204-.708-.09-.033-2.057-.033-2.144.004Zm1.622 1.07c0 .59.05.66.566.773.553.122 1.45.52 1.83.816.264.202.386.17.74-.192l.307-.319.395.408.394.408-.304.328c-.353.38-.376.479-.163.802.35.535.712 1.44.789 1.97.054.384.18.469.72.469h.39v1.125h-.43c-.4 0-.445.01-.544.117-.064.061-.114.155-.114.202 0 .164-.176.797-.317 1.154a7.4 7.4 0 0 1-.39.778c-.135.23-.244.474-.244.544 0 .09.086.216.303.445l.304.329-.38.394-.381.394-.304-.3c-.376-.376-.476-.39-.875-.118-.561.375-1.06.577-2.03.816-.185.047-.262.24-.262.685v.375h-1.088v-.417c0-.549-.027-.587-.593-.727a5.183 5.183 0 0 1-1.75-.788c-.308-.216-.44-.188-.784.174l-.294.304-.394-.408-.399-.412.294-.305c.377-.394.381-.46.055-.994a5.812 5.812 0 0 1-.648-1.632c-.136-.582-.172-.61-.702-.61h-.404v-1.116l.43-.019c.313-.01.45-.032.5-.089.04-.037.117-.272.176-.516.15-.619.353-1.14.639-1.631.335-.568.33-.629-.05-1.023l-.3-.305.39-.408.39-.403.308.319c.367.38.463.394.825.145.544-.365 1.02-.572 1.7-.745.588-.15.611-.178.611-.755v-.441h1.088v.399Z" stroke="#fff" stroke-width=".2" mask="url(#path-12-outside-1_476_405)"/><path d="M15.456 29.646c.721.09 1.638-.08 2.29-.422 1.02-.53 1.808-1.51 2.148-2.658l.062-.231c.058-.25.084-.634.08-1.016-.005-.38-.04-.765-.108-1.015-.398-1.526-1.553-2.723-3.008-3.108a4.623 4.623 0 0 0-.82-.114 4.894 4.894 0 0 0-.629-.003l-.158.018a4.119 4.119 0 0 0-2.407 1.29 4.358 4.358 0 0 0-1.146 3.43c.225 2.039 1.719 3.587 3.696 3.83Zm.432-.83c-.514 0-.659-.02-.937-.107l-.001.001c-1.12-.366-1.933-1.206-2.286-2.367-.073-.25-.11-.61-.11-.972s.038-.721.11-.97c.367-1.213 1.27-2.104 2.44-2.414l.2-.04c.214-.034.469-.043.724-.033.34.014.674.064.908.146l.187.073c.427.178.795.43 1.135.783.39.402.652.842.826 1.37l.062.204c.05.195.068.38.081.719l.004.251a2.96 2.96 0 0 1-.325 1.414c-.443.92-1.125 1.525-2.081 1.835-.279.087-.423.106-.937.106Zm8.232.244c.093.047.216.036.388-.021.174-.059.411-.17.742-.34 2.17-1.123 3.608-3.007 4.073-5.343a9.062 9.062 0 0 0 .14-2.063c-.007-.16-.014-.278-.015-.36 0-.042 0-.074.003-.096 0-.004.002-.008.003-.011.005.003.014.005.022.011.041.03.099.08.182.15.127.105.238.172.343.192a.35.35 0 0 0 .297-.083c.142-.115.18-.313.11-.497l-.001.001a.176.176 0 0 0-.03-.05 3.54 3.54 0 0 0-.216-.205 12.936 12.936 0 0 0-.48-.392 12.62 12.62 0 0 0-.49-.369 3.446 3.446 0 0 0-.18-.12.762.762 0 0 0-.088-.045.094.094 0 0 0-.03-.006c-.008 0-.016.002-.02.003a2.232 2.232 0 0 0-.139.064v-.001a.217.217 0 0 0-.048.038.856.856 0 0 0-.054.059 2.98 2.98 0 0 0-.141.18 10.847 10.847 0 0 0-.678 1.047c-.043.076-.08.143-.105.197a.789.789 0 0 0-.03.073.189.189 0 0 0-.013.06.4.4 0 0 0 .13.268.407.407 0 0 0 .268.129h.002c.09-.003.16-.02.235-.083a1.42 1.42 0 0 0 .24-.31l.095-.143.005-.01.005.014a.899.899 0 0 1 .015.141c.003.066.004.149.004.242 0 .187-.008.418-.02.657-.023.477-.066.978-.113 1.204-.347 1.681-1.165 3.002-2.487 4.017-.437.336-1.122.737-1.542.899-.23.09-.37.15-.457.205a.402.402 0 0 0-.105.089.36.36 0 0 0-.056.106v.001c-.064.192.048.407.237.5Z" fill="#fff" stroke="#fff" stroke-width=".1"/></svg>