<svg width="40" height="40" viewBox="0 0 40 40" fill="none" xmlns="http://www.w3.org/2000/svg"><path d="M29 13.5H16c-1.1 0-2 .97-2 2.154v9.692c0 .571.21 1.12.586 1.523A1.93 1.93 0 0 0 16 27.5h13c1.11 0 2-.959 2-2.154v-9.692a2.24 2.24 0 0 0-.586-1.523A1.93 1.93 0 0 0 29 13.5Zm.722 12.895h-14.49V16.192L22.5 21.5l7.222-5.308v10.203ZM22.5 19.962l-7.268-5.157h14.49L22.5 19.962ZM10 15.75a.75.75 0 0 0 0 1.5v-1.5Zm0 .75v.75h2v-1.5h-2v.75Zm-1 3.25a.75.75 0 0 0 0 1.5v-1.5Zm0 .75v.75h3v-1.5H9v.75Z" fill="#fff"/><path d="M7 23.75a.75.75 0 0 0 0 1.5v-1.5Zm0 .75v.75h5v-1.5H7v.75Z" fill="#FDFDFD"/></svg>