<?xml version="1.0" encoding="UTF-8" standalone="no"?>
<svg
   width="626.16602"
   height="560.82819"
   viewBox="0 0 626.16602 560.82819"
   fill="none"
   version="1.1"
   id="svg383"
   sodipodi:docname="1.svg"
   inkscape:version="1.2 (dc2aeda, 2022-05-15)"
   xmlns:inkscape="http://www.inkscape.org/namespaces/inkscape"
   xmlns:sodipodi="http://sodipodi.sourceforge.net/DTD/sodipodi-0.dtd"
   xmlns="http://www.w3.org/2000/svg"
   xmlns:svg="http://www.w3.org/2000/svg">
  <sodipodi:namedview
     id="namedview385"
     pagecolor="#ffffff"
     bordercolor="#000000"
     borderopacity="0.25"
     inkscape:showpageshadow="2"
     inkscape:pageopacity="0.0"
     inkscape:pagecheckerboard="0"
     inkscape:deskcolor="#d1d1d1"
     showgrid="false"
     inkscape:zoom="0.43223443"
     inkscape:cx="345.87712"
     inkscape:cy="276.47034"
     inkscape:window-width="1309"
     inkscape:window-height="991"
     inkscape:window-x="0"
     inkscape:window-y="38"
     inkscape:window-maximized="0"
     inkscape:current-layer="svg383" />
  <g
     opacity="0.25"
     filter="url(#filter0_f_501_36175)"
     id="g15"
     transform="translate(-30.195299,-0.42480408)">
    <path
       d="m 90.5667,472.614 c -3.9664,-0.656 -6.6593,-1.629 -8.068,-2.712 l -1.1667,-6.874 83.733,-1.207 440.16,1.328 v 4.911 c 0,1.739 -3.006,3.474 -9.025,4.466 l -80.161,13.224 -65.458,10.798 -73.252,12.085 c -21.173,3.493 -47.259,3.493 -68.428,0 l -62.737,-10.35 -85.981,-14.202 v 0.018 l -0.053,-0.01 -63.7507,-10.517 z"
       fill="#d4f2e4"
       id="path9" />
    <path
       d="m 90.5667,472.614 c -3.9664,-0.656 -6.6593,-1.629 -8.068,-2.712 l -1.1667,-6.874 83.733,-1.207 440.16,1.328 v 4.911 c 0,1.739 -3.006,3.474 -9.025,4.466 l -80.161,13.224 -65.458,10.798 -73.252,12.085 c -21.173,3.493 -47.259,3.493 -68.428,0 l -62.737,-10.35 -85.981,-14.202 v 0.018 l -0.053,-0.01 -63.7507,-10.517 z"
       fill="url(#paint0_linear_501_36175)"
       fill-opacity="0.15"
       id="path11"
       style="fill:url(#paint0_linear_501_36175)" />
    <path
       d="m 377.319,421.11 219.975,36.107 c 6.045,0.991 9.064,2.728 9.067,4.465 0,1.738 -3.019,3.471 -9.064,4.463 l -80.508,13.214 -65.742,10.791 -73.57,12.076 c -21.265,3.491 -47.464,3.491 -68.726,0 l -63.009,-10.342 -86.353,-14.193 v 0.019 l -0.054,-0.01 -64.0269,-10.51 -5.8379,-0.958 c -3.9836,-0.655 -6.6882,-1.627 -8.103,-2.71 -0.7789,-0.595 -1.1719,-1.225 -1.1719,-1.855 -0.0071,-1.776 3.0833,-3.554 9.2677,-4.569 l 219.113,-35.985 c 21.269,-3.493 47.471,-3.494 68.743,-0.003 z"
       fill="#f0faf6"
       id="path13" />
  </g>
  <path
     d="m 33.767401,328.7692 c -4.384,-2.698 -7.3604,-6.702 -8.9174,-11.163 l -1.2894,-28.295 92.548099,-4.968 486.497,5.464 v 20.218 c 0,7.159 -3.322,14.301 -9.975,18.385 l -88.599,54.434 -72.349,44.451 -80.964,49.744 c -23.402,14.381 -52.234,14.381 -75.633,0 l -69.341,-42.601 -95.032,-58.464 v 0.075 l -0.059,-0.042 -70.461699,-43.292 z"
     fill="#d4f2e4"
     id="path17" />
  <path
     d="m 33.767401,328.7692 c -4.384,-2.698 -7.3604,-6.702 -8.9174,-11.163 l -1.2894,-28.295 92.548099,-4.968 486.497,5.464 v 20.218 c 0,7.159 -3.322,14.301 -9.975,18.385 l -88.599,54.434 -72.349,44.451 -80.964,49.744 c -23.402,14.381 -52.234,14.381 -75.633,0 l -69.341,-42.601 -95.032,-58.464 v 0.075 l -0.059,-0.042 -70.461699,-43.292 z"
     fill="url(#paint1_linear_501_36175)"
     fill-opacity="0.15"
     id="path19"
     style="fill:url(#paint1_linear_501_36175)" />
  <path
     d="m 350.7087,116.7562 243.132,148.633 c 6.681,4.081 10.018,11.23 10.022,18.38 0,7.154 -3.337,14.291 -10.019,18.372 l -88.983,54.397 -72.663,44.421 -81.316,49.71 c -23.503,14.371 -52.46,14.371 -75.96,0 l -69.642,-42.572 -95.444,-58.424 v 0.075 l -0.06,-0.042 -70.767299,-43.262 -6.4524,-3.943 c -4.403,-2.697 -7.3923,-6.698 -8.956,-11.156 -0.8609,-2.45 -1.2953,-5.042 -1.2953,-7.634 -0.0079,-7.313 3.4079,-14.63 10.2434,-18.812 L 274.7287,116.7692 c 23.507,-14.379 52.468,-14.384 75.98,-0.013 z"
     fill="#f0faf6"
     id="path21" />
  <path
     d="m 521.6667,260.1972 v 4.201 l -58.067,35.674 -0.047,-4.164 27.555,-16.926 v -121.717 c 0.082,0.2 0.205,0.375 0.358,0.512 l 1.296,1.162 c 0.435,0.393 1.05,0.443 1.678,0.206 v 113.426 4.357 z"
     fill="#d4f2e4"
     id="path23" />
  <path
     d="m 521.6637,260.1962 -27.226,16.738 v -4.358 l 23.677,-14.559 z"
     fill="#c7ebdb"
     id="path25" />
  <path
     d="m 494.7797,101.4202 -4.91,46.767 v 0.007 l -1.637,0.998 4.957,-47.204 z"
     fill="#81bec7"
     id="path27" />
  <path
     d="m 494.7787,101.4202 -1.59,0.568 -131.093,-80.542704 1.602,-0.5744 z"
     fill="#81bec7"
     id="path29" />
  <path
     d="m 494.4377,161.0842 v 0.006 c -0.792,-0.331 -1.918,0.094 -2.699,1.087 -0.299,0.374 -0.516,0.78 -0.633,1.18 v -11.492 -0.044 l 3.309,-1.735 0.023,0.018 z"
     fill="#d4f2e4"
     id="path31" />
  <path
     d="m 494.4147,150.0862 -3.315,1.736 v 0.043 l -3.543,-2.178 v -0.075 l 0.675,-0.419 1.636,-0.999 v -0.006 l 0.728,-0.443 z"
     fill="#c7ebdb"
     id="path33" />
  <path
     d="m 357.2637,67.501196 0.193,-1.8105 4.641,-44.2454 131.093,80.542904 -4.957,47.205 -0.675,0.418 v 0.075 5.975 l -5.28,50.232 -123.291,-75.754 -3.332,-2.048 -3.549,-2.179 -0.915,-0.562 0.915,-8.696 v -0.013 l 3.549,-33.775504 v -0.025 z"
     fill="#5c98a1"
     id="path35" />
  <path
     d="m 491.1027,157.2662 v 121.716 l -3.549,-2.178 v -27.814 l -106.061,-65.172 -3.408,-2.092 -3.55,-2.179 -15.546,-9.558 -3.338,-2.048 v 27.558 l -3.549,-2.179 v -67.414 l 3.549,2.179 v 35.979 l 131.903,81.043 v -3.696 -71.172 -14.584 -5.975 l 3.549,2.179 v 3.715 c 0,1.692 0,0 0,1.673 z"
     fill="#c7ebdb"
     id="path37" />
  <path
     d="m 491.1007,278.9822 -27.549,16.926 -3.55,-2.179 27.549,-16.925 z"
     fill="#c7ebdb"
     id="path39" />
  <path
     d="m 487.5567,241.4172 v 3.696 l -131.902,-81.042 3.332,-1.648 21.706,13.341 h 0.012 l 3.537,2.179 1.971,1.205 z"
     fill="#d4f2e4"
     id="path41" />
  <path
     d="m 487.5577,155.6612 v 14.584 l -3.685,35.074 -1.595,0.575 z"
     fill="#81bec7"
     id="path43" />
  <path
     d="m 463.5517,295.9072 0.047,4.171 -3.597,-2.217 v -4.133 z"
     fill="#c7ebdb"
     id="path45" />
  <path
     d="m 386.2137,176.7252 v 2.423 l -1.971,-1.205 z"
     fill="#fffffe"
     id="path47" />
  <path
     d="m 386.2137,176.7262 -1.971,1.217 -3.538,-2.179 1.966,-1.217 z"
     fill="#c7ebdb"
     id="path49" />
  <path
     d="m 381.4927,183.8182 -53.344,32.776 -0.047,-4.158 27.555,-16.931 v -27.564 l 3.332,2.054 v 19.104 4.358 l 19.096,-11.731 z"
     fill="#d4f2e4"
     id="path51" />
  <path
     d="m 378.0837,181.7272 -19.095,11.73 v -4.357 l 15.546,-9.552 z"
     fill="#c7ebdb"
     id="path53" />
  <path
     d="m 358.9867,130.1392 v 32.284 l -3.332,1.648 v -35.979 z"
     fill="#d4f2e4"
     id="path55" />
  <path
     d="m 357.4557,65.690996 -0.194,1.8106 -1.607,0.8428 v 0.0437 l -3.549,-2.1789 v -0.0687 l 3.039,-1.8729 z"
     fill="#c7ebdb"
     id="path57" />
  <path
     d="m 357.2617,67.500996 -1.607,15.3394 v -14.4529 -0.0437 z"
     fill="#fffffe"
     id="path59" />
  <path
     d="m 355.6547,82.840796 v 0.025 l -3.549,33.775404 v -44.232704 -3.8832 -1.8917 -0.4246 l 3.549,2.1789 z"
     fill="#c7ebdb"
     id="path61" />
  <path
     d="m 355.6547,195.5052 -27.555,16.931 -3.549,-2.172 27.555,-16.938 z"
     fill="#c7ebdb"
     id="path63" />
  <path
     d="m 328.0997,212.4362 0.047,4.158 -3.596,-2.204 v -4.127 z"
     fill="#c7ebdb"
     id="path65" />
  <path
     opacity="0.31"
     d="m 416.1197,95.876396 c 2.543,3.8398 5.337,7.502804 8.325,10.916804 6.747,0.749 13.906,2.844 21.232,6.214 l -1.2,-0.857 c -5.672,-3.966 -11.225,-8.704 -16.495,-14.076604 l -0.838,-0.8786 c -3.791,-0.8101 -7.477,-1.2509 -11.024,-1.3186 z m -10.177,0.9264 c -1.675,0.3565 -3.299,0.816 -4.871,1.3784 1.472,3.558004 3.161,7.102004 5.047,10.593004 1.558,-0.607 3.237,-1.1 5.037,-1.48 1.634,-0.344 3.278,-0.579 4.933,-0.707 -1.982,-2.506 -3.869,-5.106 -5.647,-7.779504 -0.579,-0.8719 -1.127,-1.7478 -1.644,-2.551 -0.952,0.1418 -1.903,0.3055 -2.855,0.5461 z m -19.649,11.254404 c 0.945,3.367 2.19,6.784 3.712,10.185 v 0.066 l 0.073,0.173 v 0.055 0.055 l 0.062,0.145 v 0.055 l 0.062,0.124 0.062,0.145 c 0.004,0.021 0.004,0.04 0,0.055 l 0.093,0.186 v 0.066 l 0.227,0.482 c 1.992,-2.786 4.304,-5.196 6.909,-7.201 1.034,-0.753 2.068,-1.516 3.227,-2.197 -0.652,-1.144 -1.304,-2.321 -1.934,-3.519 -1.251,-2.351 -2.418,-4.724 -3.496,-7.108004 -3.498,2.060004 -6.619,4.685004 -9.318,7.840004"
     fill="#ffffff"
     id="path67" />
  <path
     opacity="0.31"
     d="m 412.4057,117.4722 -1.117,0.036 c 2.449,3.694 5.102,7.247 7.922,10.607 6.818,0.192 14.097,1.681 21.625,4.422 1.986,0.73 3.899,1.502 5.74,2.316 -3.183,-2.218 -6.34,-4.631 -9.453,-7.224 -3.267,-2.685 -6.489,-5.541 -9.649,-8.555 -5.228,-1.176 -10.274,-1.713 -15.068,-1.602 z m -20.353,5.232 c 1.504,2.838 3.184,5.619 5.016,8.304 l 0.093,0.142 0.3,0.447 0.083,0.125 0.082,0.124 0.104,0.148 0.072,0.097 0.062,0.09 0.052,0.085 0.083,0.114 0.062,0.035 0.051,0.03 c 1.228,-0.674 2.5,-1.274 3.817,-1.801 3.434,-1.22 7.126,-1.966 11.034,-2.23 -2.646,-3.279 -5.154,-6.705 -7.497,-10.242 -4.836,0.821 -9.319,2.349 -13.383,4.561"
     fill="#ffffff"
     id="path69" />
  <path
     opacity="0.31"
     d="m 419.0657,136.7212 c -6.582,-1.39 -12.826,-1.652 -18.564,-0.779 1.034,1.288 2.069,2.533 3.103,3.722 2.041,2.305 4.178,4.461 6.381,6.438 8.689,-0.283 18.348,2.031 28.326,6.788 -6.222,-4.544 -12.293,-9.895 -18.046,-15.905 l -1.221,-0.265 z"
     fill="#ffffff"
     id="path71" />
  <path
     opacity="0.98"
     d="m 387.8047,78.003796 c 2.839,11.1642 7.7,22.678404 14.21,33.655404 14.81,24.82 33.632,38.89 44.47,45.488 2.619,-1.292 4.822,-3.226 6.536,-5.738 -5.626,-2.711 -28.192,-14.894 -44.728,-42.631 -7.141,-12.113504 -11.957,-24.900504 -13.869,-36.826504 -2.686,1.3563 -4.933,3.3897 -6.66,6.0282"
     fill="#c3d9dc"
     id="path73" />
  <path
     opacity="0.98"
     d="m 397.6247,70.752096 c 0.455,1.7581 0.993,3.5345 1.614,5.3197 8.18,23.7894 29.64,47.906404 56.146,63.210404 0.331,0.191 0.662,0.382 1.582,0.99 0.175,-1.475 0.262,-3.012 0.259,-4.601 -0.001,-1.529 -0.08,-3.102 -0.238,-4.712 -23.859,-13.665 -43.074,-34.742104 -49.796,-54.212204 -0.772,-2.2466 -1.385,-4.4733 -1.831,-6.6518 -2.767,-0.2455 -5.365,-0.0359 -7.736,0.624"
     fill="#c1d8db"
     id="path75" />
  <path
     opacity="0.98"
     d="m 408.5367,70.601796 c 9.153,18.1307 25.597,35.040404 44.719,46.080404 l 0.465,0.269 c -1.522,-4.305 -3.504,-8.624 -5.884,-12.821 -12.08,-7.851804 -22.546,-18.578804 -29.433,-29.905604 -3.364,-1.7361 -6.685,-2.9517 -9.867,-3.6119"
     fill="#c1d8db"
     id="path77" />
  <path
     d="m 264.5477,154.7832 c -0.483,0.096 -0.193,2.9 -0.773,4.205 -0.58,1.305 -9.207,5.945 -9.667,7.226 -0.459,1.28 -0.604,3.117 -0.604,3.117 0,0 2.949,3.528 4.471,3.238 5.655,-1.087 7.854,-4.809 7.854,-4.809 0,0 6.525,-2.948 6.453,-4.906 -0.073,-1.957 -0.822,-6.186 -0.822,-6.186 l -0.531,-5.728 z"
     fill="#aec2eb"
     id="path79" />
  <path
     d="m 287.2647,160.9212 c 0,0.218 -0.628,4.737 -0.507,5.921 0.097,1.184 1.643,3.118 1.643,3.118 0,0 0.339,8.579 2.272,9.352 1.933,0.773 6.235,-0.556 6.791,-1.208 0.531,-0.653 0.797,-3.819 0.797,-3.819 0,0 -0.942,-5.171 -1.595,-5.775 -0.652,-0.605 -2.054,-2.876 -2.054,-2.876 l -0.072,-6.96 z"
     fill="#aec2eb"
     id="path81" />
  <path
     d="m 264.0157,75.443396 c -0.12,0.5075 -3.214,11.6242 -3.528,19.5992 -0.314,7.950604 0.048,32.335604 0.701,35.476604 0.652,3.142 8.241,5.22 10.706,3.045 2.465,-2.199 3.311,-6.162 3.311,-6.162 0,0 2.32,-20.325 3.141,-22.596 0.846,-2.272 2.925,-18.874504 -0.169,-23.200304 -3.045,-4.3259 -14.162,-6.1625 -14.162,-6.1625 z"
     fill="#000000"
     id="path83" />
  <path
     d="m 274.4317,84.482296 c 0.073,0.29 -1.329,17.617904 0.121,19.623904 1.474,1.981 2.683,2.585 2.683,2.585 0,0 2.61,6.96 5.147,27.792 0.459,3.843 10.948,7.492 12.446,5.679 1.498,-1.812 2.803,-13.001 2.803,-13.001 0,0 1.837,-16.941 2.03,-22.693 0.87,-25.302604 -1.039,-28.565104 -1.981,-29.241804 -0.919,-0.6766 -23.249,9.2559 -23.249,9.2559 z"
     fill="#000000"
     id="path85" />
  <path
     d="m 282.3827,134.4582 c 1.136,9.039 2.151,26.632 2.924,28.13 0.774,1.523 9.498,2.78 10.585,-0.99 1.088,-3.795 2.03,-28.831 1.74,-35.477 -0.266,-6.622 -15.249,8.337 -15.249,8.337 z"
     fill="#000000"
     id="path87" />
  <path
     d="m 262.2277,80.277296 c 0,0 -0.338,3.2384 -0.532,4.9784 -0.169,1.74 8.241,6.67 19.479,6.67 11.237,0 18.801,-2.8033 18.56,-6.3075 -0.218,-3.48 -0.218,-3.48 -0.218,-3.48 z"
     fill="#d3405e"
     id="path89" />
  <path
     d="m 260.8987,129.1912 c 0,0 1.232,25.834 1.571,27.937 0.338,2.102 9.98,2.078 10.826,-0.194 0.846,-2.271 2.78,-27.429 2.079,-30.667 -0.701,-3.239 -14.476,2.924 -14.476,2.924 z"
     fill="#000000"
     id="path91" />
  <path
     d="m 299.5407,83.104696 c -1.16,2.1992 -10.416,6.6217 -22.838,5.0509 -12.422,-1.5709 -14.427,-5.8242 -14.572,-7.5159 -0.145,-1.6917 1.135,-20.1067 0,-26.7284 -1.136,-6.6217 -3.239,-18.6809 -3.021,-20.7351 0.217,-2.0784 5.147,-3.5042 14.161,-5.8484 4.858,-1.2566 24.651,2.8759 25.134,3.2384 0.483,0.3625 -0.29,23.4417 -0.483,26.3901 -0.194,2.9725 1.715,20.9042 1.595,22.3059 -0.073,1.4258 0.024,3.8425 0.024,3.8425 z"
     fill="#eb4869"
     id="path93" />
  <path
     d="m 276.4397,41.174796 c 0,0 -4.157,36.1535 -4.133,38.4493 0.048,2.2959 3.77,4.9542 3.77,4.9542 l 3.963,-4.2775 -1.16,-38.8118 z"
     fill="#000000"
     id="path95" />
  <path
     d="m 277.6457,35.089896 c 0,0 -0.966,-0.1963 -1.256,0.1682 -0.29,0.3644 -1.426,2.3267 -1.474,3.6722 -0.049,1.3456 1.329,3.8965 1.329,3.8965 0,0 2.32,0.3084 2.682,-0.0841 0.363,-0.3644 1.16,-4.0086 1.112,-4.6534 -0.024,-0.6167 -2.393,-2.9994 -2.393,-2.9994 z"
     fill="#000000"
     id="path97" />
  <path
     d="m 298.4047,30.566396 c -1.401,0.8942 -2.199,9.0625 -2.151,10.8992 0.049,1.8367 1.91,9.715 1.861,10.7784 -0.048,1.0392 8.749,13.2192 11.407,12.8567 2.658,-0.3625 5.921,-8.265 4.157,-11.165 -1.765,-2.9 -10.803,-19.4059 -11.987,-21.1943 -1.184,-1.8367 -3.287,-2.175 -3.287,-2.175 z"
     fill="#d3405e"
     id="path99" />
  <path
     d="m 269.7667,21.672496 c 0.967,2.6825 1.402,7.4433 1.088,9.3042 -0.314,1.8366 0.652,3.1658 3.069,3.8908 2.417,0.725 5.703,0.6525 7.975,-1.2808 2.272,-1.9575 3.118,-3.8909 3.118,-4.9784 0,-1.0875 -1.91,-2.5617 -2.079,-3.5042 -0.169,-0.9425 -0.507,-4.5191 -0.048,-5.8966 0.483,-1.3776 2.054,-4.9784 0.556,-7.7576 -1.499,-2.7549901 -13.92,2.6825 -13.92,2.6825 z"
     fill="#ffffff"
     id="path101" />
  <path
     d="m 283.3497,25.877896 c 0,0 0.846,1.3051 0.846,2.2717 0,0.9667 -1.885,4.6642 -7.782,5.8484 0.145,1.2808 0.145,1.2808 0.145,1.2808 0,0 3.456,2.3684 4.81,2.8759 1.353,0.4833 5.171,-4.1809 5.437,-6.3801 0.266,-2.1991 -0.048,-2.9 -0.387,-3.6008 -0.338,-0.7009 -3.649,-4.1084 -3.649,-4.1084 0,0 -0.314,0.8217 0.58,1.8125 z"
     fill="#d3405e"
     id="path103" />
  <path
     d="m 276.4387,33.998096 0.145,1.2809 c 0,0 -2.006,3.4558 -2.538,3.8183 -0.531,0.3867 -4.422,-2.1992 -5.34,-4.6642 -0.919,-2.465 -0.629,-4.9058 1.015,-5.8725 1.643,-0.9667 1.353,3.1658 1.353,3.1658 0,0 2.272,2.4409 5.365,2.2717 z"
     fill="#d3405e"
     id="path105" />
  <path
     d="m 282.5517,15.292496 c -0.073,0.1933 -0.967,8.7483 -1.595,9.9808 -0.629,1.2084 -6.936,5.7759 -8.459,6.0659 -1.522,0.29 -3.093,0.0242 -3.528,-0.58 -0.411,-0.6042 -2.489,-6.09 -2.803,-10.15 -0.315,-4.0601 -0.194,-8.8451 0.362,-11.0684201 0.556,-2.19917 0.483,-2.87584 5.027,-3.93918 4.567,-1.06334 8.047,-2.90001 10.005,-0.38667 1.957,2.51334 0.991,10.0775701 0.991,10.0775701 z"
     fill="#ffffff"
     id="path107" />
  <path
     d="m 269.5277,10.290196 c 0.942,0.1691 1.885,0.1933 2.852,0.1933 1.401,-0.0242 2.779,-0.145 4.18,-0.0967 0.145,0 0.266,0 0.411,0.0484 0.218,0.0725 0.387,0.2175 0.556,0.3866 0.169,0.1934 0.193,0.2659 0.169,0.5075 -0.072,0.4109 -0.121,0.8217 -0.169,1.2084 -0.048,0.5558 -0.169,1.4983 0.242,1.9333 0.701,0.725 2.006,2.0059 2.006,2.0059 l 0.966,4.785 1.74,-0.6525 c 0,0 -0.145,-2.6342 0.363,-4.3017 0.507,-1.6433 1.619,-1.4258 1.981,-0.2175 0.363,1.2083 -2.005,2.4892 -2.175,4.205 -0.169,1.7159 0.339,4.8575 0.339,4.8575 0,0 0.096,-2.0058 1.281,-3.4075 1.208,-1.4017 3.528,-5.4617 3.866,-9.5459 0.339,-4.1808101 0.266,-7.4433201 -3.311,-9.4249901 -4.011,-4.37419 -13.871,-2.87584598 -16.53,-0.29 -1.208,1.18417 -3.069,3.84251 -3.045,6.35585 0.025,1.6916401 -0.29,7.8058401 0.774,8.3617401 -0.073,-0.0484 0.024,-1.015 0.024,-1.1359 0,-0.3625 0.024,-0.7491 0.048,-1.1116 0.024,-0.6767 0.073,-1.3292 0.121,-1.9817 0.073,-0.9184 0.145,-1.8367 0.242,-2.7792 0.024,-0.1692 0,-0.4592001 0.096,-0.6283301 0.121,-0.21751 0.387,-0.0725 0.604,0 0.363,0.12083 0.726,0.26583 1.088,0.38663 0.411,0.1450001 0.822,0.2659001 1.281,0.3384001 z"
     fill="#000000"
     id="path109" />
  <path
     d="m 281.9247,20.295196 c 0.096,0.3142 0.7,0.8458 1.57,-0.58 0.87,-1.4258 2.248,-3.4558 1.33,-4.8333 -0.919,-1.3775 -1.837,-0.3384 -2.248,0.6041 -0.411,0.9184 -0.846,4.1084 -0.652,4.8092 z"
     fill="#ffffff"
     id="path111" />
  <path
     d="m 260.3907,31.556496 c -0.604,-0.0967 -5.292,1.6916 -6.235,5.3166 -0.459,1.7642 -1.063,3.4317 -2.682,17.4001 -0.629,5.4617 0.846,18.0526 2.199,18.7051 1.353,0.6525 7.468,-3.3109 8.265,-6.2351 0.943,-3.4075 0.532,-10.1017 0.701,-17.4967 0.29,-10.2225 -2.248,-17.69 -2.248,-17.69 z"
     fill="#d3405e"
     id="path113" />
  <path
     d="m 271.6527,78.102296 c 0,0 2.948,1.0391 3.746,1.3291 0.797,0.3142 5.244,2.7792 5.752,2.8759 0.507,0.0725 5.824,-2.4409 5.824,-2.4409 l 1.426,-0.3141 c 0,0 1.184,-1.5225 1.184,-2.1025 -0.024,-0.58 -0.629,-1.0634 -0.629,-1.0634 l -2.924,1.1117 -3.238,-2.2958 c 0,0 -1.063,-2.7067 -1.402,-2.8275 -0.338,-0.1209 -6.936,0.4591 -6.936,0.4591 l -7.153,-2.3925 z"
     fill="#ffffff"
     id="path115" />
  <path
     d="m 288.7167,76.458696 c 0,0 -0.774,-0.9184 -2.079,-1.305 -1.305,-0.4109 -2.344,-0.4592 -2.561,-0.0484 -0.194,0.4109 0.362,1.7159 0.894,2.1026 0.532,0.3866 1.716,1.16 2.417,1.0633 0.7,-0.0725 2.344,-0.725 1.329,-1.8125 z"
     fill="#32364c"
     id="path117" />
  <path
     d="m 258.1687,64.907096 c -2.634,-0.0483 -3.963,0.87 -4.664,2.6342 -0.411,1.015 -0.556,4.0117 -0.169,5.0508 0.386,1.0392 6.839,3.915 11.02,5.0267 7.467,1.9817 9.521,2.32 9.521,2.32 0,0 -1.111,-3.0208 0.121,-6.0417 0.532,-1.305 0.701,-1.5467 0.701,-1.5467 0,0 -11.842,-5.9933 -12.688,-6.5733 -0.87,-0.6042 -3.842,-0.87 -3.842,-0.87 z"
     fill="#d3405e"
     id="path119" />
  <path
     d="m 287.3597,75.516696 c 0.097,0.1691 0.363,0.58 0.024,0.9425 -0.338,0.3625 -1.232,0.6766 -1.885,0.1691 -0.652,-0.4833 -2.32,-1.5467 -2.32,-1.5467 l -2.465,-0.58 c 0,0 -2.175,0.5075 -2.996,-0.29 -0.798,-0.7975 -1.378,-1.3291 -0.677,-1.6433 0.701,-0.3142 5.365,-0.4833 5.365,-0.4833 l 3.335,1.6916 z"
     fill="#ffffff"
     id="path121" />
  <path
     d="m 323.6597,55.723496 c 0,0 -9.111,-1.1117 -9.763,-1.4259 -0.653,-0.3383 -4.423,5.8001 -4.64,7.7817 -0.218,1.9817 0.121,3.0209 0.121,3.0209 0,0 2.489,0.0966 6.066,0.2175 3.576,0.1208 9.473,-0.6767 10.343,-1.4259 2.32,-2.0541 -2.127,-8.1683 -2.127,-8.1683 z"
     fill="#d3405e"
     id="path123" />
  <path
     d="m 323.2257,56.255296 c -0.411,0.1933 -1.305,0.2175 -1.716,1.1117 -0.411,0.8941 -0.411,2.8758 0.048,3.8667 0.435,0.9908 1.208,1.8366 1.837,1.9333 0.628,0.0967 1.498,-0.0967 1.498,-0.0967 0,0 3.432,0.3384 4.157,0.2659 0.725,-0.0725 7.081,-1.6675 7.661,-2.2959 0.58,-0.6283 0.314,-1.4741 0.314,-1.4741 0,0 2.151,-0.4109 2.368,-0.8701 0.218,-0.4591 -0.193,-1.1358 -0.193,-1.1358 0,0 0.556,0 0.846,-0.6283 0.265,-0.6284 -0.46,-1.5467 -0.46,-1.5467 l -1.16,-0.0483 c 0,0 0.58,-1.6192 0,-1.8125 -0.58,-0.1934 -5.437,-0.4834 -5.848,-0.5075 -0.411,-0.0242 -3.359,0.0966 -3.359,0.0966 l 0.121,-0.8941 c 0,0 1.885,-1.6917 2.441,-2.5859 0.555,-0.87 0.628,-2.175 0.362,-2.5858 -0.266,-0.3867 -1.377,-0.4834 -1.619,0.1691 -0.242,0.6525 -0.773,1.4984 -0.773,1.4984 0,0 -3.118,2.175 -3.408,2.5375 -0.29,0.3383 -2.078,2.5858 -2.441,3.1417 -0.338,0.5316 -0.676,1.8608 -0.676,1.8608 z"
     fill="#f8f8f8"
     id="path125" />
  <path
     fill-rule="evenodd"
     clip-rule="evenodd"
     d="m 189.6057,239.8462 c 0,0 3.707,-3.309 5.429,-5.512 0.923,-1.179 1.428,-2.037 1.557,-4.767 0.058,-1.27 -0.036,-2.218 -0.696,-2.414 -0.3,-0.091 -0.227,0.68 -0.227,0.68 0,0 -0.003,-1.518 -0.78,-1.847 -0.779,-0.33 -0.519,0.725 -0.519,0.725 0,0 -0.014,-1.671 -0.806,-1.951 -0.792,-0.279 -0.511,0.837 -0.511,0.837 0,0 -0.048,-1.432 -0.661,-1.768 -0.611,-0.337 -0.784,0.061 -0.94,1.013 -0.188,1.115 -0.682,3.696 -1.979,5.309 -1.376,1.715 -3.178,2.163 -3.361,3.965 -0.183,1.798 -1.864,3.426 -1.864,3.426 z"
     fill="#fafafa"
     id="path127" />
  <path
     fill-rule="evenodd"
     clip-rule="evenodd"
     d="m 186.1377,234.3792 c 0.119,-2.224 0.196,-3.909 0.099,-5.259 -0.104,-1.44 -0.045,-2.896 0.692,-2.895 1.438,-0.001 1.707,6.066 1.707,6.066 z"
     fill="#fafafa"
     id="path129" />
  <path
     d="m 334.2697,319.9202 v 46.032 l -3.332,1.648 v -49.728 z"
     fill="#d4f2e4"
     id="path131" />
  <path
     d="m 327.6057,319.9202 v 46.023 l 3.332,1.648 v -49.719 z"
     fill="#c7ebdb"
     id="path133" />
  <rect
     width="194.30394"
     height="72.668976"
     rx="1.9999993"
     transform="matrix(-0.8660253,-0.50000017,-0.8660253,0.50000017,0,0)"
     fill="#c8eddb"
     id="rect135"
     x="-516.33447"
     y="58.799702" />
  <rect
     width="194.30394"
     height="72.668976"
     rx="1.9999993"
     transform="matrix(-0.8660253,-0.50000017,-0.8660253,0.50000017,0,0)"
     fill="#5c98a1"
     fill-opacity="0.15"
     id="rect137"
     x="-516.33447"
     y="58.799702" />
  <path
     d="m 219.2077,248.9162 18.31,-10.485 -31.582,-21.21 -18.345,11.23 z"
     fill="#d9d9d9"
     id="path139" />
  <path
     d="m 219.2077,248.9162 18.31,-10.485 -31.582,-21.21 -18.345,11.23 z"
     fill="url(#paint2_linear_501_36175)"
     id="path141"
     style="fill:url(#paint2_linear_501_36175)" />
  <path
     d="m 219.2077,248.9162 18.31,-10.485 -31.582,-21.21 -18.345,11.23 z"
     stroke="#4e8b9d"
     stroke-width="1.5"
     stroke-linejoin="round"
     id="path143" />
  <path
     d="m 215.2557,191.4142 32.373,20.383 -10.191,26.878 -31.974,-21.582 z"
     fill="#d9d9d9"
     id="path145" />
  <path
     d="m 215.2557,191.4142 32.373,20.383 -10.191,26.878 -31.974,-21.582 z"
     fill="#f0faf6"
     id="path147" />
  <path
     fill-rule="evenodd"
     clip-rule="evenodd"
     d="m 215.0147,190.6882 c -0.218,0.072 -0.392,0.239 -0.474,0.453 l -9.791,25.679 c -0.127,0.333 -0.008,0.709 0.287,0.908 l 31.974,21.582 c 0.194,0.131 0.437,0.166 0.66,0.096 0.223,-0.071 0.401,-0.24 0.484,-0.459 l 10.192,-26.878 c 0.129,-0.34 0,-0.725 -0.308,-0.919 l -32.374,-20.384 c -0.194,-0.122 -0.433,-0.151 -0.65,-0.078 z m 31.677,21.424 -9.626,25.387 -30.668,-20.701 9.242,-24.237 z"
     fill="#000000"
     id="path149" />
  <path
     fill-rule="evenodd"
     clip-rule="evenodd"
     d="m 215.0147,190.6882 c -0.218,0.072 -0.392,0.239 -0.474,0.453 l -9.791,25.679 c -0.127,0.333 -0.008,0.709 0.287,0.908 l 31.974,21.582 c 0.194,0.131 0.437,0.166 0.66,0.096 0.223,-0.071 0.401,-0.24 0.484,-0.459 l 10.192,-26.878 c 0.129,-0.34 0,-0.725 -0.308,-0.919 l -32.374,-20.384 c -0.194,-0.122 -0.433,-0.151 -0.65,-0.078 z m 31.677,21.424 -9.626,25.387 -30.668,-20.701 9.242,-24.237 z"
     fill="#d4f2e4"
     id="path151" />
  <path
     fill-rule="evenodd"
     clip-rule="evenodd"
     d="m 215.0147,190.6882 c -0.218,0.072 -0.392,0.239 -0.474,0.453 l -9.791,25.679 c -0.127,0.333 -0.008,0.709 0.287,0.908 l 31.974,21.582 c 0.194,0.131 0.437,0.166 0.66,0.096 0.223,-0.071 0.401,-0.24 0.484,-0.459 l 10.192,-26.878 c 0.129,-0.34 0,-0.725 -0.308,-0.919 l -32.374,-20.384 c -0.194,-0.122 -0.433,-0.151 -0.65,-0.078 z m 31.677,21.424 -9.626,25.387 -30.668,-20.701 9.242,-24.237 z"
     fill="url(#paint3_linear_501_36175)"
     id="path153"
     style="fill:url(#paint3_linear_501_36175)" />
  <g
     opacity="0.4"
     id="g179"
     transform="translate(-30.195299,-0.42480408)">
    <path
       d="m 263.15,213.56 c 0.406,0.37 0.835,0.714 1.285,1.029 l -0.019,-0.151 0.007,-0.011 -0.002,-0.023 -0.002,-0.022 -0.01,-0.053 0.006,-0.01 -0.003,-0.017 -0.016,-0.091 c -0.372,-0.195 -0.779,-0.393 -1.218,-0.584 z m -5.788,-1.388 c 0.221,0.703 0.524,1.379 0.902,2.015 1.594,0.229 3.147,0.697 4.606,1.389 l -0.206,-0.166 c -0.985,-0.771 -1.858,-1.674 -2.593,-2.683 l -0.114,-0.164 c -0.854,-0.197 -1.722,-0.327 -2.595,-0.391 z m -2.625,0.011 c -0.453,0.037 -0.905,0.093 -1.355,0.167 -0.015,0.638 0.027,1.278 0.122,1.911 0.452,-0.083 0.921,-0.144 1.408,-0.183 0.442,-0.036 0.876,-0.052 1.3,-0.05 -0.225,-0.463 -0.416,-0.942 -0.572,-1.432 -0.051,-0.159 -0.093,-0.319 -0.136,-0.466 -0.251,0.011 -0.505,0.025 -0.767,0.053 z m -6.076,1.662 c -0.125,0.597 -0.18,1.208 -0.165,1.82 l -0.007,0.011 -0.001,0.031 -0.006,0.01 -0.005,0.009 v 0.026 l -0.006,0.01 0.002,0.022 v 0.026 c -0.001,0.004 -0.003,0.007 -0.006,0.01 l 0.003,0.033 -0.007,0.012 0.005,0.087 c 0.792,-0.454 1.622,-0.838 2.483,-1.147 0.337,-0.115 0.675,-0.232 1.035,-0.333 -0.04,-0.208 -0.076,-0.422 -0.105,-0.639 -0.059,-0.426 -0.096,-0.854 -0.109,-1.283 -1.088,0.305 -2.143,0.715 -3.149,1.222"
       fill="#134e92"
       id="path155" />
    <path
       d="m 263.15,213.56 c 0.406,0.37 0.835,0.714 1.285,1.029 l -0.019,-0.151 0.007,-0.011 -0.002,-0.023 -0.002,-0.022 -0.01,-0.053 0.006,-0.01 -0.003,-0.017 -0.016,-0.091 c -0.372,-0.195 -0.779,-0.393 -1.218,-0.584 z m -5.788,-1.388 c 0.221,0.703 0.524,1.379 0.902,2.015 1.594,0.229 3.147,0.697 4.606,1.389 l -0.206,-0.166 c -0.985,-0.771 -1.858,-1.674 -2.593,-2.683 l -0.114,-0.164 c -0.854,-0.197 -1.722,-0.327 -2.595,-0.391 z m -2.625,0.011 c -0.453,0.037 -0.905,0.093 -1.355,0.167 -0.015,0.638 0.027,1.278 0.122,1.911 0.452,-0.083 0.921,-0.144 1.408,-0.183 0.442,-0.036 0.876,-0.052 1.3,-0.05 -0.225,-0.463 -0.416,-0.942 -0.572,-1.432 -0.051,-0.159 -0.093,-0.319 -0.136,-0.466 -0.251,0.011 -0.505,0.025 -0.767,0.053 z m -6.076,1.662 c -0.125,0.597 -0.18,1.208 -0.165,1.82 l -0.007,0.011 -0.001,0.031 -0.006,0.01 -0.005,0.009 v 0.026 l -0.006,0.01 0.002,0.022 v 0.026 c -0.001,0.004 -0.003,0.007 -0.006,0.01 l 0.003,0.033 -0.007,0.012 0.005,0.087 c 0.792,-0.454 1.622,-0.838 2.483,-1.147 0.337,-0.115 0.675,-0.232 1.035,-0.333 -0.04,-0.208 -0.076,-0.422 -0.105,-0.639 -0.059,-0.426 -0.096,-0.854 -0.109,-1.283 -1.088,0.305 -2.143,0.715 -3.149,1.222"
       fill="url(#paint4_linear_501_36175)"
       id="path157"
       style="fill:url(#paint4_linear_501_36175)" />
    <path
       d="m 261.142,217.526 c 0.753,0.644 1.558,1.227 2.405,1.741 0.034,-0.055 0.069,-0.112 0.09,-0.175 l 0.011,-0.019 c 0.002,-0.004 0.004,-0.007 0.006,-0.01 0.041,-0.066 0.069,-0.138 0.098,-0.202 -0.844,-0.498 -1.717,-0.947 -2.612,-1.345 z m -7.005,-1.665 -0.281,-0.01 c 0.214,0.676 0.494,1.331 0.835,1.955 1.672,0.134 3.32,0.499 4.895,1.085 0.415,0.156 0.808,0.318 1.178,0.486 -0.553,-0.431 -1.08,-0.896 -1.576,-1.391 -0.524,-0.514 -1.019,-1.056 -1.482,-1.625 -1.172,-0.281 -2.367,-0.448 -3.569,-0.5 z m -5.609,0.608 c 0.071,0.514 0.191,1.021 0.36,1.513 l 0.008,0.026 0.026,0.082 0.008,0.023 0.007,0.023 0.01,0.027 0.007,0.018 0.006,0.016 0.004,0.016 0.008,0.021 0.012,0.007 0.01,0.006 c 0.376,-0.099 0.756,-0.184 1.139,-0.256 0.982,-0.161 1.978,-0.236 2.976,-0.225 -0.307,-0.607 -0.564,-1.238 -0.768,-1.885 -1.288,0.071 -2.563,0.27 -3.808,0.593"
       fill="#134e92"
       id="path159" />
    <path
       d="m 261.142,217.526 c 0.753,0.644 1.558,1.227 2.405,1.741 0.034,-0.055 0.069,-0.112 0.09,-0.175 l 0.011,-0.019 c 0.002,-0.004 0.004,-0.007 0.006,-0.01 0.041,-0.066 0.069,-0.138 0.098,-0.202 -0.844,-0.498 -1.717,-0.947 -2.612,-1.345 z m -7.005,-1.665 -0.281,-0.01 c 0.214,0.676 0.494,1.331 0.835,1.955 1.672,0.134 3.32,0.499 4.895,1.085 0.415,0.156 0.808,0.318 1.178,0.486 -0.553,-0.431 -1.08,-0.896 -1.576,-1.391 -0.524,-0.514 -1.019,-1.056 -1.482,-1.625 -1.172,-0.281 -2.367,-0.448 -3.569,-0.5 z m -5.609,0.608 c 0.071,0.514 0.191,1.021 0.36,1.513 l 0.008,0.026 0.026,0.082 0.008,0.023 0.007,0.023 0.01,0.027 0.007,0.018 0.006,0.016 0.004,0.016 0.008,0.021 0.012,0.007 0.01,0.006 c 0.376,-0.099 0.756,-0.184 1.139,-0.256 0.982,-0.161 1.978,-0.236 2.976,-0.225 -0.307,-0.607 -0.564,-1.238 -0.768,-1.885 -1.288,0.071 -2.563,0.27 -3.808,0.593"
       fill="url(#paint5_linear_501_36175)"
       id="path161"
       style="fill:url(#paint5_linear_501_36175)" />
    <path
       d="m 256.304,220.068 c 0.873,0.958 1.878,1.79 2.984,2.47 0.158,0.097 0.303,0.186 0.432,0.266 l -0.086,0.036 c 0.211,-0.088 0.417,-0.186 0.621,-0.292 l 0.007,-0.011 0.167,-0.091 c -0.437,-0.332 -0.931,-0.678 -1.479,-1.015 -0.853,-0.525 -1.75,-0.976 -2.68,-1.347 z m -2.563,-0.772 c -1.486,-0.338 -3.007,-0.475 -4.524,-0.408 0.119,0.238 0.243,0.469 0.373,0.69 0.26,0.43 0.561,0.835 0.897,1.21 2.186,0.079 4.336,0.622 6.306,1.594 -1.06,-0.879 -1.996,-1.896 -2.783,-3.023 l -0.274,-0.064 z m 5.838,3.56 0.021,-0.008 z m -0.194,0.077 0.194,-0.077 z m -0.018,0.008 c 0.005,-0.004 0.011,-0.007 0.018,-0.008 -0.007,0.001 -0.013,0.004 -0.018,0.008 z m -0.023,0.007 0.023,-0.007 z m -0.034,0.029 -0.006,0.009 z m -0.023,0.016 0.005,-0.009 -0.017,0.007 z m -0.044,0.01 0.029,-0.011 c -0.01,0.003 -0.02,0.007 -0.029,0.011 z m -0.027,0.01 c 0.009,-0.005 0.018,-0.008 0.027,-0.01 -0.009,0.002 -0.018,0.005 -0.027,0.01 z m -0.021,0.013 0.006,-0.009 z m -0.336,0.113 c 0.112,-0.035 0.225,-0.071 0.335,-0.111 -0.112,0.039 -0.224,0.074 -0.335,0.111 z m -0.029,0.009 0.005,-0.026 -0.026,0.008 z m -0.047,-0.011 0.023,-0.007 z m -0.032,0.009 0.025,-0.005 z"
       fill="#134e92"
       id="path163" />
    <path
       d="m 256.304,220.068 c 0.873,0.958 1.878,1.79 2.984,2.47 0.158,0.097 0.303,0.186 0.432,0.266 l -0.086,0.036 c 0.211,-0.088 0.417,-0.186 0.621,-0.292 l 0.007,-0.011 0.167,-0.091 c -0.437,-0.332 -0.931,-0.678 -1.479,-1.015 -0.853,-0.525 -1.75,-0.976 -2.68,-1.347 z m -2.563,-0.772 c -1.486,-0.338 -3.007,-0.475 -4.524,-0.408 0.119,0.238 0.243,0.469 0.373,0.69 0.26,0.43 0.561,0.835 0.897,1.21 2.186,0.079 4.336,0.622 6.306,1.594 -1.06,-0.879 -1.996,-1.896 -2.783,-3.023 l -0.274,-0.064 z m 5.838,3.56 0.021,-0.008 z m -0.194,0.077 0.194,-0.077 z m -0.018,0.008 c 0.005,-0.004 0.011,-0.007 0.018,-0.008 -0.007,0.001 -0.013,0.004 -0.018,0.008 z m -0.023,0.007 0.023,-0.007 z m -0.034,0.029 -0.006,0.009 z m -0.023,0.016 0.005,-0.009 -0.017,0.007 z m -0.044,0.01 0.029,-0.011 c -0.01,0.003 -0.02,0.007 -0.029,0.011 z m -0.027,0.01 c 0.009,-0.005 0.018,-0.008 0.027,-0.01 -0.009,0.002 -0.018,0.005 -0.027,0.01 z m -0.021,0.013 0.006,-0.009 z m -0.336,0.113 c 0.112,-0.035 0.225,-0.071 0.335,-0.111 -0.112,0.039 -0.224,0.074 -0.335,0.111 z m -0.029,0.009 0.005,-0.026 -0.026,0.008 z m -0.047,-0.011 0.023,-0.007 z m -0.032,0.009 0.025,-0.005 z"
       fill="url(#paint6_linear_501_36175)"
       id="path165"
       style="fill:url(#paint6_linear_501_36175)" />
    <path
       d="m 252.242,208.657 c -0.486,1.977 -0.508,4.044 -0.063,6.043 1.028,4.521 4.199,7.237 6.185,8.54 0.788,-0.186 1.541,-0.488 2.234,-0.899 -1.107,-0.552 -5.408,-2.996 -6.554,-8.048 -0.48,-2.205 -0.311,-4.492 0.486,-6.588 -0.811,0.196 -1.586,0.515 -2.296,0.947"
       fill="#86c69f"
       id="path167" />
    <path
       d="m 252.242,208.657 c -0.486,1.977 -0.508,4.044 -0.063,6.043 1.028,4.521 4.199,7.237 6.185,8.54 0.788,-0.186 1.541,-0.488 2.234,-0.899 -1.107,-0.552 -5.408,-2.996 -6.554,-8.048 -0.48,-2.205 -0.311,-4.492 0.486,-6.588 -0.811,0.196 -1.586,0.515 -2.296,0.947"
       fill="url(#paint7_linear_501_36175)"
       id="path169"
       style="fill:url(#paint7_linear_501_36175)" />
    <path
       d="m 255.456,207.544 c -0.075,0.312 -0.131,0.628 -0.167,0.946 -0.507,4.245 2.246,8.741 7.192,11.784 0.062,0.038 0.124,0.076 0.287,0.195 0.201,-0.253 0.386,-0.518 0.555,-0.794 0.163,-0.265 0.311,-0.539 0.444,-0.82 -4.464,-2.72 -6.985,-6.657 -6.577,-10.131 0.048,-0.4 0.134,-0.795 0.255,-1.18 -0.66,-0.083 -1.327,-0.085 -1.986,-0.005"
       fill="#86c69f"
       id="path171" />
    <path
       d="m 255.456,207.544 c -0.075,0.312 -0.131,0.628 -0.167,0.946 -0.507,4.245 2.246,8.741 7.192,11.784 0.062,0.038 0.124,0.076 0.287,0.195 0.201,-0.253 0.386,-0.518 0.555,-0.794 0.163,-0.265 0.311,-0.539 0.444,-0.82 -4.464,-2.72 -6.985,-6.657 -6.577,-10.131 0.048,-0.4 0.134,-0.795 0.255,-1.18 -0.66,-0.083 -1.327,-0.085 -1.986,-0.005"
       fill="url(#paint8_linear_501_36175)"
       id="path173"
       style="fill:url(#paint8_linear_501_36175)" />
    <path
       d="m 258.177,207.679 c 0.338,3.277 2.616,6.451 6.184,8.646 l 0.087,0.053 c 0.081,-0.768 0.05,-1.546 -0.093,-2.309 -2.161,-1.539 -3.614,-3.552 -4.116,-5.617 -0.649,-0.35 -1.344,-0.61 -2.063,-0.771"
       fill="#86c69f"
       id="path175" />
    <path
       d="m 258.177,207.679 c 0.338,3.277 2.616,6.451 6.184,8.646 l 0.087,0.053 c 0.081,-0.768 0.05,-1.546 -0.093,-2.309 -2.161,-1.539 -3.614,-3.552 -4.116,-5.617 -0.649,-0.35 -1.344,-0.61 -2.063,-0.771"
       fill="url(#paint9_linear_501_36175)"
       id="path177"
       style="fill:url(#paint9_linear_501_36175)" />
  </g>
  <ellipse
     cx="156.83743"
     cy="342.99432"
     rx="14.5547"
     ry="5.5792899"
     transform="rotate(-9.22092)"
     fill="#bfbfbf"
     id="ellipse181" />
  <path
     d="m 150.1777,281.6222 v 52.636 l 11.557,7.106 5.096,3.135 4.895,3.006 3.435,2.109 4.238,2.605 v -52.662 l -11.766,-7.225 -2.247,-1.375 -10.425,-6.406 -3.443,-2.109 z"
     fill="url(#paint10_linear_501_36175)"
     id="path183"
     style="fill:url(#paint10_linear_501_36175)" />
  <path
     d="m 179.4077,299.5582 v 52.662 l 30.215,-18.585 v -52.645 z"
     fill="url(#paint11_linear_501_36175)"
     id="path185"
     style="fill:url(#paint11_linear_501_36175)" />
  <path
     d="m 179.4077,299.5582 v 52.662 l 30.215,-18.585 v -52.645 z"
     fill="url(#paint12_linear_501_36175)"
     id="path187"
     style="fill:url(#paint12_linear_501_36175)" />
  <path
     d="m 150.1787,281.6132 10.208,6.269 14.542,8.925 4.479,2.742 4.478,-2.742 6.653,-4.082 7.881,-4.843 11.203,-6.901 -0.674,-0.41 -2.552,-1.571 -15.625,-9.609 -2.135,-1.315 -8.194,-5.03 -5.787,3.553 -2.415,1.477 -4.502,2.767 -15.754,9.66 -0.129,0.068 z"
     fill="#f0faf6"
     id="path189" />
  <path
     d="m 150.1787,281.6132 10.208,6.269 14.542,8.925 4.479,2.742 4.478,-2.742 6.653,-4.082 7.881,-4.843 11.203,-6.901 -0.674,-0.41 -2.552,-1.571 -15.625,-9.609 -2.135,-1.315 -8.194,-5.03 -5.787,3.553 -2.415,1.477 -4.502,2.767 -15.754,9.66 -0.129,0.068 z"
     fill="url(#paint13_linear_501_36175)"
     fill-opacity="0.4"
     id="path191"
     style="fill:url(#paint13_linear_501_36175)" />
  <path
     d="m 164.6017,218.3372 c 1.651,1.129 -0.339,11.089 7.125,13.664 0.746,0.248 2.058,-0.362 2.759,-0.565 1.289,-0.361 13.412,-4.788 13.57,-4.878 0.543,-0.316 2.126,-2.078 3.46,-2.936 0.928,-0.587 1.968,-0.881 2.963,-1.107 0.204,-0.045 0.814,-0.068 1.131,0.045 2.827,1.152 5.179,3.569 5.428,3.862 0.226,0.271 0.317,0.407 0.204,0.678 -0.046,0.113 -0.272,0.18 -0.475,0.226 0.316,0.451 -0.317,0.677 -0.634,0.632 -0.294,-0.045 -1.198,-0.316 -1.198,-0.316 -0.204,-0.068 -0.43,-0.091 -0.634,-0.045 -1.696,0.384 -3.799,0.768 -4.184,1.242 -0.316,0.406 0.905,1.061 0.905,1.061 0,0 1.696,-0.158 1.854,-0.158 0.543,0.023 1.29,0.316 1.199,0.858 -0.045,0.317 -0.384,0.475 -0.678,0.588 -0.521,0.18 -2.307,0.519 -2.307,0.519 -0.611,-0.158 -4.478,-0.79 -4.478,-0.79 0,0 -17.596,10.637 -28.362,10.456 -0.905,-0.022 -4.863,-5.33 -5.586,-11.224 -0.521,-4.246 2.623,-15.448 7.938,-11.812 z"
     fill="#ffffff"
     id="path193" />
  <path
     d="m 156.8427,231.2552 c -0.769,-0.406 -1.198,-1.242 -1.198,-2.1 -0.023,-3.772 0.045,-10.367 0.678,-13.325 1.561,-7.295 9.997,-9.915 11.648,0.406 0.52,3.23 1.085,13.664 1.085,13.664 -1.696,2.913 -8.798,3.184 -12.213,1.355 z"
     fill="#9fb8ed"
     id="path195" />
  <path
     d="m 157.8387,278.7052 c 0.791,8.673 22.662,17.594 30.306,14.048 6.446,-3.004 25.467,-10.412 29.583,-13.122 l 3.076,1.875 c -2.352,-12.557 -10.087,-13.98 -15.832,-12.987 0.249,-1.671 -4.184,-11.292 -13.095,-8.627 -2.94,0.881 -34.242,7.137 -34.242,7.137 0.023,1.219 0.204,11.676 0.204,11.676 z"
     fill="#000000"
     id="path197" />
  <path
     d="m 161.7047,209.4382 c 4.546,-0.926 27.977,11.925 28.475,14.816 0,0 -1.877,8.559 -0.995,19.874 0.475,6.008 -0.294,25.43 0.316,29.676 0.091,0.678 -0.09,1.355 -0.565,1.807 -7.328,6.798 -31.121,3.704 -30.578,-4.426 0,0 -0.203,-12.173 0.001,-22.517 0.339,-18.112 -1.177,-35.255 3.346,-39.23 z"
     fill="#9fb8ed"
     id="path199" />
  <path
     d="m 192.1257,241.2592 c 0.181,1.401 0.384,2.869 0.611,4.472 0,-0.045 1.311,-0.429 1.379,-0.474 12.236,-4.111 12.801,-3.93 13.503,-5.195 0.542,-0.993 1.628,-2.913 1.967,-3.275 0,0 1.877,-1.355 2.443,-1.49 0.316,-0.068 0.701,-0.136 0.95,0.113 0.158,0.158 0.158,0.361 0.09,0.564 0.272,-0.045 0.611,-0.09 0.837,-0.022 3.144,0.79 4.546,3.455 4.84,3.726 0.271,0.249 0.385,0.362 0.317,0.678 -0.046,0.113 -0.272,0.248 -0.43,0.316 0.384,0.429 -0.226,0.745 -0.565,0.745 -0.317,0 -1.29,-0.158 -1.29,-0.158 -0.226,-0.045 -0.452,-0.022 -0.678,0.045 -1.696,0.655 -2.465,0.881 -2.782,1.401 -6.242,4.946 -24.019,13.731 -26.937,11.202 -1.99,-1.717 -2.811,-6.392 -3.965,-11.202 3.438,-1.401 5.978,-2.033 9.71,-1.446 z"
     fill="#ffffff"
     id="path201" />
  <path
     d="m 187.2037,244.9732 c -1.919,0.131 -4.126,-0.165 -5.486,-0.88 -0.524,-3.467 -1.657,-11.595 -1.416,-15.156 0.458,-7.118 6.89,-11.021 10.758,-3.778 0.741,1.383 1.121,3.049 1.489,4.58 1.036,4.35 0,12.147 0,12.147 -1.935,2.174 -2.411,2.885 -5.345,3.087 z"
     fill="#9fb8ed"
     id="path203" />
  <path
     d="m 209.6367,316.8732 v -33.712 l 1.169,-5.366 6.536,-2.89 3.44,6.467 c 0.092,8.371 -2.064,14.291 -3.44,18.639 -1.376,4.348 -5.045,17.023 -7.705,16.862 z"
     fill="#000000"
     id="path205" />
  <path
     d="m 166.3917,214.4352 c 0.111,0.357 0.468,0.602 0.802,0.78 2.14,1.137 4.481,1.918 6.889,2.297 1.115,0.178 2.363,0.379 3.478,0.223 0.446,-0.067 1.427,-0.513 1.873,-0.402 h 0.111 c 0.312,-0.022 1.004,-0.111 1.004,-0.111 0.111,-0.892 0.245,-6.399 0.646,-7.045 0.401,-0.647 1.494,-1.137 1.494,-1.137 0,0 1.07,-0.424 1.962,-1.026 0.267,-0.178 0.468,-0.513 0.646,-0.892 0.402,-0.891 0.558,-2.028 0.558,-2.028 l 0.646,-6.822 c 0,0 0.602,-8.026 -0.312,-8.918 -0.914,-0.892 -16.899,-2.386 -17.969,3.054 -1.07,5.418 0.646,13.823 0.513,15.071 -0.112,1.003 -0.424,2.029 -0.669,3.01 -0.134,0.49 -0.268,0.981 -0.402,1.471 -0.178,0.625 -0.468,1.004 -0.891,1.516 -0.201,0.246 -0.402,0.513 -0.402,0.825 0,0.022 0.023,0.089 0.023,0.134 z"
     fill="#ffffff"
     id="path207" />
  <path
     d="m 179.7027,204.1352 c -1.516,1.249 -3.054,3.679 -3.054,3.679 l -1.538,1.07 c 0,0 -3.612,0.044 -4.481,-0.401 -0.87,-0.446 -1.672,-1.271 -1.672,-1.271 l -1.004,-1.137 c 0,0 -1.828,-1.583 -2.341,-3.032 -0.49,-1.449 -2.452,-6.176 -2.006,-9.498 0.446,-3.321 1.449,-4.503 2.319,-5.105 0.891,-0.602 0.579,-3.255 5.885,-4.749 5.329,-1.493 7.58,-0.646 10.724,1.16 3.143,1.828 4.169,2.697 4.147,4.681 -0.023,1.985 -0.535,5.975 -0.848,6.332 -0.289,0.357 -0.512,1.984 -0.512,1.984 l -0.201,2.23 -0.847,0.602 c 0,0 -0.402,-1.494 -1.271,-0.513 -0.847,1.025 -3.3,3.968 -3.3,3.968 z"
     fill="#000000"
     id="path209" />
  <path
     d="m 182.5567,204.8262 c 0.513,0.468 0.87,-0.557 0.87,-0.557 0,0 0.178,-2.207 0.468,-2.965 0.312,-0.759 0.647,-2.297 0.401,-2.497 -0.245,-0.179 -1.449,1.025 -1.895,2.14 -0.445,1.07 -0.557,3.188 0.156,3.879 z"
     fill="#ffffff"
     id="path211" />
  <path
     d="m 342.7547,305.2462 -18.309,-10.485 31.581,-21.21 18.346,11.23 z"
     fill="#d9d9d9"
     id="path213" />
  <path
     d="m 342.7547,305.2462 -18.309,-10.485 31.581,-21.21 18.346,11.23 z"
     fill="url(#paint14_linear_501_36175)"
     id="path215"
     style="fill:url(#paint14_linear_501_36175)" />
  <path
     d="m 342.7547,305.2462 -18.309,-10.485 31.581,-21.21 18.346,11.23 z"
     stroke="#4e8b9d"
     stroke-width="1.5"
     stroke-linejoin="round"
     id="path217" />
  <path
     d="m 346.7077,247.7442 -32.374,20.383 10.192,26.878 31.974,-21.582 z"
     fill="#d9d9d9"
     id="path219" />
  <path
     d="m 346.7077,247.7442 -32.374,20.383 10.192,26.878 31.974,-21.582 z"
     fill="#f0faf6"
     id="path221" />
  <path
     fill-rule="evenodd"
     clip-rule="evenodd"
     d="m 346.9487,247.0182 c 0.218,0.072 0.391,0.239 0.473,0.453 l 9.792,25.679 c 0.127,0.333 0.008,0.709 -0.287,0.908 l -31.974,21.583 c -0.194,0.13 -0.437,0.166 -0.66,0.095 -0.223,-0.071 -0.402,-0.24 -0.485,-0.459 l -10.191,-26.877 c -0.13,-0.341 -10e-4,-0.726 0.308,-0.92 l 32.373,-20.384 c 0.194,-0.122 0.433,-0.151 0.651,-0.078 z m -31.678,21.424 9.627,25.387 30.668,-20.701 -9.242,-24.237 z"
     fill="#000000"
     id="path223" />
  <path
     fill-rule="evenodd"
     clip-rule="evenodd"
     d="m 346.9487,247.0182 c 0.218,0.072 0.391,0.239 0.473,0.453 l 9.792,25.679 c 0.127,0.333 0.008,0.709 -0.287,0.908 l -31.974,21.583 c -0.194,0.13 -0.437,0.166 -0.66,0.095 -0.223,-0.071 -0.402,-0.24 -0.485,-0.459 l -10.191,-26.877 c -0.13,-0.341 -10e-4,-0.726 0.308,-0.92 l 32.373,-20.384 c 0.194,-0.122 0.433,-0.151 0.651,-0.078 z m -31.678,21.424 9.627,25.387 30.668,-20.701 -9.242,-24.237 z"
     fill="#d4f2e4"
     id="path225" />
  <path
     fill-rule="evenodd"
     clip-rule="evenodd"
     d="m 346.9487,247.0182 c 0.218,0.072 0.391,0.239 0.473,0.453 l 9.792,25.679 c 0.127,0.333 0.008,0.709 -0.287,0.908 l -31.974,21.583 c -0.194,0.13 -0.437,0.166 -0.66,0.095 -0.223,-0.071 -0.402,-0.24 -0.485,-0.459 l -10.191,-26.877 c -0.13,-0.341 -10e-4,-0.726 0.308,-0.92 l 32.373,-20.384 c 0.194,-0.122 0.433,-0.151 0.651,-0.078 z m -31.678,21.424 9.627,25.387 30.668,-20.701 -9.242,-24.237 z"
     fill="url(#paint15_linear_501_36175)"
     id="path227"
     style="fill:url(#paint15_linear_501_36175)" />
  <ellipse
     rx="14.554701"
     ry="5.5792913"
     transform="matrix(-0.98707792,-0.16024099,-0.16024196,0.98707776,0,0)"
     fill="#bfbfbf"
     id="ellipse229"
     cx="-406.88873"
     cy="308.54706" />
  <path
     d="m 411.7827,337.9522 v 52.636 l -11.556,7.106 -5.096,3.135 -4.896,3.006 -3.435,2.109 -4.237,2.605 v -52.662 l 11.765,-7.225 2.247,-1.375 10.425,-6.406 3.443,-2.109 z"
     fill="url(#paint16_linear_501_36175)"
     id="path231"
     style="fill:url(#paint16_linear_501_36175)" />
  <path
     d="m 382.5537,355.8882 v 52.662 l -30.216,-18.585 v -52.645 z"
     fill="url(#paint17_linear_501_36175)"
     id="path233"
     style="fill:url(#paint17_linear_501_36175)" />
  <path
     d="m 382.5537,355.8882 v 52.662 l -30.216,-18.585 v -52.645 z"
     fill="url(#paint18_linear_501_36175)"
     id="path235"
     style="fill:url(#paint18_linear_501_36175)" />
  <path
     d="m 411.7827,337.9432 -10.209,6.269 -14.542,8.925 -4.478,2.742 -4.478,-2.742 -6.653,-4.082 -7.881,-4.843 -11.204,-6.901 0.674,-0.41 2.552,-1.571 15.626,-9.608 2.135,-1.316 8.194,-5.03 5.786,3.553 2.416,1.477 4.502,2.767 15.754,9.66 0.128,0.068 z"
     fill="#f0faf6"
     id="path237" />
  <path
     d="m 411.7827,337.9432 -10.209,6.269 -14.542,8.925 -4.478,2.742 -4.478,-2.742 -6.653,-4.082 -7.881,-4.843 -11.204,-6.901 0.674,-0.41 2.552,-1.571 15.626,-9.608 2.135,-1.316 8.194,-5.03 5.786,3.553 2.416,1.477 4.502,2.767 15.754,9.66 0.128,0.068 z"
     fill="url(#paint19_linear_501_36175)"
     fill-opacity="0.4"
     id="path239"
     style="fill:url(#paint19_linear_501_36175)" />
  <path
     d="m 397.3587,274.6672 c -1.651,1.129 0.34,11.089 -7.124,13.664 -0.746,0.248 -2.058,-0.362 -2.759,-0.565 -1.289,-0.361 -13.412,-4.788 -13.57,-4.878 -0.543,-0.316 -2.126,-2.078 -3.461,-2.936 -0.927,-0.587 -1.967,-0.881 -2.963,-1.107 -0.203,-0.045 -0.814,-0.068 -1.13,0.045 -2.827,1.152 -5.18,3.569 -5.428,3.862 -0.227,0.271 -0.317,0.407 -0.204,0.678 0.045,0.113 0.271,0.181 0.475,0.226 -0.317,0.451 0.317,0.677 0.633,0.632 0.294,-0.045 1.199,-0.316 1.199,-0.316 0.204,-0.068 0.43,-0.09 0.633,-0.045 1.697,0.384 3.8,0.768 4.184,1.242 0.317,0.406 -0.904,1.061 -0.904,1.061 0,0 -1.697,-0.158 -1.855,-0.158 -0.543,0.023 -1.289,0.316 -1.199,0.858 0.046,0.317 0.385,0.475 0.679,0.588 0.52,0.18 2.307,0.519 2.307,0.519 0.61,-0.158 4.478,-0.79 4.478,-0.79 0,0 17.596,10.637 28.362,10.456 0.904,-0.022 4.862,-5.33 5.586,-11.224 0.52,-4.246 -2.624,-15.448 -7.939,-11.812 z"
     fill="#ffffff"
     id="path241" />
  <path
     d="m 405.1177,287.5852 c 0.769,-0.406 1.199,-1.242 1.199,-2.1 0.023,-3.772 -0.045,-10.367 -0.678,-13.325 -1.561,-7.295 -9.997,-9.915 -11.648,0.406 -0.52,3.23 -1.086,13.664 -1.086,13.664 1.696,2.913 8.798,3.184 12.213,1.355 z"
     fill="#9fb8ed"
     id="path243" />
  <path
     d="m 404.1227,335.0352 c -0.792,8.673 -22.662,17.594 -30.307,14.048 -6.445,-3.004 -25.466,-10.412 -29.583,-13.122 l -3.075,1.875 c 2.352,-12.557 10.087,-13.98 15.831,-12.986 -0.248,-1.672 4.185,-11.293 13.096,-8.628 2.94,0.881 34.241,7.137 34.241,7.137 -0.022,1.22 -0.203,11.676 -0.203,11.676 z"
     fill="#000000"
     id="path245" />
  <path
     d="m 400.2557,265.7682 c -4.546,-0.926 -27.977,11.925 -28.474,14.816 0,0 1.877,8.559 0.995,19.874 -0.475,6.008 0.294,25.431 -0.317,29.676 -0.09,0.678 0.091,1.356 0.566,1.807 7.328,6.798 31.121,3.704 30.578,-4.426 0,0 0.203,-12.173 -10e-4,-22.516 -0.339,-18.113 1.177,-35.256 -3.347,-39.231 z"
     fill="#9fb8ed"
     id="path247" />
  <path
     d="m 369.8357,297.5892 c -0.181,1.401 -0.385,2.869 -0.611,4.472 0,-0.045 -1.312,-0.429 -1.38,-0.474 -12.235,-4.111 -12.801,-3.93 -13.502,-5.195 -0.543,-0.993 -1.628,-2.913 -1.968,-3.274 0,0 -1.877,-1.356 -2.442,-1.491 -0.317,-0.068 -0.701,-0.136 -0.95,0.113 -0.158,0.158 -0.158,0.361 -0.091,0.565 -0.271,-0.046 -0.61,-0.091 -0.836,-0.023 -3.144,0.79 -4.546,3.455 -4.84,3.726 -0.272,0.249 -0.385,0.362 -0.317,0.678 0.045,0.113 0.271,0.248 0.43,0.316 -0.385,0.429 0.226,0.745 0.565,0.745 0.317,0 1.289,-0.158 1.289,-0.158 0.226,-0.045 0.453,-0.022 0.679,0.046 1.696,0.654 2.465,0.88 2.782,1.4 6.242,4.946 24.019,13.731 26.936,11.202 1.991,-1.717 2.812,-6.392 3.965,-11.202 -3.438,-1.4 -5.978,-2.033 -9.709,-1.446 z"
     fill="#ffffff"
     id="path249" />
  <path
     d="m 374.7577,301.3032 c 1.918,0.131 4.126,-0.165 5.486,-0.879 0.523,-3.468 1.657,-11.596 1.416,-15.157 -0.458,-7.118 -6.891,-11.02 -10.759,-3.778 -0.74,1.383 -1.121,3.049 -1.488,4.58 -1.036,4.35 0,12.147 0,12.147 1.935,2.174 2.411,2.885 5.345,3.087 z"
     fill="#9fb8ed"
     id="path251" />
  <path
     d="m 352.3247,373.2032 v -33.712 l -1.17,-5.366 -6.536,-2.89 -3.44,6.467 c -0.092,8.371 2.064,14.291 3.44,18.639 1.376,4.348 5.045,17.023 7.706,16.862 z"
     fill="#000000"
     id="path253" />
  <path
     d="m 395.5697,270.7652 c -0.111,0.357 -0.468,0.602 -0.803,0.78 -2.14,1.137 -4.481,1.918 -6.889,2.297 -1.114,0.178 -2.363,0.379 -3.477,0.223 -0.446,-0.067 -1.427,-0.513 -1.873,-0.402 h -0.112 c -0.312,-0.022 -1.003,-0.111 -1.003,-0.111 -0.111,-0.892 -0.245,-6.399 -0.646,-7.045 -0.402,-0.647 -1.494,-1.137 -1.494,-1.137 0,0 -1.07,-0.424 -1.962,-1.026 -0.268,-0.178 -0.468,-0.513 -0.647,-0.892 -0.401,-0.891 -0.557,-2.028 -0.557,-2.028 l -0.647,-6.822 c 0,0 -0.602,-8.026 0.313,-8.918 0.914,-0.892 16.899,-2.386 17.969,3.054 1.07,5.418 -0.647,13.823 -0.513,15.071 0.112,1.003 0.424,2.029 0.669,3.01 0.134,0.49 0.267,0.981 0.401,1.471 0.179,0.625 0.468,1.004 0.892,1.516 0.201,0.246 0.401,0.513 0.401,0.825 0,0.023 -0.022,0.089 -0.022,0.134 z"
     fill="#ffffff"
     id="path255" />
  <path
     d="m 382.2577,260.4652 c 1.516,1.249 3.054,3.679 3.054,3.679 l 1.539,1.07 c 0,0 3.611,0.045 4.481,-0.401 0.869,-0.446 1.672,-1.271 1.672,-1.271 l 1.003,-1.137 c 0,0 1.828,-1.583 2.341,-3.032 0.491,-1.449 2.453,-6.176 2.007,-9.498 -0.446,-3.321 -1.45,-4.503 -2.319,-5.105 -0.892,-0.602 -0.58,-3.255 -5.886,-4.749 -5.328,-1.493 -7.58,-0.646 -10.723,1.16 -3.144,1.828 -4.169,2.697 -4.147,4.681 0.022,1.985 0.535,5.975 0.847,6.332 0.29,0.357 0.513,1.984 0.513,1.984 l 0.201,2.23 0.847,0.602 c 0,0 0.401,-1.494 1.271,-0.513 0.847,1.025 3.299,3.968 3.299,3.968 z"
     fill="#000000"
     id="path257" />
  <path
     d="m 379.4037,261.1562 c -0.513,0.468 -0.869,-0.557 -0.869,-0.557 0,0 -0.179,-2.207 -0.469,-2.965 -0.312,-0.758 -0.646,-2.297 -0.401,-2.497 0.245,-0.179 1.449,1.025 1.895,2.14 0.446,1.07 0.557,3.188 -0.156,3.879 z"
     fill="#ffffff"
     id="path259" />
  <g
     opacity="0.25"
     id="g265"
     transform="translate(-30.195299,-0.42480408)">
    <path
       d="m 355.992,281.613 -2.119,9.625 1.303,3.08 30.675,-20.752 -9.156,-24.284 -1.601,25.651 -10.544,-10.751 -0.964,21.204 z"
       fill="#b8e0d2"
       stroke="#b8e0d2"
       stroke-width="0.5"
       stroke-linecap="round"
       id="path261" />
    <path
       d="m 353.873,291.238 1.964,-9.974 7.749,4.122 0.964,-21.204 10.544,10.751 1.601,-25.651"
       stroke="#528f9d"
       stroke-width="0.5"
       stroke-linecap="round"
       id="path263" />
  </g>
  <path
     d="m 445.6757,544.5612 147.779,-87.582 c 6.516,-3.862 6.54,-13.284 0.044,-17.179 l -98.537,-59.075"
     stroke="url(#paint20_linear_501_36175)"
     stroke-width="8"
     stroke-linecap="round"
     id="path267"
     style="stroke:url(#paint20_linear_501_36175)" />
  <defs
     id="defs381">
    <filter
       id="filter0_f_501_36175"
       x="30.195299"
       y="368.492"
       width="626.16602"
       height="192.761"
       filterUnits="userSpaceOnUse"
       color-interpolation-filters="sRGB">
      <feFlood
         flood-opacity="0"
         result="BackgroundImageFix"
         id="feFlood269" />
      <feBlend
         mode="normal"
         in="SourceGraphic"
         in2="BackgroundImageFix"
         result="shape"
         id="feBlend271" />
      <feGaussianBlur
         stdDeviation="25"
         result="effect1_foregroundBlur_501_36175"
         id="feGaussianBlur273" />
    </filter>
    <linearGradient
       id="paint0_linear_501_36175"
       x1="343.72601"
       y1="391.23099"
       x2="343.72601"
       y2="489.08899"
       gradientUnits="userSpaceOnUse">
      <stop
         stop-color="#245795"
         id="stop276" />
      <stop
         offset="1"
         stop-color="#8AD3A8"
         id="stop278" />
    </linearGradient>
    <linearGradient
       id="paint1_linear_501_36175"
       x1="343.77399"
       y1="-5.8140802"
       x2="343.77399"
       y2="397.01599"
       gradientUnits="userSpaceOnUse"
       gradientTransform="translate(-30.195299,-0.42480408)">
      <stop
         stop-color="#245795"
         id="stop281" />
      <stop
         offset="1"
         stop-color="#8AD3A8"
         id="stop283" />
    </linearGradient>
    <linearGradient
       id="paint2_linear_501_36175"
       x1="276.961"
       y1="206.819"
       x2="241.341"
       y2="287.668"
       gradientUnits="userSpaceOnUse"
       gradientTransform="translate(-30.195299,-0.42480408)">
      <stop
         stop-color="#245795"
         id="stop286" />
      <stop
         offset="1"
         stop-color="#8AD3A8"
         id="stop288" />
    </linearGradient>
    <linearGradient
       id="paint3_linear_501_36175"
       x1="285.151"
       y1="175.489"
       x2="245.005"
       y2="263.397"
       gradientUnits="userSpaceOnUse"
       gradientTransform="translate(-30.195299,-0.42480408)">
      <stop
         stop-color="#245795"
         id="stop291" />
      <stop
         offset="1"
         stop-color="#8AD3A8"
         id="stop293" />
    </linearGradient>
    <linearGradient
       id="paint4_linear_501_36175"
       x1="250.16701"
       y1="211.26199"
       x2="267.54099"
       y2="215.634"
       gradientUnits="userSpaceOnUse">
      <stop
         stop-color="#245795"
         id="stop296" />
      <stop
         offset="1"
         stop-color="#8AD3A8"
         id="stop298" />
    </linearGradient>
    <linearGradient
       id="paint5_linear_501_36175"
       x1="249.74001"
       y1="214.49899"
       x2="278.89801"
       y2="222.95"
       gradientUnits="userSpaceOnUse">
      <stop
         stop-color="#245795"
         id="stop301" />
      <stop
         offset="1"
         stop-color="#8AD3A8"
         id="stop303" />
    </linearGradient>
    <linearGradient
       id="paint6_linear_501_36175"
       x1="249.953"
       y1="219.162"
       x2="267.11099"
       y2="223.48399"
       gradientUnits="userSpaceOnUse">
      <stop
         stop-color="#245795"
         id="stop306" />
      <stop
         offset="1"
         stop-color="#8AD3A8"
         id="stop308" />
    </linearGradient>
    <linearGradient
       id="paint7_linear_501_36175"
       x1="259.33801"
       y1="222.97099"
       x2="251.508"
       y2="208.95"
       gradientUnits="userSpaceOnUse">
      <stop
         stop-color="#245795"
         id="stop311" />
      <stop
         offset="1"
         stop-color="#8AD3A8"
         id="stop313" />
    </linearGradient>
    <linearGradient
       id="paint8_linear_501_36175"
       x1="262.71201"
       y1="219.278"
       x2="255.664"
       y2="208.26401"
       gradientUnits="userSpaceOnUse">
      <stop
         stop-color="#245795"
         id="stop316" />
      <stop
         offset="1"
         stop-color="#8AD3A8"
         id="stop318" />
    </linearGradient>
    <linearGradient
       id="paint9_linear_501_36175"
       x1="264.435"
       y1="216.276"
       x2="258.61301"
       y2="206.46001"
       gradientUnits="userSpaceOnUse">
      <stop
         stop-color="#245795"
         id="stop321" />
      <stop
         offset="1"
         stop-color="#8AD3A8"
         id="stop323" />
    </linearGradient>
    <linearGradient
       id="paint10_linear_501_36175"
       x1="199.241"
       y1="248.22"
       x2="143.05701"
       y2="373.276"
       gradientUnits="userSpaceOnUse"
       gradientTransform="translate(-30.195299,-0.42480408)">
      <stop
         stop-color="#245795"
         id="stop326" />
      <stop
         offset="1"
         stop-color="#8AD3A8"
         id="stop328" />
    </linearGradient>
    <linearGradient
       id="paint11_linear_501_36175"
       x1="235.422"
       y1="336.78"
       x2="211.931"
       y2="298.54901"
       gradientUnits="userSpaceOnUse"
       gradientTransform="translate(-30.195299,-0.42480408)">
      <stop
         stop-color="#45B5CB"
         id="stop331" />
      <stop
         offset="1"
         stop-color="#88EDF6"
         id="stop333" />
    </linearGradient>
    <linearGradient
       id="paint12_linear_501_36175"
       x1="224.711"
       y1="260.39001"
       x2="216.54401"
       y2="381.74701"
       gradientUnits="userSpaceOnUse"
       gradientTransform="translate(-30.195299,-0.42480408)">
      <stop
         stop-color="#245795"
         id="stop336" />
      <stop
         offset="1"
         stop-color="#8AD3A8"
         id="stop338" />
    </linearGradient>
    <linearGradient
       id="paint13_linear_501_36175"
       x1="248.741"
       y1="251.812"
       x2="229.964"
       y2="326.577"
       gradientUnits="userSpaceOnUse"
       gradientTransform="translate(-30.195299,-0.42480408)">
      <stop
         stop-color="#245795"
         id="stop341" />
      <stop
         offset="1"
         stop-color="#8AD3A8"
         id="stop343" />
    </linearGradient>
    <linearGradient
       id="paint14_linear_501_36175"
       x1="345.39301"
       y1="263.14899"
       x2="381.013"
       y2="343.99799"
       gradientUnits="userSpaceOnUse"
       gradientTransform="translate(-30.195299,-0.42480408)">
      <stop
         stop-color="#245795"
         id="stop346" />
      <stop
         offset="1"
         stop-color="#8AD3A8"
         id="stop348" />
    </linearGradient>
    <linearGradient
       id="paint15_linear_501_36175"
       x1="337.203"
       y1="231.819"
       x2="377.349"
       y2="319.72699"
       gradientUnits="userSpaceOnUse"
       gradientTransform="translate(-30.195299,-0.42480408)">
      <stop
         stop-color="#245795"
         id="stop351" />
      <stop
         offset="1"
         stop-color="#8AD3A8"
         id="stop353" />
    </linearGradient>
    <linearGradient
       id="paint16_linear_501_36175"
       x1="423.10999"
       y1="304.54999"
       x2="479.29501"
       y2="429.60599"
       gradientUnits="userSpaceOnUse"
       gradientTransform="translate(-30.195299,-0.42480408)">
      <stop
         stop-color="#245795"
         id="stop356" />
      <stop
         offset="1"
         stop-color="#8AD3A8"
         id="stop358" />
    </linearGradient>
    <linearGradient
       id="paint17_linear_501_36175"
       x1="386.92999"
       y1="393.10999"
       x2="410.42001"
       y2="354.879"
       gradientUnits="userSpaceOnUse"
       gradientTransform="translate(-30.195299,-0.42480408)">
      <stop
         stop-color="#45B5CB"
         id="stop361" />
      <stop
         offset="1"
         stop-color="#88EDF6"
         id="stop363" />
    </linearGradient>
    <linearGradient
       id="paint18_linear_501_36175"
       x1="397.64099"
       y1="316.72"
       x2="405.80801"
       y2="438.077"
       gradientUnits="userSpaceOnUse"
       gradientTransform="translate(-30.195299,-0.42480408)">
      <stop
         stop-color="#245795"
         id="stop366" />
      <stop
         offset="1"
         stop-color="#8AD3A8"
         id="stop368" />
    </linearGradient>
    <linearGradient
       id="paint19_linear_501_36175"
       x1="373.61099"
       y1="308.142"
       x2="392.388"
       y2="382.90701"
       gradientUnits="userSpaceOnUse"
       gradientTransform="translate(-30.195299,-0.42480408)">
      <stop
         stop-color="#245795"
         id="stop371" />
      <stop
         offset="1"
         stop-color="#8AD3A8"
         id="stop373" />
    </linearGradient>
    <linearGradient
       id="paint20_linear_501_36175"
       x1="556.97699"
       y1="381.14999"
       x2="556.97699"
       y2="544.98602"
       gradientUnits="userSpaceOnUse"
       gradientTransform="translate(-30.195299,-0.42480408)">
      <stop
         stop-color="#C7EBDB"
         id="stop376" />
      <stop
         offset="1"
         stop-color="#C7EBDB"
         stop-opacity="0"
         id="stop378" />
    </linearGradient>
  </defs>
</svg>
