<svg width="170" height="44" viewBox="0 0 170 44" fill="none" xmlns="http://www.w3.org/2000/svg"><path fill-rule="evenodd" clip-rule="evenodd" d="M20.935 5.09C14.688 10.537 9.2 15.333 2.96 20.76a.857.857 0 0 1-1.25-.117L.208 18.744a.951.951 0 0 1 .112-1.305C7.108 11.543 13.11 6.292 19.897.374c.547-.499 1.537-.499 2.077 0 3.06 2.677 6.114 5.339 9.181 8.015V5.17c0-.513.4-.931.892-.931h2.351c.484 0 .884.418.884.931v6.82c2.345 2.053 4.107 3.586 6.458 5.625.38.322.428.909.12 1.305l-1.503 1.9a.877.877 0 0 1-1.256.117 16141.24 16141.24 0 0 1-18.166-15.84v-.008Z" fill="#FDFDFD"/><path fill-rule="evenodd" clip-rule="evenodd" d="M5.964 29.546v-8.88c4.997-4.35 9.988-8.713 14.979-13.062l14.971 13.069c-7.896 2.214-16.326 6.937-21.78 12.144l-5.678-6.71-2.485 3.439h-.007Zm12.571-15.202h1.93v2.016h-1.93v-2.016Zm2.864 0h1.937v2.016H21.4v-2.016Zm1.944 3v2.016h-1.937v-2.017h1.937Zm-2.878 2.016h-1.93v-2.017h1.93v2.017Zm-7.166 21.376h-5.89c-.8 0-1.452-.674-1.452-1.517v-6.82l7.342 8.337Z" fill="#FDFDFD"/><path fill-rule="evenodd" clip-rule="evenodd" d="M14.562 40.736c4.724-8.316 11.09-14.681 21.345-20.056v18.538c0 .844-.645 1.518-1.453 1.518H14.562Z" fill="#FDFDFD"/><path d="M48.738 39.798V25.91h4.745c.969 0 1.832.184 2.583.543.751.366 1.334.872 1.755 1.518.42.645.632 1.393.632 2.244 0 .85-.19 1.577-.562 2.222a4.044 4.044 0 0 1-1.544 1.525c-.653.367-1.411.558-2.26.558h-3.931v5.28h-1.418Zm1.418-6.453h3.93c.871 0 1.58-.293 2.141-.873.562-.579.836-1.334.836-2.258 0-.924-.337-1.701-1.004-2.28-.667-.58-1.523-.873-2.569-.873h-3.334v6.291-.007Zm14.607 6.688c-1.06 0-2-.22-2.815-.667a4.978 4.978 0 0 1-1.923-1.833c-.463-.778-.695-1.68-.695-2.699 0-1.02.224-1.914.68-2.699a4.884 4.884 0 0 1 1.889-1.833c.8-.44 1.72-.667 2.744-.667 1.025 0 1.93.227 2.66.682a4.38 4.38 0 0 1 1.664 1.884c.38.8.576 1.724.576 2.765h-9.42l.505-.374c0 .91.169 1.694.506 2.34a3.53 3.53 0 0 0 1.446 1.488c.624.345 1.347.514 2.176.514.828 0 1.579-.191 2.175-.565a4.147 4.147 0 0 0 1.404-1.46l1.102.616c-.28.492-.645.925-1.095 1.299a4.96 4.96 0 0 1-1.579.88c-.604.212-1.27.315-2.007.315v.014h.007Zm-4.015-5.793-.555-.36h8.493l-.554.375c0-.704-.14-1.313-.428-1.848a3.071 3.071 0 0 0-1.2-1.24c-.513-.3-1.13-.447-1.854-.447-.723 0-1.354.147-1.951.447a3.667 3.667 0 0 0-1.425 1.232c-.35.521-.526 1.137-.526 1.834v.007Zm9.462-3.271v-1.093h6.794v1.093H70.21Zm5.208 9.064c-1.018 0-1.811-.242-2.387-.726-.575-.484-.863-1.166-.863-2.054V26.781h1.326v10.472c0 .528.169.946.506 1.24.337.3.807.447 1.41.447.176 0 .352-.022.52-.066.169-.044.414-.169.737-.367l.555 1.034c-.4.213-.73.345-.99.404-.267.058-.54.088-.814.088Zm8.963 0c-.87 0-1.628-.08-2.281-.25-.653-.168-1.214-.395-1.685-.681a4.827 4.827 0 0 1-1.158-.976 4.25 4.25 0 0 1-.695-1.129l1.327-.455c.253.624.744 1.166 1.481 1.636.737.469 1.635.704 2.695.704 1.355 0 2.408-.235 3.159-.704.75-.47 1.123-1.086 1.123-1.856s-.344-1.334-1.039-1.774c-.695-.44-1.586-.792-2.695-1.042l-1.566-.359a8.686 8.686 0 0 1-1.888-.682c-.582-.3-1.046-.675-1.403-1.144-.351-.462-.527-1.034-.527-1.709 0-1.239.442-2.214 1.327-2.904.884-.696 2.169-1.041 3.86-1.041 1.018 0 1.888.154 2.625.47.737.307 1.327.696 1.776 1.15.45.455.744.917.892 1.38l-1.299.454c-.323-.726-.85-1.29-1.58-1.694-.73-.403-1.607-.609-2.638-.609-1.088 0-1.952.235-2.59.712-.64.476-.962 1.114-.962 1.921 0 .726.253 1.276.751 1.635.498.367 1.151.638 1.965.822l1.566.337c1.558.33 2.751.858 3.586 1.577.829.718 1.25 1.488 1.25 2.31a3.36 3.36 0 0 1-.597 1.936c-.4.586-.996 1.063-1.79 1.415-.793.36-1.79.535-2.976.535l-.014.015Zm12.445 0c-1.06 0-2-.22-2.815-.667a4.93 4.93 0 0 1-1.923-1.833c-.463-.778-.695-1.68-.695-2.699 0-1.02.225-1.914.681-2.699a4.846 4.846 0 0 1 1.91-1.833c.813-.44 1.747-.667 2.793-.667s1.972.205 2.78.623c.807.418 1.431.997 1.873 1.738l-1.144.557c-.337-.572-.814-1.012-1.424-1.342-.611-.322-1.306-.484-2.085-.484-.78 0-1.495.176-2.106.528A3.795 3.795 0 0 0 93.24 32.7c-.344.609-.52 1.327-.52 2.134 0 .807.176 1.518.527 2.134a3.75 3.75 0 0 0 1.453 1.445c.618.352 1.327.528 2.12.528.793 0 1.502-.184 2.12-.543a3.606 3.606 0 0 0 1.411-1.518l1.172.557a4.783 4.783 0 0 1-1.888 1.907c-.815.462-1.755.697-2.815.697l.007-.008Zm6.577-.235v-9.922h1.327v9.922h-1.327Zm.548-5.441c0-1.071.224-1.936.673-2.596a4.076 4.076 0 0 1 1.741-1.46 5.658 5.658 0 0 1 2.26-.469v1.093a5.69 5.69 0 0 0-1.867.308 3.11 3.11 0 0 0-1.467 1.034c-.386.484-.575 1.144-.575 1.972l-.773.118h.008Zm10.767 5.676c-1.06 0-2.001-.22-2.815-.667a4.93 4.93 0 0 1-1.923-1.833c-.463-.778-.695-1.68-.695-2.699 0-1.02.225-1.914.681-2.699a4.883 4.883 0 0 1 1.888-1.833c.8-.44 1.72-.667 2.744-.667 1.025 0 1.931.227 2.661.682a4.378 4.378 0 0 1 1.663 1.884c.379.8.576 1.724.576 2.765h-9.42l.505-.374c0 .91.169 1.694.506 2.34a3.528 3.528 0 0 0 1.446 1.488c.624.345 1.347.514 2.176.514.828 0 1.579-.191 2.176-.565a4.15 4.15 0 0 0 1.403-1.46l1.102.616c-.28.492-.645.925-1.095 1.299a4.93 4.93 0 0 1-1.579.88c-.604.212-1.27.315-2.007.315v.014h.007Zm-4.015-5.793-.555-.36h8.493l-.554.375c0-.704-.141-1.313-.428-1.848a3.117 3.117 0 0 0-1.201-1.24c-.512-.3-1.13-.447-1.853-.447-.723 0-1.354.147-1.951.447a3.667 3.667 0 0 0-1.425 1.232c-.358.528-.526 1.137-.526 1.834v.007Zm15.449 5.793c-1.06 0-2.001-.22-2.815-.667a4.93 4.93 0 0 1-1.923-1.833c-.463-.778-.695-1.68-.695-2.699 0-1.02.225-1.914.681-2.699a4.883 4.883 0 0 1 1.888-1.833c.8-.44 1.72-.667 2.745-.667 1.024 0 1.93.227 2.66.682a4.378 4.378 0 0 1 1.663 1.884c.379.8.576 1.724.576 2.765h-9.42l.506-.374c0 .91.168 1.694.505 2.34a3.528 3.528 0 0 0 1.446 1.488c.625.345 1.348.514 2.176.514.828 0 1.579-.191 2.176-.565a4.154 4.154 0 0 0 1.404-1.46l1.102.616a4.748 4.748 0 0 1-1.095 1.299c-.45.373-.976.674-1.58.88-.603.212-1.27.315-2.007.315v.014h.007Zm-4.015-5.793-.555-.36h8.494l-.555.375c0-.704-.14-1.313-.428-1.848a3.121 3.121 0 0 0-1.2-1.24c-.513-.3-1.13-.447-1.853-.447-.723 0-1.355.147-1.952.447a3.674 3.674 0 0 0-1.425 1.232c-.358.528-.526 1.137-.526 1.834v.007Zm10.676 5.559v-9.922h1.235l.092 1.826v8.096h-1.327Zm7.924-5.082c0-1.1-.14-1.929-.428-2.5-.287-.573-.674-.954-1.172-1.16-.491-.205-1.046-.308-1.663-.308-1.046 0-1.86.345-2.45 1.042-.59.696-.884 1.664-.884 2.904h-.815c0-1.056.169-1.966.506-2.72.337-.756.835-1.336 1.488-1.739s1.453-.601 2.393-.601c.857 0 1.608.154 2.26.47.653.307 1.173.806 1.545 1.48.372.675.554 1.57.54 2.677v.455h-1.327.007Zm0 5.082v-5.082h1.327v5.082h-1.327Zm4.52-12.504a.904.904 0 0 1-.617-.235c-.176-.161-.267-.344-.267-.557 0-.227.091-.41.267-.565a.91.91 0 0 1 .617-.227.91.91 0 0 1 .632.227.727.727 0 0 1 .253.565.746.746 0 0 1-.253.557.871.871 0 0 1-.632.235Zm-.68 12.503v-9.922h1.326v9.922h-1.326Zm4.211.001v-9.922h1.236l.091 1.826v8.096h-1.327Zm7.925-5.082c0-1.1-.141-1.929-.428-2.5-.288-.573-.674-.954-1.173-1.16-.491-.205-1.045-.308-1.663-.308-1.046 0-1.86.345-2.45 1.042-.589.696-.884 1.664-.884 2.904h-.814c0-1.056.168-1.966.505-2.72.337-.756.835-1.336 1.488-1.739s1.453-.601 2.393-.601c.857 0 1.608.154 2.261.47.652.307 1.172.806 1.544 1.48.372.675.554 1.57.54 2.677v.455h-1.326.007Zm0 5.082v-5.082h1.326v5.082h-1.326Zm8.079-.001c-.969 0-1.832-.22-2.583-.652a4.571 4.571 0 0 1-1.762-1.819c-.428-.77-.639-1.657-.639-2.647 0-.99.211-1.863.639-2.618a4.702 4.702 0 0 1 1.762-1.775c.751-.433 1.607-.645 2.583-.645.975 0 1.769.212 2.485.645a4.538 4.538 0 0 1 1.677 1.775c.407.755.604 1.628.604 2.618s-.204 1.877-.604 2.647c-.407.77-.961 1.379-1.677 1.819-.716.44-1.545.652-2.485.652ZM164.679 44c-.659 0-1.27-.066-1.831-.198a9.74 9.74 0 0 1-1.411-.425 22.102 22.102 0 0 1-.793-.33l.484-.99c.175.095.442.205.807.345.358.139.779.256 1.256.359a7.06 7.06 0 0 0 1.488.147c.766 0 1.446-.14 2.05-.418a3.137 3.137 0 0 0 1.425-1.313c.344-.594.519-1.364.519-2.303V29.87H170v9.005c0 1.152-.239 2.105-.716 2.868a4.362 4.362 0 0 1-1.93 1.694 6.385 6.385 0 0 1-2.667.557l-.008.007Zm.372-5.258c.709 0 1.334-.176 1.875-.528a3.602 3.602 0 0 0 1.277-1.437c.309-.609.463-1.313.463-2.105s-.154-1.474-.463-2.075a3.541 3.541 0 0 0-1.277-1.415c-.548-.345-1.18-.514-1.896-.514-.765 0-1.438.169-2.028.514a3.624 3.624 0 0 0-1.376 1.415c-.33.601-.498 1.29-.498 2.075 0 .785.168 1.496.505 2.105.337.609.8 1.085 1.39 1.437.59.352 1.263.528 2.028.528ZM48.492 20.754V6.864h9.911v2.479h-6.886v3.33h5.735v2.478h-5.735v5.595h-3.025v.008Zm12.137 0v-9.922h2.913v9.922h-2.913Zm2.05-5.222c0-1.07.23-1.958.694-2.654a4.317 4.317 0 0 1 1.79-1.57 5.27 5.27 0 0 1 2.281-.513v2.537c-.674 0-1.312.074-1.909.22-.597.147-1.081.382-1.446.712-.365.33-.554.755-.554 1.268h-.864.007Zm11.854 5.456c-1.088 0-2.05-.22-2.892-.667a5.017 5.017 0 0 1-1.972-1.833c-.477-.777-.716-1.68-.716-2.699 0-1.02.246-1.914.737-2.698a5.127 5.127 0 0 1 2.029-1.834c.863-.44 1.853-.667 2.969-.667a5.42 5.42 0 0 1 2.681.682c.814.454 1.474 1.122 1.965 2.002.492.88.737 1.95.737 3.205h-8.366l.266-.235c0 .491.134.916.407 1.276.274.367.625.645 1.06.836.436.19.899.286 1.404.286.604 0 1.095-.117 1.481-.345.38-.235.674-.535.885-.902l2.604.91a4.94 4.94 0 0 1-1.2 1.437 5.213 5.213 0 0 1-1.755.924c-.674.212-1.446.315-2.317.315h-.007v.007Zm-2.407-6.21-.267-.236h5.32l-.245.235c0-.476-.127-.858-.372-1.144a2.217 2.217 0 0 0-.913-.623 3.023 3.023 0 0 0-1.046-.198c-.337 0-.701.066-1.08.198a2.41 2.41 0 0 0-.983.623c-.274.286-.407.668-.407 1.144h-.007Zm15.182 6.21c-1.088 0-2.05-.22-2.892-.667a5.017 5.017 0 0 1-1.972-1.833c-.477-.777-.716-1.68-.716-2.699 0-1.02.246-1.914.737-2.698a5.127 5.127 0 0 1 2.028-1.834c.864-.44 1.854-.667 2.97-.667a5.42 5.42 0 0 1 2.68.682c.815.454 1.475 1.122 1.966 2.002.492.88.737 1.95.737 3.205H84.48l.267-.235c0 .491.133.916.407 1.276.274.367.625.645 1.06.836.435.19.899.286 1.404.286.604 0 1.095-.117 1.481-.345.38-.235.674-.535.884-.902l2.605.91a4.939 4.939 0 0 1-1.2 1.437 5.211 5.211 0 0 1-1.755.924c-.674.212-1.447.315-2.317.315h-.007v.007Zm-2.407-6.21-.267-.236h5.32l-.245.235c0-.476-.127-.858-.372-1.144a2.217 2.217 0 0 0-.913-.623 3.023 3.023 0 0 0-1.046-.198c-.337 0-.702.066-1.08.198a2.41 2.41 0 0 0-.983.623c-.274.286-.407.668-.407 1.144H84.9Z" fill="#FDFDFD"/></svg>