<?xml version="1.0" encoding="UTF-8" standalone="no"?>
<svg
   width="313.99893"
   height="282.95627"
   viewBox="0 0 313.99893 282.95627"
   fill="none"
   version="1.1"
   id="svg114"
   sodipodi:docname="1.svg"
   inkscape:version="1.1.2 (b8e25be833, 2022-02-05)"
   xmlns:inkscape="http://www.inkscape.org/namespaces/inkscape"
   xmlns:sodipodi="http://sodipodi.sourceforge.net/DTD/sodipodi-0.dtd"
   xmlns="http://www.w3.org/2000/svg"
   xmlns:svg="http://www.w3.org/2000/svg">
  <defs
     id="defs118" />
  <sodipodi:namedview
     id="namedview116"
     pagecolor="#ffffff"
     bordercolor="#666666"
     borderopacity="1.0"
     inkscape:pageshadow="2"
     inkscape:pageopacity="0.0"
     inkscape:pagecheckerboard="0"
     showgrid="false"
     inkscape:zoom="1.9644809"
     inkscape:cx="157.03894"
     inkscape:cy="146.85814"
     inkscape:window-width="1920"
     inkscape:window-height="1001"
     inkscape:window-x="-9"
     inkscape:window-y="-9"
     inkscape:window-maximized="1"
     inkscape:current-layer="svg114" />
  <path
     d="m 305.58036,208.339 c 27.939,-67.066 -15.934,-148.9933 -97.993,-182.9898 C 125.52836,-8.6472 36.357756,18.1609 8.4186557,85.227 -19.520444,152.293 24.352256,234.22 106.41136,268.216 c 82.059,33.997 171.229,7.189 199.169,-59.877 z"
     fill="#e1f0fa"
     id="path2" />
  <path
     d="m 113.85836,268.894 c -3.13,0 -6.28,0 -9.35,-0.3 l 0.161,-2.301 c 3.009,0.18 6.019,0.28 9.189,0.3 z m 9.35,-0.22 -0.121,-2.301 c 3.01,-0.16 6.02,-0.4 9.19,-0.72 l 0.24,2.301 c -3.13,0.32 -6.259,0.56 -9.249,0.72 z m -28.029004,-0.84 c -3.11,-0.38 -6.22,-0.881 -9.23,-1.461 l 0.442,-2.261 c 2.969,0.56 6.019,1.041 9.089,1.421 z m 46.568004,-0.981 -0.341,-2.281 c 3.009,-0.48 6.019,-1.02 9.069,-1.64 l 0.461,2.281 c -3.009,0.62 -6.099,1.06 -9.169,1.54 z m -64.927004,-2.581 c -3.05,-0.82 -6.019,-1.76 -8.948,-2.801 l 0.782,-2.161 c 2.829,1.001 5.778,2.001 8.768,2.721 z m 83.225004,-1.14 -0.562,-2.241 c 2.95,-0.74 6.02,-1.581 8.889,-2.461 l 0.662,2.221 c -2.97,0.78 -5.979,1.62 -8.969,2.381 z M 59.224356,257.83 c -2.8527,-1.294 -5.6385,-2.73 -8.3465,-4.302 l 1.1637,-2.001 c 2.5882,1.5 5.337,2.921 8.1458,4.202 z m 118.698004,-0.201 -0.762,-2.18 c 2.889,-1.001 5.798,-2.001 8.647,-3.222 l 0.863,2.161 c -2.889,1.161 -5.839,2.261 -8.748,3.261 z m 17.355,-6.882 -0.963,-2.001 c 2.809,-1.261 5.618,-2.581 8.347,-4.002 l 1.043,2.001 c -2.769,1.42 -5.618,2.761 -8.427,4.022 z M 43.012756,248.446 c -2.5389,-1.863 -4.9705,-3.867 -7.2832,-6.003 l 1.565,-1.721 c 2.2476,2.062 4.6123,3.992 7.0826,5.783 z m 168.978604,-6.003 -1.124,-2.001 c 2.729,-1.5 5.417,-3.041 8.026,-4.622 l 1.203,2.001 c -2.668,1.561 -5.377,3.141 -8.125,4.642 z M 29.148656,235.82 c -2.0459,-2.368 -3.9423,-4.86 -5.6781,-7.463 l 2.0064,-1.281 c 1.6873,2.526 3.53,4.945 5.5176,7.244 z m 198.772704,-2.961 -1.284,-2.001 c 2.568,-1.701 5.117,-3.481 7.564,-5.262 l 1.365,1.861 c -2.468,1.84 -5.056,3.621 -7.645,5.362 z m 15.048,-10.985 -1.444,-1.82 c 2.387,-1.901 4.775,-3.902 7.062,-5.903 l 1.545,1.721 c -2.327,1.941 -4.735,3.941 -7.163,5.942 z m -224.233904,-1.64 c -1.4011,-2.81 -2.6273,-5.704 -3.6717,-8.664 l 2.2071,-0.76 c 1.0005,2.868 2.1867,5.668 3.5513,8.383 z m 238.258904,-10.665 -1.625,-1.661 c 2.327,-2.101 4.334,-4.401 6.48,-6.602 l 1.686,1.58 c -2.1,2.241 -4.281,4.455 -6.541,6.643 z M 12.515656,202.506 c -0.6748,-3.062 -1.1573,-6.162 -1.4446,-9.284 l 2.3074,-0.22 c 0.2837,3.027 0.7528,6.034 1.4044,9.004 z m 257.218704,-6.563 -1.765,-1.5 c 1.993,-2.335 3.912,-4.729 5.758,-7.183 l 1.846,1.4 c -1.826,2.461 -3.832,4.902 -5.839,7.283 z M 13.017256,183.798 h -2.3274 c 0.05,-3.123 0.2576,-6.242 0.622,-9.344 l 2.3073,0.26 c -0.357,3.016 -0.5579,6.048 -0.6019,9.084 z m 267.993104,-2.821 -2.006,-1.281 c 1.726,-2.541 3.371,-5.162 4.896,-7.783 l 2.006,1.181 c -1.485,2.701 -3.17,5.382 -4.896,7.963 z m -265.886404,-15.186 -2.207,-0.521 c 0.642,-2.981 1.4446,-6.002 2.3675,-9.044 l 2.2271,0.681 c -0.9631,2.881 -1.7455,5.922 -2.3876,8.884 z m 275.296404,-0.821 -2.006,-1.02 c 1.384,-2.761 2.668,-5.583 3.812,-8.344 l 2.147,0.881 c -1.224,2.801 -2.568,5.662 -3.953,8.463 z m -269.939304,-16.707 -2.1469,-0.84 c 1.1236,-2.841 2.3877,-5.723 3.752,-8.564 l 2.0064,1.001 c -1.264,2.801 -2.508,5.622 -3.6115,8.403 z m 277.082304,-0.48 -2.207,-0.72 c 0.963,-2.942 1.806,-6.003 2.488,-8.804 l 2.247,0.52 c -0.682,3.001 -1.545,5.923 -2.528,9.004 z m -269.116904,-16.007 -2.0064,-1.14 c 1.5048,-2.662 3.15,-5.343 4.8554,-8.004 l 2.0064,1.261 c -1.7656,2.581 -3.3707,5.222 -4.8554,7.883 z m 273.390904,-2.261 -2.308,-0.32 c 0.43,-3.019 0.705,-6.057 0.823,-9.104 l 2.327,0.1 c -0.124,3.12 -0.405,6.232 -0.842,9.324 z M 38.478356,116.33 l -1.8659,-1.361 c 1.8258,-2.481 3.7519,-4.942 5.7382,-7.343 l 1.7857,1.46 c -1.9462,2.381 -3.8522,4.823 -5.658,7.244 z m 261.734004,-5.343 c -0.22,-3.034 -0.608,-6.053 -1.164,-9.044 l 2.267,-0.44 c 0.584,3.076 0.993,6.182 1.224,9.304 z m -250.016704,-8.823 -1.7054,-1.581 c 2.0064,-2.241 4.2535,-4.502 6.4806,-6.703 l 1.6252,1.641 c -2.207,2.241 -4.3539,4.402 -6.4004,6.643 z m 13.1217,-12.946 -1.565,-1.721 c 2.287,-2.001 4.675,-4.001 7.083,-6.002 l 1.484,1.801 c -2.387,1.88 -4.755,3.901 -7.002,5.922 z m 14.266,-11.645 -1.385,-1.861 c 2.488,-1.86 5.056,-3.661 7.604,-5.402 l 1.304,2.001 c -2.528,1.621 -5.056,3.441 -7.523,5.262 z m 15.268,-10.364 -1.224,-2.001 c 2.609,-1.6208 5.317,-3.2215 8.026,-4.7421 l 1.143004,2.0008 c -2.688004,1.5603 -5.357004,3.1413 -7.945004,4.7423 z m 16.051004,-9.0241 -1.043,-2.0009 0.461,-0.2401 c 2.649,-1.3405 5.317,-2.6411 8.026,-3.8216 l 0.963,2.1009 c -2.588,1.1805 -5.237,2.4611 -7.865,3.7816 z m 162.377,-1.0805 c -1.264,-1.0004 -2.568,-2.0008 -3.892,-2.8612 l 1.324,-1.9008 c 1.344,0.9404 2.689,2.0009 4.013,2.9213 z m -145.583,-6.6228 -0.863,-2.1409 c 2.869,-1.1605 5.798,-2.301 8.708,-3.3414 l 0.782,2.1809 c -2.849,1.0405 -5.758,2.1409 -8.607,3.3014 z m 134.007,-1.0404 c -2.629,-1.4406 -5.398,-2.8012 -8.227,-4.0017 l 0.923,-2.1209 c 2.889,1.2605 5.718,2.6611 8.427,4.1417 z m -116.532,-5.1822 -0.702,-2.221 c 2.99,-0.9203 6.019,-1.7807 8.969,-2.561 l 0.602,2.2409 c -3.01,0.7603 -5.999,1.6207 -8.949,2.5411 z m 99.738,-2.1409 c -2.849,-0.9604 -5.818,-1.8208 -8.828,-2.5811 l 0.582,-2.241 c 3.049,0.7604 6.019,1.6607 8.988,2.6412 z m -81.981,-2.5611 -0.482,-2.261 c 3.05,-0.6602 6.14,-1.2405 9.17,-1.7407 l 0.381,2.281 c -2.99,0.5002 -6.039,1.0804 -9.069,1.7207 z m 64.084,-2.0009 c -2.969,-0.5402 -6.019,-0.9804 -9.109,-1.3205 l 0.261,-2.301 c 3.11,0.3602 6.24,0.8004 9.249,1.3406 z m -45.886,-1.0604 -0.281,-2.301 c 3.11,-0.3601 6.24,-0.6402 9.31,-0.8403 l 0.14,2.381 c -3.009,0.1801 -6.099,0.4602 -9.169,0.8203 z m 27.608,-0.9804 c -2.548,-0.1201 -5.157,-0.1801 -7.745,-0.1801 h -1.485 v -2.261 h 1.485 c 2.629,0 5.277,0 7.845,0.2001 z"
     fill="#b5d6ea"
     id="path4" />
  <path
     d="M 208.90236,0 H 92.793356 c -7.591,0 -13.744,6.1363 -13.744,13.7058 V 249.586 c 0,7.569 6.153,13.706 13.744,13.706 H 208.90236 c 7.591,0 13.744,-6.137 13.744,-13.706 V 13.7058 C 222.64636,6.1363 216.49336,0 208.90236,0 Z"
     fill="#265173"
     id="path6" />
  <path
     d="M 84.690356,13.7055 V 244.083 c 0,4.453 3.62,8.064 8.085,8.064 H 208.88536 c 4.466,0 8.086,-3.611 8.086,-8.064 V 13.7055 c 0,-4.4533 -3.62,-8.0635 -8.086,-8.0635 H 92.775356 c -4.465,0 -8.085,3.6102 -8.085,8.0635 z"
     fill="#ffffff"
     id="path8" />
  <path
     d="M 206.61536,158.407 H 95.080356 v 15.227 H 206.61536 Z"
     fill="#e1f0fa"
     id="path10" />
  <path
     d="M 206.61536,181.617 H 95.080356 v 15.247 H 206.61536 Z"
     fill="#cdffe4"
     id="path12" />
  <path
     d="m 206.59536,234.92 c 0,-1.785 -0.709,-3.497 -1.973,-4.761 -1.264,-1.264 -2.978,-1.977 -4.768,-1.982 h -12.38 c -1.793,0 -3.513,0.71 -4.781,1.975 -1.268,1.264 -1.98,2.979 -1.98,4.768 0.005,1.785 0.72,3.494 1.987,4.755 1.268,1.26 2.985,1.968 4.774,1.968 h 12.42 c 1.779,-0.016 3.481,-0.731 4.735,-1.989 1.255,-1.259 1.961,-2.96 1.966,-4.734 z"
     fill="#cdffe4"
     id="path14" />
  <path
     d="m 199.45236,239.062 c 2.294,0 4.153,-1.854 4.153,-4.142 0,-2.287 -1.859,-4.142 -4.153,-4.142 -2.294,0 -4.153,1.855 -4.153,4.142 0,2.288 1.859,4.142 4.153,4.142 z"
     fill="#ffffff"
     id="path16" />
  <path
     d="M 168.21336,230.357 H 95.080356 v 9.104 h 73.133004 z"
     fill="#cdffe4"
     id="path18" />
  <path
     d="m 206.59536,217.113 c 0,-1.783 -0.71,-3.493 -1.974,-4.754 -1.264,-1.261 -2.979,-1.969 -4.767,-1.969 h -12.38 c -0.887,-0.003 -1.765,0.169 -2.586,0.506 -0.82,0.336 -1.565,0.831 -2.193,1.456 -0.629,0.624 -1.127,1.366 -1.467,2.183 -0.34,0.817 -0.515,1.693 -0.515,2.578 0.003,0.882 0.18,1.756 0.521,2.571 0.341,0.814 0.84,1.554 1.468,2.176 0.627,0.623 1.372,1.116 2.191,1.451 0.819,0.336 1.696,0.507 2.581,0.504 h 12.42 c 1.778,-0.01 3.479,-0.72 4.734,-1.976 1.255,-1.255 1.962,-2.954 1.967,-4.726 z"
     fill="#cdffe4"
     id="path20" />
  <path
     d="m 199.45236,221.254 c 2.294,0 4.153,-1.854 4.153,-4.142 0,-2.287 -1.859,-4.141 -4.153,-4.141 -2.294,0 -4.153,1.854 -4.153,4.141 0,2.288 1.859,4.142 4.153,4.142 z"
     fill="#ffffff"
     id="path22" />
  <path
     d="M 168.21336,212.57 H 95.080356 v 9.104 h 73.133004 z"
     fill="#cdffe4"
     id="path24" />
  <path
     d="m 55.432056,78.773 c 0,0 10.0323,-3.301 12.7003,-1.22 l -8.387,7.223 z"
     fill="#f79885"
     id="path26" />
  <path
     d="m 48.107956,95.14 c 0,0 2.0064,7.344 13.0014,15.827 -7.544,9.764 -28.4105,-9.124 -23.1939,-19.768 1.5048,-3.102 10.4533,-10.245 17.5158,-12.426 l 4.3141,6.003 z"
     fill="#3ceac1"
     id="path28" />
  <path
     d="M 179.47036,29.787 70.695356,44.9355 c -2.963,0.4126 -5.029,3.1426 -4.616,6.0975 l 5.706,40.742 c 0.414,2.955 3.151,5.016 6.114,4.603 L 186.67336,81.23 c 2.964,-0.413 5.03,-3.143 4.616,-6.098 l -5.705,-40.7418 c -0.414,-2.955 -3.151,-5.0159 -6.114,-4.6032 z"
     fill="#d4e1f2"
     id="path30" />
  <path
     d="m 173.69836,42.824 -93.930004,13.0813 1.309,9.3537 93.931004,-13.0817 z"
     fill="#26d5b6"
     id="path32" />
  <path
     d="m 176.24536,60.909 -93.931004,13.081 1.31,9.354 93.931004,-13.082 z"
     fill="#26d5b6"
     id="path34" />
  <path
     d="m 66.548356,78.673 c -0.682,-0.24 0.422,-5.422 2.388,-7.023 l 0.562,3.162 c 0,0 3.25,0 3.31,0.5 0.06,0.5 -3.531,1.22 -3.531,1.22 0,0 -1.926,2.422 -2.729,2.141 z"
     fill="#f79885"
     id="path36" />
  <path
     d="m 34.988956,263.531 h 2.8691 c 3.8322,-19.828 11.5167,-56.704 15.1282,-74.031 2.2672,-10.885 4.0128,-19.888 4.9361,-25.251 h -3.7924 -0.6421 l -19.3215,-0.46 c -5.016,38.697 -6.6612,89.298 0.8226,99.742 z"
     fill="#26d5b6"
     id="path38" />
  <path
     d="m 51.119556,198.224 2.9695,-15.067 -2.9695,-13.845 z"
     fill="#26d5b6"
     id="path40" />
  <path
     d="m 38.422256,263.052 c -0.0193,-0.126 -0.0193,-0.254 0,-0.38 h -4.2737 c -0.2787,1.765 -0.1968,3.569 0.2408,5.302 h 1.0433 c -0.001,-0.554 0.1443,-1.1 0.4214,-1.581 0.262,0.49 0.4191,1.028 0.4615,1.581 h 5.7583 c -1.6984,-1.224 -2.9742,-2.944 -3.6516,-4.922 z"
     fill="#1f342f"
     id="path42" />
  <path
     d="m 51.323756,163.789 c -0.6621,12.505 4.5947,88.518 14.4656,99.822 h 2.629 c 4.013,-36.015 6.541,-85.456 4.615,-99.602 l -18.9809,0.16 z"
     fill="#26d5b6"
     id="path44" />
  <path
     d="m 65.081356,111.327 c -1.364,2.721 -3.672,0.16 -5.337,-2.001 0,0 1.746,-5.642 3.07,-10.504 1.023,-3.722 4.494,1.12 3.772,6.002 -0.301,2.041 -1.505,6.503 -1.505,6.503 z"
     fill="#f79885"
     id="path46" />
  <path
     d="m 60.051356,100.202 c 0,0 -3.5317,-5.662 -2.7693,-9.084 0.7623,-3.421 8.0253,-4.942 9.7913,-3.181 1.766,1.761 5.457,10.204 2.749,16.227 -0.244,0.341 -0.566,0.619 -0.94,0.81 -0.373,0.192 -0.787,0.291 -1.207,0.29 -4.795,-0.14 -7.624,-5.062 -7.624,-5.062 z"
     fill="#f79885"
     id="path48" />
  <path
     d="m 33.885156,163.789 c 7.9052,6.343 23.6952,4.982 39.3452,0.48 0,-0.38 -1.665,-48.02 -5.718,-53.462 -3.901,-0.659 -7.708,-1.788 -11.3362,-3.362 -13.4227,14.587 -20.3649,45.84 -22.291,56.344 z"
     fill="#3ceac1"
     id="path50" />
  <path
     d="m 55.677056,93.199 c 0,0 0.321,-10.904 8.6073,-6.482 0.396,-0.541 0.956,-0.94 1.597,-1.137 0.642,-0.197 1.33,-0.182 1.962,0.043 0.632,0.225 1.174,0.648 1.545,1.206 0.371,0.558 0.552,1.22 0.514,1.888 -0.261,4.002 -4.013,1.301 -3.21,6.903 0,0 -0.883,-1.46 -1.324,-0.82 -0.442,0.64 0.642,2.501 1.585,2.781 0.28,2.201 3.611,9.404 -5.819,12.005 -5.1564,1.561 -12.4797,-1.38 -5.4573,-16.387 z"
     fill="#9c2622"
     id="path52" />
  <path
     d="m 69.438356,263.052 v -0.38 h -4.675 c -0.255,1.765 -0.187,3.561 0.2,5.302 h 0.682 c 0.281,-3.621 1.586,-1.52 1.726,0 h 8.226 c -1.307,-0.362 -2.527,-0.985 -3.585,-1.831 -1.059,-0.846 -1.935,-1.898 -2.574,-3.091 z"
     fill="#1f342f"
     id="path54" />
  <path
     d="m 107.36136,94.26 c 0,0.44 3.311,-2.321 3.311,-2.321 0.144,0.38 0.369,0.723 0.66,1.007 0.292,0.283 0.641,0.5 1.025,0.634 1.306,-0.087 2.534,-0.65 3.451,-1.581 0.361,-0.56 -1.163,-1.72 -1.163,-1.72 0.682,0 2.106,-0.381 2.006,-0.821 -0.1,-0.44 -2.127,0 -4.013,-0.66 -0.379,-0.105 -0.781,-0.097 -1.156,0.024 -0.374,0.121 -0.705,0.349 -0.951,0.656 -1.265,1.447 -2.331,3.055 -3.17,4.782 z"
     fill="#f79885"
     id="path56" />
  <path
     d="m 108.12336,103.764 c 0,0 4.013,-10.904 2.006,-13.585 l -8.025,9.244 z"
     fill="#f79885"
     id="path58" />
  <path
     d="m 90.245356,112.507 c -7.619,0.181 -15.236,-0.415 -22.733,-1.78 -2.588,2.581 -4.153,4.642 -0.802,6.723 6.962,4.361 22.812,6.702 28.831,3.701 3.09,-1.541 10.333004,-10.364 12.581004,-17.387 l -6.02,-4.342 z"
     fill="#3ceac1"
     id="path60" />
  <path
     d="m 210.51736,122.249 -109.459,8.744 c -2.982004,0.239 -5.206004,2.843 -4.967004,5.817 l 3.294,41.006 c 0.239,2.974 2.850004,5.192 5.832004,4.954 l 109.459,-8.745 c 2.983,-0.238 5.207,-2.842 4.968,-5.816 l -3.294,-41.006 c -0.239,-2.974 -2.85,-5.192 -5.833,-4.954 z"
     fill="#d9e9ff"
     id="path62" />
  <path
     d="m 171.54236,137.516 -62.04,4.956 0.756,9.414 62.04,-4.957 z"
     fill="#26d5b6"
     id="path64" />
  <path
     d="m 173.01036,155.73 -62.039,4.956 0.756,9.413 62.039,-4.956 z"
     fill="#26d5b6"
     id="path66" />
  <path
     d="m 204.18336,134.917 -23.9,1.909 2.219,27.623 23.9,-1.909 z"
     fill="#26d5b6"
     id="path68" />
  <path
     d="m 221.92636,160.988 c 0.903,-0.32 -0.301,-7.523 -3.632,-9.544 l -0.1,4.602 c 0,0 -4.173,0 -4.254,0.661 -0.08,0.66 5.117,2 5.117,2 0,0 1.866,2.642 2.869,2.281 z"
     fill="#f79885"
     id="path70" />
  <path
     d="m 257.79736,152.545 c 4.173,0.34 10.393,5.222 9.029,10.524 -2.468,9.624 -13.543,24.771 -20.064,27.232 -9.33,3.541 -28.19,-17.608 -28.19,-26.011 l 3.572,-6.643 20.064,18.328 c 9.731,-8.844 10.332,-22.51 15.589,-23.43 z"
     fill="#44645c"
     id="path72" />
  <path
     d="m 283.09936,197.684 c 0,0 2.869,15.706 -5.157,45.499 0,0 19.242,0 26.083,7.223 0.477,1.326 0.657,2.741 0.529,4.144 -0.129,1.403 -0.562,2.761 -1.271,3.98 -11.347,2.844 -22.974,4.435 -34.67,4.742 -14.747,0 -14.446,-66.249 -14.446,-66.249 z"
     fill="#3ceac1"
     id="path74" />
  <path
     d="m 255.69036,228.777 c 0,0 21.107,2.121 20.906,-19.688 l -21.789,10.724 z"
     fill="#265173"
     id="path76" />
  <path
     d="m 302.70136,251.927 c 2.135,-0.754 4.35,-1.265 6.601,-1.521 1.625,0.14 2.648,12.866 -0.442,12.866 h -4.434 c 0,0 -1.485,-2.001 1.204,-3.122 0,0 0.622,-0.86 -3.27,-2.941 -2.167,-1.18 -1.104,-4.862 0.341,-5.282 z"
     fill="#22365b"
     id="path78" />
  <path
     d="m 193.31036,176.635 c 0.22,0.561 -5.337,-1.66 -5.337,-1.66 -0.017,0.554 -0.159,1.098 -0.416,1.59 -0.258,0.492 -0.623,0.919 -1.069,1.251 -1.74,0.445 -3.585,0.231 -5.176,-0.6 -0.723,-0.581 0.782,-2.742 0.782,-2.742 -0.843,0.401 -2.929,0.381 -2.989,-0.24 -0.061,-0.62 2.748,-0.94 4.975,-2.561 0.451,-0.312 0.987,-0.48 1.535,-0.48 0.549,0 1.085,0.168 1.535,0.48 2.262,1.378 4.333,3.047 6.16,4.962 z"
     fill="#f79885"
     id="path80" />
  <path
     d="m 234.46136,252.407 c 1.096,3.423 1.736,6.975 1.906,10.565 h -14.045 c -0.071,-0.693 0.108,-1.388 0.506,-1.96 0.397,-0.572 0.986,-0.984 1.661,-1.162 2.448,-0.66 6.26,-1.82 6.801,-7.103 z"
     fill="#22365b"
     id="path82" />
  <path
     d="m 212.91636,206.167 c -6.38,12.786 16.834,48.981 16.834,48.981 l 8.146,-0.7 c 0,0 5.758,-8.944 -4.775,-34.695 0,0 50.38,21.729 42.856,-22.009 0,-0.06 -56.6,-4.522 -63.061,8.423 z"
     fill="#3ceac1"
     id="path84" />
  <path
     d="m 277.94236,243.183 c 0,0 -6.139,0.961 -8.487,6.003 0.476,-2.429 1.626,-4.676 3.317,-6.487 1.692,-1.81 3.858,-3.112 6.254,-3.758 z"
     fill="#265173"
     id="path86" />
  <path
     d="m 242.97136,142.221 c 0.361,-1.701 0.842,-6.683 -1.465,-9.784 -2.307,-3.102 -10.554,0.22 -11.858,2.381 -2.367,4.001 3.853,15.846 6.019,15.806 0.602,-0.02 5.719,-0.98 7.304,-8.403 z"
     fill="#f79885"
     id="path88" />
  <path
     d="m 235.62736,150.624 c 1.15,-0.174 2.236,-0.643 3.15,-1.361 l -1.505,-2.641 c -0.02,3.161 -1.645,4.002 -1.645,4.002 z"
     fill="#f0786a"
     id="path90" />
  <path
     d="m 232.03936,138.679 c 0,0 2.006,4.982 -0.943,5.862 0,0 1.364,6.343 4.735,6.443 0.844,-0.021 1.669,-0.251 2.402,-0.671 0.732,-0.419 1.348,-1.014 1.791,-1.73 0,0 -4.755,3.421 -6.119,-8.444 z"
     fill="#51192b"
     id="path92" />
  <path
     d="m 243.49136,142.04 c 1.044,4.002 6.02,10.544 6.02,10.544 0.401,4.602 -4.996,2.962 -8.026,4.002 -1.37,-2.087 -2.526,-4.305 -3.451,-6.623 -2.969,-8.403 3.611,-15.106 5.457,-7.923 z"
     fill="#f79885"
     id="path94" />
  <path
     d="m 232.03336,138.679 c 0,0 -5.578,-1.121 -5.157,-5.463 0.422,-4.341 4.896,-2.321 4.896,-2.321 0,0 2.949,-4.822 5.838,-4.662 2.89,0.16 1.826,3.242 1.826,3.242 0,0 4.374,-0.841 5.096,1.901 0.723,2.741 -0.621,4.181 -0.682,7.123 -0.06,2.941 1.806,4.281 -2.829,5.622 -6.821,1.961 -8.988,-5.442 -8.988,-5.442 z"
     fill="#51192b"
     id="path96" />
  <path
     d="m 285.08436,204.987 c 0,0 -24.438,6.003 -42.676,-7.743 4.013,-21.109 -11.175,-31.193 -11.858,-38.196 -0.085,-0.665 -0.085,-1.337 0,-2.001 0,0 9.109,-6.863 31.22,-5.743 0.04,-0.08 19.442,6.683 23.314,53.683 z"
     fill="#1f342f"
     id="path98" />
  <path
     d="m 238.43436,164.13 c 0.948,2.77 0.834,5.792 -0.321,8.484 l -2.127,-3.382 z"
     fill="#3ceac1"
     id="path100" />
  <path
     d="m 233.02236,155.586 c 4.174,0.34 6.421,5.262 5.056,10.564 -2.467,9.625 -13.121,22.41 -19.602,24.871 -9.35,3.562 -27.487,-5.882 -31.099,-13.406 l 0.963,-5.302 24.418,6.643 c 9.671,-8.804 15.008,-22.45 20.264,-23.37 z"
     fill="#1f342f"
     id="path102" />
  <path
     d="m 2.6665557,70.59 -0.7423,-2.842 7.1628,-5.5019 0.5217,2.0009 -5.7985,4.522 7.2631003,1.14 0.5217,2.001 z"
     fill="#5aa5d1"
     id="path104" />
  <path
     d="m 12.779856,73.171 -1.1837,-14.0062 1.8659,-0.4802 1.2239,14.0064 z"
     fill="#5aa5d1"
     id="path106" />
  <path
     d="m 17.369756,70.43 -0.5016,-2.001 5.7784,-4.522 -7.2632,-1.16 -0.5216,-2.0009 8.9485,1.3406 0.7223,2.8213 z"
     fill="#5aa5d1"
     id="path108" />
  <path
     d="m 279.39136,98.382 c -1.153,-0.012 -2.279,-0.354 -3.243,-0.985 -0.964,-0.631 -1.726,-1.526 -2.195,-2.576 l -6.781,-15.707 c -0.591,-1.45 -0.591,-3.072 0,-4.522 0.285,-0.718 0.711,-1.372 1.251,-1.925 0.541,-0.553 1.186,-0.994 1.899,-1.296 l 4.013,-1.741 0.963,2.261 -4.013,1.741 c -0.415,0.175 -0.79,0.432 -1.104,0.755 -0.314,0.324 -0.559,0.706 -0.722,1.125 -0.174,0.416 -0.263,0.861 -0.263,1.311 0,0.45 0.089,0.895 0.263,1.311 l 6.762,15.626 c 0.177,0.415 0.434,0.79 0.757,1.105 0.323,0.315 0.705,0.563 1.125,0.731 0.419,0.167 0.868,0.25 1.319,0.244 0.452,-0.006 0.898,-0.101 1.313,-0.279 l 15.75,-6.763 c 0.416,-0.177 0.792,-0.433 1.108,-0.755 0.316,-0.322 0.565,-0.704 0.733,-1.122 0.168,-0.418 0.251,-0.865 0.245,-1.316 -0.006,-0.45 -0.101,-0.895 -0.28,-1.309 l -1.866,-4.322 2.267,-0.98 1.866,4.322 c 0.591,1.449 0.591,3.072 0,4.522 -0.285,0.718 -0.711,1.372 -1.251,1.925 -0.541,0.553 -1.186,0.993 -1.899,1.296 l -15.63,6.843 c -0.754,0.321 -1.567,0.484 -2.387,0.48 z"
     fill="#26d5b6"
     id="path110" />
  <path
     d="m 290.58036,55.5236 -15.751,6.7629 c -1.138,0.4885 -2.036,1.4078 -2.495,2.5555 -0.459,1.149 -0.442,2.431 0.048,3.567 l 6.781,15.707 c 0.49,1.135 1.412,2.03 2.563,2.488 1.151,0.458 2.438,0.441 3.577,-0.047 l 15.75,-6.803 c 1.109,-0.489 1.984,-1.388 2.44,-2.508 0.457,-1.12 0.46,-2.373 0.008,-3.495 l -6.782,-15.7063 c -0.235,-0.5693 -0.581,-1.0865 -1.017,-1.5218 -0.437,-0.4353 -0.955,-0.7801 -1.526,-1.0145 -0.571,-0.2344 -1.182,-0.3537 -1.8,-0.3511 -0.617,0.0026 -1.228,0.1271 -1.796,0.3663 z m 5.136,14.0064 -5.558,2.381 2.428,5.642 -3.13,1.341 -2.428,-5.643 -5.517,2.381 -1.325,-3.101 5.598,-2.361 -2.427,-5.623 3.109,-1.3401 2.428,5.6221 5.558,-2.381 z"
     fill="#26d5b6"
     id="path112" />
</svg>
