<svg width="60" height="60" viewBox="0 0 60 60" fill="none" xmlns="http://www.w3.org/2000/svg"><path d="M14.075 52.098c7.12 5.408 16.681 6.892 24.827 3.832h.001a27.117 27.117 0 0 0 9.594-6.121l.347-.35c3.436-3.52 5.8-7.8 6.913-12.508l.107-.471v-.002c2.375-10.983-2.03-22.23-11.123-28.387-2.277-1.542-4.177-2.465-6.806-3.328v-.001c-2.9-.944-5.226-1.261-8.632-1.185v.001c-2.742.055-4.233.274-6.665.997v.001l-.863.253-.058-.105-.012-.02c-.141-.226-.565-.973-.962-1.662v-.001a13.24 13.24 0 0 0-.504-.815 2.48 2.48 0 0 0-.443-.518c-.165-.135-.407-.257-.698-.19-.25.058-.421.234-.524.358v.002a1.112 1.112 0 0 0-.125.202 6.036 6.036 0 0 0-.108.234c-.08.181-.18.42-.292.696a93.92 93.92 0 0 0-.77 1.976 92.35 92.35 0 0 0-.73 1.988c-.097.279-.18.523-.238.71a5.48 5.48 0 0 0-.072.244 1.25 1.25 0 0 0-.024.102l-.015.142.008.119a1.118 1.118 0 0 0 .344.657l.02.018c.07.057.143.087.166.097.037.014.075.027.11.038.07.021.155.043.25.065.19.045.445.098.737.153a72.02 72.02 0 0 0 2.11.364c.761.12 1.529.232 2.128.307.3.038.562.067.763.083.1.008.191.014.268.015.037 0 .078 0 .118-.003a.691.691 0 0 0 .16-.028h.002l.004-.001.002-.001h-.001a.89.89 0 0 0 .506-.368c.137-.223.133-.467.095-.662-.07-.361-.315-.843-.67-1.466l-.004-.005a26.49 26.49 0 0 1-.4-.71 39.154 39.154 0 0 1 2.747-.665c1.702-.323 5.006-.45 6.846-.24 5.742.631 10.985 3.232 14.914 7.38v.001c1.832 1.928 3.09 3.766 4.283 6.204l.269.57c2.695 5.892 3.019 12.264.922 18.517-2.753 8.206-9.675 14.376-18.037 16.091-2.512.516-5.61.632-8.021.296h-.001c-3.578-.495-7.211-1.876-10.134-3.843-1.567-1.067-2.396-1.745-3.797-3.16v-.002a24.574 24.574 0 0 1-6.218-10.626l-.218-.814c-.539-2.15-.713-3.604-.713-5.962v-.001c-.01-3.262.39-5.56 1.491-8.678.162-.449.27-.776.325-1.025.057-.255.073-.49-.007-.723v-.003c-.119-.336-.408-.538-.663-.629-.253-.09-.603-.116-.904.068l-.006.002c-.185.117-.319.318-.41.476-.104.18-.209.405-.313.657a19.024 19.024 0 0 0-.636 1.898c-.42 1.463-.815 3.26-1.003 4.778l-.031.285c-.068.716-.1 1.768-.101 2.8-.001 1.177.038 2.375.121 3.058v.003c.655 5.093 2.631 9.908 5.697 13.819 1.146 1.474 3.308 3.62 4.757 4.722Z" fill="#38E9BF" stroke="#38E9BF"/><path d="M17.124 32.631c.154 1.56 1.411 2.68 2.977 2.766 2.013.11 5.25.228 9.899.228 4.649 0 7.886-.117 9.9-.228 1.565-.086 2.822-1.206 2.976-2.766.133-1.343.249-3.24.249-5.756 0-2.517-.116-4.413-.249-5.756-.154-1.56-1.411-2.68-2.977-2.766-2.013-.11-5.25-.228-9.899-.228-4.649 0-7.886.117-9.9.228-1.565.086-2.823 1.206-2.976 2.766-.133 1.343-.249 3.24-.249 5.756 0 2.517.116 4.413.249 5.756Z" fill="#DEF0F8"/><path d="M36.875 41.462a3.25 3.25 0 0 1-1.185.286 113.09 113.09 0 0 1-5.69.127c-2.476 0-4.351-.06-5.69-.127a3.25 3.25 0 0 1-1.185-.285m16.563-3.413a3.25 3.25 0 0 1-1.597.511c-1.742.095-4.397.189-8.091.189-3.694 0-6.349-.094-8.091-.189a3.25 3.25 0 0 1-1.596-.511m-3.19-5.419c.154 1.56 1.412 2.68 2.978 2.766 2.013.11 5.25.228 9.899.228 4.649 0 7.886-.117 9.9-.228 1.565-.086 2.822-1.206 2.976-2.766.133-1.343.249-3.24.249-5.756 0-2.517-.116-4.413-.249-5.756-.154-1.56-1.411-2.68-2.977-2.766-2.013-.11-5.25-.228-9.899-.228-4.649 0-7.886.117-9.9.228-1.565.086-2.823 1.206-2.976 2.766-.133 1.343-.249 3.24-.249 5.756 0 2.517.116 4.413.249 5.756Z" stroke="#0F67AD" stroke-width="2" stroke-linecap="round" stroke-linejoin="round"/><path d="M32.5 24.069s-1-.765-2.5-.765m0 0c-1.25 0-2.5.765-2.5 1.785 0 2.552 5 1.021 5 3.572 0 1.02-1.25 1.786-2.5 1.786m0-7.143v-1.429m0 8.572c-1.5 0-2.5-.766-2.5-.766m2.5.766v1.428m8.125-5H37.5m-15 0h-.625" stroke="#0F67AD" stroke-width="2" stroke-linecap="round" stroke-linejoin="round"/></svg>