<svg width="630" height="420" viewBox="0 0 630 420" fill="none" xmlns="http://www.w3.org/2000/svg"><rect width="630" height="420" rx="20" fill="#C6E5FD"/><g filter="url(#filter0_d_144_10795)"><path d="M98.457 389.365s-61.103-69.521-35.588-151.241c22.9-73.343 126.439-120.811 181.455-84.486 26.616 17.573 48.118-53.057 136.448-78.912 65.321-19.12 161.91 23.76 137.377 155.076-18.649 99.839 73.867 50.063 53.661 160.356l-473.353-.793Z" fill="#F2F5FA"/></g><path d="M422.195 136.303s-13.275-14.391-1.695-24.286c0 0 8.521-5.615 15.648-5.453 0 0-9.441 17.303-6.117 18.864 3.32 1.561 9.129-20.041 9.129-20.041s19.767-2.677 26.268.159c0 0-16.442 14.545-12.837 15.241 3.601.692 21.411-13.649 21.411-13.649s18.584 2.455 18.021 13.779c-.562 11.324-6.792 15.049-9.603 14.855-2.807-.195-19.399-5.837-19.67-3.528-.271 2.31 9.858 9.443 16.767 9.534 0 0-12.48 14.876-21.289 11.05-8.809-3.826-9.792-10.38-15.277-12.645-5.485-2.266-10.09-2.086-7.77.348 2.321 2.433 12.176 4.513 15.463 9.863 3.291 5.351 6.197 8.934-2.807 7.921-9.001-1.013-23.798-7.029-24.722-14.52l-.92-7.492Z" fill="#62B4F2"/><path d="M482.962 121.564s-50.226-.049-60.763 14.738c0 0-2.176 7.444-9.462 14.421l-1.056 3.253s8.346-9.509 11.438-10.181c0 0-5.531-17.625 59.843-22.231Z" fill="#737373"/><path d="M412.741 150.721s-10.467 8.383-10.681 22.665l1.96.102s2.887-14.868 8.884-20.866c6-5.997-.163-1.901-.163-1.901Z" fill="#599DAD"/><path d="M392.187 119.153s-29.845-6.746-23.676-29.785c0 0 6.008-14.806 15.333-20.93 0 0 3.149 30.683 8.813 29.744 5.657-.942-5.973-33.934-5.973-33.934s23.106-21.01 33.986-23.13c0 0-8.311 33.347-3.056 31.037 5.258-2.306 15.514-36.605 15.514-36.605s26.116-13.347 35.412 1.742c9.299 15.09 4.565 25.426.772 27.669-3.786 2.242-30.16 9.717-28.463 12.93 1.693 3.217 21.058 3.41 30.038-2.61 0 0-2.914 30.254-17.651 33.151-14.735 2.894-21.802-4.675-30.876-2.72-9.073 1.955-14.847 6.278-9.701 7.35 5.142 1.074 19.68-5.001 28.65-1.03 8.974 3.972 15.887 6.008 3.394 12.702-12.496 6.693-36.884 12.088-44.702 3.252l-7.814-8.833Z" fill="#88C8FC"/><path d="M457.436 46.175s-64.76 44.56-65.252 72.979c0 0 3.788 11.52.572 26.985l1.52 5.128s2.34-19.669 5.725-23.278c0 0-22.721-17.793 57.435-81.814Z" fill="#737373"/><path d="M392.756 146.139s-6.066 20.098 6.298 38.69l2.615-1.611s-9.438-21.719-7.016-34.776c2.42-13.057-1.897-2.303-1.897-2.303Z" fill="#6BB7BF"/><path d="M226.408 290.73s29.843-6.745 23.675-29.784c0 0-6.008-14.805-15.331-20.927 0 0-3.151 30.68-8.813 29.74-5.661-.94 5.972-33.934 5.972-33.934s-23.105-21.009-33.986-23.129c0 0 8.311 33.348 3.054 31.039-5.256-2.306-15.512-36.607-15.512-36.607s-26.116-13.348-35.413 1.742c-9.298 15.089-4.564 25.426-.774 27.67 3.79 2.243 30.162 9.717 28.467 12.932-1.695 3.215-21.057 3.406-30.04-2.612 0 0 2.916 30.254 17.65 33.15 14.735 2.895 21.804-4.674 30.878-2.719 9.072 1.955 14.846 6.277 9.701 7.351-5.143 1.073-19.679-5.003-28.652-1.03-8.973 3.971-15.887 6.006-3.392 12.7 12.496 6.693 36.884 12.089 44.701 3.253l7.815-8.835Z" fill="#88C8FC"/><path d="M161.158 217.752s64.759 44.562 65.25 72.978c0 0-3.787 11.522-.571 26.986l-1.521 5.129s-2.338-19.667-5.723-23.28c0 0 22.721-17.792-57.435-81.813Z" fill="#737373"/><path d="M225.837 317.716s6.066 20.101-6.296 38.69l-2.616-1.609s9.439-21.722 7.016-34.777c-2.42-13.058 1.896-2.304 1.896-2.304Z" fill="#6BB7BF"/><path d="M424.271 389.216H207.082V83.611h217.189v305.605Z" fill="#252525"/><path d="M416.638 383.557H214.714V92.074h201.924v291.483Z" fill="#FDFDFD"/><path fill="#FDFDFD" d="M258.249 161.66H373.26v-47.436H258.249z"/><path d="M283.806 154.502h3.848v1.183h-3.848v-1.183Zm.111 3.317h4.367v1.205h-5.805v-7.74h5.65v1.206h-4.212v5.329Zm8.369 1.316a5.871 5.871 0 0 1-1.736-.255c-.553-.177-.991-.401-1.316-.674l.498-1.117c.309.243.693.446 1.15.608.457.162.925.244 1.404.244.405 0 .733-.045.984-.133.251-.089.435-.207.553-.354a.837.837 0 0 0 .177-.52.694.694 0 0 0-.255-.564 1.758 1.758 0 0 0-.663-.342 8.946 8.946 0 0 0-.896-.244 16.985 16.985 0 0 1-.984-.254 4.647 4.647 0 0 1-.895-.387 2.01 2.01 0 0 1-.653-.641c-.169-.265-.254-.605-.254-1.017 0-.42.111-.804.332-1.15.228-.354.571-.634 1.028-.841.464-.213 1.05-.32 1.758-.32.464 0 .925.059 1.382.177.457.118.855.287 1.194.508l-.453 1.117a4.12 4.12 0 0 0-1.073-.453 3.936 3.936 0 0 0-1.061-.155c-.398 0-.722.048-.973.144-.243.096-.424.221-.542.376a.89.89 0 0 0-.166.53c0 .236.081.428.244.575.169.14.387.251.652.332.273.081.575.162.907.243.331.074.659.159.984.255.331.095.63.221.895.375.273.155.49.365.653.631.169.265.254.6.254 1.006 0 .413-.114.796-.343 1.15-.221.346-.564.626-1.028.84-.464.206-1.05.31-1.758.31Zm3.46-.111 3.482-7.74h1.416l3.494 7.74h-1.504l-2.996-6.977h.575l-2.986 6.977h-1.481Zm1.603-1.791.387-1.128h4.179l.387 1.128h-4.953Zm10.829 1.791v-7.74h1.437v6.524h4.047v1.216h-5.484Zm7.945-4.522h3.848v1.183h-3.848v-1.183Zm.111 3.317h4.367v1.205h-5.804v-7.74h5.65v1.206h-4.213v5.329Zm7.54 1.205v-6.523h-2.565v-1.217h6.567v1.217h-2.565v6.523h-1.437Zm6.759 0v-6.523h-2.565v-1.217h6.568v1.217h-2.566v6.523h-1.437Zm6.408-4.522h3.848v1.183h-3.848v-1.183Zm.111 3.317h4.367v1.205h-5.805v-7.74h5.65v1.206h-4.212v5.329Zm5.969 1.205v-7.74h3.185c.685 0 1.271.111 1.758.332.494.221.873.538 1.139.951.265.413.398.903.398 1.471 0 .567-.133 1.057-.398 1.47-.266.405-.645.719-1.139.94-.487.214-1.073.321-1.758.321h-2.388l.641-.653v2.908h-1.438Zm5.064 0-1.957-2.808h1.537l1.968 2.808h-1.548Zm-3.626-2.753-.641-.686h2.321c.634 0 1.11-.136 1.427-.409.324-.272.486-.652.486-1.138 0-.494-.162-.874-.486-1.139-.317-.266-.793-.398-1.427-.398h-2.321l.641-.708v4.478Z" fill="#252525"/><g clip-path="url(#clip0_144_10795)"><path d="M269.098 114.224a10.704 10.704 0 0 0-6.034 1.862 11.042 11.042 0 0 0-4.002 4.973 11.3 11.3 0 0 0-.622 6.405 11.165 11.165 0 0 0 2.969 5.679 10.785 10.785 0 0 0 5.558 3.035c2.106.429 4.289.209 6.272-.63a10.898 10.898 0 0 0 4.872-4.084 11.245 11.245 0 0 0 1.828-6.16c0-2.937-1.142-5.754-3.175-7.832a10.737 10.737 0 0 0-7.666-3.248Zm7.02 13.948h-4.212v4.297h-5.616v-4.297h-4.208v-5.736h4.208v-4.297h5.616v4.297h4.212v5.736Zm-4.461-9.787h-5.127v4.297h-4.208v5.236h4.208v4.309h5.127v-4.309h4.224v-5.236h-4.224v-4.297Zm3.944 4.571v4.696h-4.204v4.293h-4.594v-4.293h-4.216v-4.696h4.216v-4.302h4.594v4.302h4.204Z" fill="#62B4F2"/><path d="M283.969 118.272h11.043v1.861h-4.5v11.933h-2.066v-11.933h-4.477v-1.861Zm17.018 3.564a3.386 3.386 0 0 1 2.52.923c.318.348.562.759.719 1.207.156.448.222.924.192 1.399v6.701h-1.897v-6.444c0-1.393-.688-2.09-2.066-2.09-.32.005-.635.075-.928.206a2.424 2.424 0 0 0-.78.555 2.908 2.908 0 0 0-.757 2.151v5.638h-1.881v-13.81h1.897v5.175a3.51 3.51 0 0 1 1.287-1.197 3.44 3.44 0 0 1 1.694-.414Zm14.414 5.309v.564h-7.379c.022.82.325 1.607.856 2.223a2.572 2.572 0 0 0 1.972.745c1.238 0 2.048-.556 2.429-1.667h1.913a4.303 4.303 0 0 1-1.546 2.416 4.508 4.508 0 0 1-2.836.882 4.327 4.327 0 0 1-1.851-.337 4.403 4.403 0 0 1-1.544-1.097 5.467 5.467 0 0 1-1.29-3.798 5.475 5.475 0 0 1 1.29-3.798 4.337 4.337 0 0 1 1.525-1.094 4.273 4.273 0 0 1 1.835-.34 4.175 4.175 0 0 1 1.873.348 4.262 4.262 0 0 1 1.538 1.147 5.781 5.781 0 0 1 1.215 3.806Zm-4.646-3.681a2.48 2.48 0 0 0-.986.162c-.314.12-.603.303-.848.538a3.33 3.33 0 0 0-.879 2.014h5.419a3.28 3.28 0 0 0-.844-1.965 2.467 2.467 0 0 0-.853-.576 2.42 2.42 0 0 0-1.009-.173Zm11.208-1.547c.184-.009.368-.009.552 0v1.841h-.473a3.21 3.21 0 0 0-2.272.753 2.75 2.75 0 0 0-.788 2.131v5.425h-1.893v-9.997h1.821v1.784a3.212 3.212 0 0 1 1.23-1.455 3.107 3.107 0 0 1 1.823-.482Zm9.714 8.659h.533v1.49a6.442 6.442 0 0 1-.931.061 2.21 2.21 0 0 1-1.357-.343 1.537 1.537 0 0 1-.54-1.075c-.66 1.061-1.722 1.598-3.186 1.611a3.864 3.864 0 0 1-2.552-.805 2.647 2.647 0 0 1-.721-.977 2.707 2.707 0 0 1-.218-1.202c0-1.81 1.227-2.844 3.68-3.101l1.443-.154a2.09 2.09 0 0 0 1.108-.402 1.063 1.063 0 0 0 .351-.862 1.265 1.265 0 0 0-.445-1.092 2.697 2.697 0 0 0-1.546-.338 2.781 2.781 0 0 0-1.688.403 1.887 1.887 0 0 0-.587 1.405h-1.898c.132-2.236 1.512-3.356 4.141-3.359 2.58 0 3.871.983 3.873 2.949v5.288c.012.334.185.503.54.503Zm-5.201.214a2.939 2.939 0 0 0 2.011-.701 2.481 2.481 0 0 0 .788-1.974v-1.047c-.359.248-.78.388-1.214.403l-1.364.157a3.03 3.03 0 0 0-1.578.532 1.386 1.386 0 0 0-.477 1.111 1.398 1.398 0 0 0 .465 1.116c.395.296.88.438 1.369.403Z" fill="#313131"/><path d="M333.498 118.272h5.94c1.502 0 2.677.403 3.518 1.208.425.425.759.937.976 1.503.217.566.315 1.173.286 1.78a4.367 4.367 0 0 1-.288 1.771 4.299 4.299 0 0 1-.974 1.495c-.841.806-2.016 1.208-3.518 1.208h-3.38v4.833h-2.56v-13.798Zm2.56 6.722h3.265a2.39 2.39 0 0 0 1.716-.568 2.19 2.19 0 0 0 .595-1.659c.02-.305-.023-.61-.125-.896a2.193 2.193 0 0 0-.47-.768 2.335 2.335 0 0 0-1.716-.584h-3.265v4.475Zm17.776 7.072h-2.39a3.68 3.68 0 0 1-.264-1.208c-.658.969-1.709 1.454-3.155 1.454a3.904 3.904 0 0 1-2.567-.805 2.68 2.68 0 0 1-.736-.99 2.75 2.75 0 0 1-.223-1.222c0-1.82 1.252-2.859 3.754-3.117l1.479-.137c.38-.024.746-.148 1.065-.358a.933.933 0 0 0 .253-.354.98.98 0 0 0 .071-.432 1.122 1.122 0 0 0-.082-.519 1.074 1.074 0 0 0-.313-.419 2.37 2.37 0 0 0-1.376-.298 2.438 2.438 0 0 0-1.499.358 1.649 1.649 0 0 0-.528 1.229h-2.367c.142-2.272 1.61-3.409 4.402-3.412 2.721 0 4.08 1.002 4.077 3.005v5.328c-.05.659.089 1.318.399 1.897Zm-5.233-1.51a2.63 2.63 0 0 0 1.821-.624 2.332 2.332 0 0 0 .702-1.813v-.914a2.046 2.046 0 0 1-1.12.403l-1.289.153c-.477.03-.938.189-1.337.459a1.217 1.217 0 0 0-.395.979 1.232 1.232 0 0 0 .395.999c.354.26.787.387 1.223.358Zm10.585 1.793c-2.858 0-4.35-1.15-4.477-3.448h2.331c.006.247.061.491.163.716.101.224.248.425.429.589.47.302 1.023.443 1.577.403 1.291 0 1.937-.403 1.937-1.209a.975.975 0 0 0-.102-.472.95.95 0 0 0-.316-.361 4.074 4.074 0 0 0-1.499-.484l-1.12-.193c-2.137-.362-3.205-1.369-3.202-3.021-.017-.43.071-.858.257-1.246.185-.387.461-.721.803-.973.707-.535 1.708-.805 2.998-.805 2.797 0 4.243 1.13 4.338 3.391h-2.26a1.571 1.571 0 0 0-.548-1.269 2.556 2.556 0 0 0-1.518-.378c-1.139 0-1.708.388-1.708 1.164a.934.934 0 0 0 .394.785c.384.233.811.382 1.255.435l1.23.193c1.183.222 2.055.568 2.591 1.047a2.539 2.539 0 0 1 .789 2.014c.019.453-.075.903-.274 1.308a2.655 2.655 0 0 1-.862 1.008c-.763.537-1.831.806-3.206.806Zm9.727-.001c-2.856 0-4.347-1.149-4.476-3.447h2.334a1.806 1.806 0 0 0 .596 1.317 2.576 2.576 0 0 0 1.578.402c1.29 0 1.936-.402 1.936-1.208a.975.975 0 0 0-.418-.834 4.09 4.09 0 0 0-1.499-.483l-1.12-.193c-2.138-.363-3.206-1.37-3.206-3.021a2.66 2.66 0 0 1 .257-1.245 2.6 2.6 0 0 1 .804-.974c.709-.537 1.709-.806 2.997-.806 2.797 0 4.243 1.131 4.338 3.392h-2.256a1.574 1.574 0 0 0-.552-1.269 2.55 2.55 0 0 0-1.518-.379c-1.136 0-1.708.403-1.708 1.164a.92.92 0 0 0 .394.786c.383.233.809.381 1.251.435l1.234.193c1.183.222 2.051.568 2.587 1.047.275.252.491.563.631.912.14.349.201.726.178 1.102.015.453-.083.902-.285 1.305a2.643 2.643 0 0 1-.871.999c-.757.537-1.826.805-3.206.805Z" fill="#62B4F2"/></g><path d="M397.862 196.617H233.01v-4.334h164.852v4.334Zm-98.613-9.944h-66v-4.01h66v4.01Zm0 73.174h-66v-4.009h66v4.009Zm98.613-53.034H233.01v-4.333h164.852v4.333Zm0 10.197H233.01v-4.334h164.852v4.334Zm0 10.196H233.01v-4.335h164.852v4.335Zm0 10.194H233.01v-4.332h164.852v4.332Zm0 10.197H233.01v-4.334h164.852v4.334Z" fill="#313131" fill-opacity=".2"/><path d="M283.779 306.602c0 7.04-5.694 12.746-12.721 12.746-7.024 0-12.72-5.706-12.72-12.746 0-7.038 5.696-12.746 12.72-12.746 7.027 0 12.721 5.708 12.721 12.746Z" fill="#0F67AD"/><path d="M337.036 318.856c-.037 0-.073-.005-.11-.01a.638.638 0 0 1-.521-.734c.12-.7 3.014-17.189 12.142-22.802.649-.4 1.058-.191 1.245-.032.8.686.19 2.438-2.558 9.04-1.094 2.633-2.391 5.751-2.928 7.648.974-1.277 2.425-3.462 3.582-5.201 3.61-5.43 4.314-6.317 5.017-6.317.261 0 .495.122.644.335.383.552.091 1.473-.904 4.179-.383 1.037-.967 2.626-1.136 3.479.516-.468 1.279-1.461 1.737-2.059 1.251-1.633 1.884-2.411 2.631-2.295.157.025.537.136.719.642.076.209.11.446.149.698.099.652.208 1.393.992 1.836 1.584.895 6.153.843 18.907-4.484a.634.634 0 0 1 .831.342.635.635 0 0 1-.341.833c-10.771 4.499-17.318 5.945-20.019 4.419-1.316-.741-1.511-1.984-1.626-2.738-.362.383-.865 1.04-1.234 1.522-1.381 1.8-2.288 2.885-3.215 2.808a.877.877 0 0 1-.675-.41c-.437-.697-.008-2.069 1.084-5.034.177-.475.378-1.02.552-1.526-.883 1.209-2.081 3.014-3.053 4.477-4.043 6.081-4.775 6.963-5.59 6.74-.128-.034-.534-.192-.568-.783-.083-1.422 1.243-4.724 3.269-9.601 1.032-2.478 2.384-5.725 2.717-7.152-8.304 5.589-11.089 21.487-11.115 21.649a.636.636 0 0 1-.625.531Z" fill="#252525"/><path d="M324.749 78.871a5.093 5.093 0 0 1-5.09-5.097c0-2.817 2.278-5.1 5.09-5.1a5.092 5.092 0 0 1 5.087 5.1 5.092 5.092 0 0 1-5.087 5.097Zm38.497-.21h-25.608c.574-1.52.892-3.166.892-4.887 0-7.627-6.172-13.808-13.781-13.808-7.609 0-13.781 6.181-13.781 13.808 0 1.72.318 3.367.892 4.886h-25.609a3.734 3.734 0 0 0-3.731 3.739v10.365a3.736 3.736 0 0 0 3.731 3.738h76.995a3.736 3.736 0 0 0 3.734-3.738V82.399a3.735 3.735 0 0 0-3.734-3.739Z" fill="#595959"/><path d="M286.251 96.502h76.995a3.736 3.736 0 0 0 3.734-3.738V82.399l-80.729 14.103Z" fill="#6B6B6B"/><path d="M80.552 388.014c5.133-5.254 14.175-8.869 24.621-9.295v-15.488h-18.02c-.4 0-.756-.349-.983-.887a3.573 3.573 0 0 1-.252-1.357v-.782c0-1.236.556-2.244 1.235-2.244h18.02V314.7c0-1.144.933-2.079 2.073-2.079 1.141 0 2.074.935 2.074 2.079v43.261h18.019c.68 0 1.236 1.008 1.236 2.244v.782c0 .526-.101 1.01-.269 1.393-.227.519-.577.851-.967.851H109.32v15.488c10.445.426 19.487 4.041 24.62 9.295.373.381.724.771 1.054 1.168H79.499c.328-.397.68-.787 1.053-1.168Z" fill="#999"/><path d="M105.173 378.796c7.288.676 13.551 4.201 17.177 9.218.277.383.536.771.78 1.168h5.135a19.128 19.128 0 0 0-.78-1.168c-4.046-5.598-11.375-9.337-19.744-9.337-.869 0-1.726.039-2.568.119Z" fill="#fff"/><path d="M161.98 378.871s.628 10.146 2.587 10.292c.261.019 9.937.019 9.937.019l12.352-.07s-.081-2.982-3.692-3.612c-3.61-.633-9.654-3.174-11.841-7.956-2.301-5.03-9.343 1.327-9.343 1.327Z" fill="#163560"/><path d="M113.06 304.321c1.763 2.997 3.802 5.805 5.905 8.465 6.497 8.217 13.569 14.994 14.801 21.399.245 1.277.634 2.65 1.142 4.099a53.014 53.014 0 0 0 1.885 4.606c2.757 6.001 6.88 12.724 10.996 18.836 7.116 10.565 12.94 17.654 12.94 17.654s1.866 1.458 7.203 1.456c1.486 0 6.486-.814 6.486-.814-.492-1.233-6.393-15.26-13.553-33.086l-8.982-22.362-1.189-2.955c-.912-2.273-1.809-4.509-2.685-6.687-6.723-16.741-12.078-30.07-12.078-30.07s-26.871-10.199-29.661-3.59c-2.301 5.448-.427 10.788 6.79 23.049Z" fill="#233862"/><path d="M199.48 389.182h-40.695V276.337h40.695v112.845Z" fill="#E2E2E2"/><path d="M197.788 389.182h29.11V276.337h-29.11v112.845Z" fill="#B8B8B8"/><path d="M198.07 276.337h-42.046v-2.275h42.046v2.275Z" fill="#AF7D5B"/><path d="M229.909 276.337H198.07v-2.275h31.839v2.275Z" fill="#E2B291"/><path d="M155.388 258.874s5.831 3.324 7.463 3.322c1.633 0 8.04-1.241 9.826-.325 1.787.913 5.02 4.593 5.626 5.795 1.091 2.161-4.391 1.207-6.982-.635a1.632 1.632 0 0 0-1.294-.266c-1.342.293-4.131.799-5.477.3-1.81-.671-11.346-1.417-11.346-1.417l2.184-6.774Z" fill="#ED975D"/><path d="M111.022 213.624s6.045 43.048 16.055 46.905c4.939 1.902 26.766 6.217 33.223 6.648 0 0 1.582-1.284 1.197-6.517 0 0-22.869-8.414-26.118-12.988-4.835-6.81 3.001-27.817-3.065-34.213-6.068-6.393-16.286-9.143-21.292.165Z" fill="#4A75CB"/><path d="M133.564 349.884s-8.535 5.497-7.707 7.282c.11.238 4.827 8.702 4.827 8.702l6.084 10.772s2.559-1.527 1.349-4.991c-1.211-3.467-1.942-9.994 1.159-14.238 3.261-4.465-5.712-7.527-5.712-7.527Z" fill="#163560"/><path d="M138.414 360.423s-6.008-5.592-6.948-9.051c0 0 21.98-26.388 26.748-32.304.219-.271.163-.569-.126-.896-3.599-4.066-43.593-12.334-48.82-20.482-1.802-2.808-2.822-5.475-3.378-7.803-1.185-4.971-.248-8.407-.248-8.407l39.942-1.158s33.256 20.75 37.022 34.896c3.764 14.149-44.192 45.205-44.192 45.205Z" fill="#2B478B"/><path d="M158.088 318.171c-3.599-4.065-43.593-12.333-48.82-20.481-1.802-2.808-2.822-5.475-3.378-7.803v-5.064l16.976-2.677s4.815 14.844 19.072 20.409c13.355 5.213 15.884 14.466 16.15 15.616Z" fill="#233862"/><path d="M134.655 210.911c-8.081 2.093-21.476-5.408-21.476-5.408s5.202-3.503 7.129-11.197c.098-.388.185-.785.265-1.192.846-.18 2.442-.521 4.149-.882l6.172 5.54s-.141 2.3-.913 6.253a73.067 73.067 0 0 1-.464 2.219c3.312 2.057 5.138 4.667 5.138 4.667Z" fill="#FFB27D"/><path d="M104.624 244.472c1.157 15.597-.365 39.32.947 43.426 1.134 3.547 14.045 1.439 19.198.254 1.908-.436 4.218-1.063 6.604-1.802 6.656-2.067 13.909-5.015 14.687-7.203a2.002 2.002 0 0 0 .058-1.17c-.26-1.114-1.259-2.323-1.377-5.085-.132-3.087-.112-6.718-.227-10.623-.006-.441-.012-.921-.06-1.36l-.002-.157-.006-.252c-.112-4.356-.339-8.935-.603-13.477a355.972 355.972 0 0 0-.584-8.385c-.581-6.987-1.363-13.201-2.399-17.128-1.692-6.404-5.422-10.58-8.818-13.642l-2.457-2.111c-2.741.601-5.981.201-8.912-1.189-3.172-1.509-4.267-2.59-4.82-2.183-7.327 5.664-12.596 23.018-11.229 42.087Z" fill="#699DEE"/><path d="M131.373 286.35c6.656-2.067 13.909-5.015 14.687-7.203.03-.087.056-.17.072-.252-.004-.305-.008-.613-.014-.918-.26-1.115-1.259-2.323-1.377-5.085-.132-3.087-.112-6.718-.227-10.624-.006-.441-.012-.92-.06-1.359l-.002-.157-.006-.252-26.908-34.349s-18.088 37.74 13.835 60.199Z" fill="#4A75CB"/><path d="M130.894 197.772s-.141 2.299-.913 6.253c-6.027-1.95-8.76-7.406-9.673-9.72.098-.387.185-.785.265-1.192.846-.179 2.442-.521 4.149-.882l6.172 5.541Z" fill="#ED975D"/><path d="M131.705 201.259s-13.143-2.198-11.651-10.379c1.491-8.179.8-13.972 9.255-12.915 8.454 1.058 9.511 4.477 9.676 7.328.164 2.852-3.823 16.326-7.28 15.966Z" fill="#FFB27D"/><path d="m160.492 272.053 32.825-.005 8.919-28.895 1.163.361-9.428 30.548h-33.493l.014-2.009Z" fill="#1C468A"/><path d="M151.79 272.889s10.757 2.842 14.791 2.544c4.034-.298 7.389-2.221 7.897-3.224.508-1.003 1.574-2.784-1.173-2.455-2.746.328-6.495.914-6.612.386-.116-.531 2.239-.48 2.239-.48s.712-1.037-.184-1.076c-.897-.036-3.511-.746-4.482-.261-.972.487-1.868 2.284-2.578 2.209-.709-.075-9.001-3.743-9.001-3.743l-.897 6.1Z" fill="#FFB27D"/><path d="M113.69 215.768s1.272 43.455 10.796 48.393c4.699 2.437 25.919 9.133 32.289 10.277 0 0 1.714-1.103 1.907-6.348 0 0-21.804-10.885-24.53-15.793-4.056-7.3 6.044-27.313.717-34.339-5.326-7.028-15.18-10.888-21.179-2.19Z" fill="#699DEE"/><path d="M120.308 194.305s-.15-2.806 1.578-4.414c0 0-.602-2.813.509-3.278 1.111-.463 1.342 1.902 1.852 1.531.509-.371 2.777-2.135 3.749-4.732.972-2.597 9.869.548 10.906 1.018 1.037.467 4.37-1.25 5.018-2.641 0 0-1.851-1.485-2.684-2.597-.834-1.114-6.666-8.627-14.814-6.495-8.147 2.134-9.258 6.03-8.795 9.371.463 3.338-.656 11.117 2.681 12.237Z" fill="#233862"/><path d="M135.441 298.71a91.384 91.384 0 0 1-35.941-7.365l-7.374-3.154c-6.693-2.864-14.13 2.057-14.13 9.349v14.102a2.5 2.5 0 0 0 2.49 2.496h54.955a2.501 2.501 0 0 0 2.49-2.496v-10.436a2.501 2.501 0 0 0-2.49-2.496Z" fill="#C6E5FD"/><path d="M350.254 320.477c-11.575 1.989-22.811 2.423-31.355 1.752-8.635-.678-13.682-3.348-14.202-6.396-.471-2.759 2.724-5.926 9.245-9.15-6.248 3.091-9.277 6.572-8.846 9.082.474 2.786 5.513 4.758 13.817 5.412 8.517.671 19.567-.055 31.112-2.039 11.545-1.987 22.204-4.996 30.01-8.473 7.611-3.389 11.704-6.931 11.227-9.717-.506-2.951-5.941-5.793-14.186-7.413-9.371-1.844-20.431-1.223-31.324.649-20.456 3.518-28.466 7.36-35.256 11.614 6.819-4.273 14.552-9.116 35.078-12.646 10.939-1.882 22.148-1.897 31.564-.046 8.42 1.657 13.981 4.635 14.52 7.772.523 3.048-3.548 6.667-11.461 10.192-7.836 3.489-18.368 7.416-29.943 9.407Z" fill="#0F67AD"/><path d="M485.078 271.562s-.672 6.534-1.406 7.772c-.738 1.236-3.872 5.187-5.207 5.96-1.335.775.816-5.204.542-6.367-.271-1.165-1.097 2.122-1.688 2.2-.587.077-.434-2.881-.457-3.959-.023-1.076 2.863-3.733 3.881-6.028 1.016-2.291 4.335.422 4.335.422Zm-80.138-60.281-1.5-2.833s.744-5.051-5.573-8.246c0 0-2.306-.941-3.61.945-1.2 1.738 2.288 1.424 2.099 4.396-.185 2.972 1.223 4.716 3.183 5.685l1.62 1.88 3.781-1.827Z" fill="#FFB27D"/><path d="M464.624 204.506s-5.424 26.672-35.271 35.386c-9.316 2.721-30.48-28.013-30.48-28.013s.743-2.833 5.408-2.182c0 0 20.609 13.67 23.202 15.155 2.304 1.318 17.442-16.939 24.344-19.884 6.899-2.945 12.797-.462 12.797-.462Z" fill="#4A75CB"/><path d="m412.921 203.527-.846 5.52-27.717-4.265.847-5.521 27.716 4.266Z" fill="#1C1C1C"/><path d="m378.34 201.029 6.021 3.752.846-5.521-6.867 1.769Zm37.523 4.825-.267 1.746a1.965 1.965 0 0 1-2.239 1.645l-1.281-.197.847-5.521 1.394.215a1.85 1.85 0 0 1 1.546 2.112Z" fill="#FFB27D"/><path d="M500.255 372.175s3.701 3.384 2.978 5.79c-.72 2.406-4.063 4.009-4.512 6.951-.453 2.938-2.258 4.542-3.884 4.542h-7.751s-1.196-2.069 1.694-2.692c2.89-.622 3.978-4.079 3.799-7.285-.179-3.207.27-7.486.27-7.486l6.142-1.424 1.264 1.604Zm-45.424 8.755s.666 7.707-.959 8.508l-20.803-.043s0-2.406 3.342-2.941c3.342-.533 9.212-2.493 10.204-6.859.996-4.365 8.216 1.335 8.216 1.335Z" fill="#233862"/><path d="M437.271 272.092s1.096 13.504 2.385 29.741c1.754 22.053 3.861 49.144 4.069 54.275.36 8.911 1.807 23.166 1.807 23.166s3.431 3.387 10.296 1.96c0 0 6.116-20.351 7.862-41.879.029-.353.057-.709.083-1.065 1.623-21.916 4.154-68.07 4.154-68.07l-30.656 1.872Z" fill="#1E2637"/><path d="M437.271 272.092s1.096 13.504 2.385 29.741l24.034 37.522c.029-.354.057-.71.083-1.066 1.623-21.915 4.154-68.07 4.154-68.07l-30.656 1.873Z" fill="#2F3238"/><path d="M442.28 273.696s19.775 48.913 32.782 71.9c13.003 22.986 17.069 29.401 17.069 29.401s7.446-2.941 8.125-4.944c0 0-4.973-44.379-13.682-55.196-4.922-6.113-10.7-24.457-10.972-30.872-.268-6.415-1.762-19.11-1.762-19.11l-31.56 8.821Z" fill="#252525"/><path d="M468.301 198.316s-13.382 6.469-21.095 4.068c0 0 1.896-2.399 5.222-4.185-.269-1.552-.477-2.898-.594-4.04-.326-2.635-.326-4.128-.326-4.128l5.16-4.068 4.896-3.894c-.382 10.948 6.737 16.247 6.737 16.247Z" fill="#FFB27D"/><path d="M475.351 267.38c.028.819-1.721 1.756-2.494 2.108-5.723 2.517-11.066 4.274-17.116 4.86-7.154.731-15.608-.88-18.515-.822a1.22 1.22 0 0 1-.804-.319c-.208-.148-.356-8.783-.208-19.643 0-.439 0-.88.032-1.318v-.146c.058-4.244.208-8.695.413-13.142.417-9.778 1.189-19.205 2.494-24.416 1.573-6.146 5.134-10.215 8.367-13.172l2.67-2.342c2.673.527 5.49.381 8.307-.995 3.086-1.493 6.412-3.103 6.944-2.693 4.035 2.956 6.762 9.601 8.221 18.09.827 4.889 1.243 10.364 1.214 16.101a117 117 0 0 1-.179 6.41c-.712 11.593 0 21.661.416 27.488.119 1.698.209 3.014.238 3.951Z" fill="#699DEE"/><path d="M475.115 266.847c-46.859-.095-8.642-50.946-8.642-50.946l7.592-2.472c.602 5.223.9 11.072.877 17.201 0 2.253-.041 4.567-.128 6.849-.512 12.385 0 23.144.301 29.368Z" fill="#4A75CB"/><path d="M461.653 186.256s-3.383 6.177-9.821 7.904c-.327-2.635-.327-4.128-.327-4.128l5.161-4.068 4.987.292Z" fill="#ED985F"/><path d="M449.153 189.852s12.765 2.093 13.966-5.77c1.198-7.864 3.653-12.89-4.447-14.558-8.101-1.668-10.143 1.097-11.193 3.626-1.047 2.528-1.614 15.955 1.674 16.702Z" fill="#FFB27D"/><path d="M467.757 168.583c.117-.132.383-.24.978-.272 0 0-.478-.298-1.111-.314-.127-.829-.566-2.296-1.991-2.652 0 0 .769.408.867 1.29-1.648-1.697-5.181-2.932-14.964-2.158-12.894 1.019-8.643 9.291-6.975 10.277 1.671.986 5.871-1.718 8.979-1.47 3.111.247 3.703 4.75 4.76 5.367 1.054.618.636-.474 2.067-1.121 1.427-.646 1.56 1.724 1.149 3.265-.412 1.541 1.547 3.574 1.547 3.574l1.985-2.139c1.981-2.139 3.848-11.198 2.95-13.129-.08-.171-.162-.344-.241-.518Z" fill="#2C3A64"/><path d="M465.436 195.275s8.078 3.832 11.947 9.724c6.009 9.138 12.971 42.443 13.1 45.527.129 3.084-5.082 24.859-5.082 24.859s-5.284-.349-6.65-3.024c0 0 1.059-22.371.39-23.807-.67-1.439-22.033-30.01-19.632-36.108 2.402-6.096 5.927-17.171 5.927-17.171Z" fill="#699DEE"/><path d="M403.413 208.313s.44-1.739-.764-2.52c-1.206-.781-2.309-2.907-2.818-2.619-1.051.597.575 2.451.279 4.764-.105.81 1.776 2.931 3.303.375Z" fill="#FFB27D"/><path d="M44.778 390.435H586.58c.264 0 .482-.281.482-.626 0-.341-.218-.622-.482-.622H44.778c-.267 0-.484.281-.484.622 0 .345.218.626.484.626Z" fill="#283250"/><defs><clipPath id="clip0_144_10795"><path fill="#fff" transform="translate(258.249 114.224)" d="M0 0h115.011v22.164H0z"/></clipPath><filter id="filter0_d_144_10795" x="46.639" y="60.397" width="542.075" height="343.761" filterUnits="userSpaceOnUse" color-interpolation-filters="sRGB"><feFlood flood-opacity="0" result="BackgroundImageFix"/><feColorMatrix in="SourceAlpha" values="0 0 0 0 0 0 0 0 0 0 0 0 0 0 0 0 0 0 127 0" result="hardAlpha"/><feOffset dx="2" dy="2"/><feGaussianBlur stdDeviation="6"/><feComposite in2="hardAlpha" operator="out"/><feColorMatrix values="0 0 0 0 0.384314 0 0 0 0 0.705882 0 0 0 0 0.94902 0 0 0 0.4 0"/><feBlend in2="BackgroundImageFix" result="effect1_dropShadow_144_10795"/><feBlend in="SourceGraphic" in2="effect1_dropShadow_144_10795" result="shape"/></filter></defs></svg>