<svg width="300" height="170" viewBox="0 0 300 170" fill="none" xmlns="http://www.w3.org/2000/svg"><g clip-path="url(#clip0_295_819)"><path d="M0 105.064h300" stroke="#280C14" stroke-width=".455" stroke-miterlimit="10" stroke-linecap="round" stroke-linejoin="round"/><path opacity=".75" d="M183.39 150.695H35.824l70.965-14.188h147.566l-70.965 14.188Z" fill="#C7C7C7"/><path d="M246.27 133.384H111.707a2.343 2.343 0 0 1-1.656-.685l-2.436-2.436 24.613-98.45a1.913 1.913 0 0 1 1.856-1.45h134.6c.811 0 1.59.323 2.164.897l1.288 1.287c.581.582.815 1.426.616 2.224l-24.21 96.839a2.341 2.341 0 0 1-2.272 1.774Z" fill="#13356B"/><path opacity=".25" d="m244.976 130.264 1.79 1.789a.78.78 0 0 1-.552 1.332H111.707a2.343 2.343 0 0 1-1.656-.685l-2.436-2.436h137.361Z" fill="#13356B"/><path opacity=".35" d="M244.976 130.263H107.615l24.613-98.45a1.913 1.913 0 0 1 1.856-1.45h133.417a1.913 1.913 0 0 1 1.856 2.377l-24.381 97.523Z" fill="#FAFAFA"/><path d="M182.308 148.994H47.52a2.341 2.341 0 0 1-2.341-2.341v-3.902l62.436-12.487h137.361v4.324a2.34 2.34 0 0 1-1.882 2.296l-60.327 12.065c-.151.03-.305.045-.459.045Z" fill="#13356B"/><path opacity=".75" d="m134.051 37.01-21.643 86.573a.978.978 0 0 0 .949 1.216h128.645a1.56 1.56 0 0 0 1.515-1.182l21.656-86.626a.936.936 0 0 0-.908-1.164h-128.7a1.56 1.56 0 0 0-1.514 1.182Z" fill="#DEF0F8"/><path d="m263.312 37.507-21.403 85.612H114.255l21.403-85.612h127.654Zm.952-1.68H135.565a1.56 1.56 0 0 0-1.515 1.183l-21.643 86.573a.98.98 0 0 0 .95 1.217h128.645c.716 0 1.34-.488 1.514-1.183l21.657-86.626a.937.937 0 0 0-.909-1.164ZM182.54 142.75v3.902a2.342 2.342 0 0 1-2.341 2.342H47.52a2.342 2.342 0 0 1-2.341-2.342v-3.902H182.54Z" fill="#13356B" opacity=".25"/><path d="M200.959 33.173a1.304 1.304 0 0 1-1.274 1.17 1.055 1.055 0 0 1-1.068-1.17 1.304 1.304 0 0 1 1.274-1.17c.646 0 1.124.524 1.068 1.17Zm2.341.001a.87.87 0 0 1-.849.78.703.703 0 0 1-.712-.78.867.867 0 0 1 .848-.78c.432 0 .751.349.713.78Z" fill="#280C14"/><path opacity=".25" d="M182.54 142.751H45.179l62.436-12.487h137.361l-62.436 12.487Z" fill="#FAFAFA"/><path opacity=".5" d="M96.689 141.188h46.828l15.609-3.122h-46.828l-15.61 3.122Z" fill="#FAFAFA"/><path opacity=".25" d="m190.345 138.067 26.535-5.307H107.615l-26.535 5.307h109.265Z" fill="#FAFAFA"/><path d="m254.356 108.353-5.814 23.259a2.342 2.342 0 0 1-2.272 1.773h-1.294" stroke="#280C14" stroke-width=".42" stroke-miterlimit="10" stroke-linecap="round" stroke-linejoin="round"/><path d="M244.976 130.265v4.324a2.34 2.34 0 0 1-1.882 2.296l-13.727 2.746" stroke="#280C14" stroke-width=".42" stroke-miterlimit="10" stroke-linecap="round" stroke-linejoin="round"/><path d="m247.325 120.869-2.349 9.395m-31.218 6.244-31.218 6.243h-62.437m124.873-12.486-15.609 3.121m0-3.121H115.42m129.556 0 1.79 1.789a.78.78 0 0 1-.552 1.332m-63.674 9.365v3.902a2.342 2.342 0 0 1-2.341 2.342" stroke="#280C14" stroke-width=".21" stroke-miterlimit="10" stroke-linecap="round" stroke-linejoin="round"/><path d="M129.836 109.636c-.354 0-.683-.161-.901-.44a1.136 1.136 0 0 1-.208-.981l14.522-58.088a1.692 1.692 0 0 1 1.645-1.284h97.311c.355 0 .683.16.901.44.219.28.294.637.209.981l-14.522 58.087a1.695 1.695 0 0 1-1.646 1.285h-97.311Z" fill="#FAFAFA"/><path d="M242.206 49.157a.83.83 0 0 1 .804 1.03l-14.522 58.087a1.382 1.382 0 0 1-1.34 1.047h-97.311a.829.829 0 0 1-.804-1.03l14.522-58.087a1.38 1.38 0 0 1 1.34-1.047h97.311Zm0-.63h-97.311a2.01 2.01 0 0 0-1.952 1.524l-14.521 58.087c-.11.439-.014.895.265 1.252a1.45 1.45 0 0 0 1.149.561h97.311a2.01 2.01 0 0 0 1.952-1.524L243.62 50.34c.11-.439.014-.895-.265-1.252a1.448 1.448 0 0 0-1.149-.56Z" fill="#C6E5FD"/><path d="m241.886 54.681 1.124-4.494a.829.829 0 0 0-.804-1.03h-97.311a1.38 1.38 0 0 0-1.34 1.047l-1.12 4.478h99.451Z" fill="#C6E5FD"/><path d="M159.784 53.22h66.134a1.3 1.3 0 0 0 0-2.602h-66.134a1.3 1.3 0 1 0 0 2.601Z" fill="#FAFAFA"/><path d="M135.361 113.778a1.141 1.141 0 0 1-1.109-1.421l14.522-58.087a1.692 1.692 0 0 1 1.645-1.285h97.311c.355 0 .684.16.902.44.218.28.294.637.208.981l-14.521 58.087a1.694 1.694 0 0 1-1.646 1.286h-97.312v-.001Z" fill="#F2F5FA"/><path d="M247.73 53.3c.539 0 .935.506.804 1.03l-14.522 58.087a1.381 1.381 0 0 1-1.34 1.046h-97.311a.828.828 0 0 1-.804-1.029l14.522-58.088a1.38 1.38 0 0 1 1.34-1.045l97.311-.001Zm0-.63h-97.311c-.925 0-1.727.626-1.951 1.523l-14.522 58.088c-.11.438-.013.895.265 1.251.278.357.697.561 1.15.561h97.311c.924 0 1.726-.626 1.951-1.523l14.522-58.087a1.45 1.45 0 0 0-.266-1.252 1.448 1.448 0 0 0-1.149-.561Z" fill="#62B4F2"/><path d="m247.41 58.824 1.124-4.495a.829.829 0 0 0-.804-1.03h-97.311c-.634 0-1.186.432-1.34 1.047l-1.12 4.478h99.451Z" fill="#AFD4EF"/><path d="M165.308 57.363h66.134a1.3 1.3 0 0 0 0-2.601h-66.134a1.3 1.3 0 1 0 0 2.601Z" fill="#FAFAFA"/><path opacity=".75" d="M276.204 153.724h-55.065l-40.004 13.341H236.2l40.004-13.341Z" fill="#C7C7C7"/><path d="M272.821 153.724v-7.807h-49.962l-37.471 12.491v7.806h49.962l37.471-12.49Z" fill="#fff"/><path opacity=".25" d="M272.821 145.917h-49.962l-37.471 12.491h49.962l37.471-12.491Z" fill="#FAFAFA"/><path d="M218.175 147.478h49.963l4.683-1.561h-49.962l-4.684 1.561Z" fill="#280C14"/><path d="M216.975 149.04h42.996m-47.68 1.561h42.995m-47.679 1.562h42.995m-47.679 1.562h42.995m-47.68 1.56h42.996m-47.68 1.562h42.996m-46.479 3.122h40.595m-42.156 1.561h43.717m-40.594 1.561h40.594m-43.717 1.561h42.156m7.807-5.724 28.103-9.367m-26.542 10.408 29.665-9.889m-29.665 11.451 29.665-9.888m-28.104 10.927 26.543-8.847" stroke="#252525" stroke-width=".105" stroke-miterlimit="10" stroke-linecap="round" stroke-linejoin="round"/><path d="M216.614 158.408s12.491-2.342 18.735-4.684c0 0 7.716 1.156 12.491.52l-31.226 4.164Z" fill="#DEF0F8"/><path opacity=".25" d="M216.614 158.408s12.491-2.342 18.735-4.684c0 0 7.716 1.156 12.491.52l-31.226 4.164Z" fill="#F2F5FA"/><path opacity=".5" d="M235.35 158.407h-49.962v7.807h49.962v-7.807Z" fill="#DEF0F8"/><path d="m234.527 156.018-17.913 2.388s5.238-.982 10.625-2.31m15.826-1.683c1.665.051 3.351.021 4.775-.169l-9.367 1.249m9.367-1.249 2.762-.921m-33.988 5.084h-6.245" stroke="#280C14" stroke-width=".21" stroke-miterlimit="10" stroke-linecap="round" stroke-linejoin="round"/><path d="M103.847 26.26c-.149.088-.351.044-.466-.11-.126-.166-.104-.398.047-.514a51.762 51.762 0 0 1 2.88-2.097c.156-.106.379-.053.495.12.115.174.08.402-.079.509a51.857 51.857 0 0 0-2.844 2.068c-.01.01-.023.016-.033.024Zm-5.234 4.78a.352.352 0 0 1-.43-.069c-.146-.147-.159-.38-.028-.522a43.136 43.136 0 0 1 2.546-2.516c.141-.129.367-.105.502.052.134.158.128.39-.013.52a41.455 41.455 0 0 0-2.506 2.477.438.438 0 0 1-.072.057Zm-4.3 5.697a.345.345 0 0 1-.374-.02.392.392 0 0 1-.125-.513 31.399 31.399 0 0 1 2.025-3.005c.116-.153.34-.17.496-.037.157.133.19.365.074.52-.734.964-1.4 1.953-1.984 2.94a.323.323 0 0 1-.112.115Zm-2.782 6.688a.334.334 0 0 1-.28.027.4.4 0 0 1-.258-.466c.293-1.177.687-2.36 1.171-3.516a.33.33 0 0 1 .466-.16c.18.091.265.314.189.496a23.266 23.266 0 0 0-1.136 3.412.33.33 0 0 1-.152.207Zm-5.753 9.589c-.149.088-.35.044-.466-.111-.124-.167-.103-.397.049-.514a16.333 16.333 0 0 1 3.056-1.899c.175-.08.389.003.48.19.092.188.03.404-.147.486a15.76 15.76 0 0 0-2.94 1.824c-.009.009-.02.015-.032.024Zm4.942-2.215a.345.345 0 0 1-.189.045.397.397 0 0 1-.359-.39c-.016-1.25.046-2.521.184-3.777a.328.328 0 0 1 .393-.294.4.4 0 0 1 .313.43 30.127 30.127 0 0 0-.18 3.684.343.343 0 0 1-.162.302Zm-9.708 7.459a.348.348 0 0 1-.388-.03c-.163-.125-.21-.355-.102-.518a24.605 24.605 0 0 1 2.21-2.863c.13-.142.354-.14.502.004.148.145.163.379.033.521a23.918 23.918 0 0 0-2.151 2.787.314.314 0 0 1-.104.099Zm14.735-8.102a.323.323 0 0 1-.234.04 10.05 10.05 0 0 0-3.475-.058c-.192.03-.381-.11-.424-.312-.043-.201.08-.389.27-.419a10.683 10.683 0 0 1 3.711.065c.195.037.334.23.311.43a.332.332 0 0 1-.16.255Zm-17.898 14.59a.336.336 0 0 1-.308.016.397.397 0 0 1-.22-.484c.396-1.167.867-2.31 1.397-3.4a.332.332 0 0 1 .474-.136c.177.103.25.329.163.505a28.904 28.904 0 0 0-1.364 3.32.325.325 0 0 1-.142.18ZM91.8 58.274a.328.328 0 0 1-.09.035c-.187.047-.386-.078-.443-.277a27.896 27.896 0 0 1-.802-3.771c-.029-.204.105-.38.298-.395a.39.39 0 0 1 .403.34 27.09 27.09 0 0 0 .78 3.663.35.35 0 0 1-.146.404Zm10.379-4.46a.354.354 0 0 1-.429-.065 14.993 14.993 0 0 0-2.91-2.264.396.396 0 0 1-.16-.505c.088-.176.301-.233.477-.13a15.721 15.721 0 0 1 3.064 2.383c.146.145.16.38.029.521a.265.265 0 0 1-.071.06ZM76.418 71.966a.336.336 0 0 1-.213.044.4.4 0 0 1-.335-.415c.07-1.258.23-2.515.475-3.733a.327.327 0 0 1 .42-.254.4.4 0 0 1 .276.456 25.372 25.372 0 0 0-.462 3.626.34.34 0 0 1-.161.276Zm18.666-6.811c-.15.088-.351.043-.467-.112A17.871 17.871 0 0 1 93.6 63.52a20.934 20.934 0 0 1-.976-1.847c-.09-.189-.016-.403.156-.482.177-.078.389.011.477.2.29.618.606 1.216.939 1.774.307.514.632 1.002.968 1.451.124.167.103.397-.049.514a5.905 5.905 0 0 0-.032.024Zm10.953-4.83a.325.325 0 0 1-.103.04c-.19.037-.384-.098-.432-.298-.268-1.1-.737-2.215-1.391-3.312l-.053-.086c-.107-.179-.062-.403.103-.502l.001-.001c.164-.098.382-.033.49.143l.054.091c.696 1.167 1.195 2.357 1.482 3.537a.348.348 0 0 1-.151.388Zm-29.02 19.138a.326.326 0 0 1-.117.043c-.192.028-.38-.111-.423-.313a31.329 31.329 0 0 1-.552-3.794c-.016-.203.129-.371.324-.374a.393.393 0 0 1 .383.364c.1 1.212.28 2.456.538 3.7a.348.348 0 0 1-.154.374Zm24.235-10.695a.33.33 0 0 1-.112.042c-1.165.196-2.453-.152-3.724-1.006a.391.391 0 0 1-.131-.512c.097-.169.313-.213.484-.1 1.113.748 2.222 1.055 3.207.888.192-.032.381.106.428.306a.351.351 0 0 1-.152.382Zm3.076-1.666a.356.356 0 0 1-.448-.089c-.136-.158-.132-.39.009-.519a5.6 5.6 0 0 0 1.695-2.887.326.326 0 0 1 .429-.238c.19.061.308.268.261.463a6.26 6.26 0 0 1-1.893 3.23.307.307 0 0 1-.053.04ZM79.346 86.725l-.045.022c-.178.071-.389-.025-.471-.216a41.54 41.54 0 0 1-1.363-3.615c-.063-.196.035-.4.22-.45.185-.053.388.065.451.262a40.78 40.78 0 0 0 1.336 3.543.36.36 0 0 1-.128.454Zm3.58 6.782c-.163.095-.379.034-.487-.14a53.233 53.233 0 0 1-1.934-3.348c-.097-.184-.043-.403.131-.493.17-.089.387-.011.485.173a52.832 52.832 0 0 0 1.904 3.298c.11.177.07.403-.093.505l-.007.005Zm4.469 6.228a.356.356 0 0 1-.456-.096 63.81 63.81 0 0 1-2.346-3.065c-.122-.168-.095-.397.059-.511.154-.114.377-.07.498.099a63.179 63.179 0 0 0 2.316 3.023c.131.162.12.393-.027.518a.316.316 0 0 1-.044.032Zm23.852-78.274c-.009.005-.015.01-.023.013-.006.002-.576.283-1.504.818-.166.095-.385.027-.49-.154-.104-.177-.055-.4.108-.495l.004-.003c.949-.547 1.518-.826 1.541-.838.173-.084.387-.002.482.184.089.176.036.383-.118.475Z" fill="#21111D"/><path d="m117.117 21.98.435-3.094s7.755-5.96 7.834-6.094l2.971-5.03-5.592 2.877-7.986 6.632 2.338 4.71Z" fill="#000"/><path d="m109.988 13.78 18.369-6.019-13.578 9.51-4.791-3.492Zm7.565 5.104 5.068 3.737 5.737-14.861-10.805 11.124Z" fill="#0F67AD"/><path d="m292.888 29.795.074.185c.279.697.528 1.389.748 2.088l.06.19-.38.121-.06-.19a29.336 29.336 0 0 0-.74-2.061l-.073-.185.371-.148Zm1.404 6.653a22.75 22.75 0 0 0-.387-2.15l-.043-.195.388-.089.046.195c.167.737.299 1.473.393 2.188l.024.198-.397.05-.024-.197Zm-3.323-10.646.096.175c.359.656.699 1.32 1.008 1.973l.086.18-.36.172-.086-.18a39.229 39.229 0 0 0-.999-1.953l-.096-.175.351-.192Zm-2.344-3.757.113.165a44.71 44.71 0 0 1 1.213 1.854l.105.17-.339.21-.106-.17a43.906 43.906 0 0 0-1.2-1.837l-.115-.165.329-.227Zm5.731 18.753a17.14 17.14 0 0 0 .096-2.175l-.003-.2.399-.007.004.2c.014.754-.019 1.502-.099 2.224l-.02.2-.399-.044.022-.198Zm2.504 9.489.085.182c.302.657.574 1.358.803 2.077l.061.19-.38.122-.061-.19a17.925 17.925 0 0 0-.786-2.032l-.085-.183.363-.166Zm1.382 6.65a21.826 21.826 0 0 0-.325-2.158l-.04-.196.392-.08.038.195c.147.718.258 1.458.332 2.199l.021.2-.399.038-.019-.198Zm-3.863-10.346.136.147c.485.529.945 1.126 1.361 1.773l.109.168-.337.216-.107-.167a12.903 12.903 0 0 0-1.319-1.719l-.136-.148.293-.27Zm-.965-1.539c.225-.683.42-1.39.578-2.105l.045-.194.389.087-.043.195a22.57 22.57 0 0 1-.589 2.142l-.064.19-.379-.126.063-.189Zm4.83 16.247c.07-.722.107-1.456.105-2.182l.001-.199h.399l.001.2c.001.738-.037 1.485-.107 2.22l-.02.198-.398-.039.019-.198Zm-7.579-17.173.189.07c.686.256 1.352.61 1.982 1.055l.163.115-.227.328-.164-.116a8.312 8.312 0 0 0-1.894-1.007l-.187-.07.138-.375Zm6.665 21.424c.234-.688.431-1.393.584-2.097l.041-.196.39.084-.043.195c-.155.72-.354 1.441-.595 2.143l-.065.189-.378-.13.066-.188Zm-5.712-16.53a19.24 19.24 0 0 0 1.005-1.935l.083-.182.364.165-.083.182c-.307.68-.65 1.346-1.025 1.974l-.101.172-.344-.204.101-.172Zm3.847 20.464c.384-.626.733-1.271 1.042-1.916l.085-.181.361.172-.087.18c-.312.658-.67 1.315-1.06 1.954l-.105.17-.341-.21.105-.17ZM286.213 43.9l.197-.036c.291-.054.584-.095.871-.124a8.18 8.18 0 0 1 1.371-.022l.199.014-.027.4-.199-.015a7.83 7.83 0 0 0-1.304.02c-.277.028-.559.068-.839.12l-.196.036-.073-.393Zm2.746 8.555c.503-.495.986-1.044 1.439-1.632l.123-.157.315.243-.12.159a16.808 16.808 0 0 1-1.475 1.672l-.142.14-.28-.284.14-.14Zm3.884 20.517c.494-.55.963-1.117 1.392-1.686l.121-.159.319.241-.121.16a26.204 26.204 0 0 1-1.416 1.71l-.133.149-.297-.268.135-.147Zm-10.552-27.4c.605-.42 1.269-.78 1.97-1.07l.184-.076.154.37-.186.076c-.676.278-1.313.625-1.895 1.028l-.166.113-.226-.328.165-.113Zm3.134 9.338a9.764 9.764 0 0 0 1.877-1.056l.164-.115.23.325-.162.117c-.651.46-1.309.829-1.957 1.098l-.185.076-.152-.368.185-.077Zm4.248 21.078c.573-.472 1.125-.96 1.64-1.451l.147-.137.274.29-.146.136c-.523.497-1.081.992-1.66 1.47l-.154.128-.255-.309.154-.127Zm-10.259-27.007a6.674 6.674 0 0 1 1.194-1.919l.129-.15.302.261-.132.15a6.356 6.356 0 0 0-1.123 1.805l-.075.186-.369-.147.074-.186Zm1.837 5.724.161.12c.524.394 1.181.585 1.949.565l.2-.005.011.4-.2.005c-.863.021-1.602-.196-2.2-.645l-.16-.12.239-.32Zm-2.201-3.48-.015-.2.399-.029.015.2c.026.385.106.772.236 1.148l.002.002c.098.286.227.572.385.85l.098.174-.348.197-.098-.174a5.643 5.643 0 0 1-.416-.917h.001a4.803 4.803 0 0 1-.259-1.252Zm7.075 27.337c.62-.397 1.23-.812 1.813-1.234l.163-.117.233.323-.162.117c-.588.427-1.205.846-1.832 1.247l-.168.107-.215-.336.168-.108Zm-3.818 2.163a41.83 41.83 0 0 0 1.937-1.03l.176-.099.195.347-.174.099c-.643.364-1.3.714-1.956 1.04l-.178.09-.18-.359.18-.088Z" fill="#213748"/><path d="m285.666 17.623-.273-3.031s-7.404-6.708-7.474-6.846l-2.699-5.212 5.411 3.469 7.601 7.383-2.566 4.237Z" fill="#020101"/><path d="m293.172 10.63-17.95-8.095 13.012 10.852 4.938-2.758Z" fill="#0F67AD"/><path d="m285.394 14.59-5.228 2.958-4.944-15.015 10.172 12.056ZM224.12 59.91a7.397 7.397 0 0 1 12.059-8.566 7.396 7.396 0 0 1-12.059 8.567Zm14.21 2.928a10.842 10.842 0 0 0 1.87-2.98l2.883-.041.328-1.944.331-1.944-2.709-.988a10.86 10.86 0 0 0-.785-3.429l2.009-2.068-1.143-1.607-1.14-1.607-2.615 1.216a10.842 10.842 0 0 0-2.979-1.87l-.041-2.883-1.944-.329-1.945-.329-.987 2.709a10.847 10.847 0 0 0-3.429.785l-2.068-2.01-1.606 1.142-1.609 1.142 1.218 2.614a10.827 10.827 0 0 0-1.871 2.98l-2.884.041-.328 1.944-.329 1.943 2.708.989c.073 1.162.332 2.32.784 3.429l-2.008 2.068 1.142 1.607 1.142 1.607 2.615-1.217c.897.793 1.906 1.42 2.977 1.87l.042 2.883 1.945.329 1.943.33.989-2.71a10.797 10.797 0 0 0 3.427-.784l2.07 2.009 1.606-1.142 1.608-1.141-1.217-2.614Z" fill="#0F67AD"/><path d="M237.841 66.646a.115.115 0 0 1 .033-.146l1.531-1.087-1.208-2.596.049-.055a10.708 10.708 0 0 0 1.851-2.948l.028-.068 2.863-.042.626-3.702-2.688-.982-.005-.073a10.726 10.726 0 0 0-.777-3.393.113.113 0 0 1 .062-.147.112.112 0 0 1 .146.062c.444 1.084.709 2.224.788 3.39l2.728.996-.69 4.072-2.902.042a10.913 10.913 0 0 1-1.813 2.887l1.225 2.632-1.683 1.197a.112.112 0 0 1-.156-.027.044.044 0 0 1-.008-.012Zm-12.074-16.995a.112.112 0 0 1 .034-.146c3.374-2.397 8.071-1.602 10.469 1.773a7.46 7.46 0 0 1 1.282 5.602 7.46 7.46 0 0 1-3.054 4.867.112.112 0 1 1-.13-.183 7.232 7.232 0 0 0 2.962-4.722 7.232 7.232 0 0 0-1.243-5.434c-2.326-3.274-6.882-4.045-10.156-1.72a.113.113 0 0 1-.157-.026l-.007-.011Zm-5.768 1.798a.115.115 0 0 1-.005-.097 10.925 10.925 0 0 1 1.841-2.955l-1.225-2.633 3.367-2.392 2.082 2.024a10.952 10.952 0 0 1 3.323-.76l.996-2.729 4.071.69.043 2.903c1.052.45 2.022 1.06 2.886 1.812l2.633-1.225 1.196 1.684a.11.11 0 0 1-.026.156.114.114 0 0 1-.158-.026l-1.086-1.53-2.596 1.207-.057-.049a10.687 10.687 0 0 0-2.948-1.85l-.067-.029-.042-2.862-3.702-.627-.981 2.69-.074.004a10.719 10.719 0 0 0-3.394.777l-.067.028-2.055-1.996-3.061 2.175 1.208 2.596-.049.055a10.73 10.73 0 0 0-1.85 2.949.113.113 0 0 1-.147.06.117.117 0 0 1-.056-.05Zm-3.569 3.949.346-2.036a.112.112 0 1 1 .221.038l-.313 1.85 2.689.982.004.074c.074 1.167.335 2.308.778 3.393a.113.113 0 0 1-.061.147.114.114 0 0 1-.148-.062 10.958 10.958 0 0 1-.788-3.39l-2.728-.996Zm2.654 8.073a.113.113 0 0 1 .191-.12l1.087 1.531 2.597-1.208.055.05a10.68 10.68 0 0 0 2.948 1.85l.067.028.042 2.864 3.702.625.981-2.688.074-.005a10.729 10.729 0 0 0 3.395-.777.113.113 0 0 1 .146.061.112.112 0 0 1-.063.147 10.908 10.908 0 0 1-3.39.788l-.995 2.728-4.072-.69-.041-2.903a10.915 10.915 0 0 1-2.888-1.812l-2.633 1.225-1.196-1.683-.007-.011Z" fill="#0F67AD"/><g filter="url(#filter0_d_295_819)"><path d="M213.296 35.747c-6.62.78-12.619-3.954-13.398-10.573-.781-6.62 3.952-12.618 10.57-13.398 6.621-.781 12.619 3.952 13.4 10.572.781 6.62-3.953 12.618-10.572 13.4Zm16.214-9.552a17.696 17.696 0 0 0-.142-5.737l3.885-2.655-1.305-2.94-1.303-2.941-4.576 1.096a17.706 17.706 0 0 0-4.158-3.957l.868-4.624-3.001-1.157-3-1.157-2.461 4.011a17.649 17.649 0 0 0-5.738.141l-2.655-3.884-2.941 1.304L200.042 5l1.098 4.575a17.672 17.672 0 0 0-3.957 4.157l-4.624-.87-1.158 3.003-1.156 3.002 4.01 2.46a17.677 17.677 0 0 0 .142 5.738l-3.885 2.654 1.305 2.941 1.304 2.941 4.574-1.097a17.678 17.678 0 0 0 4.159 3.956l-.869 4.625 3.001 1.157 3.001 1.157 2.461-4.01a17.72 17.72 0 0 0 5.737-.142l2.656 3.884 2.94-1.304 2.941-1.304-1.096-4.575a17.718 17.718 0 0 0 3.956-4.159l4.625.87 1.156-3.001 1.157-3.002-4.01-2.46Z" fill="#0F67AD"/></g><path d="m221.91 9.16-.018-.001a.098.098 0 0 1-.079-.116l.853-4.544-5.848-2.254-2.451 3.995-.064-.007a17.55 17.55 0 0 0-5.706.14.1.1 0 0 1-.117-.08.1.1 0 0 1 .079-.115 17.774 17.774 0 0 1 5.707-.152L216.736 2l6.156 2.374-.884 4.705a.1.1 0 0 1-.098.081Zm-22.014 16.113a.099.099 0 0 1-.098-.087c-.786-6.663 3.996-12.723 10.659-13.51a12.09 12.09 0 0 1 8.961 2.533 12.082 12.082 0 0 1 4.547 8.128.099.099 0 0 1-.086.11.101.101 0 0 1-.111-.087 11.882 11.882 0 0 0-4.473-7.996 11.888 11.888 0 0 0-8.815-2.49c-6.554.773-11.259 6.734-10.485 13.289a.099.099 0 0 1-.087.11h-.012Zm-8.08 7.486a.1.1 0 0 1-.091-.06l-1.337-3.015 3.898-2.665a17.77 17.77 0 0 1-.138-5.642l-4.028-2.469 2.375-6.158 4.642.872a17.788 17.788 0 0 1 3.891-4.088l-1.102-4.591 3.017-1.338c.05-.023.109 0 .131.05.023.05 0 .109-.052.13l-2.864 1.272 1.093 4.558-.053.038a17.567 17.567 0 0 0-3.934 4.136l-.036.052-4.607-.864-2.255 5.848 3.996 2.45-.009.065a17.541 17.541 0 0 0 .141 5.706l.011.064-3.869 2.644 1.271 2.865a.1.1 0 0 1-.051.132.111.111 0 0 1-.04.008Zm28.964 11.167a.101.101 0 0 1-.091-.06.099.099 0 0 1 .052-.13l2.864-1.27-1.093-4.559.053-.04a17.546 17.546 0 0 0 3.934-4.133l.036-.054 4.607.866 2.256-5.849-3.996-2.45.008-.066a17.533 17.533 0 0 0-.14-5.705l-.013-.064 3.87-2.645-2.574-5.805a.099.099 0 0 1 .05-.13.1.1 0 0 1 .132.05l2.641 5.957-3.898 2.664a17.8 17.8 0 0 1 .138 5.642l4.027 2.47-2.374 6.156-4.642-.872a17.801 17.801 0 0 1-3.89 4.088l1.1 4.593-3.016 1.337a.102.102 0 0 1-.041.009Zm-13.751 1.596-6.158-2.374.873-4.642a17.74 17.74 0 0 1-4.128-3.942.102.102 0 0 1 .019-.14.1.1 0 0 1 .14.02 17.586 17.586 0 0 0 4.134 3.935l.054.036-.866 4.607 5.85 2.255 2.449-3.996.064.009c1.904.264 3.823.217 5.706-.14a.1.1 0 0 1 .117.078.1.1 0 0 1-.08.116 17.756 17.756 0 0 1-5.706.151l-2.468 4.027Z" fill="#000"/><g filter="url(#filter1_d_295_819)"><path d="M163.746 48.16s2.586-19.1 25.002-25.6c22.416-6.499 41.25 13.53 38.067 30.773-3.184 17.242-12.601 28.516-16.446 37.402-3.847 8.888-6.633 27.854-19.366 28.252-12.733.398-16.977-8.488-17.243-15.253-.266-6.764-7.295-10.743-5.172-17.773 2.122-7.03 6.101-7.295 5.969-12.468-.132-5.173-12.204-6.83-10.811-25.333Z" fill="#FFCAB2"/></g><path d="M176.148 43.784s-4.577 12.136 2.984 18.304c7.561 6.167 13.729 5.39 14.723 8.067.994 2.676-4.178 3.473-8.058 3.671-3.88.2-6.665-.596-7.261 2.984-.598 3.581 6.295 3.183 5.4 7.958-.896 4.775-7.094 12.598-3.279 15.387 6.897 5.04 7.524-9.803 11.649-14.317 5.462-5.977 14.348-1.832 15.94-7.303 1.591-5.471-.166-15.353-5.04-18.039-4.875-2.686-24.074 4.178-27.058-16.712Z" fill="#EFBBA2"/><path d="M186.87 35.426s15.651-7.162 24.67 2.918c9.02 10.08 7.162 27.324 1.724 34.75 0 0 .134-6.896-1.06-14.324-1.195-7.428-6.599-22.313-21.886-21.089-6.631.531-8.621.132-3.448-2.255Z" fill="#EFBBA2"/><path d="m210.607 90.84-.478-.207c1.171-2.703 2.81-5.551 4.709-8.85 4.237-7.358 9.509-16.516 11.722-28.497 2.276-12.336-6.757-25.922-20.139-30.285l.161-.495c13.62 4.443 22.811 18.293 20.489 30.874-2.228 12.069-7.527 21.27-11.783 28.663-1.89 3.284-3.524 6.121-4.681 8.797Zm-37.105 12.905c-.113-2.873-1.496-5.273-2.833-7.593-1.752-3.039-3.562-6.18-2.329-10.265 1.019-3.377 2.491-5.253 3.675-6.762 1.313-1.674 2.35-2.996 2.283-5.624-.042-1.629-1.401-2.941-3.122-4.603-1.747-1.69-3.921-3.791-5.521-7.007-1.871-3.763-2.58-8.261-2.167-13.75l.002-.016c.006-.049.705-4.971 4.215-10.598l.441.276c-3.387 5.428-4.11 10.174-4.14 10.385-.914 12.173 3.967 16.891 7.532 20.335 1.805 1.746 3.232 3.124 3.279 4.965.072 2.815-1.071 4.272-2.393 5.958-1.217 1.551-2.596 3.308-3.587 6.59-1.169 3.87.508 6.778 2.281 9.857 1.369 2.375 2.785 4.831 2.903 7.832l-.519.02Z" fill="#000"/><path d="m217.065 65.05-.506-.12c2.551-10.6.272-17.86-2.088-22.085-2.504-4.482-5.626-6.592-5.788-6.699-7.77-4.315-15.792-2.877-21.152-.912-5.826 2.137-9.854 5.337-9.893 5.369l-.325-.405c.04-.033 4.133-3.285 10.038-5.451 3.474-1.273 6.889-1.93 10.15-1.952 4.087-.028 7.932.95 11.443 2.902l.014.008c.134.087 3.328 2.179 5.952 6.86 1.538 2.745 2.552 5.81 3.013 9.112.574 4.12.286 8.62-.858 13.374Zm-33.076 36.272c-1.819-.248-3.053-.874-3.775-1.914-.79-1.138-.939-2.734-.457-4.878.396-1.758 1.253-3.258 2.08-4.709 1.152-2.017 2.24-3.923 1.843-6.203-.36-2.065-1.575-2.558-2.75-3.035-1.014-.411-2.062-.837-2.404-2.234-.724-2.967 1.596-4.31 1.62-4.324l.255.452c-.081.047-1.998 1.172-1.37 3.75.278 1.138 1.119 1.48 2.094 1.875 1.246.505 2.657 1.077 3.067 3.427.43 2.465-.704 4.449-1.903 6.55-.81 1.418-1.646 2.883-2.025 4.565-.449 1.995-.326 3.456.378 4.468.634.914 1.751 1.468 3.417 1.695l-.07.515Z" fill="#000"/><path d="M211.367 56.023c-1.257-8.39-8.963-14.826-9.043-14.89l.331-.4c.08.065 7.94 6.628 9.226 15.213l-.514.077Zm-17.19 58.817-.243-.46c2.45-1.289 6.709-6.127 6.752-6.175l.389.342c-.177.202-4.365 4.96-6.898 6.293Zm0-3.117-.243-.459c2.45-1.29 6.709-6.128 6.752-6.177l.39.343c-.178.202-4.366 4.959-6.899 6.293Z" fill="#000"/><path d="M189.046 105.154c-8.949 8.791-23.33 8.663-32.121-.287-8.791-8.948-8.661-23.33.287-32.12 8.951-8.79 23.331-8.662 32.122.287 8.79 8.949 8.661 23.33-.288 32.12Z" fill="#fff"/><path d="M162.368 83.312h-2.099c-.769 0-1.392.623-1.392 1.391v8.702a1.39 1.39 0 0 0 1.392 1.391h2.109c.343 0 .674.127.93.357l9.094 8.17c.895.805 2.322.169 2.322-1.035V75.615c0-1.212-1.442-1.844-2.335-1.024l-9.078 8.353a1.395 1.395 0 0 1-.943.368Zm15.906 13.294a.587.587 0 0 1-.399-1.018c2.305-2.13 3.445-4.386 3.39-6.71-.048-1.957-.951-3.627-1.699-4.683-.829-1.17-1.661-1.872-1.669-1.879a.588.588 0 0 1 .752-.901c.038.031.937.786 1.852 2.069 1.221 1.712 1.891 3.563 1.937 5.356.069 2.678-1.199 5.24-3.767 7.61a.578.578 0 0 1-.397.156Z" fill="#0F67AD"/><path d="M180.896 101.191a.586.586 0 0 1-.399-1.018c3.884-3.589 5.805-7.408 5.707-11.352-.082-3.326-1.613-6.154-2.882-7.94-1.393-1.96-2.789-3.137-2.803-3.148a.587.587 0 0 1 .752-.903c.061.051 1.506 1.265 2.986 3.34a18.21 18.21 0 0 1 2.085 3.764c.647 1.608.995 3.24 1.036 4.849.109 4.3-1.937 8.422-6.084 12.253a.586.586 0 0 1-.398.155Z" fill="#0F67AD"/><path d="M173.123 66.55a22.247 22.247 0 0 0-15.692 6.42c-8.812 8.655-8.939 22.867-.283 31.678a22.25 22.25 0 0 0 15.781 6.703l.206.001a22.25 22.25 0 0 0 15.693-6.421c8.811-8.655 8.938-22.866.283-31.678a22.252 22.252 0 0 0-15.782-6.703h-.206Zm.012 45.427-.212-.001a22.873 22.873 0 0 1-16.22-6.89 22.873 22.873 0 0 1-6.598-16.34 22.872 22.872 0 0 1 6.888-16.222 22.888 22.888 0 0 1 16.342-6.598 22.876 22.876 0 0 1 16.221 6.89 22.873 22.873 0 0 1 6.598 16.34 22.877 22.877 0 0 1-6.889 16.221 22.873 22.873 0 0 1-16.13 6.6Z" fill="#000"/><path d="M151.338 111.074a2.606 2.606 0 0 1 0-3.686l38.777-38.778a2.607 2.607 0 1 1 3.686 3.687l-38.776 38.777a2.606 2.606 0 0 1-3.687 0Z" fill="#C6E5FD"/><path d="M153.181 112.151a2.898 2.898 0 0 1-2.065-.855 2.923 2.923 0 0 1 0-4.127l8.288-8.288.442.442-8.288 8.287a2.297 2.297 0 0 0 1.623 3.918 2.28 2.28 0 0 0 1.622-.673l38.776-38.777c.434-.433.673-1.01.673-1.622 0-.613-.239-1.19-.673-1.623a2.277 2.277 0 0 0-1.622-.672c-.612 0-1.189.239-1.621.672l-6.625 6.624-.443-.44 6.625-6.626a2.903 2.903 0 0 1 2.064-.854c.78 0 1.513.304 2.065.854.551.552.854 1.285.854 2.065a2.9 2.9 0 0 1-.854 2.064l-38.777 38.776a2.898 2.898 0 0 1-2.064.855Z" fill="#000"/><path d="M59.416 72.353h-8.29V78.4h8.29v-6.048Zm-35.94-13.98-1.155-3.11 5.68-2.186a15.929 15.929 0 0 1 4.375-1.005c1.83-.153 3.673.011 5.449.486l2.986.8a16.49 16.49 0 0 1 1.714.567l3.458 1.367-1.152 3.143 13.143 4.814.494-1.345A8.69 8.69 0 0 0 53.3 50.76l-4.99-1.827-5.368-1.597a30.96 30.96 0 0 0-3.597-.841l-.292-.051a30.945 30.945 0 0 0-14.488.976l-4.656 1.334-.008-.026-5.054 1.882a8.828 8.828 0 0 0-5.194 11.345l.508 1.363 13.319-4.96-.004.015Z" fill="#0F67AD"/><path d="m24.032 60.257.145.41a2.004 2.004 0 0 1-1.224 2.554l-9.446 3.327a2.004 2.004 0 0 1-2.554-1.224l-.145-.41 13.22-4.656.004-.001Zm33.252 4.862-.081.223a2.196 2.196 0 0 1-2.818 1.307l-9.033-3.31a2.196 2.196 0 0 1-1.307-2.817l.082-.223 13.16 4.821-.003-.001ZM17.29 72.175H9v6.049h8.29v-6.05Zm10.332 0h-8.29v6.049h8.29v-6.05Zm10.598 0h-8.289v6.049h8.29v-6.05Zm10.6 0h-8.29v6.049h8.29v-6.05ZM17.29 89.83H9v6.049h8.29V89.83Zm36.625 8.74H14.029v6.048h39.886v-6.049Zm-26.092-8.74h-8.29v6.049h8.29V89.83Zm10.529 0h-8.289v6.049h8.29V89.83Zm10.534 0h-8.29v6.049h8.29V89.83Zm10.53 0h-8.29v6.049h8.29V89.83Zm-37.098-8.738H14.03v6.049h8.29v-6.05Zm10.534 0h-8.29v6.049h8.29v-6.05Zm10.53 0h-8.29v6.049h8.29v-6.05Zm10.533 0h-8.29v6.049h8.29v-6.05Z" fill="#0F67AD"/></g><defs><filter id="filter0_d_295_819" x="188.245" y=".123" width="51.276" height="51.276" filterUnits="userSpaceOnUse" color-interpolation-filters="sRGB"><feFlood flood-opacity="0" result="BackgroundImageFix"/><feColorMatrix in="SourceAlpha" values="0 0 0 0 0 0 0 0 0 0 0 0 0 0 0 0 0 0 127 0" result="hardAlpha"/><feOffset dx="2" dy="2"/><feGaussianBlur stdDeviation="2"/><feComposite in2="hardAlpha" operator="out"/><feColorMatrix values="0 0 0 0 0 0 0 0 0 0 0 0 0 0 0 0 0 0 0.25 0"/><feBlend in2="BackgroundImageFix" result="effect1_dropShadow_295_819"/><feBlend in="SourceGraphic" in2="effect1_dropShadow_295_819" result="shape"/></filter><filter id="filter1_d_295_819" x="159.634" y="21.306" width="71.533" height="105.694" filterUnits="userSpaceOnUse" color-interpolation-filters="sRGB"><feFlood flood-opacity="0" result="BackgroundImageFix"/><feColorMatrix in="SourceAlpha" values="0 0 0 0 0 0 0 0 0 0 0 0 0 0 0 0 0 0 127 0" result="hardAlpha"/><feOffset dy="4"/><feGaussianBlur stdDeviation="2"/><feComposite in2="hardAlpha" operator="out"/><feColorMatrix values="0 0 0 0 0 0 0 0 0 0 0 0 0 0 0 0 0 0 0.25 0"/><feBlend in2="BackgroundImageFix" result="effect1_dropShadow_295_819"/><feBlend in="SourceGraphic" in2="effect1_dropShadow_295_819" result="shape"/></filter><clipPath id="clip0_295_819"><path fill="#fff" transform="translate(0 1)" d="M0 0h300v169H0z"/></clipPath></defs></svg>