<svg width="192" height="38" viewBox="0 0 192 38" fill="none" xmlns="http://www.w3.org/2000/svg"><g clip-path="url(#clip0_338_371)"><path d="M18.11.5A17.85 17.85 0 0 0 8.04 3.609a18.424 18.424 0 0 0-6.682 8.301A18.869 18.869 0 0 0 .319 22.603a18.629 18.629 0 0 0 4.956 9.48 18.005 18.005 0 0 0 9.278 5.068c3.516.714 7.16.348 10.471-1.053a18.205 18.205 0 0 0 8.134-6.817 18.785 18.785 0 0 0 3.051-10.284c0-4.904-1.906-9.606-5.3-13.075C27.515 2.454 22.912.504 18.111.5Zm11.72 23.284h-7.032v7.174h-9.375v-7.174H6.398v-9.575h7.025V7.035h9.375v7.174h7.032v9.575ZM22.384 7.446h-8.56v7.174H6.8v8.74h7.025v7.195h8.559V23.36h7.05v-8.74h-7.05V7.446Zm6.583 7.63v7.84H21.95v7.168h-7.67v-7.168H7.241v-7.84h7.038v-7.18h7.67v7.18h7.018Z" fill="#62B4F2"/><path d="M42.938 7.257h18.434v3.107H53.86v19.922h-3.45V10.364h-7.472V7.257Zm28.409 5.951a5.624 5.624 0 0 1 2.257.334 5.714 5.714 0 0 1 1.95 1.205c.53.582.938 1.268 1.2 2.015.26.748.37 1.543.321 2.336v11.188h-3.167V19.528c0-2.326-1.15-3.49-3.45-3.49a3.97 3.97 0 0 0-1.55.345c-.489.218-.93.533-1.3.926a4.82 4.82 0 0 0-.997 1.662 4.896 4.896 0 0 0-.267 1.928v9.414h-3.14V7.257h3.166v8.64a5.873 5.873 0 0 1 2.15-2 5.728 5.728 0 0 1 2.827-.69ZM95.41 22.07v.94H83.09a5.933 5.933 0 0 0 1.429 3.712c.434.429.951.76 1.518.975.566.214 1.17.306 1.773.269 2.068 0 3.42-.928 4.056-2.784h3.193a7.188 7.188 0 0 1-2.58 4.035 7.527 7.527 0 0 1-4.734 1.472 7.206 7.206 0 0 1-3.091-.563 7.341 7.341 0 0 1-2.578-1.83 9.122 9.122 0 0 1-2.153-6.34 9.136 9.136 0 0 1 2.153-6.341 7.245 7.245 0 0 1 2.547-1.827 7.11 7.11 0 0 1 3.062-.567 6.972 6.972 0 0 1 3.128.58 7.111 7.111 0 0 1 2.567 1.915 9.655 9.655 0 0 1 2.028 6.353Zm-7.757-6.146a4.198 4.198 0 0 0-3.061 1.17 5.555 5.555 0 0 0-1.468 3.362h9.046a5.475 5.475 0 0 0-1.409-3.281 4.115 4.115 0 0 0-1.424-.962 4.044 4.044 0 0 0-1.684-.289Zm18.711-2.582a9.03 9.03 0 0 1 .922 0v3.073h-.79a5.36 5.36 0 0 0-3.793 1.257 4.585 4.585 0 0 0-1.038 1.632 4.653 4.653 0 0 0-.278 1.925v9.057h-3.16V13.598h3.041v2.978a5.351 5.351 0 0 1 2.053-2.43 5.184 5.184 0 0 1 3.043-.804Zm16.217 14.456h.889v2.488c-.515.07-1.034.104-1.554.1a3.692 3.692 0 0 1-2.265-.571 2.531 2.531 0 0 1-.633-.802 2.58 2.58 0 0 1-.269-.993c-1.101 1.77-2.875 2.667-5.319 2.69a6.444 6.444 0 0 1-4.26-1.346 4.429 4.429 0 0 1-1.204-1.63 4.515 4.515 0 0 1-.363-2.007c0-3.021 2.048-4.747 6.143-5.177l2.409-.256a3.498 3.498 0 0 0 1.85-.672 1.772 1.772 0 0 0 .586-1.439 2.123 2.123 0 0 0-.148-1.006 2.085 2.085 0 0 0-.596-.816 4.485 4.485 0 0 0-2.581-.565 4.639 4.639 0 0 0-2.817.672 3.106 3.106 0 0 0-.737 1.066 3.176 3.176 0 0 0-.244 1.281h-3.167c.219-3.734 2.524-5.603 6.913-5.608 4.306 0 6.461 1.641 6.465 4.922v8.828c.02.558.309.84.902.84Zm-8.684.356a4.906 4.906 0 0 0 3.358-1.17 4.096 4.096 0 0 0 1.027-1.493c.228-.57.327-1.186.289-1.801v-1.748a3.8 3.8 0 0 1-2.027.672l-2.278.262a5.066 5.066 0 0 0-2.634.888 2.27 2.27 0 0 0-.611.832 2.315 2.315 0 0 0-.185 1.023c-.018.35.043.7.177 1.023.135.323.34.61.6.84a3.397 3.397 0 0 0 2.284.672Z" fill="#252525"/><path d="M125.621 7.257h9.915c2.509 0 4.47.673 5.873 2.017a7.175 7.175 0 0 1 1.63 2.509c.363.945.526 1.958.477 2.971a7.275 7.275 0 0 1-.481 2.958 7.149 7.149 0 0 1-1.626 2.495c-1.403 1.345-3.364 2.017-5.873 2.017h-5.642v8.068h-4.273V7.257Zm4.273 11.222h5.451a3.993 3.993 0 0 0 2.864-.948 3.678 3.678 0 0 0 .994-2.77 3.727 3.727 0 0 0-.209-1.496 3.663 3.663 0 0 0-.785-1.281c-.79-.7-1.82-1.05-2.864-.975h-5.451v7.47Zm29.675 11.806h-3.989a6.122 6.122 0 0 1-.442-2.017c-1.097 1.619-2.853 2.428-5.267 2.428a6.518 6.518 0 0 1-4.285-1.345 4.493 4.493 0 0 1-1.229-1.652 4.583 4.583 0 0 1-.371-2.04c0-3.038 2.089-4.773 6.267-5.203l2.469-.229a3.658 3.658 0 0 0 1.778-.598 1.57 1.57 0 0 0 .422-.59 1.62 1.62 0 0 0 .118-.722 1.864 1.864 0 0 0-.137-.867 1.802 1.802 0 0 0-.522-.7c-.7-.394-1.5-.567-2.297-.497a4.06 4.06 0 0 0-2.502.599 2.725 2.725 0 0 0-.656.929 2.785 2.785 0 0 0-.226 1.121h-3.951c.237-3.792 2.687-5.69 7.348-5.695 4.542 0 6.812 1.672 6.807 5.016v8.896a5.78 5.78 0 0 0 .665 3.166Zm-8.736-2.52a4.396 4.396 0 0 0 3.041-1.043c.401-.386.713-.857.916-1.38.202-.523.29-1.084.256-1.646V22.17a3.43 3.43 0 0 1-1.87.672l-2.152.256a4.48 4.48 0 0 0-2.232.766c-.224.204-.4.457-.514.74a2.07 2.07 0 0 0-.145.894 2.046 2.046 0 0 0 .659 1.668 3.092 3.092 0 0 0 2.041.598Zm17.671 2.991c-4.771 0-7.262-1.918-7.473-5.755h3.891c.009.413.101.82.271 1.195.17.375.414.71.717.983.785.505 1.708.74 2.633.673 2.155 0 3.233-.673 3.233-2.017a1.63 1.63 0 0 0-.17-.79 1.587 1.587 0 0 0-.528-.602 6.775 6.775 0 0 0-2.502-.807l-1.87-.323c-3.568-.605-5.35-2.286-5.346-5.042a4.44 4.44 0 0 1 .429-2.08 4.328 4.328 0 0 1 1.342-1.625c1.179-.894 2.851-1.345 5.004-1.345 4.67 0 7.084 1.887 7.242 5.662h-3.772a2.646 2.646 0 0 0-.214-1.17 2.599 2.599 0 0 0-.701-.948 4.277 4.277 0 0 0-2.535-.633c-1.901 0-2.851.648-2.851 1.944-.007.257.05.512.165.741.115.23.285.425.493.57.641.39 1.354.637 2.094.726l2.054.323c1.975.37 3.43.948 4.326 1.748.452.424.805.946 1.033 1.528.228.582.325 1.208.283 1.834a4.524 4.524 0 0 1-.457 2.184 4.424 4.424 0 0 1-1.439 1.682c-1.273.896-3.057 1.344-5.352 1.344Zm16.238 0c-4.767 0-7.257-1.918-7.472-5.755h3.897a3.035 3.035 0 0 0 .994 2.198 4.3 4.3 0 0 0 2.634.673c2.155 0 3.232-.673 3.232-2.017.01-.274-.05-.545-.172-.789a1.593 1.593 0 0 0-.526-.603 6.817 6.817 0 0 0-2.501-.807l-1.87-.323c-3.569-.605-5.353-2.286-5.353-5.042a4.45 4.45 0 0 1 .43-2.08 4.346 4.346 0 0 1 1.341-1.625c1.185-.896 2.853-1.345 5.004-1.345 4.67 0 7.084 1.887 7.242 5.662h-3.766a2.637 2.637 0 0 0-.216-1.17 2.591 2.591 0 0 0-.706-.948 4.26 4.26 0 0 0-2.534-.633c-1.896 0-2.851.673-2.851 1.944-.008.257.049.512.164.742.115.229.285.425.494.569a5.24 5.24 0 0 0 2.087.726l2.061.323c1.975.37 3.424.948 4.319 1.748.459.42.819.94 1.053 1.522.234.583.335 1.212.297 1.84a4.512 4.512 0 0 1-.476 2.178 4.408 4.408 0 0 1-1.453 1.668c-1.265.896-3.049 1.344-5.353 1.344Z" fill="#62B4F2"/></g><defs><clipPath id="clip0_338_371"><path fill="#fff" transform="translate(0 .5)" d="M0 0h192v37H0z"/></clipPath></defs></svg>