<svg width="60" height="29" viewBox="0 0 60 29" fill="none" xmlns="http://www.w3.org/2000/svg"><path d="m2.379 3.333 3.042.04L5.48 0h2.048l.04 3.333 5.684.04.039 3.195-12.98.059L.274 0H2.38v3.333Zm26.516.715a99.763 99.763 0 0 1-8.964 2.718c2.903-.04 5.963-.14 8.924-.1l.04 2.816-13.019.042V5.437c2.96-.973 5.921-1.925 8.964-2.679-2.92.04-5.942.14-8.964.1V0h12.979l.04 4.048ZM60 5.913c-4.808-3.375-12.543-3.81-17.791-1.112-3.237 1.468-6.438 4.484-8.207 7.618 2.227 3.908 6.26 7.3 10.395 8.531l.039 7.577-12.918.04L31.417 0H60v5.913Z" fill="#A6A6A6"/><path d="M48.412 8.055c-1.788.675-2.942 2.52-2.96 4.363.018 1.866 1.172 3.71 2.96 4.384-3.16-.415-5.942-1.843-8.167-4.384 2.225-2.519 5.007-3.947 8.167-4.363ZM60 12.34v.179c-2.267 2.48-4.968 3.828-8.07 4.283 1.75-.772 3.04-2.58 2.962-4.521-.08-1.786-1.233-3.592-2.962-4.225 3.102.456 5.803 1.804 8.07 4.284Zm-46.71.277c-2.92 1.052-5.92 1.905-8.963 2.718 2.923-.04 5.982-.138 8.925-.099l.039 2.817-12.98.04-.038-4.087c2.942-.97 5.882-1.923 8.924-2.678-2.903.04-5.884.138-8.885.1V8.57h12.94l.039 4.047Zm15.605 5.516-2.107.06-.042-3.334-3-.06-.06 3.394h-2.085v-3.334l-5.725-.06v-3.234h12.979l.04 6.568Zm26.991 10.434-.04-7.578A22.744 22.744 0 0 0 60 19.006v9.561h-4.114ZM13.253 22.34c.575 1.883.356 4.184-1.293 5.472-1.948 1.45-4.692 1.192-7.195 1.132-1.63-.258-3.3-.793-4.215-2.32-.812-1.488-.736-3.89.3-5.238 2.264-2.42 6.161-2.222 9.242-1.627 1.311.338 2.644 1.25 3.16 2.58Zm-7.593.413c-1.192.222-2.664.021-3.44 1.093-.139.496 0 1.012.479 1.248 1.432.617 3.14.597 4.829.576 1.37-.139 2.942 0 3.816-1.15.158-.416-.04-.814-.377-1.09-1.53-.796-3.46-.656-5.307-.677Zm23.195-3.035c-.12 2.82.675 6.211-1.43 8.233-.976.576-2.484.576-3.439 0-.757-.515-1.092-1.288-1.193-2.103-.14.338-.178.714-.298 1.052-.257.833-1.073 1.667-1.95 1.866-1.152.219-2.404.079-3.298-.636-2.088-2.121-1.173-5.554-1.331-8.412h12.94Zm-10.834 3.334c.023.775-.118 1.607.479 2.143.577.435 1.63.336 2.285.08.835-.417.797-1.371.755-2.223h-3.52Zm5.725 0c.042.635-.159 1.37.378 1.806.537.337 1.334.337 1.948.178.756-.357.696-1.23.674-1.984h-3Z" fill="#A6A6A6"/></svg>