<svg width="126" height="56" viewBox="0 0 126 56" fill="none" xmlns="http://www.w3.org/2000/svg"><mask id="mask0_2287_566" style="mask-type:luminance" maskUnits="userSpaceOnUse" x="0" y="0" width="126" height="56"><path d="M0 0h125.588v55.765H0V0Z" fill="#fff"/></mask><g mask="url(#mask0_2287_566)" fill="#A6A6A6"><path d="M110.59 3.39h-1.897a9.621 9.621 0 0 0-5.957 2.068l-13.725 11.26h3.058c2.373 0 5.173-.577 7.41-2.563L110.59 3.391Zm-3.125 6.665c.043-.047 3.98-4.244 6.179-6.643.958-1.045 2.671-1.638 4.088-1.638h1.375l-5.183 6.824c-.684.917-1.851 1.457-2.996 1.457h-3.463Zm.305 2.357h3.12l-3.024 3.975c-5.057 6.888-7.016 6.895-12.513 6.888l1.186-1.229 7.458-7.978c.838-.932 2.244-1.657 3.773-1.656Zm16.809-8.369a19.253 19.253 0 0 0-.829-.016c-2.703.096-3.687.817-5.452 3.073l-7.938 12.324h1.395c3.633-.018 5.876-1.775 7.187-4.557l5.637-10.824ZM9.51 30.156a.524.524 0 0 0-.516.516v5.848H2.06v-5.848a.527.527 0 0 0-1.052 0v12.73a.527.527 0 0 0 1.052 0v-5.85h6.933v5.85a.527.527 0 0 0 1.052 0v-12.73a.527.527 0 0 0-.536-.516Zm2.907 8.931c0-2.105 1.59-3.818 3.544-3.818 1.955 0 3.544 1.713 3.544 3.818 0 2.095-1.59 3.799-3.544 3.799s-3.544-1.704-3.544-3.799Zm7.605-4.831a.511.511 0 0 0-.517.516v1.262c-.861-1.116-2.176-1.778-3.544-1.778-2.524 0-4.577 2.167-4.577 4.831 0 2.664 2.053 4.831 4.577 4.831 1.36 0 2.675-.67 3.544-1.797v1.28c0 .28.237.517.517.517s.517-.236.517-.516v-8.63a.51.51 0 0 0-.517-.516Zm3.162-4.1a.523.523 0 0 0-.516.516v12.73a.527.527 0 0 0 1.052 0v-12.73a.527.527 0 0 0-.536-.516Zm3.471.976a.523.523 0 0 0-.516.516v.45c0 .3.236.555.516.555a.547.547 0 0 0 .536-.556v-.449a.527.527 0 0 0-.536-.516Zm-.01 3.124a.51.51 0 0 0-.516.516v8.63c0 .28.237.517.516.517a.528.528 0 0 0 .536-.517v-8.63c0-.294-.23-.516-.536-.516Zm6.512.36a.527.527 0 0 0-.536-.516h-1.3v-.968c0-.94.206-1.361.38-1.55.201-.242.574-.354 1.173-.354a.527.527 0 0 0 0-1.052c-.877 0-1.539.235-1.968.7-.425.498-.615 1.173-.637 2.256v.968h-1.22a.527.527 0 0 0 0 1.052h1.22v8.27a.527.527 0 0 0 1.052 0v-8.27h1.3a.53.53 0 0 0 .536-.536Zm4.473.654c1.955 0 3.546 1.712 3.546 3.817 0 2.094-1.59 3.8-3.545 3.8-1.955 0-3.544-1.706-3.544-3.8 0-2.105 1.59-3.818 3.544-3.818Zm4.062-1.014a.51.51 0 0 0-.516.517v1.261c-.863-1.115-2.177-1.778-3.545-1.778-2.524 0-4.577 2.167-4.577 4.831 0 2.664 2.053 4.831 4.577 4.831 1.36 0 2.675-.669 3.545-1.797v1.28c0 .281.236.517.516.517s.516-.236.516-.516v-8.63a.51.51 0 0 0-.516-.516Zm6.444 4.87 2.931-3.998c.154-.266.092-.565-.149-.726a.456.456 0 0 0-.343-.084.528.528 0 0 0-.35.211l-2.714 3.716-2.732-3.713a.475.475 0 0 0-.314-.209.523.523 0 0 0-.401.08c-.213.17-.258.47-.106.73l2.908 3.993-2.91 3.977a.53.53 0 0 0 .108.707l.006.004a.638.638 0 0 0 .297.104c.14 0 .32-.057.41-.214l2.734-3.717 2.712 3.712c.079.139.236.219.43.219a.395.395 0 0 0 .262-.106.504.504 0 0 0 .149-.712l-2.928-3.974Zm12.481-1.66c-.838-.565-1.98-.976-3.502-1.258h-.03c-1.297-.246-2.277-.592-2.91-1.026-.67-.459-.976-.959-.995-1.62 0-.678.374-1.33 1.054-1.836.722-.515 1.73-.811 2.764-.811 1.528 0 2.745.797 3.722 1.436.104.073.236.1.362.073a.448.448 0 0 0 .29-.203.482.482 0 0 0-.13-.671c-1.082-.708-2.43-1.59-4.244-1.59-1.255 0-2.437.357-3.327 1.006-.932.676-1.445 1.599-1.445 2.596 0 .963.507 1.822 1.426 2.421.771.52 1.83.9 3.248 1.16h.03c1.371.262 2.43.634 3.145 1.105.745.509 1.092 1.093 1.092 1.835 0 .751-.408 1.458-1.15 1.992-.768.564-1.854.889-2.98.889-2.107.023-3.946-1.332-4.459-1.746a.455.455 0 0 0-.344-.114.47.47 0 0 0-.33.18.5.5 0 0 0 .065.67l.001.002c.922.73 2.806 1.96 5.068 1.982 1.318 0 2.576-.385 3.542-1.083.992-.719 1.562-1.729 1.562-2.772 0-1.047-.542-1.976-1.525-2.617Zm5.583-3.21h-1.183V30.75c0-.26-.275-.516-.555-.516-.26 0-.517.256-.517.516v3.506h-1.142c-.516 0-.516.286-.516.516 0 .23 0 .517.516.517h1.143v6.922c0 .973.742 1.708 1.726 1.708.266 0 .536-.261.536-.517 0-.26-.275-.536-.536-.536-.228 0-.655-.225-.655-.655V35.29H66.2c.26 0 .516-.257.516-.517s-.256-.516-.516-.516Zm5.331 1.014c1.955 0 3.545 1.712 3.545 3.817 0 2.094-1.59 3.8-3.545 3.8-1.954 0-3.544-1.706-3.544-3.8 0-2.105 1.59-3.818 3.544-3.818Zm4.061-1.014a.51.51 0 0 0-.516.517v1.261c-.862-1.115-2.177-1.778-3.545-1.778-2.524 0-4.577 2.167-4.577 4.831 0 2.664 2.053 4.831 4.577 4.831 1.36 0 2.676-.669 3.545-1.797v1.28c0 .281.237.517.517.517s.516-.236.516-.516v-8.63a.51.51 0 0 0-.516-.516Zm6.26.02a3.91 3.91 0 0 0-2.92 1.305v-.789a.508.508 0 0 0-.497-.516.51.51 0 0 0-.516.516v8.727l.005.025.015.014c0 .022 0 .054.027.086a.56.56 0 0 0 .34.273l.129.002a.46.46 0 0 0 .386-.19.49.49 0 0 0 .111-.25v-5.27c.038-1.599 1.349-2.9 2.92-2.9 1.6 0 2.9 1.3 2.9 2.9v5.193c0 .29.228.517.516.517a.51.51 0 0 0 .517-.517V38.21a3.938 3.938 0 0 0-3.933-3.933Zm8.505-4.101c-.877 0-1.54.236-1.969.7-.425.499-.615 1.174-.636 2.258v.967H86.53a.527.527 0 0 0 0 1.052h1.222v8.27a.527.527 0 0 0 1.052 0v-8.27h1.3a.53.53 0 0 0 .535-.536.527.527 0 0 0-.536-.516h-1.299v-.967c0-.94.206-1.361.379-1.551.202-.242.574-.354 1.174-.354a.527.527 0 0 0 0-1.052Zm2.226 4.081a.51.51 0 0 0-.517.516v8.63a.528.528 0 0 0 1.052 0v-8.63a.514.514 0 0 0-.535-.516Zm.009-3.124a.523.523 0 0 0-.516.516v.45c0 .3.237.555.516.555a.547.547 0 0 0 .536-.556v-.449a.527.527 0 0 0-.536-.516Zm3.05 7.166c.369-1.775 1.838-3.01 3.592-3.01 1.727 0 3.206 1.263 3.536 3.01h-7.128Zm3.592-4.042c-2.588 0-4.694 2.176-4.694 4.85 0 2.654 2.106 4.813 4.694 4.813 1.587 0 3.047-.82 3.907-2.191.144-.246.072-.551-.172-.73a.512.512 0 0 0-.39-.054.488.488 0 0 0-.301.227 3.563 3.563 0 0 1-3.044 1.714c-1.942 0-3.54-1.566-3.659-3.575h7.798c.295 0 .517-.204.517-.477v-.081c-.2-2.563-2.202-4.496-4.656-4.496Zm6.587-4.1a.523.523 0 0 0-.516.516v12.73a.527.527 0 0 0 1.052 0v-12.73a.527.527 0 0 0-.536-.516Zm2.698 8.951c0-2.095 1.625-3.799 3.623-3.799 1.954 0 3.545 1.6 3.622 3.642v.31c-.077 2.023-1.668 3.606-3.622 3.606-1.998 0-3.623-1.686-3.623-3.76Zm7.782-8.951a.528.528 0 0 0-.537.516v5.364c-.891-1.133-2.203-1.78-3.622-1.78-2.578 0-4.675 2.176-4.675 4.85 0 2.654 2.097 4.813 4.675 4.813 1.426 0 2.739-.64 3.622-1.762v1.245a.528.528 0 0 0 1.053 0v-12.73a.524.524 0 0 0-.516-.516ZM25.25 49.753c-.072.098-.19.105-.302.046a1.34 1.34 0 0 0-.669-.17c-.747 0-1.344.583-1.344 1.298 0 .709.597 1.293 1.344 1.293.25 0 .473-.06.67-.171.111-.059.23-.046.308.052.085.112.066.263-.059.335a1.814 1.814 0 0 1-.919.243c-.997 0-1.803-.787-1.803-1.752 0-.97.806-1.758 1.803-1.758.335 0 .65.085.919.243.125.072.144.223.052.34Zm2.612-.125c-.65 0-1.187.578-1.187 1.3 0 .72.537 1.292 1.187 1.292s1.194-.572 1.194-1.293-.545-1.299-1.194-1.299Zm0 3.05c-.912 0-1.647-.78-1.647-1.75 0-.972.735-1.759 1.647-1.759s1.653.787 1.653 1.758c0 .97-.742 1.752-1.653 1.752Zm3.292-3.011c0 .033.02.04.033.013.13-.19.518-.511 1.003-.511.755 0 1.233.61 1.233 1.364v1.844a.227.227 0 0 1-.235.236c-.132 0-.224-.099-.224-.236v-1.844c0-.504-.34-.905-.839-.905-.506 0-.971.4-.971.905v1.844a.227.227 0 0 1-.237.236c-.13 0-.223-.099-.223-.236V49.47c0-.137.1-.236.237-.236.131 0 .223.099.223.236v.197Zm4.14 0c0 .033.02.04.033.013.131-.19.519-.511 1.004-.511.755 0 1.233.61 1.233 1.364v1.844a.227.227 0 0 1-.236.236c-.131 0-.223-.099-.223-.236v-1.844c0-.504-.341-.905-.84-.905-.505 0-.97.4-.97.905v1.844a.227.227 0 0 1-.237.236c-.13 0-.223-.099-.223-.236V49.47c0-.137.098-.236.236-.236.132 0 .223.099.223.236v.197Zm6.284.978c.026 0 .04-.013.033-.039-.138-.565-.63-.978-1.2-.978-.571 0-1.063.413-1.201.978-.007.026.006.04.033.04h2.335Zm.518.223a.23.23 0 0 1-.235.236h-2.638c-.02 0-.033.014-.026.033.091.616.61 1.083 1.279 1.083.46 0 .728-.164.932-.322.105-.085.216-.072.302 0 .072.06.098.203.026.289-.21.242-.65.492-1.26.492a1.736 1.736 0 0 1-1.758-1.752c0-.97.754-1.758 1.693-1.758.918 0 1.685.715 1.685 1.594v.105Zm3.635-1.115c-.072.098-.19.105-.302.046a1.34 1.34 0 0 0-.669-.17c-.748 0-1.345.583-1.345 1.298 0 .709.597 1.293 1.345 1.293.25 0 .472-.06.67-.171.11-.059.229-.046.308.052.085.112.065.263-.06.335a1.813 1.813 0 0 1-.918.243c-.997 0-1.804-.787-1.804-1.752 0-.97.807-1.758 1.804-1.758.335 0 .65.085.919.243.124.072.144.223.052.34Zm1.955-.059c-.02 0-.034.013-.034.033v2c0 .217.04.42.263.394.17-.02.276.066.282.223.007.184-.17.269-.387.269-.321 0-.616-.151-.616-.669v-2.217a.031.031 0 0 0-.033-.033h-.4a.226.226 0 0 1-.237-.23c0-.13.099-.23.236-.23h.4c.02 0 .034-.013.034-.032v-.623a.22.22 0 0 1 .23-.23.22.22 0 0 1 .228.23v.623c0 .02.014.032.034.032h.386c.139 0 .237.1.237.23 0 .131-.098.23-.237.23h-.386Zm2.178 2.683a.226.226 0 0 1-.23.236.226.226 0 0 1-.23-.236v-2.906c0-.138.1-.236.23-.236.131 0 .23.098.23.236v2.906Zm0-4.08a.226.226 0 0 1-.23.236.226.226 0 0 1-.23-.236v-.302c0-.138.1-.237.23-.237.131 0 .23.099.23.237v.302Zm1.929 1.37c0 .033.02.04.033.013.13-.19.518-.511 1.003-.511.755 0 1.234.61 1.234 1.364v1.844a.227.227 0 0 1-.236.236c-.132 0-.223-.099-.223-.236v-1.844c0-.504-.341-.905-.84-.905-.505 0-.971.4-.971.905v1.844a.227.227 0 0 1-.236.236c-.131 0-.223-.099-.223-.236V49.47c0-.137.098-.236.236-.236.131 0 .223.099.223.236v.197Zm6.185 1.253c0-.721-.538-1.292-1.187-1.292-.65 0-1.194.571-1.194 1.293 0 .727.544 1.299 1.194 1.299.65 0 1.187-.572 1.187-1.3Zm0-1.45c0-.137.092-.235.223-.235.138 0 .237.098.237.236v3.116c0 .945-.84 1.404-1.536 1.404-.465 0-.931-.158-1.154-.36-.066-.06-.112-.197-.04-.296.066-.092.197-.138.309-.053.177.131.46.25.885.25.446 0 1.076-.237 1.076-.945v-.466c0-.033-.02-.04-.039-.013-.223.354-.709.57-1.148.57-.912 0-1.653-.786-1.653-1.757 0-.965.741-1.752 1.653-1.752.44 0 .925.216 1.148.57.02.027.04.02.04-.013v-.255Zm4.474.197c0 .033.02.04.033.013.131-.19.518-.511 1.003-.511.48 0 .84.242 1.05.61.013.026.026.026.046.006.256-.36.662-.616 1.142-.616.754 0 1.266.61 1.266 1.364v1.844a.226.226 0 0 1-.23.236.226.226 0 0 1-.23-.236v-1.844c0-.498-.308-.905-.806-.905-.598 0-1.004.407-1.004.905v1.844c0 .137-.092.236-.23.236h-.006c-.132 0-.223-.099-.223-.236v-1.844c0-.504-.342-.905-.84-.905-.506 0-.971.4-.971.905v1.844a.227.227 0 0 1-.236.236c-.131 0-.224-.099-.224-.236V49.47c0-.137.1-.236.237-.236.131 0 .223.099.223.236v.197Zm8.463.978c.026 0 .04-.013.033-.039-.138-.565-.63-.978-1.2-.978-.572 0-1.064.413-1.2.978-.008.026.005.04.031.04h2.336Zm.518.223a.23.23 0 0 1-.236.236H68.56c-.02 0-.033.014-.026.033.091.616.61 1.083 1.279 1.083.46 0 .728-.164.931-.322.106-.085.217-.072.303 0 .072.06.098.203.026.289-.21.242-.65.492-1.26.492a1.736 1.736 0 0 1-1.758-1.752c0-.97.754-1.758 1.692-1.758.919 0 1.686.715 1.686 1.594v.105Zm3.831.059c0-.728-.538-1.299-1.187-1.299-.65 0-1.194.57-1.194 1.3 0 .72.544 1.292 1.194 1.292.65 0 1.187-.571 1.187-1.293Zm.46-1.456v2.906a.228.228 0 0 1-.237.236c-.13 0-.223-.098-.223-.236v-.256c0-.033-.02-.04-.039-.013-.223.354-.709.57-1.148.57-.912 0-1.653-.787-1.653-1.75 0-.972.741-1.759 1.653-1.759.44 0 .925.216 1.148.57.02.027.04.02.04-.012v-.256c0-.138.097-.237.229-.237.131 0 .23.099.23.237Zm1.955.196c0 .033.02.04.033.013.131-.19.518-.511 1.003-.511.755 0 1.233.61 1.233 1.364v1.844a.227.227 0 0 1-.235.236c-.132 0-.223-.099-.223-.236v-1.844c0-.504-.342-.905-.84-.905-.506 0-.971.4-.971.905v1.844a.227.227 0 0 1-.236.236c-.131 0-.223-.099-.223-.236V49.47c0-.137.098-.236.236-.236.13 0 .223.099.223.236v.197Zm3.489 2.212c.085-.073.203-.08.288 0 .171.163.46.36.834.36.492 0 .82-.236.82-.531 0-.25-.237-.44-.788-.584-.905-.243-1.239-.479-1.239-.99 0-.506.485-.965 1.154-.965.46 0 .748.138.951.289.119.085.119.223.046.321-.065.092-.203.118-.315.046a1.197 1.197 0 0 0-.682-.21c-.426 0-.695.282-.695.519 0 .223.15.386.899.583.806.217 1.108.506 1.108 1.01 0 .526-.492.952-1.26.952-.498 0-.905-.217-1.121-.446-.112-.125-.112-.256 0-.354Zm6.298-2.185c-.02 0-.033.013-.033.033v2c0 .217.04.42.262.394.171-.02.276.066.282.223.007.184-.17.269-.387.269-.32 0-.616-.151-.616-.669v-2.217a.031.031 0 0 0-.033-.033h-.4a.226.226 0 0 1-.236-.23c0-.13.098-.23.236-.23h.4c.02 0 .033-.013.033-.032v-.623a.22.22 0 0 1 .229-.23.22.22 0 0 1 .23.23v.623c0 .02.013.032.033.032h.387c.138 0 .236.1.236.23 0 .131-.098.23-.236.23h-.387Zm2.302-.027c0 .033.02.04.033.013.13-.19.519-.511 1.004-.511.755 0 1.233.61 1.233 1.364v1.844a.227.227 0 0 1-.236.236c-.131 0-.223-.099-.223-.236v-1.844c0-.504-.341-.905-.84-.905-.505 0-.97.4-.97.905v1.844a.227.227 0 0 1-.237.236c-.13 0-.223-.099-.223-.236v-4.383c0-.137.098-.236.236-.236.132 0 .223.099.223.236v1.673Zm6.049.978c.027 0 .04-.013.034-.039-.138-.565-.63-.978-1.201-.978-.571 0-1.063.413-1.2.978-.007.026.006.04.032.04h2.335Zm.519.223a.23.23 0 0 1-.236.236h-2.638c-.02 0-.033.014-.026.033.092.616.61 1.083 1.28 1.083a1.4 1.4 0 0 0 .93-.322c.106-.085.217-.072.303 0 .072.06.098.203.026.289-.21.242-.65.492-1.26.492a1.736 1.736 0 0 1-1.758-1.752c0-.97.755-1.758 1.693-1.758.918 0 1.686.715 1.686 1.594v.105Zm6.986-1.489c.046-.132.171-.19.288-.144.132.046.191.17.145.302l-1.03 2.925a.226.226 0 0 1-.177.158.229.229 0 0 1-.269-.138l-.781-1.83c-.006-.027-.033-.027-.039 0l-.781 1.83a.228.228 0 0 1-.269.138.235.235 0 0 1-.177-.158l-1.03-2.925a.227.227 0 0 1 .144-.302c.119-.046.243.012.29.144l.825 2.348c.007.027.033.027.04 0l.761-1.784a.234.234 0 0 1 .433 0l.754 1.784c.014.027.04.027.046-.006l.827-2.342Zm2.795.249c-.65 0-1.188.578-1.188 1.3 0 .72.538 1.292 1.188 1.292.649 0 1.194-.572 1.194-1.293s-.545-1.299-1.194-1.299Zm0 3.05c-.912 0-1.647-.78-1.647-1.75 0-.972.735-1.759 1.647-1.759.911 0 1.653.787 1.653 1.758 0 .97-.742 1.752-1.653 1.752Zm3.247-2.879c0 .059.026.085.078.02.243-.303.591-.604 1.05-.65.164-.013.295.046.295.21 0 .137-.098.203-.243.243-1.029.275-1.18.74-1.18 1.069v1.686a.226.226 0 0 1-.23.236.226.226 0 0 1-.23-.236v-2.906c0-.138.099-.236.23-.236s.23.098.23.229v.335Zm2.991 2.578a.228.228 0 0 1-.236.236c-.132 0-.223-.098-.223-.236v-4.382c0-.138.098-.237.235-.237.132 0 .224.099.224.237v4.382Zm4.028-1.45c0-.728-.538-1.299-1.187-1.299-.65 0-1.194.57-1.194 1.3 0 .72.544 1.292 1.194 1.292.649 0 1.187-.571 1.187-1.293Zm.459-2.932v4.382a.227.227 0 0 1-.236.236c-.131 0-.223-.098-.223-.236v-.256c0-.033-.019-.04-.039-.013-.223.354-.709.57-1.148.57-.912 0-1.654-.787-1.654-1.75 0-.972.742-1.759 1.654-1.759.439 0 .925.216 1.148.57.02.027.039.02.039-.012v-1.732c0-.138.098-.236.23-.236.131 0 .229.098.229.236Z"/></g></svg>