<svg width="48" height="45" viewBox="0 0 48 45" fill="none" xmlns="http://www.w3.org/2000/svg"><path fill-rule="evenodd" clip-rule="evenodd" d="M1.318 40.24c-.78.438-1.176 1.03-1.176 1.757 0 .75.405 1.346 1.204 1.776.73.392 1.718.592 2.934.592a8.63 8.63 0 0 0 2.574-.38L7 43.944l.174.099.15-.03L8 43.82l-1.66-1.793-.628.262.05.162a3.7 3.7 0 0 1-.631.17 5.45 5.45 0 0 1-.87.06c-.574 0-1.024-.081-1.337-.241-.36-.184-.36-.378-.36-.45 0-.075 0-.272.386-.467.332-.167.793-.252 1.37-.252.42 0 .808.044 1.154.132.094.023.16.044.213.062l-.102.17.417.131.362.097 1.358-1.83-.756-.212-.148.104-.062.043-.82-.16a9.286 9.286 0 0 0-1.8-.178c-1.152 0-2.1.205-2.818.61Z" fill="#F4F5F7"/><path fill-rule="evenodd" clip-rule="evenodd" d="m11.69 41.413.431.737h-.836l.404-.737Zm1.57-1.724H9.98v.74l.05.005-1.496 2.731-.03.056-.007.012c-.09.174-.193.281-.305.319l-.228.076v.678h2.684v-.697l-.15-.038.06-.105h2.357l.061.11a1.97 1.97 0 0 1-.085.018l-.02.274v.438h2.833v-.703l-.26-.06c-.048-.011-.06-.028-.072-.047l-.007-.014-1.81-3.05.026-.003.014-.303v-.438h-.335Zm9.959 0h-2.367v.708l.295.062v1.134l-1.794-1.31.012-.157v-.437h-3.257v.706s.275.06.28.06v3.084l-.26.05-.02.28v.437h2.657v-.715l-.28-.052v-1.485l2.269 1.657-.012.158v.437h2.811V43.6l-.294-.063V40.46l.274-.06.02-.273v-.437h-.334Zm4.438 1.724.431.737h-.835l.404-.737Zm1.57-1.724h-3.28v.74l.05.005-1.497 2.731-.03.056-.006.012c-.09.174-.192.281-.305.319l-.228.076v.678h2.684v-.697l-.15-.038.06-.105h2.358l.06.11a6.407 6.407 0 0 1-.084.018l-.02.274v.438h2.833v-.703l-.26-.06c-.047-.011-.06-.028-.072-.047l-.007-.014-1.81-3.05.026-.003.014-.303v-.438h-.335Zm6.226 1.567c.758 0 1.126.115 1.301.213.198.11.287.269.287.516 0 .25-.09.412-.29.524-.176.098-.544.215-1.298.215h-.765v-1.468h.765Zm-3.044-1.567h-.334v.706s.275.06.28.06v3.084l-.26.049-.02.28v.438h3.389c.736 0 1.292-.035 1.702-.107a3.65 3.65 0 0 0 1.119-.375c.358-.196.639-.456.835-.77.197-.32.3-.687.297-1.062a1.948 1.948 0 0 0-.298-1.048 2.217 2.217 0 0 0-.834-.767 3.566 3.566 0 0 0-1.119-.38c-.41-.073-.968-.108-1.702-.108h-3.055Zm10.802 1.724.432.737h-.836l.404-.737Zm1.571-1.724h-3.28v.74l.05.005-1.497 2.731-.03.056-.006.012c-.09.174-.193.281-.305.319l-.228.076v.678h2.684v-.697l-.15-.038.06-.105h2.357l.061.11a1.97 1.97 0 0 1-.085.018l-.02.274v.438h2.833v-.703l-.26-.06c-.047-.011-.06-.028-.071-.047l-.007-.014-1.811-3.05.027-.003.013-.303v-.438h-.335Z" fill="#F4F5F7"/><path fill-rule="evenodd" clip-rule="evenodd" d="M6.09 41.444a.309.309 0 0 0 .018-.033.071.071 0 0 0 .009-.033c0-.105-.187-.205-.56-.3a5.045 5.045 0 0 0-1.236-.142c-.633 0-1.14.097-1.52.288-.381.192-.571.447-.571.765 0 .314.18.564.543.748.363.185.858.277 1.488.277.363 0 .67-.021.925-.063.255-.043.517-.115.788-.218a.453.453 0 0 0 .143-.069.096.096 0 0 0 .033-.074.174.174 0 0 0-.009-.05 2.04 2.04 0 0 0-.019-.06l.132-.055 1.133 1.223-.154.044a.944.944 0 0 0-.129-.071.242.242 0 0 0-.085-.023c-.033 0-.121.023-.264.068a8.267 8.267 0 0 1-2.474.365c-1.166 0-2.091-.184-2.777-.553-.685-.368-1.027-.861-1.027-1.48 0-.601.335-1.09 1.005-1.468.671-.377 1.556-.566 2.655-.566a8.85 8.85 0 0 1 1.734.172c.577.114.87.17.877.17a.33.33 0 0 0 .137-.027.72.72 0 0 0 .143-.094l.137.038-.933 1.258-.143-.038Zm5.59-.71 1.024 1.75H10.72l.958-1.75Zm3.69 3.238v-.104a.426.426 0 0 1-.293-.215l-1.883-3.173a1.762 1.762 0 0 1-.075-.143.279.279 0 0 1-.03-.089c0-.04.013-.07.039-.089a.27.27 0 0 1 .132-.033v-.103h-2.947v.103a.27.27 0 0 1 .132.033c.026.019.039.048.039.089 0 .015-.01.044-.027.086a1.92 1.92 0 0 1-.072.146l-1.559 2.846a1.552 1.552 0 0 1-.033.06c-.132.256-.297.416-.495.482v.104h2.015v-.104a.422.422 0 0 1-.179-.066.134.134 0 0 1-.057-.11.18.18 0 0 1 .01-.064.494.494 0 0 1 .034-.07l.242-.426h2.748l.237.426c.025.049.044.085.055.11.01.022.015.044.016.067a.093.093 0 0 1-.052.086.477.477 0 0 1-.163.047v.104h2.165Zm2.78-.319c0 .074.018.124.053.152.034.028.11.05.227.063v.104h-1.989v-.104a.519.519 0 0 0 .228-.063c.035-.028.052-.078.052-.152v-3.306c0-.074-.017-.124-.052-.151-.035-.028-.11-.05-.228-.07v-.103h2.59v.103a.582.582 0 0 0-.168.056c-.039.022-.058.045-.058.072 0 .029.042.074.127.137l.055.038 2.493 1.822v-1.905c0-.073-.018-.124-.055-.151a.61.61 0 0 0-.24-.07v-.102h2.034v.103a.608.608 0 0 0-.238.069c-.038.027-.057.078-.057.151v3.307c0 .07.02.119.058.146a.63.63 0 0 0 .237.07v.102h-2.144v-.103a.467.467 0 0 0 .166-.05c.037-.022.056-.046.056-.072 0-.032-.052-.088-.155-.165a.087.087 0 0 0-.023-.016l-2.969-2.17v2.258Zm9.496-2.918 1.025 1.748h-1.983l.958-1.748Zm3.691 3.237v-.104a.424.424 0 0 1-.292-.215L29.16 40.48a1.936 1.936 0 0 1-.074-.143.283.283 0 0 1-.03-.089c0-.04.012-.07.038-.089a.272.272 0 0 1 .133-.033v-.103H26.28v.103a.27.27 0 0 1 .132.033c.026.019.038.048.038.089a.28.28 0 0 1-.027.086 2.45 2.45 0 0 1-.072.146l-1.558 2.846a1.25 1.25 0 0 1-.034.06c-.132.256-.297.416-.495.482v.104h2.016v-.104a.425.425 0 0 1-.18-.066.134.134 0 0 1-.057-.11.19.19 0 0 1 .01-.064.453.453 0 0 1 .034-.07l.242-.426h2.749l.236.426c.025.049.044.085.055.11a.18.18 0 0 1 .017.067.094.094 0 0 1-.053.086.48.48 0 0 1-.162.047v.104h2.165Zm4.115-3.05c.67 0 1.158.085 1.464.255.305.17.458.438.458.807 0 .373-.154.645-.461.817-.307.171-.794.257-1.46.257h-1.1v-2.136h1.1Zm-3.043-.899v.103a.558.558 0 0 1 .228.069c.034.027.052.078.052.15v3.309c0 .073-.018.124-.052.151-.035.028-.111.05-.228.063v.104h3.055c.708 0 1.257-.035 1.644-.102a3.32 3.32 0 0 0 1.017-.34c.308-.169.545-.387.71-.653a1.65 1.65 0 0 0 .248-.885 1.618 1.618 0 0 0-.248-.872 1.89 1.89 0 0 0-.71-.65 3.236 3.236 0 0 0-1.017-.345c-.388-.068-.936-.102-1.644-.102h-3.055Zm10.792.712 1.024 1.748h-1.983l.959-1.748Zm3.69 3.237v-.104a.424.424 0 0 1-.291-.215l-1.884-3.173a1.548 1.548 0 0 1-.075-.143.29.29 0 0 1-.03-.089c0-.04.013-.07.039-.089a.27.27 0 0 1 .132-.033v-.103h-2.947v.103a.267.267 0 0 1 .132.033c.026.019.039.048.039.089 0 .015-.01.044-.028.086a2.259 2.259 0 0 1-.071.146l-1.559 2.846a1.254 1.254 0 0 1-.033.06c-.132.256-.298.416-.496.482v.104h2.016v-.104a.425.425 0 0 1-.179-.066.134.134 0 0 1-.058-.11c0-.023.004-.044.011-.064a.571.571 0 0 1 .033-.07l.243-.426h2.748l.237.426c.025.049.044.085.054.11a.17.17 0 0 1 .017.067.095.095 0 0 1-.052.086.48.48 0 0 1-.163.047v.104h2.165Z" fill="#A6A6A6"/><path fill-rule="evenodd" clip-rule="evenodd" d="m23.214.596-3.905 7.797c-.023.044-.144.146-.358.212-.223.068-.446.064-.582-.01l-4.648-2.52 2.806 12.065.022.088c.078.293.1.429-.184.579-.415.22-.603.104-.732-.039l-5.308-5.885-1.27 2.906c-.316.632-.37.729-1.655.44l-5.9-1.361 2.058 6.643c.293.917-.115 1.083-.312 1.163L0 23.892l10.823 7.732c.372.268.386.428.24.747l-2.092 4.581 14.541-2.825 14.543 2.825-2.093-4.58a.753.753 0 0 1-.086-.303c0-.15.093-.277.327-.446l10.822-7.73-3.255-1.222c-.14-.058-.406-.166-.406-.603 0-.145.029-.327.102-.555l2.059-6.645-5.902 1.362c-1.283.288-1.337.191-1.652-.44l-1.27-2.906-5.309 5.884c-.128.143-.316.26-.732.039-.283-.15-.261-.286-.183-.58l.021-.085 2.806-12.066-4.648 2.52c-.135.073-.358.077-.581.009-.214-.066-.335-.168-.36-.218L23.512 0l-.3.596Z" fill="#F4F5F7"/><path fill-rule="evenodd" clip-rule="evenodd" d="M22.11 36.438v.368c0 .492.724.668 1.403.668.678 0 1.403-.176 1.403-.668v-.368c0-.492-.725-.668-1.403-.668-.679 0-1.404.175-1.404.668Z" fill="#F4F5F7"/><path fill-rule="evenodd" clip-rule="evenodd" d="m36.008 31.352 10.313-7.367-2.668-1.001c-.529-.216-.792-.675-.505-1.572l1.886-6.088-5.336 1.232c-1.462.328-1.642.153-2.03-.625l-1.066-2.44-4.962 5.5c-.207.23-.553.42-1.136.111-.584-.31-.395-.771-.33-1.037l.423-1.822-19.129 15.689c.037.174-.002.362-.1.578L9.543 36.5l13.968-2.713 13.969 2.714-1.823-3.991c-.214-.468-.146-.801.35-1.158Z" fill="#A6A6A6"/><path fill-rule="evenodd" clip-rule="evenodd" d="m30.597 16.242 2.213-9.519-3.995 2.167c-.452.245-1.22-.008-1.398-.347L23.512.746l-3.905 7.797c-.177.34-.945.592-1.397.347l-3.995-2.167 2.637 11.342c.064.266.253.728-.33 1.037-.584.31-.93.12-1.137-.11l-4.962-5.5-1.066 2.44c-.388.777-.569.951-2.03.624l-5.336-1.232 1.886 6.088c.287.898.024 1.356-.505 1.572l-2.668 1 10.313 7.368c.268.193.412.38.452.584l19.128-15.694Z" fill="#A6A6A6"/><path fill-rule="evenodd" clip-rule="evenodd" d="m29.144 11.886-.177-.17s-.433-.651-.85-1.068l-.213.037-.99.033c-.201-.07-.461-.07-.461-.07a3.857 3.857 0 0 0-.766 1.372l-.06.1a6.652 6.652 0 0 0 .107 1.392l-1.027.357v.136s-.192 0-.411.024c-.22.024-.71.217-.71.217l-1.614.931-.595.854-.893 2.083s-.07.338-.07.464l.007.56-.218-.07-.855.781-.138.921-.912 1.335-1.966 3.231v.147l-.599.49v.324s-.469.143-1.08.725l-.792.887-1.144 1.649-.458.347.027.64-.1.1v.151l-.21.25-.857.778c-.107.223-.217.862-.187 1.185l-.343 1.118c.309-.192.731-.34.731-.34l.301-.054 1.759-1.94 2.788-2.305c.367-.312.656-1.065.656-1.065s.212-.152.418-.207c.26-.07.913-.367 1.12-.584l.668-.7.649-.04s.326-.406.581-.872l.616-.36.866-.975.648-.577c.14-.14.472-.22.472-.22l.13.737c.166.905-.007 1.135-.007 1.135l-.257.724c-.064.166-.077.384-.077.384s-.118.146-.22.34l-.903 1.716-.652 1.622-.391.25-.178.387-.103-.083-.963 1.602v.253l.184.217-.284.764.077.114.632-.394.4.217s.179-.119.279-.247l.551-.711 2.846-2.887s.587-.565 1.036-1.966c0 0 .407-.301.649-.694l.943-1.532.922-2.23 1.314 1.059.207-.034-1.04 8.942.044.354.147.153c.561-.008 1.776-.214 1.776-.214.076-.012.434-.455.518-.77l.134-.505-.178-.076-1.237.41-.3.06s-.018-.274-.007-.43l.932-7.936c.497-.16.923-.551 1.027-.772l-.177-.04.107-.343-.214-.327.284-.354-.138-.347-.394-.147-.254-.036.22-2.05s.253-.311.549-.564c.295-.252.568-.422.695-.594l.773-1.044-.037-.28.143-.248s-.227-.352-.962-.707l.284-.46c.015-.755-.003-1.197.535-2.193l-.14-.498-1.104-.988s-.557-.15-.913-.123c-.355.027-.765.267-.765.267l-.23.14.173-.32-.104-.07v-.635Z" fill="#F4F5F7"/><path fill-rule="evenodd" clip-rule="evenodd" d="m28.979 19.716.511.417-.183 1.88-1.274-.868a.92.92 0 0 1-.21-.234l.293-.394.325-.584.23-.54.308.323Zm-4.397 16.722c0-.184-.479-.334-1.07-.334-.59 0-1.069.15-1.069.334v.368c0 .184.479.334 1.07.334.59 0 1.069-.15 1.069-.334v-.368Z" fill="#A6A6A6"/></svg>