<svg width="86" height="15" viewBox="0 0 86 15" fill="none" xmlns="http://www.w3.org/2000/svg"><g clip-path="url(#clip0_2277_484)" fill="#A6A6A6"><path d="M15.359 8.501h-3.69c-5.43.106-5.146-4.464-5.146-4.464V.099H.101V6.41c0 .879.833 8.49 8.817 8.49h6.44V8.502Z"/><path d="M7.197.1v3.515s-.532 4.289 4.134 4.253h4.028V5.092h-1.793s-3.46.439-3.424-2.198V.1H7.197Z"/><path d="M10.888.1v2.337s-.266 2.074 2.484 2.004h1.987V2.385h-1.118s-1.348.087-1.33-1.407V.1h-2.023Z"/><path d="M13.655.1h1.704v1.634s-1.704.264-1.704-.668V.1Zm68.608 7.769c-1.792-.404-3.549-.545-3.549-1.635 0-.878 1.03-1.02 1.74-1.02 1.117 0 2.057.317 2.146 1.495h2.98c-.247-2.707-2.536-3.516-5.038-3.516-1.153 0-2.324.176-3.247.633l.107-.334H74.19l-2.093 7.453h-.053l-1.951-7.453H67.04l-1.898 7.47h-.036l-2.093-7.47h-3.318l.106.282c-.993-.44-2.252-.58-3.388-.58-.124 0-.248 0-.355.017-2.236.07-4.418.826-4.932 3.006V.099h-3.14v5.89c-.852-1.917-2.537-2.796-4.134-2.796-.373 0-.728.035-1.082.106-1.011.211-1.934.703-2.502 1.53h-.053V.098h-3.14v5.643c-.958-1.6-2.75-2.55-5.039-2.55-3.584 0-5.908 2.304-5.908 5.819 0 .844.142 1.635.408 2.32h-3.193c-2.573 0-2.537-1.195-2.537-2.162V.1h-3.159s.036 8.983 0 10.723c0 3.481 2.75 3.586 5.164 3.586h5.375V13.6c.994.773 2.29 1.196 3.85 1.196 2.289 0 4.08-.95 5.039-2.55v2.25h2.98V13.09h.054c.532.95 1.49 1.46 2.66 1.635.338.053.71.07 1.083.07 1.597 0 3.282-.879 4.134-2.795v2.496h3.14v-1.265c.657 1.054 1.951 1.565 3.442 1.565.497 0 .993-.054 1.49-.159.887-.176 1.721-.562 2.36-1.213.018.369.106.739.213 1.072h3.193c-.284-.44-.408-1.441-.408-2.443V8.748l1.899 5.748h3.246l1.952-7.383h.035l2.023 7.383h3.246l2.112-6.487c.621.968 1.934 1.371 3.264 1.652 2.254.475 3.567.792 3.567 1.706 0 1.072-1.154 1.406-2.076 1.406-1.224 0-2.377-.528-2.395-1.846h-2.98c.141 2.9 2.714 3.868 5.375 3.868 2.59 0 5.216-.932 5.216-3.833 0-2.039-1.81-2.689-3.637-3.093Zm-50.227 4.64c-2.129 0-2.768-1.757-2.768-3.498 0-1.757.639-3.532 2.768-3.532 2.111 0 2.75 1.775 2.75 3.532 0 1.741-.639 3.498-2.75 3.498Zm10.752 0h-.018c-1.845 0-2.661-1.687-2.661-3.498 0-1.863.816-3.532 2.66-3.532h.019c1.845 0 2.661 1.67 2.661 3.532 0 1.828-.816 3.498-2.661 3.498Zm15.506-2.267c0 .632-.089 2.355-2.235 2.513-.107 0-.213.018-.32.018-1.011 0-1.916-.281-1.916-1.406 0-1.108.887-1.424 1.846-1.617.124-.018.266-.035.39-.053.869-.123 1.774-.193 2.235-.58v1.125Zm-2.235-2.268c-.462.053-.976.106-1.49.194-1.367.175-2.75.527-3.443 1.6V6.883h3.052c.107-1.125.799-1.617 1.881-1.67h.195c1.1 0 2.04.21 2.04 1.494 0 .915-.958 1.108-2.235 1.266Z"/></g><defs><clipPath id="clip0_2277_484"><path fill="#fff" d="M0 0h86v15H0z"/></clipPath></defs></svg>