<svg width="121" height="32" viewBox="0 0 121 32" fill="none" xmlns="http://www.w3.org/2000/svg"><g clip-path="url(#clip0_2285_492)" fill="#A6A6A6"><path d="M48.361 12.597h1.925l2.134 3.478 2.134-3.478h1.925v8.225h-1.775v-5.37l-2.284 3.513h-.046l-2.261-3.48v5.335H48.36v-8.225.002Zm11.559 4.135v-.024c0-2.338 1.822-4.253 4.326-4.253 2.504 0 4.302 1.892 4.302 4.23v.023c0 2.338-1.822 4.254-4.325 4.254-2.504 0-4.302-1.892-4.302-4.23Zm6.762 0v-.024c0-1.409-1.02-2.584-2.46-2.584-1.438 0-2.435 1.151-2.435 2.56v.024c0 1.41 1.02 2.585 2.459 2.585s2.436-1.152 2.436-2.561Zm5.128-4.136h1.645l3.804 5.064v-5.064h1.762v8.226H77.5l-3.931-5.23v5.23h-1.762v-8.226h.001Zm10.655 4.136v-.024c0-2.338 1.739-4.253 4.232-4.253 1.531 0 2.447.517 3.2 1.27l-1.136 1.327c-.625-.575-1.263-.928-2.075-.928-1.369 0-2.354 1.151-2.354 2.56v.024c0 1.41.964 2.585 2.354 2.585.928 0 1.496-.375 2.134-.963l1.137 1.162c-.835.905-1.762 1.47-3.328 1.47-2.39 0-4.162-1.869-4.162-4.23h-.002Zm12.662-2.469h-2.47v-1.668h6.727v1.668h-2.47v6.557H95.13v-6.557h-.002Zm6.771 2.469v-.024c0-2.338 1.822-4.253 4.325-4.253 2.504 0 4.302 1.892 4.302 4.23v.023c0 2.338-1.821 4.254-4.325 4.254-2.504 0-4.302-1.892-4.302-4.23Zm6.761 0v-.024c0-1.409-1.02-2.584-2.459-2.584-1.438 0-2.436 1.151-2.436 2.56v.024c0 1.41 1.021 2.585 2.459 2.585 1.439 0 2.436-1.152 2.436-2.561Zm5.128-4.136h1.646l3.803 5.064v-5.064h1.762v8.226h-1.519l-3.932-5.23v5.23h-1.762v-8.226h.002ZM.16 25.03c-.31-.194-.12-.397.135-.329.372.104 2.22.418 3.671.216 6.573-.51 10.514-6.313 16.192-4.674 1.675.434 2.363 1.46 2.466 2.14.467 3.108-3.408 2.777-3.56 4.923-.223 2.712 3.807 4.137 4.223 4.27.474.152.338.5-.085.408-.49-.113-4.976-.797-5.988-3.31-.643-1.375-.135-3.196 1.205-4.3.51-.407.93-.993.366-1.557-1.519-1.525-7.07 2.158-8.902 2.726-2.546 1.01-6.523 1.148-9.722-.515l-.002.002Zm42.155 4.708c.116.349-.157.385-.31.165-.22-.319-1.452-1.753-2.698-2.533-5.395-3.846-12.07-1.907-15.429-6.833-1.02-1.415-.91-2.651-.564-3.241 1.585-2.699 4.37.054 5.831-1.505 1.872-1.948-.35-5.65-.588-6.022-.271-.423.054-.604.322-.26.307.403 3.344 3.824 2.552 6.418-.364 1.476-1.896 2.555-3.623 2.544-.646-.014-1.338.167-1.258.965.218 2.157 6.811 2.893 8.58 3.637 2.601.861 5.755 3.32 7.185 6.667v-.002ZM31.015.013c.355-.075.355.206.123.332-.34.185-1.896 1.242-2.815 2.401-4.434 4.953-3.37 11.916-8.607 14.682-1.51.853-2.706.586-3.24.164-2.441-1.934.599-4.393-.743-6.06-1.671-2.128-5.568-.354-5.96-.16-.448.22-.585-.129-.215-.355.432-.26 4.155-2.89 6.59-1.769 1.399.552 2.262 2.23 2.037 3.965-.097.65-.004 1.368.786 1.388 2.136.05 3.678-6.497 4.627-8.186 1.167-2.51 3.966-5.381 7.415-6.4l.002-.002Z"/></g><defs><clipPath id="clip0_2285_492"><path fill="#fff" d="M0 0h121v32H0z"/></clipPath></defs></svg>