<svg width="103" height="33" viewBox="0 0 103 33" fill="none" xmlns="http://www.w3.org/2000/svg"><path d="M1.74 27.468c-3.766-4.656 7.567-13.887 17.429-8.31 20.872 11.802 27.678-12.157 30.055-7.21 3.75 6.774-13.807 21.939-28.293 11.462-13.726-9.91-16.539 7.114-19.19 4.058Z" fill="#A6A6A6"/><path d="M4.828 31.785c11.09-11.365 13.726 1.342 16.361-1.778 1.261-2.49-3.831-8.585-11.365-4.85-3.88 1.616-8.569 8.487-4.996 6.628ZM64.21 7.162c-.679 3.686-5.593-11.139-24.541 7.534-12.174 11.996-22.731 2.102-18.091-5.383 2.505-4.236 1.018 17.735 23.361-1.067 7.906-6.677 19.983-9.814 19.271-1.084Zm-14.405 20.29h2.005l1.229-5.06c.97-.808 1.665-1.148 2.295-1.148.776 0 1.148.323 1.148.954 0 .226-.08.436-.145.792l-1.116 4.478h1.989l1.148-4.688c.113-.388.145-.695.145-1.051 0-1.196-.63-1.875-2.15-1.875-1.1 0-2.07.5-3.007 1.148h-.065l.356-1.068.792-3.136h-1.988l-2.636 10.654Zm11.528-4.317c.452-1.26 1.535-2.02 2.635-2.02 1.115 0 1.487.646 1.487 1.374 0 .242-.032.453-.097.646h-4.026Zm2.861-3.281c-2.393 0-4.963 1.875-4.963 4.64 0 1.988 1.487 3.136 3.654 3.136 1.293 0 2.376-.356 3.104-.792l-.744-1.051c-.501.307-1.196.582-1.86.582-1.373 0-2.44-.663-2.246-2.231H66.7c.13-.243.388-.922.388-1.568 0-1.52-.776-2.716-2.894-2.716Zm9.264 5.19c-.744.888-1.617 1.26-2.393 1.26-.84 0-1.358-.517-1.358-1.6 0-1.908 1.407-3.525 2.943-3.525.55 0 1.131.275 1.535.906l-.727 2.958Zm-5.804-.114c0 1.73 1.002 2.7 2.587 2.7 1.034 0 2.15-.485 3.007-1.212h.048l-.097 1.034h1.633l1.81-7.42h-1.584l-.388.856h-.032c-.404-.63-1.196-1.034-2.086-1.034-2.522 0-4.898 2.23-4.898 5.076Zm9.522 1.488c0 .76.485 1.212 1.536 1.212a3.96 3.96 0 0 0 1.132-.145l.032-1.213c-.161.049-.226.049-.34.049-.177 0-.306-.098-.306-.324 0-.065 0-.13.032-.29l2.183-8.925h-1.973l-2.166 8.86a2.5 2.5 0 0 0-.13.776Zm5.06-.599c0 1.035.663 1.811 2.377 1.811a5.47 5.47 0 0 0 1.924-.34l-.372-1.147a2.085 2.085 0 0 1-.857.194c-.76 0-1.05-.275-1.05-.809 0-.178.016-.34.048-.533l.922-3.686h2.215l.307-1.278h-2.183l.485-1.988h-1.665l-.728 1.988-1.39.081-.291 1.213h1.277l-.921 3.621c-.049.291-.097.566-.097.873Zm5.675 1.633h2.005l1.229-5.06c.97-.808 1.665-1.148 2.296-1.148.775 0 1.147.323 1.147.954 0 .226-.08.436-.145.792l-1.116 4.478h1.989l1.148-4.688c.113-.388.145-.695.145-1.051 0-1.196-.63-1.875-2.15-1.875-1.1 0-2.07.5-3.007 1.148h-.08l.355-1.068.792-3.136H90.53l-2.619 10.654Z" fill="#A6A6A6"/><path d="M53.767 11.447h1.1l-.017.533h.032c.486-.34 1.019-.63 1.65-.63.808 0 1.164.356 1.164 1.018 0 .178-.033.372-.081.566L57 15.424h-1.342l.582-2.36c.033-.162.081-.275.081-.372 0-.275-.177-.405-.5-.405-.308 0-.6.162-1.02.518l-.63 2.635h-1.374l.97-3.993Zm7.647 1.568c0 .938-.566 1.633-1.229 1.633-.452 0-.679-.291-.679-.776 0-.938.566-1.633 1.229-1.633.437 0 .679.291.679.776Zm-3.266.89c0 .985.744 1.632 1.892 1.632 1.342 0 2.732-1.002 2.732-2.538 0-.986-.76-1.633-1.892-1.633-1.341-.016-2.732.986-2.732 2.538Zm5.675 1.535h1.552l2.49-3.977h-1.326l-1.1 1.956c-.226.404-.436.808-.646 1.213h-.032c-.017-.405-.017-.825-.065-1.213l-.162-1.956h-1.342l.63 3.977Zm6.693-1.39c-.323.452-.711.582-1.05.582-.356 0-.567-.21-.567-.695 0-.954.63-1.682 1.31-1.682.226 0 .485.113.647.372l-.34 1.423Zm-3.023.016c0 .938.517 1.455 1.374 1.455.517 0 1.083-.243 1.52-.614h.032l-.016.517h1.1l.97-3.977h-1.068l-.21.42h-.016c-.194-.323-.614-.517-1.067-.517-1.358 0-2.62 1.212-2.62 2.716Zm6.515.695c.404.501 1.148.776 1.746.776 1.18 0 2.021-.533 2.021-1.31 0-.55-.436-.856-1.018-1.115-.388-.178-.809-.307-.809-.55 0-.21.259-.371.63-.371.34 0 .631.161.874.355l.743-.566c-.404-.34-.937-.614-1.6-.614-1.05 0-1.892.55-1.892 1.31 0 .5.437.856.987 1.099.55.258.84.355.84.598 0 .21-.323.372-.695.372-.356 0-.711-.162-1.05-.501l-.777.517Zm4.285-.857c0 1.035.824 1.633 1.907 1.633a2.88 2.88 0 0 0 1.633-.469l-.566-.679c-.21.13-.436.259-.776.259-.55 0-.824-.291-.824-.776 0-.89.63-1.633 1.406-1.633.275 0 .453.08.647.259l.744-.647c-.243-.243-.696-.485-1.31-.485-1.584-.016-2.861 1.148-2.861 2.538Zm7.258-.889c0 .938-.565 1.633-1.228 1.633-.453 0-.68-.291-.68-.776 0-.938.567-1.633 1.213-1.633.453 0 .696.291.696.776Zm-3.265.89c0 .985.743 1.632 1.891 1.632 1.342 0 2.733-1.002 2.733-2.538 0-.986-.76-1.633-1.892-1.633-1.358-.016-2.732.986-2.732 2.538Zm5.303.581c0 .615.404 1.051 1.39 1.051.501 0 .89-.097 1.148-.178l-.243-.776a1.11 1.11 0 0 1-.404.081c-.34 0-.501-.13-.501-.388 0-.08 0-.162.016-.259l.42-1.713h1.148l.21-.857h-1.115l.242-1.051h-1.13l-.42 1.05-.712.05-.194.808h.647l-.42 1.665c-.033.178-.081.34-.081.517Zm4.284-4.155c0 .356.372.534.727.534.47 0 .841-.275.841-.647 0-.34-.356-.533-.727-.533-.47 0-.841.29-.841.646Zm-1.18 5.11h1.342l.97-3.978h-1.342l-.97 3.977Zm5.335-1.391c-.324.452-.712.582-1.051.582-.356 0-.566-.21-.566-.695 0-.954.63-1.682 1.31-1.682.226 0 .485.113.646.372l-.34 1.423Zm-3.007.016c0 .938.517 1.455 1.374 1.455.517 0 1.083-.243 1.52-.614h.032l-.016.517h1.1l.97-3.977h-1.068l-.21.42h-.016c-.194-.323-.614-.517-1.067-.517-1.358 0-2.62 1.212-2.62 2.716Z" fill="#A6A6A6"/></svg>