<svg width="135" height="54" viewBox="0 0 135 54" fill="none" xmlns="http://www.w3.org/2000/svg"><path fill-rule="evenodd" clip-rule="evenodd" d="M55.786 17.023c0-6.372 5.163-11.535 11.534-11.535 6.37 0 11.536 5.163 11.536 11.535 0 6.37-5.166 11.533-11.536 11.533-6.371 0-11.534-5.163-11.534-11.533Z" fill="#A6A6A6"/><path fill-rule="evenodd" clip-rule="evenodd" d="M57.38 17.023c0-5.49 4.454-9.937 9.94-9.937s9.938 4.447 9.938 9.937c0 5.487-4.452 9.936-9.938 9.936-5.487 0-9.94-4.449-9.94-9.936Z" fill="#767676"/><path fill-rule="evenodd" clip-rule="evenodd" d="M65.63 21.247v-1.981s0-.22-.11-.22-.166.205-.166.205l-.795 1.995h-2.314l1.387-3.27h2.933s.314.004.421.055c.161.07.334.238.334.238s.174-.168.332-.238c.107-.051.421-.056.421-.056h2.933l1.384 3.271h-2.31l-.796-1.995s-.056-.206-.164-.206c-.111 0-.111.22-.111.22v1.982H65.63Zm1.69-3.319s.12-.139.332-.217c.11-.045.421-.058.421-.058h2.933l1.522-2.86s-.516.098-.698-.01c-.212-.128-.127-1.034-.127-1.034s-.697.443-.934.366c-.19-.06-.35-.403-.35-.403s-1.172 2.3-1.336 2.31c-.109.006-.093-.22-.093-.22l.057-3.537s-.748.45-.935.404c-.334-.075-.792-1.448-.792-1.448s-.459 1.373-.791 1.448c-.191.045-.936-.404-.936-.404l.06 3.536s.014.227-.096.222c-.164-.01-1.338-2.311-1.338-2.311s-.157.343-.35.403c-.234.077-.932-.366-.932-.366s.085.906-.128 1.034c-.18.107-.7.01-.7.01l1.523 2.86h2.933s.31.013.421.058a.878.878 0 0 1 .334.217Z" fill="#A6A6A6"/><path d="m10.466 33.018-2.02 3.043-2.01-3.043h-.779v5.377h.873v-3.727l1.915 2.854s1.56-2.322 1.914-2.854v3.727h.875v-5.377h-.768Zm4.617 1.055c-1.478 0-2.55.934-2.55 2.22 0 1.29 1.072 2.227 2.55 2.227 1.484 0 2.56-.938 2.56-2.227 0-1.286-1.076-2.22-2.56-2.22Zm0 3.62c-.982 0-1.667-.575-1.667-1.4 0-.826.685-1.402 1.667-1.402.987 0 1.678.576 1.678 1.402 0 .824-.69 1.4-1.678 1.4Zm6.61-3.513v2.592l-2.346-2.592h-.501v4.215h.854V35.81l2.346 2.586h.501V34.18h-.854Zm5.304 0v2.592c-.359-.394-2.346-2.592-2.346-2.592h-.5v4.215h.853V35.81c.358.396 2.347 2.586 2.347 2.586h.501V34.18h-.855Zm4.313 0h-.467L28.7 38.395h.933l.514-1.008h1.945c.06.115.515 1.008.515 1.008h.941l-2.163-4.215h-.075Zm.38 2.437h-1.151c.12-.235.438-.857.58-1.13.137.273.454.895.57 1.13Zm2.8-2.448v4.238h.875v-4.238h-.875Zm3.342 2.397h2.038v-.815h-2.038v-.745h3.103v-.826h-3.969v4.215h4.14v-.818h-3.274v-1.01Zm12.131-1.15c0-.756-.544-1.227-1.418-1.227H45.69v4.206h.863v-1.733h1.544l1.124 1.733h.964s-1.038-1.638-1.155-1.826c.54-.16.933-.587.933-1.153Zm-3.41-.41h1.992c.533 0 .533.308.533.41 0 .105 0 .418-.533.418h-1.992v-.829Zm6.974-.933c-1.482 0-2.551.934-2.551 2.22 0 1.29 1.07 2.227 2.55 2.227 1.483 0 2.561-.938 2.561-2.227 0-1.286-1.078-2.22-2.56-2.22Zm0 3.62c-.983 0-1.669-.575-1.669-1.4 0-.826.686-1.402 1.669-1.402.986 0 1.674.576 1.674 1.402 0 .824-.688 1.4-1.674 1.4Zm7.331-3.513h-.885l-1.242 1.352c-.154-.17-1.257-1.352-1.257-1.352h-1.138l1.97 2.113v2.102h.855v-2.112l1.98-2.103h-.283Zm2.512 0h-.462l-2.146 4.215h.93s.456-.893.518-1.008h1.943c.06.115.515 1.008.515 1.008h.942l-2.164-4.215h-.076Zm.384 2.437H62.6c.119-.235.439-.857.578-1.13.138.273.454.895.575 1.13Zm3.653-2.437h-.866v4.215h3.818v-.818h-2.952V34.18Zm4.942 2.386h2.035v-.815H72.35v-.745h3.104v-.826h-3.971v4.215h4.142v-.818h-3.276v-1.01Zm11.576.323c-.387.546-.878.803-1.549.803-.947 0-1.638-.588-1.638-1.4 0-.812.692-1.401 1.638-1.401.627 0 1.14.234 1.445.654l.069.095.698-.48-.072-.102c-.455-.623-1.233-.985-2.14-.985-1.46 0-2.522.938-2.522 2.23 0 1.285 1.063 2.217 2.522 2.217.976 0 1.774-.409 2.247-1.152l.063-.1-.691-.479-.07.1Zm3.935-2.709h-.464l-2.143 4.215h.931s.456-.893.516-1.008h1.943c.061.115.516 1.008.516 1.008h.943l-2.163-4.215h-.078Zm.382 2.437h-1.15l.578-1.13c.14.273.455.895.572 1.13Zm5.649-2.437v2.592c-.36-.394-2.347-2.592-2.347-2.592h-.5v4.215h.856V35.81c.356.396 2.346 2.586 2.346 2.586h.5V34.18h-.855Zm4.219 0h-.468L95.5 38.395h.931s.455-.893.516-1.008h1.944c.06.115.514 1.008.514 1.008h.942l-2.165-4.215h-.073Zm.38 2.437h-1.152l.58-1.13.571 1.13Zm4.493-2.437H101.1v4.215h1.883c1.39 0 2.285-.82 2.285-2.093 0-1.27-.917-2.122-2.285-2.122Zm.01 3.397h-1.029v-2.582h1.029c.833 0 1.393.522 1.393 1.297 0 .806-.523 1.285-1.393 1.285Zm3.496-3.408v4.238h.874v-4.238h-.874Zm3.339 2.397h2.04v-.815h-2.04v-.745h3.106v-.826h-3.97v4.215h4.142v-.818h-3.278v-1.01Zm7.25-2.386v2.592c-.358-.394-2.345-2.592-2.345-2.592h-.503v4.215h.855V35.81l2.346 2.586h.503V34.18h-.856Zm5.115 0v2.592c-.362-.394-2.349-2.592-2.349-2.592h-.498v4.215h.853V35.81l2.346 2.586h.502V34.18h-.854Zm3.121 3.397v-1.01h2.037v-.816h-2.037v-.745h3.103v-.826h-3.968v4.215h4.14v-.818h-3.275ZM25.92 48.152h.986l-1.318-2.312c.696-.196 1.163-.774 1.163-1.512 0-.973-.646-1.553-1.732-1.553h-3.063v5.377h.881v-2.246h1.797l1.285 2.246Zm-3.083-4.538h2.173c.534 0 .828.258.828.731 0 .483-.28.716-.856.716h-2.145v-1.447Zm9.885 2.436c0-1.283-1.076-2.217-2.56-2.217-1.478 0-2.55.934-2.55 2.217 0 1.291 1.073 2.23 2.55 2.23 1.485 0 2.56-.939 2.56-2.23Zm-2.56-1.4c.988 0 1.677.577 1.677 1.4 0 .824-.69 1.402-1.676 1.402-.983 0-1.667-.578-1.667-1.402 0-.823.684-1.4 1.667-1.4Zm7.331-.712h-.881l-1.244 1.35-1.258-1.35h-1.135l1.967 2.112v2.102h.854v-2.11c.066-.068 1.98-2.104 1.98-2.104h-.283Zm2.513 0h-.466l-2.143 4.214h.932l.514-1.008h1.943l.517 1.008h.942l-2.163-4.214h-.076Zm.382 2.437h-1.151c.119-.234.438-.855.577-1.131l.574 1.131Zm6.607.961h-2.95v-3.398h-.866v4.214h3.816v-.816Zm8.405-.998c-.383.72-.983 1.105-1.737 1.105-1.088 0-1.878-.828-1.878-1.965 0-1.141.79-1.971 1.878-1.971.704 0 1.307.34 1.605.915l.065.125.743-.532-.064-.096c-.508-.801-1.365-1.259-2.35-1.259-1.61 0-2.78 1.186-2.78 2.818 0 1.628 1.17 2.807 2.78 2.807 1.095 0 1.968-.515 2.47-1.453l.05-.093-.713-.53-.069.13Zm2.631.806h1.945l.513 1.008h.943l-2.164-4.214h-.539l-2.144 4.214h.933s.456-.89.513-1.008Zm.392-.769c.123-.234.44-.855.58-1.131.14.276.453.898.573 1.131h-1.153Zm6.8-2.437v2.595l-2.346-2.595h-.502v4.214h.855v-2.584l2.348 2.584h.5v-4.214h-.855Zm4.293 0h-.542l-2.142 4.214h.931s.453-.89.516-1.008h1.944l.514 1.008h.944l-2.165-4.214Zm.307 2.437H68.67c.12-.234.44-.855.58-1.131.138.276.453.898.573 1.131Zm4.589-2.437h-1.884v4.214h1.884c1.387 0 2.284-.819 2.284-2.092 0-1.269-.918-2.122-2.284-2.122Zm.009 3.398h-1.03v-2.582h1.03c.832 0 1.392.52 1.392 1.296 0 .805-.52 1.286-1.392 1.286Zm3.497-3.405v4.232h.872v-4.232h-.872Zm3.177 3.213h1.943l.516 1.008h.943l-2.164-4.214h-.542l-2.144 4.214h.933l.515-1.008Zm.393-.769c.12-.234.439-.855.578-1.131l.572 1.131h-1.15Zm4.616-.807 2.345 2.584h.502v-4.214h-.855v2.595l-2.345-2.595h-.501v4.214h.854v-2.584Zm12.477-1.141v3.725h.874v-5.377h-.772l-2.018 3.043-2.01-3.043h-.778v5.377h.874v-3.725c.356.528 1.914 2.854 1.914 2.854s1.56-2.326 1.916-2.854Zm3.396-.496h-.873v4.232h.873v-4.232Zm2.469 1.637c.357.396 2.345 2.584 2.345 2.584h.5v-4.214h-.854v2.595l-2.348-2.595h-.5v4.214h.856l.001-2.584Zm5.57 2.584h.865v-3.415h1.677v-.799h-4.218v.799h1.676v3.415Z" fill="#A6A6A6"/></svg>