<svg xmlns="http://www.w3.org/2000/svg" width="207" height="203" viewBox="0 0 207 203">
	<filter xmlns="http://www.w3.org/2000/svg" x="-31.9%" y="-33.1%" width="163.7%" height="166.2%" filterUnits="objectBoundingBox" id="filter-5">
		<feOffset dx="3" dy="3" in="SourceAlpha" result="shadowOffsetOuter1"/>
		<feGaussianBlur stdDeviation="12.5" in="shadowOffsetOuter1" result="shadowBlurOuter1"/>
		<feColorMatrix values="0 0 0 0 0   0 0 0 0 0   0 0 0 0 0  0 0 0 0.247568837 0" type="matrix" in="shadowBlurOuter1" result="shadowMatrixOuter1"/>
		<feMerge>
			<feMergeNode in="shadowMatrixOuter1"/>
			<feMergeNode in="SourceGraphic"/>
		</feMerge>
	</filter>
	<g filter="url(#filter-5)"><path fill="#eaf4fe" d="M24.655 86.165c2.518-8.937 49.144 3.168 57.29-11.994 4.912-9.146-9.337-18.6-5.33-33.319 4.155-15.26 25.596-27.58 39.97-22.99 12.42 3.967 10.14 17.55 26.313 40.316 20.834 29.326 40.353 28.938 40.635 43.98.298 15.898-21.488 17.285-39.636 50.977-8.025 14.898-6.908 20.461-14.323 24.656-13.461 7.615-24.51-6.556-52.959-5.664-20.842.652-24.98 8.573-36.639 3.998-14.432-5.664-25.893-24.787-22.316-39.316 3.781-15.355 22.534-18.16 21.983-29.986-.502-10.8-16.467-15.408-14.988-20.658"/></g><g><path fill="#c1c1c1" d="M159.374 128.699h-2.284v-2.285a.714.714 0 1 0-1.428 0v2.285h-1.998a.714.714 0 0 0 0 1.428h1.998v2.284a.714.714 0 1 0 1.428 0v-2.284h2.284a.714.714 0 0 0 0-1.428"/></g><g><path fill="#fe9595" d="M116.214 36.92a.714.714 0 0 1-.714-.714v-5.712a.714.714 0 1 1 1.428 0v5.712c0 .394-.32.714-.714.714"/></g><g><path fill="#fe9595" d="M119.204 33.918h-5.71a.714.714 0 1 1 0-1.428h5.71a.714.714 0 0 1 0 1.428"/></g><g><path fill="#fe9595" d="M180.774 99.962a.576.576 0 0 1-.566-.471c-.664-3.612-1.057-4.004-4.667-4.67a.575.575 0 0 1 0-1.13c3.61-.666 4.003-1.058 4.667-4.67a.576.576 0 0 1 1.132 0c.665 3.612 1.057 4.004 4.667 4.67a.575.575 0 0 1 0 1.13c-3.61.666-4.002 1.058-4.667 4.67a.575.575 0 0 1-.566.471m-2.693-5.7c1.459.504 2.19 1.235 2.693 2.695.504-1.46 1.235-2.192 2.693-2.696-1.458-.504-2.189-1.236-2.693-2.696-.504 1.46-1.234 2.192-2.693 2.696"/></g><g><path fill="#ced3e2" d="M47.444 35.372a.57.57 0 0 1-.55-.42c-1.102-3.988-1.868-4.754-5.855-5.856a.571.571 0 0 1 0-1.1c3.987-1.102 4.753-1.868 5.855-5.857a.57.57 0 0 1 1.1 0c1.102 3.989 1.867 4.755 5.855 5.856a.571.571 0 0 1 0 1.101c-3.988 1.102-4.753 1.868-5.855 5.856a.57.57 0 0 1-.55.42m-4.329-6.826c2.41.868 3.457 1.917 4.324 4.33.866-2.413 1.914-3.462 4.324-4.33-2.41-.868-3.458-1.918-4.324-4.33-.867 2.413-1.915 3.462-4.324 4.33"/></g><g><path fill="#fff" d="M132.9 70.515v78.965a6.663 6.663 0 0 1-6.662 6.663H60.622a6.665 6.665 0 0 1-6.662-6.663V58.854a6.663 6.663 0 0 1 6.662-6.664h53.958z"/></g><g><path fill="#3a5c91" d="M60.63 157.142c-4.223 0-7.66-3.437-7.66-7.662V58.853c0-4.225 3.437-7.663 7.66-7.663h53.96c.265 0 .519.105.706.293l18.32 18.325a.999.999 0 0 1 .292.707v78.965c0 4.225-3.436 7.662-7.66 7.662zm0-103.953a5.67 5.67 0 0 0-5.662 5.664v90.627a5.67 5.67 0 0 0 5.663 5.664h65.616a5.67 5.67 0 0 0 5.663-5.664V70.929l-17.734-17.74z"/></g><g><path fill="#141414" d="M133.907 70.51l-18.611-17.367a.999.999 0 0 0-1.706.707v13.327a6.003 6.003 0 0 0 5.995 5.997h13.324c.404 0 .843-.269.998-.642z"/></g><g><path fill="#ffd599" d="M132.91 70.515h-13.324a4.997 4.997 0 0 1-4.996-4.998V52.19z"/></g><g><path fill="#3a5c91" d="M133.615 69.809a.99.99 0 0 1 .216 1.086.993.993 0 0 1-.922.62h-13.324a6.005 6.005 0 0 1-5.995-5.998V52.19c0-.406.243-.77.616-.923a.993.993 0 0 1 1.09.217zm-3.116-.283l-14.912-14.924v10.923c0 2.204 1.796 4 3.998 4z"/></g><g><path fill="#afbdd4" d="M105.929 72.18h-35.64a1 1 0 0 1 0-2h35.64a1 1 0 0 1 0 2"/></g><g><path fill="#afbdd4" d="M116.587 84.84H70.29a1 1 0 0 1 0-2h46.298a1 1 0 0 1 0 2"/></g><g><path fill="#afbdd4" d="M116.587 97.5H70.29a1 1 0 0 1 0-2h46.298a1 1 0 0 1 0 2"/></g><g><path fill="#afbdd4" d="M116.587 110.16H70.29a1 1 0 0 1 0-2h46.298a1 1 0 0 1 0 2"/></g><g><path fill="#afbdd4" d="M116.587 122.82H70.29a1 1 0 0 1 0-2h46.298a1 1 0 0 1 0 2"/></g><g><path fill="#afbdd4" d="M116.587 135.48H70.29a1 1 0 0 1 0-2h46.298a1 1 0 0 1 0 2"/></g><g><path fill="#141414" d="M132.91 115.99v25.392l-25.075 9.732c-.15.06-.303.107-.456.15-.18.103-.387.16-.6.14l-.126-.013c-.53.05-1.063 0-1.58-.15l-20.667-1.963a.97.97 0 0 1-.31-.083.992.992 0 0 1-.526-.55.995.995 0 0 1 .183-1.03l14.809-16.568a.978.978 0 0 1 .686-.33c.18-.104.367-.197.566-.277l28.299-10.985a2.87 2.87 0 0 1 1.805-2.306z"/></g><g><path fill="#ff9797" d="M136.587 108.81L122.06 94.278l2.245-2.246a5.229 5.229 0 0 1 7.396 0l7.13 7.134a5.232 5.232 0 0 1 0 7.398z"/></g><g><path fill="#3a5c91" d="M135.89 109.516l-14.527-14.532a.999.999 0 0 1 0-1.413l2.245-2.246a6.186 6.186 0 0 1 4.404-1.825c1.664 0 3.228.648 4.404 1.825l7.132 7.134a6.19 6.19 0 0 1 1.824 4.405 6.19 6.19 0 0 1-1.824 4.406l-2.245 2.246a.996.996 0 0 1-1.413 0zm-12.408-15.238l13.114 13.118 1.539-1.54a4.205 4.205 0 0 0 1.239-2.992c0-1.13-.44-2.193-1.24-2.992l-7.13-7.133a4.201 4.201 0 0 0-2.992-1.24c-1.13 0-2.192.44-2.991 1.24z"/></g><g><path fill="#e0f5ff" d="M127.712 116.84l-13.735-13.738a1.869 1.869 0 0 1 0-2.642l5.81-5.813c.73-.73 1.913-.73 2.642 0l13.734 13.74c.73.729.73 1.912 0 2.641l-5.81 5.813c-.73.73-1.912.73-2.641 0"/></g><g><path fill="#3a5c91" d="M127.003 117.546l-13.735-13.74a2.872 2.872 0 0 1 0-4.055l5.811-5.812a2.87 2.87 0 0 1 4.055 0l13.734 13.739a2.872 2.872 0 0 1 0 4.055l-5.81 5.813a2.857 2.857 0 0 1-2.028.838c-.734 0-1.468-.28-2.027-.838zm1.413-1.414c.34.34.89.339 1.228 0l5.811-5.812a.87.87 0 0 0 0-1.229L121.72 95.352a.87.87 0 0 0-1.228 0l-5.81 5.813a.87.87 0 0 0 0 1.229l13.734 13.738z"/></g><g><path fill="#fff" d="M135.499 109.042l-13.734-13.739a.93.93 0 0 0-1.321 0l-5.811 5.813a.936.936 0 0 0 0 1.321c5.57-2.96 11.942-2.675 20.866 7.926a.935.935 0 0 0 0-1.321"/></g><g><path fill="#ffde8c" d="M84.26 146.557l6.867-21.137 14.464 14.056z"/></g><g><path fill="#3a5c91" d="M83.555 147.265a1 1 0 0 1-.246-1.018l6.867-21.137a1 1 0 0 1 1.647-.407l14.464 14.056a1 1 0 0 1-.382 1.665l-21.331 7.08a.996.996 0 0 1-1.02-.239zm8.026-20.01l-5.76 17.73 17.893-5.94z"/></g><g><path fill="#ebc465" d="M103.658 139.272l-6.231-5.692-11.707 11.524z"/></g><g><path fill="#3a5c91" d="M84.26 146.564l1.585-5.284 3.698 3.699z"/></g><g><path fill="#a4e4ff" d="M118.467 107.59l-21.922 21.93a3.364 3.364 0 0 0 0 4.755 3.36 3.36 0 0 0 4.754 0l21.922-21.93z"/></g><g><path fill="#3a5c91" d="M95.837 134.981a4.335 4.335 0 0 1-1.277-3.084c0-1.166.454-2.261 1.277-3.085l21.923-21.93a.999.999 0 0 1 1.413 0l4.754 4.756a1 1 0 0 1 0 1.414l-21.922 21.93a4.333 4.333 0 0 1-3.084 1.277 4.333 4.333 0 0 1-3.084-1.278zm22.63-25.978L97.25 130.225a2.348 2.348 0 0 0-.692 1.672c0 .631.246 1.224.692 1.67.922.922 2.42.922 3.342 0l21.215-21.222z"/></g><g><path fill="#b5e9ff" d="M113.707 102.83l-21.922 21.93a3.361 3.361 0 1 0 4.754 4.756l21.922-21.93z"/></g><g><path fill="#3a5c91" d="M91.085 130.22a4.368 4.368 0 0 1 0-6.169l21.922-21.93a1.028 1.028 0 0 1 1.413 0l4.755 4.757a.998.998 0 0 1 0 1.413l-21.922 21.93a4.347 4.347 0 0 1-3.084 1.275 4.345 4.345 0 0 1-3.084-1.276zm22.629-25.978l-21.216 21.223a2.367 2.367 0 0 0 0 3.342c.921.922 2.42.921 3.341 0l21.216-21.223z"/></g><g><path fill="#87dbff" d="M123.217 112.34l-21.922 21.93a3.364 3.364 0 0 0 0 4.755 3.36 3.36 0 0 0 4.754 0l21.922-21.93z"/></g><g><path fill="#3a5c91" d="M100.587 139.741a4.335 4.335 0 0 1-1.277-3.084c0-1.166.454-2.261 1.277-3.085l21.923-21.93a.999.999 0 0 1 1.413 0l4.754 4.756a1 1 0 0 1 0 1.414l-21.922 21.93a4.33 4.33 0 0 1-3.084 1.277 4.332 4.332 0 0 1-3.084-1.278zm22.63-25.979L102 134.986a2.367 2.367 0 0 0 0 3.343c.447.446 1.04.692 1.671.692s1.224-.246 1.67-.692l21.216-21.225z"/></g><g><path fill="#fff" d="M133.168 98.549c-.696.762-2.587.167-4.225-1.329-1.638-1.496-2.401-3.326-1.706-4.088.696-.762 2.587-.167 4.225 1.329 1.637 1.496 2.401 3.326 1.706 4.088"/></g>
</svg>