<svg xmlns="http://www.w3.org/2000/svg" width="190" height="183" viewBox="0 0 190 183">
    <filter xmlns="http://www.w3.org/2000/svg" x="-27.0%" y="-27.0%" width="154.0%" height="154.0%" filterUnits="objectBoundingBox" id="filter-2">
        <feOffset dx="3" dy="3" in="SourceAlpha" result="shadowOffsetOuter1"/>
        <feGaussianBlur stdDeviation="12.5" in="shadowOffsetOuter1" result="shadowBlurOuter1"/>
        <feColorMatrix values="0 0 0 0 0   0 0 0 0 0   0 0 0 0 0  0 0 0 0.249684154 0" type="matrix" in="shadowBlurOuter1" result="shadowMatrixOuter1"/>
        <feMerge>
            <feMergeNode in="shadowMatrixOuter1"/>
            <feMergeNode in="SourceGraphic"/>
        </feMerge>
    </filter>
    <defs><clipPath id="h8lia"><path d="M-8 192h200V-8H-8z"/></clipPath></defs>
    <g filter="url(#filter-2)"><path fill="#eaf4fe" d="M166.5 92c0 20.573-10.541 34.44-24.023 47.922s-28.89 19.333-49.462 19.333c-20.573 0-43.705-12.518-57.187-26-13.481-13.482-18.688-8.094-18.688-28.666 0-20.573 8.698-51.787 22.18-65.268C52.802 25.839 71.427 17.5 92 17.5c20.572 0 18.612 27.607 32.094 41.089C137.576 72.07 166.499 71.427 166.499 92"/></g><g><path fill="#c1c1c1" d="M154.669 121.32h-2.286v-2.286a.714.714 0 1 0-1.429 0v2.286h-2a.714.714 0 0 0 0 1.429h2v2.285a.714.714 0 0 0 1.429 0v-2.285h2.286a.714.714 0 0 0 0-1.429"/></g><g><path fill="#fe9595" d="M111.474 29.503a.714.714 0 0 1-.714-.714v-5.715a.714.714 0 0 1 1.429 0v5.715c0 .394-.32.714-.715.714"/></g><g><path fill="#fe9595" d="M114.479 26.499h-5.715a.714.714 0 0 1 0-1.429h5.715a.714.714 0 0 1 0 1.429"/></g><g><path fill="#fe9595" d="M157.519 99.797a.576.576 0 0 1-.567-.471c-.665-3.613-1.058-4.006-4.67-4.671a.575.575 0 0 1 0-1.132c3.612-.666 4.005-1.058 4.67-4.672a.576.576 0 0 1 1.133 0c.665 3.614 1.058 4.006 4.67 4.672a.575.575 0 0 1 0 1.132c-3.612.665-4.005 1.058-4.67 4.67a.575.575 0 0 1-.566.472m-2.693-5.708c1.459.503 2.189 1.234 2.693 2.692.503-1.458 1.234-2.189 2.692-2.692-1.458-.504-2.189-1.235-2.692-2.693-.504 1.458-1.234 2.189-2.693 2.693"/></g><g><path fill="#fdc23f" d="M21.893 74.91a1.71 1.71 0 0 1-1.57-.718l-6.16-8.658a1.71 1.71 0 0 1-.164-1.719 1.71 1.71 0 0 1 1.406-1l10.578-1.007c.621-.06 1.208.21 1.57.718a1.71 1.71 0 0 1 .164 1.72L23.3 73.907a1.724 1.724 0 0 1-.58.7 1.723 1.723 0 0 1-.827.301zm-6.847-10.616a.566.566 0 0 0 .054.573l6.16 8.657a.566.566 0 0 0 .524.24c.1-.01.344-.062.469-.335l4.417-9.663a.565.565 0 0 0-.055-.573.566.566 0 0 0-.523-.24L15.515 63.96a.566.566 0 0 0-.47.334z"/></g><g><path fill="#ced3e2" d="M42.659 27.948a.571.571 0 0 1-.55-.42c-1.103-3.99-1.87-4.757-5.86-5.859a.571.571 0 0 1 0-1.101c3.99-1.102 4.757-1.868 5.86-5.859a.571.571 0 0 1 1.1 0c1.103 3.99 1.87 4.757 5.86 5.859a.571.571 0 0 1 0 1.101c-3.99 1.103-4.757 1.869-5.86 5.86a.571.571 0 0 1-.55.419m-4.332-6.83c2.414.869 3.464 1.919 4.332 4.333.868-2.414 1.918-3.464 4.332-4.332-2.414-.868-3.464-1.918-4.332-4.332-.868 2.414-1.918 3.464-4.332 4.332"/></g><g><path fill="#3a5c91" d="M146.89 154h-42.881c-.49 0-.945-.331-1.032-.814a1 1 0 0 1 .983-1.186h42.88c.491 0 .946.331 1.033.814a1 1 0 0 1-.984 1.186"/></g><g><path fill="#3a5c91" d="M43.482 152h-6.415c-.491 0-.945.333-1.03.817A1 1 0 0 0 37.02 154h6.462a1 1 0 1 0 0-2"/></g><g><path fill="#3a5c91" d="M93.335 152H51.98a1 1 0 1 0 0 2h41.317c.485 0 .929-.329 1.02-.805a1.002 1.002 0 0 0-.982-1.195"/></g><g><path fill="#fff" d="M117.733 50.6v95.8a6.6 6.6 0 0 1-6.6 6.6H63a6.6 6.6 0 0 1-6.6-6.6V50.6A6.6 6.6 0 0 1 63 44h48.133a6.6 6.6 0 0 1 6.6 6.6"/></g><g><path fill="#3a5c91" d="M63 154c-4.19 0-7.6-3.41-7.6-7.6V50.6c0-4.19 3.41-7.6 7.6-7.6h48.133c4.19 0 7.6 3.41 7.6 7.6v95.8c0 4.191-3.409 7.6-7.6 7.6zm0-109a5.606 5.606 0 0 0-5.6 5.6v95.8c0 3.088 2.512 5.6 5.6 5.6h48.133c3.088 0 5.6-2.512 5.6-5.6V50.6c0-3.088-2.512-5.6-5.6-5.6z"/></g><g/><g clip-path="url(#h8lia)"><path fill="#c2ddf3" d="M56.4 138.663h61.333V53.33H56.4z"/></g><g clip-path="url(#h8lia)"><path fill="#3a5c91" d="M56.4 139.663a1 1 0 0 1-1-1V53.33a1 1 0 0 1 1-1h61.333a1 1 0 0 1 1 1v85.333a1 1 0 0 1-1 1zm1-2h59.333V54.33H57.4z"/></g><g clip-path="url(#h8lia)"><path d="M60.733 146.168v-95.67c0-3.032 2.492-5.498 5.556-5.498H62.9a5.5 5.5 0 0 0-5.5 5.5v95.667a5.5 5.5 0 0 0 5.5 5.5H66.289c-3.064 0-5.556-2.467-5.556-5.499"/></g><g clip-path="url(#h8lia)"><path d="M113.396 146.168v-95.67c0-3.032-2.492-5.498-5.556-5.498H111.229a5.5 5.5 0 0 1 5.5 5.5v95.667a5.5 5.5 0 0 1-5.5 5.5H107.84c3.064 0 5.556-2.467 5.556-5.499"/></g><g clip-path="url(#h8lia)"><path fill="#fff" d="M87.41 148.55a3.3 3.3 0 1 1 0-6.6 3.3 3.3 0 0 1 0 6.6"/></g><g clip-path="url(#h8lia)"><path fill="#3a5c91" d="M87.41 149.55c-2.371 0-4.3-1.929-4.3-4.3 0-2.371 1.929-4.3 4.3-4.3 2.37 0 4.3 1.929 4.3 4.3 0 2.371-1.93 4.3-4.3 4.3m0-6.6a2.302 2.302 0 0 0-2.3 2.3c0 1.268 1.031 2.3 2.3 2.3 1.268 0 2.3-1.032 2.3-2.3 0-1.268-1.032-2.3-2.3-2.3"/></g><g clip-path="url(#h8lia)"><path d="M110.047 120.333c-.094.434-.46.757-.9.79-.334.027-.66.04-.97.04-3.5 0-6.754-1.486-9.037-4.1-.96.287-1.953.434-2.963.434H57.4V96.83h38.777a10.363 10.363 0 0 1 7.306 3.027 10.268 10.268 0 0 1 3.027 7.306 10.395 10.395 0 0 1-.93 4.287 7.63 7.63 0 0 0-.07 1.047 7.658 7.658 0 0 0 4.03 6.75c.39.21.597.653.507 1.086"/></g><g clip-path="url(#h8lia)"><path fill="#fff" d="M49.503 95.83H96.17a9.311 9.311 0 0 1 6.6 2.733 9.317 9.317 0 0 1 2.603 8.144 9.145 9.145 0 0 1-.766 2.453 8.66 8.66 0 0 0 4.453 8.967 10.987 10.987 0 0 1-9.593-4.23 9.332 9.332 0 0 1-3.297.6H49.503a9.317 9.317 0 0 1-6.6-2.734 9.317 9.317 0 0 1-2.733-6.6c0-5.153 4.18-9.333 9.333-9.333"/></g><g clip-path="url(#h8lia)"><path fill="#3a5c91" d="M108.17 119.163c-3.5 0-6.754-1.485-9.037-4.099-.96.287-1.954.433-2.963.433H49.503a10.28 10.28 0 0 1-7.306-3.026 10.28 10.28 0 0 1-3.027-7.308c0-5.698 4.636-10.333 10.333-10.333H96.17c2.4 0 4.74.842 6.59 2.372.259.216.499.435.718.655a10.277 10.277 0 0 1 3.025 7.306c0 .58-.048 1.157-.144 1.713a10.123 10.123 0 0 1-.785 2.575 7.662 7.662 0 0 0 3.96 7.796 1 1 0 0 1-.395 1.877c-.333.026-.66.04-.969.04m-8.704-6.268a1 1 0 0 1 .791.387 9.944 9.944 0 0 0 5.685 3.632 9.654 9.654 0 0 1-2.323-7.914.999.999 0 0 1 .084-.27c.332-.7.562-1.434.684-2.185.078-.454.116-.916.116-1.383a8.29 8.29 0 0 0-2.44-5.893 8.9 8.9 0 0 0-.581-.53 8.361 8.361 0 0 0-5.312-1.91H49.503c-4.595 0-8.333 3.739-8.333 8.333a8.29 8.29 0 0 0 2.441 5.893 8.29 8.29 0 0 0 5.892 2.44H96.17c1.01 0 2-.18 2.944-.536a1 1 0 0 1 .352-.064"/></g><g clip-path="url(#h8lia)"><path d="M78.4 106.163H49.067a.666.666 0 1 1 0-1.333H78.4a.667.667 0 0 1 0 1.333"/></g><g clip-path="url(#h8lia)"><path d="M78.4 102.003H49.067a.666.666 0 1 1 0-1.333H78.4a.667.667 0 0 1 0 1.333"/></g><g clip-path="url(#h8lia)"><path d="M78.4 110.333H49.067a.667.667 0 0 1 0-1.333H78.4a.667.667 0 0 1 0 1.333"/></g><g clip-path="url(#h8lia)"><path fill="#89d9a2" d="M101.393 105.497a5.667 5.667 0 1 1-11.333 0 5.667 5.667 0 0 1 11.333 0"/></g><g clip-path="url(#h8lia)"><path fill="#3a5c91" d="M97.233 103.67v-.667a1.333 1.333 0 0 0-2.666 0v.667a.666.666 0 0 1-.667.667 1 1 0 0 0 1 1h2a1 1 0 0 0 1-1 .666.666 0 0 1-.667-.667"/></g><g clip-path="url(#h8lia)"><path fill="#3a5c91" d="M98.47 108.837h-5.146a.334.334 0 0 1-.324-.415l.185-.737a2 2 0 0 1 1.94-1.515l.772.333.771-.333a2 2 0 0 1 1.94 1.515l.185.737a.333.333 0 0 1-.323.415"/></g><g clip-path="url(#h8lia)"><path d="M116.724 62.67v20.667l-38.333.333c-1.01 0-2.003-.147-2.963-.433a11.928 11.928 0 0 1-9.037 4.1c-.317 0-.633-.014-.97-.04a1.002 1.002 0 0 1-.9-.79c-.09-.434.117-.877.507-1.087a7.658 7.658 0 0 0 4.03-6.75c0-.36-.024-.71-.07-1.047a10.013 10.013 0 0 1-.787-2.583 10.184 10.184 0 0 1-.143-1.703c0-2.757 1.073-5.35 3.026-7.307a10.364 10.364 0 0 1 7.307-3.027z"/></g><g clip-path="url(#h8lia)"><path fill="#fff" d="M125.067 62.33H78.4a9.311 9.311 0 0 0-6.6 2.733 9.317 9.317 0 0 0-2.603 8.144c.14.863.403 1.686.766 2.453a8.66 8.66 0 0 1-4.453 8.967 10.987 10.987 0 0 0 9.593-4.23c1.027.386 2.137.6 3.297.6h46.667a9.317 9.317 0 0 0 6.6-2.734 9.317 9.317 0 0 0 2.733-6.6c0-5.153-4.18-9.333-9.333-9.333"/></g><g clip-path="url(#h8lia)"><path fill="#3a5c91" d="M65.431 85.624a1 1 0 0 1-.396-1.877 7.661 7.661 0 0 0 3.961-7.796 10.13 10.13 0 0 1-.786-2.584 10.077 10.077 0 0 1-.143-1.704c0-2.756 1.074-5.351 3.025-7.306A10.37 10.37 0 0 1 78.4 61.33h46.667c5.698 0 10.333 4.636 10.333 10.333 0 2.757-1.075 5.352-3.026 7.307a10.279 10.279 0 0 1-7.307 3.027H78.4c-1.008 0-2.002-.145-2.963-.433a11.924 11.924 0 0 1-9.037 4.1c-.314 0-.631-.014-.969-.04zM78.4 63.331a8.361 8.361 0 0 0-5.893 2.44 8.29 8.29 0 0 0-2.325 7.266c.123.759.353 1.495.685 2.195.04.085.069.176.084.27a9.655 9.655 0 0 1-2.322 7.914 9.942 9.942 0 0 0 5.684-3.633 1 1 0 0 1 1.142-.323 8.337 8.337 0 0 0 2.945.536h46.667a8.292 8.292 0 0 0 5.893-2.44 8.29 8.29 0 0 0 2.44-5.893c0-4.594-3.738-8.332-8.333-8.332z"/></g><g clip-path="url(#h8lia)"><path d="M123.06 72.833H93.727a.667.667 0 0 1 0-1.333h29.333a.667.667 0 0 1 0 1.333"/></g><g clip-path="url(#h8lia)"><path d="M123.06 68.663H93.727a.667.667 0 0 1 0-1.333h29.333a.667.667 0 0 1 0 1.333"/></g><g clip-path="url(#h8lia)"><path d="M123.06 77.003H93.727a.667.667 0 0 1 0-1.333h29.333a.667.667 0 0 1 0 1.333"/></g><g clip-path="url(#h8lia)"><path fill="#ff9797" d="M84.393 71.997a5.667 5.667 0 1 1-11.333 0 5.667 5.667 0 0 1 11.333 0"/></g><g clip-path="url(#h8lia)"><path fill="#3a5c91" d="M82.23 75.667h-7l.047-.33c.164-1.15 1.16-1.84 2.31-2.004.295-.042.845-.333 1.143-.333.298 0 .848.291 1.143.333 1.15.165 2.146.854 2.31 2.004z"/></g><g clip-path="url(#h8lia)"><path fill="#3a5c91" d="M78.56 72.167c-.696 0-1.28-.524-1.358-1.215l-.103-.936a1.365 1.365 0 0 1 1.357-1.516h.208c.813 0 1.447.707 1.357 1.516l-.104.936a1.366 1.366 0 0 1-1.357 1.215"/></g>
</svg>