<svg xmlns="http://www.w3.org/2000/svg" width="205" height="199" viewBox="0 0 205 199">
	<filter xmlns="http://www.w3.org/2000/svg" x="-31.2%" y="-33.2%" width="162.3%" height="166.4%" filterUnits="objectBoundingBox" id="filter-1">
			<feOffset dx="3" dy="3" in="SourceAlpha" result="shadowOffsetOuter1"/>
			<feGaussianBlur stdDeviation="12.5" in="shadowOffsetOuter1" result="shadowBlurOuter1"/>
			<feColorMatrix values="0 0 0 0 0   0 0 0 0 0   0 0 0 0 0  0 0 0 0.25 0" type="matrix" in="shadowBlurOuter1" result="shadowMatrixOuter1"/>
			<feMerge>
					<feMergeNode in="shadowMatrixOuter1"/>
					<feMergeNode in="SourceGraphic"/>
			</feMerge>
	</filter>
	<g filter="url(#filter-1)"><path fill="#eaf4fe" d="M129.37 21.667c-53.925-20.09-117.19 41.886-112 69 2.728 14.251 24.108 17.514 29 40.667 3.674 17.39-6.182 25.993-.667 32.333 11.889 13.666 59.553-24.163 87.667-5.723 11.3 7.412 11.801 18.905 19.333 18.723 11.773-.284 22.646-28.656 25-51.333C180.92 94.336 172 37.549 129.37 21.667"/></g><g><path fill="#c1c1c1" d="M19.999 72.99h-2.286v-2.286a.714.714 0 1 0-1.429 0v2.286h-2a.714.714 0 0 0 0 1.429h2v2.285a.714.714 0 1 0 1.429 0V74.42h2.286a.714.714 0 1 0 0-1.429"/></g><g><path fill="#fe9595" d="M97.479 16.734h-2.286v-2a.714.714 0 1 0-1.429 0v2h-2a.714.714 0 1 0 0 1.429h2v2.286a.714.714 0 0 0 1.429 0v-2.286h2.286a.714.714 0 0 0 0-1.429"/></g><g><path fill="#fe9595" d="M181.089 97.567a.576.576 0 0 1-.567-.471c-.665-3.613-1.058-4.006-4.67-4.671a.575.575 0 0 1 0-1.132c3.612-.666 4.005-1.058 4.67-4.671a.576.576 0 0 1 1.133 0c.665 3.613 1.058 4.005 4.67 4.67a.575.575 0 0 1 0 1.133c-3.612.665-4.005 1.058-4.67 4.67a.575.575 0 0 1-.566.472m-2.695-5.708c1.46.503 2.19 1.234 2.695 2.692.504-1.458 1.235-2.189 2.695-2.692-1.46-.504-2.191-1.235-2.695-2.693-.505 1.458-1.236 2.189-2.695 2.693"/></g><g><path fill="#ced3e2" d="M47.659 32.948a.571.571 0 0 1-.55-.42c-1.103-3.99-1.87-4.757-5.86-5.859a.571.571 0 0 1 0-1.101c3.99-1.102 4.757-1.868 5.86-5.859a.571.571 0 0 1 1.1 0c1.103 3.99 1.87 4.757 5.86 5.859a.571.571 0 0 1 0 1.101c-3.99 1.103-4.757 1.869-5.86 5.86a.571.571 0 0 1-.55.419m-4.332-6.83c2.414.869 3.464 1.919 4.332 4.333.868-2.414 1.918-3.464 4.332-4.332-2.414-.868-3.464-1.918-4.332-4.332-.868 2.414-1.918 3.464-4.332 4.332"/></g><g><path fill="#52b6fe" d="M151.562 44.16h8.388a4.053 4.053 0 0 1 4.053 4.054v87.96a4.054 4.054 0 0 1-4.053 4.054H36.724a4.054 4.054 0 0 1-4.054-4.054V48.214a4.054 4.054 0 0 1 4.054-4.054h86.862z"/></g><g><path fill="#3a5c91" d="M32.67 63.334a1 1 0 0 1-1-1v-14.12a5.06 5.06 0 0 1 5.054-5.054h86.862a1 1 0 1 1 0 2H36.724a3.057 3.057 0 0 0-3.054 3.053v14.12a1 1 0 0 1-1 1"/></g><g><path fill="#3a5c91" d="M32.67 68.75a1 1 0 0 1-1-1v-1.5a1 1 0 0 1 2 0v1.5a1 1 0 0 1-1 1"/></g><g><path fill="#3a5c91" d="M159.95 141.228H36.723a5.06 5.06 0 0 1-5.053-5.054V72.667a1 1 0 0 1 2 0v63.507a3.057 3.057 0 0 0 3.053 3.054H159.95a3.057 3.057 0 0 0 3.053-3.054v-87.96a3.057 3.057 0 0 0-3.053-3.054h-8.388a1 1 0 0 1 0-2h8.388a5.06 5.06 0 0 1 5.053 5.053v87.961a5.06 5.06 0 0 1-5.053 5.054"/></g><g><path fill="#fff" d="M125.086 149.958h-11.35a3.243 3.243 0 0 1-3.243-3.242v-6.486H86.172v6.486a3.243 3.243 0 0 1-3.243 3.242H71.58a5.27 5.27 0 0 0-5.269 5.27v2.432h64.045v-2.432a5.27 5.27 0 0 0-5.27-5.27"/></g><g><path fill="#3a5c91" d="M66.31 158.66a1 1 0 0 1-1-1v-2.432a6.277 6.277 0 0 1 6.27-6.27h11.35a2.245 2.245 0 0 0 2.242-2.242v-6.486a1 1 0 0 1 1-1h24.321a1 1 0 0 1 1 1v6.486a2.246 2.246 0 0 0 2.243 2.243h11.35a6.277 6.277 0 0 1 6.27 6.269v2.432a1 1 0 0 1-1 1zm1-2h62.045v-1.432a4.274 4.274 0 0 0-4.27-4.27h-11.349a4.248 4.248 0 0 1-4.243-4.242v-5.486H87.172v5.486a4.248 4.248 0 0 1-4.243 4.243H71.58a4.274 4.274 0 0 0-4.269 4.269z"/></g><g><path fill="#3a5c91" d="M96.707 150.96H82.52a1 1 0 0 1 0-2h14.187a1 1 0 1 1 0 2"/></g><g><path fill="#3a5c91" d="M103.607 150.96h-2.837a1 1 0 1 1 0-2h2.837a1 1 0 1 1 0 2"/></g><g><path fill="#3a5c91" d="M138.873 158.66H54.56a1 1 0 0 1 0-2h84.313a1 1 0 1 1 0 2"/></g><g><path fill="#3a5c91" d="M48.882 158.66H40.37a1 1 0 1 1 0-2h8.512a1 1 0 1 1 0 2"/></g><g><path fill="#fff" d="M159.95 140.232H36.724a4.054 4.054 0 0 1-4.054-4.054v-9.728h131.333v9.728a4.054 4.054 0 0 1-4.053 4.054"/></g><g><path fill="#3a5c91" d="M36.724 141.232a5.06 5.06 0 0 1-5.054-5.053v-9.729a1 1 0 0 1 1-1h131.333a1 1 0 0 1 1 1v9.729a5.06 5.06 0 0 1-5.053 5.053zM33.67 127.45v8.729a3.057 3.057 0 0 0 3.054 3.053H159.95a3.057 3.057 0 0 0 3.053-3.053v-8.729z"/></g><g><path d="M87 145h22.333v-4H87z"/></g><g><path fill="#ffda5e" d="M141.123 110.741a6.08 6.08 0 0 1-6.08 6.08H58.15a6.08 6.08 0 0 1-6.08-6.08v-53.21a6.08 6.08 0 0 1 6.08-6.081h76.893a6.08 6.08 0 0 1 6.08 6.08z"/></g><g><path fill="#3a5c91" d="M58.15 117.821a7.088 7.088 0 0 1-7.08-7.08v-53.21a7.088 7.088 0 0 1 7.08-7.081h76.893a7.088 7.088 0 0 1 7.08 7.08v53.211a7.088 7.088 0 0 1-7.08 7.08zm0-65.371a5.086 5.086 0 0 0-5.08 5.08v53.211a5.086 5.086 0 0 0 5.08 5.08h76.893a5.086 5.086 0 0 0 5.08-5.08v-53.21a5.086 5.086 0 0 0-5.08-5.081z"/></g><g><path fill="#ffc336" d="M119.73 99.056l19.66 15.93c-.996 1.143-2.489 1.705-4.349 1.837H58.146c-1.878-.028-3.294-.756-4.426-1.913l37.256-29.947 3.77-3.033c1.057-.85 2.784-.855 3.842-.004l3.758 3.049h.004l11.857 9.607z"/></g><g><path fill="#3a5c91" d="M135.041 117.816H58.146c-2.009-.03-3.734-.775-5.14-2.214a.999.999 0 0 1 .087-1.478l41.025-32.98c1.43-1.15 3.67-1.152 5.097-.004l3.708 3.008c.02.014.038.028.056.043l11.857 9.607a1 1 0 0 1-1.26 1.554l-11.804-9.565a1.158 1.158 0 0 1-.057-.043l-3.757-3.048c-.685-.551-1.895-.55-2.586.007l-40.089 32.226c.84.585 1.776.87 2.878.887h76.844c1.175-.087 2.111-.354 2.83-.81L119.1 99.827a1 1 0 0 1 1.26-1.554l19.661 15.93a1 1 0 0 1 .124 1.435c-1.123 1.287-2.816 2.02-5.032 2.176a.992.992 0 0 1-.07.003"/></g><g><path fill="#fdc24f" d="M56.99 51.56h81.75c1.358 0 1.61.705.564 1.569l-.04.036-36.916 31.808h-.004l-3.778 3.255c-1.046.863-2.756.863-3.802 0l-3.79-3.267-36.899-31.828c-.024-.02-.045-.037-.065-.057.92-.744 1.882-1.356 2.98-1.516"/></g><g><path fill="#3a5c91" d="M96.659 89.879c-.913 0-1.822-.294-2.532-.88l-3.806-3.28-36.9-31.829a1.533 1.533 0 0 1-.118-.107.998.998 0 0 1 .078-1.485c.86-.694 2.03-1.518 3.463-1.727.048-.007.097-.011.145-.011h81.751c1.497 0 1.973.703 2.124 1.122.15.417.23 1.256-.907 2.204l-.025.023L103 85.73a1.03 1.03 0 0 1-.057.046l-3.726 3.21c-.72.595-1.642.893-2.56.893M55.623 53.147L95.417 87.47c.657.542 1.838.542 2.512-.014l3.762-3.242a1.06 1.06 0 0 1 .057-.045l36.685-31.61H57.067c-.456.077-.923.265-1.445.587"/></g><g><path fill="#e85100" d="M146.345 61.32c-4.402 4.88-11.926 5.267-16.806.866-4.88-4.402-5.267-11.927-.865-16.807 4.402-4.88 11.926-5.267 16.806-.865 4.88 4.402 5.267 11.926.865 16.806"/></g><g><path fill="#3a5c91" d="M137.502 65.922c-3.112 0-6.1-1.149-8.413-3.235a12.59 12.59 0 0 1-4.149-9.335c0-2.624.801-5.138 2.317-7.268a.666.666 0 1 1 1.086.773 11.144 11.144 0 0 0-2.07 6.495c0 3.177 1.352 6.218 3.71 8.345a11.21 11.21 0 0 0 7.519 2.892c3.177 0 6.218-1.352 8.345-3.71a11.208 11.208 0 0 0 2.892-7.52c0-3.176-1.352-6.217-3.709-8.344a11.21 11.21 0 0 0-7.52-2.892c-2.017 0-3.994.54-5.719 1.559a.666.666 0 1 1-.679-1.148 12.574 12.574 0 0 1 6.397-1.744h.001c3.112 0 6.1 1.149 8.413 3.235a12.59 12.59 0 0 1 4.15 9.335c0 3.112-1.15 6.1-3.236 8.413a12.59 12.59 0 0 1-9.335 4.15"/></g><g><path fill="#fff" d="M139.061 59.773h-1.722a.333.333 0 0 1-.334-.333v-8.018a.333.333 0 0 0-.528-.27l-2.27 1.761a.333.333 0 0 1-.537-.263v-1.838c0-.094.04-.184.11-.248l3.581-3.22a.332.332 0 0 1 .222-.084h1.478c.184 0 .333.15.333.333V59.44c0 .184-.149.333-.333.333"/></g><g><path fill="#3a5c91" d="M137.65 35.435a1 1 0 0 1-1-1V22.68a1 1 0 1 1 2 0v11.755a1 1 0 0 1-1 1"/></g><g><path fill="#3a5c91" d="M150.52 40.556a1 1 0 0 1-.743-1.669l7.866-8.736a1 1 0 1 1 1.486 1.338l-7.866 8.736a.997.997 0 0 1-.743.33"/></g><g><path fill="#3a5c91" d="M124.916 40.226a.996.996 0 0 1-.743-.331l-7.866-8.736a1 1 0 0 1 1.486-1.338l7.866 8.736a1 1 0 0 1-.743 1.669"/></g><g><path fill="#3a5c91" d="M117.496 98.313a.996.996 0 0 1-.612-.21l-.417-.323a1 1 0 0 1 1.226-1.58l.416.322a1 1 0 0 1-.613 1.79"/></g>
</svg>