<svg width="300" height="170" viewBox="0 0 300 170" fill="none" xmlns="http://www.w3.org/2000/svg"><path stroke="#280C14" stroke-width=".4" d="M-.003 97.8h300.006"/><path d="M147.497 148.044c52.005 0 94.163-8.307 94.163-18.554 0-10.246-42.158-18.553-94.163-18.553-52.004 0-94.163 8.307-94.163 18.553 0 10.247 42.159 18.554 94.163 18.554Z" fill="#C7C7C7"/><path d="M227.132 99.621c-8.151 6.499-19.448-3.55-16.747-11.77 1.397-4.251 4.71-7.63 5.375-12.125.687-4.64 2.87-6.602 6.438-9.405 1.399-1.1 1.959-3.122 2.61-4.771 1.228-3.113 3.064-5.734 6.018-7.404 3.641-2.06 10.805.718 11.698 5.331 1.083 5.599-6.144 8.249-8.51 11.844-2.03 3.087-.115 7.15-3.09 10.495-4.472 5.023 2.617 13.016-3.792 17.805Z" fill="#88C8FC"/><path d="M218.596 109.107a.33.33 0 0 1-.329-.303c-1.444-15.979 3.4-32.176 13.288-44.436a.33.33 0 0 1 .466-.049.334.334 0 0 1 .048.468c-9.781 12.127-14.573 28.15-13.144 43.958a.331.331 0 0 1-.299.361l-.03.001Z" fill="#29275F"/><path d="M223.211 89.111c-2.199 3.127-3.931 6.632-7.661 7.32-5.633 1.04-12.378 6.44-12.034 13.493-.098 14.362 21.696 14.069 23.379 3.402.794-5.042 2.067-7.241 7.194-7.98 3.07-.442 3.999-3.041 4.863-5.706.801-1.223 1.949-2.166 3.325-2.67 1.951-.714 4.153-.404 6.241-.467 1.842-.055 3.682-.437 5.049-1.659 1.3-1.166 2.152-2.818 2.379-4.663.221-1.836-.236-3.761-1.301-5.395-1.004-1.539-2.527-2.792-4.172-3.442-1.866-.742-3.773-.732-5.502-.012-2.002.828-3.556 2.331-5.108 3.797-.01.011-.022.02-.033.03-1.996 1.894-4.846 2.57-7.669 1.861-3.368-.845-6.576-1.279-8.95 2.091Z" fill="#62B4F2"/><path d="M203.251 122.95a.336.336 0 0 1-.169-.046.334.334 0 0 1-.115-.455c9.261-15.673 23.799-27.353 40.937-32.89a.332.332 0 0 1 .202.632c-16.984 5.487-31.392 17.064-40.571 32.597a.329.329 0 0 1-.284.162Z" fill="#29275F"/><path d="M71.497 105.562c8.15 6.499 19.448-3.55 16.746-11.772-1.397-4.25-4.71-7.63-5.375-12.124-.686-4.64-2.87-6.602-6.437-9.405-1.4-1.1-1.96-3.122-2.61-4.771-1.229-3.114-3.065-5.734-6.019-7.404-3.64-2.06-10.805.717-11.698 5.331-1.083 5.599 6.145 8.249 8.51 11.844 2.03 3.087.115 7.15 3.09 10.495 4.472 5.024-2.617 13.017 3.793 17.806Z" fill="#62B4F2"/><path d="M80.033 115.049a.332.332 0 0 1-.33-.363c1.429-15.81-3.362-31.831-13.144-43.958a.334.334 0 0 1 .049-.468.33.33 0 0 1 .465.05c9.889 12.26 14.733 28.457 13.289 44.436a.332.332 0 0 1-.33.303Z" fill="#29275F"/><path d="M76.789 93.151c2.2 3.127 3.93 6.632 7.661 7.32 5.633 1.04 12.378 6.44 12.034 13.494.098 14.362-21.696 14.069-23.379 3.402-.794-5.042-2.068-7.242-7.194-7.981-3.07-.441-4-3.041-4.864-5.705-.8-1.224-1.948-2.167-3.324-2.67-1.952-.715-4.154-.405-6.241-.467-1.842-.055-3.682-.437-5.05-1.66-1.3-1.166-2.15-2.818-2.378-4.662-.22-1.837.236-3.761 1.3-5.396 1.005-1.538 2.528-2.791 4.173-3.442 1.866-.742 3.773-.731 5.502-.012 2.002.829 3.556 2.332 5.108 3.797l.033.032c1.996 1.893 4.846 2.57 7.669 1.86 3.368-.846 6.576-1.28 8.95 2.09Z" fill="#88C8FC"/><path d="M96.749 126.99a.33.33 0 0 1-.285-.162c-9.178-15.533-23.586-27.11-40.57-32.596a.332.332 0 0 1 .202-.633c17.138 5.537 31.676 17.217 40.937 32.89a.333.333 0 0 1-.284.501Zm135.729 14.455H66.237a3.367 3.367 0 0 1-3.358-3.376v-1.421h172.957v1.421a3.367 3.367 0 0 1-3.358 3.376Z" fill="#29275F"/><path d="M217.792 110.18H80.922L62.88 136.649h172.957l-18.044-26.469Z" fill="#fff"/><path d="M215.436 22.914H83.279a2.293 2.293 0 0 0-2.287 2.298v84.968h136.731V25.212a2.293 2.293 0 0 0-2.287-2.298Z" fill="#29275F"/><path d="M213.539 30.146H85.176v73.264H213.54V30.147Z" fill="#0F67AD"/><path d="M232.478 141.777H66.237c-2.034 0-3.69-1.663-3.69-3.708v-1.42c0-.184.149-.333.331-.333h172.958c.182 0 .33.149.33.333v1.42c.001 2.045-1.654 3.708-3.688 3.708Zm-169.269-4.796v1.088a3.04 3.04 0 0 0 3.028 3.044h166.241a3.04 3.04 0 0 0 3.028-3.044v-1.088H63.209Z" fill="#29275F"/><path d="M235.836 136.981H62.879a.33.33 0 0 1-.273-.52l18.044-26.469a.33.33 0 0 1 .273-.144h136.869c.109 0 .211.054.273.144l18.044 26.469a.335.335 0 0 1 .019.343.33.33 0 0 1-.292.177Zm-172.33-.665h171.703l-17.591-25.804H81.097l-17.591 25.804Z" fill="#29275F"/><path d="M217.723 110.512H80.992a.332.332 0 0 1-.33-.332V25.212a2.627 2.627 0 0 1 2.617-2.63h132.157a2.627 2.627 0 0 1 2.618 2.63v84.968a.332.332 0 0 1-.331.332Zm-136.4-.664h136.07V25.212a1.964 1.964 0 0 0-1.957-1.966H83.279a1.964 1.964 0 0 0-1.956 1.966v84.636Z" fill="#29275F"/><path d="M213.539 103.741H85.176a.332.332 0 0 1-.33-.332V30.145c0-.183.148-.332.33-.332H213.54c.182 0 .33.149.33.332v73.264a.331.331 0 0 1-.33.332Zm-128.032-.665h127.701V30.477H85.507v72.599Z" fill="#29275F"/><path d="M184.524 106.444h-70.333v3.211h70.333v-3.211Z" fill="#fff"/><path d="M143.394 26.45a2.16 2.16 0 0 1-2.154 2.165 2.16 2.16 0 0 1-2.154-2.165 2.16 2.16 0 0 1 2.154-2.166c1.19 0 2.154.97 2.154 2.166Z" fill="#0F67AD"/><path d="M174.158 134.841h-49.602a.331.331 0 0 1-.272-.52l5.174-7.591a.332.332 0 0 1 .273-.144h39.253c.109 0 .211.054.273.144l5.174 7.591a.332.332 0 0 1-.273.52Zm-48.974-.665h48.348l-4.722-6.926h-38.904l-4.722 6.926Zm-26.322-16.901h-9.148a.331.331 0 0 1-.287-.495l2.346-4.199a.33.33 0 0 1 .289-.17h8.788a.331.331 0 0 1 .298.476l-1.988 4.199a.329.329 0 0 1-.298.189Zm-8.583-.664h8.374l1.674-3.535h-8.072l-1.976 3.535Zm24.376.665h-9.147a.331.331 0 0 1-.306-.459l1.728-4.2a.33.33 0 0 1 .305-.205h8.789a.33.33 0 0 1 .313.436l-1.369 4.199a.327.327 0 0 1-.313.229Zm-8.653-.665h8.414l1.152-3.535h-8.111l-1.455 3.535Zm24.446.664h-9.147a.328.328 0 0 1-.262-.13.336.336 0 0 1-.058-.287l1.109-4.2a.33.33 0 0 1 .32-.247h8.788c.098 0 .191.043.253.119.064.076.09.175.072.272l-.749 4.199a.331.331 0 0 1-.326.274Zm-8.717-.664h8.441l.631-3.535h-8.139l-.933 3.535Zm24.511.664h-9.148a.334.334 0 0 1-.247-.111.337.337 0 0 1-.081-.26l.489-4.2a.33.33 0 0 1 .328-.293h8.789a.33.33 0 0 1 .33.342l-.13 4.2a.33.33 0 0 1-.33.322Zm-8.776-.664h8.456l.11-3.535h-8.154l-.412 3.535Zm24.569.664h-9.147a.332.332 0 0 1-.331-.322l-.13-4.199a.333.333 0 0 1 .33-.343h8.789a.33.33 0 0 1 .328.293l.489 4.2a.333.333 0 0 1-.328.371Zm-8.827-.664h8.456l-.412-3.535h-8.154l.11 3.535Zm24.62.664h-9.147a.33.33 0 0 1-.325-.274l-.75-4.199a.335.335 0 0 1 .072-.272.329.329 0 0 1 .253-.119h8.789c.15 0 .281.101.32.247l1.108 4.2a.332.332 0 0 1-.32.417Zm-8.87-.664h8.441l-.933-3.535h-8.14l.632 3.535Zm24.664.664h-9.147a.33.33 0 0 1-.314-.229l-1.369-4.199a.332.332 0 0 1 .314-.436h8.788c.134 0 .254.081.306.205l1.727 4.2a.328.328 0 0 1-.031.311.326.326 0 0 1-.274.148Zm-8.908-.664h8.413l-1.454-3.535h-8.111l1.152 3.535Zm24.701.664h-9.147a.33.33 0 0 1-.299-.19l-1.988-4.199a.333.333 0 0 1 .299-.476h8.788c.12 0 .23.065.288.17l2.347 4.199a.337.337 0 0 1-.003.331.327.327 0 0 1-.285.165Zm-8.938-.664h8.374l-1.976-3.535h-8.071l1.673 3.535Zm-111.514 6.555h-9.147a.331.331 0 0 1-.288-.495l2.347-4.199a.33.33 0 0 1 .288-.17h8.788a.332.332 0 0 1 .299.476l-1.988 4.2a.333.333 0 0 1-.3.188Zm-8.582-.664h8.373l1.673-3.535h-8.071l-1.975 3.535Zm24.375.665h-9.147a.33.33 0 0 1-.306-.459l1.728-4.2a.331.331 0 0 1 .305-.205h8.789a.33.33 0 0 1 .314.435l-1.369 4.2a.33.33 0 0 1-.314.229Zm-8.653-.664h8.413l1.153-3.535h-8.112l-1.454 3.535Zm24.447.664h-9.148a.333.333 0 0 1-.262-.129.337.337 0 0 1-.057-.288l1.108-4.2a.333.333 0 0 1 .32-.247h8.788c.098 0 .191.044.253.119a.335.335 0 0 1 .072.272l-.75 4.2a.328.328 0 0 1-.324.273Zm-8.718-.664h8.441l.631-3.535h-8.138l-.934 3.535Zm24.511.664h-9.147a.33.33 0 0 1-.329-.371l.489-4.199a.33.33 0 0 1 .328-.294h8.788a.334.334 0 0 1 .331.343l-.13 4.2a.33.33 0 0 1-.33.321Zm-8.776-.664h8.456l.109-3.535h-8.153l-.412 3.535Zm24.569.664h-9.147a.332.332 0 0 1-.331-.322l-.13-4.2a.339.339 0 0 1 .093-.242.333.333 0 0 1 .238-.1h8.788a.33.33 0 0 1 .328.293l.489 4.2a.33.33 0 0 1-.328.371Zm-8.827-.664h8.456l-.412-3.535H143.2l.109 3.535Zm24.621.664h-9.147a.33.33 0 0 1-.325-.273l-.75-4.2a.33.33 0 0 1 .325-.391h8.789c.149 0 .281.102.319.247l1.108 4.2c.027.1.005.206-.057.288a.333.333 0 0 1-.262.129Zm-8.871-.664h8.44l-.932-3.535h-8.139l.631 3.535Zm24.664.664h-9.147a.33.33 0 0 1-.314-.229l-1.369-4.199a.33.33 0 0 1 .313-.436h8.789a.33.33 0 0 1 .305.206l1.728 4.2a.334.334 0 0 1-.031.311.329.329 0 0 1-.274.147Zm-8.907-.664h8.413l-1.454-3.535h-8.112l1.153 3.535Zm24.7.663h-9.147a.333.333 0 0 1-.299-.189l-1.988-4.2a.334.334 0 0 1 .298-.476h8.789a.33.33 0 0 1 .288.17l2.347 4.199a.337.337 0 0 1-.003.331.327.327 0 0 1-.285.165Zm-8.938-.664h8.373l-1.975-3.535h-8.072l1.674 3.535Zm24.405.664h-9.147a.332.332 0 0 1-.299-.189l-1.989-4.2a.336.336 0 0 1 .02-.321.33.33 0 0 1 .279-.155h8.788c.12 0 .23.065.289.17l2.347 4.199a.334.334 0 0 1-.288.496Zm-8.938-.664h8.373l-1.975-3.535h-8.072l1.674 3.535Z" fill="#29275F"/><path d="M187.02 17.241v71.353c0 4.246-3.425 7.688-7.649 7.688h-60.027c-4.224 0-7.649-3.442-7.649-7.688V17.24c0-4.245 3.425-7.688 7.649-7.688h60.027c4.223 0 7.649 3.443 7.649 7.688Z" fill="#fff"/><path d="M163.681 13.876c0 1.05-.847 1.901-1.891 1.901a1.897 1.897 0 0 1-1.892-1.901c0-1.05.847-1.902 1.892-1.902 1.044 0 1.891.852 1.891 1.902Z" fill="#88C8FC"/><path d="M171.993 13.876c0 1.05-.847 1.901-1.891 1.901a1.897 1.897 0 0 1-1.892-1.901c0-1.05.847-1.902 1.892-1.902 1.044 0 1.891.852 1.891 1.902Z" fill="#62B4F2"/><path d="M180.305 13.876c0 1.05-.847 1.901-1.891 1.901a1.897 1.897 0 0 1-1.892-1.901c0-1.05.847-1.902 1.892-1.902s1.891.852 1.891 1.902Z" fill="#29275F"/><path d="M179.371 96.615h-60.026c-4.4 0-7.98-3.599-7.98-8.021V17.24c0-4.422 3.58-8.02 7.98-8.02h60.026c4.4 0 7.979 3.598 7.979 8.02v71.353c0 4.422-3.579 8.02-7.979 8.02Zm-60.026-86.73c-4.036 0-7.319 3.3-7.319 7.356v71.353c0 4.056 3.284 7.356 7.319 7.356h60.026c4.035 0 7.318-3.3 7.318-7.356V17.24c0-4.056-3.283-7.356-7.318-7.356h-60.026Z" fill="#29275F"/><path d="M187.02 17.573h-75.325a.331.331 0 0 1-.33-.332c0-.183.148-.332.33-.332h75.325c.182 0 .33.149.33.332a.331.331 0 0 1-.33.332Z" fill="#29275F"/><path d="m137.662 26.937-8.182-3.483-8.18 3.483V7.545h16.362v19.392Zm-1.381 4.557h-18.976v20.6h18.976v-20.6Z" fill="#62B4F2"/><path d="M181.41 31.494h-42.509v1.75h42.509v-1.75Zm0 4.688h-42.509v1.75h42.509v-1.75Zm0 4.686h-42.509v1.75h42.509v-1.75Zm0 4.687h-42.509v1.75h42.509v-1.75Zm-17.942 4.685h-24.567v1.75h24.567v-1.75Zm17.942 9.101h-64.105v1.75h64.105v-1.75Zm0 4.687h-64.105v1.75h64.105v-1.75Zm0 4.686h-64.105v1.75h64.105v-1.75Zm0 4.687h-64.105v1.75h64.105v-1.75Zm-17.942 4.688h-46.163v1.75h46.163v-1.75Z" fill="#C7C7C7"/><path d="M181.148 22.913h-29.515v4.892h29.515v-4.892Z" fill="#62B4F2"/><path d="M151.184 91.827a.328.328 0 0 1-.142-.033l-6.753-3.237a.333.333 0 0 1 .284-.6l6.611 3.169 6.612-3.17a.328.328 0 0 1 .44.158.333.333 0 0 1-.155.443l-6.754 3.237a.33.33 0 0 1-.143.033Z" fill="#29275F"/><path d="M244.073 169.667h-39.185l-10.603-40.176s-10.781-11.446-15.908-19.637c-5.132-8.196-7.118-10.917-7.559-13.591-.389-2.393-3.187-19.758-3.782-23.456a1.273 1.273 0 0 1 .332-1.093.79.79 0 0 1 .16-.15c1.236-.937 4.245-2.185 7.667 3.751 3.943 6.839 4.515 15.472 4.601 17.48l1.396 2.37 3.817 6.47 4.772 8.087s5.076-.943 8.549-5.096l-4.767-8.087-3.816-6.47-1.499-2.549-.017-.023-10.254-14.5s-5.047-2.197-10.02-4.555c-4.973-2.358-6.563-10.555-2.941-9.997 1.373.213 4.406 1.329 7.639 2.634 5.264 2.117 11.049 4.723 11.049 4.723 2.266-2.077 6.123-.88 6.123-.88s2.707-1.438 5.413-1.041c2.701.402 15.072 12.113 17.017 15.99 1.951 3.876 6.523 40.348 6.523 40.348l25.293 49.448Z" fill="#fff"/><path d="M170.205 61.432c-.084.63-.262 1.366-.648 1.97a1.618 1.618 0 0 1-1.985.609l-3.506-1.45a1.651 1.651 0 0 1-1.003-1.711c.068-.583.23-1.26.595-1.817a1.611 1.611 0 0 1 1.892-.625l3.573 1.255a1.65 1.65 0 0 1 1.082 1.77Zm1.464 16.584c-.933.765-2.386.81-3.156.774a.643.643 0 0 1-.602-.541l-.819-5.089a.66.66 0 0 1 .244-.619c.978-.76 2.165-.76 2.744-.7a.643.643 0 0 1 .525.364c.63 1.36 1.137 4.232 1.295 5.206a.651.651 0 0 1-.231.605Z" fill="#AFD4EF"/><path d="M189.747 90.068c-3.479 4.153-8.554 5.096-8.554 5.096l-1.397-2.37c-.086-2.007-.658-10.64-4.6-17.48-3.422-5.935-6.432-4.687-7.668-3.75a.813.813 0 0 0-.16.15l-10.265-17.422c.171.253.623.897 1.213 1.473l.097.097c.166.156.338.305.521.432.051.046.108.08.165.121.103.07.206.132.315.184a2.633 2.633 0 0 0 .452.184c.068.017.143.035.217.046h.011a1.418 1.418 0 0 0 .945-.184c.921-.546 1.11-1.61 1.075-2.513 0-.029 0-.058-.005-.086a3.858 3.858 0 0 0-.04-.466c0-.03-.006-.052-.006-.075a2.972 2.972 0 0 1-.029-.19c-.006-.006-.006-.011-.006-.011-.063-.386-.148-.656-.16-.708a.942.942 0 0 1 .063.07.651.651 0 0 1 .052.057c.023.023.045.052.068.075.086.086.195.19.321.304.051.058.109.104.166.15.069.058.137.121.212.172a2.665 2.665 0 0 0 .32.236l.069.052c.149.092.309.184.469.259.086.04.166.08.252.11.086.034.171.057.257.08a.93.93 0 0 0 .252.052 1.65 1.65 0 0 0 1.11-.214c.188-.115.332-.264.44-.448a.892.892 0 0 0 .075-.127v-.006c.04-.086.074-.172.103-.264a.137.137 0 0 0 .017-.064 1.1 1.1 0 0 0 .058-.235 2.36 2.36 0 0 0 .034-.276c.006-.012.006-.03.006-.046a4.26 4.26 0 0 0 .005-.61l-.017-.236a6.584 6.584 0 0 0-.109-.765 1.645 1.645 0 0 0-.051-.247 9.848 9.848 0 0 0-.161-.667 10.101 10.101 0 0 0-.291-.909l7.067 11.981c-3.233-1.305-6.266-2.422-7.64-2.634-3.622-.558-2.031 7.638 2.942 9.996a390.185 390.185 0 0 0 10.019 4.556l10.254 14.5.017.023 1.5 2.547Z" fill="#E6AC4B"/><path d="M193.564 96.54c-3.479 4.158-8.554 5.096-8.554 5.096l-3.817-6.47s5.076-.944 8.555-5.097l3.816 6.47Z" fill="#C7C7C7"/><path d="M198.33 104.626c-3.473 4.153-8.548 5.096-8.548 5.096l-4.773-8.087s5.076-.937 8.555-5.096l4.766 8.087Zm-32.112-52.704a4.26 4.26 0 0 1-.005.61c0 .017 0 .035-.006.046a2.171 2.171 0 0 1-.035.276l-.017.075c-.006.029-.006.052-.017.075-.006.029-.011.058-.023.086l-.017.064a2.175 2.175 0 0 1-.103.264v.006a.892.892 0 0 1-.075.127 1.271 1.271 0 0 1-.44.448 1.405 1.405 0 0 1-.418.179 1.65 1.65 0 0 1-.692.034 2.195 2.195 0 0 1-.252-.051 2.206 2.206 0 0 1-.257-.081c-.086-.029-.166-.07-.252-.11a4.698 4.698 0 0 1-.469-.258l-.069-.052a2.803 2.803 0 0 1-.321-.236c-.074-.051-.142-.115-.211-.172a2.02 2.02 0 0 1-.166-.15 9.851 9.851 0 0 1-.321-.304.427.427 0 0 0-.068-.075c-.018-.023-.035-.04-.052-.058-.029-.035-.052-.058-.063-.07.011.053.097.323.16.708 0 0 0 .006.006.012.006.058.017.12.029.19 0 .023.005.046.005.074.023.144.035.3.041.466.005.03.005.058.005.087.035.903-.154 1.967-1.076 2.513a1.408 1.408 0 0 1-.944.184h-.011a2.302 2.302 0 0 1-.217-.046 2.521 2.521 0 0 1-.452-.184 2.52 2.52 0 0 1-.315-.184c-.057-.04-.114-.075-.166-.121a4.706 4.706 0 0 1-.52-.432l-.098-.098a9.853 9.853 0 0 1-1.212-1.472c-.046-.075-.075-.115-.075-.115l-1.659-8.565c.938-.511 2.323-1.455 2.975-2.806l7.239 6.275s0 .006.005.017c.035.087.161.432.292.909.029.103.057.212.086.328.029.109.052.224.075.339.022.08.04.16.051.247.052.247.086.507.109.765l.016.236Z" fill="#fff"/><path d="M158.345 42.806c-.653 1.352-2.037 2.295-2.976 2.807l-.589-3.049 1.373-1.662 2.192 1.904Zm46.542 127.193a.331.331 0 0 1-.319-.247l-10.581-40.095c-.863-.922-10.998-11.812-15.89-19.626-.891-1.424-1.688-2.683-2.398-3.805-3.417-5.398-4.832-7.633-5.207-9.91-.389-2.393-3.187-19.758-3.782-23.456a1.606 1.606 0 0 1 .419-1.376 1.05 1.05 0 0 1 .205-.189c.674-.51 1.776-1.065 3.169-.782 1.734.352 3.409 1.912 4.978 4.635 3.857 6.69 4.527 15.018 4.642 17.548l9.82 16.649c.988-.234 5.046-1.372 7.981-4.755l-9.961-16.901-10.203-14.424a392.569 392.569 0 0 1-9.945-4.523c-3.864-1.832-5.664-6.857-4.945-9.22.322-1.059 1.123-1.572 2.195-1.405 1.227.19 3.822 1.083 7.712 2.654 4.675 1.88 9.819 4.171 10.868 4.641 2.171-1.8 5.445-1.038 6.148-.846.57-.28 3.007-1.38 5.493-1.014 3.01.449 15.381 12.415 17.266 16.169 1.934 3.842 6.276 38.228 6.548 40.399l25.265 49.395a.335.335 0 0 1-.143.448.33.33 0 0 1-.445-.144l-25.292-49.447a.358.358 0 0 1-.034-.111c-.045-.364-4.586-36.458-6.49-40.24-1.957-3.9-14.183-15.425-16.771-15.811-2.571-.376-5.185.993-5.21 1.006a.33.33 0 0 1-.252.024c-.037-.012-3.706-1.114-5.803.808a.33.33 0 0 1-.358.058c-.057-.027-5.839-2.628-11.036-4.717-3.791-1.531-6.407-2.435-7.567-2.615-.745-.115-1.238.202-1.463.942-.655 2.156 1.143 6.789 4.596 8.426a395.128 395.128 0 0 0 10.01 4.551.324.324 0 0 1 .137.112l10.255 14.5.032.047 10.082 17.105a.335.335 0 0 1-.031.383c-3.51 4.196-8.53 5.17-8.742 5.209a.328.328 0 0 1-.345-.156l-9.985-16.928a.35.35 0 0 1-.046-.156c-.102-2.387-.731-10.692-4.556-17.327-1.47-2.55-2.997-4.003-4.538-4.316-1.151-.234-2.074.232-2.644.665a.525.525 0 0 0-.103.093.96.96 0 0 0-.263.827c.596 3.703 3.394 21.066 3.783 23.46.353 2.142 1.746 4.343 5.112 9.661.71 1.122 1.508 2.382 2.4 3.807 5.051 8.068 15.761 19.471 15.868 19.585.038.04.065.089.079.143l10.604 40.176a.333.333 0 0 1-.319.416Z" fill="#29275F"/><path d="M185.009 101.967a.332.332 0 0 1-.285-.162l-5.212-8.841a.327.327 0 0 1-.046-.155c-.102-2.388-.732-10.692-4.557-17.327-1.47-2.551-2.997-4.003-4.537-4.317-1.151-.234-2.075.232-2.645.665a.49.49 0 0 0-.102.093.329.329 0 0 1-.542-.04l-10.266-17.421a.334.334 0 0 1 .108-.45.328.328 0 0 1 .45.094c.208.307.636.9 1.17 1.421l.101.102c.18.168.329.292.474.392.059.05.088.068.117.087l.051.035c.083.056.173.111.267.157.076.04.138.07.2.094.065.025.131.05.201.071a2.06 2.06 0 0 0 .188.037c.251.038.499-.008.727-.143.647-.383.954-1.128.912-2.213-.003-.018-.005-.07-.006-.088a3.634 3.634 0 0 0-.035-.425.232.232 0 0 1-.005-.052l-.004-.037-.024-.152a.39.39 0 0 1-.008-.034 5.437 5.437 0 0 0-.137-.611 2.361 2.361 0 0 1-.02-.078.33.33 0 0 1 .559-.303c.018.017.045.046.081.088a.4.4 0 0 1 .036.039c.037.034.065.07.089.1.058.055.162.155.284.266.063.067.107.1.15.136l.063.053c.043.036.085.073.13.105a2.953 2.953 0 0 0 .308.227l.093.069c.141.085.283.164.409.222l.042.02c.059.028.115.055.175.075.09.036.161.054.232.074a.73.73 0 0 0 .195.042 1.38 1.38 0 0 0 .748-.078 1.36 1.36 0 0 0 .173-.09.944.944 0 0 0 .323-.33.7.7 0 0 0 .049-.08l.01-.024a1.878 1.878 0 0 0 .129-.375l.006-.037a.747.747 0 0 0 .01-.046 2.005 2.005 0 0 0 .036-.264.287.287 0 0 1 .008-.05c.014-.19.014-.365.003-.565l-.016-.229a6.291 6.291 0 0 0-.103-.722 1.66 1.66 0 0 0-.045-.224c-.028-.134-.049-.242-.076-.345a12.113 12.113 0 0 0-.365-1.198.334.334 0 0 1 .16-.422.33.33 0 0 1 .431.129l7.067 11.98a.333.333 0 0 1-.408.479c-3.79-1.53-6.406-2.435-7.566-2.614-.745-.116-1.238.201-1.463.942-.655 2.156 1.143 6.788 4.596 8.426a393.103 393.103 0 0 0 10.01 4.55.337.337 0 0 1 .138.113l10.254 14.5.032.046 5.315 9.018a.334.334 0 0 1-.031.383c-3.515 4.202-8.536 5.171-8.748 5.21a1.05 1.05 0 0 1-.058.002Zm-4.886-9.27 5.049 8.562c.987-.233 5.046-1.368 7.987-4.755l-5.196-8.815-10.202-14.424a392.569 392.569 0 0 1-9.945-4.523c-3.864-1.832-5.664-6.857-4.945-9.22.321-1.058 1.123-1.571 2.195-1.405 1.129.175 3.418.946 6.809 2.293l-5.387-9.136c.016.12.03.25.042.384l.018.24a4.66 4.66 0 0 1-.014.737c-.008.094-.02.187-.037.28l-.011.05c-.009.047-.015.09-.03.133a.808.808 0 0 1-.032.116 2.36 2.36 0 0 1-.116.314.502.502 0 0 1-.017.044 1.304 1.304 0 0 1-.101.17 1.55 1.55 0 0 1-.539.541c-.086.05-.175.097-.257.132a1.97 1.97 0 0 1-1.072.125 1.178 1.178 0 0 1-.316-.068 2.07 2.07 0 0 1-.269-.085 5.063 5.063 0 0 1-.771-.393l-.092-.069a2.725 2.725 0 0 1-.273-.197.438.438 0 0 1-.06-.047 2.878 2.878 0 0 1-.139-.11c.019.129.03.272.037.442a.926.926 0 0 1 .006.118c.051 1.316-.377 2.289-1.238 2.8a1.74 1.74 0 0 1-1.143.229l-.03-.003a2.583 2.583 0 0 1-.248-.053 2.98 2.98 0 0 1-.529-.213 2.673 2.673 0 0 1-.34-.2l-.027-.02 8.564 14.536c.68-.484 1.736-.961 3.05-.694 1.734.352 3.408 1.911 4.978 4.634 3.857 6.692 4.527 15.02 4.641 17.55Z" fill="#29275F"/><path d="M189.782 110.054a.33.33 0 0 1-.284-.163l-4.773-8.087a.333.333 0 0 1 .225-.496c.049-.009 5.004-.97 8.362-4.983a.329.329 0 0 1 .537.044l4.767 8.087a.335.335 0 0 1-.031.383c-3.51 4.196-8.53 5.17-8.742 5.209a.258.258 0 0 1-.061.006Zm-4.256-8.195 4.418 7.487c.987-.235 5.045-1.373 7.981-4.756l-4.413-7.486c-2.908 3.251-6.685 4.43-7.986 4.755Zm-25.207-44.681c-.085 0-.17-.006-.254-.018-.011 0-.023-.002-.03-.003a2.46 2.46 0 0 1-.248-.052 2.874 2.874 0 0 1-.529-.214 2.687 2.687 0 0 1-.34-.2l-.048-.033a1.475 1.475 0 0 1-.156-.117 4.373 4.373 0 0 1-.525-.436l-.106-.105a10.227 10.227 0 0 1-1.324-1.632.332.332 0 0 1-.054-.127l-2.249-11.613a.334.334 0 0 1 .07-.276l1.373-1.662a.332.332 0 0 1 .228-.12.343.343 0 0 1 .243.08l9.43 8.18a.334.334 0 0 1 .104.167c.062.16.178.491.296.921.029.107.059.219.088.337.029.11.054.232.078.354.021.07.041.166.055.268.046.219.084.49.11.78l.018.24v.008a4.73 4.73 0 0 1-.014.73 2.96 2.96 0 0 1-.037.28l-.011.05c-.009.047-.015.09-.03.133a.808.808 0 0 1-.032.116 2.36 2.36 0 0 1-.116.314.504.504 0 0 1-.017.043 1.208 1.208 0 0 1-.102.171c-.125.215-.306.4-.539.54a2.09 2.09 0 0 1-.256.132 1.97 1.97 0 0 1-1.072.125 2.457 2.457 0 0 1-.289-.059 2.67 2.67 0 0 1-.525-.191 4.984 4.984 0 0 1-.542-.296l-.092-.068a2.722 2.722 0 0 1-.273-.197.442.442 0 0 1-.06-.047 2.761 2.761 0 0 1-.139-.111c.019.13.03.272.037.443a.926.926 0 0 1 .006.117c.051 1.317-.377 2.29-1.238 2.8a1.728 1.728 0 0 1-.889.248Zm-.202-.68.029.002c.25.038.499-.008.727-.142.646-.384.954-1.129.912-2.214-.003-.018-.005-.07-.006-.088a3.426 3.426 0 0 0-.036-.425.306.306 0 0 1-.004-.052l-.004-.037a3.245 3.245 0 0 1-.024-.152.41.41 0 0 1-.008-.034 5.434 5.434 0 0 0-.137-.611 2.429 2.429 0 0 1-.02-.078.33.33 0 0 1 .559-.303c.017.017.045.046.08.088.007.005.021.02.037.039.037.034.064.07.089.1.057.055.162.155.284.266.054.054.102.097.15.136l.063.053c.042.036.085.073.13.105a2.977 2.977 0 0 0 .308.227l.093.069c.14.085.283.164.409.222l.042.02c.059.028.115.056.175.075.09.036.161.054.232.073.079.021.151.036.219.046a1.334 1.334 0 0 0 .897-.17.927.927 0 0 0 .323-.332.7.7 0 0 0 .049-.08l.01-.023a1.72 1.72 0 0 0 .129-.375l.006-.038.011-.045a2.286 2.286 0 0 0 .036-.264.286.286 0 0 1 .007-.05c.013-.19.014-.364.004-.563l-.017-.232a6.533 6.533 0 0 0-.102-.722 1.81 1.81 0 0 0-.046-.223c-.028-.135-.049-.243-.076-.346a12.213 12.213 0 0 0-.344-1.143l-9.111-7.902-1.058 1.28 2.207 11.393.044.07c.2.295.628.887 1.162 1.408l.101.102c.18.169.329.292.474.392.059.05.088.068.117.087l.051.036c.083.055.173.11.267.156a1.8 1.8 0 0 0 .2.094c.065.025.131.05.201.071.044.01.101.024.159.034Z" fill="#29275F"/><path d="M165.017 58.776a.33.33 0 0 1-.297-.184l-2.643-5.343a.332.332 0 0 1 .148-.446.33.33 0 0 1 .444.15l2.643 5.343a.332.332 0 0 1-.295.48Zm21.205 34.646a.33.33 0 0 1-.282-.157l-6.572-10.714a.333.333 0 0 1 .108-.457.33.33 0 0 1 .455.108l6.572 10.714a.334.334 0 0 1-.108.457.33.33 0 0 1-.173.05Zm12.108-10.713a.328.328 0 0 1-.247-.112l-14.626-16.576a.334.334 0 0 1 .028-.469.33.33 0 0 1 .467.028l14.626 16.575a.334.334 0 0 1-.248.554Zm5.228-4.902a.325.325 0 0 1-.222-.087l-13.731-12.552a.333.333 0 0 1-.022-.47.328.328 0 0 1 .467-.022l13.731 12.553a.331.331 0 0 1-.223.578Zm-9.274 52.016a.333.333 0 0 1-.067-.658c.04-.009 4.03-.856 6.415-1.795a.332.332 0 0 1 .241.619c-2.436.959-6.354 1.792-6.52 1.827a.404.404 0 0 1-.069.007Z" fill="#29275F"/><path d="M90.212 36.288c.831 0 1.505-.677 1.505-1.513 0-.835-.674-1.512-1.505-1.512-.831 0-1.505.677-1.505 1.512 0 .836.674 1.513 1.505 1.513Zm7.268 0c-.83 0-1.504-.677-1.504-1.513 0-.835.674-1.512 1.505-1.512.831 0 1.505.677 1.505 1.512s-.674 1.513-1.505 1.513Zm-7.268 7.306c.831 0 1.505-.677 1.505-1.513 0-.835-.674-1.512-1.505-1.512-.831 0-1.505.677-1.505 1.512 0 .836.674 1.513 1.505 1.513Zm0 7.306c.831 0 1.505-.677 1.505-1.512s-.674-1.512-1.505-1.512c-.831 0-1.505.677-1.505 1.512s.674 1.513 1.505 1.513Zm0 7.308c.831 0 1.505-.677 1.505-1.513 0-.835-.674-1.512-1.505-1.512-.831 0-1.505.677-1.505 1.512 0 .836.674 1.513 1.505 1.513Zm-1.505 5.794c0-.836.674-1.513 1.505-1.513.83 0 1.505.677 1.505 1.513 0 .835-.674 1.512-1.505 1.512a1.509 1.509 0 0 1-1.505-1.512Zm8.773-20.408c-.83 0-1.504-.677-1.504-1.513 0-.835.674-1.512 1.505-1.512.831 0 1.505.677 1.505 1.512s-.674 1.513-1.505 1.513Zm-1.504 5.794c0-.835.674-1.512 1.505-1.512.831 0 1.505.677 1.505 1.512s-.674 1.513-1.505 1.513a1.509 1.509 0 0 1-1.505-1.513Zm0 7.307c0-.835.674-1.512 1.505-1.512.831 0 1.505.677 1.505 1.512 0 .836-.674 1.513-1.505 1.513a1.509 1.509 0 0 1-1.505-1.513Zm0 7.307c0-.836.674-1.513 1.505-1.513.831 0 1.505.677 1.505 1.513 0 .835-.674 1.512-1.505 1.512a1.509 1.509 0 0 1-1.505-1.512Zm-5.764 8.818c.831 0 1.505-.677 1.505-1.513 0-.835-.674-1.512-1.505-1.512-.831 0-1.505.677-1.505 1.512 0 .836.674 1.513 1.505 1.513Zm5.764-1.513c0-.835.674-1.512 1.505-1.512.831 0 1.505.677 1.505 1.512 0 .836-.674 1.513-1.505 1.513a1.508 1.508 0 0 1-1.505-1.513Zm105.508-34.948a1.509 1.509 0 0 1-1.505-1.513c0-.835.674-1.512 1.505-1.512.831 0 1.505.677 1.505 1.512 0 .836-.674 1.513-1.505 1.513Zm7.269 0a1.509 1.509 0 0 1-1.505-1.513c0-.835.674-1.512 1.505-1.512.831 0 1.504.677 1.504 1.512 0 .836-.673 1.513-1.504 1.513Zm-7.269 7.308a1.51 1.51 0 0 0 1.505-1.513c0-.835-.674-1.512-1.505-1.512-.831 0-1.505.677-1.505 1.512s.674 1.513 1.505 1.513Zm0 7.305c.831 0 1.505-.677 1.505-1.512 0-.836-.674-1.513-1.505-1.513-.831 0-1.505.677-1.505 1.513 0 .835.674 1.512 1.505 1.512Zm0 7.307a1.51 1.51 0 0 0 1.505-1.513 1.51 1.51 0 0 0-1.505-1.513 1.51 1.51 0 0 0-1.505 1.513 1.51 1.51 0 0 0 1.505 1.513Zm7.269-14.612c.831 0 1.504-.678 1.504-1.513 0-.835-.673-1.512-1.504-1.512s-1.505.677-1.505 1.512.674 1.513 1.505 1.513Zm0 7.305c.831 0 1.504-.677 1.504-1.512 0-.836-.673-1.513-1.504-1.513s-1.505.677-1.505 1.513c0 .835.674 1.512 1.505 1.512Zm0 7.307c.831 0 1.504-.678 1.504-1.513 0-.835-.673-1.513-1.504-1.513s-1.505.678-1.505 1.513a1.51 1.51 0 0 0 1.505 1.513Zm-14.775-22.172c.831 0 1.505-.677 1.505-1.512 0-.836-.674-1.513-1.505-1.513-.831 0-1.505.677-1.505 1.513 0 .835.674 1.512 1.505 1.512Zm0 7.307c.831 0 1.505-.677 1.505-1.512 0-.836-.674-1.513-1.505-1.513-.831 0-1.505.677-1.505 1.513 0 .835.674 1.512 1.505 1.512Zm0 7.306c.831 0 1.505-.677 1.505-1.512s-.674-1.513-1.505-1.513a1.51 1.51 0 0 0-1.505 1.513c0 .835.674 1.512 1.505 1.512Zm-1.505 5.794c0-.835.674-1.512 1.505-1.512.831 0 1.505.677 1.505 1.512 0 .836-.674 1.513-1.505 1.513a1.509 1.509 0 0 1-1.505-1.513Zm9.897-52.631a.84.84 0 0 1-.839.843h-2.185v2.197a.84.84 0 0 1-1.432.597.848.848 0 0 1-.245-.597V4.726h-2.186a.84.84 0 0 1-.839-.843.841.841 0 0 1 .839-.843h2.186V.843a.84.84 0 0 1 1.432-.597.848.848 0 0 1 .245.597V3.04h2.185a.84.84 0 0 1 .839.843Zm-1.785 9.464c-1.456 0-1.459 2.276 0 2.276 1.457 0 1.459-2.276 0-2.276Zm10.389-9.234c-1.457 0-1.459 2.276 0 2.276 1.457 0 1.459-2.276 0-2.276Zm26.503 36.944a.84.84 0 0 1-.838.843h-2.186v2.197a.84.84 0 0 1-1.432.596.852.852 0 0 1-.245-.596V41.9h-2.185a.84.84 0 0 1-.839-.843.84.84 0 0 1 .839-.843h2.185v-2.197a.84.84 0 0 1 1.432-.596.848.848 0 0 1 .245.596v2.197h2.186a.84.84 0 0 1 .838.843Zm-12.4 6.831c-1.457 0-1.459 2.275 0 2.275 1.457 0 1.459-2.275 0-2.275Zm1.229-16.656c-1.457 0-1.459 2.276 0 2.276 1.456 0 1.458-2.276 0-2.276ZM102.848 13.876a.84.84 0 0 1-.838.843h-2.186v2.197a.84.84 0 0 1-1.432.597.849.849 0 0 1-.245-.597v-2.197h-2.186a.84.84 0 0 1-.838-.843.84.84 0 0 1 .839-.843h2.185v-2.197a.84.84 0 0 1 1.433-.597.85.85 0 0 1 .245.597v2.197h2.185a.84.84 0 0 1 .838.843ZM89.193 11.07c-1.457 0-1.459 2.275 0 2.275 1.457 0 1.46-2.275 0-2.275Zm15.859-7.97c-1.456 0-1.459 2.275 0 2.275 1.457 0 1.459-2.276 0-2.276ZM68.425 49.736a.84.84 0 0 1-.838.843H65.4v2.197a.84.84 0 0 1-1.433.596.849.849 0 0 1-.245-.596v-2.198h-2.185a.84.84 0 0 1-.84-.842.84.84 0 0 1 .839-.843h2.186v-2.197a.84.84 0 0 1 1.433-.597c.15.154.245.364.245.597v2.197h2.186a.84.84 0 0 1 .838.843Zm-13.971-2.609c-1.457 0-1.46 2.276 0 2.276 1.457 0 1.459-2.276 0-2.276Z" fill="#AFD4EF"/></svg>