<svg width="300" height="170" viewBox="0 0 300 170" fill="none" xmlns="http://www.w3.org/2000/svg"><g clip-path="url(#clip0_109_2846)"><path d="M0 105.065h300" stroke="#280C14" stroke-width=".455" stroke-miterlimit="10" stroke-linecap="round" stroke-linejoin="round"/><path opacity=".75" d="M76.573 127.563c14.09 0 25.512-1.523 25.512-3.402 0-1.878-11.422-3.401-25.512-3.401s-25.512 1.523-25.512 3.401c0 1.879 11.422 3.402 25.512 3.402Z" fill="#C7C7C7"/><path d="M101.659 31.536H51.485v-9.791c0-1.081.877-1.958 1.959-1.958H99.7c1.081 0 1.958.876 1.958 1.958v9.79Z" fill="#62B4F2"/><path d="M82.447 23.703h-11.75a1.959 1.959 0 0 1-1.957-1.958v-3.917c0-1.08.876-1.957 1.958-1.957h11.749c1.08 0 1.958.876 1.958 1.957v3.917a1.959 1.959 0 0 1-1.959 1.958Z" fill="#fff"/><path d="M92.098 125.01H61.046c-.987 0-1.82-.735-1.942-1.715l-6.53-52.235a140.929 140.929 0 0 1-1.089-17.487V35.451h50.174v18.122c0 5.846-.364 11.686-1.089 17.487l-6.529 52.235a1.958 1.958 0 0 1-1.943 1.715Z" fill="#62B4F2"/><path opacity=".25" d="m100.57 71.061-6.529 52.235a1.958 1.958 0 0 1-1.943 1.715h-31.05a1.958 1.958 0 0 1-1.944-1.715l-6.529-52.235h47.995Z" fill="#C6E5FD"/><path d="M99.7 31.537H53.445v3.916H99.7v-3.916Z" fill="#C8C8C8"/><path opacity=".5" d="M99.7 31.537H53.445v1.957H99.7v-1.957Z" fill="#C8C8C8"/><path d="M84.405 19.787h15.296c1.081 0 1.958.876 1.958 1.958m-50.174 0c0-1.081.877-1.958 1.959-1.958H68.74m13.707-3.917a1.96 1.96 0 0 1 1.958 1.958v3.917a1.959 1.959 0 0 1-1.958 1.958m-11.749 0a1.959 1.959 0 0 1-1.958-1.958v-3.917c0-1.08.876-1.957 1.958-1.957" stroke="#280C14" stroke-width=".42" stroke-miterlimit="10" stroke-linecap="round" stroke-linejoin="round"/><path d="M53.444 39.369H99.7" stroke="#280C14" stroke-width=".21" stroke-miterlimit="10" stroke-linecap="round" stroke-linejoin="round"/><path opacity=".5" d="M57.011 44.12v9.453c0 4.435.222 8.91.66 13.345" stroke="#FAFAFA" stroke-width="4.2" stroke-miterlimit="10" stroke-linecap="round" stroke-linejoin="round"/><path opacity=".75" d="M174.39 149.695H26.824l70.965-14.188h147.566l-70.965 14.188Z" fill="#C7C7C7"/><path d="M237.27 132.385H102.707a2.344 2.344 0 0 1-1.656-.686l-2.436-2.436 24.613-98.45a1.913 1.913 0 0 1 1.856-1.45h134.6c.811 0 1.59.324 2.164.897l1.288 1.288c.581.581.815 1.425.616 2.223l-24.21 96.84a2.341 2.341 0 0 1-2.272 1.774Z" fill="#13356B"/><path opacity=".25" d="m235.976 129.264 1.79 1.79a.78.78 0 0 1-.552 1.332H102.707a2.344 2.344 0 0 1-1.656-.686l-2.436-2.436h137.361Z" fill="#13356B"/><path opacity=".35" d="M235.976 129.263H98.616l24.612-98.45a1.913 1.913 0 0 1 1.856-1.45h133.417a1.913 1.913 0 0 1 1.856 2.378l-24.381 97.522Z" fill="#FAFAFA"/><path d="M173.308 147.995H38.52a2.341 2.341 0 0 1-2.341-2.341v-3.903l62.436-12.487h137.361v4.324a2.342 2.342 0 0 1-1.882 2.297l-60.328 12.065a2.34 2.34 0 0 1-.458.045Z" fill="#13356B"/><path opacity=".75" d="m125.051 36.01-21.643 86.573a.98.98 0 0 0 .949 1.217h128.645c.717 0 1.341-.488 1.515-1.183l21.656-86.626a.936.936 0 0 0-.908-1.163h-128.7a1.56 1.56 0 0 0-1.514 1.182Z" fill="#0F67AD"/><path d="m254.312 36.508-21.403 85.612H105.255l21.403-85.612h127.654Zm.952-1.68H126.565a1.56 1.56 0 0 0-1.515 1.182l-21.643 86.574a.979.979 0 0 0 .95 1.216h128.645a1.56 1.56 0 0 0 1.514-1.182l21.656-86.626a.936.936 0 0 0-.908-1.164ZM173.54 141.75v3.902a2.342 2.342 0 0 1-2.341 2.342H38.519a2.342 2.342 0 0 1-2.34-2.342v-3.902H173.54Z" fill="#13356B" opacity=".25"/><path d="M191.959 32.174a1.304 1.304 0 0 1-1.274 1.17 1.055 1.055 0 0 1-1.068-1.17 1.304 1.304 0 0 1 1.274-1.17c.646 0 1.124.524 1.068 1.17Zm2.341 0a.87.87 0 0 1-.849.78.703.703 0 0 1-.712-.78.867.867 0 0 1 .848-.78c.432 0 .751.349.713.78Z" fill="#280C14"/><path opacity=".25" d="M173.54 141.751H36.179l62.436-12.487h137.361l-62.436 12.487Z" fill="#FAFAFA"/><path opacity=".5" d="M87.689 140.189h46.828l15.609-3.122h-46.828l-15.61 3.122Z" fill="#FAFAFA"/><path opacity=".25" d="m181.345 137.067 26.535-5.307H98.615l-26.535 5.307h109.265Z" fill="#FAFAFA"/><path d="m245.356 107.353-5.814 23.259a2.342 2.342 0 0 1-2.272 1.773h-1.294" stroke="#280C14" stroke-width=".42" stroke-miterlimit="10" stroke-linecap="round" stroke-linejoin="round"/><path d="M235.976 129.264v4.324a2.342 2.342 0 0 1-1.882 2.297l-13.727 2.745" stroke="#280C14" stroke-width=".42" stroke-miterlimit="10" stroke-linecap="round" stroke-linejoin="round"/><path d="m238.325 119.869-2.349 9.394m-31.218 6.244-31.218 6.243h-62.438m124.874-12.486-15.609 3.122m0-3.122H106.42m129.556 0 1.79 1.79a.78.78 0 0 1-.552 1.332m-63.674 9.364v3.902a2.343 2.343 0 0 1-2.342 2.342" stroke="#280C14" stroke-width=".21" stroke-miterlimit="10" stroke-linecap="round" stroke-linejoin="round"/><path d="M120.836 108.636c-.354 0-.683-.161-.901-.44a1.136 1.136 0 0 1-.208-.981l14.522-58.088a1.692 1.692 0 0 1 1.645-1.284h97.311c.354 0 .683.16.901.44.218.28.294.637.209.981l-14.522 58.087a1.696 1.696 0 0 1-1.646 1.285h-97.311Z" fill="#FAFAFA"/><path d="M233.205 48.158c.539 0 .935.506.804 1.03l-14.521 58.087a1.382 1.382 0 0 1-1.34 1.046h-97.311a.828.828 0 0 1-.804-1.03l14.522-58.087a1.38 1.38 0 0 1 1.339-1.046h97.311Zm0-.63h-97.311a2.01 2.01 0 0 0-1.951 1.523l-14.522 58.087a1.45 1.45 0 0 0 .266 1.252 1.45 1.45 0 0 0 1.149.561h97.311c.925 0 1.727-.626 1.951-1.523L234.62 49.34a1.45 1.45 0 0 0-.265-1.251 1.449 1.449 0 0 0-1.15-.561Z" fill="#C6E5FD"/><path d="m232.886 53.682 1.123-4.495a.828.828 0 0 0-.804-1.03h-97.311a1.38 1.38 0 0 0-1.339 1.047l-1.12 4.478h99.451Z" fill="#C6E5FD"/><path d="M150.784 52.22h66.134a1.3 1.3 0 0 0 0-2.6h-66.134a1.3 1.3 0 1 0 0 2.6Z" fill="#FAFAFA"/><path d="M126.361 112.778a1.14 1.14 0 0 1-1.109-1.421l14.522-58.087a1.692 1.692 0 0 1 1.645-1.284h97.311c.355 0 .684.16.902.44.218.28.294.636.208.98l-14.521 58.088a1.695 1.695 0 0 1-1.646 1.285h-97.312v-.001Z" fill="#F2F5FA"/><path d="M238.73 52.3c.539 0 .935.507.804 1.03l-14.522 58.087a1.382 1.382 0 0 1-1.34 1.047h-97.311a.829.829 0 0 1-.804-1.03l14.522-58.087a1.38 1.38 0 0 1 1.34-1.046h97.311Zm0-.63h-97.311c-.925 0-1.727.627-1.951 1.524l-14.522 58.087a1.45 1.45 0 0 0 .265 1.252 1.45 1.45 0 0 0 1.15.561h97.311a2.01 2.01 0 0 0 1.951-1.524l14.522-58.087a1.45 1.45 0 0 0-.266-1.252 1.448 1.448 0 0 0-1.149-.56Z" fill="#62B4F2"/><path d="m238.41 57.825 1.124-4.495a.829.829 0 0 0-.804-1.03h-97.311a1.38 1.38 0 0 0-1.34 1.047l-1.12 4.478h99.451Z" fill="#AFD4EF"/><path d="M156.308 56.363h66.134a1.3 1.3 0 0 0 0-2.601h-66.134a1.3 1.3 0 1 0 0 2.601Z" fill="#FAFAFA"/><path d="M190.504 55.806a1.093 1.093 0 0 1 1.273-.878l94.742 17.433c.594.109.988.68.878 1.273l-8.485 46.117a1.093 1.093 0 0 1-1.274.877l-94.742-17.431a1.096 1.096 0 0 1-.878-1.275l8.486-46.116Z" fill="#fff" stroke="#000" stroke-width=".364"/><path d="m211.757 92.981-16.412-3.02a1.855 1.855 0 0 1-1.488-2.158l2.685-14.588a1.854 1.854 0 0 1 2.159-1.488l16.411 3.02m42.547 7.828 16.411 3.02a1.854 1.854 0 0 1 1.488 2.158l-2.684 14.588a1.853 1.853 0 0 1-2.158 1.488l-16.412-3.02" stroke="#280C14" stroke-width=".5" stroke-miterlimit="10" stroke-linecap="round" stroke-linejoin="round"/><path d="m283.044 98.294-3.954 21.489a1.274 1.274 0 0 1-1.485 1.023l-16.84-3.098M184.211 89l6.114-33.228a1.275 1.275 0 0 1 1.486-1.024l16.873 3.105" stroke="#280C14" stroke-width=".42" stroke-miterlimit="10" stroke-linecap="round" stroke-linejoin="round"/><path opacity=".75" d="M267.204 152.724h-55.065l-40.004 13.341H227.2l40.004-13.341Z" fill="#C7C7C7"/><path d="M263.821 152.724v-7.807h-49.962l-37.472 12.491v7.807h49.962l37.472-12.491Z" fill="#fff"/><path opacity=".25" d="M263.821 144.917h-49.962l-37.472 12.491h49.962l37.472-12.491Z" fill="#FAFAFA"/><path d="M209.175 146.479h49.963l4.683-1.562h-49.962l-4.684 1.562Z" fill="#280C14"/><path d="M207.975 148.04h42.995m-47.679 1.561h42.995m-47.679 1.562h42.995m-47.68 1.561h42.996m-47.68 1.561h42.996m-47.68 1.562h42.996m-46.479 3.122h40.595m-42.156 1.562h43.717m-40.594 1.56h40.594m-43.717 1.562h42.156m7.806-5.724 28.104-9.368m-26.542 10.409 29.665-9.889m-29.665 11.45 29.665-9.888m-28.104 10.928 26.543-8.847" stroke="#252525" stroke-width=".105" stroke-miterlimit="10" stroke-linecap="round" stroke-linejoin="round"/><path d="M207.614 157.408s12.49-2.341 18.735-4.684c0 0 7.716 1.157 12.491.52l-31.226 4.164Z" fill="#DEF0F8"/><path opacity=".25" d="M207.614 157.408s12.49-2.341 18.735-4.684c0 0 7.716 1.157 12.491.52l-31.226 4.164Z" fill="#F2F5FA"/><path opacity=".5" d="M226.35 157.408h-49.963v7.807h49.963v-7.807Z" fill="#DEF0F8"/><path d="m225.527 155.019-17.913 2.389s5.237-.983 10.625-2.31m15.826-1.684c1.665.051 3.351.02 4.775-.169l-9.368 1.249m9.368-1.249 2.762-.921m-33.988 5.084h-6.246" stroke="#280C14" stroke-width=".21" stroke-miterlimit="10" stroke-linecap="round" stroke-linejoin="round"/><path d="m206.899 81.853 3.181.586-.218 1.19-3.182-.586.219-1.19Zm-.387 2.74 3.597.662-.226 1.227-5.117-.941 1.216-6.61 4.994.92-.225 1.227-3.475-.64-.764 4.155Zm6.739 2.626a5.597 5.597 0 0 1-1.482-.487c-.458-.234-.814-.492-1.068-.773l.731-1.056a3.88 3.88 0 0 0 2.054 1.09c.302.056.55.073.743.05.2-.029.354-.088.462-.179a.574.574 0 0 0 .2-.344.495.495 0 0 0-.131-.453 1.612 1.612 0 0 0-.501-.356 8.341 8.341 0 0 0-.721-.328 10.758 10.758 0 0 1-.779-.378 3.55 3.55 0 0 1-.684-.477 1.744 1.744 0 0 1-.456-.65c-.097-.252-.113-.555-.048-.907.07-.378.234-.702.492-.974.265-.276.62-.468 1.062-.575.45-.112.987-.111 1.61.003.416.077.816.202 1.2.377.385.169.714.38.987.63l-.686 1.075a3.938 3.938 0 0 0-.854-.557 3.338 3.338 0 0 0-.882-.299 2.18 2.18 0 0 0-.746-.03c-.202.035-.354.1-.457.2a.62.62 0 0 0-.192.354.513.513 0 0 0 .131.454c.12.126.288.242.503.346.215.105.452.214.711.326.265.114.526.237.781.369.262.132.494.289.695.469.201.18.35.396.447.648.103.254.123.553.059.9a1.824 1.824 0 0 1-.499.962c-.265.27-.622.461-1.072.574-.444.113-.981.112-1.61-.004Zm3.001.436 4.162-6.067 1.511.278 1.739 7.153-1.605-.296-1.343-6.28.604.112-3.501 5.388-1.567-.288Zm1.734-1.146.619-1.086 3.399.625.202 1.238-4.22-.777Zm9.037 3.128 1.217-6.61 1.529.282-.987 5.363 3.314.61-.229 1.246-4.844-.891Zm7.832-2.64 3.181.587-.218 1.19-3.182-.587.219-1.19Zm-.387 2.74 3.597.663-.226 1.227-5.117-.941 1.216-6.61 4.994.92-.225 1.227-3.475-.64-.764 4.155Zm5.957 2.366.987-5.363-2.115-.389.229-1.246 5.76 1.06-.23 1.246-2.115-.39-.987 5.364-1.529-.282Zm5.929 1.091.987-5.362-2.115-.39.229-1.246 5.759 1.06-.229 1.246-2.115-.389-.987 5.363-1.529-.282Zm6.6-2.865 3.182.585-.219 1.19-3.182-.585.219-1.19Zm-.387 2.74 3.597.662-.226 1.227-5.117-.942 1.216-6.609 4.995.92-.226 1.227-3.474-.64-.765 4.155Zm4.588 2.113 1.217-6.609 2.861.527c.591.109 1.083.3 1.475.574.393.267.674.602.84 1.004.167.401.205.85.113 1.348-.09.491-.285.895-.584 1.21-.297.31-.678.52-1.14.63-.463.11-.99.11-1.582.002l-2.011-.37.803-.546-.462 2.512-1.53-.282Zm4.202.773-1.211-2.702 1.633.3 1.23 2.707-1.652-.305Zm-2.241-2.833-.548-.842 1.926.354c.472.087.843.051 1.113-.108.271-.164.44-.426.506-.785.067-.365.003-.67-.193-.914s-.53-.41-1.002-.497l-1.926-.354.814-.602-.69 3.748Z" fill="#0F67AD"/></g><defs><clipPath id="clip0_109_2846"><path fill="#fff" transform="translate(0 1)" d="M0 0h300v169H0z"/></clipPath></defs></svg>