<svg width="300" height="170" viewBox="0 0 300 170" fill="none" xmlns="http://www.w3.org/2000/svg"><path stroke="#280C14" stroke-width=".4" d="M-.003 97.8h300.006"/><path d="M147.497 148.044c52.005 0 94.163-8.307 94.163-18.554 0-10.246-42.158-18.553-94.163-18.553-52.004 0-94.163 8.307-94.163 18.553 0 10.247 42.159 18.554 94.163 18.554Z" fill="#C7C7C7"/><path d="M227.132 99.621c-8.151 6.499-19.448-3.55-16.747-11.77 1.397-4.251 4.71-7.63 5.375-12.125.687-4.64 2.87-6.602 6.438-9.405 1.399-1.1 1.959-3.122 2.61-4.771 1.228-3.113 3.064-5.734 6.018-7.404 3.641-2.06 10.805.718 11.698 5.331 1.083 5.599-6.144 8.249-8.51 11.844-2.03 3.087-.115 7.15-3.09 10.495-4.472 5.023 2.617 13.016-3.792 17.805Z" fill="#88C8FC"/><path d="M218.596 109.107a.33.33 0 0 1-.329-.303c-1.444-15.979 3.4-32.176 13.288-44.436a.33.33 0 0 1 .466-.049.334.334 0 0 1 .048.468c-9.781 12.127-14.573 28.15-13.144 43.958a.331.331 0 0 1-.299.361l-.03.001Z" fill="#29275F"/><path d="M223.211 89.111c-2.199 3.127-3.931 6.632-7.661 7.32-5.633 1.04-12.378 6.44-12.034 13.493-.098 14.362 21.696 14.069 23.379 3.402.794-5.042 2.067-7.241 7.194-7.98 3.07-.442 3.999-3.041 4.863-5.706.801-1.223 1.949-2.166 3.325-2.67 1.951-.714 4.153-.404 6.241-.467 1.842-.055 3.682-.437 5.049-1.659 1.3-1.166 2.152-2.818 2.378-4.663.222-1.836-.235-3.761-1.3-5.395-1.004-1.539-2.527-2.792-4.172-3.442-1.866-.742-3.773-.732-5.502-.012-2.002.828-3.556 2.331-5.108 3.797-.01.011-.022.02-.033.03-1.996 1.894-4.846 2.57-7.669 1.861-3.368-.845-6.576-1.279-8.95 2.091Z" fill="#62B4F2"/><path d="M203.251 122.95a.336.336 0 0 1-.169-.046.334.334 0 0 1-.115-.455c9.261-15.673 23.799-27.353 40.937-32.89a.332.332 0 0 1 .202.632c-16.984 5.487-31.392 17.064-40.571 32.597a.329.329 0 0 1-.284.162Z" fill="#29275F"/><path d="M71.497 105.562c8.15 6.499 19.448-3.55 16.746-11.772-1.397-4.25-4.71-7.63-5.375-12.124-.687-4.64-2.87-6.602-6.438-9.405-1.398-1.1-1.958-3.122-2.61-4.771-1.228-3.114-3.064-5.734-6.018-7.404-3.64-2.06-10.805.717-11.698 5.331-1.083 5.599 6.145 8.249 8.51 11.844 2.03 3.087.115 7.15 3.09 10.495 4.472 5.024-2.617 13.017 3.793 17.806Z" fill="#62B4F2"/><path d="M80.033 115.049a.332.332 0 0 1-.33-.363c1.429-15.81-3.362-31.831-13.144-43.958a.334.334 0 0 1 .049-.468.33.33 0 0 1 .465.05c9.889 12.26 14.733 28.457 13.289 44.436a.332.332 0 0 1-.33.303Z" fill="#29275F"/><path d="M76.789 93.151c2.2 3.127 3.93 6.632 7.661 7.32 5.633 1.04 12.378 6.44 12.034 13.494.098 14.362-21.696 14.069-23.379 3.402-.794-5.042-2.068-7.242-7.194-7.981-3.07-.441-4-3.041-4.864-5.705-.8-1.224-1.948-2.167-3.324-2.67-1.952-.715-4.154-.405-6.241-.467-1.842-.055-3.682-.437-5.05-1.66-1.3-1.166-2.15-2.818-2.378-4.662-.22-1.837.236-3.761 1.3-5.396 1.005-1.538 2.528-2.791 4.173-3.442 1.866-.742 3.773-.731 5.502-.012 2.002.829 3.556 2.332 5.108 3.797l.033.032c1.996 1.893 4.846 2.57 7.669 1.86 3.368-.846 6.576-1.28 8.95 2.09Z" fill="#88C8FC"/><path d="M96.749 126.99a.33.33 0 0 1-.285-.162c-9.178-15.533-23.586-27.11-40.57-32.596a.332.332 0 0 1 .202-.633c17.138 5.537 31.676 17.217 40.937 32.89a.333.333 0 0 1-.284.501Zm135.729 14.455H66.237a3.367 3.367 0 0 1-3.358-3.376v-1.421h172.957v1.421a3.367 3.367 0 0 1-3.358 3.376Z" fill="#29275F"/><path d="M217.792 110.18H80.922L62.88 136.649h172.957l-18.044-26.469Z" fill="#fff"/><path d="M215.436 22.914H83.279a2.293 2.293 0 0 0-2.287 2.298v84.968h136.731V25.212a2.292 2.292 0 0 0-2.287-2.298Zm17.042 118.863H66.237c-2.034 0-3.69-1.663-3.69-3.708v-1.42c0-.184.149-.333.331-.333h172.958c.182 0 .33.149.33.333v1.42c.001 2.045-1.654 3.708-3.688 3.708Zm-169.269-4.796v1.088a3.04 3.04 0 0 0 3.028 3.044h166.241a3.04 3.04 0 0 0 3.028-3.044v-1.088H63.209Z" fill="#29275F"/><path d="M235.836 136.981H62.879a.33.33 0 0 1-.273-.52l18.044-26.469a.33.33 0 0 1 .273-.144h136.869c.109 0 .211.054.273.144l18.044 26.469a.335.335 0 0 1 .019.343.33.33 0 0 1-.292.177Zm-172.33-.665h171.703l-17.591-25.804H81.097l-17.591 25.804Z" fill="#29275F"/><path d="M217.723 110.512H80.992a.332.332 0 0 1-.33-.332V25.212a2.627 2.627 0 0 1 2.617-2.63h132.157a2.627 2.627 0 0 1 2.618 2.63v84.968a.332.332 0 0 1-.331.332Zm-136.4-.664h136.07V25.212a1.964 1.964 0 0 0-1.957-1.966H83.279a1.964 1.964 0 0 0-1.956 1.966v84.636Z" fill="#29275F"/><path d="M213.539 103.741H85.176a.332.332 0 0 1-.33-.332V30.145c0-.183.148-.332.33-.332H213.54c.182 0 .33.149.33.332v73.264a.331.331 0 0 1-.33.332Zm-128.032-.665h127.701V30.477H85.507v72.599Z" fill="#29275F"/><path d="M184.524 106.444h-70.333v3.211h70.333v-3.211Z" fill="#fff"/><path d="M174.158 134.841h-49.602a.333.333 0 0 1-.272-.52l5.174-7.591a.332.332 0 0 1 .273-.144h39.253c.109 0 .211.054.273.144l5.174 7.591a.332.332 0 0 1-.273.52Zm-48.974-.665h48.348l-4.722-6.926h-38.904l-4.722 6.926Zm-26.322-16.901h-9.148a.331.331 0 0 1-.287-.495l2.346-4.199a.33.33 0 0 1 .289-.17h8.788a.331.331 0 0 1 .298.476l-1.988 4.199a.329.329 0 0 1-.298.189Zm-8.583-.664h8.374l1.674-3.535h-8.072l-1.976 3.535Zm24.376.665h-9.147a.331.331 0 0 1-.306-.459l1.728-4.2a.33.33 0 0 1 .305-.205h8.789a.33.33 0 0 1 .313.436l-1.369 4.199a.327.327 0 0 1-.313.229Zm-8.653-.665h8.414l1.152-3.535h-8.111l-1.455 3.535Zm24.446.664h-9.147a.332.332 0 0 1-.319-.417l1.108-4.2a.33.33 0 0 1 .32-.247h8.788a.33.33 0 0 1 .325.391l-.749 4.199a.331.331 0 0 1-.326.274Zm-8.717-.664h8.441l.631-3.535h-8.139l-.933 3.535Zm24.511.664h-9.148a.334.334 0 0 1-.247-.111.337.337 0 0 1-.081-.26l.489-4.2a.33.33 0 0 1 .328-.293h8.789c.089 0 .175.036.237.101a.327.327 0 0 1 .093.241l-.13 4.2a.33.33 0 0 1-.33.322Zm-8.776-.664h8.456l.11-3.535h-8.154l-.412 3.535Zm24.569.664h-9.147a.332.332 0 0 1-.331-.322l-.13-4.199a.333.333 0 0 1 .33-.343h8.789a.33.33 0 0 1 .328.293l.489 4.2a.333.333 0 0 1-.328.371Zm-8.827-.664h8.456l-.412-3.535h-8.154l.11 3.535Zm24.621.664h-9.148a.33.33 0 0 1-.325-.274l-.75-4.199a.335.335 0 0 1 .072-.272.33.33 0 0 1 .254-.119h8.788c.15 0 .281.101.32.247l1.108 4.2a.331.331 0 0 1-.319.417Zm-8.871-.664h8.441l-.933-3.535h-8.14l.632 3.535Zm24.664.664h-9.147a.33.33 0 0 1-.314-.229l-1.369-4.199a.333.333 0 0 1 .314-.436h8.788c.134 0 .254.081.306.205l1.727 4.2a.331.331 0 0 1-.305.459Zm-8.908-.664h8.413l-1.454-3.535h-8.111l1.152 3.535Zm24.701.664h-9.147a.33.33 0 0 1-.299-.19l-1.988-4.199a.333.333 0 0 1 .299-.476h8.788c.12 0 .23.065.288.17l2.347 4.199a.337.337 0 0 1-.003.331.327.327 0 0 1-.285.165Zm-8.938-.664h8.374l-1.976-3.535h-8.071l1.673 3.535Zm-111.514 6.555h-9.147a.331.331 0 0 1-.288-.495l2.347-4.199a.33.33 0 0 1 .288-.17h8.788a.332.332 0 0 1 .299.476l-1.988 4.2a.333.333 0 0 1-.3.188Zm-8.582-.664h8.373l1.673-3.535h-8.071l-1.975 3.535Zm24.375.665h-9.147a.33.33 0 0 1-.306-.459l1.728-4.2a.331.331 0 0 1 .305-.205h8.789a.33.33 0 0 1 .314.435l-1.369 4.2a.33.33 0 0 1-.314.229Zm-8.653-.664h8.413l1.153-3.535h-8.112l-1.454 3.535Zm24.447.664h-9.148a.33.33 0 0 1-.319-.417l1.108-4.2a.333.333 0 0 1 .32-.247h8.788c.098 0 .191.044.253.119a.335.335 0 0 1 .072.272l-.75 4.2a.328.328 0 0 1-.324.273Zm-8.718-.664h8.441l.631-3.535h-8.138l-.934 3.535Zm24.511.664h-9.147a.33.33 0 0 1-.329-.371l.489-4.199a.33.33 0 0 1 .328-.294h8.788a.334.334 0 0 1 .331.343l-.13 4.2a.33.33 0 0 1-.33.321Zm-8.776-.664h8.456l.109-3.535h-8.153l-.412 3.535Zm24.569.664h-9.147a.332.332 0 0 1-.331-.322l-.13-4.2a.339.339 0 0 1 .093-.242.333.333 0 0 1 .238-.1h8.788a.33.33 0 0 1 .328.293l.489 4.2a.33.33 0 0 1-.328.371Zm-8.827-.664h8.456l-.412-3.535H143.2l.109 3.535Zm24.621.664h-9.147a.332.332 0 0 1-.326-.273l-.749-4.2a.33.33 0 0 1 .325-.391h8.789c.149 0 .281.102.319.247l1.108 4.2c.027.1.005.206-.057.288a.333.333 0 0 1-.262.129Zm-8.871-.664h8.44l-.932-3.535h-8.139l.631 3.535Zm24.664.664h-9.147a.33.33 0 0 1-.314-.229l-1.369-4.199a.33.33 0 0 1 .313-.436h8.789a.33.33 0 0 1 .305.206l1.728 4.2a.334.334 0 0 1-.031.311.329.329 0 0 1-.274.147Zm-8.907-.664h8.413l-1.454-3.535h-8.112l1.153 3.535Zm24.7.663h-9.147a.333.333 0 0 1-.299-.189l-1.988-4.2a.334.334 0 0 1 .299-.476h8.788c.12 0 .23.065.288.17l2.347 4.199a.337.337 0 0 1-.003.331.327.327 0 0 1-.285.165Zm-8.938-.664h8.373l-1.975-3.535h-8.072l1.674 3.535Zm24.405.664h-9.147a.332.332 0 0 1-.299-.189l-1.989-4.2a.336.336 0 0 1 .02-.321.33.33 0 0 1 .279-.155h8.788c.12 0 .23.065.289.17l2.347 4.199a.334.334 0 0 1-.288.496Zm-8.938-.664h8.373l-1.975-3.535h-8.072l1.674 3.535Z" fill="#29275F"/><path d="M213.539 30.146H85.176v73.264H213.54V30.147Z" fill="#0F67AD"/><mask id="mask0_109_3869" style="mask-type:luminance" maskUnits="userSpaceOnUse" x="99" y="1" width="112" height="103"><path d="M99 103.671h112V1L99 3.463V103.67Z" fill="#fff"/></mask><g mask="url(#mask0_109_3869)"><path d="m175.206 2.307 29.064 86.526-61.665 20.844-29.064-86.526 61.665-20.844Z" fill="#fff" stroke="#000" stroke-width=".2"/><path d="m140.447 32.335-2.639-7.856 4.738-1.601.284.844-3.788 1.28.892 2.654 3.542-1.197.283.844-3.542 1.197.897 2.67 3.849-1.3.283.843-4.799 1.622Zm8.766-9.523a1.267 1.267 0 0 0-.864-.717c-.399-.104-.836-.076-1.312.085a2.42 2.42 0 0 0-.855.477c-.221.2-.371.423-.45.67a1.17 1.17 0 0 0 .011.743c.07.21.18.373.331.49.152.114.324.194.516.24.191.044.384.068.579.073.195.003.371-.001.53-.012l.869-.055c.223-.015.475-.018.757-.008.285.01.57.057.855.143.287.082.548.225.784.427.236.202.415.487.539.856.143.424.16.845.053 1.263-.105.417-.335.798-.692 1.144-.353.344-.832.618-1.435.822-.562.19-1.08.264-1.552.221a2.449 2.449 0 0 1-1.221-.433 2.28 2.28 0 0 1-.775-.998l.981-.331c.125.288.308.5.547.635.24.132.511.2.811.204.302 0 .609-.052.92-.157.363-.123.669-.292.919-.507.248-.218.421-.461.518-.73.097-.272.097-.551.001-.838-.088-.26-.232-.448-.433-.563a1.685 1.685 0 0 0-.709-.204 6.346 6.346 0 0 0-.86-.008l-1.059.05c-.673.03-1.243-.057-1.711-.263-.467-.207-.79-.575-.968-1.104a2.01 2.01 0 0 1-.03-1.271c.13-.412.366-.776.708-1.094a3.455 3.455 0 0 1 1.269-.736c.506-.171.986-.233 1.44-.184a2.46 2.46 0 0 1 1.183.42c.338.234.579.546.725.939l-.92.31Zm4.891 4.907-.996.337.244-8.83.981-.332 5.522 6.882-.997.337-4.567-5.82-.062.02-.125 7.406Zm-.662-3.193 4.017-1.358.284.844-4.018 1.358-.283-.844Zm-18.089 24.31-2.638-7.856.95-.322 2.355 7.012 3.65-1.233.283.844-4.6 1.555Zm6.072-2.053-2.638-7.856 4.738-1.601.283.844-3.787 1.28.892 2.654 3.542-1.197.283.844-3.542 1.197.897 2.67 3.848-1.3.284.843-4.8 1.622Zm3.668-9.047-.284-.844 5.888-1.99.284.843-2.469.835 2.355 7.012-.95.321-2.356-7.012-2.468.835Zm6.926-2.341-.284-.844 5.889-1.99.283.843-2.469.835 2.355 7.012-.95.321-2.355-7.012-2.469.835Zm9.71 4.526-2.638-7.856 4.738-1.602.283.844-3.787 1.28.892 2.655 3.542-1.197.283.843-3.542 1.198.897 2.67 3.848-1.301.284.844-4.8 1.622Zm6.452-2.18-2.638-7.857 2.652-.896c.614-.208 1.152-.273 1.616-.196.464.074.851.26 1.162.56.311.299.544.68.7 1.143.155.463.198.905.129 1.327a2.111 2.111 0 0 1-.586 1.138c-.324.334-.789.604-1.397.81l-2.147.725-.289-.86 2.116-.714c.419-.142.736-.317.95-.526.217-.21.346-.447.385-.711a1.846 1.846 0 0 0-.097-.873 1.92 1.92 0 0 0-.453-.765 1.269 1.269 0 0 0-.747-.354c-.302-.044-.665.006-1.089.15l-1.671.565 2.355 7.012-.951.321Zm2.51-4.779 3.118 2.876-1.104.373-3.087-2.886 1.073-.363Z" fill="#334B5E"/><path d="m146.638 93.37 19.422-6.565m5.751-1.944 19.422-6.565m-46.249-4.691 35.642-12.047m-48.054-6.866 46.525-15.726m-45.405 19.06 46.524-15.727m-45.404 19.06 46.524-15.726m-45.404 19.06 46.524-15.726m-45.404 19.059L183.576 52.3m-45.405 19.061 46.524-15.726" stroke="#3D5970" stroke-width=".673" stroke-miterlimit="10"/><path d="m194.911 83.103 15.399 21.037.254.348-.407-.14-8.403-2.894-.033.151a236.898 236.898 0 0 0-.684 3.232c-.182.9-.359 1.815-.478 2.537-.06.36-.106.671-.131.907a3.57 3.57 0 0 0-.021.29.825.825 0 0 0 .001.089l.004.026a.044.044 0 0 1 .001.009l-.24.118c-3.715-5.565-6.09-11.482-7.537-16.007a69.452 69.452 0 0 1-1.526-5.528 52.297 52.297 0 0 1-.338-1.574 35.36 35.36 0 0 1-.078-.418l-.019-.108-.005-.028-.001-.007v-.002l-.017-.1.091-.044 4-1.935.102-.05.066.091Z" fill="#fff" stroke="#000" stroke-width=".27"/><path d="m190.063 74.842.62-1.11 1.034.739.837-.958.858.939 1.017-.762.644 1.098 1.153-.533.403 1.207 1.238-.28.144 1.265 1.269-.017-.121 1.268 1.244.248-.381 1.215 1.166.503-.625 1.108 1.036.735-.841.953.862.936-1.021.757.649 1.095-1.155.528.408 1.206-1.239.276.149 1.264-1.27.01-.116 1.27-1.244-.255-.376 1.216-1.164-.507-.621 1.11-1.033-.739-.838.957-.857-.938-1.017.761-.645-1.097-1.153.533-.402-1.208-1.238.282-.144-1.266-1.269.017.121-1.268-1.245-.249.382-1.214-1.166-.502.625-1.109-1.037-.735.841-.954-.861-.935 1.02-.758-.649-1.094 1.155-.528-.408-1.206 1.24-.276-.149-1.264 1.269-.011.116-1.269 1.244.255.377-1.217 1.164.508Z" fill="#62B4F2"/><path d="M192.652 88.48c3.266 0 5.913-2.656 5.913-5.931 0-3.277-2.647-5.932-5.913-5.932-3.266 0-5.913 2.655-5.913 5.931 0 3.276 2.647 5.932 5.913 5.932Z" fill="#fff"/><path d="M146.335 90.906c1.228-1.546 2.519-3.269 2.48-5.246-.01-.551-.144-1.13-.522-1.53-.379-.4-1.052-.55-1.493-.22-.41.306-.49.878-.535 1.388-.096 1.093-.176 2.232.215 3.257.391 1.026 1.393 1.904 2.48 1.78.702-.08 1.297-.544 1.802-1.039 1.02-.996 1.888-2.45 1.406-3.794-.077-.216-.223-.446-.451-.468-.233-.024-.422.181-.546.379a3.15 3.15 0 0 0-.478 1.747c.01.422.184.922.597 1.003.178.035.36-.02.528-.089.875-.364 1.52-1.128 2.34-1.604.821-.476 2.057-.544 2.548.27.494.82-.442 2.034-1.361 1.772-.919-.261-1.093-1.768-.263-2.244.523-.3 1.172-.18 1.775-.192 1.899-.036 3.688-1.852 3.371-3.73-.068-.398-.232-.8-.549-1.047-.318-.247-.812-.292-1.111-.023-.221.199-.294.512-.336.807a6.952 6.952 0 0 0 .238 3.016c.132.428.322.865.682 1.13.703.518 1.693.173 2.468-.229.722-.373 1.54-1.066 1.263-1.831-.049-.137-.147-.27-.289-.302-.39-.085-.469.539-.349.922m10.428-3.648c1.208-2.952 1.087-6.422-.323-9.282-.22-.446-.536-.924-1.027-.991a16.592 16.592 0 0 0 1.267 6.392c.499 1.202 1.28 2.457 2.541 2.764.292.071.618.082.874-.075.257-.156.4-.52.238-.774m.265-4.668a22.616 22.616 0 0 0 1.096 4.889c.111.323.25.67.545.843.294.173.775.033.798-.308m-.993-6.888c.024 1.649.226 3.295.602 4.9.109.468.24.946.529 1.329.289.382.775.653 1.244.555.414-.086.723-.429.967-.775 1.291-1.828 1.581-4.324.742-6.4-.145-.358-.558-.761-.843-.5-.097.09-.128.23-.151.36a10.8 10.8 0 0 0-.064 3.446c.103.724.484 1.606 1.213 1.581.495-.016.855-.468 1.106-.896.419-.715.74-1.486.954-2.286.109-.41.227-.877.6-1.075.333-.177.751-.063 1.067.14.518.334.886.927.866 1.545-.019.617-.473 1.218-1.079 1.326-.14-.055-.201-.252-.116-.377" stroke="#737373" stroke-width=".673" stroke-miterlimit="10"/><path d="m189.52 83.415 3.119 1.552 5.171-10.46" stroke="#38E9BF" stroke-width="2.161" stroke-miterlimit="10" stroke-linecap="round"/></g><path d="M90.212 36.288a1.51 1.51 0 0 0 1.505-1.513c0-.835-.674-1.512-1.505-1.512-.831 0-1.505.677-1.505 1.512 0 .836.674 1.513 1.505 1.513Zm7.268-.001c-.83 0-1.504-.677-1.504-1.512s.673-1.513 1.505-1.513c.83 0 1.504.678 1.504 1.513 0 .835-.674 1.512-1.504 1.512Zm-7.268 7.307a1.51 1.51 0 0 0 1.505-1.513c0-.835-.674-1.512-1.505-1.512-.831 0-1.505.677-1.505 1.512 0 .836.674 1.513 1.505 1.513Zm0 7.306c.83 0 1.505-.677 1.505-1.512s-.674-1.512-1.505-1.512c-.831 0-1.505.677-1.505 1.512s.674 1.513 1.505 1.513Zm0 7.307a1.51 1.51 0 0 0 1.505-1.512c0-.836-.674-1.513-1.505-1.513-.831 0-1.505.677-1.505 1.513 0 .835.674 1.512 1.505 1.512Zm-1.505 5.794c0-.835.674-1.512 1.505-1.512.83 0 1.505.677 1.505 1.512s-.674 1.513-1.505 1.513A1.509 1.509 0 0 1 88.707 64Zm8.773-20.407c-.83 0-1.504-.677-1.504-1.513 0-.835.673-1.512 1.505-1.512.83 0 1.504.677 1.504 1.512s-.674 1.513-1.504 1.513Zm-1.504 5.794c0-.835.673-1.512 1.505-1.512.83 0 1.504.677 1.504 1.512s-.674 1.513-1.504 1.513a1.509 1.509 0 0 1-1.505-1.513Zm0 7.307c0-.836.673-1.513 1.505-1.513.83 0 1.504.677 1.504 1.513 0 .835-.674 1.512-1.504 1.512a1.509 1.509 0 0 1-1.505-1.512Zm0 7.306c0-.835.673-1.512 1.505-1.512.83 0 1.504.677 1.504 1.512s-.674 1.513-1.504 1.513A1.509 1.509 0 0 1 95.976 64Zm-5.764 8.819a1.51 1.51 0 0 0 1.505-1.513 1.51 1.51 0 0 0-1.505-1.513 1.51 1.51 0 0 0-1.505 1.513 1.51 1.51 0 0 0 1.505 1.513Zm5.764-1.513c0-.835.673-1.513 1.505-1.513.83 0 1.504.678 1.504 1.513a1.51 1.51 0 0 1-1.504 1.513 1.508 1.508 0 0 1-1.505-1.513Zm105.508-34.948a1.509 1.509 0 0 1-1.505-1.513c0-.835.674-1.512 1.505-1.512.831 0 1.505.677 1.505 1.512 0 .836-.674 1.513-1.505 1.513Zm7.269 0a1.509 1.509 0 0 1-1.505-1.513c0-.835.674-1.512 1.505-1.512.831 0 1.504.677 1.504 1.512 0 .836-.673 1.513-1.504 1.513Zm-7.269 7.308a1.51 1.51 0 0 0 1.505-1.513c0-.835-.674-1.512-1.505-1.512-.831 0-1.505.677-1.505 1.512s.674 1.513 1.505 1.513Zm0 7.305c.831 0 1.505-.677 1.505-1.512 0-.836-.674-1.513-1.505-1.513-.831 0-1.505.677-1.505 1.513 0 .835.674 1.512 1.505 1.512Zm0 7.307a1.51 1.51 0 0 0 1.505-1.513 1.51 1.51 0 0 0-1.505-1.513 1.51 1.51 0 0 0-1.505 1.513 1.51 1.51 0 0 0 1.505 1.513Zm7.269-14.612c.831 0 1.504-.678 1.504-1.513 0-.835-.673-1.512-1.504-1.512s-1.505.677-1.505 1.512.674 1.513 1.505 1.513Zm0 7.305c.831 0 1.504-.677 1.504-1.512 0-.836-.673-1.513-1.504-1.513s-1.505.677-1.505 1.513c0 .835.674 1.512 1.505 1.512Zm0 7.307c.831 0 1.504-.678 1.504-1.513 0-.835-.673-1.513-1.504-1.513s-1.505.678-1.505 1.513a1.51 1.51 0 0 0 1.505 1.513Zm-14.775-22.172c.831 0 1.505-.677 1.505-1.512 0-.836-.674-1.513-1.505-1.513-.831 0-1.505.677-1.505 1.513 0 .835.674 1.512 1.505 1.512Zm0 7.307c.831 0 1.505-.677 1.505-1.512 0-.836-.674-1.513-1.505-1.513-.831 0-1.505.677-1.505 1.513 0 .835.674 1.512 1.505 1.512Zm0 7.306c.831 0 1.505-.677 1.505-1.512s-.674-1.513-1.505-1.513a1.51 1.51 0 0 0-1.505 1.513c0 .835.674 1.512 1.505 1.512Zm-1.505 5.794c0-.835.674-1.512 1.505-1.512.831 0 1.505.677 1.505 1.512 0 .836-.674 1.513-1.505 1.513a1.509 1.509 0 0 1-1.505-1.513Zm9.897-52.631a.84.84 0 0 1-.839.843h-2.185v2.197a.84.84 0 0 1-1.432.597.848.848 0 0 1-.245-.597V4.726h-2.186a.84.84 0 0 1-.839-.843.841.841 0 0 1 .839-.843h2.186V.843a.84.84 0 0 1 1.432-.597c.15.154.245.364.245.597V3.04h2.185a.84.84 0 0 1 .839.843Zm-1.785 9.464c-1.457 0-1.459 2.276 0 2.276 1.457 0 1.459-2.276 0-2.276Zm10.389-9.234c-1.457 0-1.459 2.276 0 2.276 1.457 0 1.459-2.276 0-2.276Zm26.503 36.945a.84.84 0 0 1-.838.843h-2.186v2.197a.84.84 0 0 1-1.432.596.848.848 0 0 1-.245-.597V41.9h-2.186a.84.84 0 0 1-.838-.842.84.84 0 0 1 .838-.843h2.186v-2.198a.84.84 0 0 1 1.432-.596.848.848 0 0 1 .245.597v2.197h2.186a.84.84 0 0 1 .838.843Zm-12.4 6.83c-1.457 0-1.459 2.276 0 2.276 1.457 0 1.459-2.276 0-2.276Zm1.228-16.655c-1.456 0-1.458 2.275 0 2.275 1.457 0 1.459-2.275 0-2.275ZM102.848 13.876a.84.84 0 0 1-.838.843h-2.186v2.197a.84.84 0 0 1-1.432.597.849.849 0 0 1-.245-.597v-2.197h-2.186a.84.84 0 0 1-.838-.843.84.84 0 0 1 .839-.843h2.185v-2.197a.84.84 0 0 1 1.433-.597c.15.154.245.364.245.597v2.197h2.185a.84.84 0 0 1 .838.843ZM89.193 11.07c-1.457 0-1.459 2.276 0 2.276 1.457 0 1.46-2.276 0-2.276Zm15.859-7.97c-1.456 0-1.459 2.275 0 2.275 1.457 0 1.459-2.275 0-2.275ZM68.425 49.736a.84.84 0 0 1-.838.843H65.4v2.197a.84.84 0 0 1-1.432.596.849.849 0 0 1-.246-.596v-2.198h-2.185a.84.84 0 0 1-.839-.842.84.84 0 0 1 .839-.843h2.185v-2.197a.84.84 0 0 1 1.433-.597c.15.154.245.364.245.597v2.197h2.186a.84.84 0 0 1 .838.843Zm-13.971-2.609c-1.457 0-1.46 2.276 0 2.276 1.457 0 1.459-2.276 0-2.276Z" fill="#AFD4EF"/></svg>