<?xml version="1.0" standalone="no"?>
<!DOCTYPE svg PUBLIC "-//W3C//DTD SVG 20010904//EN"
 "http://www.w3.org/TR/2001/REC-SVG-20010904/DTD/svg10.dtd">
<svg version="1.0" xmlns="http://www.w3.org/2000/svg"
 width="700.000000pt" height="700.000000pt" viewBox="0 0 700.000000 700.000000"
 preserveAspectRatio="xMidYMid meet">
<metadata>
Created by potrace 1.14, written by Peter Selinger 2001-2017
</metadata>
<g transform="translate(0.000000,700.000000) scale(0.100000,-0.100000)"
fill="#000000" stroke="none">
<path d="M0 3500 l0 -3500 3500 0 3500 0 0 3500 0 3500 -3500 0 -3500 0 0
-3500z m3150 2105 l0 -285 -785 0 -785 0 0 -405 0 -405 670 0 670 0 0 -275 0
-275 -670 0 -670 0 0 -455 0 -455 790 0 790 0 0 -280 0 -280 -1140 0 -1140 0
0 1700 0 1700 1135 0 1135 0 0 -285z m922 -1112 c35 -127 752 -2510 757 -2516
5 -5 513 1658 758 2486 l15 47 389 0 c214 0 389 -1 389 -3 0 -4 -1130 -3253
-1162 -3340 l-21 -57 -365 2 -365 3 -588 1695 c-324 932 -589 1696 -589 1698
0 1 175 2 389 2 362 0 389 -1 393 -17z"/>
</g>
</svg>
