<svg xmlns="http://www.w3.org/2000/svg" width="195" height="64" viewBox="0 0 195 64"><defs><clipPath id="n6qqa"><path d="M0 7h55v57H0z"/></clipPath></defs><g><g><g><path fill="#7a7a7a" d="M56.561 31.497C52.099 59.297 75.701 49 76.173 43.522c-.173 2.406 2.232 6.095 7.478 5.87 5.246-.223 6.349-4.73 6.349-4.73-3.126-.662-2.313-7.414-2.313-7.414l1.2-13.675c.113-1.458-.752-2.685-2.126-2.968l-3.304-.681c-2.457-.516-5.136 1.547-5.365 4.205l-.495 5.745c-.597 7.055-1.759 12.541-5.534 12.702-3.775.162-4.401-3.794-3.645-12.576 1.644-19.074 10.445-16.317 20.314-12.424.595.235 1.341.082 1.832-.44 1.178-1.257-.357-3.055-.775-3.685C83.15 3.395 61.27 2.16 56.561 31.497"/></g><g><g/><g clip-path="url(#n6qqa)"><path fill="#7a7a7a" d="M46.21 7c-6.97.305-8.717 6.48-8.717 6.48 7.028 3.248 4.217 35.381-1.84 35.641-2.653.113-3.577-2.036-3.345-4.747l2.596-30.272c.15-1.749-1.125-3.102-2.85-3.033l-5.929.254c-1.723.074-3.242 1.552-3.392 3.301L19.616 51l-.044.454c-.232 2.71-2.107 4.98-4.188 5.07-2.08.088-3.578-2.037-3.384-4.747l3.196-36.83c.15-1.749-1.126-3.107-2.849-3.033l-5.93.254C4.694 12.242 3.175 13.72 3 15.47L.06 50C-.627 58.058 4.702 64.3 12 64c4.93-.224 9.515-3.45 12.135-8 .728-1.306 2.254-1.932 3.433-1.36 2.018.983 4.372 1.488 6.928 1.36C56.79 55.063 61.232 6.362 46.21 7"/></g></g><g><path fill="#7a7a7a" d="M115.251 18.617c-.02.063 1.48 1.823 3.749 1.722 9.372-.406 11.366-17.109-6.949-16.339-9.464.44-18.994 12.351-19.968 23.885-.974 11.534 6.734 20.513 16.2 20.115 8.401-.38 13.717-4.17 15.37-5.532.347-.287.585-.69.655-1.123.238-1.478.812-5.088.9-6.124.951-11.221-9.059-10.156-12.613-8.221-.595.323-1.027 1-1.084 1.652v.001c-.065.76.305 1.456.97 1.703 3.355 1.24 3.632 9.027.94 9.144 0 0-10.421 1.134-9.248-12.865.621-7.357 4.31-15.327 7.688-15.475.139-.006 5.816-.39 3.39 7.457"/></g><g><path fill="#7a7a7a" d="M150.94 18.096c-.02.067 1.513 1.904 3.893 1.824 9.59-.41 11.678-17.698-7.154-16.92-9.732.443-19.538 12.575-20.585 24.744C126 39.912 133.936 49.403 143.667 49c8.727-.386 14.233-4.455 15.875-5.848.328-.279.55-.662.615-1.07.243-1.512.843-5.422.96-6.531 1.011-11.757-9.066-10.757-12.811-8.775-.7.37-1.18 1.084-1.246 1.843-.06.79.318 1.51 1.014 1.782 3.42 1.341 3.672 9.524.926 9.599 0 0-10.744 1.218-9.473-13.55.668-7.762 4.473-16.08 7.957-16.229.152-.006 5.98-.4 3.456 7.875"/></g><g><g><path fill="#7a7a7a" d="M192 41.316L195 7.2c.14-1.751-1.148-3.11-2.886-3.035l-4.875.207c-1.739.074-3.239 1.555-3.421 3.306l-2.085 24.459c-.287 3.316-3.733 5.014-5.453 5.088-1.95.083-1.633-2.609-1.347-5.925l.001-.007 1.908-22.079c1.048-12.131-10.044-9.962-13.393-6.496-.69.714-.626 1.797.092 2.282 2.99 2.099 2.312 6.382 2.312 6.382l-2.315 26.299c-.374 4.319 2.256 7.575 6.82 7.38 5.01-.213 9.135-3.363 10.307-5.58.194-.366.716-.275.682.12L181 43.074c-.321 4.261-5.356 8.81-9.137 8.927-5.495.278-7.758-2.276-8.446-3.31-.166-.25-.486-.345-.8-.242a.903.903 0 0 0-.617.833c.113 4.622 5.745 9.017 13.113 8.719 7.705-.344 15.996-5.908 16.887-16.651"/></g></g></g></g></svg>