<svg xmlns="http://www.w3.org/2000/svg" width="350" height="223" viewBox="0 0 350 223"><defs><clipPath id="27hwa"><path d="M148.38 93.345l.62 1.94 2.493 1.03 1.119 2.869-2.078 2.816-4.534 2.361-6.667 1.866-4.095.312-1.094-2.66 2.856-2.475-1.259-4.072-2.944 2.346-2.497 3.017 2.522 15.113 4.337 1.457 9.648-1.604 8.341-3.37 8.118-8.291-3.959-7-2.672-4.26-1.399-.978-5.975-1.462z"/></clipPath><clipPath id="27hwb"><path d="M221.52 100.505l-.943 1.179-1.205 4.316-1.602 6.915 8.93 4.963 7.907.785 8.576-1.046 3.313-2.313-1.622-13.432L242 99.935l-3.072-1.254-.207 2.319 3.188 2.83-.263 2.527-3.549.753-6.097.085-4.437-.842-2.472-1.906.235-2.71 1.83-1.485.07-1.808-1.006-.664z"/></clipPath><clipPath id="27hwc"><path d="M221.52 100.505l-.943 1.179-1.205 4.316-1.602 6.915 8.93 4.963 7.907.785 8.576-1.046 3.313-2.313-1.622-13.432L242 99.935l-3.072-1.254-.207 2.319 3.188 2.83-.263 2.527-3.549.753-6.097.085-4.437-.842-2.472-1.906.235-2.71 1.83-1.485.07-1.808-1.006-.664z"/></clipPath><clipPath id="27hwd"><path d="M236.722 93.938c.048-.148-.987.062-2.629.33-1.687.247-4.014.493-6.463.319l.149.97.782 9.815s4.117 1.772 10.213.843c0 0-.698-12.375-1.871-12.375-.059 0-.12.031-.181.098z"/></clipPath><clipPath id="27hwe"><path d="M17 163.83h333v58.334H17z"/></clipPath><clipPath id="27hwf"><path d="M0 222.168h350V1H0z"/></clipPath></defs><g><g><g><g><path fill="#fff" d="M79 115.435C66.308 65.53 99.278 16 152.686 4.88 206.095-6.275 259.714 25.136 272.45 75c12.736 49.945-20.232 99.44-73.642 110.593C145.401 196.75 91.782 165.34 79 115.435"/></g><g><path fill="none" stroke="#8d8d8d" stroke-miterlimit="20" stroke-width="4.81" d="M78.674 115.565C65.938 65.66 98.908 16.165 152.315 5c53.41-11.145 107.028 20.267 119.765 70.17 12.736 49.906-20.233 99.4-73.642 110.554C145 196.88 91.412 165.469 78.674 115.564z"/></g><g><path fill="#fff" d="M60.498 119.915c.033-2.23-.796-6.098-5.769-10.052l-1.067-4.263.633-5.825.423-5.538s1.282-6.325-4.48-4.686c0 0-3.763 1.352-7.456 1.07 0 0-6.253-1.487-7.315 2.379 0 0 .93 7.924 10.305 5 0 0-2.413 3.348-.28 7.607 0 0-8.662 2.919-13.927-7.235 0 0 7.096-8.883 2.833-10.302 0 0-6.748.36-12.067 10.664 0 0-1.132 3.766 7.326 11.43l-4.05-.991-13.148-7.094S4 97.255 1.663 102.512c0 0-1.663 2.986 9.028 8.801 0 0 11.868 4.895 15.067 9.865l-2.346-.425-10.512-2.195s-9.38-4.894-11.222 1.359c0 0-2.128 4.264 9.737 6.67l12.433 4.609s16.215 13.311 24.626 4.328c-.008.476.307.178 1.094-1.174l.17-.146c.518.852 16.682 14.118 42.34 10.468 0 0 21.433-4.17 30.03-7.996 0 0 4.094-8.06 3.663-14.595-.432-6.535.758-4.139.758-4.139l1.16-4.53s-42.36 14.375-67.19 6.503"/></g><g><path fill="#fff" d="M118.654 157.587l-.307-6.587-1.197-13.859L121.741 124l2.49-6.105 8.86-.267 2.909-.149 24.28-6.084 4.955-4.465 12.59 2.923 9.067 6.147 9.764 14.254.91 19.065L184 151.327l-35.345 1.973-15.124 3.07z"/></g><g><path fill="#8d8d8d" d="M48.63 135.552c13.565 12.712 49.573 15.054 71.298 3.448l8.123-7.05s-47.534 23.514-78.259 2.486z"/></g><g><path fill="#8d8d8d" d="M132.584 182.13c-8.06-14.505-15.666-28.566-11.678-43.875l-2.31-.715s-7.44 11.355 10.325 46.15z"/></g><g><path fill="#8d8d8d" d="M25.522 124.316s-3.167-12.033 11.716-16.396c0 0-12.08 5.549-11.137 15.614z"/></g><g><path fill="#8d8d8d" d="M28.493 109.569S23 106.29 21.055 102c0 0-3.055-3.291 1.84-7.81 0 0 10.744-10.715 13.917-6.616 0 0 3.946 4.865-7.208 12.001 0 0 6.324-7.575 5.28-9.943 0 0-1.956-3.222-10.149 6.425 0 0-3.08 3.462-1.505 4.999 0 0 2.25 4.235 8.316 10.157 0 0-3.546.092-14.476-5.774 0 0-12.477-7.659-14.55-3.028 0 0-2.732 2.64 11.313 9.277 0 0 10.167 5.111 11.812 8.95 0 0-5.935-4.097-12.645-6.727 0 0-15.928-6.994-12.26-12.911 0 0 3.166-6 17.653 2.82z"/></g><g><path fill="#8d8d8d" d="M45.738 123.25s-11.814-7.125-1.049-17.374c0 0-2.455-2.732-.403-7.115 0 0-5.286 2.359-8.623-2.707 0 0-2.663-3.126 2.02-5.915 0 0 2.095-1.139 4.767-.471 0 0 4.23.825 7.55-.768 0 0 7.799-4.367 5 10.667 0 0-1.79 7.628 1.403 10.844 0 0 12.87 9.085-3.042 21.183 0 0 11.948-10.146.914-19.594 0 0-3.662-1.452-1.713-11.613 0 0 2.851-12.277-2.992-8.805 0 0-1.957 1.196-6.924.182 0 0-4.118-1.072-5.115.43 0 0-1.632 1.175-.004 3.743 0 0 3.314 3.395 10.669-.095 0 0-5.293 5.285-.283 9.628 0 0-9.639 6.827-2.594 16.59z"/></g><g><path fill="#8d8d8d" d="M32.885 96.92s4.115 9.943 13.325 8.301c0 0-7.157 5.779-15.66-6.406z"/></g><g><path fill="#8d8d8d" d="M25.291 120.615s-6.767-1.068-12.034-3.477c0 0-9.91-4.537-12.82 1.537 0 0-3.193 4.883 7.678 8.055 0 0 11.382 3.61 18.225 8.191 0 0 13.972 9.76 23.761 2.079 0 0 8.899-6.418-3.287-11.787 0 0 9.3 4.841 1.186 9.922 0 0-6.596 5.563-19.606-1.785 0 0-7.55-5.611-18.32-8.107 0 0-8.617-2.088-7.383-5.243 0 0 .511-4.375 9.509-.95 0 0 7.14 2.55 13.064 2.554z"/></g><g><path fill="#8d8d8d" d="M60.35 120.672c8.812 3.618 45.125 5.174 70.988-5.315l-1.111-3.59c4.484-5.187-33.843 15.46-69.33 7.387z"/></g><g><path fill="#8d8d8d" d="M159 99.88l3 4.613s-15.856 25-30.691 13.618l-2.999-3.717L131 115l2.357 2.52s12.047 7.895 25.257-13.385l-1.24-2.747z"/></g><g><path fill="#fff" d="M149.26 92.3l5.976 1.462 1.398.978 2.673 4.26 3.958 7-8.117 8.292-8.34 3.37-9.65 1.603-4.336-1.458-2.522-15.112 2.496-3.018 2.945-2.345 1.259 4.07-2.856 2.477 1.094 2.66 4.095-.312L146 104.36l4.534-2.361 2.077-2.817-1.118-2.868-2.493-1.03-.622-1.94z"/></g></g><g><g/><g clip-path="url(#27hwa)"><path fill="none" stroke="#000" stroke-miterlimit="20" stroke-width=".32" d="M153.364 100.43v0l6.12 11.889v0l-5.6 4.038v0l-5.544-13.606v0z"/></g></g><g><g><path fill="#8d8d8d" d="M151.082 117.269s-16.74 6.731-19.137.449l-2.665-12.083s-.524-2.086 6.182-8.935l.391 1.71s-4.853 2.833-3.802 7.408l2.439 10.887s1.04 4.172 15.418-1.288c0 0 1.233.084 1.174 1.852"/></g><g><path fill="none" stroke="#8d8d8d" stroke-miterlimit="20" d="M151.082 117.269s-16.74 6.731-19.137.449l-2.665-12.083v0s-.524-2.086 6.182-8.935l.391 1.71v0s-4.853 2.833-3.802 7.408l2.439 10.887v0s1.04 4.172 15.418-1.288c0 0 1.233.084 1.174 1.852z"/></g><g><path fill="#8d8d8d" d="M154.349 97.712c-1.096-1.903-6.456-1.46-11.971.98-5.515 2.444-9.097 5.964-8 7.866 1.097 1.899 6.459 1.442 11.973-.984 5.514-2.443 9.097-5.96 7.998-7.862"/></g><g><path fill="none" stroke="#8d8d8d" stroke-miterlimit="20" stroke-width="1.54" d="M154.349 97.712c-1.096-1.903-6.456-1.46-11.971.98-5.515 2.444-9.097 5.964-8 7.866 1.097 1.899 6.459 1.442 11.973-.984 5.514-2.443 9.097-5.96 7.998-7.862z"/></g><g><path fill="#8d8d8d" d="M150 117.717s16.66-6.34 14.098-12.836l-6.375-10.61s-.723-3.639-9.793-2.39l.07 1.666s6.363-1.461 7.835 2.763l5.72 9.583s.567 3.853-13.223 10.107c0 0 .386.475 1.668 1.717"/></g><g><path fill="none" stroke="#8d8d8d" stroke-miterlimit="20" stroke-width="1.09" d="M150 117.717s16.66-6.34 14.098-12.836l-6.375-10.61v0s-.723-3.639-9.793-2.39l.07 1.666v0s6.363-1.461 7.835 2.763l5.72 9.583v0s.567 3.853-13.223 10.107c0 0 .386.475 1.668 1.717z"/></g><g><path fill="#fff" d="M146.38 90.747l1.998 11.187s-3.149 2.598-10.068 3.537c0 0-.73-4.471-1.31-7.413-.1-.346 3.147-2.384 9.396-11.728z"/></g><g><path fill="#d5d5d5" d="M143.508 122.536c-.84-6.19-4.845-10.757-8.948-10.2-4.1.558-6.744 6.029-5.904 12.22.839 6.19 4.843 10.758 8.946 10.199 4.101-.557 6.745-6.028 5.906-12.219"/></g><g><path fill="none" stroke="#8d8d8d" stroke-miterlimit="20" stroke-width=".8" d="M143.508 122.536c-.84-6.19-4.845-10.757-8.948-10.2-4.1.558-6.744 6.029-5.904 12.22.839 6.19 4.843 10.758 8.946 10.199 4.101-.557 6.745-6.028 5.906-12.219z"/></g><g><path fill="none" stroke="#8d8d8d" stroke-miterlimit="20" stroke-width="1.85" d="M143.508 122.536c-.84-6.19-4.845-10.757-8.948-10.2-4.1.558-6.744 6.029-5.904 12.22.839 6.19 4.843 10.758 8.946 10.199 4.101-.557 6.745-6.028 5.906-12.219z"/></g><g><path fill="#d5d5d5" d="M141.417 123.412c-.839-6.188-4.844-10.754-8.945-10.196-4.103.558-6.747 6.027-5.906 12.22.838 6.19 4.844 10.755 8.946 10.198 4.103-.556 6.747-6.028 5.905-12.222"/></g><g><path fill="none" stroke="#8d8d8d" stroke-miterlimit="20" stroke-width=".8" d="M141.417 123.412c-.839-6.188-4.844-10.754-8.945-10.196-4.103.558-6.747 6.027-5.906 12.22.838 6.19 4.844 10.755 8.946 10.198 4.103-.556 6.747-6.028 5.905-12.222z"/></g><g><path fill="none" stroke="#8d8d8d" stroke-miterlimit="20" stroke-width="1.85" d="M141.417 123.412c-.839-6.188-4.844-10.754-8.945-10.196-4.103.558-6.747 6.027-5.906 12.22.838 6.19 4.844 10.755 8.946 10.198 4.103-.556 6.747-6.028 5.905-12.222z"/></g><g><path fill="#e4e4e4" d="M136.708 121c-.386-2.824-2.434-4.893-4.576-4.603-2.132.292-3.565 2.83-3.132 5.674.339 2.84 2.385 4.929 4.527 4.615 2.142-.29 3.566-2.829 3.18-5.686"/></g><g><path fill="#fff" d="M143.46 122.547c-.84-6.19-4.848-10.758-8.949-10.201-4.101.556-6.746 6.027-5.905 12.218.838 6.188 4.844 10.758 8.947 10.2 4.103-.558 6.745-6.029 5.907-12.217"/></g><g><path fill="none" stroke="#8d8d8d" stroke-miterlimit="20" stroke-width=".8" d="M143.46 122.547c-.84-6.19-4.848-10.758-8.949-10.201-4.101.556-6.746 6.027-5.905 12.218.838 6.188 4.844 10.758 8.947 10.2 4.103-.558 6.745-6.029 5.907-12.217z"/></g><g><path fill="none" stroke="#8d8d8d" stroke-miterlimit="20" stroke-width="1.09" d="M143.46 122.547c-.84-6.19-4.848-10.758-8.949-10.201-4.101.556-6.746 6.027-5.905 12.218.838 6.188 4.844 10.758 8.947 10.2 4.103-.558 6.745-6.029 5.907-12.217z"/></g><g><path fill="#fff" d="M141.37 123.415c-.84-6.192-4.845-10.756-8.947-10.199-4.101.556-6.747 6.027-5.907 12.22.839 6.188 4.845 10.756 8.947 10.197 4.102-.557 6.746-6.027 5.907-12.218"/></g><g><path fill="none" stroke="#8d8d8d" stroke-miterlimit="20" stroke-width=".8" d="M141.37 123.415c-.84-6.192-4.845-10.756-8.947-10.199-4.101.556-6.747 6.027-5.907 12.22.839 6.188 4.845 10.756 8.947 10.197 4.102-.557 6.746-6.027 5.907-12.218z"/></g><g><path fill="none" stroke="#8d8d8d" stroke-miterlimit="20" stroke-width="1.09" d="M141.37 123.415c-.84-6.192-4.845-10.756-8.947-10.199-4.101.556-6.747 6.027-5.907 12.22.839 6.188 4.845 10.756 8.947 10.197 4.102-.557 6.746-6.027 5.907-12.218z"/></g><g><path fill="#606060" d="M138.546 121.162c-.385-2.838-2.432-4.905-4.546-4.615-2.168.29-3.593 2.832-3.207 5.671.386 2.842 2.435 4.91 4.577 4.617 2.14-.29 3.562-2.835 3.176-5.673"/></g><g><path fill="#8d8d8d" d="M147 79.84l3.611 21.09-2.372 1.994-2.719-17.609z"/></g><g><path fill="#8d8d8d" d="M136.166 90.55l2.334 16.035-2.33-.645-1.63-14.367z"/></g><g><path fill="#8d8d8d" d="M123.631 106.278L122.143 110l-2.32 9.358-2.56 5.642-3.263 2.772-6.332.055-4.282-2.527-.576-5.104 2.69-9.607 1.264-2.29 14.652-2.399z"/></g><g><path fill="#7e7e7e" d="M126.458 103.51s-4.88 8.07-5.458 17.806c0 0-.6 8.684-10.404 8.42 0 0-10.378.264-9.367-9.569 0 0 .6-7.445 4.456-12.167l2.968-.108s-4.653 3.59-4.559 12.285c0 0-1.479 7.947 6.613 6.527 0 0 6.06 1.37 7.703-5.332 0 0 .065-9.03 4.774-16.056z"/></g><g><path fill="#fff" d="M117.813 107.35s-6.206 1.528-5.948 14.198c0 0-3.414-6.312 1.396-13.548z"/></g><g><path fill="#fff" d="M152.843 75.618l4.432-.734 5.4-6.676.152-11.552 3.235-17.718-.68-2.44-2.899-5.166-4.42-4.019L147.88 24 136 25.389l-8.053 1.012-13.51 7.833-4.31 6.955-3.583 9.69-7.843 5.408-9.083 1.262L75 59.067l-10.618 6.594-6.722 9.727 1.63 13.373 7.867 12.1 12.382 8.406 21.809 2.599 16.897-3.972L133 101.417l7.263-9.818 5.535-5.8-.295-3.957 3.323-4.27z"/></g><g><path fill="#8d8d8d" d="M146.38 67.815c1.62 1 6.7 26.572-19.38 38.335 0 0-37 19.028-60.427-3.336 0 0-17.813-18.372-6.977-34.01 0 0 7.972-12.804 27.22-12.045 18.377.68 21.036-11 21.036-11s1.33-15.13 22.806-19.909l-.36 1.707s-18.58 3.724-20.025 18.314c0 0-3.407 14.305-23.653 12.964 0 0-16.62-.634-24.896 11.728 0 0-9.567 11.666 6.915 30.063 0 0 19.698 20.816 57.243 2.374 0 0 23.928-9.82 19.043-34.51 0 0 .393-1.334 1.456-.675"/></g><g><path fill="#8d8d8d" d="M147 76.471s17-.691 15.072-17.701l2.856 3.729s.635 16.501-17.696 16.034z"/></g><g><path fill="#8d8d8d" d="M165.194 36.07s3.272.838 1.59 5.44l-3.405.385s3.473-1.737-.579-4.7z"/></g><g><path fill="#8d8d8d" d="M178.278 36.672s6.938-.672 9.91 9.84c0 0 3.192 12.826-1.926 27.096 0 0-3.692 12.849-13.262 1.605 0 0-9.31-12.022-17.507-25.27 0 0-8.038-14.168 5.725-14.213z"/></g><g><path fill="#8d8d8d" d="M120 92.377c2.183-8.16-8.727-16.377-23.785-20.437-15.061-4.085-28.567-2.512-30.779 5.651-2.211 8.16 8.203 18.085 23.261 22.17 15.06 4.084 29.06.78 31.303-7.384"/></g><g><path fill="#fff" d="M114.727 88.11c.95-4.477-5.13-8.61-13.309-10.406-8.182-1.794-15.418-.57-16.317 3.903C84.15 86.087 90 91.167 98.197 93c8.182 1.758 15.581-.414 16.53-4.89"/></g><g><path fill="#8d8d8d" d="M130 25.332s-5.075-8.808-11.07-11.78c0 0-6.83-6.264-17.045 4.448 0 0-24.137 19.69-3.442 19.725 0 0 6.845.275 12.2 1.033 0 0 7.564-9.962 19.53-11.496z"/></g><g><path fill="#8d8d8d" d="M131 80.212c-.886-.28-1.8.182-2.08 1.034-.277.85.186 1.754 1.08 2.044.803.276 1.719-.184 2-1.035.276-.851-.186-1.764-1-2.043"/></g><g><path fill="#8d8d8d" d="M132.74 35.894s12.966-2.978 13.745 11.761c0 0 2.782-20.917-12.333-12.79z"/></g><g><path fill="#8d8d8d" d="M129.513 40.357s-7.804-7.254-17.103 3.25c0 0 6.697-16.974 15.48-5.727z"/></g><g><path fill="#8d8d8d" d="M134.855 85.728c-1.028-.337-2.138.272-2.477 1.272-.378 1 .224 2.121 1.253 2.458a1.962 1.962 0 0 0 2.477-1.254 1.962 1.962 0 0 0-1.253-2.476"/></g><g><path fill="#8d8d8d" d="M129 89.9c-.7-.24-1.497.164-1.739.902-.261.74.159 1.538.898 1.78a1.41 1.41 0 0 0 1.782-.9c.244-.741-.16-1.539-.941-1.783"/></g><g><path fill="#8d8d8d" d="M140.61 71.848s4.99-6.034 10.306-.65c0 0-6.008-10.676-10.306.65"/></g><g><path fill="#fff" d="M127 54.824c.745-6.137-1.95-11.53-6-12.045-4.13-.513-8.075 4.045-8.847 10.221-.774 6.102 1.917 11.495 6.009 12 4.094.52 8.037-4 8.838-10.176"/></g><g><path fill="none" stroke="#8d8d8d" stroke-miterlimit="20" stroke-width="1.14" d="M127 54.824c.745-6.137-1.95-11.53-6-12.045-4.13-.513-8.075 4.045-8.847 10.221-.774 6.102 1.917 11.495 6.009 12 4.094.52 8.037-4 8.838-10.176z"/></g><g><path fill="#8d8d8d" d="M116.764 53.367c1.236-2.798 4.236-4.082 6.628-2.871 2.438 1.21 3.423 4.504 2.202 7.254-1.224 2.798-4.192 4.083-6.594 2.872-2.472-1.21-3.457-4.459-2.236-7.255"/></g><g><path fill="#fff" d="M124.81 53.082a1.766 1.766 0 0 1-1.68 1.848c-.974.07-1.801-.706-1.848-1.68-.046-.974.718-1.802 1.718-1.848.936-.047 1.764.705 1.81 1.68"/></g><g><path fill="#fff" d="M142.818 57.241c.892-7.098-2.221-13.331-6.95-13.925-4.732-.595-9.29 4.684-10.185 11.774-.894 7.096 2.218 13.33 6.948 13.91 4.733.607 9.293-4.665 10.187-11.759"/></g><g><path fill="none" stroke="#8d8d8d" stroke-miterlimit="20" stroke-width="1.32" d="M142.818 57.241c.892-7.098-2.221-13.331-6.95-13.925-4.732-.595-9.29 4.684-10.185 11.774-.894 7.096 2.218 13.33 6.948 13.91 4.733.607 9.293-4.665 10.187-11.759z"/></g><g><path fill="#8d8d8d" d="M130.886 55.526c1.414-3.233 4.847-4.719 7.662-3.32 2.82 1.4 3.959 5.155 2.545 8.389-1.413 3.235-4.846 4.72-7.66 3.321-2.82-1.4-3.96-5.157-2.547-8.39"/></g><g><path fill="#fff" d="M140.192 55.194a2.041 2.041 0 1 1-4.08.195 2.041 2.041 0 1 1 4.08-.195"/></g><g><path fill="#8d8d8d" d="M127.78 25.722s37.086-9.58 37.599 10.775l-2.585.702s2.032-17.414-33.307-9.619z"/></g><g><path fill="#8d8d8d" d="M149.299 28.946S150 20.7 140.42 18.708l6.054-1.338s4.775 4.84 2.825 11.576"/></g><g><path fill="#8d8d8d" d="M152.81 29.129s7.879-3.348 5.114-10.032l-2.45-.097s2.209 6.051-2.664 10.129"/></g><g><path fill="#8d8d8d" d="M161.51 117.58s4.966-16.444 19.224-7.977c0 0 16.916 9.397 18.955 30.201L198.276 143s-2.886-22.072-19.007-31.235c0 0-9.18-6.098-17.759 5.815"/></g><g><path fill="#8d8d8d" d="M161.782 121.58s-4.73 5.943 9.218 12.794c0 0 11.837 6.718 4.24 14.834L173 151.43l3.558.77s11.694-10.898-4.936-19.735c0 0-7.936-3.771-9.84-10.885"/></g><g><path fill="#7c7c7c" d="M210.54 152.888S222.298 141 222.339 136.72c0 0-.078 19.489 6.913 23.866l-14.891-2.907z"/></g><g><path fill="#fff" d="M192.06 139.928l2.739-5.095 5.412-11.072 9.473-7.906 4.638-3.453 3.735-1.252 5.354 6.276 11.114 1.141L246 114.735l8.253 9.587L259 135.715l.805 8.483L262 156.672l-17.574 8.228-38.802.984-8.961-10.549z"/></g><g><path fill="#fff" d="M252.11 120.49s31.01 8.264 52.222-5.824c0 0-5.332-8.75 8.042-16.221 0 0 5.28-5.366 1.753-13.59 0 0-1.244-11.611 8.22-4.41 0 0 3.854 5.38 1.004 15.074l.376 2.481s17.995-1.83 15.431 10.611L338 110.307s4.81-.217-.177 8.784c0 0 3.324 5.207-6.277 13.909 0 0-7.448.218-9.765-.828 0 0-5.835 2.531-10.855-3.816 0 0-2.926 8.186-22.33 14.285 0 0-20.865-.721-28.878-2.918 0 0-.625-7.445-4.259-11.945-1.882-2.334-1.091-2.98-1.091-2.98z"/></g><g><path fill="#8d8d8d" d="M252 119.92c-4.878-4.181 20 10.293 52.899-5.68 0 0-16.365 16.975-51.697 8.527z"/></g><g><path fill="#8d8d8d" d="M306 117.677s-9.638-10.592 1.646-18.19c0 0 8.107-3.809 5.8-11.182 0 0-2.608-10.695 4.163-11.18 0 0 6.592-.509 8.164 8.269 0 0 1.524 8.25-4.242 12.606 0 0 3.469-6.723 2.165-12.222 0 0-.984-6.974-6.194-6.378 0 0-3.982.809-1.56 9.074 0 0 2.177 7.704-5.549 11.979 0 0-10.298 4.918-4.073 15.966z"/></g><g><path fill="#8d8d8d" d="M324.59 92.407c.783-1.974-.738 9.021-.738 9.021l-1.162-5.203z"/></g><g><path fill="#8d8d8d" d="M324.152 96.736s15.323-1.49 16.775 6.264c0 0 2.124 7.372-5.016 11.09 0-.001-10.607 9.728-16.837 3.985 0 0-4.579-4.257-3.074-8.075 0 0 1.39-4.683 7.585-3.432 0 0 2.158-5.847 9.281-4.892 0 0-7.99 2.612-9.515 9.324 0 0 .879-3.92-3.351-2.657 0 0-1.237.096-1.853 2.077 0 0-.764 1.714 1.296 4.658 0 0 4.837 6.698 15.033-3.486 0 0 5.27-2.592 4.144-7.931 0 0-1.454-4.661-14.79-4.489z"/></g><g><path fill="#8d8d8d" d="M321.702 101.328c-.036-1.6-.298 4.672-2.272 6.228l2.277-.445s.03-4.184-.005-5.783"/></g><g><path fill="#8d8d8d" d="M317.263 114s-1.765 4.727-7.653 3.405c0 0 5.618 2.988 8.504-2.219z"/></g><g><path fill="#8d8d8d" d="M317 115.485s-5.279 6.199 6 11.324c0 0 4.89 3.09 10.567-2.29 0 0 11.146-10.519 5.086-16.369l-1.727 2.456s4.597 2.475-5.065 12.131c0 0-4.601 4.322-8.37 1.597 0 0-7.894-3.19-4.834-8.717z"/></g><g><path fill="#8d8d8d" d="M338.858 117.63s4.142 3.798-3.053 13.295c0 0-3.72 6.304-14.576 2.3 0 0-14.442-6.454-4.54-12.908l.614 1.6s-6.489 3.519 5.357 9.357c0 0 8.34 3.518 11.987-3.498 0 0 4.567-6.189 2.728-8.092z"/></g><g><path fill="#8d8d8d" d="M319.809 131.544s-9.028-.268-11.179-8.464c0 0 1.37 13.478 14.668 10.048L321 131.371z"/></g><g><path fill="#8d8d8d" d="M312 129.45c-10.114 12.9-31.193 18.686-51.703 11.43l-1.217-4.223s27.759 14.408 51.8-8.027z"/></g><g><path fill="#8d8d8d" d="M259.705 156.112c-1.073-14.617-2.264-28.687-12.625-38.112l1.36-1.6s10.997 4.787 14.722 39.088z"/></g><g><path fill="#8d8d8d" d="M218.766 109.05s-5.517 1.648-8.516 5.173l3.514.489s2.122-3.645 5.137-2.151z"/></g><g><path fill="#fff" d="M226.21 97.78l-4.7 2.726-.942 1.178-1.205 4.316-1.603 6.915 8.93 4.963 7.908.785 8.575-1.046 3.313-2.313-1.622-13.432L242 99.935l-3.082-1.255-.207 2.32 3.188 2.83-.262 2.526-3.55.755-6.087.084-4.447-.841-2.472-1.907.235-2.71 1.83-1.485.071-1.808z"/></g></g><g><g><g/><g clip-path="url(#27hwb)"><path fill="#fff" d="M224.76 105.7l-2.23 11.598 5.752 2.029 1.312-12.91z"/></g></g><g><g/><g clip-path="url(#27hwc)"><path fill="none" stroke="#000" stroke-miterlimit="20" stroke-width=".32" d="M224.76 105.7v0l-2.23 11.598v0l5.752 2.029v0l1.312-12.91v0z"/></g></g></g><g><g><path fill="#8d8d8d" d="M225.77 93.729l.951 11.663 2.195 1.369-1.545-13.701z"/></g><g><path fill="#8d8d8d" d="M225.77 93.729l.951 11.663 2.195 1.369-1.545-13.701z"/></g><g><path fill="none" stroke="#8d8d8d" stroke-miterlimit="20" stroke-width=".96" d="M225.77 93.729v0l.951 11.663v0l2.195 1.369v0L227.37 93.06v0z"/></g><g><path fill="#8d8d8d" d="M236.88 93l2.01 14.207 1.817-1.126-2.195-12.579z"/></g><g><path fill="#8d8d8d" d="M230.882 119.396S246.752 121 247.213 115l-.746-10.887s.176-3.364-7.467-6.033l.094 1.545s5.61 1.375 5.068 5.375l.643 9.792s.195 3.79-13.386 2.743c0 0-1.026.38-.537 1.861"/></g><g><path fill="none" stroke="#8d8d8d" stroke-miterlimit="20" d="M230.882 119.396S246.752 121 247.213 115l-.746-10.887v0s.176-3.364-7.467-6.033l.094 1.545v0s5.61 1.375 5.068 5.375l.643 9.792v0s.195 3.79-13.386 2.743c0 0-1.026.38-.537 1.861z"/></g><g><path fill="#8d8d8d" d="M222.786 103c.46-1.918 5.109-2.879 10.393-2.184 5.28.696 9.19 2.788 8.735 4.673-.457 1.883-5.11 2.846-10.39 2.149-5.281-.696-9.193-2.79-8.738-4.638"/></g><g><path fill="none" stroke="#8d8d8d" stroke-miterlimit="20" d="M222.786 103c.46-1.918 5.109-2.879 10.393-2.184 5.28.696 9.19 2.788 8.735 4.673-.457 1.883-5.11 2.846-10.39 2.149-5.281-.696-9.193-2.79-8.738-4.638z"/></g><g><path fill="#8d8d8d" d="M231.928 119.493s-15.719-1.22-15.164-7.366l2.765-10.572s-.303-3.263 7.703-4.465l.373 1.427s-5.773.351-5.97 4.295l-2.46 9.544s.472 3.403 13.721 5.286c0 0-.213.486-.968 1.85"/></g><g><path fill="none" stroke="#8d8d8d" stroke-miterlimit="20" d="M231.928 119.493s-15.719-1.22-15.164-7.366l2.765-10.572v0s-.303-3.263 7.703-4.465l.373 1.427v0s-5.773.351-5.97 4.295l-2.46 9.544v0s.472 3.403 13.721 5.286c0 0-.213.486-.968 1.85z"/></g><g><path fill="#e6e6e6" d="M227.779 95.558l.782 9.815s4.117 1.77 10.213.842c0 0-.774-13.655-2.052-12.277.098-.3-4.26.992-9.092.65z"/></g></g><g><g/><g clip-path="url(#27hwd)"><path fill="#c3c3c3" d="M219.61 95.91s10.622 6.516 26.89.339L236.398 85.87l-7.724 2.615z"/></g></g><g><g><path fill="#8d8d8d" d="M192 150.056s9.216-47.194 30.937-29.915c0 0-17.516-27.583-34.507 29.859z"/></g><g><path fill="#fff" d="M252.403 116.899c.597 3.627-1.823 7.101-5.456 7.685a6.663 6.663 0 1 1 5.456-7.685"/></g><g><path fill="none" stroke="#8d8d8d" stroke-miterlimit="20" d="M252.403 116.899c.597 3.627-1.823 7.101-5.456 7.685a6.663 6.663 0 1 1 5.456-7.685z"/></g><g><path fill="#fff" d="M250.09 115.168a2.1 2.1 0 0 1-1.717 2.422c-1.144.195-2.229-.59-2.373-1.718-.246-1.143.526-2.227 1.668-2.422a2.081 2.081 0 0 1 2.422 1.718"/></g><g><path fill="none" stroke="#8d8d8d" stroke-miterlimit="20" d="M250.09 115.168a2.1 2.1 0 0 1-1.717 2.422c-1.144.195-2.229-.59-2.373-1.718-.246-1.143.526-2.227 1.668-2.422a2.081 2.081 0 0 1 2.422 1.718z"/></g><g><path fill="#8d8d8d" d="M247.63 119.558a1.416 1.416 0 0 1-1.158 1.635c-.77.13-1.472-.39-1.631-1.193-.132-.739.384-1.468 1.159-1.6.769-.13 1.5.387 1.63 1.158"/></g><g><path fill="#8d8d8d" d="M243.21 123.509s3.207-.697 2.996-3.129c0 0 1.359 2.62-1.807 3.885z"/></g><g><path fill="#fff" d="M186.114 60.107S183.446 41.293 188.546 29c0 0 10.306 1 23.454 9.627 0 0 17.82-11.522 32.7-9.991 0 0-7.482 3.574-9.077 6.29 0 0 8.377-1.926 13.01-.78 0 0 10.61-9.78 24.528-12.146 0 0 6 7 4.232 25.383 0 0 12.061 10.04 8.701 24.676 0 0-3.003 25.611-42.44 32.644 0 0-52.805 8.23-60.423-19.123 0 0-5.231-9.813 2.883-25.473"/></g><g><path fill="#fff" d="M253.46 36.22s4.969-7.516 16.802-8.46c0 0 4.672 3.38 2.623 16.617 0 0-9.643-4.02-16.01-5.128 0 0-1.371-1.77-3.415-3.028"/></g><g><path fill="#fff" d="M190.786 53.78s-1.687-14.623 1.36-18.62c0 0 6.245.407 17.136 5.492 0 0-9.22 4.49-16.342 12.568l-2.183 1.855z"/></g><g><path fill="#8d8d8d" d="M204 43.848S184.768 53 181 71.51c0 0-3.838 19.919 13 29.059 0 0 18 11.763 49.607 5.942 0 0 26.143-5.713 37.393-20.334 0 0 9.717-11.389 6.127-25.534 0 0-2.45-12.814-17.127-17.404 0 0 12.229 6.338 15 17.76 0 0 4.459 11-5.672 23.566 0 0-6.604 11.336-35.183 18.99 0 0-28.393 6.733-50.145-5.896 0 0-13.072-7.66-10.679-26.333 0 0 .188-12.247 20.679-27.48"/></g><g><path fill="#8d8d8d" d="M208.16 42s15.182-11.726 35.485-12.763c0 0-9.36 1.912-10.101 7.214 0 0 13.213-4.745 21.277 1.408 0 0-7.448-3.29-15.937 2.242 0 0 7.864-1.21 15.983 3.19 0 0-15.272 5.709-24.186-1.369 0 0 9.142 9.949 28.319 1.625 0 0-4.781-3.547-13.233-4.77 0 0 5.535-1.22 11.106.471 0 0-3.246-9.06-19.267-5.451 0 0 5.864-4.352 10.286-4.9 0 0-21.276-6.261-39.732 13.103"/></g><g><path fill="#8d8d8d" d="M213.67 38s-14.438-8.128-26.084-10.5c0 0-4.74 13.582-2.528 33.987l2.679-2.933s-4.637-11.862 1.43-28.267c0 0 9.44-.948 21.732 9.527z"/></g><g><path fill="#8d8d8d" d="M247.28 33.406S260.076 23.452 274 20.59c0 0 7.64 13.567 4.775 28.747L276 46.449S279.568 39 273.05 23c0 0-10.629.653-22.576 11.51z"/></g><g><path fill="#8d8d8d" d="M244.45 39.26s14.755-.013 19.974 2.094c0 0-4.184-3.742-17.01-3.884z"/></g><g><path fill="#8d8d8d" d="M190.439 54.319s-3.439-10.855.951-20.527c0 0 6.966-.299 17.891 6.855 0 0-12.52-4.435-16.936-4.647 0 0-2.574 6.722-.722 16.931z"/></g><g><path fill="#8d8d8d" d="M273.55 44.583s2.296-13.386-2.806-18.933c0 0-10.98 1.912-17.074 9.906 0 0 10.014-7.556 15.994-7.231 0 0 4.803 5.053 2.064 16.144z"/></g><g><path fill="#8d8d8d" d="M205.92 50.365S213 39.705 223 48.612c0 0-10.138-13.431-17.08 1.753"/></g><g><path fill="#8d8d8d" d="M244.12 52.106s7.636-11.354 17.88-1.171c0 0-8.774-14.441-17.88 1.17"/></g><g><path fill="#8d8d8d" d="M244.12 52.106s7.636-11.354 17.88-1.171c0 0-8.774-14.441-17.88 1.17"/></g><g><path fill="#fff" d="M207.7 66.149s-6.8-13.02-12.95 1.955c0 0 4.358-2.563 6.364-.104 0 0-5.014 11.762-.168 17.33 0 0 4.28 11.437 19.238 12.314 0 0 14.523 5.18 21.505-6.25 0 0 9.234 7.03 20.653-.742 0 0 15.658-9.539 10.307-21.652l-3.96-7.462s1.416-1.717 5.541.462c4.125 2.261-.1-.38-.1-.38s-2.997-9.986-10.13-4.235c0 0 3.256 18.615-23.294 15.19l-3.355.138S215.696 82 207.7 66.149"/></g><g><path fill="#fff" d="M207.612 57.48c2.627-5.786 10.622-7.813 17.854-4.48 7.234 3.24 10.965 10.595 8.337 16.381-2.63 5.786-10.625 7.815-17.856 4.527-7.233-3.285-10.947-10.642-8.335-16.427"/></g><g><path fill="none" stroke="#8d8d8d" stroke-miterlimit="20" d="M207.612 57.48c2.627-5.786 10.622-7.813 17.854-4.48 7.234 3.24 10.965 10.595 8.337 16.381-2.63 5.786-10.625 7.815-17.856 4.527-7.233-3.285-10.947-10.642-8.335-16.427z"/></g><g><path fill="#fff" d="M247.24 70.92c-5.05-2.862-6.595-9.749-3.45-15.377 3.147-5.627 9.793-7.87 14.842-5.01 5.054 2.864 6.594 9.747 3.449 15.377-3.143 5.63-9.79 7.871-14.842 5.01"/></g><g><path fill="none" stroke="#8d8d8d" stroke-miterlimit="20" d="M247.24 70.92c-5.05-2.862-6.595-9.749-3.45-15.377 3.147-5.627 9.793-7.87 14.842-5.01 5.054 2.864 6.594 9.747 3.449 15.377-3.143 5.63-9.79 7.871-14.842 5.01z"/></g><g><path fill="#8d8d8d" d="M246.4 59.823c.936-3.692 3.6-5.213 5.963-3.395 2.36 1.816 3.516 6.283 2.637 9.978-1 3.694-3.654 5.212-6 3.396-2.372-1.802-3.528-6.286-2.6-9.979"/></g><g><path fill="#8d8d8d" d="M216 61.512c1.089-4.109 4.056-5.8 6.683-3.779 2.624 2.024 3.913 6.995 2.874 11.105-1.037 4.112-4.005 5.802-6.63 3.78-2.629-2.023-3.927-6.994-2.927-11.106"/></g><g><path fill="#8d8d8d" d="M253 78.141c-1 6.277-6.558 11.859-11.724 12.23-7.38.629-16.405-4.526-16.908-10.851-.505-6.325 5.877-8.83 13.255-9.42 7.377-.588 16.654-.877 15.377 8.041"/></g><g><path fill="none" stroke="#8d8d8d" stroke-miterlimit="20" stroke-width="1.32" d="M253 78.141c-1 6.277-6.558 11.859-11.724 12.23-7.38.629-16.405-4.526-16.908-10.851-.505-6.325 5.877-8.83 13.255-9.42 7.377-.588 16.654-.877 15.377 8.041z"/></g><g><path fill="#fff" d="M249.783 74.876c.155 1.949-3.51 3.83-8.188 4.205-4.679.372-8.595-.904-8.75-2.853-.158-1.948 3.51-3.83 8.155-4.228 4.709-.349 8.626.928 8.783 2.876"/></g><g><path fill="#fff" d="M223.701 62.284c.071.853-.567 1.601-1.417 1.716-.853 0-1.6-.616-1.67-1.468-.065-.853.57-1.599 1.386-1.667.888-.069 1.635.568 1.701 1.42"/></g><g><path fill="#fff" d="M253.793 59.875a1.547 1.547 0 0 1-1.42 1.666 1.532 1.532 0 0 1-1.669-1.419c-.063-.852.571-1.599 1.423-1.667a1.521 1.521 0 0 1 1.666 1.42"/></g><g><path fill="#8d8d8d" d="M215.08 86.655a1.02 1.02 0 0 1-.934 1.094 1.019 1.019 0 0 1-1.093-.933c-.053-.56.375-1.048.947-1.093.544-.046 1 .371 1.08.932"/></g><g><path fill="#8d8d8d" d="M219.203 85a.925.925 0 0 1-.916 1c-.547.087-1.03-.324-1.074-.872a.998.998 0 0 1 .916-1.075c.548-.053 1.028.366 1.074.947"/></g><g><path fill="#8d8d8d" d="M219.295 89c.033.469-.295.841-.71.876a.774.774 0 0 1-.832-.712c-.035-.427.247-.8.708-.831.428-.035.8.281.834.667"/></g><g><path fill="#8d8d8d" d="M259.913 79.78c.087.533-.354 1-.913 1.042-.507.043-1-.356-1-.89a.942.942 0 0 1 .87-1.039.968.968 0 0 1 1.043.887"/></g><g><path fill="#8d8d8d" d="M260.4 83.422c.037.479-.32.9-.8.937-.48.04-.898-.359-.937-.8a.884.884 0 0 1 .8-.936.872.872 0 0 1 .937.799"/></g><g><path fill="#8d8d8d" d="M263.642 80.25a.967.967 0 1 1-1.929.155.967.967 0 0 1 1.929-.155"/></g><g><path fill="#8d8d8d" d="M194.75 68.1s8.779-2.55 9.65 5.04c0 0 1.05-13.291-9.65-5.04"/></g><g><path fill="#8d8d8d" d="M265.816 65.903s.602-7.023 8.409-3.903c0 0-10.225-7.292-8.409 3.903"/></g><g><path fill="#8d8d8d" d="M241.35 90.38s-2.19 8.203-15.882 6.967c0 0-34.249-2.574-23.357-29.074l-1.621-.841S186.44 95.736 225.228 100c0 0 11.772 2 16.632-8.106 0 0 9.615 8.553 24.501-1.957 0 0 17.523-14.02 2.947-28.777l-1.885.732s14.046 12.99-2.617 25.582c0 0-10.992 10.65-23.456 2.906"/></g><g><path fill="#8d8d8d" d="M259.16 75.177s24.947-28.01 60.421-9.292c0 0-30.45-16.597-60.421 9.292"/></g><g><path fill="#8d8d8d" d="M259.88 76.865s19.558-17.678 46.777-5.093c0 0-22.58-10.431-46.777 5.093"/></g><g><path fill="#8d8d8d" d="M263.11 78.353s23.384-13.519 40.329 4.157c0 0-14.143-14.209-40.329-4.157"/></g><g><path fill="#8d8d8d" d="M214.528 80.29s-29.076-23.696-61.128.415c0 0 27.43-21.218 61.128-.415"/></g><g><path fill="#8d8d8d" d="M214.08 82.074s-22.08-14.35-46.99 2.392c0 0 20.637-13.88 46.99-2.392"/></g><g><path fill="#8d8d8d" d="M211.137 84.064S185.905 74.429 172 94.568c0 0 11.69-16.273 39.137-10.504"/></g><g><path fill="#8d8d8d" d="M164.1 104.88s4.9 1.398 7.07 3.408l-3.696 1.35-4.084-1.92z"/></g><g><path fill="#8d8d8d" d="M207.7 151.909s15.164-8.984 16.391-29.049c0 0 4.725 19.602-13.979 31.826z"/></g><g><g/><g clip-path="url(#27hwe)"><path fill="#8d8d8d" d="M17 176.389c0-6.938 5.603-12.559 12.538-12.559h307.907c6.935 0 12.555 5.621 12.555 12.559v33.217c0 6.936-5.62 12.558-12.555 12.558H29.538c-6.935 0-12.538-5.622-12.538-12.558z"/></g></g><g><path fill="#fff" d="M77.61 197.78l-4.895 9.402v5.06h-2.909v-5.06l-4.916-9.402h3.318l3.073 6.329 3.073-6.329z"/></g><g><path fill="#fff" d="M89.628 198.522a6.65 6.65 0 0 1 2.601 2.632c.635 1.127.953 2.4.953 3.846 0 1.395-.318 2.672-.953 3.805a6.807 6.807 0 0 1-2.601 2.643c-1.1.628-2.325.942-3.628.942-1.401 0-2.627-.314-3.726-.942a6.808 6.808 0 0 1-2.602-2.643c-.672-1.133-.952-2.41-.952-3.805 0-1.445.28-2.719.952-3.846a6.651 6.651 0 0 1 2.602-2.632c1.099-.627 2.325-.942 3.726-.942 1.303 0 2.528.315 3.628.942m-5.91 2.294c-.642.383-1.143.932-1.506 1.65-.362.716-.542 1.534-.542 2.534 0 .93.18 1.767.542 2.484.363.718.864 1.267 1.506 1.649.642.383 1.386.573 2.282.573.797 0 1.542-.19 2.184-.573.641-.382 1.143-.931 1.505-1.649.362-.717.543-1.553.543-2.484 0-1-.18-1.818-.543-2.535-.362-.717-.864-1.266-1.505-1.649-.642-.381-1.387-.573-2.184-.573-.896 0-1.64.192-2.282.573"/></g><g><path fill="#fff" d="M98.138 197.78v8.48c0 1.134.248 1.984.747 2.55.499.568 1.22.85 2.115.85 1 0 1.688-.282 2.187-.85.498-.566.748-1.416.748-2.55v-8.48h2.867v8.48c0 1.34-.25 2.469-.747 3.39-.5.921-1.188 1.608-2.055 2.059-.895.45-1.896.676-3 .676-1.75 0-3.136-.519-4.173-1.557-1.038-1.038-1.557-2.56-1.557-4.568v-8.48z"/></g><g><path fill="#fff" d="M122.613 209.339h-5.797l-1.024 2.909h-3.052l5.326-14.298h3.298l5.305 14.298h-3.052zm-.778-2.192l-2.13-6.147-2.13 6.147z"/></g><g><path fill="#fff" d="M135.768 212.242l-3.38-5.633h-1.27v5.633h-2.888V197.78h5.51c1.68 0 2.96.41 3.84 1.22.882.828 1.322 1.907 1.322 3.245 0 1.093-.304 2.008-.902 2.755-.617.728-1.494 1.22-2.642 1.466l3.642 5.776zm-4.65-7.62h2.376c1.652 0 2.506-.73 2.506-2.192 0-.696-.229-1.239-.631-1.629-.369-.389-1.028-.583-1.875-.583h-2.376z"/></g><g><path fill="#fff" d="M143.728 200.074v3.749h5.121V206h-5.12v3.927h5.735v2.315h-8.624V197.78h8.624v2.294z"/></g><g><path fill="#fff" d="M158.949 206.874v5.367h-2.889V197.78h5.264c1.676 0 2.995.409 3.862 1.22.867.828 1.3 1.941 1.3 3.348 0 1.38-.486 2.478-1.341 3.298-.895.82-2.145 1.228-3.82 1.228zm4.051-6.186c-.433-.382-1.082-.574-2-.574h-2.051v4.445H161c1.71 0 2.557-.736 2.557-2.211 0-.724-.197-1.277-.557-1.66z"/></g><g><path fill="#fff" d="M175.907 212.242l-3.38-5.633h-1.269v5.633h-2.888V197.78h5.51c1.68 0 2.96.41 3.84 1.22.882.828 1.28 1.907 1.28 3.245 0 1.093-.262 2.008-.87 2.755-.608.728-1.485 1.22-2.632 1.466l3.605 5.776zm-4.649-7.62h2.376c1.651 0 2.478-.73 2.478-2.192 0-.696-.201-1.239-.604-1.629-.403-.389-1.027-.583-1.874-.583h-2.376z"/></g><g><path fill="#fff" d="M183.878 200.074v3.749H189V206h-5.122v3.927h5.736v2.315H181V197.78h8.614v2.294z"/></g><g><path fill="#fff" d="M202.576 214.889l-2.253-2.704a7.455 7.455 0 0 1-1.803.205c-1.351 0-2.577-.315-3.676-.942a6.82 6.82 0 0 1-2.602-2.643c-.635-1.133-.952-2.41-.952-3.805 0-1.445.317-2.719.952-3.846a6.653 6.653 0 0 1 2.602-2.632c1.099-.627 2.325-.942 3.676-.942 1.353 0 2.578.315 3.678.942a6.645 6.645 0 0 1 2.6 2.632c.636 1.127.954 2.4.954 3.846 0 1.3-.274 2.498-.82 3.57a6.798 6.798 0 0 1-2.273 2.59l3.42 3.729zm-6.288-5.756c.642.382 1.386.573 2.232.573.847 0 1.591-.191 2.234-.573.641-.383 1.143-.932 1.505-1.65.361-.716.543-1.552.543-2.483 0-1-.182-1.818-.543-2.535-.362-.717-.864-1.266-1.505-1.649-.643-.382-1.387-.573-2.234-.573-.846 0-1.59.19-2.232.573-.642.383-1.144.932-1.506 1.65-.362.716-.542 1.534-.542 2.534 0 .93.18 1.767.542 2.484.362.717.864 1.266 1.506 1.649z"/></g><g><path fill="#fff" d="M210.708 197.78v8.48c0 1.134.292 1.984.747 2.55.545.568 1.22.85 2.162.85.928 0 1.642-.282 2.14-.85.499-.566.748-1.416.748-2.55v-8.48h2.868v8.48c0 1.34-.25 2.469-.748 3.39-.498.921-1.188 1.608-2.07 2.059-.88.45-1.88.676-3 .676-1.735 0-3.12-.519-4.158-1.557-1.038-1.038-1.557-2.56-1.557-4.568v-8.48z"/></g><g><path fill="#fff" d="M230.723 209.339h-5.796l-1.025 2.909h-3.052l5.327-14.298h3.297l5.305 14.298h-3.051zm-.778-2.192l-2.13-6.147-2.13 6.147z"/></g><g><path fill="#fff" d="M239.228 210h4.855v2.24h-7.743v-14.46h2.888z"/></g><g/><g clip-path="url(#27hwf)"><path fill="#fff" d="M245.8 212.242h2.888V197.78H245.8z"/></g><g clip-path="url(#27hwf)"><path fill="#fff" d="M260.282 197.78v2.294h-6.083v3.872h4.875v2.212H254.2v6.084h-2.889V197.78z"/></g><g clip-path="url(#27hwf)"><path fill="#fff" d="M262.23 212.242h2.888V197.78h-2.888z"/></g><g clip-path="url(#27hwf)"><path fill="#fff" d="M270.628 200.074v3.749h5.121V206h-5.12v3.927h5.735v2.315h-8.624V197.78h8.624v2.294z"/></g><g clip-path="url(#27hwf)"><path fill="#fff" d="M290.31 208.78c-.602 1.093-1.472 1.943-2.612 2.55-1.14.608-2.496.912-4.066.912h-5.142V197.78h5.142c1.57 0 2.926.298 4.066.891 1.14.595 2.01 1.434 2.611 2.52.602 1.085.901 2.352.901 3.809 0 1.424-.3 2.688-.9 3.78m-3.31-.348c.855-.82 1.281-1.967 1.281-3.432 0-1.498-.426-2.651-1.281-3.471-.853-.82-2.057-1.23-3.614-1.23h-2.008v9.362h2.008c1.557 0 2.761-.41 3.614-1.23"/></g><g clip-path="url(#27hwf)"><path fill="#fff" d="M87.121 175.623c1.188.929 1.973 2.192 2.356 3.79h-3.032c-.315-.779-.803-1.413-1.445-1.844-.682-.45-1.478-.677-2.406-.677-.764 0-1.454.192-2.069.574-.614.383-1.093.929-1.434 1.64-.341.709-.512 1.542-.512 2.498 0 .942.17 1.77.512 2.478.341.71.82 1.257 1.434 1.64a3.84 3.84 0 0 0 2.069.573c.928 0 1.724-.225 2.406-.676a4.059 4.059 0 0 0 1.445-1.844h3.032c-.383 1.598-1.168 2.862-2.356 3.79-1.188.93-2.683 1.435-4.486 1.435-1.38 0-2.635-.352-3.635-1-1.08-.596-1.9-1.466-2.48-2.586-.58-1.12-.87-2.414-.87-3.81 0-1.434.29-2.71.87-3.831.58-1.12 1.396-1.99 2.48-2.611 1-.621 2.242-.932 3.635-.932 1.803 0 3.298.464 4.486 1.393"/></g><g clip-path="url(#27hwf)"><path fill="#fff" d="M102.108 175.112a6.835 6.835 0 0 1 2.601 2.632c.635 1.127.953 2.4.953 3.821 0 1.435-.318 2.697-.953 3.83-.635 1.134-1.502 2.015-2.601 2.605-1.108.666-2.325 1-3.677 1-1.352 0-2.578-.334-3.677-1-1.1-.59-1.967-1.47-2.601-2.605-.635-1.133-.953-2.395-.953-3.83 0-1.42.318-2.694.953-3.82a6.835 6.835 0 0 1 2.601-2.633c1.099-.627 2.325-.942 3.677-.942 1.352 0 2.569.315 3.677.942m-5.91 2.294c-.642.383-1.143.932-1.505 1.65-.363.716-.543 1.553-.543 2.51 0 .955.18 1.791.543 2.508.362.718.863 1.267 1.505 1.649.642.382 1.386.573 2.233.573.846 0 1.569-.19 2.233-.573.641-.382 1.143-.931 1.505-1.65.362-.716.543-1.552.543-2.508s-.18-1.793-.543-2.51c-.362-.717-.864-1.266-1.505-1.649-.664-.406-1.387-.573-2.233-.573-.847 0-1.591.167-2.233.573"/></g><g clip-path="url(#27hwf)"><path fill="#fff" d="M120.08 188.832h-2.889L110.718 179v9.832h-2.888V174.37h2.888l6.473 9.914v-9.914h2.888z"/></g><g clip-path="url(#27hwf)"><path fill="#fff" d="M133.782 175.53c1.16.868 1.905 2.039 2.218 3.47h-3a3.72 3.72 0 0 0-1.379-1.523c-.621-.39-1.355-.585-2.202-.585-.833 0-1.57.192-2.212.574-.642.383-1.14.929-1.495 1.64-.356.709-.533 1.542-.533 2.498 0 1.516.406 2.697 1.219 3.544.813.852 1.922 1.27 3.329 1.27 1.038 0 1.928-.307 2.673-.922.744-.614 1.225-1.496 1.444-2.56h-4.896v-2.07h7.313v2.787a6.821 6.821 0 0 1-1.198 2.642c-.594.805-1.373 1.45-2.336 1.935a7.27 7.27 0 0 1-3.308.77c-1.419 0-2.673-.352-3.758-1-1.086-.596-1.926-1.462-2.52-2.576-.594-1.112-.891-2.424-.891-3.82 0-1.434.297-2.707.891-3.82a6.504 6.504 0 0 1 2.51-2.612c1.078-.628 2.349-.942 3.748-.942 1.761 0 3.222.433 4.383 1.3"/></g><g clip-path="url(#27hwf)"><path fill="#fff" d="M146 188.832l-3.402-5.633h-1.27v5.633h-2.888V174.37H144c1.63 0 2.91.41 3.79 1.229.882.82 1.322 1.898 1.322 3.236 0 1.093-.304 2.008-.911 2.745-.608.738-1.486 1.23-2.633 1.476l3.606 5.776zm-4.672-7.62h2.376c1.652 0 2.479-.73 2.479-2.212 0-.676-.183-1.219-.604-1.609-.403-.391-1.028-.583-1.875-.583h-2.376z"/></g><g clip-path="url(#27hwf)"><path fill="#fff" d="M159.863 185.929h-5.797L153 188.838h-3l5.316-14.298h3.298l5.305 14.298h-3.052zm-.778-2.192L157 177.633l-2.176 6.104z"/></g><g clip-path="url(#27hwf)"><path fill="#fff" d="M175.306 174.37v2.294h-3.993v12.168h-2.89v-12.168h-3.973v-2.294z"/></g><g clip-path="url(#27hwf)"><path fill="#fff" d="M179.688 174.37v8.48c0 1.15.25 1.984.747 2.55.499.6 1.22.85 2.162.85.928 0 1.642-.25 2.14-.85.499-.566.748-1.4.748-2.55v-8.48h2.868v8.48c0 1.34-.25 2.469-.748 3.39-.498.921-1.188 1.608-2.07 2.059-.88.45-1.88.701-3 .701-1.735 0-3.12-.544-4.158-1.582-1.038-1.038-1.557-2.56-1.557-4.568v-8.48z"/></g><g clip-path="url(#27hwf)"><path fill="#fff" d="M193.788 186.62h4.855v2.21H190.9v-14.46h2.888z"/></g><g clip-path="url(#27hwf)"><path fill="#fff" d="M209.163 185.929h-5.796l-1.025 2.909h-3.052l5.327-14.298h3.297l5.305 14.298h-3.051zm-.778-2.192l-2.13-6.104-2.13 6.104z"/></g><g clip-path="url(#27hwf)"><path fill="#fff" d="M224.607 174.37v2.294h-3.994v12.168h-2.888v-12.168h-3.975v-2.294z"/></g><g clip-path="url(#27hwf)"><path fill="#fff" d="M226.21 188.832h2.888V174.37h-2.888z"/></g><g clip-path="url(#27hwf)"><path fill="#fff" d="M242.178 175.112a6.835 6.835 0 0 1 2.601 2.632c.635 1.127.953 2.4.953 3.821 0 1.435-.318 2.697-.953 3.83-.634 1.134-1.503 2.015-2.601 2.605-1.1.666-2.325 1-3.677 1-1.352 0-2.578-.334-3.677-1-1.1-.59-1.967-1.47-2.602-2.605-.634-1.133-.952-2.395-.952-3.83 0-1.42.318-2.694.952-3.82a6.835 6.835 0 0 1 2.602-2.633c1.099-.627 2.325-.942 3.677-.942 1.352 0 2.577.315 3.677.942m-5.91 2.294c-.642.383-1.143.932-1.505 1.65-.363.716-.543 1.553-.543 2.51 0 .955.18 1.791.543 2.508.362.718.863 1.267 1.505 1.649.642.382 1.386.573 2.233.573.846 0 1.591-.19 2.233-.573.641-.382 1.143-.931 1.505-1.65.361-.716.543-1.552.543-2.508s-.182-1.793-.543-2.51c-.362-.717-.864-1.266-1.505-1.649-.642-.406-1.387-.573-2.233-.573-.847 0-1.591.167-2.233.573"/></g><g clip-path="url(#27hwf)"><path fill="#fff" d="M260.15 188.832h-2.889L250.788 179v9.832H247.9V174.37h2.888l6.473 9.914v-9.914h2.888z"/></g><g clip-path="url(#27hwf)"><path fill="#fff" d="M272.152 186.921c-.368.622-.915 1.079-1.638 1.496-.724.376-1.605.583-2.644.583-1.023 0-1.938-.194-2.744-.542a4.964 4.964 0 0 1-1.935-1.458 4.656 4.656 0 0 1-.83-2.342h3.072c.069.587.304 1.075.707 1.464.403.39.939.584 1.608.584.6 0 1.062-.16 1.383-.48.321-.322.48-.735.48-1.226 0-.465-.128-.837-.388-1.13-.223-.294-.587-.53-.984-.708a25.155 25.155 0 0 0-1.638-.614c-.901-.3-1.601-.548-2.212-.89a4.099 4.099 0 0 1-1.465-1.28c-.403-.561-.604-1.292-.604-2.192 0-1.243.447-2.186 1.342-2.94.894-.717 2.078-1.076 3.554-1.076 1.529 0 2.784.369 3.656 1.106.908.724 1.423 1.724 1.547 2.95h-3.115a2.192 2.192 0 0 0-.654-1.28c-.355-.335-.841-.502-1.455-.502-.532 0-.963.14-1.29.42-.328.28-.492.686-.492 1.218 0 .424.126.777.379 1.055.208.28.574.51.963.687.388.176.918.376 1.587.594.929.328 1.658.635 2.264.921.58.288 1.074.718 1.485 1.292.41.572.614 1.369.614 2.253 0 .737-.184 1.416-.553 2.037"/></g><g clip-path="url(#27hwf)"><path fill="#fff" d="M278.835 173.78l-.369 10.22H276l-.34-10.22zm-3.135 12.044h3.114v3.012H275.7z"/></g></g></g></g></svg>