<svg width="17" height="24" fill="none" xmlns="http://www.w3.org/2000/svg"><path d="M12.354 16.977l-.101 1.718c1.743.455 2.753 1.137 2.753 1.566 0 .708-2.526 2.021-6.644 2.021-4.143 0-6.644-1.313-6.644-2.02 0-.456.985-1.138 2.754-1.567l-.101-1.718C1.844 17.533 0 18.644 0 20.261c0 2.45 4.194 3.74 8.337 3.74s8.337-1.29 8.337-3.74c0-1.617-1.845-2.728-4.32-3.284z" fill="url(#paint0_linear)"/><path d="M4.219 13.061c.48.101.96.177 1.465.253l.354 6.113c.025.48.43.86.91.86h2.778c.48 0 .884-.38.91-.86l.353-6.113c.506-.076.986-.152 1.466-.253a.665.665 0 00.505-.733l-.303-2.627a3.217 3.217 0 00-3.183-2.83H7.225a3.217 3.217 0 00-3.183 2.83l-.328 2.627a.665.665 0 00.505.733z" fill="url(#paint1_linear)"/><path d="M8.337 6.063a3.032 3.032 0 100-6.063 3.032 3.032 0 000 6.063z" fill="url(#paint2_linear)"/><defs><linearGradient id="paint0_linear" x1="16.674" y1="16.977" x2="-.707" y2="20.68" gradientUnits="userSpaceOnUse"><stop stop-color="#E75AA3"/><stop offset="1" stop-color="#B848C2"/></linearGradient><linearGradient id="paint1_linear" x1="12.967" y1="6.872" x2="2.914" y2="7.494" gradientUnits="userSpaceOnUse"><stop stop-color="#E75AA3"/><stop offset="1" stop-color="#B848C2"/></linearGradient><linearGradient id="paint2_linear" x1="11.369" y1="0" x2="4.814" y2=".588" gradientUnits="userSpaceOnUse"><stop stop-color="#E75AA3"/><stop offset="1" stop-color="#B848C2"/></linearGradient></defs></svg>