<svg width="24" height="21" fill="none" xmlns="http://www.w3.org/2000/svg"><path d="M23.668 3.751l-3.41-3.41a1.128 1.128 0 00-1.616 0l-3.41 3.41a1.129 1.129 0 000 1.617c.227.227.505.328.808.328.303 0 .58-.101.808-.328l1.465-1.465v6.39a8.01 8.01 0 01-8.007 8.008 8.01 8.01 0 01-8.007-8.008 8.01 8.01 0 018.007-8.007h2.526c.631 0 1.137-.505 1.137-1.137 0-.631-.505-1.136-1.137-1.136h-2.526C4.623-.013 0 4.61 0 10.293 0 15.977 4.623 20.6 10.306 20.6c5.683 0 10.28-4.622 10.28-10.306v-6.39l1.466 1.465a1.128 1.128 0 001.616 0 1.151 1.151 0 000-1.617z" fill="url(#paint0_linear)"/><path d="M10.306 14.764a4.471 4.471 0 100-8.942 4.471 4.471 0 000 8.942z" fill="url(#paint1_linear)"/><defs><linearGradient id="paint0_linear" x1="24" y1="0" x2="-1.871" y2="2.705" gradientUnits="userSpaceOnUse"><stop stop-color="#E75AA3"/><stop offset="1" stop-color="#B848C2"/></linearGradient><linearGradient id="paint1_linear" x1="14.777" y1="5.823" x2="5.11" y2="6.69" gradientUnits="userSpaceOnUse"><stop stop-color="#E75AA3"/><stop offset="1" stop-color="#B848C2"/></linearGradient></defs></svg>