<svg width="22" height="24" fill="none" xmlns="http://www.w3.org/2000/svg"><path d="M10.686 4.547a2.274 2.274 0 100-4.547 2.274 2.274 0 000 4.547z" fill="url(#paint0_linear)"/><path d="M2.274 9.423a2.274 2.274 0 100-4.547 2.274 2.274 0 000 4.547z" fill="url(#paint1_linear)"/><path d="M2.274 19.124a2.274 2.274 0 100-4.547 2.274 2.274 0 000 4.547z" fill="url(#paint2_linear)"/><path d="M10.686 24a2.274 2.274 0 100-4.547 2.274 2.274 0 000 4.547z" fill="url(#paint3_linear)"/><path d="M10.686 15.714a3.714 3.714 0 100-7.427 3.714 3.714 0 000 7.427z" fill="url(#paint4_linear)"/><path d="M19.099 19.124a2.274 2.274 0 100-4.547 2.274 2.274 0 000 4.547z" fill="url(#paint5_linear)"/><path d="M19.099 9.423a2.274 2.274 0 100-4.547 2.274 2.274 0 000 4.547z" fill="url(#paint6_linear)"/><defs><linearGradient id="paint0_linear" x1="12.96" y1="0" x2="8.044" y2=".441" gradientUnits="userSpaceOnUse"><stop stop-color="#E75AA3"/><stop offset="1" stop-color="#B848C2"/></linearGradient><linearGradient id="paint1_linear" x1="4.547" y1="4.876" x2="-.369" y2="5.317" gradientUnits="userSpaceOnUse"><stop stop-color="#E75AA3"/><stop offset="1" stop-color="#B848C2"/></linearGradient><linearGradient id="paint2_linear" x1="4.547" y1="14.577" x2="-.369" y2="15.018" gradientUnits="userSpaceOnUse"><stop stop-color="#E75AA3"/><stop offset="1" stop-color="#B848C2"/></linearGradient><linearGradient id="paint3_linear" x1="12.96" y1="19.453" x2="8.044" y2="19.894" gradientUnits="userSpaceOnUse"><stop stop-color="#E75AA3"/><stop offset="1" stop-color="#B848C2"/></linearGradient><linearGradient id="paint4_linear" x1="14.4" y1="8.286" x2="6.371" y2="9.007" gradientUnits="userSpaceOnUse"><stop stop-color="#E75AA3"/><stop offset="1" stop-color="#B848C2"/></linearGradient><linearGradient id="paint5_linear" x1="21.373" y1="14.577" x2="16.457" y2="15.018" gradientUnits="userSpaceOnUse"><stop stop-color="#E75AA3"/><stop offset="1" stop-color="#B848C2"/></linearGradient><linearGradient id="paint6_linear" x1="21.373" y1="4.876" x2="16.457" y2="5.317" gradientUnits="userSpaceOnUse"><stop stop-color="#E75AA3"/><stop offset="1" stop-color="#B848C2"/></linearGradient></defs></svg>