<svg width="24" height="14" fill="none" xmlns="http://www.w3.org/2000/svg"><path d="M21.32 0c-.691 0-1.34.262-1.842.732l-.46.43-.492-.398A2.752 2.752 0 0016.55.188a2.634 2.634 0 00-1.8.994 2.678 2.678 0 00-.575 1.977c.073.712.429 1.35.983 1.8l3.997 3.212a.21.21 0 00.136.042.25.25 0 00.146-.053l3.63-3.431.095-.084c.094-.094.178-.178.25-.272a2.69 2.69 0 00-.146-3.526A2.636 2.636 0 0021.32 0z" fill="url(#paint0_linear)"/><path d="M7.518 0a2.81 2.81 0 00-1.933.769l-.483.45-.517-.417A2.889 2.889 0 002.51.198 2.766 2.766 0 00.62 1.24a2.811 2.811 0 00-.603 2.076c.076.747.45 1.418 1.032 1.89l4.196 3.372a.22.22 0 00.143.044c.055 0 .11-.022.154-.055l3.812-3.603.099-.088A2.824 2.824 0 009.562.89 2.768 2.768 0 007.518 0z" fill="url(#paint1_linear)"/><path fill-rule="evenodd" clip-rule="evenodd" d="M12.303 8.213a.804.804 0 00-.804.804v1.251h-1.251a.804.804 0 000 1.609h1.251v1.251a.804.804 0 101.609 0v-1.251h1.251a.804.804 0 000-1.609h-1.251v-1.25a.804.804 0 00-.805-.805z" fill="url(#paint2_linear)"/><defs><linearGradient id="paint0_linear" x1="24" y1="0" x2="13.399" y2="1.14" gradientUnits="userSpaceOnUse"><stop stop-color="#E75AA3"/><stop offset="1" stop-color="#B848C2"/></linearGradient><linearGradient id="paint1_linear" x1="10.333" y1="0" x2="-.799" y2="1.197" gradientUnits="userSpaceOnUse"><stop stop-color="#E75AA3"/><stop offset="1" stop-color="#B848C2"/></linearGradient><linearGradient id="paint2_linear" x1="15.164" y1="8.213" x2="8.98" y2="8.768" gradientUnits="userSpaceOnUse"><stop stop-color="#E75AA3"/><stop offset="1" stop-color="#B848C2"/></linearGradient></defs></svg>