<?xml version="1.0" standalone="no"?>
<!DOCTYPE svg PUBLIC "-//W3C//DTD SVG 1.1//EN" "http://www.w3.org/Graphics/SVG/1.1/DTD/svg11.dtd" >
<svg xmlns="http://www.w3.org/2000/svg">
<metadata>Generated by IcoMoon</metadata>
<defs>
<font id="icomoon" horiz-adv-x="1024">
<font-face units-per-em="1024" ascent="960" descent="-64" />
<missing-glyph horiz-adv-x="1024" />
<glyph unicode="&#x20;" horiz-adv-x="512" d="" />
<glyph unicode="&#xe900;" glyph-name="chevron-up" d="M963.857 191.999l60.143 60.211-512 511.932-512-511.932 120.286-120.354 390.895 390.827 195.379-195.379c107.452-107.52 195.789-195.447 196.267-195.447s27.921 27.102 61.031 60.143z" />
<glyph unicode="&#xe901;" glyph-name="chevron-down" d="M963.857 704.001l60.143-60.211-512-511.932-512 511.932 120.286 120.354 390.895-390.827 195.379 195.379c107.452 107.52 195.789 195.447 196.267 195.447s27.921-27.102 61.031-60.143z" />
<glyph unicode="&#xe902;" glyph-name="chevron-left" d="M768.001 899.857l-60.211 60.143-511.932-512 511.932-512 120.354 120.286-390.827 390.895 195.379 195.379c107.52 107.452 195.447 195.789 195.447 196.267s-27.102 27.921-60.143 61.031z" />
<glyph unicode="&#xe903;" glyph-name="chevron-right" d="M256-3.857l60.211-60.143 511.932 512-511.932 512-120.354-120.286 390.827-390.895-195.379-195.379c-107.52-107.452-195.447-195.789-195.447-196.267s27.102-27.921 60.143-61.031z" />
<glyph unicode="&#xe904;" glyph-name="warning" horiz-adv-x="1142" d="M54.969-64c-10.201 0-19.475 2.599-27.821 7.794-8.346 5.199-14.838 12.079-19.475 20.653-4.637 8.57-7.178 17.825-7.623 27.762-0.445 9.933 2.096 19.645 7.623 29.125l514.689 910.221c5.565 9.481 12.761 16.593 21.591 21.333 8.826 4.741 17.861 7.111 27.097 7.111s18.286-2.37 27.152-7.111c8.865-4.741 16.045-11.852 21.536-21.333l514.69-910.221c5.565-9.48 8.121-19.208 7.676-29.184s-3.001-19.208-7.676-27.703c-4.675-8.495-11.166-15.38-19.476-20.653-8.31-5.27-17.581-7.869-27.821-7.794h-1032.161zM571.049 106.669c15.766 0 28.991 5.459 39.672 16.384 10.685 10.921 16.006 24.422 15.97 40.503-0.039 16.081-5.38 29.582-16.026 40.507-10.646 10.921-23.851 16.384-39.617 16.384s-28.971-5.463-39.617-16.384c-10.646-10.925-15.986-24.426-16.026-40.507-0.035-16.081 5.305-29.601 16.026-40.562s23.926-16.404 39.617-16.325zM571.049 277.335c15.766 0 28.991 5.463 39.672 16.384 10.685 10.921 16.006 24.422 15.97 40.503v170.669c0 16.116-5.341 29.617-16.026 40.503s-23.891 16.345-39.617 16.384c-15.73 0.039-28.936-5.423-39.617-16.384-10.685-10.961-16.026-24.462-16.026-40.503v-170.669c0-16.116 5.341-29.637 16.026-40.562 10.681-10.921 23.887-16.364 39.617-16.325z" />
<glyph unicode="&#xe905;" glyph-name="move" horiz-adv-x="546" d="M0 960v-1024h136.533v1024zM546.133 857.6c0-56.554-45.846-102.4-102.4-102.4s-102.4 45.846-102.4 102.4c0 56.554 45.846 102.4 102.4 102.4s102.4-45.846 102.4-102.4zM546.133 584.533c0-56.554-45.846-102.4-102.4-102.4s-102.4 45.846-102.4 102.4c0 56.554 45.846 102.4 102.4 102.4s102.4-45.846 102.4-102.4zM546.133 311.467c0-56.554-45.846-102.4-102.4-102.4s-102.4 45.846-102.4 102.4c0 56.554 45.846 102.4 102.4 102.4s102.4-45.846 102.4-102.4zM546.133 38.4c0-56.554-45.846-102.4-102.4-102.4s-102.4 45.846-102.4 102.4c0 56.554 45.846 102.4 102.4 102.4s102.4-45.846 102.4-102.4z" />
<glyph unicode="&#xe906;" glyph-name="edit" d="M213.3 874.7c-33.931 0-66.507-13.506-90.5-37.5s-37.5-56.569-37.5-90.5v-597.4c0-33.933 13.503-66.509 37.5-90.5 23.993-23.996 56.568-37.5 90.5-37.5h597.4c33.934 0 66.509 13.501 90.5 37.5 23.999 23.991 37.5 56.566 37.5 90.5v298.7c0 0.010 0 0.022 0 0.033 0 23.564-19.103 42.667-42.667 42.667-0.012 0-0.023 0-0.035 0h0.002c-0.010 0-0.022 0-0.033 0-23.564 0-42.667-19.103-42.667-42.667 0-0.012 0-0.023 0-0.035v0.002-298.7c0-11.338-4.489-22.091-12.5-30.1-8.009-8.011-18.762-12.5-30.1-12.5h-597.4c-11.332 0-22.087 4.486-30.1 12.5-8.010 8.009-12.5 18.762-12.5 30.1v597.4c0 11.333 4.487 22.087 12.5 30.1s18.767 12.5 30.1 12.5h298.7c0.010 0 0.022 0 0.033 0 23.564 0 42.667 19.103 42.667 42.667 0 0.012 0 0.023 0 0.035v-0.002c0 0.010 0 0.022 0 0.033 0 23.564-19.103 42.667-42.667 42.667-0.012 0-0.023 0-0.035 0h0.002zM848 917.2c-35.303 0-69.236-14.042-94.2-39l-384.5-384.6c-15.199-15.172-26.351-33.897-32.4-54.5 0-0.015 0-0.033 0-0.051s0-0.036 0-0.054v0.003l-35.8-122.6c-3.21-11.008-3.445-22.692-0.6-33.8 2.847-11.118 8.695-21.296 16.8-29.4 8.098-8.095 18.154-13.85 29.3-16.7 11.147-2.865 22.809-2.703 33.8 0.502 0.025 0.026 0.058 0.059 0.090 0.093l0.010 0.010 122.5 35.798c20.619 6.020 39.405 17.12 54.6 32.3l384.6 384.6c24.972 24.966 39 58.899 39 94.2s-14.028 69.234-39 94.2c-24.962 24.964-58.894 39-94.2 39zM848 831.8c12.709 0 24.816-5.016 33.8-14 8.984-8.982 14.1-21.092 14.1-33.8s-5.116-24.818-14.1-33.8l-384.5-384.6c-5.070-5.065-11.324-8.792-18.2-10.8l-85.2-24.9 24.9 85.1v0.102c2.023 6.838 5.756 13.065 10.8 18.1l384.6 384.598c8.991 8.989 21.098 14 33.8 14z" />
<glyph unicode="&#xe907;" glyph-name="address" horiz-adv-x="904" d="M381.53 957.771c-38.551-8.433-67.644-36.744-77.342-75.174-2.891-11.565-3.012-16.926-3.012-168.237v-156.311l-111.074-0.482c-109.929-0.422-111.134-0.482-119.688-3.735-29.636-11.264-48.55-27.889-60.657-53.489-10.36-21.745-9.818-7.288-9.397-269.553l0.422-236.845 3.976-8.553c5.12-10.903 15.962-21.323 26.744-25.66l8.433-3.433h823.718l8.373 3.433c10.782 4.337 21.624 14.758 26.744 25.66l4.036 8.553 0.361 438.212c0.361 434.056 0.361 438.332-2.65 450.259-4.879 19.637-12.228 32.708-26.202 46.803-13.252 13.312-25.118 20.781-42.285 26.504l-10.541 3.494-215.341 0.301c-175.526 0.241-217.088-0.12-224.617-1.747zM552.659 709.24v-50.417h-100.894v100.894h100.894v-50.477zM752.941 709.24v-50.417h-100.894v100.894h100.894v-50.477zM752.941 508.235v-49.694h-100.894v99.388h100.894v-49.694zM402.071 257.476v-201.005h-301.176v402.071h301.176v-201.065zM752.941 307.17v-50.417h-100.894v100.894h100.894v-50.477z" />
<glyph unicode="&#xe908;" glyph-name="analytics" horiz-adv-x="1058" d="M164.489 855.040c-30.925-6.724-59.87-33.724-69.7-65.024l-3.959-12.561v-693.043l3.925-12.356c2.185-6.793 6.144-16.145 8.841-20.753 6.929-11.947 25.532-30.037 37.376-36.352 21.606-11.537-3.925-10.786 376.627-10.786 304.811 0 347.034 0.307 356.181 2.697 31.369 8.158 57.207 33.86 67.379 66.97 3.072 10.103 3.243 25.702 3.243 357.103v346.522l-3.925 12.425c-10.138 32.29-38.537 58.47-70.827 65.297-17.067 3.618-688.503 3.482-705.161-0.137zM727.484 663.108c4.847-2.287 11.742-7.373 15.326-11.332 12.561-13.961 11.981-3.311 11.981-221.594 0-127.898-0.649-198.144-1.809-202.377-3.277-11.81-12.322-22.972-22.869-28.297-19.968-10.103-39.253-7.68-54.784 6.827-16.077 15.053-14.882-2.867-14.882 225.485 0 222.993-0.887 206.097 11.674 220.399 12.937 14.746 36.966 19.456 55.364 10.889zM539.477 520.090c16.247-8.226 24.781-22.869 24.781-42.428 0-15.019-3.755-24.201-13.926-34.099-17.442-16.93-47.889-16.964-64.956-0.068-9.865 9.762-13.346 17.783-14.165 32.631-1.126 20.070 7.373 35.089 24.747 43.725 12.698 6.349 31.266 6.451 43.52 0.239zM351.334 424.38c8.977-4.881 14.131-10.445 20.139-21.675 3.072-5.769 3.277-11.537 3.277-90.829 0-83.968-0.034-84.685-3.891-91.921-9.114-17.033-23.996-26.112-42.837-26.112s-33.724 9.079-42.837 26.112c-3.823 7.134-3.891 8.738-4.471 84.002-0.307 42.189-0.034 80.794 0.546 85.777 1.638 13.449 10.24 26.658 21.845 33.587 11.059 6.622 15.121 7.543 29.082 6.588 6.861-0.478 13.278-2.355 19.149-5.53zM538.999 330.752c9.353-4.779 20.617-17.579 23.279-26.453 1.263-4.301 2.048-19.968 2.048-41.097-0.034-32.085-0.273-34.748-4.13-43.042-4.54-9.728-14.234-19.217-23.962-23.415-9.865-4.301-29.252-3.721-39.287 1.126-9.523 4.642-18.057 13.619-22.733 23.962-2.833 6.212-3.277 11.913-3.277 42.428 0 31.71 0.375 36.079 3.584 43.213 5.803 12.834 16.384 22.255 29.833 26.692 7.646 2.492 26.761 0.614 34.645-3.413z" />
<glyph unicode="&#xe909;" glyph-name="animals" horiz-adv-x="991" d="M572.284 768.413l-82.581-82.581h-145.21l66.923-67.32c65.734-66.065 80.070-82.25 93.713-105.703 30.72-52.819 43.371-102.202 40.993-159.777-1.586-37.789-9.513-69.368-25.303-100.649-17.837-35.345-53.975-83.307-101.871-135.201l-14.931-16.219-204.172 204.172v-279.948h454.194v246.751l50.077 50.473c61.044 61.473 73.166 76.602 92.655 115.415 39.242 78.121 38.582 172.098-1.718 251.243-19.225 37.723-34.519 56.386-98.436 120.204l-41.786 41.72-82.548-82.581zM227.757 588.783c-36.93-37.326-48.095-49.614-52.257-57.509-10.141-19.291-12.85-39.804-7.796-59.392 5.979-23.321 2.643-19.522 123.607-140.85l112.508-112.805 8.82 9.579c24.543 26.69 42.248 63.752 48.987 102.466 3.171 18.069 3.171 50.572 0.033 68.641-6.474 36.963-24.51 74.157-49.119 101.112-11.925 13.048-135.697 136.258-136.886 136.258-0.495 0-22.066-21.372-47.897-47.5z" />
<glyph unicode="&#xe90a;" glyph-name="arrows-double-vertical" horiz-adv-x="512" d="M128 831.561l-127.561-127.561 39.205-39.278 39.278-39.205 177.079 177.006 177.079-177.006 39.278 39.205 39.205 39.278-127.561 127.561c-70.144 70.144-127.781 127.561-128 127.561s-57.856-57.417-128-127.561zM39.863 251.099l-39.058-39.131 255.049-255.927 256.146 256-24.503 24.576c-13.531 13.531-31.378 31.159-39.79 39.205l-15.214 14.629-176.494-176.494-88.137 88.064c-48.421 48.494-88.283 88.137-88.503 88.137s-17.993-17.627-39.497-39.058z" />
<glyph unicode="&#xe90b;" glyph-name="calendar" horiz-adv-x="904" d="M150.588 900.668v-50.296l-35.78-0.602c-34.093-0.542-36.262-0.723-46.803-4.518-30.178-10.903-51.802-32.527-62.584-62.765l-4.638-13.011v-739.388l4.397-13.432c10.481-32.105 34.575-55.236 68.608-65.837l11.324-3.554h733.365l11.264 3.554c33.491 10.481 57.464 33.19 68.608 65.054l4.457 12.71 0.361 365.568c0.422 404.841 1.144 376.23-9.397 398.456-9.879 20.721-27.106 38.37-46.321 47.405-18.673 8.794-20.6 9.096-58.729 9.758l-35.78 0.602v100.593h-100.894v-100.894h-400.565v100.894h-100.894v-50.296zM802.635 323.735v-276.299h-701.741v552.659h701.741v-276.36zM451.765 273.318v-124.988h251.482v249.976h-251.482v-124.988z" />
<glyph unicode="&#xe90c;" glyph-name="check-rounded" d="M470.17 958.259c-101.53-8.397-193.536-44.8-277.299-109.824-22.016-17.101-61.491-56.115-78.694-77.875-61.030-77.158-95.539-157.133-110.182-255.232-4.25-28.672-4.25-103.578 0-133.888 8.294-58.522 23.142-107.213 48.794-159.59 76.083-155.29 225.587-261.12 399.462-282.778 27.29-3.379 101.53-2.816 127.078 0.973 59.187 8.755 101.786 21.555 153.702 46.234 144.998 68.915 250.88 205.363 281.344 362.752 7.322 37.632 8.755 54.733 8.704 101.53-0.102 56.474-4.71 90.624-18.893 139.52-23.808 82.125-68.608 157.901-129.485 218.982-106.65 107.008-254.515 161.536-404.531 149.197zM573.44 853.299c43.366-6.042 82.022-17.818 120.474-36.71 41.011-20.122 73.677-43.725 108.288-78.387 34.662-34.611 58.266-67.277 78.387-108.288 28.57-58.214 39.987-110.49 39.936-182.784 0-43.315-2.355-65.28-10.854-100.659-23.040-96.358-82.842-181.094-169.882-240.794-117.146-80.333-286.157-89.805-416.102-23.296-103.578 53.094-182.733 152.934-209.357 264.090-8.55 35.738-10.854 57.242-10.854 101.53 0 71.782 11.418 123.75 39.936 181.914 20.122 41.011 43.725 73.677 78.387 108.288 34.611 34.662 67.277 58.266 108.288 78.387 45.926 22.528 96.205 35.942 149.504 39.936 18.637 1.382 74.65-0.512 93.85-3.226zM718.49 622.285c-3.277-0.717-8.653-2.56-11.93-4.147-3.43-1.638-60.928-57.856-135.629-132.557l-129.638-129.638-58.112 57.651c-66.048 65.587-66.202 65.741-88.781 65.638-16.486-0.051-23.603-2.816-35.072-13.568-10.445-9.728-14.438-19.61-14.438-35.584 0-22.118-2.765-18.688 88.32-109.466 77.107-76.902 82.944-82.33 91.494-85.094 11.674-3.789 25.702-2.867 36.966 2.458 6.861 3.226 37.632 33.075 159.078 154.368 125.286 125.184 151.194 151.808 154.368 158.925 4.915 11.059 5.376 30.566 0.922 42.086-3.533 9.062-16.384 22.067-25.805 25.958-7.578 3.174-23.706 4.71-31.744 2.97z" />
<glyph unicode="&#xe90d;" glyph-name="check" horiz-adv-x="1280" d="M812.544 574.464c-195.584-212.224-357.888-387.84-360.704-390.4l-4.864-4.608-165.12 178.944c-90.88 98.56-166.4 180.224-167.936 181.504-2.048 1.536-16.384-12.8-58.368-58.112l-55.552-60.16 6.144-6.656c5.888-6.144 436.736-474.112 439.808-477.44 1.28-1.536 831.232 896.256 832.512 900.608 0.256 1.28-41.472 47.616-102.912 113.92l-7.424 7.936-355.584-385.536z" />
<glyph unicode="&#xe90e;" glyph-name="close-rounded" horiz-adv-x="975" d="M457.533 934.693c-3.56-0.39-14.531-1.463-24.381-2.438-66.072-6.632-138.386-31.013-196.657-66.365-114.249-69.388-192.171-176.177-223.525-306.42-9.509-39.497-11.947-62.171-11.947-111.47 0-38.181 0.536-48.128 3.657-68.267 16.774-108.837 62.952-201.045 138.289-276.382s167.546-121.515 276.382-138.289c20.139-3.121 30.086-3.657 68.267-3.657 50.42 0 72.314 2.438 114.786 12.824 178.566 43.788 315.197 180.419 358.985 358.985 10.386 42.472 12.824 64.366 12.824 114.786 0 49.103-2.341 71.241-11.947 111.372-30.915 129.707-109.275 237.129-223.525 306.517-56.369 34.182-122.392 57.051-190.171 65.78-17.506 2.292-78.165 4.291-91.038 3.023zM333.141 666.99c5.559-2.487 25.746-21.602 80.945-76.556l73.533-73.289 73.533 73.289c81.871 81.481 80.847 80.652 101.181 80.798 27.794 0.146 48.713-20.773 48.518-48.518-0.146-20.382 0.683-19.358-80.847-101.181l-73.24-73.533 72.606-72.753c83.578-83.675 81.871-81.432 80.603-104.984-0.829-15.262-4.145-22.967-13.751-32.28-9.509-9.167-20.285-13.41-33.89-13.361-20.675 0.146-19.31-0.926-101.181 80.798l-73.533 73.435-73.533-73.435c-81.871-81.725-80.506-80.652-101.181-80.798-27.648-0.146-48.664 20.919-48.518 48.664 0.146 20.334-0.683 19.31 80.798 101.181l73.289 73.533-73.289 73.533c-81.481 81.822-80.652 80.798-80.798 101.181-0.244 35.889 35.938 59.246 68.754 44.276z" />
<glyph unicode="&#xe90f;" glyph-name="close" horiz-adv-x="1092" d="M276.059 72.67l-105.393 104.864 271.010 271.535-271.010 269.662 105.393 104.869 271.010-270.785 269.14 270.785 105.39-104.869-271.010-269.662 271.010-271.535-105.39-104.864-269.14 270.782-271.010-270.782z" />
<glyph unicode="&#xe910;" glyph-name="dashboard" horiz-adv-x="991" d="M193.239 825.129c-2.279-0.363-8.588-2.246-14.039-4.129-26.195-9.15-46.906-31.843-52.819-57.873-2.081-9.183-2.51-26.591-2.51-103.292 0-100.055 0.132-101.673 9.315-119.775 5.615-11.099 23.75-29.234 34.849-34.849 18.135-9.216 19.621-9.315 120.997-9.315s102.862 0.099 120.997 9.315c11.099 5.615 29.234 23.75 34.849 34.849 9.183 18.135 9.315 19.687 9.282 120.105-0.033 100.914-0.33 105.010-9.513 122.153-10.669 19.918-35.411 38.152-57.245 42.116-9.216 1.685-184.023 2.279-194.164 0.694zM606.142 825.129c-2.279-0.363-8.588-2.246-14.039-4.129-26.195-9.15-46.906-31.843-52.819-57.873-2.081-9.183-2.51-26.591-2.51-103.292 0-100.055 0.132-101.673 9.315-119.775 5.615-11.099 23.75-29.234 34.849-34.849 18.135-9.216 19.621-9.315 120.997-9.315s102.862 0.099 120.997 9.315c11.099 5.615 29.234 23.75 34.849 34.849 9.183 18.135 9.315 19.687 9.282 120.105-0.033 100.914-0.33 105.010-9.513 122.153-10.669 19.918-35.411 38.152-57.245 42.116-9.216 1.685-184.023 2.279-194.164 0.694zM193.239 412.226c-2.279-0.363-8.588-2.246-14.039-4.129-26.195-9.15-46.906-31.843-52.819-57.873-2.081-9.183-2.51-26.591-2.51-103.292 0-100.055 0.132-101.673 9.315-119.775 5.615-11.099 23.75-29.234 34.849-34.849 18.135-9.216 19.621-9.315 120.997-9.315s102.862 0.099 120.997 9.315c11.099 5.615 29.234 23.75 34.849 34.849 9.183 18.135 9.315 19.687 9.282 120.105-0.033 100.914-0.33 105.010-9.513 122.153-10.669 19.918-35.411 38.152-57.245 42.116-9.216 1.685-184.023 2.279-194.164 0.694zM606.142 412.226c-2.279-0.363-8.588-2.246-14.039-4.129-26.195-9.15-46.906-31.843-52.819-57.873-2.081-9.183-2.51-26.591-2.51-103.292 0-100.055 0.132-101.673 9.315-119.775 5.615-11.099 23.75-29.234 34.849-34.849 18.135-9.216 19.621-9.315 120.997-9.315s102.862 0.099 120.997 9.315c11.099 5.615 29.234 23.75 34.849 34.849 9.183 18.135 9.315 19.687 9.282 120.105-0.033 100.914-0.33 105.010-9.513 122.153-10.669 19.918-35.411 38.152-57.245 42.116-9.216 1.685-184.023 2.279-194.164 0.694z" />
<glyph unicode="&#xe911;" glyph-name="delete" horiz-adv-x="890" d="M277.504 931.818v-28.227h-277.504v-111.304h54.851l0.445-369.887c0.356-289.48 0.89-371.356 2.315-376.565 6.411-23.151 15.805-39.669 31.254-54.94 16.25-16.117 34.237-25.912 55.83-30.408 15.894-3.339 584.793-3.295 600.865 0 42.963 8.904 74.663 39.936 87.263 85.348 1.425 5.209 1.959 87.085 2.315 376.565l0.445 369.887h54.851v111.304h-277.504v56.409h-335.427v-28.182zM388.808 430.948v-250.079h-109.791v500.113h109.791v-250.034zM611.417 430.948v-250.079h-109.791v500.113h109.791v-250.034z" />
<glyph unicode="&#xe912;" glyph-name="details" horiz-adv-x="1092" d="M369.323 957.611c-10.172-3.823-18.978-9.83-23.825-16.316-2.458-3.209-20.685-33.314-40.414-66.833-19.797-33.587-36.113-61.167-36.318-61.303-0.137-0.137-32.427-7.305-71.748-15.906s-74.615-17.203-78.37-19.115c-16.111-8.26-26.078-24.576-26.010-42.735 0-6.144 2.935-40.414 6.485-76.254 3.55-35.772 6.485-66.628 6.485-68.608 0-2.048-20.207-26.692-47.787-58.3-26.283-30.106-49.835-58.573-52.361-63.283-3.618-6.827-4.574-11.196-4.574-21.436 0-10.172 0.956-14.609 4.574-21.367 2.526-4.71 26.078-33.178 52.361-63.283 27.58-31.607 47.787-56.252 47.787-58.3 0-1.98-2.935-32.836-6.485-68.676-3.55-35.772-6.485-70.11-6.485-76.186 0-14.473 5.12-25.532 16.725-35.977 10.513-9.489 9.148-9.079 94.754-27.648l64.785-14.131 37.069-62.737c20.343-34.543 39.526-65.468 42.53-68.676 9.489-9.967 18.978-13.653 35.226-13.653h14.404l66.628 28.262c36.659 15.497 67.789 28.194 69.154 28.194 1.434 0 32.563-12.698 69.154-28.194l66.697-28.262h14.063c17.135 0 26.624 4.028 36.591 15.497 3.755 4.301 22.391 34.27 41.438 66.56s35.43 59.733 36.386 61.030c1.024 1.297 33.997 9.353 73.318 17.886 39.322 8.602 74.684 17.203 78.575 19.183 9.762 4.983 19.593 17.135 23.279 28.74 3.004 9.557 2.867 11.605-3.891 82.057-3.823 39.731-7.031 74.001-7.168 76.049-0.205 2.594 15.701 22.187 48.674 60.075 29.218 33.587 50.449 59.597 52.702 64.444 4.915 10.923 4.915 27.307 0 38.229-2.253 4.915-23.484 30.925-52.702 64.444-32.973 37.956-48.879 57.549-48.674 60.075 0.137 2.116 3.345 36.386 7.168 76.117 6.758 70.178 6.895 72.499 3.891 81.92-3.686 11.674-11.674 21.777-21.914 27.716-5.53 3.209-27.443 8.738-79.531 20.070-40.687 8.875-72.704 16.725-73.728 18.091-0.956 1.297-17.34 28.877-36.386 61.303-39.458 67.243-46.285 75.913-63.761 80.964-6.622 1.98-13.653 2.731-18.91 2.116-4.983-0.614-35.84-12.629-75.708-29.559-37.069-15.701-68.198-28.604-69.154-28.672-1.024-0.068-32.29 12.834-69.495 28.604-72.567 30.788-80.964 33.178-95.505 27.785zM556.51 692.668c9.284-4.71 21.299-17.886 24.439-26.829 3.686-10.513 3.686-225.826 0-236.339-3.209-9.011-15.155-22.118-24.644-26.965-18.364-9.353-42.803-5.325-57.549 9.353-14.95 14.95-14.541 10.991-14.541 135.851 0 118.921-0.068 117.555 10.172 131.004 5.188 6.895 13.858 12.834 24.235 16.725 8.875 3.345 28.74 1.843 37.888-2.799zM556.578 292.147c8.602-4.369 19.797-16.452 23.689-25.463 3.55-8.26 3.891-27.989 0.614-37.41-3.072-9.011-15.087-22.118-24.576-26.965-10.445-5.325-27.375-6.349-39.39-2.321-12.629 4.233-25.463 16.794-29.628 29.013-9.626 28.331 3.209 55.433 31.334 65.946 8.875 3.345 28.74 1.911 37.956-2.799z" />
<glyph unicode="&#xe913;" glyph-name="document-question" horiz-adv-x="1058" d="M209.852 888.832c-20.309-5.564-41.813-22.665-51.541-40.96-10.82-20.309-10.172 3.789-10.172-383.386 0-340.173 0.137-354.167 3.311-365.602 5.53-20.002 22.528-41.438 40.755-51.337 18.091-9.865 18.534-9.899 150.733-9.899 137.25 0.034 129.161-0.785 139.264 13.722 4.198 6.007 5.393 9.762 5.837 18.5 0.512 9.591-0.102 12.254-4.813 20.685-19.729 35.43-33.724 71.578-39.902 102.912l-2.97 15.258-47.787 0.034c-53.316 0.034-56.218 0.58-67.55 12.527-7.851 8.294-11.127 17.203-11.059 30.14 0.068 17.988 8.431 31.607 23.757 38.639 6.281 2.867 12.288 3.243 54.818 3.277l47.753 0.034 3.038 17.442c1.673 9.591 6.622 27.648 10.991 40.107 4.335 12.493 8.363 24.098 8.909 25.771 0.956 2.901-2.628 3.106-58.709 3.14-66.628 0.034-67.823 0.239-79.497 12.527-7.851 8.26-11.127 17.169-11.059 30.14 0.034 13.073 3.925 22.699 12.527 30.822 11.913 11.298 10.001 11.127 107.759 11.127h88.713l14.063 12.459c36.523 32.324 82.33 55.842 130.594 67.106 15.974 3.755 21.845 4.13 66.185 4.267 46.285 0.171 48.947 0.341 54.647 3.891 9.114 5.632 15.292 12.868 18.295 21.402 3.413 9.626 3.447 29.116 0.137 44.783-4.779 22.596-10.001 29.594-62.669 84.105-113.254 117.214-163.84 168.823-170.701 174.046-3.994 3.072-11.878 7.441-17.476 9.728l-10.206 4.096-164.011 0.341c-125.611 0.273-165.888-0.171-171.964-1.843zM633.105 689.289l92.023-95.232-85.231-0.512c-57.788-0.341-87.415 0.102-91.887 1.399-9.216 2.662-18.739 11.537-23.62 22.016l-4.096 8.841-0.034 89.941v89.907l10.411-10.547c5.734-5.837 51.849-53.419 102.434-105.813zM695.774 462.575c-45.397-7.1-83.217-27.204-116.634-61.986-42.53-44.305-60.826-94.242-58.436-159.607 2.048-55.706 20.275-98.918 59.119-140.083 61.099-64.785 157.696-81.749 237.602-41.745 38.434 19.217 73.079 54.75 93.423 95.778 14.814 29.901 22.050 61.44 22.050 96.119 0 57.549-19.046 106.496-57.515 147.934-29.184 31.403-65.57 52.565-105.438 61.303-14.848 3.277-59.255 4.642-74.172 2.287zM739.942 377.89c28.74-5.291 51.473-28.399 55.433-56.354 3.277-23.108-2.697-38.127-24.917-62.805-18.876-20.958-22.46-26.556-24.713-38.673-2.935-15.974-5.973-21.743-13.005-24.678-13.653-5.7-24.405 5.973-24.132 26.18 0.273 18.159 4.164 26.078 22.187 45.090 8.909 9.353 18.33 19.627 20.924 22.835 17.545 21.504 2.56 53.282-25.122 53.282-10.24 0-18.671-4.096-29.321-14.165-11.401-10.786-17.067-13.244-23.996-10.377-6.485 2.697-11.947 9.694-11.947 15.36 0 2.458 2.492 8.329 5.495 13.039 12.322 19.183 34.475 31.573 58.982 32.973 2.014 0.102 8.363-0.683 14.131-1.707zM738.918 175.002c18.569-10.445 18.637-37.239 0.068-48.128-7.509-4.403-20.173-4.267-26.317 0.307-9.216 6.827-12.902 14.473-12.151 25.225 1.468 21.333 20.617 32.597 38.4 22.596z" />
<glyph unicode="&#xe914;" glyph-name="document" horiz-adv-x="896" d="M177.728 956.032c-61.12-5.952-110.4-47.104-125.824-105.088l-3.392-12.672v-377.792c0-352.128 0.192-378.432 2.56-387.072 10.304-37.184 30.272-65.472 59.712-84.608 13.952-9.088 25.408-14.272 42.56-19.2l11.648-3.392h567.488l13.12 4.096c33.536 10.496 61.504 30.848 79.36 57.664 8.128 12.288 12.928 22.784 18.432 40.32l4.096 12.864 0.384 264.512c0.384 259.392 0.32 264.576-2.496 268.032l-2.88 3.584-124.416 0.768c-137.728 0.832-128.96 0.128-140.864 10.624-3.136 2.752-7.296 8.384-9.216 12.48l-3.52 7.488v148.096c0 90.688-0.576 149.568-1.408 151.872-3.392 8.832 6.784 8.448-195.264 8.192-101.696-0.128-187.2-0.512-190.080-0.768zM646.080 936l-3.968-3.072v-114.688c0-113.792 0.064-114.752 3.136-118.656l3.072-3.904h89.344c49.152 0 90.432 0.384 91.776 0.896 6.4 2.496 2.624 8.384-65.792 102.144-96.768 132.672-95.36 130.816-102.272 135.808-7.36 5.376-10.048 5.632-15.296 1.472zM620.608 443.776c7.296-3.904 15.040-12.352 18.176-19.776 5.696-13.632 1.024-32.832-10.432-42.624-12.032-10.304-2.304-9.728-180.352-9.728-178.112 0-168.32-0.576-180.416 9.792-15.68 13.44-17.344 37.952-3.584 53.184 5.312 5.824 11.072 9.6 18.24 11.776 2.048 0.64 77.632 1.024 168 0.896l164.288-0.256 6.080-3.264zM614.656 242.496c9.408-2.816 18.816-10.752 23.040-19.584 3.968-8.128 4.48-22.528 1.088-30.592-3.456-8.128-11.52-16.384-19.776-20.288l-7.488-3.456h-327.040l-7.488 3.456c-4.096 1.92-9.856 6.208-12.864 9.536-13.952 15.424-12.288 39.808 3.648 53.44 11.52 9.92 3.328 9.472 179.584 9.6 136.896 0.064 160.96-0.256 167.296-2.112z" />
<glyph unicode="&#xe915;" glyph-name="door" horiz-adv-x="755" d="M39.613 913.165c-6.198-2.156-16.707-9.647-20.749-14.821-2.102-2.641-5.066-7.545-6.629-10.887l-2.803-6.036v-380.443c0-317.332 0.269-381.952 1.725-389.821 8.839-48.074 44.894-88.819 91.621-103.586 5.659-1.779 84.345-18.055 174.781-36.163 160.552-32.175 164.864-32.984 180.17-33.037 18.055-0.162 26.193 1.617 40.744 8.785 23.013 11.426 41.499 34.978 46.888 60.039l2.048 9.432 52.332 0.539c57.991 0.647 60.901 1.024 77.447 9.162 21.827 10.779 37.187 28.51 46.673 54.003 2.317 6.090 2.371 17.677 2.749 337.651 0.323 245.868 0.054 334.147-1.024 342.070-7.33 53.625-39.181 101.645-86.124 129.832-10.509 6.306-29.211 14.336-41.984 18.055-24.414 7.060-13.366 6.791-294.696 6.683-179.901-0.054-260.527-0.485-263.168-1.455zM571.554 822.515c17.839-5.12 34.547-16.438 46.727-31.636 7.815-9.755 11.48-16.492 15.683-28.941l2.964-8.785 0.323-322.883 0.377-322.883h-89.357v279.606c0 180.386-0.431 285.373-1.293 295.828-4.473 56.428-32.337 104.61-78.525 135.923l-10.078 6.791 52.817-0.431c45.325-0.377 53.895-0.701 60.362-2.587zM246.784 785.866c84.399-16.761 146.701-29.696 151.929-31.582 28.51-10.294 49.637-33.846 56.967-63.488 1.886-7.491 2.048-37.619 2.048-336.141 0-311.727-0.108-327.896-2.156-327.303-1.24 0.377-73.512 14.875-160.66 32.229s-161.9 32.714-166.104 34.061c-15.306 4.958-26.678 19.025-29.427 36.379-0.862 5.443-1.293 120.994-1.293 346.92v338.728l2.856-0.701c1.509-0.377 67.153-13.474 145.839-29.103zM351.879 462.875c-14.659-6.198-24.522-18.216-27.432-33.469-1.725-9.216-1.671-96.849 0.108-106.388 0.755-4.096 2.533-9.647 3.934-12.396 3.341-6.629 12.935-15.737 20.588-19.618 5.443-2.803 7.761-3.18 19.402-3.18 11.857 0.054 13.851 0.377 19.51 3.395 8.084 4.258 16.222 12.342 20.534 20.48l3.341 6.306 0.323 56.104c0.377 55.134 0.323 56.212-2.371 63.488-3.503 9.27-12.45 18.971-22.043 23.821-5.875 2.964-9.054 3.665-17.947 4.042-9.162 0.323-11.857-0.054-17.947-2.587z" />
<glyph unicode="&#xe916;" glyph-name="dots" horiz-adv-x="307" d="M121.19 959.488c-61.85-5.99-110.285-51.712-119.757-112.896-1.587-10.24-1.587-28.16 0-38.4 2.304-14.899 6.451-27.853 13.005-40.858 20.48-40.55 60.518-67.84 105.677-72.090 8.038-0.768 25.139-0.307 32.461 0.819 13.67 2.099 25.856 5.99 38.656 12.288 26.829 13.21 47.104 33.485 60.416 60.416 9.165 18.534 13.568 37.376 13.568 58.163 0 9.114-0.563 16.435-1.843 23.501-9.472 52.941-49.715 94.771-102.349 106.445-11.264 2.509-29.082 3.635-39.834 2.611zM122.112 580.301c-18.637-1.894-33.536-6.093-48.538-13.568-22.426-11.315-40.96-28.211-53.862-49.306-9.83-16.077-15.718-32.512-18.483-51.763-1.126-7.629-1.28-26.317-0.256-33.536 3.277-23.962 11.981-45.517 25.651-63.744 12.749-16.998 28.365-29.85 47.872-39.424 9.165-4.506 15.155-6.758 24.371-9.216 12.186-3.174 18.995-3.994 33.229-4.045 16.435-0.051 26.88 1.434 40.704 5.888 33.792 10.803 61.491 34.15 77.773 65.587 9.882 19.098 14.643 38.81 14.643 60.826 0 29.952-8.858 56.115-27.341 80.896-4.71 6.298-18.125 19.712-24.525 24.525-18.944 14.131-38.912 22.477-62.054 25.958-4.915 0.768-24.781 1.382-29.184 0.922zM116.736 200.448c-44.851-5.786-82.637-32.461-102.758-72.55-21.658-43.264-17.818-95.078 9.984-135.014 20.685-29.747 51.814-49.203 88.422-55.194 7.219-1.178 9.626-1.382 20.224-1.382 13.414 0.051 21.146 0.922 32.41 3.789 42.342 10.701 76.39 41.114 91.955 82.022 6.042 15.923 8.602 32 8.090 50.739-0.563 20.378-4.454 36.147-13.414 54.374-13.21 26.88-33.536 47.206-60.416 60.416-12.8 6.298-24.883 10.138-38.656 12.288-7.322 1.178-28.518 1.485-35.84 0.512z" />
<glyph unicode="&#xe917;" glyph-name="download" horiz-adv-x="819" d="M266.513 941.022c-15.087-5.257-27.102-16.247-34.133-31.198l-3.686-7.851-0.341-149.777-0.41-149.777-105.745-0.819-9.216-4.369c-28.809-13.653-40.823-47.923-26.897-76.732 4.028-8.329 14.746-19.388 141.039-145.749 158.037-157.969 143.906-145.886 170.871-145.886s12.834-12.083 170.871 145.886c126.089 126.157 137.011 137.421 140.902 145.613 7.919 16.725 8.055 33.382 0.273 50.108-5.598 11.947-13.517 19.934-25.805 26.010l-10.308 5.12-104.585 0.819v144.043c0 161.314 0.273 155.785-9.489 170.871-6.144 9.557-14.404 16.657-25.395 21.777l-8.124 3.823-126.293 0.341c-119.467 0.273-126.703 0.137-133.53-2.253zM39.458 87.689c-14.882-4.779-27.238-15.974-34.475-31.403-3.891-8.124-4.301-10.24-4.233-21.982 0-10.308 0.683-14.609 3.209-20.958 6.349-15.974 20.207-28.672 36.796-33.655 9.011-2.731 12.015-2.799 360.653-2.389l351.573 0.341 9.216 4.369c12.288 5.803 23.142 16.247 28.74 27.648 4.096 8.397 4.369 9.83 4.369 23.962 0 14.336-0.205 15.565-4.574 24.303-5.734 11.742-15.36 21.367-27.102 27.102l-9.216 4.574-353.69 0.273c-336.759 0.273-353.963 0.137-361.267-2.185z" />
<glyph unicode="&#xe918;" glyph-name="email" d="M157.030 788.224c-8.858-1.434-25.088-8.090-33.741-13.773-11.366-7.526-21.555-19.098-27.904-31.59-10.496-20.736-9.984-6.298-10.035-295.219 0-186.214 0.563-266.65 1.894-273.050 4.813-23.296 23.91-48.435 44.186-58.214 21.606-10.394-3.533-9.779 384.973-9.318l354.867 0.461 10.854 4.045c22.067 8.294 43.366 29.542 51.61 51.661l4.096 10.854 0.512 267.93c0.358 194.355-0.051 270.797-1.434 278.221-5.427 28.774-25.805 52.378-55.398 64.154l-10.24 4.096-355.021 0.205c-195.226 0.102-356.915-0.102-359.219-0.461zM220.672 672.154c2.97-1.536 69.786-43.008 148.378-92.16l142.95-89.344 142.95 89.344c78.592 49.152 145.562 90.726 148.736 92.365 4.352 2.253 8.704 2.816 17.408 2.304 9.83-0.512 12.544-1.434 18.074-5.837 17.050-13.722 20.326-32.922 8.55-50.33-2.918-4.352-41.011-29.030-157.44-101.888-84.429-52.89-156.877-97.741-160.973-99.635-8.909-4.147-24.166-4.557-32.768-0.973-6.4 2.662-310.938 192.717-316.262 197.325-4.403 3.891-9.318 14.029-10.598 21.914-2.202 13.773 6.861 30.362 20.224 36.966 7.322 3.584 23.757 3.584 30.771-0.051z" />
<glyph unicode="&#xe919;" glyph-name="female" horiz-adv-x="652" d="M298.636 958.976c-51.107-4.375-97.932-19.27-139.264-44.311-24.576-14.895-44.963-31.465-67.584-54.737-39.377-40.588-64.698-83.596-79.127-134.516-7.913-28.113-11.357-51.293-12.288-83.13-2.7-90.019 25.6-169.798 83.875-236.172 38.633-44.032 82.479-73.169 137.309-91.229 14.336-4.748 38.447-10.892 42.729-10.892 1.676 0 1.769-5.492 1.769-63.488v-63.581h-31.185c-17.222 0-34.444-0.465-38.26-1.117-14.988-2.327-30.534-12.847-39.377-26.531-12.102-18.711-12.102-46.452 0-65.257 5.306-8.192 15.825-17.873 23.273-21.504 11.543-5.585 16.012-6.144 52.038-6.144h33.327l0.465-35.561c0.559-38.633 1.117-42.636 7.075-53.9 1.676-2.979 6.144-8.844 9.961-12.847 5.399-5.772 9.030-8.471 16.198-12.009l9.216-4.561 15.081-0.372c16.849-0.465 23.552 1.024 33.513 7.447 6.796 4.375 17.036 15.36 20.852 22.342 5.958 11.171 6.516 15.267 7.075 53.9l0.465 35.561h32.954c19.549 0 35.281 0.559 38.726 1.21 17.967 3.724 35.561 18.897 42.077 36.492 11.357 30.161-1.676 63.767-29.789 77.079-10.799 5.027-17.594 5.772-52.969 5.772h-31.185v63.581c0 57.996 0.093 63.488 1.769 63.488 4.282 0 28.393 6.144 42.729 10.892 63.488 20.945 113.385 57.437 155.462 113.757 34.723 46.359 55.575 98.211 63.581 158.255 2.607 20.201 2.7 70.656 0 89.647-11.543 82.199-46.639 147.084-110.22 203.776-42.915 38.26-93.649 63.209-151.18 74.193-21.504 4.189-66.188 6.423-89.088 4.468zM346.577 838.33c30.255-2.886 56.692-11.264 81.082-25.6 49.152-28.951 86.109-77.638 98.956-130.513 4.655-18.991 5.958-31.185 5.958-53.993 0-38.26-6.423-65.536-22.714-97.187-27.648-53.434-78.755-94.208-134.796-107.613-29.975-7.168-68.515-7.168-98.49 0-56.599 13.498-107.334 54.272-135.261 108.637-23.273 45.242-28.951 100.352-15.825 152.297 16.663 65.722 71.308 124.090 136.006 145.222 25.321 8.285 56.785 11.543 85.085 8.751z" />
<glyph unicode="&#xe91a;" glyph-name="gear" d="M394.944 956.736c-12.64-5.728-13.056-7.2-24.064-84.448l-9.92-69.76-5.12-1.76c-11.008-3.712-47.552-23.52-64.736-35.104-9.984-6.688-18.848-12.16-19.712-12.16s-31.072 11.52-67.104 25.6c-70.432 27.488-75.328 28.768-86.112 22.176-6.816-4.128-5.696-2.4-66.88-105.44-34.24-57.632-50.208-86.112-50.784-90.496-1.856-13.856-0.384-15.328 62.464-62.496l58.144-43.648-1.248-8.096c-1.44-9.184-1.696-67.68-0.416-83.136l0.864-10.208-57.184-43.68c-40.448-30.944-58.048-45.44-60.256-49.568-6.272-11.936-5.536-13.472 48.352-104.256 61.248-103.136 60.128-101.408 66.944-105.536 10.912-6.656 15.776-5.408 87.264 22.784l66.368 26.176 21.44-14.464c19.328-12.992 49.536-29.376 62.72-33.984l4.992-1.76 9.888-69.76c8.672-61.056 10.432-70.56 14.016-76 7.936-12.128 4.96-11.872 130.688-11.328l111.904 0.48 6.016 4.576c3.328 2.528 6.976 6.912 8.16 9.728 1.152 2.816 6.464 35.68 11.808 73.024l9.696 67.936 23.936 11.968c24.672 12.32 34.4 18.048 53.76 31.776l11.264 7.936 66.4-26.304c62.848-24.896 66.944-26.272 76.32-25.696 8.64 0.512 10.592 1.312 15.552 6.432 7.136 7.36 110.304 181.12 112.576 189.6 1.184 4.448 1.056 8.32-0.448 13.344-2.368 7.936 0.192 5.792-74.432 62.848l-44.384 33.952 0.864 9.216c1.28 13.856 0.992 80.128-0.352 86.24-1.184 5.344-1.184 5.344 56.064 48.544 31.488 23.776 58.368 44.896 59.744 46.976 3.52 5.376 4.704 14.976 2.592 21.024-3.776 10.88-106.496 181.952-113.024 188.32-11.296 10.944-13.568 10.464-89.632-19.2-36.096-14.080-66.304-25.6-67.104-25.6-0.832 0-10.24 5.824-20.896 12.96-18.272 12.224-60.96 34.816-65.792 34.816-2.88 0-2.496-2.176-13.312 74.080-6.752 47.584-10.272 67.872-12.48 71.68-1.696 2.912-6.144 7.008-9.824 9.088l-6.752 3.808h-110.912c-104.512 0-111.36-0.192-117.92-3.2zM550.56 623.104c68.896-14.656 122.272-65.024 140.192-132.224 3.808-14.272 4.384-19.904 4.384-42.88 0-23.2-0.544-28.544-4.512-43.392-27.136-101.984-135.232-159.392-237.504-126.176-91.808 29.824-144.064 125.696-118.4 217.184 18.912 67.616 79.84 119.776 151.616 129.824 14.944 2.112 49.248 0.864 64.224-2.336z" />
<glyph unicode="&#xe91b;" glyph-name="info" d="M470.221 958.225c-101.581-8.329-193.604-44.783-277.367-109.773-22.050-17.067-61.44-56.115-78.643-77.892-61.030-77.141-95.573-157.15-110.182-255.249-4.301-28.672-4.301-103.561 0-133.871 8.26-58.505 23.142-107.179 48.811-159.607 74.752-152.644 221.389-258.253 390.963-281.532 27.921-3.891 82.944-5.188 110.865-2.731 61.577 5.461 113.254 19.046 169.37 44.51 112.367 50.995 204.186 142.882 254.293 254.566 29.355 65.536 42.94 125.065 45.124 197.7 3.277 108.339-26.146 209.237-87.518 300.51-19.046 28.262-36.113 49.015-61.235 74.206-106.633 107.042-254.498 161.519-404.48 149.163zM534.46 698.812c10.103-5.052 17.954-12.834 23.279-23.006 3.823-7.236 4.437-10.65 4.437-23.006s-0.614-15.77-4.506-23.279c-19.319-37.137-72.021-37.137-91.341 0-3.891 7.509-4.506 10.923-4.574 23.279 0 11.81 0.751 15.906 3.959 22.187 7.168 13.858 19.183 23.757 33.519 27.511 8.602 2.321 27.17 0.341 35.226-3.686zM563.2 345.6v-153.6h-102.4v307.2h102.4v-153.6z" />
<glyph unicode="&#xe91c;" glyph-name="male" d="M686.639 957.58c-17.408-4.282-33.699-18.339-41.891-36.119-3.258-6.982-3.91-11.264-3.91-25.507 0.093-14.895 0.652-18.246 4.655-26.81 5.772-12.474 19.084-25.879 31.651-31.744l9.775-4.561 116.922-1.676-253.487-253.393-14.429 9.495c-36.957 24.204-73.635 38.353-124.649 47.942-25.507 4.748-95.884 4.375-124.090-0.745-68.887-12.474-125.859-41.332-177.617-90.112-57.809-54.365-92.998-121.204-105.751-200.332-4.561-28.579-4.003-89.833 1.117-118.784 13.219-74.752 42.543-130.327 98.304-185.996 55.668-55.761 111.244-85.085 185.996-98.304 28.951-5.12 90.205-5.679 118.784-1.117 76.893 12.381 137.123 43.101 192.791 98.583 58.182 57.903 90.484 123.345 100.724 203.962 2.607 20.759 2.607 67.956 0 87.878-6.609 50.362-25.321 103.052-51.2 144.198l-8.657 13.684 253.487 251.345 1.676-116.55 4.561-9.775c5.865-12.474 19.27-25.879 31.744-31.651 8.564-4.096 11.916-4.655 26.903-4.655 14.895 0 18.246 0.559 26.81 4.655 12.474 5.772 25.879 19.177 31.744 31.651l4.561 9.775v290.164l-4.561 9.775c-5.865 12.474-18.246 24.855-31.279 31.279l-10.24 5.027-140.847 0.279c-108.73 0.279-142.801-0.186-149.597-1.862zM386.513 509.347c86.668-12.288 161.233-80.151 182.924-166.353 5.958-23.645 7.447-67.491 3.258-93.184-5.306-32.023-18.153-63.488-36.957-90.205-19.27-27.462-55.017-58.368-84.899-73.356-49.524-24.762-116.364-29.044-170.915-10.892-40.96 13.498-81.827 43.939-109.661 81.548-13.871 18.618-29.231 50.548-34.63 71.773-14.801 58.368-6.516 123.718 21.69 170.915 34.444 57.53 92.439 98.49 154.065 108.916 16.384 2.7 58.461 3.258 75.124 0.838z" />
<glyph unicode="&#xe91d;" glyph-name="modify" horiz-adv-x="975" d="M769.609 933.083c-6.242-1.365-18.286-5.851-26.819-9.996l-15.409-7.509-75.581-74.85c-41.594-41.204-205.239-204.361-363.715-362.642l-288.085-287.695v-230.010h230.010l363.422 363.666c321.634 321.926 363.959 364.885 368.64 373.955 7.704 14.824 11.605 29.794 12.678 48.274 1.122 19.554-2.584 36.766-11.898 56.076-5.51 11.313-9.655 15.896-58.124 64.317-55.979 55.832-57.978 57.442-82.261 64.756-12.922 3.901-38.863 4.73-52.858 1.658zM829.781 789.333l37.352-37.4-76.361-76.361-75.581 75.532 37.742 37.79c20.821 20.821 38.181 37.839 38.619 37.839 0.488 0 17.652-16.823 38.229-37.4z" />
<glyph unicode="&#xe91e;" glyph-name="plus-rounded" d="M460.8 396.934v-153.597c0-14.507 4.915-26.679 14.746-36.509s21.982-14.725 36.454-14.691c14.473 0.034 26.641 4.949 36.506 14.746s14.763 21.948 14.694 36.454v153.597h153.6c14.507 0 26.672 4.915 36.502 14.746s14.732 21.982 14.698 36.454c-0.034 14.473-4.949 26.624-14.746 36.454s-21.948 14.746-36.454 14.746h-153.6v153.599c0 14.507-4.915 26.658-14.746 36.454s-21.982 14.711-36.454 14.746c-14.473 0.034-26.624-4.881-36.454-14.746s-14.746-22.016-14.746-36.454v-153.599h-153.6c-14.507 0-26.658-4.915-36.454-14.746s-14.711-21.982-14.746-36.454c-0.034-14.473 4.881-26.641 14.746-36.506s22.016-14.763 36.454-14.694h153.6zM512-63.863c-70.827 0-137.387 13.449-199.68 40.346s-116.48 63.365-162.56 109.411c-46.080 46.046-82.551 100.236-109.414 162.563-26.863 62.325-40.311 128.885-40.346 199.677s13.414 137.352 40.346 199.679c26.931 62.327 63.403 116.514 109.414 162.56s100.198 82.518 162.56 109.415c62.362 26.897 128.922 40.346 199.68 40.346s137.318-13.449 199.68-40.346c62.362-26.897 116.545-63.369 162.557-109.415s82.5-100.233 109.466-162.56c26.965-62.327 40.4-128.887 40.298-199.679s-13.551-137.353-40.346-199.677c-26.795-62.327-63.27-116.518-109.418-162.563s-100.332-82.534-162.557-109.466c-62.226-26.931-128.785-40.359-199.68-40.291zM512 38.537c114.346 0 211.197 39.677 290.557 119.037s119.043 176.214 119.043 290.561c0 114.347-39.683 211.199-119.043 290.559s-176.211 119.040-290.557 119.040c-114.347 0-211.2-39.68-290.56-119.040s-119.040-176.213-119.040-290.559c0-114.347 39.68-211.201 119.040-290.561s176.213-119.037 290.56-119.037z" />
<glyph unicode="&#xe91f;" glyph-name="policies" horiz-adv-x="991" d="M234.529 866.42c-8.489-1.354-24.246-7.796-32.636-13.312-10.174-6.739-20.348-17.804-26.954-29.366-10.339-17.97-9.778 2.709-9.778-370.358 0-370.985-0.595-348.028 9.315-367.517 5.615-11.099 23.75-29.234 34.849-34.849 18.432-9.348 17.903-9.315 139.726-9.315 80.367 0 113.994 0.529 118.586 1.916 9.051 2.709 19.39 12.189 23.915 21.933 3.832 8.192 3.898 9.315 3.931 58.93 0 27.813 0.727 54.569 1.652 59.458 0.892 4.889 4.36 14.468 7.63 21.273 5.781 11.892 10.636 17.045 124.3 131.006 67.749 67.947 123.937 122.946 131.501 128.694 7.267 5.549 21.504 14.039 31.678 18.861 19.225 9.183 27.549 15.756 31.315 24.807 3.336 7.994 3.105 81.722-0.297 96.157-5.219 22.165-4.294 21.108-122.616 139.198-101.376 101.178-111.054 110.361-120.931 114.985-5.913 2.742-15.162 5.814-20.546 6.805-9.249 1.685-314.236 2.345-324.641 0.694zM656.946 578.841c-60.086-0.33-86.677 0.066-91.598 1.42-8.687 2.378-19.291 11.297-24.081 20.282-3.634 6.772-3.667 7.564-4.129 95.199l-0.429 88.361 204.866-204.8-84.629-0.462zM836.311 411.698c-17.937-3.799-19.093-4.823-137.381-122.847-64.545-64.347-114.391-115.382-116.439-119.147-3.402-6.243-3.634-9.051-4.096-50.671-0.495-42.314-0.396-44.395 3.105-52.488 4.294-9.976 15.063-20.117 24.312-22.891 8.787-2.643 85.785-2.643 95.1-0.033 5.88 1.652 22.561 17.639 122.748 117.562 103.721 103.49 116.373 116.637 120.237 125.258 8.291 18.432 6.97 40.63-3.402 58.368-2.147 3.667-16.021 18.63-30.819 33.23-23.651 23.321-28.077 26.954-36.699 30.158-11.165 4.162-26.657 5.649-36.666 3.501zM868.616 331.693l18.795-18.861-37.558-39.969-39.705 39.672 18.961 19.027c10.405 10.438 19.324 18.994 19.819 18.994s9.348-8.489 19.687-18.861z" />
<glyph unicode="&#xe920;" glyph-name="printer" horiz-adv-x="1152" d="M255.36 801.6v-106.56h641.28v213.12h-641.28v-106.56zM177.408 639.168c-30.976-5.184-61.184-20.352-84.416-42.432-24.896-23.616-40.128-51.136-47.104-84.928-3.328-16.192-3.584-28.8-3.648-183.936v-166.592h213.12v-213.12h641.28v213.12h213.12v164.864c0 180.992-0.128 183.552-11.52 213.12-20.16 52.224-70.4 91.968-126.464 100.096-16 2.304-780.48 2.176-794.368-0.192zM972.992 528.832c11.712-5.824 18.496-13.312 25.024-27.456 3.968-8.64 4.544-12.352 3.776-23.040-1.088-15.488-5.952-25.6-17.28-36.096-26.752-24.64-68.16-15.552-83.648 18.304-9.152 20.032-3.264 46.656 13.504 60.8 16.064 13.632 40.192 16.704 58.624 7.488zM789.12 188.16v-132.48h-426.24v264.96h426.24v-132.48z" />
<glyph unicode="&#xe921;" glyph-name="properties" horiz-adv-x="991" d="M258.94 643.518l-225.842-172.561 49.614-65.998 20.183 15.459c11.066 8.522 36.864 28.342 57.311 43.999l37.161 28.507 0.429-188.449 0.396-188.449h206.452v247.742h165.161v-247.742h206.452l0.396 188.449 0.429 188.449 37.161-28.507c20.447-15.657 46.245-35.477 57.311-43.999l20.183-15.459 49.614 65.998-165.095 125.853v179.861h-123.805l-0.462-42.116-0.429-42.116-81.226 61.935c-44.693 34.056-82.217 61.902-83.406 61.836-1.189-0.033-103.787-77.758-227.989-172.693zM515.435 598.429c6.243-1.949 15.789-6.838 22.462-11.561 18.399-12.916 28.507-29.167 31.116-50.11l1.189-9.48h-165.954l1.189 9.48c4.922 39.507 42.281 68.079 85.917 65.734 7.267-0.396 18.102-2.213 24.081-4.063z" />
<glyph unicode="&#xe922;" glyph-name="residents" horiz-adv-x="991" d="M408.345 816.145c-35.642-4.162-67.815-19.951-94.373-46.344-26.525-26.36-41.191-53.843-47.302-88.725-10.405-59.557 12.519-119.246 60.581-157.696 19.588-15.69 37.624-24.642 64.182-31.876 15.789-4.294 58.963-4.228 75.941 0.132 45.32 11.594 82.614 39.87 106.1 80.5 22.66 39.176 27.351 90.31 12.321 134.342-16.78 49.119-63.422 92.821-112.607 105.505-11.33 2.907-36.501 6.045-46.245 5.748-3.634-0.099-11.991-0.826-18.597-1.586zM770.246 486.020c-18.036-3.832-19.159-4.823-133.649-119.511-92.259-92.358-109.931-110.823-114.325-119.313-8.952-17.243-10.273-25.6-10.273-64.215 0.033-32.999 0.231-35.179 3.931-43.107 4.525-9.745 14.865-19.225 23.915-21.933 9.844-2.94 73.1-2.543 84.959 0.562 21.471 5.582 19.819 4.129 137.745 121.856 99.031 98.899 111.451 111.847 115.283 120.436 8.291 18.399 6.97 40.63-3.402 58.335-2.147 3.667-16.021 18.63-30.819 33.23-23.651 23.321-28.077 26.954-36.699 30.158-11.165 4.162-26.657 5.649-36.666 3.501zM388.492 444.499c-73.233-4.955-155.78-28.011-222.175-62.134-25.237-12.949-48.723-38.615-58.731-64.215-7.168-18.333-8.489-30.852-8.489-81.061 0.033-46.476 0.132-47.765 3.931-55.924 4.525-9.745 14.865-19.225 23.915-21.933 4.658-1.387 46.84-1.916 154.294-1.916h147.885l0.694 44.99c0.661 42.116 0.958 45.882 4.79 58.434 8.687 28.375 12.42 33.098 81.226 102.433 34.387 34.651 61.902 63.356 61.143 63.818-3.006 1.85-42.182 9.877-62.464 12.85-41.257 6.012-83.241 7.564-126.018 4.658zM802.552 406.016l18.795-18.861-37.558-39.969-39.705 39.672 18.961 19.027c10.405 10.438 19.324 18.994 19.819 18.994s9.348-8.489 19.687-18.861z" />
<glyph unicode="&#xe923;" glyph-name="return" d="M281.344 919.194c-15.411-4.966-22.426-11.52-144.282-135.373-67.379-68.506-124.672-127.642-127.232-131.43-6.861-10.138-9.011-18.944-8.909-37.12 0.154-30.106-5.888-22.374 104.704-134.554 53.146-53.914 110.080-111.718 126.464-128.461 37.222-37.939 40.653-39.936 69.12-39.936 17.101 0 19.661 0.41 28.518 4.762 25.088 12.339 39.475 42.496 34.048 71.424-3.686 19.814-5.581 22.17-74.752 92.774l-65.178 66.56 217.907 0.461c189.030 0.358 220.416 0.102 237.107-2.202 55.757-7.68 107.11-33.485 148.531-74.598 38.707-38.502 57.856-78.131 63.59-131.891 7.014-65.229-13.158-126.31-56.883-172.493-39.014-41.267-83.814-66.509-141.056-79.565-16.23-3.738-17.818-3.738-244.173-4.762-157.44-0.666-229.478-1.536-233.011-2.816-38.349-13.773-55.91-51.968-41.574-90.47 5.171-13.773 22.17-30.822 36.506-36.608l10.24-4.096 203.059-0.512c213.299-0.563 248.627 0.256 285.901 6.605 88.73 15.104 170.701 61.594 229.939 130.355 47.053 54.682 73.062 114.227 81.51 186.522 8.141 69.53-3.533 141.978-32.307 200.96-47.206 96.768-148.275 175.155-257.229 199.526-46.234 10.291-38.605 10.035-283.546 11.11l-224.973 1.024 65.382 66.56c76.339 77.67 75.469 76.442 75.418 104.96 0 12.954-0.819 18.227-3.994 26.368-5.12 12.954-17.869 26.675-30.618 32.87-8.192 4.045-11.93 4.762-26.624 5.069-9.37 0.256-19.149-0.256-21.606-1.024z" />
<glyph unicode="&#xe924;" glyph-name="settings" horiz-adv-x="991" d="M426.942 848.714c-23.948-5.847-44.825-25.6-52.554-49.747-1.453-4.558-4.856-24.51-7.564-44.329-2.676-19.852-5.12-36.203-5.417-36.335-15.261-7.3-27.879-14.237-36.633-20.117l-11.066-7.432-37.921 15.822c-31.050 12.916-39.936 15.955-49.086 16.714-13.51 1.123-28.507-2.312-40.762-9.315-16.582-9.48-23.222-18.3-52.951-70.458-15.36-26.888-29.234-52.719-30.852-57.377-7.234-20.909-0.132-50.738 16.384-69.037 3.369-3.7 19.126-16.615 35.047-28.705l28.936-21.933-0.099-28.639-0.066-28.639-28.837-21.768c-15.822-11.991-31.414-24.708-34.618-28.276-17.672-19.786-24.147-48.293-16.021-70.755 2.015-5.615 15.922-31.579 30.918-57.74 31.348-54.734 36.831-61.539 57.278-71.284 12.387-5.913 13.642-6.177 30.258-6.177h17.342l74.851 31.744 12.123-8.192c6.673-4.525 17.507-10.835 24.114-14.006 8.357-4.030 12.222-6.871 12.717-9.315 0.396-1.949 2.907-19.159 5.549-38.218 5.483-39.507 8.357-48.69 19.687-62.695 9.844-12.123 20.777-19.72 34.618-23.981 9.91-3.072 15.294-3.336 69.863-3.336s59.954 0.264 69.863 3.336c13.841 4.261 24.774 11.859 34.618 23.981 12.85 15.889 14.402 22.132 25.963 104.316 0 0.165 4.691 2.543 10.405 5.285 5.715 2.709 16.549 8.952 24.114 13.874l13.741 8.952 36.435-15.756c33.627-14.501 37.459-15.789 49.416-16.483 14.898-0.859 24.312 1.222 38.152 8.423 16.186 8.423 25.666 20.645 54.701 70.425 14.468 24.774 28.011 49.218 30.092 54.371 6.937 16.846 4.625 42.017-5.483 59.491-6.97 12.057-14.865 19.489-45.254 42.513l-29.101 22.099 1.619 8.687c0.859 4.757 1.222 17.375 0.727 28.011l-0.826 19.357 29.167 22.132c16.054 12.189 31.942 25.204 35.311 28.903 17.804 19.72 24.246 52.059 14.633 73.794-1.982 4.525-15.657 29.267-30.39 54.966-28.474 49.747-35.311 58.764-51.662 68.113-12.255 7.003-27.252 10.438-40.762 9.315-9.15-0.76-18.003-3.799-48.987-16.681l-37.789-15.756-11.297 7.597c-6.243 4.162-17.078 10.471-24.081 14.006-9.183 4.591-13.015 7.465-13.576 10.141-0.429 2.015-2.775 18.531-5.186 36.666-2.444 18.135-5.715 36.798-7.333 41.455-8.324 24.213-29.564 43.206-54.14 48.425-12.288 2.61-117.265 2.246-128.33-0.429zM520.258 580.030c50.605-8.192 96.983-49.482 112.145-99.89 4.889-16.186 6.838-38.681 5.021-57.212-3.435-35.080-16.087-61.605-41.455-86.974-28.771-28.738-60.614-41.951-101.31-42.017-39.771-0.033-70.194 11.561-97.676 37.26-21.174 19.786-34.486 41.29-42.182 68.079-5.021 17.573-5.417 58.269-0.727 75.148 15.096 54.305 60.317 96.884 112.111 105.538 12.387 2.048 41.489 2.081 54.074 0.066z" />
<glyph unicode="&#xe925;" glyph-name="support" horiz-adv-x="991" d="M448.413 849.243c-20.414-1.916-48.293-7.069-67.022-12.453-77.031-22.033-147.324-75.181-195.221-147.654-69.83-105.604-72.308-259.369-5.946-369.202 28.507-47.236 72.77-91.863 120.502-121.526 49.912-31.017 115.547-49.35 176.756-49.35 15.922 0 16.351-0.099 16.351-3.766 0-4.525 7.796-99.163 9.15-111.385l0.991-8.621 16.417 8.225c36.699 18.399 74.554 42.942 110.526 71.647 25.435 20.282 70.392 64.974 89.848 89.319 55.791 69.731 94.406 153.204 107.355 232.052 20.678 125.82-12.982 237.073-97.214 321.305-53.843 53.81-120.898 87.899-194.956 99.031-20.942 3.171-66.031 4.393-87.535 2.378zM503.775 684.082c38.053-4.757 73.001-25.699 87.007-52.125 7.102-13.411 10.207-24.972 11.396-42.579 2.51-36.633-9.15-60.152-53.017-106.694-28.936-30.72-31.81-35.741-34.387-60.251l-1.817-17.375h-60.911l1.090 21.042c2.246 42.744 4.327 46.972 40.564 83.010 38.648 38.417 45.915 50.341 44.329 72.671-2.147 30.324-27.648 48.954-62.365 45.551-21.405-2.114-37.194-14.435-48.954-38.284-3.336-6.739-6.276-12.222-6.54-12.222-0.859 0-55.858 21.603-56.419 22.165-1.189 1.189 8.258 20.084 15.294 30.72 4.129 6.177 13.345 16.747 20.513 23.486 28.143 26.492 61.176 36.269 104.217 30.885zM502.685 352.537c13.741-7.465 20.876-19.985 20.876-36.666 0-5.516-1.156-12.783-2.543-16.153-2.907-6.97-12.651-17.672-19.159-21.108-31.348-16.45-68.509 11.958-60.845 46.509 6.144 27.813 36.335 41.224 61.671 27.417z" />
<glyph unicode="&#xe926;" glyph-name="team-members" horiz-adv-x="991" d="M475.764 750.212c-14.369-2.015-31.546-7.399-44.627-13.973-82.977-41.852-105.736-148.645-47.038-220.622 57.212-70.127 165.558-70.127 222.77 0 24.708 30.291 36.236 68.575 32.041 106.529-5.615 50.87-36.17 93.713-82.449 115.646-23.189 10.967-55.395 15.922-80.698 12.42zM179.2 645.137c-14.831-3.105-38.549-14.633-51.167-24.873-19.192-15.558-33.693-37.756-40.795-62.497-5.417-18.828-5.384-49.218 0.066-66.791 15.657-50.209 54.635-82.878 106.727-89.418 32.801-4.096 69.203 7.895 95.298 31.447 9.249 8.324 26.129 30.059 26.129 33.594 0 0.859-3.766 7.201-8.357 14.105-15.459 23.090-27.384 51.332-33.825 80.037-1.652 7.267-3.039 23.486-3.601 41.455l-0.892 29.498-11.793 5.615c-6.507 3.072-17.012 6.706-23.321 8.027-14.468 3.072-39.374 2.973-54.47-0.198zM756.571 645.269c-5.847-1.255-15.988-4.823-22.528-7.928l-11.859-5.649-0.925-29.498c-0.892-30.357-3.27-44.99-11-68.311-5.087-15.36-16.648-38.648-26.393-53.182-4.591-6.904-8.357-13.246-8.357-14.105 0-3.534 16.879-25.27 26.129-33.594 26.095-23.552 62.497-35.543 95.298-31.447 52.092 6.54 91.070 39.209 106.727 89.418 5.45 17.573 5.483 47.963 0.066 66.791-15.723 54.602-64.017 90.442-121.195 89.947-8.456-0.066-20.15-1.156-25.963-2.444zM459.314 378.632c-111.385-9.348-200.671-56.584-225.412-119.279-6.21-15.69-7.829-31.777-7.3-71.482l0.495-34.684h536.774l-0.066 42.942c-0.066 48.392-0.793 52.686-12.585 75.446-22.264 42.909-84.43 81.292-158.291 97.742-39.077 8.721-94.604 12.585-133.615 9.315zM162.684 331.363c-72.308-12.949-133.252-45.948-153.369-83.076-8.126-14.931-9.282-22.495-9.282-60.845l-0.033-35.113 144.516 0.859 0.958 51.2c0.826 45.221 1.354 52.686 4.426 63.884 6.54 23.717 19.489 49.978 30.588 62.035l3.402 3.733-3.997-0.132c-2.18-0.099-9.943-1.222-17.21-2.543zM810.479 330.306c11.099-12.057 24.047-38.317 30.588-62.035 3.072-11.198 3.601-18.663 4.426-63.884l0.958-51.2 144.516-0.859-0.033 35.113c0 38.35-1.156 45.915-9.282 60.845-20.15 37.194-79.509 69.467-151.585 82.482-23.387 4.228-23.882 4.228-19.588-0.462z" />
<glyph unicode="&#xe927;" glyph-name="triangle-down" d="M849.9 755.333h-675.861c-6.843-0.023-13.55-2.086-19.4-5.965s-10.621-9.429-13.799-16.051c-3.178-6.623-4.645-14.067-4.24-21.532s2.665-14.667 6.537-20.833l337.93-533.434c14.006-22.112 47.723-22.112 61.766 0l337.931 533.434c3.912 6.153 6.205 13.359 6.629 20.836 0.43 7.477-1.024 14.939-4.205 21.576-3.188 6.636-7.967 12.193-13.838 16.066s-12.595 5.915-19.449 5.903z" />
<glyph unicode="&#xe928;" glyph-name="upload" horiz-adv-x="819" d="M85.565 958.566c-21.955-3.686-37.396-11.919-54.968-29.286-13.681-13.517-20.439-24.125-26.337-41.411l-3.564-10.486v-858.767l3.564-10.486c5.816-17.080 12.657-27.894 26.337-41.533 13.64-13.681 24.453-20.521 41.533-26.337l10.486-3.564h653.967l10.486 3.564c17.080 5.816 27.894 12.657 41.533 26.337 13.681 13.64 20.521 24.453 26.337 41.533l3.564 10.486 0.369 317.399 0.369 317.44-306.545 306.545-210.289-0.164c-115.63-0.082-213.238-0.655-216.842-1.27zM715.448 601.928c0-0.532-57.139-1.024-126.976-1.024h-126.976v256l126.976-126.976c69.837-69.837 126.976-127.427 126.976-128zM512.246 396.554l101.949-101.949-71.311-73.4-40.387 40.346c-22.2 22.2-40.796 40.346-41.37 40.346s-1.024-47.923-1.024-106.496v-106.496h-101.007v106.496c0 58.573-0.451 106.496-1.024 106.496s-18.842-17.777-40.632-39.526l-39.608-39.485-73.236 71.311 102.154 102.154c56.197 56.197 102.482 102.154 102.851 102.154s46.572-45.875 102.646-101.949z" />
<glyph unicode="&#xe929;" glyph-name="hamburger" horiz-adv-x="1536" d="M0 874.24v-85.76h1536v171.52h-1536v-85.76zM0 448v-84.48h1536v168.96h-1536v-84.48zM0 21.76v-85.76h1536v171.52h-1536v-85.76z" />
<glyph unicode="&#xe92a;" glyph-name="photo" horiz-adv-x="1156" d="M578.071 145.203c68.816 0 127.32 24.077 175.51 72.232s72.268 106.658 72.232 175.51c-0.036 68.856-24.114 127.339-72.232 175.457s-106.622 72.212-175.51 72.285c-68.892 0.074-127.376-24.022-175.457-72.285s-72.175-106.75-72.284-175.457c-0.111-68.707 23.985-127.211 72.284-175.51s106.787-72.377 175.457-72.232zM578.071 255.313c-38.539 0-71.112 13.302-97.723 39.913-26.607 26.611-39.913 59.184-39.913 97.719 0 38.539 13.305 71.112 39.913 97.723 26.611 26.607 59.184 39.913 97.723 39.913 38.535 0 71.109-13.305 97.719-39.913 26.611-26.611 39.913-59.184 39.913-97.723 0-38.535-13.302-71.109-39.913-97.719s-59.184-39.913-97.719-39.913zM137.64-47.484c-30.28 0-56.192 10.772-77.736 32.315-21.545 21.547-32.335 47.477-32.372 77.791v660.646c0 30.28 10.79 56.192 32.372 77.736s47.493 32.335 77.736 32.372h173.419l101.851 110.107h330.323l101.848-110.107h173.419c30.281 0 56.211-10.791 77.791-32.372s32.352-47.493 32.315-77.736v-660.646c0-30.277-10.772-56.208-32.315-77.791-21.544-21.58-47.474-32.352-77.791-32.315h-880.86z" />
<glyph unicode="&#xe92b;" glyph-name="print" horiz-adv-x="1190" d="M1040.941 704.251c-29.41 0-58.165-8.749-82.62-25.142-24.448-16.393-43.512-39.693-54.769-66.953-11.249-27.26-14.2-57.257-8.463-86.196 5.745-28.939 19.908-55.522 40.704-76.386s47.292-35.073 76.137-40.829c28.845-5.756 58.744-2.802 85.918 8.489s50.394 30.414 66.741 54.947c16.339 24.534 25.058 53.378 25.058 82.884 0 39.567-15.669 77.513-43.558 105.491-27.881 27.978-65.709 43.695-105.148 43.695zM1040.941 491.128c-12.604 0-24.93 3.75-35.403 10.775-10.481 7.025-18.65 17.011-23.477 28.694s-6.084 24.538-3.629 36.942c2.462 12.402 8.531 23.794 17.446 32.736s20.269 15.031 32.632 17.498c12.363 2.467 25.171 1.201 36.819-3.638s21.602-13.034 28.604-23.549c7.002-10.514 10.737-22.876 10.737-35.522 0-16.957-6.709-33.22-18.665-45.21-11.949-11.991-28.16-18.726-45.064-18.726zM297.412 555.065c0 29.506-8.721 58.35-25.062 82.884s-39.565 43.655-66.737 54.947c-27.172 11.292-57.072 14.246-85.918 8.489s-55.343-19.965-76.14-40.829c-20.797-20.864-34.96-47.447-40.698-76.386s-2.793-58.936 8.462-86.196c11.255-27.26 30.315-50.56 54.77-66.953s53.205-25.142 82.616-25.142c39.439 0 77.263 15.718 105.151 43.695s43.555 65.925 43.555 105.491zM148.706 491.128c-12.605 0-24.927 3.75-35.407 10.775s-18.649 17.011-23.473 28.694c-4.823 11.683-6.085 24.538-3.626 36.942s8.529 23.794 17.442 32.736c8.913 8.942 20.268 15.031 32.631 17.498s25.177 1.201 36.822-3.638c11.646-4.839 21.599-13.034 28.602-23.549s10.741-22.876 10.741-35.522c0-16.957-6.715-33.22-18.666-45.21s-28.162-18.726-45.065-18.726zM403.63 661.627c29.411 0 58.162 8.75 82.617 25.143s43.514 39.692 54.77 66.952c11.255 27.26 14.2 57.257 8.462 86.197s-19.901 55.521-40.698 76.386c-20.797 20.864-47.294 35.073-76.14 40.829s-58.746 2.802-85.918-8.49c-27.173-11.292-50.397-30.413-66.738-54.947s-25.062-53.377-25.062-82.883c0-39.567 15.667-77.513 43.555-105.491s65.711-43.696 105.15-43.696zM403.63 874.75c12.605 0 24.927-3.75 35.408-10.775s18.649-17.011 23.472-28.694c4.824-11.683 6.086-24.539 3.627-36.942s-8.529-23.795-17.442-32.736c-8.913-8.942-20.268-15.032-32.632-17.498s-25.176-1.201-36.822 3.638c-11.645 4.839-21.599 13.034-28.601 23.549s-10.741 22.876-10.741 35.522c0 16.957 6.714 33.22 18.666 45.21s28.162 18.726 45.064 18.726zM786.018 661.627c29.41 0 58.165 8.75 82.613 25.143 24.456 16.392 43.52 39.692 54.769 66.952 11.256 27.26 14.2 57.257 8.463 86.197s-19.9 55.521-40.696 76.386c-20.796 20.864-47.292 35.073-76.137 40.829s-58.744 2.802-85.919-8.49c-27.173-11.292-50.397-30.413-66.738-54.947s-25.061-53.377-25.061-82.883c0-39.567 15.667-77.513 43.555-105.491s65.711-43.696 105.152-43.696zM786.018 874.75c12.604 0 24.922-3.75 35.403-10.775s18.65-17.011 23.477-28.694c4.819-11.683 6.084-24.539 3.629-36.942-2.462-12.402-8.531-23.795-17.446-32.736s-20.269-15.032-32.632-17.498c-12.363-2.467-25.178-1.201-36.819 3.638-11.647 4.839-21.601 13.034-28.603 23.549s-10.741 22.876-10.741 35.522c0 16.957 6.715 33.22 18.666 45.21s28.162 18.726 45.066 18.726zM908.808 337.36c-21.587 11.944-40.606 28.040-55.981 47.368s-26.797 41.507-33.619 65.268c-14.125 48.739-43.633 91.561-84.1 122.033-40.463 30.471-89.69 46.944-140.284 46.944s-99.821-16.473-140.284-46.944c-40.463-30.472-69.975-73.294-84.102-122.033-13.646-47.813-45.638-88.242-88.958-112.422-41.556-22.56-74.43-58.374-93.423-101.78-18.992-43.409-23.017-91.921-11.44-137.881s38.097-86.731 75.365-115.878c37.268-29.139 83.156-44.988 130.406-45.026 28.316-0.083 56.354 5.594 82.426 16.678 83.12 34.379 176.424 34.379 259.545 0 50.344-21.971 107.214-23.529 158.677-4.36 51.471 19.177 93.538 57.592 117.391 107.204s27.633 106.556 10.549 158.898c-17.077 52.345-53.692 96.023-102.167 121.878v0.053zM807.258 22.257c-17.25-0.015-34.319 3.486-50.184 10.285-104.064 43.121-220.917 43.121-324.978 0-30.241-13.064-64.346-13.884-95.174-2.281s-55.983 34.718-70.2 64.512c-14.217 29.794-16.391 63.947-6.066 95.315 10.324 31.365 32.346 57.505 61.451 72.946 31.294 17.338 58.875 40.695 81.165 68.734s38.853 60.212 48.741 94.678c8.978 31.031 27.756 58.299 53.511 77.703s57.092 29.894 89.3 29.894c32.208 0 63.545-10.491 89.3-29.894s44.533-46.672 53.512-77.703c9.92-34.53 26.533-66.757 48.888-94.834s50.010-51.454 81.385-68.792c25.065-13.483 44.905-34.985 56.38-61.084 11.475-26.104 13.922-55.304 6.95-82.959s-22.965-52.179-45.425-69.67c-22.468-17.491-50.116-26.94-78.554-26.85z" />
<glyph unicode="&#xe92c;" glyph-name="qr-code" d="M0 504.889v455.111h455.111v-455.111h-455.111zM113.778 618.667h227.556v227.556h-227.556v-227.556zM0-64v455.112h455.111v-455.112h-455.111zM113.778 49.776h227.556v227.556h-227.556v-227.556zM568.888 504.889v455.111h455.112v-455.111h-455.112zM682.668 618.667h227.556v227.556h-227.556v-227.556zM910.224-64v113.776h113.776v-113.776h-113.776zM568.888 277.332v113.78h113.78v-113.78h-113.78zM682.668 163.556v113.776h113.776v-113.776h-113.776zM568.888 49.776v113.78h113.78v-113.78h-113.78zM682.668-64v113.776h113.776v-113.776h-113.776zM796.444 49.776v113.78h113.78v-113.78h-113.78zM796.444 277.332v113.78h113.78v-113.78h-113.78zM910.224 163.556v113.776h113.776v-113.776h-113.776z" />
<glyph unicode="&#xe92d;" glyph-name="info-rounded" d="M512 192c14.505 0 26.675 4.915 36.506 14.746s14.73 21.98 14.694 36.454c-0.036 14.474-4.951 26.624-14.746 36.454s-21.949 14.746-36.454 14.746c-14.506 0-26.658-4.915-36.454-14.746s-14.711-21.98-14.746-36.454c-0.034-14.474 4.881-26.639 14.746-36.506s22.016-14.761 36.454-14.694zM512 396.8c14.505 0 26.675 4.915 36.506 14.746s14.73 21.98 14.694 36.454v204.8c0 14.506-4.915 26.658-14.746 36.454s-21.98 14.711-36.454 14.746c-14.473 0.034-26.624-4.881-36.454-14.746s-14.746-22.016-14.746-36.454v-204.8c0-14.505 4.915-26.675 14.746-36.506s21.982-14.73 36.454-14.694zM512-64c-70.826 0-137.386 13.45-199.68 40.346s-116.48 63.37-162.56 109.414c-46.080 46.044-82.551 100.234-109.414 162.56s-40.311 128.886-40.346 199.68c-0.034 70.793 13.414 137.353 40.346 199.68s63.402 116.514 109.414 162.56c46.012 46.046 100.198 82.518 162.56 109.414s128.922 40.346 199.68 40.346c70.758 0 137.318-13.449 199.68-40.346s116.547-63.369 162.56-109.414c46.013-46.046 82.499-100.233 109.466-162.56s40.397-128.887 40.294-199.68c-0.102-70.794-13.553-137.354-40.346-199.68s-63.268-116.516-109.414-162.56c-46.147-46.044-100.337-82.534-162.56-109.466s-128.783-40.361-199.68-40.294zM512 38.4c114.345 0 211.2 39.68 290.56 119.040s119.040 176.215 119.040 290.56c0 114.346-39.68 211.2-119.040 290.56s-176.215 119.040-290.56 119.040c-114.346 0-211.2-39.68-290.56-119.040s-119.040-176.214-119.040-290.56c0-114.345 39.68-211.2 119.040-290.56s176.214-119.040 290.56-119.040z" />
</font>
</defs>
</svg>
