<svg xmlns="http://www.w3.org/2000/svg" width="482" height="109" viewBox="0 0 482 109"><g><g><g><path fill="none" stroke="#d3ccb0" stroke-miterlimit="20" d="M56.151 1L6.58 107.802"/></g><g><path fill="none" stroke="#d3ccb0" stroke-miterlimit="20" d="M295.55 1l-49.573 106.802"/></g><g><path fill="none" stroke="#d3ccb0" stroke-miterlimit="20" d="M176.656 1l-49.572 106.802"/></g><g><path fill="none" stroke="#d3ccb0" stroke-miterlimit="20" d="M416.055 1l-49.572 106.802"/></g><g><path fill="none" stroke="#d3ccb0" stroke-miterlimit="20" d="M115.8 1L66.226 107.802"/></g><g><path fill="none" stroke="#d3ccb0" stroke-miterlimit="20" d="M355.198 1l-49.573 106.802"/></g><g><path fill="none" stroke="#d3ccb0" stroke-miterlimit="20" d="M236.305 1l-49.573 106.802"/></g><g><path fill="none" stroke="#d3ccb0" stroke-miterlimit="20" d="M475.703 1l-49.572 106.802"/></g><g><path fill="none" stroke="#d3ccb0" stroke-miterlimit="20" d="M85.975 1L36.403 107.802"/></g><g><path fill="none" stroke="#d3ccb0" stroke-miterlimit="20" d="M325.374 1L275.8 107.802"/></g><g><path fill="none" stroke="#d3ccb0" stroke-miterlimit="20" d="M206.48 1l-49.572 106.802"/></g><g><path fill="none" stroke="#d3ccb0" stroke-miterlimit="20" d="M445.88 1l-49.573 106.802"/></g><g><path fill="none" stroke="#d3ccb0" stroke-miterlimit="20" d="M145.623 1L96.051 107.802"/></g><g><path fill="none" stroke="#d3ccb0" stroke-miterlimit="20" d="M385.022 1l-49.573 106.802"/></g><g><path fill="none" stroke="#d3ccb0" stroke-miterlimit="20" d="M266.129 1l-49.573 106.802"/></g><g><path fill="none" stroke="#d3ccb0" stroke-miterlimit="20" d="M481 55.048l-25.045 52.754"/></g><g><path fill="none" stroke="#d3ccb0" stroke-miterlimit="20" d="M63.406 1L13.833 107.802"/></g><g><path fill="none" stroke="#d3ccb0" stroke-miterlimit="20" d="M302.804 1l-49.572 106.802"/></g><g><path fill="none" stroke="#d3ccb0" stroke-miterlimit="20" d="M183.911 1l-49.572 106.802"/></g><g><path fill="none" stroke="#d3ccb0" stroke-miterlimit="20" d="M423.31 1l-49.573 106.802"/></g><g><path fill="none" stroke="#d3ccb0" stroke-miterlimit="20" d="M123.054 1L73.48 107.802"/></g><g><path fill="none" stroke="#d3ccb0" stroke-miterlimit="20" d="M362.452 1L312.88 107.802"/></g><g><path fill="none" stroke="#d3ccb0" stroke-miterlimit="20" d="M243.56 1l-49.573 106.802"/></g><g><path fill="none" stroke="#d3ccb0" stroke-miterlimit="20" d="M481 4.003l-47.615 103.8"/></g><g><path fill="none" stroke="#d3ccb0" stroke-miterlimit="20" d="M93.23 1L43.657 107.802"/></g><g><path fill="none" stroke="#d3ccb0" stroke-miterlimit="20" d="M332.628 1l-49.572 106.802"/></g><g><path fill="none" stroke="#d3ccb0" stroke-miterlimit="20" d="M213.735 1l-49.572 106.802"/></g><g><path fill="none" stroke="#d3ccb0" stroke-miterlimit="20" d="M453.134 1L403.56 107.802"/></g><g><path fill="none" stroke="#d3ccb0" stroke-miterlimit="20" d="M152.878 1l-49.573 106.802"/></g><g><path fill="none" stroke="#d3ccb0" stroke-miterlimit="20" d="M392.276 1l-49.572 106.802"/></g><g><path fill="none" stroke="#d3ccb0" stroke-miterlimit="20" d="M273.383 1l-49.572 106.802"/></g><g><path fill="none" stroke="#d3ccb0" stroke-miterlimit="20" d="M481 71.563l-17.79 36.24"/></g><g><path fill="none" stroke="#d3ccb0" stroke-miterlimit="20" d="M71.063 1L21.491 107.802"/></g><g><path fill="none" stroke="#d3ccb0" stroke-miterlimit="20" d="M310.462 1l-49.573 106.802"/></g><g><path fill="none" stroke="#d3ccb0" stroke-miterlimit="20" d="M191.569 1l-49.573 106.802"/></g><g><path fill="none" stroke="#d3ccb0" stroke-miterlimit="20" d="M430.967 1l-49.572 106.802"/></g><g><path fill="none" stroke="#d3ccb0" stroke-miterlimit="20" d="M130.711 1L81.14 107.802"/></g><g><path fill="none" stroke="#d3ccb0" stroke-miterlimit="20" d="M370.11 1l-49.573 106.802"/></g><g><path fill="none" stroke="#d3ccb0" stroke-miterlimit="20" d="M251.217 1l-49.573 106.802"/></g><g><path fill="none" stroke="#d3ccb0" stroke-miterlimit="20" d="M481 20.517l-39.957 87.285"/></g><g><path fill="none" stroke="#d3ccb0" stroke-miterlimit="20" d="M100.887 1L51.315 107.802"/></g><g><path fill="none" stroke="#d3ccb0" stroke-miterlimit="20" d="M340.286 1l-49.573 106.802"/></g><g><path fill="none" stroke="#d3ccb0" stroke-miterlimit="20" d="M221.393 1L171.82 107.802"/></g><g><path fill="none" stroke="#d3ccb0" stroke-miterlimit="20" d="M460.791 1L411.22 107.802"/></g><g><path fill="none" stroke="#d3ccb0" stroke-miterlimit="20" d="M160.535 1l-49.572 106.802"/></g><g><path fill="none" stroke="#d3ccb0" stroke-miterlimit="20" d="M399.934 1l-49.572 106.802"/></g><g><path fill="none" stroke="#d3ccb0" stroke-miterlimit="20" d="M281.04 1l-49.572 106.802"/></g><g><path fill="none" stroke="#d3ccb0" stroke-miterlimit="20" d="M481 86.576l-10.133 21.226"/></g><g><path fill="none" stroke="#d3ccb0" stroke-miterlimit="20" d="M78.318 1L28.745 107.802"/></g><g><path fill="none" stroke="#d3ccb0" stroke-miterlimit="20" d="M317.716 1l-49.572 106.802"/></g><g><path fill="none" stroke="#d3ccb0" stroke-miterlimit="20" d="M198.823 1l-49.572 106.802"/></g><g><path fill="none" stroke="#d3ccb0" stroke-miterlimit="20" d="M438.222 1l-49.573 106.802"/></g><g><path fill="none" stroke="#d3ccb0" stroke-miterlimit="20" d="M137.966 1L88.393 107.802"/></g><g><path fill="none" stroke="#d3ccb0" stroke-miterlimit="20" d="M377.364 1l-49.572 106.802"/></g><g><path fill="none" stroke="#d3ccb0" stroke-miterlimit="20" d="M258.471 1L208.9 107.802"/></g><g><path fill="none" stroke="#d3ccb0" stroke-miterlimit="20" d="M481 38.533l-32.703 69.27"/></g><g><path fill="none" stroke="#d3ccb0" stroke-miterlimit="20" d="M108.142 1L58.569 107.802"/></g><g><path fill="none" stroke="#d3ccb0" stroke-miterlimit="20" d="M347.54 1l-49.572 106.802"/></g><g><path fill="none" stroke="#d3ccb0" stroke-miterlimit="20" d="M228.647 1l-49.572 106.802"/></g><g><path fill="none" stroke="#d3ccb0" stroke-miterlimit="20" d="M468.046 1l-49.573 106.802"/></g><g><path fill="none" stroke="#d3ccb0" stroke-miterlimit="20" d="M167.79 1l-49.572 106.802"/></g><g><path fill="none" stroke="#d3ccb0" stroke-miterlimit="20" d="M407.188 1l-49.572 106.802"/></g><g><path fill="none" stroke="#d3ccb0" stroke-miterlimit="20" d="M288.295 1l-49.572 106.802"/></g><g><path fill="none" stroke="#d3ccb0" stroke-miterlimit="20" d="M481 101.59l-2.879 6.212"/></g><g><path fill="none" stroke="#d3ccb0" stroke-miterlimit="20" d="M.693 53.777L25.738 1.022"/></g><g><path fill="none" stroke="#d3ccb0" stroke-miterlimit="20" d="M.693 104.822l47.615-103.8"/></g><g><path fill="none" stroke="#d3ccb0" stroke-miterlimit="20" d="M.693 37.262l17.79-36.24"/></g><g><path fill="none" stroke="#d3ccb0" stroke-miterlimit="20" d="M.693 88.307L40.65 1.022"/></g><g><path fill="none" stroke="#d3ccb0" stroke-miterlimit="20" d="M.693 22.249L10.826 1.022"/></g><g><path fill="none" stroke="#d3ccb0" stroke-miterlimit="20" d="M.693 70.291L33.396 1.022"/></g><g><path fill="none" stroke="#d3ccb0" stroke-miterlimit="20" d="M.693 7.235l2.879-6.213"/></g></g></g></svg>