<svg xmlns="http://www.w3.org/2000/svg" width="1091" height="216" viewBox="0 0 1091 216"><g><g opacity=".5"><g opacity=".5"><path fill="none" stroke="#d3ccb0" stroke-miterlimit="20" d="M112.636.574l-99.788 214.99"/></g><g opacity=".5"><path fill="none" stroke="#d3ccb0" stroke-miterlimit="20" d="M594.54.574l-99.788 214.99"/></g><g opacity=".5"><path fill="none" stroke="#d3ccb0" stroke-miterlimit="20" d="M355.21.574l-99.788 214.99"/></g><g opacity=".5"><path fill="none" stroke="#d3ccb0" stroke-miterlimit="20" d="M837.115.574l-99.788 214.99"/></g><g opacity=".5"><path fill="none" stroke="#d3ccb0" stroke-miterlimit="20" d="M232.706.574l-99.788 214.99"/></g><g opacity=".5"><path fill="none" stroke="#d3ccb0" stroke-miterlimit="20" d="M714.61.574l-99.788 214.99"/></g><g opacity=".5"><path fill="none" stroke="#d3ccb0" stroke-miterlimit="20" d="M475.281.574l-99.788 214.99"/></g><g opacity=".5"><path fill="none" stroke="#d3ccb0" stroke-miterlimit="20" d="M957.185.574l-99.788 214.99"/></g><g opacity=".5"><path fill="none" stroke="#d3ccb0" stroke-miterlimit="20" d="M974.185.574l-99.788 214.99"/></g><g opacity=".5"><path fill="none" stroke="#d3ccb0" stroke-miterlimit="20" d="M991.185.574l-99.788 214.99"/></g><g opacity=".5"><path fill="none" stroke="#d3ccb0" stroke-miterlimit="20" d="M1009.185.574l-99.788 214.99"/></g><g opacity=".5"><path fill="none" stroke="#d3ccb0" stroke-miterlimit="20" d="M1027.185.574l-99.788 214.99"/></g><g opacity=".5"><path fill="none" stroke="#d3ccb0" stroke-miterlimit="20" d="M1044.185.574l-99.788 214.99"/></g><g opacity=".5"><path fill="none" stroke="#d3ccb0" stroke-miterlimit="20" d="M1059.185.574l-99.788 214.99"/></g><g opacity=".5"><path fill="none" stroke="#d3ccb0" stroke-miterlimit="20" d="M1076.185.574l-99.788 214.99"/></g><g opacity=".5"><path fill="none" stroke="#d3ccb0" stroke-miterlimit="20" d="M172.671.574l-99.788 214.99"/></g><g opacity=".5"><path fill="none" stroke="#d3ccb0" stroke-miterlimit="20" d="M654.575.574l-99.788 214.99"/></g><g opacity=".5"><path fill="none" stroke="#d3ccb0" stroke-miterlimit="20" d="M415.246.574l-99.788 214.99"/></g><g opacity=".5"><path fill="none" stroke="#d3ccb0" stroke-miterlimit="20" d="M897.15.574l-99.788 214.99"/></g><g opacity=".5"><path fill="none" stroke="#d3ccb0" stroke-miterlimit="20" d="M292.741.574l-99.788 214.99"/></g><g opacity=".5"><path fill="none" stroke="#d3ccb0" stroke-miterlimit="20" d="M774.646.574l-99.789 214.99"/></g><g opacity=".5"><path fill="none" stroke="#d3ccb0" stroke-miterlimit="20" d="M535.316.574l-99.788 214.99"/></g><g opacity=".5"><path fill="none" stroke="#d3ccb0" stroke-miterlimit="20" d="M1089.848 109.371l-50.416 106.193"/></g><g opacity=".5"><path fill="none" stroke="#d3ccb0" stroke-miterlimit="20" d="M127.239.574l-99.788 214.99"/></g><g opacity=".5"><path fill="none" stroke="#d3ccb0" stroke-miterlimit="20" d="M609.143.574l-99.788 214.99"/></g><g opacity=".5"><path fill="none" stroke="#d3ccb0" stroke-miterlimit="20" d="M369.814.574l-99.788 214.99"/></g><g opacity=".5"><path fill="none" stroke="#d3ccb0" stroke-miterlimit="20" d="M851.718.574l-99.788 214.99"/></g><g opacity=".5"><path fill="none" stroke="#d3ccb0" stroke-miterlimit="20" d="M247.31.574l-99.789 214.99"/></g><g opacity=".5"><path fill="none" stroke="#d3ccb0" stroke-miterlimit="20" d="M729.214.574l-99.788 214.99"/></g><g opacity=".5"><path fill="none" stroke="#d3ccb0" stroke-miterlimit="20" d="M489.884.574l-99.788 214.99"/></g><g opacity=".5"><path fill="none" stroke="#d3ccb0" stroke-miterlimit="20" d="M1089.848 6.618L994 215.564"/></g><g opacity=".5"><path fill="none" stroke="#d3ccb0" stroke-miterlimit="20" d="M187.274.574l-99.788 214.99"/></g><g opacity=".5"><path fill="none" stroke="#d3ccb0" stroke-miterlimit="20" d="M669.178.574l-99.788 214.99"/></g><g opacity=".5"><path fill="none" stroke="#d3ccb0" stroke-miterlimit="20" d="M429.849.574l-99.788 214.99"/></g><g opacity=".5"><path fill="none" stroke="#d3ccb0" stroke-miterlimit="20" d="M911.753.574l-99.788 214.99"/></g><g opacity=".5"><path fill="none" stroke="#d3ccb0" stroke-miterlimit="20" d="M307.345.574l-99.789 214.99"/></g><g opacity=".5"><path fill="none" stroke="#d3ccb0" stroke-miterlimit="20" d="M789.249.574l-99.788 214.99"/></g><g opacity=".5"><path fill="none" stroke="#d3ccb0" stroke-miterlimit="20" d="M549.92.574l-99.789 214.99"/></g><g opacity=".5"><path fill="none" stroke="#d3ccb0" stroke-miterlimit="20" d="M1089.848 142.615l-35.813 72.95"/></g><g opacity=".5"><path fill="none" stroke="#d3ccb0" stroke-miterlimit="20" d="M142.654.574l-99.789 214.99"/></g><g opacity=".5"><path fill="none" stroke="#d3ccb0" stroke-miterlimit="20" d="M624.558.574l-99.789 214.99"/></g><g opacity=".5"><path fill="none" stroke="#d3ccb0" stroke-miterlimit="20" d="M385.228.574l-99.788 214.99"/></g><g opacity=".5"><path fill="none" stroke="#d3ccb0" stroke-miterlimit="20" d="M867.132.574l-99.788 214.99"/></g><g opacity=".5"><path fill="none" stroke="#d3ccb0" stroke-miterlimit="20" d="M262.724.574l-99.788 214.99"/></g><g opacity=".5"><path fill="none" stroke="#d3ccb0" stroke-miterlimit="20" d="M744.628.574l-99.788 214.99"/></g><g opacity=".5"><path fill="none" stroke="#d3ccb0" stroke-miterlimit="20" d="M505.299.574l-99.789 214.99"/></g><g opacity=".5"><path fill="none" stroke="#d3ccb0" stroke-miterlimit="20" d="M1089.848 39.862l-80.433 175.703"/></g><g opacity=".5"><path fill="none" stroke="#d3ccb0" stroke-miterlimit="20" d="M202.689.574L102.9 215.564"/></g><g opacity=".5"><path fill="none" stroke="#d3ccb0" stroke-miterlimit="20" d="M684.593.574l-99.788 214.99"/></g><g opacity=".5"><path fill="none" stroke="#d3ccb0" stroke-miterlimit="20" d="M445.263.574l-99.788 214.99"/></g><g opacity=".5"><path fill="none" stroke="#d3ccb0" stroke-miterlimit="20" d="M927.168.574l-99.789 214.99"/></g><g opacity=".5"><path fill="none" stroke="#d3ccb0" stroke-miterlimit="20" d="M322.759.574l-99.788 214.99"/></g><g opacity=".5"><path fill="none" stroke="#d3ccb0" stroke-miterlimit="20" d="M804.663.574l-99.788 214.99"/></g><g opacity=".5"><path fill="none" stroke="#d3ccb0" stroke-miterlimit="20" d="M565.334.574l-99.789 214.99"/></g><g opacity=".5"><path fill="none" stroke="#d3ccb0" stroke-miterlimit="20" d="M1089.848 172.836l-20.398 42.729"/></g><g opacity=".5"><path fill="none" stroke="#d3ccb0" stroke-miterlimit="20" d="M157.257.574l-99.789 214.99"/></g><g opacity=".5"><path fill="none" stroke="#d3ccb0" stroke-miterlimit="20" d="M639.16.574l-99.787 214.99"/></g><g opacity=".5"><path fill="none" stroke="#d3ccb0" stroke-miterlimit="20" d="M399.831.574l-99.788 214.99"/></g><g opacity=".5"><path fill="none" stroke="#d3ccb0" stroke-miterlimit="20" d="M881.736.574l-99.789 214.99"/></g><g opacity=".5"><path fill="none" stroke="#d3ccb0" stroke-miterlimit="20" d="M277.327.574l-99.788 214.99"/></g><g opacity=".5"><path fill="none" stroke="#d3ccb0" stroke-miterlimit="20" d="M759.231.574l-99.788 214.99"/></g><g opacity=".5"><path fill="none" stroke="#d3ccb0" stroke-miterlimit="20" d="M519.902.574l-99.789 214.99"/></g><g opacity=".5"><path fill="none" stroke="#d3ccb0" stroke-miterlimit="20" d="M1089.848 76.127l-65.83 139.438"/></g><g opacity=".5"><path fill="none" stroke="#d3ccb0" stroke-miterlimit="20" d="M217.292.574l-99.788 214.99"/></g><g opacity=".5"><path fill="none" stroke="#d3ccb0" stroke-miterlimit="20" d="M699.196.574l-99.788 214.99"/></g><g opacity=".5"><path fill="none" stroke="#d3ccb0" stroke-miterlimit="20" d="M459.866.574l-99.788 214.99"/></g><g opacity=".5"><path fill="none" stroke="#d3ccb0" stroke-miterlimit="20" d="M941.77.574l-99.787 214.99"/></g><g opacity=".5"><path fill="none" stroke="#d3ccb0" stroke-miterlimit="20" d="M337.362.574l-99.788 214.99"/></g><g opacity=".5"><path fill="none" stroke="#d3ccb0" stroke-miterlimit="20" d="M819.266.574l-99.788 214.99"/></g><g opacity=".5"><path fill="none" stroke="#d3ccb0" stroke-miterlimit="20" d="M579.937.574l-99.788 214.99"/></g><g opacity=".5"><path fill="none" stroke="#d3ccb0" stroke-miterlimit="20" d="M1089.848 203.058l-5.795 12.507"/></g><g opacity=".5"><path fill="none" stroke="#d3ccb0" stroke-miterlimit="20" d="M1 106.811L51.416.618"/></g><g opacity=".5"><path fill="none" stroke="#d3ccb0" stroke-miterlimit="20" d="M1 209.565L96.848.618"/></g><g opacity=".5"><path fill="none" stroke="#d3ccb0" stroke-miterlimit="20" d="M1 73.568L36.812.618"/></g><g opacity=".5"><path fill="none" stroke="#d3ccb0" stroke-miterlimit="20" d="M1 176.32L81.433.619"/></g><g opacity=".5"><path fill="none" stroke="#d3ccb0" stroke-miterlimit="20" d="M1 43.346L21.398.618"/></g><g opacity=".5"><path fill="none" stroke="#d3ccb0" stroke-miterlimit="20" d="M1 140.055L66.83.618"/></g><g opacity=".5"><path fill="none" stroke="#d3ccb0" stroke-miterlimit="20" d="M1 13.125L6.795.618"/></g></g></g></svg>