<svg width="241" height="46" viewBox="0 0 241 46" fill="none" xmlns="http://www.w3.org/2000/svg"><g clip-path="url(#clip0_79_2481)" fill="#1C49C2"><path d="M72.757 32.8c-1.32.353-5.208 1.415-8.16 1.415-7.5 0-11.597-4.069-11.597-12.913C53 10.9 60.222 8 65.847 8c3.438 0 7.743 1.132 7.743 3.502 0 .319-.104.708-.173.885l-1.285 2.83h-.556c-.555-2.547-2.118-5.342-7.152-5.342-5.556-.035-7.952 3.467-7.952 10.082 0 7.89 2.882 12.453 9.48 12.453 2.117 0 3.992-.46 3.992-2.016V27.74c0-1.663 0-1.698-1.527-2.194l-2.014-.672v-.743h8.82v.743l-.904.424C73 25.936 73 25.76 73 27.53v5.023l-.243.248Z"/><path d="M75.188 33.755h6.77v-.602l-1.11-.46c-.973-.354-.938-.424-.938-2.476v-4.953c0-.778.139-.85.764-.85h.52c1.216 0 1.25.142 2.153 1.593l4.132 6.686c.347.602.938 1.026 1.771 1.026h2.57v-.601c-1.25-.672-1.737-1.203-3.09-3.29l-3.577-5.307c-.14-.212-.313-.425-.313-.672 0-.708 4.132-.53 4.132-5.484 0-3.148-1.91-4.316-4.791-4.316h-8.993v.673l1.354.424c.937.318.937.637.937 2.795v12.276c0 1.84 0 2.193-.937 2.476l-1.355.46v.602Zm4.687-17.088c0-1.273 0-1.45 1.91-1.45 2.708 0 4.479.849 4.583 4.068 0 2.901-1.493 3.962-4.583 3.962-1.806 0-1.91 0-1.91-.884v-5.696Z"/><path d="m91.438 33.153 1.354-.46c.937-.282.937-.672.937-2.759V17.941c0-1.946 0-2.476-.937-2.795l-1.354-.424v-.602h13.541l.209.213v4.351h-.799l-.764-1.486c-.937-1.769-1.354-1.91-3.82-1.91-3.68 0-3.68.141-3.68 1.38v5.059c0 1.026.07 1.096 1.285 1.096h2.153c1.041 0 1.319-.07 1.875-1.45l.416-.99h.591v6.084h-.591l-.382-.92c-.59-1.45-.729-1.556-1.875-1.556H97.34c-1.18 0-1.25.106-1.25 1.344v4.988c0 1.628 0 2.264 3.75 2.264 3.438 0 3.75-.495 4.792-2.759l.625-1.38h.729v5.06l-.208.247h-14.41v-.602h.07Zm18.993 0 1.527-.46c1.042-.282 1.077-.6 1.077-2.759v-2.3c0-1.627-.382-2.228-1.181-3.856l-1.84-3.679c-1.736-3.467-2.083-4.422-3.333-5.023l-.764-.354v-.602h6.771v.602l-1.146.424c-.695.248-.938.283-.938.672 0 .248.417 1.168.938 2.3l2.743 5.66c.173.39.347.673.521.673.139 0 .173 0 .382-.425l2.43-4.847c.903-1.768 1.32-2.9 1.32-3.325 0-.318-.278-.425-.695-.566l-1.354-.566v-.602h5.938v.602l-.521.248c-1.424.636-1.459.92-3.473 4.634l-2.257 4.174c-.902 1.734-1.215 2.017-1.215 3.963v2.193c0 2.123-.035 2.441 1.042 2.76l1.528.46v.6h-7.535v-.6h.035Zm22.326-14.186c-.417-1.486-1.458-3.785-4.306-3.785-2.256 0-3.506 1.273-3.506 3.148 0 2.866 2.916 3.326 4.756 4.14 2.362 1.025 5.105 1.06 5.105 5.341 0 3.609-3.056 6.368-7.049 6.368-2.222 0-4.514-1.309-4.861-1.84-.243-.388-.347-.92-.347-1.096 0-.248.104-.424.208-.743l.903-2.405h.451c.278 1.698 1.354 4.67 4.827 4.67 2.743 0 3.611-1.77 3.611-3.928 0-3.36-2.986-3.856-5.591-4.705-2.083-.672-4.097-1.521-4.097-4.74 0-3.609 3.368-5.555 6.181-5.555 3.055 0 5 1.097 5 2.335 0 .248-.07.425-.139.637l-.764 2.229h-.382v-.07Zm6.493 14.186 1.528-.46c1.076-.282 1.111-.424 1.111-2.476V16.314c0-.955 0-1.097-1.493-1.097-2.326 0-2.917.354-3.611 1.698l-.903 1.698h-.799v-4.28l.243-.213h15.591l.208.213v4.28h-.799l-.868-1.698c-.729-1.415-1.25-1.698-3.576-1.698-1.528 0-1.562.142-1.562 1.097v13.903c0 1.981 0 2.123 1.18 2.477l1.528.46v.6h-7.743v-.6h-.035Zm8.09.602h6.424v-.602l-1.458-.495c-.591-.212-.834-.318-.834-.778 0-.566.243-1.061.417-1.663l.972-2.9c.486-1.451.695-1.487 1.91-1.487h3.924c.763 0 1.041.071 1.284.885l1.424 4.457c.069.283.243.602.243.885 0 .353-.313.53-.729.636l-1.597.496v.601h6.944v-.601l-.903-.39c-1.25-.53-1.215-.884-1.805-2.653l-5.382-15.884-.139-.106h-1.493l-.174.106-6.25 15.707c-.59 1.522-.694 2.3-1.805 2.795l-.973.425v.566Zm8.993-16.168c.105-.247.174-.53.348-.53.173 0 .243.177.416.778l1.875 5.908c.035.106.139.283.139.425 0 .283-.208.424-.625.424h-3.646c-.59 0-.833 0-.833-.318 0-.213.069-.283.139-.566l2.187-6.12Z"/><path d="M165.778 33.755h6.736v-.602l-1.111-.46c-.972-.353-.938-.424-.938-2.476v-4.953c0-.778.139-.849.764-.849h.521c1.215 0 1.25.142 2.153 1.592l4.132 6.687c.347.601.937 1.026 1.771 1.026h2.604v-.602c-1.25-.672-1.736-1.203-3.09-3.29l-3.577-5.306c-.139-.213-.312-.425-.312-.673 0-.707 4.132-.53 4.132-5.483 0-3.149-1.91-4.316-4.792-4.316h-8.993v.672l1.354.425c.938.318.938.636.938 2.794v12.276c0 1.84 0 2.194-.938 2.477l-1.354.46v.6Zm4.687-17.087c0-1.274 0-1.45 1.91-1.45 2.708 0 4.479.848 4.583 4.068 0 2.9-1.493 3.962-4.583 3.962-1.805 0-1.91 0-1.91-.885v-5.695ZM53.729 36.514h128.507v1.45H53.729v-1.45Zm22.084-28.16h106.423v.743H75.813v-.743Zm106.319 9.481v-3.432h-1.25v-.46h2.986v.46h-1.25v3.432h-.486Zm2.257 0v-3.891h.764l.903 2.724c.069.247.138.46.173.566.035-.142.104-.354.209-.637l.902-2.689h.66v3.856h-.486v-3.219l-1.111 3.22h-.452l-1.111-3.29v3.29h-.451v.07Z"/><path d="M53.73 36.514h128.506v1.45H53.729v-1.45Zm22.083-28.16h106.423v.743H75.813v-.743Z"/></g><defs><clipPath id="clip0_79_2481"><path fill="#fff" transform="translate(53 8)" d="M0 0h135v30H0z"/></clipPath></defs></svg>