<svg width="241" height="46" viewBox="0 0 241 46" fill="none" xmlns="http://www.w3.org/2000/svg"><g clip-path="url(#clip0_79_2494)" fill="#1C49C2"><path d="M64.541 9.126V0h8.195c0 5.03-3.651 9.117-8.195 9.117v.009Zm-.039 11.438v-5.76c6.273 0 11.547-4.77 12.999-11.25.353 2.88 1.13 5.67 2.258 8.1-3.481 5.58-9.125 8.91-15.259 8.91h.002Zm0 17.19c5.542 0 10.896-1.44 15.67-4.23v6.93h-15.67v-2.7Zm22.02-16.966C80.989 27.914 73.017 32.064 64.53 32.06l-.008-5.74c7.155-.002 13.762-3.497 18.273-9.516 1.053 1.49 2.323 2.816 3.727 3.985ZM101.014.046v9.09c-4.534 0-8.224-4.05-8.224-9.09h8.224Zm0 14.813v5.732c-10.224 0-18.582-9.233-18.582-20.59h5.194c0 8.19 6.004 14.858 13.388 14.858ZM90.95 23.851c3.065 1.606 6.432 2.456 10.05 2.47l.01 5.75c-4.85.02-9.588-1.344-13.826-3.916a31.544 31.544 0 0 0 3.766-4.304Zm-5.57 9.721c4.772 2.76 10.102 4.215 15.607 4.212l.067 2.729-15.719-.022.044-6.919ZM128.015 4.41c.257-.99.477-1.71.66-2.25.182-.54.431-1.08.75-1.62V.45h-3.755v.09c.241.54.359 1.08.354 1.62-.008.54-.119 1.26-.33 2.25l-2.048 8.73h-.137L120.458.45h-3.847l.502 1.53-2.687 11.25h-.136l-2.048-8.64c-.212-.99-.319-1.71-.319-2.34 0-.54.128-1.08.385-1.71V.45h-4.803v.09c.319.54.565.99.74 1.53.174.63.405 1.44.694 2.52l3.391 13.32h3.027l3.142-12.78h.136l3.027 12.78h2.981l3.37-13.5h.002Zm4.462-.27c.485 0 .906-.18 1.262-.54.356-.45.537-.9.537-1.44 0-.54-.181-.99-.537-1.44a1.716 1.716 0 0 0-1.262-.54c-.516 0-.952.18-1.308.54-.357.45-.537.9-.537 1.44 0 .54.18.99.537 1.44.356.36.792.54 1.308.54Zm-1.572 4.994v5.94c0 .72-.035 1.26-.102 1.62-.07.45-.193.81-.375 1.17v.09h3.893v-.09a3.77 3.77 0 0 1-.365-1.08c-.061-.45-.091-.99-.091-1.71v-9.09h-.07l-3.482.36v.09c.212.36.364.721.455 1.171.092.36.137.9.137 1.53Zm6.032 7.56c-.062.45-.182.81-.365 1.17v.09h3.893v-.09a3.204 3.204 0 0 1-.375-1.08c-.054-.36-.081-.99-.081-1.8V.045h-.067l-3.483.361v.18c.245.36.4.81.467 1.17.067.45.102.99.102 1.8v11.43c0 .81-.03 1.349-.091 1.71Zm6.236-13.184v11.43c0 .81-.033 1.35-.091 1.71-.062.45-.183.81-.365 1.17v.09h3.892v-.09a3.225 3.225 0 0 1-.375-1.08c-.053-.36-.08-.99-.08-1.8V0h-.07l-3.482.36v.18c.241.36.399.81.466 1.17.067.45.102.99.102 1.8h.003Zm10.537 14.759c1.078 0 2.046-.27 2.904-.81a5.46 5.46 0 0 0 2.027-2.25c.493-.99.739-2.07.739-3.24 0-1.26-.246-2.34-.739-3.24a5.46 5.46 0 0 0-2.027-2.25c-.858-.54-1.826-.81-2.904-.81-1.077 0-2.048.27-2.913.81a5.34 5.34 0 0 0-2.027 2.25c-.486.9-.729 1.98-.729 3.24 0 1.17.241 2.25.729 3.24a5.34 5.34 0 0 0 2.027 2.25c.865.54 1.836.81 2.913.81Zm-2.219-8.55c.204-.63.496-1.08.876-1.44.379-.36.826-.45 1.343-.45.518 0 .963.09 1.343.45.378.36.674.81.877 1.44.204.63.306 1.35.306 2.25 0 .81-.102 1.62-.306 2.25-.203.63-.499 1.08-.877 1.44-.377.27-.825.45-1.343.45-.517 0-.964-.18-1.343-.45-.38-.36-.67-.81-.876-1.44-.203-.63-.308-1.44-.308-2.25 0-.9.101-1.62.308-2.25Zm21.658-3.69v.09c.196.36.284.81.263 1.26-.022.45-.134 1.08-.331 1.8l-1.206 4.5h-.136l-1.958-7.65h-3.05l.32.99-1.891 6.75h-.136l-1.14-4.68c-.182-.72-.284-1.26-.308-1.71-.022-.45.064-.9.262-1.26v-.09h-4.095v.09c.228.36.423.81.592 1.26.167.45.356.99.568 1.71l2.525 8.82h2.209l2.438-8.01h.136l2.185 8.01h2.208l2.574-8.73c.241-.81.456-1.44.638-1.8.183-.45.402-.9.66-1.26v-.09h-3.327Zm-55.696 25.379v-.09c1.094-.27 1.939-.72 2.539-1.44.598-.72.899-1.53.899-2.52 0-.9-.212-1.62-.638-2.25-.427-.63-1.057-1.17-1.891-1.53-.833-.36-1.852-.54-3.05-.54h-6.555v.09c.274.45.456.9.547 1.44.091.54.137 1.35.137 2.25v9.81c0 .99-.046 1.71-.137 2.25a4.38 4.38 0 0 1-.547 1.53v.09h6.989c1.228 0 2.287-.27 3.174-.63a5.147 5.147 0 0 0 2.026-1.8c.465-.81.695-1.62.695-2.43 0-1.08-.356-1.98-1.069-2.79-.714-.72-1.754-1.17-3.119-1.44Zm-4.828-6.21h2.006c.924 0 1.656.27 2.195.63.539.36.807.99.807 1.89 0 .63-.129 1.17-.386 1.53-.257.36-.611.63-1.059.9a7.75 7.75 0 0 1-1.56.18h-2.003v-5.13Zm5.239 11.79c-.29.45-.695.81-1.217.99-.523.18-1.158.36-1.901.36h-2.117v-5.76h2.117c1.14 0 2.014.27 2.63.63.614.45.922 1.17.922 2.16 0 .72-.144 1.26-.432 1.62h-.002Zm10.036-7.829c-.517.54-.903 1.44-1.16 2.61h-.113v-3.24h-.091l-3.461.36v.18c.228.27.378.63.456 1.08.075.36.112.99.112 1.71v5.76c0 .72-.034 1.26-.102 1.62-.07.45-.185.81-.354 1.17v.089h4.006v-.09a3.273 3.273 0 0 1-.456-1.08c-.075-.45-.112-.99-.112-1.71v-1.98c0-.99.139-1.8.42-2.43.282-.54.641-.99 1.081-1.26.44-.27.917-.45 1.433-.45.424 0 .797.09 1.116.18v-3.33c-.244-.09-.509-.09-.797-.09-.804 0-1.463.27-1.98.9h.002Zm7.807 8.459v-9.09h-.07l-3.483.361v.18c.212.27.365.72.456 1.08.091.36.137.9.137 1.53v5.939c0 .72-.034 1.26-.102 1.62-.07.45-.193.81-.376 1.17v.09h3.894v-.09a3.768 3.768 0 0 1-.365-1.08c-.062-.36-.091-.99-.091-1.71Zm-2.698-14.308c-.356.449-.536.899-.536 1.439s.18.99.536 1.44c.357.36.794.54 1.308.54.486 0 .907-.18 1.264-.54.356-.45.535-.9.535-1.44 0-.54-.179-.99-.535-1.44a1.721 1.721 0 0 0-1.264-.54c-.514 0-.951.18-1.308.54Zm15.697 13.948v-14.67h-.068l-3.481.36v.18c.228.27.378.631.455 1.08.075.361.113.99.113 1.71v3.78h-.113a3.15 3.15 0 0 0-1.185-1.08c-.501-.27-1.032-.36-1.592-.36-1.016 0-1.92.27-2.707.81-.789.63-1.405 1.35-1.845 2.34-.44.99-.659 2.07-.659 3.24 0 1.26.209 2.34.627 3.24.418.99.984 1.71 1.697 2.25.713.45 1.493.72 2.345.72.73 0 1.373-.18 1.936-.54.56-.27 1.024-.81 1.389-1.53h.112v1.8h.067l3.392-.45v-.09a3.376 3.376 0 0 1-.387-1.08c-.061-.45-.09-.99-.09-1.71h-.006Zm-2.981-1.8c0 .63-.11 1.17-.33 1.62-.22.45-.52.81-.898 1.08s-.796.36-1.252.36c-.775 0-1.396-.36-1.865-1.08-.473-.72-.706-1.71-.706-2.88 0-.9.113-1.62.34-2.25.228-.72.547-1.17.958-1.53.41-.36.887-.54 1.434-.54.469 0 .879.18 1.228.45.348.27.619.72.807 1.26.19.45.284 1.08.284 1.71v1.8Zm11.808-6.93a6.575 6.575 0 0 0-1.909-.27 6.59 6.59 0 0 0-2.391.45c-.697.36-1.241.81-1.627 1.44-.386.63-.582 1.44-.582 2.25s.198 1.53.593 2.16c.238.36.536.72.887.99v.09c-.638.36-1.101.72-1.389 1.26a2.84 2.84 0 0 0-.431 1.53c0 .72.263 1.35.785 1.8.086.09.172.18.263.27a3.73 3.73 0 0 0-1.172.99c-.281.45-.421.81-.421 1.26 0 .63.205 1.17.614 1.62.411.45 1.003.81 1.775 1.08a8.25 8.25 0 0 0 2.732.45c1.244 0 2.348-.18 3.31-.63.963-.36 1.709-.9 2.231-1.53.523-.72.786-1.44.786-2.25 0-1.08-.357-1.8-1.07-2.34-.713-.54-1.753-.81-3.118-.81h-3.163c-.394 0-.705-.09-.933-.27-.228-.18-.341-.36-.341-.63s.113-.54.341-.81c.134-.18.303-.27.496-.36.56.18 1.177.27 1.85.27.895 0 1.68-.18 2.356-.54.675-.36 1.195-.81 1.56-1.44.365-.63.548-1.35.548-2.07 0-.45-.066-.81-.194-1.17a4.37 4.37 0 0 0-.512-.81v-.09h2.346v-2.43h-.07l-4.144.54h-.006Zm-.338 12.42c.547 0 .944.09 1.196.27.25.27.376.54.376.99 0 .36-.154.72-.457.99-.303.27-.716.54-1.24.63-.523.18-1.097.18-1.719.18-.895 0-1.584-.09-2.072-.45-.486-.36-.729-.81-.729-1.35 0-.36.101-.63.308-.9.096-.09.209-.27.338-.36h3.999Zm.035-7.29c-.144.36-.356.63-.638.81-.281.18-.603.27-.968.27-.56 0-1.005-.18-1.332-.63-.327-.36-.488-.99-.488-1.71 0-.45.075-.9.228-1.26.15-.36.365-.63.638-.9a1.7 1.7 0 0 1 .957-.27c.56 0 1.005.27 1.332.72.327.36.489.99.489 1.71 0 .45-.073.9-.218 1.26Zm13.039 4.41c-.493.18-.989.27-1.489.27-.714 0-1.347-.18-1.902-.54-.554-.27-.994-.81-1.318-1.44-.25-.54-.403-1.17-.462-1.89h6.799v-1.08c0-1.08-.185-1.98-.558-2.79-.372-.72-.892-1.35-1.56-1.71-.667-.45-1.45-.63-2.346-.63-.97 0-1.855.27-2.651.81-.795.54-1.426 1.26-1.889 2.25a7.127 7.127 0 0 0-.695 3.15c0 1.26.246 2.43.74 3.42.493.9 1.177 1.71 2.048 2.25.872.45 1.854.72 2.946.72.775 0 1.515-.18 2.22-.54.704-.27 1.332-.81 1.878-1.44l-.34-1.62c-.456.36-.93.63-1.423.81h.002Zm-4.12-7.56c.327-.27.687-.45 1.081-.45.394 0 .731.18 1.012.36.282.27.489.63.628.99.108.36.172.81.193 1.26h-3.929c.047-.36.123-.63.228-.9.198-.54.457-.99.784-1.26h.003Z"/></g><defs><clipPath id="clip0_79_2494"><path fill="#fff" transform="translate(64.5)" d="M0 0h112v46H0z"/></clipPath></defs></svg>