<svg xmlns="http://www.w3.org/2000/svg" version="1.1" xmlns:xlink="http://www.w3.org/1999/xlink" width="180" height="180"><svg xmlns:dc="http://purl.org/dc/elements/1.1/" xmlns:cc="http://creativecommons.org/ns#" xmlns:rdf="http://www.w3.org/1999/02/22-rdf-syntax-ns#" xmlns:svg="http://www.w3.org/2000/svg" xmlns="http://www.w3.org/2000/svg" xmlns:sodipodi="http://sodipodi.sourceforge.net/DTD/sodipodi-0.dtd" xmlns:inkscape="http://www.inkscape.org/namespaces/inkscape" version="1.1" width="180" height="180" id="SvgjsSvg1381" sodipodi:docname="fav.svg" inkscape:version="0.92.4 (5da689c313, 2019-01-14)">
  <metadata id="SvgjsMetadata1380">
    <rdf:RDF>
      <cc:Work rdf:about="">
        <dc:format>image/svg+xml</dc:format>
        <dc:type rdf:resource="http://purl.org/dc/dcmitype/StillImage"></dc:type>
        <dc:title></dc:title>
      </cc:Work>
    </rdf:RDF>
  </metadata>
  <defs id="SvgjsDefs1379"></defs>
  <sodipodi:namedview pagecolor="#ffffff" bordercolor="#000000" borderopacity="0" objecttolerance="10" gridtolerance="10" guidetolerance="10" inkscape:pageopacity="0" inkscape:pageshadow="2" inkscape:window-width="2560" inkscape:window-height="1017" id="SvgjsSodipodi:namedview1378" showgrid="false" inkscape:pagecheckerboard="true" inkscape:zoom="3.7083822" inkscape:cx="148.37694" inkscape:cy="90.622386" inkscape:window-x="-8" inkscape:window-y="-8" inkscape:window-maximized="1" inkscape:current-layer="svg16"></sodipodi:namedview>
  <path d="M 0,0 C 1.5662109,0.56074219 1.5662109,0.56074219 3.1640625,1.1328125 24.880411,9.4345052 43.200225,26.626217 52.796875,47.8125 c 5.318957,12.559089 7.749892,24.319024 7.640625,38 -0.0046,0.991208 -0.0046,0.991208 -0.0092,2.002441 C 60.359971,97.848701 59.723355,106.60462 56,116 c -0.424102,1.16789 -0.848203,2.33578 -1.285156,3.53906 -9.139858,23.37156 -27.179973,40.48708 -49.699219,50.76563 -19.33412,8.33749 -45.312158,9.445 -65.015625,1.69531 -1.044141,-0.37383 -2.088281,-0.74766 -3.164062,-1.13281 -21.716349,-8.3017 -40.036168,-25.49341 -49.632818,-46.67969 -5.31895,-12.55909 -7.74989,-24.319024 -7.64062,-38 0.003,-0.660806 0.006,-1.321611 0.009,-2.002441 C -120.36,74.151299 -119.72335,65.395381 -116,56 c 0.4241,-1.167891 0.8482,-2.335781 1.28516,-3.539063 C -105.57499,29.08938 -87.534871,11.973862 -65.015625,1.6953125 -45.681505,-6.6421806 -19.703467,-7.7496926 0,0 Z" transform="translate(120,4)" id="SvgjsPath1377" inkscape:connector-curvature="0" style="display:inline;fill:#222221"></path>
  <path d="M 0,0 C 5.2302957,1.1723077 7.7369911,0.77938921 12.636719,-1.2851562 20.178554,-3.5664057 27.895084,-2.3811221 35.085937,0.390625 39.123015,1.6758988 42.709657,0.08510043 46.625,-1.0625 c 6.77734,-1.6878432 14.407386,-2.5363746 20.6875,1 C 82.918987,11.464283 88.893476,34.737402 92,53 93.31215,63.250467 93.31215,63.250467 89.75,68 84.909745,71.106606 77.778865,74 72,74 71.79375,74.845625 71.5875,75.69125 71.375,76.5625 67.426288,86.43428 58.619693,91.11908 49.25,95.1875 41.543393,98.106484 33.256343,100.11568 25,100 24.796566,95.438158 24.672311,90.87748 24.5625,86.3125 24.474521,84.372139 24.474521,84.372139 24.384766,82.392578 24.2146,72.984843 24.2146,72.984843 26.519043,70.095215 28.402344,68.792969 28.402344,68.792969 30.288818,67.883545 32.355907,66.991366 32.355907,66.991366 34,64 33.916667,61.416667 33.916667,61.416667 33,59 29.284352,56.522901 26.362579,56.668252 22.0625,56.6875 21.346426,56.671387 20.630352,56.655273 19.892578,56.638672 15.640636,56.634731 13.072733,56.959358 10,60 c 0.415751,4.850424 2.4166,6.843195 6,10 1.485,0.99 1.485,0.99 3,2 0.340576,2.797363 0.340576,2.797363 0.292969,6.320312 -0.0097,1.256836 -0.01934,2.513672 -0.0293,3.808594 -0.02514,1.318711 -0.05027,2.637422 -0.07617,3.996094 -0.01505,1.339829 -0.02873,2.679674 -0.04102,4.019531 C 19.111029,93.430088 19.061608,96.714846 19,100 4.7872155,100.40697 -10.950643,95.451059 -21.53125,85.648437 -24.338646,82.497583 -28,78.375431 -28,74 -28.94875,73.938125 -29.8975,73.87625 -30.875,73.8125 -36.847132,72.971526 -44.27735,69.911995 -48,65 -51.294383,46.331832 -40.944653,23.924595 -31.398437,8.3945313 -22.766389,-3.9072914 -13.675724,-3.1007563 0,0 Z" transform="translate(68,41)" id="SvgjsPath1376" inkscape:connector-curvature="0" style="display:inline;fill:#f9ce00"></path>
  <path d="M 0,0 C 1.2123633,0.04060547 1.2123633,0.04060547 2.4492188,0.08203125 3.0641016,0.11683594 3.6789844,0.15164062 4.3125,0.1875 2.6856266,3.6653568 0.65101888,6.7822238 -1.4375,10 c -7.8531528,12.571118 -11.447537,25.796031 -14.25,40.1875 -5.875,-0.875 -5.875,-0.875 -7,-2 -0.446631,-7.020487 0.694266,-12.520876 3,-19.125 0.310342,-0.909272 0.620684,-1.818545 0.94043,-2.755371 C -9.302863,-0.40447231 -9.302863,-0.40447231 0,0 Z" transform="translate(55.6875,51.8125)" id="SvgjsPath1375" inkscape:connector-curvature="0" style="display:inline;fill:#282621"></path>
  <path d="M 0,0 C 3.755836,-0.60093375 7.3993281,-1.1125237 10.652344,1.1484375 20.177049,12.810264 28.009156,33.114955 27,48 23.535,48.495 23.535,48.495 20,49 19.720273,47.741875 19.440547,46.48375 19.152344,45.1875 15.77715,30.557829 11.654001,16.995459 2.3828125,4.9179687 1,3 1,3 0,0 Z" transform="translate(120,52)" id="SvgjsPath1374" inkscape:connector-curvature="0" style="display:inline;fill:#272621"></path>
  <path d="m 0,0 c 2.875,0.875 2.875,0.875 4.875,2.875 0.375,3.4375 0.375,3.4375 0,7 -1.625,2 -1.625,2 -4,3 -3.672938,-0.220376 -5.3696655,-0.369665 -8,-3 C -7.5967165,6.258507 -7.5429166,4.5018749 -5.5,1.4375 -3.125,-0.125 -3.125,-0.125 0,0 Z" transform="translate(110.125,77.125)" id="SvgjsPath1373" inkscape:connector-curvature="0" style="display:inline;fill:#262521"></path>
  <path d="M 0,0 C 3.5625,0.3125 3.5625,0.3125 5.5,1.4375 7.084754,4.2341247 7.0219742,6.1618196 6.5625,9.3125 4.4456029,11.664608 3.1220848,12.23061 0,12.6875 -2.4375,12.3125 -2.4375,12.3125 -4.25,11.25 -6.084421,8.2569973 -5.7485758,5.7343334 -5.4375,2.3125 c 2,-2 2,-2 5.4375,-2.3125 z" transform="translate(70.4375,77.6875)" id="SvgjsPath1372" inkscape:connector-curvature="0" style="display:inline;fill:#242321"></path>
  <path d="M 0,0 C 0.99,0.33 1.98,0.66 3,1 1.02,2.98 -0.96,4.96 -3,7 -3.66,6.67 -4.32,6.34 -5,6 -3.35,4.02 -1.7,2.04 0,0 Z" transform="translate(42,43)" id="SvgjsPath1371" inkscape:connector-curvature="0" style="display:inline;fill:#eeca02"></path>
</svg><style>@media (prefers-color-scheme: light) { :root { filter: none; } }
@media (prefers-color-scheme: dark) { :root { filter: none; } }
</style></svg>