<svg width="50" height="50" viewBox="0 0 50 50" fill="none" xmlns="http://www.w3.org/2000/svg">
<g opacity="0.8">
<path d="M31.529 21.596C30.5804 21.596 29.6875 21.596 28.7388 21.596C28.125 21.596 27.5112 21.596 26.8973 21.596C27.1205 20.2567 27.3996 18.9732 27.6228 17.6339L28.2366 14.4531C28.404 13.5045 28.6272 12.5 28.7946 11.4955V11.4397C29.0179 10.3795 28.683 9.65402 27.7902 9.375C27.567 9.3192 27.3996 9.26339 27.1763 9.26339C26.2277 9.26339 25.7812 10.0446 25.6138 10.3795V10.4353L23.4375 14.2299C21.2054 18.0804 19.029 21.875 16.7969 25.7254C16.3504 26.5067 16.2946 27.1205 16.6295 27.6786C16.9085 28.2366 17.5223 28.4598 18.4152 28.4598C19.3638 28.4598 20.2567 28.4598 21.2054 28.4598C21.8192 28.4598 22.433 28.4598 23.0469 28.4598C22.8237 29.7991 22.5446 31.1384 22.2656 32.4777L21.6518 35.6027C21.4844 36.5513 21.2612 37.5558 21.0937 38.5603V38.6161C20.8705 39.6763 21.2054 40.4018 22.0982 40.6808C22.3214 40.7366 22.4888 40.7924 22.7121 40.7924C23.6607 40.7924 24.1071 40.0112 24.2746 39.6763V39.6205L26.4509 35.8259C28.683 31.9754 30.8594 28.1808 33.0915 24.3304C33.5379 23.5491 33.5938 22.9353 33.2589 22.3772C32.9799 21.875 32.4219 21.596 31.529 21.596ZM24.7768 34.8214L23.4375 37.1652C23.4933 36.7746 23.6049 36.3281 23.6607 35.9375L24.2746 32.8125C24.5536 31.3058 24.8326 29.8549 25.1116 28.3482C25.1674 28.1808 25.1674 28.0134 25.1674 27.846C25.1674 27.7902 25.1674 27.6786 25.1674 27.6228C25.2232 27.3437 25.1116 27.0647 24.9442 26.8973C24.7768 26.6741 24.4978 26.5625 24.2187 26.5625C24.1071 26.5625 24.0513 26.5625 23.9955 26.5625C23.8281 26.5625 23.6607 26.5625 23.4375 26.5625C22.7121 26.5625 21.9308 26.5625 21.2054 26.5625C20.3683 26.5625 19.5312 26.5625 18.6942 26.5625C20.8705 22.8237 23.0469 19.029 25.2232 15.2902L26.5625 13.0022C26.5067 13.3929 26.3951 13.8393 26.3393 14.2299L25.7254 17.4107C25.4464 18.9174 25.1674 20.3683 24.8884 21.875C24.8326 22.0424 24.8326 22.2098 24.8326 22.3772C24.8326 22.433 24.8326 22.5446 24.8326 22.6004C24.7768 22.8795 24.8884 23.1585 25.0558 23.3259C25.2232 23.5491 25.5022 23.6607 25.7812 23.6607C25.8929 23.6607 25.9487 23.6607 26.0045 23.6607C26.1719 23.6607 26.3393 23.6607 26.5625 23.6607C27.2879 23.6607 28.0134 23.6607 28.7946 23.6607C29.6317 23.6607 30.4687 23.6607 31.3058 23.6607C29.0737 27.2879 26.9531 31.0826 24.7768 34.8214ZM25 0C18.3036 0 12.0536 2.62277 7.31027 7.31027C2.56696 11.9978 0 18.3036 0 25C0 31.6964 2.62277 37.9464 7.31027 42.6897C11.9978 47.433 18.3036 50 25 50C31.6964 50 37.9464 47.3772 42.6897 42.6897C47.433 38.0022 50 31.6964 50 25C50 18.3036 47.3772 12.0536 42.6897 7.31027C38.0022 2.56696 31.6964 0 25 0ZM25 48.0469C12.2768 48.0469 1.95312 37.7232 1.95312 25C1.95312 12.2768 12.2768 1.95312 25 1.95312C37.7232 1.95312 48.0469 12.2768 48.0469 25C48.0469 37.7232 37.7232 48.0469 25 48.0469Z" fill="white"/>
</g>
</svg>
