<svg width="43" height="51" viewBox="0 0 43 51" fill="none" xmlns="http://www.w3.org/2000/svg">
<path d="M22.5364 31.6541C20.5364 31.6541 20.5364 34.6541 22.5364 34.6541C24.5364 34.6541 24.5364 31.7541 22.5364 31.6541Z" fill="#222831"/>
<path d="M41.8364 15.1541C40.2364 7.05407 33.9364 1.45407 23.8364 0.154066C19.6364 -0.345934 13.5364 0.154066 8.23639 4.95407C3.93639 8.75407 2.93639 14.4541 3.73639 19.9541C3.93639 20.8541 4.03639 22.4541 2.93639 24.0541L0.33639 27.8541L0.23639 27.9541C-0.46361 29.5541 0.43639 31.2541 2.33639 31.4541C2.13639 32.2541 2.33639 32.8541 2.93639 33.3541C2.63639 34.3541 3.13639 35.2541 4.03639 35.6541C3.53639 38.5541 4.53639 41.7541 8.03639 41.6541L11.2364 41.3541C12.8364 41.1541 14.2364 42.2541 14.5364 43.8541C14.8364 45.2541 14.9364 47.1541 14.9364 49.5541C14.9364 50.1541 15.5364 50.6541 16.0364 50.6541C16.6364 50.6541 17.1364 50.0541 17.1364 49.5541C17.1364 46.9541 17.0364 44.9541 16.7364 43.4541C16.2364 40.8541 13.8364 38.9541 11.1364 39.2541L8.13639 39.5541C6.53639 39.5541 6.23639 38.6541 6.13639 37.1541C6.13639 35.4541 6.83639 34.4541 5.13639 33.7541C5.53639 32.9541 5.23639 32.2541 4.63639 31.7541C5.43639 30.1541 3.93639 29.2541 2.63639 29.2541C2.33639 29.1541 2.13639 29.1541 2.23639 28.8541L4.73639 25.1541C6.43639 22.4541 5.93639 20.2541 5.83639 19.3541C5.43639 16.9541 5.53639 14.3541 6.13639 12.0541C8.43639 4.85407 16.0364 1.25407 23.5364 2.25407C38.7364 3.95407 44.2364 18.2541 36.4364 29.0541C33.4364 32.9541 33.4364 37.3541 33.4364 37.7541V49.5541C33.4364 50.1541 34.0364 50.6541 34.5364 50.6541C35.1364 50.6541 35.5364 50.2541 35.6364 49.6541V37.7541C35.6364 36.9541 35.7364 36.4541 35.9364 35.3541C36.2364 32.2541 40.1364 28.3541 40.9364 25.2541C41.6364 23.3541 42.5364 19.4541 41.8364 15.1541Z" fill="#222831"/>
<path d="M30.1364 16.2541H30.3364C29.3364 6.25413 14.9364 6.75413 14.6364 16.8541C14.6364 17.6541 15.3364 18.1541 15.9364 18.1541C16.7364 18.1541 17.2364 17.4541 17.2364 16.8541C17.1364 13.8541 19.9364 11.1541 23.0364 11.4541C27.6364 11.7541 29.6364 17.3541 26.5364 20.5541C25.2364 21.9541 23.2364 23.5541 22.4364 25.1541C21.8364 26.3541 21.5364 27.7541 21.4364 30.0541H21.6364H21.4364C21.4364 30.6541 21.8364 31.1541 22.4364 31.3541C23.2364 31.4541 23.9364 30.9541 23.9364 30.0541C24.0364 28.1541 24.2364 27.0541 24.6364 26.2541C25.0364 25.2541 27.2364 23.3541 28.3364 22.1541C29.9364 20.5541 30.6364 18.3541 30.5364 16.1541H30.1364V16.2541Z" fill="#222831"/>
</svg>
