<svg width="50" height="50" viewBox="0 0 50 50" fill="none" xmlns="http://www.w3.org/2000/svg">
<path d="M25 2.08333C37.6333 2.08333 47.9167 12.3646 47.9167 25C47.9167 37.6333 37.6333 47.9167 25 47.9167C12.3646 47.9167 2.08333 37.6333 2.08333 25C2.08333 12.3646 12.3646 2.08333 25 2.08333ZM25 0C11.1937 0 0 11.1937 0 25C0 38.8062 11.1937 50 25 50C38.8062 50 50 38.8062 50 25C50 11.1937 38.8062 0 25 0Z" fill="#222831"/>
<path d="M25 31.25C21.5542 31.25 18.75 28.4458 18.75 25C18.75 21.5542 21.5542 18.75 25 18.75C28.4458 18.75 31.25 21.5542 31.25 25C31.25 28.4458 28.4458 31.25 25 31.25ZM25 20.8333C22.7021 20.8333 20.8333 22.7021 20.8333 25C20.8333 27.2958 22.7021 29.1667 25 29.1667C27.3 29.1667 29.1667 27.3 29.1667 25C29.1667 22.7021 27.3 20.8333 25 20.8333Z" fill="#222831"/>
<path d="M12.5 38.7167C12.2354 38.7167 11.9688 38.6146 11.7646 38.4125C11.3563 38.0125 11.3542 37.3479 11.7604 36.9396L36.7604 11.7667C37.1688 11.3604 37.8292 11.3584 38.2375 11.7625C38.6438 12.1688 38.6458 12.8271 38.2417 13.2375L13.2417 38.4104C13.0354 38.6146 12.7667 38.7167 12.5 38.7167Z" fill="#222831"/>
<path d="M38.5416 19.7917C37.9687 19.7917 37.4999 19.3251 37.4999 18.7501V12.5001H31.2499C30.677 12.5001 30.2083 12.0334 30.2083 11.4584C30.2083 10.8834 30.677 10.4167 31.2499 10.4167H38.5416C39.1145 10.4167 39.5833 10.8834 39.5833 11.4584V18.7501C39.5833 19.3251 39.1145 19.7917 38.5416 19.7917Z" fill="#222831"/>
</svg>
