<svg width="50" height="50" viewBox="0 0 50 50" fill="none" xmlns="http://www.w3.org/2000/svg">
<path d="M50 25C50 11.25 38.75 0 25 0C11.25 0 0 11.25 0 25C0 32.7083 3.54167 39.5833 9.0625 44.1667C9.0625 44.1667 9.0625 44.1667 9.0625 44.2708C13.4375 47.8125 18.9583 50 25 50C31.0417 50 36.5625 47.8125 40.9375 44.2708C46.4583 39.5833 50 32.7083 50 25ZM2.08333 25C2.08333 12.3958 12.3958 2.08333 25 2.08333C37.6042 2.08333 47.9167 12.3958 47.9167 25C47.9167 31.6667 45 37.7083 40.5208 41.875C36.7708 37.1875 31.0417 34.375 25 34.375C18.9583 34.375 13.2292 37.1875 9.47917 41.875C5 37.7083 2.08333 31.6667 2.08333 25ZM11.1458 43.2292C14.4792 38.9583 19.5833 36.4583 25 36.4583C30.4167 36.4583 35.5208 38.9583 38.8542 43.2292C35 46.1458 30.2083 47.9167 25 47.9167C19.7917 47.9167 15 46.1458 11.1458 43.2292Z" fill="#222831"/>
<path d="M24.9999 8.33341C24.3749 8.33341 23.9583 7.91675 23.9583 7.29175V5.20841C23.9583 4.58341 24.3749 4.16675 24.9999 4.16675C25.6249 4.16675 26.0416 4.58341 26.0416 5.20841V7.29175C26.0416 7.91675 25.6249 8.33341 24.9999 8.33341Z" fill="#222831"/>
<path d="M16.0418 10.6249C15.7293 10.6249 15.3126 10.4165 15.1043 10.104L14.0626 8.33319C13.7501 7.81235 13.9584 7.18735 14.4793 6.87485C15.0001 6.56235 15.6251 6.77069 15.9376 7.29152L16.9793 9.06235C17.2918 9.58319 17.0834 10.2082 16.5626 10.5207C16.3543 10.5207 16.2501 10.6249 16.0418 10.6249Z" fill="#222831"/>
<path d="M9.37509 16.9791C9.16676 16.9791 9.06259 16.9791 8.85426 16.8749L7.08343 15.8333C6.56259 15.5208 6.45843 14.8958 6.66676 14.3749C6.87509 13.8541 7.60426 13.7499 8.12509 13.9583L9.89593 14.9999C10.4168 15.3124 10.5209 15.9374 10.3126 16.4583C10.1043 16.8749 9.79176 16.9791 9.37509 16.9791Z" fill="#222831"/>
<path d="M7.29175 26.0416H5.20841C4.58341 26.0416 4.16675 25.6249 4.16675 24.9999C4.16675 24.3749 4.58341 23.9583 5.20841 23.9583H7.29175C7.91675 23.9583 8.33341 24.3749 8.33341 24.9999C8.33341 25.6249 7.91675 26.0416 7.29175 26.0416Z" fill="#222831"/>
<path d="M44.7917 26.0416H42.7084C42.0834 26.0416 41.6667 25.6249 41.6667 24.9999C41.6667 24.3749 42.0834 23.9583 42.7084 23.9583H44.7917C45.4167 23.9583 45.8334 24.3749 45.8334 24.9999C45.8334 25.6249 45.4167 26.0416 44.7917 26.0416Z" fill="#222831"/>
<path d="M40.2083 17.0834C39.8958 17.0834 39.4792 16.8751 39.2709 16.5626C38.9584 16.0418 39.1667 15.4168 39.6875 15.1043L41.4583 14.0626C41.9792 13.7501 42.6042 13.9584 42.9167 14.4793C43.2292 15.0001 43.0208 15.6251 42.5 15.9376L40.7292 16.9793C40.625 16.9793 40.4167 17.0834 40.2083 17.0834Z" fill="#222831"/>
<path d="M33.6458 10.5208C33.4374 10.5208 33.3333 10.5208 33.1249 10.4166C32.6041 10.1041 32.4999 9.4791 32.7083 8.95826L33.7499 7.18743C34.0624 6.6666 34.6874 6.56243 35.2083 6.77076C35.7291 7.08326 35.8333 7.70826 35.6249 8.2291L34.5833 9.99993C34.2708 10.3124 33.9583 10.5208 33.6458 10.5208Z" fill="#222831"/>
<path d="M36.7709 18.1249C36.4584 17.6041 35.8334 17.4999 35.3126 17.7083L27.5001 22.1874C26.8751 21.6666 26.0417 21.2499 25.1042 21.2499C23.0209 21.2499 21.3542 22.9166 21.3542 24.9999C21.3542 27.0833 23.0209 28.7499 25.1042 28.7499C27.1876 28.7499 28.8542 27.0833 28.8542 24.9999C28.8542 24.5833 28.7501 24.2708 28.6459 23.9583L36.3542 19.4791C36.8751 19.2708 37.0834 18.6458 36.7709 18.1249ZM25.1042 26.7708C24.1667 26.7708 23.4376 26.0416 23.4376 25.1041C23.4376 24.1666 24.1667 23.4374 25.1042 23.4374C26.0417 23.4374 26.7709 24.1666 26.7709 25.1041C26.7709 26.0416 26.0417 26.7708 25.1042 26.7708Z" fill="#222831"/>
</svg>
