<svg width="51" height="36" viewBox="0 0 51 36" fill="none" xmlns="http://www.w3.org/2000/svg">
<path d="M50.2 0.3C50 0.1 49.7 0 49.5 0H37C36.7 0 36.5 0.1 36.3 0.3C36.1 0.5 35.9 0.8 35.9 1V8.6H24.5C24.2 8.6 24 8.7 23.8 8.9C23.6 9.1 23.5 9.4 23.5 9.6V17.2H12.8C12.5 17.2 12.3 17.3 12.1 17.5C11.9 17.7 11.8 18 11.8 18.2V25H1C0.7 25 0.5 25.1 0.3 25.3C0.1 25.5 0 25.8 0 26V34.6C0 34.9 0.1 35.1 0.3 35.3C0.5 35.5 0.8 35.6 1 35.6H49.4C49.7 35.6 49.9 35.5 50.1 35.3C50.3 35.1 50.4 34.8 50.4 34.6V1C50.5 0.8 50.4 0.5 50.2 0.3ZM2.1 33.6V27.1H12.8C13.1 27.1 13.3 27 13.5 26.8C13.7 26.6 13.8 26.3 13.8 26.1V19.3H24.5C24.8 19.3 25 19.2 25.2 19C25.4 18.8 25.5 18.5 25.5 18.3V10.7H37C37.3 10.7 37.5 10.6 37.7 10.4C37.9 10.2 38 9.9 38 9.6V2.1H48.4V33.6H2.1Z" fill="#222831"/>
</svg>
