<svg width="50" height="50" viewBox="0 0 50 50" fill="none" xmlns="http://www.w3.org/2000/svg">
<path d="M25 1.875C37.7513 1.875 48.125 12.2487 48.125 25C48.125 37.7513 37.7513 48.125 25 48.125C12.2487 48.125 1.875 37.7513 1.875 25C1.875 12.2487 12.2487 1.875 25 1.875ZM25 0C11.1925 0 0 11.1925 0 25C0 38.8075 11.1925 50 25 50C38.8075 50 50 38.8075 50 25C50 11.1925 38.8075 0 25 0Z" fill="#222831"/>
<path d="M20.625 20.4849C21.4975 20.4849 22.3694 20.8167 23.0338 21.4811C23.1556 21.603 23.1556 21.8011 23.0338 21.923C22.9119 22.0449 22.7138 22.0449 22.5919 21.923C21.5075 20.8392 19.7431 20.8386 18.6588 21.923C18.5369 22.0449 18.3381 22.0449 18.2169 21.923C18.095 21.8011 18.095 21.6024 18.2169 21.4811C18.8806 20.8174 19.7525 20.4849 20.625 20.4849Z" fill="#222831"/>
<path d="M34.6875 19.8599C34.9369 19.8599 35.1725 19.9574 35.3506 20.1342C35.7569 20.5405 36.2994 20.7642 36.8756 20.7642C37.4519 20.7642 37.9937 20.5405 38.3994 20.1342C38.5762 19.9574 38.8119 19.8599 39.0631 19.8599C39.3144 19.8599 39.5494 19.958 39.7269 20.1355C39.9025 20.3124 40 20.548 40 20.7992C40 21.0499 39.9019 21.2849 39.7244 21.4617C38.965 22.2211 37.9531 22.6399 36.875 22.6399C35.7969 22.6399 34.785 22.2211 34.0237 21.4605C33.6581 21.0949 33.6581 20.5005 34.0237 20.1349C34.2019 19.958 34.4375 19.8599 34.6875 19.8599Z" fill="#222831"/>
<path d="M18.4376 19.8599C18.6876 19.8599 18.9232 19.9574 19.1007 20.1342C19.5069 20.5405 20.0501 20.7642 20.6251 20.7642C21.2019 20.7642 21.7432 20.5405 22.1494 20.1342C22.3263 19.9574 22.5619 19.8599 22.8126 19.8599C23.0638 19.8599 23.2994 19.958 23.4763 20.1355C23.6526 20.3117 23.7501 20.548 23.7501 20.7992C23.7494 21.0499 23.6519 21.2849 23.4744 21.4617C22.7151 22.2211 21.7032 22.6399 20.6251 22.6399C19.5469 22.6399 18.5351 22.2211 17.7744 21.4605C17.4082 21.0949 17.4082 20.5005 17.7744 20.1349C17.9519 19.958 18.1876 19.8599 18.4376 19.8599Z" fill="#222831"/>
<path d="M32.5 38.75H25.625C25.1069 38.75 24.6875 38.33 24.6875 37.8125C24.6875 37.295 25.1069 36.875 25.625 36.875H32.5C33.0175 36.875 33.4375 37.295 33.4375 37.8125C33.4375 38.33 33.0175 38.75 32.5 38.75Z" fill="#222831"/>
</svg>
