<svg width="40" height="50" viewBox="0 0 40 50" fill="none" xmlns="http://www.w3.org/2000/svg">
<path d="M19.8869 0C9.13671 0 0.274673 8.0691 0.000551439 18.1463C-0.00419102 18.2985 0.0216956 18.4501 0.0766747 18.5921C0.131654 18.7341 0.214604 18.8636 0.3206 18.9729C0.426595 19.0822 0.553475 19.1691 0.693705 19.2284C0.833934 19.2877 0.984654 19.3182 1.13692 19.3182H18.7506V45.4545C18.7506 46.7333 17.7566 47.7273 16.4778 47.7273C15.1991 47.7273 14.2051 46.7333 14.2051 45.4545C14.2072 45.304 14.1794 45.1545 14.1233 45.0147C14.0671 44.875 13.9837 44.7478 13.878 44.6406C13.7723 44.5333 13.6463 44.4482 13.5074 44.39C13.3684 44.3319 13.2193 44.302 13.0687 44.302C12.9181 44.302 12.769 44.3319 12.6301 44.39C12.4912 44.4482 12.3652 44.5333 12.2595 44.6406C12.1537 44.7478 12.0704 44.875 12.0142 45.0147C11.9581 45.1545 11.9302 45.304 11.9324 45.4545C11.9324 47.9531 13.9793 50 16.4778 50C18.9764 50 21.0233 47.9531 21.0233 45.4545V19.3182H38.6369C38.7892 19.3182 38.9399 19.2877 39.0801 19.2284C39.2204 19.1691 39.3472 19.0822 39.4532 18.9729C39.5592 18.8636 39.6422 18.7341 39.6972 18.5921C39.7521 18.4501 39.778 18.2985 39.7733 18.1463C39.4992 8.0691 30.6371 0 19.8869 0ZM19.8869 2.27273C29.0692 2.27273 36.4752 8.81551 37.3407 17.0455H2.43308C3.29865 8.81551 10.7046 2.27273 19.8869 2.27273Z" fill="#222831"/>
</svg>
