<?xml version="1.0" encoding="utf-8"?>
<!-- Generator: Adobe Illustrator 26.3.1, SVG Export Plug-In . SVG Version: 6.00 Build 0)  -->
<svg version="1.1" id="Layer_1" xmlns="http://www.w3.org/2000/svg" xmlns:xlink="http://www.w3.org/1999/xlink" x="0px" y="0px"
	 viewBox="0 0 512 512" style="enable-background:new 0 0 512 512;" xml:space="preserve">
<style type="text/css">
	.st0{fill:#F26A21;}
	.st1{fill:#F2F2F2;}
</style>
<g>
	<rect class="st0" width="512" height="512"/>
</g>
<g>
	<path class="st1" d="M155.5,415.1c-23.4-14.1-35.1-33.3-35.1-57.7c0-11.7,4.9-20.9,14.8-27.6c9.9-6.7,23.8-10.2,41.9-10.5
		c2,19.8,9.6,35,22.8,45.7c13.2,10.7,31,16.1,53.5,16.1c41.2,0,61.7-15.2,61.7-45.7c0-12-5.6-21.9-16.8-29.6
		c-11.2-7.7-30.7-15.6-58.5-23.6c-39.5-11-68.4-25.2-86.8-42.4c-18.4-17.2-27.6-39.4-27.6-66.5c0-30.4,11.8-54.5,35.4-72
		c23.6-17.6,55.8-26.4,96.6-26.4c32.8,0,60.9,7.8,84.3,23.3c23.4,15.6,39.5,37.2,48.2,65c-5.7,5.7-13.6,10.7-23.6,15.1
		c-10,4.4-18.9,6.5-26.6,6.5c-6,0-10.7-1.3-14.1-3.8c-3.3-2.5-6.9-7.3-10.5-14.3c-6.7-13.1-14.4-22.4-23.1-28.1
		c-8.7-5.7-20.3-8.5-34.6-8.5c-35.8,0-53.7,11.9-53.7,35.6c0,9.4,1.8,17,5.5,22.8c3.7,5.9,10,11.2,19.1,16.1
		c9,4.9,22.8,10.3,41.2,16.3c33.5,11,59.1,21.2,76.8,30.4c17.7,9.2,30.2,19.2,37.4,29.9c7.2,10.7,10.8,23.9,10.8,39.7
		c0,22.8-5.9,42.8-17.8,60.2c-11.9,17.4-28.5,31-49.9,40.7c-21.4,9.7-46.2,14.6-74.3,14.6C211.2,436.1,178.9,429.1,155.5,415.1z"/>
</g>
</svg>
