<?xml version="1.0" standalone="no"?>
<!DOCTYPE svg PUBLIC "-//W3C//DTD SVG 20010904//EN"
 "http://www.w3.org/TR/2001/REC-SVG-20010904/DTD/svg10.dtd">
<svg version="1.0" xmlns="http://www.w3.org/2000/svg"
 width="700.000000pt" height="700.000000pt" viewBox="0 0 700.000000 700.000000"
 preserveAspectRatio="xMidYMid meet">
<metadata>
Created by potrace 1.14, written by Peter Selinger 2001-2017
</metadata>
<g transform="translate(0.000000,700.000000) scale(0.100000,-0.100000)"
fill="#000000" stroke="none">
<path d="M0 3500 l0 -3500 3500 0 3500 0 0 3500 0 3500 -3500 0 -3500 0 0
-3500z m3880 2455 c633 -98 1105 -425 1354 -936 29 -59 63 -139 77 -179 l24
-72 -47 -42 c-70 -62 -190 -131 -314 -181 -229 -92 -406 -99 -524 -21 -39 26
-98 109 -184 259 -93 163 -204 281 -325 346 -132 70 -340 101 -556 82 -226
-19 -366 -67 -467 -160 -97 -88 -134 -199 -125 -366 10 -190 72 -304 222 -410
130 -92 323 -174 754 -320 1283 -433 1627 -719 1625 -1350 0 -158 -12 -262
-45 -385 -66 -252 -190 -464 -384 -655 -122 -120 -250 -210 -425 -298 -221
-112 -456 -181 -740 -219 -126 -17 -579 -17 -740 0 -678 71 -1140 306 -1329
676 -68 134 -104 341 -82 471 42 241 264 396 623 435 155 16 158 16 158 -22 0
-47 36 -189 67 -266 93 -233 280 -402 536 -486 126 -41 257 -59 432 -59 455 0
713 128 807 400 20 58 23 88 23 203 l0 136 -38 76 c-66 134 -194 233 -440 340
-104 44 -270 101 -722 243 -236 75 -327 111 -520 205 -505 246 -768 555 -846
990 -18 98 -18 382 0 480 44 243 151 451 321 620 280 279 703 445 1230 484
123 9 498 -3 600 -19z"/>
</g>
</svg>
