<svg width="60" height="52" viewBox="0 0 60 52" fill="none" xmlns="http://www.w3.org/2000/svg"><path d="M13.448 44.767h-6.26l-1.163 2.918H1.29l6.197-16.27c.124-.328.345-.61.632-.81.287-.2.628-.307.977-.307h3.705l6.492 17.387h-4.785l-1.06-2.918Zm-1.19-3.44-1.94-5.63-1.885 5.63h3.825Zm7.334 3.929V30.3h5.867c1.734 0 4.63.234 6.855 2.398 2.017 1.955 2.405 4.458 2.405 6.334 0 2.294-.569 4.327-2.25 6.022-1.371 1.381-3.671 2.63-6.622 2.63h-3.846a2.403 2.403 0 0 1-1.703-.713 2.44 2.44 0 0 1-.706-1.716Zm4.475-1.4h.905c1.087 0 2.612-.105 3.777-1.251.569-.548 1.319-1.642 1.319-3.572 0-1.616-.492-2.998-1.345-3.806-1.061-.99-2.457-1.094-3.57-1.094h-1.086v9.722Zm10.661 3.829 2.923-17.386h4.423l3.492 7.824 3.699-7.824h2.994c.413 0 .812.149 1.125.42.313.272.519.647.58 1.059l2.363 15.907H51.85l-1.267-10.01-3.94 7.223a1.225 1.225 0 0 1-1.053.61 1.213 1.213 0 0 1-1.053-.61l-3.882-7.217-1.479 10.004h-4.449Z" fill="#494949"/><path d="M50.283 4.315H31.29c-8.12 0-15.036 3.702-17.878 11.206l-3.753 9.902c-.241.637.259 1.35.948 1.35h19.3c8.062 0 15.103-4.82 17.926-12.271l3.54-8.638c.273-.73-.298-1.549-1.09-1.549Zm-6.026 8.607c-2.3 6.072-8.034 9.996-14.603 9.996H16.597a15.784 15.784 0 0 1 5.377-4.012 15.671 15.671 0 0 1 6.544-1.405h2.644c2.115 0 5.069-1.246 5.843-3.861h-8.688a19.374 19.374 0 0 0-11.394 3.641l.082-.216c2.31-6.099 7.894-8.89 14.489-8.89h14.828l-2.065 4.747Z" fill="#959595"/><path d="M57.601 31.347a.19.19 0 0 0-.089-.18.39.39 0 0 0-.173-.026h-.182v.418h.24a.196.196 0 0 0 .15-.055.215.215 0 0 0 .054-.157Zm.077.425.302.56a.047.047 0 0 1 0 .046.04.04 0 0 1-.04.023h-.221a.041.041 0 0 1-.041-.025l-.287-.543h-.23v.52a.046.046 0 0 1-.002.02.046.046 0 0 1-.026.025.046.046 0 0 1-.018.003h-.198a.047.047 0 0 1-.034-.013.045.045 0 0 1-.014-.035v-1.435a.044.044 0 0 1 .014-.034.046.046 0 0 1 .034-.014h.434a.835.835 0 0 1 .281.036.39.39 0 0 1 .198.162c.049.08.075.174.073.268a.48.48 0 0 1-.064.246.395.395 0 0 1-.17.163l.009.027Zm-.293-1.23c-.146 0-.29.03-.423.088a1.08 1.08 0 0 0-.578.582 1.09 1.09 0 0 0 0 .852 1.084 1.084 0 0 0 2.089-.426c0-.146-.03-.291-.087-.426a1.076 1.076 0 0 0-.579-.582 1.044 1.044 0 0 0-.422-.09v.003Zm1.324 1.096c0 .178-.036.355-.105.519a1.305 1.305 0 0 1-.705.71 1.297 1.297 0 0 1-1.028 0 1.325 1.325 0 0 1-.422-.284 1.363 1.363 0 0 1-.387-.944 1.339 1.339 0 0 1 .81-1.23 1.311 1.311 0 0 1 1.027 0 1.3 1.3 0 0 1 .705.712c.07.162.105.337.105.514v.003Z" fill="#494949"/></svg>