<svg width="150" height="52" viewBox="0 0 150 52" fill="none" xmlns="http://www.w3.org/2000/svg"><path d="m14.957 20.057 4.6 8.366-9.92 16.5H0l14.957-24.866ZM23.617 6l-5.447 9.38 9.894 18.006-4.19 2.858-1.31-2.417-3.444 5.69h12.285L34.412 45H45L23.618 6Z" fill="#959595"/><path d="m66.049 18.71-1.443 5.56h-3.333l-1.194 4.9 3.233.076-2.338 11.148-.074.46.025.459.099.433.15.434.223.408.299.357.348.358.373.306.423.306.472.255.473.23.547.153.547.178.548.102.572.051.572.026h3.507l1.393-5.077-1.84-.638-.25-.102-.198-.153-.15-.204-.099-.23-.075-.255v-.255l.075-.255.1-.306L70.8 29.45h3.308l1.07-4.848H71.77l1.293-5.893H66.05ZM53.66 17l-6.044 27.935h7.86L61.323 17H53.66Zm-9.527.026L41 30.928l5.224 9.67 5.174-23.548h-7.264v-.025Zm35.969 15.868h8.034s-.298-3.164-3.905-3.24c-3.607-.077-4.13 3.24-4.13 3.24Zm-6.542-1.48s2.238-6.48 10.745-7.016c0 0 5.647-.23 8.408 3.393 0 0 2.189 1.94 2.164 6.914 0 0-.075 1.403-.224 1.939l-15.074-.026s-.298 2.832 4.478 3.24c0 0 1.641.026 2.562-.382 0 0 1.12-.255 1.144-.919l6.368-.076s-.622 2.832-3.731 4.72c0 0-3.234 2.091-7.686 1.709 0 0-4.602.076-7.065-1.94 0 0-3.134-2.066-3.084-7.398 0 0 .248-2.755.995-4.158Zm45.346.383c-.398-4.21-4.204-6.149-4.204-6.149-2.189-1.403-6.243-1.352-6.243-1.352-4.353.204-6.368 1.735-6.368 1.735-4.602 2.73-5.721 7.322-5.721 7.322s-1.045 4.082.82 7.169c1.866 3.087 5.274 3.903 5.274 3.903s3.01.919 6.243.434c3.234-.485 5.124-1.378 7.015-3.52 1.89-2.144 2.413-5.154 2.413-5.154h-6.542c-.075.383-.697 1.377-.697 1.377-.622 1.378-2.786 2.373-4.353 2.092-1.567-.255-2.313-1.02-2.313-1.02-1.343-1.454-.97-3.776-.97-3.776.074-1.097.771-3.163 2.239-4.54 1.442-1.379 3.233-1.328 4.676-.69 1.642.74 1.89 2.985 1.89 2.985h6.916l-.075-.816Zm10.198.536s.672-1.353 2.364-1.659c1.567-.28 2.288.153 2.537.28 0 0 .447.18.572.766.025.128.05.332.025.536l-2.264 12.654h7.711l2.338-15.715.025-.307-.025-.331-.099-.332-.124-.357-.199-.357-.224-.357-.249-.357-.323-.332-.374-.332-.422-.331-.473-.256-.522-.255-.548-.204-.622-.153-.646-.102-.722-.025h-1.318l-.448.025-.472.077-.473.076-.473.102-.447.102-.473.102-.448.153-.423.128-.422.204-.349.204-.398.204-.273.179-.299.255L131.767 17h-7.786l-5.621 27.91h7.91l2.462-11.608c.025 0 .15-.714.373-.97Zm16.641-8.827h.473c.522 0 .995-.205.995-.715 0-.357-.249-.714-.995-.714-.199 0-.348.025-.473.025v1.404Zm0 2.296h-.646v-4.133c.348-.051.671-.102 1.144-.102.622 0 1.02.127 1.244.306.248.178.373.459.373.867 0 .536-.348.868-.796.995v.026c.348.076.597.408.671.995.1.637.199.892.249 1.02h-.647c-.099-.128-.199-.51-.273-1.046-.1-.536-.348-.74-.871-.74h-.448v1.812Zm.672-5.307c-1.592 0-2.885 1.403-2.885 3.138 0 1.76 1.293 3.138 2.91 3.138 1.617.026 2.885-1.378 2.885-3.138 0-1.735-1.293-3.138-2.91-3.138Zm.025-.561c1.965 0 3.557 1.658 3.557 3.699 0 2.092-1.567 3.725-3.557 3.725-1.965 0-3.582-1.633-3.582-3.725-.025-2.066 1.567-3.7 3.582-3.7Z" fill="#494949"/></svg>