<svg width="175" height="52" viewBox="0 0 175 52" fill="none" xmlns="http://www.w3.org/2000/svg"><path fill-rule="evenodd" clip-rule="evenodd" d="M0 13h15.841s3.816 2.986 3.816 6.635c0 5.64-8.626 8.709-8.626 15.26 0 .25.166 1.328.166 1.66 0 3.151 3.567 9.206 5.142 11.445H0V13Z" fill="#494949"/><path fill-rule="evenodd" clip-rule="evenodd" d="M34.834 13v35H25.38c-3.815-2.82-6.967-8.626-6.967-12.44 0-7.548 6.138-7.216 6.138-14.847 0-2.405-2.323-5.888-3.65-7.713h13.934Z" fill="#959595"/><path fill-rule="evenodd" clip-rule="evenodd" d="M56.217 29.501c1.833-.997 2.75-2.5 2.75-4.998 0-2.5-.917-4-2.75-5.001-.919 0-1.835-.5-3.67-.5-.918 0-1.376 0-1.834.5v10.5c2.293 0 4.126 0 5.504-.5Zm-12.383 13.5c1.376 0 2.293-.5 2.293-1.002.458-.496.458-1.5.458-2.998v-17c0-1.5 0-2.5-.458-3s-.917-.5-2.293-.5V17.5h10.088c1.835 0 3.668.5 5.044 1 2.752 1.002 4.126 3.002 4.126 6.002 0 2-.918 3.5-1.834 4.5-1.375.998-2.751 1.997-5.043 1.997l7.794 9.998 1.376 1.5c.459 0 .918.5 1.835.5v.5h-5.96l-8.713-11.998h-1.834v8c0 1.498 0 2.497.457 2.497.458.5 1.376 1.001 2.752 1.001v.5H43.834V43Zm23.844 0c1.377 0 2.293-.5 2.753-.5.458-.5.916-1.5.916-2.998v-17.5c0-1.5-.458-2.5-.916-3-.459-.502-1.375-.5-2.753-.5V17.5h10.547v1.001c-1.375 0-2.292 0-2.751.5-.46.5-.459 1.5-.459 3.001v17.5c0 1.497 0 2.496.459 2.998.458 0 1.374.5 2.75.5v.499H67.679V43Zm19.72-1h1.833c2.751 0 5.044-.497 6.879-1.5 2.75-1.998 4.126-4.999 4.126-9.499 0-4.497-.918-7.498-3.21-9.498-1.834-1.501-4.586-2.5-7.796-2.5-.917 0-1.375 0-1.834.5-.46 0-.46.499-.46 1v19.998c.002 1 .002 1 .462 1.499Zm-7.337 1c1.376 0 2.293-.5 2.75-1.002.46 0 .46-1 .46-2.496v-17.5c0-1.5 0-2.5-.46-3-.457-.502-1.374-.5-2.75-.5V17.5h9.63c3.669 0 6.42.5 8.713 2 4.126 2.001 5.961 5.502 5.961 11 0 2-.459 4-.917 6-.918 1.501-1.835 3.002-3.67 4.498-.917.502-1.834 1-2.75 1.5C95.193 43.5 92.9 43.5 90.148 43.5H80.062V43Zm25.219 0c1.376 0 2.293-.5 2.752-1.002.459 0 .459-1 .459-2.496v-17.5c0-1.5 0-2.5-.459-3s-1.376-.5-2.752-.5V17.5h10.088v1.001c-.917 0-1.833 0-2.291.5-.459.5-.918 1.5-.918 2.5v18.997c0 .5 0 1.002.458 1.002 0 .497.458.497.918.497h2.293c3.209 0 5.502 0 6.42-.497 1.375-1.002 2.293-2.5 3.668-4.5h.918l-1.835 6.499H105.28V43Z" fill="#494949"/><path fill-rule="evenodd" clip-rule="evenodd" d="M126.834 42.999c1.411 0 1.883-.5 2.353-1.001.471 0 .941-1 .941-2.497V22.003c0-1.5-.47-2.5-.941-3.001-.472-.5-.942-.5-2.353-.5v-1H146.6v5.5h-.942c-.47-1.5-.942-2.5-1.412-3-.471-.502-1.883-1.002-4.235-1.002h-5.175c-.472 0-.942 0-.942.5v9.503h5.647c1.411 0 2.351 0 2.823-.5s.942-1.504 1.413-3.001h.47V34.5h-.47c-.471-1.5-.943-2.5-1.413-3-.47-.502-1.412-.5-2.823-.5h-5.647v9.498c0 1.002 0 1.5.47 1.5h4.236c2.352 0 4.234 0 5.647-.497.942-1.002 2.353-2 3.295-4.5h.942l-1.882 6.499h-19.768v-.501Zm32.943-24.495h-1.883c-.47 0-.47.5-.47 1v.5c0 .5 0 1.001.47 1.001l5.178 8.998 5.646-8.998c0-.5.47-.5.47-1v-.5c0-.5-.47-1.001-.942-1.001h-1.883v-1h8.471v1c-.942 0-1.413 0-2.353.5-.939.5-1.88 2-2.822 4l-5.649 8.498v8c0 1.498.471 2.497.942 2.999.471 0 1.413.5 2.825.5v.499h-11.294V43c1.883 0 2.825-.5 3.296-1 .47 0 .47-1.501.47-2.998V32l-4.708-7.497c-1.883-2.5-2.825-4.5-3.763-5.001-.47-1.001-1.412-1.001-2.353-1.001V17.5h10.352v1.004Z" fill="#494949"/></svg>