<svg width="24" height="24" viewBox="0 0 24 24" fill="none" xmlns="http://www.w3.org/2000/svg"><path d="M6.673 6.063 C 6.312 6.174,6.000 6.609,6.000 7.000 C 6.000 7.237,6.120 7.514,6.303 7.697 C 6.622 8.016,6.390 8.000,10.737 8.000 L 14.579 8.000 10.353 12.230 C 6.232 16.354,6.125 16.465,6.063 16.677 C 5.984 16.948,5.984 17.052,6.061 17.310 C 6.144 17.589,6.411 17.856,6.690 17.939 C 6.948 18.016,7.052 18.016,7.323 17.937 C 7.535 17.875,7.646 17.768,11.770 13.647 L 16.000 9.421 16.000 13.263 C 16.000 17.610,15.984 17.378,16.303 17.697 C 16.486 17.880,16.763 18.000,17.000 18.000 C 17.402 18.000,17.827 17.688,17.939 17.310 C 17.992 17.132,18.000 16.454,18.000 12.000 C 18.000 6.243,18.020 6.627,17.697 6.303 C 17.373 5.979,17.760 6.000,11.983 6.003 C 7.642 6.005,6.831 6.014,6.673 6.063 " stroke="none" fill-rule="evenodd" fill="black"></path></svg>