<svg width="26" height="26" viewBox="0 0 26 26" fill="none" xmlns="http://www.w3.org/2000/svg"><path d="M12.133 0.027 C 8.317 0.312,4.892 2.170,2.609 5.193 C 1.292 6.937,0.480 8.904,0.118 11.223 C -0.014 12.072,-0.014 13.928,0.118 14.777 C 0.674 18.344,2.397 21.268,5.192 23.389 C 6.918 24.699,8.907 25.521,11.223 25.882 C 12.072 26.014,13.928 26.014,14.777 25.882 C 17.936 25.389,20.622 23.965,22.637 21.713 C 24.423 19.717,25.456 17.510,25.882 14.777 C 26.014 13.928,26.014 12.072,25.882 11.223 C 25.521 8.907,24.699 6.918,23.389 5.192 C 21.240 2.359,18.167 0.577,14.625 0.108 C 14.118 0.040,12.610 -0.008,12.133 0.027 M13.582 6.648 C 13.851 6.780,14.055 6.992,14.187 7.278 C 14.277 7.472,14.278 7.517,14.278 10.400 L 14.278 13.325 14.157 13.573 C 14.010 13.871,13.761 14.095,13.446 14.213 C 12.829 14.444,12.135 14.167,11.843 13.573 L 11.722 13.325 11.708 10.530 C 11.699 8.599,11.709 7.666,11.742 7.513 C 11.919 6.698,12.819 6.275,13.582 6.648 M13.477 16.318 C 13.966 16.429,14.505 16.843,14.726 17.276 C 15.009 17.830,15.025 18.492,14.768 19.033 C 14.525 19.543,14.140 19.883,13.599 20.066 C 13.375 20.142,13.251 20.156,12.913 20.142 C 12.546 20.127,12.466 20.108,12.172 19.965 C 11.587 19.682,11.179 19.136,11.081 18.503 C 10.958 17.703,11.360 16.880,12.058 16.507 C 12.535 16.253,12.947 16.198,13.477 16.318 " fill="#1C49C2" stroke="none" fill-rule="evenodd"></path></svg>