<svg width="40" height="40" viewBox="0 0 40 40" fill="none" xmlns="http://www.w3.org/2000/svg"><path d="M18.733 0.039 C 16.229 0.255,14.302 0.712,12.247 1.577 C 8.620 3.105,5.546 5.646,3.352 8.933 C 0.557 13.121,-0.558 18.295,0.270 23.245 C 1.583 31.099,7.371 37.410,15.055 39.368 C 23.304 41.469,31.922 38.156,36.646 31.067 C 39.448 26.863,40.558 21.708,39.730 16.755 C 38.772 11.028,35.409 6.015,30.492 2.984 C 28.095 1.508,25.371 0.547,22.500 0.167 C 21.734 0.065,19.362 -0.015,18.733 0.039 M28.896 13.228 C 29.592 13.569,29.963 14.184,29.965 15.000 C 29.968 15.911,30.223 15.616,24.352 21.476 C 19.356 26.462,19.081 26.725,18.714 26.859 C 18.224 27.038,17.775 27.038,17.286 26.859 C 16.924 26.726,16.701 26.519,13.647 23.475 C 9.978 19.818,10.032 19.885,10.035 19.000 C 10.038 17.854,10.844 17.033,11.967 17.033 C 12.858 17.033,12.816 17.001,15.551 19.724 L 18.001 22.164 22.417 17.756 C 24.846 15.332,26.908 13.309,27.000 13.262 C 27.604 12.952,28.305 12.939,28.896 13.228 " fill="#1BD679" stroke="none" fill-rule="evenodd"></path></svg>