<svg width="24" height="24" viewBox="0 0 24 24" fill="none" xmlns="http://www.w3.org/2000/svg"><path d="M19.193 4.917 C 18.856 5.026,18.775 5.116,14.594 9.993 L 10.431 14.850 8.165 12.587 C 6.434 10.856,5.858 10.304,5.720 10.243 C 5.449 10.121,5.037 10.130,4.770 10.263 C 4.384 10.455,4.146 10.836,4.147 11.260 C 4.147 11.744,4.049 11.630,7.111 14.687 C 10.173 17.743,10.033 17.623,10.520 17.618 C 10.745 17.615,11.064 17.501,11.215 17.368 C 11.258 17.331,13.354 14.897,15.873 11.960 C 18.799 8.548,20.482 6.555,20.534 6.440 C 20.588 6.319,20.615 6.174,20.616 5.997 C 20.618 5.388,20.175 4.926,19.560 4.895 C 19.417 4.888,19.252 4.898,19.193 4.917 " fill="#04298C" stroke="none" fill-rule="evenodd"></path></svg>