<svg width="44" height="44" viewBox="0 0 44 44" fill="none" xmlns="http://www.w3.org/2000/svg"><path d="M19.837 2.873 C 18.714 2.986,17.042 3.360,15.772 3.783 C 13.004 4.705,10.439 6.291,8.370 8.360 C 5.272 11.458,3.382 15.416,2.856 19.910 C 2.745 20.853,2.745 23.147,2.856 24.090 C 3.541 29.938,6.557 34.892,11.389 38.108 C 12.964 39.156,15.300 40.177,17.222 40.658 C 18.877 41.072,20.196 41.230,22.000 41.230 C 25.121 41.230,27.839 40.600,30.617 39.232 C 36.473 36.348,40.364 30.753,41.144 24.090 C 41.255 23.147,41.255 20.853,41.144 19.910 C 40.359 13.208,36.479 7.651,30.543 4.729 C 28.616 3.780,26.128 3.069,24.022 2.864 C 23.083 2.773,20.781 2.778,19.837 2.873 M24.420 5.687 C 27.211 6.114,29.723 7.190,32.080 8.968 C 32.839 9.541,34.459 11.161,35.032 11.920 C 36.827 14.299,37.881 16.774,38.327 19.656 C 38.507 20.817,38.507 23.183,38.327 24.344 C 37.788 27.828,36.287 30.885,33.889 33.384 C 31.470 35.907,28.469 37.548,25.080 38.201 C 17.917 39.583,10.687 36.027,7.309 29.459 C 6.095 27.098,5.543 24.767,5.543 22.000 C 5.543 20.292,5.651 19.407,6.053 17.841 C 7.040 13.990,9.504 10.554,12.943 8.236 C 15.045 6.819,17.774 5.849,20.423 5.577 C 21.325 5.484,23.483 5.544,24.420 5.687 " fill="white" stroke="none" fill-rule="evenodd"></path></svg>