<svg width="24" height="24" viewBox="0 0 24 24" fill="none" xmlns="http://www.w3.org/2000/svg"><path d="M9.680 2.028 C 8.886 2.160,8.207 2.810,8.044 3.592 C 8.018 3.717,8.000 4.254,8.000 4.899 L 8.000 5.994 6.790 6.009 C 5.679 6.023,5.561 6.032,5.353 6.109 C 4.684 6.358,4.183 6.926,4.044 7.592 C 3.982 7.891,3.982 20.109,4.044 20.408 C 4.201 21.158,4.842 21.799,5.592 21.956 C 5.740 21.987,7.230 22.000,10.514 22.000 C 15.651 22.000,15.426 22.009,15.920 21.772 C 16.230 21.623,16.636 21.206,16.789 20.880 C 16.978 20.478,17.000 20.295,17.000 19.098 L 17.000 18.000 18.112 18.000 C 18.979 18.000,19.276 17.987,19.462 17.939 C 20.217 17.745,20.802 17.145,20.956 16.408 C 20.986 16.262,21.000 15.071,21.000 12.599 L 21.000 9.002 18.070 8.991 L 15.140 8.980 14.880 8.856 C 14.551 8.698,14.304 8.452,14.145 8.120 L 14.020 7.860 14.009 4.930 L 13.998 2.000 11.889 2.005 C 10.729 2.008,9.735 2.018,9.680 2.028 M16.000 4.517 L 16.000 7.000 18.480 7.000 C 19.844 7.000,20.960 6.992,20.960 6.982 C 20.960 6.903,20.764 6.462,20.656 6.300 C 20.584 6.190,19.682 5.261,18.652 4.235 C 16.871 2.461,16.765 2.364,16.480 2.228 C 16.315 2.149,16.140 2.074,16.090 2.060 L 16.000 2.035 16.000 4.517 M8.000 12.098 C 8.000 14.935,8.014 16.261,8.044 16.408 C 8.201 17.158,8.842 17.799,9.592 17.956 C 9.734 17.985,10.660 18.000,12.402 18.000 L 15.000 18.000 15.000 19.000 L 15.000 20.000 10.500 20.000 L 6.000 20.000 6.000 14.000 L 6.000 8.000 7.000 8.000 L 8.000 8.000 8.000 12.098 " fill="white" stroke="none" fill-rule="evenodd"></path></svg>