<svg width="32" height="33" viewBox="0 0 32 33" fill="none" xmlns="http://www.w3.org/2000/svg"><path d="M4.000 16.533 L 4.000 31.200 11.227 31.200 C 15.201 31.200,18.453 31.186,18.453 31.168 C 18.453 31.151,18.308 30.919,18.131 30.654 C 17.532 29.759,17.093 28.716,16.840 27.587 C 16.738 27.133,16.724 26.910,16.725 25.840 C 16.726 24.490,16.783 24.090,17.123 23.075 C 18.343 19.435,21.879 17.010,25.707 17.191 C 26.357 17.221,27.237 17.363,27.747 17.518 L 28.000 17.595 28.000 15.064 L 28.000 12.533 22.667 12.533 L 17.333 12.533 17.333 7.200 L 17.333 1.867 10.667 1.867 L 4.000 1.867 4.000 16.533 M20.000 5.840 L 20.000 9.813 24.000 9.813 L 28.000 9.813 28.000 9.560 L 28.000 9.306 24.280 5.587 L 20.560 1.867 20.280 1.867 L 20.000 1.867 20.000 5.840 M24.000 21.867 L 24.000 24.533 21.333 24.533 L 18.667 24.533 18.667 25.840 L 18.667 27.147 21.333 27.147 L 24.000 27.147 24.000 29.813 L 24.000 32.480 25.333 32.480 L 26.667 32.480 26.667 29.813 L 26.667 27.147 29.333 27.147 L 32.000 27.147 32.000 25.840 L 32.000 24.533 29.333 24.533 L 26.667 24.533 26.667 21.867 L 26.667 19.200 25.333 19.200 L 24.000 19.200 24.000 21.867 " fill="#1C49C2" stroke="none" fill-rule="evenodd"></path></svg>