<svg width="24" height="24" viewBox="0 0 24 24" fill="none" xmlns="http://www.w3.org/2000/svg"><path d="M17.860 3.430 L 17.580 4.460 17.000 5.070 C 16.681 5.405,15.937 6.175,15.346 6.779 L 14.271 7.879 14.422 8.089 C 15.117 9.059,16.253 9.877,17.666 10.423 C 18.075 10.581,18.908 10.840,19.008 10.840 C 19.059 10.840,19.191 10.513,19.309 10.100 C 19.365 9.902,19.414 9.736,19.419 9.730 C 19.423 9.725,19.592 9.757,19.795 9.801 C 20.240 9.898,21.475 10.098,22.000 10.157 C 22.209 10.181,22.460 10.210,22.557 10.221 C 22.712 10.238,22.770 10.220,23.009 10.078 C 23.386 9.854,23.791 9.467,23.906 9.220 C 24.021 8.973,24.024 8.796,23.917 8.575 C 23.814 8.362,23.384 7.893,23.108 7.693 C 22.689 7.390,22.477 7.183,22.381 6.981 C 22.328 6.871,22.222 6.483,22.146 6.120 C 22.070 5.757,21.969 5.356,21.921 5.229 C 21.677 4.585,21.238 4.314,20.020 4.059 C 19.734 3.999,19.473 3.936,19.440 3.918 C 19.407 3.900,19.110 3.552,18.780 3.145 C 18.450 2.737,18.171 2.403,18.160 2.402 C 18.149 2.401,18.014 2.864,17.860 3.430 M10.066 2.561 C 9.830 2.632,9.680 2.852,9.680 3.129 C 9.680 3.344,9.674 3.334,11.289 5.860 C 12.464 7.699,12.553 7.826,12.721 7.912 C 13.215 8.168,13.718 7.701,13.518 7.174 C 13.467 7.040,10.824 2.861,10.704 2.725 C 10.547 2.547,10.313 2.487,10.066 2.561 M0.525 6.364 C 0.118 6.487,-0.094 6.913,0.046 7.324 C 0.155 7.643,0.548 8.147,0.992 8.535 C 1.594 9.063,2.529 9.583,3.380 9.863 L 3.828 10.010 3.811 10.475 C 3.802 10.731,3.771 11.615,3.743 12.440 L 3.692 13.940 2.902 17.160 C 2.045 20.658,2.050 20.629,2.232 20.983 C 2.344 21.200,2.582 21.419,2.820 21.525 C 3.345 21.757,3.958 21.516,4.235 20.969 C 4.276 20.887,4.602 19.587,4.959 18.080 C 5.316 16.573,5.629 15.296,5.654 15.242 C 5.685 15.175,5.748 15.133,5.849 15.112 C 6.044 15.072,6.177 15.126,6.232 15.267 C 6.257 15.329,6.585 16.595,6.962 18.080 C 7.339 19.565,7.672 20.838,7.701 20.908 C 7.779 21.096,8.092 21.391,8.331 21.502 C 8.868 21.752,9.397 21.525,9.670 20.929 C 9.865 20.504,9.863 20.488,9.263 18.076 C 8.964 16.871,8.720 15.809,8.720 15.708 C 8.720 15.508,8.783 15.416,8.948 15.374 C 9.104 15.335,9.716 15.390,10.360 15.500 C 10.679 15.555,11.090 15.612,11.273 15.626 L 11.607 15.652 11.580 15.336 C 11.547 14.940,11.619 13.036,11.701 12.160 C 11.800 11.092,12.041 9.423,12.223 8.530 L 12.250 8.400 8.270 8.400 L 4.290 8.400 3.912 8.304 C 2.929 8.055,2.009 7.464,1.537 6.778 C 1.451 6.654,1.309 6.510,1.221 6.459 C 1.033 6.349,0.717 6.306,0.525 6.364 M13.440 8.898 C 13.440 8.908,13.405 9.101,13.362 9.328 C 13.041 11.011,12.882 12.986,12.878 15.330 L 12.877 16.440 12.398 18.402 C 12.135 19.481,11.920 20.395,11.920 20.432 C 11.922 20.867,12.459 21.352,13.017 21.421 C 13.455 21.476,13.882 21.244,14.050 20.859 C 14.088 20.772,14.327 19.827,14.581 18.760 C 15.147 16.379,15.128 16.446,15.281 16.299 C 15.390 16.194,15.434 16.180,15.638 16.181 C 15.822 16.182,15.904 16.205,16.034 16.291 C 16.124 16.351,16.228 16.445,16.263 16.500 C 16.299 16.555,16.561 17.486,16.845 18.570 C 17.129 19.653,17.388 20.632,17.420 20.744 C 17.538 21.152,17.985 21.420,18.540 21.416 C 19.164 21.412,19.600 21.020,19.600 20.464 C 19.600 20.384,19.394 19.558,19.143 18.629 C 18.071 14.667,17.987 14.328,17.986 13.960 C 17.985 13.647,18.000 13.582,18.177 13.140 C 18.464 12.418,18.605 12.032,18.586 12.013 C 18.577 12.004,18.374 11.945,18.135 11.881 C 16.888 11.552,15.719 10.965,14.768 10.192 C 14.402 9.893,13.836 9.330,13.640 9.069 C 13.518 8.906,13.440 8.840,13.440 8.898 " fill="white" stroke="none" fill-rule="evenodd"></path></svg>