<svg width="44" height="44" viewBox="0 0 44 44" fill="none" xmlns="http://www.w3.org/2000/svg"><path d="M3.814 10.383 C 2.628 10.898,2.638 12.588,3.830 13.086 C 4.073 13.188,6.011 13.200,22.000 13.200 C 37.989 13.200,39.927 13.188,40.170 13.086 C 41.371 12.585,41.371 10.882,40.170 10.380 C 39.927 10.279,37.991 10.267,21.984 10.270 C 6.149 10.272,4.040 10.285,3.814 10.383 M3.814 20.650 C 2.628 21.164,2.638 22.855,3.830 23.353 C 4.073 23.455,6.011 23.467,22.000 23.467 C 37.989 23.467,39.927 23.455,40.170 23.353 C 41.371 22.851,41.371 21.149,40.170 20.647 C 39.927 20.545,37.991 20.534,21.984 20.536 C 6.149 20.539,4.040 20.552,3.814 20.650 M3.814 30.917 C 2.628 31.431,2.638 33.122,3.830 33.620 C 4.073 33.721,6.011 33.733,22.000 33.733 C 37.989 33.733,39.927 33.721,40.170 33.620 C 41.371 33.118,41.371 31.415,40.170 30.914 C 39.927 30.812,37.991 30.800,21.984 30.803 C 6.149 30.805,4.040 30.819,3.814 30.917 " fill="white" stroke="none" fill-rule="evenodd"></path></svg>