<svg width="26" height="22" viewBox="0 0 26 22" fill="none" xmlns="http://www.w3.org/2000/svg"><path d="M6.543 0.062 C 4.346 0.380,2.476 1.782,1.451 3.878 C 0.993 4.814,0.776 5.607,0.684 6.683 C 0.473 9.134,1.687 11.808,4.357 14.777 C 6.162 16.783,8.815 19.006,11.678 20.914 C 12.910 21.735,12.974 21.770,13.093 21.707 C 13.585 21.445,15.389 20.217,16.488 19.396 C 20.813 16.166,23.692 12.902,24.807 9.967 C 25.597 7.886,25.510 5.843,24.549 3.878 C 23.709 2.160,22.303 0.905,20.568 0.324 C 19.889 0.097,19.414 0.025,18.590 0.025 C 18.011 0.025,17.780 0.044,17.377 0.126 C 16.504 0.304,15.719 0.635,14.972 1.142 C 14.466 1.485,13.618 2.332,13.283 2.828 C 13.143 3.036,13.015 3.207,13.000 3.207 C 12.985 3.207,12.857 3.036,12.716 2.828 C 12.378 2.327,11.531 1.481,11.028 1.141 C 9.952 0.414,8.869 0.062,7.583 0.022 C 7.177 0.010,6.810 0.024,6.543 0.062 " fill="#1C49C2" stroke="none" fill-rule="evenodd"></path></svg>