<svg width="24" height="24" viewBox="0 0 24 24" fill="none" xmlns="http://www.w3.org/2000/svg"><path d="M6.001 7.493 L 1.023 11.980 2.511 11.990 L 4.000 12.001 4.000 16.000 L 4.000 20.000 7.131 20.000 L 10.263 20.000 10.410 20.197 C 11.180 21.228,12.291 22.068,13.508 22.537 C 14.907 23.078,16.496 23.142,17.960 22.717 C 19.708 22.210,21.241 20.984,22.123 19.386 C 23.115 17.592,23.271 15.408,22.544 13.526 C 21.797 11.591,20.371 10.183,18.392 9.424 L 17.964 9.260 14.494 6.140 C 12.586 4.424,11.015 3.017,11.002 3.013 C 10.990 3.010,8.740 5.026,6.001 7.493 M16.601 11.042 C 17.369 11.136,18.154 11.432,18.824 11.881 C 19.229 12.152,19.848 12.771,20.119 13.176 C 21.118 14.667,21.271 16.538,20.524 18.104 C 19.841 19.533,18.679 20.481,17.131 20.869 C 16.744 20.966,16.628 20.977,16.000 20.977 C 15.372 20.977,15.256 20.966,14.869 20.869 C 13.321 20.481,12.159 19.533,11.476 18.104 C 10.853 16.797,10.853 15.203,11.476 13.896 C 11.751 13.322,12.036 12.917,12.476 12.476 C 13.575 11.377,15.078 10.855,16.601 11.042 M15.010 14.508 L 15.020 17.016 16.816 18.088 C 17.804 18.678,18.616 19.156,18.620 19.151 C 18.624 19.145,18.792 18.871,18.993 18.543 C 19.323 18.005,19.352 17.942,19.289 17.901 C 19.251 17.876,18.613 17.497,17.870 17.059 L 16.520 16.263 16.520 14.132 L 16.520 12.000 15.760 12.000 L 14.999 12.000 15.010 14.508 " fill="white" stroke="none" fill-rule="evenodd"></path></svg>