<svg width="24" height="24" viewBox="0 0 24 24" fill="none" xmlns="http://www.w3.org/2000/svg"><path d="M11.520 2.062 C 10.974 2.178,10.902 2.233,7.179 5.376 C 5.253 7.001,3.606 8.414,3.519 8.516 C 3.432 8.617,3.307 8.809,3.242 8.943 C 2.988 9.458,2.997 9.220,3.009 14.690 L 3.020 19.660 3.110 19.880 C 3.291 20.324,3.676 20.709,4.120 20.890 C 4.336 20.978,4.372 20.980,6.000 20.980 C 7.628 20.980,7.664 20.978,7.880 20.890 C 8.324 20.709,8.709 20.324,8.890 19.880 C 8.979 19.663,8.980 19.629,9.000 17.300 L 9.020 14.940 9.131 14.714 C 9.259 14.453,9.490 14.228,9.755 14.105 C 9.936 14.022,9.980 14.020,12.000 14.020 L 14.060 14.020 14.280 14.125 C 14.554 14.255,14.782 14.479,14.905 14.740 L 14.999 14.940 15.000 14.595 C 15.002 12.924,16.041 11.543,17.620 11.114 C 18.077 10.990,18.923 10.990,19.380 11.114 C 19.827 11.236,20.381 11.521,20.716 11.802 L 21.000 12.041 20.999 10.870 C 20.999 9.604,20.974 9.394,20.777 8.977 C 20.720 8.857,20.604 8.671,20.518 8.563 C 20.433 8.454,18.778 7.028,16.841 5.393 C 13.073 2.211,13.028 2.177,12.460 2.059 C 12.118 1.988,11.861 1.989,11.520 2.062 M17.965 12.059 C 17.448 12.177,16.870 12.533,16.556 12.928 C 15.762 13.928,15.840 15.364,16.738 16.262 C 17.715 17.239,19.281 17.238,20.259 16.259 C 21.036 15.483,21.211 14.369,20.716 13.363 C 20.434 12.793,19.868 12.314,19.240 12.116 C 18.899 12.008,18.305 11.982,17.965 12.059 M15.324 18.063 C 14.516 18.281,14.000 18.985,14.000 19.871 C 14.000 20.884,14.570 21.803,15.540 22.355 C 15.897 22.558,16.648 22.810,17.180 22.906 C 17.751 23.008,19.254 23.007,19.820 22.905 C 20.582 22.766,21.352 22.468,21.802 22.138 C 22.129 21.898,22.547 21.418,22.700 21.106 C 23.360 19.759,22.889 18.382,21.659 18.061 C 21.317 17.972,15.655 17.974,15.324 18.063 " fill="white" stroke="none" fill-rule="evenodd"></path></svg>