<svg width="24" height="24" viewBox="0 0 24 24" fill="none" xmlns="http://www.w3.org/2000/svg"><path d="M4.800 11.200 L 4.800 20.000 4.000 20.000 L 3.200 20.000 3.200 20.800 L 3.200 21.600 6.000 21.600 L 8.800 21.600 8.800 20.000 L 8.800 18.400 12.000 18.400 L 15.200 18.400 15.200 20.000 L 15.200 21.600 18.000 21.600 L 20.800 21.600 20.800 20.800 L 20.800 20.000 20.000 20.000 L 19.200 20.000 19.200 11.200 L 19.200 2.400 12.000 2.400 L 4.800 2.400 4.800 11.200 M9.600 5.600 L 9.600 6.400 8.800 6.400 L 8.000 6.400 8.000 5.600 L 8.000 4.800 8.800 4.800 L 9.600 4.800 9.600 5.600 M12.800 5.600 L 12.800 6.400 12.000 6.400 L 11.200 6.400 11.200 5.600 L 11.200 4.800 12.000 4.800 L 12.800 4.800 12.800 5.600 M16.000 5.600 L 16.000 6.400 15.200 6.400 L 14.400 6.400 14.400 5.600 L 14.400 4.800 15.200 4.800 L 16.000 4.800 16.000 5.600 M9.600 8.800 L 9.600 9.600 8.800 9.600 L 8.000 9.600 8.000 8.800 L 8.000 8.000 8.800 8.000 L 9.600 8.000 9.600 8.800 M12.800 8.800 L 12.800 9.600 12.000 9.600 L 11.200 9.600 11.200 8.800 L 11.200 8.000 12.000 8.000 L 12.800 8.000 12.800 8.800 M16.000 8.800 L 16.000 9.600 15.200 9.600 L 14.400 9.600 14.400 8.800 L 14.400 8.000 15.200 8.000 L 16.000 8.000 16.000 8.800 M9.600 12.000 L 9.600 12.800 8.800 12.800 L 8.000 12.800 8.000 12.000 L 8.000 11.200 8.800 11.200 L 9.600 11.200 9.600 12.000 M12.800 12.000 L 12.800 12.800 12.000 12.800 L 11.200 12.800 11.200 12.000 L 11.200 11.200 12.000 11.200 L 12.800 11.200 12.800 12.000 M16.000 12.000 L 16.000 12.800 15.200 12.800 L 14.400 12.800 14.400 12.000 L 14.400 11.200 15.200 11.200 L 16.000 11.200 16.000 12.000 M9.600 15.200 L 9.600 16.000 8.800 16.000 L 8.000 16.000 8.000 15.200 L 8.000 14.400 8.800 14.400 L 9.600 14.400 9.600 15.200 M12.800 15.200 L 12.800 16.000 12.000 16.000 L 11.200 16.000 11.200 15.200 L 11.200 14.400 12.000 14.400 L 12.800 14.400 12.800 15.200 M16.000 15.200 L 16.000 16.000 15.200 16.000 L 14.400 16.000 14.400 15.200 L 14.400 14.400 15.200 14.400 L 16.000 14.400 16.000 15.200 " fill="white" stroke="none" fill-rule="evenodd"></path></svg>