<svg width="24" height="24" viewBox="0 0 24 24" fill="none" xmlns="http://www.w3.org/2000/svg"><path d="M9.560 4.023 C 9.505 4.033,9.352 4.060,9.220 4.083 C 8.903 4.137,8.512 4.265,8.240 4.402 C 7.735 4.656,7.119 5.178,6.762 5.654 C 5.690 7.085,5.760 9.192,6.925 10.544 C 7.757 11.508,8.809 12.003,10.015 11.999 C 11.214 11.994,12.281 11.484,13.080 10.534 C 14.296 9.088,14.311 6.951,13.115 5.508 C 12.506 4.773,11.722 4.280,10.870 4.096 C 10.584 4.035,9.755 3.989,9.560 4.023 M15.990 11.050 C 15.980 11.078,15.911 11.412,15.837 11.794 L 15.701 12.489 15.321 12.683 C 15.111 12.790,14.858 12.926,14.758 12.985 L 14.576 13.092 13.865 12.871 L 13.155 12.650 13.100 12.735 C 13.070 12.782,12.846 13.160,12.602 13.575 C 12.247 14.180,12.168 14.341,12.205 14.387 C 12.231 14.418,12.480 14.639,12.758 14.879 L 13.263 15.316 13.261 16.000 L 13.260 16.685 12.800 17.084 C 12.547 17.304,12.299 17.525,12.248 17.575 L 12.156 17.666 12.601 18.423 C 12.846 18.839,13.070 19.218,13.101 19.265 L 13.155 19.350 13.845 19.135 C 14.224 19.017,14.551 18.920,14.570 18.920 C 14.590 18.920,14.737 19.000,14.898 19.097 C 15.058 19.195,15.304 19.327,15.445 19.390 L 15.700 19.506 15.836 20.203 C 15.911 20.586,15.980 20.922,15.990 20.950 C 16.004 20.988,16.243 21.000,17.000 21.000 C 17.757 21.000,17.996 20.988,18.010 20.950 C 18.020 20.922,18.089 20.586,18.164 20.203 L 18.300 19.506 18.555 19.390 C 18.696 19.327,18.942 19.195,19.102 19.097 C 19.263 19.000,19.410 18.920,19.430 18.920 C 19.449 18.920,19.776 19.017,20.155 19.135 L 20.845 19.350 20.899 19.265 C 20.993 19.119,21.840 17.673,21.840 17.659 C 21.840 17.651,21.592 17.429,21.290 17.164 L 20.739 16.684 20.740 16.025 L 20.740 15.366 21.280 14.897 C 21.577 14.640,21.827 14.423,21.835 14.416 C 21.868 14.388,20.868 12.680,20.818 12.680 C 20.789 12.680,20.459 12.786,20.084 12.915 L 19.402 13.151 19.195 12.996 C 19.081 12.911,18.833 12.762,18.643 12.664 L 18.298 12.486 18.163 11.793 C 18.089 11.412,18.020 11.078,18.010 11.050 C 17.996 11.012,17.757 11.000,17.000 11.000 C 16.243 11.000,16.004 11.012,15.990 11.050 M8.880 13.043 C 7.503 13.145,6.043 13.505,4.600 14.097 C 3.907 14.382,3.248 14.737,2.987 14.967 C 2.534 15.366,2.177 16.003,2.057 16.627 C 2.014 16.855,2.000 17.295,2.000 18.464 L 2.000 20.000 6.623 20.000 L 11.247 20.000 11.157 19.854 C 9.936 17.880,9.715 15.797,10.482 13.522 C 10.567 13.269,10.627 13.053,10.615 13.042 C 10.579 13.006,9.370 13.007,8.880 13.043 M17.451 14.059 C 17.821 14.137,18.091 14.291,18.403 14.599 C 19.660 15.844,18.776 17.982,16.998 17.998 C 16.459 18.002,16.013 17.813,15.597 17.401 C 14.831 16.642,14.803 15.462,15.533 14.660 C 16.030 14.112,16.706 13.901,17.451 14.059 " fill="white" stroke="none" fill-rule="evenodd"></path></svg>