<svg width="24" height="24" viewBox="0 0 24 24" fill="none" xmlns="http://www.w3.org/2000/svg"><path d="M8.075 2.693 C 7.092 3.049,6.383 4.114,6.195 5.515 C 6.140 5.933,6.170 6.788,6.255 7.180 C 6.496 8.292,7.143 9.209,7.960 9.596 C 8.150 9.686,8.243 9.702,8.650 9.713 C 9.211 9.729,9.383 9.683,9.810 9.403 C 10.442 8.988,10.903 8.292,11.147 7.380 C 11.245 7.015,11.255 6.914,11.257 6.220 C 11.259 5.621,11.244 5.388,11.185 5.120 C 10.916 3.890,10.316 3.077,9.400 2.702 C 9.275 2.651,9.085 2.623,8.780 2.612 C 8.392 2.599,8.309 2.608,8.075 2.693 " fill="white" stroke="none" fill-rule="evenodd"></path></svg>