<svg width="24" height="24" viewBox="0 0 24 24" fill="none" xmlns="http://www.w3.org/2000/svg"><path d="M2.630 3.630 L 2.000 4.261 5.760 8.020 C 7.828 10.088,9.520 11.794,9.520 11.811 C 9.520 11.829,9.353 12.069,9.150 12.346 C 7.657 14.376,7.531 14.517,6.440 15.380 C 4.866 16.626,4.440 17.217,4.440 18.156 C 4.440 19.199,5.103 20.305,5.988 20.739 C 6.402 20.941,6.582 20.979,7.140 20.978 C 7.763 20.977,8.105 20.899,9.340 20.478 C 10.720 20.006,11.258 19.880,11.892 19.880 C 12.521 19.880,12.988 19.985,14.397 20.445 C 15.632 20.848,15.948 20.923,16.529 20.950 C 17.124 20.977,17.396 20.925,17.876 20.694 L 18.252 20.512 19.246 21.506 L 20.240 22.500 20.870 21.870 L 21.500 21.240 12.380 12.120 L 3.260 3.000 2.630 3.630 M8.123 3.063 C 7.723 3.209,7.363 3.536,7.149 3.950 L 7.020 4.199 9.000 6.180 C 11.213 8.394,11.023 8.255,11.143 7.745 C 11.492 6.272,10.853 4.301,9.752 3.454 C 9.364 3.155,9.039 3.026,8.641 3.011 C 8.402 3.003,8.247 3.018,8.123 3.063 M14.800 3.073 C 14.163 3.283,13.530 3.900,13.130 4.700 C 12.624 5.712,12.479 7.015,12.768 7.957 C 13.252 9.540,14.656 9.918,15.822 8.781 C 16.405 8.212,16.845 7.348,17.020 6.429 C 17.105 5.980,17.097 5.227,17.002 4.769 C 16.845 4.004,16.415 3.371,15.892 3.131 C 15.586 2.991,15.122 2.966,14.800 3.073 M3.132 7.554 C 2.568 7.749,2.167 8.251,2.020 8.944 C 1.777 10.090,2.302 11.560,3.294 12.508 C 3.688 12.885,3.995 13.094,4.398 13.257 C 4.677 13.370,4.737 13.380,5.180 13.379 C 5.617 13.379,5.681 13.369,5.891 13.271 C 6.348 13.058,6.703 12.585,6.858 11.982 C 6.983 11.499,6.924 10.726,6.714 10.080 C 6.330 8.904,5.254 7.813,4.211 7.543 C 3.885 7.458,3.395 7.464,3.132 7.554 M19.740 7.554 C 18.606 7.895,17.604 8.985,17.217 10.300 C 17.073 10.790,17.037 11.548,17.139 11.970 C 17.285 12.580,17.637 13.048,18.120 13.276 C 18.318 13.369,18.387 13.379,18.820 13.379 C 19.263 13.380,19.323 13.370,19.602 13.257 C 20.952 12.710,22.043 11.039,22.039 9.526 C 22.037 8.640,21.640 7.901,21.011 7.610 C 20.706 7.469,20.109 7.442,19.740 7.554 " fill="white" stroke="none" fill-rule="evenodd"></path></svg>