<svg width="45" height="34" viewBox="0 0 45 34" fill="none" xmlns="http://www.w3.org/2000/svg">
<g opacity="0.8">
<path d="M0.101415 33.7598V32.3401C2.77179 29.6359 5.10414 27.2191 7.09847 25.0896C9.0928 22.9262 10.7491 20.9657 12.0674 19.208C13.4195 17.4164 14.4167 15.777 15.0589 14.2897C15.7349 12.7686 16.073 11.2982 16.073 9.87855C16.073 7.85042 15.4983 6.14341 14.349 4.75752C13.2336 3.37162 11.459 2.67868 9.0252 2.67868C7.5379 2.67868 6.15201 3.0843 4.86752 3.89556C3.58304 4.70681 2.45068 5.72088 1.47041 6.93776L0 5.51807C1.21688 4.16598 2.55208 3.0336 4.00557 2.12094C5.49287 1.20828 7.23368 0.751953 9.22801 0.751953C12.135 0.751953 14.3829 1.58011 15.9716 3.23641C17.5603 4.89272 18.3546 7.08987 18.3546 9.82785C18.3546 11.4504 17.9997 13.0729 17.2898 14.6954C16.58 16.2841 15.5828 17.9742 14.2984 19.7657C13.0139 21.5234 11.4421 23.4163 9.58294 25.4445C7.75762 27.4388 5.72949 29.619 3.49854 31.9852C4.3774 31.9176 5.27315 31.8669 6.18581 31.8331C7.13227 31.7655 8.04494 31.7317 8.9238 31.7317H19.9771V33.7598H0.101415Z" fill="white"/>
<path d="M38.0029 33.7598V24.0755H23.0962V22.7572L38.1551 1.36039H40.1832V22.1488H45V24.0755H40.1832V33.7598H38.0029ZM25.8341 22.1488H38.0029V10.2842C38.0029 9.54053 38.0198 8.61097 38.0536 7.4955C38.0874 6.38002 38.1382 5.45046 38.2058 4.70681H38.0029C37.5973 5.38286 37.1748 6.042 36.7354 6.68424C36.2959 7.32648 35.8396 8.01943 35.3664 8.76308L25.8341 22.1488Z" fill="white"/>
</g>
</svg>
