<svg width="50" height="50" viewBox="0 0 50 50" fill="none" xmlns="http://www.w3.org/2000/svg">
<g opacity="0.8">
<path d="M17.3975 24.982H27.5164V28.7292C27.5164 29.0605 27.648 29.3782 27.8823 29.6125C28.1165 29.8467 28.4342 29.9783 28.7655 29.9783C29.0968 29.9783 29.4145 29.8467 29.6488 29.6125C29.883 29.3782 30.0146 29.0605 30.0146 28.7292V24.982H35.011V31.2274C35.011 31.5587 35.1426 31.8764 35.3768 32.1106C35.6111 32.3449 35.9288 32.4765 36.26 32.4765C36.5913 32.4765 36.909 32.3449 37.1433 32.1106C37.3775 31.8764 37.5091 31.5587 37.5091 31.2274V23.7329C37.5092 23.5688 37.477 23.4063 37.4143 23.2548C37.3515 23.1032 37.2595 22.9654 37.1435 22.8494C37.0275 22.7334 36.8898 22.6414 36.7382 22.5787C36.5866 22.5159 36.4241 22.4837 36.26 22.4838H17.3975C17.0817 20.2959 15.9489 18.3088 14.2271 16.9225C12.5053 15.5361 10.3223 14.8534 8.11745 15.0117C5.91257 15.17 3.84948 16.1576 2.34339 17.7757C0.8373 19.3938 0 21.5223 0 23.7329C0 25.9434 0.8373 28.0719 2.34339 29.6901C3.84948 31.3082 5.91257 32.2957 8.11745 32.454C10.3223 32.6123 12.5053 31.9296 14.2271 30.5433C15.9489 29.1569 17.0817 27.1698 17.3975 24.982ZM2.53471 23.7329C2.53471 22.4976 2.901 21.2902 3.58726 20.2631C4.27351 19.236 5.24892 18.4356 6.39012 17.9628C7.53132 17.4901 8.78707 17.3665 9.99857 17.6074C11.2101 17.8484 12.3229 18.4432 13.1963 19.3167C14.0698 20.1901 14.6646 21.303 14.9056 22.5145C15.1466 23.7259 15.0229 24.9817 14.5502 26.1229C14.0775 27.2641 13.277 28.2395 12.2499 28.9258C11.2229 29.612 10.0154 29.9783 8.78014 29.9783C7.12435 29.9764 5.53692 29.3178 4.36609 28.1469C3.19527 26.9761 2.53665 25.3887 2.53471 23.7329Z" fill="white"/>
<path d="M25.0183 5.28795e-05C19.4742 -0.0114086 14.087 1.84061 9.72189 5.25871C9.46018 5.46187 9.28989 5.76068 9.2485 6.08939C9.2071 6.41811 9.29798 6.74981 9.50114 7.01152C9.70431 7.27323 10.0031 7.44351 10.3318 7.48491C10.6605 7.52631 10.9922 7.43543 11.254 7.23226C15.1814 4.15546 20.0292 2.48816 25.0183 2.49823C30.9813 2.49823 36.7001 4.86702 40.9166 9.08351C45.1331 13.3 47.5019 19.0188 47.5019 24.9818C47.5019 30.9448 45.1331 36.6636 40.9166 40.8801C36.7001 45.0965 30.9813 47.4653 25.0183 47.4653C21.9484 47.4744 18.9097 46.8482 16.0934 45.6263C13.2771 44.4043 10.744 42.613 8.65336 40.3648C8.42598 40.126 8.11335 39.9868 7.78372 39.9776C7.45408 39.9684 7.1342 40.09 6.89388 40.3158C6.65356 40.5417 6.51232 40.8534 6.50098 41.1829C6.48965 41.5125 6.60914 41.8332 6.83338 42.075C9.15661 44.5729 11.9715 46.5632 15.101 47.9207C18.2305 49.2783 21.607 49.9738 25.0183 49.9635C31.6439 49.9635 37.9981 47.3315 42.6831 42.6465C47.3681 37.9615 50.0001 31.6073 50.0001 24.9818C50.0001 18.3562 47.3681 12.002 42.6831 7.31703C37.9981 2.63205 31.6439 5.28795e-05 25.0183 5.28795e-05Z" fill="white"/>
</g>
</svg>
