<svg version="1.1" id="Guides" xmlns="http://www.w3.org/2000/svg" x="0" y="0" viewBox="0 0 78.4 77.2" xml:space="preserve"><style>.st0,.st1{fill:none;stroke:#53de80;stroke-width:1.5;stroke-miterlimit:10}.st1{stroke:#18184a}</style><path class="st0" d="M15.3 70.3V52.7m-8.8 8.8h17.6"/><path class="st1" d="M33.8 76.4V49.8"/><circle class="st1" cx="33.8" cy="8.6" r="7.8"/><path class="st1" d="M25 44.1h-1.7c-2.7 0-4.8-2.1-4.8-4.8V24.7c0-3.6 2.9-6.5 6.5-6.5h17.7c3.6 0 6.5 2.9 6.5 6.5v14.7c0 2.7-2.1 4.8-4.8 4.8h-1.6m-17.9 6.2V25.8"/><path class="st1" d="M42.7 25.8v50.7H24.9v-3.8m38.5 3.7V51.8"/><circle class="st1" cx="63.4" cy="13.7" r="7.2"/><path class="st1" d="M55.2 46.6h-1.6c-2.4 0-4.4-2-4.4-4.4V28.6c0-3.3 2.7-6 6-6h16.4c3.3 0 6 2.7 6 6v13.5c0 2.4-2 4.4-4.4 4.4h-1.4"/><path class="st1" d="M71.7 29.7v46.8H55.2V29.7"/><circle class="st0" cx="15.3" cy="61.5" r="14.6"/></svg>