<svg version="1.1" id="Guides" xmlns="http://www.w3.org/2000/svg" x="0" y="0" viewBox="0 0 73.5 76.6" xml:space="preserve"><style>.st0,.st1{fill:none;stroke:#18184a;stroke-width:1.5;stroke-miterlimit:10}.st1{stroke:#53de80}</style><path class="st0" d="M41.9 11.1S40.6 13.7 39 18c-1.8 5 5.4 9.7 5.4 9.7s1.6 1.3 5.5.1c0 0 1.8 12.4 14.6 6.6m.3 6.5s-4.6 1.6-8.6 1.5c-4-.1-8.1-5.9-9.3-5.4-1.1.6-3.2 3.5-3 5.2.2 1.8 2.2 5.5 3.9 6.2 2.7 1.3 1.8 3.2 4.7 5.1 2 1.3 8.1 1.3 8.9.3M16.5 20s-.2 2.3 1.8 2.6 4.8-1 5.5.6c.8 1.6 2.2 5.4-3.2 7.7-3.3 1.4.1 4.3.1 4.3s6.5 8.2-11.5 8.5m.5 4.9s3.7-1.3 5.7.2 1.2 3.8 2.6 6.2c1.4 2.4 4.1 2.5 4.1 2.5s2.6.1 3.4 2.5c.8 2.4.9 6.8.9 6.8"/><circle class="st0" cx="36.8" cy="39.8" r="28.5"/><path class="st1" d="M72.8 39.8c0 19.9-16.1 36-36 36s-36-16.1-36-36 16.1-36 36-36"/><path class="st1" d="M31.5.7l5.6 3-5 3.8"/></svg>