<svg aria-hidden="true" viewBox="0 0 512 512" xmlns="http://www.w3.org/2000/svg"><path d="M226.987 9.810 C 158.801 18.114,97.829 53.370,57.087 108.052 C -2.803 188.434,-8.313 296.959,43.123 383.076 C 81.074 446.616,146.808 490.669,219.538 501.305 C 269.972 508.681,319.665 500.839,365.653 478.248 C 391.282 465.658,409.362 452.569,430.966 430.966 C 452.569 409.362,465.658 391.282,478.248 365.653 C 500.839 319.665,508.681 269.972,501.305 219.538 C 486.153 115.926,405.093 31.644,302.080 12.393 C 281.321 8.514,247.251 7.342,226.987 9.810 M383.775 154.909 C 387.495 156.464,409.539 177.881,413.121 183.420 C 415.996 187.868,416.462 194.573,414.209 199.082 C 412.445 202.612,229.483 385.954,224.473 389.213 C 220.063 392.081,214.413 392.507,209.253 390.360 C 205.587 388.836,103.130 287.086,98.945 280.814 C 96.936 277.804,96.427 276.112,96.427 272.451 C 96.427 269.927,97.041 266.633,97.792 265.131 C 99.680 261.352,123.444 237.479,127.326 235.460 C 131.234 233.427,138.160 233.300,141.909 235.191 C 143.411 235.948,160.773 252.648,180.492 272.300 L 216.344 308.033 291.852 232.468 C 333.381 190.907,368.704 156.177,370.347 155.289 C 374.000 153.315,379.583 153.158,383.775 154.909 " stroke="none" fill-rule="evenodd" fill="black"></path></svg>