<svg aria-hidden="true" viewBox="0 0 512 512" xmlns="http://www.w3.org/2000/svg"><path d="M226.987 9.810 C 190.653 14.235,155.353 26.535,125.550 45.157 C 40.990 97.992,-3.799 194.545,10.724 292.693 C 23.833 381.286,85.154 456.894,169.387 488.321 C 239.945 514.646,318.400 507.507,383.079 468.875 C 417.721 448.184,448.184 417.721,468.875 383.079 C 507.507 318.400,514.646 239.945,488.321 169.387 C 458.100 88.388,386.709 28.208,302.080 12.393 C 281.321 8.514,247.251 7.342,226.987 9.810 M186.694 131.826 C 188.934 132.719,199.600 142.945,222.963 166.599 L 256.059 200.107 288.250 167.448 C 305.955 149.486,321.590 134.033,322.994 133.107 C 324.745 131.953,327.008 131.423,330.203 131.419 L 334.859 131.413 357.314 153.810 C 381.548 177.980,382.216 178.894,380.544 185.573 C 379.797 188.560,375.217 193.431,345.788 222.543 L 311.893 256.073 344.552 288.257 C 362.514 305.958,377.967 321.590,378.893 322.994 C 380.047 324.745,380.577 327.008,380.581 330.203 L 380.587 334.859 358.187 357.320 C 339.998 375.557,335.175 379.945,332.531 380.658 C 325.859 382.457,325.606 382.252,289.475 345.750 L 255.964 311.893 222.915 345.367 C 199.526 369.057,188.918 379.229,186.622 380.170 C 179.849 382.947,179.215 382.515,155.457 358.938 C 143.572 347.143,133.256 336.371,132.532 334.998 C 131.007 332.107,130.881 326.930,132.267 324.098 C 132.796 323.018,148.276 307.248,166.668 289.054 L 200.107 255.976 167.448 223.767 C 149.486 206.053,134.033 190.410,133.107 189.006 C 131.953 187.255,131.423 184.992,131.419 181.797 L 131.413 177.141 153.813 154.676 C 178.697 129.721,179.689 129.031,186.694 131.826 " stroke="none" fill-rule="evenodd" fill="black"></path></svg>