<svg aria-hidden="true" viewBox="0 0 1000 1000" xmlns="http://www.w3.org/2000/svg"><path d="M484.784 45.841 C 474.971 48.990,462.400 57.491,456.453 65.000 C 453.912 68.208,426.332 124.833,395.164 190.833 C 349.241 288.079,337.770 311.079,334.665 312.130 C 332.557 312.844,276.083 321.643,209.167 331.684 C 142.250 341.725,83.419 351.163,78.431 352.656 C 65.906 356.406,52.017 370.249,46.806 384.177 C 39.137 404.673,40.763 425.758,51.204 441.214 C 53.750 444.984,96.806 489.587,146.884 540.332 L 237.934 632.597 216.398 766.715 C 200.411 866.276,195.056 903.327,195.615 910.511 C 197.713 937.481,222.376 960.000,249.814 960.000 C 255.143 960.000,262.052 959.135,265.168 958.078 C 268.284 957.021,321.871 929.646,384.250 897.245 C 446.629 864.844,498.716 838.333,500.000 838.333 C 501.284 838.333,553.482 864.928,615.995 897.433 C 678.509 929.938,733.145 957.411,737.409 958.484 C 748.897 961.377,765.886 959.646,775.900 954.562 C 792.460 946.157,805.000 926.570,805.000 909.111 C 805.000 905.023,795.576 841.266,784.057 767.427 L 763.115 633.174 790.157 605.337 C 805.030 590.027,846.736 547.334,882.836 510.465 C 954.894 436.873,956.236 435.152,957.921 414.153 C 959.020 400.465,953.929 383.219,945.548 372.239 C 929.937 351.788,935.601 353.278,790.833 331.527 C 722.083 321.197,665.002 312.124,663.987 311.365 C 662.971 310.606,636.346 255.883,604.820 189.758 C 563.264 102.595,545.757 67.550,541.162 62.327 C 528.012 47.378,502.885 40.031,484.784 45.841 " stroke="none" fill-rule="evenodd" fill="black"></path></svg>