<svg width="90" height="33" viewBox="0 0 90 33" fill="none" xmlns="http://www.w3.org/2000/svg"><g clip-path="url(#clip0_11_268)"><path d="M11.938 31.865c-4.33-1.393-7.972-4.505-9.873-8.435-1.125-2.325-1.2-2.753-1.2-6.873 0-4.182.061-4.515 1.257-6.9 1.533-3.057 4.66-6.076 7.776-7.51 1.983-.913 2.695-1.028 6.322-1.028 3.843 0 4.245.076 6.702 1.263 1.438.695 2.615 1.399 2.615 1.564 0 .226-1.598 2.605-2.527 3.762-.047.059-1.016-.352-2.154-.913C12.218 2.536 2.653 11.412 6.11 20.479c.931 2.442 3.398 5.038 5.83 6.134 2.543 1.147 6.213 1.101 8.741-.109 1.069-.511 2.061-.94 2.206-.953.495-.044 2.707 3.287 2.513 3.784-.107.273-1.213.978-2.457 1.565-1.938.916-2.819 1.084-6.147 1.173-2.137.057-4.322-.037-4.857-.208Zm25.366-.196c-4.044-1.292-7.91-4.676-9.755-8.538-.94-1.97-1.041-2.605-1.041-6.574 0-4.182.06-4.515 1.256-6.9 1.534-3.057 4.66-6.076 7.776-7.51 2.022-.93 2.662-1.028 6.711-1.028 4.26 0 4.6.06 7.029 1.233 3.115 1.505 6.19 4.574 7.651 7.633.947 1.984 1.047 2.613 1.047 6.58 0 3.966-.1 4.595-1.047 6.58-1.457 3.053-4.537 6.128-7.637 7.626-2.277 1.1-2.939 1.236-6.445 1.323-2.514.063-4.492-.089-5.545-.425Zm10.058-5.452c2.184-1.167 3.807-2.83 5.057-5.182.657-1.235.858-2.275.865-4.47.008-2.452-.153-3.15-1.124-4.89-1.27-2.274-2.933-3.854-5.362-5.1-2.315-1.185-6.794-1.185-9.11 0-2.429 1.246-4.09 2.826-5.361 5.1-.972 1.74-1.132 2.438-1.125 4.89.01 3.071.668 4.82 2.71 7.203 1.178 1.373 3.929 3.057 5.74 3.513 2.128.536 5.616.055 7.71-1.064Zm-2.744-3.24c-.189-.485-1.063-2.408-1.942-4.273-.88-1.864-1.598-3.538-1.598-3.718 0-.18.59-.328 1.313-.328 1.26 0 1.358.107 2.428 2.668.614 1.468 1.203 2.669 1.31 2.669.106 0 .695-1.201 1.309-2.669 1.07-2.561 1.167-2.668 2.428-2.668.722 0 1.313.14 1.313.31 0 .17-.87 2.186-1.932 4.48-1.791 3.865-2.02 4.181-3.109 4.292-.93.095-1.247-.064-1.52-.763Zm-7.426-6.03v-3.815h-1.554c-1.468 0-1.554-.063-1.554-1.144v-1.144h8.548v1.144c0 1.08-.087 1.144-1.554 1.144h-1.555v7.628h-2.331v-3.814Zm21.085 14.015c.104-.262 3.444-5.692 7.424-12.065 3.98-6.374 7.236-11.651 7.236-11.728 0-.076-3.235-.139-7.188-.139h-7.188V2.454h11.503c9.044 0 11.463.102 11.316.476-.104.263-3.444 5.692-7.424 12.066-3.98 6.373-7.236 11.65-7.236 11.727 0 .077 3.235.14 7.188.14h7.188v4.576H69.593c-9.044 0-11.463-.102-11.316-.477Zm26.315-14.016V2.454h4.662v28.985h-4.662V16.946Z" fill="#62B4F2"/></g><defs><clipPath id="clip0_11_268"><path fill="#fff" transform="translate(0 .277)" d="M0 0h90v32H0z"/></clipPath></defs></svg>