<svg width="41" height="45" viewBox="0 0 41 45" fill="none" xmlns="http://www.w3.org/2000/svg"><g clip-path="url(#clip0_11_270)"><path d="m9.323 39.632.605-.158.713 2.747-.6.158-.718-2.747Zm1.129-.416 2.263 1.19-.404-1.565.596-.158.743 2.855-2.266-1.174.407 1.557-.597.158-.742-2.864Zm2.767-.617.642-.174 1.18 1.415.346-1.815.642-.166-.654 3.255-2.156-2.515Zm3.124-.832 1.863-.491.143.558-1.263.324.136.525 1.178-.317.145.541-1.18.317.152.59 1.29-.34.142.549-1.892.5-.714-2.756Zm2.755 1.324c.262.124.588.2 1.005.083.31-.075.447-.242.406-.4-.052-.183-.245-.216-.722-.258-.456-.041-.834-.183-.947-.624-.132-.5.241-.89.773-1.032a1.47 1.47 0 0 1 .828 0l.157.6c-.23-.109-.483-.142-.82-.051-.257.067-.369.191-.333.317.055.208.41.2.73.24.567.067.83.234.939.65.117.466-.128.916-.842 1.099a1.808 1.808 0 0 1-1.01.008l-.164-.632Zm2.43-2.106-.74.2-.145-.558 2.072-.541.145.549-.729.191.576 2.198-.605.158-.573-2.197Zm1.521-.99.605-.167.718 2.755-.605.166-.718-2.755Zm2.485-.709a1.54 1.54 0 0 1 .891.017l.153.591a1.368 1.368 0 0 0-.9-.058.894.894 0 0 0-.64 1.107.878.878 0 0 0 1.092.633.894.894 0 0 0 .54-.375l-.096-.366-.718.183-.14-.533 1.28-.341.292 1.115a1.477 1.477 0 0 1-1.015.866c-.811.217-1.622-.208-1.837-1.032-.217-.816.287-1.59 1.098-1.807Zm2.713-.84 2.181 2.53-.643.175-.326-.383-1.135.3-.097.5-.64.166.66-3.288Zm.857 1.864-.537-.632-.155.816.692-.184Zm1.246-1.656-.747.191-.145-.55 2.077-.549.144.55-.73.191.573 2.206-.602.158-.57-2.197Zm1.515-1 .606-.157.718 2.755-.606.158-.718-2.755Zm2.472-.698c.808-.217 1.621.241 1.832 1.04.206.8-.276 1.598-1.09 1.807-.808.216-1.617-.233-1.828-1.04-.21-.792.277-1.6 1.086-1.807Zm.602 2.297a.89.89 0 0 0 .623-1.099.882.882 0 0 0-1.081-.649.888.888 0 0 0-.623 1.099.877.877 0 0 0 1.081.65Zm1.246-2.855 2.262 1.182-.404-1.565.594-.158.743 2.863-2.262-1.182.405 1.557-.595.158-.742-2.855Zm-17.95 9.123 1.036-.266c.951-.258 1.601.2 1.808.99.212.816-.134 1.507-1.09 1.757l-1.036.275-.718-2.756Zm1.573 1.94c.689-.183.782-.6.664-1.049-.124-.466-.402-.782-1.096-.6l-.392.109.425 1.648.399-.108Zm1.335-2.706.6-.158.718 2.756-.6.15-.718-2.748Zm1.535 1.64c.266.133.59.2 1.009.092.31-.092.448-.25.406-.408-.051-.191-.245-.217-.724-.258-.456-.033-.831-.183-.95-.624-.127-.492.24-.891.773-1.033a1.49 1.49 0 0 1 .833 0l.157.608c-.229-.116-.483-.15-.821-.058-.258.066-.367.191-.332.316.05.208.404.2.73.242.566.066.828.224.939.649.118.466-.128.915-.842 1.107-.384.1-.718.083-1.015 0l-.163-.633Zm3.202-2.947a1.34 1.34 0 0 1 .92.067l.166.633c-.287-.167-.613-.233-.941-.142a.882.882 0 0 0-.64 1.099c.132.5.605.758 1.092.633.328-.084.582-.3.75-.591l.166.64a1.43 1.43 0 0 1-.774.508c-.807.209-1.622-.216-1.836-1.032-.213-.824.286-1.598 1.097-1.814Zm2.642-.699c.813-.208 1.618.242 1.828 1.04.206.8-.272 1.6-1.085 1.816-.807.216-1.622-.242-1.829-1.041-.208-.8.279-1.598 1.086-1.815Zm.598 2.306a.901.901 0 0 0 .627-1.107c-.128-.474-.602-.774-1.08-.64a.888.888 0 0 0-.628 1.098.88.88 0 0 0 1.081.65Zm.842-2.639.644-.166 1.18 1.407.339-1.815.643-.167-.652 3.255-2.154-2.514Zm3.12-.832 1.865-.491.149.55-1.267.34.136.517 1.18-.308.14.54-1.18.309.157.59 1.288-.34.14.549-1.89.5-.718-2.756Zm2.34-.616 1.143-.3a.933.933 0 0 1 1.164.658.874.874 0 0 1-.28.916l.94.882-.68.183-.805-.766h-.009l-.396.109.24.915-.599.158-.718-2.755Zm1.416 1.015c.23-.066.35-.258.293-.482-.054-.217-.244-.325-.434-.275l-.528.142.19.74.479-.124Zm2.187-.124-1.453-1.465.656-.175.954.982.346-1.315.657-.175-.553 1.99.268 1.023-.607.159-.268-1.024ZM35.55 20.163c-.446 3.345-2.567 5.784-6.05 6.716 0 0-8.176 2.19-8.817 2.364-.15.033-.275.05-.39.05h-.075a.246.246 0 0 1-.111-.025h-.004c-.034-.008-.062-.025-.097-.042-.033-.016-.058-.041-.08-.058l-.01-.008c-.02-.025-.044-.05-.065-.083h-.006a.305.305 0 0 1-.03-.05c-.008-.017-.02-.034-.028-.05-.004 0-.004-.009-.004-.009l-.027-.058c-.008-.025-.017-.042-.025-.067-.004 0-.004-.008-.004-.008-.008-.025-.016-.041-.025-.066-.008-.025-.012-.05-.02-.075-.004 0-.004-.009-.004-.017-.01-.025-.019-.042-.023-.067-.037-.15-.3-1.14-.683-2.588-.386-1.449-.894-3.347-1.407-5.3-.007-.005-.007-.013-.01-.018-1.15-4.332-2.366-8.927-2.49-9.385-.181-.7-.06-.903.646-1.09.706-.188 8.673-2.323 8.673-2.323 3.529-.94 6.676.25 8.772 3.113L30.35.277.892 8.139l7.983 30.06 29.308-7.949-2.633-10.087Zm-18.493 9.604c0 .009-.004.017-.004.025v.017c-.004.008-.004.017-.004.025s0 .017-.004.017c0 .008-.005.016-.005.025 0 .008 0 .008-.004.008-.006.017-.01.025-.014.033 0 .008 0 .008-.004.008 0 .009-.009.017-.009.026-.004.008-.008.008-.008.008 0 .008-.008.017-.008.025-.004 0-.008 0-.008.008-.008.009-.008.017-.017.025 0 0-.004.008-.008.008-.004.009-.008.017-.019.017 0 .008-.004.008-.008.008l-.025.025v.009c-.121.1-.317.183-.613.258-.947.258-2.096.574-2.783.757-.124.034-.233.05-.334.067h-.081c-.047.008-.093 0-.132 0h-.004c-.02-.008-.041-.008-.054-.008-.004 0-.01 0-.01-.009-.037 0-.07-.016-.101-.025 0 0-.004-.008-.008-.008-.013 0-.025-.008-.042-.017 0-.008 0-.008-.004-.008-.03-.025-.056-.042-.08-.067v-.008c-.013-.008-.025-.025-.035-.033 0 0-.005 0-.005-.009-.012-.008-.02-.025-.028-.041h-.005a23.446 23.446 0 0 0-.024-.05l-.004-.009c-.009-.016-.019-.033-.027-.058a.394.394 0 0 0-.025-.058c0-.008 0-.008-.004-.008-.004-.025-.012-.042-.017-.067l-.008-.017c-.004-.016-.008-.041-.016-.066-.004-.009-.009-.034-.023-.075a.52.52 0 0 0-.02-.075l-.021-.1c-.017-.058-.035-.117-.056-.2 0-.008-.004-.016-.008-.033-.291-1.132-1.057-4.054-1.868-7.175-.004-.009-.004-.017-.008-.026-1.166-4.484-2.435-9.35-2.56-9.833-.19-.728-.052-.861.65-1.048.486-.125 1.995-.542 2.785-.745a.408.408 0 0 1 .076-.021c.008-.004.017-.004.02-.004.022-.009.038-.009.055-.017.01 0 .014 0 .022-.004.017-.004.033-.004.05-.009.004-.004.012-.004.023-.004.012-.004.028-.004.045-.008.004 0 .008-.004.016-.004a.16.16 0 0 0 .048-.008h.012c.02 0 .037-.005.06-.009.037 0 .07-.004.105-.004h.046c.004 0 .008.004.008.004.014 0 .027 0 .04.004h.003c.017 0 .025.005.041.009.234.054.326.258.432.666a5345.75 5345.75 0 0 1 2.54 9.739c.508 1.946.996 3.827 1.37 5.259.367 1.423.625 2.389.654 2.522a.231.231 0 0 1 .017.05v.017c.004.016.008.025.008.041.004 0 .004.008.01.017 0 .008 0 .017.004.033 0 0 .005.009.005.017 0 .008 0 .017.004.033v.017c0 .008.004.016.004.041v.009a.118.118 0 0 1 .004.041v.05ZM30.2 16.276a10.336 10.336 0 0 0-.52-1.403c-1.104-2.33-2.926-3.363-5.144-2.768 0 0-3.004.808-3.41.916-.323.083-.47.237-.47.47.005.055.013.104.026.163.045.175.722 2.722 1.382 5.198a3629.738 3629.738 0 0 1 1.153 4.339c.021.084.042.15.058.217.031.133.056.216.064.258.089.325.31.516.706.416.262-.067 2.96-.79 2.96-.79 3.146-.85 4.244-3.087 3.274-6.72-.017-.071-.037-.138-.054-.204a1.33 1.33 0 0 0-.025-.092Z" fill="#62B4F2"/></g><defs><clipPath id="clip0_11_270"><path fill="#fff" transform="translate(.25 .277)" d="M0 0h40v44H0z"/></clipPath></defs></svg>