<svg width="91" height="35" viewBox="0 0 91 35" fill="none" xmlns="http://www.w3.org/2000/svg"><g clip-path="url(#clip0_11_272)" fill-rule="evenodd" clip-rule="evenodd" fill="#62B4F2"><path d="M8.361 8.973c1.813-.034 4.612-.306 5.729.432 1.235 3.273-2.88 2.687-5.729 2.589v14.93c0 2.06.318 4.947-.52 6.213-.942.366-2.272.541-2.865-.345-.716-1.073-.26-4.198-.26-5.782V11.994c-2.446.119-4.534.112-3.819-2.417.911-.65 2.18-.636 3.819-.604-.109-4.38 1.937-6.871 5.208-7.853 2.829-.849 7.438.066 7.464 2.848-.263.57-.529.97-1.128 1.208-1.42.336-1.824-.741-2.865-1.035C9.94 3.162 8.32 5.913 8.361 8.973Zm44.96-.604c2.248-.039 5.45-.335 6.77.604 1.122 3.351-3.721 2.632-6.77 2.503-.027 4.635-.915 16.568 1.562 18.295 2.133 1.488 5.805-1.394 6.857.691l.173 1.122c-1.494 3.09-7.758 2.223-9.894.345-3.333-2.996-2.3-14.04-2.257-20.453-1.9.065-4.262.356-4.773-1.036-1.055-2.44 2.854-2.158 4.772-2.07-.074-2.478-.9-8.081 2.17-7.423 2.082.447 1.463 4.93 1.389 7.422Zm34.023-.345c1.485-.008 2.372.39 2.344 1.812L80.4 28.304c-.889 1.776-1.602 5.428-4.166 5.437-1.825-.93-2.542-3.655-3.472-5.523L65.819 14.67c-.745-1.452-3.497-5.157-1.302-6.386 2.476-1.386 3.458 2.668 4.08 3.883l8.071 15.793h.087c2.401-4.703 4.803-9.493 7.204-14.24.948-1.847 1.724-4.536 3.385-5.695Zm-57.962.112c5-.075 7.922 1.918 10.068 4.697.621.805 2.16 2.127 1.28 3.588-.786 1.301-2.97 2.093-4.266 2.904a1745.236 1745.236 0 0 1-12.798 8.2c.313.34.625.682.938 1.024.975.438 1.77 1.193 2.901 1.538 4.322 1.3 8.345-1.177 10.153-3.502 1.042-1.34 1.337-4.073 3.498-4.27 2.834 1.006.319 4.857-.683 6.149-2.963 3.895-10.444 7.31-16.295 3.843-5.236-3.102-9.602-11.703-4.778-18.534 1.656-2.346 4.193-4.111 7.167-5.125l2.815-.512Zm-.426 3.416c-.845.228-1.707.456-2.56.683-5.174 2.23-6.589 6.715-4.522 12.812 5.119-3.217 10.281-6.434 15.357-9.651a137.44 137.44 0 0 1-.17-.171c-1.159-2.477-4.373-3.703-8.105-3.673Z"/></g><defs><clipPath id="clip0_11_272"><path fill="#fff" transform="translate(.5 .277)" d="M0 0h90v34H0z"/></clipPath></defs></svg>