<svg width="121" height="35" viewBox="0 0 121 35" fill="none" xmlns="http://www.w3.org/2000/svg"><g clip-path="url(#clip0_11_275)" fill="#62B4F2"><path d="M1.31.759v33.03h24.414V.758H1.311Zm20.883 29.704H4.83V4.086h17.364v26.377Zm18.08-18.186h-.034c-1.947-2.956-3.914-5.567-5.897-8.195H32.83v11.496h1.67V7.333h.017c1.967 2.973 3.932 5.601 5.915 8.245h1.514V4.082h-1.672v8.195Zm12.055 3.301-3.88-11.496h-1.737L42.5 15.578h1.808l1.062-3.137h3.67l.957 3.137h2.33Zm-6.419-4.55c.488-1.511.975-2.905 1.41-4.68h.035c.487 1.775.922 3.169 1.374 4.68H45.91Zm8.385 4.55h2.087V5.626h3.201V4.082h-8.488v1.544h3.2v9.952ZM62.33 4.082h-2.07v11.496h2.07V4.082Zm6.437 11.692c3.184 0 5.167-2.676 5.167-6.109 0-3.219-2.193-5.781-5.167-5.781-2.975 0-5.168 2.562-5.168 5.781 0 3.433 1.983 6.11 5.168 6.11Zm0-10.247c2.07 0 2.94 2.02 2.94 4.139 0 2.2-.765 4.466-2.94 4.466-2.174 0-2.94-2.265-2.94-4.466 0-2.12.87-4.14 2.94-4.14Zm8.105 1.806h.02c1.964 2.973 3.93 5.601 5.913 8.245h1.513V4.082h-1.67v8.195h-.035C80.665 9.32 78.7 6.71 76.716 4.082h-1.513v11.496h1.669V7.333Zm10.871 5.108h3.672l.956 3.137h2.33L90.825 4.082h-1.74l-4.21 11.496h1.81l1.06-3.137Zm1.95-6.094h.035c.486 1.776.921 3.17 1.375 4.68h-2.82c.488-1.51.974-2.904 1.41-4.68Zm11.81 7.686h-4.122V4.082h-2.07v11.496h6.193l-.001-1.545ZM38.572 28.727c-.436.214-.905.28-1.461.28-1.792 0-3.531-1.61-3.531-4.336 0-2.61 1.513-4.27 3.74-4.27.8 0 1.67.278 2.226.606l.678-1.362c-.695-.494-1.826-.887-2.957-.887-3.652 0-5.914 2.743-5.914 5.88 0 3.383 2.262 6.01 5.844 6.01 1.183 0 2.349-.293 3.463-.706v-4.747h-2.088v3.532Zm6.07-3.531h3.41v-1.543h-3.41V20.5h3.48v-1.544h-5.567v11.496h6.193v-1.545h-4.106v-3.711Zm9.916-6.438c-2.975 0-5.166 2.562-5.166 5.782 0 3.432 1.982 6.11 5.166 6.11 3.183 0 5.165-2.678 5.165-6.11 0-3.22-2.191-5.782-5.165-5.782Zm0 10.249c-2.175 0-2.94-2.267-2.94-4.468 0-2.119.87-4.139 2.94-4.139s2.939 2.02 2.939 4.14c0 2.2-.764 4.467-2.94 4.467Zm13.098-.28c-.434.214-.905.28-1.461.28-1.792 0-3.532-1.61-3.532-4.336 0-2.61 1.514-4.27 3.741-4.27.8 0 1.67.278 2.225.606l.68-1.362c-.696-.494-1.828-.887-2.96-.887-3.65 0-5.912 2.743-5.912 5.88 0 3.383 2.262 6.01 5.846 6.01 1.18 0 2.346-.293 3.46-.706v-4.747h-2.087v3.532Zm11.029-6.453c0-2.235-1.445-3.318-3.775-3.318h-3.253v11.496h2.087v-4.336h.94l1.965 4.336h2.383L76.58 25.69a3.835 3.835 0 0 0 2.105-3.415Zm-4.07 2.364c-.21.017-.698.033-.871.05V20.5h.923c1.233 0 1.928.672 1.928 1.855 0 1.543-.99 2.234-1.98 2.283Zm8.662-5.682-4.21 11.496h1.808l1.061-3.137h3.67l.96 3.137h2.33l-3.88-11.496h-1.739Zm-.8 6.948c.487-1.512.974-2.908 1.409-4.682h.035c.486 1.774.921 3.17 1.375 4.682h-2.819Zm21.692-2.53h-4.332v-4.418h-2.07v11.496h2.07v-5.535h4.332v5.535h2.086V18.987h-2.086v4.387Zm4.086 7.077h2.07V18.956h-2.07V30.45Zm9.376-1.444c-2.018 0-3.723-1.61-3.723-4.336 0-2.61 1.549-4.27 3.671-4.27.8 0 1.635.344 2.14.64l.66-1.395c-.713-.46-1.72-.888-2.799-.888-3.636 0-5.88 2.743-5.88 5.88 0 3.383 2.261 6.011 5.846 6.011 1.008 0 2.121-.378 2.747-.787l-.573-1.43a4.12 4.12 0 0 1-2.089.575ZM92.808 18.956h-3.25v11.496h2.087v-4.336h.938c2.489 0 4-1.906 4-3.842 0-2.235-1.442-3.318-3.775-3.318Zm-.295 5.682c-.208.015-.712.03-.869.046V20.5h.938c1.219 0 1.915.672 1.915 1.855 0 1.543-.992 2.234-1.984 2.283Z"/></g><defs><clipPath id="clip0_11_275"><path fill="#fff" transform="translate(.75 .277)" d="M0 0h120v34H0z"/></clipPath></defs></svg>