<svg width="73" height="45" viewBox="0 0 73 45" fill="none" xmlns="http://www.w3.org/2000/svg"><g clip-path="url(#clip0_11_278)" fill="#62B4F2"><path d="M71.565 34.96v1.252h1.204v1.354h-1.204v2.105c0 .43.175.64.688.64.23 0 .526-.076.526-.076l.15 1.253s-.386.156-1.096.156c-1.323 0-2.026-.651-2.026-1.872v-2.206h-.783v-1.354h.783V34.96h1.758Zm-5.714 1.056c-1.644 0-2.827 1.062-2.827 2.823 0 1.723 1.195 2.82 3.147 2.82.963 0 1.914-.43 1.914-.43l-.386-1.246s-.65.332-1.387.332c-.927 0-1.359-.52-1.475-.993h3.816c.054-1.799-.691-3.306-2.802-3.306Zm.075 1.266c.61 0 1.049.427 1.127.987H64.81c.063-.602.618-.987 1.117-.987Zm-9.122 4.194v-5.264h1.737v.69s.578-.89 1.854-.89c1.442 0 1.932.913 1.932 2.055v3.409H60.59v-2.807c0-.887-.343-1.253-.915-1.253-.654 0-1.133.565-1.133 1.453v2.607h-1.738Zm-13.272-5.46c1.643 0 2.664 1.325 2.664 2.783 0 1.679-1.218 2.866-2.693 2.866-1.086 0-1.76-.79-1.76-.79v2.706h-1.726v-7.367h1.726v.651s.587-.849 1.789-.849Zm-.509 1.454c-.78 0-1.33.773-1.33 1.357a1.32 1.32 0 0 0 1.33 1.344c.673 0 1.368-.454 1.368-1.335 0-.697-.575-1.366-1.368-1.366Zm3.869 4.006v-7.369h1.757v7.369h-1.757Zm5.16-5.46c-1.644 0-2.665 1.325-2.665 2.783 0 1.679 1.218 2.866 2.693 2.866 1.086 0 1.76-.79 1.76-.79v.602h1.725v-5.263H53.84v.651s-.587-.849-1.789-.849Zm.508 1.454c.78 0 1.33.773 1.33 1.357a1.32 1.32 0 0 1-1.33 1.344c-.673 0-1.368-.454-1.368-1.335 0-.697.575-1.366 1.367-1.366Zm-17.784 4.006v-7.369h1.758v7.369h-1.758Zm-4.747-5.46c-1.643 0-2.664 1.325-2.664 2.783 0 1.679 1.218 2.866 2.692 2.866 1.087 0 1.76-.79 1.76-.79v.602h1.726v-5.263h-1.725v.651s-.587-.849-1.789-.849Zm.508 1.454c.78 0 1.33.773 1.33 1.357 0 .799-.623 1.344-1.33 1.344-.672 0-1.368-.454-1.368-1.335 0-.697.576-1.366 1.368-1.366Zm-7.67 1.5v2.506h-1.738v-2.807c0-.887-.343-1.253-.914-1.253-.655 0-1.134.565-1.134 1.453v2.607h-1.737v-5.264h1.737v.69s.577-.89 1.853-.89c.885 0 1.411.343 1.686.872 0 0 .567-.878 2.025-.878 1.368 0 2.037.831 2.037 1.961v3.509h-1.737v-2.807c0-.685-.27-1.27-.916-1.27-.659 0-1.163.595-1.163 1.57Zm-6.591-4.71a1.02 1.02 0 0 1-1.021 1.02 1.022 1.022 0 0 1-1.022-1.02 1.02 1.02 0 0 1 1.021-1.02 1.022 1.022 0 0 1 1.022 1.02Zm-1.914 7.216v-5.264h1.757v5.264h-1.757Zm-6.657 0v-5.264h1.737v.69s.577-.89 1.853-.89c1.442 0 1.932.913 1.932 2.055v3.409H11.49v-2.807c0-.887-.343-1.253-.915-1.253-.654 0-1.133.565-1.133 1.453v2.607H7.705Zm-4.751-5.46C1.31 36.017.29 37.342.29 38.8c0 1.679 1.217 2.866 2.692 2.866 1.087 0 1.76-.79 1.76-.79v.602h1.726v-5.263H4.742v.651s-.586-.849-1.788-.849Zm.508 1.454c.78 0 1.33.773 1.33 1.357 0 .799-.623 1.344-1.33 1.344-.672 0-1.368-.454-1.368-1.335 0-.697.576-1.366 1.368-1.366ZM40.958.973v8.352s1.3 1.062 1.917 1.915c-3.182-2.074-6.563-2.944-10.674-2.944-6.768 0-12.93 3.13-15.972 8.312l.393.737s1.323-1.589 4.382-3.147c-3.34 3.29-4.74 5.915-6.794 11.967l3.258 3.24c4.263-4.763 10.536-7.91 17.616-7.91 6.7 0 12.87 2.995 16.726 6.975l3.51-3.515c-1.967-3.362-4.522-6.463-6.553-8.616 2.101 1.198 5.455 1.883 8.66 1.883 5.606 0 9.725-3.013 9.725-7.117 0-5.054-4.34-8.13-11.42-9.3l-1.145 1.917c3.563.635 9.105 2.705 9.105 6.404 0 2.029-1.572 3.73-3.836 3.73-2.8 0-5.124-3.116-6.537-5.868l-2.162-.052C48.676 4.87 44.664 1.878 40.958.973Z"/></g><defs><clipPath id="clip0_11_278"><path fill="#fff" transform="translate(0 .277)" d="M0 0h73v44H0z"/></clipPath></defs></svg>