<svg width="32" height="28" viewBox="0 0 32 28" fill="none" xmlns="http://www.w3.org/2000/svg"><path fill-rule="evenodd" clip-rule="evenodd" d="M18.677 2.783a5.014 5.014 0 0 1 1.836-2.03A4.948 4.948 0 0 1 23.133 0h1.683c.152 0 .298.061.406.17a.583.583 0 0 1 .168.41v5.148l6.22 2.092a.575.575 0 0 1 .39.55v2.226a5.057 5.057 0 0 1-1.46 3.553 4.96 4.96 0 0 1-3.52 1.474h-3.835v.005c-2.352-.503-4.097-1.841-5.36-3.418a13.255 13.255 0 0 1-2.03-3.604l2.882-5.823Zm-5.82 6.12h-3.68a8.218 8.218 0 0 1-5.149-1.825l-3.093-2.5a.571.571 0 0 0-.845.145.584.584 0 0 0-.088.31v18.91a3.953 3.953 0 0 0 1.088 2.859c.362.378.796.679 1.275.884a3.849 3.849 0 0 0 4.308-.884 3.953 3.953 0 0 0 1.088-2.858V22.83c0-.437.172-.855.478-1.163.306-.308.72-.482 1.152-.482H13.8a1.616 1.616 0 0 1 1.153.483 1.647 1.647 0 0 1 .477 1.164v1.113a3.951 3.951 0 0 0 1.088 2.858A3.88 3.88 0 0 0 19.308 28c.521 0 1.037-.106 1.517-.311a3.88 3.88 0 0 0 1.275-.885 3.951 3.951 0 0 0 1.088-2.858v-5.373c-3.423-.554-5.903-2.435-7.596-4.54A16.05 16.05 0 0 1 12.86 8.9l-.002.003Z" fill="#353434"/></svg>