<svg width="37" height="38" viewBox="0 0 37 38" fill="none" xmlns="http://www.w3.org/2000/svg"><path fill-rule="evenodd" clip-rule="evenodd" d="M25.227 13.955a6.727 6.727 0 1 1-13.454 0 6.727 6.727 0 0 1 13.454 0Zm-3.363 0a3.364 3.364 0 1 1-6.727 0 3.364 3.364 0 0 1 6.727 0Z" fill="#353434"/><path fill-rule="evenodd" clip-rule="evenodd" d="M18.5.5C8.283.5 0 8.783 0 19s8.283 18.5 18.5 18.5S37 29.217 37 19 28.717.5 18.5.5ZM3.364 19c0 3.515 1.199 6.75 3.209 9.32a15.113 15.113 0 0 1 12.036-5.956 15.111 15.111 0 0 1 11.928 5.815A15.137 15.137 0 1 0 3.364 19ZM18.5 34.136a15.074 15.074 0 0 1-9.54-3.384 11.76 11.76 0 0 1 9.65-5.025 11.757 11.757 0 0 1 9.567 4.911 15.076 15.076 0 0 1-9.677 3.498Z" fill="#353434"/></svg>