<svg width="36" height="33" viewBox="0 0 36 33" fill="none" xmlns="http://www.w3.org/2000/svg"><path d="M32.633 2.206a8.96 8.96 0 0 0-3.72-1.93 8.893 8.893 0 0 0-4.182-.02A10.8 10.8 0 0 0 18 4.959 10.8 10.8 0 0 0 11.304.257 9.053 9.053 0 0 0 7.134.23a9.117 9.117 0 0 0-3.75 1.848C.54 4.593-1.026 10.169.756 15.817c.202.623.443 1.232.72 1.822.072.137.139.277.198.42C6.3 27.605 16.992 32.635 17.46 32.871a1.2 1.2 0 0 0 .558.128 1.25 1.25 0 0 0 .558-.128c.45-.2 11.25-5.193 15.84-14.85l.143-.31c.284-.62.531-1.259.738-1.913 1.692-5.466.144-11.042-2.664-13.593Zm-.558 14.45c-.252.572-.54 1.126-.864 1.658h-5.958a1.782 1.782 0 0 1-.848-.22 1.81 1.81 0 0 1-.646-.6l-1.89-2.843-4.013 8.127c-.127.257-.312.48-.54.651a1.788 1.788 0 0 1-.774.333h-.288a1.781 1.781 0 0 1-1.278-.547l-4.878-4.92H4.86a19.374 19.374 0 0 1-.9-1.822 11.635 11.635 0 0 1-.684-1.822h7.578a1.779 1.779 0 0 1 1.278.529l3.6 3.644 4.284-8.673a1.796 1.796 0 0 1 3.113-.201l3.06 4.665h6.66a12.064 12.064 0 0 1-.774 2.04Z" fill="#353434"/></svg>