<svg width="38" height="36" viewBox="0 0 38 36" fill="none" xmlns="http://www.w3.org/2000/svg"><path d="m19.014 17.646 8.716 12.026 1.802-2.906-7.282-14.343 5.627-9.047c.368-.588.22-2.61-.699-3.163-.993-.625-2.795.258-3.2.92l-5.626 9.047-16.55.515L0 13.6l15.079 1.766s-4.818 7.76-4.855 7.76l-5.737.183-1.618 2.575 7.65.956 4.523 6.068 1.618-2.574s-2.538-5.002-2.5-5.039l4.817-7.723.037.074Z" fill="#353434"/><path d="M29.127 19.227c1.03-.92 2.648-.368 2.942.956.148.589.662.993 1.287.92 1.361-.11 2.354 1.25 1.84 2.5-.221.552 0 1.214.477 1.508a1.793 1.793 0 0 1 0 3.09 1.177 1.177 0 0 0-.478 1.508c.552 1.25-.478 2.647-1.839 2.5-.588-.073-1.14.331-1.287.92-.294 1.324-1.912 1.875-2.942.956a1.182 1.182 0 0 0-1.581 0c-1.03.92-2.648.368-2.942-.956-.148-.589-.662-.993-1.287-.92-1.361.11-2.354-1.25-1.84-2.5.221-.552 0-1.214-.477-1.508a1.793 1.793 0 0 1 0-3.09c.514-.294.735-.956.478-1.508-.552-1.25.478-2.647 1.838-2.5.589.073 1.14-.331 1.288-.92.294-1.324 1.912-1.875 2.942-.956a1.18 1.18 0 0 0 1.581 0Z" fill="#353434" stroke="#FDD000" stroke-width="2.2" stroke-miterlimit="10"/><path d="m26.994 30.444-2.684-2.685a.932.932 0 0 1 0-1.324.932.932 0 0 1 1.323 0l1.361 1.36 4.34-4.339a.932.932 0 0 1 1.324 0 .932.932 0 0 1 0 1.324l-5.664 5.664Z" fill="#FDD000"/></svg>