<svg width="33" height="33" viewBox="0 0 33 33" fill="none" xmlns="http://www.w3.org/2000/svg"><path d="M15.826 24.084A7.16 7.16 0 0 0 14.2 19.55a7.437 7.437 0 0 0-4.167-2.545 7.558 7.558 0 0 0-4.877.563 7.333 7.333 0 0 0-3.447 3.424 7.116 7.116 0 0 0-.505 4.782 7.243 7.243 0 0 0 2.66 4.04 7.518 7.518 0 0 0 4.658 1.527 7.51 7.51 0 0 0 4.61-1.658m2.695-12.194V8.913h-1.58a4.1 4.1 0 0 0-2.478.83 3.952 3.952 0 0 0-1.438 2.145l-1.302 4.966M28.63 32V19.656a3.41 3.41 0 0 0 2.383-.966A3.263 3.263 0 0 0 32 16.358v-.472h-5.103c-1.329 0-2.406-1.055-2.406-2.356v3.67a6.24 6.24 0 0 1-.767 2.996 6.397 6.397 0 0 1-2.121 2.287 6.397 6.397 0 0 0-2.121 2.286 6.239 6.239 0 0 0-.767 2.996v3.575h-.53a2.385 2.385 0 0 1-1.668-.676 2.284 2.284 0 0 1-.69-1.632v-2.309m6.064 0h2.022v.385c0 1.154 0 1.924.607 3.078 0 .003.606 1.154 1.415 1.154M15.624 6.274s-2.157-1.319-2.157-2.968c0-.612.249-1.198.69-1.63A2.382 2.382 0 0 1 15.824 1c.625 0 1.224.243 1.666.675.442.433.69 1.02.69 1.631 0 1.65-2.15 2.968-2.15 2.968h-.405Z" stroke="#000" stroke-width="2"/></svg>