<svg width="22" height="23" viewBox="0 0 22 23" fill="none" xmlns="http://www.w3.org/2000/svg"><path fill-rule="evenodd" clip-rule="evenodd" d="M16.275 1.88a1.904 1.904 0 0 0-2.042-.846l-2.74.63c-.28.064-.572.064-.853 0l-2.74-.63a1.905 1.905 0 0 0-2.042.846L4.365 4.263c-.153.244-.358.45-.602.604L1.38 6.36A1.905 1.905 0 0 0 .534 8.4l.63 2.743c.064.28.064.571 0 .852l-.63 2.741a1.904 1.904 0 0 0 .846 2.04l2.383 1.494c.244.152.45.358.603.602l1.494 2.383a1.905 1.905 0 0 0 2.04.845l2.74-.629c.28-.064.572-.064.853 0l2.742.63a1.905 1.905 0 0 0 2.04-.846l1.493-2.383c.153-.244.358-.45.602-.602l2.385-1.494a1.904 1.904 0 0 0 .844-2.042l-.628-2.74a1.906 1.906 0 0 1 0-.853l.63-2.741a1.905 1.905 0 0 0-.845-2.04l-2.384-1.494a1.905 1.905 0 0 1-.602-.602L16.275 1.88Zm-.767 6.289a.762.762 0 0 0-1.31-.776l-3.985 6.745-2.406-2.304a.762.762 0 1 0-1.053 1.1l3.1 2.97a.762.762 0 0 0 1.182-.163l4.472-7.572Z" fill="#222"/></svg>