<svg width="72" height="72" viewBox="0 0 72 72" fill="none" xmlns="http://www.w3.org/2000/svg">
<rect width="72" height="72" rx="36" fill="black"/>
<path fill-rule="evenodd" clip-rule="evenodd" d="M20.6787 33.9534L25.7659 24.97L29.0204 30.7753L27.279 33.9534H20.6787Z" fill="white"/>
<path fill-rule="evenodd" clip-rule="evenodd" d="M30.1866 15.3447L27.0952 21.5123L36.3251 40.3699L39.2869 34.0247L30.1866 15.3447Z" fill="white"/>
<path fill-rule="evenodd" clip-rule="evenodd" d="M38.0034 24.8489L42.7683 15.3447L52.1202 33.9532H45.8558L42.6795 27.6912L41.1356 30.9333L38.0034 24.8489Z" fill="white"/>
<path fill-rule="evenodd" clip-rule="evenodd" d="M13.9805 49.4936L13.8801 49.3076L13.0495 47.7983V50.5174H12.0598V45.7313H12.9639L14.4047 48.3508L15.8375 45.7313H16.753V50.5174H15.7626V47.7834L14.9255 49.3076L14.8252 49.4936H13.9805Z" fill="white"/>
<path fill-rule="evenodd" clip-rule="evenodd" d="M25.7216 49.597C26.1504 49.597 26.4953 49.465 26.7558 49.2003C27.0165 48.9355 27.1466 48.5768 27.1466 48.1242C27.1466 47.6792 27.0157 47.3221 26.7542 47.0538C26.4924 46.7857 26.148 46.6511 25.7216 46.6511C25.292 46.6511 24.9469 46.7857 24.6866 47.0538C24.4261 47.3221 24.2958 47.6792 24.2958 48.1242C24.2958 48.5768 24.4253 48.9355 24.6847 49.2003C24.9439 49.465 25.2897 49.597 25.7216 49.597ZM25.7204 45.7313C25.9682 45.7313 26.2082 45.7609 26.4399 45.8202C26.6721 45.8795 26.8913 45.9732 27.0992 46.1004C27.3061 46.2279 27.4862 46.3837 27.6402 46.5681C27.7944 46.7521 27.9159 46.9779 28.0049 47.2448C28.0942 47.512 28.139 47.8052 28.139 48.1244C28.139 48.4435 28.0942 48.7366 28.0049 49.0037C27.9159 49.271 27.7944 49.4967 27.6402 49.6811C27.4862 49.8651 27.3061 50.0211 27.0992 50.1484C26.8913 50.2755 26.6721 50.3697 26.4399 50.4287C26.2082 50.488 25.9682 50.5174 25.7204 50.5174C25.4692 50.5174 25.2284 50.488 24.9963 50.4287C24.7643 50.3697 24.5448 50.2755 24.339 50.1484C24.1332 50.0211 23.9541 49.8651 23.8014 49.6811C23.6491 49.4967 23.5278 49.271 23.4386 49.0037C23.3493 48.7366 23.3047 48.4435 23.3047 48.1244C23.3047 47.808 23.3493 47.5168 23.4386 47.2509C23.5278 46.9851 23.6491 46.7599 23.8014 46.5755C23.9541 46.3912 24.1332 46.2348 24.339 46.1064C24.5448 45.9775 24.7643 45.8831 24.9963 45.8224C25.2284 45.7619 25.4692 45.7313 25.7204 45.7313Z" fill="white"/>
<path fill-rule="evenodd" clip-rule="evenodd" d="M38.9817 50.5174H37.7834L36.3582 48.8292L35.6805 49.6346V50.5174H34.6907V45.7313H35.6805V48.2543L37.8391 45.7313H38.9968L36.9683 48.1169L38.9817 50.5174Z" fill="white"/>
<path fill-rule="evenodd" clip-rule="evenodd" d="M49.9025 50.5174H48.7044L47.2789 48.8292L46.6016 49.6346V50.5174H45.6116V45.7313H46.6016V48.2543L48.7598 45.7313H49.9177L47.889 48.1169L49.9025 50.5174Z" fill="white"/>
<path fill-rule="evenodd" clip-rule="evenodd" d="M59.2822 45.7313H58.1699L56.4539 50.5174H57.4441L57.7825 49.5753H57.7827L58.1132 48.6552H58.1101L58.7281 46.9449L60.0081 50.5174H60.9981L59.2822 45.7313Z" fill="white"/>
<path fill-rule="evenodd" clip-rule="evenodd" d="M25.3568 55.2567C25.3568 55.4467 25.2626 55.6021 25.0741 55.7224C24.8857 55.8429 24.6289 55.9029 24.304 55.9029C24.1707 55.9029 24.0418 55.8871 23.9171 55.8551C23.7924 55.8228 23.6866 55.7817 23.5997 55.7317C23.5127 55.6815 23.4409 55.6275 23.3838 55.5687C23.3269 55.5103 23.291 55.4534 23.2764 55.3984L23.7282 55.25C23.7396 55.2995 23.807 55.3508 23.9307 55.4044C24.0542 55.4578 24.1899 55.4845 24.3377 55.4845C24.4901 55.4845 24.6229 55.463 24.7364 55.4205C24.8498 55.3776 24.9065 55.3231 24.9065 55.2567C24.9065 55.1959 24.8644 55.1445 24.7804 55.1022C24.6963 55.0599 24.542 55.0183 24.3174 54.9767C24.1843 54.9527 24.0604 54.9212 23.9459 54.8812C23.8314 54.8413 23.7281 54.794 23.636 54.7395C23.5441 54.685 23.4716 54.62 23.4186 54.5444C23.3655 54.4694 23.339 54.3887 23.339 54.3031C23.339 54.1446 23.4284 54.0069 23.6073 53.8907C23.7861 53.774 24.0145 53.7157 24.2919 53.7157C24.4579 53.7157 24.6137 53.7401 24.7593 53.7884C24.9048 53.837 25.0229 53.8998 25.1138 53.9776C25.2046 54.0552 25.2626 54.1384 25.2873 54.2273L24.8371 54.3723C24.8202 54.3039 24.7586 54.2467 24.6525 54.2011C24.5465 54.1556 24.415 54.1327 24.2583 54.1327C24.1295 54.1327 24.0192 54.147 23.9272 54.1757C23.8353 54.2044 23.7893 54.2436 23.7893 54.2928C23.7893 54.3417 23.8389 54.3887 23.9383 54.4349C24.0377 54.4809 24.1808 54.5219 24.3682 54.5581C24.7112 54.6266 24.9618 54.7173 25.1197 54.8296C25.2777 54.9422 25.3568 55.0845 25.3568 55.2567Z" fill="white"/>
<path fill-rule="evenodd" clip-rule="evenodd" d="M28.6481 55.9028H28.1961V54.1445H27.5342V53.7258H29.3134V54.1445H28.6481V55.9028Z" fill="white"/>
<path fill-rule="evenodd" clip-rule="evenodd" d="M33.7802 53.7258V54.7824C33.7802 54.9273 33.7598 55.0616 33.7192 55.1855C33.6786 55.3093 33.6233 55.4146 33.5533 55.5011C33.4833 55.5879 33.4015 55.6618 33.3078 55.723C33.2142 55.7847 33.1147 55.8296 33.009 55.8591C32.9036 55.8882 32.7945 55.9028 32.6815 55.9028C32.5687 55.9028 32.4596 55.8882 32.3539 55.8591C32.2485 55.8296 32.1487 55.7847 32.0544 55.723C31.9603 55.6618 31.8781 55.5879 31.8081 55.5011C31.738 55.4146 31.6829 55.3093 31.6422 55.1855C31.6016 55.0616 31.5813 54.9273 31.5813 54.7824V53.7258H32.0333V54.7824C32.0333 54.9983 32.0925 55.1692 32.211 55.2952C32.3293 55.4212 32.4862 55.4843 32.6815 55.4843C32.8767 55.4843 33.0336 55.4212 33.1521 55.2952C33.2706 55.1692 33.3298 54.9983 33.3298 54.7824V53.7258H33.7802Z" fill="white"/>
<path fill-rule="evenodd" clip-rule="evenodd" d="M36.8454 54.1443H36.571V55.4841H36.8454C36.9839 55.4841 37.103 55.4679 37.2017 55.4351C37.3003 55.4024 37.377 55.355 37.4317 55.2926C37.4867 55.2303 37.526 55.1599 37.5502 55.0825C37.5744 55.005 37.5867 54.9153 37.5867 54.8142C37.5867 54.7128 37.5744 54.6234 37.5502 54.546C37.526 54.4683 37.4867 54.3982 37.4317 54.3355C37.377 54.2734 37.3003 54.2258 37.2017 54.193C37.103 54.1606 36.9839 54.1443 36.8454 54.1443ZM36.8447 53.7258C37.226 53.7258 37.5199 53.8195 37.7264 54.0068C37.9329 54.1943 38.0363 54.4635 38.0363 54.8144C38.0363 55.1654 37.9329 55.4346 37.7264 55.6218C37.5199 55.809 37.226 55.9028 36.8447 55.9028H36.1201V53.7258H36.8447Z" fill="white"/>
<path fill-rule="evenodd" clip-rule="evenodd" d="M40.3926 55.9028H40.8444V53.7258H40.3926V55.9028Z" fill="white"/>
<path fill-rule="evenodd" clip-rule="evenodd" d="M44.2832 55.4841C44.4785 55.4841 44.6353 55.4239 44.7538 55.3034C44.8725 55.1831 44.9314 55.0201 44.9314 54.8142C44.9314 54.6117 44.872 54.4493 44.7531 54.3274C44.6338 54.2053 44.4774 54.1443 44.2832 54.1443C44.088 54.1443 43.9311 54.2053 43.8126 54.3274C43.6942 54.4493 43.635 54.6117 43.635 54.8142C43.635 55.0201 43.694 55.1831 43.8117 55.3034C43.9297 55.4239 44.0868 55.4841 44.2832 55.4841ZM44.2825 53.7258C44.3952 53.7258 44.5046 53.7395 44.6101 53.7663C44.7156 53.7935 44.8154 53.8358 44.9096 53.8939C45.0039 53.9518 45.0859 54.0225 45.1559 54.1065C45.226 54.1904 45.2814 54.2927 45.3219 54.4144C45.3624 54.5361 45.3828 54.6693 45.3828 54.8144C45.3828 54.9593 45.3624 55.0927 45.3219 55.2142C45.2814 55.3359 45.226 55.4384 45.1559 55.5221C45.0859 55.6061 45.0039 55.6771 44.9096 55.7349C44.8154 55.7928 44.7156 55.8353 44.6101 55.8624C44.5046 55.8894 44.3952 55.9028 44.2825 55.9028C44.1685 55.9028 44.0587 55.8894 43.9534 55.8624C43.8477 55.8353 43.7482 55.7928 43.6546 55.7349C43.5608 55.6771 43.4793 55.6061 43.4098 55.5221C43.3405 55.4384 43.2854 55.3359 43.2449 55.2142C43.2042 55.0927 43.1841 54.9593 43.1841 54.8144C43.1841 54.6705 43.2042 54.538 43.2449 54.4171C43.2854 54.2961 43.3405 54.1937 43.4098 54.1101C43.4793 54.0259 43.5608 53.9547 43.6546 53.8963C43.7482 53.8381 43.8477 53.7949 43.9534 53.7672C44.0587 53.7397 44.1685 53.7258 44.2825 53.7258Z" fill="white"/>
<path fill-rule="evenodd" clip-rule="evenodd" d="M49.7187 55.2567C49.7187 55.4467 49.6244 55.6021 49.436 55.7224C49.2474 55.8429 48.9908 55.9029 48.6659 55.9029C48.5325 55.9029 48.4036 55.8871 48.279 55.8551C48.1543 55.8228 48.0485 55.7817 47.9617 55.7317C47.8749 55.6815 47.803 55.6275 47.7459 55.5687C47.6888 55.5103 47.6531 55.4534 47.6384 55.3984L48.0902 55.25C48.1015 55.2995 48.1689 55.3508 48.2926 55.4044C48.4162 55.4578 48.5519 55.4845 48.6997 55.4845C48.852 55.4845 48.9848 55.463 49.0983 55.4205C49.2117 55.3776 49.2685 55.3231 49.2685 55.2567C49.2685 55.1959 49.2263 55.1445 49.1423 55.1022C49.0582 55.0599 48.9038 55.0183 48.6795 54.9767C48.5462 54.9527 48.4224 54.9212 48.3078 54.8812C48.1931 54.8413 48.09 54.794 47.9979 54.7395C47.9061 54.685 47.8336 54.62 47.7804 54.5444C47.7273 54.4694 47.701 54.3887 47.701 54.3031C47.701 54.1446 47.7905 54.0069 47.9691 53.8907C48.148 53.774 48.3764 53.7157 48.6541 53.7157C48.8198 53.7157 48.9757 53.7401 49.1213 53.7884C49.2669 53.837 49.3849 53.8998 49.4757 53.9776C49.5666 54.0552 49.6244 54.1384 49.6494 54.2273L49.199 54.3723C49.1822 54.3039 49.1206 54.2467 49.0145 54.2011C48.9083 54.1556 48.7769 54.1327 48.6201 54.1327C48.4914 54.1327 48.3811 54.147 48.2893 54.1757C48.1972 54.2044 48.1511 54.2436 48.1511 54.2928C48.1511 54.3417 48.2011 54.3887 48.3004 54.4349C48.3996 54.4809 48.5428 54.5219 48.7301 54.5581C49.073 54.6266 49.3236 54.7173 49.4818 54.8296C49.6395 54.9422 49.7187 55.0845 49.7187 55.2567Z" fill="white"/>
<path fill-rule="evenodd" clip-rule="evenodd" d="M11.998 54.9612H22.5183V54.6573H11.998V54.9612Z" fill="white"/>
<path fill-rule="evenodd" clip-rule="evenodd" d="M50.4775 54.9612H60.998V54.6573H50.4775V54.9612Z" fill="white"/>
</svg>
