<svg version="1.1" id="Layer_1" xmlns="http://www.w3.org/2000/svg" x="0" y="0" viewBox="0 0 817 1006" xml:space="preserve"><style>.st5{fill:#4f3b87}</style><linearGradient id="SVGID_1_" gradientUnits="userSpaceOnUse" x1="439.134" y1="548.823" x2="171.951" y2="548.823" gradientTransform="matrix(1 0 0 -1 0 1006)"><stop offset="0" stop-color="#373359"/><stop offset=".3" stop-color="#3c345c"/><stop offset=".5" stop-color="#40355f"/><stop offset=".7" stop-color="#3c345c"/><stop offset="1" stop-color="#373359"/></linearGradient><path d="M443 528.3V317.5H169v210.8c0 3.2 2.4 6.4 7.3 8.8l112 56c9.8 4.9 25.6 4.9 35.3 0l112-56c5-2.4 7.4-5.5 7.4-8.8z" fill="url(#SVGID_1_)"/><linearGradient id="SVGID_2_" gradientUnits="userSpaceOnUse" x1="306" y1="84.682" x2="306" y2="354.805" gradientTransform="translate(0 238)"><stop offset="0" stop-color="#333257" stop-opacity="0"/><stop offset=".75" stop-color="#333257"/><stop offset="1" stop-color="#333257"/></linearGradient><path fill="url(#SVGID_2_)" d="M169 317.5h274v279.4H169z"/><path d="M288.3 252.7c9.8-4.9 25.6-4.9 35.4 0l112 56c9.8 4.9 9.8 12.8 0 17.7l-112 56c-9.8 4.9-25.6 4.9-35.4 0l-112-56c-9.8-4.9-9.8-12.8 0-17.7l112-56z" fill="#463878"/><linearGradient id="SVGID_3_" gradientUnits="userSpaceOnUse" x1="761.305" y1="97.884" x2="575.056" y2="97.884" gradientTransform="matrix(1 0 0 -1 0 1006)"><stop offset="0" stop-color="#38335a"/><stop offset=".3" stop-color="#40355f"/><stop offset=".5" stop-color="#453762"/><stop offset=".7" stop-color="#40355e"/><stop offset="1" stop-color="#38335a"/></linearGradient><path d="M764 957.7v-147H573v147c0 2.2 1.7 4.5 5.1 6.2l78.1 39c6.8 3.4 17.8 3.4 24.6 0l78.1-39c3.4-1.7 5.1-3.9 5.1-6.2z" fill="url(#SVGID_3_)"/><linearGradient id="SVGID_4_" gradientUnits="userSpaceOnUse" x1="668.5" y1="576.362" x2="668.5" y2="764.659" gradientTransform="translate(0 238)"><stop offset="0" stop-color="#333257" stop-opacity="0"/><stop offset=".75" stop-color="#333257"/><stop offset="1" stop-color="#333257"/></linearGradient><path fill="url(#SVGID_4_)" d="M573 810.8h191v194.7H573z"/><path class="st5" d="M656.2 765.6c6.8-3.4 17.8-3.4 24.7 0l78.1 39c6.8 3.4 6.8 8.9 0 12.3l-78.1 39c-6.8 3.4-17.8 3.4-24.7 0l-78.1-39c-6.8-3.4-6.8-8.9 0-12.3l78.1-39z"/><linearGradient id="SVGID_5_" gradientUnits="userSpaceOnUse" x1="377.659" y1="933.822" x2="285.023" y2="933.822" gradientTransform="matrix(1 0 0 -1 0 1006)"><stop offset="0" stop-color="#38335a"/><stop offset=".3" stop-color="#40355f"/><stop offset=".5" stop-color="#463662"/><stop offset=".7" stop-color="#40355f"/><stop offset="1" stop-color="#38335a"/></linearGradient><path d="M379 96.8v-73h-95v73.1c0 1.1.8 2.2 2.5 3.1l38.8 19.4c3.4 1.7 8.9 1.7 12.3 0l38.8-19.4c1.8-.9 2.6-2 2.6-3.2z" fill="url(#SVGID_5_)"/><linearGradient id="SVGID_6_" gradientUnits="userSpaceOnUse" x1="331.5" y1="-212.453" x2="331.5" y2="-118.797" gradientTransform="translate(0 238)"><stop offset="0" stop-color="#333257" stop-opacity="0"/><stop offset=".75" stop-color="#333257"/><stop offset="1" stop-color="#333257"/></linearGradient><path fill="url(#SVGID_6_)" d="M284 23.8h95v96.9h-95z"/><path class="st5" d="M325.4 1.3c3.4-1.7 8.9-1.7 12.3 0l38.8 19.4c3.4 1.7 3.4 4.4 0 6.1l-38.8 19.4c-3.4 1.7-8.9 1.7-12.3 0l-38.8-19.4c-3.4-1.7-3.4-4.4 0-6.1l38.8-19.4z"/><linearGradient id="SVGID_7_" gradientUnits="userSpaceOnUse" x1="460.037" y1="354.739" x2="383.542" y2="354.739" gradientTransform="matrix(1 0 0 -1 0 1006)"><stop offset="0" stop-color="#363758"/><stop offset=".3" stop-color="#3a3f5a"/><stop offset=".5" stop-color="#3d455b"/><stop offset=".7" stop-color="#3b405b"/><stop offset="1" stop-color="#363758"/></linearGradient><path d="M461.1 671.6v-60.4h-78.4v60.4c0 .9.7 1.8 2.1 2.5l32.1 16c2.8 1.4 7.3 1.4 10.1 0l32.1-16c1.4-.6 2-1.5 2-2.5z" fill="url(#SVGID_7_)"/><linearGradient id="SVGID_8_" gradientUnits="userSpaceOnUse" x1="421.921" y1="374.754" x2="421.921" y2="452.091" gradientTransform="translate(0 238)"><stop offset="0" stop-color="#333257" stop-opacity="0"/><stop offset=".75" stop-color="#333257"/><stop offset="1" stop-color="#333257"/></linearGradient><path fill="url(#SVGID_8_)" d="M382.7 611.3h78.4v80h-78.4z"/><path d="M416.9 592.7c2.8-1.4 7.3-1.4 10.1 0l32.1 16c2.8 1.4 2.8 3.7 0 5.1l-32.1 16c-2.8 1.4-7.3 1.4-10.1 0l-32.1-16c-2.8-1.4-2.8-3.7 0-5.1l32.1-16z" fill="#507c5b"/></svg>