<svg width="618" height="785" fill="none" xmlns="http://www.w3.org/2000/svg"><g opacity=".8"><g opacity=".5"><mask id="a" maskUnits="userSpaceOnUse" x="0" y="313" width="100" height="102"><path d="M99.07 389.371v-75.756H.61v75.756c0 1.138.868 2.306 2.636 3.175l40.26 20.13c3.504 1.767 9.195 1.767 12.7 0l40.26-20.13c1.737-.869 2.606-2.007 2.606-3.175z" fill="url(#paint0_linear)"/></mask><g mask="url(#a)"><path d="M99.07 389.371v-75.756H.61v75.756c0 1.138.868 2.306 2.636 3.175l40.26 20.13c3.504 1.767 9.195 1.767 12.7 0l40.26-20.13c1.737-.869 2.606-2.007 2.606-3.175z" fill="url(#paint1_linear)"/></g></g><path d="M43.485 290.315c3.51-1.755 9.2-1.755 12.71 0l40.244 20.122c3.51 1.755 3.51 4.6 0 6.355l-40.245 20.122c-3.51 1.755-9.2 1.755-12.709 0L3.241 316.792c-3.51-1.755-3.51-4.6 0-6.355l40.244-20.122z" fill="#4F3B87"/></g><g opacity=".6"><g opacity=".5"><mask id="b" maskUnits="userSpaceOnUse" x="63" y="620" width="52" height="54"><path d="M114.987 660.995v-39.998H63v39.998c0 .601.459 1.218 1.392 1.677L85.649 673.3c1.85.933 4.855.933 6.706 0l21.256-10.628c.917-.459 1.376-1.06 1.376-1.677z" fill="url(#paint2_linear)"/></mask><g mask="url(#b)"><path d="M114.987 660.995v-39.998H63v39.998c0 .601.459 1.218 1.392 1.677L85.649 673.3c1.85.933 4.855.933 6.706 0l21.256-10.628c.917-.459 1.376-1.06 1.376-1.677z" fill="url(#paint3_linear)"/></g></g><path d="M85.638 608.695c1.853-.927 4.858-.927 6.71 0l21.249 10.624c1.853.927 1.853 2.429 0 3.355l-21.248 10.625c-1.853.926-4.858.926-6.71 0l-21.25-10.625c-1.852-.926-1.852-2.428 0-3.355l21.25-10.624z" fill="#FE6486"/></g><g opacity=".4"><g opacity=".6"><mask id="c" maskUnits="userSpaceOnUse" x="523" y="477" width="95" height="98"><path d="M618 550.842V477.75h-95v73.092c0 1.099.838 2.226 2.544 3.064l38.843 19.422c3.382 1.705 8.873 1.705 12.255 0l38.844-19.422c1.676-.838 2.514-1.937 2.514-3.064z" fill="url(#paint4_linear)"/></mask><g mask="url(#c)"><path d="M618 550.842V477.75h-95v73.092c0 1.099.838 2.226 2.544 3.064l38.843 19.422c3.382 1.705 8.873 1.705 12.255 0l38.844-19.422c1.676-.838 2.514-1.937 2.514-3.064z" fill="url(#paint5_linear)"/></g></g><path d="M564.369 455.27c3.386-1.693 8.876-1.693 12.262 0l38.829 19.414c3.386 1.693 3.386 4.438 0 6.131l-38.829 19.415c-3.386 1.693-8.876 1.693-12.262 0l-38.829-19.415c-3.387-1.693-3.387-4.438 0-6.131l38.829-19.414z" fill="#4F3B87"/></g><defs><linearGradient id="paint0_linear" x1="-12.427" y1="297.752" x2="-15.59" y2="396.874" gradientUnits="userSpaceOnUse"><stop stop-color="#D857BC"/><stop offset="1" stop-color="#D857BC" stop-opacity="0"/></linearGradient><linearGradient id="paint1_linear" x1="99.071" y1="300.172" x2="1.918" y2="298.641" gradientUnits="userSpaceOnUse"><stop stop-color="#D857BC" stop-opacity=".15"/><stop offset=".365" stop-color="#D857BC" stop-opacity=".4"/><stop offset=".479" stop-color="#D857BC" stop-opacity=".5"/><stop offset=".599" stop-color="#D857BC" stop-opacity=".4"/><stop offset="1" stop-color="#D857BC" stop-opacity=".15"/></linearGradient><linearGradient id="paint2_linear" x1="56.117" y1="612.621" x2="54.447" y2="664.956" gradientUnits="userSpaceOnUse"><stop stop-color="#D857BC"/><stop offset="1" stop-color="#D857BC" stop-opacity="0"/></linearGradient><linearGradient id="paint3_linear" x1="114.987" y1="613.899" x2="63.691" y2="613.09" gradientUnits="userSpaceOnUse"><stop stop-color="#FE6486" stop-opacity=".4"/><stop offset=".365" stop-color="#FE6486" stop-opacity=".7"/><stop offset=".479" stop-color="#FE6486"/><stop offset=".599" stop-color="#FE6486" stop-opacity=".7"/><stop offset="1" stop-color="#FE6486" stop-opacity=".4"/></linearGradient><linearGradient id="paint4_linear" x1="510.423" y1="462.446" x2="507.371" y2="558.081" gradientUnits="userSpaceOnUse"><stop stop-color="#D857BC"/><stop offset="1" stop-color="#D857BC" stop-opacity="0"/></linearGradient><linearGradient id="paint5_linear" x1="618" y1="464.78" x2="524.263" y2="463.302" gradientUnits="userSpaceOnUse"><stop stop-color="#D857BC" stop-opacity=".15"/><stop offset=".365" stop-color="#D857BC" stop-opacity=".4"/><stop offset=".479" stop-color="#D857BC" stop-opacity=".5"/><stop offset=".599" stop-color="#D857BC" stop-opacity=".4"/><stop offset="1" stop-color="#D857BC" stop-opacity=".15"/></linearGradient></defs></svg>