<svg width="817" height="1006" fill="none" xmlns="http://www.w3.org/2000/svg"><g opacity=".7"><g opacity=".5"><mask id="a" maskUnits="userSpaceOnUse" x="169" y="317" width="274" height="280"><path d="M443 528.313V317.5H169.001v210.813c0 3.168 2.417 6.419 7.335 8.836l112.034 56.017c9.753 4.918 25.591 4.918 35.344 0l112.034-56.017c4.835-2.417 7.252-5.585 7.252-8.836z" fill="url(#paint0_linear)"/></mask><g mask="url(#a)"><path d="M443 528.313V317.5H169.001v210.813c0 3.168 2.417 6.419 7.335 8.836l112.034 56.017c9.753 4.918 25.591 4.918 35.344 0l112.034-56.017c4.835-2.417 7.252-5.585 7.252-8.836z" fill="url(#paint1_linear)"/></g></g><path d="M288.317 252.662c9.766-4.883 25.6-4.883 35.366 0l111.992 55.996c9.766 4.883 9.766 12.8 0 17.683l-111.992 55.996c-9.766 4.883-25.6 4.883-35.366 0l-111.992-55.996c-9.767-4.883-9.767-12.8 0-17.683l111.992-55.996z" fill="#4F3B87"/></g><g opacity=".5"><mask id="b" maskUnits="userSpaceOnUse" x="573" y="810" width="191" height="196"><path d="M764 957.704V810.75H573v146.954c0 2.208 1.686 4.474 5.114 6.159l78.097 39.047c6.798 3.43 17.839 3.43 24.637 0l78.097-39.047c3.37-1.685 5.055-3.893 5.055-6.159z" fill="url(#paint2_linear)"/></mask><g mask="url(#b)"><path d="M764 957.704V810.75H573v146.954c0 2.208 1.686 4.474 5.114 6.159l78.097 39.047c6.798 3.43 17.839 3.43 24.637 0l78.097-39.047c3.37-1.685 5.055-3.893 5.055-6.159z" fill="url(#paint3_linear)"/></g></g><path d="M656.173 765.553c6.808-3.404 17.846-3.404 24.653 0l78.068 39.034c6.808 3.404 6.808 8.922 0 12.326l-78.068 39.034c-6.807 3.404-17.845 3.404-24.653 0l-78.067-39.034c-6.808-3.404-6.808-8.922 0-12.326l78.067-39.034z" fill="#4F3B87"/><g opacity=".5"><mask id="c" maskUnits="userSpaceOnUse" x="284" y="23" width="95" height="98"><path d="M379 96.842V23.75h-95v73.092c0 1.099.838 2.226 2.544 3.064l38.843 19.422c3.382 1.705 8.873 1.705 12.255 0l38.844-19.422c1.676-.838 2.514-1.937 2.514-3.064z" fill="url(#paint4_linear)"/></mask><g mask="url(#c)"><path d="M379 96.842V23.75h-95v73.092c0 1.099.838 2.226 2.544 3.064l38.843 19.422c3.382 1.705 8.873 1.705 12.255 0l38.844-19.422c1.676-.838 2.514-1.937 2.514-3.064z" fill="url(#paint5_linear)"/></g></g><path d="M325.369 1.27c3.386-1.693 8.876-1.693 12.262 0l38.829 19.414c3.386 1.694 3.386 4.438 0 6.131L337.631 46.23c-3.386 1.693-8.876 1.693-12.262 0L286.54 26.815c-3.387-1.693-3.387-4.438 0-6.13L325.369 1.27z" fill="#4F3B87"/><g opacity=".5"><g opacity=".5"><mask id="d" maskUnits="userSpaceOnUse" x="382" y="611" width="80" height="81"><path d="M461.144 671.627V611.27h-78.447v60.357c0 .907.692 1.838 2.1 2.53l32.076 16.038c2.792 1.408 7.327 1.408 10.119 0l32.076-16.038c1.384-.692 2.076-1.599 2.076-2.53z" fill="url(#paint6_linear)"/></mask><g mask="url(#d)"><path d="M461.144 671.627V611.27h-78.447v60.357c0 .907.692 1.838 2.1 2.53l32.076 16.038c2.792 1.408 7.327 1.408 10.119 0l32.076-16.038c1.384-.692 2.076-1.599 2.076-2.53z" fill="url(#paint7_linear)"/></g></g><path d="M416.858 592.707c2.796-1.398 7.329-1.398 10.125 0l32.064 16.032c2.796 1.398 2.796 3.664 0 5.062l-32.064 16.032c-2.796 1.398-7.329 1.398-10.125 0l-32.064-16.032c-2.796-1.398-2.796-3.664 0-5.062l32.064-16.032z" fill="#6DC65E"/></g><defs><linearGradient id="paint0_linear" x1="132.725" y1="273.358" x2="123.923" y2="549.191" gradientUnits="userSpaceOnUse"><stop stop-color="#D857BC"/><stop offset="1" stop-color="#D857BC" stop-opacity="0"/></linearGradient><linearGradient id="paint1_linear" x1="443" y1="280.091" x2="172.643" y2="275.83" gradientUnits="userSpaceOnUse"><stop stop-color="#D857BC" stop-opacity=".15"/><stop offset=".365" stop-color="#D857BC" stop-opacity=".4"/><stop offset=".479" stop-color="#D857BC" stop-opacity=".5"/><stop offset=".599" stop-color="#D857BC" stop-opacity=".4"/><stop offset="1" stop-color="#D857BC" stop-opacity=".15"/></linearGradient><linearGradient id="paint2_linear" x1="547.713" y1="779.98" x2="541.577" y2="972.258" gradientUnits="userSpaceOnUse"><stop stop-color="#D857BC"/><stop offset="1" stop-color="#D857BC" stop-opacity="0"/></linearGradient><linearGradient id="paint3_linear" x1="764" y1="784.673" x2="575.539" y2="781.703" gradientUnits="userSpaceOnUse"><stop stop-color="#D857BC" stop-opacity=".15"/><stop offset=".365" stop-color="#D857BC" stop-opacity=".4"/><stop offset=".479" stop-color="#D857BC" stop-opacity=".5"/><stop offset=".599" stop-color="#D857BC" stop-opacity=".4"/><stop offset="1" stop-color="#D857BC" stop-opacity=".15"/></linearGradient><linearGradient id="paint4_linear" x1="271.423" y1="8.446" x2="268.371" y2="104.081" gradientUnits="userSpaceOnUse"><stop stop-color="#D857BC"/><stop offset="1" stop-color="#D857BC" stop-opacity="0"/></linearGradient><linearGradient id="paint5_linear" x1="379" y1="10.78" x2="285.263" y2="9.302" gradientUnits="userSpaceOnUse"><stop stop-color="#D857BC" stop-opacity=".15"/><stop offset=".365" stop-color="#D857BC" stop-opacity=".4"/><stop offset=".479" stop-color="#D857BC" stop-opacity=".5"/><stop offset=".599" stop-color="#D857BC" stop-opacity=".4"/><stop offset="1" stop-color="#D857BC" stop-opacity=".15"/></linearGradient><linearGradient id="paint6_linear" x1="372.311" y1="598.632" x2="369.791" y2="677.604" gradientUnits="userSpaceOnUse"><stop stop-color="#D857BC"/><stop offset="1" stop-color="#D857BC" stop-opacity="0"/></linearGradient><linearGradient id="paint7_linear" x1="461.144" y1="600.56" x2="383.74" y2="599.34" gradientUnits="userSpaceOnUse"><stop stop-color="#92DA86" stop-opacity=".2"/><stop offset=".365" stop-color="#92DA86" stop-opacity=".8"/><stop offset=".479" stop-color="#92DA86"/><stop offset=".599" stop-color="#92DA86" stop-opacity=".8"/><stop offset="1" stop-color="#92DA86" stop-opacity=".2"/></linearGradient></defs></svg>