<svg width="817" height="1005" fill="none" xmlns="http://www.w3.org/2000/svg"><g opacity=".5"><g opacity=".6"><mask id="a" maskUnits="userSpaceOnUse" x="105" y="519" width="58" height="59"><path d="M162.191 563.3v-44.002H105V563.3c0 .661.505 1.34 1.531 1.845l23.385 11.692c2.036 1.026 5.341 1.026 7.377 0l23.385-11.692c1.009-.505 1.513-1.166 1.513-1.845z" fill="url(#paint0_linear)"/></mask><g mask="url(#a)"><path d="M162.191 563.3v-44.002H105V563.3c0 .661.505 1.34 1.531 1.845l23.385 11.692c2.036 1.026 5.341 1.026 7.377 0l23.385-11.692c1.009-.505 1.513-1.166 1.513-1.845z" fill="url(#paint1_linear)"/></g></g><path d="M129.905 505.764c2.038-1.019 5.343-1.019 7.381 0l23.376 11.688c2.039 1.02 2.039 2.672 0 3.691l-23.376 11.688c-2.038 1.019-5.343 1.019-7.381 0l-23.376-11.688c-2.039-1.019-2.039-2.671 0-3.691l23.376-11.688z" fill="#4F3B87"/></g><g opacity=".7"><g opacity=".6"><mask id="b" maskUnits="userSpaceOnUse" x="394" y="143" width="423" height="433"><path d="M817 469.203V143.75H394.001v325.453c0 4.89 3.732 9.909 11.325 13.641l172.957 86.478c15.056 7.593 39.507 7.593 54.564 0l172.957-86.478c7.464-3.732 11.196-8.623 11.196-13.641z" fill="url(#paint2_linear)"/></mask><g mask="url(#b)"><path d="M817 469.203V143.75H394.001v325.453c0 4.89 3.732 9.909 11.325 13.641l172.957 86.478c15.056 7.593 39.507 7.593 54.564 0l172.957-86.478c7.464-3.732 11.196-8.623 11.196-13.641z" fill="url(#paint3_linear)"/></g></g><path d="M578.201 43.654c15.077-7.539 39.521-7.539 54.598 0L805.692 130.1c15.077 7.539 15.077 19.761 0 27.299l-172.893 86.447c-15.077 7.538-39.521 7.538-54.598 0l-172.893-86.447c-15.077-7.538-15.077-19.76 0-27.299l172.893-86.446z" fill="#825FFE"/></g><g opacity=".5"><mask id="c" maskUnits="userSpaceOnUse" x="500" y="475" width="317" height="324"><path d="M816.663 718.803V475.165H500.001v243.638c0 3.661 2.794 7.418 8.477 10.212l129.478 64.739c11.272 5.684 29.576 5.684 40.847 0l129.478-64.739c5.588-2.794 8.382-6.455 8.382-10.212z" fill="url(#paint4_linear)"/></mask><g mask="url(#c)"><path d="M816.663 718.803V475.165H500.001v243.638c0 3.661 2.794 7.418 8.477 10.212l129.478 64.739c11.272 5.684 29.576 5.684 40.847 0l129.478-64.739c5.588-2.794 8.382-6.455 8.382-10.212z" fill="url(#paint5_linear)"/></g></g><path d="M637.895 400.232c11.287-5.643 29.586-5.643 40.872 0l129.43 64.715c11.287 5.644 11.287 14.793 0 20.437l-129.43 64.714c-11.286 5.644-29.585 5.644-40.872 0l-129.43-64.714c-11.287-5.644-11.287-14.793 0-20.437l129.43-64.715z" fill="#4F3B87"/><g opacity=".5"><g opacity=".6"><mask id="d" maskUnits="userSpaceOnUse" x="0" y="298" width="55" height="57"><path d="M54.35 340.405v-41.817H0v41.817c0 .628.48 1.273 1.455 1.752l22.223 11.112c1.935.975 5.076.975 7.01 0l22.224-11.112c.959-.479 1.438-1.108 1.438-1.752z" fill="url(#paint6_linear)"/></mask><g mask="url(#d)"><path d="M54.35 340.405v-41.817H0v41.817c0 .628.48 1.273 1.455 1.752l22.223 11.112c1.935.975 5.076.975 7.01 0l22.224-11.112c.959-.479 1.438-1.108 1.438-1.752z" fill="url(#paint7_linear)"/></g></g><path d="M23.668 285.726c1.937-.968 5.078-.968 7.015 0l22.214 11.108c1.938.968 1.938 2.539 0 3.507l-22.214 11.108c-1.938.968-5.078.968-7.015 0L1.453 300.341c-1.937-.968-1.937-2.539 0-3.507l22.215-11.108z" fill="#4F3B87"/></g><defs><linearGradient id="paint0_linear" x1="97.428" y1="510.084" x2="95.591" y2="567.658" gradientUnits="userSpaceOnUse"><stop stop-color="#D857BC"/><stop offset="1" stop-color="#D857BC" stop-opacity="0"/></linearGradient><linearGradient id="paint1_linear" x1="162.191" y1="511.49" x2="105.76" y2="510.6" gradientUnits="userSpaceOnUse"><stop stop-color="#D857BC" stop-opacity=".15"/><stop offset=".365" stop-color="#D857BC" stop-opacity=".4"/><stop offset=".479" stop-color="#D857BC" stop-opacity=".5"/><stop offset=".599" stop-color="#D857BC" stop-opacity=".4"/><stop offset="1" stop-color="#D857BC" stop-opacity=".15"/></linearGradient><linearGradient id="paint2_linear" x1="337.998" y1="75.604" x2="324.41" y2="501.434" gradientUnits="userSpaceOnUse"><stop stop-color="#D857BC"/><stop offset="1" stop-color="#D857BC" stop-opacity="0"/></linearGradient><linearGradient id="paint3_linear" x1="817" y1="85.998" x2="399.624" y2="79.42" gradientUnits="userSpaceOnUse"><stop stop-color="#825FFE" stop-opacity=".2"/><stop offset=".365" stop-color="#825FFE" stop-opacity=".5"/><stop offset=".479" stop-color="#825FFE" stop-opacity=".7"/><stop offset=".599" stop-color="#825FFE" stop-opacity=".5"/><stop offset="1" stop-color="#825FFE" stop-opacity=".2"/></linearGradient><linearGradient id="paint4_linear" x1="458.076" y1="424.151" x2="447.904" y2="742.932" gradientUnits="userSpaceOnUse"><stop stop-color="#D857BC"/><stop offset="1" stop-color="#D857BC" stop-opacity="0"/></linearGradient><linearGradient id="paint5_linear" x1="816.663" y1="431.932" x2="504.21" y2="427.007" gradientUnits="userSpaceOnUse"><stop stop-color="#D857BC" stop-opacity=".15"/><stop offset=".365" stop-color="#D857BC" stop-opacity=".4"/><stop offset=".479" stop-color="#D857BC" stop-opacity=".5"/><stop offset=".599" stop-color="#D857BC" stop-opacity=".4"/><stop offset="1" stop-color="#D857BC" stop-opacity=".15"/></linearGradient><linearGradient id="paint6_linear" x1="-7.195" y1="289.832" x2="-8.941" y2="344.546" gradientUnits="userSpaceOnUse"><stop stop-color="#D857BC"/><stop offset="1" stop-color="#D857BC" stop-opacity="0"/></linearGradient><linearGradient id="paint7_linear" x1="54.35" y1="291.168" x2=".723" y2="290.322" gradientUnits="userSpaceOnUse"><stop stop-color="#D857BC" stop-opacity=".15"/><stop offset=".365" stop-color="#D857BC" stop-opacity=".4"/><stop offset=".479" stop-color="#D857BC" stop-opacity=".5"/><stop offset=".599" stop-color="#D857BC" stop-opacity=".4"/><stop offset="1" stop-color="#D857BC" stop-opacity=".15"/></linearGradient></defs></svg>