<svg xmlns="http://www.w3.org/2000/svg" viewBox="0 0 618 785"><linearGradient id="a" gradientUnits="userSpaceOnUse" x1="97.682" y1="422.192" x2="1.669" y2="422.192" gradientTransform="matrix(1 0 0 -1 0 786)"><stop offset="0" stop-color="#3b345b"/><stop offset=".278" stop-color="#3f355e"/><stop offset=".5" stop-color="#483763"/><stop offset=".521" stop-color="#473762"/><stop offset=".764" stop-color="#3a345b"/><stop offset="1" stop-color="#363358"/></linearGradient><path d="M99.1 389.4v-75.8H.6v75.8c0 1.1.9 2.3 2.6 3.2l40.3 20.1c3.5 1.8 9.2 1.8 12.7 0l40.3-20.1c1.7-.9 2.6-2.1 2.6-3.2z" fill="url(#a)"/><linearGradient id="b" gradientUnits="userSpaceOnUse" x1="49.841" y1="470.549" x2="49.841" y2="373.518" gradientTransform="matrix(1 0 0 -1 0 786)"><stop offset="0" stop-color="#333257" stop-opacity="0"/><stop offset=".75" stop-color="#333257"/><stop offset="1" stop-color="#333257"/></linearGradient><path fill="url(#b)" d="M.6 313.6h98.5v100.3H.6z"/><path d="M43.5 290.3c3.5-1.8 9.2-1.8 12.7 0l40.2 20.1c3.5 1.8 3.5 4.6 0 6.4l-40.2 20.1c-3.5 1.8-9.2 1.8-12.7 0L3.2 316.8c-3.5-1.8-3.5-4.6 0-6.4l40.3-20.1z" fill="#49397d"/><linearGradient id="c" gradientUnits="userSpaceOnUse" x1="114.253" y1="138.502" x2="63.559" y2="138.502" gradientTransform="matrix(1 0 0 -1 0 786)"><stop offset="0" stop-color="#3e3459"/><stop offset=".242" stop-color="#42355a"/><stop offset=".493" stop-color="#4f385d"/><stop offset=".5" stop-color="#4f385d"/><stop offset=".506" stop-color="#4f385d"/><stop offset=".757" stop-color="#42355a"/><stop offset="1" stop-color="#3e3459"/></linearGradient><path d="M115 661v-40H63v40c0 .6.5 1.2 1.4 1.7l21.3 10.6c1.8.9 4.9.9 6.7 0l21.3-10.6c.8-.5 1.3-1.1 1.3-1.7z" fill="url(#c)"/><linearGradient id="d" gradientUnits="userSpaceOnUse" x1="88.993" y1="164.033" x2="88.993" y2="112.764" gradientTransform="matrix(1 0 0 -1 0 786)"><stop offset="0" stop-color="#333257" stop-opacity="0"/><stop offset=".75" stop-color="#333257"/><stop offset="1" stop-color="#333257"/></linearGradient><path fill="url(#d)" d="M63 621h52v53H63z"/><path d="M85.6 608.7c1.9-.9 4.9-.9 6.7 0l21.2 10.6c1.9.9 1.9 2.4 0 3.4l-21.2 10.6c-1.9.9-4.9.9-6.7 0l-21.3-10.6c-1.9-.9-1.9-2.4 0-3.4l21.3-10.6z" fill="#ac5073"/><linearGradient id="e" gradientUnits="userSpaceOnUse" x1="617.026" y1="259.462" x2="523.289" y2="260.94" gradientTransform="matrix(1 0 0 -1 0 786)"><stop offset="0" stop-color="#37335a"/><stop offset=".319" stop-color="#3b345c"/><stop offset=".5" stop-color="#413560"/><stop offset=".532" stop-color="#3e345d"/><stop offset=".656" stop-color="#373358"/><stop offset="1" stop-color="#353357"/></linearGradient><path d="M618 550.8v-73.1h-95v73.1c0 1.1.8 2.2 2.5 3.1l38.8 19.4c3.4 1.7 8.9 1.7 12.3 0l38.8-19.4c1.8-.8 2.6-1.9 2.6-3.1z" fill="url(#e)"/><linearGradient id="f" gradientUnits="userSpaceOnUse" x1="570.5" y1="306.995" x2="570.5" y2="212.796" gradientTransform="matrix(1 0 0 -1 0 786)"><stop offset="0" stop-color="#333257" stop-opacity="0"/><stop offset=".75" stop-color="#333257"/><stop offset="1" stop-color="#333257"/></linearGradient><path fill="url(#f)" d="M523 477.2h95v97.4h-95z"/><path d="M564.4 455.3c3.4-1.7 8.9-1.7 12.3 0l38.8 19.4c3.4 1.7 3.4 4.4 0 6.1l-38.8 19.4c-3.4 1.7-8.9 1.7-12.3 0l-38.8-19.4c-3.4-1.7-3.4-4.4 0-6.1l38.8-19.4z" fill="#3f366a"/></svg>