<svg xmlns="http://www.w3.org/2000/svg" viewBox="0 0 617 785"><style>.st2{fill:#4f3b87}</style><g id="Layer_1"><linearGradient id="SVGID_1_" gradientUnits="userSpaceOnUse" x1="49.001" y1="321.383" x2="472" y2="321.383"><stop offset="0" stop-color="#3d345d"/><stop offset=".242" stop-color="#41355f"/><stop offset=".493" stop-color="#4e3867"/><stop offset=".5" stop-color="#4e3867"/><stop offset=".506" stop-color="#4e3867"/><stop offset=".757" stop-color="#41355f"/><stop offset="1" stop-color="#3d345d"/></linearGradient><path d="M472 431.2V105.8H49v325.5c0 4.9 3.7 9.9 11.3 13.6l173 86.5c15.1 7.6 39.5 7.6 54.6 0l173-86.5c7.4-3.8 11.1-8.7 11.1-13.7z" fill="url(#SVGID_1_)"/><linearGradient id="SVGID_2_" gradientUnits="userSpaceOnUse" x1="260.5" y1="113.849" x2="260.5" y2="530.957"><stop offset="0" stop-color="#333257" stop-opacity="0"/><stop offset=".75" stop-color="#333257"/><stop offset="1" stop-color="#333257"/></linearGradient><path fill="url(#SVGID_2_)" d="M49 105.8h423v431.3H49z"/><path class="st2" d="M233.2 5.7c15.1-7.5 39.5-7.5 54.6 0l172.9 86.4c15.1 7.5 15.1 19.8 0 27.3l-172.9 86.4c-15.1 7.5-39.5 7.5-54.6 0L60.3 119.4c-15.1-7.5-15.1-19.8 0-27.3L233.2 5.7z"/><linearGradient id="SVGID_3_" gradientUnits="userSpaceOnUse" x1="587.547" y1="461.744" x2="487.109" y2="461.744" gradientTransform="matrix(1 0 0 -1 0 786)"><stop offset="0" stop-color="#39335b"/><stop offset=".336" stop-color="#3d345d"/><stop offset=".5" stop-color="#423660"/><stop offset=".681" stop-color="#3c345c"/><stop offset="1" stop-color="#38325a"/></linearGradient><path d="M589 351v-79.2H486V351c0 1.2.9 2.4 2.8 3.3l42.1 21.1c3.7 1.8 9.6 1.8 13.3 0l42.1-21.1c1.8-.9 2.7-2.1 2.7-3.3z" fill="url(#SVGID_3_)"/><linearGradient id="SVGID_4_" gradientUnits="userSpaceOnUse" x1="537.5" y1="273.722" x2="537.5" y2="375.287"><stop offset="0" stop-color="#333257" stop-opacity="0"/><stop offset=".75" stop-color="#333257"/><stop offset="1" stop-color="#333257"/></linearGradient><path fill="url(#SVGID_4_)" d="M486 271.8h103v105H486z"/><path d="M530.9 247.4c3.7-1.8 9.6-1.8 13.3 0l42.1 21c3.7 1.8 3.7 4.8 0 6.6l-42.1 21c-3.7 1.8-9.6 1.8-13.3 0l-42.1-21c-3.7-1.8-3.7-4.8 0-6.6l42.1-21z" fill="#433774"/><linearGradient id="SVGID_5_" gradientUnits="userSpaceOnUse" x1="348.058" y1="205.899" x2="93.807" y2="205.899" gradientTransform="matrix(1 0 0 -1 0 786)"><stop offset="0" stop-color="#3d345d"/><stop offset=".242" stop-color="#41355f"/><stop offset=".493" stop-color="#4e3867"/><stop offset=".5" stop-color="#4e3867"/><stop offset=".506" stop-color="#4e3867"/><stop offset=".757" stop-color="#41355f"/><stop offset="1" stop-color="#3d345d"/></linearGradient><path d="M351.7 647.8V447.2H91v200.6c0 3 2.3 6.1 7 8.4l106.6 53.3c9.3 4.7 24.4 4.7 33.6 0l106.6-53.3c4.6-2.3 6.9-5.3 6.9-8.4z" fill="url(#SVGID_5_)"/><linearGradient id="SVGID_6_" gradientUnits="userSpaceOnUse" x1="221.369" y1="452.176" x2="221.369" y2="709.282"><stop offset="0" stop-color="#333257" stop-opacity="0"/><stop offset=".75" stop-color="#333257"/><stop offset="1" stop-color="#333257"/></linearGradient><path fill="url(#SVGID_6_)" d="M91 447.2h260.7V713H91z"/><path class="st2" d="M204.5 385.5c9.3-4.6 24.4-4.6 33.7 0l106.6 53.3c9.3 4.6 9.3 12.2 0 16.8l-106.6 53.3c-9.3 4.6-24.4 4.6-33.7 0L98 455.6c-9.3-4.6-9.3-12.2 0-16.8l106.5-53.3z"/><linearGradient id="SVGID_7_" gradientUnits="userSpaceOnUse" x1="402.659" y1="49.822" x2="310.023" y2="49.822" gradientTransform="matrix(1 0 0 -1 0 786)"><stop offset="0" stop-color="#3b345b"/><stop offset=".278" stop-color="#3f355e"/><stop offset=".5" stop-color="#483763"/><stop offset=".503" stop-color="#483763"/><stop offset=".764" stop-color="#3b345b"/><stop offset="1" stop-color="#363358"/></linearGradient><path d="M404 760.8v-73.1h-95v73.1c0 1.1.8 2.2 2.5 3.1l38.8 19.4c3.4 1.7 8.9 1.7 12.3 0l38.8-19.4c1.8-.8 2.6-1.9 2.6-3.1z" fill="url(#SVGID_7_)"/><linearGradient id="SVGID_8_" gradientUnits="userSpaceOnUse" x1="356.5" y1="689.576" x2="356.5" y2="783.634"><stop offset="0" stop-color="#333257" stop-opacity="0"/><stop offset=".75" stop-color="#333257"/><stop offset="1" stop-color="#333257"/></linearGradient><path fill="url(#SVGID_8_)" d="M309 687.8h95v97.3h-95z"/><path d="M350.4 665.3c3.4-1.7 8.9-1.7 12.3 0l38.8 19.4c3.4 1.7 3.4 4.4 0 6.1l-38.8 19.4c-3.4 1.7-8.9 1.7-12.3 0l-38.8-19.4c-3.4-1.7-3.4-4.4 0-6.1l38.8-19.4z" fill="#49397d"/></g></svg>