<svg width="617" height="785" fill="none" xmlns="http://www.w3.org/2000/svg"><g opacity=".5"><mask id="a" maskUnits="userSpaceOnUse" x="49" y="105" width="423" height="433"><path d="M472 431.203V105.75H49.001v325.453c0 4.89 3.732 9.909 11.325 13.641l172.957 86.478c15.056 7.593 39.507 7.593 54.564 0l172.957-86.478c7.464-3.732 11.196-8.623 11.196-13.641z" fill="url(#paint0_linear)"/></mask><g mask="url(#a)"><path d="M472 431.203V105.75H49.001v325.453c0 4.89 3.732 9.909 11.325 13.641l172.957 86.478c15.056 7.593 39.507 7.593 54.564 0l172.957-86.478c7.464-3.732 11.196-8.623 11.196-13.641z" fill="url(#paint1_linear)"/></g></g><path d="M233.201 5.654c15.077-7.539 39.521-7.539 54.598 0L460.692 92.1c15.077 7.539 15.077 19.761 0 27.299l-172.893 86.447c-15.077 7.538-39.521 7.538-54.598 0L60.308 119.399c-15.077-7.538-15.077-19.76 0-27.299L233.2 5.654z" fill="#4F3B87"/><g opacity=".6"><g opacity=".5"><mask id="b" maskUnits="userSpaceOnUse" x="486" y="271" width="103" height="106"><path d="M589 350.997V271.75H486v79.247c0 1.191.909 2.413 2.758 3.322l42.115 21.057c3.666 1.849 9.62 1.849 13.286 0l42.115-21.057c1.817-.909 2.726-2.1 2.726-3.322z" fill="url(#paint2_linear)"/></mask><g mask="url(#b)"><path d="M589 350.997V271.75H486v79.247c0 1.191.909 2.413 2.758 3.322l42.115 21.057c3.666 1.849 9.62 1.849 13.286 0l42.115-21.057c1.817-.909 2.726-2.1 2.726-3.322z" fill="url(#paint3_linear)"/></g></g><path d="M530.853 247.377c3.671-1.836 9.623-1.836 13.294 0l42.099 21.049c3.672 1.836 3.672 4.812 0 6.648l-42.099 21.049c-3.671 1.836-9.623 1.836-13.294 0l-42.1-21.049c-3.671-1.836-3.671-4.812 0-6.648l42.1-21.049z" fill="#4F3B87"/></g><g opacity=".8"><g opacity=".5"><mask id="c" maskUnits="userSpaceOnUse" x="309" y="687" width="95" height="98"><path d="M404 760.842V687.75h-95v73.092c0 1.099.838 2.226 2.544 3.064l38.843 19.422c3.382 1.705 8.873 1.705 12.255 0l38.844-19.422c1.676-.838 2.514-1.937 2.514-3.064z" fill="url(#paint4_linear)"/></mask><g mask="url(#c)"><path d="M404 760.842V687.75h-95v73.092c0 1.099.838 2.226 2.544 3.064l38.843 19.422c3.382 1.705 8.873 1.705 12.255 0l38.844-19.422c1.676-.838 2.514-1.937 2.514-3.064z" fill="url(#paint5_linear)"/></g></g><path d="M350.369 665.27c3.386-1.693 8.876-1.693 12.262 0l38.829 19.414c3.386 1.693 3.386 4.438 0 6.131l-38.829 19.415c-3.386 1.693-8.876 1.693-12.262 0l-38.829-19.415c-3.387-1.693-3.387-4.438 0-6.131l38.829-19.414z" fill="#4F3B87"/></g><g opacity=".5"><mask id="d" maskUnits="userSpaceOnUse" x="91" y="447" width="261" height="267"><path d="M351.737 647.793V447.184H91v200.609c0 3.014 2.3 6.108 6.981 8.408l106.611 53.306c9.281 4.68 24.352 4.68 33.633 0l106.611-53.306c4.6-2.3 6.901-5.314 6.901-8.408z" fill="url(#paint6_linear)"/></mask><g mask="url(#d)"><path d="M351.737 647.793V447.184H91v200.609c0 3.014 2.3 6.108 6.981 8.408l106.611 53.306c9.281 4.68 24.352 4.68 33.633 0l106.611-53.306c4.6-2.3 6.901-5.314 6.901-8.408z" fill="url(#paint7_linear)"/></g></g><path d="M204.541 385.485c9.294-4.647 24.361-4.647 33.654 0l106.572 53.286c9.293 4.646 9.293 12.18 0 16.827l-106.572 53.285c-9.293 4.647-24.36 4.647-33.654 0L97.97 455.598c-9.293-4.647-9.293-12.181 0-16.827l106.571-53.286z" fill="#4F3B87"/><defs><linearGradient id="paint0_linear" x1="-7.002" y1="37.604" x2="-20.59" y2="463.434" gradientUnits="userSpaceOnUse"><stop stop-color="#D857BC"/><stop offset="1" stop-color="#D857BC" stop-opacity="0"/></linearGradient><linearGradient id="paint1_linear" x1="472" y1="47.998" x2="54.624" y2="41.42" gradientUnits="userSpaceOnUse"><stop stop-color="#D857BC" stop-opacity=".15"/><stop offset=".365" stop-color="#D857BC" stop-opacity=".4"/><stop offset=".479" stop-color="#D857BC" stop-opacity=".5"/><stop offset=".599" stop-color="#D857BC" stop-opacity=".4"/><stop offset="1" stop-color="#D857BC" stop-opacity=".15"/></linearGradient><linearGradient id="paint2_linear" x1="472.364" y1="255.157" x2="469.055" y2="358.846" gradientUnits="userSpaceOnUse"><stop stop-color="#D857BC"/><stop offset="1" stop-color="#D857BC" stop-opacity="0"/></linearGradient><linearGradient id="paint3_linear" x1="589" y1="257.688" x2="487.369" y2="256.086" gradientUnits="userSpaceOnUse"><stop stop-color="#D857BC" stop-opacity=".15"/><stop offset=".365" stop-color="#D857BC" stop-opacity=".4"/><stop offset=".479" stop-color="#D857BC" stop-opacity=".5"/><stop offset=".599" stop-color="#D857BC" stop-opacity=".4"/><stop offset="1" stop-color="#D857BC" stop-opacity=".15"/></linearGradient><linearGradient id="paint4_linear" x1="296.423" y1="672.446" x2="293.371" y2="768.081" gradientUnits="userSpaceOnUse"><stop stop-color="#D857BC"/><stop offset="1" stop-color="#D857BC" stop-opacity="0"/></linearGradient><linearGradient id="paint5_linear" x1="404" y1="674.78" x2="310.263" y2="673.302" gradientUnits="userSpaceOnUse"><stop stop-color="#D857BC" stop-opacity=".15"/><stop offset=".365" stop-color="#D857BC" stop-opacity=".4"/><stop offset=".479" stop-color="#D857BC" stop-opacity=".5"/><stop offset=".599" stop-color="#D857BC" stop-opacity=".4"/><stop offset="1" stop-color="#D857BC" stop-opacity=".15"/></linearGradient><linearGradient id="paint6_linear" x1="56.48" y1="405.179" x2="48.104" y2="667.661" gradientUnits="userSpaceOnUse"><stop stop-color="#D857BC"/><stop offset="1" stop-color="#D857BC" stop-opacity="0"/></linearGradient><linearGradient id="paint7_linear" x1="351.737" y1="411.586" x2="94.466" y2="407.531" gradientUnits="userSpaceOnUse"><stop stop-color="#D857BC" stop-opacity=".15"/><stop offset=".365" stop-color="#D857BC" stop-opacity=".4"/><stop offset=".479" stop-color="#D857BC" stop-opacity=".5"/><stop offset=".599" stop-color="#D857BC" stop-opacity=".4"/><stop offset="1" stop-color="#D857BC" stop-opacity=".15"/></linearGradient></defs></svg>