<svg version="1.1" id="Layer_1" xmlns="http://www.w3.org/2000/svg" x="0" y="0" viewBox="0 0 817 1005" xml:space="preserve"><style>.st2{fill:#41366f}</style><linearGradient id="SVGID_1_" gradientUnits="userSpaceOnUse" x1="161.605" y1="457.331" x2="105.174" y2="458.221" gradientTransform="matrix(1 0 0 -1 0 1006)"><stop offset="0" stop-color="#38335a"/><stop offset=".3" stop-color="#42355f"/><stop offset=".5" stop-color="#463662"/><stop offset=".7" stop-color="#42365f"/><stop offset="1" stop-color="#38335a"/></linearGradient><path d="M162.2 563.3v-44H105v44c0 .7.5 1.3 1.5 1.8l23.4 11.7c2 1 5.3 1 7.4 0l23.4-11.7c1-.5 1.5-1.1 1.5-1.8z" fill="url(#SVGID_1_)"/><linearGradient id="SVGID_2_" gradientUnits="userSpaceOnUse" x1="133.595" y1="485.614" x2="133.595" y2="429.224" gradientTransform="matrix(1 0 0 -1 0 1006)"><stop offset="0" stop-color="#333257" stop-opacity="0"/><stop offset=".75" stop-color="#333257"/><stop offset="1" stop-color="#333257"/></linearGradient><path fill="url(#SVGID_2_)" d="M105 519.3h57.2v58.3H105z"/><path class="st2" d="M129.9 505.8c2-1 5.3-1 7.4 0l23.4 11.7c2 1 2 2.7 0 3.7l-23.4 11.7c-2 1-5.3 1-7.4 0l-23.4-11.7c-2-1-2-2.7 0-3.7l23.4-11.7z"/><linearGradient id="SVGID_3_" gradientUnits="userSpaceOnUse" x1="811.032" y1="646.617" x2="398.555" y2="646.617" gradientTransform="matrix(1 0 0 -1 0 1006)"><stop offset="0" stop-color="#36335e"/><stop offset=".3" stop-color="#3a3665"/><stop offset=".5" stop-color="#3d386d"/><stop offset=".7" stop-color="#3a3665"/><stop offset="1" stop-color="#36335e"/></linearGradient><path d="M817 469.2V143.8H394v325.5c0 4.9 3.7 9.9 11.3 13.6l173 86.5c15.1 7.6 39.5 7.6 54.6 0l173-86.5c7.4-3.8 11.1-8.7 11.1-13.7z" fill="url(#SVGID_3_)"/><linearGradient id="SVGID_4_" gradientUnits="userSpaceOnUse" x1="605.5" y1="854.038" x2="605.5" y2="428.467" gradientTransform="matrix(1 0 0 -1 0 1006)"><stop offset="0" stop-color="#333257" stop-opacity="0"/><stop offset=".75" stop-color="#333257"/><stop offset="1" stop-color="#333257"/></linearGradient><path fill="url(#SVGID_4_)" d="M394 143.7h423v440.1H394z"/><path d="M578.2 43.7c15.1-7.5 39.5-7.5 54.6 0l172.9 86.4c15.1 7.5 15.1 19.8 0 27.3l-172.9 86.4c-15.1 7.5-39.5 7.5-54.6 0l-172.9-86.4c-15.1-7.5-15.1-19.8 0-27.3l172.9-86.4z" fill="#6a51cc"/><linearGradient id="SVGID_5_" gradientUnits="userSpaceOnUse" x1="813.418" y1="368.209" x2="500.965" y2="373.134" gradientTransform="matrix(1 0 0 -1 0 1006)"><stop offset="0" stop-color="#38335a"/><stop offset=".3" stop-color="#42355f"/><stop offset=".5" stop-color="#463662"/><stop offset=".7" stop-color="#42365f"/><stop offset="1" stop-color="#38335a"/></linearGradient><path d="M816.7 718.8V475.2H500v243.6c0 3.7 2.8 7.4 8.5 10.2L638 793.8c11.3 5.7 29.6 5.7 40.8 0L808.3 729c5.6-2.8 8.4-6.4 8.4-10.2z" fill="url(#SVGID_5_)"/><linearGradient id="SVGID_6_" gradientUnits="userSpaceOnUse" x1="658.331" y1="524.81" x2="658.331" y2="212.581" gradientTransform="matrix(1 0 0 -1 0 1006)"><stop offset="0" stop-color="#333257" stop-opacity="0"/><stop offset=".75" stop-color="#333257"/><stop offset="1" stop-color="#333257"/></linearGradient><path fill="url(#SVGID_6_)" d="M500 475.2h316.7v322.9H500z"/><path d="M637.9 400.2c11.3-5.6 29.6-5.6 40.9 0l129.4 64.7c11.3 5.6 11.3 14.8 0 20.4L678.8 550c-11.3 5.6-29.6 5.6-40.9 0l-129.4-64.7c-11.3-5.6-11.3-14.8 0-20.4l129.4-64.7z" fill="#4f3b87"/><linearGradient id="SVGID_7_" gradientUnits="userSpaceOnUse" x1="53.582" y1="679.706" x2=".586" y2="679.706" gradientTransform="matrix(1 0 0 -1 0 1006)"><stop offset="0" stop-color="#37335a"/><stop offset=".3" stop-color="#3c345d"/><stop offset=".5" stop-color="#413560"/><stop offset=".7" stop-color="#3c345d"/><stop offset="1" stop-color="#37335a"/></linearGradient><path d="M54.3 340.4v-41.8H0v41.8c0 .6.5 1.3 1.5 1.8l22.2 11.1c1.9 1 5.1 1 7 0l22.2-11.1c1-.5 1.5-1.2 1.4-1.8z" fill="url(#SVGID_7_)"/><linearGradient id="SVGID_8_" gradientUnits="userSpaceOnUse" x1="27.16" y1="706.378" x2="27.16" y2="652.792" gradientTransform="matrix(1 0 0 -1 0 1006)"><stop offset="0" stop-color="#333257" stop-opacity="0"/><stop offset=".75" stop-color="#333257"/><stop offset="1" stop-color="#333257"/></linearGradient><path fill="url(#SVGID_8_)" d="M0 298.6h54.3V354H0z"/><path class="st2" d="M23.7 285.7c1.9-1 5.1-1 7 0l22.2 11.1c1.9 1 1.9 2.5 0 3.5l-22.2 11.1c-1.9 1-5.1 1-7 0L1.5 300.3c-1.9-1-1.9-2.5 0-3.5l22.2-11.1z"/></svg>