<?xml version="1.0" encoding="utf-8"?>
<!-- Generator: Adobe Illustrator 26.3.1, SVG Export Plug-In . SVG Version: 6.00 Build 0)  -->
<svg version="1.1" id="Layer_1" xmlns="http://www.w3.org/2000/svg" xmlns:xlink="http://www.w3.org/1999/xlink" x="0px" y="0px"
	 viewBox="0 0 80 80" style="enable-background:new 0 0 80 80;" xml:space="preserve">
<style type="text/css">
	.st0{fill:#FFFFFF;}
	.st1{fill:#8B00FF;}
	.st2{opacity:0.4;fill:#8B00FF;enable-background:new    ;}
</style>
<path class="st0" d="M40,0L40,0c22.1,0,40,17.9,40,40l0,0c0,22.1-17.9,40-40,40l0,0C17.9,80,0,62.1,0,40l0,0C0,17.9,17.9,0,40,0z"/>
<g>
	<path class="st1" d="M44.2,29.2c0,2.3-1.9,4.2-4.2,4.2c-2.3,0-4.2-1.9-4.2-4.2S37.7,25,40,25C42.3,25,44.2,26.9,44.2,29.2z"/>
	<path class="st2" d="M29.8,45.4l6.2,7.7c2.1,2.6,6,2.6,8.1,0l6.2-7.7c0.9-1.1,1.4-2.5,1.4-4v-0.3c0-3.4-2.8-6.1-6.2-6.1
		c-1.6,0-3.2,0.6-4.4,1.8L40,37.9l-1.1-1.1c-1.2-1.1-2.7-1.8-4.4-1.8c-3.4,0-6.2,2.7-6.2,6.1v0.3C28.3,42.9,28.8,44.3,29.8,45.4z"/>
</g>
</svg>
