<?xml version="1.0" encoding="utf-8"?>
<!-- Generator: Adobe Illustrator 26.3.1, SVG Export Plug-In . SVG Version: 6.00 Build 0)  -->
<svg version="1.1" id="Layer_1" xmlns="http://www.w3.org/2000/svg" xmlns:xlink="http://www.w3.org/1999/xlink" x="0px" y="0px"
	 viewBox="0 0 80 80" style="enable-background:new 0 0 80 80;" xml:space="preserve">
<style type="text/css">
	.st0{fill:#FFFFFF;}
	.st1{opacity:0.4;fill-rule:evenodd;clip-rule:evenodd;fill:#8B00FF;enable-background:new    ;}
	.st2{fill:#8B00FF;}
</style>
<path class="st0" d="M40,0L40,0c22.1,0,40,17.9,40,40l0,0c0,22.1-17.9,40-40,40l0,0C17.9,80,0,62.1,0,40l0,0C0,17.9,17.9,0,40,0z"/>
<g>
	<path class="st1" d="M30,26.7h20c1.8,0,3.3,1.4,3.3,3.2h-8.5c-1.8,0-3.3,1.5-3.3,3.3v15.1H26.7V30C26.7,28.2,28.2,26.7,30,26.7z"/>
	<path class="st2" d="M43.3,35c0-1.8,1.5-3.3,3.3-3.3h6.7c1.8,0,3.3,1.5,3.3,3.3v15c0,1.8-1.5,3.3-3.3,3.3h-6.7
		c-1.8,0-3.3-1.5-3.3-3.3V35z"/>
	<path class="st2" d="M41.7,48.3H25.8c-1.4,0-2.5,1.1-2.5,2.5s1.1,2.5,2.5,2.5h15.8V48.3z"/>
</g>
</svg>
