<?xml version="1.0" encoding="utf-8"?>
<!-- Generator: Adobe Illustrator 26.3.1, SVG Export Plug-In . SVG Version: 6.00 Build 0)  -->
<svg version="1.1" id="Layer_1" xmlns="http://www.w3.org/2000/svg" xmlns:xlink="http://www.w3.org/1999/xlink" x="0px" y="0px"
	 viewBox="0 0 79.9 80" style="enable-background:new 0 0 79.9 80;" xml:space="preserve">
<style type="text/css">
	.st0{fill:#FFFFFF;}
	.st1{opacity:0.4;fill:#8B00FF;enable-background:new    ;}
	.st2{fill:#8B00FF;}
</style>
<path class="st0" d="M40.1,0L40.1,0c22.1,0,40,17.9,40,40l0,0c0,22.1-17.9,40-40,40l0,0c-22.1,0-40-17.9-40-40l0,0
	C0.1,17.9,18,0,40.1,0z"/>
<g>
	<path class="st1" d="M55.1,50V31.7h-30V50c0,3.7,3,6.7,6.7,6.7h16.7C52.1,56.7,55.1,53.7,55.1,50z"/>
	<path class="st2" d="M31.8,50c0-1.8,1.5-3.3,3.3-3.3c1.8,0,3.3,1.5,3.3,3.3v6.7h-6.7V50z"/>
	<path class="st2" d="M56.8,33.7V30c0-3.7-3-6.7-6.7-6.7h-20c-3.7,0-6.7,3-6.7,6.7v3.8c0,3.5,2.5,6.2,5.6,6.2c3.1,0,5.6-2.8,5.6-6.2
		c0,3.5,2.5,6.2,5.6,6.2c3.1,0,5.6-2.8,5.6-6.2c0,3.5,2.5,6.2,5.6,6.2C54.3,40,56.8,37.2,56.8,33.7z"/>
	<path class="st2" d="M43.4,45c0-0.9,0.7-1.7,1.7-1.7h3.3c0.9,0,1.7,0.7,1.7,1.7v1.7c0,0.9-0.7,1.7-1.7,1.7h-3.3
		c-0.9,0-1.7-0.7-1.7-1.7V45z"/>
</g>
</svg>
