<?xml version="1.0" encoding="utf-8"?>
<!-- Generator: Adobe Illustrator 26.3.1, SVG Export Plug-In . SVG Version: 6.00 Build 0)  -->
<svg version="1.1" id="Layer_1" xmlns="http://www.w3.org/2000/svg" xmlns:xlink="http://www.w3.org/1999/xlink" x="0px" y="0px"
	 viewBox="0 0 80 80" style="enable-background:new 0 0 80 80;" xml:space="preserve">
<style type="text/css">
	.st0{fill:#FFFFFF;}
	.st1{opacity:0.4;}
	.st2{fill:#8B00FF;}
	.st3{fill-rule:evenodd;clip-rule:evenodd;fill:#8B00FF;}
</style>
<path class="st0" d="M40,0L40,0c22.1,0,40,17.9,40,40l0,0c0,22.1-17.9,40-40,40l0,0C17.9,80,0,62.1,0,40l0,0C0,17.9,17.9,0,40,0z"/>
<g>
	<g class="st1">
		<path class="st2" d="M48.3,53.3v-5H31.7v5c0,1.8,1.5,3.3,3.3,3.3h10C46.8,56.7,48.3,55.2,48.3,53.3z"/>
		<path class="st2" d="M48.3,26.7v5H31.7v-5c0-1.8,1.5-3.3,3.3-3.3h10C46.8,23.3,48.3,24.8,48.3,26.7z"/>
	</g>
	<path class="st3" d="M35,28.3c-3.7,0-6.7,3-6.7,6.7v10c0,3.7,3,6.7,6.7,6.7h10c3.7,0,6.7-3,6.7-6.7V35c0-3.7-3-6.7-6.7-6.7H35z
		 M41.2,35c0-0.7-0.6-1.2-1.2-1.2c-0.7,0-1.2,0.6-1.2,1.2v4.2l-2.6,1.3c-0.6,0.3-0.9,1.1-0.6,1.7s1.1,0.9,1.7,0.6l3.3-1.7
		c0.4-0.2,0.7-0.6,0.7-1.1V35z"/>
</g>
</svg>
