<svg xmlns="http://www.w3.org/2000/svg" viewBox="0 0 763.3 1113.87"><defs><style>.cls-1{fill:#fff;opacity:.5;isolation:isolate}</style></defs><g id="Layer_2" data-name="Layer 2"><g id="Layer_2-2" data-name="Layer 2"><g id="_002" data-name="2"><path class="cls-1" d="M201.7 390.57c76-62 87.9-21.3 155.9-41.8s58.5-58.7 95.6-101 113.2-25.9 113.2-25.9 49.1 14.9 107.4-16.4 85.7 0 85.7 0l3.8 908.4H0v-545.4s13-15.7 37.5-25.6c26.1-10.6 83.7-2.5 99.5-33.5 19.6-38.3 29.6-86.8 64.7-118.8zM225 267.67s34.6-16.2 75.6-69.4c31.4-40.8 73.2-50.1 103-61.4 4.1 0 81.6-21.9 112.5-35.6 33.8-15 71.6-52.6 108-72 121-64.4 66.5-5.7 45.7 16.6-24.8 26.6-34.3 63.7-43.6 86.6-7.7 19-32.7 30.2-57.2 30.4-73.8 1.2-56.7 45.8-160.7 48-109.2 2.4-94 61-183.3 56.8zM0 288.57c96.5-48.4 46.8 5.1 27.2 26.2-12.1 13-20.6 28.5-27.2 43.7 0-21.6.6-49.6 0-69.9zM0 123.07a443.45 443.45 0 0030-34.8c15-19.4 48.3-29.5 70.6-26.4 24.5 3.4 57.4 8.1 93.6 4.5 30.3-3 101 4.1-23.5 61.5-37.4 17.2-80.6 9.2-113.1 27C43 162.77 20 178.57 0 193c.1-22.93.1-36.33 0-69.93z"/></g></g></g></svg>