<svg xmlns="http://www.w3.org/2000/svg" viewBox="0 0 763 1053"><defs><linearGradient id="linear-gradient" x1="784.03" y1="1015.72" x2="151.1" y2="145.86" gradientTransform="translate(0 64)" gradientUnits="userSpaceOnUse"><stop offset=".19" stop-color="#1b0a4c"/><stop offset="1" stop-color="#662d91"/></linearGradient><style>.cls-2{fill:#360f5d}</style></defs><g id="Layer_2" data-name="Layer 2"><g id="Layer_3" data-name="Layer 3"><g id="_003" data-name="3"><path d="M0 1053V561.6l67.5-62.1 69.5 18.8 57-78.4 22-33.8 67.3 44L427.4 267l53.8 21.7 67.4-144.3 112.3 23 58.2-128.5L763 0v1053z" fill="url(#linear-gradient)"/><path class="cls-2" d="M481.1 288.8l-75 149.6 6.7-103.8 29-21-17-15.6 2.5-31zM660.9 167.5l-120.1 90.4 7.7-113.3L569 148zM216 406.2l48.5 67.9 18.8-23.9zM719.1 38.9L746.5 90l16.5 43.2V0l-43.9 38.9zM67.5 499.5l32.9 66.6 36.6-47.7-69.5-18.9z"/></g></g></g></svg>