<svg xmlns="http://www.w3.org/2000/svg" viewBox="0 0 763.2 682.8"><g data-name="Layer 2"><g data-name="Layer 4"><path data-name="4" d="M753.1 31.7h1.5l-8.9 24.5-7.9-25.7-10.1 31.7h1.5l-6.9 18.9-5.2-14 3.7-.1-8.8-23.7h3.1l-9.5-28.9-8.7 29.2h3.4l-8.2 23.9 3.7-.1-8.7 25.5 4.2-.1-6.9 20.3-2.9-6.6h1.6l-9-20.1h2.9l-8.3-19.1-8.3 19.1h2.9l-7.6 17.1-5.4-14.8 3.1.1-6.5-17.7h1.5l-6.9-18.7-7.6 18.4h1.5l-7.2 17.4 3.1.1-7.9 19.2-7.3-15.5 4.1-.1-9.9-21 3.4-.1-8.7-18.4-7.9 18.7 3.4-.1-9 21.4 4.1-.1-9 21.3 4.6-.1-10.3 24.3-4.6-23.1h6.2L574.2 98l3.3.4-8.4-16.3h2.6l-7.5-17.3-6.5 17.4h2.6l-.5 2.3-6.8 13.4 3.7-.4-9.3 17.6h5.4l-11.1 49.2-7.8-27.5 3.2-.1-10.6-27.3 3.1.4-10.3-24.4-7 24.4 2.8-.2-8.3 27.8 3.5-.1-10.6 60-12.1-25.5h5.8l-15.1-20 3.5-.3-16-26.6-8.3 28.4h3.3l-7.7 24.6 3.6-.8-5.2 29.7-2.1-7 2.9-.3-7.4-14.7-.2-.6h2.2l-8.2-20-.2-.6 2.6.6-9.7-24.4-7.5 23h2.5l-.1.7-7.8 19.7h2.9l-8 19.8 4.6-.4-6.4 29.7-3.9-11.2h3.6l-14.9-35.9 3-.4-9.9-18.8-.4 1.1-.4-1.1-.9 5-4.6 13.7 2.1.1-1.2 6.7-7.9 28.6-6.6-13.2-.6-1.9 3.4-.1-9-18.9-8.3 18.4 3 .4-8.5 17.2 3.6.5v.1l-8.1 14.1-8.8-22.7 3.1.4-10.3-24.6-7 24.4 2.8-.2-8.3 27.8 3.5-.1-2.3 13h-.5l-8.9-15.6 4-.6-7.8-15.7h2.3l-6.4-17.4-6.1 17.4h3l-7.4 15.7 3.5-.4-6.8 13.8-5.2-14 2.7.2-10.5-21.2h2.1l-8.1-15.9-6.4 15.3 2.1.2-8.3 19.1 3 .2-3.1 10.8-6.7-20.5 4.7.5-9.1-15 2.5.1-9.4-19.8v.1l-8.2 18.9 2.4.3-7.5 16.4 2.9-.3-5 17-3.3-9.2h1.8l-14.7-35.3-.2-.5 3-.4-9.9-18.8-7.2 19.5 2.8.1-8.3 37.6 3.6-.2-5.2 27.7-3.3-8.2 3.9-.1-8.4-21 3.4-.1-8.41-21H174l-7.3-18.5-6.7 18.7h2.87l-7.57 21.3 3.4-.1-7.5 21.3 3.9-.1-4.8 13.5-5.2-14.2 3.1.1-6.5-17.7h1.5l-6.9-18.7-7.6 18.4h1.5l-7.2 17.4 3.1.1-11 26.6-5.9-13.7h1.6l-9-20.1h2.9l-8.4-18.9-8.2 19H91l-9 20.1h1.6l-6.9 16H80l-3.2 7.3-5-13.4H74l-5.3-14.2h1.9L65 247.2l-5.2 17.5h2L56.9 279h2.2l-3.6 10.4-3.6-8.8 1.4-.1-7.1-18.4-5.4 19 1.3-.1-4.5 14.7-6.5-13.5h1.6l-9.2-21.9L14 282h1.4l-7.2 14.4L2 282.2l-2 4.7v395.9h763V208l.2-208zM345.8 248.6l-2.1-7.4h3.2l-1-2.5 2.6.2zm31.6-20.8l-3.1-5.5-.3-1.1 2.4-.2h2.3z" fill="#270d50"/></g></g></svg>