<svg xmlns="http://www.w3.org/2000/svg" xmlns:xlink="http://www.w3.org/1999/xlink" viewBox="0 0 763 776.96"><defs><linearGradient id="linear-gradient" x1="381.5" y1="712.96" x2="381.5" y2="298.96" gradientTransform="translate(0 64)" gradientUnits="userSpaceOnUse"><stop offset="0" stop-color="#3a2c6f"/><stop offset=".1" stop-color="#3a2c6f"/><stop offset="1" stop-color="#38276c"/></linearGradient><linearGradient id="linear-gradient-2" x1="485.17" y1="456.02" x2="581.11" y2="428.58" gradientTransform="translate(0 64)" gradientUnits="userSpaceOnUse"><stop offset="0" stop-color="#6b2d91"/><stop offset="1" stop-color="#9482ba"/></linearGradient><linearGradient id="linear-gradient-3" x1="329.26" y1="384.83" x2="493.79" y2="316.92" xlink:href="#linear-gradient-2"/><linearGradient id="linear-gradient-4" x1="436.5" y1="523.17" x2="436.5" y2="269.92" gradientTransform="translate(0 64)" gradientUnits="userSpaceOnUse"><stop offset="0" stop-color="#662d91"/><stop offset="1" stop-color="#b282ba"/></linearGradient><linearGradient id="linear-gradient-5" x1="569.5" y1="521.72" x2="569.5" y2="271.33" xlink:href="#linear-gradient-4"/><linearGradient id="linear-gradient-6" x1="234.34" y1="83.15" x2="332.27" y2="100.19" gradientTransform="translate(0 64)" gradientUnits="userSpaceOnUse"><stop offset="0" stop-color="#502982"/><stop offset="1" stop-color="#b282ba"/></linearGradient><linearGradient id="linear-gradient-7" x1="277.72" y1="152.74" x2="418.41" y2="258.37" gradientTransform="translate(0 64)" gradientUnits="userSpaceOnUse"><stop offset="0" stop-color="#090540"/><stop offset="1" stop-color="#59347d"/></linearGradient><linearGradient id="linear-gradient-8" x1="231.51" y1="194.67" x2="323.74" y2="236.84" gradientTransform="translate(0 64)" gradientUnits="userSpaceOnUse"><stop offset="0" stop-color="#090540"/><stop offset="1" stop-color="#5c3582"/></linearGradient><linearGradient id="linear-gradient-9" x1="327.4" y1="290.45" x2="383.09" y2="282.26" gradientTransform="translate(0 64)" gradientUnits="userSpaceOnUse"><stop offset="0" stop-color="#38276c"/><stop offset="1" stop-color="#583683"/></linearGradient><linearGradient id="linear-gradient-10" x1="218.35" y1="314.21" x2="284.28" y2="314.21" xlink:href="#linear-gradient-9"/><linearGradient id="linear-gradient-11" x1="259.84" y1="85.41" x2="370.74" y2="74.97" gradientTransform="translate(0 64)" gradientUnits="userSpaceOnUse"><stop offset="0" stop-color="#644092"/><stop offset="1" stop-color="#8b70b1"/></linearGradient><linearGradient id="linear-gradient-12" x1="272.71" y1="70.58" x2="382.53" y2="50.32" gradientTransform="translate(0 64)" gradientUnits="userSpaceOnUse"><stop offset="0" stop-color="#472870"/><stop offset="1" stop-color="#a988d8"/></linearGradient><linearGradient id="linear-gradient-13" x1="309.86" y1="-25.24" x2="260.27" y2="-26.7" gradientTransform="translate(0 64)" gradientUnits="userSpaceOnUse"><stop offset="0" stop-color="#68378f"/><stop offset="1" stop-color="#7b55ab"/></linearGradient><linearGradient id="linear-gradient-14" x1="704.7" y1="-205.72" x2="704.7" y2="-254.82" gradientTransform="matrix(1 0 0 -1 0 411.93)" xlink:href="#linear-gradient-4"/><style>.cls-9{fill:#45196f}.cls-12{fill:#22024a}</style></defs><g id="Layer_2" data-name="Layer 2"><g id="Layer_5" data-name="Layer 5"><g id="_005" data-name="5"><path d="M569 523.56l-44.3-64.8-39.2-12.6-38.4-44.1L387.5 363l-63.1.9-35.8 28.8h-68.5l-84 42-31.9 37.5-67.1 28L0 546v231h763v-72.3l-43.9-63.4-28.8-15.8-51.1-52.6-20.2-30.24z" fill="url(#linear-gradient)"/><path d="M524.7 458.76l-4.7 33.4 18.1 38.3 31 15.5v-22.4z" fill="url(#linear-gradient-2)"/><path d="M387.5 363l26.9 56.7 31.9 35.3 39.2-8.8-38.4-44.1z" fill="url(#linear-gradient-3)"/><path d="M387.5 363l26.9 56.7 31.9 35.3 39.2-8.8-38.4-44.1z" fill="url(#linear-gradient-4)"/><path d="M524.7 458.76l-4.7 33.4 18.1 38.3 31 15.5 49.9-3.3-49.9-19.1z" fill="url(#linear-gradient-5)"/><path d="M422.5 137.86h4.3v264.9h-4.3z" fill="#583683"/><path d="M420.6 140.06h7.9v58.2h-7.9z" fill="#744393"/><path d="M253 83.16s-21.9 41.3-20 70.4c1.9 28.5 27.7 65.4 27.7 65.4l11.4-6.9-18.5-58.5 18.8-37.3c0 .2 2.4-14.4-19.4-33.1z" fill="url(#linear-gradient-6)"/><path class="cls-9" d="M260.6 219.06c-8.7-12.2-13-20.2-19.8-36.6L254.5 110l12.8 16.3L254 154l18.1 58.2z"/><path d="M335.6 189.46s38.3 41.6 42.5 54.1c2.5 7.5-15.2 95.1-15.2 95.1h-17l-5.6-85.8-83.3-63.4z" fill="url(#linear-gradient-7)"/><path d="M305.1 189.46l-41.8 179h-16.6l2.4-179z" fill="url(#linear-gradient-8)"/><path class="cls-12" d="M298 220.46l-34.1-25.9 30.3 42z"/><path d="M342.9 334.76l23.1.9 1.1 10.3s15.9.1 19.5 5 1.3 12 1.3 12l-44.7.6z" fill="url(#linear-gradient-9)"/><path d="M243.9 363.76L267 365l1 10.3s15.9.3 19.4 5.3 1.1 12.1 1.1 12.1h-44.6z" fill="url(#linear-gradient-10)"/><path d="M292.8 7.66c10.8-1.3 24.6 2.2 24.6 19s-.9 40.3-11.5 39.2c-16.7-1.5-30-16.8-30-16.8s-7.4-38.3 16.9-41.4z" fill="#d096d0"/><path d="M346.8 203.76S333.1 179 329.6 152s0-82.4 0-82.4-55.5-5.3-76.6 13.7c0 0 4.1 59.3 0 75.3-8.5 33.5-6.2 60.6-6.2 60.6s50 16.8 100-15.44z" fill="url(#linear-gradient-11)"/><path class="cls-12" d="M294.2 62.76c-1.3-2.9-21.9-20.4-21.9-20.4s-1.6-34.5 9.9-33.5c0 0 3-5.6 13.6-5.6s22.6 5.6 24.6 14.6c2.2 9-9.2 7.5-13.4 13.7-2.1 3.3-6.7 30-12.8 31.2z"/><path class="cls-9" d="M334 172.46l-19.2-53.4L328.5 135z"/><path d="M329.6 69.56l28.3 61.1 56.8 20.1-1.9 12.5s-59.2-2.4-65.7-5.3-32.2-39-32.2-39-7.9-27.1 14.7-49.4z" fill="url(#linear-gradient-12)"/><path d="M414.3 151s4.6-5 7-5.9 5.2 2.9 5.2 2.9 10.6-3.2 10.1 2.9-.3 19.8-24.1 12.5z" fill="#2f0b5c"/><path d="M305.9 69.06l2.4-.3a21.71 21.71 0 01-6.3-10.4c-1.7-6.8-2.3-26.9-.4-34.2 2.4-9.8 4.7-16 7.8-18.1.4-.3.4-.6.6-1 .3-3.4-21.1-9.3-32.6-.3-12.8 10-13.1 22.2-12.8 33.1s9.2 30.4 8 34.1 4.5 4.7 12.2 4c5.3-.6 11.8-3.4 15.2-5a15.17 15.17 0 015.9-1.9z" fill="url(#linear-gradient-13)"/><path fill="url(#linear-gradient-14)" d="M719.1 641.26l-28.8-15.8 13.3 17.1 15.5-1.3z"/></g></g></g></svg>