<svg width="100" height="100" viewBox="0 0 100 100" fill="none" xmlns="http://www.w3.org/2000/svg"><g clip-path="url(#clip0_111_919)"><circle cx="50" cy="50" r="50" fill="#F2F2F2"/><g clip-path="url(#clip1_111_919)"><path d="M80.667 162.498a3.198 3.198 0 0 0-.358-.965c-.333-.6-.834-1.081-1.408-1.45-.6-.387-1.271-.642-1.95-.857a14.934 14.934 0 0 0-2.237-.522c-.372-.057-.74-.089-1.11-.109.109-.091.023-.299-.123-.298-.65.005-1.318-.03-1.945-.206a6.036 6.036 0 0 1-1.792-.856c-1.142-.791-1.938-1.979-2.527-3.217a14.395 14.395 0 0 1-.39-.907.308.308 0 0 0 .091-.304 383.244 383.244 0 0 0-.85-3.566c-.139-.579-.285-1.155-.431-1.732-.057-.225-.12-.448-.183-.671a.331.331 0 0 0 .18-.26c.098-.749-.13-1.477-.372-2.176-.263-.763-.528-1.525-.793-2.288l-.21-.603a.14.14 0 0 0 .007-.066c-.184-1.238-.34-2.478-.563-3.71-.198-1.093-.4-2.187-.582-3.283-.163-1.568-.452-3.127-.695-4.682l-.451-2.88a93.48 93.48 0 0 0-.153-.938 82.176 82.176 0 0 0-.014-6.012c-.007-.197-.01-.398-.014-.6.055.002.115-.03.112-.095-.025-.525-.003-1.053 0-1.58.014-.018.029-.034.039-.057a86.145 86.145 0 0 0 1.694-4.291.362.362 0 0 0 .33-.142 16.882 16.882 0 0 0 2.472-5.524.26.26 0 0 0 .188-.158 22.251 22.251 0 0 0 1.174-3.112c.148-.508.277-1.021.387-1.539l.045.2c.062.276.49.272.555 0 .323-1.372.34-2.84.15-4.256.206-1.39-.01-2.76-.388-4.098a.347.347 0 0 0 .278-.4 29.132 29.132 0 0 0-1.458-5.092.32.32 0 0 0 .016-.199c-.605-2.28-1.212-4.559-1.798-6.844.055-.128.097-.264.139-.4a5.01 5.01 0 0 0 .17-.866c.074-.588.096-1.184.127-1.777a.096.096 0 0 0 .04-.066c.051-.338.033-.687.016-1.032.026-.595.043-1.19.05-1.786.033.162.078.32.148.466.034.073.159.056.174-.023.095-.47-.02-.988-.073-1.459-.056-.509-.11-1.018-.163-1.528-.02-.186-.034-.372-.052-.558.159-.364.15-.82.146-1.204a18.076 18.076 0 0 0-.07-1.392 20.615 20.615 0 0 0-.17-1.369c-.068-.421-.132-.861-.265-1.27l.027-.855c.035-1.052.067-2.103.106-3.154.045-.134.092-.267.145-.398.032-.08-.002-.14-.057-.176.107-.085.216-.17.334-.244.153-.098.314-.185.48-.26.14-.063.297-.114.425-.203a82.002 82.002 0 0 0 1.752-.6c1.065-.383 2.125-.812 3.084-1.419.946-.598 1.756-1.36 2.354-2.31.32-.51.583-1.055.838-1.6.255-.543.518-1.087.712-1.655a5.48 5.48 0 0 0 .317-1.977c-.019-.547-.079-1.087-.107-1.632.784-.639 1.134-1.791 1.198-2.753.032-.5 0-1.065-.29-1.492-.343-.505-.894-.562-1.457-.558-2.662.02-5.325-.063-7.98-.25-.37-.027-.74-.058-1.11-.084l-.556-.04c-.12-.008-.275 0-.376-.08-.013-.01-.017-.029-.027-.042a.323.323 0 0 0 .118-.182c.024-.004.05-.006.073-.017.147-.064.272-.251.206-.418a27.054 27.054 0 0 0-.583-1.374c-.098-.212-.2-.422-.305-.63-.044-.088-.092-.186-.148-.28.022-.35.02-.702-.03-1.045-.02-.132-.13-.184-.243-.18.037-.141.078-.282.11-.425.117-.541.194-1.09.25-1.641.115-1.145.13-2.3.07-3.449a41.649 41.649 0 0 0-.337-3.422c-.125-.92-.253-1.848-.489-2.748-.012-.278-.025-.554-.032-.826-.025-1.083.014-2.192-.142-3.265-.064-.438-.161-.978-.558-1.246-.434-.295-.845-.022-1.125.33a27.283 27.283 0 0 0-1.45 2.029c-2.24 2.877-3.768 6.243-5.5 9.437-.3.556-.602 1.112-.906 1.666.019-.158.036-.319.03-.478-.007-.194-.003-.4-.135-.555-.05-.06-.167-.06-.218 0-.106.123-.112.255-.135.409-.022.15-.036.3-.046.45-.008.12-.025.239-.037.358-.007-.039-.015-.077-.021-.116-.009-.048-.014-.097-.024-.144a.351.351 0 0 0-.087-.167c-.042-.048-.133-.048-.175 0-.086.099-.093.215-.093.34 0 .123.011.24.036.36.042.207.11.405.191.6l-.176.015-2.464.209c-.806.069-1.611.143-2.417.219-.622.059-1.271.101-1.895.217-.2-.232-.402-.464-.605-.695-.155-.176-.446-.03-.449.186-.002.145 0 .29-.003.435a62.272 62.272 0 0 0-.501-.946c-.094-.173-.365-.13-.415.054-.008.03-.013.061-.02.092l-.027-.034-1.285-1.592c-.86-1.066-1.706-2.148-2.602-3.185-.867-1.002-1.867-1.823-2.933-2.604-1.095-.803-2.197-1.596-3.296-2.394-.577-.42-1.154-.838-1.733-1.255-.211-.153-.434-.324-.707-.325-.286 0-.508.203-.579.471-.075.283-.025.617-.014.904a348.727 348.727 0 0 0 .127 3.168c.06 1.397.13 2.794.204 4.19.064 1.203.122 2.407.252 3.605.272 2.5.842 5.09 2.188 7.25l-.297.063c-.184.037-.217.273-.105.395.73.8 1.362 1.678 1.903 2.615-.068.015-.136.028-.203.052-.182.065-.223.257-.106.403.28.349.566.692.855 1.031-.042.165.002.352.026.517.012.085.03.167.047.25a.345.345 0 0 0-.335.323c-.045.51.32.895.462 1.357.146.475.134.978.106 1.47-.03.528-.068 1.055-.074 1.585-.004.292-.005.585.017.877.008.116.018.237.036.357-.05.515-.1 1.03-.144 1.545l-.037.413c-.036.099-.073.196-.095.305-.035.167-.064.335-.092.503a270.364 270.364 0 0 0-.442 2.857l-.136.924c-.045.307-.122.626-.135.937a.557.557 0 0 0 .146.403 7.8 7.8 0 0 0-.19 1.931.32.32 0 0 0 .239.314c-.088.343-.164.69-.227 1.038-.075.416-.157.852-.184 1.286-.581.868-1.133 1.757-1.696 2.635-.403.63-.804 1.262-1.203 1.895-.15.238-.299.476-.444.717-.41.326-.82.65-1.211.999a25.327 25.327 0 0 0-2.73 2.846.35.35 0 0 0-.085.24 17.306 17.306 0 0 0-2.68 3.944 13.23 13.23 0 0 0-.486 1.09c-.237.274-.464.554-.677.838-.37.493-.708 1.01-1.01 1.546-.227.406-.507.877-.598 1.355-.316.343-.634.685-.943 1.035-.208.234-.411.471-.606.717-.187.237-.418.484-.5.78-.546.406-1.077.832-1.583 1.288a22.65 22.65 0 0 0-3.131 3.482 17.727 17.727 0 0 0-.785 1.168l-.877.786c-.013-.097-.121-.184-.223-.118-1.41.904-2.709 1.99-4.034 3.013-1.331 1.028-2.666 2.052-3.995 3.082a61.62 61.62 0 0 0-1.115.884c-.18.147-.36.295-.533.451-.167.15-.361.29-.472.489-.032.059-.009.12.035.155-.083.091-.167.182-.248.274a26.948 26.948 0 0 0-2.937 3.985.29.29 0 0 0-.037.107 25.615 25.615 0 0 0-3.522 4.879c-.215.39-.418.786-.6 1.193a21.84 21.84 0 0 0-.59.589c-.429.453-.847.918-1.269 1.379-.845.921-1.687 1.845-2.53 2.768a.308.308 0 0 0-.058.344c-1.974 2.405-3.72 5.007-4.745 7.958a18.28 18.28 0 0 0-.402 1.29 21.62 21.62 0 0 0-1.91 4.486c-.17.572-.335 1.159-.416 1.754-.072.163-.148.325-.215.49a14.53 14.53 0 0 0-.72 2.213c-.088.378-.16.761-.206 1.147-.042.351-.085.746.003 1.096a8.305 8.305 0 0 0-.061 1.62c.023.351.065.742.166 1.109-.015.807-.013 1.613.005 2.424.03 1.305.157 2.601.24 3.902a.324.324 0 0 0 .137.257c.054 1.314.077 2.698.45 3.965.05.166.243.165.327.053a.285.285 0 0 0 .178.134c.011.213.024.426.043.638.015.17.022.36.078.522a.844.844 0 0 0 .043.098c-.381.599-.764 1.199-1.086 1.83-.469.918-.876 1.985-.69 3.032.195 1.104 1.17 1.757 2.143 2.142 1.014.403 2.126.504 3.209.532 2.469.064 4.946.003 7.415-.005 2.543-.007 5.089.02 7.631-.04a45.514 45.514 0 0 0 2.056-.09c.4-.028.82-.052 1.202-.173.312.602 1.127.859 1.72 1.07.788.279 1.686.614 2.514.315.381-.137.716-.356 1.038-.599.162-.123.328-.246.483-.381.01-.001.02-.001.03-.005.356-.139.689-.346 1.033-.514.328-.161.666-.285 1.003-.423.62-.253 1.21-.644 1.252-1.379.019-.333-.081-.63-.236-.905l.028.016c.172.172.39.308.606.424.23.176.457.358.686.536.052.04.113.09.18.141.123.29.156.605.415.835.321.284.75.315 1.156.364a87.01 87.01 0 0 0 1.528.17 119.545 119.545 0 0 0 16.555.565c.532-.018 1.073-.018 1.602-.077a2.64 2.64 0 0 0 .571-.129c.513.177 1.111.176 1.628.104a4.501 4.501 0 0 0 1.002-.253c.31-.119.667-.253.906-.493.255-.258.353-.629.364-1.008.316-.153.484-.579.602-.886a3.86 3.86 0 0 0 .232-1.19 4.19 4.19 0 0 0-.593-2.323c-.473-.804-1.158-1.44-1.943-1.925a.161.161 0 0 0-.053-.13c-.61-.56-1.195-1.126-1.91-1.554a6.136 6.136 0 0 0-2.286-.806c-1.499-.218-3.015-.032-4.499.227a4.351 4.351 0 0 0-.55-.138l.004-.008c.334-.668.763-1.285 1.077-1.964.327-.709.441-1.431.478-2.206.04-.823.044-1.648.01-2.471-.01-.284-.03-.567-.052-.849.263-.74.505-1.488.735-2.24.131.211.494.193.594-.086.526-1.459.91-2.96 1.148-4.484.091.355.28.651.695.614.114-.01.26-.081.278-.212a26.32 26.32 0 0 0 .263-3.639c.215.187.49.093.592-.159.35-.867.46-1.809.51-2.751.1.644.21 1.287.323 1.928.067.378.14.756.227 1.13.089.376.158.761.315 1.115.023.052.06.083.103.097.043.688.107 1.373.2 2.057v.005l.01.084c.048.341.513.262.601-.014.051.311.096.622.151.933.118.662.244 1.323.382 1.982.14.669.269 1.371.566 1.992.058.121.197.128.295.069.007.143.016.285.021.427a.28.28 0 0 0 .071.18c.093.761.22 1.518.384 2.267.217.98.474 1.993.845 2.947-.006.399.012.798.043 1.186.073.905.24 1.805.49 2.678.07.247.346.29.518.175.17.73.323 1.464.46 2.202.031.174.231.282.394.258a.371.371 0 0 0 .135-.049c.075.359.156.717.247 1.074a25.513 25.513 0 0 0 .681 2.235c.081.227.154.455.278.659a6.52 6.52 0 0 0-.191 1.658c0 .623.043 1.265.3 1.841.502 1.121 1.811 1.57 2.89 1.931a15.581 15.581 0 0 0 5.862.769c.388-.024.79-.064 1.05-.284.264.075.547.106.811.135.439.048.883.055 1.324.048.747-.014 1.603-.026 2.27-.407.155-.087.284-.197.397-.318a.388.388 0 0 0 .189-.096c.127-.122.185-.301.252-.459.095-.221.185-.442.264-.669.294-.843.456-1.719.316-2.609-.137-.867-.616-1.544-1.339-2.027-.759-.506-1.607-.905-2.436-1.282a21.92 21.92 0 0 0-1.459-.612 6.602 6.602 0 0 0-.544-.173c-.38-.868-.789-1.723-1.183-2.585-.102-.223-.367-.163-.484-.001a29.7 29.7 0 0 1-.993-2.282 30.052 30.052 0 0 1-.991-3.067c-.006-.019-.01-.041-.014-.061l-.15-2.36a.282.282 0 0 0 .203-.255 32.565 32.565 0 0 0-.54-7.961.32.32 0 0 0 .068-.17 20.316 20.316 0 0 0-.224-5.482c.386 1.856.811 3.705 1.155 5.57.636 3.449.885 6.971 2.004 10.318.285.853.573 1.845 1.208 2.51.32.336.725.583 1.11.837.328.217.654.44 1.003.62-.001.098.07.207.183.217.806.072 1.35.741 1.778 1.366a52.52 52.52 0 0 1 1.557 2.446c.5.822.976 1.658 1.43 2.505.455.845.846 1.721 1.29 2.57.2.379.476.703.86.902.404.21.86.316 1.3.422a20.57 20.57 0 0 0 2.91.464c1.882.175 3.778.138 5.666.081.01.111.092.213.24.22.222.012.426.038.65.016a15.459 15.459 0 0 0 1.991-.386c.422-.114.84-.25 1.238-.427.248-.11.492-.277.627-.514l.009.003a.318.318 0 0 0 .35-.228l.09-.34.045-.16c.237-.273.178-.65.118-.98Z" fill="#969696"/></g></g><defs><clipPath id="clip0_111_919"><rect width="100" height="100" rx="50" fill="#fff"/></clipPath><clipPath id="clip1_111_919"><path fill="#fff" transform="translate(21 22)" d="M0 0h58v78H0z"/></clipPath></defs></svg>