<svg width="100" height="100" viewBox="0 0 100 100" fill="none" xmlns="http://www.w3.org/2000/svg"><g clip-path="url(#clip0_169_5681)"><circle cx="50" cy="50" r="50" fill="#F2F2F2"/><mask id="mask0_169_5681" style="mask-type:alpha" maskUnits="userSpaceOnUse" x="0" y="0" width="100" height="100"><circle cx="50" cy="50" r="50" fill="#C4C4C4"/></mask><g mask="url(#mask0_169_5681)"><path d="M85.955 59.564c-6.966-2.318-13.754-4.87-19.454-9.5l.013-.031c.04-.087.075-.18.11-.275 2.833 2.06 6.023 3.537 9.205 5.002.104.049.195-.097.092-.155-3.074-1.716-6.324-3.112-9.199-5.148.165-.557.27-1.21.333-1.85 4.262.586 8.345 1.5 12.319 3.188.09.038.169-.085.079-.134-3.803-2.056-8.124-2.789-12.373-3.332.02-.238.035-.471.045-.694 2.457-.53 4.88-.892 7.422-.575.064.008.077-.098.014-.111-2.536-.48-4.967-.076-7.428.469.026-.744.007-1.334-.013-1.512-.05-.452 0-2.563.151-3.518.152-.954.91-1.91 1.568-3.115.658-1.207.556-4.07.86-5.528.304-1.458.658-2.311.961-4.573.303-2.262.455-6.734-1.113-7.387-1.569-.652-5.01 2.11-7.132 4.17-2.126 2.061-3.34 3.769-4.25 4.473-.91.703-2.024.352-3.845.955-1.822.602-4.907-.1-6.526-.402-1.62-.302-4.249-1.156-4.249-1.156s-1.996-3.618-2.845-4.624c-.848-1.004-3.075-4.924-4.542-5.679-1.466-.753-2.934-.904-3.945 1.006-1.012 1.909-1.721 2.965-1.517 6.533.201 3.568-.07 4.322-.036 5.88.036 1.557-.572 4.12 1.047 5.83 0 0-.304 2.913.152 4.27 0 0-.195.875-.185 2.237-2.303-.49-4.588-.819-6.964-.37-.064.012-.05.12.014.112 2.38-.297 4.657.005 6.955.479.007.268.02.552.047.852-4.098.537-8.243 1.287-11.906 3.27-.09.048-.012.171.078.133 3.829-1.626 7.759-2.532 11.853-3.12a13.7 13.7 0 0 0 .26 1.584c.039.172.059.345.09.518-2.762 1.868-5.836 3.201-8.75 4.828-.103.058-.012.204.093.155 3-1.381 6.006-2.771 8.714-4.652.019.133.04.267.055.4-5.583 4.352-12.156 6.813-18.896 9.055-.078.026-.046.144.035.124 6.761-1.69 13.418-4.527 18.888-8.875.032.344.055.686.067 1.026-2.935 3.015-5.716 6.255-7.554 10.046-.053.109.104.204.166.096 2.057-3.563 4.644-6.685 7.402-9.703.035 1.837-.077 3.543.45 4.82.81 1.96-.86 5.025-1.77 6.784-.912 1.759-2.732 6.281-1.72 11.507.53 2.743.338 5.28-.913 7.844-2.863 5.86-4.827 15.722-3.765 22.09-6.294.293-8.68 9.177-8.932 14.257-.158 3.174 1.38 16.894 5.24 18.044-8.908-2.656-17.883-9.584-21.92-17.958-4.876-10.116-4.772-22.721 3-31.534C7 83.5 8.08 90.68 11.08 88.073c-.581.399-2.566-14.362-9.77-9.5-13.283 8.965-14.383 27.312-10.013 41.055 2.28 7.165 6.098 13.477 12.197 18.036 5.396 4.032 17.397 10.983 24.26 10.843.081-.003.155-.008.234-.012.526 1.107.959 2.254 1.22 3.437.752 2.499 2.398 1.566 2.398 1.566 1.568 1.557 2.984.754 2.984.754 1.518 1.357 3.035.452 3.035.452 3.795 1.106 4.907-2.462 4.806-3.216-.102-.753.354-1.557 1.264-1.408.91.151 3.745-.049 4.25-.201.506-.151 1.01-.25 1.417.1.728.627 2.833-.338 2.502.345-.354.732.327 4.675 3.613 2.739 1.139 1.436 4.334 1.173 4.947-.118.03.348.497.619 2.773.614 3.975-.011 2.547-3.238 1.684-5.306-.244-.584-.383-1.042-.448-1.453 1.968-1.375 3.86-2.327 5.34-4.45 1.59-2.284 2.32-5.162 3.474-7.661.015-.034.023-.066.036-.099 2.107-2.751 4.312-5.419 5.579-8.693 1.758-4.542 3.101-14.035-.024-19.371-1.482-2.53-4.302-5.007-7.474-4.076 1.002-4.802-.025-10.926-.902-15.692-.843-4.571-3.877-8.438-4.514-13.05-.463-3.35.494-6.685.164-10.057-.428-4.355-1.483-8.222-.084-12.377 3.1 3.331 6.039 6.745 8.323 10.703.063.107.22.013.166-.096-2.011-4.151-5.156-7.64-8.392-10.897.083-.23.179-.46.278-.692 5.584 4.64 12.491 7.637 19.515 9.392.082.024.114-.094.036-.12Z" fill="#969696"/></g></g><defs><clipPath id="clip0_169_5681"><rect width="100" height="100" rx="50" fill="#fff"/></clipPath></defs></svg>