<?xml version="1.0" encoding="UTF-8" standalone="no"?>
<svg
   width="787.60571"
   height="500"
   viewBox="0 0 787.60571 500"
   fill="none"
   version="1.1"
   id="svg49"
   sodipodi:docname="footer-bg.svg"
   inkscape:version="1.2 (dc2aeda, 2022-05-15)"
   xmlns:inkscape="http://www.inkscape.org/namespaces/inkscape"
   xmlns:sodipodi="http://sodipodi.sourceforge.net/DTD/sodipodi-0.dtd"
   xmlns="http://www.w3.org/2000/svg"
   xmlns:svg="http://www.w3.org/2000/svg">
  <sodipodi:namedview
     id="namedview51"
     pagecolor="#ffffff"
     bordercolor="#000000"
     borderopacity="0.25"
     inkscape:showpageshadow="2"
     inkscape:pageopacity="0.0"
     inkscape:pagecheckerboard="0"
     inkscape:deskcolor="#d1d1d1"
     showgrid="false"
     inkscape:zoom="0.472"
     inkscape:cx="215.04237"
     inkscape:cy="250"
     inkscape:window-width="1309"
     inkscape:window-height="456"
     inkscape:window-x="0"
     inkscape:window-y="38"
     inkscape:window-maximized="0"
     inkscape:current-layer="svg49" />
  <mask
     id="mask0_538_19695"
     maskUnits="userSpaceOnUse"
     x="-306"
     y="0"
     width="1771"
     height="500">
    <rect
       x="-305.5"
       width="1770"
       height="500"
       rx="41"
       fill="#ffffff"
       id="rect9"
       y="0" />
    <rect
       x="-305.5"
       width="1770"
       height="500"
       rx="41"
       fill="url(#paint0_linear_538_19695)"
       id="rect11"
       y="0" />
  </mask>
  <g
     mask="url(#mask0_538_19695)"
     id="g40"
     transform="translate(-139.5)">
    <g
       opacity="0.05"
       id="g38">
      <path
         d="m 758.158,-31.4994 c 27.216,5.1889 54.748,8.613 82.419,10.251 l -4.801,-5.9705 v -0.6759 l -0.686,-0.901 -0.686,-0.9014 -1.829,-2.0277 v -0.5631 l -0.572,-0.6759 -3.086,-3.4922 c -21.148,1.4645 -43.896,3.7173 -67.787,7.0968 z M 472.72,61.8886 c 28.11,24.3499 58.99,45.4064 92.022,62.7474 C 639.317,92.3226 718.453,71.3921 799.425,62.5645 L 786.164,60.8748 C 723.466,53.7833 662.09,38.0461 603.836,14.1244 l -9.259,-4.0556 C 552.667,24.2295 511.927,41.5542 472.72,61.8886 Z M 360.237,131.733 c -18.519,13.593 -36.466,27.937 -53.841,43.033 16.27,27.81 34.933,54.193 55.784,78.856 17.223,-15.471 35.78,-30.491 55.67,-45.061 18.062,-13.218 36.237,-25.384 54.527,-36.499 -21.898,-13.989 -42.756,-29.499 -62.414,-46.413 -6.402,-5.519 -12.46,-11.265 -18.176,-16.447 -10.517,7.097 -21.033,14.42 -31.55,22.531 z M 143.044,363.795 c 10.446,28.974 24.214,56.678 41.038,82.574 v 0 0.675 l 0.8,1.352 v 0.564 0.563 l 0.686,1.126 v 0.564 l 0.686,0.901 0.685,1.127 c 0.049,0.184 0.049,0.378 0,0.563 l 1.029,1.351 v 0.676 l 2.515,3.605 c 22.014,-40.417 47.565,-78.865 76.361,-114.905 11.431,-13.856 22.862,-27.824 35.665,-41.68 -7.201,-7.886 -14.403,-16.11 -21.376,-24.671 -13.821,-16.728 -26.719,-34.177 -38.638,-52.271 -38.666,41.892 -73.156,87.349 -102.995,135.746"
         fill="#ffffff"
         id="path14" />
      <path
         d="m 758.158,-31.4994 c 27.216,5.1889 54.748,8.613 82.419,10.251 l -4.801,-5.9705 v -0.6759 l -0.686,-0.901 -0.686,-0.9014 -1.829,-2.0277 v -0.5631 l -0.572,-0.6759 -3.086,-3.4922 c -21.148,1.4645 -43.896,3.7173 -67.787,7.0968 z M 472.72,61.8886 c 28.11,24.3499 58.99,45.4064 92.022,62.7474 C 639.317,92.3226 718.453,71.3921 799.425,62.5645 L 786.164,60.8748 C 723.466,53.7833 662.09,38.0461 603.836,14.1244 l -9.259,-4.0556 C 552.667,24.2295 511.927,41.5542 472.72,61.8886 Z M 360.237,131.733 c -18.519,13.593 -36.466,27.937 -53.841,43.033 16.27,27.81 34.933,54.193 55.784,78.856 17.223,-15.471 35.78,-30.491 55.67,-45.061 18.062,-13.218 36.237,-25.384 54.527,-36.499 -21.898,-13.989 -42.756,-29.499 -62.414,-46.413 -6.402,-5.519 -12.46,-11.265 -18.176,-16.447 -10.517,7.097 -21.033,14.42 -31.55,22.531 z M 143.044,363.795 c 10.446,28.974 24.214,56.678 41.038,82.574 v 0 0.675 l 0.8,1.352 v 0.564 0.563 l 0.686,1.126 v 0.564 l 0.686,0.901 0.685,1.127 c 0.049,0.184 0.049,0.378 0,0.563 l 1.029,1.351 v 0.676 l 2.515,3.605 c 22.014,-40.417 47.565,-78.865 76.361,-114.905 11.431,-13.856 22.862,-27.824 35.665,-41.68 -7.201,-7.886 -14.403,-16.11 -21.376,-24.671 -13.821,-16.728 -26.719,-34.177 -38.638,-52.271 -38.666,41.892 -73.156,87.349 -102.995,135.746"
         fill="#ffffff"
         id="path16" />
      <path
         d="m 776.664,192.007 c 49.403,7.794 99.374,11.562 149.406,11.266 0,-3.267 0,-6.647 -0.8,-9.914 v -1.126 c -0.044,-0.186 -0.044,-0.378 0,-0.564 0,-3.942 -0.686,-7.773 -1.143,-11.265 -49.449,0.932 -98.801,4.694 -147.806,11.265 z m -344.995,113.666 -12.345,6.984 c 27.069,23.415 56.397,44.167 87.563,61.959 75.367,-38.451 155.822,-66.321 239.027,-82.799 21.948,-4.281 43.096,-7.698 63.443,-10.252 -35.174,-3.908 -70.069,-9.965 -104.481,-18.137 -36.115,-8.202 -71.724,-18.432 -106.654,-30.641 -57.785,18.914 -113.565,43.324 -166.553,72.886 z M 206.703,480.057 c 16.623,20.229 35.19,38.828 55.442,55.538 v 0 l 1.028,0.901 3.315,2.816 0.915,0.789 0.914,0.788 1.143,0.901 0.801,0.564 0.686,0.563 0.571,0.563 0.915,0.676 h 0.685 0.572 c 13.565,-14.194 27.625,-27.9 42.181,-41.118 37.962,-32.893 78.775,-62.445 121.971,-88.319 C 408.588,396.734 380.871,376.426 354.966,354 301.52,391.098 251.967,433.365 207.046,480.17"
         fill="#ffffff"
         id="path18" />
      <path
         d="m 776.664,192.007 c 49.403,7.794 99.374,11.562 149.406,11.266 0,-3.267 0,-6.647 -0.8,-9.914 v -1.126 c -0.044,-0.186 -0.044,-0.378 0,-0.564 0,-3.942 -0.686,-7.773 -1.143,-11.265 -49.449,0.932 -98.801,4.694 -147.806,11.265 z m -344.995,113.666 -12.345,6.984 c 27.069,23.415 56.397,44.167 87.563,61.959 75.367,-38.451 155.822,-66.321 239.027,-82.799 21.948,-4.281 43.096,-7.698 63.443,-10.252 -35.174,-3.908 -70.069,-9.965 -104.481,-18.137 -36.115,-8.202 -71.724,-18.432 -106.654,-30.641 -57.785,18.914 -113.565,43.324 -166.553,72.886 z M 206.703,480.057 c 16.623,20.229 35.19,38.828 55.442,55.538 v 0 l 1.028,0.901 3.315,2.816 0.915,0.789 0.914,0.788 1.143,0.901 0.801,0.564 0.686,0.563 0.571,0.563 0.915,0.676 h 0.685 0.572 c 13.565,-14.194 27.625,-27.9 42.181,-41.118 37.962,-32.893 78.775,-62.445 121.971,-88.319 C 408.588,396.734 380.871,376.426 354.966,354 301.52,391.098 251.967,433.365 207.046,480.17"
         fill="#ffffff"
         id="path20" />
      <path
         d="m 635.841,429.251 c 62.865,18.116 128.032,27.295 193.53,27.262 9.374,0 17.947,0 25.606,0 l -2.743,3.83 c 6.744,-9.35 13.031,-19.038 18.976,-28.952 v -0.675 l 4.8,-8.337 c -27.549,-2.704 -57.956,-4.506 -90.421,-4.506 -50.546,-0.02 -100.997,4.315 -150.777,12.955 z m -130.545,34.584 c -72.751,24.754 -141.773,59.086 -205.191,102.062 11.432,7.098 22.863,13.744 34.294,19.827 22.567,11.567 46.179,21.033 70.531,28.276 v 0 c 96.043,-54.421 202.809,-87.918 313.101,-98.233 -68.777,-9.77 -135.884,-28.72 -199.475,-56.325 l -13.488,4.506 z m 344.994,-1.352 0.686,-0.901 z m -6.287,8.449 6.287,-8.449 z m -0.572,0.789 c 0.123,-0.305 0.32,-0.576 0.572,-0.789 -0.252,0.213 -0.449,0.484 -0.572,0.789 z m -0.8,0.901 0.8,-0.901 z m -0.685,2.14 v 0.564 z m -0.572,1.352 v -0.563 l -0.572,0.788 z m -1.6,1.577 0.914,-1.239 c -0.342,0.385 -0.648,0.8 -0.914,1.239 z m -0.915,1.127 c 0.24,-0.423 0.549,-0.804 0.915,-1.127 -0.366,0.323 -0.675,0.704 -0.915,1.127 z m -0.571,1.126 v -0.563 z m -11.432,13.744 c 3.887,-4.506 7.774,-9.013 11.432,-13.631 -3.773,4.618 -7.659,9.125 -11.432,13.631 z m -1.028,1.126 -0.458,-1.239 -0.914,1.014 z m -2.287,0.789 0.8,-0.901 z m -1.143,1.239 0.915,-0.901 z"
         fill="#ffffff"
         id="path22" />
      <path
         d="m 635.841,429.251 c 62.865,18.116 128.032,27.295 193.53,27.262 9.374,0 17.947,0 25.606,0 l -2.743,3.83 c 6.744,-9.35 13.031,-19.038 18.976,-28.952 v -0.675 l 4.8,-8.337 c -27.549,-2.704 -57.956,-4.506 -90.421,-4.506 -50.546,-0.02 -100.997,4.315 -150.777,12.955 z m -130.545,34.584 c -72.751,24.754 -141.773,59.086 -205.191,102.062 11.432,7.098 22.863,13.744 34.294,19.827 22.567,11.567 46.179,21.033 70.531,28.276 v 0 c 96.043,-54.421 202.809,-87.918 313.101,-98.233 -68.777,-9.77 -135.884,-28.72 -199.475,-56.325 l -13.488,4.506 z m 344.994,-1.352 0.686,-0.901 z m -6.287,8.449 6.287,-8.449 z m -0.572,0.789 c 0.123,-0.305 0.32,-0.576 0.572,-0.789 -0.252,0.213 -0.449,0.484 -0.572,0.789 z m -0.8,0.901 0.8,-0.901 z m -0.685,2.14 v 0.564 z m -0.572,1.352 v -0.563 l -0.572,0.788 z m -1.6,1.577 0.914,-1.239 c -0.342,0.385 -0.648,0.8 -0.914,1.239 z m -0.915,1.127 c 0.24,-0.423 0.549,-0.804 0.915,-1.127 -0.366,0.323 -0.675,0.704 -0.915,1.127 z m -0.571,1.126 v -0.563 z m -11.432,13.744 c 3.887,-4.506 7.774,-9.013 11.432,-13.631 -3.773,4.618 -7.659,9.125 -11.432,13.631 z m -1.028,1.126 -0.458,-1.239 -0.914,1.014 z m -2.287,0.789 0.8,-0.901 z m -1.143,1.239 0.915,-0.901 z"
         fill="#ffffff"
         id="path24" />
      <path
         d="m 159.731,46.2321 c 31.374,97.8119 85.109,187.2239 157.065,261.3519 163.695,167.062 371.743,199.956 491.542,203.448 28.94,-28.781 53.297,-61.71 72.245,-97.668 -62.185,5.52 -311.615,14.194 -494.4,-172.583 C 307.253,158.728 254.027,55.9723 232.891,-55.1543 203.196,-25.3 178.363,8.89946 159.273,46.2321"
         fill="#ffffff"
         id="path26" />
      <path
         d="m 159.731,46.2321 c 31.374,97.8119 85.109,187.2239 157.065,261.3519 163.695,167.062 371.743,199.956 491.542,203.448 28.94,-28.781 53.297,-61.71 72.245,-97.668 -62.185,5.52 -311.615,14.194 -494.4,-172.583 C 307.253,158.728 254.027,55.9723 232.891,-55.1543 203.196,-25.3 178.363,8.89946 159.273,46.2321"
         fill="#ffffff"
         id="path28" />
      <path
         d="m 268.324,-86.4716 c 5.022,15.359 10.977,30.4064 17.833,45.0606 90.421,195.788 327.619,316.213 620.601,316.213 3.658,0 7.316,0 17.49,0.788 1.933,-16.189 2.887,-32.477 2.857,-48.778 -0.008,-15.694 -0.885,-31.376 -2.629,-46.975 -263.718,1.126 -476.11,-101.3868 -550.413,-261.4647 -8.526,-18.4953 -15.299,-37.7283 -20.233,-57.4523 -30.58,13.882 -59.3,31.439 -85.506,52.2704"
         fill="#ffffff"
         id="path30" />
      <path
         d="m 268.324,-86.4716 c 5.022,15.359 10.977,30.4064 17.833,45.0606 90.421,195.788 327.619,316.213 620.601,316.213 3.658,0 7.316,0 17.49,0.788 1.933,-16.189 2.887,-32.477 2.857,-48.778 -0.008,-15.694 -0.885,-31.376 -2.629,-46.975 -263.718,1.126 -476.11,-101.3868 -550.413,-261.4647 -8.526,-18.4953 -15.299,-37.7283 -20.233,-57.4523 -30.58,13.882 -59.3,31.439 -85.506,52.2704"
         fill="#ffffff"
         id="path32" />
      <path
         d="M 388.93,-152.709 C 490.096,-20.7937 671.852,55.3588 883.216,55.3588 h 5.144 C 871.537,20.1754 849.628,-12.4193 823.316,-41.4088 689.799,-50.421 574.115,-98.5234 497.983,-174 c -37.182,2.116 -73.885,9.32 -109.053,21.404"
         fill="#ffffff"
         id="path34" />
      <path
         d="M 388.93,-152.709 C 490.096,-20.7937 671.852,55.3588 883.216,55.3588 h 5.144 C 871.537,20.1754 849.628,-12.4193 823.316,-41.4088 689.799,-50.421 574.115,-98.5234 497.983,-174 c -37.182,2.116 -73.885,9.32 -109.053,21.404"
         fill="#ffffff"
         id="path36" />
    </g>
  </g>
  <defs
     id="defs47">
    <linearGradient
       id="paint0_linear_538_19695"
       x1="-1169.59"
       y1="251.515"
       x2="1900.03"
       y2="251.515"
       gradientUnits="userSpaceOnUse">
      <stop
         stop-color="#245795"
         id="stop42" />
      <stop
         offset="1"
         stop-color="#8AD3A8"
         id="stop44" />
    </linearGradient>
  </defs>
</svg>
