<svg width="208" height="63" viewBox="0 0 208 63" fill="none" xmlns="http://www.w3.org/2000/svg">
<path d="M82.672 43.3777L76.3984 23.4082H79.9858L84.4144 37.4714L88.4929 23.4082H92.0802L96.5089 37.4714L100.587 23.4082H104.153L98.3324 43.3777H94.7664L90.3378 29.3145L86.238 43.3777H82.672Z" fill="white"/>
<path d="M105.426 29.131H108.851V43.3778H105.426V29.131ZM105.426 23.4297H108.851V26.8547H105.426V23.4297Z" fill="white"/>
<path d="M125.435 23.3913V43.3779H122.01V36.246C122.01 35.0758 121.622 34.1149 120.823 33.3334C120.024 32.5348 119.059 32.1461 117.953 32.1461C116.804 32.1461 115.843 32.5348 115.041 33.3334C114.242 34.132 113.853 35.0972 113.853 36.246C113.853 37.3734 114.242 38.3386 115.041 39.1158C115.429 39.5045 115.86 39.8119 116.373 40.0169C116.885 40.2219 117.398 40.3244 117.953 40.3244C118.508 40.3244 118.999 40.2219 119.469 40.0383L120.699 43.0918C119.819 43.5231 118.811 43.7495 117.684 43.7495C116.638 43.7495 115.677 43.5445 114.793 43.1558C113.913 42.7672 113.153 42.2334 112.495 41.5373C111.838 40.8625 111.346 40.0596 110.979 39.1372C110.612 38.2147 110.445 37.2496 110.445 36.2246C110.445 35.1783 110.629 34.1961 110.979 33.2949C111.346 32.3725 111.842 31.5952 112.495 30.8948C113.153 30.2201 113.909 29.6649 114.793 29.2763C115.673 28.8876 116.638 28.6827 117.684 28.6827C118.606 28.6827 119.405 28.8279 120.144 29.114C120.861 29.4001 121.498 29.7717 122.049 30.1987V23.3486H125.431V23.3913H125.435Z" fill="white"/>
<path d="M134.534 32.1418C133.428 32.1418 132.463 32.5305 131.622 33.3291C131.254 33.6964 130.985 34.0893 130.802 34.5163H138.262C138.079 34.085 137.793 33.675 137.442 33.3291C136.644 32.5518 135.683 32.1418 134.534 32.1418ZM138.262 37.9627H130.802C130.985 38.3941 131.271 38.7827 131.622 39.1329C132.01 39.5215 132.463 39.829 132.954 40.034C133.445 40.239 133.979 40.3415 134.513 40.3415C135.29 40.3415 135.99 40.1578 136.605 39.8076L140.171 41.2426C139.497 42.0412 138.655 42.6562 137.69 43.1088C136.725 43.5615 135.662 43.7836 134.534 43.7836C133.488 43.7836 132.506 43.5786 131.604 43.19C130.682 42.8014 129.905 42.2675 129.204 41.5714C128.53 40.8967 127.974 40.0938 127.586 39.1713C127.197 38.2489 126.992 37.2837 126.992 36.2587C126.992 35.2124 127.197 34.2302 127.586 33.3291C127.974 32.4066 128.508 31.6294 129.204 30.929C129.879 30.2542 130.682 29.699 131.604 29.3104C132.527 28.9218 133.492 28.7168 134.534 28.7168C135.576 28.7168 136.563 28.9218 137.464 29.3104C138.386 29.699 139.164 30.2329 139.864 30.929C140.539 31.6037 141.094 32.4066 141.482 33.3291C141.871 34.2515 142.076 35.2167 142.076 36.2587C142.076 36.8737 142.016 37.446 141.871 37.9585H138.262V37.9627Z" fill="white"/>
<path d="M148.374 26.7908V31.6294H155.814L156.676 35.0502H148.374V39.8888H158.376V43.3139H144.949V23.3486H158.376V26.7694H148.374V26.7908Z" fill="white"/>
<path d="M169.503 36.5705L174.978 43.3352H170.592L167.313 39.0091L164.033 43.3352H159.647L165.118 36.5705L159.07 29.1055H163.456L167.313 34.1277L171.165 29.1055H175.551L169.503 36.5705Z" fill="white"/>
<path d="M184.555 28.6787C185.601 28.6787 186.562 28.8837 187.446 29.2723C188.326 29.661 189.086 30.1948 189.744 30.8909C190.402 31.5657 190.893 32.3685 191.26 33.291C191.627 34.2135 191.794 35.1786 191.794 36.2207C191.794 37.2456 191.61 38.2108 191.26 39.1332C190.893 40.0557 190.397 40.8329 189.744 41.5333C189.086 42.2294 188.33 42.7633 187.446 43.1519C186.566 43.5405 185.601 43.7455 184.555 43.7455C183.385 43.7455 182.381 43.5192 181.501 43.0878L182.731 40.0343C183.184 40.218 183.697 40.3205 184.269 40.3205C184.824 40.3205 185.337 40.218 185.828 40.013C186.319 39.808 186.771 39.5219 187.16 39.1119C187.959 38.3133 188.347 37.3481 188.347 36.242C188.347 35.0932 187.959 34.1323 187.16 33.3294C186.319 32.5308 185.358 32.1422 184.248 32.1422C183.099 32.1422 182.138 32.5308 181.335 33.3294C180.536 34.128 180.148 35.0932 180.148 36.242V42.2252V49.071H176.723V29.0844H180.165V30.2332C180.72 29.8019 181.352 29.4346 182.069 29.1485C182.813 28.8196 183.633 28.6787 184.555 28.6787Z" fill="white"/>
<path d="M200.479 32.0995C199.331 32.0995 198.37 32.4881 197.567 33.2867C196.764 34.0853 196.38 35.0505 196.38 36.1993C196.38 37.3267 196.768 38.2919 197.567 39.0692C197.955 39.4578 198.387 39.7653 198.899 39.9703C199.412 40.1753 199.924 40.2778 200.479 40.2778C201.035 40.2778 201.547 40.1753 202.038 39.9703C202.529 39.7653 202.982 39.4792 203.371 39.0692C204.169 38.2706 204.558 37.3054 204.558 36.1993C204.558 35.0505 204.169 34.0896 203.371 33.2867C202.551 32.5095 201.568 32.0995 200.479 32.0995ZM200.479 28.6787C201.526 28.6787 202.508 28.8837 203.409 29.2723C204.332 29.661 205.109 30.1948 205.809 30.8909C206.484 31.5657 207.039 32.3685 207.428 33.291C207.816 34.2135 208 35.1786 208 36.2207C208 37.2456 207.816 38.2108 207.428 39.1332C207.039 40.0557 206.505 40.8329 205.809 41.5333C205.113 42.2294 204.332 42.7633 203.409 43.1519C202.487 43.5405 201.521 43.7455 200.479 43.7455C199.433 43.7455 198.451 43.5405 197.55 43.1519C196.627 42.7633 195.85 42.2294 195.15 41.5333C194.475 40.8586 193.92 40.0557 193.531 39.1332C193.142 38.2108 192.938 37.2456 192.938 36.2207C192.938 35.1743 193.142 34.1921 193.531 33.291C193.92 32.3685 194.454 31.5913 195.15 30.8909C195.824 30.2161 196.627 29.661 197.55 29.2723C198.451 28.8837 199.433 28.6787 200.479 28.6787Z" fill="white"/>
<path d="M49.1606 11.3236C51.3233 11.7359 53.5111 12.008 55.7099 12.1381L55.3284 11.6637V11.61L55.2739 11.5384L55.2194 11.4668L55.074 11.3056V11.2609L55.0286 11.2072L54.7834 10.9297C53.1029 11.0461 51.2953 11.2251 49.3968 11.4936L49.1606 11.3236ZM26.4788 18.7445C28.7125 20.6794 31.1663 22.3526 33.7911 23.7306C39.7172 21.1629 46.0055 19.4997 52.4398 18.7982L51.3861 18.6639C46.4039 18.1004 41.5268 16.8499 36.8977 14.949L36.1619 14.6267C32.8316 15.752 29.5943 17.1286 26.4788 18.7445ZM17.5405 24.2945C16.0689 25.3747 14.6428 26.5145 13.2621 27.7141C14.555 29.924 16.038 32.0204 17.6949 33.9802C19.0635 32.7509 20.5381 31.5573 22.1186 30.3996C23.5539 29.3492 24.9981 28.3824 26.4515 27.4992C24.7114 26.3876 23.054 25.1552 21.4919 23.8111C20.9832 23.3725 20.5018 22.916 20.0476 22.5042C19.2119 23.0681 18.3762 23.65 17.5405 24.2945ZM0.28159 42.735C1.11165 45.0373 2.20574 47.2388 3.54261 49.2965V49.3502L3.6062 49.4577V49.5024V49.5472L3.6607 49.6367V49.6815L3.7152 49.7531L3.7697 49.8426C3.77355 49.8573 3.77355 49.8727 3.7697 49.8874L3.85146 49.9948V50.0485L4.0513 50.3349C5.80059 47.1232 7.83092 44.0681 10.1192 41.2042C11.0275 40.1032 11.9359 38.9932 12.9533 37.8921C12.381 37.2655 11.8087 36.612 11.2546 35.9317C10.1564 34.6024 9.13148 33.2159 8.18436 31.7781C5.11181 35.1069 2.37108 38.7192 0 42.5649" fill="white"/>
<path d="M49.1606 11.3236C51.3233 11.7359 53.5111 12.008 55.7099 12.1381L55.3284 11.6637V11.61L55.2739 11.5384L55.2194 11.4668L55.074 11.3056V11.2609L55.0286 11.2072L54.7834 10.9297C53.1029 11.0461 51.2953 11.2251 49.3968 11.4936L49.1606 11.3236ZM26.4788 18.7445C28.7125 20.6794 31.1663 22.3526 33.7911 23.7306C39.7172 21.1629 46.0055 19.4997 52.4398 18.7982L51.3861 18.6639C46.4039 18.1004 41.5268 16.8499 36.8977 14.949L36.1619 14.6267C32.8316 15.752 29.5943 17.1286 26.4788 18.7445ZM17.5405 24.2945C16.0689 25.3747 14.6428 26.5145 13.2621 27.7141C14.555 29.924 16.038 32.0204 17.6949 33.9802C19.0635 32.7509 20.5381 31.5573 22.1186 30.3996C23.5539 29.3492 24.9981 28.3824 26.4515 27.4992C24.7114 26.3876 23.054 25.1552 21.4919 23.8111C20.9832 23.3725 20.5018 22.916 20.0476 22.5042C19.2119 23.0681 18.3762 23.65 17.5405 24.2945ZM0.28159 42.735C1.11165 45.0373 2.20574 47.2388 3.54261 49.2965V49.3502L3.6062 49.4577V49.5024V49.5472L3.6607 49.6367V49.6815L3.7152 49.7531L3.7697 49.8426C3.77355 49.8573 3.77355 49.8727 3.7697 49.8874L3.85146 49.9948V50.0485L4.0513 50.3349C5.80059 47.1232 7.83092 44.0681 10.1192 41.2042C11.0275 40.1032 11.9359 38.9932 12.9533 37.8921C12.381 37.2655 11.8087 36.612 11.2546 35.9317C10.1564 34.6024 9.13148 33.2159 8.18436 31.7781C5.11181 35.1069 2.37108 38.7192 0 42.5649" fill="white"/>
<path d="M50.6308 29.0841C54.5566 29.7035 58.5274 30.0029 62.5031 29.9793C62.5031 29.7197 62.5031 29.4511 62.4395 29.1915V29.102C62.436 29.0873 62.436 29.072 62.4395 29.0573C62.4395 28.744 62.385 28.4396 62.3487 28.1621C58.4194 28.2362 54.4977 28.5351 50.6035 29.0573L50.6308 29.0841ZM23.2164 38.1164L22.2354 38.6714C24.3864 40.532 26.7169 42.181 29.1935 43.5948C35.1824 40.5393 41.5756 38.3247 48.1873 37.0153C49.9314 36.6751 51.6118 36.4036 53.2287 36.2007C50.4336 35.8902 47.6608 35.4088 44.9263 34.7595C42.0565 34.1077 39.2269 33.2948 36.4513 32.3246C31.8595 33.8276 27.427 35.7673 23.2164 38.1164ZM5.33984 51.9735C6.66074 53.581 8.13612 55.0589 9.74541 56.3867L9.82716 56.4583L10.0906 56.6821L10.1632 56.7448L10.2359 56.8075L10.3267 56.8791L10.3903 56.9238L10.4448 56.9686L10.4902 57.0133L10.5629 57.067H10.6174H10.6628C11.7408 55.9391 12.858 54.85 14.0147 53.7997C17.0313 51.1859 20.2744 48.8376 23.7069 46.7816C21.3823 45.3524 19.1798 43.7387 17.1213 41.9566C12.8743 44.9046 8.93665 48.2632 5.36709 51.9825" fill="white"/>
<path d="M50.6308 29.0841C54.5566 29.7035 58.5274 30.0029 62.5031 29.9793C62.5031 29.7197 62.5031 29.4511 62.4395 29.1915V29.102C62.436 29.0873 62.436 29.072 62.4395 29.0573C62.4395 28.744 62.385 28.4396 62.3487 28.1621C58.4194 28.2362 54.4977 28.5351 50.6035 29.0573L50.6308 29.0841ZM23.2164 38.1164L22.2354 38.6714C24.3864 40.532 26.7169 42.181 29.1935 43.5948C35.1824 40.5393 41.5756 38.3247 48.1873 37.0153C49.9314 36.6751 51.6118 36.4036 53.2287 36.2007C50.4336 35.8902 47.6608 35.4088 44.9263 34.7595C42.0565 34.1077 39.2269 33.2948 36.4513 32.3246C31.8595 33.8276 27.427 35.7673 23.2164 38.1164ZM5.33984 51.9735C6.66074 53.581 8.13612 55.0589 9.74541 56.3867L9.82716 56.4583L10.0906 56.6821L10.1632 56.7448L10.2359 56.8075L10.3267 56.8791L10.3903 56.9238L10.4448 56.9686L10.4902 57.0133L10.5629 57.067H10.6174H10.6628C11.7408 55.9391 12.858 54.85 14.0147 53.7997C17.0313 51.1859 20.2744 48.8376 23.7069 46.7816C21.3823 45.3524 19.1798 43.7387 17.1213 41.9566C12.8743 44.9046 8.93665 48.2632 5.36709 51.9825" fill="white"/>
<path d="M39.4404 47.9364C44.4358 49.3759 49.6143 50.1053 54.8189 50.1026C55.5638 50.1026 56.2451 50.1026 56.8537 50.1026L56.6357 50.407C57.1716 49.664 57.6712 48.8942 58.1435 48.1064V48.0527L58.525 47.3903C56.3359 47.1755 53.9196 47.0322 51.3399 47.0322C47.3233 47.0307 43.3143 47.3751 39.3586 48.0617L39.4404 47.9364ZM29.0668 50.6845C23.2858 52.6515 17.8011 55.3796 12.7617 58.7947C13.6701 59.3587 14.5784 59.8868 15.4868 60.3702C17.28 61.2893 19.1564 62.0416 21.0914 62.6171C28.7233 58.2926 37.2073 55.6309 45.9715 54.8112C40.5062 54.0348 35.1737 52.5291 30.1205 50.3354L29.0487 50.6935L29.0668 50.6845ZM56.4812 50.5771L56.5357 50.5055L56.4812 50.5771ZM55.9816 51.2485L56.4812 50.5771L55.9816 51.2485ZM55.9362 51.3111C55.946 51.2869 55.9616 51.2654 55.9816 51.2485C55.9616 51.2654 55.946 51.2869 55.9362 51.3111ZM55.8726 51.3828L55.9362 51.3111L55.8726 51.3828ZM55.8181 51.5528V51.5976V51.5528ZM55.7727 51.6603V51.6155L55.7273 51.6782L55.7727 51.6603ZM55.6455 51.7856L55.7182 51.6871C55.691 51.7177 55.6667 51.7507 55.6455 51.7856ZM55.5729 51.8751C55.5919 51.8415 55.6165 51.8113 55.6455 51.7856C55.6165 51.8113 55.5919 51.8415 55.5729 51.8751ZM55.5275 51.9646V51.9198V51.9646ZM54.6191 53.0567C54.9279 52.6986 55.2368 52.3406 55.5275 51.9735C55.2277 52.3406 54.9188 52.6986 54.6191 53.0567ZM54.5373 53.1462L54.501 53.0478L54.4283 53.1283L54.5373 53.1462ZM54.3557 53.2089L54.4193 53.1373L54.3557 53.2089ZM54.2648 53.3074L54.3375 53.2357L54.2648 53.3074Z" fill="white"/>
<path d="M39.4404 47.9364C44.4358 49.3759 49.6143 50.1053 54.8189 50.1026C55.5638 50.1026 56.2451 50.1026 56.8537 50.1026L56.6357 50.407C57.1716 49.664 57.6712 48.8942 58.1435 48.1064V48.0527L58.525 47.3903C56.3359 47.1755 53.9196 47.0322 51.3399 47.0322C47.3233 47.0307 43.3143 47.3751 39.3586 48.0617L39.4404 47.9364ZM29.0668 50.6845C23.2858 52.6515 17.8011 55.3796 12.7617 58.7947C13.6701 59.3587 14.5784 59.8868 15.4868 60.3702C17.28 61.2893 19.1564 62.0416 21.0914 62.6171C28.7233 58.2926 37.2073 55.6309 45.9715 54.8112C40.5062 54.0348 35.1737 52.5291 30.1205 50.3354L29.0487 50.6935L29.0668 50.6845ZM56.4812 50.5771L56.5357 50.5055L56.4812 50.5771ZM55.9816 51.2485L56.4812 50.5771L55.9816 51.2485ZM55.9362 51.3111C55.946 51.2869 55.9616 51.2654 55.9816 51.2485C55.9616 51.2654 55.946 51.2869 55.9362 51.3111ZM55.8726 51.3828L55.9362 51.3111L55.8726 51.3828ZM55.8181 51.5528V51.5976V51.5528ZM55.7727 51.6603V51.6155L55.7273 51.6782L55.7727 51.6603ZM55.6455 51.7856L55.7182 51.6871C55.691 51.7177 55.6667 51.7507 55.6455 51.7856ZM55.5729 51.8751C55.5919 51.8415 55.6165 51.8113 55.6455 51.7856C55.6165 51.8113 55.5919 51.8415 55.5729 51.8751ZM55.5275 51.9646V51.9198V51.9646ZM54.6191 53.0567C54.9279 52.6986 55.2368 52.3406 55.5275 51.9735C55.2277 52.3406 54.9188 52.6986 54.6191 53.0567ZM54.5373 53.1462L54.501 53.0478L54.4283 53.1283L54.5373 53.1462ZM54.3557 53.2089L54.4193 53.1373L54.3557 53.2089ZM54.2648 53.3074L54.3375 53.2357L54.2648 53.3074Z" fill="white"/>
<path d="M1.60665 17.5008C4.09979 25.2733 8.36969 32.3783 14.0876 38.2687C27.0953 51.544 43.6275 54.1579 53.1472 54.4354C55.4468 52.1483 57.3823 49.5317 58.888 46.6743C53.9465 47.113 34.126 47.8022 19.6013 32.9604C13.3293 26.4401 9.09975 18.2748 7.42019 9.44434C5.06052 11.8167 3.08725 14.5343 1.57031 17.5008" fill="white"/>
<path d="M1.60665 17.5008C4.09979 25.2733 8.36969 32.3783 14.0876 38.2687C27.0953 51.544 43.6275 54.1579 53.1472 54.4354C55.4468 52.1483 57.3823 49.5317 58.888 46.6743C53.9465 47.113 34.126 47.8022 19.6013 32.9604C13.3293 26.4401 9.09975 18.2748 7.42019 9.44434C5.06052 11.8167 3.08725 14.5343 1.57031 17.5008" fill="white"/>
<path d="M10.2344 6.95583C10.6334 8.17632 11.1066 9.37203 11.6514 10.5365C18.8366 26.0945 37.6851 35.6638 60.9664 35.6638C61.2571 35.6638 61.5478 35.6638 62.3562 35.7265C62.5099 34.44 62.5857 33.1457 62.5833 31.8504C62.5827 30.6033 62.5129 29.3572 62.3744 28.1176C41.4185 28.2071 24.5411 20.0611 18.6367 7.34075C17.9592 5.87102 17.421 4.34273 17.0289 2.77539C14.5989 3.87848 12.3167 5.27362 10.2344 6.92898" fill="white"/>
<path d="M10.2344 6.95583C10.6334 8.17632 11.1066 9.37203 11.6514 10.5365C18.8366 26.0945 37.6851 35.6638 60.9664 35.6638C61.2571 35.6638 61.5478 35.6638 62.3562 35.7265C62.5099 34.44 62.5857 33.1457 62.5833 31.8504C62.5827 30.6033 62.5129 29.3572 62.3744 28.1176C41.4185 28.2071 24.5411 20.0611 18.6367 7.34075C17.9592 5.87102 17.421 4.34273 17.0289 2.77539C14.5989 3.87848 12.3167 5.27362 10.2344 6.92898" fill="white"/>
<path d="M19.8203 1.69188C27.8593 12.1743 42.3023 18.2256 59.0979 18.2256H59.5067C58.1699 15.4298 56.4289 12.8397 54.3381 10.5361C43.7284 9.82 34.5358 5.99762 28.4861 0C25.5314 0.168178 22.6149 0.740626 19.8203 1.70084" fill="white"/>
<path d="M19.8203 1.69188C27.8593 12.1743 42.3023 18.2256 59.0979 18.2256H59.5067C58.1699 15.4298 56.4289 12.8397 54.3381 10.5361C43.7284 9.82 34.5358 5.99762 28.4861 0C25.5314 0.168178 22.6149 0.740626 19.8203 1.70084" fill="white"/>
</svg>
