<svg width="210" height="64" viewBox="0 0 210 64" fill="none" xmlns="http://www.w3.org/2000/svg">
<path d="M83.672 44.3777L77.3984 24.4082H80.9858L85.4144 38.4714L89.4929 24.4082H93.0802L97.5089 38.4714L101.587 24.4082H105.153L99.3324 44.3777H95.7664L91.3378 30.3145L87.238 44.3777H83.672Z" fill="#134E92"/>
<path d="M106.426 30.131H109.851V44.3778H106.426V30.131ZM106.426 24.4297H109.851V27.8547H106.426V24.4297Z" fill="#134E92"/>
<path d="M126.433 24.3913V44.3779H123.008V37.246C123.008 36.0758 122.62 35.1149 121.821 34.3334C121.022 33.5348 120.057 33.1461 118.951 33.1461C117.802 33.1461 116.841 33.5348 116.039 34.3334C115.24 35.132 114.851 36.0972 114.851 37.246C114.851 38.3734 115.24 39.3386 116.039 40.1158C116.427 40.5045 116.859 40.8119 117.371 41.0169C117.883 41.2219 118.396 41.3244 118.951 41.3244C119.506 41.3244 119.997 41.2219 120.467 41.0383L121.697 44.0918C120.817 44.5231 119.81 44.7495 118.682 44.7495C117.636 44.7495 116.675 44.5445 115.791 44.1558C114.911 43.7672 114.151 43.2334 113.493 42.5373C112.836 41.8625 112.344 41.0596 111.977 40.1372C111.61 39.2147 111.443 38.2496 111.443 37.2246C111.443 36.1783 111.627 35.1961 111.977 34.2949C112.344 33.3725 112.84 32.5952 113.493 31.8948C114.151 31.2201 114.907 30.6649 115.791 30.2763C116.671 29.8876 117.636 29.6827 118.682 29.6827C119.605 29.6827 120.403 29.8279 121.142 30.114C121.859 30.4001 122.496 30.7717 123.047 31.1987V24.3486H126.429V24.3913H126.433Z" fill="#134E92"/>
<path d="M135.534 33.1418C134.428 33.1418 133.463 33.5305 132.622 34.3291C132.254 34.6964 131.985 35.0893 131.802 35.5163H139.262C139.079 35.085 138.793 34.675 138.442 34.3291C137.644 33.5518 136.683 33.1418 135.534 33.1418ZM139.262 38.9627H131.802C131.985 39.3941 132.271 39.7827 132.622 40.1329C133.01 40.5215 133.463 40.829 133.954 41.034C134.445 41.239 134.979 41.3415 135.513 41.3415C136.29 41.3415 136.99 41.1578 137.605 40.8076L141.171 42.2426C140.497 43.0412 139.655 43.6562 138.69 44.1088C137.725 44.5615 136.662 44.7836 135.534 44.7836C134.488 44.7836 133.506 44.5786 132.604 44.19C131.682 43.8014 130.905 43.2675 130.204 42.5714C129.53 41.8967 128.974 41.0938 128.586 40.1713C128.197 39.2489 127.992 38.2837 127.992 37.2587C127.992 36.2124 128.197 35.2302 128.586 34.3291C128.974 33.4066 129.508 32.6294 130.204 31.929C130.879 31.2542 131.682 30.699 132.604 30.3104C133.527 29.9218 134.492 29.7168 135.534 29.7168C136.576 29.7168 137.563 29.9218 138.464 30.3104C139.386 30.699 140.164 31.2329 140.864 31.929C141.539 32.6037 142.094 33.4066 142.482 34.3291C142.871 35.2515 143.076 36.2167 143.076 37.2587C143.076 37.8737 143.016 38.446 142.871 38.9585H139.262V38.9627Z" fill="#134E92"/>
<path d="M149.374 27.7908V32.6294H156.814L157.676 36.0502H149.374V40.8888H159.376V44.3139H145.949V24.3486H159.376V27.7694H149.374V27.7908Z" fill="#86C69F"/>
<path d="M170.503 37.5705L175.978 44.3352H171.592L168.313 40.0091L165.033 44.3352H160.647L166.118 37.5705L160.07 30.1055H164.456L168.313 35.1277L172.165 30.1055H176.551L170.503 37.5705Z" fill="#86C69F"/>
<path d="M185.555 29.6782C186.601 29.6782 187.562 29.8832 188.446 30.2718C189.326 30.6605 190.086 31.1943 190.744 31.8904C191.402 32.5652 191.893 33.3681 192.26 34.2905C192.627 35.213 192.794 36.1781 192.794 37.2202C192.794 38.2451 192.61 39.2103 192.26 40.1327C191.893 41.0552 191.397 41.8325 190.744 42.5328C190.086 43.229 189.33 43.7628 188.446 44.1514C187.566 44.54 186.601 44.745 185.555 44.745C184.385 44.745 183.381 44.5187 182.501 44.0873L183.731 41.0338C184.184 41.2175 184.697 41.32 185.269 41.32C185.824 41.32 186.337 41.2175 186.828 41.0125C187.319 40.8075 187.771 40.5214 188.16 40.1114C188.959 39.3128 189.347 38.3476 189.347 37.2415C189.347 36.0927 188.959 35.1318 188.16 34.3289C187.319 33.5303 186.358 33.1417 185.248 33.1417C184.099 33.1417 183.138 33.5303 182.335 34.3289C181.536 35.1276 181.148 36.0927 181.148 37.2415V43.2247V50.0705H177.723V30.0839H181.165V31.2327C181.72 30.8014 182.352 30.4341 183.069 30.148C183.813 29.8192 184.633 29.6782 185.555 29.6782Z" fill="#86C69F"/>
<path d="M201.479 33.099C200.331 33.099 199.37 33.4876 198.567 34.2862C197.764 35.0848 197.38 36.05 197.38 37.1988C197.38 38.3263 197.768 39.2914 198.567 40.0687C198.955 40.4573 199.387 40.7648 199.899 40.9698C200.412 41.1748 200.924 41.2773 201.479 41.2773C202.035 41.2773 202.547 41.1748 203.038 40.9698C203.529 40.7648 203.982 40.4787 204.371 40.0687C205.169 39.2701 205.558 38.3049 205.558 37.1988C205.558 36.05 205.169 35.0891 204.371 34.2862C203.551 33.509 202.568 33.099 201.479 33.099ZM201.479 29.6782C202.526 29.6782 203.508 29.8832 204.409 30.2718C205.332 30.6605 206.109 31.1943 206.809 31.8904C207.484 32.5652 208.039 33.3681 208.428 34.2905C208.816 35.213 209 36.1781 209 37.2202C209 38.2451 208.816 39.2103 208.428 40.1327C208.039 41.0552 207.505 41.8325 206.809 42.5328C206.113 43.229 205.332 43.7628 204.409 44.1514C203.487 44.54 202.521 44.745 201.479 44.745C200.433 44.745 199.451 44.54 198.55 44.1514C197.627 43.7628 196.85 43.229 196.15 42.5328C195.475 41.8581 194.92 41.0552 194.531 40.1327C194.142 39.2103 193.938 38.2451 193.938 37.2202C193.938 36.1739 194.142 35.1916 194.531 34.2905C194.92 33.3681 195.454 32.5908 196.15 31.8904C196.824 31.2157 197.627 30.6605 198.55 30.2718C199.451 29.8832 200.433 29.6782 201.479 29.6782Z" fill="#86C69F"/>
<path d="M50.1606 12.3236C52.3233 12.7359 54.5111 13.008 56.7099 13.1381L56.3284 12.6637V12.61L56.2739 12.5384L56.2194 12.4668L56.074 12.3056V12.2609L56.0286 12.2072L55.7834 11.9297C54.1029 12.0461 52.2953 12.2251 50.3968 12.4936L50.1606 12.3236ZM27.4788 19.7445C29.7125 21.6794 32.1663 23.3526 34.7911 24.7306C40.7172 22.1629 47.0055 20.4997 53.4398 19.7982L52.3861 19.6639C47.4039 19.1004 42.5268 17.8499 37.8977 15.949L37.1619 15.6267C33.8316 16.752 30.5943 18.1286 27.4788 19.7445ZM18.5405 25.2945C17.0689 26.3747 15.6428 27.5145 14.2621 28.7141C15.555 30.924 17.038 33.0204 18.6949 34.9802C20.0635 33.7509 21.5381 32.5573 23.1186 31.3996C24.5539 30.3492 25.9981 29.3824 27.4515 28.4992C25.7114 27.3876 24.054 26.1552 22.4919 24.8111C21.9832 24.3725 21.5018 23.916 21.0476 23.5042C20.2119 24.0681 19.3762 24.65 18.5405 25.2945ZM1.28159 43.735C2.11165 46.0373 3.20574 48.2388 4.54261 50.2965V50.3502L4.6062 50.4577V50.5024V50.5472L4.6607 50.6367V50.6815L4.7152 50.7531L4.7697 50.8426C4.77355 50.8573 4.77355 50.8727 4.7697 50.8874L4.85146 50.9948V51.0485L5.0513 51.3349C6.80059 48.1232 8.83092 45.0681 11.1192 42.2042C12.0275 41.1032 12.9359 39.9932 13.9533 38.8921C13.381 38.2655 12.8087 37.612 12.2546 36.9317C11.1564 35.6024 10.1315 34.2159 9.18436 32.7781C6.11181 36.1069 3.37108 39.7192 1 43.5649" fill="#134E92"/>
<path d="M50.1606 12.3236C52.3233 12.7359 54.5111 13.008 56.7099 13.1381L56.3284 12.6637V12.61L56.2739 12.5384L56.2194 12.4668L56.074 12.3056V12.2609L56.0286 12.2072L55.7834 11.9297C54.1029 12.0461 52.2953 12.2251 50.3968 12.4936L50.1606 12.3236ZM27.4788 19.7445C29.7125 21.6794 32.1663 23.3526 34.7911 24.7306C40.7172 22.1629 47.0055 20.4997 53.4398 19.7982L52.3861 19.6639C47.4039 19.1004 42.5268 17.8499 37.8977 15.949L37.1619 15.6267C33.8316 16.752 30.5943 18.1286 27.4788 19.7445ZM18.5405 25.2945C17.0689 26.3747 15.6428 27.5145 14.2621 28.7141C15.555 30.924 17.038 33.0204 18.6949 34.9802C20.0635 33.7509 21.5381 32.5573 23.1186 31.3996C24.5539 30.3492 25.9981 29.3824 27.4515 28.4992C25.7114 27.3876 24.054 26.1552 22.4919 24.8111C21.9832 24.3725 21.5018 23.916 21.0476 23.5042C20.2119 24.0681 19.3762 24.65 18.5405 25.2945ZM1.28159 43.735C2.11165 46.0373 3.20574 48.2388 4.54261 50.2965V50.3502L4.6062 50.4577V50.5024V50.5472L4.6607 50.6367V50.6815L4.7152 50.7531L4.7697 50.8426C4.77355 50.8573 4.77355 50.8727 4.7697 50.8874L4.85146 50.9948V51.0485L5.0513 51.3349C6.80059 48.1232 8.83092 45.0681 11.1192 42.2042C12.0275 41.1032 12.9359 39.9932 13.9533 38.8921C13.381 38.2655 12.8087 37.612 12.2546 36.9317C11.1564 35.6024 10.1315 34.2159 9.18436 32.7781C6.11181 36.1069 3.37108 39.7192 1 43.5649" fill="url(#paint0_linear_538_18681)"/>
<path d="M51.6308 30.0841C55.5566 30.7035 59.5274 31.0029 63.5031 30.9793C63.5031 30.7197 63.5031 30.4511 63.4395 30.1915V30.102C63.436 30.0873 63.436 30.072 63.4395 30.0573C63.4395 29.744 63.385 29.4396 63.3487 29.1621C59.4194 29.2362 55.4977 29.5351 51.6035 30.0573L51.6308 30.0841ZM24.2164 39.1164L23.2354 39.6714C25.3864 41.532 27.7169 43.181 30.1935 44.5948C36.1824 41.5393 42.5756 39.3247 49.1873 38.0153C50.9314 37.6751 52.6118 37.4036 54.2287 37.2007C51.4336 36.8902 48.6608 36.4088 45.9263 35.7595C43.0565 35.1077 40.2269 34.2948 37.4513 33.3246C32.8595 34.8276 28.427 36.7673 24.2164 39.1164ZM6.33984 52.9735C7.66074 54.581 9.13612 56.0589 10.7454 57.3867L10.8272 57.4583L11.0906 57.6821L11.1632 57.7448L11.2359 57.8075L11.3267 57.8791L11.3903 57.9238L11.4448 57.9686L11.4902 58.0133L11.5629 58.067H11.6174H11.6628C12.7408 56.9391 13.858 55.85 15.0147 54.7997C18.0313 52.1859 21.2744 49.8376 24.7069 47.7816C22.3823 46.3524 20.1798 44.7387 18.1213 42.9566C13.8743 45.9046 9.93665 49.2632 6.36709 52.9825" fill="#134E92"/>
<path d="M51.6308 30.0841C55.5566 30.7035 59.5274 31.0029 63.5031 30.9793C63.5031 30.7197 63.5031 30.4511 63.4395 30.1915V30.102C63.436 30.0873 63.436 30.072 63.4395 30.0573C63.4395 29.744 63.385 29.4396 63.3487 29.1621C59.4194 29.2362 55.4977 29.5351 51.6035 30.0573L51.6308 30.0841ZM24.2164 39.1164L23.2354 39.6714C25.3864 41.532 27.7169 43.181 30.1935 44.5948C36.1824 41.5393 42.5756 39.3247 49.1873 38.0153C50.9314 37.6751 52.6118 37.4036 54.2287 37.2007C51.4336 36.8902 48.6608 36.4088 45.9263 35.7595C43.0565 35.1077 40.2269 34.2948 37.4513 33.3246C32.8595 34.8276 28.427 36.7673 24.2164 39.1164ZM6.33984 52.9735C7.66074 54.581 9.13612 56.0589 10.7454 57.3867L10.8272 57.4583L11.0906 57.6821L11.1632 57.7448L11.2359 57.8075L11.3267 57.8791L11.3903 57.9238L11.4448 57.9686L11.4902 58.0133L11.5629 58.067H11.6174H11.6628C12.7408 56.9391 13.858 55.85 15.0147 54.7997C18.0313 52.1859 21.2744 49.8376 24.7069 47.7816C22.3823 46.3524 20.1798 44.7387 18.1213 42.9566C13.8743 45.9046 9.93665 49.2632 6.36709 52.9825" fill="url(#paint1_linear_538_18681)"/>
<path d="M40.4404 48.9364C45.4358 50.3759 50.6143 51.1053 55.8189 51.1026C56.5638 51.1026 57.2451 51.1026 57.8537 51.1026L57.6357 51.407C58.1716 50.664 58.6712 49.8942 59.1435 49.1064V49.0527L59.525 48.3903C57.3359 48.1755 54.9196 48.0322 52.3399 48.0322C48.3233 48.0307 44.3143 48.3751 40.3586 49.0617L40.4404 48.9364ZM30.0668 51.6845C24.2858 53.6515 18.8011 56.3796 13.7617 59.7947C14.6701 60.3587 15.5784 60.8868 16.4868 61.3702C18.28 62.2893 20.1564 63.0416 22.0914 63.6171C29.7233 59.2926 38.2073 56.6309 46.9715 55.8112C41.5062 55.0348 36.1737 53.5291 31.1205 51.3354L30.0487 51.6935L30.0668 51.6845ZM57.4812 51.5771L57.5357 51.5055L57.4812 51.5771ZM56.9816 52.2485L57.4812 51.5771L56.9816 52.2485ZM56.9362 52.3111C56.946 52.2869 56.9616 52.2654 56.9816 52.2485C56.9616 52.2654 56.946 52.2869 56.9362 52.3111ZM56.8726 52.3828L56.9362 52.3111L56.8726 52.3828ZM56.8181 52.5528V52.5976V52.5528ZM56.7727 52.6603V52.6155L56.7273 52.6782L56.7727 52.6603ZM56.6455 52.7856L56.7182 52.6871C56.691 52.7177 56.6667 52.7507 56.6455 52.7856ZM56.5729 52.8751C56.5919 52.8415 56.6165 52.8113 56.6455 52.7856C56.6165 52.8113 56.5919 52.8415 56.5729 52.8751ZM56.5275 52.9646V52.9198V52.9646ZM55.6191 54.0567C55.9279 53.6986 56.2368 53.3406 56.5275 52.9735C56.2277 53.3406 55.9188 53.6986 55.6191 54.0567ZM55.5373 54.1462L55.501 54.0478L55.4283 54.1283L55.5373 54.1462ZM55.3557 54.2089L55.4193 54.1373L55.3557 54.2089ZM55.2648 54.3074L55.3375 54.2357L55.2648 54.3074Z" fill="#134E92"/>
<path d="M40.4404 48.9364C45.4358 50.3759 50.6143 51.1053 55.8189 51.1026C56.5638 51.1026 57.2451 51.1026 57.8537 51.1026L57.6357 51.407C58.1716 50.664 58.6712 49.8942 59.1435 49.1064V49.0527L59.525 48.3903C57.3359 48.1755 54.9196 48.0322 52.3399 48.0322C48.3233 48.0307 44.3143 48.3751 40.3586 49.0617L40.4404 48.9364ZM30.0668 51.6845C24.2858 53.6515 18.8011 56.3796 13.7617 59.7947C14.6701 60.3587 15.5784 60.8868 16.4868 61.3702C18.28 62.2893 20.1564 63.0416 22.0914 63.6171C29.7233 59.2926 38.2073 56.6309 46.9715 55.8112C41.5062 55.0348 36.1737 53.5291 31.1205 51.3354L30.0487 51.6935L30.0668 51.6845ZM57.4812 51.5771L57.5357 51.5055L57.4812 51.5771ZM56.9816 52.2485L57.4812 51.5771L56.9816 52.2485ZM56.9362 52.3111C56.946 52.2869 56.9616 52.2654 56.9816 52.2485C56.9616 52.2654 56.946 52.2869 56.9362 52.3111ZM56.8726 52.3828L56.9362 52.3111L56.8726 52.3828ZM56.8181 52.5528V52.5976V52.5528ZM56.7727 52.6603V52.6155L56.7273 52.6782L56.7727 52.6603ZM56.6455 52.7856L56.7182 52.6871C56.691 52.7177 56.6667 52.7507 56.6455 52.7856ZM56.5729 52.8751C56.5919 52.8415 56.6165 52.8113 56.6455 52.7856C56.6165 52.8113 56.5919 52.8415 56.5729 52.8751ZM56.5275 52.9646V52.9198V52.9646ZM55.6191 54.0567C55.9279 53.6986 56.2368 53.3406 56.5275 52.9735C56.2277 53.3406 55.9188 53.6986 55.6191 54.0567ZM55.5373 54.1462L55.501 54.0478L55.4283 54.1283L55.5373 54.1462ZM55.3557 54.2089L55.4193 54.1373L55.3557 54.2089ZM55.2648 54.3074L55.3375 54.2357L55.2648 54.3074Z" fill="url(#paint2_linear_538_18681)"/>
<path d="M2.60861 18.5004C5.10175 26.2728 9.37164 33.3778 15.0895 39.2682C28.0973 52.5435 44.6295 55.1574 54.1491 55.4349C56.4487 53.1478 58.3842 50.5312 59.8899 47.6738C54.9485 48.1125 35.128 48.8017 20.6033 33.9599C14.3312 27.4396 10.1017 19.2743 8.42214 10.4438C6.06248 12.8162 4.0892 15.5338 2.57227 18.5004" fill="#86C69F"/>
<path d="M2.60861 18.5004C5.10175 26.2728 9.37164 33.3778 15.0895 39.2682C28.0973 52.5435 44.6295 55.1574 54.1491 55.4349C56.4487 53.1478 58.3842 50.5312 59.8899 47.6738C54.9485 48.1125 35.128 48.8017 20.6033 33.9599C14.3312 27.4396 10.1017 19.2743 8.42214 10.4438C6.06248 12.8162 4.0892 15.5338 2.57227 18.5004" fill="url(#paint3_linear_538_18681)"/>
<path d="M11.2363 7.95534C11.6354 9.17583 12.1086 10.3715 12.6534 11.536C19.8385 27.094 38.6871 36.6633 61.9684 36.6633C62.2591 36.6633 62.5497 36.6633 63.3582 36.726C63.5118 35.4396 63.5877 34.1453 63.5853 32.8499C63.5846 31.6028 63.5149 30.3567 63.3764 29.1171C42.4204 29.2066 25.543 21.0606 19.6387 8.34026C18.9612 6.87053 18.423 5.34225 18.0309 3.7749C15.6009 4.878 13.3187 6.27313 11.2363 7.92849" fill="#86C69F"/>
<path d="M11.2363 7.95534C11.6354 9.17583 12.1086 10.3715 12.6534 11.536C19.8385 27.094 38.6871 36.6633 61.9684 36.6633C62.2591 36.6633 62.5497 36.6633 63.3582 36.726C63.5118 35.4396 63.5877 34.1453 63.5853 32.8499C63.5846 31.6028 63.5149 30.3567 63.3764 29.1171C42.4204 29.2066 25.543 21.0606 19.6387 8.34026C18.9612 6.87053 18.423 5.34225 18.0309 3.7749C15.6009 4.878 13.3187 6.27313 11.2363 7.92849" fill="url(#paint4_linear_538_18681)"/>
<path d="M20.8203 2.69188C28.8593 13.1743 43.3023 19.2256 60.0979 19.2256H60.5067C59.1699 16.4298 57.4289 13.8397 55.3381 11.5361C44.7284 10.82 35.5358 6.99762 29.4861 1C26.5314 1.16818 23.6149 1.74063 20.8203 2.70084" fill="#86C69F"/>
<path d="M20.8203 2.69188C28.8593 13.1743 43.3023 19.2256 60.0979 19.2256H60.5067C59.1699 16.4298 57.4289 13.8397 55.3381 11.5361C44.7284 10.82 35.5358 6.99762 29.4861 1C26.5314 1.16818 23.6149 1.74063 20.8203 2.70084" fill="url(#paint5_linear_538_18681)"/>
<defs>
<linearGradient id="paint0_linear_538_18681" x1="0.999999" y1="31.7517" x2="69.5114" y2="10.1842" gradientUnits="userSpaceOnUse">
<stop stop-color="#245795"/>
<stop offset="1" stop-color="#8AD3A8"/>
</linearGradient>
<linearGradient id="paint1_linear_538_18681" x1="6.33984" y1="43.7022" x2="123.655" y2="11.3081" gradientUnits="userSpaceOnUse">
<stop stop-color="#245795"/>
<stop offset="1" stop-color="#8AD3A8"/>
</linearGradient>
<linearGradient id="paint2_linear_538_18681" x1="16.8543" y1="59.186" x2="84.519" y2="37.8974" gradientUnits="userSpaceOnUse">
<stop stop-color="#245795"/>
<stop offset="1" stop-color="#8AD3A8"/>
</linearGradient>
<linearGradient id="paint3_linear_538_18681" x1="56.9103" y1="52.4719" x2="0.720837" y2="21.0439" gradientUnits="userSpaceOnUse">
<stop stop-color="#245795"/>
<stop offset="1" stop-color="#8AD3A8"/>
</linearGradient>
<linearGradient id="paint4_linear_538_18681" x1="60.6645" y1="32.7783" x2="13.4592" y2="9.97581" gradientUnits="userSpaceOnUse">
<stop stop-color="#245795"/>
<stop offset="1" stop-color="#8AD3A8"/>
</linearGradient>
<linearGradient id="paint5_linear_538_18681" x1="60.2474" y1="18.9033" x2="19.7471" y2="-2.38374" gradientUnits="userSpaceOnUse">
<stop stop-color="#245795"/>
<stop offset="1" stop-color="#8AD3A8"/>
</linearGradient>
</defs>
</svg>
