<svg width="862" height="862" viewBox="0 0 862 862" fill="none" xmlns="http://www.w3.org/2000/svg">
<circle cx="431" cy="431" r="430.5" stroke="url(#paint0_linear_264_30708)"/>
<path d="M582.38 244.569C601.401 248.194 620.643 250.587 639.982 251.731L636.627 247.56V247.087L636.148 246.458L635.668 245.828L634.39 244.411V244.018L633.99 243.545L631.833 241.105C617.053 242.129 601.155 243.703 584.457 246.064L582.38 244.569ZM382.887 309.82C402.534 326.833 424.116 341.545 447.201 353.662C499.322 331.084 554.63 316.46 611.221 310.292L601.953 309.111C558.134 304.156 515.238 293.161 474.524 276.446L468.053 273.613C438.762 283.507 410.289 295.612 382.887 309.82ZM304.273 358.62C291.33 368.118 278.787 378.141 266.644 388.688C278.014 408.12 291.058 426.553 305.631 443.785C317.668 432.976 330.638 422.481 344.539 412.301C357.162 403.066 369.865 394.565 382.648 386.799C367.343 377.025 352.766 366.188 339.026 354.37C334.552 350.513 330.318 346.499 326.323 342.878C318.973 347.837 311.623 352.953 304.273 358.62ZM152.477 520.764C159.777 541.009 169.4 560.366 181.158 578.459V578.932L181.717 579.876V580.27V580.663L182.197 581.45V581.844L182.676 582.474L183.155 583.261C183.189 583.39 183.189 583.525 183.155 583.654L183.875 584.599V585.071L185.632 587.59C201.018 559.35 218.875 532.486 239.001 507.305C246.99 497.623 254.979 487.863 263.927 478.182C258.894 472.672 253.861 466.926 248.987 460.944C239.328 449.256 230.314 437.064 221.983 424.422C194.96 453.692 170.854 485.454 150 519.269" fill="#134E92"/>
<path d="M582.38 244.569C601.401 248.194 620.643 250.587 639.982 251.731L636.627 247.56V247.087L636.148 246.458L635.668 245.828L634.39 244.411V244.018L633.99 243.545L631.833 241.105C617.053 242.129 601.155 243.703 584.457 246.064L582.38 244.569ZM382.887 309.82C402.534 326.833 424.116 341.545 447.201 353.662C499.322 331.084 554.63 316.46 611.221 310.292L601.953 309.111C558.134 304.156 515.238 293.161 474.524 276.446L468.053 273.613C438.762 283.507 410.289 295.612 382.887 309.82ZM304.273 358.62C291.33 368.118 278.787 378.141 266.644 388.688C278.014 408.12 291.058 426.553 305.631 443.785C317.668 432.976 330.638 422.481 344.539 412.301C357.162 403.066 369.865 394.565 382.648 386.799C367.343 377.025 352.766 366.188 339.026 354.37C334.552 350.513 330.318 346.499 326.323 342.878C318.973 347.837 311.623 352.953 304.273 358.62ZM152.477 520.764C159.777 541.009 169.4 560.366 181.158 578.459V578.932L181.717 579.876V580.27V580.663L182.197 581.45V581.844L182.676 582.474L183.155 583.261C183.189 583.39 183.189 583.525 183.155 583.654L183.875 584.599V585.071L185.632 587.59C201.018 559.35 218.875 532.486 239.001 507.305C246.99 497.623 254.979 487.863 263.927 478.182C258.894 472.672 253.861 466.926 248.987 460.944C239.328 449.256 230.314 437.064 221.983 424.422C194.96 453.692 170.854 485.454 150 519.269" fill="url(#paint1_linear_264_30708)"/>
<path d="M595.312 400.731C629.84 406.177 664.765 408.81 699.732 408.602C699.732 406.32 699.732 403.958 699.173 401.676V400.889C699.142 400.759 699.142 400.625 699.173 400.495C699.173 397.74 698.693 395.064 698.374 392.624C663.814 393.275 629.322 395.903 595.072 400.495L595.312 400.731ZM354.196 480.15L345.567 485.03C364.486 501.391 384.983 515.89 406.765 528.321C459.439 501.455 515.669 481.982 573.821 470.469C589.16 467.478 603.941 465.09 618.161 463.306C593.578 460.576 569.19 456.343 545.139 450.634C519.899 444.903 495.012 437.755 470.6 429.224C430.214 442.44 391.228 459.495 354.196 480.15ZM196.967 601.994C208.584 616.128 221.561 629.123 235.715 640.799L236.434 641.428L238.751 643.396L239.39 643.947L240.029 644.498L240.828 645.128L241.387 645.521L241.866 645.915L242.266 646.308L242.905 646.781H243.384H243.784C253.264 636.863 263.091 627.287 273.264 618.051C299.796 595.069 328.32 574.42 358.51 556.342C338.064 543.775 318.692 529.586 300.588 513.917C263.234 539.838 228.602 569.37 197.206 602.073" fill="#134E92"/>
<path d="M595.312 400.731C629.84 406.177 664.765 408.81 699.732 408.602C699.732 406.32 699.732 403.958 699.173 401.676V400.889C699.142 400.759 699.142 400.625 699.173 400.495C699.173 397.74 698.693 395.064 698.374 392.624C663.814 393.275 629.322 395.903 595.072 400.495L595.312 400.731ZM354.196 480.15L345.567 485.03C364.486 501.391 384.983 515.89 406.765 528.321C459.439 501.455 515.669 481.982 573.821 470.469C589.16 467.478 603.941 465.09 618.161 463.306C593.578 460.576 569.19 456.343 545.139 450.634C519.899 444.903 495.012 437.755 470.6 429.224C430.214 442.44 391.228 459.495 354.196 480.15ZM196.967 601.994C208.584 616.128 221.561 629.123 235.715 640.799L236.434 641.428L238.751 643.396L239.39 643.947L240.029 644.498L240.828 645.128L241.387 645.521L241.866 645.915L242.266 646.308L242.905 646.781H243.384H243.784C253.264 636.863 263.091 627.287 273.264 618.051C299.796 595.069 328.32 574.42 358.51 556.342C338.064 543.775 318.692 529.586 300.588 513.917C263.234 539.838 228.602 569.37 197.206 602.073" fill="url(#paint2_linear_264_30708)"/>
<path d="M496.884 566.496C540.82 579.153 586.366 585.567 632.142 585.544C638.693 585.544 644.685 585.544 650.038 585.544L648.12 588.22C652.834 581.687 657.228 574.918 661.383 567.991V567.519L664.738 561.694C645.484 559.805 624.232 558.546 601.543 558.546C566.216 558.532 530.956 561.561 496.164 567.598L496.884 566.496ZM405.646 590.66C354.8 607.955 306.561 631.943 262.238 661.972C270.228 666.931 278.217 671.574 286.206 675.825C301.978 683.906 318.481 690.521 335.5 695.581C402.625 657.557 477.243 634.153 554.326 626.946C506.258 620.119 459.357 606.879 414.913 587.59L405.486 590.739L405.646 590.66ZM646.762 589.715L647.242 589.086L646.762 589.715ZM642.368 595.619L646.762 589.715L642.368 595.619ZM641.969 596.17C642.055 595.957 642.192 595.768 642.368 595.619C642.192 595.768 642.055 595.957 641.969 596.17ZM641.41 596.799L641.969 596.17L641.41 596.799ZM640.93 598.295V598.688V598.295ZM640.531 599.239V598.846L640.131 599.397L640.531 599.239ZM639.412 600.341L640.051 599.476C639.812 599.745 639.599 600.034 639.412 600.341ZM638.773 601.128C638.94 600.833 639.157 600.567 639.412 600.341C639.157 600.567 638.94 600.833 638.773 601.128ZM638.374 601.916V601.522V601.916ZM630.384 611.518C633.101 608.37 635.817 605.221 638.374 601.994C635.737 605.221 633.021 608.37 630.384 611.518ZM629.665 612.305L629.346 611.44L628.707 612.148L629.665 612.305ZM628.067 612.856L628.627 612.227L628.067 612.856ZM627.268 613.722L627.908 613.092L627.268 613.722Z" fill="#134E92"/>
<path d="M496.884 566.496C540.82 579.153 586.366 585.567 632.142 585.544C638.693 585.544 644.685 585.544 650.038 585.544L648.12 588.22C652.834 581.687 657.228 574.918 661.383 567.991V567.519L664.738 561.694C645.484 559.805 624.232 558.546 601.543 558.546C566.216 558.532 530.956 561.561 496.164 567.598L496.884 566.496ZM405.646 590.66C354.8 607.955 306.561 631.943 262.238 661.972C270.228 666.931 278.217 671.574 286.206 675.825C301.978 683.906 318.481 690.521 335.5 695.581C402.625 657.557 477.243 634.153 554.326 626.946C506.258 620.119 459.357 606.879 414.913 587.59L405.486 590.739L405.646 590.66ZM646.762 589.715L647.242 589.086L646.762 589.715ZM642.368 595.619L646.762 589.715L642.368 595.619ZM641.969 596.17C642.055 595.957 642.192 595.768 642.368 595.619C642.192 595.768 642.055 595.957 641.969 596.17ZM641.41 596.799L641.969 596.17L641.41 596.799ZM640.93 598.295V598.688V598.295ZM640.531 599.239V598.846L640.131 599.397L640.531 599.239ZM639.412 600.341L640.051 599.476C639.812 599.745 639.599 600.034 639.412 600.341ZM638.773 601.128C638.94 600.833 639.157 600.567 639.412 600.341C639.157 600.567 638.94 600.833 638.773 601.128ZM638.374 601.916V601.522V601.916ZM630.384 611.518C633.101 608.37 635.817 605.221 638.374 601.994C635.737 605.221 633.021 608.37 630.384 611.518ZM629.665 612.305L629.346 611.44L628.707 612.148L629.665 612.305ZM628.067 612.856L628.627 612.227L628.067 612.856ZM627.268 613.722L627.908 613.092L627.268 613.722Z" fill="url(#paint3_linear_264_30708)"/>
<path d="M164.148 298.877C186.076 367.219 223.63 429.692 273.92 481.485C388.327 598.213 533.732 621.197 617.459 623.637C637.685 603.527 654.708 580.519 667.951 555.395C624.49 559.252 450.164 565.312 322.415 434.81C267.251 377.478 230.051 305.682 215.279 228.037C194.525 248.897 177.17 272.792 163.828 298.877" fill="#86C69F"/>
<path d="M164.148 298.877C186.076 367.219 223.63 429.692 273.92 481.485C388.327 598.213 533.732 621.197 617.459 623.637C637.685 603.527 654.708 580.519 667.951 555.395C624.49 559.252 450.164 565.312 322.415 434.81C267.251 377.478 230.051 305.682 215.279 228.037C194.525 248.897 177.17 272.792 163.828 298.877" fill="url(#paint4_linear_264_30708)"/>
<path d="M240.037 206.153C243.547 216.884 247.709 227.398 252.5 237.637C315.696 374.436 481.473 458.577 686.238 458.577C688.795 458.577 691.351 458.577 698.462 459.128C699.813 447.817 700.48 436.436 700.459 425.047C700.453 414.081 699.84 403.124 698.622 392.224C514.309 393.012 365.868 321.385 313.938 209.537C307.979 196.614 303.245 183.176 299.797 169.395C278.425 179.094 258.352 191.361 240.037 205.916" fill="#86C69F"/>
<path d="M240.037 206.153C243.547 216.884 247.709 227.398 252.5 237.637C315.696 374.436 481.473 458.577 686.238 458.577C688.795 458.577 691.351 458.577 698.462 459.128C699.813 447.817 700.48 436.436 700.459 425.047C700.453 414.081 699.84 403.124 698.622 392.224C514.309 393.012 365.868 321.385 313.938 209.537C307.979 196.614 303.245 183.176 299.797 169.395C278.425 179.094 258.352 191.361 240.037 205.916" fill="url(#paint5_linear_264_30708)"/>
<path d="M324.328 159.876C395.033 252.047 522.063 305.255 669.784 305.255H673.38C661.622 280.672 646.31 257.898 627.921 237.643C534.606 231.346 453.754 197.736 400.546 145C374.559 146.479 348.907 151.512 324.328 159.955" fill="#86C69F"/>
<path d="M324.328 159.876C395.033 252.047 522.063 305.255 669.784 305.255H673.38C661.622 280.672 646.31 257.898 627.921 237.643C534.606 231.346 453.754 197.736 400.546 145C374.559 146.479 348.907 151.512 324.328 159.955" fill="url(#paint6_linear_264_30708)"/>
<circle cx="621" cy="42" r="18" fill="#8AD3A8"/>
<circle cx="816" cy="237" r="18" fill="white"/>
<circle cx="621" cy="816" r="18" fill="#8AD3A8"/>
<circle cx="816" cy="624" r="18" fill="white"/>
<defs>
<linearGradient id="paint0_linear_264_30708" x1="-9.99999" y1="431" x2="874" y2="390.5" gradientUnits="userSpaceOnUse">
<stop stop-color="#E4E4E4"/>
<stop offset="0.677312" stop-color="#888888" stop-opacity="0"/>
</linearGradient>
<linearGradient id="paint1_linear_264_30708" x1="150" y1="415.397" x2="752.545" y2="225.664" gradientUnits="userSpaceOnUse">
<stop stop-color="#245795"/>
<stop offset="1" stop-color="#8AD3A8"/>
</linearGradient>
<linearGradient id="paint2_linear_264_30708" x1="196.967" y1="520.472" x2="1228.74" y2="235.492" gradientUnits="userSpaceOnUse">
<stop stop-color="#245795"/>
<stop offset="1" stop-color="#8AD3A8"/>
</linearGradient>
<linearGradient id="paint3_linear_264_30708" x1="289.439" y1="656.619" x2="884.537" y2="469.339" gradientUnits="userSpaceOnUse">
<stop stop-color="#245795"/>
<stop offset="1" stop-color="#8AD3A8"/>
</linearGradient>
<linearGradient id="paint4_linear_264_30708" x1="641.745" y1="597.583" x2="147.609" y2="321.127" gradientUnits="userSpaceOnUse">
<stop stop-color="#245795"/>
<stop offset="1" stop-color="#8AD3A8"/>
</linearGradient>
<linearGradient id="paint5_linear_264_30708" x1="674.77" y1="424.417" x2="259.631" y2="223.829" gradientUnits="userSpaceOnUse">
<stop stop-color="#245795"/>
<stop offset="1" stop-color="#8AD3A8"/>
</linearGradient>
<linearGradient id="paint6_linear_264_30708" x1="671.099" y1="302.421" x2="314.931" y2="115.167" gradientUnits="userSpaceOnUse">
<stop stop-color="#245795"/>
<stop offset="1" stop-color="#8AD3A8"/>
</linearGradient>
</defs>
</svg>
