<svg width="1140" height="716" viewBox="0 0 1140 716" fill="none" xmlns="http://www.w3.org/2000/svg">
<g opacity="0.25">
<ellipse cx="408.219" cy="302.468" rx="10.8537" ry="18.1992" fill="#D9D9D9"/>
<ellipse cx="408.219" cy="302.468" rx="10.8537" ry="18.1992" fill="url(#paint0_radial_501_36508)"/>
</g>
<path d="M566.323 395.541L410.951 302.468" stroke="url(#paint1_linear_501_36508)" stroke-width="8" stroke-linecap="round"/>
<path d="M9.41085 297.514C5.81169 295.301 3.36815 292.016 2.08988 288.357L1.03125 265.146L77.0116 261.07L476.416 265.553L476.416 282.138C476.416 288.01 473.688 293.869 468.227 297.219L395.488 341.872L336.091 378.336L269.621 419.142C250.409 430.939 226.738 430.939 207.529 419.142L150.601 384.195L72.5816 336.237V336.299L72.5332 336.264L14.6853 300.751L9.41085 297.514Z" fill="#D4F2E4"/>
<path d="M9.41085 297.514C5.81169 295.301 3.36815 292.016 2.08988 288.357L1.03125 265.146L77.0116 261.07L476.416 265.553L476.416 282.138C476.416 288.01 473.688 293.869 468.227 297.219L395.488 341.872L336.091 378.336L269.621 419.142C250.409 430.939 226.738 430.939 207.529 419.142L150.601 384.195L72.5816 336.237V336.299L72.5332 336.264L14.6853 300.751L9.41085 297.514Z" fill="url(#paint2_linear_501_36508)" fill-opacity="0.15"/>
<path d="M269.613 123.597L469.219 245.522C474.705 248.87 477.444 254.735 477.447 260.6C477.447 266.468 474.708 272.323 469.222 275.671L396.169 320.293L336.514 356.732L269.756 397.51C250.459 409.299 226.686 409.299 207.394 397.51L150.219 362.587L71.8609 314.661V314.723L71.8123 314.689L13.7134 279.2L8.4161 275.966C4.80133 273.753 2.34719 270.471 1.06338 266.815C0.356634 264.805 1.12178e-05 262.678 1.12178e-05 260.552C-0.00647267 254.553 2.79781 248.551 8.40961 245.121L207.235 123.607C226.534 111.812 250.31 111.808 269.613 123.597Z" fill="#F0FAF6"/>
<path d="M486.296 506.268C481.254 503.167 477.831 498.565 476.04 493.439L474.557 401.841L581.003 396.132L1140.56 402.412L1140.56 484.726C1140.56 492.953 1136.73 501.161 1129.08 505.854L1027.18 568.412L943.965 619.497L850.843 676.665C823.927 693.191 790.765 693.191 763.853 676.665L684.099 627.705L574.796 560.517V560.603L574.729 560.555L493.686 510.802L486.296 506.268Z" fill="#D4F2E4"/>
<path d="M486.296 506.268C481.254 503.167 477.831 498.565 476.04 493.439L474.557 401.841L581.003 396.132L1140.56 402.412L1140.56 484.726C1140.56 492.953 1136.73 501.161 1129.08 505.854L1027.18 568.412L943.965 619.497L850.843 676.665C823.927 693.191 790.765 693.191 763.853 676.665L684.099 627.705L574.796 560.517V560.603L574.729 560.555L493.686 510.802L486.296 506.268Z" fill="url(#paint3_linear_501_36508)" fill-opacity="0.15"/>
<path d="M850.83 203.276L1130.47 374.09C1138.16 378.78 1142 386.997 1142 395.213C1142 403.435 1138.16 411.637 1130.48 416.327L1028.13 478.842L944.556 529.892L851.03 587.021C823.997 603.536 790.692 603.536 763.663 587.021L683.563 538.095L573.786 470.952V471.039L573.718 470.991L492.323 421.272L484.902 416.74C479.838 413.641 476.4 409.043 474.601 403.92C473.611 401.105 473.111 398.125 473.111 395.146C473.102 386.742 477.031 378.333 484.893 373.528L763.441 203.291C790.478 186.766 823.788 186.761 850.83 203.276Z" fill="#F0FAF6"/>
<path fill-rule="evenodd" clip-rule="evenodd" d="M632.151 474.658L930.934 302.258V108.662L632.148 281.063L515.151 213.544V407.14L632.145 474.657V474.661L632.148 474.659L632.151 474.661V474.658Z" fill="#AA989A"/>
<path fill-rule="evenodd" clip-rule="evenodd" d="M632.151 474.658L930.934 302.258V108.662L632.148 281.063L515.151 213.544V407.14L632.145 474.657V474.661L632.148 474.659L632.151 474.661V474.658Z" fill="#D4F2E4"/>
<path d="M930.939 108.662L632.151 281.065L515.151 213.544L813.94 41.2769L930.939 108.662Z" fill="#F8F4F5"/>
<path d="M930.939 108.662L632.151 281.065L515.151 213.544L813.94 41.2769L930.939 108.662Z" fill="#F0FAF6"/>
<path d="M813.672 55.7455L536.638 217.347L527.8 212.117L813.672 47.2544V55.7455Z" fill="url(#paint4_linear_501_36508)" fill-opacity="0.5"/>
<path d="M913.741 112.534L813.669 55.7455V47.2544L920.607 108.934L913.741 112.534Z" fill="url(#paint5_linear_501_36508)" fill-opacity="0.5"/>
<path d="M656.672 231.733C655.437 246.129 633.797 248.714 633.797 248.714C633.797 248.714 620.742 251.241 608.04 245.776C595.338 240.253 595.926 231.733 595.926 231.733V227.326L656.672 228.619V231.733Z" fill="#848387"/>
<path d="M656.672 231.733C655.437 246.129 633.797 248.714 633.797 248.714C633.797 248.714 620.742 251.241 608.04 245.776C595.338 240.253 595.926 231.733 595.926 231.733V227.326L656.672 228.619V231.733Z" fill="#D4F2E4"/>
<path d="M626.328 246.129C609.57 246.129 595.984 238.29 595.984 228.619C595.984 218.949 609.57 211.109 626.328 211.109C643.087 211.109 656.672 218.949 656.672 228.619C656.672 238.29 643.087 246.129 626.328 246.129Z" fill="#2D2421"/>
<path d="M626.328 246.129C609.57 246.129 595.984 238.29 595.984 228.619C595.984 218.949 609.57 211.109 626.328 211.109C643.087 211.109 656.672 218.949 656.672 228.619C656.672 238.29 643.087 246.129 626.328 246.129Z" fill="#D4F2E4"/>
<path d="M626.328 246.129C609.57 246.129 595.984 238.29 595.984 228.619C595.984 218.949 609.57 211.109 626.328 211.109C643.087 211.109 656.672 218.949 656.672 228.619C656.672 238.29 643.087 246.129 626.328 246.129Z" fill="url(#paint6_linear_501_36508)" fill-opacity="0.5"/>
<path d="M649.2 86.3076L653.904 227.973C652.787 241.076 633.146 243.367 633.146 243.367C633.146 243.367 621.267 245.659 609.741 240.665C598.215 235.67 598.686 227.914 598.686 227.914L603.39 86.3076H649.2Z" fill="#848387"/>
<path d="M649.2 86.3076L653.904 227.973C652.787 241.076 633.146 243.367 633.146 243.367C633.146 243.367 621.267 245.659 609.741 240.665C598.215 235.67 598.686 227.914 598.686 227.914L603.39 86.3076H649.2Z" fill="#D4F2E4"/>
<path d="M649.2 86.3076L653.904 227.973C652.787 241.076 633.146 243.367 633.146 243.367C633.146 243.367 621.267 245.659 609.741 240.665C598.215 235.67 598.686 227.914 598.686 227.914L603.39 86.3076H649.2Z" fill="#D4F2E4"/>
<path d="M626.331 99.5279C613.665 99.5279 603.397 93.6089 603.397 86.3074C603.397 79.0059 613.665 73.0869 626.331 73.0869C638.998 73.0869 649.266 79.0059 649.266 86.3074C649.266 93.6089 638.998 99.5279 626.331 99.5279Z" fill="#F0FAF6"/>
<path d="M626.331 99.5279C613.665 99.5279 603.397 93.6089 603.397 86.3074C603.397 79.0059 613.665 73.0869 626.331 73.0869C638.998 73.0869 649.266 79.0059 649.266 86.3074C649.266 93.6089 638.998 99.5279 626.331 99.5279Z" fill="url(#paint7_linear_501_36508)" fill-opacity="0.5"/>
<path d="M626.331 99.5279C613.665 99.5279 603.397 93.6089 603.397 86.3074C603.397 79.0059 613.665 73.0869 626.331 73.0869C638.998 73.0869 649.266 79.0059 649.266 86.3074C649.266 93.6089 638.998 99.5279 626.331 99.5279Z" fill="#F0FAF6"/>
<path d="M626.329 96.9877C616.097 96.9877 607.802 92.2062 607.802 86.3078C607.802 80.4095 616.097 75.6279 626.329 75.6279C636.561 75.6279 644.855 80.4095 644.855 86.3078C644.855 92.2062 636.561 96.9877 626.329 96.9877Z" fill="#F0FAF6"/>
<path d="M626.329 96.9877C616.097 96.9877 607.802 92.2062 607.802 86.3078C607.802 80.4095 616.097 75.6279 626.329 75.6279C636.561 75.6279 644.855 80.4095 644.855 86.3078C644.855 92.2062 636.561 96.9877 626.329 96.9877Z" fill="url(#paint8_linear_501_36508)" fill-opacity="0.3"/>
<path d="M726.311 196.593C725.076 210.989 703.435 213.574 703.435 213.574C703.435 213.574 690.38 216.101 677.678 210.636C664.976 205.113 665.564 196.593 665.564 196.593V192.187L726.311 193.479V196.593Z" fill="#848387"/>
<path d="M726.311 196.593C725.076 210.989 703.435 213.574 703.435 213.574C703.435 213.574 690.38 216.101 677.678 210.636C664.976 205.113 665.564 196.593 665.564 196.593V192.187L726.311 193.479V196.593Z" fill="#D4F2E4"/>
<path d="M695.967 210.989C679.209 210.989 665.623 203.15 665.623 193.48C665.623 183.809 679.209 175.97 695.967 175.97C712.725 175.97 726.311 183.809 726.311 193.48C726.311 203.15 712.725 210.989 695.967 210.989Z" fill="#2D2421"/>
<path d="M695.967 210.989C679.209 210.989 665.623 203.15 665.623 193.48C665.623 183.809 679.209 175.97 695.967 175.97C712.725 175.97 726.311 183.809 726.311 193.48C726.311 203.15 712.725 210.989 695.967 210.989Z" fill="#D4F2E4"/>
<path d="M695.967 210.989C679.209 210.989 665.623 203.15 665.623 193.48C665.623 183.809 679.209 175.97 695.967 175.97C712.725 175.97 726.311 183.809 726.311 193.48C726.311 203.15 712.725 210.989 695.967 210.989Z" fill="url(#paint9_linear_501_36508)" fill-opacity="0.5"/>
<path d="M718.839 51.168L723.543 192.833C722.426 205.936 702.785 208.228 702.785 208.228C702.785 208.228 690.906 210.519 679.38 205.525C667.854 200.53 668.325 192.774 668.325 192.774L673.029 51.168H718.839Z" fill="#848387"/>
<path d="M718.839 51.168L723.543 192.833C722.426 205.936 702.785 208.228 702.785 208.228C702.785 208.228 690.906 210.519 679.38 205.525C667.854 200.53 668.325 192.774 668.325 192.774L673.029 51.168H718.839Z" fill="#D4F2E4"/>
<path d="M718.839 51.168L723.543 192.833C722.426 205.936 702.785 208.228 702.785 208.228C702.785 208.228 690.906 210.519 679.38 205.525C667.854 200.53 668.325 192.774 668.325 192.774L673.029 51.168H718.839Z" fill="#D4F2E4"/>
<path d="M695.97 64.3883C683.304 64.3883 673.036 58.4693 673.036 51.1678C673.036 43.8663 683.304 37.9473 695.97 37.9473C708.636 37.9473 718.904 43.8663 718.904 51.1678C718.904 58.4693 708.636 64.3883 695.97 64.3883Z" fill="#F0FAF6"/>
<path d="M695.97 64.3883C683.304 64.3883 673.036 58.4693 673.036 51.1678C673.036 43.8663 683.304 37.9473 695.97 37.9473C708.636 37.9473 718.904 43.8663 718.904 51.1678C718.904 58.4693 708.636 64.3883 695.97 64.3883Z" fill="url(#paint10_linear_501_36508)" fill-opacity="0.5"/>
<path d="M695.97 64.3883C683.304 64.3883 673.036 58.4693 673.036 51.1678C673.036 43.8663 683.304 37.9473 695.97 37.9473C708.636 37.9473 718.904 43.8663 718.904 51.1678C718.904 58.4693 708.636 64.3883 695.97 64.3883Z" fill="#F0FAF6"/>
<path d="M695.967 61.8476C685.735 61.8476 677.44 57.066 677.44 51.1677C677.44 45.2693 685.735 40.4878 695.967 40.4878C706.199 40.4878 714.494 45.2693 714.494 51.1677C714.494 57.066 706.199 61.8476 695.967 61.8476Z" fill="#F0FAF6"/>
<path d="M695.967 61.8476C685.735 61.8476 677.44 57.066 677.44 51.1677C677.44 45.2693 685.735 40.4878 695.967 40.4878C706.199 40.4878 714.494 45.2693 714.494 51.1677C714.494 57.066 706.199 61.8476 695.967 61.8476Z" fill="url(#paint11_linear_501_36508)" fill-opacity="0.3"/>
<path d="M793.977 158.646C792.742 173.042 771.101 175.627 771.101 175.627C771.101 175.627 758.046 178.154 745.344 172.689C732.642 167.166 733.23 158.646 733.23 158.646V154.239L793.977 155.532V158.646Z" fill="#848387"/>
<path d="M793.977 158.646C792.742 173.042 771.101 175.627 771.101 175.627C771.101 175.627 758.046 178.154 745.344 172.689C732.642 167.166 733.23 158.646 733.23 158.646V154.239L793.977 155.532V158.646Z" fill="#D4F2E4"/>
<path d="M763.633 173.042C746.875 173.042 733.289 165.203 733.289 155.532C733.289 145.862 746.875 138.022 763.633 138.022C780.391 138.022 793.977 145.862 793.977 155.532C793.977 165.203 780.391 173.042 763.633 173.042Z" fill="#2D2421"/>
<path d="M763.633 173.042C746.875 173.042 733.289 165.203 733.289 155.532C733.289 145.862 746.875 138.022 763.633 138.022C780.391 138.022 793.977 145.862 793.977 155.532C793.977 165.203 780.391 173.042 763.633 173.042Z" fill="#D4F2E4"/>
<path d="M763.633 173.042C746.875 173.042 733.289 165.203 733.289 155.532C733.289 145.862 746.875 138.022 763.633 138.022C780.391 138.022 793.977 145.862 793.977 155.532C793.977 165.203 780.391 173.042 763.633 173.042Z" fill="url(#paint12_linear_501_36508)" fill-opacity="0.5"/>
<path d="M786.505 13.2207L791.209 154.886C790.092 167.989 770.451 170.28 770.451 170.28C770.451 170.28 758.572 172.572 747.046 167.578C735.52 162.583 735.991 154.827 735.991 154.827L740.695 13.2207H786.505Z" fill="#848387"/>
<path d="M786.505 13.2207L791.209 154.886C790.092 167.989 770.451 170.28 770.451 170.28C770.451 170.28 758.572 172.572 747.046 167.578C735.52 162.583 735.991 154.827 735.991 154.827L740.695 13.2207H786.505Z" fill="#D4F2E4"/>
<path d="M786.505 13.2207L791.209 154.886C790.092 167.989 770.451 170.28 770.451 170.28C770.451 170.28 758.572 172.572 747.046 167.578C735.52 162.583 735.991 154.827 735.991 154.827L740.695 13.2207H786.505Z" fill="#D4F2E4"/>
<path d="M763.636 26.441C750.97 26.441 740.702 20.522 740.702 13.2205C740.702 5.91903 750.97 0 763.636 0C776.302 0 786.57 5.91903 786.57 13.2205C786.57 20.522 776.302 26.441 763.636 26.441Z" fill="#F0FAF6"/>
<path d="M763.636 26.441C750.97 26.441 740.702 20.522 740.702 13.2205C740.702 5.91903 750.97 0 763.636 0C776.302 0 786.57 5.91903 786.57 13.2205C786.57 20.522 776.302 26.441 763.636 26.441Z" fill="url(#paint13_linear_501_36508)" fill-opacity="0.5"/>
<path d="M763.636 26.441C750.97 26.441 740.702 20.522 740.702 13.2205C740.702 5.91903 750.97 0 763.636 0C776.302 0 786.57 5.91903 786.57 13.2205C786.57 20.522 776.302 26.441 763.636 26.441Z" fill="#F0FAF6"/>
<path d="M763.633 23.9003C753.401 23.9003 745.106 19.1188 745.106 13.2204C745.106 7.32208 753.401 2.54053 763.633 2.54053C773.865 2.54053 782.16 7.32208 782.16 13.2204C782.16 19.1188 773.865 23.9003 763.633 23.9003Z" fill="#F0FAF6"/>
<path d="M763.633 23.9003C753.401 23.9003 745.106 19.1188 745.106 13.2204C745.106 7.32208 753.401 2.54053 763.633 2.54053C773.865 2.54053 782.16 7.32208 782.16 13.2204C782.16 19.1188 773.865 23.9003 763.633 23.9003Z" fill="url(#paint14_linear_501_36508)" fill-opacity="0.3"/>
<path d="M566.328 290.389L535.297 271.553L535.3 333.687L566.328 352.131V290.389Z" fill="#D9D9D9"/>
<path d="M566.328 290.389L535.297 271.553L535.3 333.687L566.328 352.131V290.389Z" fill="#F0FAF6"/>
<path fill-rule="evenodd" clip-rule="evenodd" d="M568.273 354.914V289.043L533.576 269.053V334.924L568.273 354.914ZM549.294 340.437L536.677 333.154V274.438L549.294 281.721V340.437ZM552.469 342.27V283.554L565.173 290.887V349.603L552.469 342.27Z" fill="#D4F2E4"/>
<path fill-rule="evenodd" clip-rule="evenodd" d="M568.273 354.914V289.043L533.576 269.053V334.924L568.273 354.914ZM549.294 340.437L536.677 333.154V274.438L549.294 281.721V340.437ZM552.469 342.27V283.554L565.173 290.887V349.603L552.469 342.27Z" fill="url(#paint15_linear_501_36508)" fill-opacity="0.4"/>
<path fill-rule="evenodd" clip-rule="evenodd" d="M568.273 354.914V289.043L533.576 269.053V334.924L568.273 354.914ZM549.294 340.437L536.677 333.154V274.438L549.294 281.721V340.437ZM552.469 342.27V283.554L565.173 290.887V349.603L552.469 342.27Z" fill="url(#paint16_linear_501_36508)" fill-opacity="0.4"/>
<path d="M873.247 198.272L904.277 179.436L904.274 241.57L873.247 260.014V198.272Z" fill="#D9D9D9"/>
<path d="M873.247 198.272L904.277 179.436L904.274 241.57L873.247 260.014V198.272Z" fill="#F0FAF6"/>
<path fill-rule="evenodd" clip-rule="evenodd" d="M871.301 262.797V196.926L905.998 176.936V242.807L871.301 262.797ZM890.28 248.32L902.898 241.037V182.32L890.28 189.604V248.32ZM887.106 250.153V191.436L874.401 198.77V257.486L887.106 250.153Z" fill="#D4F2E4"/>
<path fill-rule="evenodd" clip-rule="evenodd" d="M871.301 262.797V196.926L905.998 176.936V242.807L871.301 262.797ZM890.28 248.32L902.898 241.037V182.32L890.28 189.604V248.32ZM887.106 250.153V191.436L874.401 198.77V257.486L887.106 250.153Z" fill="url(#paint17_linear_501_36508)" fill-opacity="0.4"/>
<path fill-rule="evenodd" clip-rule="evenodd" d="M871.301 262.797V196.926L905.998 176.936V242.807L871.301 262.797ZM890.28 248.32L902.898 241.037V182.32L890.28 189.604V248.32ZM887.106 250.153V191.436L874.401 198.77V257.486L887.106 250.153Z" fill="url(#paint18_linear_501_36508)" fill-opacity="0.4"/>
<path d="M825.184 226.401L856.215 207.564L856.212 269.699L825.184 288.143V226.401Z" fill="#D9D9D9"/>
<path d="M825.184 226.401L856.215 207.564L856.212 269.699L825.184 288.143V226.401Z" fill="#F0FAF6"/>
<path fill-rule="evenodd" clip-rule="evenodd" d="M823.238 290.926V225.055L857.936 205.064V270.936L823.238 290.926ZM842.214 276.451L854.835 269.166V210.449L842.214 217.735V276.451ZM839.04 278.284V219.567L826.339 226.899V285.615L839.04 278.284Z" fill="#D4F2E4"/>
<path fill-rule="evenodd" clip-rule="evenodd" d="M823.238 290.926V225.055L857.936 205.064V270.936L823.238 290.926ZM842.214 276.451L854.835 269.166V210.449L842.214 217.735V276.451ZM839.04 278.284V219.567L826.339 226.899V285.615L839.04 278.284Z" fill="url(#paint19_linear_501_36508)" fill-opacity="0.4"/>
<path fill-rule="evenodd" clip-rule="evenodd" d="M823.238 290.926V225.055L857.936 205.064V270.936L823.238 290.926ZM842.214 276.451L854.835 269.166V210.449L842.214 217.735V276.451ZM839.04 278.284V219.567L826.339 226.899V285.615L839.04 278.284Z" fill="url(#paint20_linear_501_36508)" fill-opacity="0.4"/>
<path d="M777.139 254.205L808.17 235.368L808.167 297.503L777.139 315.947V254.205Z" fill="#D9D9D9"/>
<path d="M777.139 254.205L808.17 235.368L808.167 297.503L777.139 315.947V254.205Z" fill="#F0FAF6"/>
<path fill-rule="evenodd" clip-rule="evenodd" d="M775.18 318.73V252.858L809.877 232.868V298.74L775.18 318.73ZM794.156 304.255L806.776 296.969V238.253L794.156 245.538V304.255ZM790.981 306.087V247.371L778.28 254.702V313.419L790.981 306.087Z" fill="#D4F2E4"/>
<path fill-rule="evenodd" clip-rule="evenodd" d="M775.18 318.73V252.858L809.877 232.868V298.74L775.18 318.73ZM794.156 304.255L806.776 296.969V238.253L794.156 245.538V304.255ZM790.981 306.087V247.371L778.28 254.702V313.419L790.981 306.087Z" fill="url(#paint21_linear_501_36508)" fill-opacity="0.4"/>
<path fill-rule="evenodd" clip-rule="evenodd" d="M775.18 318.73V252.858L809.877 232.868V298.74L775.18 318.73ZM794.156 304.255L806.776 296.969V238.253L794.156 245.538V304.255ZM790.981 306.087V247.371L778.28 254.702V313.419L790.981 306.087Z" fill="url(#paint22_linear_501_36508)" fill-opacity="0.4"/>
<path d="M729.086 281.35L760.117 262.514L760.114 324.648L729.086 343.092V281.35Z" fill="#D9D9D9"/>
<path d="M729.086 281.35L760.117 262.514L760.114 324.648L729.086 343.092V281.35Z" fill="#F0FAF6"/>
<path fill-rule="evenodd" clip-rule="evenodd" d="M727.131 345.875V280.004L761.828 260.014V325.885L727.131 345.875ZM746.11 331.398L758.728 324.115V265.398L746.11 272.682V331.398ZM742.936 333.231V274.514L730.231 281.848V340.564L742.936 333.231Z" fill="#D4F2E4"/>
<path fill-rule="evenodd" clip-rule="evenodd" d="M727.131 345.875V280.004L761.828 260.014V325.885L727.131 345.875ZM746.11 331.398L758.728 324.115V265.398L746.11 272.682V331.398ZM742.936 333.231V274.514L730.231 281.848V340.564L742.936 333.231Z" fill="url(#paint23_linear_501_36508)" fill-opacity="0.4"/>
<path fill-rule="evenodd" clip-rule="evenodd" d="M727.131 345.875V280.004L761.828 260.014V325.885L727.131 345.875ZM746.11 331.398L758.728 324.115V265.398L746.11 272.682V331.398ZM742.936 333.231V274.514L730.231 281.848V340.564L742.936 333.231Z" fill="url(#paint24_linear_501_36508)" fill-opacity="0.4"/>
<path d="M681.034 307.058L712.064 288.222L712.061 350.356L681.034 368.8V307.058Z" fill="#D9D9D9"/>
<path d="M681.034 307.058L712.064 288.222L712.061 350.356L681.034 368.8V307.058Z" fill="#F0FAF6"/>
<path fill-rule="evenodd" clip-rule="evenodd" d="M679.078 371.583V305.712L713.776 285.722V351.593L679.078 371.583ZM698.057 357.106L710.675 349.823V291.106L698.057 298.39V357.106ZM694.883 358.939V300.222L682.179 307.556V366.272L694.883 358.939Z" fill="#D4F2E4"/>
<path fill-rule="evenodd" clip-rule="evenodd" d="M679.078 371.583V305.712L713.776 285.722V351.593L679.078 371.583ZM698.057 357.106L710.675 349.823V291.106L698.057 298.39V357.106ZM694.883 358.939V300.222L682.179 307.556V366.272L694.883 358.939Z" fill="url(#paint25_linear_501_36508)" fill-opacity="0.4"/>
<path fill-rule="evenodd" clip-rule="evenodd" d="M679.078 371.583V305.712L713.776 285.722V351.593L679.078 371.583ZM698.057 357.106L710.675 349.823V291.106L698.057 298.39V357.106ZM694.883 358.939V300.222L682.179 307.556V366.272L694.883 358.939Z" fill="url(#paint26_linear_501_36508)" fill-opacity="0.4"/>
<path d="M613.853 317.184L582.822 298.348L582.825 360.482L613.853 378.926V317.184Z" fill="#D9D9D9"/>
<path d="M613.853 317.184L582.822 298.348L582.825 360.482L613.853 378.926V317.184Z" fill="#F0FAF6"/>
<path fill-rule="evenodd" clip-rule="evenodd" d="M615.809 381.709V315.838L581.111 295.848V361.719L615.809 381.709ZM596.833 367.234L584.212 359.949V301.232L596.833 308.518V367.234ZM600.007 369.067V310.35L612.708 317.682V376.398L600.007 369.067Z" fill="#D4F2E4"/>
<path fill-rule="evenodd" clip-rule="evenodd" d="M615.809 381.709V315.838L581.111 295.848V361.719L615.809 381.709ZM596.833 367.234L584.212 359.949V301.232L596.833 308.518V367.234ZM600.007 369.067V310.35L612.708 317.682V376.398L600.007 369.067Z" fill="url(#paint27_linear_501_36508)" fill-opacity="0.4"/>
<path fill-rule="evenodd" clip-rule="evenodd" d="M615.809 381.709V315.838L581.111 295.848V361.719L615.809 381.709ZM596.833 367.234L584.212 359.949V301.232L596.833 308.518V367.234ZM600.007 369.067V310.35L612.708 317.682V376.398L600.007 369.067Z" fill="url(#paint28_linear_501_36508)" fill-opacity="0.4"/>
<path fill-rule="evenodd" clip-rule="evenodd" d="M974.522 263.132C975.187 262.618 978.833 261.958 980.335 261.758C981.837 261.562 982.605 260.572 983.235 260.894C983.865 261.217 984.626 262.725 981.426 264.019C978.222 265.309 976.366 265.981 974.757 267.191C973.147 268.396 969.905 270.554 968.68 270.066C967.458 269.579 967.773 267.571 967.773 267.571C967.773 267.571 973.858 263.651 974.522 263.132Z" fill="white"/>
<path fill-rule="evenodd" clip-rule="evenodd" d="M966.489 268.473C966.489 268.473 973.738 263.32 977.653 263.075C981.567 262.829 989.262 264.806 990.149 266.346C990.937 267.72 988.217 270.208 985.447 271.298C982.47 272.473 981.513 273.087 979.255 273.813C976.996 274.539 974.418 274.078 970.3 275.564C968.495 276.213 966.489 268.473 966.489 268.473Z" fill="white"/>
<path fill-rule="evenodd" clip-rule="evenodd" d="M902.87 277.254C906.593 282.863 928.236 282.99 935.416 284.598C942.599 286.203 972.209 277.772 972.209 277.772C972.209 277.772 972.862 273.403 972.44 270.443C972.013 267.483 970.173 266.688 970.173 266.688C970.173 266.688 949.637 269.825 943.302 268.228C936.967 266.627 928.001 272.512 922.07 267.475C915.563 261.947 913.861 262.528 908.16 265.484C902.26 268.548 899.148 271.648 902.87 277.254Z" fill="#9FB8ED"/>
<path d="M960.549 387.721C963.234 419.706 1011.56 425.483 1011.56 425.483C1011.56 425.483 1040.68 431.055 1068.76 418.88C1097.06 406.706 1095.82 387.721 1095.82 387.721V216.039H960.549V387.721Z" fill="url(#paint29_linear_501_36508)"/>
<path d="M1075.99 188.388C1049.56 173.118 1006.81 173.118 980.374 188.388C953.94 203.658 953.94 228.42 980.374 243.483C1006.81 258.753 1049.56 258.753 1075.99 243.483C1102.43 228.42 1102.43 203.658 1075.99 188.388Z" fill="#F0FAF6"/>
<path d="M1066.73 193.721C1045.42 181.407 1010.94 181.407 989.626 193.721C968.309 206.035 968.309 226.003 989.626 238.151C1010.94 250.465 1045.42 250.465 1066.73 238.151C1088.05 226.003 1088.05 206.035 1066.73 193.721Z" fill="#F0FAF6"/>
<path d="M1066.73 193.721C1045.42 181.407 1010.94 181.407 989.626 193.721C968.309 206.035 968.309 226.003 989.626 238.151C1010.94 250.465 1045.42 250.465 1066.73 238.151C1088.05 226.003 1088.05 206.035 1066.73 193.721Z" fill="url(#paint30_linear_501_36508)" fill-opacity="0.2"/>
<path fill-rule="evenodd" clip-rule="evenodd" d="M1001.06 306.348C1001.06 306.348 1008.28 306.763 1012.32 306.271C1014.48 306.01 1015.88 305.649 1018.82 302.977C1020.19 301.733 1021.07 300.662 1020.6 299.783C1020.38 299.38 1019.66 300.247 1019.66 300.247C1019.66 300.247 1021.22 298.685 1020.76 297.548C1020.3 296.408 1019.48 297.76 1019.48 297.76C1019.48 297.76 1021.19 296.028 1020.66 294.926C1020.13 293.824 1019.27 295.26 1019.27 295.26C1019.27 295.26 1020.7 293.74 1020.41 292.765C1020.13 291.789 1019.55 292.02 1018.41 292.838C1017.06 293.79 1013.9 295.932 1010.91 296.255C1007.73 296.6 1005.41 295.206 1003.37 296.869C1001.33 298.527 997.927 298.47 997.927 298.47L1001.06 306.348Z" fill="white"/>
<path fill-rule="evenodd" clip-rule="evenodd" d="M1003.13 297.168C1005.54 295.007 1007.35 293.356 1008.65 291.87C1010.02 290.285 1011.58 288.849 1012.34 289.609C1013.82 291.087 1007.85 297.595 1007.85 297.595L1003.13 297.168Z" fill="white"/>
<ellipse rx="16.0562" ry="6.15056" transform="matrix(-0.965978 0.258623 0.259015 0.965873 938.741 467.175)" fill="#9FB8ED"/>
<ellipse rx="16.0562" ry="6.15056" transform="matrix(-0.965978 0.258623 0.259015 0.965873 917.36 458.471)" fill="#9FB8ED"/>
<path fill-rule="evenodd" clip-rule="evenodd" d="M907.09 335.858C907.09 335.858 900.6 340.559 901.321 351.034C901.523 353.953 905.838 406.105 905.838 406.105C905.838 406.105 901.046 463.657 902.645 464.724C904.224 465.78 906.208 465.891 908.105 465.194C910.73 464.231 913.313 462.464 914.778 460.995C916.041 459.729 921.76 430.123 924.824 406.456C928.925 374.766 931.359 344.292 931.359 344.292L907.09 335.858Z" fill="#0F0C17"/>
<mask id="mask0_501_36508" style="mask-type:alpha" maskUnits="userSpaceOnUse" x="901" y="335" width="31" height="131">
<path fill-rule="evenodd" clip-rule="evenodd" d="M907.09 335.858C907.09 335.858 900.6 340.559 901.321 351.034C901.523 353.953 905.838 406.105 905.838 406.105C905.838 406.105 901.046 463.657 902.645 464.724C904.224 465.78 906.208 465.891 908.105 465.194C910.73 464.231 913.313 462.464 914.778 460.995C916.041 459.729 921.76 430.123 924.824 406.456C928.925 374.766 931.359 344.292 931.359 344.292L907.09 335.858Z" fill="white"/>
</mask>
<g mask="url(#mask0_501_36508)">
</g>
<path fill-rule="evenodd" clip-rule="evenodd" d="M911.351 344.562C911.351 344.562 906.261 352.566 909.415 364.172C912.566 375.775 925.787 420.269 925.787 420.269C925.787 420.269 925.142 466.936 925.142 472.504C925.142 474.187 928.91 474.972 932.88 473.73C937.851 472.173 937.772 470.87 938.042 468.674C938.274 466.752 943.684 425.633 943.2 414.909C942.565 400.796 939.759 357.978 939.759 357.978L911.351 344.562Z" fill="#0F0C17"/>
<mask id="mask1_501_36508" style="mask-type:alpha" maskUnits="userSpaceOnUse" x="908" y="344" width="36" height="131">
<path fill-rule="evenodd" clip-rule="evenodd" d="M911.351 344.562C911.351 344.562 906.261 352.566 909.415 364.172C912.566 375.775 925.787 420.269 925.787 420.269C925.787 420.269 925.142 466.936 925.142 472.504C925.142 474.187 928.91 474.972 932.88 473.73C937.851 472.173 937.772 470.87 938.042 468.674C938.274 466.752 943.684 425.633 943.2 414.909C942.565 400.796 939.759 357.978 939.759 357.978L911.351 344.562Z" fill="white"/>
</mask>
<g mask="url(#mask1_501_36508)">
</g>
<path fill-rule="evenodd" clip-rule="evenodd" d="M937.144 361.719C934.732 361.887 932.458 361.964 930.322 361.964C927.829 361.964 925.52 361.861 923.372 361.684C940.49 360.405 940.686 356.056 940.686 356.056C940.686 356.056 942.956 315.336 939.357 291.87L953.616 292.527C953.67 292.903 953.72 293.302 953.77 293.69C954.124 317.594 954.846 356.056 954.846 356.056C954.846 356.056 954.124 317.532 953.77 293.633C953.689 288.008 953.244 284.495 952.337 282.03C951.945 280.959 951.465 280.084 950.889 279.32C950.163 278.348 949.283 277.554 948.238 276.751C946.275 275.246 941.908 272.298 937.432 269.552C935.181 268.174 932.903 266.85 930.894 265.786C926.795 263.617 920.276 261.475 915.501 261.475C914.598 261.475 913.765 261.551 913.016 261.716C907.534 262.934 902.041 264.723 901.511 277.991C901.219 285.32 901.238 317.643 901.284 338.015C901.292 340.599 901.295 342.987 901.303 345.114C901.318 351.13 901.334 354.996 901.334 354.996C901.334 354.996 902.116 355.791 902.501 356.056C904.229 357.253 909.42 360.052 920.507 361.408C923.369 361.761 926.58 361.972 930.168 361.972C932.354 361.972 934.678 361.891 937.144 361.719ZM937.14 361.719C938.066 361.653 938.938 361.58 939.767 361.496C948.146 360.67 951.868 359.058 953.52 357.799C953.754 357.626 953.942 357.457 954.1 357.296C952.706 358.701 948.695 360.901 937.14 361.719Z" fill="#95ACDC"/>
<path fill-rule="evenodd" clip-rule="evenodd" d="M940.55 278.164C934.649 281.228 933.251 288.369 936.973 293.974C940.696 299.584 960.218 313.705 967.398 315.313C974.581 316.918 1004.19 308.487 1004.19 308.487C1004.19 308.487 1004.84 304.118 1004.42 301.158C1004 298.198 1002.16 297.403 1002.16 297.403C1002.16 297.403 981.619 300.54 975.284 298.943C968.95 297.342 962.104 289.233 956.173 284.196C949.666 278.667 946.251 275.208 940.55 278.164Z" fill="#9FB8ED"/>
<path fill-rule="evenodd" clip-rule="evenodd" d="M918.794 266.166C918.436 266.734 918.59 267.471 918.878 268.074C919.435 269.233 922.312 271.979 926.603 272.708C930.921 273.441 933.364 272.727 934.578 272.209C935.208 271.94 935.677 271.41 935.888 270.754L937.763 265.018C937.763 265.018 942.3 266.062 943.955 264.565C945.615 263.068 953.893 242.024 948.296 235.482C942.695 228.94 928.182 228.072 924.241 237.609C920.296 247.146 923.868 253.254 923.868 255.619C923.868 257.558 920.23 263.862 918.794 266.166Z" fill="white"/>
<path fill-rule="evenodd" clip-rule="evenodd" d="M930.756 259.655C934.874 259.198 936.245 250.083 939.226 248.448C940.997 247.473 942.104 249.127 941.685 250.732C941.343 252.049 942.792 251.527 943.265 251.765C943.741 251.999 946.325 246.045 946.325 246.045C946.325 246.045 951.901 240.138 954.85 235.348C959.713 227.448 927.314 221.377 923.261 235.348C919.189 249.377 921.248 256.211 923.534 257.317C923.534 257.317 928.451 259.912 930.756 259.655Z" fill="#0F0C17"/>
<path d="M119.246 120.452H326.773V267.781C322.641 316.723 248.645 325.48 248.645 325.48C248.645 325.48 204.079 334.07 160.735 315.424C117.391 296.735 119.246 267.781 119.246 267.781V120.452Z" fill="url(#paint31_linear_501_36508)"/>
<path d="M149.645 78.3398C190.164 55.084 255.854 55.084 296.373 78.3398C336.891 101.596 336.891 139.266 296.373 162.522C255.854 185.777 190.164 185.777 149.645 162.522C109.126 139.266 109.126 101.596 149.645 78.3398Z" fill="#F0FAF6"/>
<path d="M160.48 84.5606C195.011 64.7415 250.993 64.7415 285.524 84.5606C320.055 104.38 320.055 136.483 285.524 156.302C250.993 176.121 195.011 176.121 160.48 156.302C125.949 136.483 125.949 104.38 160.48 84.5606Z" fill="#F0FAF6"/>
<path d="M160.48 84.5606C195.011 64.7415 250.993 64.7415 285.524 84.5606C320.055 104.38 320.055 136.483 285.524 156.302C250.993 176.121 195.011 176.121 160.48 156.302C125.949 136.483 125.949 104.38 160.48 84.5606Z" fill="url(#paint32_linear_501_36508)" fill-opacity="0.2"/>
<path d="M321.117 246.955L262.384 280.645V266.147L321.117 232.457V246.955Z" fill="#EFEFEF"/>
<path d="M321.117 289.653L311.42 295.185V248.338L321.117 242.807V289.653Z" fill="#EFEFEF"/>
<path d="M272.084 317.771L262.429 323.344L262.386 276.497L272.084 270.924V317.771Z" fill="#EFEFEF"/>
<path d="M347.178 262.249L288.444 295.939V281.44L347.178 247.751V262.249Z" fill="#D0C5C5"/>
<path d="M347.178 262.249L288.444 295.939V281.44L347.178 247.751V262.249Z" fill="#D4F2E4"/>
<path d="M347.178 304.947L337.48 310.478V263.632L347.178 258.059V304.947Z" fill="#D0C5C5"/>
<path d="M347.178 304.947L337.48 310.478V263.632L347.178 258.059V304.947Z" fill="#D4F2E4"/>
<path d="M298.145 333.064L288.447 338.637V291.79L298.145 286.217V333.064Z" fill="#D0C5C5"/>
<path d="M298.145 333.064L288.447 338.637V291.79L298.145 286.217V333.064Z" fill="#D4F2E4"/>
<path d="M288.439 338.638L262.425 323.343L262.383 266.146L288.439 281.441V338.638Z" fill="#AA989A"/>
<path d="M288.439 338.638L262.425 323.343L262.383 266.146L288.439 281.441V338.638Z" fill="#D4F2E4"/>
<path d="M337.48 310.479L311.424 295.184V282.739L337.48 267.822V310.479Z" fill="#D4F2E4"/>
<path d="M337.48 310.479L311.424 295.184V282.739L337.48 267.822V310.479Z" fill="url(#paint33_linear_501_36508)" fill-opacity="0.15"/>
<path d="M347.178 247.751L288.444 281.441L262.388 266.147L321.121 232.457L347.178 247.751Z" fill="#EFEFEF"/>
<path d="M347.178 247.751L288.444 281.441L262.388 266.147L321.121 232.457L347.178 247.751Z" fill="#F0FAF6"/>
<path d="M311.422 295.185L298.14 302.392V290.366L311.422 282.74V295.185Z" fill="#D4F2E4"/>
<path d="M311.422 295.185L298.14 302.392V290.366L311.422 282.74V295.185Z" fill="url(#paint34_linear_501_36508)" fill-opacity="0.3"/>
<path d="M337.48 310.479L298.142 333.064V302.392L311.424 295.185L337.48 310.479Z" fill="#D4F2E4"/>
<path d="M337.48 310.479L298.142 333.064V302.392L311.424 295.185L337.48 310.479Z" fill="url(#paint35_linear_501_36508)" fill-opacity="0.15"/>
<g opacity="0.25">
<ellipse rx="10.8537" ry="18.1992" transform="matrix(-1 0 0 1 516.023 486.763)" fill="#D9D9D9"/>
<ellipse rx="10.8537" ry="18.1992" transform="matrix(-1 0 0 1 516.023 486.763)" fill="url(#paint36_radial_501_36508)"/>
</g>
<path d="M581.104 712L372.366 588.391C365.846 584.53 365.822 575.102 372.322 571.208L513.291 486.763" stroke="url(#paint37_linear_501_36508)" stroke-width="8" stroke-linecap="round"/>
<path d="M275.408 588.369L275.352 579.366C275.352 583.157 272.869 586.92 267.876 589.819L267.932 598.822C272.925 595.923 275.436 592.16 275.408 588.369Z" fill="#BBDCD8"/>
<path d="M143.939 627.81L143.995 636.813C143.995 640.548 146.45 644.255 151.359 647.098L151.304 638.095C146.394 635.28 143.967 631.545 143.939 627.81Z" fill="#BBDCD8"/>
<path d="M151.304 638.123L151.359 647.126L149.881 646.262L149.825 637.259L151.304 638.123Z" fill="#BBDCD8"/>
<path d="M185.668 637.259L185.696 646.262L267.934 598.822L267.906 589.818L185.668 637.259Z" fill="#BBDCD8"/>
<path d="M149.824 637.259L149.88 646.262C159.755 651.976 175.796 651.976 185.727 646.262L185.671 637.259C175.74 642.973 159.7 642.973 149.824 637.259Z" fill="#BBDCD8"/>
<path d="M151.413 617.385C141.482 623.099 141.426 632.409 151.302 638.123L149.823 637.259C159.698 642.973 175.739 642.973 185.67 637.259L267.907 589.819C277.838 584.104 277.894 574.795 268.019 569.081L269.497 569.945C259.622 564.231 243.582 564.231 233.651 569.945L151.413 617.385Z" fill="#F0FAF6"/>
<path d="M228.629 538.701L228.573 529.698C228.573 533.489 226.09 537.252 221.097 540.151L221.153 549.154C226.146 546.255 228.657 542.464 228.629 538.701Z" fill="#BBDCD8"/>
<path d="M97.1519 578.143L97.2077 587.146C97.2077 590.881 99.6626 594.588 104.572 597.431L104.517 588.428C99.6068 585.585 97.1519 581.878 97.1519 578.143Z" fill="#BBDCD8"/>
<path d="M104.517 588.428L104.545 597.431L103.066 596.567L103.039 587.592L104.517 588.428Z" fill="#BBDCD8"/>
<path d="M138.861 587.592L138.917 596.567L221.154 549.127L221.098 540.151L138.861 587.592Z" fill="#BBDCD8"/>
<path d="M103.041 587.592L103.097 596.595C112.972 602.309 129.012 602.309 138.943 596.595L138.888 587.592C128.957 593.306 112.888 593.306 103.041 587.592Z" fill="#BBDCD8"/>
<path d="M104.632 567.69C94.701 573.404 94.6452 582.714 104.52 588.428L103.042 587.564C112.917 593.278 128.957 593.278 138.888 587.564L221.126 540.123C231.057 534.409 231.113 525.099 221.238 519.385L222.716 520.249C212.841 514.535 196.801 514.535 186.87 520.249L104.632 567.69Z" fill="#F0FAF6"/>
<path d="M176.115 488.371L176.059 479.368C176.059 483.159 173.576 486.922 168.583 489.821L168.639 498.824C173.632 495.925 176.143 492.134 176.115 488.371Z" fill="#BBDCD8"/>
<path d="M44.6421 527.812L44.698 536.816C44.698 540.551 47.1528 544.258 52.0625 547.101L52.0067 538.098C47.097 535.255 44.6421 531.548 44.6421 527.812Z" fill="#BBDCD8"/>
<path d="M52.0034 538.098L52.0312 547.101L50.5528 546.237L50.5249 537.262L52.0034 538.098Z" fill="#BBDCD8"/>
<path d="M86.3413 537.262L86.397 546.237L168.635 498.797L168.579 489.821L86.3413 537.262Z" fill="#BBDCD8"/>
<path d="M50.5235 537.262L50.5793 546.265C60.4545 551.979 76.4948 551.979 86.4258 546.265L86.37 537.262C76.439 542.976 60.3708 542.976 50.5235 537.262Z" fill="#BBDCD8"/>
<path d="M52.1183 517.36C42.1873 523.074 42.1316 532.384 52.0068 538.098L50.5283 537.234C60.4035 542.948 76.4438 542.948 86.3748 537.234L168.612 489.793C178.543 484.079 178.599 474.769 168.724 469.055L170.203 469.919C160.327 464.205 144.287 464.205 134.356 469.919L52.1183 517.36Z" fill="#F0FAF6"/>
<defs>
<radialGradient id="paint0_radial_501_36508" cx="0" cy="0" r="1" gradientUnits="userSpaceOnUse" gradientTransform="translate(408.219 302.578) rotate(-90) scale(30.8376 61.261)">
<stop stop-color="#245795"/>
<stop offset="1" stop-color="#8AD3A8"/>
</radialGradient>
<linearGradient id="paint1_linear_501_36508" x1="454.731" y1="302.468" x2="454.731" y2="527.705" gradientUnits="userSpaceOnUse">
<stop stop-color="#C7EBDB"/>
<stop offset="1" stop-color="#C7EBDB" stop-opacity="0"/>
</linearGradient>
<linearGradient id="paint2_linear_501_36508" x1="239.13" y1="22.7021" x2="239.13" y2="353.149" gradientUnits="userSpaceOnUse">
<stop stop-color="#245795"/>
<stop offset="1" stop-color="#8AD3A8"/>
</linearGradient>
<linearGradient id="paint3_linear_501_36508" x1="808.125" y1="62.1856" x2="808.126" y2="525.131" gradientUnits="userSpaceOnUse">
<stop stop-color="#245795"/>
<stop offset="1" stop-color="#8AD3A8"/>
</linearGradient>
<linearGradient id="paint4_linear_501_36508" x1="925.761" y1="374.126" x2="312.926" y2="-246.197" gradientUnits="userSpaceOnUse">
<stop stop-color="#245795"/>
<stop offset="1" stop-color="#8AD3A8"/>
</linearGradient>
<linearGradient id="paint5_linear_501_36508" x1="962.537" y1="172.703" x2="727.344" y2="-59.3424" gradientUnits="userSpaceOnUse">
<stop stop-color="#245795"/>
<stop offset="1" stop-color="#8AD3A8"/>
</linearGradient>
<linearGradient id="paint6_linear_501_36508" x1="680.467" y1="278.408" x2="554.399" y2="146.83" gradientUnits="userSpaceOnUse">
<stop stop-color="#245795"/>
<stop offset="1" stop-color="#8AD3A8"/>
</linearGradient>
<linearGradient id="paint7_linear_501_36508" x1="667.25" y1="123.899" x2="572.069" y2="24.456" gradientUnits="userSpaceOnUse">
<stop stop-color="#245795"/>
<stop offset="1" stop-color="#8AD3A8"/>
</linearGradient>
<linearGradient id="paint8_linear_501_36508" x1="659.384" y1="116.676" x2="582.494" y2="36.3425" gradientUnits="userSpaceOnUse">
<stop stop-color="#245795"/>
<stop offset="1" stop-color="#8AD3A8"/>
</linearGradient>
<linearGradient id="paint9_linear_501_36508" x1="750.106" y1="243.268" x2="624.038" y2="111.691" gradientUnits="userSpaceOnUse">
<stop stop-color="#245795"/>
<stop offset="1" stop-color="#8AD3A8"/>
</linearGradient>
<linearGradient id="paint10_linear_501_36508" x1="736.889" y1="88.7596" x2="641.708" y2="-10.6838" gradientUnits="userSpaceOnUse">
<stop stop-color="#245795"/>
<stop offset="1" stop-color="#8AD3A8"/>
</linearGradient>
<linearGradient id="paint11_linear_501_36508" x1="729.023" y1="81.5354" x2="652.133" y2="1.20239" gradientUnits="userSpaceOnUse">
<stop stop-color="#245795"/>
<stop offset="1" stop-color="#8AD3A8"/>
</linearGradient>
<linearGradient id="paint12_linear_501_36508" x1="817.772" y1="205.321" x2="691.704" y2="73.7437" gradientUnits="userSpaceOnUse">
<stop stop-color="#245795"/>
<stop offset="1" stop-color="#8AD3A8"/>
</linearGradient>
<linearGradient id="paint13_linear_501_36508" x1="804.555" y1="50.8123" x2="709.374" y2="-48.6309" gradientUnits="userSpaceOnUse">
<stop stop-color="#245795"/>
<stop offset="1" stop-color="#8AD3A8"/>
</linearGradient>
<linearGradient id="paint14_linear_501_36508" x1="796.689" y1="43.5881" x2="719.799" y2="-36.7449" gradientUnits="userSpaceOnUse">
<stop stop-color="#245795"/>
<stop offset="1" stop-color="#8AD3A8"/>
</linearGradient>
<linearGradient id="paint15_linear_501_36508" x1="550.895" y1="146.438" x2="550.895" y2="316.417" gradientUnits="userSpaceOnUse">
<stop stop-color="#245795"/>
<stop offset="1" stop-color="#8AD3A8"/>
</linearGradient>
<linearGradient id="paint16_linear_501_36508" x1="581.878" y1="434.055" x2="439.706" y2="399.453" gradientUnits="userSpaceOnUse">
<stop stop-color="#245795"/>
<stop offset="1" stop-color="#8AD3A8"/>
</linearGradient>
<linearGradient id="paint17_linear_501_36508" x1="888.679" y1="54.3213" x2="888.679" y2="224.3" gradientUnits="userSpaceOnUse">
<stop stop-color="#245795"/>
<stop offset="1" stop-color="#8AD3A8"/>
</linearGradient>
<linearGradient id="paint18_linear_501_36508" x1="857.696" y1="341.938" x2="999.868" y2="307.336" gradientUnits="userSpaceOnUse">
<stop stop-color="#245795"/>
<stop offset="1" stop-color="#8AD3A8"/>
</linearGradient>
<linearGradient id="paint19_linear_501_36508" x1="840.617" y1="82.4502" x2="840.617" y2="252.429" gradientUnits="userSpaceOnUse">
<stop stop-color="#245795"/>
<stop offset="1" stop-color="#8AD3A8"/>
</linearGradient>
<linearGradient id="paint20_linear_501_36508" x1="809.634" y1="370.067" x2="951.805" y2="335.465" gradientUnits="userSpaceOnUse">
<stop stop-color="#245795"/>
<stop offset="1" stop-color="#8AD3A8"/>
</linearGradient>
<linearGradient id="paint21_linear_501_36508" x1="792.558" y1="110.254" x2="792.558" y2="280.233" gradientUnits="userSpaceOnUse">
<stop stop-color="#245795"/>
<stop offset="1" stop-color="#8AD3A8"/>
</linearGradient>
<linearGradient id="paint22_linear_501_36508" x1="761.575" y1="397.87" x2="903.747" y2="363.268" gradientUnits="userSpaceOnUse">
<stop stop-color="#245795"/>
<stop offset="1" stop-color="#8AD3A8"/>
</linearGradient>
<linearGradient id="paint23_linear_501_36508" x1="744.509" y1="137.399" x2="744.509" y2="307.378" gradientUnits="userSpaceOnUse">
<stop stop-color="#245795"/>
<stop offset="1" stop-color="#8AD3A8"/>
</linearGradient>
<linearGradient id="paint24_linear_501_36508" x1="713.526" y1="425.016" x2="855.698" y2="390.414" gradientUnits="userSpaceOnUse">
<stop stop-color="#245795"/>
<stop offset="1" stop-color="#8AD3A8"/>
</linearGradient>
<linearGradient id="paint25_linear_501_36508" x1="696.456" y1="163.107" x2="696.457" y2="333.086" gradientUnits="userSpaceOnUse">
<stop stop-color="#245795"/>
<stop offset="1" stop-color="#8AD3A8"/>
</linearGradient>
<linearGradient id="paint26_linear_501_36508" x1="665.473" y1="450.724" x2="807.645" y2="416.122" gradientUnits="userSpaceOnUse">
<stop stop-color="#245795"/>
<stop offset="1" stop-color="#8AD3A8"/>
</linearGradient>
<linearGradient id="paint27_linear_501_36508" x1="598.43" y1="173.233" x2="598.43" y2="343.212" gradientUnits="userSpaceOnUse">
<stop stop-color="#245795"/>
<stop offset="1" stop-color="#8AD3A8"/>
</linearGradient>
<linearGradient id="paint28_linear_501_36508" x1="629.413" y1="460.85" x2="487.241" y2="426.248" gradientUnits="userSpaceOnUse">
<stop stop-color="#245795"/>
<stop offset="1" stop-color="#8AD3A8"/>
</linearGradient>
<linearGradient id="paint29_linear_501_36508" x1="960.55" y1="321.452" x2="1095.82" y2="321.452" gradientUnits="userSpaceOnUse">
<stop stop-color="#F0FAF6"/>
<stop offset="1" stop-color="#91C7B8"/>
</linearGradient>
<linearGradient id="paint30_linear_501_36508" x1="930.868" y1="305.363" x2="1157.3" y2="68.866" gradientUnits="userSpaceOnUse">
<stop stop-color="#245795"/>
<stop offset="1" stop-color="#8AD3A8"/>
</linearGradient>
<linearGradient id="paint31_linear_501_36508" x1="326.771" y1="224.008" x2="119.241" y2="224.008" gradientUnits="userSpaceOnUse">
<stop stop-color="#F0FAF6"/>
<stop offset="1" stop-color="#91C7B8"/>
</linearGradient>
<linearGradient id="paint32_linear_501_36508" x1="380.76" y1="264.693" x2="15.5722" y2="-118.617" gradientUnits="userSpaceOnUse">
<stop stop-color="#245795"/>
<stop offset="1" stop-color="#8AD3A8"/>
</linearGradient>
<linearGradient id="paint33_linear_501_36508" x1="324.43" y1="219.193" x2="324.43" y2="286.607" gradientUnits="userSpaceOnUse">
<stop stop-color="#245795"/>
<stop offset="1" stop-color="#8AD3A8"/>
</linearGradient>
<linearGradient id="paint34_linear_501_36508" x1="316.629" y1="320.506" x2="267.178" y2="300.378" gradientUnits="userSpaceOnUse">
<stop stop-color="#245795"/>
<stop offset="1" stop-color="#8AD3A8"/>
</linearGradient>
<linearGradient id="paint35_linear_501_36508" x1="317.778" y1="252.001" x2="317.778" y2="311.866" gradientUnits="userSpaceOnUse">
<stop stop-color="#245795"/>
<stop offset="1" stop-color="#8AD3A8"/>
</linearGradient>
<radialGradient id="paint36_radial_501_36508" cx="0" cy="0" r="1" gradientUnits="userSpaceOnUse" gradientTransform="translate(10.8537 18.3095) rotate(-90) scale(30.8376 61.2611)">
<stop stop-color="#245795"/>
<stop offset="1" stop-color="#8AD3A8"/>
</radialGradient>
<linearGradient id="paint37_linear_501_36508" x1="469.511" y1="486.763" x2="469.511" y2="712" gradientUnits="userSpaceOnUse">
<stop stop-color="#C7EBDB"/>
<stop offset="1" stop-color="#C7EBDB" stop-opacity="0"/>
</linearGradient>
</defs>
</svg>
