<svg xmlns="http://www.w3.org/2000/svg" width="46" height="65" viewBox="0 0 46 65"><defs><clipPath id="ta02a"><path fill="#fff" d="M0 64.492V-.492h46v64.984zM23 2C11.39 2 2 11.39 2 23c0 15.75 21 39 21 39s21-23.25 21-39c0-11.61-9.39-21-21-21zm0 31c-5.52 0-10-4.48-10-10s4.48-10 10-10 10 4.48 10 10-4.48 10-10 10z"/></clipPath></defs><g><g><path fill="#fff" d="M44 23c0 15.75-21 39-21 39S2 38.75 2 23C2 11.39 11.39 2 23 2s21 9.39 21 21zm-11 0c0-5.52-4.48-10-10-10s-10 4.48-10 10 4.48 10 10 10 10-4.48 10-10z"/><path fill="none" stroke="#212121" stroke-miterlimit="20" stroke-width="4" d="M44 23c0 15.75-21 39-21 39S2 38.75 2 23C2 11.39 11.39 2 23 2s21 9.39 21 21zm-11 0c0-5.52-4.48-10-10-10s-10 4.48-10 10 4.48 10 10 10 10-4.48 10-10z" clip-path="url(&quot;#ta02a&quot;)"/></g></g></svg>