<svg xmlns="http://www.w3.org/2000/svg" width="48" height="48" viewBox="0 0 48 48"><g><g><path fill="#004970" d="M31.04 21.083a3.36 3.36 0 0 1-1.392 1.6c-1.12.584.56 2.4-1.64 4.472a10.344 10.344 0 0 0-1.6 2.032c-.96 1.448-.808 1.216-3.32 1.216-1.224 0-1.208-1.4-3.096-3.24-2.24-2.184-.512-3.888-1.6-4.472a3.36 3.36 0 0 1-1.392-1.6 4.672 4.672 0 0 1-.2-1.712c.065.047.126.097.184.152a.8.8 0 0 0 1.112 0c.147-.173.276-.36.384-.56.366-.588.61-1.243.72-1.928.216-1.176 1.968-1.848 4.8-1.848s4.6.672 4.8 1.848c.102.674.336 1.32.688 1.904a5.6 5.6 0 0 0 .368.552.8.8 0 0 0 1.12 0l.192-.152c.067.582.024 1.171-.128 1.736zm.112 10.672c1.032.184 1.696.672 3.688 1.728 1.16.6 1.96 1.28 1.96 2.52v10.4h-9.008l-2.896-9.424 1.808-2.152a4 4 0 0 0 2.896-3.624 5.208 5.208 0 0 0 1.552.552zm13.568-6.152l-2.496 3-1.032-.512a.8.8 0 0 0-1.024.272l-1.16 1.728-1.736-1.152a.8.8 0 0 0-1.152.304l-1.256 2.44-.464-.256v-5.824zm-7.12 8c-.357-.46-.8-.846-1.304-1.136l.848-1.696 1.648 1.096a.8.8 0 0 0 1.104-.224l1.208-1.808.968.48a.8.8 0 0 0 .976-.2l2.552-3.104v6.592zm4.8 3.2h-4a6.4 6.4 0 0 0-.096-1.6H42.4zm4 3.2h-8v-1.6h8zm-1.6 6.4h-1.6v-4.8h1.6zm-33.6-10.4a2.4 2.4 0 0 1 1.04-1.976c.256-.184.488-.336.616-.408 2.44-1.296 2.952-1.712 4-1.896a5.552 5.552 0 0 0 1.544-.52 4.04 4.04 0 0 0 2.928 3.688l1.776 2.12-2.896 9.392H11.2zm-9.6 4v-1.6h8v1.6zm3.2 6.4H3.2v-4.8h1.6zm.8-11.2h4.096a6.472 6.472 0 0 0-.096 1.6h-4zm-3.2-9.6h11.2v5.824c-1.2.664-2.4 1.176-3.2 2.176h-8zm18.6 7.32l.002-.004.006.004zm-1-1.72V29.66c.592.864 1.064 1.8 2.088 2.176-.733.654-.919.783-1.086 1.084A2.208 2.208 0 0 1 20 31.203zm4 4.36l-1.6-1.856L24 32.26l1.6 1.384zm0 3.96l2.12 6.88h-4.24zm4-9.864v1.544a2.136 2.136 0 0 1-1.016 1.712c-.2-.344-.376-.456-1.072-1.072 1.024-.384 1.504-1.328 2.088-2.184zM17.848 8.003a3 3 0 0 0 3.144.8c2.632-.664 6.44-.848 8.528.8 2.088 1.648 1.968 5.192.96 7.632 0-.128-.064-.272-.096-.416-.208-1.184-1.32-3.2-6.4-3.2s-6.176 1.984-6.4 3.2c0 .152-.064.288-.096.424-1.24-3.12-.608-5.832.36-9.24zm17.352-.8a5.6 5.6 0 1 1 11.2 0 5.6 5.6 0 0 1-11.2 0zm-2.456 13.6H39.2a2.4 2.4 0 0 0 2.4-2.4v-4.048a7.2 7.2 0 1 0-1.6 0v4.048a.8.8 0 0 1-.8.8h-6.4c-.072-.8-.304-1.232-.72-1.44a.256.256 0 0 0-.072 0c1.248-3.056 1.312-7.272-1.48-9.456-3.328-2.576-8.848-1.36-9.92-1.104-1.072.256-1.336 0-1.6-.304a1.6 1.6 0 0 0-2.736.696c-.976 3.696-1.688 6.616-.256 10.128a.256.256 0 0 0-.072 0c-.416.208-.648.656-.72 1.44H6.4a.8.8 0 0 1-.8-.8v-4.76a.8.8 0 1 0-1.6 0v4.8a2.4 2.4 0 0 0 2.4 2.4h8.856a4.72 4.72 0 0 0 1.904 3.032 5.4 5.4 0 0 0 1.24 3.952v1.472a4.8 4.8 0 0 1-.736.488c-1.032.584-1.176.304-2.464.848v-4.992a1.6 1.6 0 0 0-1.6-1.6H2.4a1.6 1.6 0 0 0-1.6 1.6v8a1.6 1.6 0 0 0 1.6 1.6H4v1.6H1.6a1.6 1.6 0 0 0-1.6 1.6v1.6a1.6 1.6 0 0 0 1.6 1.6v4.8a1.6 1.6 0 0 0 1.6 1.6h1.6a1.6 1.6 0 0 0 1.6-1.6v-4.8h3.2v4.8a1.6 1.6 0 0 0 1.6 1.6h25.6a1.6 1.6 0 0 0 1.6-1.6v-4.8h3.2v4.8a1.6 1.6 0 0 0 1.6 1.6h1.6a1.6 1.6 0 0 0 1.6-1.6v-4.8a1.6 1.6 0 0 0 1.6-1.6v-1.6a1.6 1.6 0 0 0-1.6-1.6H44v-1.6h1.6a1.6 1.6 0 0 0 1.6-1.6v-8a1.6 1.6 0 0 0-1.6-1.6H34.4a1.6 1.6 0 0 0-1.6 1.6v5a6.264 6.264 0 0 0-1.36-.424 4.696 4.696 0 0 1-1.84-.92v-1.472a5.4 5.4 0 0 0 1.24-3.952 4.752 4.752 0 0 0 1.904-3.032z"/></g></g></svg>