<svg xmlns="http://www.w3.org/2000/svg" width="48" height="48" viewBox="0 0 48 48"><g><g><path fill="#004970" d="M46.452 25.548a.774.774 0 0 1-.775.775H38.39l-3.003 3.003c-.184.184-.547.035-.547-.227v-2.776h-9.29a.774.774 0 0 1-.775-.775v-5.795c.179-.389.353-.78.517-1.18.024.001.046.008.07.008a4.064 4.064 0 0 0 4.058-4.06v-.5a9.38 9.38 0 0 0-.56-3.182h4.364l.01.128c.067.796.745 1.42 1.544 1.42h1.672c.799 0 1.476-.624 1.542-1.42l.011-.128h7.675c.428 0 .775.347.775.774zM20.129 42.624a3.832 3.832 0 0 1-3.828 3.828c-.854 0-1.694-.29-2.364-.819l-9.588-7.532-.956 1.217 9.078 7.134H1.548V33.957c0-1.648 1.341-2.99 2.99-2.99.835 0 1.639.354 2.204.97l7.193 7.848v1.247h1.549v-8.516h3.87c.428 0 .775.347.775.774zm-7.628-7.767l1.434 2.51v.126l-4.45-4.855a4.648 4.648 0 0 1 3.016 2.219zm1.434-2.819v2.208l-.09-.157a6.165 6.165 0 0 0-1.969-2.08l.833-2.083c.261.776.678 1.497 1.226 2.112zm5.42-1.07h-4.303a4.542 4.542 0 0 1-1.117-2.964v-2.456a.774.774 0 0 1 1.549 0v.775h1.548v-.775c0-.974-.605-1.808-1.458-2.152a2.319 2.319 0 0 1 2.232-1.719A2.325 2.325 0 0 1 20.13 24v4.946c0 .696-.165 1.394-.476 2.017l-.016.033c-.094-.011-.186-.028-.282-.028zM10.879 21.8l-.789-3.941a1.346 1.346 0 0 1 1.34-1.602c.773 0 1.468.43 1.813 1.12l.481.961 2.76-2.761a2.986 2.986 0 0 1 2.097-.868c.78 0 1.543.316 2.095.868l1.814 1.813c.368.368.795.652 1.258.852a28.526 28.526 0 0 1-2.323 4.42c-.547-1.474-1.956-2.534-3.619-2.534a3.87 3.87 0 0 0-3.805 3.22 2.318 2.318 0 0 0-1.614 2.2v2.23l-1.38-.69-.693 1.386 1.09.545-.921 2.3a6.141 6.141 0 0 0-2.015-.352h-.514l-.07-.078a4.525 4.525 0 0 0-1.402-1.027zm-3.864 3.415a10.048 10.048 0 0 0-3.608-5.242.765.765 0 0 1-.31-.618l-.003-1.757a9.923 9.923 0 0 1 2.088-6.08l.066-.086a9.69 9.69 0 0 1 7.6-3.717h.05l3.439.019a3.886 3.886 0 0 0-.079.781 3.1 3.1 0 0 0 3.097 3.097 3.1 3.1 0 0 0 3.097-3.097h-1.549a1.55 1.55 0 0 1-1.548 1.549 1.55 1.55 0 0 1-1.549-1.549 2.325 2.325 0 0 1 2.323-2.322c2.234 0 4.349.972 5.803 2.669l.055.064a7.827 7.827 0 0 1 1.884 5.094v.5a2.513 2.513 0 0 1-2.51 2.511 2.49 2.49 0 0 1-1.775-.735l-1.815-1.814a4.543 4.543 0 0 0-3.19-1.322c-1.188 0-2.35.482-3.19 1.322l-1.354 1.353a3.583 3.583 0 0 0-2.634-1.126 2.89 2.89 0 0 0-2.831 3.453l.678 3.39-2.154 3.949zM34.777 1.548h1.672c.393 0 .712.32.712.713l-.712 8.578h-1.672l-.712-8.578c0-.393.32-.713.712-.713zm10.9 7.742h-7.546l.57-6.835A2.263 2.263 0 0 0 36.45 0h-1.672a2.263 2.263 0 0 0-2.252 2.449l.569 6.841h-4.957a9.372 9.372 0 0 0-.975-1.372l-.055-.064a9.18 9.18 0 0 0-6.978-3.209 3.855 3.855 0 0 0-3.075 1.546l-4.148-.022h-.056c-3.424 0-6.72 1.61-8.823 4.316l-.066.085a11.471 11.471 0 0 0-2.414 7.032l.001 1.755c0 .726.347 1.42.93 1.856a8.482 8.482 0 0 1 3.047 4.428l.514 1.8-1.09 2a4.538 4.538 0 0 0-.411-.022A4.542 4.542 0 0 0 0 33.957V48h16.301a5.382 5.382 0 0 0 5.376-5.376V33.29c0-.624-.25-1.19-.653-1.608l.013-.027c.419-.837.64-1.774.64-2.71v-3.928a30.045 30.045 0 0 0 1.549-2.34v2.871a2.325 2.325 0 0 0 2.322 2.323h7.742v1.228a1.871 1.871 0 0 0 3.19 1.321l2.55-2.549h6.647A2.325 2.325 0 0 0 48 25.548V11.613a2.325 2.325 0 0 0-2.323-2.323z"/></g></g></svg>