<svg xmlns="http://www.w3.org/2000/svg" width="31" height="45" viewBox="0 0 31 45"><g><g><g><g><g><path fill="#004970" d="M28.757 13.35H1.847V2.055h26.91zm0 29.944H1.847V15.098h26.91zM29.631.307H.973a.874.874 0 0 0-.873.874v42.987c0 .482.39.874.873.874h28.658a.874.874 0 0 0 .874-.874V1.18a.874.874 0 0 0-.874-.874z"/></g></g></g><g><g><g><path fill="#004970" d="M23.806 7.703l1.816-2.516a.874.874 0 1 0-1.417-1.022L22.729 6.21l-1.476-2.045a.874.874 0 1 0-1.417 1.022l1.815 2.516-1.815 2.515a.874.874 0 0 0 1.417 1.023l1.476-2.045 1.476 2.045a.872.872 0 1 0 1.417-1.023z"/></g></g></g><g><g><g><path fill="#004970" d="M13.867 8.576l.736-1.701.737 1.701zm4.16 1.806L15.404 4.33a.874.874 0 0 0-1.604 0l-2.62 6.053a.874.874 0 0 0 1.603.694l.326-.752h2.987l.325.752a.874.874 0 1 0 1.604-.694z"/></g></g></g><g><g><g><path fill="#004970" d="M10.934 3.802H5.69a.874.874 0 0 0 0 1.748H7.44v5.18a.874.874 0 0 0 1.747 0V5.55h1.748a.874.874 0 0 0 0-1.748z"/></g></g></g><g><g><g><path fill="#004970" d="M26.136 16.845H6.216a.874.874 0 0 0 0 1.748h19.92a.874.874 0 0 0 0-1.748z"/></g></g></g><g><g><g><path fill="#004970" d="M4.468 20.34a.874.874 0 1 0 0 1.748.874.874 0 0 0 0-1.748z"/></g></g></g><g><g><g><path fill="#004970" d="M11.458 20.34a.874.874 0 1 0 0 1.748.874.874 0 0 0 0-1.748z"/></g></g></g><g><g><g><path fill="#004970" d="M25.437 20.34a.874.874 0 1 0 0 1.748.874.874 0 0 0 0-1.748z"/></g></g></g><g><g><g><path fill="#004970" d="M7.963 20.34a.874.874 0 1 0 0 1.748.874.874 0 0 0 0-1.748z"/></g></g></g><g><g><g><path fill="#004970" d="M18.448 20.34a.874.874 0 1 0 0 1.748.874.874 0 0 0 0-1.748z"/></g></g></g><g><g><g><path fill="#004970" d="M14.953 20.34a.873.873 0 1 0 0 1.747.873.873 0 0 0 0-1.747z"/></g></g></g><g><g><g><path fill="#004970" d="M21.942 20.34a.874.874 0 1 0 .001 1.748.874.874 0 0 0 0-1.748z"/></g></g></g><g><g><g><path fill="#004970" d="M26.136 23.835H4.468a.874.874 0 0 0 0 1.747h21.668a.874.874 0 0 0 0-1.747z"/></g></g></g><g><g><g><path fill="#004970" d="M13.555 27.33a.875.875 0 1 0 .001 1.749.875.875 0 0 0-.001-1.75z"/></g></g></g><g><g><g><path fill="#004970" d="M10.06 27.33H4.468a.875.875 0 0 0 0 1.747h5.592a.875.875 0 0 0 0-1.747z"/></g></g></g><g><g><g><path fill="#004970" d="M13.555 30.824a.875.875 0 1 0 .001 1.75.875.875 0 0 0-.001-1.75z"/></g></g></g><g><g><g><path fill="#004970" d="M10.06 30.824H4.468a.875.875 0 0 0 0 1.747h5.592a.875.875 0 0 0 0-1.747z"/></g></g></g><g><g><g><path fill="#004970" d="M13.555 37.178H4.468a.874.874 0 0 0 0 1.748h9.087a.874.874 0 0 0 0-1.748z"/></g></g></g><g><g><g><path fill="#004970" d="M26.136 27.33h-5.592a.875.875 0 0 0 0 1.747h5.592a.875.875 0 0 0 0-1.747z"/></g></g></g><g><g><g><path fill="#004970" d="M26.136 30.824h-5.592a.875.875 0 0 0 0 1.747h5.592a.875.875 0 0 0 0-1.747z"/></g></g></g><g><g><g><path fill="#004970" d="M23.515 39.8a1.75 1.75 0 0 1-1.747-1.748 1.75 1.75 0 0 1 1.747-1.748 1.75 1.75 0 0 1 1.748 1.748 1.75 1.75 0 0 1-1.748 1.747zm0-5.243a3.499 3.499 0 0 0-3.495 3.495 3.499 3.499 0 0 0 3.495 3.495 3.499 3.499 0 0 0 3.495-3.495 3.499 3.499 0 0 0-3.495-3.495z"/></g></g></g></g></g></svg>