<svg width="72" height="66" viewBox="0 0 72 66" fill="none" xmlns="http://www.w3.org/2000/svg">
<g clip-path="url(#clip0_970_366)">
<path d="M30.4213 6.04489H27.3229V65.5279H22.3662V27.1118H12.4528V38.2641H7.49609V11.0016H12.4528V22.1551H22.3662V6.04489H19.2678L24.8452 0.46875L30.4213 6.04489Z" fill="#FFDF5A"/>
<path d="M17.9922 53.1365C18.9501 52.0671 19.5777 50.7431 19.7993 49.3246C20.0209 47.9061 19.827 46.4538 19.2409 45.1431C18.6548 43.8325 17.7018 42.7196 16.4968 41.9389C15.2919 41.1583 13.8867 40.7433 12.451 40.7441H0.0585938V65.5289H5.0153V55.6155H12.451C13.1081 55.6155 13.7383 55.8766 14.203 56.3412C14.6677 56.8059 14.9287 57.4361 14.9287 58.0932V65.5289H19.8854V58.0932C19.8886 56.2638 19.2141 54.498 17.9922 53.1365ZM12.451 50.6588H5.0153V45.7008H12.451C13.1084 45.7008 13.739 45.962 14.2039 46.4269C14.6688 46.8918 14.93 47.5224 14.93 48.1798C14.93 48.8373 14.6688 49.4678 14.2039 49.9327C13.739 50.3976 13.1084 50.6588 12.451 50.6588Z" fill="#8B00FF"/>
<path d="M57.0628 48.1798C57.0628 48.8371 57.3238 49.4674 57.7885 49.9323C58.2531 50.3971 58.8833 50.6585 59.5406 50.6588H71.9329V55.6155H59.5406C58.8929 55.63 58.2766 55.8975 57.8237 56.3607C57.3708 56.8239 57.1172 57.446 57.1172 58.0939C57.1172 58.7417 57.3708 59.3638 57.8237 59.827C58.2766 60.2902 58.8929 60.5577 59.5406 60.5722H71.9329V65.5289H59.5406C58.1054 65.5285 56.701 65.1127 55.497 64.3316C54.293 63.5505 53.3409 62.4375 52.7556 61.1271C52.1703 59.8167 51.9769 58.3649 52.1987 56.9469C52.4205 55.529 53.048 54.2056 54.0055 53.1365C53.0477 52.0671 52.42 50.7431 52.1985 49.3246C51.9769 47.9061 52.1708 46.4538 52.7569 45.1431C53.3429 43.8325 54.296 42.7196 55.5009 41.9389C56.7059 41.1583 58.1111 40.7433 59.5468 40.7441H71.9392V45.7008H59.5468C59.2208 45.7002 58.8979 45.7638 58.5966 45.8881C58.2953 46.0124 58.0214 46.1949 57.7907 46.4252C57.5599 46.6554 57.3769 46.9289 57.252 47.23C57.1271 47.5311 57.0628 47.8539 57.0628 48.1798Z" fill="#8B00FF"/>
<path d="M34.7587 48.1798C34.7587 48.8371 35.0197 49.4674 35.4844 49.9323C35.949 50.3971 36.5792 50.6585 37.2365 50.6588H42.1932C43.1776 50.6461 44.1549 50.8289 45.0681 51.1969C45.9813 51.5648 46.8124 52.1104 47.5131 52.8021C48.2138 53.4938 48.7701 54.3177 49.1499 55.2261C49.5296 56.1345 49.7251 57.1093 49.7251 58.0939C49.7251 59.0784 49.5296 60.0532 49.1499 60.9616C48.7701 61.87 48.2138 62.6939 47.5131 63.3856C46.8124 64.0773 45.9813 64.6229 45.0681 64.9908C44.1549 65.3588 43.1776 65.5417 42.1932 65.5289H29.802V60.5722H42.1932C42.5233 60.5796 42.8516 60.521 43.1588 60.3998C43.4659 60.2785 43.7458 60.0972 43.9819 59.8663C44.218 59.6354 44.4056 59.3597 44.5337 59.0553C44.6618 58.751 44.7277 58.4241 44.7277 58.0939C44.7277 57.7636 44.6618 57.4367 44.5337 57.1324C44.4056 56.828 44.218 56.5523 43.9819 56.3214C43.7458 56.0905 43.4659 55.9092 43.1588 55.788C42.8516 55.6667 42.5233 55.6081 42.1932 55.6155H37.2365C36.26 55.6155 35.2931 55.4232 34.391 55.0495C33.4888 54.6758 32.6691 54.1281 31.9786 53.4376C31.2882 52.7472 30.7405 51.9275 30.3668 51.0253C29.9931 50.1232 29.8008 49.1563 29.8008 48.1798C29.8008 47.2034 29.9931 46.2364 30.3668 45.3343C30.7405 44.4322 31.2882 43.6125 31.9786 42.922C32.6691 42.2315 33.4888 41.6838 34.391 41.3101C35.2931 40.9365 36.26 40.7441 37.2365 40.7441H49.6289V45.7008H37.2365C36.5792 45.7012 35.949 45.9625 35.4844 46.4274C35.0197 46.8922 34.7587 47.5226 34.7587 48.1798Z" fill="#8B00FF"/>
<path d="M70.0411 23.3963C70.9984 22.3266 71.6255 21.0027 71.8468 19.5844C72.0681 18.1661 71.874 16.714 71.2881 15.4036C70.7021 14.0932 69.7493 12.9804 68.5447 12.1997C67.3401 11.4189 65.9353 11.0036 64.4998 11.0039H52.1074V35.7887H64.4998C65.9355 35.7895 67.3407 35.3745 68.5457 34.5939C69.7506 33.8132 70.7037 32.7004 71.2897 31.3897C71.8758 30.0791 72.0697 28.6267 71.8481 27.2082C71.6266 25.7897 70.9989 24.4658 70.0411 23.3963ZM64.4998 30.832H57.0641V25.8753H64.4998C65.1475 25.8898 65.7637 26.1573 66.2167 26.6205C66.6696 27.0837 66.9232 27.7058 66.9232 28.3536C66.9232 29.0015 66.6696 29.6236 66.2167 30.0868C65.7637 30.55 65.1475 30.8175 64.4998 30.832ZM64.4998 20.9186H57.0641V15.9619H64.4998C65.1475 15.9764 65.7637 16.2439 66.2167 16.7071C66.6696 17.1703 66.9232 17.7924 66.9232 18.4402C66.9232 19.088 66.6696 19.7101 66.2167 20.1733C65.7637 20.6365 65.1475 20.904 64.4998 20.9186Z" fill="#8B00FF"/>
<path d="M49.6276 11.0039V25.8753C49.6276 28.5045 48.5832 31.026 46.724 32.8851C44.8649 34.7442 42.3434 35.7887 39.7142 35.7887C37.085 35.7887 34.5635 34.7442 32.7043 32.8851C30.8452 31.026 29.8008 28.5045 29.8008 25.8753V11.0039H34.7575V25.8753C34.7575 27.1899 35.2797 28.4506 36.2093 29.3802C37.1388 30.3098 38.3996 30.832 39.7142 30.832C41.0288 30.832 42.2896 30.3098 43.2191 29.3802C44.1487 28.4506 44.6709 27.1899 44.6709 25.8753V11.0039H49.6276Z" fill="#8B00FF"/>
</g>
<defs>
<clipPath id="clip0_970_366">
<rect width="72" height="66" fill="white"/>
</clipPath>
</defs>
</svg>
