<svg width="72" height="66" viewBox="0 0 72 66" fill="none" xmlns="http://www.w3.org/2000/svg">
<g clip-path="url(#clip0_970_2190)">
<path d="M30.4213 6.04684H27.3229V65.5298H22.3662V27.1138H12.4528V38.2661H7.49609V11.0035H12.4528V22.1571H22.3662V6.04684H19.2678L24.8452 0.470703L30.4213 6.04684Z" fill="#FFDF5A"/>
<path d="M17.9942 53.1365C18.952 52.0671 19.5797 50.7431 19.8013 49.3246C20.0229 47.9061 19.8289 46.4538 19.2429 45.1431C18.6568 43.8325 17.7037 42.7196 16.4988 41.9389C15.2939 41.1583 13.8886 40.7433 12.4529 40.7441H0.0605469V65.5289H5.01726V55.6155H12.4529C13.1101 55.6155 13.7403 55.8766 14.205 56.3412C14.6696 56.8059 14.9307 57.4361 14.9307 58.0932V65.5289H19.8874V58.0932C19.8905 56.2638 19.2161 54.498 17.9942 53.1365ZM12.4529 50.6588H5.01726V45.7008H12.4529C13.1104 45.7008 13.7409 45.962 14.2058 46.4269C14.6707 46.8918 14.9319 47.5224 14.9319 48.1798C14.9319 48.8373 14.6707 49.4678 14.2058 49.9327C13.7409 50.3976 13.1104 50.6588 12.4529 50.6588Z" fill="white"/>
<path d="M57.0648 48.1798C57.0648 48.8371 57.3258 49.4674 57.7904 49.9323C58.255 50.3971 58.8853 50.6585 59.5425 50.6588H71.9349V55.6155H59.5425C58.8948 55.63 58.2786 55.8975 57.8256 56.3607C57.3727 56.8239 57.1191 57.446 57.1191 58.0939C57.1191 58.7417 57.3727 59.3638 57.8256 59.827C58.2786 60.2902 58.8948 60.5577 59.5425 60.5722H71.9349V65.5289H59.5425C58.1073 65.5285 56.703 65.1127 55.499 64.3316C54.295 63.5505 53.3428 62.4375 52.7576 61.1271C52.1723 59.8167 51.9788 58.3649 52.2006 56.9469C52.4224 55.529 53.05 54.2056 54.0075 53.1365C53.0496 52.0671 52.422 50.7431 52.2004 49.3246C51.9788 47.9061 52.1728 46.4538 52.7588 45.1431C53.3449 43.8325 54.298 42.7196 55.5029 41.9389C56.7078 41.1583 58.113 40.7433 59.5487 40.7441H71.9411V45.7008H59.5487C59.2228 45.7002 58.8999 45.7638 58.5986 45.8881C58.2972 46.0124 58.0233 46.1949 57.7926 46.4252C57.5619 46.6554 57.3789 46.9289 57.254 47.23C57.1291 47.5311 57.0648 47.8539 57.0648 48.1798Z" fill="white"/>
<path d="M34.7587 48.1798C34.7587 48.8371 35.0197 49.4674 35.4844 49.9323C35.949 50.3971 36.5792 50.6585 37.2365 50.6588H42.1932C43.1776 50.6461 44.1549 50.8289 45.0681 51.1969C45.9813 51.5648 46.8124 52.1104 47.5131 52.8021C48.2138 53.4938 48.7701 54.3177 49.1499 55.2261C49.5296 56.1345 49.7251 57.1093 49.7251 58.0939C49.7251 59.0784 49.5296 60.0532 49.1499 60.9616C48.7701 61.87 48.2138 62.6939 47.5131 63.3856C46.8124 64.0773 45.9813 64.6229 45.0681 64.9908C44.1549 65.3588 43.1776 65.5417 42.1932 65.5289H29.802V60.5722H42.1932C42.5233 60.5796 42.8516 60.521 43.1588 60.3998C43.4659 60.2785 43.7458 60.0972 43.9819 59.8663C44.218 59.6354 44.4056 59.3597 44.5337 59.0553C44.6618 58.751 44.7277 58.4241 44.7277 58.0939C44.7277 57.7636 44.6618 57.4367 44.5337 57.1324C44.4056 56.828 44.218 56.5523 43.9819 56.3214C43.7458 56.0905 43.4659 55.9092 43.1588 55.788C42.8516 55.6667 42.5233 55.6081 42.1932 55.6155H37.2365C36.26 55.6155 35.2931 55.4232 34.391 55.0495C33.4888 54.6758 32.6691 54.1281 31.9786 53.4376C31.2882 52.7472 30.7405 51.9275 30.3668 51.0253C29.9931 50.1232 29.8008 49.1563 29.8008 48.1798C29.8008 47.2034 29.9931 46.2364 30.3668 45.3343C30.7405 44.4322 31.2882 43.6125 31.9786 42.922C32.6691 42.2315 33.4888 41.6838 34.391 41.3101C35.2931 40.9365 36.26 40.7441 37.2365 40.7441H49.6289V45.7008H37.2365C36.5792 45.7012 35.949 45.9625 35.4844 46.4274C35.0197 46.8922 34.7587 47.5226 34.7587 48.1798Z" fill="white"/>
<path d="M70.0411 23.3963C70.9984 22.3266 71.6255 21.0027 71.8468 19.5844C72.0681 18.1661 71.874 16.714 71.2881 15.4036C70.7021 14.0932 69.7493 12.9804 68.5447 12.1997C67.3401 11.4189 65.9353 11.0036 64.4998 11.0039H52.1074V35.7887H64.4998C65.9355 35.7895 67.3407 35.3745 68.5457 34.5939C69.7506 33.8132 70.7037 32.7004 71.2897 31.3897C71.8758 30.0791 72.0697 28.6267 71.8481 27.2082C71.6266 25.7897 70.9989 24.4658 70.0411 23.3963ZM64.4998 30.832H57.0641V25.8753H64.4998C65.1475 25.8898 65.7637 26.1573 66.2167 26.6205C66.6696 27.0837 66.9232 27.7058 66.9232 28.3536C66.9232 29.0015 66.6696 29.6236 66.2167 30.0868C65.7637 30.55 65.1475 30.8175 64.4998 30.832ZM64.4998 20.9186H57.0641V15.9619H64.4998C65.1475 15.9764 65.7637 16.2439 66.2167 16.7071C66.6696 17.1703 66.9232 17.7924 66.9232 18.4402C66.9232 19.088 66.6696 19.7101 66.2167 20.1733C65.7637 20.6365 65.1475 20.904 64.4998 20.9186Z" fill="white"/>
<path d="M49.6276 11.0039V25.8753C49.6276 28.5045 48.5832 31.026 46.724 32.8851C44.8649 34.7442 42.3434 35.7887 39.7142 35.7887C37.085 35.7887 34.5635 34.7442 32.7043 32.8851C30.8452 31.026 29.8008 28.5045 29.8008 25.8753V11.0039H34.7575V25.8753C34.7575 27.1899 35.2797 28.4506 36.2093 29.3802C37.1388 30.3098 38.3996 30.832 39.7142 30.832C41.0288 30.832 42.2896 30.3098 43.2191 29.3802C44.1487 28.4506 44.6709 27.1899 44.6709 25.8753V11.0039H49.6276Z" fill="white"/>
</g>
<defs>
<clipPath id="clip0_970_2190">
<rect width="72" height="66" fill="white"/>
</clipPath>
</defs>
</svg>
