<svg width="102" height="60" viewBox="0 0 102 60" fill="none" xmlns="http://www.w3.org/2000/svg">
<path d="M99.5703 20.7401L70.7521 1.95529L72.6298 16.4357M99.5703 20.7401L73.551 32.8794L73.677 23.2616M99.5703 20.7401L73.677 23.2616M99.5703 20.7401L72.6298 16.4357M73.677 23.2616L65.0542 17.641L72.6298 16.4357M66.1335 34.8343L62.3062 35.2495M67.3352 27.5344L60.6572 28.3547M66.0593 13.1229L60.9596 14.002M68.5032 2.42931L63.5514 3.08152M2.45498 59.6088C0.535798 54.8174 0.963662 43.7384 17.9199 37.5931M17.9199 37.5931C17.9975 37.5649 18.0755 37.5369 18.1539 37.509C38.6585 30.198 24.7253 54.9319 17.9199 37.5931ZM17.9199 37.5931C17.5952 36.7659 17.2868 35.843 16.9991 34.8163C13.4996 22.3278 37.1471 14.3232 52.6647 18.2949" stroke="#FFDF5A" stroke-width="1.69502"/>
</svg>
