<svg width="95" height="100" viewBox="0 0 95 100" fill="none" xmlns="http://www.w3.org/2000/svg">
<path fill-rule="evenodd" clip-rule="evenodd" d="M89.4785 62.1005V62.0999C92.5199 60.3392 94.0501 58.0267 94.0454 55.7217L94.0614 61.499C94.0694 63.8063 92.5473 66.1216 89.4953 67.8842V67.8847L39.1803 96.936V96.9362C33.1153 100.437 23.3086 100.437 17.2836 96.9362L17.2676 91.1516C17.2677 91.1516 17.2677 91.1517 17.2678 91.1517L17.2678 91.1436C20.3604 92.9463 24.4465 93.8116 28.5086 93.7635V93.7757C32.3685 93.7316 36.21 92.8569 39.1641 91.1517V91.1515L89.4785 62.1005ZM0.0414146 83.2276L0.0253906 77.4429C0.0334026 79.7263 1.53164 82.0018 4.52011 83.7403L4.52011 83.7406L17.2666 91.1513L17.2826 96.936L4.54357 89.5249L4.52126 84.157L4.53613 89.525C1.54767 87.7864 0.0494265 85.511 0.0414146 83.2276Z" fill="#C9EDDB"/>
<path fill-rule="evenodd" clip-rule="evenodd" d="M89.4785 62.1005V62.0999C92.5199 60.3392 94.0501 58.0267 94.0454 55.7217L94.0614 61.499C94.0694 63.8063 92.5473 66.1216 89.4953 67.8842V67.8847L39.1803 96.936V96.9362C33.1153 100.437 23.3086 100.437 17.2836 96.9362L17.2676 91.1516C17.2677 91.1516 17.2677 91.1517 17.2678 91.1517L17.2678 91.1436C20.3604 92.9463 24.4465 93.8116 28.5086 93.7635V93.7757C32.3685 93.7316 36.21 92.8569 39.1641 91.1517V91.1515L89.4785 62.1005ZM0.0414146 83.2276L0.0253906 77.4429C0.0334026 79.7263 1.53164 82.0018 4.52011 83.7403L4.52011 83.7406L17.2666 91.1513L17.2826 96.936L4.54357 89.5249L4.52126 84.157L4.53613 89.525C1.54767 87.7864 0.0494265 85.511 0.0414146 83.2276Z" fill="url(#paint0_linear_501_36054)"/>
<path d="M4.5914 71.0572C-1.47367 74.5585 -1.50571 80.239 4.51929 83.7402L17.2663 91.1433C23.2913 94.6445 33.098 94.6445 39.1631 91.1433L89.4783 62.0918C95.5433 58.5906 95.5754 52.9101 89.5504 49.4089L76.8033 42.0058C70.7783 38.5046 60.9717 38.5046 54.9066 42.0058L4.5914 71.0572Z" fill="#F0FAF6"/>
<path d="M82.5879 23.6452L82.7081 60.2574C85.2719 58.7752 86.5458 56.8363 86.5458 54.8974L86.4256 18.2852C86.4256 20.2241 85.1517 22.163 82.5879 23.6452Z" fill="#76B1CF"/>
<path d="M82.5879 23.6452L82.7081 60.2574C85.2719 58.7752 86.5458 56.8363 86.5458 54.8974L86.4256 18.2852C86.4256 20.2241 85.1517 22.163 82.5879 23.6452Z" fill="url(#paint1_linear_501_36054)"/>
<path d="M40.373 48.0179L40.5012 84.6274L82.7163 60.255L82.5881 23.6455L40.373 48.0179Z" fill="#76B1CF"/>
<path d="M40.373 48.0179L40.5012 84.6274L82.7163 60.255L82.5881 23.6455L40.373 48.0179Z" fill="url(#paint2_linear_501_36054)"/>
<path fill-rule="evenodd" clip-rule="evenodd" d="M7.6611 73.1351L7.54102 36.5488C7.55352 38.454 8.81137 40.3491 11.3146 41.8L11.3146 41.8001L22.002 48.0171V48.017C24.537 49.4891 27.8632 50.2242 31.1914 50.2223V50.2203C32.6433 50.2203 34.0953 50.0797 35.4818 49.7993C37.2667 49.4374 38.9437 48.8433 40.3734 48.017L40.3734 48.0214C40.376 48.0199 40.3786 48.0185 40.3811 48.017L40.5013 84.6139C40.4987 84.6154 40.4962 84.6169 40.4936 84.6184L40.4936 84.6217C35.4088 87.5605 27.1867 87.5621 22.1304 84.6266L22.1304 84.6377L11.4344 78.4204L11.4344 78.4148C8.92689 76.9567 7.66911 75.0499 7.6611 73.1351Z" fill="#76B1CF"/>
<path fill-rule="evenodd" clip-rule="evenodd" d="M7.6611 73.1351L7.54102 36.5488C7.55352 38.454 8.81137 40.3491 11.3146 41.8L11.3146 41.8001L22.002 48.0171V48.017C24.537 49.4891 27.8632 50.2242 31.1914 50.2223V50.2203C32.6433 50.2203 34.0953 50.0797 35.4818 49.7993C37.2667 49.4374 38.9437 48.8433 40.3734 48.017L40.3734 48.0214C40.376 48.0199 40.3786 48.0185 40.3811 48.017L40.5013 84.6139C40.4987 84.6154 40.4962 84.6169 40.4936 84.6184L40.4936 84.6217C35.4088 87.5605 27.1867 87.5621 22.1304 84.6266L22.1304 84.6377L11.4344 78.4204L11.4344 78.4148C8.92689 76.9567 7.66911 75.0499 7.6611 73.1351Z" fill="url(#paint3_linear_501_36054)"/>
<path d="M11.37 31.1607C6.28236 34.1011 6.25031 38.8602 11.3139 41.8006L22.0018 48.0179C27.0574 50.9583 35.2857 50.9583 40.3733 48.0179L82.5884 23.6455C87.676 20.7051 87.7081 15.946 82.6445 13.0056L71.9565 6.7883C66.901 3.84791 58.6727 3.84791 53.5851 6.7883L11.37 31.1607Z" fill="#F2F4F5"/>
<path fill-rule="evenodd" clip-rule="evenodd" d="M86.9766 19.6674V19.6668C90.1769 17.8139 91.7872 15.3806 91.7822 12.9551L91.799 19.0345C91.8074 21.4624 90.2057 23.8988 86.9939 25.7536V25.7542L34.0486 56.3242V56.3245C27.8576 59.8984 17.9618 60.0055 11.5873 56.6457L11.5876 56.7302L4.74643 52.6831L4.74657 52.7348C1.60186 50.9053 0.0252926 48.511 0.0168617 46.1082L0 40.0211C0.00836161 42.4042 1.55921 44.7789 4.65254 46.6026L4.65234 46.5553L10.9904 50.3002L10.9902 50.2374V50.2291C14.2445 52.1261 18.5443 53.0366 22.8187 52.986V52.9988C26.8804 52.9524 30.9228 52.032 34.0312 50.2377V50.2374L86.9766 19.6674Z" fill="#C9EDDB"/>
<path fill-rule="evenodd" clip-rule="evenodd" d="M86.9766 19.6674V19.6668C90.1769 17.8139 91.7872 15.3806 91.7822 12.9551L91.799 19.0345C91.8074 21.4624 90.2057 23.8988 86.9939 25.7536V25.7542L34.0486 56.3242V56.3245C27.8576 59.8984 17.9618 60.0055 11.5873 56.6457L11.5876 56.7302L4.74643 52.6831L4.74657 52.7348C1.60186 50.9053 0.0252926 48.511 0.0168617 46.1082L0 40.0211C0.00836161 42.4042 1.55921 44.7789 4.65254 46.6026L4.65234 46.5553L10.9904 50.3002L10.9902 50.2374V50.2291C14.2445 52.1261 18.5443 53.0366 22.8187 52.986V52.9988C26.8804 52.9524 30.9228 52.032 34.0312 50.2377V50.2374L86.9766 19.6674Z" fill="url(#paint4_linear_501_36054)"/>
<path fill-rule="evenodd" clip-rule="evenodd" d="M86.9766 19.6674V19.6668C90.1769 17.8139 91.7872 15.3806 91.7822 12.9551L91.799 19.0345C91.8074 21.4624 90.2057 23.8988 86.9939 25.7536V25.7542L34.0486 56.3242V56.3245C27.8576 59.8984 17.9618 60.0055 11.5873 56.6457L11.5876 56.7302L4.74643 52.6831L4.74657 52.7348C1.60186 50.9053 0.0252926 48.511 0.0168617 46.1082L0 40.0211C0.00836161 42.4042 1.55921 44.7789 4.65254 46.6026L4.65234 46.5553L10.9904 50.3002L10.9902 50.2374V50.2291C14.2445 52.1261 18.5443 53.0366 22.8187 52.986V52.9988C26.8804 52.9524 30.9228 52.032 34.0312 50.2377V50.2374L86.9766 19.6674Z" fill="url(#paint5_linear_501_36054)"/>
<path d="M4.80884 33.3335C-1.57332 37.0178 -1.60704 42.9952 4.73296 46.6795L10.99 50.2289C17.33 53.9132 27.6493 53.9132 34.0315 50.2289L86.9772 19.6587C93.3594 15.9744 93.3931 9.9969 87.0531 6.31261L80.7961 2.76321C74.4561 -0.921071 64.1368 -0.921071 57.7546 2.76321L4.80884 33.3335Z" fill="#F0FAF6"/>
<path d="M4.80884 33.3335C-1.57332 37.0178 -1.60704 42.9952 4.73296 46.6795L10.99 50.2289C17.33 53.9132 27.6493 53.9132 34.0315 50.2289L86.9772 19.6587C93.3594 15.9744 93.3931 9.9969 87.0531 6.31261L80.7961 2.76321C74.4561 -0.921071 64.1368 -0.921071 57.7546 2.76321L4.80884 33.3335Z" fill="#F0FAF6"/>
<defs>
<linearGradient id="paint0_linear_501_36054" x1="37.7833" y1="99.0891" x2="33.7645" y2="40.4204" gradientUnits="userSpaceOnUse">
<stop stop-color="#D4F2E4"/>
<stop offset="1" stop-color="#71D5A4"/>
</linearGradient>
<linearGradient id="paint1_linear_501_36054" x1="84.6715" y1="13.598" x2="120.602" y2="80.8827" gradientUnits="userSpaceOnUse">
<stop stop-color="#245795"/>
<stop offset="1" stop-color="#8AD3A8"/>
</linearGradient>
<linearGradient id="paint2_linear_501_36054" x1="61.5446" y1="20.2559" x2="70.4367" y2="103.241" gradientUnits="userSpaceOnUse">
<stop stop-color="#245795"/>
<stop offset="1" stop-color="#8AD3A8"/>
</linearGradient>
<linearGradient id="paint3_linear_501_36054" x1="25.5306" y1="33.9793" x2="33.7203" y2="93.6965" gradientUnits="userSpaceOnUse">
<stop stop-color="#245795"/>
<stop offset="0.971765" stop-color="#8AD3A8"/>
</linearGradient>
<linearGradient id="paint4_linear_501_36054" x1="15.739" y1="58.979" x2="14.4479" y2="47.2281" gradientUnits="userSpaceOnUse">
<stop stop-color="#D4F2E4"/>
<stop offset="1" stop-color="#71D5A4"/>
</linearGradient>
<linearGradient id="paint5_linear_501_36054" x1="36.8597" y1="58.59" x2="32.3047" y2="-3.09956" gradientUnits="userSpaceOnUse">
<stop stop-color="#D4F2E4"/>
<stop offset="1" stop-color="#71D5A4"/>
</linearGradient>
</defs>
</svg>
