<svg width="109" height="129" viewBox="0 0 109 129" fill="none" xmlns="http://www.w3.org/2000/svg">
<g opacity="0.2" filter="url(#filter0_f_501_35999)">
<path d="M98.8372 99.2559L89.3502 101.558C88.4454 101.779 89.0012 102.169 90.2808 102.191C90.3067 102.191 90.3325 102.194 90.3519 102.194L89.3437 102.44C88.439 102.661 88.9948 103.051 90.2743 103.073C90.5005 103.076 90.7267 110.415 90.9529 110.423L98.8372 108.515L98.8307 108.512H98.8695V99.2559H98.8372Z" fill="url(#paint0_linear_501_35999)"/>
<path d="M98.8372 99.2559L89.3502 101.558C88.4454 101.779 89.0012 102.169 90.2808 102.191C90.3067 102.191 90.3325 102.194 90.3519 102.194L89.3437 102.44C88.439 102.661 88.9948 103.051 90.2743 103.073C90.5005 103.076 90.7267 110.415 90.9529 110.423L98.8372 108.515L98.8307 108.512H98.8695V99.2559H98.8372Z" fill="url(#paint1_linear_501_35999)"/>
<path d="M98.8372 99.2559L89.3502 101.558C88.4454 101.779 89.0012 102.169 90.2808 102.191C90.3067 102.191 90.3325 102.194 90.3519 102.194L89.3437 102.44C88.439 102.661 88.9948 103.051 90.2743 103.073C90.5005 103.076 90.7267 110.415 90.9529 110.423L98.8372 108.515L98.8307 108.512H98.8695V99.2559H98.8372Z" fill="url(#paint2_linear_501_35999)"/>
<path d="M98.8372 99.2559L89.3502 101.558C88.4454 101.779 89.0012 102.169 90.2808 102.191C90.3067 102.191 90.3325 102.194 90.3519 102.194L89.3437 102.44C88.439 102.661 88.9948 103.051 90.2743 103.073C90.5005 103.076 90.7267 110.415 90.9529 110.423L98.8372 108.515L98.8307 108.512H98.8695V99.2559H98.8372Z" fill="url(#paint3_linear_501_35999)"/>
<path d="M98.8372 99.2559L89.3502 101.558C88.4454 101.779 89.0012 102.169 90.2808 102.191C90.3067 102.191 90.3325 102.194 90.3519 102.194L89.3437 102.44C88.439 102.661 88.9948 103.051 90.2743 103.073C90.5005 103.076 90.7267 110.415 90.9529 110.423L98.8372 108.515L98.8307 108.512H98.8695V99.2559H98.8372Z" fill="url(#paint4_linear_501_35999)"/>
<path d="M66.2393 109.531C67.144 109.779 67.745 110.091 68.0552 110.424C68.3525 110.11 68.3719 102.445 68.1263 102.126C68.6304 101.473 67.9971 100.752 66.2393 100.272C62.8917 99.3571 57.1465 99.3243 53.6632 100.174C52.1962 100.531 51.369 100.987 51.188 101.457C51.0911 101.7 49.902 101.809 49.1911 101.637L39.8398 99.4062V108.663L49.1911 110.896C49.902 111.071 51.0976 110.962 51.188 110.716C51.369 110.246 52.1897 109.79 53.6632 109.432C57.1465 108.583 62.8917 108.619 66.2393 109.531Z" fill="url(#paint5_linear_501_35999)"/>
<path d="M66.2393 109.531C67.144 109.779 67.745 110.091 68.0552 110.424C68.3525 110.11 68.3719 102.445 68.1263 102.126C68.6304 101.473 67.9971 100.752 66.2393 100.272C62.8917 99.3571 57.1465 99.3243 53.6632 100.174C52.1962 100.531 51.369 100.987 51.188 101.457C51.0911 101.7 49.902 101.809 49.1911 101.637L39.8398 99.4062V108.663L49.1911 110.896C49.902 111.071 51.0976 110.962 51.188 110.716C51.369 110.246 52.1897 109.79 53.6632 109.432C57.1465 108.583 62.8917 108.619 66.2393 109.531Z" fill="url(#paint6_linear_501_35999)"/>
<path d="M66.2393 109.531C67.144 109.779 67.745 110.091 68.0552 110.424C68.3525 110.11 68.3719 102.445 68.1263 102.126C68.6304 101.473 67.9971 100.752 66.2393 100.272C62.8917 99.3571 57.1465 99.3243 53.6632 100.174C52.1962 100.531 51.369 100.987 51.188 101.457C51.0911 101.7 49.902 101.809 49.1911 101.637L39.8398 99.4062V108.663L49.1911 110.896C49.902 111.071 51.0976 110.962 51.188 110.716C51.369 110.246 52.1897 109.79 53.6632 109.432C57.1465 108.583 62.8917 108.619 66.2393 109.531Z" fill="url(#paint7_linear_501_35999)"/>
<path d="M69.3359 106.436L59.9394 104.26C59.8102 104.227 59.7326 104.192 59.6744 104.156V113.213C59.5193 113.311 59.5775 113.429 59.9394 113.516L69.3359 115.692V106.436Z" fill="url(#paint8_linear_501_35999)"/>
<path d="M69.3359 106.436L59.9394 104.26C59.8102 104.227 59.7326 104.192 59.6744 104.156V113.213C59.5193 113.311 59.5775 113.429 59.9394 113.516L69.3359 115.692V106.436Z" fill="url(#paint9_linear_501_35999)"/>
<path d="M69.3359 106.436L59.9394 104.26C59.8102 104.227 59.7326 104.192 59.6744 104.156V113.213C59.5193 113.311 59.5775 113.429 59.9394 113.516L69.3359 115.692V106.436Z" fill="url(#paint10_linear_501_35999)"/>
<path d="M69.3359 106.436L59.9394 104.26C59.8102 104.227 59.7326 104.192 59.6744 104.156V113.213C59.5193 113.311 59.5775 113.429 59.9394 113.516L69.3359 115.692V106.436Z" fill="url(#paint11_linear_501_35999)"/>
<g opacity="0.5">
<path d="M69.334 115.692L78.9308 113.352C79.8356 113.131 81.4189 113.271 81.5094 113.585C81.6451 114.081 82.5305 114.567 84.159 114.936C87.2933 115.646 92.2889 115.651 95.4103 114.947C97.097 114.567 97.963 114.057 98.0405 113.544H98.0793V104.287L98.0405 104.29C97.963 104.803 97.0905 105.311 95.4103 105.691C92.2889 106.395 87.2998 106.393 84.159 105.68C82.5305 105.311 81.6451 104.825 81.5094 104.328C81.4254 104.014 79.8421 103.875 78.9308 104.096L69.334 106.436V115.692Z" fill="url(#paint12_linear_501_35999)"/>
<path d="M69.334 115.692L78.9308 113.352C79.8356 113.131 81.4189 113.271 81.5094 113.585C81.6451 114.081 82.5305 114.567 84.159 114.936C87.2933 115.646 92.2889 115.651 95.4103 114.947C97.097 114.567 97.963 114.057 98.0405 113.544H98.0793V104.287L98.0405 104.29C97.963 104.803 97.0905 105.311 95.4103 105.691C92.2889 106.395 87.2998 106.393 84.159 105.68C82.5305 105.311 81.6451 104.825 81.5094 104.328C81.4254 104.014 79.8421 103.875 78.9308 104.096L69.334 106.436V115.692Z" fill="url(#paint13_linear_501_35999)"/>
<path d="M69.334 115.692L78.9308 113.352C79.8356 113.131 81.4189 113.271 81.5094 113.585C81.6451 114.081 82.5305 114.567 84.159 114.936C87.2933 115.646 92.2889 115.651 95.4103 114.947C97.097 114.567 97.963 114.057 98.0405 113.544H98.0793V104.287L98.0405 104.29C97.963 104.803 97.0905 105.311 95.4103 105.691C92.2889 106.395 87.2998 106.393 84.159 105.68C82.5305 105.311 81.6451 104.825 81.5094 104.328C81.4254 104.014 79.8421 103.875 78.9308 104.096L69.334 106.436V115.692Z" fill="url(#paint14_linear_501_35999)"/>
<path d="M69.334 115.692L78.9308 113.352C79.8356 113.131 81.4189 113.271 81.5094 113.585C81.6451 114.081 82.5305 114.567 84.159 114.936C87.2933 115.646 92.2889 115.651 95.4103 114.947C97.097 114.567 97.963 114.057 98.0405 113.544H98.0793V104.287L98.0405 104.29C97.963 104.803 97.0905 105.311 95.4103 105.691C92.2889 106.395 87.2998 106.393 84.159 105.68C82.5305 105.311 81.6451 104.825 81.5094 104.328C81.4254 104.014 79.8421 103.875 78.9308 104.096L69.334 106.436V115.692Z" fill="url(#paint15_linear_501_35999)"/>
<path d="M69.334 115.692L78.9308 113.352C79.8356 113.131 81.4189 113.271 81.5094 113.585C81.6451 114.081 82.5305 114.567 84.159 114.936C87.2933 115.646 92.2889 115.651 95.4103 114.947C97.097 114.567 97.963 114.057 98.0405 113.544H98.0793V104.287L98.0405 104.29C97.963 104.803 97.0905 105.311 95.4103 105.691C92.2889 106.395 87.2998 106.393 84.159 105.68C82.5305 105.311 81.6451 104.825 81.5094 104.328C81.4254 104.014 79.8421 103.875 78.9308 104.096L69.334 106.436V115.692Z" fill="url(#paint16_linear_501_35999)"/>
<path d="M69.334 115.692L78.9308 113.352C79.8356 113.131 81.4189 113.271 81.5094 113.585C81.6451 114.081 82.5305 114.567 84.159 114.936C87.2933 115.646 92.2889 115.651 95.4103 114.947C97.097 114.567 97.963 114.057 98.0405 113.544H98.0793V104.287L98.0405 104.29C97.963 104.803 97.0905 105.311 95.4103 105.691C92.2889 106.395 87.2998 106.393 84.159 105.68C82.5305 105.311 81.6451 104.825 81.5094 104.328C81.4254 104.014 79.8421 103.875 78.9308 104.096L69.334 106.436V115.692Z" fill="url(#paint17_linear_501_35999)"/>
</g>
<path d="M53.6632 100.176C57.1465 99.3266 62.8852 99.3594 66.2393 100.274C68.9471 101.011 69.0052 102.327 66.3039 103.073C64.7917 103.491 62.7689 103.723 60.688 103.772C59.6798 103.796 59.221 104.086 59.9383 104.261L69.3348 106.437L78.9317 104.097C79.8364 103.876 81.4197 104.015 81.5102 104.329C81.6459 104.826 82.5313 105.312 84.1598 105.68C87.2942 106.39 92.2897 106.396 95.4111 105.691C98.8686 104.91 98.9267 103.592 95.605 102.781C94.1186 102.418 92.2186 102.221 90.2863 102.191C89.0067 102.169 88.4445 101.779 89.3557 101.557L98.8492 99.2556L72.4497 92.981C70.5304 92.5141 68.1651 92.5141 66.2457 92.981L39.8398 99.4058L49.1911 101.639C49.902 101.814 51.0976 101.705 51.188 101.459C51.3755 100.992 52.1962 100.533 53.6632 100.176Z" fill="url(#paint18_linear_501_35999)"/>
<path d="M53.6632 100.176C57.1465 99.3266 62.8852 99.3594 66.2393 100.274C68.9471 101.011 69.0052 102.327 66.3039 103.073C64.7917 103.491 62.7689 103.723 60.688 103.772C59.6798 103.796 59.221 104.086 59.9383 104.261L69.3348 106.437L78.9317 104.097C79.8364 103.876 81.4197 104.015 81.5102 104.329C81.6459 104.826 82.5313 105.312 84.1598 105.68C87.2942 106.39 92.2897 106.396 95.4111 105.691C98.8686 104.91 98.9267 103.592 95.605 102.781C94.1186 102.418 92.2186 102.221 90.2863 102.191C89.0067 102.169 88.4445 101.779 89.3557 101.557L98.8492 99.2556L72.4497 92.981C70.5304 92.5141 68.1651 92.5141 66.2457 92.981L39.8398 99.4058L49.1911 101.639C49.902 101.814 51.0976 101.705 51.188 101.459C51.3755 100.992 52.1962 100.533 53.6632 100.176Z" fill="url(#paint19_linear_501_35999)"/>
<path d="M53.6632 100.176C57.1465 99.3266 62.8852 99.3594 66.2393 100.274C68.9471 101.011 69.0052 102.327 66.3039 103.073C64.7917 103.491 62.7689 103.723 60.688 103.772C59.6798 103.796 59.221 104.086 59.9383 104.261L69.3348 106.437L78.9317 104.097C79.8364 103.876 81.4197 104.015 81.5102 104.329C81.6459 104.826 82.5313 105.312 84.1598 105.68C87.2942 106.39 92.2897 106.396 95.4111 105.691C98.8686 104.91 98.9267 103.592 95.605 102.781C94.1186 102.418 92.2186 102.221 90.2863 102.191C89.0067 102.169 88.4445 101.779 89.3557 101.557L98.8492 99.2556L72.4497 92.981C70.5304 92.5141 68.1651 92.5141 66.2457 92.981L39.8398 99.4058L49.1911 101.639C49.902 101.814 51.0976 101.705 51.188 101.459C51.3755 100.992 52.1962 100.533 53.6632 100.176Z" fill="url(#paint20_linear_501_35999)"/>
<path d="M59.8327 103.976C59.1218 104.15 57.9262 104.036 57.8228 103.79C57.6095 103.282 56.6402 102.788 54.9211 102.414C51.8127 101.742 46.6685 101.731 43.5471 102.392C41.0655 102.916 40.1478 103.697 40.7747 104.418C40.4968 104.737 40.5226 112.399 40.8522 112.716C41.2658 112.317 42.1641 111.943 43.5535 111.651C46.6749 110.99 51.8127 111.001 54.9276 111.673C56.6531 112.044 57.616 112.538 57.8293 113.049C57.9327 113.295 59.1218 113.409 59.8391 113.235L69.8754 110.742V102.531V102.367V101.485L59.8327 103.976Z" fill="url(#paint21_linear_501_35999)"/>
<path d="M59.8327 103.976C59.1218 104.15 57.9262 104.036 57.8228 103.79C57.6095 103.282 56.6402 102.788 54.9211 102.414C51.8127 101.742 46.6685 101.731 43.5471 102.392C41.0655 102.916 40.1478 103.697 40.7747 104.418C40.4968 104.737 40.5226 112.399 40.8522 112.716C41.2658 112.317 42.1641 111.943 43.5535 111.651C46.6749 110.99 51.8127 111.001 54.9276 111.673C56.6531 112.044 57.616 112.538 57.8293 113.049C57.9327 113.295 59.1218 113.409 59.8391 113.235L69.8754 110.742V102.531V102.367V101.485L59.8327 103.976Z" fill="url(#paint22_linear_501_35999)"/>
<path d="M59.8327 103.976C59.1218 104.15 57.9262 104.036 57.8228 103.79C57.6095 103.282 56.6402 102.788 54.9211 102.414C51.8127 101.742 46.6685 101.731 43.5471 102.392C41.0655 102.916 40.1478 103.697 40.7747 104.418C40.4968 104.737 40.5226 112.399 40.8522 112.716C41.2658 112.317 42.1641 111.943 43.5535 111.651C46.6749 110.99 51.8127 111.001 54.9276 111.673C56.6531 112.044 57.616 112.538 57.8293 113.049C57.9327 113.295 59.1218 113.409 59.8391 113.235L69.8754 110.742V102.531V102.367V101.485L59.8327 103.976Z" fill="url(#paint23_linear_501_35999)"/>
<path d="M57.8228 103.79C57.6095 103.282 56.6402 102.788 54.9211 102.414C51.8127 101.742 46.6685 101.731 43.5471 102.392C41.0655 102.916 40.1478 103.697 40.7747 104.418C40.4968 104.738 40.5226 112.399 40.8522 112.716C41.2658 112.317 42.1641 111.943 43.5535 111.651C46.6749 110.99 51.8127 111.001 54.9276 111.673C56.6531 112.044 57.616 112.539 57.8293 113.049V103.79H57.8228Z" fill="url(#paint24_linear_501_35999)"/>
<path d="M57.8228 103.79C57.6095 103.282 56.6402 102.788 54.9211 102.414C51.8127 101.742 46.6685 101.731 43.5471 102.392C41.0655 102.916 40.1478 103.697 40.7747 104.418C40.4968 104.738 40.5226 112.399 40.8522 112.716C41.2658 112.317 42.1641 111.943 43.5535 111.651C46.6749 110.99 51.8127 111.001 54.9276 111.673C56.6531 112.044 57.616 112.539 57.8293 113.049V103.79H57.8228Z" fill="url(#paint25_linear_501_35999)"/>
<path d="M57.8228 103.79C57.6095 103.282 56.6402 102.788 54.9211 102.414C51.8127 101.742 46.6685 101.731 43.5471 102.392C41.0655 102.916 40.1478 103.697 40.7747 104.418C40.4968 104.738 40.5226 112.399 40.8522 112.716C41.2658 112.317 42.1641 111.943 43.5535 111.651C46.6749 110.99 51.8127 111.001 54.9276 111.673C56.6531 112.044 57.616 112.539 57.8293 113.049V103.79H57.8228Z" fill="url(#paint26_linear_501_35999)"/>
<path d="M40.0762 118.073L49.156 115.839C49.4339 115.771 49.5244 115.686 49.4856 115.607V106.397C49.4727 106.463 49.3757 106.529 49.156 106.583L40.0826 108.817H40.0762V108.819V118.073Z" fill="url(#paint27_linear_501_35999)"/>
<path d="M40.0762 118.073L49.156 115.839C49.4339 115.771 49.5244 115.686 49.4856 115.607V106.397C49.4727 106.463 49.3757 106.529 49.156 106.583L40.0826 108.817H40.0762V108.819V118.073Z" fill="url(#paint28_linear_501_35999)"/>
<path d="M40.0762 118.073L49.156 115.839C49.4339 115.771 49.5244 115.686 49.4856 115.607V106.397C49.4727 106.463 49.3757 106.529 49.156 106.583L40.0826 108.817H40.0762V108.819V118.073Z" fill="url(#paint29_linear_501_35999)"/>
<path d="M40.076 108.814V118.073L10.0059 110.834V101.578L40.076 108.814Z" fill="url(#paint30_linear_501_35999)"/>
<path d="M40.076 108.814V118.073L10.0059 110.834V101.578L40.076 108.814Z" fill="url(#paint31_linear_501_35999)"/>
<path d="M40.076 108.814V118.073L10.0059 110.834V101.578L40.076 108.814Z" fill="url(#paint32_linear_501_35999)"/>
<path d="M68.1514 101.682V96.3477L58.2046 97.964L57.4395 98.9339L68.1514 101.682Z" fill="#D9D9D9"/>
<path d="M68.1514 101.682V96.3477L58.2046 97.964L57.4395 98.9339L68.1514 101.682Z" fill="url(#paint33_linear_501_35999)"/>
<path d="M68.1514 101.682V96.3477L58.2046 97.964L57.4395 98.9339L68.1514 101.682Z" fill="url(#paint34_linear_501_35999)"/>
<path d="M40.0766 108.817L49.1565 106.583C49.8673 106.411 49.4085 106.119 48.4068 106.095C46.481 106.048 44.6068 105.843 43.1269 105.483C39.5919 104.62 39.7276 103.203 43.547 102.395C46.6684 101.734 51.8061 101.745 54.921 102.417C56.6465 102.788 57.6094 103.282 57.8227 103.793C57.9261 104.038 59.1152 104.153 59.8325 103.978L69.8689 101.486L59.5094 99.0199C58.5982 98.796 59.1604 98.411 60.4465 98.3919C62.4757 98.3619 64.4662 98.1489 65.9719 97.753C68.8672 96.9912 68.8542 95.7761 65.9461 95.0089C62.7213 94.1624 57.3057 94.1406 54.0098 94.9433C52.5364 95.3038 51.7415 95.7652 51.6187 96.2376C51.5411 96.5488 49.9384 96.6826 49.0272 96.4615L39.7922 94.2471H39.7858L10.0065 101.578H10L40.0766 108.817Z" fill="url(#paint35_linear_501_35999)"/>
<path d="M40.0766 108.817L49.1565 106.583C49.8673 106.411 49.4085 106.119 48.4068 106.095C46.481 106.048 44.6068 105.843 43.1269 105.483C39.5919 104.62 39.7276 103.203 43.547 102.395C46.6684 101.734 51.8061 101.745 54.921 102.417C56.6465 102.788 57.6094 103.282 57.8227 103.793C57.9261 104.038 59.1152 104.153 59.8325 103.978L69.8689 101.486L59.5094 99.0199C58.5982 98.796 59.1604 98.411 60.4465 98.3919C62.4757 98.3619 64.4662 98.1489 65.9719 97.753C68.8672 96.9912 68.8542 95.7761 65.9461 95.0089C62.7213 94.1624 57.3057 94.1406 54.0098 94.9433C52.5364 95.3038 51.7415 95.7652 51.6187 96.2376C51.5411 96.5488 49.9384 96.6826 49.0272 96.4615L39.7922 94.2471H39.7858L10.0065 101.578H10L40.0766 108.817Z" fill="url(#paint36_linear_501_35999)"/>
<path d="M40.0766 108.817L49.1565 106.583C49.8673 106.411 49.4085 106.119 48.4068 106.095C46.481 106.048 44.6068 105.843 43.1269 105.483C39.5919 104.62 39.7276 103.203 43.547 102.395C46.6684 101.734 51.8061 101.745 54.921 102.417C56.6465 102.788 57.6094 103.282 57.8227 103.793C57.9261 104.038 59.1152 104.153 59.8325 103.978L69.8689 101.486L59.5094 99.0199C58.5982 98.796 59.1604 98.411 60.4465 98.3919C62.4757 98.3619 64.4662 98.1489 65.9719 97.753C68.8672 96.9912 68.8542 95.7761 65.9461 95.0089C62.7213 94.1624 57.3057 94.1406 54.0098 94.9433C52.5364 95.3038 51.7415 95.7652 51.6187 96.2376C51.5411 96.5488 49.9384 96.6826 49.0272 96.4615L39.7922 94.2471H39.7858L10.0065 101.578H10L40.0766 108.817Z" fill="url(#paint37_linear_501_35999)"/>
</g>
<path fill-rule="evenodd" clip-rule="evenodd" d="M35.2289 77.9279C35.3191 78.1852 35.4914 78.4161 35.7453 78.5718L36.1174 78.7994L40.198 81.2965L40.2015 81.2989V81.2946L45.705 84.6668L49.7208 87.1241C50.4016 87.5409 51.1619 87.7482 51.9218 87.7462V36.4685H68.6885L68.6886 29.7615L40.514 29.4463L35.1543 29.7328L35.2289 77.9279Z" fill="#D4F2E4"/>
<path fill-rule="evenodd" clip-rule="evenodd" d="M35.2289 77.9279C35.3191 78.1852 35.4914 78.4161 35.7453 78.5718L36.1174 78.7994L40.198 81.2965L40.2015 81.2989V81.2946L45.705 84.6668L49.7208 87.1241C50.4016 87.5409 51.1619 87.7482 51.9218 87.7462V36.4685H68.6885L68.6886 29.7615L40.514 29.4463L35.1543 29.7328L35.2289 77.9279Z" fill="url(#paint38_linear_501_35999)" fill-opacity="0.3"/>
<path fill-rule="evenodd" clip-rule="evenodd" d="M51.9199 29.6022L63.3277 29.4746L68.6875 29.7612L68.613 77.9275C68.5228 78.1848 68.3505 78.4157 68.0966 78.5714L67.7245 78.799L63.6438 81.2961L63.6404 81.2985V81.2942L58.1368 84.6664L54.1211 87.1237C53.4402 87.5405 52.6799 87.7479 51.9199 87.7458V29.6022Z" fill="#D4F2E4"/>
<path fill-rule="evenodd" clip-rule="evenodd" d="M51.9199 29.6022L63.3277 29.4746L68.6875 29.7612L68.613 77.9275C68.5228 78.1848 68.3505 78.4157 68.0966 78.5714L67.7245 78.799L63.6438 81.2961L63.6404 81.2985V81.2942L58.1368 84.6664L54.1211 87.1237C53.4402 87.5405 52.6799 87.7479 51.9199 87.7458V29.6022Z" fill="url(#paint39_linear_501_35999)" fill-opacity="0.4"/>
<path d="M54.1477 20.045L68.4885 28.4117C68.8826 28.6415 69.0794 29.0439 69.0797 29.4464C69.0797 29.8491 68.8828 30.2509 68.4887 30.4806L63.2402 33.5427L58.9542 36.0432L54.158 38.8414C52.7717 39.6504 51.0637 39.6504 49.6776 38.8414L45.5698 36.445L39.9402 33.1562V33.1605L39.9367 33.1581L35.7626 30.7228L35.382 30.5008C35.1223 30.349 34.946 30.1238 34.8537 29.8729C34.803 29.735 34.7773 29.589 34.7773 29.4431C34.7769 29.0315 34.9784 28.6196 35.3815 28.3842L49.6662 20.0457C51.0527 19.2363 52.761 19.2361 54.1477 20.045Z" fill="#F0FAF6"/>
<path fill-rule="evenodd" clip-rule="evenodd" d="M65.4107 95.5331C65.5009 95.7903 65.6733 96.0213 65.9271 96.1769L66.2992 96.4045L70.3799 98.9017L70.3833 98.9041V98.8997L75.8869 102.272L79.9026 104.729C80.5834 105.146 81.3436 105.353 82.1034 105.351V54.0736H98.8702L98.8702 9.90994L70.6957 9.59473L65.3359 9.88128L65.4107 95.5331Z" fill="#D4F2E4"/>
<path fill-rule="evenodd" clip-rule="evenodd" d="M65.4107 95.5331C65.5009 95.7903 65.6733 96.0213 65.9271 96.1769L66.2992 96.4045L70.3799 98.9017L70.3833 98.9041V98.8997L75.8869 102.272L79.9026 104.729C80.5834 105.146 81.3436 105.353 82.1034 105.351V54.0736H98.8702L98.8702 9.90994L70.6957 9.59473L65.3359 9.88128L65.4107 95.5331Z" fill="url(#paint40_linear_501_35999)" fill-opacity="0.65"/>
<path fill-rule="evenodd" clip-rule="evenodd" d="M98.7947 95.5326C98.7045 95.7899 98.5322 96.0208 98.2783 96.1765L97.9062 96.4041L93.8255 98.9012L93.8221 98.9036V98.8993L88.3185 102.271L84.3028 104.729C83.6219 105.146 82.8615 105.353 82.1016 105.351V9.90967H67.8906L93.5094 9.62305L98.8691 9.90961L98.7947 95.5326Z" fill="#D4F2E4"/>
<path fill-rule="evenodd" clip-rule="evenodd" d="M98.7947 95.5326C98.7045 95.7899 98.5322 96.0208 98.2783 96.1765L97.9062 96.4041L93.8255 98.9012L93.8221 98.9036V98.8993L88.3185 102.271L84.3028 104.729C83.6219 105.146 82.8615 105.353 82.1016 105.351V9.90967H67.8906L93.5094 9.62305L98.8691 9.90961L98.7947 95.5326Z" fill="url(#paint41_linear_501_35999)"/>
<path d="M84.2726 0.606534L98.2923 8.97327C98.6776 9.20298 98.87 9.60546 98.8702 10.0079C98.8702 10.4106 98.6778 10.8124 98.2925 11.0421L93.1615 14.1042L88.9715 16.6047L84.2826 19.403C82.9274 20.2119 81.2576 20.2119 79.9025 19.403L75.8868 17.0065L70.3832 13.7177V13.722L70.3798 13.7196L66.2991 11.2843L65.9271 11.0624C65.6732 10.9106 65.5008 10.6853 65.4106 10.4344C65.361 10.2965 65.3359 10.1506 65.3359 10.0046C65.3355 9.59298 65.5324 9.1811 65.9266 8.94573L79.8914 0.607241C81.2469 -0.202178 82.9169 -0.202414 84.2726 0.606534Z" fill="#F0FAF6"/>
<path fill-rule="evenodd" clip-rule="evenodd" d="M10.0786 95.5326C10.1688 95.7899 10.3411 96.0209 10.595 96.1765L10.9671 96.4041L15.0477 98.9012L15.0512 98.9037V98.8993L20.5547 102.272L24.5705 104.729C25.2513 105.146 26.0116 105.353 26.7715 105.351V54.2009L15.3637 54.0732L10.0039 54.3598L10.0786 95.5326Z" fill="#D4F2E4"/>
<path fill-rule="evenodd" clip-rule="evenodd" d="M10.0786 95.5326C10.1688 95.7899 10.3411 96.0209 10.595 96.1765L10.9671 96.4041L15.0477 98.9012L15.0512 98.9037V98.8993L20.5547 102.272L24.5705 104.729C25.2513 105.146 26.0116 105.353 26.7715 105.351V54.2009L15.3637 54.0732L10.0039 54.3598L10.0786 95.5326Z" fill="url(#paint42_linear_501_35999)" fill-opacity="0.15"/>
<path fill-rule="evenodd" clip-rule="evenodd" d="M26.7716 54.2018L38.1793 54.0742L43.5391 54.3608L43.4644 95.5336C43.3742 95.7909 43.2018 96.0218 42.948 96.1775L42.5759 96.4051L38.4952 98.9022L38.4918 98.9046V98.9003L32.9882 102.273L28.9725 104.73C28.2917 105.147 27.5314 105.354 26.7716 105.352V54.2018Z" fill="#D4F2E4"/>
<path fill-rule="evenodd" clip-rule="evenodd" d="M26.7716 54.2018L38.1793 54.0742L43.5391 54.3608L43.4644 95.5336C43.3742 95.7909 43.2018 96.0218 42.948 96.1775L42.5759 96.4051L38.4952 98.9022L38.4918 98.9046V98.9003L32.9882 102.273L28.9725 104.73C28.2917 105.147 27.5314 105.354 26.7716 105.352V54.2018Z" fill="url(#paint43_linear_501_35999)" fill-opacity="0.4"/>
<path fill-rule="evenodd" clip-rule="evenodd" d="M26.7716 54.2018L38.1793 54.0742L43.5391 54.3608L43.4644 95.5336C43.3742 95.7909 43.2018 96.0218 42.948 96.1775L42.5759 96.4051L38.4952 98.9022L38.4918 98.9046V98.9003L32.9882 102.273L28.9725 104.73C28.2917 105.147 27.5314 105.354 26.7716 105.352V54.2018Z" fill="url(#paint44_linear_501_35999)"/>
<path d="M28.8362 44.8194L42.7787 53.1862C43.1618 53.4159 43.3532 53.8183 43.3534 54.2208C43.3534 54.6235 43.162 55.0253 42.7789 55.255L37.6761 58.3171L33.5092 60.8176L28.8462 63.6159C27.4984 64.4248 25.8378 64.4248 24.4902 63.6159L20.4966 61.2194L15.0234 57.9306V57.9349L15.02 57.9325L10.9618 55.4972L10.5918 55.2753C10.3393 55.1234 10.1679 54.8982 10.0782 54.6473C10.0288 54.5094 10.0039 54.3635 10.0039 54.2175C10.0035 53.8059 10.1993 53.394 10.5913 53.1586L24.4792 44.8201C25.8272 44.0107 27.488 44.0105 28.8362 44.8194Z" fill="#F0FAF6"/>
<defs>
<filter id="filter0_f_501_35999" x="0" y="82.6309" width="108.869" height="45.4424" filterUnits="userSpaceOnUse" color-interpolation-filters="sRGB">
<feFlood flood-opacity="0" result="BackgroundImageFix"/>
<feBlend mode="normal" in="SourceGraphic" in2="BackgroundImageFix" result="shape"/>
<feGaussianBlur stdDeviation="5" result="effect1_foregroundBlur_501_35999"/>
</filter>
<linearGradient id="paint0_linear_501_35999" x1="92.2862" y1="104.836" x2="112.765" y2="104.836" gradientUnits="userSpaceOnUse">
<stop offset="0.0354" stop-color="#138BBD"/>
<stop offset="0.2257" stop-color="#169AC7"/>
<stop offset="0.5946" stop-color="#1FC3DF"/>
<stop offset="1" stop-color="#2AF6FF"/>
</linearGradient>
<linearGradient id="paint1_linear_501_35999" x1="93.884" y1="99.2559" x2="93.884" y2="110.423" gradientUnits="userSpaceOnUse">
<stop stop-color="#D4F2E4"/>
<stop offset="1" stop-color="#A8DFF9"/>
</linearGradient>
<linearGradient id="paint2_linear_501_35999" x1="93.884" y1="99.2559" x2="93.884" y2="110.423" gradientUnits="userSpaceOnUse">
<stop stop-color="#D4F2E4"/>
<stop offset="1" stop-color="#71D5A4"/>
</linearGradient>
<linearGradient id="paint3_linear_501_35999" x1="92.9021" y1="110.303" x2="90.4964" y2="95.6839" gradientUnits="userSpaceOnUse">
<stop stop-color="#D4F2E4"/>
<stop offset="1" stop-color="#71D5A4"/>
</linearGradient>
<linearGradient id="paint4_linear_501_35999" x1="93.0386" y1="111.244" x2="92.6802" y2="99.2173" gradientUnits="userSpaceOnUse">
<stop stop-color="#E0F1E9"/>
<stop offset="1" stop-color="#EFFDF7"/>
</linearGradient>
<linearGradient id="paint5_linear_501_35999" x1="18.7573" y1="91.9973" x2="39.5668" y2="134.354" gradientUnits="userSpaceOnUse">
<stop offset="0.0354" stop-color="#138BBD"/>
<stop offset="0.2257" stop-color="#169AC7"/>
<stop offset="0.5946" stop-color="#1FC3DF"/>
<stop offset="1" stop-color="#2AF6FF"/>
</linearGradient>
<linearGradient id="paint6_linear_501_35999" x1="54.0678" y1="99.4062" x2="54.0678" y2="110.982" gradientUnits="userSpaceOnUse">
<stop stop-color="#D4F2E4"/>
<stop offset="1" stop-color="#A8DFF9"/>
</linearGradient>
<linearGradient id="paint7_linear_501_35999" x1="54.0678" y1="99.4062" x2="54.0678" y2="110.982" gradientUnits="userSpaceOnUse">
<stop stop-color="#D4F2E4"/>
<stop offset="1" stop-color="#71D5A4"/>
</linearGradient>
<linearGradient id="paint8_linear_501_35999" x1="23.0879" y1="94.8838" x2="43.8973" y2="137.241" gradientUnits="userSpaceOnUse">
<stop offset="0.0354" stop-color="#138BBD"/>
<stop offset="0.2257" stop-color="#169AC7"/>
<stop offset="0.5946" stop-color="#1FC3DF"/>
<stop offset="1" stop-color="#2AF6FF"/>
</linearGradient>
<linearGradient id="paint9_linear_501_35999" x1="64.4648" y1="104.156" x2="64.4648" y2="115.692" gradientUnits="userSpaceOnUse">
<stop stop-color="#D4F2E4"/>
<stop offset="1" stop-color="#A8DFF9"/>
</linearGradient>
<linearGradient id="paint10_linear_501_35999" x1="64.4648" y1="104.156" x2="64.4648" y2="115.692" gradientUnits="userSpaceOnUse">
<stop stop-color="#D4F2E4"/>
<stop offset="1" stop-color="#71D5A4"/>
</linearGradient>
<linearGradient id="paint11_linear_501_35999" x1="63.6389" y1="116.54" x2="63.2475" y2="104.118" gradientUnits="userSpaceOnUse">
<stop stop-color="#E0F1E9"/>
<stop offset="1" stop-color="#EFFDF7"/>
</linearGradient>
<linearGradient id="paint12_linear_501_35999" x1="71.1823" y1="109.84" x2="99.9191" y2="109.84" gradientUnits="userSpaceOnUse">
<stop offset="0.0101" stop-color="#138BBD"/>
<stop offset="0.0975" stop-color="#148FC0"/>
<stop offset="0.1927" stop-color="#179DC8"/>
<stop offset="0.2828" stop-color="#1BB0D4"/>
<stop offset="0.3151" stop-color="#1CB3D6"/>
<stop offset="0.3435" stop-color="#1EBEDD"/>
<stop offset="0.3535" stop-color="#1FC4E1"/>
<stop offset="0.6313" stop-color="#2AF6FF"/>
<stop offset="0.8737" stop-color="#1BB0D4"/>
</linearGradient>
<linearGradient id="paint13_linear_501_35999" x1="83.7066" y1="103.988" x2="83.7066" y2="115.692" gradientUnits="userSpaceOnUse">
<stop stop-color="#D4F2E4"/>
<stop offset="1" stop-color="#A8DFF9"/>
</linearGradient>
<linearGradient id="paint14_linear_501_35999" x1="83.7066" y1="103.988" x2="83.7066" y2="115.692" gradientUnits="userSpaceOnUse">
<stop stop-color="#D4F2E4"/>
<stop offset="1" stop-color="#71D5A4"/>
</linearGradient>
<linearGradient id="paint15_linear_501_35999" x1="80.876" y1="115.566" x2="79.9379" y2="99.8859" gradientUnits="userSpaceOnUse">
<stop stop-color="#D4F2E4"/>
<stop offset="1" stop-color="#71D5A4"/>
</linearGradient>
<linearGradient id="paint16_linear_501_35999" x1="81.2695" y1="116.553" x2="81.1328" y2="103.938" gradientUnits="userSpaceOnUse">
<stop stop-color="#E0F1E9"/>
<stop offset="1" stop-color="#EFFDF7"/>
</linearGradient>
<linearGradient id="paint17_linear_501_35999" x1="97.8915" y1="115.485" x2="70.1886" y2="99.0625" gradientUnits="userSpaceOnUse">
<stop stop-color="#245795"/>
<stop offset="1" stop-color="#8AD3A8"/>
</linearGradient>
<linearGradient id="paint18_linear_501_35999" x1="94.711" y1="76.8836" x2="88.8376" y2="108.872" gradientUnits="userSpaceOnUse">
<stop offset="0.0354" stop-color="#138BBD"/>
<stop offset="0.2257" stop-color="#169AC7"/>
<stop offset="0.5946" stop-color="#1FC3DF"/>
<stop offset="1" stop-color="#2AF6FF"/>
</linearGradient>
<linearGradient id="paint19_linear_501_35999" x1="69.3445" y1="92.6309" x2="69.3445" y2="106.437" gradientUnits="userSpaceOnUse">
<stop stop-color="#F0FEF8"/>
<stop offset="1" stop-color="#E0F1E9"/>
</linearGradient>
<linearGradient id="paint20_linear_501_35999" x1="98.4636" y1="106.193" x2="61.2349" y2="67.7835" gradientUnits="userSpaceOnUse">
<stop stop-color="#245795"/>
<stop offset="1" stop-color="#8AD3A8"/>
</linearGradient>
<linearGradient id="paint21_linear_501_35999" x1="40.7679" y1="108.126" x2="116.482" y2="91.3257" gradientUnits="userSpaceOnUse">
<stop offset="0.0354" stop-color="#9F19AB"/>
<stop offset="0.2438" stop-color="#AE25B1"/>
<stop offset="0.6455" stop-color="#D744BF"/>
<stop offset="1" stop-color="#FF63CE"/>
</linearGradient>
<linearGradient id="paint22_linear_501_35999" x1="40.584" y1="107.438" x2="69.8754" y2="107.438" gradientUnits="userSpaceOnUse">
<stop stop-color="#245795"/>
<stop offset="1" stop-color="#8AD3A8"/>
</linearGradient>
<linearGradient id="paint23_linear_501_35999" x1="52.3452" y1="113.191" x2="51.4042" y2="97.3368" gradientUnits="userSpaceOnUse">
<stop stop-color="#D4F2E4"/>
<stop offset="1" stop-color="#71D5A4"/>
</linearGradient>
<linearGradient id="paint24_linear_501_35999" x1="40.581" y1="107.477" x2="69.604" y2="107.477" gradientUnits="userSpaceOnUse">
<stop offset="0.0354" stop-color="#9F19AB"/>
<stop offset="0.2438" stop-color="#AE25B1"/>
<stop offset="0.6455" stop-color="#D744BF"/>
<stop offset="1" stop-color="#FF63CE"/>
</linearGradient>
<linearGradient id="paint25_linear_501_35999" x1="40.584" y1="107.51" x2="57.8293" y2="107.51" gradientUnits="userSpaceOnUse">
<stop stop-color="#245795"/>
<stop offset="1" stop-color="#8AD3A8"/>
</linearGradient>
<linearGradient id="paint26_linear_501_35999" x1="47.5084" y1="112.929" x2="46.0981" y2="98.0771" gradientUnits="userSpaceOnUse">
<stop stop-color="#D4F2E4"/>
<stop offset="1" stop-color="#71D5A4"/>
</linearGradient>
<linearGradient id="paint27_linear_501_35999" x1="41.7061" y1="112.357" x2="117.42" y2="95.5566" gradientUnits="userSpaceOnUse">
<stop offset="0.0354" stop-color="#9F19AB"/>
<stop offset="0.2438" stop-color="#AE25B1"/>
<stop offset="0.6455" stop-color="#D744BF"/>
<stop offset="1" stop-color="#FF63CE"/>
</linearGradient>
<linearGradient id="paint28_linear_501_35999" x1="40.0762" y1="112.271" x2="49.4941" y2="112.271" gradientUnits="userSpaceOnUse">
<stop stop-color="#245795"/>
<stop offset="1" stop-color="#8AD3A8"/>
</linearGradient>
<linearGradient id="paint29_linear_501_35999" x1="43.8577" y1="117.947" x2="41.0903" y2="102.753" gradientUnits="userSpaceOnUse">
<stop stop-color="#D4F2E4"/>
<stop offset="1" stop-color="#71D5A4"/>
</linearGradient>
<linearGradient id="paint30_linear_501_35999" x1="-14.6673" y1="95.026" x2="6.9719" y2="140.203" gradientUnits="userSpaceOnUse">
<stop offset="0.0354" stop-color="#9F19AB"/>
<stop offset="0.2438" stop-color="#AE25B1"/>
<stop offset="0.6455" stop-color="#D744BF"/>
<stop offset="1" stop-color="#FF63CE"/>
</linearGradient>
<linearGradient id="paint31_linear_501_35999" x1="10.0059" y1="109.875" x2="40.076" y2="109.875" gradientUnits="userSpaceOnUse">
<stop stop-color="#245795"/>
<stop offset="1" stop-color="#8AD3A8"/>
</linearGradient>
<linearGradient id="paint32_linear_501_35999" x1="22.0798" y1="117.895" x2="20.3039" y2="95.8607" gradientUnits="userSpaceOnUse">
<stop stop-color="#D4F2E4"/>
<stop offset="1" stop-color="#71D5A4"/>
</linearGradient>
<linearGradient id="paint33_linear_501_35999" x1="61.8872" y1="102.074" x2="61.8111" y2="96.3252" gradientUnits="userSpaceOnUse">
<stop stop-color="#E0F1E9"/>
<stop offset="1" stop-color="#EFFDF7"/>
</linearGradient>
<linearGradient id="paint34_linear_501_35999" x1="73.5074" y1="100.712" x2="58.1742" y2="96.7423" gradientUnits="userSpaceOnUse">
<stop stop-color="#D4F2E4"/>
<stop offset="1" stop-color="#71D5A4"/>
</linearGradient>
<linearGradient id="paint35_linear_501_35999" x1="51.8383" y1="73.8108" x2="49.3008" y2="106.91" gradientUnits="userSpaceOnUse">
<stop offset="0.0354" stop-color="#9F19AB"/>
<stop offset="0.2438" stop-color="#AE25B1"/>
<stop offset="0.6455" stop-color="#D744BF"/>
<stop offset="1" stop-color="#FF63CE"/>
</linearGradient>
<linearGradient id="paint36_linear_501_35999" x1="10" y1="101.576" x2="69.8688" y2="101.576" gradientUnits="userSpaceOnUse">
<stop stop-color="#245795"/>
<stop offset="1" stop-color="#8AD3A8"/>
</linearGradient>
<linearGradient id="paint37_linear_501_35999" x1="34.0389" y1="108.66" x2="33.3393" y2="89.0955" gradientUnits="userSpaceOnUse">
<stop stop-color="#D4F2E4"/>
<stop offset="1" stop-color="#71D5A4"/>
</linearGradient>
<linearGradient id="paint38_linear_501_35999" x1="51.9286" y1="12.2926" x2="39.0652" y2="77.5623" gradientUnits="userSpaceOnUse">
<stop stop-color="#245795"/>
<stop offset="1" stop-color="#8AD3A8"/>
</linearGradient>
<linearGradient id="paint39_linear_501_35999" x1="54.7858" y1="19.915" x2="60.5027" y2="103.289" gradientUnits="userSpaceOnUse">
<stop stop-color="#245795"/>
<stop offset="1" stop-color="#8AD3A8"/>
</linearGradient>
<linearGradient id="paint40_linear_501_35999" x1="75.7507" y1="1.35196" x2="58.7401" y2="121.228" gradientUnits="userSpaceOnUse">
<stop stop-color="#245795"/>
<stop offset="1" stop-color="#8AD3A8"/>
</linearGradient>
<linearGradient id="paint41_linear_501_35999" x1="82.5609" y1="0.454305" x2="82.5609" y2="120.937" gradientUnits="userSpaceOnUse">
<stop stop-color="#245795"/>
<stop offset="1" stop-color="#8AD3A8"/>
</linearGradient>
<linearGradient id="paint42_linear_501_35999" x1="26.8001" y1="37.3123" x2="26.8002" y2="60.5478" gradientUnits="userSpaceOnUse">
<stop stop-color="#245795"/>
<stop offset="1" stop-color="#8AD3A8"/>
</linearGradient>
<linearGradient id="paint43_linear_501_35999" x1="26.7429" y1="37.3133" x2="26.7429" y2="60.5488" gradientUnits="userSpaceOnUse">
<stop stop-color="#245795"/>
<stop offset="1" stop-color="#8AD3A8"/>
</linearGradient>
<linearGradient id="paint44_linear_501_35999" x1="36.8065" y1="104.799" x2="62.5809" y2="47.4363" gradientUnits="userSpaceOnUse">
<stop stop-color="#D4F2E4"/>
<stop offset="1" stop-color="#71D5A4"/>
</linearGradient>
</defs>
</svg>
