<svg width="150" height="103" viewBox="0 0 150 103" fill="none" xmlns="http://www.w3.org/2000/svg">
<path d="M130.845 21.2793L117.971 28.6727C116.743 29.3831 117.497 30.6372 119.233 30.7074C119.269 30.7074 119.304 30.7161 119.33 30.7161L117.962 31.5055C116.734 32.2159 117.488 33.47 119.225 33.5402C119.532 33.549 119.839 57.1236 120.146 57.1499L130.845 51.0194L130.837 51.0106H130.889V21.2793H130.845Z" fill="url(#paint0_linear_528_46759)"/>
<path d="M130.845 21.2793L117.971 28.6727C116.743 29.3831 117.497 30.6372 119.233 30.7074C119.269 30.7074 119.304 30.7161 119.33 30.7161L117.962 31.5055C116.734 32.2159 117.488 33.47 119.225 33.5402C119.532 33.549 119.839 57.1236 120.146 57.1499L130.845 51.0194L130.837 51.0106H130.889V21.2793H130.845Z" fill="url(#paint1_linear_528_46759)"/>
<path d="M130.845 21.2793L117.971 28.6727C116.743 29.3831 117.497 30.6372 119.233 30.7074C119.269 30.7074 119.304 30.7161 119.33 30.7161L117.962 31.5055C116.734 32.2159 117.488 33.47 119.225 33.5402C119.532 33.549 119.839 57.1236 120.146 57.1499L130.845 51.0194L130.837 51.0106H130.889V21.2793H130.845Z" fill="url(#paint2_linear_528_46759)"/>
<path d="M130.845 21.2793L117.971 28.6727C116.743 29.3831 117.497 30.6372 119.233 30.7074C119.269 30.7074 119.304 30.7161 119.33 30.7161L117.962 31.5055C116.734 32.2159 117.488 33.47 119.225 33.5402C119.532 33.549 119.839 57.1236 120.146 57.1499L130.845 51.0194L130.837 51.0106H130.889V21.2793H130.845Z" fill="url(#paint3_linear_528_46759)"/>
<path d="M130.845 21.2793L117.971 28.6727C116.743 29.3831 117.497 30.6372 119.233 30.7074C119.269 30.7074 119.304 30.7161 119.33 30.7161L117.962 31.5055C116.734 32.2159 117.488 33.47 119.225 33.5402C119.532 33.549 119.839 57.1236 120.146 57.1499L130.845 51.0194L130.837 51.0106H130.889V21.2793H130.845Z" fill="url(#paint4_linear_528_46759)"/>
<path d="M130.845 21.2793L117.971 28.6727C116.743 29.3831 117.497 30.6372 119.233 30.7074C119.269 30.7074 119.304 30.7161 119.33 30.7161L117.962 31.5055C116.734 32.2159 117.488 33.47 119.225 33.5402C119.532 33.549 119.839 57.1236 120.146 57.1499L130.845 51.0194L130.837 51.0106H130.889V21.2793H130.845Z" fill="url(#paint5_linear_528_46759)"/>
<path d="M86.608 54.282C87.8358 55.0801 88.6514 56.0799 89.0724 57.1499C89.4759 56.1413 89.5022 31.5231 89.1689 30.4969C89.853 28.4008 88.9935 26.0855 86.608 24.5419C82.0649 21.6039 74.2681 21.4986 69.5409 24.2262C67.5501 25.3751 66.4275 26.8397 66.1819 28.3482C66.0504 29.1288 64.4366 29.4796 63.4719 28.9271L50.7812 21.7617V51.4931L63.4719 58.6672C64.4366 59.2285 66.0591 58.8777 66.1819 58.0883C66.4275 56.5798 67.5413 55.1152 69.5409 53.9663C74.2681 51.2387 82.0649 51.3527 86.608 54.282Z" fill="url(#paint6_linear_528_46759)"/>
<path d="M86.608 54.282C87.8358 55.0801 88.6514 56.0799 89.0724 57.1499C89.4759 56.1413 89.5022 31.5231 89.1689 30.4969C89.853 28.4008 88.9935 26.0855 86.608 24.5419C82.0649 21.6039 74.2681 21.4986 69.5409 24.2262C67.5501 25.3751 66.4275 26.8397 66.1819 28.3482C66.0504 29.1288 64.4366 29.4796 63.4719 28.9271L50.7812 21.7617V51.4931L63.4719 58.6672C64.4366 59.2285 66.0591 58.8777 66.1819 58.0883C66.4275 56.5798 67.5413 55.1152 69.5409 53.9663C74.2681 51.2387 82.0649 51.3527 86.608 54.282Z" fill="url(#paint7_linear_528_46759)"/>
<path d="M86.608 54.282C87.8358 55.0801 88.6514 56.0799 89.0724 57.1499C89.4759 56.1413 89.5022 31.5231 89.1689 30.4969C89.853 28.4008 88.9935 26.0855 86.608 24.5419C82.0649 21.6039 74.2681 21.4986 69.5409 24.2262C67.5501 25.3751 66.4275 26.8397 66.1819 28.3482C66.0504 29.1288 64.4366 29.4796 63.4719 28.9271L50.7812 21.7617V51.4931L63.4719 58.6672C64.4366 59.2285 66.0591 58.8777 66.1819 58.0883C66.4275 56.5798 67.5413 55.1152 69.5409 53.9663C74.2681 51.2387 82.0649 51.3527 86.608 54.282Z" fill="url(#paint8_linear_528_46759)"/>
<path d="M90.809 44.3447L78.057 37.3548C77.8816 37.2495 77.7763 37.1355 77.6974 37.0215V66.1126C77.4869 66.4283 77.5658 66.8055 78.057 67.0861L90.809 74.076V44.3447Z" fill="url(#paint9_linear_528_46759)"/>
<path d="M90.809 44.3447L78.057 37.3548C77.8816 37.2495 77.7763 37.1355 77.6974 37.0215V66.1126C77.4869 66.4283 77.5658 66.8055 78.057 67.0861L90.809 74.076V44.3447Z" fill="url(#paint10_linear_528_46759)"/>
<path d="M90.809 44.3447L78.057 37.3548C77.8816 37.2495 77.7763 37.1355 77.6974 37.0215V66.1126C77.4869 66.4283 77.5658 66.8055 78.057 67.0861L90.809 74.076V44.3447Z" fill="url(#paint11_linear_528_46759)"/>
<path d="M90.809 44.3447L78.057 37.3548C77.8816 37.2495 77.7763 37.1355 77.6974 37.0215V66.1126C77.4869 66.4283 77.5658 66.8055 78.057 67.0861L90.809 74.076V44.3447Z" fill="url(#paint12_linear_528_46759)"/>
<path d="M90.809 44.3447L78.057 37.3548C77.8816 37.2495 77.7763 37.1355 77.6974 37.0215V66.1126C77.4869 66.4283 77.5658 66.8055 78.057 67.0861L90.809 74.076V44.3447Z" fill="url(#paint13_linear_528_46759)"/>
<path d="M90.8086 74.0765L103.833 66.5604C105.06 65.85 107.209 66.2973 107.332 67.3059C107.516 68.9021 108.718 70.4632 110.928 71.6472C115.181 73.9274 121.961 73.945 126.197 71.6822C128.486 70.4632 129.661 68.8231 129.766 67.1743H129.819V37.443L129.766 37.4517C129.661 39.1005 128.477 40.7318 126.197 41.9509C121.961 44.2136 115.19 44.2049 110.928 41.9158C108.718 40.7318 107.516 39.1707 107.332 37.5745C107.218 36.5659 105.069 36.1186 103.833 36.829L90.8086 44.3452V74.0765Z" fill="url(#paint14_linear_528_46759)"/>
<path d="M90.8086 74.0765L103.833 66.5604C105.06 65.85 107.209 66.2973 107.332 67.3059C107.516 68.9021 108.718 70.4632 110.928 71.6472C115.181 73.9274 121.961 73.945 126.197 71.6822C128.486 70.4632 129.661 68.8231 129.766 67.1743H129.819V37.443L129.766 37.4517C129.661 39.1005 128.477 40.7318 126.197 41.9509C121.961 44.2136 115.19 44.2049 110.928 41.9158C108.718 40.7318 107.516 39.1707 107.332 37.5745C107.218 36.5659 105.069 36.1186 103.833 36.829L90.8086 44.3452V74.0765Z" fill="url(#paint15_linear_528_46759)"/>
<path d="M90.8086 74.0765L103.833 66.5604C105.06 65.85 107.209 66.2973 107.332 67.3059C107.516 68.9021 108.718 70.4632 110.928 71.6472C115.181 73.9274 121.961 73.945 126.197 71.6822C128.486 70.4632 129.661 68.8231 129.766 67.1743H129.819V37.443L129.766 37.4517C129.661 39.1005 128.477 40.7318 126.197 41.9509C121.961 44.2136 115.19 44.2049 110.928 41.9158C108.718 40.7318 107.516 39.1707 107.332 37.5745C107.218 36.5659 105.069 36.1186 103.833 36.829L90.8086 44.3452V74.0765Z" fill="url(#paint16_linear_528_46759)"/>
<path d="M90.8086 74.0765L103.833 66.5604C105.06 65.85 107.209 66.2973 107.332 67.3059C107.516 68.9021 108.718 70.4632 110.928 71.6472C115.181 73.9274 121.961 73.945 126.197 71.6822C128.486 70.4632 129.661 68.8231 129.766 67.1743H129.819V37.443L129.766 37.4517C129.661 39.1005 128.477 40.7318 126.197 41.9509C121.961 44.2136 115.19 44.2049 110.928 41.9158C108.718 40.7318 107.516 39.1707 107.332 37.5745C107.218 36.5659 105.069 36.1186 103.833 36.829L90.8086 44.3452V74.0765Z" fill="url(#paint17_linear_528_46759)"/>
<path d="M90.8086 74.0765L103.833 66.5604C105.06 65.85 107.209 66.2973 107.332 67.3059C107.516 68.9021 108.718 70.4632 110.928 71.6472C115.181 73.9274 121.961 73.945 126.197 71.6822C128.486 70.4632 129.661 68.8231 129.766 67.1743H129.819V37.443L129.766 37.4517C129.661 39.1005 128.477 40.7318 126.197 41.9509C121.961 44.2136 115.19 44.2049 110.928 41.9158C108.718 40.7318 107.516 39.1707 107.332 37.5745C107.218 36.5659 105.069 36.1186 103.833 36.829L90.8086 44.3452V74.0765Z" fill="url(#paint18_linear_528_46759)"/>
<path d="M90.8086 74.0765L103.833 66.5604C105.06 65.85 107.209 66.2973 107.332 67.3059C107.516 68.9021 108.718 70.4632 110.928 71.6472C115.181 73.9274 121.961 73.945 126.197 71.6822C128.486 70.4632 129.661 68.8231 129.766 67.1743H129.819V37.443L129.766 37.4517C129.661 39.1005 128.477 40.7318 126.197 41.9509C121.961 44.2136 115.19 44.2049 110.928 41.9158C108.718 40.7318 107.516 39.1707 107.332 37.5745C107.218 36.5659 105.069 36.1186 103.833 36.829L90.8086 44.3452V74.0765Z" fill="url(#paint19_linear_528_46759)"/>
<path d="M69.5409 24.2346C74.2681 21.507 82.0562 21.6122 86.608 24.5503C90.2827 26.9183 90.3617 31.1456 86.6957 33.5399C84.6434 34.8817 81.8983 35.6272 79.0743 35.7851C77.7061 35.864 77.0834 36.7936 78.0569 37.3549L90.8089 44.3449L103.833 36.8287C105.061 36.1183 107.209 36.5656 107.332 37.5742C107.516 39.1704 108.718 40.7315 110.928 41.9155C115.182 44.1958 121.961 44.2133 126.197 41.9506C130.889 39.4423 130.968 35.2062 126.46 32.6014C124.443 31.435 121.865 30.8035 119.242 30.707C117.506 30.6369 116.743 29.3827 117.979 28.6723L130.863 21.279L95.0362 1.12479C92.4314 -0.374931 89.2215 -0.374931 86.6167 1.12479L50.7812 21.7613L63.4719 28.9354C64.4366 29.4967 66.0591 29.1459 66.1819 28.3566C66.4363 26.8569 67.5501 25.3835 69.5409 24.2346Z" fill="url(#paint20_linear_528_46759)"/>
<path d="M69.5409 24.2346C74.2681 21.507 82.0562 21.6122 86.608 24.5503C90.2827 26.9183 90.3617 31.1456 86.6957 33.5399C84.6434 34.8817 81.8983 35.6272 79.0743 35.7851C77.7061 35.864 77.0834 36.7936 78.0569 37.3549L90.8089 44.3449L103.833 36.8287C105.061 36.1183 107.209 36.5656 107.332 37.5742C107.516 39.1704 108.718 40.7315 110.928 41.9155C115.182 44.1958 121.961 44.2133 126.197 41.9506C130.889 39.4423 130.968 35.2062 126.46 32.6014C124.443 31.435 121.865 30.8035 119.242 30.707C117.506 30.6369 116.743 29.3827 117.979 28.6723L130.863 21.279L95.0362 1.12479C92.4314 -0.374931 89.2215 -0.374931 86.6167 1.12479L50.7812 21.7613L63.4719 28.9354C64.4366 29.4967 66.0591 29.1459 66.1819 28.3566C66.4363 26.8569 67.5501 25.3835 69.5409 24.2346Z" fill="url(#paint21_linear_528_46759)"/>
<path d="M69.5409 24.2346C74.2681 21.507 82.0562 21.6122 86.608 24.5503C90.2827 26.9183 90.3617 31.1456 86.6957 33.5399C84.6434 34.8817 81.8983 35.6272 79.0743 35.7851C77.7061 35.864 77.0834 36.7936 78.0569 37.3549L90.8089 44.3449L103.833 36.8287C105.061 36.1183 107.209 36.5656 107.332 37.5742C107.516 39.1704 108.718 40.7315 110.928 41.9155C115.182 44.1958 121.961 44.2133 126.197 41.9506C130.889 39.4423 130.968 35.2062 126.46 32.6014C124.443 31.435 121.865 30.8035 119.242 30.707C117.506 30.6369 116.743 29.3827 117.979 28.6723L130.863 21.279L95.0362 1.12479C92.4314 -0.374931 89.2215 -0.374931 86.6167 1.12479L50.7812 21.7613L63.4719 28.9354C64.4366 29.4967 66.0591 29.1459 66.1819 28.3566C66.4363 26.8569 67.5501 25.3835 69.5409 24.2346Z" fill="url(#paint22_linear_528_46759)"/>
<path d="M76.6283 36.4399C75.6635 37.0012 74.041 36.6329 73.9007 35.8435C73.6113 34.2123 72.2957 32.6248 69.9628 31.4233C65.7443 29.2658 58.7632 29.2307 54.5271 31.3531C51.1593 33.037 49.9139 35.5454 50.7646 37.8607C50.3875 38.8868 50.4226 63.4963 50.8699 64.5137C51.4312 63.2332 52.6502 62.0317 54.5359 61.0933C58.7719 58.9709 65.7443 59.0059 69.9716 61.1634C72.3133 62.3562 73.6201 63.9436 73.9095 65.5837C74.0498 66.373 75.6635 66.7413 76.637 66.18L90.2573 58.1728V31.8004V31.2742V28.4414L76.6283 36.4399Z" fill="url(#paint23_linear_528_46759)"/>
<path d="M76.6283 36.4399C75.6635 37.0012 74.041 36.6329 73.9007 35.8435C73.6113 34.2123 72.2957 32.6248 69.9628 31.4233C65.7443 29.2658 58.7632 29.2307 54.5271 31.3531C51.1593 33.037 49.9139 35.5454 50.7646 37.8607C50.3875 38.8868 50.4226 63.4963 50.8699 64.5137C51.4312 63.2332 52.6502 62.0317 54.5359 61.0933C58.7719 58.9709 65.7443 59.0059 69.9716 61.1634C72.3133 62.3562 73.6201 63.9436 73.9095 65.5837C74.0498 66.373 75.6635 66.7413 76.637 66.18L90.2573 58.1728V31.8004V31.2742V28.4414L76.6283 36.4399Z" fill="url(#paint24_linear_528_46759)"/>
<path d="M76.6283 36.4399C75.6635 37.0012 74.041 36.6329 73.9007 35.8435C73.6113 34.2123 72.2957 32.6248 69.9628 31.4233C65.7443 29.2658 58.7632 29.2307 54.5271 31.3531C51.1593 33.037 49.9139 35.5454 50.7646 37.8607C50.3875 38.8868 50.4226 63.4963 50.8699 64.5137C51.4312 63.2332 52.6502 62.0317 54.5359 61.0933C58.7719 58.9709 65.7443 59.0059 69.9716 61.1634C72.3133 62.3562 73.6201 63.9436 73.9095 65.5837C74.0498 66.373 75.6635 66.7413 76.637 66.18L90.2573 58.1728V31.8004V31.2742V28.4414L76.6283 36.4399Z" fill="url(#paint25_linear_528_46759)"/>
<path d="M73.9007 35.8437C73.6113 34.2125 72.2957 32.625 69.9628 31.4235C65.7443 29.266 58.7632 29.2309 54.5271 31.3533C51.1593 33.0372 49.9139 35.5455 50.7646 37.8609C50.3875 38.887 50.4226 63.4965 50.8699 64.5139C51.4312 63.2334 52.6502 62.0319 54.5359 61.0935C58.7719 58.971 65.7443 59.0061 69.9716 61.1636C72.3133 62.3564 73.6201 63.9438 73.9095 65.5839V35.8437H73.9007Z" fill="url(#paint26_linear_528_46759)"/>
<path d="M73.9007 35.8437C73.6113 34.2125 72.2957 32.625 69.9628 31.4235C65.7443 29.266 58.7632 29.2309 54.5271 31.3533C51.1593 33.0372 49.9139 35.5455 50.7646 37.8609C50.3875 38.887 50.4226 63.4965 50.8699 64.5139C51.4312 63.2334 52.6502 62.0319 54.5359 61.0935C58.7719 58.971 65.7443 59.0061 69.9716 61.1636C72.3133 62.3564 73.6201 63.9438 73.9095 65.5839V35.8437H73.9007Z" fill="url(#paint27_linear_528_46759)"/>
<path d="M73.9007 35.8437C73.6113 34.2125 72.2957 32.625 69.9628 31.4235C65.7443 29.266 58.7632 29.2309 54.5271 31.3533C51.1593 33.0372 49.9139 35.5455 50.7646 37.8609C50.3875 38.887 50.4226 63.4965 50.8699 64.5139C51.4312 63.2334 52.6502 62.0319 54.5359 61.0935C58.7719 58.971 65.7443 59.0061 69.9716 61.1636C72.3133 62.3564 73.6201 63.9438 73.9095 65.5839V35.8437H73.9007Z" fill="url(#paint28_linear_528_46759)"/>
<path d="M49.8164 81.7206L62.1387 74.5465C62.5158 74.3272 62.6386 74.0553 62.586 73.801V44.2188C62.5684 44.4292 62.4369 44.6397 62.1387 44.8151L49.8252 51.9892H49.8164V51.998V81.7206Z" fill="url(#paint29_linear_528_46759)"/>
<path d="M49.8164 81.7206L62.1387 74.5465C62.5158 74.3272 62.6386 74.0553 62.586 73.801V44.2188C62.5684 44.4292 62.4369 44.6397 62.1387 44.8151L49.8252 51.9892H49.8164V51.998V81.7206Z" fill="url(#paint30_linear_528_46759)"/>
<path d="M49.8164 81.7206L62.1387 74.5465C62.5158 74.3272 62.6386 74.0553 62.586 73.801V44.2188C62.5684 44.4292 62.4369 44.6397 62.1387 44.8151L49.8252 51.9892H49.8164V51.998V81.7206Z" fill="url(#paint31_linear_528_46759)"/>
<path d="M49.8161 51.9816V81.7217L9.00781 58.4716V28.7402L49.8161 51.9816Z" fill="url(#paint32_linear_528_46759)"/>
<path d="M49.8161 51.9816V81.7217L9.00781 58.4716V28.7402L49.8161 51.9816Z" fill="url(#paint33_linear_528_46759)"/>
<path d="M49.8161 51.9816V81.7217L9.00781 58.4716V28.7402L49.8161 51.9816Z" fill="url(#paint34_linear_528_46759)"/>
<path d="M87.9161 29.0746V11.9414L74.4173 17.1333L73.3789 20.2484L87.9161 29.0746Z" fill="#D9D9D9"/>
<path d="M87.9161 29.0746V11.9414L74.4173 17.1333L73.3789 20.2484L87.9161 29.0746Z" fill="url(#paint35_linear_528_46759)"/>
<path d="M87.9161 29.0746V11.9414L74.4173 17.1333L73.3789 20.2484L87.9161 29.0746Z" fill="url(#paint36_linear_528_46759)"/>
<path d="M49.817 51.9898L62.1393 44.8157C63.104 44.2631 62.4813 43.3247 61.122 43.2458C58.5084 43.0967 55.965 42.4389 53.9566 41.2812C49.1592 38.5098 49.3434 33.958 54.5267 31.362C58.7627 29.2396 65.7351 29.2747 69.9624 31.4322C72.3041 32.6249 73.6109 34.2124 73.9003 35.8524C74.0406 36.6417 75.6544 37.0101 76.6279 36.4488L90.2481 28.4415L76.1893 20.5219C74.9527 19.8027 75.7157 18.5661 77.461 18.5047C80.2149 18.4083 82.9162 17.7242 84.9597 16.4525C88.8887 14.0056 88.8712 10.1028 84.9246 7.63832C80.5482 4.91953 73.1987 4.84936 68.7258 7.42783C66.7262 8.58552 65.6474 10.0677 65.4808 11.585C65.3756 12.5848 63.2005 13.0145 61.9639 12.3041L49.4311 5.19141H49.4224L9.00877 28.7397H9L49.817 51.9898Z" fill="url(#paint37_linear_528_46759)"/>
<path d="M49.817 51.9898L62.1393 44.8157C63.104 44.2631 62.4813 43.3247 61.122 43.2458C58.5084 43.0967 55.965 42.4389 53.9566 41.2812C49.1592 38.5098 49.3434 33.958 54.5267 31.362C58.7627 29.2396 65.7351 29.2747 69.9624 31.4322C72.3041 32.6249 73.6109 34.2124 73.9003 35.8524C74.0406 36.6417 75.6544 37.0101 76.6279 36.4488L90.2481 28.4415L76.1893 20.5219C74.9527 19.8027 75.7157 18.5661 77.461 18.5047C80.2149 18.4083 82.9162 17.7242 84.9597 16.4525C88.8887 14.0056 88.8712 10.1028 84.9246 7.63832C80.5482 4.91953 73.1987 4.84936 68.7258 7.42783C66.7262 8.58552 65.6474 10.0677 65.4808 11.585C65.3756 12.5848 63.2005 13.0145 61.9639 12.3041L49.4311 5.19141H49.4224L9.00877 28.7397H9L49.817 51.9898Z" fill="url(#paint38_linear_528_46759)"/>
<path d="M49.817 51.9898L62.1393 44.8157C63.104 44.2631 62.4813 43.3247 61.122 43.2458C58.5084 43.0967 55.965 42.4389 53.9566 41.2812C49.1592 38.5098 49.3434 33.958 54.5267 31.362C58.7627 29.2396 65.7351 29.2747 69.9624 31.4322C72.3041 32.6249 73.6109 34.2124 73.9003 35.8524C74.0406 36.6417 75.6544 37.0101 76.6279 36.4488L90.2481 28.4415L76.1893 20.5219C74.9527 19.8027 75.7157 18.5661 77.461 18.5047C80.2149 18.4083 82.9162 17.7242 84.9597 16.4525C88.8887 14.0056 88.8712 10.1028 84.9246 7.63832C80.5482 4.91953 73.1987 4.84936 68.7258 7.42783C66.7262 8.58552 65.6474 10.0677 65.4808 11.585C65.3756 12.5848 63.2005 13.0145 61.9639 12.3041L49.4311 5.19141H49.4224L9.00877 28.7397H9L49.817 51.9898Z" fill="url(#paint39_linear_528_46759)"/>
<g opacity="0.2" filter="url(#filter0_f_528_46759)">
<path d="M139.951 70.5L126.086 73.2013C124.764 73.4609 125.576 73.9191 127.446 73.9448C127.484 73.9448 127.522 73.948 127.55 73.948L126.077 74.2364C124.754 74.4959 125.567 74.9542 127.437 74.9798C127.767 74.983 128.098 83.5965 128.428 83.6061L139.951 81.3662L139.942 81.363H139.998V70.5H139.951Z" fill="url(#paint40_linear_528_46759)"/>
<path d="M139.951 70.5L126.086 73.2013C124.764 73.4609 125.576 73.9191 127.446 73.9448C127.484 73.9448 127.522 73.948 127.55 73.948L126.077 74.2364C124.754 74.4959 125.567 74.9542 127.437 74.9798C127.767 74.983 128.098 83.5965 128.428 83.6061L139.951 81.3662L139.942 81.363H139.998V70.5H139.951Z" fill="url(#paint41_linear_528_46759)"/>
<path d="M139.951 70.5L126.086 73.2013C124.764 73.4609 125.576 73.9191 127.446 73.9448C127.484 73.9448 127.522 73.948 127.55 73.948L126.077 74.2364C124.754 74.4959 125.567 74.9542 127.437 74.9798C127.767 74.983 128.098 83.5965 128.428 83.6061L139.951 81.3662L139.942 81.363H139.998V70.5H139.951Z" fill="url(#paint42_linear_528_46759)"/>
<path d="M139.951 70.5L126.086 73.2013C124.764 73.4609 125.576 73.9191 127.446 73.9448C127.484 73.9448 127.522 73.948 127.55 73.948L126.077 74.2364C124.754 74.4959 125.567 74.9542 127.437 74.9798C127.767 74.983 128.098 83.5965 128.428 83.6061L139.951 81.3662L139.942 81.363H139.998V70.5H139.951Z" fill="url(#paint43_linear_528_46759)"/>
<path d="M139.951 70.5L126.086 73.2013C124.764 73.4609 125.576 73.9191 127.446 73.9448C127.484 73.9448 127.522 73.948 127.55 73.948L126.077 74.2364C124.754 74.4959 125.567 74.9542 127.437 74.9798C127.767 74.983 128.098 83.5965 128.428 83.6061L139.951 81.3662L139.942 81.363H139.998V70.5H139.951Z" fill="url(#paint44_linear_528_46759)"/>
<path d="M92.311 82.5588C93.6333 82.8504 94.5117 83.2157 94.965 83.6066C95.3995 83.2381 95.4278 74.2433 95.0689 73.8684C95.8056 73.1025 94.88 72.2565 92.311 71.6926C87.4185 70.6191 79.022 70.5806 73.9312 71.5772C71.7872 71.997 70.5782 72.5321 70.3138 73.0833C70.1721 73.3685 68.4342 73.4967 67.3953 73.2948L53.7285 70.6768V81.5398L67.3953 84.161C68.4342 84.3661 70.1816 84.2379 70.3138 83.9495C70.5782 83.3984 71.7777 82.8632 73.9312 82.4434C79.022 81.4469 87.4185 81.4885 92.311 82.5588Z" fill="url(#paint45_linear_528_46759)"/>
<path d="M92.311 82.5588C93.6333 82.8504 94.5117 83.2157 94.965 83.6066C95.3995 83.2381 95.4278 74.2433 95.0689 73.8684C95.8056 73.1025 94.88 72.2565 92.311 71.6926C87.4185 70.6191 79.022 70.5806 73.9312 71.5772C71.7872 71.997 70.5782 72.5321 70.3138 73.0833C70.1721 73.3685 68.4342 73.4967 67.3953 73.2948L53.7285 70.6768V81.5398L67.3953 84.161C68.4342 84.3661 70.1816 84.2379 70.3138 83.9495C70.5782 83.3984 71.7777 82.8632 73.9312 82.4434C79.022 81.4469 87.4185 81.4885 92.311 82.5588Z" fill="url(#paint46_linear_528_46759)"/>
<path d="M92.311 82.5588C93.6333 82.8504 94.5117 83.2157 94.965 83.6066C95.3995 83.2381 95.4278 74.2433 95.0689 73.8684C95.8056 73.1025 94.88 72.2565 92.311 71.6926C87.4185 70.6191 79.022 70.5806 73.9312 71.5772C71.7872 71.997 70.5782 72.5321 70.3138 73.0833C70.1721 73.3685 68.4342 73.4967 67.3953 73.2948L53.7285 70.6768V81.5398L67.3953 84.161C68.4342 84.3661 70.1816 84.2379 70.3138 83.9495C70.5782 83.3984 71.7777 82.8632 73.9312 82.4434C79.022 81.4469 87.4185 81.4885 92.311 82.5588Z" fill="url(#paint47_linear_528_46759)"/>
<path d="M96.8357 78.9277L83.1028 76.3737C82.9139 76.3353 82.8006 76.2936 82.7156 76.252V86.8811C82.4889 86.9964 82.5739 87.1342 83.1028 87.2367L96.8357 89.7907V78.9277Z" fill="url(#paint48_linear_528_46759)"/>
<path d="M96.8357 78.9277L83.1028 76.3737C82.9139 76.3353 82.8006 76.2936 82.7156 76.252V86.8811C82.4889 86.9964 82.5739 87.1342 83.1028 87.2367L96.8357 89.7907V78.9277Z" fill="url(#paint49_linear_528_46759)"/>
<path d="M96.8357 78.9277L83.1028 76.3737C82.9139 76.3353 82.8006 76.2936 82.7156 76.252V86.8811C82.4889 86.9964 82.5739 87.1342 83.1028 87.2367L96.8357 89.7907V78.9277Z" fill="url(#paint50_linear_528_46759)"/>
<path d="M96.8357 78.9277L83.1028 76.3737C82.9139 76.3353 82.8006 76.2936 82.7156 76.252V86.8811C82.4889 86.9964 82.5739 87.1342 83.1028 87.2367L96.8357 89.7907V78.9277Z" fill="url(#paint51_linear_528_46759)"/>
<g opacity="0.5">
<path d="M96.8359 89.7906L110.862 87.0444C112.184 86.7848 114.498 86.9482 114.63 87.3167C114.829 87.8999 116.122 88.4703 118.503 88.9029C123.083 89.7361 130.384 89.7425 134.946 88.9157C137.411 88.4703 138.677 87.8711 138.79 87.2687H138.847V76.4056L138.79 76.4088C138.677 77.0113 137.402 77.6073 134.946 78.0527C130.384 78.8795 123.093 78.8763 118.503 78.0399C116.122 77.6073 114.829 77.0369 114.63 76.4537C114.507 76.0852 112.193 75.9218 110.862 76.1813L96.8359 78.9275V89.7906Z" fill="url(#paint52_linear_528_46759)"/>
<path d="M96.8359 89.7906L110.862 87.0444C112.184 86.7848 114.498 86.9482 114.63 87.3167C114.829 87.8999 116.122 88.4703 118.503 88.9029C123.083 89.7361 130.384 89.7425 134.946 88.9157C137.411 88.4703 138.677 87.8711 138.79 87.2687H138.847V76.4056L138.79 76.4088C138.677 77.0113 137.402 77.6073 134.946 78.0527C130.384 78.8795 123.093 78.8763 118.503 78.0399C116.122 77.6073 114.829 77.0369 114.63 76.4537C114.507 76.0852 112.193 75.9218 110.862 76.1813L96.8359 78.9275V89.7906Z" fill="url(#paint53_linear_528_46759)"/>
<path d="M96.8359 89.7906L110.862 87.0444C112.184 86.7848 114.498 86.9482 114.63 87.3167C114.829 87.8999 116.122 88.4703 118.503 88.9029C123.083 89.7361 130.384 89.7425 134.946 88.9157C137.411 88.4703 138.677 87.8711 138.79 87.2687H138.847V76.4056L138.79 76.4088C138.677 77.0113 137.402 77.6073 134.946 78.0527C130.384 78.8795 123.093 78.8763 118.503 78.0399C116.122 77.6073 114.829 77.0369 114.63 76.4537C114.507 76.0852 112.193 75.9218 110.862 76.1813L96.8359 78.9275V89.7906Z" fill="url(#paint54_linear_528_46759)"/>
<path d="M96.8359 89.7906L110.862 87.0444C112.184 86.7848 114.498 86.9482 114.63 87.3167C114.829 87.8999 116.122 88.4703 118.503 88.9029C123.083 89.7361 130.384 89.7425 134.946 88.9157C137.411 88.4703 138.677 87.8711 138.79 87.2687H138.847V76.4056L138.79 76.4088C138.677 77.0113 137.402 77.6073 134.946 78.0527C130.384 78.8795 123.093 78.8763 118.503 78.0399C116.122 77.6073 114.829 77.0369 114.63 76.4537C114.507 76.0852 112.193 75.9218 110.862 76.1813L96.8359 78.9275V89.7906Z" fill="url(#paint55_linear_528_46759)"/>
<path d="M96.8359 89.7906L110.862 87.0444C112.184 86.7848 114.498 86.9482 114.63 87.3167C114.829 87.8999 116.122 88.4703 118.503 88.9029C123.083 89.7361 130.384 89.7425 134.946 88.9157C137.411 88.4703 138.677 87.8711 138.79 87.2687H138.847V76.4056L138.79 76.4088C138.677 77.0113 137.402 77.6073 134.946 78.0527C130.384 78.8795 123.093 78.8763 118.503 78.0399C116.122 77.6073 114.829 77.0369 114.63 76.4537C114.507 76.0852 112.193 75.9218 110.862 76.1813L96.8359 78.9275V89.7906Z" fill="url(#paint56_linear_528_46759)"/>
<path d="M96.8359 89.7906L110.862 87.0444C112.184 86.7848 114.498 86.9482 114.63 87.3167C114.829 87.8999 116.122 88.4703 118.503 88.9029C123.083 89.7361 130.384 89.7425 134.946 88.9157C137.411 88.4703 138.677 87.8711 138.79 87.2687H138.847V76.4056L138.79 76.4088C138.677 77.0113 137.402 77.6073 134.946 78.0527C130.384 78.8795 123.093 78.8763 118.503 78.0399C116.122 77.6073 114.829 77.0369 114.63 76.4537C114.507 76.0852 112.193 75.9218 110.862 76.1813L96.8359 78.9275V89.7906Z" fill="url(#paint57_linear_528_46759)"/>
</g>
<path d="M73.9312 71.5802C79.022 70.5837 87.4091 70.6221 92.311 71.6956C96.2684 72.5608 96.3534 74.1053 92.4054 74.9801C90.1953 75.4704 87.2391 75.7428 84.1978 75.8005C82.7244 75.8293 82.0538 76.169 83.1022 76.3741L96.8351 78.928L110.861 76.1818C112.183 75.9222 114.497 76.0857 114.629 76.4542C114.828 77.0374 116.122 77.6078 118.502 78.0404C123.083 78.8735 130.383 78.8799 134.945 78.0532C139.998 77.1367 140.083 75.589 135.229 74.6373C133.056 74.2111 130.28 73.9804 127.456 73.9451C125.585 73.9195 124.764 73.4612 126.095 73.2017L139.97 70.5003L101.388 63.1366C98.5824 62.5886 95.1256 62.5886 92.3204 63.1366L53.7285 70.6766L67.3953 73.2978C68.4342 73.5029 70.1816 73.3747 70.3138 73.0863C70.5877 72.5384 71.7872 72 73.9312 71.5802Z" fill="url(#paint58_linear_528_46759)"/>
<path d="M73.9312 71.5802C79.022 70.5837 87.4091 70.6221 92.311 71.6956C96.2684 72.5608 96.3534 74.1053 92.4054 74.9801C90.1953 75.4704 87.2391 75.7428 84.1978 75.8005C82.7244 75.8293 82.0538 76.169 83.1022 76.3741L96.8351 78.928L110.861 76.1818C112.183 75.9222 114.497 76.0857 114.629 76.4542C114.828 77.0374 116.122 77.6078 118.502 78.0404C123.083 78.8735 130.383 78.8799 134.945 78.0532C139.998 77.1367 140.083 75.589 135.229 74.6373C133.056 74.2111 130.28 73.9804 127.456 73.9451C125.585 73.9195 124.764 73.4612 126.095 73.2017L139.97 70.5003L101.388 63.1366C98.5824 62.5886 95.1256 62.5886 92.3204 63.1366L53.7285 70.6766L67.3953 73.2978C68.4342 73.5029 70.1816 73.3747 70.3138 73.0863C70.5877 72.5384 71.7872 72 73.9312 71.5802Z" fill="url(#paint59_linear_528_46759)"/>
<path d="M73.9312 71.5802C79.022 70.5837 87.4091 70.6221 92.311 71.6956C96.2684 72.5608 96.3534 74.1053 92.4054 74.9801C90.1953 75.4704 87.2391 75.7428 84.1978 75.8005C82.7244 75.8293 82.0538 76.169 83.1022 76.3741L96.8351 78.928L110.861 76.1818C112.183 75.9222 114.497 76.0857 114.629 76.4542C114.828 77.0374 116.122 77.6078 118.502 78.0404C123.083 78.8735 130.383 78.8799 134.945 78.0532C139.998 77.1367 140.083 75.589 135.229 74.6373C133.056 74.2111 130.28 73.9804 127.456 73.9451C125.585 73.9195 124.764 73.4612 126.095 73.2017L139.97 70.5003L101.388 63.1366C98.5824 62.5886 95.1256 62.5886 92.3204 63.1366L53.7285 70.6766L67.3953 73.2978C68.4342 73.5029 70.1816 73.3747 70.3138 73.0863C70.5877 72.5384 71.7872 72 73.9312 71.5802Z" fill="url(#paint60_linear_528_46759)"/>
<path d="M82.9462 76.0406C81.9072 76.2457 80.1599 76.1111 80.0088 75.8227C79.6971 75.2267 78.2804 74.6467 75.768 74.2077C71.225 73.4194 63.7069 73.4066 59.145 74.182C55.5181 74.7973 54.177 75.7138 55.0931 76.5597C54.687 76.9346 54.7248 85.9263 55.2065 86.298C55.8109 85.8301 57.1238 85.3911 59.1544 85.0483C63.7163 84.2728 71.225 84.2856 75.7775 85.0739C78.2993 85.5097 79.7066 86.0897 80.0183 86.6889C80.1694 86.9773 81.9072 87.1119 82.9556 86.9068L97.6236 83.9812V74.3455V74.1532V73.1182L82.9462 76.0406Z" fill="url(#paint61_linear_528_46759)"/>
<path d="M82.9462 76.0406C81.9072 76.2457 80.1599 76.1111 80.0088 75.8227C79.6971 75.2267 78.2804 74.6467 75.768 74.2077C71.225 73.4194 63.7069 73.4066 59.145 74.182C55.5181 74.7973 54.177 75.7138 55.0931 76.5597C54.687 76.9346 54.7248 85.9263 55.2065 86.298C55.8109 85.8301 57.1238 85.3911 59.1544 85.0483C63.7163 84.2728 71.225 84.2856 75.7775 85.0739C78.2993 85.5097 79.7066 86.0897 80.0183 86.6889C80.1694 86.9773 81.9072 87.1119 82.9556 86.9068L97.6236 83.9812V74.3455V74.1532V73.1182L82.9462 76.0406Z" fill="url(#paint62_linear_528_46759)"/>
<path d="M82.9462 76.0406C81.9072 76.2457 80.1599 76.1111 80.0088 75.8227C79.6971 75.2267 78.2804 74.6467 75.768 74.2077C71.225 73.4194 63.7069 73.4066 59.145 74.182C55.5181 74.7973 54.177 75.7138 55.0931 76.5597C54.687 76.9346 54.7248 85.9263 55.2065 86.298C55.8109 85.8301 57.1238 85.3911 59.1544 85.0483C63.7163 84.2728 71.225 84.2856 75.7775 85.0739C78.2993 85.5097 79.7066 86.0897 80.0183 86.6889C80.1694 86.9773 81.9072 87.1119 82.9556 86.9068L97.6236 83.9812V74.3455V74.1532V73.1182L82.9462 76.0406Z" fill="url(#paint63_linear_528_46759)"/>
<path d="M80.0088 75.8228C79.6971 75.2267 78.2804 74.6467 75.768 74.2077C71.225 73.4194 63.7069 73.4066 59.145 74.1821C55.5181 74.7973 54.177 75.7138 55.0931 76.5598C54.687 76.9347 54.7248 85.9263 55.2065 86.298C55.8109 85.8302 57.1238 85.3912 59.1544 85.0483C63.7163 84.2728 71.225 84.2857 75.7775 85.0739C78.2993 85.5097 79.7066 86.0898 80.0183 86.689V75.8228H80.0088Z" fill="url(#paint64_linear_528_46759)"/>
<path d="M80.0088 75.8228C79.6971 75.2267 78.2804 74.6467 75.768 74.2077C71.225 73.4194 63.7069 73.4066 59.145 74.1821C55.5181 74.7973 54.177 75.7138 55.0931 76.5598C54.687 76.9347 54.7248 85.9263 55.2065 86.298C55.8109 85.8302 57.1238 85.3912 59.1544 85.0483C63.7163 84.2728 71.225 84.2857 75.7775 85.0739C78.2993 85.5097 79.7066 86.0898 80.0183 86.689V75.8228H80.0088Z" fill="url(#paint65_linear_528_46759)"/>
<path d="M80.0088 75.8228C79.6971 75.2267 78.2804 74.6467 75.768 74.2077C71.225 73.4194 63.7069 73.4066 59.145 74.1821C55.5181 74.7973 54.177 75.7138 55.0931 76.5598C54.687 76.9347 54.7248 85.9263 55.2065 86.298C55.8109 85.8302 57.1238 85.3912 59.1544 85.0483C63.7163 84.2728 71.225 84.2857 75.7775 85.0739C78.2993 85.5097 79.7066 86.0898 80.0183 86.689V75.8228H80.0088Z" fill="url(#paint66_linear_528_46759)"/>
<path d="M54.0742 92.585L67.3443 89.9637C67.7505 89.8836 67.8827 89.7843 67.826 89.6914V78.8828C67.8071 78.9597 67.6655 79.0366 67.3443 79.1007L54.0837 81.7219H54.0742V81.7251V92.585Z" fill="url(#paint67_linear_528_46759)"/>
<path d="M54.0742 92.585L67.3443 89.9637C67.7505 89.8836 67.8827 89.7843 67.826 89.6914V78.8828C67.8071 78.9597 67.6655 79.0366 67.3443 79.1007L54.0837 81.7219H54.0742V81.7251V92.585Z" fill="url(#paint68_linear_528_46759)"/>
<path d="M54.0742 92.585L67.3443 89.9637C67.7505 89.8836 67.8827 89.7843 67.826 89.6914V78.8828C67.8071 78.9597 67.6655 79.0366 67.3443 79.1007L54.0837 81.7219H54.0742V81.7251V92.585Z" fill="url(#paint69_linear_528_46759)"/>
<path d="M54.0741 81.7183V92.5845L10.127 84.0896V73.2266L54.0741 81.7183Z" fill="url(#paint70_linear_528_46759)"/>
<path d="M54.0741 81.7183V92.5845L10.127 84.0896V73.2266L54.0741 81.7183Z" fill="url(#paint71_linear_528_46759)"/>
<path d="M54.0741 81.7183V92.5845L10.127 84.0896V73.2266L54.0741 81.7183Z" fill="url(#paint72_linear_528_46759)"/>
<path d="M95.1046 73.3498V67.0898L80.5675 68.9868L79.4492 70.125L95.1046 73.3498Z" fill="#D9D9D9"/>
<path d="M95.1046 73.3498V67.0898L80.5675 68.9868L79.4492 70.125L95.1046 73.3498Z" fill="url(#paint73_linear_528_46759)"/>
<path d="M95.1046 73.3498V67.0898L80.5675 68.9868L79.4492 70.125L95.1046 73.3498Z" fill="url(#paint74_linear_528_46759)"/>
<path d="M54.0738 81.7219L67.3439 79.1007C68.3829 78.8988 67.7123 78.5559 66.2483 78.5271C63.4337 78.4726 60.6947 78.2323 58.5318 77.8093C53.3655 76.7967 53.5638 75.1336 59.1457 74.1851C63.7076 73.4096 71.2164 73.4224 75.7688 74.2107C78.2906 74.6465 79.6979 75.2265 80.0096 75.8257C80.1607 76.1141 81.8985 76.2487 82.9469 76.0436L97.6149 73.118L82.4747 70.2244C81.143 69.9616 81.9647 69.5098 83.8442 69.4874C86.8099 69.4521 89.7189 69.2022 91.9196 68.7375C96.1509 67.8435 96.132 66.4175 91.8818 65.5171C87.1688 64.5237 79.254 64.4981 74.4371 65.4402C72.2836 65.8632 71.1219 66.4047 70.9424 66.9591C70.8291 67.3244 68.4868 67.4814 67.155 67.2218L53.6582 64.623H53.6488L10.1266 73.2269H10.1172L54.0738 81.7219Z" fill="url(#paint75_linear_528_46759)"/>
<path d="M54.0738 81.7219L67.3439 79.1007C68.3829 78.8988 67.7123 78.5559 66.2483 78.5271C63.4337 78.4726 60.6947 78.2323 58.5318 77.8093C53.3655 76.7967 53.5638 75.1336 59.1457 74.1851C63.7076 73.4096 71.2164 73.4224 75.7688 74.2107C78.2906 74.6465 79.6979 75.2265 80.0096 75.8257C80.1607 76.1141 81.8985 76.2487 82.9469 76.0436L97.6149 73.118L82.4747 70.2244C81.143 69.9616 81.9647 69.5098 83.8442 69.4874C86.8099 69.4521 89.7189 69.2022 91.9196 68.7375C96.1509 67.8435 96.132 66.4175 91.8818 65.5171C87.1688 64.5237 79.254 64.4981 74.4371 65.4402C72.2836 65.8632 71.1219 66.4047 70.9424 66.9591C70.8291 67.3244 68.4868 67.4814 67.155 67.2218L53.6582 64.623H53.6488L10.1266 73.2269H10.1172L54.0738 81.7219Z" fill="url(#paint76_linear_528_46759)"/>
<path d="M54.0738 81.7219L67.3439 79.1007C68.3829 78.8988 67.7123 78.5559 66.2483 78.5271C63.4337 78.4726 60.6947 78.2323 58.5318 77.8093C53.3655 76.7967 53.5638 75.1336 59.1457 74.1851C63.7076 73.4096 71.2164 73.4224 75.7688 74.2107C78.2906 74.6465 79.6979 75.2265 80.0096 75.8257C80.1607 76.1141 81.8985 76.2487 82.9469 76.0436L97.6149 73.118L82.4747 70.2244C81.143 69.9616 81.9647 69.5098 83.8442 69.4874C86.8099 69.4521 89.7189 69.2022 91.9196 68.7375C96.1509 67.8435 96.132 66.4175 91.8818 65.5171C87.1688 64.5237 79.254 64.4981 74.4371 65.4402C72.2836 65.8632 71.1219 66.4047 70.9424 66.9591C70.8291 67.3244 68.4868 67.4814 67.155 67.2218L53.6582 64.623H53.6488L10.1266 73.2269H10.1172L54.0738 81.7219Z" fill="url(#paint77_linear_528_46759)"/>
</g>
<defs>
<filter id="filter0_f_528_46759" x="0.117188" y="52.7256" width="149.881" height="49.8594" filterUnits="userSpaceOnUse" color-interpolation-filters="sRGB">
<feFlood flood-opacity="0" result="BackgroundImageFix"/>
<feBlend mode="normal" in="SourceGraphic" in2="BackgroundImageFix" result="shape"/>
<feGaussianBlur stdDeviation="5" result="effect1_foregroundBlur_528_46759"/>
</filter>
<linearGradient id="paint0_linear_528_46759" x1="121.955" y1="39.2039" x2="149.747" y2="39.2039" gradientUnits="userSpaceOnUse">
<stop offset="0.0354" stop-color="#138BBD"/>
<stop offset="0.2257" stop-color="#169AC7"/>
<stop offset="0.5946" stop-color="#1FC3DF"/>
<stop offset="1" stop-color="#2AF6FF"/>
</linearGradient>
<linearGradient id="paint1_linear_528_46759" x1="124.123" y1="21.2793" x2="124.123" y2="57.1499" gradientUnits="userSpaceOnUse">
<stop stop-color="#D4F2E4"/>
<stop offset="1" stop-color="#A8DFF9"/>
</linearGradient>
<linearGradient id="paint2_linear_528_46759" x1="124.123" y1="21.2793" x2="124.123" y2="57.1499" gradientUnits="userSpaceOnUse">
<stop stop-color="#D4F2E4"/>
<stop offset="1" stop-color="#71D5A4"/>
</linearGradient>
<linearGradient id="paint3_linear_528_46759" x1="122.791" y1="56.7628" x2="106.481" y2="14.8868" gradientUnits="userSpaceOnUse">
<stop stop-color="#D4F2E4"/>
<stop offset="1" stop-color="#71D5A4"/>
</linearGradient>
<linearGradient id="paint4_linear_528_46759" x1="122.976" y1="59.7866" x2="120.262" y2="21.3126" gradientUnits="userSpaceOnUse">
<stop stop-color="#E0F1E9"/>
<stop offset="1" stop-color="#EFFDF7"/>
</linearGradient>
<linearGradient id="paint5_linear_528_46759" x1="128.094" y1="21.4588" x2="134.422" y2="20.2276" gradientUnits="userSpaceOnUse">
<stop stop-color="#245795"/>
<stop offset="1" stop-color="#8AD3A8"/>
</linearGradient>
<linearGradient id="paint6_linear_528_46759" x1="22.1701" y1="-2.0359" x2="105.664" y2="69.7684" gradientUnits="userSpaceOnUse">
<stop offset="0.0354" stop-color="#138BBD"/>
<stop offset="0.2257" stop-color="#169AC7"/>
<stop offset="0.5946" stop-color="#1FC3DF"/>
<stop offset="1" stop-color="#2AF6FF"/>
</linearGradient>
<linearGradient id="paint7_linear_528_46759" x1="70.09" y1="21.7617" x2="70.09" y2="58.942" gradientUnits="userSpaceOnUse">
<stop stop-color="#D4F2E4"/>
<stop offset="1" stop-color="#A8DFF9"/>
</linearGradient>
<linearGradient id="paint8_linear_528_46759" x1="70.09" y1="21.7617" x2="70.09" y2="58.942" gradientUnits="userSpaceOnUse">
<stop stop-color="#D4F2E4"/>
<stop offset="1" stop-color="#71D5A4"/>
</linearGradient>
<linearGradient id="paint9_linear_528_46759" x1="28.0457" y1="7.23813" x2="111.539" y2="79.0423" gradientUnits="userSpaceOnUse">
<stop offset="0.0354" stop-color="#138BBD"/>
<stop offset="0.2257" stop-color="#169AC7"/>
<stop offset="0.5946" stop-color="#1FC3DF"/>
<stop offset="1" stop-color="#2AF6FF"/>
</linearGradient>
<linearGradient id="paint10_linear_528_46759" x1="84.1984" y1="37.0215" x2="84.1984" y2="74.076" gradientUnits="userSpaceOnUse">
<stop stop-color="#D4F2E4"/>
<stop offset="1" stop-color="#A8DFF9"/>
</linearGradient>
<linearGradient id="paint11_linear_528_46759" x1="84.1984" y1="37.0215" x2="84.1984" y2="74.076" gradientUnits="userSpaceOnUse">
<stop stop-color="#D4F2E4"/>
<stop offset="1" stop-color="#71D5A4"/>
</linearGradient>
<linearGradient id="paint12_linear_528_46759" x1="83.0775" y1="76.7998" x2="80.1155" y2="37.0791" gradientUnits="userSpaceOnUse">
<stop stop-color="#E0F1E9"/>
<stop offset="1" stop-color="#EFFDF7"/>
</linearGradient>
<linearGradient id="paint13_linear_528_46759" x1="85.0416" y1="38.7908" x2="99.9445" y2="42.1949" gradientUnits="userSpaceOnUse">
<stop stop-color="#245795"/>
<stop offset="1" stop-color="#8AD3A8"/>
</linearGradient>
<linearGradient id="paint14_linear_528_46759" x1="93.3169" y1="55.2795" x2="132.316" y2="55.2795" gradientUnits="userSpaceOnUse">
<stop offset="0.0101" stop-color="#138BBD"/>
<stop offset="0.0975" stop-color="#148FC0"/>
<stop offset="0.1927" stop-color="#179DC8"/>
<stop offset="0.2828" stop-color="#1BB0D4"/>
<stop offset="0.3151" stop-color="#1CB3D6"/>
<stop offset="0.3435" stop-color="#1EBEDD"/>
<stop offset="0.3535" stop-color="#1FC4E1"/>
<stop offset="0.6313" stop-color="#2AF6FF"/>
<stop offset="0.8737" stop-color="#1BB0D4"/>
</linearGradient>
<linearGradient id="paint15_linear_528_46759" x1="110.314" y1="36.4824" x2="110.314" y2="74.0765" gradientUnits="userSpaceOnUse">
<stop stop-color="#D4F2E4"/>
<stop offset="1" stop-color="#A8DFF9"/>
</linearGradient>
<linearGradient id="paint16_linear_528_46759" x1="110.314" y1="36.4824" x2="110.314" y2="74.0765" gradientUnits="userSpaceOnUse">
<stop stop-color="#D4F2E4"/>
<stop offset="1" stop-color="#71D5A4"/>
</linearGradient>
<linearGradient id="paint17_linear_528_46759" x1="106.472" y1="73.6709" x2="99.456" y2="24.1187" gradientUnits="userSpaceOnUse">
<stop stop-color="#D4F2E4"/>
<stop offset="1" stop-color="#71D5A4"/>
</linearGradient>
<linearGradient id="paint18_linear_528_46759" x1="107.006" y1="76.8399" x2="105.968" y2="36.3434" gradientUnits="userSpaceOnUse">
<stop stop-color="#E0F1E9"/>
<stop offset="1" stop-color="#EFFDF7"/>
</linearGradient>
<linearGradient id="paint19_linear_528_46759" x1="106.288" y1="21.4586" x2="153.633" y2="82.7068" gradientUnits="userSpaceOnUse">
<stop stop-color="#245795"/>
<stop offset="0.827877" stop-color="#8AD3A8"/>
</linearGradient>
<linearGradient id="paint20_linear_528_46759" x1="125.247" y1="-50.5807" x2="86.4226" y2="38.7572" gradientUnits="userSpaceOnUse">
<stop offset="0.0354" stop-color="#138BBD"/>
<stop offset="0.2257" stop-color="#169AC7"/>
<stop offset="0.5946" stop-color="#1FC3DF"/>
<stop offset="1" stop-color="#2AF6FF"/>
</linearGradient>
<linearGradient id="paint21_linear_528_46759" x1="90.8221" y1="0" x2="90.8221" y2="44.3449" gradientUnits="userSpaceOnUse">
<stop stop-color="#F0FEF8"/>
<stop offset="1" stop-color="#E0F1E9"/>
</linearGradient>
<linearGradient id="paint22_linear_528_46759" x1="66.0315" y1="-37.8086" x2="151.535" y2="24.7881" gradientUnits="userSpaceOnUse">
<stop stop-color="#245795"/>
<stop offset="1" stop-color="#8AD3A8"/>
</linearGradient>
<linearGradient id="paint23_linear_528_46759" x1="50.7554" y1="49.7711" x2="157.627" y2="39.7519" gradientUnits="userSpaceOnUse">
<stop offset="0.0354" stop-color="#9F19AB"/>
<stop offset="0.2438" stop-color="#AE25B1"/>
<stop offset="0.6455" stop-color="#D744BF"/>
<stop offset="1" stop-color="#FF63CE"/>
</linearGradient>
<linearGradient id="paint24_linear_528_46759" x1="50.5059" y1="47.561" x2="90.2573" y2="47.561" gradientUnits="userSpaceOnUse">
<stop stop-color="#245795"/>
<stop offset="1" stop-color="#8AD3A8"/>
</linearGradient>
<linearGradient id="paint25_linear_528_46759" x1="66.4671" y1="66.0402" x2="59.4267" y2="15.9259" gradientUnits="userSpaceOnUse">
<stop stop-color="#D4F2E4"/>
<stop offset="1" stop-color="#71D5A4"/>
</linearGradient>
<linearGradient id="paint26_linear_528_46759" x1="50.5019" y1="47.6851" x2="89.889" y2="47.6851" gradientUnits="userSpaceOnUse">
<stop offset="0.0354" stop-color="#9F19AB"/>
<stop offset="0.2438" stop-color="#AE25B1"/>
<stop offset="0.6455" stop-color="#D744BF"/>
<stop offset="1" stop-color="#FF63CE"/>
</linearGradient>
<linearGradient id="paint27_linear_528_46759" x1="50.5059" y1="47.792" x2="73.9095" y2="47.792" gradientUnits="userSpaceOnUse">
<stop stop-color="#245795"/>
<stop offset="1" stop-color="#8AD3A8"/>
</linearGradient>
<linearGradient id="paint28_linear_528_46759" x1="59.903" y1="65.1976" x2="49.6048" y2="19.3778" gradientUnits="userSpaceOnUse">
<stop stop-color="#D4F2E4"/>
<stop offset="1" stop-color="#71D5A4"/>
</linearGradient>
<linearGradient id="paint29_linear_528_46759" x1="52.0285" y1="63.3604" x2="158.9" y2="53.3412" gradientUnits="userSpaceOnUse">
<stop offset="0.0354" stop-color="#9F19AB"/>
<stop offset="0.2438" stop-color="#AE25B1"/>
<stop offset="0.6455" stop-color="#D744BF"/>
<stop offset="1" stop-color="#FF63CE"/>
</linearGradient>
<linearGradient id="paint30_linear_528_46759" x1="49.8164" y1="63.0833" x2="62.5976" y2="63.0833" gradientUnits="userSpaceOnUse">
<stop stop-color="#245795"/>
<stop offset="1" stop-color="#8AD3A8"/>
</linearGradient>
<linearGradient id="paint31_linear_528_46759" x1="54.9484" y1="81.316" x2="36.618" y2="38.7966" gradientUnits="userSpaceOnUse">
<stop stop-color="#D4F2E4"/>
<stop offset="1" stop-color="#71D5A4"/>
</linearGradient>
<linearGradient id="paint32_linear_528_46759" x1="-24.4762" y1="7.69456" x2="64.0267" y2="85.7607" gradientUnits="userSpaceOnUse">
<stop offset="0.0354" stop-color="#9F19AB"/>
<stop offset="0.2438" stop-color="#AE25B1"/>
<stop offset="0.6455" stop-color="#D744BF"/>
<stop offset="1" stop-color="#FF63CE"/>
</linearGradient>
<linearGradient id="paint33_linear_528_46759" x1="9.00781" y1="55.3915" x2="49.8161" y2="55.3915" gradientUnits="userSpaceOnUse">
<stop stop-color="#245795"/>
<stop offset="1" stop-color="#8AD3A8"/>
</linearGradient>
<linearGradient id="paint34_linear_528_46759" x1="25.3934" y1="81.15" x2="12.2822" y2="12.4169" gradientUnits="userSpaceOnUse">
<stop stop-color="#D4F2E4"/>
<stop offset="1" stop-color="#71D5A4"/>
</linearGradient>
<linearGradient id="paint35_linear_528_46759" x1="79.415" y1="30.334" x2="78.8364" y2="11.884" gradientUnits="userSpaceOnUse">
<stop stop-color="#E0F1E9"/>
<stop offset="1" stop-color="#EFFDF7"/>
</linearGradient>
<linearGradient id="paint36_linear_528_46759" x1="95.1847" y1="25.9594" x2="73.2439" y2="23.5595" gradientUnits="userSpaceOnUse">
<stop stop-color="#D4F2E4"/>
<stop offset="1" stop-color="#71D5A4"/>
</linearGradient>
<linearGradient id="paint37_linear_528_46759" x1="65.7789" y1="-60.4504" x2="46.993" y2="43.0812" gradientUnits="userSpaceOnUse">
<stop offset="0.0354" stop-color="#9F19AB"/>
<stop offset="0.2438" stop-color="#AE25B1"/>
<stop offset="0.6455" stop-color="#D744BF"/>
<stop offset="1" stop-color="#FF63CE"/>
</linearGradient>
<linearGradient id="paint38_linear_528_46759" x1="9" y1="28.7324" x2="90.2481" y2="28.7324" gradientUnits="userSpaceOnUse">
<stop stop-color="#245795"/>
<stop offset="1" stop-color="#8AD3A8"/>
</linearGradient>
<linearGradient id="paint39_linear_528_46759" x1="41.6232" y1="51.4848" x2="36.3362" y2="-10.9886" gradientUnits="userSpaceOnUse">
<stop stop-color="#D4F2E4"/>
<stop offset="1" stop-color="#71D5A4"/>
</linearGradient>
<linearGradient id="paint40_linear_528_46759" x1="130.377" y1="77.0492" x2="160.307" y2="77.0492" gradientUnits="userSpaceOnUse">
<stop offset="0.0354" stop-color="#138BBD"/>
<stop offset="0.2257" stop-color="#169AC7"/>
<stop offset="0.5946" stop-color="#1FC3DF"/>
<stop offset="1" stop-color="#2AF6FF"/>
</linearGradient>
<linearGradient id="paint41_linear_528_46759" x1="132.712" y1="70.5" x2="132.712" y2="83.6061" gradientUnits="userSpaceOnUse">
<stop stop-color="#D4F2E4"/>
<stop offset="1" stop-color="#A8DFF9"/>
</linearGradient>
<linearGradient id="paint42_linear_528_46759" x1="132.712" y1="70.5" x2="132.712" y2="83.6061" gradientUnits="userSpaceOnUse">
<stop stop-color="#D4F2E4"/>
<stop offset="1" stop-color="#71D5A4"/>
</linearGradient>
<linearGradient id="paint43_linear_528_46759" x1="131.277" y1="83.4647" x2="128.989" y2="66.1458" gradientUnits="userSpaceOnUse">
<stop stop-color="#D4F2E4"/>
<stop offset="1" stop-color="#71D5A4"/>
</linearGradient>
<linearGradient id="paint44_linear_528_46759" x1="131.477" y1="84.5695" x2="131.139" y2="70.4503" gradientUnits="userSpaceOnUse">
<stop stop-color="#E0F1E9"/>
<stop offset="1" stop-color="#EFFDF7"/>
</linearGradient>
<linearGradient id="paint45_linear_528_46759" x1="22.9167" y1="61.9818" x2="43.9823" y2="115.379" gradientUnits="userSpaceOnUse">
<stop offset="0.0354" stop-color="#138BBD"/>
<stop offset="0.2257" stop-color="#169AC7"/>
<stop offset="0.5946" stop-color="#1FC3DF"/>
<stop offset="1" stop-color="#2AF6FF"/>
</linearGradient>
<linearGradient id="paint46_linear_528_46759" x1="74.5225" y1="70.6768" x2="74.5225" y2="84.2614" gradientUnits="userSpaceOnUse">
<stop stop-color="#D4F2E4"/>
<stop offset="1" stop-color="#A8DFF9"/>
</linearGradient>
<linearGradient id="paint47_linear_528_46759" x1="74.5225" y1="70.6768" x2="74.5225" y2="84.2614" gradientUnits="userSpaceOnUse">
<stop stop-color="#D4F2E4"/>
<stop offset="1" stop-color="#71D5A4"/>
</linearGradient>
<linearGradient id="paint48_linear_528_46759" x1="29.2447" y1="65.3699" x2="50.3103" y2="118.767" gradientUnits="userSpaceOnUse">
<stop offset="0.0354" stop-color="#138BBD"/>
<stop offset="0.2257" stop-color="#169AC7"/>
<stop offset="0.5946" stop-color="#1FC3DF"/>
<stop offset="1" stop-color="#2AF6FF"/>
</linearGradient>
<linearGradient id="paint49_linear_528_46759" x1="89.7167" y1="76.252" x2="89.7167" y2="89.7907" gradientUnits="userSpaceOnUse">
<stop stop-color="#D4F2E4"/>
<stop offset="1" stop-color="#A8DFF9"/>
</linearGradient>
<linearGradient id="paint50_linear_528_46759" x1="89.7167" y1="76.252" x2="89.7167" y2="89.7907" gradientUnits="userSpaceOnUse">
<stop stop-color="#D4F2E4"/>
<stop offset="1" stop-color="#71D5A4"/>
</linearGradient>
<linearGradient id="paint51_linear_528_46759" x1="88.5095" y1="90.7859" x2="88.1405" y2="76.2016" gradientUnits="userSpaceOnUse">
<stop stop-color="#E0F1E9"/>
<stop offset="1" stop-color="#EFFDF7"/>
</linearGradient>
<linearGradient id="paint52_linear_528_46759" x1="99.5372" y1="82.9226" x2="141.536" y2="82.9226" gradientUnits="userSpaceOnUse">
<stop offset="0.0101" stop-color="#138BBD"/>
<stop offset="0.0975" stop-color="#148FC0"/>
<stop offset="0.1927" stop-color="#179DC8"/>
<stop offset="0.2828" stop-color="#1BB0D4"/>
<stop offset="0.3151" stop-color="#1CB3D6"/>
<stop offset="0.3435" stop-color="#1EBEDD"/>
<stop offset="0.3535" stop-color="#1FC4E1"/>
<stop offset="0.6313" stop-color="#2AF6FF"/>
<stop offset="0.8737" stop-color="#1BB0D4"/>
</linearGradient>
<linearGradient id="paint53_linear_528_46759" x1="117.841" y1="76.0547" x2="117.841" y2="89.7906" gradientUnits="userSpaceOnUse">
<stop stop-color="#D4F2E4"/>
<stop offset="1" stop-color="#A8DFF9"/>
</linearGradient>
<linearGradient id="paint54_linear_528_46759" x1="117.841" y1="76.0547" x2="117.841" y2="89.7906" gradientUnits="userSpaceOnUse">
<stop stop-color="#D4F2E4"/>
<stop offset="1" stop-color="#71D5A4"/>
</linearGradient>
<linearGradient id="paint55_linear_528_46759" x1="113.704" y1="89.6423" x2="112.819" y2="71.2168" gradientUnits="userSpaceOnUse">
<stop stop-color="#D4F2E4"/>
<stop offset="1" stop-color="#71D5A4"/>
</linearGradient>
<linearGradient id="paint56_linear_528_46759" x1="114.28" y1="90.8002" x2="114.151" y2="75.9953" gradientUnits="userSpaceOnUse">
<stop stop-color="#E0F1E9"/>
<stop offset="1" stop-color="#EFFDF7"/>
</linearGradient>
<linearGradient id="paint57_linear_528_46759" x1="138.572" y1="89.5477" x2="103.158" y2="63.4026" gradientUnits="userSpaceOnUse">
<stop stop-color="#245795"/>
<stop offset="1" stop-color="#8AD3A8"/>
</linearGradient>
<linearGradient id="paint58_linear_528_46759" x1="133.922" y1="44.2448" x2="128.322" y2="82.2254" gradientUnits="userSpaceOnUse">
<stop offset="0.0354" stop-color="#138BBD"/>
<stop offset="0.2257" stop-color="#169AC7"/>
<stop offset="0.5946" stop-color="#1FC3DF"/>
<stop offset="1" stop-color="#2AF6FF"/>
</linearGradient>
<linearGradient id="paint59_linear_528_46759" x1="96.8493" y1="62.7256" x2="96.8493" y2="78.928" gradientUnits="userSpaceOnUse">
<stop stop-color="#F0FEF8"/>
<stop offset="1" stop-color="#E0F1E9"/>
</linearGradient>
<linearGradient id="paint60_linear_528_46759" x1="139.406" y1="78.6415" x2="97.0316" y2="24.1982" gradientUnits="userSpaceOnUse">
<stop stop-color="#245795"/>
<stop offset="1" stop-color="#8AD3A8"/>
</linearGradient>
<linearGradient id="paint61_linear_528_46759" x1="55.0832" y1="80.9114" x2="162.95" y2="51.1051" gradientUnits="userSpaceOnUse">
<stop offset="0.0354" stop-color="#9F19AB"/>
<stop offset="0.2438" stop-color="#AE25B1"/>
<stop offset="0.6455" stop-color="#D744BF"/>
<stop offset="1" stop-color="#FF63CE"/>
</linearGradient>
<linearGradient id="paint62_linear_528_46759" x1="54.8145" y1="80.104" x2="97.6236" y2="80.104" gradientUnits="userSpaceOnUse">
<stop stop-color="#245795"/>
<stop offset="1" stop-color="#8AD3A8"/>
</linearGradient>
<linearGradient id="paint63_linear_528_46759" x1="72.0034" y1="86.8557" x2="71.1155" y2="68.2263" gradientUnits="userSpaceOnUse">
<stop stop-color="#D4F2E4"/>
<stop offset="1" stop-color="#71D5A4"/>
</linearGradient>
<linearGradient id="paint64_linear_528_46759" x1="54.8102" y1="80.1492" x2="97.2269" y2="80.1492" gradientUnits="userSpaceOnUse">
<stop offset="0.0354" stop-color="#9F19AB"/>
<stop offset="0.2438" stop-color="#AE25B1"/>
<stop offset="0.6455" stop-color="#D744BF"/>
<stop offset="1" stop-color="#FF63CE"/>
</linearGradient>
<linearGradient id="paint65_linear_528_46759" x1="54.8145" y1="80.1883" x2="80.0183" y2="80.1883" gradientUnits="userSpaceOnUse">
<stop stop-color="#245795"/>
<stop offset="1" stop-color="#8AD3A8"/>
</linearGradient>
<linearGradient id="paint66_linear_528_46759" x1="64.9344" y1="86.5478" x2="63.6011" y2="69.0625" gradientUnits="userSpaceOnUse">
<stop stop-color="#D4F2E4"/>
<stop offset="1" stop-color="#71D5A4"/>
</linearGradient>
<linearGradient id="paint67_linear_528_46759" x1="56.4564" y1="85.8766" x2="164.324" y2="56.0704" gradientUnits="userSpaceOnUse">
<stop offset="0.0354" stop-color="#9F19AB"/>
<stop offset="0.2438" stop-color="#AE25B1"/>
<stop offset="0.6455" stop-color="#D744BF"/>
<stop offset="1" stop-color="#FF63CE"/>
</linearGradient>
<linearGradient id="paint68_linear_528_46759" x1="54.0742" y1="85.7754" x2="67.8385" y2="85.7754" gradientUnits="userSpaceOnUse">
<stop stop-color="#245795"/>
<stop offset="1" stop-color="#8AD3A8"/>
</linearGradient>
<linearGradient id="paint69_linear_528_46759" x1="59.6009" y1="92.4371" x2="56.9628" y2="74.4003" gradientUnits="userSpaceOnUse">
<stop stop-color="#D4F2E4"/>
<stop offset="1" stop-color="#71D5A4"/>
</linearGradient>
<linearGradient id="paint70_linear_528_46759" x1="-25.9326" y1="65.537" x2="-4.09219" y2="122.319" gradientUnits="userSpaceOnUse">
<stop offset="0.0354" stop-color="#9F19AB"/>
<stop offset="0.2438" stop-color="#AE25B1"/>
<stop offset="0.6455" stop-color="#D744BF"/>
<stop offset="1" stop-color="#FF63CE"/>
</linearGradient>
<linearGradient id="paint71_linear_528_46759" x1="10.127" y1="82.9642" x2="54.0741" y2="82.9642" gradientUnits="userSpaceOnUse">
<stop stop-color="#245795"/>
<stop offset="1" stop-color="#8AD3A8"/>
</linearGradient>
<linearGradient id="paint72_linear_528_46759" x1="27.7729" y1="92.3757" x2="26.0955" y2="66.4572" gradientUnits="userSpaceOnUse">
<stop stop-color="#D4F2E4"/>
<stop offset="1" stop-color="#71D5A4"/>
</linearGradient>
<linearGradient id="paint73_linear_528_46759" x1="85.9496" y1="73.81" x2="85.8778" y2="67.063" gradientUnits="userSpaceOnUse">
<stop stop-color="#E0F1E9"/>
<stop offset="1" stop-color="#EFFDF7"/>
</linearGradient>
<linearGradient id="paint74_linear_528_46759" x1="102.932" y1="72.2117" x2="81.2725" y2="65.2285" gradientUnits="userSpaceOnUse">
<stop stop-color="#D4F2E4"/>
<stop offset="1" stop-color="#71D5A4"/>
</linearGradient>
<linearGradient id="paint75_linear_528_46759" x1="71.2635" y1="40.6393" x2="68.8671" y2="79.5649" gradientUnits="userSpaceOnUse">
<stop offset="0.0354" stop-color="#9F19AB"/>
<stop offset="0.2438" stop-color="#AE25B1"/>
<stop offset="0.6455" stop-color="#D744BF"/>
<stop offset="1" stop-color="#FF63CE"/>
</linearGradient>
<linearGradient id="paint76_linear_528_46759" x1="10.1172" y1="73.2243" x2="97.6149" y2="73.2243" gradientUnits="userSpaceOnUse">
<stop stop-color="#245795"/>
<stop offset="1" stop-color="#8AD3A8"/>
</linearGradient>
<linearGradient id="paint77_linear_528_46759" x1="45.2498" y1="81.5374" x2="44.5902" y2="58.5668" gradientUnits="userSpaceOnUse">
<stop stop-color="#D4F2E4"/>
<stop offset="1" stop-color="#71D5A4"/>
</linearGradient>
</defs>
</svg>
