<svg width="100" height="94" fill="none" xmlns="http://www.w3.org/2000/svg"><g opacity=".3"><mask id="a" maskUnits="userSpaceOnUse" x="0" y="24" width="100" height="103"><path d="M99.77 101.706V24.943H0v76.763c0 1.153.88 2.337 2.671 3.217l40.795 20.397c3.55 1.791 9.318 1.791 12.87 0l40.794-20.397c1.76-.88 2.64-2.034 2.64-3.217z" fill="url(#paint0_linear)"/></mask><g mask="url(#a)"><path d="M99.77 101.706V24.943H0v76.763c0 1.153.88 2.337 2.671 3.217l40.795 20.397c3.55 1.791 9.318 1.791 12.87 0l40.794-20.397c1.76-.88 2.64-2.034 2.64-3.217z" fill="url(#paint1_linear)"/></g></g><path d="M43.447 1.334c3.556-1.779 9.321-1.779 12.877 0l40.78 20.39c3.556 1.777 3.556 4.66 0 6.438l-40.78 20.39c-3.556 1.778-9.321 1.778-12.877 0l-40.78-20.39c-3.556-1.778-3.556-4.66 0-6.439l40.78-20.39z" fill="#4F3B87"/><defs><linearGradient id="paint0_linear" x1="-13.209" y1="8.87" x2="-16.414" y2="109.308" gradientUnits="userSpaceOnUse"><stop stop-color="#D857BC"/><stop offset="1" stop-color="#D857BC" stop-opacity="0"/></linearGradient><linearGradient id="paint1_linear" x1="99.771" y1="11.321" x2="1.326" y2="9.77" gradientUnits="userSpaceOnUse"><stop stop-color="#D857BC" stop-opacity=".15"/><stop offset=".365" stop-color="#D857BC" stop-opacity=".4"/><stop offset=".479" stop-color="#D857BC" stop-opacity=".5"/><stop offset=".599" stop-color="#D857BC" stop-opacity=".4"/><stop offset="1" stop-color="#D857BC" stop-opacity=".15"/></linearGradient></defs></svg>