<svg width="199" height="264" fill="none" xmlns="http://www.w3.org/2000/svg"><g opacity=".3"><mask id="a" maskUnits="userSpaceOnUse" x="0" y="76" width="307" height="314"><path d="M306.866 312.818V76.717H0v236.101c0 3.547 2.707 7.188 8.215 9.896l125.473 62.736c10.923 5.508 28.661 5.508 39.584 0l125.472-62.736c5.415-2.708 8.122-6.255 8.122-9.896z" fill="url(#paint0_linear)"/></mask><g mask="url(#a)"><path d="M306.866 312.818V76.717H0v236.101c0 3.547 2.707 7.188 8.215 9.896l125.473 62.736c10.923 5.508 28.661 5.508 39.584 0l125.472-62.736c5.415-2.708 8.122-6.255 8.122-9.896z" fill="url(#paint1_linear)"/><path d="M306.866 312.818V76.717H0v236.101c0 3.547 2.707 7.188 8.215 9.896l125.473 62.736c10.923 5.508 28.661 5.508 39.584 0l125.472-62.736c5.415-2.708 8.122-6.255 8.122-9.896z" fill="url(#paint2_linear)"/></g></g><path d="M133.629 4.102c10.938-5.47 28.671-5.47 39.608 0l125.426 62.712c10.938 5.47 10.938 14.336 0 19.805L173.237 149.33c-10.937 5.469-28.67 5.469-39.608 0L8.203 86.619c-10.937-5.47-10.937-14.336 0-19.805L133.63 4.102z" fill="#825FFE"/><defs><linearGradient id="paint0_linear" x1="-40.627" y1="27.28" x2="-50.485" y2="336.2" gradientUnits="userSpaceOnUse"><stop stop-color="#D857BC"/><stop offset="1" stop-color="#D857BC" stop-opacity="0"/></linearGradient><linearGradient id="paint1_linear" x1="306.866" y1="34.82" x2="4.079" y2="30.048" gradientUnits="userSpaceOnUse"><stop stop-color="#825FFE" stop-opacity=".2"/><stop offset=".365" stop-color="#825FFE" stop-opacity=".5"/><stop offset=".479" stop-color="#825FFE" stop-opacity=".7"/><stop offset=".599" stop-color="#825FFE" stop-opacity=".5"/><stop offset="1" stop-color="#825FFE" stop-opacity=".2"/></linearGradient><linearGradient id="paint2_linear" x1="306.866" y1="34.82" x2="4.079" y2="30.048" gradientUnits="userSpaceOnUse"><stop stop-color="#825FFE" stop-opacity=".2"/><stop offset=".365" stop-color="#825FFE" stop-opacity=".5"/><stop offset=".479" stop-color="#825FFE" stop-opacity=".7"/><stop offset=".599" stop-color="#825FFE" stop-opacity=".5"/><stop offset="1" stop-color="#825FFE" stop-opacity=".2"/></linearGradient></defs></svg>