<svg width="79" height="99" fill="none" xmlns="http://www.w3.org/2000/svg"><g opacity=".3"><mask id="a" maskUnits="userSpaceOnUse" x="0" y="19" width="79" height="80"><path d="M78.873 79.48V19.492H.904V79.48c0 .902.688 1.827 2.088 2.515l31.88 15.94c2.775 1.4 7.282 1.4 10.057 0l31.88-15.94c1.376-.688 2.064-1.59 2.064-2.515z" fill="url(#paint0_linear)"/></mask><g mask="url(#a)"><path d="M78.873 79.48V19.492H.904V79.48c0 .902.688 1.827 2.088 2.515l31.88 15.94c2.775 1.4 7.282 1.4 10.057 0l31.88-15.94c1.376-.688 2.064-1.59 2.064-2.515z" fill="url(#paint1_linear)"/></g></g><path d="M34.857 1.042c2.779-1.39 7.284-1.39 10.063 0l31.868 15.934c2.78 1.39 2.78 3.642 0 5.032L44.92 37.942c-2.779 1.39-7.284 1.39-10.063 0L2.989 22.008c-2.78-1.39-2.78-3.642 0-5.032L34.857 1.042z" fill="#4F3B87"/><defs><linearGradient id="paint0_linear" x1="-9.418" y1="6.931" x2="-11.923" y2="85.421" gradientUnits="userSpaceOnUse"><stop stop-color="#D857BC"/><stop offset="1" stop-color="#D857BC" stop-opacity="0"/></linearGradient><linearGradient id="paint1_linear" x1="78.873" y1="8.847" x2="1.941" y2="7.635" gradientUnits="userSpaceOnUse"><stop stop-color="#D857BC" stop-opacity=".15"/><stop offset=".365" stop-color="#D857BC" stop-opacity=".4"/><stop offset=".479" stop-color="#D857BC" stop-opacity=".5"/><stop offset=".599" stop-color="#D857BC" stop-opacity=".4"/><stop offset="1" stop-color="#D857BC" stop-opacity=".15"/></linearGradient></defs></svg>