<svg width="49" height="62" fill="none" xmlns="http://www.w3.org/2000/svg"><g opacity=".4"><g opacity=".3"><mask id="a" maskUnits="userSpaceOnUse" x="0" y="12" width="49" height="50"><path d="M48.597 49.54V12.15H0v37.39c0 .561.429 1.138 1.301 1.566l19.87 9.935c1.73.873 4.54.873 6.269 0l19.87-9.935c.858-.428 1.287-.99 1.287-1.567z" fill="url(#paint0_linear)"/></mask><g mask="url(#a)"><path d="M48.597 49.54V12.15H0v37.39c0 .561.429 1.138 1.301 1.566l19.87 9.935c1.73.873 4.54.873 6.269 0l19.87-9.935c.858-.428 1.287-.99 1.287-1.567z" fill="url(#paint1_linear)"/></g></g><path d="M21.162.65c1.732-.867 4.54-.867 6.273 0l19.863 9.931c1.732.866 1.732 2.27 0 3.136L27.435 23.65c-1.732.866-4.54.866-6.273 0L1.3 13.717c-1.732-.866-1.732-2.27 0-3.136L21.162.65z" fill="#4E388D"/></g><defs><linearGradient id="paint0_linear" x1="-6.434" y1="4.32" x2="-7.995" y2="53.242" gradientUnits="userSpaceOnUse"><stop stop-color="#D857BC"/><stop offset="1" stop-color="#D857BC" stop-opacity="0"/></linearGradient><linearGradient id="paint1_linear" x1="48.597" y1="5.514" x2=".646" y2="4.759" gradientUnits="userSpaceOnUse"><stop stop-color="#D857BC" stop-opacity=".15"/><stop offset=".365" stop-color="#D857BC" stop-opacity=".4"/><stop offset=".479" stop-color="#D857BC" stop-opacity=".5"/><stop offset=".599" stop-color="#D857BC" stop-opacity=".4"/><stop offset="1" stop-color="#D857BC" stop-opacity=".15"/></linearGradient></defs></svg>