<svg xmlns="http://www.w3.org/2000/svg" viewBox="0 0 49 62"><linearGradient id="a" gradientUnits="userSpaceOnUse" x1="48.1" y1="26.893" x2=".149" y2="27.648" gradientTransform="matrix(1 0 0 -1 0 64)"><stop offset="0" stop-color="#363259"/><stop offset=".3" stop-color="#3b335c"/><stop offset=".5" stop-color="#3e345d"/><stop offset=".7" stop-color="#3b335c"/><stop offset="1" stop-color="#363259"/></linearGradient><path d="M48.6 49.5V12.1H0v37.4c0 .6.4 1.1 1.3 1.6L21.2 61c1.7.9 4.5.9 6.3 0l19.9-9.9c.8-.4 1.2-1 1.2-1.6z" fill="url(#a)"/><linearGradient id="b" gradientUnits="userSpaceOnUse" x1="24.159" y1="-224.927" x2="24.159" y2="-177.005" gradientTransform="translate(0 238)"><stop offset="0" stop-color="#333257" stop-opacity="0"/><stop offset=".75" stop-color="#333257"/><stop offset="1" stop-color="#333257"/></linearGradient><path fill="url(#b)" d="M-.3 12.1h48.9v49.5H-.3z"/><path d="M21.2.6c1.7-.9 4.5-.9 6.3 0l19.9 9.9c1.7.9 1.7 2.3 0 3.1l-19.9 9.9c-1.7.9-4.5.9-6.3 0L1.3 13.7c-1.7-.9-1.7-2.3 0-3.1L21.2.6z" fill="#3e346c"/></svg>