<svg xmlns="http://www.w3.org/2000/svg" viewBox="0 0 100 94"><linearGradient id="a" gradientUnits="userSpaceOnUse" x1="98.749" y1="19.819" x2=".304" y2="21.37" gradientTransform="matrix(1 0 0 -1 0 96)"><stop offset="0" stop-color="#38335a"/><stop offset=".3" stop-color="#42355f"/><stop offset=".5" stop-color="#463662"/><stop offset=".7" stop-color="#42365f"/><stop offset="1" stop-color="#38335a"/></linearGradient><path d="M99.8 101.7V24.9H0v76.8c0 1.2.9 2.3 2.7 3.2l40.8 20.4c3.5 1.8 9.3 1.8 12.9 0l40.8-20.4c1.7-.9 2.6-2 2.6-3.2z" fill="url(#a)"/><linearGradient id="b" gradientUnits="userSpaceOnUse" x1="49.885" y1="-211.163" x2="49.885" y2="-112.774" gradientTransform="translate(0 238)"><stop offset="0" stop-color="#333257" stop-opacity="0"/><stop offset=".75" stop-color="#333257"/><stop offset="1" stop-color="#333257"/></linearGradient><path fill="url(#b)" d="M0 24.9h99.8v101.7H0z"/><path d="M43.4 1.3c3.6-1.8 9.3-1.8 12.9 0l40.8 20.4c3.6 1.8 3.6 4.7 0 6.4L56.3 48.6c-3.6 1.8-9.3 1.8-12.9 0L2.7 28.2c-3.6-1.8-3.6-4.7 0-6.4L43.4 1.3z" fill="#4f3b87"/></svg>