<svg xmlns="http://www.w3.org/2000/svg" viewBox="0 0 199 264"><linearGradient id="a" gradientUnits="userSpaceOnUse" x1="303.722" y1="31.688" x2=".935" y2="36.46" gradientTransform="matrix(1 0 0 -1 0 266)"><stop offset="0" stop-color="#37345f"/><stop offset=".3" stop-color="#3a3667"/><stop offset=".5" stop-color="#3d386c"/><stop offset=".7" stop-color="#3b3667"/><stop offset="1" stop-color="#37345f"/></linearGradient><path d="M306.9 312.8V76.7H0v236.1c0 3.5 2.7 7.2 8.2 9.9l125.5 62.7c10.9 5.5 28.7 5.5 39.6 0l125.5-62.7c5.4-2.7 8.1-6.2 8.1-9.9z" fill="url(#a)"/><linearGradient id="b" gradientUnits="userSpaceOnUse" x1="153.433" y1="-155.411" x2="153.433" y2="147.106" gradientTransform="translate(0 238)"><stop offset="0" stop-color="#333257" stop-opacity="0"/><stop offset=".75" stop-color="#333257"/><stop offset="1" stop-color="#333257"/></linearGradient><path fill="url(#b)" d="M0 76.7h306.9v312.8H0z"/><path d="M133.6 4.1c10.9-5.5 28.7-5.5 39.6 0l125.4 62.7c10.9 5.5 10.9 14.3 0 19.8l-125.4 62.7c-10.9 5.5-28.7 5.5-39.6 0L8.2 86.6c-10.9-5.5-10.9-14.3 0-19.8L133.6 4.1z" fill="#825ffe"/></svg>