<svg width="31" height="32" fill="none" xmlns="http://www.w3.org/2000/svg"><mask id="a" maskUnits="userSpaceOnUse" x="0" y="0" width="31" height="32"><rect x=".126" y=".909" width="30.69" height="30.69" rx="15.345" fill="#CF95CF"/></mask><g mask="url(#a)"><path opacity=".3" d="M27.378 28.161c-2.578-1.289-1.595-.798-4.726-2.148a176.297 176.297 0 01-3.437-1.473c-.307-.123-.491-.43-.552-.798-.062-.737-.185-2.026.061-2.455.43-.86 1.105-.921 1.473-3.253.061-.246.184-.43.43-.491.49-.185.614-.982.675-1.535.061-.552.307-2.087-.123-2.455-.184-.184-.307-.368-.307-.614.123-1.166.246-2.21.184-2.762-.245-2.332-1.841-4.788-5.892-4.972-3.437.184-5.708 2.64-5.892 4.972-.062.553.06 1.596.184 2.762 0 .246-.123.43-.307.614-.43.368-.184 1.903-.123 2.455.061.553.184 1.412.675 1.535.246.06.368.245.43.49.368 2.333 1.043 2.394 1.473 3.254.246.49.123 1.78.061 2.516-.061.307-.245.614-.552.737-.491.245-1.535.736-3.437 1.534-3.13 1.29-2.149.798-4.727 2.087-4.05 2.026-4.05 7.12-4.05 7.12H31.43s0-5.094-4.052-7.12z" fill="#302F61"/></g><path fill-rule="evenodd" clip-rule="evenodd" d="M.893 16.253c0 8.052 6.527 14.578 14.578 14.578 8.05 0 14.577-6.526 14.577-14.578 0-8.05-6.526-14.577-14.577-14.577S.893 8.203.893 16.253zM15.471.91C6.996.909.126 7.779.126 16.253c0 8.475 6.87 15.345 15.345 15.345 8.474 0 15.345-6.87 15.345-15.345C30.816 7.78 23.946.91 15.47.91z" fill="url(#paint0_linear)"/><defs><linearGradient id="paint0_linear" x1="15.471" y1=".909" x2="15.471" y2="31.598" gradientUnits="userSpaceOnUse"><stop stop-color="#E75AA3" stop-opacity="0"/><stop offset="1" stop-color="#C1C1D0"/></linearGradient></defs></svg>