<svg width="41" height="41" fill="none" xmlns="http://www.w3.org/2000/svg"><mask id="a" maskUnits="userSpaceOnUse" x="0" y="0" width="41" height="41"><rect x=".1" y=".001" width="40" height="40" rx="20" fill="#CF95CF"/></mask><g mask="url(#a)"><path opacity=".3" d="M35.62 35.522c-3.36-1.68-2.08-1.04-6.16-2.8-2.48-1.04-3.76-1.6-4.48-1.92-.4-.16-.64-.56-.72-1.04-.08-.96-.24-2.64.08-3.2.56-1.12 1.44-1.2 1.92-4.24.08-.32.24-.56.56-.64.64-.24.8-1.28.88-2 .08-.72.4-2.72-.16-3.2-.24-.24-.4-.48-.4-.8.16-1.52.32-2.88.24-3.6-.32-3.04-2.4-6.24-7.68-6.48-4.48.24-7.44 3.44-7.68 6.48-.08.72.08 2.08.24 3.6 0 .32-.16.56-.4.8-.56.48-.24 2.48-.16 3.2.08.72.24 1.84.88 2 .32.08.48.32.56.64.48 3.04 1.36 3.12 1.92 4.24.32.64.16 2.32.08 3.28-.08.4-.32.8-.72.96-.64.32-2 .96-4.48 2-4.08 1.68-2.8 1.04-6.16 2.72-5.28 2.64-5.28 9.28-5.28 9.28h42.4s0-6.64-5.28-9.28z" fill="#fff"/></g><path fill-rule="evenodd" clip-rule="evenodd" d="M1.1 20.002c0 10.493 8.507 19 19 19s19-8.507 19-19c0-10.494-8.507-19-19-19s-19 8.506-19 19zm19-20c-11.046 0-20 8.954-20 20 0 11.045 8.954 20 20 20s20-8.955 20-20c0-11.046-8.954-20-20-20z" fill="url(#paint0_linear)"/><defs><linearGradient id="paint0_linear" x1="20.1" y1=".001" x2="20.1" y2="40.002" gradientUnits="userSpaceOnUse"><stop stop-color="#E75AA3" stop-opacity="0"/><stop offset="1" stop-color="#736A96"/></linearGradient></defs></svg>