<svg width="18" height="17" fill="none" xmlns="http://www.w3.org/2000/svg"><path d="M5.14 16.15h8.122c1.38 0 2.512-1.103 2.525-2.458v-.066A6.594 6.594 0 009.202 7.04c-6.63 0-8.768 9.11-4.06 9.11zm-1.087-2.524a5.154 5.154 0 015.148-5.148 5.154 5.154 0 015.148 5.148v.05c-.005.572-.493 1.036-1.087 1.036H5.14c-1.245 0-1.088-1.429-1.087-1.086zM6.565 3.443a2.64 2.64 0 002.637 2.638 2.64 2.64 0 002.638-2.638A2.64 2.64 0 009.202.806a2.64 2.64 0 00-2.637 2.637zm2.637-1.199a1.2 1.2 0 011.2 1.2 1.2 1.2 0 01-1.2 1.198 1.2 1.2 0 01-1.198-1.199 1.2 1.2 0 011.198-1.199z" fill="#D857BC"/></svg>