<svg width="18" height="17" fill="none" xmlns="http://www.w3.org/2000/svg"><g opacity=".4" fill-rule="evenodd" clip-rule="evenodd" fill="#302F61"><path d="M5.446 6.011c.022.002.061.003.297.003.235 0 .274-.001.296-.003a.92.92 0 00.847-.847c.002-.022.003-.061.003-.296 0-.236-.001-.275-.003-.297a.92.92 0 00-.847-.847 5.698 5.698 0 00-.296-.003c-.236 0-.275.001-.297.003a.92.92 0 00-.847.847 5.698 5.698 0 00-.003.297c0 .235.001.274.003.296a.92.92 0 00.847.847zM3.222 4.465c-.007.088-.007.193-.007.403 0 .21 0 .314.007.402A2.302 2.302 0 005.34 7.388c.088.007.193.007.403.007.21 0 .314 0 .402-.007A2.302 2.302 0 008.263 5.27c.007-.088.007-.193.007-.402 0-.21 0-.315-.007-.403a2.302 2.302 0 00-2.118-2.118c-.088-.007-.193-.007-.402-.007-.21 0-.315 0-.403.007a2.302 2.302 0 00-2.118 2.118zM12.667 6.011a5.7 5.7 0 00.297.003 5.7 5.7 0 00.296-.003.92.92 0 00.848-.847c.001-.022.002-.061.002-.296 0-.236 0-.275-.002-.297a.92.92 0 00-.848-.847 5.7 5.7 0 00-.296-.003 5.7 5.7 0 00-.297.003.92.92 0 00-.847.847 5.705 5.705 0 00-.002.297c0 .235 0 .274.002.296a.92.92 0 00.847.847zm-2.224-1.546c-.006.088-.006.193-.006.403 0 .21 0 .314.006.402a2.302 2.302 0 002.118 2.118c.089.007.193.007.403.007.21 0 .314 0 .403-.007a2.302 2.302 0 002.117-2.118c.007-.088.007-.193.007-.402 0-.21 0-.315-.006-.403a2.302 2.302 0 00-2.118-2.118c-.089-.007-.194-.007-.403-.007-.21 0-.314 0-.403.007a2.302 2.302 0 00-2.118 2.118zM5.446 13.232c.022.002.061.003.297.003.235 0 .274 0 .296-.002a.92.92 0 00.847-.848 5.7 5.7 0 00.003-.296 5.7 5.7 0 00-.003-.297.92.92 0 00-.847-.847 5.705 5.705 0 00-.296-.002c-.236 0-.275 0-.297.002a.92.92 0 00-.847.847 5.7 5.7 0 00-.003.297c0 .235.001.274.003.296a.92.92 0 00.847.848zm-2.224-1.546c-.007.089-.007.193-.007.403 0 .21 0 .314.007.403a2.302 2.302 0 002.118 2.117c.088.007.193.007.403.007.21 0 .314 0 .402-.006a2.302 2.302 0 002.118-2.118c.007-.089.007-.194.007-.403 0-.21 0-.314-.007-.403a2.302 2.302 0 00-2.118-2.118c-.088-.006-.193-.006-.402-.006-.21 0-.315 0-.403.006a2.302 2.302 0 00-2.118 2.118zM12.667 13.232c.022.002.062.003.297.003s.274 0 .296-.002a.92.92 0 00.848-.848c.001-.022.002-.06.002-.296 0-.235 0-.275-.002-.297a.92.92 0 00-.848-.847 5.706 5.706 0 00-.296-.002c-.235 0-.275 0-.297.002a.92.92 0 00-.847.847 5.706 5.706 0 00-.002.297c0 .235 0 .274.002.296a.92.92 0 00.847.848zm-2.224-1.546c-.006.089-.006.193-.006.403 0 .21 0 .314.006.403a2.302 2.302 0 002.118 2.117c.089.007.193.007.403.007.21 0 .314 0 .403-.006a2.302 2.302 0 002.117-2.118c.007-.089.007-.194.007-.403 0-.21 0-.314-.006-.403a2.302 2.302 0 00-2.118-2.118c-.089-.006-.194-.006-.403-.006-.21 0-.314 0-.403.006a2.302 2.302 0 00-2.118 2.118z"/></g></svg>