<svg width="18" height="17" fill="none" xmlns="http://www.w3.org/2000/svg"><path d="M11.95 1.573a4.406 4.406 0 00-3.26 1.408 4.442 4.442 0 00-3.243-1.406A4.425 4.425 0 001.025 6a4.38 4.38 0 001.3 3.129l5.843 5.848a.716.716 0 001.016.002l5.887-5.85a4.395 4.395 0 001.3-3.135 4.43 4.43 0 00-4.42-4.42zm2.105 6.536L8.68 13.452 3.34 8.109A2.954 2.954 0 012.464 6a2.988 2.988 0 012.983-2.985 3 3 0 012.624 1.543.703.703 0 00.638.37.72.72 0 00.629-.385c.486-.93 1.511-1.53 2.612-1.53a2.992 2.992 0 012.982 2.984 2.965 2.965 0 01-.877 2.113z" fill="#302F61" opacity=".4"/></svg>