<svg width="18" height="17" fill="none" xmlns="http://www.w3.org/2000/svg"><g opacity=".4" fill-rule="evenodd" clip-rule="evenodd" fill="#302F61"><path d="M2.806 8.478a6.211 6.211 0 1012.422 0 6.211 6.211 0 00-12.422 0zM9.017.806a7.672 7.672 0 100 15.345 7.672 7.672 0 000-15.345z"/><path d="M9.784 7.48H8.25a.23.23 0 00-.23.231v1.534c0 .128.103.23.23.23h1.534a.23.23 0 00.23-.23V7.711a.23.23 0 00-.23-.23zM8.25 6.178c-.848 0-1.535.687-1.535 1.534v1.534c0 .848.687 1.535 1.535 1.535h1.534c.848 0 1.535-.687 1.535-1.535V7.711c0-.847-.687-1.534-1.535-1.534H8.25z"/></g></svg>