<svg width="289" height="623" fill="none" xmlns="http://www.w3.org/2000/svg"><mask id="a" maskUnits="userSpaceOnUse" x="0" y="0" width="289" height="624"><path fill="url(#paint0_linear)" d="M.669.314h287.716v623H.669z"/></mask><g opacity=".3" fill-rule="evenodd" clip-rule="evenodd" fill="#8860FF" mask="url(#a)"><path d="M162.458 690.821c4.771-8.266 7.772-19.788 7.772-32.598 0-12.809-3.001-24.331-7.772-32.598-4.795-8.306-11.19-13.052-17.931-13.052-6.741 0-13.135 4.746-17.93 13.052-4.772 8.267-7.772 19.789-7.772 32.598 0 12.81 3 24.332 7.772 32.598 4.795 8.307 11.189 13.053 17.93 13.053s13.136-4.746 17.931-13.053zm-17.931 14.588c15.043 0 27.237-21.126 27.237-47.186 0-26.059-12.194-47.185-27.237-47.185-15.043 0-27.237 21.126-27.237 47.185 0 26.06 12.194 47.186 27.237 47.186z" fill-opacity=".25"/><path d="M180.872 723.146c9.514-18.205 15.444-43.462 15.444-71.444s-5.93-53.239-15.444-71.445c-9.552-18.279-22.479-29.064-36.345-29.064s-26.794 10.785-36.345 29.064c-9.514 18.206-15.444 43.463-15.444 71.445 0 27.982 5.93 53.239 15.444 71.444 9.551 18.28 22.479 29.064 36.345 29.064s26.793-10.784 36.345-29.064zm-36.345 30.599c29.45 0 53.323-45.686 53.323-102.043 0-56.357-23.873-102.043-53.323-102.043s-53.323 45.686-53.323 102.043c0 56.357 23.873 102.043 53.323 102.043z" fill-opacity=".21"/><path d="M197.119 753.9c13.699-29.119 22.214-69.454 22.214-114.09 0-44.636-8.515-84.972-22.214-114.09-13.755-29.24-32.455-46.647-52.592-46.647S105.69 496.48 91.935 525.72c-13.7 29.118-22.214 69.454-22.214 114.09 0 44.636 8.515 84.971 22.214 114.09 13.755 29.239 32.455 46.647 52.592 46.647s38.837-17.408 52.592-46.647zm-52.592 48.181c42.162 0 76.341-72.651 76.341-162.271 0-89.62-34.179-162.272-76.341-162.272-42.162 0-76.34 72.652-76.34 162.272 0 89.62 34.178 162.271 76.34 162.271z" fill-opacity=".21"/><path d="M214.05 766.914c17.934-38.144 29.068-90.947 29.068-149.354 0-58.408-11.134-111.211-29.068-149.355-17.991-38.264-42.541-61.253-69.139-61.253-26.599 0-51.149 22.989-69.14 61.253-17.933 38.144-29.067 90.947-29.067 149.355 0 58.407 11.134 111.21 29.068 149.354 17.99 38.265 42.54 61.253 69.139 61.253 26.598 0 51.148-22.988 69.139-61.253zm-69.139 62.788c55.085 0 99.741-94.979 99.741-212.142s-44.656-212.143-99.741-212.143c-55.086 0-99.742 94.98-99.742 212.143s44.656 212.142 99.742 212.142z" fill-opacity=".21"/><path d="M231.635 781.238c22.238-47.308 36.034-112.77 36.034-185.161s-13.796-137.854-36.034-185.161c-22.295-47.428-52.791-76.085-85.957-76.085-33.167 0-63.663 28.657-85.958 76.085-22.237 47.307-36.034 112.77-36.034 185.161S37.483 733.93 59.72 781.238c22.295 47.428 52.791 76.085 85.958 76.085 33.166 0 63.662-28.657 85.957-76.085zm-85.957 77.619c68.221 0 123.526-117.651 123.526-262.78 0-145.13-55.305-262.78-123.526-262.78-68.222 0-123.526 117.65-123.526 262.78 0 145.129 55.304 262.78 123.526 262.78z" fill-opacity=".21"/><path d="M249.221 795.561c26.542-56.471 43-134.593 43-220.967 0-86.374-16.458-164.496-43-220.967-26.599-56.592-63.042-90.916-102.776-90.916-39.734 0-76.176 34.324-102.775 90.916-26.542 56.471-43 134.593-43 220.967 0 86.374 16.458 164.496 43 220.967 26.599 56.593 63.041 90.917 102.775 90.917 39.734 0 76.177-34.324 102.776-90.917zm-102.776 92.451c81.357 0 147.31-140.322 147.31-313.418s-65.953-313.418-147.31-313.418S-.865 401.498-.865 574.594s65.953 313.418 147.31 313.418z" fill-opacity=".21"/><path d="M266.806 809.885c30.846-65.635 49.967-156.416 49.967-256.774 0-100.357-19.121-191.139-49.967-256.773-30.903-65.756-73.292-105.748-119.593-105.748-46.302 0-88.69 39.992-119.594 105.748-30.846 65.634-49.967 156.416-49.967 256.773 0 100.358 19.12 191.139 49.967 256.774 30.903 65.756 73.292 105.748 119.594 105.748 46.301 0 88.69-39.992 119.593-105.748zM147.213 917.167c94.493 0 171.094-162.993 171.094-364.056 0-201.062-76.601-364.056-171.094-364.056-94.494 0-171.095 162.994-171.095 364.056 0 201.063 76.601 364.056 171.095 364.056z" fill-opacity=".21"/><path d="M281.117 817.005c34.804-74.035 56.372-176.421 56.372-289.596 0-113.176-21.568-215.562-56.372-289.597-34.86-74.155-82.715-119.343-135.055-119.343S45.866 163.657 11.006 237.812c-34.803 74.035-56.37 176.421-56.37 289.597 0 113.175 21.567 215.561 56.37 289.596 34.86 74.156 82.715 119.343 135.056 119.343 52.34 0 100.195-45.187 135.055-119.343zM146.062 937.883c106.569 0 192.961-183.776 192.961-410.474 0-226.699-86.392-410.474-192.961-410.474-106.57 0-192.961 183.775-192.961 410.474 0 226.698 86.391 410.474 192.961 410.474z" fill-opacity=".21"/></g><defs><linearGradient id="paint0_linear" x1="144.527" y1=".314" x2="144.527" y2="623.314" gradientUnits="userSpaceOnUse"><stop stop-color="#3A2C6F"/><stop offset="1" stop-color="#27274B"/></linearGradient></defs></svg>