<svg width="87" height="81" fill="none" xmlns="http://www.w3.org/2000/svg"><path opacity=".1" d="M83.453 33.363c-7.092-6.951-10.998-5.238-16.959-11.082-5.961-5.843-2.22-10.961-11.1-18.537-11.1-9.47-28.794.769-40.29 11.586C4.828 25-3.703 49.18 2.155 55.427c5.859 6.246 15.417 3.224 21.584 7.455 6.167 4.232 5.961 11.687 10.997 16.422 5.037 4.735 31.142-2.922 41.42-14.004 10.278-11.082 14.39-24.985 7.298-31.937z" fill="#825FFE"/><path d="M66.272 37.946c-.15-.384.064-.577.15-.919.085-.342-.193-1.41-.193-1.41s-.897-3.697-1.175-4.424c-.118-.308-.373-.519-.629-.661-.017-.094-.042-.155-.076-.172-.248-.124-.865-.393-1.276-.468a2.088 2.088 0 00-.271-.367.867.867 0 00.096-.45c-.026-.403-.331-.764-.291-1.166.03-.305.253-.556.339-.85a.999.999 0 00-.114-.788l.19.202a.71.71 0 00-.053-.856c-.2-.222-.535-.305-.69-.56-.16-.26-.074-.616-.225-.883-.37-.654-1.316-.19-1.883-.418-.233-.094-.41-.197-.672-.19a2.622 2.622 0 00-.656.123c-.304.088-.57.278-.751.538a.458.458 0 01.059-.056c.137-.108.378-.099.45.06.018.04.025.083.022.127-.012.191-.18.334-.345.43-.167.096-.353.176-.462.334-.179.26-.074.611-.074.927a1.345 1.345 0 01-.51 1.044l.604-.246a4.558 4.558 0 00-.557 1.633l.815-.674a3.587 3.587 0 00-.535 1.592l.654-.67c.03.052.045.111.044.172l-.069.263c-.024.052-.05.103-.08.153-.105.18-.214.403-.115.588-.104.348-.26.697-.608.867.386.04.789-.153.963-.46a.856.856 0 00.102.155l.034.042-.097.064-.257.172s-1.689.342-1.582.983l.016.093-.486.826-.705 2.394s-.363.77-.3 1.09c.065.32 0 .448 0 1.026 0 .577-.277.812 0 1.282.279.47 1.112 1.838 1.112 1.838l.183.137a.855.855 0 00.01.247c.17.855 1.773 9.04 1.773 9.04s-.812 6.476.833 6.882c.207.05.41.097.606.138l.25 1.635-.15 2.073s-1.133 2.565.94 2.715c2.073.15 1.133-2.223 1.133-2.223.11-.203.154-.434.128-.663-.021-.19-.2-1.18-.374-2.132.787-.094.64-.93.535-1.296a.212.212 0 00.095-.12c.024-.084-.031-.42-.131-.89a195.31 195.31 0 00-.316-1.736l.512.084 2.158-12.652s.014-.201.008-.496c.295-.152.6-.287.911-.401.705-.278.983-1.304 1.218-1.732.235-.427-.085-.555-.235-.94zm-7.664-8.055a.458.458 0 01.237-.08c-.018.1-.19.128-.333.18a.424.424 0 01.096-.1zm-1.077 6.367c.174.284-.14 1.055-.422 1.667-.162-.14-.331-.096-.133-.492.135-.25.215-.527.235-.812 0-.049.025-.408.235-.557.023.067.051.132.085.194zm-.648 2.455c.098-.04.246-.101.447-.17a9.3 9.3 0 00-.316.44.331.331 0 01-.131-.27zm6.931.28a5.389 5.389 0 01-.321-.372c.161.043.325.088.492.137a.585.585 0 00.25-.016c.007.148.007.358.007.358l-.234.162a1.373 1.373 0 00-.194-.269zm.664-.74l-.008.006a1.425 1.425 0 00-.057-.249c-.14-.441-.215-1.225-.255-1.894l.404 1.36s.022.684-.084.776z" fill="#F7E5CA"/><path d="M56.176 32.635s-2.193-3.768-2.261-4.18c-.069-.41-1.165-1.164-1.165-1.164-.374-.375-.989-.493-1.636-.487.244-.202-.626-.337-.693-.472-.069-.137-.274-.137-.548-.343-.274-.206-.959-.034-.959-.034a2.525 2.525 0 01-.212-.683 1.91 1.91 0 00.451-1.236v-.014l.052.082c.129-.769.355-1.408-.077-2.109a2.365 2.365 0 00-1.345-1.028l-.411.329.16-.384a2.168 2.168 0 00-.407-.024l-.37.476.153-.46a2.343 2.343 0 00-1.616.962c-.47.679-.439 1.623.024 2.307l.005-.014a1.918 1.918 0 00.98 1.553l.116.93a.639.639 0 01-.381.17c-.206 0-.411.547-.411.547s-.117.06-.242.337c-.324.22-1.31.912-1.677 1.395-.216.106-.449.343-.411.872.069.96 0 5.413 0 5.413s-.617 3.768-.411 4.042c.206.274-.069 1.165-.069 1.165l.206.046v.228s-.618 2.866.343 2.74c1.575-.205.41-2.535.41-2.535v-.266l.275.061s.137-.96.41-1.028c.096-.024.208-.28.313-.603l.099.809.429-.095.119.437c.03.017.06.03.092.042l-.092.507s-.069.548 0 .89c.035.173 1.306 3.866 2.559 7.484l-.024.875s-.617.685-.48 1.165c.138.48-.342 4.453-.342 4.453l-.411 1.987.103.032-.095.348a.692.692 0 00-.214.169c-.548.616-1.233 2.398-1.233 2.398s-1.233 1.85.685 1.781c1.919-.069 2.056-.754 2.056-.754s.274-1.781.274-1.85c0-.068-.137-.772-.137-.772l-.053-.06.037-.854.358.11s.343-1.78.617-1.986c.096-.072.35-.873.642-1.9.297.856.585 3.817.678 4.086a.985.985 0 00-.087.143 16.665 16.665 0 01-1.027 1.713s-2.193 1.302 0 1.644c0 0 1.233.069 1.85-.342.616-.411 2.26-1.028 2.26-1.165s-.41-2.151-.822-1.932l-.275-.633.275-.107-1.734-7.786c.04-.166.07-.335.09-.505 0-.358.887-7.345 1.113-9.117.993.282 1.901-1.777 1.901-1.777l.226-.405.323.2s.274-.685.685-.754c.41-.068 1.165-3.7 1.165-4.18a2.232 2.232 0 00-.206-.89zm-3.192 5.368a1.853 1.853 0 00-.234-.298 8.48 8.48 0 00.411-1.439c.137-.753-.205-3.22-.205-3.22l-.006-.167c.336.441.76 1.03.76 1.195a.514.514 0 00.205.411l-.411 1.439s-.274.685-.343 1.028a3.51 3.51 0 00-.068.616l.097.06-.206.375z" fill="#F0D1ED"/><path d="M24.809 33.903l.365-.082-1.507-4.248-3.255-1.199-.035.038c-.278-.269-.395-.659-.445-.966a1.917 1.917 0 00.895-2.816c.268-.065.363-.308.453-.598a1.205 1.205 0 00-.17-.037l.127-.284-.222-.02.056-.265-.283.196a.58.58 0 00-.097-.553 1.106 1.106 0 00-.474-.335 2.117 2.117 0 00-2.171.38l-.02-.08a2.756 2.756 0 00-1.053 1.824c-.091.715.252 1.443.699 2.009l-.012-.074.06.078.055 2.085-.138.118s-2.306 1.044-2.396 2.29c-.139.607-.207 3.759-.207 3.759h.19l-.19 1.233-1.233 4.796s-1.576 2.056-.206 2.467c.852.255 1.095-.733 1.156-1.517.05.194.197.326.489.352l.07.006c-.647 1.674-.208 7.12-.208 7.12-.342.685 3.7 5.413 3.7 5.413l.244-.13.052.105c-.135.013-.227.024-.227.024v2.125s-.617 2.123.205 2.535c.213.106.435.029.647-.144-.04.655-.098 1.633-.098 1.856 0 .343.89.96.89.96s.206.753 1.85.753c1.645 0 .411-1.987.411-1.987l-.89-1.987s-.067.033-.269-.131l.072-.795.402.036.548-8.017s.48-7.125.548-8.221a7.647 7.647 0 00-.024-1.055l2.011-4.153-.365-2.864zm-1.485 2.659l-.205.716v-1.584l.205.868zm-8.553 5.08a5.904 5.904 0 00-.011-.421l1.34-2.68-.038.83s-1.073 1.357-1.291 2.272zm3.14 7.732l1.302-4.59.754 5.55-.054 2.017a3.22 3.22 0 01-.22-.579c-.206-.822-1.781-2.398-1.781-2.398z" fill="#DFEBE7"/><path d="M36.453 60.279c-.642-.264-1.888-.83-2.04-1.133-.15-.302-.906-2.643-.906-2.643l-.194.014c-.025-1.064-.132-5.186-.297-5.679 0 0 .793-6.533-.793-9.138l-.285-1.155c.093-.463.081-1.534.021-1.715-.075-.227.869-.944.604-1.398-.264-.453-.982-2.001-.982-2.001s.076-.982-.944-1.888c0 0-.298-1.687-1.64-1.712-.182-.317-.436-.82-.361-1.045.08-.24.386-.989.559-1.408.092-.041.18-.09.264-.146 1.067-.479 1.82-1.629 1.82-2.972 0-1.439-.862-2.656-2.05-3.064a1.02 1.02 0 10-1.973-.366 1.02 1.02 0 011.137-1.394 1.019 1.019 0 00-1.091 1.7c.011.038.025.075.041.11-1.118.452-1.916 1.63-1.916 3.014 0 1.283.687 2.39 1.679 2.903-.006.418-.109 1.121-.685 1.55-.297-.136-.71-.285-.974-.217-.137-.107-.344-.142-.625.14-.567.566-1.057 2.038-1.057 2.945 0 .906.113 6.155.113 6.155s-.604.227-.189.566a.49.49 0 00.305.114l.413 3.059s-.265 2.945.755 2.983c.08.004.16-.015.228-.056l-.757 3.417s-1.737 1.133-3.096 3.36c-.7 1.148-1.05 1.854-1.224 2.27l-.25-.155-.868 1.662s-1.926 1.17-1.51 2.04c.415.868.793 1.094.793 1.094l.264-.113.49.906s1.285 1.85 3.362.906a.759.759 0 000-.906c-.34-.49-1.209-1.548-1.209-1.548l.567-2.87-.117-.073 3.591-4.345s1.057-.642 1.435-1.209c.378-.566 2.719-6.42 2.719-6.42l1.322 6.118s-.076 2.228.264 3.663c.185.805.306 1.624.361 2.448l-.097.007.227 1.7s-.982 2.416-.302 2.605c.483.125.976.213 1.473.264l.075-.264s2.908 1.586 3.965.415c0 0 .227-.83-.415-1.095zM26.106 41.737c.113.114.075.642.075.642l-.226 1.473-.226 1.022a10.962 10.962 0 00-.19-1.437l-.104-2.823a.22.22 0 00.067.028c.075 0 .037-.642.037-.642s.044-.114.1-.295c.146.44.326.726.542.786l.038.491s-.49.227-.038.227a.352.352 0 00.078-.012l-.04.2s-.227.227-.113.34z" fill="#DCD2FF"/><path d="M35.808 62.038c16.765 0 30.356-.224 30.356-.5 0-.277-13.591-.5-30.356-.5s-30.356.223-30.356.5c0 .276 13.59.5 30.356.5z" fill="#5D5D7C"/><path d="M46.432 64.123c18.442 0 33.391-.579 33.391-1.293s-14.95-1.292-33.391-1.292c-18.442 0-33.392.578-33.392 1.292 0 .714 14.95 1.293 33.392 1.293z" fill="#5D5D7C"/><path d="M40.27 66.041c9.05 0 16.386-.579 16.386-1.293s-7.337-1.292-16.387-1.292-16.387.578-16.387 1.292c0 .714 7.337 1.293 16.387 1.293zM63.953 66.958c4.03 0 7.297-.298 7.297-.667 0-.368-3.266-.667-7.297-.667-4.03 0-7.297.299-7.297.667 0 .369 3.267.667 7.297.667zM53.946 69.21c1.912 0 3.461-.299 3.461-.667 0-.369-1.55-.667-3.46-.667-1.912 0-3.462.298-3.462.667 0 .368 1.55.667 3.461.667z" fill="#5D5D7C"/><path d="M25.759 66.375c1.911 0 3.46-.3 3.46-.668 0-.368-1.549-.667-3.46-.667-1.912 0-3.461.299-3.461.667 0 .369 1.55.668 3.46.668z" fill="#5D5D7C"/><path d="M42.855 58.16l.333 2.335 1.668-.167-.167-2.418-1.834.25zM34.932 58.16l-.333 2.335-1.668-.167.166-2.418 1.835.25z" fill="#FFB8B8"/><path d="M32.514 33.975s-1.501 1.752-1.168 4.504c.334 2.752.918 9.007.918 9.007l.417 11.091 2.668-.167.417-9.423 1.334-7.59 3.587 8.84s1.75 8.257 1.834 8.257c.084 0 2.502-.25 2.502-.25l-1.167-9.758S42.02 34.31 40.936 34.06c-1.083-.25-8.422-.084-8.422-.084zM45.023 59.995s-1.501-1-2.085.167c-.584 1.167-.083 2.001-.083 2.001s.5.334.25.667c-.25.334-.333 2.502 1.835 2.169 2.168-.334 1.084-2.586 1.084-2.586l-1-2.418zM32.764 59.995s1.501-1 2.085.167c.584 1.167.083 2.001.083 2.001s-.5.334-.25.667c.25.334.334 2.502-1.835 2.169-2.168-.334-1.084-2.586-1.084-2.586l1.001-2.418z" fill="#2F2E41"/><path d="M34.557 17.755s.75 2.085.166 3.252c-.583 1.168.918 2.502.918 2.502s3.92-2.001 3.419-3.002c-.5-1-1.334-2.335-1.168-3.17l-3.335.418z" fill="#FFB8B8"/><path d="M36.016 18.547a2.669 2.669 0 100-5.337 2.669 2.669 0 000 5.337z" fill="#FFB8B8"/><path d="M34.098 20.882s2.678 2.228 4.675-.929l2.08 1.18 1.084 12.676s-6.087 3.502-9.006.5l.417-11.759.75-1.668z" fill="#D0CDE1"/><path d="M34.939 19.634l-3.76 2.5 1.335 6.17-1.752 9.59 2.836-4.252 1.34-14.008zM38.262 18.939l.923.609 3.753 1.334-.584 10.341 1.585 6.672-2.252 1.168s-.417-3.17-3.002-4.754c-2.585-1.584-1.013-14.896-.423-15.37z" fill="#825FFE"/><path d="M32.013 35.143l1.085.75s-1.376 1.46-1.627 1.21a.686.686 0 01-.208-.542l-.25-.584 1-.834zM39.22 34.98l-.368.58s-1.084.5-.834.834c.25.334 2.335 1.084 2.752.334l.417-.751-1.966-.996z" fill="#FFB8B8"/><path d="M31.68 22.05l-.584.083-.96 6.213s-.375 1.126.042 3.795c.417 2.668.83 4.406.83 4.406l1.839-1.32-.834-2.169 1.084-7.923-1.418-3.085zM41.603 20.716l1.335.166s1.5 1.585 1.75 3.253c.251 1.668.168 6.421.168 6.421l-3.837 6.088-2.084-1.501 2.918-5.17-1.417-6.172 1.167-3.085z" fill="#825FFE"/><path d="M38.561 13.465a3.118 3.118 0 00-1.773-1.356l-.542.434.21-.506a2.868 2.868 0 00-.536-.031l-.487.627.202-.605a3.087 3.087 0 00-2.13 1.267c-.622.895-.726 2.14-.116 3.042.168-.515.372-.998.54-1.514.131.018.264.02.396.002l.204-.475.057.455a26.82 26.82 0 002.17-.287l-.059-.35.349.291c.184-.042.293-.08.284-.11.445.719.887 1.178 1.333 1.897.169-1.014.468-1.856-.102-2.781z" fill="#2F2E41"/><path d="M38.413 16.156c.1 0 .18-.162.18-.361 0-.2-.08-.362-.18-.362-.1 0-.18.162-.18.362 0 .2.08.361.18.361z" fill="#FFB8B8"/><path d="M67.278 62.962c.077 2.632-1.46 3.596-3.39 3.653a6.023 6.023 0 01-.4-.002c-1.746-.073-3.127-1-3.199-3.447-.074-2.533 3.07-5.824 3.306-6.067l.014-.014s3.592 3.246 3.67 5.877z" fill="#9A9EFF"/><path d="M63.749 66.216l1.226-1.823-1.223 2.019.002.205c-.09 0-.178 0-.266-.004l.061-2.637-.002-.02.003-.005.005-.249-1.342-1.949 1.34 1.763.006.053.046-1.993-1.16-2.02 1.163 1.67-.012-4.127v-.014.014l.077 3.253 1.057-1.322-1.054 1.602.024 1.782.972-1.74-.969 2.002.013.99 1.414-2.422-1.41 2.768.029 2.204z" fill="#302F61"/><path d="M22.578 59.042c.077 2.632-1.46 3.597-3.39 3.653a6.012 6.012 0 01-.4-.002c-1.746-.072-3.127-.999-3.199-3.446-.074-2.533 3.07-5.824 3.306-6.068l.014-.014s3.592 3.246 3.67 5.877z" fill="#9A9EFF"/><path d="M19.049 62.296l1.226-1.823-1.224 2.02.003.205c-.09 0-.178-.001-.266-.005l.06-2.637v-.02l.001-.004.006-.25-1.342-1.948 1.34 1.762.005.053.046-1.992-1.16-2.021 1.164 1.67-.013-4.127v-.014.014l.078 3.253 1.057-1.321-1.054 1.601.023 1.782.973-1.739-.969 2.001.013.991 1.414-2.422-1.41 2.768.029 2.203z" fill="#302F61"/><path d="M55.98 66.672c.045 1.545-.857 2.111-1.99 2.144a2.958 2.958 0 01-.235 0c-1.024-.043-1.835-.587-1.877-2.024-.044-1.487 1.802-3.418 1.94-3.561l.008-.009s2.109 1.906 2.154 3.45z" fill="#9A9EFF"/><path d="M53.908 68.582l.72-1.07-.718 1.185.001.12c-.053.001-.105 0-.156-.002l.036-1.548-.001-.011.001-.003.003-.146-.788-1.144.787 1.034.003.031.027-1.17-.68-1.185.682.98-.007-2.422v-.008.008l.045 1.909.62-.776-.617.94.013 1.047.57-1.021-.568 1.174.008.582.83-1.422-.828 1.625.017 1.293z" fill="#302F61"/><path d="M83.992 16.273L84 16.25c0 .004-.002.007-.003.01l-.004.013z" fill="#2F2E41"/><path d="M72.339 60.525l6.177-9.186-6.165 10.174.013 1.034a27.03 27.03 0 01-1.34-.023l.307-13.287-.008-.102.01-.02.03-1.255-6.764-9.822 6.756 8.882.024.265.231-10.038-5.842-10.183 5.86 8.42-.062-20.798v-.07l.002.069.388 16.39 5.325-6.657-5.308 8.07.117 8.98 4.9-8.764-4.882 10.083.064 4.993 7.126-12.207-7.104 13.949.145 11.103zM9.267 60.169l4.203-6.251-4.195 6.923.01.703c-.308.003-.611-.002-.912-.015l.208-9.041-.006-.07.008-.013.02-.855L4 44.867l4.598 6.044.016.18.157-6.83-3.975-6.93 3.987 5.73-.042-14.152v-.047l.002.046.263 11.154 3.624-4.531-3.612 5.491.08 6.11 3.334-5.963-3.322 6.862.044 3.397 4.849-8.306-4.835 9.492.099 7.555z" fill="#5D5D7C"/></svg>