<svg width="130" height="107" fill="none" xmlns="http://www.w3.org/2000/svg"><path opacity=".1" d="M125.947 72.453c-5.242-6.915-17.819-4.47-24.757-14.66-5.87-8.629-2.224-12.878-11.56-18.766-10.11-7.071-20.261-3.998-24.546-3.252-4.284.745-6.836-1.64-7.451-1.863-1.898-.693-18.872-4.896-26.731-3.074-12.99 3.012-7.995 17.883-19.187 28.072C.24 69.364-.17 77.352.352 86.176c.838 13.695 15.249 20.012 39.271 20.364 14.14.207 110.497.672 86.324-34.087z" fill="#825FFE"/><path opacity=".4" d="M35.097 63.33a2.068 2.068 0 100-4.135 2.068 2.068 0 000 4.135zM28.1 59.035a2.069 2.069 0 100-4.137 2.069 2.069 0 000 4.137zM25.985 46.133a2.158 2.158 0 100-4.317 2.158 2.158 0 000 4.317z" fill="#FE6486"/><path opacity=".7" d="M26.98 45.137a2.326 2.326 0 11-.002-4.652 2.326 2.326 0 01.003 4.652zm0-4.317a1.993 1.993 0 10.003 3.985 1.993 1.993 0 00-.002-3.983v-.002zM27.48 69.712a2.16 2.16 0 100-4.318 2.16 2.16 0 000 4.318zM27.482 87.88s-.988-5.643-8.587-5.602l8.587 5.602z" fill="#9A9EFF"/><path opacity=".7" d="M28.758 86.314c-.036-.06-.897-1.497-1.195-4.48-.273-2.737-.097-7.352 2.296-13.788 4.533-12.194-1.046-22.033-1.102-22.13l.282-.16c.014.025 1.453 2.539 2.304 6.527a28.468 28.468 0 01-1.18 15.874c-4.525 12.173-1.16 17.934-1.128 17.992l-.277.165z" fill="#9A9EFF"/><path opacity=".7" d="M33.507 52.833a2.069 2.069 0 100-4.137 2.069 2.069 0 000 4.137zM29.053 58.081a2.227 2.227 0 11-.003-4.454 2.227 2.227 0 01.003 4.454zm0-4.135a1.912 1.912 0 10-.014 3.824 1.912 1.912 0 00.014-3.824zM34.468 62.376a2.23 2.23 0 11-.008-4.46 2.23 2.23 0 01.008 4.46zm0-4.135a1.912 1.912 0 10-.015 3.823 1.912 1.912 0 00.015-3.823zM30.009 86.39s-2.069-5.09 4.135-8.906l-4.135 8.906z" fill="#9A9EFF"/><path opacity=".5" d="M102.105 88.299h-35.19s-.713-10.462 3.508-10.58c4.221-.12 3.744 4.636 9.029-1.903s11.71-6.182 12.543-2.319c.834 3.863-1.605 6.955 2.853 6.004 4.458-.95 10.883 1.547 7.257 8.798z" fill="#B5B6FF"/><path opacity=".5" d="M84.288 88.285h-.117c.274-6.789 1.693-11.145 2.839-13.613 1.243-2.68 2.44-3.757 2.453-3.768l.078.088c-.013.01-1.195 1.082-2.428 3.738-1.139 2.45-2.552 6.793-2.825 13.555zM96.84 88.299l-.112-.033c1.354-4.648 4.542-7.583 4.575-7.618l.079.088c-.033.033-3.197 2.948-4.542 7.563zM72.457 88.307l-.118-.017a12.945 12.945 0 00-1.164-7.568c-.855-1.729-1.834-2.672-1.834-2.68l.082-.087c.01.01 1 .97 1.862 2.716a13.076 13.076 0 011.172 7.636z" fill="#fff"/><path opacity=".3" d="M106.881 88.459H63.12l-.013-.15c-.024-.368-.583-9.067 2.236-12.17a3.08 3.08 0 012.257-1.083c1.834-.052 2.991.636 3.922 1.188 1.757 1.041 2.916 1.73 7.132-3.482 4.566-5.643 9.494-6.86 12.327-6.183 1.834.436 3.093 1.669 3.46 3.386.35 1.623.24 3.148.15 4.373-.096 1.31-.172 2.346.367 2.822.45.39 1.347.423 2.822.111 3.003-.64 7.195-.092 9.298 2.627 1.129 1.461 2.025 4.12-.155 8.479l-.042.082zm-43.464-.32h43.268c1.623-3.295 1.674-6.078.141-8.053-1.93-2.495-5.979-3.15-8.981-2.51-1.606.343-2.561.282-3.104-.184-.659-.574-.577-1.678-.476-3.08.09-1.204.198-2.704-.14-4.283-.34-1.578-1.519-2.734-3.224-3.141-2.743-.655-7.532.544-12.007 6.074-4.39 5.425-5.711 4.64-7.54 3.556-.944-.565-2.014-1.194-3.752-1.144a2.777 2.777 0 00-2.03.979c-2.526 2.789-2.217 10.612-2.155 11.787z" fill="#B5B6FF"/><path d="M110.322 89.572c0 3.244-22.009 10.655-49.143 10.655-27.133 0-49.143-7.406-49.143-10.655 0-3.25 22.008-1.114 49.143-1.114 27.136 0 49.143-2.137 49.143 1.114z" fill="#43406F"/><path opacity=".1" d="M110.322 89.572c0 3.244-22.009 10.655-49.143 10.655-27.133 0-49.143-7.406-49.143-10.655 0-3.25 22.008-1.114 49.143-1.114 27.136 0 49.143-2.137 49.143 1.114z" fill="#302F61"/><path d="M61.18 95.456c27.14 0 49.143-2.636 49.143-5.885 0-3.249-22.009-5.884-49.142-5.884-27.134 0-49.144 2.634-49.144 5.884 0 3.25 22.008 5.885 49.144 5.885zM62.51 12.128s-2.68-.961-4.403 2.88c-1.723 3.842-4.405 8.042-4.405 8.042l1.54.38s.382-2.68 1.341-3.062l-.38 3.444s11.489 4.022 16.653-.381l-.198-1.34s.761.197.761 1.34l.579-.579s-.579-1.142-2.301-2.68c-1.129-1.01-1.523-2.915-1.655-4.122a5.045 5.045 0 00-1.143-2.716c-1.137-1.306-3.228-2.73-6.39-1.206z" fill="#302F61"/><path d="M75.422 14.38l-9.486-7.368s-1.224-5.079-1.904-5.22c-.248-.049-.414.067-.512.33-.1-.248-.266-.379-.53-.33-.448.116-1.788 3.89-1.889 4.938a.582.582 0 01-.252.447l-8.888 6.903a2.171 2.171 0 00-.811 1.954c.348 2.822 1.39 9.75 3.51 13.044.249.38.444.793.58 1.226.314 1.01.91 2.847 1.357 4.305 0 0 .099.314.148.462.05.149.762 3.063.811 3.973.084 1.11.2 2.116-.314 5.08-.463 2.73-2.085 6.24-2.616 6.77-.43.431-13.772 3.974-15.328 8.974-.679 2.15 1.49 3.64 1.77 3.79a8.114 8.114 0 003.643 1.094c2.068.13 14.054 2.25 14.054 2.25l.532.202c.303.168.528.447.63.778.513 1.572 1.887 5.313 2.748 5.413.017.745.017 1.242 0 1.375-.033.927-1.44 12.796-1.44 12.796l-1.11 4.326a1.898 1.898 0 01-.248.596c-.282.464-.762 1.49.166 2.02.565.33.988.988 1.27 1.622a2.985 2.985 0 001.175 1.34 2.884 2.884 0 001.747.408c.597-.049 1.093-.282 1.209-.893.035-.192.03-.39-.017-.58a1.482 1.482 0 00-.248-.513 11.826 11.826 0 01-1.325-2.218 2.516 2.516 0 01-.197-1.209l.396-4.617s2.398-7.186 2.714-9.03c1.143-6.705.828-6.523 1.027-7.565.2-1.043 3.014-10.033 3.395-13.658.38-3.626.678-4.735.148-7.135-.497-2.257-1.638-5.546-1.672-7.25-.034-1.704.017-2.632.347-4.139.33-1.507.811-4.354.894-5.199.084-.794.182-1.41.182-1.41l.762-2.399c.115-.298.253-.586.414-.862 2.103-3.79 3.36-11.223 3.642-13.64a1.27 1.27 0 00-.484-1.182zM60.938 63.577a1.63 1.63 0 01-.977-.05l-2.699-.81-.098-.033-.43-.133v.017l-5.618-1.573s10.892-4.105 11.091-4.007c.082.05.182 3.08.282 6.64-.343-.266-.922-.249-1.551-.051zm9.32-40.425a2.577 2.577 0 01-.497.944l-1.672 2.085s-.579.546-.893.564a4.313 4.313 0 01-.713-.115c-.877-.232-.91-1.291-.794-2.997.424-.428.74-.95.927-1.522a.564.564 0 01.182-.282c.331-.216.612-.662.695-1.805.017-.331-.017-.777-.115-.926-.099-.15-.2-.2-.216-.364-.165-1.954-.231-4.14-3.294-4.172-3.063-.033-3.592 2.102-3.493 4.287a.466.466 0 01-.166.347c-.132.116-.149.448-.132.73.083.86.265 1.638.678 1.886.083.054.141.137.166.233.148.605.466 1.155.917 1.587.132 1.27.23 2.615-.861 3.178-.017 0-.614.133-1.01.05-.248-.05-.597-.414-.597-.414l-2.151-2.433a2.082 2.082 0 01-.414-.811l-1.855-6.324a.67.67 0 01.15-.629l7.477-7.98c.166-.168.28-.38.331-.612.149-.596.43-1.855.613-3.062.197 1.39.564 2.864.661 3.277.022.08.062.153.116.216l7.9 8.41-1.94 6.654z" fill="#FBBEBE"/><path d="M55.177 49.358l-.696 1.39s-16.836 5.38-15.445 10.413c1.158 4.209 6.704 4.007 9.187 4.209 2.257.165 8.592 1.456 8.592 1.456l.977-4.278-6.076-1.552 10.413-3.825.347 17.697-1.39 12.665 3.477.347s3.244-9.875 3.343-15.23c.022-.993.178-1.978.464-2.93 1.456-4.834 5.264-18.64 2.267-21.074-3.658-2.93-15.46.712-15.46.712z" fill="#7D58CB"/><path d="M63.702 29.41l-2.335-2.88-1.539.314-2.583 6.207s-1.552 2.946.348 6.075c0 0 .347 2.087-.166 2.599-.514.512-.694 3.824-.694 3.824l-2.257 4.337s12.846 2.257 16.647-.86c0 0-2.003-7.383-.794-9.652 1.209-2.268 1.39-5.71 0-7.284-1.391-1.573-2.847-5.462-2.847-5.462l-1.325-.15-2.455 2.932z" fill="#99C493"/><path d="M58.056 20.488s1.54-2.103 2.88-2.484c1.341-.381 1.54-2.294 1.54-2.294s3.444 3.825 5.546 4.023c2.102.2.199-4.602.199-4.602l-3.824-.973-3.642.38-2.881 1.921.182 4.03z" fill="#302F61"/></svg>