<svg width="68" height="62" fill="none" xmlns="http://www.w3.org/2000/svg"><path opacity=".1" d="M8.172 35.706c-8.981-5.679-10.033-13.31-3.233-20.94C14.504 4.03 35.475-4.757 42.659 3.761c7.186 8.519 20.12 9.938 23.352 14.197 3.234 4.26 2.156 9.229-3.233 16.327-5.389 7.099-1.796 14.907-6.466 22.361-4.67 7.454-31.974 6.389-35.925-4.26-3.162-8.517-3.234-11.002-12.215-16.68z" fill="#FFCB4D"/><path d="M22.777 48.977l-.168 2.178 1.62.167-.391-2.624-1.061.28z" fill="#FFB9B9"/><path opacity=".7" d="M19.105 13.428h-4.367v7.98h4.367v-7.98zM33.558 39.726h-5.872v7.98h5.872v-7.98zM27.736 27.43h-5.821v8.783h5.821V27.43zM33.558 15.988h-5.822v8.782h5.822v-8.782z" fill="#FFCB4D"/><path d="M56.777 53.462H2.986v.125h53.79v-.125zM40.74 47.761H14.682V13.372H40.74v34.39zm-25.946-.111h25.835V13.484H14.794V47.65z" fill="#302F61"/><path d="M35.27 47.761H20.203V13.423H35.27V47.76zm-14.956-.111h14.844V13.534H20.314V47.65z" fill="#302F61"/><path d="M40.74 36.269H14.682V24.715H40.74v11.554zm-25.946-.112h25.835v-11.33H14.794v11.33z" fill="#302F61"/><path d="M20.259 26.427a1.656 1.656 0 100-3.313 1.656 1.656 0 000 3.313zM35.214 15.285a1.656 1.656 0 100-3.312 1.656 1.656 0 000 3.312z" fill="#FE6486"/><path d="M27.767 13.478h-.112v34.227h.112V13.478z" fill="#302F61"/><path d="M46.583 48.627c.845 2.545.548 4.934.548 4.934s-1.668-1.736-2.513-4.282c-.846-2.545-.549-4.934-.549-4.934s1.668 1.737 2.514 4.282z" fill="#A6DE9E"/><path d="M47.68 48.627c-.845 2.545-.548 4.934-.548 4.934s1.668-1.736 2.513-4.282c.846-2.545.549-4.934.549-4.934s-1.668 1.737-2.514 4.282z" fill="#A6DE9E"/><path d="M48.02 48.654c.057 2.681-.932 4.877-.932 4.877s-1.08-2.152-1.137-4.833c-.057-2.681.932-4.877.932-4.877s1.081 2.152 1.138 4.833zM17.136 29.15c1.38.425 2.116 2.012 1.644 3.543l-.6 1.946-.598-.185-.124-.827-.135.747-3.847-1.185-.113-.752-.123.68-.433-.134.47-1.528c.543-1.762 2.271-2.794 3.86-2.305z" fill="#302F61"/><path d="M14.993 34.99a.908.908 0 00-1.053.834c-.024.337.093.732.616 1.025 1.117.624 3.54 1.986 3.54 1.986l4.62.888s2.336 1.863 2.629.803c.292-1.06-2.216-1.707-2.216-1.707l-4.246-1.089-2.706-1.956s-.495-.662-1.184-.784zM13.516 39.332l.464 1.31 2.787-.676-.718-.971-2.533.337zM6.063 51.643L3.95 51.43l1.478-1.435 1.056.718-.422.929zM16.648 33.531a1.734 1.734 0 100-3.468 1.734 1.734 0 000 3.468z" fill="#FFB9B9"/><path d="M15.29 32.069s-.971 1.14-1.478 1.309c-.507.169-1.774 1.774-1.14 2.83.633 1.055 2.956-.254 2.956-.254l-.085-1.056s.972-1.689 1.183-1.816c.21-.126-1.436-1.013-1.436-1.013z" fill="#FFB9B9"/><path d="M15.12 34.108c-.645-.972-2.143-.798-2.514.308a1.92 1.92 0 00-.02.06c-.337 1.14.17 3.083.17 3.083l.76 2.28s1.985-.929 3.42.634l-.21-1.605s.59-1.352-.17-2.323c-.483-.618-.933-1.68-1.435-2.437z" fill="#D857BC"/><path d="M16.958 40.578s-1.014-1.351-3.083-.549l-.38 1.056s-2.196 1.732-.972 4.392l-.084 3.97-.338 1.14-6.123-.507-.211 1.943 1.098.084s6.207 2.45 7.179.93c.971-1.521 2.998-7.518 2.998-7.518l5.258.788s-.154 1.645.015 1.856c.169.212.084 1.098.169 1.267.084.17.014.608.014.608l1.745-.057v-.845s.21-1.14.21-1.436c0-.295 1.268-4.18-.928-4.518-2.196-.338-5.976-.957-5.976-.957l-.591-1.647z" fill="#302F61"/><path d="M5.133 51.347l-.084.633s-2.787-.549-3.379-.042c-.59.507-.59.845-1.055.507-.198-.144-.03-.493.23-.848.41-.556.95-1.004 1.573-1.305.697-.342 1.66-.837 1.66-.972 0-.211.76-.845 1.055-.507.296.338.845 1.267.845 1.267l-.845 1.267zM22.516 50.15s-.619 2.194-.393 2.307c.225.113.675.45 1.35.45.4 0 .995.216 1.415.393.49.21 1.023.301 1.555.268.354-.025.655-.108.631-.323-.056-.506-1.125-.62-1.125-.62l-1.125-1.462s-.197-.929-.366-.929a.37.37 0 01-.253-.084h-1.689z" fill="#302F61"/><path d="M14.985 33.978a1.045 1.045 0 00-1.45-.55c-.35.176-.672.525-.652 1.217.042 1.478.126 4.688.126 4.688l1.858 5.11s-.464 3.42.76 3.082c1.225-.338.38-3.21.38-3.21l-1.435-4.856.338-3.843s.362-.883.075-1.638z" fill="#FFB9B9"/><path d="M16.19 29.695a1.372 1.372 0 011.197-.21l.05.016c.945.291 1.448 1.384 1.123 2.44l-.317-.098.069-.406-.195.367-1.88-.58-.056-.378-.062.342-.37-.114c-.436.804-.453 1.738-.048 2.8l-.63-.194-.112-.756-.124.684-1.201-.37.23-1.59c.35-1.135 1.307-1.895 2.327-1.953z" fill="#302F61"/><path d="M27.736 41.282a5.069 5.069 0 100-10.138 5.069 5.069 0 000 10.138z" fill="#9A9EFF"/><path d="M57.668 24.42l-.04-.103-9.67 3.812-9.245-10.575 11.477-4.526-.04-.103-11.515 4.54-2.856-3.266.471-.184c-.32-.043-.73-.207-1.028-.369.12.316.228.745.229 1.068l.244-.442 2.83 3.236-17.559 6.923-.014-.505c-.149.288-.441.619-.693.844.338-.007.778.036 1.082.144l-.334-.379 17.596-6.938 9.245 10.576-19.404 7.65-.014-.504c-.15.287-.442.618-.693.844.338-.007.777.035 1.082.144l-.334-.38 19.441-7.665 8.417 9.626.084-.073-8.39-9.597 9.631-3.797z" fill="#302F61"/><path d="M62.415 22.562H52.88v3.664h9.535v-3.664z" fill="#302F61"/><path d="M60.734 23.54h-6.173v.302h6.173v-.301zM60.734 24.243h-6.173v.302h6.173v-.302zM60.734 24.946h-6.173v.301h6.173v-.301z" fill="#F2F2F2"/><path d="M54.937 11.17h-9.535v3.664h9.535V11.17z" fill="#302F61"/><path d="M53.256 12.148h-6.173v.302h6.173v-.302zM53.256 12.851h-6.173v.301h6.173v-.3zM53.256 13.554h-6.173v.3h6.173v-.3z" fill="#F2F2F2"/><path d="M61.16 36.012h-9.535v3.664h9.535v-3.664z" fill="#302F61"/><path d="M59.48 36.99h-6.174v.302h6.173v-.301zM59.48 37.693h-6.174v.301h6.173v-.3zM59.48 38.396h-6.174v.301h6.173v-.301z" fill="#F2F2F2"/></svg>