<svg width="99" height="71" fill="none" xmlns="http://www.w3.org/2000/svg"><path opacity=".1" d="M74.867 68.778c-11.299 4.357-32.72-2.007-47.615-8.078C13.503 55.095-5.13 42.817 1.314 20.934 7.152 1.113 28.251 10.844 46.39 8.777 64.53 6.71 82.422-5.96 94.114 6.178c10.857 11.272-2.967 23.239-6.802 37.067-3.835 13.829-1.148 21.175-12.445 25.533z" fill="#E75AA3"/><path opacity=".2" d="M80.145 38.127l-7.58 3.587 6.708-5.015a37.848 37.848 0 00-3.662-4.82l-32.869 8.17 29.69-11.325a37.828 37.828 0 00-4.311-3.287l-50.085 8.068a37.535 37.535 0 00-8.22 23.424h75.39a37.515 37.515 0 00-5.061-18.802zM64.022 23.108a37.543 37.543 0 00-16.51-3.8c-11.645 0-22.055 5.28-28.97 13.576 11.84-2.594 32.456-7.085 45.48-9.776z" fill="#E75AA3"/><path d="M17.504 49.056c2.993 5.55 9.345 7.934 9.345 7.934s1.5-6.617-1.493-12.168c-2.993-5.55-9.346-7.933-9.346-7.933s-1.5 6.616 1.494 12.167z" fill="#302F61"/><path d="M19.561 47.23c5.404 3.251 7.485 9.708 7.485 9.708s-6.68 1.187-12.084-2.064c-5.403-3.251-7.484-9.708-7.484-9.708s6.68-1.187 12.083 2.064z" fill="#D857BC"/><path d="M60.112 34.834H20.337v.852h39.775v-.852zM60.112 39.094H20.337v.852h39.775v-.852zM60.112 43.142H20.337v1.278h39.775v-1.278z" fill="#2F2E41"/><path d="M26.554 32.244l-.06 24.684.884.002.06-24.684-.884-.002zM52.629 32.308l-.06 24.684.884.002.06-24.684-.884-.002z" fill="#2F2E41"/><path d="M86.59 29.1c-1.192 1.202-4.068 2.154-5.27.963-1.201-1.191-.274-4.075.917-5.277A3.065 3.065 0 0186.59 29.1z" fill="#7D58CB"/><path d="M81.323 30.48a.508.508 0 00-.42-.415l.416-.42.42.416-.416.42z" fill="#FFCB4D"/><path d="M81.53 30.305a.691.691 0 01-.45-.444l.083-.027a.605.605 0 00.394.386l-.027.085z" fill="#2F2E41"/><path d="M72.408 39.095l-.063-.063 8.864-8.899.063.063-8.864 8.899z" fill="#302F61"/><path opacity=".4" d="M86.687 27.377c.301-.304.34-.754.087-1.006-.254-.25-.704-.208-1.005.096-.302.304-.34.754-.087 1.006.253.25.703.208 1.005-.096z" fill="#fff"/><path d="M82.702 25.823c-.796 1.493-3.278 3.23-4.77 2.435-1.494-.796-1.434-3.825-.638-5.319a3.064 3.064 0 115.408 2.884z" fill="#D857BC"/><path d="M78.052 28.657a.508.508 0 00-.52-.278l.277-.52.521.277-.278.521z" fill="#D857BC"/><path d="M78.2 28.429a.693.693 0 01-.558-.295l.072-.05a.604.604 0 00.488.256l-.001.089z" fill="#2F2E41"/><path d="M71.986 39.468l-.078-.042 5.936-11.07.078.043-5.936 11.069z" fill="#302F61"/><path opacity=".4" d="M82.3 24.144c.201-.378.11-.82-.206-.988-.314-.168-.733.002-.934.38-.202.378-.11.82.205.988.315.168.733-.002.935-.38z" fill="#fff"/><path d="M80.746 34.147c-1.191 1.202-4.067 2.154-5.269.963-1.202-1.192-.275-4.076.917-5.277a3.063 3.063 0 114.352 4.314z" fill="#825FFE"/><path d="M75.48 35.528a.507.507 0 00-.42-.416l.415-.42.42.416-.416.42z" fill="#825FFE"/><path d="M75.686 35.351a.694.694 0 01-.45-.443l.084-.028a.604.604 0 00.393.387l-.027.084z" fill="#2F2E41"/><path d="M75.366 35.18l-3.951 3.985.063.062 3.951-3.984-.063-.063z" fill="#302F61"/><path opacity=".4" d="M80.843 32.423c.302-.304.34-.754.087-1.005-.253-.251-.703-.208-1.004.096-.302.304-.34.754-.087 1.005.253.252.703.209 1.004-.096z" fill="#fff"/><path d="M68.288 21.188c-.901-1.522-2.683-1.593-2.683-1.593s-1.737-.223-2.852 2.096c-1.038 2.16-2.471 4.247-.23 4.753l.404-1.26.251 1.354c.32.023.64.028.959.016 2.4-.077 4.686.023 4.612-.838-.098-1.145.406-3.064-.461-4.528zM66.223 54.568c-.078.347-.217.685-.224 1.04-.008.356.164.752.504.856.163.037.332.038.495.004.18-.024.371-.053.508-.173.192-.168.214-.454.216-.71.009-1.268-.146-2.531-.3-3.79-.002-.02-.826-.04-.909-.002-.24.11-.218.382-.221.611-.01.721.09 1.452-.07 2.164zM60.634 54.568c.078.347.216.685.224 1.04.007.356-.164.752-.505.856a1.163 1.163 0 01-.494.004c-.18-.024-.372-.053-.509-.173-.191-.168-.214-.454-.215-.71-.009-1.268.145-2.531.3-3.79.002-.02.825-.04.908-.002.24.11.219.382.222.611.01.721-.09 1.452.069 2.164z" fill="#2F2E41"/><path d="M63.392 35.074c.4.191.858.216 1.302.21a11.193 11.193 0 002.908-.417c.181-.043.355-.114.516-.209a.204.204 0 00.09-.098.227.227 0 000-.103l-.153-1.021a.122.122 0 00-.153-.128 23.114 23.114 0 00-3.753.324c-.222.037-.865.044-.977.28-.066.141.069.389.103.526.019.075.071.614.117.636z" fill="#FFB8B8"/><path d="M65.262 34.821a6.49 6.49 0 01-2.057-.416c-.03-.011-.067-.02-.087.003a.075.075 0 00-.013.04l-.17 1.278c-.175 1.325-.637 2.635-.94 3.937-.185.799-.37 1.598-.564 2.395a31.818 31.818 0 01-.665 2.417 18.42 18.42 0 01-3.282 5.956c-.168.204-.351.439-.317.7.045.34.418.516.74.633-.298.131-.28.6-.042.823.237.222.587.263.91.294l1.108.105c.284.026.582.051.843-.064.168-.074.308-.202.47-.286.579-.3 1.268-.008 1.882.206a7.56 7.56 0 002.668.418c.38-.01.822-.088.995-.426.067-.13.081-.28.137-.416a.751.751 0 011.006-.357c.314.169.465.545.762.741.24.158.54.179.826.195l1.627.094a.688.688 0 00-.04-.735 1.618 1.618 0 001.24-2.692 2.31 2.31 0 01-.495-.9c-.529-1.983-.573-4.066-1.06-6.06-.098-.398-.214-.794-.276-1.2-.078-.514-.07-1.036-.09-1.556a14.208 14.208 0 00-.609-3.604c-.241-.79-.56-1.572-1.088-2.207a1.394 1.394 0 00-.491-.408c-.197-.086-.443-.087-.612.044-.099.077-.162.188-.248.279-.185.194-.456.275-.714.347-.52.147-.815.442-1.354.422z" fill="#2F2E41"/><path d="M60.726 34.583c-.034.168-.072.336-.11.503-.23 1.001-.468 2-.714 2.998a2.94 2.94 0 01-.191.591c-.154.314-.413.565-.588.868-.174.303-.246.716-.021.984.143.171.372.241.59.296.205.052.44.094.617-.023.19-.123.239-.375.266-.599.118-.953.15-1.924.413-2.847.088-.308.2-.609.314-.91l.667-1.774c.166-.442.335-.897.336-1.37a.333.333 0 00-.077-.252.32.32 0 00-.12-.061c-.281-.09-1.003-.165-1.194.143-.093.152-.048.504-.068.682a9.32 9.32 0 01-.12.77zM69.075 33.5a52.757 52.757 0 001.467 3.7c.068.144.125.293.17.445.035.136.052.276.075.415.121.721.476 1.445 1.11 1.81.11.073.24.111.371.112.262-.015.448-.27.52-.522.05-.176.064-.361.041-.543a.245.245 0 00-.045-.13.274.274 0 00-.114-.067c-.387-.154-.782-.367-.977-.735a2.068 2.068 0 01-.174-.578l-.378-1.921c-.045-.229-.09-.458-.152-.682a9.217 9.217 0 00-.175-.544l-.413-1.197-.304-.881a.128.128 0 00-.052-.09.13.13 0 00-.102-.023l-.85-.001c-.564 0-.122 1.138-.018 1.431zM65.11 25.043a1.948 1.948 0 100-3.895 1.948 1.948 0 000 3.895z" fill="#FFB8B8"/><path d="M64.088 25.461c-.112.172-.293.283-.469.388-.33.211-.677.392-1.038.54-.326.123-.678.197-.96.399-.298.212-.49.547-.594.897-.105.35-.131.717-.157 1.081a.503.503 0 00.018.224c.043.108.154.172.261.219.543.24 1.151.276 1.745.299 1.187.045 2.376.051 3.565.058.462.031.926-.046 1.354-.227l.814-.292c.115-.035.224-.087.324-.152.345-.249.358-.76.25-1.171-.08-.312-.225-.629-.495-.805a1.988 1.988 0 00-.5-.197 4.99 4.99 0 01-1.602-.849 1.195 1.195 0 01-.294-.304c-.146-.242-.127-.543-.127-.826a.328.328 0 00-.073-.248.334.334 0 00-.197-.064c-.463-.046-.942-.081-1.397.034-.283.072-.311.088-.3.365.01.217-.007.444-.128.631z" fill="#FFB8B8"/><path d="M67.89 21.041l-1.762-.922-2.431.377-.504 2.222 1.253-.048.35-.817v.803l.578-.022.335-1.3.21 1.384 2.054-.042-.084-1.635z" fill="#2F2E41"/><path opacity=".1" d="M65.783 29.384c-.078-1.183-1.522-1.285-1.537-1.286l.003-.044c.014 0 1.301.092 1.543 1.092.033-.374.178-1.06.8-1.093l.003.045c-.81.042-.768 1.271-.768 1.284l-.044.002z" fill="#000"/><path d="M65.361 29.043l-4.392-.863a.164.164 0 00-.221.123l-.16.33c-.139.254-.223.535-.245.824l-.098.735a.647.647 0 01-.116.345.619.619 0 01-.165.124 1.402 1.402 0 00-.396.291c-.105.127-.157.314-.08.459.125.235.48.225.663.418.169.178.136.467.039.692-.063.145-.15.29-.142.448a.525.525 0 00.295.415c.161.075.336.118.514.126.377.038.756.05 1.135.033.19.003.38-.034.555-.108.17-.083.313-.25.316-.44.005-.312-.35-.56-.305-.87a.172.172 0 01.032-.084c.061-.075.18-.044.274-.07.148-.04.209-.228.176-.378s-.131-.276-.205-.41a1.372 1.372 0 01-.168-.786c.338.083-.098.394-.05.739.117.845.498 1.811.345 2.65a.27.27 0 00.026.226.24.24 0 00.114.063c.56.175 1.153-.06 1.73-.168a6.848 6.848 0 011.215-.09c.6-.005 1.2.013 1.8.052.152.01.31.02.448-.045.137-.065.238-.233.174-.37.472-.01.916.288 1.387.248.507-.043.892-.457 1.224-.843a.718.718 0 00.192-.326c.024-.142-.038-.282-.085-.418a2.26 2.26 0 01-.111-.467.463.463 0 01.034-.295c.06-.103.187-.152.26-.248.146-.194.01-.482-.182-.632-.192-.149-.436-.23-.603-.407-.235-.246-.268-.614-.327-.95-.052-.295-.139-.596-.336-.822-.197-.226-.529-.357-.807-.246a2.59 2.59 0 00-.25.136c-.164.079-.34.135-.52.167-1 .226-1.977.89-2.984.692z" fill="#E75AA3"/><path d="M58.867 39.044s2.298.952 1.57 1.513c-.73.56-2.243-.673-2.187-.84.056-.169-.224-.561-.224-.561l.84-.112z" fill="#AD787F"/><path d="M56.849 31.532l.728.673.169 1.962.56 2.074s.953 1.962.785 2.354c-.168.392.168.505.168.505l-1.29.504s-1.4-1.57-1.4-1.906c0-.336.28-6.166.28-6.166z" fill="#7D58CB"/><path opacity=".1" d="M56.849 31.532l.728.673.169 1.962.56 2.074s.953 1.962.785 2.354c-.168.392.168.505.168.505l-1.29.504s-1.4-1.57-1.4-1.906c0-.336.28-6.166.28-6.166z" fill="#000"/><path d="M63.744 53.35s-.28 1.289-.337 1.401c-.056.112 1.065.505 1.065.505l1.346-.953s-.56-1.234-.56-1.458l-1.514.505z" fill="#645583"/><path d="M56.4 39.156l.393.448s8.128 1.009 8.296 2.578c.168 1.57 1.345 10.607.673 10.831-.673.225-2.41 1.066-2.41.617 0-.448-1.122-8.252-.898-9.373 0 0-9.697-1.234-9.922-2.635-.224-1.401.225-2.018.225-2.018l3.643-.448z" fill="#302F61"/><path opacity=".3" d="M56.4 39.156l.393.448s8.128 1.009 8.296 2.578c.168 1.57 1.345 10.607.673 10.831-.673.225-2.41 1.066-2.41.617 0-.448-1.122-8.252-.898-9.373 0 0-9.697-1.234-9.922-2.635-.224-1.401.225-2.018.225-2.018l3.643-.448z" fill="#2F2E41"/><path d="M63.632 54.639s-.225-.505-.337-.336c-.112.168-.504 2.13-.112 2.13.393 0 3.98.897 4.485.785.504-.113 1.457.056 1.345-.505-.112-.56-.673-.617-.673-.617s-2.074-1.233-2.186-1.85c-.112-.616-.729-.28-.729-.28v.393s-1.177.897-1.793.28z" fill="#302F61"/><path d="M52.981 27.272s.392 1.906-.448 2.074c-.841.168 1.065 1.29 1.065 1.29l1.233.672.897-.897s-.813-1.654-.196-2.887c.616-1.233-2.551-.252-2.551-.252z" fill="#9F616A"/><path d="M55.728 30.41l-.897.898-1.233-.673s-1.906-1.121-1.065-1.29c.54-.107.57-.935.524-1.511a5.191 5.191 0 00-.076-.562s3.167-.981 2.55.252c-.093.19-.158.394-.192.603-.19 1.108.389 2.284.389 2.284z" fill="#AD787F"/><path d="M58.867 53.338v1.289h2.13l.168-.505-.224-1.345-2.074.56z" fill="#645583"/><path d="M50.066 40.277s0 3.307 1.345 3.42c1.346.111 6.166.728 6.166.728s.28 5.493.785 7.287c.505 1.794.056 1.906.505 2.018.448.112 2.354-.28 2.298-.673-.056-.392-.28-10.314-.28-10.314s.504-2.13-6.222-3.139l-4.597.673z" fill="#302F61"/><path d="M59.035 54.234s-.336-.728-.392-.504c-.056.224-.73 2.186-.056 2.354.672.168 2.802 1.065 4.204 1.01 1.401-.057 1.57-.113 1.57-.113s.392-.56-.113-.897c-.504-.336-2.578-2.298-2.69-2.522-.113-.224-.953-.393-.953 0 0 .392-1.178 1.177-1.57.672z" fill="#302F61"/><path opacity=".1" d="M55.532 27.978c-.094.19-.16.394-.193.603-.28.169-.466.126-.816.126-.52 0-.73-.665-1.066-1.01-.026-.32-.476.029-.476.029s3.167-.981 2.55.252z" fill="#000"/><path d="M54.447 28.595a2.147 2.147 0 100-4.294 2.147 2.147 0 000 4.294z" fill="#AD787F"/><path d="M57.578 32.205s-.28 2.018-.449 2.746c-.168.73-.392 4.092-.504 4.54-.112.45-.785.562-2.13.393a2.55 2.55 0 00-.255-.019c-.829-.026-1.776.284-2.654.527-.504.14-.986.258-1.408.277-.639.03-.826-.68-.804-1.446.02-.714.223-1.479.412-1.75.34-.486.005-4.854.13-6.295.02-.22.05-.371.094-.43.336-.45 2.523-1.57 2.768-1.525.244.045 2.333 1.356 2.333 1.356.505 0 .488-.547.488-.547s.353.66 1.026.827c.672.168.953 1.346.953 1.346z" fill="#7D58CB"/><path d="M53.83 39.472s3.611.115 2.979.544c-.633.429-3.436.821-3.492.26-.056-.56.513-.804.513-.804z" fill="#AD787F"/><path opacity=".1" d="M54.24 39.865c.011.215-.568.7-.755 1.028-.103.182-.906-.058-1.899-.501-.762-.342-1.5-.733-2.212-1.17.02-.713.223-1.478.411-1.748.34-.487.006-4.855.132-6.296a.627.627 0 01.093-.039h.672c2.299 1.066-.336 5.662-.336 5.662s3.476 2.859 3.812 2.971a.1.1 0 01.082.093z" fill="#000"/><path d="M50.682 30.803h-.672s-.617.168-1.121 1.29c-.505 1.12-2.355 4.596-.729 5.941 1.626 1.346 5.101 2.915 5.325 2.523.224-.392 1.01-1.01.673-1.121-.336-.112-3.812-2.971-3.812-2.971s2.635-4.597.337-5.662z" fill="#7D58CB"/><path d="M54.117 25.45s.095-1.305 1.257-.773c1.162.532 1.086-.934.735-1.193-.351-.259-.34-.323-1.625-.15-1.284.174-3.778.467-2.972 3.05.807 2.583 1.537 1.918 1.537 1.918s-.641-2.324.008-1.881l.65.443.343-.073.067-1.341z" fill="#302F61"/><path opacity=".4" d="M40.604 21.735a2.365 2.365 0 100-4.731 2.365 2.365 0 000 4.73z" fill="#D857BC"/><path opacity=".4" d="M36.227 22.158a1.66 1.66 0 100-3.318 1.66 1.66 0 000 3.318z" fill="#FE6486"/><path opacity=".4" d="M77.631 46.608a1.66 1.66 0 100-3.319 1.66 1.66 0 000 3.319z" fill="#E75AA3"/><path d="M85.358 57.08H9.815v-.151h75.467l.076.151z" fill="#302F61"/></svg>