<svg width="67" height="60" fill="none" xmlns="http://www.w3.org/2000/svg"><path opacity=".1" d="M2.961 25.01c5.456-5.087 8.461-3.833 13.048-8.11 4.586-4.276 1.708-8.021 8.54-13.566 8.54-6.93 22.154.563 30.998 8.48 7.908 7.077 14.47 24.772 9.963 29.343-4.507 4.571-11.861 2.36-16.606 5.456-4.744 3.097-4.586 8.553-8.46 12.018-3.875 3.465-23.96-2.138-31.868-10.248C.668 40.273-2.495 30.098 2.96 25.01z" fill="#FFCB4D"/><path d="M31.26 47.744a20.641 20.641 0 1114.596-6.046 20.506 20.506 0 01-14.596 6.046zm0-41.149c-11.308 0-20.507 9.2-20.507 20.507 0 11.308 9.2 20.507 20.507 20.507 11.308 0 20.507-9.2 20.507-20.507 0-11.307-9.2-20.507-20.507-20.507z" fill="#302F61"/><path d="M16.805 8.338s-3.224-.909-4.178 3.497c-.954 4.406-.227 6.631-.227 6.631l7.199-.84s2.044-7.948-2.794-9.288z" fill="#302F61"/><path d="M10.517 32.372l1.47 6.34.276 2.481s-.18 2.596.788 4.873l.039.09c1.01 2.297.918 3.124.918 3.124h1.195l-.184-3.951s0-2.849-.46-3.952l-.275-8.638-3.767-.367zM15.57 33.658l4.32 7.81s.826 3.309 1.745 4.32l2.114 4.319.919-1.746-2.481-8.454-2.298-6.616-4.319.367z" fill="#FFB9B9"/><path d="M15.387 48.82l-1.562.092-.092 1.47s-2.849 2.941-.919 3.033c1.93.092 2.206-.735 2.206-.735s1.102-.827 1.102-1.195c0-.367-.184-1.47-.367-1.745-.184-.276-.368-.92-.368-.92zM24.668 47.718l-1.654 1.378s1.286 3.4 1.838 3.308c.55-.092 5.054-3.308 4.594-3.86-.46-.55-1.103-.183-1.103-.183s-2.021 1.01-2.48.551l-1.195-1.194zM10.884 26.674l-.827 3.125s-2.022 2.113-1.287 2.389c.735.276 1.287 0 1.379.367.092.368 2.94 1.287 4.043 1.011l.551-.276s.368 1.195.92 1.103c.55-.092 4.961-.092 4.87-.367-.092-.276-.736-1.287-.736-1.563 0-.275-.46-1.378-.46-1.378a.32.32 0 00.093-.184c0-.092-.184-4.778-.184-4.778l-7.443-.368-.92.92z" fill="#302F61"/><path d="M16.122 15.372a2.39 2.39 0 100-4.779 2.39 2.39 0 000 4.779z" fill="#FFB9B9"/><path d="M15.34 14.774s.276 1.654-.735 2.114l-1.01.46 3.951 3.032 1.378-3.768s-1.378-.275-1.286-2.205l-2.297.367z" fill="#FFB9B9"/><path d="M14.836 17.21s2.54.6 3.568-.848l2.313.296-.643 7.444s.091 4.043-.92 4.135c-1.01.091-.643-.827-.643-.827s-.46.643-1.194.643c-.735 0-2.206-.552-2.206-.552s-2.113-.275-2.756-.183c-.644.092-3.4.551-.736-2.114 0 0 1.379-.919 1.195-1.194-.184-.276-.46-1.47-.46-1.47l.093-5.147 2.034-.448.355.264z" fill="#FFD46B"/><path d="M11.436 28.788s2.205 1.47 2.665.368c.46-1.103-2.022-1.563-2.022-1.563l-.919.368.276.827zM18.42 29.431s-2.758-.184-2.298.827c.46 1.01 3.032.184 3.032.184l-.735-1.011z" fill="#FFB9B9"/><path d="M12.905 17.577l-.459-.184s-.735.46-1.378 1.93c-.644 1.47-1.838 3.951-1.838 3.951s-.552.092-.276.644c.276.551.276.46.092.735-.184.276-.368.551-.184.735.184.184.368.184.276.551-.092.368-.092.735 0 .827.092.092.827.552.735.827-.092.276-.46.368.092.368.551 0 .735.919.735.919l1.103.184s-.643-1.287.735-1.379c0 0-.368-.275-.368-.551s.276-.276-.183-.368c-.46-.092-.552-.183-.46-.46.092-.275.184-.459 0-.459s-.367.276-.184 0c.184-.275-.367-.827-.367-.827s1.102-2.848 1.838-3.124c.735-.276.091-4.319.091-4.319zM19.982 16.75l.735-.092s.919.184 1.194 1.286c.276 1.103.368 6.892.368 6.892s-.368.368-.184.827c.184.46.276.368.092.644-.184.275-.551.46-.551.827 0 .367 0 .551-.184.643-.184.092-.46 0-.46.276 0 .275-.826.918-.735 1.102.092.184.46.92-.827 1.287l-.46.46s-.55-1.471-1.102-1.471c0 0 .46-.092.368-.46-.092-.367.275-.55.275-.55l1.563-2.298.275-1.287-1.286-2.573.919-5.513z" fill="#FFD46B"/><path d="M17.056 9.687s-.908 2.408-3.134 3.407l-.363-2.135 3.497-1.272z" fill="#302F61"/><path d="M18.557 13.212c.17 0 .307-.206.307-.46 0-.253-.137-.459-.307-.459-.169 0-.306.206-.306.46 0 .253.137.46.306.46z" fill="#FFB9B9"/><path d="M66.982 53.975H36.794v.135h30.188v-.135zM66.982 50.613H36.794v.135h30.188v-.135zM62.857 41.027a15.129 15.129 0 01-21.386.62c-6.077-5.734-6.354-15.309-.62-21.385a15.128 15.128 0 0121.385-.621c6.077 5.735 6.355 15.309.62 21.386z" fill="#302F61"/><path d="M62.858 41.027a15.082 15.082 0 01-11.003 4.745V15.516a15.076 15.076 0 0110.382 4.125c6.077 5.735 6.354 15.309.62 21.386z" fill="#9A9EFF"/><path d="M46.807 34.07a6.94 6.94 0 1110.095 9.527 6.94 6.94 0 01-10.095-9.528z" fill="#797DE7"/><path d="M46.807 34.07a6.92 6.92 0 015.047-2.177v13.88a6.94 6.94 0 01-5.047-11.702z" fill="#fff"/><path d="M59.452 13.23a1.008 1.008 0 100-2.017 1.008 1.008 0 000 2.017z" fill="#6C63FF"/><path d="M38.34 47.587a1.815 1.815 0 100-3.63 1.815 1.815 0 000 3.63zM35.381 19.349a1.143 1.143 0 100-2.286 1.143 1.143 0 000 2.286z" fill="#302F61"/></svg>