<svg width="95" height="70" fill="none" xmlns="http://www.w3.org/2000/svg"><path opacity=".1" d="M56.361 58.635c7.603-4.757 25.304-.458 34.852-17.75C100.76 23.596 90.664 7.114 54.776.5c-32.4-5.971-76.947 43.666-42.067 64.468 20.398 12.165 36.05-1.576 43.652-6.332z" fill="#FFCB4D"/><path d="M83.89 61.352H57.273v.147H83.89v-.147z" fill="#302F61"/><path d="M68.409 22.307h-56.67v37.166h56.67V22.308z" fill="#43406F"/><path d="M31.262 59.474c2.355-10.294 2.633-24.207-6.63-37.167h16.143c6.995 5.441 18.577 17.097 23.36 37.166H31.261z" fill="#B5D7AF"/><path d="M14.89 27.556a.48.48 0 100-.958.48.48 0 000 .958zM56.851 35.526a.213.213 0 100-.426.213.213 0 000 .426zM18.317 55.45a.213.213 0 100-.426.213.213 0 000 .426z" fill="#D0CDE1"/><path d="M56.64 27.483a.213.213 0 100-.426.213.213 0 000 .426zM23.364 46.828a.213.213 0 100-.425.213.213 0 000 .425z" fill="#E75AA3"/><path d="M15.755 31.145h-.107v-.107h-.053v.107h-.107v.053h.107v.106h.053v-.106h.107v-.053zM15.492 42.342h-.107v-.106h-.053v.106h-.106v.053h.106v.107h.053v-.107h.107v-.053zM21.8 24.626h-.106v-.107h-.053v.107h-.107v.053h.107v.107h.053v-.107h.106v-.053zM65.433 52.488h-.106v-.106h-.053v.106h-.107v.053h.106v.107h.054v-.107h.106v-.053zM64.382 32.249h-.107v-.107h-.053v.107h-.106v.053h.106v.106h.053v-.106h.107v-.053zM20.854 33.668h-.106v-.106h-.054v.106h-.106v.053h.106v.107h.054v-.107h.106v-.053zM27.74 52.33h-.106v-.106h-.053v.106h-.106v.054h.106v.106h.053v-.106h.107v-.054zM62.121 37.19h-.106v-.106h-.054v.106h-.106v.054h.106v.106h.054v-.106h.106v-.054zM27.898 39.661h-.106v-.106h-.053v.106h-.107v.053h.107v.107h.053v-.107h.106v-.053zM63.698 44.182h-.106v-.106h-.053v.106h-.107v.053h.107v.107h.053v-.107h.106v-.053zM63.856 25.835h-.107v-.106h-.053v.106h-.106v.053h.106v.107h.053v-.107h.107v-.053zM49.084 25.204h-.106v-.106h-.054v.106h-.106v.053h.106v.107h.054v-.107h.106v-.053zM23.167 38.294h-.106v-.106h-.054v.106h-.106v.053h.106v.107h.054v-.107h.106v-.053z" fill="#D0CDE1"/><path d="M46.155 57.67l5.61-8.342-5.598 9.24.011.938a24.64 24.64 0 01-1.216-.02l.278-12.066-.008-.094.01-.018.027-1.14-6.143-8.919 6.136 8.066.022.24.21-9.116-5.306-9.247 5.32 7.646-.055-18.887v-.063l.002.062.352 14.885 4.836-6.046-4.82 7.329.106 8.154 4.45-7.958-4.434 9.157.059 4.534 6.471-11.086-6.451 12.668.131 10.083z" fill="#2F2E41"/><path d="M19.73 51.703c.164 5.63-3.127 7.694-7.256 7.815a12.526 12.526 0 01-.855-.004c-3.734-.155-6.69-2.138-6.843-7.375-.159-5.419 6.568-12.46 7.073-12.982l.03-.03s7.686 6.945 7.85 12.576z" fill="#F08DC0"/><path d="M12.177 58.665l2.623-3.9-2.617 4.32.005.438a11.53 11.53 0 01-.569-.01l.13-5.641-.003-.044.005-.008.012-.533-2.872-4.17 2.869 3.77.01.113.098-4.262-2.48-4.324 2.487 3.575-.026-8.831v-.03l.001.03.165 6.96 2.261-2.828-2.254 3.427.05 3.813 2.08-3.721-2.073 4.281.028 2.12 3.026-5.183-3.017 5.923.061 4.715z" fill="#302F61"/><path d="M68.59 17.527c.164 5.631-3.126 7.695-7.255 7.815a12.526 12.526 0 01-.855-.004c-3.734-.155-6.69-2.137-6.843-7.374-.159-5.42 6.568-12.461 7.073-12.982l.03-.03s7.686 6.944 7.85 12.575z" fill="#FFD97E"/><path d="M61.038 24.489l2.623-3.9-2.618 4.32.005.439c-.191.001-.38-.002-.568-.01l.13-5.642-.004-.044.005-.008.012-.533-2.872-4.17 2.869 3.77.01.114.098-4.263-2.48-4.324 2.488 3.575-.026-8.831v-.03.03l.165 6.96 2.261-2.828-2.253 3.427.049 3.813 2.08-3.721-2.072 4.282.027 2.12 3.026-5.184-3.017 5.923.062 4.715z" fill="#302F61"/><path d="M49.54 11.077a.422.422 0 100-.844.422.422 0 000 .844z" fill="#EF8DC0"/><path d="M31.917 17.57a.422.422 0 100-.844.422.422 0 000 .843z" fill="#FFD97E"/><path d="M81.925 30.957a.422.422 0 100-.843.422.422 0 000 .843z" fill="#9A9EFF"/><path d="M73.318 16.473a.422.422 0 100-.843.422.422 0 000 .843z" fill="#EF8DC0"/><path d="M17.92 11.077a.422.422 0 100-.844.422.422 0 000 .844z" fill="#9A9EFF"/><path d="M14.041 17.99a.422.422 0 100-.842.422.422 0 000 .843z" fill="#EF8DC0"/><path d="M41.36 12.088a.927.927 0 100-1.854.927.927 0 000 1.854z" fill="#9A9EFF"/><path d="M24.665 16.98a.928.928 0 100-1.856.928.928 0 000 1.855z" fill="#EF8DC0"/><path d="M34.194 8.125a.928.928 0 100-1.855.928.928 0 000 1.855zM78.124 24.062a.927.927 0 100-1.855.927.927 0 000 1.855z" fill="#FFD97E"/><path d="M70.285 20.819c-.22-.025-.382.201-.37.396.013.196.133.37.201.557.149.408.041.85-.067 1.269l-.371 1.433c-.13.5-.307 1.06-.816 1.307.48.05.982-.192 1.194-.576.097-.176.145-.385.315-.51.178-.13.444-.124.657-.046.213.078.389.217.569.345.25.177.527.34.842.39.316.05.677-.04.85-.277.159-.216.165-.538.421-.658.21-.099.467.002.668.114.202.112.425.242.658.198.278-.052.427-.342.4-.593-.026-.25-.177-.476-.298-.704a3.26 3.26 0 01-.317-2.183c.101-.489.318-.976.237-1.468-.113-.68-.809-1.21-1.57-1.35-.76-.138-1.559.059-2.236.396-.44.22-.853.51-1.082.907-.229.398-.235.918.084 1.263" fill="#302F61"/><path d="M68.04 26.75l-.79 1.345-.87 2.954s-.449.949-.37 1.344c.08.396 0 .554 0 1.266s-.343 1.002 0 1.582c.343.58 1.371 2.268 1.371 2.268l.317.237s.422-1.582.87-1.714c0 0-.501-.263-.264-.606.238-.343.475-.543.264-.773-.21-.23-.475-.124-.21-.651.263-.528.29-.923.29-1.002 0-.08.052-.818.606-.765.553.053-1.213-5.485-1.213-5.485zM76.69 25.169s1.291.237 1.634 1.133c.343.897 1.45 5.459 1.45 5.459s.343 1.318.238 1.74c-.106.422-.37.66-.185 1.134.185.474.58.633.29 1.16-.29.527-.633 1.793-1.503 2.136-.87.343-1.133.5-1.133.5l-.501-2.135.342-.237s0-.528-.026-.607c-.026-.079.186-.326.317-.44.131-.114.105-.957.105-.957l-1.16-3.903.131-4.983z" fill="#E75AA3"/><path d="M77.48 39.038l-4.904 2.4.448 9.123s1.846 6.75 1.714 7.225c-.132.475-1.872.343-3.903-.158-2.03-.5-1.028-8.49-1.028-8.49s-1.978-10.1-2.188-11.154c-.156-.781.771-2.097 1.263-2.727.173-.222.292-.358.292-.358l6.75-.29s.017.266.448.826c.112.144.25.308.423.492.844.896.686 3.111.686 3.111z" fill="#302F61"/><path d="M71.521 57.39l.37 2.427-.185 2.558s-1.398 3.164 1.16 3.348c2.558.185 1.397-2.742 1.397-2.742.135-.25.19-.535.159-.817-.053-.475-.897-4.984-.897-4.984l-2.004.21z" fill="#2F2E41"/><path d="M72.733 54.014l.245 1.609-.123 1.696s-.926 2.098.77 2.22c1.695.122.926-1.818.926-1.818a.92.92 0 00.105-.542c-.035-.315-.595-3.305-.595-3.305l-1.328.14z" fill="#2F2E41"/><path d="M76.083 37.298l1.398 1.74-2.663 15.61-2.268-.368-.264-13.66 3.797-3.322z" fill="#302F61"/><path d="M72.313 22.69a2.241 2.241 0 100-4.483 2.241 2.241 0 000 4.483z" fill="#AD787F"/><path d="M70.994 21.951l.317 3.455 2.821-.106s-.686-2.61-.316-3.718l-2.822.37z" fill="#AD787F"/><path d="M76.373 35.435c-.867.375-2.709.442-3.652.479-1.129.044-3.141-.349-3.838-.657.172-.222.292-.358.292-.358l6.75-.29s.017.266.448.826z" fill="#2F2E41"/><path d="M69.94 35.795s-.74 3.111-.713 3.111c.027 0 .976-.527.976-.527l.132-2.821h-.29l-.106.237z" fill="#2F2E41"/><path d="M77.006 35.637c-6.012-1.767-8.86.079-8.939 0-.08-.08 1.345-2.479.976-3.085-.37-.607-1.081-4.8-1.213-5.59-.132-.792 1.951-1.213 1.951-1.213l.318-.212.394-.263s4.667-.343 4.957-.554a.41.41 0 01.258-.045c.487.03 1.404.427 1.746.599.422.21-.29 5.616-.29 5.616s.027 2.743.37 3.824c.342 1.081-.528.923-.528.923z" fill="#E75AA3"/><path opacity=".1" d="M75.978 25.116s-.37.896-2.558 1.45c-2.189.554-2.61-.132-3.243-.923a1.303 1.303 0 01-.078-.107l.394-.262s4.667-.343 4.957-.554a.41.41 0 01.258-.045c.104.138.194.285.27.44z" fill="#000"/><path d="M74.554 23.85s-.142-1.636-.796-.567c-.654 1.068-.918 1.173-.918 1.173s-1.556-1.318-1.846-1.16c-.29.159-.66.686-.37 1.16.291.475-1.08.159-.447.95.632.79 1.054 1.477 3.243.923s2.558-1.45 2.558-1.45-.554-1.213-1.424-1.029z" fill="#E75AA3"/><path d="M70.661 17.043a1.706 1.706 0 00-1.158 1.14l-.003.012c.064-.206.137-.424.307-.557.17-.133.466-.122.556.074.021.05.03.103.026.157-.015.236-.22.412-.426.53-.205.118-.435.217-.57.412-.22.322-.09.754-.09 1.145a1.658 1.658 0 01-.629 1.288l.744-.304a5.624 5.624 0 00-.687 2.015l1.006-.831a4.423 4.423 0 00-.66 1.963l.807-.827c.13.223 0 .503-.13.726-.13.223-.264.497-.142.725.683-.319 1.03-1.11 1.094-1.86.063-.752-.099-1.503-.142-2.256-.021-.368.02-.803.335-.995.296-.181.677-.05.998.084l1.814.759c.177.074.36.153.483.3.22.268.167.667.053.995-.114.328-.28.657-.244 1.003.027.251.158.478.29.695.131.216.27.437.313.686.043.25-.033.538-.249.67a1.064 1.064 0 001.308-1.103c-.032-.497-.41-.943-.36-1.44.037-.376.312-.685.418-1.048a1.238 1.238 0 00-.482-1.336l.576.613a.874.874 0 00-.065-1.056c-.247-.273-.66-.375-.852-.69-.197-.323-.09-.761-.277-1.09-.456-.807-1.624-.235-2.323-.517-.288-.115-.506-.243-.83-.233a3.24 3.24 0 00-.809.15z" fill="#302F61"/></svg>