<svg width="122" height="94" fill="none" xmlns="http://www.w3.org/2000/svg"><path opacity=".1" d="M60.779 93.576c15.291-1.638 17.749-13.653 30.856-27.578 12.099-12.856 43.508-40.6 23.21-58.98-18.387-16.65-36.28 4.202-57.889 11.74-21.608 7.54-48.75 2.78-55.157 22.664C-4.608 61.305 19 62.994 31.562 74.735c12.56 11.742 13.926 20.48 29.217 18.841z" fill="#E75AA3"/><path d="M27.03 63.758c-3.151-1.757-5.113-4.155-5.83-7.128-.534-2.208-.38-4.692.455-7.384a19.775 19.775 0 012.75-5.555c6.382-9.034 6.958-14.92 6.317-18.267-.702-3.67-2.984-5.194-3.007-5.21l.098-.15c.024.014 2.366 1.574 3.085 5.319.415 2.159.22 4.62-.58 7.316-.995 3.355-2.934 7.089-5.766 11.096a19.594 19.594 0 00-2.725 5.504c-1.37 4.415-1.563 10.48 5.291 14.301l-.088.158z" fill="#302F61"/><path d="M28.546 63.758c3.152-1.757 5.113-4.155 5.831-7.128.533-2.208.38-4.692-.455-7.384a19.775 19.775 0 00-2.75-5.555c-6.382-9.034-6.958-14.92-6.317-18.267.702-3.67 2.984-5.194 3.007-5.21l-.099-.15c-.023.014-2.365 1.574-3.085 5.319-.414 2.159-.22 4.62.58 7.316.995 3.355 2.935 7.089 5.766 11.096A19.594 19.594 0 0133.75 49.3c1.37 4.415 1.564 10.48-5.29 14.301l.087.158zM97.23 56.169c-3.151-1.757-5.113-4.155-5.83-7.128-.534-2.208-.38-4.692.454-7.384a19.775 19.775 0 012.75-5.555c6.382-9.034 6.958-14.92 6.318-18.267-.703-3.67-2.985-5.194-3.007-5.21l.098-.15c.023.014 2.366 1.574 3.085 5.319.414 2.159.219 4.62-.58 7.316-.995 3.355-2.935 7.089-5.766 11.096a19.594 19.594 0 00-2.725 5.504c-1.37 4.415-1.563 10.48 5.291 14.301l-.088.158z" fill="#302F61"/><path d="M98.746 56.169c3.151-1.757 5.113-4.155 5.83-7.128.533-2.208.38-4.692-.455-7.384a19.775 19.775 0 00-2.75-5.555c-6.382-9.034-6.958-14.92-6.317-18.267.702-3.67 2.984-5.194 3.007-5.21l-.099-.15c-.023.014-2.365 1.574-3.084 5.319-.415 2.159-.22 4.62.58 7.316.994 3.355 2.934 7.089 5.766 11.096a19.61 19.61 0 012.725 5.504c1.369 4.415 1.563 10.48-5.291 14.301l.088.158zM50.834 36.212c-2.368-4-7.052-4.187-7.052-4.187s-4.565-.583-7.493 5.51c-2.73 5.679-6.496 11.162-.607 12.492l1.064-3.311.66 3.557c.838.06 1.679.075 2.52.043 6.306-.203 12.313.06 12.12-2.203-.257-3.01 1.066-8.051-1.212-11.9z" fill="#302F61"/><path d="M41.115 44.586c.816 1.804 1.33 3.956 1.637 6.345l6.55-.41c-1.506-2.133-2.006-4.583-1.432-7.368l-6.755 1.433z" fill="#FFB8B8"/><path opacity=".2" d="M41.115 44.586c.816 1.804 1.33 3.956 1.637 6.345l6.55-.41c-1.506-2.133-2.006-4.583-1.432-7.368l-6.755 1.433z" fill="#000"/><path d="M10.725 78.947s-3.39 1.815-1.67 3.366c1.72 1.55 3.992-2.052 3.992-2.052l-2.322-1.314z" fill="#FFB8B8"/><path d="M52.168 73.651l-.053 2.481-.113 5.36v.001l-.033 1.553H30.291l.88-4.893.002-.003.788-4.38.352-1.96v-.001l17.808-2.456 2.047 4.298z" fill="#302F61"/><path d="M52.168 73.652l-.053 2.48c-6.3-.161-16.066-1.682-20.154-2.362l.352-1.96 17.808-2.457 2.047 4.299z" fill="#3C3A78"/><path d="M44.288 46.325a5.117 5.117 0 100-10.234 5.117 5.117 0 000 10.234z" fill="#FFB8B8"/><path d="M54.113 76.415s.614 5.526-3.07 5.117l-.614-5.527-3.275-3.275-9.211-.204-6.755 6.345s-.205-6.55.614-7.164c.819-.614 2.661-2.047 2.661-2.047v-1.023l-5.527-11.258s3.276-6.755 5.937-6.96l3.48-.204s1.227-.614 1.227-.82c0-.204-.204-1.841.82-1.432 0 0 .091-2.1 1.17-1.46 0 0 3.396 2.662 6.843.117 0 0 1.607-.294 1.402.524-.205.82 0 1.433.41 1.433.408 0 2.25.614 2.25 1.024 0 .088.134.935.343 2.21v.002c.759 4.649 2.523 14.981 2.523 14.981s1.843 2.661-1.228 9.62z" fill="#825FFE"/><path d="M30.369 56.356l-1.433 1.023-13.1 16.785-6.96 5.526s3.89-.614 3.07 2.661l23.95-13.714-5.527-12.281z" fill="#825FFE"/><path d="M52.817 51.811v.002c-.272 1.601-9.143 1.267-10.371 1.267-1.229 0-2.252-.204-3.48-1.023-1.228-.819-.614-1.842-.614-1.842s1.046-.797 1.046-1.002c0-.204-.205-1.842.818-1.432 0 0 .092-2.1 1.171-1.46 0 0 3.578 2.844 7.025.3 0 0 1.607-.295 1.402.523-.204.82 0 1.433.41 1.433s2.251.614 2.251 1.024c0 .088.133.935.342 2.21z" fill="#3C3A78"/><path d="M51.76 44.177s-1.638-3.48-3.276-1.843c-1.638 1.638 1.842 4.094 1.842 4.094l1.433-2.251z" fill="#FFB8B8"/><path d="M51.758 43.358s-2.528 3.195-3.31 3.44c0 0 2.287 9.046 5.153 11.502l1.637 8.392s6.96-2.865 5.322-7.573l-.049-.14a46.435 46.435 0 00-5.61-11.06l-3.143-4.561z" fill="#825FFE"/><path opacity=".2" d="M50.408 52.835l5.035 13.857-1.842-8.392-3.193-5.465z" fill="#000"/><path d="M49.786 35.827l-4.628-2.424-6.39.992-1.323 5.84 3.292-.127.92-2.145v2.11l1.518-.059.882-3.415.55 3.636 5.4-.11-.22-4.298z" fill="#302F61"/><path d="M93.505 67.328l2.626 9.366s-.541 8.296 1.984 6.673c2.584-1.661 1.623-8.657 1.623-8.657l-1.513-8.403-4.72 1.02z" fill="#AD787F"/><path d="M94.908 41.053l2.169 2.168v10.331s1.275 1.913 1.02 2.424c-.255.51-.51.51-.255.892.255.383.51.638.255.893s-.255.893 0 1.148c.255.255.765.638.383 1.02-.383.383-.893.128-.383 1.531s1.403 1.786 1.148 2.296c-.255.51-.255 1.786-.255 1.786l-5.485.765-1.148-14.413 2.551-10.841z" fill="#E75AA3"/><path d="M99.245 65.414l-6.378.255.255 2.679 5.612-1.02.51-1.914z" fill="#3C3A78"/><path d="M81.707 27.724l-.766 7.653 7.78 1.148.575-4.4.574-4.401h-8.163z" fill="#A0616A"/><path d="M81.707 27.683l-.766 7.653 7.78 1.147.575-4.4.574-4.4h-8.163z" fill="#A27077"/><path d="M64.808 64.139l4.336 9.31s.765 4.337 1.913 4.465c1.148.127 2.296-4.464 2.296-4.464l-1.53-2.424-1.786-6.887h-5.23z" fill="#AD787F"/><path d="M94.492 83.136H69.975c.194-3.073.317-4.967.317-4.967l.325-.513 1.579-2.48 1.127-1.772.393-.618.146-.23 1.544-.281 15.93-2.907a19.46 19.46 0 001.114 3.443c.109.247.225.494.35.739.4.782.89 1.522 1.47 2.068.133.124.229.455.29.964.154 1.247.11 3.565-.068 6.554z" fill="#302F61"/><path d="M85.98 30.21a6.122 6.122 0 100-12.244 6.122 6.122 0 000 12.245z" fill="#AD787F"/><path d="M72.332 36.588l-.893-.51s-3.954 2.679-5.23 8.673c-1.275 5.995-2.168 7.526-2.168 7.526s-1.275.255-.383 1.148c.893.892.893.765.128 1.275-.765.51-1.276-.51-.765.51.51 1.02 1.148.765.637 1.403-.51.638-1.403.638-.892 1.148.51.51-.51 1.658.127 2.168.638.51.893.638.893 1.531a4.517 4.517 0 00.255 1.53h6.633s-1.276-2.423-.893-2.933c.382-.51.51-1.02.255-1.275-.255-.255-1.02.255-.255-.383s1.02-.255.765-1.02c-.255-.766-.765-.383-.255-.766.51-.382.893-.255.638-.638-.255-.382-.766-.382-.255-.637.51-.255.892 0 .765-.638-.128-.638-.255-.383 0-.638s2.933-8.928 2.933-9.183c0-.255-2.04-8.29-2.04-8.29z" fill="#E75AA3"/><path d="M71.057 62.48l-8.035.51 2.04 1.914 5.612.127.383-2.55zM73.353 72.047l-1.658 3.061s4.975.638 6.76 1.275c1.786.638 6.378 1.531 6.378 1.531l1.148-4.464-12.628-1.403zM87.894 73.45l1.403 4.209 5.612-1.148-.638-3.954-6.377.893z" fill="#3C3A78"/><path d="M90.19 32.252s-.383-.255-1.276.255-3.826.765-5.23-.765c-1.403-1.531-2.423-2.806-2.805-2.551-.383.255-.638 3.188-.638 3.188l-1.276 1.02-7.525 2.68.638 17.218 1.148 3.954s-.893 3.061.255 4.847c1.148 1.786-.638 2.423-.638 2.423s-.383.51-.128 1.786c.255 1.275-.255 5.995-.255 5.995s10.842 4.846 22.194.637l-1.276-4.846-.638-10.842s.638-1.786.51-2.55c-.127-.766 3.827-11.48 3.827-11.48s-.638-5.357-3.954-6.505c-3.316-1.148-3.826-2.296-3.826-2.296s1.53-1.658.892-2.168z" fill="#E75AA3"/><path d="M79.815 24.873s-.635-.953-.39-1.98a5.998 5.998 0 00.17-1.785s.514-1.663 1.027-2.592c.514-.93.27-1.32 1.883-1.614 1.614-.294.954-2.397 5.209-.123a1.247 1.247 0 001.296.49c.88-.172 1.198 1.051 1.198 1.051s.587-.342.807.147c.22.489 1.789-.294 1.789 3.007s-1.786 6.25-1.786 6.25.131-5.553-2.779-6.115c-2.91-.563-6.04-2.2-6.797-.098-.758 2.103-1.627 3.362-1.627 3.362z" fill="#302F61"/><path d="M91.082 26.193c.317 0 .574-.342.574-.765 0-.422-.257-.765-.574-.765-.317 0-.574.343-.574.765 0 .423.257.765.574.765z" fill="#AD787F"/></svg>