<svg width="240" height="218" fill="none" xmlns="http://www.w3.org/2000/svg"><path opacity=".1" d="M212.192 91.782c31.811 20.114 35.537 47.143 11.452 74.172-33.878 38.019-108.156 69.144-133.606 38.972-25.45-30.172-71.258-35.201-82.71-50.286-11.452-15.086-7.635-32.686 11.452-57.83 19.088-25.142 6.362-52.8 22.904-79.2C58.226-8.79 154.931-5.018 168.928 32.697c11.198 30.172 11.453 38.972 43.264 59.086z" fill="#E75AA3"/><path d="M50.01 31.222c.372-.423.757-.843 1.145-1.25l.407.388c-.383.402-.764.816-1.131 1.233l-.422-.371z" fill="#3F3D56"/><path d="M53.644 27.575a41.81 41.81 0 012.676-2.184l.337.45a41.351 41.351 0 00-2.64 2.154l-.373-.42zm5.524-4.138a41.895 41.895 0 013-1.712l.259.5a41.194 41.194 0 00-2.96 1.688l-.299-.476zm6.133-3.168a42.358 42.358 0 013.24-1.194l.173.534a41.742 41.742 0 00-3.198 1.178l-.215-.518zm6.696-1.574l-.128-.547a42.546 42.546 0 013.39-.653l.084.556a42.012 42.012 0 00-3.346.644zm6.733-1.012l-.038-.56a41.98 41.98 0 013.452-.089l-.009.562a41.298 41.298 0 00-3.406.087zm6.807.109l.055-.559c1.142.113 2.293.276 3.422.484l-.102.553a41.234 41.234 0 00-3.375-.478zm21.056 74.028a41.152 41.152 0 002.617-2.182l.378.417a41.91 41.91 0 01-2.653 2.211l-.342-.446zM92.237 19.025l.147-.542c1.106.3 2.214.65 3.294 1.04l-.191.529a41.64 41.64 0 00-3.25-1.027zm19.401 68.223a41.306 41.306 0 002.223-2.583l.441.349c-.712.9-1.471 1.78-2.253 2.617l-.411-.383zM98.642 21.342l.233-.511a42.514 42.514 0 013.08 1.565l-.275.49a41.76 41.76 0 00-3.038-1.544zm17.223 60.567a41.566 41.566 0 001.772-2.911l.491.272a42.175 42.175 0 01-1.795 2.95l-.468-.31zm-11.284-57.236l.314-.466c.951.641 1.887 1.33 2.783 2.046l-.352.439a41.47 41.47 0 00-2.745-2.019zm14.584 51.279a41.846 41.846 0 001.272-3.162l.53.188a42.87 42.87 0 01-1.29 3.205l-.512-.231zm-9.269-47.024l.386-.408a42.03 42.03 0 012.409 2.473l-.418.375a41.565 41.565 0 00-2.377-2.44zm11.55 40.607c.291-1.096.539-2.215.737-3.328l.554.099a42.528 42.528 0 01-.747 3.373l-.544-.144zm-7.006-35.54l.448-.34a42.018 42.018 0 011.968 2.836l-.475.3a41.08 41.08 0 00-1.941-2.796zm8.203 28.835c.106-1.127.165-2.272.177-3.404l.562.006a41.392 41.392 0 01-.18 3.45l-.559-.052zm-4.558-23.088l.498-.26a42.204 42.204 0 011.474 3.122l-.518.219a41.605 41.605 0 00-1.454-3.081zm4.63 16.277a41.592 41.592 0 00-.387-3.385l.556-.087c.177 1.136.309 2.29.391 3.432l-.56.04zm-1.981-10.006l.534-.175c.358 1.087.676 2.209.944 3.322l-.546.131a42.216 42.216 0 00-.932-3.278zM102.341 94.675c.479-.28.96-.574 1.428-.874l.303.473c-.475.304-.962.602-1.448.886l-.283-.485z" fill="#302F61"/><path d="M12.602 58.777l8.609-8.608 7.791 7.79L41.986 45.8l4.893 4.37 9.032-8.48V67.66H12.602v-8.884z" fill="#7D58CB"/><path d="M153.5 137.879v55.666h71.604v-55.666H153.5zm62.254 14.886h-5.546v-5.546h5.546v5.546z" fill="#43416F"/><path d="M42.168 115.935h-4.62v6.006h4.62v-6.006zM114.525 155.636l-3.266-3.267-4.247 4.247 3.267 3.266 4.246-4.246zM100.898 50.77l-3.266-3.266-4.247 4.247 3.267 3.266 4.246-4.246z" fill="#302F61"/><path d="M158.813 175.584a41.12 41.12 0 01-.799 1.495l-.491-.275c.272-.484.538-.98.79-1.475l.5.255z" fill="#3F3D56"/><path d="M156.199 180.02a41.882 41.882 0 01-2.05 2.78l-.438-.352a41.746 41.746 0 002.023-2.743l.465.315zm-4.324 5.38c-.79.832-1.624 1.64-2.481 2.403l-.374-.419a41.184 41.184 0 002.448-2.371l.407.387zm-5.153 4.592a42.15 42.15 0 01-2.842 1.962l-.3-.475a41.394 41.394 0 002.804-1.936l.338.449zm-6.096 3.188l.261.497a42.47 42.47 0 01-3.122 1.475l-.219-.517c1.039-.44 2.076-.93 3.08-1.455zm-6.27 2.652l.176.534a42.018 42.018 0 01-3.322.943l-.131-.547c1.1-.263 2.203-.576 3.277-.93zm-6.62 1.585l.085.556c-1.134.173-2.29.301-3.435.38l-.039-.56c1.13-.078 2.27-.204 3.389-.376zm-38.784-66.479a41.48 41.48 0 00-1.992 2.764l-.47-.31c.633-.958 1.313-1.9 2.02-2.801l.442.347zm31.987 66.949l-.007.562a42.318 42.318 0 01-3.45-.19l.054-.559c1.127.108 2.272.171 3.403.187zm-35.737-61.266a41.61 41.61 0 00-1.512 3.053l-.514-.228c.467-1.048.982-2.09 1.533-3.095l.493.27zm28.957 60.612l-.099.554a42.72 42.72 0 01-3.372-.752l.145-.542c1.093.291 2.213.54 3.326.74zm-31.726-54.392a41.798 41.798 0 00-.993 3.261l-.544-.142a42.34 42.34 0 011.007-3.304l.53.185zm25.145 52.641l-.188.529a42.409 42.409 0 01-3.203-1.291l.231-.512c1.031.466 2.095.894 3.16 1.274zm-26.861-46.05a41.67 41.67 0 00-.448 3.379l-.56-.051a42.42 42.42 0 01.454-3.425l.554.097zm20.656 43.248l-.272.491a41.812 41.812 0 01-2.948-1.797l.312-.467c.94.628 1.918 1.224 2.908 1.773zM80.1 156.215c-.01 1.133.028 2.279.112 3.406l-.56.042a42.1 42.1 0 01-.114-3.453l.562.005zM95.714 188.9l-.35.44a41.899 41.899 0 01-2.61-2.257l.385-.409c.823.773 1.69 1.523 2.575 2.226zm-15.108-25.893c.177 1.117.404 2.241.674 3.341l-.546.133a41.744 41.744 0 01-.683-3.386l.555-.088zm10.15 21.232l-.418.376a42.063 42.063 0 01-2.203-2.659l.447-.34a41.307 41.307 0 002.173 2.623zm-8.528-14.618a41.47 41.47 0 001.215 3.184l-.516.222a42.092 42.092 0 01-1.232-3.227l.533-.179zm4.404 9.201l-.474.303a42.759 42.759 0 01-1.74-2.984l.497-.263c.53.999 1.108 1.992 1.717 2.944z" fill="#302F61"/><path d="M92.363 127.117c-.395.39-.787.794-1.166 1.201l-.411-.383a42.18 42.18 0 011.182-1.218l.395.4z" fill="#3F3D56"/><path d="M214.281 140.771c-.053-.087-1.303-2.174-1.736-6.508-.398-3.975-.142-10.677 3.333-20.025 6.584-17.71-1.517-31.998-1.6-32.14l.4-.233c.021.037 2.111 3.68 3.346 9.48a41.353 41.353 0 01-1.713 23.054c-6.573 17.679-1.686 26.048-1.636 26.131l-.394.241z" fill="#43406F"/><path d="M211.707 81.058a3.003 3.003 0 100-6.005 3.003 3.003 0 000 6.005z" fill="#9A9EFF"/><path d="M221.177 92.144a3.002 3.002 0 100-6.004 3.002 3.002 0 000 6.004z" fill="#302F61"/><path d="M214.709 99.536a3.003 3.003 0 100-6.006 3.003 3.003 0 000 6.006zM222.563 105.773a3.004 3.004 0 10-.001-6.007 3.004 3.004 0 00.001 6.007z" fill="#9A9EFF"/><path d="M212.4 115.473a3.002 3.002 0 100-6.004 3.002 3.002 0 000 6.004z" fill="#302F61"/><path d="M216.095 140.881s-3.003-7.391 6.005-12.935l-6.005 12.935zM212.402 140.747s-1.367-7.86-11.944-7.792l11.944 7.792z" fill="#43406F"/><path d="M116.886 187.676a2.77 2.77 0 01-2.718-3.312 2.774 2.774 0 015.023-.999 2.773 2.773 0 01-2.305 4.311zm0-5.081a2.307 2.307 0 00-2.265 2.76 2.31 2.31 0 102.265-2.76zM147.335 38.993h-4.56v-4.56h4.56v4.56zm-4.209-.35h3.858v-3.859h-3.858v3.858zM22.986 166.28l-3.11-3.334 3.334-3.11 3.11 3.334-3.334 3.11zm-2.614-3.317l2.631 2.822 2.822-2.632-2.632-2.822-2.821 2.632z" fill="#302F61"/><path opacity=".15" d="M145.44 136.06H62.792v-33.362h68.747l13.901 33.362z" fill="#9A9EFF"/><path d="M145.817 136.313H52.681V95.368h76.246l.065.157 16.825 40.788zm-92.63-.505h91.875l-16.473-39.934H53.187v39.934z" fill="#302F61"/><path d="M117.637 108.006H76.439v3.791h41.198v-3.791zM117.637 115.84H76.439v3.791h41.198v-3.791zM117.637 123.676H76.439v3.791h41.198v-3.791z" fill="#9A9EFF"/><path d="M75.529 73.204H6.366V31.166h53.749l.055.151L75.53 73.204zm-68.7-.462h68.038L59.792 31.628H6.828v41.114z" fill="#302F61"/><path d="M56.027 67.891H12.372V35.323h43.655v32.568zm-43.193-.462h42.731V35.785H12.834V67.43z" fill="#302F61"/><path d="M75.197 77.13a4.158 4.158 0 100-8.315 4.158 4.158 0 000 8.316zM144.954 140.419a4.157 4.157 0 10.002-8.314 4.157 4.157 0 00-.002 8.314z" fill="#9A9EFF"/><path d="M174.768 79.4a6.996 6.996 0 100-13.992 6.996 6.996 0 000 13.992z" fill="#AD787F"/><path d="M169.958 75.756s2.332 5.247-.874 7.287c-3.207 2.04 5.247 10.494 5.247 10.494l9.328-9.91s-4.956-3.207-4.081-8.454l-9.62.583zM153.927 97.91l-2.041 11.66s-3.498 6.996-3.498 13.117c0 6.122-.583 7.288-.583 7.288s-5.83 11.66-1.749 12.243c4.081.583 5.83-11.952 5.83-11.952s5.539-13.7 5.539-18.073l3.789-9.619-7.287-4.664zM196.193 98.493l.583 10.203s2.041 5.247.583 14.575l-1.166 9.036s2.624 10.203 0 10.494c-2.623.292-5.83-6.413-4.081-10.202v-3.207s-1.749-13.7-1.166-16.032l-2.04-11.077 7.287-3.79zM158.299 179.239l2.915 7.579 6.413-1.166-4.081-8.162-5.247 1.749zM185.992 185.36l-.875 11.077h7.288l-.292-9.62-6.121-1.457z" fill="#AD787F"/><path d="M162.964 118.898l-.874 4.373s-1.749 1.457-1.749 2.915c0 1.457-.583 2.04-.583 2.04s-.292 0-.583.583a3.64 3.64 0 01-.583.875s-17.199 17.489-13.409 26.234c3.789 8.745 11.077 26.527 11.077 26.527s8.453-2.624 8.453-4.664l-8.162-23.029 16.324-16.906 13.117 17.781s-2.623 31.19-.874 31.482c1.749.291 11.368 2.332 11.66 1.457.291-.874 1.749-39.643 1.166-41.101-.583-1.457-9.037-18.947-9.037-18.947s1.458-1.749.583-2.332c-.874-.583-2.332-6.122-2.332-6.122s-22.736-3.789-24.194-1.166z" fill="#302F61"/><path d="M175.497 86.25l-5.876-3.624s-3.452.126-4.327 1c-.874.875-6.121 3.207-6.121 3.207s1.166 34.98 3.498 33.814c2.332-1.166.583-2.04 2.332-1.166 1.749.875 22.445 1.166 22.737 1.166.291 0 .583-.583.583-.583l1.166-17.781 3.789-14.867-11.219-5.162-6.562 3.996z" fill="#FFD97E"/><path d="M161.505 86.542h-2.332s-3.206.874-4.664 5.538c-1.457 4.665-2.04 6.705-1.457 7.288.583.583 8.453 4.955 8.453 4.955V86.542zM189.198 87.125l4.081.292s5.247 12.243 3.79 12.826c-1.458.583-9.911 4.955-9.911 4.081 0-.875 2.04-17.199 2.04-17.199z" fill="#FFD97E"/><path d="M161.797 183.028l-2.377-.875-5.493 7.288s-10.203 7.287-.875 6.996c0 0 7.288-1.166 7.871-3.207 0 0 8.453-2.332 8.453-3.789 0-1.458-1.943-5.343-2.574-5.441-.632-.098-3.256 1.068-5.005-.972zM192.405 193.231s-7.087-.115-7.041.088c.045.203-1.996 4.867-1.704 6.616.291 1.749 2.915 4.081 2.332 5.247-.583 1.166 1.749 4.664 6.413 4.956 4.664.291 4.081-4.956 4.081-4.956l-2.332-5.538-1.749-6.413zM170.48 64.307c-.35.298-.715.577-1.094.837-.478.397-.92.835-1.32 1.31l-.451.506c-.384.43-.791.92-.775 1.496.006.214.072.421.098.633.102.842-.413 1.768.011 2.503.122.212.312.378.447.583.172.262.248.576.215.888.455.019.829-.39.972-.822.143-.433.123-.9.193-1.35.069-.451.265-.928.674-1.128.873-.428 1.875.684 2.807.407.651-.194.994-1 1.659-1.135.477-.097.935.186 1.377.386.443.2 1.04.293 1.353-.078.207-.246.229-.64.504-.808.329-.2.741.079.991.373.249.294.525.653.91.643.511-.014.903-.695 1.388-.534.548.183.296 1.059.628 1.531.281.4.87.376 1.353.31a.482.482 0 00.431-.184.491.491 0 00.074-.463l-.202-2.679a1.299 1.299 0 00-.119-.534c-.14-.255-.432-.384-.63-.597-.416-.449-.396-1.235-.914-1.56-.269-.17-.62-.165-.887-.337-.343-.22-.453-.663-.693-.993-.342-.47-.942-.689-1.521-.749-.579-.06-1.164.013-1.746-.006-1.184-.039-2.368-.372-3.557-.177-1.038.17-1.473 1.05-2.176 1.728z" fill="#302F61"/></svg>