<svg width="130" height="100" fill="none" xmlns="http://www.w3.org/2000/svg"><g filter="url(#filter0_dd)"><path d="M81.745 60.642C74.994 70.08 71.618 74.76 67.091 75.603a10.502 10.502 0 01-4.373 0c-4.45-.844-7.826-5.524-14.578-14.96L43 53.506c-9.054-12.583-13.657-18.951-12.276-24.168.46-1.611 1.227-3.146 2.302-4.45 3.452-4.143 11.201-4.143 26.776-4.143h10.205c15.575 0 23.4 0 26.853 4.143 1.074 1.304 1.841 2.838 2.302 4.45 1.381 5.217-3.223 11.585-12.276 24.168l-5.14 7.135z" fill="url(#paint0_linear)"/></g><defs><linearGradient id="paint0_linear" x1="33.935" y1="24.965" x2="34.759" y2="96.071" gradientUnits="userSpaceOnUse"><stop stop-color="#E75AA3"/><stop offset="1" stop-color="#B848C2"/></linearGradient><filter id="filter0_dd" x=".482" y=".746" width="128.921" height="115.088" filterUnits="userSpaceOnUse" color-interpolation-filters="sRGB"><feFlood flood-opacity="0" result="BackgroundImageFix"/><feColorMatrix in="SourceAlpha" values="0 0 0 0 0 0 0 0 0 0 0 0 0 0 0 0 0 0 127 0"/><feOffset dy="10"/><feGaussianBlur stdDeviation="15"/><feColorMatrix values="0 0 0 0 0.2 0 0 0 0 0 0 0 0 0 1 0 0 0 0.21 0"/><feBlend in2="BackgroundImageFix" result="effect1_dropShadow"/><feColorMatrix in="SourceAlpha" values="0 0 0 0 0 0 0 0 0 0 0 0 0 0 0 0 0 0 127 0"/><feOffset dy="4"/><feGaussianBlur stdDeviation="5"/><feColorMatrix values="0 0 0 0 1 0 0 0 0 0 0 0 0 0 0.517731 0 0 0 0.2 0"/><feBlend in2="effect1_dropShadow" result="effect2_dropShadow"/><feBlend in="SourceGraphic" in2="effect2_dropShadow" result="shape"/></filter></defs></svg>