<svg xmlns="http://www.w3.org/2000/svg" version="1.1" xmlns:xlink="http://www.w3.org/1999/xlink" xmlns:svgjs="http://svgjs.dev/svgjs" width="55" height="55"><svg xmlns="http://www.w3.org/2000/svg" fill="none" viewBox="0 0 55 55" height="55" width="55">
<circle fill="#FDD000" r="27.5" cy="27.5" cx="27.5"></circle>
<path fill="#222222" d="M39.2273 12C35.885 12 33.8523 12.6394 32.6795 13.1819C31.1745 12.4456 29.4545 12 27.5 12C25.5455 12 23.8255 12.4456 22.3205 13.1819C21.1477 12.6394 19.115 12 15.7727 12C9.90909 12 6 27.5 6 31.375C6 32.9831 8.58 34.4556 12.1373 35.0562C13.3882 39.3962 19.2909 42.7094 26.5227 43V34.7075C25.3695 33.9906 23.5909 32.6925 23.5909 31.375C23.5909 29.4375 27.5 29.4375 27.5 29.4375C27.5 29.4375 31.4091 29.4375 31.4091 31.375C31.4091 32.6925 29.6305 33.9906 28.4773 34.7075V43C35.7091 42.7094 41.6118 39.3962 42.8627 35.0562C46.42 34.4556 49 32.9831 49 31.375C49 27.5 45.0909 12 39.2273 12ZM12.1568 31.1231C11.1795 30.8906 10.4173 30.6194 9.90909 30.4062C10.3977 25.0394 14.2091 16.65 15.8705 15.875C16.9259 15.875 17.7273 15.9913 18.4505 16.0881C14.3459 20.5638 12.7236 27.5775 12.1568 31.1231ZM21.6364 27.5C21.118 27.5 20.6208 27.2959 20.2543 26.9325C19.8877 26.5692 19.6818 26.0764 19.6818 25.5625C19.6818 24.5162 20.5614 23.625 21.6364 23.625C22.1547 23.625 22.6519 23.8291 23.0184 24.1925C23.385 24.5558 23.5909 25.0486 23.5909 25.5625C23.5909 26.6475 22.7114 27.5 21.6364 27.5ZM33.3636 27.5C32.8453 27.5 32.3481 27.2959 31.9816 26.9325C31.615 26.5692 31.4091 26.0764 31.4091 25.5625C31.4091 24.5162 32.2886 23.625 33.3636 23.625C33.882 23.625 34.3792 23.8291 34.7457 24.1925C35.1123 24.5558 35.3182 25.0486 35.3182 25.5625C35.3182 26.6475 34.4386 27.5 33.3636 27.5ZM42.8432 31.1231C42.2764 27.5775 40.6541 20.5638 36.5495 16.0881C37.2727 15.9913 38.0741 15.875 39.1295 15.875C40.7909 16.65 44.6023 25.0394 45.0909 30.4062C44.6023 30.6194 43.84 30.8906 42.8432 31.1231Z"></path>
</svg><style>@media (prefers-color-scheme: light) { :root { filter: none; } }
@media (prefers-color-scheme: dark) { :root { filter: none; } }
</style></svg>