<?xml version="1.0" encoding="utf-8"?>
<!-- Generator: Adobe Illustrator 22.1.0, SVG Export Plug-In . SVG Version: 6.00 Build 0)  -->
<svg version="1.1" id="Layer_1" xmlns="http://www.w3.org/2000/svg" xmlns:xlink="http://www.w3.org/1999/xlink" x="0px" y="0px"
	 viewBox="0 0 100 100" style="enable-background:new 0 0 100 100;" xml:space="preserve">
<style type="text/css">
	.st0{fill:none;stroke:#000000;stroke-width:5;stroke-linecap:round;stroke-linejoin:round;stroke-miterlimit:10;}
	.st1{fill:none;stroke:#000000;stroke-width:5;stroke-miterlimit:10;}
	.st2{fill:none;stroke:#000000;stroke-width:4;stroke-linecap:round;stroke-linejoin:round;stroke-miterlimit:10;}
</style>
<path class="st0" d="M64.5,62.2h-29c-1.8,0-3.3-1.5-3.3-3.3V40.3c0-1.8,1.5-3.3,3.3-3.3h29c1.8,0,3.3,1.5,3.3,3.3V59
	C67.8,60.7,66.3,62.2,64.5,62.2z"/>
<path class="st0" d="M62.9,37.1v-8.9c0,0-0.5-12.6-12.8-12.6S37.2,28.2,37.2,28.2"/>
<path class="st1" d="M12.5,22.3c0,0.2,0,0.4,0,0.6c-0.2,1.4-1,2.7-2.1,3.4c-0.8,0.6-1.8,0.9-2.9,0.9c-2.7,0-5-2.2-5-5s2.2-5,5-5
	S12.5,19.6,12.5,22.3z"/>
<path class="st0" d="M7.5,27.3v7.9c0,0-0.2,2,1.6,3.5s3.3,1.5,3.3,1.5H24"/>
<path class="st1" d="M12.5,50.6c0-2.7-2.2-5-5-5s-5,2.2-5,5s2.2,5,5,5c2.5,0,4.5-1.8,4.9-4.2C12.5,51.1,12.5,50.9,12.5,50.6z"/>
<line class="st0" x1="12.5" y1="50.8" x2="24" y2="50.8"/>
<path class="st1" d="M12.5,79.4c0-2.7-2.2-5-5-5s-5,2.2-5,5c0,2.7,2.2,5,5,5c2.5,0,4.6-1.8,4.9-4.3C12.5,79.9,12.5,79.6,12.5,79.4z"
	/>
<path class="st0" d="M7.5,74.4v-7.9c0,0-0.2-2,1.6-3.5c1.7-1.5,3.3-1.5,3.3-1.5H24"/>
<path class="st1" d="M87.5,79.4c0-2.7,2.2-5,5-5c0.3,0,0.6,0,0.9,0.1c2.3,0.4,4,2.5,4,4.9c0,2.7-2.2,5-5,5S87.5,82.2,87.5,79.4z"/>
<path class="st0" d="M92.5,74.5v-7.9c0,0,0.2-2-1.6-3.5c-1.7-1.5-3.3-1.5-3.3-1.5H76"/>
<path class="st1" d="M87.5,51.1c0,2.7,2.2,5,5,5s5-2.2,5-5s-2.2-5-5-5c-2.2,0-4.1,1.4-4.7,3.4C87.6,50,87.5,50.5,87.5,51.1z"/>
<line class="st0" x1="87.5" y1="50.9" x2="76" y2="50.9"/>
<path class="st1" d="M87.5,22.3c0,2.5,1.9,4.6,4.3,4.9c0.2,0,0.4,0,0.7,0c2.7,0,5-2.2,5-5s-2.2-5-5-5S87.5,19.6,87.5,22.3z"/>
<path class="st0" d="M92.5,27.3v7.9c0,0,0.2,2-1.6,3.5c-1.7,1.5-3.3,1.5-3.3,1.5H76"/>
<path class="st0" d="M50.9,47.8c0,0.4-0.4,0.8-0.8,0.8c0,0,0,0,0,0c-0.4,0-0.8-0.4-0.8-0.8c0-0.4,0.4-0.8,0.8-0.8
	C50.5,47,50.9,47.4,50.9,47.8z"/>
<path class="st2" d="M50.1,48.3l0,6"/>
</svg>
