<?xml version="1.0" encoding="utf-8"?>
<!-- Generator: Adobe Illustrator 22.1.0, SVG Export Plug-In . SVG Version: 6.00 Build 0)  -->
<svg version="1.1" id="Layer_2" xmlns="http://www.w3.org/2000/svg" xmlns:xlink="http://www.w3.org/1999/xlink" x="0px" y="0px"
	 viewBox="0 0 100 100" style="enable-background:new 0 0 100 100;" xml:space="preserve">
<style type="text/css">
	.st0{fill:none;stroke:#000000;stroke-width:5;stroke-linecap:round;stroke-linejoin:round;stroke-miterlimit:10;}
</style>
<path class="st0" d="M72.5,82.4C62.3,92.6,52.2,96.5,50,97.3c-2.2-0.8-12.2-4.6-22.4-14.8C17.2,72.1,4.4,52.8,2.7,19.9
	c2.3,0.3,4.6,0.4,6.9,0.4c7.8,0,15.4-1.6,22.6-4.9c6.6-2.9,12.5-7,17.8-12.2c5.2,5.2,11.2,9.3,17.8,12.2c7.2,3.2,14.8,4.9,22.6,4.9
	c2.3,0,4.6-0.1,6.9-0.4C95.6,52.7,82.9,72,72.5,82.4L72.5,82.4z"/>
<path class="st0" d="M70.6,70.7c4.5-5,6.3-9.1,9.2-15.7c3.1-7.3,5.2-15.5,6.3-24.5c0-0.4-0.1-0.8-0.3-1.1s-0.6-0.5-1-0.5
	c-12.3-0.1-24-4.4-33.8-12.5l0,0c-0.5-0.4-1.3-0.4-1.8,0c-9.8,8-21.5,12.3-33.8,12.5c-0.4,0-0.8,0.2-1,0.5c-0.3,0.3-0.4,0.7-0.3,1.1
	c1,9,3.1,17.2,6.3,24.5c3.2,7.6,7.6,14.2,13,19.7c6.5,6.6,13,10.1,16.2,11.5c0.2,0.1,0.4,0.1,0.6,0.1c0.2,0,0.4,0,0.6-0.1
	c2.8-1.2,7.6-3.4,13.4-8.8"/>
<path class="st0" d="M68.5,50.3c0,10.2-8.3,18.5-18.5,18.5s-18.4-8.3-18.4-18.5c0-10,8-18.2,17.9-18.4c0.2,0,0.4,0,0.5,0
	C60.2,31.8,68.5,40.1,68.5,50.3z"/>
<path class="st0" d="M31.5,50.3h36.9"/>
<path class="st0" d="M48.7,31.9c0,0-8.2,7.3-8.2,18.4s8.4,18.4,8.4,18.4"/>
<path class="st0" d="M50,31.8v36.9"/>
<path class="st0" d="M51.2,31.9c0,0,8.4,7.3,8.4,18.4s-8.2,18.4-8.2,18.4"/>
</svg>
