<?xml version="1.0" encoding="utf-8"?>
<!-- Generator: Adobe Illustrator 22.1.0, SVG Export Plug-In . SVG Version: 6.00 Build 0)  -->
<svg version="1.1" id="Layer_1" xmlns="http://www.w3.org/2000/svg" xmlns:xlink="http://www.w3.org/1999/xlink" x="0px" y="0px"
	 viewBox="0 0 100 100" style="enable-background:new 0 0 100 100;" xml:space="preserve">
<style type="text/css">
	.st0{fill:none;stroke:#000000;stroke-width:5;stroke-linecap:round;stroke-linejoin:round;stroke-miterlimit:10;}
	.st1{fill:none;stroke:#000000;stroke-width:5;stroke-miterlimit:10;}
</style>
<path class="st0" d="M77.7,68.2h5.7v0c7.7-0.1,13.8-6.3,13.8-13.9c0-7.7-6.2-13.9-13.8-13.9v0h-5.7c-0.7,0-1.3,0.6-1.3,1.3v25.2
	C76.3,67.6,76.9,68.2,77.7,68.2z"/>
<path class="st1" d="M83.2,39.2c0-18.6-14.8-33.7-33.1-33.7S17,20.6,17,39.2"/>
<path class="st0" d="M23.6,66.8V41.6c0-0.7-0.6-1.3-1.3-1.3h-5.7v0C8.9,40.3,2.7,46.6,2.7,54.2c0,7.7,6.2,13.9,13.8,13.9v0h1.1h4.5
	C23,68.2,23.6,67.6,23.6,66.8z"/>
<path class="st0" d="M17.7,68.2c0,0,9.5,17,15.7,19.3c5.9,2.1,11.9,2,11.9,2"/>
<path class="st0" d="M50.9,83.8c-3.1,0-5.6,2.5-5.6,5.6c0,0.3,0,0.6,0.1,1c0.5,2.6,2.7,4.6,5.5,4.6c3.1,0,5.6-2.5,5.6-5.6
	C56.4,86.3,53.9,83.8,50.9,83.8z"/>
<path class="st0" d="M32.1,22.4c0,0,3.7-4.9,10.5-7.1s12.6-0.7,12.6-0.7"/>
</svg>
