<?xml version="1.0" encoding="utf-8"?>
<!-- Generator: Adobe Illustrator 22.1.0, SVG Export Plug-In . SVG Version: 6.00 Build 0)  -->
<svg version="1.1" id="Layer_2" xmlns="http://www.w3.org/2000/svg" xmlns:xlink="http://www.w3.org/1999/xlink" x="0px" y="0px"
	 viewBox="0 0 100 100" style="enable-background:new 0 0 100 100;" xml:space="preserve">
<style type="text/css">
	.st0{fill:none;stroke:#000000;stroke-width:5;stroke-linecap:round;stroke-linejoin:round;stroke-miterlimit:10;}
</style>
<path class="st0" d="M16.9,45.2h-3.3c-1,0-1.8-0.8-1.8-1.8V19.5l-8.4-4.9l8.4-4.9V4.4c0-1,0.8-1.8,1.8-1.8h68.6c1,0,1.8,0.8,1.8,1.8
	v33.7"/>
<path class="st0" d="M37,45.9v51.7H24.7V45.9h13.5c0,0,10.3-1.6,14.8-6.1c8.7-8.7,8.2-16.1,8.2-16.1s-0.1-8.7,5.9-8.7
	c3.6,0,5.4,1.7,6.2,3.2c0.6,1,0.8,2.1,0.9,3.2c0.1,2,0,7-1.2,11.1c-1.6,5.3-5,12.7-5,12.7h22c0,0,6.4,0,6.4,6.8s-6.7,6.4-6.7,6.4
	l-7.8-0.1l6.2,0.1c1.2,0,2.3,0.5,3.2,1.3c1.5,1.5,2.4,2.8,2.4,4.9c0,3.9-3.2,6.7-8,6.7h-3.7l3.3,0c1.4,0,2.7,0.5,3.6,1.5
	c1,1.1,2.1,2.7,2.1,5c0,1.5-0.6,2.8-1.3,3.7c-1.3,1.6-3.3,2.4-5.4,2.4h-2.8l0.8,0c2.8,0,5.3,1.9,5.9,4.6c0.2,0.7,0.3,1.5,0.3,2.5
	c0,3-2.4,5.3-3.5,5.8c-1.1,0.5-2.5,0.7-3.8,0.7l-37.1,0"/>
<line class="st0" x1="72.7" y1="52.1" x2="72.7" y2="90.5"/>
</svg>
