<svg width="20" height="20" viewBox="0 0 20 20" fill="none" xmlns="http://www.w3.org/2000/svg"><path d="M6.504 7.733 C 6.177 7.812,5.978 8.164,6.067 8.505 C 6.101 8.635,6.287 8.833,7.861 10.411 C 8.827 11.379,9.655 12.191,9.701 12.216 C 9.839 12.289,10.013 12.308,10.170 12.267 C 10.302 12.232,10.492 12.054,12.077 10.472 C 13.046 9.507,13.858 8.679,13.883 8.632 C 14.044 8.329,13.923 7.934,13.621 7.777 C 13.496 7.712,13.183 7.705,13.067 7.765 C 13.021 7.788,12.312 8.477,11.491 9.295 L 10.000 10.783 8.508 9.295 C 7.688 8.477,6.987 7.792,6.950 7.774 C 6.846 7.723,6.628 7.703,6.504 7.733 " fill="white" stroke="none" fill-rule="evenodd"></path></svg>