<svg width="24" height="24" viewBox="0 0 24 24" fill="none" xmlns="http://www.w3.org/2000/svg"><path d="M15.805 7.279 C 15.412 7.374,15.173 7.797,15.280 8.205 C 15.321 8.360,15.490 8.544,16.752 9.809 L 18.177 11.239 10.976 11.249 L 3.774 11.260 3.606 11.372 C 3.311 11.566,3.192 11.873,3.281 12.204 C 3.340 12.422,3.569 12.657,3.781 12.715 C 3.894 12.747,5.988 12.760,11.059 12.760 L 18.179 12.760 16.752 14.190 C 15.490 15.456,15.321 15.640,15.280 15.795 C 15.130 16.366,15.634 16.870,16.205 16.720 C 16.362 16.679,16.599 16.455,18.493 14.567 C 19.655 13.408,20.630 12.414,20.659 12.359 C 20.747 12.194,20.770 11.985,20.720 11.796 C 20.678 11.638,20.466 11.412,18.587 9.528 C 17.439 8.377,16.446 7.403,16.380 7.362 C 16.232 7.271,15.985 7.236,15.805 7.279 " fill="white" stroke="none" fill-rule="evenodd"></path></svg>