<svg width="17" height="16" viewBox="0 0 17 16" fill="none" xmlns="http://www.w3.org/2000/svg"><path d="M5.440 0.717 C 5.303 0.761,5.084 0.986,5.046 1.123 C 5.029 1.183,5.015 1.407,5.015 1.620 L 5.015 2.008 4.087 2.019 C 3.049 2.031,2.995 2.039,2.592 2.237 C 2.047 2.506,1.635 3.022,1.516 3.585 C 1.454 3.881,1.453 13.457,1.516 13.756 C 1.564 13.987,1.735 14.348,1.888 14.545 C 2.125 14.848,2.531 15.118,2.947 15.248 L 3.159 15.314 8.500 15.314 L 13.841 15.314 14.053 15.248 C 14.469 15.118,14.875 14.848,15.112 14.545 C 15.265 14.348,15.436 13.987,15.484 13.756 C 15.547 13.457,15.546 3.881,15.484 3.585 C 15.365 3.022,14.953 2.506,14.407 2.237 C 14.005 2.039,13.951 2.031,12.913 2.019 L 11.985 2.008 11.985 1.620 C 11.985 1.140,11.961 1.050,11.791 0.881 C 11.582 0.672,11.325 0.625,11.062 0.747 C 10.900 0.823,10.750 0.986,10.710 1.133 C 10.694 1.188,10.682 1.408,10.682 1.622 L 10.682 2.012 8.500 2.012 L 6.318 2.012 6.318 1.622 C 6.318 1.174,6.298 1.076,6.172 0.924 C 6.003 0.719,5.703 0.634,5.440 0.717 M5.016 3.733 C 5.016 4.194,5.044 4.301,5.202 4.459 C 5.384 4.642,5.703 4.700,5.936 4.594 C 6.082 4.527,6.250 4.341,6.288 4.202 C 6.304 4.143,6.318 3.919,6.318 3.705 L 6.318 3.315 8.500 3.315 L 10.682 3.315 10.682 3.727 C 10.682 4.186,10.706 4.282,10.860 4.445 C 11.178 4.780,11.738 4.686,11.932 4.264 C 11.975 4.171,11.984 4.077,11.984 3.731 L 11.985 3.311 12.814 3.320 C 13.584 3.329,13.651 3.333,13.770 3.388 C 13.944 3.469,14.072 3.583,14.147 3.722 C 14.208 3.836,14.209 3.868,14.218 4.923 L 14.226 6.007 8.501 6.007 L 2.777 6.007 2.777 4.985 C 2.777 4.334,2.788 3.918,2.808 3.839 C 2.867 3.606,3.106 3.399,3.381 3.345 C 3.446 3.332,3.840 3.320,4.257 3.318 L 5.015 3.315 5.016 3.733 M14.223 10.357 C 14.223 12.487,14.214 13.414,14.192 13.502 C 14.149 13.671,13.979 13.859,13.792 13.943 L 13.643 14.011 8.500 14.011 L 3.357 14.011 3.208 13.943 C 3.021 13.859,2.851 13.671,2.808 13.502 C 2.786 13.414,2.777 12.487,2.777 10.357 L 2.777 7.338 8.500 7.338 L 14.223 7.338 14.223 10.357 " stroke="none" fill-rule="evenodd" fill="black"></path></svg>