<svg id="Layer_1" xmlns="http://www.w3.org/2000/svg" version="1.1" viewBox="0 0 28 28"><path d="M13.160 0.027 C 13.070 0.037,12.766 0.069,12.483 0.097 C 10.583 0.285,8.525 0.976,6.854 1.986 C 5.793 2.627,5.015 3.238,4.127 4.127 C 1.839 6.414,0.475 9.235,0.087 12.483 C 0.008 13.145,0.008 14.856,0.087 15.517 C 0.478 18.772,1.837 21.584,4.127 23.873 C 6.414 26.161,9.235 27.525,12.483 27.913 C 13.144 27.992,14.856 27.992,15.517 27.913 C 18.765 27.525,21.586 26.161,23.873 23.873 C 26.161 21.586,27.525 18.765,27.913 15.517 C 27.992 14.856,27.992 13.144,27.913 12.483 C 27.525 9.235,26.161 6.414,23.873 4.127 C 21.628 1.881,18.850 0.516,15.709 0.114 C 15.167 0.045,13.501 -0.012,13.160 0.027 M22.462 8.028 C 23.171 8.293,23.721 9.308,23.577 10.084 C 23.498 10.508,23.360 10.747,22.990 11.102 C 22.550 11.524,11.424 21.908,11.179 22.125 L 10.990 22.293 10.550 21.822 C 7.266 18.302,4.426 15.206,4.303 15.012 C 4.078 14.656,3.999 14.338,4.022 13.883 C 4.038 13.588,4.072 13.440,4.170 13.239 C 4.497 12.570,5.440 12.093,6.179 12.222 C 6.764 12.324,6.782 12.340,9.013 14.747 C 10.143 15.966,11.083 16.963,11.103 16.963 C 11.122 16.963,12.541 15.672,14.255 14.093 C 15.970 12.515,17.408 11.209,17.452 11.193 C 17.496 11.176,18.221 10.520,19.063 9.736 C 20.634 8.273,20.914 8.058,21.403 7.936 C 21.667 7.869,22.151 7.911,22.462 8.028 " stroke="none" fill-rule="evenodd" fill="black"></path></svg>