<svg width="18" height="18" viewBox="0 0 18 18" fill="none" xmlns="http://www.w3.org/2000/svg"><path d="M4.125 3.585 C 3.635 3.785,3.390 4.348,3.573 4.851 C 3.633 5.016,3.739 5.128,5.621 7.013 L 7.604 9.000 5.621 10.987 C 3.739 12.872,3.633 12.984,3.573 13.149 C 3.435 13.527,3.520 13.907,3.807 14.193 C 4.093 14.480,4.473 14.565,4.851 14.427 C 5.016 14.367,5.128 14.261,7.013 12.379 L 9.000 10.396 10.987 12.379 C 12.872 14.261,12.984 14.367,13.149 14.427 C 13.527 14.565,13.907 14.480,14.193 14.193 C 14.480 13.907,14.565 13.527,14.427 13.149 C 14.367 12.984,14.261 12.872,12.379 10.987 L 10.396 9.000 12.379 7.013 C 14.261 5.128,14.367 5.016,14.427 4.851 C 14.565 4.473,14.480 4.093,14.193 3.807 C 13.907 3.520,13.527 3.435,13.149 3.573 C 12.984 3.633,12.872 3.739,10.987 5.621 L 9.000 7.604 7.013 5.621 C 5.128 3.739,5.016 3.633,4.851 3.573 C 4.612 3.486,4.357 3.490,4.125 3.585 " stroke="none" fill-rule="evenodd" fill="black"></path></svg>