<svg id="Layer_1" xmlns="http://www.w3.org/2000/svg" version="1.1" viewBox="0 0 24 24"><path d="M5.511 1.241 C 4.933 1.340,4.440 1.597,4.018 2.018 C 3.663 2.373,3.472 2.694,3.314 3.200 L 3.220 3.500 3.220 12.000 L 3.220 20.500 3.314 20.800 C 3.472 21.306,3.663 21.627,4.018 21.982 C 4.373 22.337,4.694 22.528,5.200 22.686 L 5.500 22.780 12.000 22.780 L 18.500 22.780 18.800 22.686 C 19.306 22.528,19.627 22.337,19.982 21.982 C 20.337 21.627,20.528 21.306,20.686 20.800 L 20.780 20.500 20.780 13.900 C 20.780 7.573,20.777 7.291,20.706 7.080 C 20.623 6.835,20.335 6.277,20.148 6.000 C 20.011 5.797,16.796 2.546,16.296 2.105 C 15.962 1.810,15.399 1.470,14.980 1.311 L 14.740 1.220 10.220 1.214 C 7.734 1.211,5.615 1.223,5.511 1.241 M13.208 5.090 C 13.220 7.376,13.220 7.380,13.314 7.644 C 13.489 8.138,13.862 8.511,14.356 8.686 C 14.619 8.780,14.626 8.780,16.871 8.792 L 19.122 8.803 19.111 14.492 L 19.100 20.180 19.004 20.392 C 18.887 20.652,18.650 20.862,18.384 20.941 C 18.085 21.030,5.915 21.030,5.616 20.941 C 5.350 20.862,5.113 20.652,4.996 20.392 L 4.900 20.180 4.900 11.900 L 4.900 3.620 4.996 3.408 C 5.110 3.155,5.349 2.939,5.599 2.861 C 5.748 2.815,6.433 2.805,9.488 2.803 L 13.197 2.800 13.208 5.090 M16.930 5.028 C 18.024 6.125,18.920 7.044,18.920 7.071 C 18.920 7.109,18.460 7.120,16.860 7.120 L 14.800 7.120 14.800 5.039 C 14.800 3.068,14.804 2.959,14.870 2.996 C 14.909 3.017,15.835 3.932,16.930 5.028 M7.767 8.244 C 7.573 8.302,7.295 8.598,7.239 8.805 C 7.151 9.129,7.275 9.461,7.557 9.660 L 7.727 9.780 8.976 9.780 L 10.226 9.780 10.393 9.670 C 10.647 9.501,10.777 9.277,10.779 9.005 C 10.780 8.718,10.670 8.501,10.443 8.340 L 10.273 8.220 9.087 8.213 C 8.400 8.208,7.844 8.222,7.767 8.244 M7.767 12.245 C 7.574 12.301,7.295 12.597,7.239 12.805 C 7.151 13.129,7.275 13.461,7.557 13.660 L 7.727 13.780 11.976 13.780 L 16.226 13.780 16.393 13.670 C 16.647 13.501,16.777 13.277,16.779 13.005 C 16.780 12.718,16.670 12.501,16.443 12.340 L 16.273 12.220 12.087 12.213 C 9.488 12.209,7.850 12.221,7.767 12.245 M7.767 16.245 C 7.574 16.301,7.295 16.597,7.239 16.805 C 7.151 17.129,7.275 17.461,7.557 17.660 L 7.727 17.780 11.976 17.780 L 16.226 17.780 16.393 17.670 C 16.647 17.501,16.777 17.277,16.779 17.005 C 16.780 16.718,16.670 16.501,16.443 16.340 L 16.273 16.220 12.087 16.213 C 9.488 16.209,7.850 16.221,7.767 16.245 " stroke="none" fill-rule="evenodd" fill="black"></path></svg>