<svg width="15" height="17" viewBox="0 0 15 17" fill="none" xmlns="http://www.w3.org/2000/svg"><path d="M9.162 2.672 C 8.757 2.856,8.711 3.399,9.080 3.643 L 9.184 3.713 10.457 3.725 L 11.730 3.738 9.034 6.287 C 5.710 9.431,5.803 9.340,5.747 9.463 C 5.627 9.722,5.752 10.060,6.011 10.178 C 6.144 10.238,6.358 10.238,6.488 10.177 C 6.551 10.147,7.680 9.095,9.575 7.300 L 12.563 4.471 12.575 5.679 L 12.588 6.888 12.655 7.002 C 12.692 7.065,12.771 7.149,12.830 7.189 C 12.925 7.254,12.959 7.262,13.125 7.262 C 13.296 7.262,13.323 7.255,13.429 7.181 C 13.510 7.125,13.566 7.059,13.611 6.968 L 13.676 6.835 13.669 4.909 L 13.663 2.984 13.594 2.880 C 13.556 2.822,13.478 2.744,13.420 2.706 L 13.316 2.638 11.289 2.632 C 9.369 2.626,9.257 2.628,9.162 2.672 M2.784 4.427 C 2.429 4.487,2.121 4.655,1.821 4.952 C 1.646 5.127,1.586 5.207,1.502 5.380 C 1.316 5.765,1.326 5.541,1.326 9.388 C 1.326 13.225,1.317 13.012,1.498 13.386 C 1.671 13.743,2.073 14.111,2.442 14.250 C 2.783 14.378,2.694 14.375,6.563 14.375 C 10.431 14.375,10.342 14.378,10.683 14.250 C 11.051 14.112,11.444 13.752,11.623 13.392 C 11.802 13.031,11.799 13.068,11.799 10.925 C 11.800 9.666,11.791 8.980,11.773 8.918 C 11.739 8.795,11.614 8.654,11.488 8.597 C 11.290 8.507,11.019 8.550,10.867 8.695 C 10.704 8.850,10.714 8.720,10.700 10.850 C 10.688 12.657,10.684 12.794,10.642 12.879 C 10.579 13.006,10.433 13.147,10.300 13.210 L 10.188 13.263 6.563 13.263 L 2.938 13.263 2.825 13.210 C 2.692 13.147,2.546 13.006,2.483 12.879 C 2.440 12.792,2.437 12.617,2.431 9.439 C 2.425 6.519,2.429 6.074,2.462 5.961 C 2.507 5.804,2.654 5.644,2.821 5.566 C 2.937 5.513,2.955 5.512,5.000 5.500 L 7.063 5.488 7.179 5.406 C 7.342 5.293,7.436 5.102,7.420 4.913 C 7.404 4.718,7.300 4.560,7.128 4.470 L 6.994 4.400 4.953 4.403 C 3.831 4.405,2.855 4.416,2.784 4.427 " stroke="none" fill-rule="evenodd" fill="black"></path></svg>