<svg width="24" height="24" viewBox="0 0 24 24" fill="none" xmlns="http://www.w3.org/2000/svg"><path d="M11.200 0.025 C 7.677 0.288,4.536 1.991,2.412 4.790 C 1.198 6.390,0.443 8.216,0.109 10.359 C -0.013 11.143,-0.013 12.857,0.109 13.641 C 0.622 16.934,2.221 19.646,4.794 21.592 C 6.267 22.705,8.225 23.553,9.950 23.824 L 10.120 23.850 10.120 19.665 L 10.120 15.480 8.600 15.480 L 7.080 15.480 7.080 13.740 L 7.080 12.000 8.596 12.000 L 10.113 12.000 10.130 10.310 C 10.149 8.462,10.175 8.199,10.402 7.511 C 10.625 6.839,10.924 6.348,11.397 5.879 C 12.313 4.970,13.558 4.606,15.380 4.717 C 16.053 4.758,16.944 4.849,17.210 4.904 L 17.320 4.926 17.320 6.403 L 17.320 7.880 16.444 7.880 C 15.454 7.880,15.081 7.930,14.748 8.108 C 14.477 8.254,14.200 8.532,14.088 8.771 C 13.896 9.180,13.880 9.334,13.880 10.708 L 13.880 12.000 15.543 12.000 L 17.206 12.000 17.184 12.110 C 17.153 12.265,16.680 15.386,16.680 15.438 C 16.680 15.467,16.240 15.480,15.280 15.480 L 13.880 15.480 13.880 19.665 L 13.880 23.850 14.050 23.824 C 15.102 23.658,16.497 23.188,17.510 22.657 C 20.773 20.948,23.048 17.928,23.760 14.362 C 23.942 13.450,23.980 13.027,23.979 11.960 C 23.977 10.942,23.946 10.600,23.776 9.716 C 23.110 6.249,20.933 3.252,17.814 1.507 C 16.509 0.777,15.069 0.307,13.500 0.099 C 13.032 0.037,11.640 -0.007,11.200 0.025 " fill="white" stroke="none" fill-rule="evenodd"></path></svg>