<svg id="Layer_1" xmlns="http://www.w3.org/2000/svg" version="1.1" viewBox="0 0 800 800"><path d="M385.469 76.138 C 354.779 80.806,325.473 104.437,314.723 133.184 L 311.707 141.247 218.854 141.624 C 117.635 142.034,122.431 141.667,115.064 149.558 C 111.547 153.324,107.997 161.407,108.007 165.624 C 108.022 171.439,110.835 178.766,114.779 183.258 C 122.564 192.124,121.051 192.000,221.390 192.000 L 311.638 192.000 313.979 198.333 C 324.122 225.776,348.340 247.614,377.333 255.464 C 388.992 258.620,411.008 258.620,422.667 255.464 C 451.660 247.614,475.878 225.776,486.021 198.333 L 488.362 192.000 578.610 192.000 C 678.981 192.000,677.433 192.127,685.237 183.239 C 697.674 169.074,690.733 146.824,672.563 142.610 C 669.687 141.943,627.101 141.383,577.929 141.365 L 488.525 141.333 484.270 131.000 C 473.885 105.780,450.017 84.964,423.648 78.128 C 413.337 75.455,395.922 74.547,385.469 76.138 M417.897 129.251 C 426.240 133.331,433.317 140.400,437.436 148.769 C 442.092 158.230,442.074 175.141,437.397 184.646 C 422.116 215.699,377.746 215.699,362.641 184.646 C 358.815 176.781,357.568 162.794,360.009 155.122 C 364.014 142.531,373.988 131.991,386.350 127.285 C 394.087 124.340,409.865 125.324,417.897 129.251 M588.000 309.281 C 554.635 313.974,526.345 336.213,514.558 367.015 L 511.647 374.623 318.726 374.978 L 125.805 375.333 120.184 379.053 C 110.379 385.542,106.397 395.760,109.370 406.801 C 111.327 414.069,118.966 421.885,126.030 423.846 C 129.785 424.889,186.863 425.321,321.486 425.326 L 511.638 425.333 513.969 431.667 C 522.875 455.866,543.667 476.652,568.174 485.856 C 618.571 504.782,674.443 475.526,688.851 422.667 C 690.418 416.918,691.209 409.286,691.200 400.000 C 691.189 387.850,690.653 384.482,687.147 374.510 C 672.531 332.947,628.007 303.654,588.000 309.281 M617.897 362.585 C 626.240 366.664,633.317 373.734,637.436 382.103 C 642.092 391.563,642.074 408.474,637.397 417.979 C 622.116 449.032,577.746 449.032,562.641 417.979 C 558.815 410.114,557.568 396.127,560.009 388.455 C 564.014 375.864,573.988 365.324,586.350 360.619 C 594.087 357.674,609.865 358.657,617.897 362.585 M187.293 542.658 C 152.548 547.481,124.130 571.566,112.559 606.000 C 107.971 619.654,107.336 642.208,111.152 656.000 C 120.159 688.556,144.848 713.239,177.333 722.165 C 188.865 725.334,210.843 725.314,222.667 722.123 C 251.631 714.306,275.877 692.446,286.021 665.000 L 288.362 658.667 478.514 658.659 C 613.137 658.654,670.215 658.222,673.970 657.179 C 676.887 656.370,681.479 653.501,684.175 650.805 C 697.947 637.034,691.408 613.647,672.563 609.277 C 669.556 608.579,586.792 608.050,477.845 608.032 L 288.357 608.000 285.376 599.667 C 275.129 571.026,253.416 550.859,226.217 544.719 C 215.237 542.241,197.187 541.285,187.293 542.658 M218.037 596.018 C 226.229 599.984,233.328 607.090,237.436 615.436 C 242.092 624.896,242.074 641.808,237.397 651.312 C 224.779 676.953,190.830 682.703,170.730 662.603 C 148.905 640.778,157.912 603.432,187.332 593.771 C 195.299 591.154,210.251 592.249,218.037 596.018 " stroke="none" fill-rule="evenodd" fill="black"></path></svg>