<svg width="20" height="20" viewBox="0 0 20 20" fill="none" xmlns="http://www.w3.org/2000/svg"><path d="M9.660 1.900 C 9.223 1.954,8.731 2.154,8.381 2.420 C 7.991 2.717,2.864 7.032,2.680 7.219 C 2.198 7.705,1.980 8.225,1.901 9.083 C 1.854 9.587,1.855 15.101,1.902 15.522 C 2.070 17.026,2.974 17.930,4.478 18.098 C 4.667 18.119,5.561 18.133,6.664 18.133 L 8.530 18.133 8.540 15.792 C 8.550 13.462,8.550 13.449,8.624 13.270 C 8.742 12.982,8.920 12.743,9.134 12.585 C 9.415 12.379,9.615 12.317,10.000 12.317 C 10.385 12.317,10.585 12.379,10.866 12.585 C 11.080 12.743,11.258 12.982,11.376 13.270 C 11.450 13.449,11.450 13.462,11.460 15.792 L 11.470 18.133 13.336 18.133 C 14.439 18.133,15.333 18.119,15.522 18.098 C 17.025 17.930,17.930 17.025,18.098 15.522 C 18.145 15.101,18.146 9.587,18.099 9.083 C 18.020 8.225,17.802 7.705,17.320 7.219 C 17.136 7.033,12.011 2.719,11.619 2.420 C 11.386 2.243,10.966 2.039,10.688 1.968 C 10.393 1.894,9.954 1.865,9.660 1.900 M10.439 3.199 C 10.557 3.235,10.721 3.314,10.805 3.374 C 11.039 3.541,16.226 7.893,16.421 8.086 C 16.617 8.279,16.710 8.443,16.792 8.742 C 16.845 8.933,16.850 9.225,16.850 12.250 C 16.850 15.349,16.846 15.563,16.789 15.767 C 16.624 16.352,16.258 16.687,15.644 16.817 C 15.467 16.855,15.115 16.866,14.058 16.866 L 12.700 16.867 12.700 15.138 C 12.700 13.415,12.700 13.407,12.619 13.088 C 12.377 12.134,11.632 11.384,10.673 11.128 C 10.315 11.032,9.685 11.032,9.327 11.128 C 8.570 11.330,7.919 11.860,7.581 12.550 C 7.312 13.098,7.320 13.024,7.308 15.058 L 7.297 16.867 5.940 16.866 C 4.885 16.866,4.533 16.855,4.356 16.817 C 3.742 16.687,3.376 16.352,3.211 15.767 C 3.154 15.563,3.150 15.349,3.150 12.250 C 3.150 9.225,3.155 8.933,3.208 8.742 C 3.290 8.443,3.383 8.279,3.579 8.086 C 3.774 7.893,8.961 3.541,9.195 3.374 C 9.520 3.142,10.024 3.071,10.439 3.199 " fill="white" stroke="none" fill-rule="evenodd"></path></svg>