<svg width="24" height="24" viewBox="0 0 24 24" fill="none" xmlns="http://www.w3.org/2000/svg"><path d="M13.815 0.077 C 13.725 0.118,13.606 0.212,13.551 0.286 C 13.265 0.669,5.019 13.836,4.985 13.963 C 4.910 14.247,5.105 14.628,5.387 14.745 C 5.493 14.790,6.056 14.800,8.399 14.800 C 10.564 14.800,11.280 14.812,11.280 14.847 C 11.280 14.872,10.812 16.752,10.240 19.024 C 9.668 21.296,9.200 23.229,9.200 23.319 C 9.200 23.523,9.274 23.672,9.457 23.832 C 9.690 24.036,10.014 24.050,10.286 23.868 C 10.388 23.799,11.438 22.160,14.709 16.963 C 17.333 12.794,19.009 10.095,19.024 10.011 C 19.077 9.730,18.879 9.366,18.613 9.255 C 18.507 9.210,17.944 9.200,15.601 9.200 C 13.436 9.200,12.720 9.188,12.720 9.153 C 12.720 9.128,13.188 7.248,13.760 4.976 C 14.332 2.704,14.800 0.771,14.800 0.681 C 14.800 0.489,14.732 0.343,14.574 0.193 C 14.357 -0.012,14.098 -0.052,13.815 0.077 " fill="#950404" stroke="none" fill-rule="evenodd"></path></svg>