<svg width="24" height="24" viewBox="0 0 24 24" fill="none" xmlns="http://www.w3.org/2000/svg"><path d="M1.331 0.061 C 0.866 0.187,0.477 0.470,0.251 0.846 C -0.020 1.299,-0.002 0.434,0.010 12.102 L 0.020 22.660 0.110 22.880 C 0.294 23.333,0.664 23.690,1.156 23.889 L 1.380 23.980 12.000 23.980 L 22.620 23.980 22.844 23.889 C 23.336 23.690,23.706 23.333,23.890 22.880 L 23.980 22.660 23.980 12.000 L 23.980 1.340 23.890 1.120 C 23.706 0.667,23.336 0.310,22.844 0.111 L 22.620 0.020 12.080 0.012 C 3.102 0.006,1.509 0.013,1.331 0.061 M5.858 3.381 C 6.708 3.603,7.320 4.344,7.386 5.233 C 7.459 6.227,6.775 7.148,5.790 7.380 C 4.533 7.676,3.280 6.680,3.280 5.383 C 3.280 4.450,3.910 3.624,4.804 3.383 C 5.090 3.306,5.567 3.305,5.858 3.381 M17.460 8.833 C 18.227 8.998,18.779 9.288,19.260 9.781 C 19.828 10.363,20.151 11.126,20.345 12.348 C 20.406 12.729,20.416 13.231,20.429 16.610 L 20.444 20.440 18.664 20.440 L 16.883 20.440 16.871 16.990 C 16.858 13.578,16.857 13.537,16.770 13.228 C 16.651 12.807,16.510 12.536,16.293 12.315 C 15.951 11.965,15.443 11.808,14.823 11.860 C 13.831 11.944,13.322 12.387,13.032 13.420 C 12.943 13.738,12.942 13.758,12.929 17.090 L 12.917 20.440 11.138 20.440 L 9.360 20.440 9.360 14.720 L 9.360 9.000 11.060 9.000 L 12.760 9.000 12.760 9.780 C 12.760 10.209,12.773 10.560,12.790 10.559 C 12.807 10.559,12.874 10.467,12.940 10.354 C 13.095 10.090,13.555 9.620,13.860 9.413 C 14.341 9.088,14.949 8.846,15.500 8.761 C 15.888 8.701,17.044 8.744,17.460 8.833 M7.120 14.720 L 7.120 20.440 5.340 20.440 L 3.560 20.440 3.560 14.720 L 3.560 9.000 5.340 9.000 L 7.120 9.000 7.120 14.720 " fill="white" stroke="none" fill-rule="evenodd"></path></svg>