<svg width="20" height="20" viewBox="0 0 20 20" fill="none" xmlns="http://www.w3.org/2000/svg"><path d="M9.467 1.901 C 7.745 2.017,6.095 2.775,4.843 4.025 C 3.604 5.262,2.864 6.887,2.727 8.672 C 2.601 10.315,3.116 11.992,4.193 13.445 C 4.864 14.351,5.795 15.265,6.933 16.137 C 7.900 16.876,9.690 18.078,9.878 18.113 C 10.111 18.157,10.224 18.104,10.997 17.591 C 13.136 16.170,14.318 15.207,15.281 14.100 C 16.744 12.418,17.419 10.579,17.273 8.672 C 17.136 6.887,16.396 5.262,15.157 4.025 C 13.645 2.515,11.612 1.756,9.467 1.901 M10.790 3.184 C 13.486 3.534,15.633 5.681,15.982 8.377 C 16.134 9.548,15.953 10.629,15.430 11.675 C 15.034 12.467,14.621 13.015,13.801 13.835 C 13.170 14.465,12.690 14.875,11.912 15.443 C 11.318 15.877,10.049 16.733,10.000 16.733 C 9.951 16.733,8.682 15.877,8.088 15.443 C 7.310 14.875,6.830 14.465,6.199 13.835 C 5.379 13.015,4.966 12.467,4.570 11.675 C 4.047 10.629,3.866 9.548,4.018 8.377 C 4.445 5.083,7.480 2.755,10.790 3.184 M9.525 6.499 C 9.273 6.545,9.038 6.631,8.717 6.795 C 8.477 6.917,8.356 7.008,8.113 7.249 C 7.761 7.598,7.585 7.877,7.427 8.333 C 7.322 8.638,7.318 8.669,7.318 9.167 C 7.318 9.664,7.322 9.695,7.427 10.000 C 7.581 10.445,7.763 10.735,8.097 11.070 C 8.431 11.404,8.721 11.586,9.167 11.739 C 9.471 11.844,9.503 11.849,10.000 11.849 C 10.497 11.849,10.529 11.844,10.833 11.739 C 11.279 11.586,11.569 11.404,11.903 11.070 C 12.237 10.735,12.419 10.445,12.573 10.000 C 12.678 9.695,12.682 9.664,12.682 9.167 C 12.682 8.669,12.678 8.638,12.573 8.333 C 12.415 7.877,12.239 7.598,11.887 7.249 C 11.555 6.919,11.205 6.709,10.750 6.567 C 10.489 6.485,9.807 6.447,9.525 6.499 M10.489 7.800 C 11.132 8.023,11.541 8.711,11.433 9.388 C 11.306 10.179,10.540 10.741,9.775 10.605 C 8.812 10.433,8.278 9.414,8.691 8.537 C 8.805 8.293,9.128 7.971,9.373 7.856 C 9.717 7.694,10.124 7.673,10.489 7.800 " fill="white" stroke="none" fill-rule="evenodd"></path></svg>