<svg width="24" height="24" viewBox="0 0 24 24" fill="none" xmlns="http://www.w3.org/2000/svg"><path d="M11.738 1.578 L 11.640 1.676 11.640 3.136 L 11.640 4.596 11.736 4.707 C 11.854 4.844,12.105 4.862,12.237 4.743 C 12.380 4.613,12.400 4.422,12.400 3.140 C 12.400 1.841,12.379 1.646,12.230 1.541 C 12.092 1.445,11.854 1.463,11.738 1.578 M8.357 2.451 C 8.268 2.519,8.200 2.657,8.200 2.768 C 8.200 2.886,9.524 5.190,9.661 5.310 C 9.796 5.428,9.965 5.424,10.112 5.300 C 10.262 5.175,10.287 5.044,10.200 4.849 C 10.059 4.536,8.909 2.577,8.814 2.490 C 8.704 2.390,8.463 2.369,8.357 2.451 M15.172 2.490 C 15.127 2.539,14.789 3.102,14.421 3.740 C 13.675 5.033,13.655 5.090,13.873 5.285 C 14.030 5.425,14.196 5.434,14.339 5.310 C 14.475 5.191,15.800 2.887,15.800 2.768 C 15.800 2.646,15.699 2.456,15.618 2.425 C 15.471 2.368,15.254 2.400,15.172 2.490 M5.876 4.938 C 5.685 5.045,5.634 5.310,5.768 5.489 C 5.813 5.548,7.695 6.660,8.133 6.886 C 8.236 6.939,8.324 6.957,8.402 6.940 C 8.536 6.910,8.720 6.710,8.720 6.595 C 8.720 6.381,8.621 6.306,7.397 5.602 C 6.731 5.218,6.140 4.899,6.083 4.892 C 6.026 4.885,5.933 4.906,5.876 4.938 M17.840 4.908 C 17.807 4.919,17.243 5.237,16.586 5.614 C 15.379 6.306,15.280 6.381,15.280 6.595 C 15.280 6.710,15.464 6.910,15.598 6.940 C 15.676 6.957,15.764 6.939,15.867 6.886 C 16.305 6.660,18.187 5.548,18.232 5.489 C 18.446 5.205,18.167 4.791,17.840 4.908 M11.960 7.282 C 11.597 7.345,11.221 7.560,10.645 8.037 L 10.110 8.480 7.780 8.480 L 5.449 8.480 5.342 8.260 C 5.174 7.917,5.076 7.876,3.796 7.618 C 3.193 7.496,2.603 7.396,2.485 7.395 C 2.197 7.394,1.941 7.549,1.814 7.800 C 1.694 8.040,0.022 16.393,0.054 16.593 C 0.089 16.808,0.214 17.011,0.387 17.133 C 0.525 17.231,0.712 17.280,1.719 17.483 C 2.364 17.613,2.929 17.720,2.975 17.720 C 3.279 17.719,3.563 17.529,3.699 17.235 L 3.786 17.046 6.323 19.585 C 7.776 21.039,8.959 22.190,9.091 22.279 C 9.414 22.497,9.833 22.590,10.194 22.523 C 10.562 22.455,10.846 22.303,11.100 22.036 C 11.308 21.819,11.480 21.515,11.480 21.367 C 11.480 21.328,11.627 21.447,11.850 21.666 C 12.348 22.157,12.553 22.303,12.887 22.405 C 13.630 22.631,14.425 22.277,14.767 21.566 C 14.838 21.420,14.898 21.295,14.902 21.289 C 14.906 21.283,15.003 21.341,15.119 21.419 C 15.553 21.712,16.179 21.765,16.649 21.550 C 16.916 21.428,17.235 21.143,17.378 20.899 C 17.495 20.701,17.600 20.329,17.600 20.117 L 17.600 19.971 17.874 19.951 C 18.227 19.926,18.536 19.785,18.813 19.523 C 19.187 19.170,19.384 18.585,19.289 18.118 L 19.245 17.900 19.721 17.422 C 20.122 17.018,20.200 16.956,20.222 17.022 C 20.342 17.395,20.523 17.604,20.789 17.678 C 21.012 17.740,21.013 17.740,22.281 17.483 C 23.288 17.280,23.475 17.231,23.613 17.133 C 23.786 17.011,23.911 16.808,23.946 16.593 C 23.978 16.393,22.306 8.040,22.186 7.800 C 22.059 7.549,21.803 7.394,21.515 7.395 C 21.397 7.396,20.807 7.496,20.204 7.618 C 18.913 7.878,18.810 7.922,18.651 8.269 C 18.571 8.444,18.555 8.528,18.572 8.679 L 18.595 8.869 18.287 8.953 C 17.777 9.092,17.418 9.131,16.860 9.108 C 15.852 9.066,15.111 8.764,14.023 7.950 C 13.504 7.563,13.294 7.443,12.968 7.346 C 12.691 7.264,12.236 7.235,11.960 7.282 M12.923 8.125 C 13.031 8.171,13.324 8.365,13.575 8.555 C 14.875 9.537,15.975 9.927,17.280 9.867 C 17.717 9.847,18.431 9.722,18.685 9.621 C 18.742 9.599,18.832 10.008,19.392 12.828 L 20.034 16.060 19.427 16.672 L 18.820 17.284 16.120 14.566 C 13.645 12.074,13.386 11.825,13.011 11.580 C 12.786 11.433,12.471 11.256,12.311 11.187 C 12.052 11.075,11.977 11.061,11.637 11.061 C 11.295 11.060,11.239 11.070,11.109 11.159 C 10.852 11.336,10.804 11.475,10.717 12.310 C 10.674 12.722,10.603 13.204,10.559 13.380 C 10.378 14.114,10.025 14.583,9.427 14.882 C 9.130 15.031,9.099 15.038,9.073 14.972 C 9.057 14.933,8.871 14.100,8.660 13.123 C 8.244 11.198,8.240 11.159,8.433 10.906 C 8.572 10.724,11.520 8.262,11.723 8.158 C 11.809 8.115,11.947 8.062,12.029 8.041 C 12.248 7.986,12.698 8.028,12.923 8.125 M3.651 8.355 C 4.196 8.461,4.651 8.558,4.663 8.569 C 4.690 8.596,3.042 16.889,3.001 16.933 C 2.969 16.967,0.885 16.571,0.827 16.519 C 0.801 16.496,2.389 8.382,2.461 8.169 C 2.471 8.138,2.514 8.127,2.569 8.140 C 2.619 8.153,3.106 8.249,3.651 8.355 M22.369 12.303 C 22.826 14.589,23.193 16.478,23.185 16.500 C 23.165 16.554,21.038 16.975,20.998 16.933 C 20.957 16.889,19.311 8.596,19.338 8.568 C 19.365 8.541,21.446 8.127,21.499 8.138 C 21.520 8.142,21.912 10.017,22.369 12.303 M9.126 9.290 C 9.099 9.318,8.831 9.547,8.530 9.800 C 7.935 10.300,7.718 10.551,7.611 10.860 C 7.486 11.223,7.518 11.449,7.993 13.605 C 8.238 14.719,8.449 15.658,8.463 15.693 C 8.499 15.787,8.663 15.880,8.794 15.880 C 9.179 15.880,10.026 15.475,10.436 15.096 C 11.099 14.481,11.360 13.741,11.503 12.066 L 11.530 11.751 11.695 11.776 C 11.932 11.812,12.385 12.045,12.768 12.327 C 12.988 12.488,13.743 13.223,14.998 14.496 C 16.042 15.554,17.252 16.780,17.686 17.220 C 18.120 17.660,18.495 18.071,18.518 18.133 C 18.629 18.428,18.475 18.884,18.205 19.060 C 17.958 19.220,17.751 19.255,17.488 19.179 C 17.265 19.115,17.219 19.072,15.318 17.177 C 13.233 15.097,13.310 15.160,13.041 15.299 C 12.915 15.365,12.821 15.580,12.864 15.704 C 12.879 15.746,13.750 16.644,14.800 17.700 C 16.428 19.336,16.720 19.648,16.780 19.810 C 16.981 20.350,16.579 20.934,16.005 20.933 C 15.870 20.933,15.724 20.905,15.640 20.862 C 15.563 20.824,14.591 19.885,13.479 18.776 C 11.309 16.612,11.391 16.680,11.124 16.818 C 10.991 16.887,10.901 17.077,10.941 17.207 C 10.956 17.258,11.657 17.993,12.497 18.840 C 13.422 19.772,14.053 20.438,14.093 20.526 C 14.329 21.042,13.978 21.665,13.426 21.711 C 13.008 21.746,13.046 21.776,11.218 19.955 C 9.631 18.374,9.529 18.280,9.394 18.280 C 9.118 18.280,8.922 18.573,9.041 18.806 C 9.067 18.858,9.455 19.269,9.901 19.720 C 10.604 20.430,10.719 20.564,10.760 20.718 C 10.836 21.003,10.733 21.387,10.534 21.568 C 10.419 21.672,10.114 21.798,9.977 21.799 C 9.616 21.802,9.667 21.847,6.726 18.906 L 3.953 16.133 4.599 12.876 C 4.955 11.085,5.264 9.535,5.286 9.430 L 5.327 9.240 7.251 9.240 C 8.791 9.240,9.166 9.250,9.126 9.290 " fill="#950404" stroke="none" fill-rule="evenodd"></path></svg>