<svg width="20" height="20" viewBox="0 0 20 20" fill="none" xmlns="http://www.w3.org/2000/svg"><path d="M5.650 1.890 C 4.758 1.968,3.631 2.580,2.963 3.351 C 2.001 4.461,1.652 5.924,2.019 7.305 C 3.110 11.403,6.036 14.980,9.874 16.904 C 10.779 17.357,12.158 17.869,12.933 18.038 C 13.386 18.137,14.135 18.145,14.567 18.056 C 16.276 17.702,17.569 16.498,18.026 14.835 C 18.240 14.056,18.076 13.375,17.549 12.857 C 17.440 12.750,16.986 12.458,16.168 11.970 C 15.498 11.570,14.885 11.209,14.806 11.169 C 14.425 10.976,13.689 10.905,13.249 11.018 C 12.801 11.133,12.283 11.456,12.025 11.781 C 11.951 11.874,11.742 12.172,11.560 12.444 L 11.230 12.937 10.973 12.797 C 9.400 11.937,8.147 10.701,7.297 9.173 C 7.189 8.978,7.100 8.800,7.100 8.777 C 7.100 8.755,7.299 8.606,7.542 8.447 C 7.785 8.288,8.071 8.089,8.178 8.005 C 8.551 7.712,8.857 7.232,8.989 6.733 C 9.065 6.445,9.065 5.920,8.988 5.633 C 8.901 5.302,8.795 5.099,8.045 3.829 C 7.462 2.842,7.315 2.617,7.133 2.434 C 6.739 2.038,6.204 1.842,5.650 1.890 M6.093 3.196 C 6.161 3.231,6.241 3.287,6.271 3.321 C 6.327 3.385,7.563 5.467,7.704 5.733 C 7.770 5.859,7.783 5.932,7.783 6.183 C 7.783 6.499,7.738 6.634,7.551 6.883 C 7.509 6.938,7.110 7.227,6.663 7.526 C 5.724 8.153,5.683 8.194,5.683 8.531 C 5.683 8.738,5.698 8.780,5.955 9.300 C 6.821 11.053,8.090 12.468,9.744 13.523 C 10.179 13.801,11.189 14.300,11.362 14.324 C 11.553 14.349,11.716 14.310,11.833 14.212 C 11.889 14.165,12.177 13.767,12.473 13.327 C 12.769 12.888,13.057 12.494,13.114 12.451 C 13.432 12.213,13.801 12.142,14.133 12.255 C 14.359 12.332,16.583 13.657,16.706 13.788 C 16.884 13.977,16.907 14.170,16.799 14.567 C 16.519 15.593,15.651 16.461,14.600 16.766 C 14.287 16.857,13.643 16.892,13.313 16.836 C 12.410 16.683,10.698 15.985,9.567 15.309 C 6.715 13.604,4.544 10.935,3.489 7.833 C 3.247 7.123,3.166 6.787,3.144 6.397 C 3.110 5.799,3.215 5.319,3.498 4.775 C 3.804 4.186,4.286 3.725,4.917 3.416 C 5.488 3.136,5.845 3.070,6.093 3.196 " fill="white" stroke="none" fill-rule="evenodd"></path></svg>