<svg width="14" height="14" viewBox="0 0 14 14" fill="none" xmlns="http://www.w3.org/2000/svg"><path d="M2.041 0.608 C 1.385 0.720,0.832 1.215,0.649 1.854 L 0.595 2.042 0.595 4.433 L 0.595 6.825 0.650 6.999 C 0.720 7.223,0.808 7.397,0.941 7.572 C 0.999 7.649,2.232 8.894,3.679 10.339 C 5.701 12.357,6.350 12.992,6.479 13.075 C 7.152 13.514,8.014 13.514,8.688 13.075 C 8.927 12.919,12.917 8.930,13.074 8.690 C 13.294 8.353,13.400 7.992,13.400 7.583 C 13.400 7.289,13.365 7.106,13.257 6.827 C 13.114 6.458,13.133 6.478,10.374 3.713 C 8.948 2.284,7.704 1.053,7.609 0.976 C 7.409 0.815,7.235 0.722,6.996 0.649 L 6.825 0.596 4.492 0.592 C 3.208 0.590,2.105 0.597,2.041 0.608 M6.755 1.806 C 6.849 1.851,7.375 2.367,9.499 4.495 C 12.455 7.458,12.236 7.211,12.236 7.583 C 12.236 7.952,12.384 7.780,10.106 10.063 C 7.806 12.368,7.956 12.239,7.584 12.237 C 7.210 12.235,7.457 12.454,4.495 9.499 C 2.367 7.375,1.851 6.849,1.806 6.755 L 1.750 6.638 1.750 4.418 L 1.750 2.199 1.814 2.076 C 1.886 1.938,2.004 1.832,2.138 1.784 C 2.212 1.758,2.619 1.752,4.433 1.751 L 6.638 1.750 6.755 1.806 M4.162 3.533 C 3.935 3.588,3.705 3.771,3.596 3.984 C 3.484 4.204,3.485 4.547,3.597 4.768 C 3.767 5.101,4.158 5.296,4.521 5.229 C 4.717 5.193,4.838 5.132,4.978 4.997 C 5.189 4.794,5.283 4.502,5.228 4.221 C 5.190 4.028,5.130 3.910,4.997 3.772 C 4.777 3.544,4.475 3.457,4.162 3.533 " stroke="none" fill-rule="evenodd" fill="black"></path></svg>