<svg width="24" height="24" viewBox="0 0 24 24" fill="none" xmlns="http://www.w3.org/2000/svg"><path d="M11.811 4.278 C 11.639 4.320,11.417 4.493,11.330 4.652 C 11.265 4.770,11.259 5.022,11.249 8.009 L 11.238 11.238 8.006 11.249 L 4.774 11.260 4.605 11.372 C 4.311 11.566,4.192 11.873,4.281 12.204 C 4.340 12.422,4.569 12.657,4.781 12.715 C 4.891 12.746,5.915 12.760,8.090 12.760 L 11.240 12.760 11.240 15.910 C 11.240 18.085,11.254 19.109,11.285 19.219 C 11.344 19.432,11.578 19.660,11.798 19.719 C 12.198 19.827,12.610 19.599,12.718 19.209 C 12.745 19.112,12.760 17.953,12.760 15.910 L 12.760 12.760 15.910 12.760 C 18.085 12.760,19.109 12.746,19.219 12.715 C 19.431 12.657,19.660 12.422,19.719 12.204 C 19.808 11.873,19.689 11.566,19.395 11.372 L 19.226 11.260 15.994 11.249 L 12.762 11.238 12.751 8.009 C 12.740 4.837,12.739 4.778,12.658 4.641 C 12.494 4.361,12.122 4.202,11.811 4.278 " fill="#950404" stroke="none" fill-rule="evenodd"></path></svg>