<svg width="18" height="18" viewBox="0 0 18 18" fill="none" xmlns="http://www.w3.org/2000/svg"><path d="M7.005 0.031 C 4.358 0.198,1.970 1.795,0.795 4.185 C 0.255 5.284,0.025 6.276,0.025 7.500 C 0.025 8.724,0.255 9.716,0.795 10.815 C 1.167 11.571,1.580 12.150,2.183 12.760 C 2.796 13.380,3.414 13.826,4.185 14.205 C 4.949 14.580,5.622 14.790,6.450 14.912 C 7.058 15.001,7.942 15.001,8.550 14.912 C 9.799 14.728,10.989 14.240,11.962 13.511 L 12.255 13.291 14.565 15.597 C 17.062 18.090,16.936 17.979,17.267 17.976 C 17.663 17.973,17.973 17.662,17.976 17.265 C 17.979 16.937,18.088 17.059,15.597 14.565 L 13.291 12.255 13.511 11.962 C 14.240 10.989,14.728 9.799,14.912 8.550 C 15.001 7.942,15.001 7.058,14.912 6.450 C 14.790 5.622,14.580 4.949,14.205 4.185 C 13.616 2.986,12.706 1.959,11.580 1.223 C 11.215 0.984,10.492 0.621,10.077 0.468 C 9.151 0.128,8.022 -0.033,7.005 0.031 M8.316 1.546 C 10.275 1.815,11.990 3.045,12.878 4.817 C 13.293 5.644,13.500 6.539,13.500 7.500 C 13.500 8.494,13.286 9.389,12.843 10.245 C 12.559 10.796,12.102 11.427,11.835 11.640 C 11.775 11.687,11.687 11.775,11.640 11.835 C 11.427 12.102,10.796 12.559,10.245 12.843 C 8.962 13.507,7.407 13.682,6.013 13.321 C 4.315 12.881,2.904 11.743,2.122 10.183 C 1.707 9.356,1.500 8.461,1.500 7.500 C 1.500 5.873,2.109 4.400,3.254 3.254 C 4.172 2.336,5.319 1.755,6.600 1.558 C 7.050 1.489,7.860 1.484,8.316 1.546 " stroke="none" fill-rule="evenodd" fill="black"></path></svg>