<svg width="20" height="20" viewBox="0 0 20 20" fill="none" xmlns="http://www.w3.org/2000/svg"><path d="M2.352 1.902 C 1.904 2.013,1.726 2.549,2.022 2.900 C 2.159 3.063,2.282 3.108,2.670 3.134 C 2.969 3.154,3.050 3.172,3.199 3.252 C 3.408 3.366,3.610 3.586,3.682 3.778 C 3.711 3.854,4.026 5.959,4.383 8.456 C 4.816 11.492,5.054 13.065,5.101 13.206 C 5.220 13.562,5.391 13.831,5.680 14.117 C 5.971 14.405,6.238 14.567,6.650 14.705 L 6.883 14.783 10.583 14.794 C 13.069 14.801,14.400 14.792,14.638 14.768 C 15.509 14.680,16.169 14.365,16.585 13.841 C 16.783 13.591,17.011 13.124,17.118 12.750 C 17.165 12.585,17.407 11.227,17.656 9.733 C 18.150 6.772,18.175 6.548,18.056 6.104 C 17.842 5.304,17.200 4.662,16.396 4.443 C 16.199 4.390,15.768 4.385,10.625 4.375 C 7.568 4.370,5.067 4.354,5.067 4.341 C 5.066 4.229,4.951 3.640,4.897 3.467 C 4.668 2.744,4.037 2.147,3.299 1.955 C 3.054 1.892,2.517 1.862,2.352 1.902 M16.273 5.727 C 16.478 5.828,16.670 6.018,16.764 6.212 C 16.905 6.501,16.896 6.614,16.603 8.400 C 16.455 9.308,16.325 10.083,16.316 10.124 L 16.299 10.198 13.472 10.207 L 10.645 10.217 10.505 10.310 C 10.259 10.472,10.160 10.727,10.234 11.003 C 10.283 11.185,10.474 11.380,10.651 11.429 C 10.742 11.455,11.605 11.466,13.442 11.466 L 16.101 11.467 16.085 11.542 C 16.076 11.583,16.045 11.759,16.017 11.933 C 15.951 12.339,15.885 12.566,15.764 12.805 C 15.627 13.077,15.492 13.217,15.255 13.333 C 14.834 13.540,14.945 13.535,10.774 13.526 L 6.983 13.517 6.813 13.427 C 6.609 13.319,6.390 13.081,6.318 12.889 C 6.289 12.813,6.036 11.149,5.755 9.191 L 5.244 5.633 10.680 5.641 L 16.117 5.650 16.273 5.727 M7.233 16.496 C 6.763 16.651,6.485 17.024,6.485 17.500 C 6.485 17.904,6.688 18.238,7.048 18.427 C 7.194 18.504,7.256 18.516,7.517 18.516 C 7.777 18.516,7.839 18.504,7.985 18.427 C 8.188 18.321,8.382 18.114,8.477 17.904 C 8.585 17.665,8.576 17.305,8.457 17.061 C 8.355 16.852,8.177 16.675,7.960 16.563 C 7.805 16.483,7.389 16.445,7.233 16.496 M13.900 16.496 C 13.429 16.651,13.151 17.024,13.151 17.500 C 13.151 17.912,13.346 18.231,13.717 18.428 C 13.861 18.504,13.923 18.516,14.183 18.516 C 14.444 18.516,14.506 18.504,14.652 18.427 C 14.855 18.321,15.049 18.114,15.144 17.904 C 15.252 17.665,15.243 17.305,15.124 17.061 C 15.021 16.852,14.844 16.675,14.627 16.563 C 14.472 16.483,14.056 16.445,13.900 16.496 " fill="white" stroke="none" fill-rule="evenodd"></path></svg>