<svg width="20" height="20" viewBox="0 0 20 20" fill="none" xmlns="http://www.w3.org/2000/svg"><path d="M9.782 1.363 C 9.708 1.396,9.624 1.460,9.596 1.504 C 9.568 1.547,9.075 2.716,8.501 4.100 C 7.926 5.484,7.432 6.649,7.403 6.689 C 7.269 6.871,7.333 6.863,4.361 7.102 C 1.805 7.309,1.557 7.334,1.454 7.398 C 1.252 7.522,1.173 7.821,1.284 8.036 C 1.313 8.090,2.270 8.936,3.433 9.933 C 4.587 10.923,5.554 11.767,5.582 11.810 C 5.610 11.852,5.641 11.932,5.652 11.986 C 5.666 12.055,5.473 12.920,5.036 14.753 C 4.686 16.221,4.400 17.480,4.400 17.552 C 4.400 17.905,4.792 18.142,5.106 17.980 C 5.163 17.951,6.194 17.326,7.396 16.591 C 10.083 14.950,9.819 15.101,10.000 15.101 C 10.181 15.101,9.917 14.950,12.604 16.591 C 13.806 17.326,14.837 17.951,14.894 17.980 C 15.208 18.142,15.600 17.905,15.600 17.552 C 15.600 17.480,15.314 16.221,14.964 14.755 C 14.508 12.842,14.334 12.058,14.348 11.981 C 14.359 11.922,14.399 11.834,14.437 11.787 C 14.474 11.739,15.441 10.898,16.584 9.918 C 17.748 8.921,18.686 8.092,18.715 8.036 C 18.827 7.821,18.748 7.522,18.546 7.398 C 18.443 7.334,18.195 7.309,15.639 7.102 C 12.667 6.863,12.731 6.871,12.597 6.689 C 12.568 6.649,12.074 5.484,11.500 4.100 C 10.925 2.716,10.428 1.544,10.395 1.495 C 10.331 1.403,10.117 1.299,9.991 1.301 C 9.950 1.301,9.856 1.329,9.782 1.363 " fill="#CE9A2D" stroke="none" fill-rule="evenodd"></path></svg>