<svg width="24" height="24" viewBox="0 0 24 24" fill="none" xmlns="http://www.w3.org/2000/svg"><path d="M0.543 1.045 C 0.558 1.069,2.479 3.809,4.811 7.132 C 7.143 10.456,9.053 13.195,9.056 13.220 C 9.058 13.245,7.196 15.388,4.917 17.982 C 2.638 20.577,0.715 22.768,0.643 22.850 L 0.512 23.000 1.986 22.998 L 3.460 22.996 6.915 19.058 C 8.815 16.892,10.381 15.120,10.395 15.121 C 10.409 15.121,11.662 16.894,13.180 19.060 L 15.940 22.999 19.712 22.999 C 22.690 23.000,23.478 22.990,23.454 22.951 C 23.438 22.924,21.438 20.070,19.010 16.609 L 14.596 10.317 15.973 8.748 C 16.730 7.886,18.567 5.794,20.055 4.100 L 22.761 1.020 21.314 1.009 C 20.037 1.000,19.859 1.006,19.797 1.063 C 19.758 1.098,18.281 2.771,16.515 4.781 C 14.749 6.790,13.292 8.427,13.277 8.418 C 13.262 8.409,12.082 6.736,10.655 4.701 L 8.060 1.001 4.288 1.000 C 1.515 1.000,0.523 1.012,0.543 1.045 M12.955 12.000 L 19.194 20.740 18.211 20.751 C 17.670 20.757,17.225 20.757,17.221 20.751 C 17.217 20.745,14.412 16.813,10.987 12.014 C 7.562 7.215,4.760 3.277,4.760 3.263 C 4.760 3.250,5.200 3.243,5.738 3.249 L 6.716 3.260 12.955 12.000 " fill="white" stroke="none" fill-rule="evenodd"></path></svg>