<svg width="24" height="24" viewBox="0 0 24 24" fill="none" xmlns="http://www.w3.org/2000/svg"><path d="M8.460 3.604 C 5.953 3.658,3.882 3.759,3.150 3.862 C 2.327 3.978,1.794 4.236,1.260 4.776 C 0.881 5.159,0.683 5.525,0.467 6.240 C 0.250 6.960,0.142 7.791,0.040 9.540 C -0.011 10.420,-0.011 13.583,0.041 14.460 C 0.175 16.760,0.326 17.610,0.758 18.500 C 0.971 18.939,1.170 19.191,1.514 19.455 C 2.018 19.842,2.551 20.026,3.540 20.154 C 6.483 20.535,19.154 20.491,21.120 20.094 C 21.754 19.966,22.308 19.664,22.768 19.197 C 23.086 18.874,23.365 18.342,23.553 17.700 C 23.859 16.660,23.999 14.875,24.000 12.014 C 24.000 9.007,23.853 7.230,23.513 6.162 C 23.304 5.504,23.103 5.143,22.740 4.776 C 22.206 4.236,21.673 3.978,20.850 3.862 C 19.238 3.635,12.979 3.505,8.460 3.604 M15.949 11.750 C 15.957 11.775,13.908 12.848,10.152 14.786 L 9.520 15.113 9.520 11.741 L 9.520 8.370 12.730 10.045 C 14.495 10.966,15.944 11.733,15.949 11.750 " fill="white" stroke="none" fill-rule="evenodd"></path></svg>