<svg width="1733" height="975" fill="none" xmlns="http://www.w3.org/2000/svg"><g opacity=".5"><mask id="a" maskUnits="userSpaceOnUse" x="574" y="61" width="247" height="109"><path d="M820.999 108.003V61.75H574v46.253c0 2.856 2.179 5.787 6.613 7.966l100.994 50.497c8.792 4.433 23.069 4.433 31.861 0l100.994-50.497c4.358-2.179 6.537-5.035 6.537-7.966z" fill="url(#paint0_linear)"/></mask><g mask="url(#a)"><path d="M820.999 108.003V61.75H574v46.253c0 2.856 2.179 5.787 6.613 7.966l100.994 50.497c8.792 4.433 23.069 4.433 31.861 0l100.994-50.497c4.358-2.179 6.537-5.035 6.537-7.966z" fill="url(#paint1_linear)"/></g></g><path d="M681.559 3.301c8.804-4.401 23.078-4.401 31.881 0L814.397 53.78c8.804 4.401 8.804 11.538 0 15.94L713.44 120.198c-8.803 4.402-23.077 4.402-31.881 0L580.603 69.72c-8.804-4.402-8.804-11.539 0-15.94L681.559 3.3z" fill="#F6F5F8"/><g opacity=".5"><mask id="b" maskUnits="userSpaceOnUse" x="283" y="575" width="913" height="400"><path d="M1195.53 746.014V575.132H283.002v170.882c0 10.549 8.051 21.376 24.43 29.427L680.55 962c32.481 16.379 85.228 16.379 117.709 0l373.121-186.559c16.1-8.051 24.15-18.6 24.15-29.427z" fill="url(#paint2_linear)"/></mask><g mask="url(#b)"><path d="M1195.53 746.014V575.132H283.002v170.882c0 10.549 8.051 21.376 24.43 29.427L680.55 962c32.481 16.379 85.228 16.379 117.709 0l373.121-186.559c16.1-8.051 24.15-18.6 24.15-29.427z" fill="url(#paint3_linear)"/></g></g><path d="M680.373 359.197c32.525-16.263 85.258-16.263 117.783 0l372.974 186.489c32.53 16.263 32.53 42.629 0 58.891l-372.974 186.49c-32.525 16.262-85.258 16.262-117.783 0l-372.979-186.49c-32.525-16.262-32.525-42.628 0-58.891l372.979-186.489z" fill="#F6F5F8"/><defs><linearGradient id="paint0_linear" x1="541.299" y1="21.958" x2="534.866" y2="126.32" gradientUnits="userSpaceOnUse"><stop stop-color="#D857BC"/><stop offset="1" stop-color="#D857BC" stop-opacity="0"/></linearGradient><linearGradient id="paint1_linear" x1="820.999" y1="28.027" x2="577.887" y2="23.48" gradientUnits="userSpaceOnUse"><stop stop-color="#F6F5F8"/><stop offset=".365" stop-color="#F6F5F8"/><stop offset=".479" stop-color="#F6F5F8"/><stop offset=".599" stop-color="#F6F5F8"/><stop offset="1" stop-color="#F6F5F8"/></linearGradient><linearGradient id="paint2_linear" x1="162.188" y1="428.124" x2="138.422" y2="813.684" gradientUnits="userSpaceOnUse"><stop stop-color="#D857BC"/><stop offset="1" stop-color="#D857BC" stop-opacity="0"/></linearGradient><linearGradient id="paint3_linear" x1="1195.53" y1="450.546" x2="297.362" y2="433.744" gradientUnits="userSpaceOnUse"><stop stop-color="#F6F5F8"/><stop offset=".365" stop-color="#F6F5F8"/><stop offset=".479" stop-color="#F6F5F8"/><stop offset=".599" stop-color="#F6F5F8"/><stop offset="1" stop-color="#F6F5F8"/></linearGradient></defs></svg>