<svg width="1733" height="971" fill="none" xmlns="http://www.w3.org/2000/svg"><g opacity=".5"><mask id="a" maskUnits="userSpaceOnUse" x="0" y="292" width="553" height="243"><path d="M553 395.805V292.25H.001v103.555c0 6.393 4.879 12.955 14.805 17.834l226.112 113.056c19.684 9.926 51.649 9.926 71.333 0l226.112-113.056C548.121 408.76 553 402.367 553 395.805z" fill="url(#paint0_linear)"/></mask><g mask="url(#a)"><path d="M553 395.805V292.25H.001v103.555c0 6.393 4.879 12.955 14.805 17.834l226.112 113.056c19.684 9.926 51.649 9.926 71.333 0l226.112-113.056C548.121 408.76 553 402.367 553 395.805z" fill="url(#paint1_linear)"/></g></g><path d="M240.811 161.391c19.71-9.855 51.667-9.855 71.378 0l226.028 113.014c19.71 9.856 19.71 25.834 0 35.689L312.189 423.108c-19.711 9.855-51.668 9.855-71.378 0L14.783 310.094c-19.71-9.855-19.71-25.833 0-35.689L240.81 161.391z" fill="#F6F5F8"/><g opacity=".5"><mask id="b" maskUnits="userSpaceOnUse" x="1486" y="653" width="247" height="109"><path d="M1733 700.003V653.75h-247v46.253c0 2.856 2.18 5.787 6.61 7.966l101 50.497c8.79 4.433 23.07 4.433 31.86 0l100.99-50.497c4.36-2.179 6.54-5.035 6.54-7.966z" fill="url(#paint2_linear)"/></mask><g mask="url(#b)"><path d="M1733 700.003V653.75h-247v46.253c0 2.856 2.18 5.787 6.61 7.966l101 50.497c8.79 4.433 23.07 4.433 31.86 0l100.99-50.497c4.36-2.179 6.54-5.035 6.54-7.966z" fill="url(#paint3_linear)"/></g></g><path d="M1593.56 595.301c8.8-4.401 23.08-4.401 31.88 0l100.96 50.479c8.8 4.401 8.8 11.538 0 15.94l-100.96 50.478c-8.8 4.402-23.08 4.402-31.88 0L1492.6 661.72c-8.8-4.402-8.8-11.539 0-15.94l100.96-50.479z" fill="#F6F5F8"/><defs><linearGradient id="paint0_linear" x1="-73.213" y1="203.161" x2="-87.616" y2="436.814" gradientUnits="userSpaceOnUse"><stop stop-color="#D857BC"/><stop offset="1" stop-color="#D857BC" stop-opacity="0"/></linearGradient><linearGradient id="paint1_linear" x1="553" y1="216.749" x2="8.703" y2="206.568" gradientUnits="userSpaceOnUse"><stop stop-color="#F6F5F8"/><stop offset=".365" stop-color="#F6F5F8"/><stop offset=".479" stop-color="#F6F5F8"/><stop offset=".599" stop-color="#F6F5F8"/><stop offset="1" stop-color="#F6F5F8"/></linearGradient><linearGradient id="paint2_linear" x1="1453.3" y1="613.958" x2="1446.87" y2="718.32" gradientUnits="userSpaceOnUse"><stop stop-color="#D857BC"/><stop offset="1" stop-color="#D857BC" stop-opacity="0"/></linearGradient><linearGradient id="paint3_linear" x1="1733" y1="620.027" x2="1489.89" y2="615.48" gradientUnits="userSpaceOnUse"><stop stop-color="#F6F5F8"/><stop offset=".365" stop-color="#F6F5F8"/><stop offset=".479" stop-color="#F6F5F8"/><stop offset=".599" stop-color="#F6F5F8"/><stop offset="1" stop-color="#F6F5F8"/></linearGradient></defs></svg>