<svg width="20" height="20" viewBox="0 0 20 20" fill="none" xmlns="http://www.w3.org/2000/svg"><path d="M5.000 1.663 L 5.000 2.493 4.408 2.507 C 3.892 2.520,3.791 2.532,3.617 2.599 C 3.056 2.815,2.652 3.274,2.537 3.827 C 2.485 4.076,2.485 15.924,2.537 16.173 C 2.667 16.798,3.202 17.333,3.827 17.463 C 4.076 17.515,15.924 17.515,16.173 17.463 C 16.798 17.333,17.333 16.798,17.463 16.173 C 17.515 15.924,17.515 4.076,17.463 3.827 C 17.348 3.274,16.944 2.815,16.383 2.599 C 16.209 2.532,16.108 2.520,15.592 2.507 L 15.000 2.493 15.000 1.663 L 15.000 0.833 14.167 0.833 L 13.333 0.833 13.333 1.667 L 13.333 2.500 10.000 2.500 L 6.667 2.500 6.667 1.667 L 6.667 0.833 5.833 0.833 L 5.000 0.833 5.000 1.663 M15.833 5.000 L 15.833 5.833 10.000 5.833 L 4.167 5.833 4.167 5.000 L 4.167 4.167 10.000 4.167 L 15.833 4.167 15.833 5.000 M15.833 11.667 L 15.833 15.833 10.000 15.833 L 4.167 15.833 4.167 11.667 L 4.167 7.500 10.000 7.500 L 15.833 7.500 15.833 11.667 M10.000 12.083 L 10.000 14.167 12.083 14.167 L 14.167 14.167 14.167 12.083 L 14.167 10.000 12.083 10.000 L 10.000 10.000 10.000 12.083 " fill="#C5C5C5" stroke="none" fill-rule="evenodd"></path></svg>