<svg id="Layer_1" xmlns="http://www.w3.org/2000/svg" version="1.1" viewBox="0 0 24 24"><path d="M5.329 4.165 C 4.919 4.233,4.466 4.527,4.247 4.869 C 3.994 5.263,4.000 5.159,4.000 9.258 C 4.001 12.601,4.019 13.438,4.100 13.789 C 4.117 13.860,4.100 13.883,4.021 13.899 C 3.965 13.911,3.876 13.929,3.823 13.940 C 3.682 13.969,3.489 14.146,3.394 14.332 C 3.330 14.457,3.315 14.548,3.327 14.738 C 3.347 15.043,3.461 15.218,3.713 15.330 C 3.866 15.398,3.943 15.405,4.236 15.383 L 4.580 15.357 4.715 15.620 C 4.924 16.026,5.361 16.662,5.697 17.050 L 6.000 17.399 5.390 17.704 C 4.724 18.036,4.632 18.103,4.512 18.337 C 4.409 18.538,4.425 18.913,4.542 19.043 C 4.755 19.279,5.200 19.482,5.200 19.343 C 5.200 19.296,5.241 19.280,5.360 19.280 C 5.484 19.280,5.718 19.181,6.391 18.845 L 7.261 18.409 7.520 18.569 C 8.434 19.133,9.684 19.563,10.880 19.726 C 11.371 19.793,12.829 19.793,13.320 19.726 C 14.459 19.571,15.640 19.179,16.514 18.666 L 16.763 18.521 17.641 18.960 C 18.258 19.269,18.561 19.400,18.660 19.400 C 18.737 19.400,18.800 19.418,18.800 19.440 C 18.800 19.498,19.021 19.489,19.171 19.425 C 19.348 19.350,19.460 19.215,19.536 18.989 C 19.614 18.755,19.616 18.637,19.545 18.467 C 19.464 18.272,19.285 18.143,18.663 17.832 C 18.353 17.678,18.093 17.545,18.085 17.537 C 18.077 17.529,18.191 17.392,18.340 17.232 C 18.729 16.811,19.081 16.327,19.369 15.819 L 19.620 15.374 19.960 15.377 C 20.257 15.380,20.318 15.368,20.445 15.282 C 20.679 15.123,20.780 14.942,20.779 14.681 C 20.777 14.299,20.480 13.920,20.182 13.920 C 20.085 13.920,20.076 13.909,20.097 13.810 C 20.136 13.619,20.199 12.988,20.199 12.780 C 20.200 12.476,20.128 12.279,19.956 12.106 L 19.800 11.951 19.800 8.744 C 19.800 5.211,19.803 5.259,19.553 4.869 C 19.132 4.213,18.256 4.015,17.512 4.409 C 17.380 4.478,16.850 4.906,16.263 5.417 L 15.242 6.304 14.791 6.154 C 13.919 5.864,12.973 5.720,11.931 5.720 C 10.856 5.720,10.050 5.849,9.030 6.185 C 8.607 6.324,8.599 6.325,8.506 6.252 C 8.454 6.211,7.957 5.782,7.402 5.299 C 6.847 4.815,6.327 4.379,6.247 4.330 C 5.993 4.173,5.649 4.111,5.329 4.165 M6.726 6.761 C 7.371 7.323,7.954 7.820,8.020 7.866 C 8.156 7.961,8.400 8.027,8.400 7.968 C 8.400 7.947,8.476 7.918,8.569 7.903 C 8.662 7.888,8.896 7.805,9.089 7.718 C 9.859 7.372,10.663 7.201,11.664 7.171 C 12.924 7.133,14.000 7.340,15.000 7.812 C 15.274 7.942,15.386 7.973,15.580 7.975 C 15.868 7.978,16.002 7.903,16.165 7.645 C 16.239 7.528,16.635 7.171,17.329 6.593 L 18.380 5.717 18.400 9.289 C 18.420 12.820,18.421 12.862,18.503 12.992 C 18.576 13.107,18.582 13.154,18.552 13.372 C 18.507 13.705,18.486 13.760,18.407 13.760 C 18.370 13.760,17.701 13.706,16.920 13.640 C 15.232 13.497,15.126 13.495,14.923 13.598 C 14.747 13.688,14.571 13.881,14.535 14.025 C 14.488 14.211,14.544 14.512,14.657 14.683 C 14.839 14.958,14.925 14.978,16.490 15.105 C 17.255 15.167,17.880 15.233,17.880 15.252 C 17.880 15.405,16.871 16.586,16.630 16.715 C 16.540 16.763,16.447 16.723,15.396 16.195 C 14.315 15.652,14.248 15.624,14.017 15.622 C 13.812 15.620,13.751 15.637,13.631 15.729 C 13.266 16.008,13.213 16.579,13.526 16.866 C 13.578 16.913,13.935 17.109,14.320 17.300 C 14.705 17.492,15.028 17.657,15.039 17.667 C 15.074 17.700,14.941 17.757,14.460 17.916 C 13.839 18.122,13.310 18.228,12.640 18.278 C 11.476 18.367,10.185 18.154,9.186 17.708 L 8.912 17.586 9.666 17.203 C 10.310 16.876,10.436 16.797,10.531 16.660 C 10.792 16.281,10.684 15.841,10.277 15.627 C 9.938 15.448,9.860 15.470,8.582 16.108 L 7.474 16.660 7.107 16.279 C 6.761 15.919,6.320 15.339,6.320 15.243 C 6.320 15.220,6.370 15.199,6.430 15.198 C 6.490 15.197,7.121 15.147,7.831 15.086 C 9.259 14.963,9.229 14.971,9.450 14.656 C 9.688 14.318,9.613 13.875,9.279 13.655 C 9.040 13.496,8.850 13.495,7.182 13.637 C 6.108 13.728,5.737 13.748,5.716 13.713 C 5.675 13.647,5.637 13.366,5.600 12.860 C 5.583 12.618,5.549 12.369,5.524 12.307 C 5.469 12.168,5.461 5.706,5.516 5.727 C 5.535 5.734,6.080 6.200,6.726 6.761 M9.074 10.490 C 8.867 10.823,8.800 10.995,8.800 11.190 C 8.800 11.373,8.812 11.394,9.051 11.631 L 9.302 11.880 9.613 11.880 C 9.909 11.880,9.934 11.873,10.112 11.737 C 10.327 11.573,10.393 11.432,10.397 11.119 C 10.400 10.871,10.364 10.800,10.086 10.510 L 9.903 10.320 9.542 10.320 L 9.180 10.320 9.074 10.490 M13.933 10.490 C 13.842 10.583,13.731 10.735,13.685 10.827 C 13.610 10.977,13.606 11.018,13.646 11.227 C 13.684 11.425,13.722 11.492,13.894 11.670 L 14.097 11.880 14.461 11.880 L 14.824 11.880 14.967 11.730 C 15.137 11.551,15.200 11.380,15.199 11.104 C 15.199 10.913,15.182 10.881,14.956 10.610 L 14.714 10.320 14.405 10.320 L 14.097 10.320 13.933 10.490 M11.592 12.830 C 11.395 13.040,11.320 13.250,11.320 13.590 L 11.320 13.903 11.511 14.092 C 11.670 14.248,11.728 14.280,11.851 14.280 C 11.933 14.280,12.000 14.262,12.000 14.240 C 12.000 14.218,12.096 14.200,12.213 14.200 C 12.460 14.200,12.529 14.145,12.696 13.811 C 12.769 13.665,12.800 13.539,12.800 13.390 C 12.800 13.184,12.793 13.170,12.569 12.949 L 12.338 12.720 12.016 12.720 C 11.717 12.720,11.688 12.728,11.592 12.830 " stroke="none" fill-rule="evenodd" fill="black"></path></svg>