<svg width="18" height="16" viewBox="0 0 18 16" fill="none" xmlns="http://www.w3.org/2000/svg"><path d="M1.682 0.032 C 1.248 0.118,0.851 0.343,0.545 0.677 C 0.341 0.900,0.186 1.176,0.085 1.500 L 0.015 1.725 0.015 6.990 L 0.015 12.255 0.085 12.479 C 0.360 13.352,0.996 13.888,1.869 13.980 C 2.240 14.019,7.530 14.020,7.530 13.981 C 7.530 13.965,7.495 13.874,7.453 13.778 C 7.365 13.579,7.193 13.026,7.141 12.773 L 7.106 12.601 4.473 12.593 L 1.840 12.585 1.693 12.494 C 1.602 12.438,1.512 12.348,1.456 12.257 L 1.365 12.110 1.356 7.067 C 1.350 3.329,1.357 1.992,1.383 1.899 C 1.427 1.737,1.598 1.537,1.753 1.467 C 1.870 1.413,2.142 1.411,9.000 1.411 C 15.858 1.411,16.130 1.413,16.247 1.467 C 16.396 1.535,16.569 1.730,16.615 1.886 C 16.640 1.969,16.650 2.573,16.650 4.009 L 16.650 6.016 16.837 6.151 C 17.035 6.293,17.707 6.944,17.891 7.170 L 18.000 7.305 17.992 4.500 L 17.985 1.695 17.906 1.465 C 17.681 0.804,17.200 0.308,16.581 0.098 L 16.335 0.015 9.075 0.011 C 5.025 0.008,1.756 0.018,1.682 0.032 M3.356 3.084 C 3.125 3.205,3.015 3.390,3.015 3.658 C 3.016 3.902,3.105 4.080,3.295 4.214 L 3.425 4.305 9.000 4.305 L 14.575 4.305 14.705 4.214 C 14.895 4.080,14.984 3.902,14.985 3.658 C 14.985 3.390,14.875 3.205,14.644 3.084 L 14.483 3.000 9.000 3.000 L 3.517 3.000 3.356 3.084 M3.364 5.735 C 2.922 5.954,2.889 6.617,3.307 6.893 L 3.431 6.975 5.760 6.983 L 8.089 6.991 8.297 6.713 C 8.411 6.560,8.663 6.271,8.858 6.071 C 9.128 5.793,9.200 5.703,9.163 5.689 C 9.137 5.678,7.851 5.670,6.305 5.670 L 3.495 5.670 3.364 5.735 M13.035 6.033 C 12.134 6.163,11.268 6.703,10.721 7.477 C 10.247 8.146,10.017 8.889,10.017 9.750 C 10.016 10.759,10.373 11.695,11.022 12.382 L 11.220 12.592 11.220 14.033 L 11.220 15.473 11.304 15.634 C 11.422 15.860,11.612 15.976,11.863 15.973 C 11.976 15.973,12.082 15.952,12.144 15.920 C 12.198 15.891,12.525 15.590,12.871 15.250 L 13.499 14.633 14.133 15.252 C 14.482 15.593,14.809 15.895,14.861 15.922 C 14.918 15.952,15.028 15.973,15.137 15.973 C 15.388 15.976,15.578 15.860,15.696 15.634 L 15.780 15.473 15.780 14.033 L 15.780 12.593 15.957 12.404 C 16.274 12.064,16.558 11.616,16.727 11.185 C 17.049 10.366,17.072 9.328,16.786 8.474 C 16.236 6.831,14.652 5.800,13.035 6.033 M13.965 7.455 C 14.624 7.623,15.214 8.164,15.489 8.853 C 15.939 9.980,15.436 11.352,14.385 11.866 C 14.049 12.030,13.803 12.089,13.452 12.090 C 12.647 12.091,11.894 11.607,11.509 10.839 C 11.466 10.754,11.395 10.565,11.351 10.419 C 11.282 10.193,11.271 10.099,11.269 9.765 C 11.269 9.492,11.284 9.313,11.320 9.167 C 11.548 8.253,12.252 7.570,13.133 7.409 C 13.322 7.375,13.741 7.398,13.965 7.455 " fill="#313131" stroke="none" fill-rule="evenodd"></path></svg>