<svg width="24" height="24" viewBox="0 0 24 24" fill="none" xmlns="http://www.w3.org/2000/svg"><path d="M4.574 4.057 C 3.848 4.233,3.237 4.860,3.060 5.610 C 2.972 5.985,2.972 16.015,3.060 16.390 C 3.242 17.162,3.882 17.799,4.632 17.956 C 4.775 17.986,5.766 18.000,7.687 18.000 C 10.376 18.000,10.528 17.996,10.506 17.930 C 10.493 17.892,10.419 17.680,10.342 17.460 C 10.265 17.240,10.181 16.957,10.156 16.830 L 10.110 16.600 7.501 16.600 L 4.893 16.600 4.718 16.508 C 4.599 16.445,4.515 16.361,4.452 16.242 L 4.360 16.067 4.360 11.000 L 4.360 5.933 4.452 5.758 C 4.515 5.639,4.599 5.555,4.718 5.492 L 4.893 5.400 12.000 5.400 L 19.107 5.400 19.282 5.492 C 19.401 5.555,19.485 5.639,19.548 5.758 L 19.640 5.933 19.642 7.976 L 19.643 10.020 19.886 10.200 C 20.020 10.299,20.325 10.585,20.564 10.835 L 21.000 11.290 20.999 8.575 C 20.999 6.323,20.989 5.817,20.940 5.610 C 20.758 4.838,20.118 4.201,19.368 4.044 C 19.045 3.977,4.854 3.989,4.574 4.057 M6.376 7.076 C 5.939 7.275,5.892 7.925,6.293 8.218 C 6.406 8.300,6.416 8.300,12.000 8.300 C 17.584 8.300,17.594 8.300,17.707 8.218 C 18.108 7.925,18.061 7.275,17.624 7.076 C 17.467 7.005,17.238 7.002,12.000 7.002 C 6.762 7.002,6.533 7.005,6.376 7.076 M6.377 9.737 C 6.142 9.839,5.971 10.164,6.013 10.426 C 6.048 10.641,6.194 10.841,6.376 10.924 C 6.530 10.994,6.682 10.998,8.820 10.998 L 11.100 10.998 11.240 10.790 C 11.317 10.676,11.564 10.391,11.789 10.157 C 12.015 9.923,12.187 9.720,12.173 9.706 C 12.158 9.692,10.876 9.681,9.323 9.682 C 7.051 9.683,6.476 9.694,6.377 9.737 M15.909 10.063 C 15.248 10.183,14.661 10.493,14.147 10.994 C 12.683 12.421,12.624 14.840,14.015 16.386 L 14.200 16.592 14.200 17.966 C 14.200 18.845,14.216 19.397,14.245 19.499 C 14.304 19.712,14.541 19.945,14.736 19.982 C 15.032 20.037,15.149 19.964,15.848 19.284 L 16.500 18.651 17.154 19.285 C 17.854 19.964,17.970 20.037,18.264 19.982 C 18.459 19.945,18.696 19.712,18.755 19.499 C 18.784 19.397,18.800 18.845,18.800 17.966 L 18.800 16.592 18.985 16.386 C 20.342 14.878,20.326 12.559,18.948 11.096 C 18.140 10.238,17.030 9.861,15.909 10.063 M17.240 11.553 C 17.821 11.797,18.287 12.299,18.508 12.921 C 18.647 13.310,18.681 13.937,18.584 14.323 C 18.313 15.400,17.453 16.103,16.420 16.092 C 15.858 16.087,15.429 15.905,14.988 15.485 C 14.031 14.574,14.016 12.978,14.955 12.043 C 15.426 11.575,15.887 11.392,16.540 11.414 C 16.880 11.425,16.985 11.447,17.240 11.553 " fill="#313131" stroke="none" fill-rule="evenodd"></path></svg>