<svg width="16" height="16" viewBox="0 0 16 16" fill="none" xmlns="http://www.w3.org/2000/svg"><path d="M7.533 1.616 C 6.574 1.715,5.886 1.905,5.141 2.279 C 3.260 3.222,1.989 4.981,1.662 7.093 C 1.596 7.522,1.596 8.478,1.662 8.907 C 1.880 10.314,2.494 11.535,3.479 12.521 C 4.465 13.506,5.686 14.120,7.093 14.338 C 7.522 14.404,8.478 14.404,8.907 14.338 C 10.314 14.120,11.536 13.506,12.521 12.521 C 13.506 11.536,14.120 10.314,14.338 8.907 C 14.373 8.680,14.385 8.443,14.385 8.000 C 14.385 7.167,14.303 6.664,14.040 5.896 C 13.506 4.337,12.351 3.024,10.859 2.280 C 10.217 1.960,9.642 1.780,8.907 1.667 C 8.637 1.626,7.754 1.593,7.533 1.616 M11.640 4.661 C 11.919 4.857,12.147 5.022,12.147 5.027 C 12.147 5.032,11.103 6.543,9.827 8.384 L 7.507 11.732 6.973 11.733 L 6.438 11.733 5.151 9.927 C 4.443 8.933,3.862 8.112,3.859 8.103 C 3.856 8.093,4.093 7.863,4.387 7.590 L 4.920 7.095 5.053 7.223 C 5.174 7.339,6.744 8.802,6.908 8.951 L 6.976 9.013 9.028 6.643 C 10.157 5.340,11.092 4.281,11.107 4.289 C 11.121 4.298,11.361 4.465,11.640 4.661 " fill="#4ACB51" stroke="none" fill-rule="evenodd"></path></svg>