<svg width="14" height="14" viewBox="0 0 14 14" fill="none" xmlns="http://www.w3.org/2000/svg"><path d="M4.332 0.035 C 4.062 0.104,3.789 0.277,3.640 0.476 C 3.591 0.541,3.324 0.957,3.048 1.400 C 2.771 1.843,2.486 2.270,2.415 2.349 C 2.305 2.472,2.163 2.571,1.440 3.023 C 0.975 3.314,0.540 3.593,0.474 3.643 C 0.317 3.759,0.151 3.994,0.074 4.207 C 0.023 4.349,0.013 4.413,0.014 4.620 C 0.016 4.845,0.034 4.944,0.241 5.836 C 0.432 6.656,0.467 6.837,0.466 7.003 C 0.466 7.166,0.430 7.356,0.243 8.167 C 0.121 8.699,0.014 9.214,0.007 9.311 C -0.009 9.528,0.056 9.811,0.167 10.004 C 0.308 10.251,0.449 10.360,1.367 10.932 C 2.053 11.359,2.259 11.499,2.380 11.620 C 2.500 11.740,2.641 11.946,3.050 12.601 C 3.335 13.057,3.605 13.479,3.651 13.539 C 3.758 13.680,3.988 13.843,4.191 13.923 C 4.328 13.976,4.388 13.986,4.597 13.987 C 4.826 13.988,4.904 13.974,5.824 13.761 C 6.646 13.570,6.837 13.533,6.999 13.533 C 7.162 13.533,7.350 13.570,8.164 13.759 C 9.056 13.966,9.155 13.984,9.380 13.986 C 9.587 13.987,9.651 13.977,9.793 13.926 C 9.999 13.852,10.237 13.686,10.350 13.538 C 10.396 13.478,10.666 13.056,10.951 12.600 C 11.361 11.943,11.499 11.740,11.620 11.620 C 11.739 11.501,11.948 11.358,12.601 10.950 C 13.057 10.665,13.479 10.395,13.539 10.349 C 13.686 10.237,13.852 9.998,13.926 9.793 C 13.977 9.651,13.987 9.587,13.985 9.380 C 13.984 9.155,13.966 9.060,13.767 8.213 C 13.466 6.934,13.466 7.099,13.764 5.795 C 13.931 5.067,14.000 4.721,14.000 4.616 C 14.000 4.298,13.865 3.975,13.637 3.747 C 13.529 3.638,13.295 3.480,12.634 3.069 C 11.943 2.639,11.742 2.502,11.620 2.380 C 11.500 2.260,11.358 2.050,10.932 1.367 C 10.555 0.762,10.357 0.466,10.267 0.375 C 10.022 0.127,9.647 -0.017,9.310 0.008 C 9.214 0.015,8.699 0.122,8.167 0.246 C 7.346 0.437,7.168 0.471,7.000 0.472 C 6.831 0.472,6.657 0.438,5.833 0.246 C 4.779 0.000,4.581 -0.028,4.332 0.035 M9.720 4.072 C 9.890 4.158,9.972 4.286,9.983 4.485 C 9.991 4.629,9.985 4.654,9.911 4.788 C 9.866 4.869,9.182 6.032,8.391 7.373 C 7.439 8.986,6.924 9.836,6.870 9.885 C 6.722 10.017,6.491 10.043,6.313 9.948 C 6.222 9.899,4.150 7.922,4.061 7.799 C 3.979 7.686,3.965 7.443,4.033 7.311 C 4.162 7.057,4.468 6.955,4.715 7.083 C 4.778 7.115,5.555 7.845,6.197 8.476 L 6.433 8.707 7.760 6.459 C 8.489 5.223,9.115 4.184,9.150 4.151 C 9.308 4.001,9.521 3.971,9.720 4.072 " fill="#222222" stroke="none" fill-rule="evenodd"></path></svg>