<svg width="8" height="7" viewBox="0 0 8 7" fill="none" version="1.1" id="svg184" sodipodi:docname="check.svg" inkscape:version="1.2 (dc2aeda, 2022-05-15)" xmlns:inkscape="http://www.inkscape.org/namespaces/inkscape" xmlns:sodipodi="http://sodipodi.sourceforge.net/DTD/sodipodi-0.dtd" xmlns="http://www.w3.org/2000/svg" xmlns:svg="http://www.w3.org/2000/svg"><path d="M6.831 0.531 C 6.763 0.555,6.691 0.602,6.638 0.658 C 6.623 0.674,5.752 1.708,4.704 2.957 C 3.655 4.205,2.792 5.227,2.787 5.227 C 2.781 5.227,2.486 4.904,2.132 4.510 C 1.334 3.623,1.320 3.608,1.220 3.555 C 1.145 3.516,1.131 3.513,1.000 3.513 C 0.872 3.513,0.854 3.517,0.783 3.552 C 0.693 3.598,0.582 3.709,0.547 3.790 C 0.488 3.922,0.491 4.092,0.553 4.220 C 0.576 4.266,0.862 4.594,1.460 5.260 C 1.941 5.795,2.381 6.279,2.438 6.335 C 2.567 6.460,2.648 6.497,2.800 6.497 C 2.916 6.497,3.015 6.464,3.103 6.396 C 3.133 6.373,3.985 5.369,4.995 4.167 C 6.004 2.964,6.962 1.824,7.122 1.633 C 7.283 1.443,7.429 1.257,7.447 1.220 C 7.465 1.183,7.486 1.119,7.494 1.077 C 7.531 0.873,7.412 0.647,7.215 0.550 C 7.117 0.502,6.936 0.493,6.831 0.531 " stroke="none" fill-rule="evenodd" fill="#000000"></path></svg>