<svg width="15" height="14" viewBox="0 0 15 14" fill="none" xmlns="http://www.w3.org/2000/svg"><path d="M6.902 0.028 C 6.579 0.056,6.140 0.135,5.788 0.226 C 4.520 0.555,3.258 1.351,2.428 2.344 C 1.541 3.404,1.061 4.510,0.871 5.925 C 0.825 6.273,0.832 7.145,0.885 7.513 C 1.058 8.720,1.499 9.786,2.217 10.732 C 2.482 11.081,3.121 11.714,3.477 11.981 C 4.384 12.660,5.417 13.094,6.538 13.266 C 6.965 13.332,8.035 13.332,8.463 13.266 C 9.345 13.131,10.282 12.790,10.988 12.348 C 11.846 11.811,12.622 11.040,13.162 10.188 C 13.629 9.449,13.988 8.441,14.116 7.500 C 14.167 7.123,14.174 6.276,14.129 5.925 C 13.948 4.533,13.456 3.401,12.572 2.344 C 11.742 1.351,10.480 0.555,9.212 0.226 C 8.455 0.029,7.656 -0.039,6.902 0.028 M5.320 3.838 C 5.383 3.865,5.743 4.207,6.456 4.920 L 7.500 5.962 8.531 4.934 C 9.098 4.368,9.600 3.886,9.646 3.863 C 9.850 3.761,10.133 3.838,10.267 4.031 C 10.354 4.158,10.376 4.376,10.313 4.502 C 10.289 4.549,9.804 5.054,9.235 5.625 L 8.200 6.663 9.214 7.675 C 9.810 8.269,10.250 8.729,10.280 8.787 C 10.371 8.963,10.339 9.204,10.203 9.359 C 10.095 9.482,9.831 9.538,9.658 9.474 C 9.619 9.459,9.118 8.979,8.544 8.405 L 7.500 7.363 6.443 8.420 C 5.486 9.376,5.374 9.480,5.266 9.513 C 4.902 9.622,4.564 9.293,4.652 8.914 C 4.680 8.792,4.718 8.750,5.740 7.725 L 6.799 6.662 5.761 5.625 C 5.189 5.054,4.703 4.554,4.681 4.513 C 4.658 4.470,4.640 4.378,4.639 4.300 C 4.637 3.944,4.992 3.703,5.320 3.838 " fill="#FF6868" stroke="none" fill-rule="evenodd"></path></svg>