<svg width="18" height="20" viewBox="0 0 18 20" fill="none" version="1.1" id="svg184" sodipodi:docname="delete.svg" inkscape:version="1.2 (dc2aeda, 2022-05-15)" xmlns:inkscape="http://www.inkscape.org/namespaces/inkscape" xmlns:sodipodi="http://sodipodi.sourceforge.net/DTD/sodipodi-0.dtd" xmlns="http://www.w3.org/2000/svg" xmlns:svg="http://www.w3.org/2000/svg"><path d="M5.860 0.271 C 5.683 0.306,5.577 0.368,5.450 0.508 C 5.376 0.591,5.043 1.224,4.433 2.444 L 3.526 4.258 2.143 4.267 L 0.760 4.275 0.616 4.365 C 0.431 4.481,0.309 4.653,0.265 4.860 C 0.200 5.175,0.370 5.517,0.673 5.680 C 0.787 5.741,0.842 5.746,1.522 5.754 L 2.250 5.764 2.250 11.499 C 2.250 15.355,2.261 17.299,2.282 17.430 C 2.328 17.716,2.475 18.133,2.619 18.388 C 2.767 18.649,3.143 19.059,3.408 19.248 C 3.661 19.429,4.047 19.605,4.369 19.687 L 4.635 19.755 9.000 19.755 L 13.365 19.755 13.631 19.687 C 14.152 19.555,14.600 19.295,14.974 18.910 C 15.316 18.558,15.489 18.259,15.654 17.734 L 15.735 17.475 15.743 11.619 L 15.751 5.764 16.478 5.754 C 17.300 5.744,17.341 5.734,17.558 5.493 C 17.880 5.137,17.774 4.568,17.343 4.343 L 17.183 4.260 15.829 4.260 L 14.475 4.260 13.568 2.445 C 12.948 1.206,12.625 0.591,12.548 0.505 C 12.486 0.437,12.374 0.352,12.300 0.318 C 12.166 0.255,12.141 0.255,9.075 0.250 C 7.375 0.248,5.929 0.257,5.860 0.271 M12.156 2.985 C 12.498 3.662,12.778 4.225,12.778 4.237 C 12.779 4.250,11.079 4.260,9.000 4.260 C 6.921 4.260,5.220 4.253,5.220 4.245 C 5.220 4.220,6.424 1.818,6.457 1.777 C 6.481 1.748,7.015 1.741,9.011 1.747 L 11.535 1.755 12.156 2.985 M14.243 11.527 L 14.235 17.295 14.170 17.454 C 14.030 17.796,13.779 18.039,13.413 18.187 L 13.245 18.255 9.000 18.255 L 4.755 18.255 4.587 18.187 C 4.221 18.039,3.970 17.796,3.830 17.454 L 3.765 17.295 3.757 11.527 L 3.749 5.760 9.000 5.760 L 14.251 5.760 14.243 11.527 M6.825 8.278 C 6.678 8.314,6.557 8.389,6.442 8.516 C 6.232 8.749,6.240 8.603,6.240 12.016 C 6.240 14.550,6.247 15.105,6.282 15.219 C 6.402 15.619,6.818 15.835,7.241 15.718 C 7.386 15.677,7.612 15.472,7.684 15.315 C 7.736 15.201,7.739 15.030,7.739 12.015 L 7.739 8.835 7.669 8.683 C 7.522 8.369,7.162 8.196,6.825 8.278 M10.759 8.297 C 10.573 8.357,10.348 8.576,10.297 8.748 C 10.269 8.842,10.260 9.628,10.261 12.033 C 10.261 15.610,10.241 15.316,10.507 15.560 C 10.921 15.940,11.609 15.721,11.729 15.171 C 11.749 15.076,11.760 13.985,11.760 11.989 C 11.760 8.606,11.768 8.749,11.558 8.516 C 11.352 8.288,11.048 8.205,10.759 8.297 " stroke="none" fill-rule="evenodd" fill="#000000"></path></svg>