<svg width="20" height="18" viewBox="0 0 20 18" fill="none" xmlns="http://www.w3.org/2000/svg"><path d="M2.683 0.322 C 2.551 0.392,2.405 0.529,2.348 0.638 C 2.322 0.687,1.849 2.284,1.295 4.188 C 0.329 7.514,0.289 7.663,0.275 7.983 C 0.263 8.272,0.272 8.348,0.342 8.554 C 0.493 8.995,0.765 9.316,1.167 9.531 C 1.457 9.685,1.538 9.706,1.966 9.729 L 2.350 9.750 2.376 9.933 C 2.446 10.417,2.650 11.445,2.785 11.990 C 3.629 15.423,5.114 17.319,7.240 17.681 C 7.516 17.728,7.895 17.735,10.000 17.735 C 12.105 17.735,12.484 17.728,12.760 17.681 C 15.214 17.263,16.805 14.817,17.562 10.297 L 17.654 9.750 18.035 9.729 C 18.463 9.705,18.542 9.686,18.840 9.528 C 19.261 9.305,19.600 8.860,19.701 8.396 C 19.797 7.957,19.791 7.932,18.704 4.189 C 18.151 2.285,17.678 0.687,17.652 0.639 C 17.537 0.417,17.278 0.267,17.013 0.267 C 16.927 0.267,15.465 0.492,13.764 0.767 L 10.672 1.267 10.000 1.267 L 9.328 1.267 6.236 0.767 C 4.535 0.492,3.062 0.267,2.963 0.268 C 2.864 0.269,2.738 0.293,2.683 0.322 M5.550 2.170 C 6.595 2.337,7.457 2.481,7.465 2.488 C 7.473 2.495,7.419 2.565,7.345 2.642 C 7.271 2.720,6.074 4.003,4.685 5.494 C 3.296 6.985,2.123 8.218,2.080 8.235 C 1.978 8.273,1.853 8.227,1.786 8.126 C 1.738 8.053,1.787 7.869,2.585 5.116 C 3.052 3.503,3.456 2.106,3.484 2.011 C 3.522 1.878,3.546 1.842,3.592 1.852 C 3.624 1.859,4.505 2.002,5.550 2.170 M17.368 4.954 C 18.210 7.861,18.262 8.053,18.214 8.125 C 18.148 8.227,18.022 8.273,17.920 8.235 C 17.877 8.218,16.710 6.992,15.328 5.511 C 12.383 2.353,12.520 2.502,12.537 2.486 C 12.554 2.471,16.447 1.840,16.460 1.851 C 16.466 1.856,16.874 3.252,17.368 4.954 M13.486 5.735 C 15.173 7.546,16.281 8.759,16.277 8.793 C 16.273 8.824,16.232 9.116,16.185 9.441 C 15.902 11.395,15.527 12.793,14.979 13.933 C 14.373 15.193,13.585 15.947,12.625 16.186 C 12.326 16.260,10.775 16.296,10.752 16.230 C 10.743 16.204,10.732 15.842,10.726 15.425 C 10.719 14.883,10.727 14.667,10.754 14.667 C 10.848 14.667,11.272 14.418,11.379 14.301 C 11.635 14.018,11.733 13.701,11.733 13.164 C 11.733 12.690,11.625 12.472,11.317 12.330 C 11.195 12.273,11.082 12.268,10.000 12.268 C 8.918 12.268,8.805 12.273,8.683 12.330 C 8.395 12.463,8.267 12.696,8.267 13.086 C 8.267 13.378,8.334 13.671,8.457 13.914 C 8.576 14.150,8.908 14.466,9.143 14.568 C 9.286 14.630,9.327 14.662,9.309 14.700 C 9.296 14.727,9.277 15.088,9.267 15.500 L 9.250 16.250 8.450 16.248 C 7.939 16.246,7.578 16.230,7.450 16.203 C 5.784 15.849,4.614 13.921,3.985 10.491 C 3.917 10.121,3.752 9.051,3.723 8.793 C 3.719 8.759,4.827 7.546,6.514 5.735 L 9.312 2.733 10.000 2.733 L 10.688 2.733 13.486 5.735 M7.683 7.330 C 7.418 7.453,7.266 7.700,7.267 8.007 C 7.269 8.492,7.694 8.832,8.171 8.729 C 8.849 8.584,8.935 7.587,8.293 7.318 C 8.126 7.249,7.847 7.254,7.683 7.330 M11.683 7.330 C 11.418 7.453,11.266 7.700,11.267 8.007 C 11.269 8.492,11.694 8.832,12.171 8.729 C 12.849 8.584,12.935 7.587,12.293 7.318 C 12.126 7.249,11.847 7.254,11.683 7.330 " stroke="none" fill-rule="evenodd" fill="black"></path></svg>