<svg width="24" height="24" viewBox="0 0 24 24" fill="none" version="1.1" id="svg186" sodipodi:docname="dogs.svg" inkscape:version="1.2 (dc2aeda, 2022-05-15)" xmlns:inkscape="http://www.inkscape.org/namespaces/inkscape" xmlns:sodipodi="http://sodipodi.sourceforge.net/DTD/sodipodi-0.dtd" xmlns="http://www.w3.org/2000/svg" xmlns:svg="http://www.w3.org/2000/svg"><path d="M4.800 3.287 C 4.608 3.341,4.424 3.489,4.349 3.648 C 4.247 3.862,2.316 10.557,2.276 10.832 C 2.177 11.514,2.573 12.239,3.215 12.554 C 3.508 12.697,3.903 12.775,4.158 12.740 L 4.344 12.715 4.415 13.167 C 4.878 16.101,5.720 18.200,6.919 19.402 C 7.698 20.184,8.572 20.613,9.603 20.718 C 10.130 20.772,13.870 20.772,14.397 20.718 C 16.214 20.532,17.630 19.295,18.545 17.092 C 18.983 16.038,19.352 14.648,19.584 13.175 L 19.654 12.730 19.997 12.728 C 20.539 12.725,20.925 12.559,21.286 12.171 C 21.632 11.800,21.786 11.332,21.722 10.843 C 21.686 10.569,19.761 3.880,19.651 3.648 C 19.574 3.483,19.389 3.341,19.180 3.284 C 19.041 3.247,18.623 3.306,15.934 3.741 L 12.847 4.240 12.000 4.240 L 11.153 4.240 8.062 3.740 C 6.363 3.465,4.965 3.242,4.956 3.244 C 4.947 3.246,4.877 3.265,4.800 3.287 M7.614 5.179 C 8.623 5.342,9.455 5.481,9.462 5.489 C 9.490 5.517,4.186 11.181,4.100 11.216 C 3.961 11.272,3.805 11.214,3.775 11.096 C 3.757 11.024,4.010 10.095,4.621 7.987 C 5.101 6.333,5.501 4.948,5.511 4.909 C 5.526 4.854,5.557 4.843,5.655 4.861 C 5.724 4.873,6.605 5.016,7.614 5.179 M18.489 4.910 C 18.499 4.949,18.899 6.334,19.379 7.988 C 19.982 10.073,20.242 11.027,20.224 11.097 C 20.195 11.214,20.038 11.271,19.901 11.216 C 19.813 11.180,14.510 5.517,14.538 5.489 C 14.550 5.477,18.293 4.856,18.425 4.844 C 18.450 4.842,18.479 4.872,18.489 4.910 M15.425 8.668 C 16.918 10.268,18.173 11.618,18.212 11.668 C 18.281 11.755,18.282 11.780,18.221 12.209 C 17.688 15.935,16.699 18.200,15.274 18.960 C 14.849 19.187,14.529 19.240,13.597 19.240 L 12.766 19.240 12.748 18.530 C 12.738 18.140,12.724 17.786,12.715 17.745 C 12.703 17.688,12.737 17.659,12.864 17.621 C 13.523 17.423,13.891 16.654,13.716 15.838 C 13.655 15.554,13.446 15.345,13.162 15.284 C 12.891 15.226,11.109 15.226,10.838 15.284 C 10.405 15.377,10.194 15.763,10.281 16.304 C 10.396 17.024,10.711 17.406,11.268 17.498 L 11.435 17.526 11.348 17.693 C 11.269 17.843,11.259 17.932,11.247 18.553 L 11.233 19.246 10.307 19.231 C 9.489 19.217,9.349 19.205,9.120 19.129 C 7.495 18.588,6.369 16.289,5.801 12.349 C 5.718 11.778,5.718 11.755,5.788 11.668 C 5.827 11.618,7.081 10.268,8.574 8.668 L 11.288 5.760 11.999 5.760 L 12.710 5.760 15.425 8.668 M9.807 10.289 C 9.335 10.390,9.099 11.042,9.391 11.437 C 9.877 12.093,10.894 11.636,10.716 10.841 C 10.622 10.422,10.248 10.194,9.807 10.289 M13.807 10.289 C 13.335 10.390,13.099 11.042,13.391 11.437 C 13.877 12.093,14.894 11.636,14.716 10.841 C 14.622 10.422,14.248 10.194,13.807 10.289 " stroke="none" fill-rule="evenodd" fill="#313131"></path></svg>