<svg width="12" height="12" viewBox="0 0 12 12" fill="none" version="1.1" id="svg186" sodipodi:docname="edit.svg" inkscape:version="1.2 (dc2aeda, 2022-05-15)" xmlns:inkscape="http://www.inkscape.org/namespaces/inkscape" xmlns:sodipodi="http://sodipodi.sourceforge.net/DTD/sodipodi-0.dtd" xmlns="http://www.w3.org/2000/svg" xmlns:svg="http://www.w3.org/2000/svg"><path d="M9.750 0.708 C 9.592 0.745,9.453 0.799,9.286 0.889 C 9.165 0.954,8.883 1.230,6.694 3.426 C 5.343 4.781,4.213 5.926,4.182 5.970 C 4.117 6.062,3.400 8.192,3.400 8.292 C 3.400 8.483,3.533 8.691,3.709 8.773 C 3.899 8.861,3.917 8.857,5.089 8.467 C 5.673 8.273,6.181 8.099,6.220 8.079 C 6.259 8.060,7.390 6.949,8.734 5.611 C 10.563 3.791,11.202 3.143,11.272 3.038 C 11.652 2.466,11.624 1.765,11.199 1.230 C 11.015 0.999,10.773 0.836,10.470 0.740 C 10.291 0.684,9.927 0.667,9.750 0.708 M2.180 1.709 C 1.467 1.867,0.930 2.378,0.737 3.080 L 0.690 3.250 0.690 6.600 L 0.690 9.950 0.735 10.120 C 0.835 10.499,1.082 10.886,1.369 11.114 C 1.560 11.267,1.864 11.420,2.100 11.484 L 2.270 11.530 5.970 11.530 L 9.670 11.530 9.840 11.483 C 10.273 11.364,10.658 11.101,10.913 10.750 C 11.018 10.605,11.152 10.314,11.204 10.119 C 11.248 9.951,11.248 9.938,11.255 8.242 C 11.262 6.298,11.271 6.409,11.099 6.237 C 10.839 5.977,10.416 6.059,10.262 6.400 C 10.222 6.488,10.221 6.524,10.220 8.092 C 10.220 9.083,10.212 9.735,10.200 9.801 C 10.138 10.127,9.895 10.384,9.569 10.469 C 9.466 10.496,9.033 10.500,5.970 10.500 C 2.212 10.500,2.385 10.505,2.176 10.398 C 1.972 10.294,1.792 10.055,1.743 9.824 C 1.726 9.748,1.720 8.832,1.720 6.593 C 1.720 3.144,1.713 3.345,1.846 3.123 C 1.929 2.984,2.058 2.870,2.220 2.792 L 2.350 2.730 4.050 2.720 C 5.723 2.710,5.751 2.709,5.840 2.668 C 5.949 2.617,6.046 2.521,6.100 2.410 C 6.149 2.309,6.154 2.098,6.110 1.992 C 6.066 1.888,5.953 1.771,5.850 1.722 C 5.761 1.680,5.747 1.680,4.025 1.682 C 2.739 1.684,2.262 1.690,2.180 1.709 M10.268 1.788 C 10.374 1.850,10.452 1.960,10.482 2.091 C 10.501 2.176,10.500 2.211,10.471 2.309 C 10.442 2.410,10.413 2.450,10.244 2.624 L 10.051 2.823 9.890 2.653 C 9.788 2.544,9.697 2.467,9.640 2.441 C 9.519 2.387,9.322 2.387,9.200 2.441 C 9.119 2.478,9.141 2.450,9.440 2.150 C 9.835 1.752,9.895 1.713,10.087 1.730 C 10.140 1.735,10.222 1.761,10.268 1.788 M8.946 2.685 C 8.920 2.733,8.910 2.796,8.910 2.921 C 8.910 3.077,8.915 3.101,8.968 3.181 C 9.000 3.230,9.089 3.335,9.166 3.415 L 9.306 3.559 7.491 5.365 L 5.676 7.170 5.227 7.317 C 4.980 7.398,4.774 7.461,4.769 7.456 C 4.765 7.451,4.827 7.247,4.909 7.003 L 5.057 6.559 7.014 4.590 C 8.090 3.507,8.972 2.621,8.976 2.621 C 8.979 2.620,8.965 2.649,8.946 2.685 " stroke="none" fill-rule="evenodd" fill="#313131"></path></svg>