<svg id="Layer_1" xmlns="http://www.w3.org/2000/svg" version="1.1" viewBox="0 0 24 25"><path d="M11.747 2.038 C 11.563 2.098,11.374 2.266,11.284 2.452 C 11.206 2.612,11.200 2.692,11.200 3.527 C 11.200 4.091,11.217 4.479,11.245 4.564 C 11.270 4.639,11.356 4.768,11.435 4.852 C 11.751 5.183,12.269 5.179,12.573 4.843 C 12.791 4.602,12.808 4.494,12.793 3.440 C 12.781 2.540,12.776 2.494,12.688 2.352 C 12.637 2.271,12.533 2.165,12.457 2.118 C 12.301 2.022,11.929 1.980,11.747 2.038 M4.940 4.356 C 4.539 4.541,4.371 4.980,4.551 5.369 C 4.590 5.454,4.953 5.854,5.393 6.297 C 6.166 7.074,6.167 7.075,6.376 7.101 C 7.029 7.183,7.497 6.625,7.259 6.049 C 7.176 5.849,5.796 4.458,5.580 4.357 C 5.377 4.262,5.144 4.261,4.940 4.356 M18.525 4.361 C 18.344 4.443,17.293 5.441,16.996 5.812 C 16.714 6.165,16.706 6.500,16.970 6.868 C 17.112 7.065,17.198 7.100,17.540 7.099 C 17.728 7.099,17.821 7.075,17.960 6.993 C 18.172 6.868,19.441 5.595,19.529 5.420 C 19.621 5.235,19.644 5.045,19.596 4.865 C 19.469 4.386,18.979 4.155,18.525 4.361 M10.844 6.141 C 9.795 6.327,8.690 6.885,7.843 7.657 C 7.032 8.396,6.634 9.003,6.267 10.064 C 5.622 11.925,5.853 14.040,6.867 15.546 C 7.255 16.123,7.999 16.897,8.476 17.220 C 8.671 17.352,8.803 17.530,8.905 17.800 C 8.959 17.943,8.975 18.126,8.978 18.680 C 8.984 19.453,8.999 19.510,9.287 19.872 C 9.629 20.302,9.600 20.207,9.600 20.893 C 9.600 21.389,9.615 21.562,9.676 21.756 C 9.824 22.234,10.119 22.571,10.522 22.724 C 10.702 22.793,10.842 22.800,12.000 22.800 C 13.158 22.800,13.298 22.793,13.478 22.724 C 13.881 22.571,14.176 22.234,14.324 21.756 C 14.386 21.558,14.400 21.388,14.400 20.845 L 14.400 20.176 14.563 20.018 C 14.906 19.686,14.898 19.716,14.921 18.800 C 14.942 18.005,14.946 17.973,15.054 17.750 C 15.143 17.568,15.225 17.475,15.453 17.303 C 15.611 17.183,15.926 16.880,16.154 16.628 C 17.211 15.461,17.639 14.594,17.906 13.080 C 17.996 12.573,18.006 12.427,17.987 11.920 C 17.943 10.725,17.637 9.814,16.911 8.710 C 16.523 8.121,15.901 7.475,15.420 7.161 C 14.769 6.735,13.766 6.309,13.106 6.177 C 12.669 6.090,11.261 6.068,10.844 6.141 M12.980 7.738 C 13.771 7.973,14.422 8.376,15.021 9.004 C 15.527 9.534,15.914 10.134,16.036 10.580 C 16.105 10.832,16.094 12.969,16.022 13.307 C 15.903 13.865,15.678 14.366,15.316 14.880 C 15.199 15.045,14.752 15.540,14.322 15.980 C 13.817 16.496,13.500 16.854,13.428 16.989 C 13.259 17.305,13.201 17.654,13.201 18.376 L 13.200 19.012 12.590 18.986 C 12.255 18.972,11.627 18.949,11.195 18.934 L 10.409 18.908 10.390 18.264 C 10.363 17.368,10.287 17.168,9.726 16.520 C 9.583 16.355,9.420 16.190,9.365 16.152 C 9.163 16.015,8.499 15.331,8.270 15.023 C 7.706 14.263,7.401 13.274,7.401 12.200 C 7.400 10.977,7.960 9.754,8.920 8.882 C 9.396 8.450,9.824 8.164,10.240 8.002 C 10.405 7.937,10.621 7.845,10.719 7.797 C 11.013 7.653,11.399 7.600,12.040 7.617 C 12.523 7.629,12.680 7.650,12.980 7.738 M10.695 8.444 C 10.114 8.541,9.639 8.805,9.117 9.320 C 8.538 9.891,8.260 10.470,8.212 11.202 C 8.193 11.492,8.202 11.572,8.271 11.729 C 8.417 12.060,8.844 12.284,9.075 12.151 C 9.133 12.118,9.241 12.079,9.317 12.065 C 9.502 12.030,9.704 11.869,9.801 11.678 C 9.848 11.587,9.895 11.381,9.915 11.184 C 9.957 10.768,10.059 10.548,10.323 10.301 C 10.575 10.065,10.792 9.969,11.187 9.919 C 11.852 9.835,12.160 9.410,11.924 8.900 C 11.727 8.474,11.351 8.334,10.695 8.444 M2.540 11.787 C 2.301 11.913,2.180 12.076,2.115 12.360 C 2.042 12.677,2.282 13.048,2.627 13.151 C 2.849 13.218,4.829 13.219,5.050 13.152 C 5.631 12.978,5.651 12.091,5.079 11.800 C 4.934 11.726,4.844 11.720,3.792 11.722 C 2.838 11.723,2.641 11.733,2.540 11.787 M19.060 11.777 C 18.818 11.885,18.600 12.216,18.600 12.476 C 18.600 12.742,18.779 12.994,19.060 13.124 C 19.203 13.190,19.334 13.198,20.300 13.199 C 20.963 13.199,21.441 13.183,21.538 13.156 C 21.625 13.132,21.754 13.054,21.825 12.983 C 22.153 12.655,21.987 11.971,21.531 11.775 C 21.349 11.697,19.236 11.698,19.060 11.777 M5.220 16.757 C 5.004 16.858,3.624 18.249,3.541 18.449 C 3.420 18.743,3.483 19.063,3.710 19.309 C 3.892 19.506,4.116 19.557,4.449 19.479 C 4.647 19.432,4.705 19.385,5.415 18.684 C 5.889 18.217,6.197 17.880,6.244 17.780 C 6.380 17.488,6.325 17.138,6.110 16.930 C 5.854 16.682,5.519 16.617,5.220 16.757 M18.215 16.757 C 17.895 16.902,17.709 17.301,17.801 17.643 C 17.841 17.792,17.965 17.938,18.633 18.619 C 19.065 19.060,19.473 19.441,19.539 19.468 C 19.606 19.494,19.776 19.517,19.917 19.518 C 20.174 19.520,20.175 19.519,20.362 19.326 C 20.699 18.976,20.713 18.599,20.404 18.212 C 20.107 17.841,19.056 16.843,18.875 16.761 C 18.656 16.662,18.428 16.660,18.215 16.757 M12.800 20.920 L 12.800 21.320 12.000 21.320 L 11.200 21.320 11.200 20.920 L 11.200 20.520 12.000 20.520 L 12.800 20.520 12.800 20.920 " stroke="none" fill-rule="evenodd" fill="black"></path></svg>