<svg width="16" height="17" viewBox="0 0 16 17" fill="none" version="1.1" id="svg184" sodipodi:docname="logout.svg" inkscape:version="1.2 (dc2aeda, 2022-05-15)" xmlns:inkscape="http://www.inkscape.org/namespaces/inkscape" xmlns:sodipodi="http://sodipodi.sourceforge.net/DTD/sodipodi-0.dtd" xmlns="http://www.w3.org/2000/svg" xmlns:svg="http://www.w3.org/2000/svg"><path d="M1.830 2.039 C 1.774 2.059,1.692 2.109,1.650 2.150 C 1.484 2.309,1.493 1.910,1.493 8.507 C 1.493 15.178,1.481 14.713,1.666 14.876 C 1.717 14.921,1.804 14.970,1.859 14.985 C 2.004 15.025,8.001 15.024,8.147 14.984 C 8.287 14.945,8.437 14.786,8.475 14.636 C 8.528 14.424,8.439 14.201,8.258 14.094 L 8.142 14.027 5.324 14.027 L 2.507 14.027 2.507 8.507 L 2.507 2.987 5.324 2.987 L 8.142 2.987 8.251 2.923 C 8.611 2.712,8.539 2.139,8.139 2.028 C 8.074 2.010,7.008 2.001,4.987 2.001 C 2.463 2.002,1.915 2.009,1.830 2.039 M10.787 5.058 C 10.663 5.123,10.610 5.177,10.557 5.293 C 10.497 5.424,10.493 5.570,10.548 5.701 C 10.576 5.768,10.941 6.152,11.687 6.900 L 12.785 7.999 8.981 8.006 L 5.178 8.013 5.065 8.093 C 4.761 8.308,4.777 8.755,5.094 8.933 L 5.213 9.000 8.999 9.007 L 12.785 9.014 11.687 10.114 C 10.941 10.861,10.576 11.245,10.548 11.312 C 10.475 11.487,10.512 11.711,10.634 11.849 C 10.754 11.984,11.011 12.035,11.194 11.959 C 11.263 11.931,11.766 11.446,12.835 10.379 C 13.683 9.533,14.396 8.804,14.419 8.760 C 14.486 8.634,14.503 8.519,14.474 8.381 C 14.449 8.258,14.392 8.197,12.884 6.684 C 11.822 5.618,11.286 5.098,11.213 5.064 C 11.083 5.004,10.895 5.001,10.787 5.058 " stroke="none" fill-rule="evenodd" fill="#313131"></path></svg>