<svg width="24" height="24" viewBox="0 0 24 24" fill="none" version="1.1" id="svg184" sodipodi:docname="main-console.svg" inkscape:version="1.2 (dc2aeda, 2022-05-15)" xmlns:inkscape="http://www.inkscape.org/namespaces/inkscape" xmlns:sodipodi="http://sodipodi.sourceforge.net/DTD/sodipodi-0.dtd" xmlns="http://www.w3.org/2000/svg" xmlns:svg="http://www.w3.org/2000/svg"><path d="M4.687 3.285 C 4.357 3.340,4.047 3.508,3.777 3.777 C 3.497 4.057,3.342 4.353,3.282 4.723 C 3.226 5.070,3.226 9.930,3.282 10.277 C 3.342 10.647,3.497 10.943,3.777 11.223 C 4.057 11.503,4.353 11.658,4.723 11.718 C 5.066 11.773,8.934 11.773,9.277 11.718 C 9.647 11.658,9.943 11.503,10.223 11.223 C 10.503 10.943,10.658 10.647,10.718 10.277 C 10.774 9.930,10.774 5.070,10.718 4.723 C 10.658 4.353,10.503 4.057,10.223 3.777 C 9.943 3.497,9.647 3.342,9.277 3.282 C 8.963 3.231,4.995 3.234,4.687 3.285 M14.687 3.285 C 14.357 3.340,14.047 3.508,13.777 3.777 C 13.497 4.057,13.342 4.353,13.282 4.723 C 13.228 5.056,13.228 6.944,13.282 7.277 C 13.342 7.647,13.497 7.943,13.777 8.223 C 14.057 8.503,14.353 8.658,14.723 8.718 C 15.066 8.773,18.934 8.773,19.277 8.718 C 19.647 8.658,19.943 8.503,20.223 8.223 C 20.503 7.943,20.658 7.647,20.718 7.277 C 20.772 6.944,20.772 5.056,20.718 4.723 C 20.658 4.353,20.503 4.057,20.223 3.777 C 19.943 3.497,19.647 3.342,19.277 3.282 C 18.963 3.231,14.995 3.234,14.687 3.285 M9.167 4.826 C 9.236 4.889,9.240 5.024,9.240 7.493 C 9.240 9.857,9.234 10.100,9.174 10.167 C 9.111 10.236,8.991 10.240,7.007 10.240 C 5.108 10.240,4.899 10.234,4.833 10.174 C 4.764 10.111,4.760 9.976,4.760 7.507 C 4.760 5.143,4.766 4.900,4.826 4.833 C 4.889 4.764,5.009 4.760,6.993 4.760 C 8.892 4.760,9.101 4.766,9.167 4.826 M19.167 4.826 C 19.234 4.887,19.240 4.978,19.240 5.993 C 19.240 6.961,19.232 7.103,19.174 7.167 C 19.111 7.236,18.991 7.240,17.007 7.240 C 15.108 7.240,14.899 7.234,14.833 7.174 C 14.766 7.113,14.760 7.022,14.760 6.007 C 14.760 5.039,14.768 4.897,14.826 4.833 C 14.889 4.764,15.009 4.760,16.993 4.760 C 18.892 4.760,19.101 4.766,19.167 4.826 M14.687 11.285 C 14.357 11.340,14.047 11.508,13.777 11.777 C 13.497 12.057,13.342 12.353,13.282 12.723 C 13.226 13.072,13.226 18.928,13.282 19.277 C 13.342 19.647,13.497 19.943,13.777 20.223 C 14.057 20.503,14.353 20.658,14.723 20.718 C 15.066 20.773,18.934 20.773,19.277 20.718 C 19.647 20.658,19.943 20.503,20.223 20.223 C 20.503 19.943,20.658 19.647,20.718 19.277 C 20.774 18.928,20.774 13.072,20.718 12.723 C 20.658 12.353,20.503 12.057,20.223 11.777 C 19.943 11.497,19.647 11.342,19.277 11.282 C 18.963 11.231,14.995 11.234,14.687 11.285 M19.167 12.826 C 19.237 12.889,19.240 13.040,19.240 15.993 C 19.240 18.822,19.234 19.100,19.174 19.167 C 19.111 19.236,18.991 19.240,17.007 19.240 C 15.108 19.240,14.899 19.234,14.833 19.174 C 14.763 19.111,14.760 18.960,14.760 16.007 C 14.760 13.178,14.766 12.900,14.826 12.833 C 14.889 12.764,15.009 12.760,16.993 12.760 C 18.892 12.760,19.101 12.766,19.167 12.826 M4.687 14.285 C 4.357 14.340,4.047 14.508,3.777 14.777 C 3.497 15.057,3.342 15.353,3.282 15.723 C 3.228 16.060,3.228 18.940,3.282 19.277 C 3.342 19.647,3.497 19.943,3.777 20.223 C 4.057 20.503,4.353 20.658,4.723 20.718 C 5.066 20.773,8.934 20.773,9.277 20.718 C 9.647 20.658,9.943 20.503,10.223 20.223 C 10.503 19.943,10.658 19.647,10.718 19.277 C 10.772 18.940,10.772 16.060,10.718 15.723 C 10.658 15.353,10.503 15.057,10.223 14.777 C 9.943 14.497,9.647 14.342,9.277 14.282 C 8.963 14.231,4.995 14.234,4.687 14.285 M9.167 15.826 C 9.235 15.888,9.240 15.993,9.240 17.493 C 9.240 18.926,9.233 19.101,9.174 19.167 C 9.111 19.236,8.991 19.240,7.007 19.240 C 5.108 19.240,4.899 19.234,4.833 19.174 C 4.765 19.112,4.760 19.007,4.760 17.507 C 4.760 16.074,4.767 15.899,4.826 15.833 C 4.889 15.764,5.009 15.760,6.993 15.760 C 8.892 15.760,9.101 15.766,9.167 15.826 " stroke="none" fill-rule="evenodd" fill="#313131"></path></svg>