<svg width="18" height="18" viewBox="0 0 18 18" fill="none" xmlns="http://www.w3.org/2000/svg"><path d="M1.785 0.270 C 1.122 0.345,0.573 0.797,0.338 1.460 L 0.255 1.695 0.255 4.500 L 0.255 7.305 0.338 7.540 C 0.533 8.090,0.910 8.467,1.460 8.662 L 1.695 8.745 3.990 8.745 C 6.274 8.745,6.286 8.745,6.495 8.679 C 7.022 8.512,7.445 8.114,7.649 7.590 L 7.725 7.395 7.725 4.500 L 7.725 1.605 7.649 1.410 C 7.448 0.894,7.032 0.497,6.510 0.323 C 6.318 0.258,6.285 0.257,4.155 0.252 C 2.967 0.249,1.901 0.257,1.785 0.270 M11.775 0.270 C 11.087 0.348,10.482 0.885,10.306 1.574 C 10.268 1.720,10.260 1.982,10.260 3.000 C 10.260 4.366,10.267 4.431,10.441 4.789 C 10.558 5.029,10.863 5.356,11.104 5.498 C 11.209 5.561,11.389 5.642,11.505 5.678 C 11.714 5.745,11.723 5.745,14.010 5.745 L 16.305 5.745 16.540 5.662 C 17.090 5.467,17.467 5.090,17.662 4.540 L 17.745 4.305 17.745 3.000 L 17.745 1.695 17.662 1.460 C 17.467 0.910,17.089 0.532,16.540 0.338 L 16.305 0.255 14.145 0.251 C 12.957 0.248,11.890 0.257,11.775 0.270 M6.086 1.773 C 6.138 1.791,6.194 1.831,6.211 1.861 C 6.229 1.896,6.240 2.874,6.240 4.507 C 6.240 7.056,6.239 7.100,6.180 7.163 C 6.147 7.198,6.076 7.235,6.023 7.245 C 5.969 7.255,5.017 7.259,3.908 7.254 L 1.892 7.245 1.823 7.177 L 1.755 7.108 1.748 4.537 C 1.740 1.781,1.736 1.857,1.891 1.779 C 1.991 1.728,5.941 1.723,6.086 1.773 M16.177 1.823 L 16.245 1.892 16.245 3.000 L 16.245 4.108 16.177 4.177 L 16.108 4.245 14.092 4.254 C 12.983 4.259,12.030 4.254,11.976 4.245 C 11.921 4.235,11.850 4.200,11.818 4.168 C 11.763 4.113,11.760 4.060,11.760 3.017 C 11.760 2.417,11.769 1.902,11.779 1.874 C 11.829 1.744,11.874 1.741,14.047 1.748 L 16.108 1.755 16.177 1.823 M11.610 8.297 C 10.991 8.431,10.450 8.962,10.305 9.577 C 10.238 9.863,10.238 16.162,10.306 16.426 C 10.378 16.708,10.515 16.956,10.721 17.179 C 10.940 17.415,11.203 17.583,11.505 17.678 C 11.714 17.745,11.723 17.745,14.010 17.745 L 16.305 17.745 16.540 17.662 C 17.090 17.467,17.467 17.090,17.662 16.540 L 17.745 16.305 17.745 13.020 C 17.745 9.931,17.742 9.723,17.690 9.540 C 17.517 8.921,16.989 8.426,16.365 8.295 C 16.062 8.232,11.904 8.233,11.610 8.297 M16.161 9.822 L 16.245 9.895 16.245 13.002 L 16.245 16.108 16.177 16.177 L 16.108 16.245 14.092 16.254 C 12.983 16.259,12.030 16.254,11.976 16.245 C 11.921 16.235,11.850 16.200,11.818 16.168 C 11.761 16.111,11.760 16.040,11.760 13.004 L 11.760 9.897 11.834 9.824 L 11.907 9.750 13.992 9.750 L 16.077 9.750 16.161 9.822 M1.620 11.296 C 1.007 11.430,0.481 11.929,0.310 12.540 C 0.260 12.719,0.255 12.883,0.255 14.520 L 0.255 16.305 0.338 16.540 C 0.533 17.090,0.910 17.467,1.460 17.662 L 1.695 17.745 3.990 17.745 C 6.274 17.745,6.286 17.745,6.495 17.679 C 7.022 17.512,7.445 17.114,7.649 16.590 L 7.725 16.395 7.725 14.520 C 7.725 12.423,7.732 12.500,7.508 12.124 C 7.294 11.762,6.929 11.463,6.542 11.332 C 6.346 11.266,6.336 11.265,4.080 11.260 C 2.219 11.255,1.780 11.261,1.620 11.296 M6.166 12.824 L 6.240 12.897 6.240 14.498 C 6.240 16.056,6.238 16.100,6.180 16.163 C 6.147 16.198,6.076 16.235,6.023 16.245 C 5.969 16.255,5.017 16.259,3.908 16.254 L 1.892 16.245 1.823 16.177 L 1.755 16.108 1.755 14.502 L 1.755 12.895 1.839 12.822 L 1.923 12.750 4.008 12.750 L 6.093 12.750 6.166 12.824 " stroke="none" fill-rule="evenodd" fill="black"></path></svg>