<svg width="18" height="18" viewBox="0 0 18 18" fill="none" xmlns="http://www.w3.org/2000/svg"><path d="M6.557 0.031 C 5.717 0.175,5.039 0.772,4.768 1.605 C 4.705 1.796,4.698 1.890,4.682 2.640 L 4.665 3.465 3.225 3.480 L 1.785 3.496 1.552 3.575 C 0.863 3.809,0.343 4.338,0.097 5.055 L 0.015 5.295 0.007 10.620 C -0.003 16.473,-0.012 16.155,0.178 16.616 C 0.294 16.896,0.436 17.107,0.665 17.335 C 0.893 17.563,1.104 17.706,1.383 17.821 C 1.844 18.011,1.356 18.000,9.000 18.000 C 16.631 18.000,16.156 18.011,16.613 17.825 C 17.141 17.610,17.610 17.140,17.826 16.611 C 18.011 16.156,18.003 16.460,17.993 10.620 L 17.985 5.295 17.914 5.085 C 17.662 4.338,17.153 3.814,16.448 3.575 L 16.215 3.496 14.775 3.480 L 13.335 3.465 13.318 2.640 C 13.302 1.890,13.295 1.796,13.232 1.605 C 12.986 0.849,12.424 0.302,11.654 0.072 C 11.489 0.022,11.283 0.017,9.090 0.012 C 7.778 0.009,6.639 0.017,6.557 0.031 M11.360 1.818 C 11.407 1.852,11.475 1.925,11.512 1.980 C 11.578 2.076,11.580 2.102,11.580 2.779 L 11.580 3.480 9.000 3.480 L 6.420 3.480 6.420 2.789 C 6.420 2.052,6.428 2.007,6.575 1.869 C 6.613 1.833,6.679 1.790,6.720 1.773 C 6.768 1.754,7.588 1.745,9.035 1.749 C 11.257 1.755,11.276 1.756,11.360 1.818 M15.898 5.219 C 16.013 5.252,16.154 5.374,16.218 5.496 C 16.254 5.565,16.260 6.352,16.260 10.725 C 16.260 15.794,16.259 15.874,16.201 15.989 C 16.168 16.053,16.097 16.136,16.043 16.175 L 15.945 16.245 8.995 16.245 L 2.044 16.245 1.960 16.182 C 1.913 16.148,1.845 16.067,1.808 16.002 L 1.741 15.885 1.741 10.725 L 1.740 5.565 1.802 5.463 C 1.881 5.334,1.970 5.258,2.085 5.223 C 2.211 5.184,15.763 5.181,15.898 5.219 M8.695 6.970 C 8.375 7.090,8.148 7.301,8.033 7.588 C 7.969 7.747,7.966 7.803,7.956 8.721 L 7.946 9.686 6.965 9.696 L 5.984 9.705 5.785 9.803 C 5.554 9.917,5.395 10.079,5.284 10.316 C 5.218 10.458,5.205 10.525,5.206 10.740 C 5.208 11.060,5.296 11.261,5.528 11.481 C 5.811 11.748,5.872 11.760,6.989 11.760 L 7.946 11.760 7.956 12.742 L 7.965 13.725 8.049 13.905 C 8.159 14.142,8.363 14.345,8.592 14.448 C 9.102 14.678,9.702 14.438,9.951 13.905 L 10.035 13.725 10.045 12.742 L 10.054 11.760 11.011 11.760 C 12.128 11.760,12.189 11.748,12.472 11.481 C 12.704 11.261,12.792 11.060,12.794 10.739 C 12.795 10.510,12.785 10.464,12.697 10.285 C 12.583 10.054,12.421 9.895,12.184 9.784 L 12.015 9.705 11.034 9.696 L 10.054 9.686 10.044 8.721 C 10.034 7.799,10.031 7.747,9.966 7.586 C 9.875 7.358,9.704 7.172,9.475 7.050 C 9.313 6.964,9.249 6.947,9.045 6.939 C 8.893 6.933,8.765 6.944,8.695 6.970 " fill="#313131" stroke="none" fill-rule="evenodd"></path></svg>