<svg width="24" height="24" viewBox="0 0 24 24" fill="none" xmlns="http://www.w3.org/2000/svg"><path d="M9.453 3.060 C 8.655 3.234,8.007 3.830,7.759 4.620 C 7.729 4.714,7.698 5.126,7.684 5.620 L 7.660 6.460 6.200 6.481 C 4.599 6.504,4.597 6.504,4.120 6.771 C 3.800 6.950,3.406 7.366,3.249 7.691 C 2.985 8.237,2.997 7.925,3.009 13.850 L 3.020 19.220 3.113 19.469 C 3.363 20.136,3.896 20.661,4.552 20.888 L 4.820 20.980 12.000 20.980 L 19.180 20.980 19.448 20.888 C 20.104 20.661,20.637 20.136,20.887 19.469 L 20.980 19.220 20.991 13.850 C 21.003 7.925,21.015 8.237,20.751 7.691 C 20.594 7.366,20.200 6.950,19.880 6.771 C 19.403 6.504,19.401 6.504,17.800 6.481 L 16.340 6.460 16.316 5.620 C 16.290 4.713,16.271 4.610,16.049 4.187 C 15.768 3.649,15.238 3.238,14.620 3.080 C 14.324 3.004,14.181 3.000,12.004 3.003 C 10.234 3.006,9.643 3.019,9.453 3.060 M14.334 4.812 C 14.571 4.968,14.600 5.074,14.600 5.810 L 14.600 6.480 12.000 6.480 L 9.400 6.480 9.400 5.818 C 9.400 5.125,9.421 5.022,9.592 4.868 C 9.635 4.828,9.723 4.780,9.786 4.760 C 9.849 4.741,10.873 4.729,12.062 4.733 C 14.071 4.739,14.231 4.745,14.334 4.812 M18.996 8.258 C 19.058 8.290,19.142 8.366,19.184 8.428 C 19.258 8.537,19.260 8.698,19.260 13.727 C 19.260 18.910,19.260 18.914,19.177 19.027 C 19.132 19.089,19.033 19.171,18.957 19.210 C 18.828 19.276,18.414 19.280,12.000 19.280 C 5.586 19.280,5.172 19.276,5.043 19.210 C 4.967 19.171,4.868 19.089,4.823 19.027 C 4.740 18.914,4.740 18.910,4.740 13.727 C 4.740 8.703,4.742 8.536,4.816 8.428 C 4.979 8.188,4.481 8.203,11.992 8.202 C 17.934 8.200,18.899 8.208,18.996 8.258 M11.679 9.981 C 11.453 10.051,11.185 10.276,11.069 10.494 C 10.985 10.651,10.979 10.717,10.968 11.666 L 10.955 12.673 9.968 12.688 C 8.880 12.704,8.825 12.715,8.541 12.965 C 8.108 13.345,8.088 14.050,8.499 14.461 C 8.772 14.734,8.904 14.760,10.007 14.760 L 10.960 14.760 10.963 15.730 C 10.966 16.775,10.976 16.836,11.186 17.132 C 11.557 17.657,12.443 17.657,12.814 17.132 C 13.024 16.836,13.034 16.775,13.037 15.730 L 13.040 14.760 13.993 14.760 C 15.096 14.760,15.228 14.734,15.501 14.461 C 15.912 14.050,15.892 13.345,15.459 12.965 C 15.174 12.715,15.120 12.704,14.030 12.688 L 13.040 12.673 13.040 11.738 C 13.040 10.629,13.006 10.477,12.692 10.201 C 12.400 9.944,12.047 9.868,11.679 9.981 " fill="#313131" stroke="none" fill-rule="evenodd"></path></svg>