<svg width="17" height="16" viewBox="0 0 17 16" fill="none" version="1.1" id="svg186" sodipodi:docname="profile.svg" inkscape:version="1.2 (dc2aeda, 2022-05-15)" xmlns:inkscape="http://www.inkscape.org/namespaces/inkscape" xmlns:sodipodi="http://sodipodi.sourceforge.net/DTD/sodipodi-0.dtd" xmlns="http://www.w3.org/2000/svg" xmlns:svg="http://www.w3.org/2000/svg"><path d="M8.004 2.222 C 6.774 2.505,5.943 3.648,6.015 4.956 C 6.054 5.658,6.317 6.242,6.814 6.729 C 7.090 7.000,7.395 7.188,7.763 7.315 C 8.025 7.406,8.045 7.408,8.500 7.408 C 8.956 7.408,8.974 7.406,9.244 7.313 C 10.137 7.006,10.784 6.234,10.951 5.278 C 11.179 3.973,10.451 2.700,9.244 2.294 C 8.993 2.210,8.930 2.200,8.571 2.192 C 8.303 2.186,8.119 2.196,8.004 2.222 M8.870 3.219 C 9.125 3.293,9.336 3.423,9.533 3.627 C 10.153 4.270,10.153 5.335,9.533 5.978 C 8.945 6.586,8.056 6.588,7.471 5.982 C 6.627 5.107,6.975 3.587,8.102 3.227 C 8.303 3.162,8.666 3.158,8.870 3.219 M5.213 8.640 C 3.972 8.904,2.983 9.944,2.737 11.245 C 2.607 11.930,2.676 12.474,2.952 12.943 C 3.101 13.196,3.406 13.483,3.672 13.621 C 4.093 13.840,3.769 13.826,8.500 13.826 C 13.229 13.826,12.908 13.839,13.324 13.623 C 13.989 13.277,14.385 12.521,14.323 11.717 C 14.216 10.313,13.364 9.151,12.143 8.741 C 11.669 8.581,11.750 8.585,8.476 8.587 C 5.674 8.589,5.437 8.593,5.213 8.640 M11.758 9.657 C 12.712 10.001,13.313 10.845,13.326 11.857 C 13.329 12.107,13.321 12.160,13.256 12.298 C 13.164 12.496,13.034 12.646,12.867 12.744 L 12.736 12.821 8.500 12.821 C 4.445 12.821,4.260 12.819,4.169 12.769 C 3.996 12.675,3.835 12.501,3.752 12.318 C 3.679 12.158,3.671 12.113,3.674 11.857 C 3.686 10.846,4.324 9.953,5.242 9.666 C 5.343 9.634,5.458 9.602,5.497 9.596 C 5.536 9.589,6.919 9.585,8.571 9.587 L 11.574 9.591 11.758 9.657 " stroke="none" fill-rule="evenodd" fill="#313131"></path></svg>