<svg width="16" height="16" viewBox="0 0 16 16" fill="none" xmlns="http://www.w3.org/2000/svg"><path d="M6.827 1.495 C 5.477 1.593,4.229 2.148,3.255 3.083 C 2.317 3.982,1.732 5.118,1.531 6.427 C 1.468 6.839,1.467 7.604,1.530 8.037 C 1.713 9.298,2.269 10.404,3.172 11.308 C 4.078 12.213,5.192 12.767,6.472 12.949 C 6.848 13.002,7.556 13.009,7.920 12.962 C 8.950 12.830,9.993 12.398,10.786 11.776 L 10.945 11.652 12.346 13.051 C 13.602 14.305,13.759 14.452,13.863 14.480 C 14.017 14.520,14.161 14.493,14.291 14.398 C 14.466 14.272,14.536 14.075,14.480 13.864 C 14.452 13.758,14.311 13.608,13.051 12.346 L 11.652 10.945 11.776 10.786 C 12.402 9.988,12.837 8.932,12.963 7.907 C 13.008 7.534,13.002 6.850,12.949 6.472 C 12.715 4.807,11.797 3.347,10.413 2.437 C 9.537 1.862,8.634 1.561,7.580 1.494 C 7.349 1.479,7.148 1.469,7.133 1.471 C 7.119 1.473,6.981 1.484,6.827 1.495 M8.125 2.584 C 9.424 2.828,10.583 3.623,11.285 4.752 C 12.025 5.942,12.196 7.440,11.743 8.773 C 11.069 10.762,9.163 12.077,7.080 11.992 C 6.115 11.953,5.256 11.656,4.453 11.085 C 4.169 10.882,3.608 10.321,3.410 10.040 C 2.839 9.232,2.553 8.396,2.515 7.427 C 2.491 6.812,2.572 6.251,2.765 5.697 C 3.353 4.008,4.825 2.801,6.607 2.546 C 6.981 2.492,7.738 2.512,8.125 2.584 " fill="#898686" stroke="none" fill-rule="evenodd"></path></svg>