<svg width="25" height="24" viewBox="0 0 25 24" fill="none" xmlns="http://www.w3.org/2000/svg"><path d="M9.605 4.208 L 6.916 6.000 5.763 6.000 C 4.699 6.000,4.596 6.006,4.439 6.082 C 4.130 6.232,4.125 6.256,4.125 7.570 L 4.125 8.730 3.580 9.271 C 3.281 9.569,3.004 9.869,2.966 9.938 C 2.901 10.053,2.896 10.490,2.896 15.604 C 2.896 21.103,2.896 21.147,2.981 21.290 C 3.027 21.370,3.130 21.473,3.210 21.519 C 3.354 21.604,3.376 21.604,12.500 21.604 C 21.624 21.604,21.646 21.604,21.790 21.519 C 21.870 21.473,21.973 21.370,22.019 21.290 C 22.104 21.147,22.104 21.103,22.104 15.604 C 22.104 10.490,22.099 10.053,22.034 9.938 C 21.996 9.869,21.719 9.569,21.420 9.271 L 20.875 8.730 20.875 7.570 C 20.875 6.256,20.870 6.232,20.561 6.082 C 20.404 6.006,20.301 6.000,19.237 6.000 L 18.084 6.000 15.395 4.208 C 12.755 2.449,12.703 2.417,12.500 2.417 C 12.297 2.417,12.245 2.449,9.605 4.208 M14.214 4.865 L 15.886 5.979 14.193 5.990 C 13.262 5.996,11.738 5.996,10.807 5.990 L 9.114 5.979 10.776 4.867 C 11.690 4.256,12.461 3.754,12.490 3.753 C 12.518 3.751,13.294 4.252,14.214 4.865 M19.708 9.542 L 19.708 11.875 16.104 14.278 L 12.500 16.680 8.969 14.331 C 7.027 13.039,5.405 11.955,5.365 11.922 C 5.297 11.866,5.292 11.701,5.292 9.535 L 5.292 7.208 12.500 7.208 L 19.708 7.208 19.708 9.542 M8.771 9.341 C 8.655 9.407,8.626 9.459,8.626 9.608 C 8.624 9.892,8.373 9.875,12.507 9.875 C 16.068 9.875,16.240 9.872,16.306 9.799 C 16.377 9.721,16.398 9.515,16.343 9.433 C 16.251 9.295,16.150 9.292,12.492 9.293 C 9.859 9.294,8.831 9.307,8.771 9.341 M9.292 11.792 C 9.245 11.838,9.208 11.931,9.208 12.000 C 9.208 12.069,9.245 12.162,9.292 12.208 C 9.374 12.290,9.431 12.292,12.500 12.292 C 15.569 12.292,15.626 12.290,15.708 12.208 C 15.755 12.162,15.792 12.069,15.792 12.000 C 15.792 11.931,15.755 11.838,15.708 11.792 C 15.626 11.710,15.569 11.708,12.500 11.708 C 9.431 11.708,9.374 11.710,9.292 11.792 M8.294 15.313 C 12.139 17.866,12.317 17.979,12.500 17.979 C 12.682 17.979,12.860 17.866,16.706 15.313 C 19.478 13.472,20.745 12.607,20.798 12.521 C 20.873 12.399,20.875 12.494,20.875 16.406 L 20.875 20.417 12.500 20.417 L 4.125 20.417 4.125 16.406 C 4.125 12.500,4.127 12.399,4.202 12.521 C 4.255 12.607,5.513 13.466,8.294 15.313 " fill="#313131" stroke="none" fill-rule="evenodd"></path></svg>