<svg width="18" height="18" viewBox="0 0 18 18" fill="none" xmlns="http://www.w3.org/2000/svg"><path d="M15.713 0.273 C 14.993 0.331,14.110 0.649,13.410 1.102 C 12.896 1.435,12.615 1.691,11.097 3.202 L 9.548 4.744 6.117 3.990 C 4.229 3.575,2.596 3.228,2.487 3.219 C 2.044 3.181,1.572 3.352,1.265 3.661 C 1.076 3.852,0.697 4.460,0.621 4.696 C 0.464 5.181,0.493 5.642,0.708 6.065 C 0.877 6.399,0.993 6.487,3.166 7.922 C 4.296 8.668,5.219 9.293,5.218 9.312 C 5.217 9.330,4.971 9.709,4.671 10.155 L 4.125 10.965 2.895 10.980 C 1.704 10.995,1.661 10.997,1.545 11.060 C 1.479 11.096,1.180 11.373,0.881 11.675 C 0.295 12.268,0.261 12.320,0.264 12.615 C 0.265 12.797,0.331 12.971,0.444 13.091 C 0.489 13.139,1.105 13.565,1.815 14.039 L 3.105 14.901 3.984 16.220 C 4.933 17.644,4.949 17.663,5.254 17.728 C 5.413 17.762,5.609 17.734,5.756 17.656 C 5.872 17.594,6.885 16.563,6.950 16.440 C 7.000 16.344,7.006 16.226,7.020 15.105 L 7.035 13.875 7.845 13.329 C 8.290 13.029,8.670 12.783,8.688 12.782 C 8.707 12.781,9.332 13.704,10.078 14.834 C 11.550 17.063,11.608 17.138,11.989 17.316 C 12.284 17.454,12.594 17.506,12.901 17.467 C 13.142 17.437,13.561 17.303,13.882 17.153 C 14.059 17.070,14.395 16.750,14.516 16.548 C 14.712 16.222,14.771 16.014,14.770 15.645 C 14.769 15.325,14.745 15.206,14.013 11.884 L 13.256 8.452 14.797 6.904 C 15.645 6.052,16.428 5.240,16.536 5.100 C 17.087 4.386,17.440 3.672,17.627 2.897 C 17.878 1.852,17.678 0.759,17.188 0.509 C 16.973 0.400,16.616 0.301,16.370 0.284 C 16.235 0.274,16.098 0.263,16.065 0.258 C 16.032 0.254,15.874 0.260,15.713 0.273 M16.224 1.776 C 16.271 1.823,16.268 2.058,16.216 2.347 C 16.124 2.868,15.853 3.497,15.519 3.970 C 15.398 4.142,14.822 4.742,13.585 5.985 C 11.698 7.882,11.702 7.877,11.701 8.179 C 11.700 8.272,12.017 9.777,12.495 11.954 C 12.932 13.945,13.290 15.604,13.290 15.641 C 13.290 15.745,13.201 15.819,12.961 15.913 C 12.796 15.977,12.724 15.992,12.671 15.972 C 12.621 15.953,12.133 15.238,11.067 13.620 C 10.224 12.341,9.498 11.256,9.454 11.209 C 9.273 11.011,8.896 10.922,8.660 11.021 C 8.492 11.091,5.773 12.919,5.702 13.010 C 5.537 13.219,5.538 13.211,5.521 14.562 L 5.505 15.819 4.890 14.893 C 4.552 14.384,4.239 13.926,4.195 13.875 C 4.151 13.824,3.680 13.493,3.148 13.139 L 2.181 12.495 3.438 12.480 C 4.785 12.463,4.753 12.467,4.977 12.302 C 5.080 12.225,6.895 9.540,6.979 9.340 C 7.076 9.107,6.989 8.727,6.797 8.550 C 6.752 8.509,5.660 7.779,4.370 6.927 C 2.327 5.579,2.024 5.369,2.016 5.300 C 2.003 5.191,2.291 4.710,2.370 4.710 C 2.401 4.710,4.055 5.068,6.046 5.505 C 8.223 5.983,9.728 6.300,9.821 6.299 C 10.123 6.298,10.118 6.302,12.015 4.415 C 13.258 3.178,13.858 2.602,14.030 2.481 C 14.630 2.057,15.452 1.752,16.021 1.743 C 16.115 1.741,16.204 1.756,16.224 1.776 " stroke="none" fill-rule="evenodd" fill="black"></path></svg>