<svg width="24" height="24" viewBox="0 0 24 24" fill="none" version="1.1" id="svg184" sodipodi:docname="travel-forms.svg" inkscape:version="1.2 (dc2aeda, 2022-05-15)" xmlns:inkscape="http://www.inkscape.org/namespaces/inkscape" xmlns:sodipodi="http://sodipodi.sourceforge.net/DTD/sodipodi-0.dtd" xmlns="http://www.w3.org/2000/svg" xmlns:svg="http://www.w3.org/2000/svg"><path d="M18.720 3.258 C 18.687 3.266,18.525 3.295,18.360 3.321 C 17.597 3.445,16.709 3.852,15.940 4.432 C 15.808 4.532,14.989 5.318,14.120 6.180 L 12.540 7.748 9.140 6.995 C 5.412 6.170,5.326 6.156,4.868 6.316 C 4.447 6.463,4.202 6.677,3.901 7.163 C 3.784 7.352,3.661 7.586,3.628 7.683 C 3.421 8.300,3.574 9.023,3.999 9.439 C 4.101 9.539,5.097 10.221,6.212 10.955 L 8.241 12.290 8.171 12.400 C 8.132 12.461,7.884 12.836,7.620 13.234 L 7.140 13.958 6.032 13.959 C 5.361 13.960,4.841 13.978,4.712 14.005 C 4.516 14.047,4.463 14.088,3.968 14.575 C 3.324 15.208,3.267 15.292,3.267 15.604 C 3.267 15.993,3.303 16.027,4.783 17.018 L 6.100 17.900 6.982 19.217 C 7.962 20.680,8.009 20.731,8.372 20.731 C 8.489 20.731,8.648 20.701,8.727 20.663 C 8.806 20.626,9.113 20.349,9.410 20.047 C 9.912 19.537,9.952 19.485,9.995 19.288 C 10.022 19.159,10.040 18.640,10.041 17.968 L 10.042 16.860 10.766 16.380 C 11.164 16.116,11.539 15.868,11.600 15.829 L 11.710 15.759 13.045 17.788 C 13.779 18.903,14.461 19.898,14.560 19.998 C 14.908 20.349,15.474 20.525,15.997 20.443 C 16.327 20.391,16.836 20.196,17.058 20.037 C 17.550 19.684,17.849 18.954,17.753 18.340 C 17.732 18.208,17.386 16.606,16.984 14.780 L 16.253 11.460 17.858 9.840 C 19.584 8.098,19.774 7.871,20.173 7.089 C 20.809 5.842,20.925 4.637,20.488 3.827 C 20.369 3.606,20.172 3.473,19.789 3.353 C 19.562 3.283,18.873 3.221,18.720 3.258 M19.145 4.852 C 19.159 4.866,19.179 4.999,19.189 5.149 C 19.212 5.472,19.139 5.786,18.938 6.227 C 18.627 6.910,18.459 7.107,16.557 9.020 C 15.045 10.542,14.761 10.845,14.724 10.980 C 14.700 11.068,14.680 11.163,14.680 11.190 C 14.680 11.218,15.041 12.883,15.482 14.890 C 15.923 16.898,16.278 18.593,16.272 18.659 C 16.261 18.763,16.228 18.791,15.994 18.894 C 15.847 18.959,15.702 19.002,15.672 18.990 C 15.641 18.978,14.906 17.893,14.038 16.578 C 12.962 14.947,12.422 14.163,12.340 14.113 C 12.274 14.073,12.159 14.022,12.084 14.001 C 11.798 13.921,11.659 13.993,10.142 15.013 C 8.896 15.850,8.693 16.001,8.622 16.140 C 8.546 16.288,8.539 16.392,8.520 17.556 L 8.500 18.812 7.840 17.820 L 7.180 16.827 6.185 16.164 L 5.189 15.500 6.445 15.480 C 7.608 15.461,7.712 15.454,7.860 15.378 C 7.999 15.307,8.150 15.104,8.987 13.858 C 9.990 12.366,10.064 12.225,10.000 11.940 C 9.928 11.619,9.911 11.606,7.419 9.959 C 4.711 8.169,4.924 8.361,5.182 7.928 C 5.288 7.749,5.349 7.684,5.395 7.698 C 5.431 7.709,7.105 8.079,9.115 8.520 C 12.835 9.336,12.902 9.348,13.140 9.230 C 13.184 9.208,14.021 8.394,15.000 7.422 C 16.872 5.562,17.082 5.382,17.742 5.073 C 18.185 4.866,18.459 4.799,18.810 4.814 C 18.981 4.821,19.131 4.838,19.145 4.852 " stroke="none" fill-rule="evenodd" fill="#313131"></path></svg>