<svg width="32" height="32" viewBox="0 0 32 32" fill="none" xmlns="http://www.w3.org/2000/svg"><path d="M5.334 10.666V8a2.667 2.667 0 0 1 2.667-2.667h2.666m-5.333 16V24a2.667 2.667 0 0 0 2.667 2.666h2.666M21.334 5.333h2.667A2.667 2.667 0 0 1 26.667 8v2.666m-5.333 16h2.667A2.667 2.667 0 0 0 26.667 24v-2.667m-13.333-6.667V12a2.666 2.666 0 1 1 5.333 0v2.666m-8 1.334a1.333 1.333 0 0 1 1.334-1.334h8A1.333 1.333 0 0 1 21.334 16v4a1.334 1.334 0 0 1-1.333 1.333h-8A1.334 1.334 0 0 1 10.667 20v-4Z" stroke="#0056B3" stroke-width="2" stroke-linecap="round" stroke-linejoin="round"/></svg>