<svg width="199" height="224" viewBox="0 0 199 224" fill="none" xmlns="http://www.w3.org/2000/svg"><g opacity=".9" clip-path="url(#clip0_1838_6779)" fill="#fff"><path d="M146.798 150.561c1.453.784 3.379.521 5.254-.702.879-.581 2.025-1.789 2.532-2.682.851-1.487 1.114-3.19.685-4.425-.203-.606-.236-.65-.804-1.209-.573-.565-.607-.587-1.238-.792-1.933-.643-4.418.265-6.22 2.273-1.709 1.913-2.335 4.006-1.697 5.752.191.529.292.683.693 1.111.284.302.595.565.795.674Zm-7.797-7.682c.505.289 1.07.44 1.733.468 2.392.098 5.256-1.929 6.429-4.556.603-1.358.71-2.591.321-3.709-.215-.618-.243-.656-.81-1.215-.568-.56-.613-.592-1.222-.787-1.262-.421-3.039-.099-4.535.819-.808.497-1.976 1.661-2.517 2.51-1.452 2.265-1.479 4.596-.055 5.967a3.7 3.7 0 0 0 .656.503Zm20.328 8.588c1.03.413 2.095.289 3.234-.399 1.974-1.181 3.61-4.088 3.528-6.253-.114-2.656-2.449-3.815-4.852-2.411-.996.588-2.201 1.934-2.789 3.12-.762 1.531-.953 3.294-.486 4.49.192.495.932 1.28 1.365 1.453Zm-21.349-21.054c.549.244 1.102.329 1.974.289 1.745-.079 3.605-1.032 4.975-2.556.986-1.101 1.404-2.105 1.33-3.231-.039-.74-.303-1.274-.898-1.805-.4-.362-.55-.455-1.087-.633-.715-.232-1.731-.236-2.591-.008-.618.159-1.719.664-2.368 1.078-.681.436-1.926 1.71-2.259 2.315-.599 1.065-.773 2.21-.474 3.053.192.562.838 1.242 1.398 1.498Zm15.192 5.963a7.631 7.631 0 0 0 3.237 1.401c.647.111 9.593.316 10.338.238.668-.066 1.533-.398 2.165-.828 1.902-1.285 2.794-3.949 2.043-6.103-.531-1.51-1.61-2.529-4.334-4.05-1.986-1.113-2.825-1.753-3.911-2.988-.691-.779-.998-1.224-2.128-3.072-.984-1.617-1.331-2.1-1.909-2.66-2.382-2.302-6.674-1.464-8.164 1.597-.365.749-.478 1.219-.493 2.136-.028 1.464.29 9.235.399 9.825.311 1.71 1.413 3.509 2.757 4.504Z"/></g><g opacity=".9" clip-path="url(#clip1_1838_6779)" fill="#fff"><path d="M146.788 49.556c1.453.786 3.379.524 5.254-.7.88-.58 2.026-1.787 2.534-2.68.851-1.486 1.116-3.19.687-4.424-.203-.606-.236-.65-.803-1.21-.573-.565-.607-.587-1.238-.792-1.932-.644-4.418.263-6.221 2.27-1.711 1.912-2.337 4.004-1.7 5.751.191.53.292.683.692 1.111.284.302.595.565.795.674Zm-7.793-7.686c.504.29 1.069.44 1.732.47 2.393.099 5.257-1.927 6.432-4.553.604-1.358.711-2.59.322-3.71-.214-.617-.242-.655-.809-1.215-.568-.56-.612-.592-1.221-.787-1.263-.422-3.039-.1-4.536.816-.808.498-1.977 1.66-2.518 2.51-1.454 2.263-1.482 4.595-.058 5.966.184.181.478.406.656.504Zm20.323 8.599c1.031.413 2.096.29 3.235-.398 1.975-1.18 3.612-4.086 3.531-6.25-.113-2.657-2.447-3.818-4.851-2.414-.996.587-2.202 1.932-2.79 3.118-.763 1.53-.955 3.294-.488 4.49.191.495.931 1.28 1.363 1.454ZM137.98 29.404c.549.244 1.102.329 1.974.29 1.746-.079 3.606-1.03 4.977-2.554.987-1.1 1.405-2.104 1.331-3.23-.038-.74-.302-1.274-.897-1.806-.4-.362-.55-.454-1.087-.633-.714-.233-1.731-.237-2.591-.01-.617.16-1.719.664-2.368 1.077-.682.436-1.927 1.71-2.26 2.314-.6 1.065-.774 2.21-.476 3.053.192.562.837 1.243 1.397 1.498Zm15.19 5.971a7.625 7.625 0 0 0 3.236 1.403c.647.111 9.592.32 10.338.243.668-.066 1.533-.398 2.165-.828 1.902-1.283 2.795-3.947 2.046-6.102-.53-1.51-1.609-2.53-4.332-4.052-1.985-1.113-2.824-1.754-3.91-2.99-.69-.779-.997-1.224-2.126-3.073-.984-1.617-1.329-2.1-1.908-2.66-2.38-2.304-6.673-1.467-8.165 1.592-.365.749-.478 1.22-.493 2.136-.029 1.464.285 9.235.394 9.825.31 1.71 1.411 3.51 2.755 4.506Z"/></g><g opacity=".9" clip-path="url(#clip2_1838_6779)" fill="#fff"><path d="M65.798 204.561c1.453.784 3.38.521 5.254-.702.88-.581 2.025-1.789 2.532-2.682.85-1.487 1.114-3.19.685-4.425-.203-.606-.237-.65-.804-1.209-.573-.565-.607-.587-1.238-.792-1.933-.643-4.418.265-6.22 2.273-1.71 1.913-2.335 4.006-1.698 5.752.192.529.293.683.694 1.111.284.302.595.565.795.674Zm-7.797-7.682c.505.289 1.07.44 1.733.468 2.392.098 5.256-1.929 6.43-4.556.602-1.358.71-2.591.32-3.709-.215-.618-.243-.656-.81-1.215-.568-.56-.613-.592-1.222-.787-1.262-.421-3.039-.099-4.535.819-.808.497-1.976 1.661-2.517 2.51-1.452 2.265-1.48 4.596-.055 5.967a3.7 3.7 0 0 0 .656.503Zm20.328 8.588c1.03.413 2.095.289 3.234-.399 1.974-1.181 3.61-4.088 3.528-6.253-.114-2.656-2.449-3.815-4.852-2.411-.996.588-2.201 1.934-2.789 3.12-.762 1.531-.953 3.294-.486 4.49.192.495.932 1.28 1.365 1.453ZM56.98 184.413c.549.244 1.102.329 1.974.289 1.745-.079 3.605-1.032 4.975-2.556.986-1.101 1.404-2.105 1.33-3.231-.039-.74-.303-1.274-.898-1.805-.4-.362-.55-.455-1.087-.633-.715-.232-1.731-.236-2.591-.008-.618.159-1.719.664-2.368 1.078-.681.436-1.926 1.71-2.258 2.315-.6 1.065-.774 2.21-.475 3.053.192.562.838 1.242 1.398 1.498Zm15.192 5.963a7.625 7.625 0 0 0 3.237 1.401c.647.111 9.593.316 10.338.238.668-.066 1.533-.398 2.165-.828 1.902-1.285 2.794-3.949 2.043-6.103-.53-1.51-1.61-2.529-4.334-4.05-1.986-1.113-2.825-1.753-3.911-2.988-.691-.779-.998-1.224-2.128-3.072-.984-1.617-1.33-2.1-1.91-2.66-2.38-2.302-6.673-1.464-8.163 1.597-.365.749-.478 1.219-.493 2.136-.028 1.464.29 9.235.4 9.825.31 1.71 1.412 3.509 2.757 4.504Z"/></g><defs><clipPath id="clip0_1838_6779"><path fill="#fff" transform="rotate(-135.427 110.182 50.2)" d="M0 0h40v40H0z"/></clipPath><clipPath id="clip1_1838_6779"><path fill="#fff" transform="rotate(-135.398 89.485 -.32)" d="M0 0h40v40H0z"/></clipPath><clipPath id="clip2_1838_6779"><path fill="#fff" transform="rotate(-135.427 80.748 93.8)" d="M0 0h40v40H0z"/></clipPath></defs></svg>