<svg width="199" height="204" viewBox="0 0 199 204" fill="none" xmlns="http://www.w3.org/2000/svg"><g opacity=".9" clip-path="url(#clip0_79_2726)" fill="#E7EDFB"><path d="M42.503 146.918c-1.463.766-3.386.478-5.244-.771-.872-.592-2.002-1.815-2.497-2.715-.831-1.497-1.072-3.204-.627-4.433.212-.603.246-.647.82-1.199.581-.557.615-.578 1.249-.775 1.94-.617 4.413.323 6.19 2.354 1.684 1.936 2.281 4.037 1.62 5.775-.198.526-.3.679-.707 1.101-.288.298-.603.557-.804.663Zm7.897-7.578c-.508.282-1.075.425-1.738.445-2.394.067-5.23-1.998-6.369-4.64-.585-1.366-.676-2.6-.272-3.713.223-.615.252-.653.826-1.204.575-.552.62-.584 1.232-.771 1.268-.405 3.04-.059 4.524.878.801.508 1.954 1.687 2.483 2.543 1.423 2.284 1.42 4.616-.023 5.967a3.667 3.667 0 0 1-.662.495Zm-20.438 8.32c-1.036.398-2.1.261-3.23-.442-1.958-1.207-3.555-4.135-3.444-6.299.148-2.654 2.498-3.783 4.883-2.347.988.601 2.175 1.963 2.747 3.157.742 1.54.91 3.306.427 4.495-.198.493-.949 1.268-1.383 1.436Zm21.624-20.772c-.552.237-1.106.314-1.978.263-1.744-.102-3.592-1.08-4.941-2.621-.972-1.114-1.377-2.123-1.287-3.248.048-.74.319-1.27.92-1.794.406-.356.557-.447 1.097-.618.717-.223 1.733-.213 2.59.026.616.167 1.71.687 2.354 1.109.676.445 1.903 1.736 2.228 2.345.585 1.073.744 2.22.434 3.059-.2.559-.854 1.231-1.417 1.479Zm-15.27 5.763a7.631 7.631 0 0 1-3.255 1.359c-.648.102-9.596.189-10.34.101-.667-.074-1.527-.418-2.154-.856-1.885-1.31-2.741-3.985-1.962-6.13.55-1.502 1.643-2.508 4.386-3.993 2.001-1.086 2.848-1.715 3.951-2.935.701-.77 1.014-1.211 2.168-3.044 1.006-1.604 1.358-2.083 1.944-2.634 2.412-2.271 6.692-1.376 8.143 1.704.354.753.46 1.225.464 2.142.008 1.464-.412 9.23-.529 9.819-.333 1.706-1.459 3.49-2.816 4.467Z"/></g><g opacity=".9" clip-path="url(#clip1_79_2726)" fill="#E7EDFB"><path d="M32.657 51.142c-1.5.692-3.406.309-5.2-1.03-.841-.635-1.91-1.912-2.36-2.835-.755-1.538-.911-3.254-.405-4.46.24-.592.277-.633.878-1.156.608-.527.642-.547 1.285-.712 1.97-.52 4.393.541 6.066 2.658 1.586 2.017 2.078 4.145 1.333 5.848-.225.516-.335.663-.762 1.065-.302.283-.63.526-.835.622Zm8.263-7.177c-.522.257-1.095.371-1.759.358-2.394-.052-5.124-2.254-6.13-4.95-.517-1.393-.547-2.63-.088-3.722.253-.603.283-.64.885-1.162.602-.522.648-.552 1.268-.708 1.287-.342 3.04.092 4.475 1.101.776.547 1.868 1.782 2.355 2.663 1.307 2.352 1.188 4.68-.32 5.959a3.68 3.68 0 0 1-.686.461ZM20.094 51.26c-1.055.348-2.11.157-3.203-.601-1.897-1.302-3.347-4.306-3.129-6.461.28-2.645 2.683-3.655 4.994-2.102.957.648 2.075 2.067 2.587 3.288.665 1.575.745 3.348.204 4.511-.223.483-1.011 1.22-1.453 1.366Zm22.627-19.673c-.563.21-1.12.259-1.989.165-1.736-.189-3.533-1.257-4.804-2.864-.916-1.16-1.27-2.188-1.124-3.307.084-.736.381-1.253 1.008-1.746.423-.336.578-.419 1.125-.563.728-.187 1.743-.127 2.587.154.606.198 1.673.771 2.295 1.225.653.478 1.815 1.828 2.11 2.452.53 1.1.632 2.254.281 3.077-.227.549-.914 1.187-1.489 1.407Zm-15.536 4.999a7.63 7.63 0 0 1-3.319 1.195c-.652.07-9.593-.287-10.332-.41-.663-.108-1.505-.495-2.109-.963-1.817-1.402-2.54-4.117-1.656-6.22.624-1.473 1.766-2.423 4.58-3.77 2.052-.985 2.929-1.572 4.09-2.736.74-.734 1.074-1.16 2.317-2.933 1.084-1.552 1.46-2.012 2.072-2.534 2.522-2.149 6.752-1.043 8.048 2.105.317.77.4 1.247.358 2.163-.065 1.463-.869 9.198-1.015 9.78-.418 1.688-1.63 3.414-3.034 4.323Z"/></g><g opacity=".9" clip-path="url(#clip2_79_2726)" fill="#E7EDFB"><path d="M140.197 185.015c-1.478.738-3.394.414-5.229-.868-.861-.609-1.968-1.852-2.446-2.761-.803-1.513-1.013-3.224-.545-4.444.223-.6.258-.643.843-1.184.591-.546.625-.567 1.262-.752 1.952-.581 4.407.405 6.145 2.469 1.648 1.967 2.206 4.078 1.514 5.804-.209.522-.314.673-.728 1.088-.294.292-.613.545-.816.648Zm8.036-7.431c-.513.273-1.083.406-1.746.413-2.395.022-5.192-2.094-6.282-4.758-.56-1.376-.628-2.611-.203-3.717.234-.61.263-.648.849-1.189.585-.541.63-.572 1.245-.747 1.276-.381 3.041-.002 4.507.962.792.523 1.923 1.723 2.436 2.589 1.38 2.309 1.333 4.641-.134 5.965-.19.175-.491.39-.672.482Zm-20.589 7.939c-1.044.38-2.104.222-3.22-.502-1.936-1.242-3.479-4.2-3.328-6.361.198-2.651 2.568-3.736 4.926-2.256.976.619 2.138 2.002 2.688 3.207.713 1.554.848 3.323.343 4.503-.207.489-.972 1.25-1.409 1.409Zm22.005-20.366c-.556.227-1.111.293-1.982.226-1.742-.135-3.571-1.146-4.891-2.713-.951-1.132-1.337-2.147-1.227-3.271.062-.738.343-1.264.954-1.776.412-.349.565-.437 1.107-.598.722-.209 1.738-.181 2.59.074.613.179 1.697.719 2.333 1.153.667.457 1.871 1.771 2.184 2.385.565 1.084.703 2.234.377 3.067-.21.556-.877 1.215-1.445 1.453Zm-15.373 5.479a7.635 7.635 0 0 1-3.28 1.297c-.65.091-9.598.011-10.34-.09-.666-.087-1.52-.446-2.138-.896-1.86-1.345-2.667-4.036-1.848-6.165.578-1.492 1.689-2.477 4.46-3.911 2.02-1.048 2.879-1.662 4.004-2.861.715-.757 1.037-1.193 2.224-3.004 1.036-1.584 1.397-2.057 1.993-2.597 2.453-2.226 6.716-1.252 8.109 1.854.341.76.439 1.234.425 2.151-.019 1.464-.583 9.221-.711 9.807-.365 1.7-1.523 3.462-2.898 4.415Z"/></g><defs><clipPath id="clip0_79_2726"><path fill="#fff" transform="scale(1 -1) rotate(43.819 216.21 -35.403)" d="M0 0h40v40H0z"/></clipPath><clipPath id="clip1_79_2726"><path fill="#fff" transform="scale(1 -1) rotate(40.976 97.493 2.047)" d="M0 0h40v40H0z"/></clipPath><clipPath id="clip2_79_2726"><path fill="#fff" transform="scale(1 -1) rotate(42.755 318.882 71.32)" d="M0 0h40v40H0z"/></clipPath></defs></svg>