<svg width="215" height="204" viewBox="0 0 215 204" fill="none" xmlns="http://www.w3.org/2000/svg"><g opacity=".9" clip-path="url(#clip0_1824_5039)" fill="#fff"><path d="M57.902 146.441c-1.464.766-3.386.478-5.245-.771-.871-.592-2.001-1.815-2.496-2.715-.831-1.498-1.073-3.204-.627-4.433.211-.603.245-.647.82-1.199.58-.557.614-.578 1.248-.775 1.941-.618 4.414.323 6.19 2.354 1.684 1.936 2.282 4.037 1.621 5.775-.198.526-.301.679-.707 1.101-.289.298-.603.557-.804.663Zm7.898-7.578c-.51.282-1.076.425-1.74.445-2.393.067-5.23-1.998-6.369-4.64-.585-1.366-.675-2.6-.271-3.713.222-.615.25-.653.826-1.205.575-.551.62-.583 1.231-.77 1.269-.405 3.04-.059 4.524.878.802.508 1.955 1.687 2.484 2.543 1.423 2.284 1.419 4.616-.024 5.967a3.667 3.667 0 0 1-.662.495Zm-20.44 8.32c-1.036.398-2.1.26-3.229-.442-1.958-1.207-3.556-4.135-3.445-6.299.149-2.654 2.498-3.783 4.883-2.347.988.601 2.176 1.962 2.748 3.157.742 1.54.91 3.306.426 4.495-.198.493-.949 1.268-1.383 1.436Zm21.624-20.772c-.552.237-1.106.314-1.978.263-1.744-.102-3.591-1.08-4.94-2.621-.973-1.114-1.377-2.123-1.288-3.248.049-.74.32-1.27.921-1.794.406-.356.557-.447 1.096-.618.718-.223 1.734-.213 2.591.026.615.167 1.71.687 2.353 1.109.676.445 1.904 1.736 2.228 2.345.586 1.073.745 2.22.434 3.059-.199.559-.854 1.231-1.417 1.479Zm-15.269 5.763a7.632 7.632 0 0 1-3.255 1.359c-.649.102-9.596.188-10.34.101-.668-.074-1.528-.418-2.154-.856-1.885-1.31-2.742-3.985-1.963-6.13.55-1.502 1.643-2.508 4.387-3.993 2-1.086 2.848-1.715 3.95-2.935.701-.77 1.014-1.211 2.168-3.044 1.006-1.604 1.358-2.083 1.944-2.634 2.412-2.271 6.693-1.376 8.143 1.704.355.753.46 1.225.464 2.142.009 1.464-.411 9.23-.528 9.819-.334 1.706-1.46 3.49-2.816 4.467Z"/></g><g opacity=".9" clip-path="url(#clip1_1824_5039)" fill="#fff"><path d="M48.055 50.665c-1.5.692-3.405.309-5.2-1.03-.841-.635-1.909-1.912-2.359-2.835-.756-1.538-.912-3.254-.406-4.46.241-.592.277-.633.879-1.156.607-.527.642-.547 1.285-.712 1.97-.52 4.392.541 6.065 2.658 1.586 2.017 2.079 4.145 1.333 5.848-.224.516-.334.663-.761 1.065-.303.283-.63.526-.836.622Zm8.264-7.177c-.523.257-1.095.371-1.759.358-2.394-.052-5.125-2.254-6.131-4.95-.517-1.393-.546-2.63-.087-3.722.253-.603.283-.64.885-1.162.601-.523.648-.552 1.268-.708 1.286-.342 3.039.092 4.474 1.101.776.547 1.869 1.782 2.355 2.663 1.308 2.352 1.188 4.68-.32 5.959a3.618 3.618 0 0 1-.685.46Zm-20.827 7.296c-1.054.346-2.11.156-3.203-.602-1.896-1.302-3.346-4.306-3.128-6.462.28-2.643 2.682-3.654 4.993-2.102.957.65 2.075 2.068 2.588 3.29.664 1.575.745 3.347.203 4.51-.222.483-1.01 1.22-1.453 1.366ZM58.12 31.11c-.563.21-1.12.259-1.99.165-1.736-.189-3.533-1.257-4.804-2.864-.915-1.16-1.27-2.188-1.124-3.307.085-.736.382-1.253 1.009-1.746.422-.336.578-.419 1.125-.563.727-.187 1.742-.127 2.586.154.607.198 1.674.771 2.295 1.225.654.478 1.816 1.828 2.11 2.452.531 1.1.633 2.254.282 3.077-.227.549-.915 1.187-1.49 1.407Zm-15.537 4.999a7.629 7.629 0 0 1-3.318 1.195c-.653.07-9.594-.287-10.333-.411-.662-.108-1.505-.493-2.108-.962-1.818-1.402-2.54-4.117-1.656-6.22.624-1.473 1.765-2.423 4.579-3.77 2.052-.985 2.93-1.572 4.091-2.736.739-.734 1.073-1.16 2.316-2.933 1.084-1.552 1.46-2.013 2.073-2.534 2.521-2.149 6.752-1.043 8.048 2.105.317.77.4 1.247.357 2.163-.064 1.463-.868 9.198-1.015 9.78-.417 1.688-1.63 3.414-3.034 4.323Z"/></g><g opacity=".9" clip-path="url(#clip2_1824_5039)" fill="#fff"><path d="M155.595 184.538c-1.478.738-3.394.414-5.229-.869-.861-.608-1.968-1.851-2.446-2.76-.803-1.513-1.013-3.224-.545-4.444.223-.6.258-.643.843-1.184.591-.546.625-.567 1.262-.752 1.952-.581 4.407.405 6.145 2.469 1.648 1.967 2.206 4.078 1.514 5.804-.208.522-.314.673-.728 1.088-.294.292-.613.545-.816.648Zm8.037-7.431c-.514.273-1.083.406-1.747.413-2.395.022-5.192-2.094-6.282-4.758-.56-1.376-.627-2.612-.203-3.717.234-.61.264-.648.849-1.189s.63-.572 1.245-.747c1.276-.381 3.041-.002 4.507.962.792.523 1.923 1.723 2.436 2.589 1.38 2.309 1.333 4.641-.134 5.965-.19.175-.491.39-.671.482Zm-20.59 7.939c-1.043.38-2.104.222-3.22-.502-1.936-1.242-3.479-4.2-3.328-6.361.198-2.651 2.568-3.736 4.926-2.256.976.619 2.138 2.002 2.688 3.207.713 1.554.849 3.323.344 4.503-.208.489-.973 1.25-1.41 1.409Zm22.005-20.366c-.556.227-1.111.293-1.982.226-1.742-.135-3.571-1.146-4.892-2.713-.95-1.132-1.336-2.148-1.226-3.271.062-.738.343-1.264.954-1.776.412-.349.565-.437 1.107-.598.722-.209 1.738-.181 2.59.074.613.179 1.697.719 2.332 1.153.668.457 1.872 1.771 2.185 2.385.565 1.084.703 2.234.377 3.067-.21.556-.877 1.215-1.445 1.453Zm-15.373 5.478a7.624 7.624 0 0 1-3.28 1.298c-.65.091-9.598.011-10.34-.09-.666-.087-1.52-.447-2.138-.897-1.86-1.344-2.667-4.035-1.848-6.165.578-1.492 1.69-2.477 4.46-3.91 2.021-1.049 2.879-1.662 4.004-2.862.716-.757 1.037-1.192 2.225-3.003 1.035-1.585 1.396-2.057 1.992-2.598 2.454-2.226 6.717-1.251 8.11 1.855.34.76.438 1.233.424 2.151-.019 1.464-.583 9.22-.711 9.807-.365 1.699-1.523 3.462-2.898 4.414Z"/></g><defs><clipPath id="clip0_1824_5039"><path fill="#fff" transform="scale(1 -1) rotate(43.819 223.317 -16.021)" d="M0 0h40v40H0z"/></clipPath><clipPath id="clip1_1824_5039"><path fill="#fff" transform="scale(1 -1) rotate(40.976 104.554 22.891)" d="M0 0h40v40H0z"/></clipPath><clipPath id="clip2_1824_5039"><path fill="#fff" transform="scale(1 -1) rotate(42.755 325.972 91.226)" d="M0 0h40v40H0z"/></clipPath></defs></svg>