<svg width="32" height="32" viewBox="0 0 32 32" fill="none" xmlns="http://www.w3.org/2000/svg">
<path opacity="0.4" d="M10.4255 29.3327H21.5732C24.6515 29.3327 27.147 26.9513 27.147 24.0137V17.5101C27.147 16.5658 27.54 15.6601 28.2398 14.9924C29.8609 13.4454 29.6502 10.8821 27.796 9.59524L19.2777 3.68334C17.3232 2.32691 14.6755 2.32691 12.721 3.68334L4.20269 9.59524C2.34851 10.8821 2.13776 13.4454 3.75893 14.9924C4.45865 15.6601 4.85175 16.5658 4.85175 17.5101V24.0137C4.85175 26.9513 7.34722 29.3327 10.4255 29.3327Z" fill="#8B00FF"/>
<path fill-rule="evenodd" clip-rule="evenodd" d="M16.9136 14.035C16.5356 14.035 16.2292 13.7285 16.2292 13.3505C16.2292 12.9725 16.5356 12.666 16.9136 12.666H19.6515C20.0296 12.666 20.336 12.9725 20.336 13.3505V16.0884C20.336 16.4664 20.0296 16.7729 19.6515 16.7729C19.2735 16.7729 18.9671 16.4664 18.9671 16.0884V15.003L14.003 19.9671H15.0884C15.4664 19.9671 15.7729 20.2735 15.7729 20.6515C15.7729 21.0296 15.4664 21.336 15.0884 21.336H12.3505C11.9725 21.336 11.666 21.0296 11.666 20.6515V17.9136C11.666 17.5356 11.9725 17.2292 12.3505 17.2292C12.7285 17.2292 13.035 17.5356 13.035 17.9136V18.9991L17.9991 14.035H16.9136Z" fill="#8B00FF"/>
</svg>
