<svg width="32" height="32" viewBox="0 0 32 32" fill="none" xmlns="http://www.w3.org/2000/svg">
<path opacity="0.4" d="M10.4263 29.3334H21.5739C24.6522 29.3334 27.1477 26.952 27.1477 24.0144V17.5108C27.1477 16.5665 27.5408 15.6609 28.2405 14.9931C29.8617 13.4461 29.6509 10.8828 27.7967 9.59597L19.2784 3.68408C17.324 2.32764 14.6762 2.32764 12.7217 3.68407L4.20342 9.59597C2.34924 10.8828 2.13849 13.4461 3.75967 14.9931C4.45938 15.6609 4.85248 16.5665 4.85248 17.5108V24.0144C4.85248 26.952 7.34795 29.3334 10.4263 29.3334Z" fill="#8B00FF"/>
<path fill-rule="evenodd" clip-rule="evenodd" d="M16.2356 13.6496C16.1054 13.5195 15.8944 13.5195 15.7642 13.6496L14.0404 15.3735C13.6498 15.764 13.0167 15.764 12.6261 15.3735C12.2356 14.983 12.2356 14.3498 12.6261 13.9593L14.35 12.2354C15.2612 11.3242 16.7386 11.3242 17.6498 12.2354L19.3737 13.9593C19.7642 14.3498 19.7642 14.983 19.3737 15.3735C18.9832 15.764 18.35 15.764 17.9595 15.3735L16.2356 13.6496Z" fill="#8B00FF"/>
<path fill-rule="evenodd" clip-rule="evenodd" d="M16 12.3333C16.5523 12.3333 17 12.781 17 13.3333V22.6666C17 23.2189 16.5523 23.6666 16 23.6666C15.4477 23.6666 15 23.2189 15 22.6666V13.3333C15 12.781 15.4477 12.3333 16 12.3333Z" fill="#8B00FF"/>
</svg>
