<svg width="32" height="32" viewBox="0 0 32 32" fill="none" xmlns="http://www.w3.org/2000/svg">
<path opacity="0.4" d="M27.6654 22.9987V10.9317C27.6654 9.69402 27.1737 8.50703 26.2985 7.63186L24.3655 5.69887C23.4904 4.8237 22.3034 4.33203 21.0657 4.33203H10.9317C9.69402 4.33203 8.50703 4.82369 7.63186 5.69886L5.69887 7.63186C4.8237 8.50703 4.33203 9.69402 4.33203 10.9317V22.9987C4.33203 25.576 6.42137 27.6654 8.9987 27.6654H22.9987C25.576 27.6654 27.6654 25.576 27.6654 22.9987Z" fill="#8B00FF"/>
<path d="M21.0668 4.33203H10.9328C9.69514 4.33203 8.50816 4.82369 7.63299 5.69886L5.69999 7.63186C5.00757 8.32428 4.55521 9.21189 4.39648 10.1654H27.6032C27.4444 9.21189 26.9921 8.32429 26.2997 7.63186L24.3667 5.69887C23.4915 4.8237 22.3045 4.33203 21.0668 4.33203Z" fill="#8B00FF"/>
<path fill-rule="evenodd" clip-rule="evenodd" d="M20.0743 15.3396C20.438 15.6578 20.4748 16.2106 20.1566 16.5743L16.8084 20.4008C16.0889 21.223 14.8496 21.3332 13.9964 20.6506L11.9515 19.0147C11.5741 18.7128 11.5129 18.1621 11.8148 17.7848C12.1167 17.4074 12.6673 17.3462 13.0447 17.6481L15.0896 19.2841C15.2115 19.3816 15.3886 19.3659 15.4914 19.2484L18.8396 15.4219C19.1578 15.0582 19.7106 15.0213 20.0743 15.3396Z" fill="#8B00FF"/>
</svg>
