<svg width="32" height="32" viewBox="0 0 32 32" fill="none" xmlns="http://www.w3.org/2000/svg">
<path opacity="0.4" d="M14 13.3333H7.21899C6.86537 13.3333 6.52623 13.1928 6.27618 12.9427L3.60952 10.2761C3.08882 9.75536 3.08882 8.91114 3.60952 8.39044L6.27618 5.72378C6.52623 5.47373 6.86537 5.33325 7.21899 5.33325H14V13.3333Z" fill="#8B00FF"/>
<path opacity="0.4" d="M18 13.3333H24.781C25.1346 13.3333 25.4738 13.4737 25.7238 13.7238L28.3905 16.3904C28.9112 16.9111 28.9112 17.7554 28.3905 18.2761L25.7238 20.9427C25.4738 21.1928 25.1346 21.3333 24.781 21.3333H18V13.3333Z" fill="#8B00FF"/>
<path d="M14 4.00008C14 3.2637 14.597 2.66675 15.3333 2.66675H16.6667C17.403 2.66675 18 3.2637 18 4.00008V28.0001C18 28.7365 17.403 29.3334 16.6667 29.3334H15.3333C14.597 29.3334 14 28.7365 14 28.0001V4.00008Z" fill="#8B00FF"/>
</svg>
