<svg width="355" height="318" viewBox="0 0 355 318" fill="none" xmlns="http://www.w3.org/2000/svg">
<path d="M30.7925 227.409C28.3012 225.875 26.6098 223.6 25.725 221.065L24.9922 204.985L77.5852 202.162L354.05 205.268L354.05 216.757C354.05 220.825 352.162 224.884 348.382 227.204L298.033 258.138L256.918 283.399L210.908 311.667C197.61 319.839 181.225 319.839 167.928 311.667L128.523 287.458L74.5189 254.234V254.277L74.4853 254.253L34.4434 229.651L30.7925 227.409Z" fill="#D4F2E4"/>
<path d="M30.7925 227.409C28.3012 225.875 26.6098 223.6 25.725 221.065L24.9922 204.985L77.5852 202.162L354.05 205.268L354.05 216.757C354.05 220.825 352.162 224.884 348.382 227.204L298.033 258.138L256.918 283.399L210.908 311.667C197.61 319.839 181.225 319.839 167.928 311.667L128.523 287.458L74.5189 254.234V254.277L74.4853 254.253L34.4434 229.651L30.7925 227.409Z" fill="url(#paint0_linear_692_44869)" fill-opacity="0.15"/>
<path d="M210.905 106.927L349.072 191.391C352.869 193.71 354.765 197.773 354.767 201.836C354.767 205.902 352.871 209.958 349.074 212.277L298.506 243.19L257.214 268.433L211.004 296.682C197.648 304.849 181.192 304.849 167.838 296.682L128.262 272.489L74.0229 239.288V239.331L73.9892 239.307L33.7736 214.722L30.1068 212.481C27.6047 210.949 25.906 208.675 25.0173 206.142C24.5281 204.75 24.2813 203.276 24.2813 201.803C24.2768 197.647 26.2179 193.489 30.1023 191.113L167.728 106.934C181.087 98.7627 197.544 98.7603 210.905 106.927Z" fill="#F0FAF6"/>
<path d="M69.8892 92.0381L69.8892 104.343C69.8892 109.681 69.3958 114.572 68.4092 119.016C67.4225 123.426 65.9988 127.406 64.1382 130.954C62.3058 134.453 60.121 137.521 57.5838 140.158C55.0467 142.795 52.2276 145.008 49.1266 146.799C46.6458 148.231 44.3341 149.208 42.1916 149.729C40.0491 150.217 38.118 150.176 36.3984 149.606C34.7069 149.021 33.241 147.897 32.0006 146.237C30.7884 144.528 29.8581 142.201 29.2097 139.255C28.5613 136.309 28.2371 132.688 28.2371 128.391L28.2371 116.086C28.2371 110.747 28.7304 105.889 29.7171 101.511C30.732 97.0837 32.1556 93.1204 33.988 89.6211C35.8486 86.1055 38.0475 83.0456 40.5847 80.4414C43.1219 77.8047 45.941 75.5911 49.042 73.8008C51.5228 72.3685 53.8204 71.4163 55.9347 70.9443C58.0772 70.4235 60.0083 70.4316 61.7279 70.9688C63.4476 71.5059 64.9135 72.6289 66.1257 74.3379C67.3379 76.0143 68.2682 78.3255 68.9166 81.2715C69.565 84.1849 69.8892 87.7738 69.8892 92.0381ZM57.6684 113.254L57.6684 97.1895C57.6684 94.6178 57.5416 92.445 57.2878 90.6709C57.0623 88.8805 56.7099 87.4564 56.2307 86.3984C55.7514 85.3079 55.1594 84.543 54.4546 84.1035C53.7499 83.6641 52.9464 83.5094 52.0443 83.6396C51.1422 83.7699 50.1414 84.1523 49.042 84.7871C47.6606 85.5846 46.4343 86.6019 45.3631 87.8389C44.32 89.0596 43.432 90.5651 42.699 92.3555C41.9661 94.1133 41.4022 96.2292 41.0076 98.7031C40.6411 101.128 40.4579 103.936 40.4579 107.126L40.4579 123.19C40.4579 125.762 40.5706 127.959 40.7961 129.782C41.0499 131.589 41.4163 133.054 41.8956 134.177C42.403 135.251 42.995 136.032 43.6716 136.521C44.3764 136.96 45.1798 137.115 46.0819 136.984C47.0122 136.838 48.0271 136.447 49.1266 135.812C50.4797 135.031 51.6778 134.03 52.7209 132.81C53.7922 131.54 54.6943 130.01 55.4272 128.22C56.1884 126.381 56.7522 124.232 57.1187 121.774C57.4852 119.317 57.6684 116.477 57.6684 113.254ZM120.295 93.7471L120.295 104.733L78.1773 129.05L78.1773 119.675L98.0942 83.5176C100.096 79.7904 101.674 76.6165 102.83 73.9961C103.986 71.3431 104.818 69.0889 105.325 67.2334C105.861 65.3291 106.129 63.6608 106.129 62.2285C106.129 60.0801 105.819 58.4199 105.198 57.248C104.578 56.0436 103.662 55.3682 102.45 55.2217C101.266 55.0589 99.7998 55.4821 98.0519 56.4912C96.1913 57.5654 94.5844 59.014 93.2313 60.8369C91.9063 62.6436 90.8914 64.6781 90.1867 66.9404C89.5101 69.1865 89.1718 71.4814 89.1718 73.8252L76.951 80.8809C76.951 76.6491 77.8249 72.2708 79.5728 67.7461C81.3206 63.1888 83.7873 58.9489 86.9729 55.0264C90.1585 51.0713 93.936 47.8324 98.3056 45.3096C102.619 42.8193 106.255 41.5335 109.216 41.4521C112.204 41.3219 114.459 42.3311 115.981 44.4795C117.532 46.5791 118.307 49.7122 118.307 53.8789C118.307 56.2227 117.983 58.7048 117.335 61.3252C116.686 63.9131 115.756 66.6637 114.544 69.5771C113.36 72.4417 111.922 75.4854 110.23 78.708C108.539 81.9307 106.664 85.3405 104.606 88.9375L93.9079 108.981L120.295 93.7471Z" fill="url(#paint1_linear_692_44869)" fill-opacity="0.15"/>
<path d="M274.298 188.673C274.298 189.183 274.271 189.666 274.244 190.175C274.217 190.604 274.19 191.034 274.163 191.463C274.137 191.838 274.083 192.214 274.029 192.589C273.976 193.018 273.895 193.421 273.842 193.85C273.761 194.226 273.681 194.601 273.6 194.977C273.52 195.379 273.412 195.808 273.305 196.21C273.198 196.586 273.091 196.961 272.983 197.337C272.849 197.739 272.715 198.142 272.581 198.571C272.447 198.946 272.313 199.295 272.179 199.671C272.018 200.1 271.83 200.529 271.642 200.958C271.481 201.307 271.32 201.682 271.132 202.031C270.918 202.46 270.703 202.889 270.489 203.292C270.301 203.64 270.113 203.989 269.925 204.311C269.63 204.821 269.308 205.303 269.013 205.813C268.826 206.108 268.638 206.43 268.423 206.725C268.048 207.261 267.645 207.825 267.243 208.361C267.055 208.603 266.894 208.844 266.707 209.085C266.009 209.944 265.285 210.802 264.507 211.66C264.319 211.875 264.105 212.09 263.89 212.304C263.273 212.948 262.63 213.592 261.986 214.209C261.691 214.504 261.369 214.799 261.047 215.067C260.645 215.416 260.242 215.764 259.84 216.113C259.464 216.435 259.062 216.784 258.66 217.105C258.231 217.454 257.801 217.803 257.345 218.125C256.916 218.447 256.514 218.768 256.085 219.064C255.629 219.412 255.146 219.734 254.663 220.056C254.207 220.351 253.778 220.673 253.295 220.968C252.786 221.29 252.276 221.612 251.766 221.934C251.123 222.336 250.479 222.738 249.808 223.141C247.984 224.214 246.053 225.206 244.095 226.145C243.585 226.386 243.049 226.628 242.539 226.869C240.769 227.674 238.972 228.452 237.121 229.176C236.88 229.283 236.638 229.364 236.397 229.471C234.412 230.222 232.373 230.919 230.308 231.563C228.886 232.019 227.411 232.394 225.963 232.797C224.863 233.092 223.763 233.414 222.637 233.682C221.081 234.058 219.525 234.379 217.943 234.674C216.816 234.916 215.69 235.157 214.536 235.372C214.053 235.452 213.571 235.533 213.115 235.586C211.183 235.908 209.225 236.177 207.24 236.418C206.677 236.498 206.087 236.552 205.524 236.633C203.244 236.874 200.964 237.062 198.657 237.196C198.228 237.223 197.799 237.249 197.396 237.249C195.841 237.33 194.285 237.357 192.729 237.384C191.173 237.41 189.645 237.437 188.089 237.41C186.801 237.384 185.487 237.357 184.199 237.303C182.778 237.249 181.329 237.169 179.908 237.062C178.593 236.981 177.306 236.874 175.992 236.74C174.57 236.606 173.175 236.445 171.754 236.257C170.493 236.096 169.232 235.908 167.972 235.721C166.47 235.479 164.967 235.211 163.492 234.943C161.936 234.648 160.381 234.353 158.852 234.004C158.476 233.923 158.101 233.843 157.752 233.762C155.606 233.253 153.46 232.663 151.368 232.046C150.778 231.858 150.188 231.67 149.598 231.483C147.854 230.946 146.138 230.356 144.448 229.712C143.965 229.524 143.455 229.364 142.973 229.176C141.444 228.586 139.969 227.915 138.466 227.271C137.742 226.949 136.991 226.654 136.267 226.306C134.121 225.286 132.056 224.214 130.044 223.06C122.748 218.849 117.035 214.048 112.931 208.924C111.751 207.476 110.705 205.974 109.793 204.472C109.337 203.721 108.908 202.97 108.532 202.192C107.754 200.663 107.11 199.107 106.574 197.552C106.306 196.774 106.091 195.996 105.903 195.218C105.313 192.858 105.045 190.497 105.045 188.137L104.75 210.695C104.723 223.328 113.065 235.989 129.749 245.618C131.734 246.772 133.826 247.844 135.945 248.864C136.669 249.212 137.42 249.507 138.145 249.829C139.405 250.393 140.639 250.983 141.953 251.492C142.168 251.573 142.409 251.653 142.624 251.734C143.107 251.922 143.616 252.082 144.099 252.27C145.789 252.887 147.506 253.477 149.249 254.041C149.839 254.228 150.429 254.416 151.02 254.604C151.422 254.711 151.824 254.872 152.227 254.979C153.943 255.462 155.66 255.891 157.403 256.32C157.779 256.401 158.154 256.481 158.503 256.562C159.361 256.75 160.193 256.964 161.051 257.125C161.749 257.259 162.473 257.367 163.17 257.501C164.646 257.796 166.148 258.037 167.65 258.279C168.267 258.359 168.83 258.493 169.447 258.6C170.117 258.681 170.788 258.735 171.432 258.815C172.827 259.003 174.248 259.164 175.643 259.298C176.314 259.351 176.984 259.459 177.655 259.512C178.298 259.566 178.915 259.566 179.559 259.62C180.981 259.727 182.402 259.781 183.851 259.861C184.575 259.888 185.272 259.968 185.997 259.968C186.56 259.995 187.15 259.942 187.713 259.968C189.269 259.995 190.798 259.968 192.354 259.942C193.131 259.915 193.883 259.968 194.66 259.942C195.438 259.915 196.216 259.861 197.021 259.834C197.45 259.807 197.879 259.807 198.281 259.781C200.213 259.673 202.144 259.539 204.048 259.325C204.424 259.298 204.773 259.244 205.148 259.191C205.711 259.137 206.302 259.056 206.865 258.976C208.823 258.735 210.781 258.466 212.712 258.144C213.195 258.064 213.678 258.01 214.134 257.903C214.348 257.876 214.59 257.823 214.804 257.796C215.716 257.635 216.628 257.393 217.54 257.206C219.123 256.884 220.679 256.589 222.234 256.213C223.361 255.945 224.461 255.623 225.56 255.328C227.036 254.926 228.484 254.523 229.906 254.094C230.201 253.987 230.523 253.933 230.844 253.826C232.588 253.263 234.305 252.646 235.994 252.002C236.236 251.922 236.477 251.814 236.719 251.707C238.569 250.983 240.367 250.205 242.137 249.4C242.647 249.159 243.183 248.917 243.693 248.676C245.651 247.737 247.582 246.745 249.406 245.672C249.755 245.457 250.103 245.269 250.452 245.055C250.774 244.867 251.069 244.653 251.391 244.465C251.9 244.143 252.437 243.821 252.92 243.499C253.376 243.204 253.832 242.882 254.261 242.587C254.744 242.265 255.226 241.917 255.682 241.595C256.112 241.273 256.541 240.978 256.943 240.656C257.399 240.307 257.828 239.959 258.257 239.61C258.66 239.288 259.035 238.966 259.438 238.644C259.84 238.296 260.269 237.947 260.645 237.571C260.806 237.41 260.993 237.276 261.154 237.142C261.315 237.008 261.423 236.847 261.584 236.713C262.254 236.096 262.898 235.452 263.488 234.809C263.702 234.594 263.917 234.379 264.105 234.165C264.883 233.333 265.607 232.475 266.304 231.617C266.331 231.59 266.358 231.536 266.412 231.509C266.573 231.322 266.707 231.107 266.841 230.892C267.243 230.356 267.645 229.793 268.048 229.256C268.262 228.961 268.45 228.639 268.638 228.344C268.96 227.835 269.282 227.352 269.577 226.842C269.657 226.708 269.764 226.574 269.818 226.44C269.925 226.225 270.033 226.037 270.14 225.823C270.355 225.394 270.596 224.991 270.784 224.562C270.945 224.214 271.132 223.838 271.293 223.489C271.481 223.06 271.669 222.631 271.83 222.202C271.91 222.014 271.991 221.826 272.071 221.638C272.125 221.478 272.179 221.29 272.232 221.129C272.366 220.727 272.5 220.324 272.635 219.895C272.742 219.52 272.849 219.144 272.956 218.768C273.064 218.366 273.171 217.937 273.251 217.535C273.305 217.32 273.359 217.079 273.412 216.864C273.439 216.703 273.466 216.569 273.493 216.408C273.573 215.979 273.627 215.577 273.681 215.147C273.734 214.772 273.788 214.396 273.815 214.021C273.868 213.592 273.895 213.162 273.895 212.733C273.922 212.492 273.949 212.224 273.949 211.982C273.949 211.741 273.949 211.499 273.949 211.231L274.298 188.673Z" fill="#D4F2E4"/>
<path d="M274.298 188.673C274.298 189.183 274.271 189.666 274.244 190.175C274.217 190.604 274.19 191.034 274.163 191.463C274.137 191.838 274.083 192.214 274.029 192.589C273.976 193.018 273.895 193.421 273.842 193.85C273.761 194.226 273.681 194.601 273.6 194.977C273.52 195.379 273.412 195.808 273.305 196.21C273.198 196.586 273.091 196.961 272.983 197.337C272.849 197.739 272.715 198.142 272.581 198.571C272.447 198.946 272.313 199.295 272.179 199.671C272.018 200.1 271.83 200.529 271.642 200.958C271.481 201.307 271.32 201.682 271.132 202.031C270.918 202.46 270.703 202.889 270.489 203.292C270.301 203.64 270.113 203.989 269.925 204.311C269.63 204.821 269.308 205.303 269.013 205.813C268.826 206.108 268.638 206.43 268.423 206.725C268.048 207.261 267.645 207.825 267.243 208.361C267.055 208.603 266.894 208.844 266.707 209.085C266.009 209.944 265.285 210.802 264.507 211.66C264.319 211.875 264.105 212.09 263.89 212.304C263.273 212.948 262.63 213.592 261.986 214.209C261.691 214.504 261.369 214.799 261.047 215.067C260.645 215.416 260.242 215.764 259.84 216.113C259.464 216.435 259.062 216.784 258.66 217.105C258.231 217.454 257.801 217.803 257.345 218.125C256.916 218.447 256.514 218.768 256.085 219.064C255.629 219.412 255.146 219.734 254.663 220.056C254.207 220.351 253.778 220.673 253.295 220.968C252.786 221.29 252.276 221.612 251.766 221.934C251.123 222.336 250.479 222.738 249.808 223.141C247.984 224.214 246.053 225.206 244.095 226.145C243.585 226.386 243.049 226.628 242.539 226.869C240.769 227.674 238.972 228.452 237.121 229.176C236.88 229.283 236.638 229.364 236.397 229.471C234.412 230.222 232.373 230.919 230.308 231.563C228.886 232.019 227.411 232.394 225.963 232.797C224.863 233.092 223.763 233.414 222.637 233.682C221.081 234.058 219.525 234.379 217.943 234.674C216.816 234.916 215.69 235.157 214.536 235.372C214.053 235.452 213.571 235.533 213.115 235.586C211.183 235.908 209.225 236.177 207.24 236.418C206.677 236.498 206.087 236.552 205.524 236.633C203.244 236.874 200.964 237.062 198.657 237.196C198.228 237.223 197.799 237.249 197.396 237.249C195.841 237.33 194.285 237.357 192.729 237.384C191.173 237.41 189.645 237.437 188.089 237.41C186.801 237.384 185.487 237.357 184.199 237.303C182.778 237.249 181.329 237.169 179.908 237.062C178.593 236.981 177.306 236.874 175.992 236.74C174.57 236.606 173.175 236.445 171.754 236.257C170.493 236.096 169.232 235.908 167.972 235.721C166.47 235.479 164.967 235.211 163.492 234.943C161.936 234.648 160.381 234.353 158.852 234.004C158.476 233.923 158.101 233.843 157.752 233.762C155.606 233.253 153.46 232.663 151.368 232.046C150.778 231.858 150.188 231.67 149.598 231.483C147.854 230.946 146.138 230.356 144.448 229.712C143.965 229.524 143.455 229.364 142.973 229.176C141.444 228.586 139.969 227.915 138.466 227.271C137.742 226.949 136.991 226.654 136.267 226.306C134.121 225.286 132.056 224.214 130.044 223.06C122.748 218.849 117.035 214.048 112.931 208.924C111.751 207.476 110.705 205.974 109.793 204.472C109.337 203.721 108.908 202.97 108.532 202.192C107.754 200.663 107.11 199.107 106.574 197.552C106.306 196.774 106.091 195.996 105.903 195.218C105.313 192.858 105.045 190.497 105.045 188.137L104.75 210.695C104.723 223.328 113.065 235.989 129.749 245.618C131.734 246.772 133.826 247.844 135.945 248.864C136.669 249.212 137.42 249.507 138.145 249.829C139.405 250.393 140.639 250.983 141.953 251.492C142.168 251.573 142.409 251.653 142.624 251.734C143.107 251.922 143.616 252.082 144.099 252.27C145.789 252.887 147.506 253.477 149.249 254.041C149.839 254.228 150.429 254.416 151.02 254.604C151.422 254.711 151.824 254.872 152.227 254.979C153.943 255.462 155.66 255.891 157.403 256.32C157.779 256.401 158.154 256.481 158.503 256.562C159.361 256.75 160.193 256.964 161.051 257.125C161.749 257.259 162.473 257.367 163.17 257.501C164.646 257.796 166.148 258.037 167.65 258.279C168.267 258.359 168.83 258.493 169.447 258.6C170.117 258.681 170.788 258.735 171.432 258.815C172.827 259.003 174.248 259.164 175.643 259.298C176.314 259.351 176.984 259.459 177.655 259.512C178.298 259.566 178.915 259.566 179.559 259.62C180.981 259.727 182.402 259.781 183.851 259.861C184.575 259.888 185.272 259.968 185.997 259.968C186.56 259.995 187.15 259.942 187.713 259.968C189.269 259.995 190.798 259.968 192.354 259.942C193.131 259.915 193.883 259.968 194.66 259.942C195.438 259.915 196.216 259.861 197.021 259.834C197.45 259.807 197.879 259.807 198.281 259.781C200.213 259.673 202.144 259.539 204.048 259.325C204.424 259.298 204.773 259.244 205.148 259.191C205.711 259.137 206.302 259.056 206.865 258.976C208.823 258.735 210.781 258.466 212.712 258.144C213.195 258.064 213.678 258.01 214.134 257.903C214.348 257.876 214.59 257.823 214.804 257.796C215.716 257.635 216.628 257.393 217.54 257.206C219.123 256.884 220.679 256.589 222.234 256.213C223.361 255.945 224.461 255.623 225.56 255.328C227.036 254.926 228.484 254.523 229.906 254.094C230.201 253.987 230.523 253.933 230.844 253.826C232.588 253.263 234.305 252.646 235.994 252.002C236.236 251.922 236.477 251.814 236.719 251.707C238.569 250.983 240.367 250.205 242.137 249.4C242.647 249.159 243.183 248.917 243.693 248.676C245.651 247.737 247.582 246.745 249.406 245.672C249.755 245.457 250.103 245.269 250.452 245.055C250.774 244.867 251.069 244.653 251.391 244.465C251.9 244.143 252.437 243.821 252.92 243.499C253.376 243.204 253.832 242.882 254.261 242.587C254.744 242.265 255.226 241.917 255.682 241.595C256.112 241.273 256.541 240.978 256.943 240.656C257.399 240.307 257.828 239.959 258.257 239.61C258.66 239.288 259.035 238.966 259.438 238.644C259.84 238.296 260.269 237.947 260.645 237.571C260.806 237.41 260.993 237.276 261.154 237.142C261.315 237.008 261.423 236.847 261.584 236.713C262.254 236.096 262.898 235.452 263.488 234.809C263.702 234.594 263.917 234.379 264.105 234.165C264.883 233.333 265.607 232.475 266.304 231.617C266.331 231.59 266.358 231.536 266.412 231.509C266.573 231.322 266.707 231.107 266.841 230.892C267.243 230.356 267.645 229.793 268.048 229.256C268.262 228.961 268.45 228.639 268.638 228.344C268.96 227.835 269.282 227.352 269.577 226.842C269.657 226.708 269.764 226.574 269.818 226.44C269.925 226.225 270.033 226.037 270.14 225.823C270.355 225.394 270.596 224.991 270.784 224.562C270.945 224.214 271.132 223.838 271.293 223.489C271.481 223.06 271.669 222.631 271.83 222.202C271.91 222.014 271.991 221.826 272.071 221.638C272.125 221.478 272.179 221.29 272.232 221.129C272.366 220.727 272.5 220.324 272.635 219.895C272.742 219.52 272.849 219.144 272.956 218.768C273.064 218.366 273.171 217.937 273.251 217.535C273.305 217.32 273.359 217.079 273.412 216.864C273.439 216.703 273.466 216.569 273.493 216.408C273.573 215.979 273.627 215.577 273.681 215.147C273.734 214.772 273.788 214.396 273.815 214.021C273.868 213.592 273.895 213.162 273.895 212.733C273.922 212.492 273.949 212.224 273.949 211.982C273.949 211.741 273.949 211.499 273.949 211.231L274.298 188.673Z" fill="url(#paint2_linear_692_44869)" fill-opacity="0.5"/>
<path d="M274.298 188.673C274.298 189.183 274.271 189.666 274.244 190.175C274.217 190.604 274.19 191.034 274.163 191.463C274.137 191.838 274.083 192.214 274.029 192.589C273.976 193.018 273.895 193.421 273.842 193.85C273.761 194.226 273.681 194.601 273.6 194.977C273.52 195.379 273.412 195.808 273.305 196.21C273.198 196.586 273.091 196.961 272.983 197.337C272.849 197.739 272.715 198.142 272.581 198.571C272.447 198.946 272.313 199.295 272.179 199.671C272.018 200.1 271.83 200.529 271.642 200.958C271.481 201.307 271.32 201.682 271.132 202.031C270.918 202.46 270.703 202.889 270.489 203.292C270.301 203.64 270.113 203.989 269.925 204.311C269.63 204.821 269.308 205.303 269.013 205.813C268.826 206.108 268.638 206.43 268.423 206.725C268.048 207.261 267.645 207.825 267.243 208.361C267.055 208.603 266.894 208.844 266.707 209.085C266.009 209.944 265.285 210.802 264.507 211.66C264.319 211.875 264.105 212.09 263.89 212.304C263.273 212.948 262.63 213.592 261.986 214.209C261.691 214.504 261.369 214.799 261.047 215.067C260.645 215.416 260.242 215.764 259.84 216.113C259.464 216.435 259.062 216.784 258.66 217.105C258.231 217.454 257.801 217.803 257.345 218.125C256.916 218.447 256.514 218.768 256.085 219.064C255.629 219.412 255.146 219.734 254.663 220.056C254.207 220.351 253.778 220.673 253.295 220.968C252.786 221.29 252.276 221.612 251.766 221.934C251.123 222.336 250.479 222.738 249.808 223.141C247.984 224.214 246.053 225.206 244.095 226.145C243.585 226.386 243.049 226.628 242.539 226.869C240.769 227.674 238.972 228.452 237.121 229.176C236.88 229.283 236.638 229.364 236.397 229.471C234.412 230.222 232.373 230.919 230.308 231.563C228.886 232.019 227.411 232.394 225.963 232.797C224.863 233.092 223.763 233.414 222.637 233.682C221.081 234.058 219.525 234.379 217.943 234.674C216.816 234.916 215.69 235.157 214.536 235.372C214.053 235.452 213.571 235.533 213.115 235.586C211.183 235.908 209.225 236.177 207.24 236.418C206.677 236.498 206.087 236.552 205.524 236.633C203.244 236.874 200.964 237.062 198.657 237.196C198.228 237.223 197.799 237.249 197.396 237.249C195.841 237.33 194.285 237.357 192.729 237.384C191.173 237.41 189.645 237.437 188.089 237.41C186.801 237.384 185.487 237.357 184.199 237.303C182.778 237.249 181.329 237.169 179.908 237.062C178.593 236.981 177.306 236.874 175.992 236.74C174.57 236.606 173.175 236.445 171.754 236.257C170.493 236.096 169.232 235.908 167.972 235.721C166.47 235.479 164.967 235.211 163.492 234.943C161.936 234.648 160.381 234.353 158.852 234.004C158.476 233.923 158.101 233.843 157.752 233.762C155.606 233.253 153.46 232.663 151.368 232.046C150.778 231.858 150.188 231.67 149.598 231.483C147.854 230.946 146.138 230.356 144.448 229.712C143.965 229.524 143.455 229.364 142.973 229.176C141.444 228.586 139.969 227.915 138.466 227.271C137.742 226.949 136.991 226.654 136.267 226.306C134.121 225.286 132.056 224.214 130.044 223.06C122.748 218.849 117.035 214.048 112.931 208.924C111.751 207.476 110.705 205.974 109.793 204.472C109.337 203.721 108.908 202.97 108.532 202.192C107.754 200.663 107.11 199.107 106.574 197.552C106.306 196.774 106.091 195.996 105.903 195.218C105.313 192.858 105.045 190.497 105.045 188.137L104.75 210.695C104.723 223.328 113.065 235.989 129.749 245.618C131.734 246.772 133.826 247.844 135.945 248.864C136.669 249.212 137.42 249.507 138.145 249.829C139.405 250.393 140.639 250.983 141.953 251.492C142.168 251.573 142.409 251.653 142.624 251.734C143.107 251.922 143.616 252.082 144.099 252.27C145.789 252.887 147.506 253.477 149.249 254.041C149.839 254.228 150.429 254.416 151.02 254.604C151.422 254.711 151.824 254.872 152.227 254.979C153.943 255.462 155.66 255.891 157.403 256.32C157.779 256.401 158.154 256.481 158.503 256.562C159.361 256.75 160.193 256.964 161.051 257.125C161.749 257.259 162.473 257.367 163.17 257.501C164.646 257.796 166.148 258.037 167.65 258.279C168.267 258.359 168.83 258.493 169.447 258.6C170.117 258.681 170.788 258.735 171.432 258.815C172.827 259.003 174.248 259.164 175.643 259.298C176.314 259.351 176.984 259.459 177.655 259.512C178.298 259.566 178.915 259.566 179.559 259.62C180.981 259.727 182.402 259.781 183.851 259.861C184.575 259.888 185.272 259.968 185.997 259.968C186.56 259.995 187.15 259.942 187.713 259.968C189.269 259.995 190.798 259.968 192.354 259.942C193.131 259.915 193.883 259.968 194.66 259.942C195.438 259.915 196.216 259.861 197.021 259.834C197.45 259.807 197.879 259.807 198.281 259.781C200.213 259.673 202.144 259.539 204.048 259.325C204.424 259.298 204.773 259.244 205.148 259.191C205.711 259.137 206.302 259.056 206.865 258.976C208.823 258.735 210.781 258.466 212.712 258.144C213.195 258.064 213.678 258.01 214.134 257.903C214.348 257.876 214.59 257.823 214.804 257.796C215.716 257.635 216.628 257.393 217.54 257.206C219.123 256.884 220.679 256.589 222.234 256.213C223.361 255.945 224.461 255.623 225.56 255.328C227.036 254.926 228.484 254.523 229.906 254.094C230.201 253.987 230.523 253.933 230.844 253.826C232.588 253.263 234.305 252.646 235.994 252.002C236.236 251.922 236.477 251.814 236.719 251.707C238.569 250.983 240.367 250.205 242.137 249.4C242.647 249.159 243.183 248.917 243.693 248.676C245.651 247.737 247.582 246.745 249.406 245.672C249.755 245.457 250.103 245.269 250.452 245.055C250.774 244.867 251.069 244.653 251.391 244.465C251.9 244.143 252.437 243.821 252.92 243.499C253.376 243.204 253.832 242.882 254.261 242.587C254.744 242.265 255.226 241.917 255.682 241.595C256.112 241.273 256.541 240.978 256.943 240.656C257.399 240.307 257.828 239.959 258.257 239.61C258.66 239.288 259.035 238.966 259.438 238.644C259.84 238.296 260.269 237.947 260.645 237.571C260.806 237.41 260.993 237.276 261.154 237.142C261.315 237.008 261.423 236.847 261.584 236.713C262.254 236.096 262.898 235.452 263.488 234.809C263.702 234.594 263.917 234.379 264.105 234.165C264.883 233.333 265.607 232.475 266.304 231.617C266.331 231.59 266.358 231.536 266.412 231.509C266.573 231.322 266.707 231.107 266.841 230.892C267.243 230.356 267.645 229.793 268.048 229.256C268.262 228.961 268.45 228.639 268.638 228.344C268.96 227.835 269.282 227.352 269.577 226.842C269.657 226.708 269.764 226.574 269.818 226.44C269.925 226.225 270.033 226.037 270.14 225.823C270.355 225.394 270.596 224.991 270.784 224.562C270.945 224.214 271.132 223.838 271.293 223.489C271.481 223.06 271.669 222.631 271.83 222.202C271.91 222.014 271.991 221.826 272.071 221.638C272.125 221.478 272.179 221.29 272.232 221.129C272.366 220.727 272.5 220.324 272.635 219.895C272.742 219.52 272.849 219.144 272.956 218.768C273.064 218.366 273.171 217.937 273.251 217.535C273.305 217.32 273.359 217.079 273.412 216.864C273.439 216.703 273.466 216.569 273.493 216.408C273.573 215.979 273.627 215.577 273.681 215.147C273.734 214.772 273.788 214.396 273.815 214.021C273.868 213.592 273.895 213.162 273.895 212.733C273.922 212.492 273.949 212.224 273.949 211.982C273.949 211.741 273.949 211.499 273.949 211.231L274.298 188.673Z" fill="#D4F2E4"/>
<path d="M274.298 0H104.965V192.575C104.938 204.078 113.253 215.605 129.964 224.373C163.144 241.811 216.736 241.811 249.701 224.373C266.278 215.605 274.459 204.078 274.298 192.575V0Z" fill="url(#paint3_linear_692_44869)"/>
<path d="M189.918 235.185C167.709 235.185 146.814 230.196 131.122 221.13C115.753 212.251 107.277 200.583 107.25 188.298C107.223 176.094 115.565 164.506 130.747 155.709C146.331 146.642 167.172 141.653 189.382 141.653C211.618 141.653 232.513 146.642 248.204 155.709C263.574 164.587 272.05 176.228 272.05 188.54C272.077 200.744 263.735 212.332 248.58 221.13C232.969 230.196 212.128 235.185 189.918 235.185Z" fill="#D0FFFF"/>
<path d="M189.918 235.185C167.709 235.185 146.814 230.196 131.122 221.13C115.753 212.251 107.277 200.583 107.25 188.298C107.223 176.094 115.565 164.506 130.747 155.709C146.331 146.642 167.172 141.653 189.382 141.653C211.618 141.653 232.513 146.642 248.204 155.709C263.574 164.587 272.05 176.228 272.05 188.54C272.077 200.744 263.735 212.332 248.58 221.13C232.969 230.196 212.128 235.185 189.918 235.185Z" fill="#C8ECDB"/>
<path d="M189.918 235.185C167.709 235.185 146.814 230.196 131.122 221.13C115.753 212.251 107.277 200.583 107.25 188.298C107.223 176.094 115.565 164.506 130.747 155.709C146.331 146.642 167.172 141.653 189.382 141.653C211.618 141.653 232.513 146.642 248.204 155.709C263.574 164.587 272.05 176.228 272.05 188.54C272.077 200.744 263.735 212.332 248.58 221.13C232.969 230.196 212.128 235.185 189.918 235.185Z" fill="#F0FAF6"/>
<path opacity="0.5608" d="M254.741 75.1597C254.768 68.6686 251.898 62.1506 246.158 56.3301L246.023 106.918C251.764 112.739 254.634 119.23 254.607 125.748L254.741 75.1597Z" fill="url(#paint4_linear_692_44869)"/>
<path opacity="0.5608" d="M205.628 18.1336C184.036 14.9417 160.244 18.2409 143.399 28.0045C130.792 35.3271 124.489 44.9029 124.462 54.5055L124.328 100.775C124.355 91.1724 130.658 81.5966 143.265 74.274C160.083 64.4836 183.902 61.2112 205.494 64.4031L205.628 18.1336Z" fill="url(#paint5_linear_692_44869)"/>
<path opacity="0.5608" d="M162.254 80.6045C155.36 82.4284 148.896 84.9766 143.236 88.2758C130.629 95.5985 124.326 105.174 124.299 114.777L124.219 139.668C124.246 130.066 130.549 120.49 143.156 113.167C148.815 109.868 155.28 107.32 162.173 105.496L162.254 80.6045Z" fill="url(#paint6_linear_692_44869)"/>
<path d="M207.83 187.865C207.894 187.993 208.955 192.409 208.828 192.94C208.701 193.45 205.834 194.809 204.327 194.66C202.798 194.511 200.929 192.43 200.377 191.985C199.847 191.539 197.129 190.031 197.129 190.031C197.129 190.031 194.156 189.585 193.434 189.012C192.712 188.439 190.334 186.485 189.761 185.53C189.188 184.574 190.823 183.385 191.29 183.109C191.757 182.833 193.923 182.77 194.772 182.833C195.621 182.897 198.275 183.64 198.275 183.64L207.83 187.865Z" fill="#ADADAD"/>
<path d="M173.113 191.582C171.776 191.603 164.068 192.41 163.643 192.665C163.24 192.898 161.945 193.939 161.711 194.809C161.499 195.701 161.605 197.336 162.454 198.037C163.304 198.759 166.361 200.479 166.361 200.479L171.669 201.137L178.867 203.366C178.867 203.366 181.776 203.111 182.774 202.071C183.772 201.031 183.708 200.181 183.708 200.181C183.708 200.181 183.517 197.145 182.604 196.381C181.691 195.595 173.113 191.582 173.113 191.582Z" fill="#ADADAD"/>
<path fill-rule="evenodd" clip-rule="evenodd" d="M208.607 180.364C208.656 178.622 208.702 176.959 208.743 175.657C208.849 172.297 208.618 167.62 208.416 163.528L208.416 163.527C208.336 161.904 208.26 160.373 208.212 159.053C208.114 155.999 207.183 152.66 206.513 150.26L206.513 150.259L206.513 150.259L206.513 150.259L206.513 150.259C206.163 149.005 205.885 148.007 205.834 147.439C205.707 145.783 205.409 129.625 205.409 129.625C205.409 129.625 205.876 128.096 205.983 126.44C206.005 126.149 206.045 125.752 206.093 125.27V125.27C206.324 122.97 206.747 118.749 206.344 115.08L187.064 118.307L187.128 119.53L172.774 117.607L170.184 129.901C170.184 129.901 170.481 163.491 170.396 164.149C170.311 164.807 171.903 186.04 171.903 186.04L171.712 193.089C171.712 193.089 171.819 194.533 172.264 195.573C172.297 195.644 172.331 195.72 172.366 195.8L172.366 195.8C172.841 196.864 173.631 198.636 176.001 199.268C178.549 199.947 181.777 198.737 181.777 198.737C181.777 198.737 182.541 197.952 182.584 196.55C182.626 195.17 183.666 176.676 184.155 171.05C184.605 166.078 183.978 161.919 183.811 160.813C183.789 160.667 183.775 160.574 183.773 160.539C183.773 160.242 185.025 149.053 185.768 146.844C186.422 144.937 188.678 137.385 189.315 135.246L189.973 137.268L193.689 150.709L196.81 166.293L197.298 181.029C197.129 180.88 195.621 186.741 197.596 188.8C197.687 188.892 197.793 189.012 197.917 189.152L197.917 189.152C198.165 189.433 198.487 189.797 198.912 190.18C199.655 190.838 200.696 191.539 202.182 191.943C204.963 192.728 208.085 191.433 208.233 190.584C208.341 189.97 208.481 184.9 208.607 180.364Z" fill="black"/>
<path d="M218.592 84.0157C218.592 84.0581 218.592 84.1006 218.592 84.1431C218.507 85.6931 217.424 87.8164 215.598 88.602C213.708 89.4088 206.298 88.8355 206.298 88.8355L205.555 74.6733L214.048 73.5267L216.957 73.1445C217.636 76.3931 218.634 82.4657 218.592 84.0157Z" fill="white"/>
<path d="M218.592 84.1437C218.507 85.6937 217.424 87.817 215.598 88.6026C213.708 89.4094 206.298 88.8361 206.298 88.8361L205.555 74.6739L214.048 73.5273C214.303 74.2493 214.494 74.9711 214.43 75.7568C214.366 76.691 213.899 78.3259 214.196 79.2177C214.069 81.2348 213.963 83.2732 214.175 85.2903C214.218 85.63 214.281 86.0122 214.536 86.2457C214.727 86.3944 214.961 86.4368 215.194 86.4581C216.49 86.5642 217.806 85.8211 218.358 84.6533C218.443 84.5259 218.507 84.3348 218.592 84.1437Z" fill="white"/>
<path d="M208.761 55.1191C210.587 55.5226 213.008 58.304 214.346 61.6164C215.683 64.9287 218.274 73.4005 218.252 73.7402C218.231 74.08 218.995 78.3265 211.861 79.0697C204.727 79.834 208.761 55.1191 208.761 55.1191Z" fill="#EB4869"/>
<path d="M213.926 69.7272C213.586 72.0204 213.034 83.7621 213.034 83.7621L208.342 105.122C209 109.645 209.021 115.654 204.945 118.647C202.567 120.389 199.573 121.026 196.664 121.514C194.668 121.854 192.672 122.151 190.676 122.427C185.708 123.085 178.786 123.956 174.391 120.856C172.182 119.306 171.758 117.777 171.758 117.777L174.518 105.441L175.75 96.8202C175.75 96.8202 175.41 89.3038 175.155 81.7025C174.9 74.2711 174.709 66.7547 174.964 66.1814C175.474 64.9923 182.31 62.2321 182.31 62.2321C182.31 62.2321 185.984 59.2807 186.6 58.8773C187.215 58.4527 197.492 54.2698 199.191 54.4184C200.91 54.5671 205.242 54.1 206.091 54.2274C206.94 54.3548 209.764 54.8219 211.782 58.1554C213.841 61.489 214.266 67.4341 213.926 69.7272Z" fill="#EB4869"/>
<path d="M170.714 101.13C170.565 101.788 170.247 102.425 169.759 103.041C168.739 103.232 166.998 102.383 165.915 101.703C165.894 101.703 165.894 101.682 165.894 101.682C165.746 101.576 165.597 101.491 165.47 101.406C164.493 100.705 159.928 96.3739 159.418 95.5671C158.909 94.7602 154.365 88.5603 153.983 88.1993C153.6 87.8383 148.908 86.3096 148.505 86.0973C148.101 85.8849 145.808 84.3774 145.808 84.3774L143.918 83.3158C143.918 83.3158 142.114 81.2137 141.965 80.8103C141.859 80.4706 141.88 80.1096 142.411 80.1308C142.602 80.1308 142.963 80.322 143.345 80.5767C144.131 81.0651 145.044 81.787 145.044 81.787C145.044 81.787 144.555 79.9398 144.555 79.8761C144.555 79.8548 144.598 79.8124 144.704 79.7487C145.107 79.4302 146.275 78.6658 146.551 78.9418C146.87 79.3028 146.87 80.7466 146.87 80.7466L146.955 81.1076L147.125 81.787L148.314 82.9124L148.781 82.8274L148.483 81.8507L147.995 80.2795C147.995 80.2795 148.059 79.0692 148.674 79.1117C149.29 79.1542 149.736 80.0035 149.736 80.0035L149.864 81.4685L150.861 83.2096L151.838 82.3603C151.838 82.3603 152.348 79.7274 152.539 79.6213C152.709 79.4939 153.473 79.1966 153.685 80.3432C153.898 81.4898 153.792 82.3815 153.792 82.3815C153.792 82.3815 154.068 82.4665 154.429 82.6363C154.747 82.785 155.172 83.0185 155.511 83.3582C156.255 84.0377 157.337 85.1205 157.996 85.6726C158.633 86.2246 162.306 89.4096 162.306 89.4096L166.701 92.276L166.744 92.3185C166.744 92.3185 167.635 93.1465 168.591 94.4205C169.865 96.1191 171.309 98.6883 170.714 101.13Z" fill="white"/>
<path d="M178.209 90.322C177.89 92.2966 174.26 98.8363 173.792 99.7493C173.325 100.662 171.011 102.977 169.376 103.253C167.847 103.508 166.106 101.915 165.915 101.724C165.894 101.724 165.894 101.703 165.894 101.703C165.894 101.703 165.724 101.129 165.533 100.386C165.342 99.6219 165.172 98.6664 165.193 98.0295C165.236 96.7767 165.682 94.9719 165.682 94.9719L166.658 92.2542L166.701 92.148C166.701 92.148 167.677 88.6446 168.229 87.6891C168.272 87.6254 168.293 87.583 168.336 87.5405C168.845 86.9035 178.527 88.3261 178.209 90.322Z" fill="white"/>
<path d="M143.344 80.5976C144.129 81.086 145.042 81.8079 145.042 81.8079C145.042 81.8079 144.554 79.9607 144.554 79.897C144.554 79.8757 144.596 79.8332 144.703 79.7695C144.703 79.7695 144.724 79.7696 144.724 79.7908C145.064 80.0243 145.382 80.2367 145.701 80.4702C145.998 80.6825 146.21 80.9161 146.55 81.001C146.677 81.0435 146.826 81.086 146.953 81.1284C147.484 81.2983 147.994 81.5531 148.461 81.8504C148.503 81.8716 148.525 81.8928 148.567 81.9141C149.501 82.5298 150.266 83.3791 150.988 84.2496C151.157 84.462 151.327 84.6743 151.476 84.8866C151.37 84.9503 151.221 84.8866 151.115 84.8229C149.31 83.9099 147.505 83.0394 145.679 82.1688C145.021 81.8716 144.363 81.5531 143.832 81.0647C143.641 80.9161 143.492 80.7462 143.344 80.5976Z" fill="white"/>
<path d="M178.209 90.3221C177.891 92.2967 174.26 98.8364 173.793 99.7494C173.326 100.662 171.011 102.977 169.376 103.253C167.848 103.508 166.106 101.915 165.915 101.724C165.894 101.724 165.894 101.703 165.894 101.703C165.746 101.597 165.597 101.512 165.469 101.427C164.493 100.726 159.928 96.3947 159.418 95.5878C158.909 94.781 154.365 88.581 153.983 88.2201C153.6 87.8591 148.908 86.3303 148.505 86.118C148.101 85.9057 145.808 84.3982 145.808 84.3982L143.918 83.3365C143.918 83.3365 142.113 81.2345 141.965 80.8311C142.389 81.3619 142.92 81.8078 143.345 82.3598C143.515 82.5721 143.621 82.8907 143.812 83.0818C143.982 83.2516 144.258 83.4002 144.47 83.5064C144.98 83.8037 145.532 84.0372 146.042 84.3132C146.933 84.7803 147.719 85.3961 148.568 85.9269C149.46 86.479 150.415 86.6913 151.413 86.9461C152.751 87.2858 154.195 87.5831 155.087 88.7084C155.787 89.6002 156.361 90.5557 157.061 91.4474C157.847 92.4241 158.569 93.4433 159.27 94.4837C159.737 95.1632 160.31 95.6728 160.904 96.246C161.244 96.5858 161.605 96.9255 161.945 97.2652C162.115 97.4351 162.794 97.9022 162.837 98.1358C163.346 98.6241 163.835 99.1125 164.387 99.5583C164.748 99.8556 165.172 100.089 165.554 100.344C165.809 100.514 166.085 100.705 166.298 100.917C166.828 101.406 167.529 101.915 168.293 101.958C168.782 101.979 169.27 101.788 169.716 101.597C170.056 101.448 170.395 101.278 170.735 101.087C171.202 100.832 171.627 100.535 172.009 100.153C172.561 99.622 172.986 98.9638 173.368 98.3056C174.451 96.5221 175.428 94.6748 176.298 92.7639C173.75 91.9358 171.181 91.2139 169.143 89.4303C168.591 88.9632 168.081 88.2838 168.251 87.6256C168.293 87.5619 168.315 87.5194 168.357 87.4769C168.845 86.9036 178.528 88.3262 178.209 90.3221Z" fill="white"/>
<path d="M200.271 56.2016C200.165 56.5413 199.825 56.7749 199.506 56.9447C197.468 58.0276 195.239 58.7708 192.945 59.1317C191.884 59.3016 190.695 59.4927 189.633 59.344C189.209 59.2803 188.274 58.8557 187.85 58.9618H187.743C187.446 58.9406 186.788 58.8557 186.788 58.8557C186.682 58.0064 186.554 52.7619 186.172 52.1461C185.79 51.5304 184.75 51.0633 184.75 51.0633C184.75 51.0633 183.73 50.6598 182.881 50.0866C182.626 49.9167 182.435 49.5982 182.265 49.2372C181.883 48.3879 181.735 47.3051 181.735 47.3051L181.119 40.8079C181.119 40.8079 180.546 33.1641 181.416 32.3148C182.287 31.4655 197.51 30.0429 198.53 35.2236C199.549 40.3832 197.914 48.3879 198.041 49.577C198.147 50.5325 198.445 51.5092 198.678 52.4434C198.806 52.9105 198.933 53.3776 199.06 53.8448C199.23 54.4393 199.506 54.8002 199.91 55.2886C200.101 55.5222 200.292 55.7769 200.292 56.0742C200.292 56.0954 200.271 56.1591 200.271 56.2016Z" fill="white"/>
<path d="M187.592 46.3919C189.035 47.581 190.5 49.8953 190.5 49.8953L191.965 50.9145C191.965 50.9145 195.405 50.957 196.233 50.5323C197.061 50.1076 197.826 49.322 197.826 49.322L198.781 48.2392C198.781 48.2392 200.522 46.7317 201.011 45.3515C201.478 43.9714 203.346 39.4701 202.922 36.3064C202.497 33.1427 201.541 32.0174 200.713 31.4441C199.864 30.8708 200.161 28.3441 195.108 26.9215C190.033 25.4989 187.889 26.3058 184.895 28.0256C181.901 29.7667 180.924 30.5948 180.946 32.4845C180.967 34.3742 181.455 38.1749 181.753 38.5146C182.029 38.8543 182.241 40.4043 182.241 40.4043L182.432 42.5276L183.239 43.1008C183.239 43.1008 183.621 41.6783 184.449 42.6125C185.256 43.5892 187.592 46.3919 187.592 46.3919Z" fill="#383838"/>
<path d="M184.877 47.0505C184.389 47.4963 184.049 46.5196 184.049 46.5196C184.049 46.5196 183.88 44.4176 183.603 43.6957C183.306 42.9738 182.988 41.5087 183.221 41.3176C183.455 41.1478 184.601 42.2943 185.026 43.356C185.451 44.3751 185.557 46.3922 184.877 47.0505Z" fill="white"/>
<path d="M147.464 81.9777C147.061 81.6168 146.657 81.2558 146.233 80.9373C145.851 80.6613 145.426 80.4702 145.023 80.2154C144.683 80.0031 144.364 79.7271 144.216 79.3661C143.982 78.7504 144.386 78.262 144.98 78.1558C145.277 78.1134 145.532 78.2408 145.808 78.3469C146.19 78.4956 146.594 78.6442 146.976 78.7928C147.146 78.8565 147.316 78.9415 147.464 79.0264C147.804 79.2175 148.038 79.4935 148.335 79.7271C148.632 79.9606 149.036 80.0668 149.397 80.1942C149.864 80.3641 150.331 80.5339 150.798 80.7038C151.18 80.8524 151.477 81.0223 151.838 81.2134C152.645 81.6593 153.409 82.1264 154.089 82.7633C154.259 82.9332 154.429 83.1031 154.556 83.3154C154.747 83.6551 154.747 84.0798 154.599 84.4407C154.195 85.2901 153.346 85.4599 152.496 85.375C152.22 85.3537 152.051 85.2264 151.817 85.099C151.223 84.8017 150.649 84.462 150.097 84.1222C149.099 83.5702 148.292 82.7421 147.464 81.9777Z" fill="white"/>
<path d="M168.571 94.3782C168.571 94.5268 168.528 94.6542 168.401 94.6966C166.872 93.0405 165.131 91.5754 163.22 90.3864C162.413 89.8768 161.585 89.2823 160.863 88.6453C160.523 88.3481 160.226 87.9234 159.844 87.6686C159.441 87.3926 158.973 87.2227 158.591 86.9042C157.784 86.2672 157.211 85.3967 156.553 84.6111C155.916 83.8679 155.215 83.1885 154.43 82.6152C154.748 82.7639 155.173 82.9974 155.513 83.3371C156.256 84.0166 157.339 85.0994 157.997 85.6515C158.634 86.2036 162.307 89.3885 162.307 89.3885L166.702 92.2549L166.745 92.2974C166.702 92.2761 167.615 93.1042 168.571 94.3782Z" fill="white"/>
<path d="M187.744 58.9404C187.446 58.9192 186.788 58.8342 186.788 58.8342C186.682 57.9849 186.555 52.7404 186.172 52.1247C185.79 51.5089 184.75 51.0418 184.75 51.0418C184.75 51.0418 183.731 50.6384 182.881 50.0651C182.627 49.8953 182.435 49.5768 182.266 49.2158C182.351 49.2371 182.414 49.2583 182.499 49.2795C182.69 49.3432 182.881 49.3857 183.051 49.4918C183.179 49.5555 183.285 49.6405 183.391 49.6829C183.752 49.9165 184.134 50.0439 184.538 50.1713C184.686 50.235 184.835 50.2774 184.983 50.235C185.175 50.2137 185.259 50.0227 185.451 50.1076C185.896 50.2775 186.024 50.6384 186.194 51.0631C186.576 52.1035 186.767 53.1863 186.958 54.2692C187.043 54.7363 187.128 55.2035 187.192 55.6706C187.255 56.1377 187.277 56.6048 187.34 57.0719C187.446 57.7089 187.553 58.3459 187.744 58.9404Z" fill="white"/>
<path d="M175.001 66.2025C176.827 65.5868 180.692 66.3724 182.624 70.6402C184.556 74.908 182.73 80.3436 182.751 81.384C182.772 82.4244 179.035 91.2996 178.505 91.7455C177.974 92.1914 172.984 91.6181 170.946 90.4503C168.907 89.2825 166.805 88.2846 166.657 87.9661C166.508 87.6476 170.181 78.0079 170.181 78.0079C170.181 78.0079 172.198 69.4512 172.963 68.4957C173.748 67.519 175.001 66.2025 175.001 66.2025Z" fill="#EB4869"/>
<path opacity="0.5608" d="M124.462 54.5068C124.462 55.4725 124.516 56.4381 124.65 57.3769L124.516 103.646C124.382 102.681 124.328 101.715 124.328 100.776L124.462 54.5068Z" fill="#A5FFFF"/>
<path opacity="0.5608" d="M124.299 114.778C124.272 124.488 130.683 134.225 143.531 141.655C148.601 144.579 154.314 146.939 160.376 148.709L160.296 173.601C154.207 171.831 148.52 169.497 143.451 166.546C130.603 159.117 124.192 149.38 124.219 139.67L124.299 114.778Z" fill="url(#paint7_linear_692_44869)"/>
<path opacity="0.5608" d="M182.611 112.499C201.601 113.706 221.289 110.085 235.774 101.662C248.38 94.3395 254.684 84.7369 254.711 75.1611L254.576 125.749C254.55 135.352 248.246 144.927 235.64 152.25C221.128 160.673 201.44 164.294 182.477 163.087L182.611 112.499Z" fill="url(#paint8_linear_692_44869)"/>
<defs>
<linearGradient id="paint0_linear_692_44869" x1="189.803" y1="37.0313" x2="189.803" y2="265.95" gradientUnits="userSpaceOnUse">
<stop stop-color="#245795"/>
<stop offset="1" stop-color="#8AD3A8"/>
</linearGradient>
<linearGradient id="paint1_linear_692_44869" x1="-102.391" y1="74.2602" x2="43.4865" y2="319.51" gradientUnits="userSpaceOnUse">
<stop stop-color="#245795"/>
<stop offset="1" stop-color="#8AD3A8"/>
</linearGradient>
<linearGradient id="paint2_linear_692_44869" x1="-42.5949" y1="5.25628" x2="384.162" y2="355.559" gradientUnits="userSpaceOnUse">
<stop stop-color="#245795"/>
<stop stop-color="#2C6096"/>
<stop offset="1" stop-color="#8AD3A8"/>
</linearGradient>
<linearGradient id="paint3_linear_692_44869" x1="187.698" y1="214.316" x2="190.425" y2="14.2768" gradientUnits="userSpaceOnUse">
<stop stop-color="#E2F9EE"/>
<stop offset="0.9627" stop-color="#C8ECDB" stop-opacity="0"/>
</linearGradient>
<linearGradient id="paint4_linear_692_44869" x1="250.283" y1="118.984" x2="254.783" y2="60.8414" gradientUnits="userSpaceOnUse">
<stop stop-color="#C8ECDB"/>
<stop offset="0.9627" stop-color="#C8ECDB" stop-opacity="0"/>
</linearGradient>
<linearGradient id="paint5_linear_692_44869" x1="164.049" y1="92.6081" x2="164.757" y2="21.9896" gradientUnits="userSpaceOnUse">
<stop stop-color="#C8ECDB"/>
<stop offset="0.9627" stop-color="#C8ECDB" stop-opacity="0"/>
</linearGradient>
<linearGradient id="paint6_linear_692_44869" x1="142.802" y1="133.914" x2="143.553" y2="84.1578" gradientUnits="userSpaceOnUse">
<stop stop-color="#C8ECDB"/>
<stop offset="0.9627" stop-color="#C8ECDB" stop-opacity="0"/>
</linearGradient>
<linearGradient id="paint7_linear_692_44869" x1="141.884" y1="167.87" x2="142.668" y2="118.318" gradientUnits="userSpaceOnUse">
<stop stop-color="#C8ECDB"/>
<stop offset="0.9627" stop-color="#C8ECDB" stop-opacity="0"/>
</linearGradient>
<linearGradient id="paint8_linear_692_44869" x1="217.768" y1="154.724" x2="218.649" y2="80.4579" gradientUnits="userSpaceOnUse">
<stop stop-color="#C8ECDB"/>
<stop offset="0.9627" stop-color="#C8ECDB" stop-opacity="0"/>
</linearGradient>
</defs>
</svg>
