<svg width="355" height="301" viewBox="0 0 355 301" fill="none" xmlns="http://www.w3.org/2000/svg">
<path d="M30.7925 210.168C28.3012 208.634 26.6098 206.359 25.725 203.824L24.9922 187.744L77.5852 184.921L354.05 188.026L354.05 199.516C354.05 203.584 352.162 207.643 348.382 209.963L298.033 240.897L256.918 266.158L210.908 294.426C197.61 302.598 181.225 302.598 167.928 294.426L128.523 270.216L74.5189 236.993V237.036L74.4853 237.012L34.4434 212.41L30.7925 210.168Z" fill="#D4F2E4"/>
<path d="M30.7925 210.168C28.3012 208.634 26.6098 206.359 25.725 203.824L24.9922 187.744L77.5852 184.921L354.05 188.026L354.05 199.516C354.05 203.584 352.162 207.643 348.382 209.963L298.033 240.897L256.918 266.158L210.908 294.426C197.61 302.598 181.225 302.598 167.928 294.426L128.523 270.216L74.5189 236.993V237.036L74.4853 237.012L34.4434 212.41L30.7925 210.168Z" fill="url(#paint0_linear_692_45007)" fill-opacity="0.15"/>
<path d="M210.905 89.6856L349.072 174.15C352.869 176.469 354.765 180.532 354.767 184.595C354.767 188.661 352.871 192.717 349.074 195.036L298.506 225.948L257.214 251.192L211.004 279.441C197.648 287.607 181.192 287.607 167.838 279.441L128.262 255.248L74.0229 222.047V222.09L73.9892 222.066L33.7736 197.481L30.1068 195.24C27.6047 193.707 25.906 191.434 25.0173 188.901C24.5281 187.508 24.2813 186.035 24.2813 184.562C24.2768 180.406 26.2179 176.248 30.1023 173.872L167.728 89.6928C181.087 81.5215 197.544 81.5191 210.905 89.6856Z" fill="#F0FAF6"/>
<path d="M69.8892 74.7969L69.8892 87.1016C69.8892 92.4401 69.3958 97.3311 68.4092 101.774C67.4225 106.185 65.9988 110.165 64.1382 113.713C62.3058 117.212 60.121 120.28 57.5838 122.917C55.0467 125.554 52.2276 127.767 49.1266 129.558C46.6458 130.99 44.3341 131.966 42.1916 132.487C40.0491 132.976 38.118 132.935 36.3984 132.365C34.7069 131.779 33.241 130.656 32.0006 128.996C30.7884 127.287 29.8581 124.96 29.2097 122.014C28.5613 119.068 28.2371 115.446 28.2371 111.149L28.2371 98.8447C28.2371 93.5062 28.7304 88.6478 29.7171 84.2695C30.732 79.8424 32.1556 75.8792 33.988 72.3799C35.8486 68.8643 38.0475 65.8044 40.5847 63.2002C43.1219 60.5635 45.941 58.3499 49.042 56.5596C51.5228 55.1273 53.8204 54.1751 55.9347 53.7031C58.0772 53.1823 60.0083 53.1904 61.7279 53.7275C63.4476 54.2646 64.9135 55.3877 66.1257 57.0967C67.3379 58.7731 68.2682 61.0843 68.9166 64.0303C69.565 66.9437 69.8892 70.5326 69.8892 74.7969ZM57.6684 96.0127L57.6684 79.9482C57.6684 77.3766 57.5416 75.2038 57.2878 73.4297C57.0623 71.6393 56.7099 70.2152 56.2307 69.1572C55.7514 68.0667 55.1594 67.3018 54.4546 66.8623C53.7499 66.4229 52.9464 66.2682 52.0443 66.3984C51.1422 66.5286 50.1414 66.9111 49.042 67.5459C47.6606 68.3434 46.4343 69.3607 45.3631 70.5977C44.32 71.8184 43.432 73.3239 42.699 75.1143C41.9661 76.8721 41.4022 78.988 41.0076 81.4619C40.6411 83.887 40.4579 86.6947 40.4579 89.8848L40.4579 105.949C40.4579 108.521 40.5706 110.718 40.7961 112.541C41.0499 114.348 41.4163 115.812 41.8956 116.936C42.403 118.01 42.995 118.791 43.6716 119.279C44.3764 119.719 45.1798 119.873 46.0819 119.743C47.0122 119.597 48.0271 119.206 49.1266 118.571C50.4797 117.79 51.6778 116.789 52.7209 115.568C53.7922 114.299 54.6943 112.769 55.4272 110.979C56.1884 109.139 56.7522 106.991 57.1187 104.533C57.4852 102.076 57.6684 99.2354 57.6684 96.0127ZM121.309 60.3438L121.309 71.3789L76.951 96.9893L76.359 88.7861L102.027 26.9453L111.71 21.3545L101.223 47.6729L88.4529 79.3135L121.309 60.3438ZM114.332 19.8408L114.332 90.9346L102.154 97.9658L102.154 26.8721L114.332 19.8408Z" fill="url(#paint1_linear_692_45007)" fill-opacity="0.15"/>
<g opacity="0.05" filter="url(#filter0_f_692_45007)">
<path d="M55.7705 192.407C53.1032 193.947 53.1032 197.797 55.7706 199.336L150.301 253.894C151.539 254.608 153.063 254.608 154.301 253.893L212.016 220.569C214.682 219.029 214.682 215.18 212.015 213.641L117.506 159.083C116.268 158.369 114.744 158.369 113.507 159.083L55.7705 192.407Z" fill="#E3E3E3"/>
<path d="M55.7705 192.407C53.1032 193.947 53.1032 197.797 55.7706 199.336L150.301 253.894C151.539 254.608 153.063 254.608 154.301 253.893L212.016 220.569C214.682 219.029 214.682 215.18 212.015 213.641L117.506 159.083C116.268 158.369 114.744 158.369 113.507 159.083L55.7705 192.407Z" fill="#2C835A"/>
</g>
<path d="M160.424 98.4111C160.173 100.831 159.991 108.344 160.424 112.796C160.858 117.249 161.452 133.917 163.416 138.53C165.379 143.142 175.129 139.9 176.157 138.53C177.184 137.16 177.344 106.745 176.157 104.416C174.969 102.11 160.424 98.4111 160.424 98.4111Z" fill="black"/>
<path d="M168.118 107.932C168.118 107.932 167.182 114.234 168.803 115.97C170.424 117.682 174.534 118.961 174.534 118.961C174.534 118.961 177.091 140.607 177.959 143.256C178.804 145.904 183.85 146.841 186.682 146.247C189.513 145.653 190.107 140.173 190.107 139.831C190.107 139.488 191.294 119.806 191.636 115.193C192.253 106.791 190.175 102.704 189.833 102.361C189.49 102.018 168.118 107.932 168.118 107.932Z" fill="black"/>
<path d="M162.912 137C163.323 140.242 164.693 165.039 166.154 167.368C167.616 169.675 170.675 169.241 172.228 168.738C173.781 168.236 175.904 166.523 175.904 166.523C175.904 166.523 176.498 141.886 175.904 137.525C175.31 133.164 162.912 137 162.912 137Z" fill="black"/>
<path d="M177.619 141.749C177.87 145.631 178.121 170.086 178.897 172.232C179.674 174.378 186.775 174.881 187.871 172.232C188.99 169.583 191.113 150.266 191.113 146.407C191.113 142.549 189.058 136.909 188.967 136.566C188.898 136.246 177.619 141.749 177.619 141.749Z" fill="black"/>
<path d="M142.727 68.8184C142.385 70.7592 140.969 77.9289 140.17 79.5273C139.371 81.1256 136.859 85.6238 136.517 86.9938C136.174 88.3638 136.631 90.5787 138.686 92.4054C140.741 94.232 141.586 93.4785 141.997 93.2045C142.385 92.9305 150.103 81.8563 150.148 79.4131C150.194 76.9699 142.727 68.8184 142.727 68.8184Z" fill="white"/>
<path d="M146.996 63.1328C145.032 63.7265 143.959 64.6627 142.749 67.8365C141.539 71.0104 139.187 79.2304 139.278 81.2398C139.392 83.2491 142.635 84.4365 144.941 84.094C147.247 83.7515 149.896 82.587 151.015 81.2398C152.133 79.8926 151.951 66.6492 151.859 66.398C151.791 66.124 146.996 63.1328 146.996 63.1328Z" fill="#EB4869"/>
<path d="M149.348 62.4478C149.006 62.9045 147.704 63.3383 147.111 67.5169C146.517 71.6954 147.59 76.9928 150.65 84.1397C151.974 87.245 157.728 97.0406 158.527 100.351C159.327 103.662 160.171 106.425 160.171 106.425C160.171 106.425 162.523 110.284 168.78 112.111C175.63 114.143 182.64 113.458 186.453 110.672C190.266 107.887 191.02 103.936 191.02 103.936C191.02 103.936 186.932 91.4464 185.745 87.5647C183.941 81.6051 181.795 70.0514 180.699 67.494C179.626 64.9367 171.725 60.8723 169.328 59.3653C166.907 57.8812 161.039 55.5521 157.294 56.3741C154.828 56.9222 157.043 57.7213 156.746 57.7213C156.45 57.7213 149.348 62.4478 149.348 62.4478Z" fill="#EB4869"/>
<path d="M155.718 66.5355C155.718 66.5355 158.96 68.4078 159.6 69.2755C160.216 70.1203 163.367 70.0746 164.669 69.2755C165.97 68.4763 168.139 62.7679 167.751 60.8956C167.363 59.0232 166.724 58.3839 165.011 57.8815C163.299 57.3792 160.741 54.7534 158.915 54.114C157.088 53.4975 151.722 53.6574 150.763 56.5116C149.781 59.3429 155.718 66.5355 155.718 66.5355Z" fill="white"/>
<path d="M158.004 58.27C158.004 58.27 160.721 64.4807 160.675 65.4625C160.63 66.4215 157.593 70.6457 156.405 71.2166C155.218 71.7874 153.779 71.7189 153.323 71.6047C152.866 71.4906 148.87 69.8922 148.87 69.8922L143.436 64.1382C143.436 64.1382 141.061 61.2383 141.13 58.6581C141.198 56.1008 145.628 54.1371 148.779 53.7946C151.907 53.4749 158.004 58.27 158.004 58.27Z" fill="white"/>
<path d="M152.247 61.9231C152.749 62.1514 153.274 62.2656 153.822 62.1971C154.895 62.0829 155.786 62.6766 156.745 62.9963C157.727 63.316 158.115 62.494 158.389 61.6948C158.48 61.4436 158.594 61.1696 158.572 60.9184C158.572 60.6444 158.412 60.3933 158.457 60.0964C158.526 59.4571 160.672 59.3429 160.672 59.3429C160.672 59.3429 160.649 61.3294 162.682 60.7358C163.367 60.5303 164.508 58.2926 164.577 58.0642C164.622 57.8359 163.549 55.2557 163.07 53.4062C162.111 49.5702 160.307 42.9713 151.493 44.1358C146.721 43.8847 142.542 44.798 140.259 48.9993C137.976 53.2235 138.569 57.1509 139.072 58.7949C139.391 59.8224 139.802 60.5759 140.693 61.1925C141.515 61.7405 142.52 61.9916 143.479 62.1743C144.666 62.4254 145.899 62.6081 147.109 62.4939C147.2 62.4939 147.292 62.4711 147.406 62.4483C148.502 62.2884 149.507 61.9459 150.534 61.6034C151.036 61.4436 151.767 61.7176 152.247 61.9231Z" fill="#383838"/>
<path d="M159.831 62.654C160.813 62.517 160.836 60.325 160.676 58.9778C160.539 57.6306 159.854 56.9227 159.329 57.0597C158.826 57.1967 158.027 57.6306 158.118 58.5211C158.233 59.4345 159.032 62.7681 159.831 62.654Z" fill="white"/>
<path d="M166.749 165.815C166.657 167.003 166.018 168.555 165.63 169.332C165.242 170.108 157.341 174.332 156.702 175.223C156.063 176.113 156.36 177.917 156.36 177.917C156.36 177.917 157.433 180.703 158.871 180.908C160.333 181.114 164.465 179.059 165.379 178.168C166.269 177.278 174.238 173.51 174.877 171.843C175.517 170.176 174.535 167.094 174.535 166.843C174.535 166.592 174.101 162.002 174.101 161.888C174.101 161.751 171.452 161.34 171.452 161.34L166.749 165.815Z" fill="#ADADAD"/>
<path d="M181.249 167.118C180.472 167.894 180.016 167.962 179.924 169.721C179.833 171.479 179.491 175.406 179.331 175.749C179.171 176.091 173.6 183.284 173.303 184.288C173.006 185.316 173.6 187.485 173.6 187.485C173.6 187.485 178.44 188.901 180.998 187.736C183.555 186.572 185.496 184.06 185.564 182.896C185.656 181.731 187.368 178.215 187.87 177.621C188.373 177.027 187.87 173.694 187.87 173.694C187.87 173.694 187.026 171.136 186.98 170.657C186.934 170.177 187.482 167.369 187.322 167.072C187.163 166.798 181.249 167.118 181.249 167.118Z" fill="#ADADAD"/>
<path d="M157.257 242.853C154.59 244.392 151.257 242.468 151.257 239.389V195.17L204.961 164.162V213C204.961 214.429 204.199 215.749 202.961 216.464L157.257 242.853Z" fill="#C8ECDB"/>
<g opacity="0.1" filter="url(#filter1_f_692_45007)">
<path d="M151.257 202.089V195.17L204.961 164.162V171.081L151.257 202.089Z" fill="#2E2E2E"/>
<path d="M151.257 202.089V195.17L204.961 164.162V171.081L151.257 202.089Z" fill="#2C835A"/>
</g>
<path d="M145.258 242.854C147.925 244.394 151.258 242.469 151.258 239.39V195.171L62.8465 144.138V192.975C62.8465 194.404 63.6091 195.725 64.8468 196.439L145.258 242.854Z" fill="#C8ECDB"/>
<g opacity="0.1" filter="url(#filter2_f_692_45007)">
<path d="M151.258 202.089V195.171L62.8465 144.138V151.056L151.258 202.089Z" fill="#2E2E2E"/>
<path d="M151.258 202.089V195.171L62.8465 144.138V151.056L151.258 202.089Z" fill="#2C835A"/>
</g>
<path d="M56.4824 139.811C56.4824 141.226 57.2299 142.535 58.4481 143.255L149.76 197.192C151.032 197.943 152.614 197.933 153.875 197.165L208.277 164.035V151.271L56.4824 128.272V139.811Z" fill="#D9DFF7"/>
<path d="M56.4824 139.811C56.4824 141.226 57.2299 142.535 58.4481 143.255L149.76 197.192C151.032 197.943 152.614 197.933 153.875 197.165L208.277 164.035V151.271L56.4824 128.272V139.811Z" fill="#D4F2E4"/>
<path d="M57.9295 124.529C55.263 126.069 55.2636 129.918 57.9305 131.457L149.827 184.495C151.064 185.209 152.589 185.209 153.826 184.494L209.853 152.145C212.519 150.605 212.519 146.757 209.853 145.217L117.978 92.1592C116.74 91.4443 115.215 91.4443 113.977 92.1592L57.9295 124.529Z" fill="#E8ECFF"/>
<path d="M57.9295 124.529C55.263 126.069 55.2636 129.918 57.9305 131.457L149.827 184.495C151.064 185.209 152.589 185.209 153.826 184.494L209.853 152.145C212.519 150.605 212.519 146.757 209.853 145.217L117.978 92.1592C116.74 91.4443 115.215 91.4443 113.977 92.1592L57.9295 124.529Z" fill="#F0FAF6"/>
<path d="M157.818 194.969C155.152 196.501 151.825 194.576 151.825 191.501V185.649L211 148.309V162.087C211 163.519 210.235 164.842 208.993 165.555L157.818 194.969Z" fill="#D9DFF7"/>
<path d="M157.818 194.969C155.152 196.501 151.825 194.576 151.825 191.501V185.649L211 148.309V162.087C211 163.519 210.235 164.842 208.993 165.555L157.818 194.969Z" fill="#D4F2E4"/>
<path d="M68.1876 129.068L149.954 176.264L199.617 147.586L117.85 100.389L68.1876 129.068Z" fill="#383838" fill-opacity="0.1"/>
<path d="M74.1007 129.227L149.68 172.839L193.68 147.448L118.124 103.813L74.1007 129.227Z" fill="#C8ECDB"/>
<path d="M118.124 103.813L134.176 113.084L124.905 118.427L127.531 149.732L118.58 154.892L84.9924 135.506L107.735 122.377L96.843 116.098L118.124 103.813Z" fill="#C8ECDB"/>
<path d="M134.472 164.071L149.68 172.839L193.68 147.448L178.473 138.657L134.472 164.071Z" fill="#C8ECDB"/>
<g opacity="0.15">
<path d="M169.477 149.754L176.053 153.545C176.51 153.819 177.218 153.841 177.606 153.613L184.456 149.663C184.844 149.435 184.799 149.024 184.342 148.772L177.766 144.982C177.309 144.708 176.601 144.685 176.213 144.913L169.363 148.864C168.952 149.092 169.021 149.503 169.477 149.754Z" fill="#3877FF"/>
<path d="M169.477 149.754L176.053 153.545C176.51 153.819 177.218 153.841 177.606 153.613L184.456 149.663C184.844 149.435 184.799 149.024 184.342 148.772L177.766 144.982C177.309 144.708 176.601 144.685 176.213 144.913L169.363 148.864C168.952 149.092 169.021 149.503 169.477 149.754Z" fill="url(#paint2_linear_692_45007)"/>
<path d="M157.446 156.719L164.022 160.509C164.479 160.783 165.187 160.806 165.575 160.578L172.425 156.628C172.813 156.399 172.767 155.988 172.311 155.737L165.735 151.947C165.278 151.673 164.57 151.65 164.182 151.878L157.332 155.829C156.921 156.034 156.99 156.445 157.446 156.719Z" fill="#3877FF"/>
<path d="M157.446 156.719L164.022 160.509C164.479 160.783 165.187 160.806 165.575 160.578L172.425 156.628C172.813 156.399 172.767 155.988 172.311 155.737L165.735 151.947C165.278 151.673 164.57 151.65 164.182 151.878L157.332 155.829C156.921 156.034 156.99 156.445 157.446 156.719Z" fill="url(#paint3_linear_692_45007)"/>
<path d="M145.411 163.66L151.987 167.451C152.444 167.725 153.152 167.748 153.54 167.519L160.39 163.569C160.778 163.341 160.732 162.93 160.276 162.679L153.7 158.888C153.243 158.614 152.535 158.591 152.147 158.82L145.297 162.77C144.909 162.998 144.954 163.386 145.411 163.66Z" fill="#3877FF"/>
<path d="M145.411 163.66L151.987 167.451C152.444 167.725 153.152 167.748 153.54 167.519L160.39 163.569C160.778 163.341 160.732 162.93 160.276 162.679L153.7 158.888C153.243 158.614 152.535 158.591 152.147 158.82L145.297 162.77C144.909 162.998 144.954 163.386 145.411 163.66Z" fill="url(#paint4_linear_692_45007)"/>
</g>
<path d="M142.167 117.696L134.564 122.08L137.167 151.581L124.997 158.591L134.473 164.071L178.473 138.657L142.167 117.696Z" fill="#C8ECDB"/>
<g opacity="0.15">
<path d="M106.808 122.934C106.499 123.112 106.118 123.112 105.809 122.934L96.9187 117.808C96.2516 117.424 96.2513 116.461 96.9182 116.076L117.66 104.102C117.969 103.923 118.35 103.923 118.659 104.102L127.549 109.227C128.216 109.612 128.217 110.574 127.55 110.959L106.808 122.934Z" fill="#294DDB"/>
<path d="M106.808 122.934C106.499 123.112 106.118 123.112 105.809 122.934L96.9187 117.808C96.2516 117.424 96.2513 116.461 96.9182 116.076L117.66 104.102C117.969 103.923 118.35 103.923 118.659 104.102L127.549 109.227C128.216 109.612 128.217 110.574 127.55 110.959L106.808 122.934Z" fill="url(#paint5_linear_692_45007)"/>
<path fill-rule="evenodd" clip-rule="evenodd" d="M117.681 152.637C117.015 153.021 117.014 153.982 117.679 154.368L120.479 155.994C120.789 156.175 121.172 156.175 121.482 155.995L130.455 150.803C130.79 150.61 130.983 150.24 130.951 149.854L130.141 140.205C130.091 139.612 130.567 139.107 131.162 139.122L158.101 139.793C158.285 139.797 158.467 139.751 158.626 139.659L167.91 134.296C168.577 133.911 168.577 132.948 167.909 132.564L165.116 130.954C164.807 130.776 164.426 130.776 164.117 130.954L155.954 135.664C155.795 135.755 155.614 135.802 155.43 135.797L130.615 135.193C130.105 135.18 129.686 134.785 129.643 134.277L128.431 119.837C128.399 119.451 128.592 119.081 128.928 118.887L135.072 115.344C135.74 114.959 135.74 113.996 135.072 113.611L132.28 112.003C131.971 111.824 131.59 111.825 131.281 112.003L122.009 117.357C121.673 117.551 121.48 117.92 121.512 118.306L123.715 144.774C123.782 145.578 122.917 146.126 122.218 145.723L84.3767 123.877C84.0671 123.698 83.6856 123.699 83.3762 123.877L80.5569 125.508C79.8907 125.893 79.891 126.855 80.5575 127.239L119.617 149.788C120.284 150.173 120.284 151.136 119.617 151.521L117.681 152.637Z" fill="#305AFF"/>
<path fill-rule="evenodd" clip-rule="evenodd" d="M117.681 152.637C117.015 153.021 117.014 153.982 117.679 154.368L120.479 155.994C120.789 156.175 121.172 156.175 121.482 155.995L130.455 150.803C130.79 150.61 130.983 150.24 130.951 149.854L130.141 140.205C130.091 139.612 130.567 139.107 131.162 139.122L158.101 139.793C158.285 139.797 158.467 139.751 158.626 139.659L167.91 134.296C168.577 133.911 168.577 132.948 167.909 132.564L165.116 130.954C164.807 130.776 164.426 130.776 164.117 130.954L155.954 135.664C155.795 135.755 155.614 135.802 155.43 135.797L130.615 135.193C130.105 135.18 129.686 134.785 129.643 134.277L128.431 119.837C128.399 119.451 128.592 119.081 128.928 118.887L135.072 115.344C135.74 114.959 135.74 113.996 135.072 113.611L132.28 112.003C131.971 111.824 131.59 111.825 131.281 112.003L122.009 117.357C121.673 117.551 121.48 117.92 121.512 118.306L123.715 144.774C123.782 145.578 122.917 146.126 122.218 145.723L84.3767 123.877C84.0671 123.698 83.6856 123.699 83.3762 123.877L80.5569 125.508C79.8907 125.893 79.891 126.855 80.5575 127.239L119.617 149.788C120.284 150.173 120.284 151.136 119.617 151.521L117.681 152.637Z" fill="url(#paint6_linear_692_45007)"/>
</g>
<path d="M138.341 88.8932C138.341 88.8932 136.401 87.7287 135.944 87.9798C135.487 88.2082 131.263 93.2315 129.733 95.7432C128.203 98.2549 121.856 107.434 121.193 108.165C120.508 108.895 116.33 111.864 115.462 112.252C114.617 112.64 111.489 116.225 111.147 116.864C110.804 117.504 110.85 117.983 110.85 117.983L110.37 119.148C110.37 119.148 110.165 120.038 110.576 120.266C111.01 120.472 112.083 119.627 112.083 119.627C112.083 119.627 112.129 119.878 112.973 119.422C113.818 118.942 119.641 114.238 120.075 114.079C120.508 113.919 121.148 114.421 121.148 114.421L124.345 114.512C124.345 114.512 126.331 110.699 126.628 109.672C126.925 108.644 127.267 108.096 127.404 107.959C127.541 107.822 141.127 96.5881 141.972 93.7339C142.817 90.8569 138.341 88.8932 138.341 88.8932Z" fill="white"/>
<path d="M124.254 110.745C123.523 110.836 122.929 110.654 122.495 111.932C122.062 113.211 121.651 114.01 121.605 114.193C121.559 114.376 118.911 116.979 118.568 118.12C118.226 119.285 118.705 119.49 119.344 119.308C119.984 119.148 123.066 116.134 123.546 115.677C124.025 115.198 125.509 112.138 125.761 111.59C126.012 111.065 124.254 110.745 124.254 110.745Z" fill="white"/>
<path d="M173.85 81.8828C173.85 81.8828 174.284 87.1802 175.472 92.6602C176.659 98.1403 176.499 102.912 178.463 105.15C180.426 107.365 184.788 105.059 185.313 102.41C185.815 99.7615 183.737 84.9197 183.281 83.367C182.824 81.7915 173.85 81.8828 173.85 81.8828Z" fill="white"/>
<path d="M181.821 99.8303C181.821 99.8303 178.806 100.082 177.528 101.885C176.249 103.689 168.029 121.477 168.029 121.477C168.029 121.477 166.636 122.413 166.043 122.664C165.449 122.915 162.526 122.664 162.526 122.664C162.526 122.664 159.489 125.906 159.147 126.979C158.804 128.053 158.508 131.5 158.804 132.277C159.101 133.053 160.129 132.277 160.129 132.277L159.969 134.149L161.499 134.446C161.499 134.446 161.704 134.834 162.184 134.788C162.663 134.743 163.029 134.24 163.029 134.24C163.029 134.24 164.49 134.72 165.084 133.989C165.677 133.259 168.463 129.491 168.463 129.491L170.723 128.167C170.723 128.167 172.573 126.294 173.075 124.399C173.578 122.527 186.273 106.292 185.246 102.593C184.241 98.8942 181.821 99.8303 181.821 99.8303Z" fill="white"/>
<path d="M178.715 67.8178C175.633 66.5163 171.568 68.9595 171.135 73.0695C170.701 77.1795 173.532 88.7105 174.56 89.3955C175.587 90.0805 184.583 87.4546 183.944 85.4453C183.305 83.4131 181.843 69.1422 178.715 67.8178Z" fill="#EB4869"/>
<path d="M142.859 240.76C148.818 246.999 157.04 243.359 160.406 240.76L159.657 235.66C151.574 234.76 136.9 234.52 142.859 240.76Z" fill="#C8ECDB"/>
<g opacity="0.1" filter="url(#filter3_f_692_45007)">
<path d="M314.08 208.166C324.749 202.011 324.979 186.485 314.313 180.323L295.375 169.382C290.425 166.523 284.247 166.566 279.295 169.424V169.424C268.625 175.583 268.393 191.119 279.064 197.276L298.014 208.209C302.962 211.064 309.132 211.021 314.08 208.166V208.166Z" fill="#BBC4FF"/>
<path d="M314.08 208.166C324.749 202.011 324.979 186.485 314.313 180.323L295.375 169.382C290.425 166.523 284.247 166.566 279.295 169.424V169.424C268.625 175.583 268.393 191.119 279.064 197.276L298.014 208.209C302.962 211.064 309.132 211.021 314.08 208.166V208.166Z" fill="#2C835A"/>
</g>
<path d="M279.088 66.5488L320.438 90.4195L305.196 146.691L263.871 122.845L279.088 66.5488Z" fill="#C9EDDB"/>
<path opacity="0.5" d="M264.835 183.395L304.242 206.159V199.202L264.835 176.462V183.395Z" fill="url(#paint7_radial_692_45007)"/>
<path opacity="0.5" d="M327.594 185.73V192.663L304.239 206.159V199.202L327.594 185.73Z" fill="url(#paint8_radial_692_45007)"/>
<path d="M263.874 175.897L305.199 199.768V146.692L263.874 122.846V175.897Z" fill="#C9EDDB"/>
<path d="M328.504 186.32L305.199 199.767V146.691L320.44 90.4189L328.504 85.748V186.32Z" fill="#B6D8C7"/>
<path d="M318.305 91.2805L280.225 69.3027L265.991 121.961L304.071 143.939L318.305 91.2805Z" fill="black" fill-opacity="0.1"/>
<path d="M315.941 92.2639L281.5 72.4004L268.372 120.978L302.789 140.866L315.941 92.2639Z" fill="#305AFF"/>
<path d="M315.941 92.2639L281.5 72.4004L268.372 120.978L302.789 140.866L315.941 92.2639Z" fill="#C8ECDB"/>
<path d="M315.3 94.618C315.678 93.2308 315.073 91.7632 313.828 91.045L285.049 74.4476C283.257 73.4139 280.972 74.3591 280.433 76.3569V76.3569C280.062 77.735 280.663 79.1906 281.899 79.9047L310.663 96.5264C312.461 97.5651 314.755 96.621 315.3 94.618V94.618Z" fill="#BBDCD8"/>
<path d="M283.827 102.103C282.265 101.199 281.501 99.3612 281.963 97.6162L282.915 94.0222C283.589 91.4753 286.499 90.2648 288.781 91.5817L302.647 99.5841C304.211 100.487 304.977 102.325 304.515 104.071L303.562 107.68C302.888 110.229 299.975 111.44 297.692 110.12L283.827 102.103Z" fill="#BBDCD8"/>
<path d="M279.5 118.377C277.937 117.474 277.172 115.635 277.634 113.889L278.586 110.294C279.261 107.748 282.169 106.537 284.451 107.852L298.341 115.859C299.906 116.761 300.672 118.6 300.21 120.346L299.256 123.957C298.583 126.505 295.671 127.717 293.388 126.398L279.5 118.377Z" fill="#BBDCD8"/>
<path d="M328.504 85.7486L287.179 61.8779L279.091 66.5488L320.44 90.4195L328.504 85.7486Z" fill="#F0FAF6"/>
<path d="M237.264 187.391C237.217 189.752 236.315 194.681 236.778 196.209C237.241 197.736 241.406 198.245 243.188 197.227C244.994 196.232 248.557 193.015 248.881 193.038C249.205 193.061 254.713 190.446 255.523 188.595C256.333 186.743 253.88 185.586 253.88 185.586L247.609 186.257L243.929 185.817L237.264 187.391Z" fill="#ADADAD"/>
<path d="M256.45 193.084L258.764 194.658C258.764 194.658 265.892 193.362 267.142 193.686C268.392 194.01 268.484 197.967 268.484 197.967C268.484 197.967 263.37 201.693 260.824 202.341C258.255 202.989 253.766 204.355 251.428 203.845C249.091 203.313 249.322 201.994 249.322 201.994C249.322 201.994 249.391 196.555 249.715 195.074C250.039 193.57 256.45 193.084 256.45 193.084Z" fill="#ADADAD"/>
<path d="M233.792 118.125C231.293 121.157 231.455 128.701 232.682 136.269C233.908 143.837 237.819 152.816 237.912 156.843C238.004 160.87 243.374 164.295 245.271 162.976C247.169 161.657 248.858 159.389 249.252 158.301C249.645 157.213 249.252 129.951 248.465 128.724C247.655 127.521 233.792 118.125 233.792 118.125Z" fill="black"/>
<path d="M237.841 154.204C237.841 154.204 236.082 187.807 237.517 190.585C238.952 193.339 245.223 191.441 245.825 189.682C246.427 187.923 248.487 159.087 248.278 156.403C248.07 153.672 237.841 154.204 237.841 154.204Z" fill="black"/>
<path d="M238.769 126.873C238.769 126.873 237.241 133.098 238.213 136.801C239.185 140.481 243.976 143.767 244.369 145.364C244.763 146.961 248.142 162.791 249.021 165.383C249.9 167.952 254.691 169.41 257.144 168.276C259.597 167.142 260.731 164.851 260.847 164.226C260.963 163.601 262.074 147.401 262.328 143.05C262.791 134.742 261.24 124.698 261.102 124.212C260.963 123.702 238.769 126.873 238.769 126.873Z" fill="black"/>
<path d="M251.1 147.446C250.729 149.714 249.665 154.783 249.225 157.097C248.785 159.411 246.401 165.544 246.517 170.52C246.633 175.495 248.137 194.681 249.757 196.903C250.914 198.499 258.343 197.689 258.76 194.635C258.922 193.339 261.375 159.457 261.375 159.457L251.1 147.446Z" fill="black"/>
<path d="M242.632 79.7067C242.632 79.7067 238.814 77.3462 234.278 79.6373C231.501 81.049 231.038 82.669 231.038 85.585C231.038 89.149 231.431 94.7496 232.264 98.1747C233.074 101.53 233.63 105.002 233.398 108.473C233.306 110.001 233.051 111.505 232.843 113.009C232.473 115.995 232.288 119.096 232.149 122.081C231.94 126.548 238.559 128.862 243.72 129.88C248.881 130.899 259.989 132.125 261.748 126.571C262.026 125.715 260.614 116.92 260.499 114.282C260.383 111.644 263.507 93.5462 262.327 91.1625C261.147 88.7787 252.26 82.7616 252.26 82.7616L242.632 79.7067Z" fill="#EB4869"/>
<path d="M255.822 88.3861C259.78 87.6455 261.608 88.8721 263.112 92.9683C264.616 97.0646 261.284 110.974 258.854 112.918C256.424 114.885 248.81 94.9355 255.822 88.3861Z" fill="white"/>
<path d="M244.273 85.3769C247.189 85.9323 250.198 85.3306 252.998 84.3355C253.137 84.2892 253.276 84.2429 253.345 84.104C253.438 83.9189 253.345 83.7106 253.229 83.5486C252.674 82.6923 252.003 81.9286 251.193 81.2806C249.364 79.7995 247.12 79.2903 244.852 78.9895C243.093 78.758 239.482 77.786 237.862 78.7117C237.33 79.0126 237.029 79.6143 236.983 80.216C236.728 83.2478 241.959 84.9372 244.273 85.3769Z" fill="white"/>
<path d="M251.125 82.6691C251.263 82.5534 251.24 82.3451 251.24 82.1831C251.217 81.0954 252.004 80.3548 252.791 79.7068C254.503 78.3414 256.123 81.188 257.882 79.9383C258.924 79.1977 261.006 73.1574 261.006 73.1574C261.006 73.1574 262.742 67.4411 262.951 62.7662C263.159 58.0914 250.87 58.4617 248.694 59.5494C246.519 60.6371 243.95 69.0843 244.274 71.8845C244.598 74.6848 243.348 76.3511 243.348 76.3511C242.839 77.0223 242.307 77.7165 241.798 78.3877C241.428 78.8737 240.826 79.3597 241.543 79.8457C242.122 80.2391 242.7 80.6325 243.348 80.8871C244.482 81.3268 245.663 82.0906 246.866 82.2757C248.139 82.484 249.435 82.6229 250.708 82.7154C250.847 82.7617 251.009 82.7617 251.125 82.6691Z" fill="white"/>
<path d="M248.071 55.06C253.695 52.5374 258.74 55.0831 261.008 56.842C263.276 58.6008 263.461 61.4011 263.484 61.8871C263.507 62.3731 262.396 64.3634 262.119 64.8031C261.517 65.752 261.332 66.9091 260.753 67.858C259.966 69.154 259.642 70.7045 258.832 72.0237C258.045 73.3428 256.935 74.5231 255.523 75.1249C255.87 74.9629 256.31 73.2734 256.449 72.9031C256.726 72.07 256.819 71.2368 257.004 70.4037C257.12 69.8945 257.397 69.5937 257.027 69.1308C256.634 68.668 256.102 68.7837 255.592 69.0151C254.505 69.5011 254.389 70.6583 253.695 71.4914C253.023 72.3014 251.936 72.9263 250.987 73.366C249.622 73.9677 248.14 74.3611 246.659 74.176C245.178 74.014 243.743 73.2271 242.979 71.9543C242.1 70.4731 242.355 68.344 242.123 66.6777C242.007 65.8445 242.007 64.9651 242.077 64.132C242.239 61.7714 242.864 59.2488 244.391 57.3743C245.456 56.1014 246.636 55.708 248.071 55.06Z" fill="black"/>
<path d="M256.492 69.6626C256.307 69.3155 255.566 68.76 255.011 69.0609C254.432 69.3617 254.201 73.134 254.733 73.944C255.266 74.754 256.284 73.62 256.284 73.5275C256.261 73.4349 256.492 69.6626 256.492 69.6626Z" fill="white"/>
<path d="M259.687 107.108C260.219 108.057 265.264 119.166 268.018 119.883C270.772 120.624 272.508 117.708 272.67 116.713C272.832 115.718 263.089 91.811 261.7 90.3067C260.312 88.8255 249.342 88.5015 259.687 107.108Z" fill="white"/>
<path d="M280.47 98.7302C280.47 98.7302 276.605 101.878 275.98 102.85C275.355 103.822 273.782 106.576 273.782 106.576C273.782 106.576 270.148 110.232 268.713 111.343C267.278 112.477 267.718 120.184 270.195 119.721C272.648 119.235 274.545 115.509 276.674 112.269C278.804 109.029 280.794 106.182 280.794 106.182L282.483 105.951C282.483 105.951 284.219 106.043 284.774 105.442C285.33 104.84 284.913 103.127 284.913 103.127L284.52 101.669L283.594 100.304L282.553 99.3087L285.353 97.3648C285.353 97.3648 286.232 96.9482 286.325 96.6473C286.418 96.3464 285.561 96.0225 285.561 96.0225L281.025 98.1516L280.47 98.7302Z" fill="white"/>
<path d="M246.842 64.2941C243.88 66.6547 245.176 69.9873 244.898 73.181C244.782 74.5233 244.366 75.8193 243.88 77.0921C242.746 79.9387 240.964 82.7159 238.233 84.1044C236.937 84.7524 235.479 85.0765 234.044 85.2847C231.892 85.6087 229.623 85.7013 227.587 84.9145C225.55 84.1276 223.815 82.253 223.768 80.0776C225.458 81.6745 228.189 81.8365 230.248 80.795C232.308 79.7536 233.743 77.6939 234.414 75.4722C235.016 73.4819 235.27 71.0287 234.9 68.969C234.553 67.0482 234.808 64.9653 235.224 63.0444C235.756 60.7533 237.006 58.439 239.158 57.467C240.246 56.981 241.45 56.8653 242.653 56.8421C243.81 56.819 244.99 56.9116 246.032 57.3513C246.934 57.7216 247.675 58.3464 248.392 59.0176C248.416 59.0407 248.439 59.0639 248.462 59.087C249.11 59.6656 249.758 60.383 249.758 61.2624C249.735 62.003 249.249 62.6279 248.67 63.0676C248.092 63.5304 247.42 63.8313 246.842 64.2941Z" fill="black"/>
<defs>
<filter id="filter0_f_692_45007" x="45.7695" y="150.547" width="176.246" height="111.882" filterUnits="userSpaceOnUse" color-interpolation-filters="sRGB">
<feFlood flood-opacity="0" result="BackgroundImageFix"/>
<feBlend mode="normal" in="SourceGraphic" in2="BackgroundImageFix" result="shape"/>
<feGaussianBlur stdDeviation="4" result="effect1_foregroundBlur_692_45007"/>
</filter>
<filter id="filter1_f_692_45007" x="143.258" y="156.162" width="69.7031" height="53.9268" filterUnits="userSpaceOnUse" color-interpolation-filters="sRGB">
<feFlood flood-opacity="0" result="BackgroundImageFix"/>
<feBlend mode="normal" in="SourceGraphic" in2="BackgroundImageFix" result="shape"/>
<feGaussianBlur stdDeviation="4" result="effect1_foregroundBlur_692_45007"/>
</filter>
<filter id="filter2_f_692_45007" x="54.8477" y="136.138" width="104.41" height="73.9512" filterUnits="userSpaceOnUse" color-interpolation-filters="sRGB">
<feFlood flood-opacity="0" result="BackgroundImageFix"/>
<feBlend mode="normal" in="SourceGraphic" in2="BackgroundImageFix" result="shape"/>
<feGaussianBlur stdDeviation="4" result="effect1_foregroundBlur_692_45007"/>
</filter>
<filter id="filter3_f_692_45007" x="263.176" y="159.259" width="67.0234" height="59.0703" filterUnits="userSpaceOnUse" color-interpolation-filters="sRGB">
<feFlood flood-opacity="0" result="BackgroundImageFix"/>
<feBlend mode="normal" in="SourceGraphic" in2="BackgroundImageFix" result="shape"/>
<feGaussianBlur stdDeviation="4" result="effect1_foregroundBlur_692_45007"/>
</filter>
<linearGradient id="paint0_linear_692_45007" x1="189.803" y1="19.79" x2="189.803" y2="248.709" gradientUnits="userSpaceOnUse">
<stop stop-color="#245795"/>
<stop offset="1" stop-color="#8AD3A8"/>
</linearGradient>
<linearGradient id="paint1_linear_692_45007" x1="-102.391" y1="57.019" x2="43.4865" y2="302.268" gradientUnits="userSpaceOnUse">
<stop stop-color="#245795"/>
<stop offset="1" stop-color="#8AD3A8"/>
</linearGradient>
<linearGradient id="paint2_linear_692_45007" x1="184.719" y1="149.291" x2="163.918" y2="147.007" gradientUnits="userSpaceOnUse">
<stop stop-color="#245795"/>
<stop offset="1" stop-color="#8AD3A8"/>
</linearGradient>
<linearGradient id="paint3_linear_692_45007" x1="172.687" y1="156.255" x2="151.887" y2="153.972" gradientUnits="userSpaceOnUse">
<stop stop-color="#245795"/>
<stop offset="1" stop-color="#8AD3A8"/>
</linearGradient>
<linearGradient id="paint4_linear_692_45007" x1="160.652" y1="163.197" x2="139.864" y2="160.916" gradientUnits="userSpaceOnUse">
<stop stop-color="#245795"/>
<stop offset="1" stop-color="#8AD3A8"/>
</linearGradient>
<linearGradient id="paint5_linear_692_45007" x1="129.051" y1="113.577" x2="95.417" y2="113.577" gradientUnits="userSpaceOnUse">
<stop stop-color="#245795"/>
<stop offset="1" stop-color="#8AD3A8"/>
</linearGradient>
<linearGradient id="paint6_linear_692_45007" x1="168.41" y1="134.134" x2="80.0573" y2="134.134" gradientUnits="userSpaceOnUse">
<stop stop-color="#245795"/>
<stop offset="1" stop-color="#8AD3A8"/>
</linearGradient>
<radialGradient id="paint7_radial_692_45007" cx="0" cy="0" r="1" gradientUnits="userSpaceOnUse" gradientTransform="translate(284.538 191.4) rotate(-90) scale(25.16 111.213)">
<stop stop-color="#245795"/>
<stop offset="1" stop-color="#8AD3A8"/>
</radialGradient>
<radialGradient id="paint8_radial_692_45007" cx="0" cy="0" r="1" gradientUnits="userSpaceOnUse" gradientTransform="translate(315.917 196.007) rotate(-90) scale(17.3079 65.9091)">
<stop stop-color="#245795"/>
<stop offset="1" stop-color="#8AD3A8"/>
</radialGradient>
</defs>
</svg>
