<svg width="354" height="301" viewBox="0 0 354 301" fill="none" xmlns="http://www.w3.org/2000/svg">
<path d="M30.0269 210.168C27.5356 208.634 25.8441 206.359 24.9593 203.824L24.2266 187.744L76.8196 184.921L353.285 188.026L353.285 199.516C353.285 203.584 351.397 207.643 347.616 209.963L297.267 240.897L256.153 266.158L210.143 294.426C196.844 302.598 180.459 302.598 167.163 294.426L127.758 270.216L73.7532 236.993V237.036L73.7197 237.012L33.6778 212.41L30.0269 210.168Z" fill="#D4F2E4"/>
<path d="M30.0269 210.168C27.5356 208.634 25.8441 206.359 24.9593 203.824L24.2266 187.744L76.8196 184.921L353.285 188.026L353.285 199.516C353.285 203.584 351.397 207.643 347.616 209.963L297.267 240.897L256.153 266.158L210.143 294.426C196.844 302.598 180.459 302.598 167.163 294.426L127.758 270.216L73.7532 236.993V237.036L73.7197 237.012L33.6778 212.41L30.0269 210.168Z" fill="url(#paint0_linear_692_45287)" fill-opacity="0.15"/>
<path d="M210.14 89.6856L348.306 174.15C352.103 176.469 353.999 180.532 354.001 184.595C354.001 188.661 352.105 192.717 348.308 195.036L297.741 225.948L256.448 251.192L210.239 279.441C196.882 287.607 180.426 287.607 167.072 279.441L127.496 255.248L73.2573 222.047V222.09L73.2236 222.066L33.008 197.481L29.3412 195.24C26.8391 193.707 25.1403 191.434 24.2517 188.901C23.7625 187.508 23.5156 186.035 23.5156 184.562C23.5111 180.406 25.4522 176.248 29.3367 173.872L166.962 89.6928C180.321 81.5215 196.779 81.5191 210.14 89.6856Z" fill="#F0FAF6"/>
<path d="M69.1197 74.7969L69.1197 87.1016C69.1197 92.4401 68.6263 97.3311 67.6396 101.774C66.6529 106.185 65.2293 110.165 63.3687 113.713C61.5363 117.212 59.3515 120.28 56.8143 122.917C54.2771 125.554 51.458 127.767 48.357 129.558C45.8762 130.99 43.5646 131.966 41.4221 132.487C39.2796 132.976 37.3485 132.935 35.6288 132.365C33.9374 131.779 32.4714 130.656 31.231 128.996C30.0188 127.287 29.0885 124.96 28.4401 122.014C27.7917 119.068 27.4676 115.446 27.4676 111.149L27.4676 98.8447C27.4676 93.5062 27.9609 88.6478 28.9476 84.2695C29.9624 79.8424 31.3861 75.8792 33.2185 72.3799C35.0791 68.8643 37.278 65.8044 39.8152 63.2002C42.3524 60.5635 45.1715 58.3499 48.2725 56.5596C50.7533 55.1273 53.0508 54.1751 55.1651 53.7031C57.3077 53.1823 59.2387 53.1904 60.9584 53.7275C62.678 54.2646 64.144 55.3877 65.3562 57.0967C66.5684 58.7731 67.4987 61.0843 68.1471 64.0303C68.7955 66.9437 69.1197 70.5326 69.1197 74.7969ZM56.8989 96.0127L56.8989 79.9482C56.8989 77.3766 56.772 75.2038 56.5183 73.4297C56.2928 71.6393 55.9404 70.2152 55.4611 69.1572C54.9819 68.0667 54.3899 67.3018 53.6851 66.8623C52.9803 66.4229 52.1769 66.2682 51.2748 66.3984C50.3727 66.5286 49.3719 66.9111 48.2725 67.5459C46.8911 68.3434 45.6648 69.3607 44.5935 70.5977C43.5505 71.8184 42.6625 73.3239 41.9295 75.1143C41.1965 76.8721 40.6327 78.988 40.238 81.4619C39.8716 83.887 39.6883 86.6947 39.6883 89.8848L39.6883 105.949C39.6883 108.521 39.8011 110.718 40.0266 112.541C40.2803 114.348 40.6468 115.812 41.1261 116.936C41.6335 118.01 42.2255 118.791 42.9021 119.279C43.6069 119.719 44.4103 119.873 45.3124 119.743C46.2427 119.597 47.2576 119.206 48.357 118.571C49.7102 117.79 50.9083 116.789 51.9514 115.568C53.0226 114.299 53.9247 112.769 54.6577 110.979C55.4189 109.139 55.9827 106.991 56.3492 104.533C56.7156 102.076 56.8989 99.2354 56.8989 96.0127ZM108.827 21.8428L110.603 20.8174L110.603 32.0479L109.884 32.4629C106.67 34.3184 103.809 36.5238 101.3 39.0791C98.7906 41.6344 96.6622 44.4421 94.9144 47.502C93.1947 50.513 91.8697 53.7194 90.9394 57.1211C90.0373 60.5065 89.5863 63.9733 89.5863 67.5215L89.5863 79.3379C89.5863 81.877 89.7977 84.001 90.2206 85.71C90.6716 87.3701 91.3059 88.6152 92.1235 89.4453C92.9692 90.2266 93.9559 90.6172 95.0835 90.6172C96.2111 90.5846 97.4797 90.1615 98.8893 89.3477C100.214 88.5827 101.412 87.5654 102.484 86.2959C103.583 85.0101 104.513 83.5615 105.275 81.9502C106.064 80.29 106.656 78.5485 107.051 76.7256C107.473 74.8538 107.685 72.9577 107.685 71.0371C107.685 69.1165 107.473 67.4645 107.051 66.0811C106.656 64.6813 106.064 63.6234 105.275 62.9072C104.485 62.1585 103.527 61.7842 102.399 61.7842C101.271 61.7842 100.003 62.1911 98.5933 63.0049C96.6763 64.1117 94.9848 65.609 93.5189 67.4971C92.0812 69.3363 90.9535 71.2894 90.136 73.3564C89.3185 75.4235 88.8815 77.3522 88.8251 79.1426L85.1462 78.5322C85.2308 75.9769 85.6818 73.3402 86.4994 70.6221C87.3451 67.8877 88.5009 65.2347 89.9668 62.6631C91.461 60.0426 93.2511 57.6419 95.3372 55.4609C97.4233 53.2474 99.7773 51.3838 102.399 49.8701C105.275 48.21 107.798 47.388 109.968 47.4043C112.167 47.4043 114 48.0879 115.466 49.4551C116.931 50.8223 118.031 52.7428 118.764 55.2168C119.497 57.6908 119.863 60.5716 119.863 63.8594C119.863 67.3099 119.37 70.8011 118.383 74.333C117.425 77.8486 116.029 81.2422 114.197 84.5137C112.393 87.7689 110.222 90.7474 107.685 93.4492C105.148 96.151 102.3 98.4134 99.143 100.236C95.8728 102.124 92.8987 103.158 90.2206 103.337C87.5706 103.467 85.2872 102.832 83.3702 101.433C81.4532 100.033 79.9732 97.9089 78.9301 95.0605C77.9152 92.196 77.4078 88.7129 77.4078 84.6113L77.4078 79.1426C77.4078 73.4134 78.1267 67.7575 79.5644 62.1748C81.0303 56.5433 83.1305 51.1966 85.8651 46.1348C88.5996 41.0404 91.8979 36.418 95.7601 32.2676C99.6222 28.1172 103.978 24.6423 108.827 21.8428Z" fill="url(#paint1_linear_692_45287)" fill-opacity="0.15"/>
<path d="M162 133.994L182.073 122.401L202.041 133.932L182.073 145.463L162 133.994Z" fill="#BE0058"/>
<path d="M182.074 68.6147L202.042 57.0928V133.932L182.074 145.463V68.6147Z" fill="#BE0058"/>
<path d="M182.074 68.6147L202.042 57.0928V133.932L182.074 145.463V68.6147Z" fill="url(#paint2_linear_692_45287)"/>
<path d="M162 57.1547L182.073 45.5625L202.041 57.0932L182.073 68.6151L162 57.1547Z" fill="#D4F2E4"/>
<path d="M162 57.1543V133.993L182.073 145.463V68.6147L162 57.1543Z" fill="#D4F2E4"/>
<path d="M162 57.1543V133.993L182.073 145.463V68.6147L162 57.1543Z" fill="url(#paint3_linear_692_45287)" fill-opacity="0.15"/>
<path d="M197.082 155.148L217.155 143.556L237.123 155.086L217.155 166.617L197.082 155.148Z" fill="url(#paint4_linear_692_45287)"/>
<path d="M217.156 108.612L237.124 97.0811V155.086L217.156 166.617V108.612Z" fill="#9B9CE7"/>
<path d="M217.156 108.612L237.124 97.0811V155.086L217.156 166.617V108.612Z" fill="url(#paint5_linear_692_45287)"/>
<path d="M197.082 97.143L217.155 85.5596L237.123 97.0815L217.155 108.612L197.082 97.143Z" fill="#D4F2E4"/>
<path d="M197.082 97.1426V155.148L217.155 166.617V108.612L197.082 97.1426Z" fill="#D4F2E4"/>
<path d="M197.082 97.1426V155.148L217.155 166.617V108.612L197.082 97.1426Z" fill="url(#paint6_linear_692_45287)" fill-opacity="0.15"/>
<path d="M231.965 176.215L252.038 164.623L272.006 176.154L252.038 187.676L231.965 176.215Z" fill="url(#paint7_linear_692_45287)"/>
<path d="M252.039 145.551L272.007 134.021V176.153L252.039 187.675V145.551Z" fill="#9B9CE7"/>
<path d="M252.039 145.551L272.007 134.021V176.153L252.039 187.675V145.551Z" fill="url(#paint8_linear_692_45287)"/>
<path d="M231.965 134.082L252.038 122.49L272.006 134.021L252.038 145.552L231.965 134.082Z" fill="#D4F2E4"/>
<path d="M231.965 134.082V176.215L252.038 187.675V145.551L231.965 134.082Z" fill="#D4F2E4"/>
<path d="M231.965 134.082V176.215L252.038 187.675V145.551L231.965 134.082Z" fill="url(#paint9_linear_692_45287)" fill-opacity="0.15"/>
<path d="M268.332 195.972L288.405 184.389L308.373 195.911L288.405 207.441L268.332 195.972Z" fill="url(#paint10_linear_692_45287)"/>
<path d="M288.406 179.466L308.374 167.936V195.91L288.406 207.441V179.466Z" fill="url(#paint11_linear_692_45287)"/>
<path d="M268.332 167.997L288.405 156.414L308.373 167.936L288.405 179.467L268.332 167.997Z" fill="#D4F2E4"/>
<path d="M268.332 167.997V195.971L288.405 207.441V179.466L268.332 167.997Z" fill="#D4F2E4"/>
<path d="M268.332 167.997V195.971L288.405 207.441V179.466L268.332 167.997Z" fill="url(#paint12_linear_692_45287)" fill-opacity="0.15"/>
<path d="M287.983 167.382L278.114 114.351L252.372 134.75L241.755 73.774L216.883 97.8549L207.216 26.0341L182.959 56.6362L182.379 56.1792L207.708 24.2236L217.419 96.3169L242.247 72.28L252.89 133.405L278.615 113.024L288.713 167.25L287.983 167.382Z" fill="url(#paint13_linear_692_45287)"/>
<path d="M287.983 167.382L278.114 114.351L252.372 134.75L241.755 73.774L216.883 97.8549L207.216 26.0341L182.959 56.6362L182.379 56.1792L207.708 24.2236L217.419 96.3169L242.247 72.28L252.89 133.405L278.615 113.024L288.713 167.25L287.983 167.382Z" fill="url(#paint14_linear_692_45287)"/>
<path d="M281.629 113.165C281.629 111.442 280.231 110.036 278.5 110.036C276.777 110.036 275.371 111.434 275.371 113.165C275.371 114.887 276.768 116.294 278.5 116.294C280.231 116.285 281.629 114.887 281.629 113.165Z" fill="url(#paint15_radial_692_45287)"/>
<path d="M281.629 113.165C281.629 111.442 280.231 110.036 278.5 110.036C276.777 110.036 275.371 111.434 275.371 113.165C275.371 114.887 276.768 116.294 278.5 116.294C280.231 116.285 281.629 114.887 281.629 113.165Z" fill="url(#paint16_linear_692_45287)"/>
<path d="M252.63 136.165C253.78 136.165 254.713 135.232 254.713 134.082C254.713 132.932 253.78 131.999 252.63 131.999C251.479 131.999 250.547 132.932 250.547 134.082C250.547 135.232 251.479 136.165 252.63 136.165Z" fill="url(#paint17_radial_692_45287)"/>
<path d="M252.63 136.165C253.78 136.165 254.713 135.232 254.713 134.082C254.713 132.932 253.78 131.999 252.63 131.999C251.479 131.999 250.547 132.932 250.547 134.082C250.547 135.232 251.479 136.165 252.63 136.165Z" fill="url(#paint18_linear_692_45287)"/>
<path d="M288.352 169.403C289.503 169.403 290.435 168.471 290.435 167.32C290.435 166.17 289.503 165.237 288.352 165.237C287.202 165.237 286.27 166.17 286.27 167.32C286.27 168.471 287.202 169.403 288.352 169.403Z" fill="url(#paint19_radial_692_45287)"/>
<path d="M288.352 169.403C289.503 169.403 290.435 168.471 290.435 167.32C290.435 166.17 289.503 165.237 288.352 165.237C287.202 165.237 286.27 166.17 286.27 167.32C286.27 168.471 287.202 169.403 288.352 169.403Z" fill="url(#paint20_linear_692_45287)"/>
<path d="M242.004 75.8308C243.732 75.8308 245.133 74.43 245.133 72.702C245.133 70.974 243.732 69.5732 242.004 69.5732C240.276 69.5732 238.875 70.974 238.875 72.702C238.875 74.43 240.276 75.8308 242.004 75.8308Z" fill="url(#paint21_radial_692_45287)"/>
<path d="M242.004 75.8308C243.732 75.8308 245.133 74.43 245.133 72.702C245.133 70.974 243.732 69.5732 242.004 69.5732C240.276 69.5732 238.875 70.974 238.875 72.702C238.875 74.43 240.276 75.8308 242.004 75.8308Z" fill="url(#paint22_linear_692_45287)"/>
<path d="M219.236 97.0819C219.236 95.9306 218.305 94.999 217.153 94.999C216.002 94.999 215.07 95.9306 215.07 97.0819C215.07 98.2332 216.002 99.1648 217.153 99.1648C218.305 99.1736 219.236 98.2332 219.236 97.0819Z" fill="url(#paint23_radial_692_45287)"/>
<path d="M219.236 97.0819C219.236 95.9306 218.305 94.999 217.153 94.999C216.002 94.999 215.07 95.9306 215.07 97.0819C215.07 98.2332 216.002 99.1648 217.153 99.1648C218.305 99.1736 219.236 98.2332 219.236 97.0819Z" fill="url(#paint24_linear_692_45287)"/>
<path d="M210.609 25.1288C210.609 23.4062 209.212 22 207.48 22C205.758 22 204.352 23.3974 204.352 25.1288C204.352 26.8513 205.749 28.2575 207.48 28.2575C209.203 28.2487 210.609 26.8513 210.609 25.1288Z" fill="url(#paint25_radial_692_45287)"/>
<path d="M210.609 25.1288C210.609 23.4062 209.212 22 207.48 22C205.758 22 204.352 23.3974 204.352 25.1288C204.352 26.8513 205.749 28.2575 207.48 28.2575C209.203 28.2487 210.609 26.8513 210.609 25.1288Z" fill="url(#paint26_linear_692_45287)"/>
<path d="M182.669 58.49C183.819 58.49 184.752 57.5575 184.752 56.4071C184.752 55.2568 183.819 54.3242 182.669 54.3242C181.518 54.3242 180.586 55.2568 180.586 56.4071C180.586 57.5575 181.518 58.49 182.669 58.49Z" fill="url(#paint27_radial_692_45287)"/>
<path d="M182.669 58.49C183.819 58.49 184.752 57.5575 184.752 56.4071C184.752 55.2568 183.819 54.3242 182.669 54.3242C181.518 54.3242 180.586 55.2568 180.586 56.4071C180.586 57.5575 181.518 58.49 182.669 58.49Z" fill="url(#paint28_linear_692_45287)"/>
<path d="M214.02 170.785L210.913 172.471C210.974 174.457 211.096 176.504 210.974 178.49C210.852 180.116 210.609 181.801 210.67 183.427C210.731 185.052 209.452 185.594 210.426 186.918C212.436 185.473 213.289 183.607 214.263 181.5C214.994 179.875 215.908 178.31 215.969 176.564C216.03 174.517 214.994 172.591 214.02 170.785Z" fill="white"/>
<path d="M215.788 177.708C215.422 177.889 214.996 177.828 214.631 177.768C213.108 177.407 211.524 176.986 210.062 176.444C210.732 175.36 211.098 174.096 211.098 172.832C211.098 173.193 212.438 174.036 212.742 174.217C213.352 174.638 214.022 174.999 214.692 175.3C215.118 175.481 216.092 175.601 216.336 176.083C216.458 176.624 216.214 177.467 215.788 177.708Z" fill="#EEEFF0"/>
<path d="M210.729 170.183C210.851 171.266 211.399 175.3 212.069 176.203C212.739 177.106 215.419 177.106 216.455 176.684C217.247 176.323 219.927 128.226 218.587 123.229C218.038 121.182 217.125 119.136 215.724 117.51C215.054 116.728 214.323 116.066 213.409 115.584C212.313 115.042 211.156 114.621 209.877 114.26C210.181 114.32 210.608 114.982 210.729 115.223C210.973 115.584 211.095 115.825 211.095 116.246C211.095 116.969 211.278 117.631 211.217 118.353C211.156 119.196 210.851 120.159 210.729 121.002C210.425 129.008 210.303 137.074 210.181 145.081C210.181 147.188 210.181 149.355 210.181 151.462C210.181 152.184 210.181 152.846 210.303 153.569C209.755 154.772 209.755 156.217 209.816 157.602C209.938 161.755 210.12 165.969 210.729 170.183Z" fill="#9FB8ED"/>
<path d="M210.731 115.163C210.609 114.923 210.061 114.321 209.756 114.2C210.974 114.501 212.253 114.923 213.35 115.464C214.02 115.826 214.568 116.247 215.055 116.728C215.969 119.558 215.664 123.23 215.116 125.939C213.045 135.751 215.482 168.98 216.578 176.263C216.517 176.444 216.395 176.564 216.334 176.564C215.299 176.986 212.619 176.986 211.949 176.083C211.279 175.18 210.792 171.147 210.609 170.063C210 165.91 209.817 161.696 209.695 157.482C209.634 156.097 209.695 154.653 210.183 153.449C210.061 152.726 210.061 152.004 210.061 151.342C210.061 149.235 210.061 147.068 210.061 144.961C210.122 136.955 210.304 128.888 210.609 120.882C210.731 120.039 211.035 119.136 211.096 118.233C211.157 117.511 210.974 116.789 210.974 116.127C211.096 115.826 210.974 115.525 210.731 115.163Z" fill="#9FB8ED"/>
<path d="M141.907 127.263C142.882 127.805 143.856 128.467 144.892 129.009C143.734 128.286 142.638 127.444 141.603 126.601C141.359 126.42 140.933 125.999 141.115 125.698C141.542 124.976 144.404 126.902 145.014 127.263C145.501 127.564 145.988 127.865 146.475 128.166C145.562 127.323 144.526 126.24 145.44 125.156C145.501 125.036 145.623 124.976 145.683 124.976C146.171 125.036 146.902 126.18 147.145 126.541C148.059 127.624 149.338 128.407 150.252 129.551C150.373 129.731 151.043 130.815 151.165 131.116C151.165 131.176 151.713 131.718 152.323 132.019L151.896 132.5L153.419 133.945C152.871 135.149 152.14 136.293 151.348 137.256L149.703 136.895C148.912 136.594 148.242 136.293 147.693 136.052C146.963 135.63 146.353 135.329 145.562 134.968C144.892 134.728 143.917 134.126 143.369 133.704C142.029 132.681 141.176 132.079 139.836 131.116C139.593 130.995 139.349 130.755 139.288 130.514C139.227 130.273 139.288 130.213 139.532 130.213H139.593C140.324 130.213 142.334 131.176 143.186 131.356C141.846 130.755 140.689 130.092 139.471 129.25C139.166 129.009 138.679 128.587 139.044 128.166C139.349 127.805 139.958 128.046 140.202 128.226C140.872 128.527 141.481 128.828 142.151 129.129C141.176 128.587 140.202 128.046 139.41 127.383C139.227 127.203 139.166 126.962 139.227 126.782C139.593 125.999 141.481 126.962 141.907 127.263Z" fill="white"/>
<path d="M190.938 110.106V110.708L191.059 115.885C191.059 115.885 191.486 116.608 192.338 117.33C192.46 117.33 192.643 117.33 192.765 117.27C196.602 116.849 201.353 116.066 201.353 113.297L201.414 113.237L201.231 109.264L200.744 109.324L193.861 109.926L190.938 110.106Z" fill="white"/>
<path d="M202.571 112.575C203.18 113.117 202.875 118.354 202.814 119.197C202.631 121.364 202.266 118.294 200.256 119.136C198.246 119.979 195.932 119.919 193.8 119.498C192.582 119.257 192.033 119.136 191.242 118.233C190.389 117.331 190.389 113.839 191.12 113.779C191.851 113.719 193.617 113.839 194.348 113.839C196.114 113.959 197.942 113.659 199.586 112.996C200.804 112.455 201.291 111.311 202.571 112.575Z" fill="#99B1E3"/>
<path d="M210.365 238.808C210.365 238.808 211.035 244.407 209.086 246.032C208.538 246.453 206.528 246.333 204.335 245.43C202.873 244.828 201.412 243.624 200.011 243.143C195.747 241.758 194.955 239.591 193.554 236.762C190.57 230.742 197.27 233.511 201.594 235.979C206.102 238.507 210.365 238.808 210.365 238.808Z" fill="#BFBFBF"/>
<path d="M194.891 178.852C194.891 179.333 194.891 179.815 194.952 180.296C194.952 180.778 195.012 181.259 195.012 181.681C195.134 183.246 195.317 184.811 195.5 186.376C195.561 187.159 195.682 187.881 195.743 188.664C196.109 191.794 196.474 194.864 196.84 197.994C197.205 201.185 197.875 204.375 198.423 207.505C198.728 209.311 198.606 210.696 198.971 212.562C199.641 216.234 199.459 233.27 199.459 239.049C199.459 239.771 204.392 241.517 208.23 242.299C210.605 242.781 212.554 242.962 212.676 242.299C213.041 240.614 213.894 226.588 213.224 221.531C213.041 220.147 212.798 214.488 212.615 207.746C212.615 207.084 212.554 206.362 212.554 205.699C212.189 194.081 211.884 180.236 212.067 178.791C212.128 178.189 212.189 177.467 212.189 176.745C212.189 175.721 212.189 174.638 212.067 173.554C211.762 170.605 210.849 167.534 208.778 166.27C207.194 165.307 205.123 165.307 203.418 166.03C201.834 166.632 200.433 167.775 199.154 168.979C199.032 169.039 198.971 169.16 198.85 169.28C197.753 170.364 196.718 171.568 196.048 173.012C195.073 174.818 194.891 176.865 194.891 178.852Z" fill="black"/>
<path d="M196.051 245.009C196.051 245.009 198.122 250.246 196.66 252.353C196.233 252.955 194.284 253.316 191.97 253.075C190.447 252.895 188.681 252.112 187.158 252.052C182.712 251.871 181.372 250.005 179.301 247.718C174.854 242.721 182.042 243.564 186.853 244.768C191.848 245.972 196.051 245.009 196.051 245.009Z" fill="#BFBFBF"/>
<path d="M181.312 195.827C181.312 196.008 181.495 197.513 181.8 199.74C182.592 206.301 184.053 219.244 184.114 223.638C184.175 231.103 183.932 238.447 183.992 245.911C183.992 246.333 183.992 246.814 184.297 247.115C184.541 247.416 184.967 247.476 185.332 247.537C185.82 247.597 186.307 247.657 186.733 247.777C187.891 247.958 188.987 248.138 190.144 248.319C191.362 248.5 192.581 248.68 193.86 248.56C195.078 248.439 196.296 247.898 197.088 246.874C198.001 245.67 198.123 243.985 198.184 242.42C198.184 237.845 198.306 233.33 198.123 228.815C197.941 224.722 197.636 220.568 197.149 216.475C197.027 215.331 196.844 214.308 196.722 213.224C196.357 210.997 195.809 208.89 194.956 206.602C194.164 204.375 192.885 202.088 190.692 202.027C189.779 202.027 186.672 199.86 184.358 198.115C182.592 196.851 181.312 195.827 181.312 195.827Z" fill="black"/>
<path d="M180.398 174.397C180.764 182.463 180.764 190.229 181.251 195.827C181.373 197.272 181.556 198.596 181.738 199.74C181.738 199.74 181.738 199.74 181.738 199.8C181.921 200.883 182.165 201.786 182.408 202.509C183.018 204.194 183.931 205.699 184.601 207.325C184.967 208.167 185.271 209.01 185.515 209.913C185.88 211.358 186.307 212.923 187.403 213.886C188.682 215.03 191.849 218.822 193.311 217.979C194.773 217.137 196.661 223.999 197.209 222.374C197.453 221.712 197.575 219.785 197.757 217.678C197.757 217.498 197.757 217.317 197.818 217.137C197.879 215.873 197.94 214.608 198.001 213.465C198.062 212.502 198.062 211.659 198.123 211.057C198.123 210.756 198.123 210.575 198.184 210.395C198.245 209.913 198.245 209.492 198.306 209.01C198.854 204.495 200.316 199.8 200.316 191.372C200.925 188.964 202.021 184.63 202.326 180.055C202.447 178.37 202.447 176.684 202.204 175.059C202.143 174.337 180.398 174.397 180.398 174.397Z" fill="black"/>
<path d="M180.093 150.559C180.154 155.555 179.362 169.521 179.118 173.915C179.058 174.758 179.484 175.601 180.215 176.022C182.286 177.286 184.174 177.948 186.428 178.309C187.402 178.49 188.438 178.61 189.656 178.671C194.102 179.032 198.792 178.911 203.177 178.129C206.406 177.587 209.451 176.443 211.887 174.457C212.435 173.975 212.801 173.313 212.801 172.591C212.923 167.835 210.365 154.712 210.365 149.595C210.365 140.807 213.532 126.118 213.349 121.182C213.166 117.089 211.644 112.093 202.629 113.236L190.752 115.885C188.255 117.27 177.961 119.075 176.926 125.035C176.926 125.035 177.291 127.202 177.718 130.332C178.388 134.967 179.362 141.77 179.788 146.586C179.971 148.211 180.093 149.535 180.093 150.559Z" fill="#99B1E3"/>
<path d="M187.405 106.676C188.075 108.361 189.354 109.866 190.938 110.709C191.547 111.01 192.156 111.251 192.826 111.311C192.948 111.311 193.07 111.371 193.191 111.371C193.801 111.431 194.47 111.371 195.019 111.07C196.115 110.528 200.135 111.191 200.5 110.047C200.561 109.806 200.622 109.505 200.683 109.264C201.11 106.254 199.039 101.8 198.551 98.9705C198.125 96.3219 196.48 93.9742 194.41 92.1683C192.704 90.6633 190.633 89.5196 188.441 88.8574L187.405 90.1216L186.491 91.2051C186.918 93.7936 186.674 96.3821 186.491 98.9705C186.37 101.559 186.431 104.268 187.405 106.676Z" fill="white"/>
<path d="M186.549 98.9701C186.671 96.3816 186.975 93.7329 186.549 91.2046L187.402 90.1211L187.767 91.8066C186.793 95.8398 186.793 100.114 187.706 104.207C188.072 105.772 188.62 107.337 189.716 108.481C190.813 109.625 192.579 110.287 194.102 109.685C194.041 109.745 193.919 109.806 193.858 109.866C193.371 110.227 193.066 110.769 192.884 111.31C192.701 111.792 192.64 112.274 192.579 112.755C192.579 113.056 192.579 113.357 192.579 113.718C192.153 113.658 191.665 113.658 191.239 113.718C191.178 113.718 191.117 113.718 191.056 113.779L190.995 110.709C189.412 109.866 188.133 108.361 187.463 106.675C186.427 104.267 186.366 101.559 186.549 98.9701Z" fill="white"/>
<path d="M185.027 90.6027C185.271 92.1678 186.611 92.0474 187.464 93.4319C188.438 94.9971 188.499 96.3816 189.474 97.9467C189.839 98.4885 190.022 99.873 191.666 98.9701C194.042 97.5856 192.519 107.939 196.905 110.227C197.635 110.648 199.706 110.287 200.559 110.107C201.046 109.986 201.412 109.625 201.777 109.264L201.838 109.204C203.056 107.879 207.624 103.605 208.599 101.498C209.452 99.6323 209.634 97.2244 209.634 95.1175C209.573 93.1912 208.416 91.3852 207.32 89.8201C206.224 88.255 204.823 86.9307 203.117 85.9675C200.194 84.4024 196.235 84.1014 192.885 84.583C192.458 84.6432 191.971 84.7034 191.545 84.8238C190.753 85.0043 190.022 85.1849 189.291 85.4257C188.986 85.6063 188.621 85.7267 188.316 85.9073C185.088 87.653 185.149 89.5191 185.088 89.6395C185.027 89.5191 185.027 90.3017 185.027 90.6027Z" fill="black"/>
<path d="M191.607 98.9097C190.693 100.053 190.693 101.498 191.546 102.16C192.399 102.822 193.8 102.401 194.713 101.257C195.627 100.114 195.627 98.6689 194.774 98.0067C193.922 97.4047 192.521 97.7659 191.607 98.9097Z" fill="white"/>
<path d="M191.849 114.802C191.118 114.983 190.387 115.163 189.717 115.464C189.29 115.645 188.742 116.367 188.742 116.849C191.544 117.451 196.66 116.367 199.462 115.886C201.898 115.464 204.213 113.959 204.578 113.357C205.553 111.792 199.645 113.478 199.036 113.658C196.782 114.26 194.224 114.26 191.849 114.802Z" fill="#99B1E3"/>
<path d="M152.198 130.875C152.198 130.875 147.995 135.029 146.473 136.353C147.447 137.136 148.483 138.279 149.518 139.062C150.736 137.436 152.99 135.149 154.025 133.403C154.391 132.741 152.198 130.875 152.198 130.875Z" fill="#EEEFF0"/>
<path d="M164.869 145.683C165.173 146.346 165.66 146.948 166.33 147.429C167.731 148.453 169.315 149.355 171.264 149.054C171.325 149.054 171.325 149.054 171.386 149.054L188.197 132.139C189.963 129.972 190.937 124.193 187.1 121.183C186.43 120.641 185.578 120.16 184.542 119.859C182.288 119.137 180.157 120.34 178.512 122.327L167.122 136.834L166.513 137.617L165.843 138.46L165.721 138.58L164.929 139.604L164.869 139.664C164.808 139.905 164.686 140.206 164.625 140.446C164.26 142.072 164.077 144.058 164.869 145.683Z" fill="#9FB8ED"/>
<path d="M147.391 137.797C148.122 138.339 162.374 148.633 168.891 149.475C169.866 149.596 170.78 149.415 171.328 149.054C171.328 149.054 171.023 147.549 170.84 146.285C170.658 144.84 170.475 143.396 170.353 143.215L172.18 140.325L168.404 138.52L166.394 137.556L165.785 137.255L153.238 131.296C152.141 131.898 149.401 135.088 148.061 136.774C147.695 137.376 147.391 137.737 147.391 137.797Z" fill="#9FB8ED"/>
<path d="M165.782 99.6929C165.295 99.091 166.452 98.8502 166.757 98.1278C167.488 96.6229 167.183 94.9976 169.437 93.2519C169.741 93.0111 170.046 92.7703 170.35 92.5295C170.594 92.3489 171.873 91.3255 172.117 91.3255C172.482 91.2653 172.604 91.8673 172.604 92.1683C172.482 93.4324 170.533 94.1548 170.533 95.1782C172.969 94.3956 178.634 88.4361 179.06 90.6634C179.243 91.7469 175.223 94.1548 174.553 94.8772C174.675 94.7568 175.832 94.1548 176.015 94.0344C176.685 93.613 177.964 92.8907 178.208 93.914C178.451 94.817 177.781 95.118 177.233 95.5393C177.111 95.5393 176.198 96.2015 176.38 96.1413C177.05 95.9005 178.208 94.9976 178.451 96.2617C178.573 96.7433 178.208 97.0443 177.903 97.3453C177.781 97.4055 177.111 98.0676 176.989 98.0676C178.025 97.7666 178.756 98.79 177.781 99.5726C173.335 103.004 169.802 102.944 168.95 103.305C168.889 103.305 168.828 103.365 168.767 103.365C168.706 103.365 168.706 103.245 168.645 103.184C168.584 103.064 168.523 102.944 168.462 102.823C168.28 102.462 168.097 102.582 167.914 102.221C167.427 101.499 166.33 100.355 165.782 99.6929Z" fill="white"/>
<path d="M129.36 81.9945C130.213 81.0915 129.847 80.6099 131.066 80.8507C134.598 81.5129 137.644 83.6198 139.106 86.9306C139.958 88.857 143.552 105.05 145.927 105.652C150.435 106.736 166.088 96.6826 166.088 96.6826C166.332 96.502 171.448 102.642 171.022 102.943C171.022 102.943 147.024 124.614 137.644 116.126C131.918 110.949 132.345 96.2612 130.457 90.8435C129.726 88.7366 128.934 86.5695 128.812 84.282C128.751 83.4392 128.812 82.5363 129.36 81.9945Z" fill="#D3405E"/>
<path d="M117.602 216.234C118.211 217.739 119.185 219.244 119.977 220.689C120.038 220.809 120.099 220.93 120.16 221.05C120.586 221.773 121.013 222.555 121.195 223.458C121.439 224.421 121.439 225.505 120.891 226.408C120.343 227.311 119.368 227.852 118.333 228.033C117.297 228.214 116.201 227.973 115.226 227.612C113.277 226.889 111.572 225.445 110.475 223.699C109.745 222.495 109.379 221.11 109.014 219.786C108.709 218.582 108.648 217.318 108.039 216.234H117.602V216.234Z" fill="#BFBFBF"/>
<path d="M129.175 207.325C129.175 207.325 123.267 204.737 122.658 212.442C122.475 214.429 125.033 215.271 126.19 215.392C126.678 215.452 127.47 215.331 128.14 215.933C128.992 216.716 129.297 217.378 129.601 217.679C132.342 220.809 137.763 220.87 139.347 219.485C141.722 217.559 137.946 214.609 134.352 211.78C130.515 208.89 129.175 207.325 129.175 207.325Z" fill="#BFBFBF"/>
<path d="M120.831 139.062C120.709 145.383 120.466 149.536 120.344 164.706C120.344 164.706 121.379 176.806 121.379 178.01C121.379 183.006 118.943 202.871 122.841 210.035C123.755 211.66 130.637 211.178 132.83 210.576C133.561 210.396 136.789 161.937 136.18 138.882C136.119 137.256 136.119 136.293 136.119 136.293C132.586 136.052 120.892 135.511 120.831 139.062Z" fill="black"/>
<path d="M105.726 183.548C105.848 192.457 102.803 203.653 108.102 217.077C109.076 219.545 117.482 217.86 117.725 215.994C118.334 211.058 119.674 196.49 120.101 182.223C120.162 180.598 120.223 166.391 120.771 162.358C121.075 160.131 124.962 146.577 125.388 143.446C125.754 140.978 125.876 138.33 125.998 135.5C125.876 135.681 104.01 133.333 103.4 135.019C100.111 144.53 105.726 181.561 105.726 183.548Z" fill="black"/>
<path d="M111.814 94.1552L103.47 93.7338C103.287 90.3026 103.652 88.3763 104.992 86.3898C106.759 83.8013 117.296 80.4302 119.793 80.1894C124.118 79.8283 127.772 78.0224 132.158 83.4401C134.411 86.2092 135.203 91.4463 135.447 94.9378L133.924 94.8174L131.792 133.103L112.058 132.019L113.276 111.251L110.84 111.131L111.814 94.1552Z" fill="#EB4869"/>
<path d="M122.598 83.5605L120.284 83.8615L118.883 86.0888L120.954 88.1355C121.563 88.7375 122.537 88.5569 122.964 87.8345L124.182 85.6073L122.598 83.5605Z" fill="black"/>
<path d="M118.331 83.4398C116.748 83.0185 114.92 82.1155 114.981 81.1524C115.042 78.5037 114.859 73.0859 114.859 73.0859L124.483 76.758C124.483 76.758 124.848 81.2727 124.605 82.4165C124.3 83.8612 120.646 84.1622 118.331 83.4398Z" fill="white"/>
<path d="M124.363 113.177C126.312 109.987 129.784 99.7532 126.617 81.6338C126.373 80.3095 125.155 79.2861 125.155 79.2861C125.764 79.4667 127.043 79.7075 128.444 80.0687C129.236 80.2493 130.089 80.4901 130.88 80.7309C132.16 81.2124 133.317 81.7542 133.926 82.4766C136.91 86.2088 135.875 95.5394 135.814 98.0676C135.814 99.6328 135.57 101.8 135.266 104.388C135.022 106.555 134.779 109.084 134.596 111.732C134.352 115.224 134.718 119.016 135.083 122.688C135.449 126.481 136.498 135.398 136.498 136C136.498 136 137.168 138.529 129.433 139.431C124.804 139.973 125.352 136.482 124.925 136.542C124.986 123.359 125.581 126.36 124.363 113.177Z" fill="#EB4869"/>
<path d="M103.045 134.126C104.995 128.106 105.116 124.434 105.604 119.558C106.335 112.094 103.776 106.315 102.802 101.74C102.436 99.994 99.8782 90.3625 100.853 87.9546C101.584 86.1487 104.264 84.8845 105.421 84.403C105.725 84.2826 109.989 82.6572 114.131 79.4668C110.294 95.5996 124.363 113.177 124.363 113.177C124.485 113.237 134.168 122.387 133.498 134.126C133.072 134.186 133.315 136.353 131.549 137.316C127.651 139.483 116.679 138.37 108.998 137.5C106.732 137.244 102.35 136.273 103.045 134.126Z" fill="#EB4869"/>
<path d="M105.604 119.558C106.335 112.094 103.776 106.315 102.802 101.74C102.436 99.9942 99.8782 90.3626 100.853 87.9547C101.523 86.4498 103.411 85.3061 104.751 84.7041C104.995 84.8847 105.238 85.0051 105.482 84.8847C108.466 96.6231 104.751 108 107.309 120.04C109.928 130.695 117.042 127.211 123.315 135.639C123.376 135.759 123.437 135.88 123.498 136C123.254 136.301 123.011 136.602 122.645 136.783C122.402 136.903 122.158 137.024 121.854 137.144C115.641 131.245 110.659 134.728 104.264 129.37C105.116 125.879 105.238 122.989 105.604 119.558Z" fill="#EB4869"/>
<path d="M123.087 82.8979C123.513 82.4765 123.939 82.0551 124.061 81.3328C124.244 80.3094 124.122 79.1055 124.122 79.1055C124.122 79.1055 124.244 79.1055 124.975 79.2861L125.767 80.189L126.558 80.2492L126.498 82.3561L127.289 82.4163C127.168 83.0785 125.584 86.5097 125.036 87.3525C124.853 87.2321 121.686 83.9814 121.32 83.8008C121.868 83.5601 122.66 83.3193 123.087 82.8979Z" fill="white"/>
<path d="M113.52 81.3937C113.58 81.2733 114.129 79.5878 114.19 79.4674C114.311 79.1664 114.981 78.5645 114.981 78.5645C115.103 79.1062 115.286 79.7082 115.59 80.25C115.895 80.7316 116.321 81.2131 116.748 81.5743C117.418 82.1763 118.149 82.6579 118.94 83.0792C120.22 83.7414 121.377 83.7414 121.377 83.7414C121.316 83.8016 117.844 87.9552 117.783 87.8348C117.418 87.4134 112.728 83.1996 113.52 81.3937Z" fill="white"/>
<path d="M121.498 114.001C121.254 115.385 126.31 125.799 126.31 125.799C126.31 125.799 128.624 116.589 128.563 114.723C128.198 109.065 122.961 85.4268 122.961 85.4268H120.281C120.281 85.4268 122.777 106.356 121.498 114.001Z" fill="black"/>
<path d="M127.166 80.3089C125.948 81.2721 124.243 81.5731 122.537 81.3323C120.345 81.0915 118.03 80.0682 116.446 78.7438C116.325 78.6836 116.203 78.503 116.02 78.3224L115.959 78.2622C114.376 76.4563 112.061 72.0619 111.574 70.1356C111.513 69.7744 111.452 69.4133 111.391 69.0521C110.599 63.1528 115.959 61.708 120.101 58.5778C122.415 56.7719 125.095 56.2301 127.166 57.133C128.933 57.9156 130.212 59.9021 130.516 63.0926C131.064 70.0754 130.943 77.3593 127.166 80.3089Z" fill="white"/>
<path d="M110.842 58.5178C113.766 54.4244 116.872 53.7622 123.39 54.0632C124.12 54.2438 124.912 54.5448 125.704 54.9661C131.978 58.1566 131.064 62.7918 130.394 62.7918C130.09 62.7918 129.42 59.1197 127.227 59.2401C126.496 59.3003 125.46 60.5043 124.181 61.7684C122.354 63.5141 119.187 59.1197 116.324 61.046C112.792 63.4539 120.466 71.7611 118.943 73.3865C117.542 74.8312 116.994 73.3865 116.629 74.0486C115.532 75.7943 115.776 77.4799 116.141 78.443C114.741 77.4799 109.442 72.3631 108.772 67.4871C108.102 62.3102 107.919 62.6112 110.842 58.5178Z" fill="black"/>
<path d="M112.916 57.3736C112.916 57.3736 112.977 57.2532 113.098 57.1328C114.256 57.9756 115.352 58.9387 116.327 60.0223H114.377V75.6133H115.961C115.717 76.7571 115.9 77.7804 116.144 78.4426C114.743 77.4795 109.444 72.3627 108.774 67.4867C107.556 58.2766 112.916 57.3736 112.916 57.3736Z" fill="black"/>
<path d="M118.396 76.6973C117.543 77.4197 115.959 76.8779 114.802 75.5536C113.706 74.2894 113.462 72.6641 114.254 71.9418C115.046 71.2796 116.629 71.7612 117.787 73.0855C118.944 74.4098 119.188 76.0352 118.396 76.6973Z" fill="white"/>
<path d="M128.324 143.336C127.532 142.433 126.74 141.59 125.948 140.687C126.923 141.711 127.958 142.674 129.055 143.517C129.298 143.697 129.786 144.119 130.09 143.818C130.76 143.276 128.202 140.748 127.715 140.206C127.288 139.784 126.862 139.363 126.497 138.881C127.532 139.604 128.811 140.447 129.786 139.303C129.847 139.243 129.968 139.122 129.908 139.002C129.786 138.52 128.385 138.039 128.019 137.798C126.679 137.075 125.644 135.932 124.365 135.27C124.182 135.149 122.903 134.728 122.599 134.607C122.538 134.607 121.868 134.186 121.441 133.644L121.076 134.186L119.249 132.922C118.152 133.704 117.117 134.607 116.203 135.631L116.873 137.256C117.299 137.978 117.787 138.641 118.152 139.122C118.7 139.784 119.127 140.326 119.675 141.048C120.101 141.65 120.832 142.493 121.38 143.035C122.659 144.179 123.451 144.901 124.73 146.105C124.913 146.286 125.157 146.526 125.461 146.526C125.705 146.526 125.766 146.466 125.705 146.225C125.583 145.443 124.182 143.637 123.878 142.854C124.791 144.058 125.705 145.082 126.74 146.165C127.045 146.406 127.593 146.827 127.898 146.346C128.202 145.985 127.837 145.443 127.593 145.142C127.167 144.54 126.74 143.938 126.314 143.396C127.045 144.299 127.776 145.142 128.689 145.804C128.872 145.985 129.177 145.985 129.359 145.864C130.029 145.443 128.689 143.757 128.324 143.336Z" fill="white"/>
<path fill-rule="evenodd" clip-rule="evenodd" d="M106.154 91.9871C106.154 85.847 104.509 85.0042 104.083 85.0644C100.833 85.5742 98.1079 87.2494 96.7574 89.7247C96.518 90.155 96.3192 90.6089 96.1649 91.0842C95.1295 94.2144 93.5459 110.769 97.8095 119.076C97.9922 120.099 117.239 139.182 117.239 139.182C117.253 139.177 117.268 139.172 117.284 139.166C117.294 139.176 117.3 139.182 117.3 139.182L117.304 139.179C118.528 138.514 122.842 136.169 122.721 133.643C119.325 128.366 116.055 124.816 113.093 121.6C110.582 118.875 108.292 116.39 106.336 113.297C105.667 108.359 105.786 105.254 105.955 100.868C106.047 98.4634 106.154 95.6742 106.154 91.9871Z" fill="#D3405E"/>
<defs>
<linearGradient id="paint0_linear_692_45287" x1="189.037" y1="19.79" x2="189.037" y2="248.709" gradientUnits="userSpaceOnUse">
<stop stop-color="#245795"/>
<stop offset="1" stop-color="#8AD3A8"/>
</linearGradient>
<linearGradient id="paint1_linear_692_45287" x1="-103.161" y1="57.019" x2="42.717" y2="302.268" gradientUnits="userSpaceOnUse">
<stop stop-color="#245795"/>
<stop offset="1" stop-color="#8AD3A8"/>
</linearGradient>
<linearGradient id="paint2_linear_692_45287" x1="179.077" y1="28.8685" x2="260.522" y2="73.865" gradientUnits="userSpaceOnUse">
<stop stop-color="#245795"/>
<stop offset="1" stop-color="#8AD3A8"/>
</linearGradient>
<linearGradient id="paint3_linear_692_45287" x1="158.987" y1="28.9496" x2="240.633" y2="74.3271" gradientUnits="userSpaceOnUse">
<stop stop-color="#245795"/>
<stop offset="1" stop-color="#8AD3A8"/>
</linearGradient>
<linearGradient id="paint4_linear_692_45287" x1="167.346" y1="130.488" x2="239.89" y2="166.313" gradientUnits="userSpaceOnUse">
<stop stop-color="#E8E8FA"/>
<stop offset="0.196" stop-color="#E1E1F8"/>
<stop offset="0.4828" stop-color="#CDCEF4"/>
<stop offset="0.8239" stop-color="#ADAEEC"/>
<stop offset="1" stop-color="#9A9BE8"/>
</linearGradient>
<linearGradient id="paint5_linear_692_45287" x1="214.159" y1="74.8721" x2="285.363" y2="124.865" gradientUnits="userSpaceOnUse">
<stop stop-color="#245795"/>
<stop offset="1" stop-color="#8AD3A8"/>
</linearGradient>
<linearGradient id="paint6_linear_692_45287" x1="194.069" y1="74.9533" x2="265.357" y2="125.315" gradientUnits="userSpaceOnUse">
<stop stop-color="#245795"/>
<stop offset="1" stop-color="#8AD3A8"/>
</linearGradient>
<linearGradient id="paint7_linear_692_45287" x1="202.23" y1="151.554" x2="274.774" y2="187.379" gradientUnits="userSpaceOnUse">
<stop stop-color="#E8E8FA"/>
<stop offset="0.196" stop-color="#E1E1F8"/>
<stop offset="0.4828" stop-color="#CDCEF4"/>
<stop offset="0.8239" stop-color="#ADAEEC"/>
<stop offset="1" stop-color="#9A9BE8"/>
</linearGradient>
<linearGradient id="paint8_linear_692_45287" x1="249.042" y1="116.884" x2="307.196" y2="169.8" gradientUnits="userSpaceOnUse">
<stop stop-color="#245795"/>
<stop offset="1" stop-color="#8AD3A8"/>
</linearGradient>
<linearGradient id="paint9_linear_692_45287" x1="228.952" y1="116.965" x2="287.073" y2="170.192" gradientUnits="userSpaceOnUse">
<stop stop-color="#245795"/>
<stop offset="1" stop-color="#8AD3A8"/>
</linearGradient>
<linearGradient id="paint10_linear_692_45287" x1="238.594" y1="171.318" x2="311.139" y2="207.142" gradientUnits="userSpaceOnUse">
<stop stop-color="#E8E8FA"/>
<stop offset="0.196" stop-color="#E1E1F8"/>
<stop offset="0.4828" stop-color="#CDCEF4"/>
<stop offset="0.8239" stop-color="#ADAEEC"/>
<stop offset="1" stop-color="#9A9BE8"/>
</linearGradient>
<linearGradient id="paint11_linear_692_45287" x1="285.409" y1="155.318" x2="327.471" y2="207.301" gradientUnits="userSpaceOnUse">
<stop stop-color="#245795"/>
<stop offset="1" stop-color="#8AD3A8"/>
</linearGradient>
<linearGradient id="paint12_linear_692_45287" x1="265.319" y1="155.399" x2="307.255" y2="207.581" gradientUnits="userSpaceOnUse">
<stop stop-color="#245795"/>
<stop offset="1" stop-color="#8AD3A8"/>
</linearGradient>
<linearGradient id="paint13_linear_692_45287" x1="182.38" y1="95.8027" x2="288.711" y2="95.8027" gradientUnits="userSpaceOnUse">
<stop stop-color="#41419B"/>
<stop offset="1" stop-color="#9A9BE8"/>
</linearGradient>
<linearGradient id="paint14_linear_692_45287" x1="-10.4197" y1="-143.204" x2="669.673" y2="144.616" gradientUnits="userSpaceOnUse">
<stop stop-color="#245795"/>
<stop offset="1" stop-color="#8AD3A8"/>
</linearGradient>
<radialGradient id="paint15_radial_692_45287" cx="0" cy="0" r="1" gradientUnits="userSpaceOnUse" gradientTransform="translate(278.503 113.161) scale(3.12612 3.12612)">
<stop stop-color="#9A9BE8"/>
<stop offset="0.154" stop-color="#9697E5"/>
<stop offset="0.3228" stop-color="#8889DB"/>
<stop offset="0.4986" stop-color="#7373CB"/>
<stop offset="0.6791" stop-color="#5455B5"/>
<stop offset="0.8617" stop-color="#2E2E98"/>
<stop offset="1" stop-color="#0B0B7F"/>
</radialGradient>
<linearGradient id="paint16_linear_692_45287" x1="264.025" y1="102.718" x2="299.65" y2="123.016" gradientUnits="userSpaceOnUse">
<stop stop-color="#245795"/>
<stop offset="1" stop-color="#8AD3A8"/>
</linearGradient>
<radialGradient id="paint17_radial_692_45287" cx="0" cy="0" r="1" gradientUnits="userSpaceOnUse" gradientTransform="translate(252.633 134.082) scale(2.08405 2.08405)">
<stop stop-color="#9A9BE8"/>
<stop offset="0.154" stop-color="#9697E5"/>
<stop offset="0.3228" stop-color="#8889DB"/>
<stop offset="0.4986" stop-color="#7373CB"/>
<stop offset="0.6791" stop-color="#5455B5"/>
<stop offset="0.8617" stop-color="#2E2E98"/>
<stop offset="1" stop-color="#0B0B7F"/>
</radialGradient>
<linearGradient id="paint18_linear_692_45287" x1="242.994" y1="127.127" x2="266.71" y2="140.64" gradientUnits="userSpaceOnUse">
<stop stop-color="#245795"/>
<stop offset="1" stop-color="#8AD3A8"/>
</linearGradient>
<radialGradient id="paint19_radial_692_45287" cx="0" cy="0" r="1" gradientUnits="userSpaceOnUse" gradientTransform="translate(288.349 167.318) scale(2.08405 2.08405)">
<stop stop-color="#9A9BE8"/>
<stop offset="0.154" stop-color="#9697E5"/>
<stop offset="0.3228" stop-color="#8889DB"/>
<stop offset="0.4986" stop-color="#7373CB"/>
<stop offset="0.6791" stop-color="#5455B5"/>
<stop offset="0.8617" stop-color="#2E2E98"/>
<stop offset="1" stop-color="#0B0B7F"/>
</radialGradient>
<linearGradient id="paint20_linear_692_45287" x1="278.716" y1="160.365" x2="302.433" y2="173.878" gradientUnits="userSpaceOnUse">
<stop stop-color="#245795"/>
<stop offset="1" stop-color="#8AD3A8"/>
</linearGradient>
<radialGradient id="paint21_radial_692_45287" cx="0" cy="0" r="1" gradientUnits="userSpaceOnUse" gradientTransform="translate(242.003 72.7053) scale(3.12612 3.12612)">
<stop stop-color="#9A9BE8"/>
<stop offset="0.154" stop-color="#9697E5"/>
<stop offset="0.3228" stop-color="#8889DB"/>
<stop offset="0.4986" stop-color="#7373CB"/>
<stop offset="0.6791" stop-color="#5455B5"/>
<stop offset="0.8617" stop-color="#2E2E98"/>
<stop offset="1" stop-color="#0B0B7F"/>
</radialGradient>
<linearGradient id="paint22_linear_692_45287" x1="227.529" y1="62.2549" x2="263.154" y2="82.5529" gradientUnits="userSpaceOnUse">
<stop stop-color="#245795"/>
<stop offset="1" stop-color="#8AD3A8"/>
</linearGradient>
<radialGradient id="paint23_radial_692_45287" cx="0" cy="0" r="1" gradientUnits="userSpaceOnUse" gradientTransform="translate(217.152 97.0853) scale(2.08405 2.08405)">
<stop stop-color="#9A9BE8"/>
<stop offset="0.154" stop-color="#9697E5"/>
<stop offset="0.3228" stop-color="#8889DB"/>
<stop offset="0.4986" stop-color="#7373CB"/>
<stop offset="0.6791" stop-color="#5455B5"/>
<stop offset="0.8617" stop-color="#2E2E98"/>
<stop offset="1" stop-color="#0B0B7F"/>
</radialGradient>
<linearGradient id="paint24_linear_692_45287" x1="207.517" y1="90.1269" x2="231.234" y2="103.64" gradientUnits="userSpaceOnUse">
<stop stop-color="#245795"/>
<stop offset="1" stop-color="#8AD3A8"/>
</linearGradient>
<radialGradient id="paint25_radial_692_45287" cx="0" cy="0" r="1" gradientUnits="userSpaceOnUse" gradientTransform="translate(207.479 25.1261) scale(3.12612)">
<stop stop-color="#9A9BE8"/>
<stop offset="0.154" stop-color="#9697E5"/>
<stop offset="0.3228" stop-color="#8889DB"/>
<stop offset="0.4986" stop-color="#7373CB"/>
<stop offset="0.6791" stop-color="#5455B5"/>
<stop offset="0.8617" stop-color="#2E2E98"/>
<stop offset="1" stop-color="#0B0B7F"/>
</radialGradient>
<linearGradient id="paint26_linear_692_45287" x1="193.006" y1="14.6816" x2="228.631" y2="34.9796" gradientUnits="userSpaceOnUse">
<stop stop-color="#245795"/>
<stop offset="1" stop-color="#8AD3A8"/>
</linearGradient>
<radialGradient id="paint27_radial_692_45287" cx="0" cy="0" r="1" gradientUnits="userSpaceOnUse" gradientTransform="translate(182.668 56.4056) scale(2.08405)">
<stop stop-color="#9A9BE8"/>
<stop offset="0.154" stop-color="#9697E5"/>
<stop offset="0.3228" stop-color="#8889DB"/>
<stop offset="0.4986" stop-color="#7373CB"/>
<stop offset="0.6791" stop-color="#5455B5"/>
<stop offset="0.8617" stop-color="#2E2E98"/>
<stop offset="1" stop-color="#0B0B7F"/>
</radialGradient>
<linearGradient id="paint28_linear_692_45287" x1="173.033" y1="49.4522" x2="196.749" y2="62.9651" gradientUnits="userSpaceOnUse">
<stop stop-color="#245795"/>
<stop offset="1" stop-color="#8AD3A8"/>
</linearGradient>
</defs>
</svg>
