<svg width="25" height="24" viewBox="0 0 25 24" fill="none" xmlns="http://www.w3.org/2000/svg">
<path d="M22.4994 16.92V19.92C22.5006 20.1985 22.4435 20.4742 22.332 20.7294C22.2204 20.9845 22.0567 21.2136 21.8515 21.4019C21.6463 21.5901 21.404 21.7335 21.1402 21.8227C20.8764 21.9119 20.5968 21.9451 20.3194 21.92C17.2423 21.5856 14.2864 20.5342 11.6894 18.85C9.27327 17.3147 7.22478 15.2662 5.68945 12.85C3.99942 10.2412 2.94769 7.271 2.61944 4.18001C2.59446 3.90347 2.62732 3.62477 2.71595 3.36163C2.80457 3.09849 2.94702 2.85669 3.13421 2.65163C3.32141 2.44656 3.54925 2.28271 3.80324 2.17053C4.05722 2.05834 4.33179 2.00027 4.60945 2.00001H7.60945C8.09475 1.99523 8.56524 2.16708 8.93321 2.48354C9.30118 2.79999 9.54152 3.23945 9.60944 3.72001C9.73607 4.68007 9.97089 5.62273 10.3094 6.53001C10.444 6.88793 10.4731 7.27692 10.3934 7.65089C10.3136 8.02485 10.1283 8.36812 9.85944 8.64001L8.58945 9.91001C10.013 12.4136 12.0859 14.4865 14.5894 15.91L15.8594 14.64C16.1313 14.3711 16.4746 14.1859 16.8486 14.1061C17.2225 14.0263 17.6115 14.0555 17.9694 14.19C18.8767 14.5286 19.8194 14.7634 20.7794 14.89C21.2652 14.9585 21.7088 15.2032 22.026 15.5775C22.3431 15.9518 22.5116 16.4296 22.4994 16.92Z" stroke="white" stroke-width="2" stroke-linecap="round" stroke-linejoin="round"/>
</svg>
