<svg width="388" height="418" viewBox="0 0 388 418" fill="none" xmlns="http://www.w3.org/2000/svg">
<g opacity="0.1">
<path d="M93.5 282.698L138.037 326.789L93.5 370.547L48.9633 326.789L93.5 282.698Z" fill="#FFDF5A"/>
<path d="M93.8615 370.682H69.0583L69.0583 608.687H29.3792L29.3792 529.638H-49.9791L-49.9791 608.687H-89.6582L-89.6582 410.361H-49.9791L-49.9791 489.959H29.3792L29.3792 370.682H4.576L49.2238 326.044L93.8615 370.682Z" fill="#8B00FF"/>
<path d="M93.1385 370.682H117.942L117.942 608.687H157.621L157.621 529.638H236.979L236.979 608.687H276.658L276.658 410.361H236.979L236.979 489.959H157.621L157.621 370.682H182.424L137.776 326.044L93.1385 370.682Z" fill="#8B00FF"/>
<path d="M93.8615 282.542H69.0583L69.0583 44.537H29.3792L29.3792 123.586L-49.9791 123.586L-49.9791 44.537H-89.6582L-89.6582 242.863H-49.9791L-49.9791 163.265L29.3792 163.265L29.3792 282.542H4.576L49.2238 327.18L93.8615 282.542Z" fill="#8B00FF"/>
<path d="M93.1385 282.542H117.942L117.942 44.537H157.621L157.621 123.586L236.979 123.586L236.979 44.537H276.658L276.658 242.863H236.979L236.979 163.265L157.621 163.265L157.621 282.542H182.424L137.776 327.18L93.1385 282.542Z" fill="#8B00FF"/>
</g>
</svg>
