<svg width="337" height="388" viewBox="0 0 337 388" fill="none" xmlns="http://www.w3.org/2000/svg">
<g opacity="0.1">
<path d="M294.5 17.6976L339.037 61.7889L294.5 105.547L249.963 61.7889L294.5 17.6976Z" fill="#FFDF5A"/>
<path d="M294.862 105.682H270.058L270.058 343.687H230.379L230.379 264.638H151.021L151.021 343.687H111.342L111.342 145.361H151.021L151.021 224.959L230.379 224.959L230.379 105.682L205.576 105.682L250.224 61.0439L294.862 105.682Z" fill="#8B00FF"/>
<path d="M294.138 105.682H318.942L318.942 343.687H358.621L358.621 264.638H437.979V343.687H477.658L477.658 145.361H437.979V224.959L358.621 224.959V105.682L383.424 105.682L338.776 61.0439L294.138 105.682Z" fill="#8B00FF"/>
<path d="M294.862 17.5419H270.058L270.058 -220.463H230.379L230.379 -141.414L151.021 -141.414L151.021 -220.463H111.342L111.342 -22.1372H151.021L151.021 -101.735L230.379 -101.735L230.379 17.5419L205.576 17.5419L250.224 62.1797L294.862 17.5419Z" fill="#8B00FF"/>
<path d="M294.138 17.5419H318.942L318.942 -220.463H358.621L358.621 -141.414L437.979 -141.414V-220.463H477.658L477.658 -22.1372H437.979V-101.735L358.621 -101.735V17.5419L383.424 17.5419L338.776 62.1797L294.138 17.5419Z" fill="#8B00FF"/>
</g>
</svg>
