<svg viewBox="0 0 610 380" fill="none" xmlns="http://www.w3.org/2000/svg"><path d="M339.612 152.585c.236-.281.536-.575.787-.869.252-.294.568-.575.863-.855a26.039 26.039 0 0 1 3.1-2.417c.348-.235.696-.452 1.044-.665l-5.794 4.806Z" fill="#3FBDF1"/><path d="M417.403 167.297v-.014" stroke="#000" stroke-width="5.14" stroke-miterlimit="10"/><path d="M410.875 33h-207.75C177.651 33 157 50.363 157 71.78v164.44c0 21.417 20.651 38.78 46.125 38.78h207.75C436.349 275 457 257.637 457 236.22V71.78C457 50.363 436.349 33 410.875 33Z" fill="#F9F9F9"/><path d="M406.952 33H205.175C178.569 33 157 51.226 157 73.71v160.284c0 22.484 21.569 40.71 48.175 40.71h201.777c26.606 0 48.175-18.226 48.175-40.71V73.709c0-22.483-21.569-40.709-48.175-40.709Z" stroke="#A9BFF8" stroke-width="4" stroke-miterlimit="10"/><path d="M406.748 41H210.253C184.708 41 164 58.252 164 79.534v153.933C164 254.748 184.708 272 210.253 272h196.495C432.292 272 453 254.748 453 233.467V79.533C453 58.253 432.292 41 406.748 41Z" fill="#E7EDFB"/><path d="M276.762 230.351c-.212.595-.647 1.117-1.239 1.487-.593.37-1.31.567-2.047.563l-6.004-.073c.642-.849.992-1.833 1.011-2.84.018-1.008-.297-2-.909-2.865l6.005.074c.895.014 1.748.326 2.371.869.623.543.967 1.273.955 2.029a2.222 2.222 0 0 1-.143.756Z" fill="#FFBD5C"/><path d="M267.472 232.327c-.755 1-1.878 1.762-3.196 2.168a7.5 7.5 0 0 1-4.098.082c-1.34-.354-2.504-1.071-3.314-2.04-.809-.968-1.218-2.135-1.165-3.32a4.73 4.73 0 0 1 .571-2.054 5.538 5.538 0 0 1 1.458-1.713 6.674 6.674 0 0 1 2.123-1.109 7.454 7.454 0 0 1 2.464-.337 7.362 7.362 0 0 1 2.433.479 6.476 6.476 0 0 1 2.027 1.232c.574.52 1.02 1.13 1.313 1.796.293.666.428 1.374.397 2.084-.043.971-.393 1.914-1.013 2.732Z" fill="#fff"/><path d="M368.705 99.953c.221-.62.674-1.163 1.291-1.549a4 4 0 0 1 2.131-.587l6.254.078c-.669.884-1.034 1.908-1.053 2.957-.019 1.05.309 2.083.946 2.983l-6.254-.076c-.933-.014-1.82-.34-2.469-.905-.649-.566-1.008-1.326-.996-2.113a2.33 2.33 0 0 1 .15-.788Z" fill="#FFBD5C"/><path d="M377.997 97.956c.622-1.054 1.546-1.857 2.632-2.286a4.88 4.88 0 0 1 3.373-.086c1.103.374 2.062 1.13 2.728 2.15a6.03 6.03 0 0 1 .96 3.502 6.115 6.115 0 0 1-.47 2.166 5.707 5.707 0 0 1-1.201 1.805c-.506.511-1.1.908-1.748 1.17a4.935 4.935 0 0 1-4.031-.15 5.287 5.287 0 0 1-1.669-1.299 5.763 5.763 0 0 1-1.081-1.893 6.125 6.125 0 0 1 .507-5.079Z" fill="#fff"/><path d="M276.237 242.809c-.211.595-.645 1.115-1.236 1.483a3.827 3.827 0 0 1-2.044.555l-82.652-1.021c.917-.918 1.439-2.071 1.48-3.271a4.555 4.555 0 0 0-.57-2.416l81.835.999c.894.015 1.745.328 2.367.871.622.543.965 1.271.954 2.027 0 .262-.045.522-.134.773Z" fill="#FFBD5C"/><path d="M190.305 243.825a6.405 6.405 0 0 1-2.242 1.448 7.4 7.4 0 0 1-2.762.491 7.365 7.365 0 0 1-2.743-.561 6.291 6.291 0 0 1-2.19-1.504c-.94-1-1.424-2.252-1.363-3.528a4.932 4.932 0 0 1 .638-2.172c.542-.94 1.394-1.728 2.454-2.268a7.344 7.344 0 0 1 3.52-.773 7.15 7.15 0 0 1 3.338.907c.99.561 1.771 1.348 2.255 2.269.414.755.61 1.583.571 2.415-.039 1.202-.559 2.357-1.476 3.276Z" fill="#fff"/><path d="M369.202 86.974c.142-.619.436-1.16.837-1.544.401-.382.887-.585 1.385-.578l56.01 1.064c-.622.955-.976 2.157-1.004 3.407a6.88 6.88 0 0 0 .387 2.516l-55.456-1.041c-.605-.016-1.182-.341-1.603-.907-.422-.565-.655-1.324-.647-2.111 0-.273.03-.544.091-.806Z" fill="#FFBD5C"/><path d="M427.943 85.239a7.003 7.003 0 0 1 2.463-1.647 7.885 7.885 0 0 1 3.034-.558 7.858 7.858 0 0 1 3.013.637c.938.407 1.76.991 2.406 1.71 1.032 1.137 1.564 2.56 1.497 4.011a5.75 5.75 0 0 1-.701 2.47c-.595 1.068-1.531 1.964-2.696 2.578a7.834 7.834 0 0 1-3.866.879 7.658 7.658 0 0 1-3.667-1.03c-1.087-.64-1.946-1.534-2.477-2.58a5.333 5.333 0 0 1-.627-2.747c.042-1.366.614-2.679 1.621-3.724Zm-242.941-7.021.15 17.352c.037 3.026 1.457 5.921 3.963 8.082 2.506 2.16 5.904 3.418 9.482 3.511l20.348.298a15.186 15.186 0 0 0 5.093-.814 13.437 13.437 0 0 0 4.318-2.425c1.233-1.044 2.206-2.286 2.861-3.653a9.54 9.54 0 0 0 .953-4.306l-.155-17.348c-.032-3.029-1.449-5.93-3.955-8.094-2.507-2.164-5.908-3.425-9.49-3.517l-20.348-.303c-1.746-.019-3.48.26-5.097.817-1.617.558-3.086 1.384-4.318 2.43-1.233 1.046-2.205 2.29-2.859 3.659a9.551 9.551 0 0 0-.946 4.31Z" fill="#fff"/><path d="m188.129 82.57.107 12.561c.033 2.629 1.267 5.144 3.445 7.022 2.177 1.877 5.129 2.97 8.239 3.05l17.67.258c1.517.019 3.024-.22 4.43-.702a11.659 11.659 0 0 0 3.756-2.104c1.074-.906 1.92-1.986 2.49-3.174a8.291 8.291 0 0 0 .831-3.743v-.851c-2.479-4.285-7.309-10.697-12.46-6.864-7.427 5.515-10.827 1.317-15.154-4.095-3.646-4.53-9.14-7.837-13.354-1.358Zm33.214-1.73c2.241-1.259 2.819-3.855 1.291-5.8-1.529-1.943-4.585-2.499-6.826-1.24-2.242 1.258-2.82 3.854-1.291 5.798 1.528 1.944 4.584 2.5 6.826 1.241ZM239.931 145c-1.638-.001-3.237.428-4.576 1.228-1.339.8-2.352 1.932-2.902 3.24a5.757 5.757 0 0 0-.165 4.067c.442 1.337 1.361 2.526 2.632 3.402l-18.039 27.432a4.149 4.149 0 0 0-.387-.033c-.331.004-.66.047-.977.128L202 170.234c.598-.707.935-1.549.967-2.418.032-.869-.241-1.727-.786-2.464-.545-.737-1.336-1.321-2.272-1.676a6.02 6.02 0 0 0-2.988-.318c-1.011.148-1.948.547-2.69 1.147-.743.6-1.258 1.374-1.481 2.223a3.763 3.763 0 0 0 .231 2.545c.374.81 1.023 1.508 1.865 2.005l-9.466 22.844c-.828.041-1.614.324-2.224.801-.61.476-1.006 1.117-1.121 1.814a2.668 2.668 0 0 0 .489 2.006c.432.6 1.096 1.056 1.879 1.288a4.194 4.194 0 0 0 2.416-.013c.779-.241 1.436-.703 1.858-1.309a2.66 2.66 0 0 0 .46-2.01c-.126-.695-.531-1.332-1.148-1.803l9.469-22.844c.116 0 .229.014.345.014a5.963 5.963 0 0 0 2.052-.358l13.506 14.229a2.64 2.64 0 0 0-.43 1.498c.012.523.185 1.034.501 1.483.317.448.765.82 1.302 1.077a4.062 4.062 0 0 0 1.76.389 4.039 4.039 0 0 0 1.896-.455c.569-.3 1.027-.73 1.32-1.241.293-.51.41-1.081.337-1.646a2.784 2.784 0 0 0-.748-1.545l18.04-27.423a9.253 9.253 0 0 0 3.394.336 8.937 8.937 0 0 0 3.245-.907 7.54 7.54 0 0 0 2.494-1.98 6.189 6.189 0 0 0 1.28-2.687 5.734 5.734 0 0 0-.173-2.893 6.46 6.46 0 0 0-1.593-2.563 7.93 7.93 0 0 0-2.718-1.756 9.147 9.147 0 0 0-3.337-.624Zm41.031 114.148c-.21.596-.647 1.118-1.242 1.485a3.82 3.82 0 0 1-2.053.548l-12.097-.157-10.796-.126c-.63-.853-.964-1.839-.964-2.845 0-1.006.334-1.992.964-2.846l10.981.139 12.01.144c.892.012 1.742.322 2.364.863.623.541.967 1.267.957 2.021.006.262-.036.522-.124.774Z" fill="#FFBD5C"/><path d="M260.75 261.366c-.768.983-1.895 1.727-3.21 2.12a7.537 7.537 0 0 1-4.074.055c-1.329-.357-2.484-1.071-3.289-2.033-.806-.961-1.218-2.119-1.174-3.296.043-.943.372-1.86.956-2.663.586-.792 1.403-1.442 2.373-1.889a7.378 7.378 0 0 1 3.164-.659 7.324 7.324 0 0 1 3.14.739c.954.47 1.748 1.142 2.305 1.948.611.88.911 1.89.863 2.91-.044.987-.409 1.944-1.054 2.768Z" fill="#fff"/><path d="M368.51 71.718c.22-.621.674-1.165 1.294-1.547a3.975 3.975 0 0 1 2.139-.57l12.599.162 11.245.132c.656.889 1.004 1.916 1.004 2.963 0 1.048-.348 2.075-1.004 2.964l-11.438-.145-12.508-.149c-.93-.013-1.815-.336-2.463-.9-.648-.562-1.006-1.319-.996-2.104a2.27 2.27 0 0 1 .128-.806Z" fill="#FFBD5C"/><path d="M393.025 69.803a5.693 5.693 0 0 1 9.42-.151 5.736 5.736 0 0 1 1.045 3.485 5.807 5.807 0 0 1-.852 2.815 5.705 5.705 0 0 1-9.782-.147 5.653 5.653 0 0 1-.77-3.077 5.714 5.714 0 0 1 .939-2.925Z" fill="#fff"/><path fill="#FDE2CC" d="M296 67h35v197h-35z"/><path fill="#F67000" d="M296 187h35v77h-35z"/><path d="M379.704 188.784c.107 0 .192.043.256.128a.305.305 0 0 1 .128.256v2.56a.398.398 0 0 1-.128.288.345.345 0 0 1-.256.096h-1.344c-.107 0-.16.053-.16.16v5.344a.398.398 0 0 1-.128.288.345.345 0 0 1-.256.096h-2.944a.467.467 0 0 1-.288-.096.467.467 0 0 1-.096-.288v-5.344c0-.107-.053-.16-.16-.16H364.6a.467.467 0 0 1-.288-.096.467.467 0 0 1-.096-.288v-2.048c0-.128.032-.288.096-.48l6.048-13.312a.453.453 0 0 1 .448-.288h3.136c.149 0 .245.043.288.128.064.064.064.171 0 .32l-5.696 12.544a.138.138 0 0 0 0 .128c.021.043.053.064.096.064h5.696c.107 0 .16-.053.16-.16v-4.352c0-.107.032-.192.096-.256a.398.398 0 0 1 .288-.128h2.944c.107 0 .192.043.256.128a.305.305 0 0 1 .128.256v4.352c0 .107.053.16.16.16h1.344Zm11.071 9.568c-2.24 0-4.022-.629-5.344-1.888-1.302-1.28-1.952-2.997-1.952-5.152v-9.024c0-2.133.65-3.819 1.952-5.056 1.322-1.259 3.104-1.888 5.344-1.888s4.021.629 5.344 1.888c1.344 1.237 2.016 2.923 2.016 5.056v9.024c0 2.155-.672 3.872-2.016 5.152-1.323 1.259-3.104 1.888-5.344 1.888Zm0-3.232c1.109 0 1.994-.32 2.656-.96.661-.661.992-1.547.992-2.656v-9.344c0-1.109-.331-1.984-.992-2.624-.662-.661-1.547-.992-2.656-.992-1.088 0-1.963.331-2.624.992-.64.64-.96 1.515-.96 2.624v9.344c0 1.109.32 1.995.96 2.656.661.64 1.536.96 2.624.96Zm16.395-10.048a5.052 5.052 0 0 1-2.496-.64 5.15 5.15 0 0 1-1.792-1.792 4.887 4.887 0 0 1-.64-2.464c0-.875.214-1.685.64-2.432a4.893 4.893 0 0 1 1.792-1.76 4.868 4.868 0 0 1 2.496-.672 4.64 4.64 0 0 1 2.432.672 4.582 4.582 0 0 1 1.792 1.76c.448.747.672 1.557.672 2.432a4.7 4.7 0 0 1-.672 2.464 4.878 4.878 0 0 1-1.76 1.792 4.874 4.874 0 0 1-2.464.64ZM406.114 198c-.149 0-.245-.043-.288-.128-.042-.085-.032-.192.032-.32l12.064-21.696a.529.529 0 0 1 .48-.256h1.856c.15 0 .246.043.288.128.043.085.032.192-.032.32l-12.032 21.696a.527.527 0 0 1-.48.256h-1.888Zm1.056-15.168c.726 0 1.334-.256 1.824-.768.512-.512.768-1.141.768-1.888a2.53 2.53 0 0 0-.768-1.856c-.49-.512-1.098-.768-1.824-.768-.746 0-1.376.256-1.888.768a2.53 2.53 0 0 0-.768 1.856c0 .747.256 1.376.768 1.888s1.142.768 1.888.768Zm12.32 15.456a5.052 5.052 0 0 1-2.496-.64 5.15 5.15 0 0 1-1.792-1.792 4.887 4.887 0 0 1-.64-2.464c0-.875.214-1.685.64-2.432a4.893 4.893 0 0 1 1.792-1.76 4.868 4.868 0 0 1 2.496-.672 4.64 4.64 0 0 1 2.432.672 4.582 4.582 0 0 1 1.792 1.76c.448.747.672 1.557.672 2.432a4.7 4.7 0 0 1-.672 2.464 4.878 4.878 0 0 1-1.76 1.792 4.874 4.874 0 0 1-2.464.64Zm0-2.24c.726 0 1.344-.256 1.856-.768s.768-1.141.768-1.888a2.53 2.53 0 0 0-.768-1.856 2.528 2.528 0 0 0-1.856-.768c-.746 0-1.376.256-1.888.768a2.53 2.53 0 0 0-.768 1.856c0 .747.256 1.376.768 1.888s1.142.768 1.888.768Zm-61.777-10.951c-.835.79-2.399 1.58-4.068 1.58-1.565 0-2.503-.439-3.338-.79-.834-.263-1.668-.702-3.024-.702-1.252 0-2.399.615-3.025 1.141l-1.043-1.317c.939-.79 2.399-1.667 4.068-1.667 1.564 0 2.503.526 3.337.79.835.263 1.669.79 3.025.79 1.252 0 2.399-.703 3.025-1.229l1.043 1.404Zm.104 4.301c-.939.791-2.399 1.668-4.068 1.668-1.564 0-2.503-.439-3.337-.79-.835-.263-1.669-.79-3.025-.79-1.252 0-2.399.703-3.025 1.229l-1.043-1.404c.939-.79 2.399-1.668 4.068-1.668 1.564 0 2.503.439 3.338.79.834.263 1.668.702 3.024.702 1.252 0 2.399-.702 3.025-1.229l1.043 1.492Z" fill="#F57001"/><path d="m28.119 50-3.752-9.8h1.918l3.864 9.8h-2.03Zm-7.742 0 3.864-9.8h1.918L22.407 50h-2.03Zm1.82-2.156V46.15h6.146v1.694h-6.146ZM31.057 50v-9.8h1.848V50h-1.848Zm6.33.168c-.776 0-1.364-.191-1.765-.574-.392-.383-.588-.929-.588-1.638v-7.14h1.848v6.734c0 .299.065.527.196.686.13.15.322.224.574.224a.982.982 0 0 0 .308-.056c.112-.047.229-.112.35-.196l.644 1.386a2.936 2.936 0 0 1-.756.406 2.11 2.11 0 0 1-.812.168Zm-3.487-5.6V43h4.732v1.568H33.9Zm9.276 5.6c-.69 0-1.302-.154-1.834-.462a3.445 3.445 0 0 1-1.26-1.302c-.299-.55-.448-1.185-.448-1.904 0-.719.154-1.353.462-1.904.317-.55.747-.98 1.288-1.288.55-.317 1.18-.476 1.89-.476.616 0 1.18.163 1.694.49.522.317.938.789 1.246 1.414.317.616.476 1.367.476 2.254h-5.306l.168-.168c0 .345.084.649.252.91.177.252.401.448.672.588.28.13.578.196.896.196.383 0 .695-.08.938-.238.242-.168.43-.383.56-.644l1.652.644a3.47 3.47 0 0 1-.77 1.022 3.17 3.17 0 0 1-1.106.644c-.43.15-.92.224-1.47.224Zm-1.526-4.382-.168-.168h3.374l-.154.168c0-.336-.08-.602-.238-.798a1.381 1.381 0 0 0-.588-.448 1.704 1.704 0 0 0-.658-.14c-.215 0-.444.047-.686.14a1.566 1.566 0 0 0-.63.448c-.168.196-.252.462-.252.798Zm7.416.532c0-.756.145-1.381.434-1.876.298-.495.676-.863 1.134-1.106a3.116 3.116 0 0 1 1.456-.364v1.792c-.43 0-.836.051-1.218.154-.373.103-.677.27-.91.504-.234.233-.35.532-.35.896h-.546ZM47.764 50v-7h1.848v7h-1.848Zm8.468.168c-.69 0-1.301-.154-1.834-.462a3.445 3.445 0 0 1-1.26-1.302c-.298-.55-.447-1.185-.447-1.904 0-.719.153-1.353.462-1.904.317-.55.746-.98 1.288-1.288.55-.317 1.18-.476 1.89-.476.615 0 1.18.163 1.694.49.522.317.938.789 1.245 1.414.318.616.476 1.367.476 2.254H54.44l.169-.168c0 .345.084.649.252.91.177.252.4.448.672.588.28.13.578.196.895.196.383 0 .696-.08.939-.238.242-.168.429-.383.56-.644l1.651.644a3.47 3.47 0 0 1-.77 1.022 3.17 3.17 0 0 1-1.105.644c-.43.15-.92.224-1.47.224Zm-1.526-4.382-.168-.168h3.375l-.154.168c0-.336-.08-.602-.239-.798a1.381 1.381 0 0 0-.588-.448 1.704 1.704 0 0 0-.657-.14c-.215 0-.444.047-.686.14a1.566 1.566 0 0 0-.63.448c-.169.196-.253.462-.253.798ZM65.805 50l-.099-1.302V40.2h1.849V50h-1.75Zm-2.199.168c-.644 0-1.203-.15-1.68-.448-.466-.299-.83-.723-1.092-1.274-.26-.55-.392-1.2-.392-1.946 0-.756.131-1.405.392-1.946.262-.55.626-.975 1.092-1.274.477-.299 1.036-.448 1.68-.448.589 0 1.083.15 1.485.448.41.299.723.723.938 1.274.214.541.322 1.19.322 1.946 0 .747-.108 1.395-.323 1.946-.214.55-.527.975-.938 1.274-.4.299-.895.448-1.484.448Zm.476-1.694c.318 0 .598-.084.84-.252.252-.168.449-.401.588-.7.14-.299.21-.64.21-1.022 0-.383-.07-.723-.21-1.022a1.577 1.577 0 0 0-.588-.686 1.463 1.463 0 0 0-.853-.252c-.337 0-.63.084-.883.252a1.668 1.668 0 0 0-.602.686c-.149.299-.224.64-.224 1.022 0 .383.075.723.224 1.022.15.299.35.532.602.7.262.168.56.252.896.252ZM72.75 50v-9.8h3.136c.998 0 1.88.21 2.646.63.774.42 1.376.999 1.806 1.736.438.728.658 1.573.658 2.534 0 .952-.22 1.797-.658 2.534a4.557 4.557 0 0 1-1.806 1.736c-.766.42-1.648.63-2.646.63H72.75Zm1.918-1.792h1.218c.448 0 .863-.08 1.246-.238.382-.159.714-.378.994-.658.289-.28.513-.607.672-.98.158-.383.238-.793.238-1.232 0-.439-.08-.845-.238-1.218a2.927 2.927 0 0 0-.672-.994c-.28-.28-.612-.5-.994-.658a3.22 3.22 0 0 0-1.246-.238h-1.218v6.216ZM86.513 50l-.056-1.414v-2.128c0-.42-.046-.78-.14-1.078-.084-.299-.224-.527-.42-.686-.186-.168-.443-.252-.77-.252-.298 0-.569.065-.812.196a1.65 1.65 0 0 0-.616.602l-1.624-.56c.131-.299.322-.588.574-.868.252-.29.579-.523.98-.7.411-.187.91-.28 1.498-.28.71 0 1.298.135 1.764.406.476.27.826.653 1.05 1.148.234.485.346 1.064.336 1.736L88.235 50h-1.722Zm-1.96.168c-.84 0-1.493-.187-1.96-.56-.457-.373-.686-.9-.686-1.582 0-.747.248-1.307.742-1.68.504-.383 1.209-.574 2.114-.574h1.778v1.372h-1.134c-.606 0-1.026.075-1.26.224a.665.665 0 0 0-.35.602.56.56 0 0 0 .28.49c.187.112.448.168.784.168.308 0 .579-.07.812-.21.243-.15.434-.336.574-.56.14-.233.21-.471.21-.714h.448c0 .952-.182 1.694-.546 2.226-.354.532-.956.798-1.806.798Zm8.081 0c-.775 0-1.362-.191-1.764-.574-.392-.383-.588-.929-.588-1.638v-7.14h1.848v6.734c0 .299.066.527.196.686.13.15.322.224.574.224a.982.982 0 0 0 .308-.056c.112-.047.229-.112.35-.196l.644 1.386a2.936 2.936 0 0 1-.756.406c-.27.112-.541.168-.812.168Zm-3.486-5.6V43h4.732v1.568h-4.732Zm9.276 5.6c-.69 0-1.302-.154-1.834-.462a3.445 3.445 0 0 1-1.26-1.302c-.299-.55-.448-1.185-.448-1.904 0-.719.154-1.353.462-1.904.317-.55.747-.98 1.288-1.288.55-.317 1.18-.476 1.89-.476.616 0 1.18.163 1.694.49.523.317.938.789 1.246 1.414.317.616.476 1.367.476 2.254h-5.306l.168-.168c0 .345.084.649.252.91.177.252.401.448.672.588.28.13.579.196.896.196.383 0 .695-.08.938-.238.243-.168.43-.383.56-.644l1.652.644A3.474 3.474 0 0 1 101 49.3c-.308.28-.677.495-1.106.644-.43.15-.92.224-1.47.224Zm-1.526-4.382-.168-.168h3.374l-.154.168c0-.336-.08-.602-.238-.798a1.381 1.381 0 0 0-.588-.448 1.704 1.704 0 0 0-.658-.14c-.215 0-.443.047-.686.14a1.566 1.566 0 0 0-.63.448c-.168.196-.252.462-.252.798Zm8.732 4.382a3.95 3.95 0 0 1-1.26-.196 3.327 3.327 0 0 1-1.036-.588 2.74 2.74 0 0 1-.7-.952l1.582-.728c.14.224.331.42.574.588a1.5 1.5 0 0 0 .84.238c.308 0 .546-.042.714-.126.168-.093.252-.224.252-.392s-.07-.29-.21-.364a1.808 1.808 0 0 0-.546-.21l-.644-.168c-.672-.177-1.204-.457-1.596-.84-.383-.392-.574-.84-.574-1.344 0-.719.229-1.274.686-1.666.467-.392 1.125-.588 1.974-.588.439 0 .845.065 1.218.196.383.13.709.313.98.546.271.233.457.504.56.812l-1.526.7c-.065-.187-.224-.336-.476-.448a1.73 1.73 0 0 0-.756-.182c-.252 0-.448.056-.588.168a.52.52 0 0 0-.196.434c0 .121.065.224.196.308.131.075.317.14.56.196l.91.224c.457.112.821.294 1.092.546.28.243.481.518.602.826.131.299.196.593.196.882 0 .42-.126.793-.378 1.12-.243.317-.579.565-1.008.742-.42.177-.901.266-1.442.266ZM22.375 248v-9.8h6.287v1.75h-4.368v2.352h3.64v1.75h-3.64V248h-1.919Zm10.667.168c-.71 0-1.344-.154-1.904-.462a3.481 3.481 0 0 1-1.302-1.302c-.308-.551-.462-1.185-.462-1.904 0-.719.154-1.353.462-1.904.308-.551.737-.98 1.288-1.288.55-.317 1.18-.476 1.89-.476.719 0 1.353.159 1.904.476.55.308.98.737 1.288 1.288.308.551.462 1.185.462 1.904 0 .719-.154 1.353-.462 1.904a3.38 3.38 0 0 1-1.288 1.302c-.541.308-1.167.462-1.876.462Zm0-1.708c.345 0 .649-.084.91-.252.261-.168.462-.397.602-.686.15-.299.224-.639.224-1.022s-.075-.719-.224-1.008a1.695 1.695 0 0 0-.63-.7 1.646 1.646 0 0 0-.91-.252c-.336 0-.64.084-.91.252a1.73 1.73 0 0 0-.616.7c-.15.289-.224.625-.224 1.008s.075.723.224 1.022c.15.289.36.518.63.686.27.168.579.252.924.252Zm6.147-2.142c0-.756.145-1.381.434-1.876.299-.495.677-.863 1.134-1.106a3.112 3.112 0 0 1 1.456-.364v1.792c-.43 0-.836.051-1.218.154a2.017 2.017 0 0 0-.91.504c-.233.233-.35.532-.35.896h-.546ZM37.887 248v-7h1.848v7h-1.848Zm8.455 2.982a7.937 7.937 0 0 1-1.414-.112 4.821 4.821 0 0 1-1.036-.294 4.153 4.153 0 0 1-.686-.364l.728-1.484c.13.075.303.159.518.252.214.103.47.187.77.252.298.075.644.112 1.036.112.373 0 .7-.075.98-.224.289-.14.513-.364.672-.672.168-.299.252-.681.252-1.148V241h1.848v6.244c0 .784-.15 1.456-.448 2.016a2.98 2.98 0 0 1-1.274 1.288c-.542.289-1.19.434-1.946.434Zm-.364-3.178c-.644 0-1.204-.14-1.68-.42a2.89 2.89 0 0 1-1.092-1.176c-.262-.504-.392-1.101-.392-1.792 0-.728.13-1.358.392-1.89.26-.541.625-.957 1.092-1.246.476-.299 1.036-.448 1.68-.448.56 0 1.045.149 1.456.448.41.289.728.705.952 1.246.224.541.336 1.185.336 1.932 0 .672-.112 1.26-.336 1.764-.224.504-.542.896-.952 1.176-.411.271-.896.406-1.456.406Zm.532-1.554c.317 0 .592-.079.826-.238.242-.168.429-.392.56-.672.13-.289.196-.616.196-.98 0-.373-.07-.7-.21-.98a1.551 1.551 0 0 0-.56-.658 1.431 1.431 0 0 0-.826-.238 1.59 1.59 0 0 0-.868.238 1.612 1.612 0 0 0-.588.658c-.14.28-.215.607-.224.98.009.364.084.691.224.98.14.28.336.504.588.672.26.159.555.238.882.238Zm8.254 1.918c-.69 0-1.302-.154-1.834-.462a3.441 3.441 0 0 1-1.26-1.302c-.299-.551-.448-1.185-.448-1.904 0-.719.154-1.353.462-1.904a3.41 3.41 0 0 1 1.288-1.288c.55-.317 1.18-.476 1.89-.476.616 0 1.18.163 1.694.49.522.317.938.789 1.246 1.414.317.616.476 1.367.476 2.254h-5.306l.168-.168c0 .345.084.649.252.91.177.252.401.448.672.588.28.131.578.196.896.196.382 0 .695-.079.938-.238.242-.168.43-.383.56-.644l1.652.644a3.465 3.465 0 0 1-.77 1.022c-.308.28-.677.495-1.106.644-.43.149-.92.224-1.47.224Zm-1.526-4.382-.168-.168h3.374l-.154.168c0-.336-.08-.602-.238-.798a1.381 1.381 0 0 0-.588-.448 1.71 1.71 0 0 0-.658-.14c-.215 0-.444.047-.686.14a1.566 1.566 0 0 0-.63.448c-.168.196-.252.462-.252.798Zm8.998 4.382c-.775 0-1.363-.191-1.764-.574-.392-.383-.588-.929-.588-1.638v-7.14h1.848v6.734c0 .299.065.527.196.686.13.149.322.224.574.224a.99.99 0 0 0 .308-.056c.112-.047.228-.112.35-.196l.644 1.386a2.945 2.945 0 0 1-.756.406 2.11 2.11 0 0 1-.812.168Zm-3.486-5.6V241h4.732v1.568H58.75Zm13.126 5.6a5.09 5.09 0 0 1-1.386-.182 4.258 4.258 0 0 1-1.147-.504 3.844 3.844 0 0 1-.84-.742 2.087 2.087 0 0 1-.42-.854l1.876-.56c.12.317.335.593.644.826.308.224.695.341 1.162.35.494.009.895-.098 1.204-.322.317-.224.476-.513.476-.868a.954.954 0 0 0-.378-.77c-.243-.215-.58-.378-1.008-.49l-1.275-.336a4.043 4.043 0 0 1-1.26-.546 2.776 2.776 0 0 1-.853-.924c-.206-.364-.309-.789-.309-1.274 0-.924.304-1.643.91-2.156.616-.523 1.484-.784 2.604-.784.626 0 1.172.093 1.638.28.477.177.873.434 1.19.77.318.336.56.733.729 1.19l-1.863.574a1.727 1.727 0 0 0-.615-.812c-.3-.224-.677-.336-1.135-.336-.466 0-.835.107-1.105.322-.262.215-.392.518-.392.91 0 .308.102.551.308.728.214.177.504.313.868.406l1.288.322c.84.205 1.493.574 1.96 1.106.466.532.7 1.125.7 1.778 0 .579-.14 1.087-.42 1.526-.28.429-.686.765-1.219 1.008-.532.243-1.176.364-1.932.364Zm5.06-.168v-7h1.848v7h-1.848Zm.924-8.134c-.28 0-.527-.103-.742-.308a1.036 1.036 0 0 1-.322-.756.99.99 0 0 1 .322-.742 1.018 1.018 0 0 1 1.484 0 .99.99 0 0 1 .322.742c0 .289-.107.541-.322.756a1.013 1.013 0 0 1-.742.308Zm5.778 11.116a7.938 7.938 0 0 1-1.414-.112 4.823 4.823 0 0 1-1.036-.294 4.157 4.157 0 0 1-.686-.364l.728-1.484c.131.075.304.159.518.252.215.103.472.187.77.252.3.075.644.112 1.036.112.374 0 .7-.075.98-.224.29-.14.514-.364.672-.672.168-.299.252-.681.252-1.148V241h1.848v6.244c0 .784-.149 1.456-.448 2.016a2.979 2.979 0 0 1-1.274 1.288c-.54.289-1.19.434-1.946.434Zm-.364-3.178c-.644 0-1.204-.14-1.68-.42a2.892 2.892 0 0 1-1.092-1.176c-.26-.504-.392-1.101-.392-1.792 0-.728.131-1.358.392-1.89.262-.541.626-.957 1.092-1.246.476-.299 1.036-.448 1.68-.448.56 0 1.046.149 1.456.448.411.289.728.705.952 1.246.224.541.336 1.185.336 1.932 0 .672-.112 1.26-.336 1.764-.224.504-.54.896-.952 1.176-.41.271-.896.406-1.456.406Zm.532-1.554c.318 0 .593-.079.826-.238.243-.168.43-.392.56-.672a2.35 2.35 0 0 0 .196-.98c0-.373-.07-.7-.21-.98a1.55 1.55 0 0 0-.56-.658 1.43 1.43 0 0 0-.826-.238c-.326 0-.616.079-.868.238a1.612 1.612 0 0 0-.588.658c-.14.28-.214.607-.224.98.01.364.084.691.224.98.14.28.336.504.588.672.262.159.556.238.882.238Zm5.09 1.75v-7h1.737l.112 1.288V248h-1.848Zm4.635 0v-3.584h1.848V248H93.53Zm0-3.584c0-.476-.056-.845-.168-1.106-.103-.261-.252-.448-.448-.56a1.28 1.28 0 0 0-.686-.182c-.476-.009-.845.135-1.106.434-.252.299-.378.742-.378 1.33h-.616c0-.747.107-1.377.322-1.89.224-.523.532-.919.924-1.19.401-.28.868-.42 1.4-.42.55 0 1.022.112 1.414.336.392.224.69.574.896 1.05.205.467.303 1.073.294 1.82v.378H93.53Zm7.551 3.584-.056-1.414v-2.128c0-.42-.047-.779-.14-1.078-.084-.299-.224-.527-.42-.686-.187-.168-.444-.252-.77-.252-.299 0-.57.065-.812.196a1.65 1.65 0 0 0-.616.602l-1.624-.56c.13-.299.322-.588.574-.868.252-.289.578-.523.98-.7.41-.187.91-.28 1.498-.28.709 0 1.297.135 1.764.406.476.271.826.653 1.05 1.148.233.485.345 1.064.336 1.736l-.042 3.878h-1.722Zm-1.96.168c-.84 0-1.494-.187-1.96-.56-.458-.373-.686-.901-.686-1.582 0-.747.247-1.307.742-1.68.504-.383 1.208-.574 2.114-.574h1.778v1.372h-1.134c-.607 0-1.027.075-1.26.224a.665.665 0 0 0-.35.602c0 .205.093.369.28.49.186.112.448.168.784.168.308 0 .578-.07.812-.21.242-.149.434-.336.574-.56.14-.233.21-.471.21-.714h.448c0 .952-.182 1.694-.546 2.226-.355.532-.957.798-1.806.798Zm8.081 0c-.775 0-1.363-.191-1.764-.574-.392-.383-.588-.929-.588-1.638v-7.14h1.848v6.734c0 .299.065.527.196.686.13.149.322.224.574.224a.992.992 0 0 0 .308-.056c.112-.047.228-.112.35-.196l.644 1.386a2.945 2.945 0 0 1-.756.406 2.113 2.113 0 0 1-.812.168Zm-3.486-5.6V241h4.732v1.568h-4.732ZM114.571 248l-.112-1.288V241h1.848v7h-1.736Zm-4.746-3.416V241h1.848v3.584h-1.848Zm1.848 0c0 .467.052.835.154 1.106.112.261.266.453.462.574.206.112.434.168.686.168.486.009.854-.135 1.106-.434.252-.308.378-.751.378-1.33h.63c0 .747-.112 1.381-.336 1.904-.224.513-.532.91-.924 1.19-.392.271-.854.406-1.386.406-.56 0-1.036-.112-1.428-.336-.392-.224-.69-.569-.896-1.036-.196-.476-.294-1.087-.294-1.834v-.378h1.848Zm7.537-.266c0-.756.145-1.381.434-1.876.299-.495.677-.863 1.134-1.106a3.114 3.114 0 0 1 1.456-.364v1.792c-.429 0-.835.051-1.218.154a2.023 2.023 0 0 0-.91.504c-.233.233-.35.532-.35.896h-.546ZM117.908 248v-7h1.848v7h-1.848Zm8.469.168c-.691 0-1.302-.154-1.834-.462a3.441 3.441 0 0 1-1.26-1.302c-.299-.551-.448-1.185-.448-1.904 0-.719.154-1.353.462-1.904.317-.551.747-.98 1.288-1.288.551-.317 1.181-.476 1.89-.476.616 0 1.181.163 1.694.49.523.317.938.789 1.246 1.414.317.616.476 1.367.476 2.254h-5.306l.168-.168c0 .345.084.649.252.91.177.252.401.448.672.588.28.131.579.196.896.196.383 0 .695-.079.938-.238.243-.168.429-.383.56-.644l1.652.644a3.47 3.47 0 0 1-.77 1.022c-.308.28-.677.495-1.106.644a4.469 4.469 0 0 1-1.47.224Zm-1.526-4.382-.168-.168h3.374l-.154.168c0-.336-.079-.602-.238-.798a1.385 1.385 0 0 0-.588-.448 1.708 1.708 0 0 0-.658-.14c-.215 0-.443.047-.686.14a1.562 1.562 0 0 0-.63.448c-.168.196-.252.462-.252.798Zm8.732 4.382a3.95 3.95 0 0 1-1.26-.196 3.327 3.327 0 0 1-1.036-.588 2.74 2.74 0 0 1-.7-.952l1.582-.728c.14.224.331.42.574.588a1.5 1.5 0 0 0 .84.238c.308 0 .546-.042.714-.126.168-.093.252-.224.252-.392a.382.382 0 0 0-.21-.364 1.808 1.808 0 0 0-.546-.21l-.644-.168c-.672-.177-1.204-.457-1.596-.84-.383-.392-.574-.84-.574-1.344 0-.719.229-1.274.686-1.666.467-.392 1.125-.588 1.974-.588.439 0 .845.065 1.218.196.383.131.709.313.98.546.271.233.457.504.56.812l-1.526.7c-.065-.187-.224-.336-.476-.448a1.734 1.734 0 0 0-.756-.182c-.252 0-.448.056-.588.168a.52.52 0 0 0-.196.434c0 .121.065.224.196.308.131.075.317.14.56.196l.91.224c.457.112.821.294 1.092.546.28.243.481.518.602.826.131.299.196.593.196.882 0 .42-.126.793-.378 1.12-.243.317-.579.565-1.008.742-.42.177-.901.266-1.442.266ZM480.125 50v-9.8h6.286v1.75h-4.368v2.352h3.64v1.75h-3.64V50h-1.918Zm11.604 0-.056-1.414v-2.128c0-.42-.047-.78-.14-1.078-.084-.299-.224-.527-.42-.686-.187-.168-.443-.252-.77-.252-.299 0-.569.065-.812.196a1.64 1.64 0 0 0-.616.602l-1.624-.56c.131-.299.322-.588.574-.868a2.75 2.75 0 0 1 .98-.7c.411-.187.91-.28 1.498-.28.709 0 1.297.135 1.764.406.476.27.826.653 1.05 1.148.233.485.345 1.064.336 1.736L493.451 50h-1.722Zm-1.96.168c-.84 0-1.493-.187-1.96-.56-.457-.373-.686-.9-.686-1.582 0-.747.247-1.307.742-1.68.504-.383 1.209-.574 2.114-.574h1.778v1.372h-1.134c-.607 0-1.027.075-1.26.224a.665.665 0 0 0-.35.602c0 .205.093.369.28.49.187.112.448.168.784.168.308 0 .579-.07.812-.21.243-.15.434-.336.574-.56.14-.233.21-.471.21-.714h.448c0 .952-.182 1.694-.546 2.226-.355.532-.957.798-1.806.798Zm6.961-1.946-1.106-1.274L499.208 43h2.198l-4.676 5.222ZM494.966 50v-9.8h1.848V50h-1.848Zm4.48 0-2.324-3.388 1.204-1.274 3.29 4.662h-2.17Zm5.848.168c-.691 0-1.302-.154-1.834-.462a3.445 3.445 0 0 1-1.26-1.302c-.299-.55-.448-1.185-.448-1.904 0-.719.154-1.353.462-1.904.317-.55.747-.98 1.288-1.288.551-.317 1.181-.476 1.89-.476.616 0 1.181.163 1.694.49.523.317.938.789 1.246 1.414.317.616.476 1.367.476 2.254h-5.306l.168-.168c0 .345.084.649.252.91.177.252.401.448.672.588.28.13.579.196.896.196.383 0 .695-.08.938-.238.243-.168.429-.383.56-.644l1.652.644a3.474 3.474 0 0 1-.77 1.022c-.308.28-.677.495-1.106.644-.429.15-.919.224-1.47.224Zm-1.526-4.382-.168-.168h3.374l-.154.168c0-.336-.079-.602-.238-.798a1.385 1.385 0 0 0-.588-.448 1.703 1.703 0 0 0-.658-.14c-.215 0-.443.047-.686.14a1.562 1.562 0 0 0-.63.448c-.168.196-.252.462-.252.798ZM513.484 50v-9.8h1.918v8.05h4.312V50h-6.23Zm10.417.168c-.69 0-1.302-.154-1.834-.462a3.445 3.445 0 0 1-1.26-1.302c-.298-.55-.448-1.185-.448-1.904 0-.719.154-1.353.462-1.904a3.42 3.42 0 0 1 1.288-1.288c.551-.317 1.181-.476 1.89-.476.616 0 1.181.163 1.694.49.523.317.938.789 1.246 1.414.318.616.476 1.367.476 2.254h-5.306l.168-.168c0 .345.084.649.252.91.178.252.402.448.672.588.28.13.579.196.896.196.383 0 .696-.08.938-.238.243-.168.43-.383.56-.644l1.652.644a3.457 3.457 0 0 1-.77 1.022c-.308.28-.676.495-1.106.644-.429.15-.919.224-1.47.224Zm-1.526-4.382-.168-.168h3.374l-.154.168c0-.336-.079-.602-.238-.798a1.373 1.373 0 0 0-.588-.448 1.703 1.703 0 0 0-.658-.14 1.92 1.92 0 0 0-.686.14 1.576 1.576 0 0 0-.63.448c-.168.196-.252.462-.252.798Zm8.998 4.382c-.774 0-1.362-.191-1.764-.574-.392-.383-.588-.929-.588-1.638v-7.14h1.848v6.734c0 .299.066.527.196.686.131.15.322.224.574.224a.979.979 0 0 0 .308-.056c.112-.047.229-.112.35-.196l.644 1.386a2.936 2.936 0 0 1-.756.406c-.27.112-.541.168-.812.168Zm-3.486-5.6V43h4.732v1.568h-4.732Zm9.119 5.6c-.774 0-1.362-.191-1.764-.574-.392-.383-.588-.929-.588-1.638v-7.14h1.848v6.734c0 .299.066.527.196.686.131.15.322.224.574.224a.979.979 0 0 0 .308-.056c.112-.047.229-.112.35-.196l.644 1.386a2.936 2.936 0 0 1-.756.406c-.27.112-.541.168-.812.168Zm-3.486-5.6V43h4.732v1.568h-4.732Zm9.276 5.6c-.691 0-1.302-.154-1.834-.462a3.445 3.445 0 0 1-1.26-1.302c-.299-.55-.448-1.185-.448-1.904 0-.719.154-1.353.462-1.904.317-.55.747-.98 1.288-1.288.551-.317 1.181-.476 1.89-.476.616 0 1.181.163 1.694.49.523.317.938.789 1.246 1.414.317.616.476 1.367.476 2.254h-5.306l.168-.168c0 .345.084.649.252.91.177.252.401.448.672.588.28.13.579.196.896.196.383 0 .695-.08.938-.238.243-.168.429-.383.56-.644l1.652.644a3.474 3.474 0 0 1-.77 1.022c-.308.28-.677.495-1.106.644-.429.15-.919.224-1.47.224Zm-1.526-4.382-.168-.168h3.374l-.154.168c0-.336-.079-.602-.238-.798a1.385 1.385 0 0 0-.588-.448 1.703 1.703 0 0 0-.658-.14c-.215 0-.443.047-.686.14a1.562 1.562 0 0 0-.63.448c-.168.196-.252.462-.252.798Zm7.416.532c0-.756.145-1.381.434-1.876.299-.495.677-.863 1.134-1.106a3.117 3.117 0 0 1 1.456-.364v1.792c-.429 0-.835.051-1.218.154-.373.103-.677.27-.91.504-.233.233-.35.532-.35.896h-.546ZM547.384 50v-7h1.848v7h-1.848Zm5.319 0v-9.8h1.848V50h-1.848Zm4.648 0v-3.584h1.848V50h-1.848Zm0-3.584c0-.476-.056-.845-.168-1.106-.112-.261-.266-.448-.462-.56a1.278 1.278 0 0 0-.686-.182c-.476-.01-.845.135-1.106.434-.252.299-.378.742-.378 1.33h-.616c0-.747.107-1.377.322-1.89.224-.523.532-.92.924-1.19.401-.28.868-.42 1.4-.42.56 0 1.031.112 1.414.336.392.224.69.574.896 1.05.205.467.308 1.073.308 1.82v.378h-1.848Zm6.486 3.752c-.691 0-1.302-.154-1.834-.462a3.445 3.445 0 0 1-1.26-1.302c-.299-.55-.448-1.185-.448-1.904 0-.719.154-1.353.462-1.904.317-.55.747-.98 1.288-1.288.551-.317 1.181-.476 1.89-.476.616 0 1.181.163 1.694.49.523.317.938.789 1.246 1.414.317.616.476 1.367.476 2.254h-5.306l.168-.168c0 .345.084.649.252.91.177.252.401.448.672.588.28.13.579.196.896.196.383 0 .695-.08.938-.238.243-.168.429-.383.56-.644l1.652.644a3.474 3.474 0 0 1-.77 1.022c-.308.28-.677.495-1.106.644-.429.15-.919.224-1.47.224Zm-1.526-4.382-.168-.168h3.374l-.154.168c0-.336-.079-.602-.238-.798a1.385 1.385 0 0 0-.588-.448 1.703 1.703 0 0 0-.658-.14c-.215 0-.443.047-.686.14a1.562 1.562 0 0 0-.63.448c-.168.196-.252.462-.252.798ZM572.653 50l-.056-1.414v-2.128c0-.42-.047-.78-.14-1.078-.084-.299-.224-.527-.42-.686-.187-.168-.443-.252-.77-.252-.299 0-.569.065-.812.196a1.64 1.64 0 0 0-.616.602l-1.624-.56c.131-.299.322-.588.574-.868a2.75 2.75 0 0 1 .98-.7c.411-.187.91-.28 1.498-.28.709 0 1.297.135 1.764.406.476.27.826.653 1.05 1.148.233.485.345 1.064.336 1.736L574.375 50h-1.722Zm-1.96.168c-.84 0-1.493-.187-1.96-.56-.457-.373-.686-.9-.686-1.582 0-.747.247-1.307.742-1.68.504-.383 1.209-.574 2.114-.574h1.778v1.372h-1.134c-.607 0-1.027.075-1.26.224a.665.665 0 0 0-.35.602c0 .205.093.369.28.49.187.112.448.168.784.168.308 0 .579-.07.812-.21.243-.15.434-.336.574-.56.14-.233.21-.471.21-.714h.448c0 .952-.182 1.694-.546 2.226-.355.532-.957.798-1.806.798ZM580.874 50l-.098-1.302V40.2h1.848V50h-1.75Zm-2.198.168c-.644 0-1.204-.15-1.68-.448-.467-.299-.831-.723-1.092-1.274-.262-.55-.392-1.2-.392-1.946 0-.756.13-1.405.392-1.946.261-.55.625-.975 1.092-1.274.476-.299 1.036-.448 1.68-.448.588 0 1.082.15 1.484.448.41.299.723.723.938 1.274.214.541.322 1.19.322 1.946 0 .747-.108 1.395-.322 1.946-.215.55-.528.975-.938 1.274-.402.299-.896.448-1.484.448Zm.476-1.694c.317 0 .597-.084.84-.252a1.67 1.67 0 0 0 .588-.7c.14-.299.21-.64.21-1.022 0-.383-.07-.723-.21-1.022a1.577 1.577 0 0 0-.588-.686 1.465 1.465 0 0 0-.854-.252c-.336 0-.63.084-.882.252a1.666 1.666 0 0 0-.602.686 2.25 2.25 0 0 0-.224 1.022c0 .383.074.723.224 1.022.149.299.35.532.602.7.261.168.56.252.896.252Zm7.682 1.694a3.95 3.95 0 0 1-1.26-.196 3.327 3.327 0 0 1-1.036-.588 2.74 2.74 0 0 1-.7-.952l1.582-.728c.14.224.331.42.574.588a1.5 1.5 0 0 0 .84.238c.308 0 .546-.042.714-.126.168-.093.252-.224.252-.392s-.07-.29-.21-.364a1.808 1.808 0 0 0-.546-.21l-.644-.168c-.672-.177-1.204-.457-1.596-.84-.383-.392-.574-.84-.574-1.344 0-.719.229-1.274.686-1.666.467-.392 1.125-.588 1.974-.588.439 0 .845.065 1.218.196.383.13.709.313.98.546.271.233.457.504.56.812l-1.526.7c-.065-.187-.224-.336-.476-.448a1.73 1.73 0 0 0-.756-.182c-.252 0-.448.056-.588.168a.52.52 0 0 0-.196.434c0 .121.065.224.196.308.131.075.317.14.56.196l.91.224c.457.112.821.294 1.092.546.28.243.481.518.602.826.131.299.196.593.196.882 0 .42-.126.793-.378 1.12-.243.317-.579.565-1.008.742-.42.177-.901.266-1.442.266ZM477.467 248v-9.8h6.286v1.75h-4.368v2.352h3.64v1.75h-3.64V248h-1.918Zm11.605 0-.056-1.414v-2.128c0-.42-.047-.779-.14-1.078-.084-.299-.224-.527-.42-.686-.187-.168-.443-.252-.77-.252-.299 0-.569.065-.812.196a1.647 1.647 0 0 0-.616.602l-1.624-.56c.131-.299.322-.588.574-.868a2.75 2.75 0 0 1 .98-.7c.411-.187.91-.28 1.498-.28.709 0 1.297.135 1.764.406.476.271.826.653 1.05 1.148.233.485.345 1.064.336 1.736l-.042 3.878h-1.722Zm-1.96.168c-.84 0-1.493-.187-1.96-.56-.457-.373-.686-.901-.686-1.582 0-.747.247-1.307.742-1.68.504-.383 1.209-.574 2.114-.574h1.778v1.372h-1.134c-.607 0-1.027.075-1.26.224a.665.665 0 0 0-.35.602c0 .205.093.369.28.49.187.112.448.168.784.168.308 0 .579-.07.812-.21a1.73 1.73 0 0 0 .574-.56c.14-.233.21-.471.21-.714h.448c0 .952-.182 1.694-.546 2.226-.355.532-.957.798-1.806.798Zm5.197-.168v-9.8h1.848v8.498l-.098 1.302h-1.75Zm3.962.168c-.588 0-1.088-.149-1.498-.448-.402-.299-.71-.723-.924-1.274-.215-.551-.322-1.199-.322-1.946 0-.756.107-1.405.322-1.946.214-.551.522-.975.924-1.274.41-.299.91-.448 1.498-.448.644 0 1.199.149 1.666.448.476.299.844.723 1.106 1.274.261.541.392 1.19.392 1.946 0 .747-.131 1.395-.392 1.946-.262.551-.63.975-1.106 1.274-.467.299-1.022.448-1.666.448Zm-.476-1.694c.336 0 .63-.084.882-.252.261-.168.466-.401.616-.7a2.26 2.26 0 0 0 .224-1.022 2.26 2.26 0 0 0-.224-1.022 1.549 1.549 0 0 0-.602-.686 1.553 1.553 0 0 0-.882-.252c-.318 0-.602.084-.854.252a1.67 1.67 0 0 0-.588.7c-.14.289-.21.625-.21 1.008s.07.723.21 1.022c.14.299.331.532.574.7.252.168.536.252.854.252Zm6.156-2.156c0-.756.144-1.381.434-1.876.298-.495.676-.863 1.134-1.106a3.11 3.11 0 0 1 1.456-.364v1.792c-.43 0-.836.051-1.218.154a2.012 2.012 0 0 0-.91.504c-.234.233-.35.532-.35.896h-.546ZM500.649 248v-7h1.848v7h-1.848Zm5.416 0v-7h1.848v7h-1.848Zm.924-8.134c-.28 0-.527-.103-.742-.308a1.039 1.039 0 0 1-.322-.756c0-.289.108-.537.322-.742a1.019 1.019 0 0 1 1.484 0 .989.989 0 0 1 .322.742c0 .289-.107.541-.322.756a1.011 1.011 0 0 1-.742.308Zm6.002 8.302c-.728 0-1.376-.154-1.946-.462a3.433 3.433 0 0 1-1.33-1.302c-.317-.56-.476-1.195-.476-1.904 0-.719.159-1.353.476-1.904a3.36 3.36 0 0 1 1.316-1.288c.56-.317 1.204-.476 1.932-.476.7 0 1.34.173 1.918.518.579.345.999.845 1.26 1.498l-1.736.616a1.46 1.46 0 0 0-.616-.644 1.689 1.689 0 0 0-.91-.252c-.345 0-.648.084-.91.252a1.664 1.664 0 0 0-.616.672 2.17 2.17 0 0 0-.224 1.008c0 .383.075.719.224 1.008a1.717 1.717 0 0 0 1.554.924c.336 0 .64-.089.91-.266.28-.177.486-.411.616-.7l1.75.616a3.186 3.186 0 0 1-1.274 1.54 3.483 3.483 0 0 1-1.918.546Zm8.497-.168-.056-1.414v-2.128c0-.42-.047-.779-.14-1.078-.084-.299-.224-.527-.42-.686-.187-.168-.443-.252-.77-.252-.299 0-.569.065-.812.196a1.647 1.647 0 0 0-.616.602l-1.624-.56c.131-.299.322-.588.574-.868a2.75 2.75 0 0 1 .98-.7c.411-.187.91-.28 1.498-.28.709 0 1.297.135 1.764.406.476.271.826.653 1.05 1.148.233.485.345 1.064.336 1.736L523.21 248h-1.722Zm-1.96.168c-.84 0-1.493-.187-1.96-.56-.457-.373-.686-.901-.686-1.582 0-.747.247-1.307.742-1.68.504-.383 1.209-.574 2.114-.574h1.778v1.372h-1.134c-.607 0-1.027.075-1.26.224a.665.665 0 0 0-.35.602c0 .205.093.369.28.49.187.112.448.168.784.168.308 0 .579-.07.812-.21a1.73 1.73 0 0 0 .574-.56c.14-.233.21-.471.21-.714h.448c0 .952-.182 1.694-.546 2.226-.355.532-.957.798-1.806.798Zm8.081 0c-.775 0-1.363-.191-1.764-.574-.392-.383-.588-.929-.588-1.638v-7.14h1.848v6.734c0 .299.065.527.196.686.13.149.322.224.574.224a.992.992 0 0 0 .308-.056c.112-.047.228-.112.35-.196l.644 1.386a2.945 2.945 0 0 1-.756.406 2.113 2.113 0 0 1-.812.168Zm-3.486-5.6V241h4.732v1.568h-4.732Zm9.276 5.6c-.691 0-1.302-.154-1.834-.462a3.441 3.441 0 0 1-1.26-1.302c-.299-.551-.448-1.185-.448-1.904 0-.719.154-1.353.462-1.904.317-.551.746-.98 1.288-1.288.55-.317 1.18-.476 1.89-.476.616 0 1.18.163 1.694.49.522.317.938.789 1.246 1.414.317.616.476 1.367.476 2.254h-5.306l.168-.168c0 .345.084.649.252.91.177.252.401.448.672.588.28.131.578.196.896.196.382 0 .695-.079.938-.238.242-.168.429-.383.56-.644l1.652.644a3.47 3.47 0 0 1-.77 1.022c-.308.28-.677.495-1.106.644-.43.149-.92.224-1.47.224Zm-1.526-4.382-.168-.168h3.374l-.154.168c0-.336-.08-.602-.238-.798a1.385 1.385 0 0 0-.588-.448 1.712 1.712 0 0 0-.658-.14c-.215 0-.444.047-.686.14a1.562 1.562 0 0 0-.63.448c-.168.196-.252.462-.252.798ZM542.97 248l-.098-1.302V238.2h1.848v9.8h-1.75Zm-2.198.168c-.644 0-1.204-.149-1.68-.448-.466-.299-.83-.723-1.092-1.274-.261-.551-.392-1.199-.392-1.946 0-.756.131-1.405.392-1.946.262-.551.626-.975 1.092-1.274.476-.299 1.036-.448 1.68-.448.588 0 1.083.149 1.484.448.411.299.724.723.938 1.274.215.541.322 1.19.322 1.946 0 .747-.107 1.395-.322 1.946-.214.551-.527.975-.938 1.274-.401.299-.896.448-1.484.448Zm.476-1.694c.318 0 .598-.084.84-.252a1.67 1.67 0 0 0 .588-.7c.14-.299.21-.639.21-1.022s-.07-.723-.21-1.022a1.577 1.577 0 0 0-.588-.686 1.46 1.46 0 0 0-.854-.252c-.336 0-.63.084-.882.252a1.673 1.673 0 0 0-.602.686 2.26 2.26 0 0 0-.224 1.022c0 .383.075.723.224 1.022.15.299.35.532.602.7.262.168.56.252.896.252Zm8.667 1.526v-9.8h2.002l4.788 6.58v-6.58h1.904v9.8h-1.904l-4.872-6.706V248h-1.918Zm13.852.168c-.71 0-1.344-.154-1.904-.462a3.477 3.477 0 0 1-1.302-1.302c-.308-.551-.462-1.185-.462-1.904 0-.719.154-1.353.462-1.904.308-.551.737-.98 1.288-1.288.55-.317 1.18-.476 1.89-.476.718 0 1.353.159 1.904.476.55.308.98.737 1.288 1.288.308.551.462 1.185.462 1.904 0 .719-.154 1.353-.462 1.904a3.385 3.385 0 0 1-1.288 1.302c-.542.308-1.167.462-1.876.462Zm0-1.708c.345 0 .648-.084.91-.252.261-.168.462-.397.602-.686a2.26 2.26 0 0 0 .224-1.022 2.17 2.17 0 0 0-.224-1.008 1.705 1.705 0 0 0-.63-.7 1.648 1.648 0 0 0-.91-.252c-.336 0-.64.084-.91.252a1.723 1.723 0 0 0-.616.7c-.15.289-.224.625-.224 1.008s.074.723.224 1.022c.149.289.359.518.63.686.27.168.578.252.924.252Zm7.728 1.708c-.774 0-1.362-.191-1.764-.574-.392-.383-.588-.929-.588-1.638v-7.14h1.848v6.734c0 .299.066.527.196.686.131.149.322.224.574.224a.987.987 0 0 0 .308-.056c.112-.047.229-.112.35-.196l.644 1.386a2.945 2.945 0 0 1-.756.406c-.27.112-.541.168-.812.168Zm-3.486-5.6V241h4.732v1.568h-4.732Zm9.276 5.6c-.69 0-1.302-.154-1.834-.462a3.441 3.441 0 0 1-1.26-1.302c-.298-.551-.448-1.185-.448-1.904 0-.719.154-1.353.462-1.904.318-.551.747-.98 1.288-1.288.551-.317 1.181-.476 1.89-.476.616 0 1.181.163 1.694.49.523.317.938.789 1.246 1.414.318.616.476 1.367.476 2.254h-5.306l.168-.168c0 .345.084.649.252.91.178.252.402.448.672.588.28.131.579.196.896.196.383 0 .696-.079.938-.238.243-.168.43-.383.56-.644l1.652.644a3.453 3.453 0 0 1-.77 1.022c-.308.28-.676.495-1.106.644a4.469 4.469 0 0 1-1.47.224Zm-1.526-4.382-.168-.168h3.374l-.154.168c0-.336-.079-.602-.238-.798a1.373 1.373 0 0 0-.588-.448 1.708 1.708 0 0 0-.658-.14c-.214 0-.443.047-.686.14a1.576 1.576 0 0 0-.63.448c-.168.196-.252.462-.252.798Zm8.732 4.382a3.95 3.95 0 0 1-1.26-.196 3.327 3.327 0 0 1-1.036-.588 2.752 2.752 0 0 1-.7-.952l1.582-.728c.14.224.332.42.574.588a1.5 1.5 0 0 0 .84.238c.308 0 .546-.042.714-.126.168-.093.252-.224.252-.392a.382.382 0 0 0-.21-.364 1.787 1.787 0 0 0-.546-.21l-.644-.168c-.672-.177-1.204-.457-1.596-.84-.382-.392-.574-.84-.574-1.344 0-.719.229-1.274.686-1.666.467-.392 1.125-.588 1.974-.588.439 0 .845.065 1.218.196.383.131.71.313.98.546.271.233.458.504.56.812l-1.526.7c-.065-.187-.224-.336-.476-.448a1.734 1.734 0 0 0-.756-.182c-.252 0-.448.056-.588.168a.522.522 0 0 0-.196.434c0 .121.066.224.196.308.131.075.318.14.56.196l.91.224c.458.112.822.294 1.092.546.28.243.481.518.602.826.131.299.196.593.196.882 0 .42-.126.793-.378 1.12-.242.317-.578.565-1.008.742-.42.177-.9.266-1.442.266ZM474.072 149v-9.8h3.64c.69 0 1.302.14 1.834.42.532.271.947.653 1.246 1.148.298.485.448 1.05.448 1.694 0 .635-.145 1.199-.434 1.694-.29.495-.686.887-1.19 1.176-.504.28-1.088.42-1.75.42h-1.876V149h-1.918Zm1.918-5.012h1.834c.429 0 .779-.14 1.05-.42.28-.289.42-.658.42-1.106 0-.448-.154-.812-.462-1.092-.299-.28-.686-.42-1.162-.42h-1.68v3.038ZM486.333 149l-.056-1.414v-2.128c0-.42-.047-.779-.14-1.078-.084-.299-.224-.527-.42-.686-.187-.168-.444-.252-.77-.252-.299 0-.57.065-.812.196a1.647 1.647 0 0 0-.616.602l-1.624-.56c.13-.299.322-.588.574-.868.252-.289.578-.523.98-.7.41-.187.91-.28 1.498-.28.709 0 1.297.135 1.764.406.476.271.826.653 1.05 1.148.233.485.345 1.064.336 1.736l-.042 3.878h-1.722Zm-1.96.168c-.84 0-1.494-.187-1.96-.56-.458-.373-.686-.901-.686-1.582 0-.747.247-1.307.742-1.68.504-.383 1.208-.574 2.114-.574h1.778v1.372h-1.134c-.607 0-1.027.075-1.26.224a.664.664 0 0 0-.35.602c0 .205.093.369.28.49.186.112.448.168.784.168.308 0 .578-.07.812-.21.242-.149.434-.336.574-.56.14-.233.21-.471.21-.714h.448c0 .952-.182 1.694-.546 2.226-.355.532-.957.798-1.806.798Zm7.814 0a3.95 3.95 0 0 1-1.26-.196 3.327 3.327 0 0 1-1.036-.588 2.752 2.752 0 0 1-.7-.952l1.582-.728c.14.224.332.42.574.588a1.5 1.5 0 0 0 .84.238c.308 0 .546-.042.714-.126.168-.093.252-.224.252-.392a.382.382 0 0 0-.21-.364 1.787 1.787 0 0 0-.546-.21l-.644-.168c-.672-.177-1.204-.457-1.596-.84-.382-.392-.574-.84-.574-1.344 0-.719.229-1.274.686-1.666.467-.392 1.125-.588 1.974-.588.439 0 .845.065 1.218.196.383.131.71.313.98.546.271.233.458.504.56.812l-1.526.7c-.065-.187-.224-.336-.476-.448a1.734 1.734 0 0 0-.756-.182c-.252 0-.448.056-.588.168a.522.522 0 0 0-.196.434c0 .121.066.224.196.308.131.075.318.14.56.196l.91.224c.458.112.822.294 1.092.546.28.243.481.518.602.826.131.299.196.593.196.882 0 .42-.126.793-.378 1.12-.242.317-.578.565-1.008.742-.42.177-.9.266-1.442.266Zm6.788 0c-.775 0-1.363-.191-1.764-.574-.392-.383-.588-.929-.588-1.638v-7.14h1.848v6.734c0 .299.065.527.196.686.131.149.322.224.574.224a.992.992 0 0 0 .308-.056c.112-.047.229-.112.35-.196l.644 1.386a2.945 2.945 0 0 1-.756.406 2.11 2.11 0 0 1-.812.168Zm-3.486-5.6V142h4.732v1.568h-4.732Zm9.276 5.6c-.691 0-1.302-.154-1.834-.462a3.441 3.441 0 0 1-1.26-1.302c-.299-.551-.448-1.185-.448-1.904 0-.719.154-1.353.462-1.904.317-.551.746-.98 1.288-1.288.55-.317 1.18-.476 1.89-.476.616 0 1.18.163 1.694.49.522.317.938.789 1.246 1.414.317.616.476 1.367.476 2.254h-5.306l.168-.168c0 .345.084.649.252.91.177.252.401.448.672.588.28.131.578.196.896.196.382 0 .695-.079.938-.238.242-.168.429-.383.56-.644l1.652.644a3.47 3.47 0 0 1-.77 1.022c-.308.28-.677.495-1.106.644-.43.149-.92.224-1.47.224Zm-1.526-4.382-.168-.168h3.374l-.154.168c0-.336-.08-.602-.238-.798a1.385 1.385 0 0 0-.588-.448 1.712 1.712 0 0 0-.658-.14c-.215 0-.444.047-.686.14a1.562 1.562 0 0 0-.63.448c-.168.196-.252.462-.252.798ZM514.337 149l-.098-1.302V139.2h1.848v9.8h-1.75Zm-2.198.168c-.644 0-1.204-.149-1.68-.448-.467-.299-.831-.723-1.092-1.274-.262-.551-.392-1.199-.392-1.946 0-.756.13-1.405.392-1.946.261-.551.625-.975 1.092-1.274.476-.299 1.036-.448 1.68-.448.588 0 1.082.149 1.484.448.41.299.723.723.938 1.274.214.541.322 1.19.322 1.946 0 .747-.108 1.395-.322 1.946-.215.551-.528.975-.938 1.274-.402.299-.896.448-1.484.448Zm.476-1.694c.317 0 .597-.084.84-.252a1.67 1.67 0 0 0 .588-.7c.14-.299.21-.639.21-1.022s-.07-.723-.21-1.022a1.577 1.577 0 0 0-.588-.686 1.465 1.465 0 0 0-.854-.252c-.336 0-.63.084-.882.252a1.666 1.666 0 0 0-.602.686c-.15.299-.224.639-.224 1.022s.074.723.224 1.022c.149.299.35.532.602.7.261.168.56.252.896.252Zm8.666 1.526v-9.8h2.002l4.788 6.58v-6.58h1.904v9.8h-1.904l-4.872-6.706V149h-1.918Zm14.79 0-.056-1.414v-2.128c0-.42-.047-.779-.14-1.078-.084-.299-.224-.527-.42-.686-.187-.168-.443-.252-.77-.252-.299 0-.569.065-.812.196a1.647 1.647 0 0 0-.616.602l-1.624-.56c.131-.299.322-.588.574-.868a2.75 2.75 0 0 1 .98-.7c.411-.187.91-.28 1.498-.28.709 0 1.297.135 1.764.406.476.271.826.653 1.05 1.148.233.485.345 1.064.336 1.736l-.042 3.878h-1.722Zm-1.96.168c-.84 0-1.493-.187-1.96-.56-.457-.373-.686-.901-.686-1.582 0-.747.247-1.307.742-1.68.504-.383 1.209-.574 2.114-.574h1.778v1.372h-1.134c-.607 0-1.027.075-1.26.224a.665.665 0 0 0-.35.602c0 .205.093.369.28.49.187.112.448.168.784.168.308 0 .579-.07.812-.21a1.73 1.73 0 0 0 .574-.56c.14-.233.21-.471.21-.714h.448c0 .952-.182 1.694-.546 2.226-.355.532-.957.798-1.806.798Zm5.197-.168v-7h1.736l.084.91c.214-.355.49-.621.826-.798.336-.187.709-.28 1.12-.28.569 0 1.045.121 1.428.364.392.243.676.616.854 1.12.205-.476.494-.84.868-1.092a2.214 2.214 0 0 1 1.302-.392c.821 0 1.446.261 1.876.784.429.513.644 1.307.644 2.38V149h-1.848v-3.584c0-.476-.052-.845-.154-1.106-.103-.261-.243-.448-.42-.56a1.094 1.094 0 0 0-.63-.182c-.448-.009-.794.135-1.036.434-.243.299-.364.742-.364 1.33V149h-1.848v-3.584c0-.476-.052-.845-.154-1.106-.094-.261-.234-.448-.42-.56a1.094 1.094 0 0 0-.63-.182c-.448-.009-.794.135-1.036.434-.234.299-.35.742-.35 1.33V149h-1.848Zm15.373.168c-.691 0-1.302-.154-1.834-.462a3.441 3.441 0 0 1-1.26-1.302c-.299-.551-.448-1.185-.448-1.904 0-.719.154-1.353.462-1.904.317-.551.746-.98 1.288-1.288.55-.317 1.18-.476 1.89-.476.616 0 1.18.163 1.694.49.522.317.938.789 1.246 1.414.317.616.476 1.367.476 2.254h-5.306l.168-.168c0 .345.084.649.252.91.177.252.401.448.672.588.28.131.578.196.896.196.382 0 .695-.079.938-.238.242-.168.429-.383.56-.644l1.652.644a3.47 3.47 0 0 1-.77 1.022c-.308.28-.677.495-1.106.644-.43.149-.92.224-1.47.224Zm-1.526-4.382-.168-.168h3.374l-.154.168c0-.336-.08-.602-.238-.798a1.385 1.385 0 0 0-.588-.448 1.712 1.712 0 0 0-.658-.14c-.215 0-.444.047-.686.14a1.562 1.562 0 0 0-.63.448c-.168.196-.252.462-.252.798Zm8.732 4.382a3.95 3.95 0 0 1-1.26-.196 3.315 3.315 0 0 1-1.036-.588 2.74 2.74 0 0 1-.7-.952l1.582-.728c.14.224.331.42.574.588.242.159.522.238.84.238.308 0 .546-.042.714-.126.168-.093.252-.224.252-.392a.382.382 0 0 0-.21-.364 1.808 1.808 0 0 0-.546-.21l-.644-.168c-.672-.177-1.204-.457-1.596-.84-.383-.392-.574-.84-.574-1.344 0-.719.228-1.274.686-1.666.466-.392 1.124-.588 1.974-.588.438 0 .844.065 1.218.196.382.131.709.313.98.546.27.233.457.504.56.812l-1.526.7c-.066-.187-.224-.336-.476-.448a1.734 1.734 0 0 0-.756-.182c-.252 0-.448.056-.588.168a.52.52 0 0 0-.196.434c0 .121.065.224.196.308.13.075.317.14.56.196l.91.224c.457.112.821.294 1.092.546.28.243.48.518.602.826.13.299.196.593.196.882 0 .42-.126.793-.378 1.12-.243.317-.579.565-1.008.742-.42.177-.901.266-1.442.266Zm-501.279 0c-.952 0-1.797-.215-2.534-.644a4.71 4.71 0 0 1-1.736-1.792c-.42-.765-.63-1.643-.63-2.632 0-.989.21-1.862.63-2.618a4.611 4.611 0 0 1 1.722-1.792c.737-.439 1.582-.658 2.534-.658.672 0 1.297.121 1.876.364a4.487 4.487 0 0 1 1.512.994c.438.42.774.905 1.008 1.456l-1.778.658a2.935 2.935 0 0 0-.63-.896 2.761 2.761 0 0 0-.896-.602 2.663 2.663 0 0 0-1.092-.224c-.57 0-1.078.145-1.526.434a2.91 2.91 0 0 0-1.036 1.162c-.243.495-.364 1.069-.364 1.722s.126 1.232.378 1.736c.252.495.602.887 1.05 1.176.448.28.961.42 1.54.42.401 0 .765-.075 1.092-.224.336-.159.63-.373.882-.644a3.26 3.26 0 0 0 .63-.938l1.778.644a4.578 4.578 0 0 1-1.008 1.512 4.56 4.56 0 0 1-1.512 1.022 4.832 4.832 0 0 1-1.89.364Zm8.842 0c-.709 0-1.344-.154-1.904-.462a3.481 3.481 0 0 1-1.302-1.302c-.308-.551-.462-1.185-.462-1.904 0-.719.154-1.353.462-1.904a3.29 3.29 0 0 1 1.288-1.288c.551-.317 1.181-.476 1.89-.476.719 0 1.354.159 1.904.476.551.308.98.737 1.288 1.288.308.551.462 1.185.462 1.904 0 .719-.154 1.353-.462 1.904a3.38 3.38 0 0 1-1.288 1.302c-.541.308-1.166.462-1.876.462Zm0-1.708c.346 0 .649-.084.91-.252.262-.168.462-.397.602-.686.15-.299.224-.639.224-1.022s-.074-.719-.224-1.008a1.695 1.695 0 0 0-.63-.7 1.646 1.646 0 0 0-.91-.252c-.336 0-.639.084-.91.252a1.73 1.73 0 0 0-.616.7c-.149.289-.224.625-.224 1.008s.075.723.224 1.022c.15.289.36.518.63.686.271.168.579.252.924.252Zm4.915 4.34V142h1.736l.112 1.288v8.512h-1.848Zm3.962-2.632c-.588 0-1.087-.149-1.498-.448-.401-.299-.71-.723-.924-1.274-.215-.551-.322-1.199-.322-1.946 0-.756.107-1.405.322-1.946.215-.551.523-.975.924-1.274.41-.299.91-.448 1.498-.448.644 0 1.2.149 1.666.448a2.96 2.96 0 0 1 1.106 1.274c.261.541.392 1.19.392 1.946 0 .747-.13 1.395-.392 1.946a2.96 2.96 0 0 1-1.106 1.274c-.467.299-1.022.448-1.666.448Zm-.476-1.694c.336 0 .63-.084.882-.252a1.73 1.73 0 0 0 .616-.7c.15-.299.224-.639.224-1.022s-.075-.723-.224-1.022a1.547 1.547 0 0 0-.602-.686 1.553 1.553 0 0 0-.882-.252c-.317 0-.602.084-.854.252a1.67 1.67 0 0 0-.588.7c-.14.289-.21.625-.21 1.008s.07.723.21 1.022c.14.299.331.532.574.7.252.168.537.252.854.252Zm5.951 4.494c-.252 0-.532-.051-.84-.154a4.142 4.142 0 0 1-.797-.336l.685-1.498c.16.084.304.149.434.196.14.056.262.084.364.084a.84.84 0 0 0 .519-.168 1.1 1.1 0 0 0 .364-.462l.825-1.946L87.584 142h2.03l-3.178 7.602a9.454 9.454 0 0 1-.617 1.232c-.214.364-.48.644-.797.84-.308.196-.715.294-1.219.294ZM84.867 149l-3.206-7h2.03l2.338 5.684.602 1.316h-1.763Zm9.205 0v-9.8h2.002l4.788 6.58v-6.58h1.904v9.8h-1.904l-4.872-6.706V149h-1.92Zm14.79 0-.056-1.414v-2.128c0-.42-.047-.779-.14-1.078-.084-.299-.224-.527-.42-.686-.187-.168-.443-.252-.77-.252-.299 0-.569.065-.812.196a1.647 1.647 0 0 0-.616.602l-1.624-.56c.131-.299.322-.588.574-.868a2.75 2.75 0 0 1 .98-.7c.411-.187.91-.28 1.498-.28.709 0 1.297.135 1.764.406.476.271.826.653 1.05 1.148.233.485.345 1.064.336 1.736l-.042 3.878h-1.722Zm-1.96.168c-.84 0-1.493-.187-1.96-.56-.457-.373-.686-.901-.686-1.582 0-.747.247-1.307.742-1.68.504-.383 1.209-.574 2.114-.574h1.778v1.372h-1.134c-.607 0-1.027.075-1.26.224a.665.665 0 0 0-.35.602c0 .205.093.369.28.49.187.112.448.168.784.168.308 0 .579-.07.812-.21a1.73 1.73 0 0 0 .574-.56c.14-.233.21-.471.21-.714h.448c0 .952-.182 1.694-.546 2.226-.355.532-.957.798-1.806.798Zm5.197-.168v-7h1.736l.084.91c.214-.355.49-.621.826-.798.336-.187.709-.28 1.12-.28.569 0 1.045.121 1.428.364.392.243.676.616.854 1.12.205-.476.494-.84.868-1.092a2.214 2.214 0 0 1 1.302-.392c.821 0 1.446.261 1.876.784.429.513.644 1.307.644 2.38V149h-1.848v-3.584c0-.476-.052-.845-.154-1.106-.103-.261-.243-.448-.42-.56a1.094 1.094 0 0 0-.63-.182c-.448-.009-.794.135-1.036.434-.243.299-.364.742-.364 1.33V149h-1.848v-3.584c0-.476-.052-.845-.154-1.106-.094-.261-.234-.448-.42-.56a1.094 1.094 0 0 0-.63-.182c-.448-.009-.794.135-1.036.434-.234.299-.35.742-.35 1.33V149h-1.848Zm15.373.168c-.691 0-1.302-.154-1.834-.462a3.441 3.441 0 0 1-1.26-1.302c-.299-.551-.448-1.185-.448-1.904 0-.719.154-1.353.462-1.904.317-.551.746-.98 1.288-1.288.55-.317 1.18-.476 1.89-.476.616 0 1.18.163 1.694.49.522.317.938.789 1.246 1.414.317.616.476 1.367.476 2.254h-5.306l.168-.168c0 .345.084.649.252.91.177.252.401.448.672.588.28.131.578.196.896.196.382 0 .695-.079.938-.238.242-.168.429-.383.56-.644l1.652.644a3.47 3.47 0 0 1-.77 1.022c-.308.28-.677.495-1.106.644-.43.149-.92.224-1.47.224Zm-1.526-4.382-.168-.168h3.374l-.154.168c0-.336-.08-.602-.238-.798a1.385 1.385 0 0 0-.588-.448 1.712 1.712 0 0 0-.658-.14c-.215 0-.444.047-.686.14a1.562 1.562 0 0 0-.63.448c-.168.196-.252.462-.252.798Zm8.732 4.382a3.95 3.95 0 0 1-1.26-.196 3.315 3.315 0 0 1-1.036-.588 2.74 2.74 0 0 1-.7-.952l1.582-.728c.14.224.331.42.574.588.242.159.522.238.84.238.308 0 .546-.042.714-.126.168-.093.252-.224.252-.392a.382.382 0 0 0-.21-.364 1.808 1.808 0 0 0-.546-.21l-.644-.168c-.672-.177-1.204-.457-1.596-.84-.383-.392-.574-.84-.574-1.344 0-.719.228-1.274.686-1.666.466-.392 1.124-.588 1.974-.588.438 0 .844.065 1.218.196.382.131.709.313.98.546.27.233.457.504.56.812l-1.526.7c-.066-.187-.224-.336-.476-.448a1.734 1.734 0 0 0-.756-.182c-.252 0-.448.056-.588.168a.52.52 0 0 0-.196.434c0 .121.065.224.196.308.13.075.317.14.56.196l.91.224c.457.112.821.294 1.092.546.28.243.48.518.602.826.13.299.196.593.196.882 0 .42-.126.793-.378 1.12-.243.317-.579.565-1.008.742-.42.177-.901.266-1.442.266Z" fill="#A9BFF8"/><path d="M76.89 324v-3.312h-7.825v-2.616l7.44-10.872h3.48v10.68h2.928v2.808h-2.928V324H76.89Zm-4.44-6.12h4.44v-6.504l-4.44 6.504Zm18.955 6.408c-1.36 0-2.56-.368-3.6-1.104-1.04-.752-1.856-1.776-2.448-3.072-.592-1.312-.888-2.816-.888-4.512 0-1.696.296-3.192.888-4.488.592-1.312 1.4-2.336 2.424-3.072 1.04-.752 2.24-1.128 3.6-1.128 1.36 0 2.56.376 3.6 1.128 1.056.736 1.88 1.76 2.472 3.072.592 1.296.888 2.792.888 4.488 0 1.696-.296 3.2-.888 4.512-.592 1.296-1.408 2.32-2.448 3.072-1.04.736-2.24 1.104-3.6 1.104Zm0-2.976c.72 0 1.36-.24 1.92-.72.576-.496 1.024-1.168 1.344-2.016.32-.864.48-1.856.48-2.976 0-1.12-.16-2.112-.48-2.976-.32-.864-.768-1.536-1.344-2.016a2.844 2.844 0 0 0-1.944-.744c-.72 0-1.36.248-1.92.744-.56.48-1 1.152-1.32 2.016-.304.864-.456 1.856-.456 2.976 0 1.12.152 2.112.456 2.976.32.848.76 1.52 1.32 2.016.576.48 1.224.72 1.944.72ZM101.35 324l11.928-16.8h3.168l-12 16.8h-3.096Zm12.456.36c-.752 0-1.424-.176-2.016-.528a3.717 3.717 0 0 1-1.392-1.464c-.32-.64-.48-1.36-.48-2.16 0-.816.16-1.536.48-2.16.336-.624.8-1.112 1.392-1.464.592-.352 1.264-.528 2.016-.528.768 0 1.44.184 2.016.552.592.352 1.056.84 1.392 1.464.336.608.504 1.32.504 2.136 0 .8-.168 1.52-.504 2.16a3.717 3.717 0 0 1-1.392 1.464c-.576.352-1.248.528-2.016.528Zm0-2.112c.496 0 .896-.192 1.2-.576.304-.4.456-.888.456-1.464s-.152-1.056-.456-1.44c-.304-.4-.704-.6-1.2-.6-.48 0-.88.2-1.2.6-.304.384-.456.864-.456 1.44s.152 1.064.456 1.464c.32.384.72.576 1.2.576Zm-9.72-7.128c-.768 0-1.448-.176-2.04-.528a3.773 3.773 0 0 1-1.368-1.464c-.336-.64-.504-1.36-.504-2.16 0-.816.16-1.536.48-2.16.336-.624.8-1.112 1.392-1.464.592-.352 1.272-.528 2.04-.528s1.44.184 2.016.552c.592.352 1.048.84 1.368 1.464.336.608.504 1.32.504 2.136 0 .8-.168 1.52-.504 2.16a3.553 3.553 0 0 1-1.368 1.464c-.592.352-1.264.528-2.016.528Zm-.024-2.112c.496 0 .896-.192 1.2-.576.32-.4.48-.888.48-1.464s-.16-1.056-.48-1.44a1.456 1.456 0 0 0-1.2-.576c-.48 0-.872.192-1.176.576-.304.384-.456.864-.456 1.44s.152 1.064.456 1.464c.304.384.696.576 1.176.576Zm27.379 11.28c-1.216 0-2.304-.264-3.264-.792a5.977 5.977 0 0 1-2.232-2.232c-.528-.944-.792-2.032-.792-3.264 0-1.232.264-2.32.792-3.264a5.635 5.635 0 0 1 2.208-2.208c.944-.544 2.024-.816 3.24-.816 1.232 0 2.32.272 3.264.816a5.635 5.635 0 0 1 2.208 2.208c.528.944.792 2.032.792 3.264 0 1.232-.264 2.32-.792 3.264a5.802 5.802 0 0 1-2.208 2.232c-.928.528-2 .792-3.216.792Zm0-2.928c.592 0 1.112-.144 1.56-.432.448-.288.792-.68 1.032-1.176.256-.512.384-1.096.384-1.752 0-.656-.128-1.232-.384-1.728a2.91 2.91 0 0 0-1.08-1.2c-.448-.288-.968-.432-1.56-.432-.576 0-1.096.144-1.56.432a2.97 2.97 0 0 0-1.056 1.2c-.256.496-.384 1.072-.384 1.728 0 .656.128 1.24.384 1.752.256.496.616.888 1.08 1.176.464.288.992.432 1.584.432Zm9.505 2.64v-13.2c0-1.28.328-2.272.984-2.976.656-.72 1.656-1.08 3-1.08.464 0 .952.08 1.464.24.528.16 1.008.352 1.44.576l-1.176 2.28a4.623 4.623 0 0 0-.696-.288 1.97 1.97 0 0 0-.576-.096c-.432 0-.752.152-.96.456-.208.288-.312.76-.312 1.416V324h-3.168Zm-1.992-9.456V312h8.112v2.544h-8.112ZM150.369 324v-13.2c0-1.28.328-2.272.984-2.976.656-.72 1.656-1.08 3-1.08.464 0 .952.08 1.464.24.528.16 1.008.352 1.44.576l-1.176 2.28a4.623 4.623 0 0 0-.696-.288 1.97 1.97 0 0 0-.576-.096c-.432 0-.752.152-.96.456-.208.288-.312.76-.312 1.416V324h-3.168Zm-1.992-9.456V312h8.112v2.544h-8.112Zm18.164 3.144c0-1.296.248-2.368.744-3.216.512-.848 1.16-1.48 1.944-1.896a5.343 5.343 0 0 1 2.496-.624v3.072c-.736 0-1.432.088-2.088.264-.64.176-1.16.464-1.56.864-.4.4-.6.912-.6 1.536h-.936ZM164.309 324v-12h3.168v12h-3.168Zm14.518.288c-1.184 0-2.232-.264-3.144-.792a5.907 5.907 0 0 1-2.16-2.232c-.512-.944-.768-2.032-.768-3.264 0-1.232.264-2.32.792-3.264a5.851 5.851 0 0 1 2.208-2.208c.944-.544 2.024-.816 3.24-.816a5.3 5.3 0 0 1 2.904.84c.896.544 1.608 1.352 2.136 2.424.544 1.056.816 2.344.816 3.864h-9.096l.288-.288c0 .592.144 1.112.432 1.56.304.432.688.768 1.152 1.008.48.224.992.336 1.536.336.656 0 1.192-.136 1.608-.408.416-.288.736-.656.96-1.104l2.832 1.104a5.947 5.947 0 0 1-1.32 1.752c-.528.48-1.16.848-1.896 1.104-.736.256-1.576.384-2.52.384Zm-2.616-7.512-.288-.288h5.784l-.264.288c0-.576-.136-1.032-.408-1.368a2.367 2.367 0 0 0-1.008-.768 2.92 2.92 0 0 0-1.128-.24c-.368 0-.76.08-1.176.24-.416.16-.776.416-1.08.768-.288.336-.432.792-.432 1.368ZM193.94 324l-.096-2.424v-3.648c0-.72-.08-1.336-.24-1.848-.144-.512-.384-.904-.72-1.176-.32-.288-.76-.432-1.32-.432-.512 0-.976.112-1.392.336-.416.224-.768.568-1.056 1.032l-2.784-.96a5.578 5.578 0 0 1 .984-1.488c.432-.496.992-.896 1.68-1.2.704-.32 1.56-.48 2.568-.48 1.216 0 2.224.232 3.024.696a4.21 4.21 0 0 1 1.8 1.968c.4.832.592 1.824.576 2.976l-.072 6.648h-2.952Zm-3.36.288c-1.44 0-2.56-.32-3.36-.96-.784-.64-1.176-1.544-1.176-2.712 0-1.28.424-2.24 1.272-2.88.864-.656 2.072-.984 3.624-.984h3.048v2.352h-1.944c-1.04 0-1.76.128-2.16.384-.4.24-.6.584-.6 1.032 0 .352.16.632.48.84.32.192.768.288 1.344.288.528 0 .992-.12 1.392-.36.416-.256.744-.576.984-.96.24-.4.36-.808.36-1.224h.768c0 1.632-.312 2.904-.936 3.816-.608.912-1.64 1.368-3.096 1.368Zm13.397 0a6.788 6.788 0 0 1-2.16-.336 5.696 5.696 0 0 1-1.776-1.008 4.704 4.704 0 0 1-1.2-1.632l2.712-1.248c.24.384.568.72.984 1.008.416.272.896.408 1.44.408.528 0 .936-.072 1.224-.216.288-.16.432-.384.432-.672 0-.288-.12-.496-.36-.624-.224-.144-.536-.264-.936-.36l-1.104-.288c-1.152-.304-2.064-.784-2.736-1.44-.656-.672-.984-1.44-.984-2.304 0-1.232.392-2.184 1.176-2.856.8-.672 1.928-1.008 3.384-1.008a6.28 6.28 0 0 1 2.088.336 5.029 5.029 0 0 1 1.68.936c.464.4.784.864.96 1.392l-2.616 1.2c-.112-.32-.384-.576-.816-.768a2.965 2.965 0 0 0-1.296-.312c-.432 0-.768.096-1.008.288-.224.176-.336.424-.336.744 0 .208.112.384.336.528.224.128.544.24.96.336l1.56.384c.784.192 1.408.504 1.872.936.48.416.824.888 1.032 1.416.224.512.336 1.016.336 1.512 0 .72-.216 1.36-.648 1.92-.416.544-.992.968-1.728 1.272-.72.304-1.544.456-2.472.456Zm12.332 0c-1.216 0-2.304-.264-3.264-.792a5.977 5.977 0 0 1-2.232-2.232c-.528-.944-.792-2.032-.792-3.264 0-1.232.264-2.32.792-3.264a5.635 5.635 0 0 1 2.208-2.208c.944-.544 2.024-.816 3.24-.816 1.232 0 2.32.272 3.264.816a5.635 5.635 0 0 1 2.208 2.208c.528.944.792 2.032.792 3.264 0 1.232-.264 2.32-.792 3.264a5.802 5.802 0 0 1-2.208 2.232c-.928.528-2 .792-3.216.792Zm0-2.928c.592 0 1.112-.144 1.56-.432.448-.288.792-.68 1.032-1.176.256-.512.384-1.096.384-1.752 0-.656-.128-1.232-.384-1.728a2.91 2.91 0 0 0-1.08-1.2c-.448-.288-.968-.432-1.56-.432-.576 0-1.096.144-1.56.432a2.97 2.97 0 0 0-1.056 1.2c-.256.496-.384 1.072-.384 1.728 0 .656.128 1.24.384 1.752.256.496.616.888 1.08 1.176.464.288.992.432 1.584.432Zm8.305 2.64v-12h2.976l.192 2.208V324h-3.168Zm7.944 0v-6.144h3.168V324h-3.168Zm0-6.144c0-.816-.096-1.448-.288-1.896-.176-.448-.432-.768-.768-.96a2.188 2.188 0 0 0-1.176-.312c-.816-.016-1.448.232-1.896.744-.432.512-.648 1.272-.648 2.28h-1.056c0-1.28.184-2.36.552-3.24.384-.896.912-1.576 1.584-2.04.688-.48 1.488-.72 2.4-.72.944 0 1.752.192 2.424.576.672.384 1.184.984 1.536 1.8.352.8.52 1.84.504 3.12v.648h-3.168ZM245.503 324l-.096-2.424v-3.648c0-.72-.08-1.336-.24-1.848-.144-.512-.384-.904-.72-1.176-.32-.288-.76-.432-1.32-.432-.512 0-.976.112-1.392.336-.416.224-.768.568-1.056 1.032l-2.784-.96a5.578 5.578 0 0 1 .984-1.488c.432-.496.992-.896 1.68-1.2.704-.32 1.56-.48 2.568-.48 1.216 0 2.224.232 3.024.696a4.21 4.21 0 0 1 1.8 1.968c.4.832.592 1.824.576 2.976l-.072 6.648h-2.952Zm-3.36.288c-1.44 0-2.56-.32-3.36-.96-.784-.64-1.176-1.544-1.176-2.712 0-1.28.424-2.24 1.272-2.88.864-.656 2.072-.984 3.624-.984h3.048v2.352h-1.944c-1.04 0-1.76.128-2.16.384-.4.24-.6.584-.6 1.032 0 .352.16.632.48.84.32.192.768.288 1.344.288.528 0 .992-.12 1.392-.36.416-.256.744-.576.984-.96.24-.4.36-.808.36-1.224h.768c0 1.632-.312 2.904-.936 3.816-.608.912-1.64 1.368-3.096 1.368Zm8.909-.288v-16.8h3.168v14.568l-.168 2.232h-3Zm6.792.288c-1.008 0-1.864-.256-2.568-.768-.688-.512-1.216-1.24-1.584-2.184-.368-.944-.552-2.056-.552-3.336 0-1.296.184-2.408.552-3.336.368-.944.896-1.672 1.584-2.184.704-.512 1.56-.768 2.568-.768 1.104 0 2.056.256 2.856.768.816.512 1.448 1.24 1.896 2.184.448.928.672 2.04.672 3.336 0 1.28-.224 2.392-.672 3.336-.448.944-1.08 1.672-1.896 2.184-.8.512-1.752.768-2.856.768Zm-.816-2.904c.576 0 1.08-.144 1.512-.432a2.97 2.97 0 0 0 1.056-1.2c.256-.512.384-1.096.384-1.752 0-.656-.128-1.24-.384-1.752a2.651 2.651 0 0 0-1.032-1.176c-.432-.288-.936-.432-1.512-.432a2.58 2.58 0 0 0-1.464.432 2.866 2.866 0 0 0-1.008 1.2c-.24.496-.36 1.072-.36 1.728 0 .656.12 1.24.36 1.752s.568.912.984 1.2c.432.288.92.432 1.464.432Zm8.32 2.616v-16.8h3.168V324h-3.168Zm11.331.288c-1.184 0-2.232-.264-3.144-.792a5.907 5.907 0 0 1-2.16-2.232c-.512-.944-.768-2.032-.768-3.264 0-1.232.264-2.32.792-3.264a5.851 5.851 0 0 1 2.208-2.208c.944-.544 2.024-.816 3.24-.816a5.3 5.3 0 0 1 2.904.84c.896.544 1.608 1.352 2.136 2.424.544 1.056.816 2.344.816 3.864h-9.096l.288-.288c0 .592.144 1.112.432 1.56.304.432.688.768 1.152 1.008.48.224.992.336 1.536.336.656 0 1.192-.136 1.608-.408.416-.288.736-.656.96-1.104l2.832 1.104a5.947 5.947 0 0 1-1.32 1.752c-.528.48-1.16.848-1.896 1.104-.736.256-1.576.384-2.52.384Zm-2.616-7.512-.288-.288h5.784l-.264.288c0-.576-.136-1.032-.408-1.368a2.367 2.367 0 0 0-1.008-.768 2.92 2.92 0 0 0-1.128-.24c-.368 0-.76.08-1.176.24-.416.16-.776.416-1.08.768-.288.336-.432.792-.432 1.368ZM297.511 324l-.096-2.424v-3.648c0-.72-.08-1.336-.24-1.848-.144-.512-.384-.904-.72-1.176-.32-.288-.76-.432-1.32-.432-.512 0-.976.112-1.392.336-.416.224-.768.568-1.056 1.032l-2.784-.96a5.578 5.578 0 0 1 .984-1.488c.432-.496.992-.896 1.68-1.2.704-.32 1.56-.48 2.568-.48 1.216 0 2.224.232 3.024.696a4.21 4.21 0 0 1 1.8 1.968c.4.832.592 1.824.576 2.976l-.072 6.648h-2.952Zm-3.36.288c-1.44 0-2.56-.32-3.36-.96-.784-.64-1.176-1.544-1.176-2.712 0-1.28.424-2.24 1.272-2.88.864-.656 2.072-.984 3.624-.984h3.048v2.352h-1.944c-1.04 0-1.76.128-2.16.384-.4.24-.6.584-.6 1.032 0 .352.16.632.48.84.32.192.768.288 1.344.288.528 0 .992-.12 1.392-.36.416-.256.744-.576.984-.96.24-.4.36-.808.36-1.224h.768c0 1.632-.312 2.904-.936 3.816-.608.912-1.64 1.368-3.096 1.368Zm14.692 0c-1.248 0-2.36-.264-3.336-.792a5.88 5.88 0 0 1-2.28-2.232c-.544-.96-.816-2.048-.816-3.264 0-1.232.272-2.32.816-3.264a5.757 5.757 0 0 1 2.256-2.208c.96-.544 2.064-.816 3.312-.816 1.2 0 2.296.296 3.288.888.992.592 1.712 1.448 2.16 2.568l-2.976 1.056a2.507 2.507 0 0 0-1.056-1.104 2.898 2.898 0 0 0-1.56-.432c-.592 0-1.112.144-1.56.432-.448.272-.8.656-1.056 1.152-.256.496-.384 1.072-.384 1.728 0 .656.128 1.232.384 1.728.256.48.616.864 1.08 1.152.464.288.992.432 1.584.432.576 0 1.096-.152 1.56-.456a2.73 2.73 0 0 0 1.056-1.2l3 1.056c-.464 1.136-1.192 2.016-2.184 2.64-.976.624-2.072.936-3.288.936Zm13.102 0c-1.248 0-2.36-.264-3.336-.792a5.88 5.88 0 0 1-2.28-2.232c-.544-.96-.816-2.048-.816-3.264 0-1.232.272-2.32.816-3.264a5.757 5.757 0 0 1 2.256-2.208c.96-.544 2.064-.816 3.312-.816 1.2 0 2.296.296 3.288.888.992.592 1.712 1.448 2.16 2.568l-2.976 1.056a2.507 2.507 0 0 0-1.056-1.104 2.898 2.898 0 0 0-1.56-.432c-.592 0-1.112.144-1.56.432-.448.272-.8.656-1.056 1.152-.256.496-.384 1.072-.384 1.728 0 .656.128 1.232.384 1.728.256.48.616.864 1.08 1.152.464.288.992.432 1.584.432.576 0 1.096-.152 1.56-.456a2.73 2.73 0 0 0 1.056-1.2l3 1.056c-.464 1.136-1.192 2.016-2.184 2.64-.976.624-2.072.936-3.288.936Zm12.958 0c-1.216 0-2.304-.264-3.264-.792a5.977 5.977 0 0 1-2.232-2.232c-.528-.944-.792-2.032-.792-3.264 0-1.232.264-2.32.792-3.264a5.635 5.635 0 0 1 2.208-2.208c.944-.544 2.024-.816 3.24-.816 1.232 0 2.32.272 3.264.816a5.635 5.635 0 0 1 2.208 2.208c.528.944.792 2.032.792 3.264 0 1.232-.264 2.32-.792 3.264a5.802 5.802 0 0 1-2.208 2.232c-.928.528-2 .792-3.216.792Zm0-2.928c.592 0 1.112-.144 1.56-.432.448-.288.792-.68 1.032-1.176.256-.512.384-1.096.384-1.752 0-.656-.128-1.232-.384-1.728a2.91 2.91 0 0 0-1.08-1.2c-.448-.288-.968-.432-1.56-.432-.576 0-1.096.144-1.56.432a2.97 2.97 0 0 0-1.056 1.2c-.256.496-.384 1.072-.384 1.728 0 .656.128 1.24.384 1.752.256.496.616.888 1.08 1.176.464.288.992.432 1.584.432Zm8.305 2.64v-12h2.976l.144 1.56c.368-.608.84-1.064 1.416-1.368a3.886 3.886 0 0 1 1.92-.48c.976 0 1.792.208 2.448.624.672.416 1.16 1.056 1.464 1.92.352-.816.848-1.44 1.488-1.872.64-.448 1.384-.672 2.232-.672 1.408 0 2.48.448 3.216 1.344.736.88 1.104 2.24 1.104 4.08V324h-3.168v-6.144c0-.816-.088-1.448-.264-1.896-.176-.448-.416-.768-.72-.96-.304-.208-.664-.312-1.08-.312-.768-.016-1.36.232-1.776.744-.416.512-.624 1.272-.624 2.28V324h-3.168v-6.144c0-.816-.088-1.448-.264-1.896-.16-.448-.4-.768-.72-.96-.304-.208-.664-.312-1.08-.312-.768-.016-1.36.232-1.776.744-.4.512-.6 1.272-.6 2.28V324h-3.168Zm26.57.288c-1.216 0-2.304-.264-3.264-.792a5.977 5.977 0 0 1-2.232-2.232c-.528-.944-.792-2.032-.792-3.264 0-1.232.264-2.32.792-3.264a5.635 5.635 0 0 1 2.208-2.208c.944-.544 2.024-.816 3.24-.816 1.232 0 2.32.272 3.264.816a5.635 5.635 0 0 1 2.208 2.208c.528.944.792 2.032.792 3.264 0 1.232-.264 2.32-.792 3.264a5.802 5.802 0 0 1-2.208 2.232c-.928.528-2 .792-3.216.792Zm0-2.928c.592 0 1.112-.144 1.56-.432.448-.288.792-.68 1.032-1.176.256-.512.384-1.096.384-1.752 0-.656-.128-1.232-.384-1.728a2.91 2.91 0 0 0-1.08-1.2c-.448-.288-.968-.432-1.56-.432-.576 0-1.096.144-1.56.432a2.97 2.97 0 0 0-1.056 1.2c-.256.496-.384 1.072-.384 1.728 0 .656.128 1.24.384 1.752.256.496.616.888 1.08 1.176.464.288.992.432 1.584.432Zm16.849 2.64-.168-2.232V307.2h3.168V324h-3Zm-3.768.288c-1.104 0-2.064-.256-2.88-.768-.8-.512-1.424-1.24-1.872-2.184-.448-.944-.672-2.056-.672-3.336 0-1.296.224-2.408.672-3.336.448-.944 1.072-1.672 1.872-2.184.816-.512 1.776-.768 2.88-.768 1.008 0 1.856.256 2.544.768.704.512 1.24 1.24 1.608 2.184.368.928.552 2.04.552 3.336 0 1.28-.184 2.392-.552 3.336-.368.944-.904 1.672-1.608 2.184-.688.512-1.536.768-2.544.768Zm.816-2.904c.544 0 1.024-.144 1.44-.432a2.866 2.866 0 0 0 1.008-1.2c.24-.512.36-1.096.36-1.752 0-.656-.12-1.24-.36-1.752s-.576-.904-1.008-1.176c-.416-.288-.904-.432-1.464-.432-.576 0-1.08.144-1.512.432-.432.272-.776.664-1.032 1.176-.256.512-.384 1.096-.384 1.752 0 .656.128 1.24.384 1.752s.6.912 1.032 1.2c.448.288.96.432 1.536.432ZM399.604 324l-.096-2.424v-3.648c0-.72-.08-1.336-.24-1.848-.144-.512-.384-.904-.72-1.176-.32-.288-.76-.432-1.32-.432-.512 0-.976.112-1.392.336-.416.224-.768.568-1.056 1.032l-2.784-.96a5.578 5.578 0 0 1 .984-1.488c.432-.496.992-.896 1.68-1.2.704-.32 1.56-.48 2.568-.48 1.216 0 2.224.232 3.024.696a4.21 4.21 0 0 1 1.8 1.968c.4.832.592 1.824.576 2.976l-.072 6.648h-2.952Zm-3.36.288c-1.44 0-2.56-.32-3.36-.96-.784-.64-1.176-1.544-1.176-2.712 0-1.28.424-2.24 1.272-2.88.864-.656 2.072-.984 3.624-.984h3.048v2.352h-1.944c-1.04 0-1.76.128-2.16.384-.4.24-.6.584-.6 1.032 0 .352.16.632.48.84.32.192.768.288 1.344.288.528 0 .992-.12 1.392-.36.416-.256.744-.576.984-.96.24-.4.36-.808.36-1.224h.768c0 1.632-.312 2.904-.936 3.816-.608.912-1.64 1.368-3.096 1.368Zm13.853 0c-1.328 0-2.336-.328-3.024-.984-.672-.656-1.008-1.592-1.008-2.808v-12.24h3.168V319.8c0 .512.112.904.336 1.176.224.256.552.384.984.384.16 0 .336-.032.528-.096.192-.08.392-.192.6-.336l1.104 2.376c-.384.288-.816.52-1.296.696a3.616 3.616 0 0 1-1.392.288Zm-5.976-9.6V312h8.112v2.688h-8.112Zm10.88 9.312v-12h3.168v12h-3.168Zm1.584-13.944c-.48 0-.904-.176-1.272-.528-.368-.368-.552-.8-.552-1.296s.184-.92.552-1.272c.368-.368.792-.552 1.272-.552.496 0 .92.184 1.272.552.368.352.552.776.552 1.272s-.184.928-.552 1.296a1.734 1.734 0 0 1-1.272.528Zm10.146 14.232c-1.216 0-2.304-.264-3.264-.792a5.977 5.977 0 0 1-2.232-2.232c-.528-.944-.792-2.032-.792-3.264 0-1.232.264-2.32.792-3.264a5.635 5.635 0 0 1 2.208-2.208c.944-.544 2.024-.816 3.24-.816 1.232 0 2.32.272 3.264.816a5.635 5.635 0 0 1 2.208 2.208c.528.944.792 2.032.792 3.264 0 1.232-.264 2.32-.792 3.264a5.802 5.802 0 0 1-2.208 2.232c-.928.528-2 .792-3.216.792Zm0-2.928c.592 0 1.112-.144 1.56-.432.448-.288.792-.68 1.032-1.176.256-.512.384-1.096.384-1.752 0-.656-.128-1.232-.384-1.728a2.91 2.91 0 0 0-1.08-1.2c-.448-.288-.968-.432-1.56-.432-.576 0-1.096.144-1.56.432a2.97 2.97 0 0 0-1.056 1.2c-.256.496-.384 1.072-.384 1.728 0 .656.128 1.24.384 1.752.256.496.616.888 1.08 1.176.464.288.992.432 1.584.432Zm8.305 2.64v-12h2.976l.192 2.208V324h-3.168Zm7.944 0v-6.144h3.168V324h-3.168Zm0-6.144c0-.816-.096-1.448-.288-1.896-.176-.448-.432-.768-.768-.96a2.188 2.188 0 0 0-1.176-.312c-.816-.016-1.448.232-1.896.744-.432.512-.648 1.272-.648 2.28h-1.056c0-1.28.184-2.36.552-3.24.384-.896.912-1.576 1.584-2.04.688-.48 1.488-.72 2.4-.72.944 0 1.752.192 2.424.576.672.384 1.184.984 1.536 1.8.352.8.52 1.84.504 3.12v.648h-3.168Zm13.647-.168c0-1.296.248-2.368.744-3.216.512-.848 1.16-1.48 1.944-1.896a5.343 5.343 0 0 1 2.496-.624v3.072c-.736 0-1.432.088-2.088.264-.64.176-1.16.464-1.56.864-.4.4-.6.912-.6 1.536h-.936ZM454.395 324v-12h3.168v12h-3.168Zm14.518.288c-1.184 0-2.232-.264-3.144-.792a5.907 5.907 0 0 1-2.16-2.232c-.512-.944-.768-2.032-.768-3.264 0-1.232.264-2.32.792-3.264a5.851 5.851 0 0 1 2.208-2.208c.944-.544 2.024-.816 3.24-.816a5.3 5.3 0 0 1 2.904.84c.896.544 1.608 1.352 2.136 2.424.544 1.056.816 2.344.816 3.864h-9.096l.288-.288c0 .592.144 1.112.432 1.56.304.432.688.768 1.152 1.008.48.224.992.336 1.536.336.656 0 1.192-.136 1.608-.408.416-.288.736-.656.96-1.104l2.832 1.104a5.947 5.947 0 0 1-1.32 1.752c-.528.48-1.16.848-1.896 1.104-.736.256-1.576.384-2.52.384Zm-2.616-7.512-.288-.288h5.784l-.264.288c0-.576-.136-1.032-.408-1.368a2.367 2.367 0 0 0-1.008-.768 2.92 2.92 0 0 0-1.128-.24c-.368 0-.76.08-1.176.24-.416.16-.776.416-1.08.768-.288.336-.432.792-.432 1.368Zm18.881 12.024v-14.568l.168-2.232h3v16.8h-3.168Zm-3.624-4.512c-1.104 0-2.064-.256-2.88-.768-.8-.512-1.424-1.24-1.872-2.184-.448-.944-.672-2.056-.672-3.336 0-1.296.224-2.408.672-3.336.448-.944 1.072-1.672 1.872-2.184.816-.512 1.776-.768 2.88-.768 1.008 0 1.856.256 2.544.768.704.512 1.24 1.24 1.608 2.184.368.928.552 2.04.552 3.336 0 1.28-.184 2.392-.552 3.336-.368.944-.904 1.672-1.608 2.184-.688.512-1.536.768-2.544.768Zm.816-2.904c.544 0 1.024-.144 1.44-.432a2.866 2.866 0 0 0 1.008-1.2c.24-.512.36-1.096.36-1.752 0-.656-.12-1.24-.36-1.752s-.576-.904-1.008-1.176c-.416-.288-.904-.432-1.464-.432-.576 0-1.08.144-1.512.432-.432.272-.776.664-1.032 1.176-.256.512-.384 1.096-.384 1.752 0 .656.128 1.24.384 1.752s.6.912 1.032 1.2c.448.288.96.432 1.536.432ZM498.901 324l-.192-2.208V312h3.168v12h-2.976Zm-8.136-5.856V312h3.168v6.144h-3.168Zm3.168 0c0 .8.088 1.432.264 1.896.192.448.456.776.792.984.352.192.744.288 1.176.288.832.016 1.464-.232 1.896-.744.432-.528.648-1.288.648-2.28h1.08c0 1.28-.192 2.368-.576 3.264-.384.88-.912 1.56-1.584 2.04-.672.464-1.464.696-2.376.696-.96 0-1.776-.192-2.448-.576-.672-.384-1.184-.976-1.536-1.776-.336-.816-.504-1.864-.504-3.144v-.648h3.168Zm16.113 6.144c-1.184 0-2.232-.264-3.144-.792a5.907 5.907 0 0 1-2.16-2.232c-.512-.944-.768-2.032-.768-3.264 0-1.232.264-2.32.792-3.264a5.851 5.851 0 0 1 2.208-2.208c.944-.544 2.024-.816 3.24-.816a5.3 5.3 0 0 1 2.904.84c.896.544 1.608 1.352 2.136 2.424.544 1.056.816 2.344.816 3.864h-9.096l.288-.288c0 .592.144 1.112.432 1.56.304.432.688.768 1.152 1.008.48.224.992.336 1.536.336.656 0 1.192-.136 1.608-.408.416-.288.736-.656.96-1.104l2.832 1.104a5.947 5.947 0 0 1-1.32 1.752c-.528.48-1.16.848-1.896 1.104-.736.256-1.576.384-2.52.384Zm-2.616-7.512-.288-.288h5.784l-.264.288c0-.576-.136-1.032-.408-1.368a2.367 2.367 0 0 0-1.008-.768 2.92 2.92 0 0 0-1.128-.24c-.368 0-.76.08-1.176.24-.416.16-.776.416-1.08.768-.288.336-.432.792-.432 1.368Zm14.969 7.512a6.788 6.788 0 0 1-2.16-.336 5.696 5.696 0 0 1-1.776-1.008 4.704 4.704 0 0 1-1.2-1.632l2.712-1.248c.24.384.568.72.984 1.008.416.272.896.408 1.44.408.528 0 .936-.072 1.224-.216.288-.16.432-.384.432-.672 0-.288-.12-.496-.36-.624-.224-.144-.536-.264-.936-.36l-1.104-.288c-1.152-.304-2.064-.784-2.736-1.44-.656-.672-.984-1.44-.984-2.304 0-1.232.392-2.184 1.176-2.856.8-.672 1.928-1.008 3.384-1.008a6.28 6.28 0 0 1 2.088.336 5.029 5.029 0 0 1 1.68.936c.464.4.784.864.96 1.392l-2.616 1.2c-.112-.32-.384-.576-.816-.768a2.965 2.965 0 0 0-1.296-.312c-.432 0-.768.096-1.008.288-.224.176-.336.424-.336.744 0 .208.112.384.336.528.224.128.544.24.96.336l1.56.384c.784.192 1.408.504 1.872.936.48.416.824.888 1.032 1.416.224.512.336 1.016.336 1.512 0 .72-.216 1.36-.648 1.92-.416.544-.992.968-1.728 1.272-.72.304-1.544.456-2.472.456Zm11.636 0c-1.328 0-2.336-.328-3.024-.984-.672-.656-1.008-1.592-1.008-2.808v-12.24h3.168V319.8c0 .512.112.904.336 1.176.224.256.552.384.984.384.16 0 .336-.032.528-.096.192-.08.392-.192.6-.336l1.104 2.376c-.384.288-.816.52-1.296.696a3.616 3.616 0 0 1-1.392.288Zm-5.976-9.6V312h8.112v2.688h-8.112Zm15.176 9.6a6.788 6.788 0 0 1-2.16-.336 5.696 5.696 0 0 1-1.776-1.008 4.704 4.704 0 0 1-1.2-1.632l2.712-1.248c.24.384.568.72.984 1.008.416.272.896.408 1.44.408.528 0 .936-.072 1.224-.216.288-.16.432-.384.432-.672 0-.288-.12-.496-.36-.624-.224-.144-.536-.264-.936-.36l-1.104-.288c-1.152-.304-2.064-.784-2.736-1.44-.656-.672-.984-1.44-.984-2.304 0-1.232.392-2.184 1.176-2.856.8-.672 1.928-1.008 3.384-1.008a6.28 6.28 0 0 1 2.088.336 5.029 5.029 0 0 1 1.68.936c.464.4.784.864.96 1.392l-2.616 1.2c-.112-.32-.384-.576-.816-.768a2.965 2.965 0 0 0-1.296-.312c-.432 0-.768.096-1.008.288-.224.176-.336.424-.336.744 0 .208.112.384.336.528.224.128.544.24.96.336l1.56.384c.784.192 1.408.504 1.872.936.48.416.824.888 1.032 1.416.224.512.336 1.016.336 1.512 0 .72-.216 1.36-.648 1.92-.416.544-.992.968-1.728 1.272-.72.304-1.544.456-2.472.456ZM136.701 348l-.168-2.232V331.2h3.168V348h-3Zm-3.768.288c-1.104 0-2.064-.256-2.88-.768-.8-.512-1.424-1.24-1.872-2.184-.448-.944-.672-2.056-.672-3.336 0-1.296.224-2.408.672-3.336.448-.944 1.072-1.672 1.872-2.184.816-.512 1.776-.768 2.88-.768 1.008 0 1.856.256 2.544.768.704.512 1.24 1.24 1.608 2.184.368.928.552 2.04.552 3.336 0 1.28-.184 2.392-.552 3.336-.368.944-.904 1.672-1.608 2.184-.688.512-1.536.768-2.544.768Zm.816-2.904c.544 0 1.024-.144 1.44-.432a2.866 2.866 0 0 0 1.008-1.2c.24-.512.36-1.096.36-1.752 0-.656-.12-1.24-.36-1.752s-.576-.904-1.008-1.176c-.416-.288-.904-.432-1.464-.432-.576 0-1.08.144-1.512.432-.432.272-.776.664-1.032 1.176-.256.512-.384 1.096-.384 1.752 0 .656.128 1.24.384 1.752s.6.912 1.032 1.2c.448.288.96.432 1.536.432Zm14.322 2.904c-1.216 0-2.304-.264-3.264-.792a5.977 5.977 0 0 1-2.232-2.232c-.528-.944-.792-2.032-.792-3.264 0-1.232.264-2.32.792-3.264a5.635 5.635 0 0 1 2.208-2.208c.944-.544 2.024-.816 3.24-.816 1.232 0 2.32.272 3.264.816a5.635 5.635 0 0 1 2.208 2.208c.528.944.791 2.032.791 3.264 0 1.232-.263 2.32-.791 3.264a5.802 5.802 0 0 1-2.208 2.232c-.928.528-2 .792-3.216.792Zm0-2.928c.592 0 1.112-.144 1.56-.432.448-.288.792-.68 1.032-1.176.256-.512.384-1.096.384-1.752 0-.656-.128-1.232-.384-1.728a2.91 2.91 0 0 0-1.08-1.2c-.448-.288-.968-.432-1.56-.432-.576 0-1.096.144-1.56.432a2.97 2.97 0 0 0-1.056 1.2c-.256.496-.384 1.072-.384 1.728 0 .656.128 1.24.384 1.752.256.496.616.888 1.08 1.176.464.288.992.432 1.584.432Zm8.305 2.64v-12h2.976l.192 2.208V348h-3.168Zm7.944 0v-6.144h3.168V348h-3.168Zm0-6.144c0-.816-.096-1.448-.288-1.896-.176-.448-.432-.768-.768-.96a2.188 2.188 0 0 0-1.176-.312c-.816-.016-1.448.232-1.896.744-.432.512-.648 1.272-.648 2.28h-1.056c0-1.28.184-2.36.552-3.24.384-.896.912-1.576 1.584-2.04.688-.48 1.488-.72 2.4-.72.944 0 1.752.192 2.424.576.672.384 1.184.984 1.536 1.8.352.8.52 1.84.504 3.12v.648h-3.168Zm4.64-4.992 1.464-5.664h3.288l-2.352 5.664h-2.4Zm11.25 11.424c-1.328 0-2.336-.328-3.024-.984-.672-.656-1.008-1.592-1.008-2.808v-12.24h3.168V343.8c0 .512.112.904.336 1.176.224.256.552.384.984.384.16 0 .336-.032.528-.096.192-.08.392-.192.6-.336l1.104 2.376c-.384.288-.816.52-1.296.696a3.616 3.616 0 0 1-1.392.288Zm-5.976-9.6V336h8.112v2.688h-8.112ZM190.641 348v-12h2.976l.144 1.56c.368-.608.84-1.064 1.416-1.368a3.886 3.886 0 0 1 1.92-.48c.976 0 1.792.208 2.448.624.672.416 1.16 1.056 1.464 1.92.352-.816.848-1.44 1.488-1.872.64-.448 1.384-.672 2.232-.672 1.408 0 2.48.448 3.216 1.344.736.88 1.104 2.24 1.104 4.08V348h-3.168v-6.144c0-.816-.088-1.448-.264-1.896-.176-.448-.416-.768-.72-.96-.304-.208-.664-.312-1.08-.312-.768-.016-1.36.232-1.776.744-.416.512-.624 1.272-.624 2.28V348h-3.168v-6.144c0-.816-.088-1.448-.264-1.896-.16-.448-.4-.768-.72-.96-.304-.208-.664-.312-1.08-.312-.768-.016-1.36.232-1.776.744-.4.512-.6 1.272-.6 2.28V348h-3.168Zm26.354.288c-1.184 0-2.232-.264-3.144-.792a5.907 5.907 0 0 1-2.16-2.232c-.512-.944-.768-2.032-.768-3.264 0-1.232.264-2.32.792-3.264a5.851 5.851 0 0 1 2.208-2.208c.944-.544 2.024-.816 3.24-.816a5.3 5.3 0 0 1 2.904.84c.896.544 1.608 1.352 2.136 2.424.544 1.056.816 2.344.816 3.864h-9.096l.288-.288c0 .592.144 1.112.432 1.56.304.432.688.768 1.152 1.008.48.224.992.336 1.536.336.656 0 1.192-.136 1.608-.408.416-.288.736-.656.96-1.104l2.832 1.104a5.947 5.947 0 0 1-1.32 1.752c-.528.48-1.16.848-1.896 1.104-.736.256-1.576.384-2.52.384Zm-2.616-7.512-.288-.288h5.784l-.264.288c0-.576-.136-1.032-.408-1.368a2.367 2.367 0 0 0-1.008-.768 2.92 2.92 0 0 0-1.128-.24c-.368 0-.76.08-1.176.24-.416.16-.776.416-1.08.768-.288.336-.432.792-.432 1.368Zm15.905 7.512c-1.184 0-2.232-.264-3.144-.792a5.907 5.907 0 0 1-2.16-2.232c-.512-.944-.768-2.032-.768-3.264 0-1.232.264-2.32.792-3.264a5.851 5.851 0 0 1 2.208-2.208c.944-.544 2.024-.816 3.24-.816a5.3 5.3 0 0 1 2.904.84c.896.544 1.608 1.352 2.136 2.424.544 1.056.816 2.344.816 3.864h-9.096l.288-.288c0 .592.144 1.112.432 1.56.304.432.688.768 1.152 1.008.48.224.992.336 1.536.336.656 0 1.192-.136 1.608-.408.416-.288.736-.656.96-1.104l2.832 1.104a5.947 5.947 0 0 1-1.32 1.752c-.528.48-1.16.848-1.896 1.104-.736.256-1.576.384-2.52.384Zm-2.616-7.512-.288-.288h5.784l-.264.288c0-.576-.136-1.032-.408-1.368a2.367 2.367 0 0 0-1.008-.768 2.92 2.92 0 0 0-1.128-.24c-.368 0-.76.08-1.176.24-.416.16-.776.416-1.08.768-.288.336-.432.792-.432 1.368Zm15.425 7.512c-1.328 0-2.336-.328-3.024-.984-.672-.656-1.008-1.592-1.008-2.808v-12.24h3.168V343.8c0 .512.112.904.336 1.176.224.256.552.384.984.384.16 0 .336-.032.528-.096.192-.08.392-.192.6-.336l1.104 2.376c-.384.288-.816.52-1.296.696a3.616 3.616 0 0 1-1.392.288Zm-5.976-9.6V336h8.112v2.688h-8.112Zm21.351 9.6c-1.328 0-2.336-.328-3.024-.984-.672-.656-1.008-1.592-1.008-2.808v-12.24h3.168V343.8c0 .512.112.904.336 1.176.224.256.552.384.984.384.16 0 .336-.032.528-.096.192-.08.392-.192.6-.336l1.104 2.376c-.384.288-.816.52-1.296.696a3.616 3.616 0 0 1-1.392.288Zm-5.976-9.6V336h8.112v2.688h-8.112ZM263.205 348v-16.8h3.168V348h-3.168Zm7.968 0v-6.144h3.168V348h-3.168Zm0-6.144c0-.816-.096-1.448-.288-1.896-.192-.448-.456-.768-.792-.96a2.188 2.188 0 0 0-1.176-.312c-.816-.016-1.448.232-1.896.744-.432.512-.648 1.272-.648 2.28h-1.056c0-1.28.184-2.36.552-3.24.384-.896.912-1.576 1.584-2.04.688-.48 1.488-.72 2.4-.72.96 0 1.768.192 2.424.576.672.384 1.184.984 1.535 1.8.353.8.529 1.84.529 3.12v.648h-3.168Zm11.119 6.432c-1.184 0-2.232-.264-3.144-.792a5.907 5.907 0 0 1-2.16-2.232c-.512-.944-.768-2.032-.768-3.264 0-1.232.264-2.32.792-3.264a5.851 5.851 0 0 1 2.208-2.208c.944-.544 2.024-.816 3.24-.816a5.3 5.3 0 0 1 2.904.84c.896.544 1.608 1.352 2.136 2.424.544 1.056.816 2.344.816 3.864h-9.096l.288-.288c0 .592.144 1.112.432 1.56.304.432.688.768 1.152 1.008.48.224.992.336 1.536.336.656 0 1.192-.136 1.608-.408.416-.288.736-.656.96-1.104l2.832 1.104a5.947 5.947 0 0 1-1.32 1.752c-.528.48-1.16.848-1.896 1.104-.736.256-1.576.384-2.52.384Zm-2.616-7.512-.288-.288h5.784l-.264.288c0-.576-.136-1.032-.408-1.368a2.367 2.367 0 0 0-1.008-.768 2.92 2.92 0 0 0-1.128-.24c-.368 0-.76.08-1.176.24-.416.16-.776.416-1.08.768-.288.336-.432.792-.432 1.368Zm17.4 7.224v-13.2c0-1.28.328-2.272.984-2.976.656-.72 1.656-1.08 3-1.08.464 0 .952.08 1.464.24.528.16 1.008.352 1.44.576l-1.176 2.28a4.623 4.623 0 0 0-.696-.288 1.97 1.97 0 0 0-.576-.096c-.432 0-.752.152-.96.456-.208.288-.312.76-.312 1.416V348h-3.168Zm-1.992-9.456V336h8.112v2.544h-8.112Zm15.356 9.744c-1.184 0-2.232-.264-3.144-.792a5.907 5.907 0 0 1-2.16-2.232c-.512-.944-.768-2.032-.768-3.264 0-1.232.264-2.32.792-3.264a5.851 5.851 0 0 1 2.208-2.208c.944-.544 2.024-.816 3.24-.816a5.3 5.3 0 0 1 2.904.84c.896.544 1.608 1.352 2.136 2.424.544 1.056.816 2.344.816 3.864h-9.096l.288-.288c0 .592.144 1.112.432 1.56.304.432.688.768 1.152 1.008.48.224.992.336 1.536.336.656 0 1.192-.136 1.608-.408.416-.288.736-.656.96-1.104l2.832 1.104a5.947 5.947 0 0 1-1.32 1.752c-.528.48-1.16.848-1.896 1.104-.736.256-1.576.384-2.52.384Zm-2.616-7.512-.288-.288h5.784l-.264.288c0-.576-.136-1.032-.408-1.368a2.367 2.367 0 0 0-1.008-.768 2.92 2.92 0 0 0-1.128-.24c-.368 0-.76.08-1.176.24-.416.16-.776.416-1.08.768-.288.336-.432.792-.432 1.368ZM326.85 348l-.168-2.232V331.2h3.168V348h-3Zm-3.768.288c-1.104 0-2.064-.256-2.88-.768-.8-.512-1.424-1.24-1.872-2.184-.448-.944-.672-2.056-.672-3.336 0-1.296.224-2.408.672-3.336.448-.944 1.072-1.672 1.872-2.184.816-.512 1.776-.768 2.88-.768 1.008 0 1.856.256 2.544.768.704.512 1.24 1.24 1.608 2.184.368.928.552 2.04.552 3.336 0 1.28-.184 2.392-.552 3.336-.368.944-.904 1.672-1.608 2.184-.688.512-1.536.768-2.544.768Zm.816-2.904c.544 0 1.024-.144 1.44-.432a2.866 2.866 0 0 0 1.008-1.2c.24-.512.36-1.096.36-1.752 0-.656-.12-1.24-.36-1.752s-.576-.904-1.008-1.176c-.416-.288-.904-.432-1.464-.432-.576 0-1.08.144-1.512.432-.432.272-.776.664-1.032 1.176-.256.512-.384 1.096-.384 1.752 0 .656.128 1.24.384 1.752s.6.912 1.032 1.2c.448.288.96.432 1.536.432Zm14.105 2.904c-1.184 0-2.232-.264-3.144-.792a5.907 5.907 0 0 1-2.16-2.232c-.512-.944-.768-2.032-.768-3.264 0-1.232.264-2.32.792-3.264a5.851 5.851 0 0 1 2.208-2.208c.944-.544 2.024-.816 3.24-.816a5.3 5.3 0 0 1 2.904.84c.896.544 1.608 1.352 2.136 2.424.544 1.056.816 2.344.816 3.864h-9.096l.288-.288c0 .592.144 1.112.432 1.56.304.432.688.768 1.152 1.008.48.224.992.336 1.536.336.656 0 1.192-.136 1.608-.408.416-.288.736-.656.96-1.104l2.832 1.104a5.947 5.947 0 0 1-1.32 1.752c-.528.48-1.16.848-1.896 1.104-.736.256-1.576.384-2.52.384Zm-2.616-7.512-.288-.288h5.784l-.264.288c0-.576-.136-1.032-.408-1.368a2.367 2.367 0 0 0-1.008-.768 2.92 2.92 0 0 0-1.128-.24c-.368 0-.76.08-1.176.24-.416.16-.776.416-1.08.768-.288.336-.432.792-.432 1.368Zm12.713.912c0-1.296.248-2.368.744-3.216.512-.848 1.16-1.48 1.944-1.896a5.343 5.343 0 0 1 2.496-.624v3.072c-.736 0-1.432.088-2.088.264-.64.176-1.16.464-1.56.864-.4.4-.6.912-.6 1.536h-.936ZM345.868 348v-12h3.168v12h-3.168Zm16.342 0-.096-2.424v-3.648c0-.72-.08-1.336-.24-1.848-.144-.512-.384-.904-.72-1.176-.32-.288-.76-.432-1.32-.432-.512 0-.976.112-1.392.336-.416.224-.768.568-1.056 1.032l-2.784-.96a5.578 5.578 0 0 1 .984-1.488c.432-.496.992-.896 1.68-1.2.704-.32 1.56-.48 2.568-.48 1.216 0 2.224.232 3.024.696a4.21 4.21 0 0 1 1.8 1.968c.4.832.592 1.824.576 2.976l-.072 6.648h-2.952Zm-3.36.288c-1.44 0-2.56-.32-3.36-.96-.784-.64-1.176-1.544-1.176-2.712 0-1.28.424-2.24 1.272-2.88.864-.656 2.072-.984 3.624-.984h3.048v2.352h-1.944c-1.04 0-1.76.128-2.16.384-.4.24-.6.584-.6 1.032 0 .352.16.632.48.84.32.192.768.288 1.344.288.528 0 .992-.12 1.392-.36.416-.256.744-.576.984-.96.24-.4.36-.808.36-1.224h.768c0 1.632-.312 2.904-.936 3.816-.608.912-1.64 1.368-3.096 1.368Zm8.909-.288v-16.8h3.168V348h-3.168Zm17.025 5.112c-.912 0-1.72-.064-2.424-.192s-1.296-.296-1.776-.504a7.122 7.122 0 0 1-1.176-.624l1.248-2.544c.224.128.52.272.888.432.368.176.808.32 1.32.432.512.128 1.104.192 1.776.192.64 0 1.2-.128 1.68-.384.496-.24.88-.624 1.152-1.152.288-.512.432-1.168.432-1.968V336h3.168v10.704c0 1.344-.256 2.496-.768 3.456-.512.976-1.24 1.712-2.184 2.208-.928.496-2.04.744-3.336.744Zm-.624-5.448c-1.104 0-2.064-.24-2.88-.72a4.956 4.956 0 0 1-1.872-2.016c-.448-.864-.672-1.888-.672-3.072 0-1.248.224-2.328.672-3.24.448-.928 1.072-1.64 1.872-2.136.816-.512 1.776-.768 2.88-.768.96 0 1.792.256 2.496.768.704.496 1.248 1.208 1.632 2.136.384.928.576 2.032.576 3.312 0 1.152-.192 2.16-.576 3.024-.384.864-.928 1.536-1.632 2.016-.704.464-1.536.696-2.496.696Zm.912-2.664c.544 0 1.016-.136 1.416-.408.416-.288.736-.672.96-1.152.224-.496.336-1.056.336-1.68 0-.64-.12-1.2-.36-1.68a2.654 2.654 0 0 0-.96-1.128c-.4-.272-.872-.408-1.416-.408-.56 0-1.056.136-1.488.408a2.76 2.76 0 0 0-1.008 1.128c-.24.48-.368 1.04-.384 1.68.016.624.144 1.184.384 1.68.24.48.576.864 1.008 1.152.448.272.952.408 1.512.408Zm16.646 3-.192-2.208V336h3.168v12h-2.976Zm-8.136-5.856V336h3.168v6.144h-3.168Zm3.168 0c0 .8.088 1.432.264 1.896.192.448.456.776.792.984.352.192.744.288 1.176.288.832.016 1.464-.232 1.896-.744.432-.528.648-1.288.648-2.28h1.08c0 1.28-.192 2.368-.576 3.264-.384.88-.912 1.56-1.584 2.04-.672.464-1.464.696-2.376.696-.96 0-1.776-.192-2.448-.576-.672-.384-1.184-.976-1.536-1.776-.336-.816-.504-1.864-.504-3.144v-.648h3.168ZM407.63 348v-12h3.168v12h-3.168Zm1.584-13.944c-.48 0-.904-.176-1.272-.528-.368-.368-.552-.8-.552-1.296s.184-.92.552-1.272c.368-.368.792-.552 1.272-.552.496 0 .92.184 1.272.552.368.352.552.776.552 1.272s-.184.928-.552 1.296a1.734 1.734 0 0 1-1.272.528ZM422.264 348l-.168-2.232V331.2h3.168V348h-3Zm-3.768.288c-1.104 0-2.064-.256-2.88-.768-.8-.512-1.424-1.24-1.872-2.184-.448-.944-.672-2.056-.672-3.336 0-1.296.224-2.408.672-3.336.448-.944 1.072-1.672 1.872-2.184.816-.512 1.776-.768 2.88-.768 1.008 0 1.856.256 2.544.768.704.512 1.24 1.24 1.608 2.184.368.928.552 2.04.552 3.336 0 1.28-.184 2.392-.552 3.336-.368.944-.904 1.672-1.608 2.184-.688.512-1.536.768-2.544.768Zm.816-2.904c.544 0 1.024-.144 1.44-.432a2.866 2.866 0 0 0 1.008-1.2c.24-.512.36-1.096.36-1.752 0-.656-.12-1.24-.36-1.752s-.576-.904-1.008-1.176c-.416-.288-.904-.432-1.464-.432-.576 0-1.08.144-1.512.432-.432.272-.776.664-1.032 1.176-.256.512-.384 1.096-.384 1.752 0 .656.128 1.24.384 1.752s.6.912 1.032 1.2c.448.288.96.432 1.536.432Zm14.105 2.904c-1.184 0-2.232-.264-3.144-.792a5.907 5.907 0 0 1-2.16-2.232c-.512-.944-.768-2.032-.768-3.264 0-1.232.264-2.32.792-3.264a5.851 5.851 0 0 1 2.208-2.208c.944-.544 2.024-.816 3.24-.816a5.3 5.3 0 0 1 2.904.84c.896.544 1.608 1.352 2.136 2.424.544 1.056.816 2.344.816 3.864h-9.096l.288-.288c0 .592.144 1.112.432 1.56.304.432.688.768 1.152 1.008.48.224.992.336 1.536.336.656 0 1.192-.136 1.608-.408.416-.288.736-.656.96-1.104l2.832 1.104a5.947 5.947 0 0 1-1.32 1.752c-.528.48-1.16.848-1.896 1.104-.736.256-1.576.384-2.52.384Zm-2.616-7.512-.288-.288h5.784l-.264.288c0-.576-.136-1.032-.408-1.368a2.367 2.367 0 0 0-1.008-.768 2.92 2.92 0 0 0-1.128-.24c-.368 0-.76.08-1.176.24-.416.16-.776.416-1.08.768-.288.336-.432.792-.432 1.368ZM441.282 348v-16.8h3.168V348h-3.168Zm6.098 0v-12h3.168v12h-3.168Zm1.584-13.944c-.48 0-.904-.176-1.272-.528-.368-.368-.552-.8-.552-1.296s.184-.92.552-1.272c.368-.368.792-.552 1.272-.552.496 0 .92.184 1.272.552.368.352.552.776.552 1.272s-.184.928-.552 1.296a1.734 1.734 0 0 1-1.272.528ZM453.47 348v-12h2.976l.192 2.208V348h-3.168Zm7.944 0v-6.144h3.168V348h-3.168Zm0-6.144c0-.816-.096-1.448-.288-1.896-.176-.448-.432-.768-.768-.96a2.188 2.188 0 0 0-1.176-.312c-.816-.016-1.448.232-1.896.744-.432.512-.648 1.272-.648 2.28h-1.056c0-1.28.184-2.36.552-3.24.384-.896.912-1.576 1.584-2.04.688-.48 1.488-.72 2.4-.72.944 0 1.752.192 2.424.576.672.384 1.184.984 1.536 1.8.352.8.52 1.84.504 3.12v.648h-3.168Zm11.12 6.432c-1.184 0-2.232-.264-3.144-.792a5.907 5.907 0 0 1-2.16-2.232c-.512-.944-.768-2.032-.768-3.264 0-1.232.264-2.32.792-3.264a5.851 5.851 0 0 1 2.208-2.208c.944-.544 2.024-.816 3.24-.816a5.3 5.3 0 0 1 2.904.84c.896.544 1.608 1.352 2.136 2.424.544 1.056.816 2.344.816 3.864h-9.096l.288-.288c0 .592.144 1.112.432 1.56.304.432.688.768 1.152 1.008.48.224.992.336 1.536.336.656 0 1.192-.136 1.608-.408.416-.288.736-.656.96-1.104l2.832 1.104a5.947 5.947 0 0 1-1.32 1.752c-.528.48-1.16.848-1.896 1.104-.736.256-1.576.384-2.52.384Zm-2.616-7.512-.288-.288h5.784l-.264.288c0-.576-.136-1.032-.408-1.368a2.367 2.367 0 0 0-1.008-.768 2.92 2.92 0 0 0-1.128-.24c-.368 0-.76.08-1.176.24-.416.16-.776.416-1.08.768-.288.336-.432.792-.432 1.368Zm14.969 7.512a6.788 6.788 0 0 1-2.16-.336 5.696 5.696 0 0 1-1.776-1.008 4.704 4.704 0 0 1-1.2-1.632l2.712-1.248c.24.384.568.72.984 1.008.416.272.896.408 1.44.408.528 0 .936-.072 1.224-.216.288-.16.432-.384.432-.672 0-.288-.12-.496-.36-.624-.224-.144-.536-.264-.936-.36l-1.104-.288c-1.152-.304-2.064-.784-2.736-1.44-.656-.672-.984-1.44-.984-2.304 0-1.232.392-2.184 1.176-2.856.8-.672 1.928-1.008 3.384-1.008a6.28 6.28 0 0 1 2.088.336 5.029 5.029 0 0 1 1.68.936c.464.4.784.864.96 1.392l-2.616 1.2c-.112-.32-.384-.576-.816-.768a2.965 2.965 0 0 0-1.296-.312c-.432 0-.768.096-1.008.288-.224.176-.336.424-.336.744 0 .208.112.384.336.528.224.128.544.24.96.336l1.56.384c.784.192 1.408.504 1.872.936.48.416.824.888 1.032 1.416.224.512.336 1.016.336 1.512 0 .72-.216 1.36-.648 1.92-.416.544-.992.968-1.728 1.272-.72.304-1.544.456-2.472.456ZM63.487 313.2c-.698.9-2.007 1.8-3.402 1.8-1.309 0-2.094-.5-2.792-.9-.698-.3-1.395-.8-2.53-.8-1.046 0-2.006.7-2.53 1.3l-.872-1.5c.785-.9 2.007-1.9 3.403-1.9 1.308 0 2.093.6 2.79.9.699.3 1.397.9 2.53.9 1.047 0 2.007-.8 2.53-1.4l.873 1.6Zm.087 4.9c-.785.9-2.006 1.9-3.402 1.9-1.309 0-2.094-.5-2.791-.9-.698-.3-1.396-.9-2.53-.9-1.047 0-2.007.8-2.53 1.4l-.872-1.6c.785-.9 2.006-1.9 3.402-1.9 1.308 0 2.093.5 2.791.9.698.3 1.396.8 2.53.8 1.047 0 2.006-.8 2.53-1.4l.872 1.7Z" fill="#F57001"/></svg>