<svg viewBox="0 0 610 380" fill="none" xmlns="http://www.w3.org/2000/svg"><g clip-path="url(#clip0_278_10117)"><g clip-path="url(#clip1_278_10117)"><path d="m254.744 186.071 3.913-.832.416 1.956-3.913.832-.416-1.956Zm14.857 12.177 3.912-.832.416 1.957-3.912.831-.416-1.956Zm-15.773-6.871 4.89-1.039.416 1.956-4.891 1.04-.415-1.957Zm6.847-1.455 2.934-.624.416 1.957-2.934.623-.416-1.956Zm4.89-1.04 5.869-1.247.416 1.956-5.869 1.248-.416-1.957Zm-8.742 6.97 5.869-1.247.416 1.956-5.869 1.248-.416-1.957Zm7.826-1.663 2.934-.624.416 1.957-2.934.623-.416-1.956Zm4.89-1.04 4.891-1.039.416 1.956-4.891 1.04-.416-1.957Zm-8.926-8.326 11.738-2.495.416 1.957-11.738 2.495-.416-1.957Zm-4.706 16.336 11.738-2.495.415 1.956-11.737 2.495-.416-1.956Z" fill="#E7EDFB"/></g><path d="M532.277 21.473 211.598 78.017c-10.877 1.918-17.862 12.238-15.6 23.049l41.94 200.455c2.262 10.812 12.914 18.021 23.792 16.103l320.678-56.544c10.878-1.918 17.863-12.238 15.601-23.049l-41.94-200.455c-2.262-10.811-12.914-18.021-23.792-16.103Z" fill="#F9F9F9"/><path d="m302.488 100.008-2.91-13.694 4.832-1.027c.939-.2 1.807-.187 2.605.039a4.283 4.283 0 0 1 2.019 1.227c.546.579.913 1.312 1.101 2.199.183.86.158 1.67-.076 2.429a4.254 4.254 0 0 1-1.244 1.94c-.585.52-1.32.875-2.207 1.063l-2.857.607 1.007 4.734-2.27.483Zm.819-7.31 2.817-.599c.652-.139 1.139-.474 1.462-1.006.323-.532.41-1.15.26-1.855-.152-.717-.51-1.247-1.074-1.591-.564-.344-1.217-.436-1.961-.278l-2.523.536 1.019 4.793Zm14.803 4.235c-.952.202-1.845.167-2.68-.105a4.97 4.97 0 0 1-2.128-1.45c-.581-.68-.978-1.523-1.192-2.527-.213-1.004-.186-1.937.08-2.798a4.778 4.778 0 0 1 1.379-2.174c.662-.604 1.475-1.009 2.441-1.214a4.352 4.352 0 0 1 2.512.182c.799.293 1.49.821 2.075 1.583.597.759 1.021 1.725 1.27 2.899l-7.688 1.634.235-.336c.128.6.369 1.094.724 1.482.352.375.769.634 1.249.777a3 3 0 0 0 1.503.049c.6-.128 1.068-.364 1.404-.707a2.96 2.96 0 0 0 .695-1.252l2.111.41a5.051 5.051 0 0 1-.765 1.594c-.335.48-.773.886-1.315 1.22-.53.33-1.166.575-1.91.733Zm-3.8-5.47-.371-.207 5.517-1.173-.236.337c-.113-.535-.324-.947-.63-1.236-.31-.303-.665-.5-1.067-.592a2.442 2.442 0 0 0-1.173-.037 2.823 2.823 0 0 0-1.116.524 2.43 2.43 0 0 0-.811.99c-.189.395-.227.86-.113 1.394Zm14.301 3.238c-1.03.219-1.873.132-2.529-.26-.646-.408-1.071-1.095-1.276-2.06l-2.142-10.075 2.172-.461 2.054 9.664c.097.456.275.78.533.97.272.188.616.237 1.034.148a1.38 1.38 0 0 0 .414-.17c.145-.085.3-.22.465-.405l1.156 1.492a4.31 4.31 0 0 1-.905.745c-.311.202-.637.34-.976.412Zm-6.523-7.12-.399-1.878 6.436-1.368.4 1.878-6.437 1.368Zm15.781 4.906-2.911-13.694 4.304-.915c1.344-.285 2.593-.244 3.748.124a6.34 6.34 0 0 1 2.957 1.886c.819.903 1.371 2.026 1.656 3.37.283 1.33.234 2.574-.147 3.732a6.474 6.474 0 0 1-1.93 2.945c-.905.806-2.03 1.352-3.373 1.638l-4.304.914Zm1.82-2.595 2.035-.432a4.72 4.72 0 0 0 1.725-.735 4.735 4.735 0 0 0 1.909-3.043 4.973 4.973 0 0 0-.043-1.934 4.976 4.976 0 0 0-.747-1.783 4.8 4.8 0 0 0-1.299-1.299 4.463 4.463 0 0 0-1.679-.686 4.503 4.503 0 0 0-1.879.011l-2.034.433 2.012 9.468Zm17.534-1.518-.489-1.819-.677-3.188c-.142-.666-.331-1.205-.569-1.617-.228-.43-.523-.728-.886-.896-.352-.184-.783-.222-1.292-.114-.469.1-.859.285-1.17.556-.31.27-.545.64-.704 1.11l-2.067-.296c.117-.475.307-.931.568-1.368a3.879 3.879 0 0 1 1.119-1.179c.488-.335 1.104-.582 1.847-.74.952-.202 1.788-.182 2.507.06.717.23 1.299.658 1.746 1.285.46.625.793 1.426 1.001 2.405l1.081 5.372-2.015.429Zm-2.767.833c-1.174.25-2.142.183-2.905-.2-.75-.386-1.226-1.055-1.429-2.007-.216-1.017-.042-1.865.523-2.544.577-.682 1.479-1.153 2.705-1.414l2.621-.557.358 1.683-1.917.407c-.874.186-1.461.44-1.76.763-.302.31-.406.686-.312 1.13.08.377.294.645.641.803.358.143.81.155 1.358.039.495-.105.902-.308 1.22-.607.318-.3.536-.652.654-1.06.131-.409.148-.842.051-1.298l.646-.137c.283 1.33.239 2.437-.133 3.32-.374.87-1.147 1.43-2.321 1.68Zm10.865-2.31a5.434 5.434 0 0 1-1.862.09 4.272 4.272 0 0 1-1.583-.523 3.85 3.85 0 0 1-1.17-1.08l1.719-1.244a2.57 2.57 0 0 0 1.056.736c.444.165.901.197 1.37.097.509-.108.895-.278 1.159-.512.274-.249.378-.53.311-.843-.063-.3-.229-.503-.497-.61-.271-.12-.633-.186-1.085-.199l-.974-.058c-.976-.038-1.779-.256-2.408-.654-.633-.41-1.02-.949-1.161-1.614-.208-.978-.056-1.801.456-2.469.526-.67 1.382-1.132 2.569-1.384a4.824 4.824 0 0 1 1.701-.075 3.781 3.781 0 0 1 1.469.464c.432.236.765.553 1 .953l-1.645 1.209c-.199-.299-.5-.494-.901-.586a2.733 2.733 0 0 0-1.271-.016c-.444.094-.769.266-.975.514-.209.235-.277.522-.205.861.041.196.191.355.449.478.255.109.602.171 1.042.187l1.212.029c.672.02 1.247.157 1.723.41.474.24.853.548 1.137.924.282.363.467.753.555 1.17a2.526 2.526 0 0 1-.18 1.654c-.231.513-.608.954-1.129 1.324-.524.356-1.151.612-1.882.768Zm5.718-1.46-2.911-13.694 2.191-.466 2.911 13.694-2.191.466Zm6.632-1.41-1.065-5.008 2.191-.466 1.065 5.008-2.191.466Zm-1.065-5.008c-.166-.782-.385-1.363-.656-1.741-.274-.392-.592-.638-.954-.738a2.318 2.318 0 0 0-1.15-.022c-.746.145-1.269.509-1.568 1.09-.285.579-.33 1.331-.133 2.257l-.841.179c-.219-1.03-.257-1.942-.112-2.737.155-.81.473-1.463.953-1.96.478-.511 1.101-.848 1.871-1.012.769-.163 1.468-.148 2.095.046.628.194 1.155.593 1.584 1.197.438.588.77 1.41.994 2.467l.108.508-2.191.466Zm5.671 4.03-2.911-13.695 2.191-.466 2.524 11.875.269 1.844-2.073.441Zm5.331-.889c-.821.175-1.576.117-2.265-.172-.678-.306-1.256-.81-1.732-1.513-.477-.703-.825-1.57-1.044-2.6-.221-1.044-.256-1.977-.104-2.8.149-.836.473-1.525.971-2.067.509-.558 1.174-.924 1.996-1.099.886-.188 1.702-.137 2.445.155.754.276 1.395.76 1.924 1.452.539.676.919 1.536 1.141 2.58.219 1.03.221 1.97.007 2.82-.202.846-.589 1.556-1.163 2.128-.564.556-1.289.928-2.176 1.116Zm-.971-1.879c.521-.11.957-.34 1.305-.686.346-.36.587-.8.722-1.319.148-.522.157-1.09.027-1.703-.131-.613-.363-1.129-.698-1.549a2.633 2.633 0 0 0-1.172-.896c-.459-.174-.957-.205-1.491-.091a2.39 2.39 0 0 0-1.247.674 2.689 2.689 0 0 0-.687 1.29c-.109.514-.098 1.078.032 1.69.13.614.35 1.133.658 1.558.322.422.701.73 1.137.924.447.177.918.214 1.414.108Zm11.962-.457c-.978.208-1.898.179-2.759-.088a4.881 4.881 0 0 1-2.167-1.441c-.594-.678-.997-1.52-1.211-2.523-.213-1.005-.193-1.936.061-2.794a4.734 4.734 0 0 1 1.397-2.178c.663-.605 1.483-1.01 2.461-1.218.978-.208 1.892-.171 2.743.112.848.27 1.562.744 2.143 1.425.594.678.998 1.52 1.211 2.523.214 1.005.194 1.936-.06 2.794a4.738 4.738 0 0 1-1.374 2.194c-.665.59-1.48.99-2.445 1.194Zm-.428-2.015a2.7 2.7 0 0 0 1.345-.695 2.9 2.9 0 0 0 .745-1.303c.135-.52.137-1.086.007-1.699s-.368-1.12-.713-1.525a2.719 2.719 0 0 0-1.211-.887c-.475-.186-.987-.22-1.535-.103-.548.116-1.002.349-1.364.699-.362.35-.611.783-.746 1.303-.135.52-.137 1.085-.007 1.698.131.614.363 1.13.698 1.55.344.403.755.698 1.23.883.486.17 1.003.196 1.551.08Zm13.408-.99-.489-1.817-.677-3.189c-.142-.665-.331-1.204-.569-1.617-.228-.429-.523-.727-.886-.896-.352-.184-.783-.222-1.292-.114-.469.1-.859.285-1.17.556-.31.27-.545.64-.704 1.11l-2.067-.296c.117-.475.307-.93.568-1.368a3.879 3.879 0 0 1 1.119-1.179c.488-.335 1.104-.582 1.847-.74.952-.202 1.788-.182 2.507.06.717.23 1.299.658 1.746 1.286.459.624.793 1.426 1.001 2.404l1.081 5.373-2.015.428Zm-2.767.834c-1.174.25-2.142.183-2.905-.2-.75-.386-1.226-1.055-1.429-2.007-.216-1.017-.042-1.865.523-2.544.577-.682 1.479-1.153 2.705-1.413l2.621-.558.358 1.683-1.917.407c-.874.186-1.461.44-1.76.763-.302.31-.406.686-.312 1.13.08.378.294.646.641.804.358.142.81.155 1.358.038.495-.105.902-.307 1.22-.607.318-.3.536-.652.654-1.059.131-.41.148-.842.051-1.299l.646-.137c.283 1.33.239 2.437-.133 3.32-.374.87-1.147 1.43-2.321 1.68Zm7.597-7.299c-.225-1.056-.207-1.966.053-2.73s.675-1.377 1.245-1.84a4.452 4.452 0 0 1 1.926-.94l.445 2.093c-.6.127-1.149.333-1.648.616-.488.267-.857.618-1.105 1.053-.248.434-.309.951-.181 1.551l-.735.197Zm-.342 5.512-2.079-9.782 2.191-.465 2.079 9.781-2.191.466Zm14.365-3.053-.485-1.799-2.524-11.875 2.172-.461 2.91 13.694-2.073.44Zm-3.139.912c-.887.189-1.707.145-2.461-.131-.744-.292-1.386-.782-1.928-1.471-.529-.692-.903-1.553-1.122-2.584-.222-1.043-.23-1.982-.026-2.816.215-.85.604-1.552 1.167-2.108.574-.572 1.304-.952 2.191-1.14.822-.175 1.572-.11 2.25.196.689.29 1.271.786 1.748 1.489.474.69.821 1.556 1.043 2.6.219 1.03.254 1.963.104 2.8-.149.835-.478 1.532-.986 2.09-.499.542-1.158.9-1.98 1.075Zm.123-2.112a2.303 2.303 0 0 0 1.228-.67 2.69 2.69 0 0 0 .663-1.306c.122-.517.118-1.081-.013-1.694-.13-.613-.356-1.131-.677-1.553a2.556 2.556 0 0 0-1.133-.905c-.434-.18-.905-.216-1.414-.108-.521.11-.957.34-1.305.686-.349.347-.591.78-.726 1.3-.122.516-.124 1.082-.007 1.698.143.61.376 1.127.697 1.55.335.419.733.722 1.196.91.473.172.97.203 1.491.092Z" fill="#04298C"/><path d="M498.603 128.999c5.302 21.264-7.638 42.8-28.902 48.101-21.264 5.302-42.8-7.638-48.101-28.902-5.302-21.264 7.638-42.799 28.902-48.101 21.264-5.302 42.799 7.638 48.101 28.902Zm-46.202 11.52a7.936 7.936 0 1 0 15.4-3.84 7.936 7.936 0 0 0-15.4 3.84Z" fill="#F67000" fill-opacity=".2"/><path d="M450.753 101.103a1.016 1.016 0 0 1 .759-1.244 39.68 39.68 0 0 1 44.787 22.484 1.017 1.017 0 0 1-.544 1.352l-27.375 11.443c-.528.221-1.13-.033-1.418-.528a7.937 7.937 0 0 0-7.761-3.896c-.569.065-1.132-.266-1.271-.822l-7.177-28.789Z" fill="#F67000"/><g filter="url(#filter0_d_278_10117)"><circle cx="460.07" cy="138.58" r="21.341" transform="rotate(-14 460.07 138.58)" fill="#fff"/></g><path d="M449.657 135.394a.682.682 0 0 1 .221-.105l1.49-.372a.151.151 0 0 1 .14.032.15.15 0 0 1 .093.108l2.617 10.495a.198.198 0 0 1-.027.155.175.175 0 0 1-.113.078l-1.428.356a.233.233 0 0 1-.152-.012.236.236 0 0 1-.081-.128l-2.199-8.818c-.005-.021-.019-.034-.042-.039-.026-.015-.048-.015-.066 0l-1.433.868a.16.16 0 0 1-.074.035.151.151 0 0 1-.12-.019.233.233 0 0 1-.062-.117l-.302-1.013c-.026-.103-.002-.186.07-.248l1.468-1.256Zm11.892 3.35c.251.432.438.897.562 1.394a4.8 4.8 0 0 1 .143 1.432 3.081 3.081 0 0 1-.801 1.881c-.484.528-1.114.888-1.89 1.082-.766.191-1.48.171-2.142-.06a3.123 3.123 0 0 1-1.579-1.239 4.79 4.79 0 0 1-.395-.726l-.008-.031c-.029-.114.019-.186.144-.217l1.474-.368c.104-.026.185.015.245.121.026.059.075.146.147.26.199.313.446.532.741.656s.618.143.97.055c.362-.09.648-.266.858-.527.207-.272.319-.596.334-.974a2.502 2.502 0 0 0-.073-.889c-.075-.3-.19-.584-.345-.854-.157-.323-.387-.541-.69-.652-.305-.122-.644-.136-1.017-.043a1.95 1.95 0 0 0-.9.488c-.241.225-.371.477-.389.757-.015.113-.075.183-.179.209l-1.505.375a.24.24 0 0 1-.152-.011.24.24 0 0 1-.081-.128l-1.533-6.148a.17.17 0 0 1 .016-.136.197.197 0 0 1 .124-.097l6.039-1.506a.154.154 0 0 1 .14.031c.049.021.08.057.093.109l.294 1.18a.198.198 0 0 1-.027.155.175.175 0 0 1-.113.078l-4.347 1.084c-.052.012-.071.045-.058.097l.681 2.798c.01.041.027.065.05.07.021-.005.039-.021.055-.047.396-.483.936-.81 1.619-.981.724-.18 1.397-.15 2.018.091a2.796 2.796 0 0 1 1.477 1.231Zm3.988-2.478a2.536 2.536 0 0 1-1.289-.009 2.577 2.577 0 0 1-1.086-.652 2.454 2.454 0 0 1-.609-1.118c-.105-.425-.1-.844.017-1.258.127-.416.346-.773.656-1.07.319-.31.695-.52 1.13-.628a2.319 2.319 0 0 1 1.261.032c.424.114.785.326 1.082.637.308.308.515.674.621 1.098.108.435.099.861-.028 1.277a2.435 2.435 0 0 1-.638 1.082c-.31.298-.683.5-1.117.609Zm1.051 6.4c-.072.018-.124.009-.155-.028-.031-.036-.039-.089-.023-.159l3.228-11.985a.263.263 0 0 1 .202-.182l.9-.225c.073-.018.125-.009.156.028.031.036.038.089.023.159l-3.213 11.981a.265.265 0 0 1-.202.182l-.916.229Zm-1.322-7.487c.351-.088.615-.285.792-.593.186-.31.234-.647.144-1.009a1.264 1.264 0 0 0-.597-.807c-.3-.19-.626-.24-.978-.152a1.28 1.28 0 0 0-.823.601 1.26 1.26 0 0 0-.148.993c.09.362.29.636.601.823.31.186.646.234 1.009.144Zm7.846 6.008a2.52 2.52 0 0 1-1.288-.008 2.567 2.567 0 0 1-1.086-.653 2.426 2.426 0 0 1-.609-1.118c-.106-.424-.1-.843.016-1.257.127-.417.346-.773.657-1.071a2.44 2.44 0 0 1 1.13-.628 2.319 2.319 0 0 1 1.261.032c.424.114.785.327 1.082.637.308.308.514.674.62 1.099.109.435.099.86-.028 1.277a2.444 2.444 0 0 1-.637 1.082c-.31.297-.683.5-1.118.608Zm-.271-1.086c.352-.088.621-.287.808-.597.186-.311.234-.647.144-1.009a1.268 1.268 0 0 0-.597-.808 1.265 1.265 0 0 0-.993-.148c-.363.09-.637.291-.824.601-.186.31-.235.641-.148.993.091.363.291.637.601.823.311.187.647.235 1.009.145Zm-28.785 66.429-3.461-10.652 1.537-.499 8.676 6.198-2.65-8.156 1.507-.49 3.461 10.652-1.507.489-8.746-6.259 2.674 8.232-1.491.485Zm14.857-4.626c-.741.241-1.45.286-2.126.136a3.85 3.85 0 0 1-1.799-.98c-.519-.493-.906-1.13-1.16-1.911-.254-.781-.315-1.524-.185-2.228.13-.704.425-1.316.884-1.835.466-.533 1.07-.919 1.81-1.16.7-.228 1.372-.249 2.014-.066.64.174 1.212.537 1.718 1.091.512.54.909 1.247 1.193 2.119l-6.148 1.997.2-.317c.175.538.433.97.774 1.296.342.327.73.537 1.164.632.431.084.88.05 1.347-.102.507-.164.89-.418 1.149-.76.266-.355.436-.747.51-1.175l1.436.173a4.05 4.05 0 0 1-.45 1.307c-.229.4-.541.753-.934 1.06-.384.304-.85.545-1.397.723Zm-3.73-3.868-.364-.135 4.809-1.562-.2.317c-.145-.446-.36-.797-.645-1.052a1.897 1.897 0 0 0-.967-.493 2.132 2.132 0 0 0-1.104.073c-.365.118-.692.32-.981.604-.282.271-.484.6-.605.987-.11.384-.092.804.057 1.261Zm12.847 4.288a6.146 6.146 0 0 1-1.434.297c-.446.044-.83.051-1.154.022a4.918 4.918 0 0 1-.743-.112l.167-1.35c.158.039.376.069.652.091.28.033.594.032.941-.003a4.64 4.64 0 0 0 1.12-.229 2.761 2.761 0 0 0 1.154-.695c.306-.301.496-.682.571-1.144.084-.465.026-1.006-.175-1.625l-2.235-6.878 1.445-.47 2.225 6.848c.284.872.354 1.657.21 2.354a3.394 3.394 0 0 1-.914 1.794c-.469.489-1.079.856-1.83 1.1Zm-1.225-3.304c-.689.224-1.344.263-1.964.117a3.605 3.605 0 0 1-1.637-.948c-.472-.486-.83-1.105-1.074-1.855-.254-.782-.332-1.507-.236-2.178.106-.674.36-1.255.762-1.745.412-.493.963-.851 1.653-1.075.628-.205 1.229-.22 1.801-.047.582.169 1.096.507 1.541 1.013.451.493.804 1.13 1.058 1.911.244.751.328 1.458.252 2.122-.069.65-.291 1.21-.665 1.68-.365.466-.862.801-1.491 1.005Zm-.03-1.336c.426-.138.76-.37 1.002-.695.239-.336.387-.726.444-1.171a3.358 3.358 0 0 0-.166-1.443c-.165-.507-.401-.924-.709-1.25a2.257 2.257 0 0 0-1.053-.651 1.967 1.967 0 0 0-1.219.026 2.236 2.236 0 0 0-1.078.721 2.32 2.32 0 0 0-.5 1.155c-.067.448-.019.925.146 1.433.165.507.408.927.729 1.26.328.32.698.542 1.108.666.418.111.85.094 1.296-.051Zm10.714-2.017-.491-1.304-.86-2.648c-.182-.558-.399-1.003-.653-1.336-.244-.336-.529-.557-.855-.664-.316-.11-.687-.096-1.114.042-.395.129-.714.322-.955.58-.231.254-.387.585-.468.993l-1.437-.072c.071-.404.2-.782.389-1.135a3.01 3.01 0 0 1 .781-.961c.333-.287.758-.515 1.275-.683.72-.234 1.365-.287 1.934-.157a2.724 2.724 0 0 1 1.466.886c.418.459.751 1.085.998 1.88l1.329 4.144-1.339.435Zm-2.177.909c-.903.294-1.674.32-2.313.079-.633-.255-1.067-.747-1.305-1.477-.254-.782-.188-1.459.198-2.033.392-.587 1.055-1.033 1.988-1.336l2.116-.687.37 1.141-1.719.559c-.7.227-1.156.499-1.367.814-.215.306-.26.651-.135 1.036.116.355.338.592.668.709.336.104.743.078 1.22-.077.416-.135.748-.338.996-.61a2.01 2.01 0 0 0 .468-.993 2.453 2.453 0 0 0-.102-1.195l.502-.163c.336 1.035.38 1.929.131 2.683-.241.74-.814 1.257-1.716 1.55Zm8.348-2.712c-.761.247-1.412.245-1.953-.005-.545-.261-.936-.756-1.173-1.486l-2.566-7.898 1.446-.47 2.497 7.685c.121.375.307.635.555.778.256.13.561.138.916.022.101-.033.206-.089.315-.169.108-.08.229-.209.362-.387l.914.948c-.208.258-.42.467-.637.628a2.302 2.302 0 0 1-.676.354Zm-5.809-5.347-.405-1.248 4.9-1.592.405 1.248-4.9 1.592Zm8.744 4.191-2.472-7.608 1.446-.47 2.472 7.608-1.446.47Zm-2.266-9.459a.87.87 0 0 1-.692-.061.928.928 0 0 1-.462-.539.842.842 0 0 1 .061-.693.873.873 0 0 1 .525-.457.844.844 0 0 1 .692.061.842.842 0 0 1 .457.525.93.93 0 0 1-.056.708.84.84 0 0 1-.525.456Zm8.219 7.525.572-8.598 1.506-.489-.708 8.642-1.37.445Zm-.091.029-5.637-6.58 1.476-.479 5.515 6.619-1.354.44Zm9.001-2.722c-.741.24-1.45.286-2.127.135a3.852 3.852 0 0 1-1.798-.98c-.52-.493-.906-1.13-1.16-1.911-.254-.781-.315-1.524-.185-2.228.13-.704.425-1.315.884-1.835.466-.532 1.069-.919 1.81-1.16.7-.227 1.371-.249 2.014-.065.64.173 1.212.537 1.717 1.09.512.541.91 1.247 1.194 2.119l-6.148 1.998.2-.317c.174.537.433.969.774 1.296.342.326.73.536 1.164.631.431.084.88.05 1.347-.101.507-.165.89-.419 1.149-.761.266-.355.436-.747.51-1.175l1.436.173a4.042 4.042 0 0 1-.45 1.307c-.23.4-.541.753-.934 1.061-.384.304-.85.545-1.397.723Zm-3.73-3.869-.364-.134 4.809-1.563-.2.318c-.145-.447-.36-.797-.645-1.053a1.905 1.905 0 0 0-.967-.493 2.143 2.143 0 0 0-1.104.073c-.365.119-.692.32-.981.605-.282.271-.484.6-.605.987-.111.383-.092.804.057 1.26Zm15.197 1.623a16.178 16.178 0 0 1-1.931-1.593 12.017 12.017 0 0 1-1.665-2.016 9.979 9.979 0 0 1-1.155-2.418 9.828 9.828 0 0 1-.486-2.634c-.041-.884.015-1.749.166-2.595.149-.855.355-1.668.621-2.439l1.461-.475a17.954 17.954 0 0 0-.601 2.5 12.549 12.549 0 0 0-.162 2.61c.034.864.188 1.717.462 2.559.27.832.647 1.612 1.131 2.341a12.49 12.49 0 0 0 1.664 2.016 19.808 19.808 0 0 0 1.956 1.67l-1.461.474Zm6.129-3.471a5.301 5.301 0 0 1-1.434.247 4.929 4.929 0 0 1-1.481-.209 3.275 3.275 0 0 1-1.295-.774l1.075-.988c.457.3.909.484 1.357.551.445.058.876.019 1.292-.116.659-.215 1.127-.585 1.404-1.113.278-.527.309-1.121.095-1.78-.208-.639-.575-1.098-1.103-1.375-.527-.277-1.111-.312-1.75-.104a2.494 2.494 0 0 0-.971.584c-.285.261-.481.538-.588.831l-1.453.136-1.301-5.87 5.767-1.873.445 1.369-4.459 1.449.704 3.253c.232-.254.503-.488.815-.702a3.902 3.902 0 0 1 1.001-.493c.639-.208 1.253-.25 1.842-.128.59.123 1.109.392 1.558.807.455.401.789.926 1 1.576.227.7.269 1.364.126 1.994a3.568 3.568 0 0 1-.888 1.668c-.452.472-1.038.825-1.758 1.06Zm6.904-.764-1.46.475c.262-.814.462-1.648.601-2.5.144-.866.198-1.736.161-2.61a9.556 9.556 0 0 0-.461-2.558 9.455 9.455 0 0 0-1.131-2.341 12.548 12.548 0 0 0-1.665-2.017 15.64 15.64 0 0 0-1.955-1.669l1.461-.475c.677.464 1.323 1 1.935 1.609.62.595 1.173 1.262 1.66 2.001a9.86 9.86 0 0 1 1.156 2.417c.283.873.445 1.751.486 2.635.04.884-.014 1.754-.162 2.609-.141.843-.35 1.651-.626 2.424Z" fill="#F57001"/><path d="m311.96 267.661-3.859-13.457 4.748-1.362c.923-.265 1.79-.312 2.602-.143a4.3 4.3 0 0 1 2.1 1.083c.584.54 1.002 1.246 1.252 2.117.242.846.273 1.656.093 2.429a4.255 4.255 0 0 1-1.106 2.023c-.547.559-1.256.963-2.128 1.213l-2.806.805 1.334 4.653-2.23.639Zm.306-7.349 2.768-.794c.641-.183 1.104-.552 1.389-1.105.285-.554.329-1.177.13-1.869-.202-.705-.596-1.209-1.183-1.512-.586-.304-1.244-.351-1.975-.141l-2.48.711 1.351 4.71Zm15.005 3.208c-.961.276-1.881.311-2.758.105a4.878 4.878 0 0 1-2.262-1.287c-.64-.635-1.101-1.445-1.384-2.432-.283-.987-.328-1.918-.135-2.791a4.732 4.732 0 0 1 1.242-2.271c.619-.649 1.409-1.111 2.37-1.387.961-.275 1.876-.302 2.744-.079.865.21 1.611.634 2.238 1.272.639.635 1.101 1.446 1.384 2.433.283.987.328 1.917.134 2.791a4.733 4.733 0 0 1-1.217 2.284c-.622.636-1.408 1.09-2.356 1.362Zm-.568-1.98c.526-.15.957-.413 1.293-.787.333-.386.551-.837.653-1.352.098-.528.061-1.092-.112-1.695-.172-.602-.445-1.093-.817-1.472a2.726 2.726 0 0 0-1.27-.801c-.487-.151-1-.15-1.538.005-.539.154-.976.418-1.313.792a2.726 2.726 0 0 0-.652 1.352c-.099.528-.062 1.093.111 1.695.173.603.441 1.101.804 1.497.372.378.802.644 1.289.795a2.83 2.83 0 0 0 1.552-.029Zm10.816-.958a5.426 5.426 0 0 1-1.851.219 4.27 4.27 0 0 1-1.616-.411 3.86 3.86 0 0 1-1.243-.996l1.628-1.361c.295.303.664.524 1.105.661.454.133.912.133 1.374.001.499-.143.873-.341 1.12-.592.256-.267.34-.555.252-.863-.085-.294-.264-.486-.539-.573-.279-.101-.644-.141-1.096-.123l-.976.009c-.976.031-1.792-.131-2.448-.484-.66-.365-1.083-.875-1.271-1.528-.275-.962-.181-1.793.284-2.495.477-.706 1.299-1.226 2.465-1.56a4.826 4.826 0 0 1 1.692-.194 3.783 3.783 0 0 1 1.498.361 2.54 2.54 0 0 1 1.064.881l-1.556 1.32c-.22-.284-.534-.457-.94-.521a2.73 2.73 0 0 0-1.27.073c-.435.125-.747.318-.936.58-.192.249-.24.541-.145.874.055.192.216.34.482.444.262.092.612.13 1.052.115l1.211-.056c.672-.027 1.255.07 1.748.289.489.207.889.488 1.198.843.307.342.518.718.636 1.128a2.532 2.532 0 0 1-.064 1.662c-.196.528-.541.994-1.035 1.399-.497.393-1.105.692-1.823.898Zm5.525-1.834-2.756-9.613 2.134-.612 2.756 9.613-2.134.612ZM340.841 247a1.323 1.323 0 0 1-1.009-.106 1.32 1.32 0 0 1-.624-.799 1.252 1.252 0 0 1 .112-.989c.186-.317.452-.525.798-.624.346-.1.676-.062.989.111.327.17.539.428.639.774.099.347.057.684-.126 1.014a1.25 1.25 0 0 1-.779.619Zm10.767 9.542c-1.013.29-1.86.263-2.542-.083-.672-.362-1.144-1.017-1.416-1.965l-2.839-9.901 2.134-.612 2.723 9.497c.129.449.329.759.6.931.284.168.631.193 1.041.076.128-.037.262-.103.401-.199.139-.095.285-.241.436-.437l1.257 1.408a4.298 4.298 0 0 1-.851.806 2.877 2.877 0 0 1-.944.479Zm-7.004-6.647-.529-1.846 6.325-1.813.529 1.845-6.325 1.814Zm10.794 5.311-2.757-9.613 2.134-.612 2.757 9.613-2.134.612Zm-2.204-11.748a1.32 1.32 0 0 1-1.008-.106 1.32 1.32 0 0 1-.624-.799c-.1-.346-.062-.676.111-.989.187-.317.453-.525.799-.625.346-.099.676-.062.989.112.326.17.539.428.638.774.099.346.058.684-.125 1.014-.174.313-.434.52-.78.619Zm9.971 9.52.992-10.687 2.23-.64-1.204 10.749-2.018.578Zm-.154.044-6.736-8.471 2.211-.634 6.524 8.532-1.999.573Zm11.569-3.067c-.936.268-1.829.295-2.681.082a4.971 4.971 0 0 1-2.224-1.297c-.627-.639-1.082-1.452-1.365-2.439-.283-.986-.321-1.919-.115-2.796a4.777 4.777 0 0 1 1.223-2.265c.618-.649 1.402-1.109 2.35-1.381a4.34 4.34 0 0 1 2.519.006c.817.237 1.544.715 2.18 1.434.649.716 1.139 1.65 1.47 2.804l-7.556 2.166.212-.352c.169.59.444 1.066.825 1.428.378.35.811.579 1.3.689.489.109.99.09 1.503-.057.589-.169 1.04-.437 1.351-.803.307-.38.509-.812.606-1.298l2.134.262a5.04 5.04 0 0 1-.652 1.644c-.3.502-.709.938-1.227 1.308-.505.367-1.123.655-1.853.865Zm-4.173-5.191-.384-.181 5.421-1.555-.211.352c-.151-.525-.389-.922-.715-1.189a2.216 2.216 0 0 0-1.105-.515 2.448 2.448 0 0 0-1.173.045c-.385.11-.744.31-1.077.6a2.435 2.435 0 0 0-.74 1.044c-.161.407-.166.873-.016 1.399Zm18.577 2.891a20.167 20.167 0 0 1-2.343-2.074 15.04 15.04 0 0 1-1.991-2.592 12.456 12.456 0 0 1-1.338-3.07 12.292 12.292 0 0 1-.492-3.312 14.559 14.559 0 0 1 .321-3.234c.222-1.063.516-2.069.881-3.02l2.154-.618a22.42 22.42 0 0 0-.86 3.097 15.688 15.688 0 0 0-.316 3.253 11.82 11.82 0 0 0 .465 3.217 11.916 11.916 0 0 0 1.311 2.974 15.696 15.696 0 0 0 1.991 2.591 24.783 24.783 0 0 0 2.37 2.171l-2.153.617Zm3.431-3.064-.491-1.711c-.114-.397-.129-.837-.045-1.319.08-.494.243-1.013.49-1.555.26-.546.591-1.085.993-1.616l1.86-2.365c.236-.289.437-.604.604-.942.179-.343.303-.684.372-1.023a2.083 2.083 0 0 0-.028-.97 1.965 1.965 0 0 0-.581-.936 1.968 1.968 0 0 0-.997-.504c-.385-.084-.821-.056-1.308.083a2.601 2.601 0 0 0-1.095.606 2.448 2.448 0 0 0-.634.91 2.706 2.706 0 0 0-.197 1.055l-2.409.233c-.048-.652.057-1.3.317-1.943a4.776 4.776 0 0 1 1.245-1.751c.575-.511 1.285-.888 2.131-1.131.949-.272 1.818-.334 2.61-.187.804.144 1.48.471 2.028.979.557.492.948 1.129 1.172 1.911a3.893 3.893 0 0 1-.036 2.341c-.243.749-.666 1.522-1.27 2.32l-1.695 2.213a5.025 5.025 0 0 0-.752 1.297c-.17.423-.249.848-.238 1.275l6.364-1.825.568 1.981-8.978 2.574Zm16.201-4.396c-1.051.301-2.071.275-3.06-.079-.993-.368-1.876-1.002-2.648-1.905-.762-.918-1.339-2.057-1.728-3.415-.39-1.359-.503-2.623-.339-3.794.173-1.187.579-2.191 1.217-3.012.648-.838 1.503-1.409 2.567-1.714 1.064-.305 2.092-.274 3.085.093.99.355 1.866.991 2.628 1.91.772.902 1.353 2.032 1.743 3.391.389 1.358.498 2.631.325 3.818-.164 1.171-.57 2.175-1.217 3.012-.639.821-1.496 1.386-2.573 1.695Zm-.559-2.024a2.576 2.576 0 0 0 1.49-1.114c.379-.566.596-1.26.652-2.08.069-.825-.034-1.717-.31-2.679-.276-.961-.661-1.773-1.156-2.435-.486-.679-1.04-1.159-1.661-1.438a2.604 2.604 0 0 0-1.874-.15 2.604 2.604 0 0 0-1.51 1.12c-.365.563-.583 1.256-.651 2.08-.056.821.055 1.718.335 2.692.275.961.654 1.775 1.136 2.441.496.663 1.047 1.136 1.656 1.419.621.28 1.252.328 1.893.144Zm10.187 1.094-2.154.618c.364-1.006.65-2.038.86-3.097.219-1.075.324-2.16.316-3.253a11.988 11.988 0 0 0-.465-3.217 11.806 11.806 0 0 0-1.311-2.974 15.696 15.696 0 0 0-1.991-2.591 19.569 19.569 0 0 0-2.37-2.171l2.153-.617a17.27 17.27 0 0 1 2.348 2.094c.748.77 1.41 1.627 1.986 2.572a12.33 12.33 0 0 1 1.338 3.07 12.46 12.46 0 0 1 .492 3.313 15.063 15.063 0 0 1-.315 3.253 17.732 17.732 0 0 1-.887 3Z" fill="#00C865"/><path d="m412.734 210.037-9.325-9.181-61.138-7.007-47.467-43.444-20.723-4.588-11.436-19.068" stroke="#C9EEDB" stroke-width="2" stroke-miterlimit="10" stroke-linecap="round" stroke-linejoin="round"/><path d="m262.043 121.522-4.196-1.754-.178 4.466-.17 4.243 4.265-2.655 4.245-2.641-3.965-1.659h-.001Z" fill="#CBF0DD" stroke="#C9EEDB"/><path d="M389.438 165.136c6.196 29.15-12.412 57.804-41.563 64-29.15 6.196-57.804-12.412-64-41.562-6.196-29.15 12.412-57.804 41.562-64 29.151-6.196 57.805 12.412 64.001 41.562ZM326.1 178.599c1.239 5.83 6.97 9.552 12.8 8.312 5.83-1.239 9.552-6.97 8.313-12.8-1.239-5.83-6.97-9.551-12.8-8.312-5.83 1.239-9.552 6.97-8.313 12.8Z" fill="#CBF0DD"/><path d="M326.071 124.64a1.382 1.382 0 0 1 1.09-1.655 53.958 53.958 0 0 1 57.102 27.026 53.96 53.96 0 1 1-100.543 17.467c.124-.769 2.288-13.563 8.915-22.076l32.368 28.389c.766.144 1.26.882 1.218 1.66a10.792 10.792 0 1 0 9.927-10.168c-.777.061-1.527-.415-1.689-1.177l-8.388-39.466Z" fill="#1BD679"/><g filter="url(#filter1_d_278_10117)"><circle cx="336.615" cy="176.328" r="29.021" transform="rotate(-12 336.615 176.328)" fill="#F9F9F9"/></g><path opacity=".8" d="M330.782 180.893c.444.483.77 1.089.98 1.82.22.769.254 1.515.101 2.239a3.708 3.708 0 0 1-1.053 1.842c-.542.529-1.248.919-2.12 1.169-.859.246-1.669.298-2.431.156a3.531 3.531 0 0 1-1.93-1.069c-.506-.507-.869-1.145-1.089-1.914a4.66 4.66 0 0 1-.121-2.088 2.788 2.788 0 0 1 .754-1.506c.054-.057.047-.104-.019-.14-.386-.139-.767-.377-1.141-.713a3.465 3.465 0 0 1-1.012-1.645 3.702 3.702 0 0 1 .088-2.376 3.5 3.5 0 0 1 1.073-1.556c.509-.451 1.128-.782 1.859-.991.756-.217 1.456-.265 2.101-.145a3.525 3.525 0 0 1 1.715.757 3.909 3.909 0 0 1 1.296 1.979c.202.705.206 1.37.01 1.995-.14.428-.338.804-.592 1.127-.037.066-.024.11.039.134.567.142 1.065.451 1.492.925Zm-6.882-3.395c-.058.377-.051.694.023.951.125.435.346.795.663 1.079.458.437 1.046.553 1.764.347.692-.199 1.14-.619 1.345-1.26.111-.337.095-.755-.048-1.255a2.21 2.21 0 0 0-.465-.824 1.915 1.915 0 0 0-.871-.499c-.334-.099-.693-.093-1.077.017a1.823 1.823 0 0 0-.884.545 1.734 1.734 0 0 0-.45.899Zm5.589 7.302c.163-.449.152-.993-.032-1.634-.169-.59-.404-1.022-.704-1.296-.49-.498-1.138-.631-1.946-.4-.756.217-1.226.657-1.41 1.32-.119.409-.09.921.086 1.536.169.59.422 1.037.76 1.343.508.464 1.14.588 1.896.372.717-.206 1.168-.62 1.35-1.241Zm11.733-7.13c.332.529.587 1.101.763 1.716.173.603.253 1.197.241 1.783a3.854 3.854 0 0 1-.918 2.385c-.582.68-1.354 1.158-2.315 1.434-.948.272-1.841.278-2.678.019a3.904 3.904 0 0 1-2.027-1.479 6.068 6.068 0 0 1-.525-.889l-.011-.039c-.041-.141.016-.233.17-.278l1.826-.523c.129-.037.232.01.311.14.035.073.1.179.195.318.263.383.581.645.954.788.374.142.779.151 1.215.026.448-.129.798-.361 1.048-.696.247-.348.372-.759.376-1.231a3.122 3.122 0 0 0-.131-1.107 4.08 4.08 0 0 0-.468-1.052c-.211-.397-.508-.659-.89-.785-.387-.139-.811-.142-1.272-.01a2.455 2.455 0 0 0-1.104.65c-.291.291-.442.612-.453.962-.014.143-.085.232-.214.269l-1.864.535a.294.294 0 0 1-.19-.008.291.291 0 0 1-.107-.157l-2.183-7.613a.214.214 0 0 1 .013-.17.253.253 0 0 1 .151-.127l7.479-2.144a.187.187 0 0 1 .176.033.19.19 0 0 1 .121.131l.419 1.462a.249.249 0 0 1-.028.195.214.214 0 0 1-.137.101l-5.383 1.544c-.064.018-.087.06-.069.124l.974 3.466c.014.051.036.079.066.085.025-.008.047-.028.065-.061.474-.621 1.134-1.053 1.98-1.296.897-.257 1.739-.248 2.525.026.795.257 1.428.748 1.899 1.473Zm4.873-3.27a3.165 3.165 0 0 1-1.61.046 3.231 3.231 0 0 1-1.385-.768 3.056 3.056 0 0 1-.809-1.37 3.008 3.008 0 0 1-.034-1.572c.14-.526.398-.981.773-1.366a3.054 3.054 0 0 1 1.384-.834 2.913 2.913 0 0 1 1.577-.015c.535.124.995.374 1.38.749a2.9 2.9 0 0 1 .822 1.345c.155.539.162 1.071.021 1.596a3.055 3.055 0 0 1-.749 1.38 3.042 3.042 0 0 1-1.37.809Zm1.593 7.949c-.09.026-.155.017-.195-.027-.04-.044-.052-.11-.036-.198l3.51-15.113a.332.332 0 0 1 .245-.237l1.115-.319c.089-.026.154-.017.195.027.04.044.052.11.036.198l-3.491 15.107a.333.333 0 0 1-.245.237l-1.134.325Zm-1.979-9.295c.436-.125.757-.383.964-.775.219-.396.265-.818.136-1.267a1.581 1.581 0 0 0-.781-.983 1.515 1.515 0 0 0-1.228-.147 1.603 1.603 0 0 0-1.002.787c-.22.396-.267.811-.142 1.247.129.449.391.783.787 1.002.396.22.818.265 1.266.136Zm10.065 7.164a3.165 3.165 0 0 1-1.61.045 3.2 3.2 0 0 1-1.385-.768 3.042 3.042 0 0 1-.809-1.37 3.004 3.004 0 0 1-.035-1.571 3.06 3.06 0 0 1 .774-1.366c.384-.402.845-.68 1.383-.834a2.894 2.894 0 0 1 1.577-.015c.535.124.995.373 1.38.748.398.372.672.82.823 1.346.154.538.161 1.07.021 1.596a3.064 3.064 0 0 1-.749 1.38 3.056 3.056 0 0 1-1.37.809Zm-.386-1.346c.436-.125.763-.385.983-.781a1.61 1.61 0 0 0 .136-1.267 1.584 1.584 0 0 0-.781-.983 1.583 1.583 0 0 0-1.248-.141 1.607 1.607 0 0 0-1.002.786 1.583 1.583 0 0 0-.141 1.248c.128.448.39.782.786 1.002.396.219.818.265 1.267.136Z" fill="#02A454"/><g clip-path="url(#clip2_278_10117)" stroke="#E7EDFB" stroke-width="2" stroke-linecap="round" stroke-linejoin="round"><path d="m549.087 120.985-13.056-4.493c-.901-.31-1.923.285-2.282 1.329l-3.905 11.347c-.36 1.045.079 2.143.981 2.453l13.056 4.493c.901.31 1.923-.285 2.283-1.329l3.905-11.347c.359-1.044-.08-2.143-.982-2.453Zm-12.725-.149.008.003m3.256 1.12.008.003m3.256 1.12.008.003"/></g><g clip-path="url(#clip3_278_10117)"><path d="M419.204 271.479a7.117 7.117 0 0 0 3.625-7.038 7.14 7.14 0 0 0-.847-2.648l1.384-.767a8.708 8.708 0 0 1-3.394 11.838l-.768-1.385Zm-6.908-12.463a7.12 7.12 0 0 0-3.625 7.038c.106.93.394 1.83.847 2.648l-1.384.767a8.707 8.707 0 0 1 3.394-11.838l.768 1.385Zm5.373 9.694a3.964 3.964 0 0 0 2.014-3.911 3.93 3.93 0 0 0-.471-1.471l1.385-.767a5.527 5.527 0 0 1 .48 4.214 5.535 5.535 0 0 1-2.64 3.32l-.768-1.385Zm-3.838-6.925a3.973 3.973 0 0 0-1.887 2.371 3.965 3.965 0 0 0 .343 3.011l-1.384.767a5.547 5.547 0 0 1-.48-4.214 5.527 5.527 0 0 1 2.64-3.319l.768 1.384Zm1.482 4.985a1.588 1.588 0 0 0 1.959-1.086 1.584 1.584 0 1 0-1.959 1.086Z" fill="#E7EDFB"/></g><path fill-rule="evenodd" clip-rule="evenodd" d="M497.79 204.33a1.918 1.918 0 0 1 1.382.589l.115.131 2.923 3.653c.726.908.129 2.237-.997 2.331l-.126.005h-.92v7.666c0 .245-.094.48-.262.657a.952.952 0 0 1-1.311.077.954.954 0 0 1-.337-.621l-.007-.113v-7.666h-1.916v6.708a1.917 1.917 0 0 1-1.773 1.912l-.144.005h-7.667a1.915 1.915 0 0 1-1.911-1.773l-.005-.144v-6.708h-.92c-1.162 0-1.827-1.297-1.198-2.233l.076-.103 2.922-3.653a1.93 1.93 0 0 1 1.323-.712l.175-.008h10.578Zm-10.081 6.709h-.959v6.708h7.667v-6.708h-.958v3.833a.96.96 0 0 1-.959.958h-3.833a.962.962 0 0 1-.678-.28.962.962 0 0 1-.28-.678v-3.833Zm3.833 0h-1.917v2.875h1.917v-2.875Zm6.248-4.792h-10.58l-2.3 2.875h15.18l-2.3-2.875Z" fill="#E7EDFB"/><g clip-path="url(#clip4_278_10117)"><path d="m555.744 199.568 3.913-.832.416 1.957-3.913.831-.416-1.956Zm14.857 12.177 3.912-.831.416 1.956-3.912.832-.416-1.957Zm-15.773-6.87 4.89-1.04.416 1.956-4.891 1.04-.415-1.956Zm6.847-1.456 2.934-.624.416 1.957-2.934.623-.416-1.956Zm4.89-1.039 5.869-1.248.416 1.956-5.869 1.248-.416-1.956Zm-8.742 6.969 5.869-1.247.416 1.956-5.869 1.248-.416-1.957Zm7.826-1.663 2.934-.624.416 1.957-2.934.623-.416-1.956Zm4.89-1.039 4.891-1.04.416 1.956-4.891 1.04-.416-1.956Zm-8.926-8.327 11.738-2.494.416 1.956-11.738 2.495-.416-1.957Zm-4.706 16.336 11.738-2.495.415 1.956-11.737 2.495-.416-1.956Z" fill="#E7EDFB"/></g><g clip-path="url(#clip5_278_10117)"><path d="m223.238 93.144 3.645 1.648-.824 1.823-3.645-1.648.824-1.823Zm4.754 18.612 3.645 1.648-.824 1.823-3.645-1.648.824-1.823Zm-8.636-14.88 4.556 2.06-.824 1.823-4.556-2.06.824-1.823Zm6.378 2.884 2.734 1.236-.824 1.823-2.734-1.236.824-1.823Zm4.556 2.06 5.467 2.473-.824 1.822-5.467-2.472.824-1.823Zm-11.172.436 5.467 2.472-.824 1.823-5.467-2.473.824-1.822Zm7.289 3.296 2.734 1.236-.824 1.823-2.734-1.236.824-1.823Zm4.556 2.06 4.556 2.06-.824 1.823-4.556-2.06.824-1.823Zm-2.258-11.995 10.934 4.944-.824 1.822-10.934-4.944.824-1.822Zm-13.469 10.371 10.934 4.944-.824 1.822-10.934-4.944.824-1.822Z" fill="#E7EDFB"/></g><g clip-path="url(#clip6_278_10117)"><path fill-rule="evenodd" clip-rule="evenodd" d="M402.612 111.501a1.996 1.996 0 0 1 1.286 1.531l1.192.433a2.002 2.002 0 0 1 1.196 2.563l-4.099 11.278a4.997 4.997 0 0 1-6.407 2.992l-8.458-3.075a2.003 2.003 0 0 1-1.13-1.033 2.004 2.004 0 0 1-.067-1.53l5.124-14.097a1.998 1.998 0 0 1 2.563-1.197l1.191.433a2 2 0 0 1 1.97-.348l5.639 2.05Zm-8.544.086-.94-.341-5.123 14.098 8.458 3.074a3.002 3.002 0 0 0 3.845-1.795l4.099-11.278-.94-.342a1.998 1.998 0 0 1-2.563 1.197l-5.639-2.05a1.998 1.998 0 0 1-1.197-2.563Zm7.187 7.272a1.002 1.002 0 0 1-.483 1.329l-6.343 2.961a1.002 1.002 0 0 1-1.329-.483l-1.268-2.719a.998.998 0 0 1 1.245-1.339.997.997 0 0 1 .566.493l.847 1.812 5.436-2.537a.993.993 0 0 1 .764-.034c.25.09.453.276.565.517Zm.674-5.479-5.639-2.049-.342.94 5.639 2.049.342-.94Z" fill="#E7EDFB"/></g><g clip-path="url(#clip7_278_10117)"><path d="M354.981 277.412c.372.253.828.438 1.332.525l-3.453 6.169a3.565 3.565 0 0 0-1.373-.455l3.494-6.239Zm-5.262 6.424c-.46.163-.857.41-1.153.72l-2.359-2.25c.465-.153.87-.393 1.178-.695l2.334 2.225Zm-5.347-1.388-3.202 4.801a.734.734 0 0 1-.434.279.976.976 0 0 1-.569-.032.648.648 0 0 1-.375-.323.438.438 0 0 1 .037-.428l3.201-4.801c.375.247.836.423 1.342.504Zm-6.872 7.924h20.25c.199 0 .39.059.53.165.141.105.22.248.22.398a.5.5 0 0 1-.22.397.886.886 0 0 1-.53.165h-21a.886.886 0 0 1-.53-.165.5.5 0 0 1-.22-.397v-15.75c0-.15.079-.293.22-.398a.886.886 0 0 1 .53-.165c.199 0 .39.059.53.165.141.105.22.248.22.398v15.187Zm7.5-9c-.398 0-.779-.118-1.061-.329-.281-.211-.439-.498-.439-.796 0-.298.158-.584.439-.795.282-.211.663-.33 1.061-.33.398 0 .779.119 1.061.33.281.211.439.497.439.795 0 .298-.158.585-.439.796a1.786 1.786 0 0 1-1.061.329Zm6 5.625c-.398 0-.779-.118-1.061-.329-.281-.211-.439-.498-.439-.796 0-.298.158-.584.439-.795.282-.211.663-.33 1.061-.33.398 0 .779.119 1.061.33.281.211.439.497.439.795 0 .298-.158.585-.439.796a1.786 1.786 0 0 1-1.061.329Zm6-10.125c-.398 0-.779-.118-1.061-.329-.281-.211-.439-.498-.439-.796 0-.298.158-.584.439-.795.282-.211.663-.33 1.061-.33.398 0 .779.119 1.061.33.281.211.439.497.439.795 0 .298-.158.585-.439.796a1.786 1.786 0 0 1-1.061.329Z" fill="#E7EDFB"/></g><path fill-rule="evenodd" clip-rule="evenodd" d="M582.925 304.88c-10.691 21.561-56.959 40.121-102.936 20.194-26.445-11.462-36.449-39.08-36.973-51.855-.412-10.046 7.078-20.757 11.599-25.359 9.611-9.782 60.901-21.966 72.617-21.34 16.539-.464 26.856 13.89 39.875 14.575 9.256.486 36.973 21.125 15.818 63.785Z" fill="#A9BFF8"/><path fill-rule="evenodd" clip-rule="evenodd" d="M479.54 251.993c2.825-1.4 6.2-1.65 9.201-.684a10.164 10.164 0 0 1 3.207-3.642c.259-.18.629-.342.862-.13-.093 1.489-.187 2.983-.099 4.472.068 1.159.247 2.312.263 3.473.047 3.356-1.269 6.607-3.058 9.446 4.297 2.89 7.536 7.318 8.99 12.288-.608.314-16.52.867-25.127.179-.199.135-.386-.191-.409-.431-.23-2.425-.359-4.894.144-7.277.503-2.384 1.705-4.7 3.692-6.11-1.844-4.014-1.127-8.938-3.376-12.739-.133-.226-.246-.578-.012-.697.087-.044.19-.03.286-.014a9.07 9.07 0 0 1 4.282 1.977c.315.263.786.071 1.154-.111Zm60.975 24.977c-.011 0 1.634-2.465 2.642-3.613a6.077 6.077 0 0 0 1.498-3.817 38.28 38.28 0 0 1-9.406-1.561c-.467-.14-.949-.298-1.304-.633-.827-.782-.622-2.147-.196-3.203a11.482 11.482 0 0 1 2.209-3.482c.321-.347.669-.682.879-1.106.21-.423.255-.967-.029-1.346-.478-.636-.579-1.473-.628-2.268-.05-.795-.073-1.621-.434-2.331s-1.181-1.262-1.942-1.029c-.185-.282.18-.607.501-.709 1.213-.386 2.572-.049 3.636.651 1.063.7 1.87 1.725 2.563 2.793.271.417.728.907 1.17.678 3.012-1.565 6.688-1.793 9.871-.612.442.164 1.122.234 1.213-.229.449-2.306 2.373-4.254 4.674-4.731-.904.649-.959 1.968-.778 3.066.181 1.097.5 2.267.049 3.284-.365.821.553 1.592 1.296 2.096a13.194 13.194 0 0 1 2.963 2.765c.829 1.055 1.52 2.412 1.141 3.699-.495 1.685-2.479 2.353-4.185 2.769l-4.998 1.218a6.823 6.823 0 0 0 1.6 4.495c.843.995 2.068 2.021 1.8 3.297.561.89-4.707.843-15.805-.141Zm3.999 21.98c.574.355 1.21.781 1.867.622a8.062 8.062 0 0 1 4.615.261c.618.226 1.179-.414 1.566-.945a13.013 13.013 0 0 1 4.272-3.749c1.157 1.898-.015 4.525.991 6.507 1.556 3.068 1.142 7.03-1.014 9.711a15.177 15.177 0 0 1 4.327 8.269c-.269.079-14.048 1.788-21.614-.263a8.756 8.756 0 0 1 2.166-6.065c-2.164-2.548-3.219-6.005-2.847-9.326.038-.346.088-.715-.066-1.026a17.975 17.975 0 0 1-1.642-5.194c-.017-.108-.031-.226.026-.319.076-.123.24-.15.384-.162 2.422-.197 4.902.4 6.969 1.679Zm-65.533 20.974.826-4.945c.071-.427.061-1-.351-1.134a4.82 4.82 0 0 1-2.904-2.657c-.167-.392-.683-.531-1.093-.416-.41.116-.738.417-1.048.709a1.812 1.812 0 0 1 1.523-1.317c.241-.406-.104-.967-.562-1.085-.457-.118-.939.088-1.321.366-.03-.44.506-.656.912-.829.406-.173.803-.719.456-.993-.15-.119-.365-.098-.555-.071l-1.652.236c.063-.443.639-.557 1.085-.591.446-.034 1.023-.252.973-.697-.191-1.714.224-3.453.917-5.033.574-1.309-1.116-2.62-1.005-4.045.009-.11.035-.231.124-.297.106-.078.255-.047.382-.008.869.269 1.676.74 2.337 1.366.32.304.837.097 1.24-.084a6.505 6.505 0 0 1 4.768-.188c1.387.492 2.617-1.881 3.992-1.355l-1.053 3.463c-.097.319-.188.685-.012.967a7.048 7.048 0 0 1 1.038 3.167c.061.787.213 1.851 1.001 1.913-.343.151-.722.339-.841.694-.118.356.288.825.595.61.265-.185.694-.03.78.282-.454-.045-.947.005-1.302.291-.356.288-.495.868-.194 1.211a2.49 2.49 0 0 1 2.074.095c-.377.277-.895.195-1.363.167-.467-.027-1.037.081-1.202.519-.552 1.462-1.909 2.59-3.448 2.867-.757.136-.879 1.161-.816 1.928l.393 4.83c-.27.256-3.404.611-4.694.064Z" fill="#fff"/><path fill-rule="evenodd" clip-rule="evenodd" d="M537.545 297.271c2.422-.197 4.902.4 6.969 1.679.574.355 1.21.781 1.867.622a8.062 8.062 0 0 1 4.615.261c.618.226 1.179-.414 1.566-.945a13.013 13.013 0 0 1 4.272-3.749c1.157 1.898-.015 4.525.991 6.507 1.556 3.068 1.142 7.03-1.014 9.711a15.177 15.177 0 0 1 4.327 8.269c-.269.079-.445-.272-.51-.545a16.346 16.346 0 0 0-3.339-6.659c-.376-.45-.991-.917-1.487-.604-3.942 2.489-8.938 3.241-13.437 2.022-.743-.201-1.27.7-1.508 1.431l-1.333 4.092a8.756 8.756 0 0 1 2.166-6.065c-2.164-2.548-3.219-6.005-2.847-9.326.038-.346.088-.715-.066-1.026a17.975 17.975 0 0 1-1.642-5.194c-.017-.108-.031-.226.026-.319.076-.123.24-.15.384-.162Zm9.824 4.367a9.285 9.285 0 0 0-2.068 2.779 3.68 3.68 0 0 1 .432-3.01 6.353 6.353 0 0 0-2.084 1.285 2.683 2.683 0 0 1 1.104-2.143l-.882.026a2.3 2.3 0 0 1 1.211-.779 11.598 11.598 0 0 0-7.537-2.101 18.31 18.31 0 0 0 3.236 7.688 2.835 2.835 0 0 1-1.555-1.589 12.517 12.517 0 0 0 2.015 8.186c.296.444.627.875 1.057 1.192.713.525 1.627.686 2.509.766a18.12 18.12 0 0 0 10.255-2.124c.597-.326 1.183-.692 1.656-1.181.627-.646 1.029-1.483 1.288-2.345a8.879 8.879 0 0 0-.778-6.855l-.634 1.89c-.089.266-.484.544-.56.274a12.753 12.753 0 0 0 .632-7.93 18.165 18.165 0 0 0-5.8 6.271 2.586 2.586 0 0 1 .417-1.678 16.673 16.673 0 0 0-3.855 4.179 7.848 7.848 0 0 1-.059-2.801Zm-6.854-24.668c.101-1.524 1.634-2.465 2.642-3.613a6.077 6.077 0 0 0 1.498-3.817 38.28 38.28 0 0 1-9.406-1.561c-.467-.14-.949-.298-1.304-.633-.827-.782-.622-2.147-.196-3.203a11.482 11.482 0 0 1 2.209-3.482c.321-.347.669-.682.879-1.106.21-.423.255-.967-.029-1.346-.478-.636-.579-1.473-.628-2.268-.05-.795-.073-1.621-.434-2.331s-1.181-1.262-1.942-1.029c-.185-.282.18-.607.501-.709 1.213-.386 2.572-.049 3.636.651 1.063.7 1.87 1.725 2.563 2.793.271.417.728.907 1.17.678 3.012-1.565 6.688-1.793 9.871-.612.442.164 1.122.234 1.213-.229.449-2.306 2.373-4.254 4.674-4.731-.904.649-.959 1.968-.778 3.066.181 1.097.5 2.267.049 3.284-.365.821.553 1.592 1.296 2.096a13.194 13.194 0 0 1 2.963 2.765c.829 1.055 1.52 2.412 1.141 3.699-.495 1.685-2.479 2.353-4.185 2.769l-4.998 1.218a6.823 6.823 0 0 0 1.6 4.495c.843.995 2.068 2.021 1.8 3.297-.57-1.357-1.64-2.43-2.499-3.625-.859-1.195-1.536-2.69-1.148-4.11-.76-.272-1.558.272-2.133.839s-1.182 1.235-1.989 1.281c-1.328.074-2.157-1.547-3.456-1.837a5.852 5.852 0 0 1-.66 2.502c-.428.82-1.044 1.525-1.653 2.221l-2.267 2.588Zm1.238-20.617c-.808.393.443 1.928-.28 2.46a9.476 9.476 0 0 0-2.95-5.276c-.989-.892-2.302-1.595-3.611-1.347.765.301 1.231 1.096 1.431 1.894.201.797.194 1.632.333 2.442a6.882 6.882 0 0 0 2.005 3.771 1.323 1.323 0 0 1-1.146-.727 13.814 13.814 0 0 0-3.428 4.762c-.31.713-.551 1.564-.168 2.24.323.571.991.837 1.615 1.039a28.65 28.65 0 0 0 6.936 1.329c1.407.093 2.926.116 4.051.967.409.309.744.715 1.19.969.445.253 1.073.304 1.42-.073 1.354-1.472 3.412-2.043 5.379-2.405 1.967-.362 4.021-.604 5.736-1.633.643-.387 1.253-.921 1.461-1.643.283-.98-.245-2.004-.842-2.831a14.452 14.452 0 0 0-4.558-4.095c-.078.31-.269.59-.53.775-.084-.351.069-.709.192-1.048.759-2.095.413-4.408.058-6.608-2.328 1.343-3.537 4.364-2.779 6.943-.444.082-.654-.54-.611-.989.043-.45.079-1.037-.337-1.211-3.35-1.404-7.301-1.294-10.567.295Zm-61.678 47.888c.234.395.26.906.067 1.322-.102.221-.448.214-.622.043-.173-.171-.219-.429-.252-.67-.031-.219-.057-.449.026-.653.083-.204.316-.364.523-.29.115.042.196.143.258.248Z" fill="#00160A"/><path fill-rule="evenodd" clip-rule="evenodd" d="M483.675 319.86a11.88 11.88 0 0 1-.711-5.953c-.698.764-1.986.895-2.822.285a9.937 9.937 0 0 1-1.161 5.732l.826-4.945c.071-.427.061-1-.351-1.134a4.82 4.82 0 0 1-2.904-2.657c-.167-.392-.683-.531-1.093-.416-.41.116-.738.417-1.048.709a1.812 1.812 0 0 1 1.523-1.317c.241-.406-.104-.967-.562-1.085-.457-.118-.939.088-1.321.366-.03-.44.506-.656.912-.829.406-.173.803-.719.456-.993-.15-.119-.365-.098-.555-.071l-1.652.236c.063-.443.639-.557 1.085-.591.446-.034 1.023-.252.973-.697-.191-1.714.224-3.453.917-5.033.574-1.309-1.116-2.62-1.005-4.045.009-.11.035-.231.124-.297.106-.078.255-.047.382-.008.869.269 1.676.74 2.337 1.366.32.304.837.097 1.24-.084a6.505 6.505 0 0 1 4.768-.188c1.387.492 2.617-1.881 3.992-1.355l-1.053 3.463c-.097.319-.188.685-.012.967a7.048 7.048 0 0 1 1.038 3.167c.061.787.213 1.851 1.001 1.913-.343.151-.722.339-.841.694-.118.356.288.825.595.61.265-.185.694-.03.78.282-.454-.045-.947.005-1.302.291-.356.288-.495.868-.194 1.211a2.49 2.49 0 0 1 2.074.095c-.377.277-.895.195-1.363.167-.467-.027-1.037.081-1.202.519-.552 1.462-1.909 2.59-3.448 2.867-.757.136-.879 1.161-.816 1.928l.393 4.83Zm.611-11.571c-.242.221-.661.452-.841.177a6.849 6.849 0 0 1 3.969-2.085c.308-.046.376-.456.354-.766a10.815 10.815 0 0 0-1.274-4.37.625.625 0 0 1-.744.356 10.475 10.475 0 0 0 1.645-4.322 8.64 8.64 0 0 0-3.515 2.691 1.133 1.133 0 0 1 .474-1.229 7.269 7.269 0 0 0-5.646.301l.136.846a8.18 8.18 0 0 0-3.202-2.356c.403 1.504.99 2.959 1.744 4.321-.327.071-.683-.213-.687-.548a12.109 12.109 0 0 0-1.098 4.758c-.011.471.179 1.108.648 1.059a4.59 4.59 0 0 1 3.548 1.189l-2.621-.757c-.376-.108-.807-.21-1.136.001-.33.211-.291.865.1.873a3.571 3.571 0 0 1 3.047.528 7.607 7.607 0 0 0-3.087-.042c-.254.613.608 1.092 1.271 1.089.663-.003 1.493-.075 1.815.505l-2.438-.127c.223 1.448 1.468 2.678 2.918 2.884.277.039.459.297.665.486.82.752 2.394.241 2.616-.849 1.888-.058 3.686-1.313 4.391-3.066l-2.873.408c.224-.432.756-.598 1.241-.649.484-.05.996-.033 1.426-.263.429-.23.708-.835.401-1.213l-3.59 1.262a2.903 2.903 0 0 1 1.721-1.193c.485-.115 1-.103 1.464-.285.464-.181.879-.659.747-1.14a5.934 5.934 0 0 0-3.589 1.526Z" fill="#00160A"/><path fill-rule="evenodd" clip-rule="evenodd" d="M483.086 303.328c-.16-.008-.355-.039-.414-.189.391-.443 1.239-.302 1.465.244l-1.051-.055Zm-.599 8.307c.125.151.099.389-.019.546-.118.157-.306.245-.496.297-.276.076-.602.075-.812-.119-.304-.281-.158-.854.216-1.032.373-.178.846-.011 1.111.308Zm-1.089.086c-.096.177.106.395.307.395.2 0 .373-.133.528-.26a.69.69 0 0 0-.829-.127l-.006-.008Zm2.137-6.14c-.246.124-.558-.076-.651-.336-.093-.26-.031-.547.041-.814.041-.152.096-.318.233-.396.184-.104.429.015.536.197.107.183.112.405.115.616.002.276-.027.609-.274.733Z" fill="#00160A"/><path fill-rule="evenodd" clip-rule="evenodd" d="M479.098 311.647a2.05 2.05 0 0 0 1.933-.888 2.05 2.05 0 0 0 .049-2.127c-.201-.34-.508-.764-.264-1.075.124-.158.344-.198.545-.209.219-.012.452.002.635.123s.29.38.179.569a2.228 2.228 0 0 0 .162 2.443c.535.682 1.503.99 2.333.741.152-.045.401-.03.371.126a.199.199 0 0 1-.06.097c-.469.484-1.283.405-1.887.105a3.412 3.412 0 0 1-1.375-1.248c-.297.506-.604 1.024-1.058 1.395-.455.372-1.096.572-1.641.353-.149-.06-.304-.239-.196-.359.065-.071.178-.058.274-.046Zm1.314-8.501c.037.117-.126.188-.248.201l-.694.075c-.178.019-.435-.033-.415-.211a1.04 1.04 0 0 1 1.269-.158c.037.023.074.052.088.093Zm62.389 12.964c-.046-.439-.036-.955.312-1.227.306-.239.741-.182 1.122-.114l1.82.326c.474.084.981.166 1.422-.028.351-.155.754.011 1.138.014.314.003.616-.105.911-.21l2.716-.975c.167-.06.352-.12.515-.053.249.101.305.422.324.69l.066.916c.027.373.051.763-.095 1.107s-.521.622-.883.529a21.589 21.589 0 0 0-2.844-.534c-.193-.023-.444-.009-.508.174-.145.422-.748.354-1.187.28a3.792 3.792 0 0 0-2.894.715c-.218.166-.421.359-.672.468-.251.109-.572.115-.771-.073-.136-.128-.19-.319-.234-.501a11.756 11.756 0 0 1-.258-1.504Zm4.547-.35a71.616 71.616 0 0 0-3.686-.602c-.194-.027-.376.134-.44.32s-.039.389-.011.583c.062.427.137.852.225 1.274.028.132.06.27.15.371.09.101.256.147.361.061a5.796 5.796 0 0 1 2.298-1.134c.252-.061.514-.106.737-.238.222-.133.401-.379.366-.635Zm3.482-.946c-.651.18-1.343.384-1.781.898-.133.157-.16.489.045.482a8.05 8.05 0 0 1 3.017.467c.205.074.436-.073.532-.268.097-.195.094-.422.089-.64l-.03-1.23c-.002-.065-.011-.144-.07-.173-.039-.019-.086-.008-.129.004l-1.673.46Zm-3.182 1.522a.54.54 0 0 0 .146.259c.187.16.501.045.626-.167.125-.212.112-.476.084-.721-.034-.293-.472-.389-.694-.194-.222.195-.245.539-.162.823Zm7.288-7.867a3.029 3.029 0 0 0-1.599.242c-.128.058-.253-.132-.197-.261.055-.13.201-.191.334-.238.768-.27 1.744-.404 2.292.199-.234.16-.548.092-.83.058Zm-5.912 2.872c.012.419-.384.759-.796.833-.412.075-.831-.048-1.232-.17-.348-.105-.457-.595-.273-.91.184-.314.556-.47.916-.529.296-.048.611-.043.883.083.272.127.493.393.502.693Zm-1.932.101c.02.125.167.179.29.21.239.058.486.117.73.081.243-.036.486-.191.55-.429a1.116 1.116 0 0 0-1.425-.113c-.082.06-.16.15-.145.251Zm-4.335-2.236-2.169.005c-.152 0-.367-.08-.316-.223a3.426 3.426 0 0 1 2.413-.11c.144.048.301.242.167.312-.029.016-.063.016-.095.016Zm7.997-2.75c.041-.259.112-.558.351-.664.23-.102.51.043.642.258.132.214.155.476.174.727l-.979.09c-.174.015-.216-.239-.188-.411Zm2.83 3.087a.792.792 0 0 1-.301-.107.394.394 0 0 1-.139-.181c.736-.31 1.675-.029 2.119.636l-1.679-.348Zm-1.515-4.491c.188-.3.655-.159.937.053.279.209.528.457.738.734-.009.163-.262.126-.399.038l-1.276-.825Zm-10.22 4.945.894-.306c.119-.041.247-.082.369-.052.123.03.228.163.181.28-.585.219-1.178.418-1.777.596-.095-.082-.076-.244.006-.339.083-.094.208-.139.327-.179Zm2.472-3.758c.114.077.173.211.225.338.071.168.142.35.104.529-.038.178-.238.332-.402.252-.186-.09-.388.242-.572.146-.086-.045-.103-.16-.109-.258-.017-.263-.031-.542.093-.774.125-.232.443-.38.661-.233Zm-2.274-.117c.274-.676 1.062-1.098 1.777-.954.097.02.217.092.182.185-.018.049-.073.073-.122.091l-1.837.678Zm3.648 3.412c-.154.02-.35.005-.408-.139.103-.082.227-.17.356-.14.129.03.175.255.046.282l.006-.003Zm3.082-.221c.162-.027.247-.255.143-.381-.104-.127-.344-.087-.402.067-.057.153.097.341.259.314Z" fill="#00160A"/><path fill-rule="evenodd" clip-rule="evenodd" d="M545.178 310.411c-.227-.033-.519-.18-.449-.399.25-.144.56-.02.846.021.285.041.671-.115.624-.4l.143.36c.29-.077.562-.226.783-.43.125-.115.237-.313.126-.442-.258-.297.022-.856.414-.828.393.027.592.619.296.878-.077.067.001.191.08.255.556.445 1.33.604 2.016.412.307-.086.698-.212.893.04-.978.707-2.465.584-3.314-.274-.478.78-1.553.938-2.458.807Z" fill="#00160A"/><path fill-rule="evenodd" clip-rule="evenodd" d="M549.79 309.07c.094.043.109.196.024.255-.084.06-.223-.005-.232-.108a.23.23 0 0 1 .203-.128l.005-.019Zm-3.554.108c.099.152.389-.037.29-.189-.099-.151-.389.037-.29.189Zm-8.224-45.135c-.38.042-.79.135-1.126-.047.398-.374.992-.447 1.537-.42a5.61 5.61 0 0 1 2.628.809c-.166.306-.624.156-.939.007a3.944 3.944 0 0 0-2.1-.349Zm13.358-3.178c-.061-.228-.064-.415.145-.526.303-.163 1.261-.148 1.364.089.104.236-.29 1.322-.842 1.322-.221 0-.607-.656-.667-.885Zm6.078 2.692c-1.19.074-2.367.334-3.477.767-.152.059-.387.082-.421-.077.194-.326.583-.472.947-.579a12.687 12.687 0 0 1 2.498-.464c.122-.01.252-.017.359.043.107.06.17.214.094.31Zm.24 1.334-2.822.252c-.171.015-.428-.099-.329-.241a9.597 9.597 0 0 1 2.996-.434c.251.004.542.04.674.253-.134.13-.334.153-.519.17Zm-13.831-3.062c-.199.234-.603.167-.817-.054-.213-.222-.286-.54-.35-.841-.034-.157-.063-.335.03-.465.098-.137 1.463-.147 1.528-.03.064.118.024.217 0 .308-.045.165-.246.912-.391 1.082Zm-7.124 3.72a6.942 6.942 0 0 1 3.775-.425c.135.023.284.059.361.173.077.113.003.317-.133.297-1.47-.209-3.065-.193-4.316.606-.131-.075-.14-.274-.056-.4.084-.125.229-.194.369-.251Zm8.708 1.168c-.061-.175.07-.39.254-.417a.282.282 0 0 1 .126.22.36.36 0 0 1-.355.211l-.025-.014Zm-1.919-7.613c.206.004.487.141.398.326a6.627 6.627 0 0 0-2.576.69c-.117-.012-.174-.168-.128-.278.046-.109.154-.177.258-.234a4.193 4.193 0 0 1 2.048-.504Zm4.985 7.464c.13-.141.392-.118.496.043-.102.194-.442.175-.522-.029l.026-.014Zm.905-.094c.09-.132.347-.018.311.138a.24.24 0 0 1-.211.131.197.197 0 0 1-.098-.267l-.002-.002Zm-3.073-.716c-.091.132-.348.018-.311-.137a.238.238 0 0 1 .21-.132c.101.038.15.173.099.267l.002.002Zm-1.517.36c-.008.153.182.276.318.206.136-.069.148-.295.02-.379-.129-.083-.331.02-.338.173Zm3.873-.095c.13.097.351.003.37-.158.019-.162-.173-.306-.322-.242-.149.064-.178.303-.048.4Zm2.411-6.462c.764-.552 1.822-.299 2.723-.023.142.043.318.173.237.296-.049.074-.156.071-.243.06-.906-.11-1.811-.222-2.717-.333Z" fill="#00160A"/><path fill-rule="evenodd" clip-rule="evenodd" d="M547.691 266.023c.275.854 1.262 1.408 2.135 1.197.383-.093.821-.301 1.136-.063a2.338 2.338 0 0 1-2.026.469 2.339 2.339 0 0 1-1.575-1.359 3.483 3.483 0 0 1-2.317 1.401c-.137.019-.293.025-.397-.067-.104-.092-.077-.311.062-.32a3.24 3.24 0 0 0 2.034-.921c.293-.291.534-.758.3-1.097a4.31 4.31 0 0 1-.521-1.026c-.047-.135-.084-.296.003-.409.064-.084.175-.113.278-.137.312-.071.635-.143.949-.083.315.059.621.287.668.604.098.669-.937 1.167-.729 1.811Zm-62.253-2.307c.068-.197.435-.129.427.08-.077.196-.441.123-.437-.087l.01.007Zm-3.313.907c-.042-.21-.443-.131-.401.08.042.21.443.13.401-.08Zm.569.356a.402.402 0 0 1 .413-.13c.048.06.063.145.039.217l-.327.133-.138-.208.013-.012Zm.049-.499a.315.315 0 0 1-.131-.223c.08-.165.361-.167.442-.003a.614.614 0 0 1-.311.231v-.005Zm-2.559.544c-.109.142-.355-.043-.325-.219.029-.176.194-.291.334-.403.298-.237.538-.548.863-.748.324-.201.789-.258 1.06.01a3.978 3.978 0 0 0-1.932 1.36Zm-.93-1.928c.441-.413.99-.711 1.577-.855.126-.03.263-.053.38.001.117.054.191.215.113.317a3.713 3.713 0 0 0-1.983 1.044c-.097.098-.28-.02-.285-.158-.005-.138.097-.255.198-.349Zm5.589.754c-.013-.101.16-.046.212.042l-.212.316c-.146-.047-.153-.298-.009-.353l.009-.005Zm4.365-.55-1.916-.59c-.149-.046-.313-.103-.389-.24a2.99 2.99 0 0 1 2.543.619c.029.025.059.052.069.089.033.131-.178.162-.307.122Zm-4.23 1.148c.071-.085.222-.082.291.005.068.087.034.235-.066.283a.325.325 0 0 1-.283-.297l.058.009Zm3.78.236-1.988-.697c-.054-.019-.111-.041-.146-.086-.076-.101.012-.257.132-.294.121-.038.25.004.368.046l1.071.375c.306.108.682.355.563.656Z" fill="#00160A"/><path fill-rule="evenodd" clip-rule="evenodd" d="M575.52 235.918c2.405.974 4.041 3.319 4.8 5.8.759 2.482.767 5.122.768 7.717l.023 57.681c0 2.813-.022 5.736-1.242 8.27a9.519 9.519 0 0 1-5.701 4.904c-1.788.55-3.693.554-5.564.554l-106.304-.018c-1.765 0-3.653-.037-5.106-1.039-2.327-1.605-2.557-4.894-2.558-7.721l-.021-65.904c0-1.633.006-3.306.57-4.838.974-2.645 3.504-4.473 6.193-5.315 2.69-.843 5.56-.848 8.378-.845 6.377.008 12.754.014 19.132.021l81.667.089c1.68.002 3.408.013 4.965.644Zm-59.285 84.465-.045-41.937-60.318.025c-.174 0-.367.008-.487.134-.112.117-.118.297-.118.459l-.027 35.191c0 .611 0 1.228.129 1.825.427 1.976 2.229 3.421 4.16 4.02 1.931.599 3.998.508 6.018.433 7.823-.292 15.654-.266 23.482-.24l27.206.09Zm.516-41.876.035 41.826 52.87-.049c1.326-.001 2.665-.004 3.954-.313 3.033-.725 5.541-3.211 6.434-6.198.528-1.765.528-3.639.524-5.481l-.068-29.858-63.749.073Zm-.006-42.608.055 41.935 63.167.004c.175 0 .377-.012.484-.151.076-.1.08-.236.08-.361l.009-30.567c0-1.504-.002-3.027-.379-4.483-1.031-3.979-5.125-6.925-9.226-6.638-3.04.213-6.09.216-9.138.219l-45.052.042Zm-.511 41.881-.05-41.93-52.081-.019c-4.095-.001-7.957 3.221-8.689 7.25-.191 1.05-.19 2.124-.188 3.192l.052 31.514c20.318.085 40.637.082 60.956-.007Z" fill="#00160A"/><path fill-rule="evenodd" clip-rule="evenodd" d="M484.352 263.852c-.123.323.034.697.282.938.362.351.92.486 1.402.338.347-.106.768-.328 1.025-.072-.766.771-2.219.662-2.861-.214-.201.523-.66.94-1.201 1.089a1.827 1.827 0 0 1-1.588-.321c.324-.268.803-.059 1.224-.057.444.003.878-.269 1.07-.67a1.205 1.205 0 0 0-.149-1.254 3.774 3.774 0 0 1-.65-1.186c-.032-.1-.061-.208-.03-.308.066-.205.329-.253.543-.264.44-.022.881-.034 1.321-.036.212-.001.468.028.557.22.059.126.017.275-.035.405a3.158 3.158 0 0 1-.566.924c-.129.146-.274.286-.344.468Zm3.766-8.602a3.446 3.446 0 0 0-1.948.208c-.085.035-.183.074-.265.032-.1-.051-.11-.201-.048-.294.062-.094.171-.143.276-.184a4.067 4.067 0 0 1 3.357.226c-.386.269-.908.099-1.372.012Zm-.319 3.293c-.055.107-.121.218-.228.272-.16.081-.367.006-.476-.137-.109-.142-.135-.332-.122-.51.027-.365.343-.774.687-.651.369.133.317.676.139 1.026Zm-6.32-.624c.039.31-.098.657-.382.788-.283.132-.687-.046-.717-.357a.794.794 0 0 1 .054-.319c.097-.302.295-.658.611-.631.243.021.404.277.434.519Zm-2.761-2.223c-.05-.162.146-.286.308-.336a5.855 5.855 0 0 1 2.964-.136c.144.031.302.078.374.207.072.128-.038.338-.178.292a4.584 4.584 0 0 0-2.976.05c-.176.064-.436.102-.492-.077Z" fill="#00160A"/><path fill-rule="evenodd" clip-rule="evenodd" d="M492.81 247.537c-.093 1.489-.187 2.983-.099 4.472.068 1.159.247 2.312.263 3.473.047 3.356-1.269 6.607-3.058 9.446 4.297 2.89 7.536 7.318 8.99 12.288-.619-.386-.886-1.135-1.146-1.818a21.514 21.514 0 0 0-7.196-9.521c-.464-.346-1.252-.607-1.508-.089a8.463 8.463 0 0 1-2.478 2.991c-.379.285-.802.567-1.098.925a1.097 1.097 0 0 1-2.051.623c-2.73-1.201-4.952-3.531-5.997-6.327-1.996 1.384-3.147 3.74-3.588 6.129-.442 2.389-.254 4.844-.065 7.266-.199.135-.386-.191-.409-.431-.23-2.425-.359-4.894.144-7.277.503-2.384 1.705-4.7 3.692-6.11-1.844-4.014-1.127-8.938-3.376-12.739-.133-.226-.246-.578-.012-.697.087-.044.19-.03.286-.014a9.07 9.07 0 0 1 4.282 1.977c.315.263.786.071 1.154-.111 2.825-1.4 6.2-1.65 9.201-.684a10.164 10.164 0 0 1 3.207-3.642c.259-.18.629-.342.862-.13Zm-9.693 19.585c.967.085 1.953.168 2.9-.042 2.168-.482 3.724-2.399 4.717-4.386a17.703 17.703 0 0 0 1.853-7.339l-2.103 1.692c-.416.334-.869.746-.861 1.279a2.015 2.015 0 0 1-1.147 1.817 2.013 2.013 0 0 1-2.126-.318c-.639-.567-1.002-1.595-1.854-1.67-1.005-.089-1.484 1.2-2.292 1.803-1.03.768-2.693.191-3.207-.987-.098-.224-.063-.621-.287-.758-.715-.435-1.504-.451-2.436-.42a19.257 19.257 0 0 0 1.45 5.907c.35.831.778 1.661 1.467 2.243 1.061.897 2.542 1.057 3.926 1.179Zm5.822-15.353c-.313.597-.837 1.343-1.466 1.102a5.08 5.08 0 0 0 1.03-1.21 12.992 12.992 0 0 0-9.479.973c.248.3.554.553.895.741-.361.344-.918-.077-1.259-.44a7.632 7.632 0 0 0-4.43-2.305c.689 1.105 1.326 3.295 1.911 6.57.947.214 1.584.325 1.911.331.375.008.833-.031.997-.368.434-.893 1.52-1.414 2.487-1.193.968.221 1.721 1.162 1.724 2.154a2.282 2.282 0 0 1 2.15-.167 2.139 2.139 0 0 1 1.529-1.834 2.139 2.139 0 0 1 2.246.81c.213.302.683.08.964-.158l1.751-1.478c.329-.278.691-.639.622-1.064a22.68 22.68 0 0 1-.126-6.373 10.96 10.96 0 0 0-3.457 3.909Zm-1.492 15.152c-1.405.954-3.259.788-4.945.584-.921-.112-1.873-.234-2.665-.718-.163-.099-.376-.213-.526-.096a9.753 9.753 0 0 0 3.538 2.76c.204.094.504.149.601-.053.222-.466.897-.638 1.315-.337.34.246.811.01 1.147-.241a12.133 12.133 0 0 0 2.05-1.937c-.089-.176-.353-.073-.515.038Zm-7.966-7.907c.424.715 1.39 1.052 2.166.755.776-.297 1.271-1.192 1.11-2.007-.161-.815-.96-1.454-1.79-1.433-.831.021-1.596.7-1.716 1.522-.058.398.025.816.23 1.163Zm6.452-1.236c-.1.591.131 1.213.55 1.641.308.314.732.536 1.171.52.786-.029 1.358-.781 1.6-1.529.063-.195.113-.402.075-.604-.05-.261-.24-.472-.438-.65-.498-.446-1.17-.783-1.821-.633-.584.134-1.038.665-1.137 1.255Z" fill="#00160A"/><g clip-path="url(#clip8_278_10117)"><path d="m504.8 83.987-2.728-.265 1.324-13.636 7.273.706.111-3.27-9.833-.565-1.072 11.046-2.728-.265 1.324-13.636 12.437.68.275-7.797 2.545.247-.286 7.68 6.935.399-.265 2.727-6.753-.38-.228 6.126-7.272-.706-1.059 10.909Z" fill="#E7EDFB"/></g><path d="M56.197 180.466c-.185-.446-.622-.56-1.004-.265a19.684 19.684 0 0 0-6.663 9.376 73.772 73.772 0 0 0-1.182-8.947c5.468-4.519 5.737-12.664 4.014-18.984-.13-.475-.84-.597-1.08-.141-1.854 3.514-4.16 7.803-4.623 12.044-.034-.121-.068-.244-.103-.364-.909-3.157-2.101-6.187-3.412-9.165a.503.503 0 0 0 .367-.276c3.342-6.065 3.916-13.446 2.078-20.067-.164-.59-.913-.502-1.111 0-1.344 3.404-2.693 6.846-3.227 10.488-.241 1.645-.374 3.585-.14 5.425-1.911-4.052-3.894-8.074-5.526-12.255l.035-.04a19.328 19.328 0 0 0 3.524-15.379c-.08-.398-.664-.446-.852-.111-1.33 2.37-2.655 4.771-3.348 7.418-.408 1.565-.576 3.134-.583 4.715A46.491 46.491 0 0 1 32 138.869c1.88-2.509 2.057-6.018 2.272-9.064.265-3.735-.029-7.425-.719-11.099-.075-.397-.633-.416-.822-.107-2.076 3.388-4.21 6.932-4.607 10.973-.336 3.416.495 7.254 3.18 9.552.303 1.552.7 3.09 1.17 4.611-.74-.895-1.589-1.71-2.458-2.457-1.729-1.485-3.676-2.65-6-2.757-.32-.015-.532.373-.367.639 2.176 3.496 5.321 8.258 9.986 8.195.035.055.08.088.128.113 1.063 2.793 2.302 5.53 3.555 8.209.407.869.814 1.737 1.22 2.607-2.943-3.565-6.985-6.272-11.259-7.874-.418-.157-.852.319-.723.723 1.867 5.811 7.537 11.55 13.988 11.56 1.066 2.43 2.061 4.89 2.9 7.414a76.482 76.482 0 0 1 1.544 5.279c-1.032-1.612-2.278-3.101-3.574-4.468a33.953 33.953 0 0 0-3.939-3.55c-1.355-1.043-2.912-2.43-4.707-2.431a.58.58 0 0 0-.496.864c2.082 3.646 3.336 7.817 6.06 11.074 1.7 2.033 4.931 4.584 7.87 4.181.224 1.288.416 2.581.573 3.879a63.69 63.69 0 0 1 .38 4.588c-.732-.948-1.623-1.792-2.622-2.532-2.614-1.934-5.873-3.628-9.186-3.648-.435-.003-.776.519-.519.904 1.778 2.652 2.682 5.642 5.367 7.592 2.054 1.493 4.55 2.278 7.06 2.573-.01 2.535-.1 5.074-.193 7.63-.019.543.878.687.969.131.39-2.396.594-4.845.638-7.316a.587.587 0 0 0 .32-.114c2.68-.827 4.618-2.987 5.745-5.517.671-1.506 1.083-3.11 1.434-4.716.295-1.354.58-2.717.029-4.044Z" fill="#FFDCCA"/><path d="M49.07 172.669c.214-.575.72-.722 1.161-.342 3.069 2.645 5.473 6.083 7.01 10.056.26.672.493 1.352.7 2.041.236-3.875.71-7.747 1.367-11.543-6.326-5.829-6.637-16.339-4.644-24.493.15-.612.971-.77 1.25-.182 2.145 4.534 4.813 10.067 5.349 15.539.04-.156.078-.314.119-.47 1.052-4.073 2.431-7.981 3.948-11.823-.162-.028-.316-.138-.424-.357-3.866-7.825-4.53-17.348-2.405-25.891.189-.761 1.057-.648 1.286 0 1.555 4.391 3.115 8.833 3.733 13.531.28 2.123.433 4.625.162 6.999 2.213-5.228 4.507-10.416 6.394-15.811-.014-.017-.027-.032-.04-.052-3.824-5.661-5.315-12.891-4.077-19.841.091-.514.769-.576.986-.143 1.537 3.058 3.071 6.155 3.872 9.57.473 2.019.668 4.044.675 6.084a65.563 65.563 0 0 0 1.575-6.54c-2.176-3.237-2.38-7.764-2.63-11.694-.305-4.819.034-9.579.832-14.32.087-.512.733-.535.951-.138 2.402 4.37 4.872 8.944 5.331 14.157.388 4.408-.573 9.361-3.68 12.325a62.902 62.902 0 0 1-1.352 5.949c.856-1.156 1.838-2.206 2.843-3.17 2-1.917 4.253-3.42 6.942-3.557.37-.019.616.481.424.825-2.517 4.51-6.156 10.653-11.553 10.573a.39.39 0 0 1-.148.145c-1.23 3.603-2.663 7.135-4.115 10.591l-1.41 3.363c3.404-4.6 8.08-8.093 13.026-10.158.485-.203.987.412.837.932-2.16 7.499-8.72 14.903-16.183 14.916-1.234 3.135-2.386 6.309-3.356 9.565a107.005 107.005 0 0 0-1.786 6.811c1.194-2.079 2.636-4.001 4.134-5.764a41.083 41.083 0 0 1 4.558-4.58c1.569-1.346 3.37-3.135 5.446-3.137.508-.001.824.628.574 1.115-2.41 4.704-3.86 10.086-7.011 14.288-1.967 2.623-5.707 5.914-9.106 5.395-.26 1.661-.482 3.33-.664 5.005a92.747 92.747 0 0 0-.44 5.92 16.26 16.26 0 0 1 3.035-3.267c3.025-2.494 6.796-4.681 10.629-4.707.503-.003.897.671.6 1.167-2.057 3.422-3.102 7.279-6.209 9.796-2.377 1.926-5.264 2.939-8.17 3.319.013 3.271.117 6.546.225 9.845.023.701-1.016.886-1.12.168a73.519 73.519 0 0 1-.739-9.44.628.628 0 0 1-.371-.147c-3.102-1.066-5.343-3.854-6.647-7.118-.776-1.943-1.253-4.013-1.659-6.084-.344-1.751-.674-3.51-.035-5.221Z" fill="#FFDCCA"/><path d="M77.234 205.056c0 1.319-.018 2.797-.066 4.413a193.018 193.018 0 0 1-.828 13.562 183.218 183.218 0 0 1-1.835 13.729 170.376 170.376 0 0 1-.905 4.806 151.194 151.194 0 0 1-2.135 9.091 113.22 113.22 0 0 1-.9 3.222 125.998 125.998 0 0 1-3.813 11.148c-.311.781-1.18 1.368-2.266 1.527-2.788.414-9.168.966-21.233.243-1.295-.08-2.374-.773-2.656-1.708-.492-1.633-1.302-4.51-2.213-8.469-.323-1.399-.659-2.93-.995-4.594a205.657 205.657 0 0 1-1.871-10.658 298.61 298.61 0 0 1-.534-3.795 226.158 226.158 0 0 1-.954-8.624 190.04 190.04 0 0 1-.395-4.903 225.734 225.734 0 0 1-.558-14.992c-.018-3.01.024-6.104.139-9.277.041-1.125 1.24-2.043 2.764-2.123 5.816-.286 20.476-.82 38.387.018 1.534.074 2.752.997 2.788 2.131.043 1.242.085 3.024.079 5.253Z" fill="#FFEFE6"/><path d="M77.233 205.056c0 1.319-.018 2.797-.066 4.413-8.97 1.545-18.072 2.56-27.264 3.138-5.529.349-11.093.592-16.64.499h-.131c-.03-1.333-.048-2.683-.054-4.051.45-.005.894-.014 1.331-.031 4.983-.181 9.954-.34 14.925-.684 9.377-.653 18.69-1.819 27.9-3.284Zm-.497 13.293a193.25 193.25 0 0 1-.395 4.682c-1.2.286-2.392.56-3.562.834a185.197 185.197 0 0 1-17.029 3.151c-7.147.984-14.426 1.703-21.718 1.933-.15-1.594-.282-3.231-.395-4.903 7.02-.243 14.013-.702 20.962-1.615a236.933 236.933 0 0 0 16.597-2.785c1.859-.379 3.7-.834 5.54-1.297Zm-2.23 18.411a170.38 170.38 0 0 1-.906 4.806 152.57 152.57 0 0 1-5.144.433c-6.344.445-12.694.476-19.062.313-4.599-.115-9.342-.291-13.875-.944a298.61 298.61 0 0 1-.534-3.795c5.349.564 10.95.472 16.094.446 5.792-.027 11.614-.177 17.377-.627a153.54 153.54 0 0 0 6.05-.632Zm-3.04 13.897a112.634 112.634 0 0 1-.9 3.222c-7.08 1.117-14.216 1.973-21.514 2.401-3.526.207-7.099.353-10.667.339-.323-1.398-.66-2.93-.995-4.594 4.269.141 8.55.053 12.813-.048 7.064-.163 14.212-.556 21.263-1.32Z" fill="#FFFAF5"/><path d="M188.53 253.097c-1.785.021-3.72.471-5.088 1.678-.217.19.059.473.286.37 1.597-.719 3.016-1.271 4.802-1.239.52.01.522-.815 0-.809Zm.691 3.001c-1.643-.382-3.694-.731-5.325-.157-.22.077-.168.365.053.391.796.094 1.612.012 2.414.069.902.064 1.775.232 2.646.466.497.133.711-.653.212-.769Zm-16.596 0c-1.447-.696-3.284-.489-4.775-.04-.395.119-.213.755.17.614 1.56-.568 2.948-.455 4.559-.403.087.003.129-.132.046-.171Zm-.148.931c-1.498-.366-3.427.583-4.665 1.356-.416.26-.023.928.384.657a10.168 10.168 0 0 1 2.294-1.164c.663-.232 1.387-.289 2.022-.58.117-.053.082-.24-.035-.269Z" fill="#FFF1E9"/><path d="M98.668 261.095c-28.201 2.248-57.908 5.017-81.063 21.272-5.258 3.691-10.544 9.25-9.463 15.583.994 5.827 7.117 9.452 12.958 10.357 5.841.906 11.833-.081 17.704.599 5.872.68 12.164 3.736 13.823 9.409.786 2.687.413 5.565.735 8.346.814 7.016 6.12 12.922 12.44 16.076 6.32 3.154 13.547 3.947 20.608 4.113 44.035 1.036 85.731-20.117 129.635-23.663 27.568-2.227 56.564 2.349 82.029-8.446 4.742-2.01 9.451-4.694 12.274-9.002 2.823-4.307 3.18-10.58-.374-14.307-3.944-4.134-12.057-5.217-12.314-10.924-.217-4.812 6.116-8.932 4.157-13.332-.536-1.204-1.621-2.072-2.751-2.751-4.278-2.569-9.465-2.992-14.444-3.325a1352.303 1352.303 0 0 0-130.329-2.39c-23.684.707-47.621 2.083-70.304 8.932" fill="#A9BFF8"/><path d="M197.692 158.286c-1.166 3.818-1.626 7.843-1.625 11.845 0 3.997.784 8.107-1.052 11.85-1.844 3.76-5.926 5.562-9.533 7.487-3.606 1.926-7.4 4.886-7.619 9.103-.287 5.521 5.795 10.345 4.181 15.614-.824 2.69-3.387 4.291-5.684 5.79-3.009 1.965-5.963 4.25-7.767 7.437-1.804 3.186-2.218 7.467-.186 10.5 1.973 2.945 5.616 4.022 8.985 4.78 26.116 5.87 53.58 4.635 79.335-2.767 5.562-1.598 11.284-3.626 15.31-7.931s5.741-11.525 2.385-16.416c-2.156-3.142-5.813-4.669-8.867-6.858-3.054-2.189-5.79-6.004-4.575-9.653.551-1.652 1.82-2.924 2.654-4.442 1.921-3.491 1.173-8.334-1.701-11.022-2.742-2.565-6.931-3.164-9.268-6.133-2.645-3.361-1.876-8.25-2.244-12.58-1.303-15.36-18.322-27.331-32.491-24.994-8.966 1.478-16.654 8.196-19.794 17.04a34.91 34.91 0 0 0-.444 1.35Z" fill="#1E2144"/><path d="M232.769 207.823h-18.622c1.978-2.637 2.927-7.462 3.374-11.935.534-5.352.351-10.203.351-10.203h12.208c-.071 4.091.22 7.964.633 11.293.798 6.441 2.056 10.845 2.056 10.845Z" fill="#F98"/><path d="M230.713 196.979c-4.377.909-9.021.511-13.192-1.09.534-5.353.35-10.204.35-10.204h12.209c-.071 4.092.219 7.964.633 11.294Zm8.811-23.744c.949-.635 2.174-1.012 3.225-.574 1.095.456 1.709 1.677 1.892 2.867.401 2.605-.856 5.24-2.656 7.137-.656.692-1.412 1.327-2.316 1.61-.903.282-1.978.15-2.648-.53-.552-.562-.747-1.391-.813-2.183-.244-2.963.774-6.625 3.316-8.327Zm-32.111 0c-.95-.635-2.174-1.012-3.225-.574-1.095.456-1.71 1.677-1.892 2.867-.402 2.605.856 5.24 2.656 7.137.656.692 1.412 1.327 2.316 1.61.903.282 1.978.15 2.647-.53.553-.562.748-1.391.814-2.183.244-2.963-.775-6.625-3.316-8.327Z" fill="#ED7966"/><path d="M207.022 178.016c.615 3.122 1.409 6.264 3.037 8.983 2.654 4.434 7.537 7.398 12.631 7.667 5.093.269 10.253-2.164 13.342-6.294 2.816-3.764 3.852-8.57 4.624-13.234 1.147-6.934 1.69-14.704-2.422-20.353-1.32-1.814-3.055-3.288-4.95-4.461-4.721-2.924-10.64-3.974-15.93-2.343-5.33 1.643-9.302 6.039-11.412 11.192-2.16 5.278.019 13.462 1.08 18.843Z" fill="#F98"/><path d="M225.092 179.52c-.745-.015-2.133.354-2.724-.167-.526-.463.037-1.959.174-2.555.195-.847.417-1.69.671-2.522.258-.846.627-1.69.71-2.574.022-.228-.314-.363-.461-.191-.793.928-1.18 2.275-1.565 3.416-.398 1.178-.83 2.449-.958 3.69-.09.875.153 1.709 1.013 2.078 1.034.443 2.446.373 3.407-.191.457-.268.253-.974-.267-.984Z" fill="#ED7966"/><path d="M228.846 183.985c-1.936-.792-4.098-.949-6.166-.786-.582.046-5.078.443-4.635 1.503.907 2.171 3.461 3.448 5.671 3.379 2.22-.069 4.362-1.419 5.389-3.472.124-.25-.044-.536-.259-.624Z" fill="#fff"/><path d="M217.917 170.215c-.369-1.615-1.909-2.764-3.56-2.698-1.729.069-2.883 1.387-3.427 2.928-.079.222.258.432.408.238.774-.992 1.494-2.083 2.875-2.19 1.419-.111 2.355.872 2.864 2.076.21.498.951.131.84-.354Zm10.29 0c.369-1.615 1.909-2.764 3.56-2.698 1.728.069 2.882 1.387 3.427 2.928.078.222-.258.432-.409.238-.773-.992-1.493-2.083-2.874-2.19-1.42-.111-2.355.872-2.864 2.076-.21.498-.951.131-.84-.354Zm-10.138 3.945c-2.296-.354-4.715-.397-6.941.284a.619.619 0 0 0-.436.636c-.12.074-.235.152-.344.236-.262.202-.032.544.261.563 1.18.076 2.407-.287 3.583-.387a20.471 20.471 0 0 1 3.672.021c.857.08 1.061-1.221.205-1.353Zm17.168.046c-2.356-.614-4.938-.677-7.191.339-.564.254-.129 1.008.39.924.102-.017.204-.032.306-.047.101.103.251.164.458.145.923-.082 1.814-.308 2.749-.325.987-.017 1.949.111 2.912.329.885.202 1.261-1.134.376-1.365Zm-10.521-19.872c3.85 3.66 7.917 7.09 12.174 10.266 1.522 1.135 3.187 2.281 5.083 2.366.11-4.326.053-8.917-2.223-12.597-1.109-1.793-2.676-3.247-4.224-4.678-1.66-1.534-3.355-3.092-5.404-4.046-1.874-.873-3.965-1.196-6.032-1.239-5.609-.115-11.253 1.855-15.51 5.509a22.325 22.325 0 0 0-5.596 7.356c-.836 1.761-3.128 6.843-1.875 8.732 2.26 3.407 13.558-3.34 15.872-4.876.69-.456 8.173-6.376 7.735-6.793Z" fill="#1E2144"/><path d="M244.207 159.093c-1.985-6.709-7.398-12.262-14.052-14.399a19.887 19.887 0 0 0-4.389-.88c1.742-.838 3.464-1.863 4.711-3.339 1.137-1.347 2.465-3.963.571-5.303-1.862-1.316-4.173.636-5.344 1.995-.941 1.091-1.668 2.325-2.269 3.624-.468-1.629-1.114-3.241-2.053-4.547-1.258-1.749-3.682-2.123-4.869-.05-1.156 2.02.237 4.585 1.655 6.081a9.061 9.061 0 0 0 2.328 1.792c-3.864.701-7.529 2.505-10.654 5.154-3.303 2.8-5.879 6.354-8.029 10.086-.432.75.723 1.423 1.16.678 3.486-5.955 8.307-11.602 15.063-13.831 6.555-2.164 13.902-.332 18.893 4.373 2.651 2.498 4.51 5.586 5.772 8.981.343.927 1.797.566 1.506-.415Zm-18.037-19.662c.456-.694.986-1.335 1.597-1.898.467-.43 1.519-1.36 2.216-.98 1.322.72-1.228 3.328-1.812 3.815-1.077.898-2.338 1.544-3.584 2.184.437-1.084.939-2.14 1.583-3.121Zm-8.412-1.951c.207-.84.984-1.363 1.739-.83.637.45.99 1.386 1.295 2.069.724 1.621 1.222 3.333 1.557 5.074-.91-.475-1.778-1.042-2.495-1.75-1.054-1.04-2.487-2.979-2.096-4.563Z" fill="#ED7966"/><path d="M175.266 221.383c-4.359 2.511-8.716 5.027-13.078 7.518-1.041.559-10.056 4.6-10.002 5.364a62.358 62.358 0 0 0 4.223 18.602c1.745-.678 3.507-1.305 5.247-1.992 14.236-5.621 26.888-15.213 41.263-20.418l2.006-17.397c.19-1.646.439-3.238 1.325-4.643.616-.977 2.272-2.324.134-2.472-.406-.028-.909.097-1.451.305-2.373.909-4.788 1.77-7.138 2.7-5.672 2.245-10.985 5.81-16.272 8.838a2153.005 2153.005 0 0 0-6.257 3.595Z" fill="#FFBD5C"/><path d="M261.954 262.043c-.453 2.466-1.069 4.996-2.598 6.986-1.813 2.361-4.668 3.655-7.474 4.652-17.717 6.297-37.361 4.151-55.557-.591-4.59-1.197-9.191-2.574-13.294-4.954-.654-.379-1.324-.816-1.66-1.493-.304-.609-.288-1.321-.263-2.002a109.643 109.643 0 0 1 9.939-41.329c2.248-4.88 4.915-9.672 8.773-13.414a20.007 20.007 0 0 1 5.119-3.624c4.554-2.245 9.596-2.637 15.009-3.316 8.401-1.052 17.09.196 24.831 3.63 1.389.616 2.757 1.307 4.044 2.115 1.47.918 2.835 1.99 4.005 3.27 2.007 2.195 3.354 4.909 4.509 7.652 5.598 13.292 7.223 28.231 4.617 42.418Z" fill="#FFBD5C"/><path d="M248.822 208.703c-3.902 1.869-7.931 3.462-12.119 4.527-6.02 1.533-12.409 1.943-18.45.493-3.815-.915-7.473-2.598-10.571-5.015-.938-.73-1.904-1.541-2.744-2.434 4.555-2.245 9.596-2.637 15.01-3.316 8.4-1.052 17.089.196 24.83 3.63 1.39.616 2.757 1.307 4.044 2.115Z" fill="#F98"/><path d="M201.566 227.659c-2.077 1.47-4.361 2.729-6.575 3.982-2.287 1.297-4.598 2.548-6.964 3.697-4.69 2.276-9.518 4.193-14.448 5.881-1.67.572-.953 3.238.733 2.661 5.011-1.716 9.881-3.92 14.506-6.497 2.292-1.277 4.554-2.627 6.727-4.1 2.243-1.521 4.314-3.22 6.475-4.845.455-.342.026-1.118-.454-.779Z" fill="#F29E3B"/><path d="M171.917 294.716c-1.745 2.682-4.532 4.471-6.884 6.641-3.666 3.378-6.385 7.792-10.503 10.604-4.119 2.812-10.603 3.29-13.433-.814-2.363-3.426-1.026-8.086.545-11.938.746-1.834 2.843-4.209 5.279-6.292 2.622-2.244 5.641-4.152 7.795-4.678.078-.021.154-.037.228-.053a7.413 7.413 0 0 1-.149-.005c-7.268-.26-19.552-.145-26.73-.747-7.162-.6-14.354.091-21.346 1.763-6.519 1.561-12.863 3.973-18.845 6.989-7.439 3.751-14.561 8.486-22.703 10.244-2.683.579-5.553.807-8.116-.174-2.563-.982-4.714-3.431-4.631-6.175.098-3.162 2.987-5.569 5.961-6.654 2.972-1.083 6.217-1.295 9.15-2.483 6.277-2.542 10.31-9.152 15.624-13.109 1.01-.755 2.07-1.414 3.199-1.928.961-.44 1.975-.777 3.057-.98-.584.027-1.175.049-1.769.066-5.249.163-10.82.017-15.989.257-3.17.146-6.405.287-9.456-.579-2.848-.805-5.434-2.461-8.349-2.97-2.564-.447-5.116.024-7.6.875-1.843.631-3.646 1.474-5.39 2.305-2.647 1.265-5.306 2.536-7.711 4.215-1.8 1.258-3.825 2.825-5.948 2.258-1.42-.378-2.419-1.634-3.18-2.889-1.162-1.92-2.027-4.317-1.125-6.37 1.082-2.454 4.088-3.267 6.698-3.889 9.734-2.323 19.069-6.041 28.362-9.761 6.152-2.461 12.911-8.71 18.074-12.864 6.73-5.413 11.088-9.824 19.203-12.783 5.127-1.87 10.775-1.343 16.203-.794 2.58.261 5.159.521 7.741.784-.473-.576-.556-1.288-1.026-1.864-.87-1.063-1.755-2.141-2.879-2.933-2.318-1.63-5.645-2.082-7.018-4.56-.357-.643-.538-1.37-.692-2.089-.937-4.388-.97-9.072.662-13.252.234-.599.517-1.207 1.006-1.623.492-.42 1.14-.601 1.765-.771 3.232-.874 5.822-2.009 9.052-2.884 1.468-4.428 3.548-9.468 8.037-10.736 2.476-.699 5.103-.031 7.672.114 2.613.146 5.253-.259 7.837.139 5.804.897 10.187 5.572 14.022 10.022 2.509 2.91 5.044 5.934 6.292 9.568 1.438 4.19 1.024 8.748.949 13.174-.307 18.447 5.566 36.361 8.54 54.569.834 5.097 1.335 10.725-1.481 15.054Z" fill="#ED7966"/><path d="M116.188 206.886c-1.248-.742-2.72-1.175-4.152-1.352-.981-.12-2.339-.261-3.209.322-.515.152-.734.688-.812 1.299-.141.648-.079 1.364.068 2.073.085.734.25 1.747.709 2.415a.303.303 0 0 0 .074.099c.16.205.349.373.58.477.597.268 1.377.132 2.005.06.778-.09 1.562-.215 2.309-.455 1.156-.373 2.822-.987 3.524-2.04.754-1.13-.106-2.308-1.096-2.898Z" fill="#1E2144"/><path d="M128.21 224.174c-4.945-.237-9.99-.801-14.293-3.468-2.056-1.274-3.766-3.055-3.883-5.593-.062-1.332.202-2.654.43-3.96.163-.936.598-2.347.135-3.216-.058-.109-.241-.145-.323-.042-.375.466-.413 1.073-.549 1.645-.174.735-.364 1.465-.522 2.204-.277 1.297-.495 2.613-.35 3.942.271 2.496 1.873 4.37 3.881 5.747 4.437 3.042 10.188 4.003 15.474 3.947.779-.008.773-1.169 0-1.206Z" fill="#1E2144"/><path d="M110.078 218.09c-.608.621-1.257 1.035-2.15 1.051-.621.012-1.199-.301-1.807-.206-.117.018-.185.168-.155.273.263.898 1.557 1.123 2.36 1.049a3.58 3.58 0 0 0 2.617-1.501c.367-.514-.436-1.104-.865-.666Zm22.481-15.775c-.164-1.343-.785-2.605-1.995-2.921-.935-.244-2.769-.073-3.147.992-.028.077.053.136.122.123.61-.123 1.131-.369 1.742-.432-.457.358-.815.9-1.043 1.394-.601 1.307-.468 3.038.281 4.266.923 1.512 2.879.909 3.612-.46.395-.736.561-1.875.428-2.962Z" fill="#1E2144"/><path d="M144.336 215.996a29.092 29.092 0 0 1-3.602 14.422c-2.538 4.595-6.307 8.468-8.48 13.246-2.174 4.779-2.242 11.211 1.854 14.494.389.312.817.598 1.088 1.017.727 1.12.061 2.569-.355 3.838-1.201 3.663.124 8.052 3.242 10.319 3.118 2.266 7.811 2.123 10.69-.44 1.632-1.454 2.656-3.527 4.415-4.823 1.677-1.237 3.849-1.634 5.57-2.811 3.136-2.146 4.087-6.36 4.066-10.161-.021-3.801-.748-7.659.092-11.365.967-4.272 3.978-8.415 2.774-12.626-.375-1.309-1.139-2.478-1.552-3.776-1.121-3.521.475-7.267.812-10.948.497-5.424-1.785-10.723-4.582-15.398-2.409-4.026-8.176-9.043-12.904-5.214-5.861 4.747-3.223 13.923-3.128 20.226Z" fill="#DB5B52"/><path d="M143.46 303.347c-1.465.403-2.33 2.633-2.734 3.93-.506 1.624-.78 3.596.113 5.121.376.643 1.256.312 1.315-.356.13-1.452-.14-2.875.187-4.32.16-.704.397-1.384.723-2.028.294-.581.784-1.22.874-1.869.039-.282-.164-.564-.478-.478Zm6.542 2.604c-1.631.182-2.7 2.316-3.1 3.717-.511 1.791-.384 3.762.787 5.252.64.813 1.789-.092 1.605-.934-.283-1.297-.603-2.55-.364-3.883a6.226 6.226 0 0 1 .594-1.797c.302-.577.779-1.114.937-1.753.067-.271-.139-.638-.459-.602Zm-91.412-9.212c-1.887-.337-3.62.134-5.06 1.425-1.284 1.151-2.453 3.437-1.79 5.157.293.765 1.413.874 1.667 0 .396-1.361.366-2.607 1.336-3.759.887-1.055 2.351-1.736 3.717-1.856.509-.046.717-.863.13-.967Zm2.597 3.558c-1.52-.135-2.95 1.52-3.513 2.76-.793 1.748-.738 3.677.492 5.18.656.8 1.867-.073 1.645-.957-.295-1.178-.59-2.45-.098-3.616.442-1.049 1.37-1.564 2.008-2.436.303-.415-.119-.894-.534-.931ZM28.17 272.28c-1.768 1.397-3.88 2.012-6.098 2.164-1.152.078-1.134 1.671 0 1.777 2.703.253 5.307-1.2 6.833-3.374.33-.472-.355-.869-.736-.567Zm2.104 4.777c-.102-.273-.388-.505-.699-.397-.536.186-.838.651-1.26 1.008-.393.332-.81.649-1.277.869-.988.467-2.118.52-3.181.681-.805.122-.83 1.289-.217 1.653 1.393.828 3.122.484 4.437-.332.982-.609 2.7-2.141 2.197-3.482Z" fill="#1E2144"/><path d="M89.24 271.228c-.927.273-1.889.423-2.805.733-.882.299-1.736.662-2.582 1.049-.895.41-.102 1.844.785 1.343 1.532-.866 3.129-1.863 4.779-2.482.394-.148.242-.766-.177-.643Z" fill="#F98"/><path d="M83.16 277.834c1.01-.755 2.07-1.414 3.198-1.928-1.01.743-2.023 1.515-3.199 1.928Zm21.151-10.72c-5.755 2.192-11.582 4.425-16.665 7.878-5.25.163-10.82.017-15.989.258-3.17.145-6.405.286-9.457-.579-2.847-.806-5.433-2.462-8.348-2.971-2.564-.447-5.116.024-7.6.875 3.265-1.771 8.526-3.241 10.349-3.447 4.342-.487 8.797-.373 12.98-1.63 3.154-.946 6.069-2.647 9.293-3.298 3.531-.715 7.177-.124 10.73.466 4.902.817 9.806 1.633 14.707 2.448Z" fill="#E2675A"/><path d="M108.251 261.677c-3.41 5.037-9.352 7.677-14.78 9.904-3.021 1.239-6.07 2.513-8.81 4.308-2.719 1.779-5.172 3.999-7.358 6.395-1.193 1.309-2.33 2.667-3.49 4.003-1.134 1.303-2.289 2.653-4.01 3.148-.83.238-.46 1.367.345 1.254 3.117-.435 5.16-3.309 7.164-5.445 2.302-2.456 4.67-4.926 7.419-6.89 5.495-3.927 12.311-5.312 17.913-9.042 2.78-1.851 5.011-4.233 6.26-7.36.157-.396-.44-.591-.653-.275Z" fill="#F98"/><path d="m160.857 283.792-5.683 4.115-.379.274c-7.268-.261-19.552-.146-26.73-.748-7.162-.599-14.354.091-21.346 1.764a27.96 27.96 0 0 0 2.258-1.53c4.261-3.203 8.015-7.78 13.302-8.46 5.315-.684 10.254 2.872 15.584 3.422 3.21.334 6.417-.438 9.633-.703a30.89 30.89 0 0 1 13.361 1.866Z" fill="#E2675A"/><path d="M163.403 282.156c-.652.072-1.168.434-1.715.773-.584.361-1.191.672-1.796.996-1.216.654-2.438 1.291-3.661 1.93-2.726 1.426-5.381 3.041-7.943 4.741-4.226 2.805-9.645 7.048-8.721 12.799.089.554.972.521 1.086 0 .552-2.511 1.698-4.845 3.452-6.736 1.865-2.012 4.19-3.505 6.473-4.994 2.392-1.559 4.865-2.965 7.325-4.41 1.122-.659 2.278-1.296 3.308-2.095.876-.68 2.21-1.511 2.444-2.674.03-.148-.071-.35-.252-.33Z" fill="#F98"/><path d="M148.869 217.134c-.233-2.526-.744-5.016-.999-7.538-.267-2.636-.134-5.081.441-7.661.078-.351-.432-.61-.609-.256-2.209 4.413-.702 9.911-.164 14.534.595 5.126-.139 10.166-1.997 14.973-.181.467.591.792.812.342 2.193-4.46 2.973-9.458 2.516-14.394Zm3.064 7.117c-.034-.837-.259-1.59-.349-2.41-.036-.332-.552-.344-.529 0 .051.732-.091 1.528-.121 2.268a25.353 25.353 0 0 1-.158 1.985 28.99 28.99 0 0 1-.872 4.428c-.795 2.814-2.089 5.448-3.604 7.941-.456.751.639 1.319 1.142.668 1.871-2.423 3.103-5.266 3.823-8.234.348-1.435.586-2.902.658-4.378.037-.755.041-1.512.01-2.268Zm-9.01 11.131c.218-.328-.26-.67-.532-.411-2.981 2.849-4.621 6.599-5.951 10.439-1.271 3.671-1.93 8.18.872 11.337.477.536 1.308-.15.972-.75-1.904-3.402-1.141-7.22.017-10.732 1.134-3.438 2.614-6.86 4.622-9.883Zm-1.11 12.149c.404-1.653.934-3.485 1.839-4.933.192-.308-.289-.584-.484-.283-.944 1.459-1.819 2.818-2.392 4.475-.581 1.683-.927 3.424-1.108 5.194-.396 3.881.05 7.882.935 11.667.16.683 1.307.553 1.247-.169-.309-3.689-.863-7.349-.703-11.06.071-1.645.275-3.29.666-4.891Zm2.304 12.321c-.057-.203-.4-.231-.439 0-.308 1.828-.342 3.667-.538 5.51-.201 1.909-.501 3.806-.741 5.71-.089.703 1.001.79 1.195.162.575-1.861.845-3.767.948-5.711.103-1.926.098-3.811-.425-5.671Zm17.968-47.485a21.737 21.737 0 0 0-1.401-4.472c-.481-1.101-1.147-2.979-2.367-3.421-.08-.029-.149.045-.154.117-.043.647.309 1.188.566 1.763.336.754.645 1.514.897 2.3.449 1.396.767 2.82.997 4.267.54 3.396.457 6.845.326 10.27-.038.999 1.476.983 1.545 0 .254-3.597.3-7.269-.409-10.824Zm-3.496 11.668c-.022-.315-.46-.311-.487 0-.195 2.23-.508 4.508-.87 6.72a81.52 81.52 0 0 1-1.307 6.456c-.225.905 1.166 1.29 1.397.385.561-2.194.988-4.411 1.212-6.665.111-1.117.18-2.239.219-3.36.042-1.203-.082-2.343-.164-3.536Zm-.832 22.556c-.053-1.995-.12-4.213-.967-6.053-.113-.246-.428-.087-.453.123-.227 1.899.061 3.858.015 5.769a40.41 40.41 0 0 1-.596 6.032c-.616 3.49-1.809 6.86-3.795 9.814-.474.704.634 1.58 1.188.917 2.478-2.97 3.637-6.677 4.214-10.454.313-2.04.45-4.085.394-6.148Zm-6.659 1.609c-1.012 3.687-1.585 7.502-2.508 11.216-.192.772 1.033 1.095 1.183.326.733-3.759 1.579-7.654 1.678-11.494.005-.205-.3-.244-.353-.048Z" fill="#E2675A"/><path d="M121.11 211.061a.901.901 0 0 0-.292-.379.9.9 0 0 0-.573-.203.985.985 0 0 0-.817.469.965.965 0 0 0 .148 1.146l.014.014c.338.357.971.357 1.31 0a1.086 1.086 0 0 0 .258-.431.913.913 0 0 0-.048-.616Zm-3.143 2.352a.794.794 0 0 0-.205-.352l-.039-.046-.174-.135-.206-.087a.83.83 0 0 0-.562.043c-.303.128-.546.447-.53.788a.9.9 0 0 0 .427.746.86.86 0 0 0 .551.102c.174-.024.379-.097.495-.237l.039-.046c.131-.16.243-.346.233-.564l-.029-.212Zm2.172.687c-.338 0-.663.298-.647.646.016.351.284.648.647.648.339 0 .663-.298.648-.648-.016-.35-.285-.646-.648-.646Zm2.986-1.639a.212.212 0 0 1-.021-.011c-.168-.087-.418-.125-.582 0l-.02.015a.57.57 0 0 0-.201.201.548.548 0 0 0-.076.282c0 .102.025.196.076.283a.57.57 0 0 0 .201.201l.02.015c.164.125.414.087.582 0l.021-.012c.367-.191.367-.783 0-.974Zm1.713 3.087a1.019 1.019 0 0 0-.106-.225c-.106-.229-.33-.412-.594-.4a.67.67 0 0 0-.594.4.947.947 0 0 0-.106.224c-.151.453.248.919.699.919.453.001.851-.466.701-.918Zm-7.109 21.025c-.064-.102-.178-.12-.283-.074-.596.263-.883 1.216-1.196 1.754-.422.723-.86 1.429-1.401 2.07-1.091 1.292-2.451 2.292-3.87 3.195-.616.392-.221 1.557.526 1.248 1.782-.741 3.205-1.96 4.379-3.484.569-.739 1.087-1.532 1.458-2.391.265-.611.78-1.683.387-2.318Zm-2.485 7.129c-.1-.118-.289-.094-.393 0-.893.812-1.78 1.576-2.86 2.145-1.096.578-2.268.991-3.363 1.568-.881.464-.274 1.863.672 1.595a12.857 12.857 0 0 0 4.316-2.154c.755-.581 2.527-2.097 1.628-3.154Zm-3.091 5.956c-1.126.505-2.357.719-3.507 1.168-.914.358-1.718.861-2.48 1.479-1.514 1.228-2.758 2.965-3.153 4.891-.191.928 1.205 1.677 1.639.691.72-1.639 1.541-3.178 2.864-4.414 1.462-1.364 3.351-2.099 5.028-3.144.435-.27.057-.873-.391-.671Zm-2.073 4.827c-1.528.193-2.737 1.469-3.583 2.665-.96 1.358-1.391 3.037-1.286 4.687.084 1.331 2.016 1.345 2.079 0a9.302 9.302 0 0 1 .956-3.665c.572-1.155 1.515-1.961 2.224-3.006.179-.263-.053-.723-.39-.681Zm4.754 15.2c-1.128-1.569-2.489-3.071-3.305-4.835-.923-1.995-.861-3.865-.005-5.866.288-.674-.637-1.273-1.014-.593-1.156 2.083-1.874 4.213-1.19 6.589.677 2.349 2.359 4.194 4.181 5.734.68.574 1.936-.189 1.333-1.029Zm8.223 6.043c-1.656-1.482-3.332-3.034-4.558-4.901-1.218-1.855-2.342-4.122-2.197-6.394.042-.653-.925-.623-1 0-.303 2.529.005 4.929 1.282 7.169 1.254 2.2 3.02 4.031 4.936 5.663 1.054.899 2.589-.597 1.537-1.537Zm3.578 2.014c-.165-.513-.349-1.048-.631-1.511-.332-.546-.809-.961-1.183-1.472a.318.318 0 0 0-.549.32c.225.487.271 1.049.381 1.567.11.517.273 1.02.379 1.537.206 1.001.269 2.042.24 3.062-.035 1.204 1.861 1.207 1.872 0a10.978 10.978 0 0 0-.509-3.503Zm3.566 5.347c-.898-2.089-1.379-4.308-1.369-6.582.003-.586-.871-.578-.904 0-.141 2.437.074 4.874.75 7.223.326 1.131 2.012.495 1.523-.641Zm6.962-4.608c-.616 1.005-1.305 1.949-2.12 2.803-.829.867-1.848 1.525-2.596 2.464-.269.337-.031.877.44.756 1.357-.348 2.578-1.205 3.644-2.094 1.109-.925 1.85-2.111 2.022-3.552.092-.777-1.036-.956-1.39-.377Zm5.281.817c-.845.593-1.554 1.332-2.379 1.951a14.265 14.265 0 0 1-2.624 1.587c-.349.16-.099.704.257.609 2.054-.545 4.358-1.487 5.592-3.301.341-.501-.343-1.199-.846-.846Zm13.761-11.27c-.888.918-1.464 2.157-2.014 3.297a23.934 23.934 0 0 0-1.442 3.697c-.299 1.023 1.227 1.696 1.74.733.609-1.142 1.126-2.296 1.626-3.49.476-1.136 1.072-2.336 1.25-3.561.093-.635-.63-1.224-1.16-.676Zm-3.591 3.417c-.51.15-.823.61-1.128 1.017a24.802 24.802 0 0 0-1.256 1.814c-.775 1.26-1.405 2.504-1.902 3.898-.373 1.046 1.209 1.652 1.754.74 1.261-2.106 2.51-4.439 3.205-6.797.116-.396-.276-.79-.673-.672ZM75.755 260.98c-1.381 2.711-4.214 4.057-6.687 5.596-.859.534-.11 1.774.785 1.343 2.96-1.428 5.68-3.356 6.99-6.481.26-.62-.784-1.055-1.088-.458Zm4.578-.341c-.41.863-1.46 1.749-2.15 2.39a10.134 10.134 0 0 1-2.628 1.743c-1.03.476-.132 1.938.881 1.507 1.17-.496 2.186-1.192 3.033-2.141.383-.427.726-.882.978-1.4.285-.585.36-1.215.596-1.8.165-.405-.522-.696-.71-.299Zm5.927-2.011c-1.114 1.45-2.168 2.79-2.354 4.683-.156 1.587.384 3.396 1.878 4.158.53.271 1.428-.198 1.142-.878-.466-1.106-.927-2.19-.942-3.407-.017-1.368.48-2.868 1.277-3.971.442-.613-.556-1.163-1-.585Zm4.146 7.766c-.279-.582-.577-1.218-.718-1.849-.152-.679-.015-1.259-.021-1.929 0-.099-.115-.174-.203-.117-.626.409-.956 1.38-1.015 2.094-.084 1.005.201 1.898.973 2.561a.63.63 0 0 0 .984-.76Zm6.527-2.366c-.822.919-1.944 1.261-2.946 1.916-.454.298-.335 1.193.304 1.124 1.541-.165 2.502-1.453 3.066-2.793.1-.237-.263-.427-.424-.247Zm62.703 34.585c-.306-.345-.784-.11-.928.245-.281.693-.152 1.554-.33 2.291-.182.759-.483 1.507-.747 2.241-.247.69.704 1.154 1.181.687.777-.759 1.154-1.641 1.302-2.715.124-.896.152-2.04-.478-2.749Zm2.898-1.618c-.127-.559-.879-.587-1.161-.152-.58.897-.701 2.321-.768 3.362-.057.895 1.285 1.027 1.527.206.297-1.001.639-2.376.402-3.416Zm3.01-3.191c-.727 1.409-1.341 2.605-.603 4.156.314.661 1.179.15 1.087-.459-.158-1.056-.502-2.418.009-3.408.169-.326-.324-.616-.493-.289Zm-42.769-50.819c-3.415 3.153-4.986 8.459-4.555 13.009.114 1.203 1.859 1.246 1.904 0 .078-2.148.362-4.3.993-6.36.635-2.076 1.611-3.998 2.592-5.927.306-.6-.427-1.19-.934-.722Zm3.862 23.262c-.656-1.204-1.237-2.512-1.63-3.827-.401-1.346-.547-2.747-.708-4.138-.051-.43-.688-.597-.811-.109-.754 2.977.082 6.371 1.819 8.851.563.802 1.812.106 1.33-.777Z" fill="#F98"/><path d="M131.911 313.646a17.762 17.762 0 0 1-1.277 2.379c-1.172 1.842-2.665 3.439-4.349 4.595a15.07 15.07 0 0 1-3.914 1.9c-.705.227-1.431.408-2.167.541-4.768.866-10.003-.253-13.498-3.528a12.118 12.118 0 0 1-1.858-2.202c-2.765-4.177-2.693-9.462-.776-14.067.203-.485.425-.961.665-1.429 1.774-3.436 4.588-6.352 7.985-7.923.712-.332 1.45-.602 2.207-.807a12.893 12.893 0 0 1 2.816-.434c4.07-.166 7.975 1.546 10.879 4.322.431.414.842.849 1.226 1.306a15.957 15.957 0 0 1 2.632 4.378c.047.118.092.237.135.357 1.238 3.366.797 7.222-.706 10.612Z" fill="#fff"/><path d="M131.911 313.646a17.655 17.655 0 0 1-1.278 2.379 72.343 72.343 0 0 1-7.075-1.368 77.484 77.484 0 0 0-.925 5.687c-.092.724-.182 1.45-.263 2.176-.704.227-1.43.408-2.166.541.094-.855.202-1.701.306-2.531a87.075 87.075 0 0 1 1.021-6.415c-3.024-.871-5.963-1.999-8.665-3.473-1.556 3.273-3.664 6.26-6.16 8.891a12.118 12.118 0 0 1-1.859-2.202c2.287-2.397 4.248-5.109 5.663-8.103-2.451-1.621-4.641-3.584-6.438-5.964.203-.485.424-.961.665-1.429a34.007 34.007 0 0 0 6.633 5.349 26.832 26.832 0 0 0 1.656-7.819 26.057 26.057 0 0 0-.12-4.199 19.052 19.052 0 0 0-.184-1.254c.712-.331 1.45-.602 2.207-.807.581 1.892.662 4.066.666 5.858.005 3.053-.556 6.109-1.598 8.977-.075.204-.155.406-.232.609a40.38 40.38 0 0 0 2.304 1.115 43.465 43.465 0 0 0 5.981 2.109c.147-.614.302-1.226.471-1.837.887-3.202 2.12-6.326 3.709-9.248a28.621 28.621 0 0 1 2.394-3.695c.432.415.842.85 1.227 1.307a47.25 47.25 0 0 0-1.934 3.375c-1.426 2.749-2.484 5.661-3.32 8.638a59.842 59.842 0 0 0-.514 1.978c2.577.604 5.2 1.032 7.828 1.355Z" fill="#FFBD5C"/><path d="M131.259 304.837a3.008 3.008 0 0 0-.167-.478c-.113-.244-.421-.388-.678-.388-.256 0-.564.145-.678.388-.073.157-.12.313-.167.478-.154.549.281 1.109.845 1.109.563 0 .999-.56.845-1.109Zm-1.876 2.939c-.032-.242-.129-.414-.288-.602a1.321 1.321 0 0 1-.035-.043c-.15-.178-.479-.303-.706-.292-.252.011-.538.092-.706.292l-.035.043c-.12.141-.212.285-.27.462-.072.221-.035.475.053.683a1 1 0 0 0 .323.419.995.995 0 0 0 .635.225c.366-.016.717-.197.906-.519.118-.204.154-.437.123-.668Zm2.424.9-.169-.474c-.122-.343-.422-.569-.795-.519a.728.728 0 0 0-.629.712l-.02.499c-.02.497.462.869.93.807.455-.062.852-.552.683-1.025Zm-1.883 1.769c-1.163 0-1.165 1.808 0 1.808 1.163 0 1.164-1.808 0-1.808Zm-19.048 7.577a.897.897 0 0 0-.578-.107.447.447 0 0 0-.229.062.667.667 0 0 0-.292.188.876.876 0 0 0-.17.212.853.853 0 0 0 0 .857.9.9 0 0 0 .17.213c.126.101.245.183.401.233.191.062.41.03.59-.045.318-.134.573-.469.557-.829a.945.945 0 0 0-.449-.784Zm1.834-1.63c-.045-.052-.087-.111-.141-.154a.82.82 0 0 0-.803-.213c-.268.074-.512.3-.576.577-.034.145-.039.291-.047.439-.016.318.187.636.455.792a.898.898 0 0 0 .816.046.896.896 0 0 0 .531-.594c.093-.335-.018-.638-.235-.893Zm.338 3.018a.995.995 0 0 0-.683.282c-.168.168-.294.443-.283.683.023.524.424.966.965.966a.992.992 0 0 0 .683-.283c.168-.167.294-.442.283-.683-.023-.523-.424-.965-.965-.965Zm2.55.887c-.986 0-.987 1.531 0 1.531.986 0 .987-1.531 0-1.531Z" fill="#F9D1BB"/><path d="M190.888 244.204c6.707-.03 13.053-2.72 19.481-4.286 11.582-2.82 26.01-1.126 34.55 7.848 2.158 2.269 4.378 5.016 5.572 8.005 2.123 5.316 1.357 11.468-.376 16.942-.727 2.297-1.633 4.564-3.029 6.476-2.146 2.939-5.343 4.86-8.699 5.889-3.355 1.031-6.884 1.232-10.376 1.225a90.638 90.638 0 0 1-27.997-4.516c-3.139-1.029-6.298-2.27-8.83-4.5-4.799-4.224-6.557-11.37-6.251-17.999.325-7.05 2.708-13.977 6.736-19.577" fill="#FFE2CF"/><path d="M196.775 258.685c1.639 2.818 4.284 4.882 6.864 6.874 5.171 3.992 10.497 8.065 16.753 9.943l-26.338-5.116c-2.803-.544-5.93-1.303-7.416-3.742 3.073-1.9 4.874-5.402 5.535-8.955.395-2.122-.737-8.542.767-9.766 2.243 2.399 2.077 7.738 3.835 10.762Z" fill="#FFD3BB"/><path d="M195.498 258.454c-.879 4.969-4.76 7.934-9.289 9.529-5.455 1.921-11.467 3.216-16.837.304-6.85-3.713-9.163-12.47-7.219-19.633a.45.45 0 0 0-.019-.231c-.289-1.044-2.811-4.329-2.497-9.603.006-.126.014-.254.026-.381 2.457.282 5.569.916 7.51 2.451a31.794 31.794 0 0 1 18.545-1.735c1.503-2.176 4.446-4.334 8.151-4.613.049.281.08.577.099.879.084 1.497-.175 3.095-.175 3.095s-.893 3.999-1.734 5.909c-.002.004-.002.009-.002.015 0 .273 1.611 2.533 1.758 2.847 1.553 3.326 2.329 7.529 1.683 11.167Z" fill="#FFE2CF"/><path d="M193.793 238.516s-.893 3.999-1.735 5.909c-.002.004-.002.009-.002.015a10.179 10.179 0 0 1-4.523-3.917 26.172 26.172 0 0 1 3.306-3.025c.976-.75 2.026-1.512 3.128-2.077.085 1.497-.174 3.095-.174 3.095Zm-28.475 5.81c.002.145-.074.281-.149.404a17.104 17.104 0 0 1-3.035 3.693c-.289-1.044-2.811-4.329-2.497-9.603.897.229 2.086 1.393 2.63 1.858a15.973 15.973 0 0 1 2.885 3.25c.08.121.163.253.166.398Z" fill="#F98"/><path d="M173.951 253.717c-.385 2.247-1.091 4.468-1.02 6.747.027.883.199 1.818.805 2.462.3.318.686.542 1.075.741.875.447 1.817.8 2.798.869a5.19 5.19 0 0 0 4.339-1.892 5.194 5.194 0 0 0 .917-4.643c-.518-1.751-1.929-3.107-2.566-4.818-.464-1.247-.491-2.605-.641-3.927a20.539 20.539 0 0 0-1.454-5.592c-.445-1.062-1.068-2.225-2.236-2.613-.827-.275-1.665-.113-1.966.76-.304.883-.03 2 .069 2.895.157 1.421.254 2.85.256 4.28a27.673 27.673 0 0 1-.376 4.731Z" fill="#FFF1E9"/><path d="M178.802 253.452c.213-.001.471.033.556.228.06.14 0 .3-.063.439a7.107 7.107 0 0 1-.955 1.524 1.306 1.306 0 0 1-.327.307c-.365.211-.829.049-1.194-.161a4.909 4.909 0 0 1-.751-.529c-.225-.192-.445-.428-.48-.721-.13-1.064 2.586-1.084 3.214-1.087Z" fill="#1E2144"/><path d="M178.452 257.924c-.196-1.147-.279-2.434-.751-3.503-.09-.205-.369-.063-.326.099-.093 1.207.248 2.49.435 3.676.193 1.224.266 2.568.684 3.737.115.319.526.151.531-.135.02-1.273-.359-2.62-.573-3.874Zm-5.156-5.034c-2.199-.965-5.08-.899-6.836.929-.226.235.057.565.334.433 1.891-.893 3.911-1.235 5.84-.23.761.396 1.421-.799.662-1.132Zm8.028-1.111c1.687-1.709 4.388-2.711 6.696-1.662.297.134.155.545-.15.526-2.087-.133-4.091.296-5.513 1.944-.56.648-1.615-.219-1.033-.808Z" fill="#1E2144"/><path d="M175.046 257.354c-.015-.153-.121-.285-.286-.285-.166 0-.271.131-.285.285l-.009.099c-.015.153.146.3.294.294.147-.007.31-.13.295-.294l-.009-.099Zm1.023-.249c-.164 0-.322.145-.315.315a.32.32 0 0 0 .315.315c.165 0 .323-.145.316-.315-.009-.171-.139-.315-.316-.315Zm-.695 1.029c-.199 0-.391.175-.382.381a.39.39 0 0 0 .382.382c.2 0 .391-.176.382-.382a.388.388 0 0 0-.382-.381Zm4.685-2.119c-.47 0-.471.732 0 .732.47 0 .471-.732 0-.732Zm-.974.562c-.083-.021-.167-.041-.249-.007-.134.055-.22.17-.183.323a.347.347 0 0 0 .135.195c.151.122.374.12.481-.062.097-.166.009-.401-.184-.449Zm.704.653c-.172 0-.337.151-.329.329a.335.335 0 0 0 .329.328c.171 0 .337-.151.328-.328a.333.333 0 0 0-.328-.329Z" fill="#F98"/><path d="M200.709 245.191c-.909.381-1.842.673-2.773.992-.369.126-.212.619.157.569.971-.132 1.921-.411 2.849-.719.542-.18.275-1.055-.233-.842Zm-.246 2.808-.695.194c-.212.058-.415.092-.591.229-.134.105-.038.299.091.346.195.071.424.026.629.016l.669-.032c.561-.026.434-.901-.103-.753Zm1.136 2.199a4.32 4.32 0 0 1-.983.277c-.297.04-.607-.005-.836.217a.272.272 0 0 0-.042.325c.193.317.594.332.935.349.409.02.814-.031 1.21-.133.681-.175.349-1.285-.284-1.035Zm10.739 6.082c-1.02-.096-1.957-.403-2.936-.681-.359-.102-.537.386-.245.581.9.602 1.991.911 3.046 1.101.724.13.878-.931.135-1.001Zm.656-2.565c-.841.146-1.713.039-2.543.204-.177.036-.198.294-.049.378.777.437 1.858.407 2.72.366.691-.032.575-1.07-.128-.948Zm-.086-3.344c-.827.289-1.616.266-2.476.279-.286.004-.411.405-.149.55.883.487 1.96.443 2.914.221.686-.159.372-1.281-.289-1.05Zm-.817-7.266c-.847.157-1.681.45-2.373.971-.206.155-.099.571.195.462.75-.278 1.491-.514 2.295-.567.633-.043.52-.985-.117-.866Zm.246 1.978c-.306.025-.615.037-.92.073-.199.024-.46.041-.626.173l-.017.007c-.098.044-.123.168-.106.261.048.27.373.298.589.327.356.049.721.042 1.08.056.582.021.572-.942 0-.897Zm12.232 12.399c-1.133.057-2.203-.124-3.302-.389-.394-.096-.674.48-.286.679 1.114.571 2.343.793 3.588.821.718.017.714-1.147 0-1.111Zm.719-2.791a6.205 6.205 0 0 1-1.422.04c-.421-.041-1.035-.078-1.347-.397-.262-.267-.613.02-.57.332.168 1.211 2.454 1.25 3.339 1.213.779-.032.74-1.284 0-1.188Zm-.207-3.427c-.965-.288-1.943-.523-2.914-.787-.39-.106-.556.497-.166.607.937.264 1.84.619 2.734.999.602.257.964-.635.346-.819Zm.744-5.126c-1.086-.199-2.223-.325-3.311-.082-.418.094-.267.64.092.686.99.125 1.961.186 2.929.445.685.185.97-.923.29-1.049Zm.314-2.834c-1.104-.321-2.293-.447-3.415-.144-.328.089-.244.554.077.573 1.063.062 2.064.172 3.068.547.605.226.902-.792.27-.976Zm7.784 10.987c-.764.042-1.569-.113-2.32.003-.319.048-.332.514-.086.658.673.394 1.646.405 2.407.427.702.02.697-1.127-.001-1.088Zm.714-2.726a21.663 21.663 0 0 1-2.2-.437c-.334-.085-.587.431-.245.581.715.314 1.436.576 2.193.772.605.157.843-.828.252-.916Zm.859-2.516c-1.111-.337-2.179-.762-3.25-1.205-.356-.147-.559.413-.254.603 1.022.635 2.118 1.137 3.231 1.592.599.245.918-.795.273-.99Zm2.113-2.545c-.896-.616-1.823-1.178-2.73-1.774-.326-.213-.732.295-.423.548.838.685 1.649 1.399 2.503 2.068.608.476 1.293-.401.65-.842Zm5.34 7.111a9.972 9.972 0 0 1-1.727-.076c-.486-.067-.718.631-.21.762.636.164 1.282.267 1.936.318.641.051.653-1.029.001-1.004Zm1.635-2.241c-.753-.077-1.54-.173-2.267-.39-.412-.123-.588.52-.177.643.777.233 1.524.483 2.324.635.64.122.779-.82.12-.888Z" fill="#FFD3BB"/><path d="M173.563 288.604c-.998.111-2.033.268-2.863.834-1.63 1.113-1.922 3.363-2.009 5.335-.126 2.849.059 6.139 2.317 7.88 1.089.84 2.485 1.155 3.84 1.389 9.931 1.716 20.391.222 29.444-4.204.538-.263 1.098-.559 1.418-1.065.337-.529.353-1.196.312-1.822-.182-2.776-1.339-5.456-3.168-7.544-2.444-2.789-4.795-1.593-8.176-1.359-7.029.485-14.099-.225-21.115.556Z" fill="#F98"/><path d="m218.507 300.914 17.608-4.527c4.474-1.149 9.029-1.682 13.53-2.839a126.961 126.961 0 0 0 6.919-1.991c1.729-.551 4.392-2.152 6.169-2.152 4.574-1.391 9.152-2.871 13.379-5.103 1.992-1.051 3.941-2.305 5.305-4.097 1.819-2.389 2.422-5.575 1.973-8.543-.448-2.969-1.88-5.728-3.752-8.074-1.533-1.921-3.411-3.624-5.665-4.605-3.372-1.466-7.239-1.188-10.851-.507-8.665 1.634-16.76 5.387-24.816 8.971a784.91 784.91 0 0 1-22.991 9.795c-7.075 2.882-14.735 5.146-21.302 9.101-.796.48-1.597 1.012-2.11 1.787-1.402 2.119.353 7.79 1.099 10.058 2.113 6.416 6.896 7.51 12.982 5.945l12.523-3.219Z" fill="#20264C"/><path d="M267.054 289.782c.998.111 2.033.267 2.863.834 1.63 1.113 1.922 3.362 2.009 5.335.126 2.848-.059 6.138-2.317 7.88-1.089.84-2.486 1.154-3.84 1.389-9.931 1.715-20.391.221-29.444-4.204-.538-.263-1.098-.559-1.419-1.065-.336-.53-.352-1.197-.311-1.822.182-2.776 1.339-5.457 3.168-7.545 2.443-2.788 4.795-1.593 8.175-1.359 7.029.485 14.099-.225 21.116.557Z" fill="#F98"/><path d="m226.23 302.876-17.608-4.526c-4.473-1.15-9.029-1.683-13.529-2.84a126.738 126.738 0 0 1-6.92-1.991c-1.729-.551-4.391-2.151-6.168-2.151-4.574-1.391-9.152-2.871-13.38-5.103-1.992-1.052-3.94-2.305-5.305-4.097-1.819-2.389-2.422-5.575-1.973-8.542.449-2.969 1.88-5.728 3.753-8.074 1.533-1.922 3.411-3.625 5.665-4.605 3.371-1.466 7.237-1.189 10.85-.507 8.665 1.634 16.76 5.387 24.816 8.971a787.642 787.642 0 0 0 22.991 9.795c7.076 2.882 14.735 5.145 21.302 9.101.796.48 1.597 1.012 2.11 1.787 1.403 2.119-.352 7.79-1.099 10.058-2.112 6.415-6.895 7.509-12.982 5.945l-12.523-3.221Z" fill="#1E2144"/><path d="M255.89 281.944c-3.059 3.755-7.462 6.17-11.825 8.081-2.276.997-4.582 1.929-6.802 3.044a35.879 35.879 0 0 0-3.142 1.756c-1.05.663-1.656 1.1-2.378 1.734-1.744 1.531-2.72 2.661-3.617 4.773h.002c0 .034-.255.739-.28.823-.061.197-.116.397-.167.595-.075.29-.133.582-.188.877-.006.043-.012.084-.014.108a12.336 12.336 0 0 0-.037 1.676c.004.086.039.363.045.437.045.236.098.469.157.703.422 1.678-.536 3.271-2.154 3.795-1.586.512-3.369-.599-3.795-2.154-1.51-5.494.791-11.231 4.715-15.135 3.354-3.336 7.647-5.387 11.94-7.221 2.229-.952 4.47-1.888 6.643-2.971a31.81 31.81 0 0 0 3.059-1.726c.423-.275.838-.563 1.246-.862.222-.163.406-.316.826-.685 1.688-1.478 2.564-2.61 3.571-4.605.234-.464.573-1.56.726-2.412a1.03 1.03 0 0 1 .024-.114l.008-.141c.014-.23.033-.459.039-.691.004-.145.004-.292.002-.438a59.179 59.179 0 0 0 2.895-1.336 41.38 41.38 0 0 0 1.921-1.008c.015.065.031.127.045.192 1.088 4.732-.466 9.225-3.465 12.905Z" fill="#FFF1E9"/><path d="M165.519 260.97c-1.012.955-1.607 2.429-1.257 3.775.111.427.328.846.695 1.089.265.176.586.244.902.289 2.832.403 5.841-1.005 7.349-3.436.248-.4.464-.847.441-1.318-.032-.623-.489-1.163-1.035-1.465-2.23-1.234-5.291-.636-7.095 1.066Z" fill="#FFD3BB"/><path d="M168.294 266.407c-1.355-1.187-1.426-2.801-1.852-4.427-.075-.284-.477-.209-.494.067-.11 1.795.296 3.784 1.657 5.05.46.428 1.159-.278.689-.69Zm3.494-1.923c-.557-.586-.902-1.273-1.147-2.039-.186-.588-.241-1.272-.587-1.789-.065-.097-.21-.082-.246.032-.226.709.004 1.641.185 2.346a5.876 5.876 0 0 0 1.066 2.178c.397.511 1.198-.236.729-.728Z" fill="#1E2144"/><path d="M191.13 260.774c1.012.955 1.608 2.429 1.257 3.775-.111.426-.328.846-.695 1.089-.265.176-.586.244-.901.289-2.833.403-5.841-1.005-7.35-3.436-.247-.4-.463-.848-.439-1.318.031-.624.488-1.163 1.034-1.465 2.229-1.234 5.29-.636 7.094 1.066Z" fill="#FFD3BB"/><path d="M188.357 266.211c1.354-1.187 1.426-2.801 1.852-4.427.075-.284.477-.209.494.067.11 1.795-.297 3.784-1.657 5.049-.461.429-1.16-.277-.689-.689Zm-3.496-1.923c.557-.586.902-1.272 1.147-2.039.187-.588.241-1.272.587-1.79a.136.136 0 0 1 .246.033c.226.709-.004 1.641-.185 2.346a5.868 5.868 0 0 1-1.066 2.178c-.397.511-1.197-.237-.729-.728Z" fill="#1E2144"/><path d="M214.708 259.975c-.261.009-.566.046-.7.27-.224.376.239.78.631.973l5.383 2.661a133.61 133.61 0 0 0-7.802-.249c-2.206-.006-4.463.051-6.529.826-.102.445.453.729.895.843l7.275 1.866-6.188.022c-1.016.003-2.203.094-2.764.941a28.974 28.974 0 0 0 8.349 2.537c-1.334.163-2.687-.097-4.027.007-1.339.103-2.791.711-3.271 1.966 2.851.157 5.704.286 8.558.388-2.04.503-4.302 1.169-5.331 3-.132.234-.241.503-.18.764.136.59.936.666 1.54.61l10.684-.999c4.685-.438 9.419-.885 13.885-2.369.273-.09.558-.194.745-.411.244-.281.269-.685.279-1.057.06-2.154.006-4.351-.676-6.396-.682-2.044-2.078-3.94-4.065-4.774.165.069-.148.846-.204.927-5.57-1.224-10.694-2.559-16.487-2.346Z" fill="#F98"/><path d="M269.159 250.184c-.004.294-.009.59-.019.884-.059 1.746-.226 3.515-.563 5.23-.583 2.955-1.67 5.761-3.581 8.061-1.553 1.871-3.556 3.292-5.687 4.488-.632.355-1.275.688-1.921 1.008a59.836 59.836 0 0 1-25.631 6.185 70.57 70.57 0 0 1-2.6-16.107 66.695 66.695 0 0 0 13.444-3.648c1.901-.738 3.815-1.593 5.278-3.014 2.871-2.786 3.456-7.128 3.668-11.124.442-8.361-.028-16.74-.499-25.097-.145-2.606-1.203-5.074-1.587-7.623 2.123 1.258 3.081 2.139 4.282 3.416 9.439 10.037 15.593 23.563 15.416 37.341Z" fill="#FFBD5C"/><path d="M250.805 236.082c-1.688-5.706-4.258-11.543-8.074-16.155-.262-.317-.729.087-.549.424 2.713 5.09 5.167 10.133 6.541 15.771 1.203 4.94 2.216 10.886-.667 15.451-.886 1.404 1.293 2.642 2.208 1.291 3.363-4.965 2.13-11.41.541-16.782Z" fill="#F29E3B"/></g><defs><clipPath id="clip0_278_10117"><rect width="610" height="380" rx="20" fill="#fff"/></clipPath><clipPath id="clip1_278_10117"><path fill="#fff" transform="rotate(-12 995.517 -1097.8)" d="M0 0h24v24H0z"/></clipPath><clipPath id="clip2_278_10117"><path fill="#fff" transform="rotate(18.991 -66.394 1651.471)" d="M0 0h24v24H0z"/></clipPath><clipPath id="clip3_278_10117"><path fill="#fff" transform="rotate(16 -697.244 1582.681)" d="M0 0h19v19H0z"/></clipPath><clipPath id="clip4_278_10117"><path fill="#fff" transform="rotate(-12 1210.224 -2522.964)" d="M0 0h24v24H0z"/></clipPath><clipPath id="clip5_278_10117"><path fill="#fff" transform="rotate(24.332 -93.128 557.04)" d="M0 0h24v24H0z"/></clipPath><clipPath id="clip6_278_10117"><path fill="#fff" transform="rotate(19.973 -102.123 1157.383)" d="M0 0h24v24H0z"/></clipPath><clipPath id="clip7_278_10117"><path fill="#fff" transform="translate(336 273.497)" d="M0 0h24v18H0z"/></clipPath><clipPath id="clip8_278_10117"><path fill="#fff" transform="rotate(-39.455 337.546 -643.287)" d="M0 0h31v31H0z"/></clipPath><filter id="filter0_d_278_10117" x="403.724" y="99.234" width="112.692" height="112.692" filterUnits="userSpaceOnUse" color-interpolation-filters="sRGB"><feFlood flood-opacity="0" result="BackgroundImageFix"/><feColorMatrix in="SourceAlpha" values="0 0 0 0 0 0 0 0 0 0 0 0 0 0 0 0 0 0 127 0" result="hardAlpha"/><feOffset dy="17"/><feGaussianBlur stdDeviation="17.5"/><feColorMatrix values="0 0 0 0 0 0 0 0 0 0 0 0 0 0 0 0 0 0 0.12 0"/><feBlend in2="BackgroundImageFix" result="effect1_dropShadow_278_10117"/><feBlend in="SourceGraphic" in2="effect1_dropShadow_278_10117" result="shape"/></filter><filter id="filter1_d_278_10117" x="272.588" y="129.301" width="128.054" height="128.053" filterUnits="userSpaceOnUse" color-interpolation-filters="sRGB"><feFlood flood-opacity="0" result="BackgroundImageFix"/><feColorMatrix in="SourceAlpha" values="0 0 0 0 0 0 0 0 0 0 0 0 0 0 0 0 0 0 127 0" result="hardAlpha"/><feOffset dy="17"/><feGaussianBlur stdDeviation="17.5"/><feColorMatrix values="0 0 0 0 0 0 0 0 0 0 0 0 0 0 0 0 0 0 0.12 0"/><feBlend in2="BackgroundImageFix" result="effect1_dropShadow_278_10117"/><feBlend in="SourceGraphic" in2="effect1_dropShadow_278_10117" result="shape"/></filter></defs></svg>