<svg width="400" height="390" viewBox="0 0 400 390" fill="none" xmlns="http://www.w3.org/2000/svg"><g clip-path="url(#clip0_904_8204)"><path d="M313.457 102.479c-2.766-5.352-5.665-10.623-8.964-15.646-38.071-57.966-140.036-89.522-190.559-29.607-12.042 14.28-16.239 31.536-24.344 47.913-18.434 37.248-52.876 59.517-74.472 94.007-16.74 26.737-14.508 61.003-5.17 89.906 10.148 31.407 28.007 53.342 56.573 70.016 32.024 18.693 66.277 13.503 100.892 6.998 15.568-2.926 31.618-5.91 47.536-4.794 19.929 1.398 39.605 7.029 59.377 9.767 20.562 2.846 41.897 3.52 61.705-2.684 63.435-19.867 78.463-112.965 52.377-166.296-9.234-18.877-24.883-33.441-39.415-48.217-15.686-15.951-25.301-31.562-35.536-51.363Z" fill="#A9BFF8"/><path d="M313.457 102.479c-2.766-5.352-5.665-10.623-8.964-15.646-38.071-57.966-140.036-89.522-190.559-29.607-12.042 14.28-16.239 31.536-24.344 47.913-18.434 37.248-52.876 59.517-74.472 94.007-16.74 26.737-14.508 61.003-5.17 89.906 10.148 31.407 28.007 53.342 56.573 70.016 32.024 18.693 66.277 13.503 100.892 6.998 15.568-2.926 31.618-5.91 47.536-4.794 19.929 1.398 39.605 7.029 59.377 9.767 20.562 2.846 41.897 3.52 61.705-2.684 63.435-19.867 78.463-112.965 52.377-166.296-9.234-18.877-24.883-33.441-39.415-48.217-15.686-15.951-25.301-31.562-35.536-51.363Z" fill="#E7EDFB"/><path d="M6.648 367.031h391.514" stroke="#263238" stroke-miterlimit="10" stroke-linecap="round" stroke-linejoin="round"/><path d="m92.014 137.66.495-.068v-.004l-.002-.015-.008-.057-.031-.226-.12-.87-.256-1.876-.184-1.34a7521.7 7521.7 0 0 0-1.487-10.764c-1.18-8.499-2.633-18.848-3.723-26.241-2.163-14.678.72-32.337 5.07-47.832 2.17-7.73 6.518-18.977 10.331-28.308a742.89 742.89 0 0 1 6.506-15.41l.058-.133.117.34a338.29 338.29 0 0 1 1.436 4.313 407.561 407.561 0 0 1 4.556 14.994c3.447 12.185 7.25 27.858 8.698 41.858 1.671 16.153.203 29.586-2.439 39.465l.912.386c7.193-12.01 19.181-22.376 32.033-29.113 11.917-6.248 21.649-8.076 28.384-8.35 3.368-.138 5.99.114 7.764.398l.428.072-.092.02c-1.499.326-3.58.838-5.913 1.582-4.653 1.486-10.364 3.915-14.439 7.685-4.039 3.736-9.694 10.983-15.055 19.028-5.365 8.051-10.468 16.951-13.391 24.014-2.833 6.848-9.23 11.212-14.998 13.872a52.421 52.421 0 0 1-7.552 2.78 46.662 46.662 0 0 1-2.777.696 38.914 38.914 0 0 1-.52-2.166l-.362-1.709-.597 1.642c-1.386 3.813-3.149 11.416-5.027 20.794-1.881 9.392-3.885 20.602-5.753 31.655-3.614 21.395-6.718 42.224-7.416 48.141l-7.052-1.304v-90.595l-.005-.036-.495.072.495-.073v-.003l-.002-.009-.005-.033-.02-.129a48.65 48.65 0 0 0-.433-2.249 54.778 54.778 0 0 0-1.558-5.699c-1.457-4.356-3.858-9.481-7.628-12.167-3.663-2.609-6.427-3.926-8.292-4.59a13.433 13.433 0 0 0-2.123-.587 6.719 6.719 0 0 0-.554-.077 2.372 2.372 0 0 0-.15-.01l-.043-.002h-.02c-.001 0-.002 0-.002.5m23.24 17.738-.485.119v-.002l-.002-.008-.008-.032-.03-.124-.117-.473-.421-1.704c-.352-1.42-.828-3.336-1.328-5.322-1.001-3.984-2.085-8.21-2.441-9.297-.153-.465-.605-1.239-1.409-2.217-.794-.966-1.906-2.099-3.336-3.281-2.86-2.366-6.984-4.922-12.37-6.749-10.675-3.62-27.172-1.492-42.308 16.113-3.843 4.468-6.754 9.463-8.966 14.434l-.159.357-.384-.067c-.823-.144-1.516-.321-1.99-.562v-.001c-2.185-1.111-6.366-3.331-9.996-5.27a2030.2 2030.2 0 0 1-4.721-2.53l-.031-.016c.807 1.089 1.944 2.619 3.301 4.438 2.779 3.721 6.483 8.651 10.19 13.488l.153.199-.07.242a90.193 90.193 0 0 0-2.7 13.182 80.628 80.628 0 0 0-.217 1.882c.165-.431.345-.895.539-1.387 1.107-2.815 2.654-6.546 4.412-10.205l.347-.721.496.627c7.55 9.536 14.431 15.591 21.895 17.663 3.17.879 8.693 1.648 14.2 2.253a415.26 415.26 0 0 0 13.895 1.26l.387.029.068.383 10.953 61.902h6.198l-15.817-61.619-.015-.058-.001-.06c-.008-.627-.103-4.913-1.318-10.18-1.217-5.275-3.545-11.476-7.98-15.989-3.166-3.223-8.86-5.115-15.248-6.278-6.13-1.116-12.785-1.544-18.216-1.892l-.609-.04-1.034-.066.696-.768c4.473-4.937 10.363-9.605 17.85-13.19 6.221-2.98 12.437-4.653 17.093-5.582a73.923 73.923 0 0 1 5.633-.907 52.34 52.34 0 0 1 2.003-.201l.11-.007.028-.002.007-.001h.003l.03.499m23.24 17.738.496-.067-.98.187.485-.12Zm-23.24-17.738-.03-.499.016-.001h.014v.5Zm59.646 54.027-.387.029-.068.383-10.953 61.902h-6.198l15.818-61.62.014-.058.001-.06c.007-.628.102-4.913 1.317-10.18 1.217-5.275 3.545-11.476 7.98-15.989 2.268-2.308 5.843-3.941 10.069-5.111 4.214-1.167 9.016-1.856 13.68-2.317 3.415-.338 6.741-.551 9.703-.741 1.085-.07 2.12-.137 3.094-.205 1.811-.127 3.41-.261 4.696-.433 1.265-.17 2.298-.385 2.928-.705 2.185-1.112 6.365-3.332 9.996-5.271 1.816-.97 3.495-1.871 4.721-2.53l.031-.016-.158.214c-.942 1.269-2.281 3.07-3.869 5.195a1266.25 1266.25 0 0 1-11.343 14.96c-7.978 10.333-15.155 16.868-22.977 19.04-3.17.879-8.693 1.648-14.199 2.253a415.318 415.318 0 0 1-13.896 1.26Zm-13.158-40.097.1-.154-.024-.182c-.584-4.548-.292-9.066.735-13.482l-.904-.389a21.107 21.107 0 0 1-1.035 1.445c-2.91 3.702-7.638 9.995-11.641 15.92-2.001 2.961-3.826 5.84-5.153 8.261-.663 1.211-1.207 2.316-1.586 3.266-.374.936-.609 1.772-.609 2.426 0 2.359.408 14.457.79 25.303l.02.54.536-.061 1.388-.156.333-.038.092-.322-.48-.137.48.137v-.001l.001-.003.004-.012.014-.05.055-.192.215-.741a492.546 492.546 0 0 1 3.52-11.551c2.18-6.842 4.893-14.752 7.053-19.148 2.079-4.231 4.32-7.946 6.096-10.679Z" fill="#B8E0C4" stroke="#000"/><path d="m139.219 304.21-45.753-2.176-45.752 2.176-18.882 68.157h7.988l22.513-35.529H127.6l22.513 35.529h7.988l-18.882-68.157Z" fill="#fff" stroke="#263238" stroke-miterlimit="10" stroke-linecap="round" stroke-linejoin="round"/><path d="M133.789 326.687h-81.37a4.7 4.7 0 0 1-4.704-4.697v-87.388h90.779v87.388a4.702 4.702 0 0 1-4.705 4.697Z" fill="#3A4043" stroke="#263238" stroke-miterlimit="10" stroke-linecap="round" stroke-linejoin="round"/><path d="M96.735 304.21h-7.262v68.157h7.262V304.21Z" fill="#fff" stroke="#263238" stroke-miterlimit="10" stroke-linecap="round" stroke-linejoin="round"/><path d="M275.935 17.907v77.67h-92.576v-77.67m192.342 0v77.67h-92.576v-77.67m-7.19 85.377h-92.576v77.669h92.576v-77.669Zm99.766 0h-92.576v77.669h92.576v-77.669Zm-99.766 85.377h-92.576v77.67h92.576v-77.67Zm99.766 0h-92.576v77.67h92.576v-77.67Zm-11.221-72.334-47.804 47.729m9.799-16.898-13.659 13.637m-78.98-29.645 15.44-15.416m4.751-3.557 3.86-3.853m90.562 106.424-21.379 21.345m-5.049 5.04-7.72 7.708m2.079-26.978-7.72 7.708m39.789-186.762L327.07 64.151m-5.049 5.041-7.72 7.708m2.079-26.977-7.72 7.708" stroke="#263238" stroke-miterlimit="10" stroke-linecap="round" stroke-linejoin="round"/><path d="M215.1 313.486s8.983 9.896 9.912 30.308c.93 20.41-15.797 32.162-20.443 33.399-4.646 1.238-10.221 1.547-10.221 1.547v-63.088l20.752-2.166Zm-109.342 0s-8.983 9.896-9.912 30.308c-.93 20.41 15.797 32.162 20.444 33.399 4.646 1.238 10.221 1.547 10.221 1.547v-63.088l-20.753-2.166Z" fill="#F98" stroke="#263238" stroke-miterlimit="10" stroke-linecap="round" stroke-linejoin="round"/><path d="M241.814 175.4c7.279-7.806 12.132-27.186 7.279-34.453-4.852-7.268-31.003 2.961-40.438 12.92-9.436 9.959-13.21 16.149-13.21 16.149-10.659-1.552-29.538-1.277-35.866-1.132-6.393-.145-25.455-.419-36.114 1.132 0 0-3.774-6.19-13.21-16.149-9.435-9.959-35.586-20.188-40.438-12.92-4.853 7.267 0 26.647 7.278 34.453 7.28 7.807 21.568 25.032 23.455 26.916 1.887 1.885-1.349 23.956-.809 51.949.54 27.993 1.079 51.141 4.584 64.061 3.504 12.92 9.435 29.877 9.435 34.722 0 4.844-1.348 9.42-4.044 13.996-2.696 4.576-8.896 6.46-9.705 11.843-.81 5.383 1.617 8.344 8.896 10.229 7.279 1.884 10.784 1.884 15.906-1.346s8.896-8.883 8.896-8.883l27.499.539 27.498-.539s3.774 5.653 8.896 8.883c5.123 3.229 8.628 3.229 15.907 1.346 7.278-1.885 9.705-4.845 8.896-10.229-.808-5.382-7.01-7.267-9.706-11.843-2.695-4.576-4.044-9.152-4.044-13.996 0-4.845 5.932-21.802 9.436-34.722 3.505-12.92.539-36.068 1.078-64.061.539-27.993-2.696-50.065-.809-51.949 1.887-1.883 16.175-19.11 23.454-26.916Z" fill="#F98" stroke="#263238" stroke-miterlimit="10" stroke-linecap="round" stroke-linejoin="round"/><path d="M191.559 309.836c-11.093 2.626-10.493-.477-11.392-12.654-.899-12.176 11.692-18.145 21.585-23.875s16.489-22.682 14.09-25.546c-2.398-2.865-25.782-.956-27.581-5.253-1.8-4.297-2.528-17.806-2.528-17.806l-25.354-7.144-26.407 7.144s.324 13.508-1.474 17.806c-1.799 4.297-25.183 2.387-27.582 5.253-2.398 2.865 4.197 19.816 14.091 25.546 9.893 5.73 22.485 11.699 21.585 23.875-.899 12.177-.299 15.28-11.392 12.654-11.093-2.626-20.086-8.596-20.086.477s2.098 21.726 8.694 26.263c6.595 4.536 12.291 2.149 15.889 10.505 3.598 8.356 3.14 23.17-.978 30.506a3.982 3.982 0 0 0-.381.996c.461-.615.717-.996.717-.996l27.498.538 27.487-.538c-4.118-7.337-4.576-22.15-.978-30.506 3.597-8.356 9.293-5.969 15.889-10.505 6.596-4.537 8.694-17.19 8.694-26.263s-8.993-3.103-20.086-.477Z" fill="#fff"/><path opacity=".33" d="M198.367 170.649s2.563 9.139 6.408 15.537c3.845 6.397 7.507 11.333 13.182 9.139 5.676-2.193 23.252-21.021 26.548-29.429 3.295-8.409 5.309-21.57.549-24.86-4.76-3.29-32.406 4.204-46.687 29.613Zm-78.395 0s-2.563 9.139-6.408 15.537c-3.845 6.397-7.507 11.333-13.183 9.139-5.675-2.193-23.252-21.021-26.547-29.429-3.295-8.409-5.31-21.57-.549-24.86 4.76-3.29 32.406 4.204 46.687 29.613Z" fill="#000"/><path d="M133.707 378.947c-.257-1.626 2.277-3.361 1.494-5.215-5.887-13.928-16.868-13.563-22.947-12.082a31.128 31.128 0 0 1-2.54 5.394c-2.696 4.576-8.897 6.46-9.706 11.844-.809 5.382 1.618 8.343 8.896 10.228 7.279 1.884 10.784 1.884 15.907-1.346 5.122-3.23 8.896-8.882 8.896-8.882v.059Z" fill="#fff" stroke="#263238" stroke-miterlimit="10" stroke-linecap="round" stroke-linejoin="round"/><path d="M104.01 387.489s-1.85-4.956.299-8.174c2.149-3.22 8.597-5.365 8.597-5.365m-4 15.166s1.358-5.216 2.765-6.933c1.407-1.716 9.065-5.929 9.065-5.929" stroke="#263238" stroke-miterlimit="10" stroke-linecap="round" stroke-linejoin="round"/><path d="M188.704 378.947c.257-1.626-2.196-3.361-1.412-5.215 5.887-13.928 16.867-13.563 22.946-12.082a31.209 31.209 0 0 0 2.541 5.394c2.696 4.576 8.896 6.46 9.705 11.844.81 5.382-1.617 8.343-8.896 10.228-7.279 1.884-10.784 1.884-15.906-1.346s-8.897-8.882-8.897-8.882l-.081.059Z" fill="#fff" stroke="#263238" stroke-miterlimit="10" stroke-linecap="round" stroke-linejoin="round"/><path d="M209.501 389.985s.469-4.837-.156-6.398c-.625-1.56-6.095-6.398-6.095-6.398m14.38 10.3s0-3.121-.782-6.866c-.781-3.745-5.157-7.022-5.157-7.022" stroke="#263238" stroke-miterlimit="10" stroke-linecap="round" stroke-linejoin="round"/><path d="M161.492 253.188h-1.435c-3.686 0-6.674-2.983-6.674-6.663V227.08h14.783v19.445c-.001 3.68-2.989 6.663-6.674 6.663Z" fill="#AB675B" stroke="#263238" stroke-miterlimit="10" stroke-linecap="round" stroke-linejoin="round"/><path d="M160.504 231.117v11.657" stroke="#263238" stroke-miterlimit="10" stroke-linecap="round" stroke-linejoin="round"/><path d="M167.516 205.546c-2.157-5.652.808-16.149-.81-21.264-1.617-5.114-4.852-4.037-4.852-4.037l-1.348.268-1.348-.268s-3.235-1.077-4.853 4.037c-1.617 5.115 1.348 15.612-.809 21.264-2.157 5.653-18.871 15.612-18.871 20.456 0 4.845 8.896 12.382 12.671 13.997 3.774 1.615 13.21-8.883 13.21-8.883s9.435 10.498 13.209 8.883c3.774-1.615 12.671-9.152 12.671-13.997.001-4.844-16.714-14.803-18.87-20.456Z" fill="#fff" stroke="#263238" stroke-miterlimit="10" stroke-linecap="round" stroke-linejoin="round"/><path d="M170.75 219.543s-3.766-4.179-9.904-4.281c-6.752-.112-11.933 2.666-11.393 5.089.539 2.422 7.549 7.536 10.244 8.343 2.696.808 10.514-5.382 11.053-9.151Zm3.185-14.102c1.621 0 2.935-1.859 2.935-4.153 0-2.293-1.314-4.152-2.935-4.152S171 198.995 171 201.288c0 2.294 1.314 4.153 2.935 4.153Z" fill="#263238"/><path d="M174.541 200.435a.77.77 0 1 0 .002-1.54.77.77 0 0 0-.002 1.54Z" fill="#fff"/><path d="M148.171 201.288c0 2.294-1.314 4.153-2.935 4.153-1.622 0-2.935-1.859-2.935-4.153 0-2.293 1.314-4.152 2.935-4.152 1.621.001 2.935 1.86 2.935 4.152Z" fill="#263238"/><path d="M146.006 200.435a.77.77 0 1 0 0-1.541.77.77 0 0 0 0 1.541Z" fill="#fff"/><path d="M232.145 345.372s2.691 19.471.622 25.879c-2.068 6.407-7.506 7.871-6.286 12.485 1.219 4.614 8.529 3.741 13.427 2.261 4.897-1.478 9.392-7.818 8.795-15.378-.597-7.559-4.031-19.777-6.674-21.737-2.642-1.961-8.49-5.087-9.884-3.51Z" fill="#AB675B"/><path d="M242.912 384.43c-.081-.26-.152-.507-.24-.78-1.964-6.096-7.671-8.428-11.33-9.311-2.423 3.963-5.856 5.633-4.861 9.397 1.219 4.613 8.529 3.74 13.427 2.261 1.035-.313 2.049-.854 3.004-1.567Z" fill="#fff" stroke="#263238" stroke-miterlimit="10" stroke-linecap="round" stroke-linejoin="round"/><path d="m254.183 238.866-21.316-.431s-13.891-13.79-15.587-10.176c-3.517 7.495 1.872 21.678 1.872 21.678s-6.346 14.019-6.494 36.961c-.148 22.941 9.263 46.976 15.287 56.223 6.023 9.248 13.708 18.211 13.708 18.211s1.77 7.644.286 13.379c-1.484 5.736-4.857 8.119-3.784 11.12 1.073 3.001 9.65 3.737 13.382.374 3.732-3.362 6.767-11.366 6.767-11.366l1.812.216s-1.975 5.558 2.756 7.836c4.731 2.278 16.347.787 20.817.582 4.47-.205 52.073.302 68.098.75s34.281-2.013 39.699-12.426c5.418-10.413 3.522-25.322-1.663-29.1-5.185-3.777-11.106 1.01-10.947 7.123.16 6.112-.165 17.658-5.195 20.159-5.03 2.5-31.105.781-39.636-1.604-8.531-2.385-11.751-5.447-11.751-5.447s4.854-31.559 2.439-45.657c-2.415-14.099-12.93-28.26-22.902-32.336-9.971-4.075-22.59-8.06-29.302-16.337-6.712-8.276-5.263-18.635-5.263-18.635 1.547-2.103 4.707-7.863 3.827-18.547-.306-3.711-.876-4.152-1.537-4.171-.662-.018-8.551 3.946-15.373 11.621Z" fill="#AB675B" stroke="#263238" stroke-miterlimit="10" stroke-linecap="round" stroke-linejoin="round"/><path d="m275.551 375.411 29.589-.64" stroke="#263238" stroke-miterlimit="10" stroke-linecap="round" stroke-linejoin="round"/><path opacity=".33" d="M230.345 239.85s-6.111-6.114-8.694-8.332c-2.583-2.218-3.372-3.561-3.909-2.091-.538 1.471-.543 7.579.479 12.394 1.022 4.816 2.095 7.818 4.578 7.722 2.483-.096 6.187-2.468 7.427-5.404 1.239-2.938.119-4.289.119-4.289Zm26.434.739s6.445-5.762 9.148-7.833c2.703-2.071 3.567-3.367 4.02-1.869.454 1.499.117 7.597-1.173 12.348-1.291 4.751-2.531 7.688-5.004 7.454-2.474-.234-6.039-2.81-7.112-5.812-1.072-3 .121-4.288.121-4.288Z" fill="#000"/><path d="M270.408 269.945c-.642-5.944-4.651 2.294-10.544.783-5.894-1.512-11.71-18.693-12.735-20.607-1.025-1.914-4.715-5.657-7.802-1.434-3.086 4.224-10.413 19.288-15.836 20.214-3.634.621-6.317-2.362-7.692-4.397-1.1 5.757-1.986 12.953-2.039 21.351-.148 22.941 9.263 46.976 15.286 56.223 6.023 9.248 13.708 18.212 13.708 18.212s-.029-4.648.376-12.45c.587-11.298 6.649-25.406 14.538-37.307 7.888-11.899 13.383-34.643 12.74-40.588Z" fill="#fff"/><path d="M254.742 382.104c-3.4-4.434-10.017-5.637-13.241-5.961-1.611 4.72-4.327 6.95-3.348 9.687 1.073 3.002 9.65 3.737 13.382.374 1.16-1.044 2.252-2.538 3.207-4.1Z" fill="#fff" stroke="#263238" stroke-miterlimit="10" stroke-linecap="round" stroke-linejoin="round"/><path d="M269.662 337.492c.489 6.668.92 18.217-1.285 24.248-3.215 8.8-10.076 13.098-10.076 13.098m10.902-42.437s.122 1.046.273 2.766" stroke="#263238" stroke-miterlimit="10" stroke-linecap="round" stroke-linejoin="round"/><path d="M260.116 375.054s-1.975 5.558 2.756 7.836c2.706 1.303 7.664 1.371 12.25 1.155.526-.691.921-1.417 1.055-2.152.638-3.484-.627-6.483-.627-6.483l-15.434-.356Z" fill="#fff" stroke="#263238" stroke-miterlimit="10" stroke-linecap="round" stroke-linejoin="round"/><path d="M307.852 330.377c-3.248-2.889-8.398-6.134-15.183-6.191-12.267-.103-20.089 12.889-22.2 19.555m41.388-8.931s-.621-.945-1.822-2.271" stroke="#263238" stroke-miterlimit="10" stroke-linecap="round" stroke-linejoin="round"/><path d="M244.995 262.525s-1.204-1.413-3.229-1.504c-2.227-.1-3.963.77-3.807 1.574.155.805 2.422 2.558 3.303 2.849.882.291 3.52-1.68 3.733-2.919Z" fill="#F98" stroke="#263238" stroke-miterlimit="10" stroke-linecap="round" stroke-linejoin="round"/><path d="M235.312 266.529s4.165 5.786 5.95-1.085c0 0 .635 7.344 6.07 1.556" fill="#fff"/><path d="M235.312 266.529s4.165 5.786 5.95-1.085c0 0 .635 7.344 6.07 1.556" stroke="#263238" stroke-miterlimit="10" stroke-linecap="round" stroke-linejoin="round"/><path d="M253.667 257.648c.18.892-.784 1.837-2.153 2.113-1.369.275-2.625-.225-2.805-1.116-.18-.892.784-1.837 2.153-2.113 1.369-.275 2.625.225 2.805 1.116Z" fill="#263238"/><path d="M252.605 257.429c.05.246-.215.506-.593.582-.376.076-.722-.062-.772-.306-.049-.246.216-.507.593-.582.377-.076.723.061.772.306Z" fill="#fff"/><path d="M233.704 258.472c-.318.853-1.637 1.149-2.945.663-1.309-.486-2.112-1.572-1.795-2.424.318-.853 1.636-1.15 2.945-.663 1.308.486 2.113 1.572 1.795 2.424Z" fill="#263238"/><path d="M232.785 257.679c-.088.235-.451.317-.811.182-.36-.133-.581-.432-.494-.667.088-.235.451-.316.811-.182.36.134.581.432.494.667Z" fill="#fff"/><path d="m232.195 263.976-7.14-.719m7.108 1.888-5.515 1.665m5.852.164-2.906 1.479m20.679-3.971 7.17-.319m-7.201 1.488 5.413 1.971m-5.854-.164 2.818 1.639" stroke="#263238" stroke-miterlimit="10" stroke-linecap="round" stroke-linejoin="round"/><path d="M106.389 36.112c.013.008.004.262-.024.74l-.14 2.075c-.134 1.794-.31 4.403-.503 7.635-.39 6.464-.776 15.48-.832 25.58a506.825 506.825 0 0 0 .566 26.082c.16 3.36.308 6.083.424 7.965l.118 2.168c.023.495.029.755.016.753-.013 0-.043-.262-.09-.76l-.187-2.176a316.77 316.77 0 0 1-.542-7.994 430.056 430.056 0 0 1-.675-26.17c.056-10.129.483-19.15.941-25.589.228-3.221.443-5.81.621-7.58l.209-2.036c.052-.462.086-.7.098-.693Zm41.056 54.686c.009.009-.076.127-.248.345l-.763.94a189.61 189.61 0 0 0-2.796 3.462 162.906 162.906 0 0 0-8.585 11.93 163.8 163.8 0 0 0-7.458 12.706 191.284 191.284 0 0 0-2.049 3.977l-.555 1.084c-.13.245-.204.372-.216.367-.011-.005.041-.142.15-.399l.494-1.114a101.08 101.08 0 0 1 1.95-4.036c1.705-3.378 4.241-7.957 7.386-12.791 3.148-4.829 6.299-8.984 8.688-11.891a97.133 97.133 0 0 1 2.887-3.391l.814-.895c.189-.201.292-.302.301-.294ZM21.75 148.319c.007-.011.141.047.392.166l1.084.539a187.82 187.82 0 0 0 3.99 1.971 162.661 162.661 0 0 0 13.52 5.766 163.447 163.447 0 0 0 14.031 4.498c1.823.495 3.303.877 4.33 1.129l1.178.304c.268.074.408.118.405.13-.002.013-.147-.008-.422-.059l-1.195-.238a99.03 99.03 0 0 1-4.365-1.019c-3.67-.925-8.692-2.398-14.098-4.408-5.4-2.016-10.145-4.181-13.504-5.876a98.118 98.118 0 0 1-3.941-2.075l-1.051-.598c-.238-.141-.36-.22-.354-.23Zm152.723-1.638c.003.013-.13.073-.386.179l-1.126.443c-.983.373-2.398.93-4.138 1.64a162.835 162.835 0 0 0-13.342 6.166 164.049 164.049 0 0 0-12.744 7.396 187.873 187.873 0 0 0-3.739 2.456l-1.016.67c-.234.15-.362.224-.368.214-.008-.01.105-.104.326-.274l.978-.726a97.808 97.808 0 0 1 3.683-2.556c3.145-2.103 7.606-4.843 12.721-7.506 5.117-2.656 9.904-4.725 13.413-6.082a98.465 98.465 0 0 1 4.182-1.533l1.148-.379c.264-.082.404-.119.408-.108Z" fill="#6E6B6B"/></g><defs><clipPath id="clip0_904_8204"><rect width="400" height="390" rx="20" fill="#fff"/></clipPath></defs></svg>