<svg viewBox="0 0 505 394" fill="none" xmlns="http://www.w3.org/2000/svg"><g filter="url(#filter0_d_278_10794)"><rect x="63.039" y="101.018" width="358.224" height="130.332" rx="8" transform="rotate(-13.73 63.04 101.018)" fill="#A9BFF8" shape-rendering="crispEdges"/><path d="M95.726 129.394c-.85.207-1.656.199-2.415-.026a4.404 4.404 0 0 1-1.949-1.237c-.539-.6-.917-1.346-1.135-2.238-.219-.893-.226-1.725-.022-2.498a4.283 4.283 0 0 1 1.159-1.996c.56-.556 1.265-.938 2.115-1.145a4.282 4.282 0 0 1 1.694-.08c.554.079 1.07.252 1.545.519.484.266.89.613 1.218 1.041l-1.206.87a2.868 2.868 0 0 0-.826-.695 2.72 2.72 0 0 0-1.013-.368 2.8 2.8 0 0 0-1.085.051 2.802 2.802 0 0 0-1.388.781 3.039 3.039 0 0 0-.742 1.399c-.127.54-.114 1.125.04 1.757.155.631.414 1.161.777 1.59.372.426.81.725 1.317.896a2.887 2.887 0 0 0 1.617.046c.37-.09.698-.246.983-.467a2.97 2.97 0 0 0 .72-.832 3.04 3.04 0 0 0 .397-1.06l1.471.216a4.272 4.272 0 0 1-.573 1.545 4.305 4.305 0 0 1-1.135 1.214 4.413 4.413 0 0 1-1.564.717Zm9.228-2.416-.36-1.143-1.259-5.152 1.402-.343 1.543 6.315-1.326.323Zm-5.123-2.013-.79-3.233 1.415-.346.79 3.233-1.415.346Zm1.415-.346c.121.497.275.87.46 1.119.186.249.393.403.622.463.237.058.491.055.76-.011.482-.109.814-.355.997-.739.183-.384.201-.874.055-1.472l.531-.13c.162.665.201 1.262.116 1.792-.078.519-.268.948-.568 1.289-.294.331-.693.558-1.198.681-.497.122-.951.126-1.363.012-.403-.116-.753-.365-1.052-.747-.298-.382-.53-.909-.694-1.583l-.08-.328 1.414-.346Zm6.719-1.936c-.167-.682-.173-1.274-.019-1.775.154-.502.412-.908.773-1.219a2.887 2.887 0 0 1 1.233-.65l.33 1.352a3.69 3.69 0 0 0-1.058.432 1.805 1.805 0 0 0-.698.706c-.153.287-.182.624-.087 1.012l-.474.142Zm-.114 3.588-1.542-6.315 1.414-.345 1.543 6.314-1.415.346Zm4.702-4.709c-.167-.682-.173-1.273-.019-1.775s.412-.908.773-1.219a2.885 2.885 0 0 1 1.233-.649l.33 1.351c-.387.094-.74.239-1.059.432a1.802 1.802 0 0 0-.697.706c-.153.287-.182.624-.088 1.012l-.473.142Zm-.114 3.588-1.543-6.315 1.415-.345 1.542 6.314-1.414.346Zm7.441-1.658c-.615.151-1.196.145-1.744-.015a3.238 3.238 0 0 1-1.411-.9c-.39-.431-.665-.971-.823-1.619-.159-.648-.16-1.255-.003-1.819a3.1 3.1 0 0 1 .853-1.44c.418-.405.939-.684 1.562-.836a2.833 2.833 0 0 1 1.636.068c.524.176.984.505 1.379.988.403.482.697 1.101.882 1.859l-4.963 1.213.146-.224c.095.388.261.704.5.949.236.237.511.397.826.481.315.083.641.084.978.002.387-.095.686-.257.898-.487.209-.239.351-.515.427-.827l1.379.225c-.094.38-.249.73-.466 1.05a2.82 2.82 0 0 1-.83.819 3.832 3.832 0 0 1-1.226.513Zm-2.576-3.479-.246-.127 3.562-.87-.147.223c-.084-.345-.229-.609-.434-.791a1.442 1.442 0 0 0-.704-.363 1.6 1.6 0 0 0-.763-.001 1.843 1.843 0 0 0-.715.362 1.584 1.584 0 0 0-.508.66c-.114.26-.13.562-.045.907Zm6.678 2.317-1.542-6.315 1.326-.324.372 1.141 1.259 5.152-1.415.346Zm4.281-1.046-.79-3.233 1.415-.346.79 3.233-1.415.346Zm-.79-3.233c-.123-.505-.276-.878-.46-1.119-.177-.251-.385-.406-.622-.464a1.534 1.534 0 0 0-.76.012c-.473.107-.802.352-.984.736-.183.383-.202.874-.056 1.472l-.53.13c-.163-.666-.205-1.258-.126-1.776.076-.528.266-.957.568-1.29.3-.341.699-.572 1.196-.694.505-.123.959-.127 1.362-.011.411.113.762.362 1.052.746.297.374.528.902.695 1.584l.08.328-1.415.346Zm6.188 2.075c-.666.162-1.215.122-1.649-.12-.427-.252-.717-.69-.869-1.313l-1.589-6.503 1.402-.343 1.524 6.239c.072.294.194.501.365.62.18.116.405.141.675.076a.91.91 0 0 0 .265-.119c.093-.058.191-.149.295-.272l.78.946a2.79 2.79 0 0 1-.574.502 1.877 1.877 0 0 1-.625.287Zm-4.378-4.498-.296-1.212 4.155-1.015.296 1.212-4.155 1.015Zm16.221 1.443-5.607-7.997 1.465-.358 5.696 7.976-1.554.379Zm-7.059 1.725 1.364-9.701 1.477-.361-1.288 9.683-1.553.379Zm1.124-2.576-.318-1.301 5.291-1.293.318 1.301-5.291 1.293Zm8.375.255-1.542-6.314 1.326-.324.372 1.14 1.259 5.153-1.415.345Zm4.282-1.046-.79-3.233 1.414-.345.79 3.233-1.414.345Zm-.79-3.233c-.124-.505-.277-.878-.461-1.118-.177-.251-.385-.406-.622-.464a1.534 1.534 0 0 0-.76.012c-.473.107-.801.352-.984.735-.183.384-.201.875-.055 1.473l-.531.129c-.162-.665-.204-1.257-.126-1.776.077-.527.266-.957.568-1.289.301-.341.699-.572 1.196-.694.505-.123.959-.127 1.362-.011.411.113.762.362 1.052.746.297.374.528.902.695 1.584l.08.328-1.414.345Zm3.637 2.538-1.543-6.315 1.326-.324.372 1.141 1.259 5.152-1.414.346Zm4.281-1.046-.79-3.233 1.414-.346.79 3.233-1.414.346Zm-.79-3.233c-.123-.505-.277-.878-.461-1.119-.177-.251-.384-.405-.622-.463a1.518 1.518 0 0 0-.759.011c-.474.107-.802.352-.985.736-.183.384-.201.874-.055 1.472l-.531.13c-.162-.665-.204-1.257-.126-1.776.077-.527.266-.957.569-1.29.3-.341.698-.572 1.195-.693.505-.124.959-.128 1.362-.012.412.114.762.362 1.052.747.297.373.529.901.695 1.583l.08.328-1.414.346Zm7.868 1.504-.36-1.144-1.259-5.152 1.402-.343 1.543 6.315-1.326.324Zm-5.123-2.014-.79-3.233 1.415-.346.79 3.233-1.415.346Zm1.415-.346c.121.497.275.87.46 1.119.186.249.393.403.622.464.237.058.491.054.76-.012.482-.109.814-.355.997-.739.183-.384.201-.874.055-1.472l.531-.13c.162.665.201 1.263.116 1.792-.078.519-.268.949-.568 1.29-.294.33-.693.557-1.199.68-.496.122-.95.126-1.362.012-.403-.116-.753-.364-1.052-.747-.298-.382-.53-.909-.695-1.583l-.08-.328 1.415-.346Zm10.457.711-.353-1.172-.503-2.058c-.105-.43-.239-.776-.401-1.04-.157-.274-.354-.462-.593-.564-.233-.113-.514-.129-.842-.049a1.654 1.654 0 0 0-.749.384 1.617 1.617 0 0 0-.436.735l-1.349-.152c.067-.311.181-.611.342-.9.168-.3.403-.562.705-.788.31-.227.705-.399 1.185-.517.614-.15 1.158-.153 1.63-.01.47.135.856.402 1.159.801.311.397.544.911.698 1.542l.808 3.47-1.301.318Zm-1.782.595c-.757.186-1.388.161-1.891-.073-.495-.236-.817-.661-.967-1.276-.161-.656-.064-1.211.289-1.663.362-.454.939-.778 1.73-.971l1.692-.414.266 1.087-1.238.302c-.564.138-.94.314-1.129.53a.763.763 0 0 0-.18.74c.06.244.204.414.432.51.235.085.53.085.883-.002.32-.078.58-.217.781-.418a1.5 1.5 0 0 0 .404-.701c.078-.269.08-.55.008-.845l.417-.102c.21.859.203 1.579-.021 2.16-.226.572-.718.951-1.476 1.136Zm4.553-1.272-2.16-8.84 1.414-.346 2.16 8.84-1.414.346Zm6.296-1.538-2.16-8.84 3.119-.762c.606-.149 1.171-.157 1.693-.026.523.13.968.383 1.336.757.366.366.619.835.759 1.408a3.092 3.092 0 0 1-.002 1.579 2.766 2.766 0 0 1-.77 1.286c-.37.349-.841.593-1.413.733l-1.844.451.747 3.056-1.465.358Zm.388-4.766 1.818-.444c.421-.103.731-.33.931-.682.199-.352.244-.756.132-1.21-.113-.463-.356-.801-.729-1.013-.373-.213-.799-.26-1.279-.143l-1.629.398.756 3.094Zm9.574 2.492c-.614.15-1.195.145-1.743-.016a3.239 3.239 0 0 1-1.411-.899c-.391-.431-.665-.971-.824-1.619-.158-.648-.159-1.255-.003-1.82a3.11 3.11 0 0 1 .853-1.439c.419-.406.939-.684 1.562-.837a2.83 2.83 0 0 1 1.636.069c.525.175.985.504 1.379.988.403.481.697 1.101.883 1.859l-4.963 1.212.146-.223c.094.387.261.704.499.949.236.236.512.397.827.48.315.084.64.085.977.002.388-.094.687-.257.898-.487a1.9 1.9 0 0 0 .427-.827l1.38.225c-.094.38-.25.73-.466 1.051a2.829 2.829 0 0 1-.83.818 3.816 3.816 0 0 1-1.227.514Zm-2.576-3.479-.245-.127 3.561-.87-.146.223c-.084-.346-.229-.609-.434-.791a1.442 1.442 0 0 0-.704-.363 1.588 1.588 0 0 0-.763-.001 1.83 1.83 0 0 0-.715.362 1.58 1.58 0 0 0-.508.659c-.115.26-.13.563-.046.908Zm9.229 1.854c-.665.162-1.215.123-1.648-.119-.428-.253-.718-.691-.87-1.314l-1.589-6.503 1.402-.343 1.524 6.239c.072.294.194.501.366.62.18.116.405.142.674.076a.899.899 0 0 0 .265-.119c.093-.058.192-.149.295-.272l.78.947a2.806 2.806 0 0 1-.573.501 1.882 1.882 0 0 1-.626.287Zm-4.378-4.498-.296-1.212 4.155-1.015.296 1.212-4.155 1.015Zm10.097 2.94-2.16-8.84 3.119-.762c.607-.148 1.17-.16 1.691-.038.52.122.963.362 1.326.72.362.348.61.796.744 1.343a2.657 2.657 0 0 1-.062 1.554 2.9 2.9 0 0 1-.881 1.273c-.422.353-.936.603-1.542.751l-1.566.383.796 3.258-1.465.358Zm4.9-1.197-2.948-3.08.946-1.061 3.656 3.737-1.654.404Zm-4.561-3.77 1.717-.42a1.535 1.535 0 0 0 1.128-1.025c.09-.254.101-.52.033-.797a1.363 1.363 0 0 0-.708-.925c-.369-.195-.793-.234-1.273-.117l-1.604.392.707 2.892Zm10.29 2.531c-.615.15-1.196.145-1.744-.016a3.239 3.239 0 0 1-1.411-.9c-.39-.43-.665-.97-.823-1.618-.159-.649-.16-1.255-.003-1.82.156-.564.44-1.044.852-1.44.419-.405.94-.684 1.563-.836a2.83 2.83 0 0 1 1.636.069c.524.175.984.504 1.378.988.404.481.698 1.1.883 1.858l-4.963 1.213.146-.223c.095.387.261.703.499.948.237.237.512.397.827.481.315.084.641.084.978.002.387-.094.686-.257.898-.487.209-.239.351-.514.427-.827l1.379.225c-.094.38-.25.73-.466 1.05a2.817 2.817 0 0 1-.83.82 3.828 3.828 0 0 1-1.226.513Zm-2.577-3.48-.245-.127 3.561-.87-.146.223c-.084-.345-.229-.608-.434-.79a1.439 1.439 0 0 0-.704-.363 1.588 1.588 0 0 0-.763-.001 1.83 1.83 0 0 0-.715.362 1.587 1.587 0 0 0-.508.659c-.115.26-.13.563-.046.908Zm8.478 1.877.92-6.916 1.465-.357-1.059 6.95-1.326.323Zm-.101.025-4.157-5.675 1.453-.355 4.017 5.71-1.313.32Zm7.593-1.694c-.615.15-1.196.145-1.744-.016a3.23 3.23 0 0 1-1.41-.9c-.391-.43-.666-.97-.824-1.619-.159-.648-.16-1.254-.003-1.819a3.1 3.1 0 0 1 .853-1.44c.418-.405.939-.684 1.562-.836a2.83 2.83 0 0 1 1.636.069c.524.175.984.504 1.379.988.403.481.697 1.1.882 1.858l-4.963 1.213.146-.223c.095.387.261.703.5.948.236.237.511.397.826.48.315.085.641.085.978.003.387-.095.686-.257.898-.487.209-.239.351-.514.427-.827l1.38.225c-.095.38-.25.73-.466 1.05a2.833 2.833 0 0 1-.831.819 3.825 3.825 0 0 1-1.226.514Zm-2.576-3.48-.246-.127 3.562-.87-.147.223c-.084-.345-.229-.608-.434-.79a1.434 1.434 0 0 0-.704-.364 1.587 1.587 0 0 0-.763 0 1.82 1.82 0 0 0-.714.361 1.57 1.57 0 0 0-.508.66c-.115.26-.131.563-.046.908Zm6.678 2.317-1.542-6.314 1.326-.324.372 1.14 1.259 5.152-1.415.346Zm4.281-1.046-.789-3.233 1.414-.346.79 3.233-1.415.346Zm-.789-3.233c-.124-.505-.277-.878-.461-1.119-.177-.25-.385-.405-.622-.463a1.535 1.535 0 0 0-.76.011c-.473.107-.802.352-.984.736-.183.384-.202.874-.056 1.472l-.53.13c-.162-.665-.204-1.257-.126-1.776.076-.527.266-.957.568-1.29.3-.34.699-.572 1.196-.693.505-.124.959-.128 1.362-.012.411.114.762.363 1.052.747.297.373.528.901.695 1.583l.08.328-1.414.346Zm7.867 1.504-.359-1.144-1.259-5.152 1.401-.343 1.543 6.315-1.326.324Zm-5.122-2.014-.79-3.233 1.414-.346.79 3.233-1.414.346Zm1.414-.346c.122.497.275.87.461 1.119s.393.403.622.464c.237.058.49.054.76-.012.482-.109.814-.355.997-.739.183-.384.201-.874.055-1.472l.53-.13c.163.666.202 1.263.117 1.792-.079.519-.268.949-.568 1.29-.294.33-.694.557-1.199.68-.497.122-.951.126-1.362.012-.403-.115-.754-.364-1.052-.746-.299-.383-.53-.91-.695-1.584l-.08-.328 1.414-.346Zm9.459 1.115c-.615.15-1.196.145-1.744-.015a3.23 3.23 0 0 1-1.41-.9c-.391-.431-.666-.97-.824-1.619-.159-.648-.159-1.255-.003-1.82a3.1 3.1 0 0 1 .853-1.439c.418-.405.939-.684 1.562-.836a2.83 2.83 0 0 1 1.636.068c.524.175.984.505 1.379.988.403.482.697 1.101.882 1.859l-4.963 1.212.146-.223c.095.388.261.704.5.949.236.237.511.397.826.48.315.084.641.085.978.003.387-.095.686-.257.898-.487.209-.239.352-.515.427-.827l1.38.225c-.095.38-.25.73-.466 1.05a2.833 2.833 0 0 1-.831.819 3.825 3.825 0 0 1-1.226.513Zm-2.576-3.479-.246-.127 3.562-.87-.147.223c-.084-.345-.229-.609-.434-.79a1.434 1.434 0 0 0-.704-.364 1.588 1.588 0 0 0-.763 0 1.827 1.827 0 0 0-.714.361 1.57 1.57 0 0 0-.508.66c-.115.26-.131.562-.046.907Zm-143.427 71.436c-.829.203-1.612.257-2.349.162-.737-.094-1.379-.308-1.927-.641-.535-.336-.923-.742-1.163-1.218l2.2-1.279c.237.354.578.627 1.024.82.455.177.975.201 1.561.072.612-.136 1.073-.386 1.382-.749.322-.367.428-.778.317-1.231-.089-.363-.32-.635-.694-.819-.365-.199-.828-.298-1.391-.298l-1.688.001a5.48 5.48 0 0 1-1.75-.335 3.367 3.367 0 0 1-1.328-.89c-.36-.406-.615-.913-.764-1.522-.281-1.153-.125-2.145.468-2.976.605-.834 1.608-1.422 3.007-1.764.777-.19 1.484-.246 2.12-.168.65.074 1.228.276 1.734.606.503.316.929.74 1.278 1.273l-2.194 1.298c-.222-.344-.553-.606-.995-.787-.433-.196-.934-.225-1.504-.085-.557.136-.964.379-1.221.73-.26.339-.334.741-.22 1.207.092.376.289.65.592.823.313.157.702.233 1.168.229l1.712.014c1.113.003 2.036.272 2.771.806.744.518 1.216 1.185 1.415 2.001.18.738.162 1.422-.055 2.052-.216.629-.619 1.174-1.206 1.633-.588.459-1.355.804-2.3 1.035Zm-.427 2.719-.826-3.38 2.137-.522.826 3.38-2.137.522Zm-3.366-13.775-.826-3.38 2.137-.522.826 3.38-2.137.522Zm12.935 9.317-2.976-12.182-.094-1.48 2.293-.56 3.322 13.6-2.545.622Zm-5.149-8.604-.589-2.409c.331-.053.661-.216.993-.49.328-.286.637-.622.927-1.008.299-.403.547-.793.743-1.17l2.094 1.238c-.34.632-.716 1.225-1.13 1.779a6.994 6.994 0 0 1-1.375 1.366 3.666 3.666 0 0 1-1.663.694Zm11.364 7.085 2.809-12.771 2.76-.922-2.616 12.972-2.953.721Zm-3.895-10.886-.594-2.429 9.579-2.34.479 1.962-2.586 1.127-6.878 1.68Zm18.633 7.533a6.588 6.588 0 0 1-1.999.159 5.809 5.809 0 0 1-1.996-.501 3.834 3.834 0 0 1-1.521-1.255l2.253-1.312c.386.345.797.567 1.233.666.449.097.887.093 1.315-.012.673-.164 1.168-.498 1.485-1.001.326-.519.405-1.121.237-1.808-.155-.635-.492-1.115-1.011-1.441-.506-.33-1.095-.412-1.769-.247a2.376 2.376 0 0 0-1.041.542c-.292.264-.499.541-.62.831l-2.518.059-1.002-7.64 7.693-1.88.589 2.409-5.42 1.325.408 3.359c.303-.28.653-.53 1.052-.751a4.463 4.463 0 0 1 1.337-.512 3.98 3.98 0 0 1 2.153.05c.695.201 1.292.57 1.794 1.106.511.52.867 1.188 1.066 2.004.225.92.215 1.78-.028 2.581-.244.8-.679 1.49-1.306 2.069-.631.566-1.425.966-2.384 1.2Zm6.644.476.065-4.874 2.662-.65-.784 5.05-1.943.474Zm9.635-4.453a6.652 6.652 0 0 1-1.999.159 5.809 5.809 0 0 1-1.996-.501 3.834 3.834 0 0 1-1.521-1.255l2.253-1.312c.386.345.797.567 1.233.666.449.096.887.092 1.315-.012.673-.165 1.168-.498 1.485-1.001.326-.519.405-1.122.237-1.808-.155-.635-.492-1.115-1.011-1.441-.506-.33-1.095-.412-1.769-.248a2.378 2.378 0 0 0-1.041.543c-.292.264-.499.541-.62.831l-2.518.059-1.002-7.64 7.694-1.88.588 2.409-5.42 1.325.408 3.358c.303-.279.653-.53 1.052-.751a4.461 4.461 0 0 1 1.337-.511 3.98 3.98 0 0 1 2.153.05c.695.201 1.292.57 1.794 1.106.511.52.867 1.188 1.066 2.004.225.92.215 1.78-.028 2.58a4.597 4.597 0 0 1-1.306 2.07c-.631.565-1.425.965-2.384 1.2Zm11.892-2.906c-1.101.269-2.146.209-3.133-.181-.991-.403-1.854-1.071-2.589-2.003-.739-.945-1.276-2.104-1.612-3.477-.335-1.373-.391-2.643-.168-3.809.219-1.179.671-2.168 1.354-2.966.694-.815 1.591-1.356 2.692-1.625 1.101-.269 2.146-.202 3.137.201 1 .387 1.87 1.053 2.609 1.998.735.932 1.271 2.084 1.606 3.457.336 1.373.393 2.649.174 3.829-.223 1.166-.681 2.156-1.374 2.971-.697.801-1.595 1.336-2.696 1.605Zm-.589-2.409a2.386 2.386 0 0 0 1.412-.962c.368-.516.598-1.148.689-1.898.088-.763.022-1.598-.2-2.504-.221-.907-.547-1.678-.977-2.315-.43-.636-.925-1.091-1.487-1.366a2.371 2.371 0 0 0-1.721-.217 2.344 2.344 0 0 0-1.407.982c-.358.499-.581 1.13-.67 1.893-.075.759-.002 1.592.22 2.499.221.907.541 1.68.958 2.319.426.623.915 1.08 1.467 1.371a2.464 2.464 0 0 0 1.716.198Zm13.187-.669c-1.101.269-2.145.209-3.133-.181-.99-.403-1.854-1.071-2.589-2.003-.739-.945-1.276-2.104-1.611-3.477-.336-1.373-.392-2.642-.169-3.809.22-1.179.671-2.168 1.355-2.966.693-.814 1.59-1.356 2.691-1.625 1.101-.269 2.147-.202 3.137.201 1.001.387 1.87 1.053 2.609 1.998.735.932 1.271 2.085 1.606 3.457.336 1.373.394 2.65.174 3.829-.223 1.166-.681 2.156-1.374 2.971-.697.801-1.595 1.336-2.696 1.605Zm-.589-2.409a2.386 2.386 0 0 0 1.412-.962c.368-.516.598-1.148.689-1.898.089-.763.022-1.598-.2-2.504-.221-.907-.547-1.678-.977-2.314-.43-.637-.925-1.092-1.486-1.367a2.372 2.372 0 0 0-1.721-.217 2.339 2.339 0 0 0-1.407.982c-.359.499-.582 1.13-.67 1.893-.076.759-.002 1.592.219 2.499.222.907.541 1.68.958 2.319.427.623.916 1.08 1.467 1.371a2.459 2.459 0 0 0 1.716.198Zm-67.112 46.497-3.685-6.587 1.121-.274 2.713 5.135.066-.016.095-5.821 1.11-.271 2.769 5.125.066-.016.035-5.81 1.125-.275-.237 7.545-1.073.262-2.779-4.929-.055.014-.194 5.655-1.077.263Zm8.293-5.36.769 3.146-1.032.252-1.726-7.065 1.018-.249.642 2.629.066-.016c.054-.316.189-.589.403-.819.214-.23.527-.395.939-.496a1.988 1.988 0 0 1 1.007-.008c.31.082.576.254.798.514.224.257.389.606.497 1.048l.824 3.37-1.032.252-.793-3.246c-.095-.388-.269-.665-.521-.83-.253-.168-.557-.208-.914-.121a1.4 1.4 0 0 0-.617.316c-.166.15-.28.338-.341.566-.06.224-.055.476.013.757Zm7.891 1.519c-.522.128-.999.126-1.431-.005a2.337 2.337 0 0 1-1.101-.736c-.302-.36-.521-.815-.655-1.365-.132-.542-.148-1.045-.047-1.509.104-.464.31-.857.619-1.178.311-.322.713-.544 1.205-.664a2.68 2.68 0 0 1 .905-.064c.305.03.595.124.87.281.274.157.518.389.729.696.211.304.375.697.492 1.177l.09.366-4.212 1.029-.189-.773 3.201-.782a1.557 1.557 0 0 0-.342-.68 1.286 1.286 0 0 0-.588-.387 1.335 1.335 0 0 0-.741-.012c-.29.07-.525.203-.707.399-.179.192-.3.417-.362.673-.06.254-.057.513.007.777l.148.604c.086.354.222.64.407.858.187.218.409.364.667.44.257.074.536.074.837 0 .195-.047.367-.118.514-.213a1.2 1.2 0 0 0 .356-.357c.089-.142.145-.303.167-.483l1.019-.063a1.822 1.822 0 0 1-.236.858 2.098 2.098 0 0 1-.634.685 2.896 2.896 0 0 1-.988.428Zm3.654-4.34.769 3.146-1.032.252-1.294-5.299.99-.241.211.862.065-.016c.054-.31.189-.582.408-.816.22-.234.53-.4.927-.497.361-.088.696-.09 1.005-.004.308.083.572.255.794.515.222.26.387.608.494 1.045l.823 3.371-1.031.252-.794-3.246c-.093-.385-.267-.66-.52-.828-.253-.169-.555-.211-.904-.126a1.335 1.335 0 0 0-.6.311 1.148 1.148 0 0 0-.327.563c-.058.223-.052.475.016.756Zm11.014-6.844 1.07-.261 1.135 4.647c.121.494.111.961-.028 1.399a2.507 2.507 0 0 1-.76 1.137c-.368.319-.835.547-1.401.685-.563.138-1.082.15-1.556.037a2.507 2.507 0 0 1-1.198-.658 2.546 2.546 0 0 1-.67-1.229l-1.135-4.647 1.066-.26 1.114 4.56c.078.32.218.587.419.801.203.214.452.36.747.439.294.077.619.072.976-.015a2 2 0 0 0 .876-.437c.227-.207.38-.451.457-.734.08-.282.08-.583.002-.903l-1.114-4.561Zm7.255 1.471-.895.394a1.123 1.123 0 0 0-.27-.296.943.943 0 0 0-.402-.183 1.237 1.237 0 0 0-.56.027c-.293.071-.52.196-.684.375-.164.177-.221.367-.171.572a.546.546 0 0 0 .301.38c.158.076.391.112.7.11l.889-.012c.515-.007.921.078 1.217.254.297.176.491.452.582.827.078.317.055.622-.068.916a1.87 1.87 0 0 1-.621.766 2.92 2.92 0 0 1-1.077.486c-.593.145-1.108.136-1.545-.025-.437-.164-.755-.47-.955-.918l.96-.395a.98.98 0 0 0 .527.496c.225.084.493.088.803.012.338-.083.591-.219.76-.409.167-.192.226-.39.176-.595a.564.564 0 0 0-.288-.372c-.15-.082-.358-.122-.625-.117l-.945.022c-.522.008-.931-.082-1.228-.27-.295-.189-.489-.472-.581-.849a1.375 1.375 0 0 1 .062-.885 1.77 1.77 0 0 1 .59-.726 2.737 2.737 0 0 1 1.01-.458c.573-.14 1.054-.126 1.444.042.389.166.687.442.894.831Zm2.216 3.702-1.295-5.298 1.032-.252 1.294 5.298-1.031.252Zm-.974-6.243a.675.675 0 0 1-.506-.067.6.6 0 0 1-.296-.388.597.597 0 0 1 .084-.481.67.67 0 0 1 .417-.296.656.656 0 0 1 .504.071.585.585 0 0 1 .299.387.596.596 0 0 1-.087.482.66.66 0 0 1-.415.292Zm3.656 2.254.768 3.146-1.031.252-1.295-5.298.99-.242.211.862.066-.016a1.56 1.56 0 0 1 .407-.816c.221-.234.53-.4.928-.497.361-.088.695-.09 1.004-.004.308.083.573.255.795.515.222.26.386.609.493 1.046l.823 3.37-1.031.252-.793-3.246c-.094-.384-.267-.66-.52-.827-.254-.17-.555-.212-.905-.127a1.337 1.337 0 0 0-.6.312 1.14 1.14 0 0 0-.327.562c-.058.224-.052.476.017.756Zm8.277 3.535c-.421.102-.797.136-1.128.099a2.153 2.153 0 0 1-.845-.257 1.883 1.883 0 0 1-.573-.493l.797-.582c.087.086.196.173.327.26.134.089.3.152.499.189.201.036.445.019.73-.05.391-.096.691-.27.899-.524.209-.25.263-.583.162-.997l-.254-1.042-.066.016a2.356 2.356 0 0 1-.177.442 1.495 1.495 0 0 1-.388.475c-.178.151-.429.266-.753.345-.419.102-.82.097-1.203-.017a2.133 2.133 0 0 1-1.007-.679c-.288-.339-.5-.79-.638-1.354-.138-.563-.16-1.069-.068-1.519.095-.449.284-.822.568-1.118a2.125 2.125 0 0 1 1.063-.603c.329-.08.608-.09.837-.029.229.058.417.146.565.264.151.117.27.223.359.318l.076-.019-.21-.859 1.011-.247 1.323 5.416c.112.456.097.855-.043 1.199-.14.344-.374.63-.701.858a3.424 3.424 0 0 1-1.162.508Zm-.752-3.03c.297-.073.531-.203.702-.391.173-.191.28-.429.322-.715a2.525 2.525 0 0 0-.068-.981 2.648 2.648 0 0 0-.388-.903 1.438 1.438 0 0 0-.621-.521c-.242-.104-.514-.119-.816-.046-.31.076-.549.22-.717.431-.168.21-.271.464-.31.763-.037.299-.014.618.069.956.084.347.212.639.382.875.169.237.376.403.619.5.245.096.521.107.826.032Zm4.396-7.57 1.21-.296 2.631 2.761.076-.019 1.061-3.662 1.21-.296-1.514 4.918.677 2.773-1.062.26-.678-2.774-3.611-3.665Zm10.223 5.102c-.496.122-.958.114-1.384-.024a2.368 2.368 0 0 1-1.095-.744c-.305-.36-.524-.813-.658-1.361-.134-.549-.149-1.055-.045-1.517.104-.461.313-.851.628-1.169.314-.318.72-.538 1.217-.659.497-.122.958-.114 1.384.023.426.138.791.387 1.097.749.305.361.525.817.659 1.367.134.547.148 1.05.043 1.51a2.363 2.363 0 0 1-.629 1.166c-.314.318-.72.538-1.217.659Zm-.208-.867c.322-.078.568-.228.738-.45a1.54 1.54 0 0 0 .303-.795c.035-.308.01-.632-.073-.972a2.758 2.758 0 0 0-.383-.894 1.564 1.564 0 0 0-.636-.572c-.254-.12-.542-.142-.864-.063-.324.079-.572.231-.744.456a1.594 1.594 0 0 0-.305.802c-.032.308-.007.63.076.968.083.341.21.64.38.898.173.258.386.446.639.564.255.118.545.138.869.058Zm6.623-3.142-.757-3.101 1.034-.253 1.295 5.299-1.014.247-.224-.917-.056.013c-.052.313-.19.596-.413.851-.222.251-.531.426-.929.523-.34.083-.66.082-.959-.004a1.618 1.618 0 0 1-.778-.522c-.22-.261-.383-.61-.49-1.047l-.823-3.37 1.031-.252.794 3.246c.088.361.258.624.51.789.253.165.539.208.858.13.194-.047.374-.142.541-.285.17-.144.294-.329.373-.556.081-.226.083-.49.007-.791Zm2.958 1.606-1.295-5.299.997-.243.206.841.055-.013c.027-.309.142-.575.346-.797.206-.226.464-.377.774-.453a4.557 4.557 0 0 1 .444-.083l.242.987a2.014 2.014 0 0 0-.231.016c-.109.01-.217.027-.323.053-.244.06-.448.165-.614.315a1.184 1.184 0 0 0-.36 1.188l.79 3.236-1.031.252Zm11.085-7.76-1.076.263a1.69 1.69 0 0 0-.903-.895 1.842 1.842 0 0 0-.615-.142 2.21 2.21 0 0 0-.661.063 2.054 2.054 0 0 0-1.019.574c-.27.283-.449.645-.539 1.086-.087.44-.061.946.078 1.516.141.575.351 1.038.632 1.389.283.35.61.587.981.71a2.05 2.05 0 0 0 1.161.038c.223-.054.427-.136.613-.244.187-.112.348-.247.482-.407a1.697 1.697 0 0 0 .398-1.198l1.077-.259a2.96 2.96 0 0 1-.1 1.041 2.743 2.743 0 0 1-.448.906 2.918 2.918 0 0 1-.757.7 3.32 3.32 0 0 1-1.034.436c-.612.149-1.192.138-1.741-.035a3.143 3.143 0 0 1-1.438-.976c-.406-.476-.701-1.09-.885-1.842-.184-.754-.204-1.435-.06-2.043.143-.61.418-1.119.826-1.526a3.164 3.164 0 0 1 1.525-.836 3.373 3.373 0 0 1 1.088-.094c.352.026.684.11.994.254.31.141.586.339.829.594.242.253.439.562.592.927Zm5.177 1.458-.758-3.101 1.035-.253 1.295 5.299-1.014.248-.225-.918-.055.014c-.053.312-.19.596-.413.85-.222.252-.531.426-.929.523-.34.083-.66.082-.959-.003a1.628 1.628 0 0 1-.778-.523c-.22-.261-.383-.61-.49-1.047l-.823-3.37 1.031-.252.793 3.246c.089.361.259.624.511.789.253.165.539.209.858.131.193-.047.374-.143.541-.286.17-.144.294-.329.372-.555.081-.227.084-.491.008-.792Zm2.958 1.606-1.295-5.298.997-.244.206.842.055-.014a1.32 1.32 0 0 1 .346-.797c.206-.226.464-.377.774-.452a4.557 4.557 0 0 1 .444-.083l.241.986a2.014 2.014 0 0 0-.23.016 2.2 2.2 0 0 0-.323.054 1.381 1.381 0 0 0-.614.314 1.184 1.184 0 0 0-.36 1.189l.79 3.235-1.031.252Zm3.728-.911-1.295-5.298.997-.244.206.842.055-.014c.027-.308.143-.574.346-.797.206-.226.464-.376.775-.452a4.272 4.272 0 0 1 .444-.083l.241.986a1.987 1.987 0 0 0-.23.016 2.19 2.19 0 0 0-.324.054 1.386 1.386 0 0 0-.614.314 1.194 1.194 0 0 0-.36 1.189l.79 3.235-1.031.252Zm5.848-1.315c-.522.128-.999.126-1.43-.005a2.337 2.337 0 0 1-1.101-.736c-.303-.36-.521-.815-.655-1.365-.133-.542-.149-1.046-.047-1.509.103-.464.309-.857.618-1.178.312-.323.713-.544 1.205-.664.299-.073.601-.094.906-.064.305.03.594.124.869.281.275.157.518.389.729.696.211.304.375.696.493 1.177l.089.366-4.212 1.029-.189-.773 3.202-.782a1.589 1.589 0 0 0-.342-.681 1.292 1.292 0 0 0-.588-.386 1.339 1.339 0 0 0-.742-.013 1.384 1.384 0 0 0-.706.4c-.18.192-.301.417-.362.673-.06.254-.058.512.007.777l.147.604c.087.354.223.64.407.858.188.217.41.364.667.44.257.074.536.074.837 0 .196-.047.367-.119.515-.213.147-.097.265-.216.355-.357a1.15 1.15 0 0 0 .167-.483l1.019-.063a1.81 1.81 0 0 1-.236.858 2.105 2.105 0 0 1-.633.685 2.902 2.902 0 0 1-.989.428Zm3.655-4.34.768 3.146-1.031.252-1.295-5.299.99-.242.211.863.066-.016c.053-.31.189-.583.407-.816.221-.234.53-.4.928-.497.361-.089.696-.09 1.004-.004.308.083.573.254.795.515.222.26.386.608.493 1.045l.823 3.371-1.031.252-.793-3.247c-.094-.384-.267-.659-.52-.827-.254-.169-.555-.211-.905-.126a1.335 1.335 0 0 0-.6.311 1.148 1.148 0 0 0-.327.563c-.057.223-.052.475.017.756Zm6.722-3.923.202.828-2.894.707-.203-.828 2.895-.707Zm-2.429-.752 1.032-.252 1.224 5.012c.049.2.116.343.201.43a.48.48 0 0 0 .28.147.943.943 0 0 0 .327-.025c.083-.02.154-.044.213-.07l.138-.063.395.806a2.115 2.115 0 0 1-.643.274c-.27.071-.535.085-.794.041a1.346 1.346 0 0 1-.684-.33c-.196-.177-.334-.424-.412-.744l-1.277-5.226Zm7.518 5.123-1.726-7.065 2.518-.615c.55-.134 1.029-.145 1.439-.034.41.112.747.32 1.012.623.263.302.448.668.554 1.101.106.434.11.847.014 1.239-.095.389-.3.729-.614 1.02-.312.288-.742.499-1.289.633l-1.732.423-.221-.904 1.635-.399c.348-.085.615-.214.802-.386.186-.175.304-.379.354-.613a1.67 1.67 0 0 0-.022-.751 1.64 1.64 0 0 0-.326-.674 1.119 1.119 0 0 0-.598-.369c-.245-.065-.544-.053-.898.033l-1.339.327 1.503 6.151-1.066.26Zm8.374-1.932c-.522.127-.999.125-1.43-.005a2.346 2.346 0 0 1-1.102-.737c-.302-.36-.52-.814-.655-1.364-.132-.543-.148-1.046-.047-1.509.104-.464.31-.857.619-1.179.311-.322.713-.543 1.205-.663a2.66 2.66 0 0 1 .906-.064c.304.03.594.124.869.281.275.157.518.389.729.695.211.305.375.697.493 1.178l.089.365-4.212 1.029-.189-.772 3.201-.782a1.565 1.565 0 0 0-.341-.681 1.284 1.284 0 0 0-.588-.386 1.339 1.339 0 0 0-.742-.013c-.29.071-.525.204-.706.399a1.47 1.47 0 0 0-.362.674c-.06.253-.058.512.007.777l.147.603c.087.354.222.641.407.859.187.217.41.364.667.44.257.074.536.074.837 0a1.71 1.71 0 0 0 .515-.213 1.14 1.14 0 0 0 .522-.841l1.019-.062a1.828 1.828 0 0 1-.236.858 2.105 2.105 0 0 1-.633.685 2.921 2.921 0 0 1-.989.428Zm4.571-6.845.202.828-2.894.707-.203-.828 2.895-.707Zm-2.429-.752 1.032-.252 1.224 5.012c.049.2.116.343.201.43a.483.483 0 0 0 .28.147.943.943 0 0 0 .327-.025c.083-.02.154-.044.213-.07l.138-.063.395.806a2.048 2.048 0 0 1-.643.274c-.27.071-.535.085-.794.041a1.346 1.346 0 0 1-.684-.33c-.196-.176-.334-.424-.412-.744l-1.277-5.226Zm7.518 5.123-1.726-7.065 2.518-.615c.55-.134 1.029-.145 1.439-.034.41.112.747.32 1.012.623.263.302.448.668.554 1.101.106.434.111.848.014 1.239-.095.389-.3.729-.614 1.02-.312.288-.742.499-1.289.633l-1.732.423-.221-.904 1.635-.399c.348-.085.615-.214.802-.386.186-.175.304-.379.354-.613a1.656 1.656 0 0 0-.022-.751 1.646 1.646 0 0 0-.326-.674 1.119 1.119 0 0 0-.598-.369c-.245-.064-.544-.053-.898.033l-1.339.327 1.503 6.151-1.066.26Zm8.322-1.92c-.496.122-.958.114-1.384-.023a2.378 2.378 0 0 1-1.095-.745c-.305-.36-.524-.813-.658-1.36-.134-.55-.149-1.056-.045-1.517.104-.462.313-.852.628-1.17.314-.318.72-.538 1.217-.659.497-.122.958-.114 1.384.023.426.138.791.387 1.097.749.305.361.525.817.659 1.367.134.547.148 1.05.043 1.51a2.37 2.37 0 0 1-.628 1.166c-.315.318-.721.538-1.218.659Zm-.208-.866c.322-.079.568-.229.738-.451a1.54 1.54 0 0 0 .303-.794 2.77 2.77 0 0 0-.073-.973 2.758 2.758 0 0 0-.383-.894 1.564 1.564 0 0 0-.636-.572c-.254-.12-.542-.141-.864-.063-.324.079-.572.231-.744.456a1.594 1.594 0 0 0-.305.802c-.032.308-.007.631.076.969.083.34.21.639.38.897.173.258.386.446.639.565.255.117.545.137.869.058Zm3.109-7.442 1.726 7.065-1.031.252-1.726-7.065 1.031-.252Zm3.114 6.726-1.295-5.299 1.032-.252 1.294 5.299-1.031.252Zm-.974-6.244a.675.675 0 0 1-.506-.066.602.602 0 0 1-.296-.389.597.597 0 0 1 .084-.481.665.665 0 0 1 .417-.295.656.656 0 0 1 .504.07.587.587 0 0 1 .299.388.596.596 0 0 1-.087.482.662.662 0 0 1-.415.291Zm5.651 5.214c-.513.126-.983.117-1.41-.025a2.363 2.363 0 0 1-1.085-.762c-.299-.363-.513-.81-.643-1.341-.131-.539-.146-1.038-.044-1.499.101-.464.307-.857.619-1.179.311-.322.716-.544 1.215-.666a2.567 2.567 0 0 1 1.131-.039 2 2 0 0 1 .914.435c.261.219.453.502.577.85l-1.004.245a1.24 1.24 0 0 0-.536-.549c-.239-.131-.524-.157-.852-.077a1.32 1.32 0 0 0-.7.412 1.508 1.508 0 0 0-.344.764 2.53 2.53 0 0 0 .06 1.024c.095.386.235.705.421.957.185.252.404.429.656.531.253.101.526.116.819.045.195-.048.363-.127.505-.237.143-.113.252-.25.327-.412a1.22 1.22 0 0 0 .111-.547l1.004-.245a2 2 0 0 1-.111.999c-.12.315-.318.587-.593.818-.273.23-.619.396-1.037.498Zm4.391.92a2.304 2.304 0 0 1-.43.065 1.388 1.388 0 0 1-.302-.007l.042-.906a1.73 1.73 0 0 0 .52-.058.615.615 0 0 0 .349-.26c.09-.132.15-.326.18-.582l.042-.383-3.25-4.894 1.103-.269 2.347 3.784.055-.014.337-4.44 1.108-.27-.717 6.539a2.44 2.44 0 0 1-.215.795c-.109.231-.26.422-.452.571-.193.15-.432.259-.717.329Z" fill="#04298C"/></g><rect y="207.627" width="447" height="169" rx="8" fill="#1C49C2"/><path d="M21.66 255.127v-14h8.62v2.12h-6.3v3.72h5.56v2.08h-5.56v3.96h6.36v2.12h-8.68Zm15.017.24c-.667 0-1.28-.1-1.84-.3-.56-.2-1.04-.48-1.44-.84a3.865 3.865 0 0 1-.92-1.3l1.94-.86c.2.373.493.686.88.94.4.253.84.38 1.32.38.52 0 .933-.087 1.24-.26.32-.187.48-.44.48-.76 0-.307-.12-.54-.36-.7-.24-.174-.58-.314-1.02-.42l-.94-.26c-.947-.24-1.687-.62-2.22-1.14-.533-.534-.8-1.14-.8-1.82 0-1 .32-1.774.96-2.32.653-.547 1.587-.82 2.8-.82a4.82 4.82 0 0 1 1.68.28c.52.173.967.426 1.34.76.373.32.633.7.78 1.14l-1.86.84c-.134-.334-.387-.587-.76-.76a2.73 2.73 0 0 0-1.24-.28c-.454 0-.807.1-1.06.3-.254.186-.38.453-.38.8 0 .2.113.386.34.56.227.16.553.293.98.4l1.18.28c.653.16 1.187.413 1.6.76.413.333.72.713.92 1.14.2.413.3.833.3 1.26 0 .6-.173 1.126-.52 1.58-.334.453-.794.806-1.38 1.06-.587.24-1.254.36-2 .36Zm9.656 0c-1.053 0-1.86-.26-2.42-.78-.546-.534-.82-1.294-.82-2.28v-10.3h2.22v9.88c0 .466.107.82.32 1.06.227.24.554.36.98.36.134 0 .28-.027.44-.08.16-.054.34-.154.54-.3l.82 1.7c-.346.24-.693.42-1.04.54-.346.133-.693.2-1.04.2Zm-4.9-8.32v-1.92h6.58v1.92h-6.58Zm8.912 8.08v-10h2.22v10h-2.22Zm1.12-11.9a1.32 1.32 0 0 1-.94-.38 1.321 1.321 0 0 1-.38-.94c0-.36.127-.667.38-.92.267-.254.58-.38.94-.38s.666.126.92.38c.267.253.4.56.4.92s-.133.673-.4.94c-.253.253-.56.38-.92.38Zm3.74 11.9v-10h2.1l.1 1.34c.306-.52.7-.914 1.18-1.18.48-.267 1.026-.4 1.64-.4.8 0 1.48.18 2.04.54.56.36.966.906 1.22 1.64.293-.707.707-1.247 1.24-1.62.533-.374 1.16-.56 1.88-.56 1.16 0 2.053.373 2.68 1.12.627.733.933 1.866.92 3.4v5.72h-2.22v-5.12c0-.8-.087-1.414-.26-1.84-.173-.44-.407-.747-.7-.92a1.96 1.96 0 0 0-1.02-.26c-.694-.014-1.233.233-1.62.74-.374.506-.56 1.233-.56 2.18v5.22h-2.24v-5.12c0-.8-.087-1.414-.26-1.84-.16-.44-.387-.747-.68-.92a1.96 1.96 0 0 0-1.02-.26c-.694-.014-1.233.233-1.62.74-.373.506-.56 1.233-.56 2.18v5.22h-2.24Zm23.385 0-.1-1.88v-3.26c0-.68-.073-1.247-.22-1.7-.133-.467-.36-.82-.68-1.06-.307-.254-.72-.38-1.24-.38-.48 0-.9.1-1.26.3-.36.2-.667.513-.92.94l-1.96-.72c.213-.44.493-.847.84-1.22a3.86 3.86 0 0 1 1.34-.92c.547-.227 1.2-.34 1.96-.34.973 0 1.787.193 2.44.58a3.346 3.346 0 0 1 1.44 1.62c.32.706.48 1.56.48 2.56l-.06 5.48h-2.06Zm-2.88.24c-1.2 0-2.133-.267-2.8-.8-.653-.534-.98-1.287-.98-2.26 0-1.04.347-1.834 1.04-2.38.707-.547 1.687-.82 2.94-.82h2.68v1.72h-1.96c-.893 0-1.52.126-1.88.38-.36.24-.54.586-.54 1.04 0 .386.153.693.46.92.32.213.76.32 1.32.32.507 0 .947-.114 1.32-.34.373-.227.66-.527.86-.9a2.5 2.5 0 0 0 .32-1.26h.66c0 1.36-.273 2.433-.82 3.22-.547.773-1.42 1.16-2.62 1.16Zm11.248 0c-1.053 0-1.86-.26-2.42-.78-.546-.534-.82-1.294-.82-2.28v-10.3h2.22v9.88c0 .466.107.82.32 1.06.227.24.554.36.98.36.134 0 .28-.027.44-.08.16-.054.34-.154.54-.3l.82 1.7c-.346.24-.693.42-1.04.54-.346.133-.693.2-1.04.2Zm-4.9-8.32v-1.92h6.58v1.92h-6.58Zm13.095 8.32c-.973 0-1.84-.22-2.6-.66a4.982 4.982 0 0 1-1.78-1.86c-.426-.787-.64-1.694-.64-2.72 0-1.027.22-1.934.66-2.72.44-.787 1.04-1.4 1.8-1.84.773-.454 1.653-.68 2.64-.68.893 0 1.7.233 2.42.7.72.453 1.287 1.113 1.7 1.98.427.866.64 1.9.64 3.1h-7.86l.3-.28c0 .613.133 1.146.4 1.6.267.44.62.78 1.06 1.02a3 3 0 0 0 1.46.36c.614 0 1.12-.134 1.52-.4.4-.28.713-.64.94-1.08l1.98.84c-.28.533-.64 1-1.08 1.4-.426.4-.94.706-1.54.92-.587.213-1.26.32-2.02.32Zm-2.58-6.14-.32-.28h5.64l-.3.28c0-.547-.12-.994-.36-1.34a2.21 2.21 0 0 0-.92-.8c-.36-.187-.74-.28-1.14-.28-.4 0-.8.093-1.2.28-.4.173-.733.44-1 .8-.266.346-.4.793-.4 1.34Zm16.356 5.9-.1-1.86v-12.14h2.22v14h-2.12Zm-3.26.24c-.907 0-1.7-.214-2.38-.64-.667-.44-1.194-1.054-1.58-1.84-.374-.787-.56-1.707-.56-2.76 0-1.067.186-1.987.56-2.76.386-.787.913-1.394 1.58-1.82.68-.44 1.473-.66 2.38-.66.84 0 1.56.22 2.16.66.613.426 1.08 1.033 1.4 1.82.32.773.48 1.693.48 2.76 0 1.053-.16 1.973-.48 2.76-.32.786-.787 1.4-1.4 1.84-.6.426-1.32.64-2.16.64Zm.56-2.04a2.31 2.31 0 0 0 1.34-.4c.4-.28.706-.66.92-1.14.226-.48.34-1.034.34-1.66 0-.627-.114-1.18-.34-1.66a2.556 2.556 0 0 0-.92-1.12c-.387-.267-.84-.4-1.36-.4-.534 0-1.007.133-1.42.4-.414.266-.74.64-.98 1.12-.227.48-.347 1.033-.36 1.66.013.626.133 1.18.36 1.66.24.48.566.86.98 1.14.426.266.906.4 1.44.4Zm22.24 1.8-5.46-14h2.32l5.6 14h-2.46Zm-11.18 0 5.58-14h2.34l-5.46 14h-2.46Zm2.62-3.44v-2.06h8.38v2.06h-8.38Zm12.425 3.44v-10h2.1l.14 1.84v8.16h-2.24Zm6.78 0v-5.12h2.24v5.12h-2.24Zm0-5.12c0-.8-.094-1.414-.28-1.84-.174-.44-.427-.747-.76-.92-.32-.174-.7-.26-1.14-.26-.747-.014-1.327.233-1.74.74-.414.506-.62 1.233-.62 2.18h-.84c0-1.054.153-1.954.46-2.7.306-.76.746-1.334 1.32-1.72.573-.4 1.253-.6 2.04-.6.8 0 1.48.16 2.04.48.573.32 1.006.82 1.3 1.5.306.666.46 1.54.46 2.62v.52h-2.24Zm4.509 5.12v-10h2.1l.14 1.84v8.16h-2.24Zm6.78 0v-5.12h2.24v5.12h-2.24Zm0-5.12c0-.8-.094-1.414-.28-1.84-.174-.44-.427-.747-.76-.92-.32-.174-.7-.26-1.14-.26-.747-.014-1.327.233-1.74.74-.414.506-.62 1.233-.62 2.18h-.84c0-1.054.153-1.954.46-2.7.306-.76.746-1.334 1.32-1.72.573-.4 1.253-.6 2.04-.6.8 0 1.48.16 2.04.48.573.32 1.006.82 1.3 1.5.306.666.46 1.54.46 2.62v.52h-2.24Zm11.209 5.12-.12-1.84v-8.16h2.22v10h-2.1Zm-6.92-4.88v-5.12h2.24v5.12h-2.24Zm2.24 0c0 .786.093 1.4.28 1.84.187.44.44.746.76.92.333.173.713.26 1.14.26.76.013 1.347-.234 1.76-.74.413-.507.62-1.234.62-2.18h.84c0 1.053-.16 1.96-.48 2.72-.307.746-.747 1.32-1.32 1.72-.56.386-1.24.58-2.04.58-.787 0-1.467-.16-2.04-.48-.56-.32-.993-.82-1.3-1.5-.307-.68-.46-1.554-.46-2.62v-.52h2.24Zm15.369 4.88-.1-1.88v-3.26c0-.68-.073-1.247-.22-1.7-.133-.467-.36-.82-.68-1.06-.307-.254-.72-.38-1.24-.38-.48 0-.9.1-1.26.3-.36.2-.667.513-.92.94l-1.96-.72c.213-.44.493-.847.84-1.22a3.86 3.86 0 0 1 1.34-.92c.547-.227 1.2-.34 1.96-.34.973 0 1.787.193 2.44.58a3.349 3.349 0 0 1 1.44 1.62c.32.706.48 1.56.48 2.56l-.06 5.48h-2.06Zm-2.88.24c-1.2 0-2.133-.267-2.8-.8-.653-.534-.98-1.287-.98-2.26 0-1.04.347-1.834 1.04-2.38.707-.547 1.687-.82 2.94-.82h2.68v1.72h-1.96c-.893 0-1.52.126-1.88.38-.36.24-.54.586-.54 1.04 0 .386.153.693.46.92.32.213.76.32 1.32.32.507 0 .947-.114 1.32-.34.373-.227.66-.527.86-.9a2.5 2.5 0 0 0 .32-1.26h.66c0 1.36-.273 2.433-.82 3.22-.547.773-1.42 1.16-2.62 1.16Zm7.268-.24v-14h2.24v14h-2.24Zm9.971 0v-14h4.94c.96 0 1.807.193 2.54.58a4.278 4.278 0 0 1 1.72 1.62c.413.68.62 1.473.62 2.38 0 .88-.193 1.666-.58 2.36a4.261 4.261 0 0 1-1.62 1.64c-.68.386-1.473.58-2.38.58h-2.92v4.84h-2.32Zm2.32-6.98h2.88c.667 0 1.213-.227 1.64-.68.427-.454.64-1.04.64-1.76 0-.734-.24-1.327-.72-1.78-.48-.454-1.1-.68-1.86-.68h-2.58v4.9Zm13.4 7.22c-.974 0-1.84-.22-2.6-.66a4.98 4.98 0 0 1-1.78-1.86c-.427-.787-.64-1.694-.64-2.72 0-1.027.22-1.934.66-2.72.44-.787 1.04-1.4 1.8-1.84.773-.454 1.653-.68 2.64-.68.893 0 1.7.233 2.42.7.72.453 1.286 1.113 1.7 1.98.426.866.64 1.9.64 3.1h-7.86l.3-.28c0 .613.133 1.146.4 1.6.266.44.62.78 1.06 1.02.44.24.926.36 1.46.36.613 0 1.12-.134 1.52-.4.4-.28.713-.64.94-1.08l1.98.84c-.28.533-.64 1-1.08 1.4-.427.4-.94.706-1.54.92-.587.213-1.26.32-2.02.32Zm-2.58-6.14-.32-.28h5.64l-.3.28c0-.547-.12-.994-.36-1.34a2.212 2.212 0 0 0-.92-.8c-.36-.187-.74-.28-1.14-.28-.4 0-.8.093-1.2.28-.4.173-.734.44-1 .8-.267.346-.4.793-.4 1.34Zm13.115 6.14c-1.053 0-1.86-.26-2.42-.78-.546-.534-.82-1.294-.82-2.28v-10.3h2.22v9.88c0 .466.107.82.32 1.06.227.24.554.36.98.36.134 0 .28-.027.44-.08.16-.054.34-.154.54-.3l.82 1.7c-.346.24-.693.42-1.04.54-.346.133-.693.2-1.04.2Zm-4.9-8.32v-1.92h6.58v1.92h-6.58Zm14.016 8.08v-14h4.94c.96 0 1.807.186 2.54.56a4.234 4.234 0 0 1 1.72 1.56c.413.653.62 1.413.62 2.28 0 .866-.22 1.633-.66 2.3-.427.666-1.02 1.193-1.78 1.58-.76.373-1.62.56-2.58.56h-2.48v5.16h-2.32Zm7.76 0-3.28-5.68 1.8-1.24 4.1 6.92h-2.62Zm-5.44-7.3h2.72c.453 0 .853-.1 1.2-.3.36-.2.647-.474.86-.82.227-.347.34-.74.34-1.18 0-.667-.24-1.214-.72-1.64-.48-.427-1.1-.64-1.86-.64h-2.54v4.58Zm14.454 7.54c-.973 0-1.84-.22-2.6-.66a4.987 4.987 0 0 1-1.78-1.86c-.426-.787-.64-1.694-.64-2.72 0-1.027.22-1.934.66-2.72.44-.787 1.04-1.4 1.8-1.84.774-.454 1.654-.68 2.64-.68.894 0 1.7.233 2.42.7.72.453 1.287 1.113 1.7 1.98.427.866.64 1.9.64 3.1h-7.86l.3-.28c0 .613.134 1.146.4 1.6.267.44.62.78 1.06 1.02a3 3 0 0 0 1.46.36c.614 0 1.12-.134 1.52-.4.4-.28.714-.64.94-1.08l1.98.84c-.28.533-.64 1-1.08 1.4-.426.4-.94.706-1.54.92-.586.213-1.26.32-2.02.32Zm-2.58-6.14-.32-.28h5.64l-.3.28c0-.547-.12-.994-.36-1.34a2.206 2.206 0 0 0-.92-.8c-.36-.187-.74-.28-1.14-.28-.4 0-.8.093-1.2.28-.4.173-.733.44-1 .8-.266.346-.4.793-.4 1.34Zm11.985 5.9 3.9-10h2.32l-4.12 10h-2.1Zm-.16 0-4.14-10h2.3l3.92 10h-2.08Zm11.966.24c-.973 0-1.84-.22-2.6-.66a4.987 4.987 0 0 1-1.78-1.86c-.426-.787-.64-1.694-.64-2.72 0-1.027.22-1.934.66-2.72.44-.787 1.04-1.4 1.8-1.84.774-.454 1.654-.68 2.64-.68.894 0 1.7.233 2.42.7.72.453 1.287 1.113 1.7 1.98.427.866.64 1.9.64 3.1h-7.86l.3-.28c0 .613.134 1.146.4 1.6.267.44.62.78 1.06 1.02a3 3 0 0 0 1.46.36c.614 0 1.12-.134 1.52-.4.4-.28.714-.64.94-1.08l1.98.84c-.28.533-.64 1-1.08 1.4-.426.4-.94.706-1.54.92-.586.213-1.26.32-2.02.32Zm-2.58-6.14-.32-.28h5.64l-.3.28c0-.547-.12-.994-.36-1.34a2.206 2.206 0 0 0-.92-.8c-.36-.187-.74-.28-1.14-.28-.4 0-.8.093-1.2.28-.4.173-.733.44-1 .8-.266.346-.4.793-.4 1.34Zm9.136 5.9v-10h2.1l.14 1.84v8.16h-2.24Zm6.78 0v-5.12h2.24v5.12h-2.24Zm0-5.12c0-.8-.093-1.414-.28-1.84-.173-.44-.427-.747-.76-.92-.32-.174-.7-.26-1.14-.26-.747-.014-1.327.233-1.74.74-.413.506-.62 1.233-.62 2.18h-.84c0-1.054.153-1.954.46-2.7.307-.76.747-1.334 1.32-1.72.573-.4 1.253-.6 2.04-.6.8 0 1.48.16 2.04.48.573.32 1.007.82 1.3 1.5.307.666.46 1.54.46 2.62v.52h-2.24Zm11.209 5.12-.12-1.84v-8.16h2.22v10h-2.1Zm-6.92-4.88v-5.12h2.24v5.12h-2.24Zm2.24 0c0 .786.093 1.4.28 1.84.187.44.44.746.76.92.333.173.713.26 1.14.26.76.013 1.347-.234 1.76-.74.413-.507.62-1.234.62-2.18h.84c0 1.053-.16 1.96-.48 2.72-.307.746-.747 1.32-1.32 1.72-.56.386-1.24.58-2.04.58-.787 0-1.467-.16-2.04-.48-.56-.32-.993-.82-1.3-1.5-.307-.68-.46-1.554-.46-2.62v-.52h2.24Zm13.729 5.12c-.973 0-1.84-.22-2.6-.66a4.98 4.98 0 0 1-1.78-1.86c-.427-.787-.64-1.694-.64-2.72 0-1.027.22-1.934.66-2.72.44-.787 1.04-1.4 1.8-1.84.773-.454 1.653-.68 2.64-.68.893 0 1.7.233 2.42.7.72.453 1.287 1.113 1.7 1.98.427.866.64 1.9.64 3.1h-7.86l.3-.28c0 .613.133 1.146.4 1.6.267.44.62.78 1.06 1.02a3 3 0 0 0 1.46.36c.613 0 1.12-.134 1.52-.4.4-.28.713-.64.94-1.08l1.98.84c-.28.533-.64 1-1.08 1.4-.427.4-.94.706-1.54.92-.587.213-1.26.32-2.02.32Zm-2.58-6.14-.32-.28h5.64l-.3.28c0-.547-.12-.994-.36-1.34a2.212 2.212 0 0 0-.92-.8c-.36-.187-.74-.28-1.14-.28-.4 0-.8.093-1.2.28-.4.173-.733.44-1 .8-.267.346-.4.793-.4 1.34ZM30.224 304.263c-1.536 0-2.928-.24-4.176-.72-1.248-.48-2.28-1.128-3.096-1.944-.792-.816-1.296-1.692-1.512-2.628l4.392-1.296c.264.72.744 1.344 1.44 1.872.72.504 1.62.768 2.7.792 1.128.024 2.04-.216 2.736-.72.72-.504 1.08-1.176 1.08-2.016 0-.672-.288-1.248-.864-1.728-.552-.504-1.32-.876-2.304-1.116l-2.952-.72c-1.104-.312-2.076-.756-2.916-1.332-.84-.576-1.488-1.284-1.944-2.124-.456-.864-.684-1.86-.684-2.988 0-2.136.696-3.804 2.088-5.004 1.416-1.2 3.42-1.8 6.012-1.8 1.44 0 2.7.204 3.78.612 1.104.408 2.028 1.008 2.772 1.8.744.768 1.308 1.692 1.692 2.772l-4.392 1.332c-.24-.696-.708-1.296-1.404-1.8-.672-.528-1.536-.792-2.592-.792-1.032 0-1.848.252-2.448.756-.6.48-.9 1.152-.9 2.016 0 .696.228 1.26.684 1.692.48.408 1.128.708 1.944.9l2.988.756c1.944.48 3.444 1.344 4.5 2.592 1.08 1.224 1.62 2.592 1.62 4.104 0 1.368-.324 2.556-.972 3.564-.648 1.008-1.584 1.788-2.808 2.34-1.224.552-2.712.828-4.464.828Zm-1.908 4.572v-6.264h3.96v6.264h-3.96Zm0-25.524v-6.264h3.96v6.264h-3.96Zm21.734 22.248c-1.488 0-2.832-.216-4.032-.648-1.2-.456-2.208-1.092-3.024-1.908a6.93 6.93 0 0 1-1.656-2.952l4.536-1.332c.168.288.396.648.684 1.08.288.408.684.756 1.188 1.044.504.288 1.164.432 1.98.432 1.2 0 2.148-.324 2.844-.972.72-.672 1.08-1.536 1.08-2.592 0-.72-.18-1.356-.54-1.908-.36-.552-.948-.972-1.764-1.26-.792-.312-1.836-.468-3.132-.468h-1.512v-3.348h1.332c1.44 0 2.796.18 4.068.54 1.272.336 2.388.84 3.348 1.512.984.648 1.752 1.44 2.304 2.376.552.912.828 1.956.828 3.132 0 1.512-.396 2.82-1.188 3.924-.792 1.08-1.836 1.908-3.132 2.484-1.296.576-2.7.864-4.212.864Zm-3.348-12.384v-3.132h1.512c1.68 0 2.928-.288 3.744-.864.816-.576 1.224-1.368 1.224-2.376 0-.576-.144-1.092-.432-1.548a2.989 2.989 0 0 0-1.224-1.08c-.528-.264-1.14-.396-1.836-.396-.456 0-.924.084-1.404.252a3.54 3.54 0 0 0-1.332.756c-.384.336-.696.828-.936 1.476l-4.464-1.332c.336-1.176.912-2.16 1.728-2.952a8.118 8.118 0 0 1 2.988-1.836 10.07 10.07 0 0 1 3.564-.648c1.56 0 2.964.3 4.212.9 1.248.576 2.232 1.38 2.952 2.412.72 1.032 1.08 2.22 1.08 3.564 0 1.152-.276 2.148-.828 2.988-.552.84-1.308 1.548-2.268 2.124-.936.576-2.004 1.008-3.204 1.296-1.2.264-2.448.396-3.744.396h-1.332Zm23.784 12.384c-1.153 0-2.34-.192-3.565-.576-1.2-.384-2.292-.96-3.276-1.728a6.899 6.899 0 0 1-2.123-2.844l4.5-1.332c.527.768 1.151 1.332 1.871 1.692.745.36 1.513.54 2.305.54 1.248 0 2.256-.372 3.024-1.116.791-.768 1.188-1.788 1.188-3.06 0-1.176-.385-2.16-1.153-2.952-.744-.792-1.74-1.188-2.988-1.188-.744 0-1.428.168-2.052.504-.623.336-1.103.732-1.44 1.188l-4.428-.972 1.513-13.788h14.256v4.464H68.074l-.72 6.048a9.667 9.667 0 0 1 2.16-.864 8.035 8.035 0 0 1 2.556-.324c1.368 0 2.616.336 3.744 1.008a7.024 7.024 0 0 1 2.664 2.7c.672 1.128 1.008 2.448 1.008 3.96 0 1.704-.385 3.204-1.153 4.5a8.26 8.26 0 0 1-3.168 3.06c-1.344.72-2.904 1.08-4.68 1.08Zm22.033 0c-2.04 0-3.84-.552-5.4-1.656-1.56-1.128-2.784-2.664-3.671-4.608-.888-1.968-1.332-4.224-1.332-6.768 0-2.544.444-4.788 1.332-6.732.888-1.968 2.1-3.504 3.636-4.608 1.56-1.128 3.36-1.692 5.4-1.692 2.04 0 3.84.564 5.4 1.692 1.584 1.104 2.819 2.64 3.707 4.608.888 1.944 1.332 4.188 1.332 6.732 0 2.544-.444 4.8-1.332 6.768-.888 1.944-2.111 3.48-3.671 4.608-1.56 1.104-3.36 1.656-5.4 1.656Zm0-4.464c1.08 0 2.04-.36 2.88-1.08.864-.744 1.537-1.752 2.016-3.024.48-1.296.72-2.784.72-4.464 0-1.68-.24-3.168-.72-4.464-.48-1.296-1.152-2.304-2.016-3.024-.84-.744-1.811-1.116-2.915-1.116-1.08 0-2.04.372-2.88 1.116-.84.72-1.5 1.728-1.98 3.024-.456 1.296-.684 2.784-.684 4.464 0 1.68.228 3.168.684 4.464.48 1.272 1.14 2.28 1.98 3.024.864.72 1.835 1.08 2.915 1.08Zm12.724 8.136 2.196-8.496h4.932l-3.528 8.496h-3.6Zm19.866-3.672c-2.04 0-3.84-.552-5.4-1.656-1.56-1.128-2.784-2.664-3.672-4.608-.888-1.968-1.332-4.224-1.332-6.768 0-2.544.444-4.788 1.332-6.732.888-1.968 2.1-3.504 3.636-4.608 1.56-1.128 3.36-1.692 5.4-1.692 2.04 0 3.84.564 5.4 1.692 1.584 1.104 2.82 2.64 3.708 4.608.888 1.944 1.332 4.188 1.332 6.732 0 2.544-.444 4.8-1.332 6.768-.888 1.944-2.112 3.48-3.672 4.608-1.56 1.104-3.36 1.656-5.4 1.656Zm0-4.464c1.08 0 2.04-.36 2.88-1.08.864-.744 1.536-1.752 2.016-3.024.48-1.296.72-2.784.72-4.464 0-1.68-.24-3.168-.72-4.464-.48-1.296-1.152-2.304-2.016-3.024-.84-.744-1.812-1.116-2.916-1.116-1.08 0-2.04.372-2.88 1.116-.84.72-1.5 1.728-1.98 3.024-.456 1.296-.684 2.784-.684 4.464 0 1.68.228 3.168.684 4.464.48 1.272 1.14 2.28 1.98 3.024.864.72 1.836 1.08 2.916 1.08Zm23.344 4.464c-2.04 0-3.84-.552-5.4-1.656-1.56-1.128-2.784-2.664-3.672-4.608-.888-1.968-1.332-4.224-1.332-6.768 0-2.544.444-4.788 1.332-6.732.888-1.968 2.1-3.504 3.636-4.608 1.56-1.128 3.36-1.692 5.4-1.692 2.04 0 3.84.564 5.4 1.692 1.584 1.104 2.82 2.64 3.708 4.608.888 1.944 1.332 4.188 1.332 6.732 0 2.544-.444 4.8-1.332 6.768-.888 1.944-2.112 3.48-3.672 4.608-1.56 1.104-3.36 1.656-5.4 1.656Zm0-4.464c1.08 0 2.04-.36 2.88-1.08.864-.744 1.536-1.752 2.016-3.024.48-1.296.72-2.784.72-4.464 0-1.68-.24-3.168-.72-4.464-.48-1.296-1.152-2.304-2.016-3.024-.84-.744-1.812-1.116-2.916-1.116-1.08 0-2.04.372-2.88 1.116-.84.72-1.5 1.728-1.98 3.024-.456 1.296-.684 2.784-.684 4.464 0 1.68.228 3.168.684 4.464.48 1.272 1.14 2.28 1.98 3.024.864.72 1.836 1.08 2.916 1.08Z" fill="#fff"/><rect x="173" y="277.627" width="86" height="29" rx="4" fill="#04298C"/><path d="M189.044 297.243a5.141 5.141 0 0 1-1.856-.32c-.555-.214-1.013-.502-1.376-.864-.352-.363-.576-.752-.672-1.168l1.952-.576c.117.32.331.597.64.832.32.224.72.341 1.2.352.501.01.907-.096 1.216-.32.32-.224.48-.523.48-.896 0-.299-.128-.555-.384-.768-.245-.224-.587-.39-1.024-.496l-1.312-.32a4.378 4.378 0 0 1-1.296-.592 2.708 2.708 0 0 1-.864-.944c-.203-.384-.304-.827-.304-1.328 0-.95.309-1.691.928-2.224.629-.534 1.52-.8 2.672-.8.64 0 1.2.09 1.68.272.491.181.901.448 1.232.8.331.341.581.752.752 1.232l-1.952.592c-.107-.31-.315-.576-.624-.8-.299-.235-.683-.352-1.152-.352-.459 0-.821.112-1.088.336-.267.213-.4.512-.4.896 0 .309.101.56.304.752.213.181.501.314.864.4l1.328.336c.864.213 1.531.597 2 1.152.48.544.72 1.152.72 1.824 0 .608-.144 1.136-.432 1.584-.288.448-.704.794-1.248 1.04-.544.245-1.205.368-1.984.368Zm-.848 2.032v-2.784h1.76v2.784h-1.76Zm0-11.344v-2.784h1.76v2.784h-1.76Zm9.659 9.888a5.267 5.267 0 0 1-1.792-.288 3.778 3.778 0 0 1-1.344-.848 3.09 3.09 0 0 1-.736-1.312l2.016-.592c.075.128.176.288.304.48.128.181.304.336.528.464.224.128.518.192.88.192.534 0 .955-.144 1.264-.432.32-.299.48-.683.48-1.152 0-.32-.08-.603-.24-.848-.16-.246-.421-.432-.784-.56-.352-.139-.816-.208-1.392-.208h-.672v-1.488h.592c.64 0 1.243.08 1.808.24a4.605 4.605 0 0 1 1.488.672c.438.288.779.64 1.024 1.056.246.405.368.869.368 1.392 0 .672-.176 1.253-.528 1.744-.352.48-.816.848-1.392 1.104-.576.256-1.2.384-1.872.384Zm-1.488-5.504v-1.392h.672c.747 0 1.302-.128 1.664-.384.363-.256.544-.608.544-1.056a1.26 1.26 0 0 0-.192-.688 1.322 1.322 0 0 0-.544-.48 1.79 1.79 0 0 0-.816-.176c-.202 0-.41.037-.624.112-.213.064-.41.176-.592.336-.17.149-.309.368-.416.656l-1.984-.592c.15-.523.406-.96.768-1.312a3.605 3.605 0 0 1 1.328-.816 4.476 4.476 0 0 1 1.584-.288c.694 0 1.318.133 1.872.4.555.256.992.613 1.312 1.072.32.458.48.986.48 1.584 0 .512-.122.954-.368 1.328a3.067 3.067 0 0 1-1.008.944c-.416.256-.89.448-1.424.576a7.742 7.742 0 0 1-1.664.176h-.592Zm10.571 5.504a5.3 5.3 0 0 1-1.584-.256 4.665 4.665 0 0 1-1.456-.768 3.072 3.072 0 0 1-.944-1.264l2-.592c.235.341.512.592.832.752.331.16.672.24 1.024.24.555 0 1.003-.166 1.344-.496.352-.342.528-.795.528-1.36 0-.523-.171-.96-.512-1.312-.331-.352-.773-.528-1.328-.528-.331 0-.635.074-.912.224a1.88 1.88 0 0 0-.64.528l-1.968-.432.672-6.128h6.336v1.984h-4.464l-.32 2.688c.288-.16.608-.288.96-.384a3.554 3.554 0 0 1 1.136-.144c.608 0 1.163.149 1.664.448.501.288.896.688 1.184 1.2.299.501.448 1.088.448 1.76 0 .757-.171 1.424-.512 2a3.674 3.674 0 0 1-1.408 1.36c-.597.32-1.291.48-2.08.48Zm9.793 0c-.907 0-1.707-.246-2.4-.736-.693-.502-1.237-1.184-1.632-2.048-.395-.875-.592-1.878-.592-3.008 0-1.131.197-2.128.592-2.992.395-.875.933-1.558 1.616-2.048.693-.502 1.493-.752 2.4-.752.907 0 1.707.25 2.4.752.704.49 1.253 1.173 1.648 2.048.395.864.592 1.861.592 2.992 0 1.13-.197 2.133-.592 3.008-.395.864-.939 1.546-1.632 2.048-.693.49-1.493.736-2.4.736Zm0-1.984c.48 0 .907-.16 1.28-.48.384-.331.683-.779.896-1.344.213-.576.32-1.238.32-1.984 0-.747-.107-1.408-.32-1.984-.213-.576-.512-1.024-.896-1.344a1.893 1.893 0 0 0-1.296-.496c-.48 0-.907.165-1.28.496-.373.32-.667.768-.88 1.344-.203.576-.304 1.237-.304 1.984 0 .746.101 1.408.304 1.984.213.565.507 1.013.88 1.344.384.32.816.48 1.296.48Zm5.655 3.616.976-3.776h2.192l-1.568 3.776h-1.6Zm8.829-1.632c-.906 0-1.706-.246-2.4-.736-.693-.502-1.237-1.184-1.632-2.048-.394-.875-.592-1.878-.592-3.008 0-1.131.198-2.128.592-2.992.395-.875.934-1.558 1.616-2.048.694-.502 1.494-.752 2.4-.752.907 0 1.707.25 2.4.752.704.49 1.254 1.173 1.648 2.048.395.864.592 1.861.592 2.992 0 1.13-.197 2.133-.592 3.008-.394.864-.938 1.546-1.632 2.048-.693.49-1.493.736-2.4.736Zm0-1.984c.48 0 .907-.16 1.28-.48.384-.331.683-.779.896-1.344.214-.576.32-1.238.32-1.984 0-.747-.106-1.408-.32-1.984-.213-.576-.512-1.024-.896-1.344a1.893 1.893 0 0 0-1.296-.496c-.48 0-.906.165-1.28.496-.373.32-.666.768-.88 1.344-.202.576-.304 1.237-.304 1.984 0 .746.102 1.408.304 1.984.214.565.507 1.013.88 1.344.384.32.816.48 1.296.48Zm10.375 1.984c-.906 0-1.706-.246-2.4-.736-.693-.502-1.237-1.184-1.632-2.048-.394-.875-.592-1.878-.592-3.008 0-1.131.198-2.128.592-2.992.395-.875.934-1.558 1.616-2.048.694-.502 1.494-.752 2.4-.752.907 0 1.707.25 2.4.752.704.49 1.254 1.173 1.648 2.048.395.864.592 1.861.592 2.992 0 1.13-.197 2.133-.592 3.008-.394.864-.938 1.546-1.632 2.048-.693.49-1.493.736-2.4.736Zm0-1.984c.48 0 .907-.16 1.28-.48.384-.331.683-.779.896-1.344.214-.576.32-1.238.32-1.984 0-.747-.106-1.408-.32-1.984-.213-.576-.512-1.024-.896-1.344a1.893 1.893 0 0 0-1.296-.496c-.48 0-.906.165-1.28.496-.373.32-.666.768-.88 1.344-.202.576-.304 1.237-.304 1.984 0 .746.102 1.408.304 1.984.214.565.507 1.013.88 1.344.384.32.816.48 1.296.48Z" fill="#1BD679"/><path d="m23.112 341.127-2.824-10.182h1.616l1.984 7.885h.094l2.064-7.885h1.6l2.063 7.89h.095l1.979-7.89h1.62l-2.828 10.182h-1.547l-2.142-7.627h-.08l-2.143 7.627h-1.55Zm13.06-4.535v4.535h-1.487v-10.182h1.466v3.788h.095c.179-.411.452-.737.82-.979.368-.242.849-.363 1.442-.363.524 0 .981.108 1.372.323.395.215.7.537.915.964.219.425.328.955.328 1.591v4.858h-1.486v-4.679c0-.56-.145-.994-.433-1.302-.288-.312-.69-.468-1.203-.468a1.97 1.97 0 0 0-.945.224 1.614 1.614 0 0 0-.651.656c-.156.285-.234.63-.234 1.034Zm10.226 4.689c-.753 0-1.4-.161-1.944-.483a3.264 3.264 0 0 1-1.253-1.367c-.291-.59-.437-1.281-.437-2.073 0-.782.145-1.471.437-2.068a3.396 3.396 0 0 1 1.233-1.397c.53-.335 1.15-.502 1.86-.502.43 0 .848.071 1.252.214a3.03 3.03 0 0 1 1.09.671c.32.305.574.701.76 1.188.185.484.278 1.072.278 1.765v.527h-6.07v-1.114h4.614c0-.391-.08-.737-.24-1.039a1.806 1.806 0 0 0-.67-.721 1.881 1.881 0 0 0-1.005-.263c-.417 0-.782.103-1.093.308a2.067 2.067 0 0 0-.716.795 2.298 2.298 0 0 0-.249 1.059v.87c0 .511.09.945.269 1.303.182.358.435.631.76.82.325.186.705.279 1.139.279.282 0 .538-.04.77-.12.232-.082.433-.205.602-.367.169-.163.298-.363.388-.602l1.407.253a2.541 2.541 0 0 1-.607 1.089 2.927 2.927 0 0 1-1.089.721c-.434.169-.93.254-1.486.254Zm6.412-4.689v4.535h-1.486v-7.637h1.426v1.243h.095c.175-.404.45-.729.825-.974.378-.246.854-.368 1.427-.368.52 0 .976.109 1.367.328.391.215.694.537.91.964.215.428.323.957.323 1.586v4.858h-1.486v-4.679c0-.553-.145-.986-.433-1.297-.288-.315-.684-.473-1.188-.473-.345 0-.651.075-.92.224a1.61 1.61 0 0 0-.631.656c-.153.285-.229.63-.229 1.034Zm17.253-5.647h1.54v6.697c0 .712-.166 1.343-.501 1.894a3.508 3.508 0 0 1-1.412 1.292c-.607.312-1.318.468-2.133.468-.812 0-1.521-.156-2.128-.468a3.508 3.508 0 0 1-1.412-1.292c-.334-.551-.502-1.182-.502-1.894v-6.697h1.536v6.572c0 .461.101.87.304 1.228.205.358.495.64.87.845.374.203.818.304 1.332.304.517 0 .963-.101 1.337-.304.378-.205.666-.487.865-.845.203-.358.304-.767.304-1.228v-6.572Zm9.377 4.41-1.347.238a1.601 1.601 0 0 0-.268-.492 1.333 1.333 0 0 0-.488-.383c-.205-.099-.462-.149-.77-.149-.421 0-.772.095-1.054.283-.282.186-.423.426-.423.721a.76.76 0 0 0 .284.617c.189.156.493.283.914.383l1.213.278c.703.162 1.227.413 1.571.751.345.338.517.777.517 1.317a2 2 0 0 1-.397 1.223c-.262.355-.628.633-1.099.835-.467.203-1.01.304-1.626.304-.855 0-1.552-.183-2.093-.547-.54-.368-.871-.89-.994-1.566l1.437-.219c.09.375.273.658.552.85.278.189.64.284 1.088.284.488 0 .877-.102 1.169-.304.291-.205.437-.455.437-.75a.78.78 0 0 0-.268-.602c-.176-.162-.446-.285-.81-.368l-1.293-.283c-.713-.163-1.24-.421-1.581-.776-.338-.354-.507-.804-.507-1.347 0-.451.126-.845.377-1.183.252-.338.6-.602 1.045-.791.444-.192.953-.288 1.526-.288.825 0 1.475.179 1.949.537.474.354.787.83.94 1.427Zm1.784 5.772v-7.637h1.486v7.637h-1.486Zm.75-8.815a.943.943 0 0 1-.666-.259.838.838 0 0 1-.273-.626.83.83 0 0 1 .273-.626.934.934 0 0 1 .667-.264c.258 0 .479.088.66.264a.823.823 0 0 1 .28.626.832.832 0 0 1-.28.626.925.925 0 0 1-.66.259Zm4.223 4.28v4.535H84.71v-7.637h1.427v1.243h.094c.176-.404.451-.729.826-.974.378-.246.853-.368 1.427-.368.52 0 .976.109 1.367.328.39.215.694.537.91.964.215.428.323.957.323 1.586v4.858h-1.487v-4.679c0-.553-.144-.986-.432-1.297-.289-.315-.685-.473-1.188-.473-.345 0-.652.075-.92.224a1.61 1.61 0 0 0-.632.656c-.152.285-.228.63-.228 1.034Zm10.082 7.557c-.606 0-1.128-.079-1.566-.238-.434-.159-.789-.37-1.064-.632a2.648 2.648 0 0 1-.616-.86l1.277-.527c.09.146.21.3.358.463.153.165.358.306.617.422.262.116.598.174 1.009.174.564 0 1.03-.137 1.397-.412.368-.272.552-.706.552-1.303v-1.501h-.095a3.39 3.39 0 0 1-.387.541 2.084 2.084 0 0 1-.686.517c-.292.146-.672.219-1.139.219a3.188 3.188 0 0 1-1.63-.422c-.481-.285-.862-.705-1.144-1.258-.279-.557-.418-1.241-.418-2.053 0-.812.138-1.508.413-2.088.278-.581.66-1.025 1.143-1.333a2.978 2.978 0 0 1 1.646-.467c.474 0 .857.079 1.148.238.292.156.52.338.682.547.165.209.293.393.382.552h.11v-1.238h1.456v7.806c0 .656-.152 1.194-.457 1.615a2.69 2.69 0 0 1-1.238.935c-.517.202-1.1.303-1.75.303Zm-.015-4.37c.428 0 .789-.099 1.084-.298.298-.202.524-.491.676-.865.156-.378.234-.83.234-1.357 0-.514-.076-.966-.229-1.358a2.007 2.007 0 0 0-.671-.914c-.295-.222-.66-.333-1.094-.333-.447 0-.82.116-1.118.348-.299.228-.524.54-.677.934a3.72 3.72 0 0 0-.223 1.323c0 .5.076.939.228 1.317.153.378.378.673.677.885.301.212.672.318 1.113.318Zm9.278 1.348v-10.182h3.63c.792 0 1.448.144 1.968.432.521.289.91.683 1.169 1.184.258.497.388 1.057.388 1.68 0 .626-.131 1.19-.393 1.69-.259.497-.65.892-1.174 1.184-.52.288-1.174.432-1.963.432h-2.496v-1.303h2.357c.5 0 .906-.086 1.218-.258.311-.176.54-.414.686-.716.145-.302.218-.645.218-1.029 0-.385-.073-.726-.218-1.024a1.57 1.57 0 0 0-.691-.701c-.312-.169-.723-.254-1.233-.254h-1.929v8.865h-1.537Zm12.032.154c-.753 0-1.401-.161-1.944-.483a3.266 3.266 0 0 1-1.253-1.367c-.292-.59-.438-1.281-.438-2.073 0-.782.146-1.471.438-2.068a3.396 3.396 0 0 1 1.233-1.397c.53-.335 1.15-.502 1.859-.502.431 0 .849.071 1.253.214.404.142.767.366 1.089.671.321.305.575.701.761 1.188.185.484.278 1.072.278 1.765v.527h-6.07v-1.114h4.613c0-.391-.079-.737-.238-1.039a1.803 1.803 0 0 0-.672-.721 1.879 1.879 0 0 0-1.004-.263c-.417 0-.782.103-1.094.308a2.066 2.066 0 0 0-.715.795 2.294 2.294 0 0 0-.249 1.059v.87c0 .511.089.945.268 1.303.183.358.436.631.761.82.325.186.704.279 1.139.279.281 0 .538-.04.77-.12.232-.082.433-.205.602-.367.169-.163.298-.363.388-.602l1.406.253a2.53 2.53 0 0 1-.606 1.089 2.92 2.92 0 0 1-1.089.721c-.434.169-.93.254-1.486.254Zm8.49-7.791v1.193h-4.171v-1.193h4.171Zm-3.053-1.829h1.487v7.223c0 .289.043.506.129.652.086.142.197.24.333.293.139.05.29.075.453.075.119 0 .223-.009.313-.025l.209-.04.268 1.228a2.507 2.507 0 0 1-.368.099 2.848 2.848 0 0 1-.596.06 2.61 2.61 0 0 1-1.094-.209 1.872 1.872 0 0 1-.82-.676c-.209-.305-.314-.688-.314-1.148v-7.532Zm10.37 1.958a1.452 1.452 0 0 0-.656-1.093c-.385-.262-.869-.393-1.452-.393-.418 0-.779.066-1.084.199a1.664 1.664 0 0 0-.711.537 1.263 1.263 0 0 0-.248.77c0 .242.056.451.169.627.116.175.266.323.452.442.189.116.391.214.607.294.215.076.422.139.621.189l.994.258c.325.08.658.187 1 .323.341.136.658.315.949.537.292.222.527.497.706.825.182.329.274.721.274 1.179a2.71 2.71 0 0 1-.448 1.536c-.295.447-.724.8-1.287 1.059-.561.258-1.238.388-2.034.388-.762 0-1.422-.121-1.979-.363-.556-.242-.992-.585-1.307-1.029-.315-.448-.489-.978-.522-1.591h1.541c.03.368.149.674.358.919.212.242.482.423.81.542.332.116.695.174 1.089.174.434 0 .82-.068 1.159-.204.341-.139.609-.331.805-.576.196-.249.293-.539.293-.87 0-.302-.086-.549-.258-.741a1.918 1.918 0 0 0-.691-.477 6.752 6.752 0 0 0-.98-.333l-1.203-.329c-.815-.222-1.461-.548-1.939-.979-.474-.431-.711-1.001-.711-1.71 0-.587.159-1.099.478-1.536a3.133 3.133 0 0 1 1.292-1.02c.544-.245 1.157-.367 1.84-.367.689 0 1.297.121 1.824.362.531.242.948.576 1.253 1 .305.421.464.905.477 1.451h-1.481Zm6.554 7.662c-.739 0-1.376-.168-1.909-.502a3.32 3.32 0 0 1-1.223-1.397c-.285-.594-.428-1.273-.428-2.039 0-.775.146-1.46.437-2.053a3.355 3.355 0 0 1 1.233-1.397c.531-.335 1.156-.502 1.875-.502.58 0 1.097.108 1.551.323.454.212.82.51 1.099.895.281.384.449.833.502 1.347h-1.447a1.74 1.74 0 0 0-.547-.925c-.282-.258-.659-.387-1.133-.387-.415 0-.778.109-1.089.328-.308.215-.549.523-.721.924-.172.398-.259.869-.259 1.412 0 .557.085 1.038.254 1.442.169.405.408.718.716.94.311.222.678.333 1.099.333.281 0 .537-.051.765-.154.232-.106.426-.257.582-.453a1.7 1.7 0 0 0 .333-.706h1.447a2.808 2.808 0 0 1-.483 1.323 2.773 2.773 0 0 1-1.078.915c-.448.222-.973.333-1.576.333Zm4.726-.154v-7.637h1.437v1.213h.08a1.84 1.84 0 0 1 .736-.969 2.1 2.1 0 0 1 1.203-.358 5.986 5.986 0 0 1 .631.035v1.422a2.609 2.609 0 0 0-.318-.055 3.071 3.071 0 0 0-.458-.035 1.94 1.94 0 0 0-.939.224 1.658 1.658 0 0 0-.885 1.496v4.664h-1.487Zm8.391.154c-.752 0-1.4-.161-1.944-.483a3.266 3.266 0 0 1-1.253-1.367c-.291-.59-.437-1.281-.437-2.073 0-.782.146-1.471.437-2.068a3.396 3.396 0 0 1 1.233-1.397c.531-.335 1.151-.502 1.86-.502.431 0 .848.071 1.253.214.404.142.767.366 1.088.671.322.305.575.701.761 1.188.186.484.278 1.072.278 1.765v.527h-6.07v-1.114h4.614c0-.391-.08-.737-.239-1.039a1.808 1.808 0 0 0-.671-.721 1.881 1.881 0 0 0-1.004-.263c-.418 0-.782.103-1.094.308a2.069 2.069 0 0 0-.716.795 2.294 2.294 0 0 0-.249 1.059v.87c0 .511.09.945.269 1.303.182.358.436.631.761.82.324.186.704.279 1.138.279.282 0 .539-.04.771-.12a1.597 1.597 0 0 0 .989-.969l1.407.253a2.542 2.542 0 0 1-.607 1.089 2.924 2.924 0 0 1-1.088.721c-.434.169-.93.254-1.487.254Zm8.217 0c-.752 0-1.4-.161-1.944-.483a3.266 3.266 0 0 1-1.253-1.367c-.291-.59-.437-1.281-.437-2.073 0-.782.146-1.471.437-2.068a3.396 3.396 0 0 1 1.233-1.397c.531-.335 1.15-.502 1.86-.502.43 0 .848.071 1.252.214.405.142.768.366 1.089.671.322.305.575.701.761 1.188.185.484.278 1.072.278 1.765v.527h-6.07v-1.114h4.614c0-.391-.08-.737-.239-1.039a1.808 1.808 0 0 0-.671-.721 1.881 1.881 0 0 0-1.004-.263c-.418 0-.783.103-1.094.308a2.069 2.069 0 0 0-.716.795 2.294 2.294 0 0 0-.249 1.059v.87c0 .511.09.945.269 1.303.182.358.436.631.76.82.325.186.705.279 1.139.279.282 0 .538-.04.771-.12.232-.082.432-.205.601-.367.169-.163.298-.363.388-.602l1.407.253a2.542 2.542 0 0 1-.607 1.089 2.92 2.92 0 0 1-1.089.721c-.434.169-.929.254-1.486.254Zm6.412-4.689v4.535h-1.486v-7.637h1.426v1.243h.095c.176-.404.451-.729.825-.974.378-.246.854-.368 1.427-.368.52 0 .976.109 1.367.328.391.215.695.537.91.964.215.428.323.957.323 1.586v4.858h-1.486v-4.679c0-.553-.145-.986-.433-1.297-.288-.315-.684-.473-1.188-.473-.345 0-.651.075-.92.224a1.611 1.611 0 0 0-.631.656c-.153.285-.229.63-.229 1.034Zm6.881 4.535v-7.637h1.486v7.637h-1.486Zm.75-8.815a.944.944 0 0 1-.666-.259.84.84 0 0 1-.273-.626.83.83 0 0 1 .273-.626.935.935 0 0 1 .666-.264.92.92 0 0 1 .662.264.824.824 0 0 1 .278.626.833.833 0 0 1-.278.626.928.928 0 0 1-.662.259Zm4.223 4.28v4.535h-1.487v-7.637h1.427v1.243h.094c.176-.404.451-.729.826-.974.378-.246.853-.368 1.427-.368.52 0 .976.109 1.367.328.391.215.694.537.91.964.215.428.323.957.323 1.586v4.858h-1.487v-4.679c0-.553-.144-.986-.432-1.297-.289-.315-.685-.473-1.189-.473-.344 0-.651.075-.919.224a1.613 1.613 0 0 0-.632.656c-.152.285-.228.63-.228 1.034Zm10.082 7.557c-.607 0-1.129-.079-1.566-.238-.434-.159-.789-.37-1.064-.632a2.634 2.634 0 0 1-.616-.86l1.277-.527c.09.146.209.3.358.463.153.165.358.306.617.422.262.116.598.174 1.009.174.563 0 1.029-.137 1.397-.412.368-.272.552-.706.552-1.303v-1.501h-.095a3.327 3.327 0 0 1-.387.541 2.087 2.087 0 0 1-.687.517c-.291.146-.671.219-1.138.219a3.19 3.19 0 0 1-1.631-.422c-.48-.285-.861-.705-1.143-1.258-.279-.557-.418-1.241-.418-2.053 0-.812.138-1.508.413-2.088.278-.581.659-1.025 1.143-1.333a2.98 2.98 0 0 1 1.646-.467c.474 0 .857.079 1.148.238.292.156.519.338.681.547.166.209.294.393.383.552h.11v-1.238h1.456v7.806c0 .656-.152 1.194-.457 1.615a2.692 2.692 0 0 1-1.238.935c-.517.202-1.1.303-1.75.303Zm-.015-4.37c.428 0 .789-.099 1.084-.298.298-.202.524-.491.676-.865.156-.378.234-.83.234-1.357 0-.514-.077-.966-.229-1.358a2.007 2.007 0 0 0-.671-.914c-.295-.222-.66-.333-1.094-.333-.447 0-.82.116-1.119.348-.298.228-.523.54-.676.934a3.72 3.72 0 0 0-.223 1.323c0 .5.076.939.228 1.317.153.378.378.673.676.885.302.212.673.318 1.114.318Zm6.732-8.834v.954c0 .282-.053.579-.159.89a3.772 3.772 0 0 1-.438.89 3.24 3.24 0 0 1-.666.736l-.736-.527c.196-.285.365-.588.507-.91.146-.321.219-.676.219-1.064v-.969h1.273Zm6.194 4.41-1.347.238a1.589 1.589 0 0 0-.269-.492 1.325 1.325 0 0 0-.487-.383c-.205-.099-.462-.149-.77-.149-.421 0-.773.095-1.054.283-.282.186-.423.426-.423.721 0 .256.095.461.283.617.189.156.494.283.915.383l1.213.278c.703.162 1.227.413 1.571.751.345.338.517.777.517 1.317a2 2 0 0 1-.397 1.223c-.262.355-.628.633-1.099.835-.467.203-1.009.304-1.626.304-.855 0-1.553-.183-2.093-.547-.54-.368-.872-.89-.994-1.566l1.437-.219c.089.375.273.658.551.85.279.189.642.284 1.089.284.487 0 .877-.102 1.169-.304.291-.205.437-.455.437-.75a.78.78 0 0 0-.268-.602c-.176-.162-.446-.285-.811-.368l-1.292-.283c-.713-.163-1.24-.421-1.581-.776-.338-.354-.507-.804-.507-1.347 0-.451.126-.845.377-1.183.252-.338.6-.602 1.044-.791.445-.192.953-.288 1.527-.288.825 0 1.475.179 1.949.537.474.354.787.83.939 1.427Zm11.161-1.736a1.45 1.45 0 0 0-.656-1.093c-.384-.262-.868-.393-1.452-.393-.417 0-.778.066-1.083.199a1.664 1.664 0 0 0-.711.537 1.264 1.264 0 0 0-.249.77c0 .242.057.451.169.627.116.175.267.323.453.442.189.116.391.214.606.294.216.076.423.139.622.189l.994.258c.325.08.658.187.999.323.342.136.658.315.95.537.291.222.527.497.706.825.182.329.273.721.273 1.179a2.71 2.71 0 0 1-.447 1.536c-.295.447-.724.8-1.288 1.059-.56.258-1.238.388-2.033.388-.763 0-1.422-.121-1.979-.363-.557-.242-.993-.585-1.308-1.029-.314-.448-.488-.978-.522-1.591h1.542c.029.368.149.674.358.919.212.242.482.423.81.542.331.116.694.174 1.089.174.434 0 .82-.068 1.158-.204a1.94 1.94 0 0 0 .806-.576 1.37 1.37 0 0 0 .293-.87c0-.302-.086-.549-.259-.741a1.91 1.91 0 0 0-.691-.477 6.737 6.737 0 0 0-.979-.333l-1.203-.329c-.816-.222-1.462-.548-1.939-.979-.474-.431-.711-1.001-.711-1.71 0-.587.159-1.099.477-1.536a3.13 3.13 0 0 1 1.293-1.02c.543-.245 1.157-.367 1.839-.367.69 0 1.298.121 1.825.362.53.242.948.576 1.253 1 .305.421.464.905.477 1.451h-1.482Zm6.629 7.662c-.753 0-1.401-.161-1.944-.483a3.266 3.266 0 0 1-1.253-1.367c-.292-.59-.437-1.281-.437-2.073 0-.782.145-1.471.437-2.068a3.396 3.396 0 0 1 1.233-1.397c.53-.335 1.15-.502 1.859-.502.431 0 .849.071 1.253.214.405.142.768.366 1.089.671.322.305.575.701.761 1.188.185.484.278 1.072.278 1.765v.527h-6.07v-1.114h4.613c0-.391-.079-.737-.238-1.039a1.808 1.808 0 0 0-.671-.721 1.882 1.882 0 0 0-1.005-.263c-.417 0-.782.103-1.093.308a2.061 2.061 0 0 0-.716.795 2.294 2.294 0 0 0-.249 1.059v.87c0 .511.09.945.269 1.303.182.358.435.631.76.82.325.186.705.279 1.139.279.281 0 .538-.04.77-.12.232-.082.433-.205.602-.367.169-.163.298-.363.388-.602l1.407.253a2.542 2.542 0 0 1-.607 1.089 2.92 2.92 0 0 1-1.089.721c-.434.169-.929.254-1.486.254Zm4.925-.154v-7.637h1.437v1.213h.08a1.84 1.84 0 0 1 .736-.969 2.1 2.1 0 0 1 1.203-.358 5.986 5.986 0 0 1 .631.035v1.422a2.609 2.609 0 0 0-.318-.055 3.071 3.071 0 0 0-.458-.035 1.94 1.94 0 0 0-.939.224 1.658 1.658 0 0 0-.885 1.496v4.664h-1.487Zm12.139-7.637-2.77 7.637h-1.591l-2.774-7.637h1.596l1.934 5.877h.08l1.929-5.877h1.596Zm1.397 7.637v-7.637h1.486v7.637h-1.486Zm.75-8.815a.944.944 0 0 1-.666-.259.84.84 0 0 1-.273-.626.83.83 0 0 1 .273-.626.935.935 0 0 1 .666-.264.92.92 0 0 1 .662.264.824.824 0 0 1 .278.626.833.833 0 0 1-.278.626.928.928 0 0 1-.662.259Zm5.953 8.969c-.74 0-1.376-.168-1.91-.502a3.327 3.327 0 0 1-1.223-1.397c-.285-.594-.427-1.273-.427-2.039 0-.775.146-1.46.437-2.053a3.355 3.355 0 0 1 1.233-1.397c.531-.335 1.155-.502 1.875-.502.58 0 1.097.108 1.551.323.454.212.82.51 1.098.895.282.384.45.833.503 1.347h-1.447a1.74 1.74 0 0 0-.547-.925c-.282-.258-.66-.387-1.134-.387-.414 0-.777.109-1.088.328-.309.215-.549.523-.721.924-.173.398-.259.869-.259 1.412 0 .557.085 1.038.254 1.442.169.405.408.718.716.94.311.222.678.333 1.098.333.282 0 .537-.051.766-.154.232-.106.426-.257.582-.453a1.7 1.7 0 0 0 .333-.706h1.447a2.808 2.808 0 0 1-.483 1.323 2.773 2.773 0 0 1-1.078.915c-.448.222-.973.333-1.576.333Zm8.017 0c-.752 0-1.4-.161-1.943-.483a3.26 3.26 0 0 1-1.253-1.367c-.292-.59-.438-1.281-.438-2.073 0-.782.146-1.471.438-2.068a3.396 3.396 0 0 1 1.233-1.397c.53-.335 1.15-.502 1.859-.502.431 0 .849.071 1.253.214.404.142.767.366 1.089.671.321.305.575.701.76 1.188.186.484.279 1.072.279 1.765v.527h-6.071v-1.114h4.614c0-.391-.079-.737-.239-1.039a1.8 1.8 0 0 0-.671-.721 1.881 1.881 0 0 0-1.004-.263c-.418 0-.782.103-1.094.308a2.069 2.069 0 0 0-.716.795 2.306 2.306 0 0 0-.248 1.059v.87c0 .511.089.945.268 1.303.183.358.436.631.761.82.325.186.704.279 1.138.279.282 0 .539-.04.771-.12.232-.082.432-.205.602-.367.169-.163.298-.363.387-.602l1.407.253a2.54 2.54 0 0 1-.606 1.089 2.937 2.937 0 0 1-1.089.721c-.434.169-.93.254-1.487.254Zm10.648-5.926-1.347.238a1.606 1.606 0 0 0-.268-.492 1.337 1.337 0 0 0-.488-.383c-.205-.099-.462-.149-.77-.149-.421 0-.772.095-1.054.283-.282.186-.423.426-.423.721a.76.76 0 0 0 .284.617c.189.156.493.283.914.383l1.213.278c.703.162 1.227.413 1.571.751.345.338.518.777.518 1.317 0 .458-.133.865-.398 1.223-.262.355-.628.633-1.099.835-.467.203-1.009.304-1.626.304-.855 0-1.552-.183-2.093-.547-.54-.368-.871-.89-.994-1.566l1.437-.219c.089.375.273.658.552.85.278.189.641.284 1.088.284.488 0 .877-.102 1.169-.304.291-.205.437-.455.437-.75a.78.78 0 0 0-.268-.602c-.176-.162-.446-.285-.811-.368l-1.292-.283c-.713-.163-1.24-.421-1.581-.776-.338-.354-.507-.804-.507-1.347 0-.451.126-.845.378-1.183.251-.338.599-.602 1.044-.791.444-.192.952-.288 1.526-.288.825 0 1.475.179 1.949.537.474.354.787.83.939 1.427Z" fill="#fff"/><path d="M479.669 268.14v.186l.036.36.103 1.403c.062.926.125 1.852.172 2.75.102 1.811.181 3.545.262 5.209.147 3.336.177 6.324.115 8.854-.074 5.109-.581 8.204-1.371 8.283-.79.08-1.726-2.991-2.709-7.925-.465-2.477-.987-5.424-1.353-8.732l-.587-5.178a69.813 69.813 0 0 1-.19-1.964c-3.456 5.488-12.582 18.054-34.743 46.735l-8.604 11.091-4.709 5.954-2.517 3.069-1.25 1.548-.499.619c-.212.228-.443.497-.67.697-.456.417-.944.813-1.461 1.183a3.67 3.67 0 0 1-.801.507 5.7 5.7 0 0 1-1.024.231 7.373 7.373 0 0 1-2.077-.07 13.274 13.274 0 0 1-2.123-.596l-1.014-.383-.566-.238c-1.491-.652-2.895-1.302-4.191-2.024-2.672-1.399-5.262-2.878-7.824-4.384-5.142-3.04-10.215-6.223-15.302-9.503-1.103-.723-2.207-1.447-3.397-2.173l-.089-.154-.196.07-.106.038-.433.476-1.385 1.648-2.807 3.494c-3.624 4.567-7.156 9.218-10.678 13.85-3.522 4.631-6.975 9.271-10.594 13.734-.908 1.138-1.766 2.326-2.766 3.379l-.747.86c-.421.471-.876.922-1.364 1.351-.408.428-.975.743-1.622.903a4.682 4.682 0 0 1-1.988.27 10.499 10.499 0 0 1-2.046-.352l-.933-.242-.62-.219c-.808-.287-1.564-.593-2.303-.87-1.475-.625-2.87-1.26-4.197-1.887-5.413-2.621-10.41-5.374-15.294-7.93-1.195-.622-2.408-1.239-3.586-1.868l-1.582-.772a3.014 3.014 0 0 0-.79-.294 2.248 2.248 0 0 0-.717.392l-.578.41-.743.571c-.984.77-1.958 1.559-2.921 2.367-7.615 6.417-14.243 12.464-19.773 17.441-5.531 4.977-10.051 9.068-13.191 11.835a27.681 27.681 0 0 1-5.16 4.133 24.598 24.598 0 0 1 4.011-4.824c2.791-2.963 6.943-7.21 12.133-12.404 5.191-5.195 11.512-11.403 18.982-18.108.937-.826 1.903-1.68 2.937-2.524l.772-.632.416-.318.615-.458c.755-.656 1.74-1.121 2.831-1.334a3.752 3.752 0 0 1 1.583.179c.531.149 1.046.333 1.539.55.592.246.831.364 1.174.512l.959.436c1.231.61 2.488 1.228 3.763 1.84 4.983 2.469 10.064 5.107 15.39 7.539 1.336.606 2.682 1.192 4.021 1.73.687.262 1.366.51 2.029.731l.5.16.199.047.312.058a.557.557 0 0 0 .311-.017.415.415 0 0 0 .222-.174l.85-1.015a129.436 129.436 0 0 0 2.588-3.315c3.411-4.49 6.744-9.189 10.187-13.809 3.443-4.62 6.849-9.379 10.434-14.05l2.737-3.503 1.459-1.742.362-.452.671-.731a17.25 17.25 0 0 1 1.5-1.485 4.438 4.438 0 0 1 1.534-1.016c.6-.244 1.263-.38 1.939-.396a3.95 3.95 0 0 1 1.78.447c.63.358 1.237.74 1.818 1.146l4.299 2.731c5.114 3.253 10.087 6.336 15.253 9.232 2.538 1.464 5.069 2.879 7.598 4.177 1.265.632 2.529 1.264 3.747 1.777l.447.179 3.709-4.715 4.656-5.935 8.604-11.092c22.047-28.656 31.963-40.929 36.561-45.962l-5.387 1.809a374.12 374.12 0 0 1-11.145 3.495c-6.429 1.86-10.56 2.761-10.884 2.2-.324-.562 3.264-2.405 9.264-5.008 3.003-1.295 6.618-2.758 10.666-4.324l6.385-2.42 2.7-.966a7.192 7.192 0 0 1 1.719-.327 7.11 7.11 0 0 1 3.39.449c1.047.419 1.907 1.08 2.465 1.895.262.405.434.842.509 1.292l.389.302Z" fill="#1BD679"/><path d="M352.896 145.1s3.169 2.234 4.941 8.071c1.771 5.836-1.883 10.4-3.048 11.081-1.166.682-2.653 1.16-2.653 1.16l-4.697-18.239 5.457-2.073Zm-29.605 7.625s-1.695 3.487-.426 9.453c1.268 5.966 6.672 8.197 8.022 8.231 1.35.033 2.883-.266 2.883-.266l-4.698-18.24-5.781.822Z" fill="#F98" stroke="#263238" stroke-miterlimit="10" stroke-linecap="round" stroke-linejoin="round"/><path d="M349.847 103.315c1.389-2.765 1.26-8.706-.595-10.469s-8.174 3.018-9.987 6.555c-1.813 3.538-2.374 5.591-2.374 5.591-3.002.294-8.093 1.69-9.795 2.173-1.742.404-6.924 1.654-9.694 2.846 0 0-1.483-1.527-4.779-3.748-3.297-2.221-11.139-3.354-11.911-.915-.773 2.439 1.984 7.704 4.536 9.453 2.552 1.75 7.703 5.733 8.355 6.146.651.414 1.418 7.02 3.649 15.076 2.23 8.055 4.1 14.71 6.011 18.201 1.911 3.491 4.779 7.98 5.14 9.38.361 1.401.337 2.818-.053 4.329-.389 1.511-1.927 2.488-1.745 4.101.181 1.612 1.059 2.299 3.17 2.336 2.111.038 3.06-.207 4.206-1.498 1.147-1.291 1.748-3.188 1.748-3.188l7.485-1.762 7.405-2.074s1.443 1.371 3.071 1.948c1.627.577 2.576.332 4.406-.72 1.831-1.052 2.268-2.078 1.648-3.578-.62-1.499-2.44-1.612-3.51-2.747-1.071-1.135-1.777-2.364-2.137-3.764-.361-1.401-.018-6.717-.031-10.697-.013-3.979-2.54-10.465-4.478-18.596-1.939-8.13-4.458-14.286-4.088-14.962.371-.676 2.957-6.653 4.347-9.417Z" fill="#F98" stroke="#263238" stroke-miterlimit="10" stroke-linecap="round" stroke-linejoin="round"/><path d="M346.25 145.686c-2.808 1.533-2.876.594-4.026-2.864-1.151-3.458 1.814-6.061 4.066-8.408 2.252-2.346 2.776-7.707 1.913-8.368-.863-.661-7.052 1.522-7.859.405-.807-1.117-2.01-4.972-2.01-4.972l-7.397-.297-6.618 3.907s1.094 3.882.927 5.25c-.167 1.368-6.641 2.447-7.077 3.442-.436.996 2.612 5.437 5.717 6.403 3.105.967 6.959 1.815 7.623 5.398.663 3.583 1.056 4.438-2.143 4.452-3.199.015-6.078-1.084-5.403 1.539.676 2.623 2.186 6.135 4.31 6.987 2.123.851 3.488-.236 5.084 1.929 1.597 2.165 2.576 6.479 2.007 8.888a1.25 1.25 0 0 0-.029.314c.079-.21.12-.338.12-.338l7.485-1.762 7.402-2.072c-1.661-1.834-2.888-6.085-2.536-8.752.352-2.666 2.072-2.373 3.52-4.145 1.448-1.771 1.074-5.576.398-8.199-.675-2.623-2.666-.27-5.474 1.263Z" fill="#fff"/><path opacity=".33" d="M337.729 104.971s1.375 2.463 2.892 4.045c1.517 1.581 2.876 2.753 4.25 1.723 1.373-1.03 4.73-7.699 4.996-10.36.266-2.66-.168-6.606-1.702-7.225-1.534-.62-8.461 3.475-10.436 11.817Zm-21.227 5.467s-.013 2.821-.578 4.938c-.564 2.118-1.188 3.8-2.888 3.562s-7.861-4.456-9.379-6.657c-1.519-2.201-3.044-5.866-2-7.149 1.044-1.283 9.087-1.044 14.845 5.306Z" fill="#000"/><path d="M335.733 169.701c-.191-.452.366-1.131.016-1.612-2.631-3.616-5.577-2.745-7.113-1.893a9.53 9.53 0 0 1-.286 1.737c-.389 1.511-1.928 2.488-1.746 4.101.182 1.612 1.059 2.299 3.171 2.337 2.111.037 3.06-.208 4.206-1.499 1.146-1.291 1.747-3.188 1.747-3.188l.005.017Z" fill="#fff" stroke="#263238" stroke-miterlimit="10" stroke-linecap="round" stroke-linejoin="round"/><path d="M328.329 174.241s-.87-1.304-.528-2.384c.342-1.08 1.928-2.15 1.928-2.15m.045 4.664s-.021-1.603.233-2.198c.253-.594 2.012-2.346 2.012-2.346" stroke="#263238" stroke-miterlimit="10" stroke-linecap="round" stroke-linejoin="round"/><path d="M350.624 165.866c-.052-.488-.845-.819-.771-1.41.557-4.437 3.557-5.097 5.313-5.093.309.478.67.938 1.09 1.383 1.07 1.134 2.889 1.247 3.509 2.747.62 1.5.184 2.525-1.647 3.577-1.83 1.053-2.779 1.297-4.407.72-1.627-.576-3.07-1.947-3.07-1.947l-.017.023Z" fill="#fff" stroke="#263238" stroke-miterlimit="10" stroke-linecap="round" stroke-linejoin="round"/><path d="M357.077 167.606s-.233-1.431-.519-1.838c-.285-.408-2.126-1.425-2.126-1.425m4.659 1.975s-.232-.902-.723-1.931c-.49-1.028-1.919-1.67-1.919-1.67" stroke="#263238" stroke-miterlimit="10" stroke-linecap="round" stroke-linejoin="round"/><path d="m333.892 131.405-.389.1c-.998.257-2.029-.397-2.303-1.461l-1.448-5.622 4.003-1.031 1.448 5.622c.273 1.064-.314 2.135-1.311 2.392Z" fill="#AB675B" stroke="#263238" stroke-miterlimit="10" stroke-linecap="round" stroke-linejoin="round"/><path d="m331.98 125.093.868 3.37" stroke="#263238" stroke-miterlimit="10" stroke-linecap="round" stroke-linejoin="round"/><path d="M331.974 117.211c-1.005-1.483-.984-4.725-1.802-6.091-.819-1.366-1.615-.829-1.615-.829l-.345.172-.385.016s-.956-.085-1.013 1.506c-.057 1.591 1.527 4.419 1.364 6.204-.163 1.785-3.947 5.829-3.586 7.23.361 1.401 3.331 2.959 4.473 3.163 1.142.204 2.915-3.489 2.915-3.489s3.337 2.377 4.238 1.647c.902-.731 2.749-3.53 2.389-4.931-.361-1.4-5.628-3.114-6.633-4.598Z" fill="#fff" stroke="#263238" stroke-miterlimit="10" stroke-linecap="round" stroke-linejoin="round"/><path d="M333.892 121.032s-1.331-.945-3.001-.547c-1.836.439-3.032 1.603-2.706 2.266.327.663 2.606 1.653 3.396 1.698.79.046 2.445-2.289 2.311-3.417Zm-.187-4.299c.439-.113.656-.742.486-1.405-.171-.663-.665-1.109-1.104-.996-.439.113-.657.742-.486 1.405.171.663.665 1.109 1.104.996Z" fill="#263238"/><path d="M333.495 115.244c.116-.03.183-.153.152-.276-.032-.123-.151-.199-.266-.169-.116.029-.183.153-.152.276.032.123.151.199.266.169Z" fill="#fff"/><path d="M326.419 117.33c.171.663-.047 1.292-.485 1.405-.439.113-.934-.333-1.104-.996-.171-.663.046-1.292.485-1.405.439-.113.933.333 1.104.996Z" fill="#263238"/><path d="M325.77 117.234c.115-.03.183-.154.151-.277-.031-.122-.151-.198-.266-.168-.115.029-.183.153-.151.276.031.123.15.199.266.169Z" fill="#fff"/><path d="M362.075 148.189s2.638 6.811 2.507 9.298c-.132 2.487-1.842 3.467-1.02 5.033.822 1.566 3.218.643 4.744-.299 1.526-.941 2.484-3.605 1.611-6.287-.872-2.681-3.119-6.81-4.187-7.298-1.068-.489-3.324-1.133-3.655-.447Z" fill="#AB675B"/><path d="m369.184 161.405-.151-.262c-1.206-2.039-3.343-2.407-4.66-2.422-.468 1.633-1.481 2.522-.811 3.799.822 1.565 3.218.642 4.744-.299a3.35 3.35 0 0 0 .878-.816Z" fill="#fff" stroke="#263238" stroke-miterlimit="10" stroke-linecap="round" stroke-linejoin="round"/><path d="m360.082 107.878-7.251 1.616s-5.923-3.828-6.177-2.381c-.525 3 2.557 7.676 2.557 7.676s-.903 5.592 1.083 13.893c1.985 8.301 7.302 16.202 10.161 19.043 2.858 2.84 6.254 5.44 6.254 5.44s1.276 2.614 1.283 4.81c.007 2.195-.923 3.336-.293 4.332.629.995 3.596.548 4.561-.977.964-1.525 1.281-4.669 1.281-4.669l.632-.072s-.175 2.172 1.628 2.601c1.803.43 5.601-1.074 7.095-1.519 1.494-.445 17.646-4.218 23.107-5.388 5.462-1.169 11.421-3.576 12.33-7.788.909-4.212-1.055-9.441-3.145-10.375-2.089-.934-3.668 1.288-3.071 3.483.596 2.195 1.51 6.393.03 7.715-1.48 1.321-10.455 2.867-13.553 2.714-3.098-.153-4.459-.991-4.459-.991s-1.158-11.806-3.226-16.699c-2.068-4.893-6.882-9.135-10.618-9.779-3.735-.644-8.358-1.035-11.364-3.467-3.005-2.433-3.434-6.296-3.434-6.296.337-.888.895-3.232-.351-7.019-.433-1.315-.665-1.427-.89-1.379-.226.049-2.543 2.136-4.17 5.476Z" fill="#AB675B" stroke="#263238" stroke-miterlimit="10" stroke-linecap="round" stroke-linejoin="round"/><path d="m379.427 155.434 9.954-2.689" stroke="#263238" stroke-miterlimit="10" stroke-linecap="round" stroke-linejoin="round"/><path opacity=".33" d="M352.104 110.214s-2.611-1.701-3.681-2.287c-1.071-.587-1.457-1.007-1.508-.431-.052.576.488 2.783 1.261 4.438.773 1.655 1.403 2.65 2.234 2.409.832-.24 1.875-1.405 2.034-2.569.158-1.164-.34-1.56-.34-1.56Zm9.009-1.929s1.67-2.617 2.401-3.59c.731-.973.908-1.513 1.194-1.009.287.503.714 2.735.699 4.558-.015 1.824-.174 2.988-1.032 3.109-.858.121-2.293-.514-2.922-1.509-.629-.995-.34-1.559-.34-1.559Z" fill="#F98"/><path d="M368.33 117.758c-.745-2.094-1.37 1.216-3.499 1.159-2.128-.056-5.62-5.78-6.137-6.387-.517-.606-2.097-1.651-2.767.131-.669 1.782-1.812 7.834-3.564 8.619-1.175.526-2.347-.329-2.993-.95a46.79 46.79 0 0 0 1.204 7.884c1.986 8.3 7.303 16.202 10.161 19.042 2.858 2.841 6.254 5.441 6.254 5.441s-.422-1.677-.977-4.53c-.804-4.13-.005-9.731 1.608-14.686s1.454-13.628.71-15.723Z" fill="#fff"/><path d="M372.981 159.582c-1.544-1.32-3.89-1.204-5.009-1.054-.127 1.84-.848 2.871-.274 3.778.63.996 3.597.549 4.561-.976.3-.474.537-1.104.722-1.748Z" fill="#fff" stroke="#263238" stroke-miterlimit="10" stroke-linecap="round" stroke-linejoin="round"/><path d="M374.071 142.224c.757 2.368 1.927 6.505 1.716 8.867-.307 3.447-2.247 5.57-2.247 5.57m-.077-16.238s.134.368.338.977" stroke="#263238" stroke-miterlimit="10" stroke-linecap="round" stroke-linejoin="round"/><path d="M374.173 156.588s-.176 2.172 1.627 2.602c1.032.246 2.715-.141 4.248-.601.116-.293.185-.588.166-.865-.094-1.311-.788-2.29-.788-2.29l-5.253 1.154Z" fill="#fff" stroke="#263238" stroke-miterlimit="10" stroke-linecap="round" stroke-linejoin="round"/><path d="M386.361 136.48c-1.355-.774-3.386-1.518-5.686-.975-4.16.982-5.654 6.326-5.777 8.91m13.211-6.666s-.294-.29-.818-.669" stroke="#263238" stroke-miterlimit="10" stroke-linecap="round" stroke-linejoin="round"/><path d="M359.071 117.19s-.533-.411-1.226-.276c-.762.149-1.273.608-1.149.886.124.277 1.047.722 1.371.754.324.032 1.042-.899 1.004-1.364Z" fill="#F98" stroke="#263238" stroke-miterlimit="10" stroke-linecap="round" stroke-linejoin="round"/><path d="M356.151 119.441s1.922 1.744 1.917-.887c0 0 .866 2.601 2.192.058" stroke="#263238" stroke-miterlimit="10" stroke-linecap="round" stroke-linejoin="round"/><path d="M361.574 114.707c.14.307-.103.729-.541.942-.439.213-.908.137-1.048-.17-.14-.307.102-.729.541-.942.439-.214.908-.137 1.048.17Z" fill="#263238"/><path d="M361.194 114.716c.039.085-.028.201-.149.259-.121.059-.25.038-.288-.046-.039-.085.028-.201.149-.26.121-.058.25-.037.288.047Z" fill="#fff"/><path d="M354.891 116.663c-.032.335-.451.552-.937.485-.486-.067-.854-.393-.823-.727.032-.335.452-.551.938-.484.486.067.854.392.822.726Z" fill="#263238"/><path d="M354.511 116.453c-.009.092-.125.152-.258.133-.134-.018-.235-.108-.227-.2.009-.092.125-.151.259-.133.133.019.235.108.226.2Z" fill="#fff"/><path d="m354.869 118.777-2.479.334m2.573.091-1.719 1.06m1.995-.427-.852.776m6.646-3.154 2.398-.711m-2.306 1.137 2.006.262m-1.994.427 1.099.358" stroke="#263238" stroke-miterlimit="10" stroke-linecap="round" stroke-linejoin="round"/><defs><filter id="filter0_d_278_10794" x="59.239" y="-.8" width="396.521" height="229.227" filterUnits="userSpaceOnUse" color-interpolation-filters="sRGB"><feFlood flood-opacity="0" result="BackgroundImageFix"/><feColorMatrix in="SourceAlpha" values="0 0 0 0 0 0 0 0 0 0 0 0 0 0 0 0 0 0 127 0" result="hardAlpha"/><feOffset dx="5" dy="-8"/><feGaussianBlur stdDeviation="4.4"/><feComposite in2="hardAlpha" operator="out"/><feColorMatrix values="0 0 0 0 0 0 0 0 0 0 0 0 0 0 0 0 0 0 0.1 0"/><feBlend in2="BackgroundImageFix" result="effect1_dropShadow_278_10794"/><feBlend in="SourceGraphic" in2="effect1_dropShadow_278_10794" result="shape"/></filter></defs></svg>