<svg width="610" height="500" viewBox="0 0 610 500" fill="none" xmlns="http://www.w3.org/2000/svg"><path d="M304.011 25.698S135.702 35.901 139.849 130.91c1.189 27.238-5.605 54.499-25.616 74.824-12.563 12.76-29.331 22.059-38.157 37.915-17.445 31.344-5.96 69.673 3.661 101.101 9.563 31.238 15.813 64.08 34.464 91.885 10.198 15.202 23.966 30.058 39.06 41.024 20.939 15.214 47.829 21.706 73.925 22.104 149.854 2.286 315.385-8.269 332.148-196.36C576.097 115.311 464.612 1.21 304.011 25.699Z" fill="#F4F7FA"/><path d="m286.378 240.552 27.637-35.599s-13.087-20.857-32.768-22.123c-40.153-2.583-35.085-37.517-35.155-52.465-.105-22.544-10.044-42.365-32.949-27.065-22.904 15.301-38.832-30.217-33.746-66.65 4.977-35.652-55.624-65.058-73.492 11.119-10.67 45.492 29.066 67.828 46.447 83.871 17.381 16.043-2.563 44.912 27.558 53.062 25.729 6.961 51.843 2.564 56.106 24.643 4.263 22.08 18.311 34.896 50.362 31.207Z" fill="url(#paint0_linear_1828_6443)"/><mask id="mask0_1828_6443" style="mask-type:luminance" maskUnits="userSpaceOnUse" x="104" y="0" width="211" height="242"><path d="m286.378 240.552 27.637-35.599s-13.087-20.857-32.768-22.123c-40.153-2.583-35.085-37.517-35.155-52.465-.105-22.544-10.044-42.365-32.949-27.065-22.904 15.301-38.832-30.217-33.746-66.65 4.977-35.652-55.624-65.058-73.492 11.119-10.67 45.492 29.066 67.828 46.447 83.871 17.381 16.043-2.563 44.912 27.558 53.062 25.729 6.961 51.843 2.564 56.106 24.643 4.263 22.08 18.311 34.896 50.362 31.207Z" fill="#fff"/></mask><g mask="url(#mask0_1828_6443)"><path d="m286.378 240.552 27.637-35.599s-13.087-20.857-32.767-22.123c-40.154-2.583-35.086-37.517-35.156-52.465-.104-22.544-9.514-39.726-31.832-29.987-25.252 11.02-39.949-27.295-34.863-63.728 4.977-35.652-55.624-65.058-73.492 11.119-10.67 45.492 29.066 67.828 46.447 83.871 17.381 16.043-2.563 44.912 27.558 53.062 25.729 6.961 51.843 2.564 56.106 24.643 4.263 22.08 18.311 34.896 50.362 31.207Z" fill="#E7EDFB"/></g><mask id="mask1_1828_6443" style="mask-type:luminance" maskUnits="userSpaceOnUse" x="104" y="0" width="211" height="242"><path d="m286.378 240.552 27.637-35.599s-13.087-20.857-32.768-22.123c-40.153-2.583-35.085-37.517-35.155-52.465-.105-22.544-10.044-42.365-32.949-27.065-22.904 15.301-38.832-30.217-33.746-66.65 4.977-35.652-55.624-65.058-73.492 11.119-10.67 45.492 29.066 67.828 46.447 83.871 17.381 16.043-2.563 44.912 27.558 53.062 25.729 6.961 51.843 2.564 56.106 24.643 4.263 22.08 18.311 34.896 50.362 31.207Z" fill="#fff"/></mask><g opacity=".5" fill="#BEB8F2" mask="url(#mask1_1828_6443)"><path d="m301.648 227.706.438-.844c-.524-.271-52.859-27.59-96.562-70.292-40.262-39.34-81.224-100.166-47.72-166.536l-.85-.428c-14.915 29.545-16.568 60.464-4.916 91.9 9.309 25.112 27.084 50.601 52.834 75.757 43.805 42.797 96.251 70.171 96.776 70.443Z"/><path d="m157.476 94.433.486-.818c-27.259-16.15-55.231-52.938-55.511-53.308l-.76.572c.281.372 28.366 37.309 55.785 53.554Zm-7.19-21.159c3.855-37.517 29.78-55.29 30.041-55.466l-.53-.79c-.266.178-26.556 18.182-30.458 56.16l.947.096Zm85.334 109.659c-28.964-35.868-.254-90.796.07-91.307l-.769-.56c-.366.472-29.264 56.277-.043 92.464l.742-.597Zm-15.218-11.406.418-.855c-26.458-12.903-61.295-.359-61.644-.231l.329.892c.345-.127 34.808-12.53 60.897.194Zm73.544 50.855c-12.971-11.774-8.622-39.928-8.577-40.211l-.94-.151c-.189 1.176-4.478 28.945 8.876 41.066l.641-.704Zm-12.481-6.303.448-.839c-12.227-6.517-36.909.47-45.02 2.766-1.146.325-2.136.605-2.322.62l.065.949c.262-.018.921-.202 2.517-.654 8.019-2.27 32.423-9.178 44.312-2.842Z"/></g><path d="M271.389 226.147c9.351-7.822 20.93-5.403 29.035-2.342.255 1.143.693 1.735 1.205 2.827 4.617 9.853 4.484 15.04 7.499 25.47.649 2.245.547 9.413.316 12.339l-.516 5.448s-23.569 15.235-33.678 2.879c-10.109-12.355-34.333-.721-47.926 3.863-8.348 2.815-13.068 1.432-16.302 1.975-34.228 5.745-41.898 18.201-54.178 13.242-13.556-5.474-8.089-22.22-22.521-28.953-16.296-7.603-34.208 8.646-48.02-1.989-2.367-1.823-4.75-3.761-6.7-7.236-4.81-8.578-1.158-17.277-10.24-22.104-18.255-9.702-28.503-30.208-15.558-47.113 12.776-16.684 47.164-8.676 80.513 24.045 26.374 20.569 32.687 19.441 47.408 13.695 10.312-4.025 35.598-21.758 50.025-8.911s28.947 21.807 39.638 12.865Z" fill="#A9BFF8"/><mask id="mask2_1828_6443" style="mask-type:luminance" maskUnits="userSpaceOnUse" x="48" y="176" width="263" height="103"><path d="m310.483 228.466-.812 40.345s-24.312 16.313-34.421 3.958c-10.11-12.356-34.333-.722-47.926 3.862-36.883 12.438-42.992-32.242-91.598-20.351-12.928 3.163-36.572 13.861-49.422 4.627-14.64-10.521-5.261-23.132-16.941-29.34-18.255-9.702-28.503-30.208-15.558-47.113 12.776-16.684 47.164-8.675 80.513 24.045 26.374 20.569 32.687 19.441 47.408 13.695 10.311-4.025 35.598-21.758 50.025-8.911 14.427 12.846 28.947 21.806 39.637 12.864 16.267-13.606 39.095 2.319 39.095 2.319Z" fill="#fff"/></mask><g opacity=".5" fill="#FCFDFE" mask="url(#mask2_1828_6443)"><path d="m308.323 246.483.078.796a500.57 500.57 0 0 1-13.2 1.249c-32.289 2.62-63.656 1.895-93.231-2.157-25.06-3.434-49.186-9.297-71.709-17.428-18.112-6.538-35.29-14.572-51.058-23.878-11.084-6.543-21.362-13.641-30.547-21.099-1.6-1.299-3.171-2.724-4.69-4.102-2.023-1.836-4.115-3.735-6.296-5.351l.417-.658c2.211 1.638 4.318 3.549 6.355 5.398 1.511 1.371 3.074 2.789 4.658 4.075 9.157 7.435 19.403 14.512 30.456 21.036 15.729 9.283 32.866 17.297 50.937 23.821 22.476 8.114 46.555 13.965 71.566 17.392 29.525 4.045 60.842 4.769 93.082 2.153 4.355-.353 8.789-.772 13.182-1.247Z"/><path d="m158.264 236.857-.153.782c-31.173-7.324-80.341 17.915-80.834 18.17l-.326-.721c.496-.257 49.891-25.613 81.313-18.231Zm88.817 12.261-.068.796c-21.708-2.309-46.089-39.18-46.333-39.552l.606-.459c.242.369 24.426 36.942 45.795 39.215Zm12.416.163.063.797c-14.178 1.216-32.861 11.045-52.606 27.675-.993.836-.993.836-1.133.85l-.073-.796.037.398-.172-.354c.072-.048.447-.363.882-.73 19.858-16.725 38.68-26.612 53.002-27.84Zm40.789-2.054-.151.782c-15.348-3.536-25.963-25.907-26.068-26.132l.662-.356c.104.222 10.56 22.251 25.557 25.706Zm8.35.422c-11.362 5.889-21.505 15.497-31.009 29.376l-.598-.478c9.577-13.985 19.809-23.674 31.281-29.62l.326.722ZM88.925 209.681l-.194.771c-17.127-5.112-36.193-6.211-42.459-6.572-1.516-.087-2.05-.12-2.234-.166l.163-.779c.141.033 1.008.083 2.106.146 6.286.363 25.413 1.465 42.618 6.6Zm26.735 12.744-.396.673c-14.071-9.67-21.305-44.729-21.606-46.217l.725-.165c.073.361 7.469 36.219 21.277 45.709Z"/></g><path d="M309.387 224.784c-.189 2.759 25.048 12.421 7.381 21.436-4.414 2.252-19.95 5.422-19.498 25.762l.263 11.846c-8.669 3.901-17.564 5.974-21.651-5.786-6.346-18.264-37.384-16.492-48.061-10.595-13.215 7.299-44.31 23.628-54.543-4.44-8.519-23.367-9.488-40.321-38.665-39.908-29.177.414-48.285-15.067-48.16-43.074.132-29.473-38.196-50.885-27.222-75.81 19.122-43.431 85.391-10.078 106.887 39.532 21.496 49.61 37.177 19.144 60.897 16.063a41.417 41.417 0 0 1 9.76.437c25.189 4.177 30.971 29.846 52.401 47.209 29.225 23.679 20.531 12.678 20.211 17.328Z" fill="#1C49C2"/><mask id="mask3_1828_6443" style="mask-type:luminance" maskUnits="userSpaceOnUse" x="57" y="84" width="248" height="203"><path d="m301.184 217.181 3.203 63.969c-8.378 4.269-23.939 10.029-28.504-3.108-6.347-18.264-37.384-16.492-48.061-10.595-13.215 7.299-44.311 23.628-54.543-4.44-8.519-23.367-9.489-40.32-38.665-39.907-29.177.413-48.285-15.068-48.16-43.075.132-29.473-38.196-50.885-27.222-75.81 19.122-43.43 85.39-10.078 106.886 39.532 21.497 49.61 37.178 19.144 60.897 16.064 32.382-4.206 28.112 42.729 41.581 54.08 10.56 8.899 24.265 6.124 32.588 3.29Z" fill="#fff"/></mask><g opacity=".5" fill="#FCFDFE" mask="url(#mask3_1828_6443)"><path d="m293.176 247.904-.185 1.376c-95.025-13.615-183.015-75.991-229.633-162.786l1.143-.692c46.421 86.429 134.045 148.543 228.675 162.102Z"/><path d="m242 235.783.076 1.386c-37.66 2.562-65.165 38.645-65.439 39.01l-1.026-.859c.277-.369 28.136-36.934 66.389-39.537Zm33.763 9.112-.556 1.262c-34.642-16.881-43.376-89.902-43.46-90.638l1.303-.176c.083.727 8.73 72.992 42.713 89.552Zm-118.009-52.779-.452 1.307c-28.478-10.853-70.195 11.23-70.613 11.455l-.588-1.237c.423-.228 42.649-22.58 71.653-11.525Zm-46.622-41.196-1.078.802c-19.758-29.856-12.386-78.683-12.309-79.174l1.295.218c-.076.484-7.359 48.763 12.092 78.154Z"/></g><path d="m560.06 441.878-468.075-4.04v11.953c0 3.244 2.041 6.003 4.806 6.494l132.358 23.538c1.571.279 3.164.353 4.749.221l321.075-26.837c2.867-.239 5.087-3.006 5.087-6.34v-4.989Z" fill="#BFC8D6"/><path d="m387.808 422.723-297.5 21.867c-5.323.391-9.652-3.767-9.652-9.288V214.103c0-5.521 4.329-9.997 9.652-9.997h297.5c4.385 0 7.932 4.046 7.932 9.037v199.96c0 4.991-3.547 9.298-7.932 9.62Z" fill="#BFC8D6"/><path d="m392.551 422.723-297.5 21.867c-5.323.391-9.651-3.767-9.651-9.288V214.103c0-5.521 4.328-9.997 9.652-9.997H392.55c4.386 0 7.932 4.046 7.932 9.037v199.96c0 4.991-3.546 9.298-7.932 9.62Z" fill="#fff"/><path d="M383.283 408.626 106.194 427.62c-4.332.297-7.853-3.116-7.853-7.623v-193.66c0-4.507 3.521-8.176 7.853-8.195l277.089-1.193c3.618-.015 6.545 3.3 6.545 7.406v176.389c0 4.105-2.927 7.634-6.545 7.882Z" fill="#D8DEE8"/><path d="M254.308 210.156c0 2.055-1.531 3.726-3.422 3.732-1.893.006-3.429-1.659-3.429-3.719 0-2.06 1.536-3.731 3.429-3.732 1.891-.002 3.422 1.663 3.422 3.719Z" fill="#fff"/><path opacity=".48" d="m95.05 444.59 295.994-21.756 1.507-.111c2.012-.148 3.842-1.141 5.24-2.648-21.3-1.163-34.53-8.711-43.065-16.509-17.138-15.661-14.165-31.105-32.647-41.402-23.052-12.843-41.178 3.431-58.671-12.626-10.604-9.734-5.398-16.994-18.447-31.541-14.453-16.112-23.863-10.696-38.388-25.197-18.366-18.336-9.181-32.601-25.001-45.766-19.192-15.97-39.89-1.189-58.159-16.505-7.88-6.606-12.204-16.209-14.461-26.423h-13.9c-5.324 0-9.652 4.476-9.652 9.997v221.199c0 5.521 4.327 9.678 9.65 9.288Z" fill="#fff"/><path d="M406.568 421.51 91.985 444.527l137.164 24.392c1.571.279 3.164.354 4.749.221l326.162-27.262-148.488-20.211a24.068 24.068 0 0 0-5.004-.157Z" fill="url(#paint1_linear_1828_6443)"/><path d="m137.887 444.725 261.9-19.447 81.056 10.944-259.644 20.789-83.312-12.286Z" fill="#D8DEE8"/><path d="m217.548 257.424 1.311 6.709a53.39 53.39 0 0 0-8.343 4.162l-4.482-5.138c-1.222-1.402-3.355-1.534-4.765-.294l-8.82 7.762c-1.413 1.243-1.568 3.391-.347 4.798l4.521 5.21a54.78 54.78 0 0 0-5.185 7.782l-6.548-2.223c-1.766-.599-3.696.363-4.313 2.15l-3.864 11.196c-.619 1.793.313 3.737 2.082 4.341l6.57 2.241a54.507 54.507 0 0 0-.658 9.368l-6.873 1.4c-1.846.376-3.059 2.192-2.711 4.058l2.184 11.696c.35 1.874 2.134 3.088 3.985 2.711l6.894-1.403a54 54 0 0 0 4.038 8.493l-5.301 4.704c-1.429 1.269-1.589 3.467-.355 4.911l7.732 9.045a3.379 3.379 0 0 0 4.835.317l5.301-4.718a53.828 53.828 0 0 0 7.764 5.309l-2.281 6.768c-.618 1.833.336 3.823 2.131 4.444l11.237 3.888c1.799.623 3.756-.362 4.369-2.199l2.245-6.717c3.082.49 6.235.695 9.427.625l1.359 6.953c.372 1.903 2.187 3.139 4.054 2.759l11.674-2.377c1.867-.38 3.074-2.231 2.696-4.133l-1.369-6.894a53.117 53.117 0 0 0 8.52-4.243l4.548 5.24a3.407 3.407 0 0 0 4.865.319l8.897-7.988c1.421-1.276 1.548-3.485.283-4.935l-4.532-5.196a54.965 54.965 0 0 0 5.243-8.019l6.453 2.201a3.404 3.404 0 0 0 4.342-2.186l3.708-11.374c.592-1.816-.388-3.782-2.187-4.393l-6.392-2.17c.457-3.135.629-6.339.527-9.577l6.593-1.342c1.851-.377 3.037-2.196 2.65-4.063l-2.415-11.648c-.386-1.859-2.194-3.06-4.039-2.684l-6.574 1.338a53.92 53.92 0 0 0-4.236-8.523l4.993-4.444a3.421 3.421 0 0 0 .277-4.821l-7.808-8.82a3.394 3.394 0 0 0-4.794-.295l-5.025 4.459a53.775 53.775 0 0 0-7.845-5.189l2.134-6.385a3.392 3.392 0 0 0-2.137-4.292l-11.082-3.709a3.39 3.39 0 0 0-4.286 2.136l-2.157 6.4a52.616 52.616 0 0 0-9.319-.53l-1.321-6.652a3.36 3.36 0 0 0-3.971-2.639l-11.442 2.33a3.412 3.412 0 0 0-2.665 3.99Zm-13.057 63.607c-3.601-18.812 8.542-37.042 27.104-40.822 18.561-3.779 36.675 8.29 40.48 27.06 3.828 18.883-8.265 37.373-27.03 41.194-18.766 3.821-36.931-8.507-40.554-27.432Z" fill="#BFC8D6"/><path d="M128.039 470.977c-6.68-.529-15.226-2.382-23.428-7.736-8.874-5.793-20.433-17.698-17.416-25.2 1.126-2.8 4.37-5.198 7.22-4.97 4.211.338 4.701 6.178 12.014 12.531 1.352 1.174 8.339 7.245 11.813 5.199 1.727-1.017 2.238-3.835 1.956-5.977-.823-6.264-8.483-7.226-15.847-14.007-7.466-6.875-13.689-18.868-10.132-26.977 2.045-4.659 7.452-8.339 11.007-7.305 1.519.442 2.482 1.682 7.094 11.631 3.785 8.165 4.627 10.546 7.068 11.32 2.512.797 6.418-.203 7.902-2.674 3.866-6.436-12.843-15.939-14.361-33.95-.68-8.072 1.507-20.035 8.828-22.599 4.949-1.733 11.999.914 14.548 5.447 2.298 4.087-.494 7.162 1.259 16.342.532 2.786 1.627 8.518 3.937 8.819 2.712.353 5.746-6.956 6.447-8.737 5.28-13.402-.774-20.293 4.204-26.799 3.882-5.074 12.328-7.111 19.02-4.549 5.855 2.243 10.539 8.074 10.852 14.116.319 6.149-4.86 12.269-15.219 24.511-4.912 5.805-8.82 9.727-8.598 15.497.109 2.813 1.226 6.769 3.243 7.13 4.454.798 6.646-17.107 17.2-19.872 5.403-1.416 12.116 1.366 15.066 6.228 3.614 5.958 1.193 14.402-3.348 18.842-5.925 5.793-12 1.39-23.148 7.613-4.946 2.76-12.718 8.632-11.58 13.488.496 2.114 2.715 4.185 5.151 4.461 5.46.619 7.263-8.315 16.041-12.243 6.324-2.829 15.069-2.523 17.146 1.038 2.932 5.027-7.483 16.441-13.02 21.484-6.694 6.097-22.482 17.658-52.919 17.898Z" fill="url(#paint2_linear_1828_6443)"/><path opacity=".5" d="M131.038 468.114c-.883-14.943 9.029-45.379 16.241-59.768 7.058-14.079 13.808-36.353 13.875-36.576l.44.132c-.068.224-6.83 22.535-13.904 36.649-7.19 14.344-17.073 44.668-16.194 59.536l-.458.027Z" fill="#fff"/><path d="M112.294 472.925c-5.03-6.972-12.408-19.552-13.73-36.383-.546-6.935-1.61-20.481 6.689-32.165 4.136-5.824 12.908-14.437 18.835-11.953 3.814 1.599 6.182 7.68 5.105 12.304-1.085 4.662-5.031 5.094-9.329 13.007-1.591 2.927-3.408 6.364-2.012 8.306 1.166 1.621 4.368 1.916 6.77.944 4.96-2.009 3.41-8.175 8.772-12.597 3.813-3.145 10.169-4.623 12.912-2.047 2.381 2.236 1.967 7.461-.138 10.943-3.37 5.577-9.412 3.941-13.351 10.038-1.748 2.705-2.99 6.79-1.461 8.405 1.743 1.841 6.872.249 10.159-1.785 4.341-2.687 4.501-5.545 7.359-5.903 3.188-.4 7.174 2.631 7.798 5.985.873 4.698-4.899 9.764-9.47 11.965-5.851 2.818-10.199 1.164-13.056 5.014-1.049 1.413-2.01 3.719-1.15 5.118 1.227 1.997 5.662 1.338 8.607.9 7.166-1.065 9.14-3.66 11.707-2.399 2.6 1.276 3.941 5.588 2.817 8.612-.625 1.681-2.502 4.285-11.804 5.915-6.511 1.141-17.449 1.944-32.029-2.224Z" fill="#A9BFF8"/><path d="m503.415 17.696-244.103-6.452c-11.636-.307-21.113 8.362-21.113 19.365v347.865c0 11.003 9.476 19.385 21.113 18.725l244.103-13.845c10.394-.59 18.784-9.442 18.784-19.775V36.902c0-10.333-8.39-18.931-18.784-19.206Z" fill="#1C49C2"/><path opacity=".76" d="M259.312 390.866c-7.902.438-14.35-5.28-14.35-12.747V30.759c0-7.467 6.448-13.38 14.35-13.182l244.103 6.118c7.07.177 12.804 6.042 12.804 13.074v327.123c0 7.032-5.734 13.07-12.804 13.462l-244.103 13.512Z" fill="#fff"/><path d="m503.415 17.696-244.103-6.452c-11.636-.307-21.113 8.362-21.113 19.365v14.292l284 5.422V36.902c0-10.333-8.39-18.931-18.784-19.206Z" fill="url(#paint3_linear_1828_6443)"/><path d="M275.727 29.526c0 3.572-3.06 6.403-6.84 6.323-3.786-.08-6.86-3.05-6.86-6.633 0-3.582 3.074-6.413 6.86-6.322 3.78.09 6.84 3.06 6.84 6.632Zm23.865.538c0 3.554-3.028 6.37-6.769 6.291-3.748-.08-6.79-3.033-6.79-6.597 0-3.564 3.042-6.38 6.79-6.291 3.741.09 6.769 3.043 6.769 6.597Zm23.62.533c0 3.536-2.998 6.338-6.701 6.26-3.708-.079-6.719-3.017-6.719-6.563s3.011-6.348 6.719-6.26c3.703.09 6.701 3.028 6.701 6.563Z" fill="#fff"/><path d="m500.273 299.318-237.466 8.925V105.248l237.466 1.468v192.602Z" fill="url(#paint4_linear_1828_6443)"/><path opacity=".42" d="m500.273 321.907-237.466 10.144v-10.124l237.466-9.626v9.606Zm0 23.565-237.466 11.416v-10.125l237.466-10.897v9.606ZM445.505 83.506 262.808 81.44v10.125l182.697 1.668v-9.726Zm34.672.392v9.65l20.096.184v-9.606l-20.096-.228Z" fill="#fff"/><path d="M439.635 223.227c-39.156-46.82-88.415-48.737-115.914-98.849-19.935-36.33-17.106-77.344-8.256-111.65l-56.153-1.484c-11.636-.308-21.112 8.362-21.112 19.365v347.864c0 11.003 9.476 19.386 21.112 18.726l219.642-12.459c6.713-87.38-16.634-134.387-39.319-161.513Z" fill="#fff" opacity=".15"/><path d="m421.37 117.164-74.027-.277c-6.84-.026-12.399 5.293-12.399 11.88v20.188c0 6.587 5.559 11.893 12.399 11.853l74.027-.437c6.599-.039 11.935-5.295 11.935-11.74v-19.753c0-6.445-5.336-11.689-11.935-11.714Z" fill="#E7EDFB"/><path fill-rule="evenodd" clip-rule="evenodd" d="M352.465 130.351c-3.092 2.704-5.809 5.084-8.897 7.777a.424.424 0 0 1-.619-.058l-.743-.943a.472.472 0 0 1 .055-.647c3.36-2.926 6.33-5.532 9.69-8.469.271-.247.76-.247 1.028 0 1.515 1.329 3.026 2.65 4.544 3.978v-1.598c0-.254.198-.462.441-.462h1.164c.24 0 .438.208.438.462v3.385a759.32 759.32 0 0 0 3.196 2.791c.188.16.212.451.059.648l-.743.942a.432.432 0 0 1-.622.058 7537.419 7537.419 0 0 1-8.991-7.86v-.004Z" fill="#04298C"/><path fill-rule="evenodd" clip-rule="evenodd" d="M345.055 142.488v-4.407c2.474-2.158 4.944-4.323 7.414-6.481l7.41 6.485c-3.908 1.099-8.081 3.442-10.78 6.026l-2.811-3.33-1.229 1.707h-.004Zm6.222-7.544h.956v1.001h-.956v-1.001Zm1.418 0h.959v1.001h-.959v-1.001Zm.962 1.488v1.001h-.959v-1.001h.959Zm-1.424 1.001h-.956v-1.001h.956v1.001Zm-3.547 10.608h-2.915c-.396 0-.719-.335-.719-.753v-3.385l3.634 4.138Z" fill="#04298C"/><path fill-rule="evenodd" clip-rule="evenodd" d="M349.311 148.041c2.338-4.127 5.489-7.286 10.565-9.953v9.2c0 .418-.32.753-.719.753h-9.846Z" fill="#04298C"/><path d="M366.226 147.575v-6.893h2.349c.479 0 .906.091 1.278.269.372.182.66.433.869.754.208.32.312.691.312 1.113 0 .422-.094.783-.278 1.103-.184.32-.441.575-.764.757a2.247 2.247 0 0 1-1.119.276h-1.945v2.621h-.702Zm.702-3.203h1.945c.431 0 .782-.145 1.06-.433.278-.287.413-.662.413-1.121 0-.458-.166-.844-.496-1.131-.33-.288-.754-.434-1.272-.434h-1.65v3.123-.004Zm7.229 3.32c-.525 0-.99-.11-1.393-.332a2.47 2.47 0 0 1-.952-.909c-.229-.386-.344-.834-.344-1.34 0-.505.111-.949.337-1.339a2.42 2.42 0 0 1 .935-.91 2.778 2.778 0 0 1 1.358-.331c.507 0 .955.113 1.317.339.361.225.635.538.823.935.188.397.285.855.285 1.372h-4.662l.25-.186c0 .452.083.841.25 1.161.167.32.406.568.716.739.309.171.667.255 1.077.255.409 0 .781-.095 1.076-.281a2.04 2.04 0 0 0 .695-.724l.546.306a2.36 2.36 0 0 1-.542.644 2.443 2.443 0 0 1-.782.437 2.977 2.977 0 0 1-.993.156v.008h.003Zm-1.987-2.875-.275-.179h4.204l-.274.186c0-.349-.07-.652-.212-.917a1.524 1.524 0 0 0-.594-.615c-.254-.149-.56-.222-.918-.222-.357 0-.67.073-.965.222a1.817 1.817 0 0 0-.706.611c-.173.259-.26.564-.26.91v.004Zm4.682-1.624v-.542h3.363v.542h-3.363Zm2.577 4.498c-.503 0-.896-.12-1.181-.36-.285-.24-.427-.579-.427-1.019v-5.197h.656v5.197c0 .262.084.469.251.615.166.149.399.222.698.222.087 0 .174-.011.257-.033.083-.022.205-.084.365-.182l.274.513a2.038 2.038 0 0 1-.49.2c-.132.03-.267.044-.403.044Zm4.437 0c-.431 0-.806-.04-1.129-.124a3.06 3.06 0 0 1-.834-.338 2.395 2.395 0 0 1-.573-.484 2.086 2.086 0 0 1-.344-.561l.656-.225c.126.309.369.578.733.811.365.233.81.35 1.335.35.67 0 1.191-.117 1.563-.35.372-.233.556-.538.556-.92s-.17-.663-.514-.881c-.344-.218-.786-.393-1.334-.517l-.775-.178a4.274 4.274 0 0 1-.935-.339 2.016 2.016 0 0 1-.695-.567c-.173-.229-.26-.513-.26-.848 0-.615.219-1.099.656-1.441.438-.346 1.074-.517 1.911-.517.504 0 .935.076 1.3.233.364.153.656.346.879.571.222.226.368.455.441.684l-.643.226c-.16-.36-.42-.64-.782-.841-.361-.2-.795-.302-1.306-.302-.538 0-.966.117-1.282.353a1.131 1.131 0 0 0-.476.954c0 .36.125.633.372.811.247.182.57.317.973.408l.774.167c.772.164 1.362.426 1.776.783.41.356.618.738.618 1.146 0 .349-.097.67-.295.961-.198.291-.494.527-.886.702-.393.178-.886.266-1.473.266l-.007.007Zm6.161.001c-.524 0-.99-.11-1.393-.332a2.442 2.442 0 0 1-.952-.909c-.229-.386-.344-.834-.344-1.34 0-.505.111-.949.337-1.339.226-.386.542-.691.945-.91a2.865 2.865 0 0 1 1.383-.331c.517 0 .976.102 1.376.31.399.207.708.494.927.862l-.566.277a1.77 1.77 0 0 0-.705-.666 2.177 2.177 0 0 0-1.032-.241c-.386 0-.74.088-1.042.262a1.878 1.878 0 0 0-.709.717c-.17.302-.257.659-.257 1.059 0 .401.087.754.26 1.059.174.306.414.546.719.717a2.08 2.08 0 0 0 1.05.262c.392 0 .743-.091 1.049-.269.306-.182.538-.433.698-.753l.58.276a2.368 2.368 0 0 1-.934.946c-.403.23-.869.346-1.393.346l.003-.003Zm3.255-.118v-4.923h.656v4.923h-.656Zm.271-2.7c0-.531.111-.96.333-1.288.223-.328.511-.568.862-.724a2.79 2.79 0 0 1 1.118-.233v.542a2.82 2.82 0 0 0-.924.153 1.543 1.543 0 0 0-.726.513c-.191.24-.285.568-.285.979l-.382.058h.004Zm5.33 2.818c-.525 0-.99-.11-1.393-.332a2.442 2.442 0 0 1-.952-.909c-.23-.386-.344-.834-.344-1.34 0-.505.111-.949.337-1.339.226-.386.538-.691.934-.91a2.781 2.781 0 0 1 1.359-.331c.507 0 .955.113 1.316.339.362.225.636.538.824.935.187.397.285.855.285 1.372h-4.663l.251-.186c0 .452.083.841.25 1.161.166.32.406.568.715.739.31.171.667.255 1.077.255.41 0 .782-.095 1.077-.281a2.04 2.04 0 0 0 .695-.724l.546.306a2.36 2.36 0 0 1-.542.644 2.443 2.443 0 0 1-.782.437 2.979 2.979 0 0 1-.994.156v.008h.004Zm-1.987-2.875-.275-.179h4.204l-.275.186c0-.349-.069-.652-.212-.917a1.536 1.536 0 0 0-.594-.615c-.253-.149-.559-.222-.917-.222s-.67.073-.966.222a1.814 1.814 0 0 0-.705.611 1.58 1.58 0 0 0-.26.91v.004Zm7.646 2.875c-.525 0-.991-.11-1.394-.332a2.449 2.449 0 0 1-.952-.909c-.229-.386-.343-.834-.343-1.34 0-.505.111-.949.337-1.339.225-.386.538-.691.934-.91a2.778 2.778 0 0 1 1.358-.331c.508 0 .956.113 1.317.339.361.225.636.538.824.935.187.397.284.855.284 1.372h-4.662l.25-.186c0 .452.084.841.25 1.161.167.32.407.568.716.739.309.171.667.255 1.077.255.41 0 .782-.095 1.077-.281a2.05 2.05 0 0 0 .695-.724l.545.306a2.438 2.438 0 0 1-1.323 1.081 2.979 2.979 0 0 1-.994.156v.008h.004Zm-1.988-2.875-.274-.179h4.204l-.275.186c0-.349-.069-.652-.212-.917a1.536 1.536 0 0 0-.594-.615c-.254-.149-.559-.222-.917-.222s-.671.073-.966.222a1.814 1.814 0 0 0-.705.611 1.58 1.58 0 0 0-.261.91v.004Zm5.285 2.758v-4.924h.611l.045.906v4.018h-.656Zm3.922-2.522c0-.546-.07-.957-.212-1.241-.142-.284-.334-.473-.58-.575a2.112 2.112 0 0 0-.824-.153c-.517 0-.92.171-1.212.517-.292.346-.438.826-.438 1.441h-.403c0-.524.084-.975.25-1.35.167-.375.414-.662.737-.862.323-.2.719-.299 1.185-.299.423 0 .795.077 1.118.233.323.153.58.4.765.735.184.335.274.779.267 1.329v.225h-.657.004Zm0 2.522v-2.522h.657v2.522h-.657Zm2.238-6.205a.45.45 0 0 1-.306-.116.366.366 0 0 1-.132-.277c0-.113.045-.204.132-.28a.448.448 0 0 1 .306-.113c.125 0 .226.036.313.113a.372.372 0 0 1 0 .557.433.433 0 0 1-.313.116Zm-.337 6.205v-4.924h.657v4.924h-.657Zm2.085 0v-4.924h.611l.045.906v4.018h-.656Zm3.922-2.522c0-.546-.069-.957-.212-1.241-.142-.284-.333-.473-.58-.575a2.11 2.11 0 0 0-.823-.153c-.518 0-.921.171-1.213.517-.292.346-.438.826-.438 1.441H416c0-.524.084-.975.251-1.35a1.88 1.88 0 0 1 .736-.862c.323-.2.719-.299 1.185-.299.424 0 .795.077 1.118.233.324.153.581.4.765.735.184.335.274.779.267 1.329v.225h-.656.003Zm0 2.522v-2.522h.657v2.522h-.657Zm3.999 0c-.48 0-.907-.109-1.279-.324a2.276 2.276 0 0 1-.872-.903c-.212-.382-.316-.822-.316-1.313 0-.492.104-.925.316-1.299.212-.375.504-.666.872-.881.372-.215.796-.32 1.279-.32.483 0 .875.105 1.23.32.354.215.628.506.83.881.201.374.299.807.299 1.299 0 .491-.101.931-.299 1.313a2.285 2.285 0 0 1-.83.903c-.355.218-.765.324-1.23.324Zm-.056 2.085c-.326 0-.629-.033-.907-.098a4.988 4.988 0 0 1-.698-.211 11.557 11.557 0 0 1-.392-.164l.239-.491c.087.047.219.102.4.171.177.069.385.127.622.178.236.051.483.073.736.073.379 0 .716-.069 1.015-.208a1.56 1.56 0 0 0 .705-.651c.17-.295.257-.677.257-1.143v-4.469h.657v4.469c0 .572-.119 1.045-.355 1.423a2.16 2.16 0 0 1-.955.841c-.4.182-.841.276-1.32.276l-.004.004Zm.184-2.609c.351 0 .66-.088.928-.262.271-.175.479-.411.632-.713a2.29 2.29 0 0 0 .23-1.045c0-.393-.077-.731-.23-1.03a1.757 1.757 0 0 0-.632-.702 1.72 1.72 0 0 0-.938-.255c-.379 0-.712.084-1.004.255a1.795 1.795 0 0 0-.681.702 2.115 2.115 0 0 0-.247 1.03c0 .389.084.742.25 1.045a1.87 1.87 0 0 0 1.692.975Zm-57.693-8.927v-6.893h4.906v1.23h-3.408v1.653h2.838v1.23h-2.838v2.776h-1.498v.004Zm6.007 0V133.2h1.441v4.924h-1.441Zm1.014-2.591c0-.532.115-.972.344-1.318.229-.349.525-.608.886-.779a2.6 2.6 0 0 1 1.129-.254v1.259c-.334 0-.65.036-.945.109-.295.073-.535.189-.716.353a.819.819 0 0 0-.274.63h-.427.003Zm5.869 2.707c-.538 0-1.014-.109-1.431-.331a2.482 2.482 0 0 1-.976-.91 2.515 2.515 0 0 1-.355-1.339c0-.506.122-.95.365-1.339a2.54 2.54 0 0 1 1.004-.91 3.193 3.193 0 0 1 1.47-.331c.479 0 .924.113 1.327.339.403.225.729.556.973.993.243.437.364.968.364 1.59h-4.141l.132-.116c0 .244.066.455.202.633.135.182.309.32.524.415.216.095.445.142.695.142.299 0 .542-.058.733-.171a1.26 1.26 0 0 0 .438-.448l1.289.451a2.45 2.45 0 0 1-1.463 1.172 3.78 3.78 0 0 1-1.146.157h-.004v.003Zm-1.191-3.082-.132-.116h2.633l-.121.116c0-.237-.063-.426-.185-.568a1.09 1.09 0 0 0-.451-.309 1.481 1.481 0 0 0-.518-.098c-.167 0-.347.032-.535.098a1.181 1.181 0 0 0-.486.309c-.136.142-.202.331-.202.568h-.003Zm7.512 3.082c-.538 0-1.014-.109-1.431-.331a2.476 2.476 0 0 1-.976-.91c-.237-.385-.355-.833-.355-1.339s.122-.95.365-1.339a2.54 2.54 0 0 1 1.004-.91 3.19 3.19 0 0 1 1.47-.331c.479 0 .924.113 1.327.339.403.225.729.556.972.993.244.437.365.968.365 1.59h-4.141l.132-.116c0 .244.066.455.202.633.135.182.309.32.524.415.216.095.445.142.695.142.299 0 .542-.058.733-.171a1.26 1.26 0 0 0 .438-.448l1.289.451a2.45 2.45 0 0 1-1.463 1.172 3.785 3.785 0 0 1-1.146.157h-.004v.003Zm-1.191-3.082-.132-.116h2.633l-.122.116c0-.237-.062-.426-.184-.568a1.09 1.09 0 0 0-.451-.309 1.485 1.485 0 0 0-.518-.098c-.167 0-.347.032-.535.098a1.181 1.181 0 0 0-.486.309c-.136.142-.202.331-.202.568h-.003Z" fill="#04298C"/><path d="m372.469 190.538-51.45.646c-3.511.044-6.362 2.826-6.362 6.214v22.655c0 3.388 2.851 6.076 6.362 6.005l51.45-1.041c3.427-.07 6.201-2.833 6.201-6.174v-22.335c0-3.341-2.774-6.014-6.201-5.97Z" fill="#fff"/><g clip-path="url(#clip0_1828_6443)" fill="#1E2431"><path d="M326.869 208.075c-.001-.252-.01-.49-.011-.699-.007-1.329-.63-1.991-1.151-2.311a3.39 3.39 0 0 0-1.74-.44c-1.289.006-2.237.384-2.82 1.122a2.853 2.853 0 0 0-.579 1.523.716.716 0 0 0 .229.504.68.68 0 0 0 .47.179.63.63 0 0 0 .457-.137.663.663 0 0 0 .24-.423c.145-.715.473-1.379 1.889-1.386.751-.004 1.241.152 1.499.479a.969.969 0 0 1 .244.732c.001.242-.086.539-.782.701-.452.103-.927.162-1.386.218l-.22.028c-2.604.33-2.99 1.748-2.986 2.562.008 1.477 1.738 2.304 2.985 2.338l.23-.001c.472.008.941-.079 1.38-.257l.037-.016c.431-.171.82-.436 1.141-.776.322-.341.568-.749.722-1.196.2-.563.176-1.722.152-2.744Zm-1.317 1.51c.008 1.693-1.569 2.071-2.178 2.075-.83.004-1.727-.446-1.731-1.182-.004-.792.688-1.045 2.143-1.282.378-.061.994-.176 1.402-.259.124-.027.244-.068.36-.12l.004.768Zm2.564-4.153c-.002-.33.157-.497.479-.498l.337-.002c.32-.002.482.163.484.419l.002.451c.001.135-.008.27-.027.404h.029s.621-1.463 2.481-1.473c1.988-.01 3.253 1.608 3.265 3.971.013 2.426-1.397 3.993-3.327 4.003a2.473 2.473 0 0 1-1.333-.335 2.574 2.574 0 0 1-.968-1.001h-.029c.032.219.047.44.047.661l.015 3.022c.002.332-.158.498-.465.5l-.457.002c-.322.002-.482-.163-.484-.495l-.049-9.629Zm3.494 6.016c1.17-.006 2.129-.99 2.12-2.719-.009-1.655-.876-2.719-2.109-2.712-1.106.001-2.121.807-2.111 2.748.007 1.355.741 2.689 2.1 2.683Zm4.824-6.059c-.002-.33.157-.497.48-.498l.336-.002c.321-.002.483.163.484.419l.003.451c0 .135-.009.27-.027.404h.029s.621-1.463 2.48-1.472c1.988-.011 3.254 1.607 3.266 3.97.012 2.426-1.397 3.993-3.327 4.003a2.47 2.47 0 0 1-1.333-.335 2.567 2.567 0 0 1-.968-1.001h-.029c.031.219.047.44.047.661l.015 3.022c.002.332-.158.498-.465.5l-.453.002c-.322.002-.483-.163-.485-.495l-.053-9.629Zm3.495 6.016c1.169-.006 2.128-.99 2.119-2.719-.008-1.655-.875-2.719-2.109-2.712-1.11.006-2.129.807-2.119 2.748.013 1.355.751 2.69 2.11 2.683h-.001Zm5.093-5.291-.464.002a.423.423 0 0 1-.358-.128.446.446 0 0 1-.128-.367l-.001-.195a.458.458 0 0 1 .288-.475.449.449 0 0 1 .192-.024l.468-.002-.002-.361c-.015-2.407 1.898-2.808 2.661-2.812l.176-.001c.318-.002.48.178.482.494l.001.285c.002.332-.172.468-.508.5-.541.033-1.403.172-1.396 1.587l.002.301 1.271-.007a.437.437 0 0 1 .462.296.444.444 0 0 1 .024.198l.001.195a.462.462 0 0 1-.124.369.436.436 0 0 1-.357.131l-1.271.007.03 5.851c.002.331-.157.498-.48.499l-.453.003c-.306.001-.482-.163-.484-.495l-.032-5.851Zm7.362-1.483c2.208-.011 3.999 1.65 4.011 3.952.012 2.302-1.762 4.009-3.97 4.021-2.208.011-3.983-1.665-3.995-3.982-.012-2.317 1.752-3.98 3.954-3.991Zm.035 6.71c1.404-.008 2.537-1.156 2.529-2.751-.008-1.594-1.153-2.702-2.557-2.695-1.404.007-2.538 1.141-2.529 2.72.008 1.578 1.169 2.733 2.557 2.726Zm5.175-9.069c-.002-.329.158-.496.481-.498l.453-.002c.306-.002.482.163.484.493l.04 7.868c.005.858.371.976.677 1.004a.396.396 0 0 1 .364.273.423.423 0 0 1 .02.162l.002.36c.001.315-.129.512-.495.513-.786.004-1.975-.215-1.985-2.126l-.041-8.047Zm3.761 2.99c-.002-.331.173-.497.479-.499l.454-.002c.322-.002.483.163.485.493l.034 6.62c.001.331-.158.498-.48.5l-.45.002c-.306.001-.483-.163-.485-.495l-.037-6.619Zm6.62-.711c2.208-.011 3.999 1.649 4.011 3.952.012 2.302-1.762 4.009-3.97 4.021-2.208.011-3.985-1.665-3.996-3.982-.012-2.317 1.746-3.98 3.955-3.991Zm.035 6.71c1.404-.008 2.537-1.156 2.529-2.751-.008-1.595-1.153-2.702-2.557-2.695-1.404.007-2.538 1.141-2.53 2.72.008 1.578 1.169 2.733 2.558 2.726Z"/></g><path d="m444.545 189.632-49.803.625c-3.398.043-6.156 2.78-6.156 6.112v22.287c0 3.333 2.758 5.979 6.156 5.91l49.803-1.008c3.318-.067 6.004-2.786 6.004-6.073v-21.977c0-3.287-2.686-5.918-6.004-5.876Z" fill="#fff"/><g clip-path="url(#clip1_1828_6443)" fill="#E42127"><path d="M400.899 212.034c-.703 1.045-1.87 1.633-3.009 1.642-2.204.018-3.877-1.828-3.9-4.653-.02-2.511 1.358-4.713 3.549-4.73 2.034-.017 3.498 2.072 3.518 4.583.002.241-.01.483-.04.685l-5.107.042c.116 1.263.959 2.132 2.006 2.124.836-.007 1.497-.591 1.847-1.055l1.136 1.367v-.005Zm-1.871-4.22c-.066-.797-.665-1.573-1.473-1.567-.809.007-1.482.776-1.567 1.591l3.04-.024Zm3.127 5.636-.073-9.009 1.902-.015.005.724c.561-.56 1.256-.92 2.073-.926 1.02-.009 1.947.54 2.565 1.428.493.704.771 1.611.784 3.156l.037 4.589-1.975.016-.038-4.774c-.008-.893-.177-1.358-.455-1.687-.26-.313-.656-.495-1.115-.491-.836.006-1.515.664-1.782 1.126l.047 5.853-1.974.016-.001-.006Zm26.447-.214-1.901.015-.006-.724c-.601.634-1.297.92-2.041.926-1.093.009-2.131-.578-2.79-1.499-.586-.815-.957-1.925-.967-3.155-.022-2.656 1.573-4.714 3.58-4.73a3.006 3.006 0 0 1 2.166.892l-.006-.724 1.901-.016.073 9.015h-.009Zm-2.022-5.837c-.414-.665-1.074-1.103-1.832-1.097-1.157.01-1.892 1.184-1.881 2.487.011 1.415.855 2.448 1.962 2.439.744-.006 1.393-.455 1.768-1.132l-.022-2.697h.005Zm16.157 5.722-1.901.016-.006-.725c-.601.634-1.297.921-2.041.927-1.093.009-2.131-.578-2.79-1.5-.586-.815-.957-1.924-.967-3.154-.022-2.657 1.573-4.715 3.58-4.731a3.01 3.01 0 0 1 2.166.892l-.006-.724 1.901-.016.073 9.015h-.009Zm-2.022-5.836c-.414-.665-1.074-1.104-1.832-1.098-1.157.01-1.892 1.184-1.881 2.487.011 1.416.855 2.448 1.962 2.439.744-.006 1.393-.455 1.768-1.132l-.022-2.696h.005Zm-19.934-3.108c-.212-.038-.382-.07-.671-.068-.896.008-1.7.441-2.131 1.113l-.008-.91-1.901.015.073 9.015 1.975-.016-.046-5.667c.239-.541.917-1.311 1.78-1.318.29-.002.575.046.718.09l.23.054-.019-2.303v-.005Zm-6.196 6.707-1.979.016.02 2.471 1.979-.016-.02-2.471Zm-3.959.032 1.975-.016-.037-4.499 2.434-.02-.016-2.044-2.434.019-.021-2.51-1.974.016.073 9.054Zm23.379-.19-1.979.016.02 2.472 1.979-.017-.02-2.471Z"/><path d="m430.047 210.758 1.979-.016-.036-4.499 2.429-.02-.017-2.044-2.429.02-.02-2.511-1.98.016.074 9.054Zm13.408-7.641c-.007-.843.534-1.527 1.232-1.532.698-.006 1.25.669 1.257 1.512.007.842-.534 1.526-1.232 1.532-.698.006-1.25-.67-1.257-1.512Zm1.254 1.186c.537-.004.96-.547.955-1.204-.005-.657-.437-1.193-.974-1.189-.537.005-.96.547-.955 1.205.005.657.437 1.192.974 1.188Zm-.178-1.077.005.657-.289.003-.013-1.556.487-.004c.161-.002.248.043.318.121.078.083.13.207.131.347a.445.445 0 0 1-.158.361.218.218 0 0 1-.078.045l.387.677-.316.002-.359-.654-.111.001h-.004Zm.204-.288c.064-.001.101-.018.124-.052a.175.175 0 0 0-.002-.174c-.023-.033-.056-.055-.124-.055l-.207.002.002.286.207-.001v-.006Z"/></g><path d="m385.822 187.361-2.323.028v-24.04l2.323-.016v24.028Zm-50.051 70.61-53.181 1.445c-3.63.099-6.576 2.971-6.576 6.416v23.035c0 3.445 2.946 6.135 6.576 6.008l53.181-1.853c3.541-.123 6.408-2.976 6.408-6.371v-22.706c0-3.396-2.867-6.071-6.408-5.974Z" fill="#fff"/><g clip-path="url(#clip2_1828_6443)"><path d="m287.963 276.619-.254-10.997 20.994-.486 20.994-.486.255 10.997.254 10.997-20.994.486-20.995.486-.254-10.997Z" fill="#FDFDFD"/><path d="M300.783 287.295c-.282-.06-.485-.243-.549-.496-.034-.132-.011-.162.124-.164.128-.003.147.009.168.108.023.108.149.233.279.277a.771.771 0 0 0 .535-.031c.144-.068.211-.159.208-.283-.004-.185-.098-.253-.569-.406-.356-.116-.447-.157-.555-.244-.121-.098-.169-.2-.173-.368-.005-.247.122-.424.382-.53.169-.069.528-.08.702-.023.211.071.426.297.429.455.002.059-.034.078-.152.081-.094.002-.112-.011-.185-.132-.064-.105-.179-.159-.355-.169-.175-.009-.306.029-.4.117-.133.123-.116.331.033.416.039.022.22.086.401.142.473.144.619.23.714.416a.626.626 0 0 1 .029.453c-.069.171-.271.321-.502.374a1.646 1.646 0 0 1-.564.007Zm11.698-.28a.946.946 0 0 1-.236-.099c-.168-.106-.304-.332-.289-.483.005-.054.011-.057.137-.06l.132-.003.035.097c.054.15.108.207.244.264a.807.807 0 0 0 .542.005c.257-.113.314-.372.116-.523-.049-.037-.226-.11-.448-.185-.438-.147-.575-.221-.661-.356a.515.515 0 0 1 .057-.615c.244-.254.767-.314 1.103-.126.162.091.33.363.27.437-.014.016-.069.03-.131.031-.1.002-.112-.003-.147-.065-.1-.172-.238-.244-.458-.24-.321.008-.519.218-.406.43.053.099.14.142.515.256.162.05.343.115.402.144.275.137.395.355.344.624-.043.224-.245.411-.509.468a1.613 1.613 0 0 1-.612-.001Zm2.366-.047c-.302-.064-.544-.304-.651-.643a1.996 1.996 0 0 1-.039-.727c.095-.547.459-.85.998-.83a.927.927 0 0 1 .88.735 2.24 2.24 0 0 1-.002.779c-.088.365-.311.596-.654.677-.162.037-.38.041-.532.009Zm.497-.289c.209-.074.336-.244.39-.521.079-.405-.022-.793-.257-.987a.612.612 0 0 0-.923.195c-.069.138-.097.296-.091.528.011.44.125.659.404.779a.709.709 0 0 0 .477.006Zm-27.152-.179-.025-1.073.521-.006.522-.005.148.066c.25.111.363.279.369.549.006.311-.161.53-.485.636-.022.007-.036.025-.029.04.006.015.14.198.297.407.157.21.286.391.286.402.001.012-.076.023-.18.025l-.182.004-.284-.413-.285-.412-.186.004-.186.004.004.42.004.419-.142.003-.143.004-.024-1.074Zm1.023-.081a.503.503 0 0 0 .129-.118c.054-.071.06-.097.056-.24-.004-.19-.051-.27-.202-.342-.079-.038-.135-.045-.397-.046-.239 0-.309.006-.323.029-.022.035-.008.748.015.77.009.008.16.008.335 0 .249-.011.333-.023.387-.053Zm1.331.033-.019-1.067.68-.015.68-.016.003.117.003.116-.527.023-.526.023.001.335.002.334.478-.011c.263-.006.491-.003.507.007.02.011.028.052.025.121l-.004.104-.494.022-.494.022.002.345.002.345.504-.011c.277-.007.519-.006.538 0 .026.009.036.042.038.127l.003.114-.692.016-.691.016-.019-1.067Zm1.95 1c-.001-.04.679-2.083.703-2.112.014-.018.081-.029.185-.031l.163-.004.031.068c.045.1.761 2.017.762 2.041 0 .011-.069.019-.157.017l-.157-.002-.096-.253-.096-.253-.428.01-.428.01-.084.257-.084.257-.157.01c-.108.006-.157.002-.157-.015Zm1.221-.789c.012-.021-.304-.885-.335-.914-.019-.017-.313.854-.311.921 0 .02.079.025.317.019.175-.004.322-.015.329-.026Zm1.269.728a28.888 28.888 0 0 1-.029-1.067l-.019-1.041.143-.003.143-.003.027.939.028.939.469-.011c.528-.012.525-.013.517.141l-.004.092-.632.02c-.493.016-.634.015-.643-.006Zm3.154-1.114-.019-1.067.68-.016.681-.016.003.117.002.117-.532.018-.532.018.008.339.008.339.467-.01c.541-.013.549-.011.542.136l-.005.095-.494.022-.493.022.002.346.002.345.513-.012c.578-.014.571-.015.563.139l-.005.092-.686.022-.686.021-.019-1.067Zm4.858.928a23.257 23.257 0 0 1-.038-.939l-.026-.913-.34.002c-.237.002-.344-.005-.357-.023-.023-.034-.026-.167-.004-.202.013-.021.203-.03.872-.041l.854-.014.003.116.003.117-.351.019-.351.019.016.939.016.94-.143.003c-.095.002-.147-.006-.154-.023Zm1.263-.04c.001-.02.155-.504.343-1.075l.343-1.038.184-.004.183-.005.384 1.021c.211.561.384 1.038.384 1.059.001.035-.016.039-.147.036l-.149-.003-.087-.229a1.989 1.989 0 0 0-.113-.258c-.035-.039-.816-.023-.848.018a2.038 2.038 0 0 0-.097.268l-.076.24-.152.004c-.13.003-.152-.002-.152-.034Zm1.211-.793a10.537 10.537 0 0 0-.324-.882c-.029-.047-.008-.099-.189.468a3.776 3.776 0 0 0-.128.454c.007.007.154.009.327.005.287-.007.315-.011.314-.045Zm1.489-.15c-.011-.505-.029-.93-.039-.945-.012-.017-.119-.025-.357-.023l-.339.002-.003-.117-.003-.117.863-.025.862-.026-.004.123-.003.122-.346.014-.345.014.016.939.016.939-.148.01-.148.009-.022-.919Zm1.583-.186-.019-1.067.68-.016.681-.015.002.116.003.117-.532.018-.532.018.008.339.008.34.48-.011c.541-.013.536-.014.529.14l-.005.092-.494.022-.493.022.002.345.002.345.513-.012c.578-.013.57-.015.563.14l-.005.091-.686.022-.686.021-.019-1.067Zm8.187-.189-.019-1.067.669-.016.67-.015.003.116.002.117-.521.018-.521.018.008.339.008.339.482-.011.483-.011.014.05a.46.46 0 0 1 .008.122l-.005.072-.483.022-.482.021v.468l-.001.467-.148.01-.148.009-.019-1.068Zm2.495.07-.028-.94-.351-.003-.352-.002-.002-.117-.003-.117.854-.025c.669-.02.859-.019.873.001.029.042.025.178-.006.204-.017.015-.16.03-.356.038l-.328.013.011.935.011.934-.148.01-.148.009-.027-.94Zm1.989.665c-.289-.79-.651-1.847-.642-1.872.014-.037.287-.05.311-.015.008.013.133.385.278.829.145.443.272.81.283.815.01.005.123-.312.251-.705.128-.392.244-.727.258-.744.038-.047.167-.042.201.008.016.023.145.352.286.731.142.38.267.69.278.69.011-.001.138-.37.282-.821.144-.451.273-.834.287-.851.017-.021.071-.032.165-.034.118-.003.14.002.141.034.001.02-.157.507-.352 1.082l-.353 1.044-.164-.002-.165-.003-.236-.626c-.13-.344-.245-.623-.256-.62-.01.004-.053.107-.095.231l-.216.636-.14.412-.16.004-.16.003-.082-.226Zm2.682.149c-.012-.017.655-2.061.691-2.118.011-.017.073-.028.178-.03.102-.003.168.005.183.022.021.025.777 2.051.778 2.085 0 .009-.068.017-.151.019l-.151.004-.102-.258-.102-.258-.425.01-.425.01-.087.257-.087.257-.144.009c-.079.005-.149.001-.156-.009Zm1.207-.794c.013-.022-.319-.93-.34-.929-.015 0-.308.895-.306.936.001.031.627.024.646-.007Zm1.269.727a28.699 28.699 0 0 1-.029-1.066l-.018-1.041.515-.012c.391-.009.535-.005.594.016.25.09.407.254.446.465.059.325-.091.61-.383.723-.06.023-.113.051-.116.062-.004.011.126.197.289.414.162.217.295.402.295.411 0 .01-.083.02-.184.022l-.184.004-.288-.418-.288-.418-.185.004-.185.005.009.424.01.425-.143.003c-.094.002-.147-.005-.155-.023Zm.933-1.103a.393.393 0 0 0 .229-.567c-.087-.173-.231-.22-.622-.202l-.274.013.002.371c.002.204.008.383.014.398.015.035.545.025.651-.013Zm1.289 1.064c-.018-.017-.067-2.05-.05-2.096.011-.03.093-.036.692-.05l.679-.016-.003.123-.004.122-.527.023-.526.023.007.329.008.329.489-.001c.53-.001.531-.001.534.119.004.127.02.123-.498.135-.261.007-.487.02-.503.029-.021.014-.024.098-.014.346l.014.327.527-.002.527-.001.009.122.01.122-.678.015c-.373.009-.685.01-.693.002Zm.756-3.901c-.82-.399-1.474-1.009-2.069-1.929a7.072 7.072 0 0 1-.975-2.376c-.143-.658-.128-.363-.245-5.045-.093-3.762-.103-4.306-.075-4.317.038-.015.208.088.615.372.408.287.67.496 1.026.82 1.016.924 1.59 1.818 1.771 2.755.029.151.053.96.145 4.972.061 2.636.105 4.807.099 4.825-.019.05-.043.044-.292-.077Zm-29.654.65c-.021-.019-.048-.932-.118-3.981-.061-2.629-.101-4.025-.12-4.161-.121-.895-.476-1.678-1.049-2.313a3.706 3.706 0 0 0-1.405-.945c-.882-.342-2.021-.37-2.954-.072a3.78 3.78 0 0 0-1.855 1.284 4.34 4.34 0 0 1-.202.24 1.948 1.948 0 0 0-.203.334c-.247.494-.379.953-.456 1.591-.016.132 0 1.275.057 4.184l.08 4.002-1.536.041c-1.425.038-1.539.038-1.565.005-.022-.028-.06-1.398-.182-6.685a872.69 872.69 0 0 1-.141-6.683c.007-.019.023-.035.036-.035.013 0 .12.066.237.148.264.183.727.607 1.019.933.129.143.235.244.257.242.021-.001.105-.085.187-.186a7.367 7.367 0 0 1 1.366-1.243 7.253 7.253 0 0 1 1.983-.936 8.085 8.085 0 0 1 3.59-.217c.684.123 1.541.419 1.904.658.068.044.238.15.379.236a6.033 6.033 0 0 1 1.842 1.764.552.552 0 0 0 .123.15c.013 0 .055-.056.095-.124.218-.374.558-.81.907-1.163 1.198-1.211 2.89-1.867 4.789-1.856 1.692.01 3.16.479 4.425 1.413a6.933 6.933 0 0 1 1.975 2.359c.396.791.636 1.605.74 2.514.017.153.062 1.708.119 4.206.084 3.594.089 3.964.058 3.976-.051.02-3.044.085-3.076.067-.021-.012-.049-.906-.127-4.038-.1-4.01-.1-4.023-.154-4.302a4.4 4.4 0 0 0-.481-1.37 3.721 3.721 0 0 0-2.313-1.819c-.965-.266-2.104-.19-2.983.198-.541.239-1 .579-1.356 1.003-.534.639-.865 1.466-.945 2.365-.012.137.013 1.529.073 4.147.062 2.676.084 3.954.069 3.982-.021.041-.061.043-1.542.077-1.153.026-1.526.029-1.547.01Zm15.221-.362c-.008-.008-.085-3.022-.17-6.698-.129-5.591-.149-6.684-.125-6.684.04-.001.377.233.651.453.245.197.565.498.741.698.062.071.128.129.146.129.018 0 .08-.059.138-.132.058-.072.201-.234.318-.358.962-1.02 2.333-1.754 3.79-2.027.518-.097.698-.113 1.402-.128.759-.017 1.031.004 1.596.12a7.38 7.38 0 0 1 1.548.513l.156.075.047 1.789c.039 1.48.042 1.788.017 1.789-.016 0-.063-.044-.106-.099a4.81 4.81 0 0 0-.626-.594 3.986 3.986 0 0 0-1.665-.714 4.464 4.464 0 0 0-.955-.066c-1.421.032-2.6.655-3.303 1.746-.325.503-.522 1.029-.632 1.69l-.043.256.088 4.044c.048 2.225.083 4.066.077 4.093l-.01.048-1.533.035c-.843.02-1.539.03-1.547.022Zm12.779-14.656a1.952 1.952 0 0 1-1.326-.685 2.093 2.093 0 0 1-.331-.603 2.276 2.276 0 0 1-.055-.856 1.882 1.882 0 0 1 1.255-1.418c.076-.026.243-.061.371-.077a1.94 1.94 0 0 1 1.211.233c.192.104.517.411.641.608.177.28.269.585.277.92.016.688-.339 1.3-.952 1.642a2.012 2.012 0 0 1-1.091.236Z" fill="#C7DB5F"/><path d="M300.782 287.295c-.282-.06-.484-.243-.548-.496-.034-.132-.012-.162.124-.165.128-.002.147.01.168.109.023.107.149.233.278.277.16.055.382.042.536-.031.144-.068.211-.159.208-.283-.004-.185-.098-.253-.569-.407-.356-.116-.447-.156-.555-.243-.121-.098-.169-.2-.173-.368-.006-.247.122-.424.381-.53.169-.069.529-.08.703-.023.211.07.426.297.429.455.002.059-.034.078-.153.081-.093.002-.111-.011-.185-.132-.063-.105-.178-.159-.354-.169-.175-.009-.306.029-.4.116-.133.124-.117.332.033.417.039.022.219.086.401.141.473.145.619.231.714.417a.626.626 0 0 1 .029.453c-.069.171-.271.321-.502.374a1.652 1.652 0 0 1-.565.007Zm11.699-.28a.968.968 0 0 1-.236-.099c-.168-.106-.304-.332-.289-.483.005-.054.011-.057.137-.06l.132-.003.035.097c.054.149.108.207.244.264a.807.807 0 0 0 .542.005c.257-.113.314-.372.116-.523-.049-.037-.227-.11-.448-.185-.438-.147-.575-.221-.661-.356a.513.513 0 0 1 .057-.615c.244-.254.767-.314 1.103-.126.162.091.33.363.27.437-.014.016-.069.029-.132.031-.099.002-.111-.003-.147-.065-.099-.172-.237-.244-.457-.24-.321.007-.52.218-.406.43.053.099.14.142.515.256.162.05.343.115.402.144.275.137.395.354.344.624-.043.224-.245.411-.509.468a1.613 1.613 0 0 1-.612-.001Zm2.366-.047c-.302-.064-.545-.304-.651-.643a1.975 1.975 0 0 1-.039-.727c.095-.547.459-.85.997-.83a.927.927 0 0 1 .881.734 2.27 2.27 0 0 1-.002.78c-.088.365-.311.596-.654.676-.162.038-.38.042-.532.01Zm.497-.289c.209-.074.336-.244.39-.521.079-.405-.022-.793-.257-.987a.611.611 0 0 0-.923.195c-.069.138-.097.296-.091.528.011.44.124.659.404.779a.709.709 0 0 0 .477.006Zm-27.153-.179-.024-1.073.521-.006.522-.005.148.066c.249.111.363.279.368.548.007.312-.16.531-.484.637-.023.007-.036.025-.029.04.006.015.14.198.297.407.157.21.286.39.286.402 0 .012-.076.023-.181.025l-.181.004-.285-.413-.284-.413-.186.005-.186.004.004.419.004.42-.143.003-.142.004-.025-1.074Zm1.024-.081a.503.503 0 0 0 .129-.118c.053-.071.059-.097.056-.24-.004-.19-.051-.27-.202-.342-.079-.039-.135-.045-.397-.046-.239 0-.309.006-.323.028-.022.036-.009.749.015.77.009.009.16.009.335.001.249-.011.333-.023.387-.053Zm1.33.033-.019-1.067.681-.015.68-.016.003.117.003.116-.527.023-.526.023.001.334.002.335.478-.011c.263-.006.491-.003.507.006.019.012.028.053.025.122l-.005.104-.493.022-.494.022.002.345.002.345.504-.011c.277-.007.519-.007.538 0 .026.009.036.042.038.127l.003.114-.692.016-.692.016-.019-1.067Zm1.951 1c-.001-.04.679-2.083.703-2.113.014-.017.081-.028.184-.03l.163-.004.032.068c.045.1.761 2.017.762 2.041 0 .011-.069.019-.157.017l-.157-.003-.096-.252-.096-.253-.428.01-.428.01-.084.257-.084.257-.157.009c-.108.007-.157.003-.157-.014Zm1.221-.789c.012-.021-.304-.886-.335-.914-.019-.017-.313.854-.311.921 0 .02.078.025.317.019.175-.004.322-.016.329-.026Zm1.269.728a28.888 28.888 0 0 1-.029-1.067l-.019-1.041.143-.003.143-.003.027.939.027.939.469-.011c.529-.012.526-.013.518.141l-.005.092-.631.02c-.493.016-.634.014-.643-.006Zm3.154-1.114-.019-1.067.68-.016.681-.016.002.117.003.117-.532.018-.532.018.008.339.008.339.467-.011c.541-.012.549-.01.542.137l-.005.095-.494.022-.493.022.002.345.002.346.513-.012c.578-.014.57-.015.563.139l-.005.092-.686.022-.686.021-.019-1.067Zm4.858.928a23.257 23.257 0 0 1-.038-.939l-.026-.913-.34.002c-.238.001-.344-.006-.357-.023-.023-.034-.026-.167-.004-.202.013-.021.203-.03.872-.041l.854-.014.003.116.003.117-.351.019-.351.019.016.939.016.94-.143.003c-.095.002-.147-.006-.154-.023Zm1.263-.04c.001-.02.155-.504.343-1.075l.343-1.038.184-.005.183-.004.384 1.021c.211.561.384 1.038.384 1.059.001.035-.016.039-.147.036l-.149-.003-.087-.229a1.989 1.989 0 0 0-.113-.258c-.035-.039-.817-.023-.848.018a2.038 2.038 0 0 0-.097.268l-.076.24-.152.004c-.13.003-.152-.002-.152-.034Zm1.211-.793a10.537 10.537 0 0 0-.324-.882c-.029-.047-.008-.099-.189.468a3.567 3.567 0 0 0-.128.454c.007.007.154.009.327.005.287-.007.315-.011.314-.045Zm1.489-.15c-.012-.505-.029-.931-.039-.945-.012-.018-.119-.025-.357-.023l-.339.002-.003-.117-.003-.117.863-.025.862-.026-.004.123-.003.122-.346.014-.345.014.016.939.016.939-.148.01-.148.009-.022-.919Zm1.583-.186-.019-1.067.68-.016.681-.016.002.117.003.117-.532.018-.532.018.008.339.007.34.481-.012c.54-.012.536-.013.529.141l-.005.092-.494.022-.493.022.002.345.001.345.514-.012c.578-.013.57-.015.562.139l-.004.092-.686.022-.686.021-.019-1.067Zm8.187-.189-.019-1.068.669-.015.67-.015.002.116.003.117-.521.018-.521.018.008.339.007.339.483-.011.482-.011.015.05a.46.46 0 0 1 .008.122l-.005.072-.483.021-.482.022-.001.468v.467l-.148.01-.148.009-.019-1.068Zm2.494.07-.027-.94-.351-.003-.352-.002-.003-.117-.002-.117.854-.025c.669-.02.859-.02.873.001.029.042.025.178-.006.204-.017.015-.16.03-.356.038l-.328.013.011.935.01.934-.147.01-.148.009-.028-.94Zm1.989.665c-.288-.79-.65-1.847-.641-1.872.014-.037.287-.05.31-.015.009.013.134.385.279.829.145.443.272.809.282.815.011.005.124-.313.252-.705.128-.393.244-.727.258-.744.038-.047.167-.042.201.008.016.023.144.352.286.731.142.38.267.69.278.69.011-.001.138-.37.282-.821.144-.451.273-.834.287-.851.016-.021.071-.032.165-.034.118-.003.14.002.141.034.001.02-.157.507-.352 1.081l-.353 1.045-.164-.002-.165-.003-.236-.626c-.13-.344-.245-.623-.256-.62-.01.004-.053.107-.095.231l-.216.636-.14.412-.16.003-.16.004-.083-.226Zm2.683.149c-.012-.017.655-2.061.691-2.118.011-.017.073-.028.178-.03.102-.003.168.005.182.022.022.024.778 2.051.779 2.085 0 .008-.068.017-.151.019l-.151.004-.102-.258-.102-.258-.425.01-.425.01-.087.257-.087.256-.144.01c-.079.005-.149.001-.156-.009Zm1.207-.795c.013-.021-.32-.929-.34-.929-.015.001-.308.896-.306.937.001.031.627.024.646-.008Zm1.269.728a28.71 28.71 0 0 1-.029-1.067l-.018-1.04.515-.012c.391-.009.535-.005.594.016.25.09.407.254.446.465.059.325-.091.609-.383.723-.061.023-.113.051-.116.062-.004.011.126.197.288.414.163.216.296.402.296.411 0 .01-.083.02-.184.022l-.184.004-.288-.418-.288-.418-.185.004-.185.005.009.424.01.425-.143.003c-.095.002-.147-.006-.155-.023Zm.933-1.103a.393.393 0 0 0 .229-.567c-.087-.173-.231-.22-.622-.202l-.274.013.002.371c.002.204.008.383.014.398.015.035.545.025.651-.013Zm1.289 1.064c-.019-.017-.067-2.05-.05-2.096.011-.03.093-.036.692-.05l.679-.016-.004.123-.003.122-.527.023-.526.022.007.329.008.33.489-.001c.53-.001.531-.001.534.119.004.127.02.123-.498.135-.261.006-.488.02-.503.029-.021.014-.024.098-.014.346l.014.327.527-.002.527-.001.009.122.01.122-.678.015c-.373.009-.685.01-.693.002Zm.756-3.901c-.82-.399-1.474-1.009-2.069-1.929a7.08 7.08 0 0 1-.975-2.376c-.143-.658-.129-.363-.245-5.045-.093-3.762-.103-4.306-.075-4.317.038-.015.208.088.615.372.408.286.67.495 1.026.82 1.015.924 1.59 1.818 1.771 2.754.029.152.053.961.145 4.973.061 2.636.105 4.807.098 4.825-.018.05-.042.044-.291-.077Zm-29.654.65c-.021-.019-.048-.932-.118-3.981-.061-2.629-.101-4.025-.12-4.161-.121-.895-.476-1.678-1.049-2.313a3.72 3.72 0 0 0-1.405-.946c-.882-.341-2.021-.369-2.954-.071a3.78 3.78 0 0 0-1.855 1.284 4.34 4.34 0 0 1-.202.24 1.948 1.948 0 0 0-.203.334c-.248.494-.379.953-.456 1.591-.016.132 0 1.275.057 4.184l.08 4.002-1.536.041c-1.425.038-1.539.038-1.565.005-.022-.028-.06-1.398-.182-6.685a871.104 871.104 0 0 1-.141-6.684c.007-.018.023-.034.036-.034.013 0 .12.066.237.148.264.183.727.607 1.019.933.128.143.235.243.257.242.021-.001.105-.085.187-.186a7.367 7.367 0 0 1 1.366-1.243 7.24 7.24 0 0 1 1.983-.936 8.084 8.084 0 0 1 3.59-.217c.684.123 1.541.419 1.904.658.067.044.238.15.379.236a6.033 6.033 0 0 1 1.842 1.764.552.552 0 0 0 .123.15c.012 0 .055-.056.094-.124a6.27 6.27 0 0 1 .908-1.163c1.198-1.211 2.89-1.867 4.789-1.856 1.692.01 3.16.479 4.425 1.413a6.923 6.923 0 0 1 1.975 2.359c.396.791.636 1.605.74 2.514.017.153.061 1.708.119 4.206.084 3.593.089 3.963.058 3.976-.051.02-3.045.085-3.076.067-.021-.012-.049-.906-.127-4.038-.1-4.01-.1-4.023-.154-4.302a4.4 4.4 0 0 0-.481-1.37 3.721 3.721 0 0 0-2.313-1.819c-.965-.266-2.104-.19-2.983.198-.542.239-1 .578-1.356 1.003-.535.639-.865 1.466-.945 2.365-.012.137.012 1.529.073 4.147.062 2.676.084 3.954.069 3.982-.021.04-.061.042-1.542.077-1.153.026-1.527.029-1.547.01Zm15.095-7.047-.153-6.657.172.117c.365.247.818.642 1.205 1.05.093.097.145.137.168.127a.951.951 0 0 0 .15-.166c.149-.192.684-.724.923-.917.989-.801 2.15-1.3 3.522-1.512.425-.066 1.63-.094 1.998-.046.793.102 1.61.334 2.177.617l.111.055.046 1.736c.025.954.038 1.735.029 1.735-.009 0-.045-.037-.079-.082-.177-.231-.554-.55-.907-.769-1.004-.623-2.483-.76-3.702-.343-1.482.506-2.47 1.813-2.633 3.484-.022.229-.012.862.065 4.213l.091 3.944-1.514.035-1.515.035-.154-6.656Zm12.768-8.028a1.836 1.836 0 0 1-1.5-1.327c-.069-.261-.068-.678.002-.91.151-.498.471-.882.93-1.115.213-.108.428-.18.544-.183.033-.001.052-.01.044-.022-.009-.014.073-.023.23-.027.157-.003.24.002.231.016-.007.012.012.021.046.02.206-.004.649.172.9.36.334.248.57.598.665.982.019.077.036.126.038.108.003-.017.014.025.026.095.024.146.012.482-.017.466-.01-.006-.018.013-.018.041.002.078-.076.328-.148.474a1.877 1.877 0 0 1-1.973 1.022Z" fill="#9BA0A2"/><path d="M300.893 287.31a.754.754 0 0 1-.089-.027 7.146 7.146 0 0 0-.145-.057c-.204-.077-.365-.261-.397-.449l-.016-.1.116.004.116.003.031.093c.083.253.44.376.779.27.319-.099.397-.441.137-.605a3.195 3.195 0 0 0-.436-.172c-.39-.129-.497-.18-.595-.283-.184-.194-.146-.53.08-.705.143-.11.299-.15.573-.147.19.003.254.012.335.05.178.084.317.237.341.377.008.049.002.053-.102.061l-.112.009-.043-.087c-.068-.137-.177-.191-.398-.198-.212-.005-.312.022-.417.116-.158.141-.132.373.052.471.051.027.242.095.425.151.521.16.674.276.718.544.041.245-.094.459-.373.591a.742.742 0 0 1-.35.089 1.55 1.55 0 0 1-.23.001Zm11.731-.273a1.681 1.681 0 0 1-.433-.193.683.683 0 0 1-.199-.352l-.008-.074.11-.009.111-.008.03.1c.09.298.609.42.911.214.226-.155.222-.416-.009-.556a3.325 3.325 0 0 0-.409-.158c-.418-.138-.541-.201-.635-.328-.066-.089-.074-.115-.077-.252-.003-.134.005-.166.065-.27.058-.099.092-.129.218-.194.135-.071.168-.079.374-.091.262-.016.414.014.557.109a.6.6 0 0 1 .224.311l.015.068-.112.002c-.107.003-.114 0-.156-.076-.088-.158-.211-.213-.464-.207-.203.005-.334.062-.412.179a.29.29 0 0 0 .086.398c.034.022.225.092.424.155.444.14.594.225.68.381.065.121.081.28.04.422a.54.54 0 0 1-.289.309 4.42 4.42 0 0 0-.169.086c-.047.025-.384.05-.473.034Zm2.382-.063c-.381-.036-.682-.301-.786-.693a2.175 2.175 0 0 1-.019-.75c.108-.498.511-.787 1.016-.729.54.061.848.495.823 1.161-.021.538-.189.788-.662.983-.062.026-.245.04-.372.028Zm.41-.294a.657.657 0 0 0 .315-.357c.041-.106.045-.159.039-.449-.006-.295-.012-.341-.06-.449a.817.817 0 0 0-.359-.373.698.698 0 0 0-.545.021c-.278.147-.413.473-.378.913.027.327.125.532.314.658a.664.664 0 0 0 .674.036Zm-27.224-.167-.025-1.066.5-.004c.448-.003.511.001.617.039.26.095.383.245.406.493.022.251-.041.404-.222.545a.68.68 0 0 1-.192.1c-.054.016-.102.039-.108.053-.005.014.124.203.287.421.163.218.297.402.297.409 0 .008-.067.015-.148.017l-.149.004-.26-.379c-.356-.52-.313-.479-.505-.475a.974.974 0 0 0-.196.018c-.03.012-.033.07-.025.436l.01.422-.097.002a.618.618 0 0 0-.131.016c-.031.013-.037-.089-.059-1.051Zm1.013-.06a.425.425 0 0 0 .226-.508.375.375 0 0 0-.238-.256c-.109-.045-.139-.047-.431-.035l-.315.013.003.401c.002.291.011.409.031.431.022.025.083.028.325.016.245-.012.314-.023.399-.062Zm1.391 1.018a27.767 27.767 0 0 1-.029-1.046l-.018-1.019.654-.021.654-.02-.004.101-.005.101-.514.018c-.378.013-.519.024-.531.044-.01.015-.014.171-.01.348.005.241.015.326.037.343.019.015.201.021.511.018l.481-.006.002.085.002.085-.481.017c-.31.011-.491.026-.51.041-.039.033-.026.653.015.704.025.031.09.034.544.029l.516-.007.002.085.002.085-.653.021c-.511.016-.656.015-.665-.006Zm1.943-.045c-.001-.039.659-2.034.684-2.067.015-.019.067-.027.166-.025l.145.003.379 1.011c.208.556.379 1.023.38 1.037.002.018-.035.027-.116.029l-.119.003-.064-.174a4.351 4.351 0 0 0-.106-.263l-.042-.09-.445.016-.445.016-.091.262-.09.263-.118.003c-.079.001-.117-.006-.118-.024Zm1.212-.772c-.001-.053-.323-.917-.358-.958-.011-.014-.029-.021-.038-.015-.029.018-.333.992-.317 1.016.009.013.149.018.364.013.349-.008.35-.008.349-.056Zm1.261.727c-.018-.017-.066-2.008-.048-2.054.009-.025.042-.035.12-.037a.656.656 0 0 1 .112.003c.003.003.02.43.038.95l.034.944.477-.005.478-.005.002.095.002.095-.6.014c-.33.007-.606.007-.615 0Zm3.178-.086a27.767 27.767 0 0 1-.029-1.046l-.018-1.019.648-.015.647-.015.003.096.002.095-.527.023-.526.023.001.337c.002.23.01.346.028.366.021.023.124.026.505.018.465-.011.479-.01.494.032.008.024.01.067.003.096l-.012.051-.491.012c-.428.01-.493.016-.504.045-.024.066.001.679.029.705.02.018.17.022.539.013l.511-.012.002.096.003.095-.649.015c-.498.012-.65.009-.659-.011Zm4.835-.099a14.519 14.519 0 0 1-.038-.944l-.021-.93-.346.002-.346.002-.002-.096-.002-.095.823-.019.823-.019.002.095.002.096-.345.014-.345.014.016.939.016.939-.111.008c-.06.005-.117.003-.126-.006Zm1.266-.052c.006-.021.162-.496.347-1.055l.336-1.017.142-.009c.101-.007.15-.001.168.019.02.022.776 2.019.776 2.052a.536.536 0 0 1-.126.004l-.126-.003-.096-.253-.096-.253-.451.005-.452.005-.032.091c-.018.05-.059.169-.09.263l-.056.171-.128.009c-.115.009-.127.006-.116-.029Zm1.225-.741a13.756 13.756 0 0 0-.37-.989c-.011-.01-.029-.005-.041.01-.028.036-.314.936-.313.985.001.034.033.037.363.029.279-.006.362-.014.361-.035Zm1.461-.225-.027-.939-.308.002c-.412.003-.41.003-.404-.108l.005-.09.834-.019.834-.02.002.096.002.095-.351.019-.351.019.016.939.016.94-.12.003-.12.003-.028-.94Zm1.617.876a27.668 27.668 0 0 1-.029-1.045l-.018-1.019.648-.015.647-.015.002.095.003.096-.515.017c-.378.013-.519.025-.531.045a2.002 2.002 0 0 0-.01.347c.006.242.015.327.037.344.019.015.201.021.511.017.446-.005.481-.002.489.034a.231.231 0 0 1-.003.09l-.012.052-.491.011c-.428.01-.493.016-.504.045-.024.067.001.679.029.705.02.018.17.022.539.013l.511-.012.002.096.003.096-.649.015c-.498.011-.65.008-.659-.012Zm8.159-1.208-.019-1.046.635-.02c.493-.016.639-.015.653.006.029.041.025.136-.007.162-.018.016-.205.03-.531.042l-.503.017.008.35.008.351.483-.001.483-.001.009.101.009.101-.482.011c-.419.01-.483.015-.494.045a4.786 4.786 0 0 0-.002.478l.01.444-.121.003-.121.003-.018-1.046Zm2.531.961a23.361 23.361 0 0 1-.038-.939l-.027-.913-.332.002c-.375.002-.397-.006-.375-.134l.013-.075.828-.014.827-.014.002.096.003.096-.339.013c-.238.01-.345.022-.356.04-.009.015-.007.44.004.945l.021.918-.11.003c-.068.001-.115-.008-.121-.024Zm1.936-.3-.354-1.004a13.613 13.613 0 0 1-.257-.766c-.001-.034.014-.039.125-.036l.127.004.275.84c.151.462.285.849.297.86.015.014.029.011.041-.008.01-.016.124-.356.254-.756l.236-.728.085-.002.085-.002.281.743c.167.44.291.74.305.735.013-.004.149-.388.301-.852.152-.464.285-.856.294-.871.02-.03.225-.042.244-.014.01.015-.586 1.806-.673 2.022-.032.078-.033.079-.163.082l-.132.003-.045-.111c-.024-.06-.131-.342-.236-.626a9.378 9.378 0 0 0-.214-.547c-.02-.028-.026-.027-.049.004-.015.02-.123.321-.24.669l-.213.634-.138.003-.138.003-.098-.279Zm2.707.202a93.55 93.55 0 0 1 .666-2.028l.03-.076.149.003.149.003.379 1c.208.55.38 1.017.381 1.037.002.031-.018.038-.117.04l-.119.003-.087-.237a1.957 1.957 0 0 0-.11-.263c-.017-.021-.127-.023-.464-.011l-.441.016-.084.257-.084.257-.124.009c-.068.005-.124.001-.124-.01Zm1.221-.752c.02-.032-.352-1.003-.383-1.003-.032.001-.358.989-.337 1.02.006.01.169.014.36.01.192-.005.354-.016.36-.027Zm1.24-.333-.018-1.047.484-.011.484-.011.166.075c.183.082.285.186.333.338a.648.648 0 0 1-.109.585c-.069.082-.268.199-.342.201-.086.002-.046.08.239.46.163.219.296.402.297.408a.49.49 0 0 1-.151.015l-.151.004-.27-.392a6.745 6.745 0 0 0-.309-.429c-.03-.028-.076-.035-.198-.032a.71.71 0 0 0-.186.021c-.019.013-.026.133-.023.431l.004.413-.116.009-.115.009-.019-1.047Zm.914-.029c.234-.073.363-.297.299-.521-.066-.234-.21-.314-.584-.324a2.27 2.27 0 0 0-.332.009l-.08.017.01.421c.007.318.016.425.037.432.069.025.541.001.65-.034Zm1.303-.023-.018-1.046.647-.015.648-.015.002.096.002.095-.526.023-.527.023.009.361.008.361.501-.006.5-.006-.004.09-.005.09-.494.022-.493.022.002.359c.002.274.009.364.031.376.015.009.258.012.538.005l.511-.011.002.095.002.096-.659.015-.658.015-.019-1.045Zm.743-2.871c-.618-.3-1.131-.717-1.614-1.312-.852-1.05-1.374-2.325-1.534-3.754-.042-.368-.23-8.565-.197-8.566.053-.001.658.41 1.068.727.269.207.778.669 1.009.914.599.635 1.008 1.286 1.199 1.906.14.457.124.119.244 5.355.06 2.643.104 4.814.098 4.824-.018.029-.028.025-.273-.094Zm-29.645.651c-.006-.015-.057-1.856-.112-4.092-.1-4.007-.102-4.069-.152-4.298-.115-.525-.233-.857-.445-1.249-.577-1.07-1.545-1.76-2.762-1.969a4.908 4.908 0 0 0-1.76.031c-.944.199-1.703.66-2.277 1.384-.087.11-.171.207-.187.217-.048.028-.184.26-.302.517a4.564 4.564 0 0 0-.389 1.484c-.012.138.013 1.528.073 4.144.05 2.166.086 3.953.079 3.972-.012.03-.168.037-1.545.069-1.376.032-1.533.032-1.546.002-.026-.063-.323-13.337-.298-13.353.038-.024.439.272.725.536.148.137.376.366.506.509.132.144.257.262.281.265.031.004.08-.04.172-.152a6.72 6.72 0 0 1 2.128-1.712c.928-.475 1.819-.717 2.962-.804 1.116-.086 2.121.056 3.124.442.278.107.545.229.589.269.019.018.131.087.248.154.426.244.792.517 1.167.87.299.282.507.522.768.887.118.164.223.293.233.286a1.39 1.39 0 0 0 .127-.192c.059-.1.192-.296.295-.437a5.905 5.905 0 0 1 2.146-1.809c.763-.381 1.467-.58 2.41-.684a10.798 10.798 0 0 1 1.461-.012c1.735.165 3.148.774 4.308 1.859a6.52 6.52 0 0 1 1.318 1.697c.514.95.779 1.89.862 3.06.051.703.208 7.721.175 7.767-.025.034-.137.039-1.552.066l-1.526.03-.105-4.012c-.108-4.125-.106-4.068-.205-4.528-.292-1.358-1.219-2.452-2.454-2.895a4.307 4.307 0 0 0-1.635-.247c-.733.017-1.314.156-1.9.457-.987.506-1.705 1.448-1.972 2.588-.136.582-.134.251-.037 4.708.048 2.219.082 4.056.076 4.082l-.01.048-1.526.036c-1.201.027-1.528.029-1.536.009Zm15.089-7.025-.153-6.657.172.117c.365.247.818.642 1.205 1.05.093.097.145.137.168.127a.951.951 0 0 0 .15-.166c.149-.192.684-.724.923-.917.989-.801 2.15-1.3 3.522-1.512.425-.066 1.63-.094 1.998-.046.793.102 1.61.334 2.177.617l.111.055.046 1.736c.025.954.038 1.735.029 1.735-.009 0-.045-.037-.079-.082-.177-.231-.554-.55-.907-.769-1.004-.623-2.483-.76-3.702-.343-1.482.506-2.47 1.813-2.633 3.484-.022.229-.012.862.065 4.213l.091 3.944-1.514.035-1.515.035-.154-6.656Zm12.768-8.028a1.836 1.836 0 0 1-1.5-1.327c-.069-.261-.068-.678.002-.91.151-.498.471-.882.93-1.115.213-.108.428-.18.544-.183.033-.001.052-.01.044-.022-.009-.014.073-.023.23-.027.157-.003.24.002.231.016-.007.012.012.021.046.02.206-.004.649.172.9.36.334.248.57.598.665.982.019.077.036.126.038.108.003-.017.014.025.026.095.024.146.012.482-.017.466-.01-.006-.018.013-.018.041.002.078-.076.328-.148.474a1.877 1.877 0 0 1-1.973 1.022Z" fill="#BAD336"/><path d="M300.893 287.309a.603.603 0 0 1-.089-.027 6.186 6.186 0 0 0-.145-.056c-.204-.078-.365-.261-.397-.45l-.016-.1.116.004.116.004.031.092c.083.253.44.377.779.271.32-.1.397-.442.137-.605a2.968 2.968 0 0 0-.435-.172c-.391-.129-.497-.18-.596-.284-.184-.193-.145-.53.08-.704.144-.111.299-.151.573-.147.19.003.254.012.335.05.178.083.317.237.341.376.008.05.002.054-.102.062l-.112.009-.043-.088c-.068-.137-.177-.191-.398-.197-.212-.006-.312.022-.417.116-.158.141-.132.373.053.471.051.027.242.095.424.151.521.159.674.275.718.544.041.245-.094.458-.373.591a.74.74 0 0 1-.349.088 1.428 1.428 0 0 1-.231.001Zm11.732-.272a1.71 1.71 0 0 1-.434-.194.694.694 0 0 1-.199-.351l-.008-.074.111-.009.11-.009.03.1c.09.299.61.421.911.214.226-.155.222-.415-.009-.555a2.99 2.99 0 0 0-.408-.158c-.419-.138-.542-.202-.636-.328-.066-.09-.074-.115-.077-.252-.003-.135.005-.167.065-.27.058-.099.092-.129.218-.195.136-.071.168-.079.374-.091.262-.015.415.015.557.11a.6.6 0 0 1 .224.311l.016.067-.112.003c-.108.002-.114-.001-.156-.076-.089-.158-.211-.213-.465-.207-.203.004-.334.061-.412.179a.29.29 0 0 0 .086.398c.034.022.225.092.424.155.444.14.595.224.68.38a.578.578 0 0 1 .04.422.535.535 0 0 1-.288.309c-.07.035-.147.073-.17.086-.047.026-.384.05-.472.035Zm2.381-.064c-.381-.036-.682-.301-.786-.693a2.174 2.174 0 0 1-.019-.75c.108-.497.511-.786 1.016-.729.54.062.848.496.823 1.162-.021.537-.189.787-.661.983a1.086 1.086 0 0 1-.373.027Zm.41-.294a.654.654 0 0 0 .315-.357c.041-.105.045-.159.039-.449-.006-.295-.012-.341-.06-.448a.813.813 0 0 0-.359-.373.693.693 0 0 0-.545.02c-.278.148-.413.474-.377.913.026.327.124.533.313.659a.662.662 0 0 0 .674.035Zm-27.224-.167-.025-1.065.5-.004c.448-.004.511 0 .617.039.26.095.384.244.406.493.022.25-.04.404-.222.544a.684.684 0 0 1-.192.101c-.054.015-.102.039-.107.053-.006.014.124.203.287.421.162.217.296.401.296.409a.435.435 0 0 1-.148.017l-.149.003-.259-.379c-.357-.519-.313-.479-.506-.474a1.09 1.09 0 0 0-.196.017c-.03.012-.033.071-.024.436l.009.423-.097.002a.508.508 0 0 0-.131.016c-.031.012-.037-.089-.059-1.052Zm1.013-.06a.423.423 0 0 0 .226-.508.373.373 0 0 0-.238-.255c-.108-.045-.139-.048-.431-.036l-.315.014.003.4c.003.292.011.409.031.432.022.025.083.028.325.016.246-.012.315-.023.399-.063Zm1.391 1.019a27.855 27.855 0 0 1-.029-1.046l-.018-1.019.654-.021.654-.021-.004.101-.004.102-.515.017c-.378.013-.519.025-.531.044a2.023 2.023 0 0 0-.01.348c.006.242.015.327.037.344.019.015.201.021.511.017l.481-.005.002.085.002.085-.481.017c-.31.011-.491.025-.509.041-.04.033-.027.652.014.704.025.03.091.034.544.028l.516-.006.002.085.002.085-.653.02c-.511.017-.656.015-.665-.005Zm1.943-.046c-.001-.038.659-2.033.684-2.066.015-.019.067-.027.166-.025l.145.003.379 1.01c.208.556.379 1.023.381 1.038.001.018-.036.027-.117.029l-.119.003-.064-.174a4.425 4.425 0 0 0-.106-.264l-.042-.089-.445.016-.445.016-.09.262-.091.262-.117.003c-.08.002-.118-.006-.119-.024Zm1.213-.771a9.936 9.936 0 0 0-.358-.958c-.012-.014-.03-.021-.039-.015-.029.018-.332.992-.317 1.015.009.013.149.019.365.014.348-.008.349-.009.349-.056Zm1.261.726c-.019-.017-.066-2.007-.049-2.054.009-.024.042-.034.12-.036a.656.656 0 0 1 .112.003c.003.003.02.43.039.949l.033.945.477-.005.478-.006.002.095.002.095-.6.014c-.33.008-.606.008-.614 0Zm3.177-.086a27.581 27.581 0 0 1-.029-1.045l-.017-1.019.647-.015.648-.015.002.095.002.096-.527.023-.526.023.002.337c.001.23.009.346.027.365.021.023.124.027.505.018.465-.011.479-.01.494.033.008.024.01.067.003.095l-.012.052-.491.011c-.428.01-.493.016-.504.046-.024.066.001.678.03.705.019.017.169.021.538.013l.511-.012.003.095.002.096-.648.015c-.499.011-.651.009-.66-.012Zm4.835-.098c-.009-.008-.026-.433-.037-.945l-.022-.93-.346.002-.346.002-.002-.095-.002-.096.823-.019.823-.019.002.096.003.095-.346.014-.345.014.016.939.016.939-.111.009a.317.317 0 0 1-.126-.006Zm1.266-.052.347-1.055.336-1.017.142-.01c.101-.006.15-.001.169.019.02.023.775 2.02.775 2.052a.447.447 0 0 1-.126.005l-.126-.004-.096-.252-.096-.253-.451.005-.452.004-.032.092-.09.262-.056.172-.128.009c-.115.008-.127.005-.116-.029Zm1.226-.742a13.94 13.94 0 0 0-.371-.989c-.011-.009-.029-.005-.041.011-.028.036-.314.936-.313.985.001.034.033.036.363.029.279-.007.362-.015.362-.036Zm1.46-.224-.027-.939-.307.001c-.413.003-.411.004-.405-.108l.005-.09.834-.019.834-.019.002.095.002.096-.351.019-.351.018.016.94.016.94-.12.002-.12.003-.028-.939Zm1.617.876a27.767 27.767 0 0 1-.029-1.046l-.018-1.019.648-.015.647-.015.003.096.002.095-.515.018c-.378.013-.519.025-.531.044a2.07 2.07 0 0 0-.009.348c.005.241.014.327.036.344.019.014.201.02.511.017.446-.005.482-.003.49.033a.26.26 0 0 1-.004.091l-.012.051-.491.012c-.428.01-.493.015-.504.045-.024.066.001.679.03.705.019.018.169.021.538.013l.511-.012.003.096.002.095-.648.015c-.499.012-.651.009-.66-.011Zm8.159-1.209-.019-1.045.635-.021c.494-.015.639-.014.653.007.029.041.025.135-.007.162-.018.015-.205.03-.531.041l-.503.017.008.351.008.35.483-.001h.483l.009.101.009.1-.481.011c-.419.01-.484.016-.495.045a4.786 4.786 0 0 0-.002.478l.01.445-.121.002-.121.003-.018-1.046Zm2.531.961a23.257 23.257 0 0 1-.038-.939l-.026-.912-.333.002c-.375.002-.396-.006-.375-.135l.013-.075.828-.013.827-.014.003.096.002.095-.339.014c-.238.009-.344.021-.356.04-.009.014-.007.439.005.944l.02.919-.11.002c-.068.002-.115-.007-.121-.024Zm1.936-.299-.354-1.005a14.766 14.766 0 0 1-.257-.765c-.001-.035.014-.039.125-.036l.127.003.275.84c.151.462.285.85.297.861.015.013.029.011.041-.008.01-.016.124-.357.254-.757l.236-.728.085-.002.085-.002.281.743c.167.441.291.74.305.735.013-.004.149-.387.301-.852.153-.464.285-.856.294-.871.02-.03.225-.042.244-.014.01.016-.586 1.806-.673 2.022-.032.079-.033.079-.163.082l-.132.004-.044-.111a48.722 48.722 0 0 1-.237-.626 8.793 8.793 0 0 0-.214-.548c-.019-.027-.025-.027-.049.005a9.694 9.694 0 0 0-.24.669l-.213.634-.138.003-.138.003-.098-.279Zm2.707.202c-.001-.023.623-1.923.666-2.029l.03-.075.149.002.149.003.379 1.001c.209.55.38 1.016.381 1.037.002.031-.018.037-.117.04l-.119.002-.087-.236a1.997 1.997 0 0 0-.11-.264c-.017-.02-.127-.023-.464-.01l-.441.016-.084.256-.084.257-.124.009c-.068.006-.124.001-.124-.009Zm1.221-.752c.02-.032-.352-1.004-.383-1.003-.032.001-.358.988-.337 1.02.006.009.169.014.361.009.191-.004.353-.016.359-.026Zm1.241-.333-.019-1.047.484-.011.484-.012.167.075c.182.083.284.186.332.339a.646.646 0 0 1-.109.585c-.069.082-.268.199-.342.2-.086.002-.046.081.239.461.163.218.297.402.297.408a.53.53 0 0 1-.151.015l-.15.003-.27-.392a7.197 7.197 0 0 0-.31-.428c-.03-.028-.076-.036-.198-.032a.668.668 0 0 0-.186.021c-.019.012-.025.132-.023.43l.004.413-.116.009-.115.009-.018-1.046Zm.913-.029c.234-.073.363-.298.299-.522-.066-.233-.21-.313-.584-.324a2.208 2.208 0 0 0-.331.01l-.081.016.01.422c.007.318.017.424.037.432.069.025.541 0 .65-.034Zm1.303-.024-.018-1.045.647-.015.648-.015.002.095.002.096-.526.022-.527.023.009.361.008.361.501-.006.5-.006-.004.09-.005.09-.493.022-.494.022.002.36c.002.273.009.363.031.376.015.009.258.011.539.005l.51-.012.002.096.002.095-.658.016-.659.015-.019-1.046Zm.743-2.87c-.618-.301-1.13-.718-1.614-1.313-.852-1.05-1.374-2.325-1.534-3.753-.042-.368-.23-8.566-.197-8.566.054-.002.658.41 1.068.727.269.207.778.668 1.009.913.6.636 1.008 1.286 1.199 1.906.14.458.125.119.244 5.355.06 2.644.104 4.815.098 4.825-.017.029-.028.025-.273-.094Zm-29.645.65a394.45 394.45 0 0 1-.112-4.092c-.1-4.007-.102-4.068-.152-4.297-.115-.526-.233-.858-.445-1.249-.577-1.071-1.544-1.76-2.762-1.969a4.885 4.885 0 0 0-1.76.03c-.944.2-1.702.66-2.277 1.384-.087.11-.171.208-.187.217-.048.029-.183.26-.302.517a4.576 4.576 0 0 0-.388 1.485c-.013.137.012 1.528.072 4.144.05 2.165.086 3.952.079 3.971-.011.031-.168.038-1.545.069-1.376.032-1.533.032-1.545.003-.027-.063-.324-13.338-.299-13.353.038-.024.439.272.725.536.148.137.376.366.507.509.131.144.256.262.281.265.031.004.079-.04.171-.153a6.718 6.718 0 0 1 2.128-1.711c.929-.475 1.819-.717 2.962-.805a6.992 6.992 0 0 1 3.125.442c.277.107.544.229.588.27.019.017.131.087.248.154.426.243.792.517 1.167.869.299.282.507.522.768.887.118.165.223.294.234.287.01-.007.067-.094.126-.193s.192-.295.295-.436a5.895 5.895 0 0 1 2.146-1.809c.763-.381 1.467-.581 2.41-.684a10.637 10.637 0 0 1 1.461-.012c1.735.164 3.148.774 4.308 1.858a6.488 6.488 0 0 1 1.318 1.698c.514.949.779 1.889.863 3.06.05.702.208 7.72.174 7.766-.024.034-.137.039-1.552.067l-1.526.03-.105-4.013c-.108-4.124-.106-4.068-.205-4.527-.292-1.358-1.219-2.452-2.454-2.895-.52-.187-1.017-.262-1.634-.248-.734.017-1.314.157-1.9.457-.987.506-1.705 1.448-1.973 2.588-.136.582-.134.251-.037 4.709a353 353 0 0 1 .076 4.082l-.01.048-1.526.035c-1.2.028-1.528.03-1.536.009Z" fill="#6B93A1"/><path d="M300.926 287.309a.56.56 0 0 1-.1-.027l-.166-.066a.967.967 0 0 1-.19-.102.684.684 0 0 1-.204-.345l-.018-.09.109-.003.109-.002.031.098c.065.208.272.32.576.312.34-.008.562-.203.509-.446-.035-.158-.151-.231-.602-.38a5.933 5.933 0 0 1-.377-.134c-.216-.101-.308-.23-.313-.433-.005-.225.087-.363.318-.479.116-.059.143-.063.388-.068.293-.006.396.021.547.144.083.066.176.221.177.294.001.037-.013.043-.097.045-.092.003-.101-.003-.142-.076-.091-.163-.218-.222-.469-.217-.159.004-.201.012-.282.059-.124.071-.177.146-.188.264a.275.275 0 0 0 .134.27c.038.025.235.097.436.16.427.134.568.212.658.363a.417.417 0 0 1 .064.247c.005.23-.099.393-.317.496l-.142.069c-.066.033-.348.062-.449.047Zm11.715-.273c-.045-.004-.083-.016-.083-.027s-.014-.02-.032-.02c-.064.002-.234-.079-.325-.155-.107-.089-.201-.255-.204-.359l-.002-.07.102.004c.1.004.103.006.133.096a.462.462 0 0 0 .286.273c.095.037.143.042.312.031.169-.011.215-.023.303-.075.131-.078.185-.168.182-.3-.004-.208-.11-.289-.57-.437-.472-.152-.597-.223-.681-.388a.54.54 0 0 1-.028-.351c.032-.119.151-.243.305-.316.126-.06.156-.065.389-.07.308-.007.433.034.583.188.091.093.163.237.139.276-.006.01-.052.019-.102.02-.088.002-.096-.004-.154-.1a.316.316 0 0 0-.161-.146.739.739 0 0 0-.454-.033c-.143.036-.301.178-.304.274-.009.253.05.301.552.459.485.152.6.219.693.402.142.278-.004.61-.322.732a.785.785 0 0 0-.13.061c-.031.024-.297.043-.427.031Zm2.244-.08a2.756 2.756 0 0 0-.162-.068c-.334-.132-.533-.492-.543-.984-.011-.496.159-.836.501-1.009.136-.069.155-.072.395-.078.231-.005.265-.001.385.05.262.112.422.29.513.573.056.172.076.586.038.778-.06.302-.231.532-.486.651l-.164.079c-.048.025-.434.032-.477.008Zm.468-.237a.763.763 0 0 0 .38-.387c.059-.172.083-.476.052-.659-.031-.175-.14-.411-.235-.503a.779.779 0 0 0-.171-.112c-.095-.046-.139-.053-.298-.05-.166.004-.199.011-.304.071-.232.131-.344.366-.353.736-.011.498.12.763.443.9a.716.716 0 0 0 .486.004Zm-27.161-.205-.024-1.053h.214l.521-.001c.286-.002.317.002.433.054a.555.555 0 0 1 .325.34.594.594 0 0 1-.405.763c-.064.018-.094.037-.094.061.001.02.134.214.297.432l.297.396-.126.009a.705.705 0 0 1-.151 0 4.54 4.54 0 0 1-.317-.43l-.289-.421-.202.011-.201.011.004.42c.003.31-.003.423-.023.429a1.144 1.144 0 0 1-.131.021l-.104.012-.024-1.054Zm1.034-.064c.32-.162.303-.616-.029-.774-.076-.036-.141-.044-.371-.046a2.578 2.578 0 0 0-.335.012l-.055.015.009.421c.006.231.018.427.027.436.009.008.159.009.335.001.278-.013.331-.021.419-.065Zm1.358.006-.024-1.04.648-.015.647-.015.002.085.002.085-.513.012c-.41.009-.518.018-.537.042-.017.02-.021.139-.011.377l.014.347.501-.006.501-.006-.005.09-.005.09-.493.022-.494.022.009.372.008.372.533-.007.532-.007.002.095.002.096-.647.015-.648.015-.024-1.041Zm1.956.98c-.001-.009.152-.478.338-1.041.186-.562.338-1.027.338-1.032 0-.006.072-.009.159-.008l.16.003.378 1.011c.208.556.38 1.018.381 1.027.001.01-.05.016-.113.014l-.116-.004-.096-.25a1.307 1.307 0 0 0-.127-.268c-.051-.029-.848-.004-.877.028a1.812 1.812 0 0 0-.11.274l-.085.246-.115.009c-.063.005-.115.001-.115-.009Zm1.212-.734c.028-.019.005-.095-.156-.522-.13-.344-.2-.502-.224-.506-.027-.005-.069.102-.19.482a7.37 7.37 0 0 0-.155.523c.001.02.013.04.029.046.051.019.664-.002.696-.023Zm1.244-.348-.024-1.04.11-.003.11-.002.021.919c.016.687.028.926.048.944.019.018.16.022.494.014l.468-.011.002.096.002.096-.603.014-.604.013-.024-1.04Zm3.183-.073-.024-1.041.647-.015.648-.015.002.085.002.085-.513.012c-.41.01-.518.018-.538.042-.017.02-.02.139-.011.377l.015.347h.494l.494-.001.002.085.002.085-.494.022-.494.022.009.371.009.372.533-.007.534-.006-.005.09-.004.09-.642.02-.642.02-.024-1.04Zm4.831-.002c-.016-.695-.028-.936-.048-.954-.019-.018-.131-.023-.363-.018l-.336.008-.002-.085-.002-.085.834-.019.834-.019.002.085.002.085-.336.007c-.231.006-.343.016-.361.034-.019.02-.02.261-.004.956l.021.93-.11.003-.109.002-.022-.93Zm1.294.875c0-.015.151-.485.335-1.044l.336-1.017.154-.01.155-.009.081.216c.378 1 .672 1.798.673 1.821 0 .02-.032.029-.107.031l-.108.003-.069-.174a8.345 8.345 0 0 1-.097-.253c-.016-.043-.047-.088-.07-.099-.063-.031-.817-.009-.862.025-.02.015-.072.138-.115.274l-.079.246-.113.009c-.082.006-.113.001-.114-.019Zm1.206-.739c.008-.02-.065-.248-.168-.528-.142-.384-.19-.491-.217-.485-.05.01-.364.999-.329 1.037.019.021.109.026.363.02.296-.007.34-.012.351-.044Zm1.51.689a14.51 14.51 0 0 1-.038-.943c-.019-.827-.025-.93-.056-.941a3.02 3.02 0 0 0-.352-.005l-.316.008-.002-.085-.002-.086.829-.013.828-.014.002.075.002.074-.333.013c-.241.01-.338.022-.355.042-.016.02-.019.324-.008.951l.016.921-.1.009c-.054.005-.106.002-.115-.006Zm1.563-1.064-.024-1.04.647-.015.648-.015.002.085.002.084-.514.012c-.41.01-.518.018-.537.042-.017.021-.02.139-.011.377l.014.348.495-.001.494-.001.002.085.002.085-.494.022-.494.022.009.372.009.371.532-.007.532-.006.003.095.002.095-.648.015-.647.015-.024-1.04Zm8.199.826a23.21 23.21 0 0 1-.029-1.036l-.018-1.009.642-.02.642-.021.002.085.002.086-.501.011c-.36.008-.507.019-.526.038-.018.018-.023.131-.018.37.007.294.013.345.043.356.019.006.242.007.496.001l.46-.011-.005.091-.004.09-.483.022-.483.022v.934l-.104.009c-.071.006-.108 0-.116-.018Zm2.493-.947c-.014-.59-.03-.929-.045-.955-.022-.038-.05-.04-.363-.033l-.34.008-.001-.085-.002-.085.834-.019.834-.02.002.085.002.085-.336.008c-.232.005-.344.016-.362.034-.019.019-.02.261-.004.956l.021.93-.109.002-.11.003-.021-.914Zm2.052.847c-.017-.025-.717-2.006-.718-2.03 0-.01.056-.016.125-.014l.126.004.231.706c.329 1.005.323.991.357.99.038-.001.047-.026.308-.846l.211-.664.077-.008.077-.008.279.741c.246.654.308.789.345.751.006-.006.136-.397.29-.87l.279-.86.118-.002c.08-.002.118.005.118.023 0 .015-.155.485-.345 1.044l-.346 1.017-.125.009-.124.009-.043-.09c-.023-.05-.134-.34-.247-.645-.186-.501-.238-.607-.281-.564-.006.006-.11.304-.231.661l-.219.649-.124.009c-.068.005-.13 0-.138-.012Zm2.615-.057c-.006-.008.143-.48.33-1.048l.341-1.033.154-.003.155-.003.38 1.016c.209.558.381 1.023.381 1.032 0 .01-.052.016-.115.014l-.116-.004-.094-.249c-.052-.137-.109-.257-.127-.268-.035-.02-.809-.009-.863.013-.019.007-.066.115-.109.252a2.084 2.084 0 0 1-.097.266c-.022.029-.203.042-.22.015Zm1.198-.733c.027-.018.005-.095-.155-.522-.133-.356-.197-.501-.22-.5-.024 0-.081.148-.197.51-.14.433-.159.511-.131.528.019.011.177.016.352.012s.333-.017.351-.028Zm1.243-.348-.024-1.04.473-.011c.413-.01.488-.006.596.028.237.074.371.213.416.431a.584.584 0 0 1-.42.697c-.065.02-.093.04-.092.067 0 .02.128.207.284.415.156.207.283.387.284.399 0 .013-.053.021-.137.019l-.138-.003-.113-.163-.295-.418-.182-.255-.183-.002c-.117-.002-.195.007-.214.023-.024.02-.028.11-.021.437l.01.411-.11.003-.11.002-.024-1.04Zm.924-.024a.436.436 0 0 0 .173-.74c-.104-.099-.238-.127-.571-.119-.255.006-.283.01-.303.048-.031.061-.011.793.023.825.036.033.564.022.678-.014Zm1.332.999a19.151 19.151 0 0 1-.039-1.041l-.024-1.026.653-.01.653-.009.002.074.002.074-.516.018c-.453.015-.519.022-.542.054-.039.053-.023.672.018.704.019.014.201.02.511.017l.481-.005.002.084.002.085-.493.017c-.36.013-.497.025-.509.044a2.188 2.188 0 0 0-.009.358c.006.251.015.338.037.355.019.015.21.021.544.017l.514-.007.002.085.002.085-.638.021a7.58 7.58 0 0 1-.653.006Zm.673-3.934c-.78-.396-1.417-.99-1.972-1.839-.66-1.011-1.038-2.143-1.147-3.439-.024-.277-.056-1.56-.109-4.348-.069-3.586-.073-3.954-.041-3.943.051.017.509.323.733.489.659.488 1.255 1.044 1.67 1.559.533.661.836 1.306.942 2.005.052.341.237 9.639.192 9.64-.013 0-.134-.055-.268-.124Zm-29.697-3.341c-.111-4.479-.095-4.189-.268-4.787-.29-.998-.878-1.785-1.723-2.302-1.01-.618-2.478-.751-3.687-.332-.718.248-1.393.738-1.8 1.306a.53.53 0 0 1-.124.137c-.058.02-.269.397-.397.709a4.194 4.194 0 0 0-.233.783c-.112.54-.111.476-.013 4.738.082 3.555.087 3.921.056 3.934-.019.007-.695.029-1.501.048a45.49 45.49 0 0 1-1.503.021c-.031-.011-.049-.62-.189-6.686-.091-3.951-.146-6.675-.134-6.675.011 0 .113.066.228.147.255.18.692.583.996.918.127.142.245.252.27.255.032.004.087-.048.209-.198a8.31 8.31 0 0 1 .864-.866c1.031-.843 2.21-1.35 3.631-1.561.475-.07 1.531-.089 1.964-.035a7.361 7.361 0 0 1 1.634.396c.296.113.627.266.743.344.054.037.201.129.328.204a5.946 5.946 0 0 1 1.71 1.57c.104.144.206.287.227.319.021.032.051.057.068.057.017 0 .076-.076.132-.168a6.066 6.066 0 0 1 2.722-2.402c.842-.371 1.702-.553 2.728-.577 1.204-.028 2.225.164 3.244.608a6.613 6.613 0 0 1 3.254 2.992 6.97 6.97 0 0 1 .763 2.255c.089.531.102.86.184 4.722l.082 3.811-1.537.036-1.536.035-.106-4.065c-.117-4.497-.099-4.18-.264-4.746-.419-1.441-1.505-2.465-2.939-2.771-.635-.135-1.473-.125-2.08.026-.688.171-1.334.52-1.803.972-.516.497-.93 1.25-1.1 1.999-.135.597-.132.288-.037 4.748l.086 4.039-1.524.035-1.524.035-.101-4.028Z" fill="#3B7386"/><path d="M300.926 287.308a.487.487 0 0 1-.1-.026l-.166-.066a.967.967 0 0 1-.19-.102.684.684 0 0 1-.204-.345l-.018-.09.109-.003.109-.002.031.098c.065.208.272.32.576.312.34-.008.562-.203.509-.446-.035-.158-.151-.231-.602-.38a5.933 5.933 0 0 1-.377-.134c-.216-.101-.308-.23-.313-.433-.005-.225.087-.363.318-.479.116-.059.143-.063.388-.068.293-.006.396.021.547.143.083.067.176.222.177.295.001.037-.013.043-.097.045-.092.002-.101-.003-.142-.076-.091-.163-.218-.222-.469-.217-.159.004-.201.012-.282.059-.124.071-.177.146-.188.264a.275.275 0 0 0 .134.27c.038.025.235.097.436.16.427.134.568.212.658.363a.417.417 0 0 1 .064.247c.005.23-.099.393-.317.496l-.142.069c-.066.033-.348.062-.449.046Zm11.715-.272c-.045-.004-.083-.016-.083-.027s-.014-.02-.032-.02c-.064.002-.234-.079-.325-.155-.107-.09-.201-.255-.204-.359l-.002-.07.102.004c.1.004.103.006.133.096a.464.464 0 0 0 .286.273c.095.037.143.042.312.031.169-.011.215-.023.303-.075.131-.079.185-.168.182-.3-.004-.208-.11-.289-.57-.437-.472-.152-.597-.223-.681-.388a.54.54 0 0 1-.028-.351c.032-.119.151-.243.305-.316.126-.06.156-.065.389-.07.308-.007.433.034.583.188.091.093.163.237.139.276-.006.01-.052.019-.102.02-.088.001-.096-.004-.154-.1a.312.312 0 0 0-.161-.146.739.739 0 0 0-.454-.034c-.143.037-.301.179-.304.275-.009.252.05.301.552.459.485.152.6.219.693.401.142.279-.004.611-.322.733a.785.785 0 0 0-.13.061c-.031.024-.297.043-.427.031Zm2.244-.08a2.187 2.187 0 0 0-.162-.068c-.334-.132-.533-.492-.543-.984-.011-.496.159-.836.501-1.009.136-.069.155-.073.395-.078.231-.005.265-.001.385.05.262.112.422.29.513.572.056.173.076.587.038.779-.06.302-.231.532-.486.651l-.164.079c-.048.025-.434.031-.477.008Zm.468-.238c.143-.05.33-.24.38-.386.059-.173.083-.476.052-.659-.031-.175-.14-.411-.235-.503a.779.779 0 0 0-.171-.112c-.095-.046-.139-.053-.298-.05-.166.004-.199.011-.304.071-.232.131-.344.366-.353.736-.011.497.12.763.443.9a.71.71 0 0 0 .486.003Zm-27.161-.204-.024-1.053h.214l.521-.002c.286-.001.317.003.433.055a.555.555 0 0 1 .325.34.594.594 0 0 1-.405.763c-.064.018-.094.037-.094.061.001.019.134.214.297.431l.297.397-.126.009a.705.705 0 0 1-.151 0 4.54 4.54 0 0 1-.317-.43l-.289-.421-.202.011-.201.011.004.42c.003.309-.003.422-.023.429a1.144 1.144 0 0 1-.131.021l-.104.012-.024-1.054Zm1.034-.064c.32-.162.303-.616-.029-.774-.076-.036-.141-.044-.371-.046a2.578 2.578 0 0 0-.335.012l-.055.015.009.421c.006.231.018.427.027.436.009.008.159.008.335.001.278-.013.331-.021.419-.065Zm1.358.006-.024-1.04.648-.015.647-.015.002.085.002.085-.513.012c-.41.009-.518.018-.537.041-.017.021-.021.14-.011.378l.014.347.501-.006.501-.006-.005.09-.005.09-.493.022-.494.022.009.372.008.371.533-.006.532-.007.002.095.002.095-.647.015-.648.015-.024-1.04Zm1.956.98c-.001-.01.152-.478.338-1.041.186-.562.338-1.027.338-1.033 0-.005.072-.008.159-.007l.16.003.378 1.011c.208.555.38 1.018.381 1.027.001.01-.05.016-.113.014l-.116-.004-.096-.25a1.277 1.277 0 0 0-.127-.268c-.051-.029-.848-.004-.877.028a1.812 1.812 0 0 0-.11.274l-.085.246-.115.009c-.063.005-.115.001-.115-.009Zm1.212-.734c.028-.019.005-.095-.156-.522-.13-.345-.2-.502-.224-.506-.027-.005-.069.102-.19.482a7.37 7.37 0 0 0-.155.523c.001.02.013.04.029.046.051.018.664-.002.696-.023Zm1.244-.348-.024-1.04.11-.003.11-.002.021.919c.016.687.028.926.048.944.019.018.16.022.494.014l.468-.011.002.096.002.095-.603.014-.604.014-.024-1.04Zm3.183-.073-.024-1.041.647-.015.648-.015.002.085.002.085-.513.012c-.41.009-.518.018-.538.042-.017.02-.02.139-.011.377l.015.347h.494l.494-.001.002.085.002.085-.494.022-.494.022.009.371.009.372.533-.007.534-.007-.005.09-.004.09-.642.021-.642.02-.024-1.04Zm4.831-.002c-.016-.695-.028-.936-.048-.955-.019-.017-.131-.022-.363-.017l-.336.008-.002-.085-.002-.085.834-.019.834-.019.002.085.002.084-.336.008c-.231.006-.343.016-.361.034-.019.02-.02.261-.004.956l.021.93-.11.002-.109.003-.022-.93Zm1.294.875c0-.015.151-.485.335-1.044l.336-1.017.154-.01.155-.01.081.217c.378 1 .672 1.798.673 1.821 0 .02-.032.029-.107.031l-.108.002-.069-.173a8.345 8.345 0 0 1-.097-.253c-.016-.044-.047-.088-.07-.099-.063-.031-.817-.009-.862.025-.02.015-.072.138-.115.274l-.079.246-.113.009c-.082.006-.113.001-.114-.019Zm1.206-.739c.008-.02-.065-.248-.168-.528-.142-.385-.19-.491-.217-.485-.05.01-.364.999-.329 1.037.019.021.109.026.363.02.296-.007.34-.012.351-.044Zm1.51.689a14.564 14.564 0 0 1-.038-.944c-.019-.826-.025-.929-.056-.94a2.792 2.792 0 0 0-.352-.005l-.316.008-.002-.086-.002-.085.829-.013.828-.014.002.074.002.075-.333.013c-.241.01-.338.022-.355.042-.016.02-.019.324-.008.95l.016.922-.1.009c-.054.004-.106.002-.115-.006Zm1.563-1.064-.024-1.041.647-.014.648-.015.002.084.002.085-.514.012c-.41.01-.518.018-.537.042-.017.021-.02.139-.011.377l.014.348.495-.001.494-.001.002.085.002.085-.494.022-.494.022.009.371.009.372.532-.007.532-.006.003.095.002.095-.648.015-.647.015-.024-1.04Zm8.199.826c-.007-.016-.02-.482-.029-1.037l-.018-1.008.642-.021.642-.02.002.085.002.085-.501.012c-.36.008-.507.019-.526.038-.018.018-.023.13-.018.37.007.293.013.345.043.355.019.007.242.008.496.002l.46-.011-.005.091-.004.09-.483.022-.483.022v.934l-.104.009c-.071.006-.108 0-.116-.018Zm2.493-.948c-.014-.589-.03-.928-.045-.954-.022-.038-.05-.04-.363-.033l-.34.008-.001-.085-.002-.085.834-.019.834-.02.002.085.002.085-.336.008c-.232.005-.344.016-.362.034-.019.019-.02.261-.004.956l.021.93-.109.002-.11.003-.021-.915Zm2.052.848c-.017-.025-.717-2.006-.718-2.03 0-.01.056-.016.125-.014l.126.004.231.706c.329 1.005.323.991.357.99.038-.001.047-.026.308-.846l.211-.664.077-.008.077-.008.279.74c.246.655.308.789.345.752.006-.006.136-.397.29-.87l.279-.86.118-.003c.08-.001.118.006.118.024 0 .015-.155.484-.345 1.044l-.346 1.017-.125.009-.124.009-.043-.09c-.023-.05-.134-.34-.247-.645-.186-.501-.238-.607-.281-.564-.006.006-.11.304-.231.661l-.219.649-.124.009c-.068.005-.13 0-.138-.012Zm2.615-.057c-.006-.008.143-.48.33-1.048l.341-1.033.154-.003.155-.004.38 1.016c.209.559.381 1.024.381 1.033 0 .01-.052.015-.115.013l-.116-.003-.094-.249c-.052-.137-.109-.257-.127-.268-.035-.02-.809-.009-.863.013-.019.007-.066.115-.109.252a2.084 2.084 0 0 1-.097.266c-.022.029-.203.041-.22.015Zm1.198-.733c.027-.018.005-.095-.155-.522-.133-.356-.197-.501-.22-.5-.024 0-.081.147-.197.51-.14.433-.159.511-.131.528.019.011.177.016.352.012s.333-.017.351-.028Zm1.243-.348-.024-1.04.473-.011c.413-.01.488-.006.596.028.237.074.371.213.416.431a.584.584 0 0 1-.42.697c-.065.02-.093.04-.092.066 0 .021.128.208.284.416.156.207.283.387.284.399 0 .013-.053.02-.137.019l-.138-.004-.113-.162-.295-.418-.182-.256-.183-.002c-.117-.001-.195.008-.214.024-.024.02-.028.11-.021.437l.01.411-.11.003-.11.002-.024-1.04Zm.924-.024a.436.436 0 0 0 .173-.74c-.104-.099-.238-.127-.571-.119-.255.006-.283.01-.303.048-.031.061-.011.793.023.825.036.033.564.021.678-.014Zm1.332.999a19.151 19.151 0 0 1-.039-1.041l-.024-1.026.653-.01.653-.009.002.074.002.074-.516.018c-.453.015-.519.022-.542.054-.039.053-.023.672.018.703.019.015.201.021.511.018l.481-.006.002.085.002.085-.493.017c-.36.013-.497.025-.509.044a2.188 2.188 0 0 0-.009.358c.006.251.015.338.037.355.019.015.21.02.544.016l.514-.006.002.085.002.085-.638.02a7.84 7.84 0 0 1-.653.007Zm.707-3.938a4.28 4.28 0 0 1-1.013-.692c-.749-.668-1.386-1.671-1.757-2.764a7.993 7.993 0 0 1-.358-1.717c-.037-.385-.225-8.351-.197-8.369.041-.026.75.47 1.206.842 1.142.932 1.832 1.889 2.093 2.903.054.211.055.22.113 2.398.066 2.455.159 7.505.137 7.506-.007 0-.108-.048-.224-.107Zm-29.709-3.338c-.109-4.371-.096-4.122-.242-4.683-.206-.795-.647-1.525-1.229-2.033-.566-.494-1.238-.795-2.06-.923-.343-.053-1.194-.039-1.514.026-.669.134-1.206.36-1.679.705a4.408 4.408 0 0 0-.711.68c-.071.09-.169.204-.217.252a1.735 1.735 0 0 0-.207.317c-.23.44-.39.933-.456 1.407-.015.111-.034.236-.041.277-.008.041.022 1.89.066 4.109l.08 4.034-1.503.035-1.504.034-.159-6.662-.16-6.662.073.046c.322.207.742.581 1.104.985.245.272.273.298.326.297.021-.001.134-.117.253-.258 1.08-1.283 2.592-2.094 4.418-2.371.436-.066 1.549-.092 1.932-.044.527.065.96.158 1.412.304.266.086.89.352.957.407.023.02.182.12.354.223.375.226.588.383.912.673.379.338.811.843 1.03 1.202.055.091.09.117.127.092a1.54 1.54 0 0 0 .124-.187 6.047 6.047 0 0 1 3.43-2.657c1.267-.389 2.762-.42 4.111-.086a7.05 7.05 0 0 1 2.614 1.266c.239.186.728.65.917.87.937 1.087 1.512 2.459 1.666 3.976.018.18.062 1.726.118 4.156l.09 3.869-1.525.035-1.525.035-.101-4.049c-.111-4.481-.092-4.139-.26-4.736a3.952 3.952 0 0 0-1.77-2.347c-.685-.411-1.52-.597-2.444-.545-1.394.079-2.53.716-3.219 1.806a4.502 4.502 0 0 0-.55 1.387c-.113.56-.112.321-.019 4.669l.085 4.007-1.502.035-1.502.034-.1-4.007Z" fill="#5F6062"/><path d="M329.346 282.665a4.28 4.28 0 0 1-1.013-.692c-.748-.668-1.386-1.671-1.756-2.764a7.877 7.877 0 0 1-.358-1.716c-.038-.386-.226-8.352-.198-8.37.041-.025.75.47 1.207.843 1.141.931 1.831 1.888 2.092 2.903.054.21.055.219.113 2.397.066 2.455.159 7.505.138 7.506a2.59 2.59 0 0 1-.225-.107Zm-29.709-3.337c-.109-4.372-.096-4.123-.241-4.684-.207-.795-.648-1.525-1.23-2.032-.565-.494-1.238-.796-2.059-.923-.344-.054-1.195-.039-1.515.025-.669.134-1.206.36-1.679.705a4.403 4.403 0 0 0-.71.68c-.072.09-.17.204-.218.252a1.735 1.735 0 0 0-.207.317c-.23.44-.39.933-.455 1.407l-.042.277c-.008.041.022 1.89.066 4.109l.08 4.034-1.503.035-1.504.035-.159-6.663-.16-6.662.073.047c.322.206.742.58 1.104.984.245.272.273.298.326.297.021-.001.134-.117.253-.258 1.08-1.283 2.592-2.094 4.418-2.371.436-.066 1.549-.091 1.932-.044.527.065.96.158 1.412.304.266.086.89.352.957.408.023.019.182.119.354.222.375.226.589.383.912.673.379.339.811.844 1.03 1.202.055.091.091.117.127.092a1.54 1.54 0 0 0 .124-.187 6.047 6.047 0 0 1 3.43-2.657c1.267-.389 2.762-.42 4.111-.086a7.048 7.048 0 0 1 2.615 1.267c.238.186.727.65.916.87.937 1.087 1.512 2.458 1.666 3.976.018.179.062 1.725.118 4.155l.09 3.869-1.525.035-1.525.036-.101-4.05c-.111-4.481-.092-4.139-.259-4.736a3.954 3.954 0 0 0-1.771-2.347c-.685-.41-1.52-.596-2.443-.544-1.395.078-2.531.715-3.22 1.805a4.508 4.508 0 0 0-.55 1.388c-.113.559-.112.32-.019 4.668l.086 4.007-1.503.035-1.502.035-.1-4.007Z" fill="#004C65"/></g><path d="m410.238 255.947-51.45 1.398c-3.511.095-6.361 2.919-6.361 6.307v22.655c0 3.387 2.85 6.035 6.361 5.912l51.45-1.793c3.427-.119 6.201-2.924 6.201-6.264v-22.336c0-3.34-2.774-5.972-6.201-5.879Z" fill="#fff"/><g clip-path="url(#clip3_1828_6443)"><path d="M399.427 278.912a.068.068 0 0 1-.022-.05l-.003-.214a.07.07 0 0 1 .02-.053.07.07 0 0 1 .05-.022l.272-.004a.072.072 0 0 1 .075.073l.003.214c0 .02-.007.037-.022.051a.07.07 0 0 1-.051.021l-.272.004a.068.068 0 0 1-.05-.02Zm7.541-.109a.068.068 0 0 1-.022-.05l-.003-.214a.07.07 0 0 1 .02-.053.074.074 0 0 1 .05-.022l.272-.004a.072.072 0 0 1 .075.073l.003.214c0 .02-.007.037-.022.051a.07.07 0 0 1-.051.021l-.272.004a.064.064 0 0 1-.05-.02Zm-6.844 1.826a.067.067 0 0 1-.021-.05l-.02-1.386a.061.061 0 0 1 .02-.051.076.076 0 0 1 .05-.021l.245-.003a.07.07 0 0 1 .052.019c.013.012.019.029.02.051l.001.12a.603.603 0 0 1 .491-.227.552.552 0 0 1 .434.17c.109.115.163.276.166.482l.012.825a.062.062 0 0 1-.019.05.064.064 0 0 1-.051.022l-.266.004a.074.074 0 0 1-.051-.02.069.069 0 0 1-.021-.05l-.012-.807a.391.391 0 0 0-.088-.265c-.057-.063-.138-.093-.243-.091a.312.312 0 0 0-.241.1.373.373 0 0 0-.087.266l.011.807a.065.065 0 0 1-.018.05c-.012.015-.029.022-.051.022l-.263.004a.072.072 0 0 1-.05-.02v-.001Zm1.738-.025a.065.065 0 0 1-.022-.05l-.028-1.944a.064.064 0 0 1 .02-.052.074.074 0 0 1 .05-.019l.269-.004c.022 0 .039.006.052.018.013.012.019.03.019.051l.01.67a.59.59 0 0 1 .473-.219.563.563 0 0 1 .437.172c.11.117.166.277.169.481l.012.825a.07.07 0 0 1-.018.05.07.07 0 0 1-.051.022l-.269.004a.078.078 0 0 1-.054-.02.069.069 0 0 1-.021-.05l-.012-.807a.386.386 0 0 0-.088-.265c-.057-.063-.138-.093-.243-.092a.313.313 0 0 0-.24.101.365.365 0 0 0-.088.266l.012.807a.07.07 0 0 1-.019.05.064.064 0 0 1-.051.022l-.269.004a.072.072 0 0 1-.05-.02v-.001Zm1.97-.039a.493.493 0 0 1-.2-.16.383.383 0 0 1-.076-.225.386.386 0 0 1 .158-.325.975.975 0 0 1 .444-.174l.404-.065-.001-.061c-.001-.084-.024-.148-.067-.19-.044-.043-.114-.063-.208-.062a.304.304 0 0 0-.156.038.481.481 0 0 0-.095.073l-.048.05c-.007.023-.022.035-.043.036l-.231.003a.066.066 0 0 1-.046-.017c-.013-.011-.019-.027-.02-.047a.324.324 0 0 1 .07-.167.572.572 0 0 1 .213-.164.813.813 0 0 1 .356-.074c.233-.004.402.046.511.148a.545.545 0 0 1 .165.406l.013.921a.071.071 0 0 1-.018.051.065.065 0 0 1-.051.021l-.245.004a.073.073 0 0 1-.051-.02.074.074 0 0 1-.022-.05l-.001-.115a.482.482 0 0 1-.181.157.643.643 0 0 1-.295.065.636.636 0 0 1-.277-.057h-.002Zm.638-.336c.068-.072.101-.174.099-.307l-.001-.059-.295.051c-.226.039-.339.115-.337.231a.164.164 0 0 0 .08.144c.053.034.116.05.189.049a.36.36 0 0 0 .265-.109Zm1.147.162.002.109a.07.07 0 0 1-.021.051.069.069 0 0 1-.052.021l-.236.004a.073.073 0 0 1-.051-.02.074.074 0 0 1-.022-.05l-.028-1.944a.07.07 0 0 1 .02-.052.071.071 0 0 1 .05-.019l.258-.004a.07.07 0 0 1 .051.018c.013.012.02.03.02.051l.009.652a.562.562 0 0 1 .45-.2.576.576 0 0 1 .462.185.799.799 0 0 1 .177.502 1.726 1.726 0 0 1 .003.194c-.005.212-.06.381-.164.509-.105.128-.257.193-.456.196a.57.57 0 0 1-.473-.201l.001-.002Zm.687-.506c.002-.019.002-.048.002-.088a1.283 1.283 0 0 0-.004-.088c-.018-.258-.132-.386-.343-.383-.108.002-.191.037-.246.107a.4.4 0 0 0-.088.251 1.936 1.936 0 0 0 .003.226.459.459 0 0 0 .093.263c.056.072.14.107.253.106.211-.003.321-.134.331-.392l-.001-.002Zm1.475.515c-.092-.092-.14-.228-.142-.408l-.021-1.465a.064.064 0 0 1 .02-.052.074.074 0 0 1 .05-.019l.245-.004c.022 0 .039.006.052.018.013.013.019.03.02.052l.007.487.369-.006a.07.07 0 0 1 .051.021c.014.013.021.03.021.049l.003.174a.072.072 0 0 1-.07.072l-.37.005.009.632a.347.347 0 0 0 .047.19c.03.042.079.063.146.062l.206-.003c.022 0 .04.006.052.018.013.013.02.03.021.051l.002.186a.067.067 0 0 1-.019.05.067.067 0 0 1-.051.022l-.242.003c-.18.003-.315-.042-.407-.134l.001-.001Zm-8.313.239a.065.065 0 0 1-.022-.05l-.02-1.386c0-.021.006-.039.02-.052a.082.082 0 0 1 .05-.02l.252-.003a.064.064 0 0 1 .05.02.07.07 0 0 1 .022.049l.02 1.387a.072.072 0 0 1-.02.05.069.069 0 0 1-.05.021l-.252.004a.068.068 0 0 1-.05-.02Z" fill="#F89621"/><path d="M399.429 278.913a.066.066 0 0 1-.022-.05l-.003-.215c0-.021.006-.039.02-.053a.069.069 0 0 1 .05-.021l.272-.004a.068.068 0 0 1 .053.02.07.07 0 0 1 .022.052l.003.215a.066.066 0 0 1-.022.05.076.076 0 0 1-.051.022l-.272.004a.072.072 0 0 1-.05-.02Zm7.578 1.617a.065.065 0 0 1-.022-.05l-.02-1.386c0-.021.006-.039.02-.051a.078.078 0 0 1 .05-.021l.252-.003a.064.064 0 0 1 .05.02c.014.014.022.03.022.05l.02 1.386a.072.072 0 0 1-.02.05.069.069 0 0 1-.05.021l-.252.004a.068.068 0 0 1-.05-.02Zm-.037-1.726a.072.072 0 0 1-.022-.05l-.003-.214c0-.022.007-.039.02-.053a.074.074 0 0 1 .05-.022l.272-.004c.022 0 .039.007.053.02a.068.068 0 0 1 .022.053l.003.214a.07.07 0 0 1-.021.051.073.073 0 0 1-.052.021l-.271.004a.065.065 0 0 1-.051-.02Zm-8.928-.784a.694.694 0 0 0-.686.701l.019 1.281a.695.695 0 0 0 1.391-.02l-.019-1.281a.692.692 0 0 0-.705-.681Zm.017 1.201a.481.481 0 1 1-.014-.961.48.48 0 1 1 .014.961Zm-2.399.87a.691.691 0 0 1-.117.428.39.39 0 0 1-.326.166.408.408 0 0 1-.344-.15l-.007.134-.183.003-.024-1.643.199-.003.009.613a.406.406 0 0 1 .33-.154.398.398 0 0 1 .336.155c.082.105.124.251.127.435v.018-.002Zm-.199-.019a.526.526 0 0 0-.084-.311.26.26 0 0 0-.227-.108.292.292 0 0 0-.28.186l.007.501c.062.12.158.179.288.178a.262.262 0 0 0 .221-.114c.052-.074.077-.185.075-.333v.001Zm.822.287.259-.871.213-.003-.449 1.342c-.07.193-.183.291-.341.294l-.038-.003-.074-.013-.003-.16.054.003a.264.264 0 0 0 .157-.043c.038-.027.068-.077.091-.149l.043-.118-.433-1.139.218-.003.303.863Z" fill="#F89621"/><path d="m365.207 277.517-1.869-3.129-.445.006.044 3.056-2.914.042-.142-9.852 3.79-.055c2.556-.037 4.037 1.07 4.067 3.183.019 1.328-.57 2.279-1.682 2.867l2.245 3.366-3.094.517v-.001Zm-1.821-7.8-.589.008.039 2.642.603-.009c.947-.013 1.457-.506 1.444-1.377-.012-.871-.549-1.278-1.497-1.264Zm8.637 7.744c-2.254.033-3.821-1.087-3.857-3.571-.034-2.328 1.396-3.748 3.378-3.776 2.239-.033 3.225 1.581 3.255 3.666.004.271-.007.543-.034.686l-4.063.058c.17.883.806 1.174 1.64 1.162.689-.01 1.461-.264 2.245-.675l.254 1.682a5.677 5.677 0 0 1-2.818.768Zm-1.368-4.236 1.737-.025c-.043-1.027-.38-1.537-.898-1.529-.517.007-.84.526-.839 1.554Zm20.142 3.823-.445-6.007-1.249 6.031-2.857.041-1.436-5.992-.258 6.017-2.528.036.563-9.862 3.805-.055 1.525 6.205 1.346-6.246 3.704-.054.845 9.842-3.015.044Zm7.886-.114-.156-.855c-.594.623-1.235 1.018-2.111 1.03-1.076.016-1.89-.615-1.909-1.928-.023-1.613 1.157-2.445 3.853-2.712l-.001-.057c-.007-.514-.284-.767-.973-.757-.76.011-1.476.206-2.218.532l-.314-1.852c.785-.326 1.744-.554 2.936-.571 2.053-.03 3.096.584 3.123 2.483l.067 4.654-2.297.033Zm-.293-3.395c-1.03.243-1.384.648-1.376 1.219.006.4.239.597.555.592.273-.004.529-.122.842-.369l-.021-1.442Zm7.476 3.291-.062-4.269c-.006-.414-.183-.712-.599-.706-.301.005-.557.165-.841.441l.066 4.554-2.556.037-.102-7.067 2.297-.033.172.94c.622-.652 1.233-1.103 2.08-1.115 1.306-.019 2.007.785 2.027 2.199l.072 4.983-2.556.036h.002Zm-26.994-4.181c-.952-.243-1.083-.369-1.086-.584-.003-.185.153-.33.555-.336.66-.01 1.583.22 2.422.65l.145-1.892c-.748-.301-1.678-.471-2.62-.457-1.824.026-2.815.969-2.795 2.354.019 1.386.815 1.831 2.646 2.276.893.215 1.025.357 1.028.585.004.228-.181.388-.683.395-.732.011-1.842-.273-2.769-.803l-.261 1.847a6.909 6.909 0 0 0 3.083.669c1.909-.027 2.96-.856 2.937-2.427-.019-1.299-.643-1.775-2.603-2.276l.001-.001Zm30.359-1.921c-.416.006-.703-.28-.71-.709-.006-.429.278-.726.691-.732.414-.006.703.28.71.709.006.429-.278.726-.691.732Zm-.018-1.368c-.348.005-.608.24-.602.657.006.416.277.644.621.639.344-.005.606-.24.6-.657-.006-.416-.277-.644-.619-.639Zm-.018.727-.083.001.004.304-.135.002-.012-.793.234-.004c.172-.002.287.087.289.24a.228.228 0 0 1-.153.225l.236.301-.146.034-.233-.31h-.001Zm-.085-.114.09-.001c.097-.001.155-.047.154-.129-.002-.083-.055-.128-.154-.127l-.093.001.003.256Z" fill="#04A6E1"/></g><path d="m481.993 254.002-49.833 1.366c-3.4.093-6.16 2.896-6.16 6.26v22.494c0 3.364 2.76 5.994 6.16 5.874l49.833-1.752c3.32-.117 6.007-2.9 6.007-6.218v-22.182a5.811 5.811 0 0 0-6.007-5.842Z" fill="#fff"/><g clip-path="url(#clip4_1828_6443)"><path d="m432.479 278.209-.102-4.957 8.671-7.223.105 5.098-8.674 7.082Zm1.463-6.376-1.612-.839-.099-4.782 1.613.884.098 4.737Zm12.132-.162-2.199-5.431 2.422-.05 1.151 3.637 2.438-3.712 2.821-.058-4.317 5.587-.648 3.323-2.319.048.651-3.344Zm8.733-5.658 2.377-.049 1.656 8.773-2.36.049-.247-1.57-3.172.066-.875 1.593-2.47.051 5.091-8.913Zm-.881 5.54 2.07-.043-.417-3.158-.015.001-1.638 3.2Zm7.152-5.67 4.418-.091c.936-.02 1.629.111 2.079.393.558.348.847.957.867 1.827.03 1.449-.639 2.283-2.005 2.501v.016c.618.136.934.619.95 1.451.005.23.011.515-.004.878-.015.362-.01.611-.007.773.01.458.062.768.158.926l-2.361.049a2.499 2.499 0 0 1-.088-.493c-.003-.141.003-.378.015-.713.013-.336.019-.609.015-.818-.017-.79-.414-1.177-1.192-1.161l-1.566.032-.618 3.224-2.348.049 1.687-8.843Zm1.612 3.868 1.868-.039c1.054-.022 1.572-.437 1.555-1.246-.012-.612-.441-.908-1.286-.889l-1.728.035-.409 2.139Zm7.644-4.06 3.371-.07c2.677-.055 4.042 1.157 4.094 3.636.031 1.46-.374 2.659-1.213 3.597-.93 1.029-2.248 1.562-3.954 1.597l-4.038.084 1.74-8.844Zm1.02 6.821 1.548-.032c.91-.019 1.593-.376 2.049-1.073a3.267 3.267 0 0 0 .512-1.9c-.035-1.305-.645-1.945-1.831-1.921l-1.349.028-.929 4.898Zm8.521-7.019 2.351-.048-1.69 8.842-2.364.049 1.703-8.843Z" fill="#0072CE"/></g><path d="m385.821 253.335-2.323.062v-24.04l2.323-.049v24.027Zm-75.287 1.992-2.401.063v-6.189c0-3.331 2.84-6.109 6.326-6.192l52.065-1.238c2.113-.05 3.83-1.751 3.83-3.791v-8.345l2.337-.05v8.342c0 3.284-2.765 6.024-6.167 6.106l-52.065 1.264c-2.163.053-3.925 1.777-3.925 3.844v6.186Zm148.143-3.918-2.249.06v-5.99c0-2.001-1.653-3.589-3.686-3.539l-50.092 1.216c-3.354.082-6.086-2.51-6.086-5.777v-8.298l2.31-.048v8.293c0 2.027 1.695 3.635 3.776 3.586l50.092-1.191c3.275-.078 5.935 2.48 5.935 5.702v5.986Z" fill="#fff"/><defs><linearGradient id="paint0_linear_1828_6443" x1="224.967" y1="249.14" x2="189.264" y2="-6.168" gradientUnits="userSpaceOnUse"><stop stop-color="#FFC444"/><stop offset=".996" stop-color="#F36F56"/></linearGradient><linearGradient id="paint1_linear_1828_6443" x1="91.985" y1="445.325" x2="560.059" y2="445.325" gradientUnits="userSpaceOnUse"><stop offset=".494" stop-color="#EBEFF2"/><stop offset="1" stop-color="#fff"/></linearGradient><linearGradient id="paint2_linear_1828_6443" x1="141.085" y1="349.679" x2="141.085" y2="470.977" gradientUnits="userSpaceOnUse"><stop stop-color="#2A56CC"/><stop offset="1" stop-color="#021854"/></linearGradient><linearGradient id="paint3_linear_1828_6443" x1="380.199" y1="11.236" x2="380.199" y2="50.323" gradientUnits="userSpaceOnUse"><stop stop-color="#2A56CC"/><stop offset="1" stop-color="#021854"/></linearGradient><linearGradient id="paint4_linear_1828_6443" x1="381.54" y1="105.248" x2="381.54" y2="308.243" gradientUnits="userSpaceOnUse"><stop stop-color="#2A56CC"/><stop offset="1" stop-color="#021854"/></linearGradient><clipPath id="clip0_1828_6443"><path fill="#fff" transform="rotate(-.292 39496.918 -62311.008)" d="M0 0h52v14H0z"/></clipPath><clipPath id="clip1_1828_6443"><path fill="#fff" transform="rotate(-.465 25053.791 -48374.862)" d="M0 0h52v12H0z"/></clipPath><clipPath id="clip2_1828_6443"><path fill="#fff" transform="rotate(-1.327 11626.59 -12304.227) skewX(-.001)" d="M0 0h42v22H0z"/></clipPath><clipPath id="clip3_1828_6443"><path fill="#fff" transform="rotate(-.826 18728.995 -24808.405) skewX(-.001)" d="M0 0h50v14H0z"/></clipPath><clipPath id="clip4_1828_6443"><path fill="#fff" transform="rotate(-1.188 13052.11 -20707.945) skewX(-.001)" d="M0 0h50v12H0z"/></clipPath></defs></svg>