<svg width="166" height="55" viewBox="0 0 166 55" fill="none" xmlns="http://www.w3.org/2000/svg"><g clip-path="url(#clip0_979_5968)"><path d="m60.364 24.735 2.612 6.985 2.612-7.275c0-.582.29-.873.58-1.165.29-.29.58-.29.87-.29.29 0 .581 0 .871.29 0 0 .29.582.29.873V25.9l-2.902 7.276s0 .582-.29.873c0 .29 0 .582-.58.873l-.58.582c-.29.29-.581 0-.871 0-.29 0-.87 0-1.161-.291-.29-.291-.58-.291-.58-.582s-.29-.582-.58-1.455L57.751 25.9v-2.328l.58-.583c.29-.29.58 0 .871 0 .58 0 .87 0 1.16.582.291.582.291.873.581 1.455l-.58-.29Zm18.572 5.239h-6.094c0 .582 0 1.455.29 1.746 0 .582.58.873 1.16 1.164.581 0 .872.29 1.452.29h.87c.29 0 .581 0 .871-.29 0 0 .58-.291.87-.582l.871-.873h1.452s.29.29.29.873c0 .582 0 .582-.29.873 0 .29-.58.873-.871 1.164-.58.29-.87.582-1.741.873-.58 0-1.451.29-2.322.29-2.031 0-3.483-.581-4.643-1.745-1.161-1.164-1.742-2.62-1.742-4.656 0-2.037 0-1.746.29-2.62.29-.873.581-1.455 1.161-2.037.58-.582 1.161-.873 2.032-1.164.87-.29 1.741-.582 2.612-.582.87 0 2.322 0 3.192.873.87.873 1.451 1.164 2.032 2.037.29.873.58 1.747.58 2.62 0 .872 0 1.163-.58 1.455-.58 0-1.161.29-1.742.29Zm-6.094-1.747h5.514c0-1.163-.29-1.745-.87-2.328-.581-.582-1.162-.873-2.032-.873-.87 0-1.451 0-2.032.873-.58.873-.87 1.456-.87 2.328h.29Zm14.221 2.911v2.619c0 .582 0 1.164-.58 1.455-.58.29-.58.582-1.16.582-.581 0-.871 0-1.162-.582 0-.291-.29-.873-.29-1.455v-8.73c0-1.456.58-2.038 1.451-2.038.87 0 .87 0 1.161.582.29.582.29.873.29 1.455.29-.581.87-1.163 1.161-1.454.29-.292.87-.583 1.451-.583.58 0 1.16 0 2.032.582.58.291.87.873.87 1.164 0 .291 0 .582-.29.873 0 0-.58.291-.87.291h-2.032c-.29 0-.87 0-1.161.291 0 0-.58.582-.58 1.165 0 .581 0 1.163-.29 1.746v2.328-.291Zm8.706-9.604c-.29 0-.871 0-1.161-.29-.29 0-.58-.583-.58-1.165 0-.582 0-.873.58-1.164.29 0 .58-.29 1.16-.29.581 0 .871 0 1.161.29.29 0 .58.582.58 1.164s0 .873-.58 1.164c-.29 0-.58.291-1.16.291Zm1.74 3.201v9.022c0 .582 0 1.164-.58 1.455-.58.29-.58.582-1.16.582s-.871 0-1.161-.582c0-.291-.29-.873-.29-1.455v-8.73c0-.583 0-1.165.29-1.456 0-.29.58-.582 1.16-.582.581 0 .871 0 1.161.582.29.582.58.873.58 1.164Zm2.904-1.745h.87v-.874c0-.873 0-1.746.291-2.328 0-.582.58-.873 1.16-1.164.581-.29 1.452-.29 2.322-.29 1.741 0 2.612.581 2.612 1.454v.873c0 .291-.29.291-.58.291h-1.451c-.581 0-.871 0-1.161.582v2.329h.87c1.161 0 1.742.29 1.742 1.163s0 .873-.581.873h-2.031v8.149c0 .582 0 1.164-.29 1.455-.291.29-.581.582-1.161.582-.581 0-.871 0-1.161-.582-.29-.291-.29-.873-.29-1.455v-8.149h-.871c-.58 0-.87 0-1.16-.29 0 0-.291-.583-.291-.874 0-.872.58-1.163 1.451-1.163l-.29-.582Zm10.738 12.804v-.582l-3.483-9.604c0-.582-.29-.873-.29-1.163v-.873l.581-.583c.29-.29.58 0 .87 0 .581 0 .871 0 .871.291s.29.582.58 1.165l2.612 7.566 2.612-6.985c0-.581.29-1.163.58-1.454 0-.292.291-.583.581-.583h1.451l.58.582v2.037l-4.063 10.477c-.29.873-.58 1.746-1.161 2.328-.29.582-.87.873-1.451 1.164-.58 0-1.16.29-2.321.29-1.161 0-1.451 0-2.032-.29-.58 0-.58-.582-.58-1.164s0-.582.29-.873h2.902s.29 0 .581-.582c0 0 .29-.582.29-1.164Zm9.868-.291c-.581 0-.871 0-1.161-.582-.29-.291-.581-.582-.581-1.164s0-.873.581-1.164c.29-.291.58-.582 1.161-.582.58 0 .87 0 1.16.582.291.29.581.873.581 1.164 0 .29 0 .873-.581 1.164-.29.29-.87.582-1.16.582Zm13.639-1.746c-.29 0-.871.582-1.161.873-.29.29-.871.582-1.451.582h-1.451c-.581 0-1.451 0-2.032-.582-.58-.582-1.16-.873-1.741-1.455-.58-.582-.87-1.164-1.161-2.037 0-.873-.29-1.747-.29-2.62 0-2.037.581-3.492 1.451-4.656.871-1.164 2.322-1.746 3.773-1.746s1.741 0 2.322.582c.58.291 1.16.873 1.741 1.455v-4.656c0-.582 0-1.164.29-1.455 0-.29.58-.582 1.161-.582.58 0 .87 0 1.161.582.29.582.29.873.29 1.455v13.678c0 .582 0 1.164-.29 1.455-.291.29-.581.582-1.161.582-.581 0-.871 0-1.161-.582 0-.291-.29-.873-.29-1.455v.582Zm-6.095-4.656c0 .873 0 1.455.291 2.037.29.582.58 1.164 1.16 1.455.581.29.871.582 1.451.582.581 0 1.161 0 1.452-.291.29-.291.87-.582 1.16-1.164.291-.582.291-1.455.291-2.328 0-.873 0-1.456-.291-2.037-.29-.582-.58-1.165-1.16-1.456-.581-.29-.871-.582-1.452-.582-.58 0-1.16 0-1.451.582-.58.291-.87.873-1.16 1.456-.291.581-.291 1.163-.291 2.037V29.1Zm23.507-.001c0 .874 0 1.747-.291 2.62 0 .873-.58 1.455-1.16 2.037-.581.582-1.161.873-2.032 1.164-.87.29-1.741.582-2.612.582-.87 0-1.741 0-2.612-.582-.87-.291-1.451-.873-2.031-1.164-.581-.582-.871-1.164-1.161-2.037-.29-.873-.29-1.746-.29-2.62 0-.873 0-1.745.29-2.619 0-.873.58-1.455 1.161-2.037.58-.582 1.161-.873 2.031-1.164.871-.29 1.742-.582 2.612-.582.871 0 1.742 0 2.612.582.871.582 1.451.873 2.032 1.165.58.581.87 1.163 1.16 2.037 0 .873.291 1.745.291 2.619Zm-2.902 0c0-1.164 0-2.328-.871-2.91-.871-.582-1.161-1.164-2.322-1.164s-1.161 0-1.741.582c-.58.291-.871.873-1.161 1.456-.29.581-.29 1.454-.29 2.037 0 .582 0 1.455.29 2.037.29.582.581 1.164 1.161 1.455.58.29.871.582 1.741.582.871 0 1.742-.291 2.322-1.164.58-.582.871-1.746.871-2.91Zm16.833-4.074v9.022c0 1.164-.001 2.037-.291 2.619 0 .873-.58 1.455-1.161 1.746-.58.582-1.16.873-2.031 1.164-.871 0-1.741.29-2.902.29s-2.032 0-2.902-.581c-.871-.291-1.451-.582-2.032-1.164-.58-.582-.58-.873-.58-1.455 0-.582 0-.582.29-.873 0 0 .581-.291.871-.291.29 0 .87 0 1.161.582a5481.045 5481.045 0 0 0 1.16 1.164c.291.29.581 0 .871.29h1.161c.871 0 1.451 0 1.741-.29.581 0 .871-.582.871-.873 0-.291 0-.873.29-1.164v-2.328c-.58.582-1.161 1.164-1.741 1.455-.581.29-1.451.582-2.322.582s-2.031 0-2.612-.873c-.58-.873-1.451-1.164-1.741-2.328-.29-.873-.581-2.037-.581-3.201 0-1.164 0-1.746.291-2.62 0-.873.58-1.455 1.161-2.037.58-.582.87-.873 1.741-1.164.58 0 1.161-.29 2.031-.29.871 0 1.742 0 2.322.581.58.582 1.161.873 1.741 1.455 0-.873 0-1.455.29-1.746 0-.29.581-.582 1.161-.582.581 0 .871 0 1.161.582 0 .291.29.873.29 1.746l.291.582Zm-8.997 4.075c0 1.164 0 2.328.871 2.91.87.582 1.16.873 2.031.873.871 0 .871 0 1.451-.291.581 0 .871-.582 1.161-1.164 0-.582.29-1.164.29-2.037 0-1.165 0-2.328-.87-2.91-.871-.582-1.161-1.165-2.322-1.165s-1.451.291-2.032.873c-.58.582-.87 1.746-.58 2.91Z" fill="#000"/><path d="M25.538 52.672c14.105 0 25.539-11.465 25.539-25.608 0-14.144-11.434-25.609-25.538-25.609C11.433 1.455 0 12.92 0 27.063c0 14.144 11.434 25.609 25.538 25.609Z" fill="#FFD830"/><path d="M37.728 0H14.221c-2.322 0-4.063 1.746-4.063 4.074v46.852c0 2.328 1.742 4.074 4.063 4.074h23.507c2.322 0 4.063-1.746 4.063-4.074V4.074C41.791 1.746 40.05 0 37.728 0Zm-15.09 2.037h8.704-8.706c-.29 0-.29 0 0 0Zm-1.742-.291s.29 0 .29.291 0 .291-.29.291-.29 0-.29-.291 0-.291.29-.291Zm6.965 50.635h-3.773c-.58 0-1.16-.582-1.16-1.164s.58-1.164 1.16-1.164h3.773c.58 0 1.16.582 1.16 1.164s-.58 1.164-1.16 1.164Zm10.738-4.365H13.06V5.238H38.6v42.778Z" fill="#000"/><path d="M22.638 17.46h-.87v.873h.87v-.873Zm3.192 0h-.871v.873h.87v-.873Zm2.61 0h-.87v.873h.87v-.873Zm.872 0h-.87v.873h.87v-.873Z" fill="#000"/><path d="M23.507 18.333h-.87v.873h.87v-.873Zm.871 0h-.87v.873h.87v-.873Zm1.452 0h-.871v.873h.87v-.873Zm.87 0h-.87v.873h.87v-.873Zm.87 0h-.87v.873h.87v-.873Zm-4.063.873h-.87v.873h.87v-.873Zm4.063 0h-.87v.873h.87v-.873Z" fill="#000"/><path d="M22.638 20.08h-.87v.872h.87v-.873Zm1.74 0h-.87v.872h.87v-.873Z" fill="#000"/><path d="M24.959 20.08h-.871v.872h.87v-.873Zm1.741 0h-.87v.872h.87v-.873Zm1.74 0h-.87v.872h.87v-.873Zm.872 0h-.87v.872h.87v-.873Zm-6.674.581h-.87v.873h.87v-.873Z" fill="#000"/><path d="M24.378 20.661h-.87v.873h.87v-.873Zm3.192 0h-.87v.873h.87v-.873Zm.87 0h-.87v.873h.87v-.873Zm.872 0h-.87v.873h.87v-.873Zm-6.674.873h-.87v.873h.87v-.873Z" fill="#000"/><path d="M23.507 21.534h-.87v.873h.87v-.873Zm.871 0h-.87v.873h.87v-.873Zm4.934 0h-.87v.873h.87v-.873Zm-6.674.873h-.87v.873h.87v-.873Zm1.74 0h-.87v.873h.87v-.873Zm1.452 0h-.871v.873h.87v-.873Zm1.74 0h-.87v.873h.87v-.873Zm1.742 0h-.87v.873h.87v-.873Zm-6.674.873h-.87v.873h.87v-.872Zm1.74 0h-.87v.873h.87v-.872Z" fill="#000"/><path d="M24.959 23.28h-.871v.873h.87v-.872Zm.871 0h-.871v.873h.87v-.872Zm2.61 0h-.87v.873h.87v-.872Zm.872 0h-.87v.873h.87v-.872Zm-13.35.873h-.87v.873h.87v-.873Zm3.483 0h-.87v.873h.87v-.873Zm1.451 0h-.87v.873h.87v-.873Zm.871 0h-.87v.873h.87v-.873Zm.871 0h-.87v.873h.87v-.873Z" fill="#000"/><path d="M23.507 24.153h-.87v.873h.87v-.873Zm.871 0h-.87v.873h.87v-.873Zm4.062 0h-.87v.873h.87v-.873Zm1.452 0h-.87v.873h.87v-.873Zm.871 0h-.87v.873h.87v-.873Zm.871 0h-.87v.873h.87v-.873Z" fill="#000"/><path d="M32.503 24.153h-.87v.873h.87v-.873Zm.871 0h-.87v.873h.87v-.873Zm2.323 0h-.87v.873h.87v-.873Zm-18.863.873h-.871v.873h.87v-.873Zm.871 0h-.871v.873h.87v-.873Zm1.74 0h-.87v.873h.87v-.873Zm3.193 0h-.87v.873h.87v-.873Zm1.74 0h-.87v.873h.87v-.873Zm1.452 0h-.871v.873h.87v-.873Zm.87 0h-.87v.873h.87v-.873Zm.87 0h-.87v.873h.87v-.873Zm.87 0h-.87v.873h.87v-.873Zm.872 0h-.87v.873h.87v-.873Z" fill="#000"/><path d="M29.892 25.026h-.87v.873h.87v-.873Zm2.611 0h-.87v.873h.87v-.873Zm.871 0h-.87v.873h.87v-.873Zm1.452 0h-.87v.873h.87v-.873Zm-16.252.582h-.87v.873h.87v-.873Zm.871 0h-.87v.873h.87v-.873Zm1.451 0h-.87v.873h.87v-.873Zm.871 0h-.87v.873h.87v-.873Zm1.74 0h-.87v.873h.87v-.873Zm2.323 0h-.871v.873h.87v-.873Zm1.74 0h-.87v.873h.87v-.873Zm.87 0h-.87v.873h.87v-.873Z" fill="#000"/><path d="M29.312 25.608h-.87v.873h.87v-.873Zm2.322 0h-.87v.873h.87v-.873Z" fill="#000"/><path d="M32.503 25.608h-.87v.873h.87v-.873Zm.871 0h-.87v.873h.87v-.873Zm.872 0h-.871v.873h.87v-.873Zm-17.412.874h-.871v.873h.87v-.873Zm.871 0h-.871v.873h.87v-.873Zm4.062 0h-.87v.873h.87v-.873Zm.871 0h-.87v.873h.87v-.873Z" fill="#000"/><path d="M23.507 26.482h-.87v.873h.87v-.873Zm.871 0h-.87v.873h.87v-.873Zm4.934 0h-.87v.873h.87v-.873Zm1.451 0h-.87v.873h.87v-.873Zm.871 0h-.87v.873h.87v-.873Zm2.612 0h-.871v.873h.87v-.873Z" fill="#000"/><path d="M34.826 26.482h-.87v.873h.87v-.873Zm-18.864.873h-.87v.872h.87v-.872Zm4.934 0h-.87v.872h.87v-.872Zm.871 0h-.87v.872h.87v-.872Zm1.74 0h-.87v.872h.87v-.872Zm.871 0h-.87v.872h.87v-.872Z" fill="#000"/><path d="M24.959 27.355h-.871v.872h.87v-.872Zm4.353 0h-.87v.872h.87v-.872Z" fill="#000"/><path d="M29.892 27.355h-.87v.872h.87v-.872Zm.871 0h-.87v.872h.87v-.872Zm2.611 0h-.87v.872h.87v-.872Zm.872 0h-.871v.872h.87v-.872Z" fill="#000"/><path d="M34.826 27.355h-.87v.872h.87v-.872Zm.871 0h-.87v.872h.87v-.872Zm-19.735.872h-.87v.874h.87v-.873Zm2.612 0h-.87v.874h.87v-.873Zm5.804 0h-.87v.874h.87v-.873Zm1.452 0h-.871v.874h.87v-.873Zm1.74 0h-.87v.874h.87v-.873Zm.87 0h-.87v.874h.87v-.873Zm.872 0h-.87v.874h.87v-.873Z" fill="#000"/><path d="M29.892 28.227h-.87v.874h.87v-.873Zm2.611 0h-.87v.874h.87v-.873Zm2.323 0h-.87v.874h.87v-.873Zm-17.121.873h-.871v.873h.87v-.872Zm3.191 0h-.87v.873h.87v-.872Zm3.482 0h-.87v.873h.87v-.872Z" fill="#000"/><path d="M24.959 29.1h-.871v.873h.87v-.872Zm.871 0h-.871v.873h.87v-.872Zm.87 0h-.87v.873h.87v-.872Zm.87 0h-.87v.873h.87v-.872Zm.87 0h-.87v.873h.87v-.872Zm3.194 0h-.87v.873h.87v-.872Z" fill="#000"/><path d="M32.503 29.1h-.87v.873h.87v-.872Zm.871 0h-.87v.873h.87v-.872Zm.872 0h-.871v.873h.87v-.872Zm-15.672.874h-.87v.873h.87v-.873Zm1.451 0h-.87v.873h.87v-.873Zm1.742 0h-.87v.873h.87v-.873Zm1.74 0h-.87v.873h.87v-.873Zm.871 0h-.87v.873h.87v-.873Z" fill="#000"/><path d="M24.959 29.974h-.871v.873h.87v-.873Zm2.611 0h-.87v.873h.87v-.873Zm.87 0h-.87v.873h.87v-.873Zm2.323 0h-.87v.873h.87v-.873Zm.871 0h-.87v.873h.87v-.873Z" fill="#000"/><path d="M32.503 29.974h-.87v.873h.87v-.873Zm1.743 0h-.871v.873h.87v-.873Z" fill="#000"/><path d="M34.826 29.974h-.87v.873h.87v-.873Zm-18.864.581h-.87v.874h.87v-.873Zm.872 0h-.871v.874h.87v-.873Zm3.191 0h-.87v.874h.87v-.873Zm.871 0h-.87v.874h.87v-.873Zm4.934 0h-.871v.874h.87v-.873Zm3.482 0h-.87v.874h.87v-.873Z" fill="#000"/><path d="M29.892 30.555h-.87v.874h.87v-.873Zm.871 0h-.87v.874h.87v-.873Zm.871 0h-.87v.874h.87v-.873Z" fill="#000"/><path d="M32.503 30.555h-.87v.874h.87v-.873Zm.871 0h-.87v.874h.87v-.873Zm.872 0h-.871v.874h.87v-.873Zm-11.608.874h-.87v.873h.87v-.873Zm4.062 0h-.87v.873h.87v-.873Zm.87 0h-.87v.873h.87v-.873Zm1.742 0h-.87v.873h.87v-.873Zm3.191 0h-.87v.873h.87v-.873Zm-9.865.873h-.87v.873h.87v-.873Zm4.062 0h-.87v.873h.87v-.873Zm.87 0h-.87v.873h.87v-.873Zm1.742 0h-.87v.873h.87v-.873Zm1.451 0h-.87v.873h.87v-.873Zm1.74 0h-.87v.873h.87v-.873Zm-8.996.873h-.87v.873h.87v-.873Zm.871 0h-.87v.873h.87v-.873Zm1.452 0h-.871v.873h.87v-.873Zm1.74 0h-.87v.873h.87v-.873Zm1.742 0h-.87v.873h.87v-.873Zm3.191 0h-.87v.873h.87v-.873Zm.871 0h-.87v.873h.87v-.873Zm.872 0h-.871v.873h.87v-.873Z" fill="#000"/><path d="M34.826 33.175h-.87v.873h.87v-.873Zm.871 0h-.87v.873h.87v-.873Zm-13.059.873h-.87v.873h.87v-.873Zm1.74 0h-.87v.873h.87v-.873Z" fill="#000"/><path d="M24.959 34.048h-.871v.873h.87v-.873Zm1.741 0h-.87v.873h.87v-.873Zm.87 0h-.87v.873h.87v-.873Zm1.742 0h-.87v.873h.87v-.873Z" fill="#000"/><path d="M29.892 34.048h-.87v.873h.87v-.873Zm.871 0h-.87v.873h.87v-.873Zm.871 0h-.87v.873h.87v-.873Z" fill="#000"/><path d="M32.503 34.048h-.87v.873h.87v-.873Zm.871 0h-.87v.873h.87v-.873Zm.872 0h-.871v.873h.87v-.873Z" fill="#000"/><path d="M34.826 34.048h-.87v.873h.87v-.873Zm.871 0h-.87v.873h.87v-.873Zm-12.19.872h-.87v.874h.87v-.873Zm.871 0h-.87v.874h.87v-.873Zm1.452 0h-.871v.874h.87v-.873Zm1.74 0h-.87v.874h.87v-.873Zm1.742 0h-.87v.874h.87v-.873Zm1.451 0h-.87v.874h.87v-.873Zm.871 0h-.87v.874h.87v-.873Z" fill="#000"/><path d="M34.246 34.92h-.871v.874h.87v-.873Z" fill="#000"/><path d="M34.826 34.92h-.87v.874h.87v-.873Zm.871 0h-.87v.874h.87v-.873Zm-11.319.583h-.87v.873h.87v-.873Z" fill="#000"/><path d="M24.959 35.503h-.871v.873h.87v-.873Zm.871 0h-.871v.873h.87v-.873Zm.87 0h-.87v.873h.87v-.873Zm.87 0h-.87v.873h.87v-.873Zm1.742 0h-.87v.873h.87v-.873Z" fill="#000"/><path d="M29.892 35.503h-.87v.873h.87v-.873Zm.871 0h-.87v.873h.87v-.873Zm2.611 0h-.87v.873h.87v-.873Zm1.452 0h-.87v.873h.87v-.873Zm-11.319.873h-.87v.873h.87v-.873Zm1.452 0h-.871v.873h.87v-.873Zm1.741 0h-.87v.873h.87v-.873Zm4.063 0h-.87v.873h.87v-.873Zm.871 0h-.87v.873h.87v-.873Z" fill="#000"/><path d="M32.503 36.376h-.87v.873h.87v-.873Zm.871 0h-.87v.873h.87v-.873Zm.872 0h-.871v.873h.87v-.873Z" fill="#000"/><path d="M34.826 36.376h-.87v.873h.87v-.873Zm-12.188.873h-.87v.873h.87v-.873Zm1.74 0h-.87v.873h.87v-.873Zm1.452 0h-.871v.873h.87v-.873Zm.87 0h-.87v.873h.87v-.873Zm1.74 0h-.87v.873h.87v-.873Zm5.806 0h-.871v.873h.87v-.873Z" fill="#000"/><path d="M34.826 37.249h-.87v.873h.87v-.873Zm.871 0h-.87v.873h.87v-.873ZM20.025 17.46h-4.933v5.82h5.804v-5.82h-.87Zm0 4.947h-4.063v-4.074h4.063v4.074Zm14.801-4.947h-4.933v5.82h5.804v-5.82h-.87Zm0 4.947h-4.063v-4.074h4.063v4.074Zm-14.801 9.895h-4.933v5.82h5.804v-5.82h-.87Zm0 4.947h-4.063v-4.074h4.063v4.074Z" fill="#000"/><path d="M19.446 19.206h-2.612v2.62h2.612v-2.62Zm14.799 0h-2.612v2.62h2.612v-2.62ZM19.446 34.048h-2.612v2.619h2.612v-2.62Z" fill="#000"/></g><defs><clipPath id="clip0_979_5968"><path fill="#fff" d="M0 0h166v55H0z"/></clipPath></defs></svg>