<svg width="170" height="44" viewBox="0 0 170 44" fill="none" xmlns="http://www.w3.org/2000/svg"><path fill-rule="evenodd" clip-rule="evenodd" d="M20.935 5.09C14.688 10.537 9.2 15.333 2.96 20.76a.857.857 0 0 1-1.249-.117L.208 18.744a.951.951 0 0 1 .112-1.305C7.108 11.543 13.11 6.292 19.896.374c.548-.499 1.538-.499 2.078 0 3.06 2.677 6.114 5.339 9.181 8.015V5.17c0-.513.4-.931.892-.931h2.351c.484 0 .884.418.884.931v6.82c2.345 2.053 4.107 3.586 6.458 5.625.379.322.428.909.12 1.305l-1.503 1.9a.877.877 0 0 1-1.256.117 16053.262 16053.262 0 0 1-18.166-15.84v-.008Z" fill="#fff"/><path fill-rule="evenodd" clip-rule="evenodd" d="M5.964 29.546v-8.88c4.997-4.35 9.988-8.713 14.979-13.061l14.971 13.068c-7.896 2.214-16.326 6.937-21.78 12.144l-5.678-6.71-2.485 3.44h-.007Zm12.571-15.202h1.93v2.017h-1.93v-2.017Zm2.864 0h1.937v2.017H21.4v-2.017Zm1.944 3v2.016h-1.937v-2.017h1.937Zm-2.878 2.016h-1.93v-2.017h1.93v2.017Zm-7.166 21.377h-5.89c-.8 0-1.452-.675-1.452-1.518v-6.82l7.342 8.338Z" fill="#fff"/><path fill-rule="evenodd" clip-rule="evenodd" d="M14.562 40.737c4.724-8.316 11.09-14.682 21.345-20.057v18.54c0 .843-.645 1.518-1.453 1.518H14.562Z" fill="#fff"/><path d="M48.738 39.798v-13.89h4.745c.969 0 1.832.184 2.583.543.751.367 1.334.873 1.755 1.518.42.646.632 1.394.632 2.244 0 .85-.19 1.577-.562 2.222a4.044 4.044 0 0 1-1.544 1.526c-.653.366-1.411.557-2.26.557h-3.931v5.28h-1.418Zm1.418-6.453h3.93c.871 0 1.58-.294 2.141-.873.562-.58.836-1.335.836-2.259 0-.924-.337-1.701-1.004-2.28-.667-.58-1.523-.873-2.569-.873h-3.334v6.292-.007Zm14.607 6.688c-1.06 0-2-.22-2.815-.668a4.978 4.978 0 0 1-1.923-1.833c-.463-.777-.695-1.68-.695-2.699s.224-1.914.68-2.698A4.884 4.884 0 0 1 61.9 30.3c.8-.44 1.72-.667 2.744-.667 1.025 0 1.93.227 2.66.682a4.381 4.381 0 0 1 1.664 1.885c.38.799.576 1.723.576 2.764h-9.42l.505-.374c0 .91.169 1.694.506 2.34a3.53 3.53 0 0 0 1.446 1.488c.624.345 1.347.514 2.176.514.828 0 1.579-.19 2.175-.565a4.147 4.147 0 0 0 1.404-1.46l1.102.617c-.28.491-.645.924-1.095 1.298a4.941 4.941 0 0 1-1.579.88c-.604.212-1.27.315-2.007.315v.015h.007Zm-4.015-5.794-.555-.359h8.493l-.554.374c0-.704-.14-1.313-.428-1.848a3.07 3.07 0 0 0-1.2-1.24c-.513-.3-1.13-.447-1.854-.447-.723 0-1.354.147-1.951.448-.597.3-1.067.704-1.425 1.232-.35.52-.526 1.136-.526 1.833v.007Zm9.462-3.27v-1.093h6.794v1.093H70.21Zm5.208 9.064c-1.018 0-1.811-.242-2.387-.726-.575-.484-.863-1.166-.863-2.054V26.781h1.326v10.472c0 .528.169.946.506 1.24.337.3.807.447 1.41.447.176 0 .352-.022.52-.066.168-.044.414-.169.737-.367l.555 1.034c-.4.213-.73.345-.99.404-.267.058-.54.088-.814.088Zm8.963 0c-.87 0-1.628-.081-2.281-.25-.653-.168-1.214-.396-1.685-.682a4.829 4.829 0 0 1-1.158-.975 4.245 4.245 0 0 1-.695-1.13l1.327-.454c.253.623.744 1.166 1.48 1.635.738.47 1.636.704 2.696.704 1.355 0 2.408-.234 3.159-.704.75-.469 1.123-1.085 1.123-1.855s-.344-1.335-1.039-1.775c-.695-.44-1.586-.792-2.695-1.041l-1.566-.36a8.68 8.68 0 0 1-1.888-.681c-.582-.301-1.046-.675-1.404-1.144-.35-.462-.526-1.034-.526-1.709 0-1.24.442-2.215 1.327-2.904.884-.697 2.169-1.041 3.86-1.041 1.018 0 1.888.154 2.625.469.737.308 1.327.697 1.776 1.151.45.455.744.917.892 1.379l-1.299.455c-.323-.726-.85-1.291-1.58-1.694-.73-.404-1.607-.609-2.638-.609-1.088 0-1.952.235-2.59.711-.64.477-.962 1.115-.962 1.922 0 .726.253 1.276.751 1.635.498.367 1.151.638 1.965.821l1.566.338c1.558.33 2.751.858 3.586 1.576.829.719 1.25 1.489 1.25 2.31a3.36 3.36 0 0 1-.597 1.936c-.4.587-.997 1.064-1.79 1.416-.793.359-1.79.535-2.976.535l-.014.015Zm12.445 0c-1.06 0-2-.22-2.815-.668a4.93 4.93 0 0 1-1.923-1.833c-.463-.777-.695-1.68-.695-2.699s.225-1.914.68-2.698a4.846 4.846 0 0 1 1.91-1.834c.814-.44 1.748-.667 2.794-.667s1.972.205 2.78.623c.806.418 1.431.998 1.873 1.738l-1.144.558c-.337-.572-.814-1.012-1.425-1.342-.61-.323-1.305-.484-2.084-.484-.78 0-1.495.176-2.106.528a3.795 3.795 0 0 0-1.432 1.444c-.344.609-.52 1.328-.52 2.134 0 .807.176 1.518.527 2.134a3.75 3.75 0 0 0 1.453 1.445c.618.352 1.327.528 2.12.528.793 0 1.502-.183 2.12-.543a3.599 3.599 0 0 0 1.41-1.518l1.173.558a4.79 4.79 0 0 1-1.889 1.906c-.814.462-1.754.697-2.814.697l.007-.007Zm6.577-.235v-9.922h1.326v9.922h-1.326Zm.547-5.441c0-1.071.225-1.936.674-2.596a4.07 4.07 0 0 1 1.741-1.46 5.658 5.658 0 0 1 2.26-.469v1.093a5.69 5.69 0 0 0-1.867.308 3.104 3.104 0 0 0-1.467 1.034c-.386.484-.576 1.144-.576 1.972l-.772.118h.007Zm10.768 5.676c-1.06 0-2.001-.22-2.815-.668a4.93 4.93 0 0 1-1.923-1.833c-.463-.777-.695-1.68-.695-2.699s.225-1.914.681-2.698a4.883 4.883 0 0 1 1.888-1.834c.8-.44 1.72-.667 2.744-.667 1.025 0 1.931.227 2.661.682a4.38 4.38 0 0 1 1.663 1.885c.379.799.576 1.723.576 2.764h-9.42l.505-.374c0 .91.169 1.694.506 2.34a3.528 3.528 0 0 0 1.446 1.488c.624.345 1.347.514 2.176.514.828 0 1.579-.19 2.176-.565a4.15 4.15 0 0 0 1.403-1.46l1.102.617c-.28.491-.645.924-1.095 1.298a4.928 4.928 0 0 1-1.579.88c-.604.212-1.27.315-2.007.315v.015h.007Zm-4.015-5.794-.555-.359h8.493l-.554.374c0-.704-.141-1.313-.428-1.848a3.116 3.116 0 0 0-1.201-1.24c-.512-.3-1.13-.447-1.853-.447-.723 0-1.354.147-1.951.448-.597.3-1.067.704-1.425 1.232-.358.528-.526 1.136-.526 1.833v.007Zm15.449 5.794c-1.06 0-2.001-.22-2.815-.668a4.93 4.93 0 0 1-1.923-1.833c-.463-.777-.695-1.68-.695-2.699s.225-1.914.681-2.698a4.883 4.883 0 0 1 1.888-1.834c.8-.44 1.72-.667 2.744-.667 1.025 0 1.931.227 2.661.682a4.38 4.38 0 0 1 1.663 1.885c.379.799.576 1.723.576 2.764h-9.42l.506-.374c0 .91.168 1.694.505 2.34a3.528 3.528 0 0 0 1.446 1.488c.625.345 1.348.514 2.176.514.828 0 1.579-.19 2.176-.565a4.154 4.154 0 0 0 1.404-1.46l1.101.617c-.28.491-.645.924-1.094 1.298-.45.374-.976.674-1.58.88-.603.212-1.27.315-2.007.315v.015h.007Zm-4.015-5.794-.555-.359h8.493l-.554.374c0-.704-.14-1.313-.428-1.848a3.12 3.12 0 0 0-1.2-1.24c-.513-.3-1.131-.447-1.854-.447-.722 0-1.354.147-1.951.448-.596.3-1.067.704-1.425 1.232-.358.528-.526 1.136-.526 1.833v.007Zm10.676 5.559v-9.922h1.235l.091 1.826v8.096h-1.326Zm7.924-5.082c0-1.1-.14-1.929-.428-2.5-.288-.573-.674-.954-1.172-1.16-.491-.205-1.046-.307-1.664-.307-1.045 0-1.86.344-2.449 1.041-.59.697-.885 1.665-.885 2.904h-.814c0-1.056.169-1.965.506-2.72.336-.756.835-1.335 1.488-1.739.652-.403 1.453-.601 2.393-.601.856 0 1.607.154 2.26.47.653.307 1.172.806 1.544 1.48.372.675.555 1.57.541 2.677v.455h-1.327.007Zm0 5.082v-5.082h1.327v5.082h-1.327Zm4.52-12.503a.904.904 0 0 1-.617-.235c-.176-.161-.267-.345-.267-.557 0-.228.091-.411.267-.565a.91.91 0 0 1 .617-.227.91.91 0 0 1 .632.227.727.727 0 0 1 .253.565.745.745 0 0 1-.253.557.87.87 0 0 1-.632.235Zm-.68 12.503v-9.922h1.326v9.922h-1.326Zm4.211 0v-9.922h1.235l.092 1.826v8.096h-1.327Zm7.925-5.082c0-1.1-.141-1.929-.429-2.5-.287-.573-.673-.954-1.172-1.16-.491-.205-1.046-.307-1.663-.307-1.046 0-1.86.344-2.45 1.041-.589.697-.884 1.665-.884 2.904h-.815c0-1.056.169-1.965.506-2.72.337-.756.835-1.335 1.488-1.739.653-.403 1.453-.601 2.393-.601.857 0 1.608.154 2.261.47.652.307 1.172.806 1.544 1.48.372.675.554 1.57.54 2.677v.455h-1.326.007Zm0 5.082v-5.082h1.326v5.082h-1.326Zm8.079 0c-.969 0-1.832-.22-2.583-.653a4.572 4.572 0 0 1-1.762-1.818c-.428-.77-.639-1.658-.639-2.648 0-.99.211-1.862.639-2.618a4.7 4.7 0 0 1 1.762-1.774c.751-.433 1.607-.646 2.583-.646.975 0 1.768.213 2.484.646a4.54 4.54 0 0 1 1.678 1.774c.407.756.604 1.628.604 2.618s-.204 1.878-.604 2.648a4.61 4.61 0 0 1-1.678 1.818c-.716.44-1.544.653-2.484.653ZM164.679 44c-.659 0-1.27-.066-1.832-.198a9.762 9.762 0 0 1-1.41-.425 22.392 22.392 0 0 1-.794-.33l.485-.99c.175.095.442.205.807.344.358.14.779.257 1.256.36a7.08 7.08 0 0 0 1.488.146c.765 0 1.446-.139 2.05-.418a3.137 3.137 0 0 0 1.425-1.312c.344-.594.519-1.364.519-2.303v-9.005H170v9.005c0 1.151-.239 2.105-.716 2.867a4.362 4.362 0 0 1-1.93 1.694 6.39 6.39 0 0 1-2.668.558l-.007.007Zm.372-5.258c.709 0 1.334-.176 1.874-.528a3.596 3.596 0 0 0 1.278-1.437c.309-.609.463-1.313.463-2.105s-.154-1.474-.463-2.075a3.537 3.537 0 0 0-1.278-1.416c-.547-.344-1.179-.513-1.895-.513-.765 0-1.439.169-2.028.513a3.623 3.623 0 0 0-1.376 1.416c-.33.601-.498 1.29-.498 2.075 0 .785.168 1.496.505 2.105a3.77 3.77 0 0 0 1.39 1.437c.589.352 1.263.528 2.028.528ZM48.492 20.753V6.863h9.911v2.48h-6.886v3.329h5.735v2.479h-5.735v5.595h-3.025v.007Zm12.136 0v-9.922h2.913v9.922h-2.913Zm2.05-5.221c0-1.07.232-1.958.695-2.655a4.318 4.318 0 0 1 1.79-1.57 5.27 5.27 0 0 1 2.281-.512v2.537c-.674 0-1.313.073-1.91.22-.596.147-1.08.381-1.445.711-.365.33-.555.756-.555 1.269h-.863.007Zm11.855 5.456c-1.088 0-2.05-.22-2.892-.667a5.017 5.017 0 0 1-1.972-1.834c-.477-.777-.716-1.68-.716-2.698 0-1.02.246-1.914.737-2.7a5.127 5.127 0 0 1 2.028-1.832c.864-.44 1.853-.668 2.97-.668a5.42 5.42 0 0 1 2.68.682c.815.455 1.475 1.122 1.966 2.002.492.88.737 1.95.737 3.205h-8.367l.267-.235c0 .492.133.917.407 1.276a2.59 2.59 0 0 0 1.06.836c.435.19.898.286 1.404.286.604 0 1.095-.117 1.48-.344a2.54 2.54 0 0 0 .885-.902l2.604.909a4.94 4.94 0 0 1-1.2 1.437 5.213 5.213 0 0 1-1.755.924c-.673.213-1.445.316-2.316.316h-.007v.007Zm-2.407-6.211-.267-.235h5.32l-.245.235c0-.477-.127-.858-.372-1.144a2.217 2.217 0 0 0-.913-.624 3.023 3.023 0 0 0-1.046-.198 3.31 3.31 0 0 0-1.08.198 2.41 2.41 0 0 0-.983.624c-.274.286-.408.667-.408 1.144h-.007Zm15.182 6.211c-1.088 0-2.05-.22-2.892-.667a5.017 5.017 0 0 1-1.972-1.834c-.478-.777-.716-1.68-.716-2.698 0-1.02.245-1.914.737-2.7a5.127 5.127 0 0 1 2.028-1.832c.864-.44 1.853-.668 2.97-.668a5.42 5.42 0 0 1 2.68.682c.815.455 1.475 1.122 1.966 2.002.491.88.737 1.95.737 3.205h-8.367l.267-.235c0 .492.133.917.407 1.276a2.59 2.59 0 0 0 1.06.836c.435.19.898.286 1.404.286.603 0 1.095-.117 1.48-.344a2.54 2.54 0 0 0 .885-.902l2.604.909a4.94 4.94 0 0 1-1.2 1.437 5.213 5.213 0 0 1-1.755.924c-.674.213-1.446.316-2.316.316h-.007v.007ZM84.9 14.777l-.266-.235h5.32l-.245.235c0-.477-.127-.858-.373-1.144a2.217 2.217 0 0 0-.912-.624 3.023 3.023 0 0 0-1.046-.198 3.31 3.31 0 0 0-1.08.198 2.41 2.41 0 0 0-.984.624c-.273.286-.407.667-.407 1.144H84.9Z" fill="#fff"/></svg>