<svg width="477" height="178" viewBox="0 0 477 178" fill="none" xmlns="http://www.w3.org/2000/svg"><path d="M59.191 45.5c-.498-1.581-2.067-2.761-3.726-2.803.428-1.208-.399-2.606-1.576-3.114s-2.562-.28-3.721.268c-.82.387-1.582.93-2.466 1.13-1.162.261-2.365-.103-3.555-.142-2.427-.081-4.843 1.323-5.972 3.47-.396.753-.643 1.58-1.08 2.309-.35.584-.814 1.093-1.16 1.68-1 1.697-.832 4.005.402 5.541l16.743-3.843c1.364.944 3.328.915 4.664-.068 1.336-.983 1.945-2.848 1.447-4.428Z" fill="#263238"/><path d="m97.72 107.005-16.127-1.597-.933 8.365 18.212-.631-1.151-6.137Z" fill="#FFBF9D"/><path d="M109.969 111.906a.892.892 0 0 1-1.145.282c-.48-.242-.27-1.265-.27-1.265l-2.363-.778s-3.476 1.533-4.811 2.703c-1.335 1.169-4.025-.374-4.025-.374l-.175-5.319 5.102-3.327s-.312.197.115-.509c.428-.706 1.785-.199 1.785-.199.278-.338 1.215-.328 1.215-.328l3.845 1.069c.792.22 1.442.787 1.767 1.541l1.242 2.879s.577 2.023.367 2.439c-.317.628-.995.37-.995.37s-.388 1.208-.721 1.2c-.333-.007-.933-.384-.933-.384Z" fill="#FFBF9D"/><path d="M102.369 112.15c.004.007.094-.042.26-.141l.739-.422c.649-.355 1.61-.856 2.854-1.364l-.057.002 2.358.794-.067-.115a2.765 2.765 0 0 0-.049.599c.01.203.039.425.183.625a.62.62 0 0 0 .299.199.869.869 0 0 0 .338.074 1.01 1.01 0 0 0 .784-.365l.028-.035.014-.018.007-.009.001-.001-.151.03.003.001.005.003.072.044c.096.057.194.11.296.16.101.05.206.097.319.135.056.019.113.037.177.048a.417.417 0 0 0 .231-.007c.152-.076.22-.183.289-.283a2.69 2.69 0 0 0 .173-.314c.103-.214.187-.432.265-.661l-.157.075c.305.105.688.088.952-.165a.758.758 0 0 0 .244-.461 2.262 2.262 0 0 0-.012-.482c-.076-.621-.225-1.229-.393-1.847l-.002-.008-.003-.008-.662-1.536-.42-.974c-.142-.313-.258-.658-.479-.954a2.639 2.639 0 0 0-.786-.722c-.301-.19-.655-.282-.966-.365l-3.626-.997-.016-.004h-.013a3.419 3.419 0 0 0-.675.068c-.215.05-.445.108-.624.304l.142-.022c-.387-.235-.867-.313-1.269-.128-.403.182-.632.543-.778.892l.037-.047-3.514 2.278c-.395.263-.71.473-.95.631-.215.147-.325.228-.32.236.004.008.125-.058.35-.19l.977-.589 3.558-2.208.024-.015.014-.031c.133-.308.354-.635.685-.774.324-.151.744-.078 1.068.122l.08.049.063-.07c.104-.117.306-.186.503-.225.2-.04.417-.057.628-.058l-.029-.004 3.62 1.017c.325.089.629.168.904.342.275.166.519.389.71.655.196.259.305.583.451.908l.42.974.662 1.535-.005-.015c.165.605.316 1.214.389 1.806.016.146.028.296.014.425-.005.113-.08.225-.168.314-.172.176-.466.194-.698.117l-.119-.039-.039.115a5.802 5.802 0 0 1-.249.632c-.09.19-.216.419-.336.483a.227.227 0 0 1-.1-.004 1.056 1.056 0 0 1-.146-.039 2.617 2.617 0 0 1-.292-.122 4.45 4.45 0 0 1-.282-.15l-.068-.04-.004-.003-.002-.001-.152.03-.001.001-.005.007-.011.014-.022.028a.944.944 0 0 1-.1.1.78.78 0 0 1-.509.191.657.657 0 0 1-.264-.057.403.403 0 0 1-.207-.127c-.193-.277-.158-.711-.106-1.054l.014-.09-.081-.026-2.368-.762-.03-.009-.027.011a23.832 23.832 0 0 0-2.837 1.44c-.319.194-.56.351-.719.462-.163.113-.244.175-.239.181Z" fill="#FF9A6C"/><path d="M104.629 104.603c-.013.026.424.279 1.197.573.772.295 1.893.613 3.193.744l-.115-.108a9.773 9.773 0 0 0 1.626 4.021c.274.39.526.682.707.876.184.191.295.287.308.276.033-.029-.36-.464-.861-1.254a10.87 10.87 0 0 1-1.524-3.96l-.018-.099-.098-.009a15.314 15.314 0 0 1-3.161-.65c-.778-.248-1.238-.444-1.254-.41Z" fill="#FF9A6C"/><path d="M107.987 107.469c-.065.002.02 1.122.621 2.346.592 1.229 1.42 1.988 1.461 1.938.06-.052-.656-.865-1.226-2.052-.581-1.182-.777-2.247-.856-2.232Z" fill="#FF9A6C"/><path d="M96.832 110.781c-.004.007.035.038.113.092.078.055.2.128.364.21a4.319 4.319 0 0 0 3.86-.032 4.498 4.498 0 0 0 2.066-2.195l-.158.069a10.158 10.158 0 0 0 3.882.59c.348-.018.707-.033 1.051-.17.16-.063.355-.177.444-.367a.728.728 0 0 0-.36-.986l-.434-.184a40.938 40.938 0 0 0-3.086-1.14 34.381 34.381 0 0 0-2.13-.616c-.508-.126-.793-.181-.797-.164-.005.018.271.106.769.262.498.156 1.218.384 2.098.693.88.308 1.919.701 3.052 1.186l.427.187a.487.487 0 0 1 .235.647c-.055.115-.167.185-.315.245-.286.114-.624.131-.966.148a10.147 10.147 0 0 1-3.786-.567l-.112-.039-.046.109a4.339 4.339 0 0 1-1.935 2.103 4.24 4.24 0 0 1-2.235.485 4.582 4.582 0 0 1-1.49-.341c-.331-.138-.5-.24-.51-.225Z" fill="#FF9A6C"/><path d="M45.408 86.31c-3.925-.035-7.103-3.285-7.154-7.316l-.304-24.258c-.284-6.514 3.17-12.114 9.518-12.225l.588.025c5.91.251 10.642 5.119 10.874 11.189.215 5.648.445 11.105.287 14.123-.326 6.249-6.515 6.866-6.515 6.866-.014 0-.017 2.332-.014 4.168.008 4.125-3.264 7.465-7.28 7.429Z" fill="#FFBF9D"/><path d="M52.7 74.754s-3.847.069-7.829-2.743c0 0 1.717 4.782 7.813 4.476l.015-1.733Z" fill="#FF9A6C"/><path d="M56.683 59.281a.881.881 0 0 1-.874.866.842.842 0 0 1-.864-.843.881.881 0 0 1 .874-.866.842.842 0 0 1 .864.843Zm.84-2.851c-.112.112-.75-.416-1.686-.453-.934-.051-1.64.414-1.737.292-.048-.055.07-.26.378-.47.304-.21.814-.406 1.397-.378.582.028 1.063.269 1.336.506.279.239.368.453.312.504Zm-9.328 2.851a.88.88 0 0 1-.874.865.842.842 0 0 1-.864-.843.882.882 0 0 1 .874-.865.843.843 0 0 1 .864.843Zm.153-3.017c-.113.112-.752-.417-1.687-.454-.934-.05-1.64.414-1.737.292-.047-.054.07-.26.38-.47a2.34 2.34 0 0 1 1.395-.378c.583.028 1.064.269 1.337.506.277.24.367.454.312.504Zm3.055 7.524c-.002-.054.583-.133 1.53-.217.24-.015.468-.054.515-.22.063-.175-.026-.443-.13-.734l-.631-1.898c-.874-2.7-1.496-4.918-1.39-4.953.106-.035.9 2.126 1.775 4.827.21.666.41 1.3.6 1.908.08.283.223.606.086.968a.604.604 0 0 1-.407.342c-.155.042-.29.04-.408.041-.95.012-1.539-.009-1.54-.064ZM48.77 53.272c-.136.24-1.034-.056-2.138-.128-1.103-.094-2.032.065-2.134-.192-.044-.122.152-.336.548-.517.394-.183.993-.313 1.655-.264.662.05 1.236.269 1.6.508.367.238.53.478.47.593Zm8.91.336c-.2.213-.956-.035-1.873-.07-.914-.063-1.695.101-1.868-.132-.076-.113.052-.328.396-.526.34-.197.903-.35 1.532-.317.63.035 1.17.247 1.483.48.318.232.419.46.33.565Z" fill="#263238"/><path d="M38.26 59.386c-.102-.05-4.13-1.448-4.17 2.832-.039 4.28 4.153 3.437 4.161 3.314.008-.122.01-6.146.01-6.146Z" fill="#FFBF9D"/><path d="M36.994 63.899c-.018-.014-.073.051-.196.107a.706.706 0 0 1-.543.007c-.438-.17-.802-.892-.816-1.663-.007-.39.076-.76.213-1.066.13-.312.33-.528.551-.566a.367.367 0 0 1 .427.208c.055.12.027.206.05.213.01.01.09-.071.058-.248a.476.476 0 0 0-.162-.27.536.536 0 0 0-.4-.112c-.322.02-.614.32-.765.656a2.59 2.59 0 0 0-.262 1.19c.018.863.441 1.674 1.042 1.858a.76.76 0 0 0 .665-.107c.13-.104.152-.2.138-.207Z" fill="#FF9A6C"/><path d="M41.246 48.703c.175-1.113 1.013-2.013 2.082-2.373a4.25 4.25 0 0 1 2.815.035c2.346.854 6.352 2.13 7.4 1.312 1.506-1.176 1.867-1.943 1.867-1.943l.828.899c.674-.382-1.348-2.626-3.005-3.4-2.504-1.168-6.329-1.889-8.638-1.217-2.78.808-5.092 2.228-6.49 4.826-1.397 2.599-1.923 5.627-1.843 8.594.024.905-.142 3.5.735 3.7.678.156 1.548.457 1.499 1.763-.018.477.114.958.432 1.307.762.833 1.695.051 2.124-.733.917-1.676 1.02-3.677 1.102-5.598.058-1.365.112-2.759-.262-4.07 0 0-.618-1.69-.672-2.63a2.263 2.263 0 0 1 .026-.472Zm10.322 17.399c.026.065-.167.225-.554.31-.38.086-.964.063-1.509-.236a2.288 2.288 0 0 1-1.019-1.132c-.144-.366-.122-.615-.055-.63.145-.05.456.81 1.335 1.287.875.486 1.76.257 1.802.401Z" fill="#263238"/><path d="m55.897 123.185-19.929-4.377-12.791-31.7S6.059 90.9 3.234 100.452c-2.443 8.258-7.486 44.75 3.978 67.248 2.947 5.785 8.955 9.376 15.455 9.376h87.202c11.009 0 20.265-8.262 21.488-19.188.492-4.405.835-8.59.766-11.311l-14.002-10.734-62.224-12.657Z" fill="#1C49C2"/><path d="M109.207 134.214c6.135 8.006 13.606 15.202 22.538 19.9l.423-10.868-16.494-11.722-6.467 2.69Z" fill="#000" opacity=".3"/><path d="M43.371 80.946c0 .576 4.533 2.441 6.583 1.624 3.117-1.244 2.733-3.688 2.733-3.688l1.728 1.824 17.357 26.408 12.901 8.504-20.65 6.53-21.644-24.834.992-16.368Z" fill="#F5F5F5"/><path d="m37.902 72.08-.456.85-2.06 3.839-8.574 5.46 17.63 20.924 8.048 18.994 19.282 6.028s-9.175-14.091-12.025-21.291c-2.85-7.2-3.143-6.867-5.743-12.141-2.489-5.05-4.712-11.444-4.712-11.444l-11.39-11.218Zm41.305 37.688 3.781 3.525 1.07 2.177-14.06-6.534-10.151-14.193s-3.618-8.012-4.861-10.883c-1.308-3.02-2.284-4.728-2.284-4.728l-.014-2.384 5.13 4.615 4.277 1.273 7.143 11.276 9.97 15.856Z" fill="#A9BFF8"/><path d="M74.875 96.498s-1.707-3.638-3.1-6.66c-3.14-6.813-10.545-7.46-10.545-7.46l8.183 22.667 10.029 7.099s2.85.995 3.209 0c0 0 2.089-7.514 2.026-7.545-.064-.03-7.136-2.14-7.136-2.14l-2.848-6.35" fill="#A9BFF8"/><path d="m89.955 89.42-9.74 16.207 10.2-.302 8.994-15.015a.865.865 0 0 0-.743-1.31h-7.968a.868.868 0 0 0-.743.42Z" fill="#263238"/><path d="m52.492 107.747 24.379-2.898 4.1-7.165 3.208-1.763a1.602 1.602 0 0 1 1.714.11l.303.22 2.38-.3c.406-.051.817.03 1.172.232l1.687.96a.807.807 0 0 1-.553 1.49l-1.641-.301-2.51.817s1.62.172 1.825 1.4c.205 1.229-.615 1.253-.615 1.253s1.704.99.513 2.432c0 0 1.42.944-.172 2.739-1.077 1.215-8.84 5.171-8.84 5.171l-26.95 10.003v-14.4Z" fill="#FFBF9D"/><path d="M88.389 104.26c-.002-.01.183.001.397.222.203.212.403.666.259 1.202-.137.533-.567 1.026-1.05 1.497-.485.481-1.064.964-1.712 1.412-1.299.895-2.585 1.512-3.516 1.938-.936.423-1.526.653-1.54.623-.016-.034.549-.323 1.462-.785.908-.467 2.171-1.105 3.449-1.985a14.1 14.1 0 0 0 1.694-1.371c.488-.458.899-.91 1.04-1.379.148-.463 0-.879-.162-1.088-.169-.217-.333-.263-.321-.286ZM86.1 96.314c.018.068-.527.275-1.218.462-.69.186-1.266.283-1.284.215-.019-.068.527-.275 1.218-.462.69-.187 1.265-.283 1.284-.215Zm3.14 2.019c.022.067-.736.379-1.693.696-.957.318-1.751.522-1.773.454-.022-.066.735-.378 1.693-.696.957-.317 1.75-.52 1.773-.454Zm-2.921 3.249c-.073-.008-.106-.22-.19-.458-.08-.238-.183-.427-.13-.477.046-.051.27.097.372.395.102.297.015.551-.052.54Zm.832 2.811c-.071-.016-.044-.363-.147-.764-.095-.403-.28-.698-.224-.746.046-.049.358.215.472.685.117.468-.036.847-.1.825Z" fill="#FF9A6C"/><path d="M27.498 81.793c-.81.492-7.705 5.191-6.699 12.893 1.007 7.703 16.265 25.118 19.45 25.453l12.241 2.009v-14.4l-5.868-.335-7.714-15.07-11.41-10.55Z" fill="#A9BFF8"/><path d="M52.49 107.049c0 .014-.153.028-.439.043l-1.236.047-4.384.097-.062.001-.038-.051-3.1-4.161a685.959 685.959 0 0 1-4.7-6.415l-1.399-1.962c-.325-.467-.498-.731-.483-.742.016-.012.217.23.57.678l1.469 1.91a695.73 695.73 0 0 1 4.764 6.367l3.076 4.18-.1-.049 4.385.003 1.237.021c.286.009.44.02.44.033Zm-2.976-21.843c-.013.006-.096-.147-.24-.436l-.605-1.263.13.013a15.591 15.591 0 0 0-1.18 2.033c-.406.82-.866 1.773-1.534 2.698l-.1.136-.105-.13a67.539 67.539 0 0 0-2.676-3.078c-2.137-2.321-4.177-4.326-5.635-5.797l-1.72-1.748c-.4-.418-.616-.656-.602-.67.013-.013.254.199.678.593l1.78 1.686c1.494 1.435 3.558 3.42 5.703 5.75a58.862 58.862 0 0 1 2.672 3.102l-.205.006c.664-.9 1.127-1.827 1.552-2.646.423-.821.859-1.505 1.25-2.023l.08-.107.05.12.54 1.292c.121.3.18.463.167.469Zm8.349-3.684c.021-.01.174.245.37.724.198.478.405 1.187.64 2.026l.166.594-.38-.49c-.468-.603-1.098-1.244-1.8-1.893-.566-.522-1.123-1.002-1.628-1.441l.208-.08c-.126.967-.048 1.819-.076 2.418-.014.602-.094.95-.12.945-.03-.004-.004-.35-.034-.944-.016-.592-.131-1.438-.022-2.453l.026-.232.182.152c.515.428 1.08.905 1.652 1.433.708.654 1.34 1.315 1.806 1.95l-.214.104c-.213-.85-.384-1.556-.541-2.041-.153-.485-.261-.76-.235-.772Zm17.727 23.479c-.014.014-.22-.178-.58-.536l-1.51-1.531c-.63-.661-1.384-1.403-2.207-2.319-.378-.481-.71-1.012-1.104-1.527-.406-.533-.716-1.146-1.019-1.773-.586-1.267-1.025-2.516-1.423-3.648-.396-1.133-.744-2.154-1.067-3-.324-.844-.612-1.517-.84-1.969-.226-.45-.37-.692-.35-.705.008-.005.052.05.13.16.072.112.196.27.315.494.26.44.577 1.107.926 1.948.349.841.717 1.859 1.125 2.986.411 1.126.856 2.367 1.434 3.616.297.617.601 1.22.986 1.729.396.524.73 1.066 1.088 1.532.77.878 1.543 1.671 2.147 2.339l1.447 1.593c.336.382.516.599.502.611Zm7.078 8.133 46.279-1.299a5.131 5.131 0 0 1 2.138.396c1.682.716 4.71 2.552 6.785 6.954 3.01 6.39 17.04 33.307 17.04 33.307l-14.19 7.261-17.403-32.238-53.637-4.549.62-4.281 12.368-5.551Z" fill="#263238"/><path d="m136.504 154.088 7.396 12.674.492 3.204a3.596 3.596 0 0 0 4.1 3.005l22.507-3.449c1.126-.173 1.864-1.369 1.39-2.404-.181-.395-.508-.727-1.072-.871-1.883-.48-16.407-5.804-16.407-5.804l-6.057-12.114-12.349 5.759Z" fill="#CCC"/><path d="M142.702 157.019c-.057.041-.801-.87-1.661-2.036-.861-1.167-1.512-2.146-1.456-2.188.057-.042.801.87 1.662 2.036.86 1.167 1.511 2.146 1.455 2.188Zm4.416-1.773c-.053.042-.817-.871-1.552-2.136-.739-1.263-1.157-2.376-1.095-2.402.068-.03.585 1.026 1.315 2.274.727 1.25 1.391 2.22 1.332 2.264Zm3.085 17.319c-.048.013-.167-.44-.505-1.098a6.71 6.71 0 0 0-1.805-2.207 6.741 6.741 0 0 0-2.576-1.228c-.721-.17-1.189-.179-1.188-.228-.002-.033.472-.101 1.23.022.752.117 1.789.47 2.719 1.199a6.049 6.049 0 0 1 1.812 2.352c.299.706.345 1.182.313 1.188Zm15.164-2.181c-.029.013-.215-.288-.358-.84a3.892 3.892 0 0 1 .109-2.207c.291-.833.79-1.461 1.171-1.87.391-.407.673-.611.698-.585.032.033-.198.29-.537.722-.332.434-.779 1.053-1.05 1.83a4.325 4.325 0 0 0-.184 2.069c.085.536.198.863.151.881Z" fill="#263238"/><path d="M68.493 119.436s47.761-4.779 50.081-4.588c4.284.353 12.181 7.098 26.198 16.495 11.628 7.796 20.109 16.881 20.109 16.881l-4.478 10.213s-31.412-11.433-36.336-15.543c-4.093-3.416-11.558-8.28-11.558-8.28l-18.423.185-13.69 1.206a20.142 20.142 0 0 1-17.752-7.804l-5.316-6.933 11.165-1.832Z" fill="#263238"/><path d="M112.287 134.47s.078.045.222.143l.644.442 2.478 1.738c2.152 1.535 5.314 3.738 9.189 6.667.243.18.474.392.736.552l.791.492c.567.284 1.138.594 1.739.877l1.848.857 1.943.857a411.154 411.154 0 0 0 8.58 3.585 1149.67 1149.67 0 0 0 20.408 8.03l-.165.074 4.061-10.274.029.146-5.573-5.676.008.007a246.005 246.005 0 0 0-4.147-3.526c-9.163-7.618-18.402-14.132-26.769-19.611l-.007-.004-.008-.008a26 26 0 0 0-4.054-2.846c-1.405-.801-2.855-1.456-4.334-1.88-.37-.1-.744-.18-1.112-.271l-1.116-.171-1.111-.058-1.109-.002-4.284-.006-14.422-.029-9.36-.035-2.48-.02-.638-.01c-.143-.003-.215-.01-.215-.01s.072-.007.216-.01l.637-.011 2.48-.019 9.36-.036 14.422-.028 4.284-.006 1.109-.001 1.134.057 1.137.171c.374.091.754.172 1.13.273 1.501.427 2.969 1.086 4.389 1.891a26.404 26.404 0 0 1 4.101 2.87l-.015-.011c8.381 5.468 17.633 11.982 26.807 19.608a246.613 246.613 0 0 1 4.152 3.53l.004.004.004.004 5.571 5.678.062.064-.033.083-4.069 10.27-.047.119-.118-.046a1077.175 1077.175 0 0 1-20.398-8.068 397.46 397.46 0 0 1-8.575-3.612l-1.942-.865-1.848-.867c-.603-.286-1.176-.6-1.744-.888l-.808-.509c-.268-.166-.493-.374-.736-.556-3.856-2.943-7.006-5.169-9.141-6.725l-2.454-1.773-.631-.46a3.994 3.994 0 0 1-.212-.161Z" fill="#455A64"/><path d="m150.258 155.839 13.234 5.2 2.204 2.38a3.6 3.6 0 0 0 5.081.197l16.716-15.442c.836-.773.777-2.176-.196-2.768-.372-.226-.828-.319-1.377-.122-1.829.655-16.848 4.364-16.848 4.364l-10.061-8.014-8.753 14.205Z" fill="#CCC"/><path d="M171.969 162.322c-.032.038-.385-.27-1.034-.627a6.735 6.735 0 0 0-2.733-.819 6.742 6.742 0 0 0-2.823.423c-.694.262-1.086.517-1.113.475-.02-.026.335-.347 1.032-.67a6.07 6.07 0 0 1 2.925-.526 6.075 6.075 0 0 1 2.821.935c.643.418.948.786.925.809Zm11.34-10.286c-.017.027-.339-.118-.768-.496a3.89 3.89 0 0 1-1.147-1.889c-.226-.852-.164-1.652-.077-2.204.094-.555.215-.882.25-.874.045.009-.001.351-.04.898-.032.545-.055 1.309.156 2.103a4.331 4.331 0 0 0 1.007 1.817c.371.397.648.605.619.645Z" fill="#263238"/><path d="M104.164 134.475c-1.025-4.854-3.12-9.821-7.265-12.555-3.145-2.074-7.036-2.587-10.777-3.046l-78.258-9.61c-.7 12.316 4.577 27.645 9.962 38.748.835 1.722 1.803 3.485 3.404 4.538 1.95 1.284 4.451 1.273 6.787 1.214 26.324-.67 52.661-1.788 78.836-4.666-1.472-4.737-1.665-9.769-2.689-14.623Z" fill="#1C49C2"/><path d="M36.65 112.799c-.002.019-.33-.003-.921-.06l-2.501-.269c-2.11-.243-5.022-.603-8.232-1.046-3.21-.442-6.112-.886-8.205-1.252a68.224 68.224 0 0 1-2.472-.467c-.582-.124-.901-.201-.897-.219.003-.019.33.023.916.114l2.485.38c2.098.317 5.002.729 8.211 1.172l8.218 1.125 2.49.357c.587.088.91.146.909.165Zm.403 64.276a.774.774 0 0 1-.081-.15l-.214-.451-.796-1.748-.57-1.266c-.199-.467-.391-.985-.61-1.535-.423-1.107-.954-2.351-1.402-3.775l-.745-2.221c-.256-.773-.464-1.596-.71-2.437-.515-1.68-.914-3.513-1.366-5.434a97.302 97.302 0 0 1-1.805-12.702 97.323 97.323 0 0 1 .035-12.833c.182-1.965.324-3.836.602-5.57.129-.868.221-1.711.368-2.512l.432-2.302c.247-1.472.601-2.777.868-3.931.14-.575.26-1.114.392-1.604l.39-1.333.549-1.84.149-.477a.805.805 0 0 1 .06-.159.82.82 0 0 1-.033.167l-.123.484c-.12.442-.286 1.063-.498 1.854l-.367 1.336c-.124.491-.235 1.031-.369 1.607-.252 1.156-.592 2.461-.826 3.932l-.414 2.3c-.14.8-.228 1.642-.35 2.508-.268 1.731-.402 3.598-.576 5.558a99.714 99.714 0 0 0-.014 12.796c.333 4.53.99 8.813 1.78 12.668.443 1.917.833 3.747 1.337 5.425.241.841.444 1.663.693 2.436l.727 2.221c.435 1.425.952 2.67 1.36 3.781.212.552.397 1.071.588 1.541l.547 1.274.748 1.767.189.463c.04.105.06.16.055.162Z" fill="#263238"/><path d="M36.226 152.251c-.004.075-1.383.073-3.08-.005-1.698-.079-3.071-.205-3.068-.281.004-.076 1.383-.073 3.08.006 1.698.078 3.071.204 3.068.28Zm-.716 3.567c-.01.069-1.477-.14-3.16-.824-1.687-.678-2.886-1.547-2.845-1.603.044-.07 1.29.682 2.948 1.347 1.654.674 3.074.999 3.057 1.08Zm-6.853-24.53c.032.062-.846.509-2.038.62-1.192.118-2.139-.154-2.119-.221.015-.081.949.061 2.093-.054 1.144-.104 2.034-.422 2.064-.345Zm1.561-1.179c.02.067-1.055.229-2.245-.282-1.197-.499-1.828-1.383-1.766-1.414.06-.06.747.693 1.873 1.16 1.12.483 2.139.452 2.138.536Zm27.555-83.943c-.345-1.03-1.296-1.785-2.342-2.082-1.046-.296-2.173-.182-3.218.121l-10.166 2.323c1.453.967 4.5 1.9 6.236 2.085 2.537.27 4.323.293 5.837-.577.31 1.041 1.723 1.502 2.67.97.95-.532 1.329-1.81.983-2.84ZM159.345 152.67c-.018.066-1.402-.262-3.04-.879-1.639-.613-2.896-1.277-2.867-1.337.031-.067 1.329.489 2.957 1.098 1.627.613 2.97 1.048 2.95 1.118Zm2.242-4.341c-.038.063-1.175-.543-2.607-1.228-1.431-.689-2.615-1.198-2.589-1.267.024-.063 1.258.343 2.699 1.037 1.444.69 2.532 1.4 2.497 1.458Z" fill="#263238"/><path d="m80.602 117.582 20.498.25 24.747-4.897a1.931 1.931 0 0 0 1.536-1.606l3.364-22.255a1.639 1.639 0 0 0-1.885-1.862l-25.298 4.11a1.64 1.64 0 0 0-1.364 1.415l-2.823 22.632-18.742-.09a1.152 1.152 0 0 0-.033 2.303Z" fill="#CCC"/><path d="M80.602 117.582s-.139.024-.39-.065a1.163 1.163 0 0 1-.601-1.691c.16-.276.465-.518.849-.572.752-.029 1.603-.008 2.57-.014l16.348.038-.091.08 2.819-22.777a1.762 1.762 0 0 1 1.081-1.276c.28-.112.559-.124.825-.176l.814-.132 3.302-.539 6.807-1.109 7.047-1.146 3.602-.586 1.82-.295.913-.149c.303-.04.607-.126.952-.103a1.78 1.78 0 0 1 1.543 1.232c.111.326.089.707.029 1.012l-.144.952-.571 3.775-1.117 7.374-1.077 7.105-.263 1.73-.13.857c-.035.277-.094.597-.237.864a2.047 2.047 0 0 1-1.39 1.072l-1.659.329-23.135 4.549-.01.002h-.009l-15.024-.224-4.061-.073-1.054-.025a9.071 9.071 0 0 1-.358-.019s.122-.007.359-.009l1.054.001 4.062.026 15.025.144-.019.001 23.124-4.605 1.654-.33c.522-.11.987-.468 1.228-.95.126-.244.175-.497.212-.791l.129-.857.261-1.73 1.07-7.106 1.113-7.374.57-3.775.144-.952c.06-.325.072-.606-.02-.898a1.526 1.526 0 0 0-1.32-1.053c-.278-.023-.582.057-.89.1l-.914.148c-.608.1-1.214.198-1.819.296l-3.602.585-7.048 1.143-6.807 1.103-3.303.535-.815.132c-.271.051-.548.066-.776.16a1.527 1.527 0 0 0-.936 1.103l-2.87 22.752-.01.081h-.081l-16.348-.12c-.962-.002-1.828-.03-2.558-.011-.36.047-.65.27-.804.53a1.13 1.13 0 0 0-.142.797c.105.499.468.748.698.836.24.093.381.076.379.088Z" fill="#263238"/><path d="M104.385 92.031c.07.009-.609 5.918-1.516 13.198-.908 7.281-1.701 13.176-1.77 13.167-.07-.009.609-5.917 1.516-13.199.907-7.28 1.7-13.175 1.77-13.166Z" fill="#263238"/><path d="M115.386 101.221c-.515 1.073-.232 2.278.632 2.692.863.414 1.982-.121 2.497-1.194.515-1.073.232-2.278-.631-2.691-.865-.414-1.983.12-2.498 1.193Z" fill="#fff"/><g clip-path="url(#clip0_1064_17317)"><g filter="url(#filter0_d_1064_17317)"><path d="M197.968 20.332h-46.55V66.62h46.55V20.332Z" fill="#B9B5B5"/><path d="M194.816 20.332h-46.55V66.62h46.55V20.332Z" fill="#FAFAFA"/><path d="M194.829 66.634H148.25V20.319h46.579v46.315Zm-46.55-.028H194.8v-46.26h-46.521v46.26Z" fill="#B9B5B5"/><path d="M188.558 26.555h-34.035v33.843h34.035V26.555Z" fill="#fff"/><path d="M154.521 60.623c.027.03-.296.384-.84.931a91.108 91.108 0 0 1-2.163 2.092 92.956 92.956 0 0 1-2.224 2.03c-.58.51-.954.81-.984.782-.029-.029.292-.38.836-.928a91.882 91.882 0 0 1 2.168-2.096 90.857 90.857 0 0 1 2.228-2.033c.58-.51.952-.809.979-.778Zm34.036-.083c.032-.026.403.283.977.801a95.46 95.46 0 0 1 2.193 2.064 92.08 92.08 0 0 1 2.128 2.12c.533.554.849.911.819.94-.029.027-.398-.28-.972-.797a94.711 94.711 0 0 1-2.198-2.069 93.218 93.218 0 0 1-2.132-2.125c-.533-.554-.847-.908-.815-.934Zm-.095-33.895c-.026-.03.297-.384.84-.931a93.61 93.61 0 0 1 2.164-2.092 92.462 92.462 0 0 1 2.223-2.03c.581-.51.955-.81.984-.782.029.028-.292.38-.835.928a94.017 94.017 0 0 1-2.169 2.096 92.643 92.643 0 0 1-2.228 2.034c-.58.509-.952.808-.979.777Zm-34.035.083c-.031.026-.403-.282-.976-.8a90.862 90.862 0 0 1-2.193-2.065 91.084 91.084 0 0 1-2.128-2.12c-.534-.554-.849-.91-.82-.939.03-.028.399.278.973.797a91.737 91.737 0 0 1 2.197 2.068c.846.82 1.599 1.572 2.132 2.125.534.554.847.909.815.934Z" fill="#B9B5B5"/><path d="M188.464 60.398a1.38 1.38 0 0 1-.008-.165l-.007-.472-.015-1.827-.035-6.898-.066-24.481.131.125-33.939.019h-.003l.151-.144-.022 33.842-.129-.123 24.576.063 6.903.032 1.826.015.472.007c.107.002.162.005.165.007.002.002-.049.004-.15.007-.113.001-.263.003-.458.007l-1.802.014-6.874.032-24.659.064h-.129v-.124l-.021-33.843v-.143h.154l33.939.018h.132l-.001.125-.066 24.563-.035 6.869-.015 1.802-.008.46a1.407 1.407 0 0 1-.007.149Z" fill="#B9B5B5"/><path d="M177.216 38.06h-11.357v10.833h11.357V38.06Z" fill="#D1D1D1"/></g><g filter="url(#filter1_d_1064_17317)"><path d="M430.137 22.456V64.3h-63.004l-2.27-41.551 65.274-.293Z" fill="#B9B5B5"/><path d="M364.863 22.749v41.463h63.004V22.749h-63.004Z" fill="#fff"/><path d="M428.164 64.497h-63.602V22.464h63.602v42.033Zm-63.003-.57h62.406V23.033h-62.406v40.892Z" fill="#B9B5B5"/><path d="M421.044 27.9h-49.356v31.16h49.356V27.9Z" fill="#fff"/><path d="M421.043 27.9s-.085.006-.243.008l-.702.008-2.711.016c-2.371.01-5.818.021-10.171.037l-35.53.067.143-.136.013 31.156v.004l-.156-.148 49.357.03-.124.118.065-22.672.031-6.269.014-1.647c.005-.373.014-.572.014-.572s.009.182.013.547l.014 1.625.032 6.243.065 22.745v.119h-.124l-49.356.03h-.156v-.152l.013-31.156v-.137h.143l35.623.068 10.139.036 2.682.017.686.008c.153.002.226.007.226.007Z" fill="#B9B5B5"/><path d="M364.861 22.632c.026-.032.438.226 1.083.67a64.549 64.549 0 0 1 2.47 1.796 47.909 47.909 0 0 1 2.368 1.921c.587.513.93.851.903.881-.059.063-1.574-1.128-3.466-2.57-1.893-1.439-3.414-2.63-3.358-2.698Zm63.003.116c.053.065-1.431 1.27-3.315 2.693-1.884 1.422-3.455 2.523-3.509 2.46-.053-.065 1.431-1.27 3.316-2.693 1.884-1.422 3.455-2.523 3.508-2.46Z" fill="#B9B5B5"/><path d="m427.814 64.218-7.025-5.431 7.025 5.431Z" fill="#fff"/><path d="M420.79 58.787c.055-.064 1.671 1.1 3.611 2.6 1.94 1.5 3.468 2.767 3.414 2.83-.054.065-1.67-1.1-3.611-2.6-1.939-1.5-3.467-2.767-3.414-2.83Zm-55.929 5.425c-.054-.065 1.415-1.257 3.28-2.664 1.866-1.408 3.42-2.496 3.474-2.432.053.065-1.416 1.257-3.281 2.664-1.865 1.407-3.42 2.496-3.473 2.432Z" fill="#B9B5B5"/><path d="M381.707 37.609v10.433h31.056V37.61h-31.056Z" fill="#F5F5F5"/></g><path d="M432.282 120.046 417.516 177h3.887l15.13-56.954h-4.251Zm27.813 0L473.911 177h-3.887l-14.18-56.954h4.251Zm-11.545 56.117h-4.525l-.673-65.368h4.524l.674 65.368Z" fill="#fff"/><path d="M477.538 72.406h-63.847v39.019h63.847v-39.02Z" fill="#D1D1D1"/><path d="M461.656 119.448h-32.047v3.768h32.047v-3.768Zm-43.721-13.114c.015 0 .03.225.043.714h-.087c-.066-1.908-.114-8.23-.114-15.723l.046-11.624.05-3.522.03-.958c.01-.22.02-.334.031-.334s.022.115.032.334l.029.958.05 3.522.046 11.624c0 7.492-.048 13.815-.113 15.723h-.088c.015-.489.029-.714.045-.714Zm4.75 0c.015 0 .03.225.043.714h-.087c-.066-1.908-.114-8.23-.114-15.723l.046-11.624.05-3.522.03-.958c.01-.22.02-.334.031-.334s.022.115.032.334l.029.958.05 3.522.046 11.624c0 7.492-.048 13.815-.113 15.723h-.088c.015-.489.029-.714.045-.714Zm4.754 0c.015 0 .029.225.043.714h-.087c-.066-1.908-.114-8.23-.114-15.723l.046-11.624.05-3.522.029-.958c.011-.22.021-.334.032-.334s.022.115.032.334l.029.958.05 3.522.046 11.624c0 7.492-.048 13.815-.114 15.723h-.087c.015-.489.029-.714.045-.714Zm4.75 0c.015 0 .029.225.043.714h-.087c-.066-1.908-.114-8.23-.114-15.723l.046-11.624.05-3.522.029-.958c.011-.22.021-.334.032-.334s.022.115.032.334l.029.958.05 3.522c.013 3.012.029 7.103.046 11.624 0 7.492-.047 13.815-.113 15.723h-.088c.015-.489.029-.714.045-.714Zm4.753 0c.016 0 .03.225.044.714h-.087c-.066-1.908-.114-8.23-.114-15.723l.046-11.624.05-3.522.03-.958c.01-.22.021-.334.031-.334.011 0 .022.115.032.334l.03.958.049 3.522c.013 3.012.029 7.103.046 11.624 0 7.492-.047 13.815-.113 15.723h-.088c.015-.489.029-.714.044-.714Zm4.75 0c.016 0 .03.225.044.714h-.087c-.066-1.908-.114-8.23-.114-15.723l.046-11.624.05-3.522.03-.958c.01-.22.021-.334.031-.334.011 0 .022.115.032.334l.03.958.05 3.522.046 11.624c0 7.492-.048 13.815-.114 15.723h-.087c.014-.489.028-.714.043-.714Zm4.754 0c.016 0 .03.225.044.714h-.087c-.066-1.908-.114-8.23-.114-15.723l.046-11.624.05-3.522.029-.958c.01-.22.021-.334.032-.334s.022.115.032.334l.029.958.05 3.522.046 11.624c0 7.492-.048 13.815-.114 15.723h-.087c.014-.489.029-.714.044-.714Zm4.75 0c.016 0 .03.225.044.714h-.087c-.066-1.908-.114-8.23-.114-15.723l.046-11.624.05-3.522.029-.958c.01-.22.021-.334.032-.334s.021.115.032.334l.029.958.05 3.522.046 11.624c0 7.492-.047 13.815-.113 15.723h-.087c.014-.489.028-.714.043-.714Zm4.754 0c.015 0 .03.225.044.714h-.088c-.065-1.908-.113-8.23-.113-15.723l.046-11.624.05-3.522.029-.958c.011-.22.021-.334.032-.334s.021.115.031.334l.03.958.05 3.522.046 11.624c0 7.492-.048 13.815-.114 15.723h-.087c.014-.489.029-.714.044-.714Zm4.75 0c.015 0 .03.225.044.714h-.088c-.065-1.908-.113-8.23-.113-15.723l.046-11.624.05-3.522.029-.958c.011-.22.021-.334.032-.334s.021.115.031.334l.03.958.05 3.522.046 11.624c0 7.492-.048 13.815-.114 15.723h-.087c.014-.489.029-.714.044-.714Zm4.754 0c.015 0 .03.225.044.714h-.088c-.065-1.908-.113-8.23-.113-15.723l.046-11.624.05-3.522.03-.958c.01-.22.02-.334.031-.334s.021.115.032.334l.029.958.05 3.522.046 11.624c0 7.492-.048 13.815-.114 15.723h-.087c.015-.489.029-.714.044-.714Zm4.75 0c.015 0 .03.225.044.714h-.088c-.065-1.908-.113-8.23-.113-15.723l.046-11.624.05-3.522.029-.958c.011-.22.021-.334.032-.334s.021.115.031.334l.03.958.05 3.522.046 11.624c0 7.492-.049 13.815-.114 15.723h-.087c.014-.489.029-.714.044-.714Zm4.754 0c.015 0 .03.225.044.714h-.088c-.065-1.908-.113-8.23-.113-15.723l.046-11.624.05-3.522.029-.958c.01-.22.021-.334.032-.334.01 0 .021.115.031.334l.03.958.05 3.522.046 11.624c0 7.492-.049 13.815-.114 15.723h-.088c.015-.489.03-.714.045-.714Z" fill="#fff"/><path d="M180.483 137.521V34.289h207.661v103.232H180.483Z" fill="#fff" stroke="#000" stroke-width=".2"/><path d="M388.244 34.189H180.383v12.833h207.861V34.189Z" fill="#1C49C2"/><path d="m388.244 137.621-.084-103.432.084.084-207.847.029h-.014l.112-.113-.006 103.432-.106-.106 207.861.106-207.861.107h-.107v-.107l-.006-103.432v-.113h.127l207.847.029h.083v.084l-.083 103.432Z" fill="#263238"/><path d="M366.03 98.03H199.212a2.29 2.29 0 0 1-2.288-2.291V75.403a2.29 2.29 0 0 1 2.288-2.292H366.03a2.29 2.29 0 0 1 2.288 2.292v20.336a2.29 2.29 0 0 1-2.288 2.292Z" fill="#FAFAFA" stroke="#000" stroke-width=".2"/><path d="M366.029 98.13c-.006-.02.357.044.97-.22.297-.14.656-.37.942-.771.292-.391.492-.955.453-1.605l-.021-11.358-.01-8.208c-.007-.376.028-.757-.07-1.118a2.293 2.293 0 0 0-.521-.994 2.295 2.295 0 0 0-.945-.644 2.406 2.406 0 0 0-.569-.131c-.195-.014-.398-.012-.601-.011l-5.062.005-23.766.016c-35.221.01-83.873.02-137.608.034-.803-.005-1.592.441-1.982 1.145a2.316 2.316 0 0 0-.303 1.145v19.832c0 .413-.018.806.104 1.176.232.74.86 1.345 1.614 1.524.368.103.77.064 1.178.072h1.209l9.586.001 36.536.007 61.866.024 41.707.036 11.339.021 2.949.011a63.82 63.82 0 0 1 1.005.012s-.34.007-1.005.011l-2.949.012-11.339.021-41.707.036-61.866.024-36.536.007h-11.401a2.617 2.617 0 0 1-.627-.078c-.828-.197-1.517-.86-1.772-1.673-.135-.41-.115-.846-.115-1.244v-3.676l-.001-9.9v-6.256c.003-.437.112-.878.333-1.258.429-.773 1.297-1.264 2.177-1.259l137.609.033 23.765.017 5.062.005c.204 0 .405-.003.612.012a2.473 2.473 0 0 1 1.588.816 2.4 2.4 0 0 1 .544 1.042c.101.385.064.774.07 1.145l-.009 8.208-.022 11.358a2.48 2.48 0 0 1-.471 1.625 2.388 2.388 0 0 1-1.686.963c-.169.01-.254.009-.254.009Zm-160.668-38.8v6.606h-1.008l-3.637-4.474v4.474H199.5V59.33h1.008l3.637 4.473V59.33h1.216Zm5.869 3.652v2.954h-1.112v-.614c-.282.434-.829.68-1.583.68-1.149 0-1.875-.633-1.875-1.51 0-.84.566-1.501 2.092-1.501h1.3v-.075c0-.69-.414-1.095-1.253-1.095-.565 0-1.15.189-1.526.5l-.462-.859c.537-.415 1.319-.622 2.13-.622 1.451 0 2.289.688 2.289 2.142Zm-1.178 1.377v-.585h-1.215c-.801 0-1.018.302-1.018.67 0 .425.358.699.961.699.575 0 1.074-.264 1.272-.784Zm11.1-1.311v2.888h-1.178v-2.737c0-.897-.415-1.33-1.13-1.33-.773 0-1.31.509-1.31 1.51v2.557h-1.178v-2.737c0-.897-.415-1.33-1.13-1.33-.783 0-1.31.509-1.31 1.51v2.557h-1.178v-5.04h1.121v.642c.377-.452.961-.698 1.649-.698.735 0 1.347.274 1.696.84.405-.52 1.084-.84 1.884-.84 1.216 0 2.064.688 2.064 2.208Zm6.263.746h-3.948c.141.736.753 1.207 1.63 1.207.565 0 1.008-.179 1.366-.547l.632.727c-.453.538-1.159.82-2.026.82-1.687 0-2.78-1.085-2.78-2.585s1.102-2.576 2.601-2.576c1.47 0 2.544 1.028 2.544 2.604 0 .095-.01.236-.019.35Zm-3.958-.784h2.855c-.094-.726-.65-1.227-1.423-1.227-.763 0-1.319.491-1.432 1.227Z" fill="#263238"/><path d="M212.843 87.12v.676h-3.249v-4.338h3.162v.675h-2.358v1.129h2.092v.663h-2.092v1.196h2.445Zm4.077-1.22v1.896h-.774V86c0-.589-.291-.874-.786-.874-.551 0-.922.334-.922.998v1.673h-.774v-3.31h.737v.428c.253-.304.656-.465 1.139-.465.792 0 1.38.453 1.38 1.45Zm2.967 1.717c-.186.148-.464.223-.743.223-.724 0-1.138-.385-1.138-1.116V85.13h-.545v-.62h.545v-.756h.773v.756h.885v.62h-.885v1.575c0 .322.161.496.458.496a.698.698 0 0 0 .434-.137l.216.552Zm3.62-1.227h-2.593c.093.483.495.793 1.071.793.371 0 .662-.118.897-.36l.415.478c-.297.353-.761.54-1.331.54-1.107 0-1.825-.714-1.825-1.7 0-.984.724-1.691 1.708-1.691.965 0 1.671.675 1.671 1.71 0 .062-.006.155-.013.23Zm-2.599-.515h1.875c-.062-.477-.427-.806-.934-.806-.502 0-.867.322-.941.806Zm5.266-1.426v.738a.964.964 0 0 0-.179-.019c-.588 0-.96.347-.96 1.022v1.606h-.773v-3.31h.736v.484c.223-.348.625-.521 1.176-.521Zm5.486.037-1.547 3.577c-.303.75-.724.979-1.275.979-.328 0-.675-.112-.885-.304l.31-.57a.834.834 0 0 0 .569.229c.272 0 .433-.13.582-.459l.055-.13-1.442-3.322h.804l1.04 2.448 1.046-2.448h.743Zm.117 1.655c0-.992.743-1.692 1.758-1.692 1.028 0 1.764.7 1.764 1.692s-.737 1.698-1.764 1.698c-1.015 0-1.758-.706-1.758-1.698Zm2.742 0c0-.632-.42-1.035-.984-1.035-.557 0-.978.403-.978 1.035 0 .632.421 1.035.978 1.035.563 0 .984-.403.984-1.035Zm4.721-1.655v3.31h-.737v-.422c-.247.304-.637.465-1.064.465-.848 0-1.423-.465-1.423-1.463v-1.89h.773v1.785c0 .6.285.886.774.886.538 0 .903-.335.903-.998v-1.673h.774Zm2.926-.037v.738a.964.964 0 0 0-.179-.019c-.588 0-.96.347-.96 1.022v1.606h-.773v-3.31h.736v.484c.223-.348.625-.521 1.176-.521Zm5.648 1.451v1.896h-.773V86c0-.589-.291-.874-.786-.874-.551 0-.922.334-.922.998v1.673h-.774v-3.31h.736v.428c.254-.304.656-.465 1.139-.465.792 0 1.38.453 1.38 1.45Zm3.75-.044v1.94h-.73v-.403c-.186.286-.545.447-1.04.447-.755 0-1.232-.416-1.232-.992 0-.552.372-.986 1.374-.986h.854v-.05c0-.451-.272-.718-.823-.718-.371 0-.755.124-1.002.328l-.304-.564c.353-.273.867-.409 1.399-.409.953 0 1.504.453 1.504 1.407Zm-.774.905v-.384h-.798c-.526 0-.668.198-.668.44 0 .28.235.459.631.459.377 0 .705-.174.835-.515Zm7.288-.861v1.896h-.774V86c0-.589-.272-.874-.742-.874-.508 0-.86.334-.86.991v1.68h-.774V86c0-.589-.273-.874-.743-.874-.514 0-.86.334-.86.991v1.68h-.774v-3.31h.736v.422c.248-.298.632-.459 1.083-.459.483 0 .886.18 1.114.552.267-.341.712-.552 1.238-.552.8 0 1.356.453 1.356 1.45Zm4.113.49h-2.593c.092.483.495.793 1.07.793.372 0 .663-.118.898-.36l.415.478c-.297.353-.762.54-1.331.54-1.108 0-1.826-.714-1.826-1.7 0-.984.724-1.691 1.708-1.691.966 0 1.671.675 1.671 1.71 0 .062-.006.155-.012.23Zm-2.6-.515h1.876c-.062-.477-.427-.806-.935-.806-.501 0-.866.322-.941.806Zm8.317.025v1.896h-.774V86c0-.589-.291-.874-.786-.874-.551 0-.922.334-.922.998v1.673h-.774v-4.599h.774v1.674c.254-.273.643-.422 1.101-.422.793 0 1.381.453 1.381 1.45Zm4.107.49h-2.593c.093.483.495.793 1.071.793.371 0 .662-.118.897-.36l.415.478c-.297.353-.762.54-1.331.54-1.108 0-1.826-.714-1.826-1.7 0-.984.725-1.691 1.709-1.691.965 0 1.671.675 1.671 1.71 0 .062-.007.155-.013.23Zm-2.599-.515h1.875c-.062-.477-.427-.806-.934-.806-.502 0-.867.322-.941.806Zm5.266-1.426v.738a.965.965 0 0 0-.18-.019c-.588 0-.959.347-.959 1.022v1.606h-.773v-3.31h.736v.484c.223-.348.625-.521 1.176-.521Zm3.72 1.941h-2.593c.092.483.495.793 1.07.793.372 0 .663-.118.898-.36l.415.478c-.298.353-.762.54-1.331.54-1.108 0-1.826-.714-1.826-1.7 0-.984.724-1.691 1.708-1.691.966 0 1.671.675 1.671 1.71 0 .062-.006.155-.012.23Zm-2.599-.515h1.875c-.062-.477-.427-.806-.935-.806a.913.913 0 0 0-.94.806Zm-34.108 37.326h-36.934c-5.067 0-9.175-4.114-9.175-9.189s4.108-9.189 9.175-9.189h36.934c5.067 0 9.175 4.114 9.175 9.189s-4.108 9.189-9.175 9.189Z" fill="#1C49C2"/><path d="M208.146 79.938h-.708v11.718h.708V79.938Z" fill="#FF725E"/><path d="M207.402 113.78c0-1.357 1.038-2.339 2.433-2.339.739 0 1.375.266 1.796.76l-.544.514a1.597 1.597 0 0 0-1.213-.533c-.941 0-1.622.663-1.622 1.598 0 .936.681 1.599 1.622 1.599.473 0 .882-.176 1.213-.539l.544.519c-.421.494-1.057.76-1.803.76-1.388 0-2.426-.981-2.426-2.339Z" fill="#FAFAFA"/><path d="M209.827 116.13c-.676 0-1.295-.236-1.741-.663-.448-.43-.695-1.029-.695-1.687 0-.658.247-1.257.696-1.686.447-.428 1.067-.663 1.747-.663.743 0 1.384.271 1.805.763l.007.009-.008.007-.552.52-.008-.008a1.587 1.587 0 0 0-1.205-.529c-.454 0-.864.158-1.156.445a1.581 1.581 0 0 0-.455 1.142c0 .449.162.854.455 1.143.293.286.703.444 1.156.444.476 0 .882-.18 1.205-.535l.007-.008.008.007.553.527-.007.009c-.421.492-1.064.763-1.812.763Zm.007-4.677c-.674 0-1.289.233-1.732.657-.445.426-.69 1.019-.69 1.671 0 .651.245 1.244.689 1.671.443.424 1.055.657 1.726.657.737 0 1.372-.265 1.789-.749l-.53-.504a1.59 1.59 0 0 1-1.213.534c-.946 0-1.633-.677-1.633-1.609 0-.933.687-1.61 1.633-1.61.476 0 .885.178 1.213.529l.53-.499c-.417-.483-1.049-.748-1.782-.748Z" fill="#263238"/><path d="M211.953 114.32c0-1.04.778-1.774 1.842-1.774 1.077 0 1.849.734 1.849 1.774s-.772 1.78-1.849 1.78c-1.064 0-1.842-.741-1.842-1.78Zm2.874 0c0-.663-.442-1.085-1.032-1.085-.583 0-1.025.422-1.025 1.085 0 .662.442 1.085 1.025 1.085.59 0 1.032-.423 1.032-1.085Z" fill="#FAFAFA"/><path d="M213.794 116.111c-1.073 0-1.853-.754-1.853-1.791 0-1.034.78-1.784 1.853-1.784.525 0 .999.177 1.336.5.338.323.524.779.524 1.284s-.186.963-.524 1.287c-.338.325-.812.504-1.336.504Zm0-3.554c-1.061 0-1.831.741-1.831 1.762 0 1.025.77 1.769 1.831 1.769.519 0 .987-.176 1.321-.497.333-.32.517-.772.517-1.272 0-.499-.184-.95-.517-1.269-.333-.318-.802-.493-1.321-.493Zm0 2.859c-.609 0-1.035-.451-1.035-1.096s.425-1.096 1.035-1.096c.614 0 1.043.451 1.043 1.096s-.429 1.096-1.043 1.096Zm0-2.17c-.596 0-1.014.441-1.014 1.074 0 .632.417 1.074 1.014 1.074.601 0 1.021-.442 1.021-1.074 0-.633-.42-1.074-1.021-1.074Z" fill="#263238"/><path d="M219.834 114.066v1.988h-.811v-1.884c0-.617-.305-.916-.824-.916-.578 0-.966.351-.966 1.046v1.754h-.811v-3.469h.772v.448c.266-.318.687-.487 1.193-.487.83 0 1.447.474 1.447 1.52Z" fill="#FAFAFA"/><path d="M219.844 116.065h-.833v-1.895c0-.592-.281-.904-.812-.904-.608 0-.956.376-.956 1.034v1.765h-.833v-3.491h.794v.43c.265-.303.684-.469 1.182-.469.431 0 .791.129 1.042.371.276.266.415.657.415 1.16v1.999h.001Zm-.811-.022h.789v-1.977c0-.959-.523-1.509-1.435-1.509-.504 0-.925.171-1.186.483l-.019.023v-.467h-.75v3.447h.789V114.3c0-.662.366-1.057.978-1.057.546 0 .834.321.834.927v1.873Z" fill="#263238"/><path d="M222.949 115.866c-.195.155-.487.234-.779.234-.759 0-1.193-.403-1.193-1.17v-1.669h-.571v-.65h.571v-.792h.811v.792h.927v.65h-.927v1.65c0 .337.168.519.48.519.168 0 .33-.045.454-.142l.227.578Z" fill="#FAFAFA"/><path d="M222.169 116.111c-.776 0-1.204-.419-1.204-1.181v-1.658h-.57v-.672h.57v-.792h.833v.792h.927v.672h-.927v1.639c0 .333.162.508.469.508a.71.71 0 0 0 .447-.14l.011-.009.006.014.23.585-.006.005c-.188.15-.474.237-.786.237Zm-1.753-2.861h.57v1.68c0 .748.42 1.159 1.183 1.159.304 0 .582-.083.766-.227l-.219-.557a.739.739 0 0 1-.449.136c-.316 0-.491-.189-.491-.531v-1.661h.928v-.627h-.928v-.793h-.789v.793h-.571v.628Z" fill="#263238"/><path d="M223.508 111.526c0-.272.22-.487.519-.487.298 0 .519.201.519.468a.497.497 0 0 1-.519.506c-.299 0-.519-.214-.519-.487Zm.11 1.059h.811v3.469h-.811v-3.469Z" fill="#FAFAFA"/><path d="M224.439 116.065h-.832v-3.491h.832v3.491Zm-.811-.022h.789v-3.447h-.789v3.447Zm.398-4.019c-.302 0-.53-.214-.53-.498 0-.284.228-.498.53-.498.302 0 .53.206.53.479a.507.507 0 0 1-.53.517Zm0-.974c-.29 0-.508.205-.508.476 0 .272.218.477.508.477a.486.486 0 0 0 .508-.496c0-.26-.218-.457-.508-.457Z" fill="#263238"/><path d="M228.904 114.066v1.988h-.811v-1.884c0-.617-.305-.916-.823-.916-.578 0-.967.351-.967 1.046v1.754h-.811v-3.469h.772v.448c.266-.318.687-.487 1.193-.487.831 0 1.447.474 1.447 1.52Z" fill="#FAFAFA"/><path d="M228.914 116.065h-.832v-1.895c0-.592-.281-.904-.813-.904-.607 0-.956.376-.956 1.034v1.765h-.833v-3.491h.794v.43c.266-.303.685-.469 1.183-.469.431 0 .791.129 1.042.371.276.266.415.657.415 1.16v1.999Zm-.811-.022h.789v-1.977c0-.959-.523-1.509-1.436-1.509-.503 0-.924.171-1.185.483l-.019.023v-.467h-.75v3.447h.789V114.3c0-.662.365-1.057.977-1.057.546 0 .835.321.835.927v1.873Z" fill="#263238"/><path d="M233.294 112.585v3.469h-.772v-.442c-.26.318-.668.487-1.116.487-.889 0-1.492-.487-1.492-1.533v-1.981h.811v1.871c0 .63.298.929.811.929.564 0 .947-.351.947-1.046v-1.754h.811Z" fill="#FAFAFA"/><path d="M231.405 116.111c-.461 0-.827-.127-1.087-.378-.276-.266-.416-.659-.416-1.166v-1.993h.833v1.882c0 .601.277.918.8.918.595 0 .936-.377.936-1.035v-1.765h.833v3.491h-.794v-.423c-.256.298-.656.469-1.105.469Zm-1.481-3.515v1.971c0 .501.138.889.41 1.151.255.246.616.37 1.071.37.454 0 .857-.176 1.107-.482l.019-.024v.461h.75v-3.447h-.789v1.743c0 .662-.358 1.057-.957 1.057-.538 0-.822-.325-.822-.94v-1.859l-.789-.001Z" fill="#263238"/><path d="M237.603 114.58h-2.718c.097.506.519.831 1.122.831.389 0 .695-.123.941-.377l.434.501c-.311.37-.797.565-1.394.565-1.162 0-1.914-.747-1.914-1.781 0-1.033.759-1.773 1.79-1.773 1.012 0 1.752.708 1.752 1.793a4.517 4.517 0 0 1-.013.241Zm-2.725-.54h1.966c-.065-.5-.448-.844-.98-.844-.525 0-.908.338-.986.844Z" fill="#FAFAFA"/><path d="M235.987 116.111c-.567 0-1.051-.175-1.4-.506-.338-.32-.525-.777-.525-1.285 0-1.034.758-1.784 1.801-1.784 1.038 0 1.762.741 1.762 1.803 0 .08-.009.196-.013.242l-.001.01h-2.714c.102.5.526.809 1.109.809.383 0 .688-.122.932-.373l.008-.009.008.009.441.508-.006.007c-.312.372-.798.569-1.402.569Zm-.123-3.554c-1.031 0-1.779.741-1.779 1.762 0 .502.184.953.517 1.27.345.327.824.499 1.385.499.594 0 1.072-.191 1.381-.554l-.421-.484c-.248.25-.555.372-.94.372-.599 0-1.033-.322-1.132-.84l-.003-.013h2.721c.004-.051.012-.156.012-.23-.001-1.049-.716-1.782-1.741-1.782Zm.991 1.494h-1.99l.002-.012c.079-.519.471-.854.996-.854.526 0 .924.343.991.854l.001.012Zm-1.964-.022h1.94c-.069-.492-.456-.822-.967-.822-.51 0-.891.322-.973.822Z" fill="#263238"/><path d="M187.988 42.164a2.063 2.063 0 0 0 2.061-2.065c0-1.14-.923-2.065-2.061-2.065a2.063 2.063 0 0 0-2.062 2.065c0 1.14.923 2.065 2.062 2.065Zm7.597 0a2.063 2.063 0 0 0 2.062-2.065c0-1.14-.923-2.065-2.062-2.065a2.064 2.064 0 0 0-2.062 2.065c0 1.14.924 2.065 2.062 2.065Zm7.598 0a2.063 2.063 0 0 0 2.062-2.065c0-1.14-.923-2.065-2.062-2.065a2.063 2.063 0 0 0-2.062 2.065c0 1.14.923 2.065 2.062 2.065Z" fill="#fff"/><path d="M414.868 92.635c.004.001-.014.065-.053.19l-.181.55c-.163.482-.399 1.195-.725 2.105a209.44 209.44 0 0 1-2.88 7.665c-2.563 6.413-6.356 15.225-11.735 24.313-1.285 2.299-2.468 4.588-3.357 6.902a31.113 31.113 0 0 0-1.792 6.897c-.634 4.518-.378 8.655-.022 12.08.372 3.432.867 6.186 1.187 8.09l.38 2.193.094.571c.02.129.027.196.023.197a.971.971 0 0 1-.05-.192l-.12-.566-.429-2.184c-.351-1.9-.875-4.651-1.271-8.088-.38-3.431-.657-7.583-.033-12.135a31.16 31.16 0 0 1 1.791-6.956c.893-2.333 2.08-4.634 3.368-6.937 5.376-9.082 9.185-17.861 11.793-24.254a268.507 268.507 0 0 0 2.956-7.63l.772-2.088.205-.541c.048-.122.074-.184.079-.182Z" fill="#263238"/><path d="M409.982 123.005c.007.005-.049.107-.164.295l-.51.816a187.23 187.23 0 0 1-1.935 2.964c-1.642 2.497-3.986 5.897-6.341 9.795a81.162 81.162 0 0 0-3.082 5.627 64.27 64.27 0 0 0-2.124 4.787c-.54 1.389-.955 2.524-1.212 3.319l-.314.909c-.074.207-.118.314-.127.312-.008-.003.018-.115.076-.328l.267-.924c.227-.806.615-1.952 1.135-3.355a57.623 57.623 0 0 1 2.081-4.827 74.733 74.733 0 0 1 3.074-5.655c2.362-3.909 4.731-7.294 6.413-9.764l2.003-2.917.552-.788c.128-.179.2-.27.208-.266Z" fill="#263238"/><path d="M414.817 92.634c.124-1.237-1.213-2.469-2.38-2.901-1.167-.433-2.468-.293-3.683-.024-7.05 1.561-12.875 7.635-14.133 14.736a91.23 91.23 0 0 1 10.028-4.234l-.579.164c3.309-.643 6.288-2.815 7.908-5.768.312-.568.586-1.176 1.059-1.62.473-.444 1.22-.68 1.78-.353Zm.007-.012c3.211-2.19 7.272-3.173 11.1-2.488 3.827.685 7.356 3.084 9.22 6.492 1.866 3.408 1.956 7.771.059 11.161-1.796-3.723-3.716-7.6-7.057-10.038-.782-.57-1.667-1.092-2.107-1.954-.511-1-.302-2.234-.738-3.269-.538-1.273-2.021-1.643-3.403-1.715-1.383-.072-5.39 1.198-7.074 1.81Z" fill="#145B20"/><path d="M414.742 92.561c3.319-.983 7.072.638 9.331 3.12 2.259 2.483 3.407 5.815 3.796 9.147.389 3.332.075 6.701-.263 10.039a41.743 41.743 0 0 1-5.715-12.655c-.534-2.034-.923-4.135-1.882-6.007-.96-1.872-3.183-3.34-5.267-3.644Z" fill="#145B20"/><path d="M414.628 92.635c2.652-1.227 4.147-3.995 4.487-6.893.342-2.899-.919-5.935-3.214-7.742-2.641 2.403-3.658 6.43-2.474 9.796.561 1.594 1.582 3.192 1.201 4.838Z" fill="#145B20"/><path d="M393.431 146.354c-.009.003-.066-.134-.167-.398-.105-.263-.236-.658-.439-1.154-.386-1-.991-2.428-1.815-4.158-1.644-3.46-4.233-8.094-7.485-12.956-3.251-4.865-6.511-9.057-9.096-11.886-1.292-1.413-2.409-2.494-3.254-3.15a9.024 9.024 0 0 0-1.01-.7c-.249-.129-.379-.201-.376-.21.004-.009.141.047.402.162.252.13.614.344 1.047.666.871.638 2.014 1.703 3.329 3.106 2.629 2.806 5.92 6.99 9.177 11.866 3.26 4.872 5.829 9.532 7.435 13.023.805 1.744 1.384 3.188 1.742 4.201.189.503.305.905.394 1.173.084.27.125.412.116.415Z" fill="#263238"/><path d="M402.977 177.153h-18.123l-2.827-20.953h24.323l-3.373 20.953Z" fill="#FF725E"/><path d="M419.959 130.503c-1.83-3.923-6.534-6.485-10.854-6.133.963.386 1.556 1.383 1.796 2.39.241 1.008.197 2.057.278 3.09.39 4.955 3.583 9.184 6.649 13.099 2.155 2.752 4.322 5.517 6.899 7.879-.309-7.05-.754-14.518-4.768-20.325Z" fill="#145B20"/><path d="M409.105 124.424c2.742-2.11 6.284-2.984 9.746-3.019 3.461-.036 6.88.71 10.236 1.558 2.015.51 4.063 1.076 5.786 2.238 1.723 1.161 3.095 3.034 3.129 5.11-2.845-3.123-7.431-3.726-11.491-4.904-2.752-.798-5.408-1.94-8.213-2.524-2.806-.584-6.712.109-9.193 1.541Zm.473-.559c-1.204-1.259-.539-4.207.509-5.598 1.047-1.391 2.71-2.171 4.353-2.754a30.406 30.406 0 0 1 6.689-1.553c-.231 1.43-1.071 2.705-2.115 3.712-1.043 1.006-2.287 1.777-3.521 2.539l-5.915 3.654Zm-11.285-1.692c-3.436 1.503-6.098 4.311-8.66 7.047a38.318 38.318 0 0 0 10.806-4.469c1.33-.808 2.649-1.714 4.169-2.053 1.519-.338 3.228.336 4.497 1.387-2.151-3.164-7.376-3.416-10.812-1.912Zm-1.611 22.44c1.921-4.404 1.112-9.747 3.551-13.887 1.868-3.17 5.319-5.052 8.75-6.389.796 2.388.418 5.052-.592 7.357-1.011 2.305-2.612 4.301-4.302 6.167-2.336 2.578-4.876 4.963-7.413 7.345" fill="#145B20"/><path d="M407.465 155.654h-27.106v4.715h27.106v-4.715Z" fill="#FF725E"/><path d="M406.565 160.52c0 .073-5.866.131-13.1.131-7.237 0-13.102-.058-13.102-.131 0-.073 5.865-.132 13.102-.132 7.234 0 13.1.059 13.1.132Z" fill="#263238"/><path d="M416.066 92.82c-.949-1.644-1.907-3.3-3.151-4.733-1.245-1.435-2.808-2.651-4.632-3.186-2.443-.715-5.066-.148-7.506.577a59.823 59.823 0 0 0-8.332 3.17 16.507 16.507 0 0 0 11.077.196c1.865-.634 3.676-.552 5.633-.33 2.384.271 5.367 2.472 6.911 4.306Zm-64.763 27.927c-4.272 5.429-5.693 12.679-5.214 19.568 2.502-9.128 7.869-17.451 15.156-23.502 2.785-2.313 6.347-4.144 9.799-4.144-7.104-.632-15.334 2.478-19.741 8.078Z" fill="#145B20"/><path d="M361.226 109.844c-2.381.174-4.56 1.38-6.529 2.729-3.015 2.068-5.842 4.675-7.158 8.083 5.254-6.306 13.826-9.685 21.977-8.663-2.596-1.291-5.398-2.361-8.29-2.149Zm6.673-8.154c-1.38.956-2.435 2.527-2.364 4.202.048 1.149.615 2.227 1.369 3.096.754.868 1.958 2.075 2.887 2.754.874-3.869 1.927-7.911 2.801-11.78-1.645.334-3.313.772-4.693 1.728Zm8.065-.372c-1.864 1.194-3.527 2.797-4.433 4.814-.906 2.018-1.285 4.563-.141 6.456 3.253-4.822 6.814-9.657 10.569-14.1-2.058.814-4.132 1.636-5.995 2.83Zm6.846 6.648c-4.275-.344-8.669 1.578-11.314 4.95 1.758-.906 4.113-1.401 6.075-1.148 5.253.68 10.468 1.646 15.615 2.892-2.071-3.752-6.1-6.351-10.376-6.694Z" fill="#145B20"/><path d="M371.988 112.588c-4.023.22-7.545 3.314-8.949 7.086-1.405 3.771-.925 8.054.595 11.781 1.519 3.726 4.003 6.978 6.636 10.025 1.322-4.537 2.649-9.097 3.23-13.786.582-4.689.14-10.678-1.512-15.106Z" fill="#145B20"/><g opacity=".3" fill="#000"><path d="M351.303 120.747c-4.272 5.429-5.693 12.679-5.214 19.568 2.502-9.128 7.869-17.451 15.156-23.502 2.785-2.313 6.347-4.144 9.799-4.144-7.104-.632-15.334 2.478-19.741 8.078Z"/><path d="M361.226 109.844c-2.381.174-4.56 1.38-6.529 2.729-3.015 2.068-5.842 4.675-7.158 8.083 5.254-6.306 13.826-9.685 21.977-8.663-2.596-1.291-5.398-2.361-8.29-2.149Zm6.673-8.154c-1.38.956-2.435 2.527-2.364 4.202.048 1.149.615 2.227 1.369 3.096.754.868 1.958 2.075 2.887 2.754.874-3.869 1.927-7.911 2.801-11.78-1.645.334-3.313.772-4.693 1.728Zm8.065-.372c-1.864 1.194-3.527 2.797-4.433 4.814-.906 2.018-1.285 4.563-.141 6.456 3.253-4.822 6.814-9.657 10.569-14.1-2.058.814-4.132 1.636-5.995 2.83Zm6.846 6.648c-4.275-.344-8.669 1.578-11.314 4.95 1.758-.906 4.113-1.401 6.075-1.148 5.253.68 10.468 1.646 15.615 2.892-2.071-3.752-6.1-6.351-10.376-6.694Z"/><path d="M371.988 112.588c-4.023.22-7.545 3.314-8.949 7.086-1.405 3.771-.925 8.054.595 11.781 1.519 3.726 4.003 6.978 6.636 10.025 1.322-4.537 2.649-9.097 3.23-13.786.582-4.689.14-10.678-1.512-15.106Z"/></g><g opacity=".2" fill="#000"><path d="M419.959 130.503c-1.83-3.923-6.534-6.485-10.854-6.133.963.386 1.556 1.383 1.796 2.39.241 1.008.197 2.057.278 3.09.39 4.955 3.583 9.184 6.649 13.099 2.155 2.752 4.322 5.517 6.899 7.879-.309-7.05-.754-14.518-4.768-20.325Z"/><path d="M409.105 124.424c2.742-2.11 6.284-2.984 9.746-3.019 3.461-.036 6.88.71 10.236 1.558 2.015.51 4.063 1.076 5.786 2.238 1.723 1.161 3.095 3.034 3.129 5.11-2.845-3.123-7.431-3.726-11.491-4.904-2.752-.798-5.408-1.94-8.213-2.524-2.806-.584-6.712.109-9.193 1.541Zm.473-.559c-1.204-1.259-.539-4.207.509-5.598 1.047-1.391 2.71-2.171 4.353-2.754a30.406 30.406 0 0 1 6.689-1.553c-.231 1.43-1.071 2.705-2.115 3.712-1.043 1.006-2.287 1.777-3.521 2.539l-5.915 3.654Zm-11.285-1.692c-3.436 1.503-6.098 4.311-8.66 7.047a38.318 38.318 0 0 0 10.806-4.469c1.33-.808 2.649-1.714 4.169-2.053 1.519-.338 3.228.336 4.497 1.387-2.151-3.164-7.376-3.416-10.812-1.912Zm-1.611 22.44c1.921-4.404 1.112-9.747 3.551-13.887 1.868-3.17 5.319-5.052 8.75-6.389.796 2.388.418 5.052-.592 7.357-1.011 2.305-2.612 4.301-4.302 6.167-2.336 2.578-4.876 4.963-7.413 7.345"/></g></g><defs><filter id="filter0_d_1064_17317" x="136.25" y="10.319" width="73.719" height="70.315" filterUnits="userSpaceOnUse" color-interpolation-filters="sRGB"><feFlood flood-opacity="0" result="BackgroundImageFix"/><feColorMatrix in="SourceAlpha" values="0 0 0 0 0 0 0 0 0 0 0 0 0 0 0 0 0 0 127 0" result="hardAlpha"/><feOffset dy="2"/><feGaussianBlur stdDeviation="6"/><feComposite in2="hardAlpha" operator="out"/><feColorMatrix values="0 0 0 0 0.431478 0 0 0 0 0.421028 0 0 0 0 0.421028 0 0 0 0.4 0"/><feBlend in2="BackgroundImageFix" result="effect1_dropShadow_1064_17317"/><feBlend in="SourceGraphic" in2="effect1_dropShadow_1064_17317" result="shape"/></filter><filter id="filter1_d_1064_17317" x="352.562" y="12.456" width="89.574" height="66.041" filterUnits="userSpaceOnUse" color-interpolation-filters="sRGB"><feFlood flood-opacity="0" result="BackgroundImageFix"/><feColorMatrix in="SourceAlpha" values="0 0 0 0 0 0 0 0 0 0 0 0 0 0 0 0 0 0 127 0" result="hardAlpha"/><feOffset dy="2"/><feGaussianBlur stdDeviation="6"/><feComposite in2="hardAlpha" operator="out"/><feColorMatrix values="0 0 0 0 0.431478 0 0 0 0 0.421028 0 0 0 0 0.421028 0 0 0 0.4 0"/><feBlend in2="BackgroundImageFix" result="effect1_dropShadow_1064_17317"/><feBlend in="SourceGraphic" in2="effect1_dropShadow_1064_17317" result="shape"/></filter><clipPath id="clip0_1064_17317"><path fill="#fff" transform="translate(131)" d="M0 0h346v177H0z"/></clipPath></defs></svg>