<svg width="110" height="86" viewBox="0 0 110 86" fill="none" xmlns="http://www.w3.org/2000/svg"><path d="M49.65 59.354s2.968 3.3 3.275 10.106c.307 6.807-5.22 10.725-6.755 11.138-1.535.412-3.377.516-3.377.516V60.076l6.857-.722Zm-36.132 0s-2.968 3.3-3.275 10.106c-.307 6.807 5.22 10.725 6.755 11.138 1.535.412 3.377.516 3.377.516V60.076l-6.857-.722Z" fill="#F98" stroke="#263238" stroke-miterlimit="10" stroke-linecap="round" stroke-linejoin="round"/><path d="M58.475 13.308c2.405-2.603 4.008-9.066 2.405-11.49-1.603-2.423-10.244.988-13.361 4.31-3.118 3.32-4.365 5.384-4.365 5.384-3.522-.517-9.76-.426-11.85-.377-2.113-.049-8.41-.14-11.933.377 0 0-1.247-2.064-4.364-5.385C11.889 2.807 3.249-.605 1.645 1.82c-1.603 2.423 0 8.886 2.405 11.489 2.405 2.603 7.127 8.347 7.75 8.975.624.629-.446 7.988-.267 17.323.178 9.334.356 17.054 1.514 21.362s3.118 9.963 3.118 11.578c0 1.616-.446 3.142-1.336 4.667-.891 1.526-2.94 2.155-3.207 3.95-.268 1.795.534 2.782 2.94 3.41 2.404.629 3.562.629 5.255-.448 1.692-1.077 2.94-2.962 2.94-2.962l9.085.18 9.086-.18s1.247 1.885 2.94 2.962c1.692 1.077 2.85 1.077 5.255.449 2.405-.629 3.207-1.616 2.94-3.411-.268-1.795-2.317-2.424-3.208-3.95-.89-1.525-1.336-3.051-1.336-4.667 0-1.615 1.96-7.27 3.118-11.578s.178-12.028.356-21.362c.178-9.335-.89-16.695-.267-17.323.623-.628 5.344-6.373 7.75-8.975Z" fill="#F98" stroke="#263238" stroke-miterlimit="10" stroke-linecap="round" stroke-linejoin="round"/><path d="M41.873 58.137c-3.665.876-3.467-.16-3.764-4.22-.297-4.06 3.863-6.05 7.132-7.961 3.269-1.91 5.448-7.564 4.656-8.519-.793-.955-8.52-.319-9.114-1.752-.594-1.433-.835-5.937-.835-5.937l-8.377-2.382-8.726 2.382s.108 4.504-.486 5.937c-.595 1.433-8.321.797-9.114 1.752-.792.956 1.387 6.608 4.656 8.519 3.269 1.91 7.43 3.901 7.132 7.961-.297 4.06-.099 5.096-3.764 4.22-3.665-.876-6.637-2.866-6.637.159s.694 7.245 2.873 8.758c2.179 1.512 4.061.716 5.25 3.503 1.189 2.786 1.037 7.726-.323 10.172-.06.108-.098.22-.126.332.152-.205.237-.332.237-.332l9.085.18 9.082-.18c-1.36-2.446-1.511-7.386-.323-10.172 1.189-2.787 3.07-1.99 5.25-3.504 2.18-1.512 2.873-5.732 2.873-8.757 0-3.025-2.972-1.035-6.637-.16Z" fill="#fff"/><path opacity=".33" d="M44.121 11.723s.847 3.048 2.117 5.181c1.27 2.134 2.48 3.78 4.356 3.048 1.875-.732 7.683-7.01 8.771-9.814 1.09-2.804 1.755-7.192.182-8.29C57.974.751 48.84 3.25 44.12 11.723Zm-25.901 0s-.846 3.048-2.116 5.181c-1.27 2.134-2.48 3.78-4.356 3.048-1.875-.732-7.683-7.01-8.771-9.814-1.09-2.804-1.755-7.192-.182-8.29C4.368.751 13.502 3.25 18.221 11.723Z" fill="#000"/><path d="M22.754 81.183c-.085-.542.752-1.121.493-1.74-1.945-4.644-5.573-4.522-7.581-4.028-.213.603-.49 1.201-.84 1.799-.89 1.525-2.94 2.154-3.207 3.949-.267 1.795.535 2.782 2.94 3.41 2.405.629 3.563.629 5.255-.448 1.693-1.077 2.94-2.962 2.94-2.962v.02Z" fill="#fff" stroke="#263238" stroke-miterlimit="10" stroke-linecap="round" stroke-linejoin="round"/><path d="M12.94 84.031s-.611-1.653.099-2.726 2.84-1.789 2.84-1.789m-1.316 5.058s.448-1.74.913-2.312c.465-.573 2.995-1.977 2.995-1.977" stroke="#263238" stroke-miterlimit="10" stroke-linecap="round" stroke-linejoin="round"/><path d="M40.924 81.183c.085-.542-.725-1.121-.466-1.74 1.945-4.644 5.573-4.522 7.581-4.028.212.603.49 1.201.84 1.799.89 1.525 2.94 2.154 3.207 3.949.267 1.795-.535 2.782-2.94 3.41-2.405.629-3.563.629-5.255-.448-1.693-1.077-2.94-2.962-2.94-2.962l-.027.02Z" fill="#fff" stroke="#263238" stroke-miterlimit="10" stroke-linecap="round" stroke-linejoin="round"/><path d="M47.796 84.863s.155-1.613-.052-2.133c-.206-.52-2.014-2.133-2.014-2.133m4.748 3.434s0-1.04-.258-2.29c-.258-1.248-1.704-2.341-1.704-2.341" stroke="#263238" stroke-miterlimit="10" stroke-linecap="round" stroke-linejoin="round"/><path d="M31.93 39.247h-.475a2.214 2.214 0 0 1-2.205-2.222v-6.484h4.885v6.484a2.214 2.214 0 0 1-2.206 2.222Z" fill="#AB675B" stroke="#263238" stroke-miterlimit="10" stroke-linecap="round" stroke-linejoin="round"/><path d="M31.602 31.887v3.887" stroke="#263238" stroke-miterlimit="10" stroke-linecap="round" stroke-linejoin="round"/><path d="M33.926 23.36c-.713-1.885.267-5.385-.267-7.09-.535-1.706-1.604-1.347-1.604-1.347l-.445.09-.446-.09s-1.068-.359-1.603 1.347c-.534 1.705.446 5.205-.267 7.09-.713 1.885-6.235 5.206-6.235 6.822 0 1.615 2.94 4.128 4.186 4.667 1.247.538 4.365-2.962 4.365-2.962s3.117 3.5 4.364 2.962c1.248-.539 4.187-3.052 4.187-4.667 0-1.616-5.522-4.937-6.235-6.822Z" fill="#fff" stroke="#263238" stroke-miterlimit="10" stroke-linecap="round" stroke-linejoin="round"/><path d="M34.995 28.027s-1.244-1.393-3.272-1.427c-2.231-.037-3.943.889-3.765 1.697.178.808 2.494 2.513 3.385 2.782.89.27 3.474-1.795 3.652-3.052Zm1.053-4.702c.536 0 .97-.62.97-1.385 0-.764-.434-1.384-.97-1.384s-.97.62-.97 1.384c0 .765.434 1.385.97 1.385Z" fill="#263238"/><path d="M36.247 21.656c.14 0 .255-.115.255-.257a.256.256 0 0 0-.255-.257.256.256 0 0 0-.255.257c0 .142.114.257.255.257Z" fill="#fff"/><path d="M27.533 21.94c0 .765-.434 1.385-.97 1.385-.535 0-.97-.62-.97-1.385 0-.764.435-1.384.97-1.384.536 0 .97.62.97 1.384Z" fill="#263238"/><path d="M26.817 21.656a.256.256 0 0 0 .255-.257.256.256 0 0 0-.255-.257.256.256 0 0 0-.255.257c0 .142.115.257.255.257Z" fill="#fff"/><path d="M55.277 68.347s.89 6.492.206 8.629c-.683 2.137-2.48 2.625-2.077 4.163.403 1.539 2.818 1.248 4.436.754 1.619-.493 3.104-2.607 2.906-5.127-.197-2.521-1.332-6.596-2.205-7.249-.873-.654-2.805-1.697-3.266-1.17Z" fill="#AB675B"/><path d="M58.835 81.37c-.027-.086-.05-.168-.08-.26-.648-2.032-2.534-2.81-3.743-3.104-.8 1.321-1.935 1.878-1.606 3.133.403 1.539 2.818 1.248 4.436.754.342-.104.677-.285.993-.522Z" fill="#fff" stroke="#263238" stroke-miterlimit="10" stroke-linecap="round" stroke-linejoin="round"/><path d="m62.56 32.83-7.043-.143s-4.59-4.598-5.15-3.393c-1.162 2.5.619 7.229.619 7.229s-2.097 4.674-2.146 12.325c-.048 7.65 3.061 15.664 5.051 18.748 1.99 3.084 4.53 6.073 4.53 6.073s.584 2.548.094 4.461c-.49 1.913-1.605 2.707-1.25 3.708.355 1 3.188 1.246 4.422.125 1.233-1.121 2.235-3.79 2.235-3.79l.6.072s-.653 1.853.91 2.612c1.563.76 5.4.263 6.878.195 1.477-.069 17.205.1 22.5.25 5.295.15 11.327-.671 13.117-4.144 1.79-3.472 1.164-8.444-.55-9.704-1.713-1.259-3.669.337-3.616 2.376.052 2.038-.055 5.888-1.717 6.722-1.662.834-10.277.26-13.096-.535-2.819-.795-3.883-1.816-3.883-1.816s1.604-10.524.806-15.225c-.798-4.702-4.272-9.424-7.567-10.783-3.294-1.359-7.464-2.688-9.681-5.448-2.218-2.76-1.74-6.214-1.74-6.214.512-.701 1.556-2.622 1.265-6.185-.101-1.237-.29-1.384-.508-1.39-.219-.006-2.825 1.315-5.08 3.875Z" fill="#AB675B" stroke="#263238" stroke-miterlimit="10" stroke-linecap="round" stroke-linejoin="round"/><path d="m69.621 78.363 9.777-.213" stroke="#263238" stroke-miterlimit="10" stroke-linecap="round" stroke-linejoin="round"/><path opacity=".33" d="M54.685 33.159s-2.019-2.039-2.872-2.778c-.854-.74-1.114-1.188-1.292-.698-.178.49-.18 2.527.158 4.133.338 1.606.693 2.607 1.513 2.575.82-.032 2.044-.823 2.454-1.802.41-.98.04-1.43.04-1.43Zm8.733.246s2.13-1.921 3.023-2.612c.893-.69 1.178-1.122 1.328-.623.15.5.039 2.534-.388 4.118-.426 1.584-.836 2.563-1.653 2.485-.817-.078-1.995-.937-2.35-1.938-.354-1 .04-1.43.04-1.43Z" fill="#000"/><path d="M67.925 43.194c-.212-1.982-1.537.766-3.484.261-1.947-.504-3.869-6.233-4.208-6.871-.339-.639-1.558-1.886-2.577-.478-1.02 1.408-3.441 6.432-5.233 6.74-1.2.207-2.087-.787-2.542-1.466a39.691 39.691 0 0 0-.673 7.12c-.05 7.65 3.06 15.665 5.05 18.748 1.99 3.084 4.53 6.073 4.53 6.073s-.01-1.55.124-4.152c.194-3.767 2.197-8.471 4.803-12.44 2.607-3.968 4.422-11.552 4.21-13.535Z" fill="#fff"/><path d="M62.75 80.595c-1.124-1.478-3.31-1.88-4.376-1.987-.532 1.573-1.43 2.317-1.106 3.23.354 1 3.188 1.246 4.421.124.384-.348.745-.846 1.06-1.367Z" fill="#fff" stroke="#263238" stroke-miterlimit="10" stroke-linecap="round" stroke-linejoin="round"/><path d="M67.672 65.719c.161 2.223.304 6.074-.425 8.086-1.062 2.934-3.329 4.367-3.329 4.367m3.605-14.151s.04.349.09.922" stroke="#263238" stroke-miterlimit="10" stroke-linecap="round" stroke-linejoin="round"/><path d="M64.522 78.244s-.653 1.854.91 2.613c.895.435 2.533.458 4.048.385.174-.23.304-.472.349-.717.21-1.162-.208-2.162-.208-2.162l-5.1-.119Z" fill="#fff" stroke="#263238" stroke-miterlimit="10" stroke-linecap="round" stroke-linejoin="round"/><path d="M80.293 63.346c-1.073-.963-2.775-2.045-5.017-2.064-4.052-.035-6.637 4.298-7.335 6.52m13.673-2.978s-.206-.315-.602-.757" stroke="#263238" stroke-miterlimit="10" stroke-linecap="round" stroke-linejoin="round"/><path d="M59.535 40.72s-.398-.471-1.067-.501c-.736-.034-1.31.256-1.258.525.051.268.8.852 1.092.95.291.097 1.163-.56 1.233-.974Z" fill="#F98" stroke="#263238" stroke-miterlimit="10" stroke-linecap="round" stroke-linejoin="round"/><path d="M56.332 42.055s1.376 1.93 1.966-.362c0 0 .21 2.45 2.005.52" fill="#fff"/><path d="M56.332 42.055s1.376 1.93 1.966-.362c0 0 .21 2.45 2.005.52" stroke="#263238" stroke-miterlimit="10" stroke-linecap="round" stroke-linejoin="round"/><path d="M62.388 39.094c.059.297-.26.612-.712.704-.452.092-.867-.074-.927-.372-.06-.297.26-.612.712-.704.452-.092.867.075.927.372Z" fill="#263238"/><path d="M62.035 39.02c.016.083-.071.17-.196.195-.124.025-.239-.02-.255-.102-.016-.082.071-.169.196-.194.124-.026.239.02.255.102Z" fill="#fff"/><path d="M55.796 39.369c-.105.284-.54.383-.973.22-.432-.161-.698-.523-.593-.808.105-.284.54-.383.973-.22.432.161.698.523.593.808Z" fill="#263238"/><path d="M55.496 39.104c-.029.079-.149.106-.268.061-.119-.044-.192-.144-.163-.222.029-.079.149-.106.268-.061.119.044.192.144.163.222Z" fill="#fff"/><path d="m55.297 41.204-2.36-.24m2.35.63-1.822.555m1.933.055-.96.493m6.835-1.324 2.37-.107m-2.381.497 1.788.657m-1.933-.055.931.547" stroke="#263238" stroke-miterlimit="10" stroke-linecap="round" stroke-linejoin="round"/></svg>