<svg width="165" height="169" viewBox="0 0 165 169" fill="none" xmlns="http://www.w3.org/2000/svg"><g opacity=".9" clip-path="url(#clip0_278_10506)" fill="#A9BFF8" fill-opacity=".6"><path d="M98.765 44.582c.388-.912.123-2.048-.712-3.1-.396-.493-1.181-1.11-1.743-1.363-.936-.426-1.968-.488-2.682-.163-.35.155-.375.178-.677.548-.306.374-.317.395-.404.784-.277 1.19.404 2.624 1.704 3.589 1.238.915 2.523 1.171 3.53.694.306-.145.393-.213.626-.477.164-.186.304-.387.358-.512Zm-4.155 5.086c.145-.318.203-.663.183-1.061-.074-1.435-1.445-3.033-3.08-3.588-.844-.284-1.587-.28-2.233.016-.357.162-.379.181-.681.551-.303.37-.32.399-.402.774-.181.778.11 1.82.742 2.663.342.456 1.102 1.089 1.64 1.364 1.434.742 2.828.628 3.567-.3.098-.12.216-.308.264-.42Zm3.999-12.623c.189-.638.055-1.268-.42-1.91-.814-1.113-2.642-1.928-3.931-1.758-1.58.215-2.143 1.675-1.17 3.032.406.562 1.278 1.207 2.02 1.492.956.37 2.02.386 2.708.04.286-.142.713-.628.793-.896ZM87.22 50.972c.116-.341.135-.676.063-1.195-.145-1.038-.818-2.096-1.804-2.83-.713-.528-1.336-.722-2.004-.614-.44.064-.745.252-1.029.637-.194.259-.24.354-.317.684-.1.44-.045 1.048.139 1.549.13.36.493.99.776 1.354.299.383 1.13 1.056 1.509 1.22.67.3 1.363.34 1.85.114.325-.146.696-.57.817-.919Zm2.716-9.408a4.577 4.577 0 0 0 .657-2.012c.03-.392-.346-5.748-.434-6.189-.077-.395-.323-.893-.616-1.247-.873-1.065-2.514-1.449-3.76-.88-.872.4-1.42 1.102-2.177 2.814-.554 1.249-.89 1.786-1.567 2.504-.427.456-.676.664-1.717 1.442-.911.678-1.18.912-1.483 1.288-1.242 1.552-.502 4.069 1.41 4.789.467.176.754.217 1.303.175.876-.065 5.5-.688 5.847-.786 1.004-.28 2.017-1.04 2.537-1.898Z"/></g><g opacity=".9" clip-path="url(#clip1_278_10506)" fill="#A9BFF8" fill-opacity=".6"><path d="M29.377 47.475c.456-.88.279-2.033-.475-3.145-.357-.521-1.093-1.197-1.634-1.492-.901-.495-1.926-.635-2.662-.365-.361.128-.387.148-.717.495-.333.35-.346.37-.462.75-.366 1.166.204 2.648 1.427 3.709 1.165 1.005 2.427 1.36 3.468.96.315-.121.407-.183.66-.428.177-.174.332-.363.395-.484Zm-4.529 4.755a2.23 2.23 0 0 0 .263-1.043c.035-1.437-1.21-3.134-2.799-3.811-.82-.348-1.561-.4-2.228-.154-.368.135-.391.152-.72.498-.33.346-.35.373-.46.74-.24.763-.028 1.825.537 2.713.307.48 1.017 1.169 1.532 1.484 1.373.849 2.772.84 3.58-.028.107-.112.238-.29.295-.398Zm4.945-12.282c.236-.622.151-1.26-.273-1.936-.729-1.172-2.49-2.124-3.787-2.052-1.593.095-2.264 1.507-1.397 2.935.362.591 1.182 1.3 1.9 1.641.926.442 1.986.538 2.698.246.296-.12.759-.573.858-.834ZM17.38 52.97c.14-.33.186-.663.153-1.187-.065-1.046-.656-2.152-1.584-2.958-.67-.58-1.277-.82-1.952-.765-.443.031-.761.195-1.074.557-.213.244-.267.335-.368.66-.132.43-.124 1.04.021 1.553.102.37.416 1.025.671 1.41.269.404 1.046 1.138 1.412 1.331.645.35 1.334.442 1.837.254.335-.121.736-.516.884-.854Zm3.423-9.174a4.58 4.58 0 0 0 .807-1.956c.06-.39.091-5.758.037-6.205-.046-.4-.254-.915-.519-1.29-.79-1.128-2.397-1.636-3.682-1.163-.9.334-1.5.992-2.385 2.641-.647 1.203-1.023 1.713-1.752 2.377-.46.423-.725.611-1.822 1.308-.96.607-1.246.82-1.576 1.173-1.357 1.452-.81 4.018 1.041 4.881.453.211.736.274 1.287.274.879.001 5.537-.269 5.89-.34 1.023-.204 2.09-.884 2.674-1.7Z"/></g><g opacity=".9" clip-path="url(#clip2_278_10506)" fill="#A9BFF8" fill-opacity=".6"><path d="M84.821 122.521c.634-.761.708-1.925.211-3.173-.237-.586-.811-1.404-1.276-1.808-.774-.677-1.744-1.034-2.521-.928-.38.047-.41.062-.807.329-.4.27-.417.287-.613.634-.607 1.061-.368 2.63.598 3.928.923 1.233 2.08 1.849 3.182 1.682.334-.05.436-.091.736-.276a2.29 2.29 0 0 0 .49-.388Zm-5.442 3.674a2.23 2.23 0 0 0 .48-.964c.342-1.395-.51-3.32-1.916-4.322-.727-.516-1.439-.725-2.143-.629-.388.053-.415.065-.81.332-.397.268-.422.29-.608.625-.398.693-.42 1.776-.058 2.764.197.535.743 1.36 1.178 1.779 1.16 1.123 2.527 1.416 3.503.741.128-.087.295-.233.374-.326Zm7.464-10.936c.364-.557.418-1.198.149-1.949-.46-1.302-1.976-2.609-3.259-2.818-1.575-.248-2.534.987-1.994 2.568.227.655.876 1.524 1.504 2.01.81.63 1.824.952 2.583.819.314-.054.863-.396 1.017-.63Zm-14.919 10.056c.21-.294.325-.609.405-1.127.16-1.036-.18-2.243-.913-3.229-.53-.711-1.07-1.076-1.742-1.166-.44-.065-.785.027-1.168.313-.26.193-.333.27-.502.565-.22.393-.344.99-.312 1.523.02.382.187 1.09.353 1.52.175.453.777 1.336 1.093 1.604.555.479 1.208.717 1.74.641.353-.046.83-.345 1.046-.644Zm5.313-8.227a4.576 4.576 0 0 0 1.208-1.737c.142-.368 1.325-5.605 1.368-6.052.04-.401-.053-.949-.23-1.372-.53-1.271-1.991-2.112-3.347-1.926-.951.133-1.68.647-2.897 2.068-.89 1.036-1.366 1.453-2.221 1.946-.54.313-.84.441-2.06.886-1.068.387-1.393.533-1.79.807-1.638 1.127-1.654 3.751-.031 4.991.397.304.66.426 1.198.544.857.19 5.465.926 5.825.932 1.043.02 2.231-.415 2.977-1.087Z"/></g><g opacity=".9" clip-path="url(#clip3_278_10506)" fill="#A9BFF8" fill-opacity=".6"><path d="M154.694 131.466c.662-.737.78-1.898.329-3.163-.215-.595-.758-1.433-1.207-1.855-.748-.705-1.704-1.099-2.485-1.022-.382.033-.412.047-.818.299-.41.255-.428.271-.636.611-.647 1.037-.467 2.614.45 3.948.876 1.266 2.008 1.925 3.117 1.799.335-.038.439-.075.745-.248.216-.123.413-.268.505-.369Zm-5.577 3.467c.239-.254.407-.562.516-.945.394-1.382-.385-3.337-1.752-4.391-.708-.543-1.412-.779-2.119-.709-.39.038-.416.049-.822.302-.406.252-.432.273-.631.601-.423.677-.485 1.759-.161 2.76.177.542.691 1.387 1.11 1.822 1.117 1.166 2.473 1.509 3.473.871.131-.081.304-.222.386-.311Zm7.869-10.648c.385-.544.463-1.182.222-1.943-.411-1.318-1.876-2.681-3.151-2.937-1.565-.308-2.57.891-2.089 2.49.203.664.818 1.556 1.428 2.066.785.66 1.787 1.019 2.55.915.316-.042.878-.364 1.04-.591Zm-15.284 9.489c.22-.285.347-.596.446-1.111.2-1.029-.095-2.248-.791-3.261-.503-.73-1.029-1.115-1.697-1.23-.437-.082-.786-.003-1.179.269-.267.183-.343.257-.522.546-.236.384-.381.976-.37 1.51.006.382.146 1.096.296 1.532.159.459.727 1.365 1.033 1.644.537.499 1.18.762 1.714.706.354-.033.842-.314 1.07-.605Zm5.615-8.022c.554-.46.998-1.05 1.273-1.691.156-.362 1.534-5.551 1.593-5.996.056-.399-.016-.95-.178-1.379-.482-1.29-1.91-2.185-3.272-2.05-.956.097-1.702.583-2.973 1.957-.928 1.002-1.419 1.402-2.292 1.862-.552.293-.855.409-2.092.808-1.081.347-1.412.481-1.82.74-1.678 1.065-1.792 3.686-.217 4.986.385.318.644.45 1.177.588.85.222 5.427 1.13 5.786 1.149 1.042.06 2.246-.33 3.015-.974Z"/></g><defs><clipPath id="clip0_278_10506"><path fill="#fff" transform="rotate(129.245 43.535 45.093)" d="M0 0h24v24H0z"/></clipPath><clipPath id="clip1_278_10506"><path fill="#fff" transform="rotate(133.597 9.18 29.598)" d="M0 0h24v24H0z"/></clipPath><clipPath id="clip2_278_10506"><path fill="#fff" transform="rotate(145.988 28.178 74.3)" d="M0 0h24v24H0z"/></clipPath><clipPath id="clip3_278_10506"><path fill="#fff" transform="rotate(148.135 63.059 87.965)" d="M0 0h24v24H0z"/></clipPath></defs></svg>