<svg width="335" height="269" viewBox="0 0 335 269" fill="none" xmlns="http://www.w3.org/2000/svg"><g clip-path="url(#clip0_1048_7694)"><path d="M50.893 136.444c4.655-21.949 17.528-46.894 39.847-57.09 33.723-15.41 33.383-43.132 97.242-50.255 9.957-1.112 19.321-1.181 28.074-.351 4.706.445 9.237 1.157 13.584 2.11 39.463 8.608 64.084 37.006 71.225 69.549 9.398 42.799-18.852 68.17-37.435 83.336-18.584 15.167-35.557 65.572-98.277 73.043-9.563 1.136-19.261 1.344-28.855.376-21.899-2.2-45.25-10.877-60.59-26.416a82.906 82.906 0 0 1-3.347-3.608c-21.102-24.183-27.817-60.77-21.468-90.694Z" fill="#E7EDFB"/><path opacity=".7" d="M50.893 136.444c4.655-21.949 17.528-46.894 39.847-57.09 33.723-15.41 33.383-43.132 97.242-50.255 9.957-1.112 19.321-1.181 28.074-.351 4.706.445 9.237 1.157 13.584 2.11 39.463 8.608 64.084 37.006 71.225 69.549 9.398 42.799-18.852 68.17-37.435 83.336-18.584 15.167-35.557 65.572-98.277 73.043-9.563 1.136-19.261 1.344-28.855.376-21.899-2.2-45.25-10.877-60.59-26.416a82.906 82.906 0 0 1-3.347-3.608c-21.102-24.183-27.817-60.77-21.468-90.694Z" fill="#fff"/><path d="M70.072 75.554s2.8 4.632 4.765 10.457c1.964 5.826 7.385 10.726 14.675 7.529 7.29-3.198 14.307-6.364 18.69-9.066 4.382-2.702 7.073-9.539 2.851-14.527-4.222-4.988-8.195-3.378-15.872-5.72-7.676-2.342-10.788-6.833-15.373-7.395-4.584-.562-11.874 2.636-12.579 8.667-.705 6.031 2.843 10.055 2.843 10.055Zm28.815 27.906s.592 4.994 3.898 7.583c3.307 2.59 7.76-1.686 10.243-5.889 2.482-4.204.967-11.23-2.643-14.044-3.611-2.816-9.415-.47-10.552 2.22-1.138 2.69-.946 10.13-.946 10.13Zm-14.662 17.677s7.1-3.384 10.173-8.126c3.073-4.741 3.187-10.235-1.073-13.392s-9.693-.072-12.702 3.462c-3.01 3.534-4.78 10.682-4.166 14.576.614 3.896 6.175 3.926 7.768 3.48Zm-16.271-4.994s2.945-2.326 5.654-8.174c2.71-5.847 2.464-10.724.48-13.729-1.985-3.005-7.212-4.275-11.364-1.495-4.152 2.78-5.938 10.66-4.971 14.305.967 3.645 3.686 8.495 5.749 9.559 2.064 1.064 3.189.829 4.452-.466Zm-11.537-22.82s7.386-4.148 9.876-8.718c2.49-4.569-.221-9.785-3.098-10.755-2.877-.97-7.87-.44-12.076 4.902-4.205 5.344-2.13 13.296-.338 14.392 1.793 1.096 5.636.179 5.636.179Zm210.374-75.299s-4.301 2.4-9.726 4.109c-5.425 1.709-9.952 6.315-6.892 12.412 3.059 6.098 6.087 11.968 8.656 15.626 2.568 3.658 8.984 5.854 13.604 2.255 4.621-3.599 3.076-6.924 5.19-13.4 2.113-6.478 6.28-9.139 6.76-13 .481-3.86-2.579-9.957-8.223-10.49-5.644-.534-9.369 2.488-9.369 2.488Zm-25.797 24.499s-4.661.546-7.049 3.351c-2.388 2.806 1.652 6.508 5.605 8.555 3.952 2.045 10.503.703 13.099-2.36 2.596-3.064.346-7.92-2.179-8.851-2.524-.93-9.476-.695-9.476-.695Zm-16.663-12.152s3.232 5.936 7.693 8.473c4.462 2.537 9.597 2.58 12.506-1.033 2.909-3.613-.028-8.15-3.36-10.646-3.333-2.495-10.03-3.914-13.664-3.36-3.634.555-3.608 5.231-3.175 6.566Zm4.508-13.731s2.203 2.453 7.694 4.674c5.492 2.22 10.047 1.966 12.836.268 2.789-1.698 3.924-6.105 1.286-9.569-2.639-3.464-10.021-4.888-13.418-4.04-3.397.85-7.903 3.183-8.878 4.928-.974 1.746-.743 2.69.48 3.739Zm21.215-9.925s3.949 6.17 8.244 8.219c4.295 2.048 9.143-.282 10.022-2.71.878-2.429.334-6.622-4.701-10.106-5.035-3.483-12.446-1.66-13.453-.143-1.007 1.518-.112 4.74-.112 4.74Zm-38.655 216.096s4.696 2.594 10.612 4.429c5.916 1.837 10.868 6.831 7.567 13.485-3.301 6.653-6.568 13.058-9.346 17.053-2.778 3.995-9.753 6.415-14.802 2.518-5.05-3.898-3.385-7.525-5.718-14.569-2.334-7.043-6.885-9.921-7.428-14.122-.542-4.202 2.758-10.855 8.902-11.461 6.142-.606 10.213 2.667 10.213 2.667Zm28.216 26.559s5.077.573 7.692 3.617c2.614 3.044-1.766 7.094-6.06 9.34-4.293 2.245-11.433.813-14.275-2.511-2.842-3.324-.417-8.622 2.327-9.646 2.745-1.024 10.316-.8 10.316-.8Zm18.082-13.308s-3.489 6.479-8.334 9.262c-4.846 2.783-10.436 2.852-13.622-1.069s-.011-8.875 3.605-11.607c3.616-2.733 10.901-4.308 14.861-3.721 3.959.588 3.955 5.68 3.49 7.135Zm-4.978-14.931s-2.386 2.682-8.354 5.125c-5.969 2.443-10.93 2.186-13.975.35-3.045-1.836-4.304-6.63-1.449-10.413 2.856-3.784 10.887-5.369 14.59-4.46 3.703.909 8.622 3.429 9.692 5.325 1.069 1.897.822 2.925-.504 4.073Zm-23.149-10.709s-4.269 6.736-8.935 8.986c-4.666 2.25-9.957-.266-10.926-2.906-.968-2.639-.397-7.208 5.068-11.024 5.464-3.816 13.544-1.866 14.647-.217 1.105 1.648.146 5.161.146 5.161Z" opacity=".3" fill="#A9BFF8"/><path d="M222.779 59.614c-1.011 1.22-.896 3.12-.666 4.64.25 1.65.772 3.303 1.45 4.836 2.11 4.767 6.255 8.17 10.269 11.216 4.804 3.645 9.498 7.35 13.714 11.72l.708.736c-1.232.463-2.489.803-3.789 1.093-1.561.349-3.123.7-4.689 1.035-3.116.664-6.233 1.328-9.368 1.908-6.457 1.195-12.98 2.076-19.512 2.851-3.282.389-6.559.782-9.828 1.245-3.24.459-6.485.883-9.747 1.194-3.266.311-6.544.502-9.803.881-3.244.376-6.477.866-9.658 1.568-3.624.8-7.757 1.744-10.376 4.581-1.068 1.159-1.681 2.552-1.332 4.21.211 1.002.703 1.863 1.258 2.714.588.903 1.278 1.56 2.259 1.988 1.904.831 4.082.727 6.07.623 2.867-.15 5.742-.224 8.612-.343 3.279-.135 6.559-.255 9.837-.399 3.303-.145 6.595-.397 9.89-.613 6.261-.41 12.504-1.004 18.698-1.895a85.539 85.539 0 0 1 2.897-.37c1.485-.162 3.029-.36 4.534-.26a2.6 2.6 0 0 1 .683.116l.003.004c.01.188.223.368.389.365-.299 1.001-2.061 1.627-2.79 1.906-1.389.531-2.842.871-4.279 1.257-5.958 1.599-11.941 3.11-17.908 4.677-6.019 1.58-11.997 3.298-18.022 4.856-5.841 1.511-11.734 2.836-17.512 4.564-2.272.68-4.553 1.34-6.695 2.362-1.025.49-2.011 1.063-2.911 1.758-.838.648-1.697 1.432-2.131 2.437-.832 1.929.286 3.997 1.77 5.313a8.306 8.306 0 0 0 2.74 1.617c1.041.369 2.054.384 3.124.411a27.639 27.639 0 0 0 3.074-.096c1.846-.159 3.7-.251 5.543-.44 3.084-.319 6.081-.934 9.11-1.53 6.098-1.201 12.151-2.607 18.228-3.899 6.149-1.307 12.322-2.513 18.475-3.8 1.501-.315 3.008-.612 4.494-.985 1.461-.367 2.908-.782 4.385-1.09 1.272-.267 2.569-.456 3.845-.668a9.54 9.54 0 0 1 1.444-.124c.435-.005 1.078-.009 1.515.246.02.09.072.181.172.247.864.566-.251 1.714-.74 2.171-1.232 1.155-2.705 2.008-4.168 2.823-3.295 1.837-6.598 3.509-10.119 4.897-3.136 1.236-6.328 2.328-9.481 3.518-3.255 1.229-6.479 2.541-9.696 3.864-3.202 1.316-6.401 2.642-9.57 4.034-3.036 1.333-6.164 2.507-9.102 4.05a23.856 23.856 0 0 0-3.944 2.581c-.867.704-1.681 1.493-2.249 2.471-.734 1.261-.84 2.778-.402 4.15-.061-.028-.14-.002-.103.087.352.838.803 1.587 1.472 2.205.657.607 1.423 1.069 2.228 1.426 1.676.742 3.496 1.003 5.283.963 2.399-.054 4.784-.71 7.067-1.342 2.677-.741 5.302-1.647 7.934-2.524 6.021-2.007 12.004-4.082 17.931-6.355 4.598-1.763 9.198-3.523 13.838-5.181 3.091-1.103 6.142-2.338 9.254-3.385a157.71 157.71 0 0 1 2.112-.691c.543-.173 1.112-.398 1.692-.408.229-.004.466.017.699.054a.244.244 0 0 1 .065-.117c.087-.082.246-.064.323.034.087.112.15.241.185.376-.043.022-.086.047-.13.068-.116.432-.463.885-.654 1.128-1.262 1.607-3.05 2.629-4.737 3.703-9.93 6.313-20.103 12.385-30.649 17.622-3.564 1.77-7.894 3.446-10.206 6.909-2.068 3.096-.844 7.647 2.709 9.212 2.21.974 4.846.429 6.995-.247 2.699-.849 5.283-2.066 7.927-3.061 2.802-1.055 5.614-2.083 8.373-3.242 2.778-1.165 5.495-2.473 8.213-3.768 10.831-5.16 21.469-10.686 32.72-14.922 5.559-2.094 11.193-3.989 16.827-5.88 5.144-1.726 10.295-3.483 15.174-5.858 4.637-2.257 9.186-5.148 12.76-8.928 1.776-1.878 3.159-4.049 4.007-6.465.974-.063 1.95-.108 2.926-.171 1.597-.103 3.197-.175 4.795-.255 3.181-.16 6.338-.402 9.496-.753 3.186-.354 6.377-.662 9.563-1.01 1.53-.166 3.058-.346 4.582-.549 1.496-.199 3.048-.34 4.508-.707.512-.128.97-.318 1.383-.553-.426-.349-.778-.867-1.028-1.257-.304-.473-.577-.97-.823-1.48-.414-.859-.902-2.334-1.128-3.258a43.844 43.844 0 0 1-.727-3.723c-.341-2.189-.576-4.391-.843-6.588-.547-4.521-1.088-9.038-1.835-13.538-.397-2.391-.832-4.776-1.415-7.135-.42-1.703-.836-3.406-1.178-5.124-.382-1.922-.632-3.754-.167-5.618a7.57 7.57 0 0 1 .479-1.347 2.755 2.755 0 0 0-1.074-.093c-.576.063-1.13.264-1.679.434-.73.226-1.462.451-2.193.675-2.885.883-5.814 1.645-8.717 2.476-2.953.844-5.884 1.763-8.84 2.6-2.86.81-5.736 1.572-8.519 2.617-1.45.545-2.87 1.164-4.332 1.68a51.1 51.1 0 0 1-2.266.758 23.07 23.07 0 0 0-.249-.476c-.563-1.043-1.218-2.043-1.892-3.016-1.643-2.368-3.586-4.477-5.923-6.138-4.422-3.141-9.711-4.483-14.799-5.821-11.015-2.895-22.256-5.299-32.647-10.376-2.617-1.279-5.195-2.697-7.656-4.282-2.254-1.452-4.492-3.03-6.464-4.878-1.488-1.395-2.961-2.881-4.735-3.884-1.482-.84-3.416-1.29-4.615.155Z" fill="#D08973"/><path d="M222.906 62.192c-.253 1.656.183 3.441.701 5.03.263.806.576 1.597.974 2.347 3.107 5.862 8.75 9.27 13.709 13.143a108.85 108.85 0 0 1 10.897 9.747c.12.044.229.161.274.28.668.689 1.33 1.384 1.981 2.093 1.732 1.889 3.268 3.925 4.849 5.944 1.551 1.979 3.233 3.884 5.376 5.197.333.204.285.869-.153.633a15.168 15.168 0 0 1-2.974-2.107c-1.905-1.731-3.432-3.824-5.014-5.852-1.487-1.907-3.129-3.683-4.797-5.428-1.22.42-2.435.85-3.661 1.252-2.908.953-5.922 1.59-8.918 2.24-3.181.69-6.384 1.292-9.601 1.824-6.434 1.063-12.917 1.799-19.406 2.526-6.513.73-12.99 1.695-19.534 2.188-6.262.472-12.617 1.197-18.658 2.838a23.08 23.08 0 0 0-4.156 1.546c-1.685.83-3.31 1.96-3.867 3.871-.491 1.681.344 3.876 1.716 4.978 1.623 1.303 3.9 1.302 5.816 1.244 2.668-.08 5.33-.188 8.001-.231 3.26-.053 6.519-.097 9.768-.298 3.221-.2 6.434-.476 9.655-.683 3.263-.209 6.527-.414 9.784-.689 3.18-.268 6.351-.589 9.502-1.055a97.487 97.487 0 0 1 3.319-.439c.631-.072 5.786-.814 6.817.207l.001-.001a6 6 0 0 1 .624.632 4.7 4.7 0 0 1-.035.811 2.136 2.136 0 0 1-.266.39c-.971 1.133-2.695 1.646-4.066 2.074-1.839.574-3.723 1.034-5.582 1.542-5.942 1.622-11.907 3.16-17.854 4.762-5.92 1.595-11.823 3.247-17.791 4.674-5.666 1.356-11.364 2.628-16.897 4.436-2.226.727-4.449 1.561-6.433 2.815-1.597 1.009-3.869 2.746-3.133 5.011.309.953 1.014 1.759 1.785 2.365.847.666 1.779 1.231 2.808 1.515 2.675.74 5.359.313 8.039.102 3.033-.239 6.051-.61 9.02-1.223 3.041-.628 6.053-1.383 9.076-2.084a878.692 878.692 0 0 1 18.189-4.032c3.041-.638 6.074-1.309 9.117-1.944 3.037-.633 6.073-1.251 9.071-2.035 2.076-.541 4.212-1.058 6.366-1.246 1.233-.107 3.513-.362 4.264 1.043.045.049.086.101.124.157.671.987-.264 2.056-.899 2.703-1.157 1.18-2.562 2.105-3.923 3.02-2.996 2.014-6.429 3.5-9.778 4.803-3.15 1.227-6.362 2.293-9.54 3.442-3.458 1.251-6.88 2.603-10.299 3.952a378.748 378.748 0 0 0-9.58 3.954c-2.949 1.258-5.944 2.447-8.79 3.919a27.331 27.331 0 0 0-4.007 2.503c-.891.677-1.751 1.447-2.346 2.392-.687 1.09-.976 2.449-.552 3.743.214.655.58 1.365 1.06 1.948 1.054.837 2.358 1.38 3.618 1.653 2.26.489 4.4.36 6.62-.078 2.828-.557 5.582-1.397 8.31-2.294 2.772-.913 5.55-1.817 8.31-2.764 5.437-1.867 10.801-3.926 16.165-5.979a809.258 809.258 0 0 1 8.237-3.118c2.836-1.051 5.694-2.041 8.511-3.14a76.948 76.948 0 0 1 3.917-1.403c.848-.28 1.69-.577 2.561-.787.136-.034.276-.055.418-.061.655-.03 1.47.031 2.059.39.216.132.358.291.442.462l.008-.004c.005.014.007.03.012.043a.75.75 0 0 1 .063.322c.026.252.003.525-.097.823-.478 1.427-1.891 2.579-3.058 3.398-2.195 1.538-4.588 2.841-6.886 4.217-9.496 5.684-19.086 11.185-28.996 16.119-1.928.96-3.864 1.982-5.531 3.363-1.494 1.238-2.876 2.858-2.97 4.948-.088 1.971.991 3.998 2.746 4.932 2.329 1.239 5.361.354 7.6-.456 2.592-.938 5.108-2.082 7.685-3.06 2.754-1.045 5.518-2.067 8.224-3.23 5.409-2.324 10.672-4.998 15.956-7.585 5.27-2.58 10.528-5.204 15.925-7.517 5.315-2.276 10.746-4.28 16.211-6.177 10.182-3.534 20.958-6.312 30.113-12.147 3.881-2.474 7.864-5.569 10.053-9.785.248-.478.466-.966.657-1.463l-.021.002c.208-.345.379-.715.488-1.094.005-.016.004-.031.006-.047.069-.165.136-.331.197-.5.304-.851.447-1.73.545-2.638.111-1.029.147-2.069.154-3.109.006-.844.03-1.688-.008-2.534l-.002-.057c.34 1.933.545 3.92.377 5.858a16.558 16.558 0 0 1-.731 3.636 31.752 31.752 0 0 1 2.859-.524c1.691-.222 3.39-.353 5.095-.476 3.429-.247 6.846-.533 10.266-.859 3.074-.294 6.154-.555 9.223-.887a165.4 165.4 0 0 0 4.775-.579c1.304-.179 2.736-.244 3.947-.77a4.557 4.557 0 0 0 1.01-.608c.148-.708.228-1.438.3-2.14.176-1.749.397-3.495.482-5.256a49.281 49.281 0 0 0-.052-5.502c-.119-1.873-.239-3.746-.45-5.614a73.375 73.375 0 0 0-2.145-11.169c-.475-1.735-1.042-3.439-1.599-5.15-.53-1.628-1.06-3.255-1.64-4.867-.887-2.463-1.896-4.907-3.193-7.19a2.79 2.79 0 0 0-.63-.189c-.546-.082-1.095.077-1.611.215-1.618.432-3.234.869-4.844 1.328-5.802 1.655-11.567 3.432-17.375 5.07-2.736.77-5.448 1.618-8.113 2.6a46.21 46.21 0 0 1-3.64 1.183c-.53.147-1.063.274-1.604.374.242.552.418 1.132.415 1.72-.37-1.104-.959-2.106-1.638-3.049-1.432-2.213-3.074-4.348-4.99-6.146-1.919-1.802-4.179-3.172-6.544-4.23-2.346-1.049-4.793-1.798-7.25-2.472-2.625-.72-5.263-1.384-7.897-2.058-10.679-2.735-21.401-5.556-31.226-10.99-4.588-2.538-8.97-5.369-12.823-9.027a17.969 17.969 0 0 0-1.837-1.516c-.773-.56-1.646-1.134-2.593-1.294-1.538-.258-2.525 1.038-2.739 2.444Z" fill="#FAD2C3"/><path d="M256.722 100.97c.967 1.238 1.985 2.447 3.136 3.499a16.578 16.578 0 0 0 4.025 1.797c1.734.502 3.516.695 5.289.671-3.536-.575-6.752-2.501-9.537-4.888-3.285-2.817-6.056-6.187-9.023-9.338-3.999-4.246-8.556-7.872-13.014-11.579-4.309-3.582-8.708-7.255-12.091-11.81a31.901 31.901 0 0 1-1.257-1.825c.591 1.82 1.506 3.481 2.648 5.018 3.2 4.308 7.813 7.22 11.947 10.46a108.39 108.39 0 0 1 10.822 9.71c.119.045.227.16.271.279.664.687 1.321 1.38 1.968 2.086 1.721 1.881 3.246 3.91 4.816 5.92Zm89.692 30.556c-3.181.543-6.337 1.204-9.513 1.77a99.907 99.907 0 0 1-4.723.74c-1.547.2-3.101.341-4.642.577-3.153.483-6.269 1.152-9.412 1.686-2.168.369-4.354.67-6.557.798-.13.706-.297 1.397-.508 2.067.95-.217 1.908-.404 2.881-.532 1.704-.224 3.416-.354 5.133-.475 3.456-.244 6.899-.528 10.345-.855 3.098-.294 6.2-.553 9.293-.886 1.607-.172 3.212-.362 4.811-.582 1.315-.181 2.758-.243 3.978-.783a4.535 4.535 0 0 0 1.018-.625c.15-.73.231-1.483.303-2.207l.113-1.095c-.842.125-1.683.258-2.52.402Zm-149.534 60.22c-1.209-1.223-1.996-2.914-2.215-4.621-.214-1.66.111-3.219.938-4.608.017-.028.037-.055.054-.084-1.172 1.136-2.136 2.548-2.212 4.292-.086 1.957.969 3.972 2.685 4.902.341.185.699.318 1.065.415a6.732 6.732 0 0 1-.315-.296Zm-24.103-21.663a11.94 11.94 0 0 1-2.178-2.137c.021.33.081.661.189.988a6.182 6.182 0 0 0 1.057 1.943c1.051.838 2.351 1.379 3.606 1.651.906.196 1.792.289 2.672.306-1.904-.626-3.743-1.522-5.346-2.751Zm66.287-22.56c.97 1.661 2.035 3.271 3.233 4.77.458.573.941 1.127 1.443 1.66-.159-1.47-.505-2.928-.958-4.34-1.112-3.465-2.833-6.727-4.684-9.842-1.614-2.717-3.374-5.334-5.119-7.963a37.208 37.208 0 0 0 1.198 4.746 54.837 54.837 0 0 0 4.887 10.969Z" fill="#FAD2C3"/><path opacity=".5" d="M236.935 141.062a246.714 246.714 0 0 1-1.784-5.61c-.586-1.909-1.16-3.822-1.745-5.731-.449-1.467-.9-2.93-1.302-4.409-.838-3.079-1.595-6.182-2.595-9.215-.88-2.667-1.947-5.351-3.545-7.662.006.207.007.415.017.622.165 3.428.89 6.84 1.807 10.159.952 3.445 2.143 6.819 3.39 10.167.583 1.563 1.186 3.119 1.77 4.682.686 1.837 1.368 3.668 2.143 5.471.78 1.816 1.615 3.608 2.486 5.379.43.876.891 1.737 1.315 2.616.311.642.605 1.292.918 1.932l.149.304c-.409-1.153-.796-2.313-1.191-3.462-.604-1.751-1.248-3.486-1.833-5.243Zm26.655-3.255c-1.581 1.278-3.173 2.553-4.656 3.948-2.481 2.336-4.651 4.972-6.692 7.714l.012-.008c.993-.678 2.057-1.239 3.073-1.881 1.119-.709 2.17-1.555 3.209-2.377a53.038 53.038 0 0 0 3.271-2.798c1.965-1.834 3.75-3.866 5.575-5.843 1.29-1.398 2.614-2.806 4.014-4.125-.86.474-1.704.979-2.53 1.512-1.831 1.181-3.579 2.489-5.276 3.858Z" fill="#F2C4B3"/><path d="M226.031 109.995c.942 6.847 2.772 13.541 4.975 20.105a209.255 209.255 0 0 0 3.398 9.314c1.076 2.763 2.216 5.502 3.608 8.12.704 1.324 2.026 3.38 2.941 4.559.785 1.013 1.643 1.962 2.689 2.68.271.186.386-.116.213-.333-.838-1.049-1.729-2.059-2.513-3.156a32.302 32.302 0 0 1-2.202-3.59c-1.325-2.49-2.426-5.086-3.448-7.716-2.378-6.123-4.586-12.314-6.361-18.639a274.09 274.09 0 0 1-2.898-11.269c-.05-.21-.445-.386-.402-.075Zm36.374 28.082c-1.32 1.035-2.528 2.2-3.735 3.366-1.178 1.137-2.323 2.31-3.385 3.564-1.155 1.364-2.21 2.825-3.029 4.435-.062.123.169.305.245.17 1.61-2.85 3.966-5.13 6.331-7.31 1.182-1.09 2.365-2.191 3.634-3.175 1.346-1.043 2.781-1.947 4.234-2.829 1.607-.974 3.306-1.821 4.794-2.979.248-.193-.2-.653-.442-.547-1.58.693-3.056 1.602-4.531 2.492a40.845 40.845 0 0 0-4.116 2.813Z" fill="#D08973"/><path opacity=".5" d="M223.272 59.788c-1.024 1.219-.922 3.113-.702 4.629.133.92.354 1.839.638 2.739a1.4 1.4 0 0 1 .185-.247c.661-.677 1.762-.378 2.545-.063 1.147.462 2.208 1.17 3.211 1.9.864.628 1.681 1.315 2.515 1.983a105.092 105.092 0 0 0 5.634 4.23c3.75 2.609 7.693 4.868 11.885 6.612 3.928 1.636 7.99 2.88 12.078 3.968 4.119 1.098 8.272 2.042 12.406 3.079 4.114 1.032 8.215 2.156 12.217 3.616 3.738 1.365 7.454 2.995 10.858 5.123 3.271 2.045 6.265 4.658 8.302 8.01 1.055 1.735 1.744 3.626 2.374 5.545.641 1.952 1.185 3.938 1.55 5.957a28.27 28.27 0 0 1 .458 4.362c.262 1.592.443 3.193.457 4.805.043 5.152-1.563 10.08-4.595 14.11-3.082 4.098-7.327 7.14-11.824 9.461-3.02 1.559-6.198 2.817-9.344 4.101-3.636 1.484-7.296 2.909-10.958 4.328-7.262 2.816-14.535 5.614-21.638 8.807a.185.185 0 0 1-.151.003 578.04 578.04 0 0 0-7.076 3.239c-5.177 2.414-10.276 4.976-15.364 7.573a614.638 614.638 0 0 1-7.649 3.859c-2.296 1.133-4.644 2.166-6.933 3.312-3.479 1.742-6.76 3.863-10.401 5.276-2.727 1.057-5.887 1.808-8.75.879a5.967 5.967 0 0 0 2.042 1.479c2.208.966 4.855.415 7.014-.265 2.712-.853 5.31-2.073 7.968-3.072 2.816-1.059 5.642-2.092 8.416-3.254 2.793-1.17 5.527-2.481 8.261-3.78 10.894-5.172 21.598-10.71 32.906-14.964 5.588-2.102 11.249-4.006 16.91-5.906 5.168-1.735 10.344-3.501 15.252-5.881 4.665-2.262 9.246-5.157 12.856-8.935 1.794-1.877 3.197-4.046 4.064-6.456.428-.029.856-.054 1.284-.079.369-1.299.547-2.664.619-4.019.123-2.314-.043-4.641-.199-6.958-.153-2.274-.319-4.562-.175-6.833.131-2.075.527-4.144 1.74-5.831 1.16-1.614 2.846-2.738 4.619-3.564 1.926-.897 3.987-1.479 6.046-2.001.992-.252 1.989-.487 2.981-.738 1.319-.332 2.625-.717 3.937-1.073 2.804-.76 5.608-1.515 8.392-2.34a123.333 123.333 0 0 0 6.348-2.044c-.421-1.489-.897-2.961-1.37-4.435a165.674 165.674 0 0 0-1.607-4.847c-.87-2.453-1.863-4.887-3.146-7.158a2.795 2.795 0 0 0-.63-.187c-.044-.006-.088-.002-.132-.006.099-.297.209-.59.343-.87a2.77 2.77 0 0 0-1.076-.09c-.578.065-1.135.267-1.686.438l-2.203.679c-2.899.887-5.84 1.655-8.755 2.49-2.967.85-5.912 1.774-8.88 2.617-2.873.816-5.762 1.582-8.558 2.632-1.458.547-2.886 1.168-4.355 1.686a51.91 51.91 0 0 1-2.277.762 23.16 23.16 0 0 0-.246-.475c-.557-1.038-1.205-2.032-1.874-3-1.629-2.358-3.562-4.456-5.892-6.105-4.408-3.12-9.7-4.445-14.789-5.765-11.019-2.858-22.269-5.224-32.646-10.259-2.614-1.268-5.187-2.674-7.643-4.25-2.248-1.44-4.48-3.008-6.442-4.845-1.481-1.387-2.947-2.865-4.718-3.86-1.48-.835-3.415-1.278-4.627.166Z" fill="#F2C4B3"/><path opacity=".5" d="M154.737 140.301a13.88 13.88 0 0 1 2.582-1.833c3.077-1.674 6.468-2.642 9.868-3.425 3.006-.692 6.038-1.29 9.058-1.922 6.419-1.342 12.865-2.559 19.273-3.947 5.699-1.235 11.422-2.545 16.968-4.333 2.535-.818 5.056-1.695 7.46-2.842 1.352-.644 2.694-1.367 3.862-2.314.828-.671 1.753-1.572 1.884-2.717.151-1.318-.928-2.526-2.063-2.996-1.93-.798-4.198-.53-6.189-.332-1.412.141-2.831.226-4.243.368-1.642.166-3.279.364-4.912.588-3.248.445-6.47 1.015-9.733 1.355-3.291.343-6.596.565-9.892.861-3.294.296-6.55.731-9.804 1.285a151.67 151.67 0 0 0-3.796.697c.939-.036 1.878-.072 2.817-.112 3.3-.144 6.601-.272 9.899-.424 3.324-.152 6.637-.413 9.954-.638 6.301-.426 12.586-1.036 18.823-1.945.97-.141 1.942-.268 2.917-.377 1.495-.167 3.049-.369 4.563-.272.229.015.467.04.686.115l.003.004c.009.189.222.369.389.366-.308 1.005-2.086 1.638-2.821 1.92-1.402.536-2.866.881-4.314 1.272-6.006 1.619-12.035 3.149-18.05 4.736-6.066 1.601-12.092 3.339-18.165 4.917-5.887 1.53-11.825 2.874-17.65 4.623-2.291.687-4.591 1.356-6.753 2.387-1.035.493-2.031 1.071-2.942 1.771-.848.653-1.718 1.442-2.161 2.451-.525 1.195-.304 2.439.288 3.527.39-1.159 1.472-2.17 2.194-2.814Zm41.253.411c6.205-1.341 12.432-2.577 18.641-3.898 1.514-.323 3.034-.627 4.534-1.01 1.474-.376 2.936-.801 4.426-1.117 1.263-.269 2.551-.462 3.819-.675a10.018 10.018 0 0 1 1.567-.139c.301-.002.684.001 1.032.084-.826-.428-1.771-.671-2.589-.804-2.861-.465-5.841.121-8.617.693-6.043 1.246-12.102 2.452-18.123 3.798a513.806 513.806 0 0 0-18.427 4.476 723.19 723.19 0 0 0-8.546 2.316c-2.698.746-5.408 1.469-8.165 1.982a44.8 44.8 0 0 1-1.086.188c1.319-.098 2.639-.186 3.954-.324 3.109-.328 6.133-.96 9.189-1.571 6.151-1.233 12.26-2.674 18.391-3.999Zm-24.289 26.425c1.235-1.912 3.088-3.279 5.026-4.386 2.222-1.268 4.626-2.189 7.042-3.018 2.392-.821 4.807-1.585 7.204-2.393 5.512-1.857 11.091-3.523 16.575-5.463 5.501-1.946 10.921-4.176 15.973-7.105 1.886-1.093 3.791-2.26 5.503-3.619 1.413-1.12 3.245-2.845 2.809-4.919-.193-.917-.772-1.579-1.511-2.057a.39.39 0 0 0 .124.133c.864.564-.265 1.716-.76 2.175-1.248 1.158-2.734 2.016-4.211 2.836-3.325 1.847-6.657 3.529-10.207 4.927-3.16 1.245-6.377 2.346-9.555 3.545-3.281 1.238-6.531 2.56-9.774 3.891-3.228 1.326-6.453 2.661-9.648 4.062-3.061 1.343-6.215 2.525-9.179 4.078a24.166 24.166 0 0 0-3.983 2.593c-.876.707-1.701 1.499-2.279 2.478-.747 1.265-.865 2.784-.435 4.156-.061-.027-.141-.002-.104.087.102.246.214.484.337.713.069-.98.54-1.918 1.053-2.714Zm22.629 17.597c1.481-1.875 3.572-3.206 5.624-4.353 2.561-1.43 5.284-2.536 7.988-3.667 2.486-1.04 4.899-2.215 7.346-3.338 4.432-2.034 8.947-3.903 13.232-6.24 4.224-2.303 8.346-5.095 11.322-8.97.564-.734 1.145-1.461 1.585-2.284.422-.786.852-1.931.091-2.69-.584-.583-1.574-.525-2.342-.455-.87.078-1.733.215-2.584.405a64.08 64.08 0 0 0-8.144 2.398c-2.925 1.079-5.801 2.287-8.737 3.339-2.946 1.055-5.934 1.993-8.912 2.957a350.726 350.726 0 0 0-8.837 3.015c-2.987 1.055-5.971 2.119-8.964 3.155-2.524.874-5.079 1.668-7.593 2.565-3.078 1.098-6.221 2.108-9.468 2.609-.056.009-.113.016-.169.024a13.59 13.59 0 0 0 3.391.322c2.411-.06 4.813-.722 7.112-1.36 2.696-.749 5.341-1.662 7.993-2.547 6.067-2.024 12.095-4.115 18.068-6.405 4.635-1.776 9.272-3.549 13.947-5.219 3.115-1.113 6.191-2.356 9.326-3.412.707-.238 1.417-.469 2.128-.697.547-.174 1.12-.401 1.704-.413.23-.004.467.017.702.053a.244.244 0 0 1 .065-.117c.088-.083.248-.065.324.033a1 1 0 0 1 .184.376c-.044.022-.087.047-.131.069-.12.432-.472.886-.666 1.13-1.28 1.611-3.085 2.639-4.788 3.718-10.026 6.346-20.296 12.448-30.934 17.717-3.595 1.78-7.959 3.468-10.31 6.94-.81 1.197-1.125 2.61-1.006 3.982.357-.945.821-1.839 1.453-2.64Zm-33.245-68.017c-.591-1.277-.328-2.778.428-3.878 1.52-2.208 4.519-2.78 6.926-3.41 8.358-2.186 17.087-2.23 25.674-2.97 8.643-.745 17.069-2.729 25.516-4.529 8.407-1.792 16.892-3.431 25.547-3.625 3.006-.067 5.663 1.184 8.219 2.778 2.385 1.487 4.734 3.151 7.441 3.859-1.295-1.082-2.514-2.262-3.707-3.461-2.884-2.896-5.665-5.94-8.913-8.416h-.005a29.728 29.728 0 0 1-3.428.971c-1.575.355-3.15.714-4.729 1.054-3.142.677-6.286 1.353-9.447 1.945-6.51 1.22-13.084 2.122-19.667 2.916-3.307.399-6.61.802-9.905 1.276-3.265.469-6.536.903-9.823 1.223-3.291.32-6.593.518-9.876.907-3.27.386-6.529.887-9.737 1.602-3.654.815-7.823 1.776-10.481 4.649-1.084 1.174-1.711 2.583-1.372 4.258.205 1.013.694 1.883 1.246 2.742.054.083.109.161.164.24-.022-.045-.05-.085-.071-.131Z" fill="#F2C4B3"/><path d="M129.035 215.917s4.173-2.009 4.242-3.262c.068-1.252-4.114-2.182-4.788-2.242-.674-.06.546 5.504.546 5.504Zm12.437-21.439s4.174-2.01 4.242-3.262c.068-1.253-4.113-2.183-4.788-2.243-.674-.059.546 5.505.546 5.505Zm-6.551-14.706s4.174-2.009 4.242-3.262c.069-1.253-4.113-2.182-4.787-2.242-.675-.06.545 5.504.545 5.504Zm-22.957-12.612s4.174-2.009 4.242-3.262c.069-1.253-4.113-2.183-4.787-2.242-.675-.06.545 5.504.545 5.504Z" fill="#263238"/><path d="M-30.65 195.021s57.132-7.112 61.267-7.794c4.134-.682 28.835-7.298 32.064-9.947 3.228-2.649 19.338-11.074 25.148-14.123 5.81-3.049 14.781-3.302 21.362-2.091 6.58 1.212 3.278 5.112 3.278 5.112l3.309.293c1.527.135 1.539-.073 7.803 2.158 6.264 2.232 10.504 4.075 12.112 7.152 1.609 3.077-2.545 8.369-2.545 8.369s7.003 2.716 8.828 6.442c1.826 3.725-3.954 10.55-5.872 12.686-1.918 2.136-8.976 4.654-8.976 4.654s4.346 3.734 2.566 7.412c-1.779 3.677-11.338 6.985-16.497 8.446-5.158 1.461-12.21-4.597-22.242-6.444-10.034-1.848-26.947.49-26.947.49s-14.318 1.475-17.956 2.411c-3.638.936-1.713 2.992-9.871 2.48-8.158-.514-47.343 11.618-49.963 12.644" fill="#D16958"/><path d="M-30.65 195.021s57.132-7.112 61.267-7.794c4.134-.682 28.835-7.298 32.064-9.947 3.228-2.649 19.338-11.074 25.148-14.123 5.81-3.049 14.781-3.302 21.362-2.091 6.58 1.212 3.278 5.112 3.278 5.112l3.309.293c1.527.135 1.539-.073 7.803 2.158 6.264 2.232 10.504 4.075 12.112 7.152 1.609 3.077-2.545 8.369-2.545 8.369s7.003 2.716 8.828 6.442c1.826 3.725-3.954 10.55-5.872 12.686-1.918 2.136-8.976 4.654-8.976 4.654s4.346 3.734 2.566 7.412c-1.779 3.677-11.338 6.985-16.497 8.446-5.158 1.461-12.21-4.597-22.242-6.444-10.034-1.848-26.947.49-26.947.49s-14.318 1.475-17.956 2.411c-3.638.936-1.713 2.992-9.871 2.48-8.158-.514-47.343 11.618-49.963 12.644" stroke="#263238" stroke-miterlimit="10"/><path d="M50.832 217.271s3.664.11 5.28-.607c1.615-.717-.916-2.229-.916-2.229l3.48-1.197-1.406-1.444 4.247-1.768-3.036-.268m-42.715-18.077 8.702-2.138-2.756 1.937 4.23-.898-.318 1.607 4.887-.84-.308 1.426m68.111 14.079c-1.758-.014-2.86-.084-2.86-.084m32.15.905s-8.001-3.758-15.559-2.04c-3.675.835-7.682 1.126-10.83 1.205m27.608-23.185a40.548 40.548 0 0 0-6.608.481c-6.972 1.071-17.154 4.611-20.257 5.181-3.104.57-11.884 1.903-11.884 1.903m43.901-7.091s-1.221-.289-3.374-.401m-40.499-10.799c-2.635 1.45-4.38 2.742-6.084 3.28l-3.108.982m32.261-10.776s-5.399.572-13.966 2.971c-3.103.869-5.51 1.884-7.467 2.872" stroke="#263238" stroke-miterlimit="10"/></g><defs><clipPath id="clip0_1048_7694"><path fill="#fff" transform="matrix(0 -1 1 0 0 269)" d="M0 0h269v335H0z"/></clipPath></defs></svg>