<svg version="1.1" id="Layer_1" xmlns="http://www.w3.org/2000/svg" x="0" y="0" viewBox="0 0 294.8 260" style="enable-background:new 0 0 294.8 260" xml:space="preserve"><style>.st1{fill:#db5b52}.st1,.st2,.st8{fill-rule:evenodd;clip-rule:evenodd}.st2{fill:#ed7966}.st8{fill:#333}</style><path d="M155.5 201.2c-10.7-.4-21.7-.3-31.6 1.1-10.6 1.4-16.5 4.9-26.3 6.8-21 4.1-54.7 3.5-64.2 10.7-8 6.1 17.3 11.7 27 17.6 10.1 6.1 13.8 13.7 31.5 17.7 18 4 44.5 6.9 63.6 3.5 21.4-3.8 10.2-17.5 32.7-20.6 27.4-3.8 63.9 10 87.2 4 18.8-4.8-2.5-15.9-16.7-22.1-12.1-5.4-36.5-5.5-54-9.1-8.3-1.7-13.1-4.6-21.5-6.3-8.6-1.7-17.8-2.9-27.7-3.3z" style="fill-rule:evenodd;clip-rule:evenodd;fill:#1c49c2"/><path class="st1" d="M164.3 182.7c5.7 7.5 5.6 16.1 6.8 25 .1.5 2.3.5 2.5.6 2.7.1 7.7.5 10.4 1.2 11.1 3 10.7 20.5 10.7 20.5s-18.9.6-25.5.3c-7.5-.3-25.9.8-25.9.8s-5.4-6.5-8.7-8.3c-8.6-4.4-23.4-5.3-23-18.2.1-2.4.6-4.8 1.3-7.1 1-3.2 2.5-6.1 4.4-8.8 3.8-5.6 10.2-9.5 15.9-12.8"/><path class="st2 section-banner__dogs-tail" d="M75.8 175.1c-1-3-1.2-6.2-1.5-9.3-.8-7.9-4-15.1-6.7-22.5-.7-1.8-1.5 2.6-1.7 3.4-.1.7.5 2.3-.2 2.2-.7-.1-1.5-7.7-1.6-8.2-1.4-8.7-4.2-17.1-5.8-25.7-.4-2.1-.3-4.3-.1-6.4.1-.9.2-1.9.3-2.8.1-.4.5-1.3.2-1.2-1.3.5-2.1 3.1-2.5 4.1-.2.6-.3 2.4-.6 1.9-1.1-1.4-.2-5.2 0-6.9.7-5.6 1.9-11.2 3.1-16.7.3-1.5 2.7-7-.8-5.7-4.1 1.5-6.8 5.7-9.1 9.1-5 7.6-9 16-9.9 25.1-.4 4.1-.6 8.2-.2 12.3.1 1.3.3 2.5.4 3.8.1.7.9 2.6.2 2.2-1.9-1.1-3.4-5.9-5-6.4-.6-.2-.7 1.1-.9 1.6-.7 1.9-.8 4.1-.6 6.1.9 7.3 4.1 14.7 8.4 20.7 2.6 3.6 5.5 7.1 8.3 10.5.9 1.1 2 2.2 3 3.3.5.5 2.3 1.3 1.6 1.6-1.8.7-9.2-2.8-9.3-2.4-.9 2.9 2.1 6.9 3.4 9 4.4 7 12.2 10.2 17 16.5.8 1.1 1.3 2.4 1.7 3.9 1.7-7.3 5.9-14 10.4-20.2-.4-.2-1.4-2.7-1.5-2.9z"/><path class="st2" d="M239.3 207.3c-2.3-1.1-11.1-2.6-11.1-2.6s-2.3-8.2-2.8-11.5c-1.7-12-2.2-24.2-3.8-36.2-1.5-11-4.9-33.2-4.9-33.2s.9-13 .8-19.5c-.1-11-6.1-29.7-6.1-29.7 1.6-5.2 5.5-10.2 7.9-15.2 3.8-8 5.6-15 11.3-22 4.2-5.2 10.6-12.8 8.3-20.2C236.5 9.6 226 7.5 219.3 6c-10.6-2.4-21.3-3.1-32.1-4.3-7.4-.8-15-2.5-22.4-1.4-5.4.8-14 1.5-17.7 6.2-5.9 7.5-1.2 21.3 1.1 29.5.6 2.2 1 7.5 3.4 8.6 1.9.8 4.2-1.1 5.2-2.6.2-.2 1.1-2.2 1.2-2.2.8 0 1.8 3 2 3.6 1 2.6 3.9 9.2 2.9 12-1.6 4.8-43.9 38.2-58.2 52.9-10.6 10.9-18.6 24.1-26.2 37.2-3.8 6.5-6.6 14.7-12.1 20.1h-.1c-4.5 6.2-8.7 12.9-10.4 20.2.8 3.3.7 7.1 1.5 9.9C60.7 208 70 208 77.8 218.2c1.4 1.9 10.1 14.8 10.1 14.8l53.2-1.9s4.4-10.6-4.8-17.7c-6.6-5-19.5-1.5-19.5-1.5l23.3-12.4s6 13.3 7.8 20c.7 2.6 1.3 5.2 1.8 7.8.1.3.5 2.7.5 2.7l30.7.7s1.7-6.2 1.3-9.2c-.7-5.3-3.5-8.9-8.1-11.6-2.2-1.3-7.1-2-7.1-2s-1.4-7.7-1.7-10.4c-.4-3-2.6-12.8-2.6-12.8s5.4-4 7.3-5.9c4.5-4.6 17.7-20.6 20-24.2.3-.5 3.4-5.2 3.4-5.2s4 12.3 5 16.4c.5 1.9.4 1.8.8 3.7 3.1 14.4 9.6 29.2 14.7 43.1.5 1.2.9 2.5 1.4 3.7.5 1.5 4.1 10.8 4.1 10.8s14.2.9 18.9.3c2.3-.3 7.5-.2 7.5-.2s3.5-15.2-6.5-19.9z"/><defs><filter id="Adobe_OpacityMaskFilter" filterUnits="userSpaceOnUse" x="78.4" y="-11.9" width="183" height="220.9"><feColorMatrix values="1 0 0 0 0 0 1 0 0 0 0 0 1 0 0 0 0 0 1 0"/></filter></defs><mask maskUnits="userSpaceOnUse" x="78.4" y="-11.9" width="183" height="220.9" id="mask0_226_6291_00000163763621572920516400000012576342523744523154_"><path d="M211.3 74.6c1.6-5.2 5.5-10.2 7.9-15.2 3.8-8 5.6-15 11.3-22 4.2-5.2 10.6-12.8 8.3-20.2-2.4-7.6-12.9-9.7-19.6-11.2-10.6-2.4-21.3-3.1-32.1-4.3-7.4-.8-15-2.5-22.4-1.4-5.4.8-14 1.5-17.7 6.2-5.9 7.5-1.2 21.3 1.1 29.5.6 2.2 1 7.5 3.4 8.6 1.9.8 4.2-1 5.2-2.6.2-.2 1.1-2.2 1.2-2.2.8 0 1.8 3 2 3.6 1 2.6 3.9 9.2 2.9 12-1.6 4.8-43.9 38.2-58.2 52.9C94 119.2 86 132.4 78.4 145.5c-3.8 6.5-6.6 14.7-12.1 20.1-.4.4-1.7-2.5-1.7-2.8-1-3-1.2-6.2-1.5-9.3-.8-7.9-4-15.1-6.7-22.5-.7-1.8-1.5 2.6-1.7 3.4-.1.7.5 2.3-.2 2.2-.7-.1-1.5-7.7-1.6-8.2-1.4-8.7-4.2-17.1-5.8-25.7-.4-2.1-.3-4.3-.1-6.4.1-.9.2-1.9.3-2.8.1-.4.5-1.3.2-1.2-1.3.5-2.1 3.1-2.5 4.1-.2.6-.3 2.4-.6 1.9-1.1-1.4-.2-5.2 0-6.9.7-5.6 1.9-11.2 3.1-16.7.3-1.5 2.7-7-.8-5.7-4.1 1.5-6.8 5.7-9.1 9.1-5 7.6-9 16-9.9 25.1-.4 4.1-.6 8.2-.2 12.3.1 1.3.3 2.5.4 3.8.1.7.9 2.6.2 2.2-1.9-1.1-3.4-5.9-5-6.4-.6-.2-.7 1.1-.9 1.6-.7 1.9-.8 4.1-.6 6.1.9 7.3 4.1 14.7 8.4 20.7 2.6 3.6 5.5 7.1 8.3 10.5.9 1.1 2 2.2 3 3.3.5.5 2.3 1.3 1.6 1.6-1.8.7-9.2-2.8-9.3-2.4-.9 2.9 2.1 6.9 3.4 9 4.4 7 12.2 10.2 17 16.5 2.7 3.5 2.1 9.7 3.1 13.8 3.3 12.3 12.6 12.3 20.4 22.5 1.4 1.9 10.1 14.8 10.1 14.8l53.2-1.9s4.4-10.6-4.8-17.7c-6.6-5-19.5-1.5-19.5-1.5l23.3-12.4s6 13.3 7.8 20c.7 2.6 1.3 5.2 1.8 7.8.1.3.5 2.7.5 2.7l30.7.7s1.7-6.2 1.3-9.2c-.7-5.3-3.5-8.9-8.1-11.6-2.2-1.3-7.1-2-7.1-2s-1.4-7.7-1.7-10.4c-.4-3-2.6-12.8-2.6-12.8s5.4-4 7.3-5.9c4.5-4.6 17.7-20.6 20-24.2.3-.5 3.4-5.2 3.4-5.2s4 12.3 5 16.4c.5 1.9.4 1.8.8 3.7 3.1 14.4 9.6 29.2 14.7 43.1.5 1.2.9 2.5 1.4 3.7.5 1.5 4.1 10.8 4.1 10.8s14.2.9 18.9.3c2.3-.3 7.5-.2 7.5-.2s3.5-15.5-6.6-20.2c-2.3-1.1-11.1-2.6-11.1-2.6s-2.3-8.2-2.8-11.5c-1.7-12-2.2-24.2-3.8-36.2-1.5-11-4.9-33.2-4.9-33.2s.9-13 .8-19.5c.3-10.8-5.8-29.5-5.8-29.5z" style="fill:#fff;filter:url(#Adobe_OpacityMaskFilter)"/></mask><path class="st1" d="M212.9 2.4c-2 2.5-2.4 6.1-2.7 9.1-.9 8.2 1.9 16.2 5.6 23.3 2.6 5.1 5.7 9.6 12.2 8.2 1.4-.3 2.7-.8 4-1.4 1.8-.8 3.2-2 4.5-3.4 2.5-2.7 4.7-5.9 6.5-9.1 2.9-5.3 3.7-11.2 4.3-17.2.2-2.3.3-4.8-.2-7.1-1.3-6.2-8.1-9.3-13.4-11.2l-20.8 8.8zm-46.4-5.3c7.4 7.8 2.3 16.6-2 24.6-2.2 4-4.1 8.1-5.6 12.4-1.7 4.7-1.3 10.7-5.1 14.3-1.8 1.7-5.3 1.2-7.4.9-8.6-1.2-13.1-9.6-15-17.4-1.1-4.7-1.1-9.5-.2-14.2 1.4-7.9 4.3-15.3 9.8-21.2 6.9-7.5 16.7-5.5 25.5-8.3v8.9zM144 60.5c2.9 1.7 5.1 4.4 7 7.1 1.8 2.6 3.2 5.4 4.2 8.3.7 1.9 1.2 3.9 1.1 6-.4 12.7-16.2 11.3-21.8 20.6-5.9 9.8-2 19.7.7 29.7 1.3 4.7 2.1 11.4-2.9 14.4-2.7 1.6-6.1 2.3-9.2 2.5-2.6.2-5.3.1-7.8-.4-15.3-2.7-8.2-22.9-14.3-32.6-2.8-4.5-8.6-5.4-13.4-6.2-4.6-.8-8.2-2.2-7.5-7.4.2-1.2.5-2.2.9-3.3.7-1.9 1.6-3.9 2.6-5.7 1.6-2.8 3.7-5.2 5.8-7.7L144 60.5zm-60.2 94.6h.1-.1zm95.5 18.5c2.9-2.6 4.4-6 6.5-9.2 1.6-2.5 2.7-5.3 4-7.9 2.8-5.8 5.1-11.4 7-17.6.8-2.8 2.6-4.4 2.7-7.7.2-4 .9-9-.6-12.9-2.3-6-9.9-6.8-14.5-3.1-3.6 2.8-5.9 7.1-6.6 11.6-.7 4.4 0 8.6-1.9 12.9-1.8 4.1-6.1 6.5-9.3 9.5-3.9 3.6-6.7 9.1-6.9 14.5-.1 2.5.9 4.8 1.3 7.3s1 4.9 1.3 7.4c.3 2.4.3 5.6 1.4 7.9.8 1.8 2.7 3 4.7 3 3.6.1 6.5-4.3 8.9-6.5l2-9.2zm58.4-64.2c3 8.7-2.8 13.9-8.7 19.7-5.6 5.5-11.9 11.6-15.7 18.5-6.5 11.9 7.9 19.6 6.5 30.9-.8 6.5-8.8 9.5-5 17.1 3.1 6.4 12 7 18 5.3 11.4-3.2 22.8-12.8 28.7-22.8l-23.8-68.7zM83.8 155.1c-3.9.8-6.3 4.6-5.1 8.4.7 2.4 2.8 4.1 3.7 6.5.6 1.7.9 3.7.9 5.5 0 2.9-1.1 5.4-1.3 8.3-.7 8.1 1.7 17.2 10.2 20.1 3.3 1.1 6.8-.2 10.1.8 3.1.9 5.7 4.4 9.1 4.3 2.6-.1 5.4-3 5.9-5.4 1.1-4.8.1-11-1.8-15.5-.8-1.8-2.5-4.3-2-6.3.8-3.7 5.7 1.8 6.1-1.9.1-1-.8-2.3-1.3-3.1-1.6-2.5-3.5-4.9-5.4-7-1.7-1.8-3-4-4.6-5.8-3.4-3.7-9.2-7.4-14.1-8.6-3.5-.8-7-.5-10.4-.3z" style="mask:url(#mask0_226_6291_00000163763621572920516400000012576342523744523154_)"/><defs><filter id="Adobe_OpacityMaskFilter_00000087370668023335239750000013960128144975631008_" filterUnits="userSpaceOnUse" x="181.9" y="65.9" width="14.7" height="22.8"><feColorMatrix values="1 0 0 0 0 0 1 0 0 0 0 0 1 0 0 0 0 0 1 0"/></filter></defs><mask maskUnits="userSpaceOnUse" x="181.9" y="65.9" width="14.7" height="22.8" id="mask1_226_6291_00000160891991121381155600000014398615936554183089_"><path style="fill:#fff;filter:url(#Adobe_OpacityMaskFilter_00000087370668023335239750000013960128144975631008_)" d="M211.3 74.6c1.6-5.2 5.5-10.2 7.9-15.2 3.8-8 5.6-15 11.3-22 4.2-5.2 10.6-12.8 8.3-20.2-2.4-7.6-12.9-9.7-19.6-11.2-10.6-2.4-21.3-3.1-32.1-4.3-7.4-.8-15-2.5-22.4-1.4-5.4.8-14 1.5-17.7 6.2-5.9 7.5-1.2 21.3 1.1 29.5.6 2.2 1 7.5 3.4 8.6 1.9.8 4.2-1 5.2-2.6.2-.2 1.1-2.2 1.2-2.2.8 0 1.8 3 2 3.6 1 2.6 3.9 9.2 2.9 12-1.6 4.8-43.9 38.2-58.2 52.9C94 119.2 86 132.4 78.4 145.5c-3.8 6.5-6.6 14.7-12.1 20.1-.4.4-1.7-2.5-1.7-2.8-1-3-1.2-6.2-1.5-9.3-.8-7.9-4-15.1-6.7-22.5-.7-1.8-1.5 2.6-1.7 3.4-.1.7.5 2.3-.2 2.2-.7-.1-1.5-7.7-1.6-8.2-1.4-8.7-4.2-17.1-5.8-25.7-.4-2.1-.3-4.3-.1-6.4.1-.9.2-1.9.3-2.8.1-.4.5-1.3.2-1.2-1.3.5-2.1 3.1-2.5 4.1-.2.6-.3 2.4-.6 1.9-1.1-1.4-.2-5.2 0-6.9.7-5.6 1.9-11.2 3.1-16.7.3-1.5 2.7-7-.8-5.7-4.1 1.5-6.8 5.7-9.1 9.1-5 7.6-9 16-9.9 25.1-.4 4.1-.6 8.2-.2 12.3.1 1.3.3 2.5.4 3.8.1.7.9 2.6.2 2.2-1.9-1.1-3.4-5.9-5-6.4-.6-.2-.7 1.1-.9 1.6-.7 1.9-.8 4.1-.6 6.1.9 7.3 4.1 14.7 8.4 20.7 2.6 3.6 5.5 7.1 8.3 10.5.9 1.1 2 2.2 3 3.3.5.5 2.3 1.3 1.6 1.6-1.8.7-9.2-2.8-9.3-2.4-.9 2.9 2.1 6.9 3.4 9 4.4 7 12.2 10.2 17 16.5 2.7 3.5 2.1 9.7 3.1 13.8 3.3 12.3 12.6 12.3 20.4 22.5 1.4 1.9 10.1 14.8 10.1 14.8l53.2-1.9s4.4-10.6-4.8-17.7c-6.6-5-19.5-1.5-19.5-1.5l23.3-12.4s6 13.3 7.8 20c.7 2.6 1.3 5.2 1.8 7.8.1.3.5 2.7.5 2.7l30.7.7s1.7-6.2 1.3-9.2c-.7-5.3-3.5-8.9-8.1-11.6-2.2-1.3-7.1-2-7.1-2s-1.4-7.7-1.7-10.4c-.4-3-2.6-12.8-2.6-12.8s5.4-4 7.3-5.9c4.5-4.6 17.7-20.6 20-24.2.3-.5 3.4-5.2 3.4-5.2s4 12.3 5 16.4c.5 1.9.4 1.8.8 3.7 3.1 14.4 9.6 29.2 14.7 43.1.5 1.2.9 2.5 1.4 3.7.5 1.5 4.1 10.8 4.1 10.8s14.2.9 18.9.3c2.3-.3 7.5-.2 7.5-.2s3.5-15.5-6.6-20.2c-2.3-1.1-11.1-2.6-11.1-2.6s-2.3-8.2-2.8-11.5c-1.7-12-2.2-24.2-3.8-36.2-1.5-11-4.9-33.2-4.9-33.2s.9-13 .8-19.5c.3-10.8-5.8-29.5-5.8-29.5z"/></mask><g style="mask:url(#mask1_226_6291_00000160891991121381155600000014398615936554183089_)"><path d="M196.6 74.1c0 4.5-1.8 9.4-5.2 12.5-2.5 2.2-6.3 3.4-8.2-.2-.4-.7-.6-1.6-.7-2.4-.5-3.2-1.1-8.1.7-11 .7-1.2 2.2-2.1 3.2-3.1 1.4-1.6 3-5.7 5.5-3.1.4.4.6.9.9 1.3" style="fill-rule:evenodd;clip-rule:evenodd;fill:#c24e00"/></g><path class="st8" d="M157 36.6c1.7-3.5 3.4-7 5-10.6 1.6-3.6 3.1-7.2 4.6-10.8.7-1.7 1.8-3.9 2.4-6.1.4-1.3.6-2.6.4-3.7-.1-.8.4-1.6 1.3-1.8.8-.1 1.6.4 1.8 1.3.3 1.6 0 3.4-.5 5.1-.7 2.3-1.8 4.6-2.5 6.4-1.5 3.6-3 7.3-4.6 10.9-1.6 3.6-3.3 7.2-5 10.7-.4.8-1.3 1.1-2.1.7-.9-.4-1.2-1.4-.8-2.1zm27.5-5.7c-.2-.9-.9-2.6-1.7-3.2-.8-.6-1.9-.8-3 .6l-.5.9-.3 1.2c-.1.7-.2 1.5-.1 2.2.1 1 .3 2 .5 2.9.1.5.2 1.1.3 1.6.1.4.3.9.5 1.2.6 1.2 1.5 1.4 2.2 1.3.5 0 1.1-.3 1.5-.8.6-.6 1-1.5 1.1-2.2.2-1.1.3-2.4.1-3.6-.1-.6-.3-1.4-.6-2.1zm17.8.1c-.3.7-.5 1.5-.6 2.3-.2 1.2-.1 2.5.1 3.6.1.7.5 1.6 1.1 2.2.5.5 1 .8 1.5.8.7.1 1.6-.1 2.3-1.3.2-.4.4-.8.5-1.2.2-.5.3-1.1.4-1.6.2-.9.4-1.9.5-2.9.1-.7.1-1.5-.1-2.2l-.3-1.2-.5-.9c-1.1-1.4-2.2-1.2-3-.7-1 .5-1.7 2.3-1.9 3.1zm9.9-21.6c-.4 1.1-.5 2.4-.4 3.6.1 2.1.6 4.2.9 6.1.8 4.7 2 9.6 4.1 14 1.4 2.8 3.2 5.4 5.7 7.5.6.6.7 1.5.1 2.2-.6.6-1.5.7-2.2.1-2.7-2.4-4.8-5.3-6.4-8.5-2.3-4.6-3.6-9.9-4.4-14.9-.3-2-.8-4.3-.9-6.5-.1-1.7.1-3.3.6-4.8.3-.8 1.2-1.2 2-1 .8.5 1.2 1.4.9 2.2zm-21.3 50.1c-.8.1-1.5.8-1.4 1.6.1 2.4-.7 4.6-2.1 6.3-1.4 1.8-3.4 3.1-5.7 3.9-1 .3-1.9.6-2.8.7-.8.1-1.7 0-2.6-.3-2.7-.9-4.9-3.1-6.5-5.7-1.7-2.7-2.8-5.8-3-8.5-.1-.9-.8-1.5-1.7-1.4-.9.1-1.5.8-1.4 1.7.3 3.2 1.5 6.8 3.5 9.9 2 3.2 4.8 5.8 8.1 6.9 1.3.5 2.6.6 3.8.5 1.2-.1 2.3-.4 3.5-.8 2.8-1 5.3-2.7 7.1-4.9.4-.5.7-1 1.1-1.5.8 2.6 2.1 5.1 3.9 6.9 2.6 2.6 6 3.9 10.1 2.5.7-.2 1.3-.5 1.8-.9.8-.5 1.4-1.1 2.1-1.7.7-.6.7-1.5.2-2.2-.6-.7-1.5-.7-2.2-.2l-1.8 1.5c-.4.2-.7.4-1.2.6-3.5 1.2-6.3-.6-8.1-3.3-1.9-2.9-2.9-6.8-2.5-9.9.1-.8-.5-1.6-1.3-1.7-.3-.2-.6-.2-.9 0zm.5 13.6c-.2 1.8-.3 3.5-.6 5.3-.2 1.2-.5 2.5-.9 3.6-.3.8-1.2 1.2-2 1-.8-.3-1.2-1.2-1-2 .4-1 .6-2.1.8-3.1.3-1.7.4-3.4.6-5.1.1-.9.9-1.5 1.7-1.4.8.1 1.4.8 1.4 1.7zm-7.6 3.3c.2 2-.1 4.1.1 6.1.1 1.1.3 2.1.9 3.1.5.8 1.2 1.3 2 1.4.8.1 1.7-.2 2.6-.8 1.1-.8 1.9-1.8 2.6-3 .7-1.2 1.2-2.5 1.6-3.9.2-.8 1.1-1.3 1.9-1 .8.2 1.3 1.1 1 1.9-.6 2-1.3 3.8-2.4 5.4-.8 1.1-1.7 2.1-2.9 3-1.5 1.1-3.2 1.6-4.8 1.4-1.6-.2-3.2-1.1-4.2-2.9-.7-1.1-1.1-2.2-1.2-3.4-.4-2.3.1-4.7-.2-7.1-.1-.9.5-1.6 1.4-1.7.8 0 1.5.6 1.6 1.5zm18.1 57.4c.4.8 1 1.6 1.6 2.3.6.6 1.3.9 2 1.1.4.1 1.2 0 1.9-1 .6-.9 1.5-3.5 1.7-3.7 1-2.4 1.9-4.8 2.8-7.3.6-1.7 1.1-3.3 1.6-5 .2-.8-.2-1.7-1.1-1.9-.8-.2-1.7.2-1.9 1.1-.5 1.6-1 3.2-1.6 4.8-.9 2.4-1.8 4.8-2.8 7.2-.1.1-.5 1.2-.9 2.1-.4-.6-.8-1.3-1.1-1.8-.1-.1-.5-1.1-.8-1.4-.4-.5-.9-.6-1.1-.7-.4-.1-1 0-1.5.5s-1.4 2.1-1.6 2.3c-.9 1.6-1.8 3.2-2.7 4.7-.6 1-1.2 2-1.9 2.9-.5.7-.4 1.7.3 2.2.7.5 1.7.4 2.2-.3.6-.8 1.1-1.6 1.6-2.4 1.2-1.9 2.2-3.8 3.3-5.7zm-41.1 46.4c-1-9.7-3-19.4-4.4-29.1-.6-4.2-1.1-8.5-1.3-12.7 0-.9.6-1.6 1.5-1.6s1.6.6 1.6 1.5c.2 4.2.7 8.3 1.2 12.4 1.4 9.7 3.4 19.4 4.4 29.2.1.9-.5 1.6-1.4 1.7-.8.1-1.5-.5-1.6-1.4zM134.7 167c.3 4.8.9 9.4 1.8 13.9.9 4.6 2.1 9.1 3.4 13.7.2.8-.2 1.7-1.1 1.9-.8.2-1.7-.2-1.9-1-1.4-4.7-2.6-9.3-3.5-14-.9-4.7-1.6-9.4-1.9-14.3-.1-.9.6-1.6 1.4-1.7 1 0 1.8.6 1.8 1.5zm-18.9 15.1c.9.4 2 .8 3 .9 1 .2 1.9.2 2.6-.1.3-.1 1.3-.6.9-1.9 0-.1-.1-.2-.2-.5-.4-.8-1.4-2.7-1.4-2.7-1-1.7-2.2-3.3-3.4-4.9-1.2-1.6-2.5-3.1-3.8-4.6-4.6-5.1-10.2-9.9-16.5-12.6-4.4-1.8-9.1-2.6-14.1-1.8-.8.1-1.4.9-1.3 1.8.1.8.9 1.4 1.8 1.3 4.4-.7 8.5 0 12.3 1.6 5.9 2.5 11.1 7.1 15.4 11.8 1.3 1.4 2.5 2.9 3.6 4.4 1.1 1.5 2.2 3 3.2 4.6l.1.3c-1-.3-2-.7-2.6-1l-1.5-.5c-.1-.1-.6-.3-.8-.4-.5-.1-.9-.1-1.1.1-.5.2-1.1.6-1 1.6 0 .5.2 1.1.5 1.6.4.8 1 1.7 1.3 2.4.5 1 .9 2.1 1.3 3.1.4 1.1.7 2.1 1 3.2.6 2.3.9 4.6 1.1 6.9.2 3.6-.1 7.2-.4 10.8-.1.9.5 1.6 1.4 1.7.9.1 1.6-.5 1.7-1.4.4-3.7.6-7.5.4-11.3-.1-2.6-.5-5.1-1.2-7.6-.3-1.2-.7-2.3-1.1-3.5-.4-1.1-.9-2.3-1.4-3.4l.2.1z"/><path class="st8" d="M184.7 44.9c-.1 0-.2.1-.3.2-.9.5-1.4 1.4-1.6 2.4-.2 1.4.4 3.3.7 4.3.6 1.7 1.4 3.6 2.4 5.3.7 1.2 1.5 2.3 2.3 3.3.9 1 2.1 1.7 3.3 1.9.9.2 1.9.1 2.8-.4.6-.3 1.1-.6 1.6-1.1.7-.6 1.2-1.2 1.8-1.9.8-1 1.6-2.1 2.2-3.1.7-1.1 1.2-2.3 1.7-3.6.3-1 .7-2.2.5-3.3-.1-1.1-.6-2-1.6-2.7-1-.7-2.2-1-3.5-1.2-1.6-.2-3.4-.2-4.8-.3-.8 0-1.5-.1-2.3-.2l-3.6-.6c-.6 0-1.3.4-1.6 1z"/></svg>