<svg width="337" height="420" viewBox="0 0 337 420" fill="none" xmlns="http://www.w3.org/2000/svg"><g clip-path="url(#clip0_1048_7422)"><path d="M166.064 63.807c27.498 5.836 58.749 21.975 71.523 49.958 19.306 42.279 54.034 41.852 62.958 121.915 1.393 12.483 1.48 24.223.44 35.198a141.869 141.869 0 0 1-2.644 17.03c-10.784 49.475-46.361 80.344-87.13 89.296-53.618 11.784-85.403-23.635-104.403-46.933-19-23.299-82.147-44.579-91.507-123.213-1.422-11.989-1.683-24.148-.47-36.176 2.756-27.456 13.626-56.73 33.094-75.964a103.197 103.197 0 0 1 4.52-4.196c30.295-26.456 76.132-34.874 113.619-26.915Z" fill="#E7EDFB"/><path opacity=".7" d="M166.064 63.807c27.498 5.836 58.749 21.975 71.523 49.958 19.306 42.279 54.034 41.852 62.958 121.915 1.393 12.483 1.48 24.223.44 35.198a141.869 141.869 0 0 1-2.644 17.03c-10.784 49.475-46.361 80.344-87.13 89.296-53.618 11.784-85.403-23.635-104.403-46.933-19-23.299-82.147-44.579-91.507-123.213-1.422-11.989-1.683-24.148-.47-36.176 2.756-27.456 13.626-56.73 33.094-75.964a103.197 103.197 0 0 1 4.52-4.196c30.295-26.456 76.132-34.874 113.619-26.915Z" fill="#fff"/><path d="M242.345 87.852s-5.803 3.51-13.1 5.974c-7.298 2.462-13.438 9.259-9.432 18.398s7.972 17.938 11.357 23.432c3.385 5.494 11.951 8.869 18.2 3.575 6.249-5.294 4.232-10.275 7.165-19.899 2.934-9.624 8.561-13.526 9.265-19.274.705-5.747-3.301-14.886-10.857-15.77-7.556-.884-12.598 3.564-12.598 3.564Zm-34.96 36.123s-6.256.741-9.5 4.887c-3.244 4.146 2.113 9.729 7.378 12.841 5.266 3.112 14.068 1.213 17.595-3.313 3.527-4.527.588-11.804-2.781-13.23-3.371-1.427-12.692-1.185-12.692-1.185Zm-22.144-18.379s4.239 8.902 10.18 12.755c5.94 3.852 12.822 3.995 16.777-1.346 3.955-5.341.09-12.153-4.337-15.925-4.427-3.772-13.382-5.993-18.261-5.222-4.88.769-4.918 7.741-4.359 9.738Zm6.258-20.402s2.914 3.693 10.24 7.09c7.326 3.397 13.436 3.088 17.2.6 3.764-2.487 5.356-9.04 1.873-14.246-3.483-5.205-13.354-7.445-17.921-6.232-4.566 1.212-10.642 4.62-11.976 7.207-1.333 2.588-1.039 3.998.584 5.581Zm28.588-14.464s5.197 9.26 10.921 12.382c5.724 3.122 12.259-.277 13.475-3.884 1.215-3.606.551-9.867-6.142-15.14-6.695-5.272-16.657-2.67-18.03-.424-1.373 2.248-.224 7.066-.224 7.066Zm94.331 263.755s-3.006-5.393-5.147-12.194c-2.141-6.802-7.912-12.477-15.551-8.641-7.639 3.835-14.992 7.631-19.575 10.852-4.583 3.22-7.334 11.264-2.825 17.056 4.508 5.793 8.674 3.857 16.788 6.507 8.114 2.649 11.448 7.874 16.284 8.475 4.836.603 12.475-3.234 13.144-10.309.668-7.076-3.118-11.746-3.118-11.746Zm-30.691-32.344s-.685-5.844-4.199-8.838c-3.515-2.994-8.153 2.072-10.717 7.027-2.562 4.955-.881 13.169 2.957 16.423 3.838 3.255 9.923.434 11.088-2.731 1.165-3.165.871-11.881.871-11.881Zm15.223-20.893s-7.437 4.052-10.615 9.646c-3.178 5.594-3.231 12.032 1.295 15.679 4.526 3.647 10.211-.036 13.337-4.213 3.126-4.178 4.903-12.574 4.208-17.131-.694-4.556-6.552-4.523-8.225-3.981Zm17.204 5.652s-3.074 2.762-5.856 9.646c-2.782 6.885-2.463 12.596-.336 16.093 2.128 3.496 7.649 4.92 11.988 1.612 4.339-3.308 6.124-12.563 5.061-16.822-1.064-4.259-3.987-9.909-6.173-11.131-2.188-1.221-3.37-.932-4.684.602Zm12.431 26.596s-7.729 4.952-10.296 10.336c-2.566 5.385.353 11.464 3.396 12.565 3.042 1.101 8.295.419 12.659-5.893 4.365-6.313 2.081-15.605.18-16.867-1.902-1.263-5.939-.141-5.939-.141ZM57.864 265.038s-3.25 5.887-5.55 13.304c-2.3 7.417-8.557 13.625-16.892 9.487-8.335-4.138-16.36-8.234-21.365-11.717-5.005-3.483-8.037-12.228-3.153-18.559 4.882-6.33 9.427-4.243 18.25-7.169 8.824-2.926 12.43-8.631 17.693-9.311 5.264-.681 13.599 3.458 14.358 11.159.76 7.701-3.34 12.806-3.34 12.806ZM24.592 300.41s-.718 6.367-4.531 9.644c-3.814 3.278-8.888-2.214-11.7-7.597-2.814-5.383-1.02-14.335 3.144-17.898 4.165-3.562 10.803-.522 12.086 2.918 1.282 3.442 1.001 12.933 1.001 12.933Zm16.672 22.673s-8.116-4.375-11.603-10.449c-3.486-6.075-3.573-13.085 1.34-17.079 4.911-3.994 11.118-.013 14.541 4.52 3.423 4.533 5.396 13.667 4.66 18.631-.736 4.964-7.115 4.959-8.938 4.377Zm18.706-6.241s-3.36-2.992-6.42-10.474c-3.06-7.483-2.739-13.704-.438-17.521 2.3-3.817 8.306-5.396 13.046-1.816s6.725 13.648 5.587 18.291c-1.139 4.643-4.297 10.81-6.672 12.151-2.376 1.341-3.664 1.031-5.103-.631Zm13.415-29.023s-8.439-5.352-11.258-11.202c-2.819-5.851.333-12.484 3.64-13.698 3.307-1.214 9.03-.498 13.812 6.353 4.78 6.851 2.336 16.981.272 18.364-2.066 1.385-6.466.183-6.466.183Z" opacity=".3" fill="#A9BFF8"/><path d="M262.337 279.294c-1.527-1.268-3.909-1.123-5.815-.834-2.066.314-4.138.968-6.059 1.819-5.973 2.647-10.238 7.844-14.056 12.876-4.569 6.024-9.213 11.908-14.69 17.195l-.922.889c-.58-1.545-1.005-3.122-1.368-4.75-.437-1.958-.878-3.916-1.296-5.879-.831-3.906-1.662-7.814-2.388-11.743-1.496-8.094-2.599-16.271-3.568-24.459-.487-4.115-.979-8.223-1.558-12.321-.575-4.061-1.105-8.129-1.494-12.219-.389-4.094-.627-8.203-1.101-12.288-.471-4.067-1.085-8.12-1.963-12.107-1.001-4.543-2.183-9.725-5.738-13.006-1.452-1.34-3.198-2.107-5.274-1.669-1.256.264-2.336.881-3.402 1.577-1.131.738-1.955 1.602-2.492 2.832-1.042 2.387-.912 5.118-.782 7.61.188 3.594.28 7.198.428 10.796.169 4.11.319 8.223.498 12.332.18 4.14.496 8.267.766 12.398.512 7.849 1.255 15.675 2.37 23.44.174 1.207.33 2.417.463 3.632.203 1.861.45 3.796.325 5.683-.019.286-.051.583-.146.857l-.005.003c-.236.013-.461.28-.458.488-1.253-.374-2.037-2.583-2.387-3.498-.665-1.741-1.091-3.562-1.574-5.363-2.002-7.469-3.894-14.969-5.856-22.449-1.979-7.545-4.13-15.038-6.081-22.591-1.891-7.322-3.551-14.709-5.715-21.952-.851-2.848-1.678-5.708-2.958-8.393-.613-1.284-1.331-2.52-2.203-3.649-.811-1.05-1.793-2.127-3.052-2.67-2.417-1.043-5.009.36-6.657 2.22a10.413 10.413 0 0 0-2.028 3.435c-.462 1.305-.481 2.576-.516 3.917-.033 1.288.01 2.574.12 3.853.199 2.315.313 4.638.551 6.949.398 3.866 1.168 7.622 1.914 11.42 1.504 7.644 3.264 15.232 4.881 22.85 1.637 7.709 3.146 15.446 4.758 23.16.394 1.881.766 3.77 1.233 5.633.459 1.831.979 3.646 1.365 5.497.334 1.594.57 3.221.836 4.819.099.597.148 1.203.155 1.811.006.546.011 1.352-.309 1.9a.489.489 0 0 0-.309.215c-.709 1.083-2.148-.314-2.721-.927-1.446-1.545-2.515-3.391-3.536-5.225-2.3-4.13-4.395-8.27-6.134-12.684-1.548-3.93-2.915-7.932-4.406-11.885-1.538-4.08-3.182-8.121-4.838-12.153-1.649-4.014-3.309-8.024-5.053-11.996-1.67-3.805-3.14-7.728-5.074-11.41a29.815 29.815 0 0 0-3.233-4.944c-.881-1.086-1.87-2.106-3.094-2.818-1.581-.92-3.482-1.052-5.202-.503.036-.077.004-.175-.107-.128-1.051.44-1.99 1.006-2.765 1.845-.76.824-1.339 1.784-1.787 2.793-.93 2.101-1.257 4.383-1.207 6.624.067 3.006.887 5.997 1.679 8.858.928 3.356 2.063 6.647 3.161 9.946 2.514 7.548 5.112 15.047 7.959 22.476 2.209 5.764 4.412 11.531 6.488 17.347 1.383 3.875 2.929 7.699 4.24 11.6.295.88.582 1.764.865 2.648.217.68.498 1.393.512 2.121.005.287-.023.583-.069.876a.298.298 0 0 1 .147.081c.103.109.08.309-.042.405-.141.11-.302.189-.472.232-.027-.054-.059-.108-.086-.163-.541-.145-1.108-.58-1.413-.819-2.012-1.582-3.293-3.823-4.638-5.937-7.908-12.447-15.514-25.199-22.075-38.418-2.216-4.467-4.315-9.895-8.654-12.793-3.878-2.591-9.581-1.055-11.543 3.398-1.222 2.771-.538 6.076.308 8.77 1.063 3.383 2.587 6.621 3.833 9.936 1.321 3.512 2.609 7.037 4.06 10.495 1.46 3.483 3.098 6.889 4.721 10.296 6.462 13.577 13.384 26.911 18.689 41.014 2.622 6.969 4.996 14.032 7.364 21.094 2.162 6.448 4.363 12.904 7.337 19.02 2.826 5.813 6.449 11.515 11.184 15.994 2.353 2.226 5.073 3.96 8.1 5.021.079 1.222.135 2.445.214 3.668.128 2.002.218 4.008.318 6.012.2 3.988.503 7.945.941 11.904.443 3.993.828 7.994 1.263 11.988.209 1.918.433 3.833.688 5.744.249 1.875.425 3.821.884 5.652.161.641.398 1.215.693 1.733.437-.535 1.086-.975 1.575-1.289a17.275 17.275 0 0 1 1.855-1.032c1.077-.52 2.925-1.132 4.082-1.416a55.59 55.59 0 0 1 4.665-.912c2.744-.428 5.503-.723 8.256-1.058 5.664-.687 11.325-1.367 16.963-2.304 2.997-.498 5.985-1.045 8.942-1.775 2.133-.527 4.268-1.05 6.42-1.479 2.409-.479 4.705-.793 7.04-.211.584.147 1.15.35 1.688.6.127-.442.168-.892.117-1.346-.08-.722-.331-1.417-.544-2.104-.283-.916-.565-1.833-.846-2.75-1.105-3.617-2.059-7.288-3.099-10.926-1.058-3.703-2.208-7.377-3.257-11.082-1.015-3.586-1.968-7.19-3.277-10.679-.682-1.817-1.458-3.597-2.105-5.43a64.314 64.314 0 0 1-.948-2.841c.203-.102.403-.208.597-.312 1.306-.706 2.559-1.527 3.779-2.373 2.968-2.059 5.611-4.497 7.692-7.427 3.938-5.544 5.62-12.174 7.298-18.553 3.631-13.809 6.644-27.902 13.009-40.929 1.603-3.282 3.38-6.514 5.368-9.6 1.82-2.826 3.797-5.632 6.114-8.104 1.747-1.865 3.61-3.713 4.868-5.937 1.053-1.858 1.617-4.282-.194-5.785Z" fill="#D08973"/><path d="M259.106 279.454c-2.075-.316-4.313.231-6.305.881-1.009.329-2 .723-2.94 1.222-7.346 3.896-11.618 10.971-16.471 17.189a136.676 136.676 0 0 1-12.217 13.664.63.63 0 0 1-.35.343c-.864.838-1.735 1.668-2.624 2.483-2.367 2.173-4.919 4.098-7.448 6.081-2.481 1.945-4.869 4.054-6.515 6.741-.254.417-1.089.357-.792-.192a18.972 18.972 0 0 1 2.64-3.729c2.17-2.388 4.793-4.303 7.334-6.286 2.39-1.865 4.616-3.924 6.802-6.016-.525-1.529-1.065-3.052-1.567-4.589-1.193-3.645-1.992-7.424-2.805-11.179a245.568 245.568 0 0 1-2.283-12.035c-1.331-8.067-2.251-16.194-3.161-24.328-.913-8.164-2.12-16.283-2.737-24.488-.589-7.849-1.497-15.816-3.552-23.388-.487-1.794-1.117-3.547-1.935-5.211-1.04-2.112-2.456-4.149-4.85-4.847-2.106-.614-4.858.433-6.238 2.153-1.634 2.035-1.633 4.889-1.561 7.292.1 3.344.235 6.682.289 10.029.065 4.088.12 8.173.371 12.247.249 4.037.594 8.065.853 12.102.261 4.091.517 8.183.861 12.266.335 3.986.736 7.961 1.32 11.911.205 1.384.391 2.771.549 4.162.09.79 1.018 7.253-.261 8.546h.001c-.25.276-.508.552-.792.783a6.077 6.077 0 0 1-1.016-.043 2.731 2.731 0 0 1-.489-.334c-1.419-1.217-2.061-3.379-2.597-5.097-.72-2.305-1.295-4.667-1.932-6.998-2.031-7.448-3.956-14.925-5.962-22.38-1.997-7.422-4.066-14.82-5.853-22.302-1.697-7.103-3.29-14.245-5.554-21.181-.911-2.791-1.955-5.577-3.527-8.064-1.264-2.002-3.439-4.849-6.278-3.927-1.193.388-2.204 1.272-2.963 2.239-.835 1.062-1.543 2.23-1.9 3.521-.927 3.352-.393 6.718-.129 10.077.299 3.803.763 7.586 1.53 11.308.787 3.812 1.731 7.588 2.61 11.377 1.757 7.584 3.45 15.178 5.048 22.8.798 3.813 1.639 7.616 2.433 11.429.793 3.808 1.566 7.614 2.548 11.372.678 2.602 1.325 5.28 1.56 7.98.133 1.546.452 4.404-1.308 5.346a1.734 1.734 0 0 1-.196.155c-1.238.841-2.577-.33-3.388-1.126-1.478-1.45-2.637-3.211-3.783-4.918-2.522-3.755-4.384-8.058-6.016-12.256-1.536-3.948-2.871-7.974-4.311-11.959-1.567-4.335-3.26-8.624-4.949-12.909a479.228 479.228 0 0 0-4.953-12.009c-1.575-3.697-3.064-7.451-4.908-11.019-.908-1.756-1.94-3.448-3.135-5.022-.848-1.117-1.813-2.195-2.997-2.941-1.366-.861-3.069-1.222-4.69-.691a7.753 7.753 0 0 0-2.442 1.33c-1.049 1.322-1.73 2.957-2.072 4.536-.613 2.834-.451 5.516.096 8.299.698 3.545 1.75 6.997 2.874 10.416 1.142 3.476 2.275 6.957 3.461 10.417 2.338 6.815 4.917 13.539 7.488 20.264 1.314 3.437 2.627 6.874 3.905 10.325 1.316 3.555 2.556 7.138 3.933 10.668a98.166 98.166 0 0 1 1.757 4.912c.35 1.062.722 2.118.985 3.209.042.171.069.347.077.524.037.821-.04 1.843-.489 2.581a1.421 1.421 0 0 1-.58.554l.006.011c-.018.007-.038.009-.055.015a.938.938 0 0 1-.403.079 2.418 2.418 0 0 1-1.032-.121c-1.788-.599-3.231-2.37-4.256-3.833-1.928-2.751-3.56-5.751-5.283-8.632-7.12-11.902-14.011-23.923-20.191-36.345-1.202-2.417-2.483-4.843-4.212-6.933-1.551-1.873-3.582-3.605-6.201-3.722-2.468-.11-5.009 1.243-6.18 3.444-1.553 2.919-.444 6.72.57 9.527 1.174 3.248 2.608 6.403 3.832 9.633 1.309 3.453 2.59 6.917 4.046 10.309 2.911 6.78 6.259 13.378 9.5 20.001 3.233 6.606 6.519 13.197 9.416 19.962 2.851 6.662 5.36 13.47 7.736 20.321 4.426 12.763 7.904 26.271 15.214 37.746 3.099 4.865 6.976 9.858 12.258 12.601.599.311 1.211.584 1.834.824l-.002-.027c.431.26.894.475 1.369.611.021.007.04.005.06.007.207.087.415.172.626.247 1.066.382 2.168.561 3.305.683 1.29.14 2.593.185 3.896.192 1.058.007 2.116.038 3.175-.01l.072-.003c-2.423.428-4.913.684-7.34.474a20.724 20.724 0 0 1-4.557-.915c.267 1.182.498 2.373.657 3.584.277 2.12.441 4.25.595 6.387a547.42 547.42 0 0 0 1.074 12.87c.368 3.854.694 7.714 1.109 11.561.215 2 .451 3.996.724 5.986.224 1.635.305 3.43.965 4.948.203.468.461.887.761 1.266.887.186 1.802.286 2.681.375 2.192.221 4.379.497 6.587.603a61.72 61.72 0 0 0 6.894-.066c2.347-.15 4.693-.3 7.034-.565a91.99 91.99 0 0 0 13.996-2.692c2.174-.596 4.31-1.308 6.454-2.007 2.039-.664 4.078-1.329 6.098-2.056 3.087-1.113 6.15-2.378 9.01-4.005.109-.267.199-.537.237-.79.103-.685-.096-1.373-.269-2.02a369.985 369.985 0 0 0-1.663-6.071c-2.072-7.274-4.298-14.501-6.347-21.781-.966-3.43-2.028-6.83-3.257-10.169a58.55 58.55 0 0 1-1.483-4.565 24.016 24.016 0 0 1-.468-2.01c-.691.304-1.418.525-2.155.521 1.383-.464 2.639-1.202 3.821-2.054 2.774-1.795 5.45-3.855 7.703-6.257 2.258-2.406 3.975-5.24 5.301-8.205 1.315-2.941 2.255-6.01 3.1-9.09.902-3.291 1.735-6.597 2.581-9.9 3.429-13.388 6.967-26.83 13.778-39.148 3.181-5.752 6.729-11.246 11.314-16.078a22.574 22.574 0 0 0 1.9-2.303c.703-.97 1.422-2.063 1.622-3.251.324-1.928-1.3-3.165-3.061-3.434Z" fill="#FAD2C3"/><path d="M210.501 321.863c-1.551 1.212-3.065 2.49-4.384 3.933-.966 1.583-1.739 3.269-2.253 5.045-.629 2.174-.871 4.407-.842 6.631.722-4.433 3.135-8.466 6.127-11.956 3.53-4.12 7.753-7.593 11.702-11.314 5.321-5.013 9.865-10.727 14.51-16.316 4.489-5.401 9.093-10.917 14.801-15.159a40.284 40.284 0 0 1 2.286-1.576c-2.281.741-4.362 1.889-6.287 3.32-5.399 4.013-9.05 9.797-13.109 14.979a135.831 135.831 0 0 1-12.169 13.567.625.625 0 0 1-.349.341 132.79 132.79 0 0 1-2.614 2.467c-2.357 2.158-4.899 4.07-7.419 6.038Zm-38.278 112.45c-.681-3.988-1.508-7.945-2.217-11.926a126.697 126.697 0 0 1-.927-5.921c-.25-1.939-.427-3.888-.722-5.82-.604-3.953-1.443-7.859-2.112-11.8-.461-2.718-.839-5.459-.998-8.221a21.647 21.647 0 0 1-2.592-.636 38.99 38.99 0 0 1 .667 3.612c.28 2.136.443 4.283.594 6.436a539.06 539.06 0 0 0 1.07 12.969c.367 3.884.692 7.774 1.108 11.651.216 2.015.454 4.027.729 6.032.226 1.648.304 3.457.981 4.987.208.471.474.893.782 1.276.916.187 1.86.289 2.767.379.458.046.915.094 1.373.142-.156-1.056-.323-2.11-.503-3.16Zm-75.44-187.475c1.532-1.514 3.651-2.501 5.79-2.777 2.079-.268 4.032.139 5.771 1.175.036.022.07.046.105.068-1.421-1.468-3.191-2.677-5.375-2.772-2.452-.107-4.977 1.216-6.143 3.367a6.026 6.026 0 0 0-.52 1.335c.119-.135.242-.268.372-.396Zm27.136-30.218a14.96 14.96 0 0 1 2.679-2.731 4.986 4.986 0 0 0-1.238.237 7.753 7.753 0 0 0-2.436 1.326c-1.049 1.317-1.728 2.947-2.069 4.521a17.27 17.27 0 0 0-.383 3.349c.784-2.387 1.907-4.692 3.447-6.702Zm28.266 83.104c-2.082 1.216-4.098 2.552-5.977 4.053a33.757 33.757 0 0 0-2.08 1.809c1.842-.2 3.668-.634 5.437-1.201 4.342-1.396 8.429-3.553 12.332-5.873 3.404-2.024 6.683-4.23 9.977-6.417-2.011.358-3.998.881-5.946 1.502a68.688 68.688 0 0 0-13.743 6.127Z" fill="#FAD2C3"/><path opacity=".5" d="M160.277 297.055a315.053 315.053 0 0 1 7.029-2.236c2.391-.735 4.788-1.454 7.179-2.188 1.838-.563 3.671-1.128 5.525-1.633 3.857-1.05 7.744-1.999 11.544-3.254 3.341-1.103 6.704-2.441 9.6-4.443-.26.007-.52.008-.779.021-4.296.208-8.57 1.117-12.728 2.267-4.316 1.194-8.543 2.686-12.738 4.251-1.959.73-3.907 1.487-5.865 2.218-2.303.861-4.597 1.715-6.855 2.687-2.275.978-4.52 2.024-6.74 3.116-1.097.54-2.176 1.117-3.277 1.649-.805.389-1.619.757-2.421 1.15l-.38.188c1.443-.514 2.898-.999 4.337-1.495 2.194-.757 4.367-1.564 6.569-2.298Zm4.079 33.415c-1.6-1.982-3.197-3.977-4.945-5.835-2.927-3.11-6.229-5.83-9.665-8.387l.01.014c.85 1.245 1.552 2.579 2.357 3.852.888 1.403 1.948 2.72 2.977 4.022a66.03 66.03 0 0 0 3.506 4.1c2.298 2.463 4.843 4.7 7.32 6.987 1.751 1.618 3.516 3.277 5.168 5.032a52.837 52.837 0 0 0-1.894-3.171c-1.48-2.295-3.118-4.487-4.834-6.614Z" fill="#F2C4B3"/><path d="M199.198 283.384c-8.578 1.183-16.964 3.476-25.188 6.239-3.927 1.319-7.811 2.757-11.67 4.261-3.461 1.349-6.893 2.778-10.173 4.523-1.659.882-4.235 2.54-5.713 3.686-1.269.984-2.458 2.06-3.357 3.371-.233.339.145.483.417.267 1.315-1.05 2.579-2.167 3.954-3.15a40.4 40.4 0 0 1 4.498-2.761c3.119-1.661 6.372-3.041 9.667-4.322 7.671-2.982 15.428-5.75 23.353-7.976a340.933 340.933 0 0 1 14.119-3.634c.263-.063.483-.558.093-.504Zm-35.18 45.6c-1.296-1.653-2.757-3.167-4.217-4.68-1.425-1.477-2.894-2.913-4.464-4.243-1.709-1.448-3.541-2.77-5.558-3.796-.153-.078-.382.211-.213.307 3.571 2.017 6.428 4.971 9.159 7.935 1.366 1.481 2.744 2.963 3.977 4.555 1.307 1.687 2.44 3.486 3.544 5.307 1.221 2.014 2.281 4.144 3.733 6.008.241.311.818-.25.685-.553-.869-1.981-2.008-3.831-3.122-5.68a51.335 51.335 0 0 0-3.524-5.16Z" fill="#D08973"/><path opacity=".5" d="M262.113 279.918c-1.527-1.283-3.901-1.156-5.8-.88a21.994 21.994 0 0 0-3.432.801c.11.067.216.141.31.232.847.829.473 2.208.078 3.19-.579 1.438-1.466 2.768-2.38 4.026-.788 1.083-1.649 2.108-2.486 3.154-1.84 2.3-3.621 4.649-5.3 7.064-3.27 4.701-6.1 9.644-8.287 14.899-2.049 4.925-3.608 10.018-4.973 15.143-1.376 5.164-2.56 10.371-3.859 15.553-1.294 5.158-2.702 10.3-4.533 15.317-1.71 4.686-3.753 9.345-6.42 13.612-2.563 4.101-5.837 7.855-10.037 10.409-2.174 1.323-4.543 2.187-6.947 2.977-2.446.804-4.935 1.487-7.464 1.945a35.337 35.337 0 0 1-5.466.574c-1.994.33-4.001.556-6.019.574-6.456.054-12.63-1.957-17.679-5.758-5.134-3.863-8.945-9.185-11.853-14.822-1.952-3.785-3.528-7.77-5.136-11.713-1.859-4.558-3.643-9.147-5.422-13.737-3.526-9.103-7.031-18.221-11.031-27.126a.229.229 0 0 1-.003-.188 731.357 731.357 0 0 0-4.057-8.871c-3.024-6.49-6.233-12.882-9.487-19.26a774.115 774.115 0 0 1-4.833-9.588c-1.419-2.879-2.714-5.822-4.149-8.691-2.182-4.361-4.84-8.475-6.61-13.039-1.323-3.419-2.263-7.38-1.1-10.97a7.487 7.487 0 0 0-1.853 2.561c-1.21 2.769-.52 6.087.331 8.793 1.069 3.399 2.597 6.656 3.849 9.989 1.326 3.529 2.62 7.072 4.076 10.55 1.465 3.501 3.107 6.928 4.734 10.355 6.479 13.657 13.416 27.075 18.743 41.251 2.633 7.005 5.018 14.101 7.399 21.198 2.173 6.479 4.384 12.968 7.365 19.12 2.834 5.847 6.461 11.59 11.194 16.115 2.351 2.249 5.068 4.007 8.088 5.094.036.536.067 1.073.098 1.61 1.628.462 3.338.685 5.035.775 2.9.154 5.816-.054 8.719-.25 2.849-.192 5.716-.401 8.561-.221 2.599.164 5.192.66 7.305 2.18 2.022 1.455 3.431 3.569 4.465 5.79 1.124 2.415 1.853 4.999 2.507 7.58.315 1.244.609 2.493.923 3.738.416 1.653.898 3.29 1.344 4.935.952 3.514 1.898 7.03 2.931 10.52a156.02 156.02 0 0 0 2.56 7.958c1.865-.528 3.71-1.125 5.557-1.718 2.031-.651 4.062-1.302 6.073-2.016 3.074-1.091 6.123-2.336 8.969-3.945.108-.267.198-.537.234-.79.008-.055.003-.109.007-.165.373.124.74.262 1.091.429.125-.442.164-.893.113-1.349-.082-.724-.335-1.422-.548-2.112-.285-.92-.569-1.842-.851-2.762-1.111-3.634-2.073-7.321-3.119-10.976-1.065-3.719-2.222-7.411-3.278-11.132-1.021-3.602-1.981-7.222-3.296-10.728-.685-1.828-1.463-3.618-2.112-5.46a64.904 64.904 0 0 1-.953-2.854c.201-.101.401-.206.594-.309 1.3-.697 2.547-1.511 3.76-2.349 2.954-2.043 5.583-4.466 7.649-7.387 3.911-5.528 5.57-12.161 7.225-18.542 3.582-13.814 6.549-27.918 12.859-40.928 1.588-3.277 3.351-6.503 5.325-9.582 1.806-2.818 3.77-5.616 6.072-8.077 1.738-1.857 3.59-3.695 4.837-5.915 1.046-1.856 1.602-4.281-.207-5.801Z" fill="#F2C4B3"/><path opacity=".5" d="M161.233 194.004a17.332 17.332 0 0 1 2.297 3.237c2.097 3.858 3.31 8.109 4.29 12.371.867 3.769 1.616 7.57 2.407 11.357 1.682 8.047 3.205 16.128 4.944 24.162 1.547 7.144 3.188 14.319 5.428 21.272 1.024 3.178 2.123 6.338 3.559 9.352.807 1.695 1.713 3.377 2.9 4.842.84 1.037 1.97 2.198 3.404 2.362 1.652.188 3.165-1.164 3.754-2.588 1.001-2.42.665-5.263.418-7.759-.177-1.77-.283-3.549-.461-5.32a176.133 176.133 0 0 0-.736-6.158c-.557-4.071-1.271-8.111-1.697-12.202-.429-4.125-.707-8.269-1.077-12.401-.37-4.13-.916-8.212-1.609-12.292a186.02 186.02 0 0 0-.873-4.759c.044 1.177.09 2.355.14 3.532.18 4.137.34 8.275.53 12.411.19 4.166.517 8.32.797 12.478.533 7.9 1.297 15.78 2.435 23.6.177 1.216.337 2.434.473 3.656.208 1.875.461 3.823.339 5.72-.018.288-.049.586-.144.861l-.005.004c-.237.011-.462.278-.459.487-1.259-.386-2.051-2.614-2.404-3.536-.672-1.757-1.105-3.593-1.594-5.408-2.028-7.53-3.945-15.089-5.933-22.629-2.004-7.605-4.182-15.16-6.158-22.773-1.917-7.38-3.6-14.825-5.79-22.128-.861-2.871-1.699-5.755-2.99-8.466-.619-1.297-1.343-2.546-2.22-3.687-.818-1.063-1.806-2.154-3.071-2.71-1.497-.657-3.057-.38-4.42.362 1.452.489 2.72 1.845 3.526 2.75Zm-.517 51.72c1.68 7.779 3.229 15.586 4.884 23.37.403 1.898.785 3.804 1.264 5.684.471 1.849 1.004 3.681 1.4 5.549.337 1.583.579 3.199.846 4.788.109.649.166 1.305.173 1.965.004.377 0 .858-.104 1.294.536-1.035.841-2.221 1.007-3.246.583-3.587-.151-7.323-.868-10.804-1.56-7.576-3.07-15.172-4.757-22.721a643.07 643.07 0 0 0-5.608-23.102 876.76 876.76 0 0 0-2.901-10.713c-.935-3.384-1.841-6.781-2.483-10.238a51.633 51.633 0 0 1-.236-1.362c.123 1.655.233 3.31.406 4.958.411 3.898 1.202 7.689 1.967 11.52 1.544 7.712 3.35 15.371 5.01 23.058Zm-33.103-30.45c2.396 1.548 4.109 3.87 5.495 6.3 1.589 2.785 2.743 5.799 3.782 8.828 1.028 2.999 1.984 6.026 2.996 9.031 2.327 6.911 4.414 13.904 6.843 20.779 2.438 6.897 5.231 13.692 8.901 20.025 1.369 2.364 2.832 4.752 4.534 6.898 1.404 1.771 3.564 4.068 6.163 3.521 1.15-.243 1.979-.968 2.578-1.894a.467.467 0 0 0-.166.155c-.707 1.083-2.15-.332-2.726-.953-1.451-1.564-2.526-3.427-3.553-5.278-2.313-4.169-4.421-8.346-6.172-12.796-1.56-3.962-2.938-7.994-4.441-11.979-1.55-4.113-3.206-8.187-4.874-12.252-1.661-4.047-3.333-8.091-5.089-12.096-1.681-3.838-3.163-7.791-5.107-11.507-.923-1.762-2-3.443-3.249-4.994-.886-1.098-1.878-2.131-3.105-2.856-1.585-.937-3.488-1.084-5.208-.545.035-.077.003-.176-.108-.13a9.907 9.907 0 0 0-.894.422c1.228.087 2.403.677 3.4 1.321Zm-22.046 28.371c2.349 1.856 4.017 4.478 5.453 7.049 1.792 3.211 3.178 6.625 4.594 10.015 1.302 3.116 2.775 6.141 4.182 9.209 2.548 5.556 4.889 11.216 7.816 16.587 2.885 5.296 6.384 10.463 11.238 14.194.92.707 1.831 1.435 2.862 1.987.985.528 2.42 1.067 3.371.113.73-.732.657-1.974.571-2.936a25.053 25.053 0 0 0-.508-3.239 80.065 80.065 0 0 0-3.003-10.21c-1.352-3.668-2.865-7.273-4.183-10.953-1.321-3.694-2.497-7.439-3.703-11.173-1.201-3.714-2.479-7.399-3.778-11.079-1.321-3.744-2.654-7.484-3.952-11.237-1.094-3.164-2.089-6.367-3.212-9.519-1.376-3.859-2.641-7.799-3.268-11.87l-.031-.212c-.322 1.395-.438 2.831-.403 4.252.075 3.022.904 6.034 1.703 8.916.938 3.38 2.082 6.696 3.19 10.02 2.535 7.606 5.154 15.163 8.023 22.652 2.225 5.81 4.446 11.623 6.538 17.484 1.394 3.905 2.952 7.76 4.274 11.691.298.886.587 1.777.872 2.668.219.685.503 1.404.518 2.136.006.288-.021.586-.066.88a.304.304 0 0 1 .147.082c.103.111.08.311-.042.407-.14.109-.301.188-.471.23-.028-.055-.059-.109-.086-.165-.542-.15-1.111-.592-1.417-.834-2.018-1.605-3.306-3.868-4.657-6.002-7.95-12.569-15.595-25.443-22.196-38.78-2.23-4.506-4.345-9.978-8.695-12.924-1.5-1.016-3.269-1.411-4.988-1.261 1.183.447 2.303 1.029 3.307 1.822Zm85.215-41.685c1.601-.741 3.482-.411 4.86.537 2.767 1.905 3.484 5.665 4.273 8.682 2.738 10.479 2.792 21.422 3.718 32.187.932 10.837 3.418 21.4 5.673 31.99 2.244 10.54 4.297 21.178 4.538 32.029.085 3.769-1.484 7.1-3.482 10.305-1.864 2.99-3.949 5.936-4.837 9.33 1.356-1.624 2.835-3.152 4.337-4.649 3.631-3.616 7.446-7.103 10.549-11.176l.001-.006c-.498-1.401-.885-2.827-1.217-4.297-.445-1.975-.894-3.949-1.32-5.929-.848-3.94-1.695-7.881-2.437-11.844-1.527-8.162-2.656-16.403-3.651-24.656-.499-4.147-1.004-8.287-1.597-12.419-.589-4.093-1.132-8.194-1.532-12.314-.401-4.126-.649-8.266-1.136-12.383-.483-4.099-1.111-8.185-2.006-12.207-1.02-4.581-2.225-9.808-5.825-13.139-1.47-1.36-3.237-2.146-5.336-1.72-1.269.257-2.359.87-3.436 1.563-.104.067-.202.136-.301.205.056-.028.107-.063.164-.089Z" fill="#F2C4B3"/><path d="M66.5 161.775s2.52 5.232 4.089 5.318c1.57.086 2.734-5.156 2.808-6.002.075-.845-6.896.684-6.896.684Zm26.86 15.593s2.519 5.232 4.088 5.318c1.57.086 2.734-5.157 2.809-6.002.075-.845-6.897.684-6.897.684Zm18.426-8.213s2.518 5.232 4.088 5.318c1.57.086 2.734-5.156 2.809-6.002.074-.845-6.897.684-6.897.684Zm15.797-28.781s2.518 5.232 4.088 5.318c1.57.086 2.734-5.156 2.809-6.001.075-.845-6.897.683-6.897.683Z" fill="#263238"/><path d="M92.67-38.421s8.92 71.626 9.775 76.809c.856 5.183 9.149 36.152 12.469 40.2 3.319 4.047 13.879 24.244 17.7 31.529 3.821 7.285 4.14 18.531 2.623 26.781-1.517 8.249-6.405 4.109-6.405 4.109l-.366 4.148c-.169 1.915.092 1.93-2.704 9.783-2.796 7.853-5.104 13.168-8.959 15.184-3.856 2.016-10.487-3.191-10.487-3.191s-3.403 8.778-8.07 11.066c-4.668 2.288-13.22-4.958-15.897-7.363-2.677-2.404-5.834-11.254-5.834-11.254s-4.677 5.448-9.286 3.217c-4.609-2.231-8.755-14.216-10.586-20.683-1.83-6.468 5.758-15.307 8.072-27.885 2.313-12.578-.618-33.783-.618-33.783s-1.851-17.95-3.024-22.511-3.75-2.148-3.109-12.375c.642-10.228-14.564-59.355-15.85-62.64" fill="#D16958"/><path d="M92.67-38.421s8.92 71.626 9.775 76.809c.856 5.183 9.149 36.152 12.469 40.2 3.319 4.047 13.879 24.244 17.7 31.529 3.821 7.285 4.14 18.531 2.623 26.781-1.517 8.249-6.405 4.109-6.405 4.109l-.366 4.148c-.169 1.915.092 1.93-2.704 9.783-2.796 7.853-5.104 13.168-8.959 15.184-3.856 2.016-10.487-3.191-10.487-3.191s-3.403 8.778-8.07 11.066c-4.668 2.288-13.22-4.958-15.897-7.363-2.677-2.404-5.834-11.254-5.834-11.254s-4.677 5.448-9.286 3.217c-4.609-2.231-8.755-14.216-10.586-20.683-1.83-6.468 5.758-15.307 8.072-27.885 2.313-12.578-.618-33.783-.618-33.783s-1.851-17.95-3.024-22.511-3.75-2.148-3.109-12.375c.642-10.228-14.564-59.355-15.85-62.64" stroke="#263238" stroke-miterlimit="10"/><path d="M64.809 63.728s-.137 4.593.761 6.619c.899 2.025 2.794-1.149 2.794-1.149l1.499 4.363 1.81-1.761 2.215 5.324.336-3.806m22.643-53.555 2.68 10.911-2.427-3.456 1.126 5.305-2.014-.4 1.053 6.127-1.787-.386m-17.637 85.395a72.09 72.09 0 0 1 .104-3.587m-1.131 40.306s4.71-10.03 2.555-19.506c-1.048-4.609-1.414-9.632-1.514-13.579m29.051 34.612a50.78 50.78 0 0 0-.604-8.285c-1.343-8.741-5.782-21.506-6.497-25.397-.715-3.892-2.388-14.899-2.388-14.899m8.893 55.042s.362-1.531.502-4.23m13.53-50.778c-1.818-3.303-3.437-5.49-4.112-7.627l-1.23-3.897m13.502 40.448s-.718-6.769-3.726-17.509c-1.09-3.891-2.362-6.909-3.601-9.361" stroke="#263238" stroke-miterlimit="10"/></g><defs><clipPath id="clip0_1048_7422"><path fill="#fff" d="M0 0h337v420H0z"/></clipPath></defs></svg>