<svg width="764" height="244" viewBox="0 0 764 244" fill="none" xmlns="http://www.w3.org/2000/svg"><path d="M64.52 3.716c18.73 2.88 37.728 8.22 55.219 15.52l6.473 2.836c2.101.998 4.169 2.058 6.305 3.14a141.997 141.997 0 0 1 11.753 6.53c7.135 4.378 13.646 8.995 19.423 13.773 22.501 18.707 33.783 36.651 56.882 51.918 10.335 7.472 23.687 13.836 38.185 18.201 14.184 3.661 28.303 4.562 39.466 2.519 12.251-2.19 23.658-5.079 34.096-8.634 11.293-3.994 24.5-6.659 39.151-7.899 8.651-.554 18.335.204 28.224 2.207 9.889 2.004 19.686 5.194 28.553 9.296 8.337 3.906 15.816 8.389 22.053 13.22 5.643 4.328 10.67 8.792 15.013 13.328 8.696 8.742 14.837 16.874 23.103 24.642 7.891 7.71 17.265 15.214 27.898 22.333 9.985 6.805 21.767 12.921 34.62 17.97 12.34 4.696 25.5 8.003 38.305 9.624 25.592 3.383 48.772 2.671 72.153 3.937 11.634.487 23.768 1.905 36.052 4.212 12.003 2.263 23.939 6.208 34.451 11.388 9.356 4.536 17.17 9.967 22.613 15.716 4.321 4.782 7.121 9.621 8.248 14.251 1.619 7.049 1.106 13.727-1.521 19.784-1.559 3.775-3.687 7.369-6.369 10.755-1.89 2.281-3.216 3.384-3.606 3.216-.39-.168 2.306-5.386 4.864-15.482 1.56-6.072 1.254-12.624-.908-19.451-1.467-4.224-4.388-8.586-8.609-12.859-4.857-4.808-11.662-9.301-19.688-12.997-8.889-4.198-18.888-7.327-28.844-9.024-11.098-1.912-22.01-3.001-32.413-3.236-11.014-.404-22.361-.344-34.403-.627-12.664-.081-25.816-.901-39.264-2.45-3.635-.543-7.438-1.071-11.056-1.645-3.619-.573-7.594-1.52-11.468-2.36a206.126 206.126 0 0 1-23.323-7.087c-15.172-5.746-29.159-12.779-41.091-20.661-11.834-7.755-22.313-15.947-31.19-24.382-4.473-4.143-8.61-8.461-12.441-12.603-3.831-4.143-7.611-8.232-11.677-12.238-7.055-7.73-17.351-15.072-29.781-21.238-5.997-2.714-12.6-4.796-19.23-6.065-6.681-1.269-13.188-1.7-18.974-1.254-12.726 1.304-24.152 3.838-33.885 7.515-11.044 3.873-23.158 7.018-36.201 9.4-7.485 1.262-15.856 1.698-24.78 1.29-9.526-.41-19.634-1.982-29.654-4.611-10.092-2.731-19.873-6.366-28.806-10.706-8.393-4.048-16.179-8.496-23.168-13.235-12.871-8.853-23.961-18.208-32.939-27.785-8.105-8.644-17.088-17.206-26.893-25.635-4.715-3.895-10.025-7.658-15.841-11.228a102.954 102.954 0 0 0-8.953-4.9c-1.577-.785-3.069-1.578-4.662-2.332l-4.947-2.104c-13.48-5.558-28.094-9.59-42.458-11.713-28.047-4.41-53.881-3.131-72.417 3.582-16.417 6.783-27.124 16.784-31.036 28.991-3.87 11.434-4.956 23.647-3.235 36.402 2.425 21.381 8.652 43.421 18.604 65.845 7.254 16.382 16.348 32.916 27.228 49.506 12.368 18.407 26.392 36.828 42.012 55.186 4.767 4.904 8.415 9.887 10.836 14.802 6.351.351 11.664-.726 14.804-3.003 4.708-2.591 9.314-5.433 13.397-8.055 8.302-5.344-56.195 4.709-50.64.276 11.095-8.833 9.77 14.707 19.19 5.211-12.19 4.412 2.895 1.015 0 0-4.754 6.165-8.656-9.324-15.506-4.049-3.843 3.064 15.224.903 10.232 4.011-2.824 1.762 34.524 14.719 30.502 15.739-5.263 1.245-11.841 1.349-18.86.297a97.726 97.726 0 0 1-20.088-5.669 288.797 288.797 0 0 1-14.807-6.373A745.024 745.024 0 0 1 3.373 256.3c-14.047-7.053 39.415 10.105 26.752 2.326 69.692 25.86-21.687 1.597-19.883 1.088 1.802-.508 16.691-16.256 39.494-4.406C61.18 261.23-3.11 243.222 12.6 250.585a966.198 966.198 0 0 0 24.876 11.289c2.118.968 4.202 1.852 6.489 2.805-2.5-2.178-5.323-4.935-9.506-8.728-18.827-18.739-34.89-37.733-47.986-56.736-28.485-40.738-45.203-81.106-49.46-119.424-1.819-13.63-.58-26.664 3.69-38.844 4.61-13.927 17.036-25.294 36.004-32.938C-.604-.134 31.054-1.559 65.315 4.021" fill="#1C49C2"/></svg>