<svg width="474" height="363" viewBox="0 0 474 363" fill="none" xmlns="http://www.w3.org/2000/svg"><g clip-path="url(#clip0_864_17184)"><path d="M473.595 337.387H433.66v.259h39.935v-.259Zm-143.092 2.804h-10.482v.259h10.482v-.259Zm101.949-12.398h-23.14v.258h23.14v-.258Zm-385.974 1.736H-5.6v.258h52.078v-.258Zm18.371 0h-7.636v.258h7.636v-.258Zm137.76 4.363H89.664v.258H202.61v-.258Zm15.981-59.215H-14.23c-3.793 0-6.881-2.646-6.881-5.897V-11.668c0-3.252 3.088-5.898 6.882-5.898H218.59c3.793 0 6.881 2.646 6.881 5.898V268.78c0 3.251-3.088 5.897-6.881 5.897ZM-14.23-17.306c-3.628 0-6.58 2.529-6.58 5.639v280.448c0 3.11 2.952 5.639 6.58 5.639h232.82c3.628 0 6.579-2.529 6.579-5.639v-280.45c0-3.108-2.951-5.638-6.579-5.638H-14.23Zm493.61 291.983H246.561c-3.794 0-6.881-2.646-6.881-5.897V-11.668c0-3.252 3.087-5.898 6.881-5.898H479.38c3.795 0 6.882 2.646 6.882 5.898V268.78c0 3.251-3.088 5.897-6.882 5.897ZM246.561-17.306c-3.628 0-6.58 2.529-6.58 5.639v280.448c0 3.11 2.952 5.639 6.58 5.639H479.38c3.629 0 6.58-2.529 6.58-5.639v-280.45c0-3.108-2.951-5.638-6.58-5.638H246.561ZM534 320.756H-68.85v.259H534v-.259Z" fill="#EBEBEB"/><path d="m420.485 130.194-9.565-89.206-139.211 10.961 9.565 89.207 139.211-10.962Z" fill="#A9BFF8" fill-opacity=".6"/><path opacity=".9" d="m403.596 48.534-123.084 9.692 8.083 75.387 123.084-9.691-8.083-75.388Z" fill="#FAFAFA"/><path d="m346.991 62.488.732 6.83-47.813 3.764 2.415 22.527 2.541 23.689 23.325-1.837 37.447-2.949 1.727-.136 25.918-2.041-.41-3.825-6.851.54c.104-2.714 2.36-5.095 5.537-5.704l.745-.143-1.561-14.557-4.619.364-3.148-29.356-35.985 2.834Zm-40.556 55.194-2.222-20.728 5.35-.422c1.236 3.351 5.053 5.576 9.18 5.25l.863-.068-.635-5.922 5.112-.404 2.222 20.729-19.87 1.565Zm21.598-1.7-2.381-22.21-8.567.675.631 5.876c-3.169-.089-5.948-2.024-6.658-4.75l-.166-.64-6.838.54-2.257-21.047 46.085-3.629 2.415 22.526 3.933-.31 6.195-.488 2.831-.223 2.224 20.729-37.447 2.951Zm26.038-24.447-.48-4.478c2.881.078 5.412 1.68 6.391 4.013l-5.911.465Zm35.103-1.271 1.266 11.804c-3.905 1.06-6.499 4.329-6.12 7.864l.079.741 6.906-.544.092.864-24.188 1.905-2.224-20.728 21.299-1.677 2.89-.23Zm-7.767-28.993 2.989 27.875-19.571 1.541-1.728.137-1.326.104c-1.203-3.401-5.03-5.659-9.208-5.33l-.863.068.644 6.005-.478.037-2.415-22.526-.574-5.349 32.53-2.562Z" fill="#E0E0E0"/><path d="m151.952 137.116 20.806-89.631L32.885 23.642l-20.806 89.631 139.873 23.843Z" fill="#92AEF4" fill-opacity=".4"/><path opacity=".9" d="M39.382 31.964 21.799 107.71l123.67 21.081 17.582-75.747-123.67-21.081Z" fill="#FAFAFA"/><path d="m102.959 52.64-1.593 6.86-48.04-8.187-5.253 22.633-5.524 23.802 23.435 3.995 37.624 6.413 1.736.295 26.039 4.439.893-3.843-6.884-1.173c1.019-2.629 4.031-4.397 7.344-4.204l.777.044 3.395-14.626-4.641-.791 6.846-29.496-36.154-6.162Zm-58.33 43.916 4.836-20.826 5.375.916c.076 3.584 3.056 6.708 7.204 7.414l.868.148 1.382-5.95 5.136.875-4.835 20.827-19.965-3.404Zm21.7 3.699 5.18-22.314-8.608-1.468-1.37 5.904c-3.07-.874-5.135-3.456-4.907-6.3l.053-.665-6.869-1.17 4.909-21.146 46.303 7.893-5.253 22.633 3.951.674 6.224 1.061 2.844.485-4.835 20.826-37.622-6.413Zm33.735-17.447 1.044-4.5c2.792.793 4.724 2.987 4.894 5.513l-5.938-1.013Zm34.763 7.472-2.753 11.861c-4.177.067-7.82 2.621-8.645 6.172l-.172.744 6.938 1.183-.202.868-24.303-4.143 4.835-20.827 21.399 3.647 2.903.495Zm2.206-30.286L130.532 88l-19.663-3.352-1.737-.295-1.332-.228c-.027-3.625-3.006-6.784-7.204-7.499l-.868-.147-1.4 6.033-.479-.082 5.254-22.634 1.248-5.373 32.682 5.57Z" fill="#E0E0E0"/><path d="M291.797 36.246h-11.789c-6.844 0-12.412-4.771-12.412-10.637V15.508c0-5.866 5.568-10.637 12.412-10.637h11.789c6.844 0 12.412 4.771 12.412 10.637v10.101c0 5.866-5.568 10.637-12.412 10.637ZM280.008 7.97c-4.849 0-8.795 3.38-8.795 7.538v10.101c0 4.156 3.946 7.538 8.795 7.538h11.789c4.849 0 8.795-3.381 8.795-7.538V15.508c0-4.156-3.945-7.538-8.795-7.538h-11.789Z" fill="#F0F0F0"/><path d="m280.998 27.119-17.189-14.73 5.114-4.384 12.075 10.347L302.88-.4l5.115 4.384-26.997 23.135Z" fill="#A9BFF8" fill-opacity=".6"/><path d="M38.65 171.532h-9.084c-5.275 0-9.566-3.677-9.566-8.197v-7.785c0-4.521 4.291-8.198 9.566-8.198h9.085c5.275 0 9.566 3.677 9.566 8.198v7.785c-.001 4.521-4.291 8.197-9.566 8.197Zm-9.084-21.789c-3.738 0-6.778 2.606-6.778 5.809v7.785c0 3.203 3.04 5.809 6.778 5.809h9.085c3.738 0 6.778-2.606 6.778-5.809v-7.785c0-3.203-3.04-5.809-6.778-5.809h-9.085Z" fill="#F0F0F0"/><path d="m30.329 164.499-13.247-11.351 3.943-3.378 9.304 7.973 16.863-14.451 3.941 3.379-20.804 17.828Z" fill="#A9BFF8" fill-opacity=".6"/><path d="M450.803 234.933h-9.085c-5.275 0-9.566-3.678-9.566-8.198v-7.785c0-4.521 4.291-8.198 9.566-8.198h9.085c5.275 0 9.566 3.677 9.566 8.198v7.785c0 4.52-4.291 8.198-9.566 8.198Zm-9.085-21.791c-3.737 0-6.778 2.606-6.778 5.809v7.785c0 3.203 3.041 5.809 6.778 5.809h9.085c3.738 0 6.779-2.606 6.779-5.809v-7.785c0-3.203-3.041-5.809-6.779-5.809h-9.085Z" fill="#F0F0F0"/><path d="m442.482 227.898-13.246-11.351 3.942-3.378 9.304 7.973 16.863-14.45 3.943 3.378-20.806 17.828Z" fill="#A9BFF8" fill-opacity=".6"/><path d="M237 363.445c131.004 0 237.203-5.238 237.203-11.699 0-6.461-106.199-11.699-237.203-11.699-131.004 0-237.203 5.238-237.203 11.699 0 6.461 106.199 11.699 237.203 11.699Z" fill="#757A7C" fill-opacity=".3"/><path d="M356.211 132.318c1.763-4.09 3.954-7.787 6.317-11.374 1.172-1.796 2.428-3.537 3.708-5.262 1.293-1.739 2.567-3.397 4.042-5.136 1.874-2.203 5.498-2.789 8.203-1.28 2.772 1.545 3.536 4.697 1.705 7.037l-.052.066a251.217 251.217 0 0 0-3.63 4.747 209.924 209.924 0 0 0-3.479 4.876c-2.234 3.264-4.356 6.581-5.963 9.842a28.098 28.098 0 0 0-1.26 2.948h-11.597c.42-2.407 1.177-4.472 2.006-6.464Z" fill="#B55B52"/><path d="M379.923 99.684c-11.692 2.186-21.593 23.477-21.593 23.477l13.506 6.467s5.67-4.836 9.747-12.175c2.938-5.285 8.773-19.72-1.66-17.77Z" fill="#407BFF"/><path opacity=".2" d="M384.227 111.646c-.84 2.269-1.847 4.375-2.643 5.808-4.078 7.339-9.747 12.175-9.747 12.175l-2.962-1.418c4.629-7.111 4.585-16.192 4.585-16.192l10.081-1.473.686 1.1Z" fill="#000"/><path d="m365.384 200.114-.105-.015c-1.852-.273-3.093-1.763-2.769-3.328l3.908-18.902c.267-1.288 1.719-2.15 3.244-1.925l.699.104c1.113.164 1.858 1.06 1.664 2l-4.272 20.662c-.195.939-1.255 1.569-2.369 1.404Z" fill="#263238"/><path opacity=".1" d="m365.384 200.114-.105-.015c-1.852-.273-3.093-1.763-2.769-3.328l3.908-18.902c.267-1.288 1.719-2.15 3.244-1.925l.699.104c1.113.164 1.858 1.06 1.664 2l-4.272 20.662c-.195.939-1.255 1.569-2.369 1.404Z" fill="#fff"/><path d="m370.71 344.447-9.118-.092-.762-17.913 12.058.161-2.178 17.844Z" fill="#B55B52"/><path opacity=".2" d="m360.832 326.45.443 10.47 10.344.117 1.274-10.428-12.061-.159Z" fill="#000"/><path d="m361.397 341.735 9.952.132c.373.005.664.229.704.538l.85 6.876c.088.712-.642 1.377-1.501 1.353-3.582-.099-8.746-.346-13.258-.406-5.277-.07-4.763.113-10.95.031-3.741-.05-4.335-3.263-2.729-3.532 7.312-1.224 8.049-1.288 14.655-4.42.716-.341 1.49-.582 2.277-.572Z" fill="#263238"/><path d="M359.741 342.422a.197.197 0 0 0 .147-.145c.014-.076-.03-.152-.11-.189-.411-.187-4.046-1.806-5.166-1.298-.216.098-.343.264-.367.481-.04.364.09.664.386.894.985.761 3.606.493 5.083.264l.027-.007Zm-4.847-1.34c.692-.192 2.668.475 4.102 1.077-2.021.256-3.522.162-4.075-.266a.612.612 0 0 1-.249-.591.219.219 0 0 1 .141-.193c.026-.009.053-.019.081-.027Z" fill="#407BFF"/><path d="M359.741 342.422a.197.197 0 0 0 .056-.024.173.173 0 0 0 .093-.164c-.008-.088-.208-2.168-1.352-2.988a1.77 1.77 0 0 0-1.191-.329c-.596.044-.773.296-.816.501-.186.87 1.96 2.565 3.052 2.997a.25.25 0 0 0 .158.007Zm-2.581-3.106c.056-.015.128-.028.221-.035.328-.024.614.056.876.244.751.539 1.049 1.785 1.153 2.393-1.113-.586-2.567-1.916-2.456-2.437.008-.032.026-.115.206-.165Z" fill="#407BFF"/><path d="M381.1 259.522c13.574-39.351 26.225-66.682 23.244-86.202l-32.198.324s-17.047 63.785-15.78 86.867c1.315 23.999 2.994 69.604 2.994 69.604l14.681.177s10.88-43.963 7.059-70.77Z" fill="#263238"/><path opacity=".2" d="M386.559 243.662c7.193-20.064 13.642-34.01 17.358-45.699-21.331 6.348-20.909 28.324-17.358 45.699Z" fill="#000"/><path d="m357.289 327.359.892 5.318 16.149.244.961-5.026-18.002-.536Z" fill="#263238"/><path opacity=".3" d="m357.289 327.359.892 5.318 16.149.244.961-5.026-18.002-.536Z" fill="#000"/><path d="m432.969 344.447-9.138-.094-4.751-17.911 11.747.156 2.142 17.849Z" fill="#B55B52"/><path opacity=".2" d="m419.084 326.45 2.742 10.341 10.243.118-1.234-10.304-11.751-.155Z" fill="#000"/><path d="m423.137 342.776 9.951-.169c.373-.006.674.208.727.516l1.159 6.845c.119.709-.58 1.395-1.439 1.398-3.585.009-4.721-.204-9.234-.127-5.276.09-2.835.2-9.022.305-3.741.064-4.475-3.115-2.886-3.447 5.028-1.049 6.286-2.793 8.493-4.68.579-.494 1.465-.627 2.251-.641Z" fill="#263238"/><path d="M424.964 343.305c.08 0 .155-.038.192-.1a.16.16 0 0 0-.037-.208c-.323-.286-3.189-2.776-4.439-2.587a.679.679 0 0 0-.524.362c-.172.336-.157.655.041.952.658.982 3.251 1.411 4.737 1.58a.3.3 0 0 0 .03.001Zm-4.122-2.541c.729-.002 2.364 1.149 3.509 2.097-2.015-.284-3.409-.765-3.778-1.317-.13-.194-.137-.399-.021-.627a.247.247 0 0 1 .204-.147.6.6 0 0 1 .086-.006Z" fill="#407BFF"/><path d="M424.965 343.305c.02 0 .041-.002.061-.007a.201.201 0 0 0 .148-.132c.024-.086.591-2.117-.197-3.197a1.59 1.59 0 0 0-1.013-.624c-.583-.115-.843.079-.958.262-.494.779.93 2.952 1.81 3.65a.246.246 0 0 0 .149.048Zm-1.324-3.63c.059 0 .132.007.224.025.32.063.564.213.744.46.518.71.347 1.973.225 2.578-.845-.847-1.744-2.493-1.448-2.96.019-.029.065-.102.255-.103Z" fill="#407BFF"/><path d="M422.563 260.76c5-39.351 9.143-68.357 1.907-87.876l-33.55.76s.828 65.023 7.125 88.105c6.545 23.999 20.099 68.366 20.099 68.366l14.719.177s-.635-42.725-10.3-69.532Z" fill="#263238"/><path d="m415.998 327.359.963 5.318 16.502.244.933-5.026-18.398-.536Z" fill="#263238"/><path opacity=".3" d="m415.998 327.359.963 5.318 16.502.244.933-5.026-18.398-.536Z" fill="#000"/><path d="M384.622 98.495c9.867-1.008 20.164-.56 30.769.927 5.653.793 10.061 4.514 10.877 9.269 1.893 11.025 4.842 32.727-.493 66.599-4.836 1.292-19.068 1.201-30.378.514-1.23-.075-4.242-2.494-4.242-2.494s-2.707 1.972-4.272 1.814c-7.493-.757-13.465-1.845-14.84-3.082-3.067-6.155-4.985-21.761 3.148-35.724.088-8.361-1.87-17.771-2.033-26.743-.103-5.613 4.816-10.4 11.464-11.08Z" fill="#407BFF"/><path d="M401.936 84.235c.912 5.735 2.293 12.385 7.091 15.639-1.793 3.963-6.279 7.513-12.889 7.805-7.266.32-6.146-4.581-4.943-7.175 3.087-2.925 1.603-6.18.825-8.494l9.916-7.775Z" fill="#B55B52"/><path opacity=".2" d="M399.926 87.037c-.045-.365-.114-.73-.182-1.085l-7.723 6.061c.467 1.383 1.184 3.112 1.023 4.898 3.834-2.17 7.348-6.397 6.882-9.874Z" fill="#000"/><path d="M404.478 75.901c-1.143 7.58-1.356 12.071-6.216 15.694-7.311 5.449-18.179 1.262-19.744-6.476-1.408-6.963.699-18.191 9.766-20.668 8.932-2.44 17.337 3.87 16.194 11.45Z" fill="#B55B52"/><path d="M390.103 80.196c-.047.62-.475 1.099-.956 1.069-.481-.03-.831-.557-.783-1.178.047-.62.476-1.099.956-1.069.48.03.831.558.783 1.178Zm-9.179-.336c-.048.62-.476 1.099-.957 1.069-.481-.03-.831-.557-.783-1.178.048-.62.476-1.099.957-1.069.481.03.83.557.783 1.178Z" fill="#263238"/><path d="M392.632 80.379h-6.799c-.553 0-.996.359-1.064.811-.928-.314-1.651-.187-2.092-.008-.07-.449-.511-.803-1.06-.803h-5.182c-.6 0-1.089.414-1.089.92v2.66c0 .506.49.92 1.089.92h5.182c.599 0 1.089-.415 1.089-.92V81.79c.221-.14.942-.481 2.037-.028v2.197c0 .506.49.92 1.088.92h6.8c.6 0 1.089-.415 1.089-.92V81.3c.001-.507-.488-.92-1.088-.92Zm-10.563 3.58c0 .208-.208.382-.452.382h-5.182c-.25 0-.453-.171-.453-.382V81.3c0-.211.203-.383.453-.383h5.182c.246 0 .452.176.452.383v2.66Zm11.016 0c0 .21-.203.382-.453.382h-6.799c-.25 0-.453-.171-.453-.382V81.3c0-.211.203-.383.453-.383h6.799c.246 0 .453.176.453.383v2.66Z" fill="#263238"/><path d="M383.725 81.526s-1.853 2.84-3.614 4.111c.961.985 2.874.806 2.874.806l.74-4.917Z" fill="#A02724"/><path d="M391.877 76.794a.448.448 0 0 0 .191-.09.326.326 0 0 0 .011-.515c-1.665-1.463-3.632-1.176-3.716-1.164-.235.036-.389.226-.343.425.045.197.27.328.505.293.065-.01 1.601-.218 2.93.949a.494.494 0 0 0 .422.102Zm-13.745-.092a.48.48 0 0 0 .389-.105c1.32-1.155 2.853-.927 2.918-.917.234.037.459-.093.502-.29.043-.198-.11-.389-.343-.428-.085-.013-2.046-.323-3.701 1.124-.165.145-.159.376.013.517a.467.467 0 0 0 .222.099Z" fill="#263238"/><path d="M406.478 97.032c.218 1.761-2.274 7.994-10.994 10.661 3.365.025 4.834 3.627 4.834 3.627s11.562-5.203 10.188-11.487c-.901-2.921-4.028-2.8-4.028-2.8Zm-13.696.481c.213 1.72-2.148 5.335 2.702 10.18-3.365.025-5.382 2.853-5.382 2.853s-4.475-5.389-.954-11.617c1.803-1.322 3.634-1.416 3.634-1.416Z" fill="#407BFF"/><path d="M406.478 97.032c.218 1.761-2.274 7.994-10.994 10.661 3.365.025 4.834 3.627 4.834 3.627s11.562-5.203 10.188-11.487c-.901-2.921-4.028-2.8-4.028-2.8Zm-13.696.481c.213 1.72-2.148 5.335 2.702 10.18-3.365.025-5.382 2.853-5.382 2.853s-4.475-5.389-.954-11.617c1.803-1.322 3.634-1.416 3.634-1.416Z" opacity=".5" fill="#fff"/><path d="m369.916 178.125 57.55 1.305v-6.11l-56.681-1.285-.869 6.09Z" fill="#263238"/><path opacity=".3" d="m369.916 178.125 57.55 1.305v-6.11l-56.681-1.285-.869 6.09Z" fill="#fff"/><path d="m410.066 177.152 1.871 24.999 15.255-.814c2.001-.107 3.522-1.565 3.394-3.255l-1.452-19.418c-.104-1.392-1.524-2.449-3.172-2.361l-15.896.849Z" fill="#263238"/><path opacity=".3" d="m410.066 177.152 1.871 24.999 15.255-.814c2.001-.107 3.522-1.565 3.394-3.255l-1.452-19.418c-.104-1.392-1.524-2.449-3.172-2.361l-15.896.849Z" fill="#fff"/><path opacity=".2" d="m411.936 202.152 1.809-.096c1.877-.101 3.303-1.467 3.185-3.053l-1.478-19.765c-.098-1.305-1.429-2.297-2.976-2.214l-2.41.128 1.87 25Z" fill="#000"/><path opacity=".2" d="m415.522 180.178-.059-.783c-.104-1.392-1.524-2.449-3.172-2.361l13.671-.729c1.648-.088 3.069.969 3.173 2.361l.058.783.142 1.906c.091 1.213-.999 2.258-2.435 2.334l-8.471.452c-1.436.076-2.673-.844-2.764-2.057l-.143-1.906Z" fill="#fff"/><path d="M421.408 181.643c.036.479.525.843 1.092.813.566-.03.997-.444.961-.922-.035-.478-.525-.842-1.091-.812-.567.031-.997.443-.962.921Zm-31.627-6.213c0 .479.46.869 1.029.869.568 0 1.029-.389 1.029-.869s-.46-.869-1.029-.869-1.029.389-1.029.869Z" fill="#263238"/><path opacity=".1" d="m425.195 183.796-5.154.275 1.315 17.593 5.154-.275-1.315-17.593Z" fill="#000"/><path d="M399.966 82.84s-2.746.221-2-3.034c.746-3.256-3.052-6.489-1.973-9.606s-10.63-.692-11.473-3.117c-.843-2.424-1.028 4.392-4.658 3.463-3.156-.808.962-4.003.962-4.003s-4.834 2.33-4.834 0c0-2.29 5.698-2.215 7.721-2.625 5.749-1.165 18.283-6.88 21.837 7.666 0 0 5.373 3.171-2.436 12.406l-3.146-1.15Z" fill="#263238"/><path opacity=".2" d="M426.715 111.404c1.003 6.35 2.09 15.413 2.087 27.379-7.743-5.659-14.523-21.046-14.523-21.046v-6.126l5.781-3.918 6.655 3.711Z" fill="#000"/><path d="m373.542 129.147-15.425-7.46-1.215 3.509 13.882 6.651 2.758-2.7Z" fill="#407BFF"/><path opacity=".5" d="m373.542 129.147-15.425-7.46-1.215 3.509 13.882 6.651 2.758-2.7Z" fill="#fff"/><path d="M382.406 63.235s12.071-9.544 23.051-1.655c9.16 6.58 1.344 16.83 1.344 16.83l-4.397-4.343-8.543-6.234-7.837-3.83-3.618-.768Z" fill="#407BFF"/><path d="M375.965 62.58c5.308-3.438 21.339 2.985 31.005 15.931l-.052.101c-2.732-2.519-17.747-15.9-26.806-14.25 0 0-7.415.335-4.147-1.781Z" fill="#407BFF"/><path d="M375.965 62.58c5.308-3.438 21.339 2.985 31.005 15.931l-.052.101c-2.732-2.519-17.747-15.9-26.806-14.25 0 0-7.415.335-4.147-1.781Z" fill="#000" opacity=".3"/><path d="M386.339 60.456c4.07-1.956 12-4.442 19.385.86 7.894 5.671 3.518 14.021 1.99 16.445l-.745-.286c.044-.096 4.308-9.735-1.73-14.052-4.918-3.515-10.869-1.63-13.98-.192l-.211.098-.205-.11a57.793 57.793 0 0 0-4.485-2.152l-.682-.291.663-.32Z" fill="#407BFF"/><path opacity=".3" d="M386.339 60.456c4.07-1.956 12-4.442 19.385.86 7.894 5.671 3.518 14.021 1.99 16.445l-.745-.286c.044-.096 4.308-9.735-1.73-14.052-4.918-3.515-10.869-1.63-13.98-.192l-.211.098-.205-.11a57.793 57.793 0 0 0-4.485-2.152l-.682-.291.663-.32Z" fill="#fff"/><path d="M385.192 89.59c-.406 0-.837-.03-1.292-.099-.122-.019-.206-.118-.184-.222.022-.104.136-.173.263-.155 3.328.5 5.299-1.234 5.319-1.251a.255.255 0 0 1 .319-.01c.092.073.097.194.011.27-.076.07-1.662 1.466-4.436 1.466Z" fill="#263238"/><path opacity=".5" d="M416.349 123.958h-16.38l.536 1.605c.316.947 1.339 1.601 2.504 1.601h9.726c.953 0 1.829-.44 2.285-1.146l1.329-2.06Z" fill="#fff"/><path d="M407.139 125.478c0 .475.456.861 1.019.861.562 0 1.019-.386 1.019-.861s-.457-.861-1.019-.861c-.563 0-1.019.386-1.019.861Z" fill="#407BFF"/><path opacity=".5" d="M388.357 123.875h-13.193l.432 1.605c.254.947 1.079 1.601 2.017 1.601h7.834c.767 0 1.473-.44 1.84-1.145l1.07-2.061Z" fill="#fff"/><path d="M379.648 125.478c0 .475.457.861 1.02.861.562 0 1.019-.386 1.019-.861s-.457-.861-1.019-.861c-.563 0-1.02.386-1.02.861Z" fill="#407BFF"/><path d="m393.278 81.05 7.582-.432-.054-.69-8.242.481.714.642Z" fill="#263238"/><path d="M406.946 83.81c-1.284 1.743-3.409 2.818-5.372 3.166-2.952.524-4.257-1.747-3.294-4.014.866-2.04 3.446-4.771 6.339-4.276 2.852.486 3.796 3.13 2.327 5.123Z" fill="#B55B52"/><path d="m390.61 134.262-.613 1.615c-.08.214.184.404.42.302l1.788-.77 10.695-10.62c.228-.227.196-.565-.072-.758l-.627-.45c-.268-.192-.67-.165-.897.061l-10.694 10.62Z" fill="#263238"/><path opacity=".5" d="m390.61 134.262-.613 1.615c-.08.214.184.404.42.302l1.788-.77 10.695-10.62c.228-.227.196-.565-.072-.758l-.627-.45c-.268-.192-.67-.165-.897.061l-10.694 10.62Z" fill="#fff"/><path opacity=".5" d="m401.955 123.475-11.147 11.07-.75 1.563c-.059-.062-.094-.142-.06-.231l.613-1.615 10.695-10.62a.703.703 0 0 1 .649-.167Z" fill="#fff"/><path d="m407.451 134.678-7.36-3.056-1.691 8.183s7.062 2.083 8.979-.907l.072-4.22Z" fill="#B55B52"/><path d="m392.008 133.891-.02 2.952c-.008 1.175.994 2.182 2.365 2.38l4.048.581 1.691-8.183-5.165-.116c-1.594-.035-2.911 1.041-2.919 2.386Zm12.003 5.19c5.255 2.767 10.607 5.107 16.67 6.896 1.524.433 3.092.85 4.797 1.145 1.72.287 3.502.55 5.824.434 1.162-.074 2.513-.247 4.132-.902a9.03 9.03 0 0 0 2.439-1.505c.182-.164.394-.364.535-.515l.35-.4c.238-.27.424-.544.617-.823 1.471-2.27 1.654-4.34 1.673-6.065-.006-1.751-.308-3.285-.668-4.741a36.172 36.172 0 0 0-1.345-4.138c-1.031-2.639-2.279-5.098-3.596-7.498-1.352-2.384-2.765-4.706-4.309-6.957-1.554-2.27-3.075-4.435-4.893-6.685-1.957-2.423-5.869-3.046-8.737-1.392-2.792 1.608-3.566 4.781-1.801 7.183l.071.095c1.425 1.933 2.969 4.049 4.361 6.114 1.394 2.09 2.782 4.174 4.027 6.285 1.271 2.096 2.419 4.217 3.368 6.291.949 2.044 1.665 4.175 1.807 5.709.041.323.036.587.023.796-.635.041-1.434.033-2.251-.028a48.814 48.814 0 0 1-3.876-.45c-5.361-.856-11.046-2.237-16.56-3.609l-.111-.028c-1.662-.413-3.404.389-3.893 1.792-.41 1.167.181 2.382 1.346 2.996Z" fill="#B55B52"/><path d="M420.085 100.63c12.779 3.4 19.964 26.028 19.964 26.028l-13.844 4.57s-6.55-3.935-11.179-11.378c-1.402-2.255-5.133-21.932 5.059-19.22Z" fill="#407BFF"/><path d="m440.051 123.958-16.959 5.671 2.497 2.986 15.545-5.194-1.083-3.463Z" fill="#407BFF"/><path opacity=".5" d="m440.051 123.958-16.959 5.671 2.497 2.986 15.545-5.194-1.083-3.463Z" fill="#fff"/><path d="M360.427 126.759h25.028l17.588 25.877-.68.574h-25.027l-17.588-25.876.679-.575Z" fill="#263238"/><path opacity=".2" d="M360.427 126.759h25.028l17.588 25.877-.68.574h-25.027l-17.588-25.876.679-.575Z" fill="#fff"/><path d="M377.336 153.21h25.027l-17.587-25.876h-25.028l17.588 25.876Z" fill="#263238"/><path opacity=".4" d="M377.336 153.21h25.027l-17.587-25.876h-25.028l17.588 25.876Z" fill="#fff"/><path d="M366.832 126.382h9.534l2.017 2.968-.281.239h-9.534l-2.017-2.968.281-.239Z" fill="#407BFF"/><path opacity=".5" d="M366.832 126.382h9.534l2.017 2.968-.281.239h-9.534l-2.017-2.968.281-.239Z" fill="#fff"/><path d="m368.568 129.589-2.017-2.968h9.534l2.017 2.968h-9.534Z" fill="#407BFF"/><path opacity=".2" d="m368.568 129.589-2.017-2.968h9.534l2.017 2.968h-9.534Z" fill="#fff"/><path d="M354.152 143.302c-.285-1.629-.177-3 .003-4.266.06-.37.143-.716.218-1.071h11.737c-.353.88-.642 1.73-.813 2.498-.167.675-.223 1.294-.202 1.62.004.107.007.167.005.203.093.038.18.078.282.115.758.29 1.705.535 2.7.774 1.987.464 4.25.855 6.395 1.304l.231.047c.999.211 1.848.842 2.179 1.733.507 1.362-.389 2.811-2.001 3.239a35.636 35.636 0 0 1-7.587 1.177 27.289 27.289 0 0 1-4.212-.112 18.465 18.465 0 0 1-2.453-.469c-.884-.247-1.886-.567-3.031-1.313-.3-.21-.585-.417-.871-.663-.279-.257-.629-.604-.799-.827a8.82 8.82 0 0 1-.904-1.377 9.09 9.09 0 0 1-.877-2.612Z" fill="#B55B52"/><path d="m374.434 149.514 8.702-1.013-5.02-6.8s-7.34.912-6.846 4.74l3.164 3.073Z" fill="#B55B52"/><path d="m386.586 144.367-1.566-3.049c-.559-1.088-2.076-1.567-3.343-1.055l-3.562 1.439 5.02 6.8 2.629-1.605c.943-.576 1.284-1.629.822-2.53Z" fill="#B55B52"/><path d="M59.103 171.875h9.724v3.244H67.24v14.553h-6.55v-14.553h-1.587v-3.244Z" fill="#407BFF"/><path d="M59.103 171.875h9.724v3.244H67.24v14.553h-6.55v-14.553h-1.587v-3.244Z" fill="#000" opacity=".2"/><path d="m116.607 161.501 34.53 44.869v40.27H69.375v-40.27l47.232-44.869Z" fill="#407BFF"/><path opacity=".5" d="m116.607 161.501 34.53 44.869v40.27H69.375v-40.27l47.232-44.869Z" fill="#fff"/><path d="m78.68 163.326 5.254-6.808h32.672l38.483 49.852h-76.41v-43.044Z" fill="#407BFF"/><path opacity=".2" d="m78.68 163.326 5.254-6.808h32.672l38.483 49.852h-76.41v-43.044Z" fill="#000"/><path d="m122.419 206.37-38.485-49.851-38.483 49.851h76.968Z" fill="#407BFF"/><path d="m83.935 161.501 34.531 44.869v40.27H49.404v-40.27l34.53-44.869Z" fill="#407BFF"/><path opacity=".8" d="m83.935 161.501 34.531 44.869v40.27H49.404v-40.27l34.53-44.869Z" fill="#fff"/><path d="M99.423 187.327h-6.986v15.634h6.986v-15.634Zm-24.449 0h-6.986v15.634h6.986v-15.634Z" fill="#407BFF"/><path d="M92.439 186.589H74.975v17.109h17.464v-17.109Z" fill="#407BFF"/><path opacity=".4" d="M92.439 186.589H74.975v17.109h17.464v-17.109Z" fill="#fff"/><path d="M90.256 188.433H77.158v13.421h13.098v-13.421Z" fill="#263238"/><path d="M73.147 246.64h21.119v-28.785H73.147v28.785Z" fill="#407BFF"/><path opacity=".3" d="M73.147 246.64h21.119v-28.785H73.147v28.785Z" fill="#fff"/><path d="M74.455 211.826h18.501l4.498 7.047H69.959l4.496-7.047Z" fill="#407BFF"/><path d="M90.576 222.746H84.11v23.894h6.467v-23.894Zm-7.276 0h-6.466v23.894h6.467v-23.894Z" fill="#263238"/><path d="M137.971 275.717H39.596v70.411h98.375v-70.411Z" fill="#407BFF"/><path opacity=".6" d="M137.971 275.717H39.596v70.411h98.375v-70.411Z" fill="#fff"/><path d="M160.947 275.717h-48.586v70.411h48.586v-70.411Z" fill="#407BFF"/><path opacity=".8" d="M160.947 275.717h-48.586v70.411h48.586v-70.411Z" fill="#fff"/><path d="M103.205 282.8h-19.35v18.957h19.35V282.8Z" fill="#407BFF"/><path opacity=".3" d="M103.205 282.8h-19.35v18.957h19.35V282.8Z" fill="#fff"/><path d="M100.785 284.843H86.273v14.871h14.512v-14.871Z" fill="#263238"/><path d="M126.759 283.618h-7.739v17.321h7.739v-17.321Zm27.09 0h-7.74v17.321h7.74v-17.321Z" fill="#407BFF"/><path d="M146.107 282.8h-19.349v18.957h19.349V282.8Z" fill="#407BFF"/><path opacity=".3" d="M146.107 282.8h-19.349v18.957h19.349V282.8Z" fill="#fff"/><path d="M143.69 284.843h-14.512v14.871h14.512v-14.871Z" fill="#263238"/><path d="M85.314 314.81H62.336v31.318h22.978V314.81Z" fill="#407BFF"/><path opacity=".3" d="M85.314 314.81H62.336v31.318h22.978V314.81Z" fill="#fff"/><path d="M83.89 308.248H63.76l-4.893 7.669h29.916l-4.892-7.669Z" fill="#407BFF"/><path d="M73.385 320.13H66.35v25.998h7.035V320.13Zm7.916 0h-7.035v25.998H81.3V320.13Z" fill="#263238"/><path d="m148.925 276.317-19.221-30.126h-81.84l-19.221 30.126h120.282Z" fill="#407BFF"/><path opacity=".3" d="m148.925 276.317-19.221-30.126h-81.84l-19.221 30.126h120.282Z" fill="#000"/><path d="m171.899 276.317-19.221-30.126h-32.05l-19.22 30.126h70.491Z" fill="#407BFF"/><path opacity=".1" d="m171.899 276.317-19.221-30.126h-32.05l-19.22 30.126h70.491Z" fill="#000"/><path d="M66.197 271.167v-24.976h37.836l-15.934 24.976H66.197Z" fill="#407BFF"/><path opacity=".8" d="M66.197 271.167v-24.976h37.836l-15.934 24.976H66.197Z" fill="#fff"/><path d="M65.087 271.168h22.977v-19.406H65.087v19.406Z" fill="#407BFF"/><path opacity=".6" d="M65.087 271.168h22.977v-19.406H65.087v19.406Z" fill="#fff"/><path d="M71.733 268.819h9.686c.877 0 1.588-.6 1.588-1.341v-.98H70.144v.98c0 .741.713 1.341 1.588 1.341Z" fill="#407BFF"/><path d="M72.508 258.534c0-1.897 1.822-3.435 4.068-3.435 2.246 0 4.067 1.538 4.067 3.435v7.414h-8.135v-7.414Z" fill="#263238"/><path d="m80.644 252.869 4.26-6.678h19.128l-4.26 6.678H80.643Z" fill="#407BFF"/><path opacity=".2" d="m80.644 252.869 4.26-6.678h19.128l-4.26 6.678H80.643Z" fill="#000"/><path d="m87.274 246.191 4.26 6.678H61.62l4.261-6.678h21.394ZM68.545 282.8h-19.35v18.957h19.35V282.8Z" fill="#407BFF"/><path opacity=".3" d="M68.545 282.8h-19.35v18.957h19.35V282.8Z" fill="#fff"/><path d="M66.125 284.843H51.613v14.871h14.512v-14.871Zm126.497 76.426 186.103-50.264c3.451-.932 5.323-4.186 4.18-7.268l-88.37-238.3c-1.143-3.082-4.868-4.824-8.319-3.892L100.113 111.81c-3.45.932-5.323 4.185-4.18 7.267l88.371 238.3c1.142 3.081 4.866 4.825 8.318 3.892Z" fill="#263238"/><path d="m195.302 360.548 186.103-50.264c3.451-.933 5.323-4.186 4.179-7.268l-88.37-238.3c-1.143-3.082-4.867-4.824-8.318-3.892l-186.103 50.264c-3.451.933-5.323 4.186-4.18 7.268l88.37 238.3c1.142 3.081 4.868 4.824 8.319 3.892Z" fill="#263238"/><path opacity=".5" d="m195.302 360.548 186.103-50.264c3.451-.933 5.323-4.186 4.179-7.268l-88.37-238.3c-1.143-3.082-4.867-4.824-8.318-3.892l-186.103 50.264c-3.451.933-5.323 4.186-4.18 7.268l88.37 238.3c1.142 3.081 4.868 4.824 8.319 3.892Z" fill="#fff"/><path opacity=".2" d="m282.153 77.797 84.273 227.029-167.753 45.308-84.275-227.029 167.755-45.308Z" fill="#000"/><path d="m283.131 77.526 26.425 73.435a697.12 697.12 0 0 0 23.021 56.162l41.557 90.008-167.704 45.272-41.649-90.236a696.665 696.665 0 0 1-22.989-56.095l-26.366-73.274 167.705-45.272Z" fill="#fff"/><path d="m178.64 128.253 62.814-16.932c2.082-.562 3.308-1.916 2.739-3.026l-1.114-2.174c-.569-1.11-2.717-1.554-4.798-.993l-62.815 16.933c-2.081.561-3.307 1.915-2.738 3.024l1.113 2.174c.569 1.11 2.717 1.555 4.799.994Zm-4.744 93.771 134.836-36.315c2.081-.56 3.149-2.504 2.386-4.34l-1.494-3.598c-.763-1.837-3.067-2.871-5.149-2.311l-134.836 36.315c-2.081.561-3.149 2.505-2.386 4.34l1.494 3.599c.763 1.836 3.067 2.871 5.149 2.31Z" fill="#407BFF"/><path opacity=".5" d="m173.896 222.024 134.836-36.315c2.081-.56 3.149-2.504 2.386-4.34l-1.494-3.598c-.763-1.837-3.067-2.871-5.149-2.311l-134.836 36.315c-2.081.561-3.149 2.505-2.386 4.34l1.494 3.599c.763 1.836 3.067 2.871 5.149 2.31Z" fill="#fff"/><path d="m259.899 144.386 27.038-7.294c1.836-.495 2.918-1.69 2.416-2.669l-.982-1.916c-.501-.979-2.395-1.37-4.231-.875l-27.038 7.295c-1.836.495-2.917 1.69-2.416 2.667l.982 1.917c.501.979 2.395 1.371 4.231.875Z" fill="#263238"/><path opacity=".7" d="m259.759 144.425 27.166-7.329c1.844-.498 2.932-1.694 2.429-2.673l-.984-1.916c-.502-.978-2.404-1.367-4.249-.87l-27.165 7.329c-1.845.498-2.933 1.694-2.43 2.672l.984 1.916c.502.978 2.404 1.368 4.249.871Z" fill="#fff"/><path d="m278.539 155.379 16.24-4.381c2.082-.562 3.294-1.973 2.707-3.151l-.603-1.211c-.587-1.179-2.75-1.678-4.832-1.117l-16.24 4.382c-2.082.562-3.294 1.972-2.707 3.15l.603 1.212c.587 1.178 2.75 1.678 4.832 1.116Zm-49.621 13.361 37.677-10.158c2.082-.562 3.293-1.972 2.706-3.15l-.603-1.211c-.587-1.179-2.75-1.679-4.831-1.118l-37.678 10.159c-2.082.561-3.293 1.972-2.706 3.15l.603 1.211c.587 1.178 2.751 1.678 4.832 1.117Zm-40.243 10.826 28.3-7.632c2.082-.561 3.293-1.972 2.706-3.15l-.603-1.211c-.587-1.179-2.75-1.679-4.831-1.118l-28.3 7.633c-2.082.561-3.293 1.972-2.706 3.15l.603 1.211c.588 1.177 2.751 1.678 4.831 1.117Zm-26.845 7.218 14.9-4.02c2.082-.562 3.294-1.973 2.707-3.151l-.603-1.211c-.587-1.179-2.75-1.678-4.832-1.117l-14.9 4.021c-2.082.561-3.294 1.972-2.707 3.15l.603 1.211c.587 1.178 2.751 1.678 4.832 1.117Zm109.847-15.628 28.3-7.632c2.082-.561 3.293-1.972 2.706-3.15l-.603-1.21c-.587-1.179-2.75-1.68-4.831-1.118l-28.3 7.632c-2.082.561-3.293 1.972-2.706 3.15l.603 1.211c.587 1.178 2.75 1.679 4.831 1.117Zm-45.599 12.273 33.658-9.076c2.081-.561 3.292-1.971 2.705-3.15l-.602-1.21c-.588-1.179-2.75-1.68-4.832-1.118l-33.658 9.076c-2.082.561-3.293 1.971-2.705 3.15l.602 1.21c.587 1.179 2.75 1.68 4.832 1.118Zm-28.186 7.577 16.241-4.381c2.082-.562 3.293-1.973 2.706-3.151l-.602-1.21c-.588-1.179-2.75-1.679-4.832-1.118l-16.241 4.382c-2.082.562-3.293 1.972-2.706 3.151l.602 1.21c.587 1.179 2.75 1.679 4.832 1.117Zm-30.865 8.307 18.92-5.104c2.082-.562 3.294-1.972 2.706-3.151l-.602-1.21c-.587-1.179-2.75-1.679-4.832-1.118l-18.92 5.105c-2.082.561-3.294 1.972-2.706 3.15l.602 1.211c.587 1.178 2.75 1.679 4.832 1.117Z" fill="#263238"/><path d="m278.539 155.379 16.24-4.381c2.082-.562 3.294-1.973 2.707-3.151l-.603-1.211c-.587-1.179-2.75-1.678-4.832-1.117l-16.24 4.382c-2.082.562-3.294 1.972-2.707 3.15l.603 1.212c.587 1.178 2.75 1.678 4.832 1.116Zm-49.621 13.361 37.677-10.158c2.082-.562 3.293-1.972 2.706-3.15l-.603-1.211c-.587-1.179-2.75-1.679-4.831-1.118l-37.678 10.159c-2.082.561-3.293 1.972-2.706 3.15l.603 1.211c.587 1.178 2.751 1.678 4.832 1.117Zm-40.243 10.826 28.3-7.632c2.082-.561 3.293-1.972 2.706-3.15l-.603-1.211c-.587-1.179-2.75-1.679-4.831-1.118l-28.3 7.633c-2.082.561-3.293 1.972-2.706 3.15l.603 1.211c.588 1.177 2.751 1.678 4.831 1.117Zm-26.845 7.218 14.9-4.02c2.082-.562 3.294-1.973 2.707-3.151l-.603-1.211c-.587-1.179-2.75-1.678-4.832-1.117l-14.9 4.021c-2.082.561-3.294 1.972-2.707 3.15l.603 1.211c.587 1.178 2.751 1.678 4.832 1.117Zm109.847-15.628 28.3-7.632c2.082-.561 3.293-1.972 2.706-3.15l-.603-1.21c-.587-1.179-2.75-1.68-4.831-1.118l-28.3 7.632c-2.082.561-3.293 1.972-2.706 3.15l.603 1.211c.587 1.178 2.75 1.679 4.831 1.117Zm-45.599 12.273 33.658-9.076c2.081-.561 3.292-1.971 2.705-3.15l-.602-1.21c-.588-1.179-2.75-1.68-4.832-1.118l-33.658 9.076c-2.082.561-3.293 1.971-2.705 3.15l.602 1.21c.587 1.179 2.75 1.68 4.832 1.118Zm-28.186 7.577 16.241-4.381c2.082-.562 3.293-1.973 2.706-3.151l-.602-1.21c-.588-1.179-2.75-1.679-4.832-1.118l-16.241 4.382c-2.082.562-3.293 1.972-2.706 3.151l.602 1.21c.587 1.179 2.75 1.679 4.832 1.117Zm-30.865 8.307 18.92-5.104c2.082-.562 3.294-1.972 2.706-3.151l-.602-1.21c-.587-1.179-2.75-1.679-4.832-1.118l-18.92 5.105c-2.082.561-3.294 1.972-2.706 3.15l.602 1.211c.587 1.178 2.75 1.679 4.832 1.117Z" opacity=".7" fill="#fff"/><path d="m256.547 318.874-43.63 11.746c-1.293.349-1.962-1.443-.666-1.792l43.63-11.746c1.293-.348 1.962 1.444.666 1.792Zm100.361-27.006-43.63 11.746c-1.293.348-1.962-1.444-.666-1.793l43.63-11.746c1.293-.348 1.962 1.444.666 1.793Zm-22.733-54.797-55.688 14.991c-1.293.348-1.962-1.444-.666-1.792l55.688-14.991c1.293-.35 1.962 1.443.666 1.792Zm-53.513 20.048 55.688-14.991c1.293-.348 1.962 1.444.666 1.793l-55.687 14.99c-1.294.348-1.961-1.444-.667-1.792Zm2.845 6.849 55.688-14.991c1.293-.348 1.961 1.444.666 1.792l-55.688 14.991c-1.293.348-1.962-1.443-.666-1.792Zm2.84 6.849 55.687-14.99c1.294-.349 1.963 1.444.667 1.793l-55.688 14.991c-1.293.348-1.962-1.445-.666-1.794Zm2.841 6.85 55.688-14.991c1.293-.348 1.962 1.445.667 1.794l-55.688 14.99c-1.293.349-1.962-1.444-.667-1.793Zm-38.274-18.191-43.63 11.746c-1.293.348-1.962-1.443-.666-1.792l43.63-11.746c1.293-.35 1.962 1.443.666 1.792Zm-41.455 16.803 43.63-11.746c1.293-.348 1.962 1.444.666 1.793l-43.63 11.746c-1.291.347-1.961-1.444-.666-1.793Zm2.843 6.849 43.63-11.746c1.293-.348 1.961 1.444.666 1.793l-43.63 11.746c-1.293.348-1.962-1.444-.666-1.793Zm2.841 6.85 43.63-11.746c1.293-.348 1.962 1.444.667 1.793l-43.63 11.746c-1.293.349-1.962-1.444-.667-1.793Zm2.84 6.849 43.63-11.746c1.293-.348 1.962 1.445.667 1.794l-43.63 11.746c-1.293.348-1.962-1.445-.667-1.794Z" fill="#757A7C"/><path d="m176.705 240.317 3.436 8.284 3.435 8.284 3.436 8.284 26.221-7.072 1.006-.271 43.977-11.862 1.005-.271 43.978-11.861 1.005-.271 26.221-7.073-3.803-9.172-3.436-8.284-3.436-8.284-3.436-8.284-26.22 7.071-1.005.272-43.979 11.861-1.005.272-43.977 11.861-1.006.271-26.22 7.072 3.803 9.173Zm24.319-11.658 1.534 3.697-25.214 6.801-3.068-7.396 25.214-6.801 1.534 3.699Zm4.441 8.013-1.534-3.698 43.976-11.861 1.534 3.698 1.535 3.698-43.978 11.862-1.533-3.699Zm43.449-15.831 43.977-11.862 1.534 3.698 1.534 3.698-43.976 11.861-1.534-3.698-1.535-3.697Zm50.481 3.819-43.977 11.861-1.534-3.698-1.534-3.698 43.976-11.861 1.534 3.698 1.535 3.698Zm-44.984 12.133-43.976 11.861-1.534-3.698-1.534-3.699 43.977-11.861 1.535 3.699 1.532 3.698Zm-8.404-20.267 1.534 3.698-43.976 11.861-1.534-3.698-1.534-3.697 43.977-11.862 1.533 3.698Zm44.983-12.132 1.534 3.697-43.978 11.862-1.534-3.698-1.534-3.697 43.976-11.861 1.536 3.697Zm27.754-3.373-25.215 6.8-1.534-3.697-1.533-3.698 25.214-6.801 3.068 7.396Zm3.437 8.283-25.216 6.801-1.534-3.698-1.534-3.698 25.214-6.8 3.07 7.395Zm3.434 8.284-25.214 6.8-1.534-3.697-1.534-3.699 25.214-6.8 3.068 7.396Zm-23.312 11.387-1.535-3.699 25.215-6.8 3.068 7.396-25.216 6.801-1.532-3.698Zm-44.983 12.133-1.534-3.699 43.977-11.861 1.534 3.698 1.534 3.698-43.976 11.861-1.535-3.697Zm-44.983 12.132-1.534-3.698 43.976-11.861 1.534 3.698 1.534 3.698-43.976 11.861-1.534-3.698Zm-27.754 3.373 25.214-6.8 1.535 3.698 1.533 3.698-25.214 6.801-3.068-7.397Zm-3.437-8.283 25.214-6.801 1.534 3.699 1.534 3.697-25.214 6.801-3.068-7.396Zm-3.435-8.285 25.215-6.801 1.534 3.698 1.534 3.699-25.214 6.8-3.069-7.396Z" fill="#407BFF"/><path opacity=".5" d="m176.705 240.317 3.436 8.284 3.435 8.284 3.436 8.284 26.221-7.072 1.006-.271 43.977-11.862 1.005-.271 43.978-11.861 1.005-.271 26.221-7.073-3.803-9.172-3.436-8.284-3.436-8.284-3.436-8.284-26.22 7.071-1.005.272-43.979 11.861-1.005.272-43.977 11.861-1.006.271-26.22 7.072 3.803 9.173Zm24.319-11.658 1.534 3.697-25.214 6.801-3.068-7.396 25.214-6.801 1.534 3.699Zm4.441 8.013-1.534-3.698 43.976-11.861 1.534 3.698 1.535 3.698-43.978 11.862-1.533-3.699Zm43.449-15.831 43.977-11.862 1.534 3.698 1.534 3.698-43.976 11.861-1.534-3.698-1.535-3.697Zm50.481 3.819-43.977 11.861-1.534-3.698-1.534-3.698 43.976-11.861 1.534 3.698 1.535 3.698Zm-44.984 12.133-43.976 11.861-1.534-3.698-1.534-3.699 43.977-11.861 1.535 3.699 1.532 3.698Zm-8.404-20.267 1.534 3.698-43.976 11.861-1.534-3.698-1.534-3.697 43.977-11.862 1.533 3.698Zm44.983-12.132 1.534 3.697-43.978 11.862-1.534-3.698-1.534-3.697 43.976-11.861 1.536 3.697Zm27.754-3.373-25.215 6.8-1.534-3.697-1.533-3.698 25.214-6.801 3.068 7.396Zm3.437 8.283-25.216 6.801-1.534-3.698-1.534-3.698 25.214-6.8 3.07 7.395Zm3.434 8.284-25.214 6.8-1.534-3.697-1.534-3.699 25.214-6.8 3.068 7.396Zm-23.312 11.387-1.535-3.699 25.215-6.8 3.068 7.396-25.216 6.801-1.532-3.698Zm-44.983 12.133-1.534-3.699 43.977-11.861 1.534 3.698 1.534 3.698-43.976 11.861-1.535-3.697Zm-44.983 12.132-1.534-3.698 43.976-11.861 1.534 3.698 1.534 3.698-43.976 11.861-1.534-3.698Zm-27.754 3.373 25.214-6.8 1.535 3.698 1.533 3.698-25.214 6.801-3.068-7.397Zm-3.437-8.283 25.214-6.801 1.534 3.699 1.534 3.697-25.214 6.801-3.068-7.396Zm-3.435-8.285 25.215-6.801 1.534 3.698 1.534 3.699-25.214 6.8-3.069-7.396Z" fill="#fff"/><path d="m196.548 280.351 4.161-1.123c.774-.209 1.172-.933.889-1.617l-1.524-3.677c-.283-.684-1.14-1.069-1.914-.86l-4.162 1.124c-.773.209-1.172.933-.888 1.616l1.524 3.678c.283.684 1.14 1.068 1.914.859Zm2.791 6.728 4.161-1.124c.774-.209 1.172-.933.889-1.616l-1.524-3.678c-.283-.683-1.14-1.068-1.914-.859l-4.162 1.123c-.773.209-1.172.933-.888 1.617l1.524 3.677c.283.684 1.14 1.069 1.914.86Zm2.79 6.728 4.163-1.124c.773-.209 1.172-.933.888-1.616l-1.524-3.679c-.283-.683-1.14-1.068-1.914-.859l-4.162 1.123c-.773.209-1.172.933-.888 1.617l1.524 3.678c.282.683 1.139 1.069 1.913.86Zm2.792 6.728 4.161-1.124c.774-.209 1.172-.933.889-1.616l-1.524-3.678c-.283-.684-1.14-1.068-1.914-.859l-4.161 1.123c-.774.209-1.173.933-.889 1.617l1.524 3.677c.283.684 1.139 1.069 1.914.86Z" fill="#407BFF"/><path opacity=".5" d="m199.339 287.079 4.161-1.124c.774-.209 1.172-.933.889-1.616l-1.524-3.678c-.283-.683-1.14-1.068-1.914-.859l-4.162 1.123c-.773.209-1.172.933-.888 1.617l1.524 3.677c.283.684 1.14 1.069 1.914.86Zm5.582 13.456 4.161-1.124c.774-.209 1.172-.933.889-1.616l-1.524-3.678c-.283-.684-1.14-1.068-1.914-.859l-4.161 1.123c-.774.209-1.173.933-.889 1.617l1.524 3.677c.283.684 1.139 1.069 1.914.86Z" fill="#fff"/><path d="m167.97 88.79 16.41-4.431-4.105-4.959c-1.289-1.557-.026-3.756 2.558-4.454l16.082-4.341c2.584-.698 5.1.48 5.096 2.387l-.014 6.07 16.41-4.43c4.957-1.338 10.306 1.165 11.948 5.59l4.778 12.879c.946 2.55-.604 5.243-3.46 6.014l-60.041 16.21c-2.857.771-5.94-.671-6.886-3.221l-4.778-12.878c-1.642-4.426 1.045-9.098 6.002-10.437Z" fill="#407BFF"/><path opacity=".2" d="m203.978 79.04-19.608 5.287-2.415-2.913 22.03-5.94-.007 3.566Z" fill="#000"/><path d="M222.069 93.81c.512 1.378 2.177 2.158 3.721 1.741 1.543-.416 2.379-1.872 1.867-3.25-.511-1.379-2.176-2.158-3.72-1.742-1.543.416-2.379 1.871-1.868 3.25Zm-48.119 12.948c.512 1.379 2.177 2.158 3.72 1.742 1.544-.417 2.38-1.872 1.868-3.25-.512-1.379-2.177-2.159-3.72-1.742-1.542.415-2.38 1.871-1.868 3.25Z" fill="#263238"/><path d="m329.492 289.161-57.561 29.802c-2.814 1.457-6.079.053-7.277-3.13l-3.788-10.07c-1.197-3.184.119-6.959 2.934-8.418l57.56-29.801c2.815-1.457 6.08-.053 7.277 3.132l3.788 10.069c1.198 3.184-.118 6.958-2.933 8.416Zm-65.059 9.871c-1.994 1.032-2.926 3.706-2.077 5.962l3.788 10.07c.847 2.253 3.159 3.249 5.154 2.216l57.561-29.802c1.993-1.032 2.926-3.706 2.076-5.961l-3.787-10.069c-.849-2.256-3.16-3.251-5.155-2.218l-57.56 29.802Z" fill="#407BFF"/><path d="m275.72 306.502-2.906 1.505.016 1.804-1.484.769.126-8.528 1.43-.742 5.462 5.634-1.52.787-1.124-1.229Zm-.924-1.009-2.011-2.197.027 3.226 1.984-1.029Zm5.823-7.8c.487-.002.914.132 1.279.402.365.271.647.669.844 1.195.195.519.255 1.029.181 1.531a2.869 2.869 0 0 1-.608 1.38c-.33.417-.774.769-1.329 1.056l-1.26.653.734 1.954-1.449.75-2.664-7.084 2.71-1.404c.554-.287 1.076-.43 1.562-.433Zm.657 3.438c.147-.331.146-.689 0-1.081-.149-.398-.378-.645-.685-.741-.306-.095-.678-.029-1.113.195l-1.18.612.924 2.459 1.181-.612c.436-.225.726-.503.873-.832Zm5.788-6.775c.487-.002.914.132 1.279.402.365.271.647.669.845 1.195.195.519.256 1.029.181 1.531a2.87 2.87 0 0 1-.609 1.38c-.331.417-.774.769-1.328 1.056l-1.261.653.734 1.954-1.449.75-2.664-7.084 2.71-1.404c.554-.285 1.075-.43 1.562-.433Zm.657 3.438c.146-.33.147-.689 0-1.081-.149-.398-.377-.645-.685-.741-.306-.095-.677-.029-1.113.195l-1.18.612.925 2.459 1.18-.612c.435-.224.727-.502.873-.832Zm8.169.082-1.949-1.349-.072.037-1.26.653.742 1.974-1.449.75-2.664-7.083 2.709-1.404c.555-.288 1.076-.431 1.562-.434.487-.003.914.132 1.279.402.365.271.647.669.845 1.195.198.526.256 1.037.176 1.534a2.896 2.896 0 0 1-.624 1.368l2.26 1.55-1.555.807Zm-2.409-5.24c-.306-.095-.678-.029-1.113.195l-1.18.612.929 2.47 1.18-.612c.435-.226.725-.505.87-.839.146-.334.145-.695-.002-1.086-.148-.398-.376-.644-.684-.74Zm6.125 2.894a3.042 3.042 0 0 1-1.718-.675c-.504-.404-.887-.953-1.149-1.647a4.394 4.394 0 0 1-.263-2.107c.086-.709.33-1.357.732-1.945a4.258 4.258 0 0 1 1.579-1.385c.649-.337 1.294-.48 1.931-.433a3.09 3.09 0 0 1 1.718.677c.507.402.891.95 1.152 1.645a4.36 4.36 0 0 1 .259 2.109 4.379 4.379 0 0 1-.732 1.944 4.215 4.215 0 0 1-1.574 1.383c-.649.336-1.295.481-1.935.434Zm2.304-2.637c.225-.346.358-.736.399-1.167a2.91 2.91 0 0 0-.187-1.306c-.164-.438-.396-.785-.696-1.042a1.781 1.781 0 0 0-1.004-.44 1.94 1.94 0 0 0-1.11.23 2.32 2.32 0 0 0-.893.806 2.51 2.51 0 0 0-.399 1.169c-.04.432.022.867.186 1.305.165.438.398.785.696 1.041a1.8 1.8 0 0 0 1.004.441c.37.038.74-.04 1.11-.23.37-.191.667-.46.894-.807Zm7.24-10.344-.045 8.487-1.431.741-5.364-5.684 1.565-.81 3.807 4.072.029-6.06 1.439-.746Zm7.524 2.998.494 1.315-4.847 2.511-2.665-7.085 4.731-2.451.495 1.317-3.29 1.705.578 1.538 2.907-1.505.479 1.274-2.906 1.506.616 1.64 3.408-1.765Zm-1.024-6.358 2.843-1.473c.68-.353 1.335-.516 1.967-.493a2.832 2.832 0 0 1 1.682.609c.49.384.868.929 1.134 1.637.267.708.356 1.403.266 2.086a4.01 4.01 0 0 1-.749 1.87 4.597 4.597 0 0 1-1.637 1.373l-2.843 1.474-2.663-7.083Zm4.929 4.303c.626-.325 1.051-.781 1.276-1.368.225-.588.209-1.22-.045-1.894-.253-.674-.641-1.113-1.161-1.314-.521-.202-1.094-.14-1.721.184l-1.323.686 1.651 4.391 1.323-.685Z" fill="#407BFF"/><path fill-rule="evenodd" clip-rule="evenodd" d="M154.169 150.259c-2.749 4.261-5.162 8.011-7.91 12.259a.524.524 0 0 1-.755.142l-1.205-.862a.582.582 0 0 1-.155-.786c2.991-4.616 5.628-8.72 8.615-13.349.237-.386.819-.554 1.221-.352 2.253 1.055 4.499 2.102 6.755 3.155l-.545-1.892a.56.56 0 0 1 .366-.699l1.382-.398a.558.558 0 0 1 .678.397l1.156 4.009c1.726.81 3.021 1.412 4.749 2.212a.584.584 0 0 1 .291.747l-.561 1.371a.536.536 0 0 1-.718.282c-4.584-2.134-8.771-4.087-13.363-6.232l-.001-.004Z" fill="#1C49C2"/><path fill-rule="evenodd" clip-rule="evenodd" d="m149.514 167.172-1.505-5.22c2.2-3.403 4.394-6.814 6.591-10.216l11.015 5.144c-4.266 2.64-8.421 6.845-10.744 10.83l-4.475-2.982-.878 2.443-.004.001Zm4.813-11.066 1.134-.328.342 1.186-1.134.327-.342-1.185Zm1.683-.486 1.139-.328.342 1.185-1.139.329-.342-1.186Zm1.651 1.434.342 1.185-1.138.328-.342-1.185 1.138-.328Zm-1.349 1.673-1.135.327-.342-1.185 1.135-.328.342 1.186Zm-.591 13.78-3.461.998c-.471.136-.969-.15-1.112-.646l-1.156-4.009 5.729 3.657Z" fill="#1C49C2"/><path fill-rule="evenodd" clip-rule="evenodd" d="M156.464 172.293c1.367-5.689 4.031-10.51 9.147-15.408l3.143 10.898c.143.495-.123 1.001-.597 1.138l-11.693 3.372Z" fill="#1C49C2"/><path d="m176.395 165.948-2.354-8.164 2.789-.804c.57-.165 1.108-.203 1.61-.119.504.088.932.287 1.289.595.357.308.608.712.752 1.212.144.5.156.958.047 1.401-.11.442-.328.832-.65 1.158a2.78 2.78 0 0 1-1.234.711l-2.31.666.895 3.104-.834.24Zm-.26-4.033 2.31-.667c.512-.147.879-.44 1.111-.876.232-.435.265-.926.108-1.469-.157-.543-.486-.943-.977-1.17-.49-.228-1.043-.255-1.658-.078l-1.959.565 1.066 3.699-.001-.004Zm9.72 1.455c-.623.18-1.214.21-1.768.085a3.05 3.05 0 0 1-1.441-.752c-.404-.378-.693-.869-.866-1.468-.173-.6-.193-1.164-.057-1.702a2.983 2.983 0 0 1 .799-1.398 3.424 3.424 0 0 1 1.5-.857c.602-.174 1.173-.194 1.679-.05.506.143.939.42 1.297.826.359.405.631.915.807 1.527l-5.537 1.597.234-.306c.154.535.386.967.694 1.29.307.322.676.533 1.102.63.426.096.879.073 1.366-.067.487-.141.896-.38 1.183-.701.288-.321.477-.689.578-1.096l.752.175a2.893 2.893 0 0 1-.423.949 3.013 3.013 0 0 1-.78.785 3.67 3.67 0 0 1-1.126.526l.002.008.005-.001Zm-3.342-2.725-.387-.117 4.992-1.44-.263.314a2.343 2.343 0 0 0-.564-1.014 1.882 1.882 0 0 0-.916-.525c-.352-.09-.74-.071-1.165.051a2.578 2.578 0 0 0-1.071.594c-.3.278-.508.595-.629.966-.118.365-.117.757.001 1.167l.002.004Zm5.007-3.526-.185-.643 3.994-1.151.185.642-3.994 1.152Zm4.598 4.445c-.598.172-1.105.165-1.526-.022-.42-.187-.705-.539-.855-1.061l-1.775-6.156.779-.225 1.776 6.156c.089.31.259.528.507.643.249.12.55.126.905.024a1.3 1.3 0 0 0 .294-.127c.092-.055.215-.169.371-.341l.501.514c-.199.193-.37.327-.513.405-.147.08-.303.143-.464.19Zm5.269-1.519a5.664 5.664 0 0 1-1.383.24 3.805 3.805 0 0 1-1.106-.116 2.933 2.933 0 0 1-.846-.377 2.57 2.57 0 0 1-.6-.546l.702-.492c.255.324.635.559 1.148.71.513.151 1.081.137 1.704-.043.796-.229 1.375-.546 1.737-.949.362-.403.476-.828.346-1.281-.131-.452-.428-.726-.912-.867-.483-.141-1.066-.197-1.76-.155l-.981.054a5.319 5.319 0 0 1-1.226-.081 2.487 2.487 0 0 1-1.019-.434c-.285-.213-.485-.519-.599-.916-.21-.728-.115-1.376.288-1.931.401-.56 1.098-.98 2.092-1.267.599-.172 1.136-.229 1.623-.169a3.29 3.29 0 0 1 1.239.376c.341.191.593.412.758.659l-.687.487a2.173 2.173 0 0 0-1.215-.728c-.498-.113-1.048-.085-1.655.09-.639.184-1.107.469-1.401.857a1.39 1.39 0 0 0-.24 1.292c.123.427.365.708.719.834.355.131.784.18 1.294.15l.977-.067c.972-.07 1.763.038 2.376.319.609.282.987.663 1.126 1.146.119.414.113.826-.023 1.239-.135.413-.405.794-.812 1.135-.405.346-.961.618-1.658.82l-.006.011Zm7.315-2.11c-.623.18-1.213.21-1.767.085a3.013 3.013 0 0 1-1.442-.752c-.404-.378-.693-.869-.866-1.468-.172-.599-.192-1.163-.057-1.702a2.968 2.968 0 0 1 .812-1.401c.404-.397.914-.689 1.529-.866.614-.177 1.194-.214 1.739-.105a2.802 2.802 0 0 1 1.396.704l-.578.522a2.195 2.195 0 0 0-1.065-.548 2.69 2.69 0 0 0-1.307.069 2.555 2.555 0 0 0-1.148.667 2.32 2.32 0 0 0-.597 1.092c-.099.416-.081.869.056 1.343s.361.862.671 1.165c.311.303.678.505 1.099.603.423.102.87.085 1.336-.049a2.531 2.531 0 0 0 1.154-.678c.301-.321.491-.698.572-1.132l.783.129a2.93 2.93 0 0 1-.786 1.441c-.401.41-.914.707-1.537.887l.003-.006Zm3.825-1.253-1.682-5.832.78-.225 1.682 5.832-.78.225Zm-.6-3.291c-.182-.629-.196-1.176-.044-1.64.152-.464.412-.848.776-1.153a3.45 3.45 0 0 1 1.249-.659l.185.642c-.38.11-.73.276-1.045.498a1.902 1.902 0 0 0-.688.856c-.144.35-.144.77-.004 1.257l-.433.2.004-.001Zm7.291 1.511c-.623.18-1.213.21-1.768.085a3.013 3.013 0 0 1-1.441-.751c-.404-.379-.693-.87-.866-1.469-.173-.599-.192-1.163-.057-1.702a2.98 2.98 0 0 1 .799-1.397c.396-.395.898-.684 1.5-.858.602-.174 1.173-.193 1.679-.05.507.144.939.42 1.298.826.358.406.63.915.807 1.527l-5.537 1.597.233-.305c.154.534.386.967.694 1.289.307.322.677.533 1.102.63.426.097.879.073 1.366-.067.487-.14.896-.38 1.184-.701.287-.321.476-.688.577-1.096l.753.176a2.9 2.9 0 0 1-.424.948 3.024 3.024 0 0 1-.779.785 3.664 3.664 0 0 1-1.127.526l.003.009.004-.002Zm-3.342-2.724-.387-.118 4.992-1.439-.262.313c-.12-.413-.305-.747-.565-1.013a1.902 1.902 0 0 0-.916-.525c-.352-.09-.74-.072-1.165.051a2.573 2.573 0 0 0-1.071.594c-.3.277-.508.594-.629.965s-.117.758.002 1.167l.001.005Zm10.064.786c-.623.18-1.213.21-1.767.085a3.014 3.014 0 0 1-1.441-.752c-.404-.378-.694-.869-.866-1.468-.173-.599-.193-1.163-.058-1.702a2.998 2.998 0 0 1 .8-1.398c.395-.394.897-.683 1.5-.857.602-.174 1.173-.194 1.679-.05.506.143.939.42 1.297.826.359.405.631.915.807 1.527l-5.537 1.597.234-.306c.154.535.386.968.694 1.29.307.322.676.533 1.102.63.425.097.879.073 1.366-.067.487-.141.896-.38 1.183-.701.288-.321.477-.688.578-1.096l.752.176a2.919 2.919 0 0 1-.423.948c-.201.296-.46.562-.78.785a3.67 3.67 0 0 1-1.126.526l.002.008.004-.001Zm-3.342-2.725-.386-.117 4.992-1.44-.263.314a2.33 2.33 0 0 0-.565-1.013 1.894 1.894 0 0 0-.915-.525c-.352-.09-.74-.072-1.165.051a2.576 2.576 0 0 0-1.071.593c-.3.278-.508.595-.629.966s-.117.758.001 1.167l.001.004Zm7.217 1.458-1.682-5.832.726-.209.363 1.057 1.372 4.759-.779.225Zm3.796-4.33c-.186-.647-.409-1.11-.675-1.398-.266-.287-.558-.446-.886-.482a2.62 2.62 0 0 0-1.03.101c-.614.177-1.035.518-1.263 1.027-.229.51-.238 1.129-.028 1.857l-.478.138c-.179-.621-.234-1.184-.164-1.685.07-.501.264-.926.58-1.274.315-.347.752-.599 1.305-.759.503-.145.971-.182 1.408-.107.436.07.826.275 1.159.609.333.333.592.828.771 1.482l.077.267-.78.225.004-.001Zm.862 2.987-.862-2.987.78-.225.862 2.987-.78.225Zm.538-8.116a.55.55 0 0 1-.403-.033.441.441 0 0 1-.19-.66.556.556 0 0 1 .325-.238.553.553 0 0 1 .409.027.459.459 0 0 1 .191.659.532.532 0 0 1-.332.245Zm1.719 7.465-1.682-5.832.78-.225 1.682 5.832-.78.225Zm2.475-.714-1.682-5.832.727-.209.363 1.058 1.372 4.758-.78.225Zm3.797-4.33c-.186-.647-.409-1.11-.676-1.398-.266-.287-.557-.446-.885-.482a2.618 2.618 0 0 0-1.03.101c-.615.177-1.035.518-1.263 1.027-.229.51-.238 1.129-.028 1.857l-.479.138c-.179-.62-.234-1.184-.164-1.685.07-.501.265-.926.58-1.274.316-.347.752-.599 1.305-.759.504-.145.971-.182 1.408-.107.436.07.826.276 1.159.609.333.334.592.829.772 1.482l.077.267-.78.225.004-.001Zm.861 2.987-.861-2.987.78-.225.861 2.987-.78.225Zm4.749-1.369c-.569.164-1.114.181-1.629.054a2.792 2.792 0 0 1-1.344-.771c-.382-.38-.656-.866-.824-1.447-.168-.582-.192-1.131-.068-1.648.123-.516.37-.961.734-1.341.369-.382.836-.652 1.409-.818.574-.165 1.076-.174 1.57-.041.494.133.92.383 1.287.758.368.375.631.855.799 1.437.168.582.198 1.138.094 1.658a2.826 2.826 0 0 1-.678 1.354c-.346.38-.797.645-1.35.805Zm.646 2.489a4.965 4.965 0 0 1-1.11.194 6.09 6.09 0 0 1-.902-.011 12.925 12.925 0 0 1-.522-.06l.117-.664c.119.027.295.046.533.066.234.021.501.019.799-.002.298-.02.599-.079.9-.166.45-.129.826-.327 1.134-.593.307-.266.511-.6.615-1.013.101-.407.074-.89-.085-1.441l-1.526-5.294.779-.225 1.527 5.294c.195.676.216 1.277.065 1.806-.151.53-.435.971-.848 1.323a3.894 3.894 0 0 1-1.473.78l-.003.006Zm-.672-3.154c.416-.12.754-.33 1.012-.628.262-.3.429-.651.507-1.062.078-.41.05-.85-.084-1.315-.135-.466-.341-.841-.625-1.142a2.162 2.162 0 0 0-.99-.615 2.13 2.13 0 0 0-1.201.019c-.45.13-.818.343-1.106.646a2.223 2.223 0 0 0-.569 1.065c-.091.41-.074.843.059 1.305.133.461.353.85.654 1.151.301.301.654.502 1.061.609.406.107.832.097 1.282-.033Zm-71.564 9.183-2.354-8.164 5.826-1.68.42 1.457-4.048 1.167.565 1.957 3.371-.972.42 1.457-3.371.972.948 3.289-1.778.513.001.004Zm7.135-2.057-1.682-5.832 1.712-.494 1.682 5.832-1.712.494Zm.32-3.417c-.182-.629-.196-1.19-.042-1.678.153-.492.415-.899.786-1.226a3.226 3.226 0 0 1 1.254-.688l.43 1.491a4.948 4.948 0 0 0-1.085.453c-.326.188-.571.408-.729.664a1.002 1.002 0 0 0-.111.839l-.508.147.005-.002Zm7.892 1.198c-.64.184-1.242.218-1.813.098a3.064 3.064 0 0 1-1.47-.743c-.413-.376-.706-.866-.879-1.465-.172-.6-.18-1.167-.024-1.712.157-.54.453-1.017.882-1.421.433-.405.976-.706 1.632-.896a3.32 3.32 0 0 1 1.692-.053 3.095 3.095 0 0 1 1.494.843c.438.434.764 1.022.977 1.759l-4.918 1.418.117-.183c.083.289.233.517.455.681.223.169.477.274.765.312.288.038.577.016.874-.07.355-.102.623-.254.812-.453.183-.203.305-.429.367-.68l1.685.093c-.087.38-.242.728-.462 1.048-.221.32-.515.601-.875.841-.36.239-.797.43-1.308.578l-.004.001.001.004Zm-2.468-3.243-.197-.093 3.128-.902-.105.18c-.081-.28-.22-.483-.412-.609a1.352 1.352 0 0 0-.642-.212 1.853 1.853 0 0 0-.649.061 2.048 2.048 0 0 0-.602.299 1.488 1.488 0 0 0-.472.533c-.112.215-.126.462-.045.742l-.004.001Zm9.978 1.078c-.64.184-1.242.218-1.813.098a3.075 3.075 0 0 1-1.47-.744c-.413-.376-.706-.866-.879-1.465-.173-.599-.18-1.166-.024-1.711a3.13 3.13 0 0 1 .882-1.421c.433-.405.976-.707 1.632-.896a3.321 3.321 0 0 1 1.692-.054c.555.13 1.056.41 1.494.844.438.434.764 1.022.977 1.759l-4.919 1.418.117-.183c.084.289.234.516.456.681.223.169.477.273.765.312.288.038.576.016.873-.07.355-.102.624-.255.813-.454.183-.202.305-.429.367-.68l1.684.093c-.087.38-.241.728-.461 1.049-.221.32-.515.601-.875.84a4.71 4.71 0 0 1-1.308.578l-.005.001.002.005Zm-2.468-3.243-.197-.093 3.128-.902-.105.18c-.081-.281-.22-.483-.413-.61a1.36 1.36 0 0 0-.642-.212 1.871 1.871 0 0 0-.648.061 2.028 2.028 0 0 0-.602.3 1.48 1.48 0 0 0-.472.533c-.112.214-.126.461-.045.741l-.004.002Z" fill="#1C49C2"/></g><defs><clipPath id="clip0_864_17184"><path fill="#fff" d="M0 0h474v363H0z"/></clipPath></defs></svg>