<svg width="36" height="42" viewBox="0 0 36 42" fill="none" xmlns="http://www.w3.org/2000/svg"><g clip-path="url(#clip0_864_17593)"><path d="M19.753.23H4.85a4.412 4.412 0 0 0-3.1 1.268 4.299 4.299 0 0 0-1.283 3.06v32.884a4.3 4.3 0 0 0 1.284 3.06 4.412 4.412 0 0 0 3.099 1.267h26.299c.575 0 1.145-.112 1.677-.33a4.388 4.388 0 0 0 1.422-.937c.407-.402.73-.879.95-1.404.22-.525.334-1.087.334-1.656V15.808l-12.273-3.462L19.753.231Z" fill="url(#paint0_linear_864_17593)"/><path d="M19.753.23H4.85a4.412 4.412 0 0 0-3.1 1.268 4.299 4.299 0 0 0-1.283 3.06v32.884a4.3 4.3 0 0 0 1.284 3.06 4.412 4.412 0 0 0 3.099 1.267h26.299c.575 0 1.145-.112 1.677-.33a4.388 4.388 0 0 0 1.422-.937c.407-.402.73-.879.95-1.404.22-.525.334-1.087.334-1.656V15.808l-12.273-3.462L19.753.231Z" fill="url(#paint1_radial_864_17593)" fill-opacity=".5"/><path d="M19.753.23H4.85a4.412 4.412 0 0 0-3.1 1.268 4.299 4.299 0 0 0-1.283 3.06v32.884a4.3 4.3 0 0 0 1.284 3.06 4.412 4.412 0 0 0 3.099 1.267h26.299c.575 0 1.145-.112 1.677-.33a4.388 4.388 0 0 0 1.422-.937c.407-.402.73-.879.95-1.404.22-.525.334-1.087.334-1.656V15.808l-12.273-3.462L19.753.231Z" fill="url(#paint2_radial_864_17593)" fill-opacity=".3"/><path d="M19.752 13.211V.231l15.78 15.577h-13.15a2.647 2.647 0 0 1-1.86-.76 2.58 2.58 0 0 1-.77-1.837Z" fill="url(#paint3_linear_864_17593)"/><path d="M19.752 13.211V.231l15.78 15.577h-13.15a2.647 2.647 0 0 1-1.86-.76 2.58 2.58 0 0 1-.77-1.837Z" fill="url(#paint4_linear_864_17593)"/></g><defs><linearGradient id="paint0_linear_864_17593" x1="25.012" y1=".231" x2="27.384" y2="32.424" gradientUnits="userSpaceOnUse"><stop stop-color="#6CE0FF"/><stop offset="1" stop-color="#4894FE"/></linearGradient><linearGradient id="paint3_linear_864_17593" x1="27.642" y1=".231" x2="27.642" y2="15.808" gradientUnits="userSpaceOnUse"><stop stop-color="#D9D9D9"/><stop offset="1" stop-color="#737373"/></linearGradient><linearGradient id="paint4_linear_864_17593" x1="27.615" y1="6.721" x2="23.745" y2="13.255" gradientUnits="userSpaceOnUse"><stop stop-color="#9FF0F9"/><stop offset="1" stop-color="#B3E0FF"/></linearGradient><radialGradient id="paint1_radial_864_17593" cx="0" cy="0" r="1" gradientUnits="userSpaceOnUse" gradientTransform="rotate(134.335 18.175 8.552) scale(28.4323 16.8126)"><stop offset=".362" stop-color="#4A43CB"/><stop offset="1" stop-color="#4A43CB" stop-opacity="0"/></radialGradient><radialGradient id="paint2_radial_864_17593" cx="0" cy="0" r="1" gradientUnits="userSpaceOnUse" gradientTransform="rotate(134.335 18.175 8.552) scale(28.4323 16.8126)"><stop offset=".362" stop-color="#4A43CB"/><stop offset="1" stop-color="#4A43CB" stop-opacity="0"/></radialGradient><clipPath id="clip0_864_17593"><path fill="#fff" d="M0 0h36v42H0z"/></clipPath></defs></svg>