<svg width="175" height="187" viewBox="0 0 175 187" fill="none" xmlns="http://www.w3.org/2000/svg">
<g opacity="0.15" filter="url(#filter0_f_317_37936)">
<path d="M134.719 150.829L20.5 163.847V150.235L29.3791 148.216L38.5976 148.171L51.9785 143.596L65.2916 143.625L80.9347 139.007L89.8139 139.546L101.08 137.485L118.148 139.025L129.753 137L134.719 137.293V150.829Z" fill="url(#paint0_linear_317_37936)"/>
<path d="M144.965 151.858L30.7462 164.876V155.574L39.6253 153.557L48.8438 153.513L69.328 148.314L80.2545 148.154L93.5789 144.083L103.476 144.887L114.742 142.826L128.406 142.201L139.999 140.175L144.965 140.468V151.858Z" fill="#D4F2E4"/>
<path d="M144.965 151.858L30.7462 164.876V155.574L39.6253 153.557L48.8438 153.513L69.328 148.314L80.2545 148.154L93.5789 144.083L103.476 144.887L114.742 142.826L128.406 142.201L139.999 140.175L144.965 140.468V151.858Z" fill="url(#paint1_linear_317_37936)" fill-opacity="0.5"/>
<path d="M154.818 152.995L40.611 166.013V161.805L54.6027 159.436L67.9271 158.382L88.4114 152.953L95.5826 153.219L103.432 150.776L113.341 150.421L124.595 148.36L138.259 149.204L149.864 146.869L154.818 146.777V152.995Z" fill="#D4F2E4"/>
</g>
<path fill-rule="evenodd" clip-rule="evenodd" d="M122.961 95.5382C123.046 95.7809 123.209 95.9988 123.449 96.1457L123.8 96.3605L127.65 98.7167L127.653 98.7189V98.7148L132.846 101.897L136.635 104.215C137.278 104.609 137.996 104.804 138.713 104.802V77.177H154.532L154.532 25.46L127.948 25.1626L122.891 25.433L122.961 95.5382Z" fill="#D4F2E4"/>
<path fill-rule="evenodd" clip-rule="evenodd" d="M122.961 95.5382C123.046 95.7809 123.209 95.9988 123.449 96.1457L123.8 96.3605L127.65 98.7167L127.653 98.7189V98.7148L132.846 101.897L136.635 104.215C137.278 104.609 137.996 104.804 138.713 104.802V77.177H154.532L154.532 25.46L127.948 25.1626L122.891 25.433L122.961 95.5382Z" fill="url(#paint2_linear_317_37936)" fill-opacity="0.15"/>
<path fill-rule="evenodd" clip-rule="evenodd" d="M122.961 95.5382C123.046 95.7809 123.209 95.9988 123.449 96.1457L123.8 96.3605L127.65 98.7167L127.653 98.7189V98.7148L132.846 101.897L136.635 104.215C137.278 104.609 137.996 104.804 138.713 104.802V77.177H154.532L154.532 25.46L127.948 25.1626L122.891 25.433L122.961 95.5382Z" fill="url(#paint3_linear_317_37936)" fill-opacity="0.35"/>
<path fill-rule="evenodd" clip-rule="evenodd" d="M122.961 95.5382C123.046 95.7809 123.209 95.9988 123.449 96.1457L123.8 96.3605L127.65 98.7167L127.653 98.7189V98.7148L132.846 101.897L136.635 104.215C137.278 104.609 137.996 104.804 138.713 104.802V77.177H154.532L154.532 25.46L127.948 25.1626L122.891 25.433L122.961 95.5382Z" fill="url(#paint4_linear_317_37936)"/>
<path fill-rule="evenodd" clip-rule="evenodd" d="M154.465 95.5384C154.38 95.7812 154.217 95.9991 153.978 96.146L153.627 96.3607L149.776 98.7169L149.773 98.7192V98.7151L144.58 101.897L140.791 104.216C140.148 104.609 139.431 104.805 138.713 104.803V25.2833L149.478 25.1628L154.535 25.4332L154.465 95.5384Z" fill="#D4F2E4"/>
<path fill-rule="evenodd" clip-rule="evenodd" d="M154.465 95.5384C154.38 95.7812 154.217 95.9991 153.978 96.146L153.627 96.3607L149.776 98.7169L149.773 98.7192V98.7151L144.58 101.897L140.791 104.216C140.148 104.609 139.431 104.805 138.713 104.803V25.2833L149.478 25.1628L154.535 25.4332L154.465 95.5384Z" fill="url(#paint5_linear_317_37936)" fill-opacity="0.4"/>
<path fill-rule="evenodd" clip-rule="evenodd" d="M154.465 95.5384C154.38 95.7812 154.217 95.9991 153.978 96.146L153.627 96.3607L149.776 98.7169L149.773 98.7192V98.7151L144.58 101.897L140.791 104.216C140.148 104.609 139.431 104.805 138.713 104.803V25.2833L149.478 25.1628L154.535 25.4332L154.465 95.5384Z" fill="url(#paint6_linear_317_37936)"/>
<path fill-rule="evenodd" clip-rule="evenodd" d="M154.465 95.5384C154.38 95.7812 154.217 95.9991 153.978 96.146L153.627 96.3607L149.776 98.7169L149.773 98.7192V98.7151L144.58 101.897L140.791 104.216C140.148 104.609 139.431 104.805 138.713 104.803V25.2833L149.478 25.1628L154.535 25.4332L154.465 95.5384Z" fill="url(#paint7_linear_317_37936)" fill-opacity="0.5"/>
<path fill-rule="evenodd" clip-rule="evenodd" d="M154.465 95.5384C154.38 95.7812 154.217 95.9991 153.978 96.146L153.627 96.3607L149.776 98.7169L149.773 98.7192V98.7151L144.58 101.897L140.791 104.216C140.148 104.609 139.431 104.805 138.713 104.803V25.2833L149.478 25.1628L154.535 25.4332L154.465 95.5384Z" fill="url(#paint8_linear_317_37936)"/>
<path fill-rule="evenodd" clip-rule="evenodd" d="M154.465 95.5384C154.38 95.7812 154.217 95.9991 153.978 96.146L153.627 96.3607L149.776 98.7169L149.773 98.7192V98.7151L144.58 101.897L140.791 104.216C140.148 104.609 139.431 104.805 138.713 104.803V25.2833L149.478 25.1628L154.535 25.4332L154.465 95.5384Z" fill="black" fill-opacity="0.1"/>
<path d="M140.66 16.251L153.816 24.1455C154.177 24.3623 154.358 24.7421 154.358 25.1218C154.358 25.5018 154.178 25.8809 153.816 26.0976L149.001 28.9869L145.069 31.3463L140.67 33.9866C139.398 34.7499 137.831 34.7499 136.56 33.9866L132.791 31.7254L127.627 28.6223V28.6263L127.624 28.624L123.795 26.3262L123.445 26.1167C123.207 25.9735 123.045 25.761 122.961 25.5242C122.914 25.3941 122.891 25.2564 122.891 25.1187C122.89 24.7303 123.075 24.3416 123.445 24.1196L136.549 16.2517C137.821 15.4879 139.388 15.4877 140.66 16.251Z" fill="#F0FAF6"/>
<path fill-rule="evenodd" clip-rule="evenodd" d="M96.7189 109.351C96.804 109.594 96.9666 109.812 97.2062 109.959L97.5573 110.173L101.408 112.53L101.411 112.532V112.528L106.604 115.71L110.393 118.028C111.036 118.422 111.753 118.617 112.471 118.615V91.1104L101.706 90.99L96.6484 91.2604L96.7189 109.351Z" fill="#D4F2E4"/>
<path fill-rule="evenodd" clip-rule="evenodd" d="M96.7189 109.351C96.804 109.594 96.9666 109.812 97.2062 109.959L97.5573 110.173L101.408 112.53L101.411 112.532V112.528L106.604 115.71L110.393 118.028C111.036 118.422 111.753 118.617 112.471 118.615V91.1104L101.706 90.99L96.6484 91.2604L96.7189 109.351Z" fill="url(#paint9_linear_317_37936)" fill-opacity="0.15"/>
<path fill-rule="evenodd" clip-rule="evenodd" d="M96.7189 109.351C96.804 109.594 96.9666 109.812 97.2062 109.959L97.5573 110.173L101.408 112.53L101.411 112.532V112.528L106.604 115.71L110.393 118.028C111.036 118.422 111.753 118.617 112.471 118.615V91.1104L101.706 90.99L96.6484 91.2604L96.7189 109.351Z" fill="url(#paint10_linear_317_37936)" fill-opacity="0.65"/>
<path fill-rule="evenodd" clip-rule="evenodd" d="M128.223 109.351C128.137 109.594 127.975 109.812 127.735 109.959L127.384 110.173L123.534 112.53L123.531 112.532V112.528L118.338 115.71L114.548 118.028C113.906 118.421 113.189 118.617 112.473 118.615V91.1104L123.236 90.99L128.293 91.2604L128.223 109.351ZM96.6518 91.2874V108.972C96.6515 108.961 96.6513 108.95 96.6513 108.939L96.6513 91.2874L96.6518 91.2874Z" fill="#D4F2E4"/>
<path fill-rule="evenodd" clip-rule="evenodd" d="M128.223 109.351C128.137 109.594 127.975 109.812 127.735 109.959L127.384 110.173L123.534 112.53L123.531 112.532V112.528L118.338 115.71L114.548 118.028C113.906 118.421 113.189 118.617 112.473 118.615V91.1104L123.236 90.99L128.293 91.2604L128.223 109.351ZM96.6518 91.2874V108.972C96.6515 108.961 96.6513 108.95 96.6513 108.939L96.6513 91.2874L96.6518 91.2874Z" fill="url(#paint11_linear_317_37936)" fill-opacity="0.4"/>
<path fill-rule="evenodd" clip-rule="evenodd" d="M128.223 109.351C128.137 109.594 127.975 109.812 127.735 109.959L127.384 110.173L123.534 112.53L123.531 112.532V112.528L118.338 115.71L114.548 118.028C113.906 118.421 113.189 118.617 112.473 118.615V91.1104L123.236 90.99L128.293 91.2604L128.223 109.351ZM96.6518 91.2874V108.972C96.6515 108.961 96.6513 108.95 96.6513 108.939L96.6513 91.2874L96.6518 91.2874Z" fill="url(#paint12_linear_317_37936)"/>
<path fill-rule="evenodd" clip-rule="evenodd" d="M128.223 109.351C128.137 109.594 127.975 109.812 127.735 109.959L127.384 110.173L123.534 112.53L123.531 112.532V112.528L118.338 115.71L114.548 118.028C113.906 118.421 113.189 118.617 112.473 118.615V91.1104L123.236 90.99L128.293 91.2604L128.223 109.351ZM96.6518 91.2874V108.972C96.6515 108.961 96.6513 108.95 96.6513 108.939L96.6513 91.2874L96.6518 91.2874Z" fill="url(#paint13_linear_317_37936)"/>
<path d="M114.418 82.2574L127.573 90.1519C127.935 90.3686 128.116 90.7484 128.116 91.1282C128.116 91.5081 127.935 91.8872 127.574 92.104L122.759 94.9933L118.827 97.3527L114.427 99.993C113.156 100.756 111.589 100.756 110.317 99.993L106.549 97.7317L101.385 94.6286V94.6326L101.381 94.6304L97.5523 92.3325L97.2031 92.1231C96.9649 91.9798 96.8031 91.7673 96.7185 91.5306C96.6719 91.4004 96.6484 91.2627 96.6484 91.1251C96.648 90.7366 96.8328 90.348 97.2027 90.1259L110.307 82.258C111.579 81.4943 113.146 81.4941 114.418 82.2574Z" fill="#F0FAF6"/>
<path fill-rule="evenodd" clip-rule="evenodd" d="M70.1288 123.691C70.2139 123.934 70.3765 124.152 70.6161 124.299L70.9672 124.513L74.8175 126.87L74.8207 126.872V126.868L80.0137 130.05L83.8028 132.368C84.4455 132.762 85.1633 132.957 85.8806 132.955V105.33H101.7L101.7 66.6165L75.1156 66.3191L70.0583 66.5895L70.1288 123.691Z" fill="#D4F2E4"/>
<path fill-rule="evenodd" clip-rule="evenodd" d="M70.1288 123.691C70.2139 123.934 70.3765 124.152 70.6161 124.299L70.9672 124.513L74.8175 126.87L74.8207 126.872V126.868L80.0137 130.05L83.8028 132.368C84.4455 132.762 85.1633 132.957 85.8806 132.955V105.33H101.7L101.7 66.6165L75.1156 66.3191L70.0583 66.5895L70.1288 123.691Z" fill="url(#paint14_linear_317_37936)" fill-opacity="0.15"/>
<path fill-rule="evenodd" clip-rule="evenodd" d="M70.1288 123.691C70.2139 123.934 70.3765 124.152 70.6161 124.299L70.9672 124.513L74.8175 126.87L74.8207 126.872V126.868L80.0137 130.05L83.8028 132.368C84.4455 132.762 85.1633 132.957 85.8806 132.955V105.33H101.7L101.7 66.6165L75.1156 66.3191L70.0583 66.5895L70.1288 123.691Z" fill="url(#paint15_linear_317_37936)" fill-opacity="0.35"/>
<path fill-rule="evenodd" clip-rule="evenodd" d="M101.634 123.691C101.549 123.934 101.387 124.152 101.147 124.299L100.796 124.513L96.9458 126.87L96.9426 126.872V126.868L91.7496 130.05L87.9605 132.368C87.3178 132.762 86.6 132.957 85.8827 132.955V66.4395L96.6477 66.3191L101.705 66.5895L101.634 123.691Z" fill="#D4F2E4"/>
<path fill-rule="evenodd" clip-rule="evenodd" d="M101.634 123.691C101.549 123.934 101.387 124.152 101.147 124.299L100.796 124.513L96.9458 126.87L96.9426 126.872V126.868L91.7496 130.05L87.9605 132.368C87.3178 132.762 86.6 132.957 85.8827 132.955V66.4395L96.6477 66.3191L101.705 66.5895L101.634 123.691Z" fill="url(#paint16_linear_317_37936)" fill-opacity="0.4"/>
<path fill-rule="evenodd" clip-rule="evenodd" d="M101.634 123.691C101.549 123.934 101.387 124.152 101.147 124.299L100.796 124.513L96.9458 126.87L96.9426 126.872V126.868L91.7496 130.05L87.9605 132.368C87.3178 132.762 86.6 132.957 85.8827 132.955V66.4395L96.6477 66.3191L101.705 66.5895L101.634 123.691Z" fill="url(#paint17_linear_317_37936)"/>
<path fill-rule="evenodd" clip-rule="evenodd" d="M101.634 123.691C101.549 123.934 101.387 124.152 101.147 124.299L100.796 124.513L96.9458 126.87L96.9426 126.872V126.868L91.7496 130.05L87.9605 132.368C87.3178 132.762 86.6 132.957 85.8827 132.955V66.4395L96.6477 66.3191L101.705 66.5895L101.634 123.691Z" fill="url(#paint18_linear_317_37936)" fill-opacity="0.5"/>
<path d="M87.9286 57.9085L101.159 65.803C101.522 66.0198 101.704 66.3995 101.704 66.7793C101.704 67.1593 101.522 67.5384 101.159 67.7551L96.3168 70.6444L92.3628 73.0038L87.938 75.6441C86.6591 76.4074 85.0834 76.4074 83.8046 75.6441L80.0151 73.3829L74.8215 70.2797V70.2837L74.8182 70.2815L70.9674 67.9836L70.6163 67.7742C70.3767 67.631 70.214 67.4184 70.129 67.1817C70.0821 67.0516 70.0585 66.9139 70.0585 66.7762C70.058 66.3878 70.2439 65.9991 70.6159 65.777L83.7941 57.9092C85.0733 57.1454 86.6492 57.1452 87.9286 57.9085Z" fill="#F0FAF6"/>
<path fill-rule="evenodd" clip-rule="evenodd" d="M44.8887 137.504C44.9738 137.747 45.1364 137.965 45.376 138.112L45.7271 138.326L49.5774 140.683L49.5806 140.685V140.681L54.7736 143.863L58.5627 146.181C59.2054 146.575 59.9232 146.77 60.6405 146.768V119.143H76.4599L76.4599 106.437L49.8755 106.139L44.8182 106.41L44.8887 137.504Z" fill="#D4F2E4"/>
<path fill-rule="evenodd" clip-rule="evenodd" d="M44.8887 137.504C44.9738 137.747 45.1364 137.965 45.376 138.112L45.7271 138.326L49.5774 140.683L49.5806 140.685V140.681L54.7736 143.863L58.5627 146.181C59.2054 146.575 59.9232 146.77 60.6405 146.768V119.143H76.4599L76.4599 106.437L49.8755 106.139L44.8182 106.41L44.8887 137.504Z" fill="url(#paint19_linear_317_37936)" fill-opacity="0.15"/>
<path fill-rule="evenodd" clip-rule="evenodd" d="M44.8887 137.504C44.9738 137.747 45.1364 137.965 45.376 138.112L45.7271 138.326L49.5774 140.683L49.5806 140.685V140.681L54.7736 143.863L58.5627 146.181C59.2054 146.575 59.9232 146.77 60.6405 146.768V119.143H76.4599L76.4599 106.437L49.8755 106.139L44.8182 106.41L44.8887 137.504Z" fill="url(#paint20_linear_317_37936)" fill-opacity="0.15"/>
<path fill-rule="evenodd" clip-rule="evenodd" d="M76.3941 137.504C76.3091 137.747 76.1464 137.965 75.9069 138.112L75.5558 138.326L71.7054 140.683L71.7022 140.685V140.681L66.5092 143.863L62.7201 146.181C62.078 146.574 61.3611 146.77 60.6444 146.768V106.26L71.4073 106.139L76.4646 106.41L76.3941 137.504ZM44.8236 106.437V137.131C44.8231 137.118 44.8229 137.105 44.8229 137.092L44.8229 106.437L44.8236 106.437Z" fill="#D4F2E4"/>
<path fill-rule="evenodd" clip-rule="evenodd" d="M76.3941 137.504C76.3091 137.747 76.1464 137.965 75.9069 138.112L75.5558 138.326L71.7054 140.683L71.7022 140.685V140.681L66.5092 143.863L62.7201 146.181C62.078 146.574 61.3611 146.77 60.6444 146.768V106.26L71.4073 106.139L76.4646 106.41L76.3941 137.504ZM44.8236 106.437V137.131C44.8231 137.118 44.8229 137.105 44.8229 137.092L44.8229 106.437L44.8236 106.437Z" fill="url(#paint21_linear_317_37936)" fill-opacity="0.4"/>
<path fill-rule="evenodd" clip-rule="evenodd" d="M76.3941 137.504C76.3091 137.747 76.1464 137.965 75.9069 138.112L75.5558 138.326L71.7054 140.683L71.7022 140.685V140.681L66.5092 143.863L62.7201 146.181C62.078 146.574 61.3611 146.77 60.6444 146.768V106.26L71.4073 106.139L76.4646 106.41L76.3941 137.504ZM44.8236 106.437V137.131C44.8231 137.118 44.8229 137.105 44.8229 137.092L44.8229 106.437L44.8236 106.437Z" fill="url(#paint22_linear_317_37936)"/>
<path fill-rule="evenodd" clip-rule="evenodd" d="M76.3941 137.504C76.3091 137.747 76.1464 137.965 75.9069 138.112L75.5558 138.326L71.7054 140.683L71.7022 140.685V140.681L66.5092 143.863L62.7201 146.181C62.078 146.574 61.3611 146.77 60.6444 146.768V106.26L71.4073 106.139L76.4646 106.41L76.3941 137.504ZM44.8236 106.437V137.131C44.8231 137.118 44.8229 137.105 44.8229 137.092L44.8229 106.437L44.8236 106.437Z" fill="url(#paint23_linear_317_37936)" fill-opacity="0.2"/>
<path d="M62.6886 97.6498L75.9189 105.589C76.2825 105.807 76.464 106.189 76.4642 106.571C76.4642 106.953 76.2827 107.334 75.9191 107.552L71.077 110.458L67.1229 112.831L62.6981 115.486C61.4191 116.254 59.8434 116.254 58.5646 115.486L54.775 113.212L49.5813 110.091V110.095L49.5781 110.093L45.7272 107.782L45.3761 107.572C45.1365 107.427 44.9738 107.214 44.8887 106.976C44.8419 106.845 44.8182 106.706 44.8182 106.568C44.8178 106.177 45.0037 105.786 45.3756 105.563L58.5541 97.6504C59.8333 96.8824 61.4092 96.8821 62.6886 97.6498Z" fill="#F0FAF6"/>
<path fill-rule="evenodd" clip-rule="evenodd" d="M20.5705 151.005C20.6555 151.248 20.8182 151.466 21.0577 151.612L21.4088 151.827L25.2592 154.183L25.2624 154.186V154.182L30.4554 157.364L34.2445 159.682C34.8872 160.076 35.6049 160.271 36.3223 160.269V132.764L25.5573 132.644L20.5 132.914L20.5705 151.005Z" fill="#D4F2E4"/>
<path fill-rule="evenodd" clip-rule="evenodd" d="M20.5705 151.005C20.6555 151.248 20.8182 151.466 21.0577 151.612L21.4088 151.827L25.2592 154.183L25.2624 154.186V154.182L30.4554 157.364L34.2445 159.682C34.8872 160.076 35.6049 160.271 36.3223 160.269V132.764L25.5573 132.644L20.5 132.914L20.5705 151.005Z" fill="url(#paint24_linear_317_37936)" fill-opacity="0.15"/>
<path fill-rule="evenodd" clip-rule="evenodd" d="M52.0721 151.005C51.987 151.248 51.8244 151.466 51.5848 151.612L51.2338 151.827L47.3834 154.183L47.3802 154.186V154.182L42.1872 157.364L38.3981 159.682C37.7554 160.076 37.0377 160.271 36.3203 160.269V132.764L47.0853 132.644L52.1426 132.914L52.0721 151.005Z" fill="#D4F2E4"/>
<path fill-rule="evenodd" clip-rule="evenodd" d="M52.0721 151.005C51.987 151.248 51.8244 151.466 51.5848 151.612L51.2338 151.827L47.3834 154.183L47.3802 154.186V154.182L42.1872 157.364L38.3981 159.682C37.7554 160.076 37.0377 160.271 36.3203 160.269V132.764L47.0853 132.644L52.1426 132.914L52.0721 151.005Z" fill="url(#paint25_linear_317_37936)" fill-opacity="0.4"/>
<path fill-rule="evenodd" clip-rule="evenodd" d="M52.0721 151.005C51.987 151.248 51.8244 151.466 51.5848 151.612L51.2338 151.827L47.3834 154.183L47.3802 154.186V154.182L42.1872 157.364L38.3981 159.682C37.7554 160.076 37.0377 160.271 36.3203 160.269V132.764L47.0853 132.644L52.1426 132.914L52.0721 151.005Z" fill="url(#paint26_linear_317_37936)"/>
<path d="M38.2695 123.911L51.425 131.806C51.7865 132.022 51.9671 132.402 51.9673 132.782C51.9673 133.162 51.7868 133.541 51.4252 133.758L46.6104 136.647L42.6787 139.006L38.2789 141.647C37.0071 142.41 35.4403 142.41 34.1688 141.647L30.4005 139.386L25.2362 136.282V136.286L25.233 136.284L21.4038 133.986L21.0547 133.777C20.8164 133.634 20.6547 133.421 20.5701 133.184C20.5235 133.054 20.5 132.917 20.5 132.779C20.4996 132.39 20.6844 132.002 21.0543 131.78L34.1583 123.912C35.4303 123.148 36.9973 123.148 38.2695 123.911Z" fill="#F0FAF6"/>
<path d="M36.8917 60.2432L32.5039 62.7604L30.4023 58.9269L30.8874 38.6508L31.7418 33.1084L36.8917 35.1868V60.2432Z" fill="#D9D9D9"/>
<path d="M36.8917 60.2432L32.5039 62.7604L30.4023 58.9269L30.8874 38.6508L31.7418 33.1084L36.8917 35.1868V60.2432Z" fill="#D4F2E4"/>
<path d="M36.8917 60.2432L32.5039 62.7604L30.4023 58.9269L30.8874 38.6508L31.7418 33.1084L36.8917 35.1868V60.2432Z" fill="url(#paint27_linear_317_37936)" fill-opacity="0.15"/>
<path d="M33.4607 10L29.1211 12.4631L32.4005 27.9835L37.2943 36.7882L41.9218 34.2901L33.4607 10Z" fill="#D9D9D9"/>
<path d="M33.4607 10L29.1211 12.4631L32.4005 27.9835L37.2943 36.7882L41.9218 34.2901L33.4607 10Z" fill="#D4F2E4"/>
<path fill-rule="evenodd" clip-rule="evenodd" d="M32.5095 34.0562L37.3002 36.844L29.1165 12.417L20.5 27.068L25.7246 30.1082V58.9636L32.5095 62.8407V34.0562Z" fill="#D9D9D9"/>
<path fill-rule="evenodd" clip-rule="evenodd" d="M32.5095 34.0562L37.3002 36.844L29.1165 12.417L20.5 27.068L25.7246 30.1082V58.9636L32.5095 62.8407V34.0562Z" fill="#D4F2E4"/>
<path fill-rule="evenodd" clip-rule="evenodd" d="M32.5095 34.0562L37.3002 36.844L29.1165 12.417L20.5 27.068L25.7246 30.1082V58.9636L32.5095 62.8407V34.0562Z" fill="url(#paint28_linear_317_37936)" fill-opacity="0.4"/>
<defs>
<filter id="filter0_f_317_37936" x="0.5" y="117" width="174.318" height="69.0125" filterUnits="userSpaceOnUse" color-interpolation-filters="sRGB">
<feFlood flood-opacity="0" result="BackgroundImageFix"/>
<feBlend mode="normal" in="SourceGraphic" in2="BackgroundImageFix" result="shape"/>
<feGaussianBlur stdDeviation="10" result="effect1_foregroundBlur_317_37936"/>
</filter>
<linearGradient id="paint0_linear_317_37936" x1="14.4757" y1="134.429" x2="14.4757" y2="168.218" gradientUnits="userSpaceOnUse">
<stop stop-color="#245795"/>
<stop offset="1" stop-color="#8AD3A8"/>
</linearGradient>
<linearGradient id="paint1_linear_317_37936" x1="24.7219" y1="137.809" x2="24.7219" y2="168.898" gradientUnits="userSpaceOnUse">
<stop stop-color="#245795"/>
<stop offset="1" stop-color="#8AD3A8"/>
</linearGradient>
<linearGradient id="paint2_linear_317_37936" x1="154.587" y1="-0.868932" x2="154.587" y2="35.2183" gradientUnits="userSpaceOnUse">
<stop stop-color="#245795"/>
<stop offset="1" stop-color="#8AD3A8"/>
</linearGradient>
<linearGradient id="paint3_linear_317_37936" x1="132.718" y1="18.3072" x2="120.192" y2="118.448" gradientUnits="userSpaceOnUse">
<stop stop-color="#245795"/>
<stop offset="1" stop-color="#8AD3A8"/>
</linearGradient>
<linearGradient id="paint4_linear_317_37936" x1="139.548" y1="17.5348" x2="139.548" y2="117.769" gradientUnits="userSpaceOnUse">
<stop stop-color="#245795"/>
<stop offset="1" stop-color="#8AD3A8"/>
</linearGradient>
<linearGradient id="paint5_linear_317_37936" x1="122.841" y1="-0.868688" x2="122.841" y2="35.2185" gradientUnits="userSpaceOnUse">
<stop stop-color="#245795"/>
<stop offset="1" stop-color="#8AD3A8"/>
</linearGradient>
<linearGradient id="paint6_linear_317_37936" x1="141.831" y1="103.943" x2="176.665" y2="9.74911" gradientUnits="userSpaceOnUse">
<stop stop-color="#D4F2E4"/>
<stop offset="1" stop-color="#71D5A4"/>
</linearGradient>
<linearGradient id="paint7_linear_317_37936" x1="144.709" y1="18.3074" x2="157.234" y2="118.448" gradientUnits="userSpaceOnUse">
<stop stop-color="#245795"/>
<stop offset="1" stop-color="#8AD3A8"/>
</linearGradient>
<linearGradient id="paint8_linear_317_37936" x1="137.879" y1="17.535" x2="137.879" y2="117.769" gradientUnits="userSpaceOnUse">
<stop stop-color="#245795"/>
<stop offset="1" stop-color="#8AD3A8"/>
</linearGradient>
<linearGradient id="paint9_linear_317_37936" x1="112.498" y1="81.9602" x2="112.498" y2="94.4781" gradientUnits="userSpaceOnUse">
<stop stop-color="#245795"/>
<stop offset="1" stop-color="#8AD3A8"/>
</linearGradient>
<linearGradient id="paint10_linear_317_37936" x1="101.562" y1="88.612" x2="98.5242" y2="123.629" gradientUnits="userSpaceOnUse">
<stop stop-color="#245795"/>
<stop offset="1" stop-color="#8AD3A8"/>
</linearGradient>
<linearGradient id="paint11_linear_317_37936" x1="96.5972" y1="81.9602" x2="96.5972" y2="94.4781" gradientUnits="userSpaceOnUse">
<stop stop-color="#245795"/>
<stop offset="1" stop-color="#8AD3A8"/>
</linearGradient>
<linearGradient id="paint12_linear_317_37936" x1="115.588" y1="118.317" x2="120.275" y2="81.776" gradientUnits="userSpaceOnUse">
<stop stop-color="#D4F2E4"/>
<stop offset="1" stop-color="#71D5A4"/>
</linearGradient>
<linearGradient id="paint13_linear_317_37936" x1="111.636" y1="88.3441" x2="111.636" y2="123.113" gradientUnits="userSpaceOnUse">
<stop stop-color="#245795"/>
<stop offset="1" stop-color="#8AD3A8"/>
</linearGradient>
<linearGradient id="paint14_linear_317_37936" x1="101.754" y1="44.538" x2="101.754" y2="74.7329" gradientUnits="userSpaceOnUse">
<stop stop-color="#245795"/>
<stop offset="1" stop-color="#8AD3A8"/>
</linearGradient>
<linearGradient id="paint15_linear_317_37936" x1="79.8853" y1="60.583" x2="71.0757" y2="144.762" gradientUnits="userSpaceOnUse">
<stop stop-color="#245795"/>
<stop offset="1" stop-color="#8AD3A8"/>
</linearGradient>
<linearGradient id="paint16_linear_317_37936" x1="70.0102" y1="44.538" x2="70.0102" y2="74.7329" gradientUnits="userSpaceOnUse">
<stop stop-color="#245795"/>
<stop offset="1" stop-color="#8AD3A8"/>
</linearGradient>
<linearGradient id="paint17_linear_317_37936" x1="89.0004" y1="132.236" x2="114.301" y2="50.472" gradientUnits="userSpaceOnUse">
<stop stop-color="#D4F2E4"/>
<stop offset="1" stop-color="#71D5A4"/>
</linearGradient>
<linearGradient id="paint18_linear_317_37936" x1="91.8783" y1="60.583" x2="100.688" y2="144.762" gradientUnits="userSpaceOnUse">
<stop stop-color="#245795"/>
<stop offset="1" stop-color="#8AD3A8"/>
</linearGradient>
<linearGradient id="paint19_linear_317_37936" x1="76.514" y1="92.8592" x2="76.514" y2="111.269" gradientUnits="userSpaceOnUse">
<stop stop-color="#245795"/>
<stop offset="1" stop-color="#8AD3A8"/>
</linearGradient>
<linearGradient id="paint20_linear_317_37936" x1="54.6452" y1="102.642" x2="51.3478" y2="154.319" gradientUnits="userSpaceOnUse">
<stop stop-color="#245795"/>
<stop offset="1" stop-color="#8AD3A8"/>
</linearGradient>
<linearGradient id="paint21_linear_317_37936" x1="44.7688" y1="92.8592" x2="44.7688" y2="111.269" gradientUnits="userSpaceOnUse">
<stop stop-color="#245795"/>
<stop offset="1" stop-color="#8AD3A8"/>
</linearGradient>
<linearGradient id="paint22_linear_317_37936" x1="63.7597" y1="146.33" x2="73.7112" y2="93.5814" gradientUnits="userSpaceOnUse">
<stop stop-color="#D4F2E4"/>
<stop offset="1" stop-color="#71D5A4"/>
</linearGradient>
<linearGradient id="paint23_linear_317_37936" x1="66.6376" y1="102.642" x2="69.9351" y2="154.319" gradientUnits="userSpaceOnUse">
<stop stop-color="#245795"/>
<stop offset="1" stop-color="#8AD3A8"/>
</linearGradient>
<linearGradient id="paint24_linear_317_37936" x1="36.3493" y1="123.614" x2="36.3493" y2="136.132" gradientUnits="userSpaceOnUse">
<stop stop-color="#245795"/>
<stop offset="1" stop-color="#8AD3A8"/>
</linearGradient>
<linearGradient id="paint25_linear_317_37936" x1="36.2933" y1="123.614" x2="36.2933" y2="136.132" gradientUnits="userSpaceOnUse">
<stop stop-color="#245795"/>
<stop offset="1" stop-color="#8AD3A8"/>
</linearGradient>
<linearGradient id="paint26_linear_317_37936" x1="45.7895" y1="159.971" x2="54.7294" y2="125.122" gradientUnits="userSpaceOnUse">
<stop stop-color="#D4F2E4"/>
<stop offset="1" stop-color="#71D5A4"/>
</linearGradient>
<linearGradient id="paint27_linear_317_37936" x1="33.822" y1="32.1756" x2="33.822" y2="67.3048" gradientUnits="userSpaceOnUse">
<stop stop-color="#245795"/>
<stop offset="1" stop-color="#8AD3A8"/>
</linearGradient>
<linearGradient id="paint28_linear_317_37936" x1="29.3442" y1="7.58745" x2="29.3442" y2="71.0506" gradientUnits="userSpaceOnUse">
<stop stop-color="#245795"/>
<stop offset="1" stop-color="#8AD3A8"/>
</linearGradient>
</defs>
</svg>
