<svg width="154" height="178" viewBox="0 0 154 178" fill="none" xmlns="http://www.w3.org/2000/svg">
<g opacity="0.5" filter="url(#filter0_f_317_37940)">
<g opacity="0.25">
<path d="M111.332 156.719L89.4994 148.591" stroke="#9FB8ED" stroke-width="2" stroke-linecap="round"/>
<path d="M89.3475 148.665L71.0427 152.032" stroke="#9FB8ED" stroke-width="2" stroke-linecap="round"/>
<path d="M69.0759 151.713L56.8621 147.186" stroke="#9FB8ED" stroke-width="2" stroke-linecap="round"/>
<path d="M55.3271 146.717L39.1133 146.329" stroke="#9FB8ED" stroke-width="2" stroke-linecap="round"/>
<path d="M38.3905 146.3L24.7947 138.219" stroke="#9FB8ED" stroke-width="2" stroke-linecap="round"/>
<rect x="-0.404229" y="0.367802" width="7.8127" height="0.812065" rx="0.406032" transform="matrix(-0.995557 -0.094155 -1.34489e-07 1 92.873 148.178)" fill="white" stroke="#9FB8ED" stroke-width="0.812065"/>
<rect x="-0.404229" y="0.367802" width="7.8127" height="0.812065" rx="0.406032" transform="matrix(-0.995557 -0.094155 -1.34489e-07 1 74.5285 151.587)" fill="white" stroke="#9FB8ED" stroke-width="0.812065"/>
<rect x="-0.404229" y="0.367802" width="7.8127" height="0.812065" rx="0.406032" transform="matrix(-0.995557 -0.094155 -1.34489e-07 1 115.462 156.138)" fill="white" stroke="#9FB8ED" stroke-width="0.812065"/>
<rect x="-0.404229" y="0.367802" width="7.8127" height="0.812065" rx="0.406032" transform="matrix(-0.995557 -0.094155 -1.34489e-07 1 60.3506 146.598)" fill="white" stroke="#9FB8ED" stroke-width="0.812065"/>
<rect x="-0.404229" y="0.367802" width="7.8127" height="0.812065" rx="0.406032" transform="matrix(-0.995557 -0.094155 -1.34489e-07 1 42.2287 145.84)" fill="white" stroke="#9FB8ED" stroke-width="0.812065"/>
<rect x="-0.404229" y="0.367802" width="7.8127" height="0.812065" rx="0.406032" transform="matrix(-0.995557 -0.094155 -1.34489e-07 1 28.2798 137.774)" fill="white" stroke="#9FB8ED" stroke-width="0.812065"/>
</g>
<path d="M128.563 156.718L108.067 152.125" stroke="#E6EFF1" stroke-width="2" stroke-linecap="round"/>
<path d="M128.563 156.718L108.067 152.125" stroke="url(#paint0_linear_317_37940)" stroke-width="2" stroke-linecap="round"/>
<path d="M105.261 151.806L88.2747 152.031" stroke="#E6EFF1" stroke-width="2" stroke-linecap="round"/>
<path d="M105.261 151.806L88.2747 152.031" stroke="url(#paint1_linear_317_37940)" stroke-width="2" stroke-linecap="round"/>
<path d="M86.3071 151.713L74.0934 147.185" stroke="#E6EFF1" stroke-width="2" stroke-linecap="round"/>
<path d="M86.3071 151.713L74.0934 147.185" stroke="url(#paint2_linear_317_37940)" stroke-width="2" stroke-linecap="round"/>
<path d="M72.5585 146.717L56.0853 140.771" stroke="#E6EFF1" stroke-width="2" stroke-linecap="round"/>
<path d="M72.5585 146.717L56.0853 140.771" stroke="url(#paint3_linear_317_37940)" stroke-width="2" stroke-linecap="round"/>
<path d="M56.3779 140.627L42.0256 138.218" stroke="#E6EFF1" stroke-width="2" stroke-linecap="round"/>
<path d="M56.3779 140.627L42.0256 138.218" stroke="url(#paint4_linear_317_37940)" stroke-width="2" stroke-linecap="round"/>
<rect x="-0.404229" y="0.367802" width="7.8127" height="0.812065" rx="0.406032" transform="matrix(-0.995557 -0.094155 -1.34489e-07 1 110.104 151.646)" fill="white"/>
<rect x="-0.404229" y="0.367802" width="7.8127" height="0.812065" rx="0.406032" transform="matrix(-0.995557 -0.094155 -1.34489e-07 1 110.104 151.646)" stroke="black" stroke-width="0.812065"/>
<rect x="-0.404229" y="0.367802" width="7.8127" height="0.812065" rx="0.406032" transform="matrix(-0.995557 -0.094155 -1.34489e-07 1 110.104 151.646)" stroke="url(#paint5_linear_317_37940)" stroke-width="0.812065"/>
<rect x="-0.404229" y="0.367802" width="7.8127" height="0.812065" rx="0.406032" transform="matrix(-0.995557 -0.094155 -1.34489e-07 1 91.7597 151.587)" fill="white"/>
<rect x="-0.404229" y="0.367802" width="7.8127" height="0.812065" rx="0.406032" transform="matrix(-0.995557 -0.094155 -1.34489e-07 1 91.7597 151.587)" stroke="black" stroke-width="0.812065"/>
<rect x="-0.404229" y="0.367802" width="7.8127" height="0.812065" rx="0.406032" transform="matrix(-0.995557 -0.094155 -1.34489e-07 1 91.7597 151.587)" stroke="url(#paint6_linear_317_37940)" stroke-width="0.812065"/>
<rect x="-0.404229" y="0.367802" width="7.8127" height="0.812065" rx="0.406032" transform="matrix(-0.995557 -0.094155 -1.34489e-07 1 132.693 156.138)" fill="white"/>
<rect x="-0.404229" y="0.367802" width="7.8127" height="0.812065" rx="0.406032" transform="matrix(-0.995557 -0.094155 -1.34489e-07 1 132.693 156.138)" stroke="black" stroke-width="0.812065"/>
<rect x="-0.404229" y="0.367802" width="7.8127" height="0.812065" rx="0.406032" transform="matrix(-0.995557 -0.094155 -1.34489e-07 1 132.693 156.138)" stroke="url(#paint7_linear_317_37940)" stroke-width="0.812065"/>
<rect x="-0.404229" y="0.367802" width="7.8127" height="0.812065" rx="0.406032" transform="matrix(-0.995557 -0.094155 -1.34489e-07 1 77.5819 146.598)" fill="white"/>
<rect x="-0.404229" y="0.367802" width="7.8127" height="0.812065" rx="0.406032" transform="matrix(-0.995557 -0.094155 -1.34489e-07 1 77.5819 146.598)" stroke="black" stroke-width="0.812065"/>
<rect x="-0.404229" y="0.367802" width="7.8127" height="0.812065" rx="0.406032" transform="matrix(-0.995557 -0.094155 -1.34489e-07 1 77.5819 146.598)" stroke="url(#paint8_linear_317_37940)" stroke-width="0.812065"/>
<rect x="-0.404229" y="0.367802" width="7.8127" height="0.812065" rx="0.406032" transform="matrix(-0.995557 -0.094155 -1.34489e-07 1 59.4601 140.21)" fill="white"/>
<rect x="-0.404229" y="0.367802" width="7.8127" height="0.812065" rx="0.406032" transform="matrix(-0.995557 -0.094155 -1.34489e-07 1 59.4601 140.21)" stroke="black" stroke-width="0.812065"/>
<rect x="-0.404229" y="0.367802" width="7.8127" height="0.812065" rx="0.406032" transform="matrix(-0.995557 -0.094155 -1.34489e-07 1 59.4601 140.21)" stroke="url(#paint9_linear_317_37940)" stroke-width="0.812065"/>
<rect x="-0.404229" y="0.367802" width="7.8127" height="0.812065" rx="0.406032" transform="matrix(-0.995557 -0.094155 -1.34489e-07 1 45.5111 137.774)" fill="white"/>
<rect x="-0.404229" y="0.367802" width="7.8127" height="0.812065" rx="0.406032" transform="matrix(-0.995557 -0.094155 -1.34489e-07 1 45.5111 137.774)" stroke="black" stroke-width="0.812065"/>
<rect x="-0.404229" y="0.367802" width="7.8127" height="0.812065" rx="0.406032" transform="matrix(-0.995557 -0.094155 -1.34489e-07 1 45.5111 137.774)" stroke="url(#paint10_linear_317_37940)" stroke-width="0.812065"/>
</g>
<path d="M27.8917 64.2432L23.5039 66.7604L21.4023 62.9269L21.8874 42.6508L22.7418 37.1084L27.8917 39.1868V64.2432Z" fill="#D9D9D9"/>
<path d="M27.8917 64.2432L23.5039 66.7604L21.4023 62.9269L21.8874 42.6508L22.7418 37.1084L27.8917 39.1868V64.2432Z" fill="#D4F2E4"/>
<path d="M27.8917 64.2432L23.5039 66.7604L21.4023 62.9269L21.8874 42.6508L22.7418 37.1084L27.8917 39.1868V64.2432Z" fill="url(#paint11_linear_317_37940)" fill-opacity="0.15"/>
<path d="M24.4607 14L20.1211 16.4631L23.4005 31.9835L28.2943 40.7882L32.9218 38.2901L24.4607 14Z" fill="#D9D9D9"/>
<path d="M24.4607 14L20.1211 16.4631L23.4005 31.9835L28.2943 40.7882L32.9218 38.2901L24.4607 14Z" fill="#D4F2E4"/>
<path fill-rule="evenodd" clip-rule="evenodd" d="M23.5095 38.0562L28.3002 40.844L20.1165 16.417L11.5 31.068L16.7246 34.1082V62.9636L23.5095 66.8407V38.0562Z" fill="#D9D9D9"/>
<path fill-rule="evenodd" clip-rule="evenodd" d="M23.5095 38.0562L28.3002 40.844L20.1165 16.417L11.5 31.068L16.7246 34.1082V62.9636L23.5095 66.8407V38.0562Z" fill="#D4F2E4"/>
<path fill-rule="evenodd" clip-rule="evenodd" d="M23.5095 38.0562L28.3002 40.844L20.1165 16.417L11.5 31.068L16.7246 34.1082V62.9636L23.5095 66.8407V38.0562Z" fill="url(#paint12_linear_317_37940)" fill-opacity="0.4"/>
<path d="M78.2726 100.824C78.2726 99.4632 77.1698 98.3604 75.8094 98.3604C74.4491 98.3604 73.3463 99.4632 73.3463 100.824V122.148C73.3463 123.509 74.4491 124.612 75.8094 124.612C77.1698 124.612 78.2726 123.509 78.2726 122.148V100.824Z" fill="#F0FAF6"/>
<path d="M78.2726 100.824C78.2726 99.4632 77.1698 98.3604 75.8094 98.3604C74.4491 98.3604 73.3463 99.4632 73.3463 100.824V122.148C73.3463 123.509 74.4491 124.612 75.8094 124.612C77.1698 124.612 78.2726 123.509 78.2726 122.148V100.824Z" fill="url(#paint13_linear_317_37940)" fill-opacity="0.2"/>
<path d="M87.023 106.293C87.023 104.932 85.9202 103.829 84.5599 103.829C83.1995 103.829 82.0967 104.932 82.0967 106.293V127.617C82.0967 128.978 83.1995 130.081 84.5599 130.081C85.9202 130.081 87.023 128.978 87.023 127.617V106.293Z" fill="#F0FAF6"/>
<path d="M87.023 106.293C87.023 104.932 85.9202 103.829 84.5599 103.829C83.1995 103.829 82.0967 104.932 82.0967 106.293V127.617C82.0967 128.978 83.1995 130.081 84.5599 130.081C85.9202 130.081 87.023 128.978 87.023 127.617V106.293Z" fill="url(#paint14_linear_317_37940)" fill-opacity="0.2"/>
<path d="M95.7734 111.762C95.7734 110.401 94.6706 109.298 93.3102 109.298C91.9498 109.298 90.847 110.401 90.847 111.762V133.086C90.847 134.447 91.9498 135.55 93.3102 135.55C94.6706 135.55 95.7734 134.447 95.7734 133.086V111.762Z" fill="#F0FAF6"/>
<path d="M95.7734 111.762C95.7734 110.401 94.6706 109.298 93.3102 109.298C91.9498 109.298 90.847 110.401 90.847 111.762V133.086C90.847 134.447 91.9498 135.55 93.3102 135.55C94.6706 135.55 95.7734 134.447 95.7734 133.086V111.762Z" fill="url(#paint15_linear_317_37940)" fill-opacity="0.2"/>
<path d="M104.524 118.324C104.524 116.964 103.421 115.861 102.061 115.861C100.7 115.861 99.5974 116.964 99.5974 118.324V139.649C99.5974 141.009 100.7 142.112 102.061 142.112C103.421 142.112 104.524 141.009 104.524 139.649V118.324Z" fill="#F0FAF6"/>
<path d="M104.524 118.324C104.524 116.964 103.421 115.861 102.061 115.861C100.7 115.861 99.5974 116.964 99.5974 118.324V139.649C99.5974 141.009 100.7 142.112 102.061 142.112C103.421 142.112 104.524 141.009 104.524 139.649V118.324Z" fill="url(#paint16_linear_317_37940)" fill-opacity="0.2"/>
<path d="M66.7196 90.33C67.8977 91.0101 68.3014 92.5166 67.6212 93.6947C66.941 94.8728 65.4345 95.2765 64.2564 94.5963L45.7886 83.9339C44.6104 83.2537 44.2068 81.7472 44.887 80.5691C45.5672 79.391 47.0736 78.9874 48.2517 79.6675L66.7196 90.33Z" fill="#F0FAF6"/>
<path d="M66.7196 90.33C67.8977 91.0101 68.3014 92.5166 67.6212 93.6947C66.941 94.8728 65.4345 95.2765 64.2564 94.5963L45.7886 83.9339C44.6104 83.2537 44.2068 81.7472 44.887 80.5691C45.5672 79.391 47.0736 78.9874 48.2517 79.6675L66.7196 90.33Z" fill="url(#paint17_linear_317_37940)" fill-opacity="0.2"/>
<path d="M66.3586 80.0175C67.5367 80.6976 67.9403 82.2041 67.2602 83.3822C66.58 84.5603 65.0735 84.964 63.8954 84.2838L45.4275 73.6214C44.2494 72.9412 43.8458 71.4347 44.526 70.2566C45.2061 69.0785 46.7126 68.6749 47.8907 69.355L66.3586 80.0175Z" fill="#F0FAF6"/>
<path d="M66.3586 80.0175C67.5367 80.6976 67.9403 82.2041 67.2602 83.3822C66.58 84.5603 65.0735 84.964 63.8954 84.2838L45.4275 73.6214C44.2494 72.9412 43.8458 71.4347 44.526 70.2566C45.2061 69.0785 46.7126 68.6749 47.8907 69.355L66.3586 80.0175Z" fill="url(#paint18_linear_317_37940)" fill-opacity="0.2"/>
<path d="M65.9975 69.7047C67.1756 70.3849 67.5793 71.8914 66.8991 73.0695C66.2189 74.2476 64.7124 74.6512 63.5343 73.971L45.0665 63.3086C43.8883 62.6284 43.4847 61.122 44.1649 59.9439C44.8451 58.7658 46.3515 58.3621 47.5296 59.0423L65.9975 69.7047Z" fill="#F0FAF6"/>
<path d="M65.9975 69.7047C67.1756 70.3849 67.5793 71.8914 66.8991 73.0695C66.2189 74.2476 64.7124 74.6512 63.5343 73.971L45.0665 63.3086C43.8883 62.6284 43.4847 61.122 44.1649 59.9439C44.8451 58.7658 46.3515 58.3621 47.5296 59.0423L65.9975 69.7047Z" fill="url(#paint19_linear_317_37940)" fill-opacity="0.2"/>
<path d="M64.6901 58.8453C65.8682 59.5255 66.2719 61.032 65.5917 62.2101C64.9115 63.3882 63.4051 63.7919 62.2269 63.1117L43.7591 52.4493C42.581 51.7691 42.1773 50.2626 42.8575 49.0845C43.5377 47.9064 45.0441 47.5027 46.2223 48.1829L64.6901 58.8453Z" fill="#F0FAF6"/>
<path d="M64.6901 58.8453C65.8682 59.5255 66.2719 61.032 65.5917 62.2101C64.9115 63.3882 63.4051 63.7919 62.2269 63.1117L43.7591 52.4493C42.581 51.7691 42.1773 50.2626 42.8575 49.0845C43.5377 47.9064 45.0441 47.5027 46.2223 48.1829L64.6901 58.8453Z" fill="url(#paint20_linear_317_37940)" fill-opacity="0.2"/>
<path d="M80.8651 87.0853L117.137 66.1106C116.593 65.1763 115.862 64.3666 115.039 63.8839L76.2807 41.4766C74.6334 40.5267 71.976 40.5267 70.3442 41.4766L58.5179 48.3124L80.8651 87.0853Z" fill="#F0FAF6"/>
<path d="M80.8651 87.0853L117.137 66.1106C116.593 65.1763 115.862 64.3666 115.039 63.8839L76.2807 41.4766C74.6334 40.5267 71.976 40.5267 70.3442 41.4766L58.5179 48.3124L80.8651 87.0853Z" fill="url(#paint21_linear_317_37940)" fill-opacity="0.6"/>
<path d="M103.198 125.858L115.024 119.022C116.656 118.073 117.992 115.768 117.992 113.868V69.038C117.992 68.0882 117.666 67.0449 117.122 66.1106L80.866 87.0853L103.198 125.858Z" fill="#F0FAF6"/>
<path d="M103.198 125.858L115.024 119.022C116.656 118.073 117.992 115.768 117.992 113.868V69.038C117.992 68.0882 117.666 67.0449 117.122 66.1106L80.866 87.0853L103.198 125.858Z" fill="url(#paint22_linear_317_37940)" fill-opacity="0.4"/>
<path d="M103.198 125.858L115.024 119.022C116.656 118.073 117.992 115.768 117.992 113.868V69.038C117.992 68.0882 117.666 67.0449 117.122 66.1106L80.866 87.0853L103.198 125.858Z" fill="url(#paint23_linear_317_37940)" fill-opacity="0.6"/>
<path d="M104.083 77.1042L104.068 123.928C104.068 125.827 102.731 126.59 101.099 125.64L60.6163 102.221C58.9846 101.271 57.6481 98.9665 57.6481 97.0668V50.2435C57.6481 48.3437 58.9846 47.5807 60.6163 48.5306L101.115 71.9501C102.762 72.8999 104.083 75.2045 104.083 77.1042Z" fill="#F0FAF6"/>
<path d="M64.7363 94.754L64.5954 60.8753C64.5954 60.1574 65.1062 59.8773 65.7226 60.2275L95.1884 77.2806C95.8048 77.6308 96.3156 78.5062 96.3156 79.2066V112.875C96.3156 113.593 95.8048 113.873 95.1884 113.523L65.8635 96.6799C65.2471 96.3298 64.7363 95.4718 64.7363 94.754Z" stroke="#DDF3ED" stroke-miterlimit="10" stroke-linecap="round"/>
<path d="M78.2726 25.3514C78.2726 23.991 77.1698 22.8882 75.8094 22.8882C74.4491 22.8882 73.3463 23.991 73.3463 25.3514V46.6762C73.3463 48.0366 74.4491 49.1394 75.8094 49.1394C77.1698 49.1394 78.2726 48.0366 78.2726 46.6762V25.3514Z" fill="#F0FAF6"/>
<path d="M78.2726 25.3514C78.2726 23.991 77.1698 22.8882 75.8094 22.8882C74.4491 22.8882 73.3463 23.991 73.3463 25.3514V46.6762C73.3463 48.0366 74.4491 49.1394 75.8094 49.1394C77.1698 49.1394 78.2726 48.0366 78.2726 46.6762V25.3514Z" fill="url(#paint24_linear_317_37940)" fill-opacity="0.2"/>
<path d="M87.023 30.8203C87.023 29.46 85.9202 28.3572 84.5599 28.3572C83.1995 28.3572 82.0967 29.46 82.0967 30.8204V52.1452C82.0967 53.5056 83.1995 54.6084 84.5599 54.6084C85.9202 54.6084 87.023 53.5056 87.023 52.1452V30.8203Z" fill="#F0FAF6"/>
<path d="M87.023 30.8203C87.023 29.46 85.9202 28.3572 84.5599 28.3572C83.1995 28.3572 82.0967 29.46 82.0967 30.8204V52.1452C82.0967 53.5056 83.1995 54.6084 84.5599 54.6084C85.9202 54.6084 87.023 53.5056 87.023 52.1452V30.8203Z" fill="url(#paint25_linear_317_37940)" fill-opacity="0.2"/>
<path d="M95.7734 36.2893C95.7734 34.929 94.6706 33.8262 93.3102 33.8262C91.9498 33.8262 90.847 34.929 90.847 36.2893V57.6142C90.847 58.9746 91.9498 60.0774 93.3102 60.0774C94.6706 60.0774 95.7734 58.9746 95.7734 57.6142V36.2893Z" fill="#F0FAF6"/>
<path d="M95.7734 36.2893C95.7734 34.929 94.6706 33.8262 93.3102 33.8262C91.9498 33.8262 90.847 34.929 90.847 36.2893V57.6142C90.847 58.9746 91.9498 60.0774 93.3102 60.0774C94.6706 60.0774 95.7734 58.9746 95.7734 57.6142V36.2893Z" fill="url(#paint26_linear_317_37940)" fill-opacity="0.2"/>
<path d="M104.524 42.8521C104.524 41.4917 103.421 40.3889 102.061 40.3889C100.7 40.3889 99.5974 41.4917 99.5974 42.8521V64.1769C99.5974 65.5373 100.7 66.6401 102.061 66.6401C103.421 66.6401 104.524 65.5373 104.524 64.1769V42.8521Z" fill="#F0FAF6"/>
<path d="M104.524 42.8521C104.524 41.4917 103.421 40.3889 102.061 40.3889C100.7 40.3889 99.5974 41.4917 99.5974 42.8521V64.1769C99.5974 65.5373 100.7 66.6401 102.061 66.6401C103.421 66.6401 104.524 65.5373 104.524 64.1769V42.8521Z" fill="url(#paint27_linear_317_37940)" fill-opacity="0.2"/>
<path d="M132.349 118.769C133.527 119.449 133.93 120.956 133.25 122.134C132.57 123.312 131.063 123.716 129.885 123.036L111.418 112.373C110.239 111.693 109.836 110.186 110.516 109.008C111.196 107.83 112.703 107.427 113.881 108.107L132.349 118.769Z" fill="#F0FAF6"/>
<path d="M132.349 118.769C133.527 119.449 133.93 120.956 133.25 122.134C132.57 123.312 131.063 123.716 129.885 123.036L111.418 112.373C110.239 111.693 109.836 110.186 110.516 109.008C111.196 107.83 112.703 107.427 113.881 108.107L132.349 118.769Z" fill="url(#paint28_linear_317_37940)" fill-opacity="0.2"/>
<path d="M131.987 108.457C133.166 109.137 133.569 110.643 132.889 111.821C132.209 113 130.702 113.403 129.524 112.723L111.056 102.061C109.878 101.38 109.475 99.8739 110.155 98.6958C110.835 97.5177 112.342 97.1141 113.52 97.7942L131.987 108.457Z" fill="#F0FAF6"/>
<path d="M131.987 108.457C133.166 109.137 133.569 110.643 132.889 111.821C132.209 113 130.702 113.403 129.524 112.723L111.056 102.061C109.878 101.38 109.475 99.8739 110.155 98.6958C110.835 97.5177 112.342 97.1141 113.52 97.7942L131.987 108.457Z" fill="url(#paint29_linear_317_37940)" fill-opacity="0.2"/>
<path d="M131.627 98.1439C132.805 98.8241 133.208 100.331 132.528 101.509C131.848 102.687 130.341 103.09 129.163 102.41L110.695 91.7478C109.517 91.0677 109.114 89.5612 109.794 88.3831C110.474 87.205 111.981 86.8013 113.159 87.4815L131.627 98.1439Z" fill="#F0FAF6"/>
<path d="M131.627 98.1439C132.805 98.8241 133.208 100.331 132.528 101.509C131.848 102.687 130.341 103.09 129.163 102.41L110.695 91.7478C109.517 91.0677 109.114 89.5612 109.794 88.3831C110.474 87.205 111.981 86.8013 113.159 87.4815L131.627 98.1439Z" fill="url(#paint30_linear_317_37940)" fill-opacity="0.2"/>
<path d="M130.319 87.2845C131.497 87.9647 131.901 89.4712 131.221 90.6493C130.54 91.8274 129.034 92.2311 127.856 91.5509L109.388 80.8885C108.21 80.2083 107.806 78.7018 108.486 77.5237C109.167 76.3456 110.673 75.9419 111.851 76.6221L130.319 87.2845Z" fill="#F0FAF6"/>
<path d="M130.319 87.2845C131.497 87.9647 131.901 89.4712 131.221 90.6493C130.54 91.8274 129.034 92.2311 127.856 91.5509L109.388 80.8885C108.21 80.2083 107.806 78.7018 108.486 77.5237C109.167 76.3456 110.673 75.9419 111.851 76.6221L130.319 87.2845Z" fill="url(#paint31_linear_317_37940)" fill-opacity="0.2"/>
<defs>
<filter id="filter0_f_317_37940" x="0.5" y="117.073" width="153" height="60.6548" filterUnits="userSpaceOnUse" color-interpolation-filters="sRGB">
<feFlood flood-opacity="0" result="BackgroundImageFix"/>
<feBlend mode="normal" in="SourceGraphic" in2="BackgroundImageFix" result="shape"/>
<feGaussianBlur stdDeviation="10" result="effect1_foregroundBlur_317_37940"/>
</filter>
<linearGradient id="paint0_linear_317_37940" x1="91.2837" y1="149.187" x2="90.79" y2="157.027" gradientUnits="userSpaceOnUse">
<stop stop-color="#8AD3A8"/>
<stop offset="0.985172" stop-color="#245795"/>
</linearGradient>
<linearGradient id="paint1_linear_317_37940" x1="74.3652" y1="147.952" x2="73.9962" y2="153.358" gradientUnits="userSpaceOnUse">
<stop stop-color="#8AD3A8"/>
<stop offset="0.985172" stop-color="#245795"/>
</linearGradient>
<linearGradient id="paint2_linear_317_37940" x1="64.0918" y1="144.525" x2="63.82" y2="154.514" gradientUnits="userSpaceOnUse">
<stop stop-color="#8AD3A8"/>
<stop offset="0.985172" stop-color="#245795"/>
</linearGradient>
<linearGradient id="paint3_linear_317_37940" x1="43.7055" y1="140.778" x2="43.3169" y2="147.062" gradientUnits="userSpaceOnUse">
<stop stop-color="#8AD3A8"/>
<stop offset="0.985172" stop-color="#245795"/>
</linearGradient>
<linearGradient id="paint4_linear_317_37940" x1="31.5138" y1="135.591" x2="31.1949" y2="145.101" gradientUnits="userSpaceOnUse">
<stop stop-color="#8AD3A8"/>
<stop offset="0.985172" stop-color="#245795"/>
</linearGradient>
<linearGradient id="paint5_linear_317_37940" x1="15.6874" y1="-0.825761" x2="15.4667" y2="3.97838" gradientUnits="userSpaceOnUse">
<stop stop-color="#8AD3A8"/>
<stop offset="0.985172" stop-color="#245795"/>
</linearGradient>
<linearGradient id="paint6_linear_317_37940" x1="15.6874" y1="-0.825761" x2="15.4667" y2="3.97838" gradientUnits="userSpaceOnUse">
<stop stop-color="#8AD3A8"/>
<stop offset="0.985172" stop-color="#245795"/>
</linearGradient>
<linearGradient id="paint7_linear_317_37940" x1="15.6874" y1="-0.825761" x2="15.4667" y2="3.97838" gradientUnits="userSpaceOnUse">
<stop stop-color="#8AD3A8"/>
<stop offset="0.985172" stop-color="#245795"/>
</linearGradient>
<linearGradient id="paint8_linear_317_37940" x1="15.6874" y1="-0.825761" x2="15.4667" y2="3.97838" gradientUnits="userSpaceOnUse">
<stop stop-color="#8AD3A8"/>
<stop offset="0.985172" stop-color="#245795"/>
</linearGradient>
<linearGradient id="paint9_linear_317_37940" x1="15.6874" y1="-0.825761" x2="15.4667" y2="3.97838" gradientUnits="userSpaceOnUse">
<stop stop-color="#8AD3A8"/>
<stop offset="0.985172" stop-color="#245795"/>
</linearGradient>
<linearGradient id="paint10_linear_317_37940" x1="15.6874" y1="-0.825761" x2="15.4667" y2="3.97838" gradientUnits="userSpaceOnUse">
<stop stop-color="#8AD3A8"/>
<stop offset="0.985172" stop-color="#245795"/>
</linearGradient>
<linearGradient id="paint11_linear_317_37940" x1="24.822" y1="36.1756" x2="24.822" y2="71.3048" gradientUnits="userSpaceOnUse">
<stop stop-color="#245795"/>
<stop offset="1" stop-color="#8AD3A8"/>
</linearGradient>
<linearGradient id="paint12_linear_317_37940" x1="20.3442" y1="11.5874" x2="20.3442" y2="75.0506" gradientUnits="userSpaceOnUse">
<stop stop-color="#245795"/>
<stop offset="1" stop-color="#8AD3A8"/>
</linearGradient>
<linearGradient id="paint13_linear_317_37940" x1="75.8136" y1="60.8725" x2="75.8137" y2="112.841" gradientUnits="userSpaceOnUse">
<stop stop-color="#245795"/>
<stop offset="1" stop-color="#8AD3A8"/>
</linearGradient>
<linearGradient id="paint14_linear_317_37940" x1="84.5641" y1="66.3415" x2="84.5641" y2="118.31" gradientUnits="userSpaceOnUse">
<stop stop-color="#245795"/>
<stop offset="1" stop-color="#8AD3A8"/>
</linearGradient>
<linearGradient id="paint15_linear_317_37940" x1="93.3144" y1="71.8105" x2="93.3145" y2="123.779" gradientUnits="userSpaceOnUse">
<stop stop-color="#245795"/>
<stop offset="1" stop-color="#8AD3A8"/>
</linearGradient>
<linearGradient id="paint16_linear_317_37940" x1="102.065" y1="78.3732" x2="102.065" y2="130.342" gradientUnits="userSpaceOnUse">
<stop stop-color="#245795"/>
<stop offset="1" stop-color="#8AD3A8"/>
</linearGradient>
<linearGradient id="paint17_linear_317_37940" x1="100.089" y1="112.435" x2="55.0823" y2="86.4505" gradientUnits="userSpaceOnUse">
<stop stop-color="#245795"/>
<stop offset="1" stop-color="#8AD3A8"/>
</linearGradient>
<linearGradient id="paint18_linear_317_37940" x1="99.7277" y1="102.122" x2="54.7213" y2="76.138" gradientUnits="userSpaceOnUse">
<stop stop-color="#245795"/>
<stop offset="1" stop-color="#8AD3A8"/>
</linearGradient>
<linearGradient id="paint19_linear_317_37940" x1="99.3666" y1="91.8097" x2="54.3602" y2="65.8252" gradientUnits="userSpaceOnUse">
<stop stop-color="#245795"/>
<stop offset="1" stop-color="#8AD3A8"/>
</linearGradient>
<linearGradient id="paint20_linear_317_37940" x1="98.0592" y1="80.9504" x2="53.0528" y2="54.9659" gradientUnits="userSpaceOnUse">
<stop stop-color="#245795"/>
<stop offset="1" stop-color="#8AD3A8"/>
</linearGradient>
<linearGradient id="paint21_linear_317_37940" x1="109" y1="64" x2="52.5003" y2="32.5" gradientUnits="userSpaceOnUse">
<stop stop-color="#245795"/>
<stop offset="1" stop-color="#8AD3A8"/>
</linearGradient>
<linearGradient id="paint22_linear_317_37940" x1="99.4608" y1="-19.2117" x2="99.4609" y2="99.0695" gradientUnits="userSpaceOnUse">
<stop stop-color="#245795"/>
<stop offset="1" stop-color="#8AD3A8"/>
</linearGradient>
<linearGradient id="paint23_linear_317_37940" x1="97.0007" y1="56.9998" x2="144.001" y2="115" gradientUnits="userSpaceOnUse">
<stop stop-color="#245795"/>
<stop offset="1" stop-color="#8AD3A8"/>
</linearGradient>
<linearGradient id="paint24_linear_317_37940" x1="75.8136" y1="-14.5997" x2="75.8137" y2="37.3693" gradientUnits="userSpaceOnUse">
<stop stop-color="#245795"/>
<stop offset="1" stop-color="#8AD3A8"/>
</linearGradient>
<linearGradient id="paint25_linear_317_37940" x1="84.5641" y1="-9.13066" x2="84.5641" y2="42.8383" gradientUnits="userSpaceOnUse">
<stop stop-color="#245795"/>
<stop offset="1" stop-color="#8AD3A8"/>
</linearGradient>
<linearGradient id="paint26_linear_317_37940" x1="93.3144" y1="-3.66166" x2="93.3145" y2="48.3073" gradientUnits="userSpaceOnUse">
<stop stop-color="#245795"/>
<stop offset="1" stop-color="#8AD3A8"/>
</linearGradient>
<linearGradient id="paint27_linear_317_37940" x1="102.065" y1="2.90108" x2="102.065" y2="54.87" gradientUnits="userSpaceOnUse">
<stop stop-color="#245795"/>
<stop offset="1" stop-color="#8AD3A8"/>
</linearGradient>
<linearGradient id="paint28_linear_317_37940" x1="165.718" y1="140.874" x2="120.711" y2="114.89" gradientUnits="userSpaceOnUse">
<stop stop-color="#245795"/>
<stop offset="1" stop-color="#8AD3A8"/>
</linearGradient>
<linearGradient id="paint29_linear_317_37940" x1="165.357" y1="130.562" x2="120.35" y2="104.577" gradientUnits="userSpaceOnUse">
<stop stop-color="#245795"/>
<stop offset="1" stop-color="#8AD3A8"/>
</linearGradient>
<linearGradient id="paint30_linear_317_37940" x1="164.996" y1="120.249" x2="119.989" y2="94.2644" gradientUnits="userSpaceOnUse">
<stop stop-color="#245795"/>
<stop offset="1" stop-color="#8AD3A8"/>
</linearGradient>
<linearGradient id="paint31_linear_317_37940" x1="163.688" y1="109.39" x2="118.682" y2="83.4051" gradientUnits="userSpaceOnUse">
<stop stop-color="#245795"/>
<stop offset="1" stop-color="#8AD3A8"/>
</linearGradient>
</defs>
</svg>
