<svg width="175" height="187" viewBox="0 0 175 187" fill="none" xmlns="http://www.w3.org/2000/svg">
<g opacity="0.15" filter="url(#filter0_f_317_37944)">
<path d="M134.719 150.829L20.5 163.847V150.235L29.3791 148.216L38.5976 148.171L51.9785 143.596L65.2916 143.625L80.9347 139.007L89.8139 139.546L101.08 137.485L118.148 139.025L129.753 137L134.719 137.293V150.829Z" fill="url(#paint0_linear_317_37944)"/>
<path d="M144.965 151.858L30.7462 164.876V155.574L39.6253 153.557L48.8438 153.513L69.328 148.314L80.2545 148.154L93.5789 144.083L103.476 144.887L114.742 142.826L128.406 142.201L139.999 140.175L144.965 140.468V151.858Z" fill="#D4F2E4"/>
<path d="M144.965 151.858L30.7462 164.876V155.574L39.6253 153.557L48.8438 153.513L69.328 148.314L80.2545 148.154L93.5789 144.083L103.476 144.887L114.742 142.826L128.406 142.201L139.999 140.175L144.965 140.468V151.858Z" fill="url(#paint1_linear_317_37944)" fill-opacity="0.5"/>
<path d="M154.818 152.995L40.611 166.013V161.805L54.6027 159.436L67.9271 158.382L88.4114 152.953L95.5826 153.219L103.432 150.776L113.341 150.421L124.595 148.36L138.259 149.204L149.864 146.869L154.818 146.777V152.995Z" fill="#D4F2E4"/>
</g>
<path d="M138.219 33L139.219 33.5L138.723 38.0898L133.723 35.0898L138.219 33Z" fill="#D9D9D9"/>
<path d="M138.219 33L139.219 33.5L138.723 38.0898L133.723 35.0898L138.219 33Z" fill="#D4F2E4"/>
<path d="M138.219 33L139.219 33.5L138.723 38.0898L133.723 35.0898L138.219 33Z" fill="url(#paint2_linear_317_37944)" fill-opacity="0.15"/>
<path d="M146.719 57L154.719 42.5L151.219 43.5L142.719 53L142.219 59.5L146.719 57Z" fill="#D9D9D9"/>
<path d="M146.719 57L154.719 42.5L151.219 43.5L142.719 53L142.219 59.5L146.719 57Z" fill="#D4F2E4"/>
<path d="M146.719 57L154.719 42.5L151.219 43.5L142.719 53L142.219 59.5L146.719 57Z" fill="url(#paint3_linear_317_37944)" fill-opacity="0.05"/>
<path d="M145.172 13.5097L149.5 10.6211L143.216 7L138.716 10L145.172 13.5097Z" fill="#D9D9D9"/>
<path d="M145.172 13.5097L149.5 10.6211L143.216 7L138.716 10L145.172 13.5097Z" fill="#D4F2E4"/>
<path d="M145.219 41.8604V13.5L138.719 10V38.0865L133.719 35.0865L142.219 59.5L150.719 45L145.219 41.8604Z" fill="#FDCD0B"/>
<path d="M145.219 41.8604V13.5L138.719 10V38.0865L133.719 35.0865L142.219 59.5L150.719 45L145.219 41.8604Z" fill="#D4F2E4"/>
<path d="M145.219 41.8604V13.5L138.719 10V38.0865L133.719 35.0865L142.219 59.5L150.719 45L145.219 41.8604Z" fill="url(#paint4_linear_317_37944)" fill-opacity="0.4"/>
<path d="M150.719 45.0001L154.719 42.5001L149.257 39.126L146.257 38.626L145.228 41.8697L150.719 45.0001Z" fill="#D9D9D9"/>
<path d="M150.719 45.0001L154.719 42.5001L149.257 39.126L146.257 38.626L145.228 41.8697L150.719 45.0001Z" fill="#D4F2E4"/>
<path d="M150.719 45.0001L154.719 42.5001L149.257 39.126L146.257 38.626L145.228 41.8697L150.719 45.0001Z" fill="url(#paint5_linear_317_37944)" fill-opacity="0.15"/>
<path d="M145.205 13.4807L149.5 10.6147V39.2646L145.205 41.875V13.4807Z" fill="#D9D9D9"/>
<path d="M145.205 13.4807L149.5 10.6147V39.2646L145.205 41.875V13.4807Z" fill="#D4F2E4"/>
<path d="M145.205 13.4807L149.5 10.6147V39.2646L145.205 41.875V13.4807Z" fill="url(#paint6_linear_317_37944)" fill-opacity="0.5"/>
<path d="M99.205 50.2058L48.7488 91.9491L91.4425 122.133L99.205 50.2058Z" stroke="url(#paint7_linear_317_37944)"/>
<circle r="22.3226" transform="matrix(0.866025 -0.5 2.20305e-08 1 49.8319 91.205)" fill="#F0FAF6"/>
<circle r="22.3226" transform="matrix(0.866025 -0.5 2.20305e-08 1 98.14 51.4838)" fill="#F0FAF6"/>
<circle r="22.3226" transform="matrix(0.866025 -0.5 2.20305e-08 1 98.14 51.4838)" fill="url(#paint8_linear_317_37944)"/>
<circle r="22.3226" transform="matrix(0.866025 -0.5 2.20305e-08 1 89.5538 118.043)" fill="#F0FAF6"/>
<circle r="22.3226" transform="matrix(0.866025 -0.5 2.20305e-08 1 89.5538 118.043)" fill="url(#paint9_linear_317_37944)" fill-opacity="0.1"/>
<path fill-rule="evenodd" clip-rule="evenodd" d="M49.6881 80.3227C47.2796 81.7133 45.3272 85.095 45.3272 87.8761C45.3272 90.6572 47.2796 91.7844 49.6881 90.3939C52.0966 89.0033 54.049 85.6216 54.049 82.8405C54.049 80.0594 52.0966 78.9322 49.6881 80.3227ZM45.327 94.3509C42.9185 95.7415 40.9661 99.1232 40.9661 101.904C40.9661 104.685 42.9185 105.813 45.327 104.422L54.0489 99.3865C56.4573 97.996 58.4098 94.6142 58.4098 91.8331C58.4098 89.0521 56.4573 87.9248 54.0489 89.3154L45.327 94.3509Z" fill="#D9D9D9"/>
<path fill-rule="evenodd" clip-rule="evenodd" d="M49.6881 80.3227C47.2796 81.7133 45.3272 85.095 45.3272 87.8761C45.3272 90.6572 47.2796 91.7844 49.6881 90.3939C52.0966 89.0033 54.049 85.6216 54.049 82.8405C54.049 80.0594 52.0966 78.9322 49.6881 80.3227ZM45.327 94.3509C42.9185 95.7415 40.9661 99.1232 40.9661 101.904C40.9661 104.685 42.9185 105.813 45.327 104.422L54.0489 99.3865C56.4573 97.996 58.4098 94.6142 58.4098 91.8331C58.4098 89.0521 56.4573 87.9248 54.0489 89.3154L45.327 94.3509Z" fill="url(#paint10_linear_317_37944)"/>
<path fill-rule="evenodd" clip-rule="evenodd" d="M99.2328 39.5605C96.8243 40.9511 94.8719 44.3328 94.8719 47.1139C94.8719 49.8949 96.8243 51.0222 99.2328 49.6317C101.641 48.2411 103.594 44.8594 103.594 42.0783C103.594 39.2972 101.641 38.17 99.2328 39.5605ZM94.8717 53.5887C92.4632 54.9793 90.5107 58.361 90.5107 61.1421C90.5107 63.9231 92.4632 65.0504 94.8717 63.6599L103.594 58.6243C106.002 57.2338 107.954 53.852 107.954 51.0709C107.954 48.2899 106.002 47.1626 103.594 48.5531L94.8717 53.5887Z" fill="#D9D9D9"/>
<path fill-rule="evenodd" clip-rule="evenodd" d="M99.2328 39.5605C96.8243 40.9511 94.8719 44.3328 94.8719 47.1139C94.8719 49.8949 96.8243 51.0222 99.2328 49.6317C101.641 48.2411 103.594 44.8594 103.594 42.0783C103.594 39.2972 101.641 38.17 99.2328 39.5605ZM94.8717 53.5887C92.4632 54.9793 90.5107 58.361 90.5107 61.1421C90.5107 63.9231 92.4632 65.0504 94.8717 63.6599L103.594 58.6243C106.002 57.2338 107.954 53.852 107.954 51.0709C107.954 48.2899 106.002 47.1626 103.594 48.5531L94.8717 53.5887Z" fill="url(#paint11_linear_317_37944)"/>
<path fill-rule="evenodd" clip-rule="evenodd" d="M99.2328 39.5605C96.8243 40.9511 94.8719 44.3328 94.8719 47.1139C94.8719 49.8949 96.8243 51.0222 99.2328 49.6317C101.641 48.2411 103.594 44.8594 103.594 42.0783C103.594 39.2972 101.641 38.17 99.2328 39.5605ZM94.8717 53.5887C92.4632 54.9793 90.5107 58.361 90.5107 61.1421C90.5107 63.9231 92.4632 65.0504 94.8717 63.6599L103.594 58.6243C106.002 57.2338 107.954 53.852 107.954 51.0709C107.954 48.2899 106.002 47.1626 103.594 48.5531L94.8717 53.5887Z" fill="#F0FAF6"/>
<path fill-rule="evenodd" clip-rule="evenodd" d="M89.6776 106.77C87.2691 108.161 85.3167 111.542 85.3167 114.323C85.3167 117.104 87.2691 118.232 89.6776 116.841C92.0861 115.451 94.0385 112.069 94.0385 109.288C94.0385 106.507 92.0861 105.379 89.6776 106.77ZM85.3165 120.798C82.908 122.188 80.9556 125.57 80.9556 128.351C80.9556 131.132 82.908 132.259 85.3165 130.869L94.0384 125.833C96.4468 124.443 98.3993 121.061 98.3993 118.28C98.3993 115.499 96.4468 114.372 94.0384 115.762L85.3165 120.798Z" fill="#D9D9D9"/>
<path fill-rule="evenodd" clip-rule="evenodd" d="M89.6776 106.77C87.2691 108.161 85.3167 111.542 85.3167 114.323C85.3167 117.104 87.2691 118.232 89.6776 116.841C92.0861 115.451 94.0385 112.069 94.0385 109.288C94.0385 106.507 92.0861 105.379 89.6776 106.77ZM85.3165 120.798C82.908 122.188 80.9556 125.57 80.9556 128.351C80.9556 131.132 82.908 132.259 85.3165 130.869L94.0384 125.833C96.4468 124.443 98.3993 121.061 98.3993 118.28C98.3993 115.499 96.4468 114.372 94.0384 115.762L85.3165 120.798Z" fill="url(#paint12_linear_317_37944)"/>
<defs>
<filter id="filter0_f_317_37944" x="0.5" y="117" width="174.318" height="69.0125" filterUnits="userSpaceOnUse" color-interpolation-filters="sRGB">
<feFlood flood-opacity="0" result="BackgroundImageFix"/>
<feBlend mode="normal" in="SourceGraphic" in2="BackgroundImageFix" result="shape"/>
<feGaussianBlur stdDeviation="10" result="effect1_foregroundBlur_317_37944"/>
</filter>
<linearGradient id="paint0_linear_317_37944" x1="14.4757" y1="134.429" x2="14.4757" y2="168.218" gradientUnits="userSpaceOnUse">
<stop stop-color="#245795"/>
<stop offset="1" stop-color="#8AD3A8"/>
</linearGradient>
<linearGradient id="paint1_linear_317_37944" x1="24.7219" y1="137.809" x2="24.7219" y2="168.898" gradientUnits="userSpaceOnUse">
<stop stop-color="#245795"/>
<stop offset="1" stop-color="#8AD3A8"/>
</linearGradient>
<linearGradient id="paint2_linear_317_37944" x1="136.323" y1="32.4732" x2="136.323" y2="39.3955" gradientUnits="userSpaceOnUse">
<stop stop-color="#245795"/>
<stop offset="1" stop-color="#8AD3A8"/>
</linearGradient>
<linearGradient id="paint3_linear_317_37944" x1="148.131" y1="41.9652" x2="148.131" y2="62.1054" gradientUnits="userSpaceOnUse">
<stop stop-color="#245795"/>
<stop offset="1" stop-color="#8AD3A8"/>
</linearGradient>
<linearGradient id="paint4_linear_317_37944" x1="141.769" y1="5.25893" x2="141.769" y2="67.5596" gradientUnits="userSpaceOnUse">
<stop stop-color="#245795"/>
<stop offset="1" stop-color="#8AD3A8"/>
</linearGradient>
<linearGradient id="paint5_linear_317_37944" x1="149.717" y1="38.4254" x2="149.717" y2="45.977" gradientUnits="userSpaceOnUse">
<stop stop-color="#245795"/>
<stop offset="1" stop-color="#8AD3A8"/>
</linearGradient>
<linearGradient id="paint6_linear_317_37944" x1="147.236" y1="9.63131" x2="147.236" y2="46.6659" gradientUnits="userSpaceOnUse">
<stop stop-color="#245795"/>
<stop offset="1" stop-color="#8AD3A8"/>
</linearGradient>
<linearGradient id="paint7_linear_317_37944" x1="73.9769" y1="50.2058" x2="78.4401" y2="128.559" gradientUnits="userSpaceOnUse">
<stop stop-color="#8AD3A8"/>
<stop offset="1" stop-color="#245795"/>
</linearGradient>
<linearGradient id="paint8_linear_317_37944" x1="46.9999" y1="-7.07391" x2="46.9999" y2="52.33" gradientUnits="userSpaceOnUse">
<stop stop-color="#245795"/>
<stop offset="1" stop-color="#8AD3A8"/>
</linearGradient>
<linearGradient id="paint9_linear_317_37944" x1="46.9999" y1="-7.07391" x2="46.9999" y2="52.33" gradientUnits="userSpaceOnUse">
<stop stop-color="#245795"/>
<stop offset="1" stop-color="#8AD3A8"/>
</linearGradient>
<linearGradient id="paint10_linear_317_37944" x1="67.0129" y1="102.962" x2="30.7424" y2="90.7711" gradientUnits="userSpaceOnUse">
<stop stop-color="#245795"/>
<stop offset="1" stop-color="#8AD3A8"/>
</linearGradient>
<linearGradient id="paint11_linear_317_37944" x1="116.558" y1="62.1994" x2="80.2871" y2="50.0089" gradientUnits="userSpaceOnUse">
<stop stop-color="#245795"/>
<stop offset="1" stop-color="#8AD3A8"/>
</linearGradient>
<linearGradient id="paint12_linear_317_37944" x1="107.002" y1="129.407" x2="70.7325" y2="117.217" gradientUnits="userSpaceOnUse">
<stop stop-color="#245795"/>
<stop offset="1" stop-color="#8AD3A8"/>
</linearGradient>
</defs>
</svg>
