<svg width="175" height="187" viewBox="0 0 175 187" fill="none" xmlns="http://www.w3.org/2000/svg">
<g opacity="0.15" filter="url(#filter0_f_317_37948)">
<path d="M134.719 150.829L20.5 163.847V150.235L29.3791 148.216L38.5976 148.171L51.9785 143.596L65.2916 143.625L80.9347 139.007L89.8139 139.546L101.08 137.485L118.148 139.025L129.753 137L134.719 137.293V150.829Z" fill="url(#paint0_linear_317_37948)"/>
<path d="M144.965 151.858L30.7462 164.876V155.574L39.6253 153.557L48.8438 153.513L69.328 148.314L80.2545 148.154L93.5789 144.083L103.476 144.887L114.742 142.826L128.406 142.201L139.999 140.175L144.965 140.468V151.858Z" fill="#D4F2E4"/>
<path d="M144.965 151.858L30.7462 164.876V155.574L39.6253 153.557L48.8438 153.513L69.328 148.314L80.2545 148.154L93.5789 144.083L103.476 144.887L114.742 142.826L128.406 142.201L139.999 140.175L144.965 140.468V151.858Z" fill="url(#paint1_linear_317_37948)" fill-opacity="0.5"/>
<path d="M154.818 152.995L40.611 166.013V161.805L54.6027 159.436L67.9271 158.382L88.4114 152.953L95.5826 153.219L103.432 150.776L113.341 150.421L124.595 148.36L138.259 149.204L149.864 146.869L154.818 146.777V152.995Z" fill="#D4F2E4"/>
</g>
<path d="M123.99 45.0498L124.99 45.5498L124.494 50.1396L119.494 47.1396L123.99 45.0498Z" fill="#D9D9D9"/>
<path d="M123.99 45.0498L124.99 45.5498L124.494 50.1396L119.494 47.1396L123.99 45.0498Z" fill="#D4F2E4"/>
<path d="M123.99 45.0498L124.99 45.5498L124.494 50.1396L119.494 47.1396L123.99 45.0498Z" fill="url(#paint2_linear_317_37948)" fill-opacity="0.4"/>
<path d="M132.49 69.0498L140.49 54.5498L136.99 55.5498L128.49 65.0498L127.99 71.5498L132.49 69.0498Z" fill="#D9D9D9"/>
<path d="M132.49 69.0498L140.49 54.5498L136.99 55.5498L128.49 65.0498L127.99 71.5498L132.49 69.0498Z" fill="#D4F2E4"/>
<path d="M132.49 69.0498L140.49 54.5498L136.99 55.5498L128.49 65.0498L127.99 71.5498L132.49 69.0498Z" fill="url(#paint3_linear_317_37948)" fill-opacity="0.05"/>
<path d="M130.943 25.5595L135.271 22.6709L128.987 19.0498L124.487 22.0498L130.943 25.5595Z" fill="#D9D9D9"/>
<path d="M130.943 25.5595L135.271 22.6709L128.987 19.0498L124.487 22.0498L130.943 25.5595Z" fill="#D4F2E4"/>
<path d="M130.99 53.9102V25.5498L124.49 22.0498V50.1363L119.49 47.1363L127.99 71.5498L136.49 57.0498L130.99 53.9102Z" fill="#FDCD0B"/>
<path d="M130.99 53.9102V25.5498L124.49 22.0498V50.1363L119.49 47.1363L127.99 71.5498L136.49 57.0498L130.99 53.9102Z" fill="#D4F2E4"/>
<path d="M130.99 53.9102V25.5498L124.49 22.0498V50.1363L119.49 47.1363L127.99 71.5498L136.49 57.0498L130.99 53.9102Z" fill="url(#paint4_linear_317_37948)" fill-opacity="0.4"/>
<path d="M136.49 57.0499L140.49 54.5499L135.028 51.1758L132.028 50.6758L131 53.9195L136.49 57.0499Z" fill="#D9D9D9"/>
<path d="M136.49 57.0499L140.49 54.5499L135.028 51.1758L132.028 50.6758L131 53.9195L136.49 57.0499Z" fill="#D4F2E4"/>
<path d="M136.49 57.0499L140.49 54.5499L135.028 51.1758L132.028 50.6758L131 53.9195L136.49 57.0499Z" fill="url(#paint5_linear_317_37948)" fill-opacity="0.3"/>
<path d="M130.976 25.5305L135.271 22.6646V51.3144L130.976 53.9248V25.5305Z" fill="#D9D9D9"/>
<path d="M130.976 25.5305L135.271 22.6646V51.3144L130.976 53.9248V25.5305Z" fill="#D4F2E4"/>
<path d="M130.976 25.5305L135.271 22.6646V51.3144L130.976 53.9248V25.5305Z" fill="url(#paint6_linear_317_37948)" fill-opacity="0.5"/>
<path d="M61.5296 92.8602L105.087 67.9205C104.268 66.5137 103.168 65.2945 101.928 64.5676L43.5681 30.8278C41.0877 29.3976 37.0863 29.3976 34.6293 30.8278L27.8802 34.4779L61.5296 92.8602Z" fill="#F0FAF6"/>
<path d="M61.5296 92.8602L105.087 67.9205C104.268 66.5137 103.168 65.2945 101.928 64.5676L43.5681 30.8278C41.0877 29.3976 37.0863 29.3976 34.6293 30.8278L27.8802 34.4779L61.5296 92.8602Z" fill="url(#paint7_linear_317_37948)" fill-opacity="0.3"/>
<path d="M95.1553 151.243L101.927 147.585C104.384 146.154 106.396 142.684 106.396 139.824V72.3208C106.396 70.8906 105.905 69.3196 105.086 67.9128L61.5293 92.8603L95.1553 151.243Z" fill="#F0FAF6"/>
<path d="M95.1553 151.243L101.927 147.585C104.384 146.154 106.396 142.684 106.396 139.824V72.3208C106.396 70.8906 105.905 69.3196 105.086 67.9128L61.5293 92.8603L95.1553 151.243Z" fill="url(#paint8_linear_317_37948)" fill-opacity="0.3"/>
<path d="M96.4898 77.8311L96.4664 148.335C96.4664 151.196 94.454 152.345 91.997 150.914L31.0397 115.651C28.5827 114.22 26.5703 110.75 26.5703 107.89V37.3856C26.5703 34.5251 28.5827 33.3762 31.0397 34.8064L92.0204 70.0702C94.5008 71.5005 96.4898 74.9706 96.4898 77.8311Z" fill="#F0FAF6"/>
<path d="M52.6185 92.4229L46.2524 77.5867L34.6532 71.6882L38.142 75.7165L35.5703 80.0864C34.815 81.3632 34.9949 83.5032 36.0019 85.6073L38.142 90.0491L45.3353 94.8507L49.1117 88.3947L52.6185 92.4229Z" fill="url(#paint9_linear_317_37948)"/>
<path d="M38.4851 89.3292C37.6939 88.43 36.8486 87.2791 36.1653 85.9124L44.1499 105.19C44.9231 107.169 46.3618 108.913 47.8904 109.812L59.04 116.25V102.133L42.1357 92.3863C40.8769 91.631 39.6181 90.624 38.4851 89.3292Z" fill="#F0FAF6"/>
<path d="M38.4851 89.3292C37.6939 88.43 36.8486 87.2791 36.1653 85.9124L44.1499 105.19C44.9231 107.169 46.3618 108.913 47.8904 109.812L59.04 116.25V102.133L42.1357 92.3863C40.8769 91.631 39.6181 90.624 38.4851 89.3292Z" fill="url(#paint10_linear_317_37948)" fill-opacity="0.32"/>
<path d="M76.1564 119.415C76.1744 120.44 76.0485 121.519 75.6169 122.436L83.2957 112.006C84.123 110.981 84.1769 109.147 83.4756 107.168L78.3503 92.8538L67.4165 93.0336L75.1853 114.739C75.7607 116.34 76.1204 117.958 76.1564 119.415Z" fill="url(#paint11_linear_317_37948)"/>
<path d="M83.2986 111.988C80.5651 113.876 74.217 110.567 74.217 110.567L65.7829 105.82L65.7289 101.324L60.0103 109.632L65.9807 124.522L65.9267 120.026L71.6454 123.245C73.21 124.127 74.6306 123.947 75.3859 122.832L83.2986 111.988Z" fill="#F0FAF6"/>
<path d="M83.2986 111.988C80.5651 113.876 74.217 110.567 74.217 110.567L65.7829 105.82L65.7289 101.324L60.0103 109.632L65.9807 124.522L65.9267 120.026L71.6454 123.245C73.21 124.127 74.6306 123.947 75.3859 122.832L83.2986 111.988Z" fill="url(#paint12_linear_317_37948)" fill-opacity="0.32"/>
<path d="M62.8149 69.2243C63.5343 69.0444 64.4334 69.0444 65.5124 69.4221L50.4784 61.8151C48.9498 60.9879 47.5471 61.1857 46.8098 62.3007L41.5048 70.4831L52.3307 83.449L60.3692 71.0406C60.9806 70.1414 61.7899 69.476 62.8149 69.2243Z" fill="url(#paint13_linear_317_37948)"/>
<path d="M50.4775 61.8152C54.5238 64.8004 58.3362 72.8209 58.3362 72.8209L63.1557 83.539L59.9547 84.2583L71.5359 89.8511L76.4454 80.5897L73.2444 81.309L69.9714 74.0438C69.0722 72.0477 67.5616 70.3932 66.0151 69.6559L50.4775 61.8152Z" fill="#F0FAF6"/>
<path d="M50.4775 61.8152C54.5238 64.8004 58.3362 72.8209 58.3362 72.8209L63.1557 83.539L59.9547 84.2583L71.5359 89.8511L76.4454 80.5897L73.2444 81.309L69.9714 74.0438C69.0722 72.0477 67.5616 70.3932 66.0151 69.6559L50.4775 61.8152Z" fill="url(#paint14_linear_317_37948)" fill-opacity="0.32"/>
<defs>
<filter id="filter0_f_317_37948" x="0.5" y="117" width="174.318" height="69.0125" filterUnits="userSpaceOnUse" color-interpolation-filters="sRGB">
<feFlood flood-opacity="0" result="BackgroundImageFix"/>
<feBlend mode="normal" in="SourceGraphic" in2="BackgroundImageFix" result="shape"/>
<feGaussianBlur stdDeviation="10" result="effect1_foregroundBlur_317_37948"/>
</filter>
<linearGradient id="paint0_linear_317_37948" x1="14.4757" y1="134.429" x2="14.4757" y2="168.218" gradientUnits="userSpaceOnUse">
<stop stop-color="#245795"/>
<stop offset="1" stop-color="#8AD3A8"/>
</linearGradient>
<linearGradient id="paint1_linear_317_37948" x1="24.7219" y1="137.809" x2="24.7219" y2="168.898" gradientUnits="userSpaceOnUse">
<stop stop-color="#245795"/>
<stop offset="1" stop-color="#8AD3A8"/>
</linearGradient>
<linearGradient id="paint2_linear_317_37948" x1="122.095" y1="44.523" x2="122.095" y2="51.4453" gradientUnits="userSpaceOnUse">
<stop stop-color="#245795"/>
<stop offset="1" stop-color="#8AD3A8"/>
</linearGradient>
<linearGradient id="paint3_linear_317_37948" x1="133.903" y1="54.015" x2="133.903" y2="74.1552" gradientUnits="userSpaceOnUse">
<stop stop-color="#245795"/>
<stop offset="1" stop-color="#8AD3A8"/>
</linearGradient>
<linearGradient id="paint4_linear_317_37948" x1="127.541" y1="17.3087" x2="127.541" y2="79.6094" gradientUnits="userSpaceOnUse">
<stop stop-color="#245795"/>
<stop offset="1" stop-color="#8AD3A8"/>
</linearGradient>
<linearGradient id="paint5_linear_317_37948" x1="135.489" y1="50.4753" x2="135.489" y2="58.0268" gradientUnits="userSpaceOnUse">
<stop stop-color="#245795"/>
<stop offset="1" stop-color="#8AD3A8"/>
</linearGradient>
<linearGradient id="paint6_linear_317_37948" x1="133.008" y1="21.6811" x2="133.008" y2="58.7157" gradientUnits="userSpaceOnUse">
<stop stop-color="#245795"/>
<stop offset="1" stop-color="#8AD3A8"/>
</linearGradient>
<linearGradient id="paint7_linear_317_37948" x1="103.894" y1="58.0997" x2="18.8193" y2="10.6686" gradientUnits="userSpaceOnUse">
<stop stop-color="#245795"/>
<stop offset="1" stop-color="#8AD3A8"/>
</linearGradient>
<linearGradient id="paint8_linear_317_37948" x1="98.157" y1="62.4127" x2="135.927" y2="124.55" gradientUnits="userSpaceOnUse">
<stop stop-color="#245795"/>
<stop offset="1" stop-color="#8AD3A8"/>
</linearGradient>
<linearGradient id="paint9_linear_317_37948" x1="43.6358" y1="64.8513" x2="45.0928" y2="104.439" gradientUnits="userSpaceOnUse">
<stop stop-color="#245795"/>
<stop offset="1" stop-color="#8AD3A8"/>
</linearGradient>
<linearGradient id="paint10_linear_317_37948" x1="47.6026" y1="76.9575" x2="49.5655" y2="128.805" gradientUnits="userSpaceOnUse">
<stop stop-color="#245795"/>
<stop offset="1" stop-color="#8AD3A8"/>
</linearGradient>
<linearGradient id="paint11_linear_317_37948" x1="75.6893" y1="84.1219" x2="78.2666" y2="134.62" gradientUnits="userSpaceOnUse">
<stop stop-color="#245795"/>
<stop offset="1" stop-color="#8AD3A8"/>
</linearGradient>
<linearGradient id="paint12_linear_317_37948" x1="71.6544" y1="94.4762" x2="72.7825" y2="134.147" gradientUnits="userSpaceOnUse">
<stop stop-color="#245795"/>
<stop offset="1" stop-color="#8AD3A8"/>
</linearGradient>
<linearGradient id="paint13_linear_317_37948" x1="53.5086" y1="54.7715" x2="54.5055" y2="92.6402" gradientUnits="userSpaceOnUse">
<stop stop-color="#245795"/>
<stop offset="1" stop-color="#8AD3A8"/>
</linearGradient>
<linearGradient id="paint14_linear_317_37948" x1="63.4614" y1="53.5398" x2="64.9388" y2="101.477" gradientUnits="userSpaceOnUse">
<stop stop-color="#245795"/>
<stop offset="1" stop-color="#8AD3A8"/>
</linearGradient>
</defs>
</svg>
