<svg width="40" height="40" viewBox="0 0 40 40" fill="none" xmlns="http://www.w3.org/2000/svg">
<path opacity="0.4" d="M7.60585 15.8398C8.02287 12.5036 10.8589 10 14.221 10H25.7839C29.1461 10 31.9821 12.5036 32.3991 15.8398L34.0658 29.1731C34.5632 33.1521 31.4606 36.6667 27.4506 36.6667H12.5544C8.54438 36.6667 5.4418 33.1521 5.93918 29.1731L7.60585 15.8398Z" fill="#8B00FF"/>
<path fill-rule="evenodd" clip-rule="evenodd" d="M13.75 8.3335C13.75 4.88172 16.5482 2.0835 20 2.0835C23.4518 2.0835 26.25 4.88172 26.25 8.3335V11.6668C26.25 12.3572 25.6904 12.9168 25 12.9168C24.3096 12.9168 23.75 12.3572 23.75 11.6668V8.3335C23.75 6.26243 22.0711 4.5835 20 4.5835C17.9289 4.5835 16.25 6.26243 16.25 8.3335V11.6668C16.25 12.3572 15.6904 12.9168 15 12.9168C14.3096 12.9168 13.75 12.3572 13.75 11.6668V8.3335Z" fill="#8B00FF"/>
<path d="M20.4428 19.5579L20.0008 19.9998L19.5589 19.5579C18.3385 18.3375 16.3598 18.3375 15.1395 19.5579C13.9191 20.7783 13.9191 22.7569 15.1395 23.9773L18.233 27.0709C19.2094 28.0472 20.7923 28.0472 21.7686 27.0709L24.8622 23.9773C26.0826 22.7569 26.0826 20.7783 24.8622 19.5579C23.6418 18.3375 21.6631 18.3375 20.4428 19.5579Z" fill="#8B00FF"/>
</svg>
