<svg width="40" height="40" viewBox="0 0 40 40" fill="none" xmlns="http://www.w3.org/2000/svg">
<path opacity="0.4" d="M3.33398 26.6667C3.33398 24.8258 4.82637 23.3334 6.66732 23.3334H13.334C15.1749 23.3334 16.6673 24.8258 16.6673 26.6667V33.3334C16.6673 35.1743 15.1749 36.6667 13.334 36.6667H6.66732C4.82637 36.6667 3.33398 35.1743 3.33398 33.3334V26.6667Z" fill="#8B00FF"/>
<path opacity="0.4" d="M3.33398 6.66671C3.33398 4.82576 4.82637 3.33337 6.66732 3.33337H13.334C15.1749 3.33337 16.6673 4.82576 16.6673 6.66671V13.3334C16.6673 15.1743 15.1749 16.6667 13.334 16.6667H6.66732C4.82637 16.6667 3.33398 15.1743 3.33398 13.3334V6.66671Z" fill="#8B00FF"/>
<path opacity="0.4" d="M23.334 26.6667C23.334 24.8258 24.8264 23.3334 26.6673 23.3334H33.334C35.1749 23.3334 36.6673 24.8258 36.6673 26.6667V33.3334C36.6673 35.1743 35.1749 36.6667 33.334 36.6667H26.6673C24.8264 36.6667 23.334 35.1743 23.334 33.3334V26.6667Z" fill="#8B00FF"/>
<path d="M21.8357 13.4521C20.5339 12.1504 20.5339 10.0398 21.8357 8.73808L26.5497 4.02404C27.8515 2.72229 29.962 2.72229 31.2638 4.02404L35.9778 8.73809C37.2796 10.0398 37.2796 12.1504 35.9778 13.4521L31.2638 18.1662C29.962 19.4679 27.8515 19.4679 26.5497 18.1662L21.8357 13.4521Z" fill="#8B00FF"/>
</svg>
