<svg width="56" height="56" viewBox="0 0 56 56" fill="none" xmlns="http://www.w3.org/2000/svg">
<path opacity="0.4" d="M29.9805 9.33337H26.0208C23.834 9.33337 22.0612 11.0048 22.0612 13.0667C22.0612 15.4262 19.5367 16.9263 17.4644 15.7982L17.2539 15.6836C15.36 14.6527 12.9384 15.2645 11.8449 17.0501L9.86514 20.2833C8.77172 22.0689 9.4206 24.3522 11.3145 25.3831C13.3878 26.5117 13.3878 29.4883 11.3145 30.617C9.4206 31.6479 8.77172 33.9312 9.86513 35.7168L11.8449 38.95C12.9384 40.7356 15.36 41.3474 17.2539 40.3165L17.4644 40.2019C19.5367 39.0738 22.0612 40.5739 22.0612 42.9334C22.0612 44.9952 23.834 46.6667 26.0208 46.6667H29.9805C32.1673 46.6667 33.9401 44.9952 33.9401 42.9334C33.9401 40.5739 36.4646 39.0738 38.537 40.2019L38.7474 40.3164C40.6413 41.3474 43.063 40.7356 44.1564 38.9499L46.1362 35.7168C47.2296 33.9312 46.5807 31.6479 44.6869 30.617C42.6135 29.4883 42.6135 26.5118 44.6869 25.3831C46.5807 24.3522 47.2296 22.0689 46.1362 20.2833L44.1564 17.0501C43.063 15.2645 40.6413 14.6527 38.7474 15.6836L38.537 15.7982C36.4646 16.9263 33.9401 15.4262 33.9401 13.0667C33.9401 11.0048 32.1673 9.33337 29.9805 9.33337Z" fill="#8B00FF"/>
<path d="M35 28C35 31.866 31.866 35 28 35C24.134 35 21 31.866 21 28C21 24.134 24.134 21 28 21C31.866 21 35 24.134 35 28Z" fill="#8B00FF"/>
</svg>
