<svg width="40" height="40" viewBox="0 0 40 40" fill="none" xmlns="http://www.w3.org/2000/svg">
<path opacity="0.4" d="M30.0013 3.33337C33.6832 3.33337 36.668 6.31814 36.668 10L36.668 20L3.33464 20L3.33464 10C3.33464 6.31814 6.3194 3.33337 10.0013 3.33337L30.0013 3.33337Z" fill="#8B00FF"/>
<path d="M10.0006 36.6667C6.31875 36.6667 3.33398 33.682 3.33398 30.0001L3.33399 20.0001L36.6673 20.0001L36.6673 30.0001C36.6673 33.682 33.6825 36.6667 30.0007 36.6667L10.0006 36.6667Z" fill="#8B00FF"/>
<path fill-rule="evenodd" clip-rule="evenodd" d="M30.002 8.75C30.6923 8.75 31.252 9.30964 31.252 10L31.252 13.3333C31.252 14.0237 30.6923 14.5833 30.002 14.5833C29.3116 14.5833 28.752 14.0237 28.752 13.3333L28.752 10C28.752 9.30964 29.3116 8.75 30.002 8.75Z" fill="#8B00FF"/>
<path fill-rule="evenodd" clip-rule="evenodd" d="M23.334 8.75C24.0243 8.75 24.584 9.30964 24.584 10L24.584 13.3333C24.584 14.0237 24.0243 14.5833 23.334 14.5833C22.6436 14.5833 22.084 14.0237 22.084 13.3333L22.084 10C22.084 9.30964 22.6436 8.75 23.334 8.75Z" fill="#8B00FF"/>
<path opacity="0.4" fill-rule="evenodd" clip-rule="evenodd" d="M30.002 25.4167C30.6923 25.4167 31.252 25.9764 31.252 26.6667L31.252 30.0001C31.252 30.6904 30.6923 31.2501 30.002 31.2501C29.3116 31.2501 28.752 30.6904 28.752 30.0001L28.752 26.6667C28.752 25.9764 29.3116 25.4167 30.002 25.4167Z" fill="#8B00FF"/>
<path opacity="0.4" fill-rule="evenodd" clip-rule="evenodd" d="M23.334 25.4167C24.0243 25.4167 24.584 25.9764 24.584 26.6667L24.584 30.0001C24.584 30.6904 24.0243 31.2501 23.334 31.2501C22.6436 31.2501 22.084 30.6904 22.084 30.0001L22.084 26.6667C22.084 25.9764 22.6436 25.4167 23.334 25.4167Z" fill="#8B00FF"/>
</svg>
