<svg width="40" height="40" viewBox="0 0 40 40" fill="none" xmlns="http://www.w3.org/2000/svg">
<path opacity="0.4" d="M33.3346 30.0002V13.3335H6.66797V30.0002C6.66797 33.6821 9.65274 36.6668 13.3346 36.6668H26.668C30.3499 36.6668 33.3346 33.6821 33.3346 30.0002Z" fill="#8B00FF"/>
<path d="M27.9466 3.3335H12.0508C9.02187 3.3335 6.2981 5.40809 5.17319 8.57191L4.02546 11.7999C3.56656 13.0905 3.23297 14.481 3.63481 15.7905C4.38658 18.2404 6.45441 20.0002 8.88759 20.0002C11.9558 20.0002 14.4431 17.2019 14.4431 13.7502C14.4431 17.2019 16.9305 20.0002 19.9987 20.0002C23.0669 20.0002 25.5543 17.2019 25.5543 13.7502C25.5543 17.2019 28.0416 20.0002 31.1098 20.0002C33.543 20.0002 35.6108 18.2404 36.3626 15.7905C36.7644 14.481 36.4308 13.0905 35.9719 11.7999L34.8242 8.57191C33.6993 5.40809 30.9755 3.3335 27.9466 3.3335Z" fill="#8B00FF"/>
<path fill-rule="evenodd" clip-rule="evenodd" d="M26.0891 27.7198C26.4281 28.3212 26.2155 29.0835 25.6141 29.4226C23.5888 30.5644 21.8444 31.2468 20.005 31.2504C18.1632 31.2539 16.4154 30.5769 14.3821 29.4202C13.7821 29.0789 13.5724 28.3157 13.9137 27.7156C14.2551 27.1156 15.0182 26.9059 15.6183 27.2472C17.512 28.3245 18.8037 28.7527 20.0001 28.7504C21.1988 28.7481 22.4909 28.3135 24.3863 27.2449C24.9877 26.9058 25.75 27.1185 26.0891 27.7198Z" fill="#8B00FF"/>
</svg>
