<svg width="40" height="40" viewBox="0 0 40 40" fill="none" xmlns="http://www.w3.org/2000/svg">
<path opacity="0.4" d="M3.33203 10H29.9987C33.6806 10 36.6654 12.9848 36.6654 16.6667V30C36.6654 33.6819 33.6806 36.6667 29.9987 36.6667H9.9987C6.3168 36.6667 3.33203 33.6819 3.33203 30V10Z" fill="#8B00FF"/>
<path d="M3.33203 10.0002C3.33203 6.31826 6.3168 3.3335 9.9987 3.3335H19.9987C23.6806 3.3335 26.6654 6.31826 26.6654 10.0002H3.33203Z" fill="#8B00FF"/>
<path d="M36.668 20L36.668 26.6667L30.0013 26.6667C28.1604 26.6667 26.668 25.1743 26.668 23.3333C26.668 21.4924 28.1604 20 30.0013 20L36.668 20Z" fill="#8B00FF"/>
</svg>
