<svg width="40" height="40" viewBox="0 0 40 40" fill="none" xmlns="http://www.w3.org/2000/svg">
<path opacity="0.4" d="M36.6654 30.0002V11.6023C36.6654 10.5897 36.2051 9.63195 35.4143 8.99937L30.1581 4.79439C28.976 3.84872 27.5073 3.33352 25.9935 3.33352L14.0039 3.3335C12.4901 3.3335 11.0214 3.8487 9.83927 4.79438L4.58304 8.99937C3.79233 9.63195 3.33203 10.5897 3.33203 11.6023V30.0002C3.33203 33.6821 6.3168 36.6669 9.9987 36.6669H29.9987C33.6806 36.6669 36.6654 33.6821 36.6654 30.0002Z" fill="#8B00FF"/>
<path d="M14.998 10.0002H24.998V20.0002L19.998 16.6669L14.998 20.0002V10.0002Z" fill="#8B00FF"/>
<path d="M25.9934 3.33352L14.0038 3.3335C12.49 3.3335 11.0213 3.8487 9.83917 4.79438L4.58295 8.99937C4.23504 9.2777 3.9511 9.61897 3.74219 10.0002H36.255C36.0461 9.61897 35.7622 9.2777 35.4143 8.99937L30.158 4.79439C28.9759 3.84872 27.5072 3.33352 25.9934 3.33352Z" fill="#8B00FF"/>
</svg>
