<svg width="40" height="40" viewBox="0 0 40 40" fill="none" xmlns="http://www.w3.org/2000/svg">
<path opacity="0.4" fill-rule="evenodd" clip-rule="evenodd" d="M3.33203 3.3335C3.33203 2.64314 3.89168 2.0835 4.58203 2.0835H7.91536C10.4467 2.0835 12.4987 4.13552 12.4987 6.66683V8.3335C12.4987 9.02385 11.9391 9.5835 11.2487 9.5835C10.5583 9.5835 9.9987 9.02385 9.9987 8.3335V6.66683C9.9987 5.51624 9.06596 4.5835 7.91536 4.5835H4.58203C3.89168 4.5835 3.33203 4.02385 3.33203 3.3335Z" fill="#8B00FF"/>
<path opacity="0.4" d="M10 6.6665H30C33.6819 6.6665 36.6667 9.65127 36.6667 13.3332V21.6665C36.6667 25.3484 33.6819 28.3332 30 28.3332H16.6667C12.9848 28.3332 10 25.3484 10 21.6665V6.6665Z" fill="#8B00FF"/>
<ellipse cx="15.832" cy="34.1665" rx="2.5" ry="2.5" fill="#8B00FF"/>
<ellipse cx="30.832" cy="34.1665" rx="2.5" ry="2.5" fill="#8B00FF"/>
<path d="M30 6.6665H10V13.3332H36.6667C36.6667 9.65127 33.6819 6.6665 30 6.6665Z" fill="#8B00FF"/>
</svg>
