<svg width="40" height="40" viewBox="0 0 40 40" fill="none" xmlns="http://www.w3.org/2000/svg">
<path opacity="0.4" fill-rule="evenodd" clip-rule="evenodd" d="M15.6429 2.26157C16.2349 2.61676 16.4269 3.38459 16.0717 3.97656L11.0717 12.3099C10.7165 12.9019 9.94867 13.0938 9.35669 12.7386C8.76472 12.3835 8.57276 11.6156 8.92795 11.0237L13.9279 2.69032C14.2831 2.09835 15.051 1.90639 15.6429 2.26157Z" fill="#8B00FF"/>
<path opacity="0.4" fill-rule="evenodd" clip-rule="evenodd" d="M30.6429 12.7386C30.051 13.0938 29.2831 12.9019 28.9279 12.3099L23.9279 3.97656C23.5728 3.38458 23.7647 2.61676 24.3567 2.26157C24.9487 1.90639 25.7165 2.09835 26.0717 2.69032L31.0717 11.0237C31.4269 11.6156 31.2349 12.3835 30.6429 12.7386Z" fill="#8B00FF"/>
<path opacity="0.4" d="M33.802 31.3467C33.1689 34.4443 30.4663 36.6667 27.3324 36.6667H12.665C9.53106 36.6667 6.82848 34.4443 6.19543 31.3467L3.47057 18.0133C2.62526 13.8771 5.75542 10 9.94013 10L30.0573 10C34.242 10 37.3721 13.8771 36.5268 18.0133L33.802 31.3467Z" fill="#8B00FF"/>
<path d="M30.0573 10H9.94013C6.21433 10 3.32447 13.0734 3.33205 16.6667H36.6654C36.6729 13.0734 33.7831 10 30.0573 10Z" fill="#8B00FF"/>
<path fill-rule="evenodd" clip-rule="evenodd" d="M15 22.0833C15.6904 22.0833 16.25 22.6429 16.25 23.3333L16.25 29.9999C16.25 30.6903 15.6904 31.2499 15 31.2499C14.3096 31.2499 13.75 30.6903 13.75 29.9999L13.75 23.3333C13.75 22.6429 14.3096 22.0833 15 22.0833Z" fill="#8B00FF"/>
<path fill-rule="evenodd" clip-rule="evenodd" d="M25 22.0833C25.6904 22.0833 26.25 22.6429 26.25 23.3333L26.25 29.9999C26.25 30.6903 25.6904 31.2499 25 31.2499C24.3096 31.2499 23.75 30.6903 23.75 29.9999L23.75 23.3333C23.75 22.6429 24.3096 22.0833 25 22.0833Z" fill="#8B00FF"/>
</svg>
