<svg width="40" height="40" viewBox="0 0 40 40" fill="none" xmlns="http://www.w3.org/2000/svg">
<path fill-rule="evenodd" clip-rule="evenodd" d="M4.58398 2.08337C3.89363 2.08337 3.33398 2.64302 3.33398 3.33337C3.33398 4.02373 3.89363 4.58337 4.58398 4.58337H7.91732C9.06791 4.58337 10.0007 5.51611 10.0007 6.66671H12.5007C12.5007 4.1354 10.4486 2.08337 7.91732 2.08337H4.58398Z" fill="#8B00FF"/>
<path opacity="0.4" d="M10 6.66675H30C33.6819 6.66675 36.6667 9.65152 36.6667 13.3334V21.6667C36.6667 25.3486 33.6819 28.3334 30 28.3334H16.6667C12.9848 28.3334 10 25.3486 10 21.6667V6.66675Z" fill="#8B00FF"/>
<ellipse cx="15.834" cy="34.1667" rx="2.5" ry="2.5" fill="#8B00FF"/>
<ellipse cx="30.834" cy="34.1667" rx="2.5" ry="2.5" fill="#8B00FF"/>
<path fill-rule="evenodd" clip-rule="evenodd" d="M29.1572 14.0593C29.6767 14.5139 29.7294 15.3036 29.2748 15.8231L24.4916 21.2896C23.4638 22.4643 21.6933 22.6216 20.4745 21.6465L17.5532 19.3094C17.0141 18.8782 16.9267 18.0916 17.3579 17.5525C17.7892 17.0134 18.5758 16.926 19.1149 17.3573L22.0363 19.6944C22.2104 19.8337 22.4633 19.8112 22.6101 19.6434L27.3933 14.1769C27.8479 13.6573 28.6376 13.6047 29.1572 14.0593Z" fill="#8B00FF"/>
</svg>
