<svg width="40" height="40" viewBox="0 0 40 40" fill="none" xmlns="http://www.w3.org/2000/svg">
<path opacity="0.4" d="M3.33398 6.66671C3.33398 4.82576 4.82637 3.33337 6.66732 3.33337H20.0007C21.8416 3.33337 23.334 4.82576 23.334 6.66671V13.3334C23.334 15.1743 21.8416 16.6667 20.0007 16.6667H6.66732C4.82637 16.6667 3.33398 15.1743 3.33398 13.3334V6.66671Z" fill="#8B00FF"/>
<path opacity="0.4" d="M16.668 26.6667C16.668 24.8258 18.1604 23.3334 20.0013 23.3334H33.3346C35.1756 23.3334 36.668 24.8258 36.668 26.6667V33.3334C36.668 35.1743 35.1756 36.6667 33.3346 36.6667H20.0013C18.1604 36.6667 16.668 35.1743 16.668 33.3334V26.6667Z" fill="#8B00FF"/>
<path fill-rule="evenodd" clip-rule="evenodd" d="M34.3406 11.2501L33.1411 12.4495C32.653 12.9377 32.653 13.7291 33.1411 14.2173C33.6293 14.7055 34.4207 14.7055 34.9089 14.2173L37.0637 12.0625C38.2027 10.9234 38.2027 9.07672 37.0637 7.93769L34.9089 5.78286C34.4207 5.29471 33.6293 5.29471 33.1411 5.78286C32.653 6.27102 32.653 7.06248 33.1411 7.55063L34.3406 8.75008L26.668 8.75008C25.9776 8.75008 25.418 9.30973 25.418 10.0001C25.418 10.6904 25.9776 11.2501 26.668 11.2501L34.3406 11.2501Z" fill="#8B00FF"/>
<path fill-rule="evenodd" clip-rule="evenodd" d="M5.6614 31.2501L6.86085 32.4495C7.349 32.9377 7.349 33.7291 6.86085 34.2173C6.37269 34.7055 5.58123 34.7055 5.09308 34.2173L2.93826 32.0625C1.79923 30.9234 1.79923 29.0767 2.93826 27.9377L5.09308 25.7829C5.58123 25.2947 6.37269 25.2947 6.86085 25.7829C7.349 26.271 7.349 27.0625 6.86085 27.5506L5.6614 28.7501L13.334 28.7501C14.0243 28.7501 14.584 29.3097 14.584 30.0001C14.584 30.6904 14.0243 31.2501 13.334 31.2501L5.6614 31.2501Z" fill="#8B00FF"/>
</svg>
