<svg id="Layer_1" data-name="Layer 1" viewBox="0 0 168.82 39.695" width="168.82" height="39.695" version="1.1" xmlns="http://www.w3.org/2000/svg"><defs id="defs223"><linearGradient id="linear-gradient" x1="31.99" y1="47.24" x2="7.5" y2="22.76" gradientTransform="matrix(1 0 0 -1 0 60)" gradientUnits="userSpaceOnUse"><stop offset="0" stop-color="#00a0ff" id="stop185"/><stop offset="0" stop-color="#00a1ff" id="stop187"/><stop offset=".26" stop-color="#00beff" id="stop189"/><stop offset=".51" stop-color="#00d2ff" id="stop191"/><stop offset=".76" stop-color="#00dfff" id="stop193"/><stop offset="1" stop-color="#00e3ff" id="stop195"/></linearGradient><linearGradient id="linear-gradient-2" x1="49.56" y1="30.69" x2="14.25" y2="30.69" gradientTransform="matrix(1 0 0 -1 0 60)" gradientUnits="userSpaceOnUse"><stop offset="0" stop-color="#ffe000" id="stop198"/><stop offset=".41" stop-color="#ffbd00" id="stop200"/><stop offset=".78" stop-color="orange" id="stop202"/><stop offset="1" stop-color="#ff9c00" id="stop204"/></linearGradient><linearGradient id="linear-gradient-3" x1="36.4" y1="27.43" x2="3.19" y2="-5.78" gradientTransform="matrix(1 0 0 -1 0 60)" gradientUnits="userSpaceOnUse"><stop offset="0" stop-color="#ff3a44" id="stop207"/><stop offset="1" stop-color="#c31162" id="stop209"/></linearGradient><linearGradient id="linear-gradient-4" x1="10.78" y1="59.64" x2="25.61" y2="44.81" gradientTransform="matrix(1 0 0 -1 0 60)" gradientUnits="userSpaceOnUse"><stop offset="0" stop-color="#32a071" id="stop212"/><stop offset=".07" stop-color="#2da771" id="stop214"/><stop offset=".48" stop-color="#15cf74" id="stop216"/><stop offset=".8" stop-color="#06e775" id="stop218"/><stop offset="1" stop-color="#00f076" id="stop220"/></linearGradient><clipPath id="clippath"><path style="fill:none" id="rect182" d="M0 0h198.15v59H0z"/></clipPath></defs><g clip-path="url(#clippath)" id="g245" transform="translate(-14.78 -9.975)"><g id="g243"><path d="M69.35 14.94c0 1.17-.29 2.19-1.02 2.92-.88.88-1.9 1.31-3.21 1.31s-2.33-.44-3.21-1.31c-.88-.88-1.31-1.9-1.31-3.21s.44-2.33 1.31-3.21c.88-.88 1.9-1.31 3.21-1.31.58 0 1.17.15 1.75.44.58.29 1.02.58 1.31 1.02l-.73.73c-.58-.73-1.31-1.02-2.33-1.02-.88 0-1.75.29-2.33 1.02-.73.58-1.02 1.46-1.02 2.48s.29 1.9 1.02 2.48c.73.58 1.46 1.02 2.33 1.02 1.02 0 1.75-.29 2.48-1.02.44-.44.73-1.02.73-1.75h-3.21v-1.17h4.23zm6.71-3.65h-3.94v2.77h3.65v1.02h-3.65v2.77h3.94v1.17h-5.11v-8.75h5.11zm4.82 7.73h-1.17v-7.73h-2.48v-1.02h6.13v1.02h-2.48zm6.71 0v-8.75h1.17v8.75zm6.13 0h-1.17v-7.73h-2.48v-1.02h5.98v1.02h-2.48v7.73zm13.86-1.17c-.88.88-1.9 1.31-3.21 1.31s-2.33-.44-3.21-1.31c-.88-.88-1.31-1.9-1.31-3.21s.44-2.33 1.31-3.21c.88-.88 1.9-1.31 3.21-1.31s2.33.44 3.21 1.31c.88.88 1.31 1.9 1.31 3.21s-.44 2.33-1.31 3.21zm-5.54-.73c.58.58 1.46 1.02 2.33 1.02.87 0 1.75-.29 2.33-1.02a3.53 3.53 0 0 0 1.02-2.48c0-1.02-.29-1.9-1.02-2.48-.58-.58-1.46-1.02-2.33-1.02-.87 0-1.75.29-2.33 1.02a3.53 3.53 0 0 0-1.02 2.48c0 1.02.29 1.9 1.02 2.48zm8.46 1.9v-8.75h1.31l4.23 6.86v-6.86h1.17v8.75h-1.17l-4.52-7.15v7.15z" style="fill:#250025;stroke:#250025;stroke-width:.29px;stroke-miterlimit:10" id="path225"/><path d="M99.56 31.86c-3.5 0-6.27 2.63-6.27 6.27 0 3.64 2.77 6.27 6.27 6.27 3.5 0 6.27-2.63 6.27-6.27 0-3.64-2.77-6.27-6.27-6.27zm0 9.92c-1.9 0-3.5-1.61-3.5-3.79 0-2.18 1.6-3.79 3.5-3.79s3.5 1.46 3.5 3.79c0 2.19-1.6 3.79-3.5 3.79zm-13.57-9.92c-3.5 0-6.27 2.63-6.27 6.27 0 3.64 2.77 6.27 6.27 6.27 3.5 0 6.27-2.63 6.27-6.27 0-3.64-2.77-6.27-6.27-6.27zm0 9.92c-1.9 0-3.5-1.61-3.5-3.79 0-2.18 1.6-3.79 3.5-3.79s3.5 1.46 3.5 3.79c0 2.19-1.61 3.79-3.5 3.79zm-16.2-8.02v2.63h6.27c-.15 1.46-.73 2.63-1.46 3.36-.88.88-2.33 1.9-4.82 1.9-3.94 0-6.86-3.06-6.86-7s3.06-7 6.86-7c2.04 0 3.65.88 4.82 1.9l1.9-1.9c-1.61-1.46-3.65-2.63-6.57-2.63-5.25 0-9.78 4.38-9.78 9.63 0 5.25 4.52 9.63 9.78 9.63 2.92 0 4.96-.88 6.71-2.77 1.75-1.75 2.33-4.23 2.33-6.13 0-.58 0-1.17-.15-1.6h-9.05zm66.25 2.04c-.58-1.46-2.04-3.94-5.25-3.94s-5.84 2.48-5.84 6.27c0 3.5 2.63 6.27 6.13 6.27 2.77 0 4.52-1.75 5.11-2.77l-2.04-1.46c-.73 1.02-1.6 1.75-3.06 1.75s-2.34-.58-3.06-1.9l8.32-3.5-.29-.73zm-8.47 2.05c0-2.33 1.9-3.65 3.21-3.65 1.02 0 2.04.58 2.34 1.31l-5.55 2.33zm-6.86 5.98h2.77V25.59h-2.77zm-4.37-10.65c-.73-.73-1.9-1.46-3.36-1.46-3.06 0-5.98 2.77-5.98 6.27 0 3.5 2.77 6.13 5.98 6.13 1.46 0 2.63-.73 3.21-1.46h.15v.88c0 2.33-1.31 3.65-3.36 3.65-1.61 0-2.77-1.17-3.06-2.19l-2.33 1.02c.73 1.61 2.48 3.65 5.54 3.65s5.84-1.9 5.84-6.42V32.16h-2.63zm-3.21 8.6c-1.9 0-3.5-1.61-3.5-3.79 0-2.18 1.61-3.79 3.5-3.79s3.36 1.6 3.36 3.79-1.46 3.79-3.36 3.79zm35.6-16.19h-6.57v18.24h2.77v-6.86h3.79c3.07 0 5.98-2.19 5.98-5.69 0-3.5-2.92-5.69-5.98-5.69zm.15 8.75h-3.94v-6.27h3.94c2.04 0 3.21 1.75 3.21 3.06-.15 1.61-1.31 3.21-3.21 3.21zm16.78-2.62c-2.04 0-4.09.88-4.82 2.77l2.48 1.02c.58-1.02 1.46-1.31 2.48-1.31 1.46 0 2.77.88 2.92 2.33v.15c-.44-.29-1.6-.73-2.77-.73-2.63 0-5.25 1.46-5.25 4.09 0 2.48 2.19 4.09 4.52 4.09 1.9 0 2.77-.88 3.5-1.75h.15v1.46h2.63v-7c-.29-3.21-2.77-5.11-5.84-5.11zm-.3 10.06c-.88 0-2.19-.44-2.19-1.61 0-1.46 1.6-1.9 2.92-1.9 1.17 0 1.75.29 2.48.58-.29 1.75-1.75 2.92-3.21 2.92zm15.32-9.63-3.07 7.88h-.14l-3.21-7.88h-2.92l4.82 11.09-2.77 6.13h2.77l7.44-17.22zm-24.51 11.68h2.77V25.59h-2.77z" style="fill:#250025" id="path227"/><path d="M15.36 11c-.44.44-.58 1.17-.58 2.04v32.25c0 .88.29 1.6.73 2.04l.15.15 18.09-18.09v-.29Z" style="fill:url(#linear-gradient)" id="path229"/><path d="m39.58 35.51-5.98-5.98v-.44l5.98-5.98.15.15 7.15 4.09c2.04 1.17 2.04 3.06 0 4.23l-7.3 3.94z" style="fill:url(#linear-gradient-2)" id="path231"/><path d="m39.73 35.36-6.13-6.13-18.24 18.24c.73.73 1.75.73 3.06.15l21.3-12.26z" style="fill:url(#linear-gradient-3)" id="path233"/><path d="M39.73 23.11 18.43 11c-1.31-.73-2.33-.58-3.06.15l18.24 18.09 6.13-6.13z" style="fill:url(#linear-gradient-4)" id="path235"/><path d="M39.58 35.22 18.42 47.18c-1.17.73-2.19.58-2.92 0l-.15.15.15.15c.73.58 1.75.73 2.92 0z" style="opacity:.2;isolation:isolate;fill:#f7f5f0" id="path237"/><path d="M15.36 47.18c-.44-.44-.58-1.17-.58-2.04v.15c0 .88.29 1.6.73 2.04v-.15zm31.52-16.05-7.3 4.09.15.15 7.15-4.09c1.02-.58 1.46-1.31 1.46-2.04 0 .73-.58 1.31-1.46 1.9z" style="opacity:.12;isolation:isolate;fill:#f7f5f0" id="path239"/><path d="m18.43 11.14 28.45 16.2c.88.58 1.46 1.17 1.46 1.9 0-.73-.44-1.46-1.46-2.04L18.43 11c-2.04-1.17-3.65-.29-3.65 2.04v.15c0-2.19 1.61-3.21 3.65-2.04z" style="opacity:.25;isolation:isolate;fill:#250025" id="path241"/></g></g></svg>