<svg id="Layer_1" data-name="Layer 1" xmlns="http://www.w3.org/2000/svg" viewBox="0 0 145.2 36.56" width="145.2" height="36.56"><defs><mask id="mask" x="-14.55" y="-12.31" width="174.61" height="58.37" maskUnits="userSpaceOnUse"><path d="M160.05-12.31h-174.6v58.37h174.61v-58.37Z" style="fill:#fff" id="mask0_196_325" data-name="mask0 196 325"/></mask></defs><g style="mask:url(#mask)"><path d="M21.59 17.31c.02-1.22.34-2.41.94-3.47.6-1.06 1.46-1.95 2.5-2.59a7.35 7.35 0 0 0-2.54-2.26 7.415 7.415 0 0 0-3.28-.89c-2.45-.26-4.83 1.47-6.07 1.47s-3.2-1.44-5.27-1.4A7.72 7.72 0 0 0 4.08 9.3a7.8 7.8 0 0 0-2.74 2.85c-2.82 4.89-.72 12.07 1.99 16.02 1.35 1.93 2.93 4.09 5 4.02 2.02-.08 2.78-1.29 5.22-1.29s3.13 1.29 5.24 1.24c2.17-.04 3.54-1.94 4.85-3.89.97-1.38 1.72-2.9 2.22-4.51a7 7 0 0 1-3.1-2.57 6.936 6.936 0 0 1-1.16-3.85ZM17.6 5.51A7.134 7.134 0 0 0 19.23.42a7.215 7.215 0 0 0-4.68 2.42c-.59.67-1.04 1.44-1.32 2.29-.29.84-.4 1.73-.35 2.62.9 0 1.8-.19 2.62-.57s1.54-.95 2.1-1.66Zm29.57 21.78h-6.91l-1.66 4.9h-2.93l6.54-18.12h3.04l6.54 18.12h-2.98l-1.66-4.9Zm-6.19-2.26h5.47l-2.7-7.95h-.08l-2.7 7.95Zm24.96.55c0 4.11-2.2 6.74-5.51 6.74a4.492 4.492 0 0 1-4.16-2.31h-.06v6.54H53.5V18.97h2.62v2.2h.05c.42-.73 1.04-1.34 1.78-1.75a4.78 4.78 0 0 1 2.43-.59c3.35 0 5.56 2.65 5.56 6.74Zm-2.79 0c0-2.67-1.38-4.43-3.49-4.43s-3.47 1.8-3.47 4.43 1.39 4.44 3.47 4.44 3.49-1.75 3.49-4.44Zm17.33 0c0 4.11-2.2 6.74-5.51 6.74a4.492 4.492 0 0 1-4.16-2.31h-.06v6.54h-2.71V18.97h2.62v2.2h.05c.42-.73 1.04-1.34 1.78-1.75a4.78 4.78 0 0 1 2.43-.59c3.35 0 5.56 2.65 5.56 6.74Zm-2.79 0c0-2.67-1.38-4.43-3.49-4.43s-3.47 1.8-3.47 4.43 1.39 4.44 3.47 4.44 3.49-1.75 3.49-4.44Zm12.39 1.56c.2 1.8 1.95 2.98 4.33 2.98s3.93-1.18 3.93-2.8c0-1.41-.99-2.25-3.34-2.83l-2.35-.57c-3.33-.8-4.87-2.36-4.87-4.88 0-3.13 2.72-5.27 6.59-5.27s6.45 2.15 6.54 5.27h-2.74c-.16-1.81-1.66-2.9-3.84-2.9s-3.68 1.1-3.68 2.71c0 1.28.95 2.03 3.29 2.61l2 .49c3.72.88 5.26 2.37 5.26 5.02 0 3.39-2.7 5.51-6.99 5.51-4.02 0-6.73-2.07-6.91-5.35h2.78Zm16.98-11.29v3.13h2.51v2.15h-2.51v7.28c0 1.13.5 1.66 1.61 1.66.3 0 .6-.03.89-.06v2.13c-.5.09-1 .13-1.51.13-2.67 0-3.72-1-3.72-3.57v-7.57h-1.92v-2.15h1.92v-3.13h2.72Zm3.97 9.73c0-4.16 2.45-6.77 6.27-6.77s6.27 2.61 6.27 6.77-2.42 6.77-6.27 6.77-6.27-2.6-6.27-6.77Zm9.77 0c0-2.85-1.31-4.53-3.5-4.53s-3.5 1.7-3.5 4.53 1.31 4.53 3.5 4.53 3.5-1.67 3.5-4.53Zm5-6.6h2.59v2.25h.06c.18-.7.59-1.32 1.17-1.76.58-.43 1.29-.66 2.01-.63.31 0 .62.03.93.1v2.54c-.39-.12-.81-.18-1.22-.16a2.688 2.688 0 0 0-2.11.87c-.27.29-.47.63-.59 1.01-.12.37-.16.77-.12 1.16v7.84h-2.71V18.99Zm19.25 9.33c-.37 2.4-2.7 4.04-5.69 4.04-3.84 0-6.23-2.57-6.23-6.71s2.4-6.83 6.12-6.83 5.95 2.51 5.95 6.52v.93h-9.33v.16c-.04.49.02.98.18 1.44.16.46.42.88.75 1.24.34.35.74.63 1.2.82.45.18.94.27 1.43.25.64.06 1.28-.09 1.83-.42.55-.33.98-.84 1.22-1.44h2.58Zm-9.16-3.95h6.6c.02-.44-.04-.87-.19-1.28-.15-.41-.39-.78-.69-1.1-.3-.31-.67-.56-1.07-.73-.4-.17-.84-.25-1.28-.24-.44 0-.88.08-1.29.25-.41.17-.78.41-1.09.73-.31.31-.56.68-.73 1.09-.17.41-.26.85-.25 1.29ZM40.64.43c.57-.04 1.14.05 1.67.25.53.21 1.01.53 1.4.94.39.41.69.91.86 1.45.18.54.23 1.12.16 1.68 0 2.78-1.5 4.38-4.1 4.38h-3.15V.43h3.15ZM38.85 7.9h1.64c.41.02.81-.04 1.19-.19.38-.15.72-.39.99-.69.28-.3.48-.66.6-1.05s.15-.8.09-1.2c.06-.4.02-.81-.1-1.2a2.78 2.78 0 0 0-.6-1.04c-.27-.3-.61-.53-.99-.68-.38-.15-.78-.22-1.18-.2h-1.64v6.24Zm7.42-2.05c-.04-.43 0-.87.15-1.28.14-.41.36-.79.65-1.11.29-.32.65-.58 1.04-.75a3.07 3.07 0 0 1 2.52 0 3.114 3.114 0 0 1 1.84 3.14c.04.43 0 .87-.14 1.28-.14.41-.36.79-.65 1.11-.29.32-.65.58-1.04.75a3.07 3.07 0 0 1-2.52 0 3.114 3.114 0 0 1-1.69-1.86c-.14-.41-.19-.85-.14-1.28Zm4.86 0c0-1.42-.64-2.26-1.76-2.26s-1.76.83-1.76 2.26.63 2.26 1.76 2.26 1.76-.83 1.76-2.26Zm9.57 3.29h-1.35L57.99 4.3h-.1l-1.35 4.84h-1.33L53.4 2.57h1.32l1.18 5.01h.1l1.35-5.01h1.24l1.35 5.01h.1l1.17-5.01h1.3l-1.8 6.57Zm3.33-6.57h1.25v1.04h.1c.16-.37.44-.69.79-.9.35-.21.76-.3 1.17-.27a2.155 2.155 0 0 1 1.73.67c.22.23.38.52.48.82.1.31.12.63.07.95v4.25h-1.3V5.2c0-1.06-.46-1.58-1.42-1.58-.22-.01-.43.03-.64.11-.2.08-.38.21-.53.36-.15.16-.26.35-.33.55-.07.21-.09.42-.07.64v3.84h-1.3V2.57ZM71.68 0h1.3v9.14h-1.3V0Zm3.09 5.85c-.04-.43 0-.87.15-1.28.14-.41.36-.79.65-1.11.29-.32.65-.58 1.04-.75a3.07 3.07 0 0 1 2.52 0 3.114 3.114 0 0 1 1.84 3.14c.04.43 0 .87-.14 1.28-.14.41-.36.79-.65 1.11-.29.32-.65.58-1.04.75a3.07 3.07 0 0 1-2.52 0 3.114 3.114 0 0 1-1.69-1.86c-.14-.41-.19-.85-.14-1.28Zm4.87 0c0-1.42-.64-2.26-1.76-2.26s-1.76.83-1.76 2.26.63 2.26 1.76 2.26 1.76-.83 1.76-2.26Zm2.7 1.43c0-1.18.88-1.86 2.44-1.96l1.78-.1v-.57c0-.69-.46-1.09-1.35-1.09-.72 0-1.23.27-1.37.73h-1.26c.13-1.13 1.19-1.85 2.69-1.85 1.65 0 2.58.82 2.58 2.21v4.49H86.6v-.92h-.1a2.228 2.228 0 0 1-1.98 1.03c-.28.03-.55 0-.82-.09-.26-.09-.51-.23-.71-.41-.21-.19-.37-.41-.49-.66-.11-.25-.17-.53-.17-.8Zm4.22-.56v-.55l-1.6.1c-.9.06-1.32.37-1.32.95s.51.94 1.22.94c.21.02.42 0 .61-.06.2-.06.38-.16.54-.3.16-.13.29-.3.38-.48.09-.19.15-.39.16-.59Zm2.99-.87c0-2.08 1.07-3.39 2.73-3.39a2.16 2.16 0 0 1 2.01 1.15h.1V0h1.3v9.14h-1.24V8.1h-.1c-.21.36-.51.66-.87.86-.36.2-.78.3-1.19.29-1.67 0-2.73-1.32-2.73-3.4Zm1.34 0c0 1.39.66 2.23 1.76 2.23s1.77-.85 1.77-2.23-.68-2.23-1.77-2.23-1.76.84-1.76 2.23Zm10.17 0c-.04-.43 0-.87.15-1.28.14-.41.36-.79.65-1.11.29-.32.65-.58 1.04-.75a3.07 3.07 0 0 1 2.52 0 3.114 3.114 0 0 1 1.84 3.14c.04.43 0 .87-.14 1.28-.14.41-.36.79-.65 1.11-.29.32-.65.58-1.04.75a3.07 3.07 0 0 1-2.52 0 3.114 3.114 0 0 1-1.69-1.86c-.14-.41-.19-.85-.14-1.28Zm4.86 0c0-1.42-.64-2.26-1.76-2.26s-1.76.83-1.76 2.26.63 2.26 1.76 2.26 1.76-.83 1.76-2.26Zm3.07-3.28h1.25v1.04h.1c.16-.37.44-.69.79-.9.35-.21.76-.3 1.17-.27a2.155 2.155 0 0 1 1.73.67c.22.23.38.52.48.82.1.31.12.63.07.95v4.25h-1.3V5.2c0-1.06-.46-1.58-1.42-1.58-.22-.01-.43.03-.64.11-.2.08-.38.21-.53.36-.15.16-.26.35-.33.55-.07.21-.09.42-.07.64v3.84h-1.3V2.57ZM121.9.93V2.6h1.42v1.09h-1.42v3.38c0 .69.28.99.93.99.17 0 .33-.01.5-.03v1.08c-.23.04-.47.06-.71.07-1.44 0-2.02-.51-2.02-1.77V3.7h-1.04V2.61h1.04V.93h1.3Zm3.19-.93h1.29v3.62h.1c.17-.38.46-.69.82-.9.36-.21.77-.31 1.19-.27a2.192 2.192 0 0 1 1.71.7c.22.23.38.51.47.82.1.3.12.62.08.94v4.24h-1.3V5.23c0-1.05-.49-1.58-1.4-1.58-.22-.02-.45.01-.66.09-.21.08-.4.2-.56.36-.16.16-.28.35-.35.56-.08.21-.11.43-.09.66v3.84h-1.3V0Zm13.22 7.36c-.18.6-.56 1.12-1.08 1.47-.52.35-1.15.5-1.77.43-.43.01-.86-.07-1.26-.24a2.981 2.981 0 0 1-1.67-1.87c-.13-.41-.16-.85-.1-1.28-.06-.43-.02-.87.1-1.28.13-.42.34-.8.63-1.12.29-.33.64-.59 1.04-.76.4-.18.83-.27 1.26-.26 1.83 0 2.93 1.25 2.93 3.31v.45h-4.64v.07c-.02.24 0 .48.09.71.08.23.21.44.37.62s.37.32.59.41c.22.1.46.14.71.14.31.04.62-.02.9-.16s.51-.36.66-.64h1.25Zm-4.56-2.12h3.32c.02-.22-.01-.44-.09-.65-.07-.21-.19-.4-.34-.56-.15-.16-.34-.29-.54-.37-.2-.08-.42-.13-.65-.12-.22 0-.45.04-.65.12-.21.08-.4.21-.55.37-.16.16-.28.35-.37.56-.08.21-.13.43-.12.65Z" style="fill:#250025"/></g></svg>