<svg width="377" height="107" viewBox="0 0 377 107" fill="none" xmlns="http://www.w3.org/2000/svg"><g clip-path="url(#clip0_288_313)"><path d="M21.128 46.316h22.441c11.508 0 17.191-6.008 17.191-14.364 0-8.356-5.39-14.804-16.608-14.804H21.128v29.168ZM0 0h47.79c20.112 0 33.516 11.725 33.516 29.168 0 12.316-5.684 21.694-19.087 25.358v.44c9.616 2.785 14.572 8.352 15.882 21.108 1.458 14.805.875 26.09 4.519 27.702v1.026H62.368C59.745 103.63 59.45 91.9 58.58 80.616c-.876-11.435-7.286-17.884-20.401-17.884H21.132v42.066H0V0Zm179.423 39.867h.438c5.101-8.06 11.95-12.311 22.148-12.311 15.444 0 25.791 11.725 25.791 28.141v49.105h-19.814v-46.17c0-8.061-4.663-13.779-12.97-13.779-8.744 0-15.155 7.035-15.155 17.298v42.651h-19.814V27.556h19.381v12.31h-.005Zm105.056 27.852c0-14.364-4.663-24.037-17.34-24.037-10.93 0-16.464 9.673-16.464 23.596s5.679 23.015 15.881 23.015c11.806 0 17.923-8.792 17.923-22.575Zm-53.917-.441c0-23.45 13.26-39.722 31.913-39.722 10.492 0 17.047 4.836 21.128 11.14h.438V0h19.814v104.802h-19.087v-9.818h-.289c-4.375 7.18-11.805 12.016-22.297 12.016-18.798 0-31.62-15.39-31.62-39.722Zm125.163 10.994V66.987c-3.499 2.053-8.889 3.224-13.842 4.396-10.347 2.343-15.444 4.691-15.444 11.726 0 7.034 4.664 9.527 11.657 9.527 11.367 0 17.633-7.034 17.633-14.364m-.144 18.174h-.294c-3.787 5.717-9.178 10.113-22.003 10.113-15.3 0-26.085-8.06-26.085-23.015 0-16.561 13.404-21.838 30.017-24.181 12.388-1.763 18.067-2.784 18.067-8.502 0-5.422-4.226-8.941-12.532-8.941-9.323 0-13.842 3.37-14.424 10.553h-17.629c.582-13.192 10.343-24.772 32.202-24.772 21.859 0 31.475 10.113 31.475 27.702v38.255c0 5.717.875 9.087 2.623 10.408v.736h-19.088c-1.164-1.467-1.891-4.986-2.329-8.356Z" fill="#F7F5F0"/><path d="M118.622 104.802c21.206 0 38.396-17.293 38.396-38.623 0-21.331-17.19-38.623-38.396-38.623-21.205 0-38.395 17.292-38.395 38.623 0 21.33 17.19 38.623 38.395 38.623Z" fill="url(#paint0_radial_288_313)"/></g><defs><radialGradient id="paint0_radial_288_313" cx="0" cy="0" r="1" gradientUnits="userSpaceOnUse" gradientTransform="matrix(38.3957 0 0 38.623 118.622 66.179)"><stop stop-color="#F7F5F0" stop-opacity="0"/><stop offset=".16" stop-color="#F7F5F0" stop-opacity="0"/><stop offset=".19" stop-color="#F7F5F0" stop-opacity="0"/><stop offset=".37" stop-color="#F7F5F0" stop-opacity="0"/><stop offset=".44" stop-color="#F7F5F0" stop-opacity=".04"/><stop offset=".48" stop-color="#F7F5F0" stop-opacity=".08"/><stop offset=".52" stop-color="#F7F5F0" stop-opacity=".15"/><stop offset=".55" stop-color="#F7F5F0" stop-opacity=".24"/><stop offset=".58" stop-color="#F7F5F0" stop-opacity=".35"/><stop offset=".61" stop-color="#F7F5F0" stop-opacity=".48"/><stop offset=".63" stop-color="#F7F5F0" stop-opacity=".63"/><stop offset=".66" stop-color="#F7F5F0" stop-opacity=".8"/><stop offset=".68" stop-color="#F7F5F0"/><stop offset="1" stop-color="#F7F5F0"/></radialGradient><clipPath id="clip0_288_313"><path fill="#fff" d="M0 0h377v107H0z"/></clipPath></defs></svg>