<svg xmlns="http://www.w3.org/2000/svg" width="510" height="486" viewBox="0 0 510 486"><defs><clipPath id="1syla"><path d="M384.63 0a63.186 63.186 0 0 0-7.632.473c-25.94 3.203-47.686 22.447-60.635 45.15-32.054 56.2-32.103 124.733-61.429 182.129-40.952 80.158-106.953 65.424-184.229 69.927-17.72 1.031-36.625 6.687-50.26 17.43-8.255 6.506-14.583 14.876-17.54 25.216-24.927 87.101 145.968 138.389 206.093 144.2 107.77 10.404 210.865-39.058 264.916-134.543 53.328-94.207 47.223-233.095-24.557-316.818C433.117 14.222 409.436.031 384.803 0z"/></clipPath></defs><g><g><g opacity=".07"/><g clip-path="url(#1syla)" opacity=".07"><path fill="#7d71fa" d="M384.63 0a63.186 63.186 0 0 0-7.632.473c-25.94 3.203-47.686 22.447-60.635 45.15-32.054 56.2-32.103 124.733-61.429 182.129-40.952 80.158-106.953 65.424-184.229 69.927-17.72 1.031-36.625 6.687-50.26 17.43-8.255 6.506-14.583 14.876-17.54 25.216-24.927 87.101 145.968 138.389 206.093 144.2 107.77 10.404 210.865-39.058 264.916-134.543 53.328-94.207 47.223-233.095-24.557-316.818C433.117 14.222 409.436.031 384.803 0z"/></g></g></g></svg>