<svg xmlns="http://www.w3.org/2000/svg" width="1177" height="1479" viewBox="0 0 1177 1479"><defs><clipPath id="2paya"><path d="M507.018 11.363C334.471 52.121 143.481 222.185 42.991 460.725 3.806 553.74-14.935 666.265 14.18 761.194c15.483 50.49 40.546 91.51 68.002 126.884 157.921 203.455 387.872 212.12 550.53 398.286 68.272 78.136 128.539 185.607 222.573 192.216 2.732.192 5.46.287 8.199.29h.279c18.677-.024 37.444-4.403 55.86-12.424 47.225-20.565 92.174-65.096 127.541-121.656 94.037-150.381 138.687-382.752 128.383-575.653-8.281-155.11-51.837-296.612-111.746-413.795C953.239 139.087 782.536.857 596.019.87c-29.326.003-59.067 3.423-89 10.493"/></clipPath></defs><g><g><g opacity=".07"/><g clip-path="url(#2paya)" opacity=".07"><path fill="#7d71fa" d="M507.018 11.363C334.471 52.121 143.481 222.185 42.991 460.725 3.806 553.74-14.935 666.265 14.18 761.194c15.483 50.49 40.546 91.51 68.002 126.884 157.921 203.455 387.872 212.12 550.53 398.286 68.272 78.136 128.539 185.607 222.573 192.216 2.732.192 5.46.287 8.199.29h.279c18.677-.024 37.444-4.403 55.86-12.424 47.225-20.565 92.174-65.096 127.541-121.656 94.037-150.381 138.687-382.752 128.383-575.653-8.281-155.11-51.837-296.612-111.746-413.795C953.239 139.087 782.536.857 596.019.87c-29.326.003-59.067 3.423-89 10.493"/></g></g></g></svg>