<svg xmlns="http://www.w3.org/2000/svg" width="677" height="647" viewBox="0 0 677 647"><defs><clipPath id="yi0wa"><path d="M511.183 0c-3.372.007-6.762.21-10.151.63-34.502 4.26-63.425 29.859-80.648 60.059-42.633 74.755-42.698 165.919-81.703 242.267-54.47 106.626-142.254 87.027-245.034 93.017-23.57 1.372-48.714 8.895-66.849 23.185-10.98 8.655-19.396 19.788-23.329 33.542-33.154 115.863 194.144 184.085 274.115 191.815 143.34 13.84 280.46-51.955 352.352-178.969 70.93-125.314 62.809-310.062-32.663-421.43C575.673 18.917 544.176.04 511.413 0z"/></clipPath></defs><g><g><g opacity=".05"/><g clip-path="url(#yi0wa)" opacity=".05"><path fill="#7d71fa" d="M511.183 0c-3.372.007-6.762.21-10.151.63-34.502 4.26-63.425 29.859-80.648 60.059-42.633 74.755-42.698 165.919-81.703 242.267-54.47 106.626-142.254 87.027-245.034 93.017-23.57 1.372-48.714 8.895-66.849 23.185-10.98 8.655-19.396 19.788-23.329 33.542-33.154 115.863 194.144 184.085 274.115 191.815 143.34 13.84 280.46-51.955 352.352-178.969 70.93-125.314 62.809-310.062-32.663-421.43C575.673 18.917 544.176.04 511.413 0z"/></g></g></g></svg>