<svg xmlns="http://www.w3.org/2000/svg" width="1679" height="558" viewBox="0 0 1679 558"><defs><clipPath id="jiaua"><path d="M735.866 11.09C478.29 52.694 193.186 226.28 43.176 469.76-15.318 564.703-43.295 679.558.166 776.453c23.112 51.536 60.526 93.406 101.512 129.513 235.741 207.67 579.007 216.513 821.82 406.536 101.915 79.755 191.879 189.452 332.252 196.198 4.077.196 8.151.292 12.239.296h.416c27.88-.024 55.895-4.494 83.387-12.681 70.496-20.992 137.596-66.445 190.39-124.177 140.377-153.496 207.029-390.68 191.648-587.577-12.362-158.323-77.382-302.756-166.813-422.366C1401.974 141.46 1147.153.366 868.724.38c-43.777.003-88.173 3.493-132.858 10.71"/></clipPath></defs><g><g><g opacity=".05"/><g clip-path="url(#jiaua)" opacity=".05"><path fill="#7d71fa" d="M735.866 11.09C478.29 52.694 193.186 226.28 43.176 469.76-15.318 564.703-43.295 679.558.166 776.453c23.112 51.536 60.526 93.406 101.512 129.513 235.741 207.67 579.007 216.513 821.82 406.536 101.915 79.755 191.879 189.452 332.252 196.198 4.077.196 8.151.292 12.239.296h.416c27.88-.024 55.895-4.494 83.387-12.681 70.496-20.992 137.596-66.445 190.39-124.177 140.377-153.496 207.029-390.68 191.648-587.577-12.362-158.323-77.382-302.756-166.813-422.366C1401.974 141.46 1147.153.366 868.724.38c-43.777.003-88.173 3.493-132.858 10.71"/></g></g></g></svg>