<svg xmlns="http://www.w3.org/2000/svg" version="1.1" xmlns:xlink="http://www.w3.org/1999/xlink" width="78.5" height="78.5"><svg xmlns="http://www.w3.org/2000/svg" version="1.1" viewBox="0 0 78.5 78.5">
  <!-- Generator: Adobe Illustrator 29.1.0, SVG Export Plug-In . SVG Version: 2.1.0 Build 142)  -->
  <defs>
    <style>
      .st0 {
        fill: #fff;
      }

      .st1 {
        fill-rule: evenodd;
      }

      .st1, .st2 {
        fill: #3a0164;
      }
    </style>
  </defs>
  <g id="SvgjsG1733" image-rendering="optimizeQuality" shape-rendering="geometricPrecision" text-rendering="geometricPrecision">
    <rect class="st0" width="78.5" height="78.5"></rect>
    <g id="SvgjsG1732">
      <g>
        <path class="st1" d="M7.1,72.9V5.6h64.3v67.3H7.1ZM9.2,70.7h60.1V7.7H9.2v63Z"></path>
        <path class="st2" d="M44.1,55.4c2.7,0,5.8-.3,7.4-1,.7-.3.9-.4,1.1-1.2.4-1.4,1-5,1-5.5s0-.6-.4-.6-.4.2-.5.9c0,.7-.6,1.9-1.3,2.7-1.7,1.9-3.9,2.3-7.6,2.3-5.5,0-13-4.8-13-14.7s.8-7.8,3.8-10.6c1.8-1.7,4.2-2.6,7.8-2.6s7,1.2,8.4,2.6c1,1.1,1.5,2.5,1.6,3.7,0,.6,0,.9.4.9.4,0,.4-.3.5-.9,0-.8,0-3.1,0-4.5,0-1.4.3-2,.3-2.3s-.2-.4-.6-.4c-1.2-.2-2.6-.5-4.2-.7-1.9-.3-3.4-.4-6-.4-6.1,0-10,1.7-13,4.4-3.9,3.7-4.8,8.6-4.8,11.3,0,4,1.1,8.6,5.2,12.2,3.7,3.2,8.5,4.5,14.1,4.5Z"></path>
      </g>
    </g>
  </g>
</svg><style>@media (prefers-color-scheme: light) { :root { filter: none; } }
@media (prefers-color-scheme: dark) { :root { filter: none; } }
</style></svg>