<svg width="38" height="38" viewBox="0 0 38 38" fill="none" xmlns="http://www.w3.org/2000/svg"><g clip-path="url(#clip0_2224_899)" stroke="#382462" stroke-width="2" stroke-linecap="round" stroke-linejoin="round"><path d="M26.989 14.075 18.466 5.6H7.956c-.96 0-1.74.776-1.74 1.73v23.34c0 .954.78 1.73 1.74 1.73h11.88"/><path d="M18.466 14.075h8.523L18.466 5.6v8.475Zm-8.153.163h4.59m-4.59 4.129h11.181m-11.181 8.229h8.674m-8.674-4.115h8.674m8.001-8.406v4.918m-.78 11.786c2.21 0 4-1.781 4-3.979 0-2.197-1.79-3.978-4-3.978s-4.002 1.781-4.002 3.978c0 2.198 1.792 3.979 4.002 3.979Zm5.576 1.621-2.822-2.738"/></g><defs><clipPath id="clip0_2224_899"><path fill="#fff" transform="translate(5.53 4.918)" d="M0 0h26.939v28.163H0z"/></clipPath></defs></svg>