<svg width="38" height="38" viewBox="0 0 38 38" fill="none" xmlns="http://www.w3.org/2000/svg"><g clip-path="url(#clip0_2224_927)" stroke="#382462" stroke-width="2" stroke-miterlimit="10" stroke-linecap="round"><path d="M10.279 20.973s-3.587 1.27-3.26 4.463c.287 2.812 3.205 4.04 4.855 4.177a.88.88 0 0 1 .764.6c.34.97 1.227 2.798 3.259 2.798a3.444 3.444 0 0 0 3.409-3.48V7.966c-.027-2.157-2.168-3.822-4.309-3.562-2.114.273-2.973 2.238-3.286 3.22a.863.863 0 0 1-.737.615c-.832.11-2.373.505-3.518 1.924-1.24 1.53-1.064 3.221-.9 3.972a.798.798 0 0 1-.205.71c-.477.532-1.336 1.788-1.336 3.835 0 2.84 1.964 4.49 1.964 4.49"/><path d="M14.288 16.182s5.005-.41 5.005-3.685m9.041 8.476s3.586 1.27 3.259 4.463c-.287 2.812-3.205 4.04-4.855 4.177a.88.88 0 0 0-.764.6c-.34.97-1.227 2.798-3.259 2.798a3.444 3.444 0 0 1-3.409-3.48V7.966c.027-2.157 2.168-3.822 4.31-3.562 2.113.273 2.972 2.238 3.286 3.22a.862.862 0 0 0 .736.615c.832.11 2.373.505 3.518 1.924 1.241 1.53 1.064 3.221.9 3.972a.798.798 0 0 0 .205.71c.477.532 1.336 1.788 1.336 3.835 0 2.84-1.963 4.49-1.963 4.49"/><path d="M24.324 16.182s-5.004-.41-5.004-3.685"/></g><defs><clipPath id="clip0_2224_927"><path fill="#fff" transform="translate(4.306 3.694)" d="M0 0h30v30H0z"/></clipPath></defs></svg>