<svg width="38" height="38" viewBox="0 0 38 38" fill="none" xmlns="http://www.w3.org/2000/svg"><path d="M21.147 10.382c.137.222.357.381.61.444l2.68.662-1.779 2.111c-.168.2-.252.457-.233.717l.198 2.755-2.557-1.04a1 1 0 0 0-.662-.032l-.092.032-2.559 1.04.2-2.755a1 1 0 0 0-.233-.717l-1.781-2.111 2.682-.662c.253-.063.472-.222.61-.444l1.458-2.344 1.458 2.344ZM10.815 21.403c.138.221.357.38.61.443l2.681.662-1.78 2.112a1.001 1.001 0 0 0-.232.716l.198 2.755-2.558-1.04a1 1 0 0 0-.662-.032l-.092.032-2.558 1.04.199-2.755a1 1 0 0 0-.233-.716l-1.78-2.112 2.682-.662c.253-.062.472-.222.61-.443l1.457-2.345 1.458 2.345Zm19.285 0c.138.221.358.38.611.443l2.68.662-1.778 2.112a.998.998 0 0 0-.234.716l.198 2.755-2.557-1.04a1 1 0 0 0-.662-.032l-.092.032-2.559 1.04.2-2.755a1.001 1.001 0 0 0-.233-.716l-1.781-2.112 2.682-.662c.253-.062.472-.222.61-.443l1.458-2.345 1.458 2.345Z" stroke="#382462" stroke-width="2" stroke-linejoin="round"/></svg>