<svg xmlns="http://www.w3.org/2000/svg" width="16" height="20" viewBox="0 0 16 20"><defs><style>.cls-1{fill:#fff;fill-rule:evenodd}</style></defs><path id="apple" class="cls-1" d="M16 14.67a14.762 14.762 0 0 1-1.21 2.43c-.79 1.28-1.89 2.878-3.265 2.893-1.22.012-1.533-.853-3.188-.843s-2 .858-3.22.846c-1.372-.014-2.417-1.458-3.207-2.743-2.2-3.59-2.427-7.8-1.072-10.045a4.815 4.815 0 0 1 3.911-2.523c1.455 0 2.369.856 3.571.856 1.167 0 1.877-.858 3.559-.858a4.657 4.657 0 0 1 3.578 2.028A4.533 4.533 0 0 0 16 14.67zM10.6 3.248A4.6 4.6 0 0 0 11.51 0a4.331 4.331 0 0 0-2.847 1.647 4.265 4.265 0 0 0-.93 3.165A3.646 3.646 0 0 0 10.6 3.248z"/></svg>