<svg xmlns="http://www.w3.org/2000/svg" width="17" height="17" viewBox="0 0 17 17"><defs><style>.cls-1{fill:#fff;fill-rule:evenodd}</style></defs><path id="icon" class="cls-1" d="M16.292 11.428a.709.709 0 0 0-.708.712v3.435H1.416V12.14a.708.708 0 1 0-1.416 0v4.148A.709.709 0 0 0 .708 17h15.584a.709.709 0 0 0 .708-.712V12.14a.709.709 0 0 0-.708-.712zm-8.313.844a.707.707 0 0 0 1.037 0l4.07-4.406a.716.716 0 0 0-.038-1.009.7.7 0 0 0-1 .038l-2.84 3.077V.712a.708.708 0 1 0-1.415 0v9.263L4.951 6.9a.708.708 0 0 0-1-.039.72.72 0 0 0-.041 1.009z"/></svg>