<svg xmlns="http://www.w3.org/2000/svg" width="16" height="18" viewBox="0 0 16 18"><defs><style>.cls-1{fill:#fff;fill-rule:evenodd}</style></defs><path id="icon" class="cls-1" d="M3.192.261a2.068 2.068 0 0 0-2.116.005l7.776 7.577 2.612-2.759zM.3 1.041a2.189 2.189 0 0 0-.3 1.1v13.686A2.2 2.2 0 0 0 .278 16.9L8.1 8.64zM14.928 7.1l-2.492-1.449-2.8 2.956 3.431 3.343 1.861-1.084a2.188 2.188 0 0 0 0-3.766zM8.882 9.4l-7.841 8.287A2.113 2.113 0 0 0 2.13 18a2.106 2.106 0 0 0 1.061-.292l8.893-5.184z"/></svg>