<svg xmlns="http://www.w3.org/2000/svg" width="16" height="16" viewBox="0 0 16 16"><defs><style>.cls-1{fill:#fff;fill-rule:evenodd}</style></defs><path id="google_plus" data-name="google plus" class="cls-1" d="M9.52 9.235c-1.633-1.162-2.243-1.709-1.2-2.628s1.872-1.665 1.872-3.375A3.215 3.215 0 0 0 8.779.648a3.079 3.079 0 0 0 1.568-.156 5.787 5.787 0 0 0 .783-.5h-5.2c-1.044 0-3.939 1.183-3.939 3.941s3 3.353 4.094 3.31a1.26 1.26 0 0 0 .239 1.773c.327.351.261.46-.13.46S.963 9.527.963 12.982s6.423 3.7 8.535 1.842a3.469 3.469 0 0 0 .022-5.589zM6.428 6.561C3.836 6.561 2.66.517 5.709.517c2.373-.089 4.158 6.044.719 6.044zm-.308 8.458c-2.153 0-3.308-1.073-3.308-2.673S4.381 9.958 7.32 9.958c.8.613 2.221 1.356 2.221 2.848s-1.268 2.213-3.421 2.213zM14.015.031V2h1.959v1.02h-1.959v1.97H13V3.016h-1.995V2H13V.031h1.018z"/></svg>