<svg xmlns="http://www.w3.org/2000/svg" width="17" height="13" viewBox="0 0 17 13"><defs><style>.cls-1{fill:#fff;fill-rule:evenodd}</style></defs><path id="twitter" class="cls-1" d="M16.562 1.589a5.824 5.824 0 0 1-1.832.517A3.5 3.5 0 0 0 16.106.317a5.357 5.357 0 0 1-2.06.728 3.3 3.3 0 0 0-5.6 3.011A9.527 9.527 0 0 1 1.452.638a3.291 3.291 0 0 0 1 4.351 2.116 2.116 0 0 1-1.441-.37 3.174 3.174 0 0 0 2.546 3.22 2.618 2.618 0 0 1-1.374.1 3.121 3.121 0 0 0 2.95 2.237 5.421 5.421 0 0 1-4.571 1.37A9.916 9.916 0 0 0 5.725 13a9.16 9.16 0 0 0 9.238-9.621v-.017-.042-.05a5.686 5.686 0 0 0 1.599-1.681z"/></svg>