<svg xmlns="http://www.w3.org/2000/svg" width="467.032" height="78.463" viewBox="0 0 4865 817" shape-rendering="geometricPrecision" text-rendering="geometricPrecision" image-rendering="optimizeQuality" fill-rule="evenodd" clip-rule="evenodd"><defs><style>.fil2{fill:#000}.fil0,.fil1{fill:#000;fill-rule:nonzero}.fil0{fill:#3a0164}</style></defs><g id="Layer_x0020_1"><g id="_2676889671248"><path class="fil0" d="M1332 447c33 0 72-4 93-12 9-4 11-6 14-15 5-18 11-63 11-69 0-4-1-8-5-8s-5 2-6 10c-2 10-9 25-18 35-21 24-49 29-95 29-70 0-164-61-164-185 0-51 10-100 48-135 23-21 52-32 98-32 47 0 88 14 105 32 13 14 20 32 20 48 0 7 2 11 6 11s5-4 6-12c1-10 0-39 1-56 2-18 3-24 3-28s-2-6-8-7c-15-1-32-6-52-9-24-3-43-5-75-5-78 0-127 21-165 55-49 46-60 108-60 143 0 50 13 109 64 153 47 41 107 57 179 57zm291-158c0 48 0 89-3 111-2 15-4 26-15 28-4 1-11 2-18 2s-9 2-9 5 4 5 11 5c10 0 24-1 36-1 12-1 24-1 29-1 16 0 32 1 54 2 23 0 51 1 90 1 20 0 25 0 28-13 3-11 7-46 7-58 0-5 0-9-4-9s-5 2-6 8c-3 21-10 32-23 38-14 6-35 6-49 6-53 0-61-8-62-43-1-16 0-63 0-81v-41c0-3 0-5 3-5 12 0 64 0 74 1 19 2 26 10 29 20 1 7 1 14 2 19 0 3 1 5 4 5 5 0 5-6 5-10s2-24 2-35c2-26 4-35 4-38s-1-4-3-4c-3 0-5 3-9 7-4 5-12 7-25 8-11 1-71 1-83 1-3 0-3-2-3-6V79c0-3 1-5 3-5 11 0 65 1 74 2 26 3 31 10 35 19 3 6 3 15 3 19s1 7 5 7c3 0 4-3 5-6 1-6 2-29 3-34 1-24 4-30 4-34 0-3-1-5-3-5-3 0-6 2-9 2-4 2-12 3-22 4h-130c-7 0-19 0-33-1h-42c-8 0-11 1-11 4 0 4 3 5 8 5 8 0 17 0 21 1 17 4 21 12 22 30 1 17 1 31 1 110v92zm390 0c0 48 0 89-2 111-2 15-5 26-15 28-5 1-11 2-19 2-6 0-8 2-8 5s3 5 10 5c21 0 54-2 64-2 7 0 46 2 76 2 7 0 10-2 10-5s-2-5-6-5c-6 0-17-1-25-2-16-2-19-13-21-28-2-22-2-63-2-112v-7c0-3 1-4 4-4l45 1c4 0 7 1 10 4 6 7 30 43 51 71 29 40 49 65 71 77 14 7 27 10 56 10h49c7 0 10-1 10-5 0-3-2-5-6-5s-9 0-15-1c-7-2-29-5-58-36-30-32-66-78-113-136 53-43 69-78 69-117 0-35-21-61-35-71-28-19-63-22-96-22-16 0-56 1-73 1-11 0-44-1-72-1-7 0-11 1-11 4 0 4 3 5 9 5 7 0 16 0 20 1 17 4 21 12 22 30 1 17 1 31 1 110v92zm62-209c0-4 1-6 4-7 6-1 15-2 28-2 31 0 80 21 80 95 0 43-15 67-31 78-9 7-16 9-37 9-13 0-29-2-40-5-3-2-4-4-4-10V80zm442 209c0 48 0 89-2 111-2 15-5 26-15 28-5 1-11 2-19 2-6 0-9 2-9 5s4 5 11 5c21 0 53-2 65-2 15 0 48 2 82 2 6 0 10-2 10-5s-3-5-8-5c-8 0-20-1-27-2-16-2-19-13-20-28-3-22-3-63-3-111V76l66 1c46 1 60 16 61 29l1 6c0 8 1 10 5 10 3 0 5-3 5-8 0-13 2-49 2-60 0-8-1-11-5-11-2 0-6 1-14 3-7 1-19 2-35 2h-206c-18 0-37-1-52-2-13-2-19-7-23-7-3 0-5 3-6 10-1 4-11 52-11 60 0 6 1 8 5 8 3 0 4-2 5-6s4-10 9-18c8-12 21-14 51-15l77-2v213zm362 0c0 50 0 91-3 113-1 15-4 24-15 26-4 1-11 2-18 2s-9 2-9 5 4 5 11 5c20 0 53-2 65-2 14 0 47 2 81 2 6 0 10-2 10-5s-2-5-8-5c-8 0-19-1-27-2-15-2-19-11-20-25-3-23-3-64-3-114v-92c0-79 0-93 1-110 2-18 6-27 20-30 6-1 10-1 15-1 6 0 9-1 9-5 0-3-5-4-11-4-20 0-51 1-64 1-15 0-48-1-67-1-9 0-13 1-13 4 0 4 3 5 8 5 7 0 13 0 19 2 12 3 17 11 18 29 1 17 1 31 1 110v92zm366 0c0 48 0 89-3 111-1 15-4 26-15 28-5 1-11 2-19 2-6 0-8 2-8 5s4 5 11 5c20 0 53-2 65-2 15 0 47 2 82 2 5 0 10-2 10-5s-3-5-9-5c-8 0-19-1-26-2-16-2-19-13-21-28-2-22-2-63-2-111V76l65 1c47 1 61 16 62 29v6c1 8 2 10 6 10 3 0 4-3 5-8 0-13 1-49 1-60 0-8 0-11-4-11-2 0-6 1-14 3-8 1-19 2-36 2h-206c-17 0-37-1-52-2-13-2-18-7-22-7-3 0-5 3-6 10-1 4-11 52-11 60 0 6 1 8 4 8s5-2 6-6 4-10 9-18c8-12 20-14 50-15l78-2v213zm339-16c0 76 20 114 47 138 37 34 87 36 115 36 34 0 71-6 108-37 44-38 50-99 50-157v-56c0-79 0-93 1-110 1-18 5-27 19-30 6-1 9-1 15-1s9-1 9-5c0-3-3-4-11-4-20 0-53 1-59 1 0 0-33-1-60-1-7 0-11 1-11 4 0 4 3 5 9 5s15 0 19 1c17 4 21 12 22 30 1 17 1 31 1 110v65c0 54-1 101-30 129-21 21-49 28-72 28-17 0-41-2-65-21-25-21-40-52-40-128v-73c0-79 0-93 1-110 1-18 5-27 19-30 6-1 9-1 15-1 5 0 9-1 9-5 0-3-4-4-12-4-19 0-51 1-64 1-16 0-48-1-76-1-8 0-11 1-11 4 0 4 3 5 9 5 7 0 16 0 20 1 17 4 21 12 22 30 1 17 1 31 1 110v76zm527 16c0 48 0 89-2 111-2 15-5 26-15 28-5 1-11 2-19 2-6 0-8 2-8 5s3 5 10 5c10 0 24-1 36-1 12-1 24-1 30-1 13 0 31 2 51 3 19 2 41 3 59 3 97 0 151-36 175-61 29-30 56-80 56-145 0-62-24-105-50-132-57-59-144-59-209-59-31 0-64 1-80 1-14 0-47-1-75-1-7 0-11 1-11 4 0 4 3 5 9 5 7 0 16 0 20 1 17 4 21 12 22 30 1 17 1 31 1 110v92zm65-100c0-41 0-86 1-104 0-6 1-8 6-10 4-2 24-4 34-4 41 0 100 6 148 52 22 21 50 64 50 130 0 54-11 101-44 130-31 27-67 37-120 37-41 0-61-11-68-21-4-6-5-26-6-39 0-10-1-50-1-105v-66zm479 100c0 48 0 89-3 111-2 15-5 26-15 28-5 1-11 2-19 2-6 0-8 2-8 5s4 5 10 5c11 0 24-1 36-1 13-1 24-1 30-1 15 0 32 1 54 2 22 0 51 1 90 1 20 0 24 0 28-13 3-11 7-46 7-58 0-5 0-9-4-9s-5 2-6 8c-4 21-10 32-23 38-14 6-36 6-49 6-53 0-62-8-63-43V248c0-3 1-5 3-5 13 0 64 0 74 1 19 2 27 10 29 20 2 7 2 14 2 19 0 3 1 5 5 5 5 0 5-6 5-10s1-24 2-35c2-26 4-35 4-38s-2-4-4-4-4 3-8 7c-5 5-12 7-25 8-12 1-72 1-83 1-3 0-4-2-4-6V79c0-3 1-5 4-5 10 0 65 1 74 2 26 3 31 10 35 19 2 6 3 15 3 19s1 7 4 7c4 0 5-3 6-6 1-6 2-29 2-34 2-24 4-30 4-34 0-3 0-5-3-5-2 0-6 2-8 2-4 2-13 3-22 4h-131c-7 0-19 0-32-1h-42c-8 0-12 1-12 4 0 4 3 5 9 5 7 0 16 0 20 1 17 4 22 12 23 30 1 17 1 31 1 110v92z"/><path class="fil1" d="M1128 771c2 5 3 7 4 7 3 0 3-2 7-10 8-16 32-81 35-90h1l38 91c2 7 4 9 5 9 3 0 4-2 6-9 9-27 28-85 36-108 4-10 6-17 10-19 2-1 5-1 7-1 1 0 2 0 2-2 0-1-1-1-3-1h-34c-3 0-4 0-4 1 0 2 1 2 3 2 7 0 9 3 9 6 0 2-1 6-2 10-7 21-21 70-25 82l-38-92c-2-6-3-9-5-9s-3 2-5 7l-35 95h-1c-3-10-20-65-23-77-2-9-4-15-4-17s0-3 2-4c1-1 3-1 5-1 1 0 3 0 3-2 0-1-1-1-4-1h-41c-3 0-4 0-4 1 0 2 1 2 3 2 1 0 5 0 7 2s4 6 7 13l38 115zm262 7c47 0 76-33 76-75 0-41-28-68-74-68-54 0-75 40-75 72s21 71 73 71zm8-9c-35 0-56-30-56-68 0-45 24-57 45-57 30 0 53 25 53 66 0 53-29 59-42 59zm139-46c0 16 0 31-1 38 0 6-1 10-5 10-2 1-4 1-7 1-2 0-2 1-2 2s1 2 3 2c7 0 19-1 22-1s17 1 27 1c3 0 4-1 4-2s-1-2-2-2c-3 0-7 0-9-1-6 0-7-4-7-10-1-7-1-22-1-39v-2c0-1 0-2 1-2l16 1c1 0 2 0 3 1 3 3 11 15 18 25 10 14 17 23 25 27 5 3 10 4 20 4h17c2 0 3-1 3-2s0-2-2-2h-5c-3-1-10-2-20-13-11-11-24-27-40-48 19-15 24-27 24-40s-7-22-12-25c-10-7-22-8-34-8h-50c-3 0-4 0-4 1 0 2 1 2 3 2s6 0 7 1c6 1 7 4 8 10v71zm22-73c0-2 0-3 1-3 2 0 5-1 10-1 11 0 28 8 28 34 0 15-5 23-11 27-3 2-6 3-13 3-4 0-10 0-14-2-1 0-1-1-1-3v-55zm171 41c0-28 0-33 1-39 0-6 1-9 6-10 3-1 4-1 5-1 2 0 3 0 3-2 0-1-1-1-4-1h-47c-3 0-4 0-4 1 0 2 1 2 3 2s5 0 7 1c6 1 7 4 8 10v71c0 16 0 31-1 38-1 6-2 10-5 10-2 1-4 1-7 1-2 0-3 1-3 2s2 2 4 2c7 0 19-1 23-1 5 0 16 1 26 1 2 0 4-1 4-2s-1-2-3-2-6 0-9-1c-4 0-6-4-6-9-1-8-1-23-1-39v-17h1l2 3c4 5 40 47 48 54s13 11 22 12c4 1 8 1 13 1h16c3 0 4-1 4-2s-1-2-2-2c-2 0-6 0-11-3-10-3-18-12-26-19s-43-45-50-54c6-6 34-34 40-39 7-8 14-12 19-14 4-1 8-2 11-2 2 0 3 0 3-2 0-1-2-1-4-1h-40c-2 0-3 0-3 1 0 2 1 2 3 2 2 1 2 2 2 4 0 3-4 8-9 14s-32 33-38 40h-1v-8zm151 32c0 16 0 31-1 38 0 6-1 10-5 10-2 1-4 1-6 1-3 0-3 1-3 2s1 2 3 2c8 0 19-1 23-1 5 0 16 1 28 1 2 0 4-1 4-2s-1-2-3-2c-3 0-7 0-9-1-6 0-7-4-7-9-1-8-1-23-1-39v-73c0-2 0-3 1-4h7c4 0 12 1 18 7 11 9 11 21 11 27 0 19-14 30-24 30-4 0-5 1-5 2s1 2 2 2h4c26 0 45-18 45-44 0-10-6-18-10-22-2-3-11-10-33-10h-53c-3 0-4 0-4 1 0 2 1 2 3 2 3 0 6 0 7 1 6 1 8 4 8 10v71zm176-32v-39c0-6 2-9 7-10 2-1 5-1 7-1s3 0 3-2c0-1-1-1-4-1h-49c-3 0-4 0-4 1 0 2 1 2 3 2s4 0 6 1c6 1 7 4 8 10v71c0 16 0 31-1 38-1 6-2 10-5 10-2 1-4 1-7 1-2 0-3 1-3 2s2 2 4 2c4 0 8-1 12-1h11c7 0 14 0 22 1h31c9 0 10-1 11-5 2-5 3-19 3-21s0-3-1-3c-2 0-2 1-2 3-1 3-3 8-5 11-5 5-12 5-21 5-15 0-19-1-22-4-4-3-4-16-4-39v-32zm172 38c1 0 2 0 2 1l14 38c1 2 0 4-1 4-2 0-3 1-3 2s2 1 6 1c14 1 28 1 34 1 7 0 9-1 9-2 0-2-1-2-3-2s-5 0-7-1c-4 0-10-3-17-19-11-28-40-101-45-111-2-4-3-6-4-6-2 0-3 2-5 8l-46 112c-4 10-7 16-16 17h-5c-2 0-2 1-2 2s1 2 3 2c10 0 20-1 22-1 5 0 13 1 19 1 2 0 3-1 3-2s-1-2-3-2h-2c-6 0-8-2-8-5s1-7 3-12l10-24c0-2 1-2 1-2h41zm-37-9c-1 0-1-1-1-1l17-45c0-1 1-2 1-2 1 0 1 1 1 2l17 45s0 1-1 1h-34zm215 58c12 0 26-1 33-4 3-1 4-2 5-5 2-7 4-22 4-25 0-1-1-2-2-2s-2 0-2 3c-1 4-3 9-6 12-8 9-18 10-34 10-24 0-57-21-57-64 0-18 3-35 17-48 8-7 18-11 34-11 17 0 31 5 37 11 4 5 7 12 7 17 0 3 0 4 2 4 1 0 2-1 2-4v-20c1-6 1-8 1-10 0-1 0-2-2-2-6 0-12-2-19-3-8-1-15-2-26-2-27 0-44 8-58 20-17 16-21 37-21 49 0 18 5 39 23 54 16 15 37 20 62 20zm114-55c0 16 0 31-1 38-1 6-1 10-5 10-2 1-4 1-7 1-2 0-3 1-3 2s2 2 4 2c4 0 8-1 13-1h10c5 0 11 0 19 1h31c7 0 9 0 10-5 1-3 3-16 3-20 0-2 0-3-2-3-1 0-1 1-2 3-1 7-3 11-8 13s-12 2-17 2c-19 0-22-3-22-15v-43c0-1 0-2 1-2 4 0 23 1 26 1 7 1 9 3 10 7 1 2 1 5 1 7 0 1 0 1 2 1 1 0 1-2 1-3s1-9 1-12c1-10 1-13 1-14s0-1-1-1-2 1-3 2c-1 2-4 3-9 3h-29c-1 0-1 0-1-2v-46c0-1 0-2 1-2 4 0 23 1 26 1 9 1 11 3 12 7 1 2 1 5 1 6 0 2 1 3 2 3s2-1 2-2c0-2 1-10 1-12 0-9 1-11 1-12s0-2-1-2-2 1-3 1-4 1-8 1h-71c-3 0-4 0-4 1 0 2 1 2 3 2s5 0 7 1c6 1 7 4 8 10v71zm203 0c0 17 0 32-1 39 0 6-1 9-5 9-2 1-4 1-7 1-2 0-2 1-2 2s1 2 3 2c7 0 19-1 23-1 5 0 17 1 29 1 2 0 3-1 3-2s-1-2-3-2c-3 0-7 0-9-1-6 0-7-4-7-8-1-8-1-23-1-40v-32-39c1-6 2-9 7-10 2-1 4-1 5-1 2 0 3 0 3-2 0-1-1-1-4-1h-45c-3 0-5 0-5 1 0 2 1 2 3 2s5 0 7 1c4 1 5 4 6 10v71zm124-48h1c3 3 23 25 43 45 19 19 42 43 54 54 2 2 4 4 6 4s2-2 2-6l2-115c0-10 2-14 7-15 2-1 4-1 5-1 3 0 4 0 4-2 0-1-2-1-4-1h-40c-3 0-5 0-5 1 0 2 1 2 3 2s7 0 9 1c5 2 7 5 7 17l2 81h-1c-3-3-28-29-40-41-27-27-55-56-57-58-3-3-5-6-7-6-1 0-2 3-2 6l-2 108c0 16-1 21-5 22-3 1-6 1-8 1s-3 1-3 2 1 2 4 2c9 0 18-1 19-1 4 0 11 1 23 1 2 0 4-1 4-2s-1-2-3-2c-3 0-6 0-9-1-4-1-7-6-7-20l-2-76zm227 92c3 9 4 11 7 11 2 0 3-3 8-13 4-10 13-29 24-56 10-22 15-32 22-49 5-12 8-15 10-17 4-2 7-2 9-2s3 0 3-2c0-1-1-1-4-1h-36c-3 0-5 0-5 2 0 1 1 1 3 1s5 0 7 1 3 2 3 3c0 2-1 5-2 7-4 12-28 71-36 91h-1l-31-83c-2-6-4-11-4-14 0-1 0-3 2-4 1-1 4-1 7-1 1 0 3 0 3-2 0-1-2-1-5-1h-48c-3 0-5 0-5 1 0 2 0 2 2 2 1 0 4 0 7 1 7 2 10 4 14 14l46 111zm136-44c0 16 0 31-1 38-1 6-2 10-5 10-2 1-4 1-7 1-2 0-3 1-3 2s2 2 4 2c4 0 8-1 12-1h11c5 0 11 0 19 1h31c7 0 9 0 10-5 1-3 3-16 3-20 0-2 0-3-2-3-1 0-2 1-2 3-1 7-3 11-8 13s-13 2-17 2c-19 0-22-3-22-15v-43c0-1 0-2 1-2 4 0 22 1 26 1 7 1 9 3 10 7 1 2 1 5 1 7 0 1 0 1 1 1 2 0 2-2 2-3s1-9 1-12c1-10 1-13 1-14s0-1-1-1-2 1-3 2c-2 2-4 3-9 3h-29c-1 0-1 0-1-2v-46c0-1 0-2 1-2 4 0 23 1 26 1 9 1 11 3 12 7 1 2 1 5 1 6 0 2 1 3 2 3s2-1 2-2c0-2 1-10 1-12 0-9 1-11 1-12s0-2-1-2-2 1-3 1-4 1-8 1h-71c-3 0-4 0-4 1 0 2 1 2 3 2s5 0 7 1c6 1 7 4 8 10v71zm165 55c10 0 20-2 29-7 13-9 17-22 17-32 0-17-8-30-30-47l-5-3c-15-12-19-18-19-27 0-11 8-18 21-18 12 0 18 5 20 9 4 4 5 10 5 12s1 3 2 3 2-2 2-6c0-14 1-19 1-21s-1-2-3-3c-5-1-12-3-24-3-25 0-42 15-42 35 0 14 7 27 27 43l8 6c15 12 18 21 18 30s-8 20-24 20c-12 0-23-5-27-18 0-3-1-7-1-9s0-3-2-3c-1 0-2 2-2 4 0 3-1 14-1 24 0 4 0 5 3 6 8 4 16 5 27 5zm147-55c0 16 0 31-1 38 0 6-2 10-5 10-2 1-4 1-7 1-2 0-3 1-3 2s2 2 4 2c7 0 19-1 23-1 5 0 17 1 29 1 2 0 3-1 3-2s-1-2-3-2c-3 0-7 0-9-1-6 0-7-4-7-9-1-8-1-23-1-39v-75l23 1c16 0 21 5 21 10v2c1 2 1 3 2 3s2-1 2-3c0-4 1-17 1-21 0-2-1-3-2-3h-5c-3 1-7 1-12 1h-72c-6 0-13 0-19-1-4 0-6-2-8-2-1 0-1 1-2 4 0 1-4 18-4 21 0 2 1 3 2 3s2-1 2-3c0-1 1-3 3-6 3-4 7-5 18-5l27-1v75zm138 0v39c-1 6-2 9-6 9-1 1-4 1-6 1s-3 1-3 2 1 2 3 2c8 0 19-1 23-1 5 0 17 1 29 1 2 0 3-1 3-2s-1-2-3-2-6 0-9-1c-5 0-7-4-7-8-1-8-1-23-1-40v-32-39c1-6 2-9 7-10 2-1 4-1 6-1 1 0 3 0 3-2 0-1-2-1-4-1h-46c-3 0-5 0-5 1 0 2 2 2 3 2 3 0 5 0 7 1 4 1 6 4 6 10v71zM3886 743v-22c0-6 2-9 7-10 2 0 3-1 5-1 1 0 2 0 2-1s-1-2-3-2c-6 0-16 1-22 1-5 0-17-1-26-1-3 0-4 1-4 2s1 1 3 1 5 1 7 1c6 1 8 4 8 10v39c0 3-1 5-4 7-4 2-10 2-15 2-38 0-63-30-63-69 0-22 6-36 16-44 13-11 26-12 36-12 21 0 36 9 41 15 5 5 6 10 6 15 0 1 1 2 2 2 2 0 2-1 2-4 0-23 1-28 1-30 0-1 0-2-2-2-4 0-11-1-15-2-3-1-19-3-32-3-15 0-31 2-49 12-16 10-32 31-32 60 0 50 40 71 85 71 14 0 32-2 44-8 2-1 2-2 2-7v-20zm132-14c1 0 1 0 2 1l14 38c1 2 0 4-1 4-2 0-3 1-3 2s2 1 6 1c14 1 27 1 34 1s8-1 8-2c0-2 0-2-2-2s-5 0-8-1c-3 0-9-3-16-19-11-28-40-101-45-111-2-4-3-6-4-6-2 0-3 2-5 8l-46 112c-4 10-7 16-16 17h-5c-2 0-2 1-2 2s1 2 3 2c9 0 19-1 21-1 6 0 14 1 20 1 2 0 3-1 3-2s-1-2-3-2h-3c-5 0-7-2-7-5s1-7 3-12l10-24c0-2 0-2 1-2h41zm-37-9c-1 0-1-1-1-1l17-45c0-1 1-2 1-2 1 0 1 1 1 2l16 45c1 0 0 1-1 1h-33zm162 3c0 16 0 31-1 38 0 6-1 10-5 10-2 1-4 1-6 1-3 0-3 1-3 2s1 2 3 2c8 0 19-1 23-1 5 0 17 1 29 1 2 0 3-1 3-2s-1-2-3-2-6 0-9-1c-5 0-6-4-7-9-1-8-1-23-1-39v-75l23 1c16 0 21 5 21 10l1 2c0 2 0 3 2 3 1 0 1-1 1-3 0-4 1-17 1-21 0-2 0-3-2-3h-5c-2 1-6 1-12 1h-72c-6 0-13 0-18-1-5 0-7-2-8-2s-2 1-2 4c-1 1-4 18-4 21 0 2 0 3 1 3s2-1 2-3c1-1 2-3 3-6 3-4 8-5 18-5l27-1v75zm139 0c0 17 0 32-1 39-1 6-2 9-5 9-2 1-4 1-7 1-2 0-3 1-3 2s1 2 4 2c7 0 18-1 23-1s16 1 28 1c2 0 4-1 4-2s-1-2-3-2c-3 0-7 0-10-1-5 0-6-4-7-8-1-8-1-23-1-40v-32c0-28 0-33 1-39 0-6 2-9 6-10 3-1 4-1 6-1s3 0 3-2c0-1-2-1-4-1h-46c-3 0-4 0-4 1 0 2 1 2 3 2s4 0 6 1c4 1 6 4 6 10 1 6 1 11 1 39v32zm167 55c46 0 76-33 76-75 0-41-29-68-74-68-55 0-75 40-75 72s21 71 73 71zm8-9c-35 0-56-30-56-68 0-45 24-57 45-57 30 0 53 25 53 66 0 53-29 59-42 59zm147-94h1c3 3 23 25 43 45 19 19 42 43 54 54 2 2 4 4 6 4s2-2 2-6l2-115c1-10 2-14 7-15 2-1 4-1 6-1s3 0 3-2c0-1-2-1-4-1h-40c-3 0-5 0-5 1 0 2 1 2 3 2 3 0 7 0 10 1 4 2 6 5 6 17l2 81h-1c-3-3-28-29-40-41-27-27-55-56-57-58-3-3-5-6-7-6-1 0-2 3-2 6l-2 108c0 16 0 21-5 22-3 1-6 1-8 1s-3 1-3 2 1 2 4 2c9 0 18-1 19-1 4 0 11 1 23 1 3 0 4-1 4-2s-1-2-3-2c-3 0-6 0-9-1-4-1-6-6-7-20l-2-76zm214 103c10 0 20-2 29-7 13-9 17-22 17-32 0-17-7-30-29-47l-5-3c-16-12-20-18-20-27 0-11 8-18 22-18 12 0 17 5 20 9 4 4 4 10 4 12s1 3 2 3c2 0 2-2 2-6 0-14 1-19 1-21s-1-2-3-3c-4-1-12-3-24-3-25 0-42 15-42 35 0 14 7 27 27 43l9 6c15 12 17 21 17 30s-8 20-24 20c-11 0-22-5-26-18-1-3-2-7-2-9s0-3-2-3c-1 0-2 2-2 4 0 3-1 14-1 24 0 4 1 5 4 6 8 4 16 5 26 5z"/><path class="fil2" d="M1093 523v12h3772v-12z"/><g><path class="fil2" d="M913 817h15V0h-15z"/><path d="M0 786V31h722v755H0zm24-24h674V55H24v707z" fill="#3a0164"/><path class="fil0" d="M416 590c30 0 65-3 83-11 8-3 10-5 12-13 5-16 11-56 11-62 0-3-1-7-5-7-3 0-4 2-6 10-1 8-7 21-15 30-19 21-44 26-85 26-62 0-146-54-146-165 0-44 9-88 43-119 20-19 47-29 87-29 42 0 78 13 94 29 11 12 17 28 18 42 0 7 1 10 4 10 5 0 5-3 6-10 1-9 0-35 1-50 1-16 3-22 3-26 0-2-2-5-7-5-14-2-29-6-47-8-21-3-38-5-67-5-68 0-112 19-146 49-44 41-54 96-54 127 0 45 12 97 58 137 42 36 95 50 158 50z"/></g></g></g></svg>