<svg width="38" height="46" viewBox="0 0 38 46" fill="none" xmlns="http://www.w3.org/2000/svg">
<path d="M12.0909 0V8.72414V10.6945C11.5143 10.3084 11.0461 9.71817 10.4311 9.46148C7.71146 8.32623 4.87092 7.9493 2.68537 6.61126L0 4.96619V7.93104C0 14.0115 3.68887 17.1976 7.19247 18.3467C9.03051 18.9495 10.795 19.1005 12.0909 19.1119V22.2069V28.5517V30.1379V37.2759V46H25.9091V44.4138V37.2759V33.3847C27.2107 33.379 28.933 33.2374 30.8075 32.6226C34.3111 31.4735 38 28.2874 38 22.2069V19.2421L35.3146 20.8871C33.1291 22.2252 30.2885 22.6021 27.5689 23.7373C27.003 23.9735 26.4451 24.2701 25.9091 24.6141V22.2069V17.4483V15.8621V8.72414V0H12.0909ZM15.5455 3.17241H22.4545V8.72414V14.2759H15.5455V8.72414V3.17241ZM3.7919 10.5489C5.76547 11.2693 7.65592 11.7875 9.00071 12.3489C10.0159 12.7726 10.71 13.2326 11.2138 13.9351C11.495 14.3272 11.5456 15.2251 11.7029 15.8961C10.7401 15.86 9.54808 15.7522 8.35298 15.3602C6.33704 14.699 4.49176 13.4921 3.7919 10.5489ZM15.5455 17.4483H22.4545V22.2069V28.5517H15.5455V22.2069V18.8238V17.4483ZM34.2081 24.8248C33.5082 27.768 31.663 28.9749 29.647 29.636C28.4519 30.028 27.26 30.1358 26.2971 30.172C26.4544 29.5009 26.505 28.603 26.7862 28.2109C27.29 27.5085 27.9841 27.0485 28.9993 26.6247C30.3441 26.0634 32.2345 25.5452 34.2081 24.8248ZM15.5455 31.7241H22.4545V33.0997V37.2759V42.8276H15.5455V37.2759V31.7241Z" fill="white"/>
</svg>
