<svg width="38" height="46" viewBox="0 0 38 46" fill="none" xmlns="http://www.w3.org/2000/svg">
<path d="M27.3786 33.2358C24.4713 33.2358 21.8655 34.8138 20.1214 37.294V32.0702H21.3266C24.3917 32.0702 26.8854 29.0734 26.8854 25.3899V22.594C26.8854 21.858 26.3942 21.2609 25.7844 21.2476C26.4756 20.1342 26.8854 18.7543 26.8854 17.2615V14.4656C26.8854 13.7297 26.3943 13.1325 25.7846 13.1192C26.4757 12.0058 26.8854 10.626 26.8854 9.13334V3.14453C26.8854 2.40027 26.3833 1.79688 25.764 1.79688C25.1446 1.79688 24.6425 2.40027 24.6425 3.14453V4.98938H23.4374C22.1957 4.98938 21.0478 5.48146 20.1214 6.31152V1.34766C20.1214 0.603391 19.6193 0 19 0C18.3807 0 17.8786 0.603391 17.8786 1.34766V6.31152C16.9522 5.48146 15.8044 4.98938 14.5626 4.98938H13.3575V3.14453C13.3575 2.40027 12.8554 1.79688 12.236 1.79688C11.6167 1.79688 11.1146 2.40027 11.1146 3.14453V9.13298C11.1146 10.6257 11.5243 12.0056 12.2156 13.1191C11.6058 13.1324 11.1146 13.7295 11.1146 14.4655V17.2618C11.1146 18.7544 11.5243 20.1343 12.2154 21.2476C11.6057 21.261 11.1146 21.8581 11.1146 22.594V25.3899C11.1146 29.0734 13.6083 32.0702 16.6734 32.0702H17.8786V37.294C16.1345 34.8138 13.5287 33.2358 10.6214 33.2358C10.0021 33.2358 9.5 33.8392 9.5 34.5835C9.5 40.8786 13.7617 46 19 46C24.2383 46 28.5 40.8785 28.5 34.5835C28.5 33.8392 27.9979 33.2358 27.3786 33.2358ZM24.6425 17.2614C24.6425 19.4587 23.155 21.2463 21.3266 21.2463H20.1214V19.7977C20.1214 17.6006 21.6089 15.8131 23.4371 15.8131H24.6425V17.2614ZM13.3575 15.8131H15.4316C16.7809 15.8131 17.8786 17.1323 17.8786 18.7537V19.7977V21.2463H16.6731C14.8448 21.2463 13.3575 19.4588 13.3575 17.2618V15.8131ZM24.6425 25.3899C24.6425 27.5872 23.155 29.3749 21.3266 29.3749H20.1214V27.9266C20.1214 25.7295 21.6089 23.9417 23.4371 23.9417H24.6425V25.3899ZM23.4374 7.68469H24.6425V9.13333C24.6425 11.3305 23.1551 13.1179 21.3269 13.1179H20.1214V11.6695C20.1214 9.47222 21.6089 7.68469 23.4374 7.68469ZM17.8786 11.6695V13.1179H16.6734C14.845 13.1179 13.3575 11.3303 13.3575 9.13297V7.68469H14.5626C16.3911 7.68469 17.8786 9.47222 17.8786 11.6695ZM13.3575 25.3899V23.9417H14.5626C16.3911 23.9417 17.8786 25.7293 17.8786 27.9266V29.3749H16.6734C14.845 29.3749 13.3575 27.5872 13.3575 25.3899ZM11.8462 36.0554C14.8682 36.6753 17.2593 39.5488 17.7753 43.1805C14.7532 42.5605 12.3621 39.687 11.8462 36.0554ZM20.2248 43.1804C20.7407 39.5488 23.1318 36.6753 26.1538 36.0553C25.6379 39.687 23.2468 42.5605 20.2248 43.1804Z" fill="white"/>
</svg>
