<svg width="38" height="46" viewBox="0 0 38 46" fill="none" xmlns="http://www.w3.org/2000/svg">
<path d="M36.8867 23.326C37.5015 23.326 38 22.7227 38 21.9784C38 21.2341 37.5015 20.6307 36.8867 20.6307C35.4781 20.6307 34.1829 21.2259 33.1609 22.2176L33.1537 17.6778C33.2798 15.3173 34.9054 13.4432 36.8866 13.4432C37.5015 13.4432 37.9999 12.8398 37.9999 12.0956C37.9999 11.3513 37.5015 10.7479 36.8866 10.7479C35.471 10.7479 34.1696 11.3488 33.1454 12.3494L33.1449 7.03459C33.1449 6.53991 33.4423 6.13759 33.8078 6.13759C34.4227 6.13759 34.9211 5.5342 34.9211 4.78994C34.9211 4.04567 34.4227 3.44228 33.8078 3.44228C33.5797 3.44228 33.358 3.47633 33.1449 3.53877V1.34766C33.1449 0.603396 32.6465 5.48362e-06 32.0316 5.48362e-06C31.4168 5.48362e-06 30.9183 0.603396 30.9183 1.34766V3.53877C30.7053 3.47633 30.4836 3.44228 30.2553 3.44228C29.6405 3.44228 29.1421 4.04567 29.1421 4.78994C29.1421 5.5342 29.6405 6.13759 30.2553 6.13759C30.6209 6.13759 30.9183 6.54 30.9183 7.03459L30.923 15.0496C29.8979 14.046 28.5946 13.4432 27.1765 13.4432C26.5617 13.4432 26.0632 14.0466 26.0632 14.7909C26.0632 15.5352 26.5617 16.1385 27.1765 16.1385C29.2398 16.1385 30.9183 18.1705 30.9183 20.6681L30.9385 24.9472C29.9111 23.9346 28.6016 23.326 27.1765 23.326C26.5617 23.326 26.0632 23.9294 26.0632 24.6737C26.0632 25.418 26.5617 26.0214 27.1765 26.0214C29.2398 26.0214 30.9183 28.0533 30.9183 30.5509L30.9555 35.812C30.0037 35.2257 28.9409 34.9092 27.8389 34.9092C26.465 34.9092 25.1385 35.3986 24.0027 36.3245C23.5531 36.6911 23.1033 37.0402 22.6585 37.3676C21.9171 36.6861 21.0637 36.2272 20.1536 36.0165L20.1373 25.5528C20.3458 23.2925 21.9332 21.5292 23.8551 21.5292C24.4699 21.5292 24.9684 20.9258 24.9684 20.1815C24.9684 19.4372 24.4699 18.8339 23.8551 18.8339C22.4465 18.8339 21.1512 19.429 20.1292 20.4207L20.1221 15.8809C20.2482 13.5204 21.8738 11.6464 23.855 11.6464C24.4698 11.6464 24.9683 11.043 24.9683 10.2987C24.9683 9.55443 24.4698 8.95104 23.855 8.95104C22.4394 8.95104 21.138 9.55192 20.1137 10.5525L20.1133 7.03459C20.1133 6.53991 20.4107 6.13759 20.7763 6.13759C21.3911 6.13759 21.8896 5.53419 21.8896 4.78993C21.8896 4.04566 21.3911 3.44227 20.7763 3.44227C20.5481 3.44227 20.3264 3.47632 20.1133 3.53877V1.34766C20.1133 0.603391 19.6148 0 19 0C18.3852 0 17.8867 0.603391 17.8867 1.34766V3.53877C17.6737 3.47632 17.4519 3.44227 17.2237 3.44227C16.6089 3.44227 16.1104 4.04566 16.1104 4.78993C16.1104 5.53419 16.6089 6.13759 17.2237 6.13759C17.5893 6.13759 17.8867 6.54 17.8867 7.03459C17.8867 7.03459 17.8929 15.8957 17.8915 15.9482C16.8664 14.9445 15.563 14.3417 14.145 14.3417C13.5302 14.3417 13.0317 14.9451 13.0317 15.6893C13.0317 16.4336 13.5302 17.037 14.145 17.037C16.2082 17.037 17.8867 19.0689 17.8867 21.5665C17.8867 21.5665 17.895 25.6978 17.8915 25.831C16.8664 24.8273 15.563 24.2245 14.145 24.2245C13.5302 24.2245 13.0317 24.8279 13.0317 25.5721C13.0317 26.3164 13.5302 26.9198 14.145 26.9198C16.2082 26.9198 17.8867 28.9517 17.8867 31.4494L17.9269 35.9986C16.9867 36.2005 16.1047 36.666 15.3415 37.3676C14.8972 37.0403 14.4484 36.6919 14.0006 36.3264C12.8643 35.3993 11.537 34.9093 10.1621 34.9093C9.08831 34.9093 8.05177 35.21 7.11877 35.7678L7.10555 27.3493C7.31426 25.0892 8.90157 23.3261 10.8234 23.3261C11.4382 23.3261 11.9367 22.7227 11.9367 21.9785C11.9367 21.2342 11.4382 20.6308 10.8234 20.6308C9.4148 20.6308 8.11946 21.2259 7.09754 22.2176L7.09041 17.6776C7.21666 15.3172 8.8422 13.4433 10.8234 13.4433C11.4382 13.4433 11.9367 12.8399 11.9367 12.0957C11.9367 11.3514 11.4382 10.748 10.8234 10.748C9.40775 10.748 8.10639 11.3489 7.08203 12.3495L7.08158 7.03468C7.08158 6.54 7.37898 6.13768 7.74458 6.13768C8.3594 6.13768 8.85786 5.53429 8.85786 4.79002C8.85786 4.04575 8.3594 3.44236 7.74458 3.44236C7.51643 3.44236 7.29466 3.47641 7.08158 3.53886V1.34766C7.08158 0.603391 6.58313 6.85452e-07 5.9683 6.85452e-07C5.35347 6.85452e-07 4.85502 0.603391 4.85502 1.34766V3.53877C4.64201 3.47632 4.42025 3.44227 4.1921 3.44227C3.57727 3.44227 3.07882 4.04566 3.07882 4.78993C3.07882 5.5342 3.57727 6.13759 4.1921 6.13759C4.55762 6.13759 4.85502 6.54 4.85502 7.03459L4.85969 15.0496C3.83459 14.046 2.53123 13.4432 1.11328 13.4432C0.498453 13.4432 2.83124e-07 14.0466 2.83124e-07 14.7909C2.83124e-07 15.5352 0.498453 16.1385 1.11328 16.1385C3.17649 16.1385 4.85502 18.1705 4.85502 20.6681L4.87521 24.9472C3.8478 23.9346 2.53836 23.326 1.11328 23.326C0.498453 23.326 2.83124e-07 23.9294 2.83124e-07 24.6737C2.83124e-07 25.418 0.498453 26.0214 1.11328 26.0214C3.17649 26.0214 4.85502 28.0533 4.85502 30.5509L4.89443 37.2279C4.72751 37.2048 4.55896 37.1923 4.38878 37.1923C1.9688 37.1923 0 39.5756 0 42.5052V44.6523C0 45.3966 0.498453 46 1.11328 46H36.8867C37.5015 46 38 45.3966 38 44.6523V42.5052C38 39.5757 36.0312 37.1923 33.6111 37.1923C33.4678 37.1923 33.3255 37.2018 33.1843 37.2183L33.1689 27.3497C33.3774 25.0894 34.9648 23.326 36.8867 23.326ZM33.6111 39.8877C34.8034 39.8877 35.7734 41.0618 35.7734 42.5052V43.3047H2.22657V42.5052C2.22657 41.0619 3.19653 39.8877 4.38885 39.8877C4.6838 39.8877 4.9691 39.9579 5.23703 40.0964C5.69548 40.3336 6.22814 40.1728 6.54097 39.703C7.4293 38.3694 8.74921 37.6046 10.1622 37.6046C11.0919 37.6046 11.9889 37.9355 12.756 38.5613C13.4781 39.1506 14.2041 39.6993 14.914 40.1924C15.353 40.4972 15.9065 40.4054 16.2615 39.9688C16.9901 39.0724 17.9626 38.5788 18.9999 38.5788C20.0372 38.5788 21.0098 39.0724 21.7383 39.9688C22.0934 40.4054 22.6469 40.4972 23.0859 40.1925C23.7949 39.7002 24.5219 39.1509 25.2464 38.56C26.0132 37.9349 26.9097 37.6045 27.8389 37.6045C29.2517 37.6045 30.5714 38.3692 31.4596 39.7027C31.7725 40.1723 32.305 40.3331 32.7632 40.0962C33.0313 39.9578 33.3165 39.8877 33.6111 39.8877Z" fill="white"/>
</svg>
