<svg width="38" height="46" viewBox="0 0 38 46" fill="none" xmlns="http://www.w3.org/2000/svg">
<path d="M33.6111 37.1901C33.2928 37.1901 32.9795 37.2308 32.6735 37.3116C31.6556 36.0898 30.3589 35.2938 28.9524 35.017V33.0352H29.2988C32.4742 33.0352 35.0575 29.9072 35.0575 26.0624V24.2948C35.0575 23.5503 34.559 22.9468 33.9442 22.9468H32.4844C31.154 22.9468 29.9285 23.4974 28.9524 24.4184V21.3524H29.2988C32.4742 21.3524 35.0575 18.2244 35.0575 14.3797V12.6121C35.0575 11.8676 34.559 11.2641 33.9442 11.2641H32.4844C31.154 11.2641 29.9285 11.8147 28.9524 12.7356V11.1578L29.4831 10.5151C31.5512 8.01097 31.5512 3.93649 29.4831 1.43235L28.6262 0.394831C28.1915 -0.13161 27.4867 -0.13161 27.0518 0.394831L26.195 1.43235C24.127 3.93649 24.127 8.01097 26.195 10.5151L26.7258 11.1578V17.2291C25.7497 16.3081 24.5242 15.7575 23.1937 15.7575H21.734C21.1192 15.7575 20.6207 16.3611 20.6207 17.1055V18.8731C20.6207 22.7179 23.204 25.8459 26.3793 25.8459H26.7258V35.0166C25.7542 35.2082 24.828 35.6493 24.0029 36.3222C23.5532 36.6889 23.1034 37.038 22.6587 37.3656C21.6109 36.402 20.3398 35.8811 19.0002 35.8811C17.6605 35.8811 16.3895 36.4019 15.3417 37.3655C14.8973 37.0381 14.4485 36.6896 14.0007 36.324C13.1749 35.65 12.248 35.2083 11.2755 35.0165V33.0352H11.622C14.7973 33.0352 17.3806 29.9072 17.3806 26.0625V24.2949C17.3806 23.5504 16.8822 22.9469 16.2673 22.9469H14.8076C13.4772 22.9469 12.2517 23.4975 11.2755 24.4184V21.3525H11.622C14.7973 21.3525 17.3806 18.2245 17.3806 14.3798V12.6122C17.3806 11.8677 16.8822 11.2642 16.2673 11.2642H14.8076C13.4772 11.2642 12.2517 11.8148 11.2755 12.7357V11.1579L11.8063 10.5152C13.8744 8.01106 13.8744 3.93658 11.8063 1.43243L10.9493 0.394829C10.5145 -0.131522 9.80964 -0.131522 9.37487 0.394829L8.51809 1.43234C6.44998 3.93649 6.44998 8.01097 8.51809 10.5151L9.04883 11.1578V17.229C8.0727 16.308 6.8472 15.7574 5.51675 15.7574H4.05702C3.44219 15.7574 2.94374 16.361 2.94374 17.1054V18.873C2.94374 22.7178 5.52707 25.8458 8.70237 25.8458H9.04882V35.017C7.64216 35.2939 6.34526 36.09 5.32727 37.3118C5.02112 37.2309 4.70747 37.1901 4.38885 37.1901C1.9688 37.1901 0 39.574 0 42.5043V44.652C0 45.3965 0.498453 46 1.11328 46H36.8867C37.5015 46 38 45.3965 38 44.652V42.5043C38 39.574 36.0312 37.1901 33.6111 37.1901ZM32.4844 25.6428H32.8308V26.0624C32.8308 28.4206 31.2463 30.3392 29.2987 30.3392H28.9523V29.9197C28.9523 27.5614 30.5368 25.6428 32.4844 25.6428ZM32.4844 13.9601H32.8308V14.3797C32.8308 16.7379 31.2463 18.6564 29.2987 18.6564H28.9523V18.2369C28.9523 15.8787 30.5368 13.9601 32.4844 13.9601ZM27.7694 3.33861L27.839 3.25431L27.9087 3.33861C29.1087 4.79158 29.1087 7.1558 27.9087 8.60877L27.8391 8.69306L27.7695 8.60877C26.5694 7.1558 26.5694 4.79158 27.7694 3.33861ZM26.3793 23.1498C24.4317 23.1498 22.8472 21.2312 22.8472 18.873V18.4534H23.1937C25.1412 18.4534 26.7257 20.3721 26.7257 22.7303V23.1498H26.3793ZM14.8075 25.6428H15.1539V26.0624C15.1539 28.4206 13.5694 30.3392 11.6218 30.3392H11.2754V29.9197C11.2754 27.5614 12.8599 25.6428 14.8075 25.6428ZM14.8075 13.9601H15.1539V14.3797C15.1539 16.7379 13.5694 18.6564 11.6218 18.6564H11.2754V18.2369C11.2754 15.8787 12.8599 13.9601 14.8075 13.9601ZM10.0924 3.33861L10.1621 3.25431L10.2317 3.33861C11.4317 4.79158 11.4317 7.1558 10.2317 8.60877L10.162 8.69306L10.0924 8.60877C8.89245 7.1558 8.89245 4.79158 10.0924 3.33861ZM8.70237 23.1498C6.7548 23.1498 5.1703 21.2312 5.1703 18.873V18.4534H5.51676C7.46433 18.4534 9.04883 20.3721 9.04883 22.7303V23.1498H8.70237ZM35.7734 43.304H2.22656V42.5043C2.22656 41.0607 3.1966 39.8861 4.38885 39.8861C4.68372 39.8861 4.9691 39.9564 5.23703 40.0949C5.6954 40.3321 6.22814 40.1713 6.54098 39.7013C7.4293 38.3673 8.74913 37.6024 10.1622 37.6024C11.0919 37.6024 11.9889 37.9334 12.756 38.5594C13.4781 39.1488 14.2041 39.6977 14.914 40.1909C15.3529 40.4957 15.9066 40.4041 16.2616 39.9672C16.9902 39.0706 17.9627 38.5769 19 38.5769C20.0374 38.5769 21.0099 39.0706 21.7385 39.9672C22.0934 40.4041 22.647 40.4959 23.086 40.191C23.7951 39.6984 24.522 39.149 25.2465 38.5581C26.0134 37.9328 26.9099 37.6023 27.839 37.6023C29.2518 37.6023 30.5715 38.3672 31.4598 39.701C31.7725 40.1708 32.3051 40.3315 32.7634 40.0947C33.0313 39.9563 33.3165 39.8861 33.6111 39.8861C34.8033 39.8861 35.7734 41.0606 35.7734 42.5043L35.7734 43.304Z" fill="white"/>
</svg>
