<svg width="38" height="46" viewBox="0 0 38 46" fill="none" xmlns="http://www.w3.org/2000/svg">
<g clip-path="url(#clip0_463_93)">
<path d="M37.772 16.537L31.0909 6.80656V1.4375C31.0909 0.644 30.3171 0 29.3636 0H10.3636C9.41018 0 8.63636 0.644 8.63636 1.4375V6.7275L0.321272 16.4148C0.272909 16.4709 0.248727 16.537 0.210727 16.5974C0.179636 16.6463 0.146818 16.6908 0.122636 16.744C0.0483636 16.9064 0 17.0746 0 17.25V44.5625C0 45.3574 0.773818 46 1.72727 46H36.2727C37.2262 46 38 45.3574 38 44.5625V17.25C38 16.9999 37.9223 16.7541 37.772 16.537ZM27.6364 2.875V5.75H12.0909V2.875H27.6364ZM3.45455 43.125V18.6875H13.8182C14.7716 18.6875 15.5455 18.0435 15.5455 17.25C15.5455 16.4565 14.7716 15.8125 13.8182 15.8125H5.08336L11.2532 8.625H26.3875L20.9553 16.537C20.805 16.7541 20.7273 16.9999 20.7273 17.25V43.125H3.45455ZM34.5455 43.125H24.1818V17.6324L29.3636 10.0855L34.5455 17.6324V43.125Z" fill="white"/>
</g>
<defs>
<clipPath id="clip0_463_93">
<rect width="38" height="46" fill="white"/>
</clipPath>
</defs>
</svg>
