<svg xmlns="http://www.w3.org/2000/svg" width="122.115" height="150.057"><g fill="#dedede"><path d="M101.982 79.727c-.172-18.993 15.5-28.11 16.207-28.551-8.816-12.91-22.539-14.68-27.437-14.887-11.672-1.184-22.785 6.875-28.703 6.875-5.918 0-15.067-6.703-24.743-6.516-12.742.188-24.472 7.407-31.03 18.809-13.224 22.953-3.376 56.969 9.5 75.602 6.304 9.105 13.808 19.367 23.675 18.988 9.508-.379 13.098-6.149 24.574-6.149 11.473 0 14.707 6.149 24.754 5.97 10.215-.2 16.7-9.306 22.957-18.442 7.219-10.574 10.207-20.805 10.379-21.344-.227-.094-19.926-7.652-20.133-30.355M83.107 23.965C88.342 17.62 91.877 8.797 90.904 0c-7.543.305-16.672 5.031-22.09 11.379-4.847 5.61-9.101 14.59-7.95 23.207 8.415.652 17.005-4.285 22.243-10.621"/></g></svg>