<svg xmlns="http://www.w3.org/2000/svg" width="375.621" height="150"><defs><clipPath id="a"><path d="M0 0h376v150H0zm0 0"/></clipPath><clipPath id="b"><path d="M0-.375v31.203h20.996v88.723H.563v30.824h73.242v-30.824H52.809V30.828h20.433V-.375zM208.078 0v30.828h20.996v88.723h-20.433v30.824h52.207V64.66l31.062 85.715.63.016 30.5-85.715v85.715h52.581v-30.828h-20.996v-88.72h20.434V.017h-58.594l-24.3 68.796L267.561.016zM83.383 0v30.828h20.992V79.7h80.754v-9.36s6.762-5.265 8.937-10.3l4.32-9.738s2.012-5.45 2.012-10.301l-.867-9.738s-1.36-7.93-3.722-10.262l-8.38-9.738S176.802-.04 162.68-.04zm52.582 30.828h30.797v28.57h-30.797zM83.383 150.375v-30.824h20.992V70.676h80.754v9.363s6.762 5.262 8.937 10.3l4.32 9.735s2.012 5.453 2.012 10.301l-.867 9.738s-1.36 7.934-3.722 10.262l-8.38 9.738s-10.628 10.301-24.75 10.301zm52.582-30.824h30.797V90.977h-30.797zm0 0"/></clipPath></defs><g clip-path="url(#a)"><g clip-path="url(#b)"><path d="M0 13.695h1030v53.2H0m0 53.2h975.004v53.2H0v53.2h975.004v53.2H0m0 53.2h1030v53.2H0" transform="scale(.3756 .37594)" fill="none" stroke="#dedede" stroke-width="27.4"/></g></g></svg>