<svg xmlns="http://www.w3.org/2000/svg" viewBox="0 0 21.58071 6.2440364"><path d="M21.265 6.12A.267.267 0 0121 5.852a.266.266 0 01.532 0 .266.266 0 01-.266.266zm0-.58a.314.314 0 00-.315.313c0 .175.141.312.315.312a.312.312 0 00.316-.312.314.314 0 00-.316-.314zm-.06.29v-.1h.059c.033 0 .07.01.07.048 0 .042-.041.052-.077.052zm.193-.051c0-.076-.065-.104-.131-.104h-.125v.354h.064V5.88h.045l.083.148h.078l-.096-.155c.05-.01.082-.044.082-.095zM19.412 1.29a.645.645 0 100-1.29.645.645 0 000 1.29zm-1.73.557v.946h1.196V6.12h1.067V2.793h1.197v-.946zM8.366 1.29a.645.645 0 100-1.29.645.645 0 000 1.29zm-1.73 1.503h1.196v3.326h1.068V2.793h1.197v-.946H6.637v.946zm9.228 3.326h1.068V1.85h-1.067v4.27zm-2.16-1.921c0 .57-.32 1.156-.996 1.156-.685 0-.8-.631-.8-1.138V1.85H10.84v2.668c0 .872.462 1.726 1.575 1.726.63 0 1.138-.383 1.325-.81h.018v.685h1.014V1.85h-1.068zM4.518 1.725c-.631 0-1.138.383-1.325.81h-.018V1.85H2.161v4.27h1.067V3.77c0-.57.32-1.157.997-1.157.685 0 .8.632.8 1.14v2.365h1.068V3.45c0-.871-.462-1.725-1.575-1.725zM0 6.119h1.067V1.85H0z" fill="#dfdfdf" fill-rule="evenodd"/></svg>