<svg xmlns="http://www.w3.org/2000/svg" width="100.59" height="50" viewBox="0 0 603.902 300.146"><path fill="#dfdfdf" d="M178.902 159l59-159h-39l-27 69 6-69h-41l-59 159h38l29-77-5 75zm46 0l59-159h-37l-60 159zm107-10l-2-80 56-65zm272-56l-190 49 5-15h-40l13-38h34l10-29-34 2 12-32h33l11-29h-107l-39 46 19-47h-38l-59 159h39l25-68v68h50l-179 47c-18.7 5.3-35.3 7.7-50 7-14.7-.7-26-4.7-34-12-18-13.3-24.3-33.7-19-61 3.3-18 10.7-35.3 22-52-26.7 28-46.3 51.7-59 71-14 20.7-23 41-27 61s-1.7 36.3 7 49c23.3 38.7 74.3 41.3 153 8z"/></svg>