<svg xmlns="http://www.w3.org/2000/svg" width="324" height="140.614"><path d="M88.065 12.252c6.598 0 24.863.88 13.031 35.36C88.823 83.789 61.467 76.37 61.467 76.37l20.124-64.12h6.474zM137.017 49.9c15.385-37.94-13.516-48.321-32.26-48.321H42.674c5.146 3.58 4.289 8.325 3.327 11.146L9.782 128.505c-1.429 4.654-6.917 9.355-9.782 10.2h50.308c-2.845-.555-6.753-4.501-5.279-9.825l13.136-41.887c-.002 0 60.493 8.176 78.852-37.093" fill="#dfdfdf"/><path d="M157.315 120.903c-1.985 1.226-9.842 5.218-17.194 5.89-6.899.604-18.231-1.996-18.231-15.644 0-11.794 12.794-20.207 19.567-23.254 3.068 11.315 9.183 24.192 15.858 33.008m19.816-73.735c-1.676 11.074-15.899 22.219-19.402 23.643-.639-6.19-.412-16.012 4.733-23.968 3.558-5.284 8.062-7.582 11.7-6.301 2.969 1.017 3.327 3.684 2.969 6.626m0 91.538h33.955c-10.839-3.56-26.872-13.795-33.294-21.054 5.217-5.565 11.541-12.663 12.729-27.07h-17.579s3.492 1.859 3.492 6.012c0 3.854-1.558 9.089-4.525 12.815-5.108-7.62-10.678-16.324-12.63-29.113 6.884-3.42 16.633-7.115 24.243-13.797 7.368-6.465 9.018-12.387 9.117-16.375v-.517c0-4.124-1.528-7.896-4.598-10.881-5.032-5.048-13.086-7.033-21.487-5.57-6.853 1.319-12.531 4.894-15.319 7.538-10.403 9.557-11.695 25.453-11.695 32.596 0 1.595.121 3.035.154 3.795-.49.154-1.671.654-1.671.654-7.353 2.704-27.279 8.032-34.421 24.418-.896 2.019-2.199 6.582-2.199 11.854 0 4.433.891 9.44 3.783 14.092 5.107 7.825 13.548 12.69 27.222 12.488 14.819-.188 29.467-10.35 31.991-12.196 2.611 2.442 9.352 8.65 12.732 10.31" fill="#dfdfdf"/><path d="M280.029 12.357c20.163-4.812 36.772 10.98 38.324 11.954L324 6.116c-7.912-2.402-65.606-21.978-106.4 24.617-25.063 28.669-31.354 87.322.555 103.03 34.069 16.87 71.739-2.562 74.385-3.882l15.654-49.438c1.654-6.087 5.398-9.991 12.135-12.442h-54.012c7.841 3.332 7.317 9.238 6.625 11.662l-15.505 49.547c-2.089.353-45.55 11.195-21.226-64.854 5.163-16.26 19.943-46.165 43.818-52" fill="#dfdfdf"/></svg>