<svg xmlns="http://www.w3.org/2000/svg" width="402.865" height="200.24" viewBox="0 0 302.148 150.18"><path d="M0 149.953h152.555L302.148 0H0v149.953" fill="#dfdfdf"/><path d="M179.16 28.184l-29.562-.008v70.933l-26.02-70.933H98.152l-22.468 59.32C73.32 72.555 57.945 67.391 45.53 63.523c-7.687-2.597-16.558-6.414-15.965-10.59 0-3.464 4.137-6.64 13.008-6.167 5.91.304 11.235.797 21.875 5.882l10.645-18.066c-10.051-4.887-23.059-7.977-33.703-7.988-13.008 0-23.653 4.105-30.157 10.906-4.14 4.73-7.093 10.738-7.093 17.395 0 9.164 3.546 15.66 10.05 20.84 6.504 4.355 13.598 7.195 20.696 9.277 8.277 2.57 14.781 4.793 14.781 9.558 0 1.762-.59 3.364-1.773 4.649-2.364 2.129-5.32 2.937-10.051 3.039-8.278.152-14.192-1.168-24.242-7.059L4.14 113.492c10.05 5.668 21.875 9 33.703 9l1.773-.012c10.051-.187 18.922-3.183 25.426-8.625.59-.32.59-.617 1.18-.914l-2.953 7.965h27.199l4.136-13.804c4.73 1.59 10.055 2.511 15.965 2.511 5.914 0 10.645-.894 15.375-2.398l4.73 13.691h43.755V92.27h10.054c23.059 0 36.657-11.864 36.657-31.766 0-22.152-13.008-32.32-41.98-32.32zM110.57 88.91c-3.547 0-6.504-.617-9.46-1.7l9.46-29.835 9.461 29.934c-2.957 1.02-5.914 1.601-9.46 1.601zm70.364-17.16h-6.504V47.691h6.504c8.87 0 15.964 2.91 15.964 11.907 0 9.25-7.093 12.152-15.964 12.152" fill="#fff" fill-rule="evenodd"/><path d="M189.805 140.371c0-4.582 3.547-8.074 7.687-8.074 4.137 0 7.684 3.492 7.684 8.074 0 4.758-3.547 8.184-7.684 8.184-4.14 0-7.687-3.426-7.687-8.184zm7.687 9.809c5.32 0 10.051-4.157 10.051-9.809 0-5.566-4.73-9.66-10.05-9.66-5.325 0-10.056 4.094-10.056 9.66 0 5.652 4.731 9.809 10.055 9.809zm-1.773-8.996h1.773l2.957 4.84h1.774l-2.957-4.934c1.183-.203 2.957-1.074 2.957-3.067 0-2.234-1.774-3.218-4.141-3.218h-4.14v11.218h1.777zm0-1.446v-3.504h2.363c.59 0 2.367.27 2.367 1.688 0 1.703-1.777 1.816-2.957 1.816h-1.773" fill="#dfdfdf"/></svg>