<svg xmlns="http://www.w3.org/2000/svg" version="1.0" width="50" height="50" viewBox="0 0 748.559 748.564"><path d="M0 374.285C0 167.584 167.561 0 374.285 0c206.707 0 374.273 167.584 374.273 374.285 0 206.713-167.566 374.279-374.273 374.279C167.561 748.564 0 580.992 0 374.285" fill="#dfdfdf"/><path d="M11.033 374.285c0-200.607 162.627-363.234 363.246-363.234 200.613 0 363.246 162.627 363.246 363.234 0 200.607-162.632 363.246-363.246 363.246-200.619-.006-363.246-162.638-363.246-363.246" fill="#fff"/><path d="M374.281 22.875c-194.086 0-351.406 157.332-351.406 351.406 0 194.08 157.314 351.406 351.406 351.406 194.074 0 351.407-157.326 351.406-351.406 0-194.074-157.326-351.406-351.406-351.406zm3.313 25.031c10.706.105 21.042 1.472 30.094 5.938 5.93 5.314 7.616 12.305 7.312 20.062-1.676 5.484-4.719 10.786-9.594 14.594 5.936 4.406 11.874 8.971 12.781 16.875 1.683 7.758-.625 14.748-5.03 20.531-9.27 10.488-24.012 7.774-37.407 8.219l-35.375.937-.219-3.218L336.5 51.53l-.156-1.75c13.087-.085 27.485-2.009 41.25-1.875zm67.969 8.219l28 9.031c-6.246 18.023-14.445 35.805-18.875 54.813-.446 4.729 2.347 9.603 7.75 10.968 3.738 2.057 9.069 2.443 11.875 0 12.023-16.875 17.714-37.874 25.25-56.812 9.58 3.352 17.062 8.158 26.343 11.656-9.902 20.988-15.993 45.682-29.687 62.938-9.885 8.672-25.547 6.55-37.406 3.656-13.541-4.857-28.306-13.533-32.407-28.75-3.188-10.418 11.259-46.143 19.156-67.5zm-161.844 5.531c8.625-.22 16.69 2.253 23.437 9.219 5.473 6.082 6.228 14.586 6.375 22.344-1.354 5.01-2.603 10.049-5.937 14.156 7.213 8.883 20.636 18.963 29.906 27.781l-1.156.375-27.375 6.063c-9.738-7.834-15.246-13.38-23.719-19.188-3.65.445-6.166 2.602-9.594 4.125l9.406 21.594-25.687 14c-10.541-25.711-23.449-55.758-33-79.875 16.63-6.69 38.368-20.107 57.344-20.594zm270.906 51.906c15.911.296 30.146 7.05 39.688 18.75 5.18 6.381 8.663 14.287 10.937 22.344-6.387 3.434-11.256 7.333-17.344 10.063-1.506-9.428-6.662-19.04-15.937-23.75-4.412-2.59-10.99-3.02-16-1.344-7.764 2.883-14.424 9.554-17.313 17.312-2.59 7.453.292 14.755 4.563 20.532 5.924 6.697 13.834 10.2 22.781 10.5-4.02 6.615-6.223 10.789-10.031 15.968-14.918-2.132-28.892-10.342-37.407-24.187-7.3-11.701-7.736-29.646-1.343-41.969 6.686-13.547 19.908-22.207 34.187-24.187a59.867 59.867 0 013.219-.032zm-376.781.282l2.594 1.593c25.184 15.381 51.057 33.486 76.562 48l-2.625 1.75-20.094 13.22c-7.494-3.95-11.87-6.618-17.344-9.126L194.72 188c2.285 5.484 5.193 12.168 7.625 18.25L182.5 228.437l-1.594-3.5-35.156-83.5 32.094-27.593zm195.625 42.531c119.513 0 216.406 96.912 216.406 216.437 0 119.509-96.893 216.375-216.406 216.375S157.063 492.32 157.063 372.812c0-119.524 96.893-216.437 216.406-216.437zm250.031 8.156l16.438 21.625c-6.99 6.996-16.25 12.934-23.72 19.625 11.872 2.578 25.231 2.113 37.407 4.094 5.479 7.922 8.36 15.519 13.688 25.094l-44.688-3.157c-9.891 15.51-18.88 31.319-27.406 47.438-5.314-7.758-9.414-17.803-14.594-26.469 5.789-11.719 13.299-24.093 19.094-35.812-9.961 6.17-18.707 14.15-28.844 20.531l-15.781-21.219c21.293-18.252 44.229-34.528 66.593-51.094l1.813-.656zm-503.969 5.25l18.313 10.75c-4.043 8.361-9.348 14.077-13.063 22.063l52 34.218c-2.742 7.752-8.66 15.371-13.687 22.813l-53.375-33.313c-4.787 6.311-8.238 12.781-13.031 20.844-6.997-4.635-11.943-7.7-17.563-11.719 13.242-22.072 25.81-42.758 40.406-65.656zM74.125 253.22c4.554 2.6 9.883 6.562 14.594 10.5-9.44 7.318-16.136 17.96-14.156 30.125 1.072 1.822 2.125 4.543 4.562 5 7.6 0 10.196-8.192 13.688-13.219 4.112-9.129 12.019-19.008 22.812-20.063 9.275-.604 17.205 1.825 23.281 9.125 9.275 11.116 7.62 29.032 3.219 41.97-4.125 9.58-10.502 19.316-19.625 25.562l-16.438-10.032c8.978-6.223 18.413-16.441 19.626-27.843 0-4.107-.899-9.574-5.938-10.032-10.488 3.047-11.57 15.659-18.719 22.813-5.473 5.631-12.322 9.87-21 8.656-8.063-.463-14.914-5.483-19.625-11.875-8.977-13.682-4.534-33.767.938-44.25 3.357-5.94 7.308-11.861 12.781-16.437zm585 7.093c10.566-.128 20.746 6.366 25.531 15.282 7.898 12.768 10.963 29.66 6.844 45.187l-16.875-.906c2.291-10.195 3.96-22.981-3.188-31.5-2.127-2.584-5.914-4.127-8.656-2.75-9.275 10.342.752 25.262-5.031 36.969-2.748 5.332-6.846 11.71-12.781 14.125-9.592 3.656-21.45 1.838-28.75-5.469-14.285-14.906-20.984-38.035-11.844-57.5h17.781c-3.04 7.623-5.164 18.43-2.281 27.406 1.512 3.803 3.357 8.667 7.781 10.031 14.596.528 4.69-20.38 8.188-30.125 1.37-7.3 5.333-14.897 12.781-18.25a24.422 24.422 0 0110.5-2.5zM97.375 407.906l8.219 24.219c9.21-.047 18.079.286 27.594.062L112 449.907c2.039 7.452 3.791 16.003 6.375 26l-21-14.595c-8.83 4.031-14.133 8.983-23.25 13.688l7.313-25.094c-6.933-5.672-14.7-11.066-21.25-16.844 9.55-.245 17.922.126 27.156-.062 4.266-7.975 6.152-17.113 10.031-25.094zm552.906.125l8.188 24.188c9.199-.035 17.425.236 27.562.125l-21.156 17.687c2.057 7.436 3.803 16.024 6.375 26.031l-20.969-14.625c-8.842 4.02-14.152 8.977-23.281 13.688l7.281-25.094c-6.92-5.66-14.672-11.065-21.187-16.844 9.527-.245 17.897.157 27.125-.03 3.727-8.31 6.4-16.313 10.062-25.126zm-479.187 120c4.298-.08 8.664.368 13 1.281 11.682 3.2 22.66 12.008 29.656 22.813 1.834 4.406 4.463 7.89 5.594 14.5-4.863 3.059-11.003 5.57-16.563 8.312-1.354-10.042-10.178-19.784-20.062-22.375-8.21-2.039-17.174 1.862-23.25 9.157-5.027 5.918-6.555 14.422-5.031 21.875 3.96 10.324 14.901 18.125 26 18.125l3.187.125c-3.029 7.313-4.994 10.952-8.188 16.437-18.416-.627-36.963-11.417-43.812-29.219-5.93-14.438-3.339-33.132 5.938-45.156 8.442-10.713 20.637-15.633 33.53-15.875zm385.344 4c4.417 2.901 7.607 6.706 11.843 10.531l1.157 1.125-27.375 25.47 9.125 11.03c7.751-6.082 16.115-12.566 24.406-20.312 4.26 3.574 7.7 7.766 11.718 12.5-8.197 7.816-16.737 13.135-23.875 20.594 3.042 3.814 5.392 8.117 10.032 12.687L603 581.312l12.594 13.032c-16.73 15.885-34.97 32.246-52.313 44.937l-51.562-66.625c16.436-13.699 30.264-26.176 44.719-40.625zm-319.22 45.094c16.782.088 32.031 8.27 40.876 21.531 9.275 11.865 9.408 30.278 3.625 43.813-6.451 13.77-18.83 22.521-32.375 25.562-16.406 2.578-31.942-2.722-43.813-14.125-10.488-11.566-16.251-28.167-10.937-44.281 4.717-17.496 21.748-30.274 39.25-32.406 1.13-.067 2.256-.1 3.375-.094zm264.657 1c3.435 4.006 5.432 8.566 8.438 13.406l.78 1.438-33.406 16.75 5.657 13.125c10.189-3.891 18.994-7.504 29.125-12.625 3.088 4.64 5.207 9.596 7.75 15.25-9.188 4.898-18.705 8.693-28.719 13.093 1.863 4.5 2.794 7.782 6.063 15L532.75 638.5l8.469 16.031c-20.52 10.547-42.629 21.119-62.844 28.438l-30.813-78.407c19.618-8.53 36.395-16.64 54.313-26.437zm-197.313 27.75c20.233 4.371 40.954 8.177 60.688 11.125-1.101 6.197-1.481 13.652-2.5 21.375-12.727-2.133-24.874-4.39-37.063-6.219-.68 6.094-2.396 9.757-2.906 14.375 10.94 3.258 21.061 4.379 31.625 6.313l-3 19.562c-10.506-1.359-21.83-3.19-32.594-5.5-2.385 8.484-4.536 19.167-7.625 28.406-8.976-1.43-18.502-3.458-27.156-6.875l20.063-80.906.469-1.656zm131.875 1.906c.846 6.238 2.73 13.463 4.094 21.156-12.797 1.846-25 3.363-37.187 5.344 1.23 6 .675 10.024 1.594 14.594 11.413-.223 21.379-2.248 32.03-3.625l3.126 19.5c-10.418 1.91-21.785 3.64-32.719 4.719.305 8.818 1.485 19.605 1.344 29.343-8.971 1.371-18.656 2.36-27.938 1.75l-5.469-83.187-.093-1.75c20.596-1.98 41.532-4.645 61.219-7.844z" fill="#dfdfdf"/><path d="M383.959 67.969c2.121 2.268 1.682 6.996.445 9.586-3.943 4.57-11.244 4.4-17.332 3.639.445-5.162-1.459-10.189-1.078-15.504 5.174.755 14.162-1.835 17.965 2.279M283.57 88.951c1.506 3.803 1.6 9.996-1.641 12.252l-15.053 6.387c-3.756-6.908-5.355-11.643-7.939-17.256 6.991-2.59 18.997-13.084 24.633-1.383M388.975 102.645c1.207 5.332-1.213 10.805-6.393 11.877-4.863.75-8.508.299-13.682.445-.762-5.484-1.207-12.779-.762-17.344 6.991.914 17.503-2.889 20.837 5.022M199.148 157.863c-4.102 3.809-8.672 7.453-13.682 10.945-3.656-8.672-7.16-16.43-10.957-26.01 8.737 4.647 16.413 10.038 24.639 15.065M371.875 171.625c-32.642.27-65.009 7.858-91.063 22.75-64.33 32.707-103.098 99.164-108.125 167.906l1.813 3.656c24.182 12.933 39.853-15.511 63.438-12.312 5.315 2.438-1.065 6.533-.907 10.031-1.84 4.558-8.242 2.426-12.344 3.656-16.13 6.99-32.701 20.532-51.562 13.22 0 0 .135 1.41.281 3.437h-.031c.392 5.185 1.125 14.375 1.125 14.375 21.147 6.704 34.822-15.378 54.75-12.782-.469 4.407-.762 9.125-3.188 12.313-18.251.925-29.677 18.107-48.843 16.906l3.656 14.594c16.57 1.681 27.237-15.364 43.813-13.688l-.438 10.938c-14.607 1.366-24.033 15.055-38.781 15.969 1.968 33.762 25.365-5.176 40.125 1.375.603 3.644 2.752 7.148 1.375 10.968-11.865-.163-19.32 10.196-29.656 13.688 1.822 4.254 3.044 10.332 7.75 11.844 8.83-3.65 15.98-11.383 26.468-10.938-1.212-3.96-2.275-9.289-1.812-12.781 13.225 3.493 20.844-6.863 30.125-12.781 2.12-18.726 15.187-33.005 23.25-49.282.86-3.591 1.153-7.161 1.094-10.718-.41-19.787-12.323-38.92-2.907-59.563 2.895-8.062 7.918-18.683 16.438-20.969-15.668 18.716-12.772 47.297-4.563 68.438 1.66 4.301 2.252 8.297 2.094 12.094-.703 16.687-16.228 29.406-22.188 44.5-7.434 15.065-.623 32.261 7.75 44.718-12.011 9.282-23.113 21.133-38.78 21.438-4.402-2.15-4.56-8.2-6.845-12.313-9.27-1.833-16.703 4.567-24.156 9.125l8.656 10.938c6.387-3.047 13.706-9.559 21-5 10.805 12.78-10.52 6.355-13.25 14.125 3.03 4.107 6.697 7.148 10.5 10.5 4.407-1.371 7.912-4.875 13.25-4.125 2.128 2.584 4.555 5.172 5.47 8.219l-8.22 5.031c5.936 6.082 13.395 11.871 20.532 14.625 4.266-14.32 15.668-25.404 21-39.25 1.066-5.326 1.36-11.726 2.719-16.438 15.357 23.878-16.875 38.03-16.875 60.688 3.357 3.035 7.457 4.699 11.406 6.375-.61-17.789 14.302-29.191 20.531-44.25 11.414-23.883-14.908-38.79-23.281-57.938-7.91-17.355 3.199-33.648 14.156-46.562 7.629-8.238 9.612-16.302 8.938-24.406-1.518-18.358-16.653-36.791-10.313-57.282 3.657-12.773 9.119-27.998 22.344-33.312-9.586 11.092-14.604 24.027-15.5 38.781-2.666 20.045 13.398 33.983 14.312 51.813.17 3.557-.254 7.261-1.531 11.187-7.453 16.125-24.329 28.266-24.188 47.438-1.98 25.23 31.031 34.837 27.375 60.718-.298 22.513-26.15 34.954-20.53 59.282l14.156 4.593c-8.063-27.374 20.379-42.613 20.53-67.093 1.366-20.695-20.837-31.48-26.468-49.282-5.924-17.648 6.996-31.781 16.875-45.187 4.858-7.564 5.998-14.695 5.219-21.656-1.981-17.25-15.906-33.4-15.25-52.25-.31-17.338 7.284-34.38 22.344-42.438-4.546 6.527-9.723 12.762-12.313 20.063-9.434 25.564 6.398 47.473 14.156 69.375.597 1.81 1.016 3.55 1.25 5.25 2.918 20.297-17.874 33.254-21.812 51.781-5.326 22.512 18.873 32.847 24.187 51.562 11.414 30.558-25.54 48.364-16.875 78.938-.152 8.977 10.344 5.49 15.969 7.312-13.687-25.241 8.383-46.083 15.063-67.968 7.459-23.437-14.876-36.676-24.157-54.782-9.75-20.377 12.444-33.007 17.313-50.187 4.095-11.719 14.619-.904 21.469-2.281 9.28 1.694 17.33-7.458 25.093-.907 3.791 15.517 21.73 25.094 21.875 41.97-.609 26.143-38.46 39.837-26.437 68.437 9.885 19.934 26.75 42.739 15.5 65.718l14.125-3.187c9.433-23.584-8.04-41.699-16.406-60.719-7.6-21.738 11.421-38.008 22.812-54.719 10.817-20.237-6.521-36.843-16.406-52.5-3.41-6.444-4.107-12.562-3.281-18.468 1.74-12.521 10.31-24.16 14.218-35.844 8.367-19.916 3.646-44.691-11.875-59.75l.469-.469c7.758 4.57 14.752 12.627 18.25 20.531 13.312 26.772-5.727 50.483-10.438 75.532l-.5 2.968c-.45 17.66 14.004 26.024 21 40.157 11.702 22.81-8.97 38.939-20.53 56.125-18.722 32.092 26.003 50.945 16.874 83.031l13.688-4.563c3.492-17.202-9.446-31.164-17.813-45.156-11.549-23.43 9.135-41.523 21-59.312 10.494-22.207-7.75-40.924-18.25-57.969-3.357-4.904-4.418-10.078-4.125-15.281h.031c.552-9.961 6.042-20.059 10.032-28.532 7.91-21.303 2.428-47.136-11.406-62.968 9.28 3.809 16.103 14.164 19.156 23.281 10.952 22.664-2.438 45.326-6.844 66.625l-.031 1.594c-.17 20.426 19.183 31.714 24.656 49.937 5.332 18.868-9.71 31.946-18.688 45.656-26.923 27.997 15.057 48.983 14.594 76.657 3.961-1.67 9.122-2.457 11.406-6.407-1.98-15.35-15.052-26.164-20.53-40.156-.3-6.686-1.827-14.912 2.75-20.062l.906.906c-1.67 22.348 17.806 35.895 23.718 55.219 6.861-4.13 13.994-8.043 19.625-14.125-2.12-2.138-5.31-3.802-8.187-5.032-1.547-3.345 2.873-6.546 5-9.593l12.75 4.562c3.803-3.504 7.941-6.367 10.062-10.937-4.57-3.2-9.59-5.505-15.062-6.407-.175-3.491 1.802-6.224 4.094-8.656 7.776-.298 13.86 3.34 20.093 6.375 3.334-3.029 7.018-6.975 8.219-11.375l-16.438-8.219c-11.255-7.148-8.214 8.352-13.687 11.844-15.357-.609-26.303-11.414-37.875-21 1.371-6.984 6.847-12.295 8.688-19.156 6.69-22.347-11.11-39.213-21-57.031-2.48-4.36-3.404-8.682-3.375-13 .082-12.111 7.498-24.182 7.937-36.75 3.797-16.272-3.817-31.915-10.063-45.157 4.272 2.59 8.854 6.063 11.438 10.47 8.513 16.733 10.945 40.027 3.188 57.968-1.91 4.805-2.553 9.28-2.313 13.469 1.248 21.012 24.861 35.726 25.125 58.156 9.112 6.855 17.357 18.281 29.656 14.625.92 4.406-1.527 9.094-1.375 13.219 10.951-.61 18.264 7.623 27.844 10.5 2.28-3.955 6.236-7.914 5.938-12.344-10.793-3.188-18.551-13.814-30.563-14.125l2.25-10.5c12.638-.305 21.91 10.361 33.781 13.25 4.108-3.059 5.467-8.672 6.844-13.688-14.596-2.278-25.092-14.62-39.688-16.906.294-3.627-.763-7.873.907-10.937 13.84 0 22.967 11.121 35.593 14.156 12.165 5.778 8.196-8.672 10.938-14.156-19.324.774-31.01-17.167-49.719-17.782L518.125 386c20.221-3.328 33.908 18.737 54.75 12.812 2.01-5.273 1.527-9.698 1.375-14.843l-.031-3.438c-23.573 9.293-39.076-14.283-61.594-14.125-2.906-3.346-3.66-7.445-5.031-11.406 25.406-8.197 42.144 28.417 67.094 9.562-1.963-30.883-8.534-59.898-22.813-85.75-14.924-29.513-42.43-58.581-71.188-76.218-29.61-20.963-69.416-31.295-108.812-30.969zm1.594 12.719c5.02 6.843 6.69 15.808 10.937 23.25l24.656 1.375-.468 2.281-18.25 17.344c3.182 7.764 6.394 15.54 9.594 23.281 13.84-8.045 27.083-18.11 43.812-19.188-1.523 8.837-8.214 18.131-7.313 26.938 10.349-2.889 19.776-9.286 31.032-8.688-7.008 12.939-17.203 25.887-17.813 42-15.363-5.765-31.165-12.769-48.344-15.5-36.655-6.245-71.969 1.793-102.25 16.407-2.577-15.363-10.027-28.727-19.156-41.5 5.473-1.828 12.17 1.177 17.813 2.718 4.717 1.355 8.666 4.574 13.687 5.5.896-9.128-4.421-18.132-8.219-26.5 2.585-1.98 6.705-.463 9.594.47 12.006 4.552 22.798 11.692 33.75 18.25 5.625-6.558 7.746-15.985 10.031-24.657l-18.687-16.875v-1.813l24.625-1.375c4.102-7.751 6.862-15.96 10.969-23.718zm-159.281 82.562c1.413.09 2.986 1.276 4.125 1.844 11.725 9.129 17.347 21.748 18.718 35.594 14.748-5.637 34.805-15.379 50.625-5.032-3.357 4.711-9.86 7.312-14.594 11.407-7.746 7.605-17.187 16.888-22.812 26.468-19.014-3.809-34.22 7.302-50.188 13.688-6.081 1.207-14.14 1.82-19.156-2.281 15.06-24.803 36.315-47.618 31-80.313.629-1.085 1.433-1.428 2.281-1.375zm320.375.469c1.969.299 3.334 2.447 2.718 4.562-5.918 31.026 15.36 52.932 29.657 76.657-16.418 10.957-31.965-5.93-47.47-10.032-6.843-1.06-14.88-1.972-21.437-.906-9.41-14.59-22.043-28.29-37.406-36.5.902-5.01 7.9-5.328 12.781-5.937 13.535-1.354 25.391 4.248 36.5 10.031 2.127-5.01 3.02-10.654 4.531-15.969 3.669-8.977 10.85-18.115 20.125-21.906zm-162.75 16.406c.83-.017 1.665-.008 2.5 0 4.452.043 8.95.407 13.28.938 8.832 2.279 18.565 6.098 22.813 15.531.47 2.584 3.051 4.861 1.375 7.75-8.977-2.748-19.165-1.217-27.844 2.281-7.763 5.777-6.543 17.644-4.562 26l2.313 1.844c3.797-.92 3.947-5.797 7.28-6.875 5.638 1.377 13.4 3.363 18.72 0 4.71.158 4.554 6.705 5 10.062-3.34 17.644-10.772 36.796-28.72 45.157-7.458 3.656-17.07 1.203-24.218-1.375-17.637-10.494-27.511-31.3-25.531-50.157 1.37-2.888 3.493-5.2 6.844-3.218 7.13 4.863 14.887-3.784 21.437 2.281 7.904-3.498 3.188-13.224 3.188-20.531-6.387-8.221-17.327-7.021-26.907-6.407-4.266-2.595.327-6.667 1.375-9.562 7.276-10.263 19.19-13.465 31.656-13.719zm-28.938 30.969c5.924-.217 11.757 2.017 14.594 6.469v1.843c-5.168-.462-13.527-5.632-18.25.907-3.035 1.359-3.492-2.157-3.188-4.125-.609-2.28.77-4.091 2.75-4.532a21.49 21.49 0 014.094-.562zm58.375.5c4.242-.087 8.675.237 10.531 3.687-.14 1.84.32 3.966-1.812 5.032-5.783-2.28-13.842-5.483-19.625-.907-3.352-7.153 5.937-5.628 9.125-7.75.59-.02 1.175-.05 1.781-.062zm-26.938 29.812c-3.25-.001-6.624.95-9.062 2.625.299 1.22-.752 3.042.906 3.657 4.87-1.055 13.681 2.59 16.406-3.188-1.898-2.126-4.999-3.092-8.25-3.094zM357.033 360l.437 2.75c5.94 3.955 7.773 10.667 16 10.062 7.295.435 12.773-6.401 16.406-11.875-9.873-1.365-21.887.745-32.844-.937zM258.932 609.627c5.15 12.012-.773 23.871-9.141 32.385-5.314 4.26-12.281 6.938-19.271 4.354-4.4-2.133-9.844-6.023-11.063-10.746-3.352-12.164 2.209-23.566 10.717-31.934 5.174-4.266 12.627-6.691 19.154-3.65 3.961 1.206 8.373 5.63 9.604 9.591M621.193 688.816c11.889 0 22.084 9.246 22.084 21.791 0 12.662-10.184 21.896-22.084 21.896-12.012 0-22.201-9.234-22.201-21.896 0-12.544 10.19-21.791 22.201-21.791zm0 3.534c-10.131 0-17.959 7.834-17.959 18.258 0 10.652 7.834 18.369 17.959 18.369 10.014 0 17.842-7.705 17.842-18.369-.006-10.424-7.828-18.258-17.842-18.258zm-4.658 30.92h-3.879v-25.207h9.65c6.006 0 8.953 2.238 8.953 7.178 0 4.541-2.83 6.48-6.598 6.949l7.184 11.074h-4.236l-6.715-10.951h-4.365v10.957h.006zm0-14.133h4.6c4.711 0 6.24-1.359 6.24-4.131 0-2.408-1.178-3.768-5.596-3.768h-5.244v7.899z" fill="#dfdfdf"/></svg>