<svg version="1.1" id="svg15" xmlns="http://www.w3.org/2000/svg" x="0" y="0" width="72.45" height="50" viewBox="0 0 2500 1725.1" xml:space="preserve"><style>.st1{fill-rule:evenodd;clip-rule:evenodd;fill:#dfdfdf}</style><g id="surface1"><path id="rect2" fill="#fff" d="M0-387.4h2500v2500H0z"/><path id="path4" class="st1" d="M765.8 828.2l-36.4-80.5-30.7.2-43.7 80.4 110.8-.1zm-63-98.2l21.2.2-8.9-23.7-12.3 23.5zm134.9 16.2l-16.1 83.9 1055.6.3-29.9-84.1h-31.1l-19.6 22.9-21.9-22.9-937-.1zm155.2-100.1L939.6 543l-38.5-.1-61.8 102.9 153.6.3zm851.4 87.7L1832 701l-12.7 32.8h25zm-349.5-202.7v-98.6h-25.2v-31.3l-134.1-.1v31.6h-22.3l-7.5 23.1-20-32.8-36.4 81h-19.8l5.7-21.5-34.8-81.8-19.3.2-38.3 82 4.6 21.1h-15l9.7 27.1h352.7zm-304.3-160.6l-6.7 16.3h13.8l-7.1-16.3zm279.2 19.6v-49.2l17.9-38.5-17.9-18.7v-43.9h-132.8l-.1 43.8-17.1 18.9 15.9 38.2v49.4h134.1zM906 535h31.1l-14.8-30.1L906 535zM713.1 673.7v-27.1l-59.3 15.8 59.3 11.3zm209.5-203.6V443l-59.3 15.8 59.3 11.3zM1189 335.4v-27.1l-59.3 15.8 59.3 11.3zm389.1 121.2v-27.1l-59.3 15.8 59.3 11.3zm142.2 88.3v-27.1l-59.3 15.8 59.3 11.3zM735.1 1576.1v-20.9h-63v20.9h19.2v123.7h-19.2v20.9h63v-20.9h-19.2l.1-123.7h19.1zm438 1.4v26.4h19.9v-48.7h-122.8v48.7h20v-26.4h29.3v122.3h-19.3v20.9h63v-20.9H1144v-122.3h29.1zM984 1671.9h-26.9c-2.7 4.3-6 8.1-9.8 11.5-15.8 13.8-33.3 17.7-50.8 15-13.5-2.3-25.8-9-34.9-19.1-12.6-14.1-17.2-31.8-15.6-48.6.5-5.2 1.7-10.2 3.3-15.1 1.6-4.5 3.4-8.3 5.7-11.8 4.5-7.1 10.4-13.2 17.4-17.9 19.1-12.4 43.4-13.4 63.4-2.6 8.4 4.5 15.5 11.1 20.5 19.2H980v-47.3h-20.6v18.2c-.8-.8-1.7-1.7-2.6-2.5-6.3-6.1-13.8-11-22-14.3-13.3-5.3-29.6-7.1-45.7-3.8-5.4 1.1-10.8 2.8-15.9 5-17.4 7.4-31.9 20.4-41.2 36.8-12.7 22.6-14.7 48.7-5.6 74.3 2.6 7.1 6.1 13.8 10.5 20 8.7 12.5 21.8 22.3 33.8 28 12 5.7 22.8 7.7 34.3 8 11.4.3 24.4-2.3 37.4-8.4 6.4-3.1 12.4-7 17.9-11.6 11-9.3 19.5-21.7 23.7-33zm863.1 26.9h-50.4V1647h54.9v-19.7h-54.9v-49.6h50.4v24.2h24.6v-46.7H1753v20.9h19.2v123.7H1753v20.9h118.7V1674h-24.6v24.8zM1434 1576.1l-.1-20.9h-60.8v20.9h17.1c0 30.2.1 60.4-.1 90.6-.2 4.1-.9 10.3-3.1 15.8-1.1 2.8-2.7 5.4-4.6 7.8-5.8 7.2-14.7 11.3-23.9 11.1-6.6.1-13-2-18.3-5.8-2.6-1.9-5-4.2-6.9-6.8-5.5-7.4-6.5-16.4-6.5-24.8v-87.8h17.1v-20.9h-60.8l-.1 20.9h19.2c0 31.6-.1 63.1.1 94.7.3 9.9 2.5 20.4 8.7 30 1.8 2.8 4 5.6 6.5 8.2 6.9 7.1 15.7 12 25.4 14.1 11.7 2.7 23.9 2.3 35.4-1.2 11.6-3.7 21.5-11.4 28-21.7 6.2-9.6 8.4-21.3 8.4-32.3v-91.9h19.3zm208.6 123.7l-29.5-38.7c10.9-1 22.5-3.3 34.2-18.8 10.3-14.4 12.1-29.9 8.7-45.6-1.1-4.8-2.8-9.4-5.1-13.7-2.4-4.6-5.5-8.7-9.2-12.4-3.7-3.7-7.9-6.8-12.6-9.2-9.3-4.9-20-6.2-30.1-6.2h-74.8v20.9h19.3v123.7h-19.3v20.9h60.1v-20.9h-16.4v-122.1c11.6.1 23.3-.2 34.9.2 7.1.7 15.1 1.6 23.5 12 6.4 8.5 8.7 19.4 6.1 29.8-1.9 8.4-7 15.7-14.2 20.5-7.7 5.2-17.1 6-25.9 6.1l-17.4-.1 52.4 74.6h35.4v-20.9l-20.1-.1zm352.7 21v-12.2c2 2.7 4.3 5.2 6.9 7.3 10.1 8.3 21.5 10 32.8 9.1 12.2-1 23.6-6.5 32.1-15.4 7.1-7.4 11.7-16.9 13.2-27.1 1.2-8.1.4-16.4-2.3-24.1-1-3-2.4-5.9-4.2-8.6-10.8-15.1-24.1-19.1-36.5-22.6-6.9-1.8-13.9-3.3-20.3-5.6-4.2-1.6-10.5-4.4-13.8-9.5-5-8.1-6-16.4-1.4-25.7 4-7.3 9.7-10.2 15-11.9 8.9-2 18-3 28 7 4.8 5.2 6.4 10.8 6.6 16.5h22.1v-42.9h-19.1v12.3c-2.8-4.7-8.7-9.6-13.4-11.5-5.2-2.2-10.8-3.4-16.5-3.6-10-.1-19.9 2.5-28.5 7.8-2.6 1.6-5 3.5-7.3 5.5-12.4 12.3-15.6 26-13.7 40 1.1 6.8 3.5 13.3 8.5 19.8 6.2 7.9 13.1 11.9 20.2 15.2 13.5 6.3 27.2 6.4 41.6 14.5 3.6 2.2 8.4 7.6 9.7 12.4 2.2 6.5 1.9 14.1-1.6 21.2-1.6 3-3.7 5.7-6.2 7.9-10.8 8.6-24 9.5-37.1 1.5-9.6-7.3-11.3-16-11.7-24.4h-22.5v46.9l19.4.2zM843.1 708.6c-.4 8.6-1.4 17.1-3.2 25.5l808.1-.4c-17.4-22.3-29.5-48.3-35.2-76h-61.4l-6.9 9.5-11.3-9.5-479.9-.1-18.6 45.9-38 .1 20.3-46H837c4.7 16.6 6.8 33.8 6.1 51zM1720.7 579l-26.7 66.2h48.6l-21.9-66.2zm25.1 78.9h-56.5l-25.7 75.9h107.9l-25.7-75.9zm179.5 453.9l-19-70.1-187.6.1c-10 19.9-24.1 37.5-41.2 51.7-8.5 7.1-17.8 13.3-27.6 18.4l275.4-.1z"/><path id="path6" class="st1" d="M1494.3 233.7c-.7.9-1.4 1.6-2.4 2.2 98.7 20.3 193.1 57.8 278.7 111 85.5 53.3 160.9 121.4 222.6 201.2a849.24 849.24 0 01138.5 266.1c29.8 96.3 42.4 197.1 37.1 297.7h13c7.1-102.3-4.3-206.1-33.9-304.3-29.6-98.2-77.4-191-140.2-272.2-62.8-81.2-140.5-150.8-228.1-204.2-87.6-53.4-185.1-90.5-285.9-109.4 2.9 3.5 3.6 7.4.6 11.9zm-89.8-179.2l-84 168.5c-1.2 2.3-1.7 5 1.5 8.1 1.2 1 2.7 1.4 4.2 1.4h154.4c1.8-.1 3.4 0 5.7-3.2 1.2-2 1.2-4.5-.1-6.5l-81.7-168.3zm0-54.5l-59.3 15.8 59.3 11.3V0zm-82.8 197c-81.3-4.9-163.4 1.6-243 19.3-79.6 17.6-156.7 46.5-227.6 86.1-70.9 39.6-135.7 89.9-181.3 130.7-45.6 40.8-72.1 72.1-96.6 104.8s-47.1 66.8-66.7 102.4c-19.6 35.6-36.4 72.9-48.3 98.8-11.9 25.9-19.1 40.5-25.1 55.4-6 14.9-10.9 30.1-17.1 45.7-6.4 16.1-13.6 32-21.6 47.4l29 13.7c6.3-32.5 14.8-64.6 25.4-96 5.3-15.7 11-31.3 22.3-57.1 11.3-25.9 28.2-62 47.7-96.8 19.5-34.7 41.6-68 65.7-99.9 24-31.9 49.9-62.6 94.4-102.6 44.5-40.1 107.6-89.5 176.6-128.8 69.1-39.3 144.1-68.3 221.7-86.6 77.7-18.3 157.5-26 237.3-22.9l7.2-13.6zm257 289l-16.3 45.1h34.7l-18.4-45.1zm-462.5 159.9l-28.8-91.2-30.6 91.2h59.4zm435.2-.6h63v-31.6l12.8-15.4-26.2-54.7h-42.8l-20.1 54.6 13.3 15.4c-.1 10.6 0 21.2 0 31.7zm-404.3.9h381c-17.2-31.9-28.4-66.6-33.2-102.6l-346.7-.1c9.3 33.7 9 69.3-1.1 102.7zm-524.7 456.2c2.1 1.8 3.8 4 5.1 6.5l475.7.3-.2-69.7-479.3.3-16.5 57.2c5.6-.2 11 1.7 15.2 5.4zm247.3-159.3H622.4l.2 68.8H1103c2.3-12 5.8-24 10.9-36-54.6-17.2-112.3-22.8-169.2-16.3-1.2 9.5-5.9 18.3-13.2 24.5-11.4 9.5-25.8 12-40.1 6.2-18.3-7.8-27.7-28.2-21.7-47.2zm721.3-.3l-187.4-.2c17.6 20.6 31.3 44.1 40.7 69.4l38.8-.2c9.2-11.2 19.6-21.4 30.9-30.4 22.7-18.1 48.9-31.2 77-38.6zm-606.3-42.9c59.1-9.6 119.6-5.2 176.6 13 19.9-12.9 40.6-23.7 61-28.1 7.1-1.7 14.3-3.1 21.5-4 7.3-.9 14.5-1.5 25.5-1.1 10.9.4 25.5 1.8 39.7 5 14.2 3.2 28 8.3 41 14.9s25.2 14.8 36.3 24.2H1951l-67.6-75.8L643 846.3l-56.5 77.9 312.4.2c27.6-11.5 56.4-19.7 85.8-24.5zm542 435c.5 6.4 3.1 12.4 7.4 17.1 6.5 7.2 16.2 10.7 25.8 9.1 5.6-1.1 10.9-3.3 15.5-6.6 6-4.5 8.2-9.9 8.7-15.3.9-14.7 1.3-29.4 1.4-44.1.1-14.7-.3-29.5-.6-41.8-.4-12.4-.8-22.4-1.4-32.4-.5-10-1.1-20-1.5-26.4-.2-4-.6-8.1-1.2-12.1-.8-5.5-2.1-11-3.8-16.3-1.9-6-5.2-11.4-9.7-15.8-6.2-6.7-16.6-7.1-23.3-.9-3.8 3.3-4.9 8.1-6.3 12.3-1.6 5.3-2.6 10.7-3.1 16.2-.4 3.9-.9 9.2-1.2 14.6-.4 5.3-.6 10.6-1 16.9-.6 12.6-1.7 27.8-3.6 41.8-4.3 27.6-5 55.8-2.1 83.7zm449.3-126.6c-5.9-21.2-11.6-42.4-17.2-63.6l17.2 63.6zm-69.6-265.6l-234.3.2c8.1 1.5 16 4.4 23.2 8.5 22.1 12.5 36.4 35.3 38.1 60.6l173 .2v-69.5z"/><path id="path8" class="st1" d="M1976 1208.3l5.5 23.2c2.5 10.8 5 21.5 3.7 23.3-1.3 1.8-6.5-5.4-11.6-12.6-5.2-6.2-10.3-12.6-15.3-19-8-10.1-20.3-25.9-27.7-35.3-7.4-9.3-9.8-12.2-12.3-14.9-5-5.5-10.5-10.7-16.2-15.4-6.4-4.8-14.9-5.7-22.1-2.3-2.3 1.1-4.5 2.6-6.3 4.5-1.8 1.9-3.3 4-4.3 6.4-9.7 20.5-16 42.4-18.9 64.9l-7.3 41.5c-4.8 21.2-4.4 43.3 3.2 65.4 1.1 2.2 2.5 4.5 4.8 6.6 8.6 7.8 21.7 8.4 30.9 1.3 7.1-5.5 9-12.6 10.1-19.6 3.9-29.7 7.3-59.6 10.9-89.3 13.6 29.1 30.7 56.5 50.8 81.6 7.8 8.7 15.4 16.7 23.2 19.8 11.6 4.6 23.4 2.6 36.4-6 2.7-1.9 5.2-4.1 7.5-6.6 4.5-4.9 8.4-10.3 11.7-16.1 10.6-18.2 12.2-38.1 11.5-57.7-.5-13.2-2.3-26.4-5.3-39.3-2.8-11.7-6.5-23.2-11.1-34.3-4.6-11.1-10.1-21.8-16.5-32-6.3-10.2-13.5-19.9-21.3-29-6.9-7.5-14.2-11-22-10.4-1.9.3-3.8.9-5.4 1.9-6.3 3.9-7.8 9.4-7.4 14.7.8 7 2.2 14 3.9 21l16.9 63.7zm82.7-25c6.5 7.5 15.4 12.4 25.1 14l-12.3 27c-2 .6-4 1.4-5.7 2.6-8.5 6.4-9.9 14.2-7.4 22.4.7 2 1.8 3.9 3 5.5-8.2 14.4-15.6 29-17.8 43.4-1.8 11.5 2.7 23.9 7.6 35.6 2.1 4.8 4.5 9.4 6.9 14 4 7.2 10.2 12.9 17.6 16.4 15.9 6.8 34.3 5.3 52.4-.8 13.2-5.1 26.1-10.7 38.9-16.9s25.2-12.9 32.2-16.8c7-4 8.6-5.2 9.9-6.7 6.3-7.6 6-16.7.8-26.2-1.4-2.3-3.1-4.4-5.2-6.2-10.3-8.9-22.6-6.5-34.2-5.1-12.5 2.6-24.6 5.9-36.9 8.9-12.8 4.6-25.5 9.2-28 4.2-2.5-5 5.2-19.7 12.9-34.4 4.2.7 8.4 1.1 12.7 1.1 14 0 28 .2 42-.1.3-.1.5-.1 2.4-.6 4.1-1.1 12.8-3.5 19.5-5.6 3.5-.8 8.2-4.6 9.8-8 3.4-7.1 2.5-15.6-2.3-21.8-4.8-6.3-11.3-7.8-17.5-8.8-15-1.2-30-1.6-45-2.4l1.4-15.3c12 .7 24.1.5 36.1-.8 17.3-1.8 33.5-5.3 49.8-8.5 3.5-.7 7.1-2.3 10.5-5.2 6.4-5.9 7.9-11.7 4.4-18.7-3.1-5.4-6.7-10.5-10.7-15.3-12.5-13.8-30.6-21.2-49.2-19.9-32.7 1.7-64.4 1.9-97.6 11.9-8 2.4-15.8 5.2-23.5 8.4-3.1 1.4-5.6 3.9-7 7-2.5 6.4-2 13.9 4.4 21.7zm-387.8 17.9c49.4-5.8 98.7-11.3 148.2-17.4 4.9-1 11-2.4 17.3-8.1 6.7-6.4 8.1-11.8 6.1-18-.8-2.6-3.6-6.2-7.9-9.9-2.1-1.8-4.5-3.3-7-4.6-2.8-1.3-5.7-2.4-8.7-3.1-14.7-3.4-29.7-5.1-44.8-4.9-11.8 0-23.6.4-35.4 1.3-26.4 2.3-52.4 7.7-77.5 16.2-8.7 3.1-17.1 7.3-24.8 12.4-3.7 2.4-7.3 5.1-10.6 8-10.4 9.1-14.3 17.6-16.9 27-1.9 9.5-.1 19.3 5 27.5 2.6 4 5.9 7.6 9.8 10.3 7.5 5.5 16.9 7.1 25.6 8.7 17.3 3.1 34.9-.6 52.2-.5 15.9.1 32.2-.1 48.3 3.2 14.5 3 28.4 8.3 41.1 15.8 4.5 3.2 5.2 7.3 3.5 11.7-1.3 3.2-8.8 9.2-14.5 12.7-2.3 1.4-4.6 2.7-7 3.9-37.3 16.5-77 17.3-116.3 4.2-1.2-.6-2.3-1.2-3.5-3.5-1-2.6-1.6-5.5 2.4-8.9 3.9-2 8.1-2.8 12.3-3.1 7.6-.4 17.8 1.5 27.4 6 15.5 6.8 32.6 9.1 49.3 6.7 8.3-1.2 16.5-3.6 24.1-7.1 2.1-1 3.8-2.6 4.8-4.7s1.4-4.4 1-6.7c-.6-3.2-3.6-8.1-9.4-13-6.1-4.8-14-7.8-21.7-9.8-3.7-.9-7.4-1.5-11.1-1.8-7.1-.7-14.1-1.3-21.2-1.5-15.1-.6-30.1.1-45.1 1.9-5.6.7-8.8 1.4-12 2.3-3.2.9-6.3 2.1-9.3 3.5-2.9 1.3-5.7 2.9-8.4 4.7-12 8.5-15.4 17.1-16.5 26.4-.2 2.8 0 5.5.6 8.3.6 2.7 1.6 5.3 3.9 9.2 2.2 3.9 5.7 8.9 9.8 13.5 4 4.6 8.7 8.7 13.7 12.3 5.7 4 11.8 7.3 18.3 9.7 8 3.1 18.5 6.4 29.2 8.7 10.7 2.3 21.7 3.6 32.6 3.9 11 .3 21.9-.4 29.8-1.4 7.9-.9 12.6-2 17.2-3.3 9.1-2.5 17.9-5.9 26.4-10.1 3.7-1.9 6.7-3.7 9.5-5.7 2.9-2 5.6-4.2 8.2-6.5 8.3-7.7 12.9-14.8 15.6-22.3 1-2.7 1.8-5.4 2.3-10.1 1.2-9.3.9-24.4-4-36.8-2.2-6.1-5.2-11.8-8.9-17-3.5-4.9-7.7-9.3-12.4-13-9.5-7.3-20.8-11.6-32.7-12.6-25.6-2.8-51.4-4.6-77.2-8.9-10.1-1.4-20.4-3.4-30.7-5.7zm-955.2 47.9c1.9-12.9 4.3-27.7 7.8-42.4 1.9-7.5 4-15 6.1-21.6 2-6.7 3.8-12.5 5.5-18.4 1.6-5.9 3.1-11.8 4-15.8 1.7-7.5 1.6-9.5 1.5-14-.1-3.7-.7-7.6-3.2-11.3-5.6-7.8-12.9-8.9-20.2-8-5.6.9-10 5.8-13.7 10.7-1.5 2-2.9 4-4.3 6-1.9 2.8-3.6 5.8-5 8.9-2.4 4.7-5.8 12-8.9 19.4-9.1 21.5-15.8 45.4-20.3 67.4-1.4 7.3-2.5 14.6-3.2 21.9-1.4 14.2-1.5 27.9-1.3 40.9.1 6.3.2 12.5.7 18 .6 5.5 1.6 10.1 3.3 14.6 1.7 4.4 4.1 8.6 7.1 12.3 5.7 6.9 12.3 11.9 17.6 14.4 9.2 4.3 17.3 4.9 26.9 3.9 12.8-1.4 25.1-8.2 37.8-16.7 3-2 5.8-4.1 10.1-7.5 10.8-8.6 21.4-17.6 31.7-27-.4 10-.3 19.9.2 29.9.5 9.9 1.5 19.9 2.4 26.7.9 6.8 1.7 10.5 2.8 14.2 2.3 7.8 5 14.3 9.6 21.4 2.4 3.7 5.6 7.8 9.4 11.2 3.8 3.4 8.2 6 13 7.8 4.8 1.8 9.8 2.6 13.3 2.9 3.4.2 5.2-.2 6.9-.8 2.9-1.2 5.6-2.8 8.1-7 2.2-3.7 3.7-8.7 3.9-13.2.1-2.4-.1-4.7-.2-9.2-.1-4.5 0-11 0-17.6 0-6.6-.1-13.1-.1-23.2s.1-23.7.9-37.2c1.6-26.8 5.8-53.8 12.3-80.5 14-3.6 28-7.3 35.6-9.4 7.6-2 8.8-2.5 10-3 1.2-.5 2.3-1.1 3.5-1.7 2.3-1.3 6.1-4.4 10.1-8.5 15.6-16.3 19.3-34 11.3-52.6-2.2-5.7-5.2-11.1-8.7-16.1-1.7-2.4-3.7-4.5-6-6.4-2.2-1.9-4.7-3.4-7.4-4.6-3-1.4-6.2-2.3-9.5-2.7-7.9-1.3-19.8-1.3-29.8 2.7-4.9 1.9-9.5 4.5-16.7 9.7-9.1 6.8-17.9 14-26.3 21.6-16.2-1.4-32.1-5.3-47.2-11.5-3.2-1.3-6.1-3.1-8.7-5.3-2.3-1.9-4.2-4.3-5.6-6.9-1.4-2.6-2.3-5.5-3.2-7.3-1.9-3.6-3.8-3.8-5.8-4.6-2.3-.8-4.8-.7-7.1.1-3.4 1.4-7 2.5-10.3 7.9-1.9 2.9-4 7.5-4.9 10.9-.9 3.4-.7 5.7-.4 9.3.4 3.6.9 8.7 2.4 13.4 3.1 9.6 8.4 16.8 19.1 24.3 5.3 3.8 12.3 8 19.2 12.1 7 4.1 14 8 21.2 11.8-5 17.6-9 35.5-11.9 53.7l-20.6-1.9-48 16.1c-5.4 2.4-11.6 2.7-17.8-.2-4.3-3-5-7-2-11.2l.7-2.1c.6-6.4 1.4-12.4 2.3-18.7zm-448.5-155h-.3l8.6 3.5c-2.5-1.7-5.3-2.8-8.3-3.5z"/><path id="path10" class="st1" d="M657.9 1299.4c-.1-6.8-.3-13.6-.5-20.4-.1-3.2-.3-6.5-.6-9.7-.3-2.3-.6-4.6-3.9-22.2-4.4-23.2-8.9-46.4-13.5-69.6-3.9-19.3-5.3-25.1-7-30.8-3.4-11.4-7.7-22.5-13-33.2-1-1.6-2.4-3-3.9-4.2-1.6-1.1-3.3-1.9-5.2-2.4-3.8-1-9.5-.3-15.2 1.8-3 1.2-5.8 2.9-8.3 5-5.7 4.8-8.9 12.7-14.2 19-2.9 3.7-5.9 7.3-9.4 11.3-3.8 4.4-7.4 8.8-11 13.4-3.6 4.7-7 9.7-12.1 17.6-5 7.9-11.7 18.8-18.1 29.9-6.3 11.1-12.3 22.4-17.8 33.9l-15.1-1.3c8.4-24.8 14-50.5 16.7-76.5 2.8-26.4 2.9-54.5-.9-83-2-14.5-5.1-28.9-9.3-42.9-4.2-14-9.6-27.7-13.8-37.4-3.1-7.3-6.7-14.5-10.8-21.3-7-11.8-15.2-23-24.4-33.2-5.3-6.1-11.8-13.1-18.3-20.1-6.5-7-13.1-14-18.2-18.9-5.1-4.9-8.7-7.8-12.5-10.3s-8-4.4-12.4-5.8c-3.9-1.2-7.8-2.1-11.8-2.7-5.2-.7-6.7.1-9.6 1.7-4.3 2.9-5.6 6.6-4.3 10.5.3.8.8 1.6 3.5 5 2.8 3.4 7.9 9.3 12.9 15.4 9.6 11.5 18 22.5 23.7 32.6 2.8 4.9 5.4 9.8 8.6 16.4 3.1 6.6 6.9 14.7 10.5 23 7 15.9 13.6 31.1 17.6 45.4 2 7 3.6 14.1 4.8 21.3 1.2 7.2 1.9 14.4 2.3 22.4 1.2 24.6 0 52-4.1 78-4.1 26.4-12.3 52.1-24.3 76-18.4 35.7-47.1 65-82.4 84.1-12.1 6.7-25.6 10.3-39.4 10.4-6.5.2-12.9-1-18.9-3.4-2.9-1.1-5.6-2.6-8.2-4.2-8.5-5.4-13.6-14.8-13.6-24.8 13.5-11.3 26.1-23.6 37.7-36.8 11.2-12.9 20.7-25.4 28-37.1 3.6-5.7 6.9-11.6 10-17.5 3.2-6 6.1-12 9.1-20.5s5.9-19.5 7.2-30.7c1.3-11.2 1-22.6-.9-33.8-1.8-10-4.6-19.8-8.3-29.3-2.9-7.3-5.3-11.1-8.2-14.5-2.9-3.4-6.2-6.3-9.9-8.8-12-7.7-26.3-9.4-40-8.1-4.7.5-9.4 1.3-17.4 4.2-8 2.9-19.3 7.8-29.6 14.5s-19.4 15-27.1 24.5c-7 9-12.9 18.7-17.7 29-4 8.7-6.1 15.2-7.9 21.7-5.4 18.9-9.8 39.3-10.2 58.5-.2 6.3.1 12.5.7 18.7.7 6.2 1.8 12.4 3.5 24s4.1 28.7 6.4 45.8c-4.2 4.7-9.8 7.9-15.9 9.3-3 .7-6.2.9-11.3.1-5.1-.8-12.2-2.6-18.7-5.6-6.5-3-12.5-7.2-17.6-12.3-5.1-5.1-9.3-11-12.5-17.6-6.8-13.5-6.7-28.8-7.1-43.4 0-7.6.3-15.2 1-22.7s1.7-15.1 3.6-25c1.9-9.9 4.6-22.2 7.7-34.4 3.1-12.2 6.5-24.3 11.2-38 4.7-13.7 10.7-28.9 17.9-43.6s15.6-28.8 25.1-42.1c8.5-11.7 17.6-22.9 27.2-33.7 7-7.9 10.5-11.2 13.9-14.6l9.4-9c3.3-3 6.4-6.4 9.2-9.9 5.8-7.2 8.1-11.9 4-18.5-2.6-3.7-6.2-4.4-9.7-4.7-1.2-.1-2.5.1-5.4.9-8.5 2.6-16.8 6.1-24.5 10.6-9.7 5.8-18.7 12.9-27.7 19.7-5 3.9-10 7.9-14.8 12.1-8.1 6.9-15.5 14.4-22.4 22.5-3.3 4-6.6 8-11.6 15.4-6.5 9.4-12.7 19.1-18.4 28.9-6.4 11-12.2 22.3-17.4 33.9-9.5 21.1-17.2 42.9-23.1 65.3-2.5 9.4-4.8 18.9-6.9 28.4-2.9 13.1-4.8 26.4-5.7 39.8-1.8 24.7-.3 48.9 8.6 74.3 2.2 5.8 4.8 11.5 8.1 16.7 3.3 5.2 7.2 10.1 11.7 14.4 9.1 8.7 19.3 14.6 28.9 19 4.9 2.3 9.9 4.3 15 6 14.4 5 27.7 7.6 41.1 5 11.7-2.3 21.5-7.4 31.4-9.5 3.2-.8 6.5-1.5 9.8-2 3.8 4.4 7.6 8.7 11.5 13 3.9 4.3 7.8 8.6 13.3 13.7 5.5 5.2 12.5 11.2 20.3 16.1 7.7 4.9 16.2 8.7 25 11.5 8.8 2.7 18 4.4 30.4 4.5 12.5.1 28.2-1.3 43.5-4.6s30.2-8.6 44.2-15.8c13.9-7.1 26.9-16.2 35.8-23.1 8.9-6.9 13.9-11.7 18.7-16.6 9.4-9.3 18.1-19.2 26.2-29.7 6.4-8.3 9.4-13.2 13-19.8 1.8-3.2 3.4-6.6 4.9-9.9l13.9 4.1-13.5 43.6c-3.6 11.4-2.5 23.8 3.2 34.3 1.8 3.2 3.9 6 6.5 8.2 5.3 4.6 12.4 6.7 19 6.2 3.4-.3 6.7-1.3 9.1-2.3 2.4-1.1 3.9-2.2 5.4-3.4 6.6-5.8 8.2-12.3 11-18.8 5.1-13.5 10.6-27 15.4-40.4.6-1.8 1.1-3.6 1.6-5.5l56.1-1.1c.6 6.7 1.3 13.4 1.7 17.3.4 3.9.5 4.9.7 5.8.5 2.4 1.2 4.7 2.3 6.9.9 2.1 2.4 5.3 4 8.5s3.3 6.3 4.9 8.7c3.3 5.2 5.9 7.2 9.2 9.3 7 3.8 14 5.8 21.5-4.2 2.2-3.2 3.2-5.5 4.1-8.6 1.2-3.8 2.2-8.8 2.6-13.3.2-2.3.3-4.6.4-9.6.2-5 .2-12.7 0-20.3zM239 1244c-1.8-7.1-3.2-14.2-4.1-21.5-1.8-14.8-1.7-29.8.4-44.6 1.1-8.2 2.7-17.2 4.6-26.2 1.9-8.9 4.1-17.8 5.7-23.7 2.4-9.5 6-18.7 10.8-27.2.7-1.2 1.5-2.3 2.5-3.3 2.5-2 4.3-3.8 8-3.4l-.6-.3c3.6-.6 7.2.8 9.3 3.7 2.6 3.5 4.3 7.1 5.3 10.9 1.9 10.5 2 19.9 1.5 30.1-.2 4-.6 8.1-1.4 14.1-1 7.4-2.3 14.7-3.7 22-1.5 7.7-3.3 15.3-5.6 22.8a97.7 97.7 0 01-7.5 18.3c-3 5.5-6.7 10.7-11 15.4-4.3 5-9 9.2-14.2 12.9zm356.9-5.3c-6.2 4.6-11.9 3.5-16.4-2.1l13-25.8 5.7 25.1c-.6 1-1.3 1.9-2.3 2.8z"/><path id="path12" class="st1" d="M409.7 986.8c-3.7-6.8-7.3-13.7-10.7-20.7-4.2 47.8-6 95.6-5.6 143.4h10.3c1.1-41 3.1-81.9 6-122.7zm1066.9 55l-24.3-.7 34.4 70.8c-8.6-22.3-12-46.3-10.1-70.1zm44.6 148.6c-7.9-23.5-18.8-47.8-37.8-71.2-22.6-31.1-49.8-58.5-80.7-81.4-21.1-17.3-43.4-33.2-66.7-47.4-11.7-7.1-23.6-13.8-35.7-20-29.6-15-60.4-27.6-92.1-37.5-63.5-19.8-129.9-28.9-196.3-26.8-23.6.2-47 3.9-69.4 11.1-7.4 2.4-14.5 5.3-21.5 8.6-13.9 6.6-27 14.7-39 24.3-7.4 5.4-8.6 12.2-5.8 19.5 1.5 4 6.2 7.5 10.9 9.6 2.4 1.2 5.8 2.1 9.8 2.5 10.1.7 21.6-2.7 32.8-9.4 2.5-1.8 6.6-5.5 5.4-8.9-.2-1.5-2.3-4.2-4.6-4.6-3.9-1-8-.7-11.7.8 7-4.7 14.7-8.1 22.8-10.1 4-1 8.2-1.7 18.3-2.2 10.1-.6 26-1.1 42-.6 31.9 1 63.7 5.6 94.6 13.7 27.1 7.7 53.9 16.4 80.3 26.1 23.8 8.8 47.4 18.2 70.8 28.3 18.2 7.9 28.7 13 38.9 18.5 20.4 11.1 39.8 23.9 58 38.3 11.3 9.3 22.6 18.6 33.3 28.6 10.7 10 20.8 20.6 30.9 31.2 16.1 17.7 28.9 38.1 37.8 60.2 7.9 18.5 8.8 39.2 2.7 58.3-3.1 9.5-7.8 18.3-13.9 26.2-6.1 7.8-13.7 14.5-25.7 21.8-12 7.2-28.6 15-45.8 21.2-34.4 12.4-70.7 18.1-107.2 17-23.9-.9-47.8-3.1-71.5-6.6l-1.2-129c47.3 3.9 93.9 13.6 138.8 28.9-2.4 5.1-6 9.5-10.5 12.9-3.2 2.5-6.4 5.2-9.5 8.3-1.8 2.5-2.2 5.7-1 8.6.4.9 1 1.8 2.3 3 1.2 1.1 3.1 2.6 5.1 3.8 5.4 3.1 12.9 4.6 20.6 4.2 11.8-1.1 22.4-7 33.8-18.1 3.2-3.3 6-7.1 8-11.2 7.3-15 7-32.9-6.2-50-2.4-3.1-5-6-7.9-8.6-2.9-2.6-6-4.9-9.4-6.9-17.8-10.1-36.9-17.9-56.7-23-10.3-2.6-20.7-4.6-31.2-6-24.3-3.6-48.8-5.5-73.3-5.8-.7-20.5-3.4-40.8-8.1-60.8-1.4-6.2-3.3-12.2-5.8-18-1.6-3.9-2.7-5.8-4.1-8.6-1.8-3.6-6.6-8.4-10.9-10.2-4.4-1.9-9.2-2.5-14.7 2.7-.9 1-1.6 2.1-2.2 3.3-4.6 11.2-8.1 22.8-10.5 34.7-1.2 5.9-2.1 11.9-3 19-1.8 14.4-4 31.9-6.7 48-22.2 2.5-44.2 6.9-65.7 13.1-15.3 4.5-30 10.6-44 18.2-10.5 5.7-20.2 12.7-28.7 21.1-7.8 8.1-11.4 19.3-9.8 30.3 1.3 8.7 5.3 16.4 11.3 24.7 1.6 2.2 3.4 4.3 6.8 7.8 3.4 3.6 8.4 8.6 13.4 13.6 9.7 9.5 18.8 18.2 27.3 25 4.1 3.3 8.3 6.5 12.6 9.5 4.3 3 8.7 5.9 16 10.4 19.3 11.7 38.7 23.2 58.2 34.5l1.6 7.2 2.1 9.3c.9 4 2.1 9 3.3 14.1 1.6 6.3 5.3 11.9 10.4 16 8.4 6.4 18.6 7.7 27.9 4.3 3.4-1.2 7-3.1 10.1-5.6 3.2-2.4 5.9-5.4 8.1-8.8 2.2-3.4 3.8-7.1 4.7-11 24.6 3.5 49.4 5.8 74.3 6.9 18.2.9 36.5.4 54.6-1.6 24.3-2.7 51-7.8 75.5-17.2 32.1-12.1 61.6-30.2 86.8-53.4 4.6-4.3 8.9-8.8 13-13.6 8.1-9.5 15.3-19.9 21.2-30.9 14.4-26 17.9-55.3 9.4-84.2zm-453.1 102.4c-7.6-3.8-14.8-8.2-21.2-12.4s-12-8.3-17.4-12.6c-10-8-19.2-16.9-27.6-26.6-2.6-3-3.1-4-3.4-5.1-1-3.3 0-6.8 2.6-9 .8-.7 1.8-1.3 6-3 18.7-7.2 38.2-12.3 58.1-15.2 4-.6 6.3-.8 10.9-1.3 6.2-.5 12.4-1 18.7-1.4 7-.4 14-.6 21.1-.7v103.3c-16.7-3-32.7-8.4-47.8-16zm651.6-298.4c-.4-4.1-1.6-8-3.5-11.6-1.7-3.1-3.9-6-6.4-8.4-7.8-7.5-18.9-10.6-29.5-8.2-3.1-7.9-9.9-13.8-18.1-15.8-9-2.3-18.3-3.5-27.6-3.6-6 0-11.9.4-17.8 1.3-8.5 1.2-20.9 3.4-32.9 6.9-12 3.5-23.7 8.2-34.8 14-11.1 5.8-21.7 12.6-31.5 20.4-4 3.3-7.8 6.9-11.3 10.7-15.1 16.7-24 35.1-24.3 52.7-.1 4.7.3 9.4.9 13.2 1.2 7.3 2.9 12.5 5.2 18.5 2.5 6.1 6.3 13.1 10.4 20.8l6 11c1.5 2.8 2.2 4.2 3.2 5.4 1 1.2 2.2 2.3 3.6 3.1 3 1.9 8.4 2.3 13.8 1.5 3.1-.5 6.1-1.4 8.9-2.8 2.8-1.4 5.4-3.2 7.5-5.7 2.1-2.5 3.7-5.7 5.8-6.3 2.1-.6 4.5 1.4 7 2.7 2.5 1.4 5.1 2.2 7.7 2.7 2.6.5 5.3.8 9.5.8 4.3 0 10.1-.3 15.2-.6 5-.3 9.3-.7 12.2-1 2.9-.3 4.5-.6 8.1-1.3 7.3-1.3 20.1-4.1 30.3-8.4 10.4-4 22.4-10.9 34.8-20.7 12.3-9.9 23.1-21.5 32-34.5 8.8-12.6 13.7-25 15.3-38.1.9-6.1.9-12.4.3-18.7zm-169 33c-9.1 8.3-17.7 17.2-25.6 26.7 5.4-22 19.6-40.7 39.2-51.9 14.6-8.3 30.6-13.9 47.2-16.5-22 11-42.5 25.1-60.8 41.7zm120.9-4.4c-1.6 9.1-6.8 17.1-14.4 22.3-6.3 4.1-12.5 8.2-19.1 11.9-12.9 6.9-25.8 14.1-39.5 16.6-13.5 2.7-27.5 2.2-40.8-1.5 19.6-28.3 47.9-49.4 80.6-60.1 7.9-2.5 16.2-3.1 24.4-1.8 2.8.5 5.4 2.1 7.1 4.4 1.5 2.4 2.2 5.4 1.7 8.2zm791.6 201.1c-.2-7.9-1.5-15.7-3.7-23.2-4.5-15.1-13-28.8-24.5-39.6-11.1-9.5-24.6-12.1-38.1-8.1-4.3 1.4-8.4 3.4-18.9 11.3s-27.4 21.5-43.7 35.7c-16.4 14.2-32.2 29.1-47.4 44.6 3.4-10 7.3-19.8 11.8-29.4 4.4-9.6 9.4-18.9 13.1-25.8 3.7-6.9 6.2-11.4 8.5-16s4.2-9.4 5.5-12.7c2.4-6.5 2.5-9.2 2.4-13.6-.1-2.1-.4-4.1-.9-5.7-.4-1.6-.9-2.7-1.7-3.7-4.9-6-11.9-3.7-18.2.4-1.9 1.4-3.6 2.9-5.1 4.6-7.9 8.1-15.6 16.5-22.9 25.1-12.1 14.4-22.3 30.2-30.5 47.1-4 8.4-7.5 17.1-9.7 23.2-2.2 6-3.1 9.3-3.8 12.7-1.5 7-2 14.2-1.6 21.4.5 8.9 2.1 20.8 4.9 31.4 1.4 5.3 3.1 10.5 5 15.6-7.4 15.8-13.9 31.9-19.6 48.3-5.7 16.4-10.5 33.2-14.3 50.1-3.3 14.7-6 29.6-8.2 44.5-1.5 10.4-1.5 13.9-1.3 17.5 1 15.5 8.4 31.4 23.5 47.3 10.3 9.6 23 9.3 35.8-1.5 6.8-26.3 13.7-52.4 20-78.7l6.3-21c2.1-7 5.3-13.6 9.4-23.8 4.1-10.2 9.7-23.9 15.3-37.5 12.4-2.3 24.7-5.1 36.9-8.4 8.9-2.3 17.6-5.7 25.8-10.1 3.9-2.1 7.8-4.4 12.8-7.9 5.1-3.5 11.4-8.2 17.6-13.1 5.9-4.7 11.6-9.6 17.2-14.7 8.9-8 16.8-17.1 23.6-26.9 14-20.5 19.7-39.3 18.7-59.4zm-52.7 29.2c-3.4 5.4-7.7 10.4-12.5 14.6-8.6 7-17.6 13.6-27 19.7-6.5 4.2-14.7 4.9-21.7 1.7 13-29.5 31.6-56.1 54.8-78.5 3.8-3.5 7-3.2 10-2.3 3 .8 6.3 5.3 6.1 8.2.5 12.8-2.9 25.6-9.7 36.6zm-1819.4 346c-1-6.5-3.1-12.8-6.3-18.5-2-3.5-4.4-6.8-7.2-9.7-8.4-8.8-18.3-12.5-28.2-14.3-5.3-1-10.6-1.6-16-1.6h-68.9v20.9H484v123.7h-19.2v20.9h63v-20.9h-19.3v-39.9h29.3c12.9-.3 26-1.6 40-16.3 10.8-12 15.7-28.3 13.3-44.3zm-34.8 31.7c-7.4 6-14.5 6.4-21.4 6.6h-26.4v-59.4H534c8.5 0 17.3 1.7 24.6 9.1 4.2 4.3 7 9.9 7.9 15.8 1.5 10.3-1.4 20.1-10.2 27.9z"/></g></svg>