<svg xmlns="http://www.w3.org/2000/svg" version="1.1" xmlns:xlink="http://www.w3.org/1999/xlink" width="2048" height="2048"><svg id="Layer_1" viewBox="0 0 2048 2048">
  <!-- Generator: Adobe Illustrator 29.1.0, SVG Export Plug-In . SVG Version: 2.1.0 Build 142)  -->
  <defs>
    <style>
      .st0 {
        fill: #f5fdfb;
      }

      .st1 {
        fill: url(#linear-gradient1);
      }

      .st2 {
        fill: #986a6e;
      }

      .st3 {
        fill: #731c22;
      }

      .st4 {
        fill: url(#linear-gradient);
      }

      .st5 {
        fill: #fdf7f6;
      }

      .st6 {
        fill: #90161b;
      }

      .st7 {
        fill: #8f191f;
      }

      .st8 {
        fill: #8d1417;
      }

      .st9 {
        fill: #e2a5a7;
      }

      .st10 {
        fill: #fafcfb;
      }
    </style>
    <linearGradient id="linear-gradient" x1="1220.9" y1="534.3" x2="1251.5" y2="533.3" gradientTransform="translate(0 2045.9) scale(1 -1)" gradientUnits="userSpaceOnUse">
      <stop offset="0" stop-color="#ffe6e7"></stop>
      <stop offset="1" stop-color="#f8ffff"></stop>
    </linearGradient>
    <linearGradient id="linear-gradient1" x1="1571.7" y1="496.3" x2="1598" y2="469.3" gradientTransform="translate(0 2045.9) scale(1 -1)" gradientUnits="userSpaceOnUse">
      <stop offset="0" stop-color="#fff0f1"></stop>
      <stop offset="1" stop-color="#faffff"></stop>
    </linearGradient>
  </defs>
  <path class="st10" d="M0,0h2048v2048H0V0Z"></path>
  <g>
    <path class="st6" d="M1789.5,1376c4.7-4.2,10.2-9.5,14.9-13.4-2.5,12.4-4.5,20.5-9.6,32.2l-2.7,6.8-5.8,12.7c43.7,7.4,102.4,18.1,143.8,34.6,7.7,2.4,12.4,4.1,19.9,7.3,24.4,8.3,50.7,20.7,73.9,32.2-33.5-5.9-67.1-11.3-100.7-16.1-56.2-7.1-107.5-7.9-162.5-13.2-22.3,43.7-57.3,85.7-90,122.1-7.7,8.6-30.3,30-35.6,37-1.1,6.5-1.1,10.2-5.9,13.9-4.9-.5-1.5-.9-5.7-2.9-65.5,61-158.1,131.8-241.6,166.1-5.7,2.6-11.6,5.3-17.3,7.7-40.7,17.8-72.8,28.5-115.7,40.8l-1.8.3c-181.9,46.8-382.2,40.3-556.5-32.5l-3.8-.8c-6.1-3.4-21.2-9.5-28.1-12.6-15.8-7.1-31.5-14.5-46.9-22.4-62.6-32.1-112.9-67.5-166.6-112l-1.4-2.1c-6.3-3.9-25.1-21.2-30.8-26.5-55-50.5-102.6-108.5-141.5-172.3-62.2.5-128.9,11.8-190.7,19.9-13.7,1.8-26.8,4.1-40.6,5.3,71.9-33.1,148.7-54.3,227.4-62.8,95-11.3,182.1-8.8,277.1-3.9,130,6.7,259.6,19.7,388.3,39.1,33.2,4.8,66.3,10,99.4,15.5,29.8,4.8,56.4,8.6,85.6,16.4l21.7-6.4,6.2-1.6c89-22.3,179.2-38.9,270.3-49.7,8.1-1,15.3-2,23.5-2.2,11.8-2.6,39.8-4.5,52.6-5.7,41.3-3.5,82.6-6.6,124-9.1,44.1-2.9,88.8-4.4,131.5-17.4,9.6-2.9,22.9-10.6,31.5-15.6l10.6-8.4Z"></path>
    <path class="st8" d="M1910.8,1452.4c.7-2.4.5-1.7,2-3.8,3.9-.8,9.7.8,15.9.4h1.4c7.7,2.3,12.4,4,19.9,7.2,24.4,8.3,50.7,20.7,73.9,32.2-33.5-5.9-67.1-11.3-100.7-16.1l2-5.1c4.3-2.6,6.5-1.8,12-2.1l.9-1.2c-8.4-6.4-22.8-7.4-27.2-11.6Z"></path>
    <path class="st7" d="M1910.8,1452.4c.7-2.4.5-1.7,2-3.8,3.9-.8,9.7.8,15.9.4h1.4c7.7,2.3,12.4,4,19.9,7.2l-1.4,1.8c-8.1,3.4-24-5-37.8-5.6Z"></path>
    <path class="st7" d="M1972.3,1471.3c7.2-.7,6.8-.2,10.3,4.9-6.5-.2-7,.6-10.3-4.9Z"></path>
    <path class="st8" d="M1789.5,1376c4.7-4.2,10.2-9.5,14.9-13.4-2.5,12.4-4.5,20.5-9.6,32.2-.4-2.8-.6-4.1-1.4-6.9l-1.3-.2-2.2,4.3-2.2.2-2-4.4c.8-3.6.8-2.6,4.7-5.6,1.3-3.6,1.1-1.6-.9-6.3Z"></path>
    <path class="st7" d="M1364.5,1802.9c2.7-6.8,7.5-6.6,6.4-12-4-1.9-3-.8-5.4-3.9l.9-2.3h2c3.9,3.1,6.1,4.2,10.6,6.7.8,2.2,1.2,2.1,2.9,3.8-5.7,2.6-11.6,5.3-17.3,7.7Z"></path>
    <path class="st0" d="M1623.4,1629.2c3.8-3.7,7.7-7.3,11.6-11-1.1,6.5-1.1,10.2-5.9,13.9-4.9-.5-1.5-.9-5.7-2.9Z"></path>
    <path class="st8" d="M1139.4,1485.8l6.2-1.6c2.7,2,2,.6,2.8,3.8l3.7.8c-3.4,4.2-7.8,4.4-12.3,1.6-.2-1.3-.4-3.3-.5-4.6Z"></path>
    <path class="st10" d="M589.9,1486.3c17.9.5,42.8,3.7,61,5.8,30.5,3.4,60.9,7.3,91.2,11.8,17,2.6,43.2,7.5,59.7,8.8-3.2-1.5-5.8-2.4-8.2-4.9l.9-1.8c6.1-2.6,14-3,20.6-3.2,8,.9,18.8,3.4,25.7,3.9-5.8-7-17.1-4.5-27.9-8.3l1.8.5c-2.5-1.2-1.6-.3-2.8-2.7l1-1.1c4.2,0,16.6-2.5,23.2-2.9,10.1.9,20.2,2.5,30.3,3.8,166.6,21.3,329.3,57,492.9,94,39.7,9.2,79.4,17.8,119.3,25.9,22.3,4.5,50.6,9.1,72.1,14.4-9.7,9.2-41.7,35.2-52.9,39.8-1,1.9-1.3,2.1-1.6,4.2l-2.4,1.6c-1.2-.5-.9-.2-1.3-.7l-5.5-1.7.6.4c-3.9.4-6.8.4-10.2,2.3l5.8,1.6.8,1.6c-10.8,10.7-59,37.9-73.8,45.9-7-2.9-16.8-7.3-23.8-9.6-10.9-5.1-23.5-9.5-34.8-13.8l-2.2-.8c-48.7-18.7-97.1-34.8-146.5-51.6-4.9-1.2-14.9-4.9-20.1-6.7-22.3-6.1-49.6-17.2-71.1-22-31.2-12.2-87.6-27-120.8-36.6-33.7-10.2-69.9-19.3-104-28-10.1-2.4-19.3-4.7-29.3-7.6-15.8-2.7-31-7.7-46.5-10.3-8.7-2.2-15.3-3.7-24.2-5.2-10.9-5.6-143.8-27.4-162-29-14.7-4.1-44.5-6-61.4-9.6l-.6-1.7-4-.7-.5-1.5c5.7-3.2,24-3.9,31.3-4.3Z"></path>
    <path class="st10" d="M836.1,1492.2c10.1.9,20.2,2.5,30.3,3.8,166.6,21.3,329.3,57,492.9,94,39.7,9.2,79.4,17.8,119.3,25.9,22.3,4.5,50.6,9.1,72.1,14.4-9.7,9.2-41.7,35.2-52.9,39.8l-13.3-4.3-11.2-3.2c-137.2-43.4-276.2-80.9-416.7-112.4-46.8-10.4-93.8-20.3-140.9-29.5-24.8-4.8-50.2-8.7-74.9-14.1-5.8-7-17.1-4.5-27.9-8.3l1.8.5c-2.5-1.2-1.6-.3-2.8-2.7l1-1.1c4.2,0,16.6-2.5,23.2-2.9Z"></path>
    <path class="st0" d="M1473.4,1662.7c5-.7,7.2-3,12.9-4.2l1.6,1.6c-1.2,3.9-1.8,2.9-3.3,5.8l-11.2-3.2Z"></path>
    <path class="st8" d="M815.2,1502.8c8,.9,18.8,3.4,25.7,3.9,24.7,5.3,50.1,9.3,74.9,14.1,47.1,9.2,94.1,19.1,140.9,29.5,140.5,31.5,279.5,69,416.7,112.4l11.2,3.2,13.3,4.3c-1,1.9-1.3,2.1-1.6,4.2l-2.4,1.6c-1.2-.5-.9-.2-1.3-.7l-5.5-1.7.6.4c-3.9.4-6.8.4-10.2,2.3-9.6-1-47.7-13.7-57.9-17-17.6-5.6-35.2-11-53-16-71.5-20.3-143.4-39.2-215.6-56.6-79-19.6-158.5-37.5-238.4-53.5-22.9-4.6-45.9-8.9-68.9-12.7-10.4-1.8-32.4-4.9-41.8-7.6-3.2-1.5-5.8-2.4-8.2-4.9l.9-1.8c6.1-2.6,14-3,20.6-3.2Z"></path>
    <path class="st0" d="M857.8,1548.6c8.8,0,20.3-1.5,26.7-1.3l1.2,1.2c-1.2,3.9-.9,4.4,1.4,7.7-10.1-2.4-19.3-4.7-29.3-7.6Z"></path>
    <path class="st0" d="M1183,1642.8h1.6c8.2,0,14.6-2.6,20.1-1.6l1.6,1.8c-.4,3-1.5,3.9-3.3,6.5-4.9-1.2-14.9-4.9-20.1-6.7Z"></path>
    <path class="st0" d="M1252.1,1616.2c5.6.5,5.2.3,8.1,3.4-3.3.6-3.2.8-6.3,0l-1.8-3.4Z"></path>
    <path class="st10" d="M563.1,1527.8c-9.2-9.5-21.5-5.4-32-11.4,3.4-2.5,30.2.3,38.9-.4h1.2c14.8.7,33.2,5.6,46.9,6.2,13.7,3.8,56.1,9.7,72.6,12.7,48.7,8.8,97.2,18.5,145.5,29.1l8,1.9c13.5,2.9,27,6,40.5,9.3l32.8,7.8,31.8,7.9c2.4-2.8,2.3-3.1,2.6-6.7,5.3-1.4,5.9-1.4,11.4-1.3l.4,1c-1.8,1-2.9,1.6-4.7,2.8l.4,1.2,1.4.6c4.5,2,5.6,2.1,8.6,5.7l.4,2c2.3.6,5.8,1.6,8,2.1,36.8,9.9,73.5,20.3,110.1,31,0-9-2.4.4-3.8-9.1,6-3,18.8,1.5,27.5.7,21.6,4.8,48.8,15.9,71.1,22,5.2,1.8,15.2,5.5,20.1,6.7,49.4,16.8,97.7,32.9,146.5,51.6l2.2.8c11.3,4.3,24,8.7,34.8,13.8,3.1,4.6,5.5,6.9,11.2,7.9-3.3,2.6-3,1.8-6.7,2.4-2,4.6-.4,3.1-4.3,5.2l4.8,2.9-.5,1.5c-11.1,5.7-23.3,10.8-33.8,16.3l-2.1.5c-12.4,6.7-39.8,16.5-53.2,21.5-18.4-6.1-56.7-25.1-77.9-34.1-54.6-23.4-109.5-45.8-164.9-67.1-112.7-43.2-227.9-79.8-344.9-109.5-50.2-12.7-100.6-24.5-151.2-35.4Z"></path>
    <path class="st8" d="M1088.2,1629.2c0-9-2.4.4-3.8-9.1,6-3,18.8,1.5,27.5.7,21.6,4.8,48.8,15.9,71.1,22,5.2,1.8,15.2,5.5,20.1,6.7,49.4,16.8,97.7,32.9,146.5,51.6l2.2.8c11.3,4.3,24,8.7,34.8,13.8,3.1,4.6,5.5,6.9,11.2,7.9-3.3,2.6-3,1.8-6.7,2.4-2,4.6-.4,3.1-4.3,5.2-37.6-17.6-73.6-28.3-112.9-41.7-61.5-21.4-123.4-41.6-185.8-60.4Z"></path>
    <path class="st8" d="M949.4,1590.9c2.4-2.8,2.3-3.1,2.6-6.7,5.3-1.4,5.9-1.4,11.4-1.3l.4,1c-1.8,1-2.9,1.6-4.7,2.8l.4,1.2,1.4.6c4.5,2,5.6,2.1,8.6,5.7l.4,2-20.7-5.3Z"></path>
    <path class="st5" d="M365.5,1518.3c16.8,3.5,36.1,6.3,53.2,9.4l110.3,20.1c24.8,4.5,70.4,15.2,92.5,17.5,8.5,3.1,29.4,7.4,39.4,9.8,23.4,5.5,46.8,11.3,70.1,17.3,67.4,17.5,134.2,37.1,200.4,58.9,22.4,7.4,58.3,18.7,79.5,27.5l10.8,3.7c88.6,32.9,160.9,64.1,246.4,104.4-28,11.6-56.7,15.1-82.9,23.6l-2.6.2c-10,1.3-19.9,2.6-29.9,3.8-107.9-58.2-210.5-111.3-326.7-151.7-3.3-1.7-5.1-2-8.6-2.9-21.9-9.9-67.2-24.4-90.6-32.4-64.7-22.3-129.9-43.2-195.5-62.6-19-5.7-38.2-11-57.4-15.8-27.1-6.6-88.9-17-108.4-30.8Z"></path>
    <path class="st10" d="M526.3,1598.4l8.8,2.1,9.7,2.9c151.9,40.5,300,94.2,442.5,160.6,37.9,18,76.9,35.9,112.2,58.6-36.9,5.3-71.2,4.1-108.4,4l-19.5-13.2c-21.8-13.2-46.8-25.8-69.6-37.6-75.7-39.1-153.3-74.3-232.5-105.6l-18-7.4c-13.2-5-26.3-10.3-39.4-15.8l-1.6-.6-102-40.1c-.8-4.7-1.4-2.8.3-6.2,4.1-2.2,11.8-1.5,17.2-1.7Z"></path>
    <path class="st5" d="M651.8,1662.8c5.5-.3,8.3-.3,13.6-1.6l2.3.9c1.5,3.7.7,4.4,2.1,8.1l-18-7.4Z"></path>
    <path class="st0" d="M610.7,1646.5l.7-1.5c1-2.2.7-1.3,1.5-3.6,3.4-1.1,1.9-1.3,4.9-.1v2.6c-1.9,1.3-3.4,2.1-5.5,3.2l-1.6-.6Z"></path>
    <path class="st10" d="M498.8,1645.1c49.8,12.6,112.7,43.7,161.8,63.3l6.3,2.7c56,23.8,111.2,49.3,165.7,76.3,14.7,7.3,47.4,22.7,59.1,31.6-31.5-5.3-52.5-9.6-83.4-18.6-6-1.8-11.9-3.7-17.9-5.5-7.5-2-15.2-4.5-22.6-6.7h-.8c-7.3-3.4-16.7-6.5-24.3-9.2-68.2-24.4-134.3-57.7-194.5-98l-11.3-7.5c-12.3-8.6-27.1-18.4-38.1-28.3Z"></path>
    <path class="st0" d="M790.6,1794.9c7.3-.2,11.9-3.6,17.2-3.3,3.3,3.3,2.3,4.1.6,8.8-6-1.8-11.9-3.7-17.9-5.5Z"></path>
    <path class="st0" d="M710.6,1734.1c2.2.5,2.5.7,4.5,1.5l-.3,1.8-5.6,3.1-.5.3.4-.4-2.7.4c1.1-4.3.9-3.1,4.3-6.7Z"></path>
    <path class="st10" d="M1665.6,1459.2c17.9-1.3,41-1.9,58.6.3-5.5.8-12.5,2-17.9,2-93.7,7.9-187.2,19.8-280,35.5-46.3,7.8-93.6,21.7-140,29.1-9.2,1.5-33.3-5.5-43.1-8.1-7.3-.8-18.4-3.8-25.9-5.6,9.2-2.4,16.6-3.9,26-5.6,31.1-7.6,74.7-14.7,106.3-19.6,104.6-16,210.2-25.4,316-28Z"></path>
    <path class="st4" d="M1217.2,1512.3c9.2-2.4,16.6-3.9,26-5.6,3,3.8,3.6,4.1,8.3,5v1.6c0,0-1.2-1-1.2-1-3,1.8-5.5,2.7-7.1,5.7-7.3-.8-18.4-3.8-25.9-5.6Z"></path>
    <path class="st9" d="M1665.6,1459.2c17.9-1.3,41-1.9,58.6.3-5.5.8-12.5,2-17.9,2l.4-1.4c-5.2-1.6-32-.4-41-1Z"></path>
    <path class="st10" d="M1318.8,1532.5c60-16.6,132.4-27.6,194.1-36.7,29.8-4.4,72.1-10.1,102.2-11.9,4.7.3,10.1.1,13.9,2.6-1.1,4.7-6.6,6.3-9.5,12.8-65.1,14.6-131.2,24.9-196,41.3-18.6,4.7-31.3,6.7-50.3,5.9h-.8c-18.3-3.7-35.7-8.8-53.6-14Z"></path>
    <path class="st10" d="M1646.6,1512.3c9-1.9,18.1-3.5,27.2-4.8-7,7.2-9.1,10.2-18.7,13.7-29.9,13.9-132.9,39.2-168.7,46.2-9,1.8-39.7-7-50.1-9.7-3-.4-2.3-.3-5-1.2,1.2-2.6,3.7-2.8,7.3-4.4,15.5-4.6,34.1-7.5,50.2-10.7,27.9-5.6,55.8-10.8,83.8-15.8,19.4-3.5,55.9-11.7,73.9-13.3Z"></path>
    <path class="st5" d="M1646.6,1512.3c9-1.9,18.1-3.5,27.2-4.8-7,7.2-9.1,10.2-18.7,13.7,1.2-2,2.4-3.8,3.7-5.7l-.5-1.9c-4.2-1.1-7.4-1-11.7-1.2Z"></path>
    <path class="st5" d="M1436.4,1557.6c-3-.4-2.3-.3-5-1.2,1.2-2.6,3.7-2.8,7.3-4.4l-2.3,5.5Z"></path>
    <path class="st5" d="M390.7,1460.5l.2-.8c35-2.9,91.4,1.2,126.5,3.3,71.5,4,143,9.7,214.3,17,23.1,2.4,46.2,4.9,69.3,7.7,8.7,1,27,2.8,35.1,4.7-6.5.4-18.9,2.9-23.2,2.9l-1,1.1c1.2,2.4.3,1.5,2.8,2.7l-1.8-.5c10.8,3.8,22.1,1.2,27.9,8.3-6.9-.5-17.7-3-25.7-3.9-43.9-10-117.3-18.6-161.9-23.3-62.1-6.8-124.3-12.1-186.7-16-7.8,4.4-38.9,1.2-49.5,2-5.1.4-16.6.9-21.7.7-4.4-2.6-2.8-.8-4.6-5.8Z"></path>
    <path class="st7" d="M390.7,1460.5c20.3,3.5,52.7.7,75.8,3.1-7.8,4.4-38.9,1.2-49.5,2-5.1.4-16.6.9-21.7.7-4.4-2.6-2.8-.8-4.6-5.8Z"></path>
    <path class="st5" d="M472.9,1478.2l-1.3-3c24.2-12.5,44-2.2,69.7-1.7,3.7,0,12.1.7,15.2,1.9l.2,1.6c-3.6,2.5-23,2.3-31.1,3.7,12.7,1.5,55.6,3.4,64.3,5.6-7.3.5-25.6,1.1-31.3,4.3l.5,1.5,4,.7.6,1.7c-6.3.1-24.2-3-31.3-3.7-26-2.6-54.3-7.7-80.2-9.3-10.6,1.6-34.1.2-45.7.4-1.8,0-9.5-3.2-11.7-4.1-1.8-.9-5.4-1.1-7.6-1.4-3.2-.3-3.6-.5-6.7-1.4l.7-1c8.5-.9,23.7-1.3,31.8.4,19.4.4,40.1,2.6,59.8,3.7Z"></path>
    <path class="st8" d="M472.9,1478.2l-1.3-3c24.2-12.5,44-2.2,69.7-1.7,3.7,0,12.1.7,15.2,1.9l.2,1.6c-3.6,2.5-23,2.3-31.1,3.7-15.4.1-37-1.7-52.8-2.6Z"></path>
    <path class="st7" d="M394.9,1477.9c10.9.3,47.3,1.9,57.3,3.7-10.6,1.6-34.1.2-45.7.4-1.8,0-9.5-3.2-11.7-4.1Z"></path>
    <path class="st9" d="M387.3,1476.5c-3.2-.3-3.6-.5-6.7-1.4l.7-1c8.5-.9,23.7-1.3,31.8.4-6.6.2-20.9-.6-25.8,2Z"></path>
    <path class="st5" d="M378.9,1494.2c8.9-.9,26.2,1.1,35.5,2,26.7,2.6,53.3,5.6,79.9,9,8.8,1.1,35.7,5,43.9,4.9,5.2,2.4,25.1,3.7,33.1,5.7h-1.2c-8.7.8-35.6-1.9-38.9.5,10.6,6.1,22.8,1.9,32,11.4-17.7-2.9-39-7.7-57.2-11.3-28.7-5.6-57.5-10.6-86.4-15l-8.7-1.4c-10.5-1.6-21.8-3.1-32-5.9Z"></path>
    <path class="st1" d="M1588.1,1564.3c13.2-4,30.1-8.7,42.6-13.6-12.4,13.3-20.6,22-35,33.5l-18.4-2c-12.2-1.4-24.3-2.9-36.4-4.7,15.3-4.9,31.5-10.1,47.2-13.2Z"></path>
    <path class="st5" d="M1588.1,1564.3c13.2-4,30.1-8.7,42.6-13.6-12.4,13.3-20.6,22-35,33.5l-18.4-2c9.5-2.5,29.8-7.2,33.3-18.2-3.3-1.4-16.3,1-22.5.4Z"></path>
    <path class="st5" d="M424.5,1575.5c-4.5-.2-4.3-.2-8.3-2.1-7.3-10.7-6.3-2.2-12.3-8.1l1.5-1.4c6.9-.6,9.2.8,16.1,2.4l.8,2.3c34.5,10.7,69.4,19.6,104,29.8-5.4.2-13.1-.5-17.2,1.7-1.7,3.5-1.2,1.5-.3,6.2l-29.8-10.3-3.4-1c-18.5-7.1-32.1-10.4-51-19.5Z"></path>
    <path class="st7" d="M424.5,1575.5c-4.5-.2-4.3-.2-8.3-2.1-7.3-10.7-6.3-2.2-12.3-8.1l1.5-1.4c6.9-.6,9.2.8,16.1,2.4l.8,2.3-4.7-.2-.4,1.2,7.3,6Z"></path>
    <path class="st5" d="M1667.2,1478.7l-.7-4.3c6.2-4.2,12.5-.9,18.3,2.6,7.3-.4,13.4-.7,20.7-1.6-26.4,14.3-56.4,18.4-85.9,24,3-6.5,8.4-8.1,9.5-12.8-3.7-2.5-9.2-2.3-13.9-2.6,13.2-2.5,38.2-4.1,52-5.3Z"></path>
    <path class="st8" d="M1667.2,1478.7l-.7-4.3c6.2-4.2,12.5-.9,18.3,2.6-5.8.7-11.7,1.3-17.6,1.7Z"></path>
    <path class="st7" d="M826,1662.8c1.5,2,3,3.8,4.8,5.5-4.4,2.7-36-7.5-39.1-12.4,9.3.4,16.7,4.4,25.6,4,3.5.9,5.3,1.2,8.6,2.9Z"></path>
    <path class="st8" d="M1010.8,1678.7c1-5.4-.2-3.2,3-7.1,6.5-2.6,15.3,3.7,22.1,5.7l-.4,1.5c-5.2,1.9-8.8,1.8-13.8,3.6l-10.8-3.7Z"></path>
    <path class="st8" d="M529.6,1677.6c-4-2-3.9-2.1-7-5.1v-1.8c5.9-.4,7.3,1.6,12.6,3.9l1.8-1.2,11.3,7.5c-.6,2.6-.6,2.4-2.3,4.5-7.3.8-12.6-1.8-16.4-7.8Z"></path>
    <path class="st7" d="M529.6,1677.6c-4-2-3.9-2.1-7-5.1v-1.8c5.9-.4,7.3,1.6,12.6,3.9l-.4,3.3c-3.3.6-2,.6-5.3-.4Z"></path>
    <path class="st8" d="M684,1489.1c8.8-.4,22.2-1.5,29.2,3.7-9.7,1.3-20.3,5.3-29.2-3.7Z"></path>
    <path class="st8" d="M836.3,1563.9c8.9-8,15.3-9.6,23.5-.8-6.5,1.3-8.4-.5-15.5,2.7l-8-1.9Z"></path>
    <path class="st8" d="M535.1,1600.6l1.1-.2c6.8-1.5,11.6-6.8,18.9-1.8l-.2,2.1c2.3,1,2.8,1.1,5.3,1.6-4,.4-12.5.5-15.4,1.3l-9.7-2.9Z"></path>
    <path class="st8" d="M469.5,1485.1c5,1.6,9.4,2.3,14.7,4.2h-7.8c-5.6,2-11.2,3.5-15.9-.7l1.2-1.6v-.2c2.2-1.5,4.9-1.3,7.9-1.6Z"></path>
    <path class="st8" d="M817.6,1447.8c6.8,1,24.2,2.8,29.2,5.1l-.7,1.4c-1.5,0-3.2.2-4.6-.4-7.5-2.9-16.3,2-23.4-1.7l-.5-4.4Z"></path>
    <path class="st7" d="M804.7,1765.4c5.3,0,14,1.5,15.7,7.1l-1.6,2.6c-6.9-1.7-9.4-3.6-15.1-7.9l1.1-1.8Z"></path>
    <path class="st8" d="M738.7,1654.4c2.8-.3,10.3,2.3,12.8,3.9-1,2.8-.5,2-2.4,4-5.3-1-9-1.2-13.4-4.3l-.7-1.4-.6.5-1.2-.8,3.7-.4,1.8-1.5Z"></path>
    <path class="st8" d="M366.7,1528.9l6.3.7c4.2.4,10,1,11.8,5.3l-2.5,1.7c-6-1.4-13.4-1.9-15.5-7.7Z"></path>
    <path class="st7" d="M586.1,1585.6c7,.8,11.4,2.6,17,6.8l-2.3,2.9c-2.8-.5-11.7-4.7-15.8-6.1,2.6-.3,2.9,0,5-1.1l-4-2.5Z"></path>
    <path class="st7" d="M661.5,1750.5c8.9.9,15.5,4.4,22.5,10.2-4.8,0-20-5.3-22.5-10.2Z"></path>
    <path class="st7" d="M1004.6,1766c8.5-.6,11.9-2.6,16.1,5.3-3.9-.6-13.5-2.6-16.1-5.3Z"></path>
    <path class="st8" d="M1745.2,1461.3c3.2.1,3.5.2,6.7,1,1.8,3.4.6,4.4-.5,9.3h-1.7c-2.5-3.5-3.2-6.3-4.6-10.3Z"></path>
    <path class="st8" d="M536.4,1538.7c3.5,0,5.3-.6,7.4,1.1l-3.8,3c-5.3-.3-6.5,0-11.3-2.2,1.9-1.7,4.6-1.4,7.7-1.8Z"></path>
    <path class="st8" d="M1675.1,1559c2.2,1.6,3.7,2.9,5.7,4.7v2.7l-2.1,1.8c-2.8-.6-1.9-.5-4.3-2.7-1.3-4.4-1.5-2.3.7-6.4Z"></path>
    <path class="st7" d="M1616.3,1623.1c1.2-.5,2.5-.2,3.4.6,1,.8,1.4,2.1,1.1,3.3s-1.2,2.2-2.4,2.5c-1.7.4-3.5-.5-4-2.2s.3-3.5,1.9-4.2Z"></path>
    <path class="st7" d="M1232.6,1761c3.2-.1,4.6-.6,7.4.9l1,3.5c-6,0-6.5,1-8.4-4.4Z"></path>
    <path class="st7" d="M952.9,1578.3c3.7.5,3.8.3,7.1,1.8l-1,2.2c-4.3.3-4.6,1.1-7.2-.9l1.1-3.1Z"></path>
    <path class="st8" d="M1630,260c6-12.1,20.2-15.3,32.7-15.2,23.3,0,40.2,3.7,43.6,28.8l10.7,5.4c36.4,15,69.4,33.9,92,66.9,18.3,26.7,3.7,30.3,43.7,25.5,2.4-3.6,4.3-7.2,8.1-8.8l2.2.9c3.5,7.9,2.1,140.4,2,160.3l-.8,266.3c35.4,15.1,67.9,28.5,100.8,48.8,9.5,5.9,19.6,10.7,28.6,17.8-23.9-6.6-46.8-15.3-70.4-22.6-43.6-13.4-87.7-25.6-131.6-38.2-10.1-2.9-18.7-4.8-29.1-6.1,2.8-9,4.7-15.5,8.8-24-.8-6.4-2-10.7,1.8-15.8.3-3.3-.5-25.6-.6-30.7l3.3-2.4c.6-2.9.4-1,.2-3.7-1.9-27.5,0-56.1,1.3-83.6.4-10-8.9-12.6.8-23.3,1.9-2.1-3.5-9.4-3.4-11.4.3-5.8,4.3-7.7,3-14.2l-1.5-1.8c-5.5-7.1,1.2-5.5,1-13-.4-19.6-1.4-39.5-.2-59.1.3-5.3,1.9-5.8-1.7-10.3v-1.4c2.7-6.7.6-7.6.7-14.2l1-42.2c.3-10.8,4-15.2-2-24.2-.4-6.8,7.8-9.1,5.1-17.5-2-1-3.9-2-5.9-3l.2-1.5,5.6-3c5.9-8.2-3.1-13.8-3.1-19.3,3-3.7,6.9-4.8,11.4-6.8-1.2-3.5-.1-1.9-4.2-4l-1.4-.2c-11.2-2.3-22.3-4.3-33.7-5.2-19-1.5-103.7-3.5-113.9,4.8-1.2,1-2.4,2.2-3.1,3.6l1.3,3.4c8.9,3.7,9.6,2.4,17.8-2.3,10.1,7,10.5,6.4,21.9,1,5.9,1.8,6,7.9,4.5,12.9-8.2,5.3-13.8-7.9-19.7-2.1-7.1,6.9-16.9,0-23.3,3.7-1.2,6,2,8.8,5.6,13.5-3.1,4.4-4.8,6-5.7,11.1l.8,2.8c9.3,3.7,9.7-1.7,17.6-.4,3.9,1.2,3.9,1.4,7.1,3.7,4.8-.6,16.8-12.5,19.2,3.2-4.7,10.5-11.7,6.4-18.7,1.5l-8.5,8.5c3,3.2,6.1,6.3,8.7,9.9l9.6-9.6,11.7,8.9,1.4-.7c12.7-6.6,11.4,0,22.8-.8,5.3-.4,10-3.2,15.4,1.7l.3,2c-2.5,3.3-2.3,3.1-6.2,4.5-4.3-.5-6.3-2.3-9.9-4.7-5.2-.6-9.7,5.5-12.7,4.6-11.2-3.5-7.9-7.7-21.5.7-3.8.2-7.3-2.8-10.7-5-3.1,3-6.4,6.3-9.6,9.1l-11.6-8.5c-3.6,4.9-6.9,8.3-4,14.9,13.2,5.8,10.9-12.4,24.9,2.7l10.7-8.7c3.8,3.3,7.6,6.8,11.7,9.6l-12.2,9-10.3-8.2c-3.4,3.8-4.1,5.3-8.8,6.6-6-.8-10-10-16.6-1-.6,6.8.2,7.9,5.3,12.3-2.1,5.8,4.7,8.9,9.6,10.6,1.8,12.9,7.2,3.8,5.8,18.3l-2.9,2.9c.7,4.9,5.6,7.7,10.1,9.4,3.4-2.6,3.9-3.4,8.2-4.1,2.7.9,3.9,1.2,6.2,2.7,7,4.4,15.6-3.7,23.8,1.5-2,11-11.9,7-18.1,2.8-5.5,1.5-7.4,4.9-13.2,4.9-4.4-1.5-4.3-1.9-7.3-5.3l-11.3,8.8c-3.8-2.9-8.2-5.6-12.2-8.2-2.4,3-6.3,6.8-6.6,10,3.8,3,4.8,3.8,7.7,7.5l11-7.8,9.7,7.7,9.6-7c3.8,2.4,7.2,4.7,10.9,7.3l.2,1.6-2.1,1.3c-2.5,6-2.8,4.4-2,10,4.3,4,7.9,2.8,13.3,2l13.5,6.1-13.3,6.1c-3-1.8-5.9-3.6-8.9-5.5l-11.6,8.4c-3.1-2.6-6.3-5.2-9.2-8-3,2.3-7,5.6-10.1,7.4l9.5,10.9,9.5-9.1,11.1,8.9c6.5-4,10.6-7.2,16.5-.5.4,4.5.9,2.5-1.6,6.2-6.6,2.6-8.9.4-14.1-3.8-3.4,2.7-7.1,5.5-10.4,8.2l-12.2-7.4c-3.8,4.5-4.7,4.3-5.7,9.2,1.3,3.7,2.9,5,5.4,7.9,3.8-2.8,7.9-5.7,11.6-8.5l1,1.1c8.6,9,9.1,4.1,19.5,5.5,6.8.9,23-1.4,28.1,1l1.6,2.3c-5.4,14.7-14.5-2.6-24.4,4.4-11.5,8.2-10.1-10.5-24.6,2.1-4.7.6-8.9-2.4-13-4.9-3.1,3.8-5.2,5.8-6.8,10.3l1.8,2.9c6.1,1.3,11.1-.7,17.2-2.5,10.1,4.8,7.6,7.1,19.4,1.7,4.4.8,6.3,2.4,10.1,4.7,5.8-.7,14.3-2.9,18.8,1.2l-.2,1.9c-6,1.7-14.9,1.5-20,2.7-11.6,2.8-12.9-2.5-18.5-3.3-5.3-.7-4.7,10.5-20.5,2.6-4.1.8-6.5,3.7-9.7,6.6l9.5,8c3.6-2.6,6.8-5.6,11.1-5.5,4.4,1.8,6.1,3.1,10.1,5.7,3.2-1.8,7.1-4.1,10.5-5.4l12.6,5.9.9-.7-.5-.4c4.4.5,6.5-1.2,11.1-2.2,3.8,1.8,2.1.5,4.6,5l-.5,2.2c-8.6,3.7-14.5-4.4-23.7,2.2-1.9,1.4-3.8,1.4-6,1.1-4.2-2.3-4.1-2.3-7.6-5.7-3.7.6-7.7,4.7-11.1,7.4-6.2-3.1-13.8-7.8-18.1.5.8,5.2,2.4,5.9,6.5,10.4l10.9-9.1c3.9,3.5,7.1,5.6,8.9,10.4-.6,4.1.3,2.4-2.6,5.4l-1.7,3.6c.9,2.2,6.5,9.9,8.4,11.1l-2.4,5.1-1.6,2.4c-7.3,4.3-10.2,4.3-14.8-2.5l-2.5-2.7c-4.8.2-8.2,3.6-12.4,6.6,3.1,2.1,9.2,5.2,10.3,8-2.8,3.9-2.9,4.3-7,6.4-4.6.6-6.8-.8-11.4-2.5-5.3.9-6.3,3.7-8.7,8.2,1.3,2.2,4.1,4.8,5.9,6.7-.7,6.6-15.9,20.8-21.2,34l-.5,1.3c-23.8-8.2-48.9-11.8-73.6-16.3-21.2-3.8-42.4-8-63.5-12.5-88.6-18.2-170.6-29.5-260.7-39.3-227.9-24.4-457.5-28-686-10.7-56.4,4.2-118.2,8-174.1,15-85.4,11.1-169.9,28.3-252.8,51.6,13.6-8.9,28.9-14,43.7-20.1,49.1-20.1,98.4-30.8,149.2-44.2,8.8-14.3,28.4-9.6,43.1-8.8,13.2-1,33.6-7,46.1-10.9-1.4-6.4-2.4-12.1-4.6-18.3.8-3,.5-3.3.6-6.5,3.5-3.8,1.5-3,5.7-3.3,2.7-3.9,1.6-8.2,3.7-11.3l1.4,9.5c1.3,10.7,1.9,16.7,5.7,27,6.5-.7,9.8-1.1,16.3-2.8,2.7-.1,2.6-.2,5.1-1.2,11.2,1.4,43.7-2.8,56-4.1,26.1-2.9,52.3-5.5,78.5-7.8,1-44.4-.1-88.9,1-132.9-3.2-.8-5.7-.8-9-1-3.3,1.5-21.9,2.4-26.7,2.8,11.6-23,39.4-62.5,55.5-82.8l6.5-7.4c20.4-22.7,45.6-40.6,73.9-52.1,1.3-.8,9.2-4,11-4.8,32.9-12.6,91.7-18.1,129-24.7,0-9.8.6-20.4,1.1-30.3,15.6-7.5,58.9-16.2,67.7,3.7-.2,5.9-.5,10.9-1,16.8,8.8-1.6,17.6-3.1,26.5-4.5,4.3-.8,7.7-1.2,12.1-1.6,81.8-14.5,167.8-27.1,250.3-40.9,37.4,25.6,80.3,57.6,112.4,89.8,5.9,6,21.2,50.1,28.6,62.7,4.3,7.3,24.7,51.5,23.1,60.3-.7,4-18.1,10.8-24.1,12.9,0,9.5-1.6,63.5,2.1,68,2.5,1.2,9.5,4.4,11.3,6.1,3.7,3.3,4.7,9.4,9.2,12.1,1.2-2.3,1.5-3.3,2.4-5.8,5.9-3.2,8.1-3.2,13.9-5.4-21.9-4-22.9-10.6-8-28.1,14.5-5,11.3-10.6,23.8-10.6.6-5.8-.3-9.1-.4-14.6,5.5-4,11.4-8.5,16.9-12.2,22.9,3.5,30.2-.8,48.7,13,.9,7.1.2,8.5-1.4,15.5,14.6,4.9,18.2,8.2,28.4,20,18.2,3.8,17.3,4.7,20.8,23.3,1,5.6,5.7,7.2,5.4,14.9-2.7,5.5-5.3,5.2-8.9,9.5,4.3,2.3,6.4,3.1,11,4.9-2.7,8.3-3.3,9.3-7.7,16.8l-2.1,3.7-1.4-.7c-8.4-4.3-20.6-14.3-28.2-14.3-3.9,3.9-.4,5.5-3.9,9.8-4.4.6-7.7-5.6-17.2-7.1-8.9,7.4-22.1,19.6-24.5,31.2-.8,4-1.3,8.1-1.9,12.2,37,6.1,92.2,19.8,126.2,22.7,0-76.8,2.1-164-.7-240-.8-16.2-.4-36.2-.4-52.6,2.6-35.6,7.8-42.2,33.3-67.7l2.1-1.6c27.7-27.3,55.6-31.5,80.9-49.3l5.4-11.8Z"></path>
    <path class="st6" d="M1633.8,585.5l-1.5-2.5-1.7.2-.4,1.1-2.4,1.1c-4.3-.9-2.4,0-5.7-3.1-.8-4.8-2.4-6.2-3.9-10.5,2.9-.7,2-.3,4.4-1.7.3-3.9.7-2.1-1-5.4-3.8-1-4.7-1.1-8.3-2.8-3-3.3-2.8-4.1-3.3-8.4l1.2-1.4c6.6,0,8.6,1.2,12.2-4.4.8-11.2-7.6-5.5-11.2-13.3,1.7-5,4.3.4,9.3-5.9,5-2.3,5.3-2.1,11-1.7,3.8,3,4.8,3.8,7.7,7.5l11-7.8,9.7,7.7,9.6-7c3.8,2.4,7.2,4.7,10.9,7.3l.2,1.6-2.1,1.3c-2.5,6-2.8,4.4-2,10,4.3,4,7.9,2.8,13.3,2l13.5,6.1-13.3,6.1c-3-1.8-5.9-3.6-8.9-5.5l-11.6,8.4c-3.1-2.6-6.3-5.2-9.2-8-3,2.3-7,5.6-10.1,7.4l9.5,10.9,9.5-9.1,11.1,8.9c6.5-4,10.6-7.2,16.5-.5.4,4.5.9,2.5-1.6,6.2-6.6,2.6-8.9.4-14.1-3.8-3.4,2.7-7.1,5.5-10.4,8.2l-12.2-7.4c-3.8,4.5-4.7,4.3-5.7,9.2,1.3,3.7,2.9,5,5.4,7.9,3.8-2.8,7.9-5.7,11.6-8.5l1,1.1c8.6,9,9.1,4.1,19.5,5.5,6.8.9,23-1.4,28.1,1l1.6,2.3c-5.4,14.7-14.5-2.6-24.4,4.4-11.5,8.2-10.1-10.5-24.6,2.1-4.7.6-8.9-2.4-13-4.9-3.1,3.8-5.2,5.8-6.8,10.3l1.8,2.9c6.1,1.3,11.1-.7,17.2-2.5,10.1,4.8,7.6,7.1,19.4,1.7,4.4.8,6.3,2.4,10.1,4.7,5.8-.7,14.3-2.9,18.8,1.2l-.2,1.9c-6,1.7-14.9,1.5-20,2.7-11.6,2.8-12.9-2.5-18.5-3.3-5.3-.7-4.7,10.5-20.5,2.6-4.1.8-6.5,3.7-9.7,6.6l9.5,8c3.6-2.6,6.8-5.6,11.1-5.5,4.4,1.8,6.1,3.1,10.1,5.7,3.2-1.8,7.1-4.1,10.5-5.4l12.6,5.9.9-.7-.5-.4c4.4.5,6.5-1.2,11.1-2.2,3.8,1.8,2.1.5,4.6,5l-.5,2.2c-8.6,3.7-14.5-4.4-23.7,2.2-1.9,1.4-3.8,1.4-6,1.1-4.2-2.3-4.1-2.3-7.6-5.7-3.7.6-7.7,4.7-11.1,7.4-6.2-3.1-13.8-7.8-18.1.5.8,5.2,2.4,5.9,6.5,10.4l10.9-9.1c3.9,3.5,7.1,5.6,8.9,10.4-.6,4.1.3,2.4-2.6,5.4l-1.7,3.6c.9,2.2,6.5,9.9,8.4,11.1l-2.4,5.1-1.6,2.4c-7.3,4.3-10.2,4.3-14.8-2.5l-2.5-2.7c-4.8.2-8.2,3.6-12.4,6.6,3.1,2.1,9.2,5.2,10.3,8-2.8,3.9-2.9,4.3-7,6.4-4.6.6-6.8-.8-11.4-2.5-5.3.9-6.3,3.7-8.7,8.2l-1-.2c-.2-3,.1-2.3-.9-5-2.8,1.2-4.4,2.3-7.4,1.8v-1.4s2.1-1.7,2.1-1.7c-.3-3.2-.3-5.3-1.7-8.2h-4.1s-1.1-1.4-1.1-1.4c5.3-7.7-.2-4.8-.9-10.4,3-.7,3.5-.5,5.7-2.5l-.6-3.3-4.3-.4-1.4-2c-2.8-4.4-2.5-2.8-2.8-7.4l1.7-1.6c10.7-.1,12.3,6,21.3-1-8.7.1-6.7,0-12.9-5.6-2.3-2-.4,2.2-4.3-.5,13.6-13.7-5.6-7.8-8.6-26.6,0-2.9.4-3.5,1.1-6.4,9.7.4,16.8,4.8,24.6-.6l1.2-2.6c1-8.9,5.2-7.6,4.8-13.4-4.3-6.2-4.8-5.3-4-11.1l-5.9-8.2Z"></path>
    <path class="st5" d="M1660.8,536.4c3.8,3.1,4.3,3.8,8.8,5.3,4.2,0,6.1-1.8,9.7-4.1-2.5,6-2.8,4.4-2,10,4.3,4,7.9,2.8,13.3,2-10.5,6.7-12.2,3.6-20.5-3.8l-8.7,8.9-10.5-9.1,9.9-9.1Z"></path>
    <path class="st5" d="M1638.9,618.2c4.8,0,7.8,4.9,10.9,8.6-3.3,2.1-8,6-11.2,5.8-11.2-10.1-13.1-1-26.6-4.8,0-2.9.4-3.5,1.1-6.4,9.7.4,16.8,4.8,24.6-.6l1.2-2.6Z"></path>
    <path class="st5" d="M1637.8,660.5l1.8-1.8c3.4.6,3.9,1.5,6.6,3.7,1.7,3.9,1.6,2,.6,6-2.8,2.3-2.7,3.2-6.7,2.3-10.1-2.4-9.8-3-19.8-.9l-2.8.6c-2.8-4.4-2.5-2.8-2.8-7.4l1.7-1.6c10.7-.1,12.3,6,21.3-1Z"></path>
    <path class="st5" d="M1655.3,661c8.4-7.2,8.2,1.7,21.8.4l-1.7,3.6c.9,2.2,6.5,9.9,8.4,11.1l-2.4,5.1-1.6,2.4c-7.3,4.3-10.2,4.3-14.8-2.5,4.5,2,6.5,2.6,11.1.6,5.3-7.5-.3-17.2-10.6-11.3,1.6-5.2,1.9-2.9.5-7.3-3-2.4-6.7-1.9-10.8-2.2Z"></path>
    <path class="st10" d="M1665.5,670.4c-1.7,2.3-1.2,1.6-3.7,3.3-5.2-1-9.8-3.5-10.3-9.3l3.7-3.4c4,.2,7.7-.2,10.8,2.2,1.4,4.4,1.1,2.1-.5,7.3Z"></path>
    <path class="st10" d="M1633.8,585.5c3.7-5.7,3.2-7.2,10.9-5.2,3.5,3.1,2.3,1.2,3.4,6-2.1,4.8-3,4.1-8.4,7.5l-5.9-8.2Z"></path>
    <path class="st10" d="M1692.3,289.5c7.2-1.4,12.4,4.7,23.5,4.4,30.8,11.7,48.4,25.1,71.7,47.8l-.6,1.4c-44-15.7-119.5-9.8-167-12.3,0-1.9-.2-.8.8-3.1,3.6-.9,3.8-.6,6.4-3.1l1.3-.7c1.4-2,3.7-2.3,5.9-2.8l-3.8-.5c-1.7-2.2-2.2-2.6-4.3-4.5-1.8,3.7-.8,2.7-3.7,5.3-2.7-2.5-2.3-2.3-4.3-5.4,2.7-.9,4.2-1.5,6.7-3l-.3-.8.6-1.3c16.1-.5,70.6-2.8,83.3-6.8-22.9-3.9-43-1.8-65.8-4.6,12.3-5.5,22.7-5.5,36.1-6.7l13.4-3.3Z"></path>
    <path class="st7" d="M1624.9,313.1c20.7,4.3,51.2,4.3,74.1,7.5-14.9,1.3-30.4,1.6-45.4,2.2-6.2.2-19.7,1.6-25.2,1.3,1.4-2,3.7-2.3,5.9-2.8l-3.8-.5c-1.7-2.2-2.2-2.6-4.3-4.5-1.8,3.7-.8,2.7-3.7,5.3-2.7-2.5-2.3-2.3-4.3-5.4,2.7-.9,4.2-1.5,6.7-3Z"></path>
    <path class="st6" d="M1630,260c6-12.1,20.2-15.3,32.7-15.2,23.3,0,40.2,3.7,43.6,28.8l10.7,5.4c-.8,3.4-6.9,9.5-10,10.9l-13.4-5.2c-2.3-3.2-4.8-5.7-6.3-9.4l.6,2.6-2.1-2.1c.2-3.9,1.1,1,3.1-5.7-18.3-2-29.8-1.4-48.1-.8-2.1-2.7-1.3-3.1-1.3-7.5l-1.2-.5-1.8.8c-.4,3.3,0,3.8-2,6.3h-2.4s-1.4-1.6-1.4-1.6c.6-2.2.5-2.6,0-4.8l-.5-2.1Z"></path>
    <path class="st10" d="M1639.3,261.8c12.4-6.6,48.2-9,55.7,3.5-1.3,3.5-2.6,3.4-6.2,4.8-18.3-2-29.8-1.4-48.1-.8-2.1-2.7-1.3-3.1-1.3-7.5Z"></path>
    <path class="st10" d="M1346.4,621.2c12.8,1,13.5.5,22.1,10.7,4.8,10.6,4.2,14.7,3.3,26-.9,0-1.8-.2-2.8-.3-9.7-1.3-66.7-7.7-70.7-12.8,4.4-4.2,18.4-3,25-2.9l23.1-20.6Z"></path>
    <path class="st7" d="M1649.8,483.3c1.8,12.9,7.2,3.8,5.8,18.3l-2.9,2.9c.7,4.9,5.6,7.7,10.1,9.4,3.4-2.6,3.9-3.4,8.2-4.1,2.7.9,3.9,1.2,6.2,2.7,7,4.4,15.6-3.7,23.8,1.5-2,11-11.9,7-18.1,2.8-5.5,1.5-7.4,4.9-13.2,4.9-4.4-1.5-4.3-1.9-7.3-5.3l-11.3,8.8c-3.8-2.9-8.2-5.6-12.2-8.2-3.8-2.4-10.2-6.7-13.7-9.3-.4-1.9-.6-2.4-1.2-4.2-4.8-3.4-8.3-4.6-8.6-10.7,7.3-14.1,23.9-2.2,28.6-2.7,3.5-2.5,3.8-2.9,5.8-6.8Z"></path>
    <path class="st7" d="M1346.4,621.2c5-1.8,8.5-.8,12.1-4.2.7-3.8.8-1.9-1-6,6.1-6.1,10-21.6,18.1-19.1,2.1,2.8,2.6,3.9,5.4,6l4.8-2.2c3.2,2-1.6,10.5,1,16,2.3-4.4,2.6-5.5,3.2-10.4l1.6-1.6-.3-.9c2.2,5.5,1,7-.3,13.4-4.3,5.8-6.3,8.2-8.7,15.2-.5-4.8-.5-7.6-2.3-11.9h-1.9c-2.5,6.1,5,10.1-5.1,14.8-2.2,1-2.5.3-4.5,1.6-8.6-10.2-9.2-9.8-22.1-10.7Z"></path>
    <path class="st3" d="M1391,612.2c4.1-2.9,3.4-3.5,7.1-3.1,1.5,6.9-.8,8.1.3,9,4.1-.5,5.4-.5,9.4-1.9l1.8.6c-8.9,7.4-22.1,19.6-24.5,31.2h-5.2c0,0,.4,2.6.4,2.6h-1.1c-3.5-4-5.6-12.7-2.4-17.5,4,0,2-.4,5.9,2.7-.3-2.5-.2-5.9-.3-8.5,2.3-7,4.4-9.4,8.7-15.2Z"></path>
    <path class="st5" d="M1391,612.2c4.1-2.9,3.4-3.5,7.1-3.1-3,8-9.3,21.1-15.6,26.8-.3-2.5-.2-5.9-.3-8.5,2.3-7,4.4-9.4,8.7-15.2Z"></path>
    <path class="st7" d="M1771.2,765.9c-.8-6.4-2-10.7,1.8-15.8,4.6,1.8,15.3,3.4,16.6,7.5,2.4,7.4,2,18.4-4.7,23.4-3.8.5-6.8,0-9.1-3.4,1.6-5,2.1-4,1-8.2-2-1.3-3.4-2.2-5.6-3.4Z"></path>
    <path class="st6" d="M1508.4,390.3c6.8-8.3.7-7,5.8-10.8,1.6,4.6.3,56.4-.6,63.8l-1.4,1.6c-1.4-.7-2.2-.9-3.4-1.9-.8-16.2-.4-36.2-.4-52.6Z"></path>
    <path class="st5" d="M1671.5,287.1c-3.1-1.2-7.7.3-8.6-4.2,6-3.8,23.4,0,30.5,1.8l13.4,5.2,8.8,4c-11.1.4-16.3-5.8-23.5-4.4l-13.4,3.3c-3.5-1.7-4.6-3.1-7.3-5.7Z"></path>
    <path class="st3" d="M1671.5,287.1c7.3.4,13.7.5,20.8,2.4l-13.4,3.3c-3.5-1.7-4.6-3.1-7.3-5.7Z"></path>
    <path class="st5" d="M299.6,670.8c8.8-14.3,28.4-9.6,43.1-8.8-12.1,2.5-31.5,7.1-43.1,8.8Z"></path>
    <path class="st6" d="M892.6,315c4.3-.8,7.7-1.2,12.1-1.6,5.6.4,8.7,0,13.4,3.1l-.6,1.6c-6.5,2.4-21,4-24.9-3.1Z"></path>
    <path class="st7" d="M1613.1,621.4c2.1-4.5,1.2-4.7,4.6-6.3l8.5,3.1.3,1.8c3.8.3,7.5.5,11.3.9-7.8,5.3-14.9.9-24.6.6Z"></path>
    <path class="st7" d="M1783.9,359.5c5-.4,8.5-1.3,12.9.8l2.3,2.7-.8,1.9c-4.8,1.1-4.8.2-10.3-1.5-1.2-3.5-.1-1.9-4.2-4Z"></path>
    <path class="st7" d="M1413.4,536.2c-5.1-.4-4.3.9-8-2.3,2.7-7.3,5.1-.3,9.4-13.2.9,7.1.2,8.5-1.4,15.5Z"></path>
    <path class="st7" d="M584.5,410.8c4.1,1.4,2.8.2,4.6,3.4-1.4,5.3-2.3,6.2-7.5,8-2.8-1.9-2-1-3.6-4l6.5-7.4Z"></path>
    <path class="st7" d="M549.2,498.3c5.3-3.5,5-4.5,10.2-4.6,2.7,2.6,1.8,1.1,2.3,4.9l-2,1.6-1.6-.9c-3.2-.8-5.7-.8-9-1Z"></path>
    <path class="st5" d="M1627.1,324.6c-2.6,2.5-2.8,2.2-6.4,3.1-1,2.3-.9,1.3-.8,3.1-3.4-.1-3.2,0-6.3-1.4l.2-1.4c5.5-2.8,7.1-2.6,13.3-3.4Z"></path>
    <path class="st6" d="M1617.7,615.1c2.7-2.2,3.2-3.1,6.6-3.3,2.7,3,1.7,1.2,1.8,6.4l-8.5-3.1Z"></path>
    <path class="st3" d="M1779.9,397.1c-2-1-3.9-2-5.9-3l.2-1.5,5.6-3v7.5Z"></path>
    <path class="st10" d="M1009.7,438.4c34.5,7.8,72.2,9.6,104,17,8.9,9.9,12.7,15.4,20.1,26.4l-6.8,9.4c2.7-.5,4.4-.9,7.1-1.2,2,2.3,1.8,2.1,2.5,5.1l3.4-1.9c7.1,3.3,24.1,31,29.4,39.1l12.1,17.6c11.8,17.1,30.1,45.7,42.2,61.3l18.9,27.9c-58.1-7-116.4-12.1-174.9-15.1-6-.3-38.5-1.1-41.1-3.6,1.4-2.6,1.4-2.6,3.5-4.7-4.3-2.3-6.1-1-8.7-3.7l.4-6.4h-1.2c-3,3.2-4.7,6.2-8.4,7.3-2.2-3-1.5-2.7-2-6.9-3-1.1-2.3-.5-4.6-2.4-2.1-25.3-.1-58.6.3-84.5.2-14.7.3-30.4,2.1-44.9l.3,1c1.3-3,1.4-9.3,1.7-12.8-.1-8-.3-16.1-.5-24.1Z"></path>
    <path class="st10" d="M1009.7,438.4c34.5,7.8,72.2,9.6,104,17,8.9,9.9,12.7,15.4,20.1,26.4l-6.8,9.4c-22.5,27-47.5,51.4-70.5,77.9-3.4,3.9-7,7.7-10.6,11.5l-8.3,8.7c-3.6,3.6-13,12.8-15.7,16.4h-1.2c-3,3.2-4.7,6.2-8.4,7.3-2.2-3-1.5-2.7-2-6.9-3-1.1-2.3-.5-4.6-2.4-2.1-25.3-.1-58.6.3-84.5.2-14.7.3-30.4,2.1-44.9l.3,1c1.3-3,1.4-9.3,1.7-12.8-.1-8-.3-16.1-.5-24.1Z"></path>
    <path class="st6" d="M1010.2,462.5c1,9.4.8,18.8.9,28.3.2,37.6-2.5,75.9-.7,113.5v1.8c-3-1.1-2.4-.5-4.6-2.4-2.1-25.3-.1-58.6.3-84.5.2-14.7.3-30.4,2.1-44.9l.3,1c1.3-3,1.4-9.3,1.7-12.8Z"></path>
    <path class="st0" d="M1010.4,604.3c2.6-2.6,4.4-5.1,7.9-5.9,2.6,3.3,1.8,2.5,2.4,7.3-3,3.2-4.7,6.2-8.4,7.2-2.2-3-1.5-2.7-2-6.9v-1.8Z"></path>
    <path class="st0" d="M1037.7,589.3c-1.1-3.8-3-8.9,0-12.2l3.8.4c1.9,2.8.8,1.5,4.6,3l-8.3,8.7Z"></path>
    <path class="st6" d="M1127,491.2c2.7-.5,4.4-.9,7.1-1.2,2,2.3,1.8,2.1,2.5,5.1-2.5,5-27.9,32.9-33,38.6-24.1,26.8-48.3,56.4-73.5,82.1-4.3-2.3-6.1-1-8.7-3.7l.4-6.4c2.7-3.5,12.2-12.7,15.7-16.4l8.3-8.7c3.6-3.8,7.1-7.6,10.6-11.5,23-26.5,48-50.9,70.5-77.9Z"></path>
    <path class="st0" d="M1169.5,532.3l12.1,17.6c-2.7,1.4-2.1,1.1-5,1.9-10.5-3.7-7.3-9.6-7.2-17.6v-1.9Z"></path>
    <path class="st10" d="M1126.1,323.3c5.4-1,9.6-2.5,14.6-.1,10,4.7,18.3,12.5,24.7,15.6l2.1-2.5c3.9,0,3.7.2,7.2,2.2h-.8c0,0,1.1.4,1.1.4,5.6,1.7,8.8,2.6,11.5,7.5-.6,4.2.1,2.3-2.6,5.8l9.9,8c2.7-.9,6.9-3.4,9.2-1.4,7.8,6.9,20.7,15.8,21.9,26.9-1.3,1.1-1.7,1.5-3.2,2.4,16.5,22.5,30.2,46.9,40.9,72.7-37.3-5.1-74.6-9.3-111.7-16.2-26.3-4.9-52.6-9.5-79.1-13.4-7.5-1.1-24.9-4.4-31.7-4.6l.2,1.7c2.9,1,1.5.6,4.3,1.3-3.6,1.7-10.3,5.6-13.5,3.6-8.6-5.2-13.3,1.8-21.9.2,2.4-2.7,2.1-2.1,5.6-3.5-7.5-3.2-7.1-2.5-7-10,0-.2.1-.5.2-.7,19.6-42.8,55.9-75.8,100.3-91.3l2.6-.2c4-1.8,10.9-3.3,15.4-4.4Z"></path>
    <path class="st6" d="M1007.5,419.9c10.9,3.7,22.2,3.8,32.4,6.7l.2,1.7c2.9,1,1.5.6,4.3,1.3-3.6,1.7-10.3,5.6-13.5,3.6-8.6-5.2-13.3,1.8-21.9.2,2.4-2.7,2.1-2.1,5.6-3.5-7.5-3.2-7.1-2.5-7-10Z"></path>
    <path class="st6" d="M1193.8,360.1c2.7-.9,6.9-3.4,9.2-1.4,7.8,6.9,20.7,15.8,21.9,26.9-1.3,1.1-1.7,1.5-3.2,2.4-9.7-11.2-17-18.2-27.9-27.9Z"></path>
    <path class="st6" d="M1165.3,338.7l2.1-2.5c3.9,0,3.7.2,7.2,2.2h-.8c0,0,1.1.4,1.1.4,5.6,1.7,8.8,2.6,11.5,7.5-.6,4.2.1,2.3-2.6,5.8l-18.5-13.4Z"></path>
    <path class="st0" d="M1126.1,323.3c5.4-1,9.6-2.5,14.6-.1-1.9,5.2-.6,3.9-4.6,6.4-4-.7-2.2-.2-5.9-3.5l-.2-1.8-3.8-.9Z"></path>
    <path class="st6" d="M1109.2,349.6l43,4.8c.2,11,1.2,47.4-1.2,56.2-2.8,2.3-1.2,1.6-5.2,2-10.1-8.9.4-31.7-7.1-43l-4.6-2.4c-3.2.9-3.6.4-6.9-.7-17.5,3.8-2.6,30-11.7,41.4-3.3-.3-1.7.2-4.5-2.6-.3-4.9-.8-7.1-1.3-11.3-1.5-13.5-.3-30.8-.4-44.6Z"></path>
    <path class="st3" d="M1127.1,366.6c3.3,1,3.7,1.6,6.9.7-4.7,8.2,2.5,33.5-3,42.3l-1.5-.6c-3.5-5.1-2.2-34.1-2.4-42.4Z"></path>
    <path class="st10" d="M1163.4,463.4c25.7,2.5,52.2,7.3,77.8,11.6-2.8-2.6-2.8-2.1-4.5-5.4,3.2-.7,10,.8,13.3,1.8,6.8,16.6,5.1,63.8,4.5,83.9,0,1.9-2.5,3.5-4,4.8-.4,23.2.6,46.6,0,69.2-1.7-2.5-6.7-10.8-8.7-12.2-5.8-11.2-18.9-29.6-26.3-40.5-21.1-30.8-42.9-61-65.3-90.8l-2.7-2.2,4.7-4.7c4.9-5.9,7.2-9.1,11.3-15.5Z"></path>
    <path class="st6" d="M1241.2,475c-2.8-2.6-2.8-2.1-4.5-5.4,3.2-.7,10,.8,13.3,1.8,6.8,16.6,5.1,63.8,4.5,83.9,0,1.9-2.5,3.5-4,4.8,0-22.8.9-59.8-1.1-81.6-2.3-3.2-2.9-2.3-8.1-3.5Z"></path>
    <path class="st0" d="M1147.4,483.6l4.7-4.7c5.1,1,4.3,0,7,3.1v2.2c-.1,0-3.3,2.6-3.3,2.6l-5.7-1-2.7-2.2Z"></path>
    <path class="st0" d="M1190.5,523.7l1.6,1.7c.3,3.8.1,2.6-3.1,6.5l-1.5-1.3c-.3-3.7.1-2.9,3.1-6.9Z"></path>
    <path class="st10" d="M1027.4,347.9c4.7,4.4,4.1,5.2,3.3,11.5-9.8,11.8-15.4,19.4-23.4,32.4-6.1,9.7-15.5,26-22.9,34.3-26.9,7.3-92.2,14.3-123.1,18.1-65.7,8-132.7,17.6-198.4,25.1l4.3,2.1-.4,1.4c-6.8,3.4-16.6,5.1-23.9,3.3-.5-1.2-1.2-2.5-1.6-3.8-15.4.5-38.2,4.4-53.6,6.8l2.1,2.1c-1.7,1.5-.7.9-3.4,1.4l4.6.6c-1.6,1.6-7.2,1.5-10.1,1.5-9.3.2-3.2-1.6-11.8-3.4-5,0-9.3.2-12.3-4.5l.8-2.1c9.5-7.1,62.5-11.1,76.8-12.9l145.7-18.2c9.9-1.2,37-3.8,46-6.3,4.8-.1,11.5-1.2,16.5-1.9l21.6-2.8c-3.5-.4-6.4-.2-9-2.4l1.3-1.2c8.7-1.1,15.8-.6,24.4,1.3,29.5-5.2,61.9-7.1,91.7-12.2,5.2-.2,5.1-1.2,8.4-4.4,1.2-6.5,39.6-59,46.5-66Z"></path>
    <path class="st6" d="M641.3,472.3c6.5-1.5,15-2.3,21.7-3.1l4.3,2.1-.4,1.4c-6.8,3.4-16.6,5.1-23.9,3.3-.5-1.2-1.2-2.5-1.6-3.8Z"></path>
    <path class="st7" d="M569,481.5l18.6-2.3,2.1,2.1c-1.7,1.5-.7.9-3.4,1.4l4.6.6c-1.6,1.6-7.2,1.5-10.1,1.5-9.3.2-3.2-1.6-11.8-3.4Z"></path>
    <path class="st7" d="M864.1,432.8c-3.5-.4-6.4-.2-9-2.4l1.3-1.2c8.7-1.1,15.8-.6,24.4,1.3l-16.7,2.3Z"></path>
    <path class="st0" d="M932.5,428c3.6,0,3.9,0,7.4.6l.9,2.1c-4.3.7-4.4,1.4-8,.1l-.4-2.8Z"></path>
    <path class="st5" d="M916.2,328.7c53.8-7.6,110.3-20.2,164.5-27.5,20.6-2.8,52.1-9.4,72-9.7,30.9,20.7,74,52.4,99.9,78.6,7.8,7.9,52.6,104.5,49.6,109.7l-5.7,2.3c-3.9-2.5-8.8-21.2-10.8-27-7.2-20.6-15.8-40.7-24.8-60.6-7.2-16-20.7-24.4-32.6-35.8l-3.7-2.3-6.4-5.5c-25-16.7-44.1-34.4-71.7-51.3-12.8,3.1-25.3,6.8-38,10.5l-10.5,3.9c-28.5,12-46,22.1-67.3,45.2.8-6.3,1.4-7.1-3.3-11.5,7.1-7.9,15.3-14.6,23.7-20.9-3.2-.5-7.7-1.3-10.1-3.3l4.4-.9-.7-1.4c-2.7-.5-3.9-.8-6.6-.8h-2c0,0-.1-1.7-.1-1.7l2.9-3.4c-14,2.8-192.2,31-197.8,29.7,5.4-4.7,43.1-10.4,53.6-12.6l.5-2.4c-3.4-3.4-14.8-1.3-18-5.5l1.7-1.3c5.1-.2,12.1.7,16.7,3.1,6.3,3.3,13.3,1.7,20.6,2.3Z"></path>
    <path class="st7" d="M1038.9,315.4c18.3-3.2,35.8-6.2,54-10.2-17.9,7.4-25.8,11.6-41.8,21.8-3.2-.5-7.7-1.3-10.1-3.3l4.4-.9-.7-1.4c-2.7-.5-3.9-.8-6.6-.8h-2c0,0-.1-1.7-.1-1.7l2.9-3.4Z"></path>
    <path class="st10" d="M1098,314.2c-10.2-3.8-2.4-3-7-10.1l.9-1.3c4-1.1,25.6-2.8,29.1-2.4-6.1,5.6-10.2,1.8-12.5,9.9l-10.5,3.9Z"></path>
    <path class="st7" d="M894.8,332.5l.5-2.4c-3.4-3.4-14.8-1.3-18-5.5l1.7-1.3c5.1-.2,12.1.7,16.7,3.1,6.3,3.3,13.3,1.7,20.6,2.3-7.1,1.4-14.3,2.7-21.4,3.8Z"></path>
    <path class="st10" d="M994.7,439.4l1.1.7c2.2,5,1.3,160.4,1.3,180.6h-18.6c0,.1-.9-.7-.9-.7-3.8-12.7-1.9-155.9-.1-174.7,5.1-1.1,12.1-4,17.2-5.8Z"></path>
    <path class="st5" d="M910.7,575.2c7-3.5,30.9-9,36.3-1.9l-.6,2-1-.3c-12.3,5-54.8,7.6-69.3,9.1-39,4.1-79.6,6.1-118.5,10.3,1,2.1,1.2,2.3,1.9,4.5-11.3.3-18.4,1-29,4.9-4.7,1.7-3.9-5.2-10.7-.8v-1c-.1,0,6.5-5.4,6.5-5.4-46.8,3.1-99.3,9.9-145.8,8.5,29.5-6.6,71.7-9.7,102.5-12.6,54.5-4.9,109-9.5,163.5-13.9,14.2-1.1,54.6-1.9,64.2-3.7Z"></path>
    <path class="st6" d="M726.4,596.7c9.2-1.1,21.8-1.7,31.3-2.4,1,2.1,1.2,2.3,1.9,4.5-11.3.3-18.4,1-29,4.9-4.7,1.7-3.9-5.2-10.7-.8v-1c-.1,0,6.5-5.4,6.5-5.4Z"></path>
    <path class="st7" d="M910.7,575.2c7-3.5,30.9-9,36.3-1.9l-.6,2-1-.3c-11.8.2-22.9.6-34.7.3Z"></path>
    <path class="st5" d="M590.3,581.1c-2.2-.2-3.5-.6-5.7-1v-.9c7.1-2,24.5-2.9,32.7-3.7l70.7-7.6c51.5-5.2,103.1-10.1,154.7-14.6,30.5-2.7,76.6-9.3,105.5-5.1-14.8,4.9-69.8,9.3-87.8,11.1l-8.5.8c-55.5,6.5-119.5,11.8-175.5,16.3-14.4,1.2-28.9,2-43.3,2.7-6.7.3-20.5.5-26.3,1.7-3.8,3.6-8.6,6-13.7,5.2-.9-2.4-1.3-2.8-2.8-4.9Z"></path>
    <path class="st7" d="M590.3,581.1c5.4-.1,11.1-.4,16.5-.4-3.8,3.6-8.6,6-13.7,5.2-.9-2.4-1.3-2.8-2.8-4.9Z"></path>
    <path class="st10" d="M1262,631.1c.5-19.5-2.3-141,1.1-150.6,3.4-3.4,1.4-2.4,5.9-3.3,4.4,1.8,7.7,4.2,7.3,9.7-1.8,32.2.3,65.1-1.1,97.3.7,10.6,2.3,50.9-.8,59.3-9.4,3.6-12.8-3.9-12.4-12.3Z"></path>
    <path class="st0" d="M1275.2,584.1c.7,10.6,2.3,50.9-.8,59.3-9.4,3.6-12.8-3.9-12.4-12.3,2.7,4.3,2.8,4.4,7.5,4.4,7.1-6.6,4.2-40,5.7-51.5Z"></path>
    <path class="st5" d="M934.3,523.1v.2c-8.8,6.8-310.5,32-346.5,33v-.6c25.9-9,106.9-14.1,136.6-16.5,64.4-5.1,145.8-16.7,209.9-16.1Z"></path>
    <path class="st5" d="M779.7,610.9l84-6.7c22.1-1.6,56.3-4.2,78.2-1.4-16.8,2.4-33.8,4.3-50.7,5.4-15.5,1-86.4,3-95.2,6.3-2.3,2.5-4.4,4.9-7.9,4.8-9-.3-18-1.6-27-2.2-12.4,0-35.5,2.6-48.7,3.6-26.2,2.2-52.5,3.8-78.8,4.9-10.5.5-30.9,1.7-40.8.3,6.2-5.4,124.5-10.8,141.8-11.9l-9.7-.5c8.6-4.7,43.5-5.2,54.9-2.7Z"></path>
    <path class="st7" d="M734.5,614l-9.7-.5c8.6-4.7,43.5-5.2,54.9-2.7-15,1.1-30.2,2.3-45.2,3.2Z"></path>
    <path class="st7" d="M761,617.1c8.3-1.4,26.7-2.5,34.9-2.6-2.3,2.5-4.4,4.9-7.9,4.8-9-.3-18-1.6-27-2.2Z"></path>
    <path class="st10" d="M815.2,475.3c13.9-2.5,8.8,34.6,8.4,43.4-6.4.4-12.8.9-19.2,1.4-4.8.2-4.2.9-7.4-1.2-4.3-8.4-2.3-31.2-2-42.4l20.3-1.2Z"></path>
    <path class="st10" d="M671.6,486.6h22.7c.3,11.7,2.8,28.1.4,39.7-.7,3.2-1.9,3.2-4.4,4.6-8.5,1.1-13.3,1.5-21.8,1.7-2.5-12.4-5.3-35.7,3.1-46Z"></path>
    <path class="st10" d="M1823.9,483.1l29.4.2c0,6.7,1.4,32.1-1.6,36.2l-1.6.6c1.8.7,1.8,1,3.4,2.3l-.8,2.5c-4.6,1.5-25,2.1-28.5-3.5l1.6-1.5c-3.3-3.5-1.9-30.3-1.9-36.9Z"></path>
    <path class="st7" d="M1825.7,519.9c8.6-.3,15.8-.7,24.3.2,1.8.7,1.8,1,3.4,2.3l-.8,2.5c-4.6,1.5-25,2.1-28.5-3.5l1.6-1.5Z"></path>
    <path class="st5" d="M764,350.3c1.8-1.2,3.5-2.4,5.3-3.7l-1.8-2.7,1.8,2.1c-2-1.2-1.5-.4-2.2-1.9,3.5-2,29,.7,33.7,1.5,6.1,1.3,11.5,1.5,17.7,2-30.6,9.2-74.9,14-107.1,19.9-12.9,2.3-47.8,8.2-58.8,8.4,12.2-4.2,22.8-7.2,35.2-10.7,2.4-.2,11.4-2.7,14.2-3.4,18.1-4,46-7,62.1-11.5Z"></path>
    <path class="st7" d="M764,350.3c1.8-1.2,3.5-2.4,5.3-3.7l-1.8-2.7,1.8,2.1c-2-1.2-1.5-.4-2.2-1.9,3.5-2,29,.7,33.7,1.5-11.1,1.6-25.9,4.1-36.8,4.7Z"></path>
    <path class="st10" d="M1835.3,630.1h9.8c2.5,0,4.7.3,7.1.5,2.3,3.8,1.8,31.6-1.6,35.1-6.4,1.4-18.6.8-25.7.7,0-10.9-1.1-24.5-.3-35,3.2-1.9,6.8-1.3,10.7-1.3Z"></path>
    <path class="st10" d="M1823.6,434.7h29.6c0,.1,0,35.2,0,35.2-9.4,0-19.9-.6-29.4-.8-.4-11.4-.2-22.9-.2-34.3Z"></path>
    <path class="st10" d="M1822.8,385.2l30.2.4v35.3c-10.7-1.9-18.5-1.5-29.4-1.5,0-11.7.4-22.5-.8-34.2Z"></path>
    <path class="st10" d="M1824.1,534h28.2s0,33.9,0,33.9c-8.6.5-18.7.3-27.4.4l-.7-34.2Z"></path>
    <path class="st10" d="M1824,681.3c9.4.1,18.9.2,28.3,0l.2,32.7-28.5.9v-33.6Z"></path>
    <path class="st10" d="M1824.2,583.1h28s0,33.2,0,33.2h-27.6c-.2-11-.4-22.1-.4-33.2Z"></path>
    <path class="st10" d="M1829,729.6c7.7-.3,15.5-.4,23.2-.4l-.2,16.9v13.7c-6.3,0-16.2-.2-22.3.4l-3.5.5c-1.2-.7-.4-.1-2-2.2-.4-7-2.1-23.9,1.5-29h3.3Z"></path>
    <path class="st5" d="M1829,729.6c7.7-.3,15.5-.4,23.2-.4l-.2,16.9c-5.9-15.1-8.5-13.5-23-16.5Z"></path>
    <path class="st10" d="M832.1,306.5c7,0,15.4.6,22.5,1,.3,9.9,2.6,16-5.6,22.5l-17.1,5.8.3-29.2Z"></path>
    <path class="st0" d="M842.8,321l2.2,1c1.8,3.1,1,3,.2,7.6l-2.2-1c-1.7-3.2-.9-3.1-.2-7.6Z"></path>
    <path class="st0" d="M1829.1,768.8c7,.3,14.8.3,21.8.4v15.5c-9.5-2.7-26.3-5.6-30.1-15.4l8.2-.5Z"></path>
    <path class="st6" d="M1835.3,630.1c-4.5-2.9-10-3.8-13-6.5,1-3,.1-1.8,3.3-3.5,9,1.5,12.3-3.6,19-2.2,2.9,3.4,1.9,1.5,2.5,6.3-.6,1.6-1.8,4.2-2.1,5.8h-9.8Z"></path>
    <path class="st6" d="M1837.5,422.7l7.7-.6c4.5,1.6,5.8,3,5.5,7.6-1.9,2.1-1.8,2-4.5,2.9l-1.6-.8c-.3-2.9-.2-4.6-1.4-7.2-2.6.6-3,2-5.2,4.5.4,1.9.3.8-.2,3.3l-3.4.9c-4.6-.8-9.7-4.1-9.3-9.2,3.6-2.2,7.4.2,12.3-1.5Z"></path>
    <path class="st0" d="M1638.6,415.3c4.3,1.5,7.7,3.3,9.7,7.2-1.2,4.6-1.6,3.6-6.4,7.4-.8.4-2.2.6-3.2.7-8-4.4-4.2-10-.2-15.3Z"></path>
    <path class="st6" d="M1826.2,760.8l3.5-.5c1.2.1,17.5,1.3,17.1,1.2v2.1c-8.8,6.2-9.5,1.6-17.6,4.5v.8s-8.3.5-8.3.5l1.2-4.9c2-2.1,2.6-2.2,5.3-3l-1.2-.6Z"></path>
    <path class="st6" d="M826.1,437.5l-1.1-1.1c-3.2,0-5.4.3-8.3-1.2,9.2-2.3,22-7,31.3-4.6l-5.5,5c-4.9.6-11.6,1.7-16.5,1.9Z"></path>
    <path class="st7" d="M1154.7,454.6c3.5,0,2.3-.3,5.4,1.1-1.3,2.1-8.6,6.4-12.1,10.7-2.6-.8-2.1-.8-4.4-2.3l-.2-2.1c3.2-3.8,6.8-5.1,11.3-7.4Z"></path>
    <path class="st7" d="M852,560.1l8.5-.8c6.6,0,7.7-.3,13.8,1.8l-.9,1.4c-6.7,2.2-16.3,3.3-21.4-2.4Z"></path>
    <path class="st6" d="M1304.5,635.7c5.5-.7,11.5-2.2,16.1.1-.2,1.7-.4,1.7-1.1,3.3-5.6.4-12.2,1.4-17.3-1.1l-.2-1.5,2.5-.9Z"></path>
    <path class="st6" d="M302,674.4h2.7c0,0,.6,1.6.6,1.6-1.5,3.7-6.8,6.3-10.5,4.2-4.5-1.2-4.1.4-8.3-2,3.2-1.8,10-2.1,14.4-3.4l1.1-.3Z"></path>
    <path class="st5" d="M1595.7,378.3c9.3-.3,8.4-1,12.6,6.5l-7.1.5c-4.2-2.3-2.9-1.8-5.5-7Z"></path>
    <path class="st7" d="M1224.7,356.4l3.7,2.3c-.6,3.1-.3,3.4-2.1,5.9l-3.5-.2c-3.8-2.7-2.4-1-4.2-5.3l.9-2.1,5.2-.6Z"></path>
    <path class="st7" d="M778.1,546.2l1.8.7.5,2.4c-2.4,3.4-.8,2.2-5.3,3.2-4.7-1.7-3.8-.3-5.4-3.3,2.2-2.1,5.2-2.3,8.4-3Z"></path>
    <path class="st6" d="M517.2,663.6c4.2-.2,9.5-.8,13.3.5l-1.2,1.7c-5,.8-9.7,2.5-13.4.3l1.3-2.5Z"></path>
    <path class="st7" d="M807.1,298.5l4.7,2,.7,1.8-3.5,4.7c-3.3-1.1-3.1-1-5.8-3.2.5-3.8-.1-1.9,3.9-5.3Z"></path>
    <path class="st7" d="M1120.3,284c4.5-.2,8.9-.6,13.3.5l-1.6,1.5c-4.3,1.3-7.1,2.5-11.6,2l-1.2-1.7,1-2.4Z"></path>
    <path class="st6" d="M1218.3,350.9c-.6,5.2-1.6,7.4-5.7,10-1.3-3.8-1.4-3.6-1.1-7.6,2.7-2.6,2.3-1.8,6.8-2.4Z"></path>
    <path class="st7" d="M723.6,626c5.1-.7,9.1-1.4,13.3,1.3-5.9,3.8-8.6,3.6-13.3-1.3Z"></path>
    <path class="st6" d="M1843.1,668c3.6.4,7.2.9,10.8.9v2.1c-4.5,2.6-6.1,3.6-10.3.8l-.5-3.9Z"></path>
    <path class="st7" d="M856,542.2c4.2-.2,6-.5,10,.9l1.3,3.1c-6.8.6-8.4,2-11.3-4Z"></path>
    <path class="st6" d="M1816.5,713.1c5.6,2.1,5.4,2.5,6.8,7.8l-5.4-1.6c-2.4-3.1-1.5-1.3-1.4-6.2Z"></path>
    <path class="st7" d="M1157.7,449.3c3.4,0,6.8-.6,9.5,1.1v1.7c-4.9.4-6.2,1.3-10-.4l.5-2.4Z"></path>
    <path class="st6" d="M1617.1,592.3c4.3.5,3.1-.3,6.2,2l-.3,3.4c-3.3-.4-4.5,0-7-1.7l1.1-3.7Z"></path>
    <path class="st7" d="M1257.2,399.8c2.5,1.1,1.7.5,3.6,2.5l-1.1,2.9-2.4.8-1.2-1.1,1.1-5Z"></path>
    <path class="st6" d="M1168,1034.1c56.9,1.4,148.7-7,200.3,11.1,19.5,7,37.5,17.9,52.5,32.2,45.8,42.5,62.6,107.9,50.2,168.3-6.9,33.9-22.8,60.8-46.3,85.9l-1.5,1.5c-51.4,51.6-100.8,48.5-166.1,47.6-29.7-.3-59.5-.4-89.3-.3v-346.3Z"></path>
    <path class="st5" d="M1210,1069.4l60.6.6c50.4.3,88.4,1.2,126.2,39.7,53.5,54.6,48.5,147.9-5.8,200-18.6,17.8-38.5,24.8-63.1,30.9l-.8,1.8c-7.2,2-19.8,5.8-26.4.8-26,1.8-64.6.7-91.7.8l-.2-.4c-4.4-6.2-.8-23.6,1.1-30.9v-243.4Z"></path>
    <path class="st7" d="M1300.7,1343.3c9.1-.6,18.1-1.8,27.2-2.7l-.8,1.8c-7.2,2-19.8,5.8-26.4.8Z"></path>
    <path class="st7" d="M1209.1,1344l-.2-.4c-4.4-6.2-.8-23.6,1.1-30.9.1,9.3.8,22.5-.9,31.2Z"></path>
    <path class="st6" d="M1215.1,1074.5c49.5,2.4,109.4-7.6,152.8,18.9,28.8,17.8,49.3,46.5,56.9,79.5,8.9,37.6,2.3,77.2-18.5,109.8l-8.1,11.2c-47.2,55.7-117,45.3-183,45.4v-264.7Z"></path>
    <path class="st10" d="M1256.2,1112c31.5-.4,71.5-3.8,97,17.7,44,37.1,40.7,104.7,7.4,146.8-34.4,29.1-61.3,25.4-104.3,24.9-.6-63.1-.6-126.3-.2-189.4Z"></path>
    <path class="st7" d="M1412.2,1334.1c2.8,0,1.6-.5,3.8.9-1,3.3-4.1,5.1-6.9,7.4-1.3-.2-.6,0-1.9-1.5,1.1-3.7,2.1-3.9,5-6.9Z"></path>
    <path class="st7" d="M1419.7,1126.4l2.6,1.3c1.6,3.8,1.2,1.7-.5,6.9-1.6-.8-1.1-.3-2.2-1.7-1.3-1.6-.2-4.5,0-6.5Z"></path>
    <path class="st6" d="M1620.8,845.8c7.9-44.9,26.9-152.5,94.2-151,8.8.2,17.3,6,22.9,12.8,2.6,2.6,2.5,2.6,4.3,5.9,13,28.3,3,56.2-13.1,80.7-3,4.5-13.9,16.2-15.1,19.5-5.8,13.5-15.7,16.3-23.8,28.5,6.2-1.8,25.4-7.1,30.8-3.1,28.9,3.6,28.3,14.2,23.9,40.4-2.8,16.7-9,33.5-12.9,50.1-14.7,62.4,19.6,26.3,33.7,30.6,2.8,3.1,3.8,8.1,3.5,12-2.7,34.9-89,34.3-82-8.8,2.5-15.4,21.5-77.8,16.9-87-15.7-7.2-51.5,26.4-56.2,42.4-4.8,16-9.2,32-12.2,48.6-4.4,30.4-15.1,34.5-44.6,21.4-21.9,7.1-44.2,12.8-66.6,3.9-11.8-4.7-13.3-21.6-25.4-10.5l-2.4,1.8c-16.9,13.6-48.2,18.8-66.4,5.4-5.3-2.8-6.4-4.2-10.9-8.3-50.9,34.8-101.8,16.5-87.8-50.8.8-3.9,1.7-7.8,2.7-11.7-6.4.6-13.9,1.4-20.2,1.7-10.4,30.2-16.7,54-48.2,69.6-17.8,8.7-38.3,9.9-57,3.3-2.6-.9-4.8-1.7-7.2-3.1-6.2-2.2-11.2-6.7-15.9-11.2-46-46.7.2-150,80.2-134.5,6.6,1.4,8.8,2.4,14.8,5.1,6.4,4.1,13,8.7,17.6,14.8,4.8,6.6,7.8,12,10.1,19.9,2.8,9.7,4.1,17.8,5.7,27.7,6.3-.7,16-1.5,21.9-2.7,2-9.6,3.5-19.4,5.5-29,2.2-10.9,3.8-26.1,12.6-33.7,2.8-2.4,13-3.8,16.8-2.7,3.5,1,5.6,2.1,7.8,6,13.3,23.2-34.3,105-4.6,116.7,4.8,1.9,17.7-.6,23-4.5,6.8-5.1,8.9-8.4,13-16.2,1.8-5.5,2.9-10.8,4.2-16.4,2.9-16.3,5.4-32.7,8.9-48.8,2.2-10.2,5.8-28.7,15.5-34.2,4.6-2.6,16.5-3.3,21.5-1.4,22.1,8.6-21.4,91.1-7.2,115,2.5,4.2,6.5,6.7,11.2,7.6,8.1,1.5,16.8-3.3,23.1-8,21.8-16.4,25.8-57.5,29.7-82.5-14.4-9.1-22.3-24.2-2.1-32.7,4.3-.3,7.7,0,11-2.5,3.3-4.6,4.2-14.2,5.7-20.4,1.4-9.6,8.3-89.7,42.2-60.3,10,8.7-8.2,67.6-11.4,84.6h58.2Z"></path>
    <path class="st5" d="M1673,856.5c10.8-13.2,28.5-30.8,41.1-42.7-5.8,13.5-15.7,16.3-23.8,28.5,6.2-1.8,25.4-7.1,30.8-3.1-21.7,1.4-30.2,5.8-48.1,17.4Z"></path>
    <path class="st7" d="M1515.1,844.5c4.3-.3,7.7,0,11-2.5,3.3-4.6,4.2-14.2,5.7-20.4.5,7.3,2.4,17.7-1.4,23.5-3.4,2.2-4.8,1.6-8.8,1.3l2.6-.6c-3.4-.6-5.6-1-9.1-1.3Z"></path>
    <path class="st8" d="M1496.9,984.1c-1.8-2.5-4.3-4-6.9-5.9,3.5-3.6,1.6-2.7,5.6-3.8,3.1,3.1,2.3,3,3.7,7.8l-2.4,1.8Z"></path>
    <path class="st7" d="M1430.5,989.5l.3-5.9,1.4-.8,5.1,2,1,3.1-1.1,1.3-6.6.2Z"></path>
    <path class="st10" d="M1556,874.1c17.8-.4,41.9-.3,59.4.9-5.6,26.9-6.5,62.7-25.1,81.6-31,22.7-57.4,13-47.7-27.1,4.5-18.6,8.5-36.7,13.4-55.3Z"></path>
    <path class="st10" d="M1276.1,925.4c-4.1,12-7.2,19.5-15.9,29.3-10.9,13.1-34.5,15.1-46.3,2.4-17.8-19.1-9.6-54.2,8.7-70.2,9.7-8.5,16.4-10.8,28.7-10.4,7.7,1,9.7,1,16.7,4.5,8.4,16.3-11.4,22.6,8.2,44.4Z"></path>
    <path class="st0" d="M1251.3,876.5c7.7,1,9.7,1,16.7,4.5l-5.3.3c-2.6,3.4-2.3,3.2-6.2,4.8l-1.2-1.1.7-5.9-4.7-2.6Z"></path>
    <path class="st10" d="M1704.7,725.6c5,0,6.9-.6,11,1.8,3.7,4.3,3.9,8.6,3.6,14.2-1.6,30.1-29.1,56.5-49.4,75.7l-10.8,10.8c2.9-13.2,5.9-26.5,9.1-39.6,6.2-25.1,13.2-48.9,36.4-63Z"></path>
    <path class="st7" d="M1302.9,890.1c-1.4.5-2.8.6-4.3.9-5.5-2.8-6.8-9.4-5.5-15l1.8-1.1,2.7,1.5c.9,5.9,2.6,8.4,5.2,13.7Z"></path>
    <path class="st8" d="M1673.5,743.5c3,.8,2.2.3,4.3,2.3-.3,3.3-3.6,6-6.2,9.1-.4.8,0,.4-1.3.8.5-5.8,1-6.6,3.2-12.2Z"></path>
    <path class="st8" d="M1560.9,818.9l3.1,2.2c1.1,3.8.3,5.2-.9,9l-1.3-.5c-2-3.1-1.1-6.8-.8-10.7Z"></path>
    <path class="st6" d="M871.5,1034.5c21.5-1.3,39.7,0,60.9-.4,57.8-1.3,115.6-1.5,173.4-.7-.2,25.8-.3,51.5-.2,77.3l-150.1-.3c0,18.6-.2,37.5,0,56.1,40.9-.4,81.8-.4,122.7,0,.5,26.8.6,53.7.4,80.5-41.4-.6-82.8-1-124.2-1,0,18.2-.1,36.8,0,55,22.9,1.5,52.4.9,75.6.8,25-.1,52.9.4,77.5-.7l.3,79.6-238.4-.2v-15.5c-.7-76.7-1-153.3-.9-230v-65.5c.1-9-.4-25.5.6-33.8l2.3-1.1Z"></path>
    <path class="st5" d="M909.1,1069.3c16.6.1,147.9-1.9,154.8,2.1-12,6.4-128.1,2.8-149.4,2.5.4,43.6.4,87.2,0,130.7,18.3,0,111-2.4,121.9,2.4l-.8,1.3c-17.9,5.3-84,2.1-107.3,2.5-5.7,4.1-5.3-1-10.5,3.6-1,9.2-.2,23.6,0,33.1l.3,52.8c.1,10.5.9,28.4,0,38.3,20.3-2.1,133.9-2.5,149.1,2.5l-1.7,1.3-.3-1.6-.9,1.8c-19.7,1.9-43.2,1.1-63.3,1l-92.3-.3c-.5-91.4-.4-182.8.3-274.2Z"></path>
    <path class="st7" d="M914.4,1210.3l14,.6c-5.7,4.1-5.3-1-10.5,3.6-1,9.2-.2,23.6,0,33.1l.3,52.8c.1,10.5.9,28.4,0,38.3l-2.6-.5c-2.2-3.6-1.3-113.1-1.2-128Z"></path>
    <path class="st8" d="M925.4,1077.3c2.1,1.1,1.5.5,2.9,2.1,1.5,1.7.7,3.3.5,5.5l-3.6-.9c-1.7-3.5-1.1-1.7.2-6.7Z"></path>
    <path class="st6" d="M576.5,1033.5c75.7-1.6,151.2.6,226.9.5-1.2,25.6-.8,52-.7,77.7-47.7-1.8-98.6-1.4-146.4-1,1,17,.5,38.6.5,55.9h123.6c.3,26.6,0,53.6,0,80.3-13.4-1.4-33.8-.6-47.7-.7-25.3-.1-50.7-.2-76,1.2v17.9c.1,0,0,35.2,0,35.2l148.6-.3c-.4,26.7-.3,53.4.2,80.2l-234.2,1.1c-2.3-29.5-1.6-339.1,1.4-345.8.8-1.7,2.1-1.6,3.7-2.1Z"></path>
    <path class="st5" d="M610.7,1068.7c20.4.2,141.9-2.4,151.2,2.5-9.4,5.5-43.6,3.1-56,3.1h-90.4c.8,42.8.2,87.7.3,130.8,13.5-.3,122.1-1.7,126.5,1l-.9,1.8c-4.8,3.1-7.4,2.7-13.2,2.9l-1.5,1.5c-16.3,1.2-59.2,2.9-74.7,0l-.9-2c-11.4-.3-23.9-.9-35.3-.6-.4,43.2-.4,86.5,0,129.8,27.9,0,55.8-.2,83.7-.6,6.5-4.4,54.3,2.8,64.9-4.6,4.5.7,2.6-.2,6,2.6,1.2,14.7-22.5,8-32.1,9.2-8.7,1.1-20,.2-29,.9-26.3-3.4-75.2,3.8-98.7-2.1.5-29.3-.7-59-.7-88.3l.8-187.7Z"></path>
    <path class="st7" d="M699.5,1338.7c6.5-4.4,54.3,2.8,64.9-4.6,4.5.7,2.6-.2,6,2.6,1.2,14.7-22.5,8-32.1,9.2-8.7,1.1-20,.2-29,.9-26.3-3.4-75.2,3.8-98.7-2.1,23.5-4.6,145.1,3.1,154-2.9-7.2-5-52.9-3.1-65.1-3.1Z"></path>
    <path class="st7" d="M651.1,1210.2c16.8.2,33.5.3,50.3.3,5.8,0,22-.4,26.8.3l-1.5,1.5c-16.3,1.2-59.2,2.9-74.7,0l-.9-2Z"></path>
    <path class="st6" d="M1598.4,1035.5c41.1-13.7,84.5-7.1,122.8,11.8,21.8,10.8,32.1,20,49.8,35.3-9,8-46,43.4-53,52.2-2.2,2.2-2.1,2.5-4.9,3.6-4.5-.6-8.1-4.9-11.6-8.2-23.6-16.9-68.2-44.8-95.4-11.7-10.5,12.8,7.4,27.5,17.8,31.9,35.1,19.1,82,21.4,112.6,48.1,4.5,2.8,4.9,3.2,8.6,7.2,12.9,11.2,19.4,24,24.8,40,5.1-3.4,3.9-6.5,7.8-8.5,1,1.9-2.7,42.3-2.1,49.7l-2.5,4.1c-.7,4.1-1.4,9.1-2.4,13.1l-1.3,6.7c-22.6,63.1-79.9,80.2-142.2,76.6-50.7-3-102.9-30-129-74.5,16.9-18.8,38.6-37,58.6-52.5,17.8,14.4,30.5,32.3,52.4,43.3,19.3,9.7,36.5,10.4,57.1,3.6,8.4-2.8,19.2-7.5,23-16.1,1.8-4.1,1.8-8.7,0-12.8-7.9-17.1-50.5-31-67.6-36.7-43.5-14.6-92.2-36.4-102.8-86-4.5-20.7-1.3-37.1,5.6-56.5.4-7.5-1.1-21.5,6.5-24.5l.7.8-1.1,3.2c6.3,0,.2-2.4,7.4-3.1,19.2-21.3,28.5-27.7,55.3-38.9l5.1-1.2Z"></path>
    <path class="st8" d="M1769.4,1310.7c-1.8,1.4-3.4,2.6-5.2,3.9l-.7-.7c-.2-6.4,3-41.9,4.4-48.4v1.3c1.8,1.8,2.7,32.3,2.9,37.3l-1.3,6.7Z"></path>
    <path class="st0" d="M1769.9,1245.7c5.1-3.4,3.9-6.5,7.8-8.5,1,1.9-2.7,42.3-2.1,49.7l-2.5,4.1c.4-18.8.2-26.8-3.2-45.2Z"></path>
    <path class="st7" d="M1745.1,1205.7c-1.2,2.1-.4,1.1-2.6,2.8-6.9-1.6-16.5-5.8-20.3-12l1.3-1.2c5.5.7,7.7,1.5,13,3.2,4.5,2.8,4.9,3.2,8.6,7.2Z"></path>
    <path class="st0" d="M1524.4,1099.2c.4-7.5-1.1-21.5,6.5-24.5l.7.8-1.1,3.2c6.3,0,.2-2.4,7.4-3.1-4.6,7.4-10.4,15.6-13.6,23.6Z"></path>
    <path class="st5" d="M1563,1328c-4.3-3.4-10.8-8.7-12.2-14.2l.9-1c7.9,3.7,17,12,24.6,16.8,41.9,26.8,125.6,28.4,149.6-23.4,21.1-45.6-17.1-74.2-53.4-89-34.7-14.2-97.1-28.1-111.5-64.1-5.6-14.4-5.2-30.5,1.3-44.6,8.5-18.7,26.6-32,45.5-38.7,41.7-14.9,86.8-.4,118.6,28.2l-1.9-.6c-14.1-4.8-26.8-12.7-40.5-18.8-34.3-15.1-70.9-12.5-100.2,11.7-18.5,15.3-27.9,43.9-14.8,65.2,35.6,58,139.1,38.9,164.7,107.4,3.4,9.6,3,25.9,0,35.9-5.4,18-18,33.1-34.8,41.6-32.3,16.5-67.5,16.6-101.5,5.3-11.9-3.9-23.2-9.5-33.6-16.6l-.8-1.2Z"></path>
    <path class="st7" d="M1563.8,1329.2c.3,3.7,1.3,4.3,2.6,7.6l-1.4.6c-4.2-1.7-8.1-3.2-9.1-7.9,2.7-2,2.8-1.3,7-1.4l.8,1.2Z"></path>
    <path class="st7" d="M1621.8,1204c5.1,0,12.6.1,16.3,3.9-8,2.1-10.8,2.9-16.3-3.9Z"></path>
    <path class="st7" d="M1696.1,1089.6c6.9.8,8.7,1.7,12.7,7.5-7.9-.3-8.1-1.1-12.7-7.5Z"></path>
    <path class="st7" d="M1708.6,1313.2c6.1,2.2,6.5,1.5,7.1,7.8-4.7-1.8-6.1-2.9-7.1-7.8Z"></path>
    <path class="st6" d="M307.6,1033.6c65.4-1,132.9-.3,198.4-.5v78.8c-51-1.1-102-1.5-153-1.2l.2,59c42.3-.6,84.6-.6,126.9.2v82.2c.1,0-14.7,0-14.7,0h-112.5s-.3,127.9-.3,127.9l-85.7.3c.1-115.6-1.6-230.8,0-346.3l40.7-.4Z"></path>
    <path class="st5" d="M306.4,1297c-7.7-25.7-.3-103.1-2.6-132.3-.7-9.7-.7-91.6.6-95.1l1.7-.6c34.6,1.4,69.8-.1,104.5.4,15,.2,42.7-3.5,56.1,2.9v.4c-9,4.6-133.6,1.6-154.5,1.7l.7,134,83.8-.5c10.2,0,36.7-2.8,43.4,3.2l-.7,1.8c-8.3,3.2-112.3,1.7-126.5,1.3,0,15.9,1.5,122-1.7,129.6l-2.2.5c-4.1-5.1-2.6-38-2.6-47.3Z"></path>
    <path class="st7" d="M306.4,1297c-7.7-25.7-.3-103.1-2.6-132.3-.7-9.7-.7-91.6.6-95.1l1.7-.6c2.1,13.7.7,62.5.6,79.5-.2,49,1,99.7-.3,148.6Z"></path>
    <path class="st6" d="M544,762.1c13-20.5,35.9-59.3,53.9-74,35.2,5.9,21.7,27,13.8,52.6-1.6,6.4-3.8,14.2-5.1,20.5l-3.6,18.4-2.2,9.6c-10.4,57.5-24.9,120-36.9,177.7,25.2,31.6-21.5,39.7-38.5,12.4,1.8-26.3,9.3-50,14.8-75.6,6.3-29.3,12.1-58.5,19.2-87.6l-5.6,3.9c-2.8-.7-2.7-.9-4.9-2.8-28.7,35.5-60.8,88.1-90.4,119.3-10.6,0-20.2-.2-30.7-.7-16.3-40-30.6-97.5-44.6-140.2-2.3,21.1-12.2,71.8-18.7,92.7-.9,6.2-1.7,9.7-3.3,15.7-3.6,21.7-6.7,55-21.8,71.5-2,2.5-2.5,3.4-4.9,5.6,0,0-.2.2-.3.3-12.6,10.8-28.7,15.1-45,13.7-9-.8-19.1-2.8-25-10.4-2.3-3-3.6-6.8-2.8-10.6,4-19.1,32.5-4.9,45.4-13.5,16.3-10.8,25.2-84.1,30.3-105.7l2.6-13.1c5.2-21.7,9.5-43.7,14.8-65.5l.4-1c2.9-12.3,14.1-38.3,1.6-45.6-10.7-1-21,7-29.6,13l-4.1,3.9c-15,18.9-17.2,32.6-14.9,56.5.3,3.2.4,12.1-2.1,15.3-22.3,14.2-30.1-16.2-30.3-32.3-.2-21.7,8.1-42.6,23.3-58.1,23-23.5,88.9-52.8,100.5-3.5,7.3,31.1,17.5,62,25.7,93,5.1,19.4,15.4,44.7,19.6,61.9l5.1,13.7c3.4-4.7,6.1-8.6,10.1-12.9,2-3.8,13.3-18.5,16.3-22.6,11.8-15.9,23.4-32,34.8-48.1l2.6-3.6,16.1-22.8,14.5-20.9Z"></path>
    <path class="st8" d="M361.2,904.1c-8.1,8-1.5,14.1-8.2,20.6l-1.3-.8c-1-5.9-1.3-7,3.6-10.6.2-7.2,2.1-31.6,7.4-35.8,2.3,3.1,1.6,6.4,1.8,10.9-.9,6.2-1.7,9.7-3.3,15.7Z"></path>
    <path class="st5" d="M564.6,797.7l-5.2,18.4-5.6,3.9c-2.8-.7-2.7-.9-4.9-2.8,4.7-6.8,10.4-13.2,15.7-19.6Z"></path>
    <path class="st7" d="M444.6,879.3l5.1,13.7c3.4-4.7,6.1-8.6,10.1-12.9,0,5.7-3.2,12.2-8.4,14.8-8.3-1.5-7.6-8.9-6.7-15.6Z"></path>
    <path class="st7" d="M606.6,761.2c-1.8-10.5-8.8-15.2,3.5-22.6l1.6,2.1c-1.6,6.4-3.8,14.2-5.1,20.5Z"></path>
    <path class="st8" d="M334.5,981.2l-3.3-1.6c.9-5,3.1-11.7,8.6-12.7,1.5,3.9.7,3.8-.4,8.7-2,2.5-2.5,3.4-4.9,5.6Z"></path>
    <path class="st7" d="M391.7,715.3c3.4,1.8,2.1.6,4,3.9-.3,3.4-2,4.9-4.1,7.7l-1.1-.5c-1.4-3.9.1-6.5,1.2-11.1Z"></path>
    <path class="st8" d="M349.3,931.1l1.5,1.3c1.4,4.5.7,5.8-.3,10.6-2.2-2.1-2-1.9-3.8-4.4,0-4.7-.1-3.1,2.6-7.5Z"></path>
    <path class="st7" d="M583.9,831.3l2.4,2.2c1.6,5.2,1.1,6.8.5,12.4-4.4-4.3-3.9-9.1-2.9-14.6Z"></path>
    <path class="st6" d="M391.3,433.4c13.2,3.1,17.1,3.3,22.5,17.1l4.6,1.4c10.7-1.6,19.9-2.7,30.2,1,6.1,10.9.6,23,9.5,29.9,5.5.2,5-.7,10.7-3.7,8.5-.4,7.6,1.3,10.8,9.1l.7,1.7c4.4.7,5.6.6,9.3,3.1,3.8,6.6-2.1,12.5,9.7,14.7,2.5.5,4.5,1.1,6.7,2.3,3.6,3.3,3.7,3,3.1,8.3,1.4,14.7,12.6,6.5,15.9,21.4-2.9,9.3-9.1,4.7-12.7,11.3,2.2,7.7,20.8,18.6,29,28.4-1.3,2-6.9,10.5-8.3,11.5-15.9,11.5-16.4,5.7-27.7,21.8-6.1-.4-13-.3-18.4-2.8-5.1-6.1,1.5-4.3-4.3-5.6-7.2,4.5-12.3.5-22,2.3-20.4,8.7-28.8,17-38.1,37.6-2.5,1.1-2.4,1.1-5.1,1.2-6.5,1.8-9.7,2.1-16.3,2.8-3.7-10.3-4.4-16.3-5.7-27l-1.4-9.5c-2.1,3.1-1,7.3-3.7,11.3-4.2.2-2.2-.5-5.7,3.3,0,3.2.2,3.5-.6,6.5l-6.2-5.7c-10.9-4-25.9-4-37.3-2.4l-7.3,8.4c-10,7.9-18.8,12.8-26-2.1-2-4.2-4.6-4.2-8.7-5.4l-1.5-.4c-14.3,8.2-15,5.6-25.3-5.6-5.7,0-10.8.8-16.4,1.5-4.3-2.9-4.5-2.9-7.2-7.1-5.7-14-3.6-16.8,7.3-25.2,5.8-30.2,3.3-35.3,33.2-46.5,13.9-5.2,6.3-10.5,10.9-20.1,2.5-5.3,1.7-4.6-1.7-9-3.7,0-4.4-.8-6.2-3.2,0-3.9-.6-2.3,1.7-5.1,4.8-.9,3-.9,8.2,1.9,12.5-11.1,24.3-13.3,40-15.3-2-5-4.5-10.4-6.8-15.3l15.7-4c-.2-6.6-1.7-16.3,6.1-17.3,19.1-2.5,20.4-12.1,34.5-21.3Z"></path>
    <path class="st10" d="M433.5,576.3l9.3,7.5-4.5,13.3,3.2,6.2,1.5.2,3.8-4.9c2.4.7,3.9,1.3,6.2,2.3,3.4-.9,3.6-1.1,6.7-2.8,3.1,1.5,2,.4,3.5,3.5-2.5,2-1.6,1.4-4.7,2.5,1.2,2.1.4,1.2,2.3,2.5-20.4,8.7-28.8,17-38.1,37.6-2.5,1.1-2.4,1.1-5.1,1.2-6.5,1.8-9.7,2.1-16.3,2.8-3.7-10.3-4.4-16.3-5.7-27,.6-6,.5-8.4.2-14.5,3.7-8.3,10.7-12.8,17.9-18,6.6-4.1,13.2-8.3,19.8-12.5Z"></path>
    <path class="st7" d="M438.3,597l3.2,6.2,1.5.2,3.8-4.9c2.4.7,3.9,1.3,6.2,2.3,3.4-.9,3.6-1.1,6.7-2.8,3.1,1.5,2,.4,3.5,3.5-2.5,2-1.6,1.4-4.7,2.5,1.2,2.1.4,1.2,2.3,2.5-20.4,8.7-28.8,17-38.1,37.6-2.5,1.1-2.4,1.1-5.1,1.2,3.5-8.3,8.4-19.1,13.5-26.5,2.9-4.2,7.5-5.7,9.7-10.4-2.8,0-1.9,0-4.8-.7-.5-3.2,1.3-7.5,2.3-10.7Z"></path>
    <path class="st3" d="M338.9,610.9c-.6-4.8-1.5-8.1.1-12.6,3.6-3.5,6.1-2,10.8-4.1l1.2-6.6,1.5-.6c1.1.9,2,5.4,2.3,6.8l1.6.8c4.7-2.2,4.1-3,6.9-7.3,3.6,13.8,5.2,21.4,17.6,29.8l.7,1-1.3,1.8c-2.2,3.1-2.4,3.4-2.3,7.1-10.9-4-25.9-4-37.3-2.4l-7.3,8.4-2.9-1.6c1.2-4.7,6.1-5.8,7.7-10,1.1-2.9-2.7.2-5.6-4.6,2.1-3.7.7-2.4,4.1-4.2l2.1-1.8Z"></path>
    <path class="st10" d="M338.9,610.9c3.6-3,3.4-3.9,8.6-3.3,10.3,1.1,20.2,8.4,27.5,15.3-8.3-1.8-36.4-4.4-38.9-7.8l.6-2.4,2.1-1.8Z"></path>
    <path class="st10" d="M363.3,587.4c-1-6.4-4.5-17.1,4-18.3,7.1,2.8,12.4,9.8,17.6,15.7.6,9.8,3.1,24.7-3.9,32.5-12.5-8.5-14.1-16.1-17.6-29.8Z"></path>
    <path class="st3" d="M395.8,606.8c-.9-.6-.4-.1-.9-1.9,3.5-8.6-.4-18.3,6.9-22.6,5.5.2,7.9,2.8,11.9,6.5-7.1,5.2-14.2,9.7-17.9,18Z"></path>
    <path class="st0" d="M297.9,513.1c-3.7,0-4.4-.8-6.2-3.2,0-3.9-.6-2.3,1.7-5.1,4.8-.9,3-.9,8.2,1.9l-3.8,6.5Z"></path>
    <path class="st5" d="M340.9,555.7c8.2.6,18.2-1.1,20.6,7.1-8.5.3-19.2,3-20.6-7.1Z"></path>
    <path class="st7" d="M359.9,459.8c2.7.8,1.5.2,3.7,1.8.7,4.7,1.3,6.6.6,11.2-5.2-1.4-3.5,0-6.1-3.4.6-3.2,1.2-6.5,1.8-9.7Z"></path>
    <path class="st7" d="M503.6,531.9c5,2.5,4.2,3.2,10.7,5.1l1.3.4v1.7s-2.3.5-2.3.5l-.2-.9c-4.3.3-4.1.4-8.2-.6-2.4-3.5-1.8-1.6-1.3-6.2Z"></path>
    <path class="st7" d="M330.6,598.4c1.1-.1,2.1.3,2.8,1.2.6.9.7,2,.3,3-.5,1-1.4,1.6-2.5,1.7-1.6,0-3-1.1-3.1-2.7-.1-1.6,1-3,2.6-3.2Z"></path>
    <path class="st6" d="M848.6,702c8.6-7.4,21.7-11,30.7-2.2,5.9,5.7-1.2,32.2-3,40.6-9.5,42.1-19.3,84.1-29.4,126-5.7,24-12.6,49.4-15.2,73.8-6.1,57.6,47.7,10.3,59.2,13.4,2.5,3.6,2.2,5,1.3,9.5-6.2,30.5-43.4,36.3-69,30.4-10.3-2.4-16.3-6.9-23.6-14-32,25.1-65.6,24.9-93.2-7.2-14.5,15.9-33.7,23.9-54.9,24.1-47.5.4-51.1-17.7-43.4-56.6l1-5.3c5.1-15.3,6.9-31.9,10.4-47.5,3.8-16.7,6-53.3,31.8-44.9,17.4,5.7,9.5,36,5.2,48.6l-.5,1.8c-4.5,28.6-39.6,90.2,22.2,71.4,8.2-2.5,15.6-9.1,21.8-14.8-.2-31.5,3.9-60.6,25.1-84.9,2.9-3.5,7.7-7.2,11.3-10.2,25.4-16.7,50.7-18.9,76.8-1.5,4.2-21.3,8.9-42.5,14.2-63.6.3-2.4,2.4-11.1,3.1-14,3.1-16.5,11.6-58.3,18-72.9Z"></path>
    <path class="st8" d="M656.1,892.5c-3.1,2.4-3,3.3-4.1,6.9l-1.3.4c-2.6-6.3.2-17.2,2.9-23.3l1.6-.5c1.9,3.6,1.2,10.1,1.3,14.6l-.5,1.8Z"></path>
    <path class="st10" d="M804.2,891.2c-2.4,21.3-6.2,62.1-25.7,72-39.4,20-44.7-27.2-35.9-53.2,9.2-27.1,21.4-42.6,49.6-33.2,5.3,2.9,6.1,3.7,10.3,8l-.5,2,2.2,4.3Z"></path>
    <path class="st0" d="M792.2,876.9c5.3,2.9,6.1,3.7,10.3,8l-.5,2c-5.8.6-11.3.8-14.5-4.6,1.3-4.3.2-2.3,4.8-5.4Z"></path>
    <path class="st8" d="M809.3,902.2c1.2,6.5,2.3,9.1-.6,14.8-4.2-4.5-2.1-10.1.6-14.8Z"></path>
    <path class="st6" d="M1096,961.6c8.4-6.1,18.2-20.3,17.6-30.8-3.2-57.3-89-60.4-119.9-98.6-13.5-15.1-18.6-32.2-17.6-52.3,4-80.8,126.3-106.6,173.1-50.8,11.6,14,17.1,32.2,15.4,50.3-2.5,27.8-29.9,55.7-50.6,28.8l-.9-1.2c.2-8.3,3.5-11.1,8.7-17.6,11.5-17.3,5.4-32.4-11.3-43.8-47.1-32.3-135.5,20.1-77.2,71.5l5.9,4.4c16.7,9.7,32.3,15.7,48.8,24.5l1.1.7c25.1,13.4,52.5,30.6,60.5,58.9,12.9,45.4-19.8,89.1-63.5,99.9-21.7,5.4-50.7,8-71.7,1.5-4.9-1.1-10-2.5-14.9-3.8-11.8-4.9-19.3-9.1-29.1-17.1-21.6-17.7-37-58.4-16.4-81.5l1.8-1.8c11.2-8.8,29.2-11.1,38.5,1.3,2.7,3.5,3.7,8,2.7,12.3-1.6,7.6-7,11.5-13.3,15.3-1.2.7-2.3,1.4-3.5,2,.9,5,2.1,12.1,4.4,16.5,15.2,29,65.3,29.3,92.6,20.9-.9-1.6-2.3-3-3.3-5l1.2-2.6c4.4-2,14.1-.3,20.9-2Z"></path>
    <path class="st7" d="M1039.3,821.5c3.5,6.3,3.3,4,8.4,8.7l-.2,1.4c-7.5.3-15.5-3.8-20-9.8-.4-3.1-.7-3.3.2-6.1l5.7,1.5,5.9,4.4Z"></path>
    <path class="st7" d="M1010.6,994.5c6,2.4,8.9,3.1,15.1,4.7-4.2,1.2-11.4,2.5-13.9,5.1l2.7,2.7c-4.9-1.1-10-2.5-14.9-3.8,4.4-3.1,7-5.1,11.1-8.7Z"></path>
    <path class="st0" d="M1077.3,971.2c-.9-1.6-2.3-3-3.3-5l1.2-2.6c4.4-2,14.1-.3,20.9-2-6.4,4.5-11.1,7.1-18.7,9.5Z"></path>
    <path class="st7" d="M1088,845.9l1.1.7c2.7,5.3,5.4,4.9,5.3,8.6-5.7.5-14.9-3.7-16.3-8.6,4.1.3,5.9.7,9.9-.7Z"></path>
    <path class="st7" d="M954,904.5l1.8-1.8c4.8,8.5,6,2.9,8.6,7.9l-1.6,1.6c-6.7,0-6.2-1.5-8.7-7.7Z"></path>
    <path class="st7" d="M1140.8,905.3c7.3,7.4,6.4,31,1,40l-1.3-3.1c1.8-13.6-1-25.2.3-36.9Z"></path>
    <path class="st7" d="M976.3,982.8c4.2,4,13.8,6.2,18,12.3-10.1-.5-14.3-3.1-18-12.3Z"></path>
    <path class="st7" d="M1090.8,733c9.9.6,11.9.2,19.3,6.3-8,0-13.7-.5-19.3-6.3Z"></path>
    <path class="st8" d="M983.1,802.8c5.6,2,6.3,7.4,6.5,12.6l-1.7-.3c-3.5-3.7-3.7-7.2-4.9-12.2Z"></path>
    <path class="st7" d="M1043.1,733.2c4.4.4,7.4-.2,9.8,2.1l-2.1,2.3c-4.8.4-6.3,1.5-9.3-.6l1.6-3.8Z"></path>
    <path class="st7" d="M1141.8,801.5c4.5,1,4.4,0,6.2,2.9l-1.1,4.7-3.1-.8c-2.4-2.8-1.6-2.2-2-6.8Z"></path>
    <path class="st6" d="M175,747.2c20.4-8.4,38.9-12.1,60.4-16.3-6.2,23.4-16.1,45.7-22.8,69-6.6,23.3-11,47.2-15.2,71.1-1.1,5.9-1.6,17.7-3.2,22.6-11.2,108-7.8,167.1,15,272.6-17.1-.3-34.2-.2-51.3.3-6.2-16.3-13-62.6-13.6-81.3l-.4-2.4c-7.6-66.5-8.6-149.2,2.8-215.5l-.4-1.3c9.7-48.5,11.6-70.3,28.7-118.7Z"></path>
    <path class="st8" d="M187.9,880.7l1.7-3.7,1,.6c1,6.2,1.5,10,3.7,16-3.5,3.8-1.5,2.7-5.7,4.1-3-4.9-1.4-11.1-.6-17Z"></path>
    <path class="st8" d="M143.9,1082.8c2.4-4.3,3.3-13.4,5.1-15.3,4.4,4.2,3.9,10.7,1.2,15.7-2.8,1.7-2.6,1.6-5.9,2l-.4-2.4Z"></path>
    <path class="st8" d="M146.3,866l4.4-.6c4.6,3.7,6.7,7.1,2.4,12.2l-2.2-.6c-.5-3.4-.4-3.7,0-7.2l-1.5-2.2-2.6-.3-.4-1.3Z"></path>
    <path class="st8" d="M224.9,743.7c.8,0,.2,0,2.7.4,1.3,5.9-1.3,8.4-5.2,12.3-.6-4.2-2.4-7.9-.9-11.5l3.3-1.3Z"></path>
    <path class="st7" d="M201.3,819.6l1.8,1.7c1,4.9.4,4-1.3,9.4-2.7-4.1-1.6-6.8-.4-11.1Z"></path>
    <path class="st6" d="M1836.1,830.7c16.4,5.1,33.9,9.5,50.6,13.7l3.2,1.2c.4,1.4.7,1.8.6,3.2,7,85.5,12.3,162.1.3,247.9-3.8,27.1-5.9,45.8-14.2,72.4-6.4,1.8-55.3,2.2-59.2-2.5.8-7.5,1,.6,4.7-4.5,4.7-6.5,1.6-7.6,7.9-14.1,3-9.4,7.7-41.1,9.2-51.2,13.4-90.2,11.1-176.3-3-266.1Z"></path>
    <path class="st5" d="M1876.5,1169.1c-6.4,1.8-55.3,2.2-59.2-2.5.8-7.5,1,.6,4.7-4.5,4.7-6.5,1.6-7.6,7.9-14.1-1,6.1-2,13-3.3,18.9,10.3,0,41.5-.9,49.9,2.2Z"></path>
    <path class="st7" d="M1849.3,1031.6l1,1c1.7,5.9,1.4,10.5,0,16.3l-1.5-1.8c-1.5-5,0-10.2.7-15.5Z"></path>
    <path class="st6" d="M663.1,765.9c31.4,1,32.6,31.8,3.6,43.3-3.7-.5-7.4-1-10.9-2.3-5.6-2.1-10-6.4-12.1-12-5.5-14.5,6.8-25,19.4-29.1Z"></path>
    <path class="st7" d="M105.2,1220.8c43.7-1.1,88.6-.7,132.4-.7l-.6,13.6-23.9-1.3c-34.3-1.6-68.5-4.6-102.8-6.4-13.3-.7-26.9-1.5-40.1-3.4,11.8-1.1,23.2-1.4,35-1.8Z"></path>
    <path class="st6" d="M1640.2,472.7c3.5-3.3,3.7-3.7,7.9-5.6,6.8.3,6.5,4.5,13.1,4.9l1.6-.7c3.8-1.8,5.7-3.2,9.8-2.6,17.6,10.2,8.8,2.1,21.2,1.6,11-.4,5.6,6.2,22.1-.3,4.2,2,7.2,2.5,9.4,5.9-4.1,5.4-35.2,4.7-41.5,1.5-.7-.2-1.3-.4-2-.7l-1.2-.4c-9.1,6.9-10.2,6-19.9,0-4.7,3.9-11.6,8.5-4.9,14.8,7.4,1.4,8.3.6,14.7-3.5,4,.6,10.4,5.6,11.8,5.4,6.9-1.1,37.7-5.3,41,1.7-2.7,3.1-3.4,3.1-7,4.7-12.3-1.2-50.2.4-55.6-1.4-2.8,1.3-2.7,1.3-5,3.3,1.4-14.5-4-5.4-5.8-18.3-4.9-1.7-11.7-4.7-9.6-10.6Z"></path>
    <path class="st7" d="M1961.3,1220.9c1.5-.5.6-.3,2.9,0-6.7,5.3-132.7,12.8-150.9,13.8-.8-1-1.5-2.1-2.1-3.3-1.8-3.6-2-6.1-.9-9.6,12.6-1.5,45.6-.2,59.6,0,30.5.5,61,.2,91.4-1.1Z"></path>
    <path class="st6" d="M1639.9,392.7c3.3-3.9,3.5-4.8,8.1-6.5,12.4.7,11.6,4.2,21.2-2.5,4.1,2.5,8.7,5.1,12.7,7.7,16.1-8.2,7.8-.2,24.5-1.8,4.8-.5,10.8-1,15.3.4l1.2,1.8c-2.2,4.5-3.8,4.6-8.6,7.8-7.9-4.4-9-6.4-17.6-2.5l-4.4,1.9c-5-2.2-9.7-5.7-14.6-2.1-9.6,7-16.6-5.7-24.6,2.6-1.1,3.3-1.5,3.3-.5,6.6-7.9-1.4-8.3,4.1-17.6.4l-.8-2.8c.9-5.1,2.6-6.7,5.7-11.1Z"></path>
    <path class="st3" d="M1810.8,1260.8c18.1-1,38.3.4,56.6,1.2,12.1.6,32.1.8,43.5,2.7v1.3c0,0-3.5.8-3.5.8-25.4,3.3-55.7,3.5-81.7,5.7-5,.4-12.2-.8-15.8-4.6-.8-4.7-1-2.4.8-7.1Z"></path>
    <path class="st3" d="M228.7,1185.5c2.1-.1,2.6.1,4.7.4,3.1,3,2.4,1.3,2.6,5.1-7,7.3-61.3,1-72.4,0-7.2-.1-13.3-1.6-20.3-3,25-2.8,59.3-2.2,85.4-2.6Z"></path>
    <path class="st3" d="M1861.2,1189c13.8.2,22.7,0,36.1,3.2-19.1,1.7-39.5,3.9-58.5,4.8-8.8.8-27,3.6-30.9-5.3l1-1.4c9-1.8,41.7-1.2,52.3-1.3Z"></path>
    <path class="st6" d="M194.6,1261.7c8.2-.5,36.8-4.1,41-.8.9,4.7,1,4.7.6,9.4-7,2.9-41.1,0-50.4-.9-1.2-2.3-.7-1-1.2-3.7,2.3-2.8,6.2-3.1,10-4Z"></path>
    <path class="st5" d="M1736.3,531.3l5,1.4c6.5,6.9-2.2,6.5-1.8,14.8,4.7,2.8,5.2,3.6,6.7,7.9-.9,5.2.1,3-3,6.9-4.3,1.6-2.1,1.3-7,.3-2.2-2.2-2.4-2-5.3-3.3-2-2.9-2.9-3.7-3.4-7.2,8.3-4.8,7.7-9.1,1.1-15.1l-1-.9.6.2,1.2-3.7-2,2.7v-1.6c3.2-2.1,5.1-1.9,8.9-2.3Z"></path>
    <path class="st3" d="M1804.3,1304.9c10.5,1.8,49,1.8,54.4,6.5l-1.8.6c-13.4.3-40.9,4.9-52.6,1.8-1.7-3.5-.7-4.2,0-9Z"></path>
    <path class="st7" d="M230.6,1304.4c2.6,0,2.2.3,4.9,1.5,2.7,4.1,2.3,2,2.3,6.2l-1.6,1.6c-11.1,2.8-30-.8-41.9-2.4-4.6-.5-9.2-.9-13.8-1.3,14-2.5,36-4.8,50.2-5.6Z"></path>
    <path class="st3" d="M185.8,1269.5c-15.8-.4-39.8-.5-54.4-4.2,5-1.6,54.2-3.1,63.2-3.5-3.8.9-7.7,1.2-10,4,.5,2.7,0,1.4,1.2,3.7Z"></path>
    <path class="st7" d="M1710.3,551.3h1.1c4.8.2,8.2.3,11.4,3.7-1.4,4.2-1.9,3.3-6.5,6.5-1.7.1-3.3,0-5-.4-4-1-4.9-2-6.7-4.8l.7-2.4,4.9-2.6Z"></path>
    <path class="st7" d="M1709,531.3c5.7-.4,8.5-1.4,12.1,3.4-.8,4.7-.8,3.5-4.4,7.7-4.1-.6-8.1-1.5-10.8-4.8-.1-4.3-.6-2.1,3-6.3Z"></path>
    <path class="st7" d="M1734.4,368.3c1.4-1.3,3.4-1.7,5.2-1.1,1.8.6,3.1,2.2,3.4,4.1.3,1.9-.4,3.8-1.9,5-2.2,1.8-5.4,1.4-7.2-.7-1.8-2.2-1.6-5.4.5-7.3Z"></path>
    <path class="st7" d="M1767,497.2c-4.9.9-10.7,3.2-13.2-2l2-1.9c4.2-1.3,7.9,0,12.3.8l-1,3.1Z"></path>
    <path class="st0" d="M608.2,939.7l-1.1-2.6-1.5.2c-3.2-4-3-4.6-3.8-9.8,1.2-3.9,0-2.4,3.4-4.6,3.8,3-1.3,3.4,4,11.6l-1,5.3Z"></path>
    <path class="st0" d="M1246.9,1844l1.8-.3c3.5.7,5.9,1.2,9.3,2.2l-.5.9c-3.6.7-5.2,1.7-8.3,3.4l-3.2-.2c-1.2-2.6-.4-3,.9-6Z"></path>
    <path class="st0" d="M1620.1,1244.6l2.5,1.5.3,1.8c-2.6,2.6-5,3-8.5,4.2-1.9-.3-1.5-.3-3.3-1.3,1.4-2.9,5.5-4.3,8.9-6.2Z"></path>
    <path class="st0" d="M1510,349.6c0,.9.2,1.9.2,2.8.3,5.9-.3,7.5-4.1,11.7l-1.6-4.3c.3-4.4,2.8-6.6,5.5-10.2Z"></path>
    <path class="st0" d="M686.6,1810.7l3.8.8c-5.5,1.7-7.6,6.6-13.8,5.8l-.5-1.6,1.9-1.9c4-.6,5.2-.7,8.7-3.1Z"></path>
    <path class="st0" d="M1084,275.7c3.7,1.4,5.5.7,9,2.4l-1.1,2.4c-4.4.5-6.3,1.6-9-.3l1.1-4.5Z"></path>
    <path class="st0" d="M1115,699.3c.5-1,1.5-1.7,2.6-1.7,1.1,0,2.2.7,2.6,1.7.5,1,.3,2.2-.4,3.1-.9,1.1-2.6,1.4-3.8.6-1.2-.8-1.7-2.4-1.1-3.7Z"></path>
    <path class="st0" d="M1681.3,681.2l2.4-5.1c3,4.5,2.5,2.2,2.3,7.2l-1.6,1.4c-2.3-1.7-1.6-.9-3.1-3.5Z"></path>
    <path class="st0" d="M1221.2,840.5c3.6-1.8,4.3-.9,6.9,1.2-3.3,1-3.3,1.2-6.7,1l-.2-2.2Z"></path>
    <path class="st0" d="M1775.1,1081.2c1.3-.4,2.7.2,3.2,1.4.6,1.2.1,2.7-1,3.4-.9.5-2,.5-2.8,0-.9-.6-1.3-1.6-1.2-2.6.2-1,.9-1.9,1.8-2.2Z"></path>
    <path class="st2" d="M1768.1,494.1l7.2,1.2v1.4c-.1,0-8.2.5-8.2.5l1-3.1Z"></path>
  </g>
</svg></svg>