<svg xmlns="http://www.w3.org/2000/svg" id="Layer_1" data-name="Layer 1" viewBox="0 0 24 24" fill="#950404"><path d="M19 5a1 1 0 1 1-2 0 1 1 0 0 1 2 0Zm5 3-2 .857V11c0 4.653-2.909 8.631-7 10.236V23.5a.5.5 0 0 1-1 0v-1.926c-.955.271-1.959.426-3 .426v1.5a.5.5 0 0 1-1 0v-1.551C4.402 21.442 0 16.728 0 11V6.5a.5.5 0 0 1 1 0C1 8.981 3.019 11 5.5 11S10 8.981 10 6.5V6c0-3.309 2.691-6 6-6s6 2.691 6 6v.143L24 7v1ZM1 11a9.94 9.94 0 0 0 2.019 6H5c2.757 0 5-2.243 5-5V9.652C9.004 11.069 7.36 12 5.5 12S1.996 11.07 1 9.652V11Zm20-5c0-2.757-2.243-5-5-5s-5 2.243-5 5v6c0 3.309-2.691 6-6 6H3.871A9.965 9.965 0 0 0 11 21c5.514 0 10-4.486 10-10V6Z"/></svg>