<svg xmlns="http://www.w3.org/2000/svg" id="Layer_1" data-name="Layer 1" viewBox="0 0 24 24" fill="#950404"><path d="M22.541 14.007a.508.508 0 0 0-.576.41 2.48 2.48 0 0 1-1.195 1.722 1.56 1.56 0 0 0-.77 1.362c0 .927-.498 1.783-1.271 2.181-.695.36-1.386.417-2.056.168a1.204 1.204 0 0 0-1.323.321c-.791.881-2.187 1.08-3.186.432a1.227 1.227 0 0 0-1.33 0c-.999.646-2.394.448-3.186-.432a1.208 1.208 0 0 0-1.323-.321c-.667.248-1.358.192-2.056-.168-.772-.398-1.271-1.254-1.271-2.187 0-.563-.286-1.07-.77-1.356C1.457 15.685.998 14.886.998 14s.46-1.685 1.23-2.139a1.56 1.56 0 0 0 .77-1.362c0-.927.498-1.783 1.271-2.181.693-.359 1.383-.416 2.055-.169.469.173.992.049 1.325-.321.663-.739 1.754-1.019 2.68-.683a.5.5 0 1 0 .34-.941c-1.304-.473-2.833-.081-3.763.954a.213.213 0 0 1-.236.052c-.93-.342-1.918-.266-2.859.219-1.102.568-1.812 1.773-1.812 3.079a.567.567 0 0 1-.277.492c-1.079.635-1.723 1.757-1.723 3s.644 2.365 1.723 3a.566.566 0 0 1 .277.5c0 1.297.71 2.503 1.812 3.071.391.201.789.315 1.188.375v1.555c0 .827.673 1.5 1.5 1.5s1.5-.673 1.5-1.5v-.867c1.065.494 2.366.463 3.378-.19a.22.22 0 0 1 .244 0 3.457 3.457 0 0 0 1.878.557c.944 0 1.843-.396 2.5-1.075v1.575c0 .827.673 1.5 1.5 1.5s1.5-.673 1.5-1.5v-1.854c.063-.029.126-.044.188-.076 1.102-.568 1.812-1.773 1.812-3.079 0-.205.104-.389.277-.492a3.478 3.478 0 0 0 1.674-2.417.502.502 0 0 0-.41-.577ZM7 22.5a.5.5 0 0 1-1 0v-1.541c.226-.034.451-.088.672-.17a.205.205 0 0 1 .233.051c.033.036.073.064.107.099C7.009 20.96 7 22.501 7 22.501Zm11 0a.5.5 0 0 1-1 0v-1.541c.331.05.666.036 1-.014V22.5ZM17 7a1 1 0 1 1-2 0 1 1 0 0 1 2 0Zm3 0a1 1 0 1 1-2 0 1 1 0 0 1 2 0Zm3.458-3.518a33.21 33.21 0 0 0-3.277-.574 4.502 4.502 0 0 0-.671-.412c.146-.77.453-1.496 1.989-1.496a.5.5 0 0 0 0-1c-2.27 0-2.773 1.365-2.94 2.14-.342-.083-.693-.14-1.06-.14s-.719.056-1.06.14C16.273 1.366 15.77 0 13.499 0a.5.5 0 0 0 0 1c1.536 0 1.843.726 1.989 1.496a4.42 4.42 0 0 0-.671.412 33.266 33.266 0 0 0-3.277.574.71.71 0 0 0-.431 1.072c.407.653 1.148 1.104 1.955 1.298-.031.213-.065.426-.065.648v3.879c0 2.268 1.683 3.621 4.5 3.621s4.5-1.354 4.5-3.621V6.5c0-.222-.034-.435-.065-.648.807-.194 1.548-.644 1.955-1.298a.71.71 0 0 0-.431-1.072ZM21 10.379C21 12.66 18.808 13 17.5 13s-3.5-.34-3.5-2.621V6.5C14 4.57 15.57 3 17.5 3S21 4.57 21 6.5v3.879Z"/></svg>