<svg xmlns="http://www.w3.org/2000/svg" id="Layer_1" data-name="Layer 1" viewBox="0 0 24 24" fill="#950404"><path d="M23.019 5.779C21.314 5.015 19.651 3.955 19 1.426V.491c0-.314-.3-.565-.6-.471-.517.162-.922.569-1.164 1.066-1.544.204-2.783.793-3.683 1.77-1.692 1.839-1.574 4.367-1.554 4.661A1.502 1.502 0 0 1 10.499 9H7.493a3.499 3.499 0 0 0-2.887 1.527c-3.014.996-4.607 3.752-4.607 7.973a.5.5 0 0 0 1 0c0-2.539.602-4.421 1.768-5.657-.512 1.345-.768 3.197-.768 5.657a.5.5 0 0 0 1 0c0-2.802.333-4.758.997-5.95.015 1.668.714 3.865 1.228 5.474.119.372.229.715.319 1.019l-.27 2.191A2.464 2.464 0 0 0 7.72 24a2.458 2.458 0 0 0 2.453-2.22l.278-2.78h2.547v2.5c0 1.378 1.122 2.5 2.5 2.5s2.5-1.122 2.5-2.5v-2.947l.404-1.896c.404-1.415.596-2.338.596-3.758V9.5a.5.5 0 0 1 .5-.5h2.811c.931 0 1.689-.758 1.689-1.689 0-.664-.385-1.265-.981-1.532ZM12 9.487V12.5c0 .827-.673 1.5-1.5 1.5S9 13.327 9 12.5V10h1.5c.565 0 1.081-.195 1.5-.513ZM9.502 18.45l-.323 3.23a1.466 1.466 0 1 1-2.913-.325l.282-2.295a.51.51 0 0 0-.016-.202c-.098-.333-.221-.719-.355-1.14-.5-1.564-1.184-3.707-1.184-5.225a2.504 2.504 0 0 1 2.5-2.495h.506v2.5c0 1.207.86 2.217 2 2.449v3.051a.501.501 0 0 0-.498.45ZM22.311 8H19.5c-.827 0-1.5.673-1.5 1.5v3.399c0 1.31-.172 2.133-.566 3.517l-.423 1.98C17.004 18.43 17 21.5 17 21.5c0 .827-.673 1.5-1.5 1.5s-1.5-.673-1.5-1.5v-3a.5.5 0 0 0-.5-.5H11v-3.051c1.14-.232 2-1.242 2-2.449l-.001-5.041c-.002-.023-.167-2.347 1.297-3.932.872-.943 2.157-1.454 3.826-1.52.817 2.711 2.718 3.89 4.489 4.684A.69.69 0 0 1 22.312 8Z"/></svg>