<svg width="18" height="20" viewBox="0 0 18 20" fill="none" xmlns="http://www.w3.org/2000/svg"><path fill-rule="evenodd" clip-rule="evenodd" d="M4.588.295c.63-.63 1.707-.184 1.707.707v.793h.793c.891 0 1.337 1.077.707 1.707l-.897.896-.018.018L8.608 7.34a2 2 0 0 0 2.04.957l6.29-1.014c.815-.131 1.37.805.864 1.457-.485.626-.73 1.425-.906 2.3-.659 3.265-3.424 5.781-6.851 6.195v1.06h1.25v1h-4.75v-1h2.5v-1c-2.707 0-5.105-1.304-6.554-3.304-1.162-1.605-.973-3.668-.503-5.384l.248-.902a3.5 3.5 0 0 0 .09-1.411l-.031.001H1.002c-.891 0-1.337-1.077-.707-1.707L4.588.295Zm2.5 2.5-.733.733-.365-.617a2.5 2.5 0 0 0-.154-.227.995.995 0 0 0 .459.111h.793Zm-1.793-1a1 1 0 0 0 .113.463 2.275 2.275 0 0 0-.947-.423l.834-.833v.793Zm-4.293 3.5.797-.797c.02.104.048.208.084.312l.167.485H1.002Zm1.827-.811a1.274 1.274 0 0 1 2.3-1.064l2.618 4.43a3 3 0 0 0 3.06 1.435l6.074-.979c-.541.779-.794 1.692-.965 2.538a6.552 6.552 0 0 1-.71 1.908.497.497 0 0 0-.123.11c-.947 1.19-2.349 1.934-3.906 1.934-2.805 0-5.132-2.432-5.132-5.5a.5.5 0 1 0-1 0c0 3.56 2.716 6.5 6.132 6.5.2 0 .397-.01.592-.03a7.202 7.202 0 0 1-2.724.53c-2.382 0-4.48-1.146-5.744-2.89-.883-1.22-.8-2.886-.348-4.533L3.2 7.97a4.5 4.5 0 0 0-.085-2.656l-.286-.829Z" fill="#950404"/></svg>