<svg xmlns="http://www.w3.org/2000/svg" id="Layer_1" data-name="Layer 1" viewBox="0 0 24 24" fill="#950404"><path d="M17 5a1 1 0 1 1-2 0 1 1 0 0 1 2 0Zm2-1a1 1 0 1 0 0 2 1 1 0 0 0 0-2Zm4.89-1.446c-.407.653-1.148 1.104-1.955 1.298.031.213.065.426.065.648v3.879C22 10.647 20.318 12 17.5 12S13 10.646 13 8.379V7.075a2.437 2.437 0 0 0-.863.341 1.146 1.146 0 0 1-1.272 0c-1.007-.67-2.396-.487-3.202.399a1.234 1.234 0 0 1-1.336.334A2.39 2.39 0 0 0 5.501 8a2.503 2.503 0 0 0-2.5 2.5 1.557 1.557 0 0 1-.769 1.361c-.771.454-1.231 1.253-1.231 2.139s.46 1.685 1.23 2.139c.476.28.771.8.77 1.355A2.504 2.504 0 0 0 5.501 20c.279 0 .556-.051.825-.149a1.23 1.23 0 0 1 1.336.333c.8.879 2.171 1.068 3.174.42a1.224 1.224 0 0 1 1.33 0c1.002.648 2.374.459 3.173-.419a1.232 1.232 0 0 1 1.335-.335c.271.1.548.15.827.15 1.378 0 2.5-1.121 2.5-2.5a1.573 1.573 0 0 1 .77-1.361A2.462 2.462 0 0 0 22.001 14c0-.286-.048-.565-.143-.832a.5.5 0 1 1 .941-.337c.134.375.202.767.202 1.168a3.454 3.454 0 0 1-1.723 3 .561.561 0 0 0-.277.492 3.503 3.503 0 0 1-2 3.157v1.851c0 .827-.673 1.5-1.5 1.5s-1.5-.673-1.5-1.5v-1.573a3.487 3.487 0 0 1-2.5 1.073 3.449 3.449 0 0 1-1.878-.557.22.22 0 0 0-.244 0c-1.01.653-2.313.685-3.378.191v.866c0 .827-.673 1.5-1.5 1.5s-1.5-.673-1.5-1.5v-1.551c-1.692-.245-3-1.691-3-3.449a.567.567 0 0 0-.277-.5c-1.079-.635-1.723-1.757-1.723-3s.644-2.365 1.723-3a.563.563 0 0 0 .277-.492 3.506 3.506 0 0 1 3.5-3.508c.397 0 .791.071 1.171.211.084.03.185.003.252-.07 1.124-1.231 3.101-1.486 4.495-.558a.152.152 0 0 0 .165 0 3.464 3.464 0 0 1 1.417-.546V4.499c0-.222.034-.435.065-.648-.807-.194-1.548-.644-1.955-1.298a.71.71 0 0 1 .431-1.072 33.21 33.21 0 0 1 3.277-.574c.751-.562 1.673-.908 2.682-.908s1.93.345 2.682.908c1.364.172 2.571.407 3.277.574a.71.71 0 0 1 .431 1.072ZM17.5 21c-.168 0-.334-.02-.5-.045V22.5a.5.5 0 0 0 1 0v-1.551c-.165.024-.329.051-.5.051ZM6 20.955V22.5a.5.5 0 0 0 1 0s.01-1.54.012-1.56c-.028-.029-.062-.051-.089-.081-.067-.073-.168-.102-.252-.069a3.366 3.366 0 0 1-.67.166ZM21 4.5C21 2.57 19.43 1 17.5 1S14 2.57 14 4.5v3.879C14 10.66 16.193 11 17.5 11s3.5-.34 3.5-2.621V4.5Z"/></svg>