<svg id="Layer_1" viewBox="0 0 24 24" xmlns="http://www.w3.org/2000/svg" data-name="Layer 1" fill="#950404"><path d="m22.077 18.216-4.762-.676c-.332-.582-1.282-2.166-2.365-3.315 1.5-.59 2.423-1.2 3.027-1.662.751-.537.605-1.79-.246-2.143l-.923-.419h2.964c.628 0 1.217-.289 1.575-.773.296-.401.575-.828.829-1.27.512-.826-.159-1.989-1.13-1.957h-1.379l2.618-.727a1.985 1.985 0 0 0 1.429-1.545c.114-.598.221-1.269.273-1.717C24.16.806 22.944-.274 21.768.057L13.2 2.229a4.495 4.495 0 0 0-3.311 3.525c-.274 1.482-.8 2.69-1.192 3.442a1.494 1.494 0 0 1-1.329.803H3c-1.038 0-3 .627-3 3 0 .484.351 1 1 1h2.58c.427 0 .833.181 1.112.495 1.038 1.166 3.001 3.165 4.963 4.051l-1.036 3.481c-.704.099-1.619.48-1.619 1.473a.5.5 0 0 0 1 0c0-.472.991-.5 1.002-.5.12 0 .231-.061.331-.127l3.342-2.983a3.493 3.493 0 0 1 2.331-.89h1.119l3.832 3.472a2 2 0 0 0 1.46.517c1.166-.074 1.981-.514 2.358-1.27.364-.727.285-1.591-.228-2.497a2.005 2.005 0 0 0-1.471-1.006zM15.006 18a4.49 4.49 0 0 0-2.997 1.144l-2.026 1.809.761-2.555a.5.5 0 0 0-.31-.612c-1.966-.713-4.147-3.003-4.993-3.954a2.49 2.49 0 0 0-1.86-.831H1c0-1.926 1.797-1.998 2-2h4.368c.936 0 1.784-.514 2.216-1.34.424-.813.992-2.119 1.288-3.723a3.492 3.492 0 0 1 2.574-2.737l8.57-2.176c.523-.148 1.058.337.979.871-.049.429-.151 1.07-.262 1.644a.99.99 0 0 1-.714.77l-6.152 1.709c-.55.137-.432.997.134.982h5.047c.278.05.358.192.263.459a11.89 11.89 0 0 1-.767 1.173.954.954 0 0 1-.771.368h-5.272c-.523-.016-.689.753-.207.955l3.024 1.375c.198.132.209.273.053.439-.804.615-2.199 1.518-5.033 2.247a.5.5 0 1 0 .25.968c.482-.124.912-.254 1.32-.387 1.094 1.024 2.153 2.769 2.518 3.402zm7.875 3.272c-.265.529-.977.683-1.529.718a.986.986 0 0 1-.723-.26l-3.549-3.214 4.856.689c.313.045.583.229.74.508.347.612.415 1.136.204 1.559z"/></svg>