<svg xmlns="http://www.w3.org/2000/svg" id="base" version="1.1" width="152.09" height="148.8"><defs id="defs4"><style id="style2">.cls-2{fill:#352ca2}.cls-4{fill:#d13076}.cls-5{fill:#fff}</style></defs><circle cx="81.14" cy="77.85" r="70.95" id="circle6" opacity=".2" fill="#352ca2"/><circle class="cls-2" cx="74.24" cy="70.95" r="70.95" id="circle8" fill="#352ca2"/><path d="M74.24 106.75V51.56" id="path10" fill="none" stroke="#d13076" stroke-width="4" stroke-linecap="round" stroke-linejoin="round"/><path class="cls-4" d="M80.87 91.97h-6.65v-6.61a19 19 0 0119-19h6.65v6.65a19 19 0 01-19 18.96z" id="path12" fill="#d13076"/><path class="cls-4" d="M48.61 66.34h6.63a19 19 0 0119 19v6.61h-6.65a19 19 0 01-19-19v-6.61z" id="path14" fill="#d13076"/><path class="cls-5" d="M16.71 97.73l11.35-8a37.86 37.86 0 0122.07-6.78l22.15.22a3.36 3.36 0 013.32 3.52 7.94 7.94 0 01-7.66 7.52l-12.53.41a1.008 1.008 0 00-.26 2l16.86 5.19 24.51-4.77a10.37 10.37 0 018.19 1.87 3.26 3.26 0 01-.78 5.66l-22.79 8.73a39 39 0 01-17.64 2.41l-18.26-1.7a11.64 11.64 0 00-7.78 2.06l-3.07 2.15z" id="path16" fill="#fff"/><path class="cls-4" d="M16.71 97.73l20.74 24.11-16.71 14.2L0 111.93z" id="path18" fill="#d13076"/><circle class="cls-5" cx="24.9" cy="121.92" r="2.72" id="circle20" fill="#fff"/><circle cx="74.24" cy="35.7" r="23.55" stroke-miterlimit="10" id="circle22" fill="#fff" stroke="#352ca2" stroke-width="4"/><path class="cls-2" d="M75.41 25.71a10.93 10.93 0 014.83 1.53l-2 3.84a5.4 5.4 0 00-3.36-1.29c-1.26 0-2.25.66-2.25 1.53a1.55 1.55 0 00.57 1c.57.48.57.48 2.82 1.23 3.48 1.17 5 2.82 5 5.61a5.92 5.92 0 01-2.61 5.19 9.87 9.87 0 01-3 1.2v3.4h-2.46v-3.21a11.3 11.3 0 01-6.54-2.4l2.16-4a7.59 7.59 0 004.83 2.22 2.21 2.21 0 002.46-1.92 1.46 1.46 0 00-.54-1.08c-.54-.45-.54-.45-2.7-1.11-3.6-1.11-5.07-2.7-5.07-5.49a6.5 6.5 0 012.58-5.24 5.43 5.43 0 012.82-1V22.5h2.46z" id="path24" fill="#352ca2"/></svg>