<svg width="78" height="99" fill="none" xmlns="http://www.w3.org/2000/svg"><g opacity=".3"><mask id="a" maskUnits="userSpaceOnUse" x="0" y="19" width="78" height="80"><path d="M77.653 79.16V19.412H0V79.16c0 .898.685 1.82 2.079 2.505L33.83 97.539c2.764 1.394 7.253 1.394 10.017 0l31.751-15.875c1.37-.685 2.055-1.583 2.055-2.505z" fill="url(#paint0_linear)"/></mask><g mask="url(#a)"><path d="M77.653 79.16V19.412H0V79.16c0 .898.685 1.82 2.079 2.505L33.83 97.539c2.764 1.394 7.253 1.394 10.017 0l31.751-15.875c1.37-.685 2.055-1.583 2.055-2.505z" fill="url(#paint1_linear)"/><path d="M77.653 79.16V19.412H0V79.16c0 .898.685 1.82 2.079 2.505L33.83 97.539c2.764 1.394 7.253 1.394 10.017 0l31.751-15.875c1.37-.685 2.055-1.583 2.055-2.505z" fill="url(#paint2_linear)"/></g></g><path d="M33.815 1.038c2.768-1.384 7.255-1.384 10.023 0l31.74 15.87c2.767 1.383 2.767 3.627 0 5.011l-31.74 15.87c-2.768 1.384-7.255 1.384-10.023 0l-31.74-15.87c-2.767-1.384-2.767-3.628 0-5.011l31.74-15.87z" fill="#4F3B87"/><defs><linearGradient id="paint0_linear" x1="-10.281" y1="6.903" x2="-12.775" y2="85.076" gradientUnits="userSpaceOnUse"><stop stop-color="#D857BC"/><stop offset="1" stop-color="#D857BC" stop-opacity="0"/></linearGradient><linearGradient id="paint1_linear" x1="77.653" y1="8.811" x2="1.032" y2="7.604" gradientUnits="userSpaceOnUse"><stop stop-color="#D857BC" stop-opacity=".15"/><stop offset=".365" stop-color="#D857BC" stop-opacity=".4"/><stop offset=".479" stop-color="#D857BC" stop-opacity=".5"/><stop offset=".599" stop-color="#D857BC" stop-opacity=".4"/><stop offset="1" stop-color="#D857BC" stop-opacity=".15"/></linearGradient><linearGradient id="paint2_linear" x1="77.653" y1="8.811" x2="1.032" y2="7.604" gradientUnits="userSpaceOnUse"><stop stop-color="#D857BC" stop-opacity=".15"/><stop offset=".365" stop-color="#D857BC" stop-opacity=".4"/><stop offset=".479" stop-color="#D857BC" stop-opacity=".5"/><stop offset=".599" stop-color="#D857BC" stop-opacity=".4"/><stop offset="1" stop-color="#D857BC" stop-opacity=".15"/></linearGradient></defs></svg>