<svg width="170" height="216" fill="none" xmlns="http://www.w3.org/2000/svg"><g opacity=".5"><g opacity=".3"><mask id="a" maskUnits="userSpaceOnUse" x="0" y="42" width="170" height="174"><path d="M169.664 172.955V42.416H0v130.539c0 1.961 1.497 3.975 4.542 5.471l69.373 34.687c6.04 3.045 15.847 3.045 21.886 0l69.373-34.687c2.994-1.496 4.49-3.458 4.49-5.471z" fill="url(#paint0_linear)"/></mask><g mask="url(#a)"><path d="M169.664 172.955V42.416H0v130.539c0 1.961 1.497 3.975 4.542 5.471l69.373 34.687c6.04 3.045 15.847 3.045 21.886 0l69.373-34.687c2.994-1.496 4.49-3.458 4.49-5.471z" fill="url(#paint1_linear)"/><path d="M169.664 172.955V42.416H0v130.539c0 1.961 1.497 3.975 4.542 5.471l69.373 34.687c6.04 3.045 15.847 3.045 21.886 0l69.373-34.687c2.994-1.496 4.49-3.458 4.49-5.471z" fill="url(#paint2_linear)"/></g></g><path d="M73.883 2.268c6.047-3.024 15.852-3.024 21.899 0l69.347 34.673c6.048 3.024 6.048 7.926 0 10.95L95.782 82.564c-6.047 3.024-15.852 3.024-21.9 0L4.536 47.891c-6.047-3.024-6.047-7.926 0-10.95L73.883 2.268z" fill="#825FFE"/></g><defs><linearGradient id="paint0_linear" x1="-22.463" y1="15.083" x2="-27.913" y2="185.883" gradientUnits="userSpaceOnUse"><stop stop-color="#D857BC"/><stop offset="1" stop-color="#D857BC" stop-opacity="0"/></linearGradient><linearGradient id="paint1_linear" x1="169.664" y1="19.252" x2="2.255" y2="16.613" gradientUnits="userSpaceOnUse"><stop stop-color="#825FFE" stop-opacity=".3"/><stop offset=".365" stop-color="#825FFE" stop-opacity=".8"/><stop offset=".479" stop-color="#825FFE"/><stop offset=".599" stop-color="#825FFE" stop-opacity=".8"/><stop offset="1" stop-color="#825FFE" stop-opacity=".3"/></linearGradient><linearGradient id="paint2_linear" x1="169.664" y1="19.252" x2="2.255" y2="16.613" gradientUnits="userSpaceOnUse"><stop stop-color="#825FFE" stop-opacity=".3"/><stop offset=".365" stop-color="#825FFE" stop-opacity=".8"/><stop offset=".479" stop-color="#825FFE"/><stop offset=".599" stop-color="#825FFE" stop-opacity=".8"/><stop offset="1" stop-color="#825FFE" stop-opacity=".3"/></linearGradient></defs></svg>