<svg width="120" height="152" fill="none" xmlns="http://www.w3.org/2000/svg"><g opacity=".3"><mask id="a" maskUnits="userSpaceOnUse" x="0" y="29" width="120" height="123"><path d="M119.728 122.05V29.932H0v92.118c0 1.384 1.056 2.804 3.205 3.861l48.955 24.477c4.262 2.149 11.182 2.149 15.444 0l48.955-24.477c2.112-1.057 3.169-2.441 3.169-3.861z" fill="url(#paint0_linear)"/></mask><g mask="url(#a)"><path d="M119.728 122.05V29.932H0v92.118c0 1.384 1.056 2.804 3.205 3.861l48.955 24.477c4.262 2.149 11.182 2.149 15.444 0l48.955-24.477c2.112-1.057 3.169-2.441 3.169-3.861z" fill="url(#paint1_linear)"/><path d="M119.728 122.05V29.932H0v92.118c0 1.384 1.056 2.804 3.205 3.861l48.955 24.477c4.262 2.149 11.182 2.149 15.444 0l48.955-24.477c2.112-1.057 3.169-2.441 3.169-3.861z" fill="url(#paint2_linear)"/></g></g><path d="M52.137 1.6c4.268-2.133 11.186-2.133 15.454 0l48.936 24.468c4.268 2.134 4.268 5.594 0 7.727L67.591 58.264c-4.268 2.133-11.186 2.133-15.454 0L3.201 33.795c-4.268-2.133-4.268-5.593 0-7.727L52.137 1.6z" fill="#4F3B87"/><defs><linearGradient id="paint0_linear" x1="-15.851" y1="10.644" x2="-19.698" y2="131.173" gradientUnits="userSpaceOnUse"><stop stop-color="#D857BC"/><stop offset="1" stop-color="#D857BC" stop-opacity="0"/></linearGradient><linearGradient id="paint1_linear" x1="119.728" y1="13.586" x2="1.592" y2="11.724" gradientUnits="userSpaceOnUse"><stop stop-color="#825FFE" stop-opacity=".3"/><stop offset=".365" stop-color="#825FFE" stop-opacity=".8"/><stop offset=".479" stop-color="#825FFE"/><stop offset=".599" stop-color="#825FFE" stop-opacity=".8"/><stop offset="1" stop-color="#825FFE" stop-opacity=".3"/></linearGradient><linearGradient id="paint2_linear" x1="119.728" y1="13.586" x2="1.592" y2="11.724" gradientUnits="userSpaceOnUse"><stop stop-color="#D857BC" stop-opacity=".15"/><stop offset=".365" stop-color="#D857BC" stop-opacity=".4"/><stop offset=".479" stop-color="#D857BC" stop-opacity=".5"/><stop offset=".599" stop-color="#D857BC" stop-opacity=".4"/><stop offset="1" stop-color="#D857BC" stop-opacity=".15"/></linearGradient></defs></svg>