<svg width="43" height="43" viewBox="0 0 43 43" fill="none" xmlns="http://www.w3.org/2000/svg"><path d="M34.075 13.2a3.678 3.678 0 0 0 3.174-1.833.733.733 0 0 0 0-.735 3.667 3.667 0 0 0-6.35 0 .733.733 0 0 0 0 .735 3.679 3.679 0 0 0 3.175 1.833Zm0-2.933a2.207 2.207 0 0 1 1.638.733 2.197 2.197 0 0 1-3.277 0 2.208 2.208 0 0 1 1.639-.733Z" fill="#950404"/><path d="M38.837 36.92a24.426 24.426 0 0 0-1.695-1.257c3.186-1.899 5.393-5.887 5.393-9.996 0-3.725-1.468-8.19-4.747-9.765-1.356-.652-3.443-.99-6.183.511-.13-1.31-.529-2.404-.903-3.432-.708-1.942-1.267-3.476.022-6.053l-1.312-.656c-1.571 3.142-.817 5.21-.088 7.211.424 1.163.856 2.35.852 3.845l-.108.079c-2.013-1.497-3.732-2.024-5.134-2.056V11a.745.745 0 0 0-.146-.44l-4.253-5.671V.733A.733.733 0 0 0 19.8 0H6.6a.733.733 0 0 0-.733.733V4.89l-4.252 5.67a.745.745 0 0 0-.147.44v15.872a2.981 2.981 0 0 0-1.334 1.776c-.31 1.069-.233 2.622 1.89 3.954a9.955 9.955 0 0 0 1.548.774c-2.173 1.182-2.434 2.63-2.426 3.288.016 1.343 1.066 2.512 2.673 2.978.24.068.487.102.735.1 1.322 0 2.953-.893 4.863-2.667.574-.533 1.1-1.076 1.54-1.556.077.652.309 1.276.676 1.82.89 1.318 2.59 2.263 5.681 3.16 2.971.86 8.587 1.677 13.352 1.94 1.11.062 2.153.092 3.113.092 1.163.01 2.327-.05 3.483-.178 2.252-.278 3.435-.871 3.724-1.866.288-.995-.395-2.127-2.149-3.566Zm-8.852-17.86c-.103.48-.238.954-.404 1.417a2.21 2.21 0 0 1-1.42-1.044l-1.269.734a3.668 3.668 0 0 0 6.351 0l-1.27-.734c-.185.32-.448.588-.765.779.203-.683.339-1.384.405-2.094 2.066-1.34 3.964-1.652 5.54-.895 2.305 1.108 3.915 4.58 3.915 8.444 0 3.826-2.268 7.654-5.329 9.083a58.665 58.665 0 0 0-2.429-1.43c-4.168-2.326-9.35-4.639-12.32-5.5a27.585 27.585 0 0 0-1.778-.455 10.338 10.338 0 0 1-.144-1.698c0-3.864 1.61-7.336 3.915-8.444 1.85-.888 4.14-.306 6.627 1.683a.72.72 0 0 0 .375.154Zm-27.05-7.327h11.733v4.4H2.935v-4.4Zm13.2 0h7.333v3.771a5.596 5.596 0 0 0-1.12.398c-3.279 1.576-4.747 6.04-4.747 9.765 0 .482.031.964.091 1.443a8.438 8.438 0 0 0-1.557-.043V11.733Zm.733-1.466 2.933-3.911 2.934 3.91h-5.867Zm-9.533-8.8h11.733V4.4H7.335V1.467Zm-.367 4.4h11.367l-3.3 4.4H3.668l3.3-4.4ZM2.935 17.6h11.733v9.783a4.119 4.119 0 0 0-1.714 1.242 27.469 27.469 0 0 0-.468-2.135c-.796-3.01-1.926-4.746-3.359-5.161-1.607-.466-3.12-.04-3.85 1.087-.358.55-.914 1.915.291 4.075a9.979 9.979 0 0 0-1.723-.174h-.028c-.295 0-.59.02-.882.06V17.6Zm1.292 20.633c-.973-.282-1.606-.905-1.615-1.587-.009-.777.844-1.88 3.265-2.644a.733.733 0 0 0-.017-1.404c-3.317-.961-4.73-2.12-4.317-3.542.245-.846.987-1.268 2.247-1.268.856 0 1.953.195 3.296.584a.733.733 0 0 0 .764-1.177c-1.637-1.94-1.768-3.329-1.344-3.98.371-.572 1.24-.76 2.213-.477 1.587.46 2.73 4.85 3.053 7.905l-.737 2.543c-1.907 2.408-5.22 5.507-6.807 5.047Zm35.35 1.847c-.102.354-1.944 1.277-8.83.896a79.1 79.1 0 0 1-3.564-.283l.717-2.47-1.409-.409-.787 2.716c-3.135-.372-6.109-.897-7.982-1.44-2.697-.782-4.2-1.575-4.874-2.572-.614-.91-.625-2.164-.036-4.195.588-2.032 1.269-3.087 2.274-3.527.427-.187.943-.281 1.572-.281.994 0 2.27.236 3.922.714.22.065.456.138.7.218l-1.833 6.326 1.409.408 1.81-6.245c2.884 1.083 6.708 2.868 9.929 4.665.783.437 1.482.847 2.106 1.23l-.758 2.616 1.408.408.638-2.2c3.052 2.038 3.667 3.152 3.589 3.425Z" fill="#950404"/></svg>