<svg width="44" height="44" viewBox="0 0 44 44" fill="none" xmlns="http://www.w3.org/2000/svg"><g clip-path="url(#clip0_75_27336)" fill="#950404"><path d="M7.665 14.11a.68.68 0 0 0 .585.328h4.812a3.434 3.434 0 0 0 5.5 0h4.813a.68.68 0 0 0 .584-.327.69.69 0 0 0 .035-.67l-.533-1.066.533-1.066a.69.69 0 0 0-.035-.67.68.68 0 0 0-.584-.326h-4.813a3.434 3.434 0 0 0-5.5 0H8.25a.68.68 0 0 0-.585.326.69.69 0 0 0-.034.67l.533 1.066-.533 1.066a.69.69 0 0 0 .034.67Zm14.601-2.422-.189.378a.71.71 0 0 0 0 .618l.19.379H19.18c.043-.224.069-.456.069-.688 0-.232-.026-.464-.069-.688h3.085Zm-6.454-1.376a2.07 2.07 0 0 1 2.063 2.063 2.069 2.069 0 0 1-2.063 2.063 2.069 2.069 0 0 1-2.062-2.063c0-1.134.928-2.063 2.062-2.063Zm-6.256 1.754-.189-.379h3.085a3.654 3.654 0 0 0-.069.688c0 .232.026.464.07.688H9.366l.19-.379a.71.71 0 0 0 0-.618Z"/><path d="m42.316 20.05-1.84-1.221-.618-2.492a.69.69 0 0 0-.67-.524h-9.462a75.685 75.685 0 0 0-1.642-8.25h.782a.69.69 0 0 0 .688-.688V2.75a.69.69 0 0 0-.688-.688H2.75a.69.69 0 0 0-.688.688v4.125c0 .378.31.688.688.688h.782c-.79 3.102-2.157 9.315-2.157 15.125 0 5.087.533 9.453.937 12.048v.009a58.96 58.96 0 0 0 .395 2.251c-.387.645-1.332 2.423-1.332 4.254 0 .378.31.688.688.688h39.874a.69.69 0 0 0 .688-.688V20.625a.68.68 0 0 0-.31-.576Zm-6.274.575h-2.355a.69.69 0 0 0-.687.688c0 .378.31.687.688.687h2.062v12.091c-1.263-1.074-3.429-2.466-6.188-2.466-2.758 0-4.924 1.392-6.187 2.475V22h7.563a.69.69 0 0 0 .687-.688.69.69 0 0 0-.688-.687h-7.064l1.968-3.438h12.17l-1.969 3.438ZM16.5 22a3.447 3.447 0 0 1 2.75-3.369v1.994a2.069 2.069 0 0 1-2.063 2.063H16.5V22Zm-1.375.688h-.688a2.069 2.069 0 0 1-2.062-2.063v-1.994A3.447 3.447 0 0 1 15.125 22v.688Zm1.375 6.875a3.447 3.447 0 0 1 2.75-3.37v1.994a2.069 2.069 0 0 1-2.063 2.063H16.5v-.688Zm-1.375.687h-.688a2.069 2.069 0 0 1-2.062-2.063v-1.993a3.447 3.447 0 0 1 2.75 3.369v.687Zm1.375 6.875a3.447 3.447 0 0 1 2.75-3.369v1.994a2.069 2.069 0 0 1-2.063 2.063H16.5v-.688Zm-1.375.688h-.688a2.069 2.069 0 0 1-2.062-2.063v-1.994a3.447 3.447 0 0 1 2.75 3.369v.688Zm1.375 1.374h.688a3.436 3.436 0 0 0 3.437-3.437V33a.69.69 0 0 0-.688-.688 4.8 4.8 0 0 0-3.437 1.453v-2.14h.688a3.446 3.446 0 0 0 3.343-2.647c.498.172.988.378 1.469.602v10.983h-5.5v-1.376ZM3.437 3.438h24.75v2.75H3.438v-2.75Zm-.687 19.25c0-5.878 1.444-12.211 2.2-15.125h21.716c.465 1.797 1.186 4.839 1.668 8.25h-2.896a.672.672 0 0 0-.593.344l-2.75 4.813a.69.69 0 0 0-.095.343v6.764c-.447-.19-.91-.361-1.375-.516v-2.122a.69.69 0 0 0-.688-.688c-1.349 0-2.56.559-3.437 1.452v-2.14h.688a3.436 3.436 0 0 0 3.437-3.437v-2.75a.69.69 0 0 0-.688-.688 4.815 4.815 0 0 0-4.125 2.338 4.815 4.815 0 0 0-4.124-2.337.69.69 0 0 0-.688.687v2.75c0 1.9 1.538 3.438 3.438 3.438h.687v2.14a4.796 4.796 0 0 0-3.438-1.453.69.69 0 0 0-.687.688v2.122c-3.05.98-5.706 2.88-7.563 5.388a78.534 78.534 0 0 1-.687-10.26Zm1.263 14.816c.103-.155.138-.344.103-.533-.008-.017-.163-.739-.37-1.985 1.6-2.776 4.229-4.924 7.349-6.007a3.446 3.446 0 0 0 3.342 2.647h.688v2.14a4.796 4.796 0 0 0-3.438-1.453A.69.69 0 0 0 11 33v2.75c0 1.9 1.538 3.438 3.438 3.438h.687v1.374H2.802c.24-1.58 1.194-3.042 1.211-3.059Zm19.362-1.495C23.977 35.346 26.34 33 29.563 33c3.222 0 5.585 2.346 6.187 3.008v4.554H23.375v-4.554Zm17.875 4.554h-1.375V26.126a.69.69 0 0 0-.688-.688.69.69 0 0 0-.687.688v14.438h-1.375V22H38.5a.69.69 0 0 0 .688-.688.69.69 0 0 0-.688-.687h-.877l1.315-2.294.275 1.09c.043.164.146.31.284.405l1.753 1.168v19.569Z"/><path d="M29.563 24.75c-1.9 0-3.438 1.238-3.438 2.75s1.538 2.75 3.438 2.75c1.899 0 3.437-1.238 3.437-2.75s-1.538-2.75-3.438-2.75Zm0 4.125c-1.118 0-2.063-.627-2.063-1.375s.945-1.375 2.063-1.375c1.117 0 2.062.627 2.062 1.375s-.945 1.375-2.063 1.375Z"/></g><defs><clipPath id="clip0_75_27336"><path fill="#fff" d="M0 0h44v44H0z"/></clipPath></defs></svg>