<svg width="44" height="44" viewBox="0 0 44 44" fill="none" xmlns="http://www.w3.org/2000/svg"><g clip-path="url(#clip0_75_27351)" fill="#950404"><path d="M22 0C9.85 0 0 9.85 0 22s9.85 22 22 22 22-9.85 22-22C43.986 9.856 34.144.014 22 0Zm0 42.533C10.66 42.533 1.467 33.34 1.467 22 1.467 10.66 10.66 1.467 22 1.467c11.34 0 20.533 9.193 20.533 20.533C42.52 33.335 33.335 42.52 22 42.533Z"/><path d="M23.467 34.467a.734.734 0 0 0-.734.733.734.734 0 0 1-.733.733.733.733 0 1 0 0 1.467 2.2 2.2 0 0 0 2.2-2.2.733.733 0 0 0-.733-.733Z"/><path d="M31.533 27.867a3.671 3.671 0 0 0-3.667 3.666c.004.201.024.401.061.6l-1.452.561a5.14 5.14 0 0 0-3.74-2.566v-1.601a3.666 3.666 0 1 0-1.466 0v1.598a5.138 5.138 0 0 0-3.74 2.567l-1.452-.562c.035-.197.054-.396.056-.597a3.69 3.69 0 1 0-.587 1.97l1.449.56a5.133 5.133 0 1 0 10.004 0l1.448-.56a3.668 3.668 0 1 0 3.086-5.636Zm-19.067 5.866a2.2 2.2 0 1 1 0-4.4 2.2 2.2 0 0 1 0 4.4Zm7.334-8.8a2.2 2.2 0 1 1 4.4 0 2.2 2.2 0 0 1-4.4 0ZM22 38.867a3.667 3.667 0 1 1 0-7.334 3.667 3.667 0 0 1 0 7.334Zm9.533-5.134a2.2 2.2 0 1 1 0-4.4 2.2 2.2 0 0 1 0 4.4Zm-16.475-9.75a.733.733 0 0 0 0-.976c-.088-.1-2.189-2.416-4.88-2.416-.146 0-.283.01-.422.022l1.665-1.665a6.912 6.912 0 0 0 4.333 1.879c2.69 0 4.792-2.317 4.88-2.415a.734.734 0 0 0 0-.978c-.088-.099-2.19-2.416-4.88-2.416-.147 0-.283.01-.423.022L17 13.37a6.91 6.91 0 0 0 4.333 1.878c2.69 0 4.791-2.318 4.88-2.42a.733.733 0 0 0 0-.977 8.63 8.63 0 0 0-2.7-1.929c1.806-1.91 1.658-4.935 1.65-5.064a.733.733 0 0 0-.69-.69c-.128-.006-3.153-.156-5.064 1.652a8.625 8.625 0 0 0-1.928-2.701.733.733 0 0 0-.977 0c-.1.089-2.42 2.19-2.42 4.88a6.905 6.905 0 0 0 1.875 4.33L14.3 14c.011-.139.021-.277.021-.42 0-2.69-2.317-4.791-2.416-4.88a.733.733 0 0 0-.976 0c-.099.089-2.416 2.19-2.416 4.88a6.905 6.905 0 0 0 1.875 4.331l-1.664 1.665c.014-.14.021-.28.022-.42 0-2.69-2.317-4.792-2.416-4.88a.733.733 0 0 0-.977 0c-.103.088-2.42 2.19-2.42 4.88a6.91 6.91 0 0 0 1.876 4.331l-.733.734a.732.732 0 1 0 1.037 1.037l.733-.734a6.912 6.912 0 0 0 4.332 1.877c2.691 0 4.792-2.317 4.88-2.416Zm3.967-6.062a5.377 5.377 0 0 1-3.271 1.44 5.412 5.412 0 0 1-3.28-1.44 5.387 5.387 0 0 1 3.28-1.436 5.405 5.405 0 0 1 3.271 1.436Zm2.309-4.143a5.413 5.413 0 0 1-3.28-1.438 5.413 5.413 0 0 1 3.28-1.438 5.402 5.402 0 0 1 3.27 1.438 5.4 5.4 0 0 1-3.27 1.438Zm-.983-6.834a5.39 5.39 0 0 1 3.335-1.293 5.366 5.366 0 0 1-1.295 3.33 3.343 3.343 0 0 1-.614.478 4.909 4.909 0 0 0-.44-.023 5.25 5.25 0 0 0-1.757.317A5.281 5.281 0 0 0 19.897 8c0-.146-.01-.293-.023-.44.135-.223.295-.429.477-.615ZM16.993 4.73A5.4 5.4 0 0 1 18.431 8a5.411 5.411 0 0 1-1.438 3.278 5.411 5.411 0 0 1-1.438-3.279 5.4 5.4 0 0 1 1.438-3.269Zm-5.578 5.578a5.37 5.37 0 0 1 1.436 3.271 5.41 5.41 0 0 1-1.438 3.279 5.41 5.41 0 0 1-1.437-3.279 5.402 5.402 0 0 1 1.439-3.271Zm-5.573 5.578a5.4 5.4 0 0 1 1.434 3.269 5.41 5.41 0 0 1-1.438 3.278A5.41 5.41 0 0 1 4.4 19.155a5.4 5.4 0 0 1 1.438-3.27h.004Zm4.34 6.172a5.402 5.402 0 0 1 3.27 1.437 5.4 5.4 0 0 1-3.274 1.438A5.412 5.412 0 0 1 6.9 23.495a5.413 5.413 0 0 1 3.28-1.437h.003Z"/><path d="M27.483 10.375a.733.733 0 0 0-.242 1.008v.005a10.208 10.208 0 0 1 1.22 6.561c-.053.387-.146.757-.298 1.407a6.159 6.159 0 0 0-.18 1.571 5.821 5.821 0 0 0 7.408 5.256 5.395 5.395 0 0 0 3.646-3.111c1.128-2.606.374-5.737-.616-7.627-2.818-5.385-10.312-5.456-10.938-5.07Zm9.643 5.752c.906 1.729 1.433 4.367.569 6.362a3.92 3.92 0 0 1-2.693 2.28 4.356 4.356 0 0 1-5.55-3.895 4.817 4.817 0 0 1 .147-1.201c.14-.605.253-1.05.319-1.523.306-2.174.016-4.39-.84-6.412 3.32.176 6.544 1.52 8.048 4.389Z"/><path d="M34.441 23.376a.73.73 0 0 0 .202-.029 2.666 2.666 0 0 0 1.922-2.15 6.494 6.494 0 0 0-.182-2.992.733.733 0 1 0-1.411.403c.23.744.283 1.53.155 2.299a1.214 1.214 0 0 1-.888 1.03.733.733 0 0 0 .202 1.439Z"/></g><defs><clipPath id="clip0_75_27351"><path fill="#fff" d="M0 0h44v44H0z"/></clipPath></defs></svg>