<svg width="44" height="44" viewBox="0 0 44 44" fill="none" xmlns="http://www.w3.org/2000/svg"><g clip-path="url(#clip0_75_27365)" fill="#950404"><path d="M21.773 6.831a.751.751 0 0 0-.543-.205c-1.796.08-3.548.477-5.205 1.18a15.505 15.505 0 0 0-8.226 8.233 15.91 15.91 0 0 0-.726 2.2l-1.356-1.804c-.278-.366-.894-.366-1.173 0L.145 22.3a.73.73 0 0 0-.066.77.734.734 0 0 0 .653.403H2.25a19.842 19.842 0 0 0 1.129 5.3 19.798 19.798 0 0 0 11.847 11.84l.498-1.378a18.29 18.29 0 0 1-10.967-10.96 18.403 18.403 0 0 1-1.078-5.564.73.73 0 0 0-.733-.704h-.748l2.933-3.908 1.708 2.273.044.066 1.18 1.569h-.71a.74.74 0 0 0-.733.77 14.99 14.99 0 0 0 1.18 5.205 15.505 15.505 0 0 0 8.232 8.225c.719.3 1.452.535 2.2.726l-1.804 1.356a.743.743 0 0 0-.293.587c0 .227.11.447.293.586l5.865 4.399a.754.754 0 0 0 .44.146c.11 0 .227-.022.33-.08a.732.732 0 0 0 .403-.653v-1.517a19.847 19.847 0 0 0 5.3-1.13 19.799 19.799 0 0 0 11.84-11.846l-1.378-.499a18.308 18.308 0 0 1-10.96 10.967 18.402 18.402 0 0 1-5.564 1.078.73.73 0 0 0-.704.733v.748l-3.908-2.932 2.273-1.709.066-.044L22 35.943v.711c0 .198.08.389.227.528a.77.77 0 0 0 .543.205 14.992 14.992 0 0 0 5.205-1.18 15.505 15.505 0 0 0 8.226-8.233c.3-.718.535-1.451.725-2.2l1.357 1.804c.14.184.359.294.586.294.228 0 .447-.11.587-.294l4.399-5.864a.73.73 0 0 0 .066-.77.732.732 0 0 0-.653-.403h-1.517a19.846 19.846 0 0 0-1.13-5.3A19.799 19.799 0 0 0 28.774 3.4l-.498 1.378a18.29 18.29 0 0 1 10.967 10.96 18.405 18.405 0 0 1 1.078 5.564.73.73 0 0 0 .733.704h.748l-2.933 3.907-1.708-2.272-.044-.066-1.18-1.57h.71a.74.74 0 0 0 .733-.77 14.989 14.989 0 0 0-1.18-5.204 15.505 15.505 0 0 0-8.232-8.226 15.76 15.76 0 0 0-2.2-.725l1.804-1.357a.743.743 0 0 0 .293-.586.743.743 0 0 0-.293-.587L21.707.153a.73.73 0 0 0-.77-.066.732.732 0 0 0-.403.652v1.518a19.844 19.844 0 0 0-5.3 1.129 19.798 19.798 0 0 0-11.84 11.847l1.377.498a18.309 18.309 0 0 1 10.96-10.967 18.403 18.403 0 0 1 5.565-1.078.73.73 0 0 0 .704-.733v-.748l3.908 2.933-2.273 1.708-.066.044L22 8.07v-.71a.727.727 0 0 0-.227-.529Zm2.426 1.423c1.085.176 2.163.469 3.197.909a13.988 13.988 0 0 1 7.448 7.44 13.664 13.664 0 0 1 1.012 3.938H34.47a.716.716 0 0 0-.652.403.764.764 0 0 0 .066.77l1.87 2.492a13.927 13.927 0 0 1-.902 3.204c-1.4 3.335-4.106 6.048-7.441 7.44a13.664 13.664 0 0 1-3.937 1.012v-1.385a.731.731 0 0 0-1.173-.58l-2.493 1.87a13.792 13.792 0 0 1-3.197-.909 13.988 13.988 0 0 1-7.448-7.44A13.664 13.664 0 0 1 8.15 23.48h1.386a.716.716 0 0 0 .652-.403.764.764 0 0 0-.066-.77l-1.87-2.492c.17-1.085.47-2.163.903-3.204a13.973 13.973 0 0 1 7.44-7.441 13.665 13.665 0 0 1 3.938-1.012v1.386a.732.732 0 0 0 1.173.579l2.492-1.87Z"/><path d="M18.29 11.044a.74.74 0 0 0-.48.454l-1.2 3.385-3.722.05a.752.752 0 0 0-.592.296.688.688 0 0 0-.113.634l1.095 3.422L10.3 21.43a.71.71 0 0 0-.3.576c0 .23.113.44.3.577l2.978 2.146-1.095 3.422a.688.688 0 0 0 .113.634c.135.18.36.295.592.295l3.722.05 1.2 3.386a.74.74 0 0 0 .48.454.786.786 0 0 0 .668-.094l3.046-2.06 3.046 2.06c.195.13.435.166.66.094a.74.74 0 0 0 .48-.454l1.2-3.386 3.722-.05a.753.753 0 0 0 .592-.295.688.688 0 0 0 .113-.634L30.72 24.73l2.979-2.146a.71.71 0 0 0 .3-.577.71.71 0 0 0-.3-.576l-2.979-2.146 1.096-3.422a.688.688 0 0 0-.113-.634.752.752 0 0 0-.592-.295l-3.722-.05-1.2-3.386a.74.74 0 0 0-.48-.454.782.782 0 0 0-.668.093l-3.046 2.06-3.046-2.06a.769.769 0 0 0-.66-.093Zm4.141 3.63 2.656-1.8 1.05 2.953a.757.757 0 0 0 .698.49l3.256.043-.96 2.982a.703.703 0 0 0 .27.785L32.004 22l-2.603 1.873a.703.703 0 0 0-.27.785l.96 2.982-3.256.043a.74.74 0 0 0-.698.49l-1.05 2.954-2.656-1.801a.769.769 0 0 0-.435-.13c-.157 0-.3.043-.435.13l-2.656 1.8-1.05-2.953a.757.757 0 0 0-.698-.49l-3.256-.043.96-2.982a.703.703 0 0 0-.27-.785L11.988 22l2.603-1.873a.704.704 0 0 0 .27-.785l-.96-2.982 3.256-.043a.74.74 0 0 0 .698-.49l1.05-2.954 2.656 1.801a.783.783 0 0 0 .863 0h.007Z"/><path d="m16 23.194 4.206 2.683c.14.09.297.13.461.13a.838.838 0 0 0 .594-.24L28 18.907l-1.188-.9-6.262 6.381-3.628-2.312L16 23.187v.007Z"/></g><defs><clipPath id="clip0_75_27365"><path fill="#fff" d="M0 0h44v44H0z"/></clipPath></defs></svg>