<svg width="28" height="28" viewBox="0 0 28 28" fill="none" xmlns="http://www.w3.org/2000/svg"><path d="M14 0C8.296 0 3.656 4.64 3.656 10.343c0 1.878.842 3.897.878 3.982.272.646.808 1.649 1.195 2.236l7.092 10.746c.29.44.72.693 1.179.693.458 0 .888-.253 1.178-.692l7.093-10.747c.387-.587.923-1.59 1.195-2.236.035-.084.877-2.103.877-3.982C24.343 4.64 19.703 0 14 0Zm8.344 13.853a15.29 15.29 0 0 1-1.09 2.039l-7.092 10.746c-.14.212-.184.212-.324 0L6.745 15.892a15.292 15.292 0 0 1-1.09-2.04c-.01-.024-.782-1.883-.782-3.509 0-5.032 4.094-9.126 9.127-9.126 5.032 0 9.126 4.094 9.126 9.126 0 1.629-.774 3.492-.782 3.51Z" fill="#950404"/><path d="M14 4.867a5.482 5.482 0 0 0-5.477 5.476A5.482 5.482 0 0 0 14 15.82a5.482 5.482 0 0 0 5.476-5.476A5.482 5.482 0 0 0 14 4.867Zm0 9.735a4.264 4.264 0 0 1-4.26-4.259A4.264 4.264 0 0 1 14 6.084a4.264 4.264 0 0 1 4.258 4.26A4.264 4.264 0 0 1 14 14.601Z" fill="#950404"/></svg>