<svg width="28" height="28" viewBox="0 0 28 28" fill="none" xmlns="http://www.w3.org/2000/svg"><path d="M11.593 21.55c-.124 0-.247-.015-.367-.047-.597-.16-.99-.697-1.337-1.17a2.9 2.9 0 0 0-.73-.795 2.937 2.937 0 0 0-1.072-.243c-.606-.068-1.234-.138-1.663-.568-.429-.43-.499-1.056-.568-1.662a2.945 2.945 0 0 0-.242-1.073 2.914 2.914 0 0 0-.794-.73c-.475-.347-1.012-.74-1.171-1.337-.154-.574.096-1.145.338-1.697.177-.335.29-.7.332-1.076a3.042 3.042 0 0 0-.332-1.076c-.242-.553-.492-1.124-.338-1.697.159-.597.696-.99 1.17-1.338.308-.191.578-.439.795-.73.147-.339.23-.702.242-1.072.068-.605.138-1.233.568-1.662.43-.429 1.056-.499 1.663-.568.37-.012.733-.095 1.072-.243.29-.216.539-.486.73-.794.347-.474.74-1.012 1.337-1.17.573-.155 1.145.096 1.697.338.335.178.7.291 1.076.335a3.042 3.042 0 0 0 1.076-.332C15.628.9 16.2.65 16.772.804c.597.16.99.697 1.338 1.173.191.308.439.578.73.795.338.147.702.23 1.072.242.605.068 1.234.138 1.662.568.429.43.499 1.056.568 1.662.013.37.095.734.242 1.073.217.29.487.538.795.73.474.347 1.011.74 1.17 1.337.154.573-.096 1.145-.338 1.697-.177.335-.29.7-.332 1.076.043.376.155.741.332 1.076.242.553.492 1.123.339 1.697-.16.597-.697.99-1.171 1.338a2.897 2.897 0 0 0-.795.73c-.147.339-.23.702-.242 1.072-.068.605-.138 1.233-.568 1.662-.43.429-1.056.499-1.662.568-.37.012-.734.095-1.073.242a2.9 2.9 0 0 0-.73.795c-.347.474-.74 1.011-1.337 1.17-.574.152-1.145-.096-1.697-.338a3.043 3.043 0 0 0-1.076-.337 3.042 3.042 0 0 0-1.076.333 3.46 3.46 0 0 1-1.33.385Zm2.406-1.475c.482.036.951.17 1.38.395.454.198.88.385 1.198.302.34-.09.622-.477.922-.887a3.44 3.44 0 0 1 .962-1.005 3.49 3.49 0 0 1 1.367-.34c.5-.056.97-.108 1.21-.35.241-.24.295-.712.35-1.21.02-.474.135-.94.34-1.368a3.443 3.443 0 0 1 1.003-.961c.41-.3.795-.583.888-.923.084-.317-.103-.745-.303-1.198a3.549 3.549 0 0 1-.396-1.38 3.54 3.54 0 0 1 .396-1.378c.198-.454.386-.881.3-1.199-.09-.34-.477-.622-.886-.922a3.443 3.443 0 0 1-1.003-.962 3.482 3.482 0 0 1-.34-1.367c-.056-.499-.109-.97-.35-1.21-.242-.241-.712-.294-1.211-.35a3.49 3.49 0 0 1-1.368-.34A3.445 3.445 0 0 1 17.5 2.42c-.3-.41-.583-.795-.922-.887-.316-.084-.745.103-1.198.303a3.548 3.548 0 0 1-1.38.395 3.548 3.548 0 0 1-1.38-.398c-.454-.198-.88-.385-1.197-.3-.34.09-.623.477-.923.887a3.442 3.442 0 0 1-.961 1.003 3.49 3.49 0 0 1-1.368.34c-.499.056-.97.108-1.21.35-.241.241-.294.712-.35 1.21-.019.475-.135.94-.34 1.368a3.443 3.443 0 0 1-1.003.962c-.41.3-.797.583-.887.922-.085.317.103.745.302 1.198.225.428.36.898.396 1.38a3.543 3.543 0 0 1-.396 1.38c-.198.453-.385.88-.3 1.197.09.341.477.623.887.923.396.249.737.576 1.003.961.205.428.32.893.34 1.367.056.5.108.97.35 1.211.241.24.712.294 1.21.35.475.019.94.135 1.368.34.385.266.712.607.961 1.003.3.41.583.795.923.887.317.085.744-.102 1.197-.303A3.55 3.55 0 0 1 14 20.076v-.001Z" fill="#950404"/><path d="M14 18.416a7.265 7.265 0 1 1 7.264-7.264A7.272 7.272 0 0 1 14 18.416Zm0-13.77a6.508 6.508 0 1 0 6.507 6.508A6.515 6.515 0 0 0 14 4.646Z" fill="#950404"/><path d="M16.182 14.48a.38.38 0 0 1-.176-.043l-2.009-1.056-2.008 1.056a.378.378 0 0 1-.55-.4l.384-2.238-1.627-1.584a.378.378 0 0 1 .21-.646l2.246-.326 1.005-2.034a.393.393 0 0 1 .678 0l1.005 2.036 2.246.326a.378.378 0 0 1 .21.646L16.169 11.8l.386 2.235a.378.378 0 0 1-.373.442v.002Zm-2.185-1.905c.062 0 .122.015.177.043l1.506.792-.287-1.678a.378.378 0 0 1 .108-.334l1.219-1.188-1.684-.245a.378.378 0 0 1-.285-.207l-.754-1.526-.753 1.526a.378.378 0 0 1-.285.207l-1.684.245 1.219 1.188a.38.38 0 0 1 .108.335l-.287 1.677 1.506-.792a.378.378 0 0 1 .176-.043ZM16.93 27.24h-.035a.38.38 0 0 1-.32-.244l-2.35-6.302a.378.378 0 1 1 .72-.236l2.064 5.534 1.51-2.525a.378.378 0 0 1 .442-.165l2.8.918-1.948-5.21a.378.378 0 0 1 .708-.264l2.223 5.947a.378.378 0 0 1-.472.492l-3.26-1.07-1.758 2.942a.378.378 0 0 1-.324.183Zm-5.865 0a.38.38 0 0 1-.325-.184l-1.758-2.94-3.26 1.068a.38.38 0 0 1-.472-.491l2.223-5.948a.379.379 0 0 1 .71.265l-1.948 5.21 2.8-.918a.378.378 0 0 1 .442.166l1.508 2.524 2.076-5.562a.379.379 0 1 1 .709.264l-2.35 6.3a.379.379 0 0 1-.32.245c-.012.002-.024.002-.035.002Z" fill="#950404"/></svg>