<svg width="28" height="28" viewBox="0 0 28 28" fill="none" xmlns="http://www.w3.org/2000/svg"><path d="M12.833 25.352a2.333 2.333 0 0 0 2.334 0l8.166-4.667a2.333 2.333 0 0 0 1.167-2.018V9.333a2.333 2.333 0 0 0-1.167-2.018l-8.166-4.667a2.333 2.333 0 0 0-2.334 0L4.667 7.315A2.333 2.333 0 0 0 3.5 9.333v9.334a2.333 2.333 0 0 0 1.167 2.018l8.166 4.667Zm1.167.315V14" stroke="#950404" stroke-linecap="round" stroke-linejoin="round"/><path d="M3.838 8.166 14 13.999l10.16-5.833M8.75 4.982l10.5 6.009" stroke="#950404" stroke-linecap="round" stroke-linejoin="round"/></svg>