<svg width="28" height="28" viewBox="0 0 28 28" fill="none" xmlns="http://www.w3.org/2000/svg"><path d="M11.903 17.719a.793.793 0 0 1-.563-.233l-3.568-3.569a.542.542 0 1 1 .767-.766l3.364 3.365 7.56-7.562a.542.542 0 1 1 .767.766l-7.763 7.765a.796.796 0 0 1-.564.234Z" fill="#950404"/><path d="m14.095 26.548-7.171-5.051a6.698 6.698 0 0 1-2.916-5.568l-.04-12.603.722.248a9.029 9.029 0 0 0 4.755.301 9.118 9.118 0 0 0 4.196-2.107L14 1.45l.36.32a9.121 9.121 0 0 0 4.192 2.106 9.022 9.022 0 0 0 4.756-.3l.72-.249-.002.762c-.01 3.947-.023 7.894-.037 11.84a6.705 6.705 0 0 1-2.85 5.528l-7.045 5.092ZM5.058 4.818l.035 11.108a5.614 5.614 0 0 0 2.455 4.684l6.54 4.607 6.417-4.639a5.618 5.618 0 0 0 2.401-4.652c.013-3.703.024-7.406.035-11.108a10.104 10.104 0 0 1-4.607.12A10.192 10.192 0 0 1 14 2.884a10.187 10.187 0 0 1-4.336 2.052 10.087 10.087 0 0 1-4.607-.12Z" fill="#950404"/></svg>