<svg width="772" height="430" fill="none" xmlns="http://www.w3.org/2000/svg"><g opacity=".5"><mask id="a" maskUnits="userSpaceOnUse" x="284" y="121" width="487" height="214"><path d="M770.999 212.947V121.75H284v91.197c0 5.63 4.297 11.408 13.038 15.705l199.126 99.562c17.334 8.742 45.485 8.742 62.819 0l199.126-99.562c8.593-4.297 12.89-9.927 12.89-15.705z" fill="url(#paint0_linear)"/></mask><g mask="url(#a)"><path d="M770.999 212.947V121.75H284v91.197c0 5.63 4.297 11.408 13.038 15.705l199.126 99.562c17.334 8.742 45.485 8.742 62.819 0l199.126-99.562c8.593-4.297 12.89-9.927 12.89-15.705z" fill="url(#paint1_linear)"/></g></g><path d="M496.071 6.51c17.357-8.68 45.5-8.68 62.858 0l199.052 99.525c17.358 8.679 17.358 22.75 0 31.429L558.929 236.99c-17.358 8.679-45.501 8.679-62.858 0l-199.053-99.526c-17.357-8.679-17.357-22.75 0-31.429L496.071 6.509z" fill="#F6F5F8"/><defs><linearGradient id="paint0_linear" x1="219.524" y1="43.294" x2="206.84" y2="249.061" gradientUnits="userSpaceOnUse"><stop stop-color="#D857BC"/><stop offset="1" stop-color="#D857BC" stop-opacity="0"/></linearGradient><linearGradient id="paint1_linear" x1="770.999" y1="55.261" x2="291.663" y2="46.294" gradientUnits="userSpaceOnUse"><stop stop-color="#F6F5F8"/><stop offset=".365" stop-color="#F6F5F8"/><stop offset=".479" stop-color="#F6F5F8"/><stop offset=".599" stop-color="#F6F5F8"/><stop offset="1" stop-color="#F6F5F8"/></linearGradient></defs></svg>