<svg width="772" height="440" fill="none" xmlns="http://www.w3.org/2000/svg"><g opacity=".5"><mask id="a" maskUnits="userSpaceOnUse" x="0" y="289" width="344" height="152"><path d="M343.315 354.119v-64.29H0v64.29c0 3.969 3.029 8.043 9.191 11.072l140.376 70.188c12.221 6.162 32.065 6.162 44.286 0l140.376-70.188c6.058-3.029 9.086-6.998 9.086-11.072z" fill="url(#paint0_linear)"/></mask><g mask="url(#a)"><path d="M343.315 354.119v-64.29H0v64.29c0 3.969 3.029 8.043 9.191 11.072l140.376 70.188c12.221 6.162 32.065 6.162 44.286 0l140.376-70.188c6.058-3.029 9.086-6.998 9.086-11.072z" fill="url(#paint1_linear)"/></g></g><path d="M149.502 208.589c12.236-6.119 32.076-6.119 44.312 0l140.325 70.162c12.236 6.118 12.236 16.038 0 22.156l-140.325 70.162c-12.236 6.118-32.076 6.118-44.312 0L9.177 300.907c-12.236-6.118-12.236-16.038 0-22.156l140.325-70.162z" fill="#F6F5F8"/><defs><linearGradient id="paint0_linear" x1="-45.453" y1="234.521" x2="-54.395" y2="379.578" gradientUnits="userSpaceOnUse"><stop stop-color="#D857BC"/><stop offset="1" stop-color="#D857BC" stop-opacity="0"/></linearGradient><linearGradient id="paint1_linear" x1="343.316" y1="242.957" x2="5.402" y2="236.636" gradientUnits="userSpaceOnUse"><stop stop-color="#F6F5F8"/><stop offset=".365" stop-color="#F6F5F8"/><stop offset=".479" stop-color="#F6F5F8"/><stop offset=".599" stop-color="#F6F5F8"/><stop offset="1" stop-color="#F6F5F8"/></linearGradient></defs></svg>