<svg width="772" height="430" fill="none" xmlns="http://www.w3.org/2000/svg"><g opacity=".5"><mask id="a" maskUnits="userSpaceOnUse" x="316" y="363" width="137" height="61"><path d="M452.745 388.793v-25.607H316v25.607c0 1.581 1.206 3.204 3.661 4.41l55.913 27.956c4.867 2.455 12.771 2.455 17.639 0l55.912-27.956c2.413-1.206 3.62-2.787 3.62-4.41z" fill="url(#paint0_linear)"/></mask><g mask="url(#a)"><path d="M452.745 388.793v-25.607H316v25.607c0 1.581 1.206 3.204 3.661 4.41l55.913 27.956c4.867 2.455 12.771 2.455 17.639 0l55.912-27.956c2.413-1.206 3.62-2.787 3.62-4.41z" fill="url(#paint1_linear)"/></g></g><path d="M375.547 330.828c4.874-2.437 12.777-2.437 17.65 0l55.892 27.946c4.874 2.437 4.874 6.388 0 8.825l-55.892 27.946c-4.873 2.437-12.776 2.437-17.65 0l-55.892-27.946c-4.873-2.437-4.873-6.388 0-8.825l55.892-27.946z" fill="#F6F5F8"/><defs><linearGradient id="paint0_linear" x1="297.896" y1="341.156" x2="294.334" y2="398.934" gradientUnits="userSpaceOnUse"><stop stop-color="#D857BC"/><stop offset="1" stop-color="#D857BC" stop-opacity="0"/></linearGradient><linearGradient id="paint1_linear" x1="452.745" y1="344.516" x2="318.152" y2="341.999" gradientUnits="userSpaceOnUse"><stop stop-color="#F6F5F8"/><stop offset=".365" stop-color="#F6F5F8"/><stop offset=".479" stop-color="#F6F5F8"/><stop offset=".599" stop-color="#F6F5F8"/><stop offset="1" stop-color="#F6F5F8"/></linearGradient></defs></svg>