<svg xmlns="http://www.w3.org/2000/svg" width="210" height="70"><defs><filter id="a" width="192" height="122" x="-13" y="-13" filterUnits="userSpaceOnUse"><feOffset in="SourceGraphic" result="FeOffset1023Out"/><feGaussianBlur in="FeOffset1023Out" result="FeGaussianBlur1024Out" stdDeviation="10.8 10.8"/></filter><mask id="b" width="2.05" height="2.14" x="-1.03" y="-1.07"><path d="M24 24h118v48H24z" fill="#fff"/><path d="M27 27h112v31H45.59L40 69l-5.494-11H27z"/></mask></defs><g filter="url(#a)" transform="translate(57.485 -9.468)"><path d="M27 27v0h112v31H45.59v0L40 69v0l-5.494-11v0H27v0z" mask="url(#b)" fill="none" stroke="#dadee3" stroke-width="6" stroke-opacity=".75"/><path d="M27 27h112v31H45.59L40 69l-5.494-11H27z" fill="#dadee3" fill-opacity=".75"/></g><path d="M84.485 17.532h112v31h-93.41l-5.59 11-5.494-11h-7.506z" fill="#fff"/><path d="M105.82 38.34a2.223 2.223 0 01-3.166 0l-8.293-8.272a2.29 2.29 0 010-3.188 2.29 2.29 0 013.188 0l8.272 8.271a2.29 2.29 0 010 3.188z" fill="#53de80"/><path d="M114.243 38.34a2.223 2.223 0 01-3.166 0l-8.272-8.272a2.223 2.223 0 010-3.167c.883-.883 2.305-.883 3.166-.021l8.057 8.12c.883.884 1.098 2.456.215 3.34z" fill="#4256db"/><path d="M112.67 38.985a2.252 2.252 0 01-2.24-2.24v-8.271a2.252 2.252 0 012.24-2.24 2.252 2.252 0 012.24 2.24v8.271c0 1.25-1.012 2.24-2.24 2.24z" fill="#facb24"/><path d="M133.845 27.698l-2.219 7.28-2.283-7.043a1.274 1.274 0 00-1.228-.883c-.56 0-1.055.366-1.228.883L124.626 35l-2.197-7.302a.97.97 0 00-.905-.668.944.944 0 00-.905 1.228l2.822 9.026c.172.538.646.883 1.206.883a1.25 1.25 0 001.207-.883l2.283-7.109 2.283 7.109c.173.517.646.883 1.206.883.56 0 1.034-.366 1.207-.883l2.822-9.026a.944.944 0 00-.905-1.228.93.93 0 00-.905.668zm16.974 1.896a.945.945 0 00-.668.28l-3.037 3.123v-5.019a.956.956 0 00-.948-.948.956.956 0 00-.947.948v9.284c0 .517.43.948.947.948.517 0 .948-.43.948-.948v-1.766l1.077-1.077 2.348 3.36a.937.937 0 101.53-1.077l-2.564-3.597 1.96-1.917c.604-.582.194-1.594-.646-1.594zm18.891 5.514l-5.557-7.56a1.276 1.276 0 00-1.012-.518c-.69 0-1.271.56-1.271 1.271v8.94c0 .517.43.947.947.947.517 0 .948-.43.948-.947v-7.152l5.558 7.582c.237.324.624.517 1.012.517.69 0 1.271-.56 1.271-1.27v-8.94a.956.956 0 00-.948-.948.956.956 0 00-.948.948zm15.014-5.514V27.72a.956.956 0 00-.947-.948.956.956 0 00-.948.948v1.895h-.733a.864.864 0 00-.861.862c0 .474.388.861.861.861h.733v5.903c0 .517.43.947.948.947.517 0 .947-.43.947-.947v-5.903h.948a.864.864 0 00.862-.861.864.864 0 00-.862-.862h-.948zm-41.832 0a.944.944 0 00-.904.71c-.194-.15-.388-.301-.625-.43-.517-.28-1.142-.431-1.853-.431-.84 0-1.572.194-2.197.603a4.022 4.022 0 00-1.465 1.594c-.344.668-.517 1.4-.517 2.219 0 .797.173 1.55.517 2.218.345.668.84 1.228 1.465 1.616.625.388 1.357.603 2.197.603.711 0 1.336-.15 1.853-.43.215-.13.43-.26.625-.41.107.41.452.71.904.71.517 0 .948-.43.948-.947v-6.678a.956.956 0 00-.948-.947zm-3.188 6.979a2.67 2.67 0 112.671-2.671 2.684 2.684 0 01-2.67 2.67zm37.158 1.615a4.376 4.376 0 01-4.373-4.372c0-2.413 1.982-4.352 4.373-4.352a4.376 4.376 0 014.373 4.373.818.818 0 01-.819.819h-6.182a2.76 2.76 0 002.628 1.938.82.82 0 01.819.819c0 .41-.367.775-.819.775zm-2.606-5.17h5.234a2.76 2.76 0 00-2.628-1.938 2.734 2.734 0 00-2.606 1.939zm-17.535 5.17a4.376 4.376 0 01-4.372-4.372c0-2.413 1.96-4.352 4.372-4.352a4.376 4.376 0 014.373 4.373.818.818 0 01-.818.819h-6.183a2.76 2.76 0 002.628 1.938c.453 0 .819.367.819.819 0 .41-.366.775-.819.775zm-2.628-5.17h5.235a2.76 2.76 0 00-2.628-1.938c-1.206 0-2.24.818-2.607 1.939z" fill="#18184a"/></svg>