<svg xmlns="http://www.w3.org/2000/svg" width="500" height="303" viewBox="0 0 266 160"><path fill="#53DE80" d="M151.8 151.3c-10.9 10.9-28.6 10.9-39.5 0L9.1 48.2C-1.8 37.3-1.8 19.6 9.1 8.7 20-2.2 37.7-2.2 48.6 8.7l103.2 103.2c10.9 10.8 10.9 28.5 0 39.4z"/><path fill="#4256DB" d="M256.9 151.3c-10.9 10.9-28.6 10.9-39.5 0L114.2 48.2c-10.9-10.9-10.9-28.6 0-39.5 10.9-10.9 28.6-10.9 39.5 0l100.4 101.1c10.9 10.9 13.7 30.6 2.8 41.5z"/><path fill="#FACB24" d="M237.1 159.5c-15.4 0-27.9-12.5-27.9-27.9V28.4C209.2 13 221.7.5 237.1.5 252.5.5 265 13 265 28.4v103.2c.1 15.4-12.4 27.9-27.9 27.9z"/></svg>