<svg width="15" height="17" viewBox="0 0 15 17" fill="none" xmlns="http://www.w3.org/2000/svg"><path d="M6.334 0.037 C 5.694 0.177,5.211 0.647,5.050 1.285 C 5.002 1.477,5.000 1.566,5.000 4.078 L 5.000 6.673 3.156 6.681 C 1.331 6.688,1.311 6.689,1.169 6.743 C 0.677 6.930,0.363 7.206,0.162 7.631 C -0.010 7.992,-0.001 7.752,0.006 12.106 L 0.013 16.038 0.079 16.180 C 0.164 16.361,0.344 16.534,0.523 16.606 L 0.663 16.663 7.500 16.663 L 14.338 16.663 14.477 16.606 C 14.656 16.534,14.836 16.361,14.921 16.180 L 14.988 16.038 14.994 8.763 C 15.000 1.557,15.000 1.486,14.950 1.288 C 14.869 0.962,14.747 0.745,14.515 0.511 C 14.295 0.290,14.098 0.166,13.813 0.071 L 13.638 0.013 10.063 0.008 C 7.149 0.004,6.459 0.010,6.334 0.037 M9.175 4.163 L 9.175 5.000 8.338 5.000 L 7.500 5.000 7.500 4.163 L 7.500 3.325 8.338 3.325 L 9.175 3.325 9.175 4.163 M12.500 4.163 L 12.500 5.000 11.663 5.000 L 10.825 5.000 10.825 4.163 L 10.825 3.325 11.663 3.325 L 12.500 3.325 12.500 4.163 M12.500 7.500 L 12.500 8.325 11.663 8.325 L 10.825 8.325 10.825 7.500 L 10.825 6.675 11.663 6.675 L 12.500 6.675 12.500 7.500 M6.675 11.663 L 6.675 15.000 4.175 15.000 L 1.675 15.000 1.675 11.663 L 1.675 8.325 4.175 8.325 L 6.675 8.325 6.675 11.663 M12.500 10.838 L 12.500 11.675 11.663 11.675 L 10.825 11.675 10.825 10.838 L 10.825 10.000 11.663 10.000 L 12.500 10.000 12.500 10.838 " fill="#010101" stroke="none" fill-rule="evenodd"></path></svg>