<svg width="31" height="30" viewBox="0 0 31 30" fill="none" xmlns="http://www.w3.org/2000/svg"><path d="M4.819 3.075 C 3.913 3.272,3.065 4.063,2.777 4.980 L 2.661 5.348 2.661 15.500 L 2.661 25.652 2.776 26.014 C 2.840 26.213,2.956 26.487,3.035 26.622 C 3.238 26.972,3.783 27.502,4.130 27.687 C 4.763 28.025,4.015 28.003,15.164 28.003 C 24.094 28.003,25.331 27.994,25.599 27.924 C 26.518 27.685,27.275 26.932,27.573 25.962 C 27.663 25.666,27.668 25.209,27.668 15.500 L 27.668 5.348 27.553 4.984 C 27.256 4.038,26.424 3.271,25.478 3.071 C 24.978 2.965,5.307 2.969,4.819 3.075 M21.313 8.698 C 21.455 8.765,21.657 8.914,21.762 9.030 C 22.130 9.439,22.113 9.127,22.113 15.522 C 22.113 19.269,22.094 21.327,22.060 21.451 C 21.964 21.797,21.699 22.124,21.390 22.280 C 20.805 22.576,20.240 22.505,19.785 22.080 C 19.314 21.639,19.349 22.164,19.349 15.474 C 19.349 8.941,19.323 9.436,19.691 9.017 C 20.070 8.585,20.774 8.447,21.313 8.698 M15.805 12.888 C 16.281 13.129,16.531 13.558,16.531 14.131 C 16.531 14.571,16.421 14.840,16.123 15.130 C 15.612 15.626,14.720 15.627,14.220 15.132 C 13.931 14.846,13.829 14.611,13.805 14.176 C 13.772 13.588,14.021 13.148,14.530 12.895 C 14.902 12.709,15.446 12.706,15.805 12.888 M10.293 15.692 C 10.556 15.835,10.707 15.998,10.883 16.327 C 10.973 16.496,10.979 16.665,10.979 18.988 C 10.979 21.448,10.978 21.469,10.865 21.681 C 10.598 22.180,10.162 22.446,9.610 22.446 C 9.058 22.446,8.622 22.180,8.355 21.681 C 8.243 21.472,8.241 21.425,8.224 19.220 C 8.215 17.984,8.223 16.853,8.240 16.707 C 8.288 16.313,8.540 15.926,8.880 15.723 C 9.204 15.529,9.323 15.502,9.732 15.530 C 9.933 15.544,10.121 15.599,10.293 15.692 M15.791 18.435 C 16.065 18.575,16.395 18.950,16.473 19.210 C 16.510 19.336,16.533 19.795,16.533 20.414 C 16.532 21.354,16.525 21.432,16.412 21.675 C 16.279 21.960,15.995 22.238,15.710 22.361 C 15.421 22.487,14.853 22.470,14.559 22.328 C 14.280 22.192,14.030 21.929,13.893 21.626 C 13.810 21.444,13.797 21.277,13.797 20.383 C 13.797 19.454,13.808 19.326,13.902 19.117 C 14.072 18.741,14.382 18.465,14.776 18.335 C 15.000 18.262,15.560 18.317,15.791 18.435 " fill="#1BD679" stroke="none" fill-rule="evenodd"></path></svg>