<svg width="30" height="31" viewBox="0 0 30 31" fill="none" xmlns="http://www.w3.org/2000/svg"><path d="M17.325 5.800 L 14.825 8.300 12.627 8.300 L 10.429 8.300 12.455 10.338 C 14.445 12.338,14.879 12.828,15.292 13.538 C 16.222 15.137,16.605 16.632,16.533 18.375 C 16.485 19.519,16.245 20.475,15.767 21.422 C 15.227 22.492,14.133 23.944,12.683 25.515 L 12.231 26.006 9.140 22.915 L 6.050 19.825 6.050 24.063 L 6.050 28.300 12.925 28.300 L 19.800 28.300 19.800 24.565 L 19.800 20.830 21.316 19.302 C 23.164 17.441,23.531 16.983,24.121 15.808 C 25.309 13.443,25.289 10.598,24.069 8.202 C 23.487 7.060,23.024 6.495,21.089 4.563 L 19.824 3.300 17.325 5.800 M6.895 11.238 C 5.777 12.368,5.439 12.740,5.313 12.979 C 5.006 13.563,4.924 14.184,5.077 14.777 C 5.258 15.483,5.157 15.368,8.819 19.041 L 12.225 22.456 12.492 22.166 C 13.235 21.358,13.771 20.236,13.975 19.064 C 14.071 18.517,14.071 17.533,13.976 16.986 C 13.780 15.867,13.234 14.741,12.489 13.925 C 12.128 13.530,8.381 9.800,8.345 9.800 C 8.330 9.800,7.677 10.447,6.895 11.238 " fill="#1BD679" stroke="none" fill-rule="evenodd"></path></svg>