<svg width="7" height="14" viewBox="0 0 7 14" fill="none" xmlns="http://www.w3.org/2000/svg"><path d="M1.750 1.756 L 0.006 3.500 0.542 4.037 L 1.079 4.573 2.290 3.363 L 3.500 2.153 4.710 3.363 L 5.921 4.573 6.458 4.037 L 6.994 3.500 5.250 1.756 C 4.291 0.797,3.503 0.012,3.500 0.012 C 3.497 0.012,2.709 0.797,1.750 1.756 M0.545 9.692 L 0.011 10.227 1.755 11.976 L 3.498 13.726 5.249 11.976 L 7.000 10.226 6.665 9.890 C 6.480 9.705,6.236 9.464,6.121 9.354 L 5.913 9.154 4.707 10.361 L 3.500 11.567 2.295 10.363 C 1.633 9.700,1.088 9.158,1.085 9.158 C 1.082 9.158,0.839 9.399,0.545 9.692 " fill="white" stroke="none" fill-rule="evenodd"></path></svg>