<svg width="15" height="17" viewBox="0 0 15 17" fill="none" xmlns="http://www.w3.org/2000/svg"><path d="M2.500 0.985 L 2.500 1.820 1.906 1.830 C 1.340 1.839,1.304 1.842,1.129 1.905 C 0.628 2.086,0.269 2.445,0.090 2.947 L 0.013 3.163 0.013 9.300 L 0.013 15.438 0.086 15.661 C 0.260 16.194,0.660 16.578,1.225 16.754 L 1.413 16.813 7.500 16.813 L 13.588 16.813 13.775 16.754 C 14.331 16.580,14.729 16.203,14.914 15.674 L 14.988 15.463 14.994 9.394 C 15.001 2.673,15.013 3.148,14.838 2.779 C 14.674 2.435,14.388 2.142,14.069 1.992 C 13.759 1.846,13.727 1.841,13.094 1.830 L 12.500 1.820 12.500 0.985 L 12.500 0.150 11.663 0.150 L 10.825 0.150 10.825 0.988 L 10.825 1.825 7.500 1.825 L 4.175 1.825 4.175 0.988 L 4.175 0.150 3.338 0.150 L 2.500 0.150 2.500 0.985 M13.325 10.563 L 13.325 15.150 7.500 15.150 L 1.675 15.150 1.675 10.563 L 1.675 5.975 7.500 5.975 L 13.325 5.975 13.325 10.563 M7.500 11.400 L 7.500 13.475 9.588 13.475 L 11.675 13.475 11.675 11.400 L 11.675 9.325 9.588 9.325 L 7.500 9.325 7.500 11.400 " fill="#010101" stroke="none" fill-rule="evenodd"></path></svg>