<svg width="20" height="20" viewBox="0 0 20 20" fill="none" xmlns="http://www.w3.org/2000/svg"><path d="M9.183 0.034 C 7.200 0.198,5.403 0.909,3.767 2.179 C 3.337 2.513,2.566 3.275,2.230 3.700 C 1.038 5.207,0.364 6.769,0.078 8.685 C -0.005 9.245,-0.005 10.708,0.078 11.300 C 0.240 12.443,0.530 13.394,1.031 14.417 C 2.517 17.450,5.437 19.517,8.833 19.940 C 9.366 20.006,10.816 19.995,11.315 19.921 C 12.471 19.750,13.303 19.500,14.317 19.018 C 17.149 17.672,19.217 15.007,19.812 11.933 C 19.955 11.198,19.983 10.864,19.982 9.950 C 19.980 8.847,19.890 8.180,19.613 7.225 C 19.148 5.621,18.273 4.141,17.084 2.948 C 15.001 0.858,12.113 -0.207,9.183 0.034 M11.200 2.084 C 12.047 2.202,12.802 2.432,13.553 2.801 C 14.354 3.194,14.992 3.655,15.668 4.332 C 16.345 5.008,16.806 5.646,17.199 6.447 C 17.757 7.584,17.980 8.605,17.979 10.017 C 17.979 10.863,17.933 11.292,17.767 11.983 C 17.317 13.865,16.149 15.520,14.449 16.686 C 12.161 18.255,8.860 18.440,6.322 17.141 C 4.299 16.104,2.753 14.154,2.233 11.983 C 2.066 11.285,2.021 10.865,2.021 10.000 C 2.021 8.598,2.244 7.583,2.801 6.447 C 3.194 5.646,3.655 5.008,4.332 4.332 C 5.008 3.655,5.646 3.194,6.447 2.801 C 7.344 2.361,8.326 2.099,9.367 2.021 C 9.731 1.994,10.825 2.031,11.200 2.084 M14.033 6.596 C 13.969 6.610,13.864 6.646,13.800 6.677 C 13.733 6.709,12.610 7.807,11.151 9.266 L 8.619 11.798 7.484 10.672 C 6.194 9.391,6.191 9.388,5.750 9.390 C 5.428 9.391,5.289 9.445,5.065 9.655 C 4.861 9.845,4.783 10.038,4.783 10.350 C 4.783 10.782,4.729 10.715,6.508 12.488 C 8.014 13.990,8.128 14.096,8.295 14.150 C 8.523 14.224,8.797 14.206,9.017 14.102 C 9.151 14.039,9.752 13.456,12.124 11.087 C 14.571 8.642,15.077 8.122,15.139 7.983 C 15.235 7.767,15.244 7.386,15.157 7.161 C 15.088 6.984,14.837 6.730,14.653 6.654 C 14.505 6.592,14.190 6.562,14.033 6.596 " fill="#1BD679" stroke="none" fill-rule="evenodd"></path></svg>