<svg width="20" height="21" viewBox="0 0 20 21" fill="none" xmlns="http://www.w3.org/2000/svg"><path d="M9.383 0.519 C 9.310 0.527,9.085 0.549,8.883 0.569 C 7.528 0.705,6.045 1.205,4.850 1.930 C 2.507 3.353,0.909 5.543,0.266 8.214 C 0.071 9.024,0.021 9.489,0.021 10.500 C 0.021 11.283,0.032 11.487,0.096 11.900 C 0.440 14.132,1.387 16.023,2.932 17.568 C 4.477 19.113,6.368 20.060,8.600 20.404 C 9.013 20.468,9.217 20.479,10.000 20.479 C 11.034 20.479,11.483 20.429,12.354 20.216 C 16.016 19.318,18.818 16.516,19.716 12.854 C 19.929 11.983,19.979 11.534,19.979 10.500 C 19.979 9.493,19.931 9.039,19.734 8.216 C 19.100 5.556,17.493 3.353,15.150 1.930 C 13.994 1.229,12.640 0.760,11.250 0.581 C 10.891 0.534,9.647 0.493,9.383 0.519 M6.832 6.009 C 6.946 6.060,7.360 6.452,8.492 7.579 L 10.000 9.082 11.508 7.579 C 13.187 5.908,13.166 5.925,13.583 5.922 C 14.153 5.919,14.582 6.348,14.578 6.917 C 14.575 7.335,14.592 7.314,12.920 8.992 L 11.418 10.500 12.907 11.992 C 14.621 13.708,14.586 13.662,14.560 14.145 C 14.543 14.458,14.475 14.616,14.278 14.807 C 14.083 14.995,13.862 15.082,13.583 15.081 C 13.159 15.078,13.187 15.100,11.508 13.424 L 10.000 11.918 8.492 13.424 C 6.813 15.100,6.841 15.078,6.417 15.081 C 5.850 15.084,5.419 14.652,5.422 14.083 C 5.425 13.666,5.408 13.687,7.079 12.008 L 8.582 10.500 7.079 8.992 C 5.408 7.314,5.425 7.335,5.422 6.917 C 5.417 6.181,6.159 5.702,6.832 6.009 " fill="#010101" stroke="none" fill-rule="evenodd"></path></svg>