<svg width="12" height="12" viewBox="0 0 12 12" fill="none" xmlns="http://www.w3.org/2000/svg"><path d="M0.842 0.837 L -0.006 1.671 2.160 3.825 L 4.326 5.979 2.163 8.155 L 0.000 10.330 0.845 11.164 L 1.690 11.998 3.852 9.837 L 6.013 7.677 7.802 9.473 C 8.785 10.462,9.751 11.434,9.948 11.634 L 10.307 11.998 11.154 11.165 L 12.002 10.332 10.906 9.231 C 10.303 8.626,9.329 7.647,8.741 7.056 L 7.672 5.981 9.839 3.826 L 12.006 1.670 11.156 0.836 L 10.307 0.002 9.948 0.366 C 9.751 0.566,8.785 1.538,7.802 2.527 L 6.013 4.323 3.852 2.163 L 1.690 0.002 0.842 0.837 " fill="#333333" stroke="none" fill-rule="evenodd"></path></svg>