<svg width="30" height="31" viewBox="0 0 30 31" fill="none" xmlns="http://www.w3.org/2000/svg"><path d="M5.850 4.083 C 5.781 4.094,5.590 4.151,5.425 4.208 C 4.632 4.485,4.005 5.172,3.826 5.960 C 3.763 6.238,3.750 6.765,3.750 9.087 C 3.750 12.116,3.754 12.165,4.032 12.713 C 4.202 13.049,4.751 13.598,5.087 13.768 C 5.636 14.047,5.681 14.050,8.750 14.050 C 11.819 14.050,11.864 14.047,12.413 13.768 C 12.749 13.598,13.298 13.049,13.468 12.713 C 13.746 12.164,13.750 12.117,13.749 9.077 C 13.748 6.022,13.739 5.898,13.461 5.379 C 13.138 4.776,12.389 4.224,11.728 4.104 C 11.449 4.053,6.157 4.035,5.850 4.083 M18.350 4.083 C 18.281 4.094,18.090 4.151,17.925 4.208 C 17.132 4.485,16.505 5.172,16.326 5.960 C 16.263 6.238,16.250 6.765,16.250 9.087 C 16.250 12.116,16.254 12.165,16.532 12.713 C 16.702 13.049,17.251 13.598,17.587 13.768 C 18.136 14.047,18.181 14.050,21.250 14.050 C 24.319 14.050,24.364 14.047,24.913 13.768 C 25.249 13.598,25.798 13.049,25.968 12.713 C 26.246 12.164,26.250 12.117,26.249 9.077 C 26.248 6.022,26.239 5.898,25.961 5.379 C 25.638 4.776,24.889 4.224,24.228 4.104 C 23.949 4.053,18.657 4.035,18.350 4.083 M5.850 16.583 C 5.781 16.594,5.590 16.651,5.425 16.708 C 4.632 16.985,4.005 17.672,3.826 18.460 C 3.763 18.738,3.750 19.265,3.750 21.587 C 3.750 24.616,3.754 24.665,4.032 25.213 C 4.202 25.549,4.751 26.098,5.087 26.268 C 5.636 26.547,5.681 26.550,8.750 26.550 C 11.819 26.550,11.864 26.547,12.413 26.268 C 12.749 26.098,13.298 25.549,13.468 25.213 C 13.746 24.664,13.750 24.617,13.749 21.577 C 13.748 18.522,13.739 18.398,13.461 17.879 C 13.138 17.276,12.389 16.724,11.728 16.604 C 11.449 16.553,6.157 16.535,5.850 16.583 M18.350 16.583 C 18.281 16.594,18.090 16.651,17.925 16.708 C 17.132 16.985,16.505 17.672,16.326 18.460 C 16.263 18.738,16.250 19.265,16.250 21.587 C 16.250 24.616,16.254 24.665,16.532 25.213 C 16.702 25.549,17.251 26.098,17.587 26.268 C 18.136 26.547,18.181 26.550,21.250 26.550 C 24.319 26.550,24.364 26.547,24.913 26.268 C 25.249 26.098,25.798 25.549,25.968 25.213 C 26.246 24.664,26.250 24.617,26.249 21.577 C 26.248 18.522,26.239 18.398,25.961 17.879 C 25.638 17.276,24.889 16.724,24.228 16.604 C 23.949 16.553,18.657 16.535,18.350 16.583 " fill="#1BD679" stroke="none" fill-rule="evenodd"></path></svg>