<svg width="20" height="23" viewBox="0 0 20 23" fill="none" xmlns="http://www.w3.org/2000/svg"><path d="M6.233 0.633 L 6.233 1.267 3.117 1.267 L 0.000 1.267 0.000 2.517 L 0.000 3.767 0.616 3.767 L 1.232 3.767 1.242 12.075 C 1.250 18.577,1.262 20.416,1.294 20.533 C 1.438 21.053,1.649 21.424,1.996 21.767 C 2.361 22.129,2.765 22.349,3.250 22.450 C 3.607 22.525,16.385 22.524,16.746 22.450 C 17.711 22.250,18.423 21.553,18.706 20.533 C 18.738 20.416,18.750 18.577,18.758 12.075 L 18.768 3.767 19.384 3.767 L 20.000 3.767 20.000 2.517 L 20.000 1.267 16.883 1.267 L 13.767 1.267 13.767 0.633 L 13.767 0.000 10.000 0.000 L 6.233 0.000 6.233 0.633 M8.733 11.883 L 8.733 17.500 7.500 17.500 L 6.267 17.500 6.267 11.883 L 6.267 6.267 7.500 6.267 L 8.733 6.267 8.733 11.883 M13.733 11.883 L 13.733 17.500 12.500 17.500 L 11.267 17.500 11.267 11.883 L 11.267 6.267 12.500 6.267 L 13.733 6.267 13.733 11.883 " fill="#FF0000" stroke="none" fill-rule="evenodd"></path></svg>