<svg width="16" height="15" viewBox="0 0 16 15" fill="none" xmlns="http://www.w3.org/2000/svg"><path d="M5.410 0.035 C 5.261 0.091,5.132 0.179,5.061 0.274 C 5.025 0.321,4.758 0.762,4.469 1.253 C 4.179 1.745,3.940 2.149,3.937 2.151 C 3.935 2.153,3.462 2.258,2.886 2.384 C 2.310 2.510,1.793 2.636,1.738 2.664 C 1.502 2.785,1.356 3.024,1.357 3.290 C 1.357 3.380,1.400 3.882,1.452 4.407 C 1.504 4.931,1.547 5.383,1.547 5.412 C 1.547 5.442,1.251 5.803,0.847 6.266 C 0.462 6.707,0.117 7.124,0.080 7.193 C 0.027 7.293,0.013 7.357,0.013 7.507 C 0.013 7.656,0.027 7.721,0.080 7.820 C 0.117 7.889,0.462 8.306,0.847 8.747 C 1.251 9.210,1.547 9.571,1.547 9.601 C 1.547 9.630,1.504 10.082,1.452 10.607 C 1.400 11.131,1.357 11.634,1.357 11.723 C 1.357 11.935,1.432 12.097,1.602 12.250 C 1.756 12.389,1.736 12.383,2.990 12.655 L 3.939 12.862 4.482 13.781 C 4.780 14.287,5.061 14.740,5.105 14.787 C 5.244 14.933,5.383 14.987,5.621 14.987 L 5.832 14.987 6.808 14.573 C 7.345 14.346,7.801 14.160,7.821 14.160 C 7.842 14.160,8.298 14.346,8.834 14.573 L 9.811 14.987 10.017 14.987 C 10.268 14.987,10.407 14.928,10.553 14.760 C 10.608 14.697,10.881 14.258,11.160 13.785 C 11.439 13.312,11.679 12.910,11.693 12.891 C 11.708 12.872,12.191 12.754,12.767 12.629 C 13.343 12.503,13.861 12.377,13.918 12.348 C 14.061 12.275,14.205 12.097,14.259 11.927 C 14.303 11.787,14.301 11.757,14.202 10.725 C 14.146 10.143,14.099 9.641,14.097 9.611 C 14.094 9.573,14.327 9.286,14.810 8.731 C 15.238 8.239,15.549 7.858,15.582 7.787 C 15.654 7.627,15.654 7.387,15.582 7.227 C 15.549 7.155,15.238 6.774,14.810 6.283 C 14.327 5.727,14.094 5.440,14.097 5.403 C 14.099 5.372,14.146 4.870,14.202 4.288 C 14.301 3.260,14.303 3.226,14.259 3.088 C 14.205 2.917,14.088 2.769,13.938 2.682 C 13.857 2.635,13.536 2.554,12.773 2.388 C 12.177 2.258,11.708 2.143,11.693 2.123 C 11.679 2.104,11.439 1.700,11.160 1.225 C 10.582 0.240,10.482 0.113,10.226 0.039 C 10.129 0.010,10.026 -0.001,9.949 0.008 C 9.876 0.017,9.424 0.193,8.840 0.441 C 8.297 0.671,7.841 0.860,7.827 0.861 C 7.812 0.862,7.354 0.673,6.809 0.442 C 5.746 -0.009,5.623 -0.044,5.410 0.035 M8.152 3.916 C 8.288 3.985,8.464 4.178,8.510 4.309 C 8.564 4.463,8.564 7.617,8.510 7.771 C 8.463 7.903,8.288 8.095,8.149 8.166 C 7.880 8.303,7.522 8.244,7.306 8.029 C 7.087 7.810,7.093 7.868,7.093 6.039 C 7.093 4.297,7.092 4.317,7.242 4.120 C 7.318 4.019,7.445 3.932,7.597 3.875 C 7.727 3.826,8.018 3.848,8.152 3.916 M8.153 9.783 C 8.279 9.847,8.443 10.024,8.500 10.156 C 8.552 10.277,8.557 10.566,8.509 10.704 C 8.464 10.836,8.288 11.028,8.149 11.099 C 7.996 11.177,7.748 11.192,7.572 11.133 C 7.387 11.071,7.199 10.887,7.138 10.708 C 6.997 10.293,7.185 9.896,7.597 9.742 C 7.727 9.693,8.018 9.714,8.153 9.783 " fill="#FF0000" stroke="none" fill-rule="evenodd"></path></svg>