<svg width="31" height="30" viewBox="0 0 31 30" fill="none" xmlns="http://www.w3.org/2000/svg"><path d="M6.148 2.085 C 5.553 2.248,4.923 2.749,4.638 3.285 C 4.321 3.880,4.340 3.174,4.340 14.517 C 4.340 24.483,4.344 24.893,4.437 25.228 C 4.599 25.814,5.097 26.442,5.631 26.732 C 6.161 27.021,6.174 27.022,10.047 27.022 C 14.068 27.021,13.831 27.045,14.127 26.620 C 14.250 26.444,14.285 26.334,14.298 26.078 C 14.313 25.797,14.295 25.719,14.157 25.472 C 13.579 24.434,13.169 23.375,12.988 22.457 L 12.901 22.010 11.501 22.009 C 9.939 22.008,9.854 21.992,9.522 21.642 C 9.292 21.399,9.196 21.138,9.198 20.759 C 9.200 20.232,9.445 19.833,9.894 19.627 C 10.078 19.543,10.254 19.532,11.500 19.531 L 12.899 19.530 12.988 19.019 C 13.037 18.738,13.182 18.209,13.310 17.844 C 13.437 17.478,13.555 17.138,13.571 17.089 C 13.599 17.004,13.494 16.998,11.851 16.997 C 9.899 16.996,9.864 16.990,9.522 16.630 C 9.292 16.388,9.196 16.127,9.198 15.747 C 9.199 15.364,9.313 15.082,9.565 14.844 C 9.914 14.513,9.858 14.518,12.722 14.518 L 15.321 14.518 15.733 14.153 C 16.803 13.206,18.145 12.517,19.559 12.187 C 20.027 12.077,20.199 12.066,21.498 12.062 C 22.854 12.057,22.932 12.052,23.099 11.948 C 23.366 11.783,23.547 11.571,23.635 11.321 C 23.735 11.039,23.736 10.468,23.639 10.009 C 23.499 9.347,23.346 9.142,21.803 7.545 C 18.485 4.111,17.003 2.599,16.802 2.446 C 16.685 2.356,16.454 2.228,16.290 2.161 L 15.991 2.041 11.186 2.031 C 7.506 2.023,6.326 2.036,6.148 2.085 M18.548 7.931 L 21.244 10.721 18.747 10.736 C 17.054 10.746,16.186 10.733,16.055 10.695 C 15.785 10.617,15.506 10.357,15.363 10.050 L 15.243 9.791 15.242 7.156 L 15.242 4.522 15.547 4.831 C 15.715 5.002,17.066 6.396,18.548 7.931 M20.384 14.573 C 19.054 14.781,17.946 15.370,16.967 16.389 C 15.721 17.687,15.185 19.150,15.255 21.065 C 15.315 22.697,15.849 23.963,16.987 25.169 C 18.777 27.067,21.607 27.564,23.948 26.392 C 25.074 25.829,26.089 24.788,26.685 23.586 C 27.119 22.710,27.331 21.786,27.331 20.770 C 27.331 19.084,26.773 17.650,25.646 16.436 C 24.791 15.516,23.725 14.896,22.557 14.640 C 22.122 14.544,20.821 14.504,20.384 14.573 M21.678 17.054 C 22.520 17.209,23.186 17.886,23.302 18.705 C 23.398 19.382,23.223 19.822,22.572 20.545 C 22.019 21.159,21.914 21.323,21.848 21.678 C 21.762 22.146,21.673 22.315,21.467 22.401 C 21.067 22.568,20.752 22.226,20.760 21.634 C 20.768 21.102,20.882 20.870,21.410 20.313 C 21.671 20.039,21.947 19.738,22.023 19.644 C 22.537 19.014,22.098 18.083,21.287 18.083 C 20.987 18.083,20.740 18.203,20.428 18.498 C 20.094 18.814,19.928 18.886,19.725 18.802 C 19.535 18.723,19.375 18.518,19.375 18.352 C 19.375 18.280,19.448 18.108,19.536 17.970 C 19.897 17.408,20.546 17.045,21.264 17.004 C 21.323 17.001,21.509 17.024,21.678 17.054 M21.648 22.998 C 22.192 23.304,22.194 24.089,21.650 24.408 C 21.430 24.537,21.059 24.533,20.879 24.399 C 20.609 24.199,20.501 23.975,20.523 23.660 C 20.566 23.035,21.127 22.705,21.648 22.998 " fill="#1BD679" stroke="none" fill-rule="evenodd"></path></svg>