<svg width="14" height="16" viewBox="0 0 14 16" fill="none" xmlns="http://www.w3.org/2000/svg"><path d="M2.777 0.062 C 1.822 0.155,1.052 0.798,0.811 1.704 L 0.758 1.902 0.758 7.805 C 0.758 13.307,0.761 13.718,0.798 13.853 C 0.959 14.434,1.271 14.876,1.731 15.175 C 1.949 15.317,2.128 15.398,2.396 15.475 L 2.578 15.528 7.012 15.528 L 11.445 15.528 11.650 15.464 C 12.174 15.300,12.611 14.982,12.890 14.563 C 13.017 14.371,13.092 14.207,13.178 13.933 L 13.242 13.732 13.248 9.599 C 13.254 5.546,13.253 5.465,13.209 5.411 L 13.164 5.355 11.220 5.343 C 9.068 5.330,9.205 5.341,9.019 5.177 C 8.970 5.134,8.905 5.046,8.875 4.982 L 8.820 4.865 8.820 2.551 C 8.820 1.134,8.811 0.214,8.798 0.178 C 8.745 0.040,8.904 0.046,5.747 0.050 C 4.158 0.052,2.822 0.058,2.777 0.062 M10.095 0.375 L 10.033 0.423 10.033 2.215 C 10.033 3.993,10.034 4.008,10.082 4.069 L 10.130 4.130 11.526 4.130 C 12.294 4.130,12.939 4.124,12.960 4.116 C 13.060 4.077,13.001 3.985,11.932 2.520 C 10.420 0.447,10.442 0.476,10.334 0.398 C 10.219 0.314,10.177 0.310,10.095 0.375 M9.697 8.066 C 9.811 8.127,9.932 8.259,9.981 8.375 C 10.070 8.588,9.997 8.888,9.818 9.041 C 9.630 9.202,9.782 9.193,7.000 9.193 C 4.217 9.193,4.370 9.202,4.181 9.040 C 3.936 8.830,3.910 8.447,4.125 8.209 C 4.208 8.118,4.298 8.059,4.410 8.025 C 4.442 8.015,5.623 8.009,7.035 8.011 L 9.602 8.015 9.697 8.066 M9.604 11.211 C 9.751 11.255,9.898 11.379,9.964 11.517 C 10.026 11.644,10.034 11.869,9.981 11.995 C 9.927 12.122,9.801 12.251,9.672 12.312 L 9.555 12.366 7.000 12.366 L 4.445 12.366 4.328 12.312 C 4.264 12.282,4.174 12.215,4.127 12.163 C 3.909 11.922,3.935 11.541,4.184 11.328 C 4.364 11.173,4.236 11.180,6.990 11.178 C 9.129 11.177,9.505 11.182,9.604 11.211 " fill="#333333" stroke="none" fill-rule="evenodd"></path></svg>