<svg width="14" height="19" viewBox="0 0 14 19" fill="none" xmlns="http://www.w3.org/2000/svg"><path d="M0.735 0.869 C 0.620 0.909,0.425 1.048,0.350 1.144 C 0.311 1.193,0.256 1.284,0.227 1.346 L 0.175 1.458 0.175 8.517 C 0.175 14.405,0.180 15.604,0.207 15.750 C 0.371 16.642,1.040 17.398,1.907 17.672 C 2.012 17.705,3.472 18.007,5.150 18.343 C 8.129 18.940,8.209 18.955,8.493 18.956 C 8.828 18.959,8.979 18.926,9.249 18.793 C 9.676 18.581,10.019 18.144,10.119 17.679 L 10.157 17.504 11.128 17.494 C 12.204 17.482,12.258 17.475,12.565 17.324 C 12.970 17.124,13.255 16.795,13.431 16.322 C 13.474 16.209,13.475 15.994,13.482 10.057 C 13.488 5.495,13.483 3.857,13.463 3.710 C 13.327 2.715,12.736 1.824,11.865 1.301 C 11.670 1.184,11.323 1.035,11.086 0.966 C 10.633 0.835,10.838 0.840,5.618 0.842 C 2.280 0.843,0.784 0.851,0.735 0.869 M10.605 2.551 C 10.936 2.646,11.246 2.856,11.472 3.138 C 11.617 3.319,11.685 3.444,11.763 3.675 L 11.818 3.838 11.824 9.829 L 11.831 15.820 11.002 15.820 L 10.173 15.820 10.173 10.632 C 10.173 7.285,10.165 5.337,10.149 5.143 C 10.066 4.096,9.549 3.202,8.692 2.621 L 8.505 2.495 9.485 2.503 C 10.326 2.510,10.485 2.516,10.605 2.551 M4.579 3.231 C 6.145 3.542,7.301 3.782,7.398 3.817 C 7.927 4.008,8.319 4.445,8.455 4.995 C 8.490 5.134,8.493 5.693,8.493 11.232 C 8.493 17.016,8.491 17.316,8.453 17.305 C 8.430 17.298,7.089 17.029,5.472 16.707 C 3.855 16.385,2.468 16.100,2.390 16.075 C 2.106 15.983,1.895 15.722,1.844 15.400 C 1.828 15.299,1.820 13.155,1.820 8.963 L 1.820 2.678 1.873 2.691 C 1.901 2.698,3.119 2.941,4.579 3.231 M6.529 9.224 C 6.257 9.339,6.074 9.562,6.020 9.845 C 5.988 10.016,5.989 11.642,6.022 11.819 C 6.036 11.895,6.069 11.998,6.095 12.049 C 6.157 12.172,6.335 12.341,6.477 12.413 C 6.578 12.465,6.621 12.472,6.837 12.472 C 7.057 12.471,7.094 12.465,7.199 12.409 C 7.349 12.330,7.500 12.180,7.580 12.029 L 7.642 11.912 7.648 10.871 C 7.655 9.848,7.654 9.828,7.604 9.693 C 7.539 9.521,7.373 9.341,7.195 9.251 C 7.086 9.196,7.027 9.183,6.862 9.176 C 6.692 9.170,6.642 9.177,6.529 9.224 " stroke="none" fill-rule="evenodd" fill="black"></path></svg>