<svg width="6" height="20" viewBox="0 0 6 20" fill="none" xmlns="http://www.w3.org/2000/svg"><path d="M2.367 0.010 C 1.159 0.127,0.213 1.020,0.028 2.215 C -0.003 2.415,-0.003 2.765,0.028 2.965 C 0.073 3.256,0.154 3.509,0.282 3.763 C 0.682 4.555,1.464 5.088,2.346 5.171 C 2.503 5.186,2.837 5.177,2.980 5.155 C 3.247 5.114,3.485 5.038,3.735 4.915 C 4.259 4.657,4.655 4.261,4.915 3.735 C 5.094 3.373,5.180 3.005,5.180 2.599 C 5.180 2.421,5.169 2.278,5.144 2.140 C 4.959 1.106,4.173 0.289,3.145 0.061 C 2.925 0.012,2.577 -0.010,2.367 0.010 M2.385 7.416 C 2.021 7.453,1.730 7.535,1.437 7.681 C 0.999 7.902,0.637 8.232,0.385 8.644 C 0.193 8.958,0.078 9.279,0.024 9.655 C 0.002 9.804,-0.001 10.169,0.019 10.310 C 0.083 10.778,0.253 11.199,0.520 11.555 C 0.769 11.887,1.074 12.138,1.455 12.325 C 1.634 12.413,1.751 12.457,1.931 12.505 C 2.169 12.567,2.302 12.583,2.580 12.584 C 2.901 12.585,3.105 12.556,3.375 12.469 C 4.035 12.258,4.576 11.802,4.894 11.188 C 5.087 10.815,5.180 10.430,5.180 10.000 C 5.180 9.415,5.007 8.904,4.646 8.420 C 4.554 8.297,4.292 8.035,4.167 7.941 C 3.797 7.665,3.407 7.502,2.955 7.434 C 2.859 7.419,2.471 7.407,2.385 7.416 M2.280 14.835 C 1.404 14.948,0.666 15.469,0.273 16.252 C -0.150 17.097,-0.075 18.109,0.468 18.889 C 0.872 19.470,1.480 19.850,2.195 19.967 C 2.336 19.990,2.383 19.994,2.590 19.994 C 2.852 19.993,3.003 19.976,3.223 19.920 C 4.050 19.711,4.715 19.117,5.019 18.318 C 5.137 18.007,5.187 17.693,5.177 17.327 C 5.166 16.929,5.090 16.621,4.915 16.265 C 4.657 15.740,4.260 15.343,3.735 15.085 C 3.485 14.962,3.249 14.887,2.980 14.845 C 2.837 14.822,2.423 14.816,2.280 14.835 " stroke="none" fill="black" fill-rule="evenodd"></path></svg>