<svg width="12" height="15" viewBox="0 0 12 15" fill="none" xmlns="http://www.w3.org/2000/svg"><path d="M3.904 0.278 C 3.683 0.355,3.507 0.516,3.404 0.735 L 3.350 0.850 3.345 3.044 L 3.339 5.238 2.565 5.244 L 1.790 5.250 1.655 5.314 C 1.233 5.514,1.057 6.016,1.261 6.438 C 1.320 6.560,1.477 6.722,3.327 8.573 C 5.642 10.887,5.435 10.710,5.830 10.710 C 6.225 10.710,6.018 10.887,8.333 8.573 C 10.180 6.725,10.340 6.560,10.397 6.440 C 10.513 6.195,10.515 5.951,10.401 5.706 C 10.319 5.531,10.203 5.414,10.023 5.325 L 9.872 5.250 9.106 5.244 L 8.340 5.238 8.340 3.128 C 8.340 0.765,8.344 0.846,8.201 0.625 C 8.111 0.485,7.990 0.381,7.829 0.306 L 7.710 0.250 5.860 0.245 C 4.110 0.241,4.004 0.243,3.904 0.278 M0.578 12.778 C 0.360 12.848,0.179 13.012,0.073 13.238 C 0.016 13.357,0.010 13.388,0.011 13.560 C 0.011 13.711,0.021 13.774,0.058 13.867 C 0.151 14.101,0.354 14.287,0.597 14.360 C 0.729 14.400,0.773 14.401,5.880 14.395 L 11.030 14.390 11.165 14.326 C 11.345 14.241,11.504 14.088,11.586 13.921 C 11.646 13.798,11.650 13.777,11.650 13.570 C 11.650 13.360,11.647 13.342,11.583 13.214 C 11.499 13.042,11.358 12.901,11.186 12.817 L 11.051 12.750 5.870 12.746 C 0.937 12.742,0.685 12.744,0.578 12.778 " fill="#010101" stroke="none" fill-rule="evenodd"></path></svg>