<svg width="7" height="11" viewBox="0 0 7 11" fill="none" xmlns="http://www.w3.org/2000/svg"><path d="M3.208 0.011 C 2.659 0.058,2.156 0.218,1.712 0.487 C 1.448 0.647,1.229 0.825,0.986 1.075 C 0.563 1.511,0.291 1.973,0.136 2.520 C 0.051 2.822,0.014 3.071,0.004 3.413 C -0.025 4.380,0.279 5.237,0.905 5.950 C 1.320 6.423,1.791 6.736,2.380 6.930 C 2.534 6.981,2.793 7.047,2.839 7.047 C 2.857 7.047,2.858 7.106,2.858 7.729 L 2.858 8.412 2.523 8.412 C 2.338 8.412,2.153 8.417,2.112 8.424 C 1.951 8.449,1.784 8.562,1.689 8.709 C 1.559 8.910,1.559 9.208,1.689 9.410 C 1.746 9.498,1.859 9.602,1.939 9.641 C 2.063 9.701,2.111 9.707,2.498 9.707 L 2.856 9.707 2.861 10.089 C 2.867 10.504,2.873 10.547,2.937 10.668 C 2.955 10.700,3.003 10.763,3.044 10.806 C 3.102 10.868,3.141 10.897,3.218 10.935 L 3.317 10.984 3.479 10.988 C 3.660 10.993,3.732 10.977,3.839 10.908 C 3.912 10.861,4.022 10.743,4.063 10.668 C 4.127 10.548,4.133 10.504,4.139 10.089 L 4.144 9.707 4.498 9.707 C 4.708 9.707,4.877 9.701,4.914 9.694 C 5.107 9.654,5.296 9.491,5.366 9.302 C 5.488 8.978,5.348 8.617,5.046 8.474 C 4.930 8.420,4.857 8.412,4.477 8.412 L 4.142 8.412 4.142 7.729 C 4.142 7.106,4.143 7.047,4.161 7.047 C 4.207 7.047,4.466 6.981,4.620 6.930 C 5.302 6.705,5.838 6.313,6.290 5.708 C 6.663 5.210,6.887 4.653,6.973 4.008 C 7.001 3.791,7.002 3.249,6.973 3.045 C 6.849 2.162,6.472 1.465,5.789 0.856 C 5.328 0.445,4.783 0.177,4.165 0.059 C 3.934 0.014,3.454 -0.010,3.208 0.011 M3.723 1.307 C 4.048 1.338,4.332 1.428,4.594 1.582 C 5.122 1.893,5.519 2.416,5.657 2.984 C 5.707 3.188,5.721 3.319,5.721 3.564 C 5.721 3.975,5.652 4.268,5.477 4.608 C 5.180 5.182,4.631 5.620,4.029 5.764 C 3.707 5.841,3.293 5.841,2.971 5.764 C 2.363 5.619,1.818 5.181,1.518 4.597 C 1.268 4.111,1.207 3.519,1.348 2.961 C 1.527 2.255,2.114 1.628,2.809 1.401 C 3.081 1.312,3.419 1.277,3.723 1.307 " fill="#333333" stroke="none" fill-rule="evenodd"></path></svg>