<svg width="32" height="32" viewBox="0 0 32 32" fill="none" xmlns="http://www.w3.org/2000/svg"><path d="M12.342 0.102 C 11.947 0.281,11.934 0.327,11.590 2.741 L 11.280 4.921 11.120 4.976 C 10.776 5.092,9.634 5.711,9.097 6.073 C 8.785 6.282,8.508 6.453,8.481 6.453 C 8.454 6.453,7.510 6.093,6.384 5.653 C 4.183 4.794,4.030 4.754,3.693 4.960 C 3.480 5.089,3.515 5.035,1.603 8.255 C 0.533 10.056,0.034 10.946,0.016 11.083 C -0.042 11.516,0.004 11.562,1.968 13.036 L 3.785 14.400 3.746 14.653 C 3.701 14.940,3.693 16.768,3.733 17.251 L 3.760 17.570 1.973 18.935 C 0.709 19.902,0.159 20.355,0.090 20.484 C -0.106 20.857,-0.083 20.905,1.601 23.742 C 3.515 26.965,3.480 26.911,3.693 27.040 C 4.034 27.248,4.186 27.209,6.420 26.328 L 8.494 25.510 9.164 25.962 C 9.768 26.368,10.712 26.880,11.124 27.024 L 11.280 27.079 11.589 29.259 C 11.860 31.167,11.915 31.464,12.027 31.634 C 12.275 32.013,12.182 32.005,16.111 31.988 L 19.608 31.973 19.796 31.830 C 19.900 31.751,20.014 31.614,20.051 31.526 C 20.087 31.438,20.253 30.411,20.420 29.244 L 20.723 27.121 21.471 26.747 C 22.242 26.362,22.546 26.183,23.151 25.754 L 23.503 25.506 25.578 26.328 C 27.542 27.106,27.670 27.149,27.963 27.131 C 28.233 27.115,28.294 27.090,28.449 26.930 C 28.672 26.700,31.896 21.270,31.967 21.005 C 32.004 20.866,32.000 20.745,31.953 20.588 C 31.879 20.340,31.959 20.407,29.627 18.624 L 28.240 17.563 28.267 17.275 C 28.307 16.842,28.298 14.771,28.256 14.580 C 28.219 14.413,28.219 14.413,30.008 13.063 C 30.992 12.320,31.832 11.660,31.875 11.595 C 31.985 11.427,32.022 11.127,31.956 10.938 C 31.838 10.598,28.628 5.252,28.424 5.053 C 28.071 4.711,28.000 4.726,25.623 5.653 C 24.495 6.093,23.551 6.453,23.526 6.453 C 23.500 6.453,23.206 6.271,22.873 6.048 C 22.302 5.666,20.968 4.960,20.817 4.960 C 20.727 4.960,20.739 5.028,20.401 2.645 C 20.190 1.158,20.080 0.524,20.011 0.405 C 19.958 0.314,19.819 0.186,19.704 0.121 L 19.493 0.002 16.027 0.002 C 12.761 0.002,12.547 0.008,12.342 0.102 M17.205 10.528 C 19.358 10.986,21.026 12.560,21.586 14.660 C 21.705 15.106,21.723 15.282,21.723 16.000 C 21.723 16.725,21.706 16.892,21.582 17.356 C 20.734 20.543,17.356 22.337,14.160 21.299 C 11.291 20.367,9.658 17.371,10.460 14.512 C 11.051 12.399,12.955 10.769,15.198 10.455 C 15.665 10.389,16.737 10.428,17.205 10.528 " fill="white" stroke="none" fill-rule="evenodd"></path></svg>