<svg width="15" height="15" viewBox="0 0 15 15" fill="none" xmlns="http://www.w3.org/2000/svg"><path d="M6.888 0.026 C 5.400 0.148,4.052 0.682,2.825 1.634 C 2.502 1.884,1.925 2.456,1.673 2.775 C 0.779 3.905,0.273 5.077,0.059 6.514 C -0.004 6.934,-0.004 8.031,0.059 8.475 C 0.180 9.332,0.398 10.045,0.774 10.813 C 1.869 13.049,4.017 14.596,6.501 14.937 C 6.910 14.994,7.716 15.013,8.125 14.977 C 9.027 14.897,9.784 14.698,10.606 14.325 C 12.252 13.578,13.597 12.232,14.331 10.596 C 14.761 9.636,14.960 8.764,14.992 7.700 C 15.040 6.113,14.609 4.635,13.710 3.298 C 13.431 2.884,13.181 2.580,12.813 2.211 C 11.251 0.643,9.085 -0.155,6.888 0.026 M7.829 3.826 C 7.977 3.900,8.092 4.014,8.170 4.163 C 8.226 4.269,8.235 4.319,8.235 4.500 C 8.235 4.681,8.226 4.731,8.169 4.841 C 7.886 5.385,7.114 5.385,6.831 4.841 C 6.774 4.731,6.765 4.681,6.764 4.500 C 6.764 4.327,6.775 4.267,6.822 4.175 C 6.927 3.972,7.103 3.827,7.313 3.772 C 7.439 3.738,7.711 3.767,7.829 3.826 M8.250 9.000 L 8.250 11.250 7.500 11.250 L 6.750 11.250 6.750 9.000 L 6.750 6.750 7.500 6.750 L 8.250 6.750 8.250 9.000 " fill="white" stroke="none" fill-rule="evenodd"></path></svg>