<svg width="20" height="20" viewBox="0 0 20 20" fill="none" xmlns="http://www.w3.org/2000/svg"><path d="M9.183 0.034 C 7.200 0.198,5.403 0.909,3.767 2.179 C 3.337 2.513,2.566 3.275,2.230 3.700 C 1.038 5.207,0.364 6.769,0.078 8.685 C -0.005 9.245,-0.005 10.708,0.078 11.300 C 0.240 12.443,0.530 13.394,1.031 14.417 C 2.517 17.450,5.437 19.517,8.833 19.940 C 9.366 20.006,10.816 19.995,11.315 19.921 C 12.471 19.750,13.303 19.500,14.317 19.018 C 17.149 17.672,19.217 15.007,19.812 11.933 C 19.955 11.198,19.983 10.864,19.982 9.950 C 19.980 8.847,19.890 8.180,19.613 7.225 C 19.148 5.621,18.273 4.141,17.084 2.948 C 15.001 0.858,12.113 -0.207,9.183 0.034 M11.200 2.084 C 12.047 2.202,12.802 2.432,13.553 2.801 C 14.354 3.194,14.992 3.655,15.668 4.332 C 16.345 5.008,16.806 5.646,17.199 6.447 C 17.757 7.584,17.980 8.605,17.979 10.017 C 17.979 10.863,17.933 11.292,17.767 11.983 C 17.317 13.865,16.149 15.520,14.449 16.686 C 12.161 18.255,8.860 18.440,6.322 17.141 C 4.299 16.104,2.753 14.154,2.233 11.983 C 2.066 11.285,2.021 10.865,2.021 10.000 C 2.021 8.598,2.244 7.583,2.801 6.447 C 3.194 5.646,3.655 5.008,4.332 4.332 C 5.008 3.655,5.646 3.194,6.447 2.801 C 7.344 2.361,8.326 2.099,9.367 2.021 C 9.731 1.994,10.825 2.031,11.200 2.084 M9.750 5.029 C 9.433 5.113,9.136 5.389,9.050 5.678 C 8.973 5.936,8.976 10.073,9.053 10.333 C 9.127 10.583,9.417 10.873,9.667 10.947 C 9.893 11.014,10.107 11.014,10.333 10.947 C 10.583 10.873,10.873 10.583,10.947 10.333 C 11.024 10.073,11.027 5.936,10.950 5.678 C 10.887 5.465,10.677 5.223,10.459 5.113 C 10.280 5.022,9.931 4.981,9.750 5.029 M9.750 13.029 C 9.183 13.180,8.879 13.748,9.053 14.333 C 9.127 14.583,9.417 14.873,9.667 14.947 C 9.893 15.014,10.107 15.014,10.333 14.947 C 10.583 14.873,10.873 14.583,10.947 14.333 C 11.143 13.672,10.733 13.055,10.072 13.016 C 9.950 13.009,9.805 13.015,9.750 13.029 " fill="white" stroke="none" fill-rule="evenodd"></path></svg>