<svg width="11" height="11" viewBox="0 0 11 11" fill="none" xmlns="http://www.w3.org/2000/svg"><path d="M7.376 0.026 C 7.189 0.072,7.014 0.223,6.926 0.414 C 6.891 0.489,6.884 0.535,6.884 0.688 C 6.885 0.848,6.891 0.884,6.934 0.976 C 6.996 1.110,7.139 1.254,7.274 1.317 L 7.379 1.366 8.007 1.375 L 8.635 1.384 7.274 2.745 L 5.912 4.106 5.757 4.004 C 5.360 3.744,4.966 3.592,4.418 3.489 C 4.144 3.438,3.388 3.442,3.085 3.497 C 2.345 3.631,1.733 3.941,1.177 4.465 C 0.556 5.049,0.178 5.767,0.041 6.617 C -0.008 6.924,-0.002 7.582,0.053 7.893 C 0.195 8.696,0.510 9.293,1.109 9.891 C 1.707 10.490,2.304 10.805,3.107 10.947 C 3.418 11.002,4.076 11.008,4.383 10.959 C 5.209 10.826,5.856 10.496,6.454 9.900 C 7.079 9.278,7.426 8.575,7.536 7.709 C 7.564 7.486,7.564 6.979,7.536 6.765 C 7.465 6.224,7.264 5.658,6.986 5.216 L 6.893 5.069 8.255 3.719 L 9.616 2.369 9.625 2.995 L 9.634 3.621 9.683 3.726 C 9.746 3.860,9.890 4.004,10.024 4.066 C 10.116 4.110,10.152 4.116,10.313 4.116 C 10.473 4.116,10.509 4.110,10.601 4.066 C 10.735 4.004,10.879 3.860,10.942 3.726 L 10.991 3.621 10.991 2.063 L 10.991 0.504 10.942 0.399 C 10.879 0.265,10.746 0.132,10.606 0.063 L 10.496 0.009 8.983 0.006 C 7.815 0.003,7.449 0.008,7.376 0.026 M4.152 4.841 C 5.083 4.973,5.884 5.702,6.117 6.628 C 6.181 6.882,6.197 7.353,6.152 7.629 C 6.095 7.973,5.957 8.311,5.755 8.598 C 5.548 8.893,5.164 9.225,4.843 9.386 C 4.311 9.652,3.593 9.698,3.007 9.503 C 2.567 9.358,2.128 9.031,1.829 8.627 C 1.680 8.427,1.515 8.084,1.457 7.856 C 1.298 7.229,1.387 6.527,1.690 6.020 C 2.060 5.402,2.683 4.962,3.345 4.850 C 3.521 4.821,3.973 4.815,4.152 4.841 " fill="#333333" stroke="none" fill-rule="evenodd"></path></svg>