<svg width="20" height="21" viewBox="0 0 20 21" fill="none" xmlns="http://www.w3.org/2000/svg"><path d="M15.783 0.552 C 15.655 0.580,15.408 0.672,15.233 0.757 L 14.917 0.911 13.367 2.446 C 12.514 3.291,9.158 6.637,5.908 9.883 L -0.000 15.783 -0.000 18.142 L 0.000 20.500 2.359 20.500 L 4.717 20.500 12.170 13.042 C 18.766 6.440,19.634 5.559,19.730 5.373 C 19.888 5.069,19.968 4.762,19.990 4.383 C 20.013 3.982,19.937 3.629,19.746 3.233 C 19.633 3.001,19.548 2.907,18.554 1.914 C 17.406 0.769,17.365 0.736,16.867 0.586 C 16.602 0.506,16.070 0.489,15.783 0.552 M17.017 3.500 L 17.783 4.267 17.000 5.050 L 16.217 5.833 15.442 5.059 L 14.667 4.284 15.441 3.509 C 15.868 3.082,16.224 2.733,16.233 2.733 C 16.243 2.733,16.595 3.078,17.017 3.500 " fill="#959595" stroke="none" fill-rule="evenodd"></path></svg>