<svg width="35" height="31" viewBox="0 0 35 31" fill="none" xmlns="http://www.w3.org/2000/svg"><path d="M10.938 2.187 L 9.421 3.841 6.580 3.845 C 4.774 3.848,3.626 3.873,3.430 3.914 C 2.544 4.096,1.616 4.825,1.204 5.661 C 0.796 6.491,0.819 5.811,0.818 17.125 C 0.817 23.967,0.837 27.451,0.878 27.683 C 1.102 28.960,2.021 29.981,3.296 30.372 C 3.631 30.475,4.217 30.479,17.500 30.479 L 31.354 30.479 31.762 30.350 C 33.005 29.959,33.900 28.947,34.122 27.683 C 34.210 27.188,34.207 7.121,34.119 6.596 C 34.084 6.384,33.951 5.994,33.822 5.723 C 33.398 4.833,32.489 4.103,31.570 3.914 C 31.374 3.873,30.226 3.848,28.420 3.845 L 25.579 3.841 24.063 2.187 L 22.546 0.533 17.500 0.533 L 12.454 0.533 10.938 2.187 M19.152 9.826 C 20.538 10.142,21.643 10.745,22.684 11.751 C 23.908 12.935,24.609 14.234,24.887 15.830 C 25.033 16.671,24.973 18.271,24.765 19.066 C 24.417 20.397,23.768 21.509,22.758 22.502 C 21.299 23.937,19.579 24.635,17.500 24.635 C 15.412 24.635,13.686 23.931,12.231 22.488 C 11.212 21.476,10.583 20.396,10.236 19.066 C 10.025 18.258,9.969 16.787,10.115 15.869 C 10.361 14.314,11.018 13.063,12.215 11.865 C 13.383 10.697,14.580 10.057,16.129 9.772 C 16.736 9.661,18.572 9.693,19.152 9.826 M16.771 13.049 C 15.587 13.206,14.331 14.137,13.766 15.275 C 13.209 16.398,13.210 17.906,13.769 19.041 C 14.279 20.077,15.285 20.883,16.443 21.182 C 17.045 21.337,17.955 21.337,18.557 21.182 C 20.428 20.698,21.647 19.109,21.647 17.150 C 21.647 15.484,20.774 14.094,19.278 13.379 C 18.633 13.070,17.617 12.937,16.771 13.049 " fill="#333333" stroke="none" fill-rule="evenodd"></path></svg>