<svg width="20" height="20" viewBox="0 0 20 20" fill="none" xmlns="http://www.w3.org/2000/svg"><path d="M9.317 0.023 C 6.938 0.178,4.657 1.215,2.949 2.917 C 1.366 4.495,0.419 6.396,0.078 8.685 C -0.005 9.245,-0.005 10.708,0.078 11.300 C 0.240 12.443,0.530 13.394,1.031 14.417 C 2.517 17.450,5.437 19.517,8.833 19.940 C 9.366 20.006,10.816 19.995,11.315 19.921 C 12.471 19.750,13.303 19.500,14.317 19.018 C 17.149 17.672,19.217 15.007,19.812 11.933 C 19.955 11.198,19.983 10.864,19.982 9.950 C 19.980 8.847,19.890 8.180,19.613 7.225 C 18.960 4.973,17.492 2.972,15.550 1.686 C 13.678 0.447,11.543 -0.122,9.317 0.023 M11.200 2.084 C 12.047 2.202,12.802 2.432,13.553 2.801 C 14.354 3.194,14.992 3.655,15.668 4.332 C 16.345 5.008,16.806 5.646,17.199 6.447 C 17.757 7.584,17.980 8.605,17.979 10.017 C 17.979 10.863,17.933 11.292,17.767 11.983 C 17.317 13.865,16.149 15.520,14.449 16.686 C 12.161 18.255,8.860 18.440,6.322 17.141 C 4.299 16.104,2.753 14.154,2.233 11.983 C 2.066 11.285,2.021 10.865,2.021 10.000 C 2.021 8.598,2.244 7.583,2.801 6.447 C 3.194 5.646,3.655 5.008,4.332 4.332 C 5.008 3.655,5.646 3.194,6.447 2.801 C 7.344 2.361,8.326 2.099,9.367 2.021 C 9.731 1.994,10.825 2.031,11.200 2.084 M9.750 5.029 C 9.433 5.113,9.136 5.389,9.050 5.678 C 9.009 5.816,9.000 6.120,9.000 7.421 L 9.000 8.997 7.358 9.007 L 5.717 9.017 5.546 9.107 C 5.098 9.343,4.903 9.828,5.053 10.333 C 5.093 10.469,5.151 10.556,5.297 10.703 C 5.600 11.005,5.565 11.000,7.423 11.000 L 9.000 11.000 9.000 12.577 C 9.000 14.435,8.995 14.400,9.297 14.703 C 9.444 14.849,9.531 14.907,9.667 14.947 C 10.072 15.067,10.417 14.985,10.705 14.699 C 11.004 14.402,11.000 14.434,11.000 12.577 L 11.000 11.000 12.577 11.000 C 14.435 11.000,14.400 11.005,14.703 10.703 C 14.849 10.556,14.907 10.469,14.947 10.333 C 15.096 9.831,14.899 9.341,14.454 9.107 L 14.283 9.017 12.642 9.007 L 11.000 8.997 11.000 7.421 C 11.000 5.639,10.998 5.621,10.763 5.353 C 10.577 5.142,10.352 5.032,10.072 5.016 C 9.950 5.009,9.805 5.015,9.750 5.029 " fill="#333333" stroke="none" fill-rule="evenodd"></path></svg>