<svg width="30" height="31" viewBox="0 0 30 31" fill="none" xmlns="http://www.w3.org/2000/svg"><path d="M7.100 2.833 C 6.843 2.874,6.366 3.069,6.112 3.236 C 5.804 3.440,5.496 3.775,5.296 4.125 C 4.983 4.669,5.000 4.043,5.000 15.337 C 5.000 26.568,4.982 25.873,5.282 26.463 C 5.452 26.799,6.001 27.348,6.337 27.518 C 6.895 27.801,6.879 27.800,10.567 27.800 C 13.000 27.800,14.018 27.784,14.157 27.742 C 14.431 27.660,14.744 27.373,14.881 27.078 C 14.997 26.830,14.999 26.796,15.000 25.294 C 15.000 24.452,15.022 23.642,15.050 23.494 C 15.077 23.346,15.182 23.056,15.281 22.850 C 15.456 22.490,15.603 22.334,19.044 18.884 C 21.095 16.827,22.796 15.162,23.025 14.988 C 23.245 14.820,23.676 14.563,23.984 14.417 C 24.566 14.139,24.818 13.940,24.932 13.666 C 25.033 13.424,25.026 11.192,24.923 10.755 C 24.765 10.084,24.793 10.116,21.211 6.541 C 18.142 3.478,17.849 3.200,17.550 3.060 C 17.371 2.977,17.091 2.884,16.928 2.854 C 16.648 2.803,7.415 2.783,7.100 2.833 M19.888 11.539 C 18.069 11.549,17.264 11.537,17.115 11.496 C 16.852 11.424,16.531 11.154,16.386 10.882 C 16.276 10.677,16.275 10.653,16.261 8.000 L 16.248 5.325 19.349 8.425 L 22.450 11.525 19.888 11.539 M25.318 16.599 C 24.775 16.714,24.740 16.745,21.159 20.318 C 19.205 22.266,17.696 23.811,17.634 23.925 C 17.531 24.114,17.524 24.199,17.510 25.459 C 17.495 26.740,17.498 26.803,17.604 27.048 C 17.734 27.350,18.060 27.657,18.340 27.741 C 18.606 27.821,20.937 27.821,21.219 27.742 C 21.397 27.692,21.902 27.208,24.935 24.183 C 28.075 21.050,28.458 20.652,28.575 20.391 C 28.826 19.833,28.786 19.161,28.472 18.624 C 28.407 18.513,27.987 18.060,27.539 17.618 C 26.823 16.912,26.689 16.802,26.428 16.705 C 26.090 16.579,25.621 16.534,25.318 16.599 M26.296 19.021 L 26.865 19.592 26.297 20.197 L 25.728 20.802 25.127 20.201 L 24.526 19.601 25.100 19.025 C 25.415 18.709,25.685 18.450,25.700 18.450 C 25.715 18.450,25.983 18.707,26.296 19.021 " fill="#1BD679" stroke="none" fill-rule="evenodd"></path></svg>