<svg width="18" height="16" viewBox="0 0 18 16" fill="none" xmlns="http://www.w3.org/2000/svg"><path d="M3.990 2.475 L 3.990 4.140 9.000 4.140 L 14.010 4.140 14.010 2.475 L 14.010 0.810 9.000 0.810 L 3.990 0.810 3.990 2.475 M2.772 5.013 C 2.288 5.094,1.816 5.331,1.453 5.676 C 1.064 6.045,0.826 6.475,0.717 7.003 C 0.665 7.256,0.661 7.453,0.660 9.877 L 0.660 12.480 2.325 12.480 L 3.990 12.480 3.990 14.145 L 3.990 15.810 9.000 15.810 L 14.010 15.810 14.010 14.145 L 14.010 12.480 15.675 12.480 L 17.340 12.480 17.340 9.904 C 17.340 7.076,17.338 7.036,17.160 6.574 C 16.845 5.758,16.060 5.137,15.184 5.010 C 14.934 4.974,2.989 4.976,2.772 5.013 M15.203 6.737 C 15.386 6.828,15.492 6.945,15.594 7.166 C 15.656 7.301,15.665 7.359,15.653 7.526 C 15.636 7.768,15.560 7.926,15.383 8.090 C 14.965 8.475,14.318 8.333,14.076 7.804 C 13.933 7.491,14.025 7.075,14.287 6.854 C 14.538 6.641,14.915 6.593,15.203 6.737 M12.330 12.060 L 12.330 14.130 9.000 14.130 L 5.670 14.130 5.670 12.060 L 5.670 9.990 9.000 9.990 L 12.330 9.990 12.330 12.060 " fill="#010101" stroke="none" fill-rule="evenodd"></path></svg>