<svg width="158" height="136" viewBox="0 0 158 136" fill="none" xmlns="http://www.w3.org/2000/svg"><path d="M50.955 0.170 C 42.854 1.475,36.477 7.192,34.475 14.944 C 33.430 18.990,33.913 24.255,35.682 28.121 C 37.845 32.845,42.532 36.986,47.590 38.642 C 50.566 39.616,55.142 39.774,58.217 39.008 C 61.903 38.091,64.530 36.598,67.309 33.844 C 69.981 31.196,71.311 29.083,72.333 25.866 C 73.667 21.664,73.641 17.594,72.254 13.430 C 70.219 7.321,65.193 2.547,58.944 0.787 C 57.039 0.250,52.590 -0.093,50.955 0.170 M101.339 0.251 C 92.366 1.897,86.030 8.501,84.777 17.513 C 84.247 21.322,85.197 25.867,87.329 29.722 C 88.817 32.415,92.511 35.932,95.327 37.338 C 98.724 39.035,101.301 39.586,105.181 39.445 C 107.864 39.348,108.723 39.203,110.669 38.523 C 113.583 37.505,115.504 36.364,117.648 34.377 C 121.869 30.466,124.040 25.588,124.051 19.993 C 124.057 16.711,123.490 14.080,122.194 11.378 C 120.865 8.608,119.171 6.405,116.978 4.595 C 115.022 2.982,111.754 1.285,109.415 0.669 C 107.520 0.169,103.048 -0.062,101.339 0.251 M57.083 12.110 C 58.901 12.895,60.888 15.050,61.514 16.916 C 62.592 20.130,61.774 23.600,59.392 25.914 C 57.699 27.560,55.766 28.251,53.193 28.130 C 50.842 28.019,49.337 27.371,47.726 25.776 C 46.073 24.139,45.448 22.655,45.335 20.095 C 45.252 18.202,45.326 17.750,45.940 16.408 C 47.931 12.049,52.691 10.214,57.083 12.110 M108.065 12.217 C 109.795 13.063,111.222 14.579,112.105 16.508 C 112.670 17.742,112.746 18.233,112.665 20.095 C 112.515 23.487,110.915 26.015,108.018 27.432 C 106.221 28.311,103.326 28.408,101.325 27.657 C 95.949 25.638,94.266 18.530,98.144 14.217 C 100.036 12.113,102.057 11.272,104.862 11.421 C 106.097 11.487,107.062 11.727,108.065 12.217 M15.800 34.381 C 9.371 35.766,4.030 40.147,1.556 46.065 C -2.525 55.824,1.843 67.167,11.404 71.641 C 14.391 73.039,17.079 73.557,20.533 73.399 C 25.105 73.190,28.159 72.094,31.736 69.380 C 34.575 67.226,36.969 64.034,38.173 60.795 C 42.464 49.255,35.637 36.845,23.645 34.386 C 21.194 33.884,18.117 33.881,15.800 34.381 M134.168 34.406 C 124.654 36.435,117.988 45.143,118.586 54.764 C 118.779 57.880,119.289 59.831,120.621 62.548 C 123.033 67.470,127.227 70.993,132.729 72.721 C 134.385 73.241,135.256 73.338,138.250 73.338 C 141.240 73.338,142.119 73.240,143.780 72.722 C 149.263 71.010,153.639 67.280,156.023 62.286 C 157.219 59.782,157.729 57.754,157.914 54.764 C 158.422 46.588,153.573 38.799,145.962 35.566 C 142.342 34.028,137.962 33.597,134.168 34.406 M23.225 46.020 C 24.791 46.714,26.569 48.482,27.400 50.172 C 27.931 51.250,28.045 51.878,28.045 53.720 C 28.045 55.640,27.940 56.173,27.306 57.463 C 24.259 63.669,15.241 63.669,12.194 57.463 C 11.560 56.173,11.455 55.640,11.455 53.720 C 11.455 51.781,11.555 51.288,12.199 50.033 C 12.608 49.237,13.200 48.304,13.516 47.961 C 14.302 47.104,15.983 46.061,17.248 45.644 C 18.726 45.157,21.702 45.344,23.225 46.020 M75.840 45.432 C 75.623 45.474,74.556 45.653,73.470 45.828 C 67.664 46.764,62.031 49.686,57.374 54.175 C 53.549 57.863,51.191 61.746,49.224 67.601 C 46.824 74.746,43.570 78.782,36.895 82.892 C 29.400 87.507,24.835 93.895,23.116 102.173 C 22.422 105.513,22.569 110.968,23.441 114.287 C 26.817 127.134,37.890 135.699,51.087 135.673 C 54.877 135.666,57.192 135.187,62.131 133.389 C 68.804 130.959,72.630 130.247,79.000 130.247 C 85.271 130.247,89.882 131.109,95.837 133.395 C 101.112 135.420,102.751 135.745,107.572 135.724 C 111.253 135.707,112.112 135.617,114.375 135.012 C 122.375 132.872,128.958 127.576,132.573 120.371 C 134.890 115.754,135.776 111.557,135.546 106.292 C 135.135 96.911,130.128 88.389,122.187 83.554 C 117.057 80.431,114.669 78.381,112.509 75.245 C 110.744 72.684,110.032 71.215,108.762 67.513 C 106.757 61.672,104.319 57.717,100.409 53.963 C 95.652 49.397,89.685 46.505,83.082 45.566 C 81.406 45.328,76.806 45.242,75.840 45.432 M141.725 46.020 C 143.291 46.714,145.069 48.482,145.900 50.172 C 146.431 51.250,146.545 51.878,146.545 53.720 C 146.545 55.640,146.440 56.173,145.806 57.463 C 142.759 63.669,133.741 63.669,130.694 57.463 C 130.060 56.173,129.955 55.640,129.955 53.720 C 129.955 51.781,130.055 51.288,130.699 50.033 C 131.108 49.237,131.700 48.304,132.016 47.961 C 132.802 47.104,134.483 46.061,135.748 45.644 C 137.226 45.157,140.202 45.344,141.725 46.020 M83.159 57.028 C 85.785 57.559,89.464 59.351,91.640 61.158 C 94.675 63.678,96.585 66.660,98.090 71.232 C 101.112 80.407,106.083 86.755,114.290 91.917 C 115.929 92.948,117.736 94.166,118.307 94.625 C 120.595 96.463,123.099 100.664,123.749 103.753 C 124.189 105.844,124.127 109.752,123.624 111.701 C 121.522 119.844,113.399 125.398,105.228 124.279 C 103.979 124.108,101.705 123.471,99.670 122.722 C 93.765 120.549,89.413 119.544,83.600 119.011 C 75.492 118.267,67.012 119.501,58.437 122.671 C 54.001 124.311,51.529 124.720,48.623 124.295 C 44.860 123.745,41.876 122.349,39.235 119.905 C 35.307 116.268,33.239 110.530,33.971 105.299 C 34.323 102.789,34.596 101.959,35.906 99.415 C 37.375 96.562,39.401 94.576,43.300 92.169 C 51.772 86.938,56.842 80.546,59.910 71.232 C 61.415 66.660,63.325 63.678,66.360 61.158 C 68.461 59.413,72.188 57.566,74.655 57.047 C 77.109 56.531,80.665 56.523,83.159 57.028 " fill="#E7EDFB" stroke="none" fill-rule="evenodd"></path></svg>