<svg width="30" height="31" viewBox="0 0 30 31" fill="none" xmlns="http://www.w3.org/2000/svg"><path d="M7.839 9.581 L 1.002 14.805 1.753 15.804 L 2.504 16.803 3.115 16.335 C 3.450 16.077,4.231 15.477,4.850 15.003 L 5.975 14.140 5.988 19.845 L 6.000 25.550 9.125 25.550 L 12.250 25.550 12.250 21.800 L 12.250 18.050 14.750 18.050 L 17.250 18.050 17.250 21.800 L 17.250 25.550 20.375 25.550 L 23.500 25.550 23.512 19.845 L 23.525 14.140 24.650 15.003 C 25.269 15.477,26.050 16.077,26.385 16.335 L 26.996 16.803 27.747 15.804 L 28.498 14.805 25.999 12.900 L 23.500 10.995 23.500 8.272 L 23.500 5.550 21.626 5.550 L 19.752 5.550 19.738 6.825 L 19.725 8.100 17.266 6.225 C 15.913 5.194,14.777 4.351,14.741 4.353 C 14.705 4.354,11.599 6.707,7.839 9.581 M15.604 10.946 C 15.793 11.005,16.082 11.153,16.284 11.296 C 16.841 11.687,17.147 12.179,17.226 12.813 L 17.262 13.100 14.750 13.100 L 12.238 13.100 12.274 12.813 C 12.423 11.617,13.554 10.752,14.875 10.823 C 15.095 10.835,15.423 10.890,15.604 10.946 " fill="#1BD679" stroke="none" fill-rule="evenodd"></path></svg>