<svg width="22" height="22" viewBox="0 0 22 22" fill="none" xmlns="http://www.w3.org/2000/svg"><path d="M0.000 4.895 L 0.000 9.790 4.895 9.790 L 9.790 9.790 9.790 4.895 L 9.790 0.000 4.895 0.000 L 0.000 0.000 0.000 4.895 M12.210 4.895 L 12.210 9.790 17.105 9.790 L 22.000 9.790 22.000 4.895 L 22.000 0.000 17.105 0.000 L 12.210 0.000 12.210 4.895 M7.333 4.895 L 7.333 7.333 4.895 7.333 L 2.457 7.333 2.457 4.895 L 2.457 2.457 4.895 2.457 L 7.333 2.457 7.333 4.895 M19.543 4.895 L 19.543 7.333 17.105 7.333 L 14.667 7.333 14.667 4.895 L 14.667 2.457 17.105 2.457 L 19.543 2.457 19.543 4.895 M0.000 17.105 L 0.000 22.000 4.895 22.000 L 9.790 22.000 9.790 17.105 L 9.790 12.210 4.895 12.210 L 0.000 12.210 0.000 17.105 M12.210 13.438 L 12.210 14.667 13.438 14.667 L 14.667 14.667 14.667 15.895 L 14.667 17.123 13.438 17.123 L 12.210 17.123 12.210 18.333 L 12.210 19.543 13.438 19.543 L 14.667 19.543 14.667 20.772 L 14.667 22.000 15.895 22.000 L 17.123 22.000 17.123 20.772 L 17.123 19.543 18.333 19.543 L 19.543 19.543 19.543 20.772 L 19.543 22.000 20.772 22.000 L 22.000 22.000 22.000 20.772 L 22.000 19.543 20.772 19.543 L 19.543 19.543 19.543 18.333 L 19.543 17.123 20.772 17.123 L 22.000 17.123 22.000 15.895 L 22.000 14.667 20.772 14.667 L 19.543 14.667 19.543 13.438 L 19.543 12.210 18.333 12.210 L 17.123 12.210 17.123 13.438 L 17.123 14.667 15.895 14.667 L 14.667 14.667 14.667 13.438 L 14.667 12.210 13.438 12.210 L 12.210 12.210 12.210 13.438 M7.333 17.105 L 7.333 19.543 4.895 19.543 L 2.457 19.543 2.457 17.105 L 2.457 14.667 4.895 14.667 L 7.333 14.667 7.333 17.105 M19.543 15.895 L 19.543 17.123 18.333 17.123 L 17.123 17.123 17.123 18.333 L 17.123 19.543 15.895 19.543 L 14.667 19.543 14.667 18.333 L 14.667 17.123 15.895 17.123 L 17.123 17.123 17.123 15.895 L 17.123 14.667 18.333 14.667 L 19.543 14.667 19.543 15.895 " fill="#959595" stroke="none" fill-rule="evenodd"></path></svg>