<svg width="30" height="31" viewBox="0 0 30 31" fill="none" xmlns="http://www.w3.org/2000/svg"><path d="M12.362 4.355 C 11.283 4.481,10.309 4.959,9.505 5.758 C 8.702 6.556,8.258 7.388,8.073 8.444 C 7.758 10.247,8.452 12.054,9.907 13.218 C 10.500 13.693,11.046 13.964,11.850 14.183 C 12.328 14.313,13.635 14.311,14.149 14.179 C 15.521 13.828,16.650 12.972,17.361 11.742 C 18.047 10.556,18.189 9.008,17.734 7.675 C 17.226 6.188,15.814 4.865,14.325 4.481 C 13.982 4.393,13.220 4.298,12.925 4.307 C 12.815 4.310,12.562 4.332,12.362 4.355 M23.318 14.349 C 22.772 14.465,22.738 14.495,19.272 17.967 C 16.479 20.763,15.944 21.322,15.811 21.579 C 15.540 22.101,15.500 22.354,15.500 23.523 C 15.501 24.522,15.507 24.588,15.619 24.828 C 15.756 25.123,16.069 25.410,16.343 25.492 C 16.641 25.581,18.556 25.569,18.915 25.475 C 19.565 25.306,19.515 25.350,23.085 21.786 C 26.083 18.792,26.459 18.400,26.575 18.140 C 26.826 17.583,26.786 16.910,26.472 16.374 C 26.407 16.263,25.987 15.810,25.539 15.368 C 24.823 14.662,24.689 14.552,24.428 14.455 C 24.090 14.329,23.621 14.284,23.318 14.349 M11.761 15.606 C 9.544 15.756,7.045 16.454,5.035 17.487 C 4.271 17.879,3.560 18.656,3.257 19.431 C 3.040 19.986,3.000 20.365,3.000 21.885 C 3.001 23.292,3.004 23.331,3.119 23.578 C 3.256 23.873,3.569 24.160,3.843 24.242 C 3.984 24.284,5.261 24.300,8.514 24.300 L 12.991 24.300 13.012 22.938 C 13.032 21.663,13.041 21.549,13.157 21.169 C 13.420 20.310,13.533 20.167,15.616 18.068 C 16.657 17.019,17.490 16.150,17.467 16.136 C 17.376 16.080,16.190 15.837,15.576 15.747 C 14.327 15.565,13.056 15.518,11.761 15.606 M24.296 16.771 L 24.865 17.342 24.297 17.947 L 23.728 18.552 23.127 17.951 L 22.526 17.351 23.100 16.775 C 23.415 16.459,23.685 16.200,23.700 16.200 C 23.715 16.200,23.983 16.457,24.296 16.771 " fill="#1BD679" stroke="none" fill-rule="evenodd"></path></svg>