<svg width="20" height="20" viewBox="0 0 20 20" fill="none" xmlns="http://www.w3.org/2000/svg"><path d="M5.495 0.797 C 5.194 0.894,5.057 1.022,2.677 3.441 C 1.361 4.779,0.242 5.934,0.192 6.008 C 0.058 6.206,0.016 6.378,0.018 6.733 C 0.021 7.321,-0.097 7.170,2.063 9.361 C 3.101 10.414,4.213 11.543,4.533 11.870 C 5.260 12.611,5.327 12.650,5.883 12.650 C 6.217 12.650,6.267 12.642,6.440 12.557 C 6.930 12.316,7.211 11.727,7.105 11.162 C 7.033 10.775,6.996 10.729,5.645 9.350 L 4.372 8.050 8.628 8.041 C 12.320 8.034,12.933 8.039,13.259 8.084 C 14.348 8.234,15.351 8.738,16.160 9.541 C 16.916 10.293,17.290 11.067,17.402 12.117 C 17.539 13.391,17.145 14.584,16.291 15.486 C 15.529 16.292,14.654 16.785,13.536 17.040 C 13.219 17.113,13.188 17.113,8.767 17.133 C 5.692 17.146,4.285 17.163,4.216 17.188 C 3.467 17.457,3.124 18.203,3.404 18.955 C 3.505 19.224,3.837 19.557,4.117 19.670 L 4.317 19.750 8.283 19.760 C 12.449 19.771,13.139 19.755,13.867 19.631 C 15.600 19.336,17.201 18.428,18.358 17.085 C 19.277 16.017,19.785 14.854,19.950 13.442 C 20.109 12.084,19.881 10.669,19.319 9.517 C 18.397 7.627,16.423 6.096,14.295 5.620 C 13.392 5.419,13.541 5.424,8.757 5.403 L 4.363 5.383 5.640 4.083 C 7.131 2.566,7.114 2.590,7.113 2.033 C 7.113 1.780,7.097 1.677,7.035 1.518 C 6.935 1.265,6.686 0.997,6.437 0.876 C 6.277 0.797,6.204 0.783,5.917 0.777 C 5.734 0.772,5.543 0.782,5.495 0.797 " fill="#333333" stroke="none" fill-rule="evenodd"></path></svg>