<svg width="30" height="31" viewBox="0 0 30 31" fill="none" xmlns="http://www.w3.org/2000/svg"><path d="M12.925 3.369 C 12.200 3.546,11.568 4.144,11.334 4.875 C 11.290 5.013,11.187 5.617,11.105 6.217 C 11.024 6.818,10.950 7.313,10.941 7.317 C 10.479 7.538,10.097 7.748,9.832 7.926 L 9.497 8.151 8.349 7.672 C 7.409 7.281,7.140 7.189,6.863 7.166 C 6.454 7.132,6.000 7.236,5.629 7.448 C 5.127 7.735,4.926 8.002,4.026 9.581 C 3.561 10.395,3.141 11.177,3.092 11.318 C 2.873 11.951,3.088 12.854,3.588 13.408 C 3.690 13.520,4.167 13.911,4.649 14.277 L 5.525 14.941 5.522 15.808 L 5.520 16.675 4.647 17.334 C 4.168 17.697,3.696 18.082,3.599 18.190 C 3.064 18.789,2.868 19.652,3.114 20.332 C 3.175 20.502,3.596 21.288,4.050 22.080 C 4.999 23.737,5.165 23.943,5.784 24.238 C 6.159 24.417,6.197 24.425,6.700 24.425 L 7.225 24.425 8.358 23.944 L 9.491 23.464 9.858 23.712 C 10.060 23.849,10.388 24.040,10.588 24.136 C 10.841 24.258,10.958 24.344,10.973 24.418 C 10.985 24.477,11.061 24.998,11.141 25.575 C 11.307 26.771,11.394 27.049,11.737 27.473 C 12.035 27.840,12.366 28.070,12.785 28.199 C 13.085 28.292,13.248 28.300,14.900 28.300 C 16.552 28.300,16.715 28.292,17.015 28.199 C 17.434 28.070,17.765 27.840,18.063 27.473 C 18.452 26.992,18.499 26.803,18.849 24.315 C 18.849 24.310,18.991 24.238,19.164 24.155 C 19.337 24.073,19.665 23.884,19.894 23.735 L 20.310 23.464 21.413 23.941 C 22.431 24.380,22.547 24.419,22.909 24.440 C 23.360 24.466,23.645 24.403,24.064 24.185 C 24.554 23.930,24.841 23.560,25.720 22.053 C 26.158 21.303,26.568 20.563,26.631 20.407 C 26.841 19.897,26.771 19.135,26.465 18.606 C 26.254 18.241,26.015 18.016,25.095 17.319 L 24.214 16.650 24.263 16.387 C 24.289 16.243,24.300 15.861,24.285 15.539 L 24.260 14.953 25.143 14.283 C 25.629 13.914,26.110 13.520,26.212 13.408 C 26.751 12.811,26.946 11.832,26.655 11.174 C 26.595 11.037,26.181 10.288,25.735 9.510 C 24.873 8.004,24.666 7.731,24.171 7.448 C 23.800 7.236,23.346 7.132,22.937 7.166 C 22.660 7.189,22.392 7.281,21.454 7.671 L 20.310 8.148 19.968 7.918 C 19.779 7.792,19.451 7.601,19.239 7.494 C 18.961 7.355,18.845 7.268,18.828 7.187 C 18.815 7.126,18.744 6.626,18.671 6.077 C 18.597 5.528,18.498 4.963,18.449 4.822 C 18.197 4.089,17.554 3.514,16.810 3.356 C 16.438 3.277,13.260 3.288,12.925 3.369 M15.750 11.503 C 17.282 11.751,18.686 13.001,19.145 14.527 C 19.293 15.017,19.352 15.698,19.297 16.259 C 19.193 17.321,18.810 18.124,18.042 18.892 C 17.171 19.762,16.207 20.162,14.975 20.164 C 13.771 20.165,12.850 19.814,12.018 19.036 C 11.377 18.437,10.974 17.786,10.741 16.975 C 10.589 16.443,10.577 15.211,10.719 14.700 C 11.176 13.056,12.545 11.767,14.113 11.505 C 14.488 11.443,15.369 11.442,15.750 11.503 " fill="#1BD679" stroke="none" fill-rule="evenodd"></path></svg>