<svg width="30" height="31" viewBox="0 0 30 31" fill="none" xmlns="http://www.w3.org/2000/svg"><path d="M13.575 3.353 C 12.957 3.411,12.113 3.567,11.546 3.730 C 9.214 4.397,7.086 6.006,5.636 8.200 C 3.522 11.397,3.447 16.052,5.456 19.377 C 6.319 20.807,7.659 22.158,9.104 23.056 C 10.615 23.995,12.602 24.550,14.455 24.550 C 14.937 24.550,14.950 24.553,14.950 24.664 C 14.950 24.801,15.186 27.666,15.227 28.036 L 15.257 28.297 15.754 28.048 C 16.865 27.491,18.011 26.748,19.100 25.879 C 19.870 25.265,21.231 23.912,21.820 23.175 C 23.509 21.064,24.678 18.537,25.070 16.150 C 25.696 12.341,24.677 8.973,22.127 6.423 C 20.497 4.794,18.467 3.762,16.225 3.425 C 15.591 3.329,14.226 3.292,13.575 3.353 M15.251 8.353 C 16.403 8.497,17.461 9.131,17.885 9.931 C 18.100 10.337,18.194 10.687,18.230 11.220 C 18.306 12.329,17.953 13.041,16.625 14.450 C 15.749 15.380,15.662 15.532,15.584 16.274 L 15.529 16.800 14.607 16.800 L 13.685 16.800 13.718 16.163 C 13.786 14.869,13.849 14.741,14.946 13.650 C 16.116 12.487,16.336 12.126,16.288 11.450 C 16.223 10.532,15.451 9.968,14.400 10.071 C 13.752 10.135,13.274 10.508,12.918 11.230 C 12.817 11.434,12.728 11.600,12.720 11.600 C 12.694 11.600,11.029 10.946,11.012 10.929 C 10.976 10.893,11.262 10.321,11.475 9.999 C 11.600 9.812,11.879 9.492,12.096 9.288 C 12.948 8.486,13.948 8.190,15.251 8.353 M15.218 18.390 C 15.634 18.616,15.850 18.995,15.850 19.500 C 15.850 19.667,15.815 19.887,15.773 19.989 C 15.685 20.200,15.390 20.524,15.193 20.628 C 14.244 21.126,13.119 20.266,13.351 19.220 C 13.537 18.378,14.451 17.972,15.218 18.390 " fill="#1BD679" stroke="none" fill-rule="evenodd"></path></svg>