<svg width="30" height="31" viewBox="0 0 30 31" fill="none" xmlns="http://www.w3.org/2000/svg"><path d="M14.403 6.351 C 13.968 6.412,13.448 6.575,13.052 6.774 C 10.540 8.041,9.851 11.274,11.628 13.453 C 13.360 15.576,16.640 15.576,18.372 13.453 C 19.120 12.536,19.469 11.377,19.342 10.228 C 19.172 8.688,18.247 7.391,16.846 6.727 C 16.144 6.395,15.169 6.245,14.403 6.351 M5.425 9.532 C 4.976 9.626,4.258 9.975,3.876 10.285 C 3.295 10.756,2.856 11.428,2.641 12.177 C 2.477 12.747,2.478 13.667,2.643 14.199 C 3.117 15.719,4.297 16.708,5.874 16.906 C 6.867 17.030,7.969 16.667,8.759 15.954 C 9.039 15.702,9.550 15.044,9.550 14.937 C 9.550 14.911,9.436 14.719,9.297 14.510 C 8.829 13.811,8.468 12.956,8.273 12.087 C 8.223 11.867,8.181 11.376,8.164 10.832 L 8.137 9.939 7.780 9.769 C 7.583 9.676,7.265 9.566,7.074 9.526 C 6.636 9.433,5.882 9.436,5.425 9.532 M22.904 9.528 C 22.727 9.566,22.420 9.674,22.222 9.768 L 21.863 9.939 21.835 10.832 C 21.808 11.751,21.736 12.194,21.502 12.900 C 21.348 13.365,20.998 14.070,20.703 14.510 C 20.564 14.719,20.450 14.911,20.450 14.937 C 20.450 15.044,20.961 15.702,21.241 15.954 C 22.031 16.667,23.133 17.030,24.126 16.906 C 25.703 16.708,26.883 15.719,27.357 14.199 C 27.522 13.667,27.523 12.747,27.359 12.177 C 26.883 10.524,25.421 9.439,23.690 9.454 C 23.434 9.456,23.080 9.489,22.904 9.528 M13.905 17.600 C 10.533 17.883,7.830 19.313,7.081 21.211 C 6.893 21.686,6.844 22.173,6.860 23.375 L 6.875 24.425 15.000 24.425 L 23.125 24.425 23.123 23.125 C 23.121 21.660,23.099 21.530,22.742 20.841 C 22.068 19.542,20.186 18.380,17.950 17.882 C 16.767 17.618,15.086 17.501,13.905 17.600 M4.925 19.031 C 2.736 19.423,0.891 20.422,0.282 21.546 C 0.036 21.998,0.001 22.227,0.001 23.388 L 0.000 24.451 2.188 24.438 L 4.375 24.425 4.404 22.875 C 4.429 21.506,4.445 21.280,4.538 20.941 C 4.736 20.223,5.128 19.428,5.464 19.063 L 5.567 18.950 5.446 18.954 C 5.380 18.957,5.145 18.991,4.925 19.031 M24.536 19.063 C 24.872 19.428,25.264 20.223,25.462 20.941 C 25.555 21.280,25.571 21.506,25.596 22.875 L 25.625 24.425 27.813 24.438 L 30.000 24.451 29.999 23.388 C 29.999 22.227,29.964 21.998,29.718 21.546 C 29.108 20.420,27.311 19.443,25.129 19.049 C 24.421 18.921,24.406 18.921,24.536 19.063 " fill="#1BD679" stroke="none" fill-rule="evenodd"></path></svg>