<svg width="15" height="16" viewBox="0 0 15 16" fill="none" xmlns="http://www.w3.org/2000/svg"><path d="M2.388 3.530 C 2.267 3.572,2.156 3.668,2.082 3.795 C 2.023 3.895,2.013 3.940,2.013 4.100 C 2.013 4.255,2.024 4.307,2.077 4.402 C 2.112 4.464,3.258 6.278,4.623 8.433 C 6.951 12.108,7.112 12.355,7.218 12.417 C 7.443 12.549,7.704 12.515,7.879 12.331 C 7.996 12.209,12.921 4.430,12.968 4.292 C 13.015 4.158,12.998 3.942,12.928 3.807 C 12.865 3.682,12.729 3.567,12.602 3.529 C 12.473 3.490,2.498 3.491,2.388 3.530 " fill="white" stroke="none" fill-rule="evenodd"></path></svg>