<svg width="20" height="25" viewBox="0 0 20 25" fill="none" xmlns="http://www.w3.org/2000/svg"><path d="M2.089 0.035 C 1.553 0.125,1.176 0.326,0.747 0.750 C 0.413 1.080,0.248 1.339,0.104 1.761 L 0.017 2.017 0.017 12.500 L 0.017 22.983 0.104 23.239 C 0.246 23.656,0.413 23.920,0.747 24.253 C 1.080 24.587,1.344 24.754,1.761 24.896 L 2.017 24.983 10.000 24.983 L 17.983 24.983 18.239 24.896 C 18.656 24.754,18.920 24.587,19.253 24.253 C 19.587 23.920,19.754 23.656,19.896 23.239 L 19.983 22.983 19.992 15.234 L 20.001 7.484 16.259 3.742 L 12.517 0.000 7.383 0.004 C 4.560 0.006,2.177 0.020,2.089 0.035 M17.467 8.742 C 17.467 8.755,16.072 8.767,14.367 8.767 L 11.267 8.767 11.267 5.642 L 11.267 2.517 14.367 5.617 C 16.072 7.322,17.467 8.728,17.467 8.742 M12.506 13.756 L 14.995 16.245 14.125 17.141 L 13.254 18.037 12.268 17.052 C 11.726 16.510,11.272 16.067,11.258 16.067 C 11.244 16.067,11.233 17.237,11.233 18.667 L 11.233 21.267 10.000 21.267 L 8.767 21.267 8.767 18.667 C 8.767 17.237,8.756 16.067,8.742 16.067 C 8.728 16.067,8.282 16.501,7.750 17.032 L 6.783 17.996 5.889 17.126 L 4.995 16.255 7.489 13.761 C 8.861 12.389,9.991 11.267,10.000 11.267 C 10.009 11.267,11.137 12.387,12.506 13.756 " fill="#959595" stroke="none" fill-rule="evenodd"></path></svg>