<svg width="29" height="26" viewBox="0 0 29 26" fill="none" xmlns="http://www.w3.org/2000/svg"><path d="M14.082 0.066 C 13.793 0.161,13.484 0.400,13.309 0.664 C 12.996 1.135,0.133 23.944,0.061 24.153 C -0.141 24.748,0.213 25.576,0.792 25.856 L 0.997 25.955 14.500 25.955 L 28.003 25.955 28.208 25.856 C 28.461 25.733,28.738 25.434,28.866 25.145 C 28.990 24.864,29.029 24.428,28.952 24.186 C 28.843 23.844,15.700 0.636,15.502 0.436 C 15.145 0.075,14.538 -0.083,14.082 0.066 M15.113 10.251 C 15.226 10.306,15.416 10.458,15.534 10.589 C 15.907 11.004,15.902 10.958,15.902 13.727 C 15.902 16.494,15.907 16.449,15.535 16.862 C 15.236 17.195,14.954 17.321,14.500 17.323 C 14.047 17.326,13.771 17.203,13.466 16.864 C 13.093 16.449,13.098 16.496,13.098 13.720 C 13.098 11.388,13.103 11.252,13.195 11.008 C 13.282 10.775,13.498 10.517,13.790 10.296 C 14.063 10.090,14.732 10.067,15.113 10.251 M15.059 18.893 C 15.344 19.022,15.599 19.265,15.747 19.546 C 15.860 19.760,15.877 19.849,15.877 20.227 C 15.877 20.583,15.857 20.699,15.771 20.861 C 15.614 21.156,15.435 21.349,15.184 21.497 C 14.982 21.616,14.913 21.629,14.500 21.629 C 14.152 21.629,14.003 21.608,13.884 21.544 C 13.620 21.399,13.388 21.166,13.253 20.909 C 13.140 20.695,13.123 20.606,13.123 20.227 C 13.123 19.849,13.140 19.760,13.253 19.546 C 13.401 19.265,13.656 19.022,13.941 18.893 C 14.210 18.771,14.790 18.771,15.059 18.893 " stroke="none" fill-rule="evenodd"></path></svg>