<?xml version="1.0" encoding="UTF-8" standalone="no"?>
<svg
   width="587.01434"
   height="434.10846"
   viewBox="0 0 587.01434 434.10846"
   fill="none"
   version="1.1"
   id="svg685"
   sodipodi:docname="2.svg"
   inkscape:version="1.2 (dc2aeda, 2022-05-15)"
   xmlns:inkscape="http://www.inkscape.org/namespaces/inkscape"
   xmlns:sodipodi="http://sodipodi.sourceforge.net/DTD/sodipodi-0.dtd"
   xmlns="http://www.w3.org/2000/svg"
   xmlns:svg="http://www.w3.org/2000/svg">
  <sodipodi:namedview
     id="namedview687"
     pagecolor="#ffffff"
     bordercolor="#000000"
     borderopacity="0.25"
     inkscape:showpageshadow="2"
     inkscape:pageopacity="0.0"
     inkscape:pagecheckerboard="0"
     inkscape:deskcolor="#d1d1d1"
     showgrid="false"
     inkscape:zoom="0.88918503"
     inkscape:cx="287.34177"
     inkscape:cy="142.2651"
     inkscape:window-width="1309"
     inkscape:window-height="991"
     inkscape:window-x="0"
     inkscape:window-y="38"
     inkscape:window-maximized="0"
     inkscape:current-layer="svg685" />
  <path
     d="M 156.79234,4 8.7837457,91.7592 c -6.5138,3.862 -6.5377,13.282 -0.0435,17.177 l 98.6980943,59.2"
     stroke="url(#paint0_linear_501_36186)"
     stroke-width="8"
     stroke-linecap="round"
     id="path9"
     style="stroke:url(#paint0_linear_501_36186)" />
  <path
     d="m 16.141646,274.7612 c -4.3899,-2.704 -7.3703003,-6.715 -8.9294003,-11.183 l -1.2913,-28.348 92.6743983,-4.977 487.158996,5.475 v 20.254 c 0,7.172 -3.327,14.328 -9.989,18.419 l -88.72,54.534 -72.447,44.532 -81.074,49.836 c -23.434,14.407 -52.306,14.407 -75.736,0 l -69.435,-42.68 -95.160996,-58.571 v 0.075 l -0.06,-0.042 -70.557298,-43.371 z"
     fill="#d4f2e4"
     id="path19" />
  <path
     d="m 16.141646,274.7612 c -4.3899,-2.704 -7.3703003,-6.715 -8.9294003,-11.183 l -1.2913,-28.348 92.6743983,-4.977 487.158996,5.475 v 20.254 c 0,7.172 -3.327,14.328 -9.989,18.419 l -88.72,54.534 -72.447,44.532 -81.074,49.836 c -23.434,14.407 -52.306,14.407 -75.736,0 l -69.435,-42.68 -95.160996,-58.571 v 0.075 l -0.06,-0.042 -70.557298,-43.371 z"
     fill="url(#paint2_linear_501_36186)"
     fill-opacity="0.15"
     id="path21"
     style="fill:url(#paint2_linear_501_36186)" />
  <path
     d="m 333.51534,62.3592 243.463,148.905 c 6.691,4.088 10.032,11.251 10.036,18.414 0,7.167 -3.342,14.317 -10.032,18.406 l -89.105,54.496 -72.762,44.503 -81.426,49.801 c -23.535,14.397 -52.532,14.397 -76.063,0 l -69.737,-42.651 -95.573996,-58.531 v 0.076 l -0.06,-0.042 -70.863698,-43.342 -6.4613,-3.95 c -4.409,-2.702 -7.4023003,-6.711 -8.9682003,-11.176 -0.862,-2.455 -1.297,-5.052 -1.297,-7.649 -0.0079,-7.326 3.4125,-14.656 10.2573003,-18.845 L 257.43234,62.3722 c 23.539,-14.4058 52.54,-14.41 76.083,-0.013 z"
     fill="#f0faf6"
     id="path23" />
  <path
     fill-rule="evenodd"
     clip-rule="evenodd"
     d="m 172.19234,185.6752 c 0,0 3.713,-3.316 5.437,-5.523 0.924,-1.181 1.43,-2.04 1.559,-4.776 0.058,-1.272 -0.036,-2.222 -0.696,-2.418 -0.302,-0.092 -0.228,0.681 -0.228,0.681 0,0 -0.003,-1.521 -0.781,-1.85 -0.78,-0.33 -0.52,0.727 -0.52,0.727 0,0 -0.014,-1.675 -0.807,-1.955 -0.793,-0.28 -0.512,0.839 -0.512,0.839 0,0 -0.048,-1.435 -0.662,-1.772 -0.611,-0.338 -0.785,0.061 -0.941,1.015 -0.188,1.117 -0.683,3.703 -1.981,5.318 -1.379,1.719 -3.183,2.167 -3.366,3.973 -0.184,1.801 -1.867,3.432 -1.867,3.432 z"
     fill="#fafafa"
     id="path25" />
  <path
     fill-rule="evenodd"
     clip-rule="evenodd"
     d="m 168.72134,180.1972 c 0.119,-2.228 0.196,-3.916 0.1,-5.268 -0.104,-1.443 -0.046,-2.902 0.693,-2.901 1.44,-0.001 1.709,6.077 1.709,6.077 z"
     fill="#fafafa"
     id="path27" />
  <path
     d="m 507.40334,214.5802 -22.005,12.642 c -2.098,1.215 -0.809,3.359 2.159,3.479 0.06,0 0.12,0.015 0.165,0.015 l -2.339,1.35 c -2.098,1.215 -0.809,3.359 2.159,3.479 0.524,0.015 1.049,11.993 1.574,12.038 l 18.287,-10.482 -0.015,-0.015 h 0.09 v -22.506 z"
     fill="url(#paint3_linear_501_36186)"
     id="path29"
     style="fill:url(#paint3_linear_501_36186)" />
  <path
     d="m 507.40334,214.5802 -22.005,12.642 c -2.098,1.215 -0.809,3.359 2.159,3.479 0.06,0 0.12,0.015 0.165,0.015 l -2.339,1.35 c -2.098,1.215 -0.809,3.359 2.159,3.479 0.524,0.015 1.049,11.993 1.574,12.038 l 18.287,-10.482 -0.015,-0.015 h 0.09 v -22.506 z"
     fill="url(#paint4_linear_501_36186)"
     id="path31"
     style="fill:url(#paint4_linear_501_36186)" />
  <path
     d="m 507.40334,214.5802 -22.005,12.642 c -2.098,1.215 -0.809,3.359 2.159,3.479 0.06,0 0.12,0.015 0.165,0.015 l -2.339,1.35 c -2.098,1.215 -0.809,3.359 2.159,3.479 0.524,0.015 1.049,11.993 1.574,12.038 l 18.287,-10.482 -0.015,-0.015 h 0.09 v -22.506 z"
     fill="url(#paint5_linear_501_36186)"
     id="path33"
     style="fill:url(#paint5_linear_501_36186)" />
  <path
     d="m 507.40334,214.5802 -22.005,12.642 c -2.098,1.215 -0.809,3.359 2.159,3.479 0.06,0 0.12,0.015 0.165,0.015 l -2.339,1.35 c -2.098,1.215 -0.809,3.359 2.159,3.479 0.524,0.015 1.049,11.993 1.574,12.038 l 18.287,-10.482 -0.015,-0.015 h 0.09 v -22.506 z"
     fill="url(#paint6_linear_501_36186)"
     id="path35"
     style="fill:url(#paint6_linear_501_36186)" />
  <path
     d="m 507.40334,214.5802 -22.005,12.642 c -2.098,1.215 -0.809,3.359 2.159,3.479 0.06,0 0.12,0.015 0.165,0.015 l -2.339,1.35 c -2.098,1.215 -0.809,3.359 2.159,3.479 0.524,0.015 1.049,11.993 1.574,12.038 l 18.287,-10.482 -0.015,-0.015 h 0.09 v -22.506 z"
     fill="url(#paint7_linear_501_36186)"
     id="path37"
     style="fill:url(#paint7_linear_501_36186)" />
  <path
     d="m 507.40334,214.5802 -22.005,12.642 c -2.098,1.215 -0.809,3.359 2.159,3.479 0.06,0 0.12,0.015 0.165,0.015 l -2.339,1.35 c -2.098,1.215 -0.809,3.359 2.159,3.479 0.524,0.015 1.049,11.993 1.574,12.038 l 18.287,-10.482 -0.015,-0.015 h 0.09 v -22.506 z"
     fill="url(#paint8_linear_501_36186)"
     id="path39"
     style="fill:url(#paint8_linear_501_36186)" />
  <path
     d="m 431.79534,242.6792 c 2.099,1.364 3.493,3.074 4.212,4.904 0.69,-1.725 0.735,-15.488 0.165,-17.242 1.169,-3.584 -0.3,-7.543 -4.377,-10.183 -7.764,-5.024 -21.09,-5.204 -29.169,-0.54 -3.403,1.965 -5.322,4.469 -5.741,7.049 -0.225,1.334 -2.983,1.934 -4.632,0.989 l -21.69,-12.252 v 22.506 l 21.69,12.267 c 1.649,0.96 4.422,0.36 4.632,-0.99 0.419,-2.579 2.323,-5.084 5.741,-7.048 8.079,-4.664 21.405,-4.469 29.169,0.54 z"
     fill="url(#paint9_linear_501_36186)"
     id="path41"
     style="fill:url(#paint9_linear_501_36186)" />
  <path
     d="m 431.79534,242.6792 c 2.099,1.364 3.493,3.074 4.212,4.904 0.69,-1.725 0.735,-15.488 0.165,-17.242 1.169,-3.584 -0.3,-7.543 -4.377,-10.183 -7.764,-5.024 -21.09,-5.204 -29.169,-0.54 -3.403,1.965 -5.322,4.469 -5.741,7.049 -0.225,1.334 -2.983,1.934 -4.632,0.989 l -21.69,-12.252 v 22.506 l 21.69,12.267 c 1.649,0.96 4.422,0.36 4.632,-0.99 0.419,-2.579 2.323,-5.084 5.741,-7.048 8.079,-4.664 21.405,-4.469 29.169,0.54 z"
     fill="url(#paint10_linear_501_36186)"
     id="path43"
     style="fill:url(#paint10_linear_501_36186)" />
  <path
     d="m 431.79534,242.6792 c 2.099,1.364 3.493,3.074 4.212,4.904 0.69,-1.725 0.735,-15.488 0.165,-17.242 1.169,-3.584 -0.3,-7.543 -4.377,-10.183 -7.764,-5.024 -21.09,-5.204 -29.169,-0.54 -3.403,1.965 -5.322,4.469 -5.741,7.049 -0.225,1.334 -2.983,1.934 -4.632,0.989 l -21.69,-12.252 v 22.506 l 21.69,12.267 c 1.649,0.96 4.422,0.36 4.632,-0.99 0.419,-2.579 2.323,-5.084 5.741,-7.048 8.079,-4.664 21.405,-4.469 29.169,0.54 z"
     fill="url(#paint11_linear_501_36186)"
     id="path45"
     style="fill:url(#paint11_linear_501_36186)" />
  <path
     d="m 431.79534,242.6792 c 2.099,1.364 3.493,3.074 4.212,4.904 0.69,-1.725 0.735,-15.488 0.165,-17.242 1.169,-3.584 -0.3,-7.543 -4.377,-10.183 -7.764,-5.024 -21.09,-5.204 -29.169,-0.54 -3.403,1.965 -5.322,4.469 -5.741,7.049 -0.225,1.334 -2.983,1.934 -4.632,0.989 l -21.69,-12.252 v 22.506 l 21.69,12.267 c 1.649,0.96 4.422,0.36 4.632,-0.99 0.419,-2.579 2.323,-5.084 5.741,-7.048 8.079,-4.664 21.405,-4.469 29.169,0.54 z"
     fill="url(#paint12_linear_501_36186)"
     id="path47"
     style="fill:url(#paint12_linear_501_36186)" />
  <path
     d="m 438.97434,254.0212 -21.795,-11.952 c -0.299,-0.18 -0.479,-0.375 -0.614,-0.57 v 21.411 c -0.36,0.54 -0.225,1.184 0.614,1.664 l 21.795,11.953 z"
     fill="url(#paint13_linear_501_36186)"
     id="path49"
     style="fill:url(#paint13_linear_501_36186)" />
  <path
     d="m 438.97434,254.0212 -21.795,-11.952 c -0.299,-0.18 -0.479,-0.375 -0.614,-0.57 v 21.411 c -0.36,0.54 -0.225,1.184 0.614,1.664 l 21.795,11.953 z"
     fill="url(#paint14_linear_501_36186)"
     id="path51"
     style="fill:url(#paint14_linear_501_36186)" />
  <path
     d="m 438.97434,254.0212 -21.795,-11.952 c -0.299,-0.18 -0.479,-0.375 -0.614,-0.57 v 21.411 c -0.36,0.54 -0.225,1.184 0.614,1.664 l 21.795,11.953 z"
     fill="url(#paint15_linear_501_36186)"
     id="path53"
     style="fill:url(#paint15_linear_501_36186)" />
  <path
     d="m 438.97434,254.0212 -21.795,-11.952 c -0.299,-0.18 -0.479,-0.375 -0.614,-0.57 v 21.411 c -0.36,0.54 -0.225,1.184 0.614,1.664 l 21.795,11.953 z"
     fill="url(#paint16_linear_501_36186)"
     id="path55"
     style="fill:url(#paint16_linear_501_36186)" />
  <path
     d="m 438.97434,254.0212 -21.795,-11.952 c -0.299,-0.18 -0.479,-0.375 -0.614,-0.57 v 21.411 c -0.36,0.54 -0.225,1.184 0.614,1.664 l 21.795,11.953 z"
     fill="url(#paint17_linear_501_36186)"
     id="path57"
     style="fill:url(#paint17_linear_501_36186)" />
  <path
     d="m 438.97534,276.5262 22.26,-12.852 c 2.098,-1.214 5.771,-0.45 5.981,1.275 0.314,2.729 2.368,5.399 6.145,7.423 7.27,3.899 18.857,3.929 26.097,0.06 3.912,-2.084 5.921,-4.889 6.101,-7.708 h 0.09 v -22.505 l -0.09,0.015 c -0.18,2.819 -2.204,5.608 -6.101,7.693 -7.24,3.869 -18.812,3.854 -26.097,-0.06 -3.777,-2.025 -5.831,-4.694 -6.145,-7.424 -0.195,-1.724 -3.868,-2.489 -5.981,-1.274 l -22.26,12.852 z"
     fill="url(#paint18_linear_501_36186)"
     id="path59"
     style="fill:url(#paint18_linear_501_36186)" />
  <path
     d="m 438.97534,276.5262 22.26,-12.852 c 2.098,-1.214 5.771,-0.45 5.981,1.275 0.314,2.729 2.368,5.399 6.145,7.423 7.27,3.899 18.857,3.929 26.097,0.06 3.912,-2.084 5.921,-4.889 6.101,-7.708 h 0.09 v -22.505 l -0.09,0.015 c -0.18,2.819 -2.204,5.608 -6.101,7.693 -7.24,3.869 -18.812,3.854 -26.097,-0.06 -3.777,-2.025 -5.831,-4.694 -6.145,-7.424 -0.195,-1.724 -3.868,-2.489 -5.981,-1.274 l -22.26,12.852 z"
     fill="url(#paint19_linear_501_36186)"
     id="path61"
     style="fill:url(#paint19_linear_501_36186)" />
  <path
     d="m 438.97534,276.5262 22.26,-12.852 c 2.098,-1.214 5.771,-0.45 5.981,1.275 0.314,2.729 2.368,5.399 6.145,7.423 7.27,3.899 18.857,3.929 26.097,0.06 3.912,-2.084 5.921,-4.889 6.101,-7.708 h 0.09 v -22.505 l -0.09,0.015 c -0.18,2.819 -2.204,5.608 -6.101,7.693 -7.24,3.869 -18.812,3.854 -26.097,-0.06 -3.777,-2.025 -5.831,-4.694 -6.145,-7.424 -0.195,-1.724 -3.868,-2.489 -5.981,-1.274 l -22.26,12.852 z"
     fill="url(#paint20_linear_501_36186)"
     id="path63"
     style="fill:url(#paint20_linear_501_36186)" />
  <path
     d="m 438.97534,276.5262 22.26,-12.852 c 2.098,-1.214 5.771,-0.45 5.981,1.275 0.314,2.729 2.368,5.399 6.145,7.423 7.27,3.899 18.857,3.929 26.097,0.06 3.912,-2.084 5.921,-4.889 6.101,-7.708 h 0.09 v -22.505 l -0.09,0.015 c -0.18,2.819 -2.204,5.608 -6.101,7.693 -7.24,3.869 -18.812,3.854 -26.097,-0.06 -3.777,-2.025 -5.831,-4.694 -6.145,-7.424 -0.195,-1.724 -3.868,-2.489 -5.981,-1.274 l -22.26,12.852 z"
     fill="url(#paint21_linear_501_36186)"
     id="path65"
     style="fill:url(#paint21_linear_501_36186)" />
  <path
     d="m 438.97534,276.5262 22.26,-12.852 c 2.098,-1.214 5.771,-0.45 5.981,1.275 0.314,2.729 2.368,5.399 6.145,7.423 7.27,3.899 18.857,3.929 26.097,0.06 3.912,-2.084 5.921,-4.889 6.101,-7.708 h 0.09 v -22.505 l -0.09,0.015 c -0.18,2.819 -2.204,5.608 -6.101,7.693 -7.24,3.869 -18.812,3.854 -26.097,-0.06 -3.777,-2.025 -5.831,-4.694 -6.145,-7.424 -0.195,-1.724 -3.868,-2.489 -5.981,-1.274 l -22.26,12.852 z"
     fill="url(#paint22_linear_501_36186)"
     id="path67"
     style="fill:url(#paint22_linear_501_36186)" />
  <path
     d="m 438.97534,276.5262 22.26,-12.852 c 2.098,-1.214 5.771,-0.45 5.981,1.275 0.314,2.729 2.368,5.399 6.145,7.423 7.27,3.899 18.857,3.929 26.097,0.06 3.912,-2.084 5.921,-4.889 6.101,-7.708 h 0.09 v -22.505 l -0.09,0.015 c -0.18,2.819 -2.204,5.608 -6.101,7.693 -7.24,3.869 -18.812,3.854 -26.097,-0.06 -3.777,-2.025 -5.831,-4.694 -6.145,-7.424 -0.195,-1.724 -3.868,-2.489 -5.981,-1.274 l -22.26,12.852 z"
     fill="url(#paint23_linear_501_36186)"
     id="path69"
     style="fill:url(#paint23_linear_501_36186)" />
  <path
     d="m 402.62634,219.6332 c 8.079,-4.664 21.39,-4.484 29.169,0.54 6.281,4.049 6.416,11.278 0.15,15.372 -3.507,2.294 -8.199,3.569 -13.026,3.839 -2.338,0.135 -3.402,1.724 -1.738,2.684 l 21.794,11.952 22.26,-12.852 c 2.098,-1.214 5.771,-0.449 5.98,1.275 0.315,2.73 2.369,5.399 6.146,7.423 7.27,3.9 18.857,3.93 26.097,0.06 8.019,-4.289 8.154,-11.532 0.449,-15.986 -3.447,-1.994 -7.854,-3.074 -12.336,-3.239 -2.968,-0.12 -4.272,-2.265 -2.158,-3.479 l 22.019,-12.642 -61.232,-34.462 c -4.452,-2.565 -9.938,-2.565 -14.39,0 l -61.247,35.286 21.69,12.268 c 1.649,0.959 4.422,0.359 4.632,-0.99 0.434,-2.565 2.338,-5.084 5.741,-7.049 z"
     fill="url(#paint24_linear_501_36186)"
     id="path71"
     style="fill:url(#paint24_linear_501_36186)" />
  <path
     d="m 402.62634,219.6332 c 8.079,-4.664 21.39,-4.484 29.169,0.54 6.281,4.049 6.416,11.278 0.15,15.372 -3.507,2.294 -8.199,3.569 -13.026,3.839 -2.338,0.135 -3.402,1.724 -1.738,2.684 l 21.794,11.952 22.26,-12.852 c 2.098,-1.214 5.771,-0.449 5.98,1.275 0.315,2.73 2.369,5.399 6.146,7.423 7.27,3.9 18.857,3.93 26.097,0.06 8.019,-4.289 8.154,-11.532 0.449,-15.986 -3.447,-1.994 -7.854,-3.074 -12.336,-3.239 -2.968,-0.12 -4.272,-2.265 -2.158,-3.479 l 22.019,-12.642 -61.232,-34.462 c -4.452,-2.565 -9.938,-2.565 -14.39,0 l -61.247,35.286 21.69,12.268 c 1.649,0.959 4.422,0.359 4.632,-0.99 0.434,-2.565 2.338,-5.084 5.741,-7.049 z"
     fill="url(#paint25_linear_501_36186)"
     id="path73"
     style="fill:url(#paint25_linear_501_36186)" />
  <path
     d="m 402.62634,219.6332 c 8.079,-4.664 21.39,-4.484 29.169,0.54 6.281,4.049 6.416,11.278 0.15,15.372 -3.507,2.294 -8.199,3.569 -13.026,3.839 -2.338,0.135 -3.402,1.724 -1.738,2.684 l 21.794,11.952 22.26,-12.852 c 2.098,-1.214 5.771,-0.449 5.98,1.275 0.315,2.73 2.369,5.399 6.146,7.423 7.27,3.9 18.857,3.93 26.097,0.06 8.019,-4.289 8.154,-11.532 0.449,-15.986 -3.447,-1.994 -7.854,-3.074 -12.336,-3.239 -2.968,-0.12 -4.272,-2.265 -2.158,-3.479 l 22.019,-12.642 -61.232,-34.462 c -4.452,-2.565 -9.938,-2.565 -14.39,0 l -61.247,35.286 21.69,12.268 c 1.649,0.959 4.422,0.359 4.632,-0.99 0.434,-2.565 2.338,-5.084 5.741,-7.049 z"
     fill="url(#paint26_linear_501_36186)"
     id="path75"
     style="fill:url(#paint26_linear_501_36186)" />
  <path
     d="m 186.37034,229.5412 c -1.649,0.96 -4.422,0.33 -4.662,-1.02 -0.495,-2.789 -2.743,-5.503 -6.73,-7.558 -7.21,-3.689 -19.142,-3.749 -26.382,-0.12 -5.756,2.879 -7.884,7.168 -6.43,11.127 -0.645,1.755 -0.585,15.503 0.18,17.242 0.959,-2.189 3.042,-4.244 6.265,-5.848 7.24,-3.63 19.157,-3.57 26.382,0.12 4.002,2.039 6.235,4.753 6.73,7.558 0.24,1.35 2.998,1.979 4.662,1.02 l 23.278,-13.692 v -16.762 -0.9 -4.844 z"
     fill="url(#paint27_linear_501_36186)"
     id="path77"
     style="fill:url(#paint27_linear_501_36186)" />
  <path
     d="m 186.37034,229.5412 c -1.649,0.96 -4.422,0.33 -4.662,-1.02 -0.495,-2.789 -2.743,-5.503 -6.73,-7.558 -7.21,-3.689 -19.142,-3.749 -26.382,-0.12 -5.756,2.879 -7.884,7.168 -6.43,11.127 -0.645,1.755 -0.585,15.503 0.18,17.242 0.959,-2.189 3.042,-4.244 6.265,-5.848 7.24,-3.63 19.157,-3.57 26.382,0.12 4.002,2.039 6.235,4.753 6.73,7.558 0.24,1.35 2.998,1.979 4.662,1.02 l 23.278,-13.692 v -16.762 -0.9 -4.844 z"
     fill="url(#paint28_linear_501_36186)"
     id="path79"
     style="fill:url(#paint28_linear_501_36186)" />
  <path
     d="m 186.37034,229.5412 c -1.649,0.96 -4.422,0.33 -4.662,-1.02 -0.495,-2.789 -2.743,-5.503 -6.73,-7.558 -7.21,-3.689 -19.142,-3.749 -26.382,-0.12 -5.756,2.879 -7.884,7.168 -6.43,11.127 -0.645,1.755 -0.585,15.503 0.18,17.242 0.959,-2.189 3.042,-4.244 6.265,-5.848 7.24,-3.63 19.157,-3.57 26.382,0.12 4.002,2.039 6.235,4.753 6.73,7.558 0.24,1.35 2.998,1.979 4.662,1.02 l 23.278,-13.692 v -16.762 -0.9 -4.844 z"
     fill="url(#paint29_linear_501_36186)"
     id="path81"
     style="fill:url(#paint29_linear_501_36186)" />
  <path
     d="m 181.70834,228.5212 c -0.495,-2.789 -2.743,-5.504 -6.73,-7.558 -7.21,-3.689 -19.142,-3.749 -26.382,-0.12 -5.756,2.879 -7.884,7.168 -6.43,11.127 -0.645,1.755 -0.585,15.503 0.18,17.242 0.959,-2.189 3.042,-4.244 6.265,-5.849 7.24,-3.629 19.157,-3.569 26.382,0.12 4.002,2.04 6.235,4.754 6.73,7.559 v -22.521 z"
     fill="url(#paint30_linear_501_36186)"
     id="path83"
     style="fill:url(#paint30_linear_501_36186)" />
  <path
     d="m 181.70834,228.5212 c -0.495,-2.789 -2.743,-5.504 -6.73,-7.558 -7.21,-3.689 -19.142,-3.749 -26.382,-0.12 -5.756,2.879 -7.884,7.168 -6.43,11.127 -0.645,1.755 -0.585,15.503 0.18,17.242 0.959,-2.189 3.042,-4.244 6.265,-5.849 7.24,-3.629 19.157,-3.569 26.382,0.12 4.002,2.04 6.235,4.754 6.73,7.559 v -22.521 z"
     fill="url(#paint31_linear_501_36186)"
     id="path85"
     style="fill:url(#paint31_linear_501_36186)" />
  <path
     d="m 181.70834,228.5212 c -0.495,-2.789 -2.743,-5.504 -6.73,-7.558 -7.21,-3.689 -19.142,-3.749 -26.382,-0.12 -5.756,2.879 -7.884,7.168 -6.43,11.127 -0.645,1.755 -0.585,15.503 0.18,17.242 0.959,-2.189 3.042,-4.244 6.265,-5.849 7.24,-3.629 19.157,-3.569 26.382,0.12 4.002,2.04 6.235,4.754 6.73,7.559 v -22.521 z"
     fill="url(#paint32_linear_501_36186)"
     id="path87"
     style="fill:url(#paint32_linear_501_36186)" />
  <path
     d="m 140.54434,278.6352 21.06,-12.267 c 0.644,-0.375 0.854,-0.84 0.764,-1.275 v -22.25 c -0.03,0.36 -0.254,0.72 -0.764,1.019 l -21.045,12.268 h -0.015 v 0.015 z"
     fill="url(#paint33_linear_501_36186)"
     id="path89"
     style="fill:url(#paint33_linear_501_36186)" />
  <path
     d="m 140.54434,278.6352 21.06,-12.267 c 0.644,-0.375 0.854,-0.84 0.764,-1.275 v -22.25 c -0.03,0.36 -0.254,0.72 -0.764,1.019 l -21.045,12.268 h -0.015 v 0.015 z"
     fill="url(#paint34_linear_501_36186)"
     id="path91"
     style="fill:url(#paint34_linear_501_36186)" />
  <path
     d="m 140.54434,278.6352 21.06,-12.267 c 0.644,-0.375 0.854,-0.84 0.764,-1.275 v -22.25 c -0.03,0.36 -0.254,0.72 -0.764,1.019 l -21.045,12.268 h -0.015 v 0.015 z"
     fill="url(#paint35_linear_501_36186)"
     id="path93"
     style="fill:url(#paint35_linear_501_36186)" />
  <path
     d="m 140.54234,256.1152 v 22.52 l -69.745994,-39.755 v -22.506 z"
     fill="url(#paint36_linear_501_36186)"
     id="path95"
     style="fill:url(#paint36_linear_501_36186)" />
  <path
     d="m 140.54234,256.1152 v 22.52 l -69.745994,-39.755 v -22.506 z"
     fill="url(#paint37_linear_501_36186)"
     id="path97"
     style="fill:url(#paint37_linear_501_36186)" />
  <path
     d="m 140.54234,256.1152 v 22.52 l -69.745994,-39.755 v -22.506 z"
     fill="url(#paint38_linear_501_36186)"
     id="path99"
     style="fill:url(#paint38_linear_501_36186)" />
  <path
     d="m 205.66134,216.9462 v -29.297 l -23.071,8.878 -1.775,5.327 z"
     fill="#d9d9d9"
     id="path101" />
  <path
     d="m 205.66134,216.9462 v -29.297 l -23.071,8.878 -1.775,5.327 z"
     fill="url(#paint39_linear_501_36186)"
     id="path103"
     style="fill:url(#paint39_linear_501_36186)" />
  <path
     d="m 205.66134,216.9462 v -29.297 l -23.071,8.878 -1.775,5.327 z"
     fill="url(#paint40_linear_501_36186)"
     id="path105"
     style="fill:url(#paint40_linear_501_36186)" />
  <path
     d="m 140.54534,256.1302 21.06,-12.267 c 1.649,-0.945 0.585,-2.55 -1.739,-2.685 -4.466,-0.255 -8.813,-1.379 -12.246,-3.359 -8.199,-4.739 -7.884,-12.522 0.974,-16.961 7.24,-3.629 19.157,-3.569 26.382,0.12 4.002,2.039 6.235,4.754 6.73,7.558 0.24,1.35 2.998,1.98 4.662,1.02 l 23.279,-13.692 -24.029,-13.542 c -2.113,-1.229 -0.809,-3.344 2.174,-3.449 4.707,-0.165 9.323,-1.335 12.816,-3.509 6.715,-4.184 6.685,-10.858 -0.06,-15.072 -7.48,-4.649 -20.041,-4.769 -27.686,-0.36 -3.417,1.98 -5.261,4.514 -5.546,7.109 -0.18,1.709 -3.897,2.444 -6.011,1.23 l -21.42,-12.163 h -0.015 l -69.070994,40.266 h -0.015 z"
     fill="url(#paint41_linear_501_36186)"
     id="path107"
     style="fill:url(#paint41_linear_501_36186)" />
  <path
     d="m 140.54534,256.1302 21.06,-12.267 c 1.649,-0.945 0.585,-2.55 -1.739,-2.685 -4.466,-0.255 -8.813,-1.379 -12.246,-3.359 -8.199,-4.739 -7.884,-12.522 0.974,-16.961 7.24,-3.629 19.157,-3.569 26.382,0.12 4.002,2.039 6.235,4.754 6.73,7.558 0.24,1.35 2.998,1.98 4.662,1.02 l 23.279,-13.692 -24.029,-13.542 c -2.113,-1.229 -0.809,-3.344 2.174,-3.449 4.707,-0.165 9.323,-1.335 12.816,-3.509 6.715,-4.184 6.685,-10.858 -0.06,-15.072 -7.48,-4.649 -20.041,-4.769 -27.686,-0.36 -3.417,1.98 -5.261,4.514 -5.546,7.109 -0.18,1.709 -3.897,2.444 -6.011,1.23 l -21.42,-12.163 h -0.015 l -69.070994,40.266 h -0.015 z"
     fill="url(#paint42_linear_501_36186)"
     id="path109"
     style="fill:url(#paint42_linear_501_36186)" />
  <path
     d="m 140.54534,256.1302 21.06,-12.267 c 1.649,-0.945 0.585,-2.55 -1.739,-2.685 -4.466,-0.255 -8.813,-1.379 -12.246,-3.359 -8.199,-4.739 -7.884,-12.522 0.974,-16.961 7.24,-3.629 19.157,-3.569 26.382,0.12 4.002,2.039 6.235,4.754 6.73,7.558 0.24,1.35 2.998,1.98 4.662,1.02 l 23.279,-13.692 -24.029,-13.542 c -2.113,-1.229 -0.809,-3.344 2.174,-3.449 4.707,-0.165 9.323,-1.335 12.816,-3.509 6.715,-4.184 6.685,-10.858 -0.06,-15.072 -7.48,-4.649 -20.041,-4.769 -27.686,-0.36 -3.417,1.98 -5.261,4.514 -5.546,7.109 -0.18,1.709 -3.897,2.444 -6.011,1.23 l -21.42,-12.163 h -0.015 l -69.070994,40.266 h -0.015 z"
     fill="url(#paint43_linear_501_36186)"
     id="path111"
     style="fill:url(#paint43_linear_501_36186)" />
  <path
     d="m 250.30634,315.1282 c 1.648,0.96 4.422,0.33 4.661,-1.02 0.495,-2.789 2.743,-5.504 6.731,-7.558 7.21,-3.689 19.141,-3.749 26.381,-0.12 5.756,2.879 7.885,7.168 6.431,11.127 0.644,1.755 0.584,15.503 -0.18,17.242 -0.96,-2.189 -3.043,-4.244 -6.266,-5.849 -7.24,-3.629 -19.156,-3.569 -26.381,0.12 -4.003,2.04 -6.236,4.754 -6.731,7.559 -0.239,1.349 -2.998,1.979 -4.661,1.019 l -23.279,-13.691 v -16.762 -0.9 -4.844 z"
     fill="url(#paint44_linear_501_36186)"
     id="path113"
     style="fill:url(#paint44_linear_501_36186)" />
  <path
     d="m 250.30634,315.1282 c 1.648,0.96 4.422,0.33 4.661,-1.02 0.495,-2.789 2.743,-5.504 6.731,-7.558 7.21,-3.689 19.141,-3.749 26.381,-0.12 5.756,2.879 7.885,7.168 6.431,11.127 0.644,1.755 0.584,15.503 -0.18,17.242 -0.96,-2.189 -3.043,-4.244 -6.266,-5.849 -7.24,-3.629 -19.156,-3.569 -26.381,0.12 -4.003,2.04 -6.236,4.754 -6.731,7.559 -0.239,1.349 -2.998,1.979 -4.661,1.019 l -23.279,-13.691 v -16.762 -0.9 -4.844 z"
     fill="url(#paint45_linear_501_36186)"
     id="path115"
     style="fill:url(#paint45_linear_501_36186)" />
  <path
     d="m 250.30634,315.1282 c 1.648,0.96 4.422,0.33 4.661,-1.02 0.495,-2.789 2.743,-5.504 6.731,-7.558 7.21,-3.689 19.141,-3.749 26.381,-0.12 5.756,2.879 7.885,7.168 6.431,11.127 0.644,1.755 0.584,15.503 -0.18,17.242 -0.96,-2.189 -3.043,-4.244 -6.266,-5.849 -7.24,-3.629 -19.156,-3.569 -26.381,0.12 -4.003,2.04 -6.236,4.754 -6.731,7.559 -0.239,1.349 -2.998,1.979 -4.661,1.019 l -23.279,-13.691 v -16.762 -0.9 -4.844 z"
     fill="url(#paint46_linear_501_36186)"
     id="path117"
     style="fill:url(#paint46_linear_501_36186)" />
  <path
     d="m 254.96734,314.1082 c 0.495,-2.789 2.743,-5.504 6.731,-7.558 7.21,-3.689 19.141,-3.749 26.381,-0.12 5.756,2.879 7.885,7.168 6.431,11.127 0.644,1.755 0.584,15.502 -0.18,17.242 -0.96,-2.189 -3.043,-4.244 -6.266,-5.849 -7.24,-3.629 -19.156,-3.569 -26.381,0.12 -4.003,2.04 -6.236,4.754 -6.731,7.559 v -22.521 z"
     fill="url(#paint47_linear_501_36186)"
     id="path119"
     style="fill:url(#paint47_linear_501_36186)" />
  <path
     d="m 254.96734,314.1082 c 0.495,-2.789 2.743,-5.504 6.731,-7.558 7.21,-3.689 19.141,-3.749 26.381,-0.12 5.756,2.879 7.885,7.168 6.431,11.127 0.644,1.755 0.584,15.502 -0.18,17.242 -0.96,-2.189 -3.043,-4.244 -6.266,-5.849 -7.24,-3.629 -19.156,-3.569 -26.381,0.12 -4.003,2.04 -6.236,4.754 -6.731,7.559 v -22.521 z"
     fill="url(#paint48_linear_501_36186)"
     id="path121"
     style="fill:url(#paint48_linear_501_36186)" />
  <path
     d="m 254.96734,314.1082 c 0.495,-2.789 2.743,-5.504 6.731,-7.558 7.21,-3.689 19.141,-3.749 26.381,-0.12 5.756,2.879 7.885,7.168 6.431,11.127 0.644,1.755 0.584,15.502 -0.18,17.242 -0.96,-2.189 -3.043,-4.244 -6.266,-5.849 -7.24,-3.629 -19.156,-3.569 -26.381,0.12 -4.003,2.04 -6.236,4.754 -6.731,7.559 v -22.521 z"
     fill="url(#paint49_linear_501_36186)"
     id="path123"
     style="fill:url(#paint49_linear_501_36186)" />
  <path
     d="m 296.13234,364.2222 -21.061,-12.267 c -0.644,-0.375 -0.854,-0.84 -0.764,-1.275 v -22.25 c 0.03,0.36 0.255,0.719 0.764,1.019 l 21.046,12.268 h 0.015 v 0.015 z"
     fill="url(#paint50_linear_501_36186)"
     id="path125"
     style="fill:url(#paint50_linear_501_36186)" />
  <path
     d="m 296.13234,364.2222 -21.061,-12.267 c -0.644,-0.375 -0.854,-0.84 -0.764,-1.275 v -22.25 c 0.03,0.36 0.255,0.719 0.764,1.019 l 21.046,12.268 h 0.015 v 0.015 z"
     fill="url(#paint51_linear_501_36186)"
     id="path127"
     style="fill:url(#paint51_linear_501_36186)" />
  <path
     d="m 296.13234,364.2222 -21.061,-12.267 c -0.644,-0.375 -0.854,-0.84 -0.764,-1.275 v -22.25 c 0.03,0.36 0.255,0.719 0.764,1.019 l 21.046,12.268 h 0.015 v 0.015 z"
     fill="url(#paint52_linear_501_36186)"
     id="path129"
     style="fill:url(#paint52_linear_501_36186)" />
  <path
     d="m 296.13434,341.7022 v 22.52 l 69.746,-39.756 v -22.505 z"
     fill="url(#paint53_linear_501_36186)"
     id="path131"
     style="fill:url(#paint53_linear_501_36186)" />
  <path
     d="m 296.13434,341.7022 v 22.52 l 69.746,-39.756 v -22.505 z"
     fill="url(#paint54_linear_501_36186)"
     id="path133"
     style="fill:url(#paint54_linear_501_36186)" />
  <path
     d="m 296.13434,341.7022 v 22.52 l 69.746,-39.756 v -22.505 z"
     fill="url(#paint55_linear_501_36186)"
     id="path135"
     style="fill:url(#paint55_linear_501_36186)" />
  <path
     d="m 231.01434,302.5332 v -29.297 l 23.071,8.878 1.775,5.327 z"
     fill="#d9d9d9"
     id="path137" />
  <path
     d="m 231.01434,302.5332 v -29.297 l 23.071,8.878 1.775,5.327 z"
     fill="url(#paint56_linear_501_36186)"
     id="path139"
     style="fill:url(#paint56_linear_501_36186)" />
  <path
     d="m 231.01434,302.5332 v -29.297 l 23.071,8.878 1.775,5.327 z"
     fill="url(#paint57_linear_501_36186)"
     id="path141"
     style="fill:url(#paint57_linear_501_36186)" />
  <path
     d="m 296.13034,341.7172 -21.06,-12.267 c -1.649,-0.945 -0.585,-2.55 1.739,-2.685 4.467,-0.255 8.814,-1.379 12.246,-3.359 8.199,-4.739 7.885,-12.522 -0.974,-16.961 -7.24,-3.629 -19.157,-3.569 -26.382,0.12 -4.002,2.039 -6.235,4.754 -6.73,7.558 -0.24,1.35 -2.998,1.98 -4.662,1.02 l -23.278,-13.692 24.028,-13.542 c 2.113,-1.23 0.809,-3.344 -2.174,-3.449 -4.706,-0.165 -9.323,-1.335 -12.816,-3.509 -6.715,-4.184 -6.685,-10.858 0.06,-15.072 7.48,-4.649 20.041,-4.769 27.686,-0.36 3.418,1.98 5.261,4.514 5.546,7.109 0.18,1.709 3.897,2.444 6.011,1.229 l 21.42,-12.162 h 0.015 l 69.071,40.266 h 0.015 z"
     fill="url(#paint58_linear_501_36186)"
     id="path143"
     style="fill:url(#paint58_linear_501_36186)" />
  <path
     d="m 296.13034,341.7172 -21.06,-12.267 c -1.649,-0.945 -0.585,-2.55 1.739,-2.685 4.467,-0.255 8.814,-1.379 12.246,-3.359 8.199,-4.739 7.885,-12.522 -0.974,-16.961 -7.24,-3.629 -19.157,-3.569 -26.382,0.12 -4.002,2.039 -6.235,4.754 -6.73,7.558 -0.24,1.35 -2.998,1.98 -4.662,1.02 l -23.278,-13.692 24.028,-13.542 c 2.113,-1.23 0.809,-3.344 -2.174,-3.449 -4.706,-0.165 -9.323,-1.335 -12.816,-3.509 -6.715,-4.184 -6.685,-10.858 0.06,-15.072 7.48,-4.649 20.041,-4.769 27.686,-0.36 3.418,1.98 5.261,4.514 5.546,7.109 0.18,1.709 3.897,2.444 6.011,1.229 l 21.42,-12.162 h 0.015 l 69.071,40.266 h 0.015 z"
     fill="url(#paint59_linear_501_36186)"
     id="path145"
     style="fill:url(#paint59_linear_501_36186)" />
  <path
     d="m 296.13034,341.7172 -21.06,-12.267 c -1.649,-0.945 -0.585,-2.55 1.739,-2.685 4.467,-0.255 8.814,-1.379 12.246,-3.359 8.199,-4.739 7.885,-12.522 -0.974,-16.961 -7.24,-3.629 -19.157,-3.569 -26.382,0.12 -4.002,2.039 -6.235,4.754 -6.73,7.558 -0.24,1.35 -2.998,1.98 -4.662,1.02 l -23.278,-13.692 24.028,-13.542 c 2.113,-1.23 0.809,-3.344 -2.174,-3.449 -4.706,-0.165 -9.323,-1.335 -12.816,-3.509 -6.715,-4.184 -6.685,-10.858 0.06,-15.072 7.48,-4.649 20.041,-4.769 27.686,-0.36 3.418,1.98 5.261,4.514 5.546,7.109 0.18,1.709 3.897,2.444 6.011,1.229 l 21.42,-12.162 h 0.015 l 69.071,40.266 h 0.015 z"
     fill="url(#paint60_linear_501_36186)"
     id="path147"
     style="fill:url(#paint60_linear_501_36186)" />
  <g
     opacity="0.05"
     filter="url(#filter1_f_501_36186)"
     id="g153"
     transform="translate(-77.135654,-43.3368)">
    <path
       d="m 290.522,203.63 c -2.666,1.539 -2.666,5.388 0.001,6.928 l 99.806,57.629 c 1.238,0.715 2.763,0.715 4.001,0 l 61.097,-35.294 c 2.666,-1.54 2.666,-5.387 0,-6.927 l -99.784,-57.63 c -1.238,-0.715 -2.763,-0.715 -4.001,0 z"
       fill="#e3e3e3"
       id="path149" />
    <path
       d="m 290.522,203.63 c -2.666,1.539 -2.666,5.388 0.001,6.928 l 99.806,57.629 c 1.238,0.715 2.763,0.715 4.001,0 l 61.097,-35.294 c 2.666,-1.54 2.666,-5.387 0,-6.927 l -99.784,-57.63 c -1.238,-0.715 -2.763,-0.715 -4.001,0 z"
       fill="#2c835a"
       id="path151" />
  </g>
  <path
     d="m 323.73134,61.2362 c -0.264,2.546 -0.456,10.449 0,15.132 0.457,4.684 1.081,22.218 3.145,27.07 2.065,4.852 12.316,1.441 13.397,0 1.08,-1.441 1.248,-33.435 0,-35.885 -1.249,-2.426 -16.542,-6.317 -16.542,-6.317 z"
     fill="#000000"
     id="path155" />
  <path
     d="m 331.82134,71.2532 c 0,0 -0.984,6.629 0.72,8.454 1.705,1.802 6.026,3.147 6.026,3.147 0,0 2.689,22.77 3.602,25.556 0.888,2.786 6.194,3.771 9.171,3.147 2.977,-0.625 3.601,-6.389 3.601,-6.75 0,-0.36 1.248,-21.065 1.608,-25.916 0.648,-8.839 -1.536,-13.139 -1.896,-13.499 -0.36,-0.36 -22.832,5.861 -22.832,5.861 z"
     fill="#000000"
     id="path157" />
  <path
     d="m 326.34834,101.8292 c 0.432,3.41 1.873,29.495 3.409,31.945 1.537,2.426 4.754,1.97 6.386,1.441 1.633,-0.528 3.865,-2.33 3.865,-2.33 0,0 0.625,-25.916 0,-30.504 -0.624,-4.588 -13.66,-0.552 -13.66,-0.552 z"
     fill="#000000"
     id="path159" />
  <path
     d="m 341.80834,106.8242 c 0.264,4.083 0.528,29.807 1.345,32.065 0.816,2.258 8.282,2.786 9.435,0 1.176,-2.786 3.409,-23.106 3.409,-27.165 0,-4.06 -2.161,-9.992 -2.257,-10.353 -0.072,-0.336 -11.932,5.453 -11.932,5.453 z"
     fill="#000000"
     id="path161" />
  <path
     d="m 305.12634,30.1075 c -0.36,2.0417 -1.849,9.5837 -2.689,11.265 -0.84,1.6813 -3.481,6.4131 -3.841,7.8542 -0.361,1.4412 0.12,3.771 2.28,5.6926 2.161,1.9219 3.049,1.1288 3.481,0.8406 0.409,-0.2882 8.523,-11.9375 8.571,-14.5075 0.048,-2.5701 -7.802,-11.1449 -7.802,-11.1449 z"
     fill="#ffffff"
     id="path163" />
  <path
     d="m 309.61634,24.1271 c -2.065,0.6245 -3.193,1.6092 -4.465,4.9479 -1.273,3.3386 -3.746,11.9855 -3.65,14.0992 0.12,2.1137 3.529,3.3627 5.954,3.0024 2.425,-0.3603 5.21,-1.5853 6.386,-3.0024 1.177,-1.4171 0.985,-15.3482 0.889,-15.6124 -0.072,-0.2882 -5.114,-3.4347 -5.114,-3.4347 z"
     fill="#eb4869"
     id="path165" />
  <path
     d="m 312.08734,23.406 c -0.36,0.4804 -1.729,0.9367 -2.353,5.3322 -0.624,4.3955 0.504,9.9679 3.721,17.4859 1.393,3.2666 7.443,13.5711 8.283,17.0531 0.84,3.483 1.729,6.39 1.729,6.39 0,0 2.472,4.059 9.051,5.98 7.202,2.138 14.572,1.417 18.582,-1.513 4.009,-2.93 4.801,-7.086 4.801,-7.086 0,0 -4.297,-13.138 -5.546,-17.2212 -1.896,-6.269 -4.153,-18.4227 -5.305,-21.1128 -1.129,-2.6901 -9.435,-6.9655 -11.956,-8.5508 -2.545,-1.5612 -8.715,-4.0112 -12.652,-3.1465 -2.593,0.5765 -0.264,1.4171 -0.577,1.4171 -0.312,0 -7.778,4.972 -7.778,4.972 z"
     fill="#eb4869"
     id="path167" />
  <path
     d="m 318.78534,27.7055 c 0,0 3.409,1.9696 4.081,2.8823 0.648,0.8887 3.961,0.8407 5.33,0 1.368,-0.8406 3.649,-6.8454 3.241,-8.815 -0.408,-1.9695 -1.08,-2.6421 -2.881,-3.1705 -1.801,-0.5284 -4.489,-3.2906 -6.41,-3.9631 -1.921,-0.6485 -7.563,-0.4804 -8.571,2.522 -1.032,2.9783 5.21,10.5443 5.21,10.5443 z"
     fill="#ffffff"
     id="path169" />
  <path
     d="m 321.18734,19.0111 c 0,0 2.857,6.5331 2.809,7.566 -0.048,1.0088 -3.241,5.4523 -4.489,6.0528 -1.249,0.6005 -2.761,0.5284 -3.241,0.4083 -0.48,-0.1201 -4.682,-1.8014 -4.682,-1.8014 l -5.714,-6.0528 c 0,0 -2.496,-3.0505 -2.424,-5.7646 0.072,-2.6901 4.729,-4.7558 8.042,-5.1161 3.289,-0.3362 9.699,4.7078 9.699,4.7078 z"
     fill="#ffffff"
     id="path171" />
  <path
     d="m 315.13734,22.8538 c 0.528,0.2402 1.08,0.3603 1.656,0.2883 1.129,-0.1201 2.065,0.5044 3.073,0.8406 1.032,0.3363 1.441,-0.5284 1.729,-1.369 0.096,-0.2642 0.216,-0.5525 0.192,-0.8167 0,-0.2882 -0.168,-0.5524 -0.12,-0.8647 0.072,-0.6725 2.328,-0.7926 2.328,-0.7926 0,0 -0.024,2.0896 2.113,1.4651 0.72,-0.2161 1.921,-2.57 1.993,-2.8102 0.048,-0.2402 -1.081,-2.9543 -1.585,-4.8999 -1.008,-4.0352 -2.905,-10.9767 -12.172,-9.7517 -5.017,-0.2642 -9.411,0.6965 -11.811,5.116 -2.401,4.4436 -1.777,8.5749 -1.249,10.3042 0.336,1.0809 0.768,1.8735 1.705,2.5221 0.864,0.5764 1.92,0.8406 2.929,1.0328 1.248,0.2642 2.544,0.4563 3.817,0.3362 0.096,0 0.192,-0.024 0.312,-0.048 1.152,-0.1682 2.209,-0.5284 3.289,-0.8887 0.528,-0.1682 1.296,0.1201 1.801,0.3362 z"
     fill="#383838"
     id="path173" />
  <path
     d="m 323.10734,23.6222 c 1.032,-0.1441 1.056,-2.45 0.888,-3.8671 -0.144,-1.4171 -0.864,-2.1617 -1.417,-2.0176 -0.528,0.1441 -1.368,0.6005 -1.272,1.5372 0.12,0.9608 0.96,4.4676 1.801,4.3475 z"
     fill="#ffffff"
     id="path175" />
  <path
     d="m 330.38134,132.1402 c -0.096,1.249 -0.768,2.883 -1.177,3.699 -0.408,0.817 -8.714,5.26 -9.387,6.197 -0.672,0.937 -0.36,2.834 -0.36,2.834 0,0 1.129,2.931 2.641,3.147 1.537,0.216 5.882,-1.946 6.842,-2.882 0.937,-0.937 9.315,-4.9 9.988,-6.654 0.672,-1.753 -0.361,-4.996 -0.361,-5.26 0,-0.264 -0.456,-5.092 -0.456,-5.212 0,-0.144 -2.785,-0.576 -2.785,-0.576 z"
     fill="#adadad"
     id="path177" />
  <path
     d="m 345.62634,133.5092 c -0.816,0.817 -1.296,0.889 -1.392,2.739 -0.097,1.849 -0.457,5.98 -0.625,6.341 -0.168,0.36 -6.026,7.926 -6.338,8.983 -0.312,1.081 0.312,3.362 0.312,3.362 0,0 5.09,1.49 7.779,0.265 2.689,-1.225 4.729,-3.867 4.801,-5.092 0.096,-1.225 1.897,-4.924 2.425,-5.549 0.528,-0.624 0,-4.131 0,-4.131 0,0 -0.888,-2.69 -0.936,-3.195 -0.048,-0.504 0.528,-3.458 0.36,-3.771 -0.168,-0.288 -6.386,0.048 -6.386,0.048 z"
     fill="#adadad"
     id="path179" />
  <path
     d="m 320.09634,213.3562 c -2.667,1.54 -6.001,-0.384 -6.001,-3.464 v -46.873 l 56.466,-32.618 v 51.494 c 0,1.429 -0.762,2.749 -1.999,3.464 z"
     fill="#c8ecdb"
     id="path181" />
  <g
     opacity="0.1"
     filter="url(#filter2_f_501_36186)"
     id="g187"
     transform="translate(-77.135654,-43.3368)">
    <path
       d="m 391.231,213.634 v -7.278 l 56.466,-32.618 v 7.278 z"
       fill="#2e2e2e"
       id="path183" />
    <path
       d="m 391.231,213.634 v -7.278 l 56.466,-32.618 v 7.278 z"
       fill="#2c835a"
       id="path185" />
  </g>
  <path
     d="m 308.09634,213.3572 c 2.667,1.54 6,-0.384 6,-3.464 v -46.874 l -92.958,-53.682 v 51.493 c 0,1.429 0.762,2.75 2,3.464 z"
     fill="#c8ecdb"
     id="path189" />
  <g
     opacity="0.1"
     filter="url(#filter3_f_501_36186)"
     id="g195"
     transform="translate(-77.135654,-43.3368)">
    <path
       d="m 391.232,213.634 v -7.278 l -92.958,-53.682 v 7.278 z"
       fill="#2e2e2e"
       id="path191" />
    <path
       d="m 391.232,213.634 v -7.278 l -92.958,-53.682 v 7.278 z"
       fill="#2c835a"
       id="path193" />
  </g>
  <path
     d="m 214.45034,104.9052 c 0,1.415 0.747,2.724 1.965,3.444 l 96.216,56.86 c 1.272,0.752 2.854,0.741 4.116,-0.027 l 57.305,-34.914 v -13.427 l -159.602,-24.193 z"
     fill="#d9dff7"
     id="path197" />
  <path
     d="m 214.45034,104.9052 c 0,1.415 0.747,2.724 1.965,3.444 l 96.216,56.86 c 1.272,0.752 2.854,0.741 4.116,-0.027 l 57.305,-34.914 v -13.427 l -159.602,-24.193 z"
     fill="#d4f2e4"
     id="path199" />
  <path
     d="m 215.65834,88.8912 c -2.665,1.54 -2.664,5.388 0.002,6.927 l 97.036,56.03 c 1.238,0.715 2.763,0.715 4.001,0 l 59.322,-34.268 c 2.665,-1.54 2.666,-5.387 0,-6.927 l -97.014,-56.0525 c -1.238,-0.7154 -2.764,-0.7154 -4.002,0 z"
     fill="#e8ecff"
     id="path201" />
  <path
     d="m 215.65834,88.8912 c -2.665,1.54 -2.664,5.388 0.002,6.927 l 97.036,56.03 c 1.238,0.715 2.763,0.715 4.001,0 l 59.322,-34.268 c 2.665,-1.54 2.666,-5.387 0,-6.927 l -97.014,-56.0525 c -1.238,-0.7154 -2.764,-0.7154 -4.002,0 z"
     fill="#f0faf6"
     id="path203" />
  <path
     d="m 320.69034,162.9832 c -2.666,1.533 -5.993,-0.391 -5.993,-3.467 v -6.513 l 62.218,-39.279 v 14.614 c 0,1.432 -0.765,2.754 -2.006,3.468 z"
     fill="#d9dff7"
     id="path205" />
  <path
     d="m 320.69034,162.9832 c -2.666,1.533 -5.993,-0.391 -5.993,-3.467 v -6.513 l 62.218,-39.279 v 14.614 c 0,1.432 -0.765,2.754 -2.006,3.468 z"
     fill="#d4f2e4"
     id="path207" />
  <path
     d="m 226.75734,93.4842 85.972,49.648 52.217,-30.168 -85.972,-49.648 z"
     fill="#383838"
     fill-opacity="0.1"
     id="path209" />
  <path
     d="m 232.97334,93.6522 79.466,45.877 46.263,-26.71 -79.442,-45.9 z"
     fill="#c8ecdb"
     id="path211" />
  <path
     d="m 279.26034,66.9192 16.877,9.752 -9.747,5.62 2.761,32.93 -9.411,5.429 -35.315,-20.393 23.911,-13.811 -11.451,-6.605 z"
     fill="#c8ecdb"
     id="path213" />
  <path
     d="m 296.45034,130.3052 15.989,9.224 46.263,-26.709 -15.989,-9.248 z"
     fill="#c8ecdb"
     id="path215" />
  <g
     opacity="0.15"
     id="g229"
     transform="translate(-77.135654,-43.3368)">
    <path
       d="m 410.389,158.582 6.914,3.987 c 0.48,0.288 1.225,0.312 1.633,0.072 l 7.202,-4.155 c 0.408,-0.24 0.36,-0.673 -0.12,-0.937 l -6.914,-3.987 c -0.48,-0.288 -1.225,-0.312 -1.633,-0.072 l -7.202,4.155 c -0.432,0.24 -0.36,0.673 0.12,0.937 z"
       fill="#3877ff"
       id="path217" />
    <path
       d="m 410.389,158.582 6.914,3.987 c 0.48,0.288 1.225,0.312 1.633,0.072 l 7.202,-4.155 c 0.408,-0.24 0.36,-0.673 -0.12,-0.937 l -6.914,-3.987 c -0.48,-0.288 -1.225,-0.312 -1.633,-0.072 l -7.202,4.155 c -0.432,0.24 -0.36,0.673 0.12,0.937 z"
       fill="url(#paint61_linear_501_36186)"
       id="path219"
       style="fill:url(#paint61_linear_501_36186)" />
    <path
       d="m 397.739,165.908 6.914,3.987 c 0.48,0.289 1.224,0.313 1.632,0.072 l 7.203,-4.155 c 0.408,-0.24 0.36,-0.672 -0.12,-0.937 l -6.915,-3.987 c -0.48,-0.288 -1.224,-0.312 -1.632,-0.072 l -7.203,4.155 c -0.432,0.217 -0.36,0.649 0.121,0.937 z"
       fill="#3877ff"
       id="path221" />
    <path
       d="m 397.739,165.908 6.914,3.987 c 0.48,0.289 1.224,0.313 1.632,0.072 l 7.203,-4.155 c 0.408,-0.24 0.36,-0.672 -0.12,-0.937 l -6.915,-3.987 c -0.48,-0.288 -1.224,-0.312 -1.632,-0.072 l -7.203,4.155 c -0.432,0.217 -0.36,0.649 0.121,0.937 z"
       fill="url(#paint62_linear_501_36186)"
       id="path223"
       style="fill:url(#paint62_linear_501_36186)" />
    <path
       d="m 385.086,173.21 6.914,3.987 c 0.481,0.288 1.225,0.312 1.633,0.072 l 7.202,-4.155 c 0.408,-0.24 0.36,-0.673 -0.12,-0.937 l -6.914,-3.987 c -0.48,-0.288 -1.224,-0.312 -1.633,-0.072 l -7.202,4.155 c -0.408,0.24 -0.36,0.649 0.12,0.937 z"
       fill="#3877ff"
       id="path225" />
    <path
       d="m 385.086,173.21 6.914,3.987 c 0.481,0.288 1.225,0.312 1.633,0.072 l 7.202,-4.155 c 0.408,-0.24 0.36,-0.673 -0.12,-0.937 l -6.914,-3.987 c -0.48,-0.288 -1.224,-0.312 -1.633,-0.072 l -7.202,4.155 c -0.408,0.24 -0.36,0.649 0.12,0.937 z"
       fill="url(#paint63_linear_501_36186)"
       id="path227"
       style="fill:url(#paint63_linear_501_36186)" />
  </g>
  <path
     d="m 304.54134,81.5222 -7.994,4.612 2.737,31.033 -12.797,7.374 9.964,5.764 46.263,-26.733 z"
     fill="#c8ecdb"
     id="path231" />
  <g
     opacity="0.15"
     id="g241"
     transform="translate(-77.135654,-43.3368)">
    <path
       d="m 344.473,130.383 c -0.309,0.179 -0.691,0.179 -1,10e-4 l -9.451,-5.452 c -0.667,-0.384 -0.667,-1.347 0,-1.732 l 21.911,-12.655 c 0.31,-0.179 0.691,-0.179 1,-0.001 l 9.451,5.451 c 0.667,0.385 0.667,1.348 0,1.733 z"
       fill="#294ddb"
       id="path233" />
    <path
       d="m 344.473,130.383 c -0.309,0.179 -0.691,0.179 -1,10e-4 l -9.451,-5.452 c -0.667,-0.384 -0.667,-1.347 0,-1.732 l 21.911,-12.655 c 0.31,-0.179 0.691,-0.179 1,-0.001 l 9.451,5.451 c 0.667,0.385 0.667,1.348 0,1.733 z"
       fill="url(#paint64_linear_501_36186)"
       id="path235"
       style="fill:url(#paint64_linear_501_36186)" />
    <path
       fill-rule="evenodd"
       clip-rule="evenodd"
       d="m 355.853,161.658 c -0.666,0.384 -0.668,1.344 -0.003,1.731 l 3.047,1.771 c 0.31,0.18 0.693,0.181 1.004,0.001 l 9.489,-5.493 c 0.335,-0.194 0.528,-0.563 0.495,-0.949 l -0.859,-10.241 c -0.05,-0.593 0.426,-1.098 1.021,-1.083 l 28.397,0.708 c 0.184,0.004 0.365,-0.042 0.525,-0.134 l 9.852,-5.694 c 0.666,-0.385 0.666,-1.348 -0.001,-1.732 l -3.041,-1.753 c -0.309,-0.178 -0.69,-0.178 -0.999,0 l -8.621,4.976 c -0.159,0.092 -0.34,0.138 -0.524,0.133 l -26.151,-0.637 c -0.511,-0.012 -0.93,-0.407 -0.973,-0.916 l -1.281,-15.269 c -0.032,-0.386 0.162,-0.756 0.497,-0.95 l 6.567,-3.788 c 0.667,-0.385 0.667,-1.348 0,-1.733 l -3.04,-1.752 c -0.309,-0.178 -0.69,-0.178 -0.999,0.001 l -9.803,5.663 c -0.335,0.194 -0.529,0.563 -0.497,0.949 l 2.327,27.973 c 0.067,0.805 -0.798,1.353 -1.497,0.949 l -39.898,-23.044 c -0.309,-0.179 -0.691,-0.179 -1,0 l -3.068,1.775 c -0.666,0.385 -0.666,1.347 0,1.732 l 41.225,23.81 c 0.666,0.385 0.666,1.347 -10e-4,1.732 z"
       fill="#305aff"
       id="path237" />
    <path
       fill-rule="evenodd"
       clip-rule="evenodd"
       d="m 355.853,161.658 c -0.666,0.384 -0.668,1.344 -0.003,1.731 l 3.047,1.771 c 0.31,0.18 0.693,0.181 1.004,0.001 l 9.489,-5.493 c 0.335,-0.194 0.528,-0.563 0.495,-0.949 l -0.859,-10.241 c -0.05,-0.593 0.426,-1.098 1.021,-1.083 l 28.397,0.708 c 0.184,0.004 0.365,-0.042 0.525,-0.134 l 9.852,-5.694 c 0.666,-0.385 0.666,-1.348 -0.001,-1.732 l -3.041,-1.753 c -0.309,-0.178 -0.69,-0.178 -0.999,0 l -8.621,4.976 c -0.159,0.092 -0.34,0.138 -0.524,0.133 l -26.151,-0.637 c -0.511,-0.012 -0.93,-0.407 -0.973,-0.916 l -1.281,-15.269 c -0.032,-0.386 0.162,-0.756 0.497,-0.95 l 6.567,-3.788 c 0.667,-0.385 0.667,-1.348 0,-1.733 l -3.04,-1.752 c -0.309,-0.178 -0.69,-0.178 -0.999,0.001 l -9.803,5.663 c -0.335,0.194 -0.529,0.563 -0.497,0.949 l 2.327,27.973 c 0.067,0.805 -0.798,1.353 -1.497,0.949 l -39.898,-23.044 c -0.309,-0.179 -0.691,-0.179 -1,0 l -3.068,1.775 c -0.666,0.385 -0.666,1.347 0,1.732 l 41.225,23.81 c 0.666,0.385 0.666,1.347 -10e-4,1.732 z"
       fill="url(#paint65_linear_501_36186)"
       id="path239"
       style="fill:url(#paint65_linear_501_36186)" />
  </g>
  <path
     d="m 300.51934,51.2248 c 0,0 -2.041,-1.225 -2.521,-0.9608 -0.48,0.2402 -4.921,5.5244 -6.53,8.1662 -1.608,2.642 -8.282,12.298 -8.979,13.067 -0.72,0.768 -5.113,3.891 -6.026,4.299 -0.888,0.408 -4.177,4.179 -4.537,4.852 -0.36,0.672 -0.312,1.177 -0.312,1.177 l -0.504,1.225 c 0,0 -0.216,0.937 0.216,1.177 0.456,0.216 1.584,-0.673 1.584,-0.673 0,0 0.048,0.264 0.936,-0.216 0.889,-0.504 7.011,-5.452 7.467,-5.62 0.456,-0.169 1.128,0.36 1.128,0.36 l 3.361,0.096 c 0,0 2.089,-4.011 2.401,-5.092 0.312,-1.081 0.672,-1.657 0.816,-1.802 0.144,-0.144 14.429,-11.961 15.317,-14.9634 0.889,-3.0264 -3.817,-5.092 -3.817,-5.092 z"
     fill="#ffffff"
     id="path243" />
  <path
     d="m 285.70734,74.2112 c -0.768,0.096 -1.393,-0.096 -1.849,1.249 -0.456,1.345 -0.888,2.186 -0.936,2.378 -0.048,0.192 -2.833,2.93 -3.193,4.131 -0.36,1.225 0.144,1.441 0.816,1.249 0.672,-0.168 3.913,-3.339 4.418,-3.819 0.504,-0.504 2.064,-3.723 2.328,-4.299 0.264,-0.553 -1.584,-0.889 -1.584,-0.889 z"
     fill="#ffffff"
     id="path245" />
  <path
     d="m 337.85134,43.8508 c 0,0 0.457,5.5724 1.705,11.337 1.248,5.7644 1.08,10.7844 3.145,13.1384 2.065,2.33 6.65,-0.096 7.202,-2.882 0.528,-2.786 -1.656,-18.3989 -2.136,-20.0322 -0.481,-1.6573 -9.916,-1.5612 -9.916,-1.5612 z"
     fill="#ffffff"
     id="path247" />
  <path
     d="m 346.23234,62.7292 c 0,0 -3.169,0.265 -4.514,2.162 -1.344,1.898 -9.987,20.608 -9.987,20.608 0,0 -1.464,0.985 -2.088,1.249 -0.625,0.265 -3.698,0 -3.698,0 0,0 -3.193,3.411 -3.553,4.54 -0.36,1.129 -0.672,4.756 -0.36,5.572 0.312,0.817 1.392,0 1.392,0 l -0.168,1.97 1.609,0.312 c 0,0 0.216,0.409 0.72,0.361 0.504,-0.049 0.888,-0.577 0.888,-0.577 0,0 1.537,0.504 2.161,-0.264 0.624,-0.769 3.553,-4.732 3.553,-4.732 l 2.377,-1.393 c 0,0 1.945,-1.97 2.473,-3.963 0.528,-1.97 13.876,-19.047 12.796,-22.938 -1.056,-3.891 -3.601,-2.907 -3.601,-2.907 z"
     fill="#ffffff"
     id="path249" />
  <path
     d="m 342.96734,29.0549 c -3.241,-1.3691 -7.515,1.201 -7.971,5.5244 -0.456,4.3234 2.521,16.4531 3.601,17.1737 1.081,0.7205 10.54,-2.0417 9.868,-4.1554 -0.673,-2.1377 -2.209,-17.1496 -5.498,-18.5427 z"
     fill="#eb4869"
     id="path251" />
  <path
     d="m 305.26834,210.9762 c 6.266,6.563 14.91,2.734 18.45,0 l -0.789,-5.364 c -8.498,-0.947 -23.927,-1.199 -17.661,5.364 z"
     fill="#c8ecdb"
     id="path253" />
  <defs
     id="defs683">
    <filter
       id="filter0_f_501_36186"
       x="59.535198"
       y="357.55899"
       width="626.88098"
       height="192.92999"
       filterUnits="userSpaceOnUse"
       color-interpolation-filters="sRGB">
      <feFlood
         flood-opacity="0"
         result="BackgroundImageFix"
         id="feFlood255" />
      <feBlend
         mode="normal"
         in="SourceGraphic"
         in2="BackgroundImageFix"
         result="shape"
         id="feBlend257" />
      <feGaussianBlur
         stdDeviation="25"
         result="effect1_foregroundBlur_501_36186"
         id="feGaussianBlur259" />
    </filter>
    <filter
       id="filter1_f_501_36186"
       x="280.52301"
       y="159.8"
       width="184.90199"
       height="116.924"
       filterUnits="userSpaceOnUse"
       color-interpolation-filters="sRGB">
      <feFlood
         flood-opacity="0"
         result="BackgroundImageFix"
         id="feFlood262" />
      <feBlend
         mode="normal"
         in="SourceGraphic"
         in2="BackgroundImageFix"
         result="shape"
         id="feBlend264" />
      <feGaussianBlur
         stdDeviation="4"
         result="effect1_foregroundBlur_501_36186"
         id="feGaussianBlur266" />
    </filter>
    <filter
       id="filter2_f_501_36186"
       x="383.23001"
       y="165.73801"
       width="72.466797"
       height="55.8955"
       filterUnits="userSpaceOnUse"
       color-interpolation-filters="sRGB">
      <feFlood
         flood-opacity="0"
         result="BackgroundImageFix"
         id="feFlood269" />
      <feBlend
         mode="normal"
         in="SourceGraphic"
         in2="BackgroundImageFix"
         result="shape"
         id="feBlend271" />
      <feGaussianBlur
         stdDeviation="4"
         result="effect1_foregroundBlur_501_36186"
         id="feGaussianBlur273" />
    </filter>
    <filter
       id="filter3_f_501_36186"
       x="290.27301"
       y="144.674"
       width="108.959"
       height="76.959999"
       filterUnits="userSpaceOnUse"
       color-interpolation-filters="sRGB">
      <feFlood
         flood-opacity="0"
         result="BackgroundImageFix"
         id="feFlood276" />
      <feBlend
         mode="normal"
         in="SourceGraphic"
         in2="BackgroundImageFix"
         result="shape"
         id="feBlend278" />
      <feGaussianBlur
         stdDeviation="4"
         result="effect1_foregroundBlur_501_36186"
         id="feGaussianBlur280" />
    </filter>
    <linearGradient
       id="paint0_linear_501_36186"
       x1="152.71201"
       y1="211.47301"
       x2="152.71201"
       y2="47.3368"
       gradientUnits="userSpaceOnUse"
       gradientTransform="translate(-77.135654,-43.3368)">
      <stop
         stop-color="#C7EBDB"
         id="stop283" />
      <stop
         offset="1"
         stop-color="#C7EBDB"
         stop-opacity="0"
         id="stop285" />
    </linearGradient>
    <linearGradient
       id="paint1_linear_501_36186"
       x1="373.423"
       y1="380.24701"
       x2="373.423"
       y2="478.285"
       gradientUnits="userSpaceOnUse">
      <stop
         stop-color="#245795"
         id="stop288" />
      <stop
         offset="1"
         stop-color="#8AD3A8"
         id="stop290" />
    </linearGradient>
    <linearGradient
       id="paint2_linear_501_36186"
       x1="373.46899"
       y1="-17.524099"
       x2="373.46899"
       y2="386.04401"
       gradientUnits="userSpaceOnUse"
       gradientTransform="translate(-77.135654,-43.3368)">
      <stop
         stop-color="#245795"
         id="stop293" />
      <stop
         offset="1"
         stop-color="#8AD3A8"
         id="stop295" />
    </linearGradient>
    <linearGradient
       id="paint3_linear_501_36186"
       x1="569.34399"
       y1="288.56699"
       x2="616.84399"
       y2="288.56699"
       gradientUnits="userSpaceOnUse"
       gradientTransform="translate(-77.135654,-43.3368)">
      <stop
         offset="0.0354"
         stop-color="#138BBD"
         id="stop298" />
      <stop
         offset="0.2257"
         stop-color="#169AC7"
         id="stop300" />
      <stop
         offset="0.5946"
         stop-color="#1FC3DF"
         id="stop302" />
      <stop
         offset="1"
         stop-color="#2AF6FF"
         id="stop304" />
    </linearGradient>
    <linearGradient
       id="paint4_linear_501_36186"
       x1="573.04999"
       y1="257.91699"
       x2="573.04999"
       y2="319.25299"
       gradientUnits="userSpaceOnUse"
       gradientTransform="translate(-77.135654,-43.3368)">
      <stop
         stop-color="#D4F2E4"
         id="stop307" />
      <stop
         offset="1"
         stop-color="#A8DFF9"
         id="stop309" />
    </linearGradient>
    <linearGradient
       id="paint5_linear_501_36186"
       x1="573.04999"
       y1="257.91699"
       x2="573.04999"
       y2="319.25299"
       gradientUnits="userSpaceOnUse"
       gradientTransform="translate(-77.135654,-43.3368)">
      <stop
         stop-color="#D4F2E4"
         id="stop312" />
      <stop
         offset="1"
         stop-color="#71D5A4"
         id="stop314" />
    </linearGradient>
    <linearGradient
       id="paint6_linear_501_36186"
       x1="570.77301"
       y1="318.591"
       x2="542.87402"
       y2="246.995"
       gradientUnits="userSpaceOnUse"
       gradientTransform="translate(-77.135654,-43.3368)">
      <stop
         stop-color="#D4F2E4"
         id="stop317" />
      <stop
         offset="1"
         stop-color="#71D5A4"
         id="stop319" />
    </linearGradient>
    <linearGradient
       id="paint7_linear_501_36186"
       x1="571.08899"
       y1="323.76099"
       x2="566.44702"
       y2="257.974"
       gradientUnits="userSpaceOnUse"
       gradientTransform="translate(-77.135654,-43.3368)">
      <stop
         stop-color="#E0F1E9"
         id="stop322" />
      <stop
         offset="1"
         stop-color="#EFFDF7"
         id="stop324" />
    </linearGradient>
    <linearGradient
       id="paint8_linear_501_36186"
       x1="549.46503"
       y1="213.52699"
       x2="582.09998"
       y2="206.692"
       gradientUnits="userSpaceOnUse"
       gradientTransform="translate(-77.135654,-43.3368)">
      <stop
         stop-color="#245795"
         id="stop327" />
      <stop
         offset="1"
         stop-color="#8AD3A8"
         id="stop329" />
    </linearGradient>
    <linearGradient
       id="paint9_linear_501_36186"
       x1="398.79901"
       y1="218.049"
       x2="541.55701"
       y2="340.76199"
       gradientUnits="userSpaceOnUse"
       gradientTransform="translate(-77.135654,-43.3368)">
      <stop
         offset="0.0354"
         stop-color="#138BBD"
         id="stop332" />
      <stop
         offset="0.2257"
         stop-color="#169AC7"
         id="stop334" />
      <stop
         offset="0.5946"
         stop-color="#1FC3DF"
         id="stop336" />
      <stop
         offset="1"
         stop-color="#2AF6FF"
         id="stop338" />
    </linearGradient>
    <linearGradient
       id="paint10_linear_501_36186"
       x1="480.70001"
       y1="258.741"
       x2="480.70001"
       y2="322.31699"
       gradientUnits="userSpaceOnUse"
       gradientTransform="translate(-77.135654,-43.3368)">
      <stop
         stop-color="#D4F2E4"
         id="stop341" />
      <stop
         offset="1"
         stop-color="#A8DFF9"
         id="stop343" />
    </linearGradient>
    <linearGradient
       id="paint11_linear_501_36186"
       x1="480.70001"
       y1="258.741"
       x2="480.70001"
       y2="322.31699"
       gradientUnits="userSpaceOnUse"
       gradientTransform="translate(-77.135654,-43.3368)">
      <stop
         stop-color="#D4F2E4"
         id="stop346" />
      <stop
         offset="1"
         stop-color="#71D5A4"
         id="stop348" />
    </linearGradient>
    <linearGradient
       id="paint12_linear_501_36186"
       x1="473.88901"
       y1="233.334"
       x2="553.94501"
       y2="336.948"
       gradientUnits="userSpaceOnUse"
       gradientTransform="translate(-77.135654,-43.3368)">
      <stop
         stop-color="#245795"
         id="stop351" />
      <stop
         offset="0.827877"
         stop-color="#8AD3A8"
         id="stop353" />
    </linearGradient>
    <linearGradient
       id="paint13_linear_501_36186"
       x1="408.84"
       y1="233.909"
       x2="551.59698"
       y2="356.62201"
       gradientUnits="userSpaceOnUse"
       gradientTransform="translate(-77.135654,-43.3368)">
      <stop
         offset="0.0354"
         stop-color="#138BBD"
         id="stop356" />
      <stop
         offset="0.2257"
         stop-color="#169AC7"
         id="stop358" />
      <stop
         offset="0.5946"
         stop-color="#1FC3DF"
         id="stop360" />
      <stop
         offset="1"
         stop-color="#2AF6FF"
         id="stop362" />
    </linearGradient>
    <linearGradient
       id="paint14_linear_501_36186"
       x1="504.81201"
       y1="284.836"
       x2="504.81201"
       y2="348.19601"
       gradientUnits="userSpaceOnUse"
       gradientTransform="translate(-77.135654,-43.3368)">
      <stop
         stop-color="#D4F2E4"
         id="stop365" />
      <stop
         offset="1"
         stop-color="#A8DFF9"
         id="stop367" />
    </linearGradient>
    <linearGradient
       id="paint15_linear_501_36186"
       x1="504.81201"
       y1="284.836"
       x2="504.81201"
       y2="348.19601"
       gradientUnits="userSpaceOnUse"
       gradientTransform="translate(-77.135654,-43.3368)">
      <stop
         stop-color="#D4F2E4"
         id="stop370" />
      <stop
         offset="1"
         stop-color="#71D5A4"
         id="stop372" />
    </linearGradient>
    <linearGradient
       id="paint16_linear_501_36186"
       x1="502.896"
       y1="352.854"
       x2="497.82901"
       y2="284.935"
       gradientUnits="userSpaceOnUse"
       gradientTransform="translate(-77.135654,-43.3368)">
      <stop
         stop-color="#E0F1E9"
         id="stop375" />
      <stop
         offset="1"
         stop-color="#EFFDF7"
         id="stop377" />
    </linearGradient>
    <linearGradient
       id="paint17_linear_501_36186"
       x1="478.47"
       y1="201.908"
       x2="538.88599"
       y2="206.41499"
       gradientUnits="userSpaceOnUse"
       gradientTransform="translate(-77.135654,-43.3368)">
      <stop
         stop-color="#245795"
         id="stop380" />
      <stop
         offset="1"
         stop-color="#8AD3A8"
         id="stop382" />
    </linearGradient>
    <linearGradient
       id="paint18_linear_501_36186"
       x1="520.39801"
       y1="316.05499"
       x2="587.052"
       y2="316.05499"
       gradientUnits="userSpaceOnUse"
       gradientTransform="translate(-77.135654,-43.3368)">
      <stop
         offset="0.0101"
         stop-color="#138BBD"
         id="stop385" />
      <stop
         offset="0.0975"
         stop-color="#148FC0"
         id="stop387" />
      <stop
         offset="0.1927"
         stop-color="#179DC8"
         id="stop389" />
      <stop
         offset="0.2828"
         stop-color="#1BB0D4"
         id="stop391" />
      <stop
         offset="0.3151"
         stop-color="#1CB3D6"
         id="stop393" />
      <stop
         offset="0.3435"
         stop-color="#1EBEDD"
         id="stop395" />
      <stop
         offset="0.3535"
         stop-color="#1FC4E1"
         id="stop397" />
      <stop
         offset="0.6313"
         stop-color="#2AF6FF"
         id="stop399" />
      <stop
         offset="0.8737"
         stop-color="#1BB0D4"
         id="stop401" />
    </linearGradient>
    <linearGradient
       id="paint19_linear_501_36186"
       x1="549.448"
       y1="283.91299"
       x2="549.448"
       y2="348.19601"
       gradientUnits="userSpaceOnUse"
       gradientTransform="translate(-77.135654,-43.3368)">
      <stop
         stop-color="#D4F2E4"
         id="stop404" />
      <stop
         offset="1"
         stop-color="#A8DFF9"
         id="stop406" />
    </linearGradient>
    <linearGradient
       id="paint20_linear_501_36186"
       x1="549.448"
       y1="283.91299"
       x2="549.448"
       y2="348.19601"
       gradientUnits="userSpaceOnUse"
       gradientTransform="translate(-77.135654,-43.3368)">
      <stop
         stop-color="#D4F2E4"
         id="stop409" />
      <stop
         offset="1"
         stop-color="#71D5A4"
         id="stop411" />
    </linearGradient>
    <linearGradient
       id="paint21_linear_501_36186"
       x1="542.88202"
       y1="347.50201"
       x2="530.88"
       y2="262.77399"
       gradientUnits="userSpaceOnUse"
       gradientTransform="translate(-77.135654,-43.3368)">
      <stop
         stop-color="#D4F2E4"
         id="stop414" />
      <stop
         offset="1"
         stop-color="#71D5A4"
         id="stop416" />
    </linearGradient>
    <linearGradient
       id="paint22_linear_501_36186"
       x1="543.79498"
       y1="352.92099"
       x2="542.01898"
       y2="283.67499"
       gradientUnits="userSpaceOnUse"
       gradientTransform="translate(-77.135654,-43.3368)">
      <stop
         stop-color="#E0F1E9"
         id="stop419" />
      <stop
         offset="1"
         stop-color="#EFFDF7"
         id="stop421" />
    </linearGradient>
    <linearGradient
       id="paint23_linear_501_36186"
       x1="542.56799"
       y1="258.224"
       x2="623.534"
       y2="362.91599"
       gradientUnits="userSpaceOnUse"
       gradientTransform="translate(-77.135654,-43.3368)">
      <stop
         stop-color="#245795"
         id="stop424" />
      <stop
         offset="0.827877"
         stop-color="#8AD3A8"
         id="stop426" />
    </linearGradient>
    <linearGradient
       id="paint24_linear_501_36186"
       x1="574.96997"
       y1="135.04201"
       x2="508.56201"
       y2="287.78"
       gradientUnits="userSpaceOnUse"
       gradientTransform="translate(-77.135654,-43.3368)">
      <stop
         offset="0.0354"
         stop-color="#138BBD"
         id="stop429" />
      <stop
         offset="0.2257"
         stop-color="#169AC7"
         id="stop431" />
      <stop
         offset="0.5946"
         stop-color="#1FC3DF"
         id="stop433" />
      <stop
         offset="1"
         stop-color="#2AF6FF"
         id="stop435" />
    </linearGradient>
    <linearGradient
       id="paint25_linear_501_36186"
       x1="516.13397"
       y1="221.53101"
       x2="516.13397"
       y2="297.35699"
       gradientUnits="userSpaceOnUse"
       gradientTransform="translate(-77.135654,-43.3368)">
      <stop
         stop-color="#F0FEF8"
         id="stop438" />
      <stop
         offset="1"
         stop-color="#E0F1E9"
         id="stop440" />
    </linearGradient>
    <linearGradient
       id="paint26_linear_501_36186"
       x1="473.76401"
       y1="156.882"
       x2="619.94702"
       y2="263.85101"
       gradientUnits="userSpaceOnUse"
       gradientTransform="translate(-77.135654,-43.3368)">
      <stop
         stop-color="#245795"
         id="stop443" />
      <stop
         offset="1"
         stop-color="#8AD3A8"
         id="stop445" />
    </linearGradient>
    <linearGradient
       id="paint27_linear_501_36186"
       x1="219.286"
       y1="295.673"
       x2="401.94299"
       y2="278.55701"
       gradientUnits="userSpaceOnUse"
       gradientTransform="translate(-77.135654,-43.3368)">
      <stop
         offset="0.0354"
         stop-color="#9F19AB"
         id="stop448" />
      <stop
         offset="0.2438"
         stop-color="#AE25B1"
         id="stop450" />
      <stop
         offset="0.6455"
         stop-color="#D744BF"
         id="stop452" />
      <stop
         offset="1"
         stop-color="#FF63CE"
         id="stop454" />
    </linearGradient>
    <linearGradient
       id="paint28_linear_501_36186"
       x1="218.85899"
       y1="291.89401"
       x2="286.79901"
       y2="291.89401"
       gradientUnits="userSpaceOnUse"
       gradientTransform="translate(-77.135654,-43.3368)">
      <stop
         stop-color="#245795"
         id="stop457" />
      <stop
         offset="1"
         stop-color="#8AD3A8"
         id="stop459" />
    </linearGradient>
    <linearGradient
       id="paint29_linear_501_36186"
       x1="246.13901"
       y1="323.492"
       x2="234.095"
       y2="237.802"
       gradientUnits="userSpaceOnUse"
       gradientTransform="translate(-77.135654,-43.3368)">
      <stop
         stop-color="#D4F2E4"
         id="stop462" />
      <stop
         offset="1"
         stop-color="#71D5A4"
         id="stop464" />
    </linearGradient>
    <linearGradient
       id="paint30_linear_501_36186"
       x1="218.853"
       y1="292.10599"
       x2="286.17001"
       y2="292.10599"
       gradientUnits="userSpaceOnUse"
       gradientTransform="translate(-77.135654,-43.3368)">
      <stop
         offset="0.0354"
         stop-color="#9F19AB"
         id="stop467" />
      <stop
         offset="0.2438"
         stop-color="#AE25B1"
         id="stop469" />
      <stop
         offset="0.6455"
         stop-color="#D744BF"
         id="stop471" />
      <stop
         offset="1"
         stop-color="#FF63CE"
         id="stop473" />
    </linearGradient>
    <linearGradient
       id="paint31_linear_501_36186"
       x1="218.85899"
       y1="292.289"
       x2="258.85901"
       y2="292.289"
       gradientUnits="userSpaceOnUse"
       gradientTransform="translate(-77.135654,-43.3368)">
      <stop
         stop-color="#245795"
         id="stop476" />
      <stop
         offset="1"
         stop-color="#8AD3A8"
         id="stop478" />
    </linearGradient>
    <linearGradient
       id="paint32_linear_501_36186"
       x1="234.92"
       y1="322.05099"
       x2="217.304"
       y2="243.70599"
       gradientUnits="userSpaceOnUse"
       gradientTransform="translate(-77.135654,-43.3368)">
      <stop
         stop-color="#D4F2E4"
         id="stop481" />
      <stop
         offset="1"
         stop-color="#71D5A4"
         id="stop483" />
    </linearGradient>
    <linearGradient
       id="paint33_linear_501_36186"
       x1="221.46001"
       y1="318.91"
       x2="404.117"
       y2="301.79401"
       gradientUnits="userSpaceOnUse"
       gradientTransform="translate(-77.135654,-43.3368)">
      <stop
         offset="0.0354"
         stop-color="#9F19AB"
         id="stop486" />
      <stop
         offset="0.2438"
         stop-color="#AE25B1"
         id="stop488" />
      <stop
         offset="0.6455"
         stop-color="#D744BF"
         id="stop490" />
      <stop
         offset="1"
         stop-color="#FF63CE"
         id="stop492" />
    </linearGradient>
    <linearGradient
       id="paint34_linear_501_36186"
       x1="217.67999"
       y1="318.43701"
       x2="239.524"
       y2="318.43701"
       gradientUnits="userSpaceOnUse"
       gradientTransform="translate(-77.135654,-43.3368)">
      <stop
         stop-color="#245795"
         id="stop495" />
      <stop
         offset="1"
         stop-color="#8AD3A8"
         id="stop497" />
    </linearGradient>
    <linearGradient
       id="paint35_linear_501_36186"
       x1="226.451"
       y1="349.61301"
       x2="195.097"
       y2="276.91901"
       gradientUnits="userSpaceOnUse"
       gradientTransform="translate(-77.135654,-43.3368)">
      <stop
         stop-color="#D4F2E4"
         id="stop500" />
      <stop
         offset="1"
         stop-color="#71D5A4"
         id="stop502" />
    </linearGradient>
    <linearGradient
       id="paint36_linear_501_36186"
       x1="90.703598"
       y1="223.72501"
       x2="242.028"
       y2="357.14099"
       gradientUnits="userSpaceOnUse"
       gradientTransform="translate(-77.135654,-43.3368)">
      <stop
         offset="0.0354"
         stop-color="#9F19AB"
         id="stop505" />
      <stop
         offset="0.2438"
         stop-color="#AE25B1"
         id="stop507" />
      <stop
         offset="0.6455"
         stop-color="#D744BF"
         id="stop509" />
      <stop
         offset="1"
         stop-color="#FF63CE"
         id="stop511" />
    </linearGradient>
    <linearGradient
       id="paint37_linear_501_36186"
       x1="147.93201"
       y1="305.28299"
       x2="217.67799"
       y2="305.28299"
       gradientUnits="userSpaceOnUse"
       gradientTransform="translate(-77.135654,-43.3368)">
      <stop
         stop-color="#245795"
         id="stop514" />
      <stop
         offset="1"
         stop-color="#8AD3A8"
         id="stop516" />
    </linearGradient>
    <linearGradient
       id="paint38_linear_501_36186"
       x1="175.936"
       y1="349.328"
       x2="153.508"
       y2="231.80299"
       gradientUnits="userSpaceOnUse"
       gradientTransform="translate(-77.135654,-43.3368)">
      <stop
         stop-color="#D4F2E4"
         id="stop519" />
      <stop
         offset="1"
         stop-color="#71D5A4"
         id="stop521" />
    </linearGradient>
    <linearGradient
       id="paint39_linear_501_36186"
       x1="268.26801"
       y1="262.436"
       x2="267.27802"
       y2="230.888"
       gradientUnits="userSpaceOnUse"
       gradientTransform="translate(-77.135654,-43.3368)">
      <stop
         stop-color="#E0F1E9"
         id="stop524" />
      <stop
         offset="1"
         stop-color="#EFFDF7"
         id="stop526" />
    </linearGradient>
    <linearGradient
       id="paint40_linear_501_36186"
       x1="295.22"
       y1="254.95599"
       x2="257.72"
       y2="250.856"
       gradientUnits="userSpaceOnUse"
       gradientTransform="translate(-77.135654,-43.3368)">
      <stop
         stop-color="#D4F2E4"
         id="stop529" />
      <stop
         offset="1"
         stop-color="#71D5A4"
         id="stop531" />
    </linearGradient>
    <linearGradient
       id="paint41_linear_501_36186"
       x1="244.96201"
       y1="107.203"
       x2="212.825"
       y2="284.229"
       gradientUnits="userSpaceOnUse"
       gradientTransform="translate(-77.135654,-43.3368)">
      <stop
         offset="0.0354"
         stop-color="#9F19AB"
         id="stop534" />
      <stop
         offset="0.2438"
         stop-color="#AE25B1"
         id="stop536" />
      <stop
         offset="0.6455"
         stop-color="#D744BF"
         id="stop538" />
      <stop
         offset="1"
         stop-color="#FF63CE"
         id="stop540" />
    </linearGradient>
    <linearGradient
       id="paint42_linear_501_36186"
       x1="147.92"
       y1="259.69901"
       x2="286.78299"
       y2="259.69901"
       gradientUnits="userSpaceOnUse"
       gradientTransform="translate(-77.135654,-43.3368)">
      <stop
         stop-color="#245795"
         id="stop543" />
      <stop
         offset="1"
         stop-color="#8AD3A8"
         id="stop545" />
    </linearGradient>
    <linearGradient
       id="paint43_linear_501_36186"
       x1="203.677"
       y1="298.603"
       x2="194.632"
       y2="191.77901"
       gradientUnits="userSpaceOnUse"
       gradientTransform="translate(-77.135654,-43.3368)">
      <stop
         stop-color="#D4F2E4"
         id="stop548" />
      <stop
         offset="1"
         stop-color="#71D5A4"
         id="stop550" />
    </linearGradient>
    <linearGradient
       id="paint44_linear_501_36186"
       x1="371.66101"
       y1="381.26001"
       x2="189.004"
       y2="364.14401"
       gradientUnits="userSpaceOnUse"
       gradientTransform="translate(-77.135654,-43.3368)">
      <stop
         offset="0.0354"
         stop-color="#9F19AB"
         id="stop553" />
      <stop
         offset="0.2438"
         stop-color="#AE25B1"
         id="stop555" />
      <stop
         offset="0.6455"
         stop-color="#D744BF"
         id="stop557" />
      <stop
         offset="1"
         stop-color="#FF63CE"
         id="stop559" />
    </linearGradient>
    <linearGradient
       id="paint45_linear_501_36186"
       x1="372.08801"
       y1="377.48099"
       x2="304.14801"
       y2="377.48099"
       gradientUnits="userSpaceOnUse"
       gradientTransform="translate(-77.135654,-43.3368)">
      <stop
         stop-color="#245795"
         id="stop562" />
      <stop
         offset="1"
         stop-color="#8AD3A8"
         id="stop564" />
    </linearGradient>
    <linearGradient
       id="paint46_linear_501_36186"
       x1="344.80801"
       y1="409.07901"
       x2="356.85199"
       y2="323.38901"
       gradientUnits="userSpaceOnUse"
       gradientTransform="translate(-77.135654,-43.3368)">
      <stop
         stop-color="#D4F2E4"
         id="stop567" />
      <stop
         offset="1"
         stop-color="#71D5A4"
         id="stop569" />
    </linearGradient>
    <linearGradient
       id="paint47_linear_501_36186"
       x1="372.095"
       y1="377.69299"
       x2="304.77802"
       y2="377.69299"
       gradientUnits="userSpaceOnUse"
       gradientTransform="translate(-77.135654,-43.3368)">
      <stop
         offset="0.0354"
         stop-color="#9F19AB"
         id="stop572" />
      <stop
         offset="0.2438"
         stop-color="#AE25B1"
         id="stop574" />
      <stop
         offset="0.6455"
         stop-color="#D744BF"
         id="stop576" />
      <stop
         offset="1"
         stop-color="#FF63CE"
         id="stop578" />
    </linearGradient>
    <linearGradient
       id="paint48_linear_501_36186"
       x1="372.08801"
       y1="377.87601"
       x2="332.08801"
       y2="377.87601"
       gradientUnits="userSpaceOnUse"
       gradientTransform="translate(-77.135654,-43.3368)">
      <stop
         stop-color="#245795"
         id="stop581" />
      <stop
         offset="1"
         stop-color="#8AD3A8"
         id="stop583" />
    </linearGradient>
    <linearGradient
       id="paint49_linear_501_36186"
       x1="356.02701"
       y1="407.638"
       x2="373.64401"
       y2="329.293"
       gradientUnits="userSpaceOnUse"
       gradientTransform="translate(-77.135654,-43.3368)">
      <stop
         stop-color="#D4F2E4"
         id="stop586" />
      <stop
         offset="1"
         stop-color="#71D5A4"
         id="stop588" />
    </linearGradient>
    <linearGradient
       id="paint50_linear_501_36186"
       x1="369.487"
       y1="404.49701"
       x2="186.83"
       y2="387.38101"
       gradientUnits="userSpaceOnUse"
       gradientTransform="translate(-77.135654,-43.3368)">
      <stop
         offset="0.0354"
         stop-color="#9F19AB"
         id="stop591" />
      <stop
         offset="0.2438"
         stop-color="#AE25B1"
         id="stop593" />
      <stop
         offset="0.6455"
         stop-color="#D744BF"
         id="stop595" />
      <stop
         offset="1"
         stop-color="#FF63CE"
         id="stop597" />
    </linearGradient>
    <linearGradient
       id="paint51_linear_501_36186"
       x1="373.26801"
       y1="404.02301"
       x2="351.423"
       y2="404.02301"
       gradientUnits="userSpaceOnUse"
       gradientTransform="translate(-77.135654,-43.3368)">
      <stop
         stop-color="#245795"
         id="stop600" />
      <stop
         offset="1"
         stop-color="#8AD3A8"
         id="stop602" />
    </linearGradient>
    <linearGradient
       id="paint52_linear_501_36186"
       x1="364.496"
       y1="435.20001"
       x2="395.85001"
       y2="362.50601"
       gradientUnits="userSpaceOnUse"
       gradientTransform="translate(-77.135654,-43.3368)">
      <stop
         stop-color="#D4F2E4"
         id="stop605" />
      <stop
         offset="1"
         stop-color="#71D5A4"
         id="stop607" />
    </linearGradient>
    <linearGradient
       id="paint53_linear_501_36186"
       x1="500.24399"
       y1="309.311"
       x2="348.92001"
       y2="442.728"
       gradientUnits="userSpaceOnUse"
       gradientTransform="translate(-77.135654,-43.3368)">
      <stop
         offset="0.0354"
         stop-color="#9F19AB"
         id="stop610" />
      <stop
         offset="0.2438"
         stop-color="#AE25B1"
         id="stop612" />
      <stop
         offset="0.6455"
         stop-color="#D744BF"
         id="stop614" />
      <stop
         offset="1"
         stop-color="#FF63CE"
         id="stop616" />
    </linearGradient>
    <linearGradient
       id="paint54_linear_501_36186"
       x1="443.01599"
       y1="390.86899"
       x2="373.26999"
       y2="390.86899"
       gradientUnits="userSpaceOnUse"
       gradientTransform="translate(-77.135654,-43.3368)">
      <stop
         stop-color="#245795"
         id="stop619" />
      <stop
         offset="1"
         stop-color="#8AD3A8"
         id="stop621" />
    </linearGradient>
    <linearGradient
       id="paint55_linear_501_36186"
       x1="415.01099"
       y1="434.914"
       x2="437.44"
       y2="317.39001"
       gradientUnits="userSpaceOnUse"
       gradientTransform="translate(-77.135654,-43.3368)">
      <stop
         stop-color="#D4F2E4"
         id="stop624" />
      <stop
         offset="1"
         stop-color="#71D5A4"
         id="stop626" />
    </linearGradient>
    <linearGradient
       id="paint56_linear_501_36186"
       x1="322.67999"
       y1="348.02301"
       x2="323.66901"
       y2="316.47501"
       gradientUnits="userSpaceOnUse"
       gradientTransform="translate(-77.135654,-43.3368)">
      <stop
         stop-color="#E0F1E9"
         id="stop629" />
      <stop
         offset="1"
         stop-color="#EFFDF7"
         id="stop631" />
    </linearGradient>
    <linearGradient
       id="paint57_linear_501_36186"
       x1="295.72699"
       y1="340.543"
       x2="333.22699"
       y2="336.44299"
       gradientUnits="userSpaceOnUse"
       gradientTransform="translate(-77.135654,-43.3368)">
      <stop
         stop-color="#D4F2E4"
         id="stop634" />
      <stop
         offset="1"
         stop-color="#71D5A4"
         id="stop636" />
    </linearGradient>
    <linearGradient
       id="paint58_linear_501_36186"
       x1="345.98599"
       y1="192.78999"
       x2="378.12201"
       y2="369.81601"
       gradientUnits="userSpaceOnUse"
       gradientTransform="translate(-77.135654,-43.3368)">
      <stop
         offset="0.0354"
         stop-color="#9F19AB"
         id="stop639" />
      <stop
         offset="0.2438"
         stop-color="#AE25B1"
         id="stop641" />
      <stop
         offset="0.6455"
         stop-color="#D744BF"
         id="stop643" />
      <stop
         offset="1"
         stop-color="#FF63CE"
         id="stop645" />
    </linearGradient>
    <linearGradient
       id="paint59_linear_501_36186"
       x1="443.02701"
       y1="345.285"
       x2="304.16501"
       y2="345.285"
       gradientUnits="userSpaceOnUse"
       gradientTransform="translate(-77.135654,-43.3368)">
      <stop
         stop-color="#245795"
         id="stop648" />
      <stop
         offset="1"
         stop-color="#8AD3A8"
         id="stop650" />
    </linearGradient>
    <linearGradient
       id="paint60_linear_501_36186"
       x1="387.26999"
       y1="384.19"
       x2="396.315"
       y2="277.366"
       gradientUnits="userSpaceOnUse"
       gradientTransform="translate(-77.135654,-43.3368)">
      <stop
         stop-color="#D4F2E4"
         id="stop653" />
      <stop
         offset="1"
         stop-color="#71D5A4"
         id="stop655" />
    </linearGradient>
    <linearGradient
       id="paint61_linear_501_36186"
       x1="426.414"
       y1="158.09399"
       x2="404.54401"
       y2="155.69501"
       gradientUnits="userSpaceOnUse">
      <stop
         stop-color="#245795"
         id="stop658" />
      <stop
         offset="1"
         stop-color="#8AD3A8"
         id="stop660" />
    </linearGradient>
    <linearGradient
       id="paint62_linear_501_36186"
       x1="413.76401"
       y1="165.42"
       x2="391.89301"
       y2="163.021"
       gradientUnits="userSpaceOnUse">
      <stop
         stop-color="#245795"
         id="stop663" />
      <stop
         offset="1"
         stop-color="#8AD3A8"
         id="stop665" />
    </linearGradient>
    <linearGradient
       id="paint63_linear_501_36186"
       x1="401.11099"
       y1="172.722"
       x2="379.254"
       y2="170.325"
       gradientUnits="userSpaceOnUse">
      <stop
         stop-color="#245795"
         id="stop668" />
      <stop
         offset="1"
         stop-color="#8AD3A8"
         id="stop670" />
    </linearGradient>
    <linearGradient
       id="paint64_linear_501_36186"
       x1="367.88501"
       y1="120.526"
       x2="332.521"
       y2="120.526"
       gradientUnits="userSpaceOnUse">
      <stop
         stop-color="#245795"
         id="stop673" />
      <stop
         offset="1"
         stop-color="#8AD3A8"
         id="stop675" />
    </linearGradient>
    <linearGradient
       id="paint65_linear_501_36186"
       x1="409.32001"
       y1="142.149"
       x2="316.319"
       y2="142.149"
       gradientUnits="userSpaceOnUse">
      <stop
         stop-color="#245795"
         id="stop678" />
      <stop
         offset="1"
         stop-color="#8AD3A8"
         id="stop680" />
    </linearGradient>
  </defs>
</svg>
