<svg xmlns="http://www.w3.org/2000/svg" width="535pt" height="137pt" viewBox="0 0 535 137"><g fill="#27246f"><path d="M32.781 20.66l4.399-.902c.101-6.098.101-9.098-4.399-12.899l-1.101-.898c-.7-.602-1.5-1.203-2.399-1.602l1.797 15.5c.703.102 1.203.399 1.703.801zm-21.203 17c.3.098.703.2 1 .3l12.8-11.6c-.3-.602-.398-1.2-.398-1.9v-.5L5.68 15.06c-.399 2.3.398 4.199 1.398 6.5.902 2 1.8 4.402 2.5 7.5.602 3 1.203 5.199 1.5 6.8.3.7.402 1.301.5 1.801zm3.102 2.598l12.898-11.7.3.102-.5 19.598-12.5-6.297v-.602c0-.3-.097-.699-.198-1.101zm-1.602 4.5c-.598.402-1.398.601-2.098.601h-.3l-.602 1.5c-.598 1.602-1.398 3.7-2.297 6.2C.981 71.96 2.38 81.758 6.68 88.66c.199 0 .5-.101.699-.101 1.902 0 3.5 1.402 3.8 3.3l17.2 5.102-14.899-11c-.601.398-1.402.7-2.199.7-2.101 0-3.8-1.7-3.8-3.802 0-1.699 1.199-3.199 2.699-3.699L13.28 62.06c-.3-.598-.5-1.2-.5-1.899 0-2.101 1.7-3.902 3.899-3.902 1.5 0 2.8.902 3.5 2.101l22.101 1.602c.5-1.203 1.598-2 2.899-2.203l.699-3.297-17.5-2.5-1.399-.203zM7.98 43.96c-.5-.703-.8-1.5-.8-2.402 0-1.2.601-2.399 1.5-3.098-.102-.5-.301-1.203-.5-1.902-.399-1.598-.899-3.7-1.602-6.899-.598-2.8-1.5-5-2.297-6.902C1.88 17.16.38 13.558 8.481 5.16l.097-.101.102-.098c1.898-1.3 7.601-4.5 13.8-4.902 3.801-.301 7.801.5 11.301 3.5l1.098 1c5.402 4.601 5.5 8.101 5.5 14.699l7.3-1.399c0-.898.2-1.699.5-2.5.9-2.601 3.4-4 6.5-4.699 3.801-.8 8.5-.601 11.5 0l.5.098.301.402c.5.598.899 1.5 1.2 2.598l3.5-.7c-.102-1.597 0-3.398.199-5.597l.101-1.3 1.301-.102 19.2-1.7 2.097-.199-.5 2.098c-.2.8-.398 1.703-.598 2.601L130.38 1.66l.402-.101.399.101c.398.098.699.3 1.101.5 2 1.2 3.399 3.598 4.098 6.2.7 2.5.7 5.3-.098 7.398-.203.402-.402.902-.601 1.3l-.399.7-.8.101-42.903 3.899c-.398 3.601-.898 7.402-1.297 11.203-1.402 13-2.8 26.098-5.601 33.398.5.7.8 1.602.8 2.5 0 2.5-2 4.602-4.601 4.602-1.2 0-2.3-.5-3.098-1.203l-14.8 2.402c-.5 1.8-1 3-1.301 3.3-.301.2-.602.4-.899.4l-5.5.699c2.7 5.8 7 16 10.399 25.699 2.5.203 4.398 2.3 4.398 4.8 0 1.5-.598 2.801-1.7 3.602 1 3.5 1.802 6.598 2.2 9.3 1.402.798 2.3 2.4 2.3 4.099 0 2.601-2.097 4.8-4.8 4.8-1.398 0-2.7-.601-3.598-1.601l-32.699 7c-2.703-1.797-3.402-5.297-4.3-9.797-2-.602-3.403-2.402-3.403-4.602 0-1.398.602-2.699 1.602-3.5-1.7-5.699-5-12.101-12.2-18.601-1.601-1.399-3.101-2.797-4.601-4.2-.399.2-.899.301-1.399.301-2.101 0-3.902-1.699-3.902-3.898 0-.703.203-1.402.602-2-4.899-7.5-6.5-18 .8-38.5 1-2.902 1.801-4.8 2.301-6.3zm22.899-14.8l-.3 11.5c7.1-1.7 6.901-5.602 6.702-12.903v-1l-3.402.3c-.7 1-1.7 1.801-3 2.102zM13.48 79.558l2.801-15.598h.5c1.098 0 2.098-.402 2.797-1.203l17.102 6.5-22.399 11c-.203-.2-.5-.5-.8-.7zm50.399 44.699c.7-1.297 2.101-2.297 3.601-2.5-.3-2.297-.902-4.797-1.699-7.5h-.5c-1.5 0-2.902-.7-3.8-1.797l-25.2 8.898zm4.7-107.2l64.3-9.199c-.5-1.3-1.3-2.3-2.2-2.898l-.199-.102-61.902 12zm65.1-6.199l-64.8 9.301v.598l64.402-5.797v-.102c.399-1.101.5-2.601.399-4zM66.48 58.758l11.5 6.601c.399-.3.801-.601 1.2-.8l-1.301-34c-3.399 8.699-9.098 23-11.399 28.199zm9.899 9.3l-10.899-6.3c-.601 3.703-1.199 7-1.8 9.703l12.601-2v-.602c0-.3.098-.601.098-.8zm4.3-44.597l1.5 40.398c2.301-7.101 3.602-19.199 4.9-31.3.401-3.598.8-7.098 1.202-10.598l-7.703.7v.3zm-26 8.898l6.4 38.102c.901-4.5 1.901-11.5 2.8-19.102 1.5-12.8 2.601-27.199 1.601-34.5-.199-1.5-.402-2.601-.8-3.199-2.602-.5-6.5-.601-9.5.098-2.102.5-3.7 1.3-4.2 2.601-.601 1.7-.3 4 .301 6.2.297 1.101.797 2.101 1.297 3 2.102 0 3.8 1.699 3.8 3.8 0 1.2-.698 2.301-1.698 3zm3.9 42l-5.9-35.101-4.3 19.402c.8.7 1.402 1.8 1.402 2.899a3.8 3.8 0 01-3.8 3.8c-1.5 0-2.903-.898-3.5-2.199l-16.602-1.2zm4.401 53l-29.699-3.101a5.085 5.085 0 01-2.703 2.703c.5 3.098 1 5.398 2.5 6.797zm-46.8-43.3l35-4.5-16.102 15.699c-.598-.2-1.2-.399-1.898-.399-.7 0-1.301.102-1.899.399zm24.5-13.2l13.5 5.102-32.801 4.297zm10.3-38.199l-4.199 18.8-16.402-2.3.2-5.3c10.202-2.102 10.1-6.9 9.8-16.2v-1.2l8.902-.8c.2.3.297.7.5 1-.601.7-1 1.598-1 2.598-.101 1.5.899 2.8 2.2 3.402zm-22.101 85h-.3c-1.798-5.8-5.2-12.5-13.2-19.601l-2.7-2.399 15.7 4.7c.3 2.398 2.3 4.3 4.8 4.3 1.5 0 2.801-.7 3.7-1.7l23.3 6.9-27.6 9.8c-.9-1.3-2.2-2-3.7-2zm8.5-20.3l15.8-15.4c2.7 6.7 6.5 15.298 9.602 23.5a3.505 3.505 0 00-1.402 1.298l-23.3-6.899v-.199c-.099-.8-.298-1.601-.7-2.3zm-11.3-94.102L27.98 19.96c-.699.297-1.199.7-1.699 1.2l-19.5-9c.797-1.403 2-2.903 3.7-4.7 1.8-1.203 6.8-3.902 12.097-4.3 1.203-.102 2.402 0 3.5.097zM34.48 23.46c0 .098 0 .2.098.398l13.5-1.199c-.098-.601-.297-1.101-.398-1.7zm34.399.398c0 7.2-.7 16.602-1.7 25.5 3.9-9.601 9.2-23.398 10.301-26.101l-.199-.098zm21.3-14.3c.102-.598.2-1.301.4-1.899L74.78 9.06c-.101 1.3-.101 2.402-.101 3.402zm0 0" fill-rule="evenodd"/><path d="M167.18 42.66h4v19.5h12.199v3.7h-16.3v-23.2zm0 0M205.18 46.36h-13.102v6h11.602v3.699h-11.602v6.199h13.3v3.703H187.98V42.758h17.2zm0 0M226.68 42.66h4v23.2h-3.399l-12.8-16.5v16.5h-4v-23.2h3.8l12.399 16.098zm0 0M240.68 49.86c.199.3.398.6.8.898.399.3 1 .601 1.7.8.699.2 1.601.5 2.699.801 1.2.301 2.3.7 3.2 1 .901.301 1.702.801 2.3 1.399a5.235 5.235 0 011.402 1.902c.297.7.5 1.598.5 2.5 0 1.098-.203 2.098-.601 3-.399.899-1 1.598-1.7 2.2a7.15 7.15 0 01-2.601 1.398c-1 .3-2.098.5-3.3.5-1.798 0-3.5-.297-5.099-.899-1.601-.601-3.199-1.5-4.5-2.8l2.5-2.899c1.098 1 2.301 1.7 3.399 2.2 1.101.5 2.5.8 3.902.8 1.297 0 2.297-.3 3-.8.7-.5 1.098-1.2 1.098-2.2 0-.402-.098-.8-.2-1.101-.1-.301-.398-.598-.8-.899-.399-.3-.899-.5-1.598-.8-.703-.2-1.601-.5-2.601-.801-1.2-.301-2.301-.598-3.301-1-1-.399-1.8-.801-2.399-1.301-.601-.5-1.199-1.2-1.5-1.899-.3-.8-.5-1.699-.5-2.8 0-1 .2-1.899.598-2.801.402-.899.902-1.5 1.602-2.098.699-.601 1.5-1.101 2.5-1.402 1-.297 2-.5 3.199-.5 1.7 0 3.2.203 4.601.703 1.399.5 2.598 1.2 3.801 2.2l-2.203 3.097c-1.098-.797-2.098-1.399-3.2-1.797a8.606 8.606 0 00-3.198-.602c-1.2 0-2.102.301-2.801.801-.7.5-1 1.2-1 2 .101.5.101.899.3 1.2zm0 0M275.781 46.36H262.68v6h11.601v3.699H262.68v6.199h13.3v3.703h-17.3V42.758h17.199v3.601zm0 0M284.781 49.86c.2.3.399.6.797.898.402.3 1 .601 1.703.8.7.2 1.598.5 2.7.801 1.199.301 2.3.7 3.199 1 .898.301 1.699.801 2.3 1.399a5.269 5.269 0 011.399 1.902c.3.7.5 1.598.5 2.5 0 1.098-.2 2.098-.598 3-.402.899-1 1.598-1.703 2.2a7.132 7.132 0 01-2.598 1.398c-1 .3-2.101.5-3.3.5-1.801 0-3.5-.297-5.102-.899-1.598-.601-3.2-1.5-4.5-2.8l2.5-2.899c1.102 1 2.3 1.7 3.402 2.2 1.098.5 2.5.8 3.899.8 1.3 0 2.3-.3 3-.8.7-.5 1.101-1.2 1.101-2.2 0-.402-.101-.8-.199-1.101-.101-.301-.402-.598-.8-.899-.403-.3-.903-.5-1.602-.8-.7-.2-1.598-.5-2.598-.801-1.203-.301-2.3-.598-3.3-1-1-.399-1.801-.801-2.403-1.301-.7-.5-1.2-1.2-1.5-1.899-.297-.8-.5-1.699-.5-2.8 0-1 .203-1.899.602-2.801.398-.797.898-1.5 1.601-2.098.7-.601 1.5-1.101 2.5-1.402 1-.297 2-.5 3.2-.5 1.699 0 3.199.203 4.597.703 1.402.5 2.602 1.2 3.8 2.2l-2.198 3.097c-1.102-.797-2.102-1.399-3.2-1.797a8.62 8.62 0 00-3.199-.602c-1.203 0-2.101.301-2.8.801-.7.5-1 1.2-1 2 0 .5.097.899.3 1.2zm0 0M334.781 65.86h-4.3l-2.403-5.602h-11l-2.398 5.601h-4.2l10.2-23.398h3.8zm-12.203-18.5l-4 9.3h8zm0 0M355.281 42.66h4v23.2h-3.402l-12.8-16.5v16.5h-4v-23.2h3.8l12.402 16.098zm0 0M385.68 58.86c-.602 1.398-1.399 2.699-2.5 3.699-1.102 1-2.399 1.902-3.899 2.5-1.5.601-3.203.902-5 .902h-8.703V42.758h8.703c1.797 0 3.5.3 5 .902 1.5.598 2.797 1.399 3.899 2.399 1.101 1 1.898 2.3 2.5 3.699.601 1.402.898 2.902.898 4.601 0 1.5-.297 3-.898 4.5zm-4-7.801c-.399-1-.899-1.801-1.602-2.5-.7-.7-1.5-1.301-2.5-1.7-1-.398-2.098-.601-3.297-.601h-4.601V62.16h4.601c1.2 0 2.297-.2 3.297-.601 1-.399 1.8-.899 2.5-1.598.703-.703 1.203-1.5 1.602-2.5.398-1 .601-2 .601-3.203 0-1.2-.203-2.2-.601-3.2zm0 0M401.781 42.66h4v19.5h12.2v3.7H401.68v-23.2zm0 0M439.781 46.36H426.68v6h11.601v3.699H426.68v6.199h13.3v3.703h-17.402V42.758h17.203zm0 0M461.578 42.66h4.402l-9.699 23.399h-3.601l-9.7-23.399h4.5l7 17.8zm0 0M487.48 46.36H474.38v6h11.601v3.699H474.38v6.199h13.3v3.703h-17.398V42.758h17.2zm0 0M507.781 65.86l-5.703-8.102h-5.098v8.101h-4V42.66h10.399c1.3 0 2.5.2 3.601.5 1.098.3 2 .8 2.7 1.5.699.598 1.3 1.399 1.699 2.3.402.9.601 1.9.601 3.099 0 1-.101 1.8-.402 2.601-.297.8-.7 1.399-1.098 2a8.15 8.15 0 01-1.699 1.5c-.703.399-1.402.7-2.203.899l6.3 8.8zm-1.402-18.602c-.8-.7-2-1-3.598-1h-6v7.8h6c1.5 0 2.598-.398 3.5-1.097.899-.703 1.297-1.703 1.297-2.902.102-1.098-.297-2.098-1.2-2.801zm0 0M520.781 49.86c.2.3.399.6.797.898.402.3 1 .601 1.703.8.7.2 1.598.5 2.7.801 1.199.301 2.3.7 3.199 1 .898.301 1.699.801 2.3 1.399a5.269 5.269 0 011.399 1.902c.3.7.5 1.598.5 2.5 0 1.098-.2 2.098-.598 3-.402.899-1 1.598-1.703 2.2a7.132 7.132 0 01-2.598 1.398c-1 .3-2.101.5-3.3.5-1.801 0-3.5-.297-5.102-.899-1.598-.601-3.2-1.5-4.5-2.8l2.5-2.899c1.102 1 2.3 1.7 3.402 2.2 1.098.5 2.5.8 3.899.8 1.3 0 2.3-.3 3-.8.7-.5 1.101-1.2 1.101-2.2 0-.402-.101-.8-.199-1.101-.101-.301-.402-.598-.8-.899-.403-.3-.903-.5-1.602-.8-.7-.2-1.598-.5-2.598-.801-1.203-.301-2.3-.598-3.3-1-1-.399-1.801-.801-2.403-1.301-.7-.5-1.2-1.2-1.5-1.899-.297-.8-.5-1.699-.5-2.8 0-1 .203-1.899.602-2.801.398-.797.898-1.5 1.601-2.098.7-.601 1.5-1.101 2.5-1.402 1-.297 2-.5 3.2-.5 1.699 0 3.199.203 4.597.703 1.402.5 2.602 1.2 3.8 2.2l-2.198 3.097c-1.102-.797-2.102-1.399-3.2-1.797a8.62 8.62 0 00-3.199-.602c-1.203 0-2.101.301-2.8.801-.7.5-1 1.2-1 2 .097.5.097.899.3 1.2zm0 0M173.281 94.46c-3.902 0-6.703-3-6.703-6.8 0-3.7 2.8-6.8 6.902-6.8 2.5 0 4 .8 5.2 2l-1.801 2.1c-1-.901-2-1.5-3.399-1.5-2.199 0-3.8 1.798-3.8 4.099 0 2.3 1.601 4.101 3.8 4.101 1.5 0 2.399-.601 3.5-1.5l1.801 1.899c-1.5 1.5-3 2.402-5.5 2.402zm0 0M190.18 94.46c-4.102 0-7-3-7-6.8 0-3.7 2.898-6.8 7-6.8 4.101 0 7 3 7 6.8s-3 6.8-7 6.8zm4-6.8c0-2.3-1.7-4.101-4-4.101-2.301 0-3.899 1.8-3.899 4.101 0 2.3 1.7 4.098 4 4.098 2.297.101 3.899-1.797 3.899-4.098zm0 0M202.98 94.258V81.16h2.899v10.5h6.601v2.598zm0 0M217.781 94.258V81.16h2.899v10.5h6.601v2.598zm0 0M242.48 94.258l-1.199-2.899h-5.601l-1.2 2.899h-2.902l5.602-13.2h2.699l5.601 13.2zm-4-9.797l-1.699 4.297h3.5zm0 0M256.98 94.258h-6.199V81.16h6.098c2.7 0 4.3 1.3 4.3 3.399 0 1.5-.8 2.3-1.699 2.8 1.5.602 2.5 1.5 2.5 3.2-.101 2.5-2.101 3.699-5 3.699zm1.301-9.2c0-.898-.703-1.398-1.902-1.398h-2.899v2.8h2.7c1.3 0 2.101-.401 2.101-1.401zm.7 5.2c0-.899-.7-1.399-2.102-1.399h-3.3v2.899h3.401c1.301 0 2-.5 2-1.5zm0 0M273.879 94.46c-4.098 0-7-3-7-6.8 0-3.7 2.902-6.8 7-6.8 4.101 0 7 3 7 6.8s-3 6.8-7 6.8zm4-6.8c0-2.3-1.7-4.101-4-4.101s-3.899 1.8-3.899 4.101c0 2.3 1.7 4.098 4 4.098 2.301 0 3.899-1.797 3.899-4.098zm0 0M294.68 94.258l-2.801-4.2h-2.3v4.2h-2.9V81.16h6c3.102 0 5 1.598 5 4.3 0 2.099-1.1 3.5-2.8 4.099l3.2 4.699zm0-8.598c0-1.2-.899-1.902-2.301-1.902h-2.899v3.8h2.899c1.5-.097 2.3-.8 2.3-1.898zm0 0M313.281 94.258l-1.203-2.899h-5.598l-1.199 2.899h-2.902l5.601-13.2h2.7l5.601 13.2zm-4-9.797l-1.703 4.297h3.5zm0 0M325.781 83.758v10.5h-2.902v-10.5h-4v-2.7h10.902v2.7zm0 0M335.379 94.258V81.16h2.902v13.098zm0 0M351.48 94.36h-2.601l-5.3-13.2h3.202l3.399 9.3 3.398-9.3h3.102zm0 0M362.078 94.258V81.16h9.902v2.598h-7v2.703h6.2v2.598h-6.2v2.8h7.098v2.602h-10zm0 0M383.578 94.258V81.16h2.902v13.098zm0 0M402.18 94.258l-6.399-8.399v8.399h-2.902V81.16h2.7l6.202 8.098V81.16h2.899v13.098zm0 0M420.281 94.258l-6.402-8.399v8.399h-2.899V81.16h2.7l6.199 8.098V81.16h2.902v13.098zm0 0M435.48 94.46c-4.101 0-7-3-7-6.8 0-3.7 2.899-6.8 7-6.8 4.098 0 7 3 7 6.8s-2.902 6.8-7 6.8zm4-6.8c0-2.3-1.699-4.101-4-4.101-2.3 0-3.902 1.8-3.902 4.101 0 2.3 1.703 4.098 4 4.098 2.3 0 3.902-1.797 3.902-4.098zm0 0M454.18 94.36h-2.602l-5.297-13.2h3.2l3.398 9.3 3.402-9.3h3.098zm0 0M472.68 94.258l-1.2-2.899h-5.601l-1.2 2.899h-2.898l5.598-13.2h2.7l5.6 13.2zm-4-9.797l-1.7 4.297h3.5zm0 0M485.18 83.758v10.5h-2.899v-10.5h-4v-2.7h10.899v2.7zm0 0M494.781 94.258V81.16h2.899v13.098zm0 0M510.48 94.46c-4.101 0-7-3-7-6.8 0-3.7 2.899-6.8 7-6.8 4.098 0 7 3 7 6.8s-2.902 6.8-7 6.8zm4-6.8c0-2.3-1.699-4.101-4-4.101-2.3 0-3.902 1.8-3.902 4.101 0 2.3 1.703 4.098 4 4.098 2.3 0 3.902-1.797 3.902-4.098zm0 0M532.578 94.258l-6.398-8.399v8.399h-2.899V81.16h2.7l6.199 8.098V81.16h2.898v13.098zm0 0"/></g></svg>