<svg xmlns="http://www.w3.org/2000/svg" viewBox="0 0 67.74 96.75"><defs><style>.cls-1{fill:#22231e;}</style></defs><title>Asset 1</title><g id="Layer_2" data-name="Layer 2"><g id="OBJECTS"><polygon class="cls-1" points="64.12 31.75 33.87 62.01 28.92 57.06 59.18 26.81 56.19 23.81 25.93 54.07 20.99 49.12 51.24 18.87 48.25 15.88 17.99 46.13 13.05 41.19 43.3 10.93 40.31 7.94 10.05 38.19 5.11 33.25 35.37 2.99 32.37 0 0 32.37 0 65 4.23 65 4.23 38.36 7.94 42.06 7.94 72.94 12.17 72.94 12.17 46.3 15.88 50 15.88 80.88 20.11 80.88 20.11 54.23 23.81 57.94 23.81 88.81 28.05 88.81 28.05 62.17 31.75 65.88 31.75 96.75 35.98 96.75 35.98 65.88 39.69 62.17 39.69 88.81 43.92 88.81 43.92 57.94 47.63 54.23 47.63 80.88 51.86 80.88 51.86 50 55.56 46.3 55.56 72.94 59.8 72.94 59.8 42.06 63.5 38.36 63.5 65 67.74 65 67.74 35.37 64.12 31.75"/></g></g></svg>