<?xml version="1.0" encoding="iso-8859-1"?>
<!-- Generator: Adobe Illustrator 19.0.0, SVG Export Plug-In . SVG Version: 6.00 Build 0)  -->
<svg version="1.1" id="Capa_1" xmlns="http://www.w3.org/2000/svg" xmlns:xlink="http://www.w3.org/1999/xlink" x="0px" y="0px"
	 viewBox="0 0 512.001 512.001" style="enable-background:new 0 0 512.001 512.001;" xml:space="preserve">
<g>
	<g>
		<path d="M504.506,236.853c-16.244-14.296-32.74-27.444-49.027-39.077c-3.418-2.44-8.164-1.648-10.605,1.768
			c-2.441,3.417-1.649,8.165,1.768,10.605c15.871,11.336,31.96,24.161,47.82,38.119c2.969,2.613,3.094,7.098,0.473,9.917
			c-19.714,21.2-79.963,79.803-163.22,104.59c71.727-50.812,74.056-155.732,5.59-209.896c28.081,9.345,56.296,22.884,84.472,40.58
			c3.556,2.235,8.248,1.161,10.481-2.394c2.233-3.556,1.162-8.248-2.394-10.481C319.385,111.195,200.265,99.33,87.69,168.286
			c-40.673,24.913-68.906,53.674-82.118,68.6c-7.601,8.593-7.498,21.78,0.76,30.197c40.589,41.364,82.8,72.652,125.458,92.992
			c1.056,0.504,2.17,0.742,3.267,0.742c8.081,0,10.554-10.997,3.277-14.466c-41.049-19.573-81.809-49.826-121.15-89.917
			c-2.597-2.646-2.604-6.783-0.226-9.471c18.987-21.454,80.419-83.406,170.943-103.332c-17.375,10.54-32.165,25.064-43.148,42.671
			c-2.222,3.562-1.136,8.252,2.427,10.474c3.562,2.223,8.251,1.136,10.474-2.427c21.486-34.444,58.924-54.58,98.423-54.58
			c63.77,0,115.882,51.963,115.882,116.036c0,52.277-35.306,98.281-85.856,111.875c-62.135,16.707-125.526-20.382-142.054-81.849
			c-2.66-9.89-4.008-20.043-4.008-30.179c0-12.046,1.885-23.985,5.605-35.486c1.291-3.995-0.899-8.28-4.895-9.573
			c-3.994-1.292-8.28,0.9-9.573,4.895c-4.209,13.014-6.342,26.528-6.342,40.165c0,11.468,1.523,22.95,4.529,34.127
			c8.12,30.199,26.471,55.583,50.691,72.819c-4.809-1.458-9.604-3.039-14.381-4.772c-3.947-1.432-8.307,0.607-9.739,4.553
			c-1.432,3.947,0.607,8.308,4.553,9.739c89.086,32.322,177.131,17.423,257.055-31.347c42.957-26.212,73.901-56.506,88.523-72.231
			C514.62,259.342,513.777,245.013,504.506,236.853z"/>
	</g>
</g>
<g>
	<g>
		<path d="M256.031,208.593c-33.218-0.001-55.913,33.317-43.981,64.169c1.515,3.917,5.92,5.862,9.833,4.349
			c3.916-1.514,5.863-5.917,4.349-9.833c-11.565-29.899,23.48-56.471,49.111-36.954c24.149,18.386,11.22,57.332-19.37,57.332
			c-4.648,0-9.132-0.983-13.328-2.921c-3.811-1.762-8.329-0.096-10.09,3.715c-1.761,3.811-0.097,8.329,3.715,10.09
			c19.289,8.908,43.314,4.019,57.232-14.26C316.764,253.726,295.421,208.593,256.031,208.593z"/>
	</g>
</g>
<g>
	<g>
		<path d="M338.6,188.48c-5.27-25.814-39.435-32.74-54.145-10.486c-14.555,22.024,4.811,51.02,30.872,45.701
			C331.452,220.403,341.892,204.606,338.6,188.48z M312.286,208.799c-12.849,2.624-22.262-11.654-15.146-22.42
			c7.213-10.915,23.978-7.522,26.563,5.144C325.319,199.434,320.198,207.184,312.286,208.799z"/>
	</g>
</g>
<g>
	<g>
		<path d="M256.002,23.777c-4.198,0-7.602,3.404-7.602,7.602v50.173c0,4.198,3.404,7.602,7.602,7.602
			c4.198,0,7.602-3.404,7.602-7.602V31.379C263.604,27.181,260.2,23.777,256.002,23.777z"/>
	</g>
</g>
<g>
	<g>
		<path d="M164.293,96.076l-17.16-47.146c-1.437-3.946-5.799-5.979-9.744-4.544c-3.946,1.436-5.979,5.799-4.544,9.744l17.161,47.146
			c1.124,3.088,4.039,5.004,7.144,5.004C162.396,106.28,166.103,101.049,164.293,96.076z"/>
	</g>
</g>
<g>
	<g>
		<path d="M69.858,135.58l-32.25-38.434c-2.699-3.216-7.495-3.636-10.71-0.937c-3.216,2.698-3.636,7.494-0.937,10.71l32.25,38.434
			c1.503,1.792,3.657,2.716,5.827,2.716C70.407,148.069,74.038,140.562,69.858,135.58z"/>
	</g>
</g>
<g>
	<g>
		<path d="M482.671,100.367c-3.216-2.699-8.011-2.281-10.71,0.937l-32.25,38.434c-2.699,3.216-2.281,8.012,0.937,10.71
			c3.237,2.717,8.029,2.258,10.71-0.937l32.25-38.434C486.307,107.861,485.887,103.065,482.671,100.367z"/>
	</g>
</g>
<g>
	<g>
		<path d="M374.508,44.978c-3.945-1.437-8.309,0.599-9.744,4.544l-17.16,47.148c-1.808,4.97,1.893,10.203,7.144,10.203
			c3.105,0,6.021-1.917,7.144-5.004l17.16-47.147C380.488,50.777,378.454,46.414,374.508,44.978z"/>
	</g>
</g>
<g>
	<g>
		<path d="M253.568,422.847c-4.198,0-7.602,3.404-7.602,7.602v50.173c0,4.198,3.404,7.602,7.602,7.602
			c4.198,0,7.602-3.404,7.602-7.602v-50.173C261.17,426.25,257.766,422.847,253.568,422.847z"/>
	</g>
</g>
<g>
	<g>
		<path d="M376.724,457.872l-17.16-47.147c-1.436-3.946-5.801-5.98-9.744-4.544c-3.946,1.436-5.979,5.799-4.544,9.744l17.16,47.147
			c1.439,3.954,5.808,5.977,9.744,4.544C376.126,466.179,378.159,461.817,376.724,457.872z"/>
	</g>
</g>
<g>
	<g>
		<path d="M483.608,405.081l-32.25-38.434c-2.699-3.216-7.495-3.636-10.71-0.937c-3.216,2.698-3.636,7.494-0.937,10.71l32.25,38.434
			c1.503,1.792,3.657,2.715,5.827,2.715C484.157,417.57,487.788,410.063,483.608,405.081z"/>
	</g>
</g>
<g>
	<g>
		<path d="M68.921,361.552c-3.216-2.699-8.012-2.281-10.71,0.937l-32.25,38.434c-2.699,3.216-2.28,8.012,0.937,10.71
			c3.237,2.716,8.029,2.259,10.71-0.937l32.25-38.434C72.557,369.046,72.137,364.251,68.921,361.552z"/>
	</g>
</g>
<g>
	<g>
		<path d="M157.421,405.588c-3.944-1.436-8.308,0.599-9.744,4.544l-17.16,47.146c-1.436,3.945,0.598,8.308,4.544,9.744
			c3.954,1.438,8.311-0.608,9.744-4.544l17.16-47.146C163.401,411.386,161.366,407.024,157.421,405.588z"/>
	</g>
</g>
<g>
</g>
<g>
</g>
<g>
</g>
<g>
</g>
<g>
</g>
<g>
</g>
<g>
</g>
<g>
</g>
<g>
</g>
<g>
</g>
<g>
</g>
<g>
</g>
<g>
</g>
<g>
</g>
<g>
</g>
</svg>
