<svg xmlns="http://www.w3.org/2000/svg" viewBox="0 0 244.79 257.51"><defs><style>.cls-1{fill:#444;}</style></defs><title>Asset 7</title><g id="Layer_2" data-name="Layer 2"><g id="Ebene_1" data-name="Ebene 1"><polygon class="cls-1" points="63.98 145.4 63.98 104.31 71.86 104.31 71.86 97.47 48.58 97.47 48.58 104.31 56.45 104.31 56.45 145.4 63.98 145.4"/><path class="cls-1" d="M92.82,145.95c7.4,0,11.44-4.38,11.44-12.05V109c0-7.67-4-12.05-11.44-12.05S81.38,101.3,81.38,109V133.9C81.38,141.57,85.42,145.95,92.82,145.95Zm-3.9-37.46c0-3.42,1.51-4.73,3.9-4.73s3.9,1.3,3.9,4.73v25.89c0,3.42-1.51,4.73-3.9,4.73s-3.9-1.3-3.9-4.73Z"/><polygon class="cls-1" points="147.53 145.4 147.53 97.47 137.06 97.47 131.99 131.5 131.85 131.5 126.37 97.47 115.9 97.47 115.9 145.4 122.47 145.4 122.47 111.5 122.61 111.5 128.09 145.4 135.21 145.4 140.27 111.02 140.41 111.02 140.41 145.4 147.53 145.4"/><polygon class="cls-1" points="159.93 94.93 166.91 87.33 159.52 87.33 154.86 94.93 159.93 94.93"/><path class="cls-1" d="M187.25,118.9c-4.93-4.31-6.44-6.92-6.44-10.41s1.37-4.73,3.77-4.73,3.77,1.3,3.77,4.73v2h7.12V109c0-7.67-3.77-12.05-11.09-12.05S173.28,101.3,173.28,109c0,5.48,2,9.45,8.29,15,4.93,4.31,6.44,6.92,6.44,10.41S186.5,139,184.1,139s-3.9-1.23-3.9-4.66V131h-7.12v2.94c0,7.67,3.83,12.05,11.23,12.05s11.23-4.38,11.23-12.05C195.54,128.42,193.55,124.45,187.25,118.9Z"/><rect class="cls-1" x="74.3" y="179.93" width="2.51" height="15.96" transform="translate(-1.52 0.62) rotate(-0.46)"/><polygon class="cls-1" points="88.82 179.83 88.9 189.38 88.85 189.38 86.25 179.85 83.1 179.87 83.23 195.83 85.48 195.81 85.39 184.25 85.44 184.25 88.61 195.79 91.18 195.77 91.06 179.81 88.82 179.83"/><path class="cls-1" d="M105.21,191.71l-.07-8.07c0-2.55-1.26-3.93-3.77-3.91l-4,0,.13,16,4,0C104,195.66,105.23,194.26,105.21,191.71Zm-3.77,1.7H100L99.94,182h1.41c.8,0,1.28.4,1.29,1.54l.07,8.3C102.72,193,102.24,193.4,101.44,193.4Z"/><path class="cls-1" d="M115.07,193.47c-.8,0-1.3-.4-1.31-1.54l-.1-12.31-2.51,0,.1,12.15c0,2.55,1.31,4,3.77,4s3.73-1.49,3.71-4l-.1-12.15-2.37,0,.1,12.31C116.37,193.05,115.87,193.47,115.07,193.47Z"/><path class="cls-1" d="M128.29,193.34c-.8,0-1.3-.4-1.31-1.54v-1.14l-2.37,0v1c0,2.55,1.31,4,3.77,4s3.73-1.49,3.71-4c0-1.82-.69-3.14-2.8-5-1.65-1.42-2.16-2.29-2.17-3.45s.44-1.58,1.24-1.58,1.26.42,1.27,1.56v.66l2.37,0v-.5c0-2.55-1.29-4-3.73-4s-3.68,1.49-3.66,4c0,1.82.69,3.14,2.8,5,1.65,1.42,2.16,2.29,2.17,3.45S129.09,193.34,128.29,193.34Z"/><polygon class="cls-1" points="145 179.37 137.25 179.43 137.27 181.71 139.89 181.69 140 195.37 142.51 195.35 142.4 181.67 145.02 181.65 145 179.37"/><path class="cls-1" d="M158.27,190.82c0-1.66-.43-2.85-1.69-3.36v0c1.11-.53,1.63-1.59,1.62-3.23v-1.25c0-2.46-1.15-3.66-3.75-3.64l-3.78,0,.13,16,2.51,0-.05-6.5h.87c1.14,0,1.65.53,1.66,2l0,2.51a4.92,4.92,0,0,0,.24,2l2.55,0a4.71,4.71,0,0,1-.29-1.94Zm-4.07-4.34h-1l0-4.9h1.21c.89,0,1.28.49,1.29,1.63v1.57C155.7,186.05,155.13,186.47,154.2,186.48Z"/><polygon class="cls-1" points="169.77 179.17 167.94 186.46 167.89 186.46 165.94 179.2 163.32 179.22 166.58 189.87 166.62 195.15 169.13 195.13 169.08 189.84 172.17 179.15 169.77 179.17"/><polygon class="cls-1" points="97.9 60.9 97.9 59.59 95.42 59.6 95.41 56.93 97.38 56.92 97.37 55.62 95.4 55.63 95.39 53.08 97.87 53.07 97.87 51.77 93.95 51.78 93.99 60.91 97.9 60.9"/><path class="cls-1" d="M103.27,59.67c-.46,0-.74-.23-.75-.88v-.65h-1.36v.56c0,1.46.74,2.29,2.15,2.29s2.14-.84,2.13-2.3a3.54,3.54,0,0,0-1.59-2.85c-.94-.82-1.23-1.31-1.23-2s.26-.9.71-.9.72.25.72.9v.38h1.36v-.29c0-1.46-.73-2.29-2.12-2.29s-2.11.84-2.1,2.3a3.55,3.55,0,0,0,1.59,2.85c.94.82,1.23,1.31,1.23,2S103.72,59.66,103.27,59.67Z"/><polygon class="cls-1" points="109.93 53.02 109.96 60.85 111.4 60.85 111.37 53.02 112.87 53.01 112.86 51.71 108.43 51.73 108.43 53.03 109.93 53.02"/><rect class="cls-1" x="115.34" y="59.45" width="1.38" height="1.38" transform="translate(-0.23 0.45) rotate(-0.22)"/><path class="cls-1" d="M122.35,53.84l0,7h1.44l0-9.13h-1a1.42,1.42,0,0,1-1.57,1.15v1Z"/><path class="cls-1" d="M129.59,57.59a1.32,1.32,0,0,0,1.3-.8h0v1.66c0,.87-.28,1.12-.79,1.13s-.74-.25-.75-.9v-.33H128v.24c0,1.46.74,2.29,2.15,2.29s2.19-.84,2.18-2.38l0-4.67a2.18,2.18,0,1,0-4.36,0v1.67C128,56.85,128.53,57.6,129.59,57.59Zm.57-4.74c.46,0,.74.23.75.88v1.64c0,.65-.28.9-.74.9s-.74-.24-.75-.9V53.74C129.41,53.09,129.7,52.86,130.16,52.85Z"/><path class="cls-1" d="M137.2,56.64c0-.65.28-.9.74-.9s.74.25.75.9v2c0,.65-.28.89-.74.89s-.74-.23-.75-.88V57.8h-1.36v.76c0,1.46.74,2.29,2.15,2.29s2.14-.84,2.13-2.3v-2c0-1.34-.54-2.09-1.6-2.08a1.35,1.35,0,0,0-1.24.67h0l.11-2.18h2.5V51.6h-3.78l-.24,5.3h1.36Z"/><path class="cls-1" d="M145.76,60.82a2,2,0,0,0,2.17-2.3l0-4.75a2.18,2.18,0,1,0-4.36,0l0,4.75A2,2,0,0,0,145.76,60.82Zm0-8c.46,0,.75.25.75.9l0,4.93c0,.65-.28.9-.74.9s-.74-.25-.75-.9l0-4.93C145,53,145.27,52.78,145.72,52.78Z"/><rect class="cls-1" x="57.19" y="165.09" width="130.4" height="3.33"/><rect class="cls-1" x="89.79" y="70.32" width="65.2" height="3.33"/><rect class="cls-1" x="104.28" y="207.04" width="36.22" height="3.33"/><path class="cls-1" d="M244.31,84.07l.48-.83L223,45.52h-1A89.62,89.62,0,0,1,144.65.83L144.17,0H100.62l-.48.83a89.62,89.62,0,0,1-77.4,44.68h-1L0,83.24l.48.83a89.62,89.62,0,0,1,0,89.37l-.48.83L21.78,212h1a89.61,89.61,0,0,1,77.4,44.69l.48.83h43.55l.48-.83A89.61,89.61,0,0,1,222,212h1l21.78-37.72-.48-.83A89.62,89.62,0,0,1,244.31,84.07Zm-23.22,124.6a93,93,0,0,0-78.83,45.51H102.53A93,93,0,0,0,23.7,208.67L3.84,174.27a93,93,0,0,0,0-91L23.7,48.84A93,93,0,0,0,102.53,3.33h39.72a93,93,0,0,0,78.83,45.51l19.86,34.4a93,93,0,0,0,0,91Z"/><path class="cls-1" d="M22.36,195.67a.83.83,0,0,0-.31,1.13l.08.14a.71.71,0,0,0,.63.37.94.94,0,0,0,.47-.13A.91.91,0,0,0,23.5,196,.83.83,0,0,0,22.36,195.67Z"/><path class="cls-1" d="M43.65,52.76l.18,0-.17-.81-.27-.79.11.83-.17-.81a.76.76,0,0,0-.56,1A.89.89,0,0,0,43.65,52.76Z"/><path class="cls-1" d="M26.27,55.07a.84.84,0,0,0,.41.11.83.83,0,0,0,.72-.42l.08-.14A.83.83,0,1,0,26,53.79l-.08.15A.83.83,0,0,0,26.27,55.07Z"/><path class="cls-1" d="M35.24,54.21h.12a.83.83,0,0,0-.19-1.65l-.18,0a.77.77,0,0,0-.64.92A.89.89,0,0,0,35.24,54.21Z"/><path class="cls-1" d="M59.91,47.7a.91.91,0,0,0,.35-.07.83.83,0,1,0-.62-1.54l-.16.06a.76.76,0,0,0-.38,1.05A.86.86,0,0,0,59.91,47.7Z"/><path class="cls-1" d="M88.58,29.57a1,1,0,0,0,.63-.23.83.83,0,0,0-1.09-1.26l-.14.13a.76.76,0,0,0,0,1.11A.79.79,0,0,0,88.58,29.57Z"/><path class="cls-1" d="M67.65,44.12a1,1,0,0,0,.43-.1.83.83,0,0,0-.76-1.48l-.15.08a.77.77,0,0,0-.28,1.08A.84.84,0,0,0,67.65,44.12Z"/><path class="cls-1" d="M22,62.39a.73.73,0,0,0,.37.1,1,1,0,0,0,.81-.47.83.83,0,0,0-1.44-.83l-.08.14A.76.76,0,0,0,22,62.39Z"/><path class="cls-1" d="M94.63,23.57a1,1,0,0,0,.71-.3.83.83,0,1,0-1.23-1.13l-.11.12a.81.81,0,0,0,.63,1.31Z"/><path class="cls-1" d="M75,40a.82.82,0,0,0,.44-.12l.15-.09a.83.83,0,1,0-.89-1.4l-.13.08A.83.83,0,0,0,75,40Z"/><path class="cls-1" d="M82,35.11a.83.83,0,0,0,.5-.17l.14-.11a.83.83,0,1,0-1-1.31l.38.76-.5-.66a.83.83,0,0,0,.5,1.49Z"/><path class="cls-1" d="M100.13,17.07a1,1,0,0,0,.75-.36.83.83,0,1,0-1.3-1l-.11.14a.77.77,0,0,0,.19,1.1A.75.75,0,0,0,100.13,17.07Z"/><path class="cls-1" d="M16.66,100.52a1,1,0,0,0,.3,0,.91.91,0,0,0,.52-1.12.83.83,0,1,0-1.59.49l0,.16A.72.72,0,0,0,16.66,100.52Z"/><path class="cls-1" d="M14.34,166.78a.83.83,0,1,0-1.52-.68l-.07.17a.77.77,0,0,0,.48,1,.72.72,0,0,0,.28.05A.94.94,0,0,0,14.34,166.78Z"/><path class="cls-1" d="M17.73,69.85a.83.83,0,0,0,1.14-.3l.08-.14a.83.83,0,0,0-1.44-.84l-.08.14A.83.83,0,0,0,17.73,69.85Z"/><path class="cls-1" d="M15,181.19a.83.83,0,1,0-1.44.83l.08.14a.83.83,0,1,0,1.44-.83Z"/><path class="cls-1" d="M18.09,188.28a.83.83,0,0,0-.31,1.14l.08.14a.71.71,0,0,0,.63.37.94.94,0,0,0,.47-.13.91.91,0,0,0,.26-1.21A.83.83,0,0,0,18.09,188.28Z"/><path class="cls-1" d="M10.37,173.49a.86.86,0,0,0-1.12.43l-.19.39.27.46a.75.75,0,0,0,.66.39.89.89,0,0,0,.45-.12.9.9,0,0,0-.07-1.55Z"/><path class="cls-1" d="M13.47,90.81A.83.83,0,0,0,13,91.89l.06.15a.71.71,0,0,0,.68.45,1,1,0,0,0,.37-.08.91.91,0,0,0,.42-1.16A.83.83,0,0,0,13.47,90.81Z"/><path class="cls-1" d="M11,83.44a.83.83,0,1,0-1.5.71l.07.15a.83.83,0,1,0,1.5-.71Z"/><path class="cls-1" d="M14.38,75.66a.83.83,0,0,0-1.14.31l-.08.14a.77.77,0,0,0,.35,1.06.73.73,0,0,0,.37.1,1,1,0,0,0,.81-.47A.83.83,0,0,0,14.38,75.66Z"/><path class="cls-1" d="M16.24,159.3a.72.72,0,0,0,.22,0,1,1,0,0,0,.85-.64.83.83,0,0,0-1.58-.53l-.06.18A.76.76,0,0,0,16.24,159.3Z"/><path class="cls-1" d="M168.52,39.29a.83.83,0,1,0,.92-1.39l-.15-.1a.76.76,0,0,0-1.07.29A.9.9,0,0,0,168.52,39.29Z"/><path class="cls-1" d="M221.14,61.27a.83.83,0,0,0,.72.42.84.84,0,0,0,.41-.11.83.83,0,0,0,.31-1.13l-.08-.14a.83.83,0,1,0-1.44.83Z"/><path class="cls-1" d="M226.13,69.08a.83.83,0,0,0,.72-1.25l-.08-.14a.76.76,0,0,0-1.09-.23.91.91,0,0,0-.26,1.21A.83.83,0,0,0,226.13,69.08Z"/><path class="cls-1" d="M227.74,156.74a.91.91,0,0,0-.53,1.12.83.83,0,0,0,.8.59.82.82,0,0,0,.24,0,.83.83,0,0,0,.56-1l0-.16A.77.77,0,0,0,227.74,156.74Z"/><path class="cls-1" d="M230.4,76.48a.83.83,0,0,0,.72-1.25l-.08-.14a.77.77,0,0,0-1.09-.23.91.91,0,0,0-.26,1.21A.83.83,0,0,0,230.4,76.48Z"/><path class="cls-1" d="M230.56,90.45a.83.83,0,1,0,1.52.68l.07-.17a.77.77,0,0,0-.48-1A.9.9,0,0,0,230.56,90.45Z"/><path class="cls-1" d="M228.68,97.85a.83.83,0,0,0-1.05.52l-.05.16.79.27.82.18-.77-.34.79.27A.83.83,0,0,0,228.68,97.85Z"/><path class="cls-1" d="M183.74,47.31a.82.82,0,0,0,.32.07.83.83,0,0,0,.32-1.6l-.15-.06a.76.76,0,0,0-1,.48A.91.91,0,0,0,183.74,47.31Z"/><path class="cls-1" d="M217.11,54.94h.07a.83.83,0,0,0,.07-1.66h-.17c-.52-.06-.78.31-.82.77A.91.91,0,0,0,217.11,54.94Z"/><path class="cls-1" d="M191.65,50.24l.17.05a.83.83,0,1,0,.5-1.59l-.41.74.26-.79a.83.83,0,0,0-.52,1.58Z"/><path class="cls-1" d="M208.56,54.09h.13a.83.83,0,0,0,.12-1.65l-.18,0a.76.76,0,0,0-.85.72A.9.9,0,0,0,208.56,54.09Z"/><path class="cls-1" d="M200,52.52l.17,0,.18,0a.83.83,0,0,0,.18-1.64l-.16,0a.83.83,0,0,0-.37,1.62Z"/><path class="cls-1" d="M154.93,28.76l.57-.61.51-.67-.63.55.57-.61a.83.83,0,0,0-1.14,1.21Z"/><path class="cls-1" d="M130.5,9.5a.83.83,0,0,0,0-1.66h-.17a.76.76,0,0,0-.75.83A.91.91,0,0,0,130.5,9.5Z"/><path class="cls-1" d="M139,9.5a.83.83,0,0,0,0-1.66h-.17a.77.77,0,0,0-.75.83A.91.91,0,0,0,139,9.5Z"/><path class="cls-1" d="M144,16.35a.83.83,0,0,0,.67-1.33l-.11-.14a.77.77,0,0,0-1.12-.1.9.9,0,0,0-.11,1.23A.83.83,0,0,0,144,16.35Z"/><path class="cls-1" d="M113.43,9.5a.83.83,0,1,0,0-1.66h-.17a.76.76,0,0,0-.75.83A.91.91,0,0,0,113.43,9.5Z"/><path class="cls-1" d="M122,9.5a.83.83,0,1,0,0-1.66h-.17a.77.77,0,0,0-.75.83A.91.91,0,0,0,122,9.5Z"/><path class="cls-1" d="M234,83.46a.83.83,0,0,0,.72.41.82.82,0,0,0,.42-.12.83.83,0,0,0,.3-1.14l-.08-.14a.83.83,0,1,0-1.43.84Z"/><path class="cls-1" d="M148.89,22.65a.83.83,0,1,0,1.23-1.13L150,21.4a.83.83,0,0,0-1.24,1.11Z"/><path class="cls-1" d="M161.5,34.33a.82.82,0,0,0,.51.17.83.83,0,0,0,.51-1.49l-.13-.1a.83.83,0,0,0-1,1.31Z"/><path class="cls-1" d="M176,43.64a.83.83,0,0,0,.78-1.47l-.15-.08a.77.77,0,0,0-1.05.38A.91.91,0,0,0,176,43.64Z"/><path class="cls-1" d="M105.11,10.23a.83.83,0,0,0,.69-.36l.09-.14a.83.83,0,1,0-1.37-.94l-.09.14a.83.83,0,0,0,.69,1.3Z"/><path class="cls-1" d="M51.76,50.63a.82.82,0,0,0,.24,0l.18-.06A.83.83,0,0,0,51.66,49l-.14,0a.83.83,0,0,0,.24,1.63Z"/><path class="cls-1" d="M227.21,187.4a.83.83,0,0,0-1.14.3l-.08.14a.83.83,0,0,0,.3,1.14.81.81,0,0,0,.42.11.83.83,0,0,0,.72-.41l.09-.14A.83.83,0,0,0,227.21,187.4Z"/><path class="cls-1" d="M233.64,173.79a.83.83,0,1,0,1.5-.71l-.07-.15a.83.83,0,1,0-1.5.71Z"/><path class="cls-1" d="M230.34,180.3l-.08.14a.83.83,0,0,0,1.44.84l.08-.14a.83.83,0,0,0-1.44-.84Z"/><path class="cls-1" d="M230.88,166.49a.83.83,0,0,0,.78-1.12l-.07-.18a.77.77,0,0,0-1-.38.91.91,0,0,0-.44,1.14A.83.83,0,0,0,230.88,166.49Z"/><path class="cls-1" d="M21.85,133.51v-.19a.83.83,0,0,0-1.66,0v.14a.83.83,0,0,0,.78.88h0A.83.83,0,0,0,21.85,133.51Z"/><path class="cls-1" d="M193.07,206.83l-.17.05a.83.83,0,0,0,.25,1.63.86.86,0,0,0,.25,0l.15,0a.83.83,0,1,0-.48-1.59Z"/><path class="cls-1" d="M20.36,141a.84.84,0,0,0-.92.73l0,.14a.83.83,0,0,0,.7.94h.12a.83.83,0,0,0,.82-.71l0-.19A.83.83,0,0,0,20.36,141Z"/><path class="cls-1" d="M27.37,202.54a.83.83,0,0,0-.14,1.66h.23a.77.77,0,0,0,.75-.77A.91.91,0,0,0,27.37,202.54Z"/><path class="cls-1" d="M218.63,202.25a.91.91,0,0,0-1.18.38.83.83,0,0,0,1.44.83l.08-.14A.77.77,0,0,0,218.63,202.25Z"/><path class="cls-1" d="M222.93,194.79a.83.83,0,0,0-1.14.31l-.08.15a.83.83,0,0,0,.31,1.13.84.84,0,0,0,.41.11.83.83,0,0,0,.72-.42l.08-.14A.83.83,0,0,0,222.93,194.79Z"/><path class="cls-1" d="M209.9,203.25l-.18,0a.83.83,0,0,0,.11,1.66h.11l.16,0a.83.83,0,0,0-.2-1.65Z"/><path class="cls-1" d="M17.91,150.16a.83.83,0,0,0,.62,1l.19,0a.83.83,0,0,0,.81-.64l0-.18a.83.83,0,0,0-.64-1,.84.84,0,0,0-1,.64Z"/><path class="cls-1" d="M224.42,141.79h.13a.83.83,0,0,0,.7-.95l-.84,0,.83-.1a.83.83,0,1,0-1.65.19l0,.19A.83.83,0,0,0,224.42,141.79Z"/><path class="cls-1" d="M21.89,124.71a.83.83,0,0,0-1.66.1V125a.83.83,0,0,0,.83.81h0a.83.83,0,0,0,.81-.86Z"/><path class="cls-1" d="M225,149.54a.83.83,0,0,0,.81.66l.17,0a.83.83,0,0,0,.64-1h-.85l.81-.17a.83.83,0,1,0-1.63.34Z"/><path class="cls-1" d="M226.95,107.05a.83.83,0,0,0-1.62-.39l0,.18a.83.83,0,0,0,.64,1l.17,0a.83.83,0,0,0,.81-.66Z"/><path class="cls-1" d="M224.47,116.24h.1a.83.83,0,0,0,.82-.73l0-.14a.83.83,0,0,0-1.65-.24l0,.19A.83.83,0,0,0,224.47,116.24Z"/><path class="cls-1" d="M222.89,132.5a.83.83,0,0,0,.83.78h0a.83.83,0,0,0,.78-.88v-.14a.85.85,0,0,0-.86-.81.83.83,0,0,0-.81.86Z"/><path class="cls-1" d="M20.21,115.44a.83.83,0,0,0-.7.95l.84,0-.83.1a.83.83,0,0,0,.82.73h.1a.83.83,0,0,0,.73-.92l0-.19A.84.84,0,0,0,20.21,115.44Z"/><path class="cls-1" d="M222.95,123.7v.19a.83.83,0,0,0,.81.86h0a.83.83,0,0,0,.83-.81v-.14a.83.83,0,0,0-.78-.88A.82.82,0,0,0,222.95,123.7Z"/><path class="cls-1" d="M19.68,107.66a.83.83,0,0,0-1.62.39l.85,0-.81.17a.83.83,0,0,0,.81.66l.17,0a.83.83,0,0,0,.64-1Z"/><path class="cls-1" d="M184.8,209.77a.83.83,0,0,0,.31,1.6.82.82,0,0,0,.31-.06l.16-.06a.77.77,0,0,0,.38-1.05A.91.91,0,0,0,184.8,209.77Z"/><path class="cls-1" d="M201.4,204.68l-.17,0a.83.83,0,0,0,.18,1.64l.18,0,0-.85.17.81a.83.83,0,0,0-.34-1.63Z"/><path class="cls-1" d="M88.46,228.59a.83.83,0,0,0,0,1.18l.13.12a.71.71,0,0,0,.48.2.87.87,0,0,0,.63-.3.91.91,0,0,0-.1-1.23A.83.83,0,0,0,88.46,228.59Z"/><path class="cls-1" d="M83,223a.83.83,0,0,0-1,1.33l.64-.56-.51.66a.83.83,0,1,0,1-1.31Z"/><path class="cls-1" d="M76,218.05a.83.83,0,0,0-.92,1.39l.15.1a.72.72,0,0,0,.39.12.84.84,0,0,0,.68-.41A.9.9,0,0,0,76,218.05Z"/><path class="cls-1" d="M95.7,234.64a.83.83,0,1,0-1.23,1.13l.11.12a.83.83,0,1,0,1.23-1.11Z"/><path class="cls-1" d="M100.08,241.08a.83.83,0,0,0-.18,1.16l.12.15a.72.72,0,0,0,.58.29.86.86,0,0,0,.65-1.42A.83.83,0,0,0,100.08,241.08Z"/><path class="cls-1" d="M68.71,213.81l-.17-.09a.83.83,0,1,0-.74,1.49l.13.07a.84.84,0,0,0,.39.1.83.83,0,0,0,.39-1.57Z"/><path class="cls-1" d="M44.54,204.93l-.17,0a.83.83,0,1,0-.36,1.63l.16,0,.18,0a.83.83,0,0,0,.18-1.64Z"/><path class="cls-1" d="M106.21,248H106a.83.83,0,0,0-1.15,1.17l.09.14a.71.71,0,0,0,.79.29.83.83,0,0,0,.33.07h.17a.83.83,0,0,0,0-1.66Z"/><path class="cls-1" d="M35.92,203.38a.83.83,0,0,0-.25,1.64l.18,0H36a.77.77,0,0,0,.74-.73A.91.91,0,0,0,35.92,203.38Z"/><path class="cls-1" d="M52.85,207.18l-.18-.06a.83.83,0,0,0-.48,1.59l.4-.75-.26.79a.83.83,0,0,0,.52-1.58Z"/><path class="cls-1" d="M60.77,210.09a.83.83,0,1,0-.65,1.53l.15.07a.75.75,0,0,0,.29.06.81.81,0,0,0,.72-.54A.91.91,0,0,0,60.77,210.09Z"/><path class="cls-1" d="M144.09,240.56a.83.83,0,1,0,1.3,1l.11-.14a.77.77,0,0,0-.19-1.1A.91.91,0,0,0,144.09,240.56Z"/><path class="cls-1" d="M149.67,234a.83.83,0,1,0,1.19,1.16L151,235a.76.76,0,0,0-.1-1.11A.91.91,0,0,0,149.67,234Z"/><path class="cls-1" d="M155.79,228a.83.83,0,1,0,1.09,1.26l.14-.13a.76.76,0,0,0,0-1.11A.91.91,0,0,0,155.79,228Z"/><path class="cls-1" d="M169.63,217.51l-.15.09a.83.83,0,1,0,.89,1.4l.13-.08a.83.83,0,0,0-.88-1.41Z"/><path class="cls-1" d="M177,213.34a.83.83,0,1,0,.74,1.49l.16-.08a.77.77,0,0,0,.29-1.08A.91.91,0,0,0,177,213.34Z"/><path class="cls-1" d="M162.42,222.48a.83.83,0,0,0,.49,1.5.82.82,0,0,0,.49-.16l.15-.11a.77.77,0,0,0,.1-1.12A.9.9,0,0,0,162.42,222.48Z"/><path class="cls-1" d="M139.17,247.39l-.1.14a.83.83,0,0,0,1.36,1l.1-.14a.83.83,0,1,0-1.36-1Z"/><path class="cls-1" d="M123.28,248h-.17a.83.83,0,0,0,0,1.66h.17a.83.83,0,0,0,0-1.66Z"/><path class="cls-1" d="M131.82,248h-.17a.83.83,0,0,0,0,1.66h.17a.83.83,0,0,0,0-1.66Z"/><path class="cls-1" d="M114.75,248h-.17a.83.83,0,0,0,0,1.66h.17a.83.83,0,0,0,0-1.66Z"/><path class="cls-1" d="M228.6,84.66l.56-1.18L215,58.94l-1.3-.11a102.8,102.8,0,0,1-76.38-44.1l-.74-1.08H108.23l-.74,1.07A102.8,102.8,0,0,1,31.1,58.83l-1.3.11L15.63,83.47l.56,1.18a102.81,102.81,0,0,1,0,88.2L15.63,174,29.8,198.57l1.3.11a102.81,102.81,0,0,1,76.38,44.1l.74,1.07h28.33l.74-1.08a102.8,102.8,0,0,1,76.38-44.1l1.3-.11L229.15,174l-.56-1.18A102.8,102.8,0,0,1,228.6,84.66ZM212,193.82a107.76,107.76,0,0,0-78,45H110.84a107.76,107.76,0,0,0-78-45l-11.56-20a107.76,107.76,0,0,0,0-90.09l11.56-20a107.76,107.76,0,0,0,78-45H134a107.75,107.75,0,0,0,78,45l11.56,20a107.76,107.76,0,0,0,0,90.09Z"/></g></g></svg>