<svg xmlns="http://www.w3.org/2000/svg" viewBox="0 0 256.82 180.81"><defs><style>.cls-1{fill:#444;}</style></defs><title>Asset 8</title><g id="Layer_2" data-name="Layer 2"><g id="Ebene_1" data-name="Ebene 1"><path class="cls-1" d="M238,27.15,132.55.38l-.1,0a23,23,0,0,0-8.08,0L18.83,27.15A22.9,22.9,0,0,0,0,49.7v81.4a22.9,22.9,0,0,0,18.83,22.55l105.44,26.77.1,0a22.89,22.89,0,0,0,8.08,0L238,153.66a22.9,22.9,0,0,0,18.83-22.55V49.7A22.9,22.9,0,0,0,238,27.15Zm15.94,104a20,20,0,0,1-16.5,19.72L131.89,177.62a20.14,20.14,0,0,1-7,0L19.49,150.85l-.1,0A20,20,0,0,1,2.88,131.1V49.7A20,20,0,0,1,19.39,30L124.93,3.19a20.14,20.14,0,0,1,7,0L237.33,30l.1,0a20,20,0,0,1,16.5,19.72Z"/><rect class="cls-1" x="6.73" y="124.29" width="0.96" height="4.84"/><rect class="cls-1" x="22.33" y="144.81" width="0.96" height="4.84" transform="translate(-125.5 133.11) rotate(-75.76)"/><rect class="cls-1" x="31.71" y="147.19" width="0.96" height="4.84" transform="translate(-120.74 144) rotate(-75.76)"/><path class="cls-1" d="M7,134a16.11,16.11,0,0,0,1.64,4.69l.85-.45a15.16,15.16,0,0,1-1.54-4.41Z"/><path class="cls-1" d="M11.62,142.7a16.14,16.14,0,0,0,4,2.88l.43-.86A15.11,15.11,0,0,1,12.29,142Z"/><path class="cls-1" d="M20.23,34.72l.32-.07-.24-.93-.26.05a16.19,16.19,0,0,0-4.43,1.47l.43.86A15.23,15.23,0,0,1,20.23,34.72Z"/><path class="cls-1" d="M12.27,38.81l-.67-.69a16.15,16.15,0,0,0-3,4l.85.45A15.2,15.2,0,0,1,12.27,38.81Z"/><path class="cls-1" d="M7.69,49.7A15.31,15.31,0,0,1,7.94,47L7,46.79a16.24,16.24,0,0,0-.26,2.91v2h1Z"/><rect class="cls-1" x="43.82" y="27.15" width="4.84" height="0.96" transform="translate(-5.37 12.2) rotate(-14.22)"/><rect class="cls-1" x="53.2" y="24.77" width="4.84" height="0.96" transform="translate(-4.51 14.51) rotate(-14.29)"/><rect class="cls-1" x="6.73" y="66.22" width="0.96" height="4.84"/><rect class="cls-1" x="6.73" y="114.61" width="0.96" height="4.84"/><rect class="cls-1" x="25.05" y="31.91" width="4.84" height="0.96" transform="translate(-7.12 7.75) rotate(-14.23)"/><rect class="cls-1" x="6.73" y="75.9" width="0.96" height="4.84"/><rect class="cls-1" x="6.73" y="56.54" width="0.96" height="4.84"/><rect class="cls-1" x="6.73" y="104.93" width="0.96" height="4.84"/><rect class="cls-1" x="6.73" y="95.25" width="0.96" height="4.84"/><rect class="cls-1" x="6.73" y="85.58" width="0.96" height="4.84"/><rect class="cls-1" x="34.44" y="29.53" width="4.84" height="0.96" transform="translate(-6.24 9.97) rotate(-14.22)"/><rect class="cls-1" x="167.84" y="14.48" width="0.96" height="4.84" transform="translate(110.52 175.88) rotate(-75.76)"/><rect class="cls-1" x="186.6" y="19.25" width="0.96" height="4.84" transform="translate(120.02 197.65) rotate(-75.75)"/><rect class="cls-1" x="195.98" y="21.63" width="0.96" height="4.84" transform="translate(124.78 208.54) rotate(-75.75)"/><rect class="cls-1" x="41.09" y="149.57" width="0.96" height="4.84" transform="translate(-115.97 154.86) rotate(-75.75)"/><rect class="cls-1" x="177.22" y="16.86" width="0.96" height="4.84" transform="translate(115.25 186.76) rotate(-75.74)"/><rect class="cls-1" x="158.46" y="12.1" width="0.96" height="4.84" transform="translate(105.77 165) rotate(-75.76)"/><rect class="cls-1" x="205.36" y="24.01" width="0.96" height="4.84" transform="translate(129.59 219.44) rotate(-75.76)"/><rect class="cls-1" x="233.5" y="31.16" width="0.96" height="4.84" transform="translate(143.87 252.1) rotate(-75.76)"/><path class="cls-1" d="M245.18,38.09a16.11,16.11,0,0,0-4.05-2.87l-.43.86a15.14,15.14,0,0,1,3.81,2.7Z"/><rect class="cls-1" x="214.74" y="26.39" width="0.96" height="4.84" transform="translate(134.35 230.33) rotate(-75.76)"/><rect class="cls-1" x="224.12" y="28.77" width="0.96" height="4.84" transform="translate(139.07 241.2) rotate(-75.75)"/><rect class="cls-1" x="139.69" y="7.34" width="0.96" height="4.84" transform="translate(96.24 143.22) rotate(-75.76)"/><rect class="cls-1" x="90.72" y="15.24" width="4.84" height="0.96" transform="translate(-1.01 23.35) rotate(-14.22)"/><rect class="cls-1" x="81.34" y="17.63" width="4.84" height="0.96" transform="translate(-1.88 21.21) rotate(-14.28)"/><rect class="cls-1" x="100.1" y="12.86" width="4.84" height="0.96" transform="translate(-0.13 25.62) rotate(-14.23)"/><rect class="cls-1" x="71.96" y="20.01" width="4.84" height="0.96" transform="translate(-2.75 18.9) rotate(-14.22)"/><path class="cls-1" d="M130.72,7.87l2.3.56.24-.93L131.1,7l-.23,0a16.06,16.06,0,0,0-2.46-.19h0l0,1A15.12,15.12,0,0,1,130.72,7.87Z"/><rect class="cls-1" x="62.58" y="22.39" width="4.84" height="0.96" transform="translate(-3.63 16.67) rotate(-14.22)"/><rect class="cls-1" x="109.48" y="10.48" width="4.84" height="0.96" transform="translate(0.74 27.82) rotate(-14.22)"/><rect class="cls-1" x="149.07" y="9.72" width="0.96" height="4.84" transform="translate(100.99 154.11) rotate(-75.76)"/><rect class="cls-1" x="118.86" y="8.1" width="4.84" height="0.96" transform="translate(1.63 30.17) rotate(-14.28)"/><rect class="cls-1" x="198.81" y="155.07" width="4.84" height="0.96" transform="translate(-32.14 54.42) rotate(-14.28)"/><path class="cls-1" d="M244.56,142l.67.69a16.18,16.18,0,0,0,3-4l-.85-.45A15.19,15.19,0,0,1,244.56,142Z"/><rect class="cls-1" x="50.47" y="151.95" width="0.96" height="4.84" transform="translate(-111.21 165.74) rotate(-75.75)"/><rect class="cls-1" x="249.12" y="119.4" width="0.96" height="4.84"/><rect class="cls-1" x="217.57" y="150.3" width="4.84" height="0.96" transform="translate(-30.39 58.9) rotate(-14.28)"/><path class="cls-1" d="M236.58,146.09l-.29.06.24.93.23,0a16.24,16.24,0,0,0,4.45-1.48l-.43-.86A15.25,15.25,0,0,1,236.58,146.09Z"/><rect class="cls-1" x="249.12" y="109.72" width="0.96" height="4.84"/><rect class="cls-1" x="226.95" y="147.92" width="4.84" height="0.96" transform="translate(-29.43 60.89) rotate(-14.22)"/><rect class="cls-1" x="249.12" y="61.33" width="0.96" height="4.84"/><rect class="cls-1" x="249.12" y="51.65" width="0.96" height="4.84"/><rect class="cls-1" x="208.19" y="152.69" width="4.84" height="0.96" transform="translate(-31.2 56.49) rotate(-14.23)"/><path class="cls-1" d="M248.87,46.92l.95-.17a16.14,16.14,0,0,0-1.64-4.69l-.85.46A15.12,15.12,0,0,1,248.87,46.92Z"/><rect class="cls-1" x="249.12" y="90.36" width="0.96" height="4.84"/><rect class="cls-1" x="249.12" y="100.04" width="0.96" height="4.84"/><rect class="cls-1" x="249.12" y="80.68" width="0.96" height="4.84"/><rect class="cls-1" x="249.12" y="71.01" width="0.96" height="4.84"/><path class="cls-1" d="M249.12,131.1a15.31,15.31,0,0,1-.24,2.71l.95.17a16.3,16.3,0,0,0,.26-2.88v-2h-1Z"/><rect class="cls-1" x="116.13" y="168.63" width="0.96" height="4.84" transform="translate(-77.86 242) rotate(-75.76)"/><path class="cls-1" d="M126.09,172.94l-2.32-.57-.24.93,2.19.55.23,0a16.3,16.3,0,0,0,2.47.19h0l0-.29,0-.67A15.26,15.26,0,0,1,126.09,172.94Z"/><rect class="cls-1" x="106.75" y="166.24" width="0.96" height="4.84" transform="translate(-82.64 231.06) rotate(-75.74)"/><rect class="cls-1" x="142.52" y="169.36" width="4.84" height="0.96" transform="translate(-37.4 40.99) rotate(-14.28)"/><rect class="cls-1" x="133.14" y="171.74" width="4.84" height="0.96" transform="translate(-38.15 38.58) rotate(-14.22)"/><rect class="cls-1" x="59.85" y="154.33" width="0.96" height="4.84" transform="translate(-106.45 176.64) rotate(-75.75)"/><rect class="cls-1" x="97.37" y="163.86" width="0.96" height="4.84" transform="translate(-87.39 220.21) rotate(-75.76)"/><rect class="cls-1" x="69.23" y="156.72" width="0.96" height="4.84" transform="translate(-101.69 187.52) rotate(-75.75)"/><rect class="cls-1" x="151.91" y="166.98" width="4.84" height="0.96" transform="translate(-36.43 43.08) rotate(-14.23)"/><rect class="cls-1" x="78.61" y="159.1" width="0.96" height="4.84" transform="translate(-96.92 198.41) rotate(-75.75)"/><rect class="cls-1" x="87.99" y="161.48" width="0.96" height="4.84" transform="translate(-92.16 209.3) rotate(-75.75)"/><rect class="cls-1" x="189.43" y="157.45" width="4.84" height="0.96" transform="translate(-32.92 51.96) rotate(-14.22)"/><rect class="cls-1" x="180.05" y="159.83" width="4.84" height="0.96" transform="translate(-33.93 50) rotate(-14.29)"/><rect class="cls-1" x="170.67" y="162.21" width="4.84" height="0.96" transform="translate(-34.66 47.5) rotate(-14.22)"/><rect class="cls-1" x="161.29" y="164.59" width="4.84" height="0.96" transform="translate(-35.65 45.47) rotate(-14.28)"/><polygon class="cls-1" points="148.07 75.4 147.94 75.4 144.63 97.95 151.38 97.95 148.07 75.4"/><path class="cls-1" d="M127.34,145.63h-.51v2.07h.41c.39,0,.63-.17.63-.71v-.66C127.88,145.84,127.71,145.63,127.34,145.63Z"/><polygon class="cls-1" points="100.08 145.86 99.58 149.26 100.6 149.26 100.1 145.86 100.08 145.86"/><path class="cls-1" d="M114,145.63h-.6v4.81h.6c.34,0,.54-.17.54-.65v-3.5C114.55,145.8,114.35,145.63,114,145.63Z"/><path class="cls-1" d="M152,36.47c.27,0,.44-.15.44-.53V33c0-.38-.17-.53-.44-.53s-.44.15-.44.53v2.91C151.61,36.32,151.78,36.47,152,36.47Z"/><path class="cls-1" d="M141.33,36.47c.27,0,.44-.15.44-.53V33c0-.38-.17-.53-.44-.53s-.44.15-.44.53v2.91C140.9,36.32,141.07,36.47,141.33,36.47Z"/><path class="cls-1" d="M245.75,49.7A11.85,11.85,0,0,0,236,38l-.34-.06L130.21,11.2a11.78,11.78,0,0,0-3.6,0L21.17,38l-.34.06A11.85,11.85,0,0,0,11.06,49.7v81.4a11.85,11.85,0,0,0,9.77,11.67l.34.06,105.44,26.77a11.77,11.77,0,0,0,3.6,0l105.44-26.77.34-.06a11.85,11.85,0,0,0,9.77-11.67Zm-95-16.62a1.29,1.29,0,1,1,2.57,0v2.8a1.29,1.29,0,1,1-2.57,0ZM146,32.47a.84.84,0,0,0,.93-.68h.57v5.38h-.85V33.07H146Zm-5.95.62a1.29,1.29,0,1,1,2.57,0v2.8a1.29,1.29,0,1,1-2.57,0Zm-5.29,3.43a2.33,2.33,0,0,1,.85-1.71,2.26,2.26,0,0,0,.83-1.68c0-.48-.17-.62-.44-.62s-.44.15-.44.53v.58h-.8v-.52c0-.86.43-1.35,1.26-1.35s1.26.49,1.26,1.35a3,3,0,0,1-1,2.13c-.5.54-.64.79-.64,1.08a.57.57,0,0,0,0,.12h1.6v.77h-2.45Zm-7.92-2.42h1.54v.77h-1.54Zm-7.2,2.26h.82v.82h-.82Zm-4.83-4.57h2.61v.77h-.88v4.61h-.85V32.56h-.88Zm-5.07,3.76h.8v.38c0,.38.17.52.44.52s.44-.14.44-.52-.17-.68-.72-1.17a2.09,2.09,0,0,1-.93-1.68c0-.86.42-1.35,1.25-1.35s1.25.49,1.25,1.35v.17h-.8V33c0-.38-.15-.53-.42-.53s-.42.15-.42.53.17.68.72,1.17a2.09,2.09,0,0,1,.93,1.68c0,.86-.43,1.35-1.26,1.35s-1.26-.49-1.26-1.35Zm-5-3.76H107v.77h-1.46v1.5h1.16v.77h-1.16v1.58H107v.77h-2.31ZM36.22,48.12h181V50h-181ZM211.64,86.29v6.37H202v13.06h12.1v6.37H195V67.5h19.11v6.37H202V86.29ZM177.05,73.36c-2.23,0-3.63,1.21-3.63,4.39v24.08c0,3.18,1.4,4.33,3.63,4.33s3.63-1.15,3.63-4.33V93.62H177.5V87.25h9.81v14.14c0,7.13-3.57,11.21-10.45,11.21s-10.45-4.08-10.45-11.21V78.2C166.42,71.07,170,67,176.86,67s10.45,4.08,10.45,11.21v4.33h-6.62V77.76C180.68,74.57,179.28,73.36,177.05,73.36Zm-16.43,38.72h-7.07L152.34,104h-8.6l-1.21,8.09H136.1l7.13-44.58h10.25ZM112.47,73.87V67.5h21.65v6.37H126.8v38.21h-7V73.87Zm-6.18-6.37v44.58h-7.2l-8.6-32.29h-.13v32.29h-6.3V67.5h8.79l7.07,26.69H100V67.5Zm-30.45,0v44.58h-7V67.5Zm-30.57,0,5.29,36.37h.13L56,67.5H62.4l-6.88,44.58H45.08L38.2,67.5Zm49.64,83.9H93.83v-2.88h-1.2v2.88H91.58v-6.73h1.06v2.88h1.2v-2.88h1.08Zm6,0-.18-1.22h-1.3l-.18,1.22h-1l1.08-6.73h1.55L102,151.4Zm7.79,0h-1.09l-1.3-4.87h0v4.87h-1v-6.73h1.33l1.07,4h0v-4h.94Zm6.9-1.66c0,1.08-.52,1.66-1.58,1.66h-1.67v-6.73H114c1.06,0,1.58.59,1.58,1.66Zm6.63-2.8h-1v-.72c0-.48-.21-.66-.55-.66s-.55.18-.55.66v3.63c0,.48.21.65.55.65s.55-.17.55-.65v-1h1v.89c0,1.08-.54,1.69-1.58,1.69s-1.58-.62-1.58-1.69v-3.5c0-1.08.54-1.69,1.58-1.69s1.58.62,1.58,1.69ZM128,151.4a2.07,2.07,0,0,1-.1-.83v-1.06c0-.62-.21-.86-.69-.86h-.37v2.74h-1.06v-6.73h1.6c1.1,0,1.57.51,1.57,1.55v.53a1.33,1.33,0,0,1-.69,1.36v0c.53.22.7.72.7,1.42v1a2,2,0,0,0,.12.82Zm6.9,0-.18-1.22h-1.3l-.18,1.22h-1l1.08-6.73h1.55l1.08,6.73Zm7.24-5.77h-1.74v2h1.36v1h-1.36v2.78h-1.06v-6.73h2.8Zm6.36,0h-1.11v5.77h-1.06v-5.77h-1.11v-1h3.27Zm6.23,0h-1.83v1.87h1.45v1h-1.45v2h1.83v1h-2.88v-6.73h2.88Zm6.79,4.1c0,1.08-.52,1.66-1.58,1.66h-1.67v-6.73h1.67c1.06,0,1.58.59,1.58,1.66Zm59.09-17.05h-181v-1.92h181Z"/><path class="cls-1" d="M159.9,145.63h-.6v4.81h.6c.34,0,.54-.17.54-.65v-3.5C160.44,145.8,160.24,145.63,159.9,145.63Z"/><polygon class="cls-1" points="134.03 145.86 133.53 149.26 134.55 149.26 134.05 145.86 134.03 145.86"/></g></g></svg>