<svg xmlns="http://www.w3.org/2000/svg" viewBox="0 0 290.84 209.24"><defs><style>.cls-1{fill:#444;}</style></defs><title>Asset 5</title><g id="Layer_2" data-name="Layer 2"><g id="Ebene_1" data-name="Ebene 1"><path class="cls-1" d="M145.42,64,0,48.8V173.16L145.42,158l145.42,15.18V48.8ZM288.7,170.78,145.53,155.84h-.11l-143.27,15V51.18L145.31,66.13h.11l143.27-15Z"/><path class="cls-1" d="M4.83,54.16V167.81l140.59-14.68L286,167.81V54.16L145.42,68.83Zm278,110.08L145.59,149.91l-.17,0L8,164.23V57.73L145.25,72.05l.17,0L282.79,57.73Z"/><polygon class="cls-1" points="97.3 178.98 92.34 174.68 91.08 176.14 92.75 177.59 85.16 186.35 86.76 187.74 94.36 178.99 96.04 180.44 97.3 178.98"/><path class="cls-1" d="M104.78,184.17l-2.72-1.69L94.91,194l1.8,1.12,2.91-4.67.62.39c.82.51.94,1.13.27,2.19l-1.12,1.8a4.16,4.16,0,0,0-.71,1.51l1.84,1.14a4,4,0,0,1,.67-1.52l1.1-1.77c.75-1.2,1-2.23.31-3.17l0,0a2.67,2.67,0,0,0,2.62-1.58l.56-.9C106.91,186.7,106.65,185.33,104.78,184.17Zm-.89,3.36-.7,1.13c-.57.92-1.17,1-1.84.54l-.71-.44,2.19-3.53.87.54C104.35,186.18,104.4,186.71,103.89,187.53Z"/><path class="cls-1" d="M107.39,201l1.8.74,1.28-2.13,2.41,1-.6,2.41,2,.82,3.16-13.32-2.87-1.19Zm7.6-8.9-1.68,6.7-1.89-.78,3.54-5.94Z"/><path class="cls-1" d="M128.33,193.82l-3.28-.75-3,13.18,3.28.75c2.07.47,3.35-.44,3.83-2.55l1.52-6.67C131.16,195.68,130.4,194.3,128.33,193.82Zm.29,3.4-1.57,6.85c-.21.94-.69,1.19-1.35,1l-1.17-.27,2.15-9.42,1.17.27C128.52,195.85,128.84,196.28,128.63,197.22Z"/><polygon class="cls-1" points="136.78 208.87 142.56 209.25 142.69 207.32 139.02 207.08 139.28 203.13 142.19 203.32 142.31 201.39 139.4 201.21 139.64 197.45 143.3 197.68 143.43 195.75 137.65 195.38 136.78 208.87"/><polygon class="cls-1" points="163.57 193.59 164.24 203.27 164.2 203.28 160.63 194.24 157.75 194.88 160.65 208.08 162.46 207.68 160.41 198.34 160.45 198.33 164.01 207.34 165.97 206.91 165.28 197.13 165.32 197.12 167.4 206.59 169.37 206.16 166.46 192.96 163.57 193.59"/><path class="cls-1" d="M174,190.3l3.26,13.29,1.8-.76-.62-2.4,2.4-1,1.29,2.12,2-.83-7.25-11.61Zm4,8.34-1.73-6.69,0,0,3.58,5.91Z"/><path class="cls-1" d="M195.78,192.08l-1.12-1.76c-.75-1.19-1.58-1.85-2.72-1.66l0,0a2.67,2.67,0,0,0-.28-3l-.57-.9c-1.12-1.76-2.46-2.12-4.32-.94L184,185.46l7.23,11.42,1.79-1.14-2.94-4.65.62-.39c.82-.52,1.42-.35,2.09.71L194,193.2a4.15,4.15,0,0,0,1.05,1.3l1.83-1.16A4,4,0,0,1,195.78,192.08Zm-6-3.07-.7.44L186.87,186l.86-.55c.64-.4,1.14-.22,1.66.6l.71,1.13C190.68,188,190.46,188.6,189.79,189Z"/><polygon class="cls-1" points="199.69 173.57 198.1 174.99 199.96 181.18 199.93 181.2 196.03 176.84 194.44 178.25 203.45 188.34 205.03 186.92 202.27 183.82 201.93 182.46 207.06 185.11 208.69 183.65 201.5 180.03 199.69 173.57"/><polygon class="cls-1" points="79.25 46.71 73.72 41.33 75.96 39.02 81.5 44.41 83.51 42.34 70.6 29.77 68.58 31.84 74.12 37.22 71.87 39.53 66.34 34.14 64.36 36.17 77.28 48.74 79.25 46.71"/><path class="cls-1" d="M89.94,37,88.4,34.06,91.2,32l2.33,2.35,2.31-1.69-13-12.83-3.34,2.45,8.33,16.24Zm-7-13.26,0,0,6.47,6.56-2.2,1.61Z"/><polygon class="cls-1" points="103.01 28.57 97.16 16.9 97.2 16.88 106.17 26.98 108.77 25.68 100.68 9.57 98.43 10.7 103.27 20.34 103.22 20.37 95.83 12.01 92.65 13.6 100.74 29.71 103.01 28.57"/><path class="cls-1" d="M119.05,22c2.71-.83,3.58-2.74,2.73-5.5l-2.67-8.72c-.84-2.76-2.63-3.85-5.34-3l-4.29,1.31,5.28,17.24ZM114.48,7.22c.86-.26,1.52,0,1.89,1.25l2.74,9c.38,1.23,0,1.83-.87,2.1l-1.53.47L113,7.69Z"/><path class="cls-1" d="M128.37,15.2c.39,2.86,2,4.3,4.79,3.92s4-2.2,3.57-5.06l-.32-2.37-2.65.36.35,2.55c.17,1.28-.33,1.81-1.22,1.93s-1.52-.26-1.69-1.54l-1.31-9.64c-.17-1.28.32-1.84,1.21-2s1.52.29,1.69,1.56l.26,1.91,2.65-.36-.24-1.73c-.39-2.86-2-4.3-4.79-3.92s-4,2.2-3.57,5.06Z"/><path class="cls-1" d="M146.52,10.75l1,0c1.29,0,1.84.66,1.8,2.34l-.07,2.83a5.55,5.55,0,0,0,.2,2.22l2.88.07a5.3,5.3,0,0,1-.26-2.2l.07-2.78c0-1.88-.39-3.23-1.79-3.86V9.35c1.28-.56,1.9-1.73,1.94-3.58l0-1.42c.07-2.78-1.16-4.17-4.1-4.25L143.95,0l-.44,18,2.83.07Zm.2-8.11,1.36,0c1,0,1.43.6,1.4,1.89l0,1.78c0,1.44-.69,1.89-1.75,1.86l-1.11,0Z"/><path class="cls-1" d="M161.18,16.12l3.42.65-.13,3.3,2.81.53.52-18.25-4.07-.77-6.19,17.17,2.56.48Zm3.82-11h0l-.38,9.21L162,13.78Z"/><polygon class="cls-1" points="178.01 16.19 181.45 17.42 182.32 14.99 178.88 13.76 180.71 8.65 185.1 10.22 185.97 7.79 178.91 5.27 172.84 22.24 175.5 23.19 178.01 16.19"/><polygon class="cls-1" points="189.59 29.54 196.9 15.93 199.51 17.33 200.73 15.06 193.02 10.92 191.8 13.19 194.41 14.59 187.09 28.19 189.59 29.54"/><polygon class="cls-1" points="203.17 38.72 204.72 36.66 200.81 33.72 203.98 29.5 207.09 31.84 208.64 29.79 205.53 27.45 208.55 23.44 212.46 26.38 214.01 24.32 207.84 19.68 197 34.07 203.17 38.72"/><path class="cls-1" d="M211,46.07c2,2,4.06,2,6.14-.05l6.56-6.33c2.08-2,2.24-4.09.28-6.13l-3.11-3.23-13,12.51Zm10-11.91L222,35.31c.63.65.67,1.36-.26,2.25L215,44.07c-.93.89-1.64.83-2.26.18l-1.11-1.15Z"/><path class="cls-1" d="M240.47,101.09V95.91c0-3.76-1.28-5.41-4.21-5.41h-4v16.15h3.23C238.59,106.65,240.47,105.3,240.47,101.09Z"/><path class="cls-1" d="M10.19,60.11V161.85l135.23-14.12,135.23,14.12V60.11L145.42,74.23Zm8,88H16.09V73.81h2.15Zm53.68-12.59H64.11V97.86H64l-5.56,37.7H50.59l-6-37.18h-.15v37.18H37.22V83H48.71l6,37.33h.15L60.43,83H71.92Zm27.68,0H92.52V90.5H99.6Zm36.76,0H117.62V90.5h7.08v38.63h11.65ZM272.6,73.81h2.15v74.35H272.6ZM224,83h12.47c8.56,0,12.24,4,12.24,12.09v4.13c0,5.41-1.73,8.86-5.41,10.59V110c4.13,1.73,5.48,5.63,5.48,11.12v8.11a15.48,15.48,0,0,0,.9,6.38h-8.41c-.45-1.35-.75-2.18-.75-6.46v-8.26c0-4.88-1.65-6.68-5.41-6.68h-2.85v21.4H224ZM187,90.5h19.31v6.44H194.1v12.55h9.72v6.44H194.1v13.2h12.23v6.44H187Zm-34.7,0h7.08v38.63h11.65v6.44H152.32Z"/><polygon class="cls-1" points="126.73 171.09 123.84 171.1 123.86 177.86 126.76 177.85 126.76 176.88 124.92 176.89 124.91 174.91 126.37 174.91 126.37 173.94 124.91 173.95 124.9 172.06 126.74 172.06 126.73 171.09"/><path class="cls-1" d="M131.17,174.1c-.7-.61-.91-1-.91-1.46s.19-.67.53-.67.53.18.53.66v.28h1v-.21c0-1.08-.54-1.7-1.57-1.69s-1.56.62-1.56,1.71a2.62,2.62,0,0,0,1.18,2.11c.7.61.91,1,.91,1.46s-.21.66-.55.66-.55-.17-.55-.65v-.48h-1v.42c0,1.08.55,1.7,1.59,1.69s1.58-.62,1.58-1.71A2.62,2.62,0,0,0,131.17,174.1Z"/><polygon class="cls-1" points="137.84 172.01 137.84 171.05 134.56 171.06 134.56 172.03 135.67 172.02 135.69 177.82 136.75 177.81 136.73 172.02 137.84 172.01"/><rect class="cls-1" x="139.68" y="176.77" width="1.02" height="1.02" transform="translate(-0.76 0.6) rotate(-0.25)"/><path class="cls-1" d="M145.21,171a1.05,1.05,0,0,1-1.17.85v.75h.82l0,5.16h1.06l0-6.76Z"/><path class="cls-1" d="M150.64,170.92a1.5,1.5,0,0,0-1.61,1.71v1.24c0,1,.4,1.54,1.18,1.54a1,1,0,0,0,1-.59h0V176c0,.65-.21.83-.59.83s-.55-.18-.55-.66V176h-1v.17c0,1.08.55,1.7,1.59,1.69s1.62-.62,1.62-1.76v-3.46A1.5,1.5,0,0,0,150.64,170.92Zm0,3.52c-.34,0-.55-.18-.55-.66v-1.22c0-.48.21-.66.55-.66s.55.17.55.65v1.22C151.21,174.25,151,174.43,150.66,174.43Z"/><path class="cls-1" d="M158.07,174.87c0-1-.4-1.54-1.18-1.54a1,1,0,0,0-1,.59h0v-1.23c0-.65.21-.83.59-.83s.55.18.55.66v.24h1v-.17c0-1.08-.55-1.7-1.59-1.69s-1.62.63-1.62,1.76v3.46a1.62,1.62,0,1,0,3.23,0Zm-1.61,2c-.34,0-.55-.17-.55-.65V175c0-.48.21-.67.55-.67s.55.18.55.66v1.22C157,176.66,156.8,176.83,156.46,176.84Z"/><path class="cls-1" d="M163.6,171.91v-1h-2.8l-.18,3.92h1v-.2c0-.48.21-.67.55-.67s.55.18.55.66v1.49c0,.48-.21.66-.55.66s-.55-.17-.55-.65v-.63h-1v.56c0,1.08.55,1.7,1.59,1.69s1.58-.62,1.58-1.71v-1.51c0-1-.4-1.54-1.19-1.54a1,1,0,0,0-.92.5h0l.08-1.61Z"/><polygon class="cls-1" points="135.43 31.51 134.15 32.78 144.15 42.77 134.15 52.76 135.43 54.04 145.42 44.05 155.41 54.04 156.69 52.76 146.7 42.77 156.69 32.78 155.41 31.51 145.42 41.5 135.43 31.51"/></g></g></svg>