<svg xmlns="http://www.w3.org/2000/svg" viewBox="0 0 291.53 184.18"><defs><style>.cls-1{fill:#444;}</style></defs><title>Asset 1</title><g id="Layer_2" data-name="Layer 2"><g id="Ebene_1" data-name="Ebene 1"><path class="cls-1" d="M291.53,127.68q-22.35-5.36-45-9.06V158q-10.24-2.46-20.56-4.4v13.47a629.88,629.88,0,0,1,65.18,11.87q-12.57-15.76-25.23-31Q278.8,137.54,291.53,127.68Z"/><path class="cls-1" d="M45,118.62q-22.6,3.7-45,9.06,12.73,9.86,25.56,20.26Q12.9,163.17.33,178.93a629.88,629.88,0,0,1,65.18-11.87V153.59Q55.2,155.54,45,158Z"/><path class="cls-1" d="M90.77,117.07c-.14-1-.56-1.27-1.26-1.18l-1,.14.65,4.76,1-.14c.7-.1,1-.47.9-1.47Z"/><path class="cls-1" d="M108.84,115.2c-.09-1-.48-1.42-1.26-1.35l-1.07.1.4,4.34.87-.08c.83-.08,1.3-.48,1.2-1.62Z"/><path class="cls-1" d="M241.08,150.09v-45.7a408.29,408.29,0,0,0-190.63,0v45.7A408.29,408.29,0,0,1,241.08,150.09ZM195.44,113l3.07.4.31,10.2h0l2.78-9.79,3.07.4-1.83,14.07-2.09-.27,1.31-10.09h0l-2.8,9.9-2.09-.27-.32-10.16h0l-1.29,9.95-1.93-.25Zm-19.6,9,.88-10.77,2.22.18L178,122.29c-.08,1,.33,1.41,1,1.47s1.18-.27,1.26-1.28l.89-10.91,2.1.17-.88,10.77c-.18,2.26-1.42,3.46-3.6,3.29S175.65,124.23,175.84,122Zm-13.39-11.56,2.23.09-.6,14.17-2.23-.09Zm-72,12.25-1,.14.72,5.28-2.21.3L86,114.32l3.25-.44c2.21-.3,3.46.78,3.77,3l.25,1.83C93.55,121,92.63,122.36,90.42,122.66ZM110,125.83a4.37,4.37,0,0,1-.36-1.72l-.2-2.22c-.12-1.31-.61-1.76-1.62-1.66l-.77.07.53,5.75-2.22.2-1.29-14.13,3.35-.31c2.3-.21,3.39.77,3.59,2.95l.1,1.11c.13,1.45-.25,2.42-1.19,3v0c1.15.36,1.61,1.38,1.75,2.85l.2,2.18a4.18,4.18,0,0,0,.4,1.69Zm13.42-1-.67-14.17,6.07-.29.1,2-3.85.18.19,3.95,3.06-.15.1,2-3.06.14.2,4.15,3.85-.18.1,2Zm19.41-10.63h0v10h-1.95V110.09H144l1.63,10.07h0l1.49-10.07h3.1v14.18h-2.11V114.09h0l-1.49,10.17h-2.11Z"/><polygon class="cls-1" points="93.01 86.11 98.9 85.23 93.02 45.61 84.36 46.89 84.34 75.65 84.23 75.66 75.53 48.2 66.87 49.48 72.74 89.11 78.18 88.31 74.02 60.28 74.14 60.27 82.82 87.62 88.71 86.74 88.68 57.7 88.8 57.69 93.01 86.11"/><rect class="cls-1" x="106.86" y="44.18" width="6.3" height="40.07" transform="translate(-4.97 9.4) rotate(-4.79)"/><polygon class="cls-1" points="129.55 42.97 123.26 43.19 124.61 83.23 141.25 82.67 141.06 76.95 130.71 77.3 129.55 42.97"/><polygon class="cls-1" points="150.19 42.65 149.14 82.69 165.78 83.13 165.93 77.41 155.58 77.14 156.49 42.81 150.19 42.65"/><polygon class="cls-1" points="193.77 50.93 194.27 45.23 177.17 43.71 173.63 83.61 190.74 85.13 191.24 79.43 180.41 78.47 181.44 66.78 190.05 67.55 190.56 61.85 181.95 61.08 182.94 49.97 193.77 50.93"/><path class="cls-1" d="M222.53,61.75l.49-3.11c1-6.11-1.35-9.54-7.79-10.54l-9.39-1.47-6.18,39.58,6.22,1,2.52-16.12,2.15.34c2.83.44,3.86,2,3.29,5.67l-1,6.22c-.5,3.22-.37,3.88-.19,5l6.33,1a11.8,11.8,0,0,1,.07-4.91l1-6.11c.65-4.13.09-7.23-2.82-9l0-.11C220.19,68.22,221.89,65.82,222.53,61.75Zm-5.83-3.46-.61,3.9c-.49,3.17-2.07,4-4.39,3.6l-2.43-.38,1.9-12.16,3,.47C216.37,54.07,217.14,55.46,216.7,58.29Z"/><path class="cls-1" d="M241.08,32.85v-4a408.32,408.32,0,0,0-190.63,0v4A408.29,408.29,0,0,1,241.08,32.85Z"/><polygon class="cls-1" points="62.04 9.94 63.89 19.06 65.56 18.72 63.71 9.6 65.46 9.24 65.15 7.72 59.98 8.77 60.29 10.29 62.04 9.94"/><path class="cls-1" d="M86.39,15.1l-.63-4.37.58-.08c.77-.11,1.16.21,1.3,1.2l.25,1.69a3.33,3.33,0,0,0,.35,1.3l1.72-.25a3.21,3.21,0,0,1-.37-1.28l-.24-1.66c-.16-1.12-.55-1.88-1.45-2.11v0a2.14,2.14,0,0,0,.79-2.32l-.12-.84C88.31,4.69,87.44,4,85.69,4.24l-2.55.37L84.7,15.35Zm-.52-9.32c.6-.09.91.21,1,1L87,7.82c.13.86-.22,1.19-.85,1.28l-.66.1-.48-3.3Z"/><path class="cls-1" d="M108.89,10.45l2.08-.18.47,1.94,1.71-.15L110.48,1.4,108,1.62l-.78,11,1.56-.14Zm.41-7h0l1.28,5.4L109,9Z"/><path class="cls-1" d="M133.5,10.95c1.7-.05,2.51-1,2.46-2.76l-.17-5.48c-.05-1.73-.92-2.65-2.62-2.6l-2.69.08L130.81,11Zm-.31-9.29c.54,0,.88.25.9,1l.17,5.64c0,.77-.29,1.06-.83,1.08l-1,0-.24-7.74Z"/><polygon class="cls-1" points="158.72 9.41 155.78 9.34 155.86 6.16 158.2 6.22 158.24 4.67 155.9 4.61 155.97 1.59 158.92 1.67 158.96 0.12 154.31 0 154.03 10.84 158.68 10.96 158.72 9.41"/><polygon class="cls-1" points="178.74 4.4 178.77 4.4 179.36 12.15 180.96 12.28 182.76 4.63 182.79 4.63 182.14 12.38 183.74 12.52 184.66 1.71 182.3 1.51 180.5 9.09 180.47 9.09 179.89 1.3 177.53 1.1 176.61 11.91 178.09 12.04 178.74 4.4"/><path class="cls-1" d="M204.07,10.49l.58.08c.77.11,1.05.53.91,1.52l-.24,1.69a3.33,3.33,0,0,0,0,1.34l1.72.25A3.2,3.2,0,0,1,207,14l.24-1.66c.16-1.12,0-2-.79-2.43v0a2.14,2.14,0,0,0,1.42-2l.12-.84c.24-1.66-.4-2.58-2.14-2.83l-2.55-.37-1.55,10.74,1.69.24Zm.7-4.83.81.12c.6.09.81.46.7,1.23l-.15,1.06c-.12.86-.55,1.08-1.18,1l-.66-.1Z"/><polygon class="cls-1" points="226.89 15.5 227.6 14.64 228.37 19.2 230.08 19.55 228.95 13.19 232.24 8.92 230.57 8.58 227.48 12.75 227.45 12.74 228.38 8.14 226.71 7.8 224.55 18.43 226.22 18.77 226.89 15.5"/><polygon class="cls-1" points="153.32 153.8 148.1 153.04 145.76 148.31 143.43 153.04 138.2 153.8 141.98 157.49 141.09 162.69 145.76 160.23 150.43 162.69 149.54 157.49 153.32 153.8"/><polygon class="cls-1" points="172.05 153.67 169.92 148.84 167.38 153.47 162.13 153.99 165.75 157.84 164.63 163 169.4 160.75 173.96 163.41 173.3 158.17 177.24 154.66 172.05 153.67"/><polygon class="cls-1" points="195.99 155.26 194.06 150.35 191.34 154.87 186.07 155.18 189.52 159.17 188.19 164.28 193.05 162.23 197.5 165.07 197.05 159.81 201.13 156.46 195.99 155.26"/><polygon class="cls-1" points="121.63 148.74 119.48 153.56 114.3 154.53 118.22 158.06 117.53 163.29 122.1 160.65 126.87 162.92 125.77 157.76 129.4 153.93 124.15 153.38 121.63 148.74"/><polygon class="cls-1" points="100.21 154.82 97.53 150.28 95.56 155.18 90.4 156.33 94.45 159.72 93.95 164.97 98.43 162.17 103.27 164.27 101.99 159.15 105.48 155.19 100.21 154.82"/><polygon class="cls-1" points="127.06 182.88 126.95 180.44 128.75 180.36 128.7 179.17 126.9 179.25 126.79 176.93 129.06 176.82 129 175.63 125.43 175.79 125.8 184.13 129.38 183.97 129.32 182.78 127.06 182.88"/><path class="cls-1" d="M133.49,179.22c-.88-.72-1.16-1.17-1.18-1.78s.21-.83.63-.84.66.21.68.8v.35l1.24,0v-.26c0-1.33-.72-2.08-2-2s-1.91.82-1.87,2.16a3.24,3.24,0,0,0,1.52,2.57c.88.72,1.16,1.17,1.18,1.78s-.24.82-.65.83-.69-.19-.7-.79l0-.6-1.24,0,0,.51c0,1.33.73,2.08,2,2a1.83,1.83,0,0,0,1.89-2.16A3.24,3.24,0,0,0,133.49,179.22Z"/><polygon class="cls-1" points="140.5 175.33 136.44 175.41 136.47 176.6 137.84 176.57 137.96 183.72 139.27 183.7 139.15 176.55 140.52 176.52 140.5 175.33"/><rect class="cls-1" x="141.66" y="182.4" width="1.26" height="1.26" transform="translate(-1.62 1.27) rotate(-0.51)"/><path class="cls-1" d="M149,177.31c0-1.33-.66-2.1-1.95-2.1s-2,.76-2,2.09v.81h1.24v-.89c0-.6.26-.82.68-.82s.68.2.68,1a3.51,3.51,0,0,1-1.29,2.61,3.61,3.61,0,0,0-1.32,2.65v1h3.79v-1.19h-2.48a.88.88,0,0,1,0-.18c0-.44.22-.83,1-1.67A4.58,4.58,0,0,0,149,177.31Z"/><path class="cls-1" d="M153,175.27a1.85,1.85,0,0,0-2,2.06l-.08,4.34a2,2,0,1,0,4,.07l.08-4.34A1.85,1.85,0,0,0,153,175.27Zm.56,6.53c0,.6-.28.82-.69.81s-.68-.24-.66-.83l.08-4.5c0-.6.28-.82.69-.81s.68.24.66.83Z"/><path class="cls-1" d="M157.88,176.53l0,.93,1,0-.2,6.36,1.31,0,.27-8.34-.88,0A1.3,1.3,0,0,1,157.88,176.53Z"/><path class="cls-1" d="M165,175.65a1.85,1.85,0,0,0-2.09,2l-.2,4.34a2,2,0,1,0,4,.18l.2-4.34A1.85,1.85,0,0,0,165,175.65Zm.38,6.55c0,.6-.3.81-.72.79s-.67-.26-.64-.85l.21-4.5c0-.6.3-.81.72-.79s.67.26.64.85Z"/></g></g></svg>