<svg xmlns="http://www.w3.org/2000/svg" viewBox="0 0 243.51 184.45"><defs><style>.cls-1{fill:#444;}</style></defs><title>Asset 2</title><g id="Layer_2" data-name="Layer 2"><g id="Ebene_1" data-name="Ebene 1"><path class="cls-1" d="M221.27,48.55,184,11.27,142.06,53.2H102.6L60.68,11.27,23.4,48.55,28,53.2H10.23V125H99.77l22.6,22.53L144.91,125h87.94V53.2H216.63ZM184,13.63l34.93,34.93-4.64,4.64h-4.61l4.64-4.64L184,18.24l-35,35h-4.61ZM32.72,48.55l28-28,32.6,32.6H37.36Zm6.3,6.3h62.89l2.46,2.46h35.91l2.46-2.46h69.86l-2.46,2.46h18.22v63.55H146.68l-2.46,2.46h-7l-14.92,14.92-14.92-14.92h-6.95L98,120.87H14.71V57.32H34.52l-2.46-2.46h7ZM207.31,53.2H151.38L184,20.59l28,28ZM140.4,54.86l-.8.8H105.06l-.8-.8ZM25.75,48.55,60.68,13.63,100.25,53.2H95.64l-35-35L30.36,48.55,35,53.2H30.39ZM11.9,123.34V54.86H29.7l.8.8H13v66.88H97.3l.8.8H11.9Zm110.48,21.84L102.13,125h4.59l15,15,.59.56L137.94,125h4.61ZM231.18,54.86v68.48H146.57l.8-.8H230V55.66H214.16l.8-.8Z"/><rect class="cls-1" x="235.3" y="71.56" width="3.28" height="35.08"/><rect class="cls-1" x="4.1" y="71.55" width="3.28" height="35.08"/><path class="cls-1" d="M32.8,99.13c0,5.88,2.94,9.25,8.62,9.25S50,105,50,99.13V87.47H41.94v5.25h2.63V99.5c0,2.63-1.16,3.57-3,3.57s-3-.95-3-3.57V79.64c0-2.63,1.16-3.62,3-3.62s3,1,3,3.63v3.94H50V80c0-5.88-2.94-9.25-8.62-9.25S32.8,74.12,32.8,80Z"/><path class="cls-1" d="M69,101.28h7.09l1,6.67h5.83L77,71.18H68.58L62.69,108H68Zm3.47-23.59h.1l2.73,18.6H69.73Z"/><path class="cls-1" d="M101.88,93h2c2.63,0,3.78,1.26,3.78,4.68v5.78c0,3,.21,3.57.53,4.52h5.88a10.83,10.83,0,0,1-.63-4.47V97.82c0-3.83-.95-6.57-3.84-7.77v-.11c2.57-1.21,3.78-3.62,3.78-7.41V79.64c0-5.67-2.57-8.46-8.56-8.46H96.1V108h5.78Zm0-16.55h2.78c2,0,2.94,1.16,2.94,3.78v3.63c0,2.94-1.31,3.89-3.47,3.89h-2.26Z"/><path class="cls-1" d="M132.51,101.28h7.09l1,6.67h5.83l-5.88-36.78h-8.46L126.21,108h5.31ZM136,77.69h.1l2.73,18.6h-5.57Z"/><path class="cls-1" d="M167.71,108.38c5.67,0,8.62-3.36,8.62-9.25V87.47h-8.09v5.25h2.63V99.5c0,2.63-1.16,3.57-3,3.57s-3-.95-3-3.57V79.64c0-2.63,1.16-3.62,3-3.62s3,1,3,3.63v3.94h5.46V80c0-5.88-2.94-9.25-8.62-9.25s-8.62,3.36-8.62,9.25V99.13C159.09,105,162,108.38,167.71,108.38Z"/><polygon class="cls-1" points="206.32 102.7 196.34 102.7 196.34 91.93 204.27 91.93 204.27 86.68 196.34 86.68 196.34 76.43 206.32 76.43 206.32 71.18 190.56 71.18 190.56 107.95 206.32 107.95 206.32 102.7"/><polygon class="cls-1" points="67.94 132.39 63.51 132.41 63.55 142.75 67.98 142.73 67.98 141.25 65.17 141.26 65.16 138.24 67.39 138.23 67.39 136.75 65.16 136.76 65.14 133.88 67.95 133.87 67.94 132.39"/><path class="cls-1" d="M74.07,141.33c-.52,0-.84-.26-.85-1v-.74H71.68v.64c0,1.65.84,2.6,2.43,2.59s2.42-1,2.41-2.61c0-1.18-.44-2-1.8-3.23-1.07-.93-1.39-1.49-1.4-2.24s.29-1,.81-1,.81.28.82,1v.43H76.5v-.33c0-1.65-.82-2.6-2.4-2.59s-2.39,1-2.38,2.61c0,1.18.44,2,1.8,3.23,1.07.93,1.39,1.49,1.4,2.24S74.58,141.33,74.07,141.33Z"/><polygon class="cls-1" points="84.94 133.8 84.94 132.32 79.91 132.34 79.92 133.82 81.62 133.81 81.65 142.68 83.28 142.67 83.24 133.81 84.94 133.8"/><rect class="cls-1" x="87.75" y="141.08" width="1.57" height="1.57" transform="translate(-0.53 0.33) rotate(-0.21)"/><path class="cls-1" d="M152.35,132.39h-1.09a1.61,1.61,0,0,1-1.78,1.31v1.15h1.26l0,7.89h1.63Z"/><path class="cls-1" d="M159.58,132.24a2.29,2.29,0,0,0-2.46,2.61v1.89c0,1.52.62,2.36,1.81,2.36a1.49,1.49,0,0,0,1.47-.91h0v1.88c0,1-.32,1.27-.9,1.27s-.84-.28-.85-1V140h-1.54v.27c0,1.65.84,2.6,2.43,2.59s2.48-1,2.47-2.7l0-5.29A2.29,2.29,0,0,0,159.58,132.24Zm0,5.38c-.52,0-.84-.28-.85-1v-1.86c0-.74.32-1,.84-1s.84.26.85,1v1.86C160.44,137.34,160.12,137.62,159.6,137.62Z"/><path class="cls-1" d="M171,135.12v-.32a2.54,2.54,0,1,0-5.08,0v.32a2.12,2.12,0,0,0,1,2.06v0a2.25,2.25,0,0,0-1,2.15v.81a2.54,2.54,0,1,0,5.08,0v-.81a2.25,2.25,0,0,0-1-2.14v0A2.15,2.15,0,0,0,171,135.12Zm-3.46-.25c0-.93.39-1.18.91-1.19s.92.25.92,1.18v.58c0,.83-.39,1.09-.91,1.1s-.92-.26-.92-1.09Zm.94,6.44c-.52,0-.92-.25-.92-1.16v-1c0-.81.34-1.17.91-1.17s.92.35.92,1.16v1C169.35,141.05,169,141.31,168.45,141.31Z"/><path class="cls-1" d="M177.26,142.75a2.29,2.29,0,0,0,2.46-2.61l0-5.38a2.47,2.47,0,1,0-4.93,0l0,5.38A2.29,2.29,0,0,0,177.26,142.75Zm0-9.1c.52,0,.84.28.85,1l0,5.58c0,.74-.32,1-.84,1s-.84-.28-.85-1l0-5.58C176.38,133.94,176.71,133.65,177.22,133.65Z"/><rect class="cls-1" x="91.52" y="6.19" width="17.62" height="1.44" transform="translate(19.03 66.11) rotate(-40)"/><path class="cls-1" d="M106.1.15c-1.14-.68-4.65,1-8.15,3.92s-5.75,6.1-5.28,7.35Z"/><path class="cls-1" d="M101.19,21.65a19.82,19.82,0,0,1,3.92-5.26l9.4,12.41-1.3,1.55a.74.74,0,0,0,.09,1l1.6,1.34a7.48,7.48,0,0,0,.05,1.36l-1.34,1.13a.75.75,0,0,0-.09,1l2,2.35,1-.84c.12.15.23.3.36.44l-1,.83,2,2.35a.74.74,0,0,0,1,.09l1.42-1.19a7.37,7.37,0,0,0,1.69.26h.71a7.37,7.37,0,0,0,1.68-.26l1.42,1.19a.74.74,0,0,0,1-.09l2-2.35-1-.83c.13-.14.25-.29.36-.44l1,.84,2-2.35a.74.74,0,0,0-.09-1l-1.34-1.13a7.47,7.47,0,0,0,.05-1.36l1.6-1.34a.74.74,0,0,0,.09-1l-1.3-1.55,9.4-12.41a19.81,19.81,0,0,1,3.92,5.26l6.66-7.94L136.63,2.39,130,10.32a19.83,19.83,0,0,1,5.86,2.94L124,26a7.43,7.43,0,0,0-1-.15h-.06c-.2,0-.4,0-.61,0s-.4,0-.61,0h-.06a7.44,7.44,0,0,0-1,.15L108.83,13.27a19.84,19.84,0,0,1,5.87-2.94L108,2.39,94.54,13.71ZM139.34,9.72a2,2,0,1,1,.25,2.84A2,2,0,0,1,139.34,9.72Zm-14,19.78A4.83,4.83,0,0,1,122.73,38h-.79a4.82,4.82,0,1,1,3.44-8.52Zm-22.9-20a2,2,0,1,1-.25,2.84A2,2,0,0,1,102.48,9.47Z"/><rect class="cls-1" x="143.62" y="-1.9" width="1.44" height="17.62" transform="translate(46.27 113.04) rotate(-50)"/><path class="cls-1" d="M146.71,4.07c-3.5-2.94-7-4.6-8.15-3.92L152,11.42C152.46,10.18,150.21,7,146.71,4.07Z"/><polygon class="cls-1" points="63.47 156.96 65.44 158.04 59.8 168.32 61.68 169.36 67.32 159.07 69.29 160.16 70.23 158.44 64.41 155.25 63.47 156.96"/><path class="cls-1" d="M78.87,162.36l-3-1.23-5.19,12.66,2,.82,2.11-5.15.69.28c.9.37,1.12,1,.64,2.14l-.82,2a4.22,4.22,0,0,0-.46,1.63l2,.83a4,4,0,0,1,.41-1.63l.8-2c.54-1.32.6-2.39-.22-3.22l0,0c1.06-.05,1.81-.71,2.35-2l.41-1C81.42,164.52,80.93,163.2,78.87,162.36Zm-.32,3.5L78,167.11c-.42,1-1,1.15-1.74.85l-.78-.32,1.59-3.89,1,.39C78.78,164.43,78.92,165,78.55,165.86Z"/><path class="cls-1" d="M83.93,178.76l1.9.53,1-2.29,2.54.71-.31,2.49,2.09.58L92.74,167l-3-.85Zm6.56-9.85-.88,6.93-2-.56,2.84-6.39Z"/><path class="cls-1" d="M104.33,169.43,101,168.9l-2.1,13.51,3.36.52c2.12.33,3.35-.68,3.69-2.85l1.06-6.83C107.31,171.1,106.45,169.76,104.33,169.43Zm.54,3.4-1.09,7c-.15,1-.61,1.25-1.29,1.14l-1.2-.19,1.5-9.65,1.2.19C104.67,171.45,105,171.87,104.87,172.83Z"/><polygon class="cls-1" points="113.55 184.2 119.41 184.45 119.49 182.5 115.78 182.34 115.95 178.34 118.9 178.46 118.98 176.51 116.03 176.39 116.19 172.58 119.9 172.74 119.98 170.79 114.13 170.54 113.55 184.2"/><polygon class="cls-1" points="141.01 169.15 141.09 178.97 141.05 178.97 138 169.62 135.05 170.08 137.16 183.59 139.02 183.3 137.52 173.75 137.56 173.74 140.6 183.06 142.61 182.74 142.52 172.83 142.56 172.82 144.07 182.51 146.08 182.2 143.97 168.69 141.01 169.15"/><path class="cls-1" d="M152.11,166.67l1.73,13.74,1.89-.55-.34-2.49,2.53-.74,1.05,2.28,2.08-.61-5.94-12.51Zm3,8.84-1-6.92h0l2.91,6.35Z"/><path class="cls-1" d="M172.91,169.65c-.56-1.31-1.28-2.11-2.44-2.11l0,0a2.7,2.7,0,0,0,.22-3.09l-.42-1c-.82-1.94-2.11-2.52-4.16-1.65l-3,1.27,5.34,12.59,2-.84-2.17-5.13.68-.29c.9-.38,1.48-.12,2,1.05l.84,2a4.2,4.2,0,0,0,.84,1.47l2-.85a4,4,0,0,1-.86-1.44Zm-4.65-2.1-.77.33L165.85,164l1-.4c.7-.3,1.18,0,1.56.87l.53,1.24C169.32,166.71,169,167.23,168.27,167.54Z"/><polygon class="cls-1" points="181.22 154.04 179.36 155.1 179.88 161.62 179.84 161.64 176.91 156.49 175.05 157.56 181.82 169.44 183.69 168.37 181.6 164.72 181.56 163.31 186.08 167.01 188 165.91 181.65 160.81 181.22 154.04"/><rect class="cls-1" y="79.08" width="1.64" height="20.04"/><rect class="cls-1" x="241.86" y="79.08" width="1.64" height="20.04"/></g></g></svg>