<svg xmlns="http://www.w3.org/2000/svg" viewBox="0 0 224.11 205.06"><defs><style>.cls-1{fill:#444;}</style></defs><title>Asset 3</title><g id="Layer_2" data-name="Layer 2"><g id="Ebene_1" data-name="Ebene 1"><polygon class="cls-1" points="72.61 42.58 75.9 41.99 85.21 40.33 88.5 39.74 97.81 38.07 101.1 37.48 110.41 35.81 112.06 35.52 113.7 35.81 123.01 37.48 126.3 38.07 135.61 39.74 138.9 40.33 148.22 41.99 151.5 42.58 223.53 55.48 224.11 52.24 151.5 39.24 151.5 32.87 148.22 32.87 148.22 38.65 138.9 36.99 138.9 21.91 135.61 21.91 135.61 36.4 126.3 34.73 126.3 10.96 123.01 10.96 123.01 34.14 113.7 32.47 113.7 0 110.41 0 110.41 32.48 101.1 34.14 101.1 10.96 97.81 10.96 97.81 34.73 88.5 36.4 88.5 21.91 85.21 21.91 85.21 36.99 75.9 38.66 75.9 32.87 72.61 32.87 72.61 39.24 0 52.24 0.58 55.48 72.61 42.58"/><polygon class="cls-1" points="112.25 38.5 112.06 38.47 0.1 58.51 0.48 60.67 112.06 40.69 223.63 60.67 224.01 58.51 112.25 38.5"/><polygon class="cls-1" points="223.92 64.53 112.15 44.52 112.06 44.5 0.19 64.53 0.39 65.61 112.06 45.62 223.73 65.61 223.92 64.53"/><polygon class="cls-1" points="151.5 162.48 148.22 163.07 138.9 164.74 135.61 165.32 126.3 166.99 123.01 167.58 113.7 169.25 112.06 169.54 110.41 169.25 101.1 167.58 97.81 166.99 88.5 165.32 85.21 164.74 75.9 163.07 72.61 162.48 0.58 149.58 0 152.82 72.61 165.82 72.61 172.19 75.9 172.19 75.9 166.41 85.21 168.07 85.21 183.15 88.5 183.15 88.5 168.66 97.81 170.33 97.81 194.1 101.1 194.1 101.1 170.92 110.41 172.59 110.41 205.06 113.7 205.06 113.7 172.59 123.01 170.92 123.01 194.1 126.3 194.1 126.3 170.33 135.61 168.66 135.61 183.15 138.9 183.15 138.9 168.07 148.22 166.41 148.22 172.19 151.5 172.19 151.5 165.82 224.11 152.82 223.53 149.58 151.5 162.48"/><polygon class="cls-1" points="111.86 166.56 112.06 166.59 224.01 146.55 223.63 144.39 112.06 164.37 0.48 144.39 0.1 146.55 111.86 166.56"/><polygon class="cls-1" points="111.96 160.54 112.06 160.56 223.92 140.53 223.73 139.45 112.06 159.45 0.39 139.45 0.19 140.53 111.96 160.54"/><path class="cls-1" d="M12,118.21Q9.57,97.95,7.14,80q-3.25,1-6.48,2c2.1,13.27,4.2,27.9,6.3,43.76q4.8,1.43,9.62,2.72C18.7,112,20.83,94.32,23,75.65q-3,.74-6,1.53-2.44,21.6-4.88,41Z"/><path class="cls-1" d="M44.4,134.71V71q-3.28.61-6.56,1.27v61.14Q41.11,134.1,44.4,134.71Z"/><path class="cls-1" d="M76.09,110Q72.74,88.25,69.4,67.3q-4.15.47-8.3,1v69q3,.41,5.95.76V87h.12c2.71,16.9,5.42,34.28,8.13,52q3.4.33,6.81.59V66.09q-3,.23-5.91.51V110Z"/><path class="cls-1" d="M110.65,140.71V75.83q3.48,0,7,.06V65.1q-10.28-.21-20.56.15V76q3.48-.09,7-.13v64.79Q107.32,140.71,110.65,140.71Z"/><path class="cls-1" d="M128.54,140.24q3.05-.16,6.1-.36l1.15-13.48q4.07-.19,8.14-.43.57,6.54,1.14,13,3.34-.33,6.68-.71-3.37-35-6.74-71.59-4.85-.47-9.71-.81Q131.93,102.63,128.54,140.24Zm11.23-61h.12q1.57,18.6,3.14,36.93l-6.39.19Q138.21,97.66,139.78,79.21Z"/><path class="cls-1" d="M185.81,93.15v-5.8c0-9.45-3.32-15.68-9.77-17s-9.81,4.35-9.81,15.11v34.8c0,10.76,3.36,16.39,9.81,15.11s9.77-7.54,9.77-17V99.45l-9.17-.21v9l3-.1q0,5.73,0,11.46c0,4.43-1.31,6.22-3.4,6.52s-3.4-1.2-3.4-5.83V85.39c0-4.63,1.32-6.22,3.4-5.93s3.4,2.18,3.4,6.61q0,3.33,0,6.66Z"/><path class="cls-1" d="M219.43,87.93V82q-8.74-2.77-17.58-5.1v52q8.84-2.32,17.58-5.1v-6q-5.53,1.26-11.11,2.38V106l8.84-.34q0-3.09,0-6.18l-8.84-.41V85.55Q213.89,86.67,219.43,87.93Z"/><polygon class="cls-1" points="8.15 45.73 7.01 39.32 7.03 39.31 9.22 45.53 10.56 45.29 10.36 38.63 10.38 38.62 11.54 45.12 12.89 44.88 11.27 35.82 9.29 36.17 9.48 42.77 9.46 42.78 7.27 36.53 5.29 36.89 6.91 45.95 8.15 45.73"/><path class="cls-1" d="M16,42.07A2,2,0,0,0,18.58,44a2,2,0,0,0,1.75-2.67l-.84-4.71a2,2,0,0,0-2.57-1.89,2,2,0,0,0-1.75,2.66ZM17.15,36c.45-.08.78.11.9.76l.88,4.89c.12.65-.12.94-.58,1s-.78-.11-.9-.76L16.58,37C16.46,36.37,16.7,36.08,17.15,36Z"/><path class="cls-1" d="M26.48,42.44a2,2,0,0,0,1.72-2.62l-.82-4.58a2,2,0,0,0-2.52-1.86l-2.25.4,1.62,9.06Zm-1.42-7.76c.45-.08.77.1.88.75l.84,4.71c.12.65-.11.93-.57,1l-.8.14-1.16-6.47Z"/><polygon class="cls-1" points="35.99 40.74 35.75 39.45 33.3 39.89 32.82 37.23 34.77 36.88 34.54 35.59 32.59 35.94 32.14 33.42 34.59 32.98 34.36 31.68 30.48 32.38 32.1 41.44 35.99 40.74"/><path class="cls-1" d="M40.88,39.87l-.66-3.69.49-.09c.65-.12,1,.14,1.14,1l.25,1.42a2.84,2.84,0,0,0,.33,1.09l1.45-.26a2.72,2.72,0,0,1-.35-1.07l-.25-1.4c-.17-.94-.52-1.58-1.29-1.75v0a1.81,1.81,0,0,0,.6-2l-.13-.71A1.85,1.85,0,0,0,40,30.68l-2.15.38,1.62,9.06ZM40.17,32c.5-.09.78.15.89.8l.16.89c.13.72-.15,1-.68,1.11l-.56.1-.5-2.78Z"/><polygon class="cls-1" points="48.53 38.49 47.36 31.93 47.38 31.93 50.3 38.18 51.77 37.92 50.14 28.86 48.88 29.09 49.85 34.51 49.82 34.51 47.41 29.35 45.63 29.67 47.25 38.73 48.53 38.49"/><path class="cls-1" d="M166.9,37a2,2,0,0,0,2.53-1.9l.22-1.2-1.35-.24L168.07,35c-.12.65-.44.83-.9.75s-.7-.37-.58-1l.88-4.89c.12-.65.45-.84.9-.76s.69.38.58,1l-.17,1,1.35.24.16-.88a2.16,2.16,0,1,0-4.24-.76l-.84,4.71A2,2,0,0,0,166.9,37Z"/><path class="cls-1" d="M174.53,38.42a2,2,0,0,0,2.57-1.89l.84-4.71a2.2,2.2,0,1,0-4.32-.77l-.84,4.71A2,2,0,0,0,174.53,38.42Zm-.35-2.32.88-4.89c.12-.65.45-.84.9-.76s.69.38.58,1l-.88,4.89c-.12.65-.44.84-.9.76S174.07,36.74,174.19,36.1Z"/><polygon class="cls-1" points="182.6 33.14 182.63 33.15 182.52 39.74 183.86 39.98 185.98 33.66 186.01 33.66 184.84 40.16 186.19 40.4 187.81 31.34 185.84 30.98 183.72 37.24 183.7 37.24 183.82 30.62 181.84 30.27 180.21 39.33 181.46 39.55 182.6 33.14"/><path class="cls-1" d="M191.84,37.9l.67.12A2,2,0,0,0,195,36.16l.21-1.18a2,2,0,0,0-1.72-2.62l-2.1-.38L189.81,41l1.42.25Zm.78-4.36.67.12c.45.08.66.33.54,1L193.6,36c-.12.65-.4.81-.85.73l-.67-.12Z"/><path class="cls-1" d="M198.6,40.92l1.75.31,0,1.69,1.44.26.17-9.32-2.08-.37-3.07,8.8,1.31.23Zm1.9-5.66h0l-.15,4.7L199,39.73Z"/><polygon class="cls-1" points="207.42 37.43 207.45 37.43 208.02 44.3 209.48 44.57 211.1 35.51 209.84 35.28 208.86 40.7 208.84 40.7 208.37 35.02 206.59 34.7 204.96 43.76 206.25 43.99 207.42 37.43"/><polygon class="cls-1" points="214.44 45.45 215.86 45.71 216.4 42.71 219.28 36.97 217.92 36.73 216.11 40.66 216.09 40.66 215.75 36.34 214.26 36.07 214.98 42.45 214.44 45.45"/><polygon class="cls-1" points="6.66 161.74 5.58 161.55 6.04 158.96 5.09 158.79 4.02 164.82 4.96 165 5.43 162.41 6.5 162.6 6.04 165.19 7.01 165.36 8.09 159.32 7.12 159.15 6.66 161.74"/><path class="cls-1" d="M9.2,165.75l.87.16.36-1.07,1.16.21,0,1.12,1,.17.11-6.21-1.39-.25Zm2.51-4.68-.1,3.13L10.7,164l1-3Z"/><polygon class="cls-1" points="17.27 164.7 17.26 164.69 16.95 160.91 15.76 160.7 14.68 166.73 15.53 166.89 16.31 162.52 16.33 162.52 16.71 167.1 17.69 167.27 18.77 161.24 17.92 161.09 17.27 164.7"/><path class="cls-1" d="M22.67,161.94l-1.5-.27-1.08,6,1.5.27a1.31,1.31,0,0,0,1.68-1.24l.55-3.05A1.31,1.31,0,0,0,22.67,161.94Zm.21,1.53-.56,3.14c-.08.43-.29.55-.59.5l-.53-.1L22,162.7l.53.1C22.8,162.85,23,163,22.88,163.47Z"/><path class="cls-1" d="M27.77,162.78A1.34,1.34,0,0,0,26.09,164l-.56,3.14a1.44,1.44,0,1,0,2.83.51l.14-.8-.9-.16-.15.86c-.08.43-.29.55-.6.5s-.46-.24-.39-.67l.58-3.26c.08-.43.3-.56.6-.51s.46.25.39.68l-.12.65.9.16.1-.59A1.34,1.34,0,0,0,27.77,162.78Z"/><path class="cls-1" d="M32.9,163.77l-1.43-.26-1.08,6,.95.17.44-2.46.33.06c.43.08.58.32.48.88l-.17.95a1.89,1.89,0,0,0,0,.76l1,.17a1.81,1.81,0,0,1,0-.75l.17-.93c.11-.63,0-1.11-.4-1.39v0a1.21,1.21,0,0,0,.84-1.1l.08-.47A1.23,1.23,0,0,0,32.9,163.77Zm.19,1.56-.11.59c-.09.48-.33.6-.68.54l-.37-.07.33-1.85.46.08C33.06,164.69,33.17,164.9,33.09,165.33Z"/><path class="cls-1" d="M35.35,170.44l.87.16.36-1.07,1.16.21,0,1.12,1,.17.11-6.21-1.39-.25Zm2.51-4.68-.1,3.13-.91-.16,1-3Z"/><polygon class="cls-1" points="40.82 171.41 41.77 171.58 42.22 169.09 43.44 169.31 43.59 168.45 42.37 168.23 42.69 166.41 44.25 166.69 44.41 165.83 41.9 165.38 40.82 171.41"/><polygon class="cls-1" points="46.18 167.03 47.17 167.21 46.24 172.38 47.19 172.56 48.12 167.38 49.11 167.56 49.26 166.7 46.33 166.17 46.18 167.03"/><polygon class="cls-1" points="50.34 173.12 52.92 173.58 53.08 172.72 51.44 172.43 51.76 170.66 53.06 170.89 53.21 170.03 51.91 169.8 52.21 168.12 53.85 168.41 54 167.55 51.42 167.08 50.34 173.12"/><path class="cls-1" d="M57.82,168.23l-1.5-.27-1.08,6,1.5.27A1.31,1.31,0,0,0,58.42,173L59,170A1.31,1.31,0,0,0,57.82,168.23Zm.21,1.53-.56,3.14c-.08.43-.29.55-.59.5l-.53-.1.77-4.31.53.1C57.95,169.14,58.1,169.33,58,169.76Z"/><path class="cls-1" d="M168.31,171.78l-.9.16.15.86c.08.43-.08.62-.39.67s-.52-.07-.6-.5l-.58-3.26c-.08-.43.08-.63.38-.68s.52.08.6.51l.12.65.9-.16-.1-.59a1.44,1.44,0,1,0-2.83.51l.56,3.14a1.44,1.44,0,1,0,2.83-.51Z"/><path class="cls-1" d="M173,168.53a1.46,1.46,0,1,0-2.88.51l.56,3.14a1.46,1.46,0,1,0,2.88-.51Zm-.76,4.05c-.3.05-.52-.08-.6-.51l-.58-3.26c-.08-.43.08-.63.38-.68s.52.08.6.51l.58,3.26C172.69,172.33,172.53,172.52,172.23,172.58Z"/><path class="cls-1" d="M178.14,167.6a1.46,1.46,0,1,0-2.88.51l.56,3.14a1.46,1.46,0,1,0,2.88-.51Zm-.76,4.05c-.3.05-.52-.08-.6-.51l-.58-3.26c-.08-.43.08-.63.38-.68s.52.08.6.51l.58,3.26C177.84,171.4,177.68,171.6,177.38,171.65Z"/><polygon class="cls-1" points="182.09 170.74 181.17 165.57 180.22 165.74 181.3 171.77 183.81 171.32 183.65 170.46 182.09 170.74"/><path class="cls-1" d="M191.12,165.33a1.31,1.31,0,0,0-1.68-1.24l-1.5.27,1.08,6,1.5-.27a1.32,1.32,0,0,0,1.15-1.74Zm-.77,3.94-.54.1L189,165l.54-.1c.3-.05.51.07.59.5l.56,3.14C190.8,169,190.65,169.21,190.35,169.26Z"/><polygon class="cls-1" points="195.06 168.42 194.75 166.65 196.05 166.42 195.9 165.56 194.59 165.79 194.29 164.11 195.93 163.81 195.78 162.95 193.19 163.41 194.27 169.45 196.86 168.99 196.7 168.13 195.06 168.42"/><path class="cls-1" d="M200.24,164.94c-.72-.43-1-.73-1-1.17s.07-.63.37-.68.5.08.58.51l0,.25.9-.16,0-.19a1.42,1.42,0,1,0-2.79.5,2.38,2.38,0,0,0,1.38,1.7c.72.43,1,.73,1,1.17s-.08.62-.39.67-.52-.07-.6-.5l-.08-.43-.9.16.07.37a1.44,1.44,0,1,0,2.83-.51A2.38,2.38,0,0,0,200.24,164.94Z"/><rect class="cls-1" x="203.58" y="161.52" width="0.96" height="6.13" transform="translate(-25.78 38.49) rotate(-10.14)"/><path class="cls-1" d="M209.65,163.23l-1.33.24.15.86.43-.08.2,1.11c.08.43-.08.62-.39.67s-.52-.07-.6-.5l-.58-3.26c-.08-.43.08-.63.38-.68s.52.08.6.51l.12.65.9-.16-.1-.59a1.44,1.44,0,1,0-2.83.51l.56,3.14a1.44,1.44,0,1,0,2.83-.51Z"/><polygon class="cls-1" points="213.66 159.75 214.31 163.36 214.29 163.37 212.69 159.92 211.5 160.14 212.57 166.17 213.43 166.02 212.65 161.65 212.66 161.65 214.61 165.81 215.58 165.63 214.5 159.6 213.66 159.75"/></g></g></svg>