<svg xmlns="http://www.w3.org/2000/svg" viewBox="0 0 250.8 193.29"><defs><style>.cls-1{fill:#444;}</style></defs><title>Asset 6</title><g id="Layer_2" data-name="Layer 2"><g id="Ebene_1" data-name="Ebene 1"><path class="cls-1" d="M100.4,178.16l1.39.42.4-1.39-1.37-.41Z"/><path class="cls-1" d="M84.33,171.31l1.28.7.68-1.28L85,170Z"/><path class="cls-1" d="M97.62,177.25l1.38.47.45-1.38-1.36-.46Z"/><path class="cls-1" d="M103.19,179l1.41.37.35-1.41-1.38-.36Z"/><path class="cls-1" d="M94.88,176.25l1.37.51.5-1.36-1.34-.51Z"/><path class="cls-1" d="M92.18,175.15l1.35.56.55-1.34-1.32-.55Z"/><path class="cls-1" d="M86.9,172.68l1.3.65.64-1.3-1.28-.64Z"/><path class="cls-1" d="M89.52,174l1.33.61.59-1.32-1.3-.6Z"/><path class="cls-1" d="M106,179.68l1.42.32.31-1.42-1.4-.31Z"/><path class="cls-1" d="M123.29,181.89l1.45,0v-1.45l-1.43,0Z"/><path class="cls-1" d="M126.18,180.46v1.45l1.45,0,0-1.45Z"/><path class="cls-1" d="M129,180.38l.06,1.45,1.45-.08-.09-1.45Z"/><path class="cls-1" d="M120.38,181.77l1.45.07.06-1.45-1.43-.07Z"/><path class="cls-1" d="M117.48,181.55l1.45.12.11-1.45-1.42-.12Z"/><path class="cls-1" d="M111.72,180.81l1.44.22.21-1.43-1.41-.22Z"/><path class="cls-1" d="M108.85,180.3l1.43.27.26-1.43-1.4-.27Z"/><path class="cls-1" d="M114.59,181.23l1.44.17.16-1.44-1.42-.17Z"/><path class="cls-1" d="M54.39,140.72l-1.23.76.77,1.23,1.22-.78Z"/><path class="cls-1" d="M59.24,147.77l-1.15.88L59,149.8l1.14-.9Z"/><path class="cls-1" d="M57.54,145.48l-1.18.84.85,1.17,1.17-.86Z"/><path class="cls-1" d="M61,150l-1.12.92.93,1.12,1.1-.94Z"/><path class="cls-1" d="M55.93,143.13l-1.21.8.81,1.2,1.19-.82Z"/><path class="cls-1" d="M51.57,135.77l-1.29.67q.34.64.68,1.28l1.27-.69Z"/><path class="cls-1" d="M62.86,152.18l-1.09,1,1,1.08,1.07-1Z"/><path class="cls-1" d="M52.94,138.27l-1.26.72.73,1.25,1.25-.74Z"/><path class="cls-1" d="M131.89,180.21l.11,1.45,1.45-.12-.14-1.44Z"/><path class="cls-1" d="M76.92,166.68l1.2.82.81-1.2-1.18-.81Z"/><path class="cls-1" d="M74.56,165l1.17.86.85-1.17-1.15-.85Z"/><path class="cls-1" d="M81.8,169.85l1.26.74.72-1.26-1.23-.73Z"/><path class="cls-1" d="M72.27,163.19l1.14.9.89-1.14-1.12-.89Z"/><path class="cls-1" d="M79.34,168.31l1.23.78.77-1.23-1.21-.77Z"/><path class="cls-1" d="M65.77,157.37l1,1,1-1-1-1Z"/><path class="cls-1" d="M64.79,154.3l-1.05,1,1,1,1-1Z"/><path class="cls-1" d="M70,161.32l1.11.94.93-1.11L71,160.23Z"/><path class="cls-1" d="M67.87,159.38l1.07,1,1-1.08-1.06-1Z"/><path class="cls-1" d="M140.39,179.12l.26,1.43,1.43-.27-.29-1.42Z"/><path class="cls-1" d="M188.87,151.1l1.1.94.93-1.12-1.12-.92Z"/><path class="cls-1" d="M190.68,148.9l1.14.9.89-1.15-1.15-.88Z"/><path class="cls-1" d="M192.42,146.62l1.17.86.86-1.18-1.18-.84Z"/><path class="cls-1" d="M194.09,144.29l1.2.82.81-1.21-1.21-.8Z"/><path class="cls-1" d="M183,157.34l1,1,1-1-1-1Z"/><path class="cls-1" d="M180.89,159.28l1,1.08,1.08-1-1-1.06Z"/><path class="cls-1" d="M187,153.25l1.07,1,1-1.08-1.09-1Z"/><path class="cls-1" d="M185,155.33l1,1,1-1-1.05-1Z"/><path class="cls-1" d="M195.67,141.91l1.22.78q.39-.61.77-1.23l-1.23-.76Z"/><path class="cls-1" d="M197.17,139.47l1.25.74.73-1.26-1.26-.71Z"/><path class="cls-1" d="M134.73,179.94l.16,1.44,1.45-.17-.19-1.44Z"/><path class="cls-1" d="M199.9,134.44l1.29.65q.33-.65.64-1.31l-1.31-.63Q200.23,133.8,199.9,134.44Z"/><path class="cls-1" d="M201.14,131.86l1.32.6q.31-.66.6-1.33l-1.33-.58Z"/><path class="cls-1" d="M198.58,137l1.27.69.69-1.29-1.29-.67Z"/><path class="cls-1" d="M148.73,177.15l.41,1.39,1.39-.42-.43-1.38Z"/><path class="cls-1" d="M156.82,174.33l.55,1.34,1.33-.56-.57-1.33Z"/><path class="cls-1" d="M151.46,176.3l.45,1.38,1.38-.47-.48-1.37Z"/><path class="cls-1" d="M178.73,161.15l.93,1.11,1.11-.94-.95-1.1Z"/><path class="cls-1" d="M146,177.9l.36,1.4,1.41-.37-.38-1.4Z"/><path class="cls-1" d="M143.19,178.56l.31,1.42,1.42-.32-.33-1.41Z"/><path class="cls-1" d="M137.57,179.58l.21,1.43,1.44-.22-.23-1.43Z"/><path class="cls-1" d="M50.3,133.22l-1.31.63c.21.44.42.87.64,1.3l1.29-.65Z"/><path class="cls-1" d="M154.16,175.36l.5,1.36,1.36-.51-.52-1.35Z"/><path class="cls-1" d="M169.49,167.84l.77,1.23,1.22-.78-.79-1.22Z"/><path class="cls-1" d="M171.89,166.29l.81,1.2,1.2-.82-.83-1.19Z"/><path class="cls-1" d="M174.23,164.66l.85,1.17,1.17-.86-.87-1.16Z"/><path class="cls-1" d="M176.51,162.94l.89,1.14,1.14-.9-.91-1.13Z"/><path class="cls-1" d="M159.44,173.21l.59,1.32,1.32-.6-.62-1.31Z"/><path class="cls-1" d="M162,172l.64,1.3,1.29-.65-.66-1.29Z"/><path class="cls-1" d="M164.56,170.7l.68,1.28,1.27-.69-.71-1.27Z"/><path class="cls-1" d="M167,169.32l.73,1.25,1.25-.74-.75-1.24Z"/><path class="cls-1" d="M49.11,130.63l-1.33.58c.19.44.39.88.59,1.32l1.32-.6Q49.39,131.28,49.11,130.63Z"/><path class="cls-1" d="M172.57,26.78l-1.22-.8-.79,1.22,1.19.79Z"/><path class="cls-1" d="M151.66,16.59l-1.39-.44-.42,1.39,1.37.43Z"/><path class="cls-1" d="M148.88,15.74l-1.4-.39-.38,1.4,1.38.38Z"/><path class="cls-1" d="M154.42,17.55,153,17.06l-.47,1.37,1.35.48Z"/><path class="cls-1" d="M143.24,14.33,141.81,14l-.28,1.42,1.4.29Z"/><path class="cls-1" d="M146.07,15l-1.42-.34-.33,1.41,1.39.34Z"/><path class="cls-1" d="M165.07,22.29l-1.29-.67-.66,1.29,1.27.66Z"/><path class="cls-1" d="M157.15,18.59l-1.36-.54-.52,1.35,1.33.53Z"/><path class="cls-1" d="M162.47,21l-1.32-.63-.61,1.31,1.29.62Z"/><path class="cls-1" d="M159.83,19.73l-1.34-.58-.57,1.33,1.32.57Z"/><path class="cls-1" d="M140.38,13.77l-1.43-.24L138.72,15l1.41.24Z"/><path class="cls-1" d="M123.05,13.93l0-1.45-1.45.05.07,1.45Z"/><path class="cls-1" d="M128.83,12.51l-1.45,0,0,1.45,1.43,0Z"/><polygon class="cls-1" points="125.4 13.89 125.91 13.9 125.92 12.45 125.4 12.45 124.47 12.45 124.48 13.9 125.4 13.89"/><path class="cls-1" d="M120.2,14.05l-.09-1.45-1.45.1.11,1.45Z"/><path class="cls-1" d="M131.73,12.68l-1.45-.1L130.2,14l1.43.09Z"/><path class="cls-1" d="M167.62,23.7,166.35,23l-.7,1.27,1.24.7Z"/><path class="cls-1" d="M137.51,13.3l-1.44-.19-.18,1.44,1.42.19Z"/><path class="cls-1" d="M117.35,14.28l-.14-1.44-1.45.15.16,1.44Z"/><path class="cls-1" d="M134.63,12.94l-1.45-.14L133,14.24l1.42.14Z"/><path class="cls-1" d="M192.34,47.62l1.16-.86-.87-1.16-1.15.88Z"/><path class="cls-1" d="M202.2,64.91l1.34-.56q-.28-.67-.57-1.33l-1.33.58Q201.92,64.25,202.2,64.91Z"/><path class="cls-1" d="M194,49.94l1.19-.83-.83-1.19-1.18.84Z"/><path class="cls-1" d="M190.6,45.35l1.13-.9-.91-1.13-1.12.92Z"/><path class="cls-1" d="M197.08,54.74l1.25-.74-.75-1.24-1.23.76Z"/><path class="cls-1" d="M188.78,43.15l1.1-.94-1-1.1-1.08,1Z"/><path class="cls-1" d="M201.05,62.31l1.32-.61q-.3-.66-.62-1.31l-1.31.63C200.65,61.45,200.85,61.88,201.05,62.31Z"/><path class="cls-1" d="M198.49,57.22l1.27-.7-.71-1.27-1.26.72Q198.15,56.59,198.49,57.22Z"/><path class="cls-1" d="M199.81,59.74l1.29-.65q-.33-.65-.66-1.29l-1.28.67Z"/><path class="cls-1" d="M179.55,32l-1.13-.92-.91,1.13,1.11.91Z"/><path class="cls-1" d="M175,28.44l-1.19-.84-.83,1.19,1.17.83Z"/><path class="cls-1" d="M177.29,30.18l-1.16-.88-.87,1.16,1.14.87Z"/><path class="cls-1" d="M170.12,25.2l-1.24-.76-.74,1.24,1.22.75Z"/><path class="cls-1" d="M195.58,52.31l1.22-.78L196,50.32l-1.21.8Z"/><path class="cls-1" d="M181.76,33.9l-1.09-1-.95,1.1,1.08.94Z"/><path class="cls-1" d="M186.89,41,188,40,187,39l-1.05,1Z"/><path class="cls-1" d="M186,37.92l-1-1-1,1,1,1Z"/><path class="cls-1" d="M183.9,35.88l-1.06-1-1,1.07,1,1Z"/><path class="cls-1" d="M77.63,28.95l-.83-1.19-1.18.84.85,1.17Z"/><path class="cls-1" d="M64.7,40.16l-1.05-1-1,1.07,1.07,1Z"/><path class="cls-1" d="M62.78,42.27l-1.09-1-.95,1.1,1.1.94Z"/><path class="cls-1" d="M66.69,38.11l-1-1-1,1,1,1Z"/><path class="cls-1" d="M60.93,44.45l-1.12-.92-.91,1.13,1.13.9Z"/><path class="cls-1" d="M68.75,36.13l-1-1.06-1.05,1,1,1Z"/><path class="cls-1" d="M73.07,32.39l-.91-1.13L71,32.18,72,33.29Z"/><path class="cls-1" d="M114.51,14.6l-.19-1.44-1.44.2.21,1.43Z"/><path class="cls-1" d="M70.88,34.22l-.95-1.1-1.09,1,1,1.08Z"/><path class="cls-1" d="M55.84,51.36l-1.21-.8q-.4.61-.79,1.22l1.22.78Z"/><path class="cls-1" d="M51.49,58.76l-1.29-.67q-.34.65-.66,1.3l1.3.65Z"/><path class="cls-1" d="M50.21,61.33,48.9,60.7c-.21.44-.42.88-.62,1.32l1.32.6Q49.9,62,50.21,61.33Z"/><path class="cls-1" d="M49,63.93l-1.33-.58q-.29.67-.57,1.34l1.34.56C48.64,64.81,48.82,64.37,49,63.93Z"/><path class="cls-1" d="M57.46,49l-1.18-.84-.83,1.19,1.2.82Z"/><path class="cls-1" d="M75.32,30.63l-.87-1.16-1.15.88.89,1.14Z"/><path class="cls-1" d="M54.3,53.78,53.07,53l-.75,1.25,1.25.74Z"/><path class="cls-1" d="M52.85,56.24l-1.26-.71-.71,1.27,1.27.69Z"/><path class="cls-1" d="M59.15,46.7,58,45.82,57.13,47l1.17.86Z"/><path class="cls-1" d="M111.68,15l-.24-1.43-1.43.25.26,1.43Z"/><path class="cls-1" d="M97.86,18.56l-.48-1.37L96,17.68l.5,1.36Z"/><path class="cls-1" d="M95.18,19.55l-.53-1.35-1.35.54.55,1.34Z"/><path class="cls-1" d="M106.08,16.15l-.33-1.41-1.41.35.36,1.4Z"/><path class="cls-1" d="M92.54,20.63,92,19.3l-1.33.58.6,1.32Z"/><path class="cls-1" d="M103.31,16.85l-.38-1.4-1.4.4.41,1.39Z"/><path class="cls-1" d="M108.87,15.53l-.29-1.42-1.42.3.31,1.42Z"/><path class="cls-1" d="M100.57,17.66l-.43-1.38-1.39.44.46,1.38Z"/><path class="cls-1" d="M82.41,25.83l-.75-1.24-1.23.76.77,1.23Z"/><path class="cls-1" d="M89.94,21.8l-.62-1.31L88,21.12l.64,1.3Z"/><path class="cls-1" d="M84.87,24.4l-.71-1.27-1.26.72.73,1.25Z"/><path class="cls-1" d="M80,27.35l-.79-1.21-1.21.8.81,1.2Z"/><path class="cls-1" d="M87.38,23.06l-.66-1.29-1.29.68.69,1.28Z"/><path class="cls-1" d="M250.8,66.21H217.12a96.64,96.64,0,0,0-183.45,0H0v61.93H34.06a96.61,96.61,0,0,0,182.69,0H250.8ZM125.4,4.35a91.88,91.88,0,0,1,87.15,61.85h-8.26l-.2-.5-1.26.5h-5.32v0h-2.4a76.29,76.29,0,0,0-139.42,0h-2.4v0H46.94L46.57,66l-.06.15H38.25A91.87,91.87,0,0,1,125.4,4.35Zm67.68,68.49H57.71a71.94,71.94,0,0,1,135.37,0ZM125.4,188.94a92.05,92.05,0,0,1-86.75-60.79h9l-1,.39q.27.68.55,1.34l1.34-.56c-.16-.39-.32-.78-.48-1.17h7.65a76.25,76.25,0,0,0,139.36,0h7.65l-.44,1.08,1.34.56q.28-.67.55-1.35l-.73-.29h8.7A92.05,92.05,0,0,1,125.4,188.94ZM58,122.34H192.76a71.92,71.92,0,0,1-134.73,0Zm188.42,1.45H196.86q.54-1.46,1-2.95l.93-2.85H52l.93,2.85q.49,1.49,1,2.95H4.35V70.56H53.93c-.46,1.25-.91,2.51-1.31,3.8l-.88,2.82H199.06l-.88-2.82c-.4-1.29-.85-2.55-1.31-3.8h49.58Z"/><polygon class="cls-1" points="103.86 151.26 101.33 150.17 102.51 147.44 104.52 148.31 105.09 146.98 103.08 146.11 104.2 143.52 106.73 144.61 107.31 143.28 103.31 141.56 99.3 150.87 103.29 152.59 103.86 151.26"/><path class="cls-1" d="M107.63,149.29c.72,1.19.85,1.81.63,2.51s-.6.84-1.09.69-.71-.5-.49-1.19l.22-.69-1.44-.46-.19.59c-.49,1.55,0,2.68,1.49,3.15s2.55-.16,3-1.71c.35-1.1.21-2-.71-3.56-.72-1.19-.85-1.81-.63-2.51s.58-.86,1.06-.71.68.51.46,1.2l-.13.4,1.44.46.1-.3c.49-1.55,0-2.67-1.46-3.15s-2.52.17-3,1.72C106.57,146.84,106.72,147.77,107.63,149.29Z"/><polygon class="cls-1" points="113.27 155.47 115.1 146.97 116.73 147.32 117.03 145.9 112.21 144.87 111.91 146.29 113.54 146.64 111.72 155.14 113.27 155.47"/><rect class="cls-1" x="115.19" y="154.4" width="1.54" height="1.54" transform="matrix(0.16, -0.99, 0.99, 0.16, -55.32, 245.65)"/><rect class="cls-1" x="121.52" y="150.06" width="1.45" height="2.9" transform="translate(-35.9 265.04) rotate(-86.78)"/><path class="cls-1" d="M129.14,148.81l.54,7.72,1.59-.11-.7-10.12-1.07.07a1.58,1.58,0,0,1-1.66,1.39l.08,1.13Z"/><path class="cls-1" d="M132.67,150.41c.26,1.47,1,2.18,2.14,2a1.47,1.47,0,0,0,1.27-1.12h0l.32,1.81c.17,1-.1,1.28-.66,1.38s-.86-.13-1-.84l-.06-.36-1.48.26,0,.26c.28,1.6,1.24,2.37,2.78,2.1s2.24-1.34,1.94-3l-.9-5.11a2.42,2.42,0,1,0-4.77.84Zm1.87-3.32c.5-.09.86.11,1,.83l.32,1.8c.13.71-.14,1-.64,1.13s-.86-.13-1-.84l-.32-1.8C133.77,147.49,134,147.18,134.54,147.09Z"/><path class="cls-1" d="M138.34,149.36c.41,1.43,1.21,2.06,2.34,1.74a1.47,1.47,0,0,0,1.15-1.25h0l.51,1.77c.27.93,0,1.29-.51,1.44s-.87,0-1.07-.73l-.1-.35-1.45.42.07.25c.45,1.56,1.48,2.23,3,1.8s2.08-1.56,1.61-3.21l-1.43-5a2.42,2.42,0,1,0-4.65,1.33Zm1.51-3.49c.49-.14.87,0,1.07.72l.5,1.76c.2.7,0,1-.52,1.19s-.87,0-1.07-.73l-.5-1.75C139.14,146.35,139.37,146,139.86,145.87Z"/><path class="cls-1" d="M145.21,150.88a2.42,2.42,0,1,0,4.49-1.81l-.7-1.72c-.56-1.38-1.42-1.93-2.51-1.49a1.47,1.47,0,0,0-1,1.36h0l-.69-1.71c-.36-.9-.17-1.28.35-1.49s.87-.05,1.14.62l.13.34,1.4-.56-.1-.24c-.61-1.5-1.71-2.06-3.16-1.47s-1.91,1.77-1.27,3.36Zm1.22-3.43c.47-.19.87-.05,1.14.62l.69,1.69c.27.67.07,1-.4,1.22s-.86.07-1.14-.6l-.68-1.69C145.77,148,146,147.64,146.43,147.45Z"/><polygon class="cls-1" points="91.25 47.89 90.43 46.52 85.79 49.32 86.61 50.68 88.18 49.74 93.11 57.93 94.62 57.02 89.68 48.83 91.25 47.89"/><path class="cls-1" d="M101.52,50.18c-.48-1.06-1.08-1.7-2-1.67v0A2.2,2.2,0,0,0,99.6,46l-.36-.8c-.71-1.57-1.77-2-3.42-1.27L93.41,45,98,55.14l1.6-.72-1.86-4.14.55-.25c.73-.33,1.2-.12,1.63.82l.72,1.6a3.4,3.4,0,0,0,.71,1.19l1.63-.73a3.28,3.28,0,0,1-.73-1.16Zm-3.83-1.63-.62.28L95.66,45.7l.77-.35c.57-.25,1,0,1.29.68l.45,1C98.53,47.85,98.29,48.28,97.69,48.55Z"/><path class="cls-1" d="M103,41.09l1.55,11.19,1.54-.47-.3-2,2.06-.63.88,1.85,1.69-.52-5-10.15Zm2.56,7.19-.86-5.64h0l2.44,5.15Z"/><path class="cls-1" d="M116.36,40.85c-.3-1.76-1.31-2.57-3-2.28l-2.74.47,1.88,11,2.74-.47c1.73-.3,2.41-1.4,2.11-3.16ZM114.9,48l-1,.17-1.34-7.86,1-.17c.55-.09.93.13,1.06.92l1,5.72C115.73,47.58,115.45,47.92,114.9,48Z"/><polygon class="cls-1" points="121.82 47.23 121.67 43.97 124.07 43.85 123.99 42.26 121.59 42.38 121.44 39.27 124.47 39.13 124.39 37.54 119.61 37.77 120.15 48.91 124.92 48.68 124.85 47.09 121.82 47.23"/><polygon class="cls-1" points="135.3 46.24 135.26 46.24 135.2 38.21 132.79 37.84 131.1 48.88 132.62 49.11 133.81 41.31 133.84 41.31 133.91 49.31 135.55 49.56 137.92 41.82 137.96 41.83 136.75 49.74 138.38 49.99 140.07 38.96 137.66 38.59 135.3 46.24"/><path class="cls-1" d="M140.32,50.47l1.54.47.88-1.85,2.06.63-.3,2,1.69.51,1.54-11.2-2.46-.75Zm5.54-7.92L145,48.2l-1.62-.49,2.43-5.16Z"/><path class="cls-1" d="M154.1,49.7c.86,0,1.5-.53,2-1.58l.36-.8c.7-1.57.34-2.66-1.32-3.4l-2.42-1.08L148.13,53l1.6.72,1.86-4.14.55.25c.73.33.89.82.47,1.76l-.72,1.6a3.45,3.45,0,0,0-.42,1.32l1.63.73a3.29,3.29,0,0,1,.38-1.31l.7-1.57c.48-1.06.55-1.94-.1-2.63Zm-1.24-1.29-.63-.28,1.4-3.13.77.35c.57.25.67.69.34,1.41l-.45,1C153.94,48.58,153.46,48.68,152.86,48.42Z"/><polygon class="cls-1" points="159.86 51.82 159.84 51.8 162.36 47.68 160.86 46.77 155.04 56.29 156.53 57.2 158.32 54.28 159.32 53.69 158.45 58.37 159.99 59.31 161.13 52.76 165.81 49.79 164.31 48.88 159.86 51.82"/><polygon class="cls-1" points="63.03 106.04 62.96 106.04 60.13 86.53 56.34 86.53 60.02 110.45 65.63 110.45 69.32 86.53 65.87 86.53 63.03 106.04"/><rect class="cls-1" x="79.6" y="86.53" width="3.76" height="23.92"/><polygon class="cls-1" points="103.18 100.85 103.11 100.85 99.31 86.53 94.6 86.53 94.6 110.45 97.98 110.45 97.98 93.13 98.05 93.13 102.66 110.45 106.52 110.45 106.52 86.53 103.18 86.53 103.18 100.85"/><polygon class="cls-1" points="116.67 89.95 120.6 89.95 120.6 110.45 124.36 110.45 124.36 89.95 128.29 89.95 128.29 86.53 116.67 86.53 116.67 89.95"/><path class="cls-1" d="M140,86.53l-3.83,23.92h3.45l.65-4.34h4.61l.65,4.34h3.79l-3.83-23.92Zm.75,16.33,1.78-12.09h.07l1.78,12.09Z"/><path class="cls-1" d="M164.88,86.26c-3.69,0-5.6,2.19-5.6,6v12.44c0,3.83,1.91,6,5.6,6s5.6-2.19,5.6-6V97.12h-5.26v3.42h1.71v4.41c0,1.71-.75,2.32-1.95,2.32s-1.95-.62-1.95-2.32V92c0-1.71.75-2.36,1.95-2.36s1.95.65,1.95,2.36V94.6h3.55V92.27C170.48,88.45,168.57,86.26,164.88,86.26Z"/><polygon class="cls-1" points="181.45 110.45 191.7 110.45 191.7 107.03 185.21 107.03 185.21 100.03 190.37 100.03 190.37 96.61 185.21 96.61 185.21 89.95 191.7 89.95 191.7 86.53 181.45 86.53 181.45 110.45"/><polygon class="cls-1" points="216.28 105.96 222.33 102.78 228.39 105.96 227.23 99.22 232.13 94.45 225.36 93.46 222.33 87.33 219.31 93.46 212.54 94.45 217.44 99.22 216.28 105.96"/><polygon class="cls-1" points="32.58 93.46 29.55 87.33 26.53 93.46 19.76 94.45 24.66 99.22 23.5 105.96 29.55 102.78 35.61 105.96 34.45 99.22 39.35 94.45 32.58 93.46"/></g></g></svg>