<svg xmlns="http://www.w3.org/2000/svg" viewBox="0 0 263.4 216.23"><defs><style>.cls-1{fill:#444;}</style></defs><title>Asset 9</title><g id="Layer_2" data-name="Layer 2"><g id="Ebene_1" data-name="Ebene 1"><path class="cls-1" d="M113.74,199.2l1.35.26-.17.89-1.35-.26-.36,1.83,1.69.33-.17.89-2.67-.52,1.22-6.24,2.67.52-.17.89-1.69-.33Z"/><path class="cls-1" d="M119.54,197.37a1.38,1.38,0,0,1,1.24,1.78l0,.2-.94-.13,0-.26c.06-.45-.1-.65-.41-.69s-.52.1-.58.55.09.83.66,1.48a2.47,2.47,0,0,1,.82,2.12,1.49,1.49,0,1,1-3-.4l.05-.39.94.13-.06.45c-.06.45.12.64.43.68s.53-.09.6-.54-.09-.83-.66-1.48a2.47,2.47,0,0,1-.82-2.12C118,197.75,118.58,197.24,119.54,197.37Z"/><path class="cls-1" d="M123,197.87l3.08.24-.07.9-1-.08-.43,5.43-1-.08.43-5.43-1-.08Z"/><path class="cls-1" d="M131.91,199.08a1,1,0,0,0,1.09-.82h.67l.11,6.36-1,0-.08-4.85h-.77Z"/><path class="cls-1" d="M139.79,202.72c.07,1.07-.38,1.68-1.41,1.75s-1.53-.48-1.6-1.49v-.16l.94-.07,0,.23c0,.45.24.61.56.59s.54-.21.5-.82l-.08-1.15h0a.92.92,0,0,1-.87.62c-.73.05-1.14-.44-1.21-1.37l-.08-1.16a1.52,1.52,0,1,1,3-.21Zm-1.15-2.1-.08-1.14c0-.45-.24-.6-.56-.58s-.5.2-.47.65l.08,1.14c0,.45.24.61.56.59S138.68,201.07,138.65,200.62Z"/><path class="cls-1" d="M144.06,203.91a1.43,1.43,0,0,1-1.75-1.39l-.06-.5a1.38,1.38,0,0,1,.44-1.38v0a1.3,1.3,0,0,1-.77-1.18l0-.2a1.56,1.56,0,1,1,3.1-.4l0,.2a1.32,1.32,0,0,1-.45,1.34v0a1.38,1.38,0,0,1,.78,1.23l.06.5A1.43,1.43,0,0,1,144.06,203.91Zm-1.13-4.4c.07.5.32.64.64.59s.54-.23.47-.74l0-.35c-.07-.57-.34-.69-.65-.65s-.54.22-.46.79Zm1,3.5c.32,0,.53-.22.47-.78l-.08-.58c-.06-.5-.3-.68-.65-.64s-.53.29-.47.78l.08.58C143.37,202.93,143.63,203,143.95,203Z"/><path class="cls-1" d="M147.23,198.48a1.52,1.52,0,1,1,3-.57l.62,3.25a1.52,1.52,0,1,1-3,.57Zm1.61,3.13c.08.45.31.58.63.52s.48-.27.39-.71l-.64-3.37c-.08-.45-.31-.58-.63-.52s-.48.27-.39.71Z"/><path class="cls-1" d="M112.74,15.25h0l.9,4.52-.85.17-1.24-6.24,1.18-.24L114.41,17h0l-.74-3.73.84-.17,1.24,6.24-1,.19Z"/><path class="cls-1" d="M118.54,15.19l1.31-.18.13.9-1.31.18.26,1.84,1.65-.23.13.9-2.6.36-.88-6.29,2.6-.36.13.9-1.65.23Z"/><path class="cls-1" d="M124.8,14.8h0l-.09,3.4-1.32.1L122.22,12l.93-.07.88,5h0l.08-5,.93-.07.84,5h0l.12-5.07.84-.06-.21,6.38-1.27.1Z"/><path class="cls-1" d="M133.5,15.84l-1.11-4.28,1,0L134,14.5h0l.8-2.88.92,0-1.32,4.22L134.41,18l-1,0Z"/><path class="cls-1" d="M137.82,13.29c.08-1,.64-1.55,1.59-1.48a1.39,1.39,0,0,1,1.33,1.71l-.27,3.29c-.08,1-.64,1.55-1.59,1.47a1.39,1.39,0,0,1-1.33-1.71Zm.69,3.43c0,.45.14.64.45.66s.51-.13.55-.58l.28-3.42c0-.45-.14-.64-.45-.66s-.51.13-.55.58Z"/><path class="cls-1" d="M144.63,18.87a2,2,0,0,1,0-.79l.14-1c.08-.58-.08-.83-.51-.89l-.33,0-.36,2.56-1-.13.88-6.29,1.44.2a1.26,1.26,0,0,1,1.21,1.64l-.07.49a1.26,1.26,0,0,1-.8,1.18v0c.45.27.54.76.45,1.42l-.13,1a1.94,1.94,0,0,0,0,.78Zm-.29-5.54-.27,1.93.37.05c.36,0,.59-.08.67-.59l.09-.62c.06-.45-.06-.67-.4-.71Z"/><path class="cls-1" d="M149.46,17.12l-.4.51-.38,1.92-.94-.19L149,13.13l.94.19-.54,2.7h0l1.75-2.46.94.19-1.86,2.52.63,3.72-1-.19Z"/><path class="cls-1" d="M259.68,74.25H234.36A108.1,108.1,0,0,0,29,74.25H0V142H29a108.1,108.1,0,0,0,205.33,0h29V74.25ZM3.71,78H41a95.45,95.45,0,0,0,0,60.26H3.71Zm128,134a104,104,0,0,1-98.18-70h8.82a96,96,0,0,0,62.52,57.86v-3.93A92.25,92.25,0,0,1,46.38,142q-.74-1.85-1.4-3.73A91.73,91.73,0,0,1,45,78q.66-1.89,1.4-3.73a92.25,92.25,0,0,1,58.48-53.94V16.39A96,96,0,0,0,42.34,74.25H33.52a103.85,103.85,0,0,1,196.35,0h-8.82a96,96,0,0,0-62.52-57.86v3.93A92.25,92.25,0,0,1,217,74.25q.74,1.85,1.4,3.73a91.72,91.72,0,0,1,0,60.26q-.66,1.89-1.4,3.73a92.25,92.25,0,0,1-58.48,53.94v3.93A96,96,0,0,0,221.06,142h8.82A104,104,0,0,1,131.7,212Zm128-73.73h-37.3a95.45,95.45,0,0,0,0-60.26h37.3Z"/><rect class="cls-1" x="9.73" y="85.54" width="2.26" height="45.15"/><rect class="cls-1" x="18.93" y="85.54" width="2.26" height="45.15"/><rect class="cls-1" x="28.13" y="85.54" width="2.26" height="45.15"/><rect class="cls-1" x="232.88" y="85.54" width="2.26" height="45.15"/><rect class="cls-1" x="242.08" y="85.54" width="2.26" height="45.15"/><rect class="cls-1" x="251.28" y="85.54" width="2.26" height="45.15"/><path class="cls-1" d="M81.42,137.47c-.44-1.61-.73-2.59-.73-7.68V120c0-5.81-1.61-8-5.27-8H72.63v25.47H64.57V74.92H76.73c8.35,0,11.94,4.74,11.94,14.39v4.91c0,6.43-1.68,10.54-5.27,12.6V107c4,2.06,5.35,6.7,5.35,13.22v9.65a22.17,22.17,0,0,0,.88,7.6ZM72.63,83.86v19.21h3.15c3,0,4.83-1.61,4.83-6.61V90.29c0-4.47-1.25-6.43-4.1-6.43Z"/><path class="cls-1" d="M102.8,101.28h11.06v8.94H102.8v18.32h13.92v8.94h-22V74.92h22v8.94H102.8Z"/><path class="cls-1" d="M120.09,74.92H145v8.94h-8.42v53.61h-8.06V83.86h-8.42Z"/><path class="cls-1" d="M166.09,137.47c-.44-1.61-.73-2.59-.73-7.68V120c0-5.81-1.61-8-5.27-8H157.3v25.47h-8.06V74.92H161.4c8.35,0,11.94,4.74,11.94,14.39v4.91c0,6.43-1.68,10.54-5.27,12.6V107c4,2.06,5.35,6.7,5.35,13.22v9.65a22.17,22.17,0,0,0,.88,7.6ZM157.3,83.86v19.21h3.15c3,0,4.83-1.61,4.83-6.61V90.29c0-4.47-1.25-6.43-4.1-6.43Z"/><path class="cls-1" d="M178.76,89.93c0-10,4.32-15.73,12.23-15.73s12.23,5.72,12.23,15.73v32.53c0,10-4.32,15.73-12.23,15.73s-12.23-5.72-12.23-15.73Zm8.06,33.15c0,4.47,1.61,6.17,4.17,6.17s4.17-1.7,4.17-6.17V89.31c0-4.47-1.61-6.17-4.17-6.17s-4.17,1.7-4.17,6.17Z"/><path class="cls-1" d="M83.49,159.39h-1.4v-8.91h1.4v3.82h1.59v-3.82h1.42v8.91H85.08v-3.82H83.49Z"/><path class="cls-1" d="M93.33,159.39H91.92l-.24-1.62H90l-.24,1.62H88.43l1.43-8.91h2Zm-3.19-2.83h1.35l-.66-4.5h0Z"/><path class="cls-1" d="M96.53,152.94h0v6.45H95.24v-8.91H97l1.41,5.33h0v-5.33h1.25v8.91H98.25Z"/><path class="cls-1" d="M102,150.48h2.21c1.4,0,2.09.78,2.09,2.2v4.5c0,1.42-.69,2.2-2.09,2.2H102Zm1.4,1.27v6.36h.79c.45,0,.71-.23.71-.87v-4.63c0-.64-.27-.87-.71-.87Z"/><path class="cls-1" d="M112.49,156.07v1.18c0,1.42-.71,2.24-2.09,2.24s-2.09-.81-2.09-2.24v-4.63c0-1.42.71-2.24,2.09-2.24s2.09.81,2.09,2.24v.87h-1.32v-1c0-.64-.28-.88-.73-.88s-.73.24-.73.88v4.81c0,.64.28.87.73.87s.73-.23.73-.87v-1.27Z"/><path class="cls-1" d="M117.54,159.39a2.75,2.75,0,0,1-.13-1.09v-1.4c0-.83-.28-1.13-.92-1.13H116v3.63h-1.4v-8.91h2.11c1.45,0,2.08.67,2.08,2v.7a1.76,1.76,0,0,1-.92,1.79v0c.7.29.93,1,.93,1.88v1.37a2.63,2.63,0,0,0,.15,1.08ZM116,151.76v2.74h.55c.52,0,.84-.23.84-.94v-.88c0-.64-.22-.92-.71-.92Z"/><path class="cls-1" d="M125.54,159.39h-1.41l-.24-1.62h-1.72l-.24,1.62h-1.29l1.43-8.91h2Zm-3.19-2.83h1.35l-.66-4.5h0Z"/><path class="cls-1" d="M128.86,154.44h1.81v1.27h-1.81v3.68h-1.4v-8.91h3.7v1.27h-2.3Z"/><path class="cls-1" d="M132.71,150.48H137v1.27h-1.46v7.64h-1.4v-7.64h-1.46Z"/><path class="cls-1" d="M140.32,154.24h1.92v1.27h-1.92v2.61h2.42v1.27h-3.82v-8.91h3.82v1.27h-2.42Z"/><path class="cls-1" d="M144.88,150.48h2.21c1.4,0,2.09.78,2.09,2.2v4.5c0,1.42-.69,2.2-2.09,2.2h-2.21Zm1.4,1.27v6.36h.79c.45,0,.71-.23.71-.87v-4.63c0-.64-.27-.87-.71-.87Z"/><path class="cls-1" d="M156.48,150.38c1.36,0,2.06.81,2.06,2.24v.28h-1.32v-.37c0-.64-.25-.88-.7-.88s-.7.24-.7.88.28,1.13,1.2,1.93a3.45,3.45,0,0,1,1.54,2.79c0,1.42-.71,2.24-2.09,2.24s-2.09-.81-2.09-2.24v-.55h1.32v.64c0,.64.28.87.73.87s.73-.23.73-.87-.28-1.13-1.2-1.93a3.45,3.45,0,0,1-1.54-2.79C154.42,151.2,155.12,150.38,156.48,150.38Z"/><path class="cls-1" d="M160.22,150.48h4.33v1.27h-1.46v7.64h-1.4v-7.64h-1.46Z"/><path class="cls-1" d="M167.74,156.44l-1.77-6h1.46l1.06,4.06h0l1.06-4.06h1.34l-1.77,6v3h-1.4Z"/><path class="cls-1" d="M172.75,150.48h1.4v7.64h2.3v1.27h-3.7Z"/><path class="cls-1" d="M179.74,154.24h1.92v1.27h-1.92v2.61h2.42v1.27h-3.82v-8.91h3.82v1.27h-2.42Z"/><polygon class="cls-1" points="131.7 31.88 133.91 36.37 138.87 37.09 135.28 40.59 136.13 45.52 131.7 43.19 127.27 45.52 128.11 40.59 124.53 37.09 129.48 36.37 131.7 31.88"/><polygon class="cls-1" points="151.51 34.04 153.03 37.11 156.42 37.6 153.97 39.99 154.54 43.37 151.51 41.77 148.48 43.37 149.06 39.99 146.61 37.6 150 37.11 151.51 34.04"/><polygon class="cls-1" points="111.89 34.04 113.4 37.11 116.79 37.6 114.34 39.99 114.92 43.37 111.89 41.77 108.85 43.37 109.43 39.99 106.98 37.6 110.37 37.11 111.89 34.04"/><polygon class="cls-1" points="131.7 170.53 133.91 175.03 138.87 175.75 135.28 179.24 136.13 184.18 131.7 181.85 127.27 184.18 128.11 179.24 124.53 175.75 129.48 175.03 131.7 170.53"/><polygon class="cls-1" points="151.51 172.69 153.03 175.76 156.42 176.26 153.97 178.65 154.54 182.02 151.51 180.43 148.48 182.02 149.06 178.65 146.61 176.26 150 175.76 151.51 172.69"/><polygon class="cls-1" points="111.89 172.69 113.4 175.76 116.79 176.26 114.34 178.65 114.92 182.02 111.89 180.43 108.85 182.02 109.43 178.65 106.98 176.26 110.37 175.76 111.89 172.69"/><rect class="cls-1" x="103.72" y="56.31" width="55.96" height="1.4"/></g></g></svg>