<svg width="259" height="43" viewBox="0 0 259 43" fill="none" xmlns="http://www.w3.org/2000/svg"><path d="M6.112 26.467c0 .98.167 1.816.502 2.51.334.693.8 1.266 1.398 1.72.597.43 1.279.754 2.043.969.79.19 1.638.287 2.546.287.98 0 1.817-.108 2.51-.323.693-.24 1.255-.538 1.685-.897.43-.358.74-.764.932-1.219a3.84 3.84 0 0 0 .287-1.434c0-.98-.227-1.697-.681-2.15-.43-.479-.909-.814-1.434-1.005a27.582 27.582 0 0 0-3.191-.932c-1.195-.31-2.677-.705-4.446-1.183-1.1-.287-2.02-.657-2.76-1.112-.718-.478-1.292-1.003-1.722-1.577a5.765 5.765 0 0 1-.932-1.829 7.826 7.826 0 0 1-.251-1.972c0-1.29.263-2.402.789-3.334a7.3 7.3 0 0 1 2.151-2.366A9.102 9.102 0 0 1 8.55 9.257a12.721 12.721 0 0 1 3.406-.466c1.338 0 2.593.18 3.764.538 1.196.335 2.235.848 3.12 1.542a7.503 7.503 0 0 1 2.15 2.581c.527 1.004.79 2.175.79 3.514h-4.482c-.12-1.65-.681-2.809-1.685-3.478-1.004-.693-2.283-1.04-3.836-1.04a7.56 7.56 0 0 0-1.614.18 4.527 4.527 0 0 0-1.506.537A3.295 3.295 0 0 0 7.51 14.17c-.287.43-.43.968-.43 1.614 0 .908.275 1.625.824 2.15.574.503 1.315.885 2.223 1.148.096.024.466.131 1.112.323a168.142 168.142 0 0 1 4.589 1.219c.789.191 1.35.334 1.685.43.837.263 1.566.621 2.187 1.076.622.454 1.135.98 1.542 1.577.43.574.74 1.195.932 1.864a6.53 6.53 0 0 1 .323 2.008c0 1.434-.3 2.665-.897 3.693a7.337 7.337 0 0 1-2.294 2.474c-.956.646-2.044 1.112-3.263 1.398a15.025 15.025 0 0 1-3.729.466c-1.458 0-2.832-.179-4.123-.537-1.29-.359-2.414-.909-3.37-1.65-.956-.74-1.721-1.685-2.295-2.832-.573-1.171-.872-2.546-.896-4.123h4.482ZM23.91 9.4h4.553l4.625 19.576h.072L38.324 9.4h4.589l5.02 19.576h.071L52.773 9.4h4.553L50.263 35H45.71l-5.127-19.576h-.072L35.276 35h-4.625l-6.74-25.6Zm78.066 0h11.294c1.817 0 3.299.264 4.446.79 1.147.525 2.032 1.183 2.653 1.971a6.485 6.485 0 0 1 1.255 2.582c.239.932.359 1.792.359 2.581 0 .789-.12 1.65-.359 2.582a6.496 6.496 0 0 1-1.255 2.545c-.621.79-1.506 1.446-2.653 1.972-1.147.502-2.629.753-4.446.753h-6.812V35h-4.482V9.4Zm4.482 12.12h6.561c.502 0 1.016-.073 1.542-.216a4.403 4.403 0 0 0 1.434-.681 3.546 3.546 0 0 0 1.076-1.291c.286-.55.43-1.23.43-2.044 0-.836-.12-1.53-.359-2.08-.239-.549-.561-.98-.968-1.29a3.324 3.324 0 0 0-1.398-.681 7.595 7.595 0 0 0-1.685-.18h-6.633v8.462ZM133.431 9.4h20.723v3.873h-8.138V35h-4.482V13.273h-8.103V9.4Zm23.691 0h4.482V35h-4.482V9.4Zm27.26 8.14a9.05 9.05 0 0 0-.789-2.044 5.637 5.637 0 0 0-1.29-1.614 5.46 5.46 0 0 0-1.865-1.04c-.693-.262-1.506-.394-2.438-.394-1.362 0-2.545.275-3.549.825a6.904 6.904 0 0 0-2.402 2.223c-.622.908-1.088 1.948-1.399 3.119a15.009 15.009 0 0 0-.43 3.585c0 1.22.143 2.414.43 3.586a10.484 10.484 0 0 0 1.399 3.155 7.036 7.036 0 0 0 2.402 2.187c1.004.55 2.187.825 3.549.825 1.004 0 1.889-.168 2.653-.502a6.246 6.246 0 0 0 1.972-1.435 6.97 6.97 0 0 0 1.291-2.15 10.22 10.22 0 0 0 .61-2.618h4.374c-.096 1.53-.431 2.928-1.004 4.195a10.264 10.264 0 0 1-2.259 3.298 10.202 10.202 0 0 1-3.37 2.116c-1.291.502-2.713.752-4.267.752-1.912 0-3.633-.346-5.163-1.04a11.581 11.581 0 0 1-3.836-2.903c-1.052-1.22-1.864-2.642-2.438-4.267-.55-1.625-.825-3.358-.825-5.199 0-1.816.275-3.537.825-5.163.574-1.625 1.386-3.047 2.438-4.266a11.58 11.58 0 0 1 3.836-2.904c1.53-.717 3.251-1.076 5.163-1.076 1.434 0 2.785.203 4.052.61 1.267.382 2.378.956 3.334 1.72a8.63 8.63 0 0 1 2.366 2.725c.598 1.076.968 2.307 1.112 3.693h-4.482Zm8.594-8.14h4.481v11.653l11.402-11.652h5.521l-10.218 10.218L215.097 35h-5.593l-8.39-12.226-3.657 3.621V35h-4.481V9.4Zm24.544 0h18.428v3.873h-13.947v6.704h12.908v3.657h-12.908v7.494h14.198V35H217.52V9.4Zm20.145 0h20.724v3.873h-8.139V35h-4.482V13.273h-8.103V9.4Z" fill="#005CBF"/><path fill-rule="evenodd" clip-rule="evenodd" d="M61.748 13.406c0-2.2 1.784-3.984 3.984-3.984h6.348v9.488l-2.766-2.714a1.054 1.054 0 1 0-1.477 1.505l5.307 5.207 5.307-5.207a1.054 1.054 0 1 0-1.477-1.505l-2.766 2.714V9.422h13.355c2.2 0 3.983 1.783 3.983 3.984v6.456h-.002a2.128 2.128 0 0 0-2.128 2.129V24c0 1.175.953 2.128 2.129 2.128h.001v5.417c0 2.2-1.783 3.984-3.983 3.984h-5.906v-8.534l2.767 2.714a1.054 1.054 0 1 0 1.476-1.505l-5.307-5.207-5.307 5.207a1.054 1.054 0 1 0 1.477 1.505l2.766-2.714v8.534H65.732a3.984 3.984 0 0 1-3.984-3.984v-5.417A2.128 2.128 0 0 0 63.876 24v-2.01a2.128 2.128 0 0 0-2.128-2.128v-6.456Z" fill="#005CBF"/></svg>