<svg version="1.1" id="Layer_1" xmlns="http://www.w3.org/2000/svg" x="0" y="0" viewBox="0 0 93.5 357.2" xml:space="preserve"><style>.st0{fill:#f5b88a}.st0,.st1,.st3,.st6{fill-rule:evenodd;clip-rule:evenodd}.st1{fill:#152d37}.st3{fill:#546d71}.st6{fill:#061f28}.st12{opacity:.2;fill:#c6826c}.st13{fill:#cd9467}.st14{fill:#925d51}.st17{fill:#bc967e}.st18{fill:#6b4c3d}.st19{fill:#7f5f4f}.st21{fill:#966d4a}</style><path class="st0" d="M24.9 337.7l1.9-10.1 12.6 1.7-1.6 9.5s-2.2 4.3-8.2 4.4c-6.2 0-4.7-5.5-4.7-5.5z"/><path class="st1" d="M35.1 339.4c-4.5-4.3-8.6-.7-8.6-.7l-1.7-1c-2.5 3.8-7.3 8.2-7.9 10.4-1.2 4.2.9 9 7.6 9 6.6 0 12.9-4 13.6-7.3.4-2-.3-7.3-.5-11.2l-2.5.8z"/><path class="st0" d="M85.3 337.7l-1.9-10.1-11.6 1.7.6 9.5s2.2 4.3 8.2 4.4c6.1 0 4.7-5.5 4.7-5.5z"/><path class="st1" d="M75 339.4c4.5-4.3 8.6-.7 8.6-.7l1.7-1c2.5 3.8 7.3 8.2 7.9 10.4 1.2 4.2-.9 9-7.6 9-6.6 0-12.9-4-13.6-7.3-.4-2 .3-7.3.5-11.2l2.5.8z"/><path d="M86.5 255.6l-2.6-15.4c-.1-6.1-.7-13.1-1.8-20.4-1.4-8.7-5.5-34.4-5.5-34.4.1-1.2-2.2-16.4-4.1-18.2l-3.1-.7-7.9-3.4-30.9-9.3-.1-.1v.1l-6.4 9.6.3 1.7c-7.5.1-20.4 17.7-10.1 50.7 2.8 8.9 3.3 16.1 3.5 25.5l.2 9.7 8.3 81.6s3.6 3.2 12.8.3l4.4-80.6v-2.6c1.6-6.7 2.7-14.9 3.1-23.8.4-7.1-.8-13.8-1.3-19.7l3.2.1.7 2.9c.3 4.5.8 9.4 1.6 14.5 2.2 13.7 5.8 25.6 9.6 32.4l.7 3.1 11 73.8s2.7 2.2 11.6-1.5l2.8-75.9z" fill-rule="evenodd" clip-rule="evenodd" fill="#5e787c"/><path class="st3" d="M44.6 205.8l-4.4-9c.5 5.9 2.9 21.5 2.6 28.6-.4 9-1.6 17.2-3.1 23.8v2.6l-5.4 80.6c-1.8.6-3.3.9-4.6 1 1.8.3 5.6.2 9.6-1l4.4-80.6v-2.6c1.6-6.7 2.7-14.9 3.1-23.8.2-3.3.2-6.4.2-9.5-.3-2.5-.6-7.4-.7-9.7l-1.7-.4zm41.9 49.3l-2.6-15.4c-.1-6.1-.7-13.1-1.8-20.4-1.4-8.7-5.5-34.4-5.5-34.4.1-1.2-2.2-16.4-4.1-18.2l-.1-.7-10.9-3.4-30.9-9.3-.1-.1v.1l-.7 1 27.7 8.3 7.9 3.4.1.7c1.9 1.8 7.2 17 7.1 18.2 0 0 4.1 25.7 5.5 34.4 1.2 7.4 1.8 14.4 1.8 20.4l2.6 15.4-2.8 75.9c-2.7 1.1-4.8 1.7-6.4 1.9 1.5.4 4.7.4 10.4-1.9l2.8-75.9z"/><path d="M46.8 67h-5.9c-3.9 0-7-3.1-7-7V45.7h19.9V60c-.1 3.9-3.2 7-7 7z" fill-rule="evenodd" clip-rule="evenodd" fill="#eeb989"/><path d="M44.8 57.5c-2.2.6-3 .4-5.7-1.2-1.8-1.1-3.6-2.3-5.1-3.5-.1 0-.1-.1-.2-.1v3c.1 0 .1.1.2.1 1.5 1.2 3.3 2.4 5.1 3.5 2.6 1.6 3.5 1.8 5.7 1.2 1.7-.4 2.8-1.2 4.1-2.1 2.2-1.6 3.5-3.6 4.9-5v-1.6c-1.4 1.3-2.6 2-4.9 3.6-1.2.9-2.4 1.7-4.1 2.1z" opacity=".2" fill-rule="evenodd" clip-rule="evenodd" fill="#c6826c"/><path class="st3" d="M22.8 166.1s2 9.4 2.8 11.1c.8 1.7 3.8 5.7 4.9 7.2 1.1 1.6 1.9 2.6 2.1 4.1.2 1.4.4 4.6.7 5.9.3 1.2.6 2.3.4 2.4-.2.2-1.1.5-1.7-.3-.5-.9-1-2.4-1.4-3.6-.3-1.1-.7-2-.8-1.8-.1.2.7 3.7.7 4.3.1.7.7 2.7 1.1 3.3.4.6 3.2 2.3 3.1 2.9 0 .6-.7.6-1.5.5-.7-.1-1.7-.5-2.2-.7-.5-.2-.9-.5-.9-.5s-.9.4-1.5.5c-.6 0-1.6-.7-1.6-.7s-.3.4-1 .5c-.7.1-1.9-1-2.3-1.7 0 0-1.2-.1-1.7-.7-.4-.6-1.6-3.5-1.9-4.3-.4-.8-.4-6.8-.5-10-.2-3.3-3.7-15.7-3.7-15.7l6.9-2.7z"/><path class="st1" d="M71.4 150.7c1.1 9.5 4.8 16.1 2.1 16.9l-5.7.8c-15.3 4.6-32.5 4.6-47.8 0l-2.7-.8c-1.4-1.2-2.8-7.4-1.7-16.9 1.1-10.5.7-21.1-1.5-31.3-6-28.6-9.9-44.2-9.4-45.5 1.2-3.3 15.3-9.8 22-12.8l3.5-1.5c5.9 5.3 20.5 5.3 26.4 0 0 0 1.2.5 3.2 1.4 6.5 2.9 21.1 9.5 22.3 12.9.5 1.3-6.2 16.9-12.2 45.5-2.2 10.3.3 20.9 1.5 31.3z"/><path class="st6" d="M82.3 86.3c-3.3 6.9-9.4 20.2-14 39.8-2.4 10.2-3.1 20.8-2.2 31.3.4 4.3 1.7 8 2.8 10.9 1.3-.3 2.5-.6 3.8-1l2.7-.8c2.7-.8-3-7.4-4.1-16.9-1.1-10.5-.7-21.1 1.5-31.3 2.8-13.7 6.5-24.4 9.5-32z"/><path class="st0" d="M21.3 166.1s2 9.4 2.8 11.1c.8 1.7 3.8 5.7 4.9 7.2 1.1 1.6 1.9 2.6 2.1 4.1.2 1.4.4 4.6.7 5.9.3 1.2.6 2.3.4 2.4-.2.2-1.1.5-1.7-.3-.5-.9-1-2.4-1.4-3.6-.3-1.1-.7-2-.8-1.8-.1.2.7 3.7.7 4.3.1.7.7 2.7 1.1 3.3.4.6 3.2 2.3 3.1 2.9 0 .6-.7.6-1.5.5-.7-.1-1.7-.5-2.2-.7-.5-.2-.9-.5-.9-.5s-.9.4-1.5.5c-.6 0-1.6-.7-1.6-.7s-.3.4-1 .5c-.7.1-1.9-1-2.3-1.7 0 0-1.2-.1-1.7-.7-.4-.6-1.6-3.5-1.9-4.3-.4-.8-.4-6.8-.5-10-.2-3.3-3.7-15.7-3.7-15.7l6.9-2.7z"/><path class="st0" d="M17.8 83.8s1.2 17.6-2.5 34.5c.1 1.8.6 10.7 2.2 21.5 1.7 17.3 4.3 28.7 4.3 28.7l-6.6 2.1s-4.4-14.2-8.5-27.7C3.2 131.4 0 120.4 0 119.1c0-2.9 1.4-29.4 3.4-41.5l14.4 6.2z"/><path class="st1" d="M18.5 107.3s2.8-10.3 3.9-22.7c.3-.9.5-1.8.6-2.7.4-5.9-4.1-11-10.1-11.4-4.9-.3-7.9 1.4-9.5 5.8C.2 85 1.4 89.4.5 106.7c0 0 6 2.1 17.7 1.7l.3-1.1z"/><path class="st6" d="M45.4 66H43c-5.7 0-10.3-4.3-10.3-9.6v4.1c0 5.3 4.6 9.6 10.3 9.6h2.5c5.7 0 10.3-4.3 10.3-9.6v-4.1c-.1 5.3-4.7 9.6-10.4 9.6z"/><path d="M59.6 96.4c-.6.6-1.6.6-2.2 0l-5.7-5.7c-.6-.6-.6-1.6 0-2.2.6-.6 1.6-.6 2.2 0l5.7 5.7c.6.7.6 1.6 0 2.2z" fill="#6ec27b"/><path d="M65.4 96.4c-.6.6-1.6.6-2.2 0l-5.7-5.7c-.6-.6-.6-1.6 0-2.2.6-.6 1.6-.6 2.2 0l5.5 5.6c.6.7.8 1.7.2 2.3z" fill="#4e5eab"/><path d="M64.3 96.9c-.9 0-1.5-.7-1.5-1.5v-5.7c0-.9.7-1.5 1.5-1.5.9 0 1.5.7 1.5 1.5v5.7c0 .8-.7 1.5-1.5 1.5z" fill="#facc27"/><path d="M31.4 14.9l-1.9 5.2-.3 12.2 4.2 11.3c1.9 6.9-1.4 10 3.2 15.8 2.4 3.1 3.3 5 3.9 10.4-1.5-4.4-1.8-5.2-4.4-9 3.5 9.3 6.8 18.1 3.5 28.1.9-6.6 1.5-11.1-.8-17.5.9 5.6 1 6.9.3 12.6-.3-5.5.4-6.4-2.1-11.1 0 4.2.2 6.3 1.3 10.3-1.8-3.9-2.8-5.8-3.6-10.1.3 9.9.4 10.4 8.3 17.4-7-4.7-8.9-7.1-12.3-15.1.6 6.5 1.8 10.5 6.2 16.4-4.6-5.3-5.3-5.7-7.9-12.2l-.6-1.5C27.3 87 27 88.3 32 92.8c-4.5-2.4-3.6-2.2-5.8-6.8.8 6 1.7 11-4.2 14.8 4.9-8 4.2-13.5-.9-21.6-.9 6.2-1.1 5.3-5.1 10.2 3-5.5 3.1-5.9 4.1-12-3.5 3.9-4.6 4.6-8.9 7.5 3-3.6 7.4-6.5 5.7-10.9-1-2.6-2.4-4.2-3.4-7.6-2-7.1-1.3-16 1.6-22.3 1.6-3.5 2.8-6.5 3.8-10.8C21.1 24 24.3 10 29.3 5.8 36 .1 40.6-.9 46.7.7c19 5 20.9 23.1 19.2 40.1-.6 5.8-1.4 11.8-.6 16.1 1 6.1 3.8 7.7 7 16.2-2.1-3.8-4.4-7.6-6.9-11.2 2.9 7.4 3.7 9.3 4.6 17.2-1.7-6.5-2.7-9.6-5.5-15.7.1 4.7.4 4.3 2.6 8.4-1.6-1.8-2.7-3.1-4-5.1 1.6 5.6 3 7.5 6.5 11.9-3.8-3.5-5.2-4.9-8-8.9 1.5 7.3 3.2 13.5-4.3 18.3-3.8 2.4-5.6 1.8-11 0 4.3.6 4.7.7 9-.1-5.5-.2-5.8.5-10.7-2.2 4.3.7 6.3 1 10.6.8l-8.3-1.7c7-.4 6.1-3.1 7.5-9.8-2.2 5.4-1.2 6.2-6.5 8.6-1-9.8-.5-12.3 3.4-21.3 2.4-5.5 1.6-8.6 3.5-15.2l3-22.4L55 13.1 41.5 9.2l-10.1 5.7z" fill="#a37f67"/><path d="M28.4 38.3c.3 6.1 1 11.3 5.6 15 1.5 1.2 3.3 2.4 5.1 3.5 2.6 1.6 3.5 1.8 5.7 1.2 1.7-.4 2.8-1.2 4.1-2.1 2.6-1.9 3.9-2.5 5.6-4.3 3.3-3.6 3.8-7.9 4.3-12.5.3-2.9.3-5.5.1-8.2-.2-3.6-.3-6.6-.3-10 0-2.2-.1-.8-.4-2.1-.7-2.8-1.2-3.8-2.4-5.3-1.5-1.8-2.4-2.4-3.8-3.2-1.7-.9-2.2-1.1-3.2-1-1.3 0-2 0-2.8-.1-2.5-.4-3.2-.7-4.8-.1-1.3.4-2.1.7-3.1 1-1.2.3-2.2.6-3.2.9-1.8.6-2.2 1-3 2-1 1.4-1.8.3-2.5 1.8-1.3 2.8-1.2 4.9-1.1 7.7.1 2.7.2 5.3.4 8 0 2.5-.2 5.2-.3 7.8z" fill="#f5b88a"/><path class="st12" d="M59.1 30.8c-.2-3.7-.3-6.6-.3-10 0-2.2-.1-.8-.4-2.1-.7-2.8-1.3-3.9-2.5-5.4-1.5-1.8-2.4-2.4-3.8-3.2C50.5 9.1 50 8.9 49 9c-1.3 0-2 0-2.8-.1-2.3-.4-3.1-.6-4.4-.3.4.1.9.2 1.5.3.8.1 1.4.1 2.8.1 1 0 1.5.1 3.2 1 1.4.8 2.3 1.4 3.8 3.2 1.2 1.5 1.8 2.5 2.5 5.4.3 1.3.5-.1.4 2.1-.1 3.4 0 6.4.3 10 .2 2.7.2 5.3-.1 8.3-.5 4.6-1 9-4.3 12.5-1.7 1.9-3 2.5-5.6 4.3-1.3.9-2.4 1.7-4.1 2.1-.1 0-.2 0-.3.1 1 .3 1.9.3 3.2-.1 1.7-.4 2.9-1.2 4.1-2.1 2.6-1.9 3.9-2.5 5.6-4.3C58 48 58.5 43.6 59 39c.3-2.9.3-5.5.1-8.2z"/><path class="st13" d="M47 24.9c3.3-.8 7.5-.7 9.6 1.7.3.3.2.8-.4.2-.8-.7-1.6-1.1-3.2-1.1-1.2 0-1.9.2-3.3.1-.9 0-2-.1-2.7-.2-.8-.1-1.3-.4 0-.7zm-8.5-.1c-2.4-.8-4.2-.8-7.4.2-.8.2-1.4.6-2 1.1-.9.9-.3.9.7.3 2-1.1 5.2-.7 7.5-.6.6 0 1.1 0 1.6-.1.9-.1.7-.5-.4-.9z"/><path class="st14" d="M37.7 46.8l-1-.1c2.1 1.9 3.7 3.4 6.8 3.1 2.2-.2 3.9-1.4 6-3.2-1.8.4-3.1.6-4.9.8l-3 .1-2.6-.4-1.3-.3z"/><path class="st14" d="M37.4 46.8l-1.2-.3c1.8-.2 2.5-.2 4-.7.5-.2.7-.2 1 0 .8.4 1.3.4 2 .2.9-.4.9-.4 1.4-.2 1.8.7 3 .7 4.9.6l-2.3.8-3.7.3h-2.2l-3-.4-.9-.3z"/><path class="st13" d="M39.6 53c3-1.7 4.1-1 7 .1-3.3-.9-3.5-1.4-7-.1z"/><path d="M44 29.2c1.2.3.8.3.4 1.7-1 3.9-.3 7.3-.4 9-.1 1.2-1.8 1.2-2-1.1-.1-2.4.4-5.2.5-7.5v-.8c.1-1.8-.2-1.7 1.5-1.3z" opacity=".25" fill="#fff"/><path d="M35.2 32.5c.9 0 1.7-.8 1.7-1.7 0-.9-.8-1.7-1.7-1.7-.9 0-1.7.8-1.7 1.7 0 .9.8 1.7 1.7 1.7zm15.4 0c.9 0 1.7-.8 1.7-1.7 0-.9-.8-1.7-1.7-1.7s-1.7.8-1.7 1.7c0 .9.8 1.7 1.7 1.7z" fill="#52544f"/><path class="st17" d="M27.4 34.4c-.3 3.8-.4 6.2-1 9-1 4.7-1.8 5.9-.6 9.5 2.2 6.8 2.1 9.3.6 15.6-.5 2.2-3.4 4.8-4.9 6.5 4.8-8.5 6-11.6 3.5-21.8-.9-3.7-1.1-4.9.2-9.9.8-2.9 1.5-5.8 2.2-8.9zm-2-7c-2.8 7-4 9.7-4.9 16.2-1.2 9.2-1.6 11.7-5.4 20.2 6.1-10.6 4.4-8.9 6.3-20.2.9-5.2 2.2-10.1 4-16.2z"/><path class="st17" d="M24.6 37.6c-1.4 6.4-3.2 12.9-2 19.5.9 5.4.5 6.4-3.3 12.7 4.6-5.4 5.5-7.4 4.6-12.7-1.2-7.5-.5-12.3.7-19.5z"/><path class="st18" d="M27.9 54.2c1.7 9.3 4.6 9.2 4.8 20.5 1.3-13.3-.5-9.4-4.8-20.5zM56 53.1c.2 5.5.8 8.6-.5 13-1.2 3.9-2.4 6.1-3.3 9.4-1.1 4 .1 3.1-3.3 5.9.9-9 1.4-9 4.5-16.7 1.4-3.8.9-6.3 2.6-11.6z"/><path class="st17" d="M60.3 48.3c-1.8 9.4-2.9 15.5-2 24.2.3 3 1 4.8.8 6.7-.4 4.2-2.4 3.9-5.8 4.7 3.8-.2 5 .5 6.7-3.2 1.3-2.7-.2-3.8-.5-8.8-.3-8.5.2-14.9.8-23.6z"/><path class="st18" d="M61.4 20.4c-.8 6.7-1.4 11.1-1.4 17.1 0 4.6 1.1 7.2 1.5 11.7.4 4.5.3 7.6 1.1 12.3.3-4.9.6-8.7.6-12.6.1-3.8-.1-7.7-.8-12.4-.6-5.3-.6-9.9-1-16.1zM41 7.5c-3.1.6-4.6.5-7 1.4-3.4 1.2-5 4.4-6.5 7.5.5-3.9.5-5.4 3.8-7.6 2.5-1.7 5.1-2.5 9.7-1.3z"/><path class="st19" d="M41.7 5.4C36.2 5 35 5 30.6 8.1c3.6-4.2 6-4.1 11.1-2.7z"/><path class="st19" d="M41.5 3.9c-1.8-.7-5.1-1.3-8.2.4 3.7-2.7 6-2.1 8.2-.4zm1.2 1.7c2 .1 3.4.2 5.2.1 2.1-.1 3 .7 4.9 1.6-2.5-1.9-2.2-2.4-5.2-2.1-1.7.1-3.3.3-4.9.4z"/><path class="st19" d="M43.4 4.3c5.5-1 6.4-.7 11.2 2.2-5.4-2.2-5.3-2.4-11.2-2.2z"/><path class="st19" d="M43.2 2.6c6.1-1.4 8.6.9 13.8 3.8-5-2.3-8.1-4.3-13.8-3.8z"/><path class="st17" d="M58.6 10.9c6.6 12.8 4.8 13.1 5.7 26.6.7-12.3 1.3-16.3-5.7-26.6z"/><ellipse cx="42.9" cy="53.2" rx="3.2" ry="1.1" opacity=".1" fill="#c6826c"/><ellipse transform="rotate(-81.86 40.495 41.546)" class="st21" cx="40.5" cy="41.5" rx=".3" ry="1.2"/><ellipse transform="rotate(-1.823 44.61 41.682)" class="st21" cx="44.6" cy="41.7" rx="1.3" ry=".4"/><path class="st13" d="M46.9 38.5c.6 1.4 1 2.2.3 2.8-.8.8-1.2.5-1.9.3-1.8-.5-1.5 1-3.2.5-1-.3-1.6-.8-2.1-.7-3.9.7-2.5-.9-1-3.3-.6 1.6-1.8 3.8.6 2.5.7-.4 1 .7 2.5.9 1.4.1 1.6-.7 3.1-.3.7.2 1.2.3 1.6-.2.5-.6.2-1.3.1-2.5z"/><path class="st0" d="M46.1 100.8s-7.3-5.4-8.4-6.8c-1.1-1.4-3.5-5.5-4.3-7-.9-1.6-1.5-2.6-2.7-3.4-1.1-.7-3.8-2.1-4.8-2.8-1-.7-1.7-1.4-1.9-1.3-.2.1-.9.8-.4 1.6s1.7 1.9 2.6 2.6c.8.7 1.4 1.4 1.3 1.4-.2.1-2.9-2-3.4-2.3-.6-.4-2.1-1.7-2.4-2.2-.4-.6-.8-3.6-1.3-3.8-.6-.2-.9.4-1.1 1.1-.2.7-.2 1.7-.2 2.1 0 .5.1 1 .1 1s-.7.6-1 1.1c-.3.6 0 1.7 0 1.7s-.5.1-.8.7c-.4.6.1 1.9.6 2.6 0 0-.5 1.1-.1 1.7.3.6 2.4 2.7 2.9 3.3.5.6 5.6 2.9 8.4 4.3 2.8 1.4 12.1 9.3 12.1 9.3l4.8-4.9z"/><path class="st0" d="M88.2 130.9v-.1c0-2.7-2.9-39.5-4.9-50.9 0 0-.8-6.6-7.7-5.7-6.6.9-5.8 11.6-5.8 11.6s-1.5 15.5.8 30.8c-2-1.4-1-.9-3.4-2.4-14.2-8.1-23-14.8-23-14.8l-4.5 4.8s10.6 9.3 20.6 18.1c8.6 7.4 16.8 14.5 18 15 0 0 6.9 3 9.4-2.4.7-1.5.8-2.8.5-4z"/><path d="M75.6 74.3c-6.6.9-5.8 11.6-5.8 11.6s-1.5 15.5.8 30.8c-2-1.4-1-.9-3.4-2.4-4.5-2.6-8.5-5-11.8-7.1 8 5.8 16.4 12 17.4 12.7-2.3-15.3-.8-30.8-.8-30.8s-.8-10.7 5.8-11.6c2.4-.3 4 .2 5.2 1.1-.6-1.8-2.4-5-7.4-4.3z" fill-rule="evenodd" clip-rule="evenodd" fill="#cd9467"/><path class="st1" d="M68.8 107.3s-1.4-10.1-2.4-22.5h-2c-.3-.9 4.5-.4 4.4-1.4-.4-5.9 8.3-12.7 9.5-12.3 2.3.8 4 2.5 5 5.3 3.2 8.7 2 13.1 2.9 30.4 0 0-5.5 1.9-17.2 1.6l-.2-1.1z"/><path class="st12" d="M51.9 47.2c0-.8 0-1.7-.4-2.5-.4-.7-.6-.8-1.5-1.1 1.4 1.1 1.2 1.8 1.6 3.3.2.7.3 1.3.3.3z"/></svg>