<svg version="1.1" id="Layer_1" xmlns="http://www.w3.org/2000/svg" x="0" y="0" viewBox="0 0 101.3 363.9" xml:space="preserve"><style>.st0{fill:#fbbfa3}.st0,.st1,.st2,.st3{fill-rule:evenodd;clip-rule:evenodd}.st1{fill:#061f28}.st2{fill:#152d37}.st3{fill:#623932}.st7{fill:#909ea3}.st7,.st8{fill-rule:evenodd;clip-rule:evenodd}.st10,.st8{fill:#eeb989}.st11{fill:#35251e}.st12{fill:#966d4a}.st13{fill:#cd9467}.st16{fill:#261710}.st17{fill:#262223}.st18{fill:#fefefe}</style><path class="st0" d="M70.9 84.5c0 5.9 4.8 10.7 10.7 10.7 5.9 0 10.7-4.8 10.7-10.7 0-5.9-4.8-10.7-10.7-10.7-5.9-.1-10.7 4.7-10.7 10.7z"/><path class="st1" d="M29.5 344.5l1.9-10.1 11.6 1.7-.6 9.5s-2.2 4.3-8.2 4.4c-6.2 0-4.7-5.5-4.7-5.5z"/><path class="st2" d="M39.8 346.1c-4.5-4.3-8.6-.7-8.6-.7l-1.7-1c-2.5 3.8-7.3 8.2-7.9 10.4-1.2 4.2.9 9 7.6 9 6.6 0 12.9-4 13.6-7.3.4-2-.3-7.3-.5-11.2l-2.5.8z"/><path class="st1" d="M93.1 344.5l-1.9-10.1-11.5 1.6.6 9.5s2.2 4.3 8.2 4.4c6.1.1 4.6-5.4 4.6-5.4z"/><path class="st2" d="M82.8 346.1c4.5-4.3 8.6-.7 8.6-.7l1.7-1c2.5 3.8 7.3 8.2 7.9 10.4 1.2 4.2-.9 9-7.6 9-6.6 0-12.9-4-13.6-7.3-.4-2 .3-7.3.5-11.2l2.5.8z"/><path class="st3" d="M50.3 176.1c0 8.7-7 15.7-15.7 15.7s-15.7-7-15.7-15.7 7-15.7 15.7-15.7c8.7.1 15.7 7.1 15.7 15.7zm-2.7 81.6c0 7.3-5.9 13.3-13.3 13.3S21 265.1 21 257.7c0-7.3 5.9-13.3 13.3-13.3s13.3 6 13.3 13.3zM83 174.3c1 8.6-5.2 16.4-13.8 17.4-8.6 1-16.4-5.2-17.4-13.8-1-8.6 5.2-16.4 13.8-17.4 8.6-.9 16.4 5.2 17.4 13.8zm-5.3 96.2c-7.3.6-9.6-25.8-2.3-26.5 7.3-.7 9.6 25.8 2.3 26.5z"/><path class="st3" d="M83.1 160.5H34.5l-14.3-.2-1.4 15.9c0 8.6 7 15.6 15.6 15.6h32.8c.6 0 1.2 0 1.8-.1 8-.9 13.8-7.6 13.9-15.5h.1v-15.7z"/><path d="M83.1 177v-16.5H34.6l-.1-.1v.1l-14.3-.2-.9 15.8h-.5l.1 5.5-.1 2.5c0 1.4.1 2.8.3 4.2l1.8 69.4 5.4 84.7s7.1 3.2 17 .3l4.1-83.7 4.3-46.2 3.4.5 22.2 129s7.4 2.2 17-1.5L83.1 177z" fill-rule="evenodd" clip-rule="evenodd" fill="#9eadb2"/><path d="M90.8 78.9c3.1 5.1 1.4 11.7-3.6 14.7-5.1 3.1-11.7 1.5-14.8-3.6-3-5-1.4-11.6 3.7-14.7 5.1-3.1 11.7-1.5 14.7 3.6z" fill-rule="evenodd" clip-rule="evenodd"/><path d="M23.2 87.1c0 5.9-4.8 10.7-10.7 10.7-5.9 0-10.7-4.8-10.7-10.7 0-5.9 4.8-10.7 10.7-10.7 5.9 0 10.7 4.8 10.7 10.7z" fill-rule="evenodd" clip-rule="evenodd" fill="#f6e7d8"/><path class="st0" d="M23.2 87.1c0 5.9-4.8 10.7-10.7 10.7-5.9 0-10.7-4.8-10.7-10.7 0-5.9 4.8-10.7 10.7-10.7 5.9 0 10.7 4.8 10.7 10.7z"/><path class="st2" d="M94.9 120.5c-2.3-16.2-.3-30-2.9-38.9-.5-1.9-1.6-3.5-2.9-4.8-.2-.2-.4-.4-.7-.6l-.3-.3c-8.8-7.1-34.2-15.8-41.5-14.6C34.6 63.2 4.9 77.2 4 80.6c-.8 1.1-1.5 2.3-1.9 3.6-2.7 9 4.5 46.9 16.1 45.7 0 0 .4-5.9 1.1-12.7l2.7 21.4-3.8 46.5s30.6 11.2 65.7.3c0 0 1.7-28.2-.5-59.9 5-1.1 7.8-2.9 11.5-5z"/><path class="st2" d="M93.5 120.5c-2.3-16.2-.3-30-2.9-38.9-.5-1.9-1.6-3.5-2.9-4.8-.2-.2-.4-.4-.7-.6l-.3-.3c-8.8-7.1-34.2-15.8-41.5-14.6C33.2 63.2 4.9 75.4 4 78.8l-1.4 1.8c-.8 1.1 2.7 49.7 14.3 48.6 0 0 .4-5.1 1-11.9l2.7 21.4v43.2S48.9 197 84 186.2c0 0 .3-28.8-2-60.6 5-1.2 7.9-3 11.5-5.1z"/><path class="st1" d="M47.7 73.4h-2.5c-5.7 0-10.3-4.3-10.3-9.6V68c0 5.3 4.6 9.6 10.3 9.6h2.5c5.7 0 10.3-4.3 10.3-9.6v-4.1c0 5.3-4.6 9.5-10.3 9.5z"/><path class="st7" d="M42.2 205.5l22 .7-8.9 7.2-3.4-.5-5.3 71.7z"/><path class="st1" d="M76.7 125.5c-1.2-8.9-3.9-27.8-6.4-39.3-.2-.9-.3-1.7-.3-2.7 0-5.9 4.8-10.7 10.7-10.7 4.9 0 9 3.3 10.3 7.8 2.6 8.9.6 22.7 2.9 38.9-5.7 3.3-15.3 5.7-17.2 6zm-56-2.5s.9-21.8 1.2-34.2c.2-.9.4-1.8.4-2.7 0-5.9-4.8-10.7-10.7-10.7-4.9 0-9 3.3-10.4 7.8-2.7 8.9.3 22.9.5 40.2-.1-.1 7.4.7 19-.4z"/><path class="st8" d="M93 121.5c0 9-1.3 16.3-3.6 18.6-3.4 3.2-13.2 2.6-24.6.8-11.4-1.8-34.3-5-34.3-5s17-9.4 31-12c6.4-1.2 11.3-1.2 14.7-.8 4.2.4 6.2 1.4 6.2 1.4 3.3-.8 7.3-1.8 10.6-3z"/><path d="M38.8 137c2.2.3 4.7.7 7.2 1 9.8-4.6 30.1-11 29.6-15.1l-6.7-.1L38.8 137z" fill-rule="evenodd" clip-rule="evenodd" fill="#cd9467"/><path class="st8" d="M82.5 124.4s-40.5 11.5-52 16.3c-14.2 6-20.4 3.7-23.9-2.2-2.7-4.6-3.1-6.8-4-15 5.2.1 10.7.2 18-.5 0 0 21.1-3.1 34.7-4.2 18.1-1.5 24.4 1.5 27.2 5.6zM50.9 72.3h-7.4c-3.9 0-7-3.1-7-7V49.4h21.4v15.9c0 3.9-3.1 7-7 7z"/><path class="st10" d="M57.9 61.8l1.1-1.3c2.4-2.7 3.2-3 4.5-5.2 2.3-4 3.6-22.8 4.3-28.9L61.2 15l-17.7-2.4-11.5 1-4.1 9.1c.4 7.4 1 13.5 1.8 20.6.4 3.4.4 5.8 1.2 8.6 1.2 4.6 4.5 7.4 7.5 10.7 4.2 4.7 3.8 5.4 9.5 5.3 4.6-.1 6.5-3.1 10-6.1z"/><path class="st11" d="M65.1 47.5l.4-.1c-1.2 6.5-1.3 7.5-5.1 11.6-3 3.3-6.3 6.8-9.7 8.3-1.8.7-3.7.7-5.6.5-2.9-.4-4-2-5.7-3.9-5.3-5.9-8.4-8.1-9.3-15.8 4 1.8 4.8 5.2 6.1 8.8.8 2.1 1.3 3 2.2 4.1 1.6 1.8 2.2 1.8 3.4 2.3 2.6 1 3.3.8 5.4.7 5.7-.2 4.4.9 8.2-2.1 2.7-2.2 3.5-3.1 4.3-6.4 1.3-4.3 2.4-5 5.4-8z"/><ellipse transform="rotate(-16.922 50.37 49.712)" class="st12" cx="50.4" cy="49.7" rx="1.4" ry=".4"/><ellipse transform="rotate(-69.653 45.656 49.276)" class="st12" cx="45.7" cy="49.3" rx=".4" ry="1.4"/><path class="st13" d="M40.1 54.1c2 1.9 3.5 3.5 5.2 4.2 4.1 1.5 7.5-1.6 9.6-3.6 1.2-1.1-3-1.5-4.3-1.5-3.5-.1-6 .5-7.3.1-1.3-.5-.4-.1-3.2.8z"/><path class="st10" d="M65.5 41.2l-.4 5.8c2.1 0 2.6-.5 3.2-1.7 1.8-3.7 2.3-7.4 2-11.3-.3-3.8-1.1-1.6-1.9.6l-1.1 2.5-1.8 4.1zm-36-3.4l1.2 7.7c-1 .3-1.8.4-2.4.1-.8-.3-1.4-1.6-1.7-3-.3-1.4-.6-3.5-.8-5.5-.2-2-.2-2.8.2-4.4.6-2.6 1-4 2.1-.1l1.4 5.2z"/><path class="st11" d="M66.5 40.9l.4-2.3 1.2-3.5c.7-1.6 1.1-4.5 2-2.6-.2-3.4.6-5 .6-7.8 0-2.3-.2-4.5-.5-6.8-.5-3.5-1.8-4.9-4.7-8.6-2-2.5-3.7-4.3-7.2-6C55.2 1.7 52 .6 48.2.2c-4.4-.4-5.4-.4-10.3 2.5-1.1.7-2.2 1.3-3.3 2.1-1.5 1-2.8 1.9-4.1 3.6-1.8 2.3-2.5 3.7-3.4 7.3-.6 2.5-.8 4.8-1 7.7-.3 4.2 1.6 8.6 2.8 12.5l.6.2c.1-2.3 0-4.8.4-7.1.2-1.4.5-1.9 2.3-3.2.9-.7.4-1.8.7-3.5 1.4-8.3 7.4-.7 14.4-3.4 1-.4 1.7-.3 3.6.5 2.1.9 4 1.3 6-.4.5-.4.9-.4 2.3 0 3 .8 3.5 2 4.8 5.6.7 2 1.3 3.6 1.4 6.6.2 3.9.4 9.1 1.1 9.7z"/><path d="M39.9 37.9c.8-.1 1.4-.8 1.4-1.7-.1-.8-.8-1.4-1.7-1.4-.8.1-1.4.8-1.4 1.7.1.9.9 1.5 1.7 1.4zm16.5.7c.8-.1 1.4-.8 1.4-1.7-.1-.8-.8-1.4-1.7-1.3s-1.4.8-1.4 1.7c.1.8.9 1.4 1.7 1.3z" fill="#26170f"/><path class="st13" d="M52.4 46.2c.7 1.3 1 2.1.1 2.8-.9.7-1.5.3-2.6.8-1 .5-1.1.8-1.8.7-1.6-.1-1.7-1.8-3.6-1.6-2.4.2-2.1-2-.7-2.9-.4 1.1-.7 2.1.8 2.3 2.6.3 1.7 1.1 3.4 1.4.6.1.9-.2 1.9-.6.9-.4 1.9-.4 2.3-.8.5-.3.3-.9.2-2.1z"/><path class="st11" d="M52 33.7c1.4-1.2 2.4-1.5 3.5-1.6 1.8-.1 3.2.1 4.8.5 1.6.4 1.6 1-.3.8-2.2-.2-5.8.1-8 .3zm-9.4-.9c-1.8-.7-3.7-1.5-5.9-1.3-2 .2-2.4.4-4.1 1.7 4-1.6 5.4-.6 9-.1 1.5.3 3.2.6 1-.3z"/><path d="M48.9 36c1 .9.9 4.8.6 7.5-.3 2.3 1.8 3.6 0 3.8-1.8.2-1.6-.3-1.7-1.7-.3-3.1-.1-10.8 1.1-9.6z" opacity=".25" fill="#fff"/><path d="M57.4 18.8h.6l2 .4 1.5.9C59.9 9.6 57.4 9 48.8 4.9c2.5 1.8 4.7 3.6 6.2 5.7-3.1-1.8-6.2-3.1-9.5-3.9C47.6 9 49 11 49.3 12.5c-6.8-3.2-6.5-3.1-14-3.3 3.6 1.7 5.3 1.7 7.2 5.2-1.8-1.1-3.8-1.8-6.1-2 1.6.5 2.8 1.3 3.4 2.4-3.9-.5-5.9-1.4-9.6-.1 2.1 0 3.8.3 4.8 1l-5.6 1.7 4.3.4 1.2.5 1.8-.2 2.9.7 2.7.5 1.9.1 1.5-.1 1.9-.5.8-.2 1 .2 1.6.6 2 .7 1.6.1 2.8-1.4z"/><path class="st16" d="M51.9 18.9c1.1-3.4 1.6-4.3.4-7.7 2.1 1.8 1.9 6.1-.4 7.7z"/><path class="st16" d="M51 17.7c.4-3.5.8-4.5-1.1-7.6 2.3 1.4 3 5.6 1.1 7.6zm3.5.2c.7-2.5 1-3.2.2-5.8 1.3 1.5 1.2 4.7-.2 5.8zm2.4.4c-.1-3.1-.3-5.2.4-7.1-.1 2.2.7 6-.4 7.1zM45.1 18c-1.1-2.1-1.5-2.6-1.2-5-.9 1.5-.2 4.3 1.2 5zm3.1-.6c-1.7-2.1-2.3-2.6-2.6-5.4-.6 1.9.8 5 2.6 5.4z"/><path class="st7" d="M83.9 188.4L94.4 341v-.7l-5.2 2.3"/><path class="st17" d="M52 92.1c.1 0 .1-.1.1-.1l.9-1.5c.1-.1.1-.1.2-.1.5.1.9.1 1.4.2.2 0 .3.2.5.3.1.1.2.1.3 0 .9-.4 1.9-.9 2.8-1.3H62c.1 0 .1 0 .2.1.9.4 1.8.8 2.7 1.3 0 0 .1.1.1 0 .4-.3.8-.3 1.3-.4.2 0 .4 0 .7-.1.1 0 .1 0 .2.1l.9 1.5s0 .1.1.1v.1c-.1 0-.1.1-.1.1-.3.5-.6 1-.8 1.5-.1.1-.1.3-.1.4-.3 1.4-.5 2.7-.8 4.1 0 .1-.1.2-.1.2-1.5 1.2-3 2.5-4.4 3.7 0 0-.1.1-.2.1h-2.9c-.1 0-.1 0-.2-.1-1.5-1.3-3-2.5-4.5-3.8-.1-.1-.1-.2-.2-.3-.3-1.3-.5-2.7-.8-4 0-.1 0-.1-.1-.2-.3-.6-.6-1.2-1-1.8v-.1c0 .1 0 .1 0 0zm7 9.5h2.4c.1 0 .1 0 .2-.1 1.3-1.1 2.7-2.2 4-3.3.1-.1.1-.1.1-.2.2-1.1.4-2.3.6-3.4.1-.4 0-.6-.2-1-.5-.6-.9-1.2-1.3-1.9l-.1-.1c-.9-.4-1.9-.8-2.8-1.3h-3.6l-2.7 1.2c-.1 0-.1.1-.2.1l-1.5 2.1s-.1.1 0 .2c.2 1.2.5 2.5.7 3.7 0 .1.1.1.1.2 1.4 1.2 2.8 2.3 4.2 3.5 0 .2 0 .3.1.3zm-5.6-8.4c.4-.5.7-1 1.1-1.5.1-.2.1-.2-.1-.3h-.1c-.3 0-.5-.1-.8-.1-.1 0-.1 0-.2.1-.2.3-.3.5-.5.7 0 0-.1.1 0 .1.3.4.5.7.6 1zm13.3 0c.2-.3.3-.6.5-.9v-.2c-.2-.2-.3-.5-.5-.7 0-.1-.1-.1-.2-.1-.2 0-.3 0-.5.1-.2 0-.3 0-.5.1 0 0-.1.1 0 .1.4.5.8 1 1.2 1.6z"/><path class="st18" d="M59 101.6c-.1 0-.1-.1-.1-.1-1.4-1.2-2.8-2.3-4.2-3.5-.1 0-.1-.1-.1-.2-.2-1.2-.5-2.5-.7-3.7v-.2l1.5-2.1c0-.1.1-.1.2-.1l2.7-1.2h3.6c.9.4 1.8.8 2.8 1.3l.1.1v1.4c0 .1 0 .2-.1.2-.2.1-.4.2-.5.3-.6.3-1.1.5-1.7.8-.2.1-.4.1-.5.3-.2.4-.5.8-.7 1.1 0 .1-.1.1-.1.2 0 .4-.1.9-.1 1.3 0 .5-.1.9-.1 1.4h-.6c-.9 0-.9 0-1.5.5-.1.1-.1.1 0 .2.1.3.3.7.4 1 0 .1.1.1.2.2.3.1.5.2.8.3l-.1.1c-.5.1-.9.2-1.2.4zm-1.4-6.5c-.2 0-.4.1-.5.2 0 0-.1.1 0 .1.1.5.7.7 1.1.4l.1-.1c-.1-.4-.3-.6-.7-.6z"/><path d="M59 101.6c.3-.2.7-.3 1-.5 0 0 .1 0 .1-.1h.1l.9-.3c.1 0 .1-.1.1-.1.1-.4.3-.7.4-1.1v-.2c-.2-.2-.4-.3-.6-.5 0-.5.1-.9.1-1.4 0-.4.1-.9.1-1.3 0-.1.1-.1.1-.2.2-.4.5-.8.7-1.1.1-.2.3-.2.5-.3.6-.3 1.1-.5 1.7-.8.2-.1.4-.2.5-.3.1 0 .1-.1.1-.2v-1.4c.4.6.9 1.3 1.3 1.9.2.3.3.6.2 1-.2 1.1-.4 2.2-.6 3.4 0 .1-.1.2-.1.2-1.3 1.1-2.7 2.2-4 3.3 0 0-.1.1-.2.1-.8-.1-1.6-.1-2.4-.1zm3.7-6.5h-.1c-.2 0-.4.3-.4.6 0 .1.2.2.4.3h.3c.2 0 .5-.4.5-.6-.1-.1-.4-.3-.7-.3z" fill="#a1dcf8"/><path class="st18" d="M53.4 93.2c-.2-.3-.3-.6-.5-1v-.1c.2-.2.3-.5.5-.7 0-.1.1-.1.2-.1.3 0 .5.1.8.1h.1c.2.1.2.1.1.3l-1.2 1.5zm13.3 0c-.4-.6-.8-1.1-1.1-1.6v-.1c.1-.1.3-.1.5-.1s.3 0 .5-.1c.1 0 .1 0 .2.1.2.3.3.5.5.7 0 .1.1.1 0 .2-.3.3-.4.6-.6.9z"/><path class="st17" d="M60.9 98.8c.2.2.4.4.6.5.1 0 .1.1 0 .2-.1.4-.3.7-.4 1.1 0 0 0 .1-.1.1l-.9.3H60c-.3-.1-.5-.2-.8-.3-.1 0-.1-.1-.2-.2-.1-.3-.2-.7-.4-1v-.2c.6-.5.6-.5 1.5-.5h.8zm-3.3-3.7c.3 0 .6.2.6.6 0 .1 0 .1-.1.1-.4.3-.9.1-1.1-.4v-.1c.2-.1.4-.2.6-.2zm5.1 0c.3 0 .6.2.6.3 0 .2-.3.5-.5.6h-.3c-.2 0-.4-.2-.4-.3 0-.3.2-.5.4-.6h.2z"/><path d="M42.2 54.8c-.5-.4-.7-1.1-.6-1.7l11.9 1c-.1.7-.6 1.3-1.3 1.8-1.3.9-6.9 1.6-10-1.1z" fill="#fff"/><path class="st11" d="M38.5 51.5c1.2-.6 2.5 0 4.4.1l3.5-.3 2.5.1 1.9.2 2.1.7 1.6.3 1.5.1c2.1.4 2.7 1 2.7 2.6 0 1.3-.3 1.4-1.1 1.6-1.2.3-1.2.3-1.5-.5-.6-1.2-.9-1.3-1.9-1.5-1.2-.2-2-.2-3-.4-.5-.1-1.1-.2-1.6-.3-1.1-.2-1.6 0-2.4-.1-1.4-.2-4.2-.3-6.2-.1-1.2.1-1.9.4-2.3 1.3-.4.7-.6.5-1.1 0-.7-.7-.7-.8-.7-1.4 0-1 .8-1.9 1.6-2.4z"/></svg>