<svg version="1.1" id="Layer_1" xmlns="http://www.w3.org/2000/svg" x="0" y="0" viewBox="0 0 123.4 364.4" xml:space="preserve"><style>.st0,.st1{fill-rule:evenodd;clip-rule:evenodd;fill:#061f28}.st1{fill:#152d37}.st2{fill:#623932}.st2,.st7{fill-rule:evenodd;clip-rule:evenodd}.st7,.st9{fill:#eeb989}.st10{fill:#261710}.st11{opacity:.1;fill:#c6826c}.st12{fill:#966d4a}.st13{fill:#cd9467}.st15{fill:#3f342e}.st16{opacity:.2;fill:#c6826c}.st17{fill:#262223}.st18{fill:#fefefe}</style><path class="st0" d="M104.1 344.9l-1.9-10.1-11.6 1.7.6 9.5s2.2 4.3 8.2 4.4c6.2 0 4.7-5.5 4.7-5.5z"/><path class="st1" d="M93.9 346.5c4.5-4.3 8.6-.7 8.6-.7l1.7-1c2.5 3.8 7.3 8.2 7.9 10.4 1.2 4.2-.9 9-7.6 9-6.6 0-12.9-4-13.6-7.3-.4-2 .3-7.3.5-11.2l2.5.8z"/><path class="st0" d="M56.4 338.4l-.7 8.3-2.9 5.3-9.1-3-1.3-6.1.5-9.5z"/><path class="st1" d="M19.2 352.4c3.1-1.5 12.9-4.3 20.1-9.5.8-.5 1.7-.8 2.6-.6l.5.1s.3 4.4 4.9 6c3.1 1 8.3-1.7 8.3-1.7l-.6 11.7H17.5c-.7-.4-.9-1.2-.9-1.2s-1.4-2.9 2.6-4.8z"/><path class="st2" d="M63.1 176.5c0 8.7-7 15.7-15.7 15.7s-15.7-7-15.7-15.7 7-15.7 15.7-15.7c8.7.1 15.7 7.1 15.7 15.7zm-2.7 81.7c0 7.3-5.9 13.3-13.3 13.3s-13.3-5.9-13.3-13.3c0-7.3 5.9-13.3 13.3-13.3s13.3 5.9 13.3 13.3zm35.4-83.4c1 8.6-5.2 16.4-13.8 17.4-8.6 1-16.4-5.2-17.4-13.8-1-8.6 5.2-16.4 13.8-17.4 8.6-1 16.4 5.1 17.4 13.8zm-5.3 96.1c-7.3.6-10.7-5.2-11.4-12.5-.6-7.3 1.7-13.3 9.1-14 7.3-.6 9.6 25.8 2.3 26.5z"/><path class="st2" d="M96 160.9H47.4l-14.3-.2-1.4 15.9c0 8.6 7 15.6 15.6 15.6h32.8c.6 0 1.2 0 1.8-.1 8-.9 13.8-7.6 13.9-15.5h.2v-15.7z"/><path class="st0" d="M96 177.4v-16.5H47.5l-.1-.1v.1l-14.3-.2-.9 15.8h-.5l.1 5.5-.1 2.5c0 1.4.1 2.8.3 4.2l1.8 69.4 4 84.7s11.2 3.2 21.1.3l1.4-83.7 3.5-46.2 5.9.5 9.4 46.3h.1l8.2 82.8s11.5 2.2 21.1-1.5L96 177.4z"/><path fill-rule="evenodd" clip-rule="evenodd" fill="#324851" d="M108.6 341.4v-.6L102 343"/><path d="M35.9 87.5c0 5.9-4.8 10.7-10.7 10.7-5.9 0-10.7-4.8-10.7-10.7 0-5.9 4.8-10.7 10.7-10.7 5.9 0 10.7 4.8 10.7 10.7z" fill-rule="evenodd" clip-rule="evenodd" fill="#f6e7d8"/><path d="M35.9 87.5c0 5.9-4.8 10.7-10.7 10.7-5.9 0-10.7-4.8-10.7-10.7 0-5.9 4.8-10.7 10.7-10.7 5.9 0 10.7 4.8 10.7 10.7z" fill-rule="evenodd" clip-rule="evenodd" fill="#fbbfa3"/><path class="st1" d="M110.2 120.9c-2.3-16.2-4.3-30-6.9-38.9-.5-1.9-1.6-3.5-2.9-4.8-.2-.2-.4-.4-.7-.6l-.3-.3c-8.8-7.1-34.2-15.8-41.5-14.6-12 1.9-39.1 15-40 18.4l-.9 1.7c-.8 1.1-.5 16.7 11.1 15.6l5.2 41.6-3.8 46.5s34.2 13 69.3 2.1c0 0-4.7-60.3-7-92.1 5-1 14.8 27.5 18.4 25.4z"/><path fill="#061f28" d="M34.8 139l-3.9-32.4 7.3 32-6.5 46z"/><path class="st7" d="M60.5 70.6c-5.9 0-10.7-4.8-10.7-10.7V48.2h21.4v11.7c0 5.9-4.8 10.7-10.7 10.7z"/><path d="M75.8 36.5l.2 6 5.4-4.2c6-10.9 7.7-15.5 3.4-23.3-5.7-10.4-15-12.7-25.7-12.7-7-.1-8.1 0-11 1.7C42 7.5 40.6 7.7 43 14c-2.3-1.8-2.7-1.3-2.8-4.2-.5 3.9-1 3.1 1.7 5.9-4 4-3.1 6.4-3 11.7l1.4 6.2 7.3-12.5L58 16.4l9.2.8 6.4 6.7 2.2 12.6z" fill="#3b312c"/><path class="st9" d="M39.3 32.2c-2 7.6-.3 9.6 2.4 17.3.8 2.4 1.9 5.6 3.7 8.1.5.6 1.6 1.4 2.3 2.3 1.4 1.9 3.1 1.8 6.9 2 4.5.2 8.8-2.8 11.4-4.5 2.1-1.4 3.8-2.7 6-5.2 2.5-2.9 3.2-3.5 4.1-9.4.5-3.6.9-7.1.9-11.2.1-5.7-.4-10.8-5-15.4-3-3-5.6-5.1-11-4.2-2.7.4-3.9.4-8.1-.4-1.6-.3-2.8 0-5.1 1.5-5.9 3.9-6.9 12.4-8.5 19.1z"/><path d="M61.9 10.4h.5l1.6.2 1.2.7C63.7 3.3 61.7 2.9 55 0c2 1.3 3.7 2.7 4.9 4.2-2.5-1.2-5-2.2-7.5-2.7 1.7 1.7 2.8 3.2 3.1 4.3-5.3-2.3-5.1-2.2-10.9-2.1 2.9 1.2 4.2 1.1 5.7 3.8-1.4-.8-3-1.3-4.8-1.4 1.3.4 2.2.9 2.7 1.8-3-.3-4.6-.9-7.4.2 1.6 0 2.9.2 3.7.7l-4.3 1.5 3.3.2.9.4 1.4-.2 2.2.4 2.1.3h1.5l1.2-.2 1.5-.5.6-.1.7.1 1.3.4 1.5.5h1.3l2.2-1.2z"/><path class="st10" d="M57.7 10.7c.8-2.6 1.1-3.4.1-5.9 1.6 1.3 1.6 4.6-.1 5.9z"/><path class="st10" d="M57 9.7c.2-2.7.5-3.5-1.1-5.8 1.8 1 2.5 4.3 1.1 5.8zm2.7.2c.5-2 .7-2.5 0-4.5 1 1 1 3.5 0 4.5zm1.8.2c-.2-2.4-.4-4 .1-5.5 0 1.7.8 4.6-.1 5.5zm-9 .1c-.9-1.6-1.2-2-1.1-3.8-.7 1.2-.1 3.3 1.1 3.8zm2.3-.5c-1.4-1.6-1.9-2-2.2-4.1-.4 1.5.8 3.8 2.2 4.1z"/><path d="M65.2 11.1l-.3-.2-1.3-.3-1.1.1c-1.4-7.8 5.2-5 11.2-4.9-1.9.3-3.6.7-5 1.5 2.2-.1 4.4 0 6.4.5-1.8.5-3.1 1.2-3.6 2 4.7.1 4.5.1 8.9 2-2.5 0-3.5-.5-5.5.9 1.3-.1 2.7 0 4 .6-1.1-.1-2-.1-2.6.4 2.4.8 3.8.8 5.6 2.6-1.2-.6-2.3-.8-3-.7l2.8 2.5-2.5-1h-.8l-1-.6-1.9-.5-1.7-.4-1.1-.5-.9-.5-1-.8-.4-.3-.6-.2-1.1-.1-1.2-.2-1-.4-1.3-1.5z"/><path class="st10" d="M68.3 12.6c.2-2.2.2-2.8 1.7-4.4-1.6.5-2.6 2.9-1.7 4.4z"/><path class="st10" d="M69.2 12.2c.7-2.1.7-2.7 2.6-3.9-1.8.1-3.2 2.3-2.6 3.9zm-2.1-.8c.3-1.6.2-2.1 1.4-3.3-1.2.4-1.9 2.3-1.4 3.3zm-1.5-.5c.9-1.7 1.5-2.8 1.6-4.1-.5 1.3-2 3.2-1.6 4.1zm6.8 3.1c1.1-.9 1.5-1.1 2-2.5.2 1.1-.9 2.5-2 2.5zm-1.6-1.2c1.5-.7 2-.8 2.9-2.3-.1 1.3-1.7 2.6-2.9 2.3z"/><ellipse transform="rotate(-1.985 53.937 58.9)" class="st11" cx="54" cy="58.9" rx="4" ry="2.3"/><ellipse transform="rotate(-80.677 50.684 44.542)" class="st12" cx="50.7" cy="44.5" rx=".4" ry="1.4"/><ellipse transform="rotate(-2.925 54.176 44.725)" class="st12" cx="54.2" cy="44.7" rx="1.4" ry=".4"/><path class="st13" d="M61 28.8c4.6-.6 5.8-.6 8.6.7 2.6 1.2 1.1 1.8-.8 1.2-2.7-.9-4-.9-7.7-.9-2.8-.1-3.1-.5-.1-1zm-13.2-.5c-2.4-.9-4.6-.7-7.4-.1l-.6 1.4c2.6-.4 3.3-.6 6-.6 2.1 0 4.1.1 2-.7zm1.3 12.6c-1.2 2.9-1.5 4.3.7 3.8.8-.2.7-.4 1.4 0 1.1.7 1.1.5 2.6.1.9-.3.7-.1 2.3.4.3.1.6.1 1-.1 1.6-.6.8-1.5.4-3.6.7 3.4-.2 2.4-2.4 1.9-2-.5-2.2 1.2-3.3.1-1.6-1.7-2.6 2.4-2.7-2.6z"/><path class="st9" d="M73.5 43.1l1 3.6c.9 3.1 1.7 3.4 4.7 1.2 1.8-1.4 2.4-2.8 3.2-4.9 1-2.7 2.6-5.8 0-6.9-2.1-.9-5.5 3.2-6.5 4.8l-2.4 2.2z"/><path d="M56.1 39.4c.4 1.9.3 2.5-1.5 1.3-1.5-1-1-1.1-.6-4.4l.7-3.7c.5-2.6 2.3-2.9 1.6-.6-.5 1.8-.6 5.4-.2 7.4z" opacity=".25" fill="#fff"/><path class="st15" d="M59 34.2c2.1-1.4 3.4-1.5 4.9-1.1 2.2.5 1.7.7 4.1.6-2.7.4-1.5.8-4.2-.1-1.4-.4-2.2-.3-4.5.4"/><path class="st15" d="M62.3 34.7c.8-.2 1.3-.6 1.2-1.1-.1-.4-.8-.6-1.5-.4-.8.2-1.3.6-1.2 1.1.1.4.7.6 1.5.4zm-12.7-.9c-1.9-1.9-3.2-2-5.1-1.6-2 .4-1.4.5-3.2 1.3 1.5-.5 1.8-.6 3.3-.9 1.7-.3 2.3-.1 5 1.2z"/><path class="st15" d="M45.6 33.8c.6-.1 1.1-.6 1-1-.1-.4-.7-.6-1.3-.4-.6.1-1.1.6-1 1 .1.4.7.5 1.3.4z"/><path class="st13" d="M50.3 57.7c3.1-2.2 4.4-1.5 7.6-.2-3.7-.9-4-1.5-7.6.2z"/><ellipse transform="rotate(-61.531 79.249 42.729)" class="st11" cx="79.2" cy="42.7" rx="4" ry="1.5"/><path class="st16" d="M66 57.8c-2.6 1.7-6.9 4.7-11.4 4.5-2.1-.1-3.5-.1-4.6-.4v.8c1.4 1.5 3.1 1.5 6.6 1.7 4.5.2 8.8-2.8 11.4-4.5 1.1-.7 2.2-1.5 3.2-2.3v-3.9c-1.8 1.8-3.3 2.9-5.2 4.1z"/><path class="st0" d="M61.7 71.8h-2.5c-5.7 0-10.3-4.3-10.3-9.6v4.1c0 5.3 4.6 9.6 10.3 9.6h2.5c5.7 0 10.3-4.3 10.3-9.6v-4.1c0 5.4-4.7 9.6-10.3 9.6z"/><path class="st7" d="M31.6 185.9c2.3 2.8 9.1 1.8 11.7 2.9 2.6 1 2.7 4.8 2.7 4.8s2.3 8.6-10 12.7c-2.9 1-12.5-15.5-12.5-15.5l8.1-4.9zm0 0c-3-5.3-5.6-17.2-8.6-28-2.9-10.4-5.4-16.2-5.4-16.2L1 149.2s19.1 36.6 22.6 41.5l8-4.8z"/><path class="st7" d="M17.4 142.4c2.1 4.6 0 10-4.6 12.1-4.6 2-10 0-12-4.6-2.1-4.6 0-10 4.5-12 4.6-2.1 10-.1 12.1 4.5z"/><path class="st0" d="M91.8 98.7l-7 91.5 15-1.9z"/><path class="st7" d="M30.7 105.7c-6.6 16.6-11.8 38.8-12.7 42.7l-17.9-3s4.2-34.6 11.1-48.7l19.5 9zM94 185.6c-2.1 2.9-9 2.3-11.5 3.5-2.6 1.2-2.5 4.9-2.5 4.9s-1.8 8.7 10.7 12.1c2.9.8 11.6-16.2 11.6-16.2l-8.3-4.3z"/><path class="st7" d="M94 185.6c2.7-5.5 4.7-17.4 7.1-28.4 2.3-10.6 4.6-16.4 4.6-16.4l17 6.6S105.6 185 102.4 190l-8.4-4.4z"/><path class="st7" d="M105.9 141.4c-1.8 4.7.5 10 5.2 11.8 4.7 1.8 10-.5 11.8-5.2 1.8-4.7-.5-10-5.2-11.8-4.7-1.8-10 .6-11.8 5.2z"/><path class="st7" d="M90 102.1c7.5 16.2 14.5 41.5 15.6 45.3l17.7-3.9s-6.7-37.6-14.3-51.3l-19 9.9z"/><path class="st17" d="M70 96.8c.1 0 .1-.1.1-.1l.9-1.5c.1-.1.1-.1.2-.1.5.1.9.1 1.4.2.2 0 .3.2.5.3.1.1.2.1.3 0 .9-.4 1.9-.9 2.8-1.3H80c.1 0 .1 0 .2.1.9.4 1.8.8 2.7 1.3 0 0 .1.1.1 0 .4-.3.8-.3 1.3-.4.2 0 .4 0 .7-.1.1 0 .1 0 .2.1l.9 1.5s0 .1.1.1v.1c-.1 0-.1.1-.1.1-.3.5-.6 1-.8 1.5-.1.1-.1.3-.1.4-.3 1.4-.5 2.7-.8 4.1 0 .1-.1.2-.1.2-1.5 1.2-3 2.5-4.4 3.7 0 0-.1.1-.2.1h-2.9c-.1 0-.1 0-.2-.1-1.5-1.3-3-2.5-4.5-3.8-.1-.1-.1-.2-.2-.3-.3-1.3-.5-2.7-.8-4 0-.1 0-.1-.1-.2-.3-.6-.6-1.2-1-1.8v-.1zm7 9.5h2.4c.1 0 .1 0 .2-.1 1.3-1.1 2.7-2.2 4-3.3.1-.1.1-.1.1-.2.2-1.1.4-2.3.6-3.4.1-.4 0-.6-.2-1-.5-.6-.9-1.2-1.3-1.9l-.1-.1c-.9-.4-1.9-.8-2.8-1.3h-3.6l-2.7 1.2c-.1 0-.1.1-.2.1l-1.5 2.1s-.1.1 0 .2c.2 1.2.5 2.5.7 3.7 0 .1.1.1.1.2 1.4 1.2 2.8 2.3 4.2 3.5 0 .2 0 .3.1.3zm-5.5-8.4c.4-.5.7-1 1.1-1.5.1-.2.1-.2-.1-.3h-.1c-.3 0-.5-.1-.8-.1-.1 0-.1 0-.2.1-.2.3-.3.5-.5.7 0 0-.1.1 0 .1.2.3.4.6.6 1zm13.2-.1c.2-.3.3-.6.5-.9v-.2c-.2-.2-.3-.5-.5-.7 0-.1-.1-.1-.2-.1-.2 0-.3 0-.5.1-.2 0-.3 0-.5.1 0 0-.1.1 0 .1.5.6.8 1.1 1.2 1.6z"/><path class="st18" d="M77 106.3c-.1 0-.1-.1-.1-.1-1.4-1.2-2.8-2.3-4.2-3.5-.1 0-.1-.1-.1-.2-.2-1.2-.5-2.5-.7-3.7v-.2l1.5-2.1c0-.1.1-.1.2-.1l2.7-1.2h3.6c.9.4 1.8.8 2.8 1.3l.1.1V98c0 .1 0 .2-.1.2-.2.1-.4.2-.5.3-.6.3-1.1.5-1.7.8-.2.1-.4.1-.5.3-.2.4-.5.8-.7 1.1 0 .1-.1.1-.1.2 0 .4-.1.9-.1 1.3 0 .5-.1.9-.1 1.4h-.6c-.9 0-.9 0-1.5.5-.1.1-.1.1 0 .2.1.3.3.7.4 1 0 .1.1.1.2.2.3.1.5.2.8.3l-.1.1c-.5 0-.9.2-1.2.4zm-1.4-6.5c-.2 0-.4.1-.5.2 0 0-.1.1 0 .1.1.5.7.7 1.1.4l.1-.1c-.1-.4-.3-.6-.7-.6z"/><path d="M77 106.3c.3-.2.7-.3 1-.5 0 0 .1 0 .1-.1h.1l.9-.3c.1 0 .1-.1.1-.1.1-.4.3-.7.4-1.1v-.2c-.2-.2-.4-.3-.6-.5 0-.5.1-.9.1-1.4 0-.4.1-.9.1-1.3 0-.1.1-.1.1-.2.2-.4.5-.8.7-1.1.1-.2.3-.2.5-.3.6-.3 1.1-.5 1.7-.8.2-.1.4-.2.5-.3.1 0 .1-.1.1-.2v-1.4c.4.6.9 1.3 1.3 1.9.2.3.3.6.2 1-.2 1.1-.4 2.2-.6 3.4 0 .1-.1.2-.1.2-1.3 1.1-2.7 2.2-4 3.3 0 0-.1.1-.2.1-.8-.1-1.6-.1-2.4-.1zm3.7-6.5h-.1c-.2 0-.4.3-.4.6 0 .1.2.2.4.3h.3c.2 0 .5-.4.5-.6-.1-.1-.4-.3-.7-.3.1 0 .1 0 0 0z" fill="#a1dcf8"/><path class="st18" d="M71.5 97.9c-.2-.3-.3-.6-.5-1v-.1c.2-.2.3-.5.5-.7 0-.1.1-.1.2-.1.3 0 .5.1.8.1h.1c.2.1.2.1.1.3-.5.4-.9.9-1.2 1.5zm13.2-.1c-.4-.6-.8-1.1-1.1-1.6v-.1c.1-.1.3-.1.5-.1s.3 0 .5-.1c.1 0 .1 0 .2.1.2.3.3.5.5.7 0 .1.1.1 0 .2l-.6.9z"/><path class="st17" d="M79 103.5c.2.2.4.4.6.5.1 0 .1.1 0 .2-.1.4-.3.7-.4 1.1 0 0 0 .1-.1.1l-.9.3h-.1c-.3-.1-.5-.2-.8-.3-.1 0-.1-.1-.2-.2-.1-.3-.2-.7-.4-1v-.2c.6-.5.6-.5 1.5-.5h.8zm-3.4-3.7c.3 0 .6.2.6.6 0 .1 0 .1-.1.1-.4.3-.9.1-1.1-.4v-.1c.3-.1.4-.2.6-.2zm5.1 0c.1 0 .1 0 0 0 .3 0 .6.2.6.3 0 .2-.3.5-.5.6h-.3c-.2 0-.4-.2-.4-.3 0-.3.2-.5.4-.6h.2z"/><path d="M5.7 113.1l20.7 4.4-2.4 7.8-19.1-8.4zm110.2-2.5L95.2 115l2.7 7.3 19-7.9z" fill-rule="evenodd" clip-rule="evenodd" fill="#cd9467"/><path class="st1" d="M27.1 119.7s4.7-15.4 7.8-27.4c.4-.8.8-1.6 1-2.6 1.4-5.8-2.2-11.6-8-12.9-4.8-1.1-9.6 1.1-11.9 5.2-4.7 8-7.7 15.8-11.5 32.6 0 0 11 3.4 22.6 5.1zm67.8-2.9s-5.4-12.7-9.1-24.6c-.5-.8-.9-1.6-1.1-2.5C83 84 86.3 78 92 76.4c4.6-1.4 9.5.6 12 4.6 5.1 7.8 7.2 13.1 11.9 29.8 0 0-9.6 3.8-21 6z"/><path class="st13" d="M47.9 51.5c-.6-.4-.4-.7-1.3-1.1l.5-.1 13.8-.1c-.3.6-1.2 1.2-1.9 1.7-1.4.8-7.5 1.7-11.1-.4z"/><path d="M49 50.9c-.5-.3-.7-.6-.7-1v.3l10.5.1V50c0 .5-.4.8-1 1.2-1 .5-5.9 1.2-8.8-.3z" fill="#fff"/><path class="st13" d="M47.2 50.2l-.7.2c1.2-.7 3.5-1.9 5.3-1.7 1 .1.6.4 1.4.2 2.5-.7 4.9.8 8.3 1.1-4.6.6-8.6 0-13.2.3l-1.1-.1z"/><path class="st16" d="M63.7 51.4c.1-1 .2-2-.3-2.8-.5-.7-.7-.8-1.8-.9 1.7.9 1.4 1.8 1.7 3.4.1.8.3 1.5.4.3zm-19 .3c-.1-1-.2-2 .3-2.8.5-.7.7-.8 1.8-.9-1.7.9-1.4 1.8-1.7 3.4-.2.7-.3 1.5-.4.3z"/><path class="st16" d="M72.5 16.4c-2.9-3.1-5.3-5.1-10.4-4.3-2.6.4-3.6.4-7.5-.4-1.5-.3 10.2 1 14.4 6.9 3.7 5.1 4.8 9.6 4.6 15.4-.1 4.1-.4 7.6-.9 11.2-.8 5.9-1.4 6.5-3.8 9.4-2 2.5-3.6 3.8-5.6 5.2-.2.1-.3.2-.5.4 1.6-.9 3-1.9 4-2.6 2-1.4 3.6-2.7 5.6-5.2 2.3-2.9 3-3.5 3.8-9.4.5-3.6.8-7.1.9-11.2.1-5.8-.4-10.9-4.6-15.4z"/></svg>