<svg version="1.1" id="Layer_1" xmlns="http://www.w3.org/2000/svg" x="0" y="0" viewBox="0 0 125.5 366.8" xml:space="preserve"><style>.st0{fill-rule:evenodd;clip-rule:evenodd;fill:#eeb989}.st1{fill:#cd9467}.st1,.st10,.st11{fill-rule:evenodd;clip-rule:evenodd}.st2{fill:#fbbfa3}.st2,.st3,.st4,.st5,.st9{fill-rule:evenodd;clip-rule:evenodd}.st3{fill:#061f28}.st4{fill:#152d37}.st5{fill:#623932}.st9{fill:#966d4a}.st10{fill:#bc967e}.st11{fill:#4385aa}.st12{fill:#9a7c68}.st14{fill:#966d4a}</style><path class="st0" d="M110.4 182.7c-.3-5.2-6.7-37.5-8.2-44.9 0-5.4-.4-39.6-4.6-53.5L76.9 90c3.8 17.5 6.9 44.6 7.1 48.5 0 .8.1 1.5.3 2.3 0 0 1.6 6.1 5.9 16C94.6 167.1 100 178 101 184c0 3.6-5.9 7.1-7.3 9.6-1.4 2.5.9 5.4.9 5.4s.1 3.1.7 4.8c.5 1.7 2.4 1.7 4.2.1 1.8-1.7 2.7 1 5.1.4 2.4-.6 2.9-2.7 5.8-1.7 2.9 1 0-19.9 0-19.9z"/><path class="st1" d="M91 159.1l2.5-16.6c1.1-7.1 4.2-13.7 8.9-19.1L85.8 125l5.2 34.1z"/><path class="st2" d="M78 87.3C78 93.2 82.8 98 88.7 98c5.9 0 10.7-4.8 10.7-10.7 0-5.9-4.8-10.7-10.7-10.7-5.9 0-10.7 4.8-10.7 10.7z"/><path class="st3" d="M36.6 347.3l1.9-10.1 11.6 1.7-.6 9.5s-2.2 4.3-8.2 4.4c-6.2 0-4.7-5.5-4.7-5.5zm48.9-6.5l.7 8.3 2.9 5.3 9.1-3 1.3-6.1-.5-9.5z"/><path class="st4" d="M122.7 354.9c-3.1-1.5-12.9-4.3-20.1-9.5-.8-.5-1.7-.8-2.6-.6l-.5.1s-.3 4.4-4.9 6c-3.1 1-8.3-1.7-8.3-1.7l.6 11.7h37.6c.7-.4.9-1.2.9-1.2s1.3-3-2.7-4.8zM46.8 349c-4.5-4.3-8.6-.7-8.6-.7l-1.7-1c-2.5 3.8-7.3 8.2-7.9 10.4-1.2 4.2.9 9 7.6 9 6.6 0 12.9-4 13.6-7.3.4-2-.3-7.3-.5-11.2l-2.5.8z"/><path class="st5" d="M57.4 179c0 8.7-7 15.7-15.7 15.7S26 187.7 26 179s7-15.7 15.7-15.7c8.6 0 15.7 7 15.7 15.7zm-2.7 81.6c0 7.3-5.9 13.3-13.3 13.3s-13.3-5.9-13.3-13.3c0-7.3 5.9-13.3 13.3-13.3s13.3 5.9 13.3 13.3zm35.4-83.4c1 8.6-5.2 16.4-13.8 17.4-8.6 1-16.4-5.2-17.4-13.8-1-8.6 5.2-16.4 13.8-17.4 8.6-1 16.4 5.2 17.4 13.8zm9.8 81.3c.6 7.3-7.8 14.2-15.2 14.8-7.3.6-10.7-5.2-11.4-12.5-.6-7.3 1.7-13.3 9.1-14 7.4-.6 16.8 4.3 17.5 11.7z"/><path class="st5" d="M90.2 163.3H41.6l-14.3-.2-1.3 16c0 8.6 7 15.6 15.6 15.6h32.8c.6 0 1.2 0 1.8-.1 8-.9 13.8-7.6 13.9-15.5h.1v-15.8z"/><path d="M99.9 258.5h-.2l-9.5-78.6v-16.5H41.7l-.1-.1v.1l-14.3-.2-.9 15.8h-.5l.1 5.5v2.5c0 1.4.1 2.8.3 4.2l1.8 69.4 4 84.7s11.2 3.2 21.1.3l1.4-83.7 1.5-46.2 8.9.5 8.4 46.3h.1l8.2 82.8s11.5 2.2 21.1-1.5l-2.9-85.3z" fill-rule="evenodd" clip-rule="evenodd" fill="#3c535d"/><path d="M97.9 81.8c3.1 5.1 1.4 11.7-3.6 14.7-5.1 3.1-11.7 1.5-14.8-3.6-3.1-5.1-1.4-11.7 3.6-14.8 5.1-3.1 11.7-1.4 14.8 3.7z" fill-rule="evenodd" clip-rule="evenodd"/><path d="M30.3 89.9c0 5.9-4.8 10.7-10.7 10.7-5.9 0-10.7-4.8-10.7-10.7 0-5.9 4.8-10.7 10.7-10.7 5.9 0 10.7 4.8 10.7 10.7z" fill-rule="evenodd" clip-rule="evenodd" fill="#f6e7d8"/><path class="st2" d="M30.3 89.9c0 5.9-4.8 10.7-10.7 10.7-5.9 0-10.7-4.8-10.7-10.7 0-5.9 4.8-10.7 10.7-10.7 5.9 0 10.7 4.8 10.7 10.7z"/><path class="st4" d="M106 123.3c-2.3-16.2-4.3-30-6.9-38.9-.5-1.9-1.6-3.5-2.9-4.8-.2-.2-.4-.4-.7-.6l-.3-.3C86.4 71.6 61 62.9 53.7 64.1 41.6 66 11.9 80 11 83.4c-.8 1.1-1.5 2.3-1.9 3.6-2.7 9-8.3 24.3-8.3 39.1 0 0 12.8 7.8 24.4 6.6 0 0 .4-5.9 1.1-12.7l2.7 21.4-3.8 46.5s34.2 13 69.3 2.1c0 0-1.9-30-4.1-61.7 5.1-1.1 11.9-2.8 15.6-5z"/><path class="st4" d="M104.6 123.3c-2.3-16.2-4.3-30-6.9-38.9-.5-1.9-1.6-3.5-2.9-4.8-.2-.2-.4-.4-.7-.6l-.3-.3C85 71.6 59.6 62.9 52.3 64.1 40.3 66 10.6 80 9.7 83.4c-.8 1.1-1.5 2.3-1.9 3.6C5.1 96 0 110.9 0 125.7c0 0 12.3 7.4 23.9 6.2 0 0 .4-5.1 1-11.9l2.7 21.4-3.8 46.5s34.2 13 69.3 2.1c0 0-1.9-30-4.1-61.7 5.1-1.1 11.9-2.8 15.6-5z"/><path class="st0" d="M60.5 75.1h-7.4c-3.9 0-7-3.1-7-7V52.2h21.4v15.9c0 3.9-3.1 7-7 7z"/><path class="st3" d="M57.5 76.3H55c-5.7 0-10.3-4.3-10.3-9.6v4.1c0 5.3 4.6 9.6 10.3 9.6h2.5c5.7 0 10.3-4.3 10.3-9.6v-4.1c0 5.3-4.6 9.6-10.3 9.6z"/><path class="st9" d="M52.4 65.2c-1.9-.8-3.7-2.1-5.4-3.3 2.1 4 6.4 6.7 11.3 6.7 4.8 0 8.9-2.6 11.1-6.3-4.9 5.1-11.2 5.3-17 2.9z"/><path class="st0" d="M40.4 45.5L39.9 34c-.3-.9-1-3.9-2.2-3.9-1 0-1.1 1-.9 1.8.3.8.3 1 .3 1.5-.1 2.4-.5 3.5-.4 5.5.1.9.2 1.3.4 1.8.3.5.4.8.4 1 .2 1.2.1 1.9.3 3 .3 1.5 1.8 2.6 2.6.8zm35.9-6.8l1.2-4.5c1.7-1.1 1.5.2 1 1.3-.7 1.5-.9 2.6-.9 4-.1 1.7-.4 2.8-.7 4.1-.8 3.2 1.2 4.4-3.3 5.1l2.7-10z"/><path class="st0" d="M39 25.5l.5 11 .3 6.3c.3 7.3.6 9.5 3.1 14.4 1.6 3.1 3.6 5.3 6.1 7.1 3.8 2.7 6.4 3.6 9.7 3.6 5.5-.1 7.8-1.9 10.3-5.4 3.7-5.2 5.9-17.7 7.6-24l1.5-10.7-1.6-9.6-5.4-7.2-17.2-3.4L43 14.4l-4 11.1z"/><path class="st10" d="M39.8 42.3v-3.1c1.8 6.4 3.4 12.8 8.6 17.5.5-3.8 3.8-5.1 6.5-5.7 2.3-.5 4.4-1 6.3-.3 3.1 1.2 6.2 2.8 7.2 6.6 2.7-3.7 4.5-8 6.7-12.1-1.6 6.3-2.4 11.3-5.6 16.5-4.2 6.8-10.5 7.4-16.2 5-1.8-.8-3.5-2.1-5.2-3.3-5.7-4.3-7.5-10.2-8.3-21.1z"/><path class="st10" d="M40.2 39.8c.2-3.4-.1-7 1.5-10.1.9-1.8 1.5-2.7.8-5.3-.5-1.8-.4-2.4.7-5.5 1.9-5.3 3.9-6.6 11.9-7.5 5.7-.6 10.9.3 16.5 4.4 6.9 5 4.4 11.5 4.1 26.5 3.4-9.4 4.3-14.4 2.7-21.9-1.3-6.1-2.1-7.6-5.6-12.6-1.5-1.9-3.4-3.5-5.5-4.8C62.9.3 57.4-.8 52.3.4c-4.7 1.1-7.5 4.9-11.8 11.9-1.6 2.6-2.6 3.4-3.2 8.2-.6 5 1.2 5.6 1.3 12.4.2 2.6.3 5.5 1.6 6.9z"/><path class="st0" d="M51.7 54.8c3.1-.8 4.4-2 7-.2 2.8-.8 4.1.1 6.8.9-2.6-.2-5.6-.1-8-.5-1.9-.3-3.9-.2-5.8-.2z"/><path class="st0" d="M51.9 54.8c3.1 3.1 10.6 2.7 13.5.7l-4.8-.7-2.1.1-3.2-.5-2.3.1-1.1.3z"/><path class="st0" d="M59.6 57.7c1.7 0 3.3-.4 4.8-1 5.7-2.3-1.9 10.3-10.9 3.3-2-1.6-3.3-3.8.8-2.7 1.3.3 3.5.4 5.3.4z"/><path class="st11" d="M68.2 38c.9 0 1.6-.7 1.6-1.6 0-.9-.7-1.6-1.6-1.6-.9 0-1.6.7-1.6 1.6 0 .9.7 1.6 1.6 1.6z"/><path class="st1" d="M66.7 32.8c2.7-1 5.6 0 8.4 2.3-3.4-1.2-5.4-1.6-7.8-1.3-2.6.3-4.6.4-.6-1zm-14.1-1c-2.8-.9-5.7-.3-8.5 1.7 3.9-1 6.4-1.1 8.2-.9.9 0 2.9 0 .3-.8zm12.9 23.7zm-13.9-.8l.3.3c1.8 0 3.7-.1 5.6.3 2.3.5 5.2.4 7.7.5l.3-.3c-2.6-.2-5.6 0-8.1-.6-1.9-.3-3.9-.2-5.8-.2z"/><path class="st9" d="M55.7 57.9s2.7.6 6.6 0c0 0-1.8.9-2.3.9-.5 0-2.3.1-3-.2-.2 0-1.3-.7-1.3-.7z"/><path class="st12" d="M70.8 15.6c-1.8-3.9-2.5-5-1.5-9.2-2.2 2.5-1.4 7.6 1.5 9.2zm-6.6-3.3c-1.8.2-.4-4.8-1.2-9.1 1.7 3 1.4 6.3 1.2 9.1zm-2.1-.1c-1.9-.1.3-4.2.1-8 1.2 2.8.4 5.6-.1 8z"/><path class="st12" d="M68.4 14.4c-1.1-3-1.6-3.8-.9-7-1.4 1.9-.9 5.8.9 7zm-7.7-4.6c1.5 1-.2-.3.7-4.5-1.2 2.2-1 2.3-.7 4.5zm-9.4 1.9c1.8-.1-.4-.2-2.2-4 .4 2.5.7 2.5 2.2 4zM71 13.5c1.2 1.3-.1-.4 1.8-4.2-1.8 1.9-1.6 2.1-1.8 4.2zm-20.9-1.3c1.7-.5-.4-.1-2.9-3.5.9 2.4 1.2 2.3 2.9 3.5zm-2.6.5c2.1-.6-.5-.1-3.7-4.4 1.2 2.9 1.5 2.9 3.7 4.4z"/><path class="st12" d="M60.9 11.9c-1.1-3-1.6-3.8-.9-7-1.5 1.9-1 5.8.9 7zm-5.6 0c-1.1-3-1.6-3.8-.9-7-1.5 1.9-1 5.8.9 7z"/><path class="st12" d="M57 11.9c-1.1-3-1.6-3.8-.9-7-1.5 1.9-1 5.8.9 7zm14.6 3.7c1.1-1.7 1.3-2.2 3.2-3-1.5 0-3.3 1.7-3.2 3zm.9.6c1.4-1.4 1.7-1.9 3.7-2.3-1.4-.4-3.5.9-3.7 2.3zm1.3.9c1.2-.9 1.5-1.2 3-1.3-1.1-.4-2.7.3-3 1.3zm-20.1-5.4c-2.4-2.7-3.2-3.4-3.7-7-.8 2.5 1.2 6.5 3.7 7zm-15.6 5.9c2.9-2.1 3.6-2.9 7.3-3.1-2.5-1-6.6.7-7.3 3.1z"/><path class="st12" d="M38.6 19c2.2-1.8 2.7-2.4 5.6-2.8-2-.6-5.1.9-5.6 2.8zm.4 3.1c1.6-2.4 1.9-3.1 4.5-4.3-2.1 0-4.7 2.4-4.5 4.3zm27.3-8.8C66 9.5 66 7 64.9 4.7c.4 2.7-.1 7.4 1.4 8.6z"/><path class="st11" d="M50.1 37.1c.9 0 1.6-.7 1.6-1.6 0-.9-.7-1.6-1.6-1.6-.9 0-1.6.7-1.6 1.6 0 .8.7 1.6 1.6 1.6z"/><path d="M56.3 34.8l2-.1v10.7c-1.1-.5-1.5-1.9-.8-3l.2-.3-1.4-7.3z" opacity=".25" fill="#fff"/><ellipse transform="rotate(-79.84 56.875 48.258)" class="st14" cx="56.9" cy="48.3" rx=".4" ry="1.8"/><ellipse transform="rotate(-10.929 61.642 48.351)" class="st14" cx="61.7" cy="48.4" rx="1.5" ry=".4"/><path class="st1" d="M54.5 44.7c-1.9.7-1.2 3.8 1.4 3.4.6-.1.9-.1 1.4.2 1.5.9 2.2 1.4 3.5.3.6-.5 1.4-.5 2.2-.5 1.6.1 1.7-.7 1.3-1.8-.5-1.4-2.1-2-.6-.1.3.4.1.8-.3 1-.6.3-1.9.2-2.9.6-1.1.5-1.4.5-3-.2-.6-.2-.9-.2-1.7-.2-.9 0-2.2-.3-1.8-1.5.1-.3.3-.6.7-.8 1-.5.6-.7-.2-.4z"/><path d="M49.3 208.3l22 .7 2.4 51.2-8.6-44-8.9-.4-2.1 76.5zm53.6 135.5v-.6l-3-84.7-3.6 86.9" fill-rule="evenodd" clip-rule="evenodd" fill="#324851"/><path d="M73.7 103.1c-.6.6-1.6.6-2.2 0l-5.7-5.7c-.6-.6-.6-1.6 0-2.2.6-.6 1.6-.6 2.2 0l5.7 5.7c.6.7.6 1.6 0 2.2z" fill="#6ec27b"/><path d="M79.5 103.1c-.6.6-1.6.6-2.2 0l-5.7-5.7c-.6-.6-.6-1.6 0-2.2.6-.6 1.6-.6 2.2 0l5.5 5.6c.6.6.8 1.7.2 2.3z" fill="#4e5eab"/><path d="M78.4 103.6c-.9 0-1.5-.7-1.5-1.5v-5.7c0-.9.7-1.5 1.5-1.5.9 0 1.5.7 1.5 1.5v5.7c0 .8-.7 1.5-1.5 1.5z" fill="#facc27"/><path d="M90.5 128.3l-3.4-25.5 2.7 88.1 4.7-.9zm-61.4 13.1L25.2 109l7.3 32-6.5 46z" fill="#061f28"/><path class="st0" d="M54.6 129.3c.6-.6 1.3-1.9 2-3.4.6-1.2 1.1-2.5 1.6-3.6 0-.3.1-.5.1-.8.3-1.5-.9-7.9-.3-8.8.6-.9 2-.3 2.9 1.4.3.7.8 2.4 1.2 3.7.4 1.2.6 2.4 1.8 1.9.4-.2 4.6-2.2 4.6-2.2s2.8-1.4 3.7-.8c.9.6 1.2 2.8 1.1 3.3-.1.5-.3.8-.3.8s1.2 2.1 1.2 3c0 .9-.4 1.4-.4 1.4s1 1.9.8 2.5c-.2.6-.4.9-.4.9s.8 1.9.6 2.7c-.6 2.1-5.8 4.6-7.6 5.7-1.8 1.1-7.7 1.8-9 2.2-1.3.3-11.2 3.5-11.2 3.5l1-7c-.1.1 4.9-4.7 6.6-6.4z"/><path class="st0" d="M71.9 124.9c-.3-.6 0-1.4.4-1.9.4-.6-1.3-1-1.2-1.7.2-1.3.8-2.5-.5-2.2-1 .2-1.8.7-2.5 1.3-.9.5-1.7 1.2-2.3 1.8-.4.3-.9.5-1.4.6-1 .2-2.4.2-2.6-1-.1-.9-.7-1.9-.3-2.6.6-1-.2-1.5-.7-2.6-.4-1-.4-1.5-1.3-2.1-.3-.2.3-1.6 0-1.5-.5.2-.6.8-.6 1.3 0 1.3 0 2.5-.1 3.8-.1 1.7-.4 3.7-1.1 5.3-1.9 4.4-3.6 4.7-8.1 8.8-4.6 4-13.4 7.5-23.3 12.7-.4.2-.8.4-1.1.6-.2-3.8-.3-8.3-.4-12.8-8.6.6-17.4-3.3-21.3-5.2C4.6 143.8 8 162.6 8 162.6c.2 1.3.8 2.6 1.6 3.8 3 4 8.7 4.9 12.7 1.9.3-.2.5-.4.8-.7 4.4-3.7 26-21.9 31.8-27.6 4.5-1.1 7.7-2 11.6-3.1 1.7-.5 1.5-3.6 3-4.8.7-.5 2 .3 1.5-.5-.3-.5.8 1 .5.5-.4-.7-.1-1.5.4-2.1.5-.6 1.1-1 1.6-1.6.4-.6.7-1.5.3-2.1-.5-.6-1.5-.7-1.9-1.4z"/><path class="st1" d="M46.7 134.3l-23.9 16.1-1-17.6 2.8-.1.5 12.8zm27.7-4.6c-.9 2.1-5.5 4.6-7.1 5.8-1.7 1.2-7.6 2.3-8.8 2.8-.4.1-1.8.6-3.4 1.3-.8.9-1.9 2-3.2 3.3 1.1-1 2-1.8 2.7-2.5 1.7-.5 3-.9 3.5-1.1 1.3-.4 7.2-1.1 9-2.2 1.8-1.1 6.9-3.6 7.6-5.7.1-.4-.1-1.1-.3-1.7z"/><path d="M61.2 35.2c.8.8.7 4 .5 6.1-.2 1.9 1.5 2.9 0 3.1-1.5.2-1.3-.2-1.4-1.4-.2-2.5-.1-8.7.9-7.8z" opacity=".15" fill="#fff"/><path class="st12" d="M66.2 12.7h.4l1.4.4 1 .8c-.2-7.5-2-8.1-7.7-11.7 1.6 1.4 3 2.9 3.9 4.5-2-1.5-4.1-2.7-6.3-3.5C60.1 5.1 61 6.6 61 7.7c-4.5-2.8-4.3-2.7-9.6-3.4C53.8 5.8 55 5.9 56 8.5c-1.2-.9-2.5-1.6-4.1-1.9 1.1.5 1.9 1.1 2.2 2-2.7-.7-4-1.5-6.8-.8 1.5.2 2.6.5 3.3 1.1l-4.1.7 3 .6.8.5h1.3l1.9.7 1.8.6 1.3.2h1.1l1.4-.2h.6l.7.2 1.1.6c.9.4 1.8.5 2.8.4l1.9-.5z"/><path class="st12" d="M55.6 11.3c-3.1.6-4.6.5-7 1.4-3.4 1.2-5 4.4-6.5 7.5.5-3.8.5-5.3 3.8-7.5 2.5-1.7 5.1-2.5 9.7-1.4z"/><path d="M56.2 34.8c2.3-.4 2.8.5 5.3.3-2.9-.6-2.5-1.8-5.3-.3z" fill="#cd9467"/></svg>