<svg width="945" height="386" viewBox="0 0 945 386" fill="none" xmlns="http://www.w3.org/2000/svg">
<path d="M171.8 249.8V64.4L74.6 249.8H171.8ZM231.2 386H184.4C176 386 171.8 381.8 171.8 373.4V315.8H23C16.2 315.8 10.8 313.8 6.8 309.8C2.8 305.8 0.8 300.4 0.8 293.6V270.2C0.8 258.2 2.8 248.4 6.8 240.8L126.2 18.8C130.2 11.6 133.8 6.79997 137 4.39998C140.6 1.59999 145.8 0.199996 152.6 0.199996H220.4C227.2 0.199996 232.6 2.19999 236.6 6.19999C241 10.2 243.2 15.6 243.2 22.4V249.8H286.4C294.4 249.8 298.4 253.8 298.4 261.8V302C298.4 311.2 294.4 315.8 286.4 315.8H243.2V373.4C243.2 378.2 242.2 381.6 240.2 383.6C238.6 385.2 235.6 386 231.2 386ZM818.089 249.8V64.4L720.889 249.8H818.089ZM877.489 386H830.689C822.289 386 818.089 381.8 818.089 373.4V315.8H669.289C662.489 315.8 657.089 313.8 653.089 309.8C649.089 305.8 647.089 300.4 647.089 293.6V270.2C647.089 258.2 649.089 248.4 653.089 240.8L772.489 18.8C776.489 11.6 780.089 6.79997 783.289 4.39998C786.889 1.59999 792.089 0.199996 798.889 0.199996H866.689C873.489 0.199996 878.889 2.19999 882.889 6.19999C887.289 10.2 889.489 15.6 889.489 22.4V249.8H932.689C940.689 249.8 944.689 253.8 944.689 261.8V302C944.689 311.2 940.689 315.8 932.689 315.8H889.489V373.4C889.489 378.2 888.489 381.6 886.489 383.6C884.889 385.2 881.889 386 877.489 386Z" fill="#2C2C2C"/>
<path d="M449.009 320H484.409C497.209 320 506.209 317.4 511.409 312.2C516.609 306.6 519.209 297.4 519.209 284.6V101.6C519.209 88.8 516.609 79.8 511.409 74.6C506.209 69 497.209 66.2 484.409 66.2H449.009C436.209 66.2 427.209 69 422.009 74.6C416.809 79.8 414.209 88.8 414.209 101.6V284.6C414.209 297.4 416.809 306.6 422.009 312.2C427.209 317.4 436.209 320 449.009 320ZM496.409 386H436.409C404.809 386 380.409 377.6 363.209 360.8C346.009 344 337.409 319.8 337.409 288.2V98C337.409 66.4 346.009 42.2 363.209 25.4C380.409 8.6 404.809 0.199996 436.409 0.199996H496.409C527.609 0.199996 551.809 8.79999 569.009 26C586.209 42.8 594.809 66.8 594.809 98V288.2C594.809 319.4 586.209 343.6 569.009 360.8C551.809 377.6 527.609 386 496.409 386Z" fill="#26E37A"/>
</svg>
