<svg width="40" height="40" viewBox="0 0 40 40" fill="none" xmlns="http://www.w3.org/2000/svg">
<path d="M20 5C11.7137 5 5 11.7137 5 20C5 28.2863 11.7137 35 20 35C28.2863 35 35 28.2863 35 20C35 19.395 34.9562 18.8 34.8825 18.2075C34.3652 18.5623 33.7523 18.7514 33.125 18.75C32.4863 18.7486 31.8633 18.5513 31.3403 18.1848C30.8172 17.8182 30.4192 17.2999 30.2 16.7C29.395 17.2194 28.458 17.497 27.5 17.5C24.7375 17.5 22.5 15.2625 22.5 12.5C22.5 11.5825 22.7625 10.7325 23.1987 9.99C23.1746 9.99575 23.1499 9.9991 23.125 10C22.7145 10.0005 22.3079 9.92 21.9285 9.76313C21.5492 9.60626 21.2045 9.37609 20.9142 9.08581C20.6239 8.79553 20.3937 8.45083 20.2369 8.07147C20.08 7.6921 19.9995 7.28552 20 6.875C20 6.17625 20.235 5.5425 20.62 5.025C20.415 5.015 20.21 5 20 5ZM29.375 5C29.1288 5 28.885 5.0485 28.6575 5.14273C28.43 5.23695 28.2233 5.37506 28.0492 5.54917C27.8751 5.72328 27.737 5.92998 27.6427 6.15747C27.5485 6.38495 27.5 6.62877 27.5 6.875C27.5 7.12123 27.5485 7.36505 27.6427 7.59253C27.737 7.82002 27.8751 8.02672 28.0492 8.20083C28.2233 8.37494 28.43 8.51305 28.6575 8.60727C28.885 8.7015 29.1288 8.75 29.375 8.75C29.8723 8.75 30.3492 8.55246 30.7008 8.20083C31.0525 7.84919 31.25 7.37228 31.25 6.875C31.25 6.37772 31.0525 5.90081 30.7008 5.54917C30.3492 5.19754 29.8723 5 29.375 5ZM17.5625 7.735C17.6861 8.5165 17.9721 9.26343 18.402 9.92763C18.832 10.5918 19.3963 11.1585 20.0588 11.5912C20.0196 11.8926 19.9999 12.1961 20 12.5C20 16.6362 23.3638 20 27.5 20C28.12 20 28.74 19.9213 29.3363 19.765C30.1965 20.557 31.2815 21.0623 32.4412 21.2113C31.8312 27.5375 26.485 32.5 20 32.5C13.105 32.5 7.5 26.895 7.5 20C7.5 13.94 11.8363 8.8725 17.5625 7.73375V7.735ZM27.5 11.25C26.8125 11.25 26.25 11.8125 26.25 12.5C26.25 13.1875 26.8125 13.75 27.5 13.75C28.1875 13.75 28.75 13.1875 28.75 12.5C28.75 11.8125 28.1875 11.25 27.5 11.25ZM17.5 12.5C16.8125 12.5 16.25 13.0625 16.25 13.75C16.25 14.4375 16.8125 15 17.5 15C18.1875 15 18.75 14.4375 18.75 13.75C18.75 13.0625 18.1875 12.5 17.5 12.5ZM33.75 12.5C33.0625 12.5 32.5 13.0625 32.5 13.75C32.5 14.4375 33.0625 15 33.75 15C34.4375 15 35 14.4375 35 13.75C35 13.0625 34.4375 12.5 33.75 12.5ZM13.75 16.25C13.087 16.25 12.4511 16.5134 11.9822 16.9822C11.5134 17.4511 11.25 18.087 11.25 18.75C11.25 19.413 11.5134 20.0489 11.9822 20.5178C12.4511 20.9866 13.087 21.25 13.75 21.25C14.413 21.25 15.0489 20.9866 15.5178 20.5178C15.9866 20.0489 16.25 19.413 16.25 18.75C16.25 18.087 15.9866 17.4511 15.5178 16.9822C15.0489 16.5134 14.413 16.25 13.75 16.25ZM20 18.75C19.3125 18.75 18.75 19.3125 18.75 20C18.75 20.6875 19.3125 21.25 20 21.25C20.6875 21.25 21.25 20.6875 21.25 20C21.25 19.3125 20.6875 18.75 20 18.75ZM15.625 23.75C15.1277 23.75 14.6508 23.9475 14.2992 24.2992C13.9475 24.6508 13.75 25.1277 13.75 25.625C13.75 26.1223 13.9475 26.5992 14.2992 26.9508C14.6508 27.3025 15.1277 27.5 15.625 27.5C16.1223 27.5 16.5992 27.3025 16.9508 26.9508C17.3025 26.5992 17.5 26.1223 17.5 25.625C17.5 25.1277 17.3025 24.6508 16.9508 24.2992C16.5992 23.9475 16.1223 23.75 15.625 23.75ZM24.375 25C23.8777 25 23.4008 25.1975 23.0492 25.5492C22.6975 25.9008 22.5 26.3777 22.5 26.875C22.5 27.3723 22.6975 27.8492 23.0492 28.2008C23.4008 28.5525 23.8777 28.75 24.375 28.75C24.8723 28.75 25.3492 28.5525 25.7008 28.2008C26.0525 27.8492 26.25 27.3723 26.25 26.875C26.25 26.3777 26.0525 25.9008 25.7008 25.5492C25.3492 25.1975 24.8723 25 24.375 25Z" fill="#26E37A"/>
</svg>
