<svg viewBox="0 0 168 60" fill="none" xmlns="http://www.w3.org/2000/svg">
<g clip-path="url(#clip0_493_1277)">
<path d="M86.1045 20.3909H82.9378C81.4131 20.3909 80.2235 19.9888 79.4025 19.1678C78.5647 18.3636 78.1626 17.1907 78.1626 15.666V6.46746C78.1626 4.94275 78.5815 3.76989 79.4025 2.96565C80.2402 2.1614 81.4131 1.74252 82.9378 1.74252H86.1045C87.6125 1.74252 88.7853 2.1614 89.6231 2.9824C90.4608 3.8034 90.8797 4.97626 90.8797 6.48422V7.84138C90.8797 8.26026 90.6619 8.47807 90.243 8.47807H87.8135C87.4114 8.47807 87.2104 8.26026 87.2104 7.84138V6.65177C87.2104 6.03183 87.0763 5.59619 86.825 5.32811C86.5569 5.06003 86.1213 4.94275 85.5013 4.94275H83.5242C82.921 4.94275 82.5022 5.07679 82.2341 5.32811C81.966 5.59619 81.8487 6.03183 81.8487 6.65177V15.4985C81.8487 16.1184 81.9828 16.554 82.2341 16.8221C82.5022 17.0902 82.921 17.2075 83.5242 17.2075H85.5013C86.1213 17.2075 86.5569 17.0734 86.825 16.8221C87.0931 16.554 87.2104 16.1184 87.2104 15.4985V14.3088C87.2104 13.89 87.4114 13.6722 87.8135 13.6722H90.243C90.6619 13.6722 90.8797 13.89 90.8797 14.3088V15.666C90.8797 17.174 90.4608 18.3468 89.6231 19.1678C88.7853 19.9721 87.6125 20.3909 86.1045 20.3909Z" fill="white"/>
<path d="M96.8277 20.3909H94.3647C93.9625 20.3909 93.7615 20.1899 93.7615 19.7878V6.19937C93.7615 5.79725 93.9625 5.59619 94.3647 5.59619H96.8277C97.2298 5.59619 97.4308 5.79725 97.4308 6.19937V7.18793H97.5481C97.7659 6.66852 98.1346 6.26639 98.6707 5.99831C99.2069 5.73023 99.7766 5.59619 100.38 5.59619H101.419C101.804 5.59619 102.005 5.79725 102.005 6.19937V8.20999C102.005 8.44456 101.955 8.59535 101.871 8.69588C101.787 8.79641 101.636 8.81317 101.419 8.79641H99.4247C98.0843 8.79641 97.4308 9.55039 97.4308 11.0584V19.771C97.4308 20.1899 97.2298 20.3909 96.8277 20.3909Z" fill="white"/>
<path d="M114.773 20.3909H108.372C106.847 20.3909 105.658 19.9888 104.837 19.1678C103.999 18.3636 103.597 17.1907 103.597 15.666V10.3211C103.597 8.79641 104.016 7.62356 104.837 6.81931C105.675 6.01507 106.847 5.59619 108.372 5.59619H110.668C112.192 5.59619 113.382 5.99831 114.203 6.81931C115.041 7.62356 115.443 8.79641 115.443 10.3211V14.0072C115.443 14.4094 115.242 14.6104 114.84 14.6104H107.568C107.333 14.6104 107.216 14.711 107.216 14.9288V15.5655C107.216 16.1687 107.35 16.5875 107.601 16.8556C107.869 17.1237 108.305 17.241 108.925 17.241H114.789C115.191 17.241 115.393 17.4588 115.393 17.8777V19.7878C115.393 20.0056 115.342 20.1564 115.258 20.2401C115.175 20.3407 115.007 20.3909 114.773 20.3909ZM107.551 12.1474H111.489C111.706 12.1474 111.807 12.0469 111.807 11.8291V10.4384C111.807 9.81847 111.673 9.38284 111.422 9.13152C111.17 8.88019 110.735 8.74615 110.115 8.74615H108.892C108.272 8.74615 107.836 8.88019 107.585 9.13152C107.333 9.38284 107.216 9.81847 107.216 10.4384V11.8291C107.233 12.0469 107.35 12.1474 107.551 12.1474Z" fill="white"/>
<path d="M123.619 20.391H122.43C120.938 20.391 119.816 19.9888 119.045 19.1678C118.274 18.3636 117.906 17.1907 117.906 15.666V10.3211C117.906 8.79642 118.291 7.62357 119.045 6.81932C119.816 6.01508 120.938 5.5962 122.43 5.5962H123.619C124.222 5.5962 124.792 5.73024 125.328 5.98157C125.864 6.24965 126.25 6.63502 126.451 7.15443H126.568V0.603183C126.568 0.201061 126.769 0 127.171 0H129.634C130.036 0 130.238 0.201061 130.238 0.603183V19.771C130.238 20.1731 130.036 20.3742 129.634 20.3742H127.171C126.769 20.3742 126.568 20.1731 126.568 19.771V18.816H126.451C126.233 19.3354 125.864 19.7375 125.328 19.9888C124.792 20.2569 124.222 20.391 123.619 20.391ZM126.585 14.9958V10.9913C126.585 9.51689 125.915 8.77967 124.591 8.77967H123.284C122.664 8.77967 122.229 8.91371 121.977 9.16504C121.726 9.43312 121.592 9.86875 121.592 10.4887V15.4817C121.592 16.1016 121.709 16.5373 121.977 16.8054C122.229 17.0734 122.664 17.1907 123.284 17.1907H124.591C125.915 17.1907 126.585 16.4535 126.585 14.9958Z" fill="white"/>
<path d="M133.588 3.09969V0.586428C133.588 0.201061 133.789 0 134.175 0H136.705C137.09 0 137.291 0.184306 137.291 0.552918V3.09969C137.291 3.48506 137.09 3.68612 136.705 3.68612H134.175C133.789 3.68612 133.588 3.48506 133.588 3.09969ZM133.588 19.771V6.19939C133.588 5.79726 133.789 5.5962 134.175 5.5962H136.671C137.073 5.5962 137.274 5.79726 137.274 6.19939V19.771C137.274 20.0223 137.224 20.1899 137.14 20.2569C137.057 20.3239 136.906 20.3742 136.688 20.3742H134.208C133.806 20.391 133.588 20.1899 133.588 19.771Z" fill="white"/>
<path d="M140.927 8.77968H139.771C139.536 8.77968 139.386 8.74617 139.285 8.6624C139.201 8.57862 139.151 8.42783 139.151 8.19326V6.1994C139.151 5.79728 139.352 5.59622 139.754 5.59622H140.91C141.128 5.59622 141.229 5.49568 141.229 5.27787V2.53003C141.229 2.12791 141.447 1.92685 141.865 1.92685H144.295C144.697 1.92685 144.898 2.12791 144.898 2.53003V5.27787C144.898 5.49568 145.015 5.59622 145.25 5.59622H147.512C147.914 5.59622 148.115 5.79728 148.115 6.1994V8.21001C148.115 8.42783 148.065 8.57862 147.981 8.6624C147.897 8.74617 147.73 8.79644 147.495 8.79644H145.233C144.999 8.79644 144.881 8.89697 144.881 9.11479V15.5152C144.881 16.1184 145.015 16.5373 145.283 16.8054C145.552 17.0735 146.004 17.1907 146.624 17.1907H147.78C148.182 17.1907 148.383 17.3918 148.383 17.7939V19.7878C148.383 20.0056 148.333 20.1564 148.249 20.2402C148.165 20.3239 147.998 20.3742 147.763 20.3742H145.987C144.462 20.3742 143.273 19.9721 142.435 19.1511C141.597 18.3468 141.178 17.174 141.178 15.666V9.09803C141.246 8.89697 141.145 8.77968 140.927 8.77968Z" fill="white"/>
<path d="M157.917 20.3909H155.336C153.812 20.3909 152.622 19.9888 151.801 19.1678C150.963 18.3636 150.561 17.1907 150.561 15.666V10.3211C150.561 8.79641 150.98 7.62356 151.801 6.81931C152.639 6.01507 153.812 5.59619 155.336 5.59619H157.917C159.425 5.59619 160.598 6.01507 161.435 6.83607C162.273 7.65707 162.692 8.82992 162.692 10.3379V15.666C162.692 17.174 162.273 18.3468 161.435 19.1678C160.614 19.9721 159.425 20.3909 157.917 20.3909ZM155.889 17.2242H157.364C157.984 17.2242 158.419 17.1069 158.688 16.8556C158.956 16.6043 159.073 16.1687 159.073 15.5487V10.4384C159.073 9.81847 158.939 9.38284 158.688 9.13152C158.436 8.88019 157.984 8.74615 157.364 8.74615H155.889C155.269 8.74615 154.834 8.88019 154.583 9.13152C154.331 9.38284 154.214 9.81847 154.214 10.4384V15.5487C154.214 16.1687 154.331 16.6043 154.583 16.8556C154.834 17.0902 155.269 17.2242 155.889 17.2242Z" fill="white"/>
<path d="M78.4475 54.5713V37.146C78.4475 36.7439 78.6486 36.5429 79.0507 36.5429H86.2051C87.7131 36.5429 88.8859 36.9617 89.7237 37.7827C90.5614 38.6037 90.9803 39.7766 90.9803 41.2846V50.4831C90.9803 51.9911 90.5614 53.1639 89.7237 53.9849C88.8859 54.8059 87.7131 55.2248 86.2051 55.2248H79.0507C78.6486 55.1745 78.4475 54.9735 78.4475 54.5713ZM82.452 51.9911H85.6187C86.2386 51.9911 86.6743 51.857 86.9423 51.6057C87.2104 51.3376 87.3277 50.902 87.3277 50.282V41.4353C87.3277 40.8154 87.1937 40.3798 86.9423 40.1117C86.6743 39.8436 86.2386 39.7263 85.6187 39.7263H82.452C82.2342 39.7263 82.1336 39.8269 82.1336 40.0447V51.6727C82.1336 51.8905 82.2342 51.9911 82.452 51.9911Z" fill="white"/>
<path d="M94.3313 37.9V35.37C94.3313 34.9846 94.5324 34.7836 94.9177 34.7836H97.4477C97.8331 34.7836 98.0342 34.9679 98.0342 35.3365V37.8833C98.0342 38.2686 97.8331 38.4697 97.4477 38.4697H94.9177C94.5324 38.4865 94.3313 38.2854 94.3313 37.9ZM94.3313 54.5714V40.9997C94.3313 40.5976 94.5324 40.3965 94.9177 40.3965H97.4142C97.8164 40.3965 98.0174 40.5976 98.0174 40.9997V54.5714C98.0174 54.8227 97.9672 54.9902 97.8834 55.0573C97.7996 55.141 97.6488 55.1745 97.431 55.1745H94.9345C94.5324 55.1745 94.3313 54.9735 94.3313 54.5714Z" fill="white"/>
<path d="M106.579 54.5211H105.624C104.133 54.5211 103.01 54.119 102.24 53.298C101.469 52.4937 101.1 51.3209 101.1 49.7962V45.1215C101.1 43.5968 101.519 42.4239 102.34 41.6197C103.178 40.8154 104.351 40.3965 105.876 40.3965H112.578C112.996 40.3965 113.214 40.5976 113.214 40.9997V55.2918C113.214 56.7998 112.795 57.9559 111.958 58.7769C111.12 59.5811 109.947 60 108.439 60H102.876C102.642 60 102.491 59.9497 102.39 59.866C102.307 59.7822 102.256 59.6314 102.256 59.4136V57.4197C102.256 57.0176 102.458 56.8165 102.86 56.8165H107.819C108.439 56.8165 108.875 56.6825 109.143 56.4312C109.411 56.1631 109.528 55.7442 109.528 55.141V52.9294H109.411C109.193 53.4488 108.824 53.8509 108.288 54.119C107.735 54.387 107.166 54.5211 106.579 54.5211ZM109.528 49.126V43.8984C109.528 43.6805 109.411 43.58 109.176 43.58H106.445C105.825 43.58 105.39 43.7141 105.138 43.9654C104.887 44.2335 104.753 44.6691 104.753 45.289V49.6118C104.753 50.2318 104.87 50.6674 105.138 50.9187C105.39 51.1701 105.825 51.2874 106.445 51.2874H107.518C108.858 51.2874 109.528 50.5669 109.528 49.126Z" fill="white"/>
<path d="M116.549 37.9V35.37C116.549 34.9846 116.75 34.7836 117.135 34.7836H119.665C120.05 34.7836 120.251 34.9679 120.251 35.3365V37.8833C120.251 38.2686 120.05 38.4697 119.665 38.4697H117.118C116.733 38.4865 116.549 38.2854 116.549 37.9ZM116.549 54.5714V40.9997C116.549 40.5976 116.75 40.3965 117.135 40.3965H119.632C120.034 40.3965 120.235 40.5976 120.235 40.9997V54.5714C120.235 54.8227 120.184 54.9902 120.101 55.0573C120.017 55.141 119.866 55.1745 119.648 55.1745H117.152C116.75 55.1745 116.549 54.9735 116.549 54.5714Z" fill="white"/>
<path d="M123.887 43.58H122.731C122.497 43.58 122.346 43.5465 122.245 43.4627C122.162 43.3789 122.111 43.2282 122.111 42.9936V40.9997C122.111 40.5976 122.312 40.3965 122.715 40.3965H123.871C124.088 40.3965 124.189 40.296 124.189 40.0782V37.3304C124.189 36.9282 124.407 36.7272 124.826 36.7272H127.255C127.657 36.7272 127.858 36.9282 127.858 37.3304V40.0782C127.858 40.296 127.976 40.3965 128.21 40.3965H130.472C130.874 40.3965 131.075 40.5976 131.075 40.9997V42.9936C131.075 43.2114 131.025 43.3622 130.941 43.446C130.857 43.5297 130.69 43.58 130.455 43.58H128.193C127.959 43.58 127.842 43.6805 127.842 43.8984V50.2988C127.842 50.902 127.976 51.3209 128.244 51.5889C128.512 51.857 128.964 51.9743 129.584 51.9743H130.74C131.142 51.9743 131.343 52.1754 131.343 52.5775V54.5714C131.343 54.7892 131.293 54.94 131.209 55.0237C131.126 55.1075 130.958 55.1578 130.723 55.1578H129.014C127.49 55.1578 126.3 54.7557 125.462 53.9347C124.625 53.1304 124.206 51.9576 124.206 50.4496V43.8984C124.206 43.6805 124.088 43.58 123.887 43.58Z" fill="white"/>
<path d="M138.984 55.1745H138.28C136.755 55.1745 135.566 54.7724 134.745 53.9514C133.907 53.1472 133.505 51.9743 133.505 50.4496V45.1215C133.505 43.5968 133.924 42.4239 134.745 41.6197C135.582 40.8154 136.755 40.3965 138.28 40.3965H144.982C145.401 40.3965 145.619 40.5976 145.619 40.9997V54.5714C145.619 54.9735 145.401 55.1745 144.982 55.1745H142.552C142.15 55.1745 141.949 54.9735 141.949 54.5714V53.6163H141.832C141.614 54.1357 141.245 54.5378 140.709 54.7892C140.156 55.0573 139.587 55.1745 138.984 55.1745ZM141.949 49.7962V43.8984C141.949 43.6805 141.832 43.58 141.597 43.58H138.866C138.246 43.58 137.811 43.7141 137.559 43.9654C137.308 44.2335 137.174 44.6691 137.174 45.289V50.2821C137.174 50.902 137.291 51.3376 137.559 51.6057C137.811 51.8738 138.246 51.9911 138.866 51.9911H139.939C141.279 51.9911 141.949 51.2538 141.949 49.7962Z" fill="white"/>
<path d="M152.036 55.1745H149.573C149.171 55.1745 148.97 54.9735 148.97 54.5713V35.4035C148.97 35.0014 149.171 34.8003 149.573 34.8003H152.036C152.438 34.8003 152.639 35.0014 152.639 35.4035V54.5713C152.639 54.9735 152.438 55.1745 152.036 55.1745Z" fill="white"/>
<path d="M166.881 55.1745H160.48C158.956 55.1745 157.766 54.7724 156.945 53.9514C156.107 53.1472 155.705 51.9743 155.705 50.4496V45.1215C155.705 43.5968 156.124 42.4239 156.945 41.6197C157.783 40.8154 158.956 40.3965 160.48 40.3965H162.776C164.3 40.3965 165.49 40.7987 166.311 41.6197C167.149 42.4239 167.551 43.5968 167.551 45.1215V48.8076C167.551 49.2097 167.35 49.4108 166.948 49.4108H159.676C159.441 49.4108 159.324 49.5113 159.324 49.7291V50.3658C159.324 50.969 159.458 51.3879 159.71 51.656C159.978 51.924 160.413 52.0413 161.033 52.0413H166.897C167.3 52.0413 167.501 52.2592 167.501 52.678V54.5881C167.501 54.8059 167.45 54.9567 167.367 55.0405C167.283 55.141 167.115 55.1745 166.881 55.1745ZM159.659 46.9478H163.597C163.815 46.9478 163.915 46.8473 163.915 46.6294V45.2388C163.915 44.6188 163.781 44.1832 163.53 43.9319C163.278 43.6805 162.843 43.5465 162.223 43.5465H161C160.38 43.5465 159.944 43.6805 159.693 43.9319C159.441 44.1832 159.324 44.6188 159.324 45.2388V46.6294C159.341 46.8473 159.458 46.9478 159.659 46.9478Z" fill="white"/>
<path d="M38.7379 47.7688C38.7379 50.7847 36.9116 53.6163 33.9292 54.7724C30.0587 56.2636 25.7359 54.32 24.2447 50.4663C23.9096 49.5783 23.7421 48.6735 23.7421 47.7855C23.7421 47.0315 23.8426 46.4116 23.8594 46.3111C23.9431 45.8754 24.0102 45.5403 24.0772 45.2555C24.3955 43.9989 24.8144 42.6585 24.8144 42.1726C24.8144 41.938 24.9484 40.7651 24.4458 39.4247C23.9934 38.2519 23.2562 37.3806 22.2844 36.5429C21.6644 36.0067 20.8434 35.4705 20.0727 34.9846C19.6873 34.7501 18.9836 34.2977 18.2799 33.5269C17.6935 32.8902 17.2243 32.1195 16.8892 31.265C16.8725 31.2315 16.8725 31.2147 16.8557 31.1812C16.8222 31.0974 16.7887 31.0137 16.772 30.9299C15.5153 27.16 17.4422 23.0215 21.2121 21.5805C22.1001 21.2454 23.0048 21.0779 23.8929 21.0779C26.9088 21.0779 29.7404 22.9042 30.8965 25.8866C30.8965 25.8866 30.8965 25.8866 30.8965 25.9034C31.2148 26.7579 31.3656 27.6459 31.3656 28.5004C31.3656 29.2544 31.1813 29.9246 30.93 30.9969C30.7289 31.8347 30.7122 31.7174 30.5949 32.3038C30.3938 33.2253 30.1258 34.482 30.4274 35.9564C30.5446 36.5093 30.7457 36.9115 30.8127 37.0958C30.9803 37.4979 31.751 38.6707 32.505 39.3074C33.6611 40.2625 33.393 39.9609 35.0853 41.3013C37.0456 42.8763 37.7996 43.8983 38.252 45.1047C38.2352 45.088 38.7379 46.3278 38.7379 47.7688Z" fill="url(#paint0_linear_493_1277)"/>
<path d="M10.1871 54.7724C6.31671 56.2468 1.99389 54.32 0.502687 50.4496C-0.971761 46.5792 0.955075 42.2563 4.8255 40.7651C8.69593 39.2907 13.0187 41.2175 14.5099 45.088C15.9844 48.9584 14.0408 53.2979 10.1871 54.7724Z" fill="url(#paint1_linear_493_1277)"/>
<path d="M62.6307 47.7688C62.6307 50.7847 60.8044 53.6163 57.822 54.7724C53.9516 56.2636 49.6287 54.32 48.1375 50.4663C47.8024 49.5783 47.6349 48.6735 47.6349 47.7855C47.6349 47.0315 47.7354 46.4116 47.7522 46.3111C47.836 45.8754 47.903 45.5403 47.97 45.2555C48.2883 43.9989 48.7072 42.6585 48.7072 42.1726C48.7072 41.938 48.8413 40.7651 48.3386 39.4247C47.8862 38.2519 47.149 37.3806 46.1772 36.5429C45.5573 36.0067 44.7363 35.4705 43.9655 34.9846C43.5802 34.7501 42.8764 34.2977 42.1727 33.5269C41.5863 32.8902 41.1172 32.1195 40.7821 31.265C40.7653 31.2315 40.7653 31.2147 40.7485 31.1812C40.715 31.0974 40.6815 31.0137 40.6648 30.9299C39.4081 27.16 41.335 23.0215 45.1049 21.5805C45.9929 21.2454 46.8977 21.0779 47.7857 21.0779C50.8016 21.0779 53.6332 22.9042 54.7893 25.8866C54.7893 25.8866 54.7893 25.8866 54.7893 25.9034C55.1077 26.7579 55.2585 27.6459 55.2585 28.5004C55.2585 29.2544 55.0742 29.9246 54.8228 30.9969C54.6218 31.8347 54.605 31.7174 54.4877 32.3038C54.2867 33.2253 54.0186 34.482 54.3202 35.9564C54.4375 36.5093 54.6385 36.9115 54.7055 37.0958C54.8731 37.4979 55.6438 38.6707 56.3978 39.3074C57.5539 40.2625 57.2858 39.9609 58.9781 41.3013C60.9384 42.8763 61.6924 43.8983 62.1448 45.1047C62.1448 45.088 62.6307 46.3278 62.6307 47.7688Z" fill="url(#paint2_linear_493_1277)"/>
<path d="M55.2415 28.5172C55.2415 31.5331 53.4152 34.3647 50.4328 35.5208C46.5624 37.012 42.2396 35.0684 40.7484 31.2147C40.4133 30.3267 40.2457 29.4219 40.2457 28.5339C40.2457 27.7799 40.3463 27.16 40.363 27.0595C40.4468 26.6238 40.5138 26.2887 40.5808 26.0039C40.8992 24.7473 41.3181 23.4069 41.3181 22.921C41.3181 22.6864 41.4521 21.5135 40.9494 20.1731C40.4971 19.0003 39.7598 18.129 38.788 17.2912C38.1681 16.7551 37.3471 16.2189 36.5764 15.733C36.191 15.4985 35.4873 15.0461 34.7836 14.2753C34.1971 13.6386 33.728 12.8679 33.3929 12.0134C33.3761 11.9799 33.3761 11.9631 33.3594 11.9296C33.3259 11.8458 33.2924 11.7621 33.2756 11.6783C32.019 7.90839 33.9458 3.76989 37.7157 2.32895C38.6037 1.99384 39.5085 1.82629 40.3965 1.82629C43.4124 1.82629 46.2441 3.6526 47.4002 6.63501C47.4002 6.63501 47.4002 6.63501 47.4002 6.65176C47.7185 7.50627 47.8693 8.39429 47.8693 9.2488C47.8693 10.0028 47.685 10.673 47.4337 11.7453C47.2326 12.5831 47.2159 12.4658 47.0986 13.0522C46.8975 13.9737 46.6294 15.2304 46.931 16.7048C47.0483 17.2577 47.2494 17.6599 47.3164 17.8442C47.4839 18.2463 48.2547 19.4191 49.0086 20.0558C50.1648 21.0109 49.8967 20.7093 51.5889 22.0497C53.5493 23.6247 54.3033 24.6467 54.7556 25.8531C54.7556 25.8363 55.2415 27.0762 55.2415 28.5172Z" fill="url(#paint3_linear_493_1277)"/>
</g>
<defs>
<linearGradient id="paint0_linear_493_1277" x1="2.59771" y1="50.0975" x2="55.259" y2="24.9371" gradientUnits="userSpaceOnUse">
<stop stop-color="white"/>
<stop offset="1" stop-color="#26E37A"/>
</linearGradient>
<linearGradient id="paint1_linear_493_1277" x1="2.6049" y1="50.1127" x2="55.2662" y2="24.9523" gradientUnits="userSpaceOnUse">
<stop stop-color="white"/>
<stop offset="1" stop-color="#26E37A"/>
</linearGradient>
<linearGradient id="paint2_linear_493_1277" x1="7.03877" y1="59.3926" x2="59.7001" y2="34.2322" gradientUnits="userSpaceOnUse">
<stop stop-color="white"/>
<stop offset="1" stop-color="#26E37A"/>
</linearGradient>
<linearGradient id="paint3_linear_493_1277" x1="-1.8226" y1="40.8459" x2="50.8387" y2="15.6855" gradientUnits="userSpaceOnUse">
<stop stop-color="white"/>
<stop offset="1" stop-color="#26E37A"/>
</linearGradient>
<clipPath id="clip0_493_1277">
<rect width="167.551" height="60" fill="white"/>
</clipPath>
</defs>
</svg>
