<svg width="224" height="80" viewBox="0 0 224 80" fill="none" xmlns="http://www.w3.org/2000/svg">
<g clip-path="url(#clip0_303_16222)">
<path d="M114.806 27.1879H110.584C108.551 27.1879 106.965 26.6518 105.87 25.5571C104.753 24.4848 104.217 22.921 104.217 20.888V8.62328C104.217 6.59033 104.775 5.02652 105.87 3.95419C106.987 2.88187 108.551 2.32336 110.584 2.32336H114.806C116.817 2.32336 118.38 2.88187 119.497 3.97653C120.614 5.0712 121.173 6.63501 121.173 8.64562V10.4552C121.173 11.0137 120.883 11.3041 120.324 11.3041H117.085C116.549 11.3041 116.28 11.0137 116.28 10.4552V8.86902C116.28 8.04244 116.102 7.46159 115.767 7.10415C115.409 6.74671 114.828 6.59033 114.002 6.59033H111.366C110.561 6.59033 110.003 6.76905 109.645 7.10415C109.288 7.46159 109.132 8.04244 109.132 8.86902V20.6646C109.132 21.4912 109.31 22.072 109.645 22.4295C110.003 22.7869 110.561 22.9433 111.366 22.9433H114.002C114.828 22.9433 115.409 22.7646 115.767 22.4295C116.124 22.072 116.28 21.4912 116.28 20.6646V19.0785C116.28 18.52 116.549 18.2295 117.085 18.2295H120.324C120.883 18.2295 121.173 18.52 121.173 19.0785V20.888C121.173 22.8986 120.614 24.4624 119.497 25.5571C118.38 26.6294 116.817 27.1879 114.806 27.1879Z" fill="#2C2C2C"/>
<path d="M129.104 27.1879H125.82C125.284 27.1879 125.016 26.9198 125.016 26.3836V8.26579C125.016 7.72963 125.284 7.46155 125.82 7.46155H129.104C129.64 7.46155 129.908 7.72963 129.908 8.26579V9.58386H130.065C130.355 8.89132 130.846 8.35515 131.561 7.99771C132.276 7.64027 133.036 7.46155 133.84 7.46155H135.225C135.739 7.46155 136.007 7.72963 136.007 8.26579V10.9466C136.007 11.2594 135.94 11.4604 135.828 11.5945C135.717 11.7285 135.515 11.7509 135.225 11.7285H132.567C130.779 11.7285 129.908 12.7338 129.908 14.7444V26.3613C129.908 26.9198 129.64 27.1879 129.104 27.1879Z" fill="#2C2C2C"/>
<path d="M153.03 27.1879H144.496C142.463 27.1879 140.877 26.6517 139.782 25.557C138.665 24.4847 138.129 22.9209 138.129 20.888V13.7615C138.129 11.7285 138.687 10.1647 139.782 9.09238C140.899 8.02005 142.463 7.46155 144.496 7.46155H147.556C149.589 7.46155 151.176 7.99771 152.27 9.09238C153.387 10.1647 153.923 11.7285 153.923 13.7615V18.6763C153.923 19.2125 153.655 19.4805 153.119 19.4805H143.424C143.111 19.4805 142.954 19.6146 142.954 19.905V20.7539C142.954 21.5582 143.133 22.1167 143.468 22.4741C143.826 22.8316 144.406 22.9879 145.233 22.9879H153.052C153.588 22.9879 153.856 23.2784 153.856 23.8369V26.3836C153.856 26.6741 153.789 26.8751 153.678 26.9868C153.566 27.1209 153.343 27.1879 153.03 27.1879ZM143.401 16.1965H148.651C148.942 16.1965 149.076 16.0625 149.076 15.7721V13.9178C149.076 13.0913 148.897 12.5104 148.562 12.1753C148.227 11.8402 147.646 11.6615 146.819 11.6615H145.188C144.362 11.6615 143.781 11.8402 143.446 12.1753C143.111 12.5104 142.954 13.0913 142.954 13.9178V15.7721C142.977 16.0625 143.133 16.1965 143.401 16.1965Z" fill="#2C2C2C"/>
<path d="M164.825 27.1879H163.239C161.251 27.1879 159.754 26.6518 158.726 25.5571C157.699 24.4848 157.207 22.921 157.207 20.888V13.7615C157.207 11.7286 157.721 10.1648 158.726 9.09243C159.754 8.02011 161.251 7.4616 163.239 7.4616H164.825C165.629 7.4616 166.389 7.64032 167.104 7.97543C167.819 8.33287 168.332 8.84669 168.6 9.53923H168.757V0.804245C168.757 0.268081 169.025 0 169.561 0H172.845C173.381 0 173.649 0.268081 173.649 0.804245V26.3613C173.649 26.8975 173.381 27.1656 172.845 27.1656H169.561C169.025 27.1656 168.757 26.8975 168.757 26.3613V25.088H168.6C168.31 25.7805 167.819 26.3167 167.104 26.6518C166.389 27.0092 165.629 27.1879 164.825 27.1879ZM168.779 19.9944V14.6551C168.779 12.6892 167.886 11.7062 166.121 11.7062H164.378C163.552 11.7062 162.971 11.8849 162.636 12.22C162.301 12.5775 162.122 13.1583 162.122 13.9849V20.6423C162.122 21.4689 162.278 22.0497 162.636 22.4071C162.971 22.7646 163.552 22.921 164.378 22.921H166.121C167.886 22.921 168.779 21.938 168.779 19.9944Z" fill="#2C2C2C"/>
<path d="M178.117 4.13292V0.781904C178.117 0.268082 178.385 0 178.899 0H182.272C182.786 0 183.054 0.245741 183.054 0.737224V4.13292C183.054 4.64675 182.786 4.91483 182.272 4.91483H178.899C178.385 4.91483 178.117 4.64675 178.117 4.13292ZM178.117 26.3613V8.26585C178.117 7.72968 178.385 7.4616 178.899 7.4616H182.228C182.764 7.4616 183.032 7.72968 183.032 8.26585V26.3613C183.032 26.6965 182.965 26.9199 182.853 27.0092C182.742 27.0986 182.541 27.1656 182.25 27.1656H178.944C178.408 27.1879 178.117 26.9199 178.117 26.3613Z" fill="#2C2C2C"/>
<path d="M187.903 11.7062H186.362C186.049 11.7062 185.848 11.6615 185.714 11.5498C185.602 11.4381 185.535 11.2371 185.535 10.9243V8.26582C185.535 7.72966 185.803 7.46158 186.339 7.46158H187.881C188.171 7.46158 188.305 7.32754 188.305 7.03712V3.37334C188.305 2.83717 188.596 2.56909 189.154 2.56909H192.394C192.93 2.56909 193.198 2.83717 193.198 3.37334V7.03712C193.198 7.32754 193.354 7.46158 193.667 7.46158H196.683C197.219 7.46158 197.487 7.72966 197.487 8.26582V10.9466C197.487 11.2371 197.42 11.4381 197.308 11.5498C197.197 11.6615 196.973 11.7285 196.661 11.7285H193.645C193.332 11.7285 193.175 11.8626 193.175 12.153V20.6869C193.175 21.4912 193.354 22.0497 193.712 22.4071C194.069 22.7646 194.672 22.9209 195.499 22.9209H197.04C197.576 22.9209 197.845 23.189 197.845 23.7252V26.3837C197.845 26.6741 197.778 26.8752 197.666 26.9869C197.554 27.0986 197.331 27.1656 197.018 27.1656H194.65C192.617 27.1656 191.031 26.6294 189.914 25.5347C188.797 24.4624 188.238 22.8986 188.238 20.888V12.1307C188.328 11.8626 188.194 11.7062 187.903 11.7062Z" fill="#2C2C2C"/>
<path d="M210.555 27.1879H207.115C205.082 27.1879 203.496 26.6517 202.401 25.557C201.284 24.4847 200.748 22.9209 200.748 20.888V13.7615C200.748 11.7285 201.307 10.1647 202.401 9.09238C203.518 8.02005 205.082 7.46155 207.115 7.46155H210.555C212.566 7.46155 214.13 8.02005 215.247 9.11472C216.364 10.2094 216.922 11.7732 216.922 13.7838V20.888C216.922 22.8986 216.364 24.4624 215.247 25.557C214.152 26.6294 212.566 27.1879 210.555 27.1879ZM207.852 22.9656H209.818C210.645 22.9656 211.226 22.8092 211.583 22.4741C211.94 22.139 212.097 21.5582 212.097 20.7316V13.9178C212.097 13.0913 211.918 12.5104 211.583 12.1753C211.248 11.8402 210.645 11.6615 209.818 11.6615H207.852C207.026 11.6615 206.445 11.8402 206.11 12.1753C205.775 12.5104 205.618 13.0913 205.618 13.9178V20.7316C205.618 21.5582 205.775 22.139 206.11 22.4741C206.445 22.7869 207.026 22.9656 207.852 22.9656Z" fill="#2C2C2C"/>
<path d="M104.596 72.7619V49.5281C104.596 48.992 104.864 48.7239 105.4 48.7239H114.939C116.95 48.7239 118.514 49.2824 119.631 50.377C120.748 51.4717 121.306 53.0355 121.306 55.0461V67.3109C121.306 69.3215 120.748 70.8853 119.631 71.9799C118.514 73.0746 116.95 73.6331 114.939 73.6331H105.4C104.864 73.5661 104.596 73.298 104.596 72.7619ZM109.935 69.3215H114.157C114.984 69.3215 115.565 69.1428 115.922 68.8076C116.28 68.4502 116.436 67.8694 116.436 67.0428V55.2472C116.436 54.4206 116.257 53.8398 115.922 53.4823C115.565 53.1249 114.984 52.9685 114.157 52.9685H109.935C109.645 52.9685 109.511 53.1025 109.511 53.393V68.897C109.511 69.1874 109.645 69.3215 109.935 69.3215Z" fill="#2C2C2C"/>
<path d="M125.775 50.5333V47.16C125.775 46.6461 126.043 46.3781 126.557 46.3781H129.931C130.444 46.3781 130.713 46.6238 130.713 47.1153V50.511C130.713 51.0248 130.444 51.2929 129.931 51.2929H126.557C126.043 51.3152 125.775 51.0471 125.775 50.5333ZM125.775 72.7617V54.6662C125.775 54.1301 126.043 53.862 126.557 53.862H129.886C130.422 53.862 130.69 54.1301 130.69 54.6662V72.7617C130.69 73.0968 130.623 73.3202 130.511 73.4096C130.4 73.5213 130.199 73.566 129.908 73.566H126.58C126.043 73.566 125.775 73.2979 125.775 72.7617Z" fill="#2C2C2C"/>
<path d="M142.106 72.6948H140.833C138.844 72.6948 137.348 72.1586 136.32 71.064C135.292 69.9916 134.801 68.4278 134.801 66.3949V60.162C134.801 58.129 135.359 56.5652 136.454 55.4929C137.571 54.4206 139.135 53.8621 141.168 53.8621H150.104C150.662 53.8621 150.953 54.1301 150.953 54.6663V73.7224C150.953 75.733 150.394 77.2745 149.277 78.3692C148.16 79.4415 146.596 80 144.586 80H137.169C136.856 80 136.655 79.933 136.521 79.8213C136.409 79.7096 136.342 79.5085 136.342 79.2181V76.5596C136.342 76.0235 136.61 75.7554 137.146 75.7554H143.759C144.586 75.7554 145.167 75.5767 145.524 75.2416C145.881 74.8841 146.038 74.3256 146.038 73.5214V70.5725H145.881C145.591 71.265 145.1 71.8012 144.385 72.1586C143.647 72.5161 142.888 72.6948 142.106 72.6948ZM146.038 65.5013V58.5311C146.038 58.2407 145.881 58.1067 145.569 58.1067H141.927C141.101 58.1067 140.52 58.2854 140.185 58.6205C139.85 58.9779 139.671 59.5588 139.671 60.3854V66.1491C139.671 66.9757 139.827 67.5566 140.185 67.8917C140.52 68.2268 141.101 68.3831 141.927 68.3831H143.357C145.144 68.3831 146.038 67.4225 146.038 65.5013Z" fill="#2C2C2C"/>
<path d="M155.398 50.5333V47.16C155.398 46.6461 155.667 46.3781 156.18 46.3781H159.554C160.068 46.3781 160.336 46.6238 160.336 47.1153V50.511C160.336 51.0248 160.068 51.2929 159.554 51.2929H156.158C155.644 51.3152 155.398 51.0471 155.398 50.5333ZM155.398 72.7617V54.6662C155.398 54.1301 155.667 53.862 156.18 53.862H159.509C160.045 53.862 160.313 54.1301 160.313 54.6662V72.7617C160.313 73.0968 160.246 73.3202 160.135 73.4096C160.023 73.5213 159.822 73.566 159.531 73.566H156.203C155.667 73.566 155.398 73.2979 155.398 72.7617Z" fill="#2C2C2C"/>
<path d="M165.183 58.1067H163.641C163.328 58.1067 163.127 58.062 162.993 57.9503C162.881 57.8386 162.814 57.6376 162.814 57.3248V54.6663C162.814 54.1302 163.083 53.8621 163.619 53.8621H165.16C165.451 53.8621 165.585 53.7281 165.585 53.4376V49.7739C165.585 49.2377 165.875 48.9696 166.434 48.9696H169.673C170.209 48.9696 170.477 49.2377 170.477 49.7739V53.4376C170.477 53.7281 170.634 53.8621 170.946 53.8621H173.962C174.498 53.8621 174.766 54.1302 174.766 54.6663V57.3248C174.766 57.6152 174.699 57.8163 174.588 57.928C174.476 58.0397 174.253 58.1067 173.94 58.1067H170.924C170.611 58.1067 170.455 58.2408 170.455 58.5312V67.0651C170.455 67.8694 170.634 68.4279 170.991 68.7853C171.348 69.1427 171.952 69.2991 172.778 69.2991H174.32C174.856 69.2991 175.124 69.5672 175.124 70.1034V72.7618C175.124 73.0523 175.057 73.2533 174.945 73.365C174.833 73.4767 174.61 73.5437 174.297 73.5437H172.019C169.986 73.5437 168.399 73.0076 167.282 71.9129C166.165 70.8406 165.607 69.2768 165.607 67.2662V58.5312C165.607 58.2408 165.451 58.1067 165.183 58.1067Z" fill="#2C2C2C"/>
<path d="M185.311 73.5661H184.373C182.34 73.5661 180.754 73.0299 179.659 71.9352C178.542 70.8629 178.006 69.2991 178.006 67.2661V60.162C178.006 58.129 178.564 56.5652 179.659 55.4929C180.776 54.4206 182.34 53.8621 184.373 53.8621H193.309C193.867 53.8621 194.158 54.1301 194.158 54.6663V72.7618C194.158 73.298 193.867 73.5661 193.309 73.5661H190.07C189.533 73.5661 189.265 73.298 189.265 72.7618V71.4884H189.109C188.818 72.181 188.327 72.7171 187.612 73.0522C186.875 73.4097 186.115 73.5661 185.311 73.5661ZM189.265 66.3949V58.5311C189.265 58.2407 189.109 58.1067 188.796 58.1067H185.155C184.328 58.1067 183.747 58.2854 183.412 58.6205C183.077 58.9779 182.898 59.5588 182.898 60.3854V67.0427C182.898 67.8693 183.055 68.4502 183.412 68.8076C183.747 69.165 184.328 69.3214 185.155 69.3214H186.584C188.372 69.3214 189.265 68.3385 189.265 66.3949Z" fill="#2C2C2C"/>
<path d="M202.715 73.566H199.431C198.895 73.566 198.627 73.2979 198.627 72.7617V47.2046C198.627 46.6685 198.895 46.4004 199.431 46.4004H202.715C203.251 46.4004 203.519 46.6685 203.519 47.2046V72.7617C203.519 73.2979 203.251 73.566 202.715 73.566Z" fill="#2C2C2C"/>
<path d="M222.508 73.5661H213.974C211.941 73.5661 210.355 73.0299 209.261 71.9352C208.144 70.8629 207.607 69.2991 207.607 67.2661V60.162C207.607 58.129 208.166 56.5652 209.261 55.4929C210.378 54.4206 211.941 53.8621 213.974 53.8621H217.035C219.068 53.8621 220.654 54.3982 221.749 55.4929C222.866 56.5652 223.402 58.129 223.402 60.162V65.0768C223.402 65.613 223.134 65.881 222.598 65.881H212.902C212.589 65.881 212.433 66.0151 212.433 66.3055V67.1544C212.433 67.9587 212.612 68.5172 212.947 68.8746C213.304 69.2321 213.885 69.3885 214.712 69.3885H222.531C223.067 69.3885 223.335 69.6789 223.335 70.2374V72.7841C223.335 73.0746 223.268 73.2756 223.156 73.3873C223.044 73.5214 222.821 73.5661 222.508 73.5661ZM212.88 62.5971H218.13C218.42 62.5971 218.554 62.463 218.554 62.1726V60.3184C218.554 59.4918 218.375 58.9109 218.04 58.5758C217.705 58.2407 217.124 58.062 216.298 58.062H214.667C213.84 58.062 213.259 58.2407 212.924 58.5758C212.589 58.9109 212.433 59.4918 212.433 60.3184V62.1726C212.455 62.463 212.612 62.5971 212.88 62.5971Z" fill="#2C2C2C"/>
<path d="M51.6502 63.6917C51.6502 67.7129 49.2151 71.4884 45.2386 73.0299C40.078 75.0182 34.3142 72.4267 32.326 67.2885C31.8792 66.1044 31.6558 64.8981 31.6558 63.7141C31.6558 62.7087 31.7898 61.8822 31.8122 61.7481C31.9239 61.1673 32.0132 60.7205 32.1026 60.3407C32.527 58.6652 33.0855 56.878 33.0855 56.2301C33.0855 55.9173 33.2643 54.3535 32.5941 52.5663C31.9909 51.0025 31.0079 49.8408 29.7122 48.7238C28.8856 48.0089 27.7909 47.2941 26.7633 46.6462C26.2495 46.3334 25.3112 45.7302 24.3729 44.7026C23.591 43.8537 22.9655 42.826 22.5187 41.6867C22.4963 41.642 22.4963 41.6197 22.474 41.575C22.4293 41.4633 22.3846 41.3516 22.3623 41.2399C20.6868 36.2134 23.2559 30.6953 28.2824 28.7741C29.4664 28.3273 30.6728 28.1039 31.8568 28.1039C35.8781 28.1039 39.6535 30.539 41.195 34.5155C41.195 34.5155 41.195 34.5155 41.195 34.5378C41.6195 35.6772 41.8205 36.8612 41.8205 38.0006C41.8205 39.0059 41.5748 39.8995 41.2397 41.3292C40.9716 42.4462 40.9493 42.2899 40.7929 43.0718C40.5248 44.3005 40.1674 45.976 40.5695 47.9419C40.7259 48.6791 40.9939 49.2153 41.0833 49.461C41.3067 49.9972 42.3344 51.561 43.3397 52.4099C44.8811 53.6833 44.5237 53.2812 46.78 55.0684C49.3938 57.1684 50.3991 58.5311 51.0023 60.1396C50.98 60.1173 51.6502 61.7705 51.6502 63.6917Z" fill="url(#paint0_linear_303_16222)"/>
<path d="M13.5828 73.0298C8.42227 74.9958 2.65852 72.4266 0.67025 67.2661C-1.29568 62.1055 1.27343 56.3417 6.434 54.3535C11.5946 52.3875 17.3583 54.9567 19.3466 60.1172C21.3125 65.2778 18.7211 71.0639 13.5828 73.0298Z" fill="url(#paint1_linear_303_16222)"/>
<path d="M83.5076 63.6917C83.5076 67.7129 81.0725 71.4884 77.096 73.0299C71.9354 75.0182 66.1717 72.4267 64.1834 67.2885C63.7366 66.1044 63.5132 64.8981 63.5132 63.7141C63.5132 62.7087 63.6472 61.8822 63.6696 61.7481C63.7813 61.1673 63.8706 60.7205 63.96 60.3407C64.3845 58.6652 64.943 56.878 64.943 56.2301C64.943 55.9173 65.1217 54.3535 64.4515 52.5663C63.8483 51.0025 62.8653 49.8408 61.5696 48.7238C60.743 48.0089 59.6484 47.2941 58.6207 46.6462C58.1069 46.3334 57.1686 45.7302 56.2303 44.7026C55.4484 43.8537 54.8229 42.826 54.3761 41.6867C54.3537 41.642 54.3537 41.6197 54.3314 41.575C54.2867 41.4633 54.242 41.3516 54.2197 41.2399C52.5442 36.2134 55.1133 30.6953 60.1398 28.7741C61.3239 28.3273 62.5302 28.1039 63.7143 28.1039C67.7355 28.1039 71.511 30.539 73.0524 34.5155C73.0524 34.5155 73.0524 34.5155 73.0524 34.5378C73.4769 35.6772 73.678 36.8612 73.678 38.0006C73.678 39.0059 73.4322 39.8995 73.0971 41.3292C72.829 42.4462 72.8067 42.2899 72.6503 43.0718C72.3822 44.3005 72.0248 45.976 72.4269 47.9419C72.5833 48.6791 72.8514 49.2153 72.9407 49.461C73.1641 49.9972 74.1918 51.561 75.1971 52.4099C76.7386 53.6833 76.3811 53.2812 78.6375 55.0684C81.2513 57.1684 82.2566 58.5311 82.8597 60.1396C82.8597 60.1173 83.5076 61.7705 83.5076 63.6917Z" fill="url(#paint2_linear_303_16222)"/>
<path d="M73.656 38.0229C73.656 42.0441 71.221 45.8196 67.2444 47.3611C62.0839 49.3493 56.3201 46.7579 54.3318 41.6197C53.885 40.4356 53.6616 39.2293 53.6616 38.0452C53.6616 37.0399 53.7957 36.2133 53.818 36.0793C53.9297 35.4985 54.0191 35.0517 54.1084 34.6719C54.5329 32.9964 55.0914 31.2091 55.0914 30.5613C55.0914 30.2485 55.2701 28.6847 54.5999 26.8975C53.9967 25.3337 53.0138 24.172 51.718 23.055C50.8915 22.3401 49.7968 21.6252 48.7691 20.9774C48.2553 20.6646 47.317 20.0614 46.3787 19.0338C45.5968 18.1848 44.9713 17.1572 44.5245 16.0179C44.5022 15.9732 44.5022 15.9508 44.4798 15.9062C44.4352 15.7945 44.3905 15.6828 44.3681 15.5711C42.6926 10.5445 45.2617 5.02651 50.2883 3.10526C51.4723 2.65846 52.6787 2.43506 53.8627 2.43506C57.8839 2.43506 61.6594 4.87013 63.2009 8.84668C63.2009 8.84668 63.2009 8.84668 63.2009 8.86902C63.6253 10.0084 63.8264 11.1924 63.8264 12.3317C63.8264 13.337 63.5806 14.2306 63.2455 15.6604C62.9775 16.7774 62.9551 16.621 62.7987 17.4029C62.5307 18.6317 62.1732 20.3072 62.5753 22.2731C62.7317 23.0103 62.9998 23.5465 63.0892 23.7922C63.3126 24.3284 64.3402 25.8922 65.3455 26.7411C66.887 28.0145 66.5295 27.6124 68.7859 29.3996C71.3997 31.4996 72.405 32.8623 73.0082 34.4708C73.0082 34.4485 73.656 36.1016 73.656 38.0229Z" fill="url(#paint3_linear_303_16222)"/>
</g>
<defs>
<linearGradient id="paint0_linear_303_16222" x1="3.46329" y1="66.7967" x2="73.6783" y2="33.2495" gradientUnits="userSpaceOnUse">
<stop stop-color="#2C2C2C"/>
<stop offset="1" stop-color="#26E37A"/>
</linearGradient>
<linearGradient id="paint1_linear_303_16222" x1="3.4732" y1="66.8169" x2="73.6883" y2="33.2697" gradientUnits="userSpaceOnUse">
<stop stop-color="#2C2C2C"/>
<stop offset="1" stop-color="#26E37A"/>
</linearGradient>
<linearGradient id="paint2_linear_303_16222" x1="9.38502" y1="79.1902" x2="79.6001" y2="45.643" gradientUnits="userSpaceOnUse">
<stop stop-color="#2C2C2C"/>
<stop offset="1" stop-color="#26E37A"/>
</linearGradient>
<linearGradient id="paint3_linear_303_16222" x1="-2.42948" y1="54.4612" x2="67.7856" y2="20.914" gradientUnits="userSpaceOnUse">
<stop stop-color="#2C2C2C"/>
<stop offset="1" stop-color="#26E37A"/>
</linearGradient>
<clipPath id="clip0_303_16222">
<rect width="223.401" height="80" fill="white"/>
</clipPath>
</defs>
</svg>
