<?xml version="1.0" encoding="utf-8"?>
<!-- Generator: Adobe Illustrator 26.3.1, SVG Export Plug-In . SVG Version: 6.00 Build 0)  -->
<svg version="1.1" id="Layer_1" xmlns="http://www.w3.org/2000/svg" xmlns:xlink="http://www.w3.org/1999/xlink" x="0px" y="0px"
	 viewBox="0 0 53 60" style="enable-background:new 0 0 53 60;" xml:space="preserve">
<style type="text/css">
	.st0{fill:#26E37A;}
	.st1{fill:none;stroke:#FFFFFF;stroke-width:2;stroke-linecap:round;stroke-linejoin:round;}
</style>
<path class="st0" d="M26.21,0.2L26.21,0.2c14.36,0,26,11.64,26,26l0,0c0,14.36-11.64,26-26,26l0,0c-14.36,0-26-11.64-26-26l0,0
	C0.21,11.84,11.85,0.2,26.21,0.2z"/>
<path class="st1" d="M38.21,23.53c0,9.33-12,17.33-12,17.33s-12-8-12-17.33c0-3.18,1.26-6.23,3.51-8.49
	c2.25-2.25,5.3-3.51,8.49-3.51s6.23,1.26,8.49,3.51C36.94,17.3,38.21,20.35,38.21,23.53z"/>
<path class="st1" d="M26.21,27.53c2.21,0,4-1.79,4-4c0-2.21-1.79-4-4-4s-4,1.79-4,4C22.21,25.74,24,27.53,26.21,27.53z"/>
</svg>
