<svg width="803" height="357" viewBox="0 0 803 357" fill="none" xmlns="http://www.w3.org/2000/svg">
<path d="M0.5 356.35H89.5874L0.5 0V356.35Z" fill="#26E37A"/>
<path d="M178.674 356.35H267.761L178.674 0V356.35Z" fill="#26E37A"/>
<path d="M89.5859 356.35H178.673L89.5859 0V356.35Z" fill="#26E37A"/>
<path d="M267.762 356.35H356.849L267.762 0V356.35Z" fill="#26E37A"/>
<path d="M356.85 356.35H445.937L356.85 0V356.35Z" fill="#26E37A"/>
<path d="M535.023 356.35H624.111L535.023 0V356.35Z" fill="#26E37A"/>
<path d="M445.938 356.35H535.025L445.938 0V356.35Z" fill="#26E37A"/>
<path d="M535.5 356.524H624.587L535.5 0.174805V356.524Z" fill="#26E37A"/>
<path d="M713.674 356.524H802.761L713.674 0.174805V356.524Z" fill="#26E37A"/>
<path d="M624.588 356.524H713.675L624.588 0.174805V356.524Z" fill="#26E37A"/>
</svg>
