<svg width="1468" height="354" viewBox="0 0 1468 354" fill="none" xmlns="http://www.w3.org/2000/svg">
<path d="M648.5 303.5L750.782 156.869" stroke="url(#paint0_linear_537_1079)" stroke-width="2"/>
<path d="M647.82 346.14C678.649 346.14 703.64 321.148 703.64 290.32C703.64 259.491 678.649 234.5 647.82 234.5C616.991 234.5 592 259.491 592 290.32C592 321.148 616.991 346.14 647.82 346.14Z" fill="#F0FAF6"/>
<path d="M647.82 346.14C678.649 346.14 703.64 321.148 703.64 290.32C703.64 259.491 678.649 234.5 647.82 234.5C616.991 234.5 592 259.491 592 290.32C592 321.148 616.991 346.14 647.82 346.14Z" fill="url(#paint1_linear_537_1079)" fill-opacity="0.15"/>
<path d="M647.65 305.55C656.851 305.55 664.31 304.493 664.31 303.19C664.31 301.886 656.851 300.83 647.65 300.83C638.449 300.83 630.99 301.886 630.99 303.19C630.99 304.493 638.449 305.55 647.65 305.55Z" fill="#94A5E4"/>
<path d="M662.58 282.97H633.05V316.33H662.58V282.97Z" fill="white"/>
<path d="M677.64 261.35C675.96 257.33 672.53 259.31 672.53 259.31C674.51 241.05 665.22 229 647.82 229C630.42 229 621.13 241.05 623.11 259.31C623.11 259.31 619.68 257.34 618 261.35C616.32 265.37 619.39 274.78 621.29 277.78C623.19 280.77 626.55 283.04 626.55 283.04C626.55 283.04 626.77 286.4 627.65 288.74C628.53 291.08 638.46 301.82 641.38 303.46C645.21 305.71 650.85 305.71 654.29 303.46C657.19 301.81 667.12 291.07 668 288.73C668.88 286.39 669.1 283.03 669.1 283.03C669.1 283.03 672.46 280.77 674.36 277.77C676.25 274.78 679.32 265.37 677.64 261.35Z" fill="white"/>
<path d="M647.82 229C630.41 229 621.13 241.05 623.11 259.31C625.41 260.81 625.94 264.88 625.58 268.91C625.58 268.91 624.81 281.74 627.34 287.8C629.86 293.85 634.26 303.31 647.82 303.2C661.38 303.32 665.78 293.86 668.3 287.8C670.82 281.75 670.06 268.91 670.06 268.91C669.7 265.06 669.69 260.83 672.53 259.31C674.51 241.05 665.22 229 647.82 229ZM666.87 257.05C666.87 257.05 666.53 273.8 663.95 277.47C661.36 281.14 662.17 273 647.83 272.86C633.49 272.72 634.29 281.14 631.7 277.47C629.12 273.81 628.78 257.12 628.78 257.05C628.95 253.35 629.31 249.81 630.9 248.23C632.96 246.18 635.97 246.51 638.54 247.17C641.54 247.94 644.64 248.97 647.81 249.05C651.16 249.14 654.35 247.91 657.56 247.13C660.06 246.53 662.77 246.26 664.75 248.23C666.34 249.82 666.7 253.35 666.87 257.06V257.05Z" fill="black"/>
<path d="M698.33 314.09C684.34 310.7 664.3 309.79 664.3 309.79C653.96 318.01 640.13 318.12 630.98 309.79C630.98 309.79 611.31 311.07 597.43 314.37C606.41 333.16 625.6 346.14 647.81 346.14C670.15 346.14 689.4 333.03 698.33 314.09Z" fill="#9FB8ED"/>
<path d="M630.99 303.19V311.54C642.81 320.26 653.93 320.38 664.31 311.54V303.19C658.42 307 634.75 306.48 630.99 303.19Z" fill="#94A5E4"/>
<path d="M1215.68 95.261L1025.66 59.0352" stroke="url(#paint2_linear_537_1079)" stroke-width="2"/>
<path d="M1232 97.9996L1187.5 315.999" stroke="url(#paint3_linear_537_1079)" stroke-width="2"/>
<path d="M202.5 186.353L66.5 101.862" stroke="url(#paint4_linear_537_1079)" stroke-width="2"/>
<path d="M353.5 71.9998L42.5 81.8616" stroke="url(#paint5_linear_537_1079)" stroke-width="2"/>
<path d="M223.5 199.353L90 292" stroke="url(#paint6_linear_537_1079)" stroke-width="2"/>
<path d="M325.678 113.619L263 186.633" stroke="url(#paint7_linear_537_1079)" stroke-width="2"/>
<path d="M448.5 252L241 196.5" stroke="url(#paint8_linear_537_1079)" stroke-width="2"/>
<path d="M588 67.7253L749.118 130.063" stroke="url(#paint9_linear_537_1079)" stroke-width="2"/>
<path d="M444 247.5L749.117 130.063" stroke="url(#paint10_linear_537_1079)" stroke-width="2"/>
<path d="M347 73.9997L437.501 242.499" stroke="url(#paint11_linear_537_1079)" stroke-width="2"/>
<path d="M564.999 65.4998L440.499 247" stroke="url(#paint12_linear_537_1079)" stroke-width="2"/>
<path d="M937.404 248.25L797.964 143.857" stroke="url(#paint13_linear_537_1079)" stroke-width="2"/>
<path d="M999.498 67.0001L970 251.5" stroke="url(#paint14_linear_537_1079)" stroke-width="2"/>
<path d="M1235 81.9999L970.003 251.5" stroke="url(#paint15_linear_537_1079)" stroke-width="2"/>
<path d="M1007 63.9997L797.965 143.856" stroke="url(#paint16_linear_537_1079)" stroke-width="2"/>
<path d="M1428.08 235.395L1235.03 90.8628" stroke="url(#paint17_linear_537_1079)" stroke-width="2"/>
<path d="M1428.08 235.395L1186 311.5" stroke="url(#paint18_linear_537_1079)" stroke-width="2"/>
<path d="M704.125 284.381C710.343 284.381 715.384 279.341 715.384 273.123C715.384 266.905 710.343 261.865 704.125 261.865C697.906 261.865 692.865 266.905 692.865 273.123C692.865 279.341 697.906 284.381 704.125 284.381Z" fill="url(#paint19_linear_537_1079)" stroke="white" stroke-width="2.26923"/>
<path d="M700.328 273.756L702.293 275.107C702.752 275.422 703.372 275.358 703.757 274.955L707.922 270.592" stroke="white" stroke-width="1.70192" stroke-linecap="round"/>
<path d="M1411.82 284.14C1442.65 284.14 1467.64 259.148 1467.64 228.32C1467.64 197.491 1442.65 172.5 1411.82 172.5C1380.99 172.5 1356 197.491 1356 228.32C1356 259.148 1380.99 284.14 1411.82 284.14Z" fill="#F0FAF6"/>
<path d="M1411.65 243.55C1420.85 243.55 1428.31 242.493 1428.31 241.19C1428.31 239.886 1420.85 238.83 1411.65 238.83C1402.45 238.83 1394.99 239.886 1394.99 241.19C1394.99 242.493 1402.45 243.55 1411.65 243.55Z" fill="#94A5E4"/>
<path d="M1426.58 220.97H1397.05V254.33H1426.58V220.97Z" fill="white"/>
<path d="M1441.64 199.35C1439.96 195.33 1436.53 197.31 1436.53 197.31C1438.51 179.05 1429.22 167 1411.82 167C1394.42 167 1385.13 179.05 1387.11 197.31C1387.11 197.31 1383.68 195.34 1382 199.35C1380.32 203.37 1383.39 212.78 1385.29 215.78C1387.19 218.77 1390.55 221.04 1390.55 221.04C1390.55 221.04 1390.77 224.4 1391.65 226.74C1392.53 229.08 1402.46 239.82 1405.38 241.46C1409.21 243.71 1414.85 243.71 1418.29 241.46C1421.19 239.81 1431.12 229.07 1432 226.73C1432.88 224.39 1433.1 221.03 1433.1 221.03C1433.1 221.03 1436.46 218.77 1438.36 215.77C1440.25 212.78 1443.32 203.37 1441.64 199.35Z" fill="white"/>
<path d="M1387.11 197.31C1385.13 179.05 1394.41 167 1411.82 167C1429.22 167 1438.51 179.05 1436.53 197.31C1436.53 197.31 1431.1 192.607 1430.15 189.022C1429.84 187.848 1429.4 186.878 1428.75 186.23C1426.77 184.26 1424.06 184.53 1421.56 185.13C1418.35 185.91 1415.16 187.14 1411.81 187.05C1408.64 186.97 1405.54 185.94 1402.54 185.17C1399.97 184.51 1396.96 184.18 1394.9 186.23C1394.25 186.871 1393.81 187.834 1393.5 189C1392.55 192.592 1390.56 195.934 1387.11 197.31Z" fill="black"/>
<path d="M1462.33 252.09C1448.34 248.7 1428.3 247.79 1428.3 247.79C1417.96 256.01 1404.13 256.12 1394.98 247.79C1394.98 247.79 1375.31 249.07 1361.43 252.37C1370.41 271.16 1389.6 284.14 1411.81 284.14C1434.15 284.14 1453.4 271.03 1462.33 252.09Z" fill="#E24162"/>
<path d="M1394.99 241.19V249.54C1406.81 258.26 1417.93 258.38 1428.31 249.54V241.19C1422.42 245 1398.75 244.48 1394.99 241.19Z" fill="#EB4869"/>
<path d="M434.18 285.713C458.58 285.713 478.36 265.933 478.36 241.533C478.36 217.133 458.58 197.353 434.18 197.353C409.78 197.353 390 217.133 390 241.533C390 265.933 409.78 285.713 434.18 285.713Z" fill="#F0FAF6"/>
<path d="M445.861 235.716H422.489V262.119H445.861V235.716Z" fill="white"/>
<path d="M457.78 218.604C456.451 215.422 453.736 216.99 453.736 216.99C455.303 202.537 447.95 193 434.179 193C420.407 193 413.054 202.537 414.621 216.99C414.621 216.99 411.906 215.43 410.577 218.604C409.247 221.786 411.677 229.234 413.181 231.608C414.685 233.975 417.344 235.771 417.344 235.771C417.344 235.771 417.518 238.431 418.215 240.283C418.911 242.135 426.77 250.635 429.081 251.933C432.113 253.714 436.577 253.714 439.299 251.933C441.595 250.627 449.454 242.127 450.15 240.275C450.847 238.423 451.021 235.763 451.021 235.763C451.021 235.763 453.68 233.975 455.184 231.6C456.68 229.234 459.11 221.786 457.78 218.604Z" fill="white"/>
<path d="M414.621 216.99C413.054 202.537 420.399 193 434.179 193C447.95 193 455.303 202.537 453.736 216.99C453.736 216.99 449.437 213.267 448.688 210.43C448.442 209.501 448.091 208.733 447.578 208.22C446.011 206.661 443.866 206.875 441.887 207.349C439.347 207.967 436.822 208.94 434.171 208.869C431.662 208.806 429.208 207.99 426.834 207.381C424.8 206.859 422.417 206.597 420.787 208.22C420.276 208.727 419.926 209.49 419.681 210.412C418.926 213.255 417.354 215.9 414.621 216.99Z" fill="black"/>
<path d="M474.157 260.346C463.084 257.663 447.223 256.943 447.223 256.943C439.039 263.449 428.093 263.536 420.851 256.943C420.851 256.943 405.283 257.956 394.297 260.568C401.405 275.44 416.593 285.713 434.172 285.713C451.853 285.713 467.089 275.337 474.157 260.346Z" fill="#E24162"/>
<path d="M474.157 260.346C463.084 257.663 447.223 256.943 447.223 256.943C439.039 263.449 428.093 263.536 420.851 256.943C420.851 256.943 405.283 257.956 394.297 260.568C401.405 275.44 416.593 285.713 434.172 285.713C451.853 285.713 467.089 275.337 474.157 260.346Z" fill="#F0FAF6"/>
<path d="M474.157 260.346C463.084 257.663 447.223 256.943 447.223 256.943C439.039 263.449 428.093 263.536 420.851 256.943C420.851 256.943 405.283 257.956 394.297 260.568C401.405 275.44 416.593 285.713 434.172 285.713C451.853 285.713 467.089 275.337 474.157 260.346Z" fill="#8AD3A8" fill-opacity="0.4"/>
<path d="M420.86 251.719V258.328C430.215 265.23 439.016 265.325 447.231 258.328V251.719C442.57 254.735 423.836 254.323 420.86 251.719Z" fill="#EB4869"/>
<path d="M420.86 251.719V258.328C430.215 265.23 439.016 265.325 447.231 258.328V251.719C442.57 254.735 423.836 254.323 420.86 251.719Z" fill="#F0FAF6"/>
<path d="M420.86 251.719V258.328C430.215 265.23 439.016 265.325 447.231 258.328V251.719C442.57 254.735 423.836 254.323 420.86 251.719Z" fill="#8AD3A8" fill-opacity="0.4"/>
<path d="M336.524 126.14C359.458 126.14 378.049 107.549 378.049 84.6153C378.049 61.6821 359.458 43.0911 336.524 43.0911C313.591 43.0911 295 61.6821 295 84.6153C295 107.549 313.591 126.14 336.524 126.14Z" fill="#F0FAF6"/>
<path d="M336.4 95.945C343.245 95.945 348.794 95.159 348.794 94.1894C348.794 93.2198 343.245 92.4338 336.4 92.4338C329.556 92.4338 324.007 93.2198 324.007 94.1894C324.007 95.159 329.556 95.945 336.4 95.945Z" fill="#94A5E4"/>
<path d="M347.506 79.1479H325.538V103.964H347.506V79.1479Z" fill="white"/>
<path d="M358.708 63.0648C357.459 60.0743 354.907 61.5472 354.907 61.5472C356.38 47.9637 349.469 38.9998 336.525 38.9998C323.581 38.9998 316.671 47.9637 318.144 61.5472C318.144 61.5472 315.592 60.0818 314.342 63.0648C313.093 66.0553 315.376 73.0553 316.79 75.287C318.203 77.5113 320.703 79.1999 320.703 79.1999C320.703 79.1999 320.866 81.6994 321.521 83.4401C322.176 85.1808 329.562 93.1703 331.735 94.3903C334.584 96.064 338.779 96.064 341.338 94.3903C343.496 93.1628 350.882 85.1734 351.537 83.4327C352.192 81.692 352.355 79.1925 352.355 79.1925C352.355 79.1925 354.855 77.5113 356.268 75.2796C357.674 73.0553 359.958 66.0553 358.708 63.0648Z" fill="white"/>
<path d="M318.143 61.5472C316.67 47.9637 323.573 38.9998 336.525 38.9998C349.468 38.9998 356.379 47.9637 354.906 61.5472C354.906 61.5472 350.865 58.0489 350.161 55.3821C349.931 54.509 349.601 53.787 349.119 53.3049C347.646 51.8394 345.63 52.0403 343.77 52.4866C341.382 53.0668 339.017 49.8411 336.525 49.7742C334.166 49.7146 331.054 49.3598 328.568 50.1886C325.667 51.1555 325.47 51.7799 323.938 53.3049C323.458 53.7816 323.129 54.4983 322.899 55.3655C322.189 58.0374 320.711 60.5236 318.143 61.5472Z" fill="black"/>
<path d="M374.101 102.298C363.694 99.7763 348.786 99.0994 348.786 99.0994C341.094 105.214 330.806 105.296 323.999 99.0994C323.999 99.0994 309.367 100.052 299.042 102.506C305.722 116.484 319.997 126.14 336.519 126.14C353.138 126.14 367.458 116.388 374.101 102.298Z" fill="#9FB8ED"/>
<path d="M324.007 94.1895V100.401C332.8 106.888 341.072 106.977 348.794 100.401V94.1895C344.412 97.0237 326.804 96.6369 324.007 94.1895Z" fill="#94A5E4"/>
<path d="M1188.18 353C1214.23 353 1235.35 331.878 1235.35 305.824C1235.35 279.769 1214.23 258.648 1188.18 258.648C1162.12 258.648 1141 279.769 1141 305.824C1141 331.878 1162.12 353 1188.18 353Z" fill="#F0FAF6"/>
<path d="M1188.18 353C1214.23 353 1235.35 331.878 1235.35 305.824C1235.35 279.769 1214.23 258.648 1188.18 258.648C1162.12 258.648 1141 279.769 1141 305.824C1141 331.878 1162.12 353 1188.18 353Z" fill="url(#paint20_linear_537_1079)" fill-opacity="0.15"/>
<path d="M1188.03 318.695C1195.81 318.695 1202.11 317.802 1202.11 316.701C1202.11 315.599 1195.81 314.706 1188.03 314.706C1180.26 314.706 1173.95 315.599 1173.95 316.701C1173.95 317.802 1180.26 318.695 1188.03 318.695Z" fill="#94A5E4"/>
<path d="M1200.65 299.612H1175.69V327.806H1200.65V299.612Z" fill="white"/>
<path d="M1213.38 281.34C1211.96 277.943 1209.06 279.616 1209.06 279.616C1210.73 264.184 1202.88 254 1188.18 254C1173.47 254 1165.62 264.184 1167.29 279.616C1167.29 279.616 1164.39 277.951 1162.97 281.34C1161.55 284.738 1164.15 292.69 1165.76 295.226C1167.36 297.753 1170.2 299.671 1170.2 299.671C1170.2 299.671 1170.39 302.511 1171.13 304.489C1171.87 306.466 1180.27 315.543 1182.73 316.929C1185.97 318.831 1190.74 318.831 1193.64 316.929C1196.1 315.535 1204.49 306.458 1205.23 304.48C1205.98 302.502 1206.16 299.663 1206.16 299.663C1206.16 299.663 1209 297.753 1210.61 295.217C1212.2 292.69 1214.8 284.738 1213.38 281.34Z" fill="white"/>
<path d="M1209.06 279.616C1210.73 264.184 1202.89 254 1188.18 254C1173.47 254 1165.62 264.184 1167.29 279.616C1167.29 279.616 1171.88 275.642 1172.68 272.612C1172.94 271.62 1173.32 270.8 1173.87 270.252C1175.54 268.587 1177.83 268.815 1179.94 269.322C1182.66 269.981 1185.34 266.317 1188.18 266.241C1190.85 266.173 1194.39 265.77 1197.21 266.711C1200.51 267.81 1200.73 268.519 1202.47 270.252C1203.02 270.793 1203.39 271.608 1203.66 272.593C1204.46 275.629 1206.14 278.453 1209.06 279.616Z" fill="black"/>
<path d="M1230.87 325.913C1219.04 323.048 1202.11 322.279 1202.11 322.279C1193.37 329.226 1181.68 329.319 1173.95 322.279C1173.95 322.279 1157.32 323.361 1145.59 326.15C1153.18 342.03 1169.4 353 1188.17 353C1207.05 353 1223.32 341.92 1230.87 325.913Z" fill="#9FB8ED"/>
<path d="M1173.95 316.701V323.758C1183.94 331.128 1193.34 331.229 1202.11 323.758V316.701C1197.14 319.921 1177.13 319.481 1173.95 316.701Z" fill="#94A5E4"/>
<path d="M773.5 185C798.629 185 819 164.663 819 139.575C819 114.488 798.629 94.1509 773.5 94.1509C748.371 94.1509 728 114.488 728 139.575C728 164.663 748.371 185 773.5 185Z" fill="#F0FAF6"/>
<path d="M773.5 185C798.629 185 819 164.663 819 139.575C819 114.488 798.629 94.1509 773.5 94.1509C748.371 94.1509 728 114.488 728 139.575C728 164.663 748.371 185 773.5 185Z" fill="url(#paint21_linear_537_1079)" fill-opacity="0.15"/>
<path d="M785.531 133.594H761.46V160.741H785.531V133.594Z" fill="white"/>
<path d="M797.073 114.536C795.745 111.362 793.03 112.924 793.03 112.924C794.603 98.5127 787.259 88.9998 773.5 88.9998C759.741 88.9998 752.396 98.5127 753.961 112.924C753.961 112.924 751.247 111.37 749.918 114.536C748.59 117.701 751.019 125.139 752.519 127.507C754.019 129.867 756.676 131.657 756.676 131.657C756.676 131.657 756.847 134.31 757.54 136.149C758.233 137.997 766.082 146.476 768.389 147.77C771.413 149.552 775.88 149.552 778.594 147.77C780.901 146.476 788.759 137.997 789.444 136.149C790.136 134.302 790.308 131.657 790.308 131.657C790.308 131.657 792.965 129.867 794.465 127.507C795.981 125.139 798.402 117.709 797.073 114.536Z" fill="white"/>
<path d="M755.918 120.501C760.002 120.525 756.912 107.366 760.116 104.176C761.746 102.557 764.118 102.826 766.156 103.338C768.528 103.941 770.981 104.762 773.484 104.828C776.133 104.901 778.652 103.924 781.195 103.314C783.167 102.834 785.311 102.622 786.876 104.176C790.08 107.358 786.99 120.517 791.074 120.501C790.789 117.457 790.781 114.129 793.022 112.924C794.603 98.5127 787.259 88.9998 773.5 88.9998C759.741 88.9998 752.397 98.5127 753.962 112.924C755.787 114.104 756.203 117.319 755.918 120.501Z" fill="black"/>
<path d="M812.389 163.166C799.543 157.446 785.539 155.419 785.539 155.419C779.116 162.109 767.142 162.198 761.469 155.419C761.469 155.419 747.465 157.446 734.619 163.166C742.607 176.252 757.034 185 773.508 185C789.973 185 804.401 176.26 812.389 163.166Z" fill="#99B0E1"/>
<path d="M758.208 155.883L761.461 150.057L771.992 159.496L765.552 166.544L758.208 155.883Z" fill="black"/>
<path d="M788.775 155.883L785.523 150.057L774.991 159.496L781.439 166.544L788.775 155.883Z" fill="black"/>
<path d="M74.5 354C99.629 354 120 333.663 120 308.575C120 283.488 99.629 263.151 74.5 263.151C49.371 263.151 29 283.488 29 308.575C29 333.663 49.371 354 74.5 354Z" fill="#F0FAF6"/>
<path d="M86.5309 302.594H62.4604V329.741H86.5309V302.594Z" fill="white"/>
<path d="M98.0732 283.536C96.7445 280.362 94.0302 281.924 94.0302 281.924C95.6034 267.513 88.2591 258 74.4999 258C60.7407 258 53.3964 267.513 54.9615 281.924C54.9615 281.924 52.2471 280.37 50.9185 283.536C49.5898 286.701 52.0189 294.139 53.5187 296.507C55.0185 298.867 57.6758 300.657 57.6758 300.657C57.6758 300.657 57.847 303.31 58.5398 305.149C59.2327 306.997 67.0823 315.476 69.3891 316.77C72.4132 318.552 76.88 318.552 79.5944 316.77C81.9012 315.476 89.7589 306.997 90.4436 305.149C91.1365 303.302 91.3077 300.657 91.3077 300.657C91.3077 300.657 93.965 298.867 95.4648 296.507C96.9809 294.139 99.4018 286.709 98.0732 283.536Z" fill="white"/>
<path d="M56.2576 283.511C57.5428 286.283 58.9852 287.898 59.2244 284.851C59.5468 280.745 59.1673 275.117 61.1157 273.176C62.746 271.557 65.118 271.826 67.1558 272.338C69.5278 272.941 71.9813 273.762 74.4837 273.828C77.1328 273.901 79.6516 272.924 82.1947 272.314C84.1673 271.834 86.3111 271.622 87.8761 273.176C89.8398 275.127 89.4389 280.826 89.7752 284.942C90.0195 287.932 91.3108 286.449 92.4825 283.687C93.1391 282.14 94.1596 280.926 94.2158 279.246C94.6472 266.346 87.3876 258 74.5 258C61.5469 258 54.2791 266.431 54.7777 279.443C54.838 281.015 55.5959 282.083 56.2576 283.511Z" fill="black"/>
<path d="M113.389 332.166C100.543 326.446 86.5392 324.419 86.5392 324.419C80.1161 331.109 68.1419 331.198 62.4687 324.419C62.4687 324.419 48.4649 326.446 35.6187 332.166C43.6068 345.252 58.0345 354 74.508 354C90.9735 354 105.401 345.26 113.389 332.166Z" fill="#D85D63"/>
<path d="M59.2083 324.883L62.4606 319.057L72.9919 328.496L66.5525 335.544L59.2083 324.883Z" fill="black"/>
<path d="M89.7751 324.883L86.5228 319.057L75.9915 328.496L82.4391 335.544L89.7751 324.883Z" fill="black"/>
<path d="M1274.78 90.9311C1274.78 66.415 1254.91 46.5409 1230.39 46.5409C1205.87 46.5409 1186 66.415 1186 90.9311C1186 115.447 1205.87 135.321 1230.39 135.321C1254.91 135.321 1274.78 115.447 1274.78 90.9311Z" fill="#F0FAF6"/>
<path d="M1274.78 90.9311C1274.78 66.415 1254.91 46.5409 1230.39 46.5409C1205.87 46.5409 1186 66.415 1186 90.9311C1186 115.447 1205.87 135.321 1230.39 135.321C1254.91 135.321 1274.78 115.447 1274.78 90.9311Z" fill="url(#paint22_linear_537_1079)" fill-opacity="0.15"/>
<path d="M1242.24 85.0857H1218.76V111.615H1242.24V85.0857Z" fill="white"/>
<path d="M1268.44 113.993C1255.9 108.403 1242.24 106.422 1242.24 106.422C1235.97 112.959 1224.29 113.047 1218.76 106.422C1218.76 106.422 1205.09 108.403 1192.56 113.993C1200.36 126.781 1214.43 135.33 1230.5 135.33C1246.57 135.322 1260.65 126.781 1268.44 113.993Z" fill="#F0FAF6"/>
<path d="M1268.44 113.993C1255.9 108.403 1242.24 106.422 1242.24 106.422C1235.97 112.959 1224.29 113.047 1218.76 106.422C1218.76 106.422 1205.09 108.403 1192.56 113.993C1200.36 126.781 1214.43 135.33 1230.5 135.33C1246.57 135.322 1260.65 126.781 1268.44 113.993Z" fill="#8AD3A8" fill-opacity="0.4"/>
<path d="M1244.79 106.852V132.968C1254.72 129.596 1263.07 122.796 1268.44 113.985C1259.19 109.866 1249.33 107.703 1244.79 106.852Z" fill="#F0FAF6"/>
<path d="M1244.79 106.852V132.968C1254.72 129.596 1263.07 122.796 1268.44 113.985C1259.19 109.866 1249.33 107.703 1244.79 106.852Z" fill="#1F62B5" fill-opacity="0.4"/>
<path d="M1216.16 106.86C1211.6 107.718 1201.78 109.874 1192.56 113.985C1197.92 122.78 1206.25 129.572 1216.16 132.952V106.86Z" fill="#F0FAF6"/>
<path d="M1216.16 106.86C1211.6 107.718 1201.78 109.874 1192.56 113.985C1197.92 122.78 1206.25 129.572 1216.16 132.952V106.86Z" fill="#1F62B5" fill-opacity="0.4"/>
<path d="M1253.5 70.9546C1252.2 67.8531 1249.56 69.38 1249.56 69.38C1251.09 55.2962 1243.93 45.9998 1230.5 45.9998C1217.07 45.9998 1209.91 55.2962 1211.44 69.38C1211.44 69.38 1208.79 67.8611 1207.5 70.9546C1206.2 74.0481 1208.57 81.3166 1210.03 83.6308C1211.5 85.937 1213.71 84.9668 1213.71 84.9668C1213.71 84.9668 1214.26 90.2791 1214.93 92.0843C1215.61 93.8895 1223.27 102.176 1225.52 103.44C1228.47 105.182 1232.82 105.182 1235.47 103.44C1237.72 102.176 1245.38 93.8895 1246.06 92.0843C1246.73 90.2791 1247.27 84.8714 1247.27 84.8714C1247.27 84.8714 1249.49 85.945 1250.96 83.6308C1252.43 81.3166 1254.8 74.056 1253.5 70.9546Z" fill="white"/>
<path d="M1213.34 76.7837C1217.32 76.8076 1214.31 63.9485 1217.44 60.8311C1219.03 59.2486 1242.03 59.3122 1243.55 60.8311C1246.68 63.9405 1243.66 76.7996 1247.65 76.7837C1247.37 73.8095 1247.36 70.557 1249.55 69.38C1251.08 55.2962 1243.93 45.9998 1230.5 45.9998C1217.07 45.9998 1209.91 55.2962 1211.44 69.38C1213.22 70.5331 1213.63 73.6743 1213.34 76.7837Z" fill="black"/>
<path d="M1230.5 81.0462C1230.5 81.0462 1221.06 80.8394 1220.67 87.1457H1230.5H1240.33C1239.94 80.8394 1230.5 81.0462 1230.5 81.0462Z" fill="black"/>
<path d="M1007.36 242.774C1007.36 216.164 985.792 194.592 959.182 194.592C932.572 194.592 911 216.164 911 242.774C911 269.384 932.572 290.956 959.182 290.956C985.792 290.956 1007.36 269.384 1007.36 242.774Z" fill="#F0FAF6"/>
<path d="M973.459 236.426H944.896V265.222H973.459V236.426Z" fill="white"/>
<path d="M934.21 216.21C935.617 212.844 938.491 214.501 938.491 214.501C936.825 199.214 944.603 189.123 959.174 189.123C973.744 189.123 981.522 199.214 979.865 214.501C979.865 214.501 982.739 212.852 984.146 216.21C985.553 219.576 982.981 227.458 981.392 229.969C979.804 232.473 976.99 231.886 976.99 231.886C976.99 231.886 976.809 237.186 976.075 239.145C975.341 241.105 970.231 252.887 959.182 252.887C948.133 252.887 943.023 241.105 942.289 239.145C941.556 237.186 941.374 231.67 941.374 231.67C941.374 231.67 938.56 232.481 936.972 229.969C935.367 227.458 932.803 219.576 934.21 216.21Z" fill="white"/>
<path d="M936.257 202.732C935.638 201.265 936.445 199.702 937.589 198.594C941.661 194.649 943.753 190.485 947.398 189.557C949.901 188.651 955.998 189.123 959.174 189.123C968.033 189.123 975.595 191.558 978.006 198.79C978.565 200.467 979.814 201.902 980.801 203.369C982.463 205.838 982.281 209.812 981.737 212.569C981.557 213.479 980.669 214.037 979.865 214.501C979.037 215.04 978.483 215.978 978.146 217.142C977.33 219.952 975.699 221.099 975.411 218.188C975.132 215.365 975.254 211.699 974.803 208.869C974.436 206.566 971.971 206.144 969.842 207.098C962.477 210.399 954.395 210.433 949.125 209.936C946.075 209.649 943.23 211.804 943.109 214.865C943.065 215.983 943.006 217.074 942.898 218.067C942.583 220.99 941.162 219.928 940.38 217.094C940.321 216.877 940.251 216.668 940.171 216.467C939.558 214.936 938.371 213.521 938.309 211.873C938.268 210.751 938.28 209.662 938.345 208.606C938.446 206.961 937.817 205.372 936.924 203.987C936.669 203.592 936.443 203.174 936.257 202.732Z" fill="black"/>
<path d="M1000.36 267.795C986.761 261.727 973.502 259.577 973.502 259.577C966.7 266.673 950.921 266.768 944.904 259.577C944.904 259.577 931.611 261.727 918.007 267.795C926.466 281.675 941.745 290.955 959.19 290.955C976.627 290.955 991.905 281.684 1000.36 267.795Z" fill="#E24162"/>
<circle cx="949.987" cy="222.358" r="6.8372" stroke="black"/>
<circle cx="968.115" cy="222.358" r="6.8372" stroke="black"/>
<path d="M956.461 221.927L961.641 221.927" stroke="black"/>
<path d="M96.3641 88.7742C96.3641 62.164 74.7923 40.5922 48.182 40.5922C21.5718 40.5922 -3.26927e-06 62.164 -2.1061e-06 88.7743C-9.42935e-07 115.384 21.5718 136.956 48.182 136.956C74.7923 136.956 96.3641 115.384 96.3641 88.7742Z" fill="#F0FAF6"/>
<path d="M96.3641 88.7742C96.3641 62.164 74.7923 40.5922 48.182 40.5922C21.5718 40.5922 -3.26927e-06 62.164 -2.1061e-06 88.7743C-9.42935e-07 115.384 21.5718 136.956 48.182 136.956C74.7923 136.956 96.3641 115.384 96.3641 88.7742Z" fill="url(#paint23_linear_537_1079)" fill-opacity="0.15"/>
<path d="M62.459 82.426H33.8958V111.222H62.459V82.426Z" fill="white"/>
<path d="M23.2099 62.21C24.6169 58.8435 27.4914 60.5009 27.4914 60.5009C25.8254 45.2136 33.6029 35.1228 48.1737 35.1228C62.7445 35.1228 70.5219 45.2136 68.8646 60.5009C68.8646 60.5009 71.739 58.8522 73.146 62.21C74.5531 65.5765 71.9807 73.4575 70.3924 75.9694C68.8042 78.4727 65.9901 77.8857 65.9901 77.8857C65.9901 77.8857 65.8088 83.1858 65.0751 85.1452C64.3414 87.1047 59.2313 98.8874 48.1823 98.8874C37.1333 98.8874 32.0232 87.1047 31.2895 85.1452C30.5558 83.1858 30.3745 77.6699 30.3745 77.6699C30.3745 77.6699 27.5605 78.4813 25.9722 75.9694C24.3666 73.4575 21.8029 65.5765 23.2099 62.21Z" fill="white"/>
<path d="M70.5603 48.7316C71.1792 47.2646 70.3715 45.7021 69.2279 44.5942C65.1559 40.6491 63.0634 36.485 59.4191 35.5569C56.9158 34.6506 50.8191 35.1226 47.6425 35.1226C38.7836 35.1226 31.2217 37.5579 28.8112 44.7904C28.2522 46.4675 27.0032 47.9023 26.016 49.3688C24.3536 51.8384 24.5361 55.8121 25.0802 58.5693C25.2598 59.4794 26.148 60.0374 26.9516 60.5007C27.7803 61.0395 28.3338 61.9783 28.6714 63.142C29.4865 65.9517 31.1176 67.0994 31.4058 64.1881C31.6853 61.3651 31.5627 57.6987 32.0139 54.8695C32.3811 52.5664 34.8462 52.1444 36.9745 53.0982C44.3399 56.3989 52.4215 56.4328 57.6918 55.936C60.7421 55.6485 63.5866 57.8038 63.7075 60.8652C63.7516 61.9829 63.8113 63.0744 63.9185 64.0672C64.234 66.99 65.6551 65.9278 66.4366 63.0938C66.4964 62.8769 66.5658 62.6677 66.6459 62.4673C67.2584 60.9359 68.4463 59.5209 68.5074 57.8727C68.549 56.7513 68.5365 55.6616 68.4718 54.6057C68.3711 52.9614 69.0001 51.3717 69.8931 49.9874C70.1479 49.5922 70.3737 49.1738 70.5603 48.7316Z" fill="black"/>
<path d="M89.3647 113.795C75.7607 107.727 62.502 105.577 62.502 105.577C55.6999 112.673 39.9207 112.768 33.9041 105.577C33.9041 105.577 20.6109 107.727 7.00684 113.795C15.4662 127.675 30.7448 136.955 48.1901 136.955C65.6268 136.955 80.9054 127.684 89.3647 113.795Z" fill="#E24162"/>
<path d="M1266.12 68.3812C1272.34 68.3812 1277.38 63.3409 1277.38 57.1232C1277.38 50.9054 1272.34 45.8651 1266.12 45.8651C1259.91 45.8651 1254.87 50.9054 1254.87 57.1232C1254.87 63.3409 1259.91 68.3812 1266.12 68.3812Z" fill="#205DF9"/>
<path d="M1266.12 68.3812C1272.34 68.3812 1277.38 63.3409 1277.38 57.1232C1277.38 50.9054 1272.34 45.8651 1266.12 45.8651C1259.91 45.8651 1254.87 50.9054 1254.87 57.1232C1254.87 63.3409 1259.91 68.3812 1266.12 68.3812Z" fill="url(#paint24_linear_537_1079)"/>
<path d="M1266.12 68.3812C1272.34 68.3812 1277.38 63.3409 1277.38 57.1232C1277.38 50.9054 1272.34 45.8651 1266.12 45.8651C1259.91 45.8651 1254.87 50.9054 1254.87 57.1232C1254.87 63.3409 1259.91 68.3812 1266.12 68.3812Z" stroke="white" stroke-width="2.26923"/>
<path d="M1262.33 57.7559L1264.29 59.1068C1264.75 59.4223 1265.37 59.3581 1265.76 58.9553L1269.92 54.592" stroke="white" stroke-width="1.70192" stroke-linecap="round"/>
<path d="M277 194.488C277 164.941 253.047 140.988 223.5 140.988C193.953 140.988 170 164.941 170 194.488C170 224.035 193.953 247.988 223.5 247.988C253.047 247.988 277 224.035 277 194.488Z" fill="#F0FAF6"/>
<path d="M277 194.488C277 164.941 253.047 140.988 223.5 140.988C193.953 140.988 170 164.941 170 194.488C170 224.035 193.953 247.988 223.5 247.988C253.047 247.988 277 224.035 277 194.488Z" fill="url(#paint25_linear_537_1079)" fill-opacity="0.15"/>
<path d="M237.784 187.5H209.481V219.474H237.784V187.5Z" fill="white"/>
<path d="M269.356 222.33C254.251 215.592 237.785 213.206 237.785 213.206C230.233 221.084 216.153 221.19 209.482 213.206C209.482 213.206 193.016 215.592 177.911 222.33C187.304 237.742 204.268 248.045 223.638 248.045C243.009 248.045 259.973 237.752 269.356 222.33Z" fill="white"/>
<path d="M269.356 222.33C254.251 215.592 237.785 213.206 237.785 213.206C230.233 221.084 216.153 221.19 209.482 213.206C209.482 213.206 193.016 215.592 177.911 222.33C187.304 237.742 204.268 248.045 223.638 248.045C243.009 248.045 259.973 237.752 269.356 222.33Z" fill="#8AD3A8" fill-opacity="0.4"/>
<path d="M269.356 222.33C254.251 215.592 237.785 213.206 237.785 213.206C230.233 221.084 216.153 221.19 209.482 213.206C209.482 213.206 193.016 215.592 177.911 222.33C187.304 237.742 204.268 248.045 223.638 248.045C243.009 248.045 259.973 237.752 269.356 222.33Z" fill="url(#paint26_linear_537_1079)" fill-opacity="0.15"/>
<path d="M250.396 169.875C250.396 184.654 242.278 203.851 224.317 203.487C204.995 203.487 197.653 186.446 197.653 171.667C194.27 162.063 198.334 151.635 205.378 149.718C209.777 142.367 217.426 140 225.113 140C239.901 140 254.479 150.869 250.396 169.875Z" fill="black"/>
<path d="M250.359 171.935C248.854 168.341 245.778 170.105 245.778 170.105C246.42 156.006 239.231 146.22 223.637 146.22C208.043 146.22 200.941 157.961 201.497 170.105C201.497 170.105 198.421 168.341 196.916 171.935C195.411 175.53 198.162 183.973 199.858 186.657C201.555 189.341 204.133 188.21 204.133 188.21C204.133 188.21 204.766 194.382 205.552 196.472C206.337 198.561 215.232 208.193 217.848 209.66C221.28 211.682 226.331 211.682 229.417 209.66C232.033 208.184 240.928 198.561 241.714 196.472C242.5 194.382 243.113 188.095 243.113 188.095C243.113 188.095 245.701 189.341 247.407 186.657C249.113 183.973 251.864 175.539 250.359 171.935Z" fill="white"/>
<path d="M201.496 170.104C202.828 165.504 204.87 161.498 208.071 158.469C217.071 168.954 228.16 175.788 245.776 170.104L247.137 165.638C247.137 165.638 245.01 156.169 245.01 155.823C245.01 155.488 238.042 148.99 238.042 148.99L228.975 145.271H219.639L212.202 147.37L205.637 152.919L201.496 161.239V170.104Z" fill="black"/>
<path d="M954 52.9148C954 28.0166 974.184 7.83256 999.082 7.83256C1023.98 7.83257 1044.16 28.0166 1044.16 52.9148C1044.16 77.8131 1023.98 97.9971 999.082 97.9971C974.184 97.9971 954 77.8131 954 52.9148Z" fill="#F0FAF6"/>
<path d="M987.047 47.0266H1010.9V73.9696H987.047V47.0266Z" fill="white"/>
<path d="M960.443 76.3763C973.171 70.6985 987.047 68.6875 987.047 68.6875C993.411 75.3263 1005.28 75.4152 1010.9 68.6875C1010.9 68.6875 1024.77 70.6985 1037.5 76.3763C1029.59 89.3632 1015.29 98.0454 998.968 98.0454C982.645 98.0454 968.35 89.3713 960.443 76.3763Z" fill="white"/>
<path d="M960.443 76.3763C973.171 70.6985 987.047 68.6875 987.047 68.6875C993.411 75.3263 1005.28 75.4152 1010.9 68.6875C1010.9 68.6875 1024.77 70.6985 1037.5 76.3763C1029.59 89.3632 1015.29 98.0454 998.968 98.0454C982.645 98.0454 968.35 89.3713 960.443 76.3763Z" fill="#8AD3A8" fill-opacity="0.4"/>
<path d="M960.443 76.3763C973.171 70.6985 987.047 68.6875 987.047 68.6875C993.411 75.3263 1005.28 75.4152 1010.9 68.6875C1010.9 68.6875 1024.77 70.6985 1037.5 76.3763C1029.59 89.3632 1015.29 98.0454 998.968 98.0454C982.645 98.0454 968.35 89.3713 960.443 76.3763Z" fill="url(#paint27_linear_537_1079)" fill-opacity="0.15"/>
<path d="M976.418 32.174C976.418 44.6279 983.259 60.805 998.394 60.4981C1014.68 60.4981 1020.86 46.1382 1020.86 33.6843C1023.71 25.5917 1020.29 16.8046 1014.35 15.1893C1010.65 8.99464 1004.2 6.99976 997.724 6.99976C985.262 6.99976 972.978 16.1584 976.418 32.174Z" fill="black"/>
<path d="M976.45 33.9103C977.718 30.8816 980.311 32.3677 980.311 32.3677C979.769 20.4873 985.827 12.2412 998.967 12.2412C1012.11 12.2412 1018.09 22.1349 1017.62 32.3677C1017.62 32.3677 1020.22 30.8816 1021.48 33.9103C1022.75 36.939 1020.43 44.0543 1019 46.3157C1017.58 48.5771 1015.4 47.6241 1015.4 47.6241C1015.4 47.6241 1014.87 52.8253 1014.21 54.586C1013.55 56.3466 1006.05 64.4635 1003.85 65.6992C1000.95 67.4033 996.698 67.4033 994.097 65.6992C991.892 64.4554 984.397 56.3466 983.735 54.586C983.073 52.8253 982.556 47.5272 982.556 47.5272C982.556 47.5272 980.375 48.5771 978.938 46.3157C977.5 44.0543 975.182 36.947 976.45 33.9103Z" fill="white"/>
<path d="M1017.62 32.368C1016.5 28.4913 1014.78 25.1153 1012.08 22.5632C1004.5 31.3988 995.156 37.1573 980.311 32.368L979.164 28.6043C979.164 28.6043 980.957 20.6248 980.957 20.3341C980.957 20.0514 986.829 14.5756 986.829 14.5756L994.469 11.4419H1002.34L1008.6 13.2106L1014.14 17.8869L1017.62 24.8972V32.368Z" fill="black"/>
<path d="M618.361 61.1803C618.361 32.9141 595.447 9.99977 567.181 9.99977C538.914 9.99977 516 32.9141 516 61.1803C516 89.4465 538.914 112.361 567.181 112.361C595.447 112.361 618.361 89.4465 618.361 61.1803Z" fill="#F0FAF6"/>
<path d="M618.361 61.1803C618.361 32.9141 595.447 9.99977 567.181 9.99977C538.914 9.99977 516 32.9141 516 61.1803C516 89.4465 538.914 112.361 567.181 112.361C595.447 112.361 618.361 89.4465 618.361 61.1803Z" fill="url(#paint28_linear_537_1079)" fill-opacity="0.15"/>
<path d="M580.712 54.4963H553.636V85.0839H580.712V54.4963Z" fill="white"/>
<path d="M610.923 87.8158C596.473 81.37 580.72 79.0869 580.72 79.0869C573.495 86.6238 560.026 86.7246 553.644 79.0869C553.644 79.0869 537.892 81.37 523.442 87.8158C532.427 102.559 548.656 112.416 567.187 112.416C585.708 112.416 601.937 102.569 610.923 87.8158Z" fill="#D85D63"/>
<path d="M592.743 39.6059C591.303 36.1675 588.36 37.8546 588.36 37.8546C588.974 24.3671 582.098 15.0056 567.18 15.0056C552.262 15.0056 545.468 26.2376 546 37.8546C546 37.8546 543.056 36.1675 541.617 39.6059C540.177 43.0442 542.809 51.1221 544.432 53.6894C546.064 56.2567 548.521 55.1747 548.521 55.1747C548.521 55.1747 549.126 61.0795 549.869 63.0784C550.621 65.0772 559.129 74.292 561.633 75.6948C564.915 77.6295 569.747 77.6295 572.7 75.6948C575.203 74.2828 583.711 65.0772 584.463 63.0784C585.215 61.0795 585.802 55.0647 585.802 55.0647C585.802 55.0647 588.278 56.2567 589.91 53.6894C591.551 51.1221 594.182 43.0534 592.743 39.6059Z" fill="white"/>
<path d="M545.999 37.8545C547.695 39.6516 548.429 41.788 548.841 44.6579C548.529 35.0947 552.976 31.6655 552.912 19.8926C547.053 20.4977 544.605 29.1807 545.357 37.5978L545.999 37.8545Z" fill="black"/>
<path d="M588.333 37.8545C586.637 39.6516 585.903 41.788 585.49 44.6579C585.802 35.0947 581.355 31.6655 581.419 19.8926C587.278 20.4977 589.726 29.1807 588.975 37.5978L588.333 37.8545Z" fill="black"/>
<path d="M369.125 66.3812C375.343 66.3812 380.384 61.3409 380.384 55.1232C380.384 48.9054 375.343 43.8651 369.125 43.8651C362.906 43.8651 357.865 48.9054 357.865 55.1232C357.865 61.3409 362.906 66.3812 369.125 66.3812Z" fill="url(#paint29_linear_537_1079)" stroke="white" stroke-width="2.26923"/>
<path d="M365.328 55.7559L367.293 57.1068C367.752 57.4223 368.372 57.3581 368.757 56.9553L372.922 52.592" stroke="white" stroke-width="1.70192" stroke-linecap="round"/>
<defs>
<linearGradient id="paint0_linear_537_1079" x1="746.23" y1="154.159" x2="670.312" y2="253.072" gradientUnits="userSpaceOnUse">
<stop stop-color="#8AD3A8" stop-opacity="0.42"/>
<stop offset="1" stop-color="#134E92"/>
</linearGradient>
<linearGradient id="paint1_linear_537_1079" x1="647.915" y1="75.073" x2="647.915" y2="296.084" gradientUnits="userSpaceOnUse">
<stop stop-color="#245795"/>
<stop offset="1" stop-color="#8AD3A8"/>
</linearGradient>
<linearGradient id="paint2_linear_537_1079" x1="1028.35" y1="50.8814" x2="1226.39" y2="91.1454" gradientUnits="userSpaceOnUse">
<stop stop-color="#8AD3A8" stop-opacity="0.42"/>
<stop offset="1" stop-color="#134E92"/>
</linearGradient>
<linearGradient id="paint3_linear_537_1079" x1="1028.35" y1="50.8814" x2="1226.39" y2="91.1453" gradientUnits="userSpaceOnUse">
<stop stop-color="#8AD3A8" stop-opacity="0.42"/>
<stop offset="1" stop-color="#134E92"/>
</linearGradient>
<linearGradient id="paint4_linear_537_1079" x1="71" y1="96.3624" x2="211.991" y2="186.366" gradientUnits="userSpaceOnUse">
<stop stop-color="#8AD3A8" stop-opacity="0.42"/>
<stop offset="1" stop-color="#134E92"/>
</linearGradient>
<linearGradient id="paint5_linear_537_1079" x1="71" y1="96.3624" x2="211.991" y2="186.366" gradientUnits="userSpaceOnUse">
<stop stop-color="#8AD3A8" stop-opacity="0.42"/>
<stop offset="1" stop-color="#134E92"/>
</linearGradient>
<linearGradient id="paint6_linear_537_1079" x1="71" y1="96.3624" x2="211.991" y2="186.366" gradientUnits="userSpaceOnUse">
<stop stop-color="#8AD3A8" stop-opacity="0.42"/>
<stop offset="1" stop-color="#134E92"/>
</linearGradient>
<linearGradient id="paint7_linear_537_1079" x1="260.146" y1="183.455" x2="326.542" y2="107.97" gradientUnits="userSpaceOnUse">
<stop stop-color="#8AD3A8" stop-opacity="0.42"/>
<stop offset="1" stop-color="#134E92"/>
</linearGradient>
<linearGradient id="paint8_linear_537_1079" x1="260.146" y1="183.455" x2="326.542" y2="107.97" gradientUnits="userSpaceOnUse">
<stop stop-color="#8AD3A8" stop-opacity="0.42"/>
<stop offset="1" stop-color="#134E92"/>
</linearGradient>
<linearGradient id="paint9_linear_537_1079" x1="750.936" y1="122.615" x2="581.837" y2="59.5273" gradientUnits="userSpaceOnUse">
<stop stop-color="#8AD3A8" stop-opacity="0.42"/>
<stop offset="1" stop-color="#134E92"/>
</linearGradient>
<linearGradient id="paint10_linear_537_1079" x1="750.936" y1="122.615" x2="581.837" y2="59.5273" gradientUnits="userSpaceOnUse">
<stop stop-color="#8AD3A8" stop-opacity="0.42"/>
<stop offset="1" stop-color="#134E92"/>
</linearGradient>
<linearGradient id="paint11_linear_537_1079" x1="511.936" y1="120.744" x2="342.837" y2="57.6562" gradientUnits="userSpaceOnUse">
<stop stop-color="#8AD3A8" stop-opacity="0.42"/>
<stop offset="1" stop-color="#134E92"/>
</linearGradient>
<linearGradient id="paint12_linear_537_1079" x1="511.936" y1="120.744" x2="342.837" y2="57.6562" gradientUnits="userSpaceOnUse">
<stop stop-color="#8AD3A8" stop-opacity="0.42"/>
<stop offset="1" stop-color="#134E92"/>
</linearGradient>
<linearGradient id="paint13_linear_537_1079" x1="803.36" y1="138.321" x2="947.69" y2="249.16" gradientUnits="userSpaceOnUse">
<stop stop-color="#8AD3A8" stop-opacity="0.42"/>
<stop offset="1" stop-color="#134E92"/>
</linearGradient>
<linearGradient id="paint14_linear_537_1079" x1="979.36" y1="235.463" x2="1123.69" y2="346.302" gradientUnits="userSpaceOnUse">
<stop stop-color="#8AD3A8" stop-opacity="0.42"/>
<stop offset="1" stop-color="#134E92"/>
</linearGradient>
<linearGradient id="paint15_linear_537_1079" x1="979.36" y1="235.463" x2="1123.69" y2="346.302" gradientUnits="userSpaceOnUse">
<stop stop-color="#8AD3A8" stop-opacity="0.42"/>
<stop offset="1" stop-color="#134E92"/>
</linearGradient>
<linearGradient id="paint16_linear_537_1079" x1="803.36" y1="138.321" x2="947.69" y2="249.16" gradientUnits="userSpaceOnUse">
<stop stop-color="#8AD3A8" stop-opacity="0.42"/>
<stop offset="1" stop-color="#134E92"/>
</linearGradient>
<linearGradient id="paint17_linear_537_1079" x1="1242.5" y1="83.1975" x2="1442.32" y2="236.655" gradientUnits="userSpaceOnUse">
<stop stop-color="#8AD3A8" stop-opacity="0.42"/>
<stop offset="1" stop-color="#134E92"/>
</linearGradient>
<linearGradient id="paint18_linear_537_1079" x1="1242.5" y1="83.1975" x2="1442.32" y2="236.655" gradientUnits="userSpaceOnUse">
<stop stop-color="#8AD3A8" stop-opacity="0.42"/>
<stop offset="1" stop-color="#134E92"/>
</linearGradient>
<linearGradient id="paint19_linear_537_1079" x1="744.558" y1="314.432" x2="669.605" y2="287.145" gradientUnits="userSpaceOnUse">
<stop stop-color="#245795"/>
<stop offset="1" stop-color="#8AD3A8"/>
</linearGradient>
<linearGradient id="paint20_linear_537_1079" x1="1188.26" y1="123.91" x2="1188.26" y2="310.696" gradientUnits="userSpaceOnUse">
<stop stop-color="#245795"/>
<stop offset="1" stop-color="#8AD3A8"/>
</linearGradient>
<linearGradient id="paint21_linear_537_1079" x1="773.578" y1="-35.5853" x2="773.578" y2="144.266" gradientUnits="userSpaceOnUse">
<stop stop-color="#245795"/>
<stop offset="1" stop-color="#8AD3A8"/>
</linearGradient>
<linearGradient id="paint22_linear_537_1079" x1="1059.22" y1="90.8552" x2="1234.97" y2="90.8552" gradientUnits="userSpaceOnUse">
<stop stop-color="#245795"/>
<stop offset="1" stop-color="#8AD3A8"/>
</linearGradient>
<linearGradient id="paint23_linear_537_1079" x1="-137.612" y1="88.6919" x2="53.1579" y2="88.6918" gradientUnits="userSpaceOnUse">
<stop stop-color="#245795"/>
<stop offset="1" stop-color="#8AD3A8"/>
</linearGradient>
<linearGradient id="paint24_linear_537_1079" x1="1306.56" y1="98.4325" x2="1231.6" y2="71.1453" gradientUnits="userSpaceOnUse">
<stop stop-color="#245795"/>
<stop offset="1" stop-color="#8AD3A8"/>
</linearGradient>
<linearGradient id="paint25_linear_537_1079" x1="17.1993" y1="194.396" x2="229.025" y2="194.396" gradientUnits="userSpaceOnUse">
<stop stop-color="#245795"/>
<stop offset="1" stop-color="#8AD3A8"/>
</linearGradient>
<linearGradient id="paint26_linear_537_1079" x1="220.091" y1="216.55" x2="228.831" y2="250.276" gradientUnits="userSpaceOnUse">
<stop stop-color="#245795"/>
<stop offset="1" stop-color="#8AD3A8"/>
</linearGradient>
<linearGradient id="paint27_linear_537_1079" x1="1001.96" y1="71.5056" x2="994.592" y2="99.9246" gradientUnits="userSpaceOnUse">
<stop stop-color="#245795"/>
<stop offset="1" stop-color="#8AD3A8"/>
</linearGradient>
<linearGradient id="paint28_linear_537_1079" x1="369.824" y1="61.0928" x2="572.466" y2="61.0928" gradientUnits="userSpaceOnUse">
<stop stop-color="#245795"/>
<stop offset="1" stop-color="#8AD3A8"/>
</linearGradient>
<linearGradient id="paint29_linear_537_1079" x1="409.558" y1="96.4325" x2="334.605" y2="69.1453" gradientUnits="userSpaceOnUse">
<stop stop-color="#245795"/>
<stop offset="1" stop-color="#8AD3A8"/>
</linearGradient>
</defs>
</svg>
