<svg xmlns="http://www.w3.org/2000/svg" version="1.1" xmlns:xlink="http://www.w3.org/1999/xlink" width="36.24" height="37.01"><svg id="SvgjsSvg1001" data-name="Layer 1" xmlns="http://www.w3.org/2000/svg" viewBox="0 0 36.24 37.01">
  <defs>
    <style>
      .cls-1 {
        fill: #62b4f2;
      }
    </style>
  </defs>
  <path class="cls-1" d="M18.14,0c-3.58,0-7.09,1.08-10.07,3.11-2.98,2.03-5.31,4.92-6.68,8.3C.01,14.79-.35,18.51.35,22.1c.7,3.59,2.42,6.89,4.96,9.48,2.53,2.59,5.76,4.35,9.28,5.07,3.52.71,7.16.35,10.47-1.05,3.31-1.4,6.14-3.77,8.13-6.82,1.99-3.04,3.05-6.62,3.05-10.28,0-4.9-1.91-9.61-5.3-13.07C27.54,1.95,22.94,0,18.14,0ZM29.86,23.28h-7.03v7.17h-9.38v-7.17h-7.02v-9.57h7.02v-7.17h9.38v7.17h7.03v9.57ZM22.41,6.95h-8.56v7.17h-7.02v8.74h7.02v7.19h8.56v-7.19h7.05v-8.74h-7.05v-7.17ZM28.99,14.58v7.84h-7.02v7.17h-7.67v-7.17h-7.04v-7.84h7.04v-7.18h7.67v7.18h7.02Z"></path>
</svg><style>@media (prefers-color-scheme: light) { :root { filter: none; } }
@media (prefers-color-scheme: dark) { :root { filter: none; } }
</style></svg>