<svg xmlns="http://www.w3.org/2000/svg" id="base" version="1.1" width="148.8" height="150.84"><defs id="defs4"><style id="style2">.cls-3{fill:#fff}</style></defs><circle cx="77.85" cy="77.85" r="70.95" id="circle6" opacity=".2" fill="#352ca2"/><circle cx="70.95" cy="70.95" r="70.95" id="circle8" fill="#352ca2"/><path class="cls-3" d="M68.16 60.89h-2.21s-6.76 23.7-14.19 37.19c-3.68 6.66 4 16.38 4 24.33h30.5c0-8 7.65-17.67 4-24.33-7.52-13.49-14.31-37.19-14.31-37.19z" id="path10" fill="#fff"/><path d="M52.99 150.84l2.71-28.43h30.5l2.71 28.43z" id="path12" fill="#d13076"/><path d="M70.95 60.89v35.45" id="path14" fill="none" stroke="#352ca2" stroke-width="3" stroke-linecap="round" stroke-linejoin="round"/><circle cx="70.95" cy="96.34" r="4.81" id="circle16" fill="#352ca2" stroke="#352ca2" stroke-width="3" stroke-linecap="round" stroke-linejoin="round"/><path d="M20.54 43.3h100.82M20.56 93.68a50.39 50.39 0 01100.78 0" id="path18" fill="none" stroke="#d13076" stroke-width="3" stroke-linecap="round" stroke-linejoin="round"/><rect class="cls-3" x="64.66" y="37.01" width="12.58" height="12.58" rx="2.3" id="rect20" fill="#fff"/><rect class="cls-3" x="115.05" y="87.4" width="12.58" height="12.58" rx="2.3" id="rect22" fill="#fff"/><rect class="cls-3" x="14.27" y="87.4" width="12.58" height="12.58" rx="2.3" id="rect24" fill="#fff"/><circle class="cls-3" cx="20.56" cy="43.3" r="4.5" id="circle26" fill="#fff"/><circle class="cls-3" cx="121.34" cy="43.3" r="4.5" id="circle28" fill="#fff"/></svg>