<svg width="38" height="47" viewBox="0 0 38 47" fill="none" xmlns="http://www.w3.org/2000/svg">
<path d="M12.0909 0.5V9.22414V11.1945C11.5143 10.8084 11.0461 10.2182 10.4311 9.96148C7.71146 8.82623 4.87092 8.4493 2.68537 7.11126L0 5.46619V8.43104C0 14.5115 3.68887 17.6976 7.19247 18.8467C9.03051 19.4495 10.795 19.6005 12.0909 19.6119V22.7069V29.0517V30.6379V37.7759V46.5H25.9091V44.9138V37.7759V33.8847C27.2107 33.879 28.933 33.7374 30.8075 33.1226C34.3111 31.9735 38 28.7874 38 22.7069V19.7421L35.3146 21.3871C33.1291 22.7252 30.2885 23.1021 27.5689 24.2373C27.003 24.4735 26.4451 24.7701 25.9091 25.1141V22.7069V17.9483V16.3621V9.22414V0.5H12.0909ZM15.5455 3.67241H22.4545V9.22414V14.7759H15.5455V9.22414V3.67241ZM3.7919 11.0489C5.76547 11.7693 7.65592 12.2875 9.00071 12.8489C10.0159 13.2726 10.71 13.7326 11.2138 14.4351C11.495 14.8272 11.5456 15.7251 11.7029 16.3961C10.7401 16.36 9.54808 16.2522 8.35298 15.8602C6.33704 15.199 4.49176 13.9921 3.7919 11.0489ZM15.5455 17.9483H22.4545V22.7069V29.0517H15.5455V22.7069V19.3238V17.9483ZM34.2081 25.3248C33.5082 28.268 31.663 29.4749 29.647 30.136C28.4519 30.528 27.26 30.6358 26.2971 30.672C26.4544 30.0009 26.505 29.103 26.7862 28.7109C27.29 28.0085 27.9841 27.5485 28.9993 27.1247C30.3441 26.5634 32.2345 26.0452 34.2081 25.3248ZM15.5455 32.2241H22.4545V33.5997V37.7759V43.3276H15.5455V37.7759V32.2241Z" fill="white"/>
</svg>
