<svg width="192" height="37" viewBox="0 0 192 37" fill="none" xmlns="http://www.w3.org/2000/svg">
<g clip-path="url(#clip0_929_52552)">
<path d="M18.1146 1.0998e-05C14.53 -0.00397942 11.0248 1.078 8.04257 3.10905C5.06029 5.14009 2.73495 8.02892 1.36079 11.41C-0.0133787 14.7911 -0.374616 18.5125 0.322784 22.1033C1.02018 25.6941 2.74488 28.993 5.27864 31.5825C7.8124 34.1719 11.0414 35.9357 14.5569 36.6505C18.0725 37.3654 21.7167 36.9992 25.0284 35.5982C28.3402 34.1973 31.1706 31.8247 33.1615 28.7805C35.1525 25.7363 36.2145 22.1574 36.2132 18.4967C36.2132 13.5934 34.3068 8.89071 30.913 5.4223C27.5193 1.9539 22.9159 0.00357573 18.1146 1.0998e-05ZM29.8336 23.2839H22.8022V30.4579H13.427V23.2839H6.40224V13.7094H13.427V6.53536H22.8022V13.7094H29.8336V23.2839ZM22.3874 6.9455H13.8286V14.1196H6.80385V22.8603H13.8286V30.0545H22.3874V22.8603H29.4386V14.1196H22.3874V6.9455ZM28.9711 14.5768V22.4165H21.9529V29.5839H14.2829V22.4165H7.24496V14.5768H14.2829V7.39598H21.9529V14.5768H28.9711Z" fill="#62B4F2"/>
<path d="M42.9453 6.75732H61.3796V9.86363H53.8676V29.7857H50.4178V9.86363H42.9453V6.75732Z" fill="#313131"/>
<path d="M71.3471 12.7077C72.1136 12.6637 72.8809 12.7773 73.6035 13.0418C74.3262 13.3063 74.9895 13.7163 75.5541 14.2474C76.0838 14.8289 76.4919 15.5146 76.7533 16.2625C77.0148 17.0105 77.1243 17.805 77.075 18.5976V29.7857H73.9082V19.0279C73.9082 16.7015 72.7582 15.5384 70.4583 15.5384C69.9245 15.5474 69.3978 15.6644 68.9085 15.8825C68.4192 16.1006 67.9771 16.4155 67.6076 16.8091C67.1678 17.2876 66.8287 17.853 66.6113 18.4706C66.3939 19.0881 66.3028 19.7446 66.3435 20.3995V29.8126H63.2031V6.75732H66.3699V15.3972C66.9094 14.5559 67.6489 13.8679 68.5193 13.3976C69.3897 12.9273 70.3626 12.6899 71.3471 12.7077Z" fill="#313131"/>
<path d="M95.4169 21.5694V22.5107H83.0988C83.1358 23.8803 83.6413 25.1934 84.5275 26.2221C84.962 26.6508 85.479 26.9827 86.0456 27.1968C86.6122 27.4109 87.2162 27.5026 87.8193 27.466C89.8866 27.466 91.2385 26.5381 91.8749 24.6824H95.068C94.6889 26.2908 93.7772 27.7159 92.4872 28.7166C91.113 29.7303 89.4477 30.2483 87.7535 30.189C86.6955 30.2311 85.6411 30.039 84.6627 29.6259C83.6842 29.2127 82.8049 28.5883 82.085 27.7954C80.594 26.0443 79.8228 23.7729 79.9321 21.4551C79.8242 19.1374 80.5952 16.8665 82.085 15.1147C82.7942 14.3244 83.6632 13.701 84.6318 13.2877C85.6003 12.8744 86.6453 12.6811 87.6943 12.7211C88.7663 12.6705 89.8357 12.8687 90.8221 13.3008C91.8084 13.7328 92.6861 14.3874 93.3891 15.2156C94.7946 17.0137 95.515 19.2708 95.4169 21.5694ZM87.6613 15.424C87.1006 15.402 86.5412 15.4942 86.0156 15.695C85.49 15.8959 85.0088 16.2014 84.5999 16.5939C83.747 17.509 83.2285 18.6961 83.1318 19.9557H92.1777C92.0859 18.7305 91.5891 17.5735 90.7688 16.6746C90.365 16.2562 89.8799 15.9288 89.3447 15.7134C88.8095 15.498 88.2361 15.3994 87.6613 15.424Z" fill="#313131"/>
<path d="M106.372 12.8423C106.679 12.8266 106.986 12.8266 107.294 12.8423V15.915H106.503C105.129 15.828 103.774 16.2775 102.711 17.1723C102.254 17.6337 101.9 18.1903 101.673 18.8041C101.446 19.4179 101.351 20.0745 101.395 20.7291V29.7858H98.2344V13.0978H101.276V16.0764C101.702 15.0718 102.418 14.2239 103.329 13.646C104.24 13.0681 105.301 12.7877 106.372 12.8423Z" fill="#313131"/>
<path d="M122.585 27.2977H123.474V29.7855C122.959 29.856 122.439 29.8897 121.92 29.8863C121.125 29.9464 120.331 29.7462 119.655 29.3148C119.392 29.0946 119.177 28.8216 119.022 28.5128C118.867 28.204 118.775 27.866 118.753 27.5196C117.651 29.2902 115.878 30.1867 113.434 30.2091C111.903 30.2844 110.396 29.8085 109.174 28.8643C108.654 28.4241 108.241 27.8662 107.969 27.2347C107.697 26.6033 107.573 25.9158 107.607 25.2269C107.607 22.2057 109.654 20.48 113.75 20.0497L116.159 19.7942C116.825 19.7523 117.467 19.5192 118.009 19.1218C118.208 18.9436 118.364 18.7213 118.466 18.4719C118.567 18.2225 118.612 17.9526 118.595 17.683C118.628 17.3402 118.577 16.9945 118.447 16.6766C118.317 16.3588 118.113 16.0786 117.851 15.8609C117.064 15.4171 116.166 15.2206 115.27 15.2961C114.285 15.2134 113.3 15.4486 112.453 15.9685C112.136 16.2666 111.885 16.6299 111.716 17.0344C111.547 17.4388 111.464 17.8753 111.472 18.315H108.305C108.524 14.5812 110.829 12.712 115.218 12.7075C119.523 12.7075 121.678 14.3481 121.683 17.6292V26.4573C121.703 27.0154 121.992 27.2977 122.585 27.2977ZM113.901 27.6541C115.123 27.6992 116.318 27.2827 117.259 26.4842C117.707 26.0716 118.058 25.5611 118.286 24.9906C118.514 24.4202 118.613 23.8046 118.575 23.1896V21.4415C117.975 21.8557 117.272 22.0887 116.548 22.1138L114.27 22.3761C113.329 22.4197 112.418 22.7267 111.636 23.2636C111.372 23.4892 111.163 23.7741 111.025 24.0961C110.887 24.418 110.823 24.7682 110.84 25.1193C110.822 25.4696 110.883 25.8195 111.017 26.1422C111.152 26.465 111.357 26.7521 111.616 26.9817C112.276 27.4752 113.085 27.7135 113.901 27.6541Z" fill="#313131"/>
<path d="M125.625 6.75732H135.54C138.048 6.75732 140.01 7.42968 141.413 8.77441C142.124 9.48314 142.68 10.3382 143.043 11.2829C143.406 12.2277 143.569 13.2405 143.519 14.2541C143.566 15.2635 143.402 16.2715 143.039 17.2115C142.676 18.1515 142.122 19.0021 141.413 19.707C140.01 21.0517 138.048 21.7241 135.54 21.7241H129.898V29.7924H125.625V6.75732ZM129.898 17.979H135.349C136.388 18.0507 137.413 17.7112 138.213 17.031C138.56 16.6665 138.828 16.2314 138.999 15.7541C139.17 15.2768 139.241 14.768 139.207 14.2609C139.24 13.7528 139.169 13.2433 138.998 12.7651C138.826 12.2868 138.559 11.8505 138.213 11.484C137.422 10.7846 136.392 10.434 135.349 10.5091H129.898V17.979Z" fill="#62B4F2"/>
<path d="M159.573 29.7855H155.583C155.323 29.1442 155.174 28.4617 155.142 27.7684C154.045 29.3865 152.289 30.1956 149.875 30.1956C148.337 30.2704 146.821 29.7949 145.589 28.8509C145.06 28.4054 144.639 27.8397 144.361 27.1988C144.084 26.558 143.956 25.8597 143.99 25.1596C143.99 22.1206 146.079 20.3859 150.257 19.9556L152.726 19.727C153.359 19.6861 153.971 19.48 154.504 19.1286C154.688 18.9683 154.833 18.7663 154.926 18.5386C155.02 18.3109 155.06 18.0639 155.044 17.8175C155.068 17.5212 155.021 17.2232 154.906 16.95C154.792 16.6767 154.613 16.4366 154.385 16.2509C153.685 15.856 152.885 15.6829 152.088 15.7533C151.212 15.6759 150.336 15.8855 149.586 16.3517C149.305 16.6106 149.082 16.9272 148.93 17.2807C148.778 17.6341 148.701 18.0164 148.703 18.4024H144.753C144.99 14.6103 147.439 12.712 152.101 12.7075C156.643 12.7075 158.913 14.3795 158.908 17.7233V26.6187C158.824 27.7178 159.055 28.8183 159.573 29.7855ZM150.837 27.2641C151.942 27.3144 153.026 26.9429 153.878 26.222C154.279 25.836 154.591 25.365 154.794 24.8422C154.996 24.3194 155.084 23.7575 155.05 23.1963V21.6701C154.504 22.0748 153.854 22.3084 153.18 22.3424L151.028 22.5979C150.231 22.6487 149.461 22.913 148.796 23.3644C148.572 23.5679 148.396 23.8207 148.282 24.1038C148.168 24.3869 148.118 24.6928 148.137 24.9983C148.113 25.3093 148.16 25.6217 148.275 25.9111C148.389 26.2004 148.567 26.4587 148.796 26.6657C149.387 27.1011 150.109 27.3127 150.837 27.2641Z" fill="#62B4F2"/>
<path d="M168.504 30.2564C163.733 30.2564 161.242 28.3379 161.031 24.5009H164.922C164.931 24.914 165.023 25.3208 165.193 25.6958C165.363 26.0707 165.607 26.4056 165.91 26.6794C166.695 27.1837 167.618 27.4192 168.543 27.3518C170.698 27.3518 171.776 26.6794 171.776 25.3347C171.786 25.061 171.728 24.7891 171.606 24.5454C171.483 24.3016 171.302 24.0941 171.078 23.9429C170.302 23.5124 169.453 23.2385 168.576 23.1361L166.706 22.8133C163.138 22.2082 161.356 20.5273 161.36 17.7706C161.333 17.0517 161.48 16.337 161.789 15.6904C162.098 15.0439 162.559 14.4857 163.131 14.0659C164.31 13.1717 165.982 12.7212 168.135 12.7212C172.805 12.7212 175.219 14.6083 175.377 18.3825H171.605C171.623 17.9812 171.55 17.581 171.391 17.2135C171.232 16.846 170.992 16.5211 170.69 16.2645C169.928 15.7937 169.043 15.573 168.155 15.6325C166.254 15.6325 165.304 16.2802 165.304 17.5756C165.297 17.8331 165.354 18.0881 165.469 18.3173C165.584 18.5464 165.754 18.7423 165.962 18.8867C166.603 19.2764 167.316 19.5238 168.056 19.6129L170.11 19.9356C172.085 20.3054 173.54 20.8836 174.436 21.6838C174.888 22.1075 175.241 22.6297 175.469 23.2116C175.697 23.7935 175.794 24.4203 175.752 25.0456C175.784 25.8014 175.627 26.5531 175.295 27.2295C174.963 27.906 174.468 28.4849 173.856 28.9116C172.583 29.8081 170.799 30.2564 168.504 30.2564Z" fill="#62B4F2"/>
<path d="M184.746 30.2562C179.979 30.2562 177.489 28.3377 177.273 24.5008H181.171C181.177 24.9178 181.269 25.3288 181.44 25.7074C181.612 26.086 181.859 26.4239 182.165 26.6994C182.951 27.2032 183.873 27.4387 184.799 27.3718C186.954 27.3718 188.031 26.6994 188.031 25.3547C188.04 25.0812 187.981 24.8098 187.859 24.5663C187.737 24.3227 187.556 24.115 187.333 23.9629C186.557 23.5335 185.708 23.2596 184.831 23.1561L182.962 22.8333C179.393 22.2282 177.609 20.5473 177.609 17.7906C177.583 17.0719 177.73 16.3576 178.039 15.7112C178.348 15.0649 178.809 14.5066 179.38 14.0859C180.565 13.1895 182.233 12.7412 184.384 12.7412C189.054 12.7412 191.468 14.6283 191.626 18.4025H187.86C187.878 18.0007 187.803 17.6002 187.643 17.2326C187.484 16.865 187.242 16.5405 186.938 16.2845C186.177 15.8129 185.292 15.5922 184.404 15.6525C182.507 15.6525 181.553 16.3249 181.553 17.5957C181.545 17.8532 181.602 18.1085 181.717 18.3377C181.832 18.567 182.002 18.7627 182.211 18.9068C182.849 19.2954 183.56 19.5428 184.298 19.6329L186.359 19.9556C188.334 20.3254 189.782 20.9037 190.678 21.7038C191.137 22.1235 191.497 22.644 191.731 23.2263C191.965 23.8086 192.066 24.4375 192.027 25.0656C192.053 25.8214 191.89 26.5714 191.552 27.2445C191.215 27.9176 190.714 28.4914 190.098 28.9115C188.834 29.808 187.05 30.2562 184.746 30.2562Z" fill="#62B4F2"/>
</g>
<defs>
<clipPath id="clip0_929_52552">
<rect width="192" height="37" fill="white"/>
</clipPath>
</defs>
</svg>
