<svg xmlns="http://www.w3.org/2000/svg" version="1.1" xmlns:xlink="http://www.w3.org/1999/xlink" xmlns:svgjs="http://svgjs.dev/svgjs" width="24" height="24"><svg viewBox="0 0 24 24" fill="none" xmlns="http://www.w3.org/2000/svg"><path fill-rule="evenodd" clip-rule="evenodd" d="M0.800781 7C0.800781 4.23858 3.03936 2 5.80078 2H8.56647V9.26863L6.49784 7.2C6.18542 6.88758 5.67889 6.88758 5.36647 7.2C5.05405 7.51242 5.05405 8.01895 5.36647 8.33137L9.36647 12.3314L13.3665 8.33137C13.6789 8.01895 13.6789 7.51242 13.3665 7.2C13.054 6.88758 12.5475 6.88758 12.2351 7.2L10.1665 9.26863V2H18.2008C20.9622 2 23.2008 4.23858 23.2008 7V10C22.3171 10 21.6008 10.7163 21.6008 11.6V13.2C21.6008 14.0837 22.3171 14.8 23.2008 14.8V17C23.2008 19.7614 20.9622 22 18.2008 22H15.7665V15.4627L17.8351 17.5314C18.1475 17.8438 18.654 17.8438 18.9665 17.5314C19.2789 17.219 19.2789 16.7124 18.9665 16.4L14.9665 12.4L10.9665 16.4C10.654 16.7124 10.654 17.219 10.9665 17.5314C11.2789 17.8438 11.7854 17.8438 12.0978 17.5314L14.1665 15.4627V22H5.80078C3.03935 22 0.800781 19.7614 0.800781 17L0.800781 14.8C1.68444 14.8 2.40078 14.0837 2.40078 13.2V11.6C2.40078 10.7163 1.68444 10 0.800781 10L0.800781 7Z" fill="#007BFF"></path></svg><style>@media (prefers-color-scheme: light) { :root { filter: none; } }
@media (prefers-color-scheme: dark) { :root { filter: none; } }
</style></svg>