<svg width="27" height="30" viewBox="0 0 27 30" fill="none" xmlns="http://www.w3.org/2000/svg"><g clip-path="url(#clip0_864_17526)"><path d="M24.48 1c.721 0 1.413.328 1.923.911.51.584.797 1.375.797 2.2V25.89c0 .825-.287 1.616-.797 2.2-.51.583-1.202.911-1.923.911H2.72c-.721 0-1.413-.328-1.923-.911-.51-.584-.797-1.375-.797-2.2V4.11c0-.825.287-1.616.797-2.2C1.307 1.328 1.999 1 2.72 1h21.76ZM20.4 19.667H6.8c-.36 0-.707.164-.962.455a1.676 1.676 0 0 0-.398 1.1c0 .413.143.808.398 1.1.255.292.601.456.962.456h13.6c.36 0 .707-.164.962-.456.255-.292.398-.687.398-1.1 0-.412-.143-.808-.398-1.1a1.28 1.28 0 0 0-.962-.455ZM10.88 7.222H8.16c-.686 0-1.347.296-1.85.83-.504.534-.812 1.265-.863 2.048l-.007.233v3.111c0 .785.259 1.541.726 2.117.466.575 1.106.928 1.79.987l.204.008h2.72c.686 0 1.347-.297 1.85-.83.503-.534.812-1.266.863-2.048l.007-.234v-3.11a3.37 3.37 0 0 0-.726-2.117c-.466-.576-1.106-.928-1.79-.987l-.204-.008Zm9.52 6.222h-4.08c-.347 0-.68.153-.932.425a1.658 1.658 0 0 0-.424 1.04c-.02.396.092.785.315 1.09.222.303.538.499.882.546l.159.01h4.08c.347 0 .68-.152.932-.424s.404-.644.424-1.04a1.705 1.705 0 0 0-.315-1.09 1.322 1.322 0 0 0-.882-.546l-.159-.01Zm-9.52-3.11v3.11H8.16v-3.11h2.72Zm9.52-3.112h-4.08c-.36 0-.707.164-.962.456a1.676 1.676 0 0 0-.398 1.1c0 .412.143.808.398 1.1.255.291.601.455.962.455h4.08c.36 0 .707-.164.962-.455.255-.292.398-.688.398-1.1 0-.413-.143-.808-.398-1.1a1.28 1.28 0 0 0-.962-.456Z" fill="#1C49C2"/></g><defs><clipPath id="clip0_864_17526"><path fill="#fff" d="M0 0h27v30H0z"/></clipPath></defs></svg>