<svg xmlns="http://www.w3.org/2000/svg" viewBox="0 0 250.26 257.23"><title>04</title><g id="Layer_2" data-name="Layer 2"><g id="Layer_2-2" data-name="Layer 2"><path d="M107.18,180.08c5,.43,8.93.76,10.84,2,7.86,5.1,23.66,25.26,31.51,42.63a1.75,1.75,0,0,0,2.52.77c5.67-3.48,9.54-13.73,8.62-19.36a1.76,1.76,0,0,0-.21-.59c-2-3.5-6.77-7.12-12.77-11.7-6.59-5-14.78-11.28-21.63-19.25-2-2.31-2.38-5.05-2-8.05v-.06a48,48,0,0,1,2.52-9c1.23-3.54,2.48-7.19,2.64-10.55a1.74,1.74,0,0,0,0-.32c0-.24,0-.47,0-.71-.78-29.9-39.29-66.49-75.07-90.76C20.78,32.44,9.17,13.38,3.34,1A1.75,1.75,0,0,0,.05,2.18C3.68,16.79,5.08,39,6.33,58.63c1,15.79,1.87,29.42,3.67,37.58a90.28,90.28,0,0,0,2.5,9v0a106,106,0,0,0,13.35,26.47,1.75,1.75,0,0,0,.14.21A122.23,122.23,0,0,0,41.36,150a1.75,1.75,0,0,0,.34.33,126,126,0,0,0,19.14,15.18C79.79,177.74,96.27,179.15,107.18,180.08Zm12.75-.94c-2.65-1.72-6.76-2.07-12.45-2.56l-1.92-.17A40.1,40.1,0,0,0,115.82,174l3.07,3.43,2.51,2.77C120.89,179.8,120.4,179.44,119.93,179.14ZM104.24,153c.16-.58.32-1.17.47-1.75,3.37,3.76,7.08,8.71,10.69,13.52,1.89,2.52,3.67,4.9,5.4,7.1q.06.24.13.47C115.4,166.16,109.82,159.68,104.24,153ZM125,150.85a92.9,92.9,0,0,0-16.82-24.18q.15-4.57-.06-9.16c5.07,6.9,13.12,18.68,17.58,29.46A20.3,20.3,0,0,1,125,150.85Zm-1-15.4A206.34,206.34,0,0,0,107.63,111q-.24-2.34-.58-4.69C115.64,116.82,121.29,126.56,124,135.45Zm-16-3.93c5.7,6.36,12,15.57,15.44,24.45l-.1.3c-.52,1.5-1.06,3.05-1.52,4.62A75.24,75.24,0,0,0,107,139.49Q107.61,135.51,107.92,131.52Zm-1.61,12.34a74.91,74.91,0,0,1,13.17,20.5l-1.28-1.71c-4.24-5.66-8.62-11.5-12.54-15.54Q106,145.48,106.32,143.86ZM98,96.13q1.23,1.29,2.45,2.6c.75.81,1.47,1.62,2.19,2.42a113.43,113.43,0,0,1,2,26,1.76,1.76,0,0,0,0,.26,112,112,0,0,1-3.17,22.21q-2.93-3.55-5.84-7.16A115.65,115.65,0,0,0,98,96.13ZM63.59,129q1.8.22,3.54.35c2.23,7.51,7.23,18.29,12.34,26.71-2.58-.7-5.23-1.5-7.91-2.41A164.71,164.71,0,0,1,63.59,129Zm3.53,23.08c-2.71-1-5.44-2.13-8.18-3.35-2-5.92-3.32-14.7-3.73-21.2q2.37.54,4.67.92A168.1,168.1,0,0,0,67.13,152.13Zm3.73-22.55,1.39,0,1.18,0A174.75,174.75,0,0,0,92.49,159c-2.57-.43-5.28-1-8.08-1.62A129,129,0,0,1,70.86,129.58Zm6.41-.21c.55,0,1.1-.1,1.64-.17,8.21,10.63,16.62,21.1,25,31-1.9-.08-4-.25-6.15-.51C91.27,152.59,82.67,139.82,77.27,129.38ZM89.58,87.78q2.05,1.94,4.09,4A112.63,112.63,0,0,1,92.87,139q-2.12-2.65-4.23-5.33A115.92,115.92,0,0,0,89.58,87.78Zm-7.63-6.92q1.62,1.42,3.26,2.89a113,113,0,0,1,.6,46.35q-3-3.82-5.93-7.68A164.29,164.29,0,0,0,81.94,80.86Zm-8.68-7.27q2.36,1.91,4.8,4c1.68,13.13.78,29.73-1.07,41.1q-2.44-3.22-4.85-6.45a81.27,81.27,0,0,0,1.54-9.48,1.78,1.78,0,0,0,0-.19A133.94,133.94,0,0,0,73.26,73.59Zm-28-20.47c2.23,1.62,4.53,3.24,6.91,4.86,4.37,3,10.38,7.21,17.13,12.48q.28,2,.5,3.91c-7.46-6.3-18.2-14.94-24.69-19.85C45.18,54,45.23,53.57,45.28,53.12Zm-.65,5.43c7.46,5.72,18.95,15,25.69,20.86q.2,2.42.31,4.8c-8.21-8-20.17-18.93-26.22-24.15Q44.52,59.29,44.62,58.55Zm-.9,5.57c7.13,6.25,19.65,17.73,27,25.18,0,2.92,0,5.76-.2,8.5-8-10.07-21-25-27.16-32Q43.57,64.95,43.72,64.12ZM42.47,70c7.36,8.41,20.71,23.85,27.66,32.87-.21,1.9-.47,3.74-.79,5.5-9.61-13-18.72-25.92-26.92-38.12Zm6.07,17.83c-.9-.08-1.83-.18-2.78-.3-1-2.3-1.89-5-2.74-7.68Q45.73,83.85,48.54,87.88ZM42,50.68a133.58,133.58,0,0,1-2.25,15.59q-1.53-2.31-3-4.57c1.21-3.52,2.59-7.58,4-11.94ZM22.36,51l2.15.71,2.41,3.81C28.06,64,30.5,76.74,32.26,85c-1.87-.47-3.76-1-5.64-1.54C24.48,74.12,23,59.24,22.36,51Zm.41,31.23c-1.54-.5-3.07-1-4.57-1.56-1-9.66-1.7-25.13-2-32q1.24.52,2.49,1C19.41,58.3,20.74,72.39,22.77,82.24Zm8.81-19.45q2.54,3.9,5.22,7.92A154.87,154.87,0,0,0,41.75,87c-1.84-.31-3.75-.69-5.7-1.12C34.74,79.92,32.93,70.76,31.58,62.79Zm6.23-15.33c-1.24,3.76-2.44,7.31-3.53,10.51l-2.13-3.31C33.59,52,35,49.19,36.42,46.34ZM33.63,44c-1.17,2.42-2.41,4.88-3.64,7.21L28,48.16c1.17-2,2.29-4,3.34-6C32.13,42.76,32.87,43.4,33.63,44Zm-5-4.34c-.85,1.69-1.77,3.4-2.72,5.08-4.55-7.39-8.53-14.21-11.8-20.25A139.88,139.88,0,0,0,28.67,39.7ZM6.81,21.11l.61,1.18L6.91,22Zm.59,5.34c1.14.71,2.24,1.37,3.28,1.95l1,1.74c-1.5-.75-2.89-1.5-4.1-2.17C7.5,27.47,7.45,27,7.4,26.46Zm.54,5.72c2,1.07,4.34,2.22,6.69,3.22q.91,1.58,1.88,3.21a76.41,76.41,0,0,1-8.36-4Q8.05,33.38,7.95,32.18Zm.54,6.57a83.22,83.22,0,0,0,10.92,4.71q1.06,1.76,2.17,3.56A97.42,97.42,0,0,1,8.68,41.2Q8.58,40,8.49,38.75ZM9.83,58.41c-.27-4.27-.55-8.67-.86-13.08q1.81.93,3.7,1.8c.2,5.31.85,21.39,1.87,32.16q-1.72-.68-3.36-1.4C10.69,71.9,10.26,65.25,9.83,58.41Zm1.7,23.44c1.43.6,2.91,1.18,4.4,1.74h0c12,4.47,25.55,7.59,35.15,8l3.45,4.87C43.27,95.75,24.67,91,11.77,84.19Q11.65,83,11.53,81.85Zm.71,6.52C25.6,94.84,45.47,100,57.16,100q1.77,2.46,3.57,4.93c-13.28-.56-32.46-4.76-48-13.46C12.54,90.5,12.39,89.47,12.25,88.37Zm1.29,7.57c16.69,8.63,36.73,12.52,49.8,12.59q2.09,2.85,4.22,5.7c-13.63,0-37.6-5.52-53.74-17.14C13.72,96.71,13.62,96.32,13.54,95.94Zm1.7,6.36c16.71,10.59,39,15.46,52.39,15.46.87,0,1.71,0,2.5-.06q3.1,4.13,6.25,8.25a57.64,57.64,0,0,1-7.65.07,1.75,1.75,0,0,0-.34,0c-2.11-.13-4.31-.36-6.57-.7a1.74,1.74,0,0,0-.4-.06c-2.39-.37-4.85-.87-7.36-1.49a1.75,1.75,0,0,0-.52-.14c-2.47-.63-5-1.39-7.51-2.28a1.75,1.75,0,0,0-.5-.17q-2.94-1.05-5.9-2.35a1.75,1.75,0,0,0-.45-.19q-3-1.32-6-2.9l-.23-.12a94,94,0,0,1-17.27-11.82C15.55,103.27,15.39,102.78,15.24,102.29Zm39.45,44.49q-3.31-1.62-6.6-3.47a102.59,102.59,0,0,1-1.22-18q2.41.79,4.77,1.42A104.7,104.7,0,0,0,54.69,146.78ZM44.19,141c-1.38-.85-2.75-1.73-4.11-2.65a119.49,119.49,0,0,1,.07-15.58q1.63.67,3.25,1.27A110.09,110.09,0,0,0,44.19,141ZM18.52,111.22l-.43-1,.69.52ZM22,118.53q-.85-1.62-1.63-3.26l1.31-2.49q1.11.77,2.23,1.5C23.2,115.68,22.55,117.15,22,118.53Zm6.32,10.55q-2.19-3.23-4.12-6.56c.7-1.87,1.64-4.2,2.7-6.38q1.69,1,3.39,1.95C29.56,121.24,28.85,125.21,28.31,129.08Zm8.15,6.78q-2.54-1.85-5-3.86c.5-4.15,1.26-8.64,2-12.22q1.64.82,3.28,1.56A102.25,102.25,0,0,0,36.46,135.86Zm1,5,.13.07q3.85,2.61,7.82,4.88a1.76,1.76,0,0,0,.55.31c3.49,2,7,3.78,10.56,5.39a1.76,1.76,0,0,0,.64.29c4.14,1.86,8.28,3.49,12.33,4.89a1.74,1.74,0,0,0,.45.15c4.4,1.5,8.71,2.73,12.82,3.72a1.75,1.75,0,0,0,.33.08,126.6,126.6,0,0,0,13.44,2.47l.15,0a83.72,83.72,0,0,0,10.18.7h.1l2,2.32c-11.94,1.66-35.77-.75-65.07-18.56Q40.52,144.32,37.44,140.85Zm64.77,29.21a49.44,49.44,0,0,0,9.42-.81l1.71,1.95c-5.88,2-16.62,3.14-29.72,1.23a85,85,0,0,1-20.89-9.85q-2.92-1.89-5.72-3.93C75.58,167.37,91.32,170.06,102.22,170.06Z"/><path d="M249.1.1a1.77,1.77,0,0,0-2.18.91c-5.83,12.37-17.44,31.44-50.82,54.08C173.51,70.4,149.83,90.64,135.25,111c-3.42,3.85-4.59,12.51-2,22.1s2.11,19-.7,24.8-3,11.46,0,15c2.1,2.42,7.11,4.62,13.47,5.21,14.16,2.28,31.8-5.07,43.44-12.57a125.71,125.71,0,0,0,19.14-15.18,1.85,1.85,0,0,0,.34-.32,122.25,122.25,0,0,0,15.35-18.09,2.53,2.53,0,0,0,.15-.22,106.27,106.27,0,0,0,13.34-26.45v0a89.19,89.19,0,0,0,2.51-9c1.8-8.15,2.66-21.78,3.66-37.57,1.24-19.61,2.65-41.83,6.28-56.45A1.75,1.75,0,0,0,249.1.1Zm-13,24.43c-3.28,6-7.25,12.86-11.81,20.26-1-1.68-1.87-3.38-2.72-5.08A139.77,139.77,0,0,0,236.12,24.52Zm-12.48,58.9C221.76,84,219.87,84.5,218,85c1.77-8.23,4.2-21,5.36-29.43l2.4-3.81c.72-.22,1.43-.46,2.15-.71C227.22,59.23,225.79,74.12,223.64,83.43Zm7.9-33.73c.84-.32,1.66-.66,2.48-1-.27,6.86-.95,22.33-2,32-1.49.54-3,1.07-4.56,1.57C229.53,72.39,230.85,58.3,231.53,49.7ZM214.22,85.86c-1.94.44-3.85.81-5.7,1.12a153.63,153.63,0,0,0,4.94-16.28q2.68-4,5.22-7.92C217.34,70.77,215.52,79.92,214.22,85.86Zm4.66-43.74c1,2,2.18,4.07,3.34,6l-1.94,3.1c-1.24-2.32-2.46-4.76-3.64-7.21C217.39,43.41,218.13,42.76,218.88,42.11Zm-5,4.23c1.39,2.85,2.84,5.67,4.27,8.31L216,58c-1.09-3.2-2.28-6.75-3.53-10.51Zm-4.32,3.41c1.45,4.36,2.82,8.42,4,11.94q-1.48,2.27-3,4.58a132.61,132.61,0,0,1-2.25-15.59Zm-1.66,20.54c-8.21,12.21-17.32,25.14-26.92,38.13-.32-1.76-.58-3.6-.79-5.5,6.94-9,20.29-24.45,27.66-32.86C207.81,70.13,207.83,70.21,207.85,70.29Zm-.6,9.61c-.86,2.73-1.78,5.38-2.74,7.68-1,.12-1.88.22-2.78.3Q204.54,83.86,207.25,79.9Zm-26.3-9.43c6.75-5.27,12.76-9.52,17.13-12.48,2.39-1.62,4.68-3.24,6.91-4.86,0,.44.1.91.15,1.4-6.49,4.91-17.22,13.55-24.69,19.85C180.6,73.07,180.76,71.77,180.95,70.46Zm-1,8.94c6.75-5.82,18.24-15.13,25.69-20.86.07.49.15,1,.22,1.51-6.05,5.22-18,16.12-26.22,24.15Q179.75,81.83,180,79.41Zm26.59-15.29c.11.55.21,1.11.32,1.67-6.17,7-19.13,21.93-27.16,32-.17-2.74-.23-5.58-.2-8.49C186.89,81.85,199.41,70.37,206.54,64.12ZM172.2,77.54c1.62-1.36,3.23-2.68,4.8-4a134.19,134.19,0,0,0-.44,28.93l0,.19a81.74,81.74,0,0,0,1.54,9.48q-2.41,3.23-4.85,6.45C171.43,107.27,170.52,90.67,172.2,77.54Zm6.51,76.16q-4,1.35-7.91,2.41c5.1-8.42,10.11-19.2,12.33-26.71,1.16-.08,2.34-.2,3.54-.35A164.9,164.9,0,0,1,178.71,153.7Zm11.67-25.21c1.53-.26,3.09-.56,4.67-.92-.41,6.49-1.75,15.28-3.73,21.2q-4.11,1.84-8.18,3.35A167.25,167.25,0,0,0,190.38,128.5Zm-24.53,28.86c-2.8.65-5.5,1.19-8.08,1.62a174.57,174.57,0,0,0,19.06-29.4l1.18,0,1.39,0A129.06,129.06,0,0,1,165.85,157.36Zm-13.35,2.37c-2.19.26-4.25.42-6.15.51,8.39-9.93,16.8-20.39,25-31l1.64.17C167.6,139.81,159,152.58,152.5,159.73Zm12.56-76q1.63-1.47,3.26-2.89a164.27,164.27,0,0,0,2.07,41.57q-2.95,3.85-5.93,7.68A112.92,112.92,0,0,1,165.06,83.75Zm-8.47,8q2-2,4.09-4a116,116,0,0,0,.95,45.93L157.4,139A112.63,112.63,0,0,1,156.59,91.73Zm-8.94,9.42c.72-.81,1.44-1.61,2.18-2.42s1.63-1.75,2.45-2.6a115.64,115.64,0,0,0,2.35,46.36q-2.92,3.61-5.85,7.16a111.76,111.76,0,0,1-3.17-22.2,1.94,1.94,0,0,0,0-.28A113.2,113.2,0,0,1,147.65,101.15ZM138,136.78c1.45-1.89,2.91-3.67,4.33-5.26q.31,4,.89,8c-1.75,1.8-3.29,3.55-4.67,5.25A45.36,45.36,0,0,0,138,136.78Zm4.07-10.11c-1.63,1.66-3.36,3.6-5.09,5.75a49.41,49.41,0,0,1-1.18-5.81c2.29-3.48,4.51-6.61,6.34-9.1Q141.94,122.1,142.08,126.67ZM136,116.05q3.18-4.74,7.25-9.71c-.22,1.57-.41,3.12-.58,4.69-1.52,1.95-4.17,5.46-7.2,9.85A26.34,26.34,0,0,1,136,116.05Zm1.25,37.17c.16-.44.3-.89.42-1.36a72.11,72.11,0,0,1,6.32-8c.2,1.09.42,2.17.65,3.25a132.61,132.61,0,0,0-9.23,11.23C136,156.57,136.63,154.83,137.21,153.22Zm-3.91,13.62,1.57-2.09c3.61-4.82,7.31-9.76,10.69-13.53.15.59.31,1.17.47,1.75q-6.39,7.66-12.74,14.87Q133.27,167.36,133.3,166.84Zm54.23-4.27a85.16,85.16,0,0,1-20.89,9.85c-13.53,4.44-26.16,2.1-29.72-1.24.57-.65,1.14-1.29,1.7-1.94a49.3,49.3,0,0,0,9.43.81c10.89,0,26.63-2.68,45.2-11.41C191.39,160,189.48,161.31,187.53,162.57Zm18.85-15c-29.3,17.81-53.13,20.21-65.07,18.57l2-2.33h.11a83.78,83.78,0,0,0,10.17-.69l.15,0a125,125,0,0,0,13.44-2.46,1.47,1.47,0,0,0,.34-.08c4.11-1,8.42-2.22,12.82-3.72a1.79,1.79,0,0,0,.46-.15c4.06-1.4,8.18-3,12.33-4.89a1.88,1.88,0,0,0,.64-.29c3.54-1.61,7.07-3.41,10.56-5.39a1.75,1.75,0,0,0,.55-.32q4-2.26,7.81-4.87l.13-.07C210.78,143.16,208.62,145.41,206.38,147.58Zm-10.81-.8a104.6,104.6,0,0,0,3-20.09c1.58-.42,3.17-.89,4.77-1.42a102.43,102.43,0,0,1-1.22,18Q198.9,145.15,195.58,146.78Zm11.29-22.71q1.62-.6,3.25-1.26a119.41,119.41,0,0,1,.07,15.58c-1.36.91-2.73,1.8-4.11,2.65A110.19,110.19,0,0,0,206.87,124.06Zm6.94,11.8a103.05,103.05,0,0,0-.32-14.52c1.1-.5,2.18-1,3.28-1.57.78,3.59,1.53,8.08,2,12.23Q216.35,134,213.81,135.86Zm8.15-6.78c-.55-3.87-1.26-7.84-2-11,1.14-.62,2.27-1.27,3.4-1.94,1.07,2.18,2,4.51,2.7,6.38Q224.14,125.85,222,129.08Zm6.32-10.55c-.57-1.38-1.21-2.85-1.91-4.25q1.12-.73,2.23-1.49l1.31,2.49C229.39,116.37,228.85,117.45,228.28,118.53Zm3.46-7.31-.26-.5.69-.53C232,110.54,231.89,110.87,231.74,111.22Zm2.81-7.46a94.09,94.09,0,0,1-17.27,11.82l-.22.11q-3,1.58-6,2.91a1.75,1.75,0,0,0-.44.19c-2,.86-3.94,1.64-5.9,2.34a1.85,1.85,0,0,0-.49.17c-2.55.9-5.07,1.66-7.55,2.3a2.1,2.1,0,0,0-.41.11c-2.54.64-5,1.14-7.46,1.52a2,2,0,0,0-.36.06c-2.34.36-4.6.6-6.78.72h-.13a57.61,57.61,0,0,1-7.66-.07q3.16-4.11,6.25-8.25c.8,0,1.63.06,2.51.06,13.43,0,35.68-4.86,52.38-15.46C234.88,102.78,234.71,103.26,234.55,103.76Zm1.9-6.67c-16.14,11.63-40.1,17.1-53.74,17.14q2.13-2.84,4.21-5.7c13.07-.08,33.11-4,49.8-12.59C236.64,96.32,236.55,96.7,236.45,97.09Zm1.12-5.59c-15.56,8.7-34.74,12.91-48,13.46,1.19-1.64,2.39-3.28,3.57-4.93,11.68,0,31.56-5.19,44.9-11.67C237.87,89.47,237.73,90.5,237.57,91.49Zm.93-7.3C225.6,91,207,95.75,195.69,96.44l3.45-4.87c9.61-.38,23.19-3.5,35.15-8h0c1.5-.56,3-1.14,4.4-1.74C238.65,82.64,238.57,83.43,238.5,84.19Zm1.94-25.78c-.44,6.84-.86,13.49-1.35,19.46-1.09.48-2.21.95-3.36,1.4,1-10.77,1.67-26.85,1.87-32.15,1.26-.58,2.49-1.18,3.7-1.8C241,49.74,240.71,54.14,240.43,58.41Zm1.16-17.22A97.93,97.93,0,0,1,228.68,47c.74-1.2,1.46-2.39,2.17-3.56a82.34,82.34,0,0,0,10.92-4.71C241.71,39.56,241.65,40.38,241.59,41.2Zm.52-6.62a75.59,75.59,0,0,1-8.36,4q1-1.63,1.88-3.21c2.35-1,4.67-2.15,6.69-3.21C242.25,33,242.18,33.78,242.11,34.58Zm.6-6.6c-1.21.67-2.6,1.42-4.1,2.18l1-1.74c1-.58,2.15-1.24,3.28-2Zm.64-6-.51.34.6-1.18C243.42,21.39,243.39,21.68,243.35,22Z"/><path d="M115.65,189.51a6.68,6.68,0,0,0-7.87.32c-1.8,1.42-3.55,2.75-5.19,4-6,4.58-10.75,8.2-12.77,11.7a1.75,1.75,0,0,0-.21.6c-.92,5.63,3,15.88,8.62,19.36a1.75,1.75,0,0,0,2.52-.77,146.45,146.45,0,0,1,17.69-28.43,3.6,3.6,0,0,0-.42-4.93A24.18,24.18,0,0,0,115.65,189.51Z"/><polygon points="65.42 241.84 61.69 234.3 57.97 241.84 49.64 243.06 55.67 248.93 54.24 257.23 61.69 253.31 69.14 257.23 67.72 248.93 73.75 243.06 65.42 241.84"/><polygon points="96.03 240.01 91.86 231.56 87.69 240.01 78.36 241.37 85.11 247.94 83.52 257.23 91.86 252.84 100.2 257.23 98.61 247.94 105.35 241.37 96.03 240.01"/><polygon points="194 241.84 190.28 234.3 186.55 241.84 178.22 243.06 184.25 248.93 182.83 257.23 190.28 253.31 197.73 257.23 196.31 248.93 202.33 243.06 194 241.84"/><polygon points="164.28 240.01 160.11 231.56 155.94 240.01 146.62 241.37 153.37 247.94 151.77 257.23 160.11 252.84 168.45 257.23 166.86 247.94 173.61 241.37 164.28 240.01"/><polygon points="131.04 236.34 125.99 226.09 120.93 236.34 109.62 237.98 117.8 245.96 115.87 257.23 125.99 251.91 136.1 257.23 134.17 245.96 142.36 237.98 131.04 236.34"/></g></g></svg>