<svg xmlns="http://www.w3.org/2000/svg" viewBox="0 0 408.8 360.91"><title>02</title><g id="Layer_2" data-name="Layer 2"><g id="Layer_2-2" data-name="Layer 2"><polygon points="101.09 182.88 119.61 207.03 122.38 207.03 122.38 168.34 115.86 168.34 115.86 191.37 97.83 168.34 94.58 168.34 94.58 206.54 101.09 206.54 101.09 182.88"/><path d="M141.63,167.82l-15.22,38.69h7.53l2.66-7.74h13.08l2.79,7.74h7.48L144.6,167.82Zm-3.1,25.77,4.59-14.1,4.59,14.1Z"/><polygon points="174.46 206.51 174.46 174.36 187.15 174.36 187.15 168.34 155.54 168.34 155.54 174.36 167.69 174.36 167.69 206.51 174.46 206.51"/><path d="M191.58,168.34v26.24q0,6.07,3.61,9.33t10.25,3.26q6.59,0,10.54-3.33a11.43,11.43,0,0,0,3.95-9.22V168.34h-6.77v25.74a6.69,6.69,0,0,1-2,5.17,8.11,8.11,0,0,1-5.72,1.89,6.55,6.55,0,0,1-7-6.93V168.34Z"/><path d="M250.86,185.38a10.33,10.33,0,0,0,2-6.18q0-11.26-14.54-11.26-2.35,0-6.18.2t-4.4.2v38.17h7V190.57q2.76.16,4.3.18l10.19,15.76h14.83l2.66-7.74h13.08l2.79,7.74h7.48l-15.35-38.69h-3l-15,38.2-11-16.7A10.84,10.84,0,0,0,250.86,185.38Zm22.41-5.89,4.59,14.1h-9.17Zm-29.4,4.3q-2,1.2-6.21,1.2-1,0-2.87-.16v-10.6a17.78,17.78,0,0,1,2.29-.16q4.53,0,6.64,1.12a4.07,4.07,0,0,1,2.11,3.93Q245.83,182.59,243.86,183.79Z"/><polygon points="318.16 200.49 300.91 200.49 300.91 168.34 294.13 168.34 294.13 206.51 318.16 206.51 318.16 200.49"/><polygon points="144.05 120.06 144.05 120.84 159.75 120.84 159.75 120.06 155.04 120.06 155.04 65.91 154.25 65.91 144.05 67.4 144.05 68.26 148.76 67.64 148.76 120.06 144.05 120.06"/><path d="M164.77,77.68v31.39a12.56,12.56,0,0,0,25.11,0V77.68a12.56,12.56,0,1,0-25.11,0Zm6.28,0c0-6.51,2.35-11.77,6.28-11.77a4.94,4.94,0,0,1,3.92,2.35l.71,1.1a19.85,19.85,0,0,1,1.65,8.32v31.39c0,6.51-2.35,11.77-6.28,11.77a4.69,4.69,0,0,1-4-2.43l-.63-1a18.47,18.47,0,0,1-1.65-8.32Z"/><path d="M209.66,121.63a12.35,12.35,0,0,0,12.56-12.56V77.68a12.56,12.56,0,1,0-25.11,0v31.39A12.35,12.35,0,0,0,209.66,121.63Zm-6.28-43.95c0-6.51,2.35-11.77,6.28-11.77a4.94,4.94,0,0,1,3.92,2.35l.71,1.1a19.85,19.85,0,0,1,1.65,8.32v31.39c0,6.51-2.35,11.77-6.28,11.77a4.69,4.69,0,0,1-4-2.43l-.63-1a18.47,18.47,0,0,1-1.65-8.32Z"/><path d="M252.51,96.83v17.26c0,4.16,3.92,7.53,8.79,7.53s8.79-3.37,8.79-7.53V96.83c0-4.16-3.92-7.53-8.79-7.53S252.51,92.67,252.51,96.83Zm5.49,0c0-3.92.94-6.75,3.3-6.75s3.3,2.83,3.3,6.75v17.26c0,3.92-.94,6.75-3.3,6.75S258,118,258,114.09Z"/><path d="M237,97.46c4.87,0,8.79-3.37,8.79-7.53V72.66c0-4.16-3.92-7.53-8.79-7.53s-8.79,3.37-8.79,7.53V89.92C228.18,94.08,232.1,97.46,237,97.46Zm-3.3-24.8c0-3.92.94-6.75,3.3-6.75s3.3,2.83,3.3,6.75V89.92c0,3.92-.94,6.75-3.3,6.75s-3.3-2.83-3.3-6.75Z"/><polygon points="235.95 120.84 236.73 120.84 262.39 65.91 261.61 65.91 235.95 120.84"/><path d="M292,230.11h10.24a6.77,6.77,0,0,0,13,0h1.52v-3.38h-1.52a6.77,6.77,0,0,0-13,0H292a6.77,6.77,0,0,0-13,0H268.76a6.77,6.77,0,0,0-13,0H245.52a6.77,6.77,0,0,0-13,0H222.28a6.77,6.77,0,0,0-13,0H199a6.77,6.77,0,0,0-13,0H175.81a6.77,6.77,0,0,0-13,0H152.58a6.77,6.77,0,0,0-13,0H129.34a6.77,6.77,0,0,0-13,0H106.1a6.77,6.77,0,0,0-13,0H92.06v3.38h1.06a6.77,6.77,0,0,0,13,0h10.24a6.77,6.77,0,0,0,13,0h10.24a6.77,6.77,0,0,0,13,0h10.24a6.77,6.77,0,0,0,13,0h10.24a6.77,6.77,0,0,0,13,0h10.24a6.77,6.77,0,0,0,13,0h10.24a6.77,6.77,0,0,0,13,0h10.24a6.77,6.77,0,0,0,13,0H279a6.77,6.77,0,0,0,13,0Z"/><path d="M186.06,151.53H175.81a6.77,6.77,0,0,0-13,0H152.58a6.77,6.77,0,0,0-13,0H129.34a6.77,6.77,0,0,0-13,0H106.1a6.77,6.77,0,0,0-13,0H92.06v3.38h1.06a6.77,6.77,0,0,0,13,0h10.24a6.77,6.77,0,0,0,13,0h10.24a6.77,6.77,0,0,0,13,0h10.24a6.77,6.77,0,0,0,13,0h10.24a6.77,6.77,0,0,0,13,0h10.24a6.77,6.77,0,0,0,13,0h10.24a6.77,6.77,0,0,0,13,0h10.24a6.77,6.77,0,0,0,13,0H279a6.77,6.77,0,0,0,13,0h10.24a6.77,6.77,0,0,0,13,0h1.52v-3.38h-1.52a6.77,6.77,0,0,0-13,0H292a6.77,6.77,0,0,0-13,0H268.76a6.77,6.77,0,0,0-13,0H245.52a6.77,6.77,0,0,0-13,0H222.28a6.77,6.77,0,0,0-13,0H199a6.77,6.77,0,0,0-13,0Z"/><path d="M372.06,266.32c-2.44.86-4.81,1.86-7.24,3a70.78,70.78,0,0,0-7.33,3.77c-2.42,1.43-5,2.94-7.46,4.73l-3.76,2.71a177.72,177.72,0,0,0,17-30.86c.27-.65.53-1.3.79-2,12.46-1.5,22.24-6.8,29.28-14.5,7.82-8.42,12.6-19.51,15.46-31.2-4.42,2.28-8.85,4.65-13,7.35-2.07,1.36-4.23,2.78-6.3,4.32a76.72,76.72,0,0,0-6,5,71.27,71.27,0,0,0-5.92,5.76l-2.88,3.23q-1.46,1.67-2.86,3.48c-1,1.39-2.13,2.82-3.22,4.31a177,177,0,0,0,6-25l.44-2.52.31-2.53.62-5.06c.09-.66.14-1.32.19-2a56.18,56.18,0,0,0,6-3q2.1-1.24,4-2.63a36.71,36.71,0,0,0,3.57-2.9,49.23,49.23,0,0,0,6-6.54,33.73,33.73,0,0,0,2.42-3.59q1.1-1.84,2.06-3.77c5-10.3,6.41-22.28,5.73-34.31-1.78,1.73-3.5,3.47-5.24,5.27s-3.46,3.64-5.09,5.55a93.09,93.09,0,0,0-9.11,12.46A99,99,0,0,0,376.79,186l0-.86c0-1.68.11-3.36,0-5-.09-3.35-.14-6.69-.43-10a175.67,175.67,0,0,0-2.47-19.53l-.6-2.9a56.92,56.92,0,0,0,5.08-4.83,48,48,0,0,0,5.6-7.49,41.43,41.43,0,0,0,3.8-8q.73-2.05,1.29-4.16a42.46,42.46,0,0,0,.84-4.21c1.82-11.36-.41-23.23-4.59-34.52-4.77,8.7-9.17,17.64-11.77,28a104.55,104.55,0,0,0-3,23.65L369.35,132c-.85-3-2-5.93-2.95-8.84-.48-1.46-1.11-2.86-1.65-4.28s-1.1-2.83-1.71-4.21c-2.24-5.06-4.55-10-7.11-14.58C363,89.2,365,78.12,363.54,67.54,362,56.15,356.37,45.47,349.1,35.9c-2,9.7-3.64,19.53-3.12,30.18a104.21,104.21,0,0,0,4.28,24.33,172.13,172.13,0,0,0-13.07-18,169.87,169.87,0,0,0-11.74-12.75c3.68-12.53,2.4-23.8-2.11-33.55-4.82-10.44-13.26-19-23-26.09.88,9.88,2.21,19.75,5.8,29.79A105.13,105.13,0,0,0,317.7,52.5,163.64,163.64,0,0,0,302,40.37l-3.36-2.29-1.92-1.2a54.79,54.79,0,0,0-11.65-13,50.1,50.1,0,0,0-16-8.72c-11-3.56-22-2.86-31.92-.43,8.36,6.07,16.34,11.9,25.76,16.29a87.6,87.6,0,0,0,15.66,5.57A161.54,161.54,0,0,0,295,39.71l1.82,1.15,3.27,2.27a160.24,160.24,0,0,1,15.23,12,50.41,50.41,0,0,0-7.63-2.93,43.68,43.68,0,0,0-8.17-1.49,40.14,40.14,0,0,0-7.58.17c-9.71,1.22-17.66,5.88-24.68,11.58C275,64.65,282.82,66.71,292,67c8.59.3,18.44-.91,30.86-4.8A166.06,166.06,0,0,1,334.2,74.74a168.14,168.14,0,0,1,12.62,17.7A52.24,52.24,0,0,0,341,88a43.54,43.54,0,0,0-7.39-3.8,40.07,40.07,0,0,0-7.3-2c-9.65-1.65-18.61.49-27,3.89,6.77,4.33,13.68,8.58,22.37,11.54,8.07,2.76,17.76,4.45,30.64,4.37A162.85,162.85,0,0,1,365.1,133.1l1.22,4.19c-.39-.6-.78-1.19-1.18-1.76q-1.35-1.92-2.74-3.61a45.84,45.84,0,0,0-6-5.79,41.56,41.56,0,0,0-6.39-4.08c-8.75-4.39-17.93-4.94-26.95-4.12,5.21,6.1,10.56,12.16,18,17.52.93.67,1.94,1.32,2.92,2s2,1.3,3.1,1.93c2.17,1.26,4.54,2.47,7,3.65s5.29,2.29,8.25,3.37q3,1.12,6.49,2.16l.53,2.66a169.84,169.84,0,0,1,2.25,19c.33,5.16.42,10.39.27,15.63-.13-.47-.27-.95-.41-1.4a34,34,0,0,0-1.56-4.25q-.9-2-1.89-3.84a29.72,29.72,0,0,0-2.12-3.44,42,42,0,0,0-4.88-5.78,41.22,41.22,0,0,0-11.64-7.77,56.84,56.84,0,0,0-6.34-2.41c-2.15-.67-4.39-1.21-6.6-1.68,3.18,7.36,6.52,14.74,12.08,22.07q1,1.38,2.2,2.76c.79.92,1.61,1.84,2.43,2.76a69.67,69.67,0,0,0,5.66,5.55c1.07.93,2.15,1.86,3.28,2.8s2.33,1.88,3.59,2.82c1.67,1.26,3.51,2.53,5.43,3.81-.39,3.85-.9,7.69-1.57,11.52a171.49,171.49,0,0,1-6.11,24.41,34,34,0,0,0-.27-5.2q-.26-2.19-.67-4.22-.2-1-.44-2c-.19-.65-.39-1.3-.6-1.93a43.67,43.67,0,0,0-3-6.94,42.43,42.43,0,0,0-4.08-5.87,39.59,39.59,0,0,0-4.8-4.92,64,64,0,0,0-11.18-7.66c.88,8,1.93,16,5.14,24.59,3,7.88,7.52,16.24,15.46,26-.23.56-.45,1.12-.69,1.67a172.14,172.14,0,0,1-16.83,30,33,33,0,0,0,1.07-4.38,43.18,43.18,0,0,0,.75-8.27,43.87,43.87,0,0,0-.83-7.52,40.41,40.41,0,0,0-2.17-6.81,39.87,39.87,0,0,0-3.14-6.11,63.38,63.38,0,0,0-8.45-10.6c-1.48,7.87-2.84,15.84-2.3,25,.09,2.27.43,4.71.77,7.16a70,70,0,0,0,1.59,7.76c.71,2.72,1.49,5.5,2.54,8.5.64,1.84,1.38,3.76,2.18,5.73A169.29,169.29,0,0,1,308,312.53c.7-1.1,1.35-2.19,1.94-3.26a50.88,50.88,0,0,0,3.12-7.7,43.27,43.27,0,0,0,1.36-7.47,35.82,35.82,0,0,0-.07-7.13,45.31,45.31,0,0,0-1.2-6.75,65.6,65.6,0,0,0-5-12.63c-3.71,7.14-7.36,14.36-9.53,23.29q-.41,1.68-.73,3.46c-.21,1.2-.45,2.36-.62,3.6a76.7,76.7,0,0,0-.72,7.91,102.91,102.91,0,0,0,.36,14.72c-3.67,2.43-7.35,4.67-11,6.69a165.56,165.56,0,0,1-20.13,9.46c.82-.72,1.61-1.44,2.35-2.17a45.67,45.67,0,0,0,5.22-6.47,28.14,28.14,0,0,0,1.94-3.35q.86-1.7,1.54-3.39T278,318c.33-1.14.59-2.31.82-3.45a46.86,46.86,0,0,0,.8-6.83,63.2,63.2,0,0,0-1.12-13.54c-1.43,1.39-2.79,2.9-4.18,4.37s-2.77,3-4.08,4.61a54.79,54.79,0,0,0-3.92,5c-1.24,1.8-2.51,3.54-3.66,5.56-4.18,7-7.69,15.82-10.26,27.66l-.06,0-6.09,1.7-5.81,1.33c-.94.21-1.86.44-2.77.61l-2.7.47-5.1.89-4.72.59c-1.5.17-2.93.39-4.29.5l-3.86.28c-2.42.18-4.53.35-6.3.34l-4.29.09h-4l-4.25-.09c-.88,0-1.85,0-2.89-.09l-3.37-.24-3.84-.28c-1.36-.1-2.78-.32-4.28-.49l-4.71-.58-5.08-.89-2.69-.47c-.91-.16-1.83-.4-2.76-.6l-5.8-1.31c-2-.58-4.16-1.15-6.33-1.78-2.57-11.84-6.08-20.62-10.26-27.65-1.15-2-2.42-3.76-3.66-5.56a54.79,54.79,0,0,0-3.92-5c-1.31-1.64-2.67-3.17-4.08-4.61s-2.75-3-4.18-4.37a63.2,63.2,0,0,0-1.12,13.54,46.86,46.86,0,0,0,.8,6.83c.22,1.14.49,2.31.82,3.45s.74,2.25,1.19,3.37,1,2.26,1.54,3.39a28.13,28.13,0,0,0,1.94,3.35,45.67,45.67,0,0,0,5.22,6.47c.74.73,1.54,1.45,2.36,2.17a165.29,165.29,0,0,1-19.94-9.35c-3.73-2.06-7.48-4.33-11.22-6.81a102.91,102.91,0,0,0,.36-14.72,76.68,76.68,0,0,0-.72-7.91c-.17-1.24-.41-2.4-.62-3.6s-.46-2.35-.73-3.46c-2.16-8.93-5.82-16.15-9.53-23.29a65.59,65.59,0,0,0-5,12.63,45.31,45.31,0,0,0-1.2,6.75,35.81,35.81,0,0,0-.07,7.13,43.25,43.25,0,0,0,1.36,7.47,50.87,50.87,0,0,0,3.12,7.7c.59,1.08,1.24,2.17,1.94,3.27a169.77,169.77,0,0,1-25.52-24.8c.8-2,1.54-3.89,2.18-5.73,1.06-3,1.84-5.77,2.54-8.5a70,70,0,0,0,1.59-7.76c.34-2.45.68-4.88.77-7.16.53-9.17-.82-17.14-2.3-25a63.38,63.38,0,0,0-8.45,10.6,39.87,39.87,0,0,0-3.14,6.11,40.41,40.41,0,0,0-2.17,6.81,43.86,43.86,0,0,0-.84,7.52,43.19,43.19,0,0,0,.75,8.27,33,33,0,0,0,1.07,4.4h0a172.17,172.17,0,0,1-16.75-29.77c-.27-.62-.52-1.25-.78-1.88,7.94-9.74,12.46-18.1,15.46-26,3.21-8.6,4.26-16.61,5.14-24.59a64,64,0,0,0-11.18,7.66,39.6,39.6,0,0,0-4.8,4.92,42.42,42.42,0,0,0-4.08,5.87,43.65,43.65,0,0,0-3,6.94c-.21.63-.41,1.27-.6,1.93s-.31,1.31-.44,2q-.41,2-.67,4.22a34.06,34.06,0,0,0-.27,5.23,171.83,171.83,0,0,1-6.07-24.24l-.45-2.44-.32-2.46-.65-4.91c-.09-.63-.15-1.27-.2-1.91,1.93-1.28,3.77-2.56,5.44-3.82q1.89-1.42,3.59-2.82c1.12-.94,2.2-1.87,3.28-2.8a69.67,69.67,0,0,0,5.66-5.55c.81-.92,1.64-1.84,2.43-2.76s1.51-1.84,2.2-2.76c5.56-7.33,8.9-14.71,12.08-22.07-2.21.46-4.45,1-6.6,1.68a56.84,56.84,0,0,0-6.34,2.41,41.22,41.22,0,0,0-11.64,7.77,42,42,0,0,0-4.88,5.78,29.74,29.74,0,0,0-2.12,3.44q-1,1.82-1.89,3.84a34,34,0,0,0-1.56,4.25c-.13.44-.26.89-.39,1.34l0-.76c0-1.64-.14-3.27-.07-4.9.06-3.26.07-6.51.34-9.73a171.06,171.06,0,0,1,2.23-19l.56-2.82q3.44-1,6.5-2.16c3-1.08,5.74-2.19,8.25-3.37s4.86-2.39,7-3.65q1.62-.95,3.1-1.93c1-.66,2-1.3,2.92-2,7.44-5.36,12.79-11.42,18-17.52-9-.82-18.19-.27-26.95,4.12a41.55,41.55,0,0,0-6.39,4.08,45.82,45.82,0,0,0-6,5.79q-1.39,1.69-2.74,3.61c-.39.56-.79,1.15-1.17,1.74l1.17-4c.8-3,1.85-5.8,2.8-8.64.45-1.43,1.06-2.8,1.58-4.19s1-2.77,1.63-4.12c2.14-5,4.36-9.77,6.83-14.31,12.88.08,22.58-1.61,30.65-4.37,8.69-3,15.6-7.21,22.37-11.54-8.39-3.4-17.34-5.55-27-3.89a40.07,40.07,0,0,0-7.3,2A43.54,43.54,0,0,0,67.82,88,52.23,52.23,0,0,0,62,92.44,168.23,168.23,0,0,1,74.55,74.8,166.17,166.17,0,0,1,85.94,62.22c12.43,3.89,22.27,5.1,30.86,4.8,9.18-.31,17-2.37,24.74-4.53-7-5.7-15-10.36-24.68-11.58a40.14,40.14,0,0,0-7.58-.17,43.68,43.68,0,0,0-8.17,1.49,50.42,50.42,0,0,0-7.64,2.93,160.12,160.12,0,0,1,15.22-12L112,40.88l1.84-1.16a161.53,161.53,0,0,0,16.41-3.11A87.6,87.6,0,0,0,145.87,31c9.41-4.39,17.39-10.21,25.76-16.29-10-2.43-20.94-3.13-31.92.43a50.1,50.1,0,0,0-16,8.72,54.79,54.79,0,0,0-11.65,13l-1.91,1.19-3.35,2.29A163.74,163.74,0,0,0,91.1,52.5a105.13,105.13,0,0,0,11.6-22.71c3.59-10,4.92-19.91,5.8-29.79-9.76,7.05-18.21,15.65-23,26.09-4.51,9.75-5.79,21-2.11,33.55A169.81,169.81,0,0,0,71.67,72.33,172,172,0,0,0,58.55,90.4a104.2,104.2,0,0,0,4.27-24.32c.52-10.65-1.09-20.47-3.12-30.18-7.27,9.57-12.86,20.25-14.43,31.63-1.47,10.58.54,21.67,7.61,32.53a167.08,167.08,0,0,0-13.38,31.76L38.23,136a104.52,104.52,0,0,0-3-23.62c-2.6-10.34-7-19.28-11.77-28C19.27,95.73,17,107.59,18.86,119a42.44,42.44,0,0,0,.84,4.21q.56,2.1,1.29,4.16a41.41,41.41,0,0,0,3.8,8,48,48,0,0,0,5.6,7.49,56.94,56.94,0,0,0,5.08,4.83l-.57,2.74A174.5,174.5,0,0,0,32.4,169.9c-.39,5.28-.52,10.62-.42,16a98.88,98.88,0,0,0-9.59-21.07,93.12,93.12,0,0,0-9.11-12.46c-1.63-1.91-3.34-3.75-5.09-5.55S4.74,143.27,3,141.54c-.68,12,.68,24,5.73,34.31q1,1.93,2.06,3.77a33.71,33.71,0,0,0,2.42,3.59,49.23,49.23,0,0,0,6,6.54,36.71,36.71,0,0,0,3.57,2.9q1.91,1.38,4,2.63a56.2,56.2,0,0,0,6,3.05c.37,4,.86,7.93,1.51,11.87a176.64,176.64,0,0,0,6.08,25.22c-1.1-1.49-2.2-2.93-3.23-4.32q-1.4-1.82-2.86-3.48l-2.88-3.23a71.26,71.26,0,0,0-5.92-5.76,76.73,76.73,0,0,0-6-5c-2.07-1.54-4.23-3-6.3-4.32-4.19-2.71-8.62-5.08-13-7.35,2.87,11.69,7.64,22.77,15.46,31.2,7,7.7,16.82,13,29.27,14.5.24.58.46,1.16.7,1.74a177.69,177.69,0,0,0,17.1,31.08l-3.77-2.72c-2.46-1.79-5-3.3-7.46-4.73A70.79,70.79,0,0,0,44,269.3c-2.43-1.12-4.8-2.12-7.24-3s-4.91-1.59-7.29-2.28c-4.8-1.36-9.74-2.32-14.62-3.21,6.17,10.36,14,19.54,23.94,25.28a45.5,45.5,0,0,0,7.82,3.62,49.12,49.12,0,0,0,8.6,2.1,47.42,47.42,0,0,0,9.38.34,54.56,54.56,0,0,0,6.17-.73,175.31,175.31,0,0,0,26.27,26c-1.3-.47-2.58-.9-3.86-1.29a72.52,72.52,0,0,0-8.5-2.36,72.41,72.41,0,0,0-8.08-1.51c-2.69-.31-5.23-.61-7.8-.72s-5.12-.12-7.65,0a144.86,144.86,0,0,0-14.9,1.19c8.88,8.11,19.05,14.58,30.24,17.18q2.09.49,4.21.81A40.41,40.41,0,0,0,85,331a46.54,46.54,0,0,0,8.82-.47,51,51,0,0,0,14.57-4.78c3.78,2.55,7.57,4.9,11.36,7a172,172,0,0,0,20.93,10,99.81,99.81,0,0,0-20.44,1q-2,.33-3.92.76c-1.28.27-2.53.53-3.77.84-2.49.61-4.92,1.35-7.32,2.16-4.79,1.61-9.34,3.43-13.91,5.46,2.75,1.25,5.47,2.49,8.27,3.5s5.64,1.86,8.46,2.6a80.09,80.09,0,0,0,8.6,1.45,52.25,52.25,0,0,0,8.62.13,46,46,0,0,0,29.17-13.06l.07,0,6.32,1.82,6,1.43c1,.22,1.93.47,2.88.66l2.8.51,5.3,1,4.91.65c1.57.19,3.05.43,4.47.56l4,.32c2.52.21,4.71.39,6.57.4l4.47.13h4.22l4.42-.13c.92,0,1.92,0,3-.12l3.51-.28,4-.32c1.41-.12,2.89-.36,4.45-.55l4.9-.64,5.29-1,2.8-.51c.95-.17,1.9-.43,2.87-.65l6-1.42c2.12-.62,4.32-1.23,6.57-1.9a46,46,0,0,0,29.18,13.06,52.26,52.26,0,0,0,8.62-.13,80.09,80.09,0,0,0,8.6-1.45c2.82-.74,5.64-1.62,8.46-2.6s5.52-2.26,8.27-3.5c-4.58-2-9.13-3.85-13.91-5.46-2.4-.82-4.84-1.55-7.32-2.16-1.25-.31-2.49-.58-3.77-.84s-2.6-.54-3.92-.76a99.81,99.81,0,0,0-20.45-1,171.73,171.73,0,0,0,20.73-9.93c3.85-2.16,7.72-4.56,11.57-7.15A51,51,0,0,0,315,330.58a46.55,46.55,0,0,0,8.82.47,40.41,40.41,0,0,0,4.33-.37q2.12-.32,4.21-.81c11.19-2.6,21.36-9.07,30.24-17.18a144.86,144.86,0,0,0-14.9-1.19c-2.53-.08-5.09-.09-7.65,0s-5.11.41-7.8.72a98.45,98.45,0,0,0-16.58,3.87c-1.28.39-2.57.83-3.87,1.29a175.78,175.78,0,0,0,26.27-26,54.58,54.58,0,0,0,6.18.73,47.42,47.42,0,0,0,9.38-.34,49.13,49.13,0,0,0,8.6-2.1,45.51,45.51,0,0,0,7.82-3.62c9.95-5.75,17.77-14.93,23.94-25.28-4.88.89-9.82,1.85-14.62,3.21C377,264.74,374.48,265.46,372.06,266.32Zm9-82.47c.37-.79.77-1.56,1.15-2.31s.74-1.47,1.13-2.18c.78-1.41,1.61-2.74,2.47-4a62.67,62.67,0,0,1,5.44-6.83c1.9-2.07,4-4,5.94-5.81a64,64,0,0,1-1.78,9.13,42.66,42.66,0,0,1-3.53,8.64,35,35,0,0,1-5.94,7.76,36.22,36.22,0,0,1-8.9,6.41A88.87,88.87,0,0,1,381,183.85Zm-7-51.65a50.42,50.42,0,0,1,.9-5c.33-1.58.71-3.08,1.16-4.54a64.62,64.62,0,0,1,3.21-8.14c1.21-2.54,2.57-4.95,4-7.31a67.9,67.9,0,0,1,1,9.27,41.67,41.67,0,0,1-.85,9.32A34.6,34.6,0,0,1,380,135a38.86,38.86,0,0,1-6.63,8.72A82.67,82.67,0,0,1,374,132.2ZM272.61,30.44c-1.53-.83-3-1.63-4.46-2.47s-2.81-1.78-4.16-2.68c-2.74-1.74-5.27-3.8-7.87-5.66a58,58,0,0,1,9.84.49,47.86,47.86,0,0,1,5,1,33.7,33.7,0,0,1,5.08,1.65A44.53,44.53,0,0,1,295.5,38.06,89.1,89.1,0,0,1,272.61,30.44Zm27.31,32.15c-.68-.05-1.34-.13-2-.2s-1.32-.14-2-.24c-1.29-.19-2.53-.43-3.74-.72-2.42-.57-4.8-1.17-7.05-1.94a36.37,36.37,0,0,1,14.91-4.32,28.33,28.33,0,0,1,4.35.1,36.15,36.15,0,0,1,4.61.84c.8.2,1.62.42,2.44.69s1.63.61,2.47,1a40,40,0,0,1,5.2,2.59A56,56,0,0,1,299.92,62.59Zm23.45-6.71c-1.16-1.79-2.3-3.42-3.25-5.1q-.73-1.24-1.36-2.47c-.44-.8-.86-1.58-1.25-2.36a50.13,50.13,0,0,1-2-4.62c-.58-1.52-1.13-3-1.56-4.42a69.93,69.93,0,0,1-2.63-16.82,64.8,64.8,0,0,1,6,7.16c.88,1.29,1.71,2.6,2.47,4q.57,1,1.09,2.06c.33.71.64,1.45.93,2.18A35.27,35.27,0,0,1,323.37,55.88Zm7.16,39.78c-.63-.25-1.24-.51-1.85-.77s-1.22-.52-1.81-.8c-1.18-.55-2.3-1.15-3.37-1.77-2.15-1.25-4.26-2.52-6.19-3.9a36.4,36.4,0,0,1,15.52.2A28.15,28.15,0,0,1,337,90a36.15,36.15,0,0,1,4.17,2.14c.7.42,1.43.87,2.13,1.37s1.38,1.05,2.09,1.64a40.13,40.13,0,0,1,4.22,4A56.12,56.12,0,0,1,330.53,95.67Zm22.76-5.43q-.33-1.4-.59-2.76c-.19-.89-.37-1.76-.51-2.62a50.12,50.12,0,0,1-.61-5c-.11-1.63-.22-3.16-.21-4.68a69.86,69.86,0,0,1,2.37-16.86,64.52,64.52,0,0,1,3.62,8.58c.47,1.49.88,3,1.21,4.5q.25,1.14.44,2.29c.11.78.19,1.57.25,2.36a35.25,35.25,0,0,1-4.35,20C354.33,94,353.71,92.12,353.29,90.24Zm4.28,50.7a47.74,47.74,0,0,1-7.41-4.75,48.42,48.42,0,0,1-5.74-5.25,71.14,71.14,0,0,1-4.77-5.53,47.09,47.09,0,0,1,7.45,1.5,29.61,29.61,0,0,1,7.33,3.21,31.9,31.9,0,0,1,3.57,2.5,35.94,35.94,0,0,1,3.34,3.27,39.09,39.09,0,0,1,6,9.16A62.14,62.14,0,0,1,357.57,140.94Zm5.15,46.49A49.43,49.43,0,0,1,353.08,174c-1.18-2.23-2-4.48-3-6.7a42.3,42.3,0,0,1,6.69,3.63,30.21,30.21,0,0,1,6.08,5.23,33,33,0,0,1,2.64,3.44q.63.94,1.22,2c.37.68.71,1.4,1.05,2.14a37.78,37.78,0,0,1,3.07,10.52A70.8,70.8,0,0,1,362.72,187.43Zm6.54,52.14c1.14-1.53,2.31-2.94,3.5-4.24a54.72,54.72,0,0,1,7-6.75c1.22-.95,2.4-1.84,3.57-2.66s2.39-1.59,3.61-2.3c2.42-1.43,5-2.66,7.39-3.84A68.33,68.33,0,0,1,390,228a33.15,33.15,0,0,1-2.74,3.78,43.15,43.15,0,0,1-3.17,3.48q-.84.83-1.74,1.61c-.61.52-1.27,1-1.94,1.48a36.77,36.77,0,0,1-4.26,2.62,35.05,35.05,0,0,1-4.82,2.09,42.54,42.54,0,0,1-5.56,1.44C366.93,242.73,368.15,241.11,369.26,239.56Zm-12.46-1.85c-1-1.48-1.86-2.93-2.62-4.33a45.11,45.11,0,0,1-2-4.11c-.28-.67-.53-1.33-.78-2s-.5-1.32-.73-2c-.44-1.3-.8-2.58-1.09-3.83s-.49-2.48-.74-3.73a70.82,70.82,0,0,1-.88-7.25,43.23,43.23,0,0,1,5.34,5.4,35.72,35.72,0,0,1,2.34,3.18,24,24,0,0,1,2,3.58,31.62,31.62,0,0,1,2.52,8.65,43.08,43.08,0,0,1,.31,5.17,33.15,33.15,0,0,1-.47,5.78Q358.21,239.92,356.8,237.72ZM41,183.69c.34-.74.68-1.46,1.05-2.14s.8-1.34,1.22-2a33,33,0,0,1,2.64-3.44A30.21,30.21,0,0,1,52,170.92a42.3,42.3,0,0,1,6.69-3.63c-.93,2.22-1.78,4.47-3,6.7a46.92,46.92,0,0,1-4,6.72,47.15,47.15,0,0,1-5.67,6.72,70.81,70.81,0,0,1-8.16,6.78A37.78,37.78,0,0,1,41,183.69ZM132.74,22.8a33.7,33.7,0,0,1,5.08-1.65,47.86,47.86,0,0,1,5-1,58,58,0,0,1,9.84-.49c-2.6,1.86-5.13,3.92-7.87,5.66-1.36.9-2.72,1.84-4.16,2.68s-2.93,1.64-4.46,2.47a89.1,89.1,0,0,1-22.89,7.62A44.53,44.53,0,0,1,132.74,22.8Zm-37.89,35q1.26-.53,2.47-1c.82-.27,1.64-.49,2.44-.69a36.16,36.16,0,0,1,4.61-.84,28.33,28.33,0,0,1,4.35-.1,36.37,36.37,0,0,1,14.91,4.32c-2.25.77-4.64,1.36-7.05,1.94-1.21.29-2.45.53-3.74.72q-1,.14-2,.24c-.66.08-1.32.15-2,.2a56,56,0,0,1-19.22-2.24A40,40,0,0,1,94.86,57.76ZM87.08,35.45c.29-.74.59-1.47.93-2.18s.71-1.38,1.09-2.06c.76-1.36,1.59-2.67,2.47-4a64.8,64.8,0,0,1,6-7.16A69.92,69.92,0,0,1,94.9,36.92c-.43,1.46-1,2.9-1.56,4.42a50.07,50.07,0,0,1-2,4.62c-.39.78-.81,1.56-1.25,2.36s-.88,1.64-1.36,2.47c-1,1.68-2.09,3.3-3.25,5.1A35.26,35.26,0,0,1,87.08,35.45ZM63.44,95.12q1.05-.87,2.09-1.64c.71-.5,1.43-.95,2.13-1.37A36.13,36.13,0,0,1,71.83,90,28.14,28.14,0,0,1,76,88.62a36.4,36.4,0,0,1,15.52-.2c-1.93,1.39-4,2.65-6.19,3.9-1.07.63-2.19,1.22-3.37,1.77q-.88.41-1.81.8c-.6.27-1.21.53-1.85.77a56.12,56.12,0,0,1-19,3.44A40.11,40.11,0,0,1,63.44,95.12ZM49.53,76c.06-.79.14-1.58.25-2.36s.28-1.53.44-2.29c.33-1.52.74-3,1.21-4.5a64.54,64.54,0,0,1,3.62-8.58,69.86,69.86,0,0,1,2.37,16.86c0,1.53-.1,3.06-.21,4.68a50.15,50.15,0,0,1-.61,5c-.15.86-.33,1.73-.51,2.62s-.36,1.82-.59,2.76c-.42,1.88-1,3.77-1.63,5.83A35.25,35.25,0,0,1,49.53,76ZM47.47,135.9a35.91,35.91,0,0,1,3.34-3.27,31.89,31.89,0,0,1,3.57-2.5,29.61,29.61,0,0,1,7.33-3.21,47.09,47.09,0,0,1,7.45-1.5,71.13,71.13,0,0,1-4.77,5.53,48.41,48.41,0,0,1-5.74,5.25,47.75,47.75,0,0,1-7.41,4.75,62.14,62.14,0,0,1-9.8,4.12A39.08,39.08,0,0,1,47.47,135.9ZM28.8,135a34.6,34.6,0,0,1-3.39-9.16,41.69,41.69,0,0,1-.85-9.32,67.93,67.93,0,0,1,1-9.27c1.42,2.36,2.78,4.77,4,7.31a64.64,64.64,0,0,1,3.21,8.14c.45,1.46.83,3,1.16,4.54a50.47,50.47,0,0,1,.9,5,82.7,82.7,0,0,1,.65,11.51A38.85,38.85,0,0,1,28.8,135Zm-5.91,53.26A35,35,0,0,1,17,180.5a42.66,42.66,0,0,1-3.53-8.64,64,64,0,0,1-1.78-9.13c2,1.83,4,3.74,5.94,5.81A62.67,62.67,0,0,1,23,175.36c.87,1.26,1.7,2.59,2.47,4q.58,1.06,1.13,2.18c.39.75.78,1.52,1.15,2.31a88.87,88.87,0,0,1,4,10.81A36.22,36.22,0,0,1,22.89,188.26Zm14.61,54.8A35.06,35.06,0,0,1,32.68,241a36.8,36.8,0,0,1-4.26-2.62c-.66-.48-1.32-1-1.94-1.48s-1.18-1.06-1.74-1.61a43.11,43.11,0,0,1-3.17-3.48A33.15,33.15,0,0,1,18.84,228a68.32,68.32,0,0,1-4.37-8.23c2.43,1.18,5,2.41,7.39,3.84,1.22.72,2.42,1.48,3.61,2.3s2.35,1.72,3.57,2.66a54.74,54.74,0,0,1,7,6.75c1.19,1.3,2.35,2.71,3.5,4.24s2.32,3.17,3.52,4.93A42.55,42.55,0,0,1,37.5,243.05Zm10.83-6.57a43.09,43.09,0,0,1,.31-5.17,31.62,31.62,0,0,1,2.52-8.65,24,24,0,0,1,2-3.58,35.72,35.72,0,0,1,2.34-3.18,43.22,43.22,0,0,1,5.34-5.4,70.85,70.85,0,0,1-.88,7.25c-.26,1.24-.45,2.47-.74,3.73s-.65,2.53-1.09,3.83q-.33,1-.73,2c-.25.66-.5,1.32-.78,2a45.12,45.12,0,0,1-2,4.11c-.76,1.4-1.65,2.85-2.62,4.33s-2,3-3.2,4.54A33.17,33.17,0,0,1,48.33,236.48Zm-.1,48.88a43.81,43.81,0,0,1-7.77-5.2,73.36,73.36,0,0,1-6.59-6.59c2.7.4,5.46.84,8.2,1.5a64.92,64.92,0,0,1,8.33,2.64c5.68,2.25,11.45,5.76,18.06,11.11A35.23,35.23,0,0,1,48.23,285.36Zm21.59-19.79a29.66,29.66,0,0,1,2.13-7.73,44.92,44.92,0,0,1,3.51-6.73,63.62,63.62,0,0,1,1.29,7.2,45.08,45.08,0,0,1,.46,7.77A56.16,56.16,0,0,1,73.29,285C69.73,277.6,69.08,271.09,69.82,265.57ZM95,326.72a37.33,37.33,0,0,1-9.77-.3,46.25,46.25,0,0,1-8.93-2.73,70.57,70.57,0,0,1-8.21-4.39c2.72-.42,5.46-.78,8.26-.94,1.4-.08,2.81-.11,4.26-.09s3,0,4.48.18a64.44,64.44,0,0,1,9.59,1.68c1.7.43,3.43,1,5.23,1.62s3.61,1.24,5.5,2l.14.09A38.46,38.46,0,0,1,95,326.72Zm14.12-8-.13-.09a54.34,54.34,0,0,1-3.5-4.37,42,42,0,0,1-2.59-4.51,28.79,28.79,0,0,1-2.74-8.58,32.07,32.07,0,0,1-.39-4,33.56,33.56,0,0,1,.17-4,47.28,47.28,0,0,1,1.41-7.47,67.2,67.2,0,0,1,3.33,6.52,41.9,41.9,0,0,1,2.69,7.32,42.8,42.8,0,0,1,1.62,8.65A63.46,63.46,0,0,1,109.16,318.73Zm33,33.63a36.57,36.57,0,0,1-9.42,2.53,48.24,48.24,0,0,1-18.49-1.82,71.47,71.47,0,0,1,16-5.75c1.49-.31,3-.55,4.62-.73s3.3-.39,5-.46,3.54,0,5.48,0c1.59,0,3.25.13,5,.29l.84.29A39.71,39.71,0,0,1,142.13,352.36Zm10.26-12.29q-2.09-1.34-3.86-2.7a32,32,0,0,1-3.8-3.54,35.82,35.82,0,0,1-3-3.61,32.27,32.27,0,0,1-2.16-3.79,36,36,0,0,1-3.35-15.16A63.14,63.14,0,0,1,146,322.74a44,44,0,0,1,4.06,7.83,59.79,59.79,0,0,1,3.15,9.79Zm106.33-9.51a44,44,0,0,1,4.06-7.83,63.14,63.14,0,0,1,9.77-11.48,36,36,0,0,1-3.35,15.16,32.27,32.27,0,0,1-2.16,3.79,35.8,35.8,0,0,1-3,3.61,32,32,0,0,1-3.8,3.54,54.62,54.62,0,0,1-4.78,3.28A60.1,60.1,0,0,1,258.72,330.56Zm10.18,15.57c1.75.07,3.42.23,5,.46s3.13.42,4.62.73a71.47,71.47,0,0,1,16,5.75,48.24,48.24,0,0,1-18.49,1.82,36.57,36.57,0,0,1-9.42-2.53,39.75,39.75,0,0,1-9.3-5.85c2.11-.23,4.12-.35,6-.38S267.15,346,268.9,346.13Zm30.74-27.34a63.48,63.48,0,0,1,.13-10.6,42.81,42.81,0,0,1,1.62-8.65,41.91,41.91,0,0,1,2.69-7.32,67.2,67.2,0,0,1,3.33-6.52,47.29,47.29,0,0,1,1.41,7.47,33.59,33.59,0,0,1,.17,4,32,32,0,0,1-.39,4,28.79,28.79,0,0,1-2.74,8.58,42.08,42.08,0,0,1-2.59,4.51A54.44,54.44,0,0,1,299.65,318.79Zm14.43,1.33a64.44,64.44,0,0,1,9.59-1.68c1.52-.13,3-.18,4.48-.18s2.86,0,4.26.09c2.8.16,5.54.52,8.26.94a70.57,70.57,0,0,1-8.21,4.39,46.25,46.25,0,0,1-8.93,2.73,37.33,37.33,0,0,1-9.77.3,38.49,38.49,0,0,1-10.6-2.87c2-.83,3.85-1.52,5.69-2.11S312.38,320.55,314.07,320.12ZM335.52,285a56.16,56.16,0,0,1-3.93-18.93,45.08,45.08,0,0,1,.46-7.77,63.6,63.6,0,0,1,1.29-7.2,44.92,44.92,0,0,1,3.51,6.73,29.67,29.67,0,0,1,2.13,7.73C339.72,271.09,339.07,277.6,335.52,285Zm32.83-4.85a43.8,43.8,0,0,1-7.77,5.2,35.23,35.23,0,0,1-20.23,3.46c6.62-5.35,12.38-8.86,18.06-11.11a64.92,64.92,0,0,1,8.33-2.64c2.73-.66,5.5-1.1,8.2-1.5A73.34,73.34,0,0,1,368.34,280.16Z"/><path d="M256.93,293.65l-9.78-19c-28.31,13.16-57.17,13.16-85.49,0l-9.79,19C186.19,310,222.61,310,256.93,293.65Z"/><path d="M259.86,271.59a98.28,98.28,0,0,0,7.42-20,93.66,93.66,0,0,1-21.15,15.88l2.42,4.42,5.44,9.93,2.42,4.42a115.11,115.11,0,0,0,26-19.52A109.6,109.6,0,0,1,259.86,271.59Z"/><path d="M152.39,286.24l2.42-4.42,5.44-9.93,2.42-4.42a93.6,93.6,0,0,1-21.14-15.88,98.4,98.4,0,0,0,7.42,20,109.59,109.59,0,0,1-22.54-4.87A115.16,115.16,0,0,0,152.39,286.24Z"/></g></g></svg>