<svg xmlns="http://www.w3.org/2000/svg" viewBox="0 0 309.83 308.71"><title>03</title><g id="Layer_2" data-name="Layer 2"><g id="Layer_2-2" data-name="Layer 2"><rect x="116.97" y="228.32" width="75.89" height="20.52"/><polygon points="196.11 228.32 196.11 248.84 213.69 248.84 202.26 238.38 213.69 228.32 196.11 228.32"/><polygon points="113.72 248.84 113.72 228.32 96.14 228.32 107.57 238.38 96.14 248.84 113.72 248.84"/><path d="M186.8,120.56a.82.82,0,0,0-.82-.82H111.2a.82.82,0,0,0-.7,1.24c.3.5,7.85,12.35,45.87,12.35,32.16,0,42.45-11.75,42.87-12.25A.82.82,0,1,0,198,120c-.1.12-10.22,11.67-41.63,11.67-19.3,0-30.38-3.16-36.27-5.8a24.7,24.7,0,0,1-7.11-4.52h73A.82.82,0,0,0,186.8,120.56Z"/><path d="M177.23,86.36a.82.82,0,1,0,1.63,0c0-4.17,3.69-6.74,7.11-6.74a6,6,0,0,1,4.46,1.87,9.11,9.11,0,0,1,2.05,6.35c0,11.63-13.48,16.46-20.69,16.46a.82.82,0,0,0-.75.49c-1,2.25-4.28,8.68-8.17,11.82H142.53c-7.49-7.43-12.46-17-12.39-38.63h45c-.2,3.15-1,14.26-2.86,21a.82.82,0,0,0,1.57.43c2.2-8.08,2.94-21.66,3-22.23a.82.82,0,0,0-.81-.86H129.33a.82.82,0,0,0-.82.81c-.17,20,3.5,31.45,13.11,40.85a.82.82,0,0,0,.57.23h21a.82.82,0,0,0,.5-.17c4-3.09,7.42-9.41,8.68-12.15,7.9-.23,21.79-5.59,21.79-18.09a10.68,10.68,0,0,0-2.49-7.47A7.65,7.65,0,0,0,186,78C181.77,78,177.23,81.19,177.23,86.36Z"/><path d="M166.3,73.61a.82.82,0,0,0,.17,1.61l.17,0c2.83-.6,3.77-1.79,4.06-2.69s.23-2-1.23-3.63-4.2-2.25-7.51-3.16c-3.56-1-7.6-2.11-9-4.1a.82.82,0,0,0-1.49.46c0,3.07-5.09,4.11-9.17,5a31.11,31.11,0,0,0-3.7.9c-2.15.75-3.45,2.49-3.16,4.22.12.72.89,3.07,5.63,3.07H163a.82.82,0,0,0,0-1.63H141.1c-2.75,0-3.88-.88-4-1.71s.56-1.87,2.09-2.4a30.79,30.79,0,0,1,3.49-.84c3.8-.78,8.8-1.8,10.14-4.86,2,1.67,5.43,2.61,8.73,3.52,2.81.78,5.72,1.58,6.75,2.7.52.56,1.09,1.37.88,2S167.88,73.28,166.3,73.61Z"/><polygon points="136.36 56.59 154.75 46.92 173.13 56.59 169.62 36.11 184.49 21.61 163.94 18.63 154.75 0 145.55 18.63 125 21.61 139.87 36.11 136.36 56.59"/><polygon points="94.72 69.85 104.23 58.44 119.01 59.81 111.1 47.24 116.97 33.61 102.57 37.25 91.42 27.45 90.43 42.27 77.67 49.85 91.45 55.37 94.72 69.85"/><polygon points="205.26 58.44 214.77 69.85 218.04 55.37 231.82 49.85 219.06 42.27 218.07 27.45 206.91 37.25 192.52 33.61 198.39 47.24 190.48 59.81 205.26 58.44"/><path d="M309.83,177.74c-14.57.86-25.79,5.66-32.42,16.31a150.36,150.36,0,0,0,2.35-22.7c19.66-4.71,30-20.82,26.43-42.71-13.53,4.06-23.36,11.48-26.77,25.74-.38-5.61-1-11-1.82-16.22,19-9.55,23.27-32.15,17.19-46.63a40,40,0,0,0-19.34,35.13c-1.06-4.83-2.24-9.31-3.47-13.36,6.16-16.85,2.72-38.63-24-50.52-7.71,22,3.16,44.48,22.38,51.12.81,3.49,2.4,10.85,3.77,20.34-5.7-13.38-17.19-17.73-24.93-19.55-1.77,15.36,6.55,31.69,26.75,35.79a190.21,190.21,0,0,1,.34,26.35c-1.25-15.09-10.34-23.35-21.63-27.58-3.59,16.74,2.27,35.24,19.87,42.15a117,117,0,0,1-8.23,26.21c2.88-13.74-2.13-26.55-15.28-35.62-8.82,18.83-5.66,37.08,8.38,48.67A112.39,112.39,0,0,1,247.22,247a27.83,27.83,0,0,0-9.54-34c-10.9,17.2-6.6,32.77,2.1,41.59a119.53,119.53,0,0,1-13.46,10.72,24.17,24.17,0,0,0-1.37-28.67c-8.7,9.28-10.74,24.67-3.45,31.82-10.26,6.37-17.77,10-36.56,16.08-8.13,2.62-18.88,4.33-30,5.76-11.13-1.43-21.88-3.13-30-5.76-18.8-6.07-26.3-9.7-36.56-16.08,7.28-7.15,5.25-22.54-3.45-31.82a24.16,24.16,0,0,0-1.38,28.67A119.51,119.51,0,0,1,70.05,254.5c8.7-8.82,13-24.39,2.1-41.59a27.83,27.83,0,0,0-9.54,34,112.46,112.46,0,0,1-12.18-16.3c14-11.59,17.21-29.85,8.38-48.67-13.15,9.07-18.16,21.88-15.28,35.62a116.94,116.94,0,0,1-8.23-26.21c17.6-6.91,23.46-25.41,19.87-42.15-11.29,4.23-20.38,12.49-21.63,27.58a190.2,190.2,0,0,1,.34-26.35c20.2-4.1,28.52-20.43,26.75-35.79-7.74,1.82-19.23,6.17-24.93,19.55,1.37-9.49,3-16.84,3.77-20.34,19.22-6.64,30.1-29.16,22.38-51.12-26.75,11.89-30.18,33.67-24,50.52-1.23,4-2.41,8.53-3.47,13.36A40,40,0,0,0,15,91.53C9,106,13.22,128.61,32.22,138.16c-.8,5.17-1.43,10.61-1.82,16.22C27,140.11,17.17,132.69,3.64,128.63c-3.55,21.89,6.77,38,26.43,42.71a150.24,150.24,0,0,0,2.35,22.7C25.79,183.4,14.57,178.6,0,177.74,0,199.41,22.62,215.42,36.73,211A109.21,109.21,0,0,0,47.1,233.58c-8.56-6.22-19.7-8.36-33.15-6.12,4.21,17.43,30.47,30.09,45.69,22.61l.39.42q4.68,4.93,9.59,9.25c-8.32-3.87-20.15-5.07-33.23,4.09,14.8,11.24,30.74,12.09,40.52,2a130.28,130.28,0,0,0,44.37,22.89c5.36,1.5,10.66,2.68,15.78,3.68-19.48,2.36-36.3,5-37.61,11.48.61,3,28.5,4.85,28.5,4.85,2.15-7.87,12.69-10.56,27-13.13,14.29,2.57,24.83,5.27,27,13.13,0,0,27.89-1.82,28.5-4.85-1.3-6.52-18.13-9.12-37.61-11.48,5.12-1,10.42-2.17,15.78-3.68a130.27,130.27,0,0,0,44.37-22.89c9.78,10.12,25.72,9.27,40.52-2-13.09-9.16-24.91-8-33.23-4.09q4.9-4.33,9.59-9.25l.39-.42c15.22,7.47,41.48-5.18,45.69-22.61-13.45-2.24-24.59-.1-33.15,6.12A109.13,109.13,0,0,0,273.1,211C287.21,215.42,309.83,199.41,309.83,177.74Z"/><path d="M70.77,174.14a1.42,1.42,0,0,0,.79.18q3.37-.21,4-.21,3.52.21,5.37.36a5.56,5.56,0,0,1,.52-.52.55.55,0,0,0,.21-.49q-.09-.58-1.46-.52-1.79.18-1.79-4v-4.37q0-1.4,0-1.58c.08-.55.33-.84.76-.88a8.27,8.27,0,0,1,1.81.32,10.47,10.47,0,0,0,2.35.35,7.21,7.21,0,0,0,5.24-2.25,6.92,6.92,0,0,0,2.26-5,5.34,5.34,0,0,0-.79-3.16,5.64,5.64,0,0,0-3.31-1.91,16.93,16.93,0,0,0-2.25-.49,20.33,20.33,0,0,0-3.13-.09q-5.34.18-6.13.24a10.59,10.59,0,0,0-4,.79,1.21,1.21,0,0,0-.73,1c0,.36.15.55.46.55a2.92,2.92,0,0,0,.58-.14,1.45,1.45,0,0,1,.71-.08q.83.21.83,2V169.8a4.09,4.09,0,0,1-1.29,2.94A2,2,0,0,1,71,173q-.61.09-.64.58T70.77,174.14Zm7.65-20.52a2,2,0,0,1,.67-1.47,2.89,2.89,0,0,1,1.76-.77,4.84,4.84,0,0,1,.73-.06q3.25,0,3.76,3.95a8.42,8.42,0,0,1,.09,1.18,3.52,3.52,0,0,1-1.79,3.43,14.56,14.56,0,0,1-3.79.85,1.2,1.2,0,0,1-1-.35,1.3,1.3,0,0,1-.44-1Z"/><path d="M92.21,172.68a2,2,0,0,1-.65.24.55.55,0,0,0-.43.57.64.64,0,0,0,.21.57.74.74,0,0,0,.58.18q3.25-.15,3.91-.15,3.61.18,5.46.36a.37.37,0,0,0,.42-.3,1.19,1.19,0,0,0,0-.61.65.65,0,0,0-.46-.49,4.44,4.44,0,0,0-.73-.12q-1.79-.24-1.79-4v-4.37q0-2.37,1-2.46,1.37-.12,1.67-.12a4.45,4.45,0,0,1,2.06.45,5.82,5.82,0,0,1,2.31,1.84,7.39,7.39,0,0,1,.7,3.87,9.52,9.52,0,0,1-.18,1.55,9.34,9.34,0,0,0-.18,1.5,3.16,3.16,0,0,0,.82,2.14,2.37,2.37,0,0,0,1.79.94h2.85a3.22,3.22,0,0,0,1.4-.18l.64-.26a.78.78,0,0,0,.46-.53,1,1,0,0,0,0-.24c0-.22-.14-.39-.43-.52l-.73-.27a2.64,2.64,0,0,1-1-1.94l-.24-3.1q-.33-3-1.78-4t-6.09-1.64a16.74,16.74,0,0,0,5-2.06q2.49-1.64,2.49-3.82a3.13,3.13,0,0,0-.06-.61,6.4,6.4,0,0,0-1-2.91,5.24,5.24,0,0,0-3-1.73,20.36,20.36,0,0,0-5.92-.58q-5,.15-5.92.24a9.26,9.26,0,0,0-3.73.79,1.22,1.22,0,0,0-.73,1c0,.36.15.55.46.55a3,3,0,0,0,.58-.14,1.45,1.45,0,0,1,.71-.08q.83.21.83,2v15.53A4.07,4.07,0,0,1,92.21,172.68Zm6.57-19.06a2,2,0,0,1,2-2.25,5,5,0,0,1,.76-.06,4,4,0,0,1,3.22,1.46,4.56,4.56,0,0,1,1.09,3.07q0,4.13-5.62,4.89a1.2,1.2,0,0,1-1-.35,1.3,1.3,0,0,1-.44-1Z"/><path d="M117.78,171.38q-.09.12-1.29,1.33a2,2,0,0,1-.64.24.55.55,0,0,0-.43.58.65.65,0,0,0,.21.58.74.74,0,0,0,.58.18q4.07-.21,10.2,0,3.52.12,9.23.12.48,0,.58-.82l.33-3.16q.24-1.21.24-1.37,0-.7-.67-.7t-1,1.06a3.25,3.25,0,0,1-1,.94,8.55,8.55,0,0,0-1.12.82q-.67.73-3.93,1.09-1.36.12-3.15.18A3.19,3.19,0,0,1,124,171a5.53,5.53,0,0,1-.28-2.09v-4.37q0-2.37,1-2.46a14.55,14.55,0,0,1,4.46.18.91.91,0,0,1,.52.41l.49.68a4.42,4.42,0,0,1,.21,1q.09.55.94.55c.44,0,.66-.28.64-.85l-.12-2.61.12-2.61q0-.79-.6-.79t-.88,1q-.42,1.43-1.45,1.61-.48.09-3.84.09a1.14,1.14,0,0,1-1-.33,1.34,1.34,0,0,1-.45-1v-5.77a3,3,0,0,1,.24-1.4,1.63,1.63,0,0,1,1.37-.76,24.58,24.58,0,0,1,2.76-.15q3.52,0,4.28.66a7.92,7.92,0,0,1,1.41,1.59q.5.78.93.78t.58-.3a3.74,3.74,0,0,0,0-.64v-2.46q0-1.15-.7-1.15-4.19,0-8.83.18-2.07.06-4.67,0-3-.15-3.4-.15a7.42,7.42,0,0,0-1.31.09q-1.06.18-1.06.61a.48.48,0,0,0,.06.21,1.39,1.39,0,0,0,.71.61,4.74,4.74,0,0,0,.92.3,1.63,1.63,0,0,1,1,1,3.88,3.88,0,0,1,.4,1.58v15.55A2.53,2.53,0,0,1,117.78,171.38Z"/><path d="M165,174.09q1.68.17,2.63.17c.3-.2.46-.4.46-.61q0-.55-1.49-.91a1.71,1.71,0,0,1-1.28-1.46,15.94,15.94,0,0,1-.09-2.28V154.86a11.18,11.18,0,0,1,.09-1.82,2.46,2.46,0,0,1,1.25-1.58l.89-.3c.4-.16.59-.36.59-.61q0-.67-.88-.64-2.19.12-3.43.12t-3.16-.12a.56.56,0,0,0-.53.35,6.16,6.16,0,0,0-.29.71l-6.19,15.11-8.07-15.36-.3-.58a.52.52,0,0,0-.55-.24q-1.82.12-2.85.12-.42,0-1.4-.09a6.6,6.6,0,0,0-1.4,0l-.67.09a.4.4,0,0,0-.33.46.66.66,0,0,0,.39.7l.73.3a5,5,0,0,1,1.15,1.09,3.77,3.77,0,0,1,.15,1.37v16.86a1.72,1.72,0,0,1-1.62,1.95q-1.17.15-1.17,1,0,.55.76.55.45,0,1.46-.08c.67-.05,1.16-.08,1.49-.08s.94,0,1.91.08,1.61.08,1.91.08q.91,0,.91-.64a1,1,0,0,0-.56-.85,1.89,1.89,0,0,0-1-.36q-1.22,0-1.58-.52a3.07,3.07,0,0,1-.27-1.58V157.38l7.65,15.84q.27.55.33.64a.8.8,0,0,0,.64.24q1,0,1.55-1.46l7.1-17.48V169.8q0,1.61-.48,2-.72.36-1.41.76l-.68.21a.61.61,0,0,0-.37.61.65.65,0,0,0,.21.58.74.74,0,0,0,.58.18q4.1-.24,4.77-.24T165,174.09Z"/><path d="M178.48,152.73l1.33-1.33a2,2,0,0,1,.64-.24.55.55,0,0,0,.42-.58.65.65,0,0,0-.21-.58.74.74,0,0,0-.58-.18q-4.1.21-4.76.21t-2.43-.11q-1.7-.11-2.64-.11-.46.3-.46.61,0,.55,1.42.91a1.7,1.7,0,0,1,1.25,1.46,22.66,22.66,0,0,1,.06,2.3v14.67a2.65,2.65,0,0,1-.63,1.61q-.09.12-1.26,1.33a1.93,1.93,0,0,1-.63.24.55.55,0,0,0-.42.58.64.64,0,0,0,.21.58.74.74,0,0,0,.58.18q4.1-.21,4.76-.21t2.43.11q1.7.11,2.64.11.46-.3.46-.61,0-.55-1.49-.91a1.72,1.72,0,0,1-1.28-1.49,16.38,16.38,0,0,1-.09-2.27V154.34A2.56,2.56,0,0,1,178.48,152.73Z"/><path d="M198.32,173.47a8.13,8.13,0,0,0,3.53-2.39,9.87,9.87,0,0,0,1.61-2.33,8.08,8.08,0,0,0,.52-3.18V153.28a1.72,1.72,0,0,1,.55-1.48,3.55,3.55,0,0,1,1.56-.46q1.17-.15,1.17-1,0-.55-.76-.55-.46,0-1.46,0t-1.49,0l-2,0-2,0q-.91,0-.91.64,0,.45.64.79l.91.42,1.12.42q.45.27.46,1.67v11.7a7.56,7.56,0,0,1-.39,2.68,6.09,6.09,0,0,1-1.43,2,5.81,5.81,0,0,1-4.22,1.85,6,6,0,0,1-.61,0,4,4,0,0,1-1.76-.52q-.18-.12-1.15-1a5.1,5.1,0,0,1-1.58-3q-.09-.67-.09-3.58v-9.44a3.78,3.78,0,0,1,.46-2.25c.22-.22.46-.43.7-.64s.45-.23.67-.33q.58-.33.58-.73a.57.57,0,0,0,0-.18q-.15-.39-1.09-.33a3.88,3.88,0,0,0-1.37-.18q-.61,0-1.75.11c-.76.07-1.25.11-1.47.11l-2.31-.09a18.47,18.47,0,0,0-2.31,0l-.67.09a.4.4,0,0,0-.33.46c0,.36.26.65.79.85l1.06.42.64.3a3,3,0,0,1,.52,2.06v12.11a8.11,8.11,0,0,0,.88,4.13,12.76,12.76,0,0,0,1.79,2,7.46,7.46,0,0,0,5.5,1.88q.7,0,1.55-.06A17.32,17.32,0,0,0,198.32,173.47Z"/><path d="M230.33,150.27a6,6,0,0,0-.29.71l-6.19,15.11-8.07-15.36c-.1-.2-.2-.39-.3-.58a.52.52,0,0,0-.55-.24q-1.82.12-2.85.12-.43,0-1.4-.09a6.6,6.6,0,0,0-1.4,0l-.67.09a.4.4,0,0,0-.33.46.66.66,0,0,0,.39.7l.73.3a5,5,0,0,1,1.15,1.09,3.8,3.8,0,0,1,.15,1.37v16.86a1.72,1.72,0,0,1-1.62,1.95q-1.17.15-1.17,1c0,.36.25.55.76.55q.46,0,1.46-.08t1.49-.08q.45,0,1.91.08t1.91.08c.61,0,.91-.21.91-.64a1,1,0,0,0-.56-.85,1.88,1.88,0,0,0-1-.36q-1.21,0-1.58-.52a3.08,3.08,0,0,1-.27-1.58V157.38l7.65,15.84c.18.36.29.58.33.64a.8.8,0,0,0,.64.24q1,0,1.55-1.46l7.1-17.48V169.8q0,1.61-.48,2-.72.36-1.41.76l-.68.21a.61.61,0,0,0-.37.61.65.65,0,0,0,.21.58.74.74,0,0,0,.58.18q4.1-.24,4.76-.24t2.44.17q1.68.17,2.63.17c.3-.2.46-.4.46-.61q0-.55-1.49-.91a1.71,1.71,0,0,1-1.28-1.46,16.17,16.17,0,0,1-.09-2.28V154.86a11.34,11.34,0,0,1,.09-1.82,2.46,2.46,0,0,1,1.25-1.58l.89-.3c.4-.16.59-.36.59-.61q0-.67-.88-.64-2.19.12-3.43.12t-3.16-.12A.56.56,0,0,0,230.33,150.27Z"/><path d="M117.57,216.08q2-.24,2-1.06a.76.76,0,0,0-.33-.58,8.42,8.42,0,0,0-2-1.15A2.66,2.66,0,0,1,116,212a8.41,8.41,0,0,1-.23-1.87,6.62,6.62,0,0,0-.26-1.87,15.91,15.91,0,0,0,3.1-4.46,11.72,11.72,0,0,0-2.18-13.9,10.62,10.62,0,0,0-7.86-3.67,10.36,10.36,0,0,0-9.13,4.64A13.25,13.25,0,0,0,97,198.63a12.66,12.66,0,0,0,2.52,8q3.22,4.16,9.59,4.16a12.21,12.21,0,0,0,2.67-.52c0,.24,0,.48,0,.7q0,3.28,2.16,4.52A5.78,5.78,0,0,0,117.57,216.08Zm-6.25-12.26a3.82,3.82,0,0,0-1.79.64q-1.34.79-1.34,1.4a.78.78,0,0,0,.27.55,4.8,4.8,0,0,0,1.52.43,2.3,2.3,0,0,1,1.06.3,2.58,2.58,0,0,1,.49,1.58,3.18,3.18,0,0,1-2,.76q-3.95.06-5.83-5.22a20.21,20.21,0,0,1-1.18-6.8,14.21,14.21,0,0,1,1.49-6.13q1.79-3.82,4.52-3.82,3.31,0,5,4.67a20.6,20.6,0,0,1,1.24,7.13,15.42,15.42,0,0,1-.94,5.49A5.81,5.81,0,0,0,111.32,203.82Z"/><path d="M125.27,209.86a13,13,0,0,0,5.27.73,7,7,0,0,0,4.27-1.79,4.32,4.32,0,0,0,.24,1.85,1.18,1.18,0,0,0,1,.52q3.12-.67,5.61-1.34s.13,0,.26-.18a.72.72,0,0,0,.2-.42c0-.14-.11-.21-.33-.21q-1.85.06-1.85-1.85v-7.44q0-2.79-.7-3.58-.43-.55-1.88-.55a19.86,19.86,0,0,1-2.17-.17,20.68,20.68,0,0,0-2.35-.17c-.3.2-.46.41-.46.61a.29.29,0,0,0,.09.21,3.83,3.83,0,0,0,1.09.7q.61,0,.94,1.3a9.81,9.81,0,0,1,.27,2.43v4.7a4.59,4.59,0,0,1-.52,2.46,3,3,0,0,1-2.7,1.09,2.87,2.87,0,0,1-2.46-1.09,3.9,3.9,0,0,1-.73-2.46v-5.49q0-2.88-.64-3.64-.39-.49-1.85-.49-.76,0-2.31-.17a24.4,24.4,0,0,0-2.49-.17c-.3.2-.46.41-.46.61a.29.29,0,0,0,.09.21,3.9,3.9,0,0,0,1.11.7q1.26.33,1.26,3.73v4.86Q123.12,208.76,125.27,209.86Z"/><path d="M148.53,202.42q-.73.3-2.94,1.37a5.63,5.63,0,0,0-2.18,1.84,4.11,4.11,0,0,0-.82,2.38,3,3,0,0,0,1.18,2.43,1.89,1.89,0,0,0,1.21.36q2.09,0,5.8-2.37a3.37,3.37,0,0,0,3.31,2.15,5.76,5.76,0,0,0,2.25-.49,3.6,3.6,0,0,0,1.4-.85q1.21-1.37.49-1.37a3.92,3.92,0,0,0-.74.17,3.59,3.59,0,0,1-.8.17q-.8,0-.8-1.33v-8.74a2.11,2.11,0,0,0-1-1.88,9.37,9.37,0,0,0-4.49-.85q-6-.12-7.56,4.19a4.64,4.64,0,0,0-.33,1.64q0,1.18.94,1.18a4.75,4.75,0,0,0,2.25-.94.82.82,0,0,0,.24-.94,1.83,1.83,0,0,1,.09-1.3q.42-.79.82-1.61a2.18,2.18,0,0,1,1.82-.73,1.91,1.91,0,0,1,1.27.58,2.55,2.55,0,0,1,.7.89,14.54,14.54,0,0,1,.12,3.32A13.34,13.34,0,0,0,148.53,202.42Zm0,5.92a2.62,2.62,0,0,1-1.72-.73,2.91,2.91,0,0,1,.82-3.1,3.36,3.36,0,0,1,2.43-1.37.64.64,0,0,1,.73.73l0,2.55Q149.87,208.34,148.48,208.34Z"/><path d="M159.39,210.58q4.1-.24,4.76-.24a20.14,20.14,0,0,1,2.17.17,20.61,20.61,0,0,0,2.35.17c.3-.2.46-.4.46-.61a.29.29,0,0,0-.09-.21,3.86,3.86,0,0,0-1.09-.7,1.65,1.65,0,0,1-1.12-1.46,16.32,16.32,0,0,1-.09-2.28V190.58a4.19,4.19,0,0,0-.27-1.9,1.15,1.15,0,0,0-1-.47q-3.13.67-5.62,1.34s-.13,0-.26.18a.72.72,0,0,0-.2.42c0,.14.11.21.33.21q1.82-.06,1.82,1.85v14q0,1.61-.48,2-.7.36-1.4.76l-.68.21a.61.61,0,0,0-.38.61.65.65,0,0,0,.21.58A.74.74,0,0,0,159.39,210.58Z"/><path d="M174.93,193.5a2.64,2.64,0,1,0-1.87-.77A2.54,2.54,0,0,0,174.93,193.5Z"/><path d="M170.4,209l-.68.21a.61.61,0,0,0-.37.61.65.65,0,0,0,.21.58.74.74,0,0,0,.58.18q4.1-.24,4.76-.24a20.11,20.11,0,0,1,2.17.17,20.64,20.64,0,0,0,2.35.17c.3-.2.46-.4.46-.61a.29.29,0,0,0-.09-.21,3.88,3.88,0,0,0-1.09-.7q-1.21-.33-1.21-2.22v-9.07a6.55,6.55,0,0,0-.26-2.44q-.26-.44-1.29-.44a.56.56,0,0,0-.46.15,7,7,0,0,1-2.62,1.17,9.31,9.31,0,0,1-2.23.56c-.06-.06-.16,0-.29.15a.72.72,0,0,0-.2.43c0,.14.11.21.33.21q1.8-.06,1.8,1.85l0,6.71q0,1.61-.48,2Q171.09,208.61,170.4,209Z"/><path d="M191.86,195.29h-2.21q-.73,0-.88-.46a4.33,4.33,0,0,1-.06-1v-4q0-1.55-.39-1.61a.82.82,0,0,0-.73.52q-2.3,4.43-5.41,5.86-1.39.64-1.39,1.7,0,.39.46.42h1.94c.24,0,.36.09.36.21v9.26q0,1.61-.49,2-.73.36-1.43.76l-.68.21a.61.61,0,0,0-.38.61.65.65,0,0,0,.21.58.74.74,0,0,0,.58.18q4.1-.24,4.76-.24t2.44.17q1.68.17,2.63.17c.3-.2.46-.4.46-.61q0-.55-1.46-.91a1.78,1.78,0,0,1-1.34-1.46,10.82,10.82,0,0,1-.15-2.28V197q0-.42.33-.42a1.83,1.83,0,0,1,.7.21,10.41,10.41,0,0,0,1.85.94,2.18,2.18,0,0,0,.55.09q.76,0,.85-1.27Q193.08,195.41,191.86,195.29Z"/><path d="M194,196.41c.21.06.43.11.65.15a2.26,2.26,0,0,1,1,.73,5.53,5.53,0,0,1,1,1.46l5.25,11a2.83,2.83,0,0,1,.09,2,2.9,2.9,0,0,0-2.37-1.12,3,3,0,0,0-2.43,1.18,3.22,3.22,0,0,0-.7,2.06,2.42,2.42,0,0,0,1.21,2.28,2.35,2.35,0,0,0,1.15.3,4.55,4.55,0,0,0,2.21-.82,2.9,2.9,0,0,0,.88-.8l.73-1a11.58,11.58,0,0,0,1.24-2.37q.33-.88.67-1.73l5-11.75a2,2,0,0,1,.79-1.09c.1,0,.53-.13,1.28-.27.46-.08.7-.29.7-.64s-.28-.55-.85-.55a12.62,12.62,0,0,0-1.32.11,8.63,8.63,0,0,1-2.7,0,12.66,12.66,0,0,0-1.35-.11c-.49,0-.74.2-.76.61s.31.48,1,.58a3.84,3.84,0,0,1,.79.15.94.94,0,0,1,.46.91,6.22,6.22,0,0,1-.55,2.12l-1.61,4q-.18.79-.46.79c-.16,0-.36-.29-.58-.88l-2.09-5.31a2,2,0,0,1-.12-.67q0-1.06.73-1.12,1.09-.09,1.09-.64t-1-.55q-.64,0-2,.11t-2,.11q-.61,0-2.17-.11t-2.14-.11q-1,0-1,.61A.4.4,0,0,0,194,196.41Z"/></g></g></svg>