<svg xmlns="http://www.w3.org/2000/svg" viewBox="0 0 296.03 392.76"><title>01</title><g id="Layer_2" data-name="Layer 2"><g id="Layer_2-2" data-name="Layer 2"><path d="M291.67,116.28l-57.75-100A32.51,32.51,0,0,0,205.76,0H90.26A32.51,32.51,0,0,0,62.11,16.26l-57.75,100a32.51,32.51,0,0,0,0,32.51l57.75,100a32.51,32.51,0,0,0,28.16,16.26h13.57L73,381.23,102,359.28l14.32,33.47,27-101.68,11.46,43.13,14.32-33.47,29.05,21.95-15.31-57.61h22.87a32.51,32.51,0,0,0,28.16-16.26l57.75-100A32.51,32.51,0,0,0,291.67,116.28Zm-33,44.4L227.7,214.26a56.3,56.3,0,0,1-48.75,28.15H117.08q-.91,0-1.81,0l-1.52-.07h-.25q-1.77-.11-3.52-.34c-1-.13-2.09-.3-3.12-.49l-.18,0q-1.53-.29-3-.66l-.15,0a56.28,56.28,0,0,1-8.94-3l-.22-.1Q93,237,91.64,236.32l-.24-.12q-1.35-.69-2.66-1.45l-.06,0Q87.31,233.91,86,233h0c-.83-.55-1.65-1.13-2.45-1.73l-.28-.21q-1.15-.87-2.26-1.79l-.32-.27q-1.11-.94-2.17-1.93l-.21-.2q-1.08-1-2.11-2.11l-.05-.05c-.68-.72-1.33-1.46-2-2.21l-.28-.33Q73,221.1,72.11,220l-.31-.41q-.85-1.15-1.65-2.35l-.23-.35c-.55-.85-1.09-1.7-1.59-2.58L37.4,160.69a56.3,56.3,0,0,1,0-56.3L68.33,50.82a56.3,56.3,0,0,1,48.75-28.15h61.86A56.3,56.3,0,0,1,227.7,50.82l30.93,53.57A56.3,56.3,0,0,1,258.62,160.69Z"/><path d="M115.58,117.88a9.73,9.73,0,0,0,5.1-5.1,9.2,9.2,0,0,0,.76-3.72,7.63,7.63,0,0,0-.23-1.84,8.43,8.43,0,0,0-.68-1.81,8.14,8.14,0,0,0-1.07-1.59,5,5,0,0,0-1.4-1.15,6.08,6.08,0,0,0,1.38-1.18,7.81,7.81,0,0,0,1.07-1.58,8.93,8.93,0,0,0,.69-1.8,7.21,7.21,0,0,0,.24-1.83,9.2,9.2,0,0,0-.76-3.72,9.73,9.73,0,0,0-5.1-5.1,9.22,9.22,0,0,0-3.72-.76h-16v31.93h16A9.21,9.21,0,0,0,115.58,117.88ZM102.29,93.1h9.58A3.16,3.16,0,0,1,115,96.28a3.23,3.23,0,0,1-.25,1.26,3.12,3.12,0,0,1-.68,1,3.15,3.15,0,0,1-2.26.92h-9.58Zm0,12.78h9.58a3.18,3.18,0,1,1,0,6.37h-9.58Z"/><polygon points="148.16 93.1 148.16 86.71 126.27 86.71 126.27 118.64 148.16 118.64 148.16 112.25 132.66 112.25 132.66 105.88 143.15 105.88 143.15 99.49 132.66 99.49 132.66 93.1 148.16 93.1"/><path d="M175.2,105.34a9.53,9.53,0,0,0-5.1-5.1,9.41,9.41,0,0,0-3.73-.75H160a3.15,3.15,0,0,1-2.26-.92,3.11,3.11,0,0,1-.68-1,3.25,3.25,0,0,1-.25-1.26A3.16,3.16,0,0,1,160,93.1h14.65V86.71H160a9.22,9.22,0,0,0-3.72.76,9.73,9.73,0,0,0-5.1,5.1,9.53,9.53,0,0,0,0,7.45,9.7,9.7,0,0,0,5.1,5.11,9.2,9.2,0,0,0,3.72.76h6.39a3.18,3.18,0,1,1,0,6.37H152.19v6.39h14.18a9.29,9.29,0,0,0,3.73-.76,9.75,9.75,0,0,0,3-2.06,9.61,9.61,0,0,0,2-3,9.67,9.67,0,0,0,0-7.45Z"/><polygon points="193.09 118.64 193.09 93.1 202.67 93.1 202.67 86.71 177.13 86.71 177.13 93.1 186.73 93.1 186.73 118.64 193.09 118.64"/><path d="M76.57,150.35a10.41,10.41,0,0,1,3.23-2.17,9.86,9.86,0,0,1,4-.8,10.17,10.17,0,0,1,4,.81,9.59,9.59,0,0,1,3.32,2.33L94.47,145a15.86,15.86,0,0,0-5-3,16.5,16.5,0,0,0-5.72-1,16.16,16.16,0,0,0-4.37.59,16.62,16.62,0,0,0-11.56,11.57,16.56,16.56,0,0,0,0,8.76,16.64,16.64,0,0,0,11.56,11.56,16.15,16.15,0,0,0,4.38.59,16.41,16.41,0,0,0,10.71-4l-3.38-5.57a9.55,9.55,0,0,1-3.32,2.33,10.13,10.13,0,0,1-4,.81,9.86,9.86,0,0,1-4-.8,10.29,10.29,0,0,1-5.41-5.4,9.7,9.7,0,0,1-.8-3.93,9.87,9.87,0,0,1,.8-4A10.16,10.16,0,0,1,76.57,150.35Z"/><polygon points="123.71 173.37 123.71 141.43 117.32 141.43 117.32 154.21 104.56 154.21 104.56 141.43 98.17 141.43 98.17 173.37 104.56 173.37 104.56 160.6 117.32 160.6 117.32 173.37 123.71 173.37"/><path d="M140,173.47a16.41,16.41,0,0,0,12.7-1.67,16.8,16.8,0,0,0,3.34-2.59,16.33,16.33,0,0,0,2.58-3.35,16.83,16.83,0,0,0,1.66-3.94,16.56,16.56,0,0,0,0-8.76,16.48,16.48,0,0,0-11.52-11.52,16.57,16.57,0,0,0-8.76,0,16.83,16.83,0,0,0-3.94,1.66,16.3,16.3,0,0,0-3.35,2.58,16.82,16.82,0,0,0-2.59,3.34,16.33,16.33,0,0,0-2.26,8.33,16.12,16.12,0,0,0,.59,4.38A16.64,16.64,0,0,0,140,173.47Zm-5.8-15.93a9.87,9.87,0,0,1,.8-4,10.15,10.15,0,0,1,2.18-3.23,10.41,10.41,0,0,1,3.23-2.17,10.17,10.17,0,0,1,7.92,0,10.12,10.12,0,0,1,5.4,5.4,9.88,9.88,0,0,1,.8,4,9.72,9.72,0,0,1-.8,3.93,10.46,10.46,0,0,1-2.17,3.22,10.15,10.15,0,0,1-3.23,2.18,10.17,10.17,0,0,1-7.92,0,10.29,10.29,0,0,1-5.41-5.4A9.7,9.7,0,0,1,134.24,157.53Z"/><rect x="165.1" y="141.43" width="6.39" height="31.93"/><path d="M185,150.35a10.41,10.41,0,0,1,3.23-2.17,9.86,9.86,0,0,1,4-.8,10.17,10.17,0,0,1,4,.81,9.59,9.59,0,0,1,3.32,2.33l3.38-5.57a15.86,15.86,0,0,0-5-3,16.5,16.5,0,0,0-5.72-1,16.16,16.16,0,0,0-4.37.59,16.62,16.62,0,0,0-11.56,11.57,16.56,16.56,0,0,0,0,8.76,16.64,16.64,0,0,0,11.56,11.56,16.15,16.15,0,0,0,4.38.59,16.41,16.41,0,0,0,10.71-4l-3.38-5.57a9.55,9.55,0,0,1-3.32,2.33,10.13,10.13,0,0,1-4,.81,9.86,9.86,0,0,1-4-.8,10.29,10.29,0,0,1-5.41-5.4,9.7,9.7,0,0,1-.8-3.93,9.87,9.87,0,0,1,.8-4A10.15,10.15,0,0,1,185,150.35Z"/><polygon points="206.61 173.37 228.5 173.37 228.5 166.97 213 166.97 213 160.6 223.49 160.6 223.49 154.21 213 154.21 213 147.82 228.5 147.82 228.5 141.43 206.61 141.43 206.61 173.37"/><path d="M147.61,191.4a12.62,12.62,0,0,0-.69-2.26,11.52,11.52,0,0,0-.82-1.6c-.13-.2-.25-.37-.35-.52-6.88,1.37-12.15,8.89-12.15,18,0,9.66,6,17.56,13.51,18.14a11.08,11.08,0,0,1-.63-.93c-.11-.19-.23-.39-.35-.6l-.33-.65c-.1-.23-.2-.46-.31-.7s-.19-.49-.28-.75a18.13,18.13,0,0,1-.8-3.39l-.11-.92c0-.31,0-.63-.06-.95v-1c0-.31,0-.58,0-1s0-.72.09-1.07l.14-1c.11-.67.24-1.36.42-2,.32-1.33.74-2.62,1.14-3.86s.8-2.43,1.12-3.59a22,22,0,0,0,.69-3.36c0-.27.05-.54.07-.81l0-.4v-.12s0,.08,0,0h0v-.28c0-.29,0-.59,0-.86s0-.49,0-.74A17.8,17.8,0,0,0,147.61,191.4Z"/><path d="M148.89,186.83a11,11,0,0,1,.65,1c.11.19.23.39.35.6l.33.65c.1.23.2.46.31.7s.19.49.28.75a18,18,0,0,1,.8,3.39c0,.32.07.64.11,1s0,.58.06.88V196h0v.22q0,.25,0,.5c0,.33,0,.67,0,1s0,.68-.08,1l-.14,1c-.12.67-.24,1.36-.42,2-.32,1.33-.74,2.62-1.14,3.86s-.8,2.43-1.12,3.59c-.08.29-.16.58-.22.86s-.14.57-.2.85l-.16.83-.11.77a8.22,8.22,0,0,0-.08.86l0,.45V214s0,0,0,0v.23c0,.27,0,.54,0,.8l0,.77a17.83,17.83,0,0,0,.35,2.81,12.66,12.66,0,0,0,.68,2.26,11.55,11.55,0,0,0,.82,1.6c.12.19.24.36.34.5,6.89-1.36,12.16-8.88,12.16-18C162.42,195.31,156.44,187.41,148.89,186.83Z"/><circle cx="170.95" cy="204.98" r="4.11"/><circle cx="125.07" cy="204.98" r="4.11"/><path d="M147.12,77.07a11.07,11.07,0,0,1-.63-.93c-.11-.19-.23-.39-.35-.6l-.33-.65c-.1-.23-.2-.46-.31-.7s-.19-.49-.28-.75a18.13,18.13,0,0,1-.8-3.39l-.11-.92c0-.31,0-.63-.06-.95v-1c0-.31,0-.58,0-1s0-.72.09-1.07l.14-1c.11-.67.24-1.35.42-2,.32-1.33.74-2.62,1.14-3.86s.8-2.43,1.12-3.59a22,22,0,0,0,.69-3.36c0-.27.05-.54.07-.81l0-.4V50s0,.08,0,0h0v-.28c0-.29,0-.59,0-.86s0-.49,0-.74a17.81,17.81,0,0,0-.35-2.81,12.62,12.62,0,0,0-.69-2.26,11.52,11.52,0,0,0-.82-1.6c-.13-.2-.25-.37-.35-.52-6.88,1.37-12.15,8.89-12.15,18C133.61,68.59,139.58,76.49,147.12,77.07Z"/><path d="M148.42,72.53a12.66,12.66,0,0,0,.68,2.26,11.56,11.56,0,0,0,.82,1.6c.12.19.24.36.34.5,6.89-1.36,12.16-8.88,12.16-18,0-9.67-6-17.57-13.53-18.15a11,11,0,0,1,.65,1c.11.19.23.39.35.6l.33.65c.1.23.2.46.31.7s.19.49.28.75a18,18,0,0,1,.8,3.39c0,.32.07.64.11,1s0,.58.06.88v.28h0v.22q0,.25,0,.5c0,.33,0,.67,0,1s0,.68-.08,1l-.14,1c-.12.67-.24,1.36-.42,2-.32,1.33-.74,2.62-1.14,3.86s-.8,2.43-1.12,3.59c-.08.29-.16.58-.22.86s-.14.57-.2.85l-.16.83-.11.77a8.22,8.22,0,0,0-.08.86l0,.45v.14s0,0,0,0v.23c0,.27,0,.54,0,.8l0,.77A17.83,17.83,0,0,0,148.42,72.53Z"/><path d="M171,63c2.27,0,41.77-1.84,41.77-4.11s-39.5-4.11-41.77-4.11A4.11,4.11,0,1,0,171,63Z"/><path d="M125.07,63a4.11,4.11,0,1,0,0-8.22c-2.27,0-41.77,1.84-41.77,4.11S122.81,63,125.07,63Z"/></g></g></svg>