<svg xmlns="http://www.w3.org/2000/svg" viewBox="0 0 325.13 292.72"><title>05</title><g id="Layer_2" data-name="Layer 2"><g id="Layer_2-2" data-name="Layer 2"><path d="M324.4,161.57c.65-11.44.33-39.23-3.6-52,0-13.08-9.15-32.69-17.65-39.23-2.29-6.54-13.08-16.67-19.29-17.33-1.63-2-5.56-6.54-11.12-7.19-6.87-7.19-19-11.77-21.58-15.69s-4.9-10.13-4.9-14.39c1.63-3.6,7.86-14.57,3.92-15.69-2.29-.65-7.85,3.6-13.08,12.42s-9.48,13.4-14.71,21.25-2.62,18.31-2.94,25.5c-.85,18.69,10.46,31.71,17.65,41.19s10.13,27.46,2,48.06-9.48,36.94-5.88,51,4.58,17.33,3.6,21.58a12.82,12.82,0,0,1-2.8,4.82c.27-5.7-2.58-11.31-7.88-15.31,1.11-1.56,2.31-4.06.55-6-2.17-2.42-7.79-.28-10.64,1.33-.58-.15-1.18-.28-1.78-.4-9.51-1.85-15.81,2.55-18.82,7.17-2.44-.49-7.5.32-7.33,2.29a27.5,27.5,0,0,0-7-.3,16.35,16.35,0,0,0-4.53,1.09,20.9,20.9,0,0,0-4.67-2.34c-1-.29-2,1.16-2.76,3.13-6.22-1.1-11.17.39-14.75,3a17.89,17.89,0,0,0-2.3-1.91,4.82,4.82,0,0,0,.25-.79c.44-2.18-.44-6.54-3.49-6.1s-8.28,1.31-9.59,2.62a3.25,3.25,0,0,0-.63,1.39,27.77,27.77,0,0,0-7.12,1.76,16.34,16.34,0,0,0-13.23-11.19c.17-2.7.07-5.25-.38-5.91-3.14-4.72-9.59,1.31-10.46,3.49a6.4,6.4,0,0,0,.31,3.37c-11.58,3.21-18.24,10.76-17,19.18a11.92,11.92,0,0,1-2.41-4.35c-1-4.25,0-7.52,3.6-21.58s2.29-30.4-5.88-51-5.23-38.58,2-48.06,18.5-22.51,17.65-41.19c-.33-7.19,2.29-17.65-2.94-25.5S93.26,21.32,88,12.49,77.24-.59,74.95.07C71,1.19,77.24,12.16,78.87,15.76c0,4.25-2.29,10.46-4.9,14.39s-14.71,8.5-21.58,15.69c-5.56.65-9.48,5.23-11.12,7.19-6.21.65-17,10.79-19.29,17.33-8.5,6.54-17.65,26.15-17.65,39.23-3.92,12.75-4.25,40.54-3.6,52C-1.88,171.71,3,178.24,6.95,185.76s9.48,11.77,11.77,14.39,7.19,10.46,16.67,17.33S58.6,225,63.18,226c5.68,1.62,13.37,3.25,19.93,7.65-6.7,3.89-8.5,11.62-7.11,19-1.33.87-3.28,3.16-3,4.24s5.07,8.26,9.53,6.76a22.54,22.54,0,0,0,5.6,3.58,14.94,14.94,0,0,0,6.63,14.86c-.92,2.86.17,4.73,3.09,5.53,5.33,1.45,7.57.11,8.77-1.43,6.07.6,10.26-1.19,12.47-3.26a18,18,0,0,0,10.58,7.57c11.25,2.76,19,.14,23.1-4.53,3.87,3,15.08,2.26,18.7-1.17,3.13,4.41,9.09,7.42,17.83,6.72a8.56,8.56,0,0,0,6.8.83,7.8,7.8,0,0,0,4.68-4.17,19.21,19.21,0,0,0,5.29-5.26c2.18,2,6.28,3.8,12.21,3.28.27,2.06.82,3.64,1.68,3.7,2.29.16,9.48-2.94,10-4.58a5,5,0,0,0-.56-2.57c6.84-4.13,8.55-10.8,7.67-15.53a22.85,22.85,0,0,0,9.65-8.2c1.12.51,3,.67,4-.35,1.47-1.47,2.13-5.56,1.31-7a7.11,7.11,0,0,0-2.45-2.15c.39-6.36-1.76-12.52-7.5-15.86,6.56-4.4,14.25-6,19.93-7.65,4.58-1,18.31-1.63,27.79-8.5s14.39-14.71,16.67-17.33,7.85-6.87,11.77-14.39S327,171.71,324.4,161.57Zm-2.94-4.25c.65,5.88-2.29,11.44-8.17,13.08s-13.76,1.6-17.65,5.88c-3.27,3.6-4.58,4.58-5.56,4.25,3.6-5.88,6.54-23.87,8.5-37.6,2.29-6.54,18.64-17,20.6-25.83C320.48,126.92,320.8,151.44,321.46,157.32Zm-61.14,28.77a35.84,35.84,0,0,1-5.56-8.17A50,50,0,0,0,262,159.28a60.14,60.14,0,0,0,.33-10.13c5.88,2.29,21.58,12.42,20.27,30.73-2.29,7.19-11.12,19.62-19.29,27.46C263.26,198.84,263.92,190,260.32,186.09Zm1.31-41.85s1-14.39-.65-19.29-4.25-10.46-5.23-17.33c16.35,3.6,28.44,17.33,36.94,28.44.33,5.56-2,24.52-6.21,32C281.57,156.67,271.76,147.19,261.63,144.24Zm43.16-68c4.58,5.56,11.77,20.27,13.4,30.73-.65,11.12-18.64,23.87-20.6,30.73.65-2.94,1-16.35,0-20.27C304.13,105.34,307.4,90,304.78,76.24ZM284.84,57.93c4.9,2,13.08,5.56,15.69,14.06,2.29,9.48,3.27,21.9-4.25,38.25-2.29-12.1-11.12-26.48-11.77-28.77C283.53,74.61,284.84,63.49,284.84,57.93Zm4.25,44.79c2.94,7.52,2.94,24.19,2.94,24.19-4.58-6.21-19.94-20.6-36.62-22.23-1.31-3.92-3.27-9.81-7.85-14.39s-2.94-6.21-5.56-8.83-7.85-9.15-7.85-14.06C243.32,69.7,277.65,84.41,289.09,102.72ZM281.24,56c0,2.94-1.31,13.08.65,19.94a59.31,59.31,0,0,0-6.21-10.14c.33-3.92-1.63-14.06-2-16C275.36,50.41,281.24,53,281.24,56Zm2,32.69c-7.19-7.19-26.15-21.25-50.67-24.19-3.92-2.62-2.62-4.58-2.94-7.85s-1.31-12.75-1.31-12.75c8.5,2,20.6,6.87,26.15,12.75s11.12,7.85,14.06,10.46S281.57,83.43,283.21,88.66ZM268.82,45.84c1,1,2.29,9.81,2.29,16,0,0-8.17-13.73-15-23.87C259,40.61,267.84,44.86,268.82,45.84Zm-19-6.87c4.25,6.87,10.79,14.39,13.4,19.62-2.94-2.29-3.92-4.58-8.83-8.83S234.17,41.91,230.57,40c2.29-4.25,7.52-15.69,10.79-19.62A70.9,70.9,0,0,0,249.86,39ZM235.47,186.42c-.33-9.81,0-23.54,7.19-34.65s6.87-23.21,5.56-33.67-5.88-17.33-12.1-24.85S223.38,75.59,222.4,66.43s-2.29-21.25.33-28.44,10.46-11.44,13.4-17S246.59,5.62,246.59,5.62C244,11.51,237.76,23,233.84,27.85s-6.21,5.23-7.19,8.83-3.27,16-1.63,23.87,10.13,18.64,17,27.79,13.4,25.5,15.37,41.85,1,29.1-3.92,40.87-12.42,15-13.08,21.25,2,8.17,1.63,12.1-2.94,8.17-2.94,8.17C237.43,204.07,235.8,196.23,235.47,186.42ZM245,204.73a48.66,48.66,0,0,1,0-9.81c.33-5.56,5.56-8.5,6.87-12.42,1,1.63,5.56,4.25,6.21,7.52s0,13.73-2,22.56c-1.31,2.29-10.79,9.48-19,11.44C244.63,219.11,245.28,209,245,204.73Zm-53,47.73a24.09,24.09,0,0,1,5.23-16.18c4.37-5.24,11.61-4.09,16.18-1.47a17.47,17.47,0,0,1,9,16.84c-.33,3.76-3.11,12.42-12.59,12.1S192.48,258.18,192,252.46Zm21.74-41.85c9.81,2.29,13.4,8.17,13.57,12.91.15,4.26-.12,7.87-4.57,11.88-7.39-7.58-13.91-9.34-19.19-8.46a12.68,12.68,0,0,0-4.75-7.5A12,12,0,0,1,213.73,210.61Zm-20.11,12.75a11.5,11.5,0,0,1,3.76,5.93,23.76,23.76,0,0,0-5,4.1c-2.76,3-4.89,7.91-5.81,12.85a3.23,3.23,0,0,1-3.12-2.42c4.58-5.47,4.7-15-1.65-21.29a3.17,3.17,0,0,0,0-.8,3.88,3.88,0,0,0-.28-1A14.11,14.11,0,0,1,193.63,223.36Zm-50.89,21.36c2.27-6.2,11.27-8.39,17.44-7.85,9.34.82,19.78,8.59,18.74,16.56-1,7.62-12.16,13.31-21.36,11.33C148,262.7,140,252.17,142.73,244.72Zm25.45-23.39a6.49,6.49,0,0,0,.43,2.85s2.29,3.11,4.9,3.43a9.42,9.42,0,0,0,4.67-1.06c2.94,2.79,4,6.08,3.34,9.56a6.23,6.23,0,0,1-2.18,3.92,30.87,30.87,0,0,0-20.05-8.39,28.64,28.64,0,0,0-5.2.41,14.69,14.69,0,0,1,1.28-4.77C156.36,225.11,161.49,220.08,168.18,221.33ZM138,220.59c0,.87,0,1.47,0,1.47,0,2.18,4.36,3.49,7.41,2.62a7.79,7.79,0,0,0,2.9-1.78,9,9,0,0,1,1.64,1.48c-2.05,3.29-2.76,6.89-2,9.44-4.4,1.79-8.29,4.77-10.12,9.12a24.69,24.69,0,0,0-5-9.53,24.29,24.29,0,0,0-4.17-3.6C130,225.63,132.55,221.35,138,220.59Zm-26.18,42.88c-7-.87-9.59-13.95-7-20.05a27.49,27.49,0,0,1,1.39-2.79c3,.63,5.09,1,2.1.18a13,13,0,0,1-1.81-.68c2.76-4.55,7.09-7.87,14.89-7.16,10.32.94,13.47,14.07,11.33,20.49C131,258.67,118.76,264.34,111.78,263.46ZM109.6,212l.33-.08a7.3,7.3,0,0,0,1.41,2.26s4.36.44,5.67-2.18a5.2,5.2,0,0,0,.23-.56,10.4,10.4,0,0,1,8.38,8.57,12.43,12.43,0,0,0-4,6.89c-5.3-.87-11.83.89-19.24,8.51-.92-.6-1.84-1.23-2.75-1.89A22.16,22.16,0,0,1,97,225.1C96.09,217.26,100,214.64,109.6,212ZM88,224c-8.17-2-17.65-9.15-19-11.44-2-8.83-2.62-19.29-2-22.56s5.23-5.88,6.21-7.52c1.31,3.92,6.54,6.87,6.87,12.42a48.68,48.68,0,0,1,0,9.81C79.85,209,80.51,219.11,88,224ZM61.87,207.34c-8.17-7.85-17-20.27-19.29-27.46C41.27,161.57,57,151.44,62.85,149.15a60.12,60.12,0,0,0,.33,10.13,50,50,0,0,0,7.19,18.64,35.84,35.84,0,0,1-5.56,8.17C61.22,190,61.87,198.84,61.87,207.34Zm1.63-63.1c-10.14,2.94-19.94,12.42-24.85,23.87-4.25-7.52-6.54-26.48-6.21-32C40.95,125,53,111.22,69.39,107.63c-1,6.87-3.6,12.42-5.23,17.33S63.51,144.24,63.51,144.24Zm15-138.62S86.06,15.43,89,21s10.79,9.81,13.4,17,1.31,19.29.33,28.44S95.22,85.72,89,93.24s-10.79,14.39-12.1,24.85-1.63,22.56,5.56,33.67,7.52,24.85,7.19,34.65-2,17.65-3.6,26.15c0,0-2.62-4.25-2.94-8.17s2.29-5.88,1.63-12.1-8.17-9.48-13.08-21.25-5.88-24.52-3.92-40.87,8.5-32.69,15.37-41.85,15.37-19.94,17-27.79-.65-20.27-1.63-23.87-3.27-3.92-7.19-8.83S81.16,11.51,78.55,5.62ZM75.28,39a70.89,70.89,0,0,0,8.5-18.64C87,24.26,92.28,35.7,94.56,40c-3.6,2-19,5.56-23.87,9.81s-5.88,6.54-8.83,8.83C64.49,53.36,71,45.84,75.28,39Zm-19,6.87c1-1,9.81-5.23,12.75-7.85C62.2,48.12,54,61.86,54,61.86,54,55.64,55.33,46.82,56.31,45.84ZM43.89,56c0-2.94,5.88-5.56,7.52-6.21-.33,2-2.29,12.1-2,16a59.31,59.31,0,0,0-6.21,10.14C45.2,69,43.89,58.91,43.89,56ZM56.64,67.09c2.94-2.62,8.5-4.58,14.06-10.46S88.35,45.84,96.85,43.87c0,0-1,9.48-1.31,12.75s1,5.23-2.94,7.85c-24.52,2.94-43.48,17-50.67,24.19C43.56,83.43,53.7,69.7,56.64,67.09ZM91,67.41c0,4.9-5.23,11.44-7.85,14.06s-1,4.25-5.56,8.83S71,100.76,69.72,104.68c-16.67,1.63-32,16-36.62,22.23,0,0,0-16.67,2.94-24.19C47.49,84.41,81.81,69.7,91,67.41ZM24.6,72c2.62-8.5,10.79-12.1,15.69-14.06,0,5.56,1.31,16.67.33,23.54-.65,2.29-9.48,16.67-11.77,28.77C21.33,93.9,22.31,81.47,24.6,72Zm-4.25,4.25c-2.62,13.73.65,29.1,7.19,41.19-1,3.92-.65,17.33,0,20.27-2-6.87-19.94-19.62-20.6-30.73C8.58,96.51,15.77,81.8,20.35,76.24ZM3.68,157.32c.65-5.88,1-30.4,2.29-40.21,2,8.83,18.31,19.29,20.6,25.83,2,13.73,4.9,31.71,8.5,37.6-1,.33-2.29-.65-5.56-4.25C25.61,172,17.74,172,11.85,170.4S3,163.2,3.68,157.32ZM3,170.72C6,178.57,15.77,175,24.27,179.55s9.48,6.21,14.06,9.48c6.54,8.83,11.77,13.4,17.65,19.29-2,0-3.92-1.31-13.73-6.54s-18-2.94-21.58-4.9S5.64,179.55,3,170.72Zm58.85,50.35c-4.9-.33-7.85,0-17.65-3.6S27.87,207.67,23,200.8c3.27,1,12.42,2.62,18,4.25s15,7.85,19.29,9.81S65.79,219.44,72,223A51,51,0,0,0,61.87,221.07ZM72.33,226c2.94-.33,5.56-.33,5.56-.33l3.27,2.29A79.87,79.87,0,0,1,72.33,226Zm10.13,28.61c-1.74-5.88,1.22-13.61,5.4-17,3.46,3.28,6.44,6,8.91,8.47A29.13,29.13,0,0,0,100,261C93,263.69,84.26,260.65,82.47,254.58Zm19.29,25.17c-5.4-2.63-7.5-6.64-7.44-11a14.53,14.53,0,0,0,9.28-2.7,16.36,16.36,0,0,0,2.52,2.21c2.59,1.81,5.92,2.27,9.44,1.88a17.65,17.65,0,0,0,1.24,8.42C113.81,280.52,107.39,282.5,101.76,279.76Zm48.88.16c-1.63,4.25-9.81,9.15-16.18,8s-12.1-7.68-13.08-12.42a10.32,10.32,0,0,1,.52-6.85c6.3-2.18,12.21-6.13,14.74-9.11a9.08,9.08,0,0,0,1.62-3.08,27.41,27.41,0,0,0,10.4,12.28A11.29,11.29,0,0,1,150.63,279.92Zm5.37-.5a14.5,14.5,0,0,0-.61-7.7,21.58,21.58,0,0,0,2.16.46,24.62,24.62,0,0,0,12.62-1.53,14.53,14.53,0,0,0-.91,9.31C165.09,281.48,159.45,281.42,156,279.42Zm43.38,1.4c-2.77-1.13-7.74-1-10-.57a5.91,5.91,0,0,0-4.5,5.47c-3.27-.42-6.24-1.58-7.76-3.51-2.95-3.75-2.05-10-.74-14.95a24.48,24.48,0,0,0,4.19-3.87c.46-.4.94-.82,1.45-1.29,2.93-2.73,5.15-2.72,7.2-1.79a37.11,37.11,0,0,0,10.41,6.89,16.71,16.71,0,0,1,3.47,4.22C203.77,273,202.38,277.2,199.38,280.82Zm27.26-3a3.87,3.87,0,0,0-1.3-1.34c-1.14-.33-4.58-1.8-6.21.33a8.34,8.34,0,0,0-.94,3.68c-4.22.2-7.5-1.51-9.1-4.23a16.32,16.32,0,0,0,.49-6.12c3.52.39,6.84-.07,9.44-1.88a16.38,16.38,0,0,0,2.52-2.21,14.53,14.53,0,0,0,9.2,2.7C231.53,271.26,231.26,275,226.64,277.82Zm15.7-22.1c-5.33,7.47-13.38,7.1-17.23,5.21A29.13,29.13,0,0,0,228.36,246c2.18-2.22,4.77-4.57,7.73-7.35C241.26,240.76,247.54,248.45,242.34,255.73ZM244,227.94l3.27-2.29s2.62,0,5.56.33A79.88,79.88,0,0,1,244,227.94Zm36.94-10.46c-9.81,3.6-12.75,3.27-17.65,3.6a51,51,0,0,0-10.13,2c6.21-3.6,7.52-6.21,11.77-8.17s13.73-8.17,19.29-9.81,14.71-3.27,18-4.25C297.26,207.67,290.72,213.88,280.92,217.48Zm23.54-20.6c-3.6,2-11.77-.33-21.58,4.9s-11.77,6.54-13.73,6.54c5.88-5.88,11.12-10.46,17.65-19.29,4.58-3.27,5.56-4.9,14.06-9.48s18.31-1,21.25-8.83C319.49,179.55,308.05,194.92,304.46,196.88Z"/><path d="M120.94,241.23c-5.89-2.06-11.33,7-6.1,10.9S129.66,244.28,120.94,241.23Z"/><path d="M165.4,250c3.49-1.74,0-7.85-6.1-8.28s-9.15,2.18-9.15,5.23C150.14,250.82,157.37,254,165.4,250Z"/><path d="M133.47,274.36c-3.6.16-7.19,1-7,4.74.08,1.8,4.41,5.72,6.87,5.72s5.88-2.45,6.38-4.74S137.07,274.2,133.47,274.36Z"/><path d="M213.08,246.9c-1.14-2.45-3.6-7-6.87-6.21-2.38.59-3.27,10.46.16,12.75S214.22,249.35,213.08,246.9Z"/><polygon points="207.63 88.86 210.07 94.1 212.75 88.97 218.49 88.27 214.44 84.14 215.55 78.47 210.37 81.04 205.31 78.23 206.16 83.95 201.93 87.89 207.63 88.86"/><polygon points="186.98 77.37 191.48 82.01 192.43 75.61 198.24 72.76 192.45 69.88 191.53 63.47 187 68.09 180.62 66.98 183.62 72.72 180.59 78.44 186.98 77.37"/><polygon points="112.39 88.97 115.06 94.1 117.5 88.86 123.21 87.89 118.97 83.95 119.82 78.23 114.76 81.04 109.58 78.47 110.69 84.14 106.64 88.27 112.39 88.97"/><polygon points="133.65 82.01 138.16 77.37 144.54 78.44 141.51 72.72 144.51 66.98 138.13 68.09 133.6 63.47 132.69 69.88 126.89 72.76 132.7 75.61 133.65 82.01"/><polygon points="154.53 77.74 162.57 73.52 170.6 77.74 169.07 68.79 175.57 62.45 166.59 61.15 162.57 53.01 158.55 61.15 149.56 62.45 156.06 68.79 154.53 77.74"/><path d="M158.48,101.57c-29.05,0-52.6,7.25-52.6,16.19,0,31.7,7.76,69.29,52.6,69.29,22.7,0,35.9-9.64,43.4-23.27h9a18,18,0,1,0,0-36.08h-.11c.2-3.35.28-6.68.28-9.95C211.09,108.82,187.53,101.57,158.48,101.57Zm0,28.32c-25.51,0-46.2-5.43-46.2-12.14s20.68-12.14,46.2-12.14,46.2,5.43,46.2,12.14S184,129.9,158.48,129.9Zm52.43,4.89a11,11,0,1,1,0,21.92h-5.76a88.51,88.51,0,0,0,5-21.92Z"/></g></g></svg>