<svg xmlns="http://www.w3.org/2000/svg" viewBox="0 0 170 170"><defs><style>.cls-1{fill:#4f4f51;}</style></defs><title>Asset 1</title><g id="Layer_2" data-name="Layer 2"><g id="LOGO"><path class="cls-1" d="M85,0a85,85,0,1,0,85,85A85.09,85.09,0,0,0,85,0Zm47.37,132.37L106,134.49l-.87.35L85,152,64.88,134.86,64,134.5l-26.4-2.13L35.51,106l-.35-.86L18,85,35.14,64.88,35.5,64l2.13-26.4L64,35.51l.85-.35L85,18l20.12,17.14.85.36,26.4,2.13L134.49,64l.35.85L152,85l-17.15,20.12-.35.86ZM108.3,32.67l8.8-21.25L131,34.5Zm-2.78-1.14L88.2,16.78l26.13-6.51Zm-41,0-8.8-21.25L81.8,16.78ZM61.7,32.68,39,34.5,52.89,11.42ZM16.78,81.8,10.27,55.68l21.26,8.81Zm14.74,23.72-21.25,8.8L16.78,88.2Zm30.17,31.81-8.8,21.25L39,135.5Zm2.79,1.14L81.8,153.22l-26.12,6.51Zm41,0,8.8,21.25L88.2,153.22Zm2.77-1.16L131,135.5,117.1,158.58ZM153.22,88.2l6.51,26.12-21.26-8.81ZM138.47,64.48l21.25-8.8-6.51,26.12Zm-1.15-2.78L135.5,39l23.07,13.87ZM134.07,33.8,120.39,11a82.1,82.1,0,0,1,21.46,15ZM86.5,14.1V3a81.5,81.5,0,0,1,25.75,4.64Zm-3,0L57.74,7.68A81.52,81.52,0,0,1,83.5,3ZM35.93,33.8,28.14,26A82.34,82.34,0,0,1,49.61,11ZM32.67,61.69l-21.24-8.8L34.5,39ZM14.1,83.5H3A81.51,81.51,0,0,1,7.69,57.74Zm0,3L7.69,112.26A81.51,81.51,0,0,1,3,86.5Zm18.57,21.8L34.5,131,11.42,117.1Zm3.26,27.9L49.61,159a82.37,82.37,0,0,1-21.47-15ZM83.5,155.9V167a81.55,81.55,0,0,1-25.75-4.64Zm3,0,25.75,6.42A81.52,81.52,0,0,1,86.5,167Zm47.57-19.7,7.79,7.79a82.15,82.15,0,0,1-21.46,15Zm3.26-27.89,21.24,8.8L135.5,131Zm18.56-21.8H167a81.56,81.56,0,0,1-4.64,25.75Zm0-3,6.42-25.75A81.59,81.59,0,0,1,167,83.5ZM159,49.61,136.19,35.93,144,28.14A82.56,82.56,0,0,1,159,49.61ZM26,28.14l7.79,7.79L11.05,49.61A82.33,82.33,0,0,1,26,28.14ZM11,120.39,33.8,134.07,26,141.86A82.32,82.32,0,0,1,11,120.39ZM144,141.86l-7.79-7.79L159,120.39A82.55,82.55,0,0,1,144,141.86Z"/></g></g></svg>