<svg xmlns="http://www.w3.org/2000/svg" width="150.5" height="151" viewBox="0 0 150.5 151"><style>.st0{fill:#d8d8d8}.st1{filter:url(#Adobe_OpacityMaskFilter)}.st2{fill:#fff}.st3{mask:url(#mask-2_1_)}.st4{fill:#33a9dc}.st5{display:none;fill-opacity:.2;stroke:#979797}.st6{filter:url(#Adobe_OpacityMaskFilter_1_)}.st7{mask:url(#mask-2_6_)}</style><g id="Page-1_1_"><g id="Group_1_"><g id="Mask_1_"><circle id="path-1_3_" class="st0" cx="74.1" cy="74.1" r="74.1"/></g><defs><filter id="Adobe_OpacityMaskFilter" filterUnits="userSpaceOnUse" x="0" y="0" width="150.5" height="151"><feColorMatrix values="1 0 0 0 0 0 1 0 0 0 0 0 1 0 0 0 0 0 1 0"/></filter></defs><mask maskUnits="userSpaceOnUse" x="0" y="0" width="150.5" height="151" id="mask-2_1_"><g id="XMLID_17_" class="st1"><circle id="path-1_2_" class="st2" cx="74.1" cy="74.1" r="74.1"/></g></mask><g id="XMLID_15_" class="st3"><path id="XMLID_22_" class="st4" d="M94.3 147.2c5.4-1.8 10.8-3.4 16.1-5.5 2.4-1 4.8-2 7.1-3.1 1.8-1.2 3.6-2.3 5.3-3.6 4.9-3.5 8.5-8.1 11.8-13.2 3.6-5.5 6.5-11.4 8.9-17.5 1.6-4.1 3.2-8.3 4.6-12.5V0H0v148.2h91.6c.9-.3 1.8-.7 2.7-1z"/><path id="XMLID_18_" class="st5" d="M94.3 147.2c5.4-1.8 10.8-3.4 16.1-5.5 2.4-1 4.8-2 7.1-3.1 1.8-1.2 3.6-2.3 5.3-3.6 4.9-3.5 8.5-8.1 11.8-13.2 3.6-5.5 6.5-11.4 8.9-17.5 2.2-5.5 4.3-11.1 5.8-16.8.1-.4.2-.8.3-1.1-.2-.7-.3-1.6-.1-2.5.2-.7.3-1.3.3-2V81c0-.3 0-.6.1-.9-.1-2.1-.5-4.1-.9-6.2-.1-.7-.1-1.4 0-2.1l-34.5-35-15 13.6-4.3 22.8-3.5 16.5L66 97.8l-17.4-8.1 1.4-7.5s-6.1 1.7-9 1.7h-3l-4.9 13.9 53.2 52.6c2.6-1.3 5.3-2.2 8-3.2z"/><path id="css3_2_" class="st2" d="M45.3 37l-2.7 13.8h55.7l-1.7 8.8H40.8l-2.7 13.7h55.8L90.7 89l-22.4 7.4L48.8 89l1.3-6.8H36.4l-3.3 16.4L65.4 111l37.1-12.4 5-24.7 1-5 6.3-31.9z"/></g></g></g></svg>