<svg xmlns="http://www.w3.org/2000/svg" width="150.3" height="150" viewBox="0 0 150.3 150"><style>.st0{fill:#d8d8d8}.st1{filter:url(#Adobe_OpacityMaskFilter)}.st2{fill:#fff}.st3{mask:url(#mask-2_1_)}.st4{fill:#f16529}.st5{display:none;fill-opacity:.2;stroke:#979797}.st6{filter:url(#Adobe_OpacityMaskFilter_1_)}.st7{mask:url(#mask-2_6_)}</style><g id="Page-1_2_"><g id="Artboard-1_2_"><g id="Group_2_"><g id="Mask_2_"><circle id="path-1_2_" class="st0" cx="75" cy="75" r="75"/></g><defs><filter id="Adobe_OpacityMaskFilter" filterUnits="userSpaceOnUse" x="0" y="0" width="150.3" height="150"><feColorMatrix values="1 0 0 0 0 0 1 0 0 0 0 0 1 0 0 0 0 0 1 0"/></filter></defs><mask maskUnits="userSpaceOnUse" x="0" y="0" width="150.3" height="150" id="mask-2_1_"><g id="XMLID_17_" class="st1"><circle id="path-1_1_" class="st2" cx="75" cy="75" r="75"/></g></mask><g id="XMLID_15_" class="st3"><path id="XMLID_22_" class="st4" d="M92.3 148.8c3.2-1 6.5-1.7 9.7-2.6.8-.2 1.6-.5 2.4-.8.4-.1.7-.3 1.1-.4 0-.1.4-.2.4-.2.1 0 .2-.1.2-.1 1.5-.7 3-1.6 4.4-2.6 2.8-2 5.7-4 8.5-5.9 1.5-1 2.9-1.9 4.4-2.8.7-.4 1.4-.8 2-1.2l.9-.6.1-.1c-.2.1.1-.2.3-.2 1.1-.9 2.1-1.8 3-2.8.5-.6 1-1.1 1.5-1.7.2-.3.4-.5.6-.8l.1-.1c-.1.1-.1 0 .2-.3 1.7-2.3 3.2-4.6 4.8-7 .8-1.2 1.5-2.4 2.3-3.6.8-1.3 1.8-2.5 2.7-3.7.9-1.3 1.6-2.7 2.3-4.2 0-.1.2-.3.2-.4 0 .1-.1.1-.2.3.1-.2.1-.4.2-.5.2-.4.3-.9.5-1.3.3-.8.6-1.6.8-2.4l1.5-4.8c.2-.8.5-1.6.7-2.4.1-.4.2-.9.3-1.3 0-.2.1-.4.1-.5.1-.7 0 .1 0 .2.3-1.7.7-3.4 1.1-5.1l.3-1.2c0-.2.1-.3.1-.5v-1.1c-.2-.9-.1-1.7.2-2.4V0H0v150h90.5c.5-.5 1.1-1 1.8-1.2z"/><path id="XMLID_18_" class="st5" d="M92.3 148.8c3.2-1 6.5-1.7 9.7-2.6.8-.2 1.6-.5 2.4-.8.4-.1.7-.3 1.1-.4 0-.1.4-.2.4-.2.1 0 .2-.1.2-.1 1.5-.7 3-1.6 4.4-2.6 2.8-2 5.7-4 8.5-5.9 1.5-1 2.9-1.9 4.4-2.8.7-.4 1.4-.8 2-1.2l.9-.6.1-.1c-.2.1.1-.2.3-.2 1.1-.9 2.1-1.8 3-2.8.5-.6 1-1.1 1.5-1.7.2-.3.4-.5.6-.8l.1-.1c-.1.1-.1 0 .2-.3 1.7-2.3 3.2-4.6 4.8-7 .8-1.2 1.5-2.4 2.3-3.6.8-1.3 1.8-2.5 2.7-3.7.9-1.3 1.6-2.7 2.3-4.2 0-.1.2-.3.2-.4 0 .1-.1.1-.2.3.1-.2.1-.4.2-.5.2-.4.3-.9.5-1.3.3-.8.6-1.6.8-2.4l1.5-4.8.6-2.1c.1-.2.1-.5.2-.7.1-.3.1-.6.2-.9 0-.2.1-.4.1-.5.1-.7 0 .1 0 .2.3-1.7.7-3.4 1.1-5.1l.3-1.2c0-.2.1-.3.1-.5v-1.1c-.1-.6-.1-1.2 0-1.7l-42.3-47.1v13.5l-22.2-5.9-31.7 5.9L56 68l9.4-1.5L94.6 68v8.8H45.1l1.8 28.4L92.1 149c0-.1.1-.1.2-.2z"/><path id="html5_1_" class="st2" d="M105.8 64.2c-.3 3.4-.6 6.5-.8 9.6-.7 7.5-1.3 14.9-2 22.4-.2 2.7-.4 5.4-.7 8.1 0 .3-.5.8-.8.9-8.6 2.4-17.2 4.8-25.8 7.1-.4.1-.8.1-1.2 0-8.6-2.3-17.1-4.7-25.7-7.1-.7-.2-.8-.6-.8-1.1-.5-5.8-1-11.6-1.6-17.4-.1-.8-.1-1.6-.2-2.4h13.3c.3 3 .6 5.9.7 8.8.1 1.3.4 1.8 1.8 2.2 4.1 1 8.2 2.2 12.3 3.3.5.1 1.1.1 1.6 0 4.4-1.2 8.8-2.3 13.2-3.6.4-.1.8-.5.8-.8.5-5.2 1-10.5 1.4-15.7v-.8H45.4c-1.2-13.4-2.4-26.7-3.6-40h66.3c-.4 4.4-.8 8.7-1.2 13.2H56.3c.4 4.6.8 9 1.2 13.5 16-.2 32.1-.2 48.3-.2z"/></g></g></g></g></svg>