<svg xmlns="http://www.w3.org/2000/svg" xmlns:xlink="http://www.w3.org/1999/xlink" width="150" height="150" viewBox="0 0 150 150"><style>.st0{fill:#fff}.st1{fill:#d8d8d8}.st2{clip-path:url(#XMLID_31_)}.st3{filter:url(#Adobe_OpacityMaskFilter)}.st4,.st5{clip-path:url(#XMLID_32_)}.st4{fill:#fff}.st5{mask:url(#mask-2_1_)}.st6{filter:url(#Adobe_OpacityMaskFilter_1_)}.st7{mask:url(#mask-4_1_)}.st8{fill:#f7df1e}.st9{clip-path:url(#XMLID_34_)}.st10{filter:url(#Adobe_OpacityMaskFilter_2_)}.st11,.st12{clip-path:url(#XMLID_35_)}.st11{fill:#fff}.st12{mask:url(#mask-2_6_)}.st13{filter:url(#Adobe_OpacityMaskFilter_3_)}.st14{mask:url(#mask-4_2_)}</style><g id="Page-1_1_"><g id="_x31_024_1_"><g id="js-circle_1_"><g id="Page-1_2_"><g id="Group-_x2B_-Group-2-Mask_1_"><g id="mask-2_2_"><circle id="path-1_5_" class="st0" cx="75.1" cy="75.1" r="74.9"/></g><g id="Mask_1_"><circle id="path-1_4_" class="st1" cx="75.1" cy="75.1" r="74.9"/></g><g id="Group-Clipped_1_"><g id="XMLID_25_"><defs><path id="XMLID_27_" d="M.4.4h.2L.4.6z"/></defs><defs><path id="XMLID_26_" d="M.1.1H0L.1 0z"/></defs><clipPath id="XMLID_31_"><use xlink:href="#XMLID_27_" overflow="visible"/></clipPath><clipPath id="XMLID_32_" class="st2"><use xlink:href="#XMLID_26_" overflow="visible"/></clipPath><defs><filter id="Adobe_OpacityMaskFilter" filterUnits="userSpaceOnUse"><feColorMatrix values="1 0 0 0 0 0 1 0 0 0 0 0 1 0 0 0 0 0 1 0"/></filter></defs><mask maskUnits="userSpaceOnUse" id="mask-2_1_"><g id="XMLID_29_" class="st3"><circle id="path-1_2_" class="st4" cx="75.1" cy="75.1" r="74.9"/></g></mask></g></g><g id="Group-2-Clipped_1_"><defs><filter id="Adobe_OpacityMaskFilter_1_" filterUnits="userSpaceOnUse" x=".3" y=".3" width="149.7" height="149.7"><feColorMatrix values="1 0 0 0 0 0 1 0 0 0 0 0 1 0 0 0 0 0 1 0"/></filter></defs><mask maskUnits="userSpaceOnUse" x=".3" y=".3" width="149.7" height="149.7" id="mask-4_1_"><g id="XMLID_21_" class="st6"><circle id="path-3_1_" class="st0" cx="75.1" cy="75.1" r="74.9"/></g></mask><g id="Group-2_1_" class="st7"><path id="XMLID_23_" class="st8" d="M136 127.7c1-.7 2-1.5 2.8-2.5"/><path id="XMLID_22_" class="st8" d="M148.3 95.8c.1-.9.7-1.7 1.7-1.8V.3H.3V150h84.8c.1-.1.2-.1.4-.2 3.5-1 7.2-1.5 10.7-2.2 1.8-.3 3.5-.9 5.3-1.2 1.7-.4 3.4-.5 5.2-.7 2.7-.2 5.5-.3 8-1.4 1.4-.6 2.7-1.6 4-2.4 1.4-.9 2.8-1.8 4.1-2.7 1.2-.8 2.5-1.6 3.6-2.6s2.1-2.1 3-3.2"/><path id="Shape_3_" class="st0" d="M75.4 90.7c2.9-1.7 5.8-3.4 8.7-5 .6.8 1.1 1.6 1.7 2.3 3 3.6 7.7 5.1 12.1 3.6 1.9-.6 3.4-1.7 3.8-3.8.4-2.3-.5-4.1-2.5-5.2-2.3-1.2-4.6-2.3-7-3.4-3.1-1.4-6.2-2.8-8.7-5.1-4.6-4.2-5.8-9.5-4.3-15.3 1.5-5.7 5.7-8.8 11.3-9.8 4.5-.8 9-.5 13.1 1.9 2.5 1.5 4.3 3.6 5.8 6.3-2.8 1.8-5.5 3.6-8.3 5.3-.4-.6-.8-1.2-1.2-1.7-1.7-2.3-4-3.2-6.8-2.7-1.8.3-3.1 1.2-3.6 3s-.3 3.6 1.3 4.8c1.6 1.2 3.4 2.1 5.2 2.9 3.6 1.7 7.3 3.2 10.6 5.5 6.4 4.5 7.2 12.7 4.8 18.2-2 4.6-5.7 7.1-10.4 8.2-7.3 1.7-14.3.9-20.4-3.8-2.2-1.4-3.9-3.6-5.2-6.2z"/><path id="Shape_2_" class="st0" d="M37.9 91.8c2.9-1.8 5.7-3.5 8.7-5.3.7 1 1.2 1.9 1.9 2.8 1.5 2 3.5 2.8 5.9 2.6 2.9-.3 4.4-2 4.6-5.2v-36c0-1.5 0-1.5 1.6-1.5h8.1c.8 0 1.2.2 1.2 1.1 0 11.9 0 23.8-.1 35.7 0 1.9-.3 3.8-.8 5.7-1.2 4.5-4 7.6-8.5 9-5.2 1.6-10.5 1.5-15.4-1-3.3-1.8-5.6-4.4-7.2-7.9z"/></g></g></g></g></g></g></g></svg>