<svg viewBox="0 0 500 500" xmlns="http://www.w3.org/2000/svg"><style>.st0{fill:#71dbd6}.st1{fill:#f9d499}.st2{fill:#12bc00}.st3{fill:#d3d1cd}.st4{fill:#2b2d30}.st5{fill:#b3b3b3}.st6{fill:#fefefe}.st7{fill:#2e3032}.st8{fill:#2d2f32}.st9{fill:#2b2e31}#Retina1,#Retina2{-webkit-animation-name:blink;-webkit-animation-duration:6s;-webkit-animation-iteration-count:infinite;-webkit-transform-origin:50%;animation-name:blink;animation-duration:6s;animation-iteration-count:infinite;transform-origin:50%}@-webkit-keyframes blink{0%,2%,60%,62%,to{-webkit-transform:scaleX(1) scaleY(1)}1%,61%{-webkit-transform:scaleX(1.3) scaleY(.1)}}@keyframes blink{0%,2%,60%,62%,to{transform:scaleX(1) scaleY(1)}1%,61%{transform:scaleX(1.3) scaleY(.1)}}</style><g id="Sanky"><path id="XMLID_29_" class="st1" d="M225.3 277.5c2.3 6.2 15.8 6.2 21.3 6 6.8-.2 14.8-.2 20.5-4.2.1-.5.3-.8.6-.9-.1-1.8-.3-3.6-.7-5.5-.1.1-.3.2-.4.3-5.7 3.5-13.6 2.4-20 3.1-3 .3-7.2.6-10.1-.4-2.8-.9-4.2-3.4-6.1-5.5l-.4-.4c-.7-.3-1.2-.6-1.5-1s-.9-.5-1.9-1c-.6 3.1-1.1 6.2-1.3 9.2 0 0 .1.2 0 .3z"/><path id="Shirt" class="st2" d="M388.6 445.2c-17.3.1-34.6.3-51.9.4.5-1.5 1.4-3 1.5-4.5.4-9.3.6-18.6.9-28 6.1-1.2 12.2-2.5 19.5-3.9-6.4-12.6-12.4-24.4-18.3-36.2-.1-5.1-.4-10.3-.1-15.4.3-5.4-1-9.4-6.5-11.4-4.6 1.4-7.5-.3-9.4-4.6-1.8-4-4.1-7.9-6.1-11.8l-1 .2-1.3 16.1c-6.1.3-12.2 1-18.3 1-34.7.1-69.5.1-104.2 0-5.3 0-10.6-.5-15.9-.8-.2-5.5-.5-10.9-.7-16.4-3.2 3.9-5.5 7.8-7.4 12-1.9 4.1-4.6 5.8-8.9 4.3-5.9 1.5-7 5.8-6.9 11 .1 5-.1 10-.1 14.9-5.8 12.1-11.7 24.2-17.8 37 7.2 1.4 13.2 2.6 19.1 3.8.1 6.8 0 13.6.3 20.4.2 4.1.9 8.1 1.4 12.2h-54.3c-1.1 0-2.3-.3-3.4-.4-7-4.6-8.9-11.3-7.7-19.1.5-3.4 1.5-6.9 3-10 8.6-18.1 17.4-36.1 26.1-54.2 5-10.4 9.9-20.9 14.9-31.3 1.2-1.5 2.5-3 3.4-4.6 6.2-11.2 12-22.6 18.8-33.4 2-3.2 6.5-6.8 10.1-7.9 19-5.8 38.6-8.6 58.5-8.5-4.5 9.3 47.3 9.1 41.3.1 20.1-.3 39.7 2.8 59 8.2 4.5 1.3 8.4 3.7 10.8 8.2 6.7 12.6 13.6 25.2 20.5 37.6.6 1.1 2.2 1.6 3.3 2.4.5 2.1.7 4.3 1.6 6.1 10.3 21 20.6 42 31 63.4 1.3 1.8 8.3 12.1 5.4 25.6-2 9.7-8 15.5-10.2 17.5z"/><g id="Laptop"><path id="XMLID_3_" class="st3" d="M158.2 445.6c-.5-4.1-1.2-8.1-1.4-12.2-.3-6.8-.2-13.6-.3-20.4-.4-13.6-.9-27.2-1.3-40.8 0-5 .2-10 .1-14.9-.1-5.2 1.1-9.6 6.9-11 5.7.1 11.4.1 17.1.2 5.3.3 10.6.8 15.9.8 34.7.1 69.5.1 104.2 0 6.1 0 21.8-.2 23.5-.3 4.2-.1 8.4-.4 12.6-.6 5.4 1.9 6.8 6 6.5 11.4-.3 5.1 0 10.3.1 15.4l-1.2 40.1c-.3 9.3-.5 18.6-.9 28-.1 1.5-1 3-1.5 4.5-60.1-.2-120.2-.2-180.3-.2z"/><g id="XMLID_2_"><path id="XMLID_5_" class="st4" d="M224.5 402.6v-3l17.1-7.2v3.1l-13.5 5.6 13.5 5.6v3.1l-17.1-7.2z"/><path id="XMLID_8_" class="st4" d="M243.6 414.3l7.5-26.6h2.5l-7.5 26.6h-2.5z"/><path id="XMLID_10_" class="st4" d="M272.6 402.6l-17.1 7.3v-3.1l13.5-5.6-13.5-5.6v-3.1l17.1 7.2v2.9z"/></g><path id="XMLID_6_" class="st5" d="M158.2 453.1c-.5-.3-1.2-.6-1.4-.9-.3-.5-.2-1-.3-1.5-.4-1-.9-2-1.3-3.1 0-.4.2-.7.1-1.1s1.1-.7 6.9-.8h17.1c5.3 0 10.6.1 15.9.1h140.3c5.4.1 6.8.5 6.5.9s0 .8.1 1.2l-1.2 3c-.3.7-.5 1.4-.9 2.1-.1.1-1 .2-1.5.3-60.1-.2-120.2-.2-180.3-.2z"/></g><g id="Face"><path id="XMLID_118_" class="st1" d="M309.3 184.9c1.2-.1 2.3-.2 3.7-.3.2 1 .6 2.1.8 3.3.9 4-.1 7.7-1.3 11.5-1.5 4.9-3.8 9.4-6.6 13.6-.1.1-.2.2-.3.4-1.3 1.6-1.9 1.7-3.4.4-.7-.6-1.5-.7-2.4-.6-.5.1-1 .3-1.5.5-1.4.7-1.1 2-.9 3.1.9 4.1 1.7 8.3 2.7 12.3.4 1.7.2 3.1-.8 4.4-2 2.5-4 5-6.1 7.4-4.9 5.5-9.8 11-14.8 16.5-4.4 4.8-9 9.5-13.4 14.2-1.2 1.3-2.8 1.8-4.5 1.9-2.6 0-5.2-.1-7.8-.2-2.3 0-4.6-.1-6.8-.1s-4.5 0-6.7.1c-2.4.1-4.3-.8-5.9-2.4-3.4-3.3-6.7-6.5-10-9.9-8.6-8.7-17.3-17.2-26.4-25.3-.4-.3-.7-.7-1.1-1-1.1-.7-1.4-1.7-1.3-2.9.1-2.8.2-5.5.4-8.3.2-2.4.6-4.7.7-7.1.1-1.3 0-2.6-.2-3.8 0-.3-.5-.6-.7-.7-1.6-.2-3.1-.1-4.3 1.3-.2.2-.8.2-1.1.2-1.2-.2-2.1-1-2.8-1.9-1.9-2.4-3.1-5.1-4.1-7.9-1.9-5.4-3.8-10.8-5.6-16.3-.6-1.7.1-3 1.7-3.7.2-.1.4-.1.6-.1l1.8-.3c.3 0 .8.1 1 .3.6.8 1.3 1.1 2.3 1.1h1.8c.2 1.5.3 3 .6 4.4.8 5.3 2.2 10.5 4.7 15.2 2.4 4.6 6.3 7.5 11.1 9.2 3.4 1.2 6.9 1.9 10.6 2.2 4.4.3 8.8.1 13-1.2 7.3-2.2 11.9-7.2 13.9-14.5.7-2.7 1.2-5.5 1.9-8.3.4-1.4 1-2.8 1.7-4 1.8-3 6.6-3.4 8.7 0 1.2 1.9 1.8 4.1 2.4 6.3.8 2.9 1.3 5.9 2.4 8.7 2.7 6.9 7.9 10.9 15.1 12.4 3.9.8 7.8 1 11.8.6 5.4-.5 10.6-1.9 15.2-4.9 3-2 4.9-4.9 6.4-8 1.9-3.9 3-8.1 3.7-12.4-.4-1.6-.2-3.5.1-5.4zm-47.2 26.9c-1.4.5-2.8 1.1-4.2 1.6-1.8.6-3.6.6-5.4-.2-1.4-.7-3-1.1-4.5-1.6-.8-.3-1.6-.3-2.3.2-.8.5-.9.8 0 1.2 1.7.8 3.3 1.6 5 2.2 4.7 1.5 9-.3 11.4-3.4.1 0 .1 0 .1-.1 0 0-.1 0-.1.1zm-24.2 13.1l-.1.1c.3.2.5.4.8.6 6.1 4.5 12.9 7.1 20.5 7.8 1 .1 2.1 0 3.2-.1.7-.1.9-.6.3-1.1-.2-.2-.5-.4-.8-.5-.6-.2-1.3-.3-1.9-.3-2.1-.2-4.1-.3-6.2-.7-5.3-1-10.3-3-15.1-5.4-.3-.2-.5-.3-.7-.4zm18.9 17c-.4 0-.7-.1-1 0-2.4.6-4.9 1.1-7.2 1.8-1.1.3-2.1 1-3 1.6-.5.3-.7 1-.4 1.6s1 .9 1.7.7c.4-.1.8-.4 1.2-.6.8-.5 1.5-1.2 2.3-1.7 2.1-1 4.2-2.2 6.4-3.4zm-19.1-17.1c-.1 0-.1 0 0 0-.1 0-.1 0 0 0z"/><path id="XMLID_114_" class="st1" d="M300.5 167.9c-2-.4-3.9-.9-5.8-1.2-2.1-.3-4.2-.6-6.3-.7-2.7-.2-5.4-.2-8.1-.1-3.3.1-6.6.4-9.8.7-6.1.7-12.1 2.1-17.8 4.2-1.4.5-2.8 1.1-4.2 1.5-1.2.4-2.4.1-3.6-.4-5.4-2.4-11.1-3.9-17-4.9-3.4-.5-6.8-.9-10.2-1.1s-6.8-.3-10.2-.1c-4.5.2-8.9.9-13.2 2.1-.5.2-.7.1-1-.4-1.3-2.7-1.6-5.6-2-8.5-.7-5.3-1-10.5-.9-15.8 0-1.2.1-2.5.2-3.7 0-.7.4-1.2 1-1.6 2.3-1.6 4.9-2.6 7.5-3.5 2.3-.8 4.6-1.6 7.1-1.3 1.9.2 3.8.5 5.7.8 3.7.7 7.4 1.4 11.1 2 3.1.6 6.1 1.1 9.2 1.6 2.3.4 4.5.7 6.8 1 2.2.3 4.5.6 6.7.7 2.6.2 5.2.2 7.8.1 2.2 0 4.5-.2 6.7-.4 2.5-.3 5-.6 7.4-1 4.7-.9 9.3-1.9 14-3.1 2.8-.7 5.6-1.7 8.4-2.5 2-.5 4-.8 6-.2 1.4.4 2.4 1.3 2.9 2.7 1.2 3.6 2.1 7.2 2.6 10.9.5 4.2.7 8.3.3 12.5-.2 2.6-.6 5.3-.9 7.9-.1.5-.3 1.2-.4 1.8zm-6.8-3.9c-.9-.3-1.9-.6-2.8-.9-7.3-2.2-14.5-5-22-6.4-1.4-.3-2.8-.4-4.2-.5s-2.6.8-2.8 2.1c-.3 1.3-.3 2.6-.4 3.9 0 .6.3.9 1 1 2.1.2 4.2.6 6.3.8 1.9.2 3.9.6 5.9.6 6 .1 11.9 0 17.9 0 .4.1.8 0 1.1-.6zm-57 3.9c-.4-1.7-.7-3.4-1.1-5.1-.2-.8-.6-1.3-1.3-1.7-1.4-.8-2.9-1.2-4.4-1-2.2.2-4.3.5-6.5.8-3.6.4-7.2.9-10.8 1.3-3.5.4-7 .6-10.5 1-1.4.2-2.9.6-4.3.9-.2.1-.5.5-.5.8.1.4.3.8.9.7 2-.2 4-.5 6-.6 3.1-.1 6.2-.2 9.3-.2 1.9 0 3.9.1 5.8.3 2.5.3 4.9.6 7.4 1 3.3.7 6.6 1.3 10 1.8z"/><path id="XMLID_111_" class="st6" d="M278.9 212.9c-3.7-.2-7.4-.7-10.8-2.3-5.6-2.6-8.8-7.1-10-13-.6-3.2-1.1-6.4-1.5-9.6-.3-2.8-.4-5.6.2-8.3.4-1.9 1.4-3.3 3.1-4.3 2.7-1.6 5.6-2.5 8.6-3.2 5.5-1.2 11.1-1.6 16.7-1.3 3.8.2 7.5.4 11.2 1.5 2.1.6 4 1.5 5.5 3 2.3 2.2 3.3 5 3.3 8.1 0 2.3-.2 4.7-.4 7-.3 3.3-1 6.6-2.4 9.6-3 6.7-8.3 10.6-15.5 11.9-2.6.4-5.3.6-8 .9zm-1.8-21.9l-.1-.1c.3-1.1.6-2.2 1-3.2.3-1.1.7-2.1 1-3.2-3.5-1.1-7.2.6-8.7 4-1.5 3.5 0 7.4 3.3 9.1s7.4.6 9.4-2.6c1.9-2.9 1.1-6.9-1-8.6-1.6 1.5-3.3 3.1-4.9 4.6z"/><path id="XMLID_108_" class="st6" d="M238.4 184.3c-.1 3.6-.6 7.1-1.2 10.6-.4 2.2-.8 4.5-1.7 6.6-2.4 5.6-6.8 8.9-12.6 10.4-3.8.9-7.7 1-11.5.5-3-.4-6-.8-8.8-2.1-5.6-2.4-9-6.8-11-12.4-1-2.9-1.5-5.9-1.7-9-.1-2-.3-3.9-.3-5.9.1-5.1 2.8-8.4 7.5-10.3 2.3-.9 4.7-1.4 7.2-1.5 3.4-.2 6.8-.5 10.2-.4 5.9.1 11.8.8 17.4 3 .9.4 1.8.8 2.7 1.3 2.3 1.2 3.3 3.1 3.7 5.6 0 1.2 0 2.4.1 3.6zm-20 .2c-3.2-1.2-7.1.5-8.6 3.7-1.6 3.4-.3 7.4 2.9 9.2s7.4.9 9.5-2.2c1.9-2.8 1.6-7-.8-8.9-1.6 1.5-3.2 3.1-4.9 4.6-.1 0-.1-.1-.2-.1.8-2.1 1.5-4.2 2.1-6.3z"/><path id="XMLID_107_" class="st7" d="M237.9 224.9l.6.3c4.8 2.4 9.8 4.4 15.1 5.4 2 .4 4.1.5 6.2.7.6.1 1.3.2 1.9.3.3.1.6.3.8.5.5.5.4 1-.3 1.1-1.1.1-2.1.2-3.2.1-7.6-.7-14.4-3.3-20.5-7.8-.3-.2-.5-.4-.8-.6h.2z"/><path id="XMLID_106_" class="st8" d="M262.1 211.9c-2.4 3-6.7 4.8-11.3 3.3-1.7-.5-3.4-1.4-5-2.2-.9-.4-.8-.8 0-1.2.8-.5 1.5-.5 2.3-.2 1.5.5 3 1 4.5 1.6 1.8.8 3.6.8 5.4.2 1.3-.5 2.7-1.1 4.1-1.5z"/><path id="XMLID_105_" class="st7" d="M256.8 241.9c-2.2 1.2-4.4 2.3-6.5 3.5-.8.5-1.5 1.1-2.3 1.7-.4.3-.8.5-1.2.6-.7.2-1.4-.2-1.7-.7-.3-.7-.2-1.3.4-1.6 1-.6 2-1.3 3-1.6 2.4-.7 4.8-1.3 7.2-1.8.4-.1.7-.1 1.1-.1z"/></g><path id="Glasses" class="st9" d="M314.3 175c-.1-.6-.6-1.2-1.2-1.4-5.8-2.6-14.9-8.4-34.3-7.6-14.8.6-24.6 4.2-28.9 6.1-1.6.7-3.3.7-4.9 0-4.3-1.9-14.1-5.5-28.9-6.1-19.4-.8-28.4 5-34.3 7.6-.6.3-1.1.8-1.2 1.4-.4 1.7-.7 5.4 2.3 9.2.4.5 1 .8 1.6.8h2.1s1.1 19.2 10.6 25.7 24.9 6.2 32.1 2.6c5-2.6 8.5-6.6 10.3-12.7s1.5-14.9 8-14.9c5.7 0 6.2 8.8 8 14.9s5.3 10.1 10.3 12.7c7.1 3.6 22.6 3.9 32.1-2.6s10.5-25.7 10.5-25.7h2.1c.6 0 1.2-.3 1.6-.8 2.8-3.8 2.5-7.5 2.1-9.2zm-77.2 21.7c-1.7 10.3-10.3 18.4-28.9 14.8-16.4-3.1-17-19.9-17.3-22.9-.4-4.6-2.6-15.2 13-17 16-1.9 28.9 1.4 32.7 5.1 3.7 3.6 1.2 15.4.5 20zm67-8.1c-.3 3.1-.9 19.8-17.3 22.9-18.6 3.6-27.2-4.5-28.9-14.8-.8-4.6-3.2-16.4.5-20.1 3.8-3.7 16.6-7 32.7-5.1 15.6 1.9 13.4 12.5 13 17.1z"/><path class="st9" d="M198.6 165.9s12.5-1.7 24.6 0 13.7 2.4 13.7 2.4-.7-5.6-1.6-6.4c-1-.8-3.3-1.9-5.8-1.5-2.6.4-15.8 2.2-20.9 2.4-5.2.3-8.7 1-9.9 1.5-1.3.5-.1 1.6-.1 1.6zm63.1-2.5s11.7 1.6 13 1.6c1.4 0 15-.3 17.8 0l.7-.8s-7.3-2.2-12.1-3.9-13.5-3.7-15.8-3.9c-2.3-.1-3.4 1-3.7 2.2s-.8 4 .1 4.8z"/><path id="Hair" class="st9" d="M194 167.1l-6.9 2.3S182 147 180.5 140c-1.5-6.9 0-14.5 1.9-17.3 1.9-2.7 21.6-25.8 32.5-36.6s18.1-16.3 19.2-16.4 3 4.2 3 4.2 1.5-4.8 1-7.7c-.5-3-.7-5.4-.7-5.4s8.4.8 13.3 9.2c0 0 .5-4.6-1.1-8.2 0 0 6.4 1.1 10.6 9.9 0 0 1.4-3.7 0-5.6 0 0 4.3-.1 10.3 7.6 0 0 2-1.6 3.8.4s19.2 22.7 29.6 42.5c0 0 6.1 10.2 7.1 12s-2.9 32.5-3.9 40.6c0 0-4.5-1.9-6.9-2.6 0 0 3.7-16-1.9-31.5 0 0-.7-5.2-10.9-1.8s-25.6 6.9-39.7 6.3c-14.1-.7-37.1-6.4-41.4-6.3s-13.7 4.1-14.3 5.8c-.7 2-.7 19.5 2 28z"/><path class="st6" d="M222 186.3l-5.1 4.9 2.1-6.7c-.7-.2-1.3-.3-2.1-.3-3.9 0-7.1 3.2-7.1 7.1s3.2 7.1 7.1 7.1 7.1-3.2 7.1-7.1c0-2.1-.7-3.8-2-5zm59.6 0l-5.1 4.9 2.1-6.7c-.7-.2-1.3-.3-2.1-.3-3.9 0-7.1 3.2-7.1 7.1s3.2 7.1 7.1 7.1 7.1-3.2 7.1-7.1c-.1-2.1-.8-3.8-2-5z"/></g></svg>