<svg xmlns="http://www.w3.org/2000/svg" width="150" height="150.8" viewBox="0 0 150 150.8"><style>.st0{fill:#d8d8d8}.st1{filter:url(#Adobe_OpacityMaskFilter)}.st2{fill:#fff}.st3{mask:url(#mask-2_1_)}.st4{fill:#cd6799}.st5{display:none;fill-opacity:.2;stroke:#979797}.st6{filter:url(#Adobe_OpacityMaskFilter_1_)}.st7{mask:url(#mask-2_6_)}</style><g id="Page-1_1_"><g id="Artboard-1_1_"><g id="Group_1_"><g id="Mask_1_"><path id="XMLID_37_" class="st0" d="M78.1 149.9c40-1.6 71.9-34.6 71.9-74.9 0-41.4-33.6-75-75-75S0 33.6 0 75c0 41.1 33 74.4 73.9 75 1.4-.1 2.8-.1 4.2-.1z"/></g><defs><filter id="Adobe_OpacityMaskFilter" filterUnits="userSpaceOnUse" x="0" y="0" width="150" height="150.8"><feColorMatrix values="1 0 0 0 0 0 1 0 0 0 0 0 1 0 0 0 0 0 1 0"/></filter></defs><mask maskUnits="userSpaceOnUse" x="0" y="0" width="150" height="150.8" id="mask-2_1_"><g id="XMLID_25_" class="st1"><circle id="path-1_1_" class="st2" cx="75" cy="75" r="75"/></g></mask><g id="XMLID_21_" class="st3"><path id="XMLID_36_" class="st4" d="M79.7 150H85c1 0 2-.1 3.1-.2 5.6-.8 11.2-2 16.4-4.1 3.6-1.6 7.1-3.7 10.4-6 3.2-2.3 6.9-3.9 10.2-6.2 1.4-1.2 2.6-2.6 3.7-4 1.8-2.4 3.5-4.8 5.5-7.1 1.6-1.8 3.2-3.6 4.7-5.4.1-.2.2-.3.3-.5.5-1.4 1-2.8 1.8-4 1.1-1.6 2.4-3.1 4.2-4 1.5-.8 3.1-1.3 4.8-1.3V0H0v150h73.8c1.9-.1 3.9-.1 5.9 0z"/><path id="XMLID_32_" class="st5" d="M70.9 150.3c2.9-.4 5.8-.4 8.8-.3 2.8.1 5.5.1 8.3-.2 5.6-.8 11.2-2 16.4-4.1 3.6-1.6 7.1-3.7 10.4-6 3.2-2.3 6.9-3.9 10.2-6.2 1.4-1.2 2.6-2.6 3.7-4 1.8-2.4 3.5-4.8 5.5-7.1 1.6-1.8 3.2-3.6 4.7-5.4.1-.2.2-.3.3-.5.5-1.4 1-2.8 1.8-4 .7-1.1 1.6-2.2 2.6-3L124.1 90l-3.5-5.3-9.1-2.3-7.6.6-3.2 1.8-1.5-4.7-4.7-4.7-3.8 7-4.1 3.8-3.8-8.5-4.7 5.8-5.3 12.9-3.2 1.5-1.2-4.7H65L61.8 99l-2.9.3-.6-4.1V83.4L49 87.5l-.6 11.7-4.7 7.6h-8.1l-5.9-3.5.3 7.3L69.3 150c.5 0 1.1.1 1.6.3z"/><path id="sass_2_" class="st2" d="M71.7 37.6c.9.1 1.8.2 2.8.2 2.2.2 4.2.8 6.3 1.6 1.8.7 3.4 1.8 4.7 3.2 1.4 1.5 2.2 3.2 2.5 5.2.1.9.2 1.9.1 2.8-.1 1.9-.6 3.8-1.3 5.5-1 2.4-2.5 4.6-4.3 6.6-2.3 2.5-5 4.6-8.1 6-2.4 1.1-4.9 1.9-7.5 2.5l-3.6.6c-1.4.2-2.8.2-4.2.2-1.6 0-3.2-.2-4.7-.7-2-.6-3.8-1.7-5.2-3.4-.5-.6-.8-1.3-1-2 0-.2 0-.4.1-.6.2-.3.5-.3.7-.1.3.3.6.6 1 .9 1.1.9 2.3 1.5 3.6 1.9 1 .3 2 .5 3 .5.6 0 1.2.1 1.8 0 .8 0 1.5-.1 2.3-.2 2-.3 4-.7 5.9-1.4 3.4-1.2 6.5-2.8 9.3-5.1 2.4-1.9 4.4-4.2 5.7-7 .5-1.1.9-2.2 1-3.4.2-1.5.1-2.9-.7-4.2-.6-1-1.5-1.6-2.4-2.1-1.3-.7-2.7-1.1-4.2-1.3-1.1-.2-2.2-.3-3.3-.2h-2.1c-1 .1-1.9.2-2.9.3-1.6.2-3.2.5-4.7.9-2.2.6-4.4 1.3-6.5 2.2-4.1 1.7-7.9 3.8-11.6 6.2-2.5 1.7-4.9 3.5-7 5.7-1.4 1.5-2.6 3-3.5 4.8-.7 1.4-1.1 2.9-1.2 4.4-.2 2.5.6 4.7 2.1 6.7 1.2 1.6 2.6 2.9 4.1 4.2 1.9 1.6 3.9 3.1 5.8 4.6 1.2 1 2.4 2 3.5 3.2 0 0 0 .1.1.1.5-.3 1.1-.6 1.6-.8 2.7-1.5 5.5-3 8.2-4.5l.3-.3c1.6-2.2 3.6-3.9 6.1-5.1.6-.3 1.2-.5 1.9-.6.8-.1 1.7-.1 2.5.3.8.5 1.2 1.3 1.4 2.2.2.8.2 1.5.1 2.3-.1.5-.1 1-.1 1.5.1-.1.3-.2.5-.3l.9-.3c.5-.1 1 .1 1.4.4.7.4.8.9.6 1.6-.5 2-1 3.9-1.5 5.9-.4 1.4-.7 2.9-1 4.3-.1.8-.2 1.5 0 2.3v.1l.1.1c.1-.1.2-.1.2-.2.4-.6.8-1.3 1.1-1.9 1.5-3.2 3-6.4 4.5-9.7 1.1-2.5 2.2-5.1 3.4-7.6.5-1.1.8-2.3 1.1-3.4.1-.6.4-.9 1-1 .6-.1 1.2-.3 1.7-.3.8-.1 1.7-.2 2.5.1.3.1.5.2.7.4.3.2.4.5.2.9-.3 1-.7 2-.9 3.1-.3 1.2-.3 2.3-.2 3.5.1 1.7.7 3.1 1.5 4.6l.1.1c.2-.3.3-.5.5-.8 1.7-2.8 3.3-5.6 4.7-8.5.6-1.1 1-2.3 1.2-3.6.1-.6.3-1.1.5-1.7.1-.2.2-.4.4-.5.6-.3 1.2-.4 1.8-.5.8-.1 1.6-.1 2.4-.1.5 0 .9.2 1.3.5.2.2.3.5.2.8-.3 1.1-.7 2.1-1 3.2-.3.9-.3 1.9-.2 2.8.1 1.6.4 3.1 1.2 4.6.3.6.6 1.2 1 1.8 0 .1.1.1.1.2.4-.2.9-.4 1.3-.6 1.8-.7 3.6-1.2 5.5-1.4.5-.1 1.1-.1 1.6-.1.3 0 .6-.1 1 0 2.7.1 5.3.6 7.8 1.9 2.4 1.3 4.2 3.1 5.2 5.7.4 1.1.6 2.3.6 3.4 0 1-.2 2-.7 2.9-.8 1.5-2 2.5-3.6 3.1-.3.1-.6.1-.9.2-.1 0-.3-.1-.3-.2-.1-.1-.1-.3.1-.4.2-.1.4-.3.5-.4.8-.5 1.5-1.1 2-1.9 1-1.4 1.1-3 .5-4.6-.7-1.9-2-3.3-3.8-4.4-1.5-.9-3.2-1.4-4.9-1.7-1.3-.2-2.5-.3-3.8-.3-2.3 0-4.6.3-6.7 1.2-.2.1-.2.1-.2.4.2.8.5 1.6.6 2.4.4 2.2-.3 4.1-1.9 5.7-1.4 1.5-3.1 2.6-5 3.2-.6.2-1.3.5-1.9.6-1.4.2-2.5-.6-2.8-2-.1-.9.1-1.7.3-2.5.4-1.6 1.3-2.9 2.3-4.2.9-1.2 1.9-2.2 3.1-3.2.1-.1.1-.2.1-.3-.5-1-1-1.9-1.4-2.9-.6-1.5-.9-3-1.2-4.5 0-.1 0-.2-.1-.4-.1.1-.1.2-.1.3-1.6 3.2-3.4 6.4-5.5 9.3-.3.4-.3.7-.1 1.2.5 1 .8 2.1.9 3.2.2 2.5-.5 4.7-2.5 6.4-1.1.9-2.3 1.5-3.5 2-1.1.5-2.3.7-3.4.9-.7.1-1.4.1-2.2-.1-.7-.2-1.1-.6-1.3-1.2-.1-.5 0-1 .3-1.4.6-.8 1.1-1.6 1.8-2.3l4.2-5.1c.4-.4.7-.9 1-1.3v-.3c-.5-1-1-2-1.5-3.1-.6-1.3-.9-2.8-1.3-4.2-.1-.4-.2-.8-.2-1.2-.1.1-.1.2-.1.3-1.3 3.3-2.7 6.5-4.3 9.7-1.4 2.8-2.9 5.4-4.3 8.2-.6 1.1-1.4 2.1-2.3 2.9-.5.4-1 .7-1.7.7-1 0-1.7-.5-2.1-1.3-.4-.6-.6-1.3-.6-2.1-.1-1-.1-2.1-.1-3.1 0-.4.1-.8.1-1.2v-.2c0 .1-.1.1-.1.2-.9 2.1-1.8 4.1-2.8 6.1-.4.7-.8 1.3-1.3 1.9-.8.8-1.8 1.1-2.9 1-1.2-.1-1.9-.8-2.6-1.7-.9-1.3-1.4-2.8-1.8-4.3-.3-1.3-.5-2.5-.4-3.8.1-2.3.5-4.6 1.2-6.9 0-.1 0-.2.1-.3-1.9 1-3.8 2.1-5.6 3.2.2.7.5 1.4.7 2.2.2.7.3 1.3.4 2 .1.8.2 1.7.1 2.6-.1 4-1.4 7.6-4 10.6-2.2 2.5-5 4.3-8.3 5.2-.9.2-1.9.4-2.9.4H35c-.1 0-.1 0-.2-.1-.6-.1-1.3-.2-1.9-.3-.9-.1-1.8-.5-2.4-1.1-1.3-1.3-1.9-2.9-2.1-4.7-.1-.8 0-1.7.2-2.6.5-2.3 1.5-4.2 3.1-5.9 1.3-1.4 2.8-2.6 4.3-3.7 2.5-1.8 5.2-3.4 7.9-4.7.3-.1.6-.3.9-.5l-.3-.3c-1.4-1.1-2.9-2.1-4.3-3.2-2.3-1.6-4.6-3.1-6.7-4.9-1.9-1.6-3.8-3.3-5.3-5.3-1.2-1.5-2.1-3.2-2.6-5l-.3-1.5v-1.5c.1-.6.2-1.1.3-1.7.5-2.2 1.5-4.1 2.7-6 1.9-2.8 4.2-5.3 6.7-7.5 3.3-2.8 6.8-5.1 10.6-7.2 2.6-1.4 5.3-2.7 8.1-3.8 3.2-1.3 6.4-2.4 9.8-3 1.9-.3 3.8-.5 5.7-.6.7-.2 1.6-.2 2.5-.2zM47.1 91c-.2.1-.3.2-.5.3-2.9 1.7-5.6 3.5-8.1 5.6-1.5 1.3-2.7 2.8-3.4 4.6-.4 1.1-.7 2.2-.5 3.5.1.8.5 1.5 1.4 1.8.5.1 1 .2 1.5.1 1-.1 2-.4 3-.9 1.9-.9 3.4-2.3 4.7-3.9 1.6-2.2 2.5-4.7 2.5-7.4 0-.8-.1-1.6-.2-2.3-.2-.5-.3-.9-.4-1.4zm12.4 2.1c0 .6.1 1.2.1 1.8.1.7.2 1.3.5 1.9.3.6.7.7 1.2.1.4-.5.8-1 1-1.6.7-1.5 1.3-3.1 2-4.6 1-2.5 2-5 2.7-7.6.3-1 .6-2 .6-3.1 0-.4-.2-.6-.5-.6s-.7.1-1 .2c-1 .4-1.7 1.1-2.4 1.9-.7.9-1.3 1.9-1.8 2.9-1.5 2.7-2.3 5.6-2.4 8.7zm40-5.9c-.1.1-.1.1-.2.1-1.7 1.6-2.9 3.5-3.6 5.7-.1.3-.1.6-.1.9 0 .3.1.3.4.2.1 0 .2-.1.2-.1 1.3-.6 2.4-1.4 3-2.7.3-.6.5-1.3.5-2.1s0-1.3-.2-2zM81.3 97.4s0 .1.1.1c.2 0 .4 0 .6-.1.5-.3 1-.6 1.5-1 1-.8 1.9-1.7 2.4-2.9.3-.6.4-1.3.4-2-1.5 2.2-3.3 4.1-5 5.9z"/></g></g></g></g></svg>